<?xml version="1.0" encoding="UTF-8"?>
<svg id="Layer_2" data-name="Layer 2" xmlns="http://www.w3.org/2000/svg" viewBox="0 0 126.38 116.43">
  <defs>
    <style>
      .cls-1 {
        fill: #202020;
      }
    </style>
  </defs>
  <path class="cls-1" d="M56.37,41.62c.11-.02.15-.08.16-.14-.1.04-.18.08-.16.14Z"/>
  <path class="cls-1" d="M53.92,40.89c.05.02.1.03.14.05-.05-.06-.11-.09-.14-.05Z"/>
  <path class="cls-1" d="M70.68,41.98l-.38-.21c-.03.22.2.16.38.21Z"/>
  <path class="cls-1" d="M77,41.44h.12c.03-.08.07-.17.1-.27l-.21.27Z"/>
  <path class="cls-1" d="M81.65,42.13c.06-.23.14-.34.24-.39,0-.11-.01-.23-.05-.4-.11-.02-.15.54-.19.78Z"/>
  <path class="cls-1" d="M95.5,43l-.02.08c.08.07.16.14.24.21l-.21-.29Z"/>
  <path class="cls-1" d="M49.45,40.17s.01,0,.02.01c.12-.06.05-.05-.02-.01Z"/>
  <path class="cls-1" d="M46.61,63.81c.11-.68.98.2.98-.7-.13.19-1.08.04-.98.7Z"/>
  <path class="cls-1" d="M38.65,40.51c.06.1.14.17.23.25-.02-.06-.07-.13-.23-.25Z"/>
  <path class="cls-1" d="M32.65,41.25c.06.01.12.03.19.05-.08-.02-.15-.04-.19-.05Z"/>
  <path class="cls-1" d="M32.65,41.25c-.12-.03-.23-.05-.29,0,.06.02.11.04.17.07-.03-.06,0-.09.12-.07Z"/>
  <path class="cls-1" d="M31.8,43.81c.05,0,.08-.02.12-.03-.05-.05-.12-.11-.17-.17l.05.2Z"/>
  <path class="cls-1" d="M96.05,43.45c-.12.13-.43.22-.68.04l.11-.41s-.08-.08-.13-.12l.04-.05h-.09c-.61-.6-1.17-1.26-2.18-.93l.03.88-.49-.11.33-.46c-.48-.01-.39.31-.32.63h-.26c-.08-.02-.15-.01-.22,0h-1.43l.05-.15-.14.15h-.59c.02-.12.06-.22.18-.27-.43-.41-.38.3-.76-.16-.04-.07-.02-.11.02-.14l-.42.25c.08-.17-.07-.59.19-.47-.76-.48-1.23.62-1.51,0l.06-.05c-.79.21-.46.45-.57.85h-.49l-.37-1.03-.1.61c-.11-.02-.32-.07-.28-.31-.41.42.07.27-.17.66-.52-.56-1.45.26-1.56-.71-.19.46.5.36-.06.68-.16-1.05-.65.18-1.13-.3.15-.54.6-.25.12-.74-.29.91-.93-.2-1.34-.02-.02.73-.88.3-1.56.54.04-.24-1.28-.4-1.91-.66l.02-.12c-.12.73-.77.6-1.25.75.02-.44.1-.61.36-.81h-.45c-.11.24-.24.36-.53.45l.11-.55c-.59.03-1.19.65-1.96.28-.03.35.25.88.19,1.29h-.4c.01-.17.06-.33.17-.39-.07.04-.25.23-.39.11l.32-.47c-.35-.2-.18.39-.46.35,0-.39-.21-.28-.17-.6.07-.04.24.16.35,0-.31-.07-.69-.31-.82-.6.03.22,0,.53-.23.58-.59.03-.2-.47-.55-.68-.14.27-.52-.01-.53.58-.17,0-.21-.28-.27-.44-.31.26-1.43.07-1.09.7l.08.04s-.03.01-.05.03c-1.01.59-2.09-.33-3.09-.08v-.2c-.59.23-1.32.13-1.75.56-.18,0-.42-.36-.34-.6-.46.15-.51.37-1.16.04.46-.34-.16-.31.47-.25-.59-.17-.73-.49-1.36.05.22-.51-.45-.64-.73-.49l.41.36c-.32.07-.59.03-.87-.01l.15-.67c-1.21-.81-2.18,1.38-3.11.02-.32.47.66.33.37.87-.56-.09-1.14-1.04-1.31-1.05-.76-.37-.71.97-1.51.72.1.24.2.87-.4,1.09-.56-.09-.69-1-.33-1.19.13-.02.2.06.19.14.18-.09.42-.19.2-.45l-.07.24c-.28-.24-1.04-.22-.86-.61-.42.23-.18.39.13.51-.71-.34-1.12-.01-1.85-.24.12.13.22.41.11.41-1.08-.29-.48.45-1.21.55-.42-.36.15-.86-.59-.56-.45-.24-.1-.63.08-.82-.67.46-1.25-.3-1.64-.38l.35-.19c-.21.11-.38.11-.56.11l.2.47c-.21-.08-.38-.09-.38-.28-.21.31.16.79-.26,1.21-.28-.24-.84.26-.94-.37.87.21-.1-.63.64-.73-.14.08-.32.07-.52-.01-.03-.07.03-.13.09-.17-.83-.56-.38.71-1.24.7.11-.35-.2-.67-.34-.6.35,0,.17.59-.15.86-.55-.28-.6.21-.89.17l.33.13c-.11.35-.39.31-.77.42-.03-.28.35-.19.21-.31-.43.62-.97-.65-1.56-.23-.28-.24-.03-.67-.27-.83-.67.46-.72-.49-1.43-.11.2.48.24.36-.26.83l1.16-.34-.74.69c.35,0,.74-.3.95-.22-.35.39-.32.27-.15.67-.48-.72-.95.42-1.5-.07l.02-1.18c-.83-.53-1.47.61-2.55.31l.35.21c-.07.23-.24.25-.43.23-.19-.02-.39-.07-.68.02.03-.39-.32-.54-.61-.78.1.29-1.35-.03-1.14.76-.31-.17-.64-.35-1-.52-.77-.11-.98.17-1.07.47-.1.29-.09.59-.7.52-.14-.43-1.03-.71-.49-1.02-.45,0-.94-.08-.62.2-.27-.12-.42,0-.57.13-.15.12-.31.22-.78.03.08.17.68.59.22.55-.18-.08-.32-.2-.32-.2.31.2-.19.27.91.7-1.09-.43-1.86-.55-2.44-.57.28.38.74.86,1.02,1.22.28.37.37.64.02.74.77.77,1.58,1.6,2.09,2.19-.18-.04-.26-.01-.3-.12.23.89,1.8.45,1.95,1.31-.32.62-.74-.39-.78-.05-.67.2-.35.54.06.88.42.35.89.66.87,1.24l-.2-.13c0,.1.04.2.09.28.02.06.06.11.12.16.1.09.25.16.41.23.32.14.7.28.89.59,0,0-.11.04-.16.12.83-.02,1.59.59,2.16,1.03-.53.14-.41-.08-.73.34.25.2.6-.59,1.1-.18-.09.33,0,.84-.4,1.23l-.39-.45c-.37.68.49.59.59.91l-.27.16c.64.65,1.27.18,1.82.98l.12-.23c.94-.06-.07.62.72.68l-.52.61c.37.16,1.36.5,1.87.9-.68.08-1.37-.31-1.93-.46.21.28.78.9,1.2.8-.15-.06-.41-.08-.4-.27.75-.05,1.34.21,1.76.76-1.28.85.82,1.66.19,2.79,1.21.62,1.32,2.07,2.27,3.14.62-1.14.29.31,1.19-.52.26.21.33.32.29.39v-.08s0,.06,0,.09h0s.05,1.24.05,1.24c-.13.41-.41-.08-.6.11.38.63-.22.56-.17,1.14.28-.35.65-.19.78.24l.08-.81c1.14.4-.26,1.33.88,1.74l-.5-.02c.5.27,1.2,1.54,2.29,1.34-.05.16-.24.46-.45.34.66,1.08,2.56,1.56,2.69,2.71l-.29.11c.21.13.69-.03.64.39-.11.06-.29.11-.24.21.16.03.8.17.85.52h-.43c.45,1.21,1.81.98,2.61,1.66-.69.54-.32,1.48-.13,1.95l-.11.06c.8,1.19,2.08,1.46,3.17,2.29-.12.62.23,1.23.66,1.86.28.4.58.82.87,1.22.39.56.76,1.14,1.07,1.75-.15-.44.39-.62.65-.43.26.62,1.04.33.75,1.27l-.11-.16c0,1.28.83,2,1.38,2.73l.13-1.55c.05.17.1.33.16.49.66.13,1.6-1.35,2.27-2.45.71-1.15,1.2-2,2.07-2.04.11-.35.11-.46.18-.66.06-.18.11-.36.11-.56l.43.36c.65-.6.98-.89,1.54-1.83l.18.42c.4-.46-.81-1.61-.49-2.07l.77.39c.65-.84,1.89-1.23,1.94-2.52.09.09.26.27.18.42.33-.38,1.64-1.16.62-1.74.6.46.73-.81.83-1.47l.38.41c-.26-.82-.4-.95-.14-1.61.16-.08.44.17.19.24.56-.24-.16-.65.47-.98l.13.41c.37-.4.2-.49.06-.98.04-.41.75-.73,1.2-.48-.2-.25-.33-.74-.02-.9.18.08.2.25.21.33.87-.49.33-1.47,1.15-1.63.15.1.25.13.33.12-.46.56-.85,1.01-.85.94.4.32.84-.09,1.11.72-.01-.61-.17-1.77.37-2.07.06,0,.11.02.19.05v.08c.13-.07.17-.2.17-.34.18-.09.3-.14.42-.28.38.21.6-.39.8-.61-.46-.33-.15-.57-.74-.58.06-.01.02.08-.08.25-.01.04-.04.09-.03.13l-.03-.05c-.11.16-.25.37-.42.6-.08-.36-.12-.7.33-.76-.19-.34-.38-.7-.46-.88.86.17,1.68-.18,2.12.04.31-.9,1.14-1.79.66-2.88.05-.28.42-.04.61-.02,0,.18-.13.31-.06.47.1-.57.85-1.25.35-1.8.66-.3.31.7.76-.06l.1.23c2-.64.26-3.38,2.64-3.96-.16.05-.23.07-.34.02,1.88-1.31,2.3-3.94,4.47-4.99.55-.35.22-.7.17-1.21l.56.27-.15-.94c.16-1.03,2.14-.32,2.09-1.83l-.41-.13c.32-.28.62-1.18.95-.84-.03-.08-.25-.37.02-.36l.26.19.2-1.13c.67-.48.91.87,1.67,0,.17-.41.03-1.53-.24-1.53ZM80.46,65.44s-.03-.04-.04-.06c.07.08.14.16.17.24-.06.2-.19.19-.29.14.05-.08.1-.17.16-.31ZM89.34,42.82s.04.06.05.09h-.24c.06-.03.12-.06.18-.09Z"/>
  <path class="cls-1" d="M80.23,64.88s0-.06.02-.09c-.06,0-.12,0-.17.01.03.06.07.11.1.16.02-.03.04-.06.06-.09Z"/>
  <path class="cls-1" d="M70.83,42.06s.04.04.05.08c-.02-.03-.02-.04-.03-.07h-.03Z"/>
  <path class="cls-1" d="M84.94,41.94l.76.16c-.13-.22-.31-.51.04-.56-.96-.65.2.49-.8.4Z"/>
  <path class="cls-1" d="M82.58,41.63c.41-.1,0-.32.02-.44-.26.2-.32.25-.02.44Z"/>
  <path class="cls-1" d="M65.58,41.11c-.32.07,0,.2-.04.51l.04-.51Z"/>
  <polygon class="cls-1" points="60.5 40.55 59.97 40.74 60.36 40.62 60.5 40.55"/>
  <path class="cls-1" d="M30.23,42.62l1.04.31c-.39-.32-1.76-.91-1.04-.31Z"/>
  <path class="cls-1" d="M40.75,55.3c-.14-.25-.12-.61-.27-.68-.16.3-.11.7.27.68Z"/>
  <polygon class="cls-1" points="64.49 86.57 65 85.64 64.75 85.89 64.49 86.57"/>
</svg>