<?xml version="1.0" encoding="UTF-8"?>
<svg id="Layer_3" data-name="Layer 3" xmlns="http://www.w3.org/2000/svg" viewBox="0 0 300 300">
  <defs>
    <style>
      .cls-1 {
        fill: #ff9b9b;
      }

      .cls-2 {
        fill: #ff9c9c;
      }

      .cls-3 {
        fill: #202020;
      }

      .cls-4 {
        fill: #212121;
      }
    </style>
  </defs>
  <g>
    <g>
      <path class="cls-4" d="M246.15,123.05c0,50.06-43.05,90.65-96.15,90.65s-96.15-40.58-96.15-90.65h192.29Z"/>
      <g>
        <path class="cls-3" d="M249.52,124.26c-.37-1.85-1.64.97-.69-1.21.73.25,1.29.61.69,1.21Z"/>
        <path class="cls-3" d="M240.23,120.7c-5.74,4.8-13.3-.05-19.59,3.01-.74.2.19-2.63-1.47-1.99-6.09,3.72-15.7,1.5-23.12-1.37l.45-.74c-1.41-.54-3.14,1.92-4.64,1.58-.01-.49.48-.7.13-1.37-.38,1.49-2.71.68-3.34,1.79-.59-.58-.53-1.76-1.3-2.41l-.86,1.69c-2.38,4.02-5.79-.28-9.04,1.8.16-.39.48-.7.22-1.08-5.22,2.44-11.76,1.99-17.6,2.89.23-.6.45-1.69.11-2.36-.29,1.78-2.09,2.23-3.66,2.58-.71-1.83-2.68,1.67-4.52.66l.16-.41c-1.36,1.92-2.01-1.1-3.11,1.19l-.86-1.44c-.6,2.58-1.96-1.34-3.08-.03l.04.53c-1.06.63-1.61-.66-2.59-.23l-.09-.3c-2.3.68-3.63-.76-3.58,1.25-.8-1.61,2.22-.73.96-3.08-7.55,2.07-15.34,1.67-22.95,1.7-.86-.81-1.41-1.05-1.61-1.82-.76.41-2.86.37-3.55,1.4.25-.04-.49-1.03-.89-1.13-1.38-.76-1.51,2.21-3.03,1.31.6-.54.81-1.19.61-1.94-1.3,1.57-3.03,1.32-4.56,1.83.24-.34.61-.54.55-1.17-1.67,1.78-3.06-.38-4.52.75l.55-1.16c-2.36-1.41-.7,2.43-2.74,1.6.49-.37.32-.82.41-1.3-1.91,2.12-4.99,1.42-6.89,2.13.11-.16.08-.48.08-.48-2.07.26-4.24-.39-6.52.53-.83-.52.27-2.84-1.92-2.41.08,2.34-3.72.96-2.43,3.6-1.87-.38-4.84-1.26-6.09-.47.84-.89-.91-2.85.64-3.05l-1.18-1.41c.17-.96,1.21.32.84-.88-.78.09-3.06,1.02-3.75.64-.72.72-1.42,1.74-2.21,2.62-.76.88-1.43,1.62-2.35,1.77.35-.46.12-1.1-.19-1.68-.31-.58-.69-1.1-.34-1.3-.81,1.49-1.26,2.98-1.35,4.47-.5.11-1-1.84-1.59-1.23.38.62.22,1,.29,1.5-.18-.13-.65.01-1.29-.09-.64-.11-1.51-.47-2.66-1.62-1.09-.9.68-.49-.76-1.3-1.3.02-.62.81-1.79.84l-.35-.31c-.15-.04-.28-.06-.4-.05-.04.02-.14-.02-.13.05.02.08.04.16.07.25.11.35.31.76.56,1.15.5.8,1.21,1.49,1.89,1.69.07-.4-1.51-1.09-.8-1.2,1.48,1.82,1.91,3.14,1.96,4.06-.41-.57-1.08-.98-1.79-1.6.99,1.39,1.7,2.39,2.25,3.25.55.85.93,1.57,1.4,2.24.58.16.04-.07-.57-.38-.61-.31-1.29-.72-.99-.72-.73.61,0,1.78.56,2.6.28.43.55.8.63,1.16.04.18.03.36-.05.55-.04.1-.1.19-.17.3-.08.1-.16.3-.27.44-.26-.31,1.49-.48,1.19-.4.1,1.23-1.48,1.52-.73,2.19-.89.28.53.94,1.01,1.67.76.26-.39.32-.66-.37,1.02,1,3.56,4.99,3.23,7.92.57-.24,2.67.76,2.81,1.34l-1.42.29c-.64.85.89,1.84-.22,2.41,1.06.27.22-.74-.62-1.71-.8-.99-1.64-1.93-.7-1.31-.49.42.26.82.88,1.13.62.31,1.15.54.16.72.53,1.14,2.48,1.59,1.69,3.21.08-.4-2.21-.13-1.73.77,1,1.51.84.18,1.9,1.27l.92.55c1.28-.56.51,1.5,1.63.21-.97.74,1.82,1.88-.33,2.83l-1.73.65c.49.62,2.3.19,3.28.31-.1.17-.33.53-.6.64,2.45-1.28.74,1.68,3.05,1.33-.05,1.88,2.09,3.37,1.07,4.99,1.37.55,2.87.8,3.21,2.27-.37-.06-.67-.32-1.2-.02-.13,1.2.59.93,1.43,1.29-.46.13-.18,2.38-.29,3.79,1.44.42,2.31-.9,3.09-1.4-.71,1.33.21,1.69,1.17,2.02.96.34,1.94.65,1.5,2.03-.55-.04-2.2-.39-2.01.84-1.23,2.78,3.07.21,3.4,2.42l1.29-1.96c-.21.79.48,1.01,1.01,1.23.55.2.92.39.06,1.19,1-.21,1.07,1.98,2.41.17.43,1.71,2.05,2.58,3.31,3.61,1.29,1.01,2.36,2.04,1.92,4.23.55-.04,1.22.88,1.7-.19.13-1.4-1.32.16-1.04-.69.35.17.77-.28.98-.51.44.94.98,1.47-.82,2.51.98,2.3,3.87-1.92,5.56.15-.59.72-.61,1.12.12,1.39l2.04-.62c1.23,1.18-.23,2.3-.99,3.69.94.2,1.9.81,2.81-.03l.05,2.27c-.05-1.66,1.09-.46,1.66-.64l-.56.16c-.15.66,1,.76,1.56.82.31-.93-.48-1.74-.87-2.25.73-.41,1.3.04,2.2-.43-.86,1.29.84,1.62,1.41,2.08.61.66,1.41-.89,1.6-.74-.31.74,1.17.64.14,1.42-.36.12-.27-.96-.98-.5.25.75-.36,2,1.09,1.52,1.08-.37.99-2.88,2.07-1.36-.53.19-.84.73-1.35,1.11l1.09,1.33.58-1.27c.05.41-.12.47-.1.68.96-1.21,2.32.38,3.21-1.06.75.11,1.14,1.49,1.78,1.84l-.17.07c.58,1.05,1.88.89,2.85.21l-.13.28c.42.26,1.57.38,2.37-.27.88,1.33-1,5.2.78,3.86,1.24.28,2.51-1.98,2.24-2.98,1.95,1.39,4.8-.27,6.43,2.15.41-.51.27-.89.96-1.11,1.53.58,3.29.31,4.89.38,1.61.08,3.1.24,4.3,1.73-.98.52-.15,1.39-.17,2.19.86-1.2.89,1.37,1.28-.76-.02-1.27.08-1.88-.79-2.45.97-.24,2.18-.43,3.27-.33,1.09.08,2.08.43,2.62.99-.54-.57-.12-.97.29-1.36-.13,2.02,1.32,2.29,2.37,1.56l.11-1.24.74,1.25c.4-.4.33-2.58,1.44-1.48.08.47.17.95.39,1.28,1.06-1.1,2.43-2.85,3.71-1.97l1.17,1.67c.49-.26,1.21-1.43.26-1.84,1.07.41,1.95.63,2.66.89.71.25,1.26.58,1.71,1.29,2.93-4.23,7.59-5.53,11.52-6.45l.16.92c1.29.49.05-1.71.96-1.33-.07.94,1.38,1.56.89,2.85,1.83.45,1.44-2.13,2.23-2.89-.26-1.19-.5,1.01-.83-.5,0-.47,2.33.14,1.9-1.65.62.54.82,1.9.89,2.66l.58-1.16c.94.79.67,1.91.4,3.09-.27,1.18-.55,2.44.53,3.44l.78-.6c1.55,1.47-1.6,2.9.89,2.67.68-1.2.47-4-.66-4.41,1.74-1.28-.76-4.41,1.27-5.12.97.76-1.48.91-.52,2.14,1.53.94,1.59-1.55,2.61-1.46-1.2-.2-1.18-2.24-.76-2.82,1.34.31.09,1.88,1.57,1.37-.22-1.07.69-2.38-.72-2.52-.57-2.39,1.72-.07,1.6-2.11,1.23,1.26.38,4.21,2.27,4.16-.98-1.32.81-2.95-1.11-4.65.79.11,1.47,1.19,1.52,2.3,1.33.4.56-3.65,2.41-1.03l-.56-1.6c.52.32,1.09.45,1.96.97.75-.42,1.1-3.28,2.37-1.15.09-.37,1.73-1.34.16-2.37-1.54-.24-.42,1.82-2.23.19,1.72,1.17,1.26-1.14,1.44-2.03l.63.74c.12-.53,1-.87.6-1.86.07.62.58,1.08.98,1.09l-.52-1.45c.84-1.54,1.82,1.88,2.84.59l-.29,1.64c.07-.35,1.32.42,1.68-.41-.57-1.26-1.1-2.86-1.55-3.84.32-1,1.24.95,1.05-.68l.12,1.99c.14.47,1.97,1.26,2.9.46.32-.86-.03-3.08-1.42-2.9.44-.38,1.62-.29,1.88.76.73-1.23-1.06-.98-.74-2.37.93.37,2.88.33,4.45.68l.58,2.5.64-.55c.4,2.07,1.35.64,2.17,2.45.65-.18.75-1.14.81-1.91-3.3-1.01-1.54-4.34-3.86-5.95,1-2.05,5.87,3.74,4.31-1-.79-.21-1.61-2.45-1.96-.88,1.16-.81-1.43-2.57.5-2.96.04,1.64,3,.9,3.04,3.3-.61-.7-1.19.26-1.18.64,1.18.29,1.97,1.98,2.98.88.44-.83,1.15-1.85-.05-2.64-1.23-1-.74,1.15-1.59-.33.68-1.69,2.75-.39,1.03-2.72-.54.98-1.96.14-2.79-.58l.27-1.36.67.85c1.86-1.05-1.11-1.64.25-2.96l2.2.55c1.15,1.45-2.31,1.76.18,3.29.89-.95-.06-2.2,1.28-2.69.04.36-.12.7-.08,1.07.33-.3,3.79,1.64,3.03-1.23-.18-1.3-.71-.81-1.59-1.46.86-1.9.33-2.97.83-4.18,1.67,1.37,1.38-1.87,2.49.52-.72-.04-1.4.6-1.8,1.43-.41.83-.48,1.89.15,2.78,2.5.8-1.19,1.17.58,3.02,1.07-1.35,3.03.12,4.55.82.38-.35.08-1.14.03-1.53-1.16-1.03-1.5-.49-2.83-1.35,1.47-1.35,1.7-3.43.96-5.08.98-.15,2.2.8,1.93,1.53.2-.55.45-1.09.72-1.61.26-.53.53-1.05.84-1.56.59-1.01,1.35-1.93,2-2.83-2.85.14.52-2.44-1.78-2.48-1.01.79-3.01.84-3.76-.21.44-.54.98.51,1.58.49-.86-1.39,2.58-.3,1-2.01-.14,2.15,2.6,1.66,4.22,2.82-.34-1.85,1.24.65,1.9-.73-.41-1.89-.44-3.92-.26-5.64,1.22-.67,1.71-1.94,1.91-3.26.16-1.34.07-2.69.3-3.6,1.24-.68,3.19.55,3.84-.43.27-1.27-2.55.33-1.11-1.27l.39.29c-.18-.34.39-1.1.64-1.95.26-.84.1-1.78-1.4-2.36l2.26,1.06c.28-.31-.2-.75-.39-1.09.77.14,1.55-.15,1.94.53,1.84-.89.26-2.56.33-3.85l-1.52.61c-.41-1.18-.21-2.07.06-2.96.29-.88.6-1.76.43-2.85l1.39.19-.73-1.35c1.32.42,2.29-.72,1.21-1.47,1.05,1.18,2.09,2.41,3.13,3.67-.9.88-1.59-1.2-3.01-.72-.62.2-.87.8-.81,1.41.03.61.38,1.24,1.02,1.49.26-.75-.04-.83-.47-1.48,1.97-.05,1.74,1.12,2.94,1.87-.02-.42.64-.95.05-1.11.83.92.87,1.78.73,3.16-.62-1.04-1.26.33-1.76-.1,1.69.35,2.03,1.77,1.21,3.37-1.08.42-.92,1.26-.6,2.24.32.98.7,2.11.21,3.02-1.5-1.21-2.57-2.49-3.04-3.78-1.08.99-.26,1.32-1.38,2.29,1.12.86,2.94,1.75,3.31,3.54l-1.26-.25c.21,1.57,2.02,2.11,1.13,3.83-1.57,2.91-2.75,6.01-3.88,8.21l-1.21-.42c1,1.16.78,2.33.3,3.43-.47,1.11-1.11,2.2-1,3.3-1.31,1.1-1.83,2.76-2.43,4.17-.63,1.39-1.28,2.58-2.63,2.67-2.16,5.16-4.42,9.73-8.66,13.75l-.73-1.95c.32,1.66-1.24-.22-1.71.69,1.87.15.48,2.32.8,3.65-1.42.43-2.45,1.47-3.21,2.75-.76,1.29-1.36,2.72-1.79,4l-.91-.9c-.06,1.69-1.03,2.58-2.26,3.22-1.23.65-2.71,1.07-4,1.75-.59-.22-1.72-.88-2.31-.26-.03,2.62-.83,2.92-2.04,5.3-1.39,1-4.09,1.92-5.94,2.13-1.02,1.4-2.24,2.53-3.55,3.54-1.33.96-2.77,1.74-4.23,2.51-1.48.73-3,1.38-4.48,2.14-1.5.72-3,1.48-4.44,2.48l-.95-1.25c-1.28,1.25-2.8,2.18-4.43,2.9-1.65.65-3.38,1.12-5.11,1.49-1.74.31-3.45.59-5.06.92-1.62.28-3.12.66-4.44,1.3l.15-2.62c-1.79-.5-3.79,1.16-3.15,2.93-.92-.29-1.97.17-2.97.4-1,.22-1.95.27-2.57-.74-1.81-.35-2.11,1.36-3.6,1.73-1.83-.44-3.05-.6-4.26-.58-1.21-.03-2.39.12-4.1.31l.84.18c.39-.55.45-1.64-.38-1.83-1.28.73-4.56-.95-3.5,2.2-1.76-1.01-3.89-.78-6.03-.79-1.07,0-2.14.02-3.13-.19-.99-.23-1.92-.63-2.69-1.37.16.88-.76.88-1.23,1.37-1.6-.22-3.13-1.05-4.61-1.6-1.49-.55-2.88-1.02-4.31-.67-.38-.54,1.15-1.16-.08-1.58-.83.11-.3,1.05-1.35,1.25-1.38.06-2.65-.3-3.89-.76-1.24-.46-2.41-1.09-3.52-1.82-1.11-.71-2.21-1.41-3.28-2.09-1.07-.69-2.13-1.27-3.26-1.64-2.09-.45-4.1-1.21-6.09-1.99-.98-.44-1.95-.9-2.91-1.38-.97-.47-1.91-.98-2.82-1.54-.92-.55-1.83-1.11-2.74-1.66-.9-.57-1.76-1.18-2.63-1.77-1.76-1.15-3.41-2.41-5.08-3.57l.45-.43c-1.82.15-2.67-1.39-3.56-2.69-.91-1.29-1.75-2.49-3.74-1.9-.09-.87-1.65-1.86-.48-2.4-1.37-.11-2.16-1.5-3.09-2.87-.95-1.36-1.86-2.87-3.71-3.3.15.25.35.29.78.35-.28-.81-.7-1.45-1.17-2.04-.46-.6-.98-1.13-1.52-1.66-.53-.53-1.08-1.07-1.56-1.68-.47-.62-.85-1.34-1.1-2.18.41.11.93.48,1.48.18.19-1.7-3.9-.86-1.92-3.16-.43-.58-1.5.43-1.18.76-.78-1.67-1.76-3.22-2.77-4.77-.5-.79-1.02-1.56-1.56-2.33l-.83-1.15-.8-1.17c-1.09-1.56-2.25-3.11-3.28-4.75-.53-.81-1.06-1.62-1.57-2.45-.48-.84-.94-1.69-1.39-2.54-.25-2.87.96-3.39,1.66-3.6.72-.21,1.03-.1-.72-1.71.42-.51-1.15.14-.6-.12-.66-.64-.11-1.51.41-2.28.53-.78,1.01-1.44.1-1.75-1.6.98-1.19-.42-2.26-.14.15-3.5,1.71-4.5-.28-6.67l.98-.02c-.85-.57-1.4-1.25-1.83-1.98-.11-.18-.21-.36-.31-.55l-.14-.28-.16-.41c-.2-.57-.4-1.13-.6-1.69-.18-.56-.36-1.13-.56-1.69-.18-.56-.37-1.12-.6-1.68-.46-1.12-1.08-2.24-1.98-3.41l-.31-2.51c-.1-.84-.11-1.64-.17-2.47-.1-1.65-.21-3.3-.31-4.95-.1-1.69-.2-3.38-.3-5.06l-.16-2.56-.08-1.29-.02-.32c0-.05-.01-.11,0-.16h.15s.58-.07.58-.07c3.15-.31,6.28-.63,9.41-.94l2.39-.24,2.56-.1,5.17-.21,5.25-.2.66-.03h.32s.17-.03.17-.03l.7-.05,1.39-.1,5.57-.36c3.71-.22,7.43-.4,11.16-.49,14.76.59,29.2-.81,44.19.85,3.51,2.52,3.77,2.45,7.63,1.43-.15.41-.4.5-.14.88.19-2.06,2.72-.19,3.08-2.16,5.54.39,10.64-.18,16.34-.19-.9.22-1.35,1.91-.28,1.77l1.12-1.32.18.57c.73-.3,1.53-1.32.77-1.98,14.32-1.78,28.41,2.36,42.43,1.85,3.33.86,8.07.07,11.69-.35,10.73,2.75,20.39,4.97,31.29,3.04,0,0-1.42,5.33-5.92,6.56Z"/>
        <path class="cls-3" d="M249.66,126.5c-1.04.36-1.64,1.6-2.99.53.97-.08,2.07-.69,2.99-.53Z"/>
        <path class="cls-3" d="M232.09,155.69c.26.16-.57.22-.77.23.09-.37-.54-1.04.06-1.09-.07.38.39.52.71.86Z"/>
        <path class="cls-3" d="M227.99,162.36c-.74-.57-.59-2.36-.23-3.25l.23,3.25Z"/>
        <path class="cls-3" d="M220.99,166.31c-.97.05-1.22-.34-.76-.98.43.23.49.59.76.98Z"/>
        <path class="cls-3" d="M222.42,167.92c-.31.51-.94.41-1.53.33.66.45.4-1.38,1.53-.33Z"/>
        <path class="cls-3" d="M210.48,177.72c-.2.3-.24,1.42-1.19.89.79.28.45-2.06,1.19-.89Z"/>
        <path class="cls-3" d="M206.12,183.43c-.22.1-.4.03-.44.4-.59-.06-.66-.87-.45-1.16l.89.76Z"/>
        <polygon class="cls-3" points="84.73 180.11 85.61 180.36 84.89 180.92 84.73 180.11"/>
        <path class="cls-3" d="M61.45,132.43c-.66-.82.92.28,1.06.31.12.41-1.25-.9-1.06-.31Z"/>
        <polygon class="cls-3" points="83.22 125.33 82.96 125.35 83.05 123.48 83.22 125.33"/>
      </g>
    </g>
    <g>
      <path class="cls-2" d="M206.27,200.63c-56.19-75.68-122.73-9.81-122.73-9.81l10.1,12.78,24.67,8.02,31.8,8.62,28.53-6.24,26.15-10.7"/>
      <g>
        <path class="cls-1" d="M203.84,201.63c.87.59.62-1.13.83.19-.52.22-.98.32-.83-.19Z"/>
        <path class="cls-1" d="M201.02,202.96c-1.66,4.52-6.98,2.82-9.42,6.26-.33.3-.64-1.84-1.33-1.05-1.07,1.91-2.99,3.01-5.24,3.58-1.12.29-2.32.44-3.54.5-.61.03-1.22.04-1.82.03-.3,0-.61-.01-.89-.04-.26-.03-.5-.07-.74-.12-.04-.01-.07-.02-.11-.03l.02-.26v-.33s-.07-.01-.1,0c-.49-.05-1.13,1.74-1.95,1.67-.09-.36.15-.56-.14-1.01.03,1.12-1.39.82-1.57,1.7-.42-.35-.57-1.21-1.1-1.58l-.21,1.33c-.68,3.2-3.25.5-4.72,2.39.02-.3.15-.56-.05-.81-2.5,2.4-6.19,2.86-9.28,4.22.03-.46-.02-1.28-.31-1.72.12,1.32-.8,1.87-1.61,2.31-.68-1.24-1.22,1.53-2.4,1.03l.02-.31c-.45,1.55-1.29-.56-1.53,1.24-.27-.3-.52-.61-.76-.92-.03.98-.42.82-.8.53-.4-.29-.77-.7-1.11-.13l.02.4c-.11.1-.21.16-.29.19-.52-.07-.79-.8-1.33-.67l-.03-.24c-1.57.1-1.98-1.12-2.34.33-.13-1.27,1.36-.19,1.13-2.05-4.53.36-8.72-1.08-12.89-2.19-.31-.7-.56-.96-.51-1.53-.5.18-1.64-.16-2.23.47.15.01-.06-.81-.26-.94-.6-.75-1.28,1.35-1.92.48.44-.29.69-.72.73-1.29-1.03.92-1.93.49-2.87.63.2-.21.44-.29.54-.75-1.28,1.02-1.59-.72-2.63-.14l.54-.75c-1-1.35-.89,1.62-1.83.73.34-.19.34-.54.49-.86-1.48,1.22-3.02.27-4.22.49.1-.1.15-.33.15-.33-1.18-.14-2.25-.86-3.66-.64-.34-.51.75-1.97-.52-2.05-.45,1.67-2.21.03-2.08,2.13-.93-.6-2.34-1.74-3.18-1.4.65-.48.13-2.18,1.01-2.05l-.33-1.2c.3-.65.58.44.64-.48-.44-.07-1.86.19-2.16-.2-1.09.76-2.39,2.41-3.72,2.21.79-.45.23-1.93.72-2.08l-2.75,2.59c-.45-.06.32-1.33-.43-1.1-.11.45-.45.63-.75.92-.1-.24-1.88-.16-1.55-1.84.02-.7.79-.12.51-.85-.78-.23-.99.31-1.78.08l.05-.22c-.44-.41-1.73.2-1.46,1.28.34.17.18-1.02.55-.38-.66.83-1.65.79-2.43.56.35-.18.46-.62.71-1.04-.73.47-1.4.71-2.06.86-.16.04-.33.07-.49.09l-.25.04h-.34c-.46,0-.93-.02-1.41-.03-.34.74,1.22-1.15,1.27-.69-.87-.92-2.16-.8-3.5-.87-.78-.52-1.53-1.21-1.51-2.39.28.13-.72.94-.57.76-.62-.94.31-1.67-.43-1.9.51-.47-.55-.35-1.03-.62-.55.11.18-.31.51-.01-.45-.09-1.32-.53-2.1-1.18-.1-.09-.19-.16-.3-.26l-.39-.42c-.26-.29-.5-.58-.72-.89-.44-.61-.77-1.23-.9-1.79-.2.11-.82,0-1.46-.23-.63-.23-1.28-.58-1.44-.82l1.23-.16c.35-.59-1.27-1.45-.31-1.73-1.05-.31-.1.52.9,1.25.97.72,1.89,1.33.94.94.31-.32-.42-.56-1.07-.81-.64-.24-1.18-.46-.31-.53-.36-.42-1.01-.76-1.51-1.15-.5-.39-.88-.82-.6-1.29-.02.28,2.17.46,1.63-.15-1.04-1.09-.82-.26-1.94-1.18l-.97-.6c-1.31-.07-.62-1.09-1.74-.69.48-.05-.01-.52-.35-.95-.03-.05-.11-.11-.09-.15.05-.04.1-.09.15-.13.11-.08.23-.15.38-.2.29-.1.66-.13,1.17-.03l1.58.35c.29-.41-1.08-.93-1.41-1.44.22-.03.67-.09.91-.01-1.2-.28-.85-.56-.37-.87.48-.31,1.06-.64.49-1.2.92-.38,1.61-.99,2.32-1.5.7-.51,1.39-.92,2.23-.78.24-1,.48-2.17,1.82-2.71-.05.3-.28.56.02.9,1.06-.09.78-.55,1.12-1.25.06.34,2.17-.14,2.94.2.23-.96-.64-1.7-.98-2.29,1.78,1.24,1-2.35,2.81-1.36-.06.39-.33,1.47.49,1.52,1.73,1.25.29-2.04,1.79-1.87l-1.19-1.25c1.01.59.85-1.76,1.71-.26-.03-.73,1.43-.26.43-1.58,1.18.08,2.02-.71,2.91-1.28.9-.55,1.83-.89,3.06.1.09-.37.8-.47.26-1.14-.84-.57-.21.89-.66.43.18-.17,0-.58-.09-.79.69.03,1.14-.09,1.35,1.38,1.61.26-.21-3.09,1.56-3.33.26.64.49.81.86.48l.27-1.48c1.09-.25,1.26,1.11,1.81,2.13.41-.43,1.06-.68.91-1.57l1.26,1.01c-.91-.73.11-.83.23-1.21l-.12.38c.31.39.76-.16.99-.44-.37-.62-1.1-.58-1.52-.61.04-.59.5-.68.6-1.4.36,1.08,1.19.35,1.66.28.58.01.12-1.17.28-1.2.25.54.83-.25.78.67-.09.24-.61-.36-.67.23.5.26.87,1.22,1.22.25.27-.73-1.02-2.01.21-1.76-.14.37,0,.81-.03,1.26l1.1.16-.36-.97c.22.19.17.31.28.41-.17-1.14,1.23-.84.98-2.07.42-.28,1.22.3,1.7.24l-.05.12c.74.37,1.3-.28,1.51-1.11l.05.22c.31-.04.96-.41,1.14-1.11,1.01.5,1.5,3.63,1.9,2.13.73-.27.6-2.19.09-2.73,1.55.19,2.7-1.83,4.42-.63.1-.46-.1-.68.26-1.03.54-.04,1.07-.2,1.58-.4.52-.18,1.05-.39,1.57-.54,1.04-.32,2.08-.42,3.09.42-.53.55.14,1.03.25,1.61.33-1.01.75.83.66-.76-.2-.91-.23-1.39-.89-1.64,1.18-.72,3.16-.95,3.96-.18-.41-.39-.17-.7.08-1.02.09,1.49,1.04,1.6,1.69.98v-.92s.57.9.57.9c.25-.31.14-1.92.93-1.09.06.35.13.7.28.95.68-.79,1.69-2.11,2.54-1.39l.71,1.29c.33-.18.91-.95.28-1.35,1.41.82,2.3.93,2.72,2.08,2.39-2.87,6.05-2.59,8.82-2.1l-.17.66c.65.76.56-1.11,1.01-.55-.33.6.35,1.49-.35,2.18.93.89,1.53-.93,2.29-1.11.26-.86-.66.46-.33-.63.18-.29,1.35.95,1.78-.35.17.57-.24,1.51-.49,2.02l.78-.53c.44,1.69-2.32,2.45-1.88,4.51l.6-.11c.24,1.48-1.76,1.31-.49,2.03.71-.55,1.66-2.37,1.23-3.06,1.37-.13,1.29-3.04,2.69-2.57.2.88-1.18-.12-1.16,1.04.4,1.24,1.46-.24,1.96.29-.53-.67.36-1.85.87-1.97.56.81-.8,1.11.19,1.52.37-.71,1.49-1.01.81-1.76.86-1.6.95.77,1.92-.39-.03,1.28-1.89,2.47-.95,3.37.09-.6.55-.9.99-1.27.44-.36.85-.8.82-1.75.34.49.09,1.4-.45,1.99.37.92,2.21-1.53,1.63.79l.62-1.08c.06.45.24.83.32,1.57.52.21,2.34-.91,1.62.8.24-.12,1.44.42,1.45-.95-.49-1.01-1.23.54-1.04-1.23.03,1.52,1.19.24,1.84-.02l-.2.69c.37-.14.91.28,1.38-.35-.36.28-.45.78-.32,1.04l.71-.87c1.29,0-.53,1.87.62,2.05l-1.12.41c.24-.09.16,1,.78.91.61-.82,1.47-1.73,1.97-2.35.78-.12-.23,1.13.79.48l-1.27.73c-.25.24-.22,1.72.54,2.04.63-.09,2.06-1,1.53-1.85.41.16.64.99,0,1.47.99.17.39-1.01,1.4-1.14-.01.76.45,2.11.51,3.26l-1.54,1.04.47.29c-1.27.81-.19,1.07-1.22,2.1.21.38.82.18,1.32.04.18-2.5,2.62-2.05,3.41-3.97,1.66.33-1.77,4.72,1.28,2.84.07-.6,1.55-1.49.42-1.54.67.73,1.66-1.36,2.15,0-1.16.23-.42,2.25-2.08,2.59.44-.52-.26-.81-.52-.75-.11.88-1.18,1.69-.41,2.23.58.16,1.26.58,1.76-.37.64-.99-.81-.41.17-1.18,1.21.34.34,1.92,1.94.49-.71-.3-.18-1.4.29-2.06l1.02.11-.59.54c.85,1.27,1.17-.92,2.19.05l-.38,1.62c-1.05.89-1.3-1.63-2.36.28.67.57,1.56-.15,1.91.78-.26.04-.5-.06-.77,0,.21.26-1.22,2.68.74,2.12.89-.12.6-.51,1.11-1.14,1.24.69,2.08.32,2.87.8-1.15,1.11,1.15,1.14-.66,1.75.24-1-1.41-2.24-2.71-1.35-.76,1.81-.67-.91-2.07.44.84.7-.34,2.15-.94,3.21.17.25.71.03.96,0,.8-.82.49-1.05,1.19-1.99.75,1.01,2.05,1.26,3.29.84-.04.69-.88,1.48-1.32,1.26,1.32.67,2.46,1.73,3.18,2.96.61-1.99,1.4.73,2.01-.82-.25-.82.17-2.25,1.03-2.58.26.42-.56.59-.68,1.02,1.13-.33-.43,1.84,1.08,1.07-1.38-.49-1.73,1.48-2.91,2.37,1.24.05-.73.73-.07,1.37,1.23.05,2.51.4,3.49.9,0,.47.14.85.37,1.17.22.33.52.61.86.85.67.48,1.46.83,1.88,1.24-.13.95-1.62,1.76-1.4,2.43.54.55.94-1.62,1.14-.26l-.32.14c.52,0,.55,2.28,2.57.98l-1.59.91c.02.26.46.14.72.15-.43.38-.67.91-1.19.9-.46,1.3,1.1.97,1.6,1.53l.51-1.06c1.45.49,1.18,1.84,2.25,2.59l-.83.61.95.2c-.9.48-.99,1.41-.08,1.2l-3.18.06c.15-.8,1.33-.33,1.93-1.22.52-.77-.42-1.52-1.31-1.03.18.42.37.29.88.33-1.03,1.02-1.4.46-2.34.81.19.14.05.67.43.42-.82.09-1.18-.19-1.67-.75.74.04.51-.78.95-.9-1.02.77-1.73.44-2.06-.47.67-1.44-1.86-.65-2.26-1.69,1.24-.54,2.38-.81,3.21-.66.03-.93-.53-.53-.5-1.47-.93.39-2.18,1.2-3.19.95l.67-.67c-.89-.26-1.91.69-2.38-.22-.76-1.62-2.09-2.77-2.93-3.76l.62-.71c-1.92.96-2.25-1.13-3.56-1.13-.61-1.8-3.3-1.58-2.9-3.38-2.65-1.37-5.16-2.1-7.38-4.09l1.16-.86c-1,.54.15-.86-.4-1-.1,1.27-1.37.77-2.14,1.33-.58-1.56-2.66-1.42-4.09-1.14l.41-.85c-1.82.93-2.35-.93-3.55-1.84.02-.42.14-1.35-.3-1.43-1.35,1.08-1.65.73-3.07,1.23-.77-.28-1.89-1.09-2.49-1.94-1.81.41-3.36.27-4.89-.06-.77-.14-1.52-.39-2.31-.44-.79-.05-1.6-.04-2.43.14l-.04-1.14c-1.71.83-3.38.78-5.01.54-1.62-.31-3.23-.46-4.53.1l.26-1.89c-.85-.6-1.91.47-1.66,1.82-.85-.54-1.99,1.05-2.61-.48-.87-.3-.97.94-1.63,1.23-1.73-.52-2.36-.25-3.88.3l.41.07c.11-.44.01-1.24-.41-1.3-.52.56-2.27-.12-1.29,1.99-.95-.48-1.88-.02-2.79.38-.92.36-1.81.83-2.85.17.3.56-.08.78-.14,1.23-1.42.36-3.3-.32-4.12,1.05-.33-.22.03-1.12-.57-.99-.27.34.25.77-.06,1.23-.97.89-2.19,1.11-3.47,1.15-1.28.03-2.58.06-3.55.65-3.16,2.69-7.11,4.06-10.32,6.25l-.2-.41c-.21,2.1-3.53.11-3,2.86-.5-.21-1.08.47-1.38-.38-.16,1.59-3.07.67-3.37,2.84.14-.04.15-.17.16-.42-.9.04-1.44.52-1.94,1.05-.34.33-.31.37-.41.43-.1.06-.25.07-.53,0-.11-.17-.12-.33-.43-.67-.43-.22-.21.22-.05.5.15.29.22.42-.8-.18-.11.12.89.7.89.62-.86.14-1.36.75-1.42,1.24,0,.06-.01.12,0,.18v.09s.1.06.15.1c.22.13.43.24.63.35.35.17.7.35,1.04.52-.52.4-1.38.8-1.96.96-.58.16-.76.23.33.3-.35.24.83-.31.41-.11.39,0-.11.36-.49.75-.39.38-.69.78-.12.58,1.04-.85.73-.29,1.39-.78-.01.07-.06.1-.04.22.01.11.02.22.04.32.02.21.03.4.03.59,0,.37,0,.68.03.95.07.54.29.9,1.11,1.11l-.62.36c.22,0,.44.02.62.04.15-.03.28-.05.4-.06.23-.02.41-.02.57,0,.31.03.53.11.84-.01.3-.17.64-.47,1.04-1.04.13.01.25.02.37.03.02,0,.01,0,.06,0l.19.05.39.1.78.2c1.04.25,2.07.5,3.1.74,2.07.46,4.12.92,6.17,1.38,4.1.89,8.14,1.85,12.18,2.95,7.89,2.59,16,3.72,23.81,7.1,1.41,2.31,1.57,2.3,3.86,2.14-.16.27-.31.3-.25.61.22-.73.77-.62.71-.66.07-.01.14-.01.25-.74.03.05.07.08.11.11.07.01.14,0,.21-.03.03-.01,0,0,.08-.03l.48-.12.96-.26c1.28-.35,2.58-.72,3.95-1.02-.46.27-.45,1.54.12,1.32l.41-1.09.19.39c.36-.31.64-1.14.12-1.53,3.19-1.26,6.53-1.77,9.89-2.09,1.68-.16,3.37-.27,5.04-.4l2.51-.22,1.25-.14.31-.04c.12-.02.06,0,.1,0,.03.01.07.02.1.03.02,0,.05,0,.08,0h.04s.02,0,.12-.04l.92-.34c.61-.24,1.21-.49,1.8-.77,1.99-.12,4.25-1.68,6.03-2.75,6.39-.41,12.08-.97,17.25-4.62,0,0,.75,3.96-1.26,5.76Z"/>
        <path class="cls-1" d="M202.98,200.79c.48-.63.37-1.43,1.53-1.62-.53.49-.94,1.26-1.53,1.62Z"/>
        <path class="cls-1" d="M196.12,181.35c-.17.15,0-.42.05-.56.22.13.83-.18.69.25-.22-.13-.44.16-.74.31Z"/>
        <path class="cls-1" d="M192.66,177.59c.5-.47,1.71-.18,2.27.19l-2.27-.19Z"/>
        <path class="cls-1" d="M190.67,172.34c.02-.72.3-.9.74-.52-.19.31-.45.34-.74.52Z"/>
        <path class="cls-1" d="M189.46,173.35c-.32-.24-.23-.69-.17-1.11-.32.46.96.29.17,1.11Z"/>
        <path class="cls-1" d="M181.65,165.75c-.26-.09-1.03.12-.87-.66-.03.59,1.54-.1.87.66Z"/>
        <path class="cls-1" d="M176.73,164.21c-.13-.11-.13-.25-.39-.16-.13-.41.37-.72.64-.67l-.25.83Z"/>
        <polygon class="cls-1" points="92.54 177.07 92.78 176.51 93.1 177.11 92.54 177.07"/>
        <path class="cls-1" d="M96.43,209.85c.6-.26.13.71.18.83-.44-.07.41-.75-.18-.83Z"/>
        <polygon class="cls-1" points="116.05 212.67 115.9 212.64 116.35 211.32 116.05 212.67"/>
      </g>
    </g>
    <g>
      <path class="cls-3" d="M249.52,124.26c-.37-1.85-1.64.97-.69-1.21.73.25,1.29.61.69,1.21Z"/>
      <path class="cls-3" d="M240.23,120.7c-5.74,4.8-13.3-.05-19.59,3.01-.74.2.19-2.63-1.47-1.99-6.09,3.72-15.7,1.5-23.12-1.37l.45-.74c-1.41-.54-3.14,1.92-4.64,1.58-.01-.49.48-.7.13-1.37-.38,1.49-2.71.68-3.34,1.79-.59-.58-.53-1.76-1.3-2.41l-.86,1.69c-2.38,4.02-5.79-.28-9.04,1.8.16-.39.48-.7.22-1.08-5.22,2.44-11.76,1.99-17.6,2.89.23-.6.45-1.69.11-2.36-.29,1.78-2.09,2.23-3.66,2.58-.71-1.83-2.68,1.67-4.52.66l.16-.41c-1.36,1.92-2.01-1.1-3.11,1.19l-.86-1.44c-.6,2.58-1.96-1.34-3.08-.03l.04.53c-1.06.63-1.61-.66-2.59-.23l-.09-.3c-2.3.68-3.63-.76-3.58,1.25-.8-1.61,2.22-.73.96-3.08-7.55,2.07-15.34,1.67-22.95,1.7-.86-.81-1.41-1.05-1.61-1.82-.76.41-2.86.37-3.55,1.4.25-.04-.49-1.03-.89-1.13-1.38-.76-1.51,2.21-3.03,1.31.6-.54.81-1.19.61-1.94-1.3,1.57-3.03,1.32-4.56,1.83.24-.34.61-.54.55-1.17-1.67,1.78-3.06-.38-4.52.75l.55-1.16c-2.36-1.41-.7,2.43-2.74,1.6.49-.37.32-.82.41-1.3-1.91,2.12-4.99,1.42-6.89,2.13.11-.16.08-.48.08-.48-2.07.26-4.24-.39-6.52.53-.83-.52.27-2.84-1.92-2.41.08,2.34-3.72.96-2.43,3.6-1.87-.38-4.84-1.26-6.09-.47.84-.89-.91-2.85.64-3.05l-1.18-1.41c.17-.96,1.21.32.84-.88-.78.09-3.06,1.02-3.75.64-.72.72-1.42,1.74-2.21,2.62-.76.88-1.43,1.62-2.35,1.77.35-.46.12-1.1-.19-1.68-.31-.58-.69-1.1-.34-1.3-.81,1.49-1.26,2.98-1.35,4.47-.5.11-1-1.84-1.59-1.23.38.62.22,1,.29,1.5-.18-.13-.65.01-1.29-.09-.64-.11-1.51-.47-2.66-1.62-1.09-.9.68-.49-.76-1.3-1.3.02-.62.81-1.79.84l-.35-.31c-.15-.04-.28-.06-.4-.05-.04.02-.14-.02-.13.05.02.08.04.16.07.25.11.35.31.76.56,1.15.5.8,1.21,1.49,1.89,1.69.07-.4-1.51-1.09-.8-1.2,1.48,1.82,1.91,3.14,1.96,4.06-.41-.57-1.08-.98-1.79-1.6.99,1.39,1.7,2.39,2.25,3.25.55.85.93,1.57,1.4,2.24.58.16.04-.07-.57-.38-.61-.31-1.29-.72-.99-.72-.73.61,0,1.78.56,2.6.28.43.55.8.63,1.16.04.18.03.36-.05.55-.04.1-.1.19-.17.3-.08.1-.16.3-.27.44-.26-.31,1.49-.48,1.19-.4.1,1.23-1.48,1.52-.73,2.19-.89.28.53.94,1.01,1.67.76.26-.39.32-.66-.37,1.02,1,3.56,4.99,3.23,7.92.57-.24,2.67.76,2.81,1.34l-1.42.29c-.64.85.89,1.84-.22,2.41,1.06.27.22-.74-.62-1.71-.8-.99-1.64-1.93-.7-1.31-.49.42.26.82.88,1.13.62.31,1.15.54.16.72.53,1.14,2.48,1.59,1.69,3.21.08-.4-2.21-.13-1.73.77,1,1.51.84.18,1.9,1.27l.92.55c1.28-.56.51,1.5,1.63.21-.97.74,1.82,1.88-.33,2.83l-1.73.65c.49.62,2.3.19,3.28.31-.1.17-.33.53-.6.64,2.45-1.28.74,1.68,3.05,1.33-.05,1.88,2.09,3.37,1.07,4.99,1.37.55,2.87.8,3.21,2.27-.37-.06-.67-.32-1.2-.02-.13,1.2.59.93,1.43,1.29-.46.13-.18,2.38-.29,3.79,1.44.42,2.31-.9,3.09-1.4-.71,1.33.21,1.69,1.17,2.02.96.34,1.94.65,1.5,2.03-.55-.04-2.2-.39-2.01.84-1.23,2.78,3.07.21,3.4,2.42l1.29-1.96c-.21.79.48,1.01,1.01,1.23.55.2.92.39.06,1.19,1-.21,1.07,1.98,2.41.17.43,1.71,2.05,2.58,3.31,3.61,1.29,1.01,2.36,2.04,1.92,4.23.55-.04,1.22.88,1.7-.19.13-1.4-1.32.16-1.04-.69.35.17.77-.28.98-.51.44.94.98,1.47-.82,2.51.98,2.3,3.87-1.92,5.56.15-.59.72-.61,1.12.12,1.39l2.04-.62c1.23,1.18-.23,2.3-.99,3.69.94.2,1.9.81,2.81-.03l.05,2.27c-.05-1.66,1.09-.46,1.66-.64l-.56.16c-.15.66,1,.76,1.56.82.31-.93-.48-1.74-.87-2.25.73-.41,1.3.04,2.2-.43-.86,1.29.84,1.62,1.41,2.08.61.66,1.41-.89,1.6-.74-.31.74,1.17.64.14,1.42-.36.12-.27-.96-.98-.5.25.75-.36,2,1.09,1.52,1.08-.37.99-2.88,2.07-1.36-.53.19-.84.73-1.35,1.11l1.09,1.33.58-1.27c.05.41-.12.47-.1.68.96-1.21,2.32.38,3.21-1.06.75.11,1.14,1.49,1.78,1.84l-.17.07c.58,1.05,1.88.89,2.85.21l-.13.28c.42.26,1.57.38,2.37-.27.88,1.33-1,5.2.78,3.86,1.24.28,2.51-1.98,2.24-2.98,1.95,1.39,4.8-.27,6.43,2.15.41-.51.27-.89.96-1.11,1.53.58,3.29.31,4.89.38,1.61.08,3.1.24,4.3,1.73-.98.52-.15,1.39-.17,2.19.86-1.2.89,1.37,1.28-.76-.02-1.27.08-1.88-.79-2.45.97-.24,2.18-.43,3.27-.33,1.09.08,2.08.43,2.62.99-.54-.57-.12-.97.29-1.36-.13,2.02,1.32,2.29,2.37,1.56l.11-1.24.74,1.25c.4-.4.33-2.58,1.44-1.48.08.47.17.95.39,1.28,1.06-1.1,2.43-2.85,3.71-1.97l1.17,1.67c.49-.26,1.21-1.43.26-1.84,1.07.41,1.95.63,2.66.89.71.25,1.26.58,1.71,1.29,2.93-4.23,7.59-5.53,11.52-6.45l.16.92c1.29.49.05-1.71.96-1.33-.07.94,1.38,1.56.89,2.85,1.83.45,1.44-2.13,2.23-2.89-.26-1.19-.5,1.01-.83-.5,0-.47,2.33.14,1.9-1.65.62.54.82,1.9.89,2.66l.58-1.16c.94.79.67,1.91.4,3.09-.27,1.18-.55,2.44.53,3.44l.78-.6c1.55,1.47-1.6,2.9.89,2.67.68-1.2.47-4-.66-4.41,1.74-1.28-.76-4.41,1.27-5.12.97.76-1.48.91-.52,2.14,1.53.94,1.59-1.55,2.61-1.46-1.2-.2-1.18-2.24-.76-2.82,1.34.31.09,1.88,1.57,1.37-.22-1.07.69-2.38-.72-2.52-.57-2.39,1.72-.07,1.6-2.11,1.23,1.26.38,4.21,2.27,4.16-.98-1.32.81-2.95-1.11-4.65.79.11,1.47,1.19,1.52,2.3,1.33.4.56-3.65,2.41-1.03l-.56-1.6c.52.32,1.09.45,1.96.97.75-.42,1.1-3.28,2.37-1.15.09-.37,1.73-1.34.16-2.37-1.54-.24-.42,1.82-2.23.19,1.72,1.17,1.26-1.14,1.44-2.03l.63.74c.12-.53,1-.87.6-1.86.07.62.58,1.08.98,1.09l-.52-1.45c.84-1.54,1.82,1.88,2.84.59l-.29,1.64c.07-.35,1.32.42,1.68-.41-.57-1.26-1.1-2.86-1.55-3.84.32-1,1.24.95,1.05-.68l.12,1.99c.14.47,1.97,1.26,2.9.46.32-.86-.03-3.08-1.42-2.9.44-.38,1.62-.29,1.88.76.73-1.23-1.06-.98-.74-2.37.93.37,2.88.33,4.45.68l.58,2.5.64-.55c.4,2.07,1.35.64,2.17,2.45.65-.18.75-1.14.81-1.91-3.3-1.01-1.54-4.34-3.86-5.95,1-2.05,5.87,3.74,4.31-1-.79-.21-1.61-2.45-1.96-.88,1.16-.81-1.43-2.57.5-2.96.04,1.64,3,.9,3.04,3.3-.61-.7-1.19.26-1.18.64,1.18.29,1.97,1.98,2.98.88.44-.83,1.15-1.85-.05-2.64-1.23-1-.74,1.15-1.59-.33.68-1.69,2.75-.39,1.03-2.72-.54.98-1.96.14-2.79-.58l.27-1.36.67.85c1.86-1.05-1.11-1.64.25-2.96l2.2.55c1.15,1.45-2.31,1.76.18,3.29.89-.95-.06-2.2,1.28-2.69.04.36-.12.7-.08,1.07.33-.3,3.79,1.64,3.03-1.23-.18-1.3-.71-.81-1.59-1.46.86-1.9.33-2.97.83-4.18,1.67,1.37,1.38-1.87,2.49.52-.72-.04-1.4.6-1.8,1.43-.41.83-.48,1.89.15,2.78,2.5.8-1.19,1.17.58,3.02,1.07-1.35,3.03.12,4.55.82.38-.35.08-1.14.03-1.53-1.16-1.03-1.5-.49-2.83-1.35,1.47-1.35,1.7-3.43.96-5.08.98-.15,2.2.8,1.93,1.53.2-.55.45-1.09.72-1.61.26-.53.53-1.05.84-1.56.59-1.01,1.35-1.93,2-2.83-2.85.14.52-2.44-1.78-2.48-1.01.79-3.01.84-3.76-.21.44-.54.98.51,1.58.49-.86-1.39,2.58-.3,1-2.01-.14,2.15,2.6,1.66,4.22,2.82-.34-1.85,1.24.65,1.9-.73-.41-1.89-.44-3.92-.26-5.64,1.22-.67,1.71-1.94,1.91-3.26.16-1.34.07-2.69.3-3.6,1.24-.68,3.19.55,3.84-.43.27-1.27-2.55.33-1.11-1.27l.39.29c-.18-.34.39-1.1.64-1.95.26-.84.1-1.78-1.4-2.36l2.26,1.06c.28-.31-.2-.75-.39-1.09.77.14,1.55-.15,1.94.53,1.84-.89.26-2.56.33-3.85l-1.52.61c-.41-1.18-.21-2.07.06-2.96.29-.88.6-1.76.43-2.85l1.39.19-.73-1.35c1.32.42,2.29-.72,1.21-1.47,1.05,1.18,2.09,2.41,3.13,3.67-.9.88-1.59-1.2-3.01-.72-.62.2-.87.8-.81,1.41.03.61.38,1.24,1.02,1.49.26-.75-.04-.83-.47-1.48,1.97-.05,1.74,1.12,2.94,1.87-.02-.42.64-.95.05-1.11.83.92.87,1.78.73,3.16-.62-1.04-1.26.33-1.76-.1,1.69.35,2.03,1.77,1.21,3.37-1.08.42-.92,1.26-.6,2.24.32.98.7,2.11.21,3.02-1.5-1.21-2.57-2.49-3.04-3.78-1.08.99-.26,1.32-1.38,2.29,1.12.86,2.94,1.75,3.31,3.54l-1.26-.25c.21,1.57,2.02,2.11,1.13,3.83-1.57,2.91-2.75,6.01-3.88,8.21l-1.21-.42c1,1.16.78,2.33.3,3.43-.47,1.11-1.11,2.2-1,3.3-1.31,1.1-1.83,2.76-2.43,4.17-.63,1.39-1.28,2.58-2.63,2.67-2.16,5.16-4.42,9.73-8.66,13.75l-.73-1.95c.32,1.66-1.24-.22-1.71.69,1.87.15.48,2.32.8,3.65-1.42.43-2.45,1.47-3.21,2.75-.76,1.29-1.36,2.72-1.79,4l-.91-.9c-.06,1.69-1.03,2.58-2.26,3.22-1.23.65-2.71,1.07-4,1.75-.59-.22-1.72-.88-2.31-.26-.03,2.62-.83,2.92-2.04,5.3-1.39,1-4.09,1.92-5.94,2.13-1.02,1.4-2.24,2.53-3.55,3.54-1.33.96-2.77,1.74-4.23,2.51-1.48.73-3,1.38-4.48,2.14-1.5.72-3,1.48-4.44,2.48l-.95-1.25c-1.28,1.25-2.8,2.18-4.43,2.9-1.65.65-3.38,1.12-5.11,1.49-1.74.31-3.45.59-5.06.92-1.62.28-3.12.66-4.44,1.3l.15-2.62c-1.79-.5-3.79,1.16-3.15,2.93-.92-.29-1.97.17-2.97.4-1,.22-1.95.27-2.57-.74-1.81-.35-2.11,1.36-3.6,1.73-1.83-.44-3.05-.6-4.26-.58-1.21-.03-2.39.12-4.1.31l.84.18c.39-.55.45-1.64-.38-1.83-1.28.73-4.56-.95-3.5,2.2-1.76-1.01-3.89-.78-6.03-.79-1.07,0-2.14.02-3.13-.19-.99-.23-1.92-.63-2.69-1.37.16.88-.76.88-1.23,1.37-1.6-.22-3.13-1.05-4.61-1.6-1.49-.55-2.88-1.02-4.31-.67-.38-.54,1.15-1.16-.08-1.58-.83.11-.3,1.05-1.35,1.25-1.38.06-2.65-.3-3.89-.76-1.24-.46-2.41-1.09-3.52-1.82-1.11-.71-2.21-1.41-3.28-2.09-1.07-.69-2.13-1.27-3.26-1.64-2.09-.45-4.1-1.21-6.09-1.99-.98-.44-1.95-.9-2.91-1.38-.97-.47-1.91-.98-2.82-1.54-.92-.55-1.83-1.11-2.74-1.66-.9-.57-1.76-1.18-2.63-1.77-1.76-1.15-3.41-2.41-5.08-3.57l.45-.43c-1.82.15-2.67-1.39-3.56-2.69-.91-1.29-1.75-2.49-3.74-1.9-.09-.87-1.65-1.86-.48-2.4-1.37-.11-2.16-1.5-3.09-2.87-.95-1.36-1.86-2.87-3.71-3.3.15.25.35.29.78.35-.28-.81-.7-1.45-1.17-2.04-.46-.6-.98-1.13-1.52-1.66-.53-.53-1.08-1.07-1.56-1.68-.47-.62-.85-1.34-1.1-2.18.41.11.93.48,1.48.18.19-1.7-3.9-.86-1.92-3.16-.43-.58-1.5.43-1.18.76-.78-1.67-1.76-3.22-2.77-4.77-.5-.79-1.02-1.56-1.56-2.33l-.83-1.15-.8-1.17c-1.09-1.56-2.25-3.11-3.28-4.75-.53-.81-1.06-1.62-1.57-2.45-.48-.84-.94-1.69-1.39-2.54-.25-2.87.96-3.39,1.66-3.6.72-.21,1.03-.1-.72-1.71.42-.51-1.15.14-.6-.12-.66-.64-.11-1.51.41-2.28.53-.78,1.01-1.44.1-1.75-1.6.98-1.19-.42-2.26-.14.15-3.5,1.71-4.5-.28-6.67l.98-.02c-.85-.57-1.4-1.25-1.83-1.98-.11-.18-.21-.36-.31-.55l-.14-.28-.16-.41c-.2-.57-.4-1.13-.6-1.69-.18-.56-.36-1.13-.56-1.69-.18-.56-.37-1.12-.6-1.68-.46-1.12-1.08-2.24-1.98-3.41l-.31-2.51c-.1-.84-.11-1.64-.17-2.47-.1-1.65-.21-3.3-.31-4.95-.1-1.69-.2-3.38-.3-5.06l-.16-2.56-.08-1.29-.02-.32c0-.05-.01-.11,0-.16h.15s.58-.07.58-.07c3.15-.31,6.28-.63,9.41-.94l2.39-.24,2.56-.1,5.17-.21,5.25-.2.66-.03h.32s.17-.03.17-.03l.7-.05,1.39-.1,5.57-.36c3.71-.22,7.43-.4,11.16-.49,14.76.59,29.2-.81,44.19.85,3.51,2.52,3.77,2.45,7.63,1.43-.15.41-.4.5-.14.88.19-2.06,2.72-.19,3.08-2.16,5.54.39,10.64-.18,16.34-.19-.9.22-1.35,1.91-.28,1.77l1.12-1.32.18.57c.73-.3,1.53-1.32.77-1.98,14.32-1.78,28.41,2.36,42.43,1.85,3.33.86,8.07.07,11.69-.35,10.73,2.75,20.39,4.97,31.29,3.04,0,0-1.42,5.33-5.92,6.56Z"/>
      <path class="cls-3" d="M249.66,126.5c-1.04.36-1.64,1.6-2.99.53.97-.08,2.07-.69,2.99-.53Z"/>
      <path class="cls-3" d="M232.09,155.69c.26.16-.57.22-.77.23.09-.37-.54-1.04.06-1.09-.07.38.39.52.71.86Z"/>
      <path class="cls-3" d="M227.99,162.36c-.74-.57-.59-2.36-.23-3.25l.23,3.25Z"/>
      <path class="cls-3" d="M220.99,166.31c-.97.05-1.22-.34-.76-.98.43.23.49.59.76.98Z"/>
      <path class="cls-3" d="M222.42,167.92c-.31.51-.94.41-1.53.33.66.45.4-1.38,1.53-.33Z"/>
      <path class="cls-3" d="M210.48,177.72c-.2.3-.24,1.42-1.19.89.79.28.45-2.06,1.19-.89Z"/>
      <path class="cls-3" d="M206.12,183.43c-.22.1-.4.03-.44.4-.59-.06-.66-.87-.45-1.16l.89.76Z"/>
      <polygon class="cls-3" points="84.73 180.11 85.61 180.36 84.89 180.92 84.73 180.11"/>
      <path class="cls-3" d="M61.45,132.43c-.66-.82.92.28,1.06.31.12.41-1.25-.9-1.06-.31Z"/>
      <polygon class="cls-3" points="83.22 125.33 82.96 125.35 83.05 123.48 83.22 125.33"/>
    </g>
  </g>
  <g>
    <path class="cls-3" d="M66.22,123.18c.1.13.5.32.2.18-.22-.17-.38-.3-.2-.18Z"/>
    <path class="cls-3" d="M77.24,123.28c-.07-.02.2.06.28.12.11.06.18.11.21.15.06.08.02.12-.05.12-.14.02-.23-.11-.08.44.01.08-.42-.88-.34-.66.23.66.05.86-.1.7-.16-.15-.29-.63-.26-1.16l.03-.27c.03-.19-.12.7-.14.57.04-.18.05-.25.1-.5-.11.54-.08.25-.19.64.04-.21.15-.63.22-.87l-.18.6c-.23.71-.28.67-.27.54,0-.13.06-.32-.14,0,.07-.13.12-.23.18-.36-.52.76-.68.45-1.05.51.17-.14.48-.4.67-.56-.5.42-.67.48-.81.51.52-.43-.54.31-.27.04l.12-.09c-.59.4.29-.3-.4.2l.41-.35c-.76.58.36-.35-.03-.07l-.15.13c-.19.13.17-.19.03-.11l.08-.07c-.22.12.17-.27-.4.23.44-.42.23-.13.88-.74-.69.32-.64.06-.73-.13.2-.26.26-.34.45-.57-.11.1-.13.03-.4.32.01,0,.26-.32.28-.36.18-.27-.58.64-.37.32.14-.15.31-.35.49-.58-.41.44-.37.33-.51.45.09-.1.14-.16.3-.36-.46.52.06-.2-.24.12l.29-.36c.31-.52-.59.76-.42.44.09-.11.21-.26.32-.41-.54.64-.4.34-.6.54.04-.05.11-.16.11-.16-.09.04.04-.24-.2.04.11-.21.66-.99.52-.89-.52.81-.27.25-.85,1.23.07-.17.22-.56.03-.29.2-.31.62-1.1.67-1.11l.25-.49c.19-.31-.04.14.19-.27-.03,0-.26.26-.2.12-.28.39-.87,1.4-.97,1.48.2-.32.54-1.03.6-1.12-.3.5-.65,1.1-.96,1.65-.03.03.37-.73.23-.5-.13.24-.21.38-.31.58.05-.11-.16.19.28-.74.17-.37.12-.17.26-.51-.03-.02-.18.3-.22.29l.06-.12c.04-.15-.24.36-.46.89,0,.04.25-.56.15-.28-.26.53-.36.67-.38.66.07-.16.19-.4.31-.66-.36.72-.49.93-.65,1.23-.19.46.35-.82.26-.58.21-.66-.44.85-.12-.1.04-.08-.24.66-.19.53,0-.07.25-.74.15-.5.14-.4-.06.12-.12.23-.11.29.06-.2.09-.23-.15.33-.41.91-.27.31-.08.27-.32.98-.32.95l.19-.63c.1-.38-.05.04.11-.5-.25.76.28-.62.08-.04.15-.53-.34.99-.08.13-.03.01-.24.72-.1.12-.02.1.26-.87.23-.83-.07.1-.09.3-.17.5l-.08.26c-.16.62,0-.09-.17.61.12-.51-.11.31.14-.73l.2-.81c-.03.06-.23.85-.32,1.21.02-.08.05-.24.08-.37-.28,1.25,0-.11-.23.85.07-.44-.05-.05.09-.83-.09.38-.19.83-.16.55.02-.12.03-.16.08-.42.05-.37-.01-.04-.06.16.03-.19.09-.74.13-1.19-.08.38-.17,1.06-.23,1.47.15-1.25-.15.8-.03-.33.03-.17.11-.61.13-.93.12-1.24-.15.92-.12.32l-.1,1.04c.05-.64-.09.6,0-.46-.04.37,0-.34-.09.67.01-.85-.11.52-.07-1.28-.01.17-.03,0-.04.52,0,.56.03-.4.02-.02,0,.03-.02.31-.02.45,0-.23-.02-.3.02-1.14-.03-.62-.08,1.71-.1,1.33,0-.41,0-.57-.01-.5l-.02.71c-.02-.16-.03-.94-.03-1.64-.02.12-.04.09-.04.62l-.05-.87c.04.63,0,.42,0,.6v-.17c-.01-.29-.03-.11-.03-.02.02.43.05.6.06.72,0,.3,0,.25,0,.6-.03-.68-.04-.48-.06-.55-.02-.14.02.61.02.59-.02-.35-.02-.05-.05-.55,0-.11.03.34.02.03-.02-.26-.06-.88-.05-.42,0,.34.09,1.34.04.92,0-.17-.02-.44-.04-.69l-.05-.34.05.62c-.01-.16-.02-.21-.03-.29.05.65-.02.21.04.94,0,.07-.06-.42-.08-.49v-.05c-.05-.36-.05-.11-.01.3l-.02-.13s-.02.06.02.42c-.07-.45-.31-2.29-.23-1.52-.02.03.13,1.12.19,1.5-.09-.39.04.59-.14-.32.04.24.06.38.09.54-.09-.21.09.73-.21-.4-.05-.25-.14-.58-.22-.91.11.53-.15-.53.07.36.13.52.2.76.25.98.05.29.03.3-.12-.17.07.24.11.4.15.55-.22-.82-.28-.93-.21-.64l.14.5-.16-.51c.04.16.3,1.04.15.57-.06-.19-.12-.38-.16-.52.11.41.32,1.09.17.69l-.24-.7c.02.08.16.51.23.71-.17-.42-.2-.49-.42-1.05.49,1.5.51,1.56.44,1.48l-.15-.34c-.15-.31.26.6.15.37-.15-.32-.31-.7-.5-1.1-.18-.34.25.6.31.76.21.44-.13-.29.13.27.07.16-.18-.33.14.33-.13-.26-.36-.74-.49-1.01l.15.33c-.4-.75-.64-1.4-1.11-2.34l.03.12c-.36-.67-.33-.82-.49-1.02.13.35.59,1.31.75,1.58.06.21.77,1.57.72,1.53-.2-.38-.03-.11-.31-.64-.28-.51.13.31.02.14.14.23.47.89.53,1.01-.17-.29-.32-.61-.36-.66.19.37.34.65.48.9.45.83-.13-.22.22.42-.33-.57-.74-1.35-.91-1.63.31.56.41.77.89,1.59-.1-.17-.34-.59-.54-.94-.21-.33.57,1.02-.07-.07l.33.56c-.11-.18-.2-.31-.38-.61-.02,0,.44.76-.08-.06.05.09.01.07.38.63.23.34-.25-.43.23.35-.4-.63.04.09.18.3l-.2-.32c.08.12.04.07.25.4-.12-.18-.26-.39-.31-.47l.31.48c.15.24-.56-.83-.47-.69l-.24-.37c.05.08-.25-.36-.16-.2.29.43.64.95.87,1.28.13.19-.34-.48-.03-.04l-.35-.52c-.1-.14-.49-.7-.5-.68.1.15.53.76.7.99-.03-.04-.19-.25-.4-.55.12.17.32.44.51.71-.2-.28-.5-.66-.81-1.05l-.51-.7h-.01c-.4-.56-.33-.41-.76-.99-.08-.08.06.13.17.29.73.9.95,1.28,1.62,2.09.17.23-1.62-1.98-.6-.68.18.21.68.83.5.59-.08-.08.67.82.39.48-.27-.34-.7-.8-1.09-1.29.22.27.18.19.12.11-.26-.3-.67-.81-.69-.79.05.09.05.12.41.53.39.45-.03-.06.36.4.13.17-.48-.51.22.29-.05-.07.36.39.63.7l.16.19-.26-.3c-.2-.21.48.54.41.46l-.53-.58c-.45-.5.21.21-.53-.61-.04-.02.34.39.14.19-.06-.07-.08-.09-.14-.17-.03-.03-1.02-1.08-.46-.44.22.25.27.29.55.58.07.11.36.41.41.46-.57-.57-.07-.04-.64-.62.34.32.32.28-.21-.29-.66-.68.11.08-.55-.63-.03,0-.68-.67-1.11-1.11-.04-.02.13.18.2.25.4.41.4.4.81.82-.13-.08.07.18.46.58-.21-.19-.62-.59-.65-.64.09.15.01.13-.15.05.71.6.14.18.73.68.17.12.67.56.98.85-.06-.05-.31-.27-.45-.4.38.34-.62-.53-.02.01-.21-.22-.85-.75-1.4-1.24.29.3-.39-.34-.41-.31.28.3.51.53.61.65-.57-.4-.08.08-.07.12-.31-.2-.97-.7-1.1-.76,0,.04.73.5.4.32l-.13-.1c.14.13-.51-.24.43.46l-.71-.54c-.07-.04.09.09.16.15-.23-.17-.46-.32-.6-.44-.52-.33.04.12.03.16l.44.29c.3.3-.15.03-.04.19l-.42-.3.23.21c-.4-.3-.68-.46-.36-.2l-.97-.82c.26.16.49.39.91.67.37.25.29.12-.11-.18-.06-.01.03.05.17.18-.59-.41-.54-.43-.92-.72.02.03-.17-.09.01.05-.27-.22-.3-.28-.29-.32.21.19.37.25.53.38-.51-.37-.65-.52-.47-.46.61.4-.33-.35-.13-.28.5.4.9.72,1.09.9.28.16,0-.04.29.12-.38-.3-.96-.74-1.17-.95l.38.28c-.17-.18-.72-.6-.58-.58.26.04.33-.05.43-.09l.36.3c-.74-.69-.18-.37-.48-.73.4.22-.16-.52.46,0-.13-.41-.24-.83.02-.86l.42.56c-.3-.42.27.29.23.18-.38-.4-.43-.59-.68-.94.4.34.12-.2-.1-.66l.29.38c-.47-.79.08-.24.24-.19.12.15.39.52.38.45-.39-.69-.33-.66-.52-1.14.05-.05.24.04.44.26-.35-1.12.2-.68.14-1.43l.26.5c-.27-1.26.45-.43.43-1.13l.3.92c.16.25.05-.32-.18-.96.16.24.02-.54.3.2.12.14-.05-.47-.03-.62.24.28.26.18.36-.05l-.05-.05c.04.21.14.61.19.66-.02-.28.23.18-.08-.92.29.59.24-.66.56.17-.07-.31-.04-.38-.06-.59.14-.06.37.54.4-.02.04.15.04.53.1.55.02-.13-.05-.4-.04-.59.16-.63.52.5.69.31.32-.66.73-.39,1.08-.5v.23c.16-.87.19.88.38-.42.01.22.1.11.04.54.16-.61.19.58.41-.17,0-.02-.02.02-.05.12.06.51.28-.16.35.31-.03.09-.07.16-.11.39-.03.43.29-.93.12.16.03,0,.12-.54.1-.51.21.46.66-.16,1.05-.29.04.7-.51,1.77-.11,1.04-.05.21.13-.4.07-.18.16-.27-.27,1.2-.06.67.19-.65.14-.35.27-.74-.01.46-.2,1.05.07.6l-.13.33c.45-.9.38-.33.91-1.36.73.13,1.64-.02,2.27.38.39.68,1.23.87,1.2,2.08-.62.85-.61.82-.21.75-.12.1-.15.11-.26.22.6-.51.12.08.71-.39.01.19.09.32.18.44l.06.1v.03s.02,0,.02,0h0s-1.78,1.37-1.78,1.37h-.02s-.07.07-.07.07c.03-.02.04-.03,0,0l-.04.03h0s-.05.05-.02.03l-.02.02c-.28.25-.55.49-.83.74h0s.02-.03.02-.03l.04-.04s.06-.07.08-.1c.05-.07.09-.16.11-.22.05-.13.02-.13.02.04,0,.07.02.24.06.36.04.18.17.36.21.4.05.05.03,0-.14,0,0,0,.04-.01.14.02Z"/>
    <path class="cls-3" d="M66.19,123.08c.32.21.51.3.91.63-.29-.2-.63-.43-.91-.63Z"/>
    <path class="cls-3" d="M69.83,124.77c-.09-.07.12.1.17.14.02.02.26.24.11.11-.03-.03-.16-.14-.28-.25Z"/>
    <path class="cls-3" d="M70.07,124.83c.25.24.43.44.46.47l-.46-.47Z"/>
    <path class="cls-3" d="M71.11,125.77c.19.2.26.28.3.32-.13-.13-.19-.2-.3-.32Z"/>
    <path class="cls-3" d="M70.57,125.2s.14.13.28.28c-.2-.21.12.14-.28-.28Z"/>
    <path class="cls-3" d="M71.3,125.88s-.19-.26.05.05c-.17-.21.27.36-.05-.05Z"/>
    <path class="cls-3" d="M71.01,125.42s.05.07,0-.01c.09.13.23.34.26.37l-.26-.36Z"/>
    <polygon class="cls-3" points="72.03 123.33 71.99 123.54 72.04 123.13 72.03 123.33"/>
    <path class="cls-3" d="M72.91,123.59c.11-.23-.15.36-.17.42-.03.03.21-.46.17-.42Z"/>
    <polygon class="cls-3" points="74.3 122.32 74.29 122.33 74.72 121.66 74.3 122.32"/>
  </g>
  <g>
    <path class="cls-3" d="M74.59,122.46c-.08-.2-.57-.18-.2-.2.24.14.42.25.2.2Z"/>
    <path class="cls-3" d="M112.84,122.16c-.49,1.78-1.14-.02-1.68,1.11-.06.08.02-.97-.13-.74-.52,1.38-1.35.56-1.99-.51l.04-.27c-.12-.2-.27.71-.4.58,0-.18.04-.26.01-.51-.03.55-.23.25-.29.66-.05-.22-.05-.65-.11-.89l-.07.63c-.2,1.49-.5-.11-.78.67.01-.15.04-.26.02-.4-.45.9-1.01.74-1.51,1.07.02-.22.04-.63,0-.87-.02.66-.18.83-.31.96-.06-.68-.23.62-.39.24v-.15c-.1.71-.16-.41-.25.44l-.07-.53c-.05.96-.17-.49-.27-.01v.2c-.09.23-.14-.25-.22-.09v-.11c-.21.25-.32-.28-.32.46-.07-.6.19-.27.08-1.14-.65.77-1.32.62-1.97.63-.07-.3-.12-.39-.14-.67-.07.15-.25.14-.31.52.02-.01-.04-.38-.08-.42-.12-.28-.13.82-.26.49.05-.2.07-.44.05-.72-.11.58-.26.49-.39.68.02-.13.05-.2.05-.43-.14.66-.26-.14-.39.28l.05-.43c-.2-.52-.06.9-.24.59.04-.14.03-.3.03-.48-.16.78-.43.52-.59.79,0-.06,0-.18,0-.18-.18.1-.36-.15-.56.2-.07-.19.02-1.05-.17-.89,0,.86-.32.36-.21,1.33-.16-.14-.42-.47-.52-.17.07-.33-.08-1.06.06-1.13l-.1-.52c.01-.35.1.12.07-.33-.07.03-.26.38-.32.24-.12.53-.24,1.52-.44,1.63.09-.34-.05-.95.01-1.1l-.28,1.66c-.07.04-.01-.68-.11-.46,0,.23-.04.37-.07.55-.03-.1-.28.22-.31-.63-.03-.33.11-.18.03-.48-.12,0-.13.3-.25.31v-.11c-.08-.13-.24.36-.15.83.06.03-.02-.51.06-.26-.06.49-.2.63-.32.64.04-.14.04-.36.05-.6-.17.67-.34.88-.53,1.16,0,.4.07-.74.1-.52-.24-.56-.49.8-.69-.02.03-.07.02.57.02.46-.11-.05-.11-.64-.18-.42,0-.34-.09.11-.17.21-.04.25-.02-.17.05-.21-.11.29-.54.82-.78.32,0,.23-.15.84-.21.81l.02-.53c-.05-.32-.19.05-.2-.41-.12.65.47-.55.3-.05-.04-.45-.23.85-.19.12-.11.02-.22.62-.33.12.03.09.09-.74,0-.7-.16.1-.05.25-.18.43l-.08.22c0,.52-.15-.07-.08.51-.02-.43-.24.26-.22-.6l.02-.68c-.07.05-.11.71-.17,1.01,0-.06-.03-.2-.02-.31-.01,1.04-.17-.09-.25.71-.15-.36-.37-.03-.44-.68-.11.31-.22.69-.35.46.03-.1.06-.13.07-.35-.08-.31-.1-.03-.18.14.02-.15-.16-.61-.25-.97-.11.31-.07.87-.08,1.21-.1-1.02-.32.66-.45-.27.04-.14.16-.5.07-.76-.1-1.02-.21.76-.37.26l.04.85c-.07-.53-.24.49-.23-.37-.06.31-.2-.28-.18.55-.27-.7-.66.42-.83-1.06-.04.14-.14,0-.12.42.06.46.09-.33.11-.01-.03.03-.04.25-.05.37-.08-.19-.15-.25-.07-.94-.19-.51-.19,1.41-.43,1.08.01-.34,0-.47-.08-.42l-.13.59c-.16-.14-.09-.78-.09-1.36-.08.1-.18.07-.22.5l-.1-.73c.07.53-.07.35-.11.49l.04-.14c-.02-.24-.11-.09-.16-.02.01.36.11.5.16.61-.04.26-.11.2-.16.5.02-.57-.14-.4-.2-.46-.08-.12-.09.51-.11.49,0-.3-.12-.05-.06-.46.03-.09.06.29.1.03-.05-.22-.04-.73-.15-.36-.08.28.02,1.12-.13.76.04-.14.05-.37.08-.57l-.14-.3v.52c-.02-.13-.01-.18-.02-.25-.04.55-.21.17-.24.78-.07.05-.15-.36-.21-.42v-.04c-.07-.31-.18-.1-.25.25v-.11s-.15.04-.2.35c-.11-.39-.04-1.96-.16-1.3-.11.02-.18.95-.13,1.28-.2-.35-.44.5-.63-.31-.03.21-.01.34-.07.46-.3-.2-.64.62-.87-.4.09-.22,0-.52,0-.81-.07.46-.09-.48-.11.31,0,.47,0,.7.08.89-.18.25-.45.25-.55-.19.05.22.01.36-.03.5.01-.75-.12-.86-.22-.6v.46s-.08-.47-.08-.47c-.04.15-.04.95-.14.52,0-.18-.01-.35-.03-.48-.1.37-.25,1-.36.62l-.09-.66c-.05.07-.13.47-.04.66-.19-.4-.32-.45-.38-1.02-.33,1.4-.81,1.46-1.19,1.36v-.34c-.09-.32-.04.6-.11.36.03-.32-.08-.71,0-1.1-.15-.36-.19.59-.29.75-.01.45.08-.29.06.28-.02.16-.2-.35-.23.33-.04-.27,0-.76.01-1.04l-.09.33c-.11-.79.25-1.41.14-2.39l-.08.11c-.08-.71.22-.8.01-1.04-.09.33-.17,1.32-.09,1.61-.19.19-.09,1.61-.29,1.56-.06-.4.16-.1.12-.65-.1-.55-.19.31-.28.11.09.26.01.94-.05,1.06-.1-.32.07-.64-.08-.71-.02.39-.16.68-.04.96-.05.89-.15-.25-.23.44-.05-.62.15-1.44-.01-1.75.03.6-.2.82-.11,1.71-.06-.17-.07-.65-.02-1.01-.09-.37-.22,1.1-.25-.09l-.03.61c-.03-.2-.06-.36-.11-.68-.08-.01-.25.83-.25-.1-.03.1-.21.05-.14.7.11.39.13-.47.19.4-.08-.71-.16.09-.23.33v-.36c-.05.14-.14.06-.16.45.03-.21.01-.45-.02-.54l-.04.55c-.16.27-.04-.96-.19-.8l.12-.42c-.03.09-.08-.42-.15-.25-.04.5-.08,1.1-.11,1.48-.09.22-.04-.56-.12-.05l.11-.6c.02-.16-.08-.82-.19-.81-.07.17-.19.89-.07,1.16-.06,0-.14-.3-.09-.66-.13.17.02.54-.1.84-.05-.33-.19-.8-.28-1.29l.12-.83h-.08c.1-.68-.05-.52,0-1.22-.05-.11-.12.13-.17.31.16,1.13-.17,1.54-.13,2.57-.21.28-.13-2.5-.36-.89.04.27-.07,1.05.07.75-.13-.11-.09,1.03-.25.61.12-.42-.13-1.04.04-1.65-.01.34.09.26.12.16-.06-.39.01-1.03-.13-1.03-.08.1-.2.12-.18.65,0,.59.13-.06.07.53-.17.21-.19-.69-.26.35.1-.08.13.53.13.93l-.12.25.02-.39c-.2-.28-.06.71-.25.61l-.09-.77c.04-.66.28.3.24-.79-.12-.04-.16.51-.28.23.03-.09.06-.12.09-.22-.04-.04-.09-1.47-.26-.63-.09.33-.02.39-.03.79-.2.12-.26.54-.38.6.03-.79-.22-.08-.08-.89.06.46.35.42.42-.34-.07-.94.16.13.2-.82-.16-.02-.15-.95-.18-1.55-.04-.04-.09.21-.11.31-.02.57.04.56.04,1.15-.18-.15-.35.16-.44.72-.06-.28-.04-.85.03-.9-.21.17-.44.09-.63-.08.13.93-.22.22-.13.99.11.21.2.87.14,1.29-.07-.06,0-.41-.03-.61-.09.51-.13-.81-.22-.01.19-.3.04-1.13.07-1.86-.14.41,0-.52-.13-.52-.14.4-.31.72-.46.88-.19-.69-.49-.01-.66.01-.09-.37-.03-1.19-.13-1.33-.11.02.09.89-.08.51l.02-.16c-.05.19-.31-.56-.36.62l.05-.89c-.03-.08-.06.12-.09.22,0-.29-.04-.55.01-.74-.03-.18-.06-.24-.09-.25l.06.1c.04-.07-.25-.3-.23-.38l-.51-.16c-.29-.35.24-.25.15-.5l.47.23-.23-.23c.44.24.78.28.42.05l1.02.8c-.31-.06-.53-.35-1.01-.52-.42-.15-.37.07.07.3.08-.04-.02-.09-.17-.21.66.29.59.37,1,.62-.01-.04.21,0,0-.1.29.21.31.3.27.41-.22-.19-.42-.15-.59-.27.54.27.68.44.5.51l-1.24-1.95.02.02c.1.73.27-.47.43-.27-.07.64-.15,1.15-.25,1.41.1.32.11-.02.22.31.05-.48.09-1.21.22-1.5v.47c.13-.24.13-.94.28-.81.27.23.54.23.74.29v.47c.12-1.01.38-.37.54-.82.26.45.56-.45.69.36.46-.36.85-.72,1.33-.54l-.08.69c.08-.5.05.4.14.29-.1-.55.11-.71.17-1.13.21.53.48-.05.67-.53v.47c.2-.89.42-.11.66.04.03.2.07.64.14.59.13-.76.19-.71.38-1.19.14,0,.36.19.5.49.51-1.07,1.04-.39,1.57-1.03l.04.56c.52-1.19,1.15-.11,1.59-.72l-.04.95c.14.29.32-.25.28-.92.14.29.35-.46.43.32.14.18.17-.44.29-.57.28.36.39.28.66.1l-.07-.06c-.03.21-.03.61.03.67.1-.26.37.26.27-.88.29.66.67-.53.94.35-.02-.31.05-.37.08-.58.25-.01.51.62.71.09.04.16-.06.53.04.56.06-.12,0-.4.08-.58.41-.58.82.6,1.19.45.66-.6,1.34-.3,1.97-.4v.23c.2-.87.49.89.65-.42.05.22.19.1.15.54.17-.61.47.58.71-.2-.02-.02-.03.02-.06.12.24.5.46-.19.72.27-.03.1-.07.17-.08.4.1.44.24-.96.29.14.06-.01.04-.55,0-.52.57.43,1.17-.27,1.76-.52.42.66.03,1.84.36,1.03.03.21.02-.42.02-.19.13-.31.2,1.22.29.65-.04-.67.06-.38.06-.78.26.44.31,1.04.51.53l-.02.35c.24-1,.51-.47.72-1.62,1.32-.21,2.58-.85,3.86-.98,1.27.22,2.51-.3,3.8.31.3.93.32.91.66.53-.01.15-.03.18-.01.33.02-.76.23-.07.26-.8.48.14.91-.07,1.4-.07-.08.08-.12.71-.02.66l.1-.49.02.21c.06-.11.13-.49.07-.73,1.23-.66,2.44.87,3.65.68.29.32.69.03,1-.13.92,1.02,1.75,1.84,2.69,1.13,0,0-.12,1.97-.51,2.43Z"/>
    <path class="cls-3" d="M74.58,122.66c-.36-.13-.59-.12-1.02-.42.33.14.72.26,1.02.42Z"/>
    <path class="cls-3" d="M74.74,125.63c0-.11.04.15.05.22-.04.03-.07.35-.1.15.04-.03.03-.21.05-.37Z"/>
    <path class="cls-3" d="M75.47,125.86c-.01.34-.17.61-.26.65l.26-.65Z"/>
    <path class="cls-3" d="M76.15,127.26c.06.29.04.44-.04.44,0-.18.02-.27.04-.44Z"/>
    <path class="cls-3" d="M76.2,126.49c.06,0,.08.19.11.39,0-.29-.13.18-.11-.39Z"/>
    <path class="cls-3" d="M77.68,127.48s.11-.31.15.07c-.04-.26-.17.43-.15-.07Z"/>
    <path class="cls-3" d="M78.37,126.96s.03.09.06-.01c.04.16,0,.4-.04.44l-.02-.43Z"/>
    <polygon class="cls-3" points="90.9 125.6 90.82 125.76 90.83 125.43 90.9 125.6"/>
    <path class="cls-3" d="M96.38,125.58c.07-.21.05.32.06.37-.07.03.02-.42-.06-.37Z"/>
    <polygon class="cls-3" points="99.34 123.88 99.32 123.89 99.33 123.19 99.34 123.88"/>
  </g>
  <g>
    <path class="cls-3" d="M169.56,121.48c-.53.16.28.6-.34.27.07-.27.17-.48.34-.27Z"/>
    <path class="cls-3" d="M197.05,125.09c1.14-2.17,3.77-1.06,5.24-2.66.19-.13.21.95.62.59.96-1.29,2.73-1.66,4.53-1.61l.95.03-.98-.4c-.68-.27-1.34-.61-1.94-.97l.15-.26c-.4-.23-.98.63-1.41.47.01-.18.16-.25.08-.5-.15.54-.82.19-1.03.58-.16-.23-.11-.66-.31-.92l-.3.6c-.82,1.43-1.69-.24-2.71.45.06-.14.16-.25.1-.39-1.61.78-3.51.46-5.25.65.09-.22.18-.61.1-.87-.14.65-.68.78-1.15.87-.15-.69-.84.55-1.35.14l.06-.15c-.45.68-.56-.45-.95.37l-.21-.55c-.16.61-.34.2-.55-.04l-3.19-3.68,3.17,2.45c.13.1.27.16.36-.03l-.03-.19c.28-.27.5.19.77,0l.04.11c.64-.33,1.1.15.99-.59.31.56-.62.35-.14,1.16.64-.31,1.31-.54,1.98-.72l.05.81c-1.57.22-3.15.15-4.71.16-.26-.3-.42-.39-.48-.67-.22.15-.84.14-1.05.52.07-.01-.15-.38-.26-.42-.21-.14-.32.08-.44.28l.02-.54c.12-.18.25-.35.46-.18-.19.19-.26.42-.22.7.42-.56.92-.43,1.38-.6-.08.12-.19.19-.19.42.53-.63.89.19,1.35-.2l-.19.42c.66.56.26-.89.84-.54-.15.13-.11.3-.15.47.22-.27.47-.4.74-.47l4.06-1.07-4.02,2c-.44.22-.94.24-1.27.46.02-.06,0-.18,0-.18-.59.18-1.26.03-1.87.47-.27-.16-.07-1.05-.69-.8.15.85-1.03.51-.52,1.42-.57-.06-1.48-.26-1.8.09.2-.36-.42-1.01.03-1.15l-.42-.47c0-.36.37.07.2-.36-.22.07-.84.5-1.06.39-.34.59-.59,1.62-1.26,1.83.27-.38-.32-.92-.12-1.09l-.71,1.78c-.22.07-.15-.67-.44-.4.05.22-.07.38-.15.58-.1-.08-.91.35-1.13-.48-.15-.32.34-.23.05-.49-.42.07-.4.36-.81.43l-.02-.11c-.3-.08-.76.48-.4.9.2,0-.15-.5.17-.29-.12.52-.59.72-1.01.79.12-.16.07-.38.1-.63-.47.74-1.03,1.04-1.62,1.41.05.4.13-.76.25-.56-.82-.4-1.45.82-2.16.44l-.23-4.02c.05.04.1.09.15.15-.11.07-.04-.58-.04-.46.39.06.35.65.62.44.01.35.32-.1.59-.2.14-.25.06.17-.17.2.38-.28,1.86-.76,2.69-.24,0-.23.55-.82.74-.79l-.09.53c.17.32.65-.03.67.43.44-.63-1.62.5-1.04.02.13.45.81-.82.67-.1.39,0,.79-.59,1.15-.08-.11-.09-.34.73-.02.7.56-.08.17-.25.62-.41l.29-.21c.04-.52.5.09.31-.5.05.43.82-.24.73.62l-.1.67c.24-.04.42-.7.61-.99.03.06.09.2.07.31.07-1.03.57.1.88-.69.49.37,1.28.07,1.5.73.4-.3.76-.66,1.2-.43-.09.09-.21.12-.25.34.27.31.35.04.6-.12-.06.15.54.62.83,1,.4-.3.28-.86.33-1.2.32,1.03,1.11-.62,1.52.32-.14.14-.58.48-.27.75.32,1.03.73-.73,1.29-.22l-.11-.85c.24.53.85-.46.77.4.2-.3.66.3.62-.53.58.46,1.33.2,1.95.32l-.09,5.43c-.36-.06-.68-.25-.89-.8-.13.14-.47,0-.4.42.22.46.31-.33.39-.01-.12.03-.15.25-.16.37-.29-.19-.52-.25-.24-.94-.65-.51-.67,1.41-1.49,1.08.04-.34-.02-.47-.27-.42l-.46.59c-.53-.14-.3-.78-.31-1.36-.28.1-.63.07-.76.5l-.34-.73c.25.53-.23.35-.37.49l.13-.14c-.05-.24-.38-.09-.55-.02.04.36.37.5.56.61-.15.26-.37.2-.56.5.06-.57-.46-.4-.69-.46-.26-.12-.29.51-.37.49,0-.3-.42-.05-.22-.46.09-.09.2.29.35.03-.17-.22-.15-.73-.5-.36-.27.28.07,1.12-.44.76.13-.14.16-.37.26-.57l-.47-.3-.02.52c-.06-.13-.02-.18-.05-.25-.14.55-.72.17-.83.78-.24.05-.5-.36-.73-.42l.04-.04c-.28-.31-.65-.1-.88.25v-.11c-.14-.04-.5.04-.69.35-.39-.39-.13-1.96-.55-1.31-.39.02-.61.95-.46,1.28-.7-.35-1.5.49-2.15-.31-.1.21-.04.34-.25.46-1.03-.21-2.18.61-3-.41.3-.22.02-.52.01-.81-.25.46-.3-.48-.39.31.02.47,0,.7.29.89-.61.25-1.55.25-1.89-.19.17.22.04.36-.1.5.05-.75-.41-.86-.75-.6l-.05.46-.22-.47c-.13.15-.15.95-.49.52-.02-.18-.04-.35-.1-.48-.36.37-.86,1-1.24.62l-.32-.66c-.16.07-.44.47-.15.66-.66-.4-1.08-.45-1.29-1.03-.77.96-1.79,1.29-2.77,1.37v-7.72c.46-.04.91-.02,1.32.01l-.04.34c.35.32.18-.6.43-.36-.11.32.27.71,0,1.1.51.36.65-.59.98-.74.05-.45-.26.29-.2-.28.06-.16.7.35.78-.33.13.27.03.76-.04,1.04l.31-.33c.38.79-.86,1.41-.47,2.39l.29-.11c.27.71-.75.8-.04,1.04.31-.33.58-1.32.3-1.61.65-.19.3-1.61.99-1.56.19.4-.56.09-.42.65.33.55.66-.31.95-.11-.32-.26-.05-.94.16-1.06.35.32-.23.64.27.71.08-.39.54-.68.15-.96.18-.89.52.25.79-.44.16.62-.52,1.44.03,1.75-.09-.6.68-.82.39-1.71.22.17.24.65.08,1.01.31.37.75-1.1.85.1l.11-.61c.1.2.23.35.39.68.27.01.87-.83.85.1.09-.1.71-.05.47-.7-.39-.39-.44.47-.66-.4.27.71.55-.09.78-.33l.04.36c.13-.14.44-.06.52-.45-.1.21-.05.45.06.54l.14-.55c.54-.27.13.96.65.8l-.4.42c.09-.09.27.42.52.25.1-.5.28-1.09.36-1.48.3-.22.13.56.42.05l-.38.6c-.06.16.26.82.65.81.25-.17.64-.89.25-1.16.2,0,.48.3.32.66.45-.17-.06-.54.33-.84.16.33.65.8.95,1.29l-.4.83h.27c-.35.68.18.52-.02,1.22.18.11.41-.13.58-.31-.54-1.13.6-1.54.45-2.57.73-.28.46,2.5,1.23.89-.13-.27.24-1.05-.23-.75.46.11.31-1.03.85-.61-.4.42.43,1.04-.15,1.65.04-.34-.32-.26-.41-.16.19.39-.04,1.03.43,1.03.28-.1.68-.12.62-.65-.01-.59-.44.06-.25-.53.57-.21.66.69.9-.35-.36.08-.45-.53-.44-.93l.42-.25-.08.39c.64.27.24-.61.77-.61v9.98s-.05,0-.08,0l-.3-.77c.06-.26.22-.27.38-.25v-7.91c-.25-.03-.51-.12-.44.53.19.02.32-.08.45-.17v7.18c-.16.11-.3.21-.51.05.09-.09.21-.12.3-.22-.15-.04-.3-1.47-.9-.63-.31.33-.08.39-.09.79-.68.12-.88.54-1.32.6.09-.79-.77-.08-.29-.89.22.46,1.2.42,1.44-.34-.25-.94.53.13.68-.82-.54-.02-.52-.95-.6-1.55-.15-.04-.3.21-.39.31-.06.57.13.56.14,1.15-.61-.15-1.19.16-1.52.72-.2-.28-.14-.85.1-.9-.72.17-1.49.09-2.18-.08.44.93-.76.22-.46.99.37.21.68.87.48,1.29-.23-.06,0-.41-.09-.61-.29.51-.45-.81-.74-.01.66-.3.13-1.13.25-1.86-.47.41.02-.52-.45-.52-.47.4-1.05.72-1.58.88-.66-.69-1.67-.01-2.26.01-.31-.37-.1-1.19-.43-1.33-.39.02.29.89-.29.51l.06-.16c-.18.19-1.07-.56-1.24.62l.18-.89c-.11-.08-.21.12-.3.22,0-.29-.13-.55.05-.74-.36-.61-.75.1-1.14.12l.25.53c-.67.41-1.12-.11-1.76.08l.02-.52-.38.31c.09-.5-.26-.82-.46-.4l1-1.26c.28.3-.3.62-.13,1.13.15.44.75.31.84-.19-.23-.06-.24.06-.42.24-.08-.72.27-.69.44-1.17-.12.03-.29-.19-.32.04.24-.35.47-.41.87-.42-.27.28.14.44.04.65.03-.63.41-.83.89-.65.35.73.91-.47,1.47-.27-.23.64-.52,1.15-.86,1.41.35.32.39-.02.75.31.17-.48.29-1.21.75-1.5l.02.47c.42-.24.42-.94.95-.81.91.23,1.85.23,2.54.29l.03.47c.39-1.01,1.29-.37,1.81-.82.89.45,1.92-.45,2.38.36.83-.19,1.61-.38,2.4-.49v3.84c-.69.1-1.39.13-2.15.05l.27-.69c-.29.5-.19-.4-.47-.29.33.55-.39.71-.6,1.13-.72-.53-1.65.05-2.28.53l-.02-.47c-.65.89-1.42.11-2.22-.04-.09-.2-.24-.64-.48-.59-.44.76-.66.71-1.3,1.19-.47,0-1.23-.19-1.7-.49-1.76,1.07-3.55.39-5.38,1.03l-.13-.56c-.71.47-1.48.59-2.25.59v-6.65c1.16,0,2.3.24,3.21-.13l-.15.95c.47.29,1.08-.25.96-.92.48.29,1.19-.46,1.49.32.49.18.59-.44,1-.57.97.36,1.33.28,2.25.1l-.23-.06c-.1.21-.11.61.12.67.34-.26,1.26.26.92-.88.98.66,2.28-.53,3.24.35-.08-.31.16-.37.26-.58.86-.01,1.76.62,2.45.09.14.16-.22.53.13.56.21-.12,0-.4.26-.58,1.39-.58,2.82.6,4.08.45,2.25-.6,4.6-.29,6.75-.39l-.02.23s.06-.07.1-.1l-.12,7.62c-.73.6-1.59-.98-2.18.25-.16-.22-.65-.12-.51-.56-.59.6-1.59-.63-2.45.12.08.02.12-.02.21-.12-.82-.53-1.58.14-2.46-.35.09-.09.26-.16.29-.39-.33-.45-.84.93-.99-.17-.2,0-.16.55-.04.52-1.93-.49-4.02.15-6.04.33-1.42-.7-.03-1.85-1.2-1.07-.09-.21-.08.42-.09.19-.45.29-.65-1.25-.97-.68.11.68-.22.37-.24.78-.87-.46-1.03-1.08-1.74-.59l.06-.35c-.31.36-.63.51-.95.61l-.33-5.89c.51-.27,1.04-.4,1.37-1.19,4.43-.85,8.62-2.11,12.96-2.87.77-.07,1.54-.17,2.3-.28l.4,9.67c-1.34-.09-2.67-.13-4.01-.2l.29-9.82c2.21-.03,4.43-.02,6.69.29.1.09.2.18.25.25l11.38,15.67-10.84-6.98c-.88-.57-1.04-.49-2.01-.03.03-.16.09-.2,0-.33.03.76-.79.17-.81.9-.38.01-.74.04-1.09.08l-.18-8.97c1.23.11,2.43.08,3.72.17-.27.06-.45.67-.14.65l.37-.46.04.22c.22-.1.49-.45.29-.71,4.23-.32,8.22,1.51,12.32,1.67l23.37.92-22.53,7.49-.08.03c-1.03-.04-2.29.63-3.28,1.07-3.32-.11-6.28-.12-9.17,1.45,0,0-.14-2.01,1.01-2.81Z"/>
    <path class="cls-3" d="M170.19,121.4c.11.38.48.59.19,1.1-.04-.36-.23-.76-.19-1.1Z"/>
    <path class="cls-3" d="M180.01,125.33c.01-.11.14.15.17.22-.12.03-.23.35-.33.15.12-.03.1-.21.16-.37Z"/>
    <path class="cls-3" d="M182.51,125.56c-.04.34-.57.61-.89.65l.89-.65Z"/>
    <path class="cls-3" d="M184.85,126.96c.2.29.15.44-.13.44-.02-.18.07-.27.13-.44Z"/>
    <path class="cls-3" d="M185.02,126.19c.19,0,.29.19.39.39,0-.29-.45.18-.39-.39Z"/>
    <path class="cls-3" d="M182.1,118.3c-.12.03-.39.31-.5-.07.13.26.59-.43.5.07Z"/>
    <path class="cls-3" d="M179.74,118.82c-.08-.02-.11-.09-.2.01-.14-.16,0-.4.13-.44l.07.43Z"/>
    <polygon class="cls-3" points="190.51 120.07 190.77 119.92 190.72 120.25 190.51 120.07"/>
    <path class="cls-3" d="M178.46,124.18c.22-.25.22.29.27.33-.22.07.02-.43-.27-.33Z"/>
    <polygon class="cls-3" points="188.26 121.05 188.19 121.07 188.11 120.38 188.26 121.05"/>
  </g>
  <g>
    <path class="cls-3" d="M168.84,123.7c.13-.16-.07-.6.08-.27-.02.27-.04.48-.08.27Z"/>
    <path class="cls-3" d="M185.13,121.57c-.42,1.78-.96-.02-1.42,1.11-.05.08.01-.97-.11-.74-.44,1.38-1.14.56-1.67-.51l.03-.27c-.1-.2-.23.71-.34.58,0-.18.03-.26,0-.51-.03.55-.2.25-.24.66-.04-.22-.04-.65-.09-.89l-.06.63c-.17,1.49-.42-.11-.65.67.01-.15.03-.26.02-.4-.38.9-.85.74-1.27,1.07.02-.22.03-.63,0-.87-.02.66-.15.83-.26.96-.05-.68-.19.62-.33.24v-.15c-.09.71-.13-.41-.21.44l-.06-.53c-.04.96-.14-.49-.22-.01v.2c-.07.23-.11-.25-.18-.09v-.11c-.17.25-.27-.28-.27.46-.06-.6.16-.27.07-1.14-.55.77-1.11.62-1.66.63-.06-.3-.1-.39-.12-.67-.05.15-.21.14-.26.52.02-.01-.04-.38-.06-.42-.1-.28-.11.82-.22.49.04-.2.06-.44.04-.72-.09.58-.22.49-.33.68.02-.13.04-.2.04-.43-.12.66-.22-.14-.33.28l.04-.43c-.17-.52-.05.9-.2.59.04-.14.02-.3.03-.48-.14.78-.36.52-.5.79,0-.06,0-.18,0-.18-.15.1-.31-.15-.47.2-.06-.19.02-1.05-.14-.89,0,.86-.27.36-.18,1.33-.14-.14-.35-.47-.44-.17.06-.33-.07-1.06.05-1.13l-.09-.52c.01-.35.09.12.06-.33-.06.03-.22.38-.27.24-.1.53-.2,1.52-.37,1.63.08-.34-.05-.95,0-1.1l-.24,1.66c-.06.04-.01-.68-.09-.46,0,.23-.03.37-.06.55-.02-.1-.23.22-.26-.63-.02-.33.09-.18.03-.48-.1,0-.11.3-.21.31v-.11c-.07-.13-.2.36-.13.83.05.03-.02-.51.05-.26-.05.49-.17.63-.27.64.04-.14.03-.36.05-.6-.14.67-.29.88-.44,1.16,0,.4.06-.74.08-.52-.2-.56-.41.8-.58-.02.03-.07.01.57.01.46-.1-.05-.09-.64-.16-.42,0-.34-.08.11-.14.21-.03.25-.02-.17.04-.21-.09.29-.45.82-.66.32,0,.23-.13.84-.18.81l.02-.53c-.04-.32-.16.05-.17-.41-.1.65.39-.55.26-.05-.04-.45-.19.85-.16.12-.1.02-.19.62-.28.12.03.09.08-.74,0-.7-.14.09-.04.25-.15.43l-.07.22c0,.52-.12-.07-.07.51-.02-.43-.2.26-.18-.6l.02-.68c-.06.05-.1.71-.14,1.01,0-.06-.02-.2-.02-.31,0,1.04-.14-.09-.21.71-.12-.36-.32-.03-.37-.68-.1.31-.18.69-.29.46.02-.1.05-.13.06-.35-.07-.31-.09-.03-.15.14.01-.15-.14-.61-.21-.97-.09.31-.06.87-.07,1.21-.09-1.02-.27.66-.38-.27.03-.14.14-.5.06-.76-.09-1.02-.17.76-.31.26l.03.85c-.06-.53-.21.49-.19-.37-.05.31-.16-.28-.15.55-.23-.7-.56.42-.7-1.06-.03.14-.11,0-.1.42.05.46.08-.33.1-.01-.03.03-.04.25-.04.37-.07-.19-.13-.25-.06-.94-.16-.51-.16,1.41-.37,1.08,0-.34,0-.47-.07-.42l-.11.59c-.13-.14-.07-.78-.08-1.36-.07.1-.16.07-.19.5l-.08-.73c.06.53-.06.35-.09.49l.03-.14c-.01-.24-.09-.09-.13-.02,0,.36.09.5.14.61-.04.26-.09.2-.14.5.02-.57-.11-.4-.17-.46-.06-.12-.07.51-.09.49,0-.3-.1-.05-.05-.46.02-.09.05.29.09.03-.04-.22-.04-.73-.12-.36-.07.28.02,1.12-.11.76.03-.14.04-.37.06-.57l-.12-.3v.52c-.02-.13,0-.18-.02-.25-.03.55-.18.17-.2.78-.06.05-.12-.36-.18-.42v-.04c-.06-.31-.15-.1-.21.25v-.11s-.12.04-.17.35c-.09-.39-.03-1.96-.14-1.3-.1.02-.15.95-.11,1.28-.17-.35-.37.5-.53-.31-.02.21,0,.34-.06.46-.25-.2-.53.61-.74-.4.07-.22,0-.52,0-.81-.06.46-.07-.48-.09.31,0,.47,0,.7.07.89-.15.25-.38.25-.46-.19.04.22,0,.36-.02.5.01-.75-.1-.86-.18-.6v.46s-.07-.47-.07-.47c-.03.15-.04.95-.12.52,0-.18,0-.35-.02-.48-.09.37-.21,1-.3.62l-.08-.66c-.04.07-.11.47-.04.66-.16-.4-.27-.45-.32-1.02-.05.26-.11.47-.16.64v-6.26c.26-.78.58-.8.84-.72v.34c.08.32.04-.6.1-.36-.03.32.07.71,0,1.1.12.36.16-.59.24-.75.01-.45-.07.29-.05-.28.01-.16.17.35.19-.33.03.27,0,.76,0,1.04l.08-.33c.09.79-.21,1.41-.11,2.39l.07-.11c.07.71-.19.8,0,1.04.08-.33.14-1.32.07-1.61.16-.19.07-1.61.24-1.56.05.4-.14.09-.1.65.08.55.16-.31.23-.11-.08-.26-.01-.94.04-1.06.09.32-.06.64.07.71.02-.39.13-.68.04-.96.04-.89.13.25.19-.44.04.62-.13,1.44,0,1.75-.02-.6.17-.82.1-1.71.05.17.06.65.02,1.01.08.37.18-1.1.21.09l.03-.61c.03.2.05.36.1.68.07.01.21-.83.21.1.02-.1.17-.05.11-.7-.09-.39-.11.47-.16-.4.07.71.14-.09.19-.33v.36c.04-.14.12-.06.14-.45-.02.21-.01.45.01.54l.03-.55c.13-.27.03.96.16.8l-.1.42c.02-.09.07.42.13.25.03-.5.07-1.1.09-1.48.07-.22.03.56.1.05l-.09.6c-.01.16.06.82.16.81.06-.17.16-.89.06-1.16.05,0,.12.3.08.66.11-.17-.01-.54.08-.84.04.33.16.8.23,1.29l-.1.83h.07c-.09.68.04.52,0,1.22.04.11.1-.13.14-.31-.13-1.13.15-1.54.11-2.57.18-.28.11,2.5.3.89-.03-.27.06-1.05-.06-.75.11.11.08-1.03.21-.61-.1.42.11,1.04-.04,1.65,0-.34-.08-.26-.1-.16.05.39,0,1.03.11,1.03.07-.1.17-.12.15-.65,0-.59-.11.06-.06-.53.14-.21.16.69.22-.35-.09.08-.11-.53-.11-.93l.1-.25-.02.39c.16.28.05-.71.21-.61l.07.77c-.04.66-.23-.3-.2.79.1.04.14-.51.24-.23-.02.09-.05.12-.07.22.04.04.07,1.47.22.63.08-.33.02-.39.02-.79.17-.12.22-.54.32-.6-.02.79.19.08.07.89-.05-.46-.3-.42-.35.34.06.94-.13-.13-.17.82.13.02.13.95.15,1.55.04.04.07-.21.1-.31.02-.57-.03-.56-.04-1.15.15.15.29-.16.37-.72.05.28.03.85-.02.9.18-.17.37-.09.53.08-.11-.93.19-.22.11-.99-.09-.21-.17-.87-.12-1.29.06.06,0,.41.02.61.07-.51.11.81.18.01-.16.3-.03,1.13-.06,1.86.12-.41,0,.52.11.52.12-.4.26-.72.39-.88.16.69.41.01.56-.01.08.37.02,1.19.11,1.33.1-.02-.07-.89.07-.51v.16c.03-.19.25.56.29-.62l-.04.89c.03.08.05-.12.07-.22,0,.29.03.55-.01.74.09.61.19-.1.28-.12l-.06-.53c.16-.41.27.11.43-.08v.52s.09-.31.09-.31c-.02.5.06.82.11.4l-.25,1.26c-.07-.3.07-.62.03-1.13-.04-.44-.18-.31-.21.19.06.06.06-.06.1-.24.02.72-.07.69-.11,1.17.03-.03.07.19.08-.04-.06.35-.12.41-.21.42.07-.28-.04-.44-.01-.65,0,.63-.1.83-.22.65-.09-.73-.22.47-.36.27.06-.64.13-1.15.21-1.41-.09-.32-.1.02-.18-.31-.04.48-.07,1.21-.19,1.5v-.47c-.11.24-.11.94-.24.81-.22-.23-.45-.23-.62-.29v-.47c-.1,1.01-.32.37-.45.82-.22-.45-.47.45-.58-.36-.38.36-.72.72-1.12.54l.07-.69c-.07.5-.05-.4-.12-.29.08.55-.1.71-.15,1.13-.18-.53-.4.05-.56.53v-.47c-.16.89-.35.11-.55-.04-.02-.2-.06-.64-.12-.59-.11.76-.16.71-.32,1.19-.11,0-.3-.19-.42-.49-.43,1.07-.87.39-1.32,1.03l-.03-.56c-.34.92-.74.48-1.07.52v-6.51c.1-.01.19-.06.27-.2l-.04.95c.12.29.27-.25.24-.92.12.29.29-.46.37.32.12.18.15-.44.25-.57.24.36.33.28.55.1l-.06-.06c-.02.21-.03.61.03.67.08-.26.31.26.23-.88.24.66.56-.53.8.35-.02-.31.04-.37.06-.58.21-.01.43.62.6.09.03.16-.05.53.03.56.05-.12,0-.4.06-.58.34-.58.69.6,1,.45.55-.6,1.13-.3,1.66-.4v.23c.17-.87.41.89.55-.42.04.22.16.1.13.54.14-.61.4.58.6-.2-.02-.02-.03.02-.05.12.21.5.39-.19.61.27-.02.1-.06.17-.07.4.08.44.2-.96.25.14.05-.01.03-.55,0-.52.48.43.99-.27,1.48-.52.36.66.02,1.84.3,1.03.02.21.02-.42.02-.19.11-.31.17,1.22.24.65-.03-.67.05-.38.05-.78.22.44.26,1.04.43.53v.35c.19-1,.42-.46.59-1.62,1.11-.21,2.17-.85,3.25-.98,1.07.22,2.11-.3,3.2.31.25.93.27.91.55.53-.01.15-.03.18-.01.33.01-.76.2-.07.22-.8.4.14.77-.07,1.18-.07-.07.08-.1.71-.02.66l.08-.49v.21c.07-.11.12-.49.07-.73,1.04-.66,2.06.87,3.07.68.24.32.58.03.85-.13.78,1.02,1.48,1.84,2.27,1.13,0,0-.1,1.97-.43,2.43Z"/>
    <path class="cls-3" d="M168.68,123.78c-.03-.38-.12-.59-.05-1.1,0,.36.06.76.05,1.1Z"/>
    <path class="cls-3" d="M166.27,119.85c0,.11-.03-.15-.04-.22.03-.03.06-.35.08-.15-.03.03-.03.21-.04.37Z"/>
    <path class="cls-3" d="M165.65,119.62c0-.34.14-.61.22-.65l-.22.65Z"/>
    <path class="cls-3" d="M165.08,118.22c-.05-.29-.04-.44.03-.44,0,.18-.02.27-.03.44Z"/>
    <path class="cls-3" d="M165.04,119s-.07-.19-.09-.39c0,.29.11-.18.09.39Z"/>
    <path class="cls-3" d="M163.79,118.01s-.09.31-.12-.07c.03.26.15-.43.12.07Z"/>
    <path class="cls-3" d="M163.21,118.52s-.03-.09-.05.01c-.03-.16,0-.4.03-.44l.02.43Z"/>
    <polygon class="cls-3" points="166.65 125 166.59 125.17 166.6 124.83 166.65 125"/>
    <path class="cls-3" d="M171.27,124.98c.06-.21.04.32.05.37-.06.03.02-.42-.05-.37Z"/>
    <polygon class="cls-3" points="173.77 123.28 173.75 123.29 173.75 122.6 173.77 123.28"/>
  </g>
  <g>
    <path class="cls-3" d="M199.05,119.38c-.21.07-.17.58-.21.2.14-.24.25-.41.21-.2Z"/>
    <path class="cls-3" d="M217.13,123.9c-.55,1.77-1.22-.03-1.81,1.09-.07.07.03-.97-.13-.74-.58,1.37-1.45.54-2.12-.53l.04-.27c-.13-.2-.3.71-.43.58,0-.18.05-.26.02-.51-.04.55-.25.25-.31.66-.05-.22-.04-.65-.11-.89l-.09.62c-.24,1.49-.53-.11-.84.66.02-.14.05-.26.02-.4-.49.9-1.09.72-1.63,1.05.02-.22.05-.62.02-.87-.03.66-.2.82-.35.95-.06-.68-.25.62-.42.24l.02-.15c-.13.71-.18-.41-.29.44l-.07-.53c-.07.95-.17-.5-.28-.01v.2c-.1.23-.14-.25-.24-.09v-.11c-.22.25-.34-.28-.34.46-.07-.6.21-.27.1-1.14-.7.76-1.41.6-2.11.61-.08-.3-.13-.39-.14-.67-.07.15-.26.13-.33.51.02-.01-.04-.38-.08-.42-.12-.28-.15.82-.28.48.06-.2.08-.44.06-.72-.13.58-.28.49-.43.67.02-.13.06-.2.06-.43-.16.66-.28-.14-.42.27l.06-.43c-.21-.53-.07.9-.26.59.05-.14.03-.3.04-.48-.18.78-.46.52-.64.78.01-.06,0-.18,0-.18-.19.1-.39-.15-.6.19-.07-.19.04-1.05-.17-.89,0,.86-.35.35-.24,1.33-.17-.14-.44-.47-.56-.18.08-.33-.07-1.06.07-1.13l-.1-.52c.02-.35.11.12.08-.32-.07.03-.28.37-.35.23-.14.53-.27,1.51-.49,1.62.1-.34-.05-.95.02-1.1l-.32,1.65c-.07.04,0-.68-.11-.46,0,.23-.04.37-.08.55-.03-.1-.3.21-.32-.64-.03-.34.12-.18.04-.48-.13,0-.14.3-.27.31v-.11c-.09-.13-.26.36-.17.83.06.03-.02-.51.07-.26-.07.49-.22.63-.35.64.05-.14.04-.36.07-.6-.19.67-.38.88-.58,1.15,0,.4.08-.73.11-.52-.25-.56-.53.79-.74-.03.04-.07.01.57.01.46-.12-.05-.11-.64-.19-.42,0-.35-.1.11-.18.21-.05.25-.02-.17.05-.21-.12.29-.58.81-.84.31,0,.23-.17.83-.23.81l.03-.53c-.05-.32-.2.04-.21-.41-.14.64.51-.55.32-.05-.04-.45-.25.84-.21.12-.12.02-.25.62-.36.12.03.09.11-.74,0-.7-.17.09-.05.25-.2.43l-.09.22c-.01.52-.15-.07-.1.51-.02-.43-.26.26-.23-.6l.03-.68c-.08.05-.13.71-.19,1.01,0-.06-.03-.2-.02-.31-.02,1.04-.18-.09-.28.71-.15-.36-.4-.04-.47-.68-.12.31-.24.68-.37.46.03-.1.07-.13.08-.35-.08-.31-.11-.03-.19.13.02-.15-.17-.61-.26-.98-.12.31-.09.87-.11,1.21-.1-1.02-.35.65-.47-.27.04-.14.18-.5.08-.76-.1-1.02-.23.75-.4.26l.03.85c-.07-.53-.27.49-.24-.38-.06.31-.21-.28-.2.54-.28-.7-.71.41-.87-1.07-.04.14-.15,0-.13.42.06.46.1-.33.12-.01-.04.02-.05.25-.05.36-.09-.19-.16-.25-.06-.94-.19-.51-.22,1.4-.48,1.08.02-.34,0-.47-.08-.42l-.15.58c-.16-.14-.08-.78-.08-1.36-.09.1-.2.07-.24.5l-.1-.73c.07.53-.08.35-.12.49l.04-.14c-.01-.24-.12-.09-.17-.02,0,.36.11.51.17.61-.05.25-.12.19-.18.49.03-.57-.14-.41-.21-.47-.08-.12-.1.51-.12.49,0-.3-.13-.05-.06-.46.03-.09.06.29.11.03-.05-.22-.04-.73-.15-.36-.09.28,0,1.12-.15.76.04-.14.05-.37.09-.57l-.14-.3v.52c-.03-.13-.02-.18-.02-.25-.05.55-.23.16-.27.78-.08.05-.15-.36-.22-.42v-.04c-.07-.31-.19-.11-.26.24v-.11s-.15.04-.22.34c-.12-.39-.02-1.96-.16-1.31-.12.02-.2.95-.16,1.28-.02-.04-.04-.06-.07-.07l-20.21-12.64,19.61,6.8c.22.08.31-.57.64.1-.01-.21-.06-.34-.02-.47.36.13.53-.75,1,.2-.04.23.1.51.17.8-.02-.47.19.45.05-.33-.11-.46-.15-.68-.28-.85.13-.29.42-.35.62.06-.1-.2-.09-.35-.08-.5.15.73.31.81.36.53l-.08-.45.17.44c0-.15-.16-.94.04-.54.04.17.09.34.13.47.03-.39.05-1.04.25-.69l.24.63c.03-.08.03-.49-.1-.66.29.35.43.37.61.92.05-1.44.53-1.61.96-1.6l.06.34c.18.29-.07-.59.05-.38.03.32.23.67.23,1.08.23.32.07-.62.14-.79-.08-.44-.02.3-.12-.26-.02-.16.29.29.17-.37.1.25.17.74.21,1.02l.02-.34c.28.75.04,1.44.37,2.36l.06-.12c.23.67-.06.83.21,1.02.02-.35-.11-1.32-.25-1.6.16-.23-.25-1.6-.03-1.59.14.38-.15.13.01.67.22.51.13-.34.26-.17-.15-.23-.22-.92-.18-1.05.18.29.07.64.23.68-.06-.39.02-.7-.16-.94-.13-.88.21.21.15-.48.18.6.15,1.44.38,1.71-.16-.58.03-.84-.25-1.69.1.16.21.62.24.99.17.34,0-1.12.28.04l-.1-.61c.08.18.14.34.26.64.08,0,.09-.87.28.04,0-.1.2-.1,0-.71-.2-.36-.03.49-.28-.35.23.67.15-.13.17-.37l.09.35c.01-.15.12-.09.06-.47.01.21.08.44.13.52l-.07-.54c.11-.3.24.93.37.74l-.03.44c0-.09.17.39.21.21-.07-.49-.15-1.09-.21-1.47.04-.23.16.54.14.02v.61c.03.16.27.79.38.75.04-.19,0-.91-.17-1.15.06-.02.21.26.24.62.1-.2-.13-.52-.08-.85.12.31.37.74.56,1.19l.05.84h.08c.04.67.16.48.25,1.18.08.1.1-.15.11-.34-.4-1.07-.15-1.55-.41-2.54.16-.32.67,2.41.56.79-.1-.25-.15-1.04-.23-.72.16.08-.13-1.03.13-.65-.03.44.35.99.31,1.63-.06-.34-.15-.23-.16-.13.14.37.21,1.01.35.98.07-.12.18-.16.05-.68-.13-.57-.12.09-.19-.5.13-.24.35.63.2-.4-.09.1-.25-.48-.33-.88l.07-.27.06.39c.26.23-.09-.71.13-.65l.26.74c.09.66-.35-.23-.08.82.14.02.06-.53.24-.28,0,.1-.04.13-.04.23.05.03.41,1.42.41.56.02-.34-.06-.38-.14-.78.18-.17.15-.58.27-.67.14.78.25.02.28.85-.17-.44-.45-.33-.37.43.27.9-.19-.09-.03.84.17-.02.36.89.51,1.47.05.03.04-.23.05-.33-.1-.56-.16-.54-.29-1.11.22.11.33-.24.31-.8.12.26.22.82.16.89.18-.21.43-.19.68-.07-.33-.88.19-.26-.07-1-.16-.18-.39-.8-.42-1.23.08.04.08.4.16.59-.02-.52.31.76.23-.04-.14.34.2,1.12.32,1.84.06-.43.1.51.25.48.04-.33.12-.61.21-.81l-.38,3.41c-.06.03-.11.06-.16.07.1-.71-.47-.23-.65-.28.07-.37.47-1.09.44-1.27-.12-.04-.29.84-.3.43l.08-.14c-.13.15-.07-.65-.61.4l.43-.79c0-.09-.11.08-.18.16.12-.26.2-.52.33-.67.16-.6-.25,0-.38-.04l-.15.51c-.36.29-.27-.25-.53-.16l.22-.47-.24.23c.24-.44.27-.78.04-.43l.82-1.02c-.05.31-.35.53-.51,1.01-.15.42.08.37.32-.06-.04-.08-.09.02-.22.16.28-.66.37-.59.62-1-.05.01,0-.21-.11,0,.21-.29.3-.31.42-.27-.19.22-.15.42-.26.6.28-.57.46-.7.53-.47-.21.71.46-.31.53-.05-.33.55-.63.98-.84,1.17-.04.34.12.04.08.38.25-.41.59-1.06.85-1.26l-.19.43c.22-.16.51-.8.61-.61.11.23.28.36.4.46l3.29,2.55-3.6.25c-.1,0-.17,0-.24,0l-.11-.46c.1,1.01-.31.45-.37.92-.37-.38-.49.57-.8-.2-.4.46-.74.9-1.27.83l-.06-.69c.02.51-.14-.37-.21-.26.22.52.03.72.06,1.15-.33-.47-.49.16-.58.67l-.11-.46c0,.91-.41.2-.68.11-.07-.18-.21-.61-.27-.54.03.77-.05.74-.14,1.25-.14.03-.41-.1-.62-.36-.31,1.16-1,.61-1.42,1.37l-.16-.53c-.29,1.28-1.18.37-1.51,1.06l-.16-.94c-.21-.25-.28.32-.1.96-.21-.25-.26.53-.52-.21-.19-.14-.09.47-.18.62-.37-.29-.47-.18-.71.05l.08.04c-.01-.21-.1-.61-.18-.65-.05.28-.44-.17-.09.92-.44-.58-.58.67-1.06-.13.09.3.03.37.04.58-.16.04-.37-.15-.53-.18l-.76-7.47c.1.04.19.01.28-.19.04.16-.07.52.03.56.07-.12,0-.4.09-.58.44-.57.87.61,1.27.46.71-.59,1.43-.28,2.11-.37v.23c.22-.87.51.9.7-.41.05.22.2.11.16.54.19-.61.49.58.76-.19-.02-.02-.04.02-.07.12.26.5.49-.18.76.28-.03.1-.08.17-.09.4.1.44.26-.96.31.14.06,0,.05-.55.01-.52.6.43,1.25-.26,1.88-.5.44.66,0,1.85.37,1.03.03.21.03-.42.03-.19.14-.3.2,1.23.3.65-.03-.67.07-.38.08-.78.27.44.32,1.05.54.54l-.02.35c.27-1,.56-.46.78-1.61,1.41-.19,2.76-.82,4.13-.93,1.35.24,2.68-.27,4.05.36.31.94.34.91.69.54-.02.15-.04.18-.02.33.03-.76.25-.07.29-.8.51.15.98-.05,1.5-.05-.08.08-.13.7-.03.66l.11-.49v.21c.08-.11.16-.49.09-.73,1.32-.64,2.6.9,3.88.73.3.32.74.03,1.07-.12.97,1.03,1.85,1.86,2.86,1.16,0,0-.15,1.97-.57,2.42Z"/>
    <path class="cls-3" d="M199.26,119.4c-.13.36-.11.6-.41,1.02.14-.33.26-.72.41-1.02Z"/>
    <path class="cls-3" d="M200.18,119.28c.02.11-.08-.14-.1-.2.03-.04,0-.36.07-.17-.03.04.01.21.03.37Z"/>
    <path class="cls-3" d="M199.36,119.22c-.06-.34.04-.63.13-.69l-.13.69Z"/>
    <path class="cls-3" d="M198.35,118.01c-.12-.27-.14-.42-.05-.43.04.18.04.27.05.43Z"/>
    <path class="cls-3" d="M198.47,118.78c-.06.02-.13-.17-.2-.35.06.28.1-.21.2.35Z"/>
    <path class="cls-3" d="M196.71,118.15s-.05.33-.17-.03c.1.25.09-.46.17.03Z"/>
    <path class="cls-3" d="M196.1,118.81s-.05-.08-.06.02c-.08-.14-.08-.4-.05-.43l.11.41Z"/>
    <polygon class="cls-3" points="193.67 127.05 193.58 127.21 193.6 126.88 193.67 127.05"/>
    <path class="cls-3" d="M199.52,127.1c.08-.21.05.32.06.37-.07.03.03-.42-.06-.37Z"/>
    <polygon class="cls-3" points="202.7 125.44 202.68 125.45 202.7 124.76 202.7 125.44"/>
  </g>
  <g>
    <path class="cls-3" d="M218.82,122.26c-.09-.17-.55-.24-.2-.19.23.14.41.26.2.19Z"/>
    <path class="cls-3" d="M236.59,120.68c-.25,1.79-.77.02-1.09,1.16-.04.08-.03-.97-.12-.73-.29,1.39-.89.6-1.37-.45v-.27c-.08-.2-.14.72-.23.59,0-.18.02-.26-.02-.51,0,.55-.15.26-.16.67-.04-.21-.06-.65-.12-.89l-.02.63c-.07,1.49-.34-.09-.5.69,0-.15.02-.26,0-.4-.26.92-.65.77-.98,1.11,0-.22,0-.63-.03-.87.01.66-.08.83-.17.96-.07-.68-.13.63-.25.26v-.15c-.04.71-.13-.4-.16.45l-.07-.53c0,.96-.14-.49-.18,0v.2c-.04.24-.09-.24-.14-.08v-.11c-.13.26-.23-.27-.2.47-.07-.59.12-.28,0-1.14-.4.79-.86.66-1.31.69-.06-.3-.1-.39-.12-.67-.04.15-.16.14-.18.53.01-.01-.05-.38-.07-.42-.09-.28-.05.82-.15.49.03-.2.03-.44,0-.72-.05.58-.15.5-.23.69,0-.13.03-.2.01-.43-.07.66-.18-.13-.25.29v-.43c-.15-.52.01.9-.12.6.02-.14,0-.31,0-.48-.08.79-.27.54-.37.81,0-.06,0-.18,0-.18-.12.1-.25-.13-.37.21-.06-.19-.03-1.05-.15-.89.04.86-.2.37-.08,1.34-.12-.14-.3-.45-.36-.16.03-.33-.1-1.05-.01-1.13l-.09-.52c0-.35.08.12.03-.33-.04.04-.16.38-.21.25-.06.53-.09,1.52-.22,1.64.05-.34-.08-.95-.04-1.1l-.12,1.66s-.04-.68-.1-.45c.01.23,0,.37-.02.56-.02-.1-.18.22-.24-.62-.04-.33.07-.18,0-.48-.08.01-.07.3-.16.32v-.11c-.07-.12-.15.37-.07.84.04.03-.04-.51.03-.27-.02.5-.11.64-.19.65.02-.14,0-.37,0-.61-.08.67-.19.89-.3,1.17.02.4.01-.74.04-.52-.19-.55-.3.81-.47,0,.02-.07.04.57.03.46-.08-.05-.1-.63-.14-.41-.02-.34-.06.11-.11.22-.02.25-.02-.17.02-.21-.06.3-.33.84-.52.34.01.23-.07.84-.1.82v-.53c-.06-.32-.14.05-.16-.4-.05.65.29-.56.2-.06-.05-.44-.12.85-.13.13-.08.02-.12.62-.22.13.03.08.03-.74-.03-.7-.11.1-.02.26-.1.44l-.05.22c.02.52-.1-.06-.03.51-.03-.43-.15.27-.18-.59l-.02-.68c-.05.05-.05.72-.07,1.02,0-.06-.03-.2-.03-.31.04,1.03-.12-.08-.14.72-.12-.35-.25-.02-.33-.66-.06.32-.12.69-.21.47.01-.1.04-.13.03-.35-.07-.3-.07-.03-.11.14,0-.15-.14-.6-.21-.96-.06.31-.01.87,0,1.21-.12-1.02-.19.67-.31-.25.02-.14.09-.51.01-.76-.12-1.02-.11.76-.24.27l.07.85c-.07-.52-.14.5-.17-.37-.02.31-.14-.27-.1.55-.22-.69-.43.44-.61-1.03-.02.14-.09,0-.06.43.06.46.05-.33.08-.02-.02.03-.02.25-.01.37-.07-.19-.11-.24-.09-.93-.15-.51-.07,1.41-.24,1.1,0-.34-.03-.47-.07-.42l-.06.59c-.11-.13-.09-.77-.12-1.36-.05.1-.12.08-.13.51l-.1-.73c.07.53-.03.35-.05.5l.02-.14c-.02-.24-.08-.09-.11-.02.02.36.1.5.14.6-.02.26-.06.2-.09.5-.01-.57-.11-.4-.16-.46-.06-.12-.03.51-.05.49-.01-.3-.09-.05-.06-.46.01-.09.05.28.07.02-.04-.22-.06-.73-.12-.35-.04.28.06,1.12-.05.77.02-.14.01-.37.03-.57l-.11-.29.02.52c-.02-.13-.01-.18-.02-.24,0,.55-.14.17-.13.79-.04.06-.12-.35-.16-.41v-.05c-.06-.3-.13-.1-.16.25v-.11s-.05,0-.08.07l.5-5.47c.03-.05.08-.13.12-.26-.01.4-.41,1.91-.19,1.3.08,0,.33-.9.37-1.23.06.37.4-.42.35.4.07-.2.08-.33.15-.44.15.25.56-.5.49.53-.11.2-.12.5-.18.79.15-.44-.05.48.14-.29.1-.46.16-.68.14-.88.17-.22.35-.18.32.27.02-.22.07-.35.13-.48-.18.72-.11.86.01.61l.11-.44-.06.47c.06-.14.24-.92.21-.48-.04.17-.07.35-.09.48.15-.35.39-.94.38-.55l-.09.66c.05-.06.19-.44.18-.64,0,.04,0,.07,0,.11l.63,7.58-.61-.93c-.18-.28-.27-.35-.43-.85.11,1.42-.2,1.54-.47,1.51l-.07-.33c-.14-.29.1.59,0,.37-.05-.32-.21-.67-.25-1.08-.18-.33.01.6-.02.77.09.44-.02-.29.1.26.03.16-.22-.31-.07.36-.09-.25-.18-.74-.23-1.01l.02.33c-.26-.75-.16-1.41-.46-2.34l-.03.12c-.22-.68-.04-.81-.23-1.02.02.34.19,1.31.31,1.58-.08.21.31,1.58.17,1.56-.13-.38.08-.12-.07-.66-.19-.52-.06.33-.16.15.12.23.23.91.21,1.04-.14-.29-.1-.63-.22-.68.07.38.05.69.19.94.17.87-.16-.22-.05.47-.17-.6-.23-1.43-.41-1.7.16.58.06.83.32,1.68-.08-.16-.19-.62-.25-.98-.14-.35.11,1.1-.18-.05l.12.6c-.07-.19-.12-.33-.23-.65-.05,0,.02.85-.19-.05,0,.1-.12.08.07.7.16.36-.02-.48.22.36-.22-.68-.09.11-.07.35l-.09-.35c0,.14-.07.08,0,.46-.03-.2-.09-.44-.13-.52l.1.54c-.04.29-.25-.93-.31-.75l-.02-.43c0,.09-.15-.39-.16-.22.09.49.2,1.08.27,1.46,0,.23-.15-.54-.09-.03l-.07-.6c-.03-.16-.24-.79-.31-.76,0,.18.08.9.22,1.14-.04.02-.16-.27-.21-.63-.05.19.13.52.13.84-.11-.32-.31-.75-.48-1.21l-.11-.83h-.05c-.09-.66-.15-.48-.28-1.18-.06-.1-.05.14-.04.33.36,1.07.24,1.53.51,2.52-.08.31-.67-2.41-.44-.81.09.25.2,1.03.22.72-.11-.09.18,1.02-.02.63-.02-.43-.32-1-.35-1.62.07.33.12.24.12.14-.13-.37-.23-1.01-.32-.99-.03.11-.1.15.03.66.14.57.07-.08.17.51-.06.23-.29-.64-.09.38.05-.09.21.49.3.88l-.02.26-.07-.38c-.19-.24.13.7-.02.63l-.24-.74c-.12-.65.25.24-.02-.8-.09-.02,0,.52-.13.26,0-.09.01-.13,0-.22-.04-.03-.4-1.42-.32-.57.02.33.07.38.17.77-.1.15-.05.56-.11.64-.07-.34-.11-.39-.14-.41l-7.61-4.26,3.44-1.2s.03-.06.41.21l-.08-.03,3.75,4.91c.14.35.29.23.17-.47-.26-.9.13.1-.06-.83-.11,0-.32-.9-.47-1.48-.04-.03,0,.22,0,.32.12.56.16.54.29,1.11-.11-.09-.16.07-.16.38l-2.65-3.47c-.08-.07-.19-.15-.3-.24.27.1.76.38.78.45-.08-.21.06-.3.28-.34-.86-.37-.12-.24-.83-.55-.22-.04-.83-.3-1.18-.53.07-.01.36.2.54.27-.42-.29.76.31.08-.12.2.26.98.56,1.61.93-.32-.28.45.25.5.17-.31-.28-.54-.53-.62-.7.67.22.17-.28.2-.4.35.12,1.06.55,1.21.56.02-.08-.81-.37-.42-.29l.14.09c-.15-.12.59.08-.43-.51l.77.46c.08.02-.09-.1-.16-.16.25.14.5.24.65.36.57.23-.02-.18,0-.26l-.49-.21c-.3-.31.2-.14.1-.34l.45.25-.23-.21c.43.26.75.35.4.11l1.02.78c-.29-.1-.52-.35-.98-.56-.4-.19-.34-.02.09.24.07-.01-.03-.07-.17-.19.64.33.58.38.99.64-.01-.03.19.04,0-.07.29.21.31.28.29.35-.22-.18-.4-.19-.58-.3.55.31.69.47.49.47-.67-.29.33.38.1.38-.54-.35-.96-.64-1.16-.83-.32-.09-.02.08-.34-.02.4.26,1.04.63,1.25.85l-.42-.22c.17.19.79.52.62.55-.29.05-.38.21-.5.3l-.42-.22c.85.55.21.4.55.71-.38-.05-.03.32-.23.33l-1.93-2.53s.08.13.14.29c.22-.42.4-.83.75-.74l.11.68c-.06-.5.13.38.16.26-.19-.52-.09-.71-.15-1.13.26.49.31-.12.32-.62l.11.46c-.08-.89.25-.17.44-.07.06.19.19.61.23.55-.09-.76-.04-.72-.02-1.21.09-.02.28.13.44.4.09-1.12.59-.54.8-1.25l.15.53c.07-1.23.73-.29.89-.95l.19.93c.1.16.13,0,.1-.29l.02,5.38c-.06.17-.12.39-.17.64-.03-.3-.33.4-.22-.38-.05-.19-.21.4-.32.51-.11-.39-.19-.33-.41-.2l.03.07c.07-.2.16-.59.13-.66-.12.24-.19-.3-.37.81-.04-.68-.56.42-.54-.48-.05.31-.11.35-.18.55-.17-.03-.2-.68-.45-.2,0-.16.16-.5.1-.55-.07.11-.09.39-.18.55-.02.03-.05.05-.07.07l-10.89,9.39,11.62-17.43c.24-.36.55.65.78.5.42-.62.89-.34,1.32-.46v.23c.11-.87.38.87.43-.44.04.22.13.1.13.54.09-.62.34.56.47-.22-.02-.02-.02.03-.04.13.19.49.3-.2.5.25-.01.1-.04.17-.04.4.09.43.12-.97.2.13.04-.01,0-.55-.02-.52.4.41.78-.31,1.17-.58.32.64.1,1.84.29,1.02.03.21,0-.42,0-.19.07-.31.19,1.22.23.64-.06-.67.02-.38,0-.79.19.43.26,1.03.37.52v.35c.12-1.01.33-.48.42-1.64.88-.25,1.71-.93,2.57-1.1.87.18,1.69-.38,2.58.2.25.92.26.9.47.51,0,.15-.01.19,0,.33-.02-.76.15-.08.14-.81.33.13.62-.09.95-.11-.05.08-.05.71.01.66l.04-.49.02.21c.04-.11.07-.49.01-.74.8-.7,1.69.8,2.5.57.21.31.47,0,.67-.16.67.99,1.27,1.78,1.87,1.04,0,0,0,1.97-.23,2.44Z"/>
    <path class="cls-3" d="M218.83,122.41c-.35-.16-.56-.2-.98-.49.32.17.69.32.98.49Z"/>
    <path class="cls-3" d="M214.45,122.23c.1.06-.15-.05-.21-.08-.01-.03-.29-.21-.1-.13.01.04.17.12.31.2Z"/>
    <path class="cls-3" d="M214.02,122.56c-.3-.17-.48-.39-.49-.47l.49.47Z"/>
    <path class="cls-3" d="M217.68,128.09c.11.27.13.43.08.43-.05-.17-.05-.27-.08-.43Z"/>
    <path class="cls-3" d="M217.53,127.33s.1.17.16.36c-.07-.28-.04.2-.16-.36Z"/>
    <path class="cls-3" d="M218.74,128.06s0-.32.11.04c-.09-.25-.01.45-.11-.04Z"/>
    <path class="cls-3" d="M219.07,127.45s.04.08.04-.02c.06.14.09.39.08.43l-.11-.41Z"/>
    <polygon class="cls-3" points="221.89 124.78 221.85 124.95 221.84 124.61 221.89 124.78"/>
    <path class="cls-3" d="M225.61,124.59c.04-.22.05.32.06.37-.04.04,0-.42-.06-.37Z"/>
    <polygon class="cls-3" points="227.53 122.81 227.52 122.82 227.49 122.12 227.53 122.81"/>
  </g>
  <g>
    <path class="cls-3" d="M202.58,124.72c-.05.04-.26.41-.1.13.11-.16.2-.28.1-.13Z"/>
    <path class="cls-3" d="M209.37,128.4c-.24-1.78.59-.15.55-1.32.01-.08.26.94.27.69-.11-1.4.54-.73,1.16.2l.06.27c.12.17-.06-.72.04-.62.05.18.05.26.13.49-.14-.53.05-.28-.04-.68.09.2.2.62.3.84l-.14-.61c-.31-1.46.28.03.21-.75.03.14.05.25.1.39-.02-.94.31-.86.48-1.25.05.22.15.61.24.84-.17-.64-.14-.82-.1-.96.22.64-.05-.63.13-.29l.03.15c-.14-.7.2.37.01-.46l.19.5c-.24-.93.22.45.14-.03l-.06-.19c-.02-.24.14.22.14.05l.03.11c.03-.27.24.22.03-.49.2.56-.02.29.27,1.11.12-.83.5-.79.83-.9.12.28.17.36.26.63,0-.15.09-.17.01-.54,0,.02.13.36.16.39.14.25-.16-.81,0-.51.03.2.09.43.17.7-.1-.57,0-.51.01-.71.02.12.03.2.1.42-.11-.65.17.1.12-.32l.1.42c.25.47-.22-.87-.04-.6.02.14.07.3.11.47-.13-.78.07-.57.08-.85.02.06.05.17.05.17.03-.05.07-.04.11-.04l.25,1.14c-.06,0-.12,0-.15.21-.07-.18-.15-1.04-.22-.87.14.85-.11.38.09,1.33-.11-.13-.29-.43-.3-.13-.01-.33-.2-1.04-.14-1.12l-.13-.51c-.05-.35.07.11-.01-.33-.03.04-.08.39-.13.26.02.53.11,1.52.02,1.64,0-.34-.17-.94-.16-1.09l.1,1.66s-.11-.67-.13-.44c.04.23.04.37.05.55-.03-.09-.11.24-.26-.6-.07-.33.03-.19-.06-.48-.06.02-.02.31-.09.33l-.02-.11c-.06-.12-.07.38.05.84.03.02-.09-.5,0-.27.05.49,0,.64-.07.66,0-.14-.04-.36-.06-.6.01.68-.05.9-.1,1.19.06.4-.08-.73-.03-.52-.21-.53-.14.83-.37.03,0-.07.1.57.08.45-.07-.04-.15-.62-.16-.4-.06-.34-.03.12-.06.23.02.25-.04-.16,0-.21-.01.3-.16.86-.36.38.04.23.05.84.01.82l-.07-.53c-.08-.31-.09.06-.17-.39.03.65.16-.58.15-.07-.09-.44,0,.86-.08.14-.06.03-.02.63-.16.15.03.08-.06-.74-.11-.69-.07.11.01.25-.03.44v.22c.07.51-.1-.06.02.51-.08-.42-.08.28-.21-.57l-.09-.67c-.03.06.05.71.07,1.02-.01-.06-.04-.19-.06-.3.15,1.02-.1-.07-.02.73-.13-.34-.2,0-.34-.63-.01.32,0,.7-.11.49,0-.1.01-.13-.02-.35-.09-.3-.06-.02-.07.15-.01-.15-.18-.59-.28-.94-.01.32.09.86.14,1.2-.21-1-.07.68-.28-.23,0-.14,0-.51-.08-.76-.21-1,0,.76-.16.29l.15.84c-.12-.51-.05.51-.18-.35.02.31-.15-.26,0,.56-.25-.67-.28.47-.6-.98,0,.14-.07,0,0,.43.1.45,0-.33.06-.02-.01.03.02.25.03.36-.07-.18-.12-.23-.18-.92-.18-.49.11,1.41-.06,1.11-.05-.34-.08-.47-.1-.41l.02.59c-.1-.12-.17-.76-.26-1.34-.03.11-.09.09-.04.52l-.16-.71c.12.52.02.35.02.5v-.14c-.05-.24-.07-.08-.09,0,.06.35.13.49.18.59.02.26-.03.2-.01.5-.08-.56-.13-.39-.18-.44-.06-.12.03.51.02.49-.05-.29-.07-.04-.1-.45,0-.09.07.28.06.02-.06-.21-.14-.72-.13-.34,0,.28.18,1.11.05.76,0-.14-.03-.37-.05-.57l-.12-.28.08.51c-.02-.13-.03-.17-.05-.24.06.54-.09.18,0,.79-.03.06-.13-.34-.18-.4v-.05c-.09-.29-.12-.09-.1.26l-.02-.11s-.07.05-.06.36c-.12-.38-.32-1.93-.28-1.28-.06.03.05.95.13,1.28-.16-.33-.15.53-.38-.25.02.21.05.34.03.46-.19-.18-.24.66-.52-.33.01-.22-.08-.51-.12-.8.03.46-.12-.47-.01.32.08.46.11.69.18.87-.06.26-.2.28-.32-.14.06.21.06.36.06.5-.11-.74-.19-.84-.21-.57l.06.45-.11-.46c0,.15.12.95,0,.52-.03-.17-.07-.35-.09-.48,0,.38.02,1.01-.1.64l-.15-.65c-.01.08,0,.48.08.66-.16-.38-.23-.42-.35-.98.04,1.41-.2,1.51-.42,1.44l-.05-.34c-.1-.31.06.59-.01.37-.03-.32-.15-.69-.17-1.09-.13-.34-.01.6-.04.76.06.44,0-.29.07.27.02.16-.16-.33-.07.34-.06-.26-.12-.75-.15-1.03v.33c-.18-.77-.08-1.42-.29-2.37l-.03.11c-.15-.69,0-.81-.15-1.03,0,.34.11,1.31.2,1.6-.07.2.2,1.6.09,1.56-.09-.39.07-.11-.03-.66-.13-.53-.05.32-.13.13.09.25.15.93.14,1.05-.1-.31-.06-.64-.15-.7.05.39.02.69.12.95.11.88-.12-.23-.06.46-.12-.61-.13-1.44-.27-1.73.11.59.01.83.19,1.7-.06-.17-.14-.63-.17-1-.11-.36.03,1.1-.16-.07l.07.61c-.05-.19-.09-.34-.17-.66-.05,0-.06.85-.18-.07,0,.1-.13.07,0,.7.13.38.03-.48.19.38-.15-.69-.11.11-.13.35l-.05-.35c-.01.14-.09.07-.07.46,0-.21-.04-.45-.07-.53l.03.55c-.1.28-.13-.95-.24-.78l.05-.43c-.01.09-.1-.41-.14-.24.01.5.03,1.1.04,1.49-.06.22-.08-.56-.12-.04l.06-.61c0-.16-.13-.82-.22-.8-.04.18-.12.9,0,1.17-.06.01-.15-.29-.12-.65-.12.18.04.53-.06.85-.06-.33-.22-.8-.3-1.28l.09-.83h-.06c.07-.68-.04-.52,0-1.22-.04-.11-.08.13-.12.31.12,1.13-.15,1.54-.15,2.57-.23.27-.02-2.5-.29-.91.02.27-.13,1.04.02.76-.12-.12-.15,1.02-.28.59.14-.41-.03-1.05.17-1.65-.04.34.06.27.09.17-.02-.4.07-1.03-.03-1.04-.07.09-.16.1-.2.64-.05.59.11-.05.01.54-.17.19-.09-.71-.27.32.1-.07.07.54.02.94l-.15.23.07-.39c-.16-.31-.14.7-.33.56l.02-.78c.13-.65.23.34.33-.74-.1-.06-.21.48-.28.18.04-.09.07-.11.11-.2-.04-.04.15-1.47-.12-.67-.13.31-.09.38-.16.78-.19.08-.33.47-.46.5.19-.77-.18-.13.12-.89-.05.47.23.5.42-.24.1-.94.11.16.29-.77-.12-.05.05-.96.14-1.56-.02-.05-.09.2-.12.28-.12.56-.08.56-.18,1.14-.1-.18-.28.09-.48.61.02-.29.17-.84.23-.88-.18.11-.32-.03-.4-.26-.18.94-.21.14-.39.91.01.24-.1.91-.27,1.3-.04-.08.12-.39.16-.6-.22.46.14-.83-.17-.09.24-.22.38-1.08.63-1.77-.21.35.16-.5.09-.54-.2.34-.41.58-.56.67.15-.74-.25-.22-.36-.28.12-.39.51-1.14.54-1.32-.05-.04-.37.88-.26.44l.08-.15c-.11.15.17-.67-.43.4l.46-.81c.03-.09-.08.09-.13.16.14-.27.27-.54.38-.69.27-.6-.08-.03-.13-.05l-.26.53c-.27.28-.01-.27-.13-.2l.3-.48-.19.23c.29-.45.49-.81.24-.45l.6-.79c-.14.27-.25.35-.51.81-.26.44-.15.39.12-.04.02-.08-.03,0-.14.15.36-.61.32-.47.54-.82-.02,0,.07-.17-.02-.01.16-.22.18-.23.2-.2-.13.17-.18.34-.27.48.27-.46.36-.57.3-.38-.29.6.23-.27.18-.06-.26.49-.49.87-.62,1.02-.11.31.04.02-.08.36.22-.39.5-.94.65-1.14l-.18.39c.12-.15.38-.74.37-.58-.03.27.05.35.09.45l-.15.43c.35-.88.23-.25.4-.63-.03.48.27-.34.14.46.24-.29.4-.62.53-.43l-.08.68c.07-.5,0,.4.04.3,0-.55.09-.71.12-1.13.05.54.17-.04.18-.53l.02.47c.02-.89.11-.11.22.02.03.19.09.63.11.58-.02-.77,0-.71.02-1.2.05,0,.17.17.28.45.08-1.1.47-.46.65-1.14l.1.55c.09-1.21.59-.2.73-.84l.12.94c.12.28.13-.27,0-.93.12.28.11-.48.28.28.1.16.02-.45.07-.58.2.33.25.24.36.05l-.04-.05c.02.21.08.61.12.66.01-.27.23.22,0-.89.25.62.27-.58.55.27-.06-.3-.03-.37-.05-.58.13-.03.36.57.39.03.04.15.05.52.11.55.01-.12-.06-.4-.05-.58.13-.6.52.52.69.34.25-.64.66-.4.98-.55l.03.23c-.02-.87.4.84.28-.47.06.21.12.09.16.52,0-.62.34.53.34-.26-.02-.02-.01.03-.01.13.21.47.21-.22.42.21,0,.1-.01.17.02.4.12.42-.02-.97.17.11.03-.02-.06-.55-.08-.51.36.38.57-.37.85-.66.32.61.29,1.82.35.99.05.21-.05-.42-.02-.19.02-.31.29,1.19.25.62-.12-.66-.03-.38-.09-.78.2.41.32,1.01.35.48l.05.35c-.03-1.01.2-.5.13-1.66.66-.31,1.23-1.05,1.88-1.29h.04s2.11,9.58,2.11,9.58c-.69,0-1.18.65-1.99.26-.41-.85-.42-.82-.48-.41-.04-.15-.03-.18-.08-.32.2.73-.1.1.09.81-.28-.07-.45.2-.7.28.02-.09-.14-.7-.17-.63l.09.48-.07-.2c0,.12.07.49.17.71-.45.82-1.49-.48-2.06-.12-.23-.26-.36.08-.48.27-.75-.84-1.41-1.51-1.69-.69,0,0-.48-1.91-.41-2.41Z"/>
    <path class="cls-3" d="M202.6,124.74c-.16.26-.26.45-.47.74.15-.24.33-.51.47-.74Z"/>
    <path class="cls-3" d="M201.84,129.42c.04-.11-.02.16-.03.23-.03.01-.16.31-.12.11.04-.01.09-.19.15-.34Z"/>
    <path class="cls-3" d="M202.31,129.88c-.09.33-.29.55-.37.55.13-.18.25-.37.37-.55Z"/>
    <path class="cls-3" d="M202.61,131.43c0,.29-.03.45-.11.42.03-.18.07-.26.11-.42Z"/>
    <path class="cls-3" d="M202.79,130.67c.05,0,.04.21.04.4.04-.29-.15.16-.04-.4Z"/>
    <path class="cls-3" d="M204.09,131.8s.11-.31.15.07c-.04-.26-.18.43-.15-.07Z"/>
    <path class="cls-3" d="M204.76,131.27s.03.08.05-.01c.05.15.03.4,0,.44l-.05-.42Z"/>
    <polygon class="cls-3" points="211.49 128.9 211.48 129.07 211.44 128.74 211.49 128.9"/>
    <path class="cls-3" d="M214.38,128.43c0-.22.08.31.09.36-.03.04-.05-.42-.09-.36Z"/>
    <polygon class="cls-3" points="215.68 126.52 215.67 126.53 215.57 125.84 215.68 126.52"/>
  </g>
  <g>
    <path class="cls-3" d="M223.58,120.24c-.1.13-.21.56-.13.24.11-.25.2-.44.13-.24Z"/>
    <path class="cls-3" d="M233.79,122.18c.02,1.78-.3,0-.36,1.14-.01.08-.06-.97-.08-.73-.05,1.39-.34.57-.54-.48v-.27c-.04-.2-.04.71-.08.59,0-.18,0-.26-.02-.51.01.55-.05.26-.05.67-.01-.22-.04-.65-.06-.89v.63c0,1.49-.13-.1-.18.67,0-.15,0-.26,0-.4-.1.91-.25.74-.39,1.07,0-.22,0-.63,0-.87,0,.66-.04.83-.08.96-.02-.68-.06.62-.11.24v-.15c-.03.71-.04-.41-.07.44l-.02-.53c-.02.96-.04-.5-.07-.01v.2c-.03.23-.04-.25-.06-.09v-.11c-.06.25-.08-.28-.09.46,0-.6.06-.27.04-1.14-.19.76-.37.62-.55.62,0-.3-.02-.39-.01-.67-.02.15-.07.13-.1.51,0-.01,0-.38,0-.42-.02-.28-.07.82-.09.48.02-.2.04-.44.05-.72-.06.58-.09.49-.14.67.01-.13.02-.2.03-.43-.07.66-.06-.14-.12.27l.04-.43c-.03-.52-.07.9-.1.59.02-.14.02-.3.04-.48-.09.78-.15.52-.21.78,0-.06.01-.18.01-.18-.06.09-.09-.15-.17.18,0-.19.08-1.05.02-.89-.06.86-.11.35-.15,1.33-.04-.15-.08-.47-.13-.18.05-.33.06-1.05.1-1.13v-.52c.05-.35.03.12.06-.32-.02.03-.1.37-.1.23-.08.53-.19,1.51-.26,1.61.06-.33.07-.95.1-1.1l-.22,1.64s.06-.68.01-.46c-.02.23-.04.37-.07.55,0-.1-.1.21-.03-.64.02-.33.05-.18.06-.48-.03,0-.06.29-.1.3v-.11c0-.13-.09.35-.11.82.01.03.05-.51.04-.26-.07.49-.12.62-.16.63.03-.14.05-.36.08-.6-.12.66-.19.87-.27,1.14-.04.4.1-.73.08-.52,0-.56-.23.78-.2-.05.02-.07-.06.57-.05.46-.03-.05.04-.64,0-.42.04-.34-.04.11-.07.21-.04.25.01-.17.04-.2-.06.29-.26.79-.27.29-.03.23-.15.82-.17.8l.08-.53c.03-.32-.06.04,0-.41-.12.64.21-.53.09-.04.05-.44-.18.83-.07.11-.04.01-.15.6-.11.11,0,.09.13-.73.09-.69-.06.09-.05.25-.11.42l-.05.21c-.07.51-.03-.07-.1.5.05-.42-.11.25.02-.6l.1-.67s-.13.7-.19,1c0-.06.02-.2.04-.31-.15,1.02-.04-.09-.18.7,0-.36-.11-.05-.03-.69-.08.3-.17.67-.17.44.02-.09.04-.12.07-.34.02-.31-.02-.04-.07.13.03-.15.05-.61.08-.97-.08.3-.16.85-.22,1.19.14-1.01-.2.63-.09-.29.04-.14.13-.49.15-.75.14-1.01-.18.74-.15.24l-.13.84c.07-.52-.16.47,0-.38-.07.3,0-.28-.15.53.04-.7-.27.38-.05-1.09-.04.13-.04-.01-.11.41-.07.46.09-.32.04,0-.01.02-.06.25-.08.36,0-.19,0-.25.15-.92.04-.51-.32,1.37-.33,1.04.07-.34.09-.46.06-.42l-.15.57c-.02-.14.12-.77.23-1.34-.04.09-.07.06-.16.48l.11-.72c-.08.52-.09.34-.13.48l.04-.14c.04-.24-.01-.1-.04-.03-.07.35-.07.5-.07.61-.06.25-.07.19-.15.48.12-.56.04-.4.03-.47,0-.12-.13.5-.13.47.06-.29-.03-.06.07-.46.03-.09-.04.28.02.03.03-.22.14-.72.03-.36-.08.27-.22,1.1-.19.74.03-.14.09-.36.14-.56l.02-.3-.11.51c.02-.13.03-.17.05-.24-.12.53-.1.15-.23.75-.03.05.03-.36.03-.42v-.04c.05-.3-.02-.11-.11.22l.03-.11s-.05.03-.13.32c.05-.39.41-1.91.24-1.28-.04.01-.26.92-.32,1.24.02-.36-.24.45-.11-.34-.06.2-.08.33-.13.45-.04-.22-.33.55-.16-.45.08-.21.12-.5.19-.79-.13.45.09-.47-.11.3-.11.46-.17.68-.19.87-.11.23-.19.21-.12-.22-.04.21-.08.35-.13.48.19-.72.18-.84.08-.6l-.12.44.1-.46c-.05.14-.25.92-.17.49.04-.17.08-.34.11-.47-.12.35-.33.95-.26.57l.14-.65c-.03.07-.16.45-.18.64.05-.4.02-.46.15-1.02-.46,1.33-.62,1.34-.71,1.21l.1-.33c.06-.32-.18.57-.14.34.1-.31.17-.69.3-1.06.06-.36-.22.55-.29.69-.13.43.1-.27-.06.28-.05.15.04-.35-.16.3.06-.26.21-.73.29-1l-.12.31c.19-.77.47-1.34.7-2.28l-.05.1c.18-.69.28-.75.29-1-.12.31-.41,1.25-.47,1.54-.1.16-.48,1.54-.52,1.47.1-.39.07-.08.22-.62.13-.53-.14.28-.11.09-.05.25-.26.9-.32,1.02.06-.31.2-.61.18-.69-.12.37-.24.64-.29.91-.27.84.02-.25-.2.4.17-.6.46-1.37.5-1.68-.17.58-.29.77-.53,1.63.03-.17.17-.62.29-.97.08-.36-.39,1.03-.04-.11l-.19.58c.05-.19.09-.34.17-.66-.02-.02-.32.77-.04-.11-.04.09-.08.03-.25.65-.08.38.18-.44-.06.4.19-.68-.08.07-.17.29l.1-.34c-.05.13-.06.05-.18.41.07-.19.14-.43.16-.51l-.18.52c-.13.24.28-.92.19-.78l.16-.39c-.03.08.1-.41.03-.25-.16.47-.36,1.04-.48,1.4-.09.2.16-.54-.02-.06l.22-.56c.05-.15.23-.79.19-.79-.07.16-.33.83-.38,1.1-.02,0,.05-.29.18-.64-.09.15-.16.51-.29.79.08-.32.2-.78.32-1.25l.29-.78h-.02c.24-.64.15-.5.38-1.17.02-.11-.07.11-.14.28-.31,1.08-.54,1.45-.85,2.43-.15.24.76-2.38.18-.88-.08.26-.36.99-.22.72,0-.12-.36.97-.27.55.17-.39.3-1,.55-1.56-.11.32-.06.25-.02.16.11-.38.34-.98.3-.99-.05.09-.09.09-.26.6-.19.56.06-.05-.15.51-.12.18.17-.67-.19.31.06-.06-.13.51-.26.89l-.12.22.13-.37c.03-.29-.25.66-.27.54l.23-.74c.23-.62-.02.31.33-.72-.02-.06-.21.46-.16.18.04-.08.05-.11.1-.19,0-.04.46-1.4.13-.62-.13.3-.14.36-.27.74-.1.1-.25.48-.31.52.27-.74-.04-.1.27-.84-.14.44-.04.43.23-.27.29-.89,0,.14.33-.75-.04-.04.27-.91.47-1.48,0-.04-.09.19-.13.28-.18.54-.18.53-.37,1.09,0-.16-.15.12-.36.63.08-.27.28-.8.31-.85-.11.14-.15.04-.14-.14-.29.88-.14.18-.38.92-.04.21-.24.84-.41,1.22,0-.06.14-.38.2-.57-.2.47.24-.78-.06-.03.16-.26.4-1.06.67-1.74-.18.37.18-.48.15-.5-.18.37-.34.65-.43.78.19-.67-.13-.06-.18-.06.11-.35.42-1.11.45-1.26-.04,0-.3.84-.21.47l.06-.15c-.08.17.12-.55-.32.54l.34-.83c.02-.08-.06.11-.1.19.11-.27.19-.52.28-.69.2-.58-.09.07-.13.08l-.18.5c-.2.36-.04-.13-.16.02l.2-.48-.14.27c.2-.46.29-.77.12-.39l.55-1.14c-.09.29-.26.57-.43,1.05-.16.42-.06.3.13-.15,0-.06-.04.05-.12.21.26-.67.28-.63.47-1.07-.02.02.05-.18-.04.03.15-.32.18-.36.22-.37-.12.25-.15.42-.24.6.24-.59.33-.76.3-.58-.24.69.23-.41.2-.21-.25.59-.46,1.06-.58,1.29-.09.31.03,0-.06.31.19-.44.46-1.12.6-1.38l-.17.44c.12-.21.37-.87.36-.73-.02.24.04.27.07.34l-.16.44c.38-.94.22-.32.41-.73-.09.45.28-.38.04.4.23-.3.43-.6.49-.4l-.24.64c.18-.47-.11.38-.06.29.15-.53.26-.67.4-1.06-.12.52.13,0,.32-.45l-.15.45c.32-.83.13-.07.14.08-.05.19-.18.61-.15.57.26-.72.26-.66.44-1.1.03.01.02.21-.03.5.43-.99.35-.3.65-.89l-.14.54c.44-1.11.29-.03.55-.59l-.25.91c-.04.29.14-.22.3-.87-.04.29.19-.43.02.33-.01.18.15-.41.2-.53-.03.36.02.29.12.14v-.06c-.06.2-.15.59-.15.65.08-.25.02.27.27-.84-.09.65.27-.49.13.39.06-.3.09-.36.15-.56.06,0-.02.63.13.12-.02.15-.13.51-.11.55.04-.11.09-.39.14-.56.21-.54.05.62.17.49.26-.56.35-.23.51-.3l-.04.22c.2-.85-.05.89.22-.39-.03.22.02.11-.06.54.14-.6,0,.59.19-.17,0-.02-.01.02-.03.12-.03.5.13-.17.12.29-.02.1-.04.16-.08.39-.04.43.2-.94.05.15.01,0,.09-.54.08-.51.06.44.31-.23.47-.46,0,.66-.24,1.83-.05,1.03-.02.21.06-.42.03-.19.07-.3-.11,1.22-.01.65.08-.67.06-.37.11-.78,0,.44-.05,1.05.05.54l-.05.35c.17-.99.18-.45.35-1.59.32-.17.64-.79.92-.9.26.24.54-.27.79.35.04.93.05.91.13.53,0,.15-.01.18,0,.33.01-.76.05-.07.07-.8.1.14.2-.06.3-.07-.02.08-.02.71,0,.66l.02-.49v.21c.02-.11.03-.49.01-.73.24-.66.53.87.8.66.08.32.15.02.21-.14.26,1,.53,1.8.68,1.08,0,0,.16,1.97.1,2.43Z"/>
    <path class="cls-3" d="M223.65,120.18c-.14.36-.19.56-.4,1.02.13-.33.28-.71.4-1.02Z"/>
    <path class="cls-3" d="M222.95,124.13c.04-.11-.04.15-.06.21-.02.02-.14.32-.08.13.02-.02.08-.19.14-.34Z"/>
    <path class="cls-3" d="M223.08,124.41c-.12.32-.26.56-.3.58l.3-.58Z"/>
    <path class="cls-3" d="M222.81,125.8c-.08.28-.13.42-.16.41.06-.17.1-.25.16-.41Z"/>
    <path class="cls-3" d="M223.08,125.08s-.04.19-.1.38c.1-.27-.1.16.1-.38Z"/>
    <path class="cls-3" d="M223.2,126.16s.13-.28.02.08c.07-.25-.19.39-.02-.08Z"/>
    <path class="cls-3" d="M223.57,125.74s-.02.08.02,0c-.04.15-.12.38-.15.41l.13-.41Z"/>
    <polygon class="cls-3" points="227.59 125.33 227.54 125.49 227.6 125.16 227.59 125.33"/>
    <path class="cls-3" d="M229.21,125.54c.04-.21-.02.32-.02.37-.02.03.05-.42.02-.37Z"/>
    <polygon class="cls-3" points="230.2 123.92 230.2 123.93 230.25 123.24 230.2 123.92"/>
  </g>
</svg>