<?xml version="1.0" encoding="UTF-8"?>
<svg id="Layer_3" data-name="Layer 3" xmlns="http://www.w3.org/2000/svg" viewBox="0 0 300 300">
  <defs>
    <style>
      .cls-1 {
        fill: #202020;
      }

      .cls-2 {
        fill: #b51a25;
      }
    </style>
  </defs>
  <g>
    <path class="cls-2" d="M174.77,99.62h0c-2.16-2.11-2.09-5.46.16-7.45l8.98-7.92c2.25-1.98,5.86-1.88,8.03.23h0c2.16,2.11,2.09,5.46-.16,7.45l-8.98,7.92c-2.25,1.98-5.86,1.88-8.03-.23Z"/>
    <g>
      <path class="cls-1" d="M173.77,100.4c.15.04.23-.09.27-.17.02-.04.03-.07.04-.06,0,0,0,.02,0,.05,0,.01,0,.03,0,.05v.03s0,.02,0,.02h0s0,.02,0,.02h0s0,0,0,0h0s.69-.71.69-.71l-.7.72h0s-.01.01-.01.01l-.02.02-.04.03-.07.05s-.09.05-.12.06c-.06.02-.08,0-.04-.11Z"/>
      <path class="cls-1" d="M174.79,100.78c.85-.48,1.13-.29,1.48-.03.32.25.72.57,1.22.11.1-.05-.26.94,0,.76.54-.59.95-.67,1.42-.51.47.18,1.03.57,1.67.98v.28c.26.15.25-.81.47-.73.06.17.02.27.14.49-.12-.53.28-.37.2-.78.15.17.31.58.51.75l-.14-.62c-.17-.75-.02-.8.21-.78.22,0,.52.05.47-.38.07.13.1.24.21.34,0-1.12.61-1.49.94-2.21.13.18.37.5.57.66-.41-.52-.36-.79-.3-1.01.51.45-.17-.68.24-.54l.09.13c-.35-.64.45.15-.01-.58l.43.33c-.58-.76.5.21.28-.24l-.13-.15c-.06-.26.31.06.29-.14l.08.08c.04-.37.51-.08.01-.63.47.38-.02.38.67.93.17-1.18.97-1.68,1.65-2.29.28.16.39.18.59.38-.03-.17.17-.33-.02-.67-.01.03.3.25.36.24.31.1-.41-.73-.05-.6.08.2.22.39.42.59-.27-.54-.05-.61-.04-.87.06.11.08.2.24.37-.29-.63.37-.14.22-.57l.24.37c.56.2-.53-.73-.14-.66.05.14.17.25.28.39-.35-.74.1-.79.1-1.14.03.05.11.14.11.14.12-.24.48-.23.46-.66.2.08.67.81.76.52-.58-.64.1-.56-.66-1.19.26-.04.74-.03.66-.35.14.31.78.72.69.9l.45.3c.22.28-.19,0,.14.31.04-.08.03-.54.2-.51-.22-.52-.85-1.29-.8-1.53.19.3.79.54.85.7-.34-.45-.71-.87-1.12-1.26,0-.08.57.37.45.15-.2-.12-.29-.23-.43-.35.11.03-.07-.33.71.03.32.12.1.2.41.26.06-.15-.18-.27-.15-.41l.11.04c.16-.05-.23-.39-.71-.47-.05.04.49.16.22.16-.44-.24-.51-.4-.5-.51.12.08.34.14.57.23-.59-.37-.76-.54-1.02-.72-.4-.07.72.18.5.17.29-.05.13-.21-.04-.32-.16-.12-.28-.19.12-.28.07.03-.58.01-.46.01.05-.08.64-.1.42-.16.34-.02-.1-.08-.22-.13-.25,0,.16-.03.21.02-.15-.04-.38-.12-.49-.21-.14-.09-.15-.19.05-.36-.22.06-.83.16-.81.13l.51-.17c.29-.15-.09-.11.32-.29-.63.14.65.16.14.21.4-.19-.85.12-.17-.11-.06-.09-.64.11-.22-.19-.07.06.69-.25.63-.32-.15-.09-.25.08-.46.07l-.22.05c-.45.26,0-.13-.46.22.36-.25-.3.03.41-.46l.56-.38c-.09-.03-.64.33-.9.49.05-.04.14-.14.23-.21-.8.64-.01-.16-.66.32.2-.32-.14-.2.24-.71-.28.17-.56.42-.5.19.07-.07.11-.08.25-.25.13-.28-.05-.08-.2.03.1-.11.24-.58.34-.94-.26.21-.5.71-.69,1,.22-.46.08-.36-.06-.23-.14.13-.27.28-.13-.16.08-.12.35-.39.38-.66.31-.97-.48.6-.43.1l-.26.81c.12-.51-.33.4-.05-.41-.13.27-.08-.31-.29.49,0-.36-.16-.3-.28-.3-.12-.02-.2-.12-.22-.86-.05.14-.13-.01-.13.41.03.46.1-.32.1,0-.03.02-.05.25-.07.36-.05-.19-.12-.26,0-.94-.19-.53-.22,1.41-.39,1.08,0-.34-.03-.47-.08-.42-.03.2-.04.4-.06.6-.12-.12-.16-.77-.22-1.34-.07.11-.18.09-.14.53l-.22-.7c.17.5,0,.36,0,.5v-.15c-.06-.24-.12-.07-.15,0,.1.34.22.47.28.57.02.26-.05.21-.02.51-.12-.56-.2-.36-.27-.4-.1-.1.09.51.07.49-.09-.28-.1-.02-.19-.43,0-.09.14.26.09,0-.1-.2-.27-.69-.23-.3.03.29.39,1.05.17.76-.03-.14-.1-.36-.15-.56l-.22-.23.19.48c-.06-.12-.07-.16-.1-.22.18.51-.1.22.15.79-.01.07-.25-.27-.32-.3v-.04c-.22-.24-.2-.01-.05.31l-.06-.1s-.07.09.07.36c-.29-.28-1.17-1.57-.87-.97-.08.09.48.83.71,1.07-.09-.04-.11-.05-.15,0-.04.06-.07.15-.1.22-.07.15-.17.25-.54.04.11.18.21.27.23.41-.45.12-.26,1.05-1.18.5-.05-.24-.34-.39-.53-.61.23.41-.41-.28.09.34.32.34.46.52.67.59-.02.35-.31.61-.7.37.2.12.25.26.3.4-.48-.57-.69-.53-.62-.25l.29.36-.38-.29c.06.14.59.75.19.52-.12-.13-.25-.26-.35-.34.14.37.4.98.03.8l-.54-.41c0,.1.18.47.39.54-.47-.12-.63-.05-1.07-.42.58,1.36.12,1.84-.35,2.12l-.21-.27c-.32-.14.34.5.11.39-.18-.27-.55-.46-.73-.83-.39-.13.19.62.19.82.28.35-.11-.29.25.16.09.14-.44-.07-.02.46-.21-.16-.51-.57-.67-.79l.12.33c-.64-.49-.67-1.29-1.44-1.92l-.02.16c-.55-.46-.3-.8-.68-.79.13.33.69,1.14.98,1.29-.07.31.98,1.29.73,1.44-.32-.25.11-.22-.3-.6-.46-.32,0,.41-.21.34.27.1.64.69.65.84-.32-.14-.35-.54-.55-.46.23.32.29.66.59.76.53.71-.32-.04.05.54-.46-.42-.8-1.22-1.17-1.31.43.43.33.8,1.01,1.39-.18-.07-.5-.42-.7-.74-.34-.19.5,1.02-.32.16l.37.49c-.16-.12-.3-.2-.57-.41-.09.07.28.86-.32.16.04.1-.18.23.32.65.38.19-.18-.47.46.12-.55-.46-.11.22-.02.46l-.25-.26c.05.14-.09.16.14.48-.11-.18-.28-.35-.37-.39l.32.45c.02.35-.67-.68-.73-.43l-.16-.42c.03.09-.36-.24-.32-.05.29.4.64.9.87,1.21.05.24-.41-.39-.16.08l-.28-.55c-.09-.14-.62-.55-.73-.43.04.2.39.84.69.94-.06.06-.34-.09-.53-.41-.02.25.37.39.46.72-.27-.21-.73-.43-1.14-.71l-.43-.73-.09.07c-.34-.59-.39-.34-.8-.92-.13-.03-.04.21.03.39.92.7.82,1.33,1.58,2.03.17.23-1.78-1.75-.73-.54.21.17.75.73.57.5-.12-.05.75.71.42.44-.3-.3-.83-.63-1.26-1.08.26.23.22.13.16.05-.31-.24-.76-.7-.83-.62.03.12-.01.2.42.51.47.36,0-.1.45.3.11.18-.63-.32.21.3-.04-.09.45.27.77.51l.19.16-.32-.23c-.25-.12.59.41.49.35-.22-.13-.45-.26-.67-.38-.57-.35.29.11-.62-.48-.07.03.38.32.13.22-.08-.05-.1-.08-.17-.14-.04-.02-1.31-.67-.62-.18.27.19.34.18.71.36.07.12.46.3.5.35-.75-.28-.1.05-.85-.27.46.12.43.03-.23-.33-.87-.37.16-.02-.67-.49-.07.1-.91-.31-1.47-.55-.06.03.14.18.22.25.52.25.53.19,1.07.43-.19.08.03.34.56.56-.28-.05-.82-.22-.86-.3.11.23,0,.37-.21.53.93.03.19.21.98.22.21-.06.88.01,1.29.09-.07.01-.4-.06-.61-.07.5.09-.81-.02-.02.09-.3-.12-1.13-.12-1.86-.2.4.17-.52-.05-.53.1.38.18.73.33.88.44-.67.24.05.45.11.55-.34.17-1.15.33-1.25.48.06.12.82-.34.52-.06l-.16.03c.2-.02-.4.55.72.13l-.85.3c-.06.07.15.02.24,0-.27.12-.49.27-.69.28-.49.38.21.24.31.34l.42-.33c.48-.02.09.39.39.46l-.42.3.33-.07c-.42.27-.59.59-.21.39-.4.17-.82.31-1.27.42.17-.28.59-.25.96-.61.32-.3.09-.39-.35-.17,0,.11.1.06.29.01-.58.43-.63.29-1.08.47.05.03-.09.22.11.11-.35.09-.47.01-.58-.15.31-.02.35-.28.56-.33-.56.3-.83.21-.78-.09.59-.44-.63-.24-.54-.62.65-.08,1.17-.13,1.47-.09.25-.25-.07-.15.18-.4-.47.09-1.2.26-1.54.1l.45-.13c-.28-.13-.96.02-.9-.3.14-.53.11-1.01.17-1.37h.47c-.99-.23-.34-.68-.72-1.01.26-.2.2-.47.21-.71,0-.24.04-.46.47-.42-.05-.88.07-1.8.82-2.38l.43.56c-.29-.44.36.18.37.01-.52-.25-.39-.63-.59-1.01.7.06.54-.57.43-1.11l.32.35c-.39-.84.36-.46.7-.57.16.12.5.42.53.31-.37-.69-.27-.71-.39-1.24.14-.13.5-.19.84-.09-.17-1.28.83-1.25.96-2.22l.41.38c-.24-1.37,1.13-1.15,1.19-2.01l.58.75c.34.09.17-.48-.32-.95.34.09.06-.67.67-.16.26,0-.11-.49-.07-.69.54,0,.59-.15.75-.53l-.11.02c.11.18.37.49.48.47-.07-.29.55-.15-.3-.9.73.23.35-1.01,1.22-.61-.23-.21-.2-.32-.3-.5.13-.12.36-.12.55-.17.28-.11.5-.26.53-.62.17.07.2.51.4.4.04-.18-.24-.33-.19-.57.24-.51.77-.66,1.28-.68.52-.04,1.02.05,1.38-.15,1.25-1.03,2.95-.89,4.34-.78l-.05.22c.29-.39.55-.13.77.09.23.23.42.39.79-.18.05.23.39.24.17.62.27-.23.49,0,.7.22.22.23.43.44.86.22-.03-.05-.08-.02-.18.05.24.69,1.02.36,1.23,1.09-.11.04-.23.04-.38.21-.1.46,1.01-.45.4.49.1.07.42-.36.34-.39.34.57.83.96,1.36,1.42.55.44,1.11.96,1.52,1.58-.24,1.19-1.69.71-.67,1.14-.18.12.41-.08.2,0,.39.21-1.07.73-.47.77.64-.22.4.04.8-.03-.32.67-.92.8-.37,1.19h-.35c.51.2.64.5.76.78.12.28.26.56.79.88-.12,1.62-.57,3.26-1.47,4.7-.39.69-1.16,1.5-1.31,1.74-.28.36-.57.7-.89,1.02-1.47,1.01-2.43,2.54-4.18,3.27-.93-.42-.94-.38-1.04.21-.09-.13-.09-.17-.2-.26.49.59-.2.27.25.85-.59.33-.91.89-1.42,1.35.03-.13-.34-.64-.41-.51l.22.45-.16-.14c0,.14.19.49.42.61-.21.41-.52.71-.87.96l-.38.26c-.17.11-.35.22-.52.32-.36.2-.73.35-1.1.5-1.52.54-3.01.62-4.4.85-.69-.24-1.62.03-2.39.08-1.03-.65-1.82-1.39-2.57-2.01-.75-.63-1.48-1.15-2.47-1.61,0,0,1.58-1.21,2.32-1.21Z"/>
      <path class="cls-1" d="M173.5,100.22c.24-.3.29-.55.77-.79-.26.24-.5.58-.77.79Z"/>
      <path class="cls-1" d="M175.81,95.82c-.11-.01.16-.02.22-.02.03.03.35.06.15.07-.03-.02-.21-.03-.37-.05Z"/>
      <path class="cls-1" d="M176.11,95.39c.33.1.56.23.6.28-.21-.08-.41-.17-.6-.28Z"/>
      <path class="cls-1" d="M177.52,95.61c.27.12.4.19.39.19-.16-.08-.24-.12-.39-.19Z"/>
      <path class="cls-1" d="M176.83,95.25s.19.06.36.14c-.26-.13.14.12-.36-.14Z"/>
      <path class="cls-1" d="M177.95,95.42c.02-.05-.09-.34.2-.08-.21-.16.1.48-.2.08Z"/>
      <path class="cls-1" d="M178.33,94.4s.09.03.05-.06c.15.08.26.31.25.36l-.3-.3Z"/>
      <polygon class="cls-1" points="189.13 85.66 189.01 85.79 189.14 85.48 189.13 85.66"/>
      <path class="cls-1" d="M190.86,88.82c.19.11-.32-.06-.37-.06-.02-.05.4.14.37.06Z"/>
      <polygon class="cls-1" points="190.31 92.1 190.32 92.08 190.78 92.6 190.31 92.1"/>
    </g>
  </g>
  <g>
    <path class="cls-2" d="M221.17,219.03s59.55,3.78,54.07-9.6c-10.4-25.39-59.47-90.91-102.82-114.51-56.28-30.64-149.92-5.59-147.98,11.7,1.17,10.45,11.38,22.53,11.38,22.53,0,0-5.86,9.5-6.71,24.07-.8,13.75,53.99,5.49,107.49,19.42,43.56,11.34,84.57,46.39,84.57,46.39Z"/>
    <g>
      <path class="cls-1" d="M222.81,216.59c-2.3.19,1.16,1.26-1.52.45.33-.53.8-.92,1.52-.45Z"/>
      <path class="cls-1" d="M216.22,212.83c-2.02-.46-3.92-1.3-5.71-2.41-1.82-1.07-3.55-2.41-5.32-3.75-3.51-2.68-7.09-5.48-11.14-6.75-.89-.38,1.26-1.5-.83-2.27-2.06-.47-4.17-1.36-6.38-2.41-2.2-1.06-4.41-2.45-6.67-3.85-4.46-2.91-8.95-6.29-12.89-9.35l.77-.24c-1.53-1.15-4.35-.46-6.02-1.51.13-.34.78-.21.57-.86-.88.76-3.48-.94-4.57-.51-.55-.69-.14-1.47-.9-2.3l-1.52.73c-1,.39-1.93.39-2.83.18-.92-.18-1.81-.57-2.73-1.02-1.84-.88-3.75-2.07-6.01-1.96.28-.22.76-.32.52-.68-1.78-.05-3.61-.26-5.47-.56-1.85-.33-3.76-.68-5.69-1.03-3.86-.71-7.8-1.48-11.59-1.87.38-.38.81-1.11.47-1.69-.62,1.22-2.98,1.11-5.02,1.02-.67-1.5-3.63.63-5.86-.47l.25-.27c-1.95,1.14-2.46-1.2-4.12.29l-.96-1.21c-1.02,1.79-2.39-1.32-3.96-.54v.4c-1.42.29-2.01-.74-3.31-.58l-.09-.23c-3.02.16-4.63-1.07-4.71.41-.91-1.3,2.93-.23,1.48-2.13-9.94.46-19.98-.54-29.87-1.17-1.08-.67-1.78-.9-2-1.48-1.01.23-3.73.02-4.69.71.33,0-.58-.8-1.1-.92-1.75-.69-2.09,1.49-4.01.66.82-.33,1.12-.79.9-1.36-1.77,1.02-4.01.65-6.04.82.34-.22.83-.32.8-.79-2.31,1.1-3.93-.7-5.93-.13l.83-.76c-2.89-1.46-1.16,1.67-3.72.63.68-.16.51-.53.68-.86-1.35.57-3.03.53-4.68.25-1.71-.29-3.49-.87-4.89-1.28.22-.02.32-.23.32-.23-1.39-.58-2.68-1.46-3.6-2.73-.45-.63-.79-1.36-.98-2.12-.21-.76-.22-1.55-.36-2.36.25-.72.88-.61,1.36-.91.39-.22.66-.64.68-1.85-.44,0-.66-.3-.78-.78-.13-.45-.15-1.02-.16-1.55-.03-1.05-.13-1.92-1.23-1.23.68-2.48,2.29-6.14,2.26-7.9.29,1.26,2.37-.51,1.91,1.47.47-.39.97-.76,1.45-1.13.61.43-.7,1.4.3,1.21.21-.95.52-3.91,1.13-4.63-.09-.88-.32-1.84-.53-2.66-.27-1.02-.53-1.93-.28-2.9.07-.09-.09-.17-.18-.26-.1-.09-.21-.19-.3-.3.75.4,1.21.23,1.54-.03.17-.13.3-.27.46-.34.12-.06.25-.05.46.14-.55-.34-1.29-.61-1.91-.86-.64-.24-1.24-.45-1.81-.62-.61-.18-1.17-.32-1.7-.41-.24-.27.02-.48.22-.72.21-.22.32-.49-.29-1-.33.32-.94-.06-1.5-.26-.07-.41-2.72-3.54-1.42-4.79.36-.72,1.14,1.3,1.11,0-.95-1.65-1.49-1.46-2.37-3.18l.19-.13c-.14-.64-.72-1.39-1.25-1.84-.53-.44-1.09-.54-1.25.31.3.88.8-.71.88.72-1.28-.43-2.44-2.56-3.04-4.6.45.63.88.39,1.42.53-.25-.25-.49-.52-.69-.81l-.31-.44-.32-.55c-.44-.75-.73-1.55-1.04-2.4-.29-.95-.53-1.97-.5-3.01-.02-1.05.24-2.09.54-3.14-.36-.19-.18.32.04.88.2.56.51,1.16.23,1.38,1.18-2.2,2.31-4.3,3.85-6.3.39-.52.77-.92,1.1-1.3.35-.39.72-.71,1.1-1.01.76-.6,1.59-.99,2.5-1.1-.37.41-.88-.8-.72-.63,1.69-.97,2.22.11,3.05-.89.44.53,1.21-.94,2.23-1.7.35-.73.44.15-.48.71.62-.66,2.37-2.03,4.51-3.18,2.13-1.17,4.65-2.16,6.65-2.34-.23-.41,1.72-2.38,2.6-2.61v1.12c.97.35,2.83-1.01,3.24-.17.72-.89-.96-.11-2.52.74-1.56.84-3.01,1.73-1.96.83.9.61,2.87-2.74,2.8-1.19,1.68-.58,3.01-2.23,4.93-1.73-.53-.03-.98,1.81.37,1.35,2.37-.85.55-.68,2.43-1.56l1.13-.74c-.17-1.02,2.23-.42,1.04-1.31.5.75,3.47-1.37,3.6.38l-.04,1.39c1.03-.33,1.42-1.77,2.14-2.55.17.09.5.3.49.53-.25-2.06,2.58-.36,3.55-2.16,2.38.26,5.76-.95,7.03.17,1.63-.88,3.13-1.86,5.18-1.66-.37.24-.91.37-.96.83,1.32.45,1.56-.15,2.66-.61-.22.34,2.64.9,4.08,1.51,1.66-.79.97-1.84,1.08-2.54,1.76,1.89,4.82-1.74,6.95,0-.59.31-2.46,1.18-.99,1.58,1.7,1.94,3.1-1.71,5.72-.82l-.7-1.67c1.18.99,3.77-1.1,3.55.63.85-.65,3.04.51,2.74-1.14,2.13.67,4.7.48,7.08.52,2.37.04,4.55.33,5.76,1.88.62-.24,2.11.13,1.85-.74-.95-.99-1.45.58-1.78-.07.55-.02.69-.47.76-.69,1.3.45,2.31.66.99,1.94,2.82,1.23,3.22-2.6,6.91-1.58-.24.66.01.95,1.11.97.73-.31,1.47-.63,2.21-.92,2.38.58,1.16,1.72,1.07,2.88,1.3-.05,2.84.27,3.55-.51l1.31,1.69c-.95-1.23,1.15-.51,1.8-.69l-.65.18c.15.52,1.66.47,2.43.48-.04-.75-1.48-1.31-2.27-1.65.74-.39,1.74-.1,2.71-.52-.5,1.07,1.93,1.18,2.91,1.53,1.1.49,1.52-.71,1.86-.6-.1.57,1.87.53.78,1.13-.43.08-.77-.76-1.54-.4.67.6.35,1.56,2.09,1.21,1.32-.26.22-2.26,2.31-1.01-.67.13-.88.55-1.44.83.66.36,1.31.72,1.95,1.1l.35-.98c.22.33,0,.36.09.53.91-.9,3.29.54,4.1-.48,1.1.2,2.03,1.36,2.99,1.79l-.22.02c1.04.96,2.77,1.15,4.03.85l-.13.19c.64.3,2.25.76,3.3.5,1.39,1.38-.89,3.85,1.4,3.38,1.66.63,3.34-.61,2.94-1.53,1.36.97,3.05,1.5,4.66,2.15,1.59.67,3.16,1.42,4.03,2.92.6-.13.48-.51,1.43-.22,1.95,1.4,4.28,2.44,6.4,3.59,2.03,1.26,3.83,2.65,4.78,4.56-1.37-.43-.67.8-.99,1.29,1.45-.12.54,1.55,1.8.49.45-.82.82-1.13-.06-2.2,1.28.62,2.88,1.48,4.1,2.54,1.24,1.03,2.25,2.11,2.59,2.93-.34-.82.3-.68.96-.52-1.08,1.05.39,2.5,1.95,3.05l.75-.57.2,1.35c.66.15,1.75-1.07,2.35.62-.17.32-.33.65-.28,1.04,1.69.48,4.24,1.03,5.05,2.76l.2,1.93c.66.38,2.14.61,1.4-.54.88,1.26,1.6,2.28,2.12,3.14.52.86.83,1.58.78,2.32,1.4.36,2.8.95,4.18,1.7,1.38.75,2.74,1.64,3.98,2.69,2.52,2.06,4.86,4.46,6.87,6.66l-.62.35c.63,1.6,1.43-.22,1.84.93-.82.07-.21,1.86-1.63,1.49,1.01,2.16,2.85,1.34,4.08,2.23.81-.44-1.23-.49-.2-1.05.41-.03,1.62,2.79,2.87,2.14,0,.78-1.05,1.12-1.66,1.26l1.43.58c-.03,2.3-4.71-.94-4.95,1.68l1.02.79c-.24,1.84-3.45-1.38-1.66,1.27,1.42.56,3.69.12,3.3-1.19,2.22,1.88,3.3-1.16,5.27,1.26-.04,1.17-1.78-1.76-2.22-.56.14,1.83,2.39,1.82,2.95,3.05-.56-1.43,1.27-1.4,2.08-.85.56,1.62-1.64.06-.28,1.85.83-.23,2.64.95,1.88-.75,1.88-.53,1.18,2.09,3.01,2.14-.48,1.36-3.69.09-2.58,2.38.67-1.08,3.19,1.31,3.73-.85.35.98-.31,1.66-1.33,1.58.31,1.54,3.83,1.21,2.27,3.07l1.25-.41c-.03.59.13,1.26.06,2.22.38.48,1.33.98,1.99,1.49.65.53,1.01,1.07.25,1.6.39.19,2.03,2.44,2.38.8-.45-1.86-1.96-.99-1.19-2.83-.36,1.85,1.68,1.86,2.67,2.37l-.46.57c.59.3,1.31,1.48,2.15,1.31-.61-.11-.85.38-.69.86l1.25-.17c1.93,1.59-1.17,1.62.53,3.29l-1.77-.9c.38.2.07,1.45,1.02,2.14,1.06-.25,2.5-.3,3.34-.45,1.14.82-.55,1.15,1.05,1.6l-1.98-.67c-.41-.01-.63,1.92.43,3.33.95.71,3.16,1.29,2.53-.48.54.72.79,2.08-.22,1.93,1.47,1.43.71-.84,2.25.21-.1.95.4,3.34.37,4.99l-2.39-.54.67,1c-1.98-.51-.39,1.23-2.04,1.32.28.8,1.24,1.34,1.99,1.78.49-3.26,4.07.47,5.38-1.26,2.36,2.43-2.97,4.47,1.6,5.61.14-.77,2.34-.25.7-1.69.94,1.87,2.5.06,3.12,2.6-1.7-1.07-.7,2.75-3.15,1.22.67-.22-.35-1.5-.74-1.73-.2,1.14-1.83.98-.69,2.75.86.97,1.85,2.42,2.62,1.64.97-.67-1.17-1.59.28-1.53,1.76,1.94.42,3.27,2.76,3.1-.98-1.33-.16-2.32.54-2.72l1.41,1.4-.86.09c1.1,2.94,1.68.05,3.04,2.75l-.62,1.99c-1.51.06-1.72-4.04-3.3-2.47.91,1.7,2.19,1.7,2.64,3.55-.37-.26-.7-.71-1.07-.95.28.66-1.81,2.6.95,4.23,1.25.95.86-.03,1.58-.39.43.67.82,1.19,1.19,1.64.18.22.36.42.53.61.09.09.17.18.25.27.09.09.22.27.32.39.22.28.43.54.64.8.21.29.41.59.61.9.39.62.78,1.29,1.18,2.09-.99-.14-.28,1.38.12,2.38.16.86.2,1.3-.82.08-.04,0-.11-.07-.19-.15.15-.77-.58-2.92-1.64-4.94-.26-.44-.58-.94-.83-1.28-.22-.27-.44-.52-.68-.74-.47-.43-.95-.73-1.42-.8-1.11,1.89-.93-2.29-2.9-1.95,1.14,2.21-.54,2.99-1.42,3.91.24.63,1,.97,1.36,1.23,1.15-.28.71-1.05,1.72-1.65.21.52.44,1.01.72,1.5.33.6.7,1.18,1.07,1.79.72,1.2,1.52,2.3,2.36,3.26.34.5.67.93,1,1.31-.24,1.22-1.54.74-2.07-.51.4.96.78,1.96,1.13,2.97.25.98.28,2.03.02,3.05-.56,2.08-2.19,3.59-3.88,4.54.88-.06,1.14.06,1.04.32-.09.26-.53.65-1.04,1-.99.72-2.31,1.33-.91,1.52,1.2-.37,2.45-.68,3.36-.78.9-.09,1.52.09,1.3.82-1.37.94-.6-.56-1.44-.41-.41.93-1.41,1.09-2.32,1.19-.47.05-.91.1-1.28.28-.38.16-.71.44-.95.99,1.01-.58,1.43-1.03,1.51-1.38.1-.34-.13-.58-.46-.79-.67-.42-1.72-.8-1.88-1.53-.98.86-1.14.62-1.31.3-.18-.32-.42-.7-1.59-.33-.98.73-2.35,1.46-3.73,2.04-1.18.55-2.42.99-3.6,1.33-3.2-.91-7.6.83-10.28,1.03-1.43-.66-.58-2.35-2.09-2.56-1.75.11,1.39,1.72-1.25,1.08l.24-.34c-.78.43-4.78-.96-5.5,1.41l.77-1.8c-.49-.15-.93.26-1.32.46-.03-.58-.6-1.1.18-1.49-1.6-1.2-3.33.23-5.07.28l1.11,1.05c-2.98.83-4.96-.24-7.83.06l.11-1.03-1.72.57c.44-.99-1.09-1.68-2.02-.87l4.48-2.4c1.21.64-1.36,1.22-.62,2.25.63.9,3.3.68,3.73-.32-1.01-.13-1.06.1-1.85.46-.31-1.44,1.23-1.36,1.99-2.31-.53.05-1.27-.4-1.39.06,1.04-.69,2.09-.78,3.81-.81-1.17.56.63.89.19,1.3.14-1.27,1.78-1.65,3.9-1.32,1.54,1.44,3.97-1,6.41-.7-.94,1.32-2.19,2.39-3.68,2.94,1.57.61,1.73-.08,3.31.51.72-.99,1.2-2.46,3.16-3.15l.16.94c1.8-.59,1.7-1.98,4-1.9,1.97.07,3.95-.03,5.8-.22.92-.09,1.8-.21,2.64-.34.73-.12,1.42-.24,2.06-.34l.39.88c.34-1.12,1.14-1.51,2.08-1.91.92-.38,2.01-.82,2.13-1.6.55-.18.99-.53,1.23-.98.25-.45.25-1,.09-1.5-.15-.5-.46-.93-.68-1.34-.23-.41-.41-.78-.51-1.13-.13-.47-.12-.9.13-1.34-.34-.56-.7-.96-1.14-1.62-.46-.68-.92-1.35-1.37-2.02-.45-.67-.89-1.33-1.33-2l-1.39-1.97c-.92-1.32-1.81-2.66-2.67-4.06-.89-1.39-1.81-2.81-2.69-4.34l1.8.25c-1.54-.52.22-1.12-.63-2.06-.15,1.8-2.13-.67-3.3-.94-.88-3.19-4.16-5.87-6.51-7.59l.71-.64c-3.11-1.24-3.83-4.85-5.68-7.86.06-.55.38-1.6-.35-2.36-2.38-.58-2.91-1.44-5.37-3.05-1.22-1.63-3.03-4.41-3.89-6.39-1.63-1.14-3.1-2.43-4.47-3.8-1.41-1.34-2.74-2.76-4.05-4.2-1.32-1.44-2.6-2.93-3.98-4.33-1.4-1.39-2.85-2.74-4.43-3.97l.42-1.18c-6.92-4.05-12.1-12.15-17.74-15.72l1.75-.96c-.55-.92-1.48-1.64-2.36-1.94-.89-.28-1.69-.18-1.94.49-1.16-1.78-4.45-2.64-4.41-4.68-1.36-1.63-2.48-1.04-4-1.89-2.81-3.1-4.11-4-7.43-6.04l.71.65c.58-.06,1.11-.71.39-1.37-1.5-.4-4.09-3.48-4.21-.8-.66-.86-1.52-1.58-2.48-2.23-.48-.33-.98-.64-1.49-.94-.51-.3-1.06-.53-1.59-.79-2.14-1.03-4.2-2.09-5.47-3.88-.01.73-.92.28-1.48.48-3.03-1.62-5.89-4.31-8.92-4.38-.4-.5,1.22-.63-.08-1.24-.88-.1-.32.74-1.42.69-2.85-.51-5.48-1.68-8.09-2.9-2.6-1.22-5.22-2.38-7.84-2.84-4.73-.45-9.49-1.11-14.24-1.67-4.75-.56-9.49-1-14.05-1.07l.12-.45c-3.08,1.61-7.19-1.94-9.62.73-.73-.43-2.77-.14-2.25-1.03-2.39,1.28-6.92-.89-10.35.96.33.01.5-.09.86-.31-3.66-.72-6.67.96-10.52.54.36-.24,1.03-.48,1.09-.94-1.57-.68-3.18,2.35-4.28.3-.83.14-.43,1.17.07,1.04-8.34.35-16.8,3.55-24.66,6.5-6.14.6-1.52-3.43-5.53-.34-.51-.26.02.89-.2.48-1.5,1.2-3.57-1.28-4.35.27.99,1.04-.5,1.02-.22,1.79-3.65.62-4.89-.1-6.88,2.12l-.16-.72c-.95,1.67-2.26,2.76-3.29,3.87-.24.28-.51.55-.69.83-.2.29-.38.56-.35.73-.03.38.08.81.49,1.25-.24.36-.32.82-.16,1.21.03.09.05.18.09.27.02.05.03.07.05.1.01.03,0,0,.03.08l.07.22c.17.59.46,1.23.68,1.85.57,1.27,1.18,2.56,1.95,3.86.73,1.29,1.58,2.58,2.45,3.84.44.63.89,1.26,1.37,1.88l.57.77.75.98c.5.65,1,1.31,1.55,1.94.25,1.85.51,3.69.76,5.51.08,1.54.21,3.44.36,5.63l-.53,1.07-.44,1.04c-.28.66-.66,1.53-.69,1.7-.23.64-.43,1.3-.63,1.96-.4,1.32-.74,2.66-1.03,4.02-.29,1.35-.54,2.71-.71,4.08l-.14,1.03c-.03.17-.05.34-.06.51l-.04.44c.03-.05.04,0,.05.02.03.05.05.09.1.1-.03.09.04.15.11.19-.32-.07.96.26,1.84.44.96.2,1.98.37,3.02.53,4.23.62,8.84.97,13.5,1.3,9.35.64,19.03,1.23,28.85,2.7,4.47,2.27,4.8,2.24,9.97,2.02-.24.28-.56.31-.25.63.42-1.49,3.6.25,4.25-1.14,7.3,1.15,14.12,1.71,21.68,3.11-1.23-.06-2.04,1.06-.61,1.22l1.66-.68.16.46c1.01-.03,2.21-.56,1.31-1.24,4.82.6,9.57,1.63,14.24,2.93,2.37.73,4.73,1.52,7.06,2.32l1.75.61,1.7.7,3.38,1.42c8.96,3.87,17.37,8.4,25.79,12.68,1.85,1.32,4.18,2.68,6.66,3.92,2.46,1.25,4.97,2.53,7.14,3.63,5.54,4.62,10.8,9.02,16.08,13.43,2.64,2.16,5.32,4.27,8.09,6.36,1.4,1.02,2.79,2.09,4.25,3.1,1.46,1.05,2.9,2.03,4.52,3.16,0,0-1.06.39-2.7.47-1.66.07-3.92-.21-6.54-1.65Z"/>
      <path class="cls-1" d="M225.58,216.57c.46.78,2.06,1.26.73,2.23-.13-.72-.93-1.56-.73-2.23Z"/>
      <path class="cls-1" d="M271.32,221.27c-.05-.22,1.04-.03,1.3-.02-.7.34-1.13,1.18-1.96,1.02.78-.3.47-.6.66-1Z"/>
      <path class="cls-1" d="M281.1,210.55c.36.16.79,1.07.83,2.29.03.6-.05,1.27-.2,1.9-.18.62-.41,1.21-.67,1.67.66-1.89.71-4.06.04-5.85Z"/>
      <path class="cls-1" d="M278.18,196.31c.05-1.11.45-1.04,1.05.11-.27.25-.64-.03-1.05-.11Z"/>
      <path class="cls-1" d="M276.46,196.36c-.44-.79-.3-1.38-.18-1.96-.49.32,1.32,1.68.18,1.96Z"/>
      <path class="cls-1" d="M265.81,175.68c-.36-.43-1.5-1.09-1.18-1.95-.1.78,2.24,1.73,1.18,1.95Z"/>
      <path class="cls-1" d="M258.79,167.57c-.17-.3-.15-.49-.54-.7-.12-.69.67-.45,1.04-.06l-.5.76Z"/>
      <polygon class="cls-1" points="96.72 75.63 97.86 75.25 97.72 75.92 96.72 75.63"/>
      <path class="cls-1" d="M19.93,110.22c.43.83.32,1.04.12,1.19-.19.15-.49.18-.51.31-.19-.59.04-.53.26-.52.21,0,.43.04.12-.97Z"/>
      <path class="cls-1" d="M27.7,149.98l.03-.4,1.38.18c-.47.06-.94.14-1.41.22Z"/>
    </g>
  </g>
  <g>
    <path class="cls-1" d="M39.96,127.62c-.82.04.34.65-.56.19.15-.25.33-.44.56-.19Z"/>
    <path class="cls-1" d="M232.65,214.28c-3.1-.45-4.42-4.06-7.3-5.09-.3-.16.71-.67-.01-.99-2.96-.79-5.69-4.22-7.57-7.19l.33-.08c-.36-.56-1.54-.37-1.98-.9.11-.14.33-.06.37-.35-.48.31-1.1-.59-1.58-.46-.07-.34.23-.65.12-1.06l-.7.23c-1.78.46-1.94-1.75-3.57-2.08.15-.07.33-.06.33-.25-2.4-.79-4.58-2.76-6.85-4.13.22-.11.55-.36.58-.66-.51.44-1.25.06-1.88-.27.17-.73-1.33-.25-1.75-1.06l.15-.08c-.92.19-.46-.88-1.38-.51l.02-.66c-.79.59-.39-.93-1.09-.85l-.11.17c-.52-.1-.43-.63-.87-.77l.03-.11c-.97-.42-1.13-1.21-1.56-.6.07-.69.96.39,1.03-.65-3.17-1.45-5.89-3.66-8.67-5.65-.14-.47-.29-.69-.19-.97-.36-.08-1.12-.65-1.6-.52.1.06.04-.44-.08-.57-.35-.59-1.03.28-1.4-.39.34,0,.55-.15.64-.43-.81.14-1.4-.39-2.07-.63.16-.04.34,0,.45-.21-.99.11-1.05-.91-1.82-.94l.45-.21c-.57-1.04-.77.56-1.35-.22.26.01.29-.17.42-.29-1.15.16-2.15-.83-3.01-1.1.08-.02.13-.12.13-.12-.83-.44-1.49-1.21-2.54-1.48-.2-.37.69-.81-.23-1.22-.45.74-1.59-.63-1.65.51-.62-.58-1.56-1.59-2.19-1.65.5-.07.23-1.11.86-.79l-.16-.73c.26-.25.39.4.49-.07-.31-.17-1.37-.43-1.55-.72-.84.1-1.87.61-2.82.14.6-.02.27-.96.63-.9l-2.12.61c-.32-.15.3-.62-.25-.7-.1.21-.36.21-.59.29-.06-.15-1.35-.57-1.04-1.37.04-.37.58.14.41-.32-.56-.33-.73-.1-1.29-.42l.05-.1c-.3-.33-1.26-.34-1.11.3.24.18.17-.5.42-.06-.51.27-1.22,0-1.78-.33.26,0,.35-.21.55-.37-1.08.12-1.98-.15-2.96-.4-.22.34.68-.45.7-.2-.79-1.11-2.61-.6-3.09-1.83.18.02-.21.54-.16.44-.49-.34-.17-.84-.62-.84.14-.32-.48-.14-.88-.24-.3.12,0-.2.31-.06-.63-.01-2.83-.63-3.71-1.69-.09.21-1.09.35-1.34.2l.35-.42c-.09-.4-.9-.42-.73-.84-.86.27,2.41.65,1.42.69.02-.51-1.45.19-.94-.36-.54-.26-1.32,0-1.59-.7.11.15.77-.43.33-.62-.79-.31-.33.11-1.02-.04h-.48c-.26.44-.64-.41-.62.25.1-.43-1.2-.33-.74-1.06l.41-.55c-.35-.13-.86.37-1.25.51-.01-.08-.04-.24.03-.33-.52.9-.74-.46-1.48.07-.53-.66-1.72-.88-1.77-1.62-.66.03-1.3.12-1.81-.35.16-.03.34.01.47-.17-.25-.45-.46-.24-.88-.25.14-.1-.51-.89-.79-1.42-.66.04-.71.63-.9.92-.07-1.15-1.76-.07-1.99-1.19.24-.05.97-.11.64-.55-.08-1.16-1.29.26-1.88-.51l-.14.86c-.15-.63-1.35-.03-.94-.79-.38.17-.83-.64-1.05.16-.52-.59-1.34-.83-2.07-1.1-.74-.26-1.37-.6-1.52-1.44-.24.06-.66-.25-.71.19.15.55.55-.15.56.19-.18-.04-.29.16-.35.26-.34-.33-.64-.5-.02-1.01-.74-.82-1.42.97-2.46.24.16-.3.12-.47-.24-.53l-.84.34c-.71-.37-.18-.88-.01-1.43-.44-.04-.93-.23-1.25.13l-.27-.85c.2.62-.44.22-.68.3l.23-.07c0-.26-.52-.27-.78-.27-.05.36.38.66.61.84-.28.18-.59.01-.95.21.26-.51-.54-.61-.84-.76-.34-.22-.56.37-.67.33.07-.29-.59-.21-.19-.53.15-.06.21.36.49.16-.18-.28-.01-.76-.63-.54-.46.17-.21,1.11-.84.56.23-.08.33-.29.53-.45l-.6-.47-.17.49c-.06-.15.02-.18,0-.26-.35.47-1.09-.12-1.4.43-.36-.04-.63-.55-.95-.69l.07-.03c-.32-.41-.93-.33-1.35-.08l.05-.11c-.21-.09-.76-.14-1.11.09-.48-.51.26-1.95-.52-1.46-.58-.12-1.12.71-.96,1.09-.95-.59-2.31-.02-3.11-1.01-.19.17-.13.32-.46.37-1.49-.53-3.34-.11-4.36-1.34.49-.12.13-.5.18-.79-.46.38-.35-.56-.64.19-.06.47-.14.68.25.95-.97.06-2.36-.22-2.78-.75.21.26-.01.36-.24.46.21-.72-.44-.97-1-.81l-.16.43-.24-.53c-.22.1-.4.89-.83.37,0-.18.01-.36-.06-.5-.6.26-1.47.74-1.97.25l-.35-.74c-.26.02-.75.34-.35.61-.91-.58-1.53-.75-1.74-1.38-1.95,1.05-4.42.66-6.38.2l.12-.32c-.47-.41-.38.54-.71.24.23-.29-.28-.77.21-1.08-.69-.49-1.08.4-1.6.47-.15.43.45-.21.25.33-.11.14-.99-.53-1.23.12-.14-.29.09-.76.24-1.01l-.52.24c-.43-.88,1.54-1.16,1.12-2.23l-.45.03c-.28-.77,1.28-.59.24-1.02-.53.25-1.1,1.14-.73,1.51-1,.01-.73,1.51-1.77,1.27-.22-.44.85.05.75-.53-.4-.62-1.04.13-1.44-.14.44.34-.09.94-.42,1-.48-.41.46-.57-.28-.77-.19.36-.93.53-.38.9-.42.82-.74-.38-1.27.22-.14-.66,1.02-1.28.25-1.74.03.62-1.16.63-.88,1.58-.29-.23-.25-.7.05-1.02-.4-.44-1.31.89-1.26-.31l-.26.58c-.11-.22-.29-.41-.47-.77-.41-.08-1.45.59-1.26-.31-.15.07-1.07-.13-.82.56.51.49.74-.35.92.56-.29-.77-.85-.05-1.22.12v-.36c-.22.1-.66-.05-.85.31.19-.18.15-.43,0-.54l-.3.5c-.85.13-.03-.98-.84-.96l.67-.31c-.15.07-.33-.48-.73-.38-.23.47-.6,1.01-.8,1.37-.48.14-.11-.59-.63-.16l.67-.5c.11-.15-.25-.88-.84-.96-.41.11-1.12.72-.56,1.09-.3-.04-.67-.41-.37-.73-.7.06,0,.54-.63.75-.18-.37-.85-.96-1.21-1.51l.74-.72-.4-.08c.63-.57-.18-.55.23-1.19-.26-.16-.63.03-.93.16.62,1.25-1.16,1.37-1.09,2.42-1.15.09-.28-2.58-1.7-1.18.15.3-.53.98.22.8-.67-.22-.64.94-1.38.39.67-.32-.48-1.13.49-1.6-.11.33.44.34.59.26-.22-.43.23-1.01-.48-1.13-.45.03-1.04-.05-1.04.49-.08.58.67.05.29.59-.89.06-.89-.85-1.41.13.55,0,.59.63.52,1.03l-.67.14.19-.37c-.96-.44-.41.65-1.37.39l-.33-.84c.34-.62,1.37.52,1.37-.57-.63-.15-.93.36-1.48-.01.15-.07.33-.07.48-.14-.22-.07-.22-1.53-1.26-.84-.52.25-.19.36-.26.76-1.04-.04-1.41.32-2.08.27.26-.76-1.15-.26-.29-.94.26.51,1.74.7,2.22.02-.22-.98.78.26,1.15-.64-.82-.15-.63-1.06-.66-1.68-.22-.08-.48.14-.63.21-.19.55.11.59.03,1.17-.89-.3-1.82-.13-2.41.34-.26-.33-.07-.87.3-.87-1.11,0-2.26-.27-3.27-.61.52,1.02-1.19.03-.85.87.52.29.89,1.02.52,1.39-.34-.11.07-.4-.04-.62-.52.43-.56-.91-1.11-.19,1.04-.14.37-1.09.67-1.78-.78.29.11-.51-.6-.62-.78.29-1.7.46-2.52.49-.89-.84-2.52-.41-3.42-.52-.41-.44.03-1.2-.45-1.42-.6-.08.3.95-.52.44l.11-.15c-.29.15-1.53-.8-1.97.33l.41-.84c-.15-.1-.33.07-.48.15.04-.29-.11-.58.18-.72-.45-.69-1.15-.08-1.75-.14l.3.58c-1.07.25-1.67-.36-2.67-.33l.11-.51-.63.22c.22-.47-.27-.87-.64-.51l1.7-1.02c.37.36-.55.55-.36,1.09.16.47,1.08.47,1.3,0-.34-.11-.37,0-.67.14,0-.73.51-.62.85-1.05-.19,0-.41-.25-.48-.04.41-.29.78-.29,1.37-.22-.44.21.15.47-.03.65.14-.62.74-.72,1.45-.44.41.8,1.45-.25,2.27.08-.44.58-.96,1.02-1.52,1.2.48.4.6.07,1.08.48.33-.43.63-1.13,1.37-1.31l-.04.47c.67-.14.78-.83,1.56-.58,1.34.44,2.76.67,3.79.89l-.03.47c.74-.9,2-.06,2.86-.38,1.27.66,2.98.02,3.53.93,2.42.02,4.54,0,6.95.58l-.52.61c.52-.43.22.44.67.41-.4-.62.71-.61,1.08-.97,1,.7,2.49.37,3.54.05l-.04.47c1.12-.71,2.16.25,3.35.6.11.22.25.69.62.7.79-.64,1.12-.53,2.17-.83.71.12,1.82.51,2.48.92,2.84-.6,5.43.57,8.3.42l.1.58c2.88-.67,5.98.97,8.37.83l-.4.89c.66.42,1.67.07,1.62-.63.66.42,1.88-.11,2.18.74.7.31.98-.26,1.61-.26,1.4.65,1.96.68,3.38.79l-.33-.13c-.19.17-.29.57.04.69.57-.15,1.84.63,1.56-.58,1.34.93,3.56.22,4.81,1.38-.06-.33.32-.31.52-.48,1.3.26,2.53,1.21,3.68.94.17.2-.45.43.07.59.34-.04.1-.39.53-.47,2.24-.1,4.15,1.69,6.1,2.06,1.8.19,3.53.73,5.24,1.26,1.71.56,3.33,1.26,4.94,1.79l-.12.2c1.39-.43,2.13,1.82,3.46.94.16.3.91.49.55.81,1.07-.22,2.1,1.49,3.58,1.32-.1-.07-.18-.05-.35-.02.99,1,2.32.85,3.39,1.83-.17.03-.43,0-.56.18.3.61,1.56-.34,1.35.78.28.12.43-.4.25-.46,1.26.85,2.69,1.47,4.17,2.03,1.47.58,2.98,1.11,4.43,1.72,1.68,1.62-.74,1.68,1.2,1.8.03.26.29-.32.2-.11.74.06.34,1.59,1.03,1.31.15-.68.46-.18.67-.53.99,1.05.93,1.71,2.12,1.78l-.25.27c1.6-.25,2.59.96,4.09.5,6.14,3.35,12.15,6.4,17.88,10.1,5.46,3.94,11.12,7.36,16.22,11.93.73,1.7.83,1.75,2.45,2.51-.15.08-.26.04-.25.22.53-.55,1.02.69,1.6.21,1.92,1.63,3.87,2.91,5.92,4.5-.37-.19-.92.17-.51.43l.7-.07-.07.22c.33.12.85.05.73-.36,5.53,3.53,9.5,8.79,14.46,12.78.95,1.22,2.76,2.41,4.1,3.37,3.01,3.99,5.69,7.48,9.82,10.4,0,0-.47.23-1.15.35-.68.11-1.59.1-2.49-.43Z"/>
    <path class="cls-1" d="M40.93,127.69c.11.4.64.69.12,1.13,0-.36-.23-.8-.12-1.13Z"/>
    <path class="cls-1" d="M55.15,133.86c.04-.11.19.19.22.26-.19,0-.41.29-.52.07.19,0,.19-.18.3-.33Z"/>
    <path class="cls-1" d="M58.9,134.69c-.11.33-.96.46-1.45.43l1.45-.43Z"/>
    <path class="cls-1" d="M62.2,136.64c.26.33.15.47-.26.4,0-.18.15-.25.26-.4Z"/>
    <path class="cls-1" d="M62.57,135.92c.29.04.41.26.52.47.04-.29-.71.07-.52-.47Z"/>
    <path class="cls-1" d="M70.05,138.15c.19,0,.63-.21.74.19-.15-.29-.96.28-.74-.19Z"/>
    <path class="cls-1" d="M73.68,138.24c.11.04.15.11.3.04.18.19-.08.4-.26.4l-.03-.44Z"/>
    <polygon class="cls-1" points="136.99 151.98 136.57 151.99 136.75 151.7 136.99 151.98"/>
    <path class="cls-1" d="M162.21,165.03c.44.02.07.41.09.49-.31-.15.32-.29-.09-.49Z"/>
    <polygon class="cls-1" points="176.15 171.84 176.05 171.78 176.46 171.22 176.15 171.84"/>
  </g>
  <g>
    <path class="cls-1" d="M53.88,117.68c-.22.12,0,.61-.17.24.07-.26.15-.46.17-.24Z"/>
    <path class="cls-1" d="M105.26,127.11c-.92,1.64-1.43-.27-2.3.73-.09.06.19-.95-.03-.75-.89,1.24-1.78.25-2.4-.94l.1-.26c-.12-.22-.46.64-.6.49.03-.18.1-.25.1-.5-.14.53-.33.2-.47.59-.03-.22.06-.65.01-.9l-.2.6c-.51,1.42-.6-.21-1.09.48.04-.14.1-.25.09-.39-.72.79-1.39.5-2.08.72.06-.21.16-.61.16-.86-.15.64-.37.77-.56.87.04-.68-.4.56-.53.16l.04-.15c-.27.67-.15-.44-.41.38v-.54c-.23.93-.13-.52-.33-.07l-.03.19c-.15.21-.13-.27-.26-.13v-.11c-.28.21-.33-.34-.46.39.02-.6.29-.22.3-1.1-.94.61-1.76.32-2.58.19-.04-.31-.08-.41-.06-.69-.11.13-.33.08-.47.44.03,0,.01-.38-.02-.43-.1-.3-.3.78-.41.42.1-.18.16-.42.19-.69-.24.55-.41.42-.61.58.05-.12.1-.19.13-.42-.29.62-.3-.2-.53.19l.13-.41c-.16-.56-.23.87-.4.53.08-.12.09-.29.13-.46-.34.74-.63.42-.88.65.02-.06.04-.17.04-.17-.24.06-.43-.22-.73.07-.06-.21.21-1.03-.05-.92-.14.85-.46.28-.49,1.27-.18-.18-.44-.55-.62-.29.15-.31.08-1.06.26-1.1l-.04-.54c.08-.35.11.14.15-.3-.09.02-.39.31-.44.16-.25.5-.56,1.44-.83,1.51.18-.31.1-.95.2-1.08l-.64,1.57c-.09.03.1-.68-.06-.47-.03.23-.11.36-.18.53-.01-.1-.39.15-.27-.69.02-.34.17-.15.13-.47-.16-.02-.21.27-.37.25l.02-.11c-.08-.14-.36.3-.33.79.07.04.06-.51.12-.25-.16.47-.36.58-.52.56.08-.13.11-.35.17-.58-.32.62-.58.79-.86,1.03-.07.4.21-.71.21-.49-.2-.6-.75.68-.86-.18.05-.06-.08.57-.06.46-.13-.08-.03-.65-.16-.45.05-.34-.14.09-.25.17-.09.24,0-.17.09-.19-.18.27-.81.69-1.03.14-.03.23-.34.79-.4.75l.12-.52c0-.32-.25,0-.18-.45-.26.61.68-.44.39.02.02-.45-.43.78-.26.08-.15,0-.39.56-.44.04.02.09.24-.7.12-.69-.22.06-.1.24-.3.39l-.14.2c-.1.51-.17-.1-.19.48.05-.43-.34.21-.17-.64l.15-.66c-.1.03-.27.68-.39.96,0-.06,0-.2.02-.31-.19,1.02-.19-.12-.44.65-.12-.39-.46-.11-.44-.77-.2.28-.39.63-.51.38.05-.09.1-.11.15-.33-.05-.32-.12-.05-.24.1.05-.15-.1-.63-.15-1.01-.19.28-.24.84-.32,1.17.05-1.03-.51.58-.51-.36.07-.13.29-.46.22-.73.05-1.03-.39.7-.51.18l-.1.85c0-.53-.39.43-.22-.42-.12.29-.2-.32-.32.5-.22-.75-.9.27-.85-1.23-.07.13-.17-.03-.22.39,0,.47.17-.31.15.01-.05.02-.1.24-.12.35-.07-.21-.15-.28.07-.94-.15-.55-.49,1.34-.73.97.07-.33.07-.47-.02-.43l-.27.55c-.17-.17.02-.79.12-1.36-.12.08-.24.03-.36.45v-.74c0,.54-.15.33-.22.46l.07-.13c.02-.24-.12-.12-.2-.06-.05.36.05.52.1.64-.1.24-.17.17-.29.45.12-.56-.1-.43-.17-.5-.07-.14-.19.48-.22.46.05-.29-.15-.08,0-.47.05-.09.02.3.12.05-.02-.23.07-.73-.12-.39-.15.26-.17,1.11-.29.72.07-.13.12-.35.19-.55l-.12-.32-.1.51c0-.13.02-.17.02-.24-.15.53-.29.12-.44.72-.1.04-.12-.39-.19-.46l.02-.04c-.05-.32-.22-.14-.37.19l.02-.11c-.05-.05-.19,0-.32.3-.07-.41.29-1.94.02-1.32-.15,0-.39.9-.39,1.23-.2-.39-.63.39-.73-.44-.07.2-.07.33-.17.44-.34-.27-.9.47-1.02-.59.15-.2.1-.51.15-.8-.17.44-.02-.49-.19.28-.07.46-.12.69-.05.89-.27.21-.61.15-.66-.31.02.23-.05.36-.12.49.15-.73,0-.87-.17-.64l-.1.45v-.48c-.07.13-.22.93-.27.48.02-.17.05-.35.05-.48-.19.34-.49.93-.56.53v-.67c-.07.06-.24.44-.17.64-.17-.44-.32-.51-.29-1.09-.66,1.31-1.26,1.26-1.73,1.07l.07-.33c-.07-.34-.17.58-.22.33.1-.31.02-.71.19-1.09-.12-.39-.34.54-.49.67-.1.44.15-.27.02.29-.05.15-.19-.39-.34.27,0-.27.12-.75.19-1.02l-.17.3c0-.8.56-1.34.58-2.32l-.12.09c.02-.72.41-.74.19-1.02-.17.31-.44,1.26-.39,1.57-.27.14-.39,1.57-.63,1.47,0-.4.22-.06.27-.62-.02-.56-.29.26-.37.05.07.27-.14.93-.24,1.04-.07-.34.19-.62.02-.72-.1.38-.32.64-.22.93-.22.86-.15-.28-.37.38.05-.62.44-1.39.29-1.73-.07.6-.39.76-.44,1.66-.05-.19.03-.65.15-1-.05-.38-.46,1.03-.29-.15l-.14.6c0-.2-.02-.36-.02-.7-.1-.03-.46.76-.29-.15-.05.09-.27,0-.29.66.07.41.24-.43.17.43.02-.71-.22.05-.34.27l.05-.36c-.07.13-.17.03-.27.41.07-.2.1-.44.07-.53l-.15.53c-.24.23.12-.95-.1-.83l.22-.39c-.05.08-.02-.43-.15-.28-.12.48-.29,1.06-.39,1.44-.15.2.05-.56-.15-.08l.24-.57c.05-.16.05-.83-.1-.84-.12.15-.39.84-.29,1.13-.07,0-.12-.32,0-.67-.19.14-.07.53-.27.81,0-.34-.1-.83-.12-1.33l.29-.79-.1-.02c.24-.64.02-.51.22-1.19-.05-.12-.17.1-.27.27,0,1.14-.49,1.48-.61,2.5-.32.23.27-2.49-.29-.96,0,.27-.27,1.02-.05.76-.15-.14-.29,1-.41.54.22-.39.02-1.05.34-1.62-.07.33.07.28.12.19,0-.4.19-1.02.02-1.05-.12.08-.27.07-.34.6-.1.58.17-.03,0,.54-.24.17-.12-.72-.39.29.14-.06.07.55,0,.94l-.19.21.1-.38c-.2-.32-.2.69-.41.54l.02-.78c.17-.64.29.35.44-.72-.15-.07-.29.46-.39.16.05-.09.1-.1.15-.19-.05-.05.15-1.47-.22-.68-.17.3-.1.38-.17.77-.27.08-.41.47-.58.51.17-.77-.27-.12.05-.89,0,.47.37.49.58-.24.07-.94.17.16.39-.76-.19-.06-.02-.96.05-1.57-.05-.05-.15.19-.19.28-.12.56-.05.56-.15,1.14-.19-.19-.46.08-.68.61-.03-.29.1-.85.19-.88-.29.12-.56,0-.78-.22,0,.94-.32.17-.34.95.1.23.1.9-.05,1.3-.07-.07.07-.4.07-.6-.19.48-.02-.83-.27-.06.29-.25.24-1.11.41-1.82-.24.37.1-.51-.07-.54-.24.37-.51.65-.73.77-.12-.72-.61-.12-.83-.13-.05-.38.17-1.18.07-1.34-.15,0-.05.89-.19.48l.05-.16c-.1.18-.29-.62-.56.53l.22-.87c-.03-.09-.1.11-.15.2.05-.29.05-.55.15-.73-.02-.63-.29.05-.44.05v.53c-.32.36-.39-.18-.66-.04l.1-.51-.19.28c.12-.49.05-.83-.1-.43l.58-1.18c.05.32-.22.6-.24,1.11-.02.45.22.35.34-.14-.07-.07-.1.04-.19.21.1-.71.22-.66.36-1.12-.05.02-.07-.21-.12.02.15-.33.24-.37.39-.36-.15.26-.02.45-.1.64.12-.62.29-.79.44-.58,0,.74.41-.4.58-.17-.19.62-.39,1.1-.56,1.34.07.34.15,0,.22.35.15-.46.32-1.17.53-1.43l-.07.47c.19-.21.32-.9.49-.74.29.29.63.35.88.45l-.07.47c.32-.97.53-.28.8-.69.24.5.78-.32.8.51.63-.26,1.19-.52,1.75-.24l-.22.66c.19-.48,0,.4.12.32-.02-.56.27-.68.41-1.08.17.57.61.06.92-.37l-.07.47c.39-.83.54-.02.8.18,0,.2-.02.65.07.61.29-.72.37-.66.68-1.08.17.03.41.27.54.59.83-.94,1.36-.15,2.14-.67l-.05.56c.85-1.05,1.46.15,2.12-.36l-.22.93c.12.32.44-.18.51-.85.12.32.51-.38.49.41.15.2.29-.39.46-.49.29.42.44.36.8.24l-.07-.07c-.07.2-.15.6-.07.67.17-.24.41.33.49-.8.24.71.93-.38,1.12.55.02-.31.12-.35.2-.55.32.04.54.72.88.25.02.16-.17.5-.05.56.1-.1.07-.4.19-.55.61-.48.92.77,1.41.7.92-.44,1.73,0,2.53.04l-.05.22c.41-.81.46.99.9-.27.02.22.22.14.1.57.32-.57.49.67.92-.04-.02-.03-.05.02-.1.11.22.55.61-.08.85.42-.05.09-.12.15-.17.37.05.45.46-.89.34.2.07,0,.15-.53.1-.51.63.54,1.51-.01,2.29-.13.41.74-.29,1.82.27,1.09,0,.21.1-.41.06-.18.21-.27.04,1.25.25.7.07-.67.14-.36.21-.76.25.49.21,1.1.55.64l-.08.35c.47-.93.72-.34,1.18-1.44,1.68.08,3.37-.27,5-.12,1.55.5,3.19.26,4.69,1.14.22.98.25.96.73.66-.04.15-.07.17-.07.32.15-.75.3-.02.47-.73.57.25,1.16.14,1.77.24-.11.06-.27.67-.14.64l.2-.46-.02.21c.1-.1.25-.45.21-.71,1.65-.38,2.9,1.4,4.44,1.48.3.38.86.18,1.28.09.98,1.21,1.87,2.2,3.17,1.7,0,0-.49,1.92-1.06,2.28Z"/>
    <path class="cls-1" d="M54.12,117.64c-.03.38.07.61-.12,1.1.05-.36.05-.76.12-1.1Z"/>
    <path class="cls-1" d="M57.02,122.14c.02-.11.02.16.02.23-.05.02-.15.33-.15.13.05-.02.07-.2.12-.35Z"/>
    <path class="cls-1" d="M57.9,122.53c-.07.33-.32.56-.44.58l.44-.58Z"/>
    <path class="cls-1" d="M58.51,124.06c.02.3-.02.45-.12.42.02-.18.07-.26.12-.42Z"/>
    <path class="cls-1" d="M58.7,123.3c.07,0,.07.21.07.41.05-.29-.2.15-.07-.41Z"/>
    <path class="cls-1" d="M60.38,124.6s.19-.28.17.1c0-.27-.29.39-.17-.1Z"/>
    <path class="cls-1" d="M61.33,124.25s.02.09.07,0c.02.16-.07.4-.12.42l.05-.42Z"/>
    <polygon class="cls-1" points="77.23 125.66 77.11 125.81 77.18 125.48 77.23 125.66"/>
    <path class="cls-1" d="M84.1,126.85c.13-.19,0,.33.02.38-.09.02.1-.41-.02-.38Z"/>
    <polygon class="cls-1" points="88.09 125.83 88.06 125.83 88.19 125.15 88.09 125.83"/>
  </g>
  <g>
    <path class="cls-1" d="M134.88,133.41c-.21.02-.22.17-.2.27,0,.05.02.08,0,.07,0,0-.02-.02-.04-.04-.01-.01-.02-.03-.04-.05l-.03-.03v-.02s-.02,0-.02,0c-.03.06.11-.28-.27.6l.18-.42.09-.21h0s.01-.03.01-.03l.03-.04.06-.08s.07-.08.1-.1c.06-.04.1-.03.12.09Z"/>
    <path class="cls-1" d="M242.88,208.54c-2.37.23-2.7-2.51-4.75-2.85-.2-.08.7-.68.2-.82-2.18-.13-3.58-2.53-4.39-4.7l.28-.12c-.15-.41-1.12-.06-1.34-.44.12-.14.27-.1.37-.35-.45.34-.73-.32-1.13-.14.02-.27.33-.58.33-.9l-.6.3c-1.49.65-1.12-1.16-2.3-1.2.13-.08.27-.1.31-.25-1.68-.31-2.9-1.65-4.33-2.49.2-.12.51-.38.61-.63-.5.43-.99.22-1.39.03.31-.63-.97-.04-1.09-.66l.13-.08c-.76.27-.14-.68-.94-.25l.18-.55c-.76.6-.07-.73-.63-.58l-.12.15c-.37-.02-.16-.48-.47-.54l.06-.1c-.64-.24-.56-.88-1.05-.32.23-.59.64.21.96-.67-2.07-.84-3.57-2.39-5.14-3.8.02-.38-.03-.55.12-.8-.26-.03-.68-.43-1.08-.28.06.04.15-.37.1-.48-.1-.47-.86.33-.95-.2.26-.04.46-.18.6-.42-.66.19-.95-.2-1.39-.34.13-.05.26-.04.4-.22-.79.18-.54-.67-1.12-.63l.4-.22c-.14-.83-.75.54-.96-.07.19-.01.27-.17.4-.28-.92.23-1.38-.53-1.95-.69.06-.02.13-.12.13-.12-.49-.31-.78-.89-1.48-1.06-.04-.3.76-.73.2-1.02-.56.66-1.01-.42-1.39.55-.29-.45-.69-1.24-1.14-1.25.39-.09.51-.96.88-.72l.1-.61c.27-.23.17.31.39-.09-.18-.12-.88-.28-.93-.52-.65.13-1.58.62-2.14.27.45-.05.5-.83.76-.8l-1.78.64c-.19-.11.42-.54.03-.58-.14.18-.33.2-.53.27,0-.13-.81-.43-.32-1.13.15-.31.38.1.4-.29-.3-.26-.51-.05-.82-.31l.07-.09c-.11-.27-.82-.24-.92.3.12.14.29-.43.33-.06-.47.25-.9.04-1.21-.21.19-.01.33-.19.53-.34-.84.15-1.41-.07-2.04-.26-.27.3.65-.4.58-.19-.2-.93-1.71-.45-1.65-1.48.13.01-.34.47-.27.38-.24-.28.16-.71-.17-.71.21-.27-.3-.12-.55-.2-.26.1.06-.17.25-.05-.45,0-1.83-.52-2.11-1.42-.14.18-.92.31-1.04.17l.4-.35c.08-.35-.49-.37-.22-.73-.72.23,1.5.57.77.6.19-.42-1.11.16-.55-.32-.29-.23-.95,0-.89-.62.02.13.71-.36.46-.53-.46-.27-.28.09-.72-.05h-.34c-.35.37-.31-.37-.54.2.23-.37-.74-.3-.14-.91l.5-.46c-.2-.11-.75.3-1.08.41.02-.07.06-.21.14-.28-.7.76-.35-.42-1.08.02-.12-.58-.89-.81-.64-1.44-.48,0-.97.07-1.14-.37.13-.02.23.03.39-.12,0-.4-.23-.24-.52-.26.14-.08,0-.8.02-1.27-.48,0-.74.51-.99.74.41-1.01-1.2-.12-.92-1.09.19-.03.73-.06.66-.44.4-.99-.99.17-1.09-.53l-.44.74c.15-.55-.91-.1-.32-.74-.33.13-.31-.6-.78.08-.24-1.08-1.86-.97-1.4-2.46-.18.04-.35-.25-.55.12-.11.49.43-.1.3.2-.1-.04-.26.12-.34.21-.1-.31-.24-.48.38-.88-.18-.76-1.34.77-1.76.07.23-.26.26-.4.05-.48l-.68.23c-.32-.39.23-.79.56-1.27-.27-.07-.52-.28-.86,0l.16-.78c-.11.57-.38.16-.56.21l.18-.05c.1-.23-.23-.28-.4-.31-.17.32,0,.62.07.8-.25.13-.39-.04-.7.11.37-.43-.12-.58-.25-.75-.12-.24-.51.27-.56.22.16-.25-.3-.25.09-.49.12-.03,0,.34.25.2,0-.27.29-.68-.19-.55-.36.1-.57.97-.76.41.18-.05.33-.23.52-.35l-.2-.48-.3.42c.02-.14.08-.16.1-.23-.41.38-.65-.22-1.07.24-.21-.07-.19-.55-.34-.72l.06-.02c-.05-.4-.45-.41-.82-.24l.07-.09c-.1-.11-.42-.22-.73-.06-.09-.52.94-1.72.27-1.38-.31-.18-.98.5-1.03.86-.35-.66-1.44-.29-1.53-1.29-.19.13-.21.27-.43.28-.72-.66-2.03-.48-2.17-1.75.35-.05.27-.44.42-.7-.43.29,0-.56-.46.09-.21.42-.34.61-.21.91-.61-.08-1.36-.49-1.43-1.02.03.27-.14.33-.32.4.4-.63.08-.93-.32-.85l-.26.38.04-.51c-.18.07-.57.77-.64.24.07-.16.14-.33.15-.47-.47.17-1.17.51-1.3,0l.06-.72c-.17,0-.58.22-.43.52-.34-.64-.67-.87-.57-1.47-1.58.78-2.95.16-3.99-.47l.18-.29c-.15-.43-.41.46-.51.15.24-.24.09-.75.49-.99-.26-.53-.8.26-1.13.27-.23.38.34-.15.04.34-.11.12-.43-.59-.79-.01,0-.29.3-.7.48-.92l-.4.18c.02-.86,1.33-.94,1.42-1.98l-.29-.02c.07-.75.99-.43.48-.93-.41.18-1.05.96-.95,1.34-.63-.08-.94,1.34-1.5,1.02,0-.43.51.13.63-.43-.04-.62-.68.02-.85-.26.16.36-.35.87-.58.9-.16-.43.46-.49.07-.75-.23.32-.74.41-.52.81-.52.74-.33-.42-.84.1.12-.63,1.03-1.11.7-1.61-.18.58-.91.48-1.03,1.41-.11-.24.07-.68.35-.96-.11-.46-1.07.71-.67-.41l-.34.52c0-.22-.06-.41-.05-.77-.23-.11-1.08.44-.68-.4-.11.06-.62-.21-.67.47.17.5.56-.27.4.6.05-.75-.51-.12-.79.02l.11-.34c-.17.08-.39-.1-.62.22.17-.15.22-.4.16-.51l-.33.45c-.56.06.27-.93-.23-.97l.5-.24c-.11.05-.06-.48-.34-.42-.28.42-.67.91-.89,1.23-.33.09.11-.57-.34-.2l.55-.41c.11-.13.1-.85-.24-.98-.28.07-.89.59-.66.98-.17-.06-.29-.45-.02-.72-.45,0-.15.51-.6.67,0-.36-.25-.97-.32-1.52l.66-.63-.23-.1c.55-.5.04-.53.48-1.12-.12-.17-.4-.02-.62.09.04,1.23-1.1,1.22-1.35,2.23-.73,0,.54-2.48-.72-1.25,0,.29-.59.9-.08.78-.35-.26-.64.85-.95.27.5-.26.01-1.12.73-1.49-.16.3.18.35.29.29-.02-.43.41-.95.01-1.11-.28,0-.63-.12-.77.39-.2.55.4.09.02.58-.56,0-.32-.87-.9.03.34.04.2.64.05,1.01l-.45.09.21-.34c-.47-.48-.43.6-.94.29v-.82c.38-.57.72.58,1.01-.47-.35-.18-.67.29-.91-.1.11-.06.22-.04.33-.11-.12-.08.26-1.47-.56-.89-.38.2-.21.33-.36.71-.63-.11-.95.22-1.34.13.35-.71-.64-.32.06-.93.03.51.89.78,1.37.15.12-.96.41.3.88-.54-.47-.2-.12-1.05.02-1.65-.12-.09-.34.1-.45.16-.26.51-.08.57-.28,1.12-.47-.34-1.09-.24-1.57.17-.08-.33.17-.84.4-.82-.69-.07-1.34-.38-1.88-.76.08,1.01-.74-.03-.73.79.25.31.3,1.03-.01,1.36-.18-.13.14-.38.13-.6-.42.39-.13-.91-.64-.24.67-.08.49-1.03.83-1.68-.55.24.19-.48-.22-.63-.55.23-1.17.36-1.68.35-.36-.85-1.47-.51-2-.66-.16-.44.28-1.16.03-1.39-.36-.1-.02.93-.42.4l.1-.14c-.21.13-.78-.84-1.29.24l.43-.8c-.07-.11-.22.06-.33.12.08-.28.05-.57.27-.7-.14-.69-.7-.13-1.06-.21l.07.57c-.72.21-.97-.41-1.6-.41l.17-.49-.43.19c.23-.45,0-.86-.3-.51l1.27-.94c.16.37-.46.51-.45,1.05,0,.46.58.5.81.05-.19-.12-.23-.01-.45.12.14-.71.45-.59.74-1-.12,0-.21-.26-.3-.05.32-.27.55-.26.91-.16-.32.19,0,.46-.15.63.22-.6.61-.68,1-.37.09.8.96-.18,1.41.17-.4.54-.82.95-1.21,1.1.22.41.36.1.58.51.3-.41.64-1.07,1.14-1.21l-.12.46c.45-.1.67-.77,1.11-.48.74.5,1.59.77,2.19,1.05l-.13.45c.68-.83,1.27.06,1.89-.2.64.71,1.88.19,2,1.11,1.51.19,2.86.29,4.22,1.03l-.49.54c.44-.37.02.43.31.44-.08-.63.61-.52.94-.84.44.75,1.47.54,2.22.32l-.16.45c.91-.6,1.29.43,1.93.86,0,.21-.04.68.19.72.68-.54.86-.4,1.61-.6.41.18,1,.63,1.29,1.09,1.96-.27,3.24,1.06,5.1,1.23l-.13.56c2.04-.3,3.44,1.58,5,1.71l-.56.78c.26.47,1.03.27,1.24-.38.27.47,1.22.14,1.11.96.33.38.71-.11,1.11-.04.65.76,1,.84,1.85,1.13l-.16-.16c-.19.13-.39.48-.23.64.41-.06.91.83,1.2-.31.48,1.05,2.17.66,2.51,1.89.09-.31.32-.24.52-.37.73.4,1.14,1.4,1.97,1.32.03.2-.46.33-.19.54.23,0,.22-.34.52-.35,1.45.25,1.97,1.98,3.08,2.52,2.12.77,3.82,2.33,5.56,3.51l-.16.17c1.08-.24.74,1.73,1.99,1.06,0,.27.43.48.06.74.83-.12.86,1.43,1.99,1.33-.04-.06-.11-.05-.24-.03.32.89,1.27.83,1.62,1.72-.13.02-.29-.03-.46.13-.04.54,1.21-.23.63.72.15.11.46-.33.35-.38,1.12,1.51,3.05,2.27,4.65,3.33.6,1.39-1.15,1.45.2,1.54-.07.22.32-.27.19-.09.52.04-.32,1.35.28,1.11.35-.59.39-.16.67-.46.34.88.06,1.45.9,1.5l-.27.23c1.24-.24,1.56.75,2.81.31,3.33,2.66,6.8,4.89,9.98,7.56,2.91,2.9,6.24,5.2,8.91,8.44.1,1.35.17,1.38,1.22,1.81-.13.08-.21.06-.25.22.55-.53.61.45,1.17-.02,1.04,1.14,2.23,1.93,3.41,3-.24-.11-.75.27-.5.43l.56-.15-.11.19c.23.05.64-.08.65-.4,3.39,2.18,5.24,5.95,8.24,8.44.47.86,1.63,1.53,2.48,2.09,1.51,2.76,2.92,5.18,5.63,6.71,0,0-1.63,1.18-2.85.67Z"/>
    <path class="cls-1" d="M135.41,133.49c0,.4.26.69-.15,1.1.07-.35.02-.79.15-1.1Z"/>
    <path class="cls-1" d="M142.95,140.06c.05-.1.07.19.08.26-.12-.01-.32.26-.34.04.12.01.16-.16.26-.3Z"/>
    <path class="cls-1" d="M145.07,141.05c-.15.31-.71.39-1,.34l1-.34Z"/>
    <path class="cls-1" d="M146.61,143.12c.07.33-.03.46-.26.37.05-.18.16-.23.26-.37Z"/>
    <path class="cls-1" d="M147.02,142.45c.17.06.18.28.2.49.1-.27-.45.02-.2-.49Z"/>
    <path class="cls-1" d="M151.02,145.08c.11.02.45-.15.4.23,0-.29-.67.2-.4-.23Z"/>
    <path class="cls-1" d="M153.22,145.42c.06.05.06.12.17.06.06.19-.16.37-.28.36l.11-.42Z"/>
    <polygon class="cls-1" points="187.92 163.99 187.63 163.98 187.87 163.74 187.92 163.99"/>
    <path class="cls-1" d="M201.26,175.48c.32,0-.09.35-.09.41-.18-.12.34-.26.09-.41Z"/>
    <polygon class="cls-1" points="209.51 180.55 209.45 180.51 209.93 180.01 209.51 180.55"/>
  </g>
</svg>