<?xml version="1.0" encoding="UTF-8"?>
<svg id="Layer_3" data-name="Layer 3" xmlns="http://www.w3.org/2000/svg" viewBox="0 0 300 300">
  <defs>
    <style>
      .cls-1 {
        fill: #202020;
      }

      .cls-2 {
        fill: #b51a25;
      }
    </style>
  </defs>
  <g>
    <path class="cls-2" d="M183.75,76.16h0c-.93-.91-.9-2.35.07-3.2l3.86-3.4c.97-.85,2.52-.81,3.45.1h0c.93.91.9,2.35-.07,3.2l-3.86,3.4c-.97.85-2.52.81-3.45-.1Z"/>
    <g>
      <path class="cls-1" d="M183.33,76.49c.06.02.1-.04.12-.07,0-.02.02-.03.02-.03,0,0,0,0,0,.02v.02s0,0,0,.01h0s0,.01,0,.01h0s0,0,0,0h0s0,0,0,0l.3-.31-.3.31h0s0,.01,0,.01h-.02s-.03.04-.03.04c-.02.01-.04.02-.05.03-.03,0-.04,0-.02-.05Z"/>
      <path class="cls-1" d="M183.76,76.65c.36-.2.49-.13.63-.01.14.11.31.25.52.05.04-.02-.11.4,0,.33.44-.5.76-.14,1.33.2v.12c.11.06.11-.35.2-.32.03.07,0,.11.06.21-.05-.23.12-.16.09-.34.07.07.13.25.22.32l-.06-.27c-.16-.63.32-.11.29-.5.03.06.04.1.09.15,0-.48.26-.64.4-.95.05.08.16.22.24.28-.18-.22-.15-.34-.13-.43.22.19-.07-.29.11-.23l.04.05c-.15-.28.19.06,0-.25l.18.14c-.25-.33.22.09.12-.1l-.06-.06c-.03-.11.13.02.12-.06l.04.03c.02-.16.22-.03,0-.27.2.16,0,.16.29.4.07-.5.42-.72.71-.99.12.07.17.08.25.16-.01-.07.07-.14,0-.29,0,.01.13.11.15.1.13.04-.17-.32-.02-.26.03.08.09.17.18.25-.11-.23-.02-.26-.02-.37.03.05.03.09.1.16-.12-.27.16-.06.1-.24l.1.16c.24.09-.23-.31-.06-.28.02.06.07.11.12.17-.15-.32.04-.34.04-.49.01.02.05.06.05.06.05-.1.21-.1.2-.29.09.03.29.35.33.22-.25-.28.04-.24-.28-.51.11-.02.32-.02.28-.15.06.13.34.31.3.39l.19.13c.09.12-.08,0,.06.13.02-.03.02-.23.09-.22-.1-.22-.36-.55-.34-.66.08.13.34.23.37.3-.15-.19-.31-.37-.48-.54,0-.03.25.16.19.07-.08-.05-.12-.1-.19-.15.05.01-.03-.14.31.01.14.05.04.09.18.11.03-.06-.08-.12-.06-.18l.05.02c.07-.02-.1-.17-.31-.2-.02.02.21.07.1.07-.19-.1-.22-.17-.22-.22.05.03.15.06.24.1-.26-.16-.33-.23-.44-.31-.17-.03.31.08.22.07.26-.07-.32-.2.03-.26.03.01-.25,0-.2,0,.02-.04.27-.04.18-.07.15-.01-.04-.03-.1-.05-.11,0,.07-.01.09,0-.13-.04-.37-.11-.19-.24-.09.03-.36.07-.35.06l.22-.07c.13-.06-.04-.05.14-.12-.27.06.28.07.06.09.17-.08-.37.05-.07-.05-.03-.04-.27.05-.09-.08-.03.02.3-.11.27-.14-.06-.04-.11.03-.2.03l-.1.02c-.19.11,0-.06-.2.09.15-.11-.13.01.17-.2l.24-.16s-.28.14-.39.21c.02-.02.06-.06.1-.09-.35.28,0-.07-.29.14.09-.14-.06-.09.1-.31-.12.07-.24.18-.22.08.03-.03.05-.03.11-.11.06-.12-.02-.03-.08.01.04-.05.1-.25.15-.4-.11.09-.22.31-.3.43.18-.41-.22.2-.08-.17.04-.05.15-.17.16-.28.13-.42-.21.26-.19.04l-.11.35c.05-.22-.14.17-.02-.18-.06.12-.04-.13-.12.21-.03-.32-.22.13-.22-.5-.02.06-.06,0-.06.18.01.2.04-.14.04,0-.01,0-.02.11-.03.16-.02-.08-.05-.11,0-.4-.08-.23-.09.6-.17.46,0-.15-.01-.2-.04-.18l-.02.26c-.05-.05-.07-.33-.09-.58-.03.05-.08.04-.06.23l-.1-.3c.07.22,0,.15,0,.22v-.06c-.02-.1-.05-.03-.07,0,.04.15.09.2.12.24,0,.11-.02.09,0,.22-.05-.24-.09-.15-.12-.17-.04-.04.04.22.03.21-.04-.12-.05,0-.08-.18,0-.04.06.11.04,0-.04-.08-.12-.3-.1-.13.01.12.17.45.07.32-.02-.06-.04-.15-.06-.24l-.09-.1.08.21c-.02-.05-.03-.07-.04-.1.08.22-.04.09.06.34,0,.03-.11-.12-.14-.13v-.02c-.09-.11-.09,0-.02.13l-.02-.04s-.03.04.03.15c-.12-.12-.5-.67-.37-.42-.04.04.21.36.31.46-.13-.1-.04.32-.34.12.05.08.09.11.1.18-.19.05-.11.45-.51.22-.02-.1-.14-.17-.23-.26.1.18-.18-.12.04.15.14.15.2.22.29.25,0,.15-.13.26-.3.16.08.05.11.11.13.17-.21-.25-.3-.23-.27-.11l.12.15-.16-.13c.02.06.25.32.08.22-.05-.05-.11-.11-.15-.14.06.16.17.42.01.34l-.23-.18s.08.2.17.23c-.2-.05-.27-.02-.46-.18.25.58.05.79-.15.91l-.09-.11c-.14-.06.15.21.05.17-.08-.12-.24-.2-.31-.36-.17-.06.08.27.08.35.12.15-.05-.12.11.07.04.06-.19-.03,0,.2-.09-.07-.22-.24-.29-.34l.05.14c-.27-.21-.29-.56-.62-.82v.07c-.24-.2-.14-.35-.3-.34.05.14.3.49.42.55-.03.14.42.55.31.62-.14-.11.05-.09-.13-.26-.2-.14,0,.17-.09.15.12.05.27.3.28.36-.14-.06-.15-.23-.24-.2.1.14.12.28.25.32.23.31-.14-.02.02.23-.2-.18-.34-.52-.5-.56.18.18.14.34.43.6-.08-.03-.21-.18-.3-.32-.15-.08.21.44-.14.07l.16.21c-.07-.05-.13-.09-.25-.17-.04.03.12.37-.14.07.02.04-.08.1.14.28.16.08-.08-.2.2.05-.24-.2-.05.09,0,.2l-.11-.11c.02.06-.04.07.06.21-.05-.08-.12-.15-.16-.17l.14.19c0,.15-.29-.29-.31-.18l-.07-.18s-.15-.1-.14-.02c.13.17.28.38.37.52.02.1-.18-.17-.07.03l-.12-.24c-.04-.06-.27-.24-.32-.19.02.08.17.36.3.4-.02.03-.15-.04-.23-.18-.01.11.16.17.2.31-.11-.09-.31-.18-.49-.3l-.18-.31-.04.03c-.14-.26-.17-.14-.34-.39-.06-.01-.02.09.01.17.39.3.35.57.68.87.07.1-.77-.75-.31-.23.09.07.32.31.25.21-.05-.02.32.31.18.19-.13-.13-.36-.27-.54-.46.11.1.1.06.07.02-.13-.1-.33-.3-.36-.26.01.05,0,.08.18.22.2.15,0-.04.19.13.05.08-.27-.14.09.13-.02-.04.19.11.33.22l.08.07-.14-.1c-.11-.05.25.18.21.15l-.29-.16c-.24-.15.13.05-.27-.21-.03.01.17.14.06.09-.03-.02-.04-.04-.07-.06-.02,0-.56-.29-.27-.08.12.08.15.08.3.16.03.05.2.13.22.15-.32-.12-.04.02-.37-.11.2.05.19.01-.1-.14-.37-.16.07,0-.29-.21-.03.04-.39-.13-.63-.23-.03.01.06.08.1.11.22.11.23.08.46.19-.08.03.01.14.24.24-.12-.02-.35-.09-.37-.13.05.1,0,.16-.09.23.4.01.08.09.42.09.09-.02.38,0,.55.04-.03,0-.17-.02-.26-.03.22.04-.35,0,0,.04-.13-.05-.49-.05-.8-.09.17.07-.22-.02-.23.04.16.08.31.14.38.19-.29.1.02.19.05.24-.14.07-.5.14-.54.21.03.05.35-.15.22-.03h-.07c.08,0-.17.25.31.07l-.36.13s.06,0,.11,0c-.11.05-.21.12-.3.12-.21.17.09.1.13.15l.18-.14c.21,0,.04.17.17.2l-.18.13.14-.03c-.18.12-.25.25-.09.17-.17.07-.35.13-.54.18.07-.12.25-.11.41-.26.14-.13.04-.17-.15-.07,0,.05.04.02.12,0-.25.18-.27.12-.47.2.02.01-.04.1.05.05-.15.04-.2,0-.25-.07.13,0,.15-.12.24-.14-.24.13-.36.09-.33-.04.25-.19-.27-.1-.23-.27.28-.04.5-.06.63-.04.11-.11-.03-.07.08-.17-.2.04-.52.11-.66.05l.19-.06c-.12-.06-.41,0-.39-.13.06-.23.05-.43.07-.59h.2c-.43-.1-.15-.29-.31-.43.22-.16-.08-.5.29-.49-.02-.38.03-.77.35-1.02l.18.24c-.12-.19.15.08.16,0-.22-.11-.17-.27-.26-.43.3.02.23-.24.19-.48l.14.15c-.17-.36.15-.2.3-.25.07.05.21.18.23.13-.16-.3-.11-.31-.17-.53.06-.05.21-.08.36-.04-.07-.55.36-.54.41-.96l.18.16c-.1-.59.49-.49.51-.86l.25.32c.15.04.07-.21-.14-.41.14.04.02-.29.29-.07.11,0-.05-.21-.03-.3.23,0,.25-.07.32-.23h-.05c.05.09.16.22.21.21-.03-.12.24-.06-.13-.39.31.1.15-.44.52-.26-.1-.09-.08-.14-.13-.22.05-.05.16-.05.24-.07.12-.05.22-.11.23-.26.07.03.08.22.17.17.02-.08-.1-.14-.08-.25.23-.46.85-.19,1.14-.36.54-.44,1.27-.38,1.87-.34l-.02.1c.28-.34.38.46.67-.04.02.1.17.1.07.27.25-.2.32.38.67.19-.01-.02-.04,0-.08.02.1.3.44.15.53.47-.05.02-.1.02-.16.09-.04.2.43-.19.17.21.04.03.18-.15.15-.17.28.47.88.73,1.24,1.29-.1.51-.73.3-.29.49-.08.05.18-.04.09,0,.17.09-.46.32-.2.33.27-.1.17.02.34-.01-.14.29-.4.34-.16.51h-.15c.44.2.2.45.67.71-.05.7-.24,1.4-.63,2.02-.51.72-.67.88-.94,1.18-.63.43-1.04,1.09-1.8,1.41-.4-.18-.4-.16-.45.09-.04-.05-.04-.07-.09-.11.21.25-.08.12.11.36-.25.14-.39.38-.61.58.01-.06-.15-.27-.18-.22l.1.2-.07-.06c0,.06.08.21.18.26-.09.18-.22.31-.37.41-.04.03-.26.18-.39.25-.15.09-.32.15-.47.22-.65.23-1.29.27-1.89.37-.3-.1-.69.01-1.03.04-.9-.59-1.32-1.19-2.17-1.55,0,0,.68-.52,1-.52Z"/>
      <path class="cls-1" d="M183.21,76.41c.1-.13.13-.24.33-.34-.11.1-.22.25-.33.34Z"/>
      <path class="cls-1" d="M184.2,74.52s.07,0,.1,0c.01.01.15.03.06.03-.01,0-.09-.01-.16-.02Z"/>
      <path class="cls-1" d="M184.33,74.34c.14.04.24.1.26.12-.09-.03-.18-.07-.26-.12Z"/>
      <path class="cls-1" d="M184.94,74.43c.11.05.17.08.17.08-.07-.03-.1-.05-.17-.08Z"/>
      <path class="cls-1" d="M184.64,74.28s.08.02.16.06c-.11-.06.06.05-.16-.06Z"/>
      <path class="cls-1" d="M185.12,74.35s-.04-.14.09-.04c-.09-.07.04.21-.09.04Z"/>
      <path class="cls-1" d="M185.28,73.91s.04.02.02-.03c.06.03.11.13.11.16l-.13-.13Z"/>
      <polygon class="cls-1" points="189.92 70.16 189.87 70.22 189.93 70.08 189.92 70.16"/>
      <path class="cls-1" d="M190.67,71.52c.08.05-.14-.02-.16-.03,0-.02.17.06.16.03Z"/>
      <polygon class="cls-1" points="190.43 72.93 190.44 72.92 190.63 73.14 190.43 72.93"/>
    </g>
  </g>
  <g>
    <path class="cls-2" d="M203.69,127.45s25.58,1.62,23.23-4.12c-4.47-10.91-25.55-39.05-44.17-49.2-24.18-13.16-64.41-2.4-63.57,5.03.5,4.49,4.89,9.68,4.89,9.68,0,0-2.52,4.08-2.88,10.34-.35,5.91,23.2,2.36,46.18,8.34,18.71,4.87,36.33,19.93,36.33,19.93Z"/>
    <g>
      <path class="cls-1" d="M204.39,126.41c-.99.08.5.54-.65.19.14-.23.34-.4.65-.19Z"/>
      <path class="cls-1" d="M201.56,124.79c-3.45-.76-6.01-4.45-9.52-5.54-.38-.16.54-.65-.36-.97-3.51-.85-7.74-4.09-11.14-6.71l.33-.1c-.66-.49-1.87-.2-2.59-.65.06-.15.34-.09.25-.37-.38.33-1.49-.41-1.96-.22-.24-.3-.06-.63-.39-.99l-.65.31c-.85.32-1.6.02-2.39-.36-.79-.38-1.61-.89-2.58-.84.12-.09.33-.14.22-.29-1.54-.03-3.13-.4-4.8-.68-1.66-.31-3.35-.63-4.98-.81.16-.16.35-.48.2-.73-.27.52-1.28.49-2.16.44-.29-.65-1.56.28-2.52-.2l.11-.11c-.84.49-1.06-.51-1.77.12l-.41-.52c-.44.77-1.03-.56-1.7-.23v.17c-.61.12-.86-.32-1.42-.25l-.04-.1c-1.29.06-1.99-.46-2.02.18-.39-.56,1.26-.1.64-.92-4.27.2-8.58-.23-12.83-.5-.46-.29-.77-.39-.86-.64-.43.1-1.6,0-2.01.31.14,0-.25-.34-.47-.39-.75-.3-.9.64-1.72.28.35-.14.48-.34.39-.58-.76.44-1.72.28-2.6.35.14-.09.36-.14.34-.34-.99.47-1.69-.3-2.55-.06l.36-.32c-1.24-.63-.5.72-1.6.27.29-.07.22-.23.29-.37-.58.25-1.3.23-2.01.11-.35-.06-.75-.15-1.1-.26-.36-.09-.69-.2-1-.3.1-.01.14-.1.14-.1-.61-.23-1.15-.64-1.54-1.17-.41-.54-.52-1.23-.59-1.92.11-.31.38-.26.58-.39.17-.09.28-.27.29-.79-.77-.03,0-2.12-.93-1.53.29-1.06.99-2.64.97-3.39.13.54,1.02-.22.82.63.2-.17.42-.33.62-.49.26.18-.3.6.13.52.09-.41.22-1.68.49-1.99-.04-.38-.14-.79-.23-1.14-.12-.44-.23-.83-.12-1.24.02-.07-.15-.15-.21-.24.32.17.52.1.66-.01.15-.11.23-.25.4-.09-.52-.29-1.13-.49-1.6-.64-.26-.08-.5-.14-.73-.18-.22-.25.49-.31-.03-.74-.14.14-.41-.03-.65-.11-.03-.18-1.17-1.52-.61-2.06.16-.31.49.56.47,0-.41-.71-.64-.63-1.02-1.36l.08-.06c-.14-.52-.93-1.37-1.07-.66.13.38.34-.3.38.31-.55-.18-1.05-1.1-1.3-1.98.19.27.38.17.61.23-.41-.4-.77-1.07-1.02-1.8-.29-.82-.28-1.75.02-2.64-.32-.14.33.81.11.97.51-.95.99-1.85,1.65-2.71.64-.81,1.22-1.35,2.02-1.47-.16.18-.38-.34-.31-.27.73-.42.95.05,1.31-.38.19.23.52-.4.96-.73.15-.32.19.06-.21.31.51-.6,3.06-2.24,4.79-2.37-.1-.18.74-1.02,1.12-1.12v.48c.42.15,1.21-.43,1.39-.07.6-.79-2.84,1.42-1.92.67.39.26,1.23-1.18,1.2-.51.72-.25,1.29-.96,2.12-.74-.23-.01-.42.78.16.58,1.02-.37.24-.29,1.05-.67l.49-.32c-.07-.44.96-.18.44-.56.22.32,1.49-.59,1.55.16l-.02.6c.44-.14.61-.76.92-1.09.07.04.22.13.21.23-.11-.88,1.11-.16,1.53-.93,1.02.11,2.48-.41,3.02.07.7-.38,1.34-.8,2.23-.71-.16.1-.39.16-.41.36.57.19.67-.06,1.14-.26-.09.15,1.13.39,1.75.65.71-.34.42-.79.46-1.09.76.81,2.07-.75,2.99,0-.25.13-1.06.51-.43.68.73.83,1.33-.73,2.46-.35l-.3-.72c.51.43,1.62-.47,1.53.27.37-.28,1.31.22,1.18-.49,1.81.57,4.46-.31,5.52,1.03.27-.1.91.06.8-.32-.41-.42-.62.25-.77-.03.23,0,.3-.2.33-.3.56.19.99.28.42.83,1.21.53,1.38-1.12,2.97-.68-.1.28,0,.41.48.41l.95-.4c1.02.25.5.74.46,1.24.56-.02,1.22.11,1.52-.22l.56.72c-.41-.53.5-.22.77-.3l-.28.08c.06.22.71.2,1.04.21-.02-.32-.64-.56-.98-.71.32-.17.75-.04,1.16-.22-.21.46.83.51,1.25.66.47.21.65-.31.8-.26-.04.25.8.23.34.48-.19.04-.33-.33-.66-.17.29.26.15.67.9.52.57-.11.09-.97.99-.44-.29.06-.38.23-.62.36l.84.47.15-.42c.09.14,0,.16.04.23.39-.39,1.41.23,1.76-.21.47.09.87.58,1.28.77h-.09c.45.42,1.19.5,1.73.37l-.06.08c.28.13.97.32,1.42.21.6.59-.38,1.66.6,1.45.71.27,1.43-.26,1.26-.66,1.15.83,2.95.9,3.74,2.18.26-.05.21-.22.61-.1.84.6,1.84,1.05,2.75,1.54.87.54,1.64,1.14,2.06,1.96-.59-.18-.29.34-.43.56.63-.05.23.67.77.21.2-.35.35-.48-.02-.95,1.15.49,2.59,1.64,2.88,2.35-.15-.35.13-.29.41-.22-.46.45.17,1.07.84,1.31l.32-.25.09.58c.28.06.75-.46,1.01.27-.07.14-.14.28-.12.45.73.21,1.82.44,2.17,1.18l.09.83c.28.16.92.26.6-.23.74,1.1,1.28,1.72,1.24,2.35,1.2.32,2.43,1,3.51,1.88,1.08.88,2.09,1.92,2.95,2.86l-.26.15c.27.69.61-.09.79.4-.35.03-.09.8-.7.64.44.93,1.22.58,1.75.96.35-.19-.53-.21-.09-.45.18-.01.7,1.2,1.23.92,0,.33-.45.48-.71.54l.61.25c-.01.99-2.02-.4-2.12.72l.44.34c-.1.79-1.48-.59-.71.55.61.24,1.58.05,1.42-.51.95.81,1.42-.5,2.27.54-.02.5-.76-.76-.95-.24.06.79,1.03.78,1.27,1.31-.24-.61.55-.6.89-.37.24.7-.71.03-.12.79.36-.1,1.13.41.81-.32.81-.23.5.9,1.29.92-.21.58-1.59.04-1.11,1.02.29-.46,1.37.56,1.6-.36.15.42-.13.71-.57.68.13.66,1.64.52.98,1.32l.54-.18c-.01.25.05.54.02.95.33.4,1.62.87.96,1.33.17.08.87,1.05,1.02.34-.19-.8-.84-.43-.51-1.22-.15.79.72.8,1.15,1.02l-.2.24c.25.13.56.64.92.56-.26-.05-.36.16-.3.37l.54-.07c.83.69-.5.69.23,1.41l-.76-.39c.16.09.03.62.44.92.45-.11,1.07-.13,1.44-.19.49.35-.23.5.45.69l-.85-.29c-.18,0-.27.82.19,1.43.41.3,1.36.55,1.09-.21.23.31.34.89-.09.83.63.61.31-.36.97.09-.04.41.17,1.43.16,2.15l-1.03-.23.29.43c-.85-.22-.17.53-.88.57.12.34.53.57.85.76.21-1.4,1.75.2,2.31-.54,1.01,1.05-1.27,1.92.69,2.41.06-.33,1.01-.11.3-.73.4.8,1.07.03,1.34,1.12-.73-.46-.3,1.18-1.35.52.29-.09-.15-.65-.32-.74-.08.49-.78.42-.3,1.18.37.42.79,1.04,1.12.71.42-.29-.5-.68.12-.66.76.83.18,1.4,1.19,1.33-.42-.57-.07-1,.23-1.17l.61.6-.37.04c.47,1.27.72.02,1.31,1.18l-.27.85c-.65.03-.74-1.73-1.42-1.06.39.73.94.73,1.13,1.52-.16-.11-.3-.3-.46-.41.12.28-.78,1.12.41,1.82.54.41.37-.01.68-.17.18.29.35.51.51.7.08.09.16.18.23.26.07.08.14.15.24.28.38.44.7.96,1.04,1.63-.43-.06-.12.6.06,1.03.07.36.08.54-.35.03-.02,0-.05-.04-.09-.07.06-.33-.25-1.25-.71-2.12-.11-.19-.25-.41-.36-.55-.09-.12-.19-.22-.29-.32-.2-.19-.41-.31-.61-.34-.48.81-.4-.98-1.25-.84.49.95-.23,1.28-.61,1.68.1.27.43.42.58.53.49-.12.31-.45.74-.71.09.23.19.43.31.64.14.26.3.51.46.77.31.52.66.99,1.02,1.4.14.21.28.39.42.56-.11.53-.66.32-.89-.22.17.41.33.84.48,1.27.06.22.06.43.09.65,0,.22-.05.44-.08.66-.25.89-.94,1.55-1.67,1.95.74-.09.45.26,0,.57-.42.32-.99.57-.39.66.51-.17,1.05-.29,1.44-.34.38-.05.64.03.56.35-.58.41-.25-.24-.61-.17-.19.39-.61.46-1,.51-.41.04-.76.07-.95.55.84-.54.74-.75.45-.94-.29-.18-.74-.35-.81-.66-.85.72-.22-.35-1.25,0-.42.33-1,.61-1.6.88-.51.23-1.04.43-1.55.57-1.38-.39-3.26.36-4.42.44-.62-.28-.25-1.01-.9-1.1-.75.05.6.74-.54.46l.1-.15c-.33.19-2.05-.41-2.36.61l.33-.77c-.21-.06-.4.11-.57.2-.01-.25-.26-.47.08-.64-.69-.52-1.43.1-2.18.12l.48.45c-1.28.36-2.13-.1-3.37.03l.05-.44-.74.25c.19-.42-.47-.72-.87-.38l1.92-1.03c.52.27-.59.52-.27.97.27.39,1.42.29,1.6-.14-.43-.06-.46.04-.8.2-.13-.62.53-.58.86-.99-.23.02-.55-.17-.6.02.45-.29.9-.34,1.64-.35-.5.24.27.38.08.56.06-.55.77-.71,1.68-.57.66.62,1.7-.43,2.75-.3-.4.57-.94,1.03-1.58,1.26.68.26.74-.04,1.42.22.31-.43.51-1.06,1.36-1.36l.07.4c.77-.25.73-.85,1.72-.82.85.03,1.7-.01,2.49-.1.39-.04.78-.09,1.13-.15.18-.03.35-.05.51-.08.13-.02.25-.05.37-.07l.17.38c.15-.48.49-.65.9-.82.4-.16.87-.35.91-.69.48-.14.73-.63.57-1.06-.15-.43-.44-.76-.51-1.06-.06-.2-.05-.39.05-.58-.15-.24-.3-.41-.49-.7-.2-.29-.4-.58-.59-.87-.38-.58-.77-1.14-1.17-1.7-.78-1.14-1.53-2.3-2.3-3.61l.77.11c-.66-.22.09-.48-.27-.88-.06.77-.92-.29-1.42-.4-.38-1.37-1.78-2.52-2.8-3.26l.3-.27c-1.33-.53-1.64-2.08-2.44-3.38.03-.24.16-.69-.15-1.01-1.02-.25-1.25-.62-2.31-1.31-.52-.7-1.3-1.89-1.67-2.74-.7-.49-1.33-1.04-1.92-1.63-.61-.58-1.18-1.18-1.74-1.81-1.11-1.25-2.25-2.51-3.61-3.57l.18-.51c-2.97-1.74-5.2-5.22-7.62-6.75l.75-.41c-.46-.8-1.63-1.2-1.84-.62-.5-.76-1.91-1.13-1.89-2.01-.58-.7-1.06-.45-1.72-.81-1.21-1.33-1.76-1.72-3.19-2.6l.31.28c.25-.03.48-.31.17-.59-.65-.17-1.76-1.49-1.81-.34-.57-.72-1.46-1.28-2.39-1.7-.92-.44-1.8-.9-2.35-1.67,0,.31-.4.12-.64.2-1.3-.7-2.53-1.85-3.83-1.88-.17-.22.53-.27-.04-.53-.38-.04-.14.32-.61.29-2.43-.42-4.57-2.08-6.85-2.46-4.05-.39-8.22-1.13-12.15-1.18l.05-.19c-1.32.69-3.09-.83-4.13.31-.31-.19-1.19-.06-.97-.44-1.03.55-2.97-.38-4.45.41.14,0,.22-.04.37-.13-1.57-.31-2.86.41-4.52.23.15-.1.44-.2.47-.4-.68-.29-1.37,1.01-1.84.13-.36.06-.18.5.03.45-3.58.15-7.22,1.53-10.6,2.79-2.64.26-.65-1.47-2.38-.15-.22-.11,0,.38-.09.21-.65.51-1.53-.55-1.87.12.43.45-.21.44-.09.77-1.57.26-2.1-.04-2.95.91l-.07-.31c-.41.72-.97,1.19-1.41,1.66-.2.22-.45.52-.45.67-.01.16.04.35.21.54-.1.16-.14.35-.07.52.01.04.02.08.04.11.02.05.02,0,.06.17.07.25.2.53.29.79.24.55.51,1.1.84,1.66.31.56.68,1.11,1.05,1.65.19.27.38.54.59.81l.57.75c.21.28.43.56.66.84.11.79.22,1.58.33,2.37.05.81.1,1.62.16,2.42-.16.31-.3.61-.41.9-.12.29-.28.66-.3.73-.1.28-.19.56-.27.84-.17.57-.32,1.14-.44,1.72-.12.58-.23,1.17-.31,1.75-.04.28-.09.62-.1.85.01-.02.02,0,.02,0,.01.02.02.04.04.05,0,.04.02.06.05.08-.12-.04.41.12.8.19.39.09.86.16,1.29.23,1.82.26,3.8.41,5.8.56,4.02.28,8.17.53,12.39,1.16,1.92.98,2.06.96,4.28.87-.1.12-.24.13-.11.27.18-.64,1.55.11,1.83-.49,3.14.49,6.07.74,9.31,1.33-.53-.02-.88.46-.26.52l.71-.3.07.2c.43-.01.95-.24.56-.53,2.07.25,4.11.71,6.12,1.26,2.04.63,4.06,1.31,5.97,2.17,3.85,1.66,7.46,3.61,11.08,5.45,1.57,1.15,4.07,2.27,5.93,3.24,2.38,1.99,4.64,3.88,6.91,5.77,2.28,1.88,4.57,3.59,7.24,5.42,0,0-.46.17-1.16.2-.71.03-1.69-.09-2.81-.71Z"/>
      <path class="cls-1" d="M205.58,126.4c.2.34.89.54.31.96-.06-.31-.4-.67-.31-.96Z"/>
      <path class="cls-1" d="M225.23,128.41c-.02-.1.45,0,.56,0-.29.16-.49.49-.85.43.33-.14.21-.26.29-.43Z"/>
      <path class="cls-1" d="M229.42,123.81c.13.07.35.46.35.98.04.52-.14,1.14-.37,1.53.28-.8.32-1.74.02-2.51Z"/>
      <path class="cls-1" d="M228.18,117.69c.02-.48.19-.44.45.05-.12.11-.27-.02-.45-.05Z"/>
      <path class="cls-1" d="M227.44,117.71c-.19-.34-.13-.59-.08-.84-.21.14.57.72.08.84Z"/>
      <path class="cls-1" d="M222.87,108.83c-.15-.18-.65-.47-.51-.84-.04.33.96.74.51.84Z"/>
      <path class="cls-1" d="M219.85,105.35c-.07-.13-.06-.21-.23-.3-.05-.3.29-.19.45-.03l-.21.33Z"/>
      <polygon class="cls-1" points="150.22 65.85 150.71 65.69 150.65 65.98 150.22 65.85"/>
      <path class="cls-1" d="M117.23,80.71c.18.35.14.45.05.51-.08.06-.21.08-.22.13-.08-.26.02-.23.11-.23.09,0,.18.02.05-.42Z"/>
      <polygon class="cls-1" points="120.57 97.79 120.58 97.62 121.17 97.69 120.57 97.79"/>
    </g>
  </g>
  <g>
    <path class="cls-1" d="M125.84,88.19c-.35.02.15.28-.24.08.06-.11.14-.19.24-.08Z"/>
    <path class="cls-1" d="M208.62,125.42c-1.33-.19-1.9-1.74-3.14-2.18-.13-.07.3-.29,0-.43-1.27-.34-2.45-1.81-3.25-3.09l.14-.03c-.16-.24-.66-.16-.85-.38.05-.06.14-.03.16-.15-.21.13-.47-.25-.68-.2-.03-.14.1-.28.05-.46l-.3.1c-.76.2-.83-.76-1.53-.9.06-.03.14-.03.14-.11-1.03-.33-1.97-1.18-2.94-1.77.09-.05.23-.16.25-.28-.22.19-.53.02-.81-.12.07-.31-.57-.11-.76-.45l.06-.03c-.39.08-.2-.38-.59-.22v-.28c-.33.25-.16-.4-.46-.37l-.05.07c-.22-.05-.18-.27-.37-.33v-.05c-.4-.18-.47-.52-.65-.26.03-.3.41.17.44-.28-1.35-.64-2.54-1.55-3.73-2.42-.06-.2-.12-.3-.08-.42-.16-.03-.48-.28-.68-.23.04.02.02-.19-.04-.25-.15-.25-.44.12-.6-.16.15,0,.24-.06.27-.18-.35.06-.6-.16-.89-.26.07-.02.15,0,.19-.09-.43.05-.45-.39-.79-.4l.19-.09c-.25-.45-.33.24-.58-.09.11,0,.12-.07.18-.12-.49.07-.92-.36-1.29-.48.03,0,.06-.05.06-.05-.36-.19-.63-.53-1.09-.64-.09-.16.29-.35-.1-.52-.19.32-.69-.26-.71.22-.27-.25-.67-.67-.94-.7.21-.03.1-.48.37-.34l-.07-.31c.11-.11.17.17.21-.03-.14-.07-.59-.19-.67-.31-.36.04-.8.26-1.21.05.26,0,.12-.41.27-.39l-.91.26c-.14-.07.13-.27-.11-.3-.04.09-.15.09-.25.12-.03-.06-.58-.24-.45-.58.02-.16.25.06.18-.14-.24-.14-.32-.04-.56-.18l.02-.04c-.13-.14-.54-.14-.48.13.1.08.07-.21.18-.03-.22.12-.53,0-.77-.14.11,0,.15-.09.24-.16-.47.06-.85-.07-1.27-.18-.09.15.29-.19.3-.08-.34-.48-1.11-.27-1.32-.8.08.01-.09.23-.07.19-.21-.15-.07-.37-.27-.36.06-.14-.21-.06-.38-.1-.13.05,0-.08.14-.03-.27,0-1.22-.26-1.6-.71-.04.09-.47.16-.57.09l.15-.18c-.04-.18-.38-.18-.31-.37-.37.12,1.03.29.61.3,0-.21-.62.08-.4-.16-.23-.11-.57,0-.68-.31.05.07.33-.18.14-.27-.34-.14-.14.05-.44-.02h-.21c-.11.19-.27-.18-.27.1.04-.18-.51-.15-.31-.46l.18-.24c-.15-.06-.37.16-.54.22,0-.03-.02-.1.01-.14-.22.39-.32-.19-.64.04-.23-.28-.74-.36-.76-.68-.29.01-.56.06-.78-.15.07-.01.15,0,.2-.07-.11-.2-.2-.11-.38-.11.06-.04-.22-.39-.33-.62-.28.01-.3.27-.39.39-.03-.5-.75-.04-.85-.53.1-.02.42-.04.27-.23-.03-.51-.55.11-.81-.21l-.06.37c-.06-.27-.58,0-.41-.33-.16.08-.36-.27-.45.07-.45-.5-1.42-.36-1.54-1.09-.1.02-.28-.11-.3.08.06.24.24-.06.24.09-.08-.02-.13.07-.15.11-.15-.14-.27-.22,0-.44-.32-.36-.61.41-1.05.09.07-.13.05-.2-.1-.23l-.36.15c-.31-.15-.08-.37,0-.61-.19-.01-.4-.09-.54.07l-.12-.36c.09.26-.19.1-.29.13l.1-.03c0-.11-.22-.11-.34-.11-.02.15.17.28.27.35-.12.08-.25.01-.41.1.11-.22-.23-.25-.37-.32-.14-.1-.24.16-.28.13.03-.12-.25-.1-.08-.23.07-.02.09.16.21.08-.08-.12,0-.33-.27-.24-.2.07-.09.48-.36.23.1-.03.14-.12.23-.19l-.26-.21-.07.21c-.02-.07,0-.08,0-.11-.15.2-.46-.06-.6.17-.15-.02-.27-.24-.4-.31h.03c-.14-.2-.4-.16-.58-.05l.02-.05c-.09-.04-.33-.06-.48.04-.2-.22.11-.84-.22-.63-.25-.05-.48.31-.41.47-.41-.25-.99-.01-1.33-.44-.08.07-.06.14-.2.16-.64-.23-1.44-.05-1.87-.58.21-.05.06-.22.08-.34-.2.16-.15-.24-.27.08-.02.2-.06.29.11.41-.42.03-1.01-.09-1.19-.32.09.11,0,.16-.1.2.09-.31-.19-.42-.43-.35l-.07.19-.1-.23c-.1.04-.17.38-.35.16,0-.08,0-.15-.02-.22-.26.11-.63.32-.85.11l-.15-.32c-.11.01-.32.14-.15.26-.39-.25-.66-.32-.75-.59-.84.45-1.9.28-2.74.08l.05-.14c-.2-.18-.16.23-.3.1.1-.12-.12-.33.09-.47-.3-.21-.46.17-.69.2-.07.18.19-.09.11.14-.05.06-.42-.23-.53.05-.06-.13.04-.33.1-.43l-.22.1c-.18-.38.66-.5.48-.96h-.19c-.12-.32.55-.24.1-.42-.23.11-.47.49-.32.65-.43,0-.31.65-.76.55-.09-.19.37.02.32-.23-.17-.27-.45.05-.62-.06.19.15-.04.4-.18.43-.2-.18.2-.24-.12-.33-.08.16-.4.23-.16.39-.18.35-.32-.16-.54.1-.06-.28.44-.55.11-.75.01.26-.5.27-.38.68-.13-.1-.11-.3.02-.44-.17-.19-.56.38-.54-.13l-.11.25c-.05-.1-.13-.17-.2-.33-.17-.03-.62.25-.54-.14-.06.03-.46-.06-.35.24.22.21.32-.15.39.24-.12-.33-.36-.02-.53.05v-.16c-.09.04-.28-.02-.37.13.08-.08.06-.18,0-.23l-.13.22c-.37.06-.01-.42-.36-.41l.29-.14c-.06.03-.14-.21-.32-.16-.1.2-.26.43-.34.59-.21.06-.05-.25-.27-.07l.29-.21c.05-.06-.11-.38-.36-.41-.18.05-.48.31-.24.47-.13-.02-.29-.18-.16-.31-.3.02,0,.23-.27.32-.08-.16-.36-.41-.52-.65l.32-.31-.17-.03c.27-.25-.08-.24.1-.51-.11-.07-.27.01-.4.07.27.54-.5.59-.47,1.04-.49.04-.12-1.11-.73-.51.06.13-.23.42.09.34-.29-.1-.27.4-.59.17.29-.14-.2-.49.21-.69-.05.14.19.14.25.11-.09-.19.1-.43-.21-.48-.19.01-.45-.02-.45.21-.03.25.29.02.13.25-.38.03-.38-.36-.61.05.24,0,.25.27.22.44l-.29.06.08-.16c-.41-.19-.18.28-.59.17l-.14-.36c.15-.27.59.23.59-.25-.27-.06-.4.16-.64,0,.06-.03.14-.03.21-.06-.1-.03-.09-.66-.54-.36-.22.11-.08.16-.11.33-.45-.02-.61.14-.89.12.11-.33-.49-.11-.13-.41.11.22.75.3.96,0-.1-.42.34.11.49-.28-.35-.07-.27-.45-.29-.72-.09-.03-.21.06-.27.09-.08.24.05.25.02.5-.38-.13-.78-.05-1.04.15-.11-.14-.03-.38.13-.37-.48,0-.97-.12-1.4-.26.22.44-.51.01-.37.37.22.13.38.44.22.6-.14-.05.03-.17-.02-.27-.22.19-.24-.39-.48-.08.45-.06.16-.47.29-.76-.34.13.05-.22-.26-.27-.33.12-.73.2-1.08.21-.38-.36-1.08-.17-1.47-.22-.18-.19.01-.52-.19-.61-.26-.03.13.41-.22.19l.05-.06c-.13.06-.66-.34-.84.14l.17-.36c-.07-.04-.14.03-.21.06.02-.12-.05-.25.08-.31-.19-.3-.5-.03-.75-.06l.13.25c-.46.11-.72-.16-1.15-.14l.05-.22-.27.09c.09-.2-.12-.38-.27-.22l.73-.44c.16.16-.24.24-.16.47.07.2.46.2.56,0-.15-.05-.16,0-.29.06,0-.31.22-.27.36-.45-.08,0-.18-.11-.21-.02.18-.13.33-.13.59-.09-.19.09.07.2-.01.28.06-.27.32-.31.62-.19.18.34.62-.11.97.03-.19.25-.41.44-.65.51.21.17.26.03.46.2.14-.19.27-.48.59-.56l-.02.2c.29-.06.33-.36.67-.25.58.19,1.18.29,1.63.38v.2c.3-.39.85-.03,1.21-.16.54.28,1.28,0,1.52.4,1.04,0,1.95,0,2.99.25l-.22.26c.22-.18.09.19.29.18-.17-.27.31-.26.47-.42.43.3,1.07.16,1.52.02l-.02.2c.48-.31.93.11,1.44.26.05.09.11.3.27.3.34-.27.48-.23.93-.36.3.05.78.22,1.07.4,1.22-.26,2.33.24,3.56.18l.04.25c1.24-.29,2.57.42,3.6.35l-.17.38c.28.18.72.03.7-.27.28.18.81-.05.94.32.3.13.42-.11.69-.11.6.28.84.29,1.45.34l-.14-.05c-.08.07-.12.24.02.3.24-.07.79.27.67-.25.58.4,1.53.09,2.07.59-.02-.14.14-.13.22-.21.56.11,1.09.52,1.58.4.07.09-.19.19.03.25.15-.02.04-.17.23-.2.97-.05,1.77.75,2.61.93.77.1,1.53.29,2.27.51.74.23,1.42.56,2.11.79l-.05.09c.59-.17.92.77,1.49.39.07.13.39.2.24.34.47-.1.91.62,1.54.56-.04-.03-.08-.02-.15-.01.42.43.99.38,1.45.81-.07.01-.18,0-.24.08.13.27.67-.14.58.34.12.05.19-.17.11-.2.55.36,1.17.62,1.81.85.63.25,1.27.49,1.89.76.72.71-.32.73.51.78.01.11.13-.14.09-.05.32.02.15.68.45.56.07-.29.2-.08.29-.23.43.44.4.73.92.75l-.11.12c.69-.11,1.11.42,1.75.22,2.65,1.43,5.21,2.76,7.69,4.33,1.16.86,2.36,1.65,3.54,2.46,1.17.83,2.32,1.7,3.43,2.67.32.72.36.75,1.05,1.08-.06.03-.11.02-.11.09.23-.24.44.3.69.09.82.71,1.67,1.24,2.55,1.93-.16-.08-.39.07-.22.19l.3-.03-.03.09c.14.05.36.02.31-.15,2.37,1.52,4.08,3.77,6.21,5.49.4.53,1.19,1.03,1.77,1.45,1.29,1.72,2.44,3.21,4.22,4.47,0,0-.79.41-1.56-.03Z"/>
    <path class="cls-1" d="M126.26,88.22c.05.17.27.3.05.49,0-.16-.1-.34-.05-.49Z"/>
    <path class="cls-1" d="M132.37,90.87s.08.08.1.11c-.08,0-.18.12-.22.03.08,0,.08-.08.13-.14Z"/>
    <path class="cls-1" d="M133.97,91.22c-.05.14-.41.2-.62.18l.62-.18Z"/>
    <path class="cls-1" d="M135.39,92.06c.11.14.06.2-.11.17,0-.08.06-.11.11-.17Z"/>
    <path class="cls-1" d="M135.55,91.75c.13.02.17.11.22.2.02-.12-.3.03-.22-.2Z"/>
    <path class="cls-1" d="M138.77,92.71c.08,0,.27-.09.32.08-.06-.13-.41.12-.32-.08Z"/>
    <path class="cls-1" d="M140.33,92.75s.06.05.13.02c.08.08-.03.17-.11.17v-.19Z"/>
    <polygon class="cls-1" points="167.52 98.65 167.34 98.66 167.42 98.54 167.52 98.65"/>
    <path class="cls-1" d="M178.35,104.28c.19,0,.03.18.04.21-.14-.06.14-.13-.04-.21Z"/>
    <polygon class="cls-1" points="184.35 107.19 184.3 107.16 184.48 106.92 184.35 107.19"/>
  </g>
  <g>
    <path class="cls-1" d="M131.82,83.91c-.09.05,0,.26-.07.1.03-.11.06-.2.07-.1Z"/>
    <path class="cls-1" d="M153.89,87.97c-.4.71-.61-.12-.99.31-.04.03.08-.41-.01-.32-.38.53-.77.11-1.03-.4l.04-.11c-.05-.1-.2.28-.26.21.01-.08.04-.11.04-.21-.06.23-.14.09-.2.25-.01-.1.02-.28,0-.39l-.09.26c-.22.61-.26-.09-.47.21.02-.06.04-.11.04-.17-.31.34-.6.22-.89.31.03-.09.07-.26.07-.37-.06.28-.16.33-.24.37.02-.29-.17.24-.23.07l.02-.06c-.12.29-.06-.19-.18.16v-.23c-.1.4-.05-.23-.14-.03v.08c-.08.09-.07-.12-.13-.06v-.05c-.12.09-.14-.15-.2.17,0-.26.12-.1.13-.47-.41.26-.75.14-1.11.08-.02-.13-.04-.18-.02-.3-.05.06-.14.03-.2.19.01,0,0-.17-.01-.18-.04-.13-.13.33-.18.18.04-.08.07-.18.08-.3-.1.24-.18.18-.26.25.02-.05.04-.08.06-.18-.13.27-.13-.08-.23.08l.06-.18c-.07-.24-.1.38-.17.23.03-.05.04-.13.05-.2-.15.32-.27.18-.38.28,0-.02.02-.07.02-.07-.1.02-.18-.1-.32.03-.02-.09.09-.44-.02-.39-.06.37-.2.12-.21.54-.08-.08-.19-.24-.27-.12.06-.13.04-.45.11-.47l-.02-.23c.03-.15.05.06.06-.13-.04,0-.17.13-.19.07-.11.21-.24.62-.36.65.08-.13.04-.41.09-.46l-.27.67s.04-.29-.03-.2c-.01.1-.05.15-.08.23,0-.04-.17.06-.12-.3,0-.14.07-.07.05-.2-.07,0-.09.11-.16.11v-.05c-.03-.06-.15.13-.14.34.03.02.03-.22.05-.11-.07.2-.16.25-.22.24.03-.05.05-.15.07-.25-.14.27-.25.34-.37.44-.03.17.09-.3.09-.21-.09-.26-.32.29-.37-.08.02-.03-.03.24-.03.2-.06-.03-.01-.28-.07-.19.02-.15-.06.04-.11.07-.04.1,0-.07.04-.08-.08.11-.35.3-.44.06-.01.1-.14.34-.17.32l.05-.22c0-.14-.11,0-.08-.19-.11.26.29-.19.17,0,.01-.19-.19.34-.11.03-.06,0-.17.24-.19.02.01.04.1-.3.05-.3-.09.02-.04.1-.13.17l-.06.08c-.04.22-.07-.04-.08.21.02-.18-.15.09-.07-.27l.06-.28s-.11.29-.17.41c0-.03,0-.09.01-.13-.08.44-.08-.05-.19.28-.05-.17-.2-.05-.19-.33-.08.12-.17.27-.22.16.02-.04.04-.05.06-.14-.02-.14-.05-.02-.1.04.02-.06-.04-.27-.06-.44-.08.12-.1.36-.14.5.02-.44-.22.25-.22-.16.03-.06.13-.2.09-.31.02-.44-.17.3-.22.08l-.04.36c0-.23-.17.18-.09-.18-.05.12-.08-.14-.14.21-.09-.32-.39.12-.37-.53-.03.05-.07-.01-.09.17,0,.2.07-.13.06,0-.02,0-.04.1-.05.15-.03-.09-.06-.12.03-.4-.06-.23-.21.58-.31.42.03-.14.03-.2-.01-.18l-.12.24c-.07-.07.01-.34.05-.58-.05.03-.1.01-.16.19v-.32c0,.23-.06.14-.09.2l.03-.06c0-.1-.05-.05-.08-.02-.02.15.02.22.04.27-.04.1-.07.07-.13.19.05-.24-.04-.18-.07-.22-.03-.06-.08.21-.09.2.02-.13-.06-.03,0-.2.02-.04.01.13.05.02-.01-.1.03-.31-.05-.17-.06.11-.07.48-.13.31.03-.06.05-.15.08-.23l-.05-.14-.04.22c0-.06,0-.07.01-.11-.06.23-.13.05-.19.31-.04.02-.05-.17-.08-.2v-.02c-.01-.14-.08-.06-.15.08v-.05s-.07,0-.13.13c-.03-.18.13-.83.01-.57-.06,0-.17.38-.17.53-.08-.17-.27.17-.31-.19-.03.09-.03.14-.07.19-.15-.12-.39.2-.44-.25.06-.08.04-.22.06-.34-.07.19-.01-.21-.08.12-.03.2-.05.29-.02.38-.12.09-.26.06-.28-.13.01.1-.02.15-.05.21.06-.31,0-.38-.07-.27l-.04.19v-.2c-.03.06-.09.4-.11.21.01-.07.02-.15.02-.21-.08.15-.21.4-.24.23v-.29s-.1.19-.07.28c-.07-.19-.14-.22-.13-.47-.28.56-.54.54-.74.46l.03-.14c-.03-.14-.07.25-.09.14.04-.13.01-.31.08-.47-.05-.17-.15.23-.21.29-.04.19.06-.11.01.12-.02.07-.08-.17-.15.12,0-.12.05-.32.08-.44l-.07.13c0-.35.24-.57.25-1l-.05.04c.01-.31.18-.32.08-.44-.07.13-.19.54-.17.67-.12.06-.17.67-.27.63,0-.17.09-.02.11-.26-.01-.24-.13.11-.16.02.03.12-.06.4-.1.45-.03-.14.08-.26.01-.31-.04.16-.14.27-.09.4-.09.37-.06-.12-.16.17.02-.27.19-.6.13-.74-.03.26-.17.33-.19.71-.02-.08.01-.28.06-.43-.02-.16-.2.44-.13-.06l-.06.26c0-.09-.01-.15-.01-.3-.04-.01-.2.33-.13-.06-.02.04-.11,0-.13.28.03.18.1-.19.07.19.01-.31-.09.02-.15.12l.02-.15c-.03.06-.07.01-.12.18.03-.08.04-.19.03-.23l-.06.23c-.1.1.05-.41-.04-.36l.09-.17s-.01-.18-.06-.12c-.05.21-.13.46-.17.62-.06.08.02-.24-.06-.03l.1-.24c.02-.07.02-.36-.04-.36-.05.07-.17.36-.13.49-.03,0-.05-.14,0-.29-.08.06-.03.23-.11.35,0-.14-.04-.36-.05-.57l.13-.34h-.04c.1-.28.01-.23.09-.52-.02-.05-.07.04-.11.12,0,.49-.21.64-.26,1.08-.14.1.11-1.07-.13-.41,0,.12-.12.44-.02.33-.06-.06-.13.43-.18.23.09-.17.01-.45.15-.7-.03.14.03.12.05.08,0-.17.08-.44,0-.45-.05.03-.11.03-.15.26-.04.25.07-.01,0,.23-.1.07-.05-.31-.17.12.06-.02.03.23,0,.41l-.08.09.04-.16c-.08-.14-.08.29-.18.23v-.34c.08-.28.14.15.2-.31-.06-.03-.13.2-.17.07.02-.04.04-.04.06-.08-.02-.02.06-.63-.09-.29-.07.13-.04.16-.07.33-.12.03-.18.2-.25.22.07-.33-.12-.05.02-.38,0,.2.16.21.25-.1.03-.4.07.07.17-.33-.08-.02-.01-.41.02-.67-.02-.02-.06.08-.08.12-.05.24-.02.24-.06.49-.08-.08-.2.04-.29.26-.01-.12.04-.36.08-.38-.13.05-.24,0-.33-.09,0,.41-.14.07-.15.41.04.1.04.39-.02.56-.03-.03.03-.17.03-.26-.08.21-.01-.36-.12-.03.13-.11.1-.48.18-.78-.1.16.04-.22-.03-.23-.1.16-.22.28-.31.33-.05-.31-.26-.05-.36-.06-.02-.16.07-.51.03-.58-.06,0-.02.38-.08.21l.02-.07c-.04.08-.13-.27-.24.23l.09-.37s-.04.05-.06.08c.02-.12.02-.24.06-.31-.01-.27-.13.02-.19.02v.23c-.14.16-.17-.08-.28-.02l.04-.22-.08.12c.05-.21.02-.36-.04-.18l.25-.51c.02.14-.09.26-.1.48,0,.19.09.15.15-.06-.03-.03-.04.02-.08.09.04-.31.09-.28.16-.48-.02,0-.03-.09-.05,0,.06-.14.1-.16.17-.15-.06.11-.01.19-.04.28.05-.27.13-.34.19-.25,0,.32.18-.17.25-.07-.08.26-.17.47-.24.57.03.15.06,0,.09.15.06-.2.14-.5.23-.61l-.03.2c.08-.09.14-.39.21-.32.13.12.27.15.38.19l-.03.2c.14-.42.23-.12.34-.3.1.22.33-.14.35.22.27-.11.51-.22.75-.1l-.09.28c.08-.21,0,.17.05.14-.01-.24.11-.29.18-.46.07.25.26.03.4-.16l-.03.2c.17-.36.23,0,.35.08,0,.09-.01.28.03.26.13-.31.16-.28.29-.47.07.01.18.11.23.25.36-.41.59-.07.92-.29l-.02.24c.37-.45.63.06.91-.15l-.09.4c.05.14.19-.08.22-.36.05.14.22-.16.21.18.06.09.13-.17.2-.21.13.18.19.15.35.1l-.03-.03c-.03.09-.06.26-.03.29.07-.1.18.14.21-.35.1.3.4-.16.48.24.01-.13.05-.15.08-.24.14.02.23.31.38.11,0,.07-.07.22-.02.24.04-.04.03-.17.08-.24.26-.21.4.33.61.3.4-.19.74,0,1.09.02l-.02.1c.18-.35.2.42.39-.11.01.1.09.06.04.24.14-.24.21.29.4-.02-.01-.01-.02,0-.04.05.09.23.26-.04.37.18-.02.04-.05.06-.07.16.02.19.2-.38.15.09.03,0,.06-.23.04-.22.27.23.65,0,.98-.06.18.32-.12.78.12.47,0,.09.04-.18.03-.08.09-.12.02.54.11.3.03-.29.06-.15.09-.33.11.21.09.47.24.27l-.03.15c.2-.4.31-.15.51-.62.72.04,1.45-.12,2.15-.05.66.21,1.37.11,2.02.49.09.42.11.41.31.29-.02.06-.03.07-.03.14.07-.32.13,0,.2-.31.25.11.5.06.76.1-.05.03-.12.29-.06.28l.09-.2v.09s.1-.19.08-.3c.71-.16,1.25.6,1.91.63.13.16.37.08.55.04.42.52.8.94,1.36.73,0,0-.21.82-.45.98Z"/>
    <path class="cls-1" d="M131.92,83.9c-.01.16.03.26-.05.47.02-.15.02-.33.05-.47Z"/>
    <path class="cls-1" d="M133.17,85.83s.01.07.01.1c-.02,0-.06.14-.06.05.02,0,.03-.09.05-.15Z"/>
    <path class="cls-1" d="M133.55,86c-.03.14-.14.24-.19.25l.19-.25Z"/>
    <path class="cls-1" d="M133.81,86.65c.01.13-.01.19-.05.18.01-.08.03-.11.05-.18Z"/>
    <path class="cls-1" d="M133.89,86.33s.03.09.03.17c.02-.12-.08.06-.03-.17Z"/>
    <path class="cls-1" d="M134.61,86.89s.08-.12.07.04c0-.12-.13.17-.07-.04Z"/>
    <path class="cls-1" d="M135.02,86.74s.01.04.03,0c.01.07-.03.17-.05.18l.02-.18Z"/>
    <polygon class="cls-1" points="141.85 87.34 141.8 87.41 141.83 87.27 141.85 87.34"/>
    <path class="cls-1" d="M144.8,87.85c.06-.08,0,.14,0,.16-.04,0,.04-.17,0-.16Z"/>
    <polygon class="cls-1" points="146.52 87.42 146.5 87.42 146.56 87.13 146.52 87.42"/>
  </g>
  <g>
    <path class="cls-1" d="M166.62,90.67c-.09,0-.09.07-.09.11,0,.02,0,.03,0,.03,0,0,0,0-.02-.02l-.02-.02h-.01s0-.02,0-.02h0s.05-.12-.12.26l.08-.18.04-.09h0s.01-.03.01-.03l.02-.03s.03-.04.04-.05c.03-.02.04-.01.05.04Z"/>
    <path class="cls-1" d="M213.01,122.95c-1.02.1-1.16-1.08-2.04-1.23-.09-.04.3-.29.09-.35-.94-.05-1.54-1.09-1.88-2.02l.12-.05c-.07-.18-.48-.03-.58-.19.05-.06.12-.04.16-.15-.19.14-.31-.14-.49-.06.01-.12.14-.25.14-.39l-.26.13c-.64.28-.48-.5-.99-.51.06-.03.12-.04.13-.11-.72-.13-1.25-.71-1.86-1.07.08-.05.22-.16.26-.27-.22.19-.42.1-.6.01.13-.27-.42-.02-.47-.28l.06-.04c-.32.12-.06-.29-.4-.11l.08-.24c-.33.26-.03-.31-.27-.25l-.05.07c-.16-.01-.07-.21-.2-.23l.02-.04c-.28-.1-.24-.38-.45-.14.1-.25.27.09.41-.29-.89-.36-1.53-1.03-2.21-1.63,0-.16-.01-.24.05-.34-.11-.01-.29-.18-.46-.12.03.02.07-.16.04-.2-.04-.2-.37.14-.41-.09.11-.02.2-.08.26-.18-.28.08-.41-.08-.6-.15.06-.02.11-.02.17-.09-.34.08-.23-.29-.48-.27l.17-.09c-.06-.36-.32.23-.41-.03.08,0,.12-.07.17-.12-.39.1-.59-.23-.84-.3.03-.01.06-.05.06-.05-.21-.13-.33-.38-.63-.45-.02-.13.33-.31.08-.44-.24.28-.43-.18-.6.23-.13-.19-.3-.53-.49-.54.17-.04.22-.41.38-.31l.04-.26c.12-.1.07.13.17-.04-.08-.05-.38-.12-.4-.22-.28.06-.68.27-.92.12.19-.02.22-.36.33-.34l-.76.27c-.08-.05.18-.23.01-.25-.06.08-.14.08-.23.12,0-.05-.35-.19-.14-.49.06-.13.16.04.17-.12-.13-.11-.22-.02-.35-.13l.03-.04c-.05-.12-.35-.1-.39.13.05.06.12-.18.14-.03-.2.11-.39.02-.52-.09.08,0,.14-.08.23-.15-.36.06-.6-.03-.88-.11-.12.13.28-.17.25-.08-.09-.4-.74-.19-.71-.64.05,0-.14.2-.11.16-.1-.12.07-.31-.07-.3.09-.12-.13-.05-.24-.09-.11.04.03-.07.11-.02-.19,0-.79-.22-.9-.61-.06.08-.39.13-.45.07l.17-.15c.04-.15-.21-.16-.09-.31-.31.1.64.25.33.26.08-.18-.48.07-.24-.14-.12-.1-.41,0-.38-.26,0,.06.3-.15.2-.23-.2-.12-.12.04-.31-.02h-.15c-.15.16-.13-.16-.23.08.1-.16-.32-.13-.06-.39l.21-.2c-.09-.05-.32.13-.46.17,0-.03.03-.09.06-.12-.3.33-.15-.18-.46,0-.05-.25-.38-.35-.27-.62-.21,0-.42.03-.49-.16.05,0,.1.01.17-.05,0-.17-.1-.1-.22-.11.06-.04,0-.34,0-.54-.2,0-.32.22-.43.32.18-.43-.52-.05-.4-.47.08-.01.31-.03.28-.19.17-.43-.43.07-.47-.23l-.19.32c.06-.24-.39-.04-.14-.32-.14.06-.13-.26-.33.03-.1-.46-.8-.42-.6-1.06-.08.02-.15-.11-.24.05-.05.21.19-.04.13.09-.05-.02-.11.05-.15.09-.04-.13-.1-.21.16-.38-.08-.33-.57.33-.75.03.1-.11.11-.17.02-.21l-.29.1c-.14-.17.1-.34.24-.55-.12-.03-.22-.12-.37,0l.07-.34c-.05.24-.16.07-.24.09l.08-.02c.04-.1-.1-.12-.17-.13-.08.14,0,.26.03.34-.11.06-.17-.02-.3.05.16-.19-.05-.25-.11-.32-.05-.1-.22.12-.24.09.07-.11-.13-.11.04-.21.05-.01,0,.15.11.08,0-.11.13-.29-.08-.24-.16.04-.25.42-.33.18.08-.02.14-.1.22-.15l-.09-.21-.13.18c.01-.06.04-.07.04-.1-.18.16-.28-.1-.46.1-.09-.03-.08-.24-.14-.31h.03c-.02-.18-.19-.18-.35-.11l.03-.04s-.18-.1-.31-.03c-.04-.22.41-.74.11-.59-.14-.08-.42.21-.44.37-.15-.28-.62-.12-.66-.55-.08.06-.09.12-.19.12-.31-.28-.87-.21-.93-.75.15-.02.12-.19.18-.3-.18.12,0-.24-.2.04-.09.18-.15.26-.09.39-.26-.03-.58-.21-.61-.44.01.11-.06.14-.14.17.17-.27.04-.4-.14-.37l-.11.16.02-.22c-.08.03-.25.33-.28.1.03-.07.06-.14.06-.2-.2.07-.5.22-.56,0l.02-.31c-.07,0-.25.1-.19.22-.15-.28-.29-.37-.25-.63-.68.33-1.27.07-1.71-.2l.08-.12c-.07-.19-.18.2-.22.06.1-.11.04-.32.21-.43-.11-.23-.34.11-.49.11-.1.16.15-.06.02.14-.05.05-.18-.25-.34,0,0-.12.13-.3.21-.4l-.17.08c0-.37.57-.4.61-.85h-.12c.03-.33.42-.19.21-.4-.18.08-.45.41-.41.58-.27-.04-.4.58-.64.44,0-.19.22.06.27-.18-.02-.27-.29,0-.36-.11.07.15-.15.37-.25.39-.07-.18.2-.21.03-.32-.1.14-.32.18-.22.35-.22.32-.14-.18-.36.04.05-.27.44-.48.3-.69-.08.25-.39.21-.44.6-.05-.1.03-.29.15-.41-.05-.2-.46.31-.29-.18l-.15.22c0-.09-.02-.17-.02-.33-.1-.05-.46.19-.29-.17-.05.02-.27-.09-.29.2.07.21.24-.12.17.26.02-.32-.22-.05-.34,0l.05-.15c-.07.03-.17-.04-.27.1.07-.07.09-.17.07-.22l-.14.19c-.24.02.12-.4-.1-.42l.22-.11s-.03-.21-.15-.18c-.13.18-.28.39-.38.53-.14.04.05-.24-.14-.09l.24-.18c.05-.06.04-.37-.1-.42-.12.03-.38.25-.28.42-.07-.03-.12-.19,0-.31-.19,0-.07.22-.26.29,0-.15-.11-.42-.14-.65l.28-.27-.1-.04c.24-.21.02-.23.2-.48-.05-.07-.17,0-.27.04.02.53-.47.52-.58.96-.31,0,.23-1.07-.31-.54,0,.13-.25.38-.04.33-.15-.11-.28.37-.41.12.21-.11,0-.48.31-.64-.07.13.08.15.13.13,0-.19.18-.41,0-.48-.12,0-.27-.05-.33.17-.09.24.17.04.01.25-.24,0-.14-.37-.39.01.15.02.08.27.02.43l-.19.04.09-.15c-.2-.21-.18.26-.41.12v-.35c.17-.25.31.25.43-.2-.15-.08-.29.12-.39-.04.05-.03.1-.02.14-.05-.05-.04.11-.63-.24-.38-.17.09-.09.14-.15.31-.27-.05-.41.09-.58.06.15-.31-.27-.14.02-.4.01.22.38.34.59.07.05-.41.18.13.38-.23-.2-.09-.05-.45,0-.71-.05-.04-.14.04-.19.07-.11.22-.03.24-.12.48-.2-.15-.47-.1-.68.07-.03-.14.07-.36.17-.35-.3-.03-.58-.16-.81-.33.03.44-.32-.01-.32.34.11.13.13.44,0,.59-.08-.05.06-.16.05-.26-.18.17-.05-.39-.28-.1.29-.03.21-.44.36-.72-.24.1.08-.21-.1-.27-.24.1-.5.15-.72.15-.16-.37-.63-.22-.86-.28-.07-.19.12-.5.01-.6-.15-.04,0,.4-.18.17l.04-.06c-.09.06-.34-.36-.56.1l.19-.34s-.1.03-.14.05c.04-.12.02-.24.11-.3-.06-.3-.3-.05-.46-.09l.03.25c-.31.09-.42-.18-.69-.18l.07-.21-.19.08c.1-.19,0-.37-.13-.22l.54-.4c.07.16-.2.22-.19.45,0,.2.25.21.35.02-.08-.05-.1,0-.19.05.06-.3.19-.25.32-.43-.05,0-.09-.11-.13-.02.14-.12.24-.11.39-.07-.14.08,0,.2-.07.27.09-.26.26-.29.43-.16.04.34.41-.08.61.07-.17.23-.35.41-.52.47.09.18.15.04.25.22.13-.17.27-.46.49-.52l-.05.2c.19-.04.29-.33.48-.21.32.21.68.33.94.45l-.06.19c.29-.36.55.02.81-.09.27.3.81.08.86.48.65.08,1.23.12,1.81.44l-.21.23c.19-.16,0,.19.13.19-.04-.27.26-.22.4-.36.19.32.63.23.95.14l-.07.19c.39-.26.55.18.83.37,0,.09-.02.29.08.31.29-.23.37-.17.69-.26.18.08.43.27.55.47.84-.12,1.39.45,2.19.53l-.05.24c.88-.13,1.48.68,2.15.73l-.24.33c.11.2.44.12.53-.16.11.2.53.06.48.41.14.16.31-.05.48-.02.28.33.43.36.8.48l-.07-.07c-.08.06-.17.21-.1.28.18-.03.39.36.51-.13.21.45.93.28,1.08.81.04-.13.14-.1.22-.16.31.17.49.6.85.57.01.09-.2.14-.08.23.1,0,.09-.15.22-.15.62.11.85.85,1.32,1.08.91.33,1.64,1,2.39,1.51l-.07.07c.47-.11.32.74.86.45,0,.12.19.21.03.32.36-.05.37.61.85.57-.02-.03-.05-.02-.1-.01.14.38.54.36.7.74-.06,0-.13-.01-.2.06-.02.23.52-.1.27.31.06.05.2-.14.15-.16.48.65,1.31.97,2,1.43.26.6-.49.62.09.66-.03.09.14-.12.08-.04.22.02-.14.58.12.48.15-.25.17-.07.29-.2.15.38.03.62.38.64l-.12.1c.53-.1.67.32,1.21.14,1.43,1.14,2.92,2.1,4.29,3.25,1.25,1.25,2.68,2.23,3.83,3.63.04.58.07.59.52.78-.06.04-.09.03-.11.09.24-.23.26.19.5,0,.45.49.96.83,1.46,1.29-.1-.05-.32.12-.21.19l.24-.06-.05.08c.1.02.28-.03.28-.17,1.46.94,2.25,2.56,3.54,3.63.2.37.7.66,1.07.9.65,1.19,1.26,2.22,2.42,2.88,0,0-.7.51-1.23.29Z"/>
    <path class="cls-1" d="M166.84,90.71c0,.17.11.3-.06.47.03-.15,0-.34.06-.47Z"/>
    <path class="cls-1" d="M170.08,93.53s.03.08.03.11c-.05,0-.14.11-.15.02.05,0,.07-.07.11-.13Z"/>
    <path class="cls-1" d="M170.99,93.96c-.06.13-.3.17-.43.14l.43-.14Z"/>
    <path class="cls-1" d="M171.65,94.85c.03.14-.01.2-.11.16.02-.08.07-.1.11-.16Z"/>
    <path class="cls-1" d="M171.83,94.56c.07.02.08.12.08.21.04-.12-.19.01-.08-.21Z"/>
    <path class="cls-1" d="M173.55,95.69s.19-.07.17.1c0-.12-.29.08-.17-.1Z"/>
    <path class="cls-1" d="M174.5,95.83s.02.05.07.03c.02.08-.07.16-.12.15l.05-.18Z"/>
    <polygon class="cls-1" points="189.4 103.81 189.28 103.8 189.38 103.7 189.4 103.81"/>
    <path class="cls-1" d="M195.13,108.75c.14,0-.04.15-.04.18-.08-.05.14-.11.04-.18Z"/>
    <polygon class="cls-1" points="198.68 110.93 198.65 110.91 198.86 110.69 198.68 110.93"/>
  </g>
</svg>