<?xml version="1.0" encoding="UTF-8"?>
<svg xmlns="http://www.w3.org/2000/svg" viewBox="0 0 95 95">
  <defs>
    <style>
      .cls-1 {
        fill: #fff;
      }

      .cls-2 {
        isolation: isolate;
      }

      .cls-3 {
        fill: #ff4f20;
      }

      .cls-4 {
        fill: #f7a397;
        font-family: Icebox-Magnet-Trial-90ms-RKSJ-H, 'Icebox Trial';
        font-size: 7.74px;
        mix-blend-mode: multiply;
        opacity: .49;
      }
    </style>
  </defs>
  <g class="cls-2">
    <g id="Layer_3" data-name="Layer 3">
      <text class="cls-4" transform="translate(-134.26 -112.56) rotate(20.77)"><tspan x="0" y="0" xml:space="preserve">YUM YUM YUM YUM YUM YUM YUM YUM YUM YUM  </tspan><tspan x="0" y="8" xml:space="preserve">YUM YUM YUM YUM YUM YUM YUM YUM YUM YUM  </tspan><tspan x="0" y="16" xml:space="preserve">YUM YUM YUM YUM YUM YUM YUM YUM YUM YUM  </tspan><tspan x="0" y="24" xml:space="preserve">YUM YUM YUM YUM YUM YUM YUM YUM YUM YUM  </tspan><tspan x="0" y="32" xml:space="preserve">YUM YUM YUM YUM YUM YUM YUM YUM YUM YUM  </tspan><tspan x="0" y="40" xml:space="preserve">YUM YUM YUM YUM YUM YUM YUM YUM YUM YUM  </tspan><tspan x="0" y="48" xml:space="preserve">YUM YUM YUM YUM YUM YUM YUM YUM YUM YUM  </tspan><tspan x="0" y="56">YUM YUM YUM YUM YUM YUM YUM YUM YUM YUM</tspan><tspan x="0" y="64" xml:space="preserve">YUM YUM YUM YUM YUM YUM YUM YUM YUM YUM  </tspan><tspan x="0" y="72" xml:space="preserve">YUM YUM YUM YUM YUM YUM YUM YUM YUM YUM  </tspan><tspan x="0" y="80" xml:space="preserve">YUM YUM YUM YUM YUM YUM YUM YUM YUM YUM  </tspan><tspan x="0" y="88" xml:space="preserve">YUM YUM YUM YUM YUM YUM YUM YUM YUM YUM  </tspan><tspan x="0" y="96" xml:space="preserve">YUM YUM YUM YUM YUM YUM YUM YUM YUM YUM  </tspan><tspan x="0" y="104" xml:space="preserve">YUM YUM YUM YUM YUM YUM YUM YUM YUM YUM  </tspan><tspan x="0" y="112" xml:space="preserve">YUM YUM YUM YUM YUM YUM YUM YUM YUM YUM  </tspan><tspan x="0" y="120">YUM YUM YUM YUM YUM YUM YUM YUM YUM YUM</tspan><tspan x="0" y="128" xml:space="preserve">YUM YUM YUM YUM YUM YUM YUM YUM YUM YUM  </tspan><tspan x="0" y="136" xml:space="preserve">YUM YUM YUM YUM YUM YUM YUM YUM YUM YUM  </tspan><tspan x="0" y="144" xml:space="preserve">YUM YUM YUM YUM YUM YUM YUM YUM YUM YUM  </tspan><tspan x="0" y="152" xml:space="preserve">YUM YUM YUM YUM YUM YUM YUM YUM YUM YUM  </tspan><tspan x="0" y="160" xml:space="preserve">YUM YUM YUM YUM YUM YUM YUM YUM YUM YUM  </tspan><tspan x="0" y="168" xml:space="preserve">YUM YUM YUM YUM YUM YUM YUM YUM YUM YUM  </tspan><tspan x="0" y="176" xml:space="preserve">YUM YUM YUM YUM YUM YUM YUM YUM YUM YUM  </tspan><tspan x="0" y="184" xml:space="preserve">YUM YUM YUM YUM YUM YUM YUM YUM YUM YUM   </tspan><tspan x="0" y="192" xml:space="preserve">   </tspan><tspan x="0" y="200" xml:space="preserve">   </tspan></text>
      <g>
        <g>
          <g>
            <path class="cls-1" d="M22.01,71.73l2.15,2.38c3.47,3.84,9.4,4.14,13.24.67l38-34.32c3.84-3.47,4.14-9.4.67-13.24l-2.15-2.38c-7.9-8.75-21.4-9.43-30.15-1.53l-20.23,18.27c-8.75,7.9-9.43,21.4-1.53,30.15Z"/>
            <g>
              <path class="cls-3" d="M22.68,71.71c-.49-.45.06.43-.37-.25.14,0,.29.03.37.25Z"/>
              <path class="cls-3" d="M20.9,69.81c-.43-.33-.83-.77-1.19-1.25-.38-.47-.62-1.06-.91-1.62-.3-.56-.49-1.17-.74-1.75-.13-.29-.25-.57-.38-.85-.11-.29-.23-.56-.37-.83-.11-.26.39-.04.13-.61-.56-1.01-.9-2.48-.94-4.01-.06-.76.07-1.55.14-2.3.11-.75.32-1.47.48-2.14l.09.18c.13-.5-.07-1.17.07-1.71.07.01.07.19.19.09-.09-.09-.07-.34-.04-.6.05-.26.12-.52.07-.65.15-.19.31-.12.48-.36l-.15-.38c-.18-.52.03-1.02.3-1.54.26-.52.55-1.06.72-1.65.02.08,0,.2.11.14.49-1.93,2.02-3.91,3.45-5.57,0,.12.06.29.22.27-.11-.26.32-.79.7-1.24.37.02.58-.86,1.18-1.21v.08c.18-.55.66-.38.74-.91l.38-.06c-.09-.43.68-.34.86-.77l-.06-.05c.23-.33.51-.33.74-.62h.06c.57-.64,1.08-.82.87-1.02.38-.02-.54.64.04.58,1.89-2.12,4.08-4.02,6.19-5.93.32-.13.5-.24.63-.2.17-.23.76-.76.85-1.04-.07.07.24,0,.36-.1.46-.26.2-.62.71-.9-.11.21-.11.33.02.36.2-.5.71-.9,1.08-1.34-.03.1-.11.21-.04.27.29-.61.88-.72,1.18-1.21l-.04.27c.8-.44-.05-.44.6-.86-.1.16,0,.17.02.24.32-.71,1.24-1.4,1.7-1.96-.02.05.02.07.02.07.55-.55,1.21-1.02,1.75-1.69.28-.15.2.37.78-.21-.25-.24.99-.99.36-.99.3-.2.67-.47,1.04-.7.37-.22.71-.43.87-.61-.19.28.52.17.05.51l.48-.07c.02.15-.4.21-.19.28.24-.16.85-.77,1.12-.81.37-.43.62-1.02,1.4-1.46-.33.28.38.26.14.42l.89-1.07c.27-.13.16.23.52-.01-.05-.08.1-.2.2-.32.12,0,1.17-.44,1.39-.15.16.09-.44.2-.09.23.52-.15.51-.29,1.04-.42l.02.04c.36-.02,1.01-.34.59-.45-.25.04.13.18-.25.16.21-.24.84-.42,1.38-.52-.18.09-.14.18-.2.28.69-.39,1.48-.51,2.31-.71,0-.16-.3.32-.42.25.54.04,1.08,0,1.61-.08.53-.06,1.05-.13,1.48.09-.15.01-.06-.24-.06-.19.52.07.47.3.81.25.02.14.42,0,.78,0,.19-.08.08.08-.22.06.25-.06.85,0,1.54.08.34.05.7.09,1.04.19.33.11.64.22.9.35,0-.09.76-.12,1.01-.04l-.17.17c.19.17.81.3.79.48.3-.01-.21-.17-.7-.29-.5-.09-.98-.16-.6-.15.13.21,1.1-.01.85.22.48.19,1.04.16,1.42.53-.12-.09-.5.11-.12.26.69.25.24-.03.8.17l.37.1c.12-.17.57.33.44,0,0,.19,1.01.41.77.67l-.23.19c.29.12.58.03.86.06.02.04.06.14.03.16.27-.32.61.45,1.11.39.48.48,1.33,1.08,1.42,1.46.49.21.92.45,1.28.93-.11-.06-.23-.16-.32-.12.17.35.31.33.6.52-.1,0,.36.68.5,1.07.42.28.47,0,.61-.05,0,.61,1.12.85,1.22,1.51-.16-.09-.63-.39-.43-.02,0,.61.83.44,1.18,1.2l.14-.36c.08.38.85.85.52.97.27.15.38.86.62.63.1.33.24.66.37,1.02.15.35.28.71.38,1.07.21.71.29,1.4.02,1.82.07.18.06.64.22.54.16-.32-.17-.42-.06-.54.03.16.12.19.17.21-.03.42-.06.73-.34.36-.2.87.59.92.33,2.08-.13-.07-.19,0-.24.34.03.22.08.45.1.68-.27.71-.42.32-.65.28-.06.39-.25.82-.16,1.05-.15.11-.3.22-.45.32.34-.22-.02.34-.06.53l.03-.19c-.12.02-.26.44-.37.65.16.04.42-.35.58-.55,0,.22-.16.5-.21.79-.15-.19-.49.46-.7.7-.27.25-.1.44-.17.52-.1-.07-.39.45-.34.12.05-.12.27-.14.32-.37-.22.13-.35-.02-.56.44-.18.34.4.24-.21.65.09-.17.05-.26.1-.42l-.55.38.12.17c-.1.02-.07-.03-.11-.03.01.28-.64.66-.57.94-.21.22-.57.32-.8.5l.03-.05c-.34.15-.64.52-.77.82l-.02-.04c-.15.12-.47.45-.57.7-.47.21-.65-.47-.87.08-.36.34-.32.8-.08.77-.75.49-1.28,1.42-2.1,1.73-.04.15.06.13-.11.35-1.02.82-1.88,2.03-2.93,2.43.22-.32-.12-.17-.21-.25-.11.35-.41.11-.28.42.15.12.19.21.51.02-.51.6-1.39,1.39-1.83,1.55.22-.08.13.07.04.23-.16-.26-.62.09-.87.46l.08.18-.34.05c-.09.16.12.41-.32.57-.06-.04-.13-.07-.22-.06-.23.41-.54,1.02-1,1.24l-.47.07c-.14.16-.29.52.04.33-.73.44-1.14.78-1.49.79-.69,1.38-2.22,2.79-3.48,3.88l-.06-.13c-.42.21-.01.33-.31.47.02-.19-.44.02-.29-.34-.57.32-.45.73-.72,1.05.07.18.17-.31.26-.09,0,.1-.75.49-.64.76-.19.03-.23-.2-.24-.34l-.2.36c-.57.09.43-1.15-.2-1.1l-.24.27c-.45.02.49-.88-.24-.34-.2.36-.19.88.15.73-.56.6.15.73-.52,1.31-.29.04.5-.5.22-.55-.45.12-.54.65-.86.84.37-.2.3.24.14.45-.42.21.04-.39-.45.02.03.19-.33.66.12.41.07.42-.56.37-.63.8-.32-.05.1-.87-.5-.49.24.11-.42.82.09.84-.25.13-.4.01-.35-.23-.39.15-.41.96-.82.69l.07.27c-.14.02-.31.09-.55.13-.26.23-.6.99-.82.69-.06.1-.65.62-.25.6.47-.21.29-.52.72-.44-.45.02-.5.5-.64.76l-.13-.08c-.09.15-.39.39-.37.58.04-.15-.07-.18-.2-.11l.02.28c-.43.54-.38-.18-.83.31l.26-.46c-.06.1-.36.1-.55.36.04.23.03.56.06.75-.22.32-.28-.05-.41.34l.2-.5c.01-.1-.46-.03-.83.31-.19.27-.37.81.08.55-.18.17-.53.32-.48.07-.38.43.2.11-.08.53-.24.04-.83.31-1.24.42l.16-.59-.25.23c.15-.49-.3,0-.31-.38-.2.12-.35.38-.46.59.81-.12-.15.97.27,1.14-.62.71-1.1-.35-1.39.78.19-.03.06.51.42.03-.46.35-.01.57-.64.9.26-.46-.68.05-.3-.62.06.13.37-.2.43-.3-.28.04-.24-.34-.68.06-.24.27-.6.61-.41.72.17.16.39-.39.38-.06-.48.54-.81.36-.75.87.32-.33.56-.23.67-.1l-.33.43-.03-.19c-.7.48,0,.38-.63.9l-.49.03c-.03-.33.97-.71.57-.94-.41.34-.39.63-.84.88.06-.1.16-.21.22-.32-.15.12-.68-.18-1.02.58-.2.36.03.18.13.31-.6.61-.68.91-1.08,1.3-.07-.15-.23,0-.41.13-.17.13-.28.21-.12-.14.36-.06,1.25-.9,1.28-1.33-.48-.07.54-.41.42-.82-.52.46-.74.16-.98.05-.15.12-.22.32-.28.42.09.22.28.05.44.22-.63.47-1.04,1.05-1.29,1.52-.29.09-.36-.14-.12-.37-.69.71-1.65,1.22-2.53,1.54.72.11-.95.48-.45.61.51-.11,1.05-.05.84.22-.32.11-.05-.15-.22-.17-.33.35-.72-.05-1.01.36.87-.4.03-.48.1-.81-.57.34-.04-.2-.64-.03-.56.34-1.32.59-2.04.7-.91-.21-2.27-.09-3.08-.28-.37-.26,0-.5-.41-.68-.49-.14.26.46-.43.08l.09-.03c-.12,0-.43-.19-.75-.33-.32-.15-.64-.29-.86-.13l.38-.2c-.11-.09-.27-.08-.39-.11.05-.1-.04-.27.2-.23-.26-.45-.84-.46-1.24-.78l.12.37c-.8-.41-1.1-.99-1.7-1.55l.17-.12-.42-.28c.23-.05.02-.46-.27-.54l1.23.6c.15.34-.44-.12-.45.18-.02.26.58.77.8.71-.19-.22-.23-.2-.44-.31.14-.26.44.05.72.06-.11-.1-.2-.3-.28-.26.3.1.51.29.89.58-.32-.12.02.25-.12.24.18-.16.58.05,1.03.41.21.48,1.04.37,1.62.67-.33.13-.76.22-1.18.1.33.33.45.2.81.49.27-.09.51-.32,1.07-.28l-.02.19c.52.03.57-.25,1.17-.09,1.05.24,2.18.17,2.99,0l.07.18c.19-.22.54-.39.92-.51.37-.16.78-.28,1-.51.51-.14.97-.49,1.36-.81.37-.34.7-.62,1.03-.7,1.37-1.43,2.56-2.7,4.13-4.02l-.07.44c.14-.4.28-.04.52-.31-.45.11.18-.55.26-.84.82-.45,1.53-1.41,2.01-2.1l.15.12c.37-.81,1.3-1.24,2.1-1.88.14-.02.4-.01.61-.23.21-.6.43-.78.91-1.46.44-.4,1.2-.98,1.73-1.3,1.37-1.81,3.24-3.13,4.78-4.88l.27.05c1.35-1.86,3.69-3.39,4.94-4.85l.12.41c.52-.32.95-.99.66-1.09.52-.32.99-1.14,1.48-1.17.5-.36.44-.64.79-1.02,1.01-.72,1.33-1.05,2.14-1.88l-.23.18c-.04.15.06.28.29.1.25-.37,1.25-.99.63-1.04,1.1-.64,2-2.1,3.14-2.64-.16-.02.05-.24.09-.39.8-.73,1.82-1.31,2.33-2.05.17-.07-.06.34.27.05.16-.21-.1-.12.09-.39.58-.68,1.28-1.23,1.98-1.76.35-.26.69-.52,1.03-.77.26-.24.56-.45.74-.74.68-1,1.21-2.1,1.49-3.27.27-1.17.29-2.39.03-3.49h.09c-.25-.33-.27-.77-.38-1.2-.08-.43-.25-.82-.62-.96,0-.2-.34-.59-.11-.58-.26-.2-.48-.54-.76-.95-.33-.44-.7-.91-1.17-1.19.06.08.11.11.21.16-.28-.46-.63-.82-.99-1.18-.36-.35-.71-.65-1.02-1.1.1.05.26.16.35.12-.17-.41-.94-.41-.81-.88-.19-.15-.28.06-.16.14-1.61-1.68-3.92-2.75-6.15-3.5-.73-.46-.72-.59-.66-.7.06-.1.13-.12-.58-.16-.08-.11-.13.14-.12.05-.54-.02-.66-.73-1.08-.57.09.29-.28.1-.32.26-1-.36-1.17-.7-2.04-.56l.08-.13c-.52.16-1.04.13-1.55.16-.51.05-1,.11-1.4.34-2.65.11-5.2.79-7.48,1.91-.57.28-1.11.62-1.67.92-.54.33-1.04.72-1.57,1.07-.51.37-.97.81-1.46,1.21-.48.39-1.01.93-1.51,1.38-4.15,3.63-8.01,7.4-12.33,10.97-1.22.6-1.29.68-2.26,1.75,0-.08.06-.15-.05-.13.15.27-.73.7-.64,1.01-.79.67-1.52,1.34-2.25,2.02-.71.68-1.52,1.39-2.16,2.07.19-.24.13-.53-.12-.26l-.14.41-.1-.02c-.15.21-.23.5.02.39-1.57,1.85-2.94,3.81-3.95,6-1.01,2.17-1.63,4.56-1.63,6.97-.06.57-.1,1.27.02,1.97.05.35.09.7.14,1.05.07.34.16.66.23.96.24,3.68,1.63,7.07,4.35,9.78,0,0-.9.15-2.09-1.03Z"/>
              <path class="cls-3" d="M23.24,72.29c-.02.21.23.61-.17.47.08-.13.03-.42.17-.47Z"/>
              <path class="cls-3" d="M34,77.82s.21,0,.26.02c-.16.06-.28.23-.44.19.16-.06.12-.12.18-.21Z"/>
              <path class="cls-3" d="M37.22,76.37c.03.13-.53.68-.95.9.35-.26.64-.6.95-.9Z"/>
              <path class="cls-3" d="M39.93,74.77c.27-.09.26,0,0,.24-.07-.04,0-.14,0-.24Z"/>
              <path class="cls-3" d="M39.88,74.4c.18-.17.33-.19.47-.21-.09-.08-.37.44-.47.21Z"/>
              <path class="cls-3" d="M44.92,70.39c.11-.11.28-.42.49-.4-.19.03-.44.63-.49.4Z"/>
              <path class="cls-3" d="M47,68.23c.08-.06.12-.07.18-.17.17-.07.1.13,0,.24l-.18-.07Z"/>
              <polygon class="cls-3" points="76.84 26.54 77.12 26.78 76.98 26.82 76.84 26.54"/>
              <path class="cls-3" d="M55.18,16.98c-.32.12-.25-.1-.31-.12.3-.05-.09.17.31.12Z"/>
              <polygon class="cls-3" points="43.59 23.03 43.66 22.96 43.82 23.19 43.59 23.03"/>
            </g>
          </g>
          <g>
            <path class="cls-1" d="M24.7,41.92l8.86,9.81c1.23,1.36,1.12,3.48-.24,4.71h0c-1.36,1.23-3.48,1.12-4.71-.24l-8.86-9.81"/>
            <g>
              <path class="cls-3" d="M25.14,41.64c-.14-.06-.13.21-.14,0,.09-.06.17-.1.14,0Z"/>
              <path class="cls-3" d="M19.8,46.95c.82-.15.67.75,1.33.8.06.02-.3.25-.14.28.72-.03.96.74,1.03,1.44l-.1.05c.01.13.37-.01.41.1-.05.05-.1.04-.16.13.18-.13.21.08.37.01-.03.09-.17.2-.2.31l.23-.12c.56-.27.26.35.66.33-.05.03-.1.04-.13.09.53.05.82.46,1.21.7-.08.05-.21.14-.27.23.21-.16.35-.1.47-.05-.17.22.32-.01.3.19l-.05.03c.28-.11-.02.22.29.06l-.11.19c.31-.22-.05.24.15.18l.06-.05c.12,0,0,.16.11.17l-.03.04c.19.06.1.28.32.08-.14.21-.19-.05-.39.25.61.22.96.7,1.36,1.12-.04.13-.04.18-.12.27.08,0,.19.12.33.06-.02-.01-.09.13-.08.16-.01.15.32-.14.3.04-.09.02-.17.07-.24.16.24-.08.3.04.43.08-.05.02-.09.02-.16.09.28-.08.11.21.31.18l-.16.08c-.04.27.3-.2.32,0-.07,0-.11.06-.16.11.33-.1.41.14.59.18-.02,0-.06.04-.06.04.13.09.17.28.39.31-.02.1-.33.27-.17.35.25-.24.3.11.52-.22.05.14.11.4.26.39-.14.04-.27.33-.37.27l-.1.21c-.11.09-.03-.1-.14.04.05.03.27.07.27.15.24-.06.57-.27.72-.22-.15.05-.21.32-.29.33.21-.12.4-.24.58-.38.05.01-.15.23-.03.2.05-.08.11-.11.16-.16,0,.05.21.03.07.34-.04.13-.11.02-.12.16.09.04.15-.06.24-.02l-.02.04c.04.07.23-.06.24-.26-.03-.03-.06.2-.08.08.12-.17.23-.18.31-.16-.05.04-.07.13-.12.22.21-.22.33-.26.47-.36.04-.16-.1.28-.11.19.13.26.36-.26.47.07-.02.03,0-.23,0-.18.07.02.07.25.12.17,0,.14.07-.04.11-.09.02-.1.02.07-.03.08.08-.12.3-.36.5-.2-.02-.09,0-.35.03-.35l.05.21c.07.11.11-.05.17.12,0-.27-.23.3-.19.08.08.16.04-.37.11-.08.07-.03.04-.28.18-.12-.03-.03.06.3.11.26.09-.08,0-.1.04-.21v-.1c-.08-.19.1-.02-.04-.2.1.15.07-.16.24.14l.13.24s-.09-.29-.13-.4c.02.02.06.06.08.09-.23-.34.11-.03-.05-.32.16.06.17-.13.38.02-.03-.14-.11-.28,0-.28.02.04.02.06.08.12.13.04.05-.04.03-.12.04.05.26.07.41.09-.06-.14-.26-.23-.37-.31.39.16-.14-.29.23-.18.04.04.13.19.25.18.41.11-.21-.26,0-.28l-.33-.1c.22.03-.13-.2.19-.08-.11-.07.14-.09-.18-.17.32-.1-.09-.38.5-.44-.05-.03,0-.09-.17-.08-.18.03.13.06,0,.07,0-.02-.1-.03-.14-.04.08-.05.1-.09.37-.03.2-.14-.55-.13-.44-.27.14,0,.19-.02.16-.06l-.24-.05c.04-.09.3-.1.53-.14-.05-.05-.05-.12-.23-.11l.27-.14c-.19.1-.15-.01-.21-.02h.06c.09-.03.01-.08-.02-.1-.13.05-.17.13-.2.17-.11,0-.09-.04-.22-.04.22-.06.13-.13.13-.18.03-.06-.21.03-.21.01.11-.05,0-.08.16-.11.04,0-.09.08.01.06.07-.06.26-.14.1-.14-.12,0-.4.2-.31.06.06,0,.15-.04.23-.06l.06-.13-.19.09s.06-.04.08-.05c-.21.08-.12-.09-.34.03-.04-.02.08-.15.07-.19h.02c.08-.12-.03-.13-.17-.07l.04-.03s-.07-.06-.18,0c.08-.16.57-.54.3-.45-.07-.07-.39.14-.46.26-.02-.23-.41-.15-.28-.49-.08.04-.11.08-.18.08-.12-.25-.56-.25-.4-.68.12,0,.16-.14.24-.22-.18.08.09-.19-.16.01-.13.13-.21.19-.21.29-.18-.05-.34-.23-.27-.41-.04.09-.1.1-.17.12.23-.19.18-.31.05-.3l-.14.11.1-.17c-.07.01-.31.23-.24.05.05-.05.1-.1.13-.15-.17.03-.45.11-.4-.07l.14-.24c-.05-.01-.22.04-.22.15,0-.23-.05-.33.08-.52-.61.16-.91-.14-1.11-.42l.11-.08c.03-.15-.21.12-.18.01.12-.07.16-.24.33-.3.02-.19-.29.03-.39.01-.14.11.13-.03-.05.11-.06.03-.02-.23-.23-.06.06-.1.22-.21.32-.27l-.15.03c.17-.28.57-.21.79-.55l-.08-.03c.16-.24.37-.07.32-.27-.15.03-.49.24-.53.38-.17-.07-.53.38-.64.23.09-.14.12.08.27-.09.11-.21-.2-.04-.2-.15-.02.13-.27.26-.34.26.03-.15.23-.13.16-.24-.13.09-.3.08-.31.23-.29.2-.02-.17-.27-.03.16-.2.52-.29.52-.48-.16.18-.36.09-.57.38.01-.09.15-.22.29-.29.06-.16-.45.15-.12-.19l-.2.14c.04-.07.06-.14.14-.26-.04-.05-.4.06-.12-.19-.04,0-.14-.12-.29.1-.05.18.22-.04,0,.23.16-.24-.12-.08-.23-.06l.1-.1c-.06.01-.09-.07-.22.02.08-.04.14-.11.15-.16l-.19.12c-.17-.03.26-.28.13-.34l.19-.04s.08-.16-.02-.17c-.17.11-.37.24-.5.33-.12,0,.14-.18-.06-.09l.24-.09c.06-.03.2-.27.13-.34-.09,0-.38.12-.39.27-.04-.04,0-.17.14-.24-.13-.04-.15.15-.31.16.07-.12.13-.34.22-.53l.32-.15-.04-.05c.26-.11.12-.17.36-.32,0-.06-.11-.04-.19-.03-.24.41-.56.3-.84.6-.21-.07.66-.76.05-.47-.06.1-.35.24-.18.25-.05-.12-.36.22-.33,0,.19-.04.24-.36.52-.42-.11.08-.02.13.02.12.08-.14.31-.27.23-.36-.08-.03-.15-.1-.3.06-.17.16.09.07-.11.19-.16-.05.09-.31-.26-.08.09.05-.08.23-.2.33h-.15s.13-.1.13-.1c-.03-.2-.25.15-.33,0l.18-.27c.22-.15.08.26.38-.05-.06-.09-.25.03-.23-.12.04,0,.07,0,.12,0-.02-.04.39-.45.03-.34-.15.03-.13.09-.25.2-.15-.1-.31-.02-.41-.09.25-.2-.11-.17.21-.29-.1.17.08.34.35.19.24-.3.05.14.36-.09-.09-.11.19-.35.36-.53-.01-.04-.11,0-.16,0-.18.14-.14.18-.32.34-.06-.16-.25-.18-.48-.1.05-.11.23-.25.29-.22-.17-.09-.28-.26-.35-.44-.2.33-.2-.09-.37.18,0,.13-.14.36-.3.44-.02-.06.12-.11.16-.18-.2.08.16-.31-.12-.15.2.05.36-.28.6-.45-.2.02.16-.14.08-.22-.2.02-.4,0-.54-.07.09-.31-.29-.32-.4-.43.06-.16.34-.34.32-.44-.07-.07-.21.29-.2.08l.06-.03c-.09.02-.02-.35-.4-.07l.3-.21s-.07,0-.12,0c.09-.08.14-.17.23-.19.12-.23-.16-.12-.23-.19l-.11.19c-.24-.02-.16-.24-.33-.32l.16-.14h-.16c.16-.11.2-.26.04-.19l.55-.15c-.04.13-.24.11-.36.28-.11.15.04.22.2.11-.02-.06-.06-.03-.14-.01.2-.21.25-.13.42-.23-.03-.02,0-.11-.07-.05.15-.05.2-.02.28.05-.13.02-.11.15-.19.18.19-.16.32-.14.35,0-.16.26.3.05.33.21-.23.13-.43.21-.57.21-.04.15.07.07.04.23.17-.1.41-.27.58-.26l-.14.13c.14.02.35-.17.4-.04.09.24.25.42.35.56l-.14.13c.37-.2.33.15.56.13.02.29.47.25.3.55.38.2.72.37.95.72l-.25.13c.2-.08-.08.14,0,.17.11-.21.28-.12.44-.19-.03.28.3.3.55.29l-.14.13c.38-.11.28.24.37.43-.04.07-.15.22-.09.25.3-.12.33-.06.58-.07.08.09.16.29.15.46.62.05.73.58,1.24.75l-.14.17c.66.02.71.73,1.16.85l-.31.23c0,.17.26.14.44-.06,0,.17.34.1.16.37.03.14.23,0,.34.04.06.28.15.33.36.46l-.02-.06c-.08.04-.2.14-.18.2.14,0,.14.31.42-.06-.03.36.55.29.45.71.08-.1.14-.07.22-.11.15.16.12.5.4.49-.02.07-.19.1-.14.18.08.02.12-.11.23-.08.55.27.43,1.01.66,1.39.56.69.56,1.65.49,2.44l-.09-.02c.31.34-.45.54-.01.87-.1.04-.11.23-.26.12.15.3-.43.45-.31.86.02-.02.01-.04,0-.09-.32.16-.25.55-.6.69,0-.05,0-.11-.06-.18-.2-.02.1.48-.27.23-.04.05.12.19.15.15-.59.38-1.04,1.02-1.74,1.39-.59-.09-.25-.69-.55-.26-.05-.07.02.17,0,.08-.13.16-.33-.43-.39-.19.09.26-.04.16-.02.32-.34-.14-.4-.37-.63-.16l.02-.14c-.28.41-.59.17-.91.58-.85-.1-1.68-.38-2.41-.87-.19-.12-.35-.26-.52-.4l-.36-.31c-.21-.19-.42-.38-.62-.58-.69-.89-1.58-1.57-2.16-2.57.1-.45.08-.46-.23-.57.05-.03.08-.03.1-.08-.24.19-.16-.13-.4.04-.24-.35-.56-.58-.85-.9.07.03.28-.11.21-.16l-.2.07.05-.07c-.07-.01-.22.04-.26.15-.92-.63-1.19-1.83-1.96-2.57-.07-.27-.4-.46-.63-.62-.24-.88-.49-1.64-1.26-2.07,0,0,.66-.45,1.02-.32Z"/>
              <path class="cls-3" d="M25.27,41.74c-.09.12-.09.25-.29.33.1-.1.19-.25.29-.33Z"/>
              <path class="cls-3" d="M25.8,44.68s-.02.07-.04.09c-.03-.02-.14.05-.1-.02.03.02.08-.04.14-.07Z"/>
              <path class="cls-3" d="M26.16,45.22c-.11.08-.28.05-.35,0h.35Z"/>
              <path class="cls-3" d="M26.15,46.04c-.05.12-.11.15-.15.09.05-.05.09-.06.15-.09Z"/>
              <path class="cls-3" d="M26.41,45.86s0,.11-.05.18c.09-.08-.13-.04.05-.18Z"/>
              <path class="cls-3" d="M26.99,47.1s.16,0,.07.11c.06-.1-.23,0-.07-.11Z"/>
              <path class="cls-3" d="M27.55,47.41s0,.04.04.03c-.02.07-.12.11-.15.09l.11-.13Z"/>
              <polygon class="cls-3" points="33.19 54.9 33.15 54.83 33.27 54.89 33.19 54.9"/>
              <path class="cls-3" d="M30.39,56.16c-.07.07,0-.13,0-.15.04,0-.07.16,0,.15Z"/>
              <polygon class="cls-3" points="28.3 55.34 28.32 55.35 28.11 55.53 28.3 55.34"/>
            </g>
          </g>
          <g>
            <path class="cls-1" d="M36.89,30.91l8.86,9.81c1.23,1.36,1.12,3.48-.24,4.71h0c-1.36,1.23-3.48,1.12-4.71-.24l-8.86-9.81"/>
            <g>
              <path class="cls-3" d="M37.33,30.63c-.14-.06-.13.21-.14,0,.09-.06.17-.1.14,0Z"/>
              <path class="cls-3" d="M31.99,35.94c.82-.15.67.75,1.33.8.06.02-.3.25-.14.28.72-.03.96.74,1.03,1.44l-.1.05c.01.13.37-.01.41.1-.05.05-.1.04-.16.13.18-.13.21.08.37.01-.03.09-.17.2-.2.31l.23-.12c.56-.27.26.35.66.33-.05.03-.1.04-.13.09.53.05.82.46,1.21.7-.08.05-.21.14-.27.23.21-.16.35-.1.47-.05-.17.22.32-.01.3.19l-.05.03c.28-.11-.02.22.29.06l-.11.19c.31-.22-.05.24.15.18l.06-.06c.12,0,0,.16.11.17l-.03.04c.19.06.1.28.32.08-.14.21-.19-.05-.39.25.61.22.96.7,1.36,1.12-.04.13-.04.18-.12.27.08,0,.19.12.33.06-.02-.01-.09.13-.08.16-.01.15.32-.13.3.04-.09.02-.17.07-.24.16.24-.08.3.04.43.08-.05.02-.09.02-.16.09.28-.08.11.21.31.18l-.16.08c-.04.27.3-.2.32,0-.07,0-.11.06-.16.11.33-.1.41.14.59.18-.02,0-.06.04-.06.04.13.09.17.28.39.31-.02.1-.33.27-.17.35.25-.24.3.11.52-.22.05.14.11.4.26.39-.14.04-.27.34-.37.27l-.1.21c-.11.09-.03-.1-.14.04.05.03.27.07.27.15.24-.06.57-.27.72-.22-.15.05-.21.32-.29.33.21-.12.4-.24.58-.38.05.01-.15.23-.03.2.05-.08.11-.11.16-.16,0,.05.21.03.07.34-.04.13-.11.02-.12.16.09.04.15-.06.24-.02l-.02.04c.04.07.23-.06.24-.26-.03-.03-.06.2-.08.08.12-.17.23-.18.31-.16-.05.04-.07.13-.12.22.21-.22.33-.26.47-.36.04-.16-.1.28-.11.19.13.26.36-.26.47.07-.02.03,0-.23,0-.18.07.02.07.25.12.17,0,.14.07-.04.11-.09.02-.1.02.07-.03.08.08-.12.3-.36.5-.2-.02-.09,0-.35.03-.35l.05.21c.07.11.11-.05.17.12,0-.27-.23.3-.19.08.08.16.04-.37.11-.08.07-.03.04-.28.18-.12-.03-.03.06.3.11.26.09-.08,0-.1.04-.21v-.1c-.08-.19.1-.02-.04-.2.1.15.07-.16.24.14l.13.24s-.09-.29-.13-.4c.02.02.06.06.08.09-.23-.34.11-.03-.05-.32.16.06.17-.13.38.02-.03-.14-.11-.28,0-.28.02.04.02.06.08.12.13.04.05-.04.03-.12.04.05.26.07.41.09-.06-.14-.26-.23-.37-.31.39.16-.14-.29.23-.18.04.04.13.19.25.18.41.11-.21-.26,0-.28l-.33-.1c.22.03-.13-.2.19-.08-.11-.07.14-.09-.18-.17.32-.1-.09-.38.5-.44-.05-.03,0-.09-.17-.08-.18.03.13.06,0,.07,0-.02-.1-.03-.14-.04.08-.05.1-.09.37-.03.2-.14-.55-.13-.44-.27.14,0,.19-.02.16-.06l-.24-.05c.04-.09.3-.1.53-.14-.05-.05-.05-.12-.23-.11l.27-.14c-.19.1-.15-.01-.21-.02h.06c.09-.03.01-.08-.02-.1-.13.05-.17.13-.2.17-.11,0-.09-.04-.22-.04.22-.06.13-.13.13-.18.03-.06-.21.03-.21.01.11-.05,0-.08.16-.11.04,0-.09.08.01.06.07-.06.26-.14.1-.14-.12,0-.4.2-.31.06.06,0,.15-.04.23-.06l.06-.13-.19.09s.06-.04.08-.05c-.21.08-.12-.09-.34.03-.04-.02.08-.15.07-.19h.02c.08-.12-.03-.13-.17-.07l.04-.03s-.07-.06-.18,0c.08-.16.57-.54.3-.45-.07-.07-.39.14-.46.26-.02-.23-.41-.15-.28-.49-.08.04-.11.08-.18.08-.12-.25-.56-.25-.4-.68.12,0,.16-.14.24-.22-.18.08.09-.19-.16.01-.13.13-.21.19-.21.29-.18-.05-.34-.23-.27-.41-.04.09-.1.1-.17.12.23-.19.18-.31.05-.3l-.14.11.1-.17c-.07.01-.31.23-.24.05.05-.05.1-.1.13-.15-.17.03-.45.11-.4-.07l.14-.24c-.05-.01-.22.04-.22.15,0-.23-.05-.33.08-.52-.61.16-.91-.14-1.11-.42l.11-.08c.03-.15-.21.12-.18.01.12-.07.16-.24.33-.3.02-.19-.29.03-.39.01-.14.11.13-.03-.05.11-.06.03-.02-.23-.23-.06.06-.1.22-.21.32-.27l-.15.03c.17-.28.57-.21.79-.55l-.08-.03c.16-.24.37-.07.32-.27-.15.03-.49.24-.53.38-.17-.07-.53.38-.64.23.09-.14.12.08.27-.09.11-.21-.2-.04-.2-.15-.02.13-.27.26-.34.26.03-.15.23-.13.16-.24-.13.09-.3.08-.31.23-.29.2-.02-.17-.27-.03.16-.2.52-.29.52-.48-.16.18-.36.09-.57.38.01-.09.15-.22.29-.29.06-.16-.45.15-.12-.19l-.2.14c.04-.07.06-.14.14-.26-.04-.05-.4.06-.12-.19-.04,0-.14-.12-.29.1-.05.18.22-.04,0,.23.16-.24-.12-.08-.23-.06l.1-.1c-.06.01-.09-.07-.22.02.08-.04.14-.11.15-.15l-.19.12c-.17-.03.26-.28.13-.34l.19-.04s.08-.16-.02-.17c-.17.11-.37.24-.5.33-.12,0,.14-.18-.06-.09l.24-.09c.06-.03.2-.27.13-.34-.09,0-.38.12-.39.27-.04-.04,0-.17.14-.24-.13-.04-.15.15-.31.16.07-.12.13-.34.22-.53l.32-.15-.04-.05c.26-.11.12-.17.36-.32,0-.06-.11-.04-.19-.03-.24.41-.56.3-.84.6-.21-.07.66-.76.05-.47-.06.1-.35.24-.18.25-.05-.12-.36.22-.33,0,.19-.04.24-.36.52-.42-.11.08-.02.13.02.12.08-.14.31-.27.23-.36-.08-.03-.15-.1-.3.06-.17.16.09.07-.11.19-.16-.05.09-.31-.26-.08.09.05-.08.23-.2.33h-.15s.13-.1.13-.1c-.03-.2-.25.15-.33,0l.18-.27c.22-.15.08.26.38-.05-.06-.09-.25.03-.23-.12.04,0,.07,0,.12,0-.02-.04.39-.45.03-.34-.15.03-.13.09-.25.2-.15-.1-.31-.02-.41-.09.25-.2-.11-.17.21-.29-.1.17.08.34.35.19.24-.3.05.14.36-.09-.09-.11.19-.35.36-.53-.01-.04-.11,0-.16,0-.18.14-.14.18-.32.34-.06-.16-.25-.18-.48-.1.05-.11.23-.25.29-.22-.17-.09-.28-.26-.35-.44-.2.33-.2-.09-.37.18,0,.13-.14.36-.3.44-.02-.06.12-.11.16-.18-.2.08.16-.31-.12-.15.2.05.36-.28.6-.45-.2.02.16-.14.08-.22-.2.02-.4,0-.54-.07.09-.31-.29-.32-.4-.43.06-.16.34-.34.32-.44-.07-.07-.21.29-.2.08l.06-.03c-.09.02-.02-.35-.4-.07l.3-.21s-.07,0-.12,0c.09-.08.14-.17.23-.19.12-.23-.16-.12-.23-.19l-.11.19c-.24-.02-.16-.24-.33-.32l.16-.14h-.16c.16-.11.2-.26.04-.19l.55-.15c-.04.14-.24.11-.36.28-.11.15.04.22.2.11-.02-.06-.06-.03-.14-.01.2-.21.25-.13.42-.23-.03-.02,0-.11-.07-.05.15-.05.2-.02.28.05-.13.02-.11.15-.19.18.19-.16.32-.14.35,0-.16.26.3.05.33.21-.23.13-.43.21-.57.21-.04.15.07.07.04.22.17-.1.41-.27.58-.26l-.14.13c.14.02.35-.17.4-.04.09.24.25.42.35.56l-.14.13c.37-.2.33.15.56.13.02.29.47.25.3.55.38.2.72.37.95.72l-.25.13c.2-.08-.08.14,0,.17.11-.21.28-.12.44-.19-.03.28.3.3.55.29l-.14.13c.38-.11.28.24.37.43-.04.07-.15.22-.09.25.3-.12.33-.06.58-.07.08.09.16.29.15.46.62.05.73.58,1.24.75l-.14.17c.66.02.71.73,1.16.85l-.31.23c0,.17.26.14.44-.06,0,.17.34.1.16.37.03.14.23,0,.34.04.06.28.15.33.36.46l-.02-.06c-.08.04-.2.14-.18.2.14,0,.14.31.42-.06-.03.36.55.29.45.71.08-.1.14-.07.22-.11.15.16.12.5.4.49-.02.07-.19.1-.14.18.08.02.12-.11.23-.08.55.27.43,1.01.66,1.39.56.69.56,1.65.49,2.44l-.09-.02c.31.34-.45.54-.01.87-.1.04-.11.23-.26.12.15.3-.43.45-.31.86.02-.02.01-.04,0-.09-.32.16-.25.55-.6.69,0-.05,0-.11-.06-.18-.2-.02.1.48-.27.23-.04.05.12.19.15.15-.59.38-1.04,1.02-1.74,1.39-.59-.09-.25-.69-.55-.26-.05-.07.02.17,0,.08-.13.16-.33-.43-.39-.19.09.26-.04.16-.02.32-.34-.14-.4-.37-.63-.16l.02-.14c-.28.41-.59.17-.91.58-.85-.1-1.68-.38-2.41-.87-.19-.12-.35-.26-.52-.4l-.36-.31c-.21-.19-.42-.38-.62-.58-.69-.89-1.58-1.57-2.16-2.57.1-.45.08-.46-.23-.57.05-.03.08-.03.1-.08-.24.19-.16-.13-.4.04-.24-.35-.56-.58-.85-.9.07.03.28-.11.21-.16l-.2.07.05-.07c-.07-.01-.22.05-.26.15-.93-.63-1.19-1.83-1.96-2.57-.07-.27-.4-.46-.63-.62-.24-.88-.49-1.64-1.26-2.07,0,0,.66-.45,1.02-.32Z"/>
              <path class="cls-3" d="M37.46,30.73c-.09.12-.09.25-.29.33.1-.1.19-.25.29-.33Z"/>
              <path class="cls-3" d="M37.99,33.67s-.02.07-.04.09c-.03-.02-.14.05-.1-.02.03.02.08-.04.14-.07Z"/>
              <path class="cls-3" d="M38.35,34.21c-.11.08-.28.05-.35,0h.35Z"/>
              <path class="cls-3" d="M38.34,35.03c-.05.12-.11.15-.15.09.05-.05.09-.06.15-.09Z"/>
              <path class="cls-3" d="M38.6,34.85s0,.11-.05.18c.09-.08-.13-.04.05-.18Z"/>
              <path class="cls-3" d="M39.18,36.09s.16,0,.07.11c.06-.1-.23,0-.07-.11Z"/>
              <path class="cls-3" d="M39.74,36.4s0,.04.04.03c-.02.07-.12.11-.15.09l.11-.13Z"/>
              <polygon class="cls-3" points="45.38 43.89 45.34 43.82 45.46 43.88 45.38 43.89"/>
              <path class="cls-3" d="M42.58,45.15c-.07.07,0-.13,0-.15.04,0-.07.16,0,.15Z"/>
              <polygon class="cls-3" points="40.49 44.33 40.51 44.34 40.3 44.52 40.49 44.33"/>
            </g>
          </g>
          <g>
            <path class="cls-1" d="M47.29,21.51l8.86,9.81c1.23,1.36,1.12,3.48-.24,4.71h0c-1.36,1.23-3.48,1.12-4.71-.24l-8.86-9.81"/>
            <g>
              <path class="cls-3" d="M47.73,21.24c-.14-.06-.13.21-.14,0,.09-.06.17-.1.14,0Z"/>
              <path class="cls-3" d="M42.39,26.55c.82-.15.67.75,1.33.8.06.02-.3.25-.14.28.72-.03.96.74,1.03,1.44l-.1.05c.01.13.37-.01.41.1-.05.05-.1.04-.16.13.18-.13.21.08.37.01-.03.09-.17.2-.2.31l.23-.12c.56-.27.26.35.66.33-.05.03-.1.04-.13.09.53.05.82.46,1.21.7-.08.05-.21.14-.27.23.21-.16.35-.1.47-.05-.17.22.32-.01.3.19l-.05.03c.28-.11-.02.22.29.06l-.11.19c.31-.22-.05.24.15.18l.06-.06c.12,0,0,.16.11.17l-.03.04c.19.06.1.28.32.08-.14.21-.19-.05-.39.25.61.22.96.7,1.36,1.12-.04.13-.04.18-.12.27.08,0,.19.12.33.06-.02-.01-.09.13-.08.16-.01.15.32-.14.3.04-.09.02-.17.07-.24.16.24-.08.3.04.43.08-.05.02-.09.02-.16.09.28-.08.11.21.31.18l-.16.08c-.04.27.3-.2.32,0-.07,0-.11.06-.16.11.33-.1.41.14.59.18-.02,0-.06.04-.06.04.13.09.17.28.39.31-.02.1-.33.27-.17.35.25-.24.3.11.52-.22.05.14.11.4.26.39-.14.04-.27.33-.37.27l-.1.21c-.11.09-.03-.1-.14.04.05.03.27.07.27.15.24-.06.57-.27.72-.22-.15.05-.21.32-.29.33.21-.12.4-.24.58-.38.05.01-.15.23-.03.2.05-.08.11-.11.16-.16,0,.05.21.03.07.34-.04.13-.11.02-.12.16.09.04.15-.06.24-.02l-.02.04c.04.07.23-.06.24-.26-.03-.03-.06.2-.08.08.12-.17.23-.18.31-.16-.05.04-.07.13-.12.22.21-.22.33-.26.47-.36.04-.16-.1.28-.11.19.13.26.36-.26.47.07-.02.03,0-.23,0-.18.07.02.07.25.12.17,0,.14.07-.04.11-.09.02-.1.02.07-.03.08.08-.12.3-.36.5-.2-.02-.09,0-.35.03-.35l.05.21c.07.11.11-.05.17.12,0-.27-.23.3-.19.08.08.16.04-.37.11-.08.07-.03.04-.28.18-.12-.03-.03.06.3.11.26.09-.08,0-.1.04-.21v-.1c-.08-.19.1-.02-.04-.2.1.15.07-.16.24.14l.13.24s-.09-.29-.13-.4c.02.02.06.06.08.09-.23-.34.11-.03-.05-.32.16.06.17-.13.38.02-.03-.14-.11-.28,0-.28.02.04.02.06.08.12.13.04.05-.04.03-.12.04.05.26.07.41.09-.06-.14-.26-.23-.37-.31.39.16-.14-.29.23-.18.04.04.13.19.25.18.41.11-.21-.26,0-.28l-.33-.1c.22.03-.13-.2.19-.08-.11-.07.14-.09-.18-.17.32-.1-.09-.38.5-.44-.05-.03,0-.09-.17-.08-.18.03.13.06,0,.07,0-.02-.1-.03-.14-.04.08-.05.1-.09.37-.03.2-.14-.55-.13-.44-.27.14,0,.19-.02.16-.06l-.24-.05c.04-.09.3-.1.53-.14-.05-.05-.05-.12-.23-.11l.27-.14c-.19.1-.15-.01-.21-.02h.06c.09-.03.01-.08-.02-.1-.13.05-.17.13-.2.17-.11,0-.09-.04-.22-.04.22-.06.13-.13.13-.18.03-.06-.21.03-.21.01.11-.05,0-.08.16-.11.04,0-.09.08.01.06.07-.06.26-.14.1-.14-.12,0-.4.2-.31.06.06,0,.15-.04.23-.06l.06-.13-.19.09s.06-.04.08-.05c-.21.08-.12-.09-.34.03-.04-.02.08-.15.07-.19h.02c.08-.12-.03-.13-.17-.07l.04-.03s-.07-.06-.18,0c.08-.16.57-.54.3-.45-.07-.07-.39.14-.46.26-.02-.23-.41-.15-.28-.49-.08.04-.11.08-.18.08-.12-.25-.56-.25-.4-.68.12,0,.16-.14.24-.22-.18.08.09-.19-.16.01-.13.13-.21.19-.21.29-.18-.05-.34-.23-.27-.41-.04.09-.1.1-.17.12.23-.19.18-.31.05-.3l-.14.11.1-.17c-.07.01-.31.23-.24.05.05-.05.1-.1.13-.15-.17.03-.45.11-.4-.07l.14-.24c-.05-.01-.22.04-.22.15,0-.23-.05-.33.08-.52-.61.16-.91-.14-1.11-.42l.11-.08c.03-.15-.21.12-.18.01.12-.07.16-.24.33-.3.02-.19-.29.03-.39.01-.14.11.13-.03-.05.11-.06.03-.02-.23-.23-.06.06-.1.22-.21.32-.27l-.15.03c.17-.28.57-.21.79-.55l-.08-.03c.16-.24.37-.07.32-.27-.15.03-.49.24-.53.38-.17-.07-.53.38-.64.23.09-.14.12.08.27-.09.11-.21-.2-.04-.2-.15-.02.13-.27.26-.34.26.03-.15.23-.13.16-.24-.13.09-.3.08-.31.23-.29.2-.02-.17-.27-.03.16-.2.52-.29.52-.48-.16.18-.36.09-.57.38.01-.09.15-.22.29-.29.06-.16-.45.15-.12-.19l-.2.14c.04-.07.06-.14.14-.26-.04-.05-.4.06-.12-.19-.04,0-.14-.12-.29.1-.05.18.22-.04,0,.23.16-.24-.12-.08-.23-.06l.1-.1c-.06.01-.09-.07-.22.02.08-.04.14-.11.15-.16l-.19.12c-.17-.03.26-.28.13-.34l.19-.04s.08-.16-.02-.17c-.17.11-.37.24-.5.33-.12,0,.14-.18-.06-.09l.24-.09c.06-.03.2-.27.13-.34-.09,0-.38.12-.39.27-.04-.04,0-.17.14-.24-.13-.04-.15.15-.31.16.07-.12.13-.34.22-.53l.32-.15-.04-.05c.26-.11.12-.17.36-.32,0-.06-.11-.04-.19-.03-.24.41-.56.3-.84.6-.21-.07.66-.76.05-.47-.06.1-.35.24-.19.25-.05-.12-.36.22-.33,0,.19-.04.24-.36.52-.42-.11.08-.02.13.02.12.08-.14.31-.27.23-.36-.08-.03-.15-.1-.3.06-.17.16.09.07-.11.19-.16-.05.09-.31-.26-.08.09.05-.08.23-.2.33h-.15s.13-.1.13-.1c-.03-.2-.25.15-.33,0l.18-.27c.22-.15.08.26.38-.05-.06-.09-.25.03-.23-.12.04,0,.07,0,.12,0-.02-.04.39-.45.03-.34-.15.03-.13.09-.25.2-.15-.1-.31-.02-.41-.09.25-.2-.11-.17.21-.29-.1.17.08.34.35.19.24-.3.05.14.36-.09-.09-.11.19-.35.36-.53-.01-.04-.11,0-.16,0-.18.14-.14.18-.32.34-.06-.16-.25-.18-.48-.1.05-.11.23-.25.29-.22-.17-.09-.28-.26-.35-.44-.2.33-.2-.09-.37.18,0,.13-.14.36-.3.44-.02-.06.12-.11.16-.18-.2.08.16-.31-.12-.15.2.05.36-.28.6-.45-.2.02.16-.14.08-.22-.2.02-.4,0-.54-.07.09-.31-.29-.32-.4-.43.06-.16.34-.34.32-.44-.07-.07-.21.29-.2.08l.06-.03c-.09.02-.02-.35-.4-.07l.3-.21s-.07,0-.12,0c.09-.08.14-.17.23-.19.12-.23-.16-.12-.23-.19l-.11.19c-.24-.02-.16-.24-.33-.32l.16-.14h-.16c.16-.11.2-.26.04-.19l.55-.15c-.04.14-.24.11-.36.28-.11.15.04.22.2.11-.02-.06-.06-.03-.14-.01.2-.21.25-.13.42-.23-.03-.02,0-.11-.07-.05.15-.05.2-.02.28.05-.13.02-.11.15-.19.18.19-.16.32-.14.35,0-.16.26.3.05.33.21-.23.13-.43.21-.57.21-.04.15.07.07.04.22.17-.1.41-.27.58-.26l-.14.13c.14.02.35-.17.4-.04.09.24.25.42.35.56l-.14.13c.37-.2.33.15.56.13.02.29.47.25.3.55.38.2.72.37.95.72l-.25.13c.2-.08-.08.14,0,.17.11-.21.28-.12.44-.19-.03.28.3.3.55.29l-.14.13c.38-.11.28.24.37.43-.04.07-.15.22-.09.25.3-.12.33-.06.58-.07.08.09.16.29.15.46.62.05.73.58,1.24.75l-.14.17c.66.02.71.73,1.16.85l-.31.23c0,.17.26.14.44-.06,0,.17.34.1.16.37.03.14.23,0,.34.04.06.28.15.33.36.46l-.02-.06c-.08.04-.2.14-.18.2.14,0,.14.31.42-.06-.03.36.55.29.45.71.08-.1.14-.07.22-.11.15.16.12.5.4.49-.02.07-.19.1-.14.18.08.02.12-.11.23-.08.55.27.43,1.01.66,1.39.56.69.56,1.65.49,2.44l-.09-.02c.31.34-.45.54-.01.87-.1.04-.11.23-.26.12.15.3-.43.45-.31.86.02-.02.01-.04,0-.09-.32.16-.25.55-.6.69,0-.05,0-.11-.06-.18-.2-.02.1.48-.27.23-.04.05.12.19.15.15-.59.38-1.04,1.02-1.74,1.39-.59-.09-.25-.69-.55-.26-.05-.07.02.17,0,.08-.13.16-.33-.43-.39-.19.09.26-.04.16-.02.32-.34-.14-.4-.37-.63-.16l.02-.14c-.28.41-.59.17-.91.58-.85-.1-1.68-.38-2.41-.87-.19-.12-.35-.26-.52-.4l-.36-.31c-.21-.19-.42-.38-.62-.58-.69-.89-1.58-1.57-2.16-2.57.1-.45.08-.46-.23-.57.05-.03.08-.03.1-.08-.24.19-.16-.13-.4.04-.24-.35-.56-.58-.85-.9.07.03.28-.11.21-.16l-.2.07.05-.07c-.07-.01-.22.05-.26.15-.93-.63-1.19-1.84-1.96-2.57-.07-.27-.4-.46-.63-.62-.24-.88-.49-1.64-1.26-2.07,0,0,.66-.45,1.02-.32Z"/>
              <path class="cls-3" d="M47.86,21.34c-.09.12-.09.25-.29.33.1-.1.19-.25.29-.33Z"/>
              <path class="cls-3" d="M48.39,24.27s-.02.07-.04.09c-.03-.02-.14.05-.1-.02.03.02.08-.04.14-.07Z"/>
              <path class="cls-3" d="M48.75,24.81c-.11.08-.28.05-.35,0h.35Z"/>
              <path class="cls-3" d="M48.74,25.64c-.05.12-.11.15-.15.09.05-.05.09-.06.15-.09Z"/>
              <path class="cls-3" d="M49,25.46s0,.11-.05.18c.09-.08-.13-.04.05-.18Z"/>
              <path class="cls-3" d="M49.58,26.7s.16,0,.07.11c.06-.1-.23,0-.07-.11Z"/>
              <path class="cls-3" d="M50.14,27.01s0,.04.04.03c-.02.07-.12.11-.15.09l.11-.13Z"/>
              <polygon class="cls-3" points="55.78 34.49 55.74 34.42 55.86 34.48 55.78 34.49"/>
              <path class="cls-3" d="M52.98,35.76c-.07.07,0-.13,0-.15.04,0-.07.16,0,.15Z"/>
              <polygon class="cls-3" points="50.89 34.94 50.91 34.95 50.7 35.13 50.89 34.94"/>
            </g>
          </g>
        </g>
        <g>
          <circle class="cls-1" cx="27.21" cy="69.95" r=".56"/>
          <g>
            <path class="cls-3" d="M28.01,69.96s-.12,0-.05-.01c.05,0,.1,0,.05.01Z"/>
            <path class="cls-3" d="M27.93,69.9c-.36,0-.01-.12-.25-.11-.02,0,.18-.06.14-.06-.28.05-.13-.04-.01-.23l.05-.03s-.13.06-.12.04c.03-.02.04-.03.08-.06-.09.07-.06.01-.12.06.03-.03.09-.09.12-.13l-.1.08c-.22.2-.02-.05-.15.05.02-.02.03-.04.05-.06-.15.12-.16.07-.22.11.02-.04.06-.11.08-.16-.06.12-.09.14-.1.16.05-.13-.06.11-.04.04v-.03c-.04.13.03-.08-.03.08l.03-.1c-.06.18.02-.1-.02,0v.04s0-.05-.02-.02v-.02s0-.06-.03.09c.02-.12.02-.05.05-.22-.08.14-.11.11-.16.12-.01-.06-.01-.08-.03-.13,0,.03-.02.03,0,.11,0,0-.02-.07-.02-.08-.02-.05.02.16,0,.1,0-.04-.01-.09-.03-.14.02.12,0,.1,0,.14,0-.02,0-.04-.02-.08.02.13-.03-.02-.01.06l-.02-.08c-.05-.09.05.17.02.12,0-.03-.02-.06-.03-.09.04.15,0,.11.02.16,0-.01-.01-.03-.01-.03,0,.02-.04-.02-.01.05-.02-.03-.1-.18-.1-.15.09.15.02.07.13.23-.02-.02-.07-.06-.04-.01-.04-.06-.13-.16-.13-.18l-.07-.08c-.04-.06.02.01-.03-.06,0,.01.02.08,0,.06.06.09.18.24.19.27-.05-.05-.13-.14-.15-.16.07.09.14.17.22.25,0,0-.1-.09-.07-.06.03.03.05.05.08.08-.02-.01.03.03-.11-.07-.05-.04-.02-.03-.07-.06,0,0,.04.05.04.05h-.02s.05.04.13.09c0,0-.08-.06-.04-.03.08.06.1.08.1.08-.02-.02-.06-.04-.1-.07.11.08.14.11.19.14.07.04-.13-.08-.09-.05-.1-.05.14.08-.01.01.01,0,.06.03.08.04,0,0-.12-.05-.08-.03-.06-.03.02.01.04.02.05.02-.03-.01-.04-.02.05.03.15.06.06.04.03,0,.1.03.1.03h-.05c-.06-.02,0-.01-.08-.03.13.03-.1-.04,0,0-.09-.02.16.04.02,0,0,0,.12.03.02.01.02,0-.14-.03-.14-.03.02,0,.05.01.08.02h.04c.1.02-.01,0,.1.02-.08,0,.04,0-.12-.01h-.13s.14,0,.2,0c-.01,0-.04,0-.06,0,.15.01,0,0,.12,0-.06,0,0,0-.12,0,.06,0,.14,0,.09,0-.02,0-.03,0-.07,0-.06,0,0,0,.03,0-.03,0-.12.01-.19.03.06,0,.17-.02.24-.03-.2.03.13-.02-.05.01-.03,0-.1.02-.15.03-.2.05.15-.03.05,0l.16-.04s.02,0-.06.02c.03,0-.02,0,.06-.02-.09.04.05-.02-.15.07.03-.01,0,0,.08-.03.08-.04-.06.03,0,0,0,0,.05-.02.07-.03-.03.02-.04.02-.17.08-.09.06.26-.13.18-.09-.04.02-.08.04-.06.04l.06-.04s-.1.07-.19.12c.02,0,.02,0,.09-.05l-.12.09c.08-.06.06-.04.08-.06l-.02.02s-.01.01,0,0c.06-.04.08-.06.1-.08.04-.03.03-.02.07-.05-.07.05-.06.05-.06.05.01-.01.06-.05.06-.05-.04.03,0,0-.06.05-.01.01.04-.04,0,0-.03.03-.11.1-.05.05.03-.03.07-.06.11-.09-.02.02-.05.04-.08.07l-.04.04.08-.07s-.03.02-.04.03c.05-.05.02-.02.08-.07,0,0,0,0-.02.03h0c-.04.05,0,.02.03-.03h-.01s.02,0,.01,0c.02-.02-.23.28-.13.16,0,.02.15-.19.13-.16,0,0,0,0,0,.01.01-.02,0,0,0,0h0s-.04.1-.06.15c.04-.08-.04.09.03-.06.02-.05.03-.07.04-.09h0s0,0,0,0h0s0,0,0,0h0s0,0,0,0h0s0-.06,0,.05c.01-.12,0-.05,0-.06h0s0,0,0,0c0,0,0,0,0,0,0,.03,0-.02,0,0h0s0,0,0,0h0s0,0,0,0c.02.11.03.21.05.35v-.02c.03.14,0,.16.03.21,0-.07-.03-.26-.05-.32,0-.02-.01-.1-.03-.17-.01-.08,0-.02,0-.04,0,.01,0-.03,0,.03.02.11-.01-.06,0-.02,0-.02,0,0,0,0h0s0,0,0,0c0,0,0,0,0,0,0-.01,0,0,0,0h0s0,0,0,0h0s0,0,0,0h0s0,0,0,0h0s0,0,0,0h0s0,0,0,0h0s0,0,0,0h0s0,0,0,0h0s0,0,0,0h0s0,0,0,0h0s0,0,0,0l.04.05h0c.08.11.06.08.14.2.02.02-.01-.02-.03-.05-.07-.09-.09-.12-.15-.2-.01-.01.02.02,0,0h0s0,0,0,0h0s.1.11.1.11c-.01-.02-.01-.02-.09-.1-.01-.01,0,0-.01-.01h0s0,0,0,0h0s0,0,0,0h0s0,0,0,0h0s0,0,0,0h0s0,0,0,0c.04.03.06.05,0,0h0s0,0,0,0h0c.1.09,0,0,.1.08,0,0,.15.12.24.19,0,0-.03-.03-.04-.04-.09-.07-.09-.07-.18-.14.03.02-.02-.03-.11-.09.05.03.14.1.15.1-.02-.02-.01-.02.02,0-.16-.09-.04-.02-.17-.1h0s0,0,0,0h0s.13.07.21.11c-.07-.04.09.05.09.04-.07-.04-.12-.07-.15-.09.13.05,0-.01,0-.02.07.02.23.07.26.07,0,0-.17-.04-.1-.03h.03s.11.02-.12-.04l.17.04s-.02,0-.04-.01c.06.01.11.02.15.03.12.02-.02-.02-.02-.03h-.1c-.08-.04.02-.03-.01-.04h.1s-.06,0-.06,0c.1.01.16,0,.08,0,.08.01.17.03.25.05-.06,0-.12-.02-.23-.03-.09,0-.06,0,.04.02.01,0-.01,0-.05-.02.14.01.14.02.23.04,0,0,.04,0,0-.01.07.02.08.03.08.04-.05-.02-.09,0-.13-.02.13.02.16.04.12.05-.15-.02.08.05.04.07-.12-.04-.22-.08-.27-.1-.07,0,0,.01-.06,0,.09.03.23.07.28.1l-.09-.03s.17.07.14.08c-.06.02-.07.05-.09.07l-.09-.04c.18.1.05.08.11.14-.09-.02.03.12-.11.04.03.09.04.18-.04.2l-.09-.11c.06.08-.06-.05-.05-.03.08.07.08.12.13.19-.09-.06-.05.05-.02.15l-.05-.08c.07.16-.04.05-.09.04-.02-.03-.07-.11-.07-.09.05.14.04.14.05.24-.02.01-.07-.01-.11-.06,0,.23-.14.12-.21.26l-.02-.11c-.07.25-.2.03-.28.14l.03-.19c-.01-.06-.06.04-.07.18-.01-.06-.08.08-.06-.08-.02-.04-.05.08-.08.1-.03-.08-.05-.08-.11-.06v.02s.06-.11.05-.13c-.04.04-.04-.07-.11.14,0-.14-.17.04-.13-.15-.03.06-.05.06-.07.09-.05-.03-.01-.16-.11-.1.01-.03.08-.07.06-.09-.02.01-.05.06-.08.08-.14.03-.04-.2-.1-.23-.18-.02-.2-.18-.27-.29l.04-.02c-.18.02.13-.15-.13-.1.04-.02,0-.04.09-.06-.13,0,.09-.11-.07-.13,0,0,0,0,.03,0,.09-.06-.05-.08.04-.14.02,0,.03.01.08,0,.09-.02-.19-.03.02-.05,0,0-.11,0-.1,0,.08-.1-.05-.21-.07-.35.15-.05.36.08.22-.01.04,0-.08-.03-.04-.01-.05-.04.24.04.14,0-.13-.04-.07-.03-.15-.06.1-.02.21.03.13-.04l.06.03c-.17-.12-.05-.11-.23-.26.09-.25.2-.54.46-.71.27-.09.56-.25.85-.1.05.19.04.19.12.12,0,.03-.01.04-.01.06.03-.15.05,0,.09-.15.09.05.2.04.3.09-.02,0-.08.12-.06.12l.06-.08-.02.04s.07-.07.08-.12c.34.03.36.46.5.64-.02.08.07.13.12.18-.11.27-.25.41-.11.57,0,0-.4-.02-.49-.06Z"/>
            <path class="cls-3" d="M28.03,69.99c-.08,0-.12,0-.22,0,.07,0,.15,0,.22,0Z"/>
            <path class="cls-3" d="M27.24,69.97s-.04-.02-.03-.02h0s-.01,0,.03.02Z"/>
            <path class="cls-3" d="M27.2,69.95h0s0,0,0,0Z"/>
            <path class="cls-3" d="M27.2,69.95h0s0,0,0,0Z"/>
            <path class="cls-3" d="M27.2,69.95h0s0,0,0,0Z"/>
            <polygon class="cls-3" points="27.2 69.95 27.2 69.95 27.2 69.95 27.2 69.95"/>
            <polygon class="cls-3" points="27.16 69.96 27.2 69.95 27.13 69.97 27.16 69.96"/>
            <path class="cls-3" d="M27.17,69.93s.07.05.04.03c0,0-.03-.02-.04-.03Z"/>
            <polygon class="cls-3" points="27.01 69.62 27.01 69.62 26.94 69.5 27.01 69.62"/>
          </g>
        </g>
        <g>
          <ellipse class="cls-1" cx="30.26" cy="67.57" rx=".28" ry=".16"/>
          <g>
            <path class="cls-3" d="M30.79,67.58s-.12,0-.05-.01c.05,0,.1,0,.05.01Z"/>
            <path class="cls-3" d="M30.71,67.52c-.18.01-.18.02-.17,0,.01-.02.03-.05-.07.01-.01,0,.15-.12.11-.1-.22.17-.09.06-.03-.15l.03-.05s-.08.12-.08.09c.02-.03.02-.05.05-.09-.05.1-.04.04-.07.11.02-.04.05-.12.07-.16l-.06.11c-.13.27-.01-.03-.08.11.01-.03.02-.05.03-.07-.08.16-.08.13-.11.19,0-.04.03-.12.04-.17-.03.13-.04.16-.05.19.02-.13-.03.12-.02.05v-.03c-.02.14.01-.08-.01.09v-.11c-.01.19.02-.1,0,0v.04s0-.05,0-.02v-.02s0-.06-.01.09c.01-.12,0-.05.02-.23-.03.15-.04.12-.06.12,0-.06,0-.08-.01-.13,0,.03,0,.03,0,.1,0,0,0-.08,0-.08,0-.06.01.16,0,.1,0-.04,0-.09-.01-.14,0,.12,0,.1,0,.14,0-.03,0-.04,0-.09.01.13-.01-.03,0,.06v-.09c-.03-.1.01.18,0,.12,0-.03,0-.06-.01-.09.02.16,0,.11.01.16,0-.01,0-.03,0-.03,0,.02-.02-.03,0,.04-.01-.04-.05-.2-.05-.17.05.17.01.07.07.26,0-.03-.03-.09-.02-.03-.02-.06-.07-.2-.07-.21l-.04-.1c-.02-.07.01.02-.02-.06,0,0,.01.08,0,.05.04.1.1.29.11.31-.03-.06-.07-.18-.09-.2l.13.31s-.06-.12-.04-.08c.02.04.03.06.04.09,0-.01.02.03-.05-.1-.03-.06-.02-.03-.04-.09l.03.06v-.02s.04.1.05.11c0,0,0,0,0,0-.01-.02-.02-.03,0,0,.02.03,0,0,0,0h0s-.01-.02-.02-.02h0s0,0-.02-.03h0s0,0,0,0c0,0,0,0,0,0h0s0,0-.03-.02h0s0,0,0,0c0,0,0,0,0,0,0,0,.02,0,.01,0,0,0,0,0,0,0,0,0,0,0,0,0h0s0,0,0,0h0s0,0,0,0h0s0,0,0,0h0s0,0,0,0h0s0,0,0,0h0s0,0,0,0h0s0,0,0,0c.01,0,0,0,.01,0h0s0,0,.01,0h0s0,0,0,0c0,0,0,0,0,0,.02-.02-.01,0,.03-.03,0,0,0,0,0,0,0,0,0,0,0,0h0s0,0,0,0c0,0,.01-.01.02-.02h0s0,0,0,0c0,0,0,0,0,0,0,0,0,0,0-.01h0s0-.01,0-.01h0s0,0,0,0c0,0,0,0,0,0,0,0,0,0,0,0,0-.01,0-.01,0-.01h0s0,0,0,0c0,0,0,0,0,0,0,0,0,0,0,0h0s0,0,0,0h0s0,0,0,0h0s0,0,0-.01h0s0-.01,0-.01c0,0,0,0,0-.01h0s0,0,0,0h0s-.03.08,0,0c0-.02,0-.01,0-.01,0-.02,0,.01,0-.03h0s0,.01,0-.04c0,.01,0,.02,0,.04.02-.08-.01.08,0-.04h0s0,0,0-.01h0s0,0,0,0h0s0,0,0,0h0s0,0,0,0h0s0-.01,0-.01h0s0,0,0,0c0,0,0-.02,0,0h0s0,0,0,0h0s0,0,0,0c0,0,0,0,0,0h0s0,0,0,0c0,.09.01.16.02.27v-.02c.01.14,0,.16.01.21,0-.07-.02-.26-.02-.32,0-.01,0-.08-.01-.13h0s0,0,0,0c0,0,0,0,0,0h0s0,0,0,0h0s0,0,0,0h0s0,0,0,0h0s0,0,0,0h0s0,0,0,0c0,0,0,0,0,0h0s0,0,0,0c0,0,0,0,0,0h0s0,0,0,0h0s0,0,0,0h0s0,0,0,0h0s0,.01,0,.01c0,0,0,0,0,0h0s0,0,0,0c0,0,0,0,0,0h0s0,0,0,0h0s0,0,0,0h0s0-.02.04.12c0,.02,0-.03-.02-.06-.04-.11,0-.02-.02-.04,0,0,0,0,0,.02,0,0,0,0,0,0h0s0,.02,0,.01c0,0,0,0,0,0h0s0,0,0,.02h0s0,0,0,0h0s0,0,0,0h0s0,.01,0,.01h0s0,0,0,0c0,0,0,0,0,.01h0s0,0,0,0c0,0,0,0,0,0v.02s.02.01.01,0c0-.01,0,0-.01-.02h0s.05.08.08.14c0,0-.02-.04-.03-.05-.02-.04-.02-.04-.04-.08,0,0,0,0,.01.02h0s0,0,.02.03c0,0,0,.01,0,0,0,0,0,0,0,0h0s0,0,0,.01c0,0,0,0,0,0h0s.02.02.02.02c.03.02.02.02.02.02h0s0,0,0,0h0s0,0,.01,0h0s0,0,0,0c.03.01.05.03.07.04.11.05-.01-.02-.02-.02l-.04-.02s0,0,0,0h.02s-.02,0-.02,0c.01,0,.14.02.04,0,.08.01.16.04.24.07-.06,0-.12-.04-.22-.06-.09-.02-.06-.02.04.02.01,0-.01,0-.05-.02.14.04.13.04.22.08,0,0,.04,0,0-.01.07.03.07.04.07.05-.05-.03-.08-.03-.12-.05.12.05.15.08.11.08-.13-.06.07.07.02.07-.1-.07-.19-.13-.23-.16-.06-.03,0,0-.06-.03.08.05.2.14.24.18l-.08-.06s.14.12.11.12c-.05,0-.07,0-.09.01l-.06-.07c.13.16.03.08.07.15-.07-.06,0,.1-.09-.03.01.08,0,.16-.04.14l-.05-.13c.03.1-.03-.07-.03-.05.05.1.05.14.07.22-.05-.1-.03.02-.01.12l-.03-.09c.04.17-.02.03-.05,0-.01-.04-.04-.12-.04-.11.03.15.02.14.03.24-.01,0-.03-.03-.05-.09,0,.22-.06.09-.09.22v-.11c-.04.24-.09.02-.13.14v-.19c0-.06-.01.05-.02.18,0-.06-.04.09-.03-.07,0-.04-.02.09-.04.11-.02-.07-.02-.06-.05-.03h0s.02-.11.02-.12c-.02.05-.02-.06-.06.17,0-.13-.09.09-.07-.09-.01.06-.02.07-.04.11-.03,0-.01-.13-.07-.04,0-.03.04-.1.03-.11-.01.02-.03.08-.05.11-.09.09-.04-.14-.09-.14-.13.07-.18-.04-.28-.11l.03-.03c-.15.09.07-.19-.15-.05.03-.03-.01-.05.07-.09-.13.03.04-.14-.12-.13,0,0,0,0,.03,0,.07-.09-.08-.11,0-.2.02,0,.04.01.08,0,.08-.03-.2-.03.02-.07,0-.01-.11,0-.1,0,.07-.15-.04-.33,0-.5.16-.02.32.18.22.04.04.02-.07-.05-.03-.03-.03-.06.22.12.13.04-.11-.08-.05-.05-.12-.11.1.02.19.1.13.01l.05.05c-.12-.17-.01-.11-.13-.31.14-.16.23-.32.37-.39.14.01.26-.1.39.03.02.19.02.18.05.11,0,.03,0,.04,0,.06.02-.15.02-.01.04-.16.04.03.09,0,.14,0-.01.01-.04.14-.03.13l.03-.09v.04s.03-.09.03-.14c.18-.09.22.25.38.31,0,.08.09.07.16.1,0,.29-.07.48.07.71,0,0-.4-.04-.49-.05Z"/>
            <path class="cls-3" d="M30.8,67.61c-.08,0-.12,0-.22-.02.07,0,.15.01.22.02Z"/>
            <polygon class="cls-3" points="30.37 67.51 30.36 67.51 30.37 67.51 30.37 67.51"/>
            <path class="cls-3" d="M30.34,67.48s0,.01,0,.01h0Z"/>
            <path class="cls-3" d="M30.32,67.44h0s0,0,0,0Z"/>
            <path class="cls-3" d="M30.32,67.44h0s0,0,0,0Z"/>
            <path class="cls-3" d="M30.29,67.37s0,0,0,0c0,0,0,0,0,0Z"/>
            <polygon class="cls-3" points="30.28 67.33 30.28 67.33 30.28 67.33 30.28 67.33"/>
            <polygon class="cls-3" points="30.1 67.56 30.1 67.56 30.1 67.56 30.1 67.56"/>
            <path class="cls-3" d="M30.18,67.67h0s0,0,0,0Z"/>
            <polygon class="cls-3" points="30.19 67.59 30.19 67.59 30.15 67.46 30.19 67.59"/>
          </g>
        </g>
        <g>
          <ellipse class="cls-1" cx="31.49" cy="71.66" rx=".63" ry=".36"/>
          <g>
            <path class="cls-3" d="M32.38,71.67s-.12,0-.05,0c.05,0,.1,0,.05,0Z"/>
            <path class="cls-3" d="M32.3,71.61c-.36-.02-.03-.09-.28-.1-.02,0,.19-.03.14-.03-.3.01-.19-.03-.01-.14l.06-.02s-.17.03-.15.02c.04-.01.05-.02.11-.03-.12.04-.07,0-.16.03.04-.02.13-.05.18-.07l-.14.04c-.33.11-.01-.03-.19.03.03-.01.05-.02.08-.03-.23.07-.2.03-.29.05.03-.02.1-.05.13-.07-.14.07-.13.06-.16.07.07-.05-.09.04-.05.01h.02c-.08.04.03-.04-.06.02l.05-.04c-.1.07.04-.04-.02,0h-.02s.02,0,0,0h.01s0-.03-.06.02c.05-.04.03-.01.12-.08-.13.06-.15.04-.2.05.02-.03,0-.02.04-.06-.03.03-.04.02-.06.05,0,0,.02-.03.02-.03,0-.02-.06.06-.05.04.02-.02.02-.01.06-.08-.08.1-.06.05-.08.08,0,0,.01-.01.02-.03-.04.05-.01,0-.04.02l.03-.05c.03-.05-.01,0-.03.04-.01.02-.02.04-.02.03,0-.01.02-.02.02-.04-.05.07-.05.04-.07.07h0s-.02-.02-.04,0c0,0,.03-.08.01-.07-.03.09-.03.04-.05.11,0,0-.02-.02-.03,0,0-.03,0-.05.02-.08v-.11c.02-.07.02.02.03-.07-.01,0-.04.09-.04.06-.03.16-.03.2-.05.21,0-.03,0-.03,0-.09v.13s-.02-.04-.02-.02c0,.01,0,.02,0,.03,0,0-.01.02-.02-.03,0-.02,0-.01,0-.03,0,0,0,.02-.01.02h0s0,.02,0,.04c0,0,0-.02,0-.01,0,.03,0,.04,0,.04,0,0,0-.02,0-.03,0,.04,0,.05,0,.07,0,.02-.02-.03,0-.03-.02-.02,0,.05-.03.02,0,0,.02.02.01.02,0,0-.02-.02-.02-.01-.01-.01,0,0,0,.01,0,0,0,0,0,0,0,.01.02.04-.01.04,0,0,.03.03.03.03h-.02s0,0-.02-.02c.03.02-.01-.03,0-.01-.02,0,.03.03,0,.01,0,0,.02.02,0,.01,0,0-.03-.02-.03-.01,0,0,.01,0,.02.02h0s0,.01.02.02c-.02,0,.01.01-.03,0h-.03s.03,0,.05,0c0,0-.01,0-.02,0,.05,0,0,0,.04.01-.02,0,0,.01-.03.02.02,0,.03,0,.02.01,0,0,0,0-.02,0-.01,0,0,0,0,0,0,0-.03.01-.05.02.02,0,.04,0,.06-.01-.05.02.04,0,0,.02,0,0-.03,0-.04.01-.04.03.04,0,.02,0l.04-.02s.03,0-.01.02c.01,0,0,.01.03-.01-.02.03.03,0-.02.06,0,0,0,0,.02-.01.01-.02-.01.01,0,0,0,0,0,0,.01-.01,0,0,0,.01-.03.04,0,.03.05-.05.04-.03,0,.01,0,.02,0,.02l.02-.02s-.01.04-.03.06c0,0,0,0,.02-.02v.04s0-.02,0-.02h0s0,.01,0,.01c0-.02,0-.03,0-.03,0-.01,0,0,.01-.02,0,.03,0,.03,0,.03,0,0,0-.02,0-.02,0,.02,0,0,0,.03,0,0,0-.02,0,0,0,.01,0,.04,0,.02,0-.01,0-.06.01-.04,0,0,0,.02,0,.03v.02s0-.03,0-.03c0,0,0,.01,0,.01,0-.03,0,0,.01-.04,0,0,0,.02,0,.03h0s0,.01,0,0h0s0,0,0-.01c0,.02.02.12.02.08,0,0,0-.06,0-.08.01.02,0-.03.02.03,0-.01,0-.02,0-.03.02.02,0-.04.04.03,0,.01.02.03.03.05-.01-.03.02.03,0-.02-.02-.03-.03-.05-.03-.06,0-.02,0-.02.02.02,0-.01-.01-.02-.02-.03.03.05.04.06.03.04l-.02-.03.02.03s-.04-.07-.02-.04c0,.01.02.02.03.03-.01-.03-.05-.07-.02-.04l.04.05s-.03-.03-.04-.05c.03.03.03.03.07.07-.08-.1-.08-.1-.06-.1l.03.02s-.05-.04-.03-.03c.03.02.06.05.09.08.04.03-.04-.04-.06-.05-.02-.02,0,0-.03-.02-.01-.01.04.02-.03-.02.02.02.07.05.09.07l-.03-.02c.07.06.12.1.21.17h0c.07.04.06.05.09.07-.02-.02-.11-.09-.14-.11,0-.01-.15-.11-.13-.11.04.03,0,0,.06.05.06.04-.02-.02,0,0-.02-.02-.09-.07-.1-.07.03.02.06.04.07.05-.04-.03-.07-.05-.09-.07-.05-.04,0,0-.04-.03.06.04.15.1.18.12-.06-.04-.08-.06-.18-.12.02.01.07.04.11.07.04.02-.11-.08.02,0l-.07-.04s.04.02.08.05c0,0-.09-.06.02,0-.01,0,0,0-.08-.05-.05-.03.05.03-.05-.03.08.05,0,0-.04-.02l.04.02s0,0-.05-.03c.02.01.05.03.06.04l-.07-.04s.08.04.1.05l.05.03s.05.03.03.02c-.06-.03-.14-.07-.18-.1-.03-.01.07.04,0,0l.08.04s.11.05.11.05c-.02-.01-.11-.06-.15-.07,0,0,.04.02.09.04-.02-.01-.07-.03-.11-.05.05.02.11.05.18.08l.11.05h0c.09.04.07.03.17.07.02,0-.01-.01-.03-.02-.16-.07-.21-.09-.35-.16-.04-.02.36.15.13.05-.04-.02-.15-.06-.11-.04.02,0-.15-.06-.09-.04.06.02.15.06.24.1-.05-.02-.04-.01-.03,0,.06.02.15.06.16.06-.01,0,0-.01-.09-.04-.09-.03,0,0-.08-.03-.03-.01.11.04-.05-.02-.01,0-.08-.03-.14-.05h-.04s.06,0,.06,0c.04.01-.11-.04-.09-.03l.12.04c.09.04-.03-.01.12.04.01,0-.08-.03-.03-.02.01,0,.02,0,.03.01,0,0,.23.08.11.03-.05-.02-.06-.02-.13-.04-.02,0-.08-.03-.09-.03.13.04.01,0,.15.04-.08-.02-.07-.02.04.02.15.05-.03,0,.12.05,0,0,.16.05.26.08,0,0-.03-.01-.04-.02-.09-.03-.09-.03-.19-.06.03,0-.01-.02-.1-.04.05.01.14.04.15.04-.02-.01,0-.01.04-.01-.17-.04-.03-.02-.17-.04-.04,0-.15-.04-.23-.05.01,0,.07.02.11.03-.09-.02.15.03,0,0,.05.01.2.05.33.08-.07-.02.09.02.1.02-.06-.02-.12-.04-.14-.05.13.02.02-.02.02-.02.07,0,.23.03.26.03,0,0-.17-.02-.09-.02h.03s.12,0-.11-.03l.17.02s-.02,0-.04,0c.06,0,.11.01.14.02.12,0-.01-.02-.01-.02h-.11c-.08-.02.03-.02,0-.04h.1s-.06,0-.06,0c.1,0,.17,0,.08,0l.25.03c-.06,0-.12-.01-.23-.01-.09,0-.06.01.03.02.01,0,0,0-.05-.01.14,0,.14.01.23.03,0,0,.04,0,0,0,.07.01.08.02.08.03-.05-.01-.09,0-.13,0,.13.01.16.02.12.03-.15,0,.09.03.04.04-.13-.02-.23-.04-.28-.05-.07,0,0,0-.07,0,.09.02.24.04.29.06h-.1s.19.02.15.03c-.06.01-.07.03-.1.05l-.1-.02c.2.05.06.04.14.07-.11,0,.06.06-.12.02.05.05.09.1.02.12l-.14-.06c.1.05-.09-.03-.07-.02.12.04.14.07.22.1-.13-.03-.03.03.06.09l-.1-.05c.17.1-.01.04-.06.03-.04-.02-.14-.07-.13-.06.15.09.13.09.21.15-.01,0-.07,0-.14-.03.16.16-.03.1.03.23l-.11-.08c.15.21-.12.07-.09.2l-.14-.17c-.06-.05,0,.05.1.17-.06-.05,0,.1-.11-.04-.04-.03.03.09.03.12-.1-.06-.1-.04-.13,0h.02s-.06-.11-.08-.12c.01.05-.09-.05.04.18-.12-.13-.1.12-.23-.06.03.06.01.08.02.12-.06,0-.15-.13-.18-.03-.01-.03,0-.11-.03-.12-.01.02.01.08,0,.12-.11.1-.22-.16-.31-.16-.2.07-.39-.1-.54-.22l.03-.03c-.18.07.04-.22-.2-.1.03-.04-.02-.06.06-.1-.14.01.03-.17-.13-.17,0,0,0,0,.03,0,.07-.1-.07-.12,0-.21.02,0,.04.01.08,0,.08-.03-.2-.04.02-.08,0-.01-.11,0-.1,0,.07-.15-.05-.32-.01-.52.18-.05.33.16.23,0,.04.02-.07-.05-.03-.03-.03-.07.23.1.15.02-.11-.07-.05-.06-.12-.11.11,0,.2.08.17-.03l.05.05c-.09-.19.03-.15-.04-.37.31-.26.74-.44,1.09-.44.3.07.62.08.7.28-.12.16-.12.16-.01.13-.03.02-.04.02-.06.05.15-.11.04,0,.19-.09.03.06.12.07.17.11-.02,0-.15.07-.14.07l.11-.05-.04.03s.11-.04.16-.08c.26.06.02.32.13.42-.05.05.03.07.08.11-.17.15-.31.24-.16.36,0,0-.4-.02-.49-.05Z"/>
            <path class="cls-3" d="M32.39,71.69c-.08,0-.12,0-.22,0,.07,0,.15,0,.22,0Z"/>
            <path class="cls-3" d="M31.55,71.76s-.03,0-.04,0c0,0-.06-.02-.02,0,0,0,.04,0,.06.02Z"/>
            <path class="cls-3" d="M31.49,71.76c-.05-.02-.1-.03-.1-.03l.1.03Z"/>
            <path class="cls-3" d="M31.25,71.7s-.07-.02-.07-.02c.03,0,.04.01.07.02Z"/>
            <path class="cls-3" d="M31.37,71.74s-.03,0-.06-.02c.04.01-.02,0,.06.02Z"/>
            <path class="cls-3" d="M31.2,71.7s.04.02-.01,0c.04.02-.06-.03.01,0Z"/>
            <path class="cls-3" d="M31.26,71.73s-.01,0,0,0c-.02,0-.06-.03-.06-.03l.06.03Z"/>
            <polygon class="cls-3" points="31 71.71 31.01 71.71 31 71.72 31 71.71"/>
            <path class="cls-3" d="M31.07,71.54s0,.02,0,.02v-.02Z"/>
            <polygon class="cls-3" points="31.2 71.39 31.2 71.39 31.22 71.35 31.2 71.39"/>
          </g>
        </g>
      </g>
    </g>
  </g>
</svg>