<?xml version="1.0" encoding="UTF-8"?>
<svg id="Layer_3" data-name="Layer 3" xmlns="http://www.w3.org/2000/svg" viewBox="0 0 300 300">
  <defs>
    <style>
      .cls-1 {
        fill: #fff;
      }

      .cls-2 {
        fill: #202020;
      }

      .cls-3 {
        fill: #212121;
      }
    </style>
  </defs>
  <g>
    <path class="cls-3" d="M183.77,166.58c0,21.51-18.49,38.94-41.3,38.94s-41.3-17.43-41.3-38.94h82.6Z"/>
    <g>
      <path class="cls-2" d="M185.21,167.1c-.14-.79-.71.42-.28-.52.31.11.55.26.28.52Z"/>
      <path class="cls-2" d="M181.23,165.57c-2.47,2.06-5.71-.02-8.41,1.29-.32.09.08-1.13-.63-.86-2.62,1.6-6.74.64-9.93-.59l.19-.32c-.61-.23-1.35.82-1.99.68,0-.21.21-.3.06-.59-.16.64-1.16.29-1.44.77-.25-.25-.23-.76-.56-1.03l-.37.73c-1.02,1.73-2.49-.12-3.88.77.07-.17.21-.3.09-.46-2.24,1.05-5.05.85-7.56,1.24.1-.26.19-.73.05-1.01-.12.77-.9.96-1.57,1.11-.3-.79-1.15.72-1.94.28l.07-.18c-.58.82-.86-.47-1.34.51l-.37-.62c-.26,1.11-.84-.57-1.32-.01l.02.23c-.45.27-.69-.29-1.11-.1l-.04-.13c-.99.29-1.56-.32-1.54.54-.35-.69.96-.31.41-1.32-3.24.89-6.59.72-9.86.73-.37-.35-.61-.45-.69-.78-.33.17-1.23.16-1.53.6.11-.02-.21-.44-.38-.49-.59-.33-.65.95-1.3.56.26-.23.35-.51.26-.83-.56.67-1.3.57-1.96.79.1-.15.26-.23.24-.5-.72.77-1.31-.16-1.94.32l.24-.5c-1.02-.61-.3,1.04-1.18.69.21-.16.14-.35.17-.56-.82.91-2.14.61-2.96.92.05-.07.04-.2.04-.2-.89.11-1.82-.17-2.8.23-.36-.22.12-1.22-.83-1.04.03,1-1.6.41-1.04,1.55-.8-.16-2.08-.54-2.61-.2.36-.38-.39-1.23.28-1.31l-.51-.61c.07-.41.52.14.36-.38-.34.04-1.31.44-1.61.27-.31.31-.61.75-.95,1.13-.33.38-.61.7-1.01.76.34-.39-.49-1.11-.23-1.28-.35.64-.54,1.28-.58,1.92-.21.05-.43-.79-.68-.53.16.27.09.43.12.64-.18-.11-.72.25-1.7-.74-.47-.39.29-.21-.33-.56-.56.01-.26.35-.77.36l-.15-.13c-.06-.02-.12-.03-.17-.02-.02,0-.05,0-.07.01l.03.1c.05.15.14.33.25.5.22.34.53.64.82.73.02-.17-.65-.47-.35-.52.64.78.84,1.35.87,1.74-.18-.25-.47-.42-.77-.69.88,1.18,1.15,1.77,1.54,2.36.5.16-.93-.45-.67-.47-.33.26.02.77.26,1.11.13.17.24.32.27.47.03.14-.03.28-.22.59-.11-.13.64-.21.51-.17.03.53-.65.65-.33.94-.38.12.24.4.45.71.33.11-.16.14-.29-.16.23.2.63.75.93,1.39.3.64.49,1.39.46,2.01.24-.1,1.17.32,1.23.57l-.61.13c-.26.36.37.8-.11,1.04.9.25-1.39-1.81-.57-1.3-.41.37,1.3.64.46.79.22.49,1.04.69.69,1.4.04-.18-.94-.06-.74.33.44.64.37.08.83.54l.4.23c.55-.24.23.63.71.09-.4.31.76.82-.15,1.22l-.74.28c.2.27.97.09,1.39.14-.05.07-.14.23-.26.28,1.04-.54.33.71,1.33.56.01.79.89,1.45.45,2.15.57.25,1.23.34,1.39.96-.16-.02-.29-.13-.52,0-.05.51.26.39.63.54-.19.05-.08,1.03-.14,1.64.61.19.98-.38,1.32-.6-.62,1.18,1.57.55,1.17,1.72-.24-.01-.96-.15-.87.37-.51,1.18,1.31.1,1.44,1.06l.56-.84c-.1.34.2.44.42.54.24.08.4.16.03.51.44-.1.48.83,1.05.06.21.71.87,1.12,1.41,1.57.55.44,1.03.86.84,1.79.24-.02.52.37.73-.08.06-.61-.57.07-.45-.29.15.07.33-.12.42-.22.19.4.41.64-.35,1.08.41,1,1.64-.79,2.37.09-.25.31-.26.48.06.59l.88-.28c.54.49-.1.99-.42,1.58.4.09.8.37,1.2.01l.02.99c-.01-.72.46-.18.71-.27l-.24.07c-.06.28.43.32.68.33.13-.4-.21-.74-.38-.95.31-.18.56,0,.95-.2-.37.56.37.68.62.87.26.28.6-.38.69-.31-.13.32.5.29.06.62-.15.05-.11-.42-.42-.23.11.33-.16.86.46.67.46-.15.43-1.24.88-.57-.23.08-.36.31-.58.47l.46.59.25-.55c.02.18-.05.2-.04.29.41-.52,1,.14,1.39-.48.32.05.5.61.77.78l-.07.03c.24.46.8.4,1.22.12l-.05.12c.18.12.67.18,1.02-.11.38.56-.43,2.23.34,1.64.54.11,1.08-.87.97-1.3.84.61,2.05-.05,2.76.95.17-.22.12-.38.41-.48.66.21,1.41.14,2.1.18.69.06,1.33.08,1.85.72-.42.23-.07.6-.08.94.37-.52.38.58.55-.34,0-.54.04-.81-.34-1.04.84-.26,2.06-.17,2.53.32-.23-.24-.05-.42.12-.59-.06.87.56.97,1.02.64l.05-.53.32.53c.17-.18.14-1.12.62-.63.04.2.07.41.17.55.46-.47,1.05-1.18,1.59-.82l.5.71c.21-.12.52-.63.11-.8.92.34,1.49.31,1.88.93.32-.46.68-.81,1.07-1.12.39-.34.8-.6,1.24-.81.86-.45,1.82-.58,2.64-.83l.07.4c.55.2.02-.74.41-.58-.03.41.59.66.38,1.22.78.17.61-.94.96-1.25-.11-.51-.22.43-.36-.22,0-.2,1.01.08.83-.69.27.23.35.82.38,1.14l.25-.49c.83.69-.51,1.91.39,2.79l.34-.25c.67.64-.7,1.22.38,1.15.3-.5.2-1.71-.28-1.88.74-.56-.33-1.9.53-2.23.42.32-.63.41-.22.93.65.4.67-.69,1.11-.65-.52-.09-.51-.97-.33-1.21.58.14.04.8.68.6-.09-.46.3-1.01-.31-1.08-.24-1.02.75,0,.69-.89.53.54.17,1.81.98,1.78-.42-.57.34-1.29-.48-2.01.33.04.63.5.65.98.57.17.22-1.6,1.03-.46l-.24-.69c.23.14.47.2.85.43.33-.17.49-1.38,1.03-.48.03-.16.73-.59.06-1.03-.66-.09-.17.8-.95.1.74.5.53-.5.61-.89l.27.32c.05-.23.42-.38.25-.81.03.27.25.46.42.47l-.22-.62c.37-.65.78.81,1.23.27l-.13.69c.03-.15.57.19.73-.16-.24-.54-.47-1.22-.66-1.64.14-.43.53.41.45-.3l.06.86c.06.2.84.54,1.23.18.13-.38-.03-1.34-.62-1.25.18-.17.68-.13.8.32.31-.53-.46-.42-.32-1.02.4.16,1.25.16,1.93.31l.24,1.06.28-.23c.16.88.59.28.93,1.05.29-.07.33-.48.35-.82-1.41-.42-.68-1.88-1.67-2.57.41-.9,2.5,1.59,1.85-.43-.34-.09-.68-1.05-.85-.38.51-.34-.61-1.09.24-1.25,0,.7,1.3.4,1.3,1.41-.26-.3-.52.1-.52.27.51.13.85.85,1.29.39.2-.34.48-.8-.03-1.14-.53-.43-.3.51-.68-.14.28-.74,1.16-.18.42-1.19-.22.43-.83.07-1.18-.24l.11-.59.29.37c.78-.46-.49-.71.11-1.27l.95.24c.49.62-1.02.73.06,1.4.39-.4,0-.93.57-1.14.01.15-.06.3-.04.45.14-.13,1.65.72,1.32-.52-.09-.57-.31-.35-.69-.63.36-.83.1-1.3.33-1.81.71.59.62-.79,1.08.23-.62-.03-1.25,1.04-.7,1.81,1.06.34-.49.52.26,1.3.47-.57,1.29.05,1.95.35.16-.15.03-.5,0-.67-.5-.44-.64-.21-1.21-.58.6-.6.72-1.48.41-2.18.43-.06.95.35.82.66.09-.23.2-.46.33-.68.11-.23.22-.46.34-.68.25-.44.54-.85.84-1.22-1.24.05.25-1.04-.75-1.06-.44.34-1.32.35-1.63-.1.2-.23.42.22.68.21-.36-.59,1.12-.12.46-.85-.08.91,1.11.71,1.81,1.21-.13-.79.53.28.83-.31-.18-.81-.24-1.7-.15-2.44.53-.28.77-.82.85-1.39.05-.58,0-1.17.09-1.56.52-.3,1.37.23,1.66-.18.13-.54-1.11.14-.47-.54l.16.12c-.14-.28,1.03-1.33-.31-1.84l.98.45c.12-.13-.09-.32-.18-.47.33.06.66-.06.84.23.78-.38.06-1.11.12-1.66l-.66.26c-.35-1.01.44-1.54.24-2.49l.6.08-.33-.58c.57.18.97-.31.5-.63.46.51.92,1.03,1.38,1.58-.37.38-.7-.52-1.3-.31-.26.08-.36.34-.33.61,0,.26.15.53.43.64.12-.32,0-.35-.19-.63.85-.02.74.48,1.25.8,0-.18.29-.41.03-.47.35.39.35.76.28,1.35-.26-.44-.55.14-.76-.05.72.15.85.76.53,1.45-.46.18-.38.54-.23.97.15.42.29.9.07,1.29-.64-.52-1.07-1.06-1.29-1.62-.45.43-.12.56-.61.98.47.37,1.25.75,1.39,1.51l-.54-.11c.1.68.88.91.52,1.66-.66,1.26-1.24,2.56-1.67,3.52l-.52-.18c.91,1.03-.45,1.93-.33,2.88-.55.48-.75,1.21-1.01,1.81-.28.59-.58,1.09-1.16,1.13-.47,1.11-.87,2.2-1.51,3.14-.3.49-.62.96-.97,1.43-.35.47-.72.94-1.21,1.34l-.31-.83c.13.71-.54-.1-.75.28.81.07.2.99.33,1.55-.61.19-1.03.65-1.35,1.21-.32.56-.6,1.15-.78,1.7l-.39-.39c-.04.71-.45,1.1-.96,1.39-.52.29-1.14.48-1.71.76-.25-.1-.74-.38-1-.13-.03,1.1-.35,1.26-.87,2.29-.58.46-1.77.8-2.56.89-.44.61-.95,1.11-1.5,1.56-.57.41-1.2.72-1.83,1.04-.63.32-1.28.62-1.91.96-.65.31-1.3.61-1.92,1.03l-.41-.54c-.54.55-1.19.97-1.89,1.29-.71.26-1.46.44-2.21.6-.74.15-1.47.3-2.16.44-.7.11-1.34.26-1.91.52l.06-1.12c-.77-.23-1.62.53-1.35,1.27-.39-.12-.84.1-1.27.19-.43.08-.84.1-1.11-.34-.78-.17-.91.55-1.55.73-.78-.17-1.31-.23-1.83-.21-.52-.03-1.03.03-1.76.1l.36.09c.17-.23.19-.7-.16-.79-.55.28-1.96-.39-1.5.95-1.49-.76-3.73.21-5.09-.99.07.37-.33.39-.53.6-1.38-.22-2.6-1.33-3.83-.99-.17-.23.5-.51-.04-.68-.36.05-.13.45-.58.55-1.18.03-2.21-.56-3.18-1.13-.48-.29-.95-.59-1.42-.87-.45-.31-.91-.57-1.39-.74-.89-.22-1.77-.49-2.63-.83-.83-.39-1.65-.83-2.45-1.28l-1.19-.69c-.39-.24-.75-.52-1.12-.78-.74-.52-1.46-1.04-2.19-1.52l.19-.19c-.8.08-1.14-.61-1.52-1.17-.37-.58-.75-1.07-1.61-.81-.04-.37-.72-.78-.22-1.02-1.18-.13-1.33-2.32-2.91-2.65.07.11.16.12.34.15-.27-.67-.71-1.12-1.15-1.59-.45-.46-.91-.94-1.14-1.66.18.04.41.2.64.07.07-.72-1.7-.35-.85-1.34-.18-.25-.64.18-.51.32-.63-1.46-1.62-2.71-2.55-4.06-.46-.68-.93-1.36-1.4-2.05-.23-.35-.48-.69-.69-1.04l-.57-1.1c-.14-2.47,1.94-.91.4-2.27.18-.22-.5.06-.26-.05-.61-.55.98-1.47.22-1.73-.69.42-.5-.18-.96-.06.11-1.52.73-1.93-.14-2.86h.42c-.38-.25-.6-.55-.78-.86-.09-.16-.17-.32-.24-.48-.08-.25-.16-.49-.24-.73-.32-1.01-.7-2.01-1.4-2.97-.12-1.45-.24-2.89-.36-4.32l-.19-2.2-.1-1.11c0-.34-.22-.89.28-.76,2.72-.21,5.45-.47,8.49-.55l2.25-.09.5-.02.3-.02.6-.04,2.39-.16c1.6-.1,3.19-.17,4.79-.21,6.34.26,12.54-.35,18.98.36,1.51,1.08,1.62,1.05,3.28.61-.07.18-.17.21-.06.38.08-.88,1.17-.08,1.32-.93,2.38.17,4.57-.08,7.02-.08-.39.09-.58.82-.12.76l.48-.57.08.25c.31-.13.66-.57.33-.85,6.15-.77,12.2,1.01,18.22.79,1.43.37,3.47.03,5.02-.15,4.61,1.18,8.76,2.14,13.44,1.31,0,0-.61,2.29-2.54,2.82Z"/>
      <path class="cls-2" d="M185.25,168.06c-.45.16-.72.69-1.29.23.42-.03.9-.3,1.29-.23Z"/>
      <path class="cls-2" d="M177.73,180.61c.11.07-.25.09-.34.1.04-.16-.22-.44.03-.47-.02.17.17.22.3.37Z"/>
      <path class="cls-2" d="M175.97,183.47c-.32-.24-.27-1.02-.13-1.41l.13,1.41Z"/>
      <path class="cls-2" d="M172.95,185.16c-.41.03-.52-.14-.33-.42.19.1.21.25.33.42Z"/>
      <path class="cls-2" d="M173.57,185.86c-.12.22-.41.18-.66.14.29.2.18-.59.66-.14Z"/>
      <path class="cls-2" d="M168.44,190.07c-.08.13-.09.62-.51.39.35.13.18-.89.51-.39Z"/>
      <path class="cls-2" d="M166.56,192.51c-.09.04-.17.01-.18.18-.25-.02-.29-.37-.2-.5l.38.33Z"/>
      <polygon class="cls-2" points="114.45 191.07 114.82 191.18 114.51 191.42 114.45 191.07"/>
      <path class="cls-2" d="M104.47,170.6c-.28-.35.39.12.46.13.05.17-.53-.39-.46-.13Z"/>
      <polygon class="cls-2" points="113.8 167.56 113.69 167.57 113.72 166.77 113.8 167.56"/>
    </g>
  </g>
  <g>
    <path class="cls-1" d="M117.39,163.95l.09.69,2.61,21.03c.02.13.13.24.27.24h14.87c.12,0,.23-.08.26-.2l5.43-20.45c.07-.28.47-.26.52.02l3.99,20.75c.02.13.14.22.26.22h17.43c.13,0,.24-.09.26-.22l4.15-21.42c.03-.17-.09-.32-.26-.32l-49.89-.34Z"/>
    <g>
      <path class="cls-2" d="M117.98,164.29c-.14-.61-.21.37-.16-.39.13.07.23.18.16.39Z"/>
      <path class="cls-2" d="M119.47,164.34c2.02-.75,4.68.04,6.89-.43.26-.03-.07.42.52.32,2.15-.58,5.52-.2,8.13.27l-.16.12c.5.09,1.11-.3,1.63-.24,0,.08-.17.11-.05.22.13-.24.95-.1,1.18-.28.21.09.19.28.45.39l.3-.27c.84-.63,2.04.06,3.18-.26-.06.06-.17.11-.08.17,1.84-.38,4.14-.29,6.19-.42-.08.09-.16.27-.04.37.1-.28.74-.35,1.29-.4.25.29.95-.26,1.59-.09l-.06.06c.48-.3.71.18,1.1-.18l.3.23c.21-.41.69.22,1.08.01v-.08c.36-.1.55.11.9.04l.03.05c.81-.1,1.28.13,1.26-.19.28.26-.78.11-.34.49,2.66-.31,5.4-.23,8.07-.22.3.13.5.17.56.29.27-.06,1.01-.05,1.25-.21-.09,0,.17.16.31.18.45.12.61-.35,1.17-.2-.28.08-.38.19-.36.31.55-.23,1.22-.25,1.78-.17-.11-.03-.27,0-.33.07.2-.07.37.04.39.17.01.13-.03.27-.06.4-.07.28-.16.54-.11.77-.05-.04-.11-.08-.17-.12-.39.85.37.13.08.92-.02-.18-.11-.11-.18-.14.2.71-.11,1.76-.13,2.44-.02-.04-.07-.04-.07-.04-.1.72-.35,1.45-.35,2.27-.14.27-.43-.18-.51.59.37.04-.1,1.31.4.95-.19.64-.52,1.63-.48,2.09-.08-.32-.51.23-.43-.31l-.3.36c-.14-.09.13-.41-.08-.32-.04.27-.05,1.09-.15,1.32.13.54.45,1.08.34,1.9-.07-.41-.44.14-.46-.13l.48,1.26c-.03.27-.3,0-.28.41.1,0,.13.18.18.31-.06.09-.13,1.14-.51,1.18-.16.09,0-.45-.18-.18-.09.5.03.54-.07,1.04h-.05c-.12.32-.03,1,.23.68.06-.23-.23.04-.06-.27.16.27.11.86.02,1.36-.03-.18-.12-.18-.21-.27.08.36.1.72.11,1.09,0,.18,0,.37,0,.56,0,.18-.04.52-.06.78.16.07-.22-.51-.11-.62-.25.61-.25,1.34-.47,1.9-.04.14-.16.28-.28.34-.12.06-.25.1-.39.13-.28.06-.61.05-.91-.05.17-.03.18.25.15.2-.69-.02-.71-.27-1.07-.18-.03-.15-.38.05-.7.09-.16.11-.08-.07.19-.09-.44.13-2.19.35-3.2.14.02.1-.62.36-.85.35l.09-.23c-.21-.14-.78.02-.82-.18-.5.28,1.91-.24,1.24-.02-.17-.19-.94.36-.79.05-.47,0-.92.27-1.37.05.13.04.38-.32,0-.3-.66.04-.19.11-.73.19l-.34.09c-.02.22-.59-.03-.35.22-.08-.18-.97.11-.9-.26l.09-.29c-.29.02-.47.31-.7.44-.04-.03-.11-.09-.1-.13-.05.44-.69-.04-1.03.31-.6-.15-1.53-.01-1.82-.29-.46.13-.89.3-1.41.2.11-.04.25-.05.28-.15-.33-.13-.41-.01-.72.06.03-.03-.11-.1-.37-.17-.31-.08-.67-.16-.88-.24-.65.12-.56.34-.69.49-.09-.12-.22-.18-.37-.23-.15-.05-.34-.07-.51-.22-.25-.24-.51-.59-.51-1.05,0-.1.01-.2.03-.3.03.05.06.13.1.21.13.24.3.42.27.01.03-.07.04-.14.05-.2.11-.53-.59-.97-.51-1.57l-.33.23c.16-.34-.4-.94-.02-.94-.17-.2-.03-.81-.37-.67.08-1.15-.69-2.63-.19-3.42-.09-.15-.1-.55-.27-.43-.14.3.21.34.09.46-.04-.14-.14-.15-.19-.16.01-.36-.01-.63.34-.36.07-.8-.74-.67-.79-1.66.15.02.19-.07.12-.35l-.35-.49c-.06-.63.26-.42.5-.48-.11-.32-.17-.73-.38-.85l.23-.46c-.17.34-.2-.25-.29-.39l.09.14c.09-.08-.05-.46-.11-.64-.14.07-.13.48-.13.7-.14-.15-.17-.43-.33-.61.25,0,.12-.32.11-.46.02-.2-.23-.03-.23-.07.11-.1-.03-.24.15-.29.05.02-.08.22.03.22.06-.16.25-.35.07-.46-.13-.05-.39.52-.32.09.06,0,.14-.1.23-.13l.04-.47-.17.28c.04-.11.06-.11.07-.17-.19.24-.14-.35-.33.07-.03-.06.05-.54.04-.74l.02-.02c.05-.45-.05-.52-.15-.23l.03-.12c0-.13-.06-.24-.14.07.04-.7.34-2.71.16-2.13-.07-.31-.22,1.02-.25,1.62,0-.22-.02-.33-.04-.39,0-.06-.07-.09-.17.01-.12.25-.1.42-.18-.03,0,.37,0,.53,0,.8-.05.06-.1.35-.13.59-.04.24-.07.44-.13.47-.04.02-.09,0-.18-.09,0-.33-.12-.42-.19-.63.07.51-.18-.13.01.49.13.31.19.46.27.48,0,.46-.08.72-.28.76.1,0,.13.11.17.19-.26-.26-.38-.01-.32.2l.18.07-.26.2c.02.17.35.27.07.62-.08,0-.16,0-.23.06.05.45.15,1.1-.12,1.5l-.37.29c-.02.2.06.56.23.25-.37.71-.52,1.2-.82,1.37.23,1.46-.25,3.36-.69,4.87l-.13-.08c-.24.37.19.28.02.54-.1-.17-.38.23-.46-.13-.3.54.05.82,0,1.21.17.11-.04-.34.18-.2.02.04-.07.23-.13.44-.02.07-.08.28-.1.43-.02.15-.01.28.05.35-.17.21-.31-.09-.39-.26l-.03.65c-.25.26-.26-.25-.32-.67-.05-.44-.14-.77-.42-.55l-.06.42c-.36.18-.07-1.08-.4-.25.05.41.28,1.1.51.77-.11.51-.05.72,0,.95.02.11.05.23,0,.36-.05.14-.21.29-.47.36-.19-.03.02-.1.22-.21.23-.14.33-.38.19-.38-.11.06-.23.14-.35.19-.11.05-.21.09-.32.15-.21.11-.46.22-.75.17.63.09.26.41-.19.46-.74-.14.39-.28-.59-.3-.25.17-.74.29-.28.41-.22.38-.62-.11-.95.19-.19-.27.62-.62-.04-.75.1.26-.81.35-.46.73-.26-.07-.28-.28-.1-.44-.37-.16-.89.47-1.01-.04l-.13.26c-.11-.09-.28-.15-.47-.29-.32,0-1.04.36-1.01-.04-.1.04-.84.02-.56.3.46.17.53-.2.78.17-.32-.3-.66.04-.93.14l-.04-.15c-.16.06-.52.03-.62.19.12-.09.06-.19-.07-.23l-.17.23c-.64.12-.15-.41-.78-.34l.48-.18c-.1.04-.32-.18-.62-.11-.12.21-.33.47-.43.64-.35.09-.16-.24-.5-.02l.45-.26c.07-.07-.31-.35-.78-.35-.3.07-.77.38-.29.5-.24,0-.57-.13-.38-.28-.54.07.07.23-.39.36-.19-.14-.78-.35-1.13-.55l.48-.36h-.32c.42-.29-.21-.22.02-.52-.22-.05-.48.06-.69.13.64.48-.72.66-.53,1.1-.22.03-.36-.02-.47-.11-.08-.08-.27-.2-.36-.3-.23-.2-.36-.32-1.22.02.21.12-.69.44.34.33-.48-.02-.68.07-.91.13-.21.06-.49.08-.83-.23.36.09.26-.1.21-.26-.04-.18-.05-.28.44-.24-.16.11.44.26.64.21-.24-.21.24-.41-.44-.55-.2,0-.46-.12-.58-.28-.1-.13-.2-.2-.27-.08-.09.1-.02.24.06.34.09.1.18.17-.02.15-.5-.57-.26-1.05-.52-1.26-.04-.04-.09-.08-.16-.11,0,.07.02.13.03.19.07.57-.03.81-.18.91-.12-.19-.22-.41-.28-.66l-.04-.15.15.08.03.02s0-.03,0-.03c-.04-.74-.12-.81-.22-.89-.05-.04-.1-.08-.15-.21-.04-.09-.1-.44-.11-.57l.28-.4c.08.04.12.13.14.24.03.14.02.18.05.44.04.43.1.78.31.58-.02-.21-.05-.38-.09-.54-.02-.08-.04-.15-.06-.22-.02-.06-.03-.09-.05-.13-.06-.16-.11-.31-.08-.56.05.1.08.24.14.34,0-.18.58-.44.14-1.1-.19-.35-.18-.08-.35-.06-.15-.8-.36-1.01-.45-1.53.35.06-.08-.92.34-.39-.17.29,0,1.44.36,1.69.36-.34.02.64.45.76-.07-.64.33-.66.57-.8,0-.18-.13-.34-.19-.44-.25-.05-.22.19-.47.23-.02-.73-.24-1.4-.53-1.77.09-.25.34-.21.4.07-.18-.85-.26-1.76-.29-2.58-.33.57-.21-.89-.49-.49-.04.45-.27.85-.48.64,0-.27.17-.01.25-.14-.26-.32.28-.58-.1-.88.22.76.5.09.83.2-.24-.54.22,0,.15-.56-.24-.54-.46-1.21-.61-1.83.2-.82-.24-1.98-.34-2.68.11-.39.49-.18.5-.59-.06-.46-.34.39-.26-.32l.08.06c-.11-.2.08-1.29-.45-1.44l.41.17c.02-.13-.08-.24-.14-.34.12-.02.22-.18.32.02.21-.46-.15-.89-.22-1.35l-.19.33c-.27-.77-.12-1.33-.29-2.08h.22s-.19-.44-.19-.44c.23.08.31-.35.1-.57l.69,1.12c-.09.35-.31-.33-.5-.09-.17.2-.02.9.21.99,0-.27-.06-.28-.16-.48.3-.13.33.29.56.46-.03-.14.04-.35-.06-.37.18.26.24.54.31,1-.16-.3-.17.19-.27.09.27,0,.41.44.41,1.02-.26.45.33,1.05.33,1.73-.31-.24-.57-.55-.73-.95-.09.43.07.46-.02.9.23.18.56.28.75.81l-.2.05c.16.48.46.45.48,1.08.03,1.09.17,2.2.25,3.03l-.2.06c.49.4.35,1.51.62,2.1-.06,1.07.47,2.25.2,2.83.13.64.26,1.25.38,1.86.09.5.19,1,.28,1.52.02.15.04.31.07.48.01.22.26.16.41.18-.12.1-.26.2-.41.3.39-.22.06.17.36.13-.17-.24.49-.31.64-.49.06.03.11.05.21.06.11.01.23.02.35.03.24,0,.48-.01.72-.04.48-.06.95-.17,1.33-.28l.03.2c.77-.38,1.69-.05,2.65.02.11.08.28.27.57.25.52-.33.79-.3,1.56-.51.56,0,1.46.08,2.03.21.52-.12,1.05-.18,1.58-.22l1.18-.07.33-.02c.12-.04.09-.2.12-.3.05-.35.1-.7.16-1.06l.27-.09c.05-2.17,1.17-4.57,1.38-6.38l.35.27c.27-.51.23-1.27-.09-1.21.27-.52.17-1.42.59-1.68.22-.54,0-.73.07-1.21.63-1.77.78-2.47,1.2-4.37l-.14.41c0,.32.13.54.26.16.1-.8.68-2.12.24-2.37.11-.23.21-.51.3-.82.57-1.42,1.19-2.17,1.53-2.04-.04-.16.06-.29.1-.44.04-.03.09-.06.13-.08.05-.02.06-.05.2-.06.13,0,.32.02.42.06.1.05.09.09.15.15.16.2.3.39.49.36.05.18-.14.28,0,.49.11.02.04-.32.19-.31.37.15.94.65,1.1,2.52.22,1.61.39,3.06.66,4.29.63,2.61.83,3.47,1.11,4.89.26,1.33.51,2.65.76,3.92h-.1c.53.77,0,2.05.69,2.62-.05.22.1.77-.11.66.14.22.19.53.23.88,0,.09.02.18.03.27.01.1,0,.07,0,.12,0,.06-.01.12,0,.18.02.09.05.18.16.16,0-.03-.02-.02-.06-.01-.05.13.02.19.09.18.07,0,.15,0,.23-.02l.11-.02c.06,0,.02,0,.18,0,.25,0,.5.02.76.07-.11.04-.3.07-.33.17.41.19.97-.41,1.19.06.23,0,.17-.24.02-.22,2.32.18,4.79-.12,7.2-.22,1.73.28.11.79,1.47.44.11.09.08-.18.1-.08.53-.13.82.53,1.19.28-.15-.29.24-.16.25-.34,1.06.19,1.27.45,2.1.23l-.06.15c.1-.05.29-.1.33-.13.06-.04.11-.06.16-.09.1-.05.2-.07.28-.1.22.02.16-.36-.05-.57.39-2.43.78-4.81,1.16-7.18.41-2.59.83-5.16,1.3-7.74.2-1.01.41-2.01.61-3,.03-.06-.03-.06-.07-.04-1.18-.01-2.36-.02-3.55-.04-1.3-.03-2.6-.07-3.92-.15-1.23-.41-1.33-.4-2.68-.25.05-.06.14-.08.05-.14-.07.33-.96.02-1.09.34-1.95-.07-3.74,0-5.75,0,.32-.03.48-.3.1-.28l-.4.21-.06-.09c-.26.05-.54.21-.27.31-5.04.25-9.99-.44-14.92-.4-1.17-.14-2.84-.03-4.11.03-3.77-.46-7.17-.84-11-.56,0,0,.51-.84,2.09-1.03Z"/>
      <path class="cls-2" d="M118.11,165.03c-.15.15-.18.6-.44.28.15-.06.29-.31.44-.28Z"/>
      <path class="cls-2" d="M117.87,176.86c.05,0-.05.17-.07.21-.03-.14-.18-.26-.11-.38.03.14.1.11.18.17Z"/>
      <path class="cls-2" d="M118.15,179.85c-.15-.03-.34-.65-.41-1.02l.41,1.02Z"/>
      <path class="cls-2" d="M117.89,182.69c-.09.25-.17.2-.2-.13.07-.03.13.07.2.13Z"/>
      <path class="cls-2" d="M118.25,182.85c.03.23-.04.35-.11.48.12-.02-.14-.52.11-.48Z"/>
      <path class="cls-2" d="M123,187.81c.15-.01.46-.13.6.03-.15-.11-.71.19-.6-.03Z"/>
      <path class="cls-2" d="M125.82,187.59c.09,0,.13.04.23,0,.17.07,0,.17-.15.19l-.08-.18Z"/>
      <path class="cls-2" d="M144.07,184.75c-.05-.14-.09-.2-.13-.31l.15.02c0,.1-.02.16-.02.29Z"/>
      <path class="cls-2" d="M164.99,183.52c-.03-.32.17-.18.21-.23-.04.27-.16-.13-.21.23Z"/>
      <polygon class="cls-2" points="166.58 171.5 166.57 171.59 166.28 171.5 166.58 171.5"/>
    </g>
  </g>
  <g>
    <path class="cls-2" d="M185.08,167.36c-.14-.79-.71.42-.28-.52.31.11.55.26.28.52Z"/>
    <path class="cls-2" d="M181.1,165.83c-2.47,2.06-5.71-.02-8.41,1.29-.32.09.08-1.13-.63-.86-2.62,1.6-6.74.64-9.93-.59l.19-.32c-.61-.23-1.35.82-1.99.68,0-.21.21-.3.06-.59-.16.64-1.16.29-1.44.77-.25-.25-.23-.76-.56-1.03l-.37.73c-1.02,1.73-2.49-.12-3.88.77.07-.17.21-.3.09-.46-2.24,1.05-5.05.85-7.56,1.24.1-.26.19-.73.05-1.01-.12.77-.9.96-1.57,1.11-.3-.79-1.15.72-1.94.28l.07-.18c-.58.82-.86-.47-1.34.51l-.37-.62c-.26,1.11-.84-.57-1.32-.01l.02.23c-.45.27-.69-.29-1.11-.1l-.04-.13c-.99.29-1.56-.32-1.54.54-.35-.69.96-.31.41-1.32-3.24.89-6.59.72-9.86.73-.37-.35-.61-.45-.69-.78-.33.17-1.23.16-1.53.6.11-.02-.21-.44-.38-.49-.59-.33-.65.95-1.3.56.26-.23.35-.51.26-.83-.56.67-1.3.57-1.96.79.1-.15.26-.23.24-.5-.72.77-1.31-.16-1.94.32l.24-.5c-1.02-.61-.3,1.04-1.18.69.21-.16.14-.35.17-.56-.82.91-2.14.61-2.96.92.05-.07.04-.2.04-.2-.89.11-1.82-.17-2.8.23-.36-.22.12-1.22-.83-1.04.03,1-1.6.41-1.04,1.55-.8-.16-2.08-.54-2.61-.2.36-.38-.39-1.23.28-1.31l-.51-.61c.07-.41.52.14.36-.38-.34.04-1.31.44-1.61.27-.31.31-.61.75-.95,1.13-.33.38-.61.7-1.01.76.34-.39-.49-1.11-.23-1.28-.35.64-.54,1.28-.58,1.92-.21.05-.43-.79-.68-.53.16.27.09.43.12.64-.18-.11-.72.25-1.7-.74-.47-.39.29-.21-.33-.56-.56.01-.26.35-.77.36l-.15-.13c-.06-.02-.12-.03-.17-.02-.02,0-.05,0-.07.01l.03.1c.05.15.14.33.25.5.22.34.53.64.82.73.02-.17-.65-.47-.35-.52.64.78.84,1.35.87,1.74-.18-.25-.47-.42-.77-.69.88,1.18,1.15,1.77,1.54,2.36.5.16-.93-.45-.67-.47-.33.26.02.77.26,1.11.13.17.24.32.27.47.03.14-.03.28-.22.59-.11-.13.64-.21.51-.17.03.53-.65.65-.33.94-.38.12.24.4.45.71.33.11-.16.14-.29-.16.23.2.63.75.93,1.39.3.64.49,1.39.46,2.01.24-.1,1.17.32,1.23.57l-.61.13c-.26.36.37.8-.11,1.04.9.25-1.39-1.81-.57-1.3-.41.37,1.3.64.46.79.22.49,1.04.69.69,1.4.04-.18-.94-.06-.74.33.44.64.37.08.83.54l.4.23c.55-.24.23.63.71.09-.4.31.76.82-.15,1.22l-.74.28c.2.27.97.09,1.39.14-.05.07-.14.23-.26.28,1.04-.54.33.71,1.33.56.01.79.89,1.45.45,2.15.57.25,1.23.34,1.39.96-.16-.02-.29-.13-.52,0-.05.51.26.39.63.54-.19.05-.08,1.03-.14,1.64.61.19.98-.38,1.32-.6-.62,1.18,1.57.55,1.17,1.72-.24-.01-.96-.15-.87.37-.51,1.18,1.31.1,1.44,1.06l.56-.84c-.1.34.2.44.42.54.24.08.4.16.03.51.44-.1.48.83,1.05.06.21.71.87,1.12,1.41,1.57.55.44,1.03.86.84,1.79.24-.02.52.37.73-.08.06-.61-.57.07-.45-.29.15.07.33-.12.42-.22.19.4.41.64-.35,1.08.41,1,1.64-.79,2.37.09-.25.31-.26.48.06.59l.88-.28c.54.49-.1.99-.42,1.58.4.09.8.37,1.2.01l.02.99c-.01-.72.46-.18.71-.27l-.24.07c-.06.28.43.32.68.33.13-.4-.21-.74-.38-.95.31-.18.56,0,.95-.2-.37.56.37.68.62.87.26.28.6-.38.69-.31-.13.32.5.29.06.62-.15.05-.11-.42-.42-.23.11.33-.16.86.46.67.46-.15.43-1.24.88-.57-.23.08-.36.31-.58.47l.46.59.25-.55c.02.18-.05.2-.04.29.41-.52,1,.14,1.39-.48.32.05.5.61.77.78l-.07.03c.24.46.8.4,1.22.12l-.05.12c.18.12.67.18,1.02-.11.38.56-.43,2.23.34,1.64.54.11,1.08-.87.97-1.3.84.61,2.05-.05,2.76.95.17-.22.12-.38.41-.48.66.21,1.41.14,2.1.18.69.06,1.33.08,1.85.72-.42.23-.07.6-.08.94.37-.52.38.58.55-.34,0-.54.04-.81-.34-1.04.84-.26,2.06-.17,2.53.32-.23-.24-.05-.42.12-.59-.06.87.57.97,1.02.64l.05-.53.32.53c.17-.18.14-1.12.62-.63.04.2.07.41.17.55.46-.47,1.05-1.18,1.59-.82l.5.71c.21-.12.52-.63.11-.8.92.34,1.49.31,1.88.93.32-.46.68-.81,1.07-1.12.39-.33.8-.6,1.24-.81.86-.45,1.82-.58,2.64-.83l.07.4c.55.2.02-.74.41-.58-.03.41.59.66.38,1.22.78.17.61-.94.96-1.25-.11-.51-.22.43-.36-.22,0-.2,1.01.08.83-.69.27.23.35.82.38,1.14l.25-.49c.83.69-.51,1.91.39,2.79l.34-.25c.67.64-.7,1.22.38,1.15.3-.5.2-1.71-.28-1.88.74-.56-.33-1.9.53-2.23.42.32-.63.41-.22.93.65.4.67-.69,1.11-.65-.52-.09-.51-.97-.33-1.21.58.14.04.8.68.6-.09-.46.3-1.01-.31-1.08-.24-1.02.75,0,.69-.89.53.54.17,1.81.98,1.78-.42-.57.34-1.29-.48-2.01.33.04.63.5.65.98.57.17.22-1.6,1.03-.46l-.24-.69c.23.14.47.2.85.43.33-.17.49-1.38,1.03-.48.03-.16.73-.59.06-1.03-.66-.09-.17.8-.95.1.74.5.53-.5.61-.89l.27.32c.05-.23.42-.38.25-.81.03.27.25.46.42.47l-.22-.62c.37-.65.78.81,1.23.27l-.13.69c.03-.15.57.19.73-.16-.24-.54-.47-1.22-.66-1.64.14-.43.53.41.45-.3l.06.86c.06.2.84.54,1.23.18.13-.38-.03-1.34-.62-1.25.18-.17.68-.13.8.32.31-.53-.46-.42-.32-1.02.4.16,1.25.16,1.93.31l.24,1.06.28-.23c.16.88.59.28.93,1.05.29-.07.33-.48.35-.82-1.41-.42-.68-1.88-1.67-2.57.41-.9,2.5,1.59,1.85-.43-.34-.09-.68-1.05-.85-.38.51-.34-.61-1.09.24-1.25,0,.7,1.3.4,1.3,1.41-.26-.3-.52.1-.52.27.51.13.85.85,1.29.39.2-.34.48-.8-.03-1.14-.53-.43-.3.51-.68-.14.28-.74,1.16-.18.42-1.19-.22.43-.83.07-1.18-.24l.11-.59.29.37c.78-.46-.49-.71.11-1.27l.95.24c.49.62-1.02.73.06,1.4.39-.4,0-.93.57-1.14.01.15-.06.3-.04.45.14-.13,1.65.72,1.32-.52-.09-.57-.31-.35-.69-.63.36-.83.1-1.3.33-1.81.71.59.62-.79,1.08.23-.62-.04-1.25,1.04-.7,1.81,1.06.34-.49.52.26,1.3.47-.57,1.29.05,1.95.35.16-.15.03-.5,0-.67-.5-.44-.64-.21-1.21-.58.6-.6.72-1.48.42-2.18.43-.06.95.35.82.66.09-.23.2-.46.33-.68.11-.23.22-.46.34-.68.25-.44.54-.85.84-1.22-1.24.05.25-1.04-.75-1.06-.44.34-1.32.35-1.63-.1.2-.23.42.22.68.21-.36-.59,1.12-.12.46-.85-.08.91,1.11.71,1.81,1.21-.13-.79.53.28.83-.31-.18-.81-.24-1.7-.15-2.44.53-.28.77-.82.85-1.39.05-.58,0-1.17.09-1.56.52-.3,1.37.23,1.66-.18.13-.54-1.11.14-.47-.54l.16.12c-.14-.28,1.03-1.33-.31-1.84l.98.45c.12-.13-.09-.32-.18-.47.33.06.66-.06.84.23.78-.38.06-1.11.12-1.66l-.66.26c-.35-1.01.44-1.54.24-2.49l.6.08-.33-.58c.57.18.97-.31.5-.63.46.51.92,1.04,1.38,1.58-.37.38-.7-.52-1.3-.31-.26.08-.36.34-.33.61,0,.26.15.53.43.64.12-.32,0-.35-.19-.63.85-.02.74.48,1.25.8,0-.18.29-.41.03-.47.35.39.35.76.28,1.35-.26-.44-.55.14-.76-.05.72.15.85.76.53,1.45-.46.18-.38.54-.23.97.15.42.29.9.07,1.29-.64-.52-1.07-1.06-1.29-1.62-.45.43-.12.56-.61.98.47.37,1.25.75,1.39,1.51l-.54-.11c.1.68.88.91.52,1.66-.66,1.26-1.24,2.56-1.67,3.52l-.52-.18c.91,1.03-.45,1.93-.33,2.88-.55.48-.75,1.21-1.01,1.81-.28.59-.58,1.09-1.16,1.13-.47,1.11-.87,2.2-1.51,3.14-.3.49-.62.96-.97,1.43-.35.47-.72.94-1.21,1.34l-.31-.83c.13.71-.54-.1-.75.28.81.07.2.99.33,1.55-.61.19-1.03.65-1.35,1.21-.32.56-.6,1.15-.78,1.7l-.39-.39c-.04.71-.45,1.1-.96,1.39-.52.29-1.14.48-1.71.76-.25-.1-.74-.38-1-.13-.03,1.1-.35,1.26-.87,2.29-.58.46-1.77.8-2.56.89-.44.61-.95,1.11-1.5,1.56-.57.41-1.2.72-1.83,1.04-.63.32-1.28.62-1.91.96-.65.31-1.3.61-1.92,1.03l-.41-.54c-.54.55-1.19.97-1.89,1.29-.71.26-1.46.44-2.21.6-.74.15-1.47.3-2.16.44-.7.11-1.34.26-1.91.52l.06-1.12c-.77-.23-1.62.53-1.35,1.27-.39-.12-.84.1-1.27.19-.43.08-.84.1-1.11-.34-.78-.17-.91.55-1.55.73-.78-.17-1.31-.23-1.83-.21-.52-.03-1.03.03-1.76.1l.36.09c.17-.23.19-.7-.16-.79-.55.28-1.96-.39-1.5.95-1.49-.76-3.73.21-5.09-.99.07.37-.33.39-.53.6-1.38-.22-2.6-1.33-3.83-.99-.17-.23.5-.51-.04-.68-.36.05-.13.45-.58.55-1.18.03-2.21-.56-3.18-1.13-.48-.29-.95-.59-1.42-.87-.45-.31-.91-.57-1.39-.74-.89-.22-1.77-.49-2.63-.83-.83-.39-1.65-.83-2.45-1.28l-1.19-.69c-.39-.24-.75-.52-1.12-.78-.74-.52-1.46-1.04-2.19-1.52l.19-.19c-.8.08-1.14-.61-1.52-1.17-.37-.58-.75-1.07-1.61-.81-.04-.37-.72-.78-.22-1.02-1.18-.13-1.33-2.32-2.91-2.65.07.11.16.12.34.15-.27-.67-.71-1.12-1.15-1.59-.45-.46-.91-.94-1.14-1.66.18.04.41.2.64.07.07-.72-1.7-.35-.85-1.34-.18-.25-.64.18-.51.32-.63-1.46-1.62-2.71-2.55-4.06-.46-.68-.93-1.36-1.4-2.05-.23-.35-.48-.69-.69-1.04l-.57-1.1c-.14-2.47,1.94-.91.4-2.27.18-.22-.5.06-.26-.05-.61-.55.98-1.47.22-1.73-.69.42-.5-.18-.96-.06.11-1.52.73-1.93-.14-2.86h.42c-.38-.25-.6-.55-.78-.86-.09-.16-.17-.32-.24-.48-.08-.25-.16-.49-.24-.73-.32-1.01-.7-2.01-1.4-2.97-.12-1.45-.24-2.89-.36-4.32l-.19-2.2-.1-1.11c0-.34-.22-.89.28-.76,2.72-.21,5.45-.47,8.49-.55l2.25-.09.5-.02.3-.02.6-.04,2.39-.16c1.6-.1,3.19-.17,4.79-.21,6.34.26,12.54-.35,18.98.36,1.51,1.08,1.62,1.05,3.28.61-.07.18-.17.21-.06.38.08-.88,1.17-.08,1.32-.93,2.38.17,4.57-.08,7.02-.08-.39.09-.58.82-.12.76l.48-.57.08.25c.31-.13.66-.57.33-.85,6.15-.77,12.2,1.01,18.22.79,1.43.37,3.47.03,5.02-.15,4.61,1.18,8.76,2.14,13.44,1.31,0,0-.61,2.29-2.54,2.82Z"/>
    <path class="cls-2" d="M185.12,168.32c-.45.16-.72.69-1.29.23.42-.03.9-.3,1.29-.23Z"/>
    <path class="cls-2" d="M177.61,180.86c.11.07-.25.09-.34.1.04-.16-.22-.44.03-.47-.02.17.17.22.3.37Z"/>
    <path class="cls-2" d="M175.85,183.73c-.32-.24-.27-1.02-.13-1.41l.13,1.41Z"/>
    <path class="cls-2" d="M172.83,185.42c-.41.03-.52-.14-.33-.42.19.1.21.25.33.42Z"/>
    <path class="cls-2" d="M173.45,186.12c-.12.22-.41.18-.66.14.29.2.18-.59.66-.14Z"/>
    <path class="cls-2" d="M168.31,190.32c-.08.13-.09.62-.51.39.35.13.18-.89.51-.39Z"/>
    <path class="cls-2" d="M166.44,192.77c-.09.04-.17.01-.18.18-.25-.02-.29-.37-.2-.5l.38.33Z"/>
    <polygon class="cls-2" points="114.32 191.32 114.7 191.43 114.39 191.67 114.32 191.32"/>
    <path class="cls-2" d="M104.34,170.86c-.28-.35.39.12.46.13.05.17-.53-.39-.46-.13Z"/>
    <polygon class="cls-2" points="113.67 167.82 113.56 167.83 113.6 167.02 113.67 167.82"/>
  </g>
</svg>