<?xml version="1.0" encoding="UTF-8"?>
<svg id="Layer_2" data-name="Layer 2" xmlns="http://www.w3.org/2000/svg" viewBox="0 0 300 300">
  <defs>
    <style>
      .cls-1 {
        fill: #202020;
      }
    </style>
  </defs>
  <path class="cls-1" d="M262.97,147.8l-.44,1.55c2.28.98.74-.33.44-1.55Z"/>
  <path class="cls-1" d="M262.97,147.8l.32-1.11c-.37.3-.41.69-.32,1.11Z"/>
  <path class="cls-1" d="M266.54,144.02c1.48-2.54.53-6.39-2.63-6.62,2.06,2.22-.24,5.27,2.63,6.62Z"/>
  <polygon class="cls-1" points="261.48 139.43 262.45 141.12 263.98 141.3 261.48 139.43"/>
  <path class="cls-1" d="M260.53,132.2c.5,2.88,4.4.35,4.23,4.19.94-.26.75-1.78.7-3.2-.06-1.42-.06-2.74,1.51-2.69.37-3.38-1.8.15-3.18-1.31l.84,2.32c-1.64,2.54-2.99-1.01-4.1.69Z"/>
  <path class="cls-1" d="M59.96,200.48c-.23.02-.52.07-.88.23,0,.02-.02.06-.03.1h.93s-.02-.33-.02-.33Z"/>
  <path class="cls-1" d="M253.87,92.92c-.11-.75-.57-1.17-1.14-1.43-.17.63.04,1.16,1.14,1.43Z"/>
  <path class="cls-1" d="M245.41,80.89s.05.04.07.06c.24-.29.15-.28-.07-.06Z"/>
  <path class="cls-1" d="M239.58,73.5c.07.02.12.04.17.07.12-.26.12-.33-.17-.07Z"/>
  <path class="cls-1" d="M252.73,91.48c.41-1.65,3.44-4.04-.99-3.11l-.31.57c.29-1.32-1.83-1.61-2.56-2.41-.27.32-.47.61-.63.9.26.48.54,1.15.91,2.22-.05,1.58,2.13,1.19,3.58,1.83Z"/>
  <path class="cls-1" d="M232.5,245.98c-.61.94-1.77.44-2.75.78-.07,3.62,3.66-2.79,2.63,1.19.78-.63,1.17-1.41,1.49-2.17l-2.74-1.2c-.88,2,1.57-.1,1.37,1.4Z"/>
  <path class="cls-1" d="M61.36,213.54l-.03-.49c-.84.91-1.32.91-.9,2.61,2.3.07,3.36-3.22,6.37-2.49-.43-.24-.74-.84-.89-1.5-.81,1.71-2.75,1.93-4.54,1.86Z"/>
  <path class="cls-1" d="M65.9,211.68s.05-.08.08-.13c.15-.22.26-.43.35-.64-.18-.28-.29-.59-.27-.92-.27.48-.3,1.1-.16,1.69Z"/>
  <path class="cls-1" d="M201.93,262.32c-.43.07-.82.13-1.17.19.71.27,1.03.13,1.17-.19Z"/>
  <path class="cls-1" d="M79.38,58.28c.2-.52.39-1.06.51-1.53-.49.6-.57,1.09-.51,1.53Z"/>
  <path class="cls-1" d="M52.83,192.1c.06-.41.03-.81-.03-1.21-.12-.21-.25-.37-.38-.62l.41,1.83Z"/>
  <path class="cls-1" d="M234.08,245.87c-.06-.07-.11-.14-.16-.22-.02.05-.03.08-.05.13l.21.09Z"/>
  <path class="cls-1" d="M62.37,203.64l-1.3-2.45-1.19-2.5.08,1.78c1.62,0,.45,3.39,2.41,3.17Z"/>
  <path class="cls-1" d="M261.01,205.55c.1.16.19.32.31.48-.07-.22-.18-.37-.31-.48Z"/>
  <path class="cls-1" d="M142,175.98c.05.07.14-.01.25-.16-.09.06-.18.12-.25.16Z"/>
  <path class="cls-1" d="M142.72,175.59c.12,0,.24-.08.37-.2,0-.01,0-.02,0-.03-.09.01-.21.07-.35.15,0,.03,0,.05-.01.09Z"/>
  <path class="cls-1" d="M266.86,175.75c-1.68-1.1-4.09-2.38-3.56-4.23,3.48.17,1.78,3.19,4.79,1.02-.19-3.84-4.84-6.14-3.36-9.45l1.37.74c.09-2.28,1.11-6.65.99-8.94.68-.07.57.25.72.7,1.46-4.2-1.69-1.81.78-5.23l-1.64-1c-1.26,1.75-2.9,4.92-1.16,7.18-.89-1.14-2.04-.35-3.31.51-.57.39-1.17.79-1.79,1.06.24-2.89.39-5.81.39-8.76,0-2.64-.13-5.25-.32-7.84l.42,1.15.53-.33-1.03-1.76c-.39-4.66-1.08-9.23-2.06-13.7,1.5.41,3.56.44,3.61,2.31.42-1.6,1.96-1.64,3.2-.94.02-1.72-.07-5.35-1.66-4.34l-.27.69c-1.12.1-1.72-.69-2.36-.99-.51-2.19,1.63-1.5,2.33-2.15-.38-3.85-4.23.81-5.02-2.49l.67-.66c-1.22-1.01-2.12-2.68-3.79-3.06-.63-1.84-1.31-3.65-2.04-5.44,2.16-.78,2.57.49,2.76,2.09.22,1.76.03,3.88,1.94,4.27.61-2.09,3.1.05,4.66.41-1.44-1.59-2.9-3.13-4.34-4.62.62-.69,2.82-3.38.37-3.55l.04.47c-1.5-1.87-3.51-.35-3.55-2.44.38-.5,1.52-.34,1.96-.36-.24-1.89-1.89-.82-2.89-1.68-.25-1.87,2.64-.22,2.63-1.89-2.98-.93-1-3.25-1.96-4.87-1.36,1.15-3.2.06-4.9-.57-1.23-.48-2.31-.75-2.95.07-.41-.7-.8-1.41-1.22-2.11,1.52-.07,3.17-.15,4.11-1.41l1.62,3.07c1.74-1.29.2-2.56-1.37-4-1.65-1.4-3.32-2.94-1.97-5.27-.95-1.65-1.14-.89-1.51-5.1l-2.73,2.78c-.35-1.99.89-3.72,1.4-4.23-.88-.72-1.41-1.55-1.91-2.46.6-.15,1.24-.17,1.82.23.77-2.46-.11-2.31-1.32-1.96-1.25.03-1.91-.93-2.66-1.84l1.78-.13c-.72-.34-1.62-.74-2.19-.34-.34-.36-.7-.66-1.18-.82-.27.68-1.43,2.78-1.12,4.65-.79-2.11-1.98-3.6-2.97-5.18-.97-1.61-1.84-3.21-2.1-5.65.86-.72,2.96-.62,2.71-1.05-1-1.74-3.83-1.72-4.82-.34-.39-.2-.66-.38-.88-.55.36-.95.7-2.01.13-2.72.07-.4,0-.86-.41-1.38-2.4,1.89-4.29-1.47-5.74-.87.47.77,1.29,1.38,2.18,1.95-2.46.65-4.87,1.71-4.77-.29,3.34.15-.44-4.35,3.38-2.45-.04-4.93-2.9,1.28-4.59-1.64l-.79-2.42c1.5-1.66,3.34,1.01,3.43.05l-1.33-.6c1.06-.26,2.56.6,4.29,1.58,1.69,1.03,3.67,2.08,5.77,2.24-1.5-1.77-3.06-3.51-4.66-5.24-4.32-1.49-8.24-4.31-12.45-6.44-4.13-2.21-8.49-3.76-12.73-2.98.1.03.2.05.3.07-.2.15-.42.5-.85,1.23l-.07-.64c-.65.32-1.29.64-1.93.99-.68-2.46-3.28-4.06-5.22-6.39,1.09,1.82,1.08,1.81.66,3.43-1.06,1.98-1.59,2.8-3.51,1.28.47-1.5,1.84-1,.59-2.74.61,1.02-.5,1.82-1.52,1.68-.92-1.42-3-2.17-2.59-3.72.72-.24,1.05.42,1.38.76.73-.23-2.04-2.06.11-2.79l-2.5-.24c-1.05-1.67,1.47-1.74,1.14-2.71-2.16-.09-3.99.74-5.71,1.54-1.72.8-3.35,1.63-5.23,1.86.32-.79,1.01-4.25.78-3.25-1.32-.76-3-.14-4.71.77-1.72.91-3.44,2-5.01,1.94.57-.98,1.7-.42,2.71-.8-4.74-1.32-9.17-1.87-13.56-2.55-2.2-.34-4.39-.59-6.64-1.04-2.25-.35-4.56-.83-7.01-1.42-.69,1.3-1.35,2.6-1.99,3.89l-2.74-2.07c-2.52-.16-4.9-.05-7.14.33-2.22.45-4.36.96-6.38,1.79-2.03.81-4.02,1.66-5.97,2.72-.98.51-1.97,1.02-2.98,1.54-.99.54-2,1.1-3.03,1.67-2.61,1.29-2.59-1.71-4.28-2.08-3.08,1.16-4.57,2.82-5.83,4.7-1.28,1.85-2.4,3.78-4.79,5.66.15-1.36-.1-4.81-2.51-3.6.1,1.16.64,2.7-1.11,3.02l.15-1.39c-2.16-.57-2.61,1.54-5.67,2.7-4.64,3.29-7.39,8.71-8,14.62-3.78,2.91-2.26-3.23-3.42-3.21,3.49-1.28,1.4-2.06,1.17-3.51-.75,2.02-2.02,3.88-4.45,2.68-1.77,1.94-2.79,2.63-3.3,5.71.27-1.55,2.02-1.35,2.01.33-1.04.44-2.31,1.79-3.58,2.74-1.27.95-2.48,1.57-3.61.38-7.77,9.61-15.76,21.09-20.73,33.46.72,2.7,1.22-1.32,1.85.26.83,3.78-1.98,1.95-1.31,4.95l-1.26-1.6c-1.62,3.55.22,8.47.87,12.32-1.77-1.11-2.42,2.46-2.74-.77-.1.9-2.42,1.32-4.55,1.82-2.13.48-4.09,1.03-3.36,1.94,2.88-.1,5.74-.15,8.6-.15.77.29-.27,2.59.32,2.46-1.99,1.14-4.18,2.7-4.38,3.79-2.16.17-1.26-2.52-.89-4-3.45-.98-3.16,4.74-5.94,1.9-.03,3.47,1.86-.15,2.79,2.06-.41.92-.86,1.84-1.22,2.77.47-.69,1.01-1.37,1.52-2.05.6,2.58,3.24,3.72.87,6.64.98,1.22,2.06,2.42,3.12,3.58-2.79.1-.7,2.32-1.45,3.93l-1.7-1.15c-.06,2.25-.5,3.1-1.57,4.5-2.41-1.35.64-2.04-1.66-2.68l-.89,2.52c1.58.03,2.77,1.63,3.77-.13,2.85,2.37,5.29,3.53,5.24,9.04-1.25,1.32-1.9.7-2.55-.15-.62-.84-1.23-1.89-2.55-1.3-.48,3.02,1.5,4.75,3.43,6.05,1.93,1.31,4.08,2.21,4.1,3.87-.29,2.17.2,3.11.89,4.01.67.9,1.5,1.77,1.96,3.82-2.09-.96-1.27,3.3-2.77,4.49l-2.24-1.26c.74,1.02.53,2.21-.42,2.48,2,.15,3.31,5.26,5.25,7.55l1.85-1.14c.7.99,1.63,2.12,2.4,3.3.78,1.18,1.51,2.38,1.69,3.61,1.93,3.07,3.44,1.57,6.6,3.05-1.14,2.13-3.22,2.98-5.53,3.49.58-1.34-.67-2.57-.72-4.28-1.67-1.76-3.93-3.08-5.77-4.65-1.78-1.57-3.39-3.31-3.51-5.76-2.75-.28-2.38.46-1.46,1.62.93,1.16,2.5,2.63,2.01,4.03-.31.04-.46-.09-.57-.25.06.2.09.38.05.61-1.14-1.43-2.85-3.87-5.45-3.6,1.38,2.73,5.53.47,4.59,4.62,2.23,2.02-.67,5.5-.39,7.22,2.49.96,6.3-.66,7.35,3.6l-3.39-.52c.99,2.31,2.26,2.35,3.42,2.36,1.18,0,2.32-.03,3.28,1.99-.41-1.55,3.17,0,1.9-2.65,1.98.6,3.78,3.15,4.25,5.61.68.31.9-.39,1.79-.8.22-1.62-.7-2.24-1.5-2.89-.81-.64-1.5-1.31-.69-2.92l-3.57-.17c-.11-2.68,2.05-3.93,3.79-3.2-.41-.53-1.07-.85-.77-1.53,4-2.37-.25,3.23,3.65,2.16l-1.03-1.28c.9-.72,1.67-.62,2.34-.12.81,1.59,1.66,3.16,2.55,4.7,0,1.09.07,2.1.02,2.96-.04,1.02-.3,1.86-1.18,2.52-.86-.73-1.68-1.48-2.48-2.27-.7,2.39,3.06,2.98,3.97,4.59-.18.27-.27.55-.29.82.11-.19.24-.35.42-.46.12.4.1.84-.15,1.38.89,1.41,3.32,2.63,3.71,4.24l1.44-1.33-1,.5c-.85-1.25-1.01-3.6.82-3.54,1.48.95,1.61,2.07,1.25,3.21-.36,1.14-1.21,2.27-1.62,3.12-2.85,1.23-2.07-2.64-3.86-3.46-.89,1.29-.46,2.09.32,3.01.78.92,1.85,2,2.21,4.05-3.44.9-2.57-3.35-5.46-2.17,1.44,2.7,3.66,1.93,5.06,4.82-1.44.7-3.49-1.63-4.87-.27.19.73.37,1.48.58,2.22-1.68-1.94-2.32-1.15-2.95-.17-.62.97-1.19,2.13-2.79.73.19,2.39,3.72.49,3.97,3.89.55-1.53,1.14-4.8,3.79-3.68l1.18,2.82c-.35,2-4.61-.03-4.34,2.31.97.55,1.93,1.1,2.93,1.6.63-.74-.02-2.14,1.6-2.37.46,2.01,4.73-.46,7.12-.05,1.08,1.16,1.86,2.17,1.49,3.39,4.85.72,8.67,3.96,13.17,3.97-3.09.02-1.98,2.73-1.58,4.78-2.59-1.38-4.45.94-5.48,2.64,1.66.92,4.51-.96,4.37-2.3,1.71,2.75,2.9-.53,3.86,2.67.82,1.85-2.4,1.99-2.56,3.27,2.7,1.98,2.81-2.57,5.39-.04-.38.24-.72.17-.79.8,1.28,1.62,3.83,1.42,4.94.31-.12,2.22,1.2,2.86,2.24,3.3,1.07.41,1.87.67.79,2.29,4.65,1.22.34-2.19,1.8-2.96,1.23-.33,2.43.2,3.44.95,1.02.71,1.85,1.63,2.21,2.13-1.06-.39-2.48.15-3.2-.88l-.27,2.84c4.61,4.17,5.78-3.96,9.98.19-3.15.26-1.62,1.55-3.66,2.77,1.07-.29,4.91,2.02,3.15-.87,1.86,1.01,3.12,1.85,4.34,2.81,2.1-.34,4.26-.51,5.77-1.91,2.67,1.09,4.31,3.39,5.45,4.85,1.62-.11,3.13.06,4.62.31,1.49.26,2.93.73,4.41,1.09,1.48.36,2.97.71,4.52.89,1.55.18,3.16.07,4.81-.3l-.47-.2c4.97.86-1.95-3.69,3.16-3.27-.84,3.26,2.99,2.3,4.67,4.08,1.61.44,3.13.43,4.57.29,1.44-.13,2.81-.48,4.15-.87,1.34-.37,2.65-.72,4.01-.88,1.36-.22,2.76-.23,4.31.13.05.69-.23,1.55-1.37,1.78,1.17.11,2.28.12,3.35.07,1.06-.1,2.08-.26,3.08-.44,1-.2,1.98-.4,2.97-.6.98-.24,1.97-.48,2.99-.67l-.09.43c3.59.59,6.7-.49,9.63-1.97,1.45-.79,2.87-1.68,4.3-2.56,1.42-.93,2.84-1.88,4.36-2.69-.36.59-.03,1.79-.28,2.36,3.55-.56,8.97-2.6,9.74-6.42,2.59.5,3.1-.06,3.69-.71.61-.65,1.3-1.35,4.43-1.36.57.34-.18.73-.43,1.02,2.86-.43,4.27-1.79,6.76-2.94,3.74-5.21,2.26-9.3,8.14-12.63,3.19,3.17-2.43,3.55-.35,6.36.61-1.46.9-2.93,3.03-3.37.27,2.07.53.99.99,2.76.94-.04,1.33-1.91,1.46-3.69.13-1.79-.04-3.54.11-3.37-.53-.68-1.21-.69-2.09.32-.35-1.56.79-2.72,2.23-3.9,1.47-1.14,3.1-2.46,3.83-3.99-.79.72-3.68,2.48-4.33.11,1.8-1.2,2.18-2.81,2.15-4.5-.06-1.72-.51-3.52-.26-5.17,1.99-.76,2.28.34,2.38,1.87.11,1.52.03,3.47,1.44,4.22,1.28.26,4.26.65,4.05,2.75,2.98-2.35,2.51-6.19,3.92-9.13l.66.6c1.16-1.98,1.72-4.45,2.23-6.76.54-2.31,1.25-4.32,2.92-5.51l-1.86,1.19c-.09-.9,1.25-2.71.28-4.64,1.06.74,3.11-.58,3.97.09-1.2-1.93-.74-4.26-.3-6.61.4-2.58.89-5.11-.82-6.96,1.51-.6,2.94.95,3.8,1.7-1.44,2.4-2.71,2.81-1.59,4.94.89-2.12,2.69-3.19,3.54-2.44-1.74-3.33-.89-8.79-3.37-10.8,1.91-1.06,3.17-2.33,5.32-1.04.28-3.62-1.8-3.27-3.61-3.06-1.82.22-3.41.35-2.37-3.23,3.23-2.72,2.16,4.13,4.26-.32l.13.97c3.54-.9,2.54-1.86.88-2.94ZM208.71,126.88c.65.09,1.14.23.61.45-.34-.68-1.45.35-.61-.45ZM209.46,128.15c-.92.13-1.44.57-2.65.17.86-.02,1.83-.24,2.65-.17ZM197.76,138c.03.14.45.23.81.39.26.08-.4.05-.56.04-.03-.14-.75-.45-.26-.43ZM192.39,141.45c.41.14.58.3.93.49-.71-.07-1.04-.26-.93-.49ZM190.7,146.41c0,.14.48.7-.36.36.61.19-.65-1.01.36-.36ZM190.5,149.24c-.39-.08-.82-.52-.82-.65l.91.48c-.09.04-.23-.02-.09.18ZM154.93,174.26l.05.8-.28-.37.23-.44ZM134.1,172.17c.27-.02-.36.94,0,.91-.41.43.02-.78,0-.91ZM121.93,172.63l-.8,1.46.71-1.49.09.03ZM208.89,135.66l-1.12-.15c.48.62,2.13.91,1.71,1.55-.38.54-.59,1.12-.8,1.66-.22.53-.42,1.04-.6,1.46l-1.1-.24c2.21,1.08.42,1.84,1.28,2.8-.68.41-.58,1.1-.59,1.69-.05.58-.18,1.07-1.2,1.02.04,1.1.09,2.16-.02,3.19-.06.51-.14,1.02-.32,1.5-.2.47-.46.92-.8,1.36l-1.32-1.03c.92.86-.96-.19-.91.24,1.38.2,1.3,1.21,2.07,1.91-1.58.27-.89,2-.31,3.37l-1-.54c1.36,1.81-.82,1.77-1.69,2.47-.46-.15-1.46-.57-1.52-.24,1.21,1.5.93,1.69,1.39,3.08-.34.55-1.4,1.07-2.34,1.15.28,1.71-.32,2.84-1.01,3.87-.73,1.01-1.64,1.86-1.97,3.33l-1.08-.8c.17,1.87-.75,2.96-1.87,3.71-1.09.8-2.24,1.41-2.59,2.66l-1.27-1.9c-.92-.13-.75,1.41.35,2.58-.96-.17-.7,1.85-2.15.59-.79.05-.06,1.33-.36,1.91-1.46.05-1.81.47-2.51,1.28.04.09.07.18.1.26l-.35.04c.09-.11.18-.2.26-.3-.21-.48-.61-1.05-.9-1.02-.08.77-1.82.34-.01,2.43-1.97-.67-2.21,2.74-4.38,1.53.44.61.2.88.29,1.39-1.12.55-2.9-.29-3.27,1.25-.33-.26-.23-1.28-.71-1.15-.15.38.38.89.22,1.42-1.28,2.17-4.26.14-5.78,1.06-.63.6-1.33,1.07-2.05,1.46-.73.36-1.52.58-2.3.79-1.57.4-3.14.7-4.61,1.1l-.07-.54c-.67,2.2-2.68-1.76-3.02,1.46-.31-.48-.95-.11-.91-1.18-.59,1.44-2.12-.65-3.13.52.01.01.03.01.04.03-.1.24-.16.36-.27.31.07-.14.15-.24.23-.34-1.24-1.06-2.16.57-3.44-.45.12-.24.34-.42.35-.97-.49-1.02-1.05,2.35-1.37-.27-.27.04-.17,1.33,0,1.24-1.35-.4-2.72-.35-4.14-.04-1.42.29-2.89.82-4.34.99-1.85-1.84.36-4.41-1.42-2.69-.06-.52-.22.98-.17.44-.71.64-.53-3.04-1.13-1.73-.06,1.62-.41.85-.57,1.82-1.06-1.21-1.01-2.68-2.17-1.61l.23-.82c-1.55,2.16-2.54.56-4.11,3.03-3.2-.4-6.32-1.03-9.5-1.62-1.57-.35-3.1-.84-4.65-1.31-.77-.25-1.54-.49-2.3-.78-.74-.33-1.47-.68-2.19-1.05-1.32-.93-2.73-1.67-4.05-2.56l-3.97-2.66c-1.33-.88-2.5-2.01-3.67-3.1-.58-.56-1.14-1.14-1.68-1.75-.52-.63-.97-1.33-1.41-2.04.54-2.66.46-2.65-1.35-3.23.31-.19.44-.17.62-.48-1.41,1.16-.93-.71-2.32.3-.62-1.05-1.37-1.92-2.16-2.78-.77-.87-1.66-1.67-2.31-2.74.38.22,1.7-.48,1.36-.79l-1.22.26.38-.35c-.39-.11-1.33.1-1.64.7-1.19-1.11-2.12-2.41-2.85-3.81-.63-1.46-1.09-3-1.5-4.54-.45-1.51-.65-3.11-.97-4.63-.16-.76-.34-1.51-.56-2.24l-.72-2.16c.34-1.61-.87-3.37-1.64-4.83.73-2.56,1.53-4.86,1.77-7.02.43-2.19.4-4.25-.57-6.52,0,0,4.75.61,5.93,2.22,2.19.98,2.23,2.14,2.1,3.4,0,1.23-.19,2.57,1.32,3.45.22.23-2.3.35-1.65.85,1.74.82,2.48,2.04,2.47,3.56,0,.76-.17,1.59-.44,2.46-.28.87-.52,1.74-.89,2.62l-.68.07c-.25.68,2.02.51,1.94,1.14-.4.17-.64.06-1.15.41,1.27-.36.93.73,1.93.57-.4.41-1.36.8-1.78,1.3l1.49-.3c3.61-.68.74,2.03,2.94,2.29-.33.11-.63.13-.89.37,1.43.34,2.2,1.12,3.06,1.87.82.77,1.5,1.64,2.39,2.29-.48.23-1.33.71-1.75,1.15,1.37-.8,2.04-.49,2.59-.21-1.16,1.15,1.78-.14,1.46.89l-.32.18c1.64-.67-.33,1.16,1.51.2l-.81,1.03c1.91-1.28-.49,1.29.66.87l.35-.31c.65-.07-.1.82.4.84l-.18.2c.98.21.38,1.38,1.68.17-.86,1.16-1.02-.13-2.26,1.58,1.63.37,2.83,1.08,3.88,1.96,1.07.85,2.09,1.74,3.1,2.62-.22.75-.21,1.05-.58,1.62.44-.11.99.43,1.75-.15-.1-.03-.42.82-.35.98,0,.83,1.63-1.25,1.59-.31-.46.26-.86.68-1.2,1.25,1.21-.85,1.58-.32,2.29-.37-.24.2-.45.27-.76.74,1.39-.95.71.91,1.7.39l-.73.75c.02,1.54,1.39-1.66,1.58-.62-.32.17-.49.55-.74.88,1.57-1.18,2.21-.16,3.11-.36-.11.1-.24.35-.24.35.75.16,1.13,1.05,2.22.73.04.55-1.27,2.17-.4,2.23.92-1.82,1.58-.18,2.22-2.46.43.57,1.05,1.7,1.74,1.24-.6.59-.75,2.44-1.33,2.37l-.12,1.32c-.41.75-.29-.45-.61.58.31.05,1.41-.35,1.51.06,1-.96,2.31-2.91,3.17-2.87-.57.53-.62,1.76-.86,2.25.81-1.04,1.6-2.09,2.36-3.14.28,0-.51,1.55.05,1.17.17-.52.44-.78.7-1.16.02.25,1.2-.13.67,1.84-.14.8-.56.26-.5,1.05.49.15.73-.51,1.21-.37l-.07.26c.23.4,1.18-.51,1.17-1.71-.19-.14-.27,1.2-.42.52.57-1.06,1.18-1.17,1.66-1.1-.25.28-.38.81-.6,1.34,1.04-1.34,1.81-1.69,2.62-2.15.12-.27.18-.39.09-.05-.03.02-.06.03-.09.05-.17.38-.44,1.06-.54,1.14.61,1.32,2.14-1.27,2.52.48.03-.35.23-1.14.2-.94.4.22.11,1.61.5,1.15-.13.82.41-.21.75-.41.19-.42.1,0-.06.26.7-.62,2.21-1.33,2.9-.13.06-.54.81-1.9,1.01-1.81l-.23,1.26c.03.24.12.33.21.37.06-.08.1-.09.1.04.12.03.24.05.3.21.02,0,.03,0,.04,0,.34-.32.68-.78.9.07-.1-.21-.51,1.74-.14,1.67.66-.2.23-.6.78-1l.35-.51c.1-1.24.54.19.4-1.2.02,1.03.92-.59.76,1.47l-.16,1.61c.29-.11.53-1.69.76-2.39.03.15.09.48.07.74.12-2.48.64.24.99-1.66.27.44.62.48.94.6.32.09.6.27.74,1.03.43-.77.78-1.69,1.29-1.18-.09.24-.22.32-.23.85.34.72.39.06.65-.36-.05.37.69,1.42,1.1,2.28.4-.76.15-2.09.14-2.91.58,2.42,1.06-1.61,1.74.55-.11.37-.52,1.23-.1,1.84.65,2.4.62-1.91,1.38-.83l-.39-2c.43,1.21.75-1.3.96.76.11-.76.83.56.48-1.39,1.28,1.48,2.25-1.27,3.55,2,.08-.36.52-.12.23-1.1-.47-1.02-.17.86-.42.14.12-.09.04-.63,0-.9.4.37.68.45.73,2.13.99,1.02,0-3.47,1.03-2.92.16.81.3,1.09.52.9l.14-1.48c.64.18.8,1.72,1.17,3.07.25-.31.66-.33.52-1.37l.87,1.59c-.63-1.14.02-.87.06-1.27l-.05.38c.22.54.48.07.6-.16-.3-.81-.75-1.02-1.02-1.19-.02-.64.25-.58.24-1.34.34,1.33.77.76,1.05.81.36.19-.08-1.27.01-1.25.23.67.47-.04.58.97-.02.25-.43-.58-.39.06.34.44.72,1.61.81.63.06-.74-.95-2.52-.14-1.89-.02.37.13.89.18,1.39l.74.49-.4-1.18c.17.27.16.39.25.54-.3-1.28.62-.64.21-2.05.2-.2.82.63,1.12.68v.12c.56.58.75-.06.66-.93l.09.26c.19.02.47-.32.37-1.08.75.69,2.01,4.23,1.82,2.61.39-.23-.32-2.35-.81-3,1.06.44.94-1.72,2.45-.3-.13-.5-.34-.75-.28-1.12,1.21-.13,1.26-2.43,3.28-.77-.01.61.62,1.07.99,1.68-.34-1.09.89.82-.02-.86-.61-.94-.88-1.42-1.38-1.65.13-.42.41-.75.76-.89.33-.17.75-.15,1.19.18-.44-.33-.51-.7-.58-1.06.95,1.52,1.51,1.45,1.46.72l-.58-.93.83.78c-.08-.37-1.19-1.96-.29-1.31.26.33.53.67.76.88-.2-.95-.68-2.46.2-1.95l1.24,1.07c.04-.24-.31-1.16-.84-1.35,1.13.33,1.54.11,2.58,1.03-.59-1.71-.61-2.84-.33-3.63.29-.79.89-1.25,1.41-1.68l.54.61c.79.28-.87-1.16-.3-.94.46.64,1.39.99,1.86,1.88.99.21-.52-1.5-.55-2-.73-.78.3.68-.63-.32-.24-.31,1.11.06-.02-1.11.55.34,1.36,1.23,1.78,1.73l-.35-.77c1.68.98,1.82,2.99,3.81,4.28l.05-.42c1.47.92.77,1.97,1.79,1.74-.32-.82-1.84-2.63-2.59-2.89.18-.83-2.62-2.85-2.01-3.29.86.49-.24.57.85,1.37,1.22.61-.03-.99.49-.94-.68-.13-1.73-1.44-1.83-1.79.81.21,1.02,1.19,1.47.88-.66-.68-.91-1.5-1.66-1.6-1.52-1.5.78-.04-.33-1.3,1.27.8,2.34,2.61,3.28,2.62-1.17-.84-1.08-1.79-2.94-2.88.46.09,1.36.77,1.95,1.45.9.28-1.6-2.21.73-.56l-1.1-.98c.44.21.82.32,1.56.67.2-.22-1.04-1.88.75-.56-.14-.21.29-.7-1.1-1.37-.97-.21.68,1.04-1.15,0,1.56.78.13-.6-.21-1.09l.72.46c-.2-.3.11-.45-.61-1.04.36.36.87.65,1.09.67l-1.01-.85c-.26-.8,1.98,1.17,1.95.51l.63.9c-.13-.19.99.32.79-.13-.9-.72-2.08-1.66-2.79-2.22-.29-.52,1.21.61.33-.28l1.01,1.08c.3.26,1.81.83,2.01.46-.2-.44-1.47-1.65-2.25-1.66.09-.17.87-.03,1.53.54-.1-.59-1.13-.61-1.56-1.3.79.28,1.98.41,3.14.69l1.54,1.36.15-.25c1.22,1.13,1.16.42,2.53,1.44.33-.06-.06-.57-.35-.96-2.64-.77-2.95-2.34-5.21-3.33-.27-.95,5.55,2.31,2.47-.14-.49-.13-1.5-.84-1.74-.83.08.1.1.18.01.23-.1-.17-.08-.22-.01-.23-.34-.42-1.85-1.14-.91-1.15.73.79,2.46.68,3.51,1.84-.72-.39-.71.03-.55.22.94.24,2.2,1.13,2.44.67-.07-.38.09-.79-1.11-1.27-1.29-.58-.08.48-1.28-.3-.18-.73,1.85.06-.36-1.19.05.43-1.35-.11-2.22-.51-.11-.2-.23-.4-.37-.61l.83.45c.85-.34-1.49-.87-1.04-1.34l1.81.44c1.41.76-.98.6,1.44,1.52.26-.37-.91-1.01-.15-1.13.17.17.19.31.37.48.13-.1,3.38,1.04,1.74-.32-.61-.59-.83-.42-1.73-.78-.02-.76-.88-1.29-.86-1.74,1.75.72.46-.66,2.11.43-1.14-.15-1.39.79.21,1.69,2.19.57-.5.41,1.56,1.41.26-.54,2.31.29,3.7.72.16-.13-.35-.51-.52-.69-1.25-.55-1.31-.33-2.63-.82.59-.5.12-1.38-1.01-2.13.72.02,1.99.51,2.01.81-.04-.87.26-1.66.89-2.28-1.94-.12-.77-.74-1.57-1.02-.14-.03-.28-.06-.41-.09-.06,0-.11-.02-.17-.02-.59.25-2.19.12-3.1-.36.2-.18.94.28,1.42.31-.73-.41.39-.25.71-.32-.2-.11-.38-.24-.48-.4.59.26.64.36.48.4.3.17.69.29,1.15.39.17.02.31.05.41.09.71.15,1.49.29,2.2.54-.81-.78,1.19.35,1.33-.18-.79-.78-1.36-1.59-1.57-2.24,1.78-.38.34-1.86.38-2.5.93-.2,2.84.35,3.24,0,.04-.46-2.16.01-1.16-.52l.38.12c-.4-.24,1.29-.97-.78-1.5l-.47-.1c.18.03.33.07.47.1l1.62.36c.21-.1-.25-.28-.46-.41.69.08,1.34,0,1.76.26,1.56-.27-.14-.95-.17-1.41l-1.27.18c-.95-.87.33-1.29-.07-2.09l1.24.09-.71-.5c.96.14,1.65-.1,1.36-.35-.12-.05-.24-.12-.36-.17.19.05.29.11.36.17.87.39,1.73.79,2.6,1.21-.75.31-1.47-.47-2.7-.31-1.07.12-.78.85.4,1.06.15-.27-.12-.31-.55-.55,1.72.02,1.63.44,2.77.75-.04-.1.14-.2.17-.28-.08-.04-.14-.08-.24-.13.21.03.26.07.24.13.58.31.7.62.71,1.07-.55-.34-.93-.04-1.33-.05,1.31.2,1.71.71,1.25,1.26-1.81.24.93,1.31.33,1.99-1.47-.52-2.63-1.05-3.18-1.54-.84.33-.04.49-.87.81,1.1.37,2.81.78,3.4,1.48ZM193.98,142.8c.07.01.14.02.21.04.17-.05-.23-.52.79-.06-.05.16-.4.13-.79.06-.04.01-.1,0-.21-.04ZM196.1,139.46l1.25,1.37c-.77-.3-1.23-1.03-1.25-1.37ZM236.61,82.2c-.59-.7-1.19-1.39-1.8-2.08.71-.26,1.45-.46,2.24-.5.42,1.19.14,1.95-.44,2.58ZM242.67,77.02h-.01s.79-.16.79-.16c-.25.06-.52.12-.78.16ZM250.35,103.23c-.43-.87-.87-1.73-1.33-2.59,1.88.24,1.67,1.32,1.33,2.59ZM257.64,122.72c.09-.03.18-.05.28-.08l-.17-1.62c1.51,2.11,4.67,3.23,3.66,5.45-.68,1.16-1.83.59-2.89-.08-.28-1.23-.56-2.46-.88-3.67Z"/>
  <path class="cls-1" d="M143.13,175.82c.14-.34.12-.46,0-.47-.01.01-.02.02-.03.03.03.1.05.22.03.43Z"/>
  <path class="cls-1" d="M43.84,188.15c-.08-.24-.21-.5-.39-.85.19.35.25.64.39.85Z"/>
  <path class="cls-1" d="M267.74,119.69l-1.34-.13c-.08.73-.14,1.45-.27,2.18.48-.44,1.62-1.56,1.61-2.06Z"/>
  <path class="cls-1" d="M256.4,84.56l.75,3.22c1.48.27,1.15-3.86-.75-3.22Z"/>
  <path class="cls-1" d="M251.79,77.5c-2.58.75-1.07-3.16-3.31-2.2,1.05.22,1.23,3.58,3.31,2.2Z"/>
  <path class="cls-1" d="M235.74,69.83c1.38-1.17,2.16-.15,2.84,1.16-.73.04-1.53.39-2.16.14,2.6.72,2.52,1.03,4.43,1.84-.37-2.21-1.79-4.87,0-6.21-2.19.08-5.21.72-5.11,3.07Z"/>
  <path class="cls-1" d="M239.81,63.59c-1.07-.91-2.4-1.79-3.73-2.37-1.34-.57-2.63-.9-3.52-.85l.11,1.37c2.84.2,4.37,2.85,7.14,1.85Z"/>
  <path class="cls-1" d="M190.29,39.01c.78-.85-2.05-3.33-.52-1.61-.81,1.06,1.15,3.24.52,1.61Z"/>
  <path class="cls-1" d="M36.09,137.57c.16-1.91-1.01-.98-1.4-2.43-.89,1.65-.45,2.73,1.4,2.43Z"/>
  <polygon class="cls-1" points="36.3 139.79 35.38 139.95 33.92 140.98 36.3 139.79"/>
  <path class="cls-1" d="M33.29,151.59c-.29-.08-.62-.39-.81-.71.26.68.53,1.25.81.71Z"/>
  <path class="cls-1" d="M32.36,150.53c-.07-.33.05-.67.56-.8l-.97-.13c.15.2.28.57.41.93Z"/>
  <path class="cls-1" d="M31.41,153.33l1.65,1.88,2.7-2.38c-1.42-2.32-1.35,2.74-4.35.49Z"/>
  <path class="cls-1" d="M35.56,169.59c1.38,2.9,2.66,2.27,3.9,1.8,1.26-.48,2.4-.8,3.69,2.35.17-3.25-1.44-3.75-3.13-4.21-1.64-.45-3.37-.85-2.81-3.88-1.64,3.09-1.84-1.67-2.73-2.54-.61,2.32,4.05,4.77,1.09,6.48Z"/>
  <path class="cls-1" d="M39.81,161.5c-1.67-.18-1.48,2.52-.29,3.2.08-.81,2.19-2.37.29-3.2Z"/>
  <polygon class="cls-1" points="37.02 176.85 38.16 177.1 37.83 174.75 37.02 176.85"/>
  <path class="cls-1" d="M38.89,181.81l-2.33-1.29c.88.41,1.49,3.1,2.33,1.29Z"/>
  <path class="cls-1" d="M42.17,190.8c.03.28.07.56.12.83-.72.03-1.44,2.43-2.63.46.05,1.88,4.68,1.75,2.5-1.29Z"/>
  <path class="cls-1" d="M55.66,209.67c-.49-1.04-1.65-1.93-2.32-1.27l2.35,2.28-.03-1.01Z"/>
  <path class="cls-1" d="M63.08,200.15c.35,1.53.17,1.71,1.52,3.68,1.64-1.95-.87-2.16-1.52-3.68Z"/>
  <path class="cls-1" d="M54.37,214.74c-1.39-.15-1.54-1.67-1.81-2.45-1.1,1.13.46,2.83,1.81,2.45Z"/>
  <path class="cls-1" d="M64.5,220.98c-1.46-1.06-3.42-1.25-4.77-1.66-1.36-.39-2.12-.98-1.06-2.76-1.86.08-3.67.09-5.53.08.96,2.9,3.93.07,4.84,1.85-.27,1.48-1.35.67-1.49,1.74.18,1.28.64,2.41,1.33,3.21.71.79,1.61,1.27,2.59,1.33.52-1.18,2.48-3.68,4.09-3.79Z"/>
  <path class="cls-1" d="M64.11,210.55c2.59-2.25-1.87-1.96-2.6-2.74l-.35,2.34c1.08-1.11,2.03-.11,2.95.4Z"/>
  <path class="cls-1" d="M74.74,233.53c-.87-.38-1.76-.77-2.6-1.2,1.09.8,2.28,1.49,3.4,2.23l-.8-1.03Z"/>
  <polygon class="cls-1" points="72.6 235.69 76.08 236.51 73.21 234.91 72.6 235.69"/>
  <polygon class="cls-1" points="72.92 237.21 75.49 238.69 75.25 238.24 72.92 237.21"/>
  <path class="cls-1" d="M79.2,241.82c1.08.11,2.62,1.57,2.4,2.86l.3-1.58c-1.06-.33-1.61-2.88-2.69-1.28Z"/>
  <path class="cls-1" d="M265.52,165.4c.78.38,1.58.09,2.38-.22-.61-2.03-1.98.04-2.38.22Z"/>
</svg>