<?xml version="1.0" encoding="UTF-8"?>
<svg id="Layer_2" data-name="Layer 2" xmlns="http://www.w3.org/2000/svg" viewBox="0 0 126.38 116.43">
  <defs>
    <style>
      .cls-1 {
        fill: #202020;
      }
    </style>
  </defs>
  <path class="cls-1" d="M100.01,57.5l-.14.51c.74.32.24-.11.14-.51Z"/>
  <path class="cls-1" d="M100.01,57.5l.1-.36c-.12.1-.13.23-.1.36Z"/>
  <path class="cls-1" d="M101.18,56.26c.48-.83.17-2.08-.86-2.16.67.73-.08,1.72.86,2.16Z"/>
  <polygon class="cls-1" points="99.53 54.77 99.84 55.32 100.34 55.38 99.53 54.77"/>
  <path class="cls-1" d="M99.22,52.41c.16.94,1.43.11,1.38,1.37.31-.09.24-.58.23-1.04-.02-.46-.02-.89.49-.88.12-1.1-.59.05-1.04-.43l.27.76c-.53.83-.98-.33-1.34.22Z"/>
  <path class="cls-1" d="M33.85,74.67c-.08,0-.17.02-.29.07,0,0,0,.02,0,.03h.3s0-.11,0-.11Z"/>
  <path class="cls-1" d="M97.05,39.61c-.04-.25-.19-.38-.37-.47-.05.2.01.38.37.47Z"/>
  <path class="cls-1" d="M94.29,35.69s.02.01.02.02c.08-.09.05-.09-.02-.02Z"/>
  <path class="cls-1" d="M92.39,33.28s.04.01.06.02c.04-.08.04-.11-.06-.02Z"/>
  <path class="cls-1" d="M96.68,39.14c.13-.54,1.12-1.32-.32-1.01l-.1.19c.1-.43-.6-.52-.83-.79-.09.1-.15.2-.2.29.08.16.18.37.3.72-.02.51.69.39,1.17.6Z"/>
  <path class="cls-1" d="M90.08,89.5c-.2.31-.58.14-.9.25-.02,1.18,1.19-.91.86.39.25-.21.38-.46.49-.71l-.89-.39c-.29.65.51-.03.45.46Z"/>
  <path class="cls-1" d="M34.3,78.92v-.16c-.28.3-.44.3-.3.85.75.02,1.1-1.05,2.08-.81-.14-.08-.24-.27-.29-.49-.26.56-.9.63-1.48.61Z"/>
  <path class="cls-1" d="M35.78,78.32s.02-.03.03-.04c.05-.07.08-.14.11-.21-.06-.09-.09-.19-.09-.3-.09.16-.1.36-.05.55Z"/>
  <path class="cls-1" d="M80.12,94.82c-.14.02-.27.04-.38.06.23.09.34.04.38-.06Z"/>
  <path class="cls-1" d="M40.17,28.32c.07-.17.13-.35.16-.5-.16.2-.19.36-.16.5Z"/>
  <path class="cls-1" d="M31.52,71.93c.02-.13.01-.26-.01-.39-.04-.07-.08-.12-.12-.2l.13.6Z"/>
  <path class="cls-1" d="M90.6,89.46s-.04-.04-.05-.07c0,.02-.01.02-.02.04l.07.03Z"/>
  <path class="cls-1" d="M34.63,75.7l-.42-.8-.39-.82.03.58c.53,0,.15,1.1.78,1.03Z"/>
  <path class="cls-1" d="M99.37,76.32c.03.05.06.1.1.15-.02-.07-.06-.12-.1-.15Z"/>
  <path class="cls-1" d="M60.58,66.68s.05,0,.08-.05c-.03.02-.06.04-.08.05Z"/>
  <path class="cls-1" d="M60.82,66.55s.08-.03.12-.07c0,0,0,0,0-.01-.03,0-.07.02-.11.05,0,0,0,.02,0,.03Z"/>
  <path class="cls-1" d="M101.28,66.61c-.55-.36-1.33-.78-1.16-1.38,1.13.05.58,1.04,1.56.33-.06-1.25-1.58-2-1.1-3.08l.45.24c.03-.74.36-2.17.32-2.91.22-.02.19.08.24.23.47-1.37-.55-.59.25-1.7l-.53-.33c-.41.57-.95,1.6-.38,2.34-.29-.37-.66-.11-1.08.17-.19.13-.38.26-.58.35.08-.94.13-1.89.13-2.85,0-.86-.04-1.71-.11-2.55l.14.38.17-.11-.33-.57c-.13-1.52-.35-3.01-.67-4.47.49.13,1.16.15,1.18.75.14-.52.64-.53,1.04-.3,0-.56-.02-1.75-.54-1.41l-.09.22c-.36.03-.56-.22-.77-.32-.17-.71.53-.49.76-.7-.13-1.26-1.38.26-1.64-.81l.22-.22c-.4-.33-.69-.87-1.23-1-.21-.6-.43-1.19-.67-1.77.71-.25.84.16.9.68.07.57.01,1.27.63,1.39.2-.68,1.01.02,1.52.13-.47-.52-.94-1.02-1.41-1.51.2-.22.92-1.1.12-1.16v.15c-.48-.61-1.13-.11-1.15-.79.13-.16.5-.11.64-.12-.08-.61-.62-.27-.94-.55-.08-.61.86-.07.86-.62-.97-.3-.33-1.06-.64-1.59-.44.38-1.04.02-1.6-.19-.4-.16-.75-.25-.96.02-.13-.23-.26-.46-.4-.69.5-.02,1.03-.05,1.34-.46l.53,1c.57-.42.06-.84-.45-1.3-.54-.46-1.08-.96-.64-1.72-.31-.54-.37-.29-.49-1.66l-.89.91c-.11-.65.29-1.21.46-1.38-.29-.23-.46-.51-.62-.8.2-.05.41-.06.59.08.25-.8-.04-.75-.43-.64-.41.01-.62-.3-.87-.6l.58-.04c-.24-.11-.53-.24-.71-.11-.11-.12-.23-.22-.38-.27-.09.22-.47.9-.36,1.52-.26-.69-.65-1.17-.97-1.69-.32-.52-.6-1.05-.69-1.84.28-.23.97-.2.88-.34-.33-.57-1.25-.56-1.57-.11-.13-.06-.22-.12-.29-.18.12-.31.23-.65.04-.89.02-.13,0-.28-.13-.45-.78.61-1.4-.48-1.87-.28.15.25.42.45.71.63-.8.21-1.59.56-1.55-.09,1.09.05-.14-1.42,1.1-.8-.01-1.61-.95.42-1.5-.53l-.26-.79c.49-.54,1.09.33,1.12.02l-.43-.2c.34-.09.84.2,1.4.52.55.34,1.2.68,1.88.73-.49-.58-1-1.14-1.52-1.71-1.41-.49-2.69-1.4-4.06-2.1-1.35-.72-2.77-1.23-4.15-.97.03.01.07.02.1.02-.07.05-.14.16-.28.4l-.02-.21c-.21.1-.42.21-.63.32-.22-.8-1.07-1.32-1.7-2.08.36.59.35.59.22,1.12-.35.65-.52.91-1.14.42.15-.49.6-.32.19-.89.2.33-.16.59-.5.55-.3-.46-.98-.71-.85-1.21.23-.08.34.14.45.25.24-.08-.67-.67.04-.91l-.81-.08c-.34-.54.48-.57.37-.88-.7-.03-1.3.24-1.86.5-.56.26-1.09.53-1.71.61.1-.26.33-1.38.25-1.06-.43-.25-.98-.04-1.54.25-.56.3-1.12.65-1.63.63.19-.32.55-.14.88-.26-1.54-.43-2.99-.61-4.42-.83-.72-.11-1.43-.19-2.16-.34-.73-.11-1.49-.27-2.28-.46-.22.42-.44.85-.65,1.27l-.89-.67c-.82-.05-1.6-.02-2.33.11-.72.15-1.42.31-2.08.58-.66.26-1.31.54-1.95.88-.32.17-.64.33-.97.5-.32.18-.65.36-.99.54-.85.42-.85-.56-1.39-.68-1,.38-1.49.92-1.9,1.53-.42.6-.78,1.23-1.56,1.85.05-.44-.03-1.57-.82-1.17.03.38.21.88-.36.99l.05-.45c-.7-.19-.85.5-1.85.88-1.51,1.07-2.41,2.84-2.61,4.76-1.23.95-.74-1.05-1.12-1.05,1.14-.42.46-.67.38-1.15-.24.66-.66,1.27-1.45.87-.58.63-.91.86-1.08,1.86.09-.5.66-.44.66.11-.34.14-.75.58-1.17.89-.41.31-.81.51-1.18.13-2.53,3.13-5.14,6.87-6.76,10.91.23.88.4-.43.6.09.27,1.23-.65.64-.43,1.61l-.41-.52c-.53,1.16.07,2.76.29,4.02-.58-.36-.79.8-.89-.25-.03.29-.79.43-1.48.59-.7.16-1.33.33-1.09.63.94-.03,1.87-.05,2.8-.05.25.09-.09.84.1.8-.65.37-1.36.88-1.43,1.23-.71.06-.41-.82-.29-1.3-1.12-.32-1.03,1.54-1.94.62,0,1.13.61-.05.91.67-.13.3-.28.6-.4.9.15-.23.33-.45.5-.67.19.84,1.06,1.21.28,2.16.32.4.67.79,1.02,1.17-.91.03-.23.76-.47,1.28l-.55-.37c-.02.73-.16,1.01-.51,1.47-.79-.44.21-.67-.54-.87l-.29.82c.51.01.9.53,1.23-.04.93.77,1.72,1.15,1.71,2.95-.41.43-.62.23-.83-.05-.2-.27-.4-.62-.83-.42-.16.99.49,1.55,1.12,1.97.63.43,1.33.72,1.34,1.26-.1.71.07,1.02.29,1.31.22.29.49.58.64,1.25-.68-.31-.41,1.07-.9,1.47l-.73-.41c.24.33.17.72-.14.81.65.05,1.08,1.72,1.71,2.46l.6-.37c.23.32.53.69.78,1.08.25.39.49.78.55,1.18.63,1,1.12.51,2.15,1-.37.69-1.05.97-1.8,1.14.19-.44-.22-.84-.24-1.4-.54-.57-1.28-1-1.88-1.51-.58-.51-1.1-1.08-1.14-1.88-.89-.09-.78.15-.48.53.3.38.81.86.66,1.31-.1.01-.15-.03-.18-.08.02.07.03.13.02.2-.37-.47-.93-1.26-1.78-1.17.45.89,1.8.15,1.5,1.51.73.66-.22,1.79-.13,2.35.81.31,2.05-.21,2.4,1.17l-1.11-.17c.32.75.74.76,1.12.77.38,0,.75-.01,1.07.65-.13-.51,1.03,0,.62-.86.64.2,1.23,1.03,1.39,1.83.22.1.29-.13.58-.26.07-.53-.23-.73-.49-.94-.26-.21-.49-.43-.23-.95l-1.16-.06c-.04-.87.67-1.28,1.24-1.04-.14-.17-.35-.28-.25-.5,1.3-.77-.08,1.05,1.19.71l-.34-.42c.29-.24.55-.2.76-.04.26.52.54,1.03.83,1.53,0,.35.02.68,0,.97-.01.33-.1.61-.39.82-.28-.24-.55-.48-.81-.74-.23.78,1,.97,1.29,1.5-.06.09-.09.18-.09.27.04-.06.08-.11.14-.15.04.13.03.27-.05.45.29.46,1.08.86,1.21,1.38l.47-.43-.33.16c-.28-.41-.33-1.17.27-1.15.48.31.52.67.41,1.04-.12.37-.39.74-.53,1.02-.93.4-.68-.86-1.26-1.13-.29.42-.15.68.1.98.26.3.6.65.72,1.32-1.12.29-.84-1.09-1.78-.71.47.88,1.19.63,1.65,1.57-.47.23-1.14-.53-1.59-.09.06.24.12.48.19.72-.55-.63-.76-.37-.96-.06-.2.32-.39.69-.91.24.06.78,1.21.16,1.29,1.27.18-.5.37-1.56,1.23-1.2l.38.92c-.11.65-1.5,0-1.42.75.32.18.63.36.96.52.21-.24,0-.7.52-.77.15.65,1.54-.15,2.32-.02.35.38.61.71.49,1.1,1.58.23,2.83,1.29,4.29,1.29-1.01,0-.65.89-.52,1.56-.84-.45-1.45.31-1.79.86.54.3,1.47-.31,1.42-.75.56.9.94-.17,1.26.87.27.6-.78.65-.84,1.07.88.65.92-.84,1.76-.01-.12.08-.23.05-.26.26.42.53,1.25.46,1.61.1-.04.72.39.93.73,1.08.35.13.61.22.26.75,1.52.4.11-.72.59-.97.4-.11.79.06,1.12.31.33.23.6.53.72.7-.34-.13-.81.05-1.04-.29l-.09.93c1.5,1.36,1.88-1.29,3.25.06-1.03.08-.53.5-1.19.9.35-.1,1.6.66,1.03-.28.61.33,1.02.6,1.41.92.68-.11,1.39-.17,1.88-.62.87.36,1.41,1.11,1.77,1.58.53-.04,1.02.02,1.51.1.48.08.95.24,1.44.36.48.12.97.23,1.47.29.5.06,1.03.02,1.57-.1l-.15-.06c1.62.28-.64-1.2,1.03-1.06-.27,1.06.97.75,1.52,1.33.53.15,1.02.14,1.49.09.47-.04.92-.16,1.35-.28.44-.12.86-.23,1.31-.29.44-.07.9-.08,1.4.04.02.22-.07.5-.45.58.38.04.74.04,1.09.02.35-.03.68-.08,1-.14.32-.07.64-.13.97-.2.32-.08.64-.16.98-.22l-.03.14c1.17.19,2.18-.16,3.14-.64.47-.26.93-.55,1.4-.83.46-.3.92-.61,1.42-.88-.12.19,0,.58-.09.77,1.16-.18,2.92-.85,3.18-2.09.84.16,1.01-.02,1.2-.23.2-.21.42-.44,1.44-.44.19.11-.06.24-.14.33.93-.14,1.39-.58,2.2-.96,1.22-1.7.74-3.03,2.65-4.12,1.04,1.03-.79,1.16-.11,2.07.2-.48.29-.95.99-1.1.09.68.17.32.32.9.31-.01.43-.62.47-1.2.04-.58-.01-1.15.03-1.1-.17-.22-.39-.22-.68.1-.11-.51.26-.89.73-1.27.48-.37,1.01-.8,1.25-1.3-.26.23-1.2.81-1.41.04.59-.39.71-.91.7-1.47-.02-.56-.17-1.15-.09-1.68.65-.25.74.11.78.61.04.5,0,1.13.47,1.38.42.09,1.39.21,1.32.9.97-.77.82-2.02,1.28-2.97l.21.19c.38-.64.56-1.45.73-2.2.18-.75.41-1.41.95-1.8l-.61.39c-.03-.29.41-.88.09-1.51.35.24,1.01-.19,1.29.03-.39-.63-.24-1.39-.1-2.16.13-.84.29-1.67-.27-2.27.49-.2.96.31,1.24.55-.47.78-.88.92-.52,1.61.29-.69.88-1.04,1.15-.8-.57-1.08-.29-2.87-1.1-3.52.62-.34,1.03-.76,1.73-.34.09-1.18-.59-1.07-1.18-1-.59.07-1.11.11-.77-1.05,1.05-.89.7,1.35,1.39-.1l.04.31c1.15-.29.83-.6.29-.96ZM82.33,50.68c.21.03.37.07.2.15-.11-.22-.47.12-.2-.15ZM82.57,51.09c-.3.04-.47.19-.86.06.28,0,.6-.08.86-.06ZM78.76,54.3s.15.08.26.13c.08.03-.13.02-.18.01,0-.05-.24-.15-.08-.14ZM77.01,55.42c.13.05.19.1.3.16-.23-.02-.34-.08-.3-.16ZM76.46,57.04s.16.23-.12.12c.2.06-.21-.33.12-.12ZM76.39,57.96c-.13-.03-.27-.17-.27-.21l.3.15s-.08,0-.03.06ZM64.8,66.12l.02.26-.09-.12.08-.14ZM58.01,65.44c.09,0-.12.31,0,.3-.13.14,0-.25,0-.3ZM54.04,65.59l-.26.48.23-.48h.03ZM82.39,53.54l-.37-.05c.16.2.7.3.56.51-.12.18-.19.36-.26.54-.07.17-.14.34-.19.48l-.36-.08c.72.35.14.6.42.91-.22.13-.19.36-.19.55-.02.19-.06.35-.39.33.01.36.03.7,0,1.04-.02.17-.04.33-.1.49-.06.15-.15.3-.26.44l-.43-.34c.3.28-.31-.06-.3.08.45.07.42.39.68.62-.51.09-.29.65-.1,1.1l-.33-.18c.44.59-.27.58-.55.81-.15-.05-.47-.19-.5-.08.39.49.3.55.45,1-.11.18-.46.35-.76.37.09.56-.1.93-.33,1.26-.24.33-.54.61-.64,1.08l-.35-.26c.05.61-.25.96-.61,1.21-.35.26-.73.46-.84.87l-.41-.62c-.3-.04-.25.46.11.84-.31-.06-.23.6-.7.19-.26.02-.02.43-.12.62-.47.02-.59.15-.82.42.01.03.02.06.03.08h-.11s.06-.05.08-.08c-.07-.16-.2-.34-.29-.33-.02.25-.59.11,0,.79-.64-.22-.72.89-1.43.5.14.2.06.29.1.45-.36.18-.95-.1-1.07.41-.11-.08-.08-.42-.23-.37-.05.12.12.29.07.46-.42.71-1.39.05-1.88.35-.21.19-.43.35-.67.48-.24.12-.49.19-.75.26-.51.13-1.02.23-1.5.36l-.02-.18c-.22.72-.87-.57-.98.47-.1-.16-.31-.04-.3-.38-.19.47-.69-.21-1.02.17,0,0,0,0,.01,0-.03.08-.05.12-.09.1.02-.04.05-.08.07-.11-.4-.35-.7.19-1.12-.15.04-.08.11-.14.11-.31-.16-.33-.34.77-.45-.09-.09.01-.05.43,0,.4-.44-.13-.89-.11-1.35-.01-.46.09-.94.27-1.42.32-.6-.6.12-1.44-.46-.88-.02-.17-.07.32-.06.14-.23.21-.17-.99-.37-.57-.02.53-.13.28-.18.59-.34-.39-.33-.87-.71-.52l.07-.27c-.5.7-.83.18-1.34.99-1.04-.13-2.06-.33-3.1-.53-.51-.11-1.01-.27-1.52-.43-.25-.08-.5-.16-.75-.26-.24-.11-.48-.22-.71-.34-.43-.3-.89-.55-1.32-.84l-1.29-.87c-.43-.29-.81-.65-1.2-1.01-.19-.18-.37-.37-.55-.57-.17-.2-.32-.43-.46-.66.18-.87.15-.86-.44-1.05.1-.06.14-.06.2-.16-.46.38-.3-.23-.76.1-.2-.34-.45-.63-.7-.91-.25-.29-.54-.54-.75-.89.12.07.56-.16.44-.26l-.4.08.12-.11c-.13-.04-.43.03-.53.23-.39-.36-.69-.79-.93-1.24-.21-.48-.36-.98-.49-1.48-.15-.49-.21-1.01-.31-1.51-.05-.25-.11-.49-.18-.73l-.23-.71c.11-.52-.28-1.1-.53-1.57.24-.83.5-1.58.58-2.29.14-.71.13-1.39-.19-2.12,0,0,1.55.2,1.93.73.71.32.73.7.69,1.11,0,.4-.06.84.43,1.12.07.07-.75.11-.54.28.57.27.81.66.81,1.16,0,.25-.05.52-.14.8-.09.28-.17.57-.29.85l-.22.02c-.08.22.66.17.63.37-.13.05-.21.02-.37.13.42-.12.3.24.63.18-.13.13-.44.26-.58.43l.49-.1c1.18-.22.24.66.96.75-.11.04-.2.04-.29.12.47.11.72.37,1,.61.27.25.49.54.78.75-.16.07-.43.23-.57.37.44-.26.67-.16.84-.07-.38.38.58-.04.47.29l-.1.06c.53-.22-.11.38.49.06l-.26.34c.62-.42-.16.42.21.28l.12-.1c.21-.02-.03.27.13.27l-.06.07c.32.07.12.45.55.06-.28.38-.33-.04-.74.52.53.12.92.35,1.26.64.35.28.68.57,1.01.85-.07.24-.07.34-.19.53.14-.03.32.14.57-.05-.03,0-.14.27-.11.32,0,.27.53-.41.52-.1-.15.08-.28.22-.39.41.4-.28.52-.1.75-.12-.08.06-.15.09-.25.24.45-.31.23.3.56.13l-.24.24c0,.5.45-.54.52-.2-.1.06-.16.18-.24.29.51-.38.72-.05,1.01-.12-.03.03-.08.11-.08.11.24.05.37.34.72.24.01.18-.41.71-.13.73.3-.59.52-.06.72-.8.14.18.34.55.57.4-.2.19-.24.79-.43.77l-.04.43c-.13.24-.1-.15-.2.19.1.02.46-.12.49.02.33-.31.75-.95,1.03-.94-.18.17-.2.57-.28.73.26-.34.52-.68.77-1.02.09,0-.17.51.01.38.05-.17.14-.26.23-.38,0,.08.39-.04.22.6-.05.26-.18.09-.16.34.16.05.24-.17.39-.12l-.02.09c.08.13.38-.17.38-.56-.06-.04-.09.39-.14.17.18-.35.38-.38.54-.36-.08.09-.12.26-.2.44.34-.44.59-.55.85-.7.04-.09.06-.13.03-.02-.01,0-.02.01-.03.02-.05.12-.14.34-.18.37.2.43.7-.41.82.16.01-.11.08-.37.06-.31.13.07.04.52.16.37-.04.27.13-.07.24-.13.06-.14.03,0-.02.09.23-.2.72-.43.95-.04.02-.18.27-.62.33-.59l-.07.41c.01.08.04.11.07.12.02-.03.03-.03.03.01.04,0,.08.02.1.07,0,0,0,0,.01,0,.11-.11.22-.25.29.02-.03-.07-.17.57-.05.54.21-.06.08-.19.25-.33l.12-.17c.03-.4.18.06.13-.39,0,.33.3-.19.25.48l-.05.53c.09-.04.17-.55.25-.78,0,.05.03.16.02.24.04-.81.21.08.32-.54.09.14.2.16.31.2.1.03.19.09.24.34.14-.25.26-.55.42-.38-.03.08-.07.1-.07.28.11.23.13.02.21-.12-.02.12.22.46.36.74.13-.25.05-.68.05-.95.19.79.35-.53.57.18-.04.12-.17.4-.03.6.21.78.2-.62.45-.27l-.13-.65c.14.39.25-.42.31.25.04-.25.27.18.16-.45.42.48.73-.41,1.16.65.03-.12.17-.04.07-.36-.15-.33-.06.28-.14.05.04-.03.01-.21,0-.29.13.12.22.15.24.69.32.33,0-1.13.34-.95.05.26.1.36.17.29l.04-.48c.21.06.26.56.38,1,.08-.1.22-.11.17-.45l.28.52c-.21-.37,0-.28.02-.41v.12c.06.18.14.02.18-.05-.1-.26-.25-.33-.33-.39,0-.21.08-.19.08-.44.11.43.25.25.34.26.12.06-.03-.41,0-.41.08.22.15-.01.19.32,0,.08-.14-.19-.13.02.11.14.23.53.26.21.02-.24-.31-.82-.05-.61,0,.12.04.29.06.45l.24.16-.13-.38c.06.09.05.13.08.17-.1-.42.2-.21.07-.67.06-.07.27.2.36.22v.04c.18.19.24-.02.21-.3l.03.08c.06,0,.15-.11.12-.35.25.22.66,1.38.59.85.13-.07-.1-.77-.26-.98.34.14.31-.56.8-.1-.04-.16-.11-.24-.09-.36.39-.04.41-.79,1.07-.25,0,.2.2.35.32.55-.11-.35.29.27,0-.28-.2-.31-.29-.46-.45-.54.04-.14.13-.24.25-.29.11-.06.25-.05.39.06-.14-.11-.17-.23-.19-.34.31.49.49.47.47.23l-.19-.3.27.26c-.03-.12-.39-.64-.09-.43.08.11.17.22.25.29-.06-.31-.22-.8.07-.64l.4.35c.01-.08-.1-.38-.27-.44.37.11.5.04.84.34-.19-.56-.2-.92-.11-1.18.09-.26.29-.41.46-.55l.18.2c.26.09-.28-.38-.1-.3.15.21.45.32.61.61.32.07-.17-.49-.18-.65-.24-.25.1.22-.2-.1-.08-.1.36.02,0-.36.18.11.44.4.58.56l-.11-.25c.55.32.59.97,1.24,1.4l.02-.14c.48.3.25.64.58.57-.1-.27-.6-.86-.84-.94.06-.27-.85-.93-.66-1.07.28.16-.08.19.28.45.4.2-.01-.32.16-.31-.22-.04-.56-.47-.6-.58.26.07.33.39.48.29-.21-.22-.3-.49-.54-.52-.49-.49.25-.01-.11-.42.41.26.76.85,1.07.85-.38-.27-.35-.58-.96-.94.15.03.44.25.64.47.29.09-.52-.72.24-.18l-.36-.32c.14.07.27.1.51.22.07-.07-.34-.61.24-.18-.04-.07.1-.23-.36-.45-.32-.07.22.34-.37,0,.51.26.04-.19-.07-.36l.24.15c-.07-.1.04-.15-.2-.34.12.12.28.21.36.22l-.33-.28c-.09-.26.65.38.64.17l.2.29c-.04-.06.32.1.26-.04-.29-.23-.68-.54-.91-.73-.09-.17.39.2.11-.09l.33.35c.1.09.59.27.66.15-.07-.14-.48-.54-.73-.54.03-.06.28-.01.5.18-.03-.19-.37-.2-.51-.42.26.09.65.13,1.02.22l.5.44.05-.08c.4.37.38.14.82.47.11-.02-.02-.19-.11-.31-.86-.25-.96-.76-1.7-1.09-.09-.31,1.81.75.81-.05-.16-.04-.49-.27-.57-.27.03.03.03.06,0,.07-.03-.05-.03-.07,0-.07-.11-.14-.6-.37-.3-.38.24.26.8.22,1.14.6-.23-.13-.23,0-.18.07.31.08.72.37.8.22-.02-.13.03-.26-.36-.41-.42-.19-.03.16-.42-.1-.06-.24.6.02-.12-.39.01.14-.44-.03-.72-.17-.04-.07-.07-.13-.12-.2l.27.15c.28-.11-.49-.28-.34-.44l.59.14c.46.25-.32.19.47.5.08-.12-.3-.33-.05-.37.06.06.06.1.12.16.04-.03,1.1.34.57-.1-.2-.19-.27-.14-.56-.25,0-.25-.29-.42-.28-.57.57.24.15-.22.69.14-.37-.05-.45.26.07.55.71.18-.16.13.51.46.09-.18.75.1,1.21.24.05-.04-.11-.17-.17-.23-.41-.18-.43-.11-.86-.27.19-.16.04-.45-.33-.69.23,0,.65.17.65.26-.01-.28.08-.54.29-.74-.63-.04-.25-.24-.51-.33-.05,0-.09-.02-.13-.03-.02,0-.04,0-.06,0-.19.08-.71.04-1.01-.12.06-.06.3.09.46.1-.24-.13.13-.08.23-.11-.07-.04-.12-.08-.16-.13.19.09.21.12.16.13.1.05.23.09.37.13.06,0,.1.02.13.03.23.05.49.09.72.17-.26-.25.39.11.44-.06-.26-.25-.44-.52-.51-.73.58-.12.11-.61.12-.81.3-.07.92.11,1.05,0,.01-.15-.7,0-.38-.17l.12.04c-.13-.08.42-.32-.25-.49l-.15-.03c.06.01.11.02.15.03l.53.12c.07-.03-.08-.09-.15-.13.23.02.44,0,.57.08.51-.09-.05-.31-.06-.46l-.41.06c-.31-.28.11-.42-.02-.68l.4.03-.23-.16c.31.04.54-.03.44-.11-.04-.02-.08-.04-.12-.06.06.02.1.04.12.06.28.13.56.26.85.4-.24.1-.48-.15-.88-.1-.35.04-.25.28.13.35.05-.09-.04-.1-.18-.18.56,0,.53.14.9.24-.01-.03.05-.07.06-.09-.03-.01-.05-.03-.08-.04.07,0,.08.02.08.04.19.1.23.2.23.35-.18-.11-.3-.01-.43-.02.43.06.56.23.41.41-.59.08.3.43.11.65-.48-.17-.86-.34-1.04-.5-.27.11-.01.16-.28.26.36.12.92.25,1.11.48ZM77.53,55.86s.05,0,.07.01c.06-.02-.07-.17.26-.02-.02.05-.13.04-.26.02-.01,0-.03,0-.07-.01ZM78.22,54.78l.41.45c-.25-.1-.4-.34-.41-.45ZM91.42,36.11c-.19-.23-.39-.45-.59-.68.23-.08.47-.15.73-.16.14.39.04.63-.14.84ZM93.4,34.42h0s.26-.05.26-.05c-.08.02-.17.04-.25.05ZM95.9,42.97c-.14-.28-.28-.57-.43-.84.61.08.54.43.43.84ZM98.28,49.32s.06-.02.09-.03l-.06-.53c.49.69,1.52,1.05,1.19,1.78-.22.38-.6.19-.94-.03-.09-.4-.18-.8-.29-1.2Z"/>
  <path class="cls-1" d="M60.95,66.63c.05-.11.04-.15,0-.15,0,0,0,0-.01.01,0,.03.01.07.01.14Z"/>
  <path class="cls-1" d="M28.59,70.65c-.03-.08-.07-.16-.13-.28.06.11.08.21.13.28Z"/>
  <path class="cls-1" d="M101.57,48.33l-.44-.04c-.03.24-.05.47-.09.71.16-.14.53-.51.52-.67Z"/>
  <path class="cls-1" d="M97.87,36.88l.24,1.05c.48.09.38-1.26-.24-1.05Z"/>
  <path class="cls-1" d="M96.37,34.58c-.84.25-.35-1.03-1.08-.72.34.07.4,1.17,1.08.72Z"/>
  <path class="cls-1" d="M91.14,32.08c.45-.38.7-.05.92.38-.24.01-.5.13-.7.04.85.24.82.34,1.44.6-.12-.72-.58-1.59,0-2.02-.71.03-1.7.23-1.66,1Z"/>
  <path class="cls-1" d="M92.47,30.05c-.35-.3-.78-.58-1.22-.77-.44-.19-.86-.29-1.15-.28l.04.44c.93.07,1.42.93,2.33.6Z"/>
  <path class="cls-1" d="M76.32,22.04c.25-.28-.67-1.09-.17-.53-.26.35.38,1.05.17.53Z"/>
  <path class="cls-1" d="M26.06,54.16c.05-.62-.33-.32-.46-.79-.29.54-.15.89.46.79Z"/>
  <polygon class="cls-1" points="26.13 54.88 25.83 54.94 25.36 55.27 26.13 54.88"/>
  <path class="cls-1" d="M25.15,58.73c-.09-.03-.2-.13-.26-.23.09.22.17.41.26.23Z"/>
  <path class="cls-1" d="M24.85,58.39c-.02-.11.02-.22.18-.26l-.32-.04c.05.06.09.19.13.3Z"/>
  <path class="cls-1" d="M24.54,59.3l.54.61.88-.77c-.46-.76-.44.89-1.42.16Z"/>
  <path class="cls-1" d="M25.89,64.6c.45.95.87.74,1.27.59.41-.16.78-.26,1.2.76.06-1.06-.47-1.22-1.02-1.37-.53-.15-1.1-.28-.92-1.27-.54,1.01-.6-.54-.89-.83-.2.76,1.32,1.56.35,2.11Z"/>
  <path class="cls-1" d="M27.27,61.96c-.55-.06-.48.82-.1,1.04.03-.26.71-.77.1-1.04Z"/>
  <polygon class="cls-1" points="26.37 66.96 26.74 67.04 26.63 66.28 26.37 66.96"/>
  <path class="cls-1" d="M26.98,68.58l-.76-.42c.29.13.49,1.01.76.42Z"/>
  <path class="cls-1" d="M28.05,71.51c.01.09.02.18.04.27-.23,0-.47.79-.86.15.02.61,1.53.57.82-.42Z"/>
  <path class="cls-1" d="M32.44,77.66c-.16-.34-.54-.63-.75-.41l.77.74v-.33Z"/>
  <path class="cls-1" d="M34.86,74.56c.11.5.06.56.5,1.2.54-.63-.28-.7-.5-1.2Z"/>
  <path class="cls-1" d="M32.02,79.32c-.45-.05-.5-.54-.59-.8-.36.37.15.92.59.8Z"/>
  <path class="cls-1" d="M35.32,81.35c-.48-.35-1.12-.41-1.55-.54-.44-.13-.69-.32-.34-.9-.61.03-1.2.03-1.8.02.31.95,1.28.02,1.58.6-.09.48-.44.22-.49.57.06.42.21.78.43,1.05.23.26.52.41.84.43.17-.39.81-1.2,1.33-1.24Z"/>
  <path class="cls-1" d="M35.2,77.95c.84-.73-.61-.64-.85-.89l-.11.76c.35-.36.66-.04.96.13Z"/>
  <path class="cls-1" d="M38.66,85.44c-.28-.12-.57-.25-.85-.39.36.26.74.49,1.11.73l-.26-.34Z"/>
  <polygon class="cls-1" points="37.96 86.14 39.1 86.41 38.16 85.89 37.96 86.14"/>
  <polygon class="cls-1" points="38.07 86.64 38.91 87.12 38.83 86.97 38.07 86.64"/>
  <path class="cls-1" d="M40.11,88.14c.35.04.86.51.78.93l.1-.52c-.35-.11-.53-.94-.88-.42Z"/>
  <path class="cls-1" d="M100.84,63.23c.26.12.52.03.78-.07-.2-.66-.65.01-.78.07Z"/>
</svg>