<?xml version="1.0" encoding="UTF-8"?>
<svg xmlns="http://www.w3.org/2000/svg" viewBox="0 0 95 95">
  <defs>
    <style>
      .cls-1 {
        isolation: isolate;
      }

      .cls-2 {
        fill: #ff4f20;
      }

      .cls-3 {
        fill: #f7a397;
        font-family: Icebox-Magnet-Trial-90ms-RKSJ-H, 'Icebox Trial';
        font-size: 7.74px;
        mix-blend-mode: multiply;
        opacity: .49;
      }
    </style>
  </defs>
  <g class="cls-1">
    <g id="Layer_3" data-name="Layer 3">
      <text class="cls-3" transform="translate(-134.26 -112.56) rotate(20.77)"><tspan x="0" y="0" xml:space="preserve">YUM YUM YUM YUM YUM YUM YUM YUM YUM YUM  </tspan><tspan x="0" y="8" xml:space="preserve">YUM YUM YUM YUM YUM YUM YUM YUM YUM YUM  </tspan><tspan x="0" y="16" xml:space="preserve">YUM YUM YUM YUM YUM YUM YUM YUM YUM YUM  </tspan><tspan x="0" y="24" xml:space="preserve">YUM YUM YUM YUM YUM YUM YUM YUM YUM YUM  </tspan><tspan x="0" y="32" xml:space="preserve">YUM YUM YUM YUM YUM YUM YUM YUM YUM YUM  </tspan><tspan x="0" y="40" xml:space="preserve">YUM YUM YUM YUM YUM YUM YUM YUM YUM YUM  </tspan><tspan x="0" y="48" xml:space="preserve">YUM YUM YUM YUM YUM YUM YUM YUM YUM YUM  </tspan><tspan x="0" y="56">YUM YUM YUM YUM YUM YUM YUM YUM YUM YUM</tspan><tspan x="0" y="64" xml:space="preserve">YUM YUM YUM YUM YUM YUM YUM YUM YUM YUM  </tspan><tspan x="0" y="72" xml:space="preserve">YUM YUM YUM YUM YUM YUM YUM YUM YUM YUM  </tspan><tspan x="0" y="80" xml:space="preserve">YUM YUM YUM YUM YUM YUM YUM YUM YUM YUM  </tspan><tspan x="0" y="88" xml:space="preserve">YUM YUM YUM YUM YUM YUM YUM YUM YUM YUM  </tspan><tspan x="0" y="96" xml:space="preserve">YUM YUM YUM YUM YUM YUM YUM YUM YUM YUM  </tspan><tspan x="0" y="104" xml:space="preserve">YUM YUM YUM YUM YUM YUM YUM YUM YUM YUM  </tspan><tspan x="0" y="112" xml:space="preserve">YUM YUM YUM YUM YUM YUM YUM YUM YUM YUM  </tspan><tspan x="0" y="120">YUM YUM YUM YUM YUM YUM YUM YUM YUM YUM</tspan><tspan x="0" y="128" xml:space="preserve">YUM YUM YUM YUM YUM YUM YUM YUM YUM YUM  </tspan><tspan x="0" y="136" xml:space="preserve">YUM YUM YUM YUM YUM YUM YUM YUM YUM YUM  </tspan><tspan x="0" y="144" xml:space="preserve">YUM YUM YUM YUM YUM YUM YUM YUM YUM YUM  </tspan><tspan x="0" y="152" xml:space="preserve">YUM YUM YUM YUM YUM YUM YUM YUM YUM YUM  </tspan><tspan x="0" y="160" xml:space="preserve">YUM YUM YUM YUM YUM YUM YUM YUM YUM YUM  </tspan><tspan x="0" y="168" xml:space="preserve">YUM YUM YUM YUM YUM YUM YUM YUM YUM YUM  </tspan><tspan x="0" y="176" xml:space="preserve">YUM YUM YUM YUM YUM YUM YUM YUM YUM YUM  </tspan><tspan x="0" y="184" xml:space="preserve">YUM YUM YUM YUM YUM YUM YUM YUM YUM YUM   </tspan><tspan x="0" y="192" xml:space="preserve">   </tspan><tspan x="0" y="200" xml:space="preserve">   </tspan></text>
      <g>
        <g>
          <path class="cls-2" d="M50.26,23.68c.42-.07-.23-.26.28-.11-.06.12-.14.21-.28.11Z"/>
          <path class="cls-2" d="M51.92,23.58c.7-.38,1.49-.21,2.28-.06.79.16,1.54.49,2.34.43.17.03-.17.38.23.42,1.57-.14,3.58,1.23,4.74,2.56l-.15.04c.22.25.76.18,1.01.43-.04.06-.16.02-.16.16.21-.14.57.29.8.24.05.15-.07.29-.01.49l.32-.07c.82-.08,1.01.91,1.73,1.26-.07.02-.16,0-.16.08,1.13.63,2.08,1.9,2.9,3.03-.11,0-.28.05-.33.18.28-.09.56.24.81.54-.15.27.53.45.59.92h-.07c.42.16.05.51.5.59l-.12.28c.45-.03-.02.52.27.69l.08-.04c.18.2.03.4.18.6l-.04.04c.29.49.19.86.48.75-.18.26-.28-.47-.54-.07.81,1.62,1.17,3.51,1.19,5.33-.12.21-.15.34-.27.39.02.04.03.11.05.18,0,.04.01.08.02.12v.06c-.01.06-.03.02-.05.04-.17.03-.33.07-.42.15.06,0-.12-.16-.21-.18-.33-.12-.36.35-.72.21.14-.09.19-.19.14-.31-.31.25-.72.21-1.08.29.06-.05.14-.09.13-.19-.4.28-.73-.06-1.07.12l.13-.19c-.56-.22-.17.39-.65.25.12-.06.08-.13.1-.21-.45.34-1.18.23-1.64.34.03-.03.02-.08.02-.08-.49.04-1.01-.06-1.55.08-.2-.08.06-.45-.46-.38.02.37-.88.15-.58.57-.44-.06-1.15-.2-1.44-.07.2-.14-.22-.45.15-.49l-.28-.22c.04-.15.29.05.2-.14-.19.01-.73.16-.89.1-.34.23-.66.65-1.21.7.26-.14-.15-.41.03-.47l-.78.71c-.18.02-.04-.29-.31-.2.01.1-.1.16-.18.24-.07-.04-.77.09-.85-.27-.08-.14.3-.08.1-.21-.34,0-.36.13-.7.13v-.05c-.23-.05-.67.16-.43.36.16.01-.06-.22.17-.11-.16.21-.56.27-.9.28.12-.06.1-.16.15-.26-.46.29-.95.38-1.46.5,0,.17.19-.32.27-.22-.66-.24-1.36.34-1.9-.01.09-.03.05.25.04.2-.32-.02-.3-.27-.51-.18-.02-.15-.26.05-.47.09-.11.11-.06-.07.13-.09-.3.13-1.48.35-2.16.14.01.1-.42.36-.58.35l.06-.23c-.14-.14-.53.02-.55-.18-.34.28,1.29-.24.84-.02-.12-.19-.63.36-.53.05-.32,0-.62.27-.92.05.09.04.26-.32,0-.3-.45.04-.13.11-.49.19l-.23.09c-.02.22-.4-.03-.23.22-.06-.18-.65.11-.61-.26l.06-.29c-.19.02-.32.31-.47.44-.03-.03-.08-.09-.07-.13-.03.44-.46-.04-.69.31-.41-.15-1.03-.01-1.23-.29-.31.13-.6.3-.95.2.07-.04.17-.05.19-.15-.22-.13-.28-.01-.48.06.05-.07-.45-.26-.7-.42-.31.13-.2.37-.24.52-.28-.44-.88.28-1.23-.12.11-.06.45-.22.19-.33-.28-.44-.57.32-1.03.11l.11.36c-.2-.23-.67.21-.63-.16-.15.13-.54-.12-.49.24-.75-.3-1.83.18-2.29-.46-.11.06-.38,0-.32.18.18.2.25-.14.32,0-.1.01-.12.11-.13.16-.23-.08-.42-.11-.2-.4-.52-.22-.54.6-1.2.47.03-.15-.02-.2-.21-.18l-.37.25c-.43-.06-.24-.33-.25-.58-.23.04-.51.03-.61.22l-.28-.31c.2.23-.19.15-.3.21l.11-.06c-.04-.1-.31-.04-.44,0,.03.15.3.22.45.26-.12.11-.3.08-.45.21.05-.24-.37-.17-.55-.2-.21-.05-.24.22-.3.21,0-.13-.34-.02-.18-.2.07-.04.16.12.28.01-.14-.09-.12-.32-.41-.15-.22.12.06.48-.35.33.11-.06.13-.16.21-.25l-.38-.13-.02.22c-.05-.06-.02-.08-.04-.11-.11.23-.58.07-.67.34-.19.02-.41-.15-.59-.18l.04-.02c-.22-.13-.52-.04-.71.11v-.05c-.11-.02-.4.02-.56.15-.31-.17-.1-.84-.45-.56-.32,0-.49.41-.37.55-.57-.15-1.21.21-1.73-.13-.08.09-.03.15-.2.2-.21-.02-.42-.02-.64,0l-.32.02h-.08s-.02,0-.02,0h0s0,0,0,0h0c1.25,1.25-1.7-1.7-1.4-1.4h0s0,0,0,0v-.04s0-.17,0-.17c0-.45.04-.87.28-1.21.08.26.22.03.35.03-.19-.22.22-.23-.12-.33-.2,0-.3-.03-.39.22-.11-.54.02-1.34.26-1.6-.11.13-.16.01-.2-.11.31.08.42-.29.35-.6l-.19-.08.23-.15c-.04-.12-.4-.21-.14-.45.08,0,.16,0,.22-.04-.08-.33-.24-.82,0-1.1l.34-.19c0-.14-.1-.42-.24-.21.29-.51.48-.83.76-.92-.11-.55-.09-1.19.12-1.78.2-.59.48-1.18.76-1.68l.11.1c.28-.2-.14-.26.06-.4.07.15.38-.05.41.24.36-.29.07-.6.16-.88-.14-.14-.01.26-.19.09-.03-.08.44-.44.23-.66.15-.03.29.16.36.27l.02-.31c.45-.08.13.96.65.9l.08-.23c.37-.02-.03.71.36.27,0-.3-.21-.71-.45-.59.25-.48-.42-.6-.04-1.06.24-.03-.25.41.01.45.36-.09.23-.52.44-.68-.25.15-.35-.21-.28-.39.29-.16.1.33.38,0-.09-.16.05-.56-.24-.36-.21-.37.36-.29.3-.65.3.07.17.73.59.47-.25-.11.13-.66-.33-.73.18-.09.35.03.37.24.29-.09.09-.8.52-.51l-.13-.25c.12,0,.25-.05.44-.05.17-.16.31-.77.57-.47.03-.08.43-.43.1-.49-.36.1-.15.41-.54.26.38.06.33-.36.41-.57l.13.09c.05-.12.27-.28.21-.45,0,.13.09.18.19.14l-.06-.26c.28-.41.35.24.66-.09l-.16.35c.04-.08.3,0,.42-.18-.07-.22-.1-.52-.14-.69.15-.23.24.12.31-.21l-.11.41c0,.09.39.15.66-.06.13-.19.23-.65-.12-.53.14-.11.41-.14.39.07.27-.29-.18-.16.03-.47.2.04.68-.01,1.01.03l-.1.48.2-.12c-.1.4.24.11.26.45.15-.04.26-.22.34-.37-.64-.18.1-.83-.23-1.15.5-.44.85.74,1.12-.16-.15-.05-.02-.49-.32-.2.38-.13.05-.52.56-.56-.24.32.53.24.19.7-.03-.15-.3.02-.35.09.22.08.17.41.52.24.2-.14.49-.29.35-.48-.11-.23-.33.19-.29-.11.41-.29.63.02.64-.47-.27.15-.44-.04-.51-.21.1-.08.19-.17.29-.25v.18c.6-.1.05-.34.61-.5l.37.22c-.03.31-.82.17-.56.56.35-.11.38-.37.75-.38-.06.06-.15.11-.21.18.13-.03.46.5.82-.01.21-.22.01-.18-.04-.35.53-.26.66-.44,1.03-.57.01.35.66-.14.34.3-.23-.14-1.07.07-1.15.47.32.31-.45.1-.43.53.43-.15.54.24.69.46.12-.02.2-.17.26-.23-.02-.25-.18-.19-.26-.43.51-.09.94-.32,1.16-.63.2.07.2.33.01.4.28-.11.59-.2.89-.27.3-.05.61-.06.9-.07-.43-.34.62-.19.32-.48-.32-.04-.64-.28-.49-.48.2,0,.02.17.12.25.22-.25.44.29.63-.09-.54.21-.04.5-.1.82.37-.23.01.22.4.16.36-.25.84-.39,1.28-.48.57.27,1.4-.07,1.87-.07.25.16.08.51.35.57.32,0-.24-.38.23-.22l-.05.07c.14-.08.86.24,1-.27l-.14.38c.09.03.17-.05.24-.09,0,.12.11.24-.04.32.29.26.61-.04.92-.05l-.2-.23c.54-.18.9.05,1.42-.03l-.02.22.31-.13c-.08.21.21.35.37.17l-.81.54c-.22-.13.24-.27.1-.49-.12-.19-.6-.13-.68.08.18.02.19-.02.34-.1.06.31-.22.3-.36.5.1-.01.23.08.25-.02-.19.15-.38.17-.7.18.21-.12-.12-.19-.04-.28-.03.27-.33.36-.72.28-.28-.31-.73.2-1.19.12.18-.28.42-.5.69-.61-.28-.14-.32,0-.6-.13-.14.21-.24.52-.61.64l-.02-.2c-.34.1-.34.4-.76.35-.71-.06-1.44-.03-1.98-.02l-.04-.2c-.25.48-.98.31-1.35.56-.73-.12-1.4.53-1.83.26-.58.2-1.07.51-1.6.74-.53.22-1.03.49-1.61.73l.06-.36c-.11.29-.21-.09-.39.05.34.1-.14.41-.19.63-.6.06-1.08.67-1.38,1.09l-.13-.16c-.21.58-.84.68-1.39.99-.11-.02-.32-.11-.45.03-.04.48-.18.58-.41,1.06-.26.24-.75.56-1.07.76-.28.66-.72,1.16-1.09,1.73l-.59.83c-.18.29-.31.61-.44.94l-.26-.04c-.28,1.37-1.31,2.68-1.43,3.85l-.35-.23c-.26.3-.14.82.16.81-.21.31-.03.9-.41,1.04-.17.34.07.47.08.78-.25.69-.28.97-.28,1.65.01-.06.02-.11.04-.17-.07-.08-.26-.11-.29.06.1.27-.16.94.34.72-.08.18-.11.37-.12.58,0,.1,0,.21,0,.31v.16s.01.08.01.08h0s0,.01,0,.01h0s0,0,0,0c-.71-.71,1.6,1.6-1.6-1.6h0s.02,0,.02,0h.04c.46-.05.91-.08,1.3.11-.07-.13.13-.16.21-.25.69,0,1.42.26,1.97.04.11.07-.18.23.11.24.17-.05,0-.17.21-.25,1.12-.25,2.27.26,3.29.19,1.81-.26,3.7-.13,5.44-.17l-.02.1c.58-.37,1.36.38,1.83-.18.14.09.53.04.42.23.46-.26,1.3.25,1.97-.09-.06,0-.1.01-.17.05.68.22,1.27-.08,1.99.12-.07.04-.2.07-.23.17.28.19.65-.41.8.06.16,0,.11-.24.02-.22,1.56.18,3.23-.12,4.86-.22,1.17.28.07.79.99.44.08.09.05-.18.07-.08.36-.13.55.53.8.28-.1-.29.16-.16.17-.34.71.19.86.45,1.42.23l-.04.15c.66-.43,1.42-.2,1.98-.7,3.64-.09,7.12-.37,10.66-.42,1.75.05,3.49.02,5.23,0h.65s.16,0,.16,0h.08s.01,0,.01,0h0c1.89-1.89-2.57,2.57-2.11,2.11h0s0-.02,0-.02v-.04s-.02-.29-.02-.29l-.04-1.17c.01-.4-.08-.78-.11-1.18-.05-.39-.05-.8-.13-1.19.2-.82.18-.89-.2-1.65.07.01.11.06.14-.01-.33.06-.23-.55-.56-.52-.17-.57-.37-1.11-.65-1.61-.26-.51-.52-1.03-.86-1.54.13.15.41.1.27-.09l-.31-.1.06-.08c-.12-.11-.35-.17-.35.02-.42-.63-.94-1.18-1.36-1.81-.49-.56-.92-1.19-1.45-1.73l-.78-.83c-.27-.27-.57-.5-.85-.75-.56-.52-1.22-.9-1.87-1.28-.27-.26-.68-.42-1.08-.6-.41-.18-.83-.33-1.22-.41-1.97-1.23-4.14-2.02-6.57-1.73,0,0,.31-.83,1.38-.97Z"/>
          <path class="cls-2" d="M49.75,23.71c-.09-.16-.39-.25-.15-.47.03.15.18.33.15.47Z"/>
          <path class="cls-2" d="M41.72,22.2s-.13-.05-.16-.07c.1-.03.18-.18.27-.11-.1.03-.08.1-.12.18Z"/>
          <path class="cls-2" d="M39.6,22.48c0-.15.42-.39.69-.44-.24.12-.47.28-.69.44Z"/>
          <path class="cls-2" d="M37.48,22.44c-.21-.06-.18-.14.05-.22.04.07-.02.13-.05.22Z"/>
          <path class="cls-2" d="M37.45,22.81c-.16.06-.26,0-.37-.04.05.12.34-.21.37.04Z"/>
          <path class="cls-2" d="M33.25,24.27c-.09.07-.22.29-.39.2.15.04.35-.43.39-.2Z"/>
          <path class="cls-2" d="M31.64,25.58c-.06.03-.1.03-.13.11-.14.02-.1-.14-.02-.22l.16.11Z"/>
          <polygon class="cls-2" points="40 44.26 39.79 44.33 39.82 44.19 40 44.26"/>
          <path class="cls-2" d="M55.16,44.25c.21-.09.14.14.18.16-.19.01.07-.18-.18-.16Z"/>
          <polygon class="cls-2" points="63.33 43.53 63.27 43.53 63.29 43.23 63.33 43.53"/>
        </g>
        <g>
          <path class="cls-2" d="M70.31,61.46c.39-.07-.21-.26.25-.11-.05.12-.13.21-.25.11Z"/>
          <path class="cls-2" d="M70.11,62.15c.14.32.19.67.17,1.01-.05.34-.14.7-.26,1.04-.15.34-.29.68-.42,1.01-.15.33-.26.67-.31,1.03-.05.15-.34-.24-.44.11-.12,1.45-1.91,2.93-3.47,3.34v-.15c-.28.08-.38.6-.68.71-.04-.07.03-.15-.08-.21.05.25-.45.34-.5.56-.15-.03-.22-.21-.4-.23-.02.11-.03.22-.06.32-.11.38-.42.48-.75.55-.34.05-.7.04-1,.29.02-.07.07-.13,0-.18-1.01.64-2.49.59-3.73.72.05-.09.1-.27.02-.38-.06.28-.45.36-.79.41-.15-.29-.58.27-.98.11l.03-.06c-.29.3-.44-.18-.67.19l-.19-.23c-.13.41-.42-.21-.67,0v.08c-.22.1-.34-.11-.55-.04l-.02-.05c-.5.11-.78-.12-.77.2-.17-.26.48-.12.21-.49-1.63.33-3.32.27-4.96.27-.19-.13-.31-.17-.35-.29-.16.06-.62.06-.77.22.05,0-.11-.16-.19-.18-.3-.12-.33.35-.65.21.13-.09.17-.19.13-.31-.28.25-.65.21-.99.29.05-.05.13-.09.12-.19-.36.28-.66-.06-.98.12l.12-.19c-.51-.22-.15.39-.59.25.11-.06.07-.13.09-.21-.41.34-1.08.23-1.49.34.02-.03.02-.08.02-.08-.45.04-.92-.06-1.41.08-.18-.08.06-.45-.42-.38.02.37-.8.15-.52.57-.4-.06-1.05-.2-1.32-.07.18-.14-.2-.45.14-.49l-.25-.22c.04-.15.26.05.18-.14-.17.01-.66.16-.81.1-.31.23-.6.65-1.1.7.24-.14-.14-.41.03-.47l-.71.71c-.17.02-.04-.29-.28-.2.01.1-.09.16-.17.24-.06-.04-.7.09-.77-.27-.07-.14.27-.08.09-.21-.31,0-.32.13-.64.13v-.05c-.21-.05-.63.13-.4.34.15.02-.05-.22.17-.11-.15.21-.54.25-.88.23.12-.05.11-.15.16-.25-.46.29-.95.26-1.48.31-.04.17.25-.28.3-.18-.3-.15-.63-.16-.96-.17-.33,0-.65-.03-.84-.3.09,0-.03.25-.02.2-.29-.13-.19-.36-.41-.34.04-.15-.26-.04-.47-.08-.14.05-.02-.09.15-.03-.31,0-1.49-.31-1.94-.88-.05.1-.55.07-.67-.04l.18-.15c-.03-.2-.43-.3-.33-.47-.43.03,1.16.57.67.48.02-.22-.71-.08-.45-.27-.25-.18-.67-.16-.74-.53.04.09.39-.07.2-.23-.35-.26-.16,0-.48-.18l-.23-.08c-.17.15-.25-.31-.32-.01.1-.17-.53-.41-.22-.62l.26-.15c-.14-.12-.44-.03-.64-.06,0-.04.02-.11.06-.14-.37.25-.25-.39-.66-.37-.14-.4-.56-.89-.43-1.19-.29-.19-.55-.38-.62-.75.07.05.12.13.22.1.02-.26-.11-.25-.26-.41.07.02.05-.51.13-.79-.23-.23-.42-.06-.57-.04.3-.4-.55-.76-.25-1.22.09.09.32.38.36.11.37-.37-.48-.46-.32-.96l-.34.17c.19-.24-.31-.64.06-.65-.16-.14.05-.54-.29-.46.06-.2.08-.41.08-.62l-.02-.33v-.08s0-.04,0-.04c2.34-2.34.65-.65,1.17-1.17h0s0,0,0,0h0s0,0,0,0h.02s.15,0,.15,0c.38,0,.73.04.94.35.1-.06.34,0,.29-.18-.16-.2-.23.14-.29,0,.09-.01.11-.11.12-.16.21.08.38.11.18.4.47.22.49-.6,1.09-.47-.03.15.02.2.19.18l.33-.25c.39.06.22.33.23.58.21-.04.46-.03.56-.22l.25.31c-.18-.23.17-.15.27-.21l-.1.06c.04.11.28.04.4,0-.03-.15-.27-.22-.41-.26.11-.11.27-.08.41-.21-.05.24.34.17.5.2.19.05.21-.22.27-.21,0,.13.31.02.16.2-.06.04-.15-.12-.26-.01.13.09.11.32.37.15.2-.12-.05-.48.32-.33-.1.06-.12.16-.19.25l.35.13v-.22c.06.06.03.08.05.11.1-.23.53-.07.61-.34.18-.02.37.15.54.18l-.03.02c.2.13.48.04.65-.11v.05c.1.02.37-.02.51-.15.28.17.1.84.41.56.29,0,.45-.41.33-.55.52.15,1.1-.21,1.58.13.07-.09.03-.15.18-.2.76.09,1.6-.26,2.2.17-.22.09-.01.22-.01.35.18-.2.22.21.28-.14-.02-.2,0-.3-.21-.38.45-.11,1.14-.11,1.39.08-.13-.09-.03-.15.07-.22-.03.32.3.37.55.26l.04-.2.16.2c.1-.06.11-.41.36-.22.01.08.03.15.07.21.26-.16.63-.43.91-.27l.23.29c.12-.03.32-.2.11-.29.48.17.79.19.95.44.83-.6,2.04-.63,3-.58l-.03.15c.26.14.13-.26.32-.15-.08.14.2.3,0,.47.37.15.48-.25.72-.32.04-.19-.19.12-.15-.12.04-.07.51.15.57-.14.09.11.02.33-.03.45l.23-.14c.28.34-.63.61-.34,1.03l.21-.05c.2.3-.55.34-.03.45.23-.14.42-.57.22-.69.47-.08.22-.69.73-.67.14.17-.41.04-.31.28.24.23.48-.13.69-.05-.24-.11-.04-.4.12-.46.26.14-.17.28.2.3.06-.17.4-.29.11-.41.13-.38.38.11.58-.19.12.27-.38.62.03.75-.06-.26.5-.35.28-.73.16.07.17.28.06.44.23.16.55-.47.62.04l.08-.26c.07.09.17.15.29.29.2,0,.64-.36.62.04.06-.04.52-.02.34-.3-.28-.17-.32.2-.48-.17.2.3.41-.04.57-.14l.03.15c.1-.06.32-.03.38-.19-.07.09-.04.19.04.23l.1-.23c.39-.12.09.41.48.34l-.29.18c.06-.04.19.18.38.11.07-.21.21-.47.27-.64.22-.09.1.24.31.02l-.28.26c-.04.07.19.35.48.35.18-.07.47-.38.18-.5.15,0,.35.13.23.28.33-.07-.04-.23.24-.36.12.14.48.35.7.55l-.3.36h.2c-.26.29.13.22-.01.52.13.05.3-.06.43-.13-.39-.48.44-.66.33-1.1.54-.12.34,1.07.9.38-.09-.12.17-.45-.17-.32.33.05.23-.44.62-.26-.29.18.31.45-.11.71.03-.15-.24-.11-.3-.07.14.17-.03.44.31.44.21-.04.5-.05.45-.28,0-.25-.32.03-.19-.23.42-.09.49.3.66-.15-.26.03-.33-.23-.32-.4l.31-.11-.06.17c.49.12.14-.3.62-.26l.22.33c-.11.29-.69-.13-.61.34.31.02.41-.22.7-.1-.07.04-.15.05-.22.09.11.02.22.63.66.27.23-.14.06-.17.07-.34.5-.05.64-.23.96-.26-.07.34.57.03.21.38-.16-.2-.88-.18-1.06.14.18.4-.39-.06-.5.35.4,0,.38.41.44.67.11.02.22-.09.28-.13.05-.24-.1-.24-.11-.49.44.07.87-.07,1.12-.31.15.12.1.37-.07.39.53-.07,1.09-.04,1.6.03-.32-.4.56-.09.34-.43-.27-.09-.5-.37-.35-.55.17.03,0,.17.06.26.21-.22.33.35.54,0-.48.13-.09.49-.18.8.35-.18-.01.22.33.22.35-.17.77-.31,1.16-.38.48.3,1.23,0,1.66,0,.23.16.07.51.32.57.29,0-.21-.38.21-.22l-.04.07c.13-.08.78.24.91-.27l-.13.38c.08.03.15-.05.22-.09,0,.12.1.24-.03.32.26.26.55-.04.84-.05l-.18-.23c.49-.18.82.05,1.29-.03v.22s.27-.13.27-.13c-.07.21.19.35.34.17l-.73.54c-.2-.13.22-.27.09-.49-.11-.19-.55-.13-.62.08.17.02.18-.02.31-.1.06.31-.2.3-.33.5.09-.01.21.08.23-.02-.17.15-.35.17-.64.18.2-.12-.11-.19-.03-.28-.02.27-.3.36-.65.28-.25-.31-.67.2-1.08.12.17-.28.38-.5.63-.61-.26-.14-.29,0-.55-.13-.13.21-.21.52-.55.64l-.02-.2c-.31.1-.31.4-.7.35-.67-.1-1.35-.1-1.86-.13l-.02-.2c-.28.43-.94.16-1.33.35-.65-.2-1.41.19-1.74-.16-1.15.16-2.15.31-3.33.23l.2-.3c-.21.22-.14-.17-.35-.13.24.24-.29.31-.44.49-.53-.23-1.21.02-1.68.23l-.02-.2c-.47.38-1.04.05-1.63-.02-.07-.08-.17-.27-.35-.25-.32.33-.49.3-.96.51-.34,0-.9-.08-1.25-.21-1.29.46-2.61.17-3.95.44l-.1-.24c-1.3.51-2.9.05-4.01.31l.11-.41c-.35-.13-.79.11-.7.4-.35-.12-.87.2-1.09-.14-.36-.08-.44.19-.73.24-.71-.15-.98-.12-1.65-.04l.17.03c.07-.09.08-.26-.09-.29-.25.11-.92-.11-.67.38-.72-.28-1.67.23-2.37-.15.06.13-.12.16-.19.25-.63,0-1.29-.26-1.79-.04-.1-.07.16-.23-.1-.24-.15.05,0,.17-.19.25-1.02.25-2.07-.26-2.99-.19-1.65.26-3.37.13-4.95.17l.02-.1c-.13.09-.28.12-.42.11h-.11s0-.01,0-.01h0s0,0,0,0c3.37-3.37.93-.93,1.69-1.69h0s0,0,0,0h0s0,.04,0,.04v.05s-.05.19-.05.19c-.06.25-.09.51.19.66-.08.11.02.4-.18.35.16.16.12.42.13.69.02.27.05.58.27.78,0-.05-.03-.07-.08-.11-.04.57.38.91.46,1.49-.06-.03-.14-.11-.23-.09-.07.29.59.28.23.61.07.11.25-.04.2-.1.44,1.19,1.57,2.05,2.61,2.72.56.77-.43.68.37.82,0,.11.14-.13.09-.04.31.03.11.68.41.58.07-.3.19-.07.28-.22.42.4.42.73.94.68l-.09.13c.34-.11.62-.05.89-.02.28.01.56.01.82-.17.34.07.69.08,1.03.13h1.04c.81-.05,1.62-.09,2.43-.13,1.61-.09,3.21-.17,4.82-.2,3.19.09,6.31-.13,9.55.13.76.4.82.39,1.65.23-.03.06-.09.08-.03.14.04-.33.59-.03.67-.34,1.2.06,2.3-.03,3.53-.03-.19.04-.29.3-.06.28l.24-.21.04.09c.16-.05.33-.21.17-.32.39-.04.77-.06,1.16-.07.35-.02.63-.04.95-.04l.92-.08.91-.15c1.21-.26,2.42-.78,3.34-1.65.55-.28,1.05-1.02,1.36-1.59.72-.66,1.35-1.42,1.74-2.31.17-.45.35-.91.4-1.41.03-.25.08-.49.06-.75l-.02-.38v-.19s-.02-.1-.02-.1v-.05s0-.02,0-.02h0s0-.02,0-.02h0s0,0,0,0c.63,0-1.42,0,1.42,0h-1.42s0,0,0,0h0s.02,0,.03.01c.02.01.06.02.1.04.08.04.19.1.3.19.22.18.49.5.53.98Z"/>
          <path class="cls-2" d="M69.85,61.49c-.08-.16-.35-.25-.14-.47.03.15.17.33.14.47Z"/>
          <path class="cls-2" d="M62.65,59.81s-.1-.07-.13-.09c.09-.01.17-.15.24-.06-.09.01-.08.09-.12.16Z"/>
          <path class="cls-2" d="M60.81,59.71c.03-.15.42-.26.65-.28l-.65.28Z"/>
          <path class="cls-2" d="M59.1,59.11c-.15-.12-.11-.19.09-.19.01.08-.05.12-.09.19Z"/>
          <path class="cls-2" d="M58.98,59.44c-.14,0-.21-.08-.28-.17,0,.12.33-.08.28.17Z"/>
          <path class="cls-2" d="M55.26,59.01c-.09.01-.28.13-.37-.03.09.11.44-.19.37.03Z"/>
          <path class="cls-2" d="M53.53,59.24c-.06,0-.08-.04-.14,0-.1-.07,0-.17.09-.19l.05.18Z"/>
          <path class="cls-2" d="M23.48,63.41c-.04-.06-.07-.12-.11-.19h.15c-.02.06-.03.13-.04.19Z"/>
          <path class="cls-2" d="M34.05,72.89c.21-.08.13.14.16.17-.19,0,.08-.18-.16-.17Z"/>
          <polygon class="cls-2" points="41.6 72.22 41.54 72.23 41.56 71.93 41.6 72.22"/>
        </g>
        <g>
          <path class="cls-2" d="M26.72,43.31c-.07-.23-.26.12-.11-.15.12.03.21.07.11.15Z"/>
          <path class="cls-2" d="M67.92,43.92c.76.73,0,1.7.48,2.5.03.09-.42-.02-.32.19.3.39.36.89.28,1.41-.07.52-.27,1.09-.5,1.35l-.12-.09c-.09.08.31.46.25.61-.08-.05-.11-.12-.22-.16.24.2.11.35.29.57-.09-.01-.28-.18-.38-.21l.27.34.06.08c.14.27-.09.25-.31.2-.23-.05-.45-.13-.56.03-.01-.06,0-.11-.06-.17-.2.19-.58.27-.98.32-.38.05-.78.07-1.15.14.03-.09.06-.27.01-.38-.04.28-.27.36-.47.41-.09-.29-.34.27-.58.11l.02-.06c-.17.3-.26-.18-.4.19l-.11-.23c-.08.41-.25-.21-.39,0v.08c-.13.1-.2-.11-.33-.04v-.05c-.3.11-.48-.12-.47.2-.1-.26.28-.12.12-.49-.96.33-1.96.27-2.93.27-.11-.13-.18-.17-.21-.29-.1.06-.36.06-.45.22.03,0-.06-.16-.11-.18-.18-.12-.19.35-.39.21.08-.09.1-.19.08-.31-.17.25-.39.21-.58.29.03-.05.08-.09.07-.19-.21.28-.39-.06-.58.12l.07-.19c-.3-.22-.09.39-.35.25.06-.06.04-.13.05-.21-.24.34-.64.23-.88.34.01-.03.01-.08.01-.08-.26.04-.54-.06-.83.08-.11-.08.03-.45-.25-.38.01.37-.47.15-.31.57-.23-.06-.63-.2-.76-.07.09-.14-.13-.45.07-.49-.05-.07-.11-.15-.17-.22.02-.15.18.05.12-.14-.13.01-.43.16-.54.1-.04.06-.08.14-.11.22-.05.29-.07.58-.19.7.03-.2-.26-.32-.22-.42,0,.29.04.55.05.83-.07.07-.18-.23-.25-.07.06.08.04.16.05.25-.05-.01-.29.31-.53.03-.12-.09.09-.15-.07-.2-.15.11-.09.21-.24.32l-.03-.04c-.13.02-.21.33.01.42.08-.04-.15-.16.01-.15.05.22-.1.39-.25.5.02-.08-.04-.16-.08-.26-.04.38-.21.6-.37.85.09.15-.09-.32,0-.27-.43,0-.41.69-.85.56.02-.05.16.19.13.15-.15.08-.29-.14-.33,0-.09-.12-.09.12-.16.22.01.12-.06-.04,0-.11-.06.19-.46.74-.89.76.06.08.01.42-.06.46l-.1-.21c-.14-.07-.22.17-.34.02,0,.33.44-.58.36-.27-.16-.12-.08.49-.21.2-.14.1-.13.41-.38.32.06,0-.06-.34-.17-.25-.18.17,0,.13-.12.3l-.05.15c.12.19-.2.1.02.25-.13-.14-.23.29-.41-.03l-.13-.26c-.07.08.03.35.03.5-.03-.02-.08-.05-.1-.09.23.38-.23.11-.14.46-.27,0-.47.3-.71.13-.06.21-.1.42-.31.45,0-.06.04-.1,0-.18-.17-.04-.13.07-.18.19-.02-.07-.34-.08-.54-.14-.06.2.12.37.19.5-.37-.28-.23.5-.61.27.01-.08.08-.31-.1-.33-.37-.28-.07.44-.4.4l.25.27c-.22-.13-.18.38-.37.05,0,.16-.31.06-.09.34-.37-.11-1.07.94-1.53.48-.05.11-.23.15-.16.33.16.13.13-.26.2-.15-.06.05-.05.17-.05.22-.18.02-.29.07-.21-.34-.33-.05-.27.91-.75,1.06.02-.14.01-.2-.04-.19-.02-.02-.04-.05-.08-.07-.08.04-.17.07-.26.1-.27-.31-.08-.51-.04-.81-.13-.06-.28-.2-.4-.06-.02-.15-.03-.31-.04-.45.02.32-.16.06-.25.07h.09c.02-.13-.15-.19-.24-.22-.06.15.07.35.13.47-.12.04-.21-.08-.38-.05.15-.19-.14-.35-.23-.47-.09-.15-.29.04-.31,0,.08-.1-.12-.14.06-.21.06,0-.03.14.12.12-.03-.15.15-.29-.08-.27-.17.02-.3.38-.36.12.08,0,.16-.07.25-.11l-.07-.23-.15.16c.02-.06.04-.06.05-.09-.2.14-.28-.15-.49.02-.09-.05-.06-.26-.12-.34h.03c0-.18-.18-.22-.36-.17l.04-.03c-.04-.06-.18-.13-.33-.09-.01-.24.51-.67.19-.58-.13-.11-.47.13-.51.28-.13-.31-.63-.27-.61-.71-.09.04-.11.1-.21.08-.28-.36-.88-.42-.86-.99.16.01.15-.16.23-.26-.21.08.04-.24-.21,0-.12.16-.2.23-.16.37-.27-.09-.58-.36-.56-.6,0,.12-.09.13-.17.13.23-.23.11-.39-.08-.41l-.14.13.06-.21c-.08,0-.32.27-.3.03.04-.06.09-.13.1-.18-.22.02-.56.08-.58-.15l.09-.3c-.07-.02-.28.03-.24.17-.1-.32-.22-.45-.13-.7-.77.13-1.32-.32-1.72-.73l.11-.1c-.02-.2-.23.14-.24,0,.13-.07.11-.31.32-.35-.06-.26-.38,0-.53-.04-.14.13.17-.02-.01.15-.06.04-.13-.31-.35-.12.03-.12.21-.26.31-.32l-.19.02c.1-.36.68-.21.83-.64l-.12-.05c.11-.31.47-.04.31-.33-.2.02-.56.26-.55.44-.26-.12-.55.44-.76.22.05-.18.21.13.32-.09.03-.13-.06-.16-.13-.16-.06.02-.12.05-.12,0-.02.13-.24.33-.28.36.04-.15.18-.21.14-.29-.1.13-.19.22-.22.35-.19.34.01-.13-.12.14h0c.02-.07.04-.13.07-.19.08-.22.22-.4.21-.55h0c-.09.25-.22.34-.29.72.01-.07.05-.28.12-.44-.03-.16-.17.47-.12-.04l-.04.26c0-.09-.01-.15-.04-.29-.1,0-.37.36-.36-.04-.04.04-.31.02-.2.3.17.17.19-.2.28.17-.12-.3-.24.04-.34.14l-.02-.15c-.06.06-.19.03-.23.19.04-.09.02-.19-.02-.23l-.06.23c-.23.12-.05-.41-.28-.34l.17-.18s-.11-.18-.22-.11c-.04.21-.12.47-.16.64-.13.09-.06-.24-.18-.02l.16-.26c.02-.07-.11-.35-.28-.35-.11.07-.28.38-.11.5-.09,0-.21-.13-.14-.28-.19.07.03.23-.14.36-.07-.14-.28-.35-.41-.55l.17-.36h-.12c.15-.29-.08-.22,0-.52-.08-.05-.18.06-.25.13.23.48-.26.66-.19,1.1-.07.03-.14-.02-.22-.11-.07-.08-.1-.2-.14-.3-.08-.2-.12-.32-.44.02.07.11-.27.45.11.32-.34-.05-.34.44-.74.26.36-.18-.17-.45.33-.71-.07.15.2.11.27.07-.09-.17.12-.44-.17-.44-.19.04-.43.05-.49.28-.1.25.31-.03.08.23-.45.09-.31-.3-.72.15.28-.03.23.23.14.4l-.4.11.16-.17c-.47-.12-.33.3-.86.26-.01-.11-.01-.22-.01-.33.32-.29.66.13.86-.34-.29-.02-.56.22-.77.1.1-.04.19-.05.29-.09-.12-.02.29-.63-.41-.27-.34.14-.21.17-.37.34-.13.01-.25.03-.35.05-.07-.21-.18-.27-.2-.52.34-.21.03-.61.38-.52-.16.24-.18.77-.02.88.12-.04.23-.1.33-.16.21-.4.32.06.75-.35-.33,0,.05-.41.25-.67-.04-.01-.15.05-.24.09-.01,0-.03,0-.04,0-.15.13-.21.22-.29.33-.03.05-.07.11-.16.2h-.04c.05-.4-.09-.61-.31-.67.12-.22.37-.34.39-.22-.07-.38-.04-.88.03-1.3-.4.39-.09-.45-.43-.18-.09.26-.37.59-.55.49.03-.19.17-.05.26-.14-.22-.17.35-.4,0-.54.13.45.49,0,.8.03-.18-.24.22-.03.22-.28-.17-.27-.31-.5-.38-.73.3-.29,0-.72,0-.98.16-.13.51-.04.57-.19,0-.17-.38.13-.22-.13l.07.02c-.08-.08.24-.46-.27-.54l.38.08s-.05-.09-.09-.13c.12,0,.24-.06.32.02.26-.16-.04-.33-.05-.5l-.23.11c-.18-.29.05-.48-.03-.76h.22s-.13-.16-.13-.16c.21.04.35-.11.17-.2l.54.43c-.13.12-.27-.13-.49-.06-.19.06-.13.32.08.37.02-.1-.02-.1-.1-.18.31-.03.3.12.5.19-.01-.05.08-.13-.02-.14.15.1.17.2.18.37-.12-.12-.19.06-.28.02.27.01.36.18.28.39-.31.15.2.39.12.64-.28-.1-.5-.22-.61-.37-.14.15,0,.17-.13.32.21.07.52.13.64.33h-.2c.1.19.4.19.35.42-.1.39-.1.8-.13,1.1h-.2c.43.12.16.41.35.51-.2.37.19.4-.16.8.03.06.05.11.08.16.5-.12.82-.22,1.15-.15-.05.1-.1.2-.16.3.15-.22.01.17.13.13-.05-.24.19-.31.25-.49.06.11.25.11.42.05.17-.06.34-.17.48-.28v.2c.29-.38.62-.05.97.02.04.08.1.27.21.25.19-.33.29-.3.56-.51.1,0,.23.02.37.06.1.04.37.09.49.15.28-.11.57-.18.87-.22.35.22.76.57,1.06.81.23.19.47.37.77.48l-.11.22c.91.12,1.32,1.09,1.98,1.33l-.32.27c.07.23.42.23.57-.02.07.23.52.19.39.53.11.2.32.03.49.1.22.39.36.47.7.67l-.06-.08c-.09.04-.21.17-.15.25.19.01.34.44.55-.02.13.49.89.48.96,1.04.06-.12.16-.07.25-.11.28.24.4.7.77.73,0,.09-.22.11-.12.22.1.02.12-.13.25-.11.62.21.75,1,1.2,1.31.26.03.31.05.41.14.08-.05.16-.09.22-.16l.04.09c-.03-.21-.01-.1.14-.11.19-.04.35-.09.3-.39.11.04.26-.12.32.07.06-.36.72-.18.83-.66-.03.01-.04.04-.05.09.42-.02.52-.45.95-.5,0,.06-.05.12,0,.21.23.07.06-.54.39-.19.07-.05-.08-.23-.12-.19.8-.32,1.37-1.07,2.04-1.64.68-.12.47.64.69.07.08.05-.08-.17-.02-.09.09-.22.54.27.51,0-.21-.21-.02-.18-.11-.33.42-.06.63.12.76-.24l.07.14c.05-.55.52-.59.49-1.17.47-.35.92-.7,1.36-1.06l.66-.54.19-.15.32-.24.65-.48c.97-.05,1.94-.1,2.91-.15,1.88.09,3.72-.13,5.64.13.45.4.48.39.97.23-.02.06-.05.08-.02.14.02-.33.35-.03.39-.34.71.06,1.36-.03,2.08-.03-.11.04-.17.3-.04.28l.14-.21.02.09c.09-.05.2-.21.1-.32,1.6-.17.87,0,1.26.14.1.05.18-.06.15-.17.14-.4.01-1.02-.06-1.48.44-1.37.79-2.6.48-3.99,0,0,.85.18,1.04.76Z"/>
          <path class="cls-2" d="M26.75,43.59c-.16.05-.25.21-.47.08.15-.02.33-.1.47-.08Z"/>
          <path class="cls-2" d="M25.06,47.95s-.07.1-.09.13c-.01-.08-.15-.14-.06-.22.01.08.09.06.16.09Z"/>
          <path class="cls-2" d="M24.97,49.66c-.15.07-.26-.25-.28-.48.09.18.19.34.28.48Z"/>
          <path class="cls-2" d="M24.66,51.58c.05.12-.05.19-.28.19.06-.08.17-.12.28-.19Z"/>
          <path class="cls-2" d="M25.09,51.25c.14,0,.14.08.15.17.1-.12-.41.08-.15-.17Z"/>
          <path class="cls-2" d="M28.61,51.68c.05-.01.17-.13.22.03-.06-.11-.26.19-.22-.03Z"/>
          <path class="cls-2" d="M29.63,51.46s.05.04.08,0c.06.07,0,.17-.05.19l-.03-.18Z"/>
          <polygon class="cls-2" points="45.08 57.75 45.02 57.87 44.96 57.74 45.08 57.75"/>
          <path class="cls-2" d="M51.83,53.2c.04-.14.14.07.17.08-.07.07-.07-.17-.17-.08Z"/>
          <polygon class="cls-2" points="55.16 51.17 55.12 51.17 55.13 50.87 55.16 51.17"/>
        </g>
        <g>
          <path class="cls-2" d="M26.18,50.31c.04-.07-.05-.25.02-.12,0,.12,0,.21-.02.12Z"/>
          <path class="cls-2" d="M24.22,60.51c-.41.67-.41-.14-.78.23-.04.02.16-.38.07-.31-.42.47-.61-.02-.58-.53l.07-.1c0-.1-.24.22-.26.14.04-.07.07-.09.12-.19-.13.2-.13.05-.24.18.03-.09.13-.25.17-.35l-.17.21c-.42.49-.13-.14-.41.07.04-.05.08-.08.11-.14-.36.2-.51.01-.76-.02.07-.06.19-.19.25-.28-.2.2-.29.21-.37.21.18-.23-.25.13-.19-.04l.05-.04c-.25.18.07-.17-.22.05l.14-.18c-.31.27.11-.2-.07-.09l-.06.06c-.1.04.04-.12-.03-.1l.03-.03c-.14,0,0-.18-.24.03.18-.19.14-.01.4-.29-.43.02-.54-.27-.69-.49.09-.09.12-.13.22-.19-.07.01-.1-.06-.25,0,0,0,.14-.09.14-.11.09-.1-.33.12-.23,0,.09-.02.18-.06.28-.12-.24.08-.23,0-.33-.01.05-.02.09-.02.18-.06-.28.07,0-.12-.18-.09l.18-.06c.17-.16-.36.14-.27.02.06,0,.13-.04.2-.07-.34.07-.27-.08-.4-.1.03,0,.07-.02.07-.02-.06-.06.01-.16-.16-.2.07-.05.43-.13.34-.18-.35.11-.19-.08-.58.08.03-.09.14-.22.01-.24.14,0,.43-.14.48-.09l.21-.09c.15-.03-.04.05.14,0-.02-.02-.18-.06-.12-.1-.23,0-.66.04-.72-.03.15.01.4-.1.47-.08h-.72s.29-.05.18-.07c-.1.02-.16,0-.24,0,.04-.02-.12-.11.24-.17.14-.03.09.04.21-.01-.01-.05-.13-.04-.14-.09h.05c.05-.05-.16-.09-.36-.03-.01.03.22-.03.11.02-.21,0-.28-.06-.28-.12.06.01.16,0,.26,0-.29-.05-.39-.12-.51-.2-.17,0,.32.01.23.03.23-.12-.35-.21,0-.31.03.01-.25.01-.2.01.02-.05.27-.05.18-.09.15,0-.05-.04-.09-.08-.11-.02.07,0,.09.02-.12-.05-.34-.25-.11-.36-.1,0-.35-.09-.34-.12l.23.02c.14-.02-.01-.09.18-.08-.27-.07.22.23.01.14.19,0-.36-.13-.05-.09,0-.05-.26-.12-.04-.16-.04.01.31.07.3.03-.04-.08-.11-.03-.18-.1l-.09-.05c-.22-.02.03-.06-.21-.06.18.01-.1-.12.26-.07l.29.04s-.3-.09-.43-.13c.03,0,.09,0,.13,0-.44-.06.04-.07-.29-.16.16-.05.05-.18.33-.16-.12-.07-.27-.16-.16-.2.04.02.05.04.14.06.14-.01.02-.04-.04-.09.06.02.27-.02.43-.02-.12-.08-.36-.12-.5-.16.44.06-.24-.22.16-.18.05.03.19.13.31.12.43.07-.29-.18-.07-.2l-.35-.08c.22.03-.17-.18.18-.06-.12-.07.14-.05-.2-.15.33-.03-.05-.37.57-.22-.05-.04.02-.06-.15-.12-.2-.04.12.09-.01.05,0-.02-.09-.06-.14-.08.09,0,.13-.03.39.12.23,0-.52-.32-.35-.37.13.06.19.08.18.04l-.2-.17c.08-.05.32.1.55.21-.02-.05,0-.09-.16-.19l.3.1c-.22-.07-.12-.09-.16-.14l.05.04c.1.04.06-.03.05-.06-.14-.07-.22-.06-.27-.05-.09-.07-.05-.08-.15-.17.21.12.19.02.23,0,.06,0-.17-.14-.16-.15.11.06.05-.04.19.07.03.03-.12-.04-.04.04.09.02.29.14.17.02-.09-.09-.42-.23-.25-.22.04.05.13.1.19.16h.14s-.19-.11-.19-.11c.05.02.07.04.09.05-.19-.14,0-.12-.23-.28,0-.04.17.02.21,0v.02c.14.04.1-.05,0-.17l.04.03s.02-.07-.07-.17c.17.05.7.47.5.26.03-.04-.28-.31-.41-.37.18.01-.03-.3.3-.16-.06-.07-.11-.1-.13-.15.16-.06.01-.43.41-.22.04.1.16.15.25.24-.12-.16.18.12-.06-.13-.15-.14-.22-.21-.31-.23-.01-.14.09-.23.26-.13-.08-.05-.11-.11-.14-.16.22.23.3.23.26.11l-.13-.15.16.12c-.03-.06-.26-.32-.1-.21.05.05.11.11.15.14-.07-.15-.19-.41-.04-.32l.22.19s-.08-.2-.17-.23c.18.06.24.05.42.22-.25-.56-.05-.74.13-.81l.08.12c.12.08-.12-.23-.03-.16.06.13.2.23.26.4.14.09-.07-.27-.06-.35-.1-.17.03.12-.09-.09-.03-.06.17.08.02-.18.08.09.18.28.23.38l-.04-.14c.22.26.22.57.49.9v-.06c.2.24.11.34.24.38-.05-.14-.24-.52-.33-.61.03-.11-.33-.61-.23-.64.11.13-.05.07.09.27.16.18,0-.16.09-.11-.09-.07-.21-.34-.21-.41.11.09.11.25.19.24-.07-.15-.08-.29-.19-.37-.16-.34.12.05,0-.22.15.22.24.58.37.66-.14-.22-.09-.36-.3-.67.06.05.16.23.22.38.11.12-.13-.47.12-.02l-.11-.24c.05.07.09.12.18.23.03-.01-.05-.37.12-.01,0-.04.08-.06-.07-.3-.12-.13.03.21-.16-.11.17.26.05-.07.04-.17l.07.14c0-.06.05-.05-.01-.21.02.09.08.18.11.2l-.08-.22c.02-.14.19.37.23.27l.03.19s.11.15.11.07c-.07-.2-.16-.44-.22-.6,0-.1.12.21.07,0l.05.26c.02.07.18.31.22.28,0-.08-.07-.39-.17-.47.03-.02.11.09.15.24.03-.09-.1-.21-.1-.35.08.12.22.28.34.46l.08.35h.03c.07.27.1.19.19.47.04.04.03-.07.02-.15-.25-.42-.17-.64-.35-1.05.06-.15.44.98.3.3-.06-.1-.13-.43-.14-.29.08.02-.11-.43.02-.29,0,.19.21.4.22.68-.05-.14-.08-.09-.08-.05.08.15.15.42.21.4.02-.05.06-.08-.02-.29-.09-.24-.05.05-.11-.2.04-.11.18.25.07-.19-.03.05-.13-.19-.19-.36l.02-.12.04.16c.13.08-.07-.3.03-.29l.15.3c.07.28-.17-.08,0,.36.06,0,0-.23.09-.13,0,.04-.01.06,0,.1.03,0,.24.59.2.22,0-.15-.04-.16-.09-.33.07-.08.05-.26.1-.3.09.33.11,0,.15.35-.08-.18-.21-.12-.14.19.15.37-.09-.03.02.36.07-.01.19.37.28.61.02.01,0-.1,0-.14-.07-.24-.09-.23-.16-.47.09.04.12-.11.1-.35.06.11.12.35.1.38.07-.1.17-.1.27-.04-.16-.37.07-.11-.05-.43-.07-.08-.18-.34-.2-.52.04.02.04.17.08.25-.02-.22.15.32.1-.02-.05.15.1.48.17.78.01-.19.05.22.11.2.01-.18.05-.33.1-.42.15.27.21-.04.28-.07.07.15.11.5.16.55.05-.02-.11-.37,0-.22v.07c.01-.09.18.21.11-.29l.04.38s.02-.06.02-.1c.02.12.06.23.05.32.09.25.08-.06.13-.07l-.06-.22c.05-.19.14.03.21-.06l.03.22.03-.14c.02.21.07.35.08.17l-.05.55c-.05-.12,0-.27-.05-.48-.04-.19-.11-.12-.09.1.03.02.02-.03.03-.11.05.3,0,.3.02.51.01-.01.04.08.03-.02,0,.15-.03.18-.07.19.01-.12-.04-.19-.05-.28.04.27.01.36-.05.29-.09-.3-.06.22-.14.14-.03-.28-.03-.5-.01-.62-.06-.13-.04.02-.11-.11.02.21.06.52.04.65l-.04-.2c-.03.11.03.4-.03.36-.12-.08-.22-.05-.3-.06l-.05-.2c.06.43-.1.19-.1.39-.15-.16-.14.25-.29-.08-.12.2-.21.38-.39.38l-.07-.29c.05.21-.08-.15-.09-.1.12.21.07.3.11.48-.15-.19-.16.08-.14.29l-.08-.19c.09.38-.11.1-.21.08-.04-.07-.14-.24-.15-.21.1.32.07.3.1.52-.04.02-.15-.03-.25-.11.07.49-.22.32-.23.64l-.14-.19c.15.52-.27.26-.22.54l-.25-.32c-.12-.07,0,.15.19.36-.11-.07.06.22-.18-.01-.08-.03.09.18.1.24-.17-.06-.17,0-.17.1h.03c-.06-.06-.18-.19-.21-.19.06.1-.16,0,.22.31-.26-.12.06.29-.28.11.11.08.12.11.18.17-.04.05-.3-.05-.15.12-.06-.03-.17-.14-.2-.13.03.04.14.1.19.16.16.23-.32.05-.32.18.12.27-.04.39-.07.56l-.09-.04c.33.18-.42,0,.1.22-.1-.02-.05.04-.23-.03.24.12-.27.07.04.22.01,0,0-.01-.05-.03-.22.02.05.15-.16.18-.04-.02-.07-.04-.16-.06-.19,0,.39.15-.08.08,0,.02.23.05.22.04-.24.13.08.38.16.55-.29.11-.79-.04-.45.09-.09,0,.18.02.08.01.13.05-.53.04-.29.08.29,0,.16.02.34.03-.19.08-.46.1-.24.16h-.15c.44.07.21.16.71.2.05.19.15.37.28.5.11.15.23.28.31.4,0,.33.34.43.28.83-.27.3-.25.31-.07.27-.05.04-.07.04-.11.09.25-.21.06.03.3-.17.02.14.18.14.27.23-.04.01-.23.2-.19.2l.16-.14-.06.07s.16-.13.22-.22c.39-.04.26.68.64.79.01.16.18.1.28.08.04.5.28.96.53.7,0,0-.04.21-.11.43-.07.22-.18.47-.28.54Z"/>
          <path class="cls-2" d="M26.12,50.35c-.03-.16-.08-.25-.07-.47.02.15.06.32.07.47Z"/>
          <path class="cls-2" d="M24.67,48.91s-.03-.06-.04-.09c.01-.02,0-.15.03-.07-.01.02,0,.09.02.16Z"/>
          <path class="cls-2" d="M24.32,48.9c-.04-.14,0-.27.04-.3l-.04.3Z"/>
          <path class="cls-2" d="M23.84,48.42c-.06-.11-.08-.18-.04-.18.03.07.03.11.04.18Z"/>
          <path class="cls-2" d="M23.92,48.74s-.06-.07-.1-.14c.04.12.04-.09.1.14Z"/>
          <path class="cls-2" d="M23.11,48.58s0,.14-.08,0c.06.1.01-.2.08,0Z"/>
          <path class="cls-2" d="M22.89,48.92s-.03-.03-.02.02c-.05-.05-.07-.16-.06-.18l.08.16Z"/>
          <polygon class="cls-2" points="19.22 53.72 19.16 53.67 19.3 53.71 19.22 53.72"/>
          <path class="cls-2" d="M19,56.29c.09.03-.13.04-.16.04-.02-.03.18,0,.16-.04Z"/>
          <polygon class="cls-2" points="19.96 57.47 19.95 57.46 20.24 57.37 19.96 57.47"/>
        </g>
        <g>
          <path class="cls-2" d="M65.41,49.54c-.07.07.06.25-.04.12,0-.12,0-.21.04-.12Z"/>
          <path class="cls-2" d="M68.1,60.51c-.03-.79.46-.14.49-.68.01-.04.15.39.17.27-.03-.63.37-.43.84-.17l.04.11c.09.05-.05-.32.02-.3.04.07.04.1.11.19-.11-.21.03-.15-.05-.31.07.07.16.23.24.3l-.12-.24c-.28-.58.2-.08.11-.41.03.05.05.1.09.14-.08-.43.14-.5.18-.74.06.08.17.21.25.28-.18-.22-.19-.31-.19-.39.22.19-.12-.25.03-.18l.04.05c-.18-.24.17.08-.06-.2l.18.14c-.28-.29.2.1.07-.07l-.06-.06c-.05-.09.11.03.08-.04l.04.03c-.03-.13.17-.01-.08-.22.21.14.04.13.35.34-.07-.4.1-.57.24-.78.13.04.17.05.28.1-.04-.05,0-.12-.13-.22,0,.01.15.06.17.06.13.01-.29-.21-.14-.19.07.06.16.11.26.16-.2-.16-.14-.19-.19-.27.05.03.07.06.16.1-.23-.17.1-.07-.04-.19l.16.09c.24.02-.34-.18-.19-.19.05.04.12.06.18.09-.28-.19-.15-.24-.23-.34.02.01.07.03.07.03-.02-.08.1-.11-.01-.23.09,0,.43.15.39.06-.36-.11-.11-.16-.52-.24.08-.04.24-.09.12-.16.13.06.45.08.47.14h.23c.15.06-.06.04.13.08,0-.03-.14-.15-.07-.16-.21-.1-.62-.23-.65-.31.14.06.41.06.46.09l-.68-.23s.29.04.2,0c-.1-.01-.15-.04-.23-.06.04,0-.07-.11.29-.07.14,0,.07.05.2.04,0-.05-.12-.07-.12-.11h.05c.06-.02-.15-.1-.35-.09-.01.02.22.02.11.03-.21-.04-.27-.1-.27-.14.06.02.16.03.26.04-.28-.09-.37-.15-.49-.22-.17-.01.31.04.22.05.25-.07-.33-.18.03-.24.03.01-.25,0-.2,0,.02-.04.28-.03.18-.06.15,0-.04-.03-.09-.06-.11-.01.07,0,.09.02-.13-.04-.37-.17-.16-.26-.1,0-.36-.03-.35-.05h.23c.13-.03-.02-.07.17-.09-.28-.02.25.14.03.1.19-.03-.37-.05-.06-.06-.01-.04-.27-.05-.06-.11-.04.01.32,0,.3-.03-.04-.05-.11,0-.19-.04l-.1-.02c-.22.02.03-.05-.22,0,.18-.03-.12-.06.25-.1l.29-.03s-.31,0-.44,0c.03,0,.08-.02.13-.03-.44.06.03-.06-.31-.04.14-.07-.02-.11.25-.18-.14,0-.31,0-.22-.06.04,0,.06,0,.15-.01.12-.05,0-.03-.07-.04.07,0,.24-.11.39-.18-.14,0-.37.07-.51.11.41-.15-.29-.01.08-.17.06,0,.22-.01.32-.07.41-.17-.33.03-.14-.09l-.34.13c.21-.1-.21,0,.14-.12-.13.03.09-.09-.24.04.24-.18-.24-.09.31-.4-.06.01-.02-.04-.18.05-.17.1.14-.04.02.03-.01,0-.1.03-.15.06.06-.06.08-.09.35-.19.17-.16-.57.22-.47.09.13-.07.18-.1.15-.11l-.24.09c.03-.07.28-.19.5-.32-.05,0-.06-.03-.22.05l.25-.19c-.18.14-.14.06-.2.08l.06-.02c.09-.06.01-.05-.02-.05-.13.09-.16.15-.19.18-.1.05-.09.02-.21.08.21-.13.12-.13.13-.16.03-.05-.19.11-.19.1.1-.07,0-.04.15-.13.04-.02-.09.08,0,.03.07-.07.25-.19.1-.13-.11.05-.39.29-.29.16.05-.03.14-.08.21-.13l.08-.11-.18.13s.06-.05.08-.07c-.19.13-.09,0-.31.15-.03,0,.1-.13.11-.16h.02c.09-.11,0-.08-.12,0l.04-.03s-.05-.02-.15.06c.1-.13.61-.57.38-.41-.03-.02-.34.24-.43.35.06-.15-.23.07-.03-.22-.07.06-.1.11-.15.13,0-.13-.28.08-.07-.29.08-.06.14-.17.21-.28-.14.14.1-.18-.11.09-.12.16-.18.24-.21.32-.11.06-.17.02-.08-.15-.04.08-.09.13-.13.17.19-.26.18-.32.09-.25l-.11.16.1-.18s-.23.34-.15.16c.04-.07.08-.13.1-.18-.11.12-.28.32-.22.17l.12-.26s-.14.16-.16.24c.04-.17.01-.21.11-.44-.38.48-.49.45-.57.36l.06-.13c.02-.14-.12.23-.1.13.06-.12.1-.29.19-.44.01-.16-.16.21-.21.26-.08.18.07-.11-.03.12-.03.06,0-.16-.12.11.03-.11.12-.31.17-.41l-.08.12c.09-.33.3-.54.42-.94l-.05.03c.08-.29.21-.29.17-.42-.09.12-.26.5-.28.63-.09.05-.27.64-.33.59.04-.17.06-.02.13-.25.05-.23-.1.1-.1.01,0,.11-.13.38-.17.43.02-.14.11-.25.08-.3-.06.16-.14.26-.15.38-.14.35,0-.12-.12.16.07-.26.24-.57.23-.72-.07.25-.17.31-.26.69,0-.08.06-.27.12-.42.02-.16-.21.43-.07-.06l-.09.25c.01-.08.02-.15.05-.29-.02-.01-.18.32-.07-.06-.02.04-.07,0-.12.28-.01.17.09-.18.01.18.06-.3-.06.02-.1.12l.04-.15c-.03.05-.04.02-.09.17.03-.08.05-.19.05-.22l-.07.22c-.07.1.09-.4.03-.35l.08-.17s.02-.18-.02-.12c-.06.21-.13.45-.18.61-.05.08.04-.24-.03-.03l.09-.24c.02-.07.06-.35.02-.35-.04.07-.14.36-.13.48-.02,0-.02-.13.03-.28-.06.06-.04.23-.11.35.02-.14.01-.35.03-.56l.11-.34h-.03c.09-.28.03-.23.11-.52-.01-.05-.05.05-.09.12-.04.49-.19.64-.25,1.08-.09.11.15-1.07-.05-.4,0,.12-.1.44-.03.32-.03-.06-.1.43-.12.24.07-.17.03-.45.13-.7-.03.14.01.12.03.08,0-.17.08-.44.03-.45-.04.04-.08.04-.11.27-.04.25.05-.02-.01.23-.07.08-.02-.3-.11.14.04-.03,0,.23-.02.4l-.05.1.03-.17c-.04-.13-.06.3-.11.25l.02-.33c.05-.28.07.14.13-.33-.04-.02-.08.21-.11.08.02-.04.02-.05.04-.09-.01-.02.05-.63-.05-.28-.05.14-.03.16-.05.34-.07.04-.11.22-.16.24.05-.34-.07-.04.01-.38,0,.2.1.19.16-.13.02-.4.05.06.11-.34-.06-.02,0-.41.02-.67-.01-.02-.04.09-.06.13-.04.24-.01.24-.04.49-.06-.07-.13.05-.19.29,0-.12.02-.37.05-.39-.08.06-.16.02-.23-.05.02.4-.09.09-.08.42.03.09.04.38,0,.55-.02-.03.01-.17.01-.26-.04.22-.02-.35-.07-.01.07-.12.05-.48.08-.8-.06.17.02-.22-.03-.23-.06.17-.13.3-.19.37-.06-.3-.18-.01-.24,0-.03-.16,0-.51-.04-.57-.04,0,.03.38-.04.22v-.07c-.01.08-.11-.24-.13.27l.02-.38s-.02.05-.03.09c0-.12-.02-.24,0-.32-.04-.26-.09.04-.13.05l.03.23c-.07.18-.13-.05-.2.04v-.22s-.04.13-.04.13c0-.21-.05-.35-.06-.17l.1-.55c.04.13-.03.27,0,.49.02.19.09.13.1-.08-.03-.02-.03.02-.05.1-.02-.31.02-.3.04-.5-.01.01-.04-.08-.04.02.02-.15.05-.18.1-.18-.03.12.02.19.01.28,0-.27.04-.36.11-.28.04.31.11-.2.18-.11-.03.27-.07.49-.11.6.04.14.05,0,.09.13.02-.2.04-.52.1-.64v.2c.05-.1.06-.4.13-.34.11.1.23.11.31.14v.2c.07-.43.16-.15.24-.34.09.2.26-.17.28.18.21-.13.41-.27.6-.15l-.08.28c.07-.21,0,.17.04.14,0-.24.1-.29.16-.47.05.24.21.02.34-.17l-.04.2c.16-.36.19-.01.28.08,0,.08-.04.27,0,.26.14-.3.16-.27.3-.45.06.02.14.12.16.26.37-.38.51,0,.85-.17l-.07.23c.44-.39.53.2.84.07l-.22.35c0,.14.19-.02.32-.28,0,.14.26-.08.12.23.02.1.17-.11.26-.12.04.21.1.21.26.24v-.04c-.08.06-.18.2-.17.24.11-.06.09.2.34-.22-.05.3.43.07.29.45.08-.11.13-.1.2-.15.11.1.02.39.26.31-.03.06-.19.13-.16.18.06-.01.13-.12.21-.14.35,0,.09.53.26.65.45.15.51.57.69.87l-.09.04c.39-.03-.24.39.32.27-.07.06,0,.11-.19.16.27,0-.17.31.18.34,0-.01-.01-.02-.06-.02-.17.18.14.22-.02.4-.04,0-.08-.02-.18,0-.17.09.43.03-.02.16.01.03.24-.03.22-.04-.09.32.2.56.34.86-.26.23-.79.07-.43.21-.09.02.18,0,.08,0,.14.06-.52.12-.27.15.29-.03.16.02.34.02-.18.13-.43.15-.22.25h-.15c.42.11.19.24.68.36.03.34.1.68.1,1.04.03.36.02.73-.08,1.08-.3.64-.49,1.4-1.13,1.84-.42-.11-.42-.11-.41.13-.04-.05-.05-.07-.1-.1.24.22-.06.11.17.34-.21.17-.33.38-.52.57,0-.06-.16-.27-.18-.22l.1.19-.07-.06c0,.06.09.21.18.26-.35.68-1.28.52-1.77.86-.19-.05-.32.14-.44.27-.64-.21-1.03-.43-1.5,0,0,0-.01-.21-.02-.45-.01-.24-.02-.51.03-.62Z"/>
          <path class="cls-2" d="M65.5,49.5c.02.16.07.25.05.47-.01-.15-.05-.32-.05-.47Z"/>
          <path class="cls-2" d="M66.6,51.2s.01.07.01.1c-.01.01-.03.15-.04.06.01-.01.02-.09.03-.16Z"/>
          <path class="cls-2" d="M66.85,51.31c-.02.14-.08.26-.12.27l.12-.27Z"/>
          <path class="cls-2" d="M67.01,51.94c0,.12-.01.19-.03.18,0-.08.02-.11.03-.18Z"/>
          <path class="cls-2" d="M67.07,51.61s.02.09.02.17c.02-.12-.05.07-.02-.17Z"/>
          <path class="cls-2" d="M67.48,52.11s.06-.12.04.04c.01-.11-.09.17-.04-.04Z"/>
          <path class="cls-2" d="M67.74,51.93s0,.04.02,0c0,.07-.04.17-.05.18l.03-.18Z"/>
          <polygon class="cls-2" points="70.77 53.65 70.7 53.65 70.83 53.61 70.77 53.65"/>
          <path class="cls-2" d="M70.95,55.39c.09.03-.14,0-.16,0-.01-.02.18.02.16,0Z"/>
          <polygon class="cls-2" points="71.47 56.53 71.47 56.52 71.75 56.62 71.47 56.53"/>
        </g>
        <g>
          <path class="cls-2" d="M36.9,33.17c-.07-.02-.26,0-.11-.01.12,0,.21,0,.11.01Z"/>
          <path class="cls-2" d="M35.34,36.81c-.67-.37.05-.09-.37-.34-.03-.02.38.18.29.12-.52-.29-.16-.21.27-.07l.11.05c.08.03-.27-.15-.21-.14.07.03.1.05.2.09-.21-.1-.09-.07-.25-.14.09.04.26.11.35.15l-.24-.12c-.57-.28.06-.02-.23-.18.06.03.1.05.16.07-.34-.2-.25-.22-.36-.32.09.04.24.11.34.16-.26-.12-.32-.16-.36-.2.27.12-.23-.13-.08-.08l.06.03c-.27-.14.17.06-.16-.1l.21.09c-.37-.17.2.07.01-.02l-.08-.03c-.09-.05.1.03.04,0l.04.02c-.09-.06.12.02-.17-.11.24.1.1.06.44.21-.28-.19-.19-.22-.17-.27.12.05.16.06.27.11-.06-.03-.04-.04-.19-.12,0,0,.15.06.17.07.11.04-.32-.15-.18-.11.08.04.17.08.28.13-.22-.11-.18-.11-.25-.15.05.02.08.04.17.08-.25-.13.06,0-.09-.08l.17.08c.21.07-.35-.16-.22-.12.05.02.12.05.19.09-.3-.15-.19-.13-.29-.19.02.01.07.03.07.03-.03-.03.07,0-.06-.08.08.03.41.18.36.14-.34-.15-.13-.09-.52-.25.06.01.2.05.09-.01.13.06.42.18.44.2l.21.08c.14.06-.05-.01.13.06-.01-.01-.14-.09-.08-.07-.2-.1-.59-.28-.62-.32.13.06.37.16.43.19l-.64-.31s.27.12.18.07c-.09-.04-.14-.07-.22-.1.04.01-.08-.06.26.08.13.05.07.04.19.09,0-.01-.11-.06-.11-.07l.04.02c.05.01-.13-.08-.32-.15-.01,0,.2.09.1.05-.19-.09-.24-.12-.24-.14.05.02.14.06.24.11-.26-.13-.34-.18-.44-.24-.16-.07.29.13.2.1.23.08-.3-.18.03-.05-.03-.01-.14-.06-.18-.08.02,0,.26.1.17.06.14.06-.04-.03-.08-.05-.1-.05.07.03.08.04-.11-.06-.31-.18-.1-.12-.09-.04-.33-.15-.31-.15l.21.09c.13.05-.01-.02.17.05-.25-.12.2.13,0,.03.18.07-.33-.16-.04-.04,0-.01-.24-.12-.04-.05-.04-.01.29.13.28.12-.03-.03-.1-.05-.16-.09l-.08-.04c-.2-.09.03,0-.2-.09.17.07-.1-.06.24.08l.27.11s-.28-.13-.4-.18c.03.01.08.03.12.05-.41-.17.04,0-.27-.14.15.05.03-.03.28.08-.12-.06-.27-.13-.17-.11.04.02.05.02.14.06.12.04.02,0-.05-.04.06.02.25.09.39.14-.12-.06-.34-.15-.48-.21.41.16-.25-.13.12,0,.05.03.19.1.3.13.41.16-.29-.14-.09-.07l-.34-.14c.21.08-.19-.1.16.04-.12-.05.12.03-.21-.1.29.09-.15-.12.45.11-.05-.03,0-.01-.16-.08-.19-.07.13.06,0,.01-.01,0-.1-.04-.14-.06.08.02.1.03.37.15.21.07-.55-.24-.42-.21.14.06.19.08.17.06l-.23-.11c.06,0,.31.12.54.21-.04-.02-.02-.03-.19-.1l.29.11c-.21-.08-.14-.06-.19-.09l.06.03c.1.04.04,0,.01,0-.14-.06-.2-.07-.25-.08-.1-.05-.08-.04-.19-.09.23.09.17.05.19.06.05.01-.2-.09-.19-.09.12.05.02,0,.19.07.04.02-.12-.04-.01,0,.09.03.29.11.15.05-.11-.05-.45-.18-.3-.13.06.02.15.06.23.1l.12.04-.21-.08c.05.02.07.03.1.04-.22-.09-.06-.04-.3-.14-.02-.01.15.05.17.05h.02c.12.05.05,0-.09-.05l.05.02s-.01-.02-.13-.07c.16.05.78.3.53.19,0-.01-.37-.16-.51-.21.15.04-.18-.11.14,0-.08-.04-.13-.06-.18-.08.09,0-.23-.14.19,0,.08.04.21.08.33.13-.18-.08.2.07-.12-.06-.19-.07-.28-.11-.36-.13-.1-.05-.09-.07.09-.01-.09-.03-.14-.05-.2-.08.3.11.35.12.25.07l-.18-.07.19.07c-.06-.03-.38-.15-.2-.09.07.03.14.05.2.07-.15-.06-.4-.17-.24-.12l.27.09s-.19-.08-.27-.1c.17.05.19.04.42.12-.56-.23-.56-.28-.51-.29l.14.05c.13.04-.24-.09-.14-.06.13.05.29.1.45.16.15.04-.23-.1-.29-.13-.18-.07.11.05-.12-.04-.06-.02.15.03-.13-.06.11.04.31.11.42.15l-.13-.05c.32.12.57.21.96.35l-.04-.02c.29.1.32.13.42.15-.13-.06-.53-.2-.65-.24-.07-.04-.65-.24-.62-.24.16.05.03.03.26.1.22.07-.12-.06-.04-.04-.11-.03-.38-.13-.43-.15.13.04.26.1.29.09-.16-.06-.27-.11-.39-.14-.36-.13.1.02-.17-.08.25.08.58.21.71.24-.24-.09-.33-.12-.69-.25.07.02.26.09.41.14.15.04-.44-.17.04,0l-.25-.09c.08.03.14.04.28.09,0,0-.33-.13.05,0-.04-.02-.02-.02-.28-.1-.16-.05.19.07-.17-.04.29.09-.03-.02-.13-.06l.15.05c-.06-.02-.02-.02-.18-.07.08.03.18.06.22.07l-.22-.08c-.11-.05.39.13.33.09l.17.06s.17.05.11.02c-.2-.07-.45-.15-.6-.21-.09-.03.23.07.02,0l.24.09c.07.02.34.1.34.09-.07-.03-.36-.13-.47-.16,0,0,.12.03.27.08-.07-.03-.22-.07-.34-.12.14.04.33.09.53.15l.34.12h0c.27.08.21.06.5.15.05.01-.05-.03-.12-.05-.47-.13-.63-.21-1.05-.34-.11-.05,1.03.31.37.09-.11-.03-.43-.13-.31-.09.05,0-.42-.13-.24-.09.17.05.43.13.68.21-.14-.04-.11-.03-.07-.01.16.05.42.13.43.12-.04-.02-.04-.03-.27-.09-.24-.07.02.02-.22-.06-.08-.04.29.07-.14-.06.03.02-.22-.06-.39-.11l-.1-.04.16.05c.12.02-.29-.09-.25-.09l.32.09c.27.08-.13-.02.32.11.02,0-.21-.07-.09-.04.04.01.05.02.09.03.02,0,.61.17.27.06-.14-.04-.16-.05-.33-.09-.05-.03-.22-.08-.24-.09.33.09.04,0,.37.1-.19-.05-.18-.03.13.07.39.1-.06,0,.33.11.01,0,.39.1.64.17.02,0-.09-.03-.12-.04-.24-.06-.23-.06-.48-.13.07,0-.06-.04-.29-.11.12.03.35.09.37.1-.06-.04-.03-.04.04-.03-.39-.09-.09-.03-.41-.11-.09-.02-.36-.09-.54-.13.03,0,.17.04.25.06-.21-.05.34.08,0,0,.13.03.47.12.78.19-.17-.05.22.05.22.04-.17-.05-.3-.09-.36-.11.29.05.01-.03,0-.04.16.03.5.09.57.1,0-.01-.38-.06-.21-.05h.07c-.08,0,.24.03-.26-.05l.38.06s-.05-.01-.09-.02c.12.02.23.04.32.05.26.03-.04-.03-.05-.03l-.23-.02c-.18-.03.05-.01-.03-.03l.22.02-.13-.02c.21.02.35.01.17,0,.18.02.36.04.54.06-.13,0-.27-.03-.48-.04-.19-.01-.13,0,.08.03.03,0-.02,0-.1-.02.31.02.29.03.5.06-.01,0,.08,0-.01-.01.15.02.17.04.18.05-.12-.03-.19-.02-.28-.03.27.03.35.06.27.07-.31-.04.19.08.1.08-.27-.06-.48-.11-.59-.13-.14-.01,0,.01-.13,0,.2.04.51.1.63.14l-.2-.04c.1.03.39.09.33.1-.1.01-.11.04-.14.06l-.2-.05c.42.11.15.08.33.14-.2-.02.17.11-.17.03.14.09.27.17.19.2l-.28-.09c.21.07-.16-.04-.12-.02.23.06.29.1.46.16-.23-.05,0,.06.2.14l-.19-.06c.36.13.03.05-.04.06-.08-.02-.26-.08-.24-.07.31.11.28.11.47.2,0,.01-.09,0-.21-.02.42.2.12.16.37.3l-.23-.08c.46.22,0,.12.23.26l-.38-.15c-.12-.03.09.07.36.16-.12-.03.17.1-.14,0-.08-.01.17.08.22.11-.15-.03-.12,0-.06.05h.03c-.08-.03-.24-.09-.27-.1.1.05-.12,0,.34.16-.27-.07.19.14-.17.03.13.05.15.06.23.1,0,.03-.27-.05-.06.05-.06-.02-.21-.09-.22-.08.05.02.16.07.23.1.22.13-.27-.02-.22.04.21.15.07.17.09.24l-.09-.04c.34.16-.37-.1.14.13-.09-.03-.05,0-.22-.07.24.12-.25-.05.05.1,0,0,0,0-.05-.03-.21-.06.06.07-.13.02-.04-.02-.07-.03-.15-.07-.18-.06.37.18-.07,0,0,0,.22.09.21.09-.19-.02.07.15.14.24-.27-.07-.73-.31-.42-.14-.08-.03.17.07.08.03.12.06-.49-.19-.27-.08.27.11.15.07.31.14-.18-.05-.42-.15-.23-.05l-.14-.06c.39.19.16.12.61.34.03.15.24.37.24.51-.14.07.02.27-.27.28-.38-.14-.37-.13-.23-.04-.06-.03-.07-.03-.13-.06.3.14.02.03.3.16-.07.02-.01.09-.03.13-.03-.02-.27-.14-.26-.12l.19.09-.08-.04s.19.1.28.14c.21.22-.44.06-.41.19-.14-.03-.04.05.01.11-.43-.1-.78-.19-.55.03,0,0-.76-.38-.92-.49Z"/>
          <path class="cls-2" d="M36.93,33.19c-.16,0-.25,0-.47,0,.15,0,.33,0,.47,0Z"/>
          <path class="cls-2" d="M35.23,33.18s-.06-.01-.09-.02c-.01,0-.15-.04-.06-.02.01,0,.09.02.15.04Z"/>
          <path class="cls-2" d="M35.13,33.19c-.14-.04-.25-.08-.27-.08l.27.08Z"/>
          <path class="cls-2" d="M34.54,33.07c-.12-.03-.18-.05-.18-.05.07.02.11.03.18.05Z"/>
          <path class="cls-2" d="M34.86,33.16s-.08-.02-.16-.04c.12.03-.07-.03.16.04Z"/>
          <path class="cls-2" d="M34.43,33.12s.12.05-.03,0c.11.03-.17-.06.03,0Z"/>
          <path class="cls-2" d="M34.62,33.23s-.04,0,0,0c-.06-.02-.17-.05-.18-.06l.17.06Z"/>
          <polygon class="cls-2" points="34.81 34.4 34.74 34.37 34.87 34.42 34.81 34.4"/>
          <path class="cls-2" d="M34.62,34.85c.08.04-.13-.05-.15-.06-.01-.01.16.07.15.06Z"/>
          <polygon class="cls-2" points="35.19 35.39 35.18 35.38 35.46 35.5 35.19 35.39"/>
        </g>
        <g>
          <path class="cls-2" d="M42.5,29.96c-.06.04-.16.2-.08.08.08-.09.14-.16.08-.08Z"/>
          <path class="cls-2" d="M45.65,32.83c-.53.55-.09-.08-.44.25-.03.02.27-.32.19-.25-.42.42-.26.09-.02-.3l.08-.09c.05-.07-.22.22-.19.16.05-.06.08-.08.14-.17-.15.18-.09.07-.21.2.06-.07.18-.22.24-.3l-.18.2c-.43.47-.01-.07-.25.17.04-.05.07-.08.11-.13-.29.27-.28.17-.42.25.06-.07.18-.2.24-.29-.18.21-.24.26-.29.29.18-.23-.19.19-.1.05l.04-.05c-.21.23.1-.15-.14.13l.14-.18c-.27.31.12-.17-.02-.02l-.05.06c-.07.07.06-.09,0-.04l.03-.04c-.09.07.05-.11-.15.13.16-.2.09-.08.32-.37-.26.21-.28.11-.33.08.08-.1.1-.14.18-.23-.05.04-.06.03-.17.15,0,0,.1-.13.11-.14.07-.1-.24.26-.16.14.06-.06.13-.14.2-.23-.17.18-.16.14-.22.2.04-.04.06-.06.12-.14-.19.21.02-.06-.11.07l.12-.14c.13-.19-.25.29-.18.18.04-.04.09-.1.14-.16-.23.25-.18.14-.27.22.02-.02.05-.06.05-.06-.04.02.01-.07-.1.03.05-.07.29-.34.23-.3-.24.28-.12.1-.39.42.03-.06.1-.18,0-.09.1-.1.29-.35.32-.37l.14-.18c.1-.12-.02.05.1-.1-.01,0-.13.11-.09.06-.16.17-.44.48-.49.51.1-.1.26-.32.31-.36l-.48.52s.19-.23.12-.16c-.06.08-.11.12-.16.18.03-.03-.08.05.15-.23.09-.11.06-.05.14-.16-.01,0-.09.09-.11.09l.03-.04s-.12.1-.24.26c0,.01.14-.17.08-.08-.14.16-.19.19-.2.19.04-.04.1-.12.17-.19-.2.21-.27.27-.36.35-.11.13.21-.24.15-.16.14-.2-.26.23-.05-.05.02-.02-.16.19-.13.15,0-.02.17-.22.1-.15.09-.11-.04.03-.07.06-.07.08.04-.06.06-.06-.09.09-.27.23-.15.05-.06.08-.24.26-.24.25l.15-.17c.08-.11-.03,0,.1-.15-.19.2.19-.15.04,0,.12-.15-.25.26-.05.03-.01,0-.19.19-.06.02-.02.03.21-.24.19-.23-.04.02-.07.08-.13.13l-.07.07c-.14.17,0-.03-.15.16.12-.14-.09.07.15-.21l.19-.22s-.21.23-.29.32c.02-.02.05-.07.08-.1-.29.34.01-.04-.22.22.09-.13-.02-.04.15-.25-.1.1-.21.21-.16.13.03-.03.04-.04.1-.11.08-.11,0-.02-.05.03.04-.05.15-.21.25-.34-.09.09-.25.28-.34.39.28-.34-.21.2.04-.12.04-.04.15-.15.22-.24.27-.34-.23.23-.1.06l-.23.28c.14-.18-.16.14.09-.14-.09.1.06-.1-.17.17.17-.25-.17.09.23-.4-.04.04,0-.01-.13.13-.12.16.1-.1.01,0,0,0-.07.08-.1.12.05-.07.06-.09.25-.31.13-.18-.4.45-.33.33.1-.11.13-.16.11-.14l-.17.18c.03-.05.21-.26.37-.45-.03.03-.03.01-.16.15l.19-.25c-.14.18-.1.11-.14.15l.04-.04c.07-.08.02-.04,0-.02-.1.12-.13.17-.16.21-.07.08-.06.06-.15.15.16-.19.1-.14.11-.17.03-.05-.15.16-.14.15.08-.1,0-.02.12-.16.03-.03-.07.1,0,.02.06-.08.2-.24.09-.13-.08.09-.31.37-.22.24.04-.04.11-.12.16-.18l.07-.11-.14.17s.05-.06.07-.08c-.15.18-.06.04-.24.24-.02.01.09-.13.1-.15h.01c.08-.12.01-.06-.09.05l.03-.04s-.02,0-.11.1c.1-.14.54-.64.35-.44-.01,0-.28.3-.37.41.08-.13-.17.13.04-.14-.06.07-.1.11-.13.15.03-.09-.22.16.04-.19.07-.07.14-.17.23-.27-.13.15.13-.16-.1.1-.13.15-.19.23-.24.3-.08.07-.11.05,0-.1-.06.07-.1.12-.14.16.21-.24.23-.29.15-.21l-.13.15.12-.16s-.27.31-.15.16c.05-.06.1-.12.13-.16-.11.12-.3.31-.2.18l.18-.22s-.14.15-.19.22c.1-.14.1-.17.25-.36-.41.44-.47.42-.47.37l.1-.11c.08-.11-.17.19-.11.11.09-.1.19-.24.31-.36.09-.13-.18.18-.23.23-.12.15.09-.09-.07.1-.05.05.08-.13-.11.09.07-.09.21-.25.29-.34l-.1.1c.21-.27.41-.45.67-.77l-.04.03c.19-.24.24-.25.29-.34-.1.1-.38.42-.45.52-.07.05-.45.52-.45.49.11-.13.04-.02.19-.21.14-.19-.1.09-.05.02-.06.09-.26.31-.3.35.08-.11.18-.21.19-.24-.11.13-.2.21-.27.31-.25.29.06-.09-.14.13.17-.21.41-.46.48-.58-.16.2-.24.26-.48.55.04-.06.17-.22.28-.33.1-.13-.32.35,0-.05l-.17.2c.05-.07.09-.12.18-.23,0,0-.25.26,0-.05-.03.03-.03,0-.2.22-.1.14.14-.15-.1.14.19-.24-.04.02-.11.09l.1-.12s-.03.01-.14.14c.06-.07.13-.15.15-.18l-.15.18c-.09.08.26-.32.21-.28l.13-.13s.11-.14.06-.09c-.14.16-.31.35-.42.48-.07.07.15-.19,0-.02l.17-.19c.05-.05.22-.28.21-.28-.05.05-.26.28-.33.38,0,0,.07-.11.18-.22-.06.05-.15.18-.24.27.09-.11.21-.28.33-.44l.24-.27h0c.19-.22.14-.18.34-.41.03-.04-.05.03-.1.09-.3.38-.44.49-.72.84-.09.08.68-.83.22-.32-.07.09-.3.34-.2.25.02-.05-.29.33-.19.18.13-.13.28-.35.46-.54-.1.11-.06.09-.04.06.1-.13.29-.34.28-.35-.03.03-.05.03-.2.2-.16.19.03-.01-.14.18-.07.06.18-.24-.12.1.03-.02-.14.18-.25.31l-.08.07.11-.13c.06-.11-.2.23-.19.18l.21-.26c.19-.22-.06.12.24-.24,0-.02-.15.16-.08.06.03-.03.04-.04.07-.07,0-.01.4-.49.15-.22-.1.1-.11.13-.22.26-.05.03-.17.16-.2.17.22-.26,0-.04.24-.3-.12.16-.09.16.13-.08.25-.31-.02.05.24-.26,0-.02.25-.32.42-.52,0-.02-.07.06-.09.09-.16.19-.15.19-.31.38.03-.06-.07.03-.23.21.07-.1.23-.28.25-.29-.06.04-.06,0-.03-.07-.25.31-.08.06-.29.32-.05.08-.23.3-.35.43.01-.02.11-.13.17-.2-.15.16.21-.28-.01-.02.1-.09.32-.37.52-.61-.12.13.14-.17.13-.18-.12.12-.22.22-.28.26.18-.24-.03-.04-.06-.04.09-.13.33-.39.36-.45-.01,0-.24.3-.15.16l.05-.05c-.06.06.13-.2-.2.18l.25-.29s-.04.04-.07.07c.08-.1.15-.18.21-.24.16-.21-.04.02-.06.02l-.14.18c-.13.12,0-.06-.06,0l.14-.17-.09.09c.14-.16.22-.28.1-.14l.37-.4c-.08.11-.18.2-.32.37-.12.15-.07.11.07-.05.01-.02-.02.01-.08.07.2-.24.2-.22.33-.38-.01,0,.05-.07-.02,0,.1-.11.12-.12.14-.12-.08.09-.12.15-.18.21.18-.21.24-.26.2-.2-.19.25.15-.14.11-.06-.18.21-.33.37-.41.45-.08.11.01,0-.07.12.14-.15.34-.39.43-.48l-.13.16c.08-.07.27-.3.25-.25-.04.09-.02.11-.02.15l-.13.16c.29-.32.13-.1.27-.23-.11.17.17-.11-.05.17.14-.09.27-.18.26-.09l-.2.22c.15-.16-.11.13-.07.11.14-.19.21-.23.33-.36-.13.19.05.02.2-.13l-.13.16c.26-.28.06,0,.04.05-.05.07-.17.21-.15.2.22-.24.21-.22.36-.36.01,0-.02.09-.1.19.34-.32.19-.06.41-.23l-.15.18c.37-.35.12.04.32-.13l-.27.31c-.07.11.09-.06.28-.28-.07.1.16-.13-.05.13-.04.07.13-.13.18-.17-.08.14-.05.12.02.08v-.02c-.05.07-.16.2-.17.22.08-.08-.04.11.26-.27-.16.23.2-.13-.02.18.08-.1.11-.12.17-.18.02.01-.13.24.03.08-.04.05-.15.17-.15.19.04-.03.11-.13.17-.18.19-.16-.1.25-.03.23.22-.15.19,0,.27,0l-.06.07c.26-.27-.21.33.17-.09-.06.07-.01.05-.14.19.18-.19-.12.22.11-.02,0,0,0,0-.04.04-.12.18.09-.03-.02.14-.03.03-.05.05-.12.12-.11.15.28-.3-.01.06,0,0,.16-.18.14-.17-.07.18.17-.01.28-.05-.15.24-.51.61-.26.36-.06.07.12-.14.06-.06.09-.09-.32.42-.16.23.18-.22.11-.12.22-.25-.1.16-.26.36-.11.21l-.1.12c.3-.31.17-.12.51-.48.16.02.44-.11.58-.07.04.16.28.07.21.36-.23.33-.23.32-.09.22-.04.05-.05.06-.09.11.21-.25.04,0,.24-.25,0,.08.09.04.13.07-.03.02-.2.22-.18.21l.14-.15-.06.07s.15-.15.21-.24c.28-.13-.05.45.1.47-.07.12.05.05.12.02-.21.4-.37.72-.1.55,0,0-.56.64-.71.76Z"/>
          <path class="cls-2" d="M42.54,29.94c-.1.13-.15.2-.3.36.1-.12.21-.25.3-.36Z"/>
          <path class="cls-2" d="M41.67,31.42s-.04.05-.06.08c-.01,0-.1.11-.05.04.01,0,.06-.07.11-.12Z"/>
          <path class="cls-2" d="M41.67,31.55c-.1.11-.18.19-.2.2l.2-.2Z"/>
          <path class="cls-2" d="M41.34,32.05c-.07.1-.12.15-.12.14.05-.06.08-.09.12-.14Z"/>
          <path class="cls-2" d="M41.55,31.8s-.05.07-.1.13c.08-.1-.06.05.1-.13Z"/>
          <path class="cls-2" d="M41.4,32.23s.09-.09,0,.03c.07-.09-.13.13,0-.03Z"/>
          <path class="cls-2" d="M41.59,32.1s-.02.03,0,0c-.04.05-.11.13-.12.14l.12-.14Z"/>
          <polygon class="cls-2" points="42.96 32.49 42.91 32.54 43 32.43 42.96 32.49"/>
          <path class="cls-2" d="M43.4,32.85c.07-.07-.08.11-.1.13-.01,0,.12-.14.1-.13Z"/>
          <polygon class="cls-2" points="44.11 32.49 44.1 32.49 44.29 32.27 44.11 32.49"/>
        </g>
        <g>
          <path class="cls-2" d="M53.12,33.3c-.06-.03-.25-.06-.11-.04.11.03.2.06.11.04Z"/>
          <path class="cls-2" d="M52.01,36.75c-.73-.24.03-.09-.42-.27-.03-.01.4.11.31.07-.56-.2-.2-.18.26-.11l.11.03c.09.01-.29-.1-.23-.1.08.02.11.03.21.06-.23-.06-.1-.05-.27-.1.09.02.27.07.37.09l-.26-.08c-.61-.19.06-.03-.26-.14.06.02.11.03.17.05-.36-.14-.28-.17-.41-.25.09.03.26.07.36.1-.27-.08-.34-.11-.39-.13.28.07-.25-.09-.09-.06l.06.02c-.29-.09.17.03-.18-.07l.22.05c-.39-.11.21.04.01-.02l-.08-.02c-.09-.03.11.02.04,0h.05c-.1-.03.12.02-.19-.07.25.06.11.05.47.14-.3-.14-.23-.18-.22-.24.13.03.16.03.28.06-.06-.02-.05-.04-.21-.08,0,0,.16.04.18.04.12.02-.34-.1-.2-.08.08.03.18.06.3.09-.24-.07-.2-.08-.27-.11.05.02.08.03.18.05-.27-.09.06,0-.11-.06l.18.05c.22.04-.37-.11-.24-.09.06.02.13.04.2.06-.32-.1-.21-.1-.31-.14.02,0,.07.02.07.02-.04-.03.07-.01-.07-.07.08.02.44.12.37.09-.36-.1-.14-.07-.55-.17.06,0,.2.02.08-.02.13.04.44.11.47.13l.22.05c.15.04-.05,0,.13.04-.01,0-.15-.06-.09-.05-.22-.07-.62-.19-.66-.22.14.05.4.1.46.12l-.68-.21s.28.08.19.04c-.1-.03-.15-.04-.23-.07.04,0-.08-.05.27.05.14.04.07.03.2.06,0-.01-.12-.04-.12-.06h.05c.05.02-.14-.05-.34-.09-.01,0,.21.06.11.04-.2-.06-.26-.09-.26-.1.06.02.15.04.25.07-.27-.09-.36-.13-.47-.18-.17-.05.3.09.21.07.24.04-.32-.13.03-.06.03.01-.24-.06-.19-.05.02,0,.27.06.18.03.14.04-.04-.02-.08-.04-.1-.03.07.02.08.03-.12-.04-.33-.14-.11-.1-.09-.03-.34-.11-.33-.11l.22.06c.13.03-.01-.02.17.03-.27-.08.22.1.01.03.19.05-.35-.11-.05-.03,0-.01-.25-.09-.04-.04-.04,0,.3.09.29.08-.04-.02-.1-.03-.17-.06l-.09-.03c-.21-.06.03,0-.21-.06.18.05-.1-.05.25.05l.28.08s-.29-.09-.42-.13c.03,0,.08.02.13.03-.43-.12.04,0-.29-.1.15.03.02-.03.29.04-.13-.04-.28-.1-.18-.08.04.01.05.02.14.05.13.03.02,0-.05-.03.06.02.25.05.41.09-.13-.04-.36-.1-.5-.14.43.11-.27-.1.12,0,.06.02.2.07.31.09.43.11-.31-.1-.1-.06l-.35-.09c.22.05-.2-.08.16.02-.13-.04.12.01-.22-.08.3.06-.16-.1.46.05-.06-.02,0-.01-.17-.06-.19-.05.14.05,0,.01,0,0-.1-.03-.15-.05.08.01.11.02.39.1.22.04-.58-.17-.44-.16.14.04.2.05.18.04l-.24-.08c.06,0,.32.08.57.15-.04-.02-.03-.02-.2-.08l.3.07c-.22-.05-.14-.05-.2-.06l.06.02c.1.03.04,0,.01-.01-.15-.04-.21-.05-.26-.05-.1-.03-.08-.03-.2-.07.24.07.17.03.2.04.05,0-.21-.06-.2-.06.12.03.02,0,.19.05.04.01-.12-.03-.01,0,.09.02.31.08.15.03-.12-.04-.47-.12-.31-.1.06.02.15.05.24.07l.13.02-.21-.06c.05.01.07.02.1.03-.23-.06-.06-.04-.32-.11-.02-.01.15.03.18.03h.02c.13.03.05,0-.1-.04h.05s-.01,0-.14-.04c.16.03.81.22.54.13,0-.01-.39-.12-.53-.16.15.02-.2-.09.14-.02-.09-.03-.14-.04-.19-.06.09,0-.24-.12.19-.03.09.03.21.06.34.09-.19-.06.2.05-.13-.05-.19-.05-.29-.08-.37-.09-.1-.04-.09-.07.09-.03-.09-.02-.15-.04-.21-.06.31.09.36.09.25.05l-.19-.05.2.05c-.06-.02-.39-.11-.21-.07.07.02.15.04.2.05-.15-.05-.41-.13-.25-.1l.28.07s-.19-.06-.27-.08c.17.03.19.02.43.08-.57-.19-.59-.23-.53-.25l.14.04c.13.03-.25-.07-.15-.05.13.04.29.07.46.12.15.03-.24-.08-.3-.11-.19-.05.12.04-.12-.03-.07-.02.15.02-.13-.06.11.03.32.09.43.12l-.13-.04c.33.08.58.18.99.28l-.04-.02c.3.07.33.11.43.12-.14-.05-.54-.16-.67-.19-.07-.04-.67-.19-.64-.2.17.04.04.02.27.08.23.05-.12-.05-.04-.04-.11-.02-.39-.1-.44-.12.13.03.26.08.3.07-.16-.05-.28-.09-.4-.11-.37-.1.11.01-.18-.07.26.07.59.18.73.2-.25-.07-.33-.11-.71-.2.07.01.27.07.42.11.16.03-.45-.14.05-.01l-.25-.07c.08.02.15.03.29.07,0,0-.34-.12.05-.01-.04-.01-.02-.02-.29-.09-.16-.03.19.06-.17-.03.3.07-.03-.02-.13-.06l.15.04c-.06-.02-.02-.02-.18-.06.08.03.19.05.22.06l-.23-.06c-.11-.04.4.1.34.07l.17.06s.18.04.11.02c-.21-.06-.45-.13-.61-.18-.09-.03.23.06.02,0l.25.08c.07.02.34.09.34.08-.07-.03-.37-.12-.48-.14,0,0,.13.02.28.07-.07-.03-.22-.06-.35-.1.14.03.34.07.54.12l.34.1h0c.27.08.21.05.5.13.05,0-.05-.02-.13-.05-.47-.11-.63-.19-1.06-.3-.11-.05,1.04.27.38.07-.11-.03-.43-.12-.31-.08.05,0-.43-.12-.25-.09.17.06.44.11.68.19-.14-.04-.11-.02-.07,0,.16.04.43.12.43.11-.04-.02-.04-.03-.27-.09-.24-.07.02.02-.22-.05-.08-.04.29.06-.14-.06.03.02-.22-.05-.39-.09l-.1-.04.16.05c.12.02-.29-.08-.25-.09l.32.08c.27.08-.13-.01.32.11.02,0-.21-.07-.09-.05.04.01.05.02.09.03.02,0,.61.16.27.05-.13-.04-.16-.05-.33-.09-.05-.03-.22-.08-.24-.1.33.09.04-.01.37.09-.19-.05-.18-.02.13.07.39.1-.06,0,.33.11.01-.01.4.09.65.16.02,0-.09-.03-.13-.04-.24-.07-.23-.06-.48-.13.07,0-.06-.05-.29-.12.12.03.35.09.37.1-.06-.04-.03-.05.05-.04-.39-.09-.09-.04-.41-.12-.09-.01-.37-.08-.54-.13.03,0,.17.05.25.07-.21-.06.34.08.01-.02.12.05.47.13.77.22-.17-.06.21.06.22.05-.16-.06-.29-.11-.35-.14.29.06.02-.04,0-.06.15.03.49.13.56.14,0-.01-.37-.09-.21-.06l.07.02c-.08-.03.24.04-.25-.1l.37.11s-.05-.02-.09-.03c.12.03.23.06.31.08.26.06-.04-.03-.04-.04l-.22-.05c-.17-.06.05-.02-.02-.05l.21.06-.13-.04c.21.06.34.09.17.03l.52.17c-.13-.03-.26-.08-.47-.13-.18-.05-.13-.02.07.04.03,0-.02-.01-.1-.04.3.08.28.08.48.14-.01,0,.08.01-.01-.01.14.05.16.06.17.07-.11-.04-.19-.05-.27-.07.26.07.34.1.26.1-.31-.07.19.08.1.07-.26-.08-.47-.14-.58-.18-.14-.03,0,.01-.13-.02.2.06.5.14.62.19l-.2-.05c.1.04.39.12.33.11-.1,0-.11.02-.14.03l-.2-.05c.42.12.15.07.33.14-.19-.03.17.1-.17.02.14.08.28.15.19.17l-.28-.08c.21.06-.17-.04-.13-.02.23.05.29.09.47.14-.23-.04,0,.05.2.12l-.2-.05c.36.12.04.05-.03.05-.08-.02-.27-.07-.25-.05.31.1.29.1.48.17,0,.01-.09,0-.21-.01.43.16.14.13.39.25l-.23-.06c.48.18.02.11.26.22l-.39-.11c-.12-.02.1.05.38.13-.12-.02.18.08-.14,0-.08,0,.18.06.23.09-.16-.02-.12,0-.06.04h.03c-.09-.02-.25-.07-.28-.07.11.04-.11,0,.36.12-.28-.05.21.12-.17.04.13.03.15.05.24.07,0,.02-.27-.03-.05.05-.07-.01-.22-.06-.23-.06.05.02.17.05.24.07.23.1-.27,0-.21.05.23.12.09.15.12.21l-.09-.03c.35.12-.38-.06.16.1-.09-.02-.05,0-.23-.05.25.08-.25-.03.07.08,0,0,0,0-.05-.02-.21-.04.07.06-.13.03-.04-.01-.07-.03-.16-.05-.18-.04.39.13-.06,0,0,0,.23.07.21.06-.19,0,.09.13.18.21-.28-.04-.77-.21-.43-.09-.09-.02.17.05.08.02.12.05-.51-.12-.28-.05.28.07.15.05.32.09-.19-.03-.44-.09-.23-.02l-.15-.04c.41.13.18.1.65.24.06.14.29.31.32.44-.12.08.07.25-.22.29-.39-.08-.38-.07-.23,0-.06-.02-.08-.02-.13-.04.32.09.02.03.33.11-.07.02,0,.08,0,.13-.03-.02-.29-.09-.27-.08l.2.06-.09-.02s.2.07.3.09c.25.18-.42.11-.37.23-.14-.01-.03.06.03.1-.44-.04-.8-.06-.53.1,0,0-.81-.23-.99-.32Z"/>
          <path class="cls-2" d="M53.15,33.33c-.16-.04-.25-.05-.46-.12.15.04.32.08.46.12Z"/>
          <path class="cls-2" d="M51.46,33.13s-.07-.01-.09-.02c-.01,0-.14-.05-.06-.03.01,0,.09.03.15.05Z"/>
          <path class="cls-2" d="M51.35,33.16c-.14-.04-.25-.08-.26-.1l.26.1Z"/>
          <path class="cls-2" d="M50.75,33.06c-.12-.03-.19-.05-.18-.05.08.02.11.03.18.05Z"/>
          <path class="cls-2" d="M51.07,33.15s-.08-.01-.16-.03c.12.03-.07-.03.16.03Z"/>
          <path class="cls-2" d="M50.63,33.17s.13.04-.03,0c.11.03-.17-.06.03,0Z"/>
          <path class="cls-2" d="M50.82,33.28s-.04,0,0,0c-.07-.01-.17-.05-.18-.05l.18.05Z"/>
          <polygon class="cls-2" points="51.1 34.5 51.03 34.48 51.17 34.52 51.1 34.5"/>
          <path class="cls-2" d="M50.98,34.97c.09.03-.13-.03-.15-.04-.01,0,.17.05.15.04Z"/>
          <polygon class="cls-2" points="51.62 35.41 51.61 35.41 51.9 35.49 51.62 35.41"/>
        </g>
        <g>
          <path class="cls-2" d="M59.86,32.98c-.07.01-.24.09-.11.03.11-.04.2-.07.11-.03Z"/>
          <path class="cls-2" d="M61.96,36.43c-.64.42-.06-.1-.49.15-.03.01.34-.25.25-.2-.51.31-.27.03.06-.29l.1-.07c.06-.06-.26.16-.23.12.06-.05.09-.07.18-.13-.19.14-.1.05-.25.15.07-.06.22-.17.3-.24l-.22.15c-.53.36,0-.07-.28.1.05-.04.09-.06.14-.1-.34.19-.32.1-.46.15.08-.06.22-.16.3-.22-.23.16-.3.19-.35.22.23-.18-.23.14-.11.03l.05-.04c-.25.17.13-.12-.17.09l.18-.14c-.34.24.16-.14-.01-.02l-.07.05c-.09.05.08-.07.02-.04l.04-.03c-.1.05.08-.1-.18.09.2-.16.11-.05.4-.28-.31.14-.29.05-.34,0,.1-.08.13-.1.23-.18-.06.03-.06.01-.2.1,0,0,.13-.1.14-.11.09-.08-.29.19-.19.1.07-.05.16-.1.25-.17-.21.14-.19.1-.26.14.04-.03.07-.05.15-.1-.24.15.03-.06-.12.04l.15-.1c.17-.15-.32.22-.22.13.05-.03.11-.07.17-.12-.28.18-.21.1-.31.15.02-.01.06-.04.06-.04-.04,0,.03-.07-.1,0,.06-.05.37-.26.3-.24-.3.22-.14.06-.48.31.04-.05.14-.15.03-.09.12-.08.37-.27.4-.28l.18-.14c.12-.09-.04.04.12-.07-.02,0-.15.07-.1.03-.19.12-.55.36-.6.37.12-.08.33-.24.39-.27l-.6.39s.24-.17.15-.12c-.08.05-.13.09-.2.13.03-.03-.09.03.2-.18.12-.09.07-.04.17-.12-.01,0-.11.06-.12.06l.04-.03s-.14.07-.3.19c0,.01.18-.13.1-.06-.18.12-.23.14-.24.13.05-.03.13-.09.22-.14-.25.15-.33.19-.44.24-.14.1.26-.18.19-.12.18-.16-.31.15-.03-.06.03-.02-.2.14-.16.11.01-.02.22-.17.14-.12.12-.09-.04.02-.09.04-.09.06.06-.04.08-.05-.11.06-.32.16-.16.01-.08.06-.3.19-.3.18l.19-.13c.11-.08-.03,0,.13-.12-.24.15.22-.1.04.01.15-.11-.31.19-.05.01-.01,0-.23.13-.06,0-.03.02.27-.17.25-.17-.04,0-.09.06-.16.09l-.08.05c-.18.13.02-.03-.19.12.15-.11-.11.04.2-.16l.24-.16s-.26.16-.37.23c.02-.02.07-.05.11-.08-.37.25.02-.04-.27.15.12-.1-.01-.04.21-.2-.12.07-.26.15-.18.08.04-.02.05-.03.13-.08.1-.08,0-.02-.06.02.05-.04.21-.16.33-.26-.12.07-.31.2-.43.29.36-.26-.25.13.07-.1.05-.03.19-.11.27-.18.36-.26-.28.17-.12.03l-.3.21c.18-.13-.19.1.12-.11-.11.07.09-.08-.2.12.23-.19-.19.04.33-.33-.05.03,0-.01-.16.09-.16.12.12-.07.01,0-.01,0-.09.06-.13.08.06-.05.08-.07.33-.23.17-.14-.51.32-.41.22.12-.08.17-.11.14-.11l-.22.13s.27-.19.48-.33c-.04.02-.04,0-.19.1l.25-.18c-.18.13-.13.08-.18.11l.05-.03c.09-.06.03-.03,0-.02-.13.09-.17.13-.21.16-.1.05-.07.04-.19.1.2-.13.14-.11.15-.13.04-.04-.19.11-.18.11.11-.07.01-.02.16-.12.03-.02-.1.07,0,.02.08-.06.26-.18.12-.1-.11.06-.4.27-.28.17.05-.03.13-.08.21-.13l.1-.08-.19.12s.06-.04.09-.06c-.2.13-.07.02-.29.16-.02,0,.12-.1.14-.12h.02c.1-.09.03-.05-.1.03l.04-.03s-.02,0-.14.06c.13-.1.7-.47.46-.32-.01,0-.35.21-.47.29.11-.1-.2.08.07-.13-.08.05-.12.08-.17.1.06-.07-.26.09.09-.17.08-.04.19-.12.29-.19-.17.1.17-.12-.12.06-.17.11-.25.16-.31.22-.1.04-.12.02.03-.09-.08.06-.13.09-.18.11.27-.17.3-.21.2-.16l-.17.11.17-.12c-.05.03-.35.22-.19.11.06-.04.13-.08.17-.12-.14.08-.38.21-.24.11l.23-.16s-.18.1-.24.15c.13-.11.14-.13.35-.27-.53.29-.58.26-.56.2l.12-.08c.11-.08-.22.13-.14.07.12-.07.25-.17.4-.25.12-.1-.23.12-.29.14-.16.1.11-.06-.1.07-.06.03.11-.1-.13.05.1-.06.28-.17.38-.23l-.12.07c.28-.19.53-.3.88-.53l-.04.02c.25-.17.3-.16.38-.24-.13.07-.49.28-.59.36-.08.03-.59.36-.59.33.14-.1.04,0,.25-.14.19-.13-.12.05-.06,0-.09.07-.34.21-.39.24.11-.08.24-.14.25-.17-.14.09-.26.14-.35.21-.33.19.08-.07-.18.08.23-.14.54-.31.64-.39-.22.14-.31.16-.63.37.06-.05.23-.15.37-.23.13-.09-.42.22.02-.05l-.23.13c.07-.05.13-.08.24-.16,0,0-.32.16.02-.05-.04.02-.03,0-.26.14-.14.1.18-.09-.13.11.26-.17-.04,0-.13.05l.13-.08c-.05.03-.03,0-.17.08.08-.04.17-.1.2-.12l-.2.12c-.11.04.35-.22.28-.2l.16-.08s.15-.1.08-.07c-.19.11-.41.23-.55.32-.09.04.2-.13.01-.02l.23-.12c.06-.03.3-.19.29-.2-.07.03-.34.18-.43.25,0,0,.1-.08.24-.15-.07.02-.2.12-.32.17.12-.08.29-.19.46-.31l.32-.17h0c.25-.14.19-.13.45-.27.04-.03-.05.02-.13.05-.41.26-.58.32-.96.54-.12.04.92-.55.31-.23-.1.06-.4.22-.28.17.03-.04-.39.21-.24.1.16-.08.38-.24.62-.35-.13.07-.09.06-.05.05.14-.09.39-.22.38-.23-.04.01-.06,0-.25.12-.22.13.03,0-.19.12-.09.03.25-.17-.15.05.04,0-.19.13-.34.21l-.1.04.15-.08c.09-.08-.27.14-.24.1l.28-.17c.25-.13-.09.09.31-.14,0-.02-.2.09-.1.02.04-.02.05-.02.09-.04.01-.01.55-.32.22-.16-.13.06-.15.08-.3.16-.06,0-.22.08-.25.08.3-.16.01-.04.33-.19-.17.1-.14.12.15-.03.35-.2-.04.04.32-.15,0-.02.35-.21.57-.34.01-.01-.08.04-.12.05-.21.12-.21.12-.43.24.05-.05-.08,0-.3.1.1-.06.32-.18.34-.18-.08.01-.06-.03,0-.08-.35.2-.1.02-.38.18-.07.05-.32.2-.48.27.02-.02.15-.08.23-.12-.2.09.3-.18,0-.03.13-.04.43-.22.71-.36-.16.07.2-.1.19-.12-.16.07-.29.11-.36.12.25-.15-.02-.05-.04-.07.14-.08.46-.22.51-.26-.01,0-.34.17-.2.09l.06-.03c-.08.03.2-.13-.26.07l.35-.15s-.05.02-.09.03c.11-.05.22-.1.29-.13.24-.12-.05,0-.06-.01l-.2.1c-.17.05.03-.06-.05-.05l.21-.08-.13.04c.2-.07.33-.13.16-.08l.52-.17c-.12.05-.25.1-.45.18-.18.07-.11.07.09,0,.02-.02-.03,0-.1.03.29-.11.28-.11.47-.18-.01,0,.07-.04-.02,0,.14-.05.17-.06.17-.05-.11.05-.18.07-.26.11.25-.1.33-.13.26-.09-.28.14.19-.07.11-.02-.25.11-.45.2-.56.24-.12.07.01,0-.11.08.19-.08.48-.21.59-.26l-.18.09c.1-.03.37-.17.32-.13-.08.06-.07.08-.08.11l-.18.09c.39-.19.16-.04.33-.12-.16.11.19-.05-.11.13.16-.04.31-.08.26,0l-.26.14c.19-.1-.14.09-.1.07.2-.13.27-.14.43-.23-.19.13.04.03.23-.06l-.17.1c.34-.18.06,0,.02.06-.07.05-.23.15-.21.14.29-.16.27-.14.46-.23,0,.01-.05.07-.15.15.42-.2.19,0,.45-.11l-.2.13c.46-.23.1.07.34-.04l-.35.22c-.1.08.11-.03.35-.19-.1.08.18-.08-.09.11-.06.05.17-.09.22-.11-.12.11-.08.1,0,.08l.02-.02c-.08.05-.22.14-.24.16.1-.05-.07.09.33-.18-.22.18.23-.07-.08.16.11-.08.13-.08.21-.13.02.02-.19.19,0,.08-.05.04-.19.12-.2.14.04-.03.15-.09.21-.13.23-.11-.17.21-.1.2.25-.09.18.04.25.06l-.08.05c.32-.19-.29.25.18-.05-.07.06-.03.04-.18.14.23-.14-.18.18.11,0,0,0-.01,0-.05.03-.16.14.09,0-.06.12-.04.02-.06.04-.14.09-.15.11.35-.21-.03.06,0,0,.2-.13.18-.13-.12.15.16.03.28.01-.21.19-.65.45-.34.28-.07.05.15-.1.07-.05.11-.06-.42.32-.21.18.24-.17.14-.09.28-.19-.14.13-.35.28-.16.17l-.13.09c.37-.23.19-.07.61-.34.15.05.44,0,.56.07,0,.16.25.13.11.38-.31.26-.3.25-.15.19-.05.04-.06.05-.11.08.27-.19.04,0,.29-.18-.02.07.08.06.11.09-.03.01-.25.17-.23.16l.17-.12-.07.05s.18-.11.26-.18c.3-.07-.16.42-.02.46-.09.1.03.06.1.05-.3.33-.53.61-.23.5,0,0-.68.5-.86.59Z"/>
          <path class="cls-2" d="M59.9,32.98c-.15.06-.23.1-.44.17.14-.05.3-.12.44-.17Z"/>
          <path class="cls-2" d="M58.49,33.95s-.06.04-.08.05c-.01,0-.14.06-.06.02.01,0,.08-.04.14-.07Z"/>
          <path class="cls-2" d="M58.45,34.08c-.13.07-.24.1-.26.1l.26-.1Z"/>
          <path class="cls-2" d="M57.97,34.45c-.1.07-.16.1-.17.09.07-.04.1-.05.17-.09Z"/>
          <path class="cls-2" d="M58.26,34.29s-.07.05-.14.09c.11-.06-.08.02.14-.09Z"/>
          <path class="cls-2" d="M57.98,34.66s.12-.05-.02.03c.1-.06-.17.07.02-.03Z"/>
          <path class="cls-2" d="M58.22,34.63s-.03.02,0,0c-.05.04-.15.09-.16.09l.16-.1Z"/>
          <polygon class="cls-2" points="59.45 35.46 59.39 35.49 59.51 35.41 59.45 35.46"/>
          <path class="cls-2" d="M59.78,35.92c.08-.05-.11.08-.13.1-.02,0,.15-.1.13-.1Z"/>
          <polygon class="cls-2" points="60.55 35.75 60.55 35.75 60.79 35.58 60.55 35.75"/>
        </g>
      </g>
    </g>
  </g>
</svg>