<?xml version="1.0" encoding="UTF-8"?>
<svg xmlns="http://www.w3.org/2000/svg" viewBox="0 0 95 95">
  <defs>
    <style>
      .cls-1 {
        fill: #fff;
      }

      .cls-2 {
        fill: #ff5320;
      }

      .cls-3 {
        isolation: isolate;
      }

      .cls-4 {
        fill: #f7a397;
        font-family: Icebox-Magnet-Trial-90ms-RKSJ-H, 'Icebox Trial';
        font-size: 7.74px;
        mix-blend-mode: multiply;
        opacity: .49;
      }
    </style>
  </defs>
  <g class="cls-3">
    <g id="Layer_3" data-name="Layer 3">
      <text class="cls-4" transform="translate(-134.26 -112.56) rotate(20.77)"><tspan x="0" y="0" xml:space="preserve">YUM YUM YUM YUM YUM YUM YUM YUM YUM YUM  </tspan><tspan x="0" y="8" xml:space="preserve">YUM YUM YUM YUM YUM YUM YUM YUM YUM YUM  </tspan><tspan x="0" y="16" xml:space="preserve">YUM YUM YUM YUM YUM YUM YUM YUM YUM YUM  </tspan><tspan x="0" y="24" xml:space="preserve">YUM YUM YUM YUM YUM YUM YUM YUM YUM YUM  </tspan><tspan x="0" y="32" xml:space="preserve">YUM YUM YUM YUM YUM YUM YUM YUM YUM YUM  </tspan><tspan x="0" y="40" xml:space="preserve">YUM YUM YUM YUM YUM YUM YUM YUM YUM YUM  </tspan><tspan x="0" y="48" xml:space="preserve">YUM YUM YUM YUM YUM YUM YUM YUM YUM YUM  </tspan><tspan x="0" y="56">YUM YUM YUM YUM YUM YUM YUM YUM YUM YUM</tspan><tspan x="0" y="64" xml:space="preserve">YUM YUM YUM YUM YUM YUM YUM YUM YUM YUM  </tspan><tspan x="0" y="72" xml:space="preserve">YUM YUM YUM YUM YUM YUM YUM YUM YUM YUM  </tspan><tspan x="0" y="80" xml:space="preserve">YUM YUM YUM YUM YUM YUM YUM YUM YUM YUM  </tspan><tspan x="0" y="88" xml:space="preserve">YUM YUM YUM YUM YUM YUM YUM YUM YUM YUM  </tspan><tspan x="0" y="96" xml:space="preserve">YUM YUM YUM YUM YUM YUM YUM YUM YUM YUM  </tspan><tspan x="0" y="104" xml:space="preserve">YUM YUM YUM YUM YUM YUM YUM YUM YUM YUM  </tspan><tspan x="0" y="112" xml:space="preserve">YUM YUM YUM YUM YUM YUM YUM YUM YUM YUM  </tspan><tspan x="0" y="120">YUM YUM YUM YUM YUM YUM YUM YUM YUM YUM</tspan><tspan x="0" y="128" xml:space="preserve">YUM YUM YUM YUM YUM YUM YUM YUM YUM YUM  </tspan><tspan x="0" y="136" xml:space="preserve">YUM YUM YUM YUM YUM YUM YUM YUM YUM YUM  </tspan><tspan x="0" y="144" xml:space="preserve">YUM YUM YUM YUM YUM YUM YUM YUM YUM YUM  </tspan><tspan x="0" y="152" xml:space="preserve">YUM YUM YUM YUM YUM YUM YUM YUM YUM YUM  </tspan><tspan x="0" y="160" xml:space="preserve">YUM YUM YUM YUM YUM YUM YUM YUM YUM YUM  </tspan><tspan x="0" y="168" xml:space="preserve">YUM YUM YUM YUM YUM YUM YUM YUM YUM YUM  </tspan><tspan x="0" y="176" xml:space="preserve">YUM YUM YUM YUM YUM YUM YUM YUM YUM YUM  </tspan><tspan x="0" y="184" xml:space="preserve">YUM YUM YUM YUM YUM YUM YUM YUM YUM YUM   </tspan><tspan x="0" y="192" xml:space="preserve">   </tspan><tspan x="0" y="200" xml:space="preserve">   </tspan></text>
      <g>
        <g>
          <g>
            <path class="cls-1" d="M39.61,31.2l-19.33-3.69-.96,46.21h57.15v-28.21l-23.45-9.1"/>
            <g>
              <path class="cls-2" d="M39.1,31.65c.65.06-.29-.32.44-.03-.11.1-.25.16-.44.03Z"/>
              <path class="cls-2" d="M54.9,37.53c2.22.04,4.5,1.76,6.8,2.13.26.07-.22.36.38.49,2.28.25,5.4,1.84,7.75,3.24l-.19.05c.45.27,1.17.13,1.66.38-.02.07-.2.04-.12.19.21-.17.96.25,1.24.17.17.16.08.33.3.53l.39-.14c.52-.14,1,.06,1.51.31.54.26.94.51,1.62.6-.11.02-.25.02-.22.1.09.02.18.04.28.06.17.73.23,1.84.28,2.86.04,1.05.06,2.11.13,3.12-.09-.08-.27-.16-.38-.04.28.1.36.76.41,1.33-.29.26.27.97.11,1.64l-.06-.06c.3.49-.18.73.19,1.13l-.23.31c.41.22-.21.71,0,1.12h.08c.1.37-.11.57-.04.93l-.05.03c.11.83-.12,1.32.2,1.3-.26.29-.12-.81-.49-.35.33,2.74.27,5.57.27,8.33-.13.31-.17.51-.29.58.06.28.06,1.04.22,1.29,0-.09-.16.18-.18.32-.12.5.35.55.21,1.1-.09-.22-.19-.29-.31-.22.25.48.21,1.07.29,1.7-.05-.11-.09-.25-.19-.24.14.33.13.64.1.9-.03.27-.07.49.02.85l-.19-.36c-.07.19-.06.31-.02.42-.07.09.32.37-.32.27.15-.06.02-.13,0-.21-.43.34-1.88.23-2.49.34.04-.03.03-.08.03-.08-.75.04-1.54-.06-2.37.08-.3-.08.1-.45-.7-.38.03.37-1.35.15-.88.57-.68-.06-1.76-.2-2.21-.07.31-.14-.33-.45.23-.49l-.43-.22c.06-.15.44.05.3-.14-.28.01-1.11.16-1.36.1-.52.23-1.01.65-1.86.7.4-.14-.23-.41.04-.47l-1.19.71c-.28.02-.06-.29-.47-.2.02.1-.16.16-.28.24-.11-.04-1.18.09-1.3-.27-.12-.14.46-.08.15-.21-.52,0-.55.13-1.07.13v-.05c-.36-.05-1.03.16-.65.36.24.01-.09-.22.26-.11-.24.21-.85.27-1.37.28.18-.06.16-.16.23-.26-.7.29-1.45.38-2.23.5-.01.17.29-.32.41-.22-1.01-.24-2.07.34-2.91-.01.14-.03.07.25.06.2-.48-.02-.46-.27-.78-.18-.03-.15-.4.05-.72.09-.17.11-.08-.07.2-.09-.45.13-2.26.35-3.31.14.02.1-.64.36-.88.35l.09-.23c-.22-.14-.81.02-.85-.18-.51.28,1.98-.24,1.28-.02-.18-.19-.97.36-.82.05-.48,0-.95.27-1.41.05.13.04.39-.32,0-.3-.69.04-.2.11-.75.19l-.35.09c-.02.22-.61-.03-.36.22-.08-.18-1,.11-.93-.26l.1-.29c-.3.02-.49.31-.72.44-.04-.03-.12-.09-.1-.13-.05.44-.71-.04-1.06.31-.62-.15-1.58-.01-1.87-.29-.48.13-.91.3-1.46.2.11-.04.26-.05.29-.15-.34-.13-.43-.01-.74.06.07-.07-.68-.26-1.07-.42-.48.13-.31.37-.36.52-.43-.44-1.34.28-1.89-.12.16-.06.69-.22.3-.33-.43-.44-.88.32-1.58.11l.17.36c-.31-.23-1.03.21-.96-.16-.23.13-.83-.12-.75.24-1.15-.3-2.8.18-3.51-.46-.16.06-.58,0-.49.18.27.2.38-.14.48,0-.15.01-.18.11-.2.16-.36-.08-.64-.11-.3-.4-.8-.22-.82.6-1.83.47.05-.15-.03-.2-.33-.18l-.56.25c-.65-.06-.37-.33-.39-.58-.35.04-.78.03-.94.22l-.42-.31c.31.23-.29.15-.45.21l.16-.06c-.06-.1-.47-.04-.67,0,.05.15.46.22.69.26-.18.11-.46.08-.69.21.08-.24-.57-.17-.85-.2-.32-.05-.36.22-.45.21,0-.13-.52-.02-.27-.2.11-.04.25.12.43.01-.21-.09-.19-.32-.62-.15-.48.12.11.48-.84.33.27-.06.33-.16.53-.25l-.8-.13-.12.22c-.09-.06,0-.08-.05-.11-.36.23-1.35.07-1.78.34-.16,0-.31,0-.45-.03.06-.37.15-.76.17-1.06l.02.07c.14-.61.07-1.2-.07-1.62h.05c.02-.26,0-1.03-.12-1.18.18-.47.84-.14.57-.67,0-.48-.39-.76-.54-.57.17-.86-.17-1.85.19-2.65-.09-.13-.15-.05-.19-.31.11-1.27-.21-2.69.25-3.69.09.37.22.03.35.02-.19-.31.21-.36-.13-.48-.2.03-.3,0-.39.35-.09-.76-.07-1.91.13-2.33-.1.21-.16.04-.21-.12.32.06.38-.5.28-.92l-.19-.06.21-.27c-.06-.16-.41-.19-.21-.6.08-.02.15-.04.21-.12-.15-.44-.41-1.06-.23-1.53l.29-.38c-.03-.2-.19-.55-.28-.19.19-.81.22-1.33.47-1.58-.57-1.41-.55-3.43-.48-5.05l.15.05c.15-.43-.25-.23-.14-.53.14.14.31-.33.47.02.17-.62-.24-.81-.29-1.22-.19-.07.12.33-.13.24-.07-.07.17-.86-.12-.96.12-.15.33-.03.44.06l-.13-.38c.35-.46.58,1.07,1.01.59l-.04-.35c.31-.33.32.94.45.06-.14-.39-.55-.72-.69-.38-.06-.8-.69-.38-.64-1.24.18-.23.03.69.27.53.24-.4-.11-.81-.02-1.17-.12.4-.41.05-.45-.21.15-.43.27.29.31-.33-.17-.11-.28-.67-.41-.19-.38-.23.12-.64-.17-.98.27-.2.61.65.75-.03-.26.1-.33-.84-.72-.49.08-.26.28-.29.44-.09.17-.38-.45-.93.06-1.04l-.26-.14c.09-.12.16-.29.3-.48.01-.33-.33-1.08.06-1.05-.04-.11,0-.87-.29-.58-.18.47.19.55-.19.81.31-.33-.03-.68-.12-.96l.15-.04c-.06-.16-.02-.54-.18-.65.09.13.19.06.23-.07l-.23-.18c-.1-.67.42-.15.36-.79l.17.49c-.04-.11.19-.32.12-.63-.21-.12-.46-.36-.63-.46-.09-.37.24-.16.03-.52l.25.47c.07.07.36-.31.36-.8-.07-.31-.37-.8-.49-.31,0-.24.14-.58.29-.39-.06-.55-.23.07-.35-.41.15-.19.36-.79.58-1.16l.35.51v-.33c.29.43.23-.21.53.04.05-.22-.05-.5-.12-.72-.5.65-.65-.75-1.09-.57-.1-.91,1.09-.54.41-1.5-.12.15-.45-.3-.33.27.06-.56-.44-.39-.24-1.05.17.5.46-.52.71.2-.15-.05-.12.39-.08.5.17-.23.44.06.46-.52-.04-.35-.03-.83-.26-.77-.25,0,.02.54-.24.31-.02-.18,0-.31.01-.43.03-.17.05-.3.07-.42.03-.25.02-.4-.2-.71.02.75-.25.93-.42.91l-.08-1.01.16.24c.15-1.49-.29-.57-.22-2.14.11-.17.23-.32.34-.44.27.56-.17,2.05.3,2.02.04-.84-.19-1.33-.05-2.08.04.23.04.49.08.7.02-.28.49-.09.39-1,.1,0,.19-.01.3-.04.48-.05.03-.16-.11-.37,1.35.2,1.73.1,2.7.25-.16.32,1.64.35.61.5-.41-.28-2.58-.68-2.78-.38.55.41-.26.08-.71.05.01.2.06.41.16.59,0-.15.02-.27.04-.34.65.23.87.59,1.14.86.21.06.34-.03.45-.05-.04-.26-.33-.31-.51-.6.54.14,1.02.21,1.46.24.42.02.9.02,1.15-.05.22.16.11.39-.21.36.92.1,1.82.31,2.64.54-.46-.49.94.08.64-.31-.43-.17-.76-.52-.48-.65.27.08-.04.17.06.28.39-.15.48.45.9.18-.82-.03-.25.45-.45.73.61-.06-.07.21.5.32.61-.06,1.34-.06,1.99,0,.74.44,2.02.39,2.74.52.34.23.02.53.42.66.48.08-.28-.44.39-.15l-.08.06c.23-.04,1.25.48,1.55.02l-.29.34c.12.06.26,0,.38-.02-.02.12.11.26-.12.3.39.34.92.13,1.4.21l-.26-.28c.84-.02,1.34.3,2.14.38l-.06.21.49-.04c-.15.19.25.41.53.28l-1.31.3c-.31-.19.42-.19.25-.45-.14-.22-.88-.3-1.04-.11.27.08.3.03.53,0,.03.32-.38.23-.63.39.15.02.34.15.39.06-.31.09-.61.06-1.08-.02.34-.06-.14-.22,0-.28-.09.26-.56.25-1.13.07-.36-.39-1.14-.01-1.81-.23.33-.22.72-.37,1.16-.4-.4-.22-.48-.08-.88-.3-.25.16-.45.44-1.03.46v-.21c-.52,0-.57.3-1.21.12-1.08-.31-2.22-.52-3.05-.71v-.2c-.54.34-1.58-.14-2.25-.07-.52-.2-1.11-.26-1.63-.33-.6-.08-.78-.11-1.01-.33-.4-.03-.78-.05-1.15-.07.03.46.06.85.07,1.24v.29s0,.38,0,.38c-.01.32-.03.64-.04.98l-.29-.34c.21.36-.17.23-.14.58.24-.4.3.49.47.74-.25.88-.02,2.03.17,2.82l-.2.03c.36.8.01,1.75-.07,2.74-.09.11-.28.29-.26.58.32.54.29.83.48,1.62-.01.58-.11,1.51-.25,2.09.42,2.18.07,4.38.31,6.64l-.24.16c.46,2.19-.05,4.87.17,6.74l-.4-.19c-.14.58.08,1.33.37,1.19-.14.58.17,1.47-.18,1.83-.09.6.17.74.22,1.24-.18,1.2-.15,1.64-.1,2.77l.03-.28c-.09-.13-.26-.14-.29.14.1.42-.14,1.55.35,1.14-.31,1.2.17,2.82-.23,3.98.14-.1.15.2.24.33-.02,1.06-.31,2.17-.1,3.02-.07.17-.22-.27-.24.16.05.26.17,0,.24.32.02.27.04.23.05.28,0,.04.01.07,0,.11,0,.08-.04.17-.09.3.05.04.13.1.23.14.15.04.09.06.64.04,2.77-.26,5.66-.13,8.32-.17l-.03.1c.89-.37,2.09.38,2.8-.18.21.09.8.04.65.23.71-.26,1.98.25,3.01-.09-.09,0-.15.01-.26.05,1.03.22,1.95-.08,3.04.12-.11.04-.31.07-.34.17.42.19,1-.41,1.23.06.24,0,.17-.24.02-.22,2.39.18,4.94-.12,7.43-.22,1.78.28.11.79,1.52.44.11.09.08-.18.1-.08.54-.13.85.53,1.22.28-.16-.29.25-.16.26-.34,1.09.19,1.31.45,2.17.23l-.06.15c1.01-.43,2.18-.2,3.03-.7,5.56-.09,10.89-.37,16.31-.42.66,0,1.31.02,1.96.02.03,0,.05,0,.08,0v-.06s0,.03-.01-.07v-.74c0-.99,0-1.98-.01-2.97,0-1.98.04-3.97.13-5.99.4-1.28.39-1.37.23-2.77.06.06.08.14.14.05-.33-.07-.03-.99-.34-1.12.06-2.01-.03-3.87-.03-5.94.04.33.3.49.28.1l-.21-.41.09-.07c-.05-.27-.21-.56-.32-.28-.05-.98-.07-1.96-.07-2.94l.02-1.44s.03,0,.04-.02c.01-.01.02-.03.01-.05,0,0,0,0-.02-.02l-.27-.12-.55-.24-2.19-.97c-1.46-.64-2.92-1.25-4.4-1.8-1.08-.57-2.73-1.07-3.98-1.48-3.47-1.82-6.62-3.42-10.42-4.56,0,0,.79-.6,2.38-.19Z"/>
              <path class="cls-2" d="M38.32,31.54c-.11-.19-.53-.36-.14-.51.01.16.21.37.14.51Z"/>
              <path class="cls-2" d="M26.76,27.61s-.16-.1-.19-.13c.15.02.31-.09.41.01-.15-.02-.14.06-.22.12Z"/>
              <path class="cls-2" d="M23.74,26.93c.07-.14.74-.12,1.13-.07l-1.13.07Z"/>
              <path class="cls-2" d="M19.25,25.46c-.55-.23-.5-.29.14-.16.1.1-.08.1-.14.16Z"/>
              <path class="cls-2" d="M19.17,25.79c-.13-.02-.25-.06-.35-.09-.03.16-.09.23-.15.31.06.06.05-.21.05-.44.21.04.42.09.46.22Z"/>
              <path class="cls-2" d="M18.26,33.52c0,.15.12.48-.04.62.12-.15-.17-.74.04-.62Z"/>
              <path class="cls-2" d="M18.42,36.43c-.01.09-.04.13,0,.24-.07.17-.17-.01-.18-.16l.18-.08Z"/>
              <polygon class="cls-2" points="34.98 74.82 34.66 74.89 34.71 74.75 34.98 74.82"/>
              <path class="cls-2" d="M58.16,74.81c.31-.09.22.14.27.16-.28.01.1-.18-.27-.16Z"/>
              <polygon class="cls-2" points="70.67 74.08 70.57 74.09 70.61 73.79 70.67 74.08"/>
            </g>
          </g>
          <g>
            <path class="cls-2" d="M20.42,45.93c-.21.07.11.26-.13.11.03-.12.07-.21.13-.11Z"/>
            <path class="cls-2" d="M75.79,46.1c-.66.76-1.54,0-2.27.48-.09.03.02-.42-.17-.32-.7.59-1.82.24-2.67-.22l.05-.12c-.16-.09-.36.31-.54.25,0-.08.06-.11.02-.22-.04.24-.31.11-.39.29-.07-.09-.06-.28-.15-.38l-.1.27c-.28.64-.67-.05-1.05.29.02-.06.06-.11.03-.17-.6.39-1.36.32-2.04.46.03-.09.05-.27.01-.38-.03.28-.24.36-.42.41-.08-.29-.31.27-.52.11l.02-.06c-.16.3-.23-.18-.36.19l-.1-.23c-.07.41-.23-.21-.36,0v.08c-.12.1-.18-.11-.3-.04v-.05c-.28.11-.43-.12-.42.2-.09-.26.26-.12.11-.49-.87.33-1.77.27-2.65.27-.1-.13-.16-.17-.19-.29-.09.06-.33.06-.41.22.03,0-.06-.16-.1-.18-.16-.12-.17.35-.35.21.07-.09.09-.19.07-.31-.15.25-.35.21-.53.29.03-.05.07-.09.06-.19-.19.28-.35-.06-.52.12l.06-.19c-.27-.22-.08.39-.32.25.06-.06.04-.13.05-.21-.22.34-.58.23-.8.34.01-.03,0-.08,0-.08-.24.04-.49-.06-.75.08-.1-.08.03-.45-.22-.38,0,.37-.43.15-.28.57-.22-.06-.56-.2-.7-.07.1-.14-.11-.45.07-.49l-.14-.22c.02-.15.14.05.1-.14-.09.01-.35.16-.43.1-.17.23-.32.65-.59.7.13-.14-.07-.41.01-.47l-.38.71c-.09.02-.02-.29-.15-.2,0,.1-.05.16-.09.24-.03-.04-.37.09-.41-.27-.04-.14.15-.08.05-.21-.17,0-.17.13-.34.13v-.05c-.11-.05-.33.16-.21.36.08.01-.03-.22.08-.11-.08.21-.27.27-.44.28.06-.06.05-.16.07-.26-.22.29-.46.38-.71.5,0,.17.09-.32.13-.22-.32-.24-.66.34-.93-.01.04-.03.02.25.02.2-.15-.02-.15-.27-.25-.18,0-.15-.13.05-.23.09-.05.11-.03-.07.06-.09-.14.13-.72.35-1.05.14,0,.1-.2.36-.28.35l.03-.23c-.07-.14-.26.02-.27-.18-.16.28.63-.24.41-.02-.06-.19-.31.36-.26.05-.15,0-.3.27-.45.05.04.04.12-.32,0-.3-.22.04-.06.11-.24.19l-.11.09c0,.22-.2-.03-.11.22-.03-.18-.32.11-.3-.26l.03-.29c-.09.02-.15.31-.23.44-.01-.03-.04-.09-.03-.13-.02.44-.23-.04-.34.31-.2-.15-.5-.01-.6-.29-.15.13-.29.3-.47.2.03-.04.08-.05.09-.15-.11-.13-.14-.01-.24.06.02-.07-.22-.26-.34-.42-.15.13-.1.37-.11.52-.14-.44-.43.28-.6-.12.05-.06.22-.22.09-.33-.14-.44-.28.32-.5.11l.05.36c-.1-.23-.33.21-.31-.16-.07.13-.26-.12-.24.24-.37-.3-.89.18-1.12-.46-.05.06-.18,0-.16.18.09.2.12-.14.15,0-.05.01-.06.11-.06.16-.11-.08-.2-.11-.1-.4-.25-.22-.26.6-.58.47.01-.15,0-.2-.1-.18l-.18.25c-.21-.06-.12-.33-.12-.58-.11.04-.25.03-.3.22l-.14-.31c.1.23-.09.15-.14.21l.05-.06c-.02-.1-.15-.04-.21,0,.02.15.15.22.22.26-.06.11-.15.08-.22.21.02-.24-.18-.17-.27-.2-.1-.05-.11.22-.14.21,0-.13-.17-.02-.09-.2.03-.04.08.12.14.01-.07-.09-.06-.32-.2-.15-.1.12.03.48-.17.33.05-.06.06-.16.1-.25l-.19-.13v.22c-.03-.06-.02-.08-.03-.11-.06.23-.28.07-.33.34-.09.02-.2-.15-.29-.18l.02-.02c-.11-.13-.26-.04-.35.11v-.05c-.05-.02-.2.02-.27.15-.15-.17-.05-.84-.22-.56-.15,0-.24.41-.18.55-.28-.15-.59.21-.84-.13-.04.09-.01.15-.1.2-.4-.09-.85.26-1.18-.17.12-.09,0-.22,0-.35-.1.2-.12-.21-.15.14,0,.2,0,.3.11.38-.24.11-.61.11-.74-.08.07.09.02.15-.04.22.02-.32-.16-.37-.3-.26l-.02.2-.09-.2c-.05.06-.06.41-.19.22,0-.08-.01-.15-.04-.21-.14.16-.34.43-.49.27l-.12-.29c-.06.03-.17.2-.06.29-.26-.17-.42-.19-.51-.44-.44.6-1.09.63-1.61.58l.02-.15c-.14-.14-.07.26-.17.15.04-.14-.11-.3,0-.47-.2-.15-.26.25-.39.32-.02.19.1-.12.08.12-.02.07-.27-.15-.31.14-.05-.11-.01-.33.02-.45l-.12.14c-.15-.34.34-.61.18-1.03l-.11.05c-.11-.3.3-.34.02-.45-.12.14-.23.57-.12.69-.25.08-.12.69-.39.67-.07-.17.22-.04.17-.28-.13-.23-.26.13-.37.05.13.11.02.4-.06.46-.14-.14.09-.28-.11-.3-.03.17-.21.29-.06.41-.07.38-.2-.11-.31.19-.06-.27.2-.62-.01-.75.03.26-.27.35-.15.73-.08-.07-.09-.28-.03-.44-.12-.16-.29.47-.33-.04l-.04.26c-.04-.09-.09-.15-.15-.29-.11,0-.34.36-.33-.04-.03.04-.28.02-.18.3.15.17.17-.2.26.17-.11-.3-.22.04-.31.14v-.15c-.07.06-.19.03-.22.19.04-.09.02-.19-.02-.23l-.05.23c-.21.12-.05-.41-.26-.34l.16-.18s-.1-.18-.2-.11c-.04.21-.11.47-.14.64-.12.09-.05-.24-.17-.02l.15-.26c.02-.07-.1-.35-.26-.35-.1.07-.25.38-.1.5-.08,0-.19-.13-.12-.28-.18.07.02.23-.13.36-.06-.14-.26-.35-.37-.55l.16-.36h-.11c.14-.29-.07-.22,0-.52-.07-.05-.16.06-.23.13.21.48-.24.66-.17,1.1-.29.12-.18-1.07-.48-.38.05.11-.09.45.09.32-.18-.05-.12.44-.33.26.16-.18-.17-.45.06-.71-.02.15.13.11.16.07-.07-.17.02-.44-.17-.44-.11.04-.27.05-.24.28,0,.25.17-.03.1.23-.22.09-.26-.3-.35.15.14-.03.18.23.17.4l-.16.11.03-.17c-.26-.12-.08.3-.33.26l-.12-.33c.06-.29.37.13.33-.34-.17-.02-.22.22-.38.1.03-.04.08-.05.12-.09-.06-.02-.12-.63-.35-.27-.12.14-.03.17-.04.34-.27.05-.35.23-.52.26.04-.34-.3-.03-.11-.38.09.2.47.18.57-.14-.1-.4.21.06.27-.35-.21,0-.2-.41-.24-.67-.06-.02-.12.09-.15.13-.02.24.05.24.06.49-.24-.07-.47.07-.6.31-.08-.12-.05-.37.04-.39-.28.07-.59.04-.85-.03.17.4-.3.09-.18.43.14.09.27.37.19.55-.09-.03,0-.17-.03-.26-.11.22-.18-.35-.29,0,.26-.13.05-.49.1-.8-.19.18,0-.22-.18-.22-.19.17-.41.31-.62.38-.26-.3-.66,0-.89,0-.12-.16-.04-.51-.17-.57-.15,0,.11.38-.11.22l.02-.07c-.07.08-.42-.24-.49.27l.07-.38s-.08.05-.12.09c0-.12-.05-.24.02-.32-.14-.26-.3.04-.45.05l.1.23c-.26.18-.44-.05-.69.03v-.22s-.14.13-.14.13c.04-.21-.1-.35-.18-.17l.39-.54c.11.13-.12.27-.05.49.06.19.29.13.33-.08-.09-.02-.09.02-.16.1-.03-.31.11-.3.17-.5-.05.01-.11-.08-.12.02.09-.15.19-.17.34-.18-.1.12.06.19.02.28.01-.27.16-.36.35-.28.14.31.36-.2.58-.12-.09.28-.2.5-.34.61.14.14.15,0,.29.13.07-.21.11-.52.3-.64v.2c.17-.1.17-.4.38-.35.36.1.72.1,1,.13v.2c.16-.43.52-.16.72-.35.35.2.75-.19.93.16.61-.16,1.15-.31,1.78-.23l-.11.3c.11-.22.07.17.19.13-.13-.24.15-.31.23-.49.28.23.65-.02.9-.23v.2c.26-.38.57-.05.88.02.04.08.09.27.19.25.17-.33.26-.3.51-.51.18,0,.48.08.67.21.69-.46,1.39-.17,2.11-.44l.05.24c.7-.51,1.55-.05,2.14-.31l-.06.41c.19.13.42-.11.38-.4.19.12.47-.2.58.14.19.08.23-.19.39-.24.38.15.52.12.88.04l-.09-.03c-.04.09-.04.26.05.29.13-.11.49.11.36-.38.38.28.9-.23,1.27.15-.03-.13.06-.16.1-.25.34,0,.69.26.96.04.05.07-.09.23.05.24.08-.05,0-.17.1-.25.55-.25,1.11.26,1.6.19.88-.26,1.8-.13,2.65-.17v.1c.27-.37.66.38.88-.18.07.09.26.04.21.23.23-.26.63.25.96-.09-.03,0-.05.01-.08.05.33.22.62-.08.97.12-.04.04-.1.07-.11.17.13.19.32-.41.39.06.08,0,.05-.24,0-.22.76.18,1.57-.12,2.37-.22.57.28.03.79.48.44.04.09.03-.18.03-.08.17-.13.27.53.39.28-.05-.29.08-.16.08-.34.35.19.42.45.69.23l-.02.15c.32-.43.69-.2.96-.7,1.77-.09,3.47-.37,5.2-.42,1.71.09,3.38-.13,5.11.13.41.4.44.39.88.23-.02.06-.05.08-.02.14.02-.33.31-.03.36-.34.64.06,1.23-.03,1.89-.03-.1.04-.16.3-.03.28l.13-.21.02.09c.08-.05.18-.21.09-.32,1.66-.28,3.29.37,4.91.29.39.14.93.01,1.35-.06,1.24.44,2.36.79,3.62.48,0,0-.16.85-.68,1.04Z"/>
            <path class="cls-2" d="M20.67,45.9c.04.16.19.25.07.47-.01-.15-.09-.33-.07-.47Z"/>
            <path class="cls-2" d="M24.52,47.58s.05.07.07.09c-.05.01-.09.15-.13.06.05-.01.04-.09.06-.16Z"/>
            <path class="cls-2" d="M25.51,47.68c-.01.15-.23.26-.35.28l.35-.28Z"/>
            <path class="cls-2" d="M26.42,48.28c.08.12.06.19-.05.19,0-.08.03-.12.05-.19Z"/>
            <path class="cls-2" d="M26.49,47.95c.08,0,.11.08.15.17,0-.12-.18.08-.15-.17Z"/>
            <path class="cls-2" d="M28.48,48.38s.15-.13.2.03c-.05-.11-.23.19-.2-.03Z"/>
            <path class="cls-2" d="M29.41,48.16s.04.04.08,0c.05.07,0,.17-.05.19l-.03-.18Z"/>
            <polygon class="cls-2" points="46.26 47.57 46.16 47.64 46.18 47.5 46.26 47.57"/>
            <path class="cls-2" d="M53.65,47.56c.1-.09.07.14.09.16-.09.01.03-.18-.09-.16Z"/>
            <polygon class="cls-2" points="57.63 46.83 57.6 46.84 57.61 46.54 57.63 46.83"/>
          </g>
          <g>
            <path class="cls-2" d="M18.67,64.37c-.21.07.11.26-.14.11.03-.12.07-.21.14-.11Z"/>
            <path class="cls-2" d="M75.19,64.54c-.68.76-1.57,0-2.31.48-.09.03.02-.42-.17-.32-.72.59-1.85.24-2.73-.22l.05-.12c-.17-.09-.37.31-.55.25,0-.08.06-.11.02-.22-.04.24-.32.11-.39.29-.07-.09-.06-.28-.15-.38l-.1.27c-.28.64-.68-.05-1.07.29.02-.06.06-.11.03-.17-.62.39-1.39.32-2.08.46.03-.09.05-.27.01-.38-.03.28-.25.36-.43.41-.08-.29-.32.27-.53.11l.02-.06c-.16.3-.24-.18-.37.19l-.1-.23c-.07.41-.23-.21-.36,0v.08c-.12.1-.19-.11-.3-.04v-.05c-.28.11-.44-.12-.43.2-.1-.26.26-.12.11-.49-.89.33-1.81.27-2.71.27-.1-.13-.17-.17-.19-.29-.09.06-.34.06-.42.22.03,0-.06-.16-.11-.18-.16-.12-.18.35-.36.21.07-.09.1-.19.07-.31-.15.25-.36.21-.54.29.03-.05.07-.09.06-.19-.2.28-.36-.06-.53.12l.06-.19c-.28-.22-.08.39-.32.25.06-.06.04-.13.05-.21-.23.34-.59.23-.81.34.01-.03,0-.08,0-.08-.24.04-.5-.06-.77.08-.1-.08.03-.45-.23-.38,0,.37-.44.15-.29.57-.22-.06-.57-.2-.72-.07.1-.14-.11-.45.08-.49l-.14-.22c.02-.15.14.05.1-.14-.09.01-.36.16-.44.1-.17.23-.33.65-.6.7.13-.14-.07-.41.01-.47l-.39.71c-.09.02-.02-.29-.15-.2,0,.1-.05.16-.09.24-.03-.04-.38.09-.42-.27-.04-.14.15-.08.05-.21-.17,0-.18.13-.35.13v-.05c-.12-.05-.33.16-.21.36.08.01-.03-.22.09-.11-.08.21-.28.27-.45.28.06-.06.05-.16.07-.26-.23.29-.47.38-.73.5,0,.17.1-.32.13-.22-.33-.24-.67.34-.95-.01.04-.03.02.25.02.2-.16-.02-.15-.27-.25-.18-.01-.15-.13.05-.23.09-.05.11-.03-.07.06-.09-.15.13-.74.35-1.08.14,0,.1-.21.36-.29.35l.03-.23c-.07-.14-.26.02-.27-.18-.17.28.64-.24.42-.02-.06-.19-.31.36-.27.05-.16,0-.31.27-.46.05.04.04.13-.32,0-.3-.22.04-.06.11-.24.19l-.11.09c0,.22-.2-.03-.12.22-.03-.18-.32.11-.3-.26l.03-.29c-.1.02-.16.31-.23.44-.01-.03-.04-.09-.03-.13-.02.44-.23-.04-.34.31-.2-.15-.51-.01-.61-.29-.16.13-.3.3-.47.2.04-.04.08-.05.09-.15-.11-.13-.14-.01-.24.06.02-.07-.22-.26-.35-.42-.15.13-.1.37-.12.52-.14-.44-.44.28-.61-.12.05-.06.23-.22.1-.33-.14-.44-.28.32-.51.11l.06.36c-.1-.23-.34.21-.31-.16-.08.13-.27-.12-.24.24-.37-.3-.91.18-1.14-.46-.05.06-.19,0-.16.18.09.2.12-.14.16,0-.05.01-.06.11-.06.16-.12-.08-.21-.11-.1-.4-.26-.22-.27.6-.6.47.01-.15-.01-.2-.11-.18l-.18.25c-.21-.06-.12-.33-.13-.58-.11.04-.25.03-.3.22l-.14-.31c.1.23-.09.15-.15.21l.05-.06c-.02-.11-.15-.04-.22,0,.02.15.15.22.22.26-.06.11-.15.08-.23.21.03-.24-.19-.17-.28-.2-.1-.05-.12.22-.15.21,0-.13-.17-.02-.09-.2.04-.04.08.12.14.01-.07-.09-.06-.32-.2-.15-.11.12.03.48-.18.33.05-.06.06-.16.1-.25l-.19-.13v.22c-.03-.06-.02-.08-.03-.11-.06.23-.29.07-.33.34-.1.02-.2-.15-.29-.18l.02-.02c-.11-.13-.26-.04-.35.11v-.05c-.06-.02-.2.02-.28.15-.15-.17-.05-.84-.22-.56-.16,0-.25.41-.18.55-.28-.15-.6.21-.86-.13-.04.09-.01.15-.1.2-.41-.09-.87.26-1.2-.17.12-.09,0-.22,0-.35-.1.2-.12-.21-.15.13,0,.2,0,.3.12.38-.25.11-.62.11-.76-.08.07.09.02.15-.04.22.02-.32-.16-.37-.3-.26l-.02.2-.09-.2c-.05.06-.06.41-.19.22,0-.08-.01-.15-.04-.21-.14.16-.34.43-.5.27l-.13-.29c-.07.03-.18.2-.06.29-.26-.17-.43-.19-.52-.44-.45.6-1.11.63-1.64.58l.02-.15c-.14-.14-.07.26-.17.15.05-.14-.11-.3,0-.47-.2-.15-.26.25-.39.32-.02.19.11-.12.08.12-.02.07-.28-.15-.31.14-.05-.11-.01-.33.02-.45l-.12.14c-.15-.34.35-.61.19-1.03l-.11.05c-.11-.3.3-.34.02-.45-.12.14-.23.57-.12.69-.26.08-.12.69-.4.67-.08-.17.22-.04.17-.28-.13-.23-.26.13-.38.05.13.11.02.4-.06.46-.14-.14.09-.28-.11-.3-.03.17-.22.29-.06.41-.07.38-.21-.11-.32.19-.07-.27.21-.62-.01-.75.03.26-.27.35-.16.73-.09-.07-.1-.28-.03-.44-.12-.16-.3.47-.34-.04l-.04.26c-.04-.09-.09-.15-.16-.29-.11,0-.35.36-.34-.04-.03.04-.28.02-.19.3.15.17.18-.2.26.17-.11-.3-.22.04-.31.14v-.15c-.07.06-.19.03-.22.19.04-.09.02-.19-.02-.23l-.06.23c-.22.12-.05-.41-.26-.34l.16-.18s-.11-.18-.21-.11c-.04.21-.11.47-.15.64-.12.09-.05-.24-.17-.02l.15-.26c.02-.07-.1-.35-.26-.35-.1.07-.26.38-.1.5-.08,0-.19-.13-.13-.28-.18.07.02.23-.13.36-.06-.14-.26-.35-.38-.55l.16-.36h-.11c.14-.29-.07-.22,0-.52-.07-.05-.16.06-.23.13.21.48-.24.66-.18,1.1-.29.12-.18-1.07-.49-.38.05.12-.09.45.09.32-.18-.05-.12.44-.34.26.16-.18-.17-.45.06-.71-.02.15.13.11.16.07-.08-.17.02-.44-.17-.44-.11.04-.27.05-.25.28,0,.25.17-.03.1.23-.23.09-.27-.3-.36.15.14-.03.18.23.18.4l-.17.11.03-.17c-.27-.12-.08.3-.34.26l-.12-.33c.06-.29.38.13.33-.34-.17-.02-.23.22-.38.1.04-.04.08-.05.12-.09-.06-.02-.12-.63-.36-.27-.12.14-.03.17-.04.34-.27.05-.35.23-.53.26.04-.34-.31-.03-.12-.38.09.2.48.18.58-.14-.1-.4.21.06.27-.35-.22,0-.21-.41-.24-.67-.06-.02-.12.09-.15.13-.03.24.05.24.06.49-.24-.07-.48.07-.61.31-.08-.12-.06-.37.04-.39-.29.07-.6.04-.87-.03.18.4-.31.09-.19.43.15.09.27.37.19.55-.09-.03,0-.17-.04-.26-.12.22-.18-.35-.3,0,.26-.13.05-.49.1-.8-.19.18,0-.22-.18-.22-.19.17-.42.31-.63.38-.26-.3-.67,0-.91,0-.12-.16-.04-.51-.17-.57-.16,0,.12.38-.12.22l.02-.07c-.07.08-.43-.24-.5.27l.07-.38s-.08.05-.12.09c0-.12-.05-.24.02-.32-.14-.26-.3.04-.46.05l.1.23c-.27.18-.45-.05-.71.03v-.22s-.15.13-.15.13c.04-.21-.1-.35-.19-.17l.4-.54c.11.13-.12.27-.05.49.06.19.3.13.34-.08-.09-.02-.1.02-.17.1-.03-.31.11-.3.18-.5-.05.01-.12-.08-.13.02.09-.15.19-.17.35-.18-.11.12.06.19.02.28.01-.27.16-.36.36-.28.14.31.37-.2.59-.12-.09.28-.21.5-.35.61.14.14.16,0,.3.13.07-.21.12-.52.3-.64v.2c.18-.1.18-.4.39-.35.36.1.74.1,1.02.13v.2c.17-.43.53-.16.74-.35.35.2.77-.19.95.16.63-.16,1.17-.31,1.82-.23l-.11.3c.12-.22.08.17.19.13-.13-.24.16-.31.24-.49.29.23.66-.02.92-.23v.2c.27-.38.58-.05.9.02.04.08.1.27.19.25.17-.33.27-.3.52-.51.19,0,.49.08.68.21.7-.46,1.42-.17,2.16-.44l.05.24c.71-.51,1.58-.05,2.19-.31l-.06.41c.19.13.43-.11.38-.4.19.12.48-.2.6.14.19.08.24-.19.4-.24.39.15.53.12.9.04l-.09-.03c-.04.09-.04.26.05.29.14-.11.5.11.37-.38.39.28.92-.23,1.3.15-.03-.13.06-.16.1-.25.34,0,.71.27.98.04.05.07-.09.23.05.24.08-.05,0-.17.1-.25.56-.25,1.13.26,1.64.19.9-.26,1.84-.13,2.71-.17v.1c.28-.37.67.38.9-.18.07.09.26.04.21.23.23-.26.65.25.98-.09-.03,0-.05.01-.08.05.34.22.63-.08.99.12-.04.04-.1.07-.11.17.14.19.32-.41.4.06.08,0,.06-.24,0-.22.78.18,1.61-.12,2.42-.22.58.28.04.79.49.44.04.09.03-.18.03-.08.18-.13.28.53.4.28-.05-.29.08-.16.09-.34.35.19.43.45.71.23l-.02.15c.33-.43.71-.2.98-.7,1.81-.09,3.54-.37,5.3-.42,1.74.09,3.45-.13,5.22.13.41.4.45.39.9.23-.02.06-.05.08-.02.14.02-.33.32-.03.36-.34.65.06,1.26-.03,1.93-.03-.11.04-.16.3-.03.28l.13-.21.02.09c.09-.05.18-.21.09-.32,1.69-.28,3.35.37,5.01.29.39.14.95.01,1.38-.06,1.27.44,2.41.79,3.69.48,0,0-.17.85-.7,1.04Z"/>
            <path class="cls-2" d="M18.92,64.34c.05.16.19.25.07.47-.01-.15-.09-.33-.07-.47Z"/>
            <path class="cls-2" d="M22.85,66.03s.06.07.07.09c-.05.01-.09.15-.13.06.05-.01.04-.09.06-.16Z"/>
            <path class="cls-2" d="M23.86,66.13c-.02.15-.23.26-.36.28l.36-.28Z"/>
            <path class="cls-2" d="M24.79,66.73c.08.12.06.19-.05.19,0-.08.03-.12.05-.19Z"/>
            <path class="cls-2" d="M24.86,66.39c.08,0,.12.08.15.17,0-.12-.18.08-.15-.17Z"/>
            <path class="cls-2" d="M26.89,66.82s.15-.13.2.03c-.05-.11-.24.19-.2-.03Z"/>
            <path class="cls-2" d="M27.84,66.6s.04.04.08,0c.06.07,0,.17-.05.19l-.03-.18Z"/>
            <polygon class="cls-2" points="45.05 66.01 44.94 66.08 44.96 65.94 45.05 66.01"/>
            <path class="cls-2" d="M52.59,66c.1-.09.07.14.09.16-.09.01.03-.18-.09-.16Z"/>
            <polygon class="cls-2" points="56.65 65.28 56.62 65.28 56.63 64.98 56.65 65.28"/>
          </g>
          <g>
            <line class="cls-1" x1="76.47" y1="55.72" x2="19.32" y2="55.72"/>
            <g>
              <path class="cls-2" d="M76.34,56.26c.21-.07-.11-.26.14-.11-.03.12-.07.21-.14.11Z"/>
              <path class="cls-2" d="M20.02,56.1c.68-.76,1.56,0,2.3-.48.09-.03-.02.42.17.32.72-.59,1.85-.24,2.72.22l-.05.12c.17.09.37-.31.55-.25,0,.08-.06.11-.02.22.04-.24.32-.11.39-.29.07.09.06.28.15.38l.1-.27c.28-.64.68.05,1.06-.29-.02.06-.06.11-.03.17.61-.39,1.38-.32,2.07-.46-.03.1-.05.27-.01.38.03-.28.25-.36.43-.41.08.29.32-.27.53-.11l-.02.06c.16-.3.24.18.37-.19l.1.23c.07-.41.23.21.36,0v-.08c.12-.1.18.11.3.04v.05c.28-.11.44.12.43-.2.09.26-.26.12-.11.49.89-.33,1.8-.27,2.7-.27.1.13.17.17.19.29.09-.06.34-.06.42-.22-.03,0,.06.16.1.18.16.12.18-.35.36-.21-.07.09-.1.19-.07.31.15-.25.36-.21.54-.29-.03.05-.07.09-.06.19.2-.28.36.06.53-.12l-.06.19c.28.22.08-.39.32-.25-.06.06-.04.13-.05.21.22-.34.59-.23.81-.34-.01.03,0,.08,0,.08.24-.04.5.06.77-.08.1.08-.03.45.23.38,0-.37.44-.15.29-.57.22.06.57.2.72.07-.1.14.11.45-.08.49l.14.22c-.02.15-.14-.05-.1.14.09-.01.36-.16.44-.1.17-.23.33-.65.6-.7-.13.14.07.41-.01.47l.38-.71c.09-.02.02.29.15.2,0-.1.05-.16.09-.24.03.04.38-.09.42.27.04.14-.15.08-.05.21.17,0,.18-.13.35-.13v.05c.11.05.33-.16.21-.36-.08-.01.03.22-.09.11.08-.21.28-.27.44-.28-.06.06-.05.16-.07.26.23-.29.47-.38.72-.5,0-.17-.09.32-.13.22.33.24.67-.34.94.01-.04.03-.02-.25-.02-.2.16.02.15.27.25.18.01.15.13-.05.23-.09.05-.11.03.07-.06.09.15-.13.73-.35,1.07-.14,0-.1.21-.36.29-.35l-.03.23c.07.14.26-.02.27.18.17-.28-.64.24-.42.02.06.19.31-.36.26-.05.16,0,.31-.27.46-.05-.04-.04-.13.32,0,.3.22-.04.06-.11.24-.19l.11-.09c0-.22.2.03.12-.22.03.18.32-.11.3.26l-.03.29c.1-.02.16-.31.23-.44.01.03.04.09.03.13.02-.44.23.04.34-.31.2.15.51.01.61.29.15-.13.3-.3.47-.2-.04.04-.08.05-.09.15.11.13.14.01.24-.06-.02.07.22.26.35.42.15-.13.1-.37.12-.52.14.44.43-.28.61.12-.05.06-.22.22-.1.33.14.44.28-.32.51-.11l-.06-.36c.1.23.33-.21.31.16.08-.13.27.12.24-.24.37.3.91-.18,1.14.46.05-.06.19,0,.16-.18-.09-.2-.12.14-.16,0,.05-.01.06-.11.06-.16.12.08.21.11.1.4.26.22.27-.6.59-.47-.01.15.01.2.11.18l.18-.25c.21.06.12.33.13.58.11-.04.25-.03.3-.22l.14.31c-.1-.23.09-.15.15-.21l-.05.06c.02.1.15.04.22,0-.02-.15-.15-.22-.22-.26.06-.11.15-.08.22-.21-.03.24.18.17.27.2.1.05.12-.22.15-.21,0,.13.17.02.09.2-.04.04-.08-.12-.14-.01.07.09.06.32.2.15.11-.12-.03-.48.17-.33-.05.06-.06.16-.1.25l.19.13v-.22c.03.06.02.08.03.11.06-.23.29-.07.33-.34.1-.02.2.15.29.18l-.02.02c.11.13.26.04.35-.11v.05c.06.02.2-.02.28-.15.15.17.05.84.22.56.16,0,.24-.41.18-.55.28.15.6-.21.86.13.04-.09.01-.15.1-.2.41.09.87-.26,1.2.17-.12.09,0,.22,0,.35.1-.2.12.21.15-.14,0-.2,0-.3-.12-.38.25-.11.62-.11.76.08-.07-.09-.02-.15.04-.22-.02.32.16.37.3.26l.02-.2.09.2c.05-.06.06-.41.19-.22,0,.08.01.15.04.21.14-.16.34-.43.5-.27l.13.29c.07-.03.18-.2.06-.29.26.17.43.19.51.44.45-.6,1.11-.63,1.63-.58l-.02.15c.14.14.07-.26.17-.15-.05.14.11.3,0,.47.2.15.26-.25.39-.32.02-.19-.11.12-.08-.12.02-.07.28.15.31-.14.05.11.01.33-.02.45l.12-.14c.15.34-.34.61-.19,1.03l.11-.05c.11.3-.3.34-.02.45.12-.14.23-.57.12-.69.26-.08.12-.69.4-.67.08.17-.22.04-.17.28.13.23.26-.13.38-.05-.13-.11-.02-.4.06-.46.14.14-.09.28.11.3.03-.17.22-.29.06-.41.07-.38.21.11.32-.19.07.27-.21.62.01.75-.03-.26.27-.35.15-.73.09.07.1.28.03.44.12.16.3-.47.34.04l.04-.26c.04.09.09.15.16.29.11,0,.35-.36.34.04.03-.04.28-.02.19-.3-.15-.17-.18.2-.26-.17.11.3.22-.04.31-.14v.15c.07-.06.19-.03.22-.19-.04.09-.02.19.02.23l.06-.23c.22-.12.05.41.26.34l-.16.18s.11.18.21.11c.04-.21.11-.47.15-.64.12-.09.05.24.17.02l-.15.26c-.02.07.1.35.26.35.1-.07.26-.38.1-.5.08,0,.19.13.13.28.18-.07-.02-.23.13-.36.06.14.26.35.38.55l-.16.36h.11c-.14.29.07.22,0,.52.07.05.16-.06.23-.13-.21-.48.24-.66.18-1.1.29-.12.18,1.07.49.38-.05-.11.09-.45-.09-.32.18.05.12-.44.34-.26-.16.18.17.45-.06.71.02-.15-.13-.11-.16-.07.08.17-.02.44.17.44.11-.04.27-.05.25-.28,0-.25-.17.03-.1-.23.23-.09.26.3.36-.15-.14.03-.18-.23-.18-.4l.17-.11-.03.17c.27.12.08-.3.34-.26l.12.33c-.06.29-.38-.13-.33.34.17.02.22-.22.38-.1-.04.04-.08.05-.12.09.06.02.12.63.36.27.12-.14.03-.17.04-.34.27-.05.35-.23.53-.26-.04.34.31.03.12.38-.09-.2-.48-.18-.58.14.1.4-.21-.06-.27.35.22,0,.21.41.24.67.06.02.12-.09.15-.13.03-.24-.05-.24-.06-.49.24.07.47-.07.61-.31.08.12.06.37-.04.39.29-.07.6-.04.87.03-.18-.4.3-.09.18-.43-.15-.09-.27-.37-.19-.55.09.03,0,.17.04.26.12-.22.18.35.3,0-.26.13-.05.49-.1.8.19-.18,0,.22.18.22.19-.17.42-.31.63-.38.26.3.67,0,.9,0,.12.16.04.51.17.57.16,0-.12-.38.12-.22l-.02.07c.07-.08.43.24.49-.27l-.07.38s.08-.05.12-.09c0,.12.05.24-.02.32.14.26.3-.04.46-.05l-.1-.23c.27-.18.45.05.7-.03v.22s.15-.13.15-.13c-.04.21.1.35.18.17l-.4.54c-.11-.13.12-.27.05-.49-.06-.19-.3-.13-.34.08.09.02.1-.02.17-.1.03.31-.11.3-.18.5.05-.01.12.08.13-.02-.09.15-.19.17-.35.18.11-.12-.06-.19-.02-.28-.01.27-.16.36-.36.28-.14-.31-.36.2-.59.12.09-.28.21-.5.34-.61-.14-.14-.16,0-.3-.13-.07.21-.12.52-.3.64v-.2c-.18.1-.18.4-.39.35-.36-.1-.74-.1-1.01-.13v-.2c-.16.43-.52.16-.73.35-.35-.2-.77.19-.95-.16-.62.16-1.17.31-1.82.23l.11-.3c-.12.22-.08-.17-.19-.13.13.24-.16.31-.24.49-.29-.23-.66.02-.91.23v-.2c-.27.38-.58.05-.9-.02-.04-.08-.1-.27-.19-.25-.17.33-.27.3-.52.51-.19,0-.49-.08-.68-.21-.7.46-1.42.17-2.15.44l-.05-.24c-.71.51-1.58.05-2.18.31l.06-.41c-.19-.13-.43.11-.38.4-.19-.12-.47.2-.59-.14-.19-.08-.24.19-.4.24-.39-.15-.53-.12-.9-.04l.09.03c.04-.09.04-.26-.05-.29-.14.11-.5-.11-.37.38-.39-.28-.91.23-1.29-.15.03.13-.06.16-.1.25-.34,0-.7-.26-.98-.04-.05-.07.09-.23-.05-.24-.08.05,0,.17-.1.25-.56.25-1.13-.26-1.63-.19-.9.26-1.84.13-2.7.17v-.1c-.28.37-.67-.38-.9.18-.07-.09-.26-.04-.21-.23-.23.26-.64-.25-.97.09.03,0,.05-.01.08-.05-.34-.22-.63.08-.98-.12.04-.04.1-.07.11-.17-.14-.19-.32.41-.4-.06-.08,0-.06.24,0,.22-.77-.18-1.6.12-2.41.22-.58-.28-.04-.79-.49-.44-.04-.09-.03.18-.03.08-.18.13-.27-.53-.4-.28.05.29-.08.16-.09.34-.35-.19-.42-.45-.7-.23l.02-.15c-.33.43-.7.2-.98.7-1.8.09-3.53.37-5.28.42-1.74-.09-3.44.13-5.2-.13-.41-.4-.44-.39-.9-.23.02-.06.05-.08.02-.14-.02.33-.32.03-.36.34-.65-.06-1.25.03-1.92.03.11-.04.16-.3.03-.28l-.13.21-.02-.09c-.09.05-.18.21-.09.32-1.68.28-3.34-.37-4.99-.29-.39-.14-.95-.01-1.38.06-1.26-.44-2.4-.79-3.68-.48,0,0,.17-.85.7-1.04Z"/>
              <path class="cls-2" d="M76.08,56.3c-.04-.16-.19-.25-.07-.47.01.15.09.33.07.47Z"/>
              <path class="cls-2" d="M72.16,54.61s-.06-.07-.07-.09c.05-.01.09-.15.13-.06-.05.01-.04.09-.06.16Z"/>
              <path class="cls-2" d="M71.16,54.51c.02-.15.23-.26.36-.28l-.36.28Z"/>
              <path class="cls-2" d="M70.23,53.91c-.08-.12-.06-.19.05-.19,0,.08-.03.12-.05.19Z"/>
              <path class="cls-2" d="M70.16,54.24c-.08,0-.12-.08-.15-.17,0,.12.18-.08.15.17Z"/>
              <path class="cls-2" d="M68.14,53.82s-.15.13-.2-.03c.05.11.24-.19.2.03Z"/>
              <path class="cls-2" d="M67.2,54.04s-.04-.04-.08,0c-.06-.07,0-.17.05-.19l.03.18Z"/>
              <polygon class="cls-2" points="50.05 54.62 50.15 54.55 50.14 54.7 50.05 54.62"/>
              <path class="cls-2" d="M42.54,54.63c-.1.09-.07-.14-.09-.16.09-.01-.03.18.09.16Z"/>
              <polygon class="cls-2" points="38.49 55.36 38.52 55.36 38.51 55.66 38.49 55.36"/>
            </g>
          </g>
          <g>
            <circle class="cls-1" cx="45.87" cy="34.66" r="7.15"/>
            <g>
              <path class="cls-2" d="M53.56,34.78c-.06-.18-.26.09-.11-.12.12.02.2.06.11.12Z"/>
              <path class="cls-2" d="M53.37,34.08c-.38-.25-.45-.53-.46-.86-.05-.31-.04-.66-.38-.85-.05-.05.4-.12.25-.23-.73-.34-.78-1.19-.88-2.06l.12-.04c-.02-.16-.42-.07-.48-.2.06-.05.12-.04.18-.13-.2.12-.26-.13-.43-.05.03-.1.17-.23.19-.36l-.25.12c-.6.29-.37-.41-.83-.37.05-.04.11-.06.13-.12-.63,0-1.07-.39-1.62-.49.06-.08.16-.22.17-.33-.15.24-.33.24-.48.23.06-.3-.32.16-.41-.05l.04-.06c-.21.25-.11-.23-.32.09v-.24c-.17.38-.11-.25-.27-.07l-.02.08c-.11.07-.11-.14-.21-.09v-.05c-.22.05-.29-.18-.34.13-.02-.26.22-.09.18-.47-.74.19-1.41.11-2.1.17-.09-.12-.14-.15-.18-.27-.06.07-.26.1-.29.27.02,0-.07-.15-.11-.16-.15-.1-.07.36-.23.26.03-.1.03-.2-.01-.31-.06.27-.22.27-.34.39,0-.06.03-.1,0-.19-.07.31-.29,0-.36.23v-.19c-.29-.14.05.39-.16.33.02-.07-.02-.13-.04-.21-.05.38-.35.36-.45.55,0-.03-.03-.07-.03-.07-.14.12-.38.1-.48.34-.1-.03-.2-.41-.34-.24.2.31-.21.31.12.6-.17.02-.46.08-.47.24-.02-.16-.34-.31-.25-.42l-.23-.11c-.08-.13.12-.03-.02-.16-.05.06-.14.3-.23.3.04.27.23.67.12.84-.03-.17-.32-.26-.32-.35.09.24.18.47.29.71-.03.06-.22-.19-.22-.05.08.06.09.14.13.21-.05,0-.11.26-.41.05-.13-.07.02-.13-.13-.16-.09.1.02.19-.06.29l-.04-.03c-.09.04-.02.29.19.34.04-.04-.19-.11-.05-.12.13.17.1.32.03.41-.02-.07-.11-.12-.18-.19.14.29.14.49.15.69.15.09-.24-.22-.15-.19-.34.08.07.56-.32.57-.01-.04.23.09.19.07-.07.09-.29-.02-.24.08-.14-.05,0,.1.02.18.09.08-.07,0-.07-.08.09.15.15.58-.11.74.09.02.31.23.29.27l-.22-.08c-.14.01-.02.17-.22.14.24.18-.12-.48.05-.28-.2,0,.3.3,0,.19-.02.11.2.25-.02.31.04-.02-.3-.15-.3-.06.02.16.1.06.16.2l.08.09c.22.04-.05.13.21.11-.18,0,.08.22-.29.17l-.29-.05c.02.07.3.14.43.2-.03,0-.09.02-.13.01.44.04-.04.15.3.25-.17.13-.03.33-.29.4.14.1.31.18.21.31-.04-.02-.06-.05-.15-.05-.13.08,0,.1.07.16-.07,0-.24.17-.38.28.15.09.38.02.53,0-.41.17.31.23-.05.42-.07-.02-.25-.11-.34,0-.4.19.37.12.2.32l.34-.13c-.2.12.26.15-.1.24.13.01-.06.21.27.08-.2.34.36.47-.14.87.07,0,.05.12.21.02.15-.14-.16-.01-.05-.09.02.02.11-.01.16-.03-.04.1-.04.17-.33.24-.11.27.61-.11.6.14-.13.07-.17.11-.12.15l.28-.03c.02.15-.24.25-.45.38.08.05.12.14.29.06l-.2.26c.14-.19.16-.03.23-.04h-.07c-.08.08.03.12.08.13.12-.1.11-.21.12-.28.11-.03.13.03.26,0-.2.13-.06.21-.05.27,0,.09.22-.08.22-.06-.1.08.06.1-.11.17-.05,0,.06-.12-.05-.08-.04.09-.21.23-.02.2.14-.03.35-.33.32-.13-.07.02-.15.08-.23.11v.18s.16-.15.16-.15c-.03.05-.05.06-.07.08.2-.13.18.1.39-.07.06.03-.01.2.02.26h-.02c-.03.15.1.16.24.08l-.03.03s.11.08.23,0c-.03.19-.5.67-.23.53.09.06.38-.22.43-.36.06.24.42.05.39.42.07-.06.08-.12.16-.14.18.23.6.01.61.51-.11.05-.09.2-.14.32.14-.15,0,.22.15-.08.07-.19.11-.27.08-.38.19-.04.4.03.43.24-.01-.1.04-.15.09-.2-.11.3-.01.39.11.3l.07-.19v.21c.05-.05.14-.39.18-.18-.01.07-.03.15-.03.21.13-.14.3-.36.36-.19l.03.29s.14-.18.09-.28c.13.19.24.23.27.49.37-.57.73-.57,1.05-.56v.15c.1.13.03-.26.09-.16-.02.14.09.3.04.47.15.15.15-.27.22-.34-.01-.19-.05.13-.06-.11,0-.07.19.12.17-.17.05.11.06.32.06.44l.06-.15c.16.32-.13.63.03,1.03l.08-.06c.13.29-.18.38.06.44.08-.16.08-.58-.02-.7.17-.11-.04-.69.14-.7.08.16-.13.07-.05.3.13.22.14-.17.23-.1-.11-.09-.1-.39-.07-.45.12.11,0,.28.14.28-.02-.17.05-.32-.07-.41-.06-.38.15.07.13-.23.12.25.05.62.23.72-.09-.24.06-.39-.13-.73.07.05.14.24.15.41.13.12.01-.51.21-.04l-.07-.26c.06.07.1.13.2.24.07-.02.06-.41.22-.04,0-.05.15-.1-.02-.32-.15-.11-.02.23-.21-.09.18.25.1-.09.1-.21l.07.14c0-.07.08-.07.02-.23.02.09.08.18.12.2l-.08-.22c.06-.16.22.35.3.24v.2s.15.13.16.03c-.08-.2-.18-.44-.24-.6,0-.12.15.19.09-.03l.06.27c.02.07.23.27.31.22.02-.1-.07-.4-.21-.46.04-.03.16.05.22.2.05-.12-.14-.19-.13-.34.11.1.32.19.5.32l.12.35.06-.04c.09.29.17.15.3.43.07,0,.06-.12.05-.21-.41-.3-.27-.62-.58-.94.06-.19.78.75.47.1-.1-.07-.26-.38-.25-.21.11-.04-.24-.38-.03-.33.05.2.38.26.46.55-.09-.11-.14-.03-.12.02.15.09.29.34.38.25.03-.08.1-.16-.07-.32-.18-.18-.07.1-.21-.12.05-.16.34.09.05-.26-.03.09-.23-.08-.36-.2v-.14s.1.13.1.13c.19-.03-.19-.25-.06-.32l.29.17c.19.22-.24.08.11.38.09-.07-.07-.25.09-.24.02.04,0,.07.02.12.03-.01.53.36.36,0-.06-.15-.12-.12-.25-.23.06-.17-.05-.31-.02-.41.26.22.14-.13.35.17-.2-.07-.32.13-.1.38.35.21-.13.07.15.36.11-.1.41.15.63.3.04-.03-.02-.13-.03-.18-.18-.17-.21-.12-.41-.27.15-.09.14-.31,0-.51.13.03.32.18.3.24.06-.2.18-.37.35-.5-.41-.09.03-.22-.31-.31-.13.04-.42-.04-.55-.17.05-.03.15.09.24.11-.15-.16.37.07.09-.16.04.21.42.26.68.43-.1-.2.19.11.25-.01-.09-.2-.15-.41-.15-.57.34-.06.17-.44.21-.59.17-.04.5.12.58.04.02-.12-.39-.02-.19-.14l.06.03c-.07-.07.31-.25-.17-.41l.36.13s-.04-.07-.07-.11c.12.03.24.01.31.08.29-.05,0-.24,0-.36l-.23.04c-.15-.22.1-.32.04-.52l.22.03-.13-.13c.21.05.36-.05.18-.13.17.11.35.24.52.36-.14.08-.25-.13-.48-.09-.19.03-.16.21.04.27.04-.07-.01-.08-.08-.14.31.01.28.12.48.2,0-.04.1-.09,0-.11.14.1.15.18.14.31-.11-.11-.2.02-.28-.03.27.05.33.2.23.34-.34.05.12.34-.01.52-.25-.15-.44-.3-.52-.43-.16.08-.02.12-.19.2.18.11.48.23.56.42l-.2-.05c.06.16.34.26.22.41-.19.27-.32.56-.45.76l-.19-.08c.33.31-.05.47.02.71-.31.16-.2.68-.58.6-.19.52-.4,1-.88,1.32l-.13-.28c.07.23-.16-.08-.2.01.24.1.11.32.17.5-.34-.01-.44.36-.51.68l-.12-.16c.02.45-.41.31-.68.4-.07-.05-.2-.2-.27-.15.01.36-.07.37-.19.66-.15.08-.45.1-.65.04-.45.67-1.19.52-1.81.88l-.07-.23c-.62.57-1.46.1-2.03.27l.11-.4c-.15-.15-.4.05-.41.34-.15-.14-.49.12-.52-.24-.16-.12-.26.13-.43.14-.32-.24-.44-.27-.8-.32l.07.05c.07-.07.13-.23.06-.28-.16.07-.39-.28-.47.22-.22-.41-.91-.18-1.02-.71-.04.13-.14.1-.22.16-.3-.16-.4-.61-.75-.58,0-.08.21-.13.11-.22-.09,0-.11.13-.24.13-.58-.17-.63-.93-.98-1.24-.75-.5-1.14-1.37-1.51-2.11l.09-.03c-.46-.13.13-.74-.48-.76.07-.09-.02-.26.17-.26-.3-.15.07-.65-.29-.89,0,.03.02.04.06.07.17-.35-.19-.59,0-.94.04.03.08.09.18.09.18-.14-.43-.28.04-.37,0-.07-.24-.04-.22,0,.14-.73-.09-1.51-.03-2.31.41-.47.78.16.54-.34.1,0-.17-.07-.07-.05-.09-.2.57-.09.37-.27-.29-.05-.13-.12-.29-.18.29-.25.55-.21.44-.53l.13.08c-.26-.44.08-.66-.21-1.13.78-1.55,1.87-3,3.45-3.89,1.59-.73,3.35-1.28,5.12-.86.37.45.38.44.85.35-.03.06-.06.07-.04.14.09-.32.31.04.42-.26.62.21,1.22.32,1.83.61-.11-.01-.27.21-.15.24l.21-.13-.02.09c.1,0,.26-.11.22-.24.83.26,1.52.84,2.05,1.5.55.65.95,1.38,1.41,2.05.1.39.45.82.69,1.18.09,1.35-.07,2.38.25,3.57,0,0-.85-.16-1.07-.58Z"/>
              <path class="cls-2" d="M53.58,34.99c-.17.03-.26.15-.48.04.15,0,.33-.06.48-.04Z"/>
              <path class="cls-2" d="M51.25,37.41s-.07,0-.1,0c0-.03-.11-.12-.02-.11,0,.03.07.06.12.11Z"/>
              <path class="cls-2" d="M50.83,37.93c-.12-.09-.14-.27-.12-.34l.12.34Z"/>
              <path class="cls-2" d="M50.01,38.04c-.13-.04-.17-.09-.13-.14.06.05.08.09.13.14Z"/>
              <path class="cls-2" d="M50.24,38.29s-.11,0-.19-.04c.1.08.01-.13.19.04Z"/>
              <path class="cls-2" d="M49.06,38.82s0,.16-.11.05c.09.07,0-.23.11-.05Z"/>
              <path class="cls-2" d="M48.73,39.31s-.04-.02-.04.03c-.06-.04-.09-.15-.07-.18l.11.15Z"/>
              <polygon class="cls-2" points="39.99 36.08 40.08 36.13 39.94 36.15 39.99 36.08"/>
              <path class="cls-2" d="M40.83,31.29c-.04-.11.14.04.16.04-.02.06-.14-.12-.16-.04Z"/>
              <polygon class="cls-2" points="42.41 28.83 42.39 28.84 42.24 28.58 42.41 28.83"/>
            </g>
          </g>
          <g>
            <path class="cls-1" d="M53.03,21.31s-3.39-.48-5.13,2.33c-.55.9-1.64,3.88-1.64,3.88"/>
            <g>
              <path class="cls-2" d="M52.94,21.85c.03-.06.02-.26.03-.11-.02.12-.04.2-.03.11Z"/>
              <path class="cls-2" d="M46.65,27.54c-.67-.38.1-.26-.3-.55-.02-.03.39.15.31.08-.51-.33-.11-.39.38-.37l.11.05c.09,0-.26-.17-.2-.18.07.03.1.05.2.08-.22-.09-.08-.09-.24-.17.09.02.26.09.37.11l-.24-.11c-.58-.28.09-.1-.2-.28.06.03.1.05.16.07-.32-.24-.2-.34-.29-.51.09.04.25.11.35.14-.26-.11-.31-.17-.35-.22.28.1-.23-.15-.06-.13l.06.03c-.27-.14.18.03-.15-.13l.22.07c-.38-.17.21.04.03-.06l-.08-.03c-.08-.06.11,0,.05-.04l.04.02c-.08-.09.14-.03-.16-.15.24.08.09.09.44.2-.25-.27-.12-.4-.06-.55.13.03.17.04.28.08-.05-.04-.03-.08-.17-.16,0,0,.15.06.17.05.12.02-.31-.17-.17-.14.07.05.17.09.28.13-.22-.12-.17-.14-.23-.2.05.03.07.05.17.09-.25-.15.08-.03-.07-.13l.16.09c.23.05-.35-.17-.21-.16.05.03.12.06.18.09-.29-.17-.16-.19-.25-.27.02.01.07.03.07.03-.02-.06.09-.06-.02-.16.08.02.41.19.36.12-.34-.15-.11-.14-.5-.29.07-.01.23,0,.12-.09.12.08.42.18.43.22l.21.08c.14.07-.06,0,.12.08,0-.02-.12-.13-.06-.11-.19-.13-.56-.34-.58-.41.12.09.37.17.42.21l-.6-.38s.26.13.19.06c-.09-.04-.14-.08-.2-.13.04.01-.05-.11.28.06.13.06.06.06.18.11.01-.03-.1-.09-.09-.12l.04.02c.06,0-.1-.13-.29-.21-.02,0,.19.1.09.07-.18-.12-.21-.18-.19-.22.05.04.13.09.22.14-.23-.18-.28-.28-.35-.39-.15-.09.26.18.18.14.24.07-.21-.3.12-.16.02.02-.21-.13-.17-.11.04-.02.25.13.18.06.12.08-.02-.05-.05-.09-.08-.07.06.04.07.06-.09-.09-.2-.33.02-.26-.08-.06-.26-.25-.24-.26l.18.14c.12.07.02-.06.17.06-.2-.2.11.25-.03.08.16.11-.25-.27,0-.08.01-.03-.17-.22.02-.11-.03-.02.23.22.24.19,0-.06-.08-.08-.12-.16l-.06-.08c-.17-.14.05-.01-.15-.16.15.11-.04-.13.24.11l.22.19s-.21-.22-.3-.32c.02.02.07.05.11.08-.34-.29.06-.01-.18-.26.15.07.09-.08.31.09-.08-.12-.17-.25-.08-.21.02.03.03.05.1.12.11.07.03-.01,0-.08.04.05.22.14.35.24-.07-.12-.25-.28-.35-.38.33.29-.13-.27.18-.01.03.05.11.19.21.25.33.3-.18-.27,0-.15l-.26-.26c.17.15-.09-.2.16.07-.08-.11.12.05-.12-.21.26.17.04-.28.48.18-.03-.05.03-.02-.09-.16-.14-.14.07.13-.02.03,0-.02-.06-.09-.09-.13.07.05.1.05.27.3.18.14-.34-.51-.19-.45.09.12.13.16.13.13l-.12-.22c.07.02.22.25.37.45,0-.05.02-.05-.08-.21l.21.24c-.15-.17-.07-.13-.1-.19l.03.06c.07.08.05.01.04-.02-.09-.12-.15-.16-.19-.19-.05-.1-.02-.09-.08-.2.14.2.13.12.16.13.05.03-.1-.2-.09-.19.07.1.04,0,.13.15.02.04-.08-.09-.03,0,.07.07.19.25.12.1-.05-.11-.28-.4-.15-.29.02.06.08.14.12.22l.1.08-.12-.19s.04.06.06.09c-.12-.2.01-.1-.12-.32,0-.03.12.1.15.11v.02c.1.1.08,0,.02-.13l.02.04s.03-.04-.02-.16c.12.13.44.72.33.46.02-.02-.16-.38-.24-.49.13.1.02-.25.23.02-.03-.08-.07-.13-.07-.19.12.04.06-.34.32.03.02.09.09.2.15.32-.07-.19.11.18-.03-.13-.09-.18-.13-.27-.19-.33,0-.12.08-.16.19,0-.05-.08-.07-.14-.08-.2.13.29.18.32.16.21l-.07-.18.1.18c-.01-.06-.15-.38-.05-.22.03.07.06.14.09.19-.03-.16-.09-.43,0-.29l.13.25s-.04-.2-.09-.27c.12.14.16.15.26.37-.12-.6.03-.67.16-.67l.04.14c.07.12-.06-.25,0-.16.03.14.11.28.14.45.09.13-.02-.26,0-.33-.05-.19.01.12-.05-.11-.01-.07.1.13.03-.15.04.11.09.32.12.43v-.14c.11.32.08.6.23,1v-.05c.11.29.05.34.13.43-.02-.14-.11-.55-.17-.67.03-.09-.16-.67-.1-.67.06.16-.04.05.04.28.09.22.02-.14.07-.07-.05-.1-.11-.39-.1-.45.06.12.05.27.1.29-.03-.16-.02-.3-.09-.4-.08-.37.07.09.03-.2.08.26.1.61.18.73-.07-.25-.02-.36-.14-.72.04.07.08.26.11.42.06.15-.04-.48.08.02l-.05-.26c.03.08.05.14.1.28.02,0,0-.36.08.03,0-.04.06-.03-.02-.3-.07-.16,0,.2-.09-.16.09.29.04-.05.04-.15l.03.15c0-.06.03-.03.01-.2,0,.09.03.19.05.23l-.03-.23c.03-.12.09.4.12.33v.19s.05.17.06.1c-.03-.21-.06-.47-.08-.63.01-.1.05.24.04.01v.26c.02.07.09.34.13.33,0-.08,0-.39-.06-.5.02,0,.06.12.07.27.03-.08-.04-.23-.03-.36.04.14.11.33.17.53l.02.36h.02c.02.29.05.21.08.52.02.05.02-.06.03-.14-.11-.47-.04-.66-.12-1.1.05-.13.18,1.06.16.37-.03-.11-.03-.45-.06-.32.05.04-.03-.44.05-.27-.01.18.09.44.07.71-.01-.15-.04-.11-.04-.06.04.17.05.44.09.44.02-.04.05-.06.02-.29-.03-.25-.03.03-.05-.22.04-.09.09.29.06-.16-.03.04-.06-.22-.08-.39l.03-.11v.17c.08.11,0-.31.06-.27l.06.33c.01.29-.1-.12-.04.35.04.02.03-.22.07-.11,0,.04,0,.05-.02.1.02.01.08.63.1.26.01-.14,0-.17-.02-.34.05-.06.06-.24.1-.26.02.34.07.03.05.38-.03-.2-.12-.17-.11.15.05.4-.05-.05-.03.35.05,0,.08.4.1.66.01.02.01-.09.02-.13-.01-.24-.03-.24-.05-.49.05.06.09-.08.1-.32.02.12.03.36.02.39.05-.08.12-.05.17.02-.05-.4.06-.1.02-.43-.03-.09-.07-.37-.06-.55.02.03,0,.17.02.26.02-.22.05.35.07,0-.05.13,0,.49,0,.8.03-.18,0,.22.04.22.03-.17.07-.31.12-.38.05.3.13,0,.18,0,.02.16,0,.51.02.57.03,0-.01-.38.03-.22v.07c.01-.08.07.24.1-.27l-.03.38s.02-.05.03-.09c0,.12,0,.24-.02.32.01.26.06-.04.09-.05v-.23c.06-.17.08.05.13-.02l-.02.22.04-.13c-.02.21-.01.35.02.18l-.11.54c0-.13.04-.27.05-.48,0-.19-.05-.13-.07.08.01.03.02-.02.04-.1-.02.31-.04.29-.06.5,0-.01.01.08.02-.01-.03.15-.04.17-.07.18.02-.12,0-.19.01-.28-.02.27-.04.35-.07.28-.01-.31-.07.2-.1.11.02-.27.05-.49.08-.61-.02-.14-.03,0-.05-.13-.02.2-.03.52-.06.64v-.2c-.03.1-.03.4-.06.35-.06-.1-.12-.1-.16-.12v-.2c-.02.43-.09.16-.11.36-.07-.19-.11.2-.16-.14-.09.16-.15.32-.26.26l-.02-.3c0,.22-.03-.17-.05-.12.05.23.01.31.02.49-.07-.22-.1.03-.1.24l-.03-.2c.02.38-.07.06-.13,0-.02-.08-.06-.27-.08-.24.03.33.02.31.02.51-.03,0-.09-.07-.14-.18,0,.47-.16.21-.18.5l-.07-.23c.06.52-.19.11-.18.39l-.14-.38c-.07-.11-.02.12.09.39-.07-.11.02.21-.12-.1-.05-.06.04.19.05.24-.11-.12-.11-.08-.12,0l.02.02c-.03-.08-.11-.24-.13-.26.03.11-.11-.07.12.36-.17-.23.01.26-.21-.06.07.12.07.14.11.22-.03.02-.2-.19-.12.02-.04-.05-.11-.2-.13-.2.02.05.09.15.12.22.07.24-.24-.14-.26-.06.06.27-.1.22-.15.33l-.06-.08c.22.3-.31-.23.04.2-.07-.06-.05-.01-.17-.16.16.21-.23-.13-.03.14,0,0,0-.01-.03-.05-.18-.12,0,.11-.16,0-.03-.03-.04-.06-.11-.13-.15-.11.27.31-.08,0,0,.01.17.17.16.15-.2-.05-.05.22-.02.36-.26-.11-.63-.47-.39-.21-.08-.05.14.11.06.05.09.1-.45-.28-.26-.12.24.16.12.1.27.21-.18-.07-.4-.21-.24-.05l-.12-.09c.33.28.11.19.51.48,0,.17.12.55.06.81-.2.21-.11.56-.46.73-.4-.09-.39-.08-.27.05-.06-.03-.07-.04-.13-.06.3.13,0,.06.29.19-.1.08-.05.21-.09.32-.03-.03-.27-.14-.26-.11l.19.1-.09-.03s.18.11.29.13c.16.37-.56.4-.59.69-.15.01-.07.15-.03.24-.49.05-.89.12-.68.42,0,0-.79-.32-.94-.47Z"/>
              <path class="cls-2" d="M52.9,21.87c.01-.16,0-.26.04-.47-.01.15-.02.33-.04.47Z"/>
              <path class="cls-2" d="M52.23,20.17s-.01-.07-.02-.09c0-.01.02-.15.03-.07-.01.01,0,.09,0,.16Z"/>
              <path class="cls-2" d="M52.01,20.08c0-.15.03-.26.06-.28l-.06.28Z"/>
              <path class="cls-2" d="M51.77,19.5c-.03-.12-.03-.19,0-.19,0,.08,0,.12,0,.19Z"/>
              <path class="cls-2" d="M51.78,19.83s-.03-.08-.05-.16c.01.12.03-.08.05.16Z"/>
              <path class="cls-2" d="M51.28,19.46s-.02.14-.05-.02c.03.11.03-.19.05.02Z"/>
              <path class="cls-2" d="M51.1,19.71s-.02-.03-.02,0c-.02-.06-.03-.17-.02-.19l.04.18Z"/>
              <polygon class="cls-2" points="47.92 21.88 47.89 21.82 47.99 21.92 47.92 21.88"/>
              <path class="cls-2" d="M46.91,23.17c.07.07-.13-.05-.15-.06,0-.03.15.1.15.06Z"/>
              <polygon class="cls-2" points="47.2 24.21 47.2 24.2 47.47 24.33 47.2 24.21"/>
            </g>
          </g>
        </g>
        <g>
          <path class="cls-1" d="M44.14,30.96s-3.96,3.19,0,6.38"/>
          <g>
            <path class="cls-2" d="M44.47,31.39c-.03-.06-.17-.19-.06-.1.07.09.13.17.06.1Z"/>
            <path class="cls-2" d="M44.32,36.99c-.56.52-.14-.14-.53.16-.03.02.28-.31.2-.25-.47.37-.35,0-.1-.39l.09-.08c.05-.07-.25.18-.23.13.06-.05.09-.07.16-.15-.17.16-.11.05-.24.16.06-.07.19-.2.27-.28l-.2.17c-.49.41-.02-.1-.3.09.05-.04.09-.07.13-.11-.34.2-.35.07-.52.08.08-.06.22-.16.3-.23-.22.17-.3.19-.36.21.22-.19-.24.13-.13,0l.05-.04c-.26.16.12-.13-.19.07l.18-.15c-.34.23.15-.15-.03-.04l-.07.05c-.09.04.07-.08,0-.05l.04-.03c-.11.03.06-.11-.2.07.2-.16.12-.04.41-.26-.33.08-.35-.07-.41-.17.1-.08.14-.1.24-.16-.06.02-.07,0-.22.06,0,0,.14-.08.15-.1.1-.07-.32.14-.21.05.08-.03.17-.08.28-.13-.23.1-.21.05-.29.07.05-.02.08-.03.17-.08-.27.1.03-.07-.14,0l.17-.07c.19-.13-.35.16-.25.07.06-.02.12-.05.19-.08-.32.12-.24.02-.35.04.02,0,.07-.03.07-.03-.05-.02.03-.09-.11-.07.07-.04.42-.16.35-.17-.35.13-.16,0-.55.16.05-.05.16-.15.03-.13.14-.03.43-.16.46-.15l.21-.09c.15-.05-.04.03.14-.03-.02,0-.17.01-.11-.02-.22.05-.64.15-.7.13.14-.02.39-.12.45-.13l-.7.14s.28-.08.18-.07c-.09.03-.16.03-.23.05.04-.02-.11-.04.24-.13.14-.04.08,0,.2-.04,0-.02-.13,0-.14-.02h.05c.05-.04-.16-.02-.35.04,0,.01.21-.05.11-.01-.21.04-.27.02-.28-.01.06,0,.15-.02.26-.04-.29.02-.38,0-.51-.02-.17.03.31-.04.22-.02.23-.09-.35-.06-.01-.16.03,0-.24.04-.2.03.02-.03.27-.06.17-.07.15-.02-.05-.01-.1-.03-.11,0,.07-.01.09,0-.13,0-.37-.09-.16-.17-.1,0-.36-.01-.35-.03h.23c.13-.03-.02-.05.17-.07-.28-.01.25.09.03.07.19-.02-.37-.03-.06-.04,0-.03-.27-.04-.05-.08-.04,0,.32,0,.3-.01-.04-.03-.11,0-.18-.03l-.09-.02c-.22,0,.03-.04-.22-.02.18,0-.11-.06.26-.06h.29s-.31-.02-.43-.03c.03,0,.09,0,.13,0-.44,0,.04-.04-.31-.06.16-.03.02-.09.29-.1-.13-.03-.29-.07-.2-.09.04,0,.05.02.15.03.13-.01.01-.02-.06-.05.07,0,.26-.02.42-.03-.13-.04-.37-.05-.52-.06.44.02-.28-.11.12-.1.06.02.21.06.32.05.44.03-.31-.08-.1-.1l-.36-.04c.23.01-.2-.09.17-.03-.13-.03.13-.03-.23-.08.31-.02-.15-.2.48-.11-.06-.02,0-.03-.17-.06-.2-.02.14.05,0,.03,0-.01-.1-.03-.15-.04.08,0,.11-.01.4.06.22,0-.58-.17-.44-.2.14.04.2.04.18.02l-.24-.09c.06-.02.33.06.57.12-.04-.03-.02-.05-.2-.1l.31.06c-.22-.04-.14-.05-.2-.08l.06.02c.1.02.05-.01.02-.03-.15-.04-.22-.04-.26-.03-.1-.04-.07-.05-.19-.09.23.07.18.02.21,0,.06,0-.2-.08-.19-.08.12.04.03-.02.2.04.04.02-.12-.02-.02.02.09.02.31.08.16.01-.11-.05-.46-.13-.3-.12.06.03.15.06.23.09h.13s-.21-.06-.21-.06c.05.02.07.02.1.03-.22-.08-.05-.07-.3-.15-.02-.02.16.01.19,0h.02c.13.03.06-.02-.08-.08l.05.02s0-.04-.12-.1c.17.03.79.27.54.15,0-.03-.37-.18-.51-.22.16,0-.16-.18.17-.09-.08-.04-.13-.06-.18-.09.11-.03-.18-.24.24-.12.08.06.2.09.32.14-.17-.1.2.07-.11-.08-.18-.08-.27-.12-.35-.14-.08-.08-.05-.14.13-.08-.09-.03-.14-.06-.19-.1.29.14.34.14.25.07l-.17-.09.19.08c-.05-.04-.36-.19-.18-.13.07.03.14.06.19.09-.13-.09-.36-.25-.2-.2l.26.11s-.17-.12-.25-.14c.17.04.2.02.43.13-.49-.35-.45-.47-.36-.53l.12.08c.13.05-.21-.14-.12-.11.11.08.27.14.4.25.15.05-.19-.17-.24-.22-.16-.1.1.08-.11-.05-.06-.04.15.04-.09-.12.1.05.28.17.38.24l-.11-.09c.3.16.48.37.85.57l-.03-.04c.26.15.27.22.38.24-.11-.09-.46-.33-.58-.39-.05-.08-.57-.39-.53-.42.15.08.01.05.22.18.21.11-.09-.11,0-.08-.1-.04-.34-.22-.38-.26.13.06.22.17.26.15-.14-.1-.22-.19-.34-.24-.31-.22.11.03-.13-.15.23.14.49.38.62.42-.22-.14-.26-.23-.59-.44.07.03.24.14.36.24.14.07-.36-.31.07-.02l-.21-.16c.07.04.13.08.25.15.01-.01-.26-.25.07-.02-.03-.03,0-.05-.22-.2-.15-.08.15.14-.17-.06.26.16,0-.05-.08-.13l.13.09s0-.04-.13-.14c.07.06.15.12.19.13l-.18-.15c-.07-.1.34.24.3.17l.13.13s.15.09.11.04c-.17-.14-.37-.3-.49-.4-.06-.07.2.14.04-.01l.19.18c.05.05.29.2.3.17-.05-.06-.28-.27-.39-.32,0-.01.12.05.24.15-.04-.07-.18-.14-.27-.24.12.07.3.18.47.29l.26.24h.01c.21.18.18.12.41.31.04.02-.03-.05-.08-.11-.4-.28-.49-.44-.84-.71-.06-.11.85.65.35.18-.09-.07-.34-.3-.26-.19.06,0-.33-.3-.16-.21.12.14.36.26.54.46-.11-.1-.1-.05-.07-.02.14.1.34.28.36.26-.02-.04-.01-.06-.19-.21-.19-.16,0,.04-.19-.13-.04-.09.25.16-.08-.14.01.04-.19-.12-.32-.23l-.06-.09.12.11c.12.04-.22-.21-.16-.21l.27.2c.21.19-.14-.03.22.26.03,0-.14-.17-.03-.11.02.03.03.04.06.08.02,0,.49.4.24.13-.09-.11-.12-.11-.25-.23-.01-.07-.14-.2-.14-.24.25.23.06-.02.3.24-.16-.12-.19-.06.05.17.31.25-.06-.01.24.26.03-.02.33.24.52.41.02,0-.06-.07-.09-.1-.19-.16-.18-.16-.38-.32.07.02,0-.1-.17-.27.1.07.28.24.28.26-.02-.08.03-.09.11-.07-.31-.25-.04-.1-.29-.31-.08-.04-.3-.22-.42-.36.03,0,.13.12.19.17-.15-.16.27.22.04-.03.06.12.35.34.57.56-.11-.14.16.15.18.13-.11-.14-.18-.26-.21-.33.24.18.07-.07.09-.1.12.1.36.36.42.39.01-.02-.28-.26-.14-.17l.05.05c-.05-.07.21.13-.13-.24l.26.29s-.03-.05-.05-.08c.09.09.17.17.22.23.19.18,0-.06,0-.08l-.16-.16c-.09-.16.08,0,.05-.09l.15.17-.07-.11c.14.16.24.26.13.11l.32.44c-.1-.09-.17-.21-.32-.37-.13-.14-.12-.07.02.09.03.01,0-.03-.05-.09.21.23.19.23.32.39,0-.01.06.05,0-.02.09.12.1.14.09.16-.07-.1-.13-.14-.19-.2.18.2.23.27.16.23-.23-.22.11.18.03.13-.18-.21-.33-.37-.39-.47-.11-.09,0,.02-.12-.07.14.15.35.38.42.49l-.14-.14c.06.09.27.3.21.28-.1-.04-.13,0-.17,0l-.15-.14c.3.31.07.16.2.3-.17-.1.08.19-.19-.02.07.16.15.31.04.31l-.22-.2c.16.15-.14-.1-.11-.06.19.14.22.21.36.33-.2-.12-.03.07.11.22l-.16-.12c.28.26,0,.08-.07.07-.07-.05-.23-.16-.21-.13.25.21.23.21.38.35-.01.02-.1,0-.21-.06.33.32.05.22.25.43l-.21-.12c.4.32-.04.16.16.34l-.36-.2c-.12-.04.08.09.33.22-.12-.04.16.13-.14-.01-.07-.02.16.1.2.14-.15-.04-.13,0-.07.05h.03c-.08-.04-.24-.11-.26-.11.1.06-.12,0,.33.19-.27-.08.17.16-.18.04.12.05.15.06.23.1,0,.02-.26-.04-.06.05-.06-.02-.21-.08-.23-.08.05.02.16.06.23.09.22.12-.27,0-.22.06.22.14.1.16.13.22l-.1-.02c.36.08-.39-.01.16.09-.09,0-.05,0-.23-.02.26.05-.26.02.08.08,0,0-.01,0-.05-.01-.21,0,.08.05-.11.06-.04,0-.07,0-.17-.02-.19,0,.41.05-.06.03,0,0,.24.02.22.01-.18.05.11.12.22.15-.28.05-.79.05-.44.06-.09,0,.18-.01.08,0,.13,0-.52.07-.27.06.29-.03.16,0,.34-.03-.18.04-.44.08-.22.08l-.15.02c.43-.03.21.03.7-.03.08.09.42.1.48.15-.07.12.21.1.03.33-.32.24-.31.24-.16.18-.05.04-.07.04-.12.08.27-.18.04,0,.3-.17-.02.07.09.06.12.1-.03.02-.25.18-.22.17l.17-.12-.07.06s.17-.12.25-.19c.3-.09-.14.45.06.5-.07.12.06.07.14.05-.21.4-.34.76-.05.61,0,0-.54.65-.72.75Z"/>
            <path class="cls-2" d="M44.48,31.43c-.11-.12-.18-.18-.31-.35.1.11.22.24.31.35Z"/>
            <path class="cls-2" d="M42.93,30.58s-.05-.04-.08-.06c0-.01-.1-.11-.03-.06,0,.01.06.07.11.12Z"/>
            <path class="cls-2" d="M42.75,30.63c-.11-.1-.17-.2-.17-.23l.17.23Z"/>
            <path class="cls-2" d="M42.2,30.34c-.1-.07-.15-.12-.14-.13.06.05.08.08.14.13Z"/>
            <path class="cls-2" d="M42.44,30.57s-.07-.04-.14-.09c.09.08-.04-.07.14.09Z"/>
            <path class="cls-2" d="M41.9,30.56s.09.1-.04,0c.09.06-.12-.15.04,0Z"/>
            <path class="cls-2" d="M41.97,30.82s-.03-.02,0,.01c-.06-.03-.14-.11-.14-.12l.15.11Z"/>
            <polygon class="cls-2" points="41.32 33.75 41.25 33.73 41.4 33.75 41.32 33.75"/>
            <path class="cls-2" d="M41.39,35.09c.09,0-.13.04-.15.05-.02-.01.18-.03.15-.05Z"/>
            <polygon class="cls-2" points="42.27 35.51 42.27 35.5 42.55 35.4 42.27 35.51"/>
          </g>
        </g>
      </g>
    </g>
  </g>
</svg>