<?xml version="1.0" encoding="UTF-8"?>
<svg id="Layer_3" data-name="Layer 3" xmlns="http://www.w3.org/2000/svg" viewBox="0 0 126.38 116.43">
  <defs>
    <style>
      .cls-1 {
        fill: #202020;
      }
    </style>
  </defs>
  <path class="cls-1" d="M95.29,98.89c.34.23.55,0,.69-.28-1.26-.36.36.12-.69.28Z"/>
  <path class="cls-1" d="M90.29,98.52c-.05.04-.11.07-.16.1.08,0,.14-.01.16-.1Z"/>
  <path class="cls-1" d="M100.6,72.14c-.2-8.29,1.44-16.61.73-25.08-.26.45-.67-.03-.79-.46l.23-.11-.52-.66c-.05-.63.62-.37.7.17,0-3.37-.23-6.38-.08-9.66-.78-.22-.04-1.71-.86-1.82.15-.15.19,0,.35.08-.41-2.28-.43-2.43.57-4.51.05-.8.1-1.59.15-2.39l.06-1.19.02-.73.02-1.16c.05-3.09.07-6.2.08-9.27-4.56.01-9.09.03-13.62.04-2.77.02-5.54.03-8.33-.05-8.82.14-17.5.83-26.54,1.06-1.39,1.24-3.29.66-4.93,1.74l.11-.38c-1.4.55-1.76-.1-3.53-.57-.02.44-.68.12-.43.84-.62.62-1.11-1.03-1.99-.7-.03-.24.02.43-.17.21-2.29.88.44-.4-2.47-1.1-.84.06-1.68.13-2.52.21l-1.26.13c-.44.04-.73.08-1.56.12-2.84.16-5.47.28-8.19.24-.02,1.13-.06,2.21-.14,3.29-.03-.43.55-.21.56.41-.59-.07-.51.56-.34,1.23.17.69.43,1.39.19,1.87-.24-.14-.32-.7-.43-1.04-.12.7-.17,1.42-.18,2.13,0,.35,0,.71.01,1.04l.04.61c.06.8.1,1.58-.16,2.42.49,1.59-.53,3.43.08,4.5-.47-.25-.35.71-.58,1.05,1.41,1.16-.48,3.1.45,4.55l-.24-.05c.11,4.32-.22,9.03.43,13.54.16,2.54-1.1,5.4-.48,8.19.19.51.49.11.62.52-.04.7-.43-.01-.6.26.56,1.38-.11,3.19-.1,4.91.22.2.29.69.62.52-.95,1.91.33,4.53-.38,6.49,1.22-.68.66,1.15.94,1.84-.05.39-.37.43-.6.3.15,1.47.19,2.24-.16,3.99.14.81.8,1.03.61,2-.84.61-.03,2.03-.34,2.98.72-.24,1.3.98.99,1.93l-1.02-.29c.33,1.52.2,3.37.15,5.28-.01.34-.02,1.32-.01,2.08,0,.8.03,1.6.07,2.36.08,1.54.25,2.97.57,4.04l-.52.87-.02.08c1.68-.17,3.19-.26,4.67-.3,1.44-.03,2.87-.05,4.29-.08,1.8-.05,3.58-.15,5.34-.73.95.32,2.47.52,3.41.52,1.28-.51,1.74-.45,2.62-1.27.48-.06.77.42.96.63,1.61.16,3.16.99,4.45.04l.05.51c1.28-.52,3.14-1.14,4.58-.57.4-.45,1.85-.63,1.19-1.22.57-.11.37.86.95.32l-.55.74c3.25.19,5.98-.2,9.12-.58.91.87,2.99-.1,4.77.39,1.04-.48,2.85.2,3.63-.88l.05.51c1.39.06,3.27.06,5.1.31,1.07.14,1.07-.61,1.9-.87l.05.51c.86-.29,1.13-.99,1.44-1.5h.37c.45.13.61-.08,1.2.21-.69.28-1.27.83-1.73,1.52,1.13.22,2.26-1.07,2.96-.29.92.18,1.64,0,1.76-.6.05.18.56.34.11.6.7-.02,1.15-.08,1.58-.35-.13,0-.32-.08-.47-.06.31-.46.89-.49.91-1.03h.89c.05.45-.81.75-.32,1.04l1.54-1.04h3.3v-13.99c.62,3.48-.79,7.43.94,10.49.49,2.66,2.61,3.5,2.61,3.5-.77-6.44.12-12.15,1.21-18.49-.17-2.14-.48-4.94-.14-6.91ZM86.76,20.48l-.12.16h-.74c.08-.24.22-.42.86-.16ZM85.38,20.6s0,.03,0,.04h-.07s.05-.03.08-.04ZM76.37,20.51c.44-.06.64.01.76.14h-.77s.02-.09.01-.14ZM69.3,19.89c.41.15,1.76-.22,2.22-.25.22.48-.39-.03-.5.35l.7.56c-.16.01-.24.05-.3.1h-3.06c.33-.27.64-.55.95-.76ZM66.25,20.55s-.01.06,0,.1h-.1l.11-.1ZM39.37,63.13l-.31.4-.02-.25.33-.15ZM53.65,84.92c-.3-.16-.49-.5-.67-.66.26.03.54.63.73.63l-.06.03ZM56.45,86.99l-.09-.08.12.06s-.03,0-.03.02ZM56.61,87.03l.36.2c-.1,0-.24-.11-.36-.2ZM58.39,87.5c0-.14-.15-.12-.28.09-.02-.01-.04-.03-.07-.05-.12.09-.23.07-.34.05-.11-.03-.21-.06-.42-.06-.15-.42.3-.35.52-.34-.01.05-.1.07-.01.21.11.03.2.06.29.1.18-.38.36-.56.62-.68,0,.3-.29.5-.32.67ZM69.58,69.35c.08,0,.17-.03.28-.08-.4.71-.11.1-.28.08ZM86.46,97.53h.82c-.28.08-.55.11-.82,0ZM89.71,97.57s.02-.02.02-.03h.44c-.11.05-.23.06-.46.03ZM89.74,35.77c-.11.19-.22.38-.32.57-.1.16-.19.32-.29.47l-.08-.19c-.27.58-.71,1.32-1.02,1.57.03.04.03.22.13.16-.19.77-.28-.07-.48.77.05-.21.15-.45.09-.53l-.61,1.44c-.12-.05-.83.62-1.07,1.24.05.06.23-.06.32-.19l-.16.39-.42.13-.09.65.05.03-.07.1.02-.13-.22-.11c-.18.41,0,.72-.21,1.02-.82,1.09-.75.81-1.44,1.52.35.33-.79,1.31-.62,1.69-.95.93-1.71,2.64-2.65,4.05l.03-.14c-.55.51-.11.89-.58,1.51l.04-.2c-.72.73-1.41,2.36-1.72,3.27.04-.2-.14-.19-.28.08-.05.27.41-.05.06.37.03-.14-.11-.1-.18,0l-.07.57c-.83,1.11-1.8,2.42-2.4,3.71-.2.19-.18-.02-.22-.12-.53,1-.93,2.07-1.41,2.97l-.28-.05c-.25.43.2.48-.34.92-.1.11.2-.38.19-.59-.68.76-.07.64-.58,1.46l-.14-.37c-.53.54-.29.8-.27,1.13-.21,1.07-.88.34-1.36,1.68.02.27.23.05.24.32-.57.81-.44,1.02-1.01,1.84-.66.23.26-.43-.4-.15l.47-.6c-.53.44.25-.54-.04-.59-.31.38-.49,1.13-.74,1.73-.18-.1.35-.65-.03-.53l-.09.32c0-.11-.06-.16.04-.32-.22,0-.2.32-.36.59.08.07.22.13.4.12-.02,0-.06,0-.1.04-.07.7-.81,1.51-.88,2.1,0-.11-.06-.05-.12-.05-.2.33-.17.8-.37,1.29-.27.17-.3-.37-.65.39.07.21.51.04.15.64,0,0,.19-.59-.08-.37-.24.65-.16.16-.64.6.03.43-.42.54-.12.8-.33.06-.22.06-.6.33.28-.06-.23.8,0,.91-.34,0,.06-.8-.48-.47-.03.43-.33,1.08-.09,1.28-.21.22-.37.27-.63.65.05-.05.05-.16.04-.21-.23.81-1.02,1.73-.93,2.32-.3-.37-.92,1.46-.97.71-.16.3-.27.86-.25,1,.01,0,.02,0,.03.02-.02.03-.03.02-.03-.02-.28-.21-.5.68-.87.89.07.26-.29.75-.38,1.13.05-.16.04-.27-.07-.27-.09.43-.15.27-.48.49-.19.54.28.05.25.42-.31.38-.23-.05-.4-.05l-.06.8c-.1.11-.21.16-.33.17-.04.27-.02.54-.35.75l.3-.54-.27.11-.18.75c-.36.38-.59.46-.76.42,0,.01.01.02.02.04l-.27.52c0-.14-.02-.28-.05-.4.07-.13.14-.19.19-.2-.11-.06-.19-.17-.29-.27l-.03.06-.8,1.19-2.93-2.21-.34.08c.52.42,1.63.6,1.62,1.17l-.29-.16c-.03.08-.01.39.45.53.14.05.33-.04.17-.15.07.08.15.18.25.29-.32.02-.98-.39-1.45-.67.18.03.55.22.53.04-.41-.23-.86-.38-1.26-.59-.07-.02-.15-.04-.22-.08.01,0,.02-.02.04-.02-.04-.03-.08-.05-.13-.08.06.03.11.03.17,0,.01.04,0,.06-.04.08l.19.11c.2.04.37,0,.49-.02-.33-.39-.39-.11-.71-.32-.06-.16-.11-.26,0-.26-.43-.22-.75-.43-1.08-.82,0,0,.45.17.4,0l-.21-.16c-.68-.34-1.01-.3-1.83-.75-.72-.26-1.15-.76-1.65-1.23-.28-.35-.48-.57-.78-.73-.1.04.31.55-.11.22.2-.07-.13-.31-.1-.38-.6-.2-.55-.64-.97-.78.11.02-.07-.27-.17-.47-.02.01-.05.03-.1.03l.1-.04h0c.21-.12-.38-.51.45-.16-.86-.35-1-1.13-1.84-1.18l.11.2-.52-.68.02.03c.07.09.16.21.27.38l-.27-.38c-.23-.29-.32-.29-.49-.81.19.11.41.33.6.44-.17-.47-.8-.54-1.16-.89.14-.11.42.33.46.07-.23-.27-.54-.4-.81-.6l.1-.03c-.47-.78-.58.09-.81-.6-.03.05-.13.04-.14.11-.1-.24-.38-.77.11-.45-.22-.22-.53-.41-.72-.44.08.29.18.28.12.48l-.95-.81c-.1-.1.14,0,.26.13-.67-1.4-2.4-1.79-3.14-3.39.02.24-.18.01-.37-.02-.34-.41-.95-.96-1.23-1.38l.19.04c-.5-.4-.93-.74-1.31-1.04-.2-.16-.35-.28-.54-.47-.23-.22-.45-.45-.65-.67-.09-.03.18-.04.35.09-.3-.19-.51-.47-.63-.68.49-.35.85-.52.7-.73l-.25.2c.15-.14.3-.28.44-.43l.22-.22.16-.18c.21-.24.42-.49.62-.75.41-.51.81-1.04,1.24-1.51.39-.03-.5.54-.1.56.69-.55,1.17-1.33,1.91-1.95-.09.13-.04.13-.08.19.8-.57-.27-.08.36-.67.04.14.11.11.38-.07.03-.13.08-.27.13-.41.05,0,.1.17.02.33.09-.26.38-.59.68-.92.36.33.72.68.95.72.03.12-.26.15-.21.34.32.42.57.53.84.67.09-.09.21.03.34.19.14.09.27.21.38.39-.15-.1-.27-.26-.38-.39-.11-.07-.23-.13-.34-.19h0c.09.33.63.83.5.75.48.6.18-.01.71.29l-.35-.51.8.72-.39-.22c.28.42.8.63,1.2,1.04l-.09-.29.53.4c-.16.25.55.64.05.63.76.97,1.59,1.26,2.4,2.03-.14-.14-.13-.04-.19-.04.41.51.8.68,1.18.84-.12,0-.25-.08-.31-.03.54.55.45.21,1.11.75-.25-.08-.25.02-.1.2.05-.1.24-.02.38.07-.87-.04.5.84-.11.89.12-.06,1.23.69,1.13.26l-.19-.13c.1-.13.27.13.45.29.14.09.26.19.08.06-.03-.02-.05-.04-.08-.06-.11-.07-.22-.13-.25-.11.99.71,1.75,1.73,2.81,2.58-.13-.04-.59-.35-.38-.07.16.18.31.34.47.48.09.09.11.1.15.13.04.03.07.05.11.07.14.07.25.08.31.05.03-.17.05-.3.05-.39.16.2.03.34-.04.51-.06-.03-.11-.03-.13.14.05.04.1.08.16.12.07-.16.13-.31.18-.45l.07-.2s0-.04.04-.11l.11-.23c.28-.61.57-1.23.85-1.89.75-.2.59-1.45,1.46-2.08-.21-.01-.02-.47.25-.93h0s.04-.07.04-.07c.13-.22.28-.45.4-.61l-.4.61-.04.07c.04.23.33-.25.34-.06.09-.49.72-1.69,1-1.46-.24-.28.52-.86.51-1.31-.1.11-.21.2-.34.28l.33-.38s0,.07,0,.1c.41-.44.58-1.13,1.04-1.71-.32.11.28-.69.34-.97-.03.07-.08.22-.03.21.28-.1.29-.82.6-1.12.16-.12.15.14.32-.11-.13-.08.28-1.14.66-1.41-.1.17-.03.21-.04.34.77-1.83,2.11-3.48,2.86-5.38l.04.44c.93-.91.05-.93.58-1.77,1.49-2.29,3.25-4.54,4.45-6.92.03-.21-.14.05-.25.02.14-.18.37-.13.41-.47h-.16c.94-.87,1.55-3.17,2.53-3.64.39-1.12,1.14-1.63,1.57-3.02.33-.32-.05.57.28.07l.47-1.24-.02.07c.27-1.3,2.1-2.64,2.64-4.16l-.02.07c.07.08.33-.14.43-.38-.01-.11-.13.02-.28.11.57-1.3.72-1.57,1.26-2.55-.12.49.34-.32.53-.26.03-.32-.27.04-.03-.58.09-.16.19-.31.28-.47.11-.17.22-.34.32-.51.21-.33.42-.64.62-.92.57.39,1.11.76,1.62,1.11.11.02.22.05.32.07.08.02.16.05.23.07.14.04.26.06.32-.03.91.52,1.46.74,2.57,1.4v.08c.43-.06.88.69,1.17.67-.08.07-.22.03-.23.12l.55.22c-.28-.07-.55.08-.15.35.53.09-.05-.18.24-.2v.3c.14.06.42.14.48.07.04-.03.04-.08,0-.15-.05-.07-.18-.19-.25-.25.73.41,1.45.83,2.16,1.23-.36.65-.72,1.29-1.07,1.91ZM91.51,20.64h-.46c.15-.07.31-.15.47-.26.02.09.01.18,0,.26ZM92.4,20.64c.16-.07.34-.09.52-.01,0,0,.02.01.03.01h-.54ZM95.62,20.64h-.7c.28-.03.54-.07.73-.12-.03.05-.02.08-.03.12ZM95.98,34.23c.03.16.05.32.08.48-.03.02-.05.03-.08.05v-.53ZM95.98,46.51c.11.1.22.18.37.22-.1.08-.24.1-.37.1v-.31ZM95.98,82.26v-2.64c.13.7.29,1.37.53,1.97.16.63-.24.63-.53.67ZM97.27,65.53c-.27.21-.35-.09-.55-.08-.14.89.84,1.91.63,2.74l-.29-.27c-.44,1.68-.83,3.55-1.08,5.42v-19.05c.13.97.31,1.9.58,2.77-.15.15-.27-.04-.43-.13.83,1.92-.88,3.94.71,5.34l.67.51c-.26.45-.73.42-.96.77.44.38.12,1.75.71,1.98Z"/>
  <path class="cls-1" d="M41.83,73.2c.23.17.36.2.44.17l-.31-.31c-.06.04-.1.1-.12.15Z"/>
  <path class="cls-1" d="M54.51,84.91l.55.15-.52-.39c-.07.04-.08.14-.04.24Z"/>
  <path class="cls-1" d="M51.67,82.74c.22.08.33.09.4.07l-.43-.33.03.26Z"/>
  <path class="cls-1" d="M75.07,59.75c.04-.07.09-.17.16-.29h0c-.08.15-.12.23-.15.29Z"/>
  <path class="cls-1" d="M75.54,58.58c-.07.12-.03.2.06.2.11-.19.21-.37.31-.5-.16.14-.36.4-.37.31Z"/>
  <path class="cls-1" d="M25.43,75.67s.08.05.12.07c-.02-.17-.03-.34-.05-.52l-.06.46Z"/>
  <path class="cls-1" d="M25.39,29.12s0-.01,0-.02c-.04-.13-.07-.27-.14-.4-.02.15.03.24.13.42Z"/>
  <path class="cls-1" d="M94.03,98.97c.08-.37-.3-.8-.37-1.18-.59.55.15.77.37,1.18Z"/>
</svg>