<?xml version="1.0" encoding="UTF-8"?>
<svg id="Layer_3" data-name="Layer 3" xmlns="http://www.w3.org/2000/svg" viewBox="0 0 126.38 116.43">
  <defs>
    <style>
      .cls-1 {
        fill: #fff;
      }

      .cls-2 {
        fill: #202020;
      }
    </style>
  </defs>
  <g>
    <rect class="cls-1" x="29.87" y="19.77" width="66.65" height="76.89"/>
    <g>
      <path class="cls-2" d="M95.83,98.01c1.05-.17-.57-.64.69-.29-.14.29-.35.52-.69.29Z"/>
      <path class="cls-2" d="M97.45,93.16c-1.91-3.39.02-7.86-1.2-11.58-.08-.43,1.04.11.79-.87-1.48-3.6-.6-9.28.55-13.66l.29.27c.21-.84-.76-1.86-.63-2.74.2,0,.28.28.55.08-.59-.22-.27-1.6-.71-1.98.23-.35.7-.32.96-.77l-.67-.51c-1.6-1.41.11-3.42-.71-5.34.16.09.28.28.43.13-.97-3.09-.79-6.95-1.15-10.4.24.14.67.26.94.06-.71-.17-.89-1.24-1.03-2.16.73-.42-.66-1.59-.26-2.67l.16.09c-.76-.8.44-1.19-.47-1.84l.57-.51c-1.03-.35.53-1.16.01-1.82l-.21.02c-.25-.62.26-.95.09-1.53l.12-.06c-.27-1.36.3-2.15-.5-2.11.64-.48.29,1.31,1.22.57-.41-2.23-.58-4.5-.64-6.77l-.03-1.7v-1.53c0-1.01,0-2.01,0-3.01.12-.3.22-.55.3-.75-.09-.13-.13-.24-.03-.42-.6.16-1.85.15-2.44.56.15-.02-.06-.41-.29-.45-.35-.15-.67.07-.94.28-.29.21-.52.42-.9.24.34-.21.53-.47.46-.77-.46.31-.87.44-1.34.52-.46.08-.95.1-1.4.21.14-.14.36-.21.33-.47-.99.71-1.81-.15-2.67.3l.33-.46c-1.4-.56-.41.97-1.62.63.29-.15.19-.33.24-.52-1.13.84-2.95.56-4.07.85.07-.06.05-.19.05-.19-1.23.11-2.5-.16-3.85.21-.49-.21.16-1.13-1.14-.96.05.93-2.2.38-1.44,1.43-1.11-.15-2.86-.5-3.6-.19.5-.35-.54-1.13.38-1.21l-.7-.56c.1-.38.72.13.5-.35-.46.04-1.81.4-2.22.25-.85.57-1.64,1.63-3.02,1.75.65-.36-.37-1.02.07-1.18l-1.93,1.78c-.46.04-.1-.73-.77-.49.04.25-.25.4-.46.6-.17-.11-1.91.23-2.11-.68-.2-.36.75-.19.24-.52-.85,0-.89.32-1.74.34l-.02-.12c-.56-.14-1.65.39-1.04.89.39.03-.15-.55.43-.28-.4.53-1.38.68-2.23.69.29-.15.25-.39.37-.65-1.14.72-2.35.95-3.63,1.24-.02.43.48-.79.66-.56-1.64-.6-3.38.85-4.74-.03.22-.08.12.62.11.49-.79-.06-.75-.68-1.27-.45-.05-.37-.64.12-1.17.23-.27.27-.14-.18.32-.22-.74.32-3.68.88-5.38.34.03.25-1.05.9-1.44.87l.15-.57c-.36-.34-1.31.05-1.38-.44-.84.69,3.22-.59,2.09-.05-.29-.48-1.57.91-1.33.13-.79.02-1.55.66-2.3.13.22.09.64-.79,0-.75-1.12.1-.32.27-1.22.46l-.57.23c-.04.56-1-.07-.58.55-.03-.11-.15-.15-.31-.16-.14,0-.4.01-.45.02-.18.01-.35-.03-.39-.49,0-.24,0-.48,0-.73-.35.05-.38.77-.45,1.09-.05-.07-.18-.21-.21-.33.18.56.05.53-.15.48-.19-.05-.47-.14-.3.29-.34-.19-.66-.2-.96-.25-.05.23-.13.41-.48.28.34.71.74,1.17.5,1.48-.1-.12-.14-.25-.38-.37-.33.18-.03.39.15.67-.08-.04-.25.07-.44.27-.19.13-.41.72-.61.99.33.77.93.51,1.3.59-1.1.71.71,2.18-.29,3.07-.15-.27-.54-1.13-.82-.49-1.09.71.81,1.43.28,2.57l.91-.28c-.56.51.53,1.68-.4,1.56.33.38-.3,1.34.59,1.22-.75,1.87.45,4.55-1.14,5.7.15.27,0,.94.45.8.49-.45-.36-.62-.02-.79.03.24.27.29.39.32-.2.58-.27,1.04-1.01.49-.55,1.3,1.51,1.34,1.16,2.98-.37-.07-.51.05-.45.53l.63.92c-.15,1.07-.84.61-1.46.63.11.57.08,1.27.54,1.52l-.78.69c.57-.5.38.47.53.74l-.15-.27c-.26.11-.1.76-.02,1.1.39-.08.54-.75.65-1.12.27.29.21.74.53,1.13-.61-.13-.43.93-.5,1.38-.13.52.55.59.53.74-.32.01-.05.85-.5.44-.1-.18.31-.4.03-.7-.24.34-.79.3-.39,1.01.3.54,1.21-.14.82.88-.15-.27-.4-.32-.61-.52l-.32.95.56.04c-.14.13-.19.04-.26.1.59.28.18,1.45.84,1.67.06.48-.39,1.01-.45,1.47l-.05-.09c-.33.56-.11,1.3.26,1.77l-.12-.03c-.04.31.04,1.03.37,1.41-.42.77-2.1.26-1.4,1.11.02.78,1.02,1.23,1.38.91-.38,1.41.53,3.01-.33,4.31.22.2.37.07.5.49-.22,2.07.66,4.37-.43,6.01-.23-.6-.56-.04-.87-.03.5.49-.52.59.34.77.5-.05.75,0,.95-.58.27,1.23.27,3.11-.2,3.79.23-.34.39-.08.54.19-.8-.09-.92.82-.64,1.51l.49.1-.5.45c.16.26,1.02.29.55.98-.19.04-.38.07-.52.2.4.71,1.08,1.72.66,2.49l-.71.63c.08.33.51.89.71.3-.43,1.32-.48,2.17-1.1,2.59.75,1.14,1.14,2.53,1.33,3.96l.06.54c.02.16.03.44.04.42.02.09.04.17.05.25.01.16,0,.33-.03.5l-.37.2c-.34.45.64-.32.39-.03-.35.17-.76.78-1.19.89-.24.49.07.41.38.22.26-.18.49-.36.61-.42.46-.48-.45.31.17-.3.15-.17.09.37.63-.35-.14.29-.51.82-.78,1.12.16-.12.31-.23.44-.35-.1.42-.44.8-.95,1.21-.48.4-1.16.83-1.25,1.36l.53-.11c-.02.38-.46.6-.82.75-.35.15-.59.24.03.37.89-.36,1.74-1.41,1.53-1.73.95-.2,1.13-1.73,1.61-1.67.07.43-.44.1-.53.7.07.29.29.21.46.08.09-.06.17-.14.25-.19.1-.05.09-.07.27-.01-.19-.07-.15-.17-.18-.28-.01-.11,0-.23.03-.35-.02-.23.29-.45.48-.52.71.34-.46.69.54.76.17-.42,1.09-.73.29-1.03.36-.95,1.04.26,1.59-.47.33.67-1.03,1.55.07,1.88-.17-.65,1.36-.88.78-1.83.43.19.48.69.16,1.09.62.4,1.5-1.18,1.7.1l.21-.66c.19.21.47.38.79.73.54.01,1.75-.89,1.7.1.17-.1,1.42-.06.94-.75-.77-.42-.89.5-1.32-.43.54.76,1.11-.1,1.56-.35l.07.38c.27-.15.88-.07,1.04-.48-.2.22-.1.48.11.58l.28-.59c1.08-.29.25,1.03,1.31.86l-.8.45c.17-.1.53.45,1.04.27.2-.54.56-1.18.73-1.59.59-.23.27.6.85.05l-.76.64c-.12.18.52.88,1.31.87.51-.18,1.29-.96.49-1.25.4,0,.95.32.64.71.9-.18-.12-.57.66-.91.32.36,1.31.86,1.9,1.38l-.81.89h.54c-.7.73.35.56-.04,1.31.37.12.81-.14,1.17-.34-1.08-1.21,1.21-1.66.89-2.76,1.47-.3.92,2.69,2.46.96-.25-.29.47-1.13-.45-.81.92.12.62-1.11,1.7-.65-.8.45.86,1.12-.3,1.78.08-.37-.65-.28-.82-.17.38.42-.08,1.11.86,1.11.57-.11,1.36-.13,1.24-.7-.02-.63-.87.07-.51-.57,1.14-.22,1.33.74,1.8-.38-.72.09-.9-.56-.89-1l.84-.26-.16.42c1.34.3.4-.76,1.7-.65l.61.83c-.31.71-1.89-.32-1.66.85.85.05,1.13-.54,1.92-.24-.18.1-.42.13-.6.23.3.04.61,1.58,1.81.68.62-.35.16-.41.18-.85,1.36-.13,1.76-.58,2.64-.64-.18.85,1.55.08.58.95-.44-.5-2.41-.45-2.89.36.49,1.01-1.07-.14-1.36.88,1.09.02,1.04,1.01,1.21,1.66.3.05.6-.23.78-.33.13-.61-.27-.6-.29-1.23,1.22.17,2.39-.18,3.06-.77.41.3.28.91-.2.97,1.45-.18,2.99-.1,4.36.09-.89-1,1.53-.23.93-1.06-.74-.22-1.37-.93-.96-1.38.46.06-.01.44.18.65.59-.55.91.87,1.49.01-1.32.32-.26,1.22-.5,2,.95-.44-.04.56.9.56.95-.43,2.12-.78,3.17-.95,1.32.74,3.36.01,4.54-.02.62.4.2,1.28.87,1.43.79-.02-.59-.95.58-.55l-.11.18c.35-.21,2.14.6,2.49-.67l-.36.96c.22.09.42-.13.6-.23,0,.31.26.6-.09.8.72.66,1.51-.11,2.3-.13l-.5-.57c1.34-.44,2.24.12,3.54-.08l-.04.56.77-.33c-.19.54.52.88.93.43l-2.01,1.36c-.56-.33.61-.67.26-1.22-.3-.48-1.5-.33-1.69.21.46.06.48-.06.84-.26.15.77-.55.74-.89,1.26.24-.03.58.2.63-.04-.47.38-.95.44-1.74.45.53-.3-.29-.48-.09-.7-.06.68-.81.89-1.79.7-.7-.78-1.83.5-2.96.29.46-.69,1.04-1.24,1.73-1.52-.71-.35-.79.02-1.5-.33-.34.51-.59,1.3-1.51,1.61l-.05-.51c-.84.26-.84,1.01-1.9.87-1.83-.25-3.7-.25-5.1-.31l-.05-.51c-.77,1.08-2.58.4-3.63.88-1.78-.49-3.86.48-4.77-.39-3.13.39-5.87.77-9.12.58l.55-.74c-.58.54-.38-.42-.95-.32.65.59-.79.77-1.19,1.22-1.44-.57-3.3.05-4.58.57l-.05-.51c-1.3.95-2.84.12-4.45-.04-.19-.21-.48-.69-.96-.63-.88.82-1.33.76-2.62,1.27-.94,0-2.46-.2-3.41-.52-1.76.58-3.54.68-5.34.73-1.42.03-2.85.05-4.29.08-1.47.05-2.98.13-4.67.3l.02-.08.52-.87c-.32-1.07-.48-2.5-.57-4.04-.04-.77-.06-1.57-.07-2.36,0-.76,0-1.74.01-2.08.05-1.92.17-3.77-.15-5.28l1.02.29c.31-.95-.27-2.17-.99-1.93.31-.95-.49-2.38.34-2.98.19-.97-.47-1.19-.61-2,.39-1.95.3-2.68.11-4.51l-.06.46c.22.2.66.22.72-.24-.28-.69.27-2.52-.94-1.84.7-1.96-.57-4.58.38-6.49-.33.16-.4-.32-.62-.52-.01-1.72.66-3.53.1-4.91.17-.27.56.44.6-.26-.13-.42-.43-.01-.62-.52-.62-2.79.64-5.65.48-8.19-.64-4.51-.32-9.22-.43-13.54l.24.05c-.93-1.45.96-3.4-.45-4.55.23-.34.11-1.31.58-1.05-.66-1.15.62-3.23-.22-4.89-.02.15.03.24.13.42.27-.84.22-1.63.16-2.44l-.04-.61c0-.34-.02-.69-.01-1.04,0-.71.05-1.43.18-2.13.1.34.18.9.43,1.04.23-.48-.02-1.18-.19-1.87-.17-.67-.25-1.3.34-1.23-.01-.62-.59-.84-.56-.41.08-1.08.12-2.16.14-3.29,2.72.04,5.35-.08,8.19-.24.84-.04,1.12-.08,1.56-.12l1.26-.13c.84-.08,1.68-.16,2.52-.21,2.9.7.18,1.98,2.47,1.1.19.23.14-.45.17-.21.89-.33,1.38,1.31,1.99.7-.25-.72.41-.4.43-.84,1.77.47,2.13,1.12,3.53.57l-.11.38c1.64-1.07,3.54-.5,4.93-1.74,9.05-.22,17.72-.91,26.54-1.06,2.79.08,5.56.07,8.33.05,4.53-.01,9.06-.03,13.62-.04,0,3.07-.03,6.18-.08,9.27l-.02,1.16-.02.73-.06,1.19c-.05.79-.1,1.59-.15,2.39-1,2.08-.97,2.23-.57,4.51-.16-.09-.2-.24-.35-.08.82.11.08,1.6.86,1.82-.15,3.27.07,6.29.08,9.66-.09-.53-.76-.8-.7-.17l.52.66-.23.11c.12.43.53.9.79.46.71,8.46-.94,16.79-.73,25.08-.34,1.97-.03,4.77.14,6.91-1.09,6.34-1.98,12.05-1.21,18.49,0,0-2.12-.84-2.61-3.5Z"/>
      <path class="cls-2" d="M94.56,98.09c-.23-.41-.96-.63-.37-1.18.07.39.45.82.37,1.18Z"/>
      <path class="cls-2" d="M74.88,93.87c-.03.12-.28-.17-.34-.23.24-.03.47-.38.66-.16-.25.03-.21.22-.32.4Z"/>
      <path class="cls-2" d="M69.85,93.63c.08-.37,1.15-.65,1.79-.7l-1.79.7Z"/>
      <path class="cls-2" d="M65.16,92.12c-.41-.31-.29-.48.25-.47.04.19-.14.29-.25.47Z"/>
      <path class="cls-2" d="M64.83,92.96c-.39,0-.58-.21-.77-.42.02.31.9-.2.77.42Z"/>
      <path class="cls-2" d="M54.65,91.89c-.25.03-.77.33-1-.07.26.28,1.19-.46,1,.07Z"/>
      <path class="cls-2" d="M49.92,92.45c-.15-.02-.22-.09-.39.01-.28-.17.02-.43.25-.47l.14.46Z"/>
      <polygon class="cls-2" points="32.61 30.59 32.79 31.11 32.43 31.03 32.61 30.59"/>
      <path class="cls-2" d="M56.78,22.49c.51-.23.36.34.44.4-.46.04.17-.45-.44-.4Z"/>
      <polygon class="cls-2" points="77.12 20.67 76.97 20.68 77.02 19.94 77.12 20.67"/>
    </g>
  </g>
  <g>
    <path class="cls-2" d="M58.1,87.51c-.09-.04-.19-.08-.29-.1-.09-.14,0-.16.01-.21-.22-.01-.68-.07-.52.34.21,0,.31.03.42.06.1.02.21.05.34-.05.02.02.05.03.07.04.14-.21.27-.23.28-.09.03-.17.32-.38.32-.67-.26.12-.44.3-.62.68Z"/>
    <path class="cls-2" d="M54.6,85.56c.08.04.15.07.22.08l-.19-.11s-.02.02-.04.02Z"/>
    <path class="cls-2" d="M62.9,81.32s-.02-.01-.03-.02c0,.04.01.05.03.02Z"/>
    <path class="cls-2" d="M69.86,69.27c-.1.05-.2.07-.28.08.17.02-.12.63.28-.08Z"/>
    <path class="cls-2" d="M54.68,85.46c-.06.03-.1.03-.17,0,.04.03.09.06.13.08.03-.02.05-.04.04-.08Z"/>
    <path class="cls-2" d="M58.56,67.85l.4-.61c-.12.16-.27.39-.4.61Z"/>
    <path class="cls-2" d="M60.02,65.37c.13-.07.24-.17.34-.28,0-.03,0-.07,0-.1l-.33.38Z"/>
    <path class="cls-2" d="M88.65,32.64c.07.06.2.18.25.25.05.08.05.13,0,.15-.06.07-.34,0-.48-.07v-.3c-.29.01.29.28-.24.2-.4-.27-.13-.42.15-.35l-.55-.22c0-.08.15-.05.23-.12-.29.02-.74-.74-1.18-.67v-.08c-1.1-.66-1.65-.87-2.56-1.4-.07.09-.18.07-.32.03-.07-.02-.15-.04-.23-.07-.1-.02-.21-.05-.32-.07-.51-.35-1.05-.72-1.62-1.11-.2.28-.41.59-.62.92-.11.17-.21.34-.32.51-.09.15-.18.31-.28.47-.24.62.07.26.03.58-.2-.06-.65.75-.53.26-.54.98-.69,1.25-1.26,2.55.15-.09.27-.22.28-.11-.1.24-.37.46-.43.38l.02-.07c-.54,1.52-2.36,2.86-2.64,4.16l.02-.07-.47,1.24c-.34.5.05-.39-.28-.07-.42,1.39-1.17,1.9-1.57,3.02-.97.47-1.58,2.78-2.53,3.63h.16c-.04.35-.26.3-.41.48.11.03.28-.23.25-.02-1.2,2.38-2.96,4.63-4.45,6.92-.54.84.34.86-.58,1.77l-.04-.44c-.75,1.9-2.09,3.55-2.86,5.38,0-.13-.06-.17.04-.34-.37.26-.79,1.32-.66,1.41-.17.26-.16,0-.32.11-.31.3-.32,1.03-.6,1.12-.05.02,0-.13.03-.21-.06.28-.66,1.08-.34.97-.46.59-.63,1.27-1.04,1.71.02.46-.74,1.03-.51,1.31-.28-.23-.91.97-1,1.46-.01-.19-.3.29-.34.06-.27.46-.46.92-.25.93-.87.63-.7,1.88-1.46,2.08-.28.65-.57,1.28-.85,1.89l-.11.23c-.03.07-.02.07-.04.11l-.07.2c-.05.14-.11.29-.18.45-.06-.04-.11-.08-.16-.12.02-.16.07-.17.13-.14.07-.18.2-.31.04-.51,0,.09-.02.23-.05.39-.07.03-.17.02-.31-.05-.03-.02-.07-.04-.11-.07-.04-.03-.06-.04-.15-.13-.15-.14-.31-.3-.47-.48-.21-.28.25.03.38.07-1.06-.85-1.83-1.87-2.81-2.58.03-.02.14.04.25.11-.18-.16-.35-.43-.45-.29l.19.13c.1.43-1.01-.32-1.13-.26.61-.04-.76-.92.11-.89-.13-.09-.32-.17-.38-.07-.14-.19-.15-.28.1-.2-.66-.54-.57-.2-1.11-.75.06-.05.19.03.31.03-.38-.17-.77-.34-1.18-.84.06,0,.05-.1.19.04-.81-.77-1.63-1.06-2.4-2.03.5.01-.22-.37-.05-.63l-.53-.4.09.29c-.4-.41-.92-.62-1.2-1.04l.39.22-.8-.72.35.51c-.52-.31-.22.31-.71-.29.13.09-.41-.41-.5-.75h0c-.28-.14-.52-.25-.84-.67-.05-.19.24-.22.21-.34-.23-.04-.59-.39-.95-.72-.3.33-.6.66-.68.92.07-.16.03-.34-.02-.33-.05.15-.1.28-.13.41-.27.18-.34.21-.38.07-.64.58.43.1-.36.67.04-.06,0-.06.08-.19-.74.62-1.22,1.4-1.91,1.95-.39-.03.49-.6.1-.56-.43.47-.83,1-1.24,1.51-.2.26-.41.51-.62.75l-.16.18-.22.22c-.14.15-.29.29-.44.43l.25-.2c.16.21-.21.38-.7.73.12.21.33.49.63.68-.17-.12-.44-.11-.35-.09.2.22.42.45.65.67.2.19.35.31.54.47.38.3.81.64,1.31,1.04l-.19-.04c.28.42.88.96,1.23,1.38.19.04.39.27.37.02.73,1.6,2.46,1.99,3.13,3.39-.12-.12-.36-.23-.26-.13l.95.81c.06-.2-.04-.19-.12-.48.19.03.5.22.72.44-.48-.31-.2.21-.11.45.01-.07.11-.05.14-.11.23.69.34-.18.81.6l-.1.03c.27.2.58.33.81.6-.04.26-.32-.18-.46-.07.37.35.99.42,1.16.89-.19-.11-.41-.33-.6-.44.18.53.26.52.49.81l-.02-.03.52.68-.11-.2c.84.06.98.84,1.84,1.18-.83-.34-.24.04-.45.17.11.2.29.49.17.47.42.15.37.58.97.78-.04.07.3.31.1.38.41.33,0-.18.11-.22.3.16.49.38.78.73.5.47.93.97,1.65,1.23.82.44,1.14.4,1.83.75l.21.16c.05.18-.4,0-.4,0,.33.39.65.61,1.08.82-.12,0-.07.1,0,.26.32.21.37-.07.71.32-.12.02-.29.06-.49.02.4.21.84.37,1.26.59.02.18-.35,0-.53-.04.47.28,1.12.7,1.45.67-.1-.11-.19-.2-.25-.29.16.11-.03.21-.17.15-.46-.14-.47-.45-.45-.53l.29.16c0-.57-1.11-.74-1.62-1.17l.34-.08,2.93,2.21.8-1.19.03-.06c.09.1.18.2.29.27-.05.02-.12.07-.19.2.02.12.04.26.05.4l.27-.52s0-.02-.02-.04c.17.04.39-.04.76-.42l.18-.75.27-.11-.3.54c.32-.22.31-.49.35-.75.11,0,.22-.06.33-.17l.06-.8c.17,0,.08.43.4.05.03-.38-.44.12-.25-.42.32-.22.39-.06.48-.49.11,0,.12.1.07.27.09-.38.45-.87.38-1.13.36-.21.58-1.1.87-.89-.01-.14.09-.7.25-1,.05.75.66-1.08.97-.71-.09-.59.69-1.51.93-2.32,0,.05,0,.16-.04.21.26-.38.42-.44.63-.65-.24-.21.06-.86.09-1.28.54-.33.14.48.48.47-.23-.1.28-.97,0-.91.38-.28.26-.27.6-.33-.3-.26.15-.38.12-.8.48-.44.39.05.64-.6.27-.22.08.37.08.37.36-.59-.08-.43-.15-.64.35-.76.38-.22.65-.39.19-.48.16-.96.37-1.29.06,0,.11-.06.12.05.08-.59.81-1.4.88-2.1.05-.03.08-.04.1-.03-.18.01-.31-.05-.4-.12.15-.27.13-.59.36-.59-.1.16-.04.21-.04.32l.09-.32c.39-.11-.14.43.03.53.24-.59.42-1.35.74-1.73.28.05-.5,1.03.04.59l-.47.6c.66-.28-.26.38.4.15.57-.81.44-1.02,1.01-1.84-.02-.27-.23-.05-.24-.32.48-1.35,1.14-.61,1.36-1.68-.02-.32-.26-.58.27-1.13l.14.37c.51-.81-.1-.69.59-1.46.01.21-.29.7-.19.59.54-.44.08-.48.34-.92l.28.05c.48-.9.88-1.97,1.41-2.97.04.09.01.3.22.12.61-1.3,1.57-2.61,2.4-3.71l.07-.57c.06-.1.21-.14.18,0,.35-.42-.11-.1-.06-.37.14-.27.32-.28.28-.08.31-.92,1-2.54,1.72-3.27l-.04.2c.47-.62.03-1,.58-1.51l-.03.14c.94-1.4,1.7-3.12,2.65-4.05-.17-.38.97-1.36.63-1.69.69-.71.62-.43,1.44-1.52.2-.3.02-.61.21-1.02l.22.11.09-.65.42-.13.16-.39c-.1.14-.27.25-.32.19.24-.62.96-1.29,1.07-1.24l.61-1.44c.07.08-.04.32-.09.53.2-.84.3,0,.48-.77-.1.06-.1-.12-.13-.16.32-.25.76-.99,1.02-1.57l.08.19c.09-.16.19-.31.29-.47.11-.19.21-.38.32-.57.35-.62.7-1.26,1.07-1.91-.7-.4-1.43-.81-2.16-1.23ZM41.83,73.2s.07-.11.12-.15l.31.31c-.08.03-.2,0-.44-.17ZM51.67,82.74l-.03-.26.43.33c-.07.02-.18,0-.4-.07ZM54.51,84.91c-.04-.1-.03-.2.04-.24l.52.39-.55-.15ZM75.07,59.75c.03-.06.08-.15.15-.3h0c-.07.13-.12.23-.16.3ZM75.6,58.78c-.09,0-.13-.08-.06-.2,0,.09.21-.16.37-.31-.09.14-.2.32-.31.5Z"/>
    <polygon class="cls-2" points="85.78 42.29 85.73 42.27 85.72 42.39 85.78 42.29"/>
    <path class="cls-2" d="M44.09,75.8s0,.06.03.11c0-.01,0-.06-.03-.11Z"/>
    <path class="cls-2" d="M46.34,78.13l.27.38c-.11-.17-.2-.29-.27-.38Z"/>
    <path class="cls-2" d="M48.03,79.96s.08-.02.1-.03h0s-.1.03-.1.03Z"/>
    <path class="cls-2" d="M52.29,70.3s.05.04.08.06c.19.13.07.03-.08-.06Z"/>
    <path class="cls-2" d="M43.6,62.34c.12.06.23.12.34.19-.14-.16-.25-.28-.34-.19Z"/>
    <polygon class="cls-2" points="58.52 67.92 58.52 67.92 58.56 67.85 58.52 67.92"/>
    <path class="cls-2" d="M44.32,62.93c-.12-.18-.25-.3-.38-.39.11.13.24.29.38.39Z"/>
    <path class="cls-2" d="M56.45,86.99s.02-.02.03-.02l-.12-.06.09.08Z"/>
    <path class="cls-2" d="M56.61,87.03c-.05-.04-.09-.07-.13-.06l.13.06Z"/>
    <path class="cls-2" d="M56.97,87.23l-.36-.2c.12.09.26.2.36.2Z"/>
    <path class="cls-2" d="M52.98,84.26c.18.16.37.5.67.66l.06-.03c-.2,0-.47-.6-.73-.63Z"/>
    <polygon class="cls-2" points="39.37 63.13 39.04 63.28 39.05 63.52 39.37 63.13"/>
  </g>
</svg>