<?xml version="1.0" encoding="UTF-8"?>
<svg id="Layer_3" data-name="Layer 3" xmlns="http://www.w3.org/2000/svg" viewBox="0 0 300 300">
  <defs>
    <style>
      .cls-1 {
        fill: #fff;
      }

      .cls-2 {
        fill: #202020;
      }
    </style>
  </defs>
  <g>
    <path class="cls-1" d="M164.69,211.45l19.2-47.6c96.28,23,38.91-38.57,38.91-38.57,40.56-60.34-40.46-40.52-40.46-40.52-43.42-75.81-83.74-4.13-83.74-4.13-81.62,15.5-7.6,54.56-7.6,54.56l-7.28,52.25,80.97,24.01"/>
    <g>
      <path class="cls-2" d="M162.64,209.12c-.48,2.11,1.65-.58.02,1.51-.45-.49-.72-1.05-.02-1.51Z"/>
      <path class="cls-2" d="M158.43,207.59c-7.71,1.79-15.28-4.57-23.22-4.33-.89-.09.83-1.98-1.23-2.06-7.87.83-18.4-4.18-26.27-8.95l.69-.42c-1.5-.9-4.06.43-5.7-.35.1-.39.71-.38.47-1.03-.78,1.03-3.27-.39-4.26.26-.55-.66-.21-1.55-.94-2.32l-1.38,1.03c-1.82,1.17-3.53.6-5.14-.14-.81-.37-1.57-.78-2.41-1.07-.85-.29-1.77-.46-3.07-.41.48-.19,1.03-.29,1.04-.61-.84,0-1.71-.06-2.66-.16-.35-2.25-.18-5.46.09-8.79.26-3.23.6-6.45.7-9.56.44.34,1.29.72,1.88.39-1.39-.54-1.45-2.74-1.48-4.63,1.59-.63-.9-3.38.21-5.44l.3.23c-1.32-1.83,1.22-2.27-.45-3.83l1.3-.86c-1.98-1,1.4-2.18.53-3.66l-.44-.02c-.33-1.33.8-1.84.62-3.05l.26-.08c-.17-2.8,1.21-4.23-.42-4.39,1.43-.78.22,2.73,2.32,1.49-.07-1.66-.08-3.33-.06-4.83.01-.76.03-1.51.07-2.24l.06-1.1.03-.54.02-.27s0-.09,0-.13l-.13-.06c-1.27-.59-2.47-1.22-3.62-1.87-.58-.33-1.14-.65-1.72-1.01-.55-.34-1.25-.77-1.85-1.16-2.5-1.61-4.92-3.35-7.27-5.15-.43-1.16-.81-1.73-.61-2.36-.92-.3-2.82-1.95-3.99-1.91.25.18.11-1.01-.17-1.4-.77-1.58-2.58.05-3.36-1.82.83.23,1.37.03,1.64-.57-2-.21-3.28-1.93-4.73-3.17.39.07.81.31,1.16-.06-1.2-.34-1.69-1.17-2.07-1.99-.38-.83-.63-1.67-1.46-2.24l1.15.13c-.17-1.49-.64-1.45-1.23-1.37-.57.09-1.2.23-1.36-1.1.51.47.77.12,1.17.08-1.23-.73-2.02-2.2-2.34-3.81-.35-1.62-.2-3.3-.17-4.62.09.18.35.2.35.2.2-1.37.8-2.69,1.56-3.89.74-1.21,1.58-2.37,2.37-3.67,1.06-.43,1.35,1.81,3.07-.15-.65-.71.14-1.56.8-2.31.67-.72,1.21-1.38-.07-1.82.55-.28,1.19-.55,1.86-.82.66-.29,1.36-.54,2.02-.81,1.31-.56,2.52-1.04,3.09-1.67-.65,1.08,1.94,1.67.3,2.59.58.14,1.16.31,1.74.49.11.78-1.41.32-.61,1.04.78-.44,2.97-2.14,3.86-2.12,1.18-1.68,2.03-4.26,4.72-5.31-1.07,1.1,1.31,1.79.54,2.36.9-1.54,1.86-3.04,2.85-4.57.91-.32.57,1.4,1.78.59-.19-.47.32-.91.63-1.41.2.06,1.14-.29,2.13-.41.5-.07,1.01-.08,1.44.03.36.13.62.38.84.81.57.63-1.19.67-.14,1.12,1.54-.35,1.36-.95,2.77-1.26l.16.22c.13,0,.26,0,.38-.03.06-.01.13-.03.19-.05l.09-.03s.03-.07.04-.1c.17-.5.25-1.11.15-1.57-.1-.46-.39-.77-.84-.8-.34.44.87.71.05,1.02-.19-.73-.18-1.42-.04-2.02.07-.3.16-.59.28-.85.06-.13.12-.26.19-.39.08-.14.23-.38.35-.55-.09.68.35.91.69,1.35,0-1.32.36-2.68.8-3.92.45-1.26,1.04-2.48,1.66-3.75-.67-.58.64,1.8.03,1.82,1.54-1,2.33-2.64,3.18-4.19.44-.77.88-1.51,1.42-2.13.55-.61,1.21-1.06,2.04-1.28-.22.45-1.09-.69-.88-.54,1.26-1.16,2.13-.17,2.58-1.28.61.48.81-1.15,1.53-2.08.08-.8.46.08-.22.8.18-.39.58-.99,1.13-1.71.54-.73,1.25-1.56,2.1-2.35.83-.81,1.76-1.61,2.77-2.23.99-.64,1.99-1.18,2.97-1.41-.33-.36,1.09-2.84,1.99-3.18l.23,1.2c1.05.25,2.67-1.43,3.22-.58.57-1.06-.97.01-2.37,1.1-.72.52-1.33,1.12-1.69,1.42-.36.3-.46.31-.06-.25.53.26,1.02-.61,1.53-1.26.49-.68.89-1.22.99-.38.8-.4,1.41-1.15,2.18-1.63.75-.51,1.57-.89,2.56-.68-.55,0-.79,2.04.5,1.46,2.33-.96.5-.75,2.39-1.7l1.16-.82c-.16-1.14,2.37-.26,1.15-1.34.25.43,1.19.13,2.08-.04.89-.2,1.75-.07,1.68.85l-.23,1.5c1.07-.17,1.7-1.66,2.62-2.36.15.13.46.42.4.66.09-1.17.8-1.07,1.65-.9.85.17,1.82.42,2.63-.4,1.19.57,2.71.92,4.07,1.29,1.33.43,2.42,1.04,2.73,1.87,1.98-.15,3.83-.09,5.53,1.24-.48,0-1.02-.17-1.34.22.44.58.79.76,1.19.83.41.06.85.01,1.43.17-.38.17,1.51,2.48,2.19,3.86,1.76.41,2-.9,2.58-1.42-.02,1.4,1.15,1.83,2.41,2.32,1.3.45,2.49,1.1,2.54,2.5-.65-.18-2.54-.84-1.89.53-.18,1.36.64,1.55,1.67,1.74,1.02.2,2.31.36,2.72,1.67l.93-1.75c-.09,1.61,3.29,1.98,1.71,3.08,1.07.17,1.5,2.56,2.68,1.19.67,2.09,2.38,3.85,3.77,5.64,1.28,1.83,2.29,3.64,1.62,5.54.57.3,1.11,1.63,1.73.88.31-1.33-1.35-.69-.97-1.36.33.39.81.21,1.05.11.18.63.4,1.19.18,1.38-.16.26-.48.52-1.32.6.01,1.1.89,1.06,1.71.82.84-.21,1.58-.67,1.76.31-.47.67-.56,1.07-.22,1.41.09-.04.18-.08.27-.13.09-.05.17-.07.29-.23.26-.29.5-.58.72-.86.75.14.06,1.72-.32,3.09.81-.39,1.75-.5,2.05-1.53.26.49.59.98.99,1.45-.42-.52-.26-.74,0-.87.07-.03.14-.06.22-.09.12-.03.25-.07.37-.1.25-.07.47-.14.59-.24l-.5.4c.3.49,1.6-.05,2.27-.31-.27-.76-1.72-.86-2.52-.96.52-.65,1.48-.67,2.19-1.45-.08,1.28,2.07.6,3.04.61,1.12.13,1.1-1.26,1.43-1.26.1.64,1.81-.09,1.05.91-.35.24-.92-.53-1.47.1.78.4.81,1.52,2.21.55,1.07-.73-.53-2.43,1.7-1.85-.54.36-.6.87-.99,1.35l2.06.48v-1.14c.29.27.11.38.25.52.51-1.25,3.06-.56,3.47-1.92,1.04-.16,2.22.72,3.21.84l-.19.1c1.22.66,2.82.24,3.89-.48l-.07.25c.67.11,2.27.02,3.19-.57,1.67,1.03.16,4.31,2.17,3.11,1.68.18,3.05-1.64,2.45-2.49,1.56.66,3.35.77,5.15,1.14,1.79.37,3.61,1.07,4.76,2.62.69-.16.51-.6,1.65-.28,1.2.82,2.48,1.62,3.74,2.62,1.25.99,2.5,2.12,3.5,3.45,1.04,1.3,1.78,2.79,2.22,4.24.19.73.31,1.46.34,2.16,0,.7-.06,1.37-.22,2-.83-1.58-1.13.13-1.77.25,1.19,1.14-.82,1.64.95,1.92,1.01-.23,1.57-.1,1.73-1.85.61,1.77.76,3.99.58,5.9-.2,1.9-.75,3.47-1.39,4.19.65-.72.82-.03.97.7-.78-.29-1.35.1-1.7.77-.37.65-.56,1.56-.51,2.43l.88.52-1.32.67c.09.67,1.77,1.39.28,2.52-.39-.07-.79-.12-1.16.03.17,1.81.46,4.5-1.08,5.68-.65.2-1.28.41-1.94.59-.2.7,0,2.2.98,1.27-1.07,1.09-1.87,2-2.6,2.65l-.13.12-.08.02c-.06.01-.11.03-.16.04-.11.02-.23.05-.36.07-.25.04-.55.05-.9.03.67,1.19,1.06,1.86,1.35,2.34.8.34,1.26.61,1.6.91.08.07.16.15.23.23l.1.12.36.47c.57.76,1.11,1.51,1.61,2.26l-.71.31c.34,1.67,1.54-.12,1.75,1.07-.87,0-.59,1.86-2,1.37.61,2.23,2.68,1.59,3.77,2.65.95-.35-1.17-.65.03-1.09.45.01,1.04,3.05,2.49,2.6-.2.8-1.38.97-2.05,1.02l1.33.83c-.33,1.18-1.49.71-2.67.34-1.19-.38-2.4-.65-2.87.62.28.3.55.6.82.91-.76,1.75-3.12-1.75-2.05,1.03,1.28.69,3.7.65,3.7-.71.87,1.1,1.79.98,2.69.91.89-.07,1.76-.07,2.41,1.41-.4,1.16-1.33-2.2-2.15-1.08-.4,1.84,1.93,2.35,2.08,3.8-.09-1.6,1.8-1.07,2.45-.19-.01,1.87-1.71-.5-.97,1.8.94.05,2.32,2.08,2.22-.03,1.08.1,1.17.83,1.21,1.61.04.79.02,1.65.93,2.23-.57.61-1.49.05-2.29-.17-.8-.23-1.41-.23-1.43,1.21.59-.36,1.23.38,1.89,1.09.65.7,1.35,1.34,2.2.34-.09.67-.41,1.08-.81,1.2-.4.13-.87-.04-1.33-.43-.3.92.4,1.9.78,2.98.4,1.02.43,2.13-.88,2.29.42.29.83.59,1.24.91-.27.31-.52.69-.83,1.09-.33.4-.71.83-1.19,1.23-.25.86-.35,2.4-.75,3.61-.43,1.19-1.05,2.01-1.84,1.35-.1.28-.73,1.26-1.25,2.02-.48.77-.75,1.49.35,1.39.63-.34,1.05-.72,1.33-1.08.26-.37.41-.72.55-1.01.3-.58.54-.95,1.77-1.14-1.17.48-1.71,1.25-2.07,2.21-.4.91-.63,2.02-1.11,2.77l-.74-.4c-.51.92-2.51,2.1-2.6,3.12.41-.79-.24-1-.96-.81-.08.5-.17,1.01-.27,1.52-.82.62-1.23.7-1.58.69-.33-.03-.53-.24-.73-.46-.39-.45-.79-.87-2.12-.22l.9-.82.89-.89c-.19.19-.64.14-1.17.14-.53-.03-1.13-.01-1.71.39-.16,1.23-.75,2.72-1.02,3.68-1.52.88-.98-1.03-2.3.41.6-.58,1.14-1.12,1.71-1.73.19-.41-1.76-1.4-3.62-1.08-1.13.57-2.89,2.37-.83,2.71-1.01.16-2.41-.4-1.73-1.26-2.13.59.4,1.15-1.43,2-.41-.34-1.22-.74-2.09-1.17-.87-.44-1.77-.97-2.46-1.48.61-.62,1.2-1.24,1.77-1.86h-1.19c1.49-1.49-.78-1.11.04-2.67-.78-.22-1.71.31-2.47.68,1.13,1.26.49,2.1-.4,2.9-.89.81-2.02,1.56-1.72,2.7-3.35.44-1.68-5.58-5.26-2.32.5.63-1.25,2.21.84,1.73-1.98-.41-1.58,2.14-3.85.96,1.83-.74-1.58-2.48,1.04-3.55-.25.73,1.31.72,1.71.54-.72-.94.38-2.24-1.59-2.45-1.22.1-2.86-.07-2.77,1.12-.11,1.3,1.86.1.92,1.3-2.47.13-2.59-1.87-3.92.26,1.55.04,1.75,1.4,1.61,2.28l-1.88.29.47-.8c-2.76-1.04-1.07,1.42-3.82.76l-1-1.9c.88-1.31,3.89,1.28,3.76-1.15-1.75-.38-2.55.74-4.1-.17.41-.14.92-.1,1.32-.25-.62-.19-.7-3.41-3.5-2.03-1.41.46-.5.77-.69,1.64-1.42-.14-2.39-.03-3.23.09-.09.02-.24.02-.28.05.04.04,0,.07-.03.1l-.13.16c-.08.09-.15.16-.23.18.11-1.76-.75-.33-.38-2.07.21.57.52.87.88.84.02,0,.06,0,.06-.01-.05-.02.04-.01.13,0,.16,0,.32,0,.48,0,.32,0,.62-.04.91-.1.58-.12,1.07-.34,1.4-.7-.63-2.22,2.14.71,3.11-1.25-2.23-.44-1.73-2.43-1.84-3.8-.59-.21-1.28.23-1.68.36-.5,1.18.3,1.32.1,2.59-.6-.2-1.21-.34-1.81-.42-.4-.04-.71-.02-1.03.06-.62.16-1.08.55-1.26,1.13-.49-.74-.73-2.07-.11-2.05-1.03,0-2.04-.21-3.14-.55-.36.58-.69,1.19-1.09,1.73,1.87.82-.31,2.06,1.27,2.66.31-.16.78-.04,1.22.3.44.33.87.87,1.17,1.35-.17.07-.65-.77-1.01-1.05.35.63-.03.37-.38.26-.34-.13-.66-.1,0,.6-.12-.59-.57-1.12-1.19-1.57-.61-.47-1.4-.79-1.99-1.48.25,1.8-.9-.8-1.46.57.04.43.09.89.13,1.36.03.45-.04,1.1-.08,1.65-.11,1.14-.28,2.29-.52,3.34-2.41,1.93-2.57,6.31-3.42,8.56-1.22.86-2.58-.6-3.38.54-.56,1.5,2.26-.37.6,1.52l-.25-.35c.12.82-2.76,3.57-.62,5.19l-1.55-1.41c-.33.34-.07.89-.01,1.31-.6-.22-1.33.04-1.45-.79-1.8.85-.95,2.93-1.49,4.42l1.46-.52c-.18,2.87-1.92,4.13-2.53,6.72l-1.03-.5.04,1.7c-.88-.76-2.07.3-1.53,1.41l-1.06-4.82c1.04-.8.81,1.66,2.11,1.42,1.13-.19,1.76-2.57.89-3.34-.47.82-.25.95-.14,1.78-1.58-.31-.99-1.59-1.71-2.64-.12.48-.83.94-.41,1.22-.36-1.18-.11-2.12.46-3.62.16,1.23,1.13-.18,1.39.37-1.24-.64-1.07-2.21.03-3.9,2.02-.71.43-3.83,1.7-5.78.96,1.39,1.56,2.91,1.57,4.41,1.2-1.07.56-1.5,1.76-2.57-.71-1.04-2.02-2.1-1.91-4.08l1,.3c.15-1.77-1.28-2.35-.2-4.25,1.86-3.24,3.28-6.78,4.46-9.35l1,.29c-.68-1.28-.19-3.04.44-4.74.64-1.73,1.41-3.37,1.61-5.17.49-.66.86-1.49,1.26-2.28,1.97.5,3.84.69,5.58,1.02,1.74.32,3.31.77,4.2,1.7,2.22.3,3.54.31,5.07.44,1.5.1,2.97.19,4.44.32,2.94.21,5.87.57,9,1.06l-1.23,1.39c1.26-.98.65.95,1.81.84-1.17-1.32,1.71-1.43,2.54-2.29,2.72,1.38,6.41.17,8.63-1.03l.15,1.03c.57-.51,1.16-.81,1.77-.99.62-.16,1.25-.2,1.9-.2,1.31.04,2.71.23,3.99-.03.4.31,1.23,1.09,1.9.64.17-.52.26-.93.36-1.26.11-.33.22-.58.3-.84.18-.49.42-.96.43-1.75.27-.34.69-.73,1.09-1.22.4-.49.77-1.06,1.12-1.57-1.03-2.06-1.95-4.73-3.27-7.53-1.31-2.8-2.98-5.75-5.46-8.19l.74-1.09c-.93-.64-1.78-1.37-2.6-2.16-.41-.39-.81-.8-1.19-1.22l-.58-.63-.29-.32-.4-.47c-2.57-3.13-5.41-6.29-7.98-9.24,2.57-3.93,5.04-7.5,6.57-11.09.43.64.88,1.25,1.35,1.83.13-.14.25-.28.36-.43l.29-.39c.14-.19.26-.4.36-.61.2-.43.3-.88.3-1.31,0-.85-.38-1.56-1.13-1.71.72-.63.96-1.72,1.3-2.66.33-.95.68-1.75,1.7-1.92,1.01-1.46-.1-2.31.05-3.66.44-.7.74-1.29.99-1.84.2-.53.39-1.04.46-1.51.17-.95.16-1.9-.03-3.01l-.15.56c.46.26,1.34.36,1.49-.28-.12-.25-.18-.55-.22-.87-.01-.34-.07-.64-.15-.9-.18-.53-.6-.65-1.73-.09.27-.49.22-.94.04-1.31-.21-.35-.5-.64-.9-.87-.73-.49-1.67-.93-2.37-2.35-.1.7-.73.57-1.13.89-1-.4-2.13-1.1-3.39-1.57-1.25-.47-2.58-.73-3.8-.29-.43-.39.88-1.07-.33-1.27-.75.19-.11.88-1.01,1.18-2.44.45-4.92.09-7.49-.26-2.55-.36-5.15-.7-7.53-.28-2.19.59-4.4,1.11-6.62,1.61-4.2.81-8.51,1.94-12.77,2.94-2.04-3.21-3.99-6.56-5.95-9.77l-.73-1.21-.37-.6-.17-.28-.11-.15c-.28-.41-.57-.82-.85-1.22-.57-.81-1.14-1.61-1.71-2.4l.46-.21c-.78-.28-1.28-.83-1.68-1.47-.42-.61-.73-1.34-1.05-2.04-.65-1.39-1.33-2.75-3.12-2.58-.05-.76-1.41-1.87-.39-2.18-.6-.16-1.09-.56-1.53-1.09-.22-.26-.43-.57-.65-.87-.22-.29-.46-.59-.69-.9-.47-.62-.97-1.25-1.56-1.78-.3-.26-.61-.51-.96-.68-.36-.15-.74-.26-1.16-.31.18.19.36.2.74.22-.4-.64-.89-1.16-1.42-1.61-.54-.42-1.09-.88-1.7-1.13-.6-.29-1.2-.59-1.77-.97-.29-.19-.57-.4-.84-.63-.28-.2-.56-.41-.82-.68.36-.07.91,0,1.23-.39-.29-.66-1.16-.48-1.84-.42-.69.06-1.21-.02-1.05-1.26-.62-.17-.85,1-.48,1.04-2.7-1.52-5.88-1.97-8.89-1.53-3.04.43-5.92,1.71-8.71,3.26-2.37.38-2.98-.47-3.21-1.03-.23-.56-.2-.85-1.47.96-.52-.23.28.91-.03.51-.49.65-1.34.43-2.14.26-.79-.18-1.53-.31-1.62.52,1.24.93-.11,1.09.41,1.85-1.53.59-2.67.73-3.54,1.11-.87.36-1.56.84-2.1,2.17l-.39-.7c-.37,1.84-1.31,3.2-2.19,4.56-.84,1.38-1.6,2.76-1.42,4.55-1.21,1.56-2.35,3.17-3.41,4.8-.26.41-.53.81-.78,1.23l-.55.87c-.25.41-.51.82-.76,1.24-.97,1.69-1.93,3.41-2.87,5.12-1.5.37-3.05.7-4.58,1.05l-2.31.52-1.19.28-.42.11-.29.08c-1.57.42-3.11.88-4.63,1.35-3.03.96-5.96,2.01-8.68,3.18-2.72,1.16-5.24,2.47-7.27,3.82-2.05,1.32-3.41,2.82-3.77,3.52-.28.41-.31.39-.33.6-.05.19.06.83.49,1.78.87,1.93,3.01,4.59,5.58,7.03,2.58,2.48,5.62,4.89,8.8,7.25l2.42,1.76,1.23.87.62.43.37.25.6.39c.75.5,1.72,1.1,2.62,1.67.91.56,1.84,1.11,2.78,1.65,1.85,1.08,3.7,2.16,5.56,3.24-.03.29-.1.62-.16.94-1.66,4.46-2.43,6.44-2.87,8.54-.4,1.89-.6,4.91-.44,6.76-.3-.23-.34-.53-.69-.26,1.63.46-.29,3.25,1.23,3.91-1.23,6.54-1.62,12.66-2.55,19.44-.03-1.1-1.31-1.82-1.38-.54l.87,1.48-.49.15c.12.9.81,1.97,1.47,1.14-.08,1.51-.2,3.01-.35,4.51l-.25,2.24-.14,1.12-.07.53h0c.01-.07-.08-.12-.25,0-.15.1-.24.27-.18.5l.03.09v.02s.25.09.25.09l.48.18,1.93.73,3.86,1.45c5.15,1.91,10.32,3.72,15.59,5.14,3.63,1.81,9.26,2.81,13.52,3.71,11.7,5.8,22.3,10.83,35.28,13.04,0,0-2.87,3.67-8.33,3.1Z"/>
      <path class="cls-2" d="M163.45,206.67c.95-.11,1.93-1.33,2.53.2-.79-.16-1.89.23-2.53-.2Z"/>
      <path class="cls-2" d="M186.02,173.8c-.2-.16.39-.07.53-.03-.04.25.51.79.07.71.02-.22-.33-.4-.6-.69Z"/>
      <path class="cls-2" d="M188.88,171.31c.14.64-.16,1.08-.39,1.25-.02.13-.02.28-.04.37-.04-.2-.08-.45-.1-.64.09-.35.26-.67.53-.98Z"/>
      <path class="cls-2" d="M194.2,175.55c.72.79.43,1.08-.7.84,0-.41.41-.53.7-.84Z"/>
      <path class="cls-2" d="M195.2,174.01c.81.13,1.13.63,1.46,1.12.08-.64-1.95.06-1.46-1.12Z"/>
      <path class="cls-2" d="M216.87,178.7c.57-.05,1.76-.63,2.31.17-.61-.55-2.76.91-2.31-.17Z"/>
      <path class="cls-2" d="M228.04,176.92c.39-.02.56.12.98-.19.79.18.12.9-.47,1.06l-.51-.87Z"/>
      <polygon class="cls-2" points="169.34 57.98 170.43 58.5 169.78 58.9 169.34 57.98"/>
      <path class="cls-2" d="M97.26,72.4c-.24,1.17-1.02.23-1.21.32.51-.87.55.82,1.21-.32Z"/>
      <polygon class="cls-2" points="64.61 91.38 64.86 91.15 65.74 92.4 64.61 91.38"/>
    </g>
  </g>
  <g>
    <polygon class="cls-1" points="172.18 212.49 81.31 183.45 69.48 224.87 158.75 250.05 172.18 212.49"/>
    <g>
      <path class="cls-2" d="M170.71,214.93c1.05-.02-.11-1.41.8-.36-.31.53-.63.91-.8.36Z"/>
      <path class="cls-2" d="M169.26,214.96c2.6,4.33-2.54,6.98-1.37,11.12.02.44-1.98-.82-1.8.23,1.71,4.22-1.8,8.66-5.4,11.77l-.48-.44c-.67.58.86,2.23.37,2.77-.37-.16-.45-.43-1.01-.5,1.05.65.1,1.37.78,2.15-.51,0-1.32-.57-1.87-.6.35.39.69.8,1.02,1.23,1.16,1.62.81,2.44.34,2.99-.48.59-1.06.87-.78,2.6-.19-.43-.3-.85-.56-1.06.09.83.09,1.64.04,2.46-.88.28-2.17.15-3.52-.06-1.36-.21-2.78-.49-4.22-.59.18-.45.34-1.33.2-1.94-.23,1.44-1.34,1.51-2.36,1.52-.03-1.56-1.83.9-2.6-.17l.17-.3c-1.15,1.3-.84-1.17-1.94.46l-.14-1.26c-.89,1.93-.76-1.34-1.65-.49l-.1.42c-.71.33-.72-.76-1.34-.57l.02-.25c-1.38.19-1.78-1.14-2.2.44-.08-1.38,1.36-.24,1.2-2.26-4.52.48-8.61-1.02-12.7-2.14-.29-.76-.53-1.04-.46-1.67-.5.2-1.62-.14-2.22.56.15,0-.04-.88-.23-1.02-.58-.8-1.3,1.51-1.92.57.44-.33.7-.81.75-1.42-1.04,1.03-1.92.58-2.85.74.2-.23.45-.33.55-.83-1.29,1.14-1.56-.76-2.6-.1l.55-.83c-.96-1.46-.91,1.8-1.83.84.34-.21.35-.6.5-.95-1.49,1.37-2.99.35-4.17.62.1-.11.15-.36.15-.36-1.17-.11-2.19-.95-3.62-.57-.33-.53.77-2.18-.5-2.18-.47,1.84-2.21.19-2.1,2.45-.92-.58-2.32-1.72-3.17-1.29.65-.57.14-2.37,1.02-2.29l-.32-1.28c.31-.72.58.44.64-.56-.44-.05-1.87.33-2.16-.07-1.09.9-2.39,2.79-3.72,2.67.79-.55.23-2.11.72-2.31l-2.74,3.01c-.44-.03.32-1.47-.42-1.16-.1.49-.45.72-.75,1.06-.1-.25-1.87-.03-1.54-1.88.02-.76.79-.19.51-.96-.78-.2-.98.4-1.77.22l.05-.24c-.44-.41-1.72.34-1.45,1.49.34.16.17-1.12.55-.45-.65.95-1.63.98-2.41.79.35-.22.45-.71.7-1.18-1.44,1.12-2.66,1.26-3.99,1.52-.26.85.87-1.44.91-.93-1.15-1.6-3.54.82-4.29-1.27.25-.1-.23,1.25-.18,1-.69-.31-.3-1.54-.9-1.21.16-.74-.65.07-1.19.15-.4.46-.03-.39.42-.35-.42.22-1.38.42-2.39.37-.25-.01-.51-.04-.76-.08-.34-.07-.73-.17-1.07-.29-.7-.23-1.33-.55-1.76-.96-.09.24-.65.56-1.28.78-.63.23-1.35.36-1.62.25l.88-.97c-.07-.75-1.85-.41-1.27-1.29-1.04.45.26.5,1.45.48,1.19-.02,2.27-.11,1.29.18.06-.49-.66-.21-1.32,0-.65.22-1.2.39-.55-.25-.52-.13-1.25.02-1.91.04-.65.02-1.23-.08-1.29-.67.16.24,2.05-1.1,1.23-1.25-1.52-.21-.83.35-2.32.33l-1.18.17c-1.13.86-1.19-.49-1.88.64.37-.38-.33-.43-.87-.56-.55-.13-.92-.33.22-.99l1.84-1.03c-.68-.08-2.73.86-4.04,1.17.08-.12.27-.38.6-.54-.89.49-1.36.61-1.68.58,0-.45,1.19-1.78-.11-1.62.68-.95.96-1.84,1.3-2.69.34-.84.74-1.62,1.64-2.16-.5-.77-1.1-1.65-.21-2.97.16.22.14.54.65.52.94-.84.33-.91.14-1.58.32.11,1.83-1.56,2.85-2.2-.43-.97-1.75-.83-2.48-1,2.5-.56-.51-3.48,1.63-3.56.23.33.77,1.33,1.48.9,2.34-.03-1.23-1.75.11-2.49l-1.87-.26c1.24-.14-.6-1.82,1.2-1.19-.55-.53.94-1.05-.84-1.44,1.96-1.28.29-4.39,3.72-4.54-.22-.33.25-.85-.68-.98-1.09.13.54.77-.17.72,0-.23-.46-.42-.69-.51.55-.41.8-.79,2.11.12,1.42-.87-2.63-2.06-1.52-3.36.7.27,1.01.24,1.02-.23l-1-1.19c.56-.89,1.8-.08,3.04.25-.06-.58.18-1.19-.67-1.69l1.72-.19c-1.25.14-.62-.64-.85-.97l.23.33c.54.05.39-.64.33-.98-.78-.15-1.26.38-1.58.65-.46-.42-.22-.79-.76-1.33.59.23.86.08,1.02-.17.17-.3.28-.89.42-1.15.45-.59-.82-1.21-.72-1.42.61.24.44-1.14,1.11-.19.12.32-.74.29-.32.91.58-.29,1.6.27,1.11-1-.36-.99-2.29-.98-1.17-2.02.17.54.6.87.92,1.36.31-.31.62-.6.93-.88l-.98-.7c.3,0,.35.17.51.18-.94-1.09.23-2.16-.81-3.42.11-.8,1.07-.86,1.34-1.36l.04.2c.76-.2.67-1.53.28-2.96l.18.28c.19-.34.34-1.5,0-2.79.94-.17,3.2,4.46,2.48,1.76.23-.96-.98-4.17-1.6-4.65.04-.04.08-.08.11-.13,1.17.67,2.01.65,2.98.82.95.16,2.02.52,3.19,1.78.13-.44-.15-.83.37-.95,1.57.74,3.08.86,4.63,1.24,1.53.37,3.07.98,4.02,2.46-.91.21-.24,1.12-.37,1.76.84-.8.5,1.27,1.13-.36.18-1.02.39-1.48-.37-2.16,2.37.18,3.6.57,4.02,1.72-.16-.55.17-.78.51-.99-.58,1.54.16,2.04.96,1.68l.39-.93.09,1.11c.34-.23.9-1.91,1.22-.8-.09.38-.17.76-.14,1.07.89-.57,2.21-1.61,2.65-.58l.12,1.57c.35-.06,1.11-.73.72-1.3.92,1.22,1.65,1.57,1.64,2.89,2.98-2.28,5.98-1.45,8.29-.48l-.3.69c.42.87.73-1.14,1.02-.51-.42.61.01,1.63-.75,2.31.67,1.04,1.57-.86,2.27-.99.39-.91-.67.45-.17-.7.21-.3,1.03,1.13,1.62-.24.05.63-.46,1.62-.77,2.15l.78-.51c.15,1.87-2.5,2.46-2.44,4.73l.59-.06c.02,1.64-1.9,1.24-.77,2.16.78-.52,1.92-2.42,1.62-3.21,1.29-.02,1.62-3.21,2.84-2.69.08.94-1.07-.12-1.2,1.13.23,1.33,1.39-.26,1.79.31-.41-.72.54-2,1-2.14.42.87-.84,1.21.01,1.64.41-.77,1.44-1.12.9-1.92.92-1.75.78.81,1.73-.47-.12,1.4-1.89,2.72-1.11,3.69.25-1.31,1.77-1.32,1.84-3.35.27.49,0,1.49-.53,2.17.31.95,2.08-1.87,1.47.69l.6-1.23c.04.47.19.87.25,1.65.48.18,2.13-1.24,1.47.69.22-.15,1.31.29,1.31-1.19-.43-1.04-1.11.73-.92-1.21.02,1.64,1.06.13,1.62-.24l-.17.77c.33-.22.83.12,1.24-.64-.32.37-.39.91-.26,1.16l.62-1.06c1.15-.26-.41,2.08.64,2.05l-1,.66c.22-.14.2,1.03.77.82.51-.99,1.24-2.13,1.65-2.89.68-.29-.14,1.25.73.35l-1.09,1.04c-.21.31-.09,1.87.63,2.07.57-.22,1.76-1.5,1.22-2.3.36.1.66.89.13,1.56.92-.1.25-1.15,1.16-1.58.06.79.64,2.06.85,3.24l-1.29,1.51.48.17c-1.07,1.2-.02,1.17-.85,2.53.26.34.82-.04,1.26-.32-.21-2.67,2.12-2.88,2.52-5.13,1.51-.16-.85,5.5,1.61,2.57-.05-.63,1.13-2.06.1-1.71.75.5,1.25-1.98,1.94-.78-1,.65.07,2.43-1.38,3.38.3-.69-.41-.73-.63-.57.08.93-.76,2.14.08,2.41.58-.04,1.3.14,1.56-1.01.37-1.24-.83-.12-.1-1.26,1.16-.1.73,1.83,1.86-.22-.7-.04-.46-1.36-.18-2.2l.92-.27-.41.77c1.02.98.83-1.37,1.93-.78l.03,1.79c-.72,1.3-1.5-1.16-2.02,1.17.73.34,1.35-.74,1.88.08-.22.14-.46.13-.68.28.25.16-.44,3.26,1.21,1.84.78-.51.41-.76.69-1.6,1.3.13,1.95-.62,2.77-.5-.69,1.61,1.34.6-.07,2.02-.09-1.1-1.89-1.57-2.83-.12-.18,2.1-.87-.58-1.77,1.32.97.36.3,2.28.05,3.6.24.18.68-.27.9-.42.5-1.16.14-1.25.51-2.49.99.67,2.26.34,3.23-.62.18.71-.32,1.86-.79,1.84,1.41.06,2.75.67,3.87,1.42-.18-2.2,1.52-.02,1.5-1.81-.52-.65-.65-2.22,0-2.97.37.26-.29.85-.25,1.32.87-.9.27,1.97,1.33.45-1.39.25-.99,2.3-1.7,3.75,1.13-.59-.38,1.07.46,1.34,1.13-.57,2.39-.91,3.44-.93.73,1.83,3.01.99,4.09,1.27.31.95-.62,2.55-.11,3.04.72.19.07-2.03.87-.9l-.21.31c.45-.3,1.55,1.79,2.65-.59l-.92,1.77c.14.23.46-.14.69-.28-.19.61-.13,1.24-.58,1.53.24,1.49,1.43.23,2.15.4l-.1-1.25c1.48-.48,1.94.87,3.23.86l-.38,1.07.9-.42c-.5.99-.08,1.87.56,1.11l-2.65,2.07c-.3-.8.96-1.13.99-2.3.03-1.01-1.14-1.07-1.65-.08.38.25.47.02.92-.27-.34,1.55-.95,1.29-1.58,2.19.24,0,.4.56.6.1-.66.6-1.13.58-1.85.39.67-.43.04-1.01.36-1.39-.48,1.31-1.29,1.5-2.04.85-.14-1.73-1.96.46-2.84-.29.84-1.21,1.71-2.12,2.5-2.46-.42-.88-.72-.19-1.14-1.07-.63.9-1.34,2.37-2.36,2.71l.27-1c-.91.26-1.38,1.73-2.25,1.15-1.49-1.01-3.18-1.55-4.39-2.08l.27-1c-1.37,1.89-2.57.04-3.81.68-1.29-1.46-3.77-.16-4.05-2.13-3.06-.14-5.76-.19-8.57-1.48l.95-1.28c-.86.89-.08-.94-.66-.89.22,1.34-1.19,1.27-1.83,2.03-.94-1.53-3-.85-4.48-.21l.27-1c-1.76,1.48-2.63-.59-3.98-1.35-.04-.46,0-1.48-.47-1.5-1.3,1.35-1.67,1.1-3.15,1.73-.84-.27-2.08-1.1-2.74-2-3.89,1.23-6.67-1.24-10.4-.94l.13-1.24c-3.99,1.46-7.2-2.05-10.34-1.65l.9-1.9c-.66-.88-2.12-.1-2.35,1.38-.66-.88-2.45.28-2.47-1.53-.76-.65-1.37.57-2.18.61-1.49-1.31-2.28-1.37-3.94-1.49,0,.05.21.16.31.24.32-.38.61-1.22.24-1.48-.05.02-.11.03-.15.05-.03.02-.05.03-.08.04-.05.01-.1.01-.15,0-.1-.02-.19-.06-.28-.04-.19.04-.31.36-.42,1.63-.11-.79-.5-.61-.73-.44-.26.16-.36.3-.96-.91.28.81.21.92.36,1.45-.17-.03-.73-.85-1.05-1.02-.06.08-.02.34.23.87-.26-.32-.79-1.44-.9-1.33.15.4.64,1,.88,1.52.39.93.11.73-.34.7-.44-.07-1.06.03-1.01.46.1.23.2.38.25.6-.04.55-.11,1.09-.2,1.62-.18,1.07-.43,2.13-.71,3.17-.57,2.08-1.26,4.1-1.71,6.09l-.47-.18c1.46,1.84-2.76,2.55-.3,4.39-.55.18-.56,1.12-1.42.63.5.71-.02,1.35-.5,2.07-.24.36-.48.73-.58,1.14-.05.2-.07.43-.03.63.07.08.2.18.4.27.06-.02-.04-.06-.24-.16-.6.08-.57.37-.51.59.05.24.14.4-.48.73-.22-.02-.36-.11-.88-.08-.55.18-.03.29.32.33.34.06.51.09-.86.48-.02.15,1.33-.25,1.27-.29-.6.62-.72,1.25-.58,1.62,1.13,0,2.33-.33,2.99-.47-.17.7-.62,1.63-.99,2.16-.37.53-.47.71.44.04-.14.44.47-.82.26-.37.3-.26.13.39.05.99-.09.6-.09,1.14.24.58.16-.72.27-.91.36-1.02.05-.13.29-.12.4-.56,1.35,1.38,1.31,2.76,2.89,2.03l-.31.72c2.09-1.7,3.5-.08,5.44-2.16,8.35,1.88,16.61,2.74,24.71,4.72,7.8,2.7,15.87,3.79,23.55,7.36,1.33,2.5,1.49,2.49,3.78,2.27-.17.3-.32.33-.27.67.56-1.58,1.5.26,2.13-1.23,1.45.57,2.88.94,4.35,1.27,1.32.29,3.54.8,3.07.66-.05.17-.37,1.51-.23,1.43.1-.34.17-.69.23-1.05l-.03.48c.1-.23.14-1.08.14-1.64.04-.48-.17-.5,0-.19.16.34.55.69.99.63.11-.01.22-.04.32-.09l.04-.02s.01.02.06-.09l.22-.45.42-.9c.54-1.21,1.02-2.44,1.4-3.7,1.29-1.51,1.57-4.22,1.93-6.24,4.12-4.88,7.64-9.36,8.21-15.61,0,0,3.82,2.21,3.92,4.91Z"/>
      <path class="cls-2" d="M169.52,214.72c.05-.86-.47-1.51.4-2.41-.17.77-.1,1.72-.4,2.41Z"/>
      <path class="cls-2" d="M154.45,200.84c-.1.23-.15-.4-.16-.56.24.01.66-.6.7-.12-.24,0-.33.38-.54.68Z"/>
      <path class="cls-2" d="M150.07,198.92c.3-.69,1.44-.94,2.04-.85l-2.04.85Z"/>
      <path class="cls-2" d="M146.79,194.64c-.17-.72.03-1.01.52-.84-.09.39-.31.53-.52.84Z"/>
      <path class="cls-2" d="M145.97,196.16c-.36-.1-.4-.57-.44-1.03-.18.61.93-.12.44,1.03Z"/>
      <path class="cls-2" d="M137.48,191.17c-.24-.01-.9.42-.86-.43.05.63,1.36-.56.86.43Z"/>
      <path class="cls-2" d="M132.88,190.88c-.12-.09-.14-.24-.36-.09-.15-.41.28-.84.52-.84l-.16.93Z"/>
      <polygon class="cls-2" points="67.68 210.69 67.46 210.13 68.15 210.4 67.68 210.69"/>
      <path class="cls-2" d="M89.61,236.35c.59-.32.13.77.18.89-.44-.04.4-.84-.18-.89Z"/>
      <polygon class="cls-2" points="109.12 237.98 108.97 237.96 109.44 236.5 109.12 237.98"/>
    </g>
  </g>
</svg>