<?xml version="1.0" encoding="UTF-8"?>
<svg xmlns="http://www.w3.org/2000/svg" viewBox="0 0 95 95">
  <defs>
    <style>
      .cls-1 {
        fill: #fff;
      }

      .cls-2 {
        isolation: isolate;
      }

      .cls-3 {
        fill: #ff4f20;
      }

      .cls-4 {
        fill: #f7a397;
        font-family: Icebox-Magnet-Trial-90ms-RKSJ-H, 'Icebox Trial';
        font-size: 7.74px;
        mix-blend-mode: multiply;
        opacity: .49;
      }
    </style>
  </defs>
  <g class="cls-2">
    <g id="Layer_3" data-name="Layer 3">
      <g>
        <g>
          <path class="cls-1" d="M51.59,64.63l5.35-13.27c26.84,6.41,10.85-10.75,10.85-10.75,11.31-16.82-11.28-11.3-11.28-11.3-12.11-21.14-23.35-1.15-23.35-1.15-22.75,4.32-2.12,15.21-2.12,15.21l-2.03,14.57,22.57,6.69"/>
          <g>
            <path class="cls-3" d="M51.24,64.07c-.16.58.36-.2-.04.4-.08-.12-.12-.26.04-.4Z"/>
            <path class="cls-3" d="M49.8,63.71c-2.06.19-4.26-1.27-6.41-1.4-.25-.04.18-.38-.38-.44-2.12-.01-5.1-1.26-7.35-2.41l.18-.07c-.43-.22-1.09,0-1.56-.2.02-.08.19-.06.1-.2-.19.19-.9-.15-1.15-.04-.16-.15-.09-.32-.31-.49l-.35.18c-.47.19-.93.04-1.42-.15-.51-.2-.89-.41-1.53-.42.1-.03.23-.05.21-.12-.21-.02-.44-.04-.69-.08-.04-.65.04-1.61.13-2.48.09-.89.19-1.79.25-2.65.08.09.25.19.37.09-.27-.13-.26-.74-.24-1.27.32-.19-.14-.93.1-1.51l.06.06c-.24-.49.27-.64-.04-1.06l.27-.25c-.38-.25.3-.62.15-1.02h-.09c-.05-.36.18-.52.16-.85l.05-.02c0-.78.29-1.19-.03-1.21.29-.23.01.75.44.39,0-.92.09-1.83.11-2.6-1.3-.63-2.79-1.62-4.07-2.61-.15-.28-.27-.43-.24-.56-.24-.11-.77-.56-1.05-.6.07.05-.01-.23-.1-.34-.26-.4-.61-.1-.87-.57.21.09.33.06.36-.07-.48-.13-.85-.6-1.22-.96.09.03.19.11.26.03-.58-.28-.56-.86-.94-1.2l.25.08c-.14-.8-.48-.02-.62-.73.11.14.16.06.24.06-.6-.46-.67-1.63-.56-2.32.02.05.07.05.07.05.15-.74.61-1.38,1.09-2.03.27-.14.23.35.75-.15-.13-.13.09-.37.28-.56.2-.18.36-.34.05-.39.58-.33,1.56-.64,1.9-.94-.2.25.46.28,0,.54.15,0,.3.02.45.05,0,.15-.39.11-.2.23.22-.12.87-.52,1.1-.55.36-.39.66-.91,1.41-1.2-.31.25.32.33.09.47.28-.34.57-.64.87-.97.25-.08.13.27.47.08-.04-.09.1-.19.2-.3.1,0,1.05-.32,1.24,0,.14.12-.4.16-.09.23.48-.11.43-.22.83-.31l.03.04c.06,0,.14,0,.19-.05.12-.27.12-.59-.1-.53-.09.13.19.11-.01.24-.04-.35.04-.59.36-1.07-.05.17.05.21.09.32.13-.71.47-1.34.85-2-.13-.12.08.42-.06.44.76-.6.99-1.76,1.82-2.09-.07.12-.23-.12-.19-.09.34-.32.5-.12.66-.4.13.09.24-.3.44-.54.05-.19.11,0-.08.19.22-.39,1.45-1.72,2.47-2.06-.07-.07.36-.65.6-.74l.02.24c.26.02.72-.38.84-.22.18-.24-.25.03-.64.3-.39.27-.71.58-.48.3.23.07.68-.77.69-.43.41-.23.77-.63,1.28-.6-.14.02-.26.44.1.28.63-.24.15-.16.66-.39l.32-.19c-.03-.23.63-.08.32-.28.11.16,1.02-.28.99.12l-.07.29c.29-.04.47-.33.71-.47.04.03.12.08.11.13.06-.46.73.08,1.13-.24.32.12.72.22,1.08.31.35.11.65.26.75.43.52,0,.98.08,1.45.4-.12-.01-.26-.06-.33,0,.25.27.39.18.69.29-.09.02.46.58.68.91.45.15.46-.12.58-.22.07.61,1.26.58,1.37,1.27-.16-.07-.64-.29-.43.05,0,.61.86.32,1.17.97l.15-.38c.04.38.83.6.51.8.25.08.45.67.66.39.23.53.68,1.03,1.06,1.52.35.5.64.99.56,1.44.14.1.31.45.42.28.02-.32-.32-.22-.27-.38.09.11.19.08.24.07.13.32.24.57-.18.46.09.36.35.5.55.52.2.02.38-.02.43.21-.1.12-.12.2-.03.3.04-.01.07,0,.12-.04l.18-.18c.22.01.09.32.03.59.23-.09.45-.12.56-.33l.44.24c-.32-.17.24-.19.38-.28l-.14.09c.08.09.44-.03.63-.09-.07-.15-.46-.15-.68-.16.15-.13.41-.15.62-.31-.04.25.56.09.82.09.31.02.31-.26.4-.26.02.12.5-.03.28.17-.1.05-.25-.1-.41.03.21.07.21.29.6.09.3-.15-.13-.47.48-.38-.15.08-.17.18-.28.27l.56.08v-.22c.09.05.04.07.07.1.15-.25.84-.13.96-.39.28-.04.6.13.88.16l-.05.02c.33.12.77.05,1.06-.09l-.02.05c.18.02.62.01.86-.1.46.21.07.84.61.63.46.05.8-.3.63-.47.82.29,1.96.23,2.63.95.16-.01.11-.11.4,0,.62.38,1.31.87,1.81,1.53.24.34.46.68.55,1.05.13.36.15.71.09,1.03-.17-.41-.22.02-.35.05.25.31-.12.42.22.5.2-.05.32-.02.32-.46.08.23.12.48.13.73.01.26.04.53,0,.77-.07.48-.17.91-.31,1.1.15-.19.16-.02.18.17-.3-.12-.49.42-.49.88l.17.12-.29.2c0,.17.32.31,0,.65-.08,0-.16-.01-.24.04,0,.48-.04,1.13-.38,1.49-.14.07-.28.15-.42.21-.07.18-.08.56.16.29-.26.31-.47.56-.64.76-.18.19-.33.34-.46.31.06.34.07.58.08.76.18.09.3.18.38.25.34.41.66.82.94,1.23l-.15.05c.14.42.34.02.43.33-.19-.03-.06.44-.39.27.22.58.65.49.92.79.19-.05-.28-.2-.03-.27.1.02.33.79.63.73-.02.19-.26.2-.41.19l.32.25c-.06.55-1.05-.57-1.17.05l.21.26c-.1.42-.74-.56-.41.19.31.22.82.3.78-.05.43.64.79-.04,1.15.75-.05.29-.34-.6-.48-.34-.03.46.48.65.54,1.04-.06-.42.35-.22.5.01.05.47-.36-.17-.15.43.19.04.51.59.45.04.44.11.13.69.49,1.01-.21.27-.77-.54-.72.21.11-.08.26.11.39.3.13.19.27.36.43.11-.03.34-.23.39-.42.18-.07.41.51,1.15,0,1.28.08.06.16.13.24.2-.11.15-.22.38-.41.59-.06.21-.13.6-.22.91-.13.3-.29.5-.44.37-.01.19-.78.88-.3.8.31-.16.4-.36.47-.51.08-.15.14-.24.41-.32-.27.14-.4.34-.51.58-.11.21-.21.45-.33.63l-.15-.07c-.14.24-.59.46-.62.68.1-.17-.03-.21-.2-.15l-.09.32c-.74.48-.36-.28-1.06.08l.48-.38c-.1.08-.42-.02-.73.17-.06.26-.24.55-.31.74-.39.19-.24-.19-.59.12l.46-.37c.06-.09-.43-.24-.93-.16-.3.11-.78.48-.24.53-.26.04-.64-.05-.45-.23-.57.14.1.22-.39.41-.21-.13-.84-.31-1.21-.51l.48-.37h-.32c.41-.29-.21-.2.01-.51-.22-.04-.47.07-.68.13.63.51-.72.64-.56,1.08-.91.09-.49-1.08-1.44-.48.14.13-.32.42.24.35-.54-.1-.41.41-1.04.16.49-.13-.46-.49.25-.69-.06.14.37.15.48.12-.21-.19.09-.44-.46-.49-.34.02-.79-.04-.75.2-.02.26.51.04.26.27-.67,0-.73-.4-1.06,0,.42.03.49.3.46.47l-.51.03.12-.15c-.77-.23-.28.27-1.03.11l-.3-.39c.22-.24,1.08.29,1.01-.18-.48-.09-.69.13-1.12-.08.11-.02.25,0,.36-.03-.17-.05-.24-.69-.98-.46-.38.07-.12.15-.16.31-.77-.09-1.16.02-1.26.02.06-.34-.38-.12-.15-.42.07.12.22.2.39.21.35.04.72.03.88-.11-.21-.45.6.17.83-.2-.61-.12-.51-.51-.56-.78-.17-.05-.35.03-.46.05-.12.23.1.26.07.51-.76-.2-1.13-.16-1.33.04-.16-.16-.18-.41.02-.39-.29-.03-.57-.08-.87-.16-.19-.1-.21.06-.27.16-.06.11-.12.21-.18.31.42.03-.11.53.24.53.16-.15.41,0,.52.18-.04.03-.14-.13-.21-.16.14.23-.35-.06-.12.29.02-.39-.4-.3-.66-.5.01.2-.05.2-.11.16-.07-.04-.16-.08-.26.17-.04.56-.16,1.23-.32,1.81-.56.58-.72,1.76-.95,2.38-.28.27-.52-.09-.72.24-.16.42.48-.16.08.39l-.04-.09c0,.22-.68,1.03-.28,1.4l-.28-.33c-.08.1-.04.24-.04.35-.12-.04-.28.05-.28-.17-.4.28-.28.81-.44,1.22l.32-.18c-.12.77-.52,1.16-.72,1.87l-.2-.1-.04.45c-.16-.18-.44.14-.36.42l-.08-1.26c.24-.24.12.42.4.32.24-.08.44-.74.28-.92-.12.23-.08.26-.08.48-.32-.04-.16-.4-.28-.66-.04.13-.2.28-.12.34-.04-.3.04-.56.2-.98,0,.32.24-.08.28.06-.24-.13-.16-.56.12-1.04.44-.25.2-1.03.52-1.59.16.34.24.73.2,1.13.28-.32.16-.42.44-.74-.12-.26-.36-.5-.28-1.03l.2.05c.08-.48-.2-.59.08-1.13.48-.92.88-1.91,1.19-2.63l.2.05c-.11-.31-.04-.59.14-1.05.18-.48.39-.94.47-1.4.08-.14.16-.28.23-.43l.1-.23.24.05c.31.07.62.11.91.16.58.1,1.12.21,1.41.45l.39.06.32.03c.21.02.42.04.63.06.42.05.83.09,1.24.14.82.06,1.65.2,2.53.3l-.33.26c.34-.18.19.19.51.18-.34-.27.47-.26.7-.42.77.28,1.81.06,2.46-.2l.04.2c.65-.41,1.45-.18,2.23-.36.11.05.31.17.52.07.22-.47.42-.56.6-1.02.2-.22.47-.63.61-1.04-.39-1.44-1.04-3.28-2.34-4.77l.12-.25c-.47-.41-.9-.89-1.31-1.39l-.86-1.03c-.38-.43-.75-.85-1.11-1.26.33-.52.64-1.02.95-1.5.29-.47.61-1.01.66-1.22l.28.34c.36-.39.48-1.08.16-1.1.37-.39.36-1.2.81-1.35.25-.44.04-.64.13-1.03.41-.85.47-1.24.4-1.98l-.02.18c.09.08.27.1.29-.09-.08-.31-.01-1.03-.44-.67.08-.37-.14-.68-.41-.92-.25-.26-.64-.42-.9-.78,0,.15-.2.09-.31.14-.65-.27-1.49-.7-2.2-.56-.13-.08.25-.2-.11-.25-.22.03-.02.17-.29.23-1.4.13-2.95-.28-4.32-.07-.63.13-1.26.27-1.9.4l-1.31.27-1.78.42c-.52-.86-1.05-1.72-1.56-2.56-.29-.5-.64-.94-.95-1.4l.09-.03c-.37-.22-.56-.63-.77-1.01-.21-.38-.42-.75-.84-.79-.05-.19-.43-.53-.2-.56-.58-.27-1-1.4-1.88-1.67.05.05.1.06.2.09-.54-.7-1.31-.89-1.98-1.44.1,0,.26.04.33-.04-.23-.31-.89.04-.87-.47-.18-.05-.21.18-.1.2-.83-.42-1.8-.57-2.73-.47-.94.1-1.84.44-2.7.88-1.38.39-.45-.7-1.28.18-.13-.03.03.19-.03.11-.31.33-.88-.04-1.01.34.28.16-.08.25.02.4-.84.41-1.16.36-1.56,1.03l-.06-.15c-.34.9-1.19,1.5-1.27,2.39-.35.45-.69.91-1,1.37-.17.25-.28.44-.47.74-.24.39-.52.88-.78,1.36-2.06.48-2.51.57-3.46.87-.88.25-1.71.55-2.51.86-.79.33-1.55.69-2.18,1.11-.67.39-1.12.88-1.35,1.25-.18.24-.21.41-.23.64-.04.21.08.53.21.87.34.71.99,1.51,1.75,2.24.76.74,1.65,1.44,2.57,2.11.46.34.94.66,1.42.99l.4.26.73.45,1.56.89c-.01.08-.02.16-.04.23-.37,1.2-.54,1.73-.65,2.31-.02.11-.04.23-.06.35,0,.09-.02.18-.02.29,0,.21-.01.46-.02.78-.06-.06-.06-.14-.13-.07.32.11-.1.9.2,1.07-.32,1.83-.46,3.53-.72,5.42,0-.3-.24-.49-.27-.13l.16.4-.1.05c.01.25.14.54.28.3-.07.84-.16,1.67-.28,2.5l-.09.62s0,0,0,0c0,0-.02,0-.04,0-.01.01-.02.02-.02.04,0,0,0,.02,0,.03,0,0,0,0,0,.01l.14.05.27.1,2.17.76c1.45.5,2.89.99,4.36,1.39,1.03.45,2.58.78,3.76,1.06,3.31,1.44,6.31,2.7,9.89,3.44,0,0-.7.68-2.19.44Z"/>
            <path class="cls-3" d="M51.48,63.39c.2-.06.44-.41.52-.02-.16-.02-.4.12-.52.02Z"/>
            <path class="cls-3" d="M57.21,53.69s.12-.12.16-.14c-.04.13.04.3-.08.37.04-.13-.04-.14-.08-.23Z"/>
            <path class="cls-3" d="M58.13,52.86c.01.08-.05.13-.13.16-.04.02-.08.03-.13.03-.06,0-.02.08-.04.1,0-.05-.02-.11,0-.15l.09-.05c.06-.03.14-.06.22-.09Z"/>
            <path class="cls-3" d="M59.97,53.85c.21.16.13.22-.18.16,0-.08.1-.1.18-.16Z"/>
            <path class="cls-3" d="M60.22,53.56c.22.04.32.14.41.25.01-.12-.53-.02-.41-.25Z"/>
            <path class="cls-3" d="M66.16,54.68c.15,0,.47-.11.62.04-.17-.1-.74.17-.62-.04Z"/>
            <path class="cls-3" d="M69.14,54.29c.1,0,.14.03.26-.05.2.02.02.18-.13.21l-.12-.17Z"/>
            <polygon class="cls-3" points="52.56 22.18 52.84 22.34 52.7 22.41 52.56 22.18"/>
            <path class="cls-3" d="M33.18,26.14c-.1.3-.23.09-.28.12.14-.23.09.18.28-.12Z"/>
            <polygon class="cls-3" points="23.8 31.29 23.87 31.23 24.04 31.48 23.8 31.29"/>
          </g>
        </g>
        <g>
          <polygon class="cls-1" points="53.68 64.92 28.35 56.83 25.05 68.37 49.94 75.39 53.68 64.92"/>
          <g>
            <path class="cls-3" d="M53.34,65.38c.28.02-.06-.29.21-.05-.07.1-.15.17-.21.05Z"/>
            <path class="cls-3" d="M53.02,65.66c.42,1.1-.7,1.95-.58,3.03,0,.12-.38-.17-.38.11.24,1.09-.6,2.38-1.42,3.31l-.09-.11c-.15.18.12.56,0,.76-.07-.02-.08-.11-.2-.09.2.13-.04.43.09.59-.12.05-.3,0-.42.05.07.06.14.13.21.2.24.28.14.52.02.7-.12.19-.26.31-.22.71-.04-.09-.05-.18-.11-.21,0,.19,0,.39-.03.6-.55.05-1.45-.23-2.21-.32.06-.08.14-.24.12-.36-.12.26-.41.25-.66.24-.03-.31-.47.14-.71-.09l.04-.06c-.29.24-.25-.25-.52.05l-.07-.26c-.2.37-.24-.29-.46-.13l-.02.08c-.19.05-.21-.17-.38-.14v-.05c-.37,0-.51-.27-.59.04-.05-.28.36-.02.28-.43-1.22,0-2.37-.39-3.51-.71-.09-.16-.17-.22-.16-.35-.13.03-.44-.06-.59.06.04,0-.03-.18-.08-.21-.17-.17-.32.28-.51.07.11-.06.17-.15.17-.27-.26.19-.51.07-.76.09.05-.04.11-.06.13-.16-.33.2-.44-.19-.71-.08l.13-.16c-.29-.32-.21.34-.48.13.09-.04.08-.11.12-.18-.38.24-.81,0-1.12.04.02-.02.03-.07.03-.07-.32-.05-.62-.24-1-.19-.1-.11.16-.42-.18-.45-.09.36-.6-.01-.52.45-.26-.14-.67-.4-.89-.33.16-.1-.01-.48.23-.44l-.12-.27c.07-.14.17.1.16-.1-.12-.02-.5.03-.59-.06-.28.16-.59.51-.96.46.2-.09.02-.42.15-.45l-.68.55c-.12-.02.05-.29-.14-.24-.02.1-.11.13-.18.2-.03-.05-.51-.05-.46-.41-.01-.15.21-.02.12-.18-.22-.06-.26.06-.48,0v-.05c-.12-.09-.45.03-.35.27.1.04.02-.22.14-.08-.16.18-.42.16-.64.11.09-.04.11-.13.16-.22-.37.2-.7.2-1.05.22-.05.17.21-.27.23-.17-.35-.35-.95.09-1.2-.35.06-.01-.04.25-.03.2-.19-.08-.12-.32-.27-.26.03-.15-.18,0-.32,0-.1.08-.02-.08.11-.06-.22.07-1.03.08-1.4-.25-.03.09-.34.28-.48.23.04-.07.09-.13.12-.2-.09-.17-.5-.12-.44-.31-.22.08.11.11.41.13.25,0,.43-.03.27.04-.02-.1-.12-.04-.25,0-.14.04-.26.07-.16-.07-.27-.07-.7.08-.86-.19.06.06.41-.21.18-.26-.4-.07-.17.06-.55.04l-.28.02c-.2.18-.35-.13-.41.11.12-.16-.75-.09-.32-.36l.36-.2c-.18-.03-.6.15-.9.2,0-.03.03-.08.1-.11-.17.09-.28.12-.36.1.01-.13.26-.46.03-.48.29-.47.31-1.03.66-1.27-.07-.26-.15-.55.05-.89.02.07,0,.17.1.19.19-.2.09-.25.07-.46.03.03.12-.07.23-.18.11-.1.22-.17.32-.23-.07-.23-.32-.23-.46-.29.47-.06-.11-.63.33-.75.04.08.13.34.28.21.47-.06-.21-.45.08-.68l-.37-.03c.25-.07-.08-.48.27-.35-.1-.13.21-.31-.14-.37.42-.39.15-1.2.85-1.32-.04-.08.07-.24-.12-.25-.22.06.09.2-.05.2,0-.06-.08-.1-.13-.12.12-.12.18-.23.42-.01.31-.27-.48-.5-.23-.88.14.06.2.04.21-.09l-.18-.3c.13-.25.37-.06.61,0,0-.16.06-.33-.1-.45l.35-.09c-.25.07-.11-.16-.15-.24l.04.08c.11,0,.09-.18.09-.28-.15-.02-.26.13-.33.21-.08-.1-.03-.21-.12-.34.23.1.23-.19.29-.29.09-.12-.17-.21-.15-.24.12.03.08-.21.22-.06.03.06-.15.07-.06.17.12-.06.33,0,.22-.21-.08-.17-.47-.1-.25-.31.04.08.13.12.2.2l.19-.21-.21-.07c.07-.03.08,0,.11,0-.19-.18.09-.56-.13-.77.04-.21.25-.32.32-.48v.05c.18-.13.18-.45.12-.77l.04.05c.05-.1.1-.41.05-.7.21-.14.65.79.53.19.07-.26-.16-.94-.29-1l.03-.04c.58.3,1.1.13,1.68.66.06-.07,0-.15.16-.16.42.18.86.25,1.3.37.1.03.21.06.31.09.06.02.12.05.18.08.11.07.21.16.28.3-.18.04-.08.21-.11.33.18-.15.09.24.23-.07.05-.2.09-.28-.03-.41.34,0,.81.15.93.38-.06-.12.03-.15.11-.19-.12.3.09.42.3.36l.08-.18.05.23c.09-.04.2-.37.31-.13-.01.07-.03.15-.01.21.23-.09.56-.27.7-.05l.07.32c.09,0,.28-.12.16-.25.28.27.48.36.51.63.75-.39,1.59-.15,2.24.1l-.06.13c.14.19.17-.21.26-.08-.1.11.04.33-.15.45.21.23.41-.14.59-.15.08-.18-.17.07-.06-.15.05-.06.31.26.43,0,.03.13-.09.32-.16.42l.2-.08c.09.38-.62.44-.55.9h.16c.04.34-.48.21-.16.42.2-.09.46-.45.36-.61.35.03.36-.61.7-.48.04.19-.29-.05-.3.2.09.28.37-.02.49.11-.13-.16.1-.39.22-.41.14.19-.2.23.04.33.09-.15.36-.19.2-.37.21-.33.23.18.46-.05,0,.28-.45.51-.21.72.03-.26.45-.23.42-.64.09.11.04.3-.09.43.11.2.52-.33.41.18l.13-.23c.02.1.07.18.11.34.14.05.55-.2.41.18.06-.03.36.09.33-.21-.14-.22-.28.12-.28-.27.04.33.29.05.43,0l-.03.15c.08-.04.23.04.32-.1-.08.07-.08.18-.04.23l.14-.2c.31-.02-.06.41.22.43l-.26.11c.06-.02.08.21.23.18.11-.19.28-.4.38-.55.18-.04,0,.25.21.09l-.27.18c-.05.06.02.38.22.44.15-.03.44-.26.28-.44.1.03.2.2.07.32.25,0,.04-.23.28-.29.04.16.22.43.31.68l-.31.28.13.05c-.26.22.02.24-.17.49.08.07.22.01.33-.03-.12-.55.5-.53.56-.98.41,0-.1,1.1.5.56-.03-.13.26-.39-.02-.34.21.12.29-.37.51-.11-.26.11.08.5-.29.65.06-.13-.13-.16-.19-.13.04.19-.15.42.08.49.16,0,.36.06.4-.17.07-.24-.23-.04-.06-.26.31,0,.24.39.5,0-.19-.03-.16-.29-.1-.45l.24-.03-.09.15c.3.22.19-.26.5-.11l.05.37c-.16.25-.44-.27-.52.19.21.09.35-.12.51.06-.06.02-.12.02-.18.04.07.04-.04.65.37.4.2-.08.09-.14.15-.31.36.06.51-.08.74-.03-.15.31.38.16.03.41-.05-.23-.55-.36-.77-.09,0,.42-.25-.14-.45.23.27.1.14.47.1.73.07.04.18-.04.23-.06.11-.22,0-.25.08-.49.28.16.62.12.86-.05.07.15-.04.37-.17.35.38.05.76.2,1.08.38-.1-.45.41.03.36-.33-.16-.14-.23-.47-.07-.6.11.06-.06.17-.03.26.21-.16.12.41.37.12-.37.02-.21.44-.37.72.29-.09-.08.21.16.28.29-.09.63-.13.91-.11.24.39.84.27,1.14.36.11.2-.11.5.04.62.2.06-.03-.41.21-.16l-.05.06c.11-.05.46.4.7-.06l-.21.34c.04.05.12-.02.18-.04-.04.12,0,.25-.12.3.1.31.39.08.59.13l-.06-.26c.39-.06.55.22.9.25l-.08.21.23-.06c-.11.19.02.38.18.24l-.67.36c-.1-.17.23-.21.21-.44-.02-.21-.34-.24-.45-.06.11.06.13.02.24-.03-.06.31-.23.24-.38.41.06,0,.12.12.16.04-.16.11-.29.09-.49.03.17-.07-.01-.21.06-.27-.1.25-.31.27-.53.12-.08-.35-.52.05-.78-.13.2-.23.41-.39.62-.44-.14-.19-.2-.06-.34-.25-.15.17-.31.45-.58.49l.05-.2c-.24.03-.33.32-.58.18-.43-.24-.9-.39-1.24-.53l.05-.2c-.33.35-.7-.05-1.02.05-.39-.33-1.03-.12-1.15-.53-.83-.1-1.57-.18-2.36-.51l.23-.24c-.21.16-.04-.19-.2-.2.09.28-.29.23-.45.37-.29-.33-.83-.24-1.22-.15l.05-.2c-.44.26-.73-.18-1.11-.37-.02-.09-.04-.3-.16-.32-.32.24-.43.18-.81.28-.23-.08-.59-.27-.79-.47-1.02.16-1.84-.41-2.84-.44v-.25c-1.04.2-1.99-.59-2.84-.58l.2-.36c-.2-.2-.58-.07-.6.22-.2-.2-.66,0-.71-.37-.22-.15-.36.08-.58.07-.44-.3-.63-.33-1.12-.4l.11.06c.08-.07.14-.23.03-.29-.21.05-.6-.31-.58.21-.65-.5-.57.06-.79-.41.04.15.01.17.03.27-.05-.01-.17-.18-.25-.22-.01.03-.01.09.04.19-.05-.05-.15-.28-.18-.24.03.08.13.19.17.29.07.19.01.17-.09.21-.05.02-.11.04-.16.08-.08.16-.15.32-.18.49-.08,1.21-.54,2.37-.82,3.47l-.09-.04c.25.47-.61.75-.16,1.2-.11.06-.14.32-.3.2.17.36-.47.75-.27,1.26.02-.04,0-.06-.02-.12-.32.33-.19.96-.39.94-.04-.02-.06-.05-.16-.07-.22.08.39.15-.12.21,0,.04.25,0,.24-.02-.12.15-.16.33-.15.44.28.02.55-.04.7-.06,0,.15.03.36-.01.47-.04.11-.08.14.26.06.02.1.08-.16.06-.07.26-.06.21.6.43.41.01-.3.15-.13.2-.29.4.31.42.58.83.47l-.07.14c.53-.3.95.06,1.44-.32,2.32.56,4.59.91,6.84,1.49,2.18.71,4.41,1.11,6.58,2,.42.53.46.53,1.08.54-.04.06-.08.06-.06.13.12-.31.41.09.56-.2.81.29,1.6.42,2.46.66-.14,0-.28.23-.12.26l.22-.15v.1c.13-.02.29-.14.2-.27l.14.02s0-.01,0-.01v-.02s0-.02,0-.02c0,0-.01,0,0,.04.02.03.04.06.08.08.02,0,.04,0,.06,0,.03-.01.03.05.13-.19.32-.67.62-1.34.84-2.05.3-.44.43-1.18.56-1.73.97-1.42,1.81-2.72,2.09-4.42,0,0,.72.49.67,1.22Z"/>
            <path class="cls-3" d="M53.02,65.31c0-.17-.16-.32.05-.48-.03.15.01.35-.05.48Z"/>
            <path class="cls-3" d="M48.59,62.13s-.05-.09-.06-.12c.06,0,.16-.11.19,0-.07,0-.08.07-.13.13Z"/>
            <path class="cls-3" d="M47.36,61.63c.06-.13.37-.16.53-.12l-.53.12Z"/>
            <path class="cls-3" d="M46.37,60.68c-.06-.15-.02-.21.12-.16-.01.08-.07.1-.12.16Z"/>
            <path class="cls-3" d="M46.19,60.97c-.1-.03-.12-.13-.14-.22-.03.12.25,0,.14.22Z"/>
            <path class="cls-3" d="M43.76,59.75c-.06,0-.23.06-.24-.11.03.13.35-.08.24.11Z"/>
            <path class="cls-3" d="M42.51,59.58s-.04-.05-.1-.03c-.05-.09.06-.16.12-.16l-.02.19Z"/>
            <polygon class="cls-3" points="25 64.55 24.97 64.4 25.1 64.46 25 64.55"/>
            <path class="cls-3" d="M30.79,71.12c.15-.05.05.16.07.18-.12-.02.09-.16-.07-.18Z"/>
            <polygon class="cls-3" points="36.15 71.88 36.11 71.87 36.2 71.59 36.15 71.88"/>
          </g>
        </g>
      </g>
      <text class="cls-4" transform="translate(-134.26 -112.56) rotate(20.77)"><tspan x="0" y="0" xml:space="preserve">YUM YUM YUM YUM YUM YUM YUM YUM YUM YUM  </tspan><tspan x="0" y="8" xml:space="preserve">YUM YUM YUM YUM YUM YUM YUM YUM YUM YUM  </tspan><tspan x="0" y="16" xml:space="preserve">YUM YUM YUM YUM YUM YUM YUM YUM YUM YUM  </tspan><tspan x="0" y="24" xml:space="preserve">YUM YUM YUM YUM YUM YUM YUM YUM YUM YUM  </tspan><tspan x="0" y="32" xml:space="preserve">YUM YUM YUM YUM YUM YUM YUM YUM YUM YUM  </tspan><tspan x="0" y="40" xml:space="preserve">YUM YUM YUM YUM YUM YUM YUM YUM YUM YUM  </tspan><tspan x="0" y="48" xml:space="preserve">YUM YUM YUM YUM YUM YUM YUM YUM YUM YUM  </tspan><tspan x="0" y="56">YUM YUM YUM YUM YUM YUM YUM YUM YUM YUM</tspan><tspan x="0" y="64" xml:space="preserve">YUM YUM YUM YUM YUM YUM YUM YUM YUM YUM  </tspan><tspan x="0" y="72" xml:space="preserve">YUM YUM YUM YUM YUM YUM YUM YUM YUM YUM  </tspan><tspan x="0" y="80" xml:space="preserve">YUM YUM YUM YUM YUM YUM YUM YUM YUM YUM  </tspan><tspan x="0" y="88" xml:space="preserve">YUM YUM YUM YUM YUM YUM YUM YUM YUM YUM  </tspan><tspan x="0" y="96" xml:space="preserve">YUM YUM YUM YUM YUM YUM YUM YUM YUM YUM  </tspan><tspan x="0" y="104" xml:space="preserve">YUM YUM YUM YUM YUM YUM YUM YUM YUM YUM  </tspan><tspan x="0" y="112" xml:space="preserve">YUM YUM YUM YUM YUM YUM YUM YUM YUM YUM  </tspan><tspan x="0" y="120">YUM YUM YUM YUM YUM YUM YUM YUM YUM YUM</tspan><tspan x="0" y="128" xml:space="preserve">YUM YUM YUM YUM YUM YUM YUM YUM YUM YUM  </tspan><tspan x="0" y="136" xml:space="preserve">YUM YUM YUM YUM YUM YUM YUM YUM YUM YUM  </tspan><tspan x="0" y="144" xml:space="preserve">YUM YUM YUM YUM YUM YUM YUM YUM YUM YUM  </tspan><tspan x="0" y="152" xml:space="preserve">YUM YUM YUM YUM YUM YUM YUM YUM YUM YUM  </tspan><tspan x="0" y="160" xml:space="preserve">YUM YUM YUM YUM YUM YUM YUM YUM YUM YUM  </tspan><tspan x="0" y="168" xml:space="preserve">YUM YUM YUM YUM YUM YUM YUM YUM YUM YUM  </tspan><tspan x="0" y="176" xml:space="preserve">YUM YUM YUM YUM YUM YUM YUM YUM YUM YUM  </tspan><tspan x="0" y="184" xml:space="preserve">YUM YUM YUM YUM YUM YUM YUM YUM YUM YUM   </tspan><tspan x="0" y="192" xml:space="preserve">   </tspan><tspan x="0" y="200" xml:space="preserve">   </tspan></text>
      <g>
        <path class="cls-1" d="M-33.14.24l2.15,2.38c3.47,3.84,9.4,4.14,13.24.67L20.25-31.03c3.84-3.47,4.14-9.4.67-13.24l-2.15-2.38c-7.9-8.75-21.4-9.43-30.15-1.53l-20.23,18.27c-8.75,7.9-9.43,21.4-1.53,30.15Z"/>
        <path class="cls-3" d="M-34.25-1.68c-.43-.34-.83-.77-1.19-1.25-.38-.47-.62-1.06-.91-1.62-.3-.56-.49-1.17-.74-1.75-.13-.29-.25-.57-.38-.85-.11-.29-.23-.56-.37-.83-.11-.26.39-.04.13-.61-.56-1.01-.9-2.48-.94-4.01-.06-.76.07-1.55.14-2.3.11-.75.32-1.47.48-2.14l.09.18c.13-.5-.07-1.17.07-1.71.07.01.07.19.19.09-.09-.09-.07-.34-.04-.6.05-.26.12-.52.07-.65.15-.19.31-.12.48-.36l-.15-.37c-.18-.52.03-1.02.3-1.54.26-.52.55-1.06.72-1.65.02.08,0,.2.11.14.49-1.93,2.02-3.91,3.45-5.57,0,.12.06.29.22.27-.11-.26.32-.79.7-1.24.37.02.58-.86,1.18-1.21v.08c.18-.55.66-.38.74-.91l.38-.06c-.09-.43.68-.34.86-.77l-.06-.05c.23-.33.51-.33.74-.62h.06c.57-.64,1.08-.82.87-1.02.38-.02-.54.64.04.58,1.89-2.12,4.08-4.02,6.19-5.93.32-.13.5-.24.63-.2.17-.23.76-.76.85-1.04-.07.07.24,0,.36-.1.46-.26.2-.62.71-.9-.11.21-.11.33.02.36.2-.5.71-.9,1.08-1.34-.03.1-.11.21-.04.27.29-.61.88-.72,1.18-1.21l-.04.27c.8-.44-.05-.44.6-.86-.1.16,0,.17.02.24.32-.71,1.24-1.4,1.7-1.96-.02.05.02.07.02.07.55-.55,1.21-1.02,1.75-1.69.28-.15.2.37.78-.21-.25-.24.99-.99.36-.99.3-.2.67-.47,1.04-.7.37-.22.71-.43.87-.61-.19.28.52.17.05.51l.48-.07c.02.15-.4.21-.19.28.24-.16.85-.77,1.12-.81.37-.43.62-1.02,1.4-1.46-.33.28.38.26.14.42l.89-1.07c.27-.13.16.23.52-.01-.05-.08.1-.2.2-.32.12,0,1.17-.44,1.39-.15.16.09-.44.2-.09.23.52-.15.51-.29,1.04-.42l.02.04c.36-.02,1.01-.34.59-.45-.25.04.13.18-.25.16.21-.24.84-.42,1.38-.52-.18.09-.14.18-.2.28.69-.39,1.48-.51,2.31-.71,0-.16-.3.32-.42.25.54.04,1.08,0,1.61-.08.53-.06,1.05-.13,1.48.09-.15.01-.06-.24-.06-.19.52.07.47.3.81.25.02.14.42,0,.78,0,.19-.08.08.08-.22.06.25-.06.85,0,1.54.08.34.05.7.09,1.04.19.33.11.64.22.9.35,0-.09.76-.12,1.01-.04l-.17.17c.19.17.81.3.79.48.3-.01-.21-.17-.7-.29-.5-.09-.98-.16-.6-.15.13.21,1.1-.01.85.22.48.19,1.04.16,1.42.53-.12-.09-.5.11-.12.26.69.25.24-.03.8.17l.37.1c.12-.17.57.33.44,0,0,.19,1.01.41.77.68l-.23.19c.29.12.58.03.86.06.02.04.06.14.03.16.27-.32.61.45,1.11.39.48.48,1.33,1.08,1.42,1.46.49.21.92.45,1.28.93-.11-.06-.23-.16-.32-.12.17.35.31.33.6.52-.1,0,.36.68.5,1.07.42.28.47,0,.61-.05,0,.61,1.12.85,1.22,1.51-.16-.09-.63-.39-.43-.02,0,.61.83.44,1.18,1.2l.14-.36c.08.38.85.85.52.97.27.15.38.86.62.63.1.33.24.66.37,1.02.15.35.28.71.38,1.07.21.71.29,1.4.02,1.82.07.18.06.64.22.54.16-.32-.17-.42-.06-.54.03.16.12.19.17.21-.03.42-.06.73-.34.36-.2.87.59.92.33,2.08-.13-.07-.19,0-.24.34.03.22.08.45.1.68-.27.71-.42.32-.65.28-.06.39-.25.82-.16,1.05-.15.11-.3.22-.45.32.34-.22-.02.34-.06.53l.03-.19c-.12.02-.26.44-.37.65.16.04.42-.35.58-.55,0,.22-.16.5-.21.79-.15-.19-.49.46-.7.7-.27.25-.1.44-.17.52-.1-.07-.39.45-.34.12.05-.12.27-.14.32-.37-.22.13-.35-.02-.56.44-.18.34.4.24-.21.65.09-.17.05-.26.1-.42l-.55.38.12.17c-.1.02-.07-.03-.11-.03.01.28-.64.66-.57.94-.21.22-.57.32-.8.5l.03-.05c-.34.15-.64.52-.77.82l-.02-.04c-.15.12-.47.45-.57.7-.47.21-.65-.47-.87.08-.36.34-.32.8-.08.77-.75.49-1.28,1.42-2.1,1.73-.04.15.06.13-.11.35-1.02.82-1.88,2.03-2.93,2.43.22-.32-.12-.17-.21-.25-.11.35-.41.11-.28.42.15.12.19.21.51.02-.51.6-1.39,1.39-1.83,1.55.22-.08.13.07.04.23-.16-.26-.62.09-.87.46l.08.18-.34.05c-.09.16.12.41-.32.57-.06-.04-.13-.07-.22-.06-.23.41-.54,1.02-1,1.24l-.47.07c-.14.16-.29.52.04.33-.73.44-1.14.78-1.49.79-.69,1.38-2.22,2.79-3.48,3.88l-.06-.13c-.42.21-.01.33-.31.47.02-.19-.44.02-.29-.34-.57.32-.45.73-.72,1.05.07.18.17-.31.26-.09-.01.1-.75.49-.64.76-.19.03-.23-.2-.24-.34l-.2.36c-.57.09.43-1.15-.2-1.1l-.24.27c-.45.02.49-.88-.24-.34-.2.36-.19.88.15.73-.56.6.15.73-.52,1.31-.29.04.5-.5.22-.55-.45.12-.54.65-.86.84.37-.2.3.24.14.45-.42.21.04-.39-.45.02.03.19-.33.66.12.41.07.42-.56.37-.63.8-.32-.05.1-.87-.5-.49.24.11-.42.82.09.84-.25.13-.4.01-.35-.23-.39.15-.41.96-.82.69l.07.27c-.14.02-.31.1-.55.13-.26.23-.6.99-.82.69-.06.1-.65.62-.25.6.47-.21.29-.52.72-.44-.45.02-.5.5-.64.76l-.13-.08c-.09.15-.39.39-.37.58.04-.15-.07-.18-.2-.11l.02.28c-.43.54-.38-.18-.83.31l.26-.46c-.06.1-.36.1-.55.36.04.23.03.56.06.75-.22.32-.28-.05-.41.34l.2-.5c0-.1-.46-.03-.83.31-.19.27-.37.81.08.55-.18.17-.53.32-.48.07-.38.43.2.11-.08.53-.24.04-.83.31-1.24.42l.16-.59-.25.23c.15-.49-.3,0-.31-.38-.2.12-.35.38-.46.59.81-.12-.15.97.27,1.14-.62.71-1.1-.35-1.39.78.19-.03.06.51.42.03-.46.35-.01.57-.64.9.26-.46-.68.05-.3-.62.06.13.37-.2.43-.3-.28.04-.24-.34-.68.06-.24.27-.6.61-.41.72.17.16.39-.39.38-.06-.48.54-.81.36-.75.87.32-.33.56-.23.67-.1l-.33.43-.03-.19c-.7.48,0,.38-.63.9l-.49.03c-.03-.33.97-.71.57-.94-.41.34-.39.63-.84.88.06-.1.16-.21.22-.32-.15.12-.68-.18-1.02.58-.2.36.03.18.13.31-.6.61-.68.91-1.08,1.3-.07-.15-.23,0-.41.13-.17.13-.28.21-.12-.14.36-.06,1.25-.9,1.28-1.33-.48-.07.54-.41.42-.82-.52.46-.74.16-.98.05-.15.12-.22.32-.28.42.09.22.28.05.44.22-.63.47-1.04,1.05-1.29,1.52-.29.09-.36-.14-.12-.37-.69.71-1.65,1.22-2.53,1.54.72.11-.95.48-.45.61.51-.11,1.05-.05.84.22-.32.11-.05-.15-.22-.17-.33.35-.72-.05-1.01.36.87-.4.03-.48.1-.81-.57.34-.04-.2-.64-.03-.56.34-1.32.59-2.04.7-.91-.21-2.27-.09-3.08-.28-.37-.26,0-.5-.41-.68-.49-.14.26.46-.43.08l.09-.03c-.12,0-.43-.19-.75-.33-.32-.15-.64-.29-.86-.13l.38-.2c-.11-.09-.27-.08-.39-.11.05-.1-.04-.27.2-.23-.26-.45-.84-.46-1.24-.78l.12.37c-.8-.41-1.1-.99-1.7-1.55l.17-.12-.42-.28c.23-.05.02-.46-.27-.54l1.23.6c.15.34-.44-.12-.45.18-.02.26.58.77.8.71-.19-.22-.23-.2-.44-.31.14-.27.44.05.72.06-.11-.1-.2-.3-.28-.26.3.1.51.29.89.58-.32-.12.02.25-.12.24.18-.16.58.05,1.03.41.21.48,1.04.37,1.62.67-.33.13-.76.22-1.18.1.33.33.45.2.81.49.27-.09.51-.32,1.07-.28l-.02.19c.52.03.57-.25,1.17-.09,1.05.24,2.18.17,2.99,0l.07.18c.19-.22.54-.39.92-.51.37-.16.78-.28,1-.51.51-.14.97-.49,1.36-.81.37-.34.7-.62,1.03-.7,1.37-1.43,2.56-2.7,4.13-4.02l-.07.44c.14-.4.28-.04.52-.31-.45.11.18-.55.26-.84.82-.45,1.53-1.41,2.01-2.1l.15.12c.37-.81,1.3-1.24,2.1-1.88.14-.02.4-.01.61-.23.21-.6.43-.78.91-1.46.44-.4,1.2-.98,1.73-1.3,1.37-1.81,3.24-3.13,4.78-4.88l.27.05c1.35-1.86,3.69-3.39,4.94-4.85l.12.41c.52-.32.95-.99.66-1.09.52-.32.99-1.14,1.48-1.17.5-.36.44-.64.79-1.02,1.01-.72,1.33-1.05,2.14-1.88l-.23.18c-.04.15.06.28.29.1.25-.37,1.25-.99.63-1.04,1.1-.64,2-2.1,3.14-2.64-.16-.02.05-.24.09-.39.8-.73,1.82-1.31,2.33-2.05.17-.07-.06.34.27.05.16-.21-.1-.12.09-.39.58-.68,1.28-1.23,1.98-1.76.35-.26.69-.52,1.03-.77.26-.24.56-.45.74-.74.68-1,1.21-2.1,1.49-3.27.27-1.17.29-2.39.03-3.49h.09c-.25-.33-.27-.77-.38-1.2-.08-.43-.25-.82-.62-.96,0-.2-.34-.59-.11-.58-.26-.2-.48-.54-.76-.95-.33-.44-.7-.91-1.17-1.19.06.08.11.11.21.16-.28-.46-.63-.82-.99-1.18-.36-.35-.71-.65-1.02-1.1.1.05.26.16.35.12-.17-.41-.94-.41-.81-.88-.19-.15-.28.06-.16.14-1.61-1.68-3.92-2.75-6.15-3.5-.73-.46-.72-.59-.66-.7.06-.1.13-.12-.58-.16-.08-.11-.13.14-.12.05-.54-.02-.66-.73-1.08-.57.09.29-.28.1-.32.26-1-.36-1.17-.7-2.04-.56l.08-.13c-.52.16-1.04.13-1.55.16-.51.05-1,.11-1.4.34-2.65.11-5.2.79-7.48,1.91-.57.28-1.11.62-1.67.92-.54.33-1.04.72-1.57,1.07-.51.37-.97.81-1.46,1.21-.48.39-1.01.93-1.51,1.38-4.15,3.63-8.01,7.4-12.33,10.97-1.22.6-1.29.68-2.26,1.75,0-.08.06-.15-.05-.13.15.27-.73.7-.64,1.01-.79.67-1.52,1.34-2.25,2.02-.71.68-1.52,1.39-2.16,2.07.19-.24.13-.53-.12-.26l-.14.41-.1-.02c-.15.21-.23.5.02.39-1.57,1.85-2.94,3.81-3.95,6-1.01,2.17-1.63,4.56-1.63,6.97-.06.57-.1,1.27.02,1.97.05.35.09.7.14,1.05.07.34.16.66.23.96.24,3.68,1.63,7.07,4.35,9.78,0,0-.9.15-2.09-1.03Z"/>
      </g>
    </g>
  </g>
</svg>