<?xml version="1.0" encoding="UTF-8"?>
<svg id="Layer_2" data-name="Layer 2" xmlns="http://www.w3.org/2000/svg" viewBox="0 0 126.38 116.43">
  <defs>
    <style>
      .cls-1 {
        fill: #ff3600;
      }
    </style>
  </defs>
  <path class="cls-1" d="M53.31,19.49s-.05.02-.08.04c0,0,.01,0,.02,0,.02-.01.04-.02.06-.04Z"/>
  <path class="cls-1" d="M98.03,58.16c-.15.31-.3.09-.44-.16-.14-.24-.31-.5-.41-.41-.09-.97.53.11.72-.23-.39-.42-.11-1.13-.58-1.31.11.7-.26-.03-.47-.1-.29-.79.21.07.11-.53-.19-.31-.63-.61-.52-.07-.1-.49-.68-.79-.7-1.38.12-.31.54.85.56.49-.48-1.04-.78-.24-1.34-1.1.09.45-.46.28-.84-.05-.48-1,.37.34.42-.18l-.27-.36c.03-.76,1.28.79,1.26.11l-.38-.35c.16.03.42.06.42-.17-.31.03-.68-.96-.79-.99-.26.05.28.3.08.34-.34-.41-.81-.38-1.14-1.12.39.26.18-.33.39-.26-.14-.38-.31.07-.53-.47l.15-.04c-.37-.54-.8-1.09-1.26-1.64l-.34-.39-.1-.08c-.07-.06-.16-.12-.27-.19,0-.1,0-.21,0-.36.02-.1-.02-.12.04-.3.06-.18.11-.36.15-.53.39-.15.73-.73,1.39-1.57-.3.37-.23-.1-.13-.34.17-.1.32-.22.48-.33.41-.5.54-1.33.59-1.94.09-.08.17-.08.25-.08.37-.46.06-.61.07-.83l.32-.28-.16-.14c.04-.59.28-1.3.57-1.17,0-.24,0-.46-.17-.2.16-.26.27-.82.36-1.44.04-.31,0-.66,0-.99-.01-.16-.02-.33-.04-.48-.04-.16-.08-.31-.11-.45.02.56-.1.51-.3.57-.34-.12.03-.25-.24-.66.12-.03.15-.56.35-.04.02-.2.02-.41.01-.62-.03-.21-.1-.43-.17-.66-.12-.46-.39-.89-.69-1.31-.63-.82-1.48-1.46-2.28-1.94-.36-.14-.28-.03-.48-.04-.9-.83-2.35-.86-3.45-1.2.23.18-.2.52-.81.44-.71.19-.22-.43-.83-.65-.32.1-.9.1-1.14.08l.02-.05c-.38.13-.97.21-1.41.09l.07-.02c-.36-.03-.79-.19-1.17-.15-.16.26-1.09.16-1.29.41-.05-.03.02-.05-.09-.1v.22s-.76-.06-.76-.06c.15-.1.18-.2.39-.28-.81-.08-.25.23-.65.39-.53.21-.53,0-.8-.07.21-.14.41,0,.54-.05.3-.21-.34-.04-.37-.16-.12,0-.14.28-.55.28-.36.01-1.16.21-1.1-.05-.28.17-.63.2-.84.35.29,0,.82-.02.9.12-.25.07-.74.21-.84.12l.2-.09c-.2.09-.95.15-.53.3l-.58-.22c-.08.11-.26.19-.46.25-.15.05-.31.1-.46.15.03-.26.16-.57-.15-.56-.07.06-.14.13-.23.2-.05.02-.09,0-.13,0-.12-.15-.1-.23,0-.34-.05-.15-.12-.21-.21-.26-.04,0-.12-.08-.19-.13-.08-.05-.15-.09-.22-.14-.29-.17-.55-.31-.72-.79.47.21.32-.12.12-.54-.05.01-.16.03-.27-.12-.04.18.32.11.35.5-.09.19-.34-.28-.51-.42.01-.55-.39-1.19-.86-1.86-.51-.65-1.1-1.33-1.45-2-.2.3-.52-.43-.82-.57.34-.18-.61-.57-.72-1.02l-.11.42c-.47-.82-1.44-.61-1.54-1.32-.3-.43.3-.08.5.02-.24-.81-1.66-.96-1.84-1.66-.14.09-.1.39-.68.15-.33-.39-1.08-1.08-.97-1.09-.39-.16-.56-.07-.91-.39.08-.07.27,0,.42.03-.63-.39-1.22-.53-1.89-.58-.14-.19-.53-.38-1-.51-.47-.11-1-.23-1.42-.37-.51.31-1.4-.25-1.47.21.02-.05-.09-.1-.14-.13-.32.14-.56.44-.94.48l.1-.3c.06-.41-1.14.07-1.28-.08.39.19-.45.07-.44.3l-.43.22c-.69.28-.05.15-.9.46-.47.2-.28-.25-.1-.28-.45.02-.83.24-1.21.48.13-.06.18-.06.07.06-.03-.03-.07-.03-.13-.02-.14.09-.29.18-.43.26,0,0,0,0,0-.02.16-.1.31-.19.42-.25-.11.03-.27.1-.44.18-.02-.01-.07.02-.12.06-.14.06-.27.11-.37.12v-.26c-.3.12-.91.82-.84.88-1.18.45-2.64,1.86-3.17,2.5.07-.13.04-.19-.02-.03-.29.31-.48.78-.61.7-.22.35-.39.14-.83.58-.04-.03.1.23.2.08-1,.52-1.46,1.89-2.38,2.75.05-.09.03-.28.04-.4-.51.82-.97,1.63-1.21,2.49-.04-.13-.13-.16-.05-.39-.18.28-.37.59-.51.88-.07.19-.12.4-.11.58.25-.21-.08-.12.04-.29.27-.13.22.25.05.61-.08.05-.18.05-.26.06l-.03-.04c-.52.12-.54.25-1.18.39-.41-.05.32-.13.14-.24-.23-.32-1.52.07-1.65.08-.13.12-.34.23-.29.32-.47.22-.28-.15-.62-.04-.37.32-.74.62-1.1.94-.03,0-.06.02-.09.03-.08-.09-.46-.15-.14-.37-.62.24-1.03.54-1.38.85-.8.27-1.54.56-2.2.85.15-.18-.37-.19-.13-.43-.47.36-1.76.82-2.52,1.28.37.02.15.21-.13.44-.22.21-.45.45-.45.6-.17.14-.33.27-.47.41-.19.03-.2-.16-.43-.02-.67.83-1.26,1.71-1.47,2.68,0,0-.05,0-.07-.06-.02.23-.05.49-.07.78.02.28.04.58.06.87.07.29.15.57.24.83.1.22.23.4.36.56.01.03.02.05.03.08-.07,0-.11.07-.23-.1.12.51.25.46.39.48.08.17.16.33.25.5l-.17-.08c.45.49.53,1.2,1.21,1.63,0,0,0,.01.01.02-.06.07-.19-.03-.29-.09.38.41.79.88,1.24,1.18.08.09.17.18.26.27-.07.04-.16.03-.34-.06.29.44.56.4.83.55.11.1.21.2.32.3.11.15.23.43.15.37.22.06.62.35.95.59.15.12.29.24.44.36.04.14.18.31.38.6.88.68,1.8,1.33,2.74,1.94.47.3.95.6,1.43.88.48.28.89.5,1.36.74-.07.94-.18,2.08-.23,3.19l-.05.38c-.39.39-.1-.84-.39-.53.32.02.01.59-.03,1.63l-.05.04c0,.45-.23.67-.2,1.15h.09c.14.53-.57,1.05-.2,1.38l-.28.35c.29.54-.22.77,0,1.42l-.05-.08c-.27.8.15,1.76-.18,2.04-.03.56-.06,1.19.06,1.51l-.03.24c-.08-.01-.16-.08-.21-.15-.1,1.16-.25,2.38-.38,3.58-.08.74-.15,1.5-.2,2.21l-.17,1.25,12.78,3.79c1.58.59,3.17,1.08,4.6,1.36l1.93.57c0,.07,0,.12.12.14.29.03.58.09.87.15l10.21,3.03.94-2.34v.19c.04-.3.29-.58.41-.4l.1-.6.2.11c.3-.95.76-1.5.98-2.52l-.35.27c.11-.28.15-.59.22-.89l.2-.5c.05-.09.1-.18.19-.26-.03.28.15.14.27.18.01-.14,0-.32.08-.46l.25.4c-.37-.44.44-1.58.46-1.86l.03.11c.48-.77-.26.07-.04-.5.25-.45.46-.02.78-.4.33-.84.64-2.39,1.29-3.22.24-.77.45-1.65.56-2.39.27-.67.35.19.46-.56.1.13.27.08.41.07-.01-.02-.02-.04-.02-.09,0-.05.02-.11.05-.18.01-.04.02-.08.04-.13.05-.16.1-.35-.15-.28.07-.14.15-.29.23-.44.08-.14.11-.37.32-.24.37.09.62.14,1.08.2-.36-.06-.33.2-.24.35.56-.12,1.46-.04,2.37.18.03-.25-.27-.3-.13-.52.14-.01.39-.08.61-.02.08.28-.03.66.8.83-.29.36-1.4-.31-1.1.15-.43.26-1.94-.03-2.23-.31-.8.18.57.17.36.47.67.13,1.02,0,2.07.15.04-.17-.3-.26.2-.31.98-.18,1.11.47,1.34.53-.14.02-.33,0-.47,0,.59.24.85.03,1.5.14.11.48-1.06-.09-1.34.13l.42.41c1.01.19.34-.34,1.37-.06l-.15.15h.67c.03-.18-.07-.46-.64-.51.43-.39.52.01,1.42.05.32-.22-.38-.02-.36-.28-.06-.24.55-.16,1-.17.73.07.35.31.63.51-.14.03-.71,0-.64-.13-.94.17.34.56-.31.68.69.22.7-.09,1.07-.14-.22-.05.12-.24-.03-.35,1.26-.57.73.59,1.93.51-.22-.45,1.58-.56.74-1.08.28-.06.62-.17.91-.14-.31.31.53.22-.02.52h.43s-.65.37-.65.37c.48.19,1.31.36,1.59.5.65-.2-.23-.26.52-.42-.25.19.23.26.57.21-.69-.03-.06-.42.34-.55.65-.11,1.26,0,1.18.1l-.61.41c.47-.34.25.06.76-.16.11-.2.35-.51.45-.78.4-.23.78-.15.92-.25l-.62.44c.9-.44.37.39,1.3-.18l.14-.35c.2-.08.36-.05.22.14.06-.23.62-.52.79-.8l.16.06c.15-.21.28-.48.44-.73.13-.28.3-.53.6-.71-.3.11-.38.22-.47.4-.09.18-.21.42-.58.63-.55.15.4-.71.42-.94.14.14.34-.11.51-.47.12-.38.22-.84.3-1.11.2-.28.32-.55.44-.74-.08-.08-.15-.17-.23-.25.51-.17-.06-1.08-.01-1.61.19.27.39.22.41-.21ZM52.25,20.14c-.08.07-.17.14-.24.17.07-.05.15-.11.24-.17ZM69.33,76.89s-.06.02-.08.02l.26-.66s.04.04.08.04c.01-.14.01-.22.02-.3l.13-.31c.12.24-.16,1.07-.41,1.21ZM71.3,71.82l.11-.28s.02.04.02.07c-.06.09-.1.15-.14.22Z"/>
  <path class="cls-1" d="M44.67,26.69s.04-.06.06-.1c-.05-.04-.06,0-.06.1Z"/>
  <path class="cls-1" d="M85.49,65.69c-.13-.02-.22-.02-.3,0,.06.01.15.02.3,0Z"/>
  <path class="cls-1" d="M75.65,64.74c.14-.21.4-.32.28-.41.09.01.18.17.23.12-.06-.08-.16-.16-.26-.17-.05,0-.11,0-.17.03-.03.01-.05.03-.08.05-.04.06-.08.11-.12.18-.03.02-.04.01-.06.02.1,0,.17.05.18.19Z"/>
  <path class="cls-1" d="M75.47,64.55s-.04,0-.06,0c.01.01.04,0,.06,0Z"/>
  <path class="cls-1" d="M68.88,78.15v-.19c0,.06,0,.13,0,.19Z"/>
  <path class="cls-1" d="M75.59,65.14c.05-.19.06-.31.05-.4-.07.1-.11.23-.05.4Z"/>
  <path class="cls-1" d="M75.18,65.19c.03.11.11.11.06.29.13-.1.07-.32.13-.49-.04.03-.22.17-.19.21Z"/>
  <path class="cls-1" d="M76.07,63.83s0,.12,0,.17c.02-.02,0-.13.05-.12.04,0,.08-.02.12-.04.08-.03.15-.08.16-.16-.09.03-.17.06-.23.09-.03.02-.06.03-.08.05Z"/>
  <path class="cls-1" d="M79.39,64.93c-.1.05-.25.07-.23.15.42.08.52.03.23-.15Z"/>
  <path class="cls-1" d="M80.2,64.87s.04.03.06.05c0-.02-.03-.04-.06-.05Z"/>
  <path class="cls-1" d="M80.2,64.87c-.11-.09-.25-.18-.5-.22-.12.18.33.17.5.22Z"/>
  <path class="cls-1" d="M87.65,66.01c-.15.2.6-.05.82.04-.19-.14-.62-.05-.82-.04Z"/>
  <path class="cls-1" d="M91.57,65.56l.15.17c.2-.04.44-.22.18-.22-.15.08-.2.05-.33.06Z"/>
  <polygon class="cls-1" points="69.34 23.25 68.99 23.03 69.2 23.32 69.34 23.25"/>
  <path class="cls-1" d="M43.38,28.31c-.26.41-.13-.11-.33.2.06-.04.17.19.33-.2Z"/>
  <polygon class="cls-1" points="30.57 35.07 30.47 35.15 30.73 35.33 30.57 35.07"/>
  <path class="cls-1" d="M65.7,84.77l.18-.07c-.18.13-.35-.07-.23-.26l-.28.05.08-.21c-.42-.05-.62-.36-1.09-.32l.08.27c-.12-.03-.27,0-.4,0l-.22-.07s-.07-.05-.1-.11c.13-.04.09-.18.13-.29-.07.02-.16.08-.21.03l.23-.33c-.26.45-.71-.04-.84,0l.06-.06c-.31-.27,0,.22-.25.15-.19-.13.05-.42-.09-.63-.36-.11-1.07-.03-1.39-.45-.34-.04-.74-.03-1.09.04-.29-.09.14-.37-.21-.3.07-.12.08-.27.09-.4-.08.14-.53-.2-.41.2-.4-.21-.86-.39-1.32-.47.15.03.27-.19.18-.35-.28.16-.68.17-1.03-.01-.07.24.05.28-.07.5-.07.02-.19.1-.28.05.03-.26.17-.64-.16-.75.22-.36.55.23.52-.2.25-.26.85-.08.93.15.4-.23-.22-.11-.06-.42-.28-.06-.45.07-.88-.02-.06.16.07.23-.16.3-.48.22-.38-.39-.47-.44.07-.02.14,0,.21-.03-.21-.19-.37,0-.62-.1.07-.47.43.09.61-.16l-.08-.38c-.38-.17-.23.33-.6.08l.1-.14-.29.02c-.06.16-.08.43.15.47-.28.38-.22,0-.6-.04-.19.21.15.03.08.27-.04.23-.28.16-.47.14-.29-.09-.06-.31-.12-.51.07-.02.3.02.23.15.43-.13.01-.55.31-.65-.22-.23-.31.06-.48.09.08.06-.12.23-.08.34-.68.5-.14-.58-.63-.61-.04.45-.79.39-.62.96-.13.04-.3.09-.4.01.21-.25-.13-.29.17-.49l-.16-.06.36-.26c-.12-.26-.35-.55-.41-.72-.28.05-.02.3-.31.28.14-.12.02-.3-.11-.33.21.19-.13.41-.31.43-.24-.07-.35-.41-.29-.46l.31-.17c-.25.15-.04-.14-.25-.11-.1.14-.3.35-.42.53-.18.02-.22-.22-.28-.21l.3-.09c-.34-.04.08-.46-.29-.46l-.16.19c-.05-.06-.05-.17.04-.23-.1.14-.28.05-.38.08l.03-.15c-.17.05-.45.32-.52-.02.01.4.17.06.35.29.06.31-.31.17-.38.19.14-.37-.34-.15-.51-.21-.05-.17-.12-.26-.15-.36l-.15.23c.1-.51-.37,0-.51-.21.15-.12.2-.32.09-.43.06.42-.44.36-.47.62-.29-.24.23-.44.21-.72-.26.23-.32-.3-.54.02.21.19-.11.22-.22.36-.3-.13.1-.14-.07-.34-.14,0-.4.23-.24.4-.15-.14-.47.14-.59-.14,0-.25.41.02.35-.18-.42-.16-.4.49-.82.44.13.18-.16.53-.4.6-.4-.24.23-.07.16-.42h-.19c-.11-.49.73-.5.6-.9l-.23.07c.08-.1.21-.28.16-.42-.14.26-.46-.08-.52-.02-.11.22.18-.02.09.16-.22,0-.44.36-.7.11.22-.11.04-.34.15-.45-.12-.15-.14.26-.31.06l.07-.13c-.79-.31-1.8-.61-2.68-.27-.05-.28-.3-.38-.65-.68.15.14-.07.24-.18.24l-.1-.33c-.18-.23-.57-.08-.84,0-.02-.07,0-.14,0-.22-.15-.25-.27.08-.37.11l-.07-.24-.09.18c-.24.04-.51-.1-.38-.39-.1.03-.2.06-.13.19-.15-.25-.72-.43-1.13-.46.15.14.11.22.06.42-.16.31-.06-.09-.28.05.04-.12-.09-.3.12-.33-.09-.15-.21-.25-.35-.32-.14-.08-.26-.12-.57-.21-.53-.15-1.06-.26-1.58-.47-.19,0-.12.08-.19.15-.48-.4-.96-.47-1.4-.58-.06.27-.12.52-.22.7.15,0,.38.65.3.97.12.6-.35-.22-.59.03.05.29,0,.65-.06.78l-.04-.04c.07.32.06.67-.14.89v-.05c-.1.24-.31.33-.33.48.24.14-.02.45.18.61-.03.01-.04-.02-.11,0l.21.07-.2.26c-.07-.09-.16-.13-.19-.23-.24.27.17.16.24.36.09.26-.12.19-.24.27-.08-.12.1-.15.07-.21-.14-.17-.11.11-.23.08-.02.04.23.14.14.28-.06.13-.09.48-.31.37.09.15.03.29.11.41.07-.1.19-.29.35-.28,0,.11,0,.33-.1.34l-.04-.1c.04.1-.12.38.14.28l-.36.13c.16.13.08.34.08.53-.24-.06-.47-.28-.62.04l.16.35c-.02.16-.08.18-.22.12-.28.47.51.71.19,1.05-.24-.25-.3-.11-.43.04.04.02.13.06.12.14.14-.01-.17-.16.06-.25.19,0,.07.2.11.3-.71.18-.48,1.14-.93,1.64.35.06.03.29.12.44-.35-.14-.03.34-.29.44h.38c-.3.31.37.73-.11.84-.16.17-.24-.14-.27-.24-.46.17.11.82-.38.92.14.06.39.05.45.32-.21.15-.5.48-.55.42.02.19.14.21-.06.43-.09-.04-.07-.17-.09-.22-.19.33-.15.76-.1,1.08-.35.24-.41.95-.72,1.5.24.08-.08.5-.06.64.09,0,.19-.02.34-.1-.07.03-.08.09-.08.11.33-.04.77-.21.98-.17l-.36.2c-.43.26.55.24.46.4,0-.26.26.08.44-.1h.31c.43.04.14-.12.62-.02.27.06-.06.34-.14.27.12.15.31.19.49.2.09,0,.15,0,.21,0-.06-.02-.08-.04,0-.09,0,.04,0,.06.03.09.07,0,.12,0,.2.01,0,0,0,0,0,.01-.07,0-.14,0-.19-.02.04.04.1.06.17.08,0,.02.02.02.04.02.06.02.11.05.13.1l-.11.21c.12.05.52-.11.54-.21.42.32,1.24.39,1.6.36-.08.03-.1.1-.02.04.18,0,.41-.13.39.02.18-.04.1.19.34.29,0,.05.1-.21.02-.2.32.46,1.02.06,1.46.43-.02-.07-.15.09-.22.16.41,0,.8.01,1.21-.15-.06.09-.08.19-.19.22.26.07.58.1.77-.07-.15-.15-.05.12-.16.07-.13-.25.26-.35.42-.25v.05c.26.07.3-.05.56.03.12.17-.15.02-.13.18-.04.37.53.39.58.45.08-.06.19-.09.21-.19.23-.03.03.23.18.26l.71-.46h.03c-.01.12.08.33-.1.39.28.05.52-.07.74-.2l.97.28c-.13.05,0,.33-.17.41.26-.06.76.23,1.09.39-.11-.44.44-.11.57-.37l.24.07c.04.11-.06.27.03.35.46-.02.82.19,1.21.26,0,0,0,.05-.04.07.37,0,.88.24,1.32.05h.03c-.03.07-.03.14-.12.17.18.13.23-.01.29-.11l.23.07-.1.1c.32-.09.47.31.86.12-.02.1-.09.11-.15.15.24,0,.49.08.74.02l.14.04c-.03.07-.08.13-.17.16.18.16.31-.04.45-.08l.17.05c.07.05.15.22.1.21.12-.08.33-.05.51-.04l.22.06c.02.09.09.17.19.31,1.33.38,2.67.82,4.07.93l.19.05c.08.37-.39.11-.32.39.08-.31.26-.02.71,0v.05c.2-.01.24.21.47.17l.02-.08c.26-.14.34.53.56.17l.09.27c.3-.29.29.2.62-.02l-.05.05c.29.25.81-.18.85.14.24.02.5.04.67-.08l.1.03c-.02.08-.06.16-.11.21.78.12,1.68.39,2.35.46,0-.03,0-.06.01-.09l2.01-5.79c.34-.63.59-1.28.66-1.9l.28-.8c.06.02.11.02.12-.03,0-.13,0-.26.02-.38l1.32-3.8s0,0,.01-.01c0,0,0,0,0,0l.14-.4-1.01-.33ZM65.33,84.57s-.01.04-.02.07l-.27-.09s.03-.05.03-.08c-.07.02-.1.04-.14.05l-.13-.04c.14-.17.5-.1.53.1ZM63.05,83.85s.06.06.09.08l-.12-.04s.02-.03.03-.04ZM34.6,91.25c.05-.01.1-.02.13,0-.04,0-.08,0-.13,0Z"/>
  <path class="cls-1" d="M38.47,92.52s-.03,0-.05,0c-.02.06,0,.04.05,0Z"/>
  <path class="cls-1" d="M60.18,81.75s0,.04,0,.06c0-.01,0-.03,0-.06Z"/>
  <path class="cls-1" d="M60.48,81.5c-.09,0-.14.02-.18.04.04.04.09.04.18-.04Z"/>
  <path class="cls-1" d="M60.3,81.54c-.08-.08-.1-.3-.27-.2-.03-.1.16-.19.03-.27-.18.13-.08.46.12.62,0,.02,0,.03,0,.05.01-.09.05-.17.12-.21Z"/>
  <path class="cls-1" d="M34.12,91.22s.01,0,.02,0c0,0,0,0,0,0,0,0-.02,0-.02,0Z"/>
  <path class="cls-1" d="M55.42,79.57s-.05-.02-.12-.02c.05.02.09.02.12.02Z"/>
  <path class="cls-1" d="M60.45,81.87c.06-.05.07-.13.15-.12-.03-.1-.14,0-.22,0,.01.03.05.17.08.12Z"/>
  <path class="cls-1" d="M58.95,81.28l.63-.09c-.2-.05-.56-.05-.63.09Z"/>
  <path class="cls-1" d="M57.84,80.08c-.17-.06-.22,0-.14.15.06-.06.12-.07.14-.15Z"/>
  <path class="cls-1" d="M57.32,80.28c.03.1.06.2.18.24.12-.22-.22-.11-.18-.24Z"/>
  <path class="cls-1" d="M54.23,78.97c.02.18.22.11.3.13.12-.18-.25,0-.3-.13Z"/>
  <path class="cls-1" d="M52.9,78.8c.07-.02.08.01.12.04v-.19c-.06-.01-.19.06-.12.15Z"/>
  <polygon class="cls-1" points="32.37 84.86 32.4 85.04 32.51 84.92 32.37 84.86"/>
  <path class="cls-1" d="M39.27,92.82c.19.03-.05.16.09.19-.02-.03.09-.23-.09-.19Z"/>
  <polygon class="cls-1" points="45.75 93.93 45.8 93.64 45.7 93.92 45.75 93.93"/>
</svg>