<?xml version="1.0" encoding="UTF-8"?>
<svg xmlns="http://www.w3.org/2000/svg" viewBox="0 0 95 95">
  <defs>
    <style>
      .cls-1 {
        fill: #fff;
      }

      .cls-2 {
        isolation: isolate;
      }

      .cls-3 {
        fill: #ff4f20;
      }

      .cls-4 {
        fill: #f7a397;
        font-family: Icebox-Magnet-Trial-90ms-RKSJ-H, 'Icebox Trial';
        font-size: 7.74px;
        mix-blend-mode: multiply;
        opacity: .49;
      }
    </style>
  </defs>
  <g class="cls-2">
    <g id="Layer_3" data-name="Layer 3">
      <text class="cls-4" transform="translate(-134.26 -112.56) rotate(20.77)"><tspan x="0" y="0" xml:space="preserve">YUM YUM YUM YUM YUM YUM YUM YUM YUM YUM  </tspan><tspan x="0" y="8" xml:space="preserve">YUM YUM YUM YUM YUM YUM YUM YUM YUM YUM  </tspan><tspan x="0" y="16" xml:space="preserve">YUM YUM YUM YUM YUM YUM YUM YUM YUM YUM  </tspan><tspan x="0" y="24" xml:space="preserve">YUM YUM YUM YUM YUM YUM YUM YUM YUM YUM  </tspan><tspan x="0" y="32" xml:space="preserve">YUM YUM YUM YUM YUM YUM YUM YUM YUM YUM  </tspan><tspan x="0" y="40" xml:space="preserve">YUM YUM YUM YUM YUM YUM YUM YUM YUM YUM  </tspan><tspan x="0" y="48" xml:space="preserve">YUM YUM YUM YUM YUM YUM YUM YUM YUM YUM  </tspan><tspan x="0" y="56">YUM YUM YUM YUM YUM YUM YUM YUM YUM YUM</tspan><tspan x="0" y="64" xml:space="preserve">YUM YUM YUM YUM YUM YUM YUM YUM YUM YUM  </tspan><tspan x="0" y="72" xml:space="preserve">YUM YUM YUM YUM YUM YUM YUM YUM YUM YUM  </tspan><tspan x="0" y="80" xml:space="preserve">YUM YUM YUM YUM YUM YUM YUM YUM YUM YUM  </tspan><tspan x="0" y="88" xml:space="preserve">YUM YUM YUM YUM YUM YUM YUM YUM YUM YUM  </tspan><tspan x="0" y="96" xml:space="preserve">YUM YUM YUM YUM YUM YUM YUM YUM YUM YUM  </tspan><tspan x="0" y="104" xml:space="preserve">YUM YUM YUM YUM YUM YUM YUM YUM YUM YUM  </tspan><tspan x="0" y="112" xml:space="preserve">YUM YUM YUM YUM YUM YUM YUM YUM YUM YUM  </tspan><tspan x="0" y="120">YUM YUM YUM YUM YUM YUM YUM YUM YUM YUM</tspan><tspan x="0" y="128" xml:space="preserve">YUM YUM YUM YUM YUM YUM YUM YUM YUM YUM  </tspan><tspan x="0" y="136" xml:space="preserve">YUM YUM YUM YUM YUM YUM YUM YUM YUM YUM  </tspan><tspan x="0" y="144" xml:space="preserve">YUM YUM YUM YUM YUM YUM YUM YUM YUM YUM  </tspan><tspan x="0" y="152" xml:space="preserve">YUM YUM YUM YUM YUM YUM YUM YUM YUM YUM  </tspan><tspan x="0" y="160" xml:space="preserve">YUM YUM YUM YUM YUM YUM YUM YUM YUM YUM  </tspan><tspan x="0" y="168" xml:space="preserve">YUM YUM YUM YUM YUM YUM YUM YUM YUM YUM  </tspan><tspan x="0" y="176" xml:space="preserve">YUM YUM YUM YUM YUM YUM YUM YUM YUM YUM  </tspan><tspan x="0" y="184" xml:space="preserve">YUM YUM YUM YUM YUM YUM YUM YUM YUM YUM   </tspan><tspan x="0" y="192" xml:space="preserve">   </tspan><tspan x="0" y="200" xml:space="preserve">   </tspan></text>
      <g>
        <path class="cls-1" d="M-33.14.24l2.15,2.38c3.47,3.84,9.4,4.14,13.24.67L20.25-31.03c3.84-3.47,4.14-9.4.67-13.24l-2.15-2.38c-7.9-8.75-21.4-9.43-30.15-1.53l-20.23,18.27c-8.75,7.9-9.43,21.4-1.53,30.15Z"/>
        <path class="cls-3" d="M-34.25-1.68c-.43-.34-.83-.77-1.19-1.25-.38-.47-.62-1.06-.91-1.62-.3-.56-.49-1.17-.74-1.75-.13-.29-.25-.57-.38-.85-.11-.29-.23-.56-.37-.83-.11-.26.39-.04.13-.61-.56-1.01-.9-2.48-.94-4.01-.06-.76.07-1.55.14-2.3.11-.75.32-1.47.48-2.14l.09.18c.13-.5-.07-1.17.07-1.71.07.01.07.19.19.09-.09-.09-.07-.34-.04-.6.05-.26.12-.52.07-.65.15-.19.31-.12.48-.36l-.15-.37c-.18-.52.03-1.02.3-1.54.26-.52.55-1.06.72-1.65.02.08,0,.2.11.14.49-1.93,2.02-3.91,3.45-5.57,0,.12.06.29.22.27-.11-.26.32-.79.7-1.24.37.02.58-.86,1.18-1.21v.08c.18-.55.66-.38.74-.91l.38-.06c-.09-.43.68-.34.86-.77l-.06-.05c.23-.33.51-.33.74-.62h.06c.57-.64,1.08-.82.87-1.02.38-.02-.54.64.04.58,1.89-2.12,4.08-4.02,6.19-5.93.32-.13.5-.24.63-.2.17-.23.76-.76.85-1.04-.07.07.24,0,.36-.1.46-.26.2-.62.71-.9-.11.21-.11.33.02.36.2-.5.71-.9,1.08-1.34-.03.1-.11.21-.04.27.29-.61.88-.72,1.18-1.21l-.04.27c.8-.44-.05-.44.6-.86-.1.16,0,.17.02.24.32-.71,1.24-1.4,1.7-1.96-.02.05.02.07.02.07.55-.55,1.21-1.02,1.75-1.69.28-.15.2.37.78-.21-.25-.24.99-.99.36-.99.3-.2.67-.47,1.04-.7.37-.22.71-.43.87-.61-.19.28.52.17.05.51l.48-.07c.02.15-.4.21-.19.28.24-.16.85-.77,1.12-.81.37-.43.62-1.02,1.4-1.46-.33.28.38.26.14.42l.89-1.07c.27-.13.16.23.52-.01-.05-.08.1-.2.2-.32.12,0,1.17-.44,1.39-.15.16.09-.44.2-.09.23.52-.15.51-.29,1.04-.42l.02.04c.36-.02,1.01-.34.59-.45-.25.04.13.18-.25.16.21-.24.84-.42,1.38-.52-.18.09-.14.18-.2.28.69-.39,1.48-.51,2.31-.71,0-.16-.3.32-.42.25.54.04,1.08,0,1.61-.08.53-.06,1.05-.13,1.48.09-.15.01-.06-.24-.06-.19.52.07.47.3.81.25.02.14.42,0,.78,0,.19-.08.08.08-.22.06.25-.06.85,0,1.54.08.34.05.7.09,1.04.19.33.11.64.22.9.35,0-.09.76-.12,1.01-.04l-.17.17c.19.17.81.3.79.48.3-.01-.21-.17-.7-.29-.5-.09-.98-.16-.6-.15.13.21,1.1-.01.85.22.48.19,1.04.16,1.42.53-.12-.09-.5.11-.12.26.69.25.24-.03.8.17l.37.1c.12-.17.57.33.44,0,0,.19,1.01.41.77.68l-.23.19c.29.12.58.03.86.06.02.04.06.14.03.16.27-.32.61.45,1.11.39.48.48,1.33,1.08,1.42,1.46.49.21.92.45,1.28.93-.11-.06-.23-.16-.32-.12.17.35.31.33.6.52-.1,0,.36.68.5,1.07.42.28.47,0,.61-.05,0,.61,1.12.85,1.22,1.51-.16-.09-.63-.39-.43-.02,0,.61.83.44,1.18,1.2l.14-.36c.08.38.85.85.52.97.27.15.38.86.62.63.1.33.24.66.37,1.02.15.35.28.71.38,1.07.21.71.29,1.4.02,1.82.07.18.06.64.22.54.16-.32-.17-.42-.06-.54.03.16.12.19.17.21-.03.42-.06.73-.34.36-.2.87.59.92.33,2.08-.13-.07-.19,0-.24.34.03.22.08.45.1.68-.27.71-.42.32-.65.28-.06.39-.25.82-.16,1.05-.15.11-.3.22-.45.32.34-.22-.02.34-.06.53l.03-.19c-.12.02-.26.44-.37.65.16.04.42-.35.58-.55,0,.22-.16.5-.21.79-.15-.19-.49.46-.7.7-.27.25-.1.44-.17.52-.1-.07-.39.45-.34.12.05-.12.27-.14.32-.37-.22.13-.35-.02-.56.44-.18.34.4.24-.21.65.09-.17.05-.26.1-.42l-.55.38.12.17c-.1.02-.07-.03-.11-.03.01.28-.64.66-.57.94-.21.22-.57.32-.8.5l.03-.05c-.34.15-.64.52-.77.82l-.02-.04c-.15.12-.47.45-.57.7-.47.21-.65-.47-.87.08-.36.34-.32.8-.08.77-.75.49-1.28,1.42-2.1,1.73-.04.15.06.13-.11.35-1.02.82-1.88,2.03-2.93,2.43.22-.32-.12-.17-.21-.25-.11.35-.41.11-.28.42.15.12.19.21.51.02-.51.6-1.39,1.39-1.83,1.55.22-.08.13.07.04.23-.16-.26-.62.09-.87.46l.08.18-.34.05c-.09.16.12.41-.32.57-.06-.04-.13-.07-.22-.06-.23.41-.54,1.02-1,1.24l-.47.07c-.14.16-.29.52.04.33-.73.44-1.14.78-1.49.79-.69,1.38-2.22,2.79-3.48,3.88l-.06-.13c-.42.21-.01.33-.31.47.02-.19-.44.02-.29-.34-.57.32-.45.73-.72,1.05.07.18.17-.31.26-.09-.01.1-.75.49-.64.76-.19.03-.23-.2-.24-.34l-.2.36c-.57.09.43-1.15-.2-1.1l-.24.27c-.45.02.49-.88-.24-.34-.2.36-.19.88.15.73-.56.6.15.73-.52,1.31-.29.04.5-.5.22-.55-.45.12-.54.65-.86.84.37-.2.3.24.14.45-.42.21.04-.39-.45.02.03.19-.33.66.12.41.07.42-.56.37-.63.8-.32-.05.1-.87-.5-.49.24.11-.42.82.09.84-.25.13-.4.01-.35-.23-.39.15-.41.96-.82.69l.07.27c-.14.02-.31.1-.55.13-.26.23-.6.99-.82.69-.06.1-.65.62-.25.6.47-.21.29-.52.72-.44-.45.02-.5.5-.64.76l-.13-.08c-.09.15-.39.39-.37.58.04-.15-.07-.18-.2-.11l.02.28c-.43.54-.38-.18-.83.31l.26-.46c-.06.1-.36.1-.55.36.04.23.03.56.06.75-.22.32-.28-.05-.41.34l.2-.5c0-.1-.46-.03-.83.31-.19.27-.37.81.08.55-.18.17-.53.32-.48.07-.38.43.2.11-.08.53-.24.04-.83.31-1.24.42l.16-.59-.25.23c.15-.49-.3,0-.31-.38-.2.12-.35.38-.46.59.81-.12-.15.97.27,1.14-.62.71-1.1-.35-1.39.78.19-.03.06.51.42.03-.46.35-.01.57-.64.9.26-.46-.68.05-.3-.62.06.13.37-.2.43-.3-.28.04-.24-.34-.68.06-.24.27-.6.61-.41.72.17.16.39-.39.38-.06-.48.54-.81.36-.75.87.32-.33.56-.23.67-.1l-.33.43-.03-.19c-.7.48,0,.38-.63.9l-.49.03c-.03-.33.97-.71.57-.94-.41.34-.39.63-.84.88.06-.1.16-.21.22-.32-.15.12-.68-.18-1.02.58-.2.36.03.18.13.31-.6.61-.68.91-1.08,1.3-.07-.15-.23,0-.41.13-.17.13-.28.21-.12-.14.36-.06,1.25-.9,1.28-1.33-.48-.07.54-.41.42-.82-.52.46-.74.16-.98.05-.15.12-.22.32-.28.42.09.22.28.05.44.22-.63.47-1.04,1.05-1.29,1.52-.29.09-.36-.14-.12-.37-.69.71-1.65,1.22-2.53,1.54.72.11-.95.48-.45.61.51-.11,1.05-.05.84.22-.32.11-.05-.15-.22-.17-.33.35-.72-.05-1.01.36.87-.4.03-.48.1-.81-.57.34-.04-.2-.64-.03-.56.34-1.32.59-2.04.7-.91-.21-2.27-.09-3.08-.28-.37-.26,0-.5-.41-.68-.49-.14.26.46-.43.08l.09-.03c-.12,0-.43-.19-.75-.33-.32-.15-.64-.29-.86-.13l.38-.2c-.11-.09-.27-.08-.39-.11.05-.1-.04-.27.2-.23-.26-.45-.84-.46-1.24-.78l.12.37c-.8-.41-1.1-.99-1.7-1.55l.17-.12-.42-.28c.23-.05.02-.46-.27-.54l1.23.6c.15.34-.44-.12-.45.18-.02.26.58.77.8.71-.19-.22-.23-.2-.44-.31.14-.27.44.05.72.06-.11-.1-.2-.3-.28-.26.3.1.51.29.89.58-.32-.12.02.25-.12.24.18-.16.58.05,1.03.41.21.48,1.04.37,1.62.67-.33.13-.76.22-1.18.1.33.33.45.2.81.49.27-.09.51-.32,1.07-.28l-.02.19c.52.03.57-.25,1.17-.09,1.05.24,2.18.17,2.99,0l.07.18c.19-.22.54-.39.92-.51.37-.16.78-.28,1-.51.51-.14.97-.49,1.36-.81.37-.34.7-.62,1.03-.7,1.37-1.43,2.56-2.7,4.13-4.02l-.07.44c.14-.4.28-.04.52-.31-.45.11.18-.55.26-.84.82-.45,1.53-1.41,2.01-2.1l.15.12c.37-.81,1.3-1.24,2.1-1.88.14-.02.4-.01.61-.23.21-.6.43-.78.91-1.46.44-.4,1.2-.98,1.73-1.3,1.37-1.81,3.24-3.13,4.78-4.88l.27.05c1.35-1.86,3.69-3.39,4.94-4.85l.12.41c.52-.32.95-.99.66-1.09.52-.32.99-1.14,1.48-1.17.5-.36.44-.64.79-1.02,1.01-.72,1.33-1.05,2.14-1.88l-.23.18c-.04.15.06.28.29.1.25-.37,1.25-.99.63-1.04,1.1-.64,2-2.1,3.14-2.64-.16-.02.05-.24.09-.39.8-.73,1.82-1.31,2.33-2.05.17-.07-.06.34.27.05.16-.21-.1-.12.09-.39.58-.68,1.28-1.23,1.98-1.76.35-.26.69-.52,1.03-.77.26-.24.56-.45.74-.74.68-1,1.21-2.1,1.49-3.27.27-1.17.29-2.39.03-3.49h.09c-.25-.33-.27-.77-.38-1.2-.08-.43-.25-.82-.62-.96,0-.2-.34-.59-.11-.58-.26-.2-.48-.54-.76-.95-.33-.44-.7-.91-1.17-1.19.06.08.11.11.21.16-.28-.46-.63-.82-.99-1.18-.36-.35-.71-.65-1.02-1.1.1.05.26.16.35.12-.17-.41-.94-.41-.81-.88-.19-.15-.28.06-.16.14-1.61-1.68-3.92-2.75-6.15-3.5-.73-.46-.72-.59-.66-.7.06-.1.13-.12-.58-.16-.08-.11-.13.14-.12.05-.54-.02-.66-.73-1.08-.57.09.29-.28.1-.32.26-1-.36-1.17-.7-2.04-.56l.08-.13c-.52.16-1.04.13-1.55.16-.51.05-1,.11-1.4.34-2.65.11-5.2.79-7.48,1.91-.57.28-1.11.62-1.67.92-.54.33-1.04.72-1.57,1.07-.51.37-.97.81-1.46,1.21-.48.39-1.01.93-1.51,1.38-4.15,3.63-8.01,7.4-12.33,10.97-1.22.6-1.29.68-2.26,1.75,0-.08.06-.15-.05-.13.15.27-.73.7-.64,1.01-.79.67-1.52,1.34-2.25,2.02-.71.68-1.52,1.39-2.16,2.07.19-.24.13-.53-.12-.26l-.14.41-.1-.02c-.15.21-.23.5.02.39-1.57,1.85-2.94,3.81-3.95,6-1.01,2.17-1.63,4.56-1.63,6.97-.06.57-.1,1.27.02,1.97.05.35.09.7.14,1.05.07.34.16.66.23.96.24,3.68,1.63,7.07,4.35,9.78,0,0-.9.15-2.09-1.03Z"/>
      </g>
      <g>
        <g>
          <path class="cls-1" d="M46.13,36.04l-5.94-4.86c1.31-.52,2.18-1.84,2.04-3.31-.18-1.77-1.76-3.07-3.53-2.89s-3.07,1.76-2.89,3.53c.05.55.26,1.04.54,1.47-.47-.18-.98-.28-1.51-.22-1.8.18-3.11,1.79-2.93,3.59s1.79,3.11,3.59,2.93c1.43-.14,2.54-1.19,2.85-2.51l5.79,4.73,2.01-2.46Z"/>
          <g>
            <path class="cls-3" d="M45.69,36.39c.18.06.09-.26.17-.01-.09.08-.18.12-.17.01Z"/>
            <path class="cls-3" d="M45.45,36.28c.11.47-.11.74-.36.98-.25.25-.47.4-.6.95-.04.1-.11-.52-.18-.28-.04.22-.11.43-.19.61-.46-.1-1.15-1.06-1.3-1.65l.09-.08c-.02-.13-.39.07-.48-.07.05-.06.11-.05.15-.16-.18.16-.29-.09-.45,0,.01-.11.13-.25.14-.38l-.24.15c-.6.34-.43-.41-.9-.37.05-.04.11-.05.13-.12-.65-.03-1.17-.55-1.64-.75.05-.08.14-.23.16-.36-.14.25-.3.22-.42.19.01-.37-.24.15-.33-.13l.02-.07c-.11.3-.13-.34-.21.07l-.06-.35c-.01.52-.15-.4-.22-.18l.02.12c-.05.11-.14-.28-.17-.16v-.06c-.04.35-.15.15-.05.57-.1-.27.04-.33-.11-.75-.01.11-.03.2-.04.29-.19.94-.57,1.31-1.29,1.77-.14-.06-.22-.07-.29-.17-.04.1-.24.18-.25.35.02-.02-.11-.13-.15-.14-.17-.08-.05.39-.25.29.05-.1.04-.2-.01-.31-.07.27-.26.27-.42.37.02-.06.05-.09.04-.19-.15.3-.32-.04-.47.15l.06-.18c-.23-.23-.08.38-.3.24.06-.06.04-.13.06-.2-.23.33-.56.15-.79.2.02-.02.03-.07.03-.07-.24-.03-.41-.21-.71-.2-.04-.12.24-.38.01-.44-.19.33-.41-.1-.54.33-.15-.18-.31-.51-.49-.53.17-.03.27-.38.4-.28l.09-.24c.12-.09.04.12.16-.04-.06-.04-.31-.1-.3-.2-.26.03-.7.14-.88-.08.18.04.33-.25.42-.21-.25.01-.53,0-.8-.03-.05-.08.27-.13.13-.22-.09.04-.17,0-.26-.01.02-.04-.2-.37.15-.48.13-.07.11.12.21,0-.04-.15-.15-.14-.19-.3h.05c.03-.11-.18-.32-.38-.18,0,.08.22-.05.12.08-.21-.06-.3-.27-.29-.46.06.06.15.06.26.08-.28-.24-.35-.52-.41-.83-.17-.04.29.17.2.19.28-.28-.15-.83.31-.98,0,.06-.24-.08-.19-.06.1-.16.32-.03.28-.18.13.06.02-.14.05-.27-.06-.11.08.01.04.11-.05-.2.18-.91.63-1.02-.08-.06-.06-.43.02-.49l.12.2c.15.06.23-.2.36-.05-.03-.34-.41.63-.35.31.16.1.04-.51.19-.23.13-.11.14-.43.4-.33-.06,0,.05.34.15.26.18-.16,0-.13.14-.29l.07-.14c-.09-.21.22-.07.03-.26.1.15.32-.24.42.12l.06.29c.09-.06.06-.35.05-.48.02.02.05.08.06.12-.15-.42.16,0,.06-.33.15.13.19-.01.42.24-.01-.12-.1-.26.06-.17.02.04.01.05.09.13.16.12.08.02.06-.04.05.06.35.26.6.43-.05-.1-.36-.34-.51-.48.33.26.24.14.16.06-.08-.08-.12-.12.05,0,.08.07.32.3.42.35.47.32-.47-.43-.27-.35l-.4-.26c.23.13-.28-.27.13,0-.15-.11.09-.04-.28-.24.14.02.07-.11.06-.19,0-.09.02-.13.35-.18-.06-.05,0-.13-.17-.13-.2.03.14.1,0,.1,0-.03-.11-.05-.15-.06.08-.06.11-.12.4-.01.25-.19-.58-.36-.35-.72.14.05.2.04.21-.08-.06-.09-.12-.19-.18-.28.14-.23.36-.02.6.06,0-.13.07-.26-.07-.39h.35c-.25,0-.09-.16-.11-.23l.02.08c.1.03.12-.12.13-.2-.14-.07-.27.03-.35.08-.06-.11.01-.19-.05-.34.19.15.26-.09.35-.15.11-.06-.09-.24-.06-.27.1.07.15-.14.22.05,0,.05-.16,0-.11.12.12,0,.28.14.27-.08,0-.17-.38-.3-.11-.37,0,.09.06.16.1.26.08-.02.16-.05.24-.07l-.15-.16c.06.02.06.05.09.06-.11-.21.19-.28.07-.51.08-.09.29-.03.39-.07v.03c.17.03.27-.12.29-.31l.02.05c.07-.03.21-.13.24-.29.24.07.39.73.46.41.15-.06.12-.48,0-.59.35.03.68-.4,1.04-.09.04-.09,0-.15.1-.21.49.04,1.14-.23,1.44.31-.16.06-.06.21-.09.34.16-.16.07.23.2-.09.05-.2.09-.29-.03-.4.33-.03.78.16.84.41-.03-.12.05-.15.14-.17-.16.27,0,.42.2.41l.13-.15-.02.23c.08-.02.29-.29.32-.04-.04.07-.08.13-.09.2.23-.03.61-.05.64.21l-.1.31c.08.04.3.03.26-.14.1.36.19.55.04.77.81.1,1.22,1,1.25,1.68h-.15c-.11.2.27.06.18.2-.14-.04-.29.16-.47.05-.14.25.28.29.34.47.19.02-.12-.14.12-.11.07.03-.16.36.13.42-.12.06-.33,0-.44-.05.05.05.08.11.13.17-.35.14-.58-.45-1.01-.28l.04.12c-.31.07-.33-.3-.45-.05.13.11.54.28.68.18.05.29.68.22.59.56-.19.06.01-.28-.24-.26-.26.11.07.33-.05.45.15-.12.4.08.42.2-.18.14-.23-.19-.33.04.15.09.18.36.36.2.32.22-.19.23.01.48-.28-.04-.46-.49-.69-.29.26.06.17.46.58.5-.12.08-.31-.02-.41-.16-.2.04.2.6-.24.33l.21.15c-.08-.03-.15-.04-.3-.08-.05.06.27.23-.11.08.03.03-.04.07.26.14.18.04-.17-.11.2.03-.3-.1,0,.05.12.08l-.16-.05c.06.02,0,.03.19.07-.09-.02-.21-.05-.25-.06l.25.06c.12.03-.47-.08-.42-.05-.06-.02-.12-.04-.18-.06.04.01-.23-.01-.17.02.25.04.55.08.76.1.11.01-.26-.02-.08,0,.01,0,.03,0,.05,0h-.04s-.28-.04-.28-.04c-.06,0-.27-.02-.4-.01-.05,0-.1,0-.11.02.06.02.48.04.67.04,0,0-.2,0-.42,0,.07.02.33,0,.51.01-.1,0-.24,0-.4.01-.14.01-.28.03-.41.05l-.58-.02.03.03c-.49-.03-.3.04-.78.03-.03.03.17.06.31.08.62-.12,1.02-.02,1.59-.12.18,0-1.36.28-.4.17.13-.04.56-.12.38-.11-.03.04.55-.12.34-.05-.23.04-.47.19-.82.24.17-.05.1-.06.04-.06-.18.07-.54.13-.47.19.09.02.16.07.4-.03.27-.1-.08-.03.22-.11.14,0-.23.19.24,0-.07,0,.2-.13.38-.2l.12-.04-.17.08c-.09.08.31-.14.27-.12-.1.06-.19.13-.29.2-.26.15.07-.1-.36.14.02.04.24-.08.17.01-.04.02-.06.02-.1.03-.01.01-.5.41-.13.24.14-.06.13-.1.27-.22.05,0,.1-.02.15-.06l.06-.04s.07.01.11.03c-.24.24.19.2-.16.36.04-.09-.04-.22-.09-.23-.04,0-.12.04-.26.14-.27.3-.02-.09-.37.15.07.07-.23.34-.4.53.02.04.14,0,.19-.02.18-.17.14-.2.32-.37.03.11.29.15.53.04-.02.14-.19.31-.27.28.24.1.43.3.57.51.13-.41.27.1.39-.23-.04-.15.05-.44.22-.53.05.07-.11.13-.14.22.22-.1-.1.37.2.17-.26-.05-.34.35-.57.56.24-.03-.15.17-.02.27.24-.03.48,0,.67.06,0,.38.45.38.62.5-.02.19-.3.42-.24.54.11.08.16-.36.22-.11l-.06.04c.1-.02.14.42.51.07l-.29.26c0,.05.09,0,.14,0-.08.1-.12.21-.21.24-.07.28.23.13.34.21l.08-.23c.29.01.27.28.5.37l-.15.17.19-.02c-.16.15-.15.33.02.24l-.61.2c0-.16.25-.14.34-.35.08-.18-.12-.27-.28-.12.05.07.08.03.18.01-.18.26-.26.17-.44.29.04.02.03.13.1.06-.16.06-.24.03-.35-.05.15-.03.08-.18.16-.23-.18.2-.34.18-.42.02.1-.32-.37-.05-.47-.24.24-.16.45-.27.62-.28,0-.19-.11-.08-.12-.27-.18.12-.41.34-.61.33l.12-.16c-.18-.01-.37.22-.48.06-.18-.28-.44-.49-.61-.66l.12-.16c-.38.25-.45-.16-.71-.13-.12-.35-.64-.28-.55-.65-.6-.29-1.32-.68-1.84-1.21l.44-.02c-.35,0,.13-.11,0-.17-.17.17-.5-.02-.82-.04,0-.14-.14-.26-.38-.38-.12-.06-.26-.12-.41-.17-.13-.05-.26-.1-.38-.15h.32c-.39-.08-.38-.23-.27-.4.27-.08.54-.15.75-.23.22-.01.63,0,.71-.08-.3-.24-.1-.31.02-.61.16-.08.34-.18.54-.26.19-.09.28-.17.42-.22-.08-.3-.06-.48-.02-.67.03-.18.06-.38-.08-.56l.24-.04c-.26-.18-.31-.35-.36-.53-.04-.18-.1-.38-.29-.41l.35-.22c.03-.17-.24-.13-.44.09.03-.16-.29,0-.12-.3-.04-.12-.21.08-.3.08-.07-.22-.17-.24-.35-.22l.03.04c.05-.08.11-.24.08-.28-.1.07-.23-.18-.28.31-.14-.32-.39.17-.57-.19.03.13-.01.16-.02.25-.13.01-.36-.18-.39.06-.05-.05-.05-.23-.12-.21-.01.06.07.16.06.25-.06.3-.54.04-.67.29-.03.24-.09.42-.14.6-.02.09-.05.18-.06.27-.02,0,.02.22.03.34.02.08,0,.12.06.23l.19.32-.12-.05c.36.32.48.66.59.98.12.33.22.6.92,1.19-.06.08.34.62-.11.25.38.39.54.7.65.96.11.27.18.47.53.89-.02.02-.04.04-.02.09.09.04.07.02.04-.04-.59-.34-.88-.42-1.22-.52-.33-.1-.73-.22-1.33-.53.03-.04.14-.03,0-.18-.31-.21-.32-.1-.41-.06-.08.04-.22.03-.58-.33-.16-.05.14.29.25.31-.52-.22-.98-.39-1.35-.49-.18-.04-.4-.12-.55-.13l-.39.07c-.24.12-.31.3-.43.44-.38-.06-.51-.62-.46-.19-.08-.05.11.14.04.07.03.14-.48-.25-.36-.03.24.17.09.14.23.25-.25.02-.51-.06-.4.19l-.13-.08c.3.36,0,.47.46.72-.04.38.1.76.33.99.22.24.51.37.76.46.23.14.54.13.79.04.12-.04.24-.1.35-.17.04-.03.04-.01.11-.08l.14-.17s.1-.11.13-.23c.17-.41.32-.9.49-1.4.43-.36.5-.36.64-1.15.05,0,.11,0,.2.01,0,.1-.02.11.04.24-.06-.29.06-.22.11-.2.07.03.14.06.12-.16.82.75,1.6,1.27,2.48,1.99-.15-.08-.3.15-.14.25l.24-.07v.11c.12.04.31-.01.24-.21.3.2.6.42.89.64.24.18.31.25.47.39.27.25.52.52.76.8s.48.56.74.82c.18.18.11.14.14.18.02.03.04.05.06.05,0,.18.12.11.13.04v.03c.08.25.26.33.45.26.05-.02.09-.04.13-.07l.06-.05.13-.15c.16-.21.31-.44.42-.7,0,0,.56.65.42,1.13Z"/>
            <path class="cls-3" d="M45.5,36.27c.07-.15.03-.3.25-.41-.09.13-.15.3-.25.41Z"/>
            <path class="cls-3" d="M43.91,32.79s0-.08.01-.11c.04.02.16-.06.13.02-.04-.02-.08.05-.14.09Z"/>
            <path class="cls-3" d="M43.29,32.16c.1-.11.32-.08.42-.02l-.42.02Z"/>
            <path class="cls-3" d="M43.26,31.36c.09-.09.14-.13.14-.12-.06.05-.09.08-.14.12Z"/>
            <path class="cls-3" d="M43,31.57s.04-.07.1-.13c-.1.08.09-.03-.1.13Z"/>
            <path class="cls-3" d="M43.16,31.16s-.21,0,.03-.02c-.16.02.28,0-.03.02Z"/>
            <path class="cls-3" d="M42.88,31.09s.06,0,0,0c.1,0,.23.01.24.02h-.25Z"/>
            <polygon class="cls-3" points="34.87 28.7 34.77 28.61 34.94 28.73 34.87 28.7"/>
            <path class="cls-3" d="M30.8,32.78c.09.12-.14.08-.16.1,0-.11.18.05.16-.1Z"/>
            <polygon class="cls-3" points="33.28 36.13 33.25 36.12 33.42 35.87 33.28 36.13"/>
          </g>
        </g>
        <g>
          <path class="cls-1" d="M57.82,34.4c-.96,0-1.89.12-2.78.31-1.31-1.79-3.62-2.98-6.26-2.98-4.08,0-7.39,2.85-7.39,6.37,0,2.98,2.38,5.47,5.59,6.17.44,4.71,5.12,8.42,10.84,8.42,6.01,0,10.89-4.09,10.89-9.14s-4.87-9.14-10.89-9.14Z"/>
          <g>
            <path class="cls-3" d="M57.64,34.94c.27-.07-.15-.26.17-.12-.04.12-.09.21-.17.12Z"/>
            <path class="cls-3" d="M58.72,34.81c.97-.68,2.03.25,3.07.12.12,0-.16.39.12.37,1.1-.26,2.42.8,2.99,1.85l-.13.05c.11.2.57.04.7.25-.05.06-.13.03-.16.15.2-.14.37.19.56.13,0,.13-.14.26-.13.4l.28-.09c.72-.16.56.68,1.1.89-.07.02-.13,0-.16.07.79.43,1.24,1.41,1.62,2.27-.1,0-.28,0-.36.09.27-.04.46.21.54.46-.27.17.34.38.24.71l-.07-.02c.33.19-.15.34.23.49l-.22.15c.41.08-.18.32,0,.5h.09c.09.17-.12.25-.06.42h-.05c.1.4-.17.58.14.62-.27.09-.06-.37-.46-.22.19,1.23-.34,2.47-.99,3.49-.18.05-.27.09-.39.05-.02.13-.21.4-.15.59.02-.04-.18-.04-.22,0-.23.09.11.4-.16.5,0-.13-.06-.22-.17-.27.05.31-.15.51-.27.73-.01-.06.01-.13-.07-.19,0,.38-.39.28-.44.57l-.06-.2c-.42.08.18.38-.16.48.03-.09-.04-.13-.08-.2-.03.44-.48.67-.68.92,0-.03-.03-.07-.03-.07-.26.21-.6.32-.86.61-.16-.01-.18-.42-.45-.2.18.32-.46.41-.1.69-.3.08-.81.12-.95.32.08-.18-.29-.37-.08-.49l-.25-.14c-.03-.15.19-.02.07-.18-.1.07-.38.31-.51.28-.14.28-.22.76-.58.9.14-.18-.2-.38-.1-.46-.11.27-.23.53-.35.8-.12.04-.09-.28-.25-.15.03.09-.04.17-.08.26-.05-.02-.52.17-.62-.18-.07-.14.19-.1.04-.21-.23.03-.22.16-.45.19v-.05c-.16-.03-.44.2-.26.39.11,0-.06-.21.11-.13-.09.23-.36.29-.6.31.08-.06.06-.16.09-.26-.3.29-.65.43-1.01.52,0,.17.14-.31.19-.22-.45-.27-.98.32-1.33-.09.07-.02,0,.25,0,.2-.22-.05-.18-.3-.34-.22,0-.15-.19.02-.34.05-.09.1-.03-.08.1-.08-.22.12-1.11.16-1.53-.17-.01.1-.39.26-.49.22l.11-.21c-.06-.16-.37-.09-.33-.28-.31.2.95.03.58.15-.02-.21-.54.22-.38-.06-.22-.05-.51.12-.64-.16.05.06.28-.23.1-.28-.31-.07-.12.07-.39.05l-.19.03c-.1.2-.26-.13-.24.14.03-.18-.48-.1-.29-.42l.16-.24c-.13-.04-.33.18-.49.25,0-.03-.01-.1.02-.14-.22.38-.29-.17-.59.04-.18-.29-.65-.4-.62-.7-.26-.02-.52,0-.68-.24.07,0,.13.03.2-.04-.05-.2-.16-.13-.32-.16.06-.03-.09-.41-.12-.64-.25-.04-.35.19-.47.28.13-.45-.68-.22-.58-.71.1.02.38.08.33-.13.18-.45-.52-.06-.59-.46l-.22.3c.08-.26-.48-.26-.17-.47-.17,0-.15-.38-.41-.14-.09-.61-.93-1.07-.51-1.68-.09-.04-.12-.24-.27-.13-.12.21.21.1.11.21-.04-.06-.14-.03-.18-.01,0-.19-.04-.32.3-.3.03-.42-.71-.12-.77-.64.15-.03.19-.08.11-.21-.12-.06-.22-.12-.32-.19-.03-.33.27-.27.51-.35-.04-.07-.07-.16-.12-.23-.05-.08-.08-.05-.18-.06.09-.07.18-.14.27-.23-.2.18-.15-.02-.21-.04l.06.02c.09-.07.02-.16-.02-.19-.14.11-.18.24-.21.31-.11.01-.09-.06-.22-.03.22-.12.14-.23.15-.31,0-.02,0-.03,0-.03-.08.02-.23.16-.23.15.1-.1-.08-.04.1-.17.06-.03-.05.11.08.03.04-.09.21-.26-.02-.16-.16.08-.32.4-.34.24.07-.04.14-.12.23-.19-.02-.05-.04-.09-.06-.15l-.13.19c.01-.05.04-.07.04-.1-.17.19-.24,0-.37.23-.08,0-.21-.25-.32-.32h.03c-.11-.19-.34-.2-.54-.14l.03-.04c-.08-.06-.29-.13-.46-.07-.12-.27.35-.77,0-.66-.2-.11-.53.15-.53.32-.27-.36-.9-.39-.98-.93-.11.03-.12.09-.25.04-.41-.49-1.16-.89-1.08-1.58.18.11.19-.11.3-.18-.25-.03.09-.26-.23-.13-.17.12-.26.15-.23.36-.31-.28-.58-.86-.49-1.13-.04.14-.14.08-.22.02.31-.09.25-.38.07-.55l-.2.03.15-.2c-.08-.06-.42.01-.29-.26.07-.03.14-.06.19-.11-.22-.18-.52-.49-.4-.77.08-.08.18-.16.27-.23-.04-.1-.22-.28-.29-.08.14-.45.19-.73.44-.85-.58-.76-.32-1.98.13-2.75l.12.09c.22-.15-.17-.22,0-.33.09.13.35-.01.42.23.29-.2-.02-.49.04-.72-.15-.13,0,.21-.17.05-.04-.08.39-.3.18-.51.14,0,.28.18.35.28v-.25c.41.02.18.8.67.83l.06-.16c.33.06.04.54.35.28-.02-.22-.26-.61-.46-.55.17-.35-.43-.57-.12-.9.21.02-.2.3.04.39.31,0,.17-.4.36-.47-.22.07-.32-.26-.25-.39.26-.06.09.3.34.1-.08-.16.06-.46-.21-.36-.17-.36.32-.17.27-.5.25.14.14.68.5.57-.21-.16.12-.54-.26-.73.16-.03.29.12.31.31.24,0,.12-.67.46-.28l-.09-.26c.1.04.21.04.37.11.14-.09.31-.59.48-.23.03-.06.38-.23.13-.4-.3-.03-.16.31-.46.05.3.18.3-.2.39-.36l.09.13c.05-.1.25-.15.23-.32-.03.11.05.19.13.2v-.25c.28-.25.23.35.51.16l-.17.27c.04-.06.22.1.34-.02-.02-.22.01-.5,0-.67.16-.15.16.2.27-.06l-.16.32c-.01.08.27.29.5.21.12-.12.29-.48.01-.53.13-.04.33.05.27.22.26-.13-.09-.21.12-.4.14.12.49.24.7.42-.06.13-.12.26-.18.4l.16-.03c-.15.32.14.2.08.52.11.03.22-.09.31-.18-.39-.44.27-.7.13-1.13.47-.18.37,1.05.8.33-.08-.11.13-.46-.16-.32.29.04.19-.45.54-.28-.25.18.27.45-.09.71.02-.15-.2-.1-.25-.06.12.16,0,.44.27.43.17-.04.4-.04.37-.27,0-.25-.27.02-.15-.23.36-.08.39.31.57-.13-.23.01-.27-.24-.26-.42.09-.03.19-.06.28-.09l-.06.16c.42.16.15-.3.58-.21l.16.36c-.13.26-.59-.2-.56.28.26.04.38-.18.61-.03-.06.03-.14.03-.2.07.1.03.09.64.51.36.21-.1.08-.15.12-.32.43.03.6-.1.88-.06-.15.31.46.18.07.42-.07-.24-.69-.38-.9-.08.07.43-.31-.12-.46.27.32.06.22.46.22.72.08.03.18-.06.24-.09.09-.23-.02-.25.03-.5.33.14.69.1.96-.06.08.15-.04.37-.18.35.43.05.84.27,1.17.5-.06-.48.45.12.44-.25-.15-.19-.22-.53-.02-.63.12.09-.08.15-.06.26.27-.11.09.44.41.22-.43-.08-.3.39-.52.63.33-.02-.11.19.12.32.32-.02.68.05.97.18.07.24.26.38.46.52.21.13.44.26.48.29-.03.2-.29.43-.23.6.12.12.13-.42.2-.1l-.05.05c.07-.02.12.28.25.31.07-.03.15-.14.21-.3l-.2.43s.11-.08.16-.13c-.04.13,0,.24-.11.34.12.24.4-.12.58-.16-.04-.07-.08-.14-.11-.21.15-.12.26-.12.39-.11.15,0,.31.02.48-.03v.22s.21-.15.21-.15c-.03.22.17.34.26.16-.17.19-.33.39-.48.59-.16-.11.13-.28.02-.49-.1-.18-.42-.09-.44.13.12,0,.12-.04.21-.13.07.3-.11.31-.17.53.06-.02.16.06.16-.04-.09.16-.24.21-.51.26.17-.15-.09-.18-.03-.28-.01.28-.29.41-.6.4-.07-.15-.23-.05-.41.05-.14-.05-.31-.1-.42-.3.24-.13.44-.22.6-.2,0,0,.01,0,.02,0,0,0,0-.02,0-.03-.06-.26-.14-.15-.18-.42-.16.13-.38.37-.66.23l.12-.18c-.24-.11-.48.08-.62-.13-.25-.37-.63-.64-.9-.84l.1-.18c-.39.27-.63-.18-.95-.11-.32-.37-.92-.15-1.03-.54-.79-.04-1.44.01-2.22-.04l.13-.3c-.14.22-.1-.17-.24-.12.17.23-.19.31-.27.5-.36-.2-.79.1-1.03.37l-.05-.2c-.21.43-.62.21-1.01.27-.07-.06-.2-.21-.3-.15-.07.38-.18.39-.34.72-.19.09-.52.2-.78.22-.38.81-1.14,1.16-1.31,1.98l-.23-.07c.03.46-.12.8-.23,1.17-.13.36-.21.73-.09,1.03l-.4-.07c-.15.21.12.46.4.39-.13.21.25.43-.07.6-.02.21.24.19.33.32-.02.4.07.54.31.82l-.02-.09c-.09,0-.26.08-.23.18.17.07.18.51.51.13,0,.5.72.56.74,1.09.06-.12.16-.08.25-.12.25.22.42.66.79.61.02.09-.19.15-.07.24.1,0,.09-.15.22-.16.31.03.54.2.78.39.56.26,1.08.52,1.66.63l.29.04c.12.45.23.94.33,1.44l.08.38.08.27.09.33c.08.21.16.43.24.64.11.2.21.4.31.59l-.09.04c.48.06.07.85.7.71-.03.11.14.25-.04.32.34.03.31.71.8.74-.02-.03-.05-.03-.1-.03.15.4.57.42.79.8-.06,0-.14,0-.21.06.02.25.55-.12.35.32.08.05.18-.16.13-.18.65.66,1.69.83,2.59,1.01.56.46-.19.77.43.58.02.1.08-.17.06-.07.23-.06.2.59.4.38,0-.29.13-.14.17-.31.37.27.42.55.79.37l-.05.15c.45-.37.88-.1,1.23-.6,2.11-.02,4.02-.8,5.61-1.81,1.69-.9,2.71-2.44,3.43-4.02.52-.29.47-.37.42-.84.06.03.07.06.14.03-.31-.06-.01-.34-.32-.41.12-.65-.06-1.25-.21-1.9.07.09.34.08.28-.04l-.24-.07.08-.05c-.07-.07-.25-.11-.33,0-.38-.73-.68-1.48-1.14-2.23-.45-.75-1.08-1.45-1.88-1.9-.14-.18-.38-.31-.63-.41-.25-.11-.52-.18-.76-.23-1.13-.94-2.52-1.58-4.07-1.28,0,0,.19-.84.9-1Z"/>
            <path class="cls-3" d="M57.32,34.98c-.06-.16-.26-.24-.12-.47.03.15.13.32.12.47Z"/>
            <path class="cls-3" d="M53.39,31.81s-.04-.1-.05-.13c.07.02.2-.06.21.05-.07-.03-.1.04-.16.09Z"/>
            <path class="cls-3" d="M52.03,31.08c.07-.13.43-.12.62-.06-.21,0-.42.03-.62.06Z"/>
            <path class="cls-3" d="M50.77,30.11c-.11-.15-.06-.21.12-.17,0,.08-.07.11-.12.17Z"/>
            <path class="cls-3" d="M50.6,30.42c-.12-.02-.17-.11-.21-.21-.02.12.3-.03.21.21Z"/>
            <path class="cls-3" d="M47.39,29.92c-.08.02-.23.16-.33.01.1.1.36-.24.33-.01Z"/>
            <path class="cls-3" d="M45.94,30.45s-.08-.01-.12.04c-.11-.04-.05-.17.02-.2l.1.16Z"/>
            <polygon class="cls-3" points="48.43 49.89 48.27 49.83 48.4 49.75 48.43 49.89"/>
            <path class="cls-3" d="M58.35,53.75c.14-.1.11.13.13.15-.13.02.04-.18-.13-.15Z"/>
            <polygon class="cls-3" points="63.67 51.64 63.63 51.67 63.51 51.39 63.67 51.64"/>
          </g>
        </g>
        <g>
          <path class="cls-1" d="M32.88,45.03l-7.64-6.25c1.69-.66,2.81-2.37,2.62-4.26-.23-2.28-2.26-3.94-4.54-3.72s-3.94,2.26-3.72,4.54c.07.7.33,1.34.7,1.89-.6-.24-1.26-.35-1.95-.29-2.31.23-4,2.3-3.77,4.61s2.3,4,4.61,3.77c1.84-.18,3.26-1.53,3.66-3.23l7.44,6.09,2.59-3.16Z"/>
          <g>
            <path class="cls-3" d="M32.42,45.35c.23.1.06-.28.19,0-.1.07-.19.11-.19,0Z"/>
            <path class="cls-3" d="M32.09,45.4c.05.54-.23.88-.54,1.2-.32.33-.6.56-.78,1.17-.05.12-.13-.5-.22-.23-.05.24-.14.48-.26.69-.29-.1-.68-.44-.99-.82-.33-.4-.52-.76-.72-1.17l.12-.05c-.09-.19-.52-.03-.63-.2.05-.06.12-.05.15-.16-.19.15-.35-.14-.52-.06,0-.12.12-.26.11-.41l-.26.14c-.65.29-.57-.52-1.11-.54.06-.04.12-.05.13-.11-.77-.13-1.43-.76-2.07-1.1.07-.07.19-.19.21-.31-.19.21-.39.14-.55.08.02-.36-.32.08-.42-.21l.02-.07c-.15.27-.17-.37-.28.02l-.08-.36c-.02.51-.19-.43-.28-.23l.02.12s-.07-.03-.12-.1c-.03-.05-.1-.21-.1-.08l-.02-.06c-.02.23-.06.27-.09.34-.02.06-.02.13.03.32-.07-.13-.05-.23-.05-.36,0-.11,0-.22-.09-.41v.04c-.11.71-.3,1.14-.57,1.52-.28.38-.73.76-1.18,1.01-.17-.05-.25-.05-.33-.15-.06.11-.31.21-.35.4.03-.02-.12-.13-.17-.13-.21-.07-.09.41-.34.31.06-.1.06-.21,0-.32-.1.28-.35.29-.55.4.03-.06.07-.1.05-.2-.2.31-.41-.03-.6.15l.07-.18c-.3-.24-.1.38-.38.24.07-.05.05-.13.07-.2-.28.33-.71.13-.99.16.02-.02.03-.07.03-.07-.3-.05-.53-.25-.89-.27-.06-.13.25-.38-.03-.47-.19.33-.5-.16-.6.29-.2-.21-.42-.6-.62-.65.18-.01.25-.4.41-.27l.06-.26c.13-.09.06.15.17-.02-.08-.05-.37-.17-.37-.28-.29,0-.75.07-.96-.21.2.07.32-.27.43-.2-.27-.02-.56-.05-.84-.12-.06-.11.26-.13.12-.25-.09.04-.17,0-.27-.03.02-.05-.22-.47.12-.59.13-.08.12.16.22.01-.05-.19-.16-.18-.2-.39h.05c.03-.14-.18-.4-.38-.23,0,.1.22-.05.12.1-.21-.08-.3-.34-.29-.57.06.08.15.07.26.1-.28-.3-.34-.64-.39-1.01-.17-.04.29.19.19.22.3-.36-.11-.99.37-1.21,0,.07-.24-.07-.19-.05.11-.19.34-.07.31-.23.13.06.04-.17.08-.32-.05-.12.08,0,.03.12-.04-.23.29-1.06.8-1.23-.08-.06-.03-.47.08-.53l.11.2c.16.05.28-.24.41-.09.01-.18-.13,0-.26.18-.12.18-.21.38-.17.19.17.09.1-.56.25-.27.16-.14.2-.47.5-.4-.07,0,.02.36.15.26.23-.19.01-.14.2-.32l.1-.15c-.08-.21.26-.09.06-.27.1.15.4-.27.49.09l.06.29c.11-.07.1-.36.16-.51.02.02.07.07.08.12-.13-.42.37-.06.27-.38.15.13.25-.02.47.24.02-.13-.04-.27.13-.17.02.04,0,.05.07.14.18.13.1.02.09-.04.04.06.38.27.65.46-.03-.1-.36-.36-.51-.5.34.27.27.16.21.09-.1-.1-.15-.16.03-.04.09.08.35.34.45.37.49.32-.51-.48-.31-.43l-.41-.25c.23.12-.3-.3.12-.04-.16-.12.08-.08-.3-.26.13,0,.06-.16.05-.26,0-.11.02-.16.35-.37-.06-.07.01-.25-.17-.23-.2.11.13.18,0,.22,0-.07-.1-.09-.15-.1.09-.16.12-.28.41-.1.26-.3-.57-.44-.32-.89.14.06.2.04.21-.1-.06-.11-.12-.22-.16-.33.16-.28.37-.05.61.03,0-.16.1-.32-.04-.46l.36-.03c-.26.02-.08-.18-.09-.27l.02.09c.11.03.14-.15.16-.24-.14-.07-.29.06-.38.13-.05-.12.03-.22-.02-.38.18.16.28-.13.39-.21.13-.08-.07-.27-.04-.3.1.07.18-.17.23.03,0,.06-.17,0-.13.14.13-.02.29.13.3-.12,0-.19-.39-.29-.08-.4,0,.1.05.18.08.28.09-.04.18-.07.27-.1l-.15-.17c.07.02.06.05.09.06-.1-.22.25-.33.13-.57.1-.11.33-.06.45-.11v.03c.19.01.32-.16.37-.36l.02.05c.08-.04.25-.15.3-.32.28.06.4.73.51.39.19-.08.18-.5.05-.6.42,0,.83-.44,1.25-.14.05-.09,0-.15.13-.21.59.03,1.36-.23,1.73.33-.19.05-.06.21-.1.34.18-.16.1.24.24-.08.04-.2.09-.29-.06-.41.39-.02.93.21,1.02.48-.05-.13.05-.15.15-.17-.17.27.03.44.26.45l.13-.15v.24c.1,0,.31-.29.36,0-.04.07-.07.14-.08.2.26-.01.68,0,.73.29l-.08.34c.09.05.33.06.27-.13.14.41.25.63.12.87.88.19,1.35,1.24,1.4,2.06h-.15c-.1.23.27.08.19.24-.15-.05-.29.19-.47.04-.13.3.28.36.35.57.19.03-.12-.16.12-.13.07.04-.16.43.13.5-.12.07-.33,0-.44-.05.05.06.08.13.12.2-.35.17-.57-.53-1.01-.33l.04.15c-.31.1-.33-.37-.44-.05.13.14.53.34.67.21.04.35.67.25.57.66-.19.07.02-.34-.23-.3-.27.14.06.4-.07.54.16-.15.4.07.41.22-.19.17-.22-.21-.34.07.14.1.16.41.36.22.31.24-.21.28-.01.55-.28-.02-.44-.53-.7-.29.26.05.14.52.56.53-.13.09-.32,0-.41-.15-.22.08.18.64-.29.43l.18.2c-.11,0-.21.04-.38.03-.1.14.12.42-.22.22.02.04-.06.1.22.2.17.06-.14-.14.21.01-.32-.09-.02.08.07.14l-.14-.07c.05.03,0,.03.17.1-.09-.04-.19-.08-.24-.08l.24.09c.11.05-.44-.13-.41-.08-.06-.02-.11-.05-.16-.08.04.02-.23-.03-.18.02.24.06.53.13.73.17.11.02-.31-.04-.04,0-.11-.02-.21-.04-.31-.06-.08-.02-.46-.05-.52-.01.02,0,.06.02.12.03.15.03.41.04.54.04,0,0-.21,0-.43-.01.07.02.34.02.52.03-.11,0-.25,0-.42,0-.14,0-.28.03-.42.05-.2,0-.4-.02-.61-.04l.04.04c-.51-.05-.3.04-.8.02-.02.04.19.09.35.11.61-.13,1.06.01,1.62-.1.18,0-1.33.3-.37.19.12-.05.55-.13.36-.12-.02.05.53-.14.34-.06-.23.05-.43.22-.78.28.17-.05.08-.08.02-.07-.17.08-.52.15-.43.22.11.03.19.09.41-.03.25-.12-.09-.04.2-.14.15,0-.19.23.25,0-.07-.01.17-.15.34-.24.04-.01.08-.03.11-.05l-.15.09c-.07.1.27-.17.24-.14-.08.07-.16.15-.24.23-.23.18.05-.13-.34.16.04.06.23-.09.18.02-.04.02-.06.02-.1.04,0,.03-.44.46-.03.33.2-.02.13-.11.25-.24.27.15.45.07.62.18-.25.24.25.24-.14.38.05-.22-.3-.48-.59-.3-.16.39-.17-.21-.42.11.11.1-.1.45-.25.66.04.06.16.01.22,0,.18-.17.11-.22.26-.42.17.22.46.28.73.2,0,.15-.18.32-.28.27.3.15.54.39.74.65.1-.43.33.14.43-.2-.07-.17,0-.48.18-.57.06.09-.11.13-.13.23.24-.09-.06.4.25.22-.31-.09-.35.34-.59.55.28,0-.15.17.02.3.28,0,.56.06.79.16.04.42.58.48.79.64,0,.21-.29.42-.21.57.14.11.14-.38.24-.09l-.06.04c.11-.01.22.49.6.15l-.31.25c.02.06.11.02.16.01-.08.1-.11.22-.22.23-.04.31.29.18.43.29l.06-.25c.35.05.36.35.63.48l-.15.17h.22c-.17.15-.13.35.05.27l-.69.14c-.01-.18.28-.12.35-.34.07-.19-.18-.31-.35-.18.06.08.1.05.21.04-.17.26-.28.15-.47.26.05.02.05.15.12.08-.18.05-.28,0-.42-.11.17-.02.07-.19.16-.23-.18.2-.37.16-.49-.04.08-.34-.45-.1-.59-.33.25-.15.49-.24.68-.22-.04-.21-.14-.11-.18-.31-.19.11-.43.32-.67.28l.12-.16c-.21-.04-.4.19-.55,0-.25-.34-.58-.6-.81-.82l.12-.16c-.41.23-.55-.24-.85-.24-.18-.4-.79-.4-.73-.8-.54-.24-1.45-.79-2.15-1.46h.45c-.37-.03.11-.14-.06-.22-.13.2-.53-.04-.86-.07-.03-.18-.23-.33-.51-.48-.14-.08-.3-.15-.47-.23-.17-.07-.38-.16-.44-.2h.34c-.27-.09-.36-.17-.4-.32.39-.15,1-.3,1.38-.46.2,0,.58,0,.7-.08-.18-.3.07-.37.25-.76.19-.1.28-.22.44-.33.13-.1.2-.13.31-.17-.04-.38.03-.64.08-.91.06-.27.09-.56-.05-.83l.24-.05c-.27-.27-.33-.53-.41-.81-.07-.27-.17-.55-.42-.64l.36-.2c0-.21-.31-.21-.5.01,0-.2-.37-.09-.22-.41-.08-.15-.26.04-.38.03-.15-.27-.28-.3-.55-.31l.05.05c.06-.07.12-.23.07-.28-.13.06-.35-.21-.36.28-.23-.35-.61.14-.89-.21.04.13-.03.17-.04.26-.21.02-.53-.14-.63.13-.06-.04-.03-.23-.13-.2-.03.07.07.16.04.26-.18.36-.78.19-.99.54-.1.3-.2.6-.3.9-.04.15-.08.29-.1.44-.02.07-.01.15-.02.23,0,.06-.02.04.01.15l.09.34-.11-.03c.14.16.16.32.25.5.09.19.17.38.25.57.16.39.3.72.99,1.31-.03.12.42.75-.03.39.41.43.61.82.77,1.16.17.35.28.64.7,1.13-.03.01-.06.02-.06.06.1.05.1.03.08-.03-.67-.37-1.04-.48-1.47-.62-.42-.13-.92-.28-1.59-.62.05-.03.2,0,.08-.15-.32-.21-.39-.12-.52-.1-.13.03-.3,0-.62-.34-.19-.06.07.26.2.29-.29-.12-.57-.22-.82-.31-.26-.09-.49-.17-.68-.15-.18,0-.43-.02-.56,0l-.25.1c-.28.16-.48.37-.68.57-.49.02-.52-.61-.56-.11-.08-.05.11.15.04.08,0,.17-.53-.2-.42.04.25.16.08.15.21.27-.31.09-.57.03-.5.33l-.12-.09c.26.43-.07.63.37.95-.1.6.07,1.21.4,1.64.32.44.77.73,1.24.89.43.23.97.22,1.42.07.23-.08.44-.18.64-.31.1-.07.2-.14.3-.22.03-.02.13-.13.2-.22.08-.09.12-.23.18-.35l.17-.36.15-.43c.58-.66.59-.64.84-2.13.02.16,0,.27.06.31-.01-.06-.02-.12-.03-.18.04-.28.39.25.36-.16,1.07.94,2.06,1.65,3.19,2.57-.2-.12-.39.07-.18.21h.31s-.01.09-.01.09c.16.07.41.07.32-.14.25.18.51.36.76.53.19.14.37.29.55.45.35.31.68.65,1.01,1l.98,1.02c.17.17.33.33.51.48l.13.12s.03.02.04.03c0,.18.15.14.17.07v.03c.1.23.32.26.55.14.03,0,.21-.19.31-.29.12-.12.23-.25.33-.38.21-.27.4-.56.57-.88,0,0,.54.68.31,1.27Z"/>
            <path class="cls-3" d="M32.18,45.19c.06-.16,0-.33.23-.42-.09.13-.13.32-.23.42Z"/>
            <path class="cls-3" d="M29.82,41.09s0-.09,0-.12c.05.03.18-.05.16.04-.05-.03-.09.04-.16.08Z"/>
            <path class="cls-3" d="M29.01,40.3c.11-.1.37-.04.49.04l-.49-.04Z"/>
            <path class="cls-3" d="M28.58,39.17c0-.15.07-.19.16-.11-.04.07-.1.07-.16.11Z"/>
            <path class="cls-3" d="M28.31,39.38c-.08-.07,0-.11.04-.18-.04.05-.02.04,0,.04.02.01.06.06-.03.14Z"/>
            <path class="cls-3" d="M28.32,38.84s-.22,0,.02-.02c-.16.02.29,0-.02.02Z"/>
            <path class="cls-3" d="M28.04,38.74s.06,0,.01-.01c.1,0,.23.03.24.03l-.25-.02Z"/>
            <polygon class="cls-3" points="18.7 35.83 18.59 35.73 18.77 35.85 18.7 35.83"/>
            <path class="cls-3" d="M13.48,40.85c.08.15-.14.1-.16.12,0-.13.18.05.16-.12Z"/>
            <polygon class="cls-3" points="16.41 45.05 16.38 45.04 16.54 44.79 16.41 45.05"/>
          </g>
        </g>
        <g>
          <ellipse class="cls-1" cx="59.64" cy="53.69" rx="20.81" ry="16.34"/>
          <g>
            <path class="cls-3" d="M80.97,53.98c-.04-.45-.27.23-.1-.29.11.06.2.15.1.29Z"/>
            <path class="cls-3" d="M80.73,52.23c-.19-.34-.4-.68-.51-1.06-.12-.37-.16-.78-.29-1.17-.11-.39-.21-.8-.35-1.18-.18-.37-.39-.71-.66-1-.1-.15.39-.14.13-.47-1.21-1.03-2.24-3-3.32-4.58h.16c-.21-.31-.79-.29-1.03-.57.05-.06.16,0,.16-.15-.22.12-.58-.35-.82-.29-.06-.16.06-.3-.03-.49l-.33.09c-.42.09-.69-.12-.98-.38-.3-.23-.6-.51-1.03-.57.06-.04.15-.04.13-.12-1.28-.31-2.68-1-4.04-1.34.08-.07.19-.22.15-.35-.16.23-.59.16-.96.12-.08-.33-.69.08-1.06-.2l.05-.05c-.38.2-.42-.3-.76,0l-.15-.26c-.22.37-.42-.3-.72-.15v.08c-.27.05-.36-.18-.6-.16v-.05c-.57.03-.86-.22-.89.09-.16-.28.54-.05.29-.46-.46.03-.92.03-1.38.02h-1.38c-.92-.03-1.84.04-2.74.06-.22-.12-.35-.15-.41-.26-.18.09-.68.14-.83.32.06-.01-.14-.15-.23-.15-.35-.08-.31.39-.69.29.13-.1.16-.21.1-.32-.28.27-.68.34-1.03.48.05-.06.13-.11.09-.21-.34.36-.73.09-1.04.33l.09-.21c-.61-.1-.08.39-.58.4.1-.09.04-.15.04-.23-.36.45-1.09.55-1.49.78.02-.03,0-.08,0-.08-.46.19-.97.29-1.43.61-.22,0-.11-.44-.58-.19.16.32-.75.52-.3.77-.42.14-1.12.31-1.33.56.11-.22-.41-.3-.09-.5-.12-.03-.24-.04-.36-.06-.04-.16.28-.1.11-.23-.16.11-.57.52-.74.55-.18.39-.25.88-.68,1.24.13-.27-.35-.25-.24-.41l-.23,1.04c-.14.12-.21-.21-.36.02.07.07.01.19,0,.3-.09,0-.53.54-.82.31-.15-.06.18-.26-.06-.22-.26.23-.19.33-.44.56l-.04-.03c-.21.11-.4.55-.07.54.12-.09-.19-.12.05-.19.02.25-.22.56-.43.81.04-.12-.04-.18-.08-.29-.1.53-.37.92-.6,1.37.13.12-.13-.35,0-.34-.59.35-.54,1.23-1.13,1.45.02-.09.23.1.18.08-.17.24-.38.1-.4.31-.14-.06-.09.24-.16.43.04.14-.09,0-.01-.15-.01.16-.15.49-.27.87-.12.38-.31.77-.54,1.02.08.02.18.49.14.63l-.2-.13c-.17.08-.13.47-.33.44.16.39.16-1.24.23-.76-.21.04.16.69-.11.5-.09.29.07.63-.22.84.06-.07-.23-.32-.29-.08-.07.43.07.15.08.5l.05.23c.22.06-.1.36.17.26-.19.02,0,.61-.36.51l-.28-.1c-.02.19.25.34.37.5-.03.02-.09.06-.14.05.44.07-.06.43.27.67-.09.18-.11.42-.14.64,0,.21-.03.4-.16.5.15.29.33.53.25.87-.05-.06-.06-.15-.16-.16-.11.22-.01.27.1.44-.07-.03-.18.45-.28.72.19.27.4.11.55.11-.19.18-.09.37.04.55.14.18.29.36.15.58-.09-.08-.34-.35-.37-.08-.33.4.48.42.41.9l.31-.23c-.17.27.45.49.08.6.18.08.11.51.41.32-.01.8.99,1.37.67,2.11.1.06.22.29.33.14.06-.25-.26-.11-.18-.24.06.07.15.03.2.01.07.22.16.38-.21.38.13.53.8.05,1.07.62-.13.07-.14.15-.01.28l.43.09c.23.33-.09.39-.26.57.19.13.36.34.57.28l-.03.42c.03-.31.23.03.35.05-.04,0-.08-.01-.12-.03-.05.11.2.23.32.29.08-.14-.08-.35-.15-.48.15,0,.27.13.47.13-.2.15.15.36.27.5.12.17.31-.02.35.02-.08.1.23.23,0,.26-.08-.01-.04-.2-.2-.19.04.16-.11.32.2.38.24.04.25-.4.47-.05-.12-.01-.2.06-.31.07.07.11.15.21.22.32l.15-.17c0,.07-.03.07-.03.11.23-.12.5.27.72.1.16.09.23.35.36.48h-.04c.1.24.41.3.64.26l-.03.04c.09.07.35.19.54.15.17.3-.33.78.1.71.27.16.61-.14.57-.31.43.37,1.13.3,1.44.84.11-.05.08-.12.25-.11.72.35,1.64.37,2.13.94-.25.03-.08.21-.11.33.24-.14.17.26.33-.05.04-.2.08-.29-.11-.43.49.02,1.17.25,1.39.46-.11-.12,0-.16.12-.19-.11.31.23.42.52.37l.08-.18.13.23c.11-.04.19-.38.41-.14,0,.08,0,.16.04.22.3-.09.72-.32.99-.12l.21.31c.13-.02.36-.16.15-.27.48.23.81.29.95.56.93-.57,2.17-.51,3.18-.55l-.02.15c.28.13.13-.26.32-.17-.08.14.23.29.02.47.41.13.49-.26.74-.37.02-.2-.19.15-.16-.1.04-.07.55.08.58-.21.11.1.06.32.02.45l.22-.17c.34.3-.6.68-.25,1.06l.22-.07c.25.28-.57.42.02.45.24-.17.4-.62.16-.72.5-.14.15-.72.69-.76.17.15-.42.09-.29.32.29.2.49-.18.73-.15-.26-.06-.1-.39.04-.47.29.08-.13.31.26.26.03-.18.35-.37.04-.43.06-.4.41.02.55-.31.18.24-.26.68.18.73-.12-.24.44-.45.13-.78.18.04.24.23.16.41.27.12.45-.58.64-.11v-.28c.1.06.22.1.38.2.21-.05.54-.53.64-.14.05-.06.52-.17.26-.38-.33-.08-.27.29-.53-.03.29.23.39-.15.52-.3l.07.14c.08-.09.3-.14.3-.32-.04.11.03.2.12.2l.02-.26c.34-.25.23.35.58.15l-.22.28c.05-.06.25.1.41-.04,0-.23.03-.51.02-.69.17-.16.18.19.3-.09l-.17.34c-.02.08.32.27.6.14.15-.15.29-.56-.03-.54.13-.07.37-.04.33.15.28-.21-.14-.19.07-.44.17.08.59.1.89.19l-.12.45.19-.09c-.12.37.22.14.22.47.15-.02.27-.19.36-.32-.59-.23.09-.81-.23-1.14.41-.38.84.75.99-.14-.14-.05-.08-.47-.32-.19.32-.13-.03-.49.41-.54-.15.32.51.19.29.66-.05-.14-.27.03-.31.1.21.07.21.39.52.21.16-.16.4-.35.24-.51-.15-.2-.26.22-.29-.08.3-.32.58-.05.47-.52-.2.19-.4.01-.5-.13l.19-.27.05.17c.48-.19-.06-.33.35-.57l.39.13c.08.3-.65.31-.3.63.27-.17.22-.41.52-.51-.02.08-.09.14-.12.21.1-.05.57.35.69-.23.09-.26-.06-.17-.17-.3.35-.37.34-.6.57-.83.19.29.41-.39.41.12-.24,0-.79.46-.71.84.4.18-.34.22-.17.61.32-.27.57.05.79.2.1-.07.12-.23.15-.3-.12-.22-.24-.11-.41-.3.41-.25.66-.66.65-1.02.19-.03.33.18.22.33.32-.47.8-.84,1.17-1.23-.52.02.29-.53-.12-.55-.24.17-.6.17-.65-.06.12-.12.13.11.24.11-.04-.31.48-.05.34-.43-.2.47.33.37.52.63.09-.4.17.15.39-.15.11-.39.22-.86.37-1.24.26-.14.44-.42.56-.71.1-.31.16-.62.25-.83.25-.15.5.14.67-.08.13-.29-.45.06-.11-.29l.05.07c-.01-.15.5-.73.06-1.01l.32.25c.06-.07,0-.18-.02-.26.12.03.26-.03.29.13.33-.21.18-.59.21-.91l-.26.14c-.07-.56.21-.86.24-1.38l.22.05c-.02-.11-.05-.21-.09-.32.21.1.36-.17.2-.35.16.29.34.58.45.89-.17.21-.22-.29-.46-.18-.21.09-.24.57-.05.69.06-.18.01-.2-.04-.35.32,0,.25.27.42.45,0-.1.13-.23.04-.26.11.22.09.43.04.76-.07-.25-.21.08-.28-.03.27.09.28.43.07.8-.39.18-.05.8-.29,1.24-.19-.29-.32-.59-.34-.9-.22.23-.09.31-.31.54.15.21.39.41.34.82l-.19-.06c-.05.36.22.49-.03.88-.44.65-.89,1.31-1.22,1.8l-.18-.1c.15.51-.54.96-.66,1.43-.65.43-.98,1.34-1.5,1.36-.45.48-.86.97-1.33,1.39-.49.4-.98.81-1.58,1.14l.04-.37c-.09.31-.23-.06-.41.09.36.06-.12.43-.18.67-.32.06-.62.24-.89.46-.28.2-.53.45-.73.66l-.11-.17c-.33.59-1.08.57-1.74.73-.1-.05-.29-.19-.47-.09-.24.43-.42.51-.88.85-.39.11-1.03.21-1.45.2-.67.41-1.42.58-2.17.76-.76.13-1.53.21-2.3.44l-.13-.23c-.74.27-1.6.36-2.42.32-.82-.06-1.61-.11-2.27-.06l.16-.39c-.39-.17-.93,0-.86.3-.39-.18-1.05.08-1.25-.3-.4-.16-.54.08-.89.07-.8-.32-1.11-.33-1.89-.49l.18.08c.11-.06.16-.23-.02-.31-.31.03-1.01-.4-.87.14-.73-.48-1.97-.45-2.6-1.11.01.15-.19.09-.31.13-.68-.34-1.29-.87-1.91-1-.07-.12.27-.1.02-.27-.18-.05-.09.15-.32.1-.59-.2-1.11-.57-1.55-1.01-.44-.44-.88-.83-1.31-1.19-1.73-1.04-3.05-2.77-4.11-4.4l.09-.03c-.33-.18-.45-.56-.57-.91-.09-.37-.2-.7-.56-.82.02-.18-.21-.56.01-.53-.48-.38-.25-1.46-.81-2.08,0,.07.04.1.1.17.04-.79-.4-1.4-.3-2.23.05.08.09.22.19.23.16-.32-.46-.69,0-.9-.02-.17-.24-.11-.22,0-.01-.89.06-1.78.05-2.71.1-.91.13-1.87.41-2.76.69-1.16.76.18.78-.9.12-.04-.14-.12-.05-.1.05-.42.74-.34.63-.69-.31-.02-.07-.23-.22-.32.49-.65.85-.6.96-1.25l.11.12c-.01-.87.71-1.38.7-2.18,2.51-3.2,5.75-5.57,9.41-6.96,3.65-1.26,7.46-1.9,11.33-1.43.88.45.93.48,1.94.43-.05.06-.11.07-.05.13.09-.31.7.05.84-.24.7.17,1.38.3,2.06.43.67.18,1.36.35,2.07.56-.24-.04-.43.19-.16.25.11-.04.23-.07.34-.1v.1c.21.02.46-.06.31-.23,1.83.48,3.5,1.43,5.02,2.51,1.49,1.15,2.87,2.4,4.13,3.79.27.35.57.81.93,1.22.37.41.72.86.99,1.26,1.15,2.73,1.56,5.25,1.91,8.14,0,0-.87-.39-1.14-1.46Z"/>
            <path class="cls-3" d="M80.97,54.52c-.17.09-.28.38-.48.12.16-.02.34-.17.48-.12Z"/>
            <path class="cls-3" d="M76.72,61.23s-.12.04-.15.05c.05-.08-.01-.23.1-.24-.05.08.02.11.05.19Z"/>
            <path class="cls-3" d="M75.42,62.62c-.09-.12.11-.49.26-.67l-.26.67Z"/>
            <path class="cls-3" d="M73.73,63.39c-.19,0-.2-.08-.05-.2.06.05.04.12.05.2Z"/>
            <path class="cls-3" d="M73.85,63.72c-.11.1-.22.08-.32.06.08.09.2-.28.32-.06Z"/>
            <path class="cls-3" d="M70.47,65.51c-.07.06-.2.25-.35.14.14.07.31-.36.35-.14Z"/>
            <path class="cls-3" d="M68.97,66.48c-.06.02-.09,0-.13.06-.13-.03-.06-.16.01-.21l.12.15Z"/>
            <polygon class="cls-3" points="40.63 57.66 40.75 57.82 40.61 57.84 40.63 57.66"/>
            <path class="cls-3" d="M43.84,44.61c.07-.21.19,0,.23-.01-.11.14-.08-.17-.23.01Z"/>
            <polygon class="cls-3" points="50.03 39.6 49.97 39.62 49.87 39.34 50.03 39.6"/>
          </g>
        </g>
        <g>
          <path class="cls-1" d="M45.47,42.2c-1.2,0-2.35.14-3.46.39-1.63-2.22-4.5-3.71-7.78-3.71-5.08,0-9.19,3.54-9.19,7.91,0,3.7,2.96,6.8,6.95,7.67.55,5.85,6.37,10.46,13.48,10.46,7.47,0,13.53-5.09,13.53-11.36s-6.06-11.36-13.53-11.36Z"/>
          <g>
            <path class="cls-3" d="M45.25,42.75c.34-.07-.18-.25.22-.12-.05.12-.11.21-.22.12Z"/>
            <path class="cls-3" d="M46.6,42.63c1.19-.66,2.53.31,3.8.26.15.01-.17.39.17.38,1.32-.18,2.97,1.03,3.77,2.27l-.14.04c.15.23.67.11.84.36-.05.06-.14.02-.16.15.21-.13.45.27.66.22.02.14-.12.27-.09.44l.3-.07c.78-.09.71.84,1.32,1.16-.07.01-.14-.01-.17.06.91.59,1.48,1.8,1.91,2.87-.1-.02-.28,0-.37.09.28-.03.49.29.58.59-.26.19.36.48.27.88l-.07-.02c.33.24-.15.42.23.61l-.22.19c.41.11-.17.4.01.62h.09c.09.21-.12.31-.07.51l-.05.02c.09.47-.19.71.13.74-.28.12-.04-.46-.45-.25.15,1.52-.48,3.05-1.29,4.31-.2.08-.3.14-.42.1-.03.16-.28.48-.23.7.02-.04-.19-.02-.24.03-.27.13.08.45-.23.58.02-.15-.04-.24-.15-.29.02.35-.23.59-.39.86,0-.07.03-.14-.05-.21-.04.43-.48.36-.57.69l-.04-.21c-.49.14.16.4-.24.55.04-.1-.03-.14-.07-.21-.09.48-.63.79-.89,1.08,0-.03-.03-.07-.03-.07-.33.25-.73.41-1.07.74-.19,0-.17-.42-.52-.17.18.32-.59.47-.18.73-.37.11-.98.19-1.16.4.11-.19-.32-.36-.05-.5l-.29-.12c-.02-.16.23-.04.1-.19-.13.08-.49.35-.64.33-.19.29-.32.79-.77.95.18-.19-.22-.37-.09-.46-.15.27-.31.55-.47.83-.15.05-.09-.28-.29-.14.03.09-.05.17-.11.27-.06-.01-.64.19-.76-.16-.09-.13.24-.11.05-.22-.28.04-.28.17-.56.21v-.05c-.2-.02-.55.21-.33.4.13,0-.07-.21.14-.13-.11.24-.45.3-.75.32.1-.06.08-.16.11-.27-.38.29-.8.44-1.25.52,0,.17.17-.31.23-.22-.55-.27-1.2.32-1.64-.1.08-.02.02.25.02.2-.27-.06-.23-.3-.42-.23,0-.15-.23.02-.42.04-.11.09-.04-.08.12-.07-.27.12-1.34.12-1.87-.24-.01.1-.45.24-.58.19l.12-.2c-.08-.17-.45-.11-.41-.3-.36.18,1.15.09.71.18-.04-.21-.63.19-.46-.08-.27-.06-.61.1-.78-.21.06.06.31-.22.1-.28-.38-.1-.14.06-.46.02l-.22.02c-.1.2-.32-.15-.28.13.03-.18-.57-.15-.38-.46l.17-.24c-.16-.05-.38.16-.56.21,0-.03-.02-.11,0-.14-.22.38-.35-.2-.69-.01-.24-.32-.79-.48-.79-.81-.3-.05-.6-.06-.8-.33.08,0,.15.04.23-.02-.08-.22-.19-.15-.38-.2.07-.02-.15-.45-.21-.72-.29-.07-.38.17-.5.26.09-.48-.79-.32-.72-.84.11.03.43.13.35-.11.15-.48-.59-.13-.7-.58l-.21.32c.06-.29-.55-.34-.23-.54-.19-.03-.21-.45-.46-.2-.16-.71-1.09-1.31-.7-1.99-.1-.06-.15-.3-.29-.18-.1.23.23.14.14.25-.05-.07-.15-.05-.19-.03-.03-.23-.08-.38.28-.33,0-.49-.74-.2-.84-.82.15-.02.18-.09.1-.24-.12-.08-.23-.16-.34-.24-.05-.4.26-.31.5-.39-.09-.18-.15-.43-.35-.47l.12-.15s.1-.03.14-.09c-.2.17-.16-.05-.22-.09l.07.03c.1-.06.01-.19-.03-.24-.14.1-.18.26-.21.34-.11,0-.1-.09-.23-.08.23-.11.14-.25.15-.35,0-.03,0-.05-.02-.04-.09.02-.23.16-.24.15.1-.1-.11-.05.09-.18.06-.02-.03.12.11.04.03-.09.19-.27-.06-.17-.18.08-.31.41-.35.24.07-.04.14-.12.23-.19l-.1-.16-.12.19c0-.06.03-.07.04-.1-.08.1-.14.1-.21.09-.04,0-.22-.03-.29.09-.18-.04-.29-.29-.44-.37h.04c-.14-.2-.42-.23-.64-.18l.03-.04c-.09-.07-.35-.16-.54-.11-.17-.29.34-.78-.07-.7-.24-.14-.6.11-.58.29-.35-.41-1.06-.5-1.2-1.1-.12.02-.12.09-.27.02-.51-.58-1.35-1.1-1.33-1.88.2.14.19-.11.3-.18-.26-.05.07-.29-.26-.18-.16.12-.26.15-.21.39-.35-.35-.68-1.03-.61-1.35-.03.16-.13.09-.23,0,.31-.09.24-.43.04-.65l-.2.02.14-.23c-.09-.08-.42,0-.31-.32.07-.03.14-.06.18-.12-.24-.23-.54-.6-.43-.93.08-.09.18-.19.27-.28-.04-.12-.22-.34-.29-.1.13-.54.19-.87.44-1.01-.57-.91-.27-2.33.26-3.26l.12.09c.24-.19-.16-.25.02-.38.08.14.37-.04.42.23.32-.26.02-.57.11-.83-.14-.14,0,.24-.19.07-.04-.09.44-.38.24-.6.15-.02.28.17.34.28l.03-.28c.43-.02.12.89.63.88l.08-.19c.35.03-.01.62.35.28,0-.25-.22-.67-.44-.58.22-.42-.41-.6-.04-1,.22,0-.25.35,0,.43.34-.03.22-.47.44-.57-.25.09-.32-.25-.24-.41.3-.09.07.32.37.07-.07-.16.11-.51-.2-.38-.15-.38.37-.21.35-.56.27.13.09.72.5.56-.22-.16.19-.6-.22-.76.18-.05.32.11.32.31.27-.02.19-.73.55-.35l-.08-.26c.11.03.24.03.41.08.17-.12.4-.65.58-.29.04-.07.46-.27.18-.43-.34,0-.21.34-.54.09.33.17.37-.24.48-.41l.09.12c.06-.11.3-.17.29-.35-.04.11.04.19.13.19v-.26c.36-.27.26.34.61.12l-.22.29c.05-.06.25.09.4-.05,0-.23.04-.51.05-.69.19-.16.17.2.33-.08l-.21.34c-.02.08.3.28.58.18.16-.13.37-.5.04-.54.15-.05.39.04.31.21.32-.15-.1-.21.16-.41.16.11.57.22.82.39-.08.13-.16.27-.23.41l.19-.04c-.19.33.16.19.08.52.13.03.27-.09.38-.19-.46-.43.34-.71.19-1.14.56-.19.43,1.04.96.32-.1-.11.16-.46-.19-.32.35.04.23-.46.65-.28-.31.18.32.45-.11.71.03-.15-.24-.1-.31-.06.14.16-.01.44.32.43.2-.04.49-.04.45-.27,0-.25-.32.02-.18-.23.43-.08.48.31.68-.12-.27,0-.33-.24-.32-.42.11-.03.22-.06.33-.08l-.08.16c.51.17.18-.3.69-.2l.19.36c-.15.26-.71-.21-.67.26.31.04.45-.17.73-.01-.07.03-.16.03-.24.06.12.04.13.65.62.37.25-.09.09-.15.13-.32.52.04.71-.07,1.05-.02-.16.3.56.21.11.43-.1-.25-.84-.42-1.08-.12.1.43-.38-.14-.55.25.39.07.29.47.3.73.1.04.22-.05.29-.08.1-.23-.04-.25,0-.5.41.16.84.14,1.15,0,.11.16-.02.38-.19.35.52.08,1.02.33,1.43.6-.11-.5.54.17.49-.22-.2-.21-.3-.57-.08-.66.15.1-.08.15-.05.26.3-.09.14.47.5.27-.5-.12-.32.38-.55.62.38,0-.12.18.17.35.37.01.8.12,1.15.3.2.51.93.77,1.24,1.08-.05.18-.33.4-.25.58.15.16.13-.43.23-.07l-.06.04c.08-.01.16.34.32.39.08-.04.17-.15.23-.31-.06.14-.14.29-.22.43.05.02.13-.08.19-.13-.03.13.02.24-.11.35.17.23.5-.14.72-.19-.06-.07-.11-.14-.15-.2.31-.23.71-.06,1.12-.18v.22s.25-.16.25-.16c-.04.22.2.34.32.15-.21.19-.41.39-.61.6-.19-.11.17-.29.03-.49-.12-.18-.51-.08-.55.15.15,0,.15-.04.26-.14.09.3-.14.32-.23.54.08-.02.2.06.2-.04-.15.17-.23.2-.57.26.2-.16-.13-.17-.05-.27,0,.27-.33.42-.72.42-.11-.14-.28-.05-.51.06-.16-.08-.38-.17-.52-.41.28-.09.51-.14.7-.09,0,0,0,0,.01,0,0,0,0-.02,0-.02-.09-.31-.17-.2-.24-.51-.18.1-.42.32-.76.11l.13-.17c-.3-.16-.48.09-.68-.18-.34-.45-.82-.79-1.17-1.03l.09-.18c-.43.24-.77-.27-1.16-.22-.42-.41-1.15-.24-1.32-.64-.99-.1-1.82-.06-2.8-.11l.17-.3c-.18.22-.12-.16-.3-.11.21.23-.24.32-.35.5-.46-.2-1.01.12-1.32.41l-.06-.2c-.3.44-.8.25-1.29.35-.08-.06-.23-.2-.36-.12-.12.41-.26.42-.5.79-.25.11-.66.28-.97.33-.57.94-1.5,1.46-1.79,2.48l-.24-.06c-.03.55-.23,1.02-.38,1.5-.16.47-.26.97-.14,1.37l-.4-.09c-.16.27.13.6.4.51-.13.27.27.58-.04.8,0,.27.26.26.36.45.02.52.13.7.42,1.09l-.04-.11c-.1,0-.27.07-.22.19.19.11.26.65.57.23.06.61.9.79,1.02,1.4.06-.13.17-.06.27-.1.33.3.6.79,1.04.79.03.1-.22.13-.06.25.12.02.09-.14.25-.14.39.07.7.28,1.03.51.1.07.47.27.84.39.36.13.7.23,1.06.31l.34.06c.15.56.27,1.18.38,1.81.05.3.07.3.1.38l.07.22.12.43c.11.28.21.56.32.83.13.27.27.52.41.78l-.09.04c.53.13.18,1.04.86.95-.01.13.2.31,0,.38.38.09.44.86,1.02.97-.03-.03-.06-.04-.12-.04.23.47.72.56,1.04,1-.07,0-.17-.03-.24.04.06.27.63-.06.45.4.1.06.2-.15.13-.18.86.8,2.14,1.08,3.29,1.35.74.51-.18.77.58.63.03.1.09-.16.07-.07.28-.05.29.61.53.41-.01-.3.16-.13.2-.3.48.29.56.58,1.02.41l-.05.15c.28-.18.55-.2.81-.23.26-.05.52-.1.73-.34,2.7,0,5.17-.92,7.25-2.22,2.18-1.19,3.59-3.17,4.47-5.3.57-.42.5-.51.48-1.13.06.03.07.07.13.04-.3-.07,0-.44-.31-.52.14-.86-.06-1.66-.27-2.51.08.12.36.13.29-.03l-.26-.11.08-.05c-.08-.1-.27-.17-.34-.03-.46-1-.9-1.98-1.53-2.94-.62-.96-1.46-1.83-2.49-2.42-.2-.22-.5-.39-.83-.52-.32-.15-.66-.26-.96-.33-1.51-1.09-3.27-1.8-5.23-1.51,0,0,.25-.84,1.13-1Z"/>
            <path class="cls-3" d="M44.85,42.79c-.08-.16-.32-.24-.14-.47.03.15.16.32.14.47Z"/>
            <path class="cls-3" d="M39.83,39.22s-.06-.11-.06-.14c.09.03.23-.04.25.07-.09-.04-.11.04-.18.08Z"/>
            <path class="cls-3" d="M38.18,38.36c.07-.13.5-.1.73-.01-.24,0-.49,0-.73.01Z"/>
            <path class="cls-3" d="M36.63,37.31c-.13-.15-.08-.21.13-.16,0,.08-.08.1-.13.16Z"/>
            <path class="cls-3" d="M36.44,37.61c-.14-.03-.2-.12-.26-.21-.01.12.35-.02.26.21Z"/>
            <path class="cls-3" d="M32.57,37.1c-.09.02-.28.17-.39.02.11.1.44-.25.39-.02Z"/>
            <path class="cls-3" d="M30.82,37.69c-.06,0-.09-.01-.14.05-.12-.03-.05-.17.04-.21l.1.16Z"/>
            <polygon class="cls-3" points="34 61.28 33.82 61.2 33.94 61.12 34 61.28"/>
            <path class="cls-3" d="M46.12,65.99c.18-.1.13.13.16.15-.16.02.05-.18-.16-.15Z"/>
            <polygon class="cls-3" points="52.71 63.56 52.66 63.59 52.54 63.31 52.71 63.56"/>
          </g>
        </g>
      </g>
    </g>
  </g>
</svg>