<?xml version="1.0" encoding="UTF-8"?>
<svg xmlns="http://www.w3.org/2000/svg" viewBox="0 0 95 95">
  <defs>
    <style>
      .cls-1 {
        fill: #fff;
      }

      .cls-2 {
        isolation: isolate;
      }

      .cls-3 {
        fill: #ff4f20;
      }

      .cls-4 {
        fill: #f7a397;
        font-family: Icebox-Magnet-Trial-90ms-RKSJ-H, 'Icebox Trial';
        font-size: 7.74px;
        mix-blend-mode: multiply;
        opacity: .49;
      }
    </style>
  </defs>
  <g class="cls-2">
    <g id="Layer_3" data-name="Layer 3">
      <text class="cls-4" transform="translate(-134.26 -112.56) rotate(20.77)"><tspan x="0" y="0" xml:space="preserve">YUM YUM YUM YUM YUM YUM YUM YUM YUM YUM  </tspan><tspan x="0" y="8" xml:space="preserve">YUM YUM YUM YUM YUM YUM YUM YUM YUM YUM  </tspan><tspan x="0" y="16" xml:space="preserve">YUM YUM YUM YUM YUM YUM YUM YUM YUM YUM  </tspan><tspan x="0" y="24" xml:space="preserve">YUM YUM YUM YUM YUM YUM YUM YUM YUM YUM  </tspan><tspan x="0" y="32" xml:space="preserve">YUM YUM YUM YUM YUM YUM YUM YUM YUM YUM  </tspan><tspan x="0" y="40" xml:space="preserve">YUM YUM YUM YUM YUM YUM YUM YUM YUM YUM  </tspan><tspan x="0" y="48" xml:space="preserve">YUM YUM YUM YUM YUM YUM YUM YUM YUM YUM  </tspan><tspan x="0" y="56">YUM YUM YUM YUM YUM YUM YUM YUM YUM YUM</tspan><tspan x="0" y="64" xml:space="preserve">YUM YUM YUM YUM YUM YUM YUM YUM YUM YUM  </tspan><tspan x="0" y="72" xml:space="preserve">YUM YUM YUM YUM YUM YUM YUM YUM YUM YUM  </tspan><tspan x="0" y="80" xml:space="preserve">YUM YUM YUM YUM YUM YUM YUM YUM YUM YUM  </tspan><tspan x="0" y="88" xml:space="preserve">YUM YUM YUM YUM YUM YUM YUM YUM YUM YUM  </tspan><tspan x="0" y="96" xml:space="preserve">YUM YUM YUM YUM YUM YUM YUM YUM YUM YUM  </tspan><tspan x="0" y="104" xml:space="preserve">YUM YUM YUM YUM YUM YUM YUM YUM YUM YUM  </tspan><tspan x="0" y="112" xml:space="preserve">YUM YUM YUM YUM YUM YUM YUM YUM YUM YUM  </tspan><tspan x="0" y="120">YUM YUM YUM YUM YUM YUM YUM YUM YUM YUM</tspan><tspan x="0" y="128" xml:space="preserve">YUM YUM YUM YUM YUM YUM YUM YUM YUM YUM  </tspan><tspan x="0" y="136" xml:space="preserve">YUM YUM YUM YUM YUM YUM YUM YUM YUM YUM  </tspan><tspan x="0" y="144" xml:space="preserve">YUM YUM YUM YUM YUM YUM YUM YUM YUM YUM  </tspan><tspan x="0" y="152" xml:space="preserve">YUM YUM YUM YUM YUM YUM YUM YUM YUM YUM  </tspan><tspan x="0" y="160" xml:space="preserve">YUM YUM YUM YUM YUM YUM YUM YUM YUM YUM  </tspan><tspan x="0" y="168" xml:space="preserve">YUM YUM YUM YUM YUM YUM YUM YUM YUM YUM  </tspan><tspan x="0" y="176" xml:space="preserve">YUM YUM YUM YUM YUM YUM YUM YUM YUM YUM  </tspan><tspan x="0" y="184" xml:space="preserve">YUM YUM YUM YUM YUM YUM YUM YUM YUM YUM   </tspan><tspan x="0" y="192" xml:space="preserve">   </tspan><tspan x="0" y="200" xml:space="preserve">   </tspan></text>
      <g>
        <path class="cls-1" d="M-33.14.24l2.15,2.38c3.47,3.84,9.4,4.14,13.24.67L20.25-31.03c3.84-3.47,4.14-9.4.67-13.24l-2.15-2.38c-7.9-8.75-21.4-9.43-30.15-1.53l-20.23,18.27c-8.75,7.9-9.43,21.4-1.53,30.15Z"/>
        <path class="cls-3" d="M-34.25-1.68c-.43-.34-.83-.77-1.19-1.25-.38-.47-.62-1.06-.91-1.62-.3-.56-.49-1.17-.74-1.75-.13-.29-.25-.57-.38-.85-.11-.29-.23-.56-.37-.83-.11-.26.39-.04.13-.61-.56-1.01-.9-2.48-.94-4.01-.06-.76.07-1.55.14-2.3.11-.75.32-1.47.48-2.14l.09.18c.13-.5-.07-1.17.07-1.71.07.01.07.19.19.09-.09-.09-.07-.34-.04-.6.05-.26.12-.52.07-.65.15-.19.31-.12.48-.36l-.15-.37c-.18-.52.03-1.02.3-1.54.26-.52.55-1.06.72-1.65.02.08,0,.2.11.14.49-1.93,2.02-3.91,3.45-5.57,0,.12.06.29.22.27-.11-.26.32-.79.7-1.24.37.02.58-.86,1.18-1.21v.08c.18-.55.66-.38.74-.91l.38-.06c-.09-.43.68-.34.86-.77l-.06-.05c.23-.33.51-.33.74-.62h.06c.57-.64,1.08-.82.87-1.02.38-.02-.54.64.04.58,1.89-2.12,4.08-4.02,6.19-5.93.32-.13.5-.24.63-.2.17-.23.76-.76.85-1.04-.07.07.24,0,.36-.1.46-.26.2-.62.71-.9-.11.21-.11.33.02.36.2-.5.71-.9,1.08-1.34-.03.1-.11.21-.04.27.29-.61.88-.72,1.18-1.21l-.04.27c.8-.44-.05-.44.6-.86-.1.16,0,.17.02.24.32-.71,1.24-1.4,1.7-1.96-.02.05.02.07.02.07.55-.55,1.21-1.02,1.75-1.69.28-.15.2.37.78-.21-.25-.24.99-.99.36-.99.3-.2.67-.47,1.04-.7.37-.22.71-.43.87-.61-.19.28.52.17.05.51l.48-.07c.02.15-.4.21-.19.28.24-.16.85-.77,1.12-.81.37-.43.62-1.02,1.4-1.46-.33.28.38.26.14.42l.89-1.07c.27-.13.16.23.52-.01-.05-.08.1-.2.2-.32.12,0,1.17-.44,1.39-.15.16.09-.44.2-.09.23.52-.15.51-.29,1.04-.42l.02.04c.36-.02,1.01-.34.59-.45-.25.04.13.18-.25.16.21-.24.84-.42,1.38-.52-.18.09-.14.18-.2.28.69-.39,1.48-.51,2.31-.71,0-.16-.3.32-.42.25.54.04,1.08,0,1.61-.08.53-.06,1.05-.13,1.48.09-.15.01-.06-.24-.06-.19.52.07.47.3.81.25.02.14.42,0,.78,0,.19-.08.08.08-.22.06.25-.06.85,0,1.54.08.34.05.7.09,1.04.19.33.11.64.22.9.35,0-.09.76-.12,1.01-.04l-.17.17c.19.17.81.3.79.48.3-.01-.21-.17-.7-.29-.5-.09-.98-.16-.6-.15.13.21,1.1-.01.85.22.48.19,1.04.16,1.42.53-.12-.09-.5.11-.12.26.69.25.24-.03.8.17l.37.1c.12-.17.57.33.44,0,0,.19,1.01.41.77.68l-.23.19c.29.12.58.03.86.06.02.04.06.14.03.16.27-.32.61.45,1.11.39.48.48,1.33,1.08,1.42,1.46.49.21.92.45,1.28.93-.11-.06-.23-.16-.32-.12.17.35.31.33.6.52-.1,0,.36.68.5,1.07.42.28.47,0,.61-.05,0,.61,1.12.85,1.22,1.51-.16-.09-.63-.39-.43-.02,0,.61.83.44,1.18,1.2l.14-.36c.08.38.85.85.52.97.27.15.38.86.62.63.1.33.24.66.37,1.02.15.35.28.71.38,1.07.21.71.29,1.4.02,1.82.07.18.06.64.22.54.16-.32-.17-.42-.06-.54.03.16.12.19.17.21-.03.42-.06.73-.34.36-.2.87.59.92.33,2.08-.13-.07-.19,0-.24.34.03.22.08.45.1.68-.27.71-.42.32-.65.28-.06.39-.25.82-.16,1.05-.15.11-.3.22-.45.32.34-.22-.02.34-.06.53l.03-.19c-.12.02-.26.44-.37.65.16.04.42-.35.58-.55,0,.22-.16.5-.21.79-.15-.19-.49.46-.7.7-.27.25-.1.44-.17.52-.1-.07-.39.45-.34.12.05-.12.27-.14.32-.37-.22.13-.35-.02-.56.44-.18.34.4.24-.21.65.09-.17.05-.26.1-.42l-.55.38.12.17c-.1.02-.07-.03-.11-.03.01.28-.64.66-.57.94-.21.22-.57.32-.8.5l.03-.05c-.34.15-.64.52-.77.82l-.02-.04c-.15.12-.47.45-.57.7-.47.21-.65-.47-.87.08-.36.34-.32.8-.08.77-.75.49-1.28,1.42-2.1,1.73-.04.15.06.13-.11.35-1.02.82-1.88,2.03-2.93,2.43.22-.32-.12-.17-.21-.25-.11.35-.41.11-.28.42.15.12.19.21.51.02-.51.6-1.39,1.39-1.83,1.55.22-.08.13.07.04.23-.16-.26-.62.09-.87.46l.08.18-.34.05c-.09.16.12.41-.32.57-.06-.04-.13-.07-.22-.06-.23.41-.54,1.02-1,1.24l-.47.07c-.14.16-.29.52.04.33-.73.44-1.14.78-1.49.79-.69,1.38-2.22,2.79-3.48,3.88l-.06-.13c-.42.21-.01.33-.31.47.02-.19-.44.02-.29-.34-.57.32-.45.73-.72,1.05.07.18.17-.31.26-.09-.01.1-.75.49-.64.76-.19.03-.23-.2-.24-.34l-.2.36c-.57.09.43-1.15-.2-1.1l-.24.27c-.45.02.49-.88-.24-.34-.2.36-.19.88.15.73-.56.6.15.73-.52,1.31-.29.04.5-.5.22-.55-.45.12-.54.65-.86.84.37-.2.3.24.14.45-.42.21.04-.39-.45.02.03.19-.33.66.12.41.07.42-.56.37-.63.8-.32-.05.1-.87-.5-.49.24.11-.42.82.09.84-.25.13-.4.01-.35-.23-.39.15-.41.96-.82.69l.07.27c-.14.02-.31.1-.55.13-.26.23-.6.99-.82.69-.06.1-.65.62-.25.6.47-.21.29-.52.72-.44-.45.02-.5.5-.64.76l-.13-.08c-.09.15-.39.39-.37.58.04-.15-.07-.18-.2-.11l.02.28c-.43.54-.38-.18-.83.31l.26-.46c-.06.1-.36.1-.55.36.04.23.03.56.06.75-.22.32-.28-.05-.41.34l.2-.5c0-.1-.46-.03-.83.31-.19.27-.37.81.08.55-.18.17-.53.32-.48.07-.38.43.2.11-.08.53-.24.04-.83.31-1.24.42l.16-.59-.25.23c.15-.49-.3,0-.31-.38-.2.12-.35.38-.46.59.81-.12-.15.97.27,1.14-.62.71-1.1-.35-1.39.78.19-.03.06.51.42.03-.46.35-.01.57-.64.9.26-.46-.68.05-.3-.62.06.13.37-.2.43-.3-.28.04-.24-.34-.68.06-.24.27-.6.61-.41.72.17.16.39-.39.38-.06-.48.54-.81.36-.75.87.32-.33.56-.23.67-.1l-.33.43-.03-.19c-.7.48,0,.38-.63.9l-.49.03c-.03-.33.97-.71.57-.94-.41.34-.39.63-.84.88.06-.1.16-.21.22-.32-.15.12-.68-.18-1.02.58-.2.36.03.18.13.31-.6.61-.68.91-1.08,1.3-.07-.15-.23,0-.41.13-.17.13-.28.21-.12-.14.36-.06,1.25-.9,1.28-1.33-.48-.07.54-.41.42-.82-.52.46-.74.16-.98.05-.15.12-.22.32-.28.42.09.22.28.05.44.22-.63.47-1.04,1.05-1.29,1.52-.29.09-.36-.14-.12-.37-.69.71-1.65,1.22-2.53,1.54.72.11-.95.48-.45.61.51-.11,1.05-.05.84.22-.32.11-.05-.15-.22-.17-.33.35-.72-.05-1.01.36.87-.4.03-.48.1-.81-.57.34-.04-.2-.64-.03-.56.34-1.32.59-2.04.7-.91-.21-2.27-.09-3.08-.28-.37-.26,0-.5-.41-.68-.49-.14.26.46-.43.08l.09-.03c-.12,0-.43-.19-.75-.33-.32-.15-.64-.29-.86-.13l.38-.2c-.11-.09-.27-.08-.39-.11.05-.1-.04-.27.2-.23-.26-.45-.84-.46-1.24-.78l.12.37c-.8-.41-1.1-.99-1.7-1.55l.17-.12-.42-.28c.23-.05.02-.46-.27-.54l1.23.6c.15.34-.44-.12-.45.18-.02.26.58.77.8.71-.19-.22-.23-.2-.44-.31.14-.27.44.05.72.06-.11-.1-.2-.3-.28-.26.3.1.51.29.89.58-.32-.12.02.25-.12.24.18-.16.58.05,1.03.41.21.48,1.04.37,1.62.67-.33.13-.76.22-1.18.1.33.33.45.2.81.49.27-.09.51-.32,1.07-.28l-.02.19c.52.03.57-.25,1.17-.09,1.05.24,2.18.17,2.99,0l.07.18c.19-.22.54-.39.92-.51.37-.16.78-.28,1-.51.51-.14.97-.49,1.36-.81.37-.34.7-.62,1.03-.7,1.37-1.43,2.56-2.7,4.13-4.02l-.07.44c.14-.4.28-.04.52-.31-.45.11.18-.55.26-.84.82-.45,1.53-1.41,2.01-2.1l.15.12c.37-.81,1.3-1.24,2.1-1.88.14-.02.4-.01.61-.23.21-.6.43-.78.91-1.46.44-.4,1.2-.98,1.73-1.3,1.37-1.81,3.24-3.13,4.78-4.88l.27.05c1.35-1.86,3.69-3.39,4.94-4.85l.12.41c.52-.32.95-.99.66-1.09.52-.32.99-1.14,1.48-1.17.5-.36.44-.64.79-1.02,1.01-.72,1.33-1.05,2.14-1.88l-.23.18c-.04.15.06.28.29.1.25-.37,1.25-.99.63-1.04,1.1-.64,2-2.1,3.14-2.64-.16-.02.05-.24.09-.39.8-.73,1.82-1.31,2.33-2.05.17-.07-.06.34.27.05.16-.21-.1-.12.09-.39.58-.68,1.28-1.23,1.98-1.76.35-.26.69-.52,1.03-.77.26-.24.56-.45.74-.74.68-1,1.21-2.1,1.49-3.27.27-1.17.29-2.39.03-3.49h.09c-.25-.33-.27-.77-.38-1.2-.08-.43-.25-.82-.62-.96,0-.2-.34-.59-.11-.58-.26-.2-.48-.54-.76-.95-.33-.44-.7-.91-1.17-1.19.06.08.11.11.21.16-.28-.46-.63-.82-.99-1.18-.36-.35-.71-.65-1.02-1.1.1.05.26.16.35.12-.17-.41-.94-.41-.81-.88-.19-.15-.28.06-.16.14-1.61-1.68-3.92-2.75-6.15-3.5-.73-.46-.72-.59-.66-.7.06-.1.13-.12-.58-.16-.08-.11-.13.14-.12.05-.54-.02-.66-.73-1.08-.57.09.29-.28.1-.32.26-1-.36-1.17-.7-2.04-.56l.08-.13c-.52.16-1.04.13-1.55.16-.51.05-1,.11-1.4.34-2.65.11-5.2.79-7.48,1.91-.57.28-1.11.62-1.67.92-.54.33-1.04.72-1.57,1.07-.51.37-.97.81-1.46,1.21-.48.39-1.01.93-1.51,1.38-4.15,3.63-8.01,7.4-12.33,10.97-1.22.6-1.29.68-2.26,1.75,0-.08.06-.15-.05-.13.15.27-.73.7-.64,1.01-.79.67-1.52,1.34-2.25,2.02-.71.68-1.52,1.39-2.16,2.07.19-.24.13-.53-.12-.26l-.14.41-.1-.02c-.15.21-.23.5.02.39-1.57,1.85-2.94,3.81-3.95,6-1.01,2.17-1.63,4.56-1.63,6.97-.06.57-.1,1.27.02,1.97.05.35.09.7.14,1.05.07.34.16.66.23.96.24,3.68,1.63,7.07,4.35,9.78,0,0-.9.15-2.09-1.03Z"/>
      </g>
      <g>
        <g>
          <g>
            <ellipse class="cls-1" cx="48.22" cy="37.28" rx="14.55" ry="15.19" transform="translate(8.46 83.47) rotate(-87)"/>
            <g>
              <path class="cls-3" d="M63.87,38.33c-.03-.36-.26.17-.08-.24.1.05.18.13.08.24Z"/>
              <path class="cls-3" d="M63.73,36.93c-.34-.55-.46-1.17-.48-1.83-.12-.64-.14-1.34-.57-1.83-.07-.13.38-.08.19-.36-.42-.49-.79-1.13-1.05-1.88-.16-.36-.3-.74-.43-1.12-.14-.38-.28-.76-.41-1.11h.14c-.1-.27-.58-.33-.74-.58.06-.05.14,0,.18-.11-.22.08-.43-.34-.63-.33-.01-.15.13-.25.1-.43l-.3.04c-.76.1-.77-.84-1.46-1.02.06-.03.14-.02.14-.1-1.01-.37-1.97-1.16-3.04-1.54.08-.06.19-.18.18-.3-.17.21-.51.11-.79.02,0-.31-.57.03-.83-.24l.05-.05c-.34.17-.29-.3-.6-.06l-.08-.26c-.23.33-.29-.3-.56-.17l-.02.08c-.22.03-.26-.18-.46-.17v-.05c-.44-.04-.65-.27-.7.02-.1-.26.44-.02.28-.41-1.48-.04-2.93-.21-4.38-.18-.17-.11-.28-.13-.32-.25-.14.07-.55.11-.66.27.05-.01-.11-.14-.19-.15-.28-.08-.25.34-.55.26.1-.1.13-.2.07-.31-.21.28-.54.3-.81.43.03-.06.1-.1.07-.19-.26.33-.59.04-.82.29l.06-.2c-.49-.07-.04.39-.44.38.07-.08.03-.13.02-.21-.26.41-.86.45-1.15.7.01-.03-.01-.07-.01-.07-.35.19-.78.23-1.11.54-.17,0-.13-.41-.48-.16.17.3-.57.45-.16.69-.35.09-.88.29-1.01.52.06-.2-.38-.26-.14-.45l-.31-.05c-.05-.14.23-.09.07-.2-.12.1-.42.45-.57.48-.11.34-.07.82-.38,1.12.08-.23-.33-.22-.26-.36-.02.31-.05.59-.05.9-.09.11-.2-.18-.3.03.07.06.04.17.05.26-.07,0-.37.47-.66.27-.14-.05.12-.22-.08-.19-.2.19-.13.28-.3.49l-.04-.03c-.16.1-.24.49.03.47.09-.08-.18-.1,0-.17.07.23-.09.49-.26.69.02-.1-.06-.15-.11-.24-.04.43-.17.8-.31,1.17.13.1-.16-.29-.05-.29-.24.14-.33.4-.41.64-.07.25-.14.48-.38.58,0-.07.22.08.18.06-.14.2-.34.08-.34.25-.13-.05-.07.19-.1.35.06.12-.08,0-.03-.13.02.27-.18,1.15-.53,1.56.09.02.22.41.17.52l-.19-.11c-.15.06-.1.38-.29.35.17.32.09-1,.18-.61-.2.03.18.56-.08.4-.06.23.08.51-.15.68.05-.06-.25-.27-.27-.07-.03.35.08.12.09.41l.05.19c.2.05-.09.29.16.21-.18,0,0,.49-.33.4l-.26-.09c0,.15.25.29.36.42-.03.02-.09.05-.13.03.41.08-.07.35.23.55-.19.29-.08.76-.33.9.13.24.28.45.19.72-.04-.05-.05-.12-.14-.14-.12.17-.01.21.05.36-.07-.03-.21.35-.34.56.15.23.36.12.5.13-.37.26.31.62.01.93-.07-.07-.27-.3-.33-.09-.36.29.39.38.27.75l.31-.16c-.17.2.29.44-.05.49.14.08.01.42.32.29-.05.31.1.62.2.92.11.29.21.56,0,.85.08.05.11.26.25.15.11-.2-.2-.12-.1-.22.04.06.13.04.17.03,0,.19.04.33-.28.29-.03.46.67.13.8.61-.13.05-.16.1-.07.22l.34.12c.11.31-.18.32-.37.45.11.14.24.32.42.29l-.12.34c.09-.25.2.04.29.07l-.09-.03c-.06.08.11.22.19.28.1-.11.03-.31,0-.42.13.01.19.14.36.16-.2.1.03.33.09.45.06.15.28,0,.3.05-.09.08.15.21-.06.22-.06-.02,0-.17-.13-.17,0,.13-.17.26.09.33.19.05.32-.32.41,0-.1-.02-.17.02-.28.03l.1.3.16-.13c-.01.06-.04.06-.05.09.22-.08.33.3.57.16.12.08.12.31.2.42h-.03c.04.2.26.3.45.3l-.04.03c.05.08.23.21.41.18.08.26-.45.65-.07.61.2.15.53-.06.54-.23.24.39.83.38.98.85.1-.04.09-.1.22-.08.47.44,1.25.4,1.5,1.02-.2,0-.1.18-.15.29.22-.11.09.25.27-.02.06-.18.11-.26-.02-.39.38.05.89.26,1.02.5-.06-.12.03-.14.12-.17-.13.28.12.41.35.37l.09-.17.07.22c.09-.03.2-.34.34-.11,0,.07-.02.14,0,.2.25-.09.59-.23.78-.04l.13.3c.1,0,.3-.13.15-.24.35.23.6.3.69.56.77-.47,1.71-.38,2.49-.37l-.02.14c.21.13.11-.24.25-.14-.07.13.17.28,0,.44.31.15.39-.24.58-.32.02-.18-.15.13-.13-.1.03-.07.42.1.45-.17.08.1.04.3.01.42l.17-.15c.26.29-.47.61-.2.98l.18-.06c.2.27-.46.37.01.42.19-.15.31-.56.13-.66.39-.11.11-.66.53-.68.14.15-.33.08-.22.29.23.21.38-.18.56-.13-.21-.06-.09-.37.02-.44.23.09-.09.28.21.25.02-.16.26-.33.01-.39.03-.37.32.04.42-.26.15.23-.18.62.18.68-.1-.22.32-.41.07-.72.14.03.2.21.14.38.22.09.31-.55.49-.11v-.25c.07.06.16.1.29.2.16-.04.39-.46.5-.11.04-.06.38-.18.16-.37-.26-.07-.18.28-.41-.01.24.22.29-.15.37-.29l.07.13c.05-.08.23-.12.21-.28-.02.1.04.18.11.19v-.23c.24-.21.21.33.47.16l-.15.24c.03-.05.21.1.33-.02-.02-.21-.04-.47-.06-.64.11-.16.17.17.22-.09l-.09.32c0,.08.28.23.49.12.1-.13.17-.49-.09-.48.1-.05.3-.02.29.15.2-.18-.13-.17,0-.38.15.08.49.09.74.16l-.03.42.14-.09c-.04.35.2.12.24.42.12-.02.19-.18.24-.3-.52-.21-.02-.72-.34-1.01.29-.32.81.69.8-.12-.12-.04-.14-.42-.28-.16.24-.13-.11-.44.24-.5-.08.28.46.17.34.58-.07-.12-.21.04-.23.1.18.06.23.35.46.17.11-.14.3-.29.13-.44-.16-.18-.19.18-.25-.07.21-.27.5-.03.33-.44-.14.16-.34,0-.44-.12.04-.08.09-.14.12-.23l.07.15c.35-.18-.11-.29.19-.51l.34.11c.12.26-.48.29-.14.57.19-.16.1-.38.35-.46-.01.06-.06.12-.07.18.07-.05.54.3.57-.19.04-.22-.08-.14-.19-.26.24-.32.18-.53.33-.74.21.25.32-.32.38.1-.23-.02-.58.42-.46.74.38.16-.27.18-.07.51.25-.22.5.05.72.18.09-.05.07-.2.08-.27-.14-.19-.22-.09-.39-.25.29-.24.43-.6.39-.89.17-.02.32.15.24.28.26-.37.52-.76.84-1.06-.47.01.2-.43-.17-.45-.2.14-.53.14-.6-.06.1-.09.13.1.23.09-.08-.25.44-.03.25-.36-.11.39.34.31.55.53.01-.34.17.12.32-.13.01-.35.08-.72.18-1.03.44-.24.43-.94.57-1.27.21-.12.47.12.59-.07.07-.24-.39.05-.14-.25l.05.06c-.04-.13.42-.58,0-.82l.31.21c.05-.06,0-.14-.02-.21.11.03.24-.02.28.11.32-.15.09-.49.13-.73l-.24.11c-.07-.45.19-.69.2-1.1l.2.04-.1-.26c.19.09.34-.12.19-.28.14.23.3.48.42.73-.16.16-.21-.24-.43-.16-.2.07-.22.45-.04.55.05-.14.01-.16-.04-.28.29,0,.24.22.4.37,0-.08.12-.18.03-.21.11.18.09.34.04.61-.07-.2-.19.06-.26-.03.24.08.27.35.12.65-.35.14,0,.64-.21.99-.19-.23-.33-.48-.36-.73-.2.18-.07.25-.27.43.15.17.4.34.41.68l-.18-.05c-.02.29.24.4.04.71-.32.54-.62,1.1-.89,1.49l-.17-.08c.11.21.03.43-.08.63-.13.19-.28.38-.31.58-.48.4-.66,1.17-1.11,1.18-.28.46-.59.86-.93,1.23-.33.4-.72.73-1.18,1.04l-.02-.33c-.03.28-.2-.05-.32.1.31.04-.04.39-.05.62-.54.09-.93.63-1.22,1.03l-.11-.16c-.23.51-.85.5-1.37.68-.09-.05-.26-.17-.4-.09-.16.39-.31.43-.66.78-.3.14-.84.18-1.19.17-1.07.77-2.38.68-3.63,1.03l-.1-.21c-.61.23-1.32.27-1.99.2-.67-.1-1.31-.16-1.86-.17l.17-.36c-.3-.18-.75-.05-.73.23-.3-.17-.87,0-.99-.37-.31-.17-.45.05-.74.01-.62-.32-.85-.43-1.49-.6l.14.08c.1-.05.17-.2.03-.28-.27.01-.77-.44-.74.07-.5-.56-1.57-.56-1.94-1.26-.02.14-.18.06-.28.09-.54-.32-.87-.95-1.39-1.08-.04-.11.26-.06.07-.23-.15-.06-.11.12-.3.06-.92-.5-1.31-1.57-1.91-2.23-1.2-1.11-1.99-2.66-2.59-4.1l.09-.02c-.53-.37-.05-1.26-.69-1.51.04-.14-.08-.47.11-.42-.31-.36-.05-1.17-.41-1.71,0,.06.02.09.07.14.15-.62-.23-1.13-.04-1.77.04.06.07.18.16.19.17-.24-.39-.57.05-.71,0-.14-.22-.1-.21-.01.15-1.38.11-2.86.41-4.31.57-.92.72.16.66-.71.1-.03-.14-.1-.05-.08-.02-.35.63-.28.5-.56-.29-.02-.08-.19-.23-.26.43-.5.66-.52.72-1.03l.11.1c-.06-.68.42-1.18.34-1.83,1.75-2.74,4.17-5.01,7.14-6.32,1.48-.62,3.03-.99,4.59-1.24,1.57-.21,3.18-.18,4.76.15.69.49.72.5,1.56.51-.05.05-.1.06-.06.12.11-.3.56.11.71-.15,1.13.38,2.19.68,3.28,1.25-.19-.06-.38.12-.17.21l.3-.06v.09c.15.03.38-.02.28-.18.73.28,1.37.74,2.01,1.18.59.51,1.19.99,1.68,1.59,1.05,1.13,1.86,2.42,2.67,3.68.12.35.34.72.56,1.1.21.39.42.79.61,1.14.46,2.33.45,4.33.64,6.62,0,0-.79-.35-.97-1.22Z"/>
              <path class="cls-3" d="M63.85,38.76c-.16.06-.27.29-.45.08.15,0,.32-.12.45-.08Z"/>
              <path class="cls-3" d="M60.41,44.18s-.09.04-.13.04c.03-.07-.05-.2.05-.2-.03.07.04.1.08.16Z"/>
              <path class="cls-3" d="M59.47,45.37c-.09-.1,0-.43.1-.59l-.1.59Z"/>
              <path class="cls-3" d="M58.14,46.03c-.17,0-.19-.07-.07-.17.06.04.05.1.07.17Z"/>
              <path class="cls-3" d="M58.29,46.32c-.08.08-.18.06-.27.05.09.08.14-.23.27-.05Z"/>
              <path class="cls-3" d="M55.74,47.87c-.05.05-.12.23-.26.13.12.05.19-.33.26-.13Z"/>
              <path class="cls-3" d="M54.66,48.73s-.07,0-.1.06c-.1-.02-.07-.15-.01-.19l.11.13Z"/>
              <polygon class="cls-3" points="34.33 39.78 34.42 39.92 34.29 39.93 34.33 39.78"/>
              <path class="cls-3" d="M36.92,29.06c.03-.17.17,0,.2,0-.08.11-.1-.14-.2,0Z"/>
              <polygon class="cls-3" points="41.4 24.63 41.36 24.66 41.25 24.4 41.4 24.63"/>
            </g>
          </g>
          <g>
            <ellipse class="cls-1" cx="48.22" cy="37.28" rx="6.28" ry="7" transform="translate(8.46 83.47) rotate(-87)"/>
            <g>
              <path class="cls-3" d="M55.7,37.78c-.04-.17-.25.07-.09-.11.11.03.19.07.09.11Z"/>
              <path class="cls-3" d="M55.56,37.12c-.36-.25-.4-.51-.41-.81-.03-.29-.03-.62-.34-.79-.05-.05.37-.11.24-.22-.7-.3-.73-1.1-.85-1.9l.11-.04c-.01-.16-.4-.04-.45-.17.05-.05.11-.04.16-.13-.19.12-.24-.11-.4-.04.03-.1.16-.22.17-.34l-.23.13c-.57.3-.34-.39-.78-.32.05-.04.1-.06.11-.12-.58,0-1-.34-1.51-.43.06-.07.14-.21.16-.31-.14.23-.3.22-.44.21.05-.27-.3.15-.38-.04l.03-.05c-.2.23-.1-.22-.3.08v-.22c-.16.35-.1-.23-.25-.07l-.02.08c-.11.07-.1-.13-.2-.09v-.05c-.2.04-.27-.17-.33.12-.02-.25.2-.07.18-.43-.7.16-1.32.06-1.96.07-.08-.12-.13-.15-.15-.26-.06.07-.24.08-.29.23.02,0-.06-.15-.09-.16-.13-.1-.09.33-.23.22.04-.09.05-.18.01-.29-.08.25-.23.24-.34.33.01-.05.04-.09.02-.18-.09.29-.27-.01-.36.18v-.18c-.24-.15.03.37-.16.29.03-.06,0-.13-.01-.2-.08.35-.35.31-.47.46,0-.03-.02-.07-.02-.07-.15.1-.35.07-.48.26-.09-.04-.14-.4-.29-.26.15.31-.22.27.04.57-.16,0-.44,0-.47.17,0-.15-.28-.33-.18-.42l-.19-.13c-.06-.13.12-.01,0-.15-.06.05-.16.27-.24.25,0,.24.13.64,0,.79,0-.16-.27-.28-.25-.36.05.24.12.46.18.69-.04.05-.18-.21-.2-.08.06.07.07.14.1.21-.04-.01-.13.23-.38,0-.11-.08.03-.12-.11-.17-.09.08-.01.17-.1.25l-.03-.03c-.09.02-.05.27.14.34.04-.03-.16-.13-.04-.12.1.18.06.31-.01.39-.02-.06-.09-.12-.15-.2.09.29.06.46.06.66.13.1-.2-.23-.12-.2-.31.04,0,.52-.36.49,0-.04.2.11.16.09-.07.07-.27-.05-.23.05-.12-.06,0,.09,0,.17.07.08-.07-.02-.05-.07.05.14.1.55-.17.66.09.03.27.24.25.28l-.2-.09c-.13,0-.03.15-.21.11.21.18-.08-.45.07-.25-.18-.02.26.3,0,.17-.02.1.17.25-.04.28.04-.02-.27-.16-.27-.08,0,.15.09.07.13.19l.07.09c.2.05-.05.11.18.11-.17-.02.06.2-.28.13l-.26-.07c0,.07.27.15.38.21-.03,0-.08.01-.12,0,.41.06-.05.14.26.24-.16.11-.04.29-.29.35.13.1.28.18.19.28-.04-.02-.05-.05-.14-.05-.12.07-.01.09.05.14-.06-.01-.23.15-.36.25.14.09.35.02.49.02-.4.14.28.21-.05.38-.06-.02-.23-.1-.31,0-.38.17.34.12.18.29l.32-.12c-.19.11.23.14-.1.22.13,0-.05.19.26.07-.2.31.34.42-.13.8.06,0,.05.11.19.01.14-.13-.15,0-.05-.09.02.02.11-.01.15-.03-.04.1-.04.16-.31.23-.11.25.58-.12.56.11-.12.06-.16.1-.11.14l.25-.03c.02.14-.22.24-.41.37.08.04.12.12.28.04l-.18.25c.13-.18.15-.04.21-.04h-.07c-.07.08.03.11.08.13.11-.1.1-.2.11-.27.1-.03.12.03.24-.01-.19.13-.06.19-.03.25,0,.08.2-.08.21-.06-.09.08.05.09-.1.16-.04,0,.05-.11-.05-.07-.04.09-.19.22-.02.19.13-.03.32-.32.3-.13-.06.02-.13.07-.21.11v.17s.15-.14.15-.14c-.03.05-.05.05-.06.08.18-.12.18.08.37-.08.06.02,0,.19.02.24h-.02c-.03.14.09.15.22.08l-.03.03s.11.06.22,0c-.02.18-.45.64-.21.5.09.06.35-.21.39-.35.05.23.41.03.37.39.06-.06.08-.11.14-.13.18.2.57.02.58.47-.1.05-.09.19-.13.3.13-.15,0,.21.14-.08.07-.18.11-.26.07-.35.18-.04.38.04.4.24-.01-.1.04-.14.09-.18-.11.28,0,.36.1.28l.06-.17v.2s.14-.36.17-.17c-.01.07-.03.14-.03.19.12-.12.29-.33.35-.17l.02.28s.14-.17.09-.25c.12.19.22.23.24.47.37-.53.72-.5,1.04-.48v.14c.08.13.03-.24.09-.14-.03.13.07.28,0,.44.13.15.16-.24.23-.31,0-.18-.06.12-.05-.11,0-.07.17.12.17-.15.04.1.03.31.02.42l.06-.14c.13.31-.17.58-.05.97l.08-.05c.1.28-.19.34.02.42.08-.14.11-.54.03-.65.16-.09.01-.65.18-.64.07.16-.13.05-.07.27.11.21.15-.14.23-.08-.09-.09-.06-.37-.03-.43.1.11-.02.26.11.27,0-.16.08-.29-.03-.38-.02-.36.14.08.14-.2.09.24,0,.59.15.69-.07-.23.09-.35-.05-.69.06.06.11.24.11.39.11.13.06-.47.2-.02l-.04-.25c.05.07.08.13.16.24.07-.01.1-.37.21-.02.01-.04.15-.08.02-.3-.13-.12-.04.21-.19-.11.15.26.11-.07.12-.18l.05.13c0-.06.08-.06.05-.21,0,.09.05.17.09.2l-.05-.22c.07-.14.16.35.25.25l-.03.19s.12.13.15.05c-.05-.19-.11-.43-.15-.58.02-.11.12.19.09-.02l.02.26c.01.07.18.28.27.23.03-.09-.02-.39-.15-.45.04-.02.15.06.18.21.06-.11-.11-.19-.08-.34.09.1.28.23.43.36l.07.34s.04-.02.06-.03c.05.28.14.16.23.43.06.01.07-.1.07-.19-.34-.32-.18-.61-.43-.95.08-.18.63.8.43.16-.08-.07-.19-.38-.21-.22.11-.02-.18-.38.01-.31.03.19.32.28.36.56-.07-.12-.12-.04-.12,0,.13.1.22.35.32.28.04-.08.11-.14-.03-.3-.14-.19-.07.08-.18-.14.06-.14.3.13.08-.24-.05.07-.21-.11-.31-.24v-.13s.09.13.09.13c.19,0-.14-.25-.02-.3l.25.19c.15.23-.23.05.06.37.09-.05-.03-.24.11-.22,0,.04,0,.07,0,.11.03,0,.44.4.33.05-.03-.15-.09-.13-.2-.25.09-.14,0-.29.04-.38.22.23.14-.1.3.2-.17-.09-.3.08-.14.34.3.23-.13.04.1.35.11-.08.36.19.54.35.04-.02,0-.12,0-.16-.15-.18-.18-.14-.35-.31.16-.06.16-.27.05-.47.12.04.28.2.25.26.08-.18.22-.31.38-.41-.37-.14.05-.2-.25-.33-.12.02-.38-.08-.48-.22.05-.03.13.1.21.13-.13-.17.33.11.11-.13,0,.19.35.29.58.48-.06-.19.17.12.24.02-.07-.2-.1-.4-.09-.54.34,0,.19-.38.25-.51.17-.01.45.16.54.1.03-.1-.36-.06-.17-.15l.06.04c-.06-.07.31-.21-.13-.39l.33.16s-.03-.07-.06-.1c.11.03.22.03.28.1.27-.03.03-.22.04-.33l-.22.02c-.12-.22.11-.29.08-.48l.2.04-.11-.13c.2.06.34-.03.17-.11.15.12.32.24.46.37-.14.06-.23-.13-.44-.12-.18.01-.17.18.02.25.04-.06,0-.07-.07-.14.29.03.25.13.43.22,0-.04.09-.07,0-.1.12.1.13.18.11.3-.09-.11-.18,0-.26-.05.24.07.3.21.18.34-.31.01.09.33-.05.48-.22-.16-.38-.32-.45-.44-.16.06-.03.11-.19.17.16.11.43.26.48.44l-.18-.07c.03.15.29.27.17.41-.2.23-.37.48-.5.66l-.16-.1c.28.33-.11.42-.06.66-.3.12-.27.59-.61.48-.24.46-.5.86-.97,1.11l-.09-.28c.04.22-.14-.1-.19-.01.21.12.06.31.09.48-.32-.06-.44.3-.55.56l-.09-.17c-.03.41-.4.25-.67.29-.06-.06-.17-.21-.23-.17-.02.34-.1.34-.24.6-.15.05-.42.04-.6-.04-.47.57-1.12.38-1.72.67l-.05-.22c-.59.49-1.33.02-1.86.16l.11-.37c-.13-.14-.37.03-.38.3-.13-.14-.44.1-.47-.23-.14-.11-.24.11-.39.12-.28-.23-.4-.25-.73-.29l.07.05c.06-.07.12-.22.06-.27-.15.06-.36-.25-.43.21-.19-.39-.83-.15-.94-.65-.04.12-.12.1-.2.15-.27-.15-.39-.54-.7-.52,0-.08.19-.12.1-.21-.09,0-.1.13-.22.13-.55-.14-.61-.84-.94-1.12-.71-.44-1.12-1.24-1.46-1.95l.09-.03c-.45-.11.12-.7-.45-.73.06-.09-.04-.24.15-.25-.28-.15.08-.62-.27-.86,0,.03.02.04.06.07.17-.33-.16-.57.02-.9.04.03.07.09.16.09.17-.12-.39-.28.05-.35,0-.07-.22-.05-.21,0,.16-.69,0-1.45.13-2.21.42-.42.71.21.53-.28.09,0-.15-.08-.06-.06-.06-.2.55-.03.38-.21-.26-.07-.11-.13-.25-.2.29-.21.52-.14.47-.45l.11.09c-.2-.45.15-.61-.07-1.08.91-1.37,2.11-2.55,3.63-3.17,1.51-.49,3.11-.85,4.68-.41.32.42.33.42.75.35-.03.06-.06.06-.04.13.09-.3.28.03.39-.24.55.21,1.09.3,1.65.56-.1-.01-.25.19-.14.23l.19-.12-.02.09c.09,0,.23-.1.2-.23.77.22,1.4.75,1.91,1.34.53.59.91,1.26,1.37,1.87.09.37.44.76.66,1.11.1,1.28-.05,2.26.19,3.41,0,0-.79-.2-.98-.59Z"/>
              <path class="cls-3" d="M55.71,37.98c-.16.02-.25.12-.45.01.14,0,.31-.04.45-.01Z"/>
              <path class="cls-3" d="M53.35,40.01s-.07,0-.1-.02c0-.03-.08-.12,0-.1,0,.03.06.07.1.12Z"/>
              <path class="cls-3" d="M52.91,40.43c-.09-.1-.09-.26-.07-.33.03.11.06.22.07.33Z"/>
              <path class="cls-3" d="M52.13,40.42c-.11-.06-.14-.11-.1-.15.05.05.06.09.1.15Z"/>
              <path class="cls-3" d="M52.31,40.67s-.1-.01-.17-.06c.08.09.03-.12.17.06Z"/>
              <path class="cls-3" d="M51.16,41.03s-.01.15-.11.03c.08.08.02-.22.11-.03Z"/>
              <path class="cls-3" d="M50.79,41.45s-.04-.02-.04.02c-.05-.04-.06-.15-.05-.17l.09.15Z"/>
              <polygon class="cls-3" points="42.36 38.25 42.44 38.29 42.31 38.31 42.36 38.25"/>
              <path class="cls-3" d="M43.46,34.04c-.02-.1.13.05.15.06-.03.05-.11-.13-.15-.06Z"/>
              <polygon class="cls-3" points="45.21 31.95 45.19 31.96 45.08 31.7 45.21 31.95"/>
            </g>
          </g>
        </g>
        <g>
          <line class="cls-1" x1="42.25" y1="8.73" x2="47.18" y2="56.29"/>
          <g>
            <path class="cls-3" d="M42.77,8.79c-.08-.17-.23.12-.12-.1.11.01.2.04.12.1Z"/>
            <path class="cls-3" d="M47.47,55.67c-.77-.49-.13-1.3-.64-1.87-.04-.07.39-.02.28-.17-.61-.54-.38-1.51-.03-2.28l.11.03c.07-.15-.32-.28-.28-.43.07,0,.11.04.2,0-.22-.01-.13-.25-.3-.3.08-.07.25-.08.34-.16l-.26-.06c-.62-.17-.02-.57-.36-.86.06,0,.11.04.16,0-.41-.47-.41-1.12-.61-1.68.09.01.25.02.35-.03-.27,0-.35-.17-.42-.32.26-.1-.27-.24-.14-.43h.06c-.3-.09.14-.2-.21-.28l.2-.11c-.39-.02.18-.21-.03-.3h-.08c-.1-.08.08-.16,0-.25h.04c-.12-.23.07-.38-.22-.34.23-.1.13.21.46.05-.38-.71-.4-1.48-.48-2.22.11-.1.14-.15.25-.19-.07-.07-.08-.27-.24-.33,0,.02.15-.06.16-.1.1-.15-.34-.11-.22-.28.09.05.18.06.29.03-.25-.1-.23-.28-.32-.42.05.02.09.05.18.04-.28-.14.02-.3-.16-.43l.18.04c.18-.25-.37-.03-.26-.24.06.04.12.02.2.02-.33-.15-.26-.47-.38-.64.02,0,.07,0,.07,0-.06-.2.02-.42-.14-.63.07-.09.42-.02.34-.23-.34.04-.18-.35-.56-.18.04-.19.14-.49,0-.6.14.07.41-.13.46.02l.2-.14c.14,0-.04.12.14.07-.02-.08-.18-.28-.13-.36-.23-.12-.63-.21-.7-.43.15.09.37-.1.44-.03l-.69-.25c-.02-.07.27-.04.17-.15-.09.02-.15-.03-.23-.05.04-.03-.12-.31.22-.38.13-.05.08.12.2.02-.02-.14-.13-.13-.15-.27h.05c.04-.11-.17-.27-.35-.15,0,.07.2-.05.11.06-.2-.05-.28-.2-.29-.34.06.04.15.03.25.04-.29-.16-.39-.35-.53-.55-.16.01.3.05.22.09.2-.29-.38-.53-.07-.79.03.03-.23.04-.18.04,0-.13.24-.15.15-.23.14-.02-.05-.1-.11-.19-.1-.03.06-.03.09.04-.13-.11-.39-.58-.22-.88-.09.01-.35-.14-.35-.2h.22c.12-.07-.04-.21.14-.24-.27-.11.28.51.06.34.17-.07-.37-.23-.07-.22-.02-.13-.27-.23-.09-.38-.03.04.31.08.28-.03-.06-.18-.11-.04-.19-.18l-.1-.09c-.21.02.01-.17-.21-.08.17-.04-.13-.26.21-.27h.27c-.03-.08-.3-.1-.42-.15.02-.01.08-.04.12-.04-.41.03.01-.19-.32-.26.13-.18-.03-.43.22-.53-.14-.12-.3-.22-.23-.37.04.03.06.06.15.06.11-.1,0-.12-.07-.19.06.01.22-.21.36-.33-.14-.12-.36-.05-.49-.05.4-.16-.3-.33.05-.52.06.04.22.17.31.05.39-.16-.33-.2-.15-.41l-.33.08c.2-.11-.22-.26.12-.27-.13-.05.09-.23-.24-.18.25-.34-.25-.74.33-.99-.06-.04-.01-.16-.18-.12-.18.09.14.09.02.13-.01-.04-.11-.04-.15-.04.07-.1.08-.18.37-.12.18-.24-.58-.16-.48-.45.14,0,.19-.03.16-.11l-.25-.13c.04-.18.3-.13.53-.16-.05-.09-.05-.21-.23-.23l.28-.14c-.2.11-.15-.06-.21-.1l.06.04c.1-.03.02-.13-.01-.18-.14.03-.19.15-.22.21-.11-.04-.09-.12-.22-.17.23,0,.15-.17.16-.25.04-.09-.21-.08-.21-.1.12-.01,0-.14.18-.09.04.03-.11.08,0,.12.08-.07.29-.08.13-.18-.12-.08-.45.07-.32-.11.06.04.15.04.24.06l.1-.17h-.21c.05-.01.07,0,.1-.01-.22-.02-.09-.23-.34-.24-.03-.08.13-.18.14-.26h.02c.11-.09.02-.21-.13-.27h.05c.01-.05-.03-.17-.16-.22.14-.14.78-.12.5-.24-.02-.13-.4-.16-.53-.1.12-.25-.25-.48.05-.73-.09-.02-.14,0-.19-.06.05-.35-.32-.7.06-1.01.1.09.21-.01.33-.03-.19-.06.18-.12-.14-.11-.19.03-.28.03-.34.13-.12-.19-.15-.5,0-.64-.08.07-.14.03-.2-.01.3-.02.33-.17.21-.27h-.18s.18-.09.18-.09c-.06-.04-.39,0-.22-.14.07-.01.14-.03.19-.05-.16-.1-.43-.24-.29-.39l.25-.13c-.03-.05-.2-.13-.27-.02.14-.23.14-.38.36-.47-.6-.32-.68-.86-.68-1.3h.14c.12-.13-.24-.04-.16-.13.13.02.27-.12.44-.04.13-.18-.26-.19-.33-.3-.18,0,.12.08-.11.08-.07-.01.12-.25-.16-.25.1-.05.3-.04.42-.03l-.14-.09c.3-.16.59.23.97.06l-.05-.09c.27-.12.35.22.42-.03-.14-.09-.55-.14-.66-.03-.1-.21-.65-.03-.66-.27.15-.08.06.18.28.11.21-.13-.14-.21-.08-.31-.09.12-.37.06-.43,0,.12-.13.26.05.27-.12-.16-.01-.29-.15-.39,0-.36-.02.08-.18-.2-.25.24-.08.59.11.7-.08-.24.05-.35-.19-.7-.06.06-.08.25-.11.4-.07.14-.12-.46-.2,0-.29h-.25c.08-.05.13-.1.26-.17,0-.09-.36-.26,0-.29-.04-.03-.05-.23-.29-.13-.14.14.2.13-.14.23.27-.12-.06-.18-.16-.24l.14-.03c-.06-.04-.04-.14-.2-.15.09.03.18,0,.21-.04l-.22-.02c-.13-.17.38-.08.3-.25l.18.11s.16-.11.08-.18c-.2-.01-.45-.05-.6-.06-.1-.09.22-.07,0-.14l.25.1c.07.01.32-.12.3-.25-.08-.08-.38-.18-.47-.03,0-.07.1-.17.25-.13-.08-.14-.21.04-.35-.07.13-.07.3-.25.48-.37l.35.1v-.09c.27.09.19-.08.48-.04.04-.07-.07-.13-.14-.18-.43.22-.64-.14-1.04-.04-.14-.23.98-.26.31-.44-.1.05-.43-.03-.29.11.03-.16-.42-.06-.27-.26.18.12.4-.19.67-.02-.14,0-.09.12-.05.14.15-.08.41-.03.4-.19-.05-.09-.07-.22-.28-.18-.23.03.04.14-.2.11-.1-.18.25-.25-.17-.28.04.12-.19.17-.36.19l-.11-.13h.16c.09-.22-.29-.03-.27-.25l.3-.13c.27.02-.09.33.34.24,0-.14-.22-.17-.12-.31.04.03.05.06.1.09,0-.05.58-.16.22-.33-.14-.09-.16-.01-.32,0-.07-.22-.24-.27-.28-.41.32,0,0-.26.34-.13-.18.09-.13.42.18.46.37-.12-.03.18.35.19-.01-.18.36-.21.6-.27.01-.05-.1-.09-.14-.12-.23,0-.22.07-.45.1.04-.21-.11-.39-.34-.48.11-.08.33-.08.36,0-.09-.23-.09-.49-.04-.73-.36.19-.11-.24-.41-.11-.07.13-.32.26-.5.21.02-.08.16-.01.24-.05-.21-.08.31-.18-.02-.25.14.21.46,0,.75,0-.18-.14.21-.01.19-.17-.18-.14-.33-.32-.41-.49.25-.25-.05-.56-.08-.75.14-.12.47-.08.52-.2-.02-.13-.34.13-.21-.08h.07c-.08-.04.19-.37-.29-.37l.36.02s-.06-.06-.1-.09c.12-.01.22-.07.3-.02.23-.14-.07-.25-.09-.38l-.2.11c-.19-.21,0-.38-.09-.58l.21-.02-.14-.11c.2.01.32-.12.15-.17l.54.28c-.11.1-.26-.07-.46,0-.17.07-.1.26.11.27.01-.08-.03-.08-.11-.13.28-.05.29.06.48.1-.02-.04.07-.1-.03-.1.15.06.18.14.2.27-.12-.08-.17.07-.26.04.25-.02.34.1.29.27-.28.15.22.28.16.48-.26-.05-.48-.12-.59-.23-.12.13.02.13-.1.26.2.04.49.05.63.19l-.19.03c.11.13.39.1.36.28-.06.31-.03.62-.03.86l-.19.03c.42.09.19.41.39.57-.15.31.25.62-.06.8.2.5.39.94.37,1.49l-.28-.06c.21.08-.15.08-.1.17.21-.13.3.1.47.15-.19.26.08.54.29.74l-.19.03c.38.18.09.47.06.74-.07.04-.25.11-.22.18.32.11.31.19.52.38.02.16-.03.42-.14.59.49.54.28,1.16.6,1.74l-.22.07c.53.54.18,1.31.47,1.79h-.38c-.1.16.14.34.4.27-.1.17.22.38-.08.51-.05.17.2.18.26.31-.11.34-.06.45.04.75l.02-.08c-.09-.02-.25-.01-.26.07.12.1-.06.43.38.27-.23.35.29.74-.03,1.09.12-.04.15.04.24.06.03.28-.19.61.05.82-.06.05-.22-.05-.22.07.05.06.16-.02.24.06.28.44-.14.96-.04,1.38.32.72.28,1.51.39,2.23h-.09c.37.21-.3.6.25.74-.08.07-.02.22-.2.2.26.17-.18.56.16.8,0-.03-.01-.04-.06-.06-.17.3.13.52-.02.83-.04-.03-.08-.08-.17-.08-.16.13.41.23-.02.34.01.06.22.02.21-.02-.1.66.25,1.32.42,1.98-.21.51-.73.11-.37.45-.08.04.17,0,.08.02.14.13-.47.28-.23.36.26-.07.16.05.32.04-.14.31-.38.4-.15.61h-.14c.43.23.25.56.73.75.24,1.49.64,2.9.85,4.36.06,1.45.42,2.85.32,4.34-.34.38-.32.41-.13.77-.06,0-.08-.03-.13,0,.31-.01.06.26.35.27,0,.55.13,1.04.19,1.6-.04-.08-.3-.1-.26,0l.21.09-.08.03c.05.07.21.13.3.05.41,1.37-.06,2.82.16,4.18-.09.34.07.79.17,1.14-.3,1.09-.53,2.07-.13,3.11,0,0-.8-.06-1.03-.48Z"/>
            <path class="cls-3" d="M42.82,9c-.15.05-.22.18-.43.11.14-.03.3-.11.43-.11Z"/>
            <path class="cls-3" d="M41.59,12.42s-.06.05-.08.07c-.02-.04-.15-.06-.07-.1.02.04.09.03.15.04Z"/>
            <path class="cls-3" d="M41.58,13.26c-.14,0-.26-.17-.29-.27l.29.27Z"/>
            <path class="cls-3" d="M41.1,14.1c-.11.08-.17.07-.18-.02.07-.01.11.01.18.02Z"/>
            <path class="cls-3" d="M41.42,14.12c0,.06-.07.1-.14.14.12-.01-.09-.14.14-.14Z"/>
            <path class="cls-3" d="M41.2,15.85s.14.12-.01.17c.1-.05-.19-.18.01-.17Z"/>
            <path class="cls-3" d="M41.49,16.61s-.03.04.01.06c-.06.05-.16.01-.18-.02l.17-.04Z"/>
            <polygon class="cls-3" points="43.51 30.82 43.43 30.74 43.57 30.74 43.51 30.82"/>
            <path class="cls-3" d="M44.16,37.07c.09.08-.12.07-.14.09-.02-.07.17.01.14-.09Z"/>
            <polygon class="cls-3" points="45.19 40.37 45.19 40.35 45.46 40.33 45.19 40.37"/>
          </g>
        </g>
        <g>
          <g>
            <ellipse class="cls-1" cx="33.26" cy="48.57" rx="15.19" ry="14.55" transform="translate(-9.05 7.64) rotate(-11.54)"/>
            <g>
              <path class="cls-3" d="M48.68,45.66c-.11-.34-.21.23-.14-.21.11.03.21.08.14.21Z"/>
              <path class="cls-3" d="M48.2,44.33c-.47-.45-.74-1.02-.93-1.65-.27-.59-.47-1.26-1.02-1.63-.1-.1.35-.17.1-.4-.53-.37-1.05-.9-1.49-1.55-.25-.3-.48-.64-.69-.98-.23-.33-.46-.66-.67-.98l.14-.03c-.17-.25-.65-.19-.86-.38.04-.06.14-.03.14-.15-.19.13-.5-.22-.69-.16-.05-.14.06-.28-.01-.45l-.28.11c-.71.28-.95-.62-1.67-.62.05-.04.13-.06.11-.13-1.07-.1-2.2-.63-3.33-.72.06-.08.14-.22.1-.34-.12.24-.46.23-.76.21-.08-.3-.54.17-.86-.02l.04-.06c-.29.25-.36-.21-.6.1l-.14-.23c-.14.38-.36-.21-.58-.03v.08c-.2.09-.3-.11-.48-.05l-.02-.05c-.43.07-.69-.1-.67.19-.16-.23.42-.13.17-.47-1.44.34-2.89.53-4.28.93-.19-.07-.3-.06-.37-.16-.12.11-.5.24-.57.43.04-.02-.14-.11-.22-.1-.29,0-.16.39-.46.39.07-.12.07-.23,0-.31-.14.32-.45.43-.68.62.02-.06.07-.12.02-.2-.17.38-.56.19-.72.49v-.21c-.49.05.07.38-.33.48.05-.09,0-.14-.03-.21-.15.46-.72.65-.94.97,0-.03-.03-.07-.03-.07-.29.27-.69.42-.94.8-.17.05-.23-.36-.51-.03.24.25-.44.58.01.7-.31.17-.78.5-.85.75.01-.21-.43-.16-.25-.4l-.31.02c-.08-.12.2-.14.02-.21-.1.12-.3.54-.43.6-.02.36.14.81-.09,1.18.02-.25-.38-.13-.34-.28.05.3.1.59.17.88-.06.13-.24-.13-.28.1.08.04.08.15.11.24-.06.03-.24.55-.57.43-.15-.01.06-.24-.13-.16-.14.23-.05.3-.16.54l-.04-.02c-.13.14-.1.54.15.45.06-.1-.2-.05-.03-.17.12.2.04.5-.08.74-.01-.1-.1-.13-.17-.21.07.43.04.81,0,1.21.15.06-.22-.24-.12-.26-.19.2-.21.47-.24.72,0,.26-.01.5-.22.66,0-.07.23.02.19.02-.08.23-.31.16-.26.33-.14-.02-.02.2,0,.37.09.1-.08.03-.06-.11.08.26.11,1.16-.12,1.65.09,0,.32.34.3.46l-.21-.06c-.13.1,0,.4-.19.41.24.27-.16-.99.02-.64-.18.08.31.5.02.41,0,.24.2.47.02.7.03-.07-.3-.2-.28,0,.05.34.11.1.19.37l.1.17c.21,0-.01.3.21.16-.17.05.12.48-.22.47l-.27-.02c.03.15.32.21.45.31-.02.02-.07.07-.12.06.42-.03.02.35.36.47-.11.33.12.76-.09.95.18.2.38.37.36.65-.05-.04-.08-.11-.17-.1-.08.2.04.21.14.34-.08-.01-.11.39-.19.62.2.18.38.03.52,0-.3.35.45.52.25.9-.09-.05-.34-.23-.34,0-.27.37.47.27.45.66l.27-.23c-.12.24.4.36.08.49.15.05.12.4.38.2.03.31.25.58.42.84.18.26.34.49.21.82.09.03.18.23.28.09.06-.22-.22-.07-.15-.18.05.05.13,0,.17-.02.05.18.12.31-.2.35.09.45.68-.04.93.39-.12.08-.13.14-.01.23l.36.03c.18.27-.09.36-.25.53.14.1.31.25.48.17l-.03.36c.02-.26.2-.01.3,0h-.1c-.04.09.16.17.25.22.07-.13-.05-.31-.1-.41.13-.02.22.09.39.07-.17.15.11.31.2.41.1.13.27-.06.3-.03-.07.1.2.16,0,.23-.07,0-.03-.16-.17-.13.03.13-.1.29.17.29.2,0,.23-.39.39-.1-.1,0-.16.07-.26.1l.17.26.13-.17c0,.07-.03.07-.03.1.19-.13.4.2.59.02.14.05.19.27.3.36h-.03c.09.19.33.23.51.18l-.03.04c.07.06.28.14.44.07.14.24-.27.74.09.61.23.09.5-.19.46-.36.33.32.9.15,1.17.58.08-.06.06-.12.2-.13.56.31,1.31.08,1.71.61-.19.05-.05.2-.07.32.18-.16.15.22.26-.09.02-.19.05-.28-.11-.37.38-.05.93.02,1.12.23-.09-.1,0-.15.08-.19-.06.3.22.37.43.27l.04-.18.12.19c.08-.06.11-.38.3-.2,0,.07.02.14.05.2.22-.15.51-.37.74-.24l.2.26c.1-.04.26-.2.08-.27.4.14.66.14.8.37.63-.65,1.56-.8,2.32-.98v.14c.25.07.06-.26.22-.2-.03.14.24.23.12.43.34.07.31-.33.48-.46-.03-.18-.11.16-.15-.07,0-.07.43,0,.39-.28.11.08.12.28.12.4l.13-.19c.33.22-.3.71.05,1l.16-.1c.26.21-.35.47.12.4.15-.2.16-.62-.04-.67.35-.21-.06-.66.34-.79.17.11-.3.16-.14.33.28.14.32-.27.51-.27-.22,0-.18-.33-.09-.43.24.03-.02.29.27.19-.02-.16.17-.39-.09-.38-.06-.36.32-.04.34-.36.2.18-.01.65.34.62-.15-.19.21-.47-.12-.71.14,0,.24.16.23.33.23.03.16-.61.45-.23l-.07-.24c.09.04.19.05.34.11.14-.08.27-.54.45-.23.02-.06.33-.27.06-.4-.27,0-.1.32-.4.09.29.15.24-.22.29-.37l.1.1c.03-.09.19-.17.14-.32,0,.1.08.16.16.15l-.07-.22c.18-.27.29.26.5.03l-.08.27c.02-.06.23.04.31-.1-.07-.2-.16-.45-.22-.6.07-.18.2.12.19-.15v.33c0,.07.32.15.49-.01.07-.15.04-.52-.2-.44.08-.08.29-.1.32.07.15-.22-.17-.13-.09-.37.17.04.49-.03.75-.03l.07.41.11-.12c.05.35.22.06.34.35.11-.05.14-.22.16-.36-.55-.07-.2-.69-.58-.89.2-.38.96.46.74-.32-.13,0-.25-.37-.32-.08.2-.18-.22-.4.11-.54,0,.29.49.05.47.47-.09-.1-.2.09-.2.16.19,0,.31.28.48.05.08-.16.22-.36.02-.46-.2-.13-.14.22-.26,0,.14-.32.47-.15.2-.51-.09.19-.33.09-.46,0,.02-.08.05-.16.06-.25l.1.13c.3-.26-.18-.26.05-.55l.35.02c.18.22-.39.4,0,.58.15-.2,0-.39.22-.53,0,.06-.02.13-.02.19.06-.07.6.15.5-.33-.01-.22-.11-.12-.25-.2.15-.37.04-.56.14-.8.26.19.23-.39.4,0-.23.04-.46.55-.26.83.41.06-.22.24.07.51.18-.28.5-.08.74,0,.07-.07.01-.21,0-.28-.18-.15-.24-.03-.44-.14.22-.31.27-.69.16-.96.16-.06.35.07.3.21.16-.42.32-.86.54-1.23-.45.13.08-.47-.27-.39-.16.18-.47.26-.59.1.07-.12.15.06.25.03-.14-.23.42-.14.15-.41,0,.41.41.21.67.37-.07-.33.2.08.28-.21-.08-.34-.11-.72-.08-1.04.36-.34.18-1.02.23-1.37.18-.17.48,0,.56-.21,0-.25-.37.15-.19-.2l.06.04c-.07-.11.27-.67-.2-.79l.35.13c.04-.07-.04-.14-.08-.19.12,0,.23-.08.3.04.27-.23-.04-.49-.06-.74l-.2.17c-.19-.42.02-.71-.08-1.12h.21s-.16-.24-.16-.24c.21.04.3-.21.12-.31.2.19.41.39.59.6-.11.19-.26-.18-.46-.04-.17.11-.1.49.1.54.02-.15-.03-.16-.11-.27.29-.07.28.16.48.26-.02-.08.07-.2-.02-.21.15.15.18.31.19.57-.12-.18-.17.1-.26.04.25.01.35.27.28.6-.31.22.15.62.05,1.01-.25-.18-.44-.38-.53-.61-.14.22,0,.26-.15.48.18.13.47.23.57.56h-.19c.05.28.33.32.22.67-.17.6-.33,1.22-.49,1.67l-.19-.03c.16.18.14.41.08.63-.07.22-.18.44-.16.64-.36.5-.34,1.29-.78,1.42-.16.52-.36.98-.59,1.43-.22.46-.51.88-.88,1.3l-.11-.32c.04.28-.2,0-.29.18.31-.04.06.39.11.61-.5.22-.75.84-.92,1.3l-.15-.12c-.09.55-.7.69-1.16,1-.1-.02-.29-.1-.41,0-.05.42-.19.5-.44.92-.25.21-.77.39-1.11.46-.84,1.02-2.13,1.25-3.26,1.91l-.15-.18c-.53.38-1.21.59-1.87.69-.67.07-1.31.17-1.84.3l.07-.39c-.34-.1-.74.14-.65.41-.34-.09-.84.22-1.05-.11-.34-.08-.42.16-.72.2-.69-.16-.93-.21-1.59-.21l.16.05c.08-.07.11-.23-.04-.28-.26.08-.86-.24-.7.25-.62-.42-1.66-.15-2.2-.74.02.14-.16.1-.25.16-.6-.17-1.08-.7-1.62-.7-.06-.1.23-.13.01-.24-.16-.02-.07.14-.27.13-1.01-.26-1.66-1.19-2.41-1.68-1.44-.78-2.6-2.07-3.54-3.32l.08-.04c-.61-.22-.37-1.21-1.04-1.28,0-.14-.19-.44,0-.44-.39-.27-.34-1.12-.83-1.56.01.05.04.08.1.12-.01-.64-.51-1.03-.48-1.71.05.05.11.16.2.15.11-.28-.52-.46-.13-.7-.04-.13-.24-.04-.2.04-.2-1.37-.62-2.8-.68-4.28.33-1.03.74-.02.47-.85.09-.06-.16-.06-.07-.07-.11-.33.54-.42.34-.66-.28.05-.13-.16-.29-.19.29-.59.51-.66.44-1.18l.13.07c-.23-.65.11-1.25-.13-1.85,1.01-3.09,2.77-5.89,5.32-7.91,1.28-.97,2.68-1.72,4.13-2.35,1.47-.6,3.04-.97,4.65-1.05.79.3.83.31,1.64.1-.03.06-.08.08-.03.13.04-.32.57-.04.65-.32,1.18.08,2.29.11,3.49.38-.2-.01-.34.21-.12.24l.28-.14.02.09c.16,0,.37-.11.23-.25.78.09,1.51.37,2.24.63.7.34,1.4.66,2.03,1.11,1.3.83,2.41,1.87,3.51,2.9.2.31.51.61.81.93.3.33.61.66.87.95,1.03,2.14,1.53,4.08,2.28,6.24,0,0-.85-.14-1.25-.93Z"/>
              <path class="cls-3" d="M48.77,46.08c-.14.1-.19.35-.42.19.14-.04.28-.19.42-.19Z"/>
              <path class="cls-3" d="M46.8,52.19s-.08.06-.11.07c0-.07-.1-.18,0-.21,0,.07.06.08.12.14Z"/>
              <path class="cls-3" d="M46.19,53.57c-.12-.08-.1-.42-.05-.6l.05.6Z"/>
              <path class="cls-3" d="M45.07,54.55c-.16.04-.2-.02-.11-.15.07.03.07.09.11.15Z"/>
              <path class="cls-3" d="M45.29,54.79c-.06.1-.16.11-.25.11.1.06.08-.26.25-.11Z"/>
              <path class="cls-3" d="M43.21,56.93c-.04.06-.06.25-.22.19.13.02.11-.37.22-.19Z"/>
              <path class="cls-3" d="M42.38,58.04s-.07.02-.08.08c-.1,0-.1-.13-.06-.18l.14.1Z"/>
              <polygon class="cls-3" points="20.45 54.48 20.58 54.59 20.45 54.63 20.45 54.48"/>
              <path class="cls-3" d="M20.26,43.46c0-.17.16-.04.19-.06-.05.13-.13-.12-.19.06Z"/>
              <polygon class="cls-3" points="23.49 38.04 23.45 38.08 23.28 37.86 23.49 38.04"/>
            </g>
          </g>
          <g>
            <ellipse class="cls-1" cx="33.26" cy="48.57" rx="7" ry="6.28" transform="translate(-9.05 7.64) rotate(-11.54)"/>
            <g>
              <path class="cls-3" d="M40.64,47.18c-.09-.15-.22.13-.12-.09.11,0,.2.02.12.09Z"/>
              <path class="cls-3" d="M40.33,46.58c-.41-.15-.52-.4-.6-.68-.1-.27-.18-.59-.53-.68-.06-.04.33-.2.17-.27-.75-.12-.98-.88-1.3-1.63l.1-.06c-.05-.15-.4.06-.48-.05.04-.06.09-.06.12-.16-.15.16-.26-.05-.4.06,0-.1.1-.25.08-.37l-.19.18c-.47.43-.43-.29-.83-.11.04-.05.08-.08.08-.14-.56.15-1.05-.08-1.57-.04.04-.08.09-.24.08-.34-.08.26-.24.29-.37.32-.02-.28-.26.22-.38.05l.02-.06c-.14.27-.15-.18-.27.15l-.06-.22c-.07.38-.15-.2-.26-.01v.08c-.09.09-.13-.1-.21-.04v-.04c-.2.09-.31-.1-.3.2-.08-.23.18-.12.06-.46-.63.33-1.26.38-1.88.56-.1-.1-.16-.11-.21-.22-.04.08-.22.13-.22.3.02-.01-.09-.13-.13-.13-.15-.06,0,.35-.17.27.02-.1,0-.19-.06-.29-.02.26-.16.29-.25.41,0-.05.01-.09-.03-.18-.02.3-.26.06-.3.26l-.04-.18c-.28-.09.11.35-.09.32,0-.07-.04-.12-.06-.19.01.36-.27.38-.34.57,0-.03-.03-.06-.03-.06-.12.13-.32.16-.4.37-.1-.02-.24-.35-.35-.18.22.27-.15.31.19.54-.15.05-.42.12-.41.28-.04-.14-.35-.25-.28-.36l-.22-.08c-.09-.11.11-.04-.04-.15-.04.06-.09.3-.17.31.06.24.29.59.21.76-.05-.16-.33-.2-.33-.29.11.21.23.42.35.62-.02.06-.23-.16-.21-.03.08.05.1.12.15.18-.05,0-.07.26-.37.09-.13-.05,0-.13-.14-.13-.06.1.03.17-.03.27l-.04-.02c-.08.05.02.27.22.29.03-.04-.19-.08-.06-.1.15.15.14.28.09.38-.03-.06-.11-.1-.19-.16.16.26.17.43.22.62.15.07-.25-.17-.16-.16-.29.11.13.5-.22.56-.02-.04.22.06.18.04-.05.09-.27.02-.21.1-.14-.03.02.09.04.16.09.06-.07,0-.07-.06.08.13.23.51,0,.68.09,0,.32.16.31.2l-.21-.04c-.13.03,0,.16-.18.16.25.12-.19-.42,0-.26-.18.02.32.22.04.17,0,.1.23.2.03.28.03-.02-.3-.09-.28,0,.04.14.1.04.18.15l.09.07c.21,0-.02.12.21.06-.17.03.11.18-.23.2h-.27c.02.06.3.08.42.11-.02.01-.08.03-.12.03.41-.04-.01.14.31.16-.13.14.04.3-.2.41.15.06.31.1.25.23-.04,0-.06-.03-.15-.01-.1.1,0,.09.09.12-.06,0-.18.2-.29.33.15.05.35-.07.48-.11-.35.24.33.14.05.38-.07,0-.25-.04-.3.08-.32.26.36.03.24.24l.28-.19c-.16.16.26.08-.04.24.13-.03,0,.19.27,0-.12.35.43.32.07.81.06-.01.07.09.19-.03.1-.16-.15.03-.07-.07.03.02.1-.04.14-.07-.01.1,0,.17-.24.3-.04.27.53-.26.57-.04-.1.09-.13.14-.07.17l.24-.1c.05.13-.15.28-.31.46.08.02.15.08.28-.03l-.11.28c.08-.21.13-.07.2-.1l-.06.02c-.05.09.05.09.11.1.08-.12.05-.22.04-.28.09-.06.12,0,.23-.07-.15.18,0,.2.03.25.03.08.18-.13.19-.11-.06.1.08.07-.06.18-.04.02.02-.12-.07-.06-.01.1-.13.27.03.19.12-.06.23-.39.25-.2-.06.03-.11.1-.18.16l.04.17.11-.18c-.01.05-.03.06-.04.09.14-.16.19.03.33-.17.06,0,.04.18.08.23h-.02c0,.15.13.12.24.02l-.02.04s.12.03.22-.06c.02.18-.28.74-.07.54.1.03.28-.3.3-.43.11.21.4-.08.46.28.05-.07.05-.13.11-.16.23.15.55-.13.68.31-.09.08-.04.2-.05.32.09-.18.05.2.12-.11.02-.19.04-.28-.02-.36.16-.08.38-.06.45.13-.03-.09,0-.14.04-.2-.03.3.08.35.17.24l.02-.18.05.19c.04-.06.04-.38.12-.2,0,.07,0,.14.02.2.09-.15.2-.39.3-.25l.09.26s.1-.2.02-.27c.17.15.27.16.35.39.22-.6.57-.67.88-.72l.03.13c.12.1-.02-.24.06-.16,0,.13.14.26.12.43.16.11.09-.27.14-.35-.04-.18-.02.13-.08-.09,0-.07.2.08.13-.19.06.09.11.29.13.4l.03-.15c.2.27-.02.61.2.95l.06-.07c.17.24-.1.38.13.4.04-.16-.03-.55-.14-.64.14-.13-.15-.63.02-.67.1.13-.11.08,0,.28.16.18.11-.17.2-.13-.11-.06-.16-.34-.13-.41.13.08.05.26.17.23-.04-.15,0-.3-.12-.36-.11-.34.15.04.09-.23.15.21.14.57.32.63-.12-.21,0-.36-.22-.65.08.04.17.21.2.36.14.09-.06-.48.19-.07l-.1-.23c.06.06.11.1.22.19.06-.03,0-.39.2-.07,0-.04.13-.11-.06-.3-.15-.08.01.22-.21-.06.21.21.09-.1.07-.2l.09.12c0-.06.07-.08,0-.22.03.08.09.16.13.17l-.1-.2c.03-.16.25.3.31.18l.02.19s.15.1.16.01c-.1-.17-.22-.39-.29-.52,0-.11.16.16.08-.04l.08.24c.03.06.25.22.32.16,0-.09-.12-.37-.25-.4.03-.03.16.02.23.16.03-.12-.15-.16-.17-.3.11.08.33.15.51.24l.16.31s.03-.03.05-.04c.12.26.17.12.33.36.07,0,.04-.12.02-.2-.41-.23-.33-.55-.65-.81.03-.19.81.61.46.04-.1-.05-.28-.32-.26-.16.1-.05-.27-.33-.07-.3.07.18.38.19.49.45-.1-.1-.13,0-.11.03.15.07.31.28.38.19.02-.08.07-.16-.1-.29-.19-.15-.05.1-.2-.09.02-.15.32.05.02-.25-.03.08-.23-.05-.36-.15l-.02-.13.11.11c.18-.04-.2-.2-.09-.29l.29.12c.2.18-.21.1.15.34.07-.07-.09-.23.05-.24.02.04.01.07.03.11.03-.02.53.27.33-.04-.07-.13-.12-.1-.26-.19.05-.15-.08-.28-.06-.37.27.17.11-.14.34.11-.19-.04-.27.16-.05.36.35.15-.12.08.18.32.08-.11.39.1.61.21.04-.03-.03-.11-.04-.15-.19-.13-.21-.09-.41-.21.14-.1.09-.3-.07-.47.12,0,.32.13.31.19.04-.19.14-.35.27-.49-.39-.04,0-.21-.33-.25-.11.05-.39.02-.52-.09.04-.04.15.06.23.07-.16-.13.35.02.07-.15.05.18.41.19.68.32-.11-.17.19.08.24-.04-.12-.18-.2-.36-.22-.5.33-.09.09-.42.11-.56.16-.06.48.04.55-.04,0-.11-.36.03-.2-.1l.06.02c-.07-.05.25-.28-.22-.35l.35.07s-.05-.06-.08-.09c.12,0,.23-.03.3.03.26-.09-.03-.22-.04-.33l-.21.07c-.17-.18.03-.31-.05-.48h.21s-.14-.11-.14-.11c.2,0,.32-.11.14-.15.18.07.37.15.54.24-.12.09-.25-.07-.45,0-.18.06-.12.22.09.24.02-.07-.02-.07-.1-.12.29-.04.28.06.47.11-.01-.04.07-.09-.02-.1.14.07.17.14.18.27-.11-.08-.18.05-.26.02.25,0,.34.13.26.28-.3.09.17.3.07.48-.25-.1-.45-.21-.54-.32-.14.09,0,.12-.14.21.18.07.48.14.57.3l-.19-.02c.07.14.35.19.26.35-.13.28-.23.56-.32.76l-.18-.05c.36.25,0,.43.1.65-.26.19-.12.64-.47.62-.12.5-.27.96-.66,1.32l-.15-.25c.1.2-.16-.06-.18.04.23.07.14.29.21.44-.32.02-.35.4-.39.68l-.13-.14c.07.4-.33.35-.57.45-.07-.05-.22-.16-.26-.1.06.33-.01.36-.08.64-.13.08-.4.14-.59.11-.31.67-.99.65-1.49,1.08l-.11-.2c-.45.62-1.28.35-1.76.62v-.38c-.15-.11-.33.12-.28.39-.17-.11-.4.21-.51-.11-.16-.07-.2.17-.35.22-.33-.15-.45-.14-.78-.1l.08.03c.04-.08.06-.24,0-.27-.13.09-.41-.15-.36.31-.28-.32-.84.07-1.07-.39,0,.13-.1.13-.15.2-.3-.08-.51-.43-.81-.33-.02-.08.15-.17.04-.22-.09.02-.06.15-.18.18-.56,0-.8-.66-1.19-.85-.8-.25-1.39-.92-1.9-1.53l.08-.05c-.46,0-.06-.7-.62-.59.04-.1-.1-.23.08-.28-.31-.07-.08-.62-.47-.76,0,.03.03.04.07.05.08-.36-.3-.51-.21-.88.05.02.09.07.18.05.14-.16-.45-.18-.04-.35-.02-.07-.23,0-.2.05-.02-.7-.37-1.4-.43-2.17.3-.51.74.03.45-.41.09-.02-.17-.04-.07-.04-.11-.18.53-.16.31-.3-.27,0-.14-.1-.3-.13.23-.28.47-.27.34-.55l.13.05c-.31-.38-.01-.63-.34-1.03.53-1.55,1.41-2.99,2.71-3.98,1.34-.86,2.8-1.6,4.43-1.57.41.33.42.33.82.15-.01.06-.04.08,0,.13,0-.31.28-.04.32-.33.59.06,1.14.02,1.74.13-.1.01-.19.25-.08.25l.15-.17v.09c.09-.03.2-.16.14-.27.8.02,1.54.38,2.18.82.66.44,1.2,1,1.8,1.47.18.34.62.62.92.91.42,1.21.52,2.2,1.04,3.25,0,0-.81,0-1.09-.33Z"/>
              <path class="cls-3" d="M40.7,47.37c-.15.06-.21.18-.43.12.14-.03.29-.11.43-.12Z"/>
              <path class="cls-3" d="M38.92,49.92s-.07.01-.1,0c0-.03-.11-.1-.03-.09,0,.03.07.05.13.09Z"/>
              <path class="cls-3" d="M38.59,50.44c-.11-.07-.16-.23-.15-.3.05.1.11.2.15.3Z"/>
              <path class="cls-3" d="M37.84,50.63c-.12-.03-.17-.07-.13-.12.06.04.08.07.13.12Z"/>
              <path class="cls-3" d="M38.08,50.83s-.1.01-.18-.01c.1.06,0-.12.18.01Z"/>
              <path class="cls-3" d="M37.06,51.46s.03.15-.09.06c.09.06-.03-.22.09-.06Z"/>
              <path class="cls-3" d="M36.81,51.96s-.04-.01-.03.03c-.06-.03-.1-.13-.09-.15l.12.12Z"/>
              <polygon class="cls-3" points="27.84 50.98 27.93 51 27.81 51.06 27.84 50.98"/>
              <path class="cls-3" d="M27.85,46.63c-.05-.09.13.02.16.02-.01.05-.14-.09-.16-.02Z"/>
              <polygon class="cls-3" points="29.01 44.17 29 44.18 28.83 43.96 29.01 44.17"/>
            </g>
          </g>
        </g>
        <g>
          <line class="cls-1" x1="20.3" y1="12.71" x2="35.25" y2="53.11"/>
          <g>
            <path class="cls-3" d="M20.81,12.63c-.11-.13-.2.16-.14-.06.11-.02.2-.02.14.06Z"/>
            <path class="cls-3" d="M35.4,52.49c-.85-.23-.4-1.11-1.02-1.47-.05-.05.37-.12.23-.23-.71-.31-.69-1.23-.52-1.99h.12c.03-.15-.36-.16-.36-.31.07-.03.11,0,.2-.06-.22.05-.18-.19-.35-.19.06-.08.23-.13.3-.23l-.26.02c-.63,0-.14-.5-.53-.66.06,0,.11,0,.16-.04-.5-.31-.64-.88-.94-1.31.09-.01.25-.05.33-.11-.26.07-.38-.06-.47-.17.23-.15-.32-.14-.23-.34h.06c-.31-.02.09-.23-.26-.21l.17-.15c-.38.08.13-.23-.09-.26l-.07.03c-.12-.06.04-.17-.05-.23l.04-.02c-.17-.16,0-.34-.28-.23.2-.15.17.15.46-.08-.52-.52-.7-1.19-.94-1.82.09-.11.1-.17.2-.23-.08-.04-.14-.22-.3-.22.01.02.13-.09.13-.13.06-.15-.36-.01-.28-.18.09.02.19,0,.29-.05-.26-.03-.28-.18-.4-.28.05,0,.09.02.18-.01-.3-.05-.04-.27-.24-.34h.18c.12-.28-.36.05-.31-.16.07.02.12-.02.19-.03-.35-.05-.35-.34-.51-.46.03,0,.07-.02.07-.02-.1-.16-.08-.37-.27-.51.05-.1.4-.12.28-.28-.32.13-.25-.26-.58-.02,0-.18.03-.47-.12-.53.15.02.37-.22.45-.1l.16-.17c.14-.03,0,.12.15.02-.04-.06-.24-.2-.2-.28-.24-.05-.66-.02-.77-.2.16.04.34-.18.42-.14l-.72-.04c-.04-.06.25-.11.13-.17-.08.04-.15.02-.23.01.03-.04-.18-.24.13-.39.12-.08.11.08.19-.03-.05-.12-.16-.08-.21-.2l.04-.02c.02-.1-.22-.18-.37-.03,0,.06.18-.09.12.02-.21.01-.31-.11-.36-.22.07.02.15-.01.25-.03-.31-.07-.45-.21-.63-.35-.15.05.3-.04.23.02.13-.31-.48-.36-.24-.67.04.02-.21.1-.17.08-.02-.12.2-.19.09-.24.13-.06-.07-.08-.14-.14-.11,0,.06-.04.09.02-.15-.06-.5-.4-.4-.71-.08.04-.37-.03-.38-.09l.21-.05c.1-.09-.09-.18.08-.25-.29-.03.38.38.13.29.15-.1-.4-.1-.12-.17-.05-.11-.31-.13-.16-.31-.02.04.31-.01.26-.1-.09-.14-.11,0-.23-.11l-.11-.05c-.2.07-.03-.15-.22-.01.15-.08-.18-.19.15-.3l.26-.07c-.04-.06-.31-.01-.44-.02.02-.02.07-.05.11-.07-.39.13-.03-.17-.36-.14.08-.19-.12-.37.1-.52-.16-.07-.34-.11-.3-.27.05.01.07.04.16.02.09-.12-.02-.1-.11-.15.06,0,.17-.24.28-.38-.16-.07-.35.05-.49.09.35-.24-.36-.22-.06-.47.07.02.25.09.31-.04.35-.24-.36-.1-.23-.32l-.31.16c.17-.14-.27-.17.06-.27-.14-.01.04-.23-.27-.1.17-.36-.4-.58.1-.95-.07-.02-.05-.13-.2-.05-.15.13.16.04.05.11-.02-.03-.11,0-.15,0,.04-.11.04-.18.33-.2.13-.25-.6,0-.56-.27.13-.04.18-.07.13-.13l-.27-.05c0-.17.26-.19.48-.28-.07-.07-.09-.17-.27-.14l.24-.2c-.17.14-.16-.02-.22-.04l.07.02c.09-.05,0-.12-.05-.16-.13.06-.15.18-.17.24-.11,0-.11-.08-.25-.09.22-.06.1-.19.1-.26.02-.09-.22-.01-.22-.04.11-.04-.03-.13.15-.13.04.01-.09.1.03.1.06-.08.26-.14.08-.19-.13-.04-.42.18-.33-.02.07.02.16,0,.24,0l.06-.17-.2.07s.06-.03.09-.05c-.22.04-.14-.18-.38-.13-.05-.06.08-.19.08-.26h.02c.09-.12-.03-.19-.18-.21h.04c0-.06-.07-.15-.2-.16.11-.16.72-.31.43-.34-.05-.11-.42-.04-.53.05.06-.25-.34-.35-.11-.65-.09,0-.13.04-.2,0-.03-.32-.46-.53-.16-.9.11.05.2-.07.31-.11-.2,0,.15-.15-.16-.06-.17.07-.26.1-.3.21-.16-.14-.26-.4-.13-.56-.06.08-.13.06-.2.04.29-.09.28-.24.15-.3l-.18.05.15-.13c-.07-.02-.37.09-.25-.07.06-.03.13-.06.17-.1-.18-.05-.47-.1-.36-.26l.22-.18s-.22-.06-.27.05c.08-.24.06-.37.25-.51-.65-.12-.84-.58-.94-.97l.13-.04c.08-.14-.24.03-.18-.07.13-.01.24-.17.42-.15.08-.19-.29-.1-.38-.17-.17.05.14.03-.08.1-.07,0,.06-.25-.2-.17.09-.07.28-.11.4-.13l-.16-.04c.26-.22.62.05.95-.2l-.07-.07c.24-.18.38.1.4-.13-.16-.04-.56.02-.64.14-.14-.16-.64.14-.69-.06.13-.11.09.14.29.03.17-.17-.18-.14-.14-.25-.06.13-.35.15-.42.1.08-.14.27-.02.24-.18-.16.03-.31-.06-.37.09-.35.07.04-.18-.25-.16.22-.13.6-.06.66-.25-.22.11-.38-.08-.68.13.04-.09.22-.16.37-.16.11-.14-.49-.06-.05-.25l-.24.06c.07-.06.11-.11.22-.21-.02-.08-.4-.13-.05-.25-.05-.01-.09-.19-.31-.03-.11.16.22.06-.08.24.24-.18-.09-.14-.2-.17l.13-.06c-.07-.02-.07-.11-.22-.08.09,0,.17-.05.2-.09l-.22.04c-.16-.11.35-.17.23-.3l.2.05s.13-.13.04-.18c-.2.04-.44.07-.6.1-.11-.05.2-.12-.03-.13l.27.02c.07,0,.28-.19.24-.3-.09-.05-.4-.06-.46.09-.02-.05.06-.18.21-.18-.11-.1-.2.09-.35.03.11-.09.23-.3.39-.45h.36s-.03-.08-.03-.08c.29,0,.17-.12.46-.16.02-.07-.09-.1-.18-.12-.37.31-.64.05-1.01.23-.18-.17.89-.48.21-.47-.09.07-.42.08-.26.17,0-.14-.42.06-.32-.16.2.05.35-.27.64-.19-.13.04-.06.13-.02.14.13-.11.39-.13.34-.27-.07-.07-.12-.17-.31-.08-.22.09.07.11-.17.15-.14-.13.19-.28-.23-.2.07.09-.15.2-.3.25l-.14-.08.16-.03c.04-.23-.29.04-.32-.15l.26-.19c.27-.05-.01.31.38.12-.03-.13-.25-.09-.19-.24.04.01.07.04.11.05,0-.05.52-.29.14-.34-.16-.04-.15.03-.31.08-.12-.17-.29-.17-.36-.29.31-.09-.05-.23.3-.21-.15.13-.03.4.28.36.33-.2,0,.17.38.08-.05-.16.3-.28.52-.39,0-.05-.11-.05-.16-.07-.22.06-.2.12-.42.2,0-.19-.19-.31-.43-.33.08-.1.31-.16.35-.1-.14-.18-.19-.41-.2-.63-.3.25-.16-.19-.42,0-.04.13-.26.31-.43.31,0-.07.15-.05.22-.11-.22-.01.26-.24-.07-.21.18.14.44-.12.73-.19-.2-.08.2-.07.15-.2-.2-.08-.38-.2-.5-.32.19-.28-.17-.47-.24-.64.11-.14.44-.19.46-.31-.05-.11-.3.21-.22-.01h.07c-.09-.03.1-.39-.36-.27l.35-.07s-.07-.04-.11-.05c.11-.04.19-.11.28-.09.19-.19-.12-.2-.17-.31l-.17.14c-.23-.13-.08-.33-.21-.49l.2-.07-.16-.07c.2-.04.28-.19.1-.19l.58.11c-.09.12-.27,0-.44.12-.15.1-.04.25.16.21,0-.07-.05-.06-.13-.08.26-.12.29-.02.49-.04-.02-.03.04-.11-.05-.08.16.02.2.08.25.19-.13-.04-.15.1-.24.1.24-.08.35,0,.34.16-.24.2.27.19.26.38-.27.03-.49.01-.62-.05-.08.14.05.11-.04.25.2-.02.49-.09.64,0l-.18.07c.13.08.4-.01.4.16,0,.29.11.55.16.76l-.17.07c.42-.03.27.31.5.4-.08.31.37.48.11.72.3.39.58.73.68,1.21l-.29.02c.22.01-.13.11-.06.17.17-.17.31.01.49.01-.13.28.19.46.44.57l-.18.07c.4.06.19.38.22.63-.06.05-.22.16-.17.22.33.02.34.09.58.2.05.13.06.37,0,.55.59.35.52.95.95,1.37l-.2.11c.63.33.45,1.1.84,1.44l-.37.09c-.06.17.21.27.45.14-.06.17.3.27.04.46-.02.16.23.11.32.2-.03.32.03.42.2.65v-.07c-.09,0-.24.05-.24.13.13.06.04.39.43.14-.14.37.44.57.21.96.11-.07.16,0,.24,0,.09.24-.05.58.22.7-.04.06-.22.01-.2.12.07.04.15-.05.24,0,.36.31.07.88.26,1.21.46.55.59,1.26.85,1.85l-.09.02c.4.08-.16.6.39.58-.06.08.03.2-.15.22.29.08-.05.53.33.66,0-.02-.02-.03-.07-.04-.1.31.24.42.16.73-.05-.01-.09-.05-.18-.02-.13.16.45.09.05.3.02.05.22-.04.2-.07.04.61.52,1.09.83,1.63-.1.5-.69.28-.26.49-.07.06.16-.04.08,0,.16.08-.39.36-.14.37.24-.13.16,0,.32-.05-.07.31-.28.45-.02.57l-.14.03c.46.09.36.43.87.47.55,1.24,1.24,2.38,1.75,3.6.37,1.26,1.01,2.39,1.24,3.72-.24.42-.23.44.04.71-.06,0-.08,0-.13.03.29-.09.11.22.4.14.12.48.35.88.53,1.35-.06-.06-.31-.01-.26.07l.22.03-.07.04c.07.05.23.06.3-.04.69,1.1.55,2.48,1.05,3.62-.02.32.24.67.41.95-.05,1.03-.06,1.95.54,2.76,0,0-.79.16-1.1-.15Z"/>
            <path class="cls-3" d="M20.91,12.79c-.13.08-.17.22-.39.21.13-.06.26-.17.39-.21Z"/>
            <path class="cls-3" d="M20.45,16.11s-.04.06-.06.08c-.02-.03-.16-.02-.09-.07.02.03.09,0,.16,0Z"/>
            <path class="cls-3" d="M20.63,16.85c-.13.04-.29-.08-.34-.16l.34.16Z"/>
            <path class="cls-3" d="M20.35,17.71c-.09.1-.15.1-.18.03.07-.03.11-.02.18-.03Z"/>
            <path class="cls-3" d="M20.65,17.65c.02.05-.04.11-.11.16.11-.04-.12-.1.11-.16Z"/>
            <path class="cls-3" d="M20.81,19.22s.16.07.03.15c.09-.07-.22-.11-.03-.15Z"/>
            <path class="cls-3" d="M21.25,19.81s-.02.04.02.05c-.04.06-.15.05-.18.03l.15-.08Z"/>
            <polygon class="cls-3" points="26.25 31.74 26.16 31.69 26.29 31.65 26.25 31.74"/>
            <path class="cls-3" d="M28.22,37.05c.11.04-.1.09-.12.11-.04-.06.17-.03.12-.11Z"/>
            <polygon class="cls-3" points="29.92 39.67 29.91 39.65 30.17 39.56 29.92 39.67"/>
          </g>
        </g>
        <g>
          <g>
            <ellipse class="cls-1" cx="60.62" cy="48.57" rx="15.19" ry="14.55"/>
            <g>
              <path class="cls-3" d="M76.31,48.8c-.04-.35-.25.19-.09-.23.11.05.19.12.09.23Z"/>
              <path class="cls-3" d="M76.1,47.41c-.37-.54-.52-1.15-.58-1.8-.15-.63-.21-1.33-.67-1.8-.08-.12.38-.1.18-.37-.44-.47-.85-1.09-1.15-1.82-.18-.35-.34-.72-.48-1.1-.16-.37-.32-.74-.46-1.09h.14c-.11-.27-.6-.31-.77-.55.05-.05.14,0,.17-.12-.21.09-.44-.32-.65-.3-.02-.14.11-.26.08-.44l-.29.06c-.76.14-.81-.8-1.51-.94.06-.03.14-.03.13-.1-1.03-.31-2.03-1.05-3.11-1.37.08-.06.18-.19.17-.31-.16.22-.5.13-.79.06-.02-.31-.57.06-.84-.2l.05-.05c-.33.19-.31-.28-.61-.03l-.09-.25c-.21.34-.31-.28-.57-.14v.08c-.23.04-.28-.17-.48-.15v-.05c-.45-.02-.66-.23-.7.05-.11-.26.44-.05.26-.42-1.48.04-2.93-.06-4.38.05-.17-.11-.28-.12-.33-.23-.14.08-.54.13-.65.3.05-.01-.12-.14-.2-.14-.28-.07-.23.35-.53.29.1-.11.12-.21.06-.31-.2.29-.52.33-.79.47.03-.06.09-.11.06-.19-.24.34-.59.07-.81.33l.05-.2c-.49-.05-.02.39-.42.4.07-.08.02-.14.01-.21-.24.42-.83.49-1.11.76,0-.03-.01-.07-.01-.07-.34.21-.76.27-1.08.6-.17.01-.15-.4-.49-.13.18.29-.54.48-.13.69-.34.11-.86.34-.98.57.05-.2-.39-.24-.16-.44l-.31-.04c-.06-.14.22-.1.06-.2-.12.1-.4.47-.54.51-.09.35-.02.82-.32,1.14.07-.24-.34-.21-.28-.34,0,.31-.02.59,0,.9-.09.12-.21-.17-.29.04.07.06.05.16.06.26-.07.01-.34.49-.64.31-.14-.04.11-.22-.09-.18-.19.2-.11.28-.27.5l-.04-.03c-.15.11-.21.51.06.47.08-.09-.19-.09,0-.17.08.22-.07.5-.22.71.01-.1-.07-.15-.12-.24-.02.43-.13.81-.24,1.19.13.09-.17-.28-.07-.28-.23.15-.3.42-.38.66-.06.26-.11.49-.35.6,0-.07.22.07.18.05-.13.2-.33.09-.33.27-.13-.04-.06.19-.08.36.06.12-.08.01-.04-.12.03.27-.12,1.15-.45,1.59.09.02.24.4.2.51l-.19-.1c-.15.07-.08.39-.27.36.19.31.04-1.01.15-.62-.2.04.2.55-.06.41-.05.24.1.5-.12.69.04-.06-.26-.25-.28-.06-.02.35.08.12.11.4l.06.19c.2.04-.08.29.17.2-.18.02.03.49-.31.42l-.26-.08c0,.15.27.27.38.4-.03.02-.08.05-.13.04.41.05-.05.35.26.54-.18.3-.04.77-.28.92.14.23.3.43.22.71-.04-.05-.06-.12-.15-.13-.11.18,0,.21.07.36-.07-.03-.19.36-.31.57.16.22.37.1.51.1-.36.28.34.6.06.93-.08-.06-.29-.29-.34-.08-.34.31.41.35.31.74l.31-.17c-.16.21.32.43-.02.5.14.07.04.42.33.27-.03.31.13.61.24.91.13.29.24.55.04.85.09.05.13.26.26.14.1-.21-.2-.11-.11-.21.04.06.13.03.17.02.01.19.05.33-.27.31,0,.46.67.1.83.57-.13.05-.15.11-.06.22l.34.1c.12.3-.16.33-.35.47.12.13.25.3.44.26l-.1.34c.07-.25.2.03.3.06l-.1-.03c-.06.09.12.21.2.27.1-.11.02-.31-.02-.42.14,0,.2.13.37.15-.2.11.04.33.12.45.07.15.28,0,.3.03-.09.08.16.2-.05.22-.07-.01,0-.17-.14-.16,0,.13-.15.26.11.32.2.04.3-.34.41-.02-.1-.02-.17.03-.28.04l.12.29.16-.14c-.01.07-.04.06-.05.09.22-.09.35.28.57.13.12.08.13.3.22.41h-.03c.05.2.27.29.47.27l-.03.03c.06.07.24.19.42.16.09.26-.41.67-.04.62.2.14.53-.09.53-.26.26.38.85.33,1.03.8.09-.04.09-.11.22-.09.49.41,1.27.34,1.55.94-.2,0-.09.19-.13.3.21-.12.1.24.27-.04.05-.18.1-.26-.04-.39.39.03.91.21,1.05.45-.07-.12.02-.15.11-.17-.12.28.14.41.37.35l.08-.17.08.21c.09-.04.18-.35.33-.13,0,.07-.01.14.01.2.25-.1.58-.26.78-.09l.14.29c.1-.01.29-.15.13-.25.36.22.61.27.71.52.75-.51,1.68-.47,2.47-.5v.14c.2.12.08-.24.23-.16-.06.13.18.28.03.44.32.14.37-.26.56-.35,0-.18-.14.14-.13-.09.02-.07.43.08.44-.2.09.09.06.3.03.42l.16-.16c.28.28-.44.64-.15.99l.17-.07c.22.26-.44.39.04.42.18-.16.28-.57.09-.67.39-.13.08-.66.49-.71.14.14-.32.09-.2.3.24.2.37-.2.55-.16-.21-.05-.11-.36,0-.44.23.07-.08.28.22.24.01-.16.25-.34,0-.39.01-.37.32.02.4-.28.16.22-.14.63.21.67-.11-.21.3-.42.03-.72.14.03.21.2.16.37.22.08.28-.57.49-.13l-.02-.25c.08.06.18.09.31.18.16-.05.37-.48.49-.14.03-.06.37-.2.14-.37-.27-.05-.16.29-.41,0,.25.21.28-.17.36-.31l.08.12c.05-.08.22-.13.2-.29-.02.1.05.18.12.18l-.02-.23c.23-.23.23.32.49.13l-.14.25c.03-.05.22.08.33-.04-.03-.21-.07-.47-.09-.63.1-.16.17.16.22-.1l-.07.32c0,.08.29.21.49.09.1-.14.14-.5-.11-.48.1-.06.3-.04.3.13.19-.19-.14-.17-.01-.38.15.08.49.07.74.12v.42s.12-.09.12-.09c-.02.35.2.11.26.41.12-.03.18-.19.23-.32-.53-.18-.06-.72-.39-.99.27-.34.85.65.79-.16-.12-.03-.17-.42-.29-.15.23-.14-.13-.44.21-.51-.06.28.47.15.37.56-.07-.12-.21.05-.23.11.19.05.25.33.47.14.11-.15.28-.31.11-.44-.16-.17-.18.19-.26-.06.2-.28.5-.05.3-.46-.13.17-.34.02-.45-.1.04-.08.08-.15.11-.23l.08.15c.34-.2-.12-.29.16-.52l.34.09c.13.25-.46.31-.11.57.19-.17.08-.38.32-.47,0,.06-.05.12-.06.19.07-.05.56.27.56-.22.03-.22-.08-.14-.2-.25.23-.33.16-.54.29-.75.22.24.3-.34.39.08-.23,0-.56.45-.42.76.39.14-.26.2-.04.52.24-.24.5.02.73.14.08-.06.06-.2.06-.27-.15-.18-.22-.08-.41-.23.28-.26.4-.62.35-.91.17-.03.33.13.25.27.24-.38.48-.78.78-1.1-.46.04.18-.44-.19-.44-.19.15-.52.16-.6-.02.09-.1.14.09.24.08-.09-.25.44-.06.23-.37-.08.4.36.29.58.5,0-.34.18.11.31-.15,0-.35.04-.72.13-1.04.42-.26.38-.97.5-1.3.21-.13.48.09.59-.1.06-.24-.39.07-.15-.24l.05.05c-.05-.13.39-.6-.04-.82l.32.19c.05-.06-.01-.14-.04-.2.11.02.24-.03.28.1.31-.17.06-.49.09-.74l-.23.12c-.1-.45.16-.69.14-1.11l.21.03-.11-.26c.2.08.34-.14.18-.28.15.23.32.46.46.7-.15.17-.22-.23-.44-.13-.19.08-.2.46,0,.55.05-.14,0-.16-.05-.28.29-.01.25.21.42.35,0-.08.11-.18.02-.21.12.17.11.34.08.6-.08-.2-.19.07-.26-.02.24.06.29.33.15.64-.35.16.02.64-.16,1-.21-.22-.35-.46-.4-.71-.19.19-.06.25-.25.44.16.16.42.32.44.66l-.19-.04c0,.29.26.39.08.71-.29.56-.57,1.13-.81,1.53l-.18-.07c.12.21.06.43-.04.63-.12.2-.26.39-.28.59-.45.42-.59,1.2-1.05,1.24-.26.47-.54.89-.87,1.28-.3.41-.68.76-1.13,1.1l-.04-.33c-.02.28-.2-.04-.32.12.31.02-.02.39-.02.62-.53.12-.9.68-1.17,1.09l-.12-.15c-.2.53-.83.54-1.33.75-.09-.04-.26-.16-.4-.07-.14.4-.29.45-.62.81-.29.15-.83.23-1.18.23-1.02.83-2.34.8-3.57,1.22l-.11-.21c-.59.27-1.3.34-1.97.3-.67-.06-1.32-.09-1.86-.08l.15-.36c-.31-.16-.76,0-.72.27-.31-.15-.87.05-1.01-.32-.32-.15-.45.07-.74.05-.64-.29-.87-.39-1.52-.53l.14.08c.1-.05.16-.21.01-.28-.27.03-.79-.4-.74.1-.52-.53-1.6-.48-2.01-1.16-.01.14-.17.07-.28.11-.56-.29-.92-.9-1.45-1.01-.04-.11.25-.08.06-.23-.15-.05-.1.13-.29.08-.94-.45-1.39-1.5-2.02-2.13-1.25-1.05-2.13-2.55-2.8-3.96l.09-.02c-.55-.34-.12-1.26-.77-1.47.03-.14-.1-.47.09-.43-.33-.34-.11-1.17-.5-1.69,0,.06.02.08.07.14.12-.63-.29-1.11-.13-1.77.04.06.08.17.17.18.16-.25-.42-.55.02-.71-.01-.14-.23-.09-.21,0,.08-1.38-.04-2.87.19-4.33.52-.94.73.13.63-.74.1-.04-.15-.09-.06-.08-.04-.35.61-.31.47-.58-.29,0-.09-.18-.24-.25.4-.52.63-.55.67-1.07l.11.09c-.09-.68.36-1.2.24-1.84,1.61-2.83,3.9-5.22,6.8-6.68,1.45-.69,2.97-1.15,4.52-1.48,1.56-.29,3.17-.34,4.76-.1.71.45.75.47,1.59.43-.04.05-.1.06-.05.12.1-.31.57.08.71-.18,1.14.32,2.22.57,3.34,1.07-.19-.05-.38.14-.16.22l.3-.08v.09c.16.02.38-.04.28-.2.75.24,1.41.67,2.07,1.07.62.47,1.24.93,1.77,1.5,1.11,1.07,1.99,2.31,2.86,3.54.14.34.38.7.61,1.07.23.38.46.77.66,1.1.59,2.3.68,4.3.99,6.57,0,0-.81-.3-1.04-1.17Z"/>
              <path class="cls-3" d="M76.31,49.23c-.16.07-.25.31-.45.1.15-.02.31-.13.45-.1Z"/>
              <path class="cls-3" d="M73.16,54.82s-.09.05-.12.05c.02-.07-.06-.19.04-.21-.02.07.05.1.09.16Z"/>
              <path class="cls-3" d="M72.29,56.06c-.1-.1-.02-.43.07-.6l-.07.6Z"/>
              <path class="cls-3" d="M70.99,56.79c-.17,0-.19-.06-.08-.17.06.04.05.1.08.17Z"/>
              <path class="cls-3" d="M71.16,57.07c-.08.09-.18.07-.27.06.09.08.13-.24.27-.06Z"/>
              <path class="cls-3" d="M68.69,58.75c-.05.05-.11.23-.25.15.12.04.18-.34.25-.15Z"/>
              <path class="cls-3" d="M67.66,59.67s-.07,0-.1.06c-.1-.01-.08-.14-.02-.19l.12.13Z"/>
              <polygon class="cls-3" points="46.88 51.8 46.99 51.93 46.85 51.94 46.88 51.8"/>
              <path class="cls-3" d="M48.91,40.96c.03-.17.17,0,.2-.02-.07.12-.1-.14-.2.02Z"/>
              <polygon class="cls-3" points="53.15 36.3 53.11 36.33 52.99 36.08 53.15 36.3"/>
            </g>
          </g>
          <g>
            <ellipse class="cls-1" cx="60.62" cy="48.57" rx="7" ry="6.28"/>
            <g>
              <path class="cls-3" d="M68.13,48.68c-.05-.17-.24.09-.1-.11.11.02.19.06.1.11Z"/>
              <path class="cls-3" d="M67.95,48.03c-.37-.23-.43-.49-.45-.79-.05-.29-.06-.61-.39-.77-.05-.05.37-.13.23-.23-.71-.27-.79-1.06-.95-1.86l.11-.04c-.02-.16-.41-.02-.46-.15.05-.05.1-.04.15-.14-.18.13-.25-.1-.4-.02.02-.1.14-.23.16-.35l-.23.14c-.55.33-.36-.37-.8-.28.04-.04.09-.06.11-.12-.58.04-1.02-.29-1.53-.35.05-.07.13-.22.14-.32-.13.24-.29.23-.43.24.04-.27-.29.16-.39-.02l.03-.05c-.19.24-.11-.21-.29.09v-.22c-.16.36-.12-.23-.26-.06v.08c-.12.07-.12-.13-.22-.08v-.05c-.2.06-.28-.16-.32.13-.03-.25.2-.08.15-.44-.69.19-1.31.12-1.95.17-.08-.12-.13-.14-.16-.25-.06.07-.24.09-.27.25.02,0-.06-.15-.1-.16-.14-.09-.07.34-.22.23.03-.09.04-.18,0-.29-.07.25-.22.25-.33.35,0-.05.03-.09,0-.18-.08.29-.27,0-.35.2v-.18c-.26-.14.04.36-.16.3.02-.06-.01-.13-.02-.19-.06.35-.34.32-.45.49,0-.03-.02-.07-.02-.07-.14.1-.35.09-.46.29-.1-.04-.16-.39-.3-.24.16.31-.21.28.07.57-.16.02-.44.03-.46.19-.01-.15-.3-.31-.2-.41l-.2-.12c-.06-.13.12-.02,0-.15-.05.05-.14.28-.23.27.01.24.17.63.05.79-.01-.16-.28-.26-.27-.35.07.23.14.46.22.68-.04.05-.2-.2-.2-.07.07.06.08.13.11.21-.04-.01-.12.24-.38.02-.12-.07.02-.12-.11-.16-.08.09,0,.17-.08.26l-.04-.03c-.09.03-.04.27.16.33.04-.03-.17-.12-.04-.11.11.17.08.31,0,.39-.02-.06-.09-.12-.16-.19.11.28.08.45.09.65.13.1-.21-.22-.13-.19-.31.05.02.52-.33.51-.01-.04.21.1.17.08-.06.07-.27-.04-.22.06-.13-.06,0,.09,0,.17.07.07-.07-.01-.05-.07.05.14.12.54-.14.67.09.03.29.22.26.26l-.2-.08c-.13,0-.03.16-.2.12.22.17-.1-.45.05-.25-.18-.01.27.28,0,.17-.02.1.18.24-.03.28.04-.02-.28-.14-.27-.06.01.15.09.06.14.19l.07.08c.2.04-.05.11.19.1-.17,0,.07.2-.27.15l-.27-.05c0,.06.28.13.39.19-.03,0-.08.02-.12,0,.41.04-.04.14.28.22-.16.11-.02.3-.27.36.13.09.29.16.2.27-.04-.02-.05-.05-.14-.04-.12.08,0,.09.06.14-.06,0-.22.16-.35.27.14.08.35,0,.49,0-.39.16.29.2-.03.38-.06-.02-.23-.09-.31.02-.37.19.34.1.19.28l.32-.13c-.18.12.24.13-.09.22.13,0-.04.19.26.06-.18.32.36.4-.09.81.06,0,.05.11.19,0,.14-.14-.15,0-.05-.08.02.02.1-.02.15-.04-.03.1-.03.16-.3.24-.1.26.57-.15.57.08-.12.07-.15.11-.1.15l.25-.05c.02.14-.21.25-.39.39.08.03.13.11.29.02l-.17.25c.12-.19.15-.04.21-.05h-.07c-.07.09.04.11.08.13.1-.1.09-.21.09-.27.1-.04.12.02.24-.03-.18.14-.05.2-.02.25.01.08.2-.09.21-.07-.08.08.06.09-.09.17-.04.01.05-.12-.05-.07-.03.09-.18.23-.01.19.13-.03.3-.34.29-.14-.06.02-.13.08-.2.12v.17s.15-.15.15-.15c-.02.05-.04.06-.06.08.17-.13.18.07.36-.1.06.02,0,.19.03.24h-.02c-.02.15.1.14.23.07l-.03.03s.12.06.22-.02c-.01.18-.42.66-.18.51.09.05.34-.23.38-.37.07.23.41,0,.39.37.06-.06.07-.12.14-.14.19.19.57-.01.61.44-.1.06-.08.19-.12.31.12-.16,0,.21.14-.09.06-.18.09-.26.05-.36.18-.05.38.02.41.22-.02-.1.03-.14.08-.19-.09.29,0,.36.12.27l.06-.18v.19c.05-.05.13-.37.17-.18-.01.07-.02.14-.02.2.12-.12.28-.35.34-.19l.03.27s.13-.17.08-.26c.13.18.24.22.27.45.34-.54.7-.54,1.01-.53v.14c.09.12.03-.24.09-.15-.02.13.09.28.03.44.14.14.14-.24.21-.32,0-.18-.05.12-.06-.11,0-.07.18.12.16-.16.04.1.05.3.04.41l.06-.14c.14.3-.14.59,0,.97l.07-.05c.11.27-.17.35.04.42.07-.15.09-.54,0-.65.16-.1-.02-.65.15-.65.07.15-.13.06-.06.27.12.21.14-.14.23-.09-.1-.08-.08-.37-.05-.43.11.11,0,.26.12.26-.01-.16.06-.3-.05-.38-.04-.36.14.07.13-.21.1.23.02.59.18.68-.08-.23.08-.35-.09-.68.07.06.12.23.13.39.11.12.04-.48.2-.03l-.05-.24c.05.07.09.12.17.23.07-.02.08-.38.21-.03,0-.04.15-.09,0-.3-.14-.11-.03.21-.2-.1.16.25.11-.08.11-.19l.06.13c0-.06.08-.06.04-.21.01.08.06.17.1.19l-.06-.21c.06-.15.18.34.27.24l-.02.19s.13.13.16.04c-.06-.19-.13-.42-.18-.57.02-.11.13.19.09-.03l.03.26c.02.07.2.27.28.22.02-.09-.04-.39-.17-.44.04-.02.15.05.19.2.06-.11-.12-.18-.1-.33.09.1.29.22.45.34l.09.34s.04-.02.06-.03c.07.28.15.15.25.42.06.01.06-.11.06-.19-.36-.31-.21-.6-.48-.92.07-.18.67.76.44.13-.09-.07-.21-.37-.22-.21.11-.03-.2-.37,0-.31.04.19.34.26.39.54-.08-.11-.12-.03-.12.01.13.1.24.34.34.26.03-.08.1-.15-.04-.3-.15-.18-.07.09-.18-.13.05-.15.3.11.07-.24-.04.08-.22-.1-.32-.22v-.13s.09.13.09.13c.19,0-.15-.24-.03-.3l.26.18c.16.22-.22.06.08.36.08-.06-.05-.24.09-.22.01.04,0,.07.01.11.03-.01.46.37.33.03-.04-.14-.1-.12-.21-.24.08-.14-.02-.29.02-.38.23.22.13-.11.31.18-.18-.08-.29.1-.12.34.31.22-.13.05.11.35.1-.09.37.17.56.32.04-.02,0-.12-.01-.16-.16-.17-.19-.13-.36-.29.15-.07.15-.28.03-.48.12.03.29.19.26.25.07-.18.21-.32.36-.43-.37-.12.03-.21-.27-.31-.12.03-.38-.06-.49-.19.05-.03.14.09.21.12-.13-.16.33.09.1-.14.02.19.37.27.6.44-.07-.19.17.12.24,0-.08-.2-.12-.39-.11-.54.34-.03.17-.39.22-.53.17-.02.46.14.55.07.02-.11-.36-.04-.17-.14l.06.04c-.06-.07.3-.22-.15-.39l.33.14s-.03-.07-.06-.1c.11.03.23.02.29.09.27-.04.02-.22.02-.33l-.22.03c-.13-.21.09-.29.05-.48l.21.03-.12-.12c.2.05.33-.04.17-.12.16.11.33.22.48.35-.14.07-.23-.12-.44-.09-.18.02-.16.19.04.25.03-.06-.01-.07-.08-.13.29.02.26.12.44.2,0-.04.09-.08,0-.1.13.09.14.17.12.3-.1-.1-.18.01-.26-.04.24.06.31.2.2.33-.31.03.1.33-.03.49-.22-.15-.4-.3-.47-.42-.15.06-.03.11-.18.18.17.1.45.24.5.41l-.18-.06c.04.15.3.26.19.4-.19.24-.34.5-.46.69l-.17-.09c.3.32-.09.42-.03.66-.3.13-.24.61-.58.51-.21.47-.45.89-.91,1.16l-.1-.27c.05.22-.14-.09-.19,0,.21.11.08.31.12.48-.32-.05-.42.32-.52.59l-.1-.16c-.01.41-.39.27-.65.32-.06-.06-.18-.2-.24-.15,0,.34-.08.35-.21.61-.15.06-.42.06-.6,0-.44.59-1.1.44-1.68.76l-.06-.22c-.57.52-1.32.09-1.84.26l.09-.37c-.14-.14-.37.05-.37.32-.14-.14-.44.13-.48-.21-.15-.11-.23.13-.38.14-.3-.21-.41-.22-.74-.26l.07.05c.06-.07.11-.22.05-.27-.14.06-.37-.23-.42.23-.21-.37-.84-.1-.97-.59-.03.12-.12.1-.19.16-.28-.14-.41-.52-.73-.49,0-.08.18-.13.09-.21-.09,0-.09.13-.21.14-.55-.11-.65-.8-1-1.07-.74-.41-1.18-1.18-1.56-1.87l.09-.03c-.45-.09.08-.7-.49-.7.06-.09-.05-.24.13-.25-.29-.13.05-.62-.31-.84,0,.03.02.04.06.07.15-.34-.19-.56-.03-.9.04.03.07.08.16.08.17-.13-.4-.26.03-.36,0-.07-.22-.04-.21,0,.12-.69-.08-1.44.02-2.21.4-.44.72.18.52-.31.09,0-.15-.08-.07-.05-.07-.19.55-.06.37-.23-.27-.06-.11-.12-.26-.19.28-.23.52-.17.45-.47l.12.08c-.22-.43.12-.62-.12-1.07.83-1.42,1.98-2.65,3.45-3.36,1.48-.57,3.06-1.01,4.65-.65.34.4.35.41.77.31-.03.06-.05.07-.04.13.07-.3.28.01.37-.26.56.18,1.11.25,1.68.47-.1,0-.24.21-.13.23l.18-.13v.09c.07-.01.21-.12.18-.24.78.18,1.43.68,1.98,1.24.56.56.97,1.22,1.47,1.8.11.37.48.73.72,1.07.17,1.27.07,2.26.37,3.39,0,0-.8-.16-1-.54Z"/>
              <path class="cls-3" d="M68.15,48.88c-.16.03-.24.13-.44.03.14,0,.31-.05.44-.03Z"/>
              <path class="cls-3" d="M65.89,51.03s-.07,0-.1-.01c0-.03-.09-.12-.01-.1,0,.03.06.06.11.11Z"/>
              <path class="cls-3" d="M65.47,51.47c-.1-.09-.11-.25-.09-.32.03.11.07.22.09.32Z"/>
              <path class="cls-3" d="M64.7,51.5c-.11-.05-.15-.1-.11-.14.06.05.07.09.11.14Z"/>
              <path class="cls-3" d="M64.89,51.75s-.1,0-.17-.05c.08.08.02-.12.17.05Z"/>
              <path class="cls-3" d="M63.76,52.16s0,.15-.1.04c.08.07.01-.22.1-.04Z"/>
              <path class="cls-3" d="M63.41,52.6s-.04-.02-.04.03c-.06-.04-.07-.15-.06-.17l.09.14Z"/>
              <polygon class="cls-3" points="54.83 49.85 54.91 49.89 54.78 49.91 54.83 49.85"/>
              <path class="cls-3" d="M55.7,45.58c-.03-.1.13.05.15.05-.02.05-.12-.12-.15-.05Z"/>
              <polygon class="cls-3" points="57.34 43.4 57.32 43.42 57.2 43.17 57.34 43.4"/>
            </g>
          </g>
        </g>
        <g>
          <path class="cls-1" d="M56.08,77.84h-17.16c-15.11,0-27.36-12.25-27.36-27.36h0s71.89,0,71.89,0h0c0,15.11-12.25,27.36-27.36,27.36Z"/>
          <g>
            <path class="cls-3" d="M55.66,78.35c.64-.06-.35-.24.42-.11-.09.11-.21.19-.42.11Z"/>
            <path class="cls-3" d="M58.24,78.08c.51-.18,1.05-.35,1.62-.49.57-.13,1.17-.21,1.78-.29.6-.14,1.2-.27,1.79-.42.29-.08.58-.16.86-.27.27-.13.53-.26.78-.41.24-.12.06.39.6.1.96-.59,2.18-1.28,3.53-1.87.64-.35,1.32-.69,1.99-1,.67-.32,1.28-.71,1.9-1.02l-.06.19c.47-.25.75-.91,1.17-1.25.05.05-.06.2.1.19-.04-.26.67-.74.72-1.02.22-.08.32.06.6-.06l.06-.39c.08-.53.44-.91.85-1.29.41-.39.9-.77,1.11-1.35.01.08-.02.2.08.16.41-.88,1.04-1.73,1.53-2.7.26-.47.53-.95.8-1.42.21-.5.43-.99.63-1.48.04.11.16.25.3.18-.2-.21.05-.81.2-1.35.34-.14.1-.99.46-1.55l.04.07c-.12-.55.43-.62.19-1.1l.28-.24c-.32-.31.37-.63.28-1.07h-.08c0-.39.24-.54.26-.89l.05-.02c.04-.83.31-1.26.01-1.29.28-.25-.01.8.4.41.02-.69.09-1.37.12-2.05,0-.69,0-1.37.03-2.06l.02-.51v-.02s0,0,0,0h0c-.2-.2.27.26.22.21h0s-.03,0-.03,0h-.06s-.13,0-.13,0h-.26s-1.04,0-1.04,0c-.69,0-1.38,0-2.06,0-.31-.12-.51-.16-.58-.27-.27.06-1.03.05-1.28.21.09,0-.18-.15-.32-.17-.5-.11-.54.33-1.09.19.22-.08.29-.18.22-.29-.47.23-1.09.2-1.64.27.09-.05.22-.08.2-.17-.6.26-1.1-.06-1.63.11l.2-.17c-.85-.21-.25.36-.99.24.18-.05.11-.12.15-.19-.69.31-1.8.21-2.48.32.04-.02.03-.07.03-.07-.75.04-1.53-.06-2.35.08-.3-.08.1-.42-.69-.36.03.35-1.34.14-.88.54-.67-.06-1.74-.19-2.19-.07.3-.13-.33-.42.23-.45l-.42-.21c.06-.14.44.05.3-.13-.28.01-1.1.15-1.35.09-.52.21-1,.61-1.84.65.4-.14-.23-.38.04-.44l-1.18.66c-.28.02-.06-.27-.47-.18.02.09-.16.15-.28.22-.11-.04-1.17.09-1.29-.25-.12-.13.46-.07.15-.19-.52,0-.54.12-1.06.13v-.05c-.35-.05-1.02.15-.65.33.24.01-.09-.21.26-.11-.24.2-.84.25-1.36.26.18-.06.16-.15.23-.24-.7.27-1.43.35-2.21.47-.01.16.29-.3.4-.21-1-.22-2.06.32-2.89,0,.14-.03.07.23.06.18-.48-.02-.46-.26-.77-.17-.03-.14-.39.04-.71.09-.17.1-.08-.07.2-.08-.45.12-2.24.33-3.28.13.02.09-.64.34-.88.33l.09-.21c-.22-.13-.8.02-.84-.16-.51.26,1.96-.22,1.27-.02-.18-.18-.96.34-.81.05-.48,0-.94.25-1.4.05.13.03.39-.3,0-.28-.68.04-.19.1-.75.17l-.35.09c-.02.21-.61-.03-.36.2-.08-.17-.99.11-.92-.24l.09-.27c-.29.02-.48.29-.71.41-.04-.03-.12-.08-.1-.12-.05.42-.7-.03-1.05.29-.62-.14-1.57-.01-1.86-.27-.47.13-.91.28-1.45.19.11-.04.26-.05.29-.14-.34-.12-.42-.01-.73.05.07-.06-.68-.24-1.06-.39-.47.12-.31.35-.36.49-.43-.41-1.33.26-1.87-.11.16-.06.69-.2.3-.3-.43-.41-.87.3-1.56.11l.17.34c-.31-.21-1.02.2-.95-.15-.23.12-.82-.11-.74.22-1.14-.28-2.78.17-3.48-.43-.16.06-.57,0-.49.17.27.19.38-.13.48,0-.15.01-.18.1-.19.15-.36-.08-.63-.1-.3-.38-.79-.21-.81.56-1.82.43.05-.14-.03-.19-.32-.17l-.56.24c-.65-.05-.37-.31-.38-.55-.35.04-.77.03-.93.2l-.42-.29c.31.21-.29.14-.45.2l.16-.06c-.06-.1-.47-.04-.67,0,.05.14.46.2.68.24-.18.1-.45.08-.69.2.08-.23-.57-.16-.84-.19-.32-.05-.36.21-.45.2,0-.12-.52-.02-.27-.19.11-.04.25.12.43.01-.21-.09-.18-.29-.62-.14-.33.11.08.45-.54.31.16-.06.19-.15.32-.23l-.58-.12-.02.21c-.08-.05-.02-.07-.06-.1-.17.22-.88.07-1.02.31-.29.02-.62-.14-.89-.17l.05-.02c-.34-.12-.79-.04-1.08.1l.02-.05c-.19-.02-.63.02-.86.14-.47-.16-.16-.79-.68-.52-.48,0-.75.38-.56.51-.43-.07-.89-.02-1.34,0h-.17s-.02,0-.02,0h0c-.27.27,2.33-2.33,1.23-1.23h0s0,0,0,0h0s0,.01,0,.01v.04s0,.08,0,.08c0,.11.01.21,0,.31,0,.21-.03.41-.1.6.09.11.14.04.2.28-.08,1.22.5,2.48.23,3.5-.14-.33-.21.01-.32.04.23.25-.14.39.19.43.18-.07.27-.06.3-.41.2.69.53,1.72.44,2.16.03-.22.13-.08.22.05-.29.03-.24.57.01.91h.19s-.09.3-.09.3c.11.13.42.04.39.46-.06.04-.12.09-.14.18.29.34.7.79.74,1.26l-.08.44c.11.16.4.38.32.05.19.75.38,1.21.28,1.54,1.12.91,2.13,2.48,3.05,3.7l-.13.05c.14.41.31.02.41.31-.18-.03-.03.43-.35.27.27.55.69.42.99.66.17-.08-.29-.15-.07-.25.09,0,.44.69.7.58.02.18-.2.23-.34.25l.34.18c.07.55-1.09-.36-1.07.25l.26.23c.02.44-.85-.46-.34.25.35.19.85.15.71-.18.57.52.7-.2,1.28.37.05.27-.51-.41-.55-.14.13.42.66.43.86.72-.21-.33.21-.32.42-.19.22.37-.37.01.04.43.18-.05.64.21.37-.18.38-.13.38.48.81.44,0,.31-.84.09-.41.57.07-.25.83.21.78-.27.15.2.06.37-.17.38.2.34.95.16.77.62l.24-.13c.04.13.13.28.21.49.27.17,1.05.24.83.55.11.02.71.41.61.04-.3-.36-.54-.11-.56-.53.12.4.57.3.83.35l-.04.15c.16.03.44.24.6.15-.14.01-.13.13-.05.22l.25-.12c.6.17-.05.4.52.61l-.49-.05c.11.01.2.28.5.35.19-.13.49-.25.64-.35.34.07.04.27.42.23l-.49.03c-.09.03.13.43.54.62.29.08.83-.05.44-.31.21.08.47.3.24.37.51.11.02-.22.48-.19.12.19.59.56.85.86l-.55.15.3.11c-.48.11.13.27-.18.45.19.12.47.12.69.12-.46-.63.86-.36.8-.84.84.1.25,1.1,1.28.7-.12-.14.36-.34-.18-.36.5.18.44-.31,1,0-.48.05.39.53-.3.61.07-.12-.34-.2-.45-.18.18.21-.14.39.4.53.33.07.8.09.77-.12.03-.23-.51-.05-.25-.25.67.02.72.39,1.06.02-.42-.03-.48-.29-.44-.44l.49-.03-.12.14c.74.23.27-.25.99-.09l.31.36c-.21.24-1.05-.28-.98.17.48.09.67-.1,1.11.08-.11.02-.24.01-.35.03.17.04.29.66,1.02.34.37-.11.11-.15.13-.31.79-.01,1.03-.16,1.53-.16-.12.32.91.06.33.37-.26-.2-1.38-.24-1.68.05.26.39-.62-.08-.82.29.64.04.58.41.67.66.18.03.36-.07.47-.1.09-.22-.15-.23-.15-.47.72.09,1.4.02,1.81-.21.25.11.17.34-.12.36.88-.07,1.82-.04,2.66.03-.54-.37.93-.09.56-.4-.45-.08-.83-.35-.59-.52.28.02,0,.16.11.24.36-.2.56.33.91,0-.8.12-.16.45-.3.75.58-.16-.02.21.55.21.58-.16,1.29-.29,1.93-.35.81.28,2.05,0,2.77,0,.38.15.12.48.53.54.48,0-.36-.36.36-.21l-.07.07c.21-.08,1.3.22,1.52-.25l-.22.36c.13.03.26-.05.37-.09,0,.12.16.22-.06.3.44.25.92-.04,1.4-.05l-.31-.21c.82-.17,1.36.04,2.16-.03l-.02.21.47-.12c-.11.2.32.33.57.16l-1.22.51c-.34-.12.37-.25.16-.45-.18-.18-.91-.12-1.03.08.28.02.29-.02.51-.1.09.29-.33.28-.54.47.15-.01.36.08.39-.02-.29.14-.58.16-1.06.17.33-.11-.18-.18-.05-.26-.04.25-.5.33-1.09.26-.42-.29-1.11.19-1.8.11.28-.26.63-.46,1.05-.57-.43-.13-.48,0-.91-.12-.21.19-.36.49-.92.6l-.03-.19c-.51.1-.51.38-1.16.32-1.11-.09-2.26-.09-3.11-.12l-.03-.19c-.47.41-1.57.15-2.21.33-1.09-.19-2.34.21-2.92-.17-.97,0-1.9.1-2.82,0-.92-.12-1.87-.17-2.85-.46l.39-.18c-.39.11-.19-.21-.54-.26.34.32-.54.16-.83.26-.41-.23-.92-.32-1.41-.44-.49-.12-.99-.19-1.41-.24l.04-.19c-.44.02-.88-.1-1.29-.34-.41-.24-.82-.54-1.26-.79-.07-.12-.15-.36-.43-.47-.65.05-.86-.16-1.66-.4-.5-.32-1.31-.85-1.7-1.34-1.02-.49-1.97-1.12-2.8-1.91-.42-.39-.88-.74-1.28-1.16-.4-.41-.82-.82-1.26-1.21l.06-.27c-.49-.32-.87-.79-1.27-1.25-.38-.48-.79-.95-1.09-1.49-.62-1.05-1.23-2.06-1.72-2.9h.42c-.16-.59-.68-1.19-.86-.95-.18-.58-.77-1.33-.61-1.81-.15-.61-.43-.65-.65-1.13-.25-1.23-.34-1.68-.72-2.81l.05.29c.11.11.27.08.23-.21-.25-.39-.18-1.6-.57-1.08.03-.65-.13-1.36-.28-2.08-.1-.72-.16-1.46-.01-2.07-.12.11-.16-.2-.25-.33v-.42s-.01-.21-.01-.21v-.03s0-.01,0-.01h0c.72,0-1.61,0,1.61,0,0-3.21,0-.89,0-1.61h0s.05,0,.05,0h.1c.26.03.53.05.78.07.51.04,1,.05,1.42-.06.17.06-.27.21.16.22.25-.05,0-.16.32-.23,1.7-.23,3.45.24,4.99.18,2.75-.24,5.62-.12,8.26-.16l-.03.09c.88-.35,2.07.36,2.77-.17.21.09.8.04.64.22.7-.25,1.97.23,2.98-.08-.09,0-.15,0-.25.05,1.03.2,1.93-.07,3.01.11-.11.04-.31.07-.34.16.42.17.99-.39,1.22.05.24,0,.17-.22.02-.21,2.37.17,4.9-.11,7.37-.21,1.77.26.11.74,1.5.41.11.08.08-.17.1-.08.54-.12.84.49,1.22.26-.15-.27.25-.15.26-.32,1.08.18,1.3.42,2.15.21l-.06.14c1-.4,2.16-.19,3-.65,5.52-.08,10.8-.34,16.18-.39,2.66.04,5.29.01,7.93,0,1.32,0,2.64,0,3.97.01.66.01,1.33.03,2,.04h.13s.02,0,.02,0h0s0,0,0,0c-1.71-1.72,2.34,2.34,1.92,1.92v.03s0,.07,0,.07l-.02.27-.04.54-.1,1.07c-.42,1.32-.5,1.39-.55,2.88-.05-.07-.05-.16-.12-.07.29.12-.12,1.03.12,1.22-.3,1.02-.51,2.03-.82,3.01-.17.49-.34.98-.51,1.47-.17.5-.35,1-.6,1.49.12-.33-.04-.58-.19-.21v.47s-.12.03-.12.03c-.08.27-.08.61.14.39-.49,1.3-1.24,2.47-1.97,3.64-.39.57-.83,1.09-1.26,1.63-.22.27-.42.54-.65.79l-.72.73c-1.86,2-4.06,3.59-6.28,5.08-.58.27-1.23.69-1.91,1.08-.69.37-1.4.75-2.01,1.08-3.95,1.26-7.57,1.67-11.67,1.99,0,0,.54-.82,2.16-1.08Z"/>
            <path class="cls-3" d="M54.89,78.38c-.14-.15-.59-.24-.23-.44.04.14.28.3.23.44Z"/>
            <path class="cls-3" d="M42.89,76.8s-.17-.06-.21-.09c.15-.01.29-.14.4-.06-.15.01-.13.08-.2.15Z"/>
            <path class="cls-3" d="M39.82,76.71c.05-.14.7-.24,1.09-.26l-1.09.26Z"/>
            <path class="cls-3" d="M37.09,76.05c-.22-.13-.15-.19.16-.17.02.07-.09.1-.16.17Z"/>
            <path class="cls-3" d="M36.87,76.35c-.23,0-.33-.09-.43-.18,0,.12.53-.05.43.18Z"/>
            <path class="cls-3" d="M31.22,74.88c-.13-.04-.45-.04-.53-.22.1.15.69.07.53.22Z"/>
            <path class="cls-3" d="M28.62,74.12c-.08-.05-.1-.09-.21-.09-.12-.13.07-.14.2-.1v.19Z"/>
            <polygon class="cls-3" points="32.32 51.5 32.01 51.57 32.05 51.44 32.32 51.5"/>
            <path class="cls-3" d="M55.32,51.5c.31-.09.22.13.27.15-.28.01.1-.17-.27-.15Z"/>
            <polygon class="cls-3" points="67.73 50.82 67.63 50.82 67.66 50.54 67.73 50.82"/>
          </g>
        </g>
      </g>
    </g>
  </g>
</svg>