<?xml version="1.0" encoding="UTF-8"?>
<svg id="Layer_3" data-name="Layer 3" xmlns="http://www.w3.org/2000/svg" viewBox="0 0 126.38 116.43">
  <defs>
    <style>
      .cls-1 {
        fill: #ff3a00;
      }
    </style>
  </defs>
  <path class="cls-1" d="M92.74,44.5c-.59-8.29-6.4-14.98-13.57-15.63-8.41-.76-15.48,6.62-15.96,16.05l-.03.02c-.47-9.44-7.55-16.83-15.96-16.07-7.16.64-12.98,7.34-13.57,15.63-.37,5.25,1.31,10.06,4.21,13.47h0s25.34,29.65,25.34,29.65l25.34-29.65h0c2.9-3.41,4.58-8.22,4.21-13.47Z"/>
  <g>
    <path class="cls-1" d="M92.15,44.07c.15.71.21-.41.17.46-.13-.09-.23-.22-.17-.46Z"/>
    <path class="cls-1" d="M92.39,46.94c.32,1.19.13,2.6-.26,3.95-.38,1.37-.98,2.66-1.37,3.94-.12.29-.33-.26-.57.39-.26.9-.81,1.89-1.58,2.81l-.03-.15h0s.11.06.11.06l-.08.1c-1.35,1.6-3.06,3.22-4.57,4.53l.03-.22c-.45.39-.62,1.19-1.07,1.63-.06-.05.05-.22-.13-.18.08.27-.65.93-.69,1.24-.23.13-.36-.01-.64.16l-.03.45c-.16,1.17-1.6,1.8-2.23,3.05,0-.09.05-.22-.07-.18-1.12,1.91-2.94,3.93-4.42,5.87,0-.14-.08-.32-.26-.28.14.28-.3.89-.68,1.42-.41.03-.52,1.02-1.14,1.5v-.09c-.14.63-.69.52-.71,1.11l-.41.12c.15.46-.69.48-.84.97l.07.04c-.21.4-.52.44-.73.8h-.06c-.54.8-1.07,1.07-.82,1.26-.41.09.51-.78-.11-.62-.86,1.25-1.8,2.46-2.78,3.64l-1.5,1.78c-.55.65-1.11,1.29-1.65,1.93l-.29-.34c-.24-.48-.38-.7-.39-.9-.22-.16-.78-.83-1.11-.96.07.08,0-.26-.11-.4-.28-.52-.68-.25-.98-.82.23.14.36.13.4,0-.54-.25-.98-.82-1.46-1.26.11.04.23.14.29.05-.67-.35-.78-1.01-1.32-1.36l.29.05c-.47-.89-.48.03-.94-.7.18.12.19.02.27,0-.77-.39-1.52-1.43-2.12-1.96.05.02.08-.02.08-.02-.59-.63-1.1-1.38-1.83-2.01-.16-.32.42-.21-.23-.86-.26.27-1.12-1.08-1.09-.4-.46-.63-1.16-1.66-1.59-1.98.34.17.1-.58.54-.11l-.15-.52c.16-.04.29.42.33.17-.22-.24-.95-.86-1.09-1.12-.56-.31-1.25-.45-1.92-1.17.41.25.14-.46.39-.27l-1.43-.57c-.22-.24.18-.24-.2-.54-.06.08-.24-.03-.39-.09-.05-.12-.95-.97-.76-1.31.02-.2.4.35.27,0-.39-.45-.5-.39-.9-.84l.03-.04c-.22-.34-.88-.79-.75-.33.17.22.1-.22.28.16-.34-.07-.84-.57-1.23-1.02.18.12.24.03.37.03-.74-.43-1.37-1.02-2.04-1.62-.14.1.46.05.47.21-.57-1.03-1.81-1.59-2.16-2.55.13.1-.13.22-.1.19-.34-.44-.14-.58-.44-.8.09-.12-.33-.32-.61-.57-.21-.08,0-.12.21.12-.43-.31-1.96-1.74-2.57-2.8-.02.03-.1,0-.21-.05l-.69-.33,1.02-1.35h0s-.34,1.68-.34,1.68c-.24-.12-.61-.4-.74-.56l.25-.05c-.06-.29-.6-.78-.47-.93-.29-.18.1.28.49.7.41.41.81.78.46.52,0-.28-1.01-.7-.65-.75-.35-.46-.88-.8-.99-1.39.05.16.51.24.26-.15-.44-.69-.22-.14-.61-.69l-.28-.33c-.22.08-.3-.68-.39-.29.12-.17-.61-1.07-.22-1.13h.31c-.15-.32-.51-.43-.72-.65.01-.05.03-.16.08-.16-.44.09-.25-.82-.69-1.13-.07-.77-.44-1.88-.22-2.28-.22-.54-.45-1.06-.41-1.73.05.13.08.31.18.33.09-.42-.04-.51-.13-.89.07.08.21-.84.39-1.28-.13-.56-.37-.38-.52-.44.24-.26.17-.66.13-1.09-.03-.43-.06-.88.17-1.18.04.21.12.85.28.4.47-.45-.18-1.08.19-1.88l-.4.13c.27-.33.08-1.28.42-1.1-.05-.31.38-.93.02-.94.7-1.23,1.11-3.28,2.13-3.7.04-.21.35-.6.15-.61-.35.17-.11.47-.29.51.08-.16.01-.25-.02-.29.29-.34.52-.59.53-.1.72-.66.02-1.18.92-2.07.08.14.18.1.39-.2.07-.24.18-.45.28-.68.6-.55.55-.1.75.06.25-.35.65-.67.67-.94l.59-.1c-.42.08.15-.35.29-.51l-.12.17c.13.04.48-.3.66-.48-.14-.09-.58.16-.83.29.11-.22.4-.4.56-.68.06.25.66-.28.98-.42.36-.16.27-.42.37-.47.07.1.57-.3.39,0-.09.1-.32.05-.46.26.28-.05.34.14.74-.24.31-.28-.32-.38.46-.58-.16.14-.15.25-.25.39l.7-.2-.06-.22c.11,0,.06.06.11.06.1-.31,1.01-.45,1.08-.76.34-.16.8-.06,1.14-.13l-.06.04c.44,0,.97-.18,1.32-.37v.05c.22,0,.77-.15,1.05-.27.61.15.24.83.87.53.58-.04.94-.38.7-.55.54.13,1.12.1,1.7.16.56.09,1.13.18,1.57.49.17-.04.09-.12.42-.07,1.51.5,3.26,1.11,4.07,2.19-.42-.2-.15.17-.22.27.41.06.23.43.54.24.09-.18.18-.24-.13-.57.86.44,1.92,1.45,2.17,1.94-.13-.24.08-.16.25-.04-.27.17.15.72.58,1.03l.2-.07.07.39c.17.12.45-.07.62.46-.04.07-.09.14-.08.25.47.32,1.1.84,1.26,1.44v.55c.15.2.48.51.36.07.28.99.56,1.56.43,1.96,1.25,1.33,1.89,3.86,1.99,5.87l-.15-.05c-.09.55.28.26.21.64-.16-.16-.27.42-.47.02,0,.07-.01.13-.01.18l-1.69-.97h.03s-.63.95-.63.95c.09-.58-.22-.83-.23-1.28-.18-.1.08.41-.15.29-.06-.1.24-1.05,0-1.2.15-.17.33,0,.43.13l-.05-.48c.43-.49.38,1.36.89.84l.03-.41c.37-.33.15,1.11.43.12-.06-.45-.41-.91-.61-.54.11-.94-.64-.58-.34-1.59.24-.24-.18.82.12.68.33-.42.13-.98.32-1.38-.24.44-.41-.04-.37-.37.28-.48.16.41.41-.3-.12-.17.02-.88-.31-.34-.26-.39.38-.72.26-1.22.33-.13.29.97.71.24-.31.02.11-1.08-.43-.84.21-.27.41-.21.45.07.35-.35.08-1.25.61-1.14l-.15-.27c.15-.09.32-.24.56-.37.2-.36.41-1.34.73-1.07.04-.13.62-.88.18-.76-.49.38-.24.67-.75.73.5-.17.48-.72.61-1.07l.16.05c.07-.21.41-.55.37-.76-.04.18.1.18.23.08l-.03-.32c.49-.72.43.12.94-.52-.1.19-.19.39-.29.58.07-.12.39-.2.62-.5-.04-.25,0-.63-.02-.85.29-.39.32.04.51-.44l-.27.6c-.01.12.52-.03.99-.41.26-.29.57-.91,0-.62.25-.19.68-.35.57-.08.52-.48-.21-.13.21-.61.29-.03,1.08-.25,1.57-.31l-.35.63.35-.21c-.31.52.33.06.23.47.25-.1.48-.35.69-.52-.96-.09.54-.98.16-1.29.51-.31.79-.1,1.03.02.25.13.45.19.92-.33-.22-.05.23-.55-.43-.2.7-.18.35-.6,1.26-.6-.58.31.76.3-.07.74.03-.15-.52-.02-.64.08.32.08.06.42.75.28.41-.13.99-.26.87-.47-.06-.25-.66.16-.42-.15.86-.29,1.06.16,1.38-.34-.56.08-.74-.16-.75-.33l.67-.17-.12.18c1.09.04.3-.37,1.36-.34l.49.35c-.13.14-.5.09-.83.08-.32.02-.59.05-.48.28.66-.05.88-.24,1.51-.11-.14.04-.33.04-.47.08.25.03.45.62,1.39.34.49-.07.15-.15.18-.32.53.05.89.04,1.2.04.31.02.57.03.91.11-.22.28,1.17.36.34.48-.14-.14-.59-.3-1.06-.4-.47-.1-.97-.05-1.17.08.33.45-.81-.19-1.07.25.83.03.73.49.83.74.21.05.44-.03.57-.05.13-.23-.15-.27-.13-.52.45.08.89.17,1.29.22.4.05.77.03,1.04.02.26.22.08.42-.26.32,1.05.28,2.12.77,2.94,1.38-.37-.69,1.03.52.82,0-.43-.37-.71-.87-.35-.86.3.21-.1.14-.01.3.51.06.42.65.96.63-.91-.48-.43.29-.76.43.67.27-.15.17.4.57.67.25,1.4.73,2.02,1.22.48.9,1.66,1.84,2.14,2.59.12.47-.34.41-.13.84.32.47.1-.56.41.24l-.1-.03c.19.19.55,1.44,1.08,1.47l-.45-.07c.03.16.17.25.26.35-.11.06-.14.27-.32.08-.02.57.49.95.67,1.48l.09-.42c.52.84.48,1.54.8,2.41l-.22.03c.1.16.16.34.24.51-.23-.08-.28.43-.05.68-.28-.43-.51-.86-.82-1.26.02-.41.37.34.52.06.13-.25-.16-1.06-.4-1.13.06.32.11.32.26.54-.27.19-.39-.29-.65-.46.06.16.03.41.13.42-.22-.27-.34-.58-.54-1.08.24.3.11-.25.24-.15-.28.05-.49-.41-.72-1.04.04-.28-.13-.55-.35-.83-.24-.27-.52-.55-.67-.91.39.13.78.38,1.11.75-.11-.5-.27-.48-.4-.99-.29-.11-.64-.1-1.1-.55l.15-.14c-.41-.42-.63-.26-1.04-.85-.66-1.05-1.61-1.91-2.31-2.54l.1-.18c-.35.01-.72-.21-1.09-.48-.39-.23-.8-.49-1.14-.59-.98-.73-2.4-.86-2.91-1.29-2.08-.35-3.92-.18-6,.24l.29-.36c-.33.3-.29-.13-.66.02.48.09-.42.46-.61.72-.99.07-2,.9-2.58,1.51l-.14-.15c-.5.78-1.47,1.13-2.3,1.84-.16.02-.42.04-.62.3-.15.66-.39.85-.71,1.67-.39.47-.95,1.3-1.39,1.79-.68,2.26-1.63,4.47-1.57,6.92l-.25.15c.02.18.04.35.05.54l.03.56-.72.51-.03.02-1.46,1.03-.4-2.1c-.42-2.18-.73-4.77-1.72-6.34h.46c-.16-.61-.72-1.24-.91-.96-.2-.6-.92-1.23-.89-1.72-.32-.55-.6-.52-.97-.88-.7-1.04-1.07-1.35-2.01-2.04l.21.19c.15.02.28-.11.06-.32-.42-.17-1.23-1.07-1.16-.4-.45-.43-1.08-.8-1.75-1.02-.65-.29-1.33-.42-1.84-.81.06.15-.24.11-.38.18-.51-.1-1.03-.3-1.54-.35-.26-.04-.51-.08-.75-.09-.24.02-.47.05-.68.11-.17-.06.27-.23-.17-.23-.26.06,0,.17-.31.26-1.64.34-3.46.44-4.85,1.3-2.35,1.58-4.41,3.84-5.62,6.34l-.07-.07c-.06.97-1.23,1.88-.9,2.78-.15.18-.27.79-.4.59.05.76-.67,2.02-.43,3.13.02-.1,0-.15-.02-.27-.31,1.08-.02,2.06-.11,3.22-.05-.11-.11-.32-.2-.35-.15.47.5,1.02.08,1.32.04.26.26.15.22,0,.16,2.56,1.43,5.1,2.97,7.14.86,1.63-.54.61.57,1.5l.96.77-1.34,1.12h0s.38-1.89.38-1.89c.01,0,.03.02.05.03.02.16.2-.04.14.04.51.39.23,1.08.7,1.25.1-.32.31.11.45,0,.67,1.07.63,1.43,1.44,2.04l-.16.04c1.08.6,1.77,1.77,2.79,2.19,4.21,4.79,8.4,9.26,12.49,13.96,1.34,1.61,2.69,3.19,4.05,4.76l2.04,2.36.41.47.03.04.03-.02h.02s0,0,.03-.03l.25-.28c.66-.73,1.33-1.46,2-2.2,1.26-.85,1.32-.94,2.24-2.27,0,.09-.05.18.07.14-.2-.27.71-.88.57-1.2,1.55-1.72,2.86-3.39,4.4-5.2-.22.31-.14.63.14.27l.14-.49h.12c.16-.26.26-.62-.03-.45,3.66-4.72,7.98-8.76,11.71-13.25.71-.68,1.51-1.67,2.25-2.61l.55,2.82h0s-1.96-.91-1.96-.91l1.41-1.91c.26-.36.51-.71.72-1.04,2.65-2.98,4.05-6.92,3.47-11.14,0,0,.22.12.47.47.25.35.54.95.59,1.87Z"/>
    <path class="cls-1" d="M92.02,43.21c.16-.18.13-.69.43-.33-.14.07-.28.36-.43.33Z"/>
    <path class="cls-1" d="M86.47,30.53s-.13-.18-.16-.23c.16.1.38.09.45.25-.16-.1-.18-.02-.29-.02Z"/>
    <path class="cls-1" d="M83.16,28.59c.11-.14.92.1,1.38.31-.47-.11-.9-.26-1.38-.31Z"/>
    <path class="cls-1" d="M79.73,27.12c-.31-.17-.22-.22.23-.16.02.08-.13.1-.23.16Z"/>
    <path class="cls-1" d="M79.43,27.41c-.3-.03-.45-.11-.6-.2,0,.12.72-.05.6.2Z"/>
    <path class="cls-1" d="M71.49,28.42c-.17.1-.51.37-.73.33.22-.02.78-.58.73-.33Z"/>
    <path class="cls-1" d="M68.44,30.61c-.1.07-.16.07-.24.2-.2.1-.11-.15.03-.27l.2.07Z"/>
    <polygon class="cls-1" points="32.81 42.4 32.81 42.01 32.94 42.09 32.81 42.4"/>
    <path class="cls-1" d="M43.66,66.44c.3.21.06.28.08.34-.22-.24.21-.03-.08-.34Z"/>
    <polygon class="cls-1" points="53.54 76.87 53.46 76.79 53.71 76.63 53.54 76.87"/>
  </g>
</svg>