<?xml version="1.0" encoding="UTF-8"?>
<svg id="Layer_3" data-name="Layer 3" xmlns="http://www.w3.org/2000/svg" viewBox="0 0 300 300">
  <defs>
    <style>
      .cls-1 {
        fill: #212020;
      }

      .cls-2 {
        fill: #202020;
      }

      .cls-3 {
        fill: #212121;
      }

      .cls-4 {
        fill: #653917;
      }
    </style>
  </defs>
  <g>
    <path class="cls-4" d="M162.92,101.94s-19.06-13.49-25.99-11.78c-10.43,2.58-18.53,26.59-26.36,33.94-2.32,2.17-9.34,2.86-11.66,5.02-6.83,6.33-13.56,34.7-13.56,34.7,0,0-28.65-31.05-41.82-33.06-4.79-.73-17.65,2.13-18.07,6.95-1.56,18.05,38.74,39.82,55.58,46.51,13.93,5.53,55.49,16.94,60.75,18.38.36.1.73.19,1.1.26h0c.37.08.74.14,1.12.19,5.4.74,48.11,6.53,63.09,6.91,18.11.45,63.73-3.77,69.37-20.99,1.51-4.6-9.21-12.27-13.9-13.48-12.91-3.32-51.43,14.01-51.43,14.01,0,0,4.94-28.74,1.13-37.24-1.3-2.9-7.48-6.28-8.76-9.19-4.32-9.83-2.36-35.09-10.94-41.55-5.7-4.29-28.52.65-28.52.65l-1.1-.23Z"/>
    <g>
      <path class="cls-3" d="M160.51,102.62c2.14,1.18-.56-1.49,1.54.56-.5.16-1.07.15-1.54-.56Z"/>
      <path class="cls-3" d="M171.23,102.22c3.71-1.92,8.37-2.51,13.08-2.34,2.34.11,4.76.35,6.88,1.15,2.12.88,3.57,2.76,4.98,4.52.53.89-1.4.4-.21,2.32,1.25,1.73,2.18,4.03,2.85,6.56.67,2.54,1.05,5.32,1.29,8.16.49,5.7.25,11.6.69,16.99l-.56-.54c.09,1.04.63,2.11,1.29,3.14.16.26.33.51.5.77.19.28.35.57.55.81.36.52.78.98,1.12,1.46-.19.2-.82-.36-.74.32.54.02,1.32.71,2.12,1.35.81.64,1.63,1.27,2.17,1.32.41.78-.06,1.24.48,2.19l1.49.05c.97.13,1.79.55,2.43,1.27.17.17.28.39.41.6.1.22.17.46.25.7.13.49.33.97.36,1.51.06.53.11,1.07.17,1.62.05.54.04,1.11.09,1.66.12,1.11.19,2.24.54,3.35-.23-.21-.42-.65-.62-.28.8,3.57.9,7.71.72,11.91-.04,1.05-.11,2.11-.18,3.17-.07,1-.15,1.99-.22,2.98-.15,1.85-.3,3.69-.44,5.47-.34.08-.98.34-1.52,1.25.51-.29.77-.01.9.49.13.5.14,1.23.11,1.94.14-.03.4-.2.58-.29-.2.63.92-.11,2.07-.91,1.18-.82,2.32-1.67,3.17-1.71l-.26.36c.96-.97,1.37-.98,1.87-1.04.47-.05,1.02-.16,1.52-1.06.31.17.67.32,1.06.46.09-1.6,2.72-.25,3.91-1.48l-.15-.26c1.26-.85,2.24-.43,3.44-1.13l.18.12c2.9-1.44,4.93-1.26,4.5-2.31,1.35.5-2.81,1.39-.72,2.08,4.79-2.24,9.85-4.06,15.1-5.31,2.63-.62,5.3-1.1,8.03-1.3,1.37-.07,2.74-.13,4.14.03.69.04,1.39.2,2.09.34.71.18,1.37.44,2,.71.96.92,1.54,1.43,1.57,1.93,1.05.28,3.47,1.92,4.58,2.09-.3-.2.2.88.58,1.28.6.78,1.18.9,1.8,1.07.61.18,1.24.37,1.81,1.43-.84-.52-1.29-.44-1.41.04,1.8.68,3.58,3.01,3.58,5.34-.14-.37-.29-.9-.64-.79.19.36.27.74.24,1.1-.03.36-.17.69-.28,1.02-.56,1.47-1.72,2.37-2.24,3.74-.01-.35-.03-.69-.05-1.02-.63.54-.95.86-1.09,1.11-.13.26-.07.47,0,.67.14.38.39.85-.89,1.64.39-.62.03-.64-.06-.92-.3.65-.73,1.35-1.33,1.94-.29.3-.61.61-.93.9-.34.27-.7.54-1.06.8-1.44,1.05-3.02,1.86-4.16,2.63.11-.15,0-.3,0-.3-2.6,1.41-5.57,2.15-8.47,3.62-1.2.06-.12-1.61-2.97-.53.48,1.27-4.89,1.86-2.76,2.85-2.63.45-6.8.82-8.44,1.56,1.07-.71-1.54-1.35.57-1.86l-1.75-.48c.14-.58,1.68-.13,1.05-.7-1.04.26-4.06,1.3-5.05,1.22-1.85,1.11-3.49,2.85-6.73,3.41,1.47-.69-1.03-1.34-.02-1.69-1.41,1-2.84,2-4.29,2.98-1.09.16-.33-1.01-1.87-.54.11.34-.56.61-1.02.93-.42-.1-4.54.64-5.08-.64-.5-.48,1.76-.37.53-.77-2.01.12-2.08.56-4.09.65l-.04-.17c-1.33-.14-3.92.63-2.46,1.33.93.03-.37-.77,1.02-.42-.93.77-3.29,1.02-5.36.99.71-.2.63-.55.91-.91-1.38.5-2.81.76-4.29.96-1.47.18-2.96.26-4.5.36-.09.62,1.22-1.04,1.64-.68-3.82-1.12-8.11.55-11.2-1.02.54-.06.2.9.18.72-1.85-.27-1.67-1.15-2.91-.94-.06-.53-1.53,0-2.79.03-.68.31-.3-.29.79-.23-1.78.27-8.79.29-12.69-.95.04.36-2.6.97-3.51.82l.46-.76c-.78-.58-3.08-.3-3.15-1.01-2.08.74,7.64.08,4.9.52-.6-.76-3.84.83-3.14-.19-1.85-.19-3.74.49-5.4-.49.49.19,1.63-.93.14-1.06-2.63-.18-.79.29-2.94.29l-1.37.16c-.19.77-2.32-.4-1.46.6-.24-.69-3.85-.1-3.41-1.36l.5-.98c-1.14-.07-1.99.84-2.94,1.17-.13-.12-.4-.36-.33-.52-.39,1.54-2.68-.49-4.18.54-.57-.22-1.24-.38-1.92-.52-.71-.15-1.32-.23-2.22-.43-.41-.08-.81-.19-1.17-.31-.36-.12-.74-.24-.96-.36-.5-.24-.88-.51-1.09-.82-1.9-.03-3.67.08-5.59-.81.44-.03,1.01.08,1.21-.22-1.14-.8-1.57-.49-2.79-.56.32-.15-2.28-1.6-3.54-2.53-1.88-.04-1.51.95-1.83,1.4-1.18-1.95-5.23-.44-6.85-2.38.67-.03,2.77,0,1.42-.8-1.18-1.95-3.55.18-5.93-1.29l.27,1.43c-.93-1.1-4.02-.39-3.38-1.58-1,.19-2.93-1.3-2.99,0-3.94-2.27-10.51-2.46-12.45-5.45-.67.01-2.12-.66-2,.05.8.98,1.56-.04,1.79.53-.55-.13-.78.16-.89.31-1.23-.68-2.24-1.1-.68-1.71-2.68-1.68-3.67,1.11-7.25-.61.33-.44.11-.72-1-1.01-.78.06-1.57.09-2.37.13-2.36-1.05-.98-1.6-.74-2.46-1.33-.3-2.9-.96-3.72-.56-.39-.54-.76-1.11-1.14-1.66.82,1.21-1.25.07-1.92,0l.68.05c-.09-.44-1.63-.85-2.4-1.08-.06.58,1.34,1.44,2.1,1.93-.8.08-1.78-.43-2.81-.4.63-.66-1.79-1.48-2.73-2.03-1.05-.71-1.61.1-1.92-.09.17-.42-1.8-.97-.65-1.1.44.06.68.82,1.49.77-.6-.66-.17-1.32-1.94-1.56-1.34-.19-.47,1.69-2.41.09.67.1.93-.16,1.51-.21l-1.82-1.43-.45.66c-.18-.32.04-.28-.04-.44-.99.43-3.2-1.39-4.09-.82-1.06-.47-1.87-1.65-2.78-2.27l.22.04c-.94-1.07-2.64-1.69-3.88-1.81l.14-.12c-.6-.43-2.16-1.21-3.18-1.31-1.27-1.5,1.04-2.85-1.21-3.11-1.59-.98-3.27-.41-2.91.44-2.54-2.31-6.49-3.53-8.27-6.49-.59-.05-.47.3-1.38-.2-1.91-1.69-4.1-3.31-6.06-5.06-1.96-1.74-3.63-3.72-4.4-5.84,1.25.96.67-.43,1.01-.73-1.33-.55-.34-1.64-1.58-1.26-.49.53-.86.63-.14,2.03-1.15-1.16-2.48-2.77-3.43-4.54-.5-.84-.88-1.75-1.15-2.55-.3-.77-.41-1.53-.43-2.06.04,1.06-.44.42-.92-.29.59-.06.66-.71.6-1.64-.03-.46-.23-1.15-.32-1.77-.1-.64-.23-1.31-.36-1.95-.24-.13-.48-.27-.71-.41.2-.51.44-.99.66-1.45l.08-.12c-.05-.49-.37-.84-.55-1.39-.11-.51-.12-1.3.83-2.29.31.01.61,0,1.04-.26.48-1.19,1.33-2.59,2.63-3.73.64-.56,1.37-1.08,2.14-1.47.19-.1.39-.19.58-.28.18-.08.33-.13.47-.17.29-.1.58-.16.87-.2.69.09,1.36.21,2.01.35.8-.39,2.1-1.39.49-1.22,3.63-.44,5.86-.61,7.09.11.72-.35,1.51-.66,2.4-.89.9-.23,1.87-.41,3.17-.38,2.38.07,4.42.66,6.32,1.39,3.78,1.48,6.89,3.64,9.54,5.63l-.46.31c1.14,1.43,1.28-.19,2.05.84-.75.05.41,1.66-1.05,1.32,1.64,1.93,3.08,1.24,4.49,2.08.62-.38-1.28-.48-.5-.96.38-.02,2.32,2.58,3.27,2.05.21.71-.65.98-1.17,1.08l1.47.59c.6,2.09-4.57-1.05-4.06,1.33l1.15.75c.29,1.65-3.53-1.36-1.17,1.09,1.44.56,3.39.26,2.68-.95,2.52,1.81,2.71-.92,5.16,1.38.28,1.06-2.09-1.68-2.18-.61.63,1.66,2.66,1.76,3.5,2.93-.88-1.34.79-1.22,1.67-.67.91,1.52-1.47-.04.22,1.68.7-.17,2.62,1.04,1.51-.58,1.56-.38,1.57,2,3.24,2.16-.1,1.23-3.31-.14-1.74,2.04.08-.24.33-.27.64-.22.16.03.33.08.52.13.18.05.41.15.47.09.42-.1.7-.41,1.05-1.02-.09.28-.38,1-.89,1.3.01.41.47.27.7.13.25-.12.34-.18.19.96.11-.33.21-.67.29-1.03.02.45.1.86.28,1.75.17.18.4-.03.53-.09.14-.05.27.13.51,1.38.03-.09.26.16.33,0-.01-.46-.11-.96-.39-1.7-.04-.06-.06-.1-.08-.13-.16-.34-.15-.09-.19-.04-.03.05-.13-.13-.35-1.21.32,1.4.42.99.27.24-.08-.36-.15-.69-.21-1l.3.96c-.09-.47.03-.5-.32-1.41.18.51.41,1.07.52,1.16-.16-.44-.33-.86-.51-1.25-.23-.7,1,1.78.98.97.12.35.23.75.33,1.21-.03-.15.11-.05.25-.03.14.02.29-.04.25-.38-.54-.88-1.23-1.76-1.72-2.17-.26-.28.77.42.11-.11.26.18.51.43.73.75.19.25,1.14.55,1.38-.29.11-1.24-.36-3.4-1.34-1.67.27-.93,1.14-2.08,1.43-1.17.44-2.16-.87.02-.72-1.93.71-.58,2.21-2.64,3.39-3.75l.53,2.29.45-1.23c.39,1.93,1.02-.53,1.71.72.44-.77.5-1.89.55-2.79-1.27.9-1.56.02-1.74-1.1-.2-1.11-.18-2.47-1.07-2.41.53-1.81,1.65-1.97,2.55-2.22.45-.13.84-.28,1.09-.69.24-.41.33-1.06.31-2.26-.69.41-.78-1.91-1.61.54.68-1.06.55-1.63.5-2.23-.02-.3-.03-.6.11-.98.18-.4.52-.88,1.13-1.49-.44,1.22.28.87.92.7.65-.18,1.21-.18.67,1.45-.15-.24-.5.1-.82.55-.27.44-.5,1-.55,1.25.51-.29.82-.05,1.16,0,.36.04.64-.1,1.37-1.15.39-.69.78-1.46,1.26-2.13.42-.67.71-1.29.29-1.43-.32-.31-.91.36-1.24.77-.35.43-.6.76-.55.01.54-.74,1.21-1.44,1.74-1.88.59-.41,1.09-.67,1.53-.86.84-.39,1.44-.73,1.83-1.75-.5.23-1.11.49-1.56.64-.47.14-.83.25-1.15.27-.63.05-1-.12-1.16-.39.46-.42.96-.81,1.48-1.16.51-.35,1.11-.71,1.55-.95-.08.25-.23.53-.34.79,1.24-.43,1.65-.57,2-.79.31-.19.38-.36.46-.55.14-.37.35-.8,1.9-1.2.59.23,1.14.47,1.68.72-.16.58-1.22.78-2.23,1.07-.99.27-1.92.66-1.32,1.33,1.11-.35,1.73-.74,2.32-1.08.6-.34,1.16-.61,2.03-.67-.32.25-.8.45-1.16.71.35-.08.83.36,1.5.56.33.1.7.14,1.1.03.36-.1.87-.41,1-.84.31-.73-.17-.57-.44-1.13.18-.15.28-.36.29-.49.2-.31.37-.69.51-.98.3-.66.52-1.24,1-1.99.77,1.04,1.93-2.62,1.8-.22-.56.2-1.41,1.16-2.08,2.1-.34.48-.62.94-.81,1.37-.06.12-.05.16-.04.22.01.06.01.13.02.2,0,.13.02.28.06.44.63.4.39.57-.02.73-.29.13-1.27.44-1.29,1.21,1.09-.37,1.55-.22,1.97.1.44.32.8.76,1.21,1.06.29-.13.48-.41.61-.66.12-.27.18-.52.27-.72-.22-.4-.48-.44-.75-.47-.27-.04-.51-.1-.82-.43.13-.1.36-.27.57-.51.21-.23.41-.44.59-.68.37-.48.68-.99.94-1.51.52-1.04.81-2.07.86-2.92.85-.53,1.43.18.91,1.13,1.57-2.86,3.45-5.93,5.29-8.61-2.27,1.11,1.52-3.3-.21-2.65-1.15,1.36-2.76,2.14-2.84,1,.62-.89.52.34,1.01.1.02-1.59,2.15-1.25,1.79-3.06-1.19,2.96,1.18,1.4,1.85,2.46.6-2.27.63.48,1.76-1.45.61-2.26,1.66-4.9,2.95-7.17,1.36-1.04,2.58-2.69,3.87-4.34,1.28-1.65,2.71-3.31,4.14-4.26.89-.26,1.27.1,1.59.37.34.29.63.5,1.48.26.96-.42.52-.57.15-.74-.36-.11-.57-.33,1.14-.53l-.25.33c.21-.16.71-.25,1.34-.28.63-.01,1.38.06,2.11.17,1.39.21,2.69.42,3.39-.3-.43.34-.85.69-1.25,1.05.49.24,1.04.11,1.52.11-.12.43.33,1-.57,1.01,1.31,1.4,3.4,1.11,5.12,1.88-.24-.41-.5-.83-.76-1.23,3.22.78,4.75,2.52,7.55,3.81l-.47.64,1.81.52c-.77.43.4,1.7,1.55,1.67-1.68-.29-3.36-.55-5.03-.76-.9-1.05,1.71-.12,1.39-1.2-.26-.95-2.87-2.15-3.63-1.68.91.59,1.04.46,1.91.62-.22,1.13-1.63.3-2.68.58.51.22,1.05.89,1.32.64-1.22-.05-2.22-.5-3.85-1.25,1.29.14-.31-.9.24-.98-.55.81-2.21.32-4.13-.68-.53-.78-1.58-.96-2.69-.93-1.19.03-2.01.3-2.92.32.51-1.13,1.8-1.89,3.48-1.88-.74-.43-1.21-.49-1.67-.54-.46-.04-.9-.08-1.77-.26-.36.42-.6.94-.9,1.5-.16.26-.32.54-.5.83-.21.27-.46.59-.79.9l-.46-.57c-.65.63-.78,1.18-.97,1.72-.1.26-.21.52-.41.81-.2.28-.48.58-.91.95-2.97,2.56-5.33,6.3-7.08,8.98l-.68-.27c.37,2.32-2.56,5.48-3.2,7.97-1.35,1.65-2.35,3.72-3.36,5.53-1,1.81-2.03,3.38-3.2,3.92-.53.82-1.07,1.63-1.69,2.42-.3.4-.61.76-1.05,1.23-.41.42-.86.81-1.35,1.13-.47.32-1.04.63-1.49.85-.47.24-.91.42-1.36.62-.88.36-1.73.67-2.56.97-.78.29-1.57.58-2.36.87-.36.15-.73.29-1.04.44-.31.14-.5.24-.75.39-.23.14-.45.3-.64.5-.18.21-.35.41-.6.67-.24.22-.45.62-.69.92-.23.34-.48.63-.71,1.01-.11-.53-.18-.99-.26-1.52-.05,1.43-.97.34-1.47,1.55,1.44-.85.07,2.04.32,3.16-2.14,2.56-2.83,6.94-3.08,9.93l-.72-.12c.17,1.64-.31,3.19-.96,4.8l-.13.3-.18.47c-.12.31-.24.62-.36.94-.24.61-.48,1.23-.73,1.86-.49,1.22-.94,2.45-1.34,3.72-.4.34-1.16.51-1.46,2.05.06,1.95-.03,3.44-.2,4.99-.17,1.56-.42,3.19-.75,5.82-.09,0-.27-.16-.45-.28-2.39-2.57-6.4-7.3-8.53-10.13-1.11-.85-2.28-1.8-3.47-2.8l-1.81-1.54-1.22-1c-1.59-1.33-3.13-2.71-4.69-4.1-3.1-2.77-6.25-5.54-9.81-7.75l.05-1.03c-3.72-1.78-7.35-4.37-10.78-6.22-1.68-.92-3.38-1.55-4.32-1.63-.58-.05-1.41,0-2.19.11-.79.12-1.58.31-2.3.55.11-.51.22-1.02.35-1.53-1.02-.07-2.14.27-2.85.75-.72.48-1.04,1.07-.67,1.49-.48.03-.98.18-1.46.39-.24.1-.47.22-.7.34l-.32.18c-.1.05-.1.07-.16.11-.34.25-.59.41-1.29.19-.8.4-.2,1.09.14,1.52.05.06.09.13.11.2-.11.32-.19.56-.14.92.03.57.29,1.12.44,1.64.48,1.06,1.06,2.07,2.21,3.49l-.43-.79c-.44-.16-1.05.13-.59.95.98.95,2.91,4.39,3.31,2.19.89,1.88,2.8,3.51,4.72,5.06,1.92,1.56,3.93,3.04,5.21,4.88,0-.6.91-.01,1.46,0,3.05,2.29,5.94,5.39,9.02,6.38.4.54-1.27.15.06,1.04.9.35.35-.51,1.47-.12,5.83,2.56,10.72,7.25,16.07,9.59,2.39.92,4.81,1.85,7.23,2.79,2.39.92,4.74,1.74,7.24,2.59,4.95,1.69,9.97,3.33,14.82,4.74l-.21.3c3.62-.28,7.23,3.6,10.39,2.44.68.54,2.9,1.01,2.14,1.49,2.86-.14,7.03,2.96,11.12,2.88-.34-.13-.55-.12-.99-.09,3.59,1.81,7.23,1.75,11.07,3.54-.45.03-1.22-.07-1.43.23,1.37,1.07,4.07-.39,4.48,1.46.89.23.86-.63.3-.74.54.18,1.08.37,1.63.56l.82.26c.27.09.58.18.74.22.4.12.8.21,1.21.28.47.08,1.13.16,1.68.24,2.33.3,4.69.53,7.07.72,4.76.34,9.57.69,14.31,1.03,6.64,1.81.07,2.85,5.56,2.25.4.37.39-.6.42-.25,2.12-.22,3,2.24,4.53,1.53-.47-1.09,1.02-.46,1.13-1.08,4.05,1.14,4.79,2.14,8.13,1.72l-.3.51c3.98-1.12,8.33.14,11.67-1.37,1.31.09,2.6.17,3.88.22,1.3.07,2.54.1,3.78.12,2.47.04,4.97-.05,7.49-.19,5.03-.29,10.05-.82,15.01-1.53,4.95-.72,9.85-1.6,14.61-2.73,4.76-1.11,9.43-2.46,13.73-4.15,2.93-1.05,5.66-2.34,7.87-3.82,1.06-.75,2.06-1.52,2.72-2.29.37-.34.72-.9.64-.76.01-.03.03-.06.03-.08.02-.05,0-.11-.04-.15-.02-.02-.04-.04-.06-.05l-.51-.52c-.2-.2-.43-.41-.66-.61-.92-.82-2.01-1.63-3.11-2.35-1.08-.7-2.3-1.36-3.09-1.68-.2-.09-.31-.11-.34-.13-.16-.02-.31-.05-.46-.1l-.68-.08c-.23-.03-.55-.02-.82-.04-1.18-.02-2.54.04-4,.22-2.89.32-6.02.94-9.18,1.63-2.42-.08-3.74-.03-5.03.26-1.29.3-2.57.86-4.95,1.97.12-.29.42-.44.02-.53.13,1.18-3.44,1.31-3.54,2.53-1.57.52-3.11,1.06-4.62,1.63-.96.37-1.91.74-2.86,1.11l-4.35,1.78c-5.77,2.43-11.93,5.35-18.21,8.16.27-1.65.57-3.46.87-5.29-.27,2.36.75,2.03,1.11-.58-.15-.62-.29-1.3-.41-2.03l.47-.85c.06-.87,0-1.71-.15-2.05-.16-.34-.42-.19-.82,1.07.77-5.04,1.36-9.99,1.92-14.99l.37-4.03.29-3.51c.2-2.33.32-4.61.39-6.82.03-.57,0-1.07.01-1.61-.01-.52.03-1.1-.02-1.56l-.07-1.46c-.02-.48-.11-.81-.14-1.23-.02-.45-.14-.7-.12-.78.03-.06.04-.1.04-.15-.02-.07.07-.01-.24-.37-.27-.3-.6-.64-.99-1.01l-2.74-2.54c-.52-.5-1.07-1.02-1.67-1.68l-.47-.52-.54-.67c-.37-.44-.68-.93-.99-1.41-.29-.49-.53-1.01-.79-1.52l-.32-.83c-.07-.2-.16-.41-.21-.6-.25-.77-.48-1.53-.66-2.24-.36-1.44-.64-2.82-.87-4.15-.46-2.66-.78-5.18-1.12-7.65-.09-4.75-1.22-11.15-2.42-15.46-.16-1.62-.38-3.14-.69-4.52-.3-1.37-.72-2.56-1.15-3.38l-.16-.31c-.05-.07-.13-.18-.13-.21-.02-.11-.12-.22-.18-.33-.17-.21-.36-.38-.63-.52-.83-.38-2.34-.68-3.82-.81-3.03-.28-6.38-.13-9.73.28-3.34.41-6.84,1.08-10.16,2.02l-.68.19-1.35-.18c-.36-.05-.74-.1-1.12-.15,0,0,.41-.41,1.32-.86h1.62c.83-1.13,2.77-2.81,6.37-3.79Z"/>
      <path class="cls-3" d="M157.99,101.09c-.12-.77-1.41-1.96.17-1.89-.15.55.27,1.55-.17,1.89Z"/>
      <path class="cls-3" d="M119,103.97c.12.14-.54.46-.71.54.26-.52.11-1.24.61-1.49-.26.53.02.59.09.95Z"/>
      <path class="cls-3" d="M112.76,113.98c-.35-.41.55-2.72,1.24-4.03l-1.24,4.03Z"/>
      <path class="cls-3" d="M106.25,119.28c-.36-.33-.38-.56-.31-.59.17.22.22.36.31.59Z"/>
      <path class="cls-3" d="M106.64,120.4c-.42.2-.96.07-1.36-.1.1.2.45,0,.77-.14.14-.07.28-.12.37-.09.09.03.14.13.22.33Z"/>
      <path class="cls-3" d="M86.23,138.04c-.18.59-.26,1.98-1,2.31.6-.45.46-3.03,1-2.31Z"/>
      <path class="cls-3" d="M83.16,149.3s-.04.09-.05.11h-.02s-.02.01-.03.03c-.02.02-.02.06.04.13-.26.04-.56-.28-.59-.34.21.06.4.16.66.07Z"/>
      <polygon class="cls-3" points="117.79 199.91 116.56 199.81 116.88 199.37 117.79 199.91"/>
      <path class="cls-3" d="M206.29,213.8c1.26-.27.86.51,1.06.6-1.13.02.43-.62-1.06-.6Z"/>
      <polygon class="cls-3" points="254.19 205.45 253.84 205.56 253.66 204.51 254.19 205.45"/>
    </g>
  </g>
  <g>
    <path class="cls-4" d="M211.13,189.5s-15.03,13.58-65.6,3.26c-47.13-9.62-60.17-28.94-60.17-28.94"/>
    <g>
      <path class="cls-3" d="M212.05,191.22c.38-.6-.87-.46.09-.59.22.36.27.74-.09.59Z"/>
      <path class="cls-3" d="M85.37,165.96c1.56-.24,2.18.38,2.75,1.17.6.73,1.12,1.63,2.36,1.54.23.05-1.02,1.07-.43,1.11,1.35-.23,2.27.31,3.03,1.19.74.89,1.23,2.21,1.64,3.45l-.35.27c.16.48,1.36-.38,1.59.02-.15.23-.34.25-.47.62.56-.63.85.12,1.35-.3-.05.37-.43.91-.45,1.34l.73-.66c1.81-1.55,1.3,1,2.7.48-.15.17-.32.26-.37.49,1.95-.37,3.39.71,5.05,1.05-.22.26-.57.78-.67,1.15.55-.84,1.11-.83,1.58-.79-.31,1,1.08-.46,1.27.26l-.14.19c.83-.8.21.8,1.08-.22l-.16.83c.8-1.23.15.91.76.39l.12-.27c.42-.19.23.53.58.43l-.05.16c.74-.07.71.83,1.19-.2-.19.92-.73.1-.99,1.45,2.37-.09,4.27.88,6.2,1.72.04.52.13.7.02,1.12.28-.13.81.12,1.2-.34-.07,0-.09.59,0,.68.2.53.86-1.01,1.06-.39-.27.22-.46.54-.56.96.66-.7,1.06-.4,1.56-.52-.13.16-.27.23-.38.56.8-.78.72.5,1.33.05l-.37.56c.34.98.66-1.22,1.03-.58-.2.15-.24.4-.36.65.91-.93,1.57-.27,2.2-.46-.06.07-.11.24-.11.24.58.07,1.02.62,1.8.31.12.35-.59,1.49.07,1.45.4-1.26,1.16-.2,1.29-1.72.42.36,1.05,1.08,1.51.76-.38.41-.25,1.61-.7,1.58l.07.86c-.21.5-.27-.28-.38.4.23.02.99-.28,1.11-.02.63-.65,1.43-1.97,2.09-1.93-.44.4-.26,1.44-.52,1.6l1.59-2.14c.22,0-.26,1.01.14.77.08-.34.27-.51.45-.75.04.16.95-.08.68,1.19-.05.52-.42.17-.31.68.39.09.53-.33.92-.24l-.04.17c.2.25.9-.33.82-1.09-.16-.09-.15.77-.3.34.38-.68.88-.76,1.26-.67-.19.17-.26.5-.41.84.79-.84,1.41-1.01,2.09-1.26.17-.59-.5,1.03-.5.69.51,1.03,1.81-.76,2.11.61-.13.08.16-.86.13-.69.33.17.09,1.03.41.77-.11.52.33-.08.6-.17.21-.34,0,.26-.22.27.44-.34,1.96-.84,2.54.08.07-.34.76-1.13.93-1.06l-.25.78c.05.51.61.06.48.75.6-.87-1.64.49-.96-.14-.02.69,1-1.1.64-.05.36.05.91-.76,1.08.06-.07-.15-.54,1.03-.24,1.04.54-.03.23-.35.7-.52l.33-.27c.19-.77.43.21.43-.7-.08.65.81-.23.48,1.04l-.29.99c.24-.03.59-.98.86-1.39,0,.1.02.32-.02.48.37-1.54.49.25,1-.89.34.63,1.14.32,1.17,1.31.45-.4.88-.9,1.22-.5-.11.13-.23.15-.32.48.16.5.31.11.59-.1-.1.22.33,1,.51,1.6.44-.4.48-1.26.62-1.76.03,1.59,1.18-.81,1.32.66-.16.19-.65.66-.43,1.1.04,1.59.86-1.01,1.25-.18l.1-1.3c.09.83.89-.6.61.69.25-.43.54.53.7-.72.67,1.21,2.17-.26,2.33,2.07.16-.18.43.07.47-.58-.09-.72-.37.46-.36-.03.12-.02.19-.35.23-.52.22.32.42.44,0,1.44.47.85.95-2.03,1.62-1.44-.11.51-.09.72.15.66l.55-.83c.45.27.1,1.21-.02,2.09.28-.11.6-.03.81-.66l.16,1.15c-.12-.83.29-.5.44-.7l-.15.2c0,.38.33.19.5.1.04-.55-.24-.81-.38-.99.19-.37.38-.25.62-.68-.18.85.34.67.53.79.21.22.37-.73.44-.69-.05.45.38.13.11.73-.1.13-.13-.46-.31-.09.11.35,0,1.13.39.61.3-.39.16-1.71.55-1.1-.15.2-.22.54-.35.83l.38.51.12-.78c.03.21-.02.27,0,.38.23-.81.7-.16.91-1.08.23-.05.39.61.59.73l-.05.06c.2.5.58.24.85-.27l-.03.17c.13.08.48-.02.7-.46.29.63-.21,2.98.29,2.03.37,0,.72-1.39.62-1.9.59.59,1.44-.62,1.92.65.12-.31.08-.51.29-.68.92.4,2.05-.75,2.69.87-.3.3-.08.79-.1,1.24.28-.68.22.76.39-.44.03-.71.08-1.06-.17-1.37.59-.32,1.43-.31,1.7.38-.14-.34,0-.55.13-.76-.11,1.13.3,1.33.63.94l.08-.69.16.72c.13-.22.21-1.45.48-.77,0,.27,0,.54.05.74.35-.55.84-1.49,1.17-.89l.25,1.03c.15-.1.43-.7.18-1.01.57.64.96.73,1.12,1.62,1.1-2.05,2.54-2.21,3.73-2.04l-.03.52c.32.49.16-.91.38-.55-.1.5.25,1.08,0,1.68.47.55.58-.9.87-1.14.03-.68-.23.44-.19-.43.05-.24.64.53.69-.5.12.4.05,1.17,0,1.58l.27-.5c.37,1.21-.74,2.16-.35,3.64l.26-.16c.28,1.08-.68,1.22,0,1.59.28-.51.49-2.01.22-2.46.59-.29.21-2.46.84-2.38.19.61-.5.15-.35,1,.32.84.58-.48.85-.2-.3-.37-.09-1.43.08-1.63.33.47-.17.99.28,1.07.05-.6.44-1.07.07-1.46.1-1.36.48.35.67-.71.19.94-.35,2.22.16,2.67-.12-.91.54-1.28.21-2.62.2.25.27.97.16,1.54.31.55.56-1.71.77.1l.03-.94c.1.3.24.52.42,1.02.25,0,.69-1.31.77.1.07-.15.63-.12.33-1.08-.39-.58-.34.74-.63-.57.32,1.06.48-.17.64-.54l.08.54c.1-.22.38-.11.4-.71-.06.32.02.69.12.81l.05-.84c.42-.47.24,1.44.68,1.15l-.29.68c.06-.15.29.61.49.32.03-.74.07-1.7.09-2.29.22-.36.2.84.37.03l-.23.95c-.03.25.35,1.22.7,1.16.2-.29.41-1.42.01-1.79.17-.03.46.4.39.97.36-.3-.15-.8.13-1.31.2.49.71,1.15,1.07,1.85l-.19,1.3.24-.02c-.18,1.05.26.75.22,1.84.19.15.35-.24.47-.53-.71-1.65.22-2.39-.15-3.93.56-.51.96,3.71,1.25,1.17-.17-.38-.05-1.62-.37-1.1.42.1.01-1.6.57-1.04-.23.7.63,1.5.29,2.51-.05-.52-.34-.34-.4-.18.26.56.22,1.56.63,1.49.23-.19.57-.28.38-1.08-.17-.88-.36.16-.36-.76.43-.39.76.93.68-.67-.29.17-.53-.72-.63-1.33l.28-.43.04.6c.64.32-.03-1.09.53-1.03l.48,1.11c.07,1.02-.88-.3-.48,1.3.38,0,.33-.84.76-.48-.05.15-.14.21-.19.37.13.03.71,2.16.97.8.16-.55-.05-.59-.18-1.2.52-.32.55-.98.88-1.15.2,1.19.66-.04.55,1.26-.35-.64-1.13-.38-1.1.79.51,1.35-.49-.08-.33,1.35.49-.05.75,1.31,1.02,2.2.15.03.2-.38.25-.54-.13-.86-.3-.81-.5-1.68.58.1.98-.49,1.06-1.38.27.38.43,1.23.24,1.36.56-.41,1.27-.43,1.92-.36-.76-1.25.55-.52-.03-1.57-.39-.21-.92-1.1-.93-1.77.2.03.16.6.32.87.01-.82.71,1.08.6-.17-.4.6.39,1.69.61,2.78.23-.73.21.76.61.64.23-.72.58-1.33.94-1.7.91.82,1.39-.5,1.84-.71.46.42.76,1.65,1.13,1.74.33-.15-.77-1.16-.05-.81l.05.25c.02-.32,1.23.37.61-1.33l.43,1.3c.14.07.09-.25.11-.42.19.4.47.71.44,1.04.71.7.59-.42.88-.63l-.57-.61c.24-.84.95-.33,1.33-.85l.39.69.05-.59c.32.7.87.93.68.3.09.7.16,1.44.19,2.15-.47-.27-.22-.96-.76-1.55-.47-.52-.83-.08-.55.64.23-.03.16-.18.16-.51.61.92.29,1.04.49,1.77.08-.1.4.11.25-.2.06.58-.12.77-.46.99.04-.51-.44-.53-.49-.86.42.88.2,1.31-.36,1.27-.78-.86-.53,1.03-1.19,1-.17-1-.23-1.83-.1-2.33-.51-.31-.33.18-.83-.13.14.74.46,1.8.2,2.38l-.29-.66c-.24.49.14,1.48-.43,1.49-.98.02-1.86.29-2.54.4l-.24-.68c.1,1.58-1.04.92-1.35,1.73-1.02-.46-1.69,1.11-2.41.02-1.36.93-2.6,1.64-4.22,1.67l.09-1.08c-.15.81-.28-.56-.52-.36.45.77-.2,1.14-.3,1.81-.82-.67-1.58.27-2.13,1.09l-.11-.71c-.47,1.42-1.37.33-2.17.2-.12-.29-.33-.94-.55-.84-.32,1.21-.55,1.14-1.12,1.9-.46.03-1.23-.22-1.72-.64-.81.87-1.68,1.07-2.56,1.18-.88.12-1.76.07-2.66.58l-.14-.85c-1.73,1.8-3.88.23-5.37,1.05l.19-1.44c-.44-.47-1.06.33-.98,1.36-.45-.46-1.19.65-1.43-.55-.46-.29-.61.64-1.02.82-.92-.59-1.28-.48-2.2-.26l.22.1c.12-.31.17-.93-.05-1.03-.36.4-1.19-.49-.99,1.26-.87-1.09-2.29.6-3.1-.83.04.48-.21.55-.34.85-.84-.06-1.62-1.1-2.37-.37-.11-.25.3-.78-.04-.86-.22.16-.07.61-.35.85-1.47.77-2.61-1.26-3.86-1.18-2.28.58-4.5-.14-6.58-.35l.08-.34c-.91,1.18-1.38-1.63-2.27.23-.11-.36-.59-.27-.36-.9-.71.82-1.37-1.15-2.38-.13.07.05.12-.02.23-.15-.65-.9-1.56,0-2.27-.83.11-.13.29-.21.38-.54-.19-.71-1.06,1.29-.9-.38-.19-.02-.3.8-.17.77-1.7-1-3.87-.43-5.87-.49-1.14-1.28.56-2.76-.8-1.79-.01-.33-.21.61-.15.27-.53.36-.21-1.96-.7-1.18-.12,1.02-.33.51-.48,1.12-.68-.84-.62-1.76-1.46-1.19l.18-.51c-1.14,1.27-1.82.24-2.92,1.76-2.16-.45-4.34-.63-6.49-1-2.15-.37-4.29-.75-6.39-1.32-1.97-.91-4.01-1.56-6.03-2.28-2.01-.77-3.99-1.7-5.82-2.98-.35-1.71-.41-1.73-1.68-1.7.14-.19.23-.2.25-.43-.55,1.02-.76-.25-1.35.7-1.37-.92-2.88-1.27-4.36-2.12.3.02.86-.75.55-.84l-.65.49.11-.31c-.27.05-.76.43-.74.87-1.06-.3-2.02-.78-2.91-1.37-.88-.63-1.69-1.36-2.48-2.1-.8-.72-1.55-1.53-2.33-2.28-.78-.76-1.61-1.39-2.49-2.01-.51-1.02-1.93-1.5-2.94-2.07-.39-.84-.75-1.64-1.14-2.4-.37-.79-.76-1.53-1.2-2.2-.43-.7-.91-1.35-1.47-1.95-.59-.67-1.14-1.07-2.13-1.98,0,0,.18-.07.48-.15.29-.1.73-.16,1.15-.31.86-.26,1.87-.46,2.56-.21Z"/>
      <path class="cls-3" d="M211.55,191.73c-.44-.41-.91-.48-1.11-1.28.33.44.84.84,1.11,1.28Z"/>
      <path class="cls-3" d="M200.81,190.01c.04.17-.18-.19-.24-.28.09-.07.04-.57.2-.3-.09.07,0,.33.03.58Z"/>
      <path class="cls-3" d="M198.62,190.26c-.09-.51.25-1.02.5-1.14l-.5,1.14Z"/>
      <path class="cls-3" d="M196.19,188.65c-.26-.39-.26-.63-.04-.67.07.27.03.42.04.67Z"/>
      <path class="cls-3" d="M196.3,189.84c-.16.05-.31-.24-.45-.51.1.44.32-.34.45.51Z"/>
      <path class="cls-3" d="M191.73,189.09c-.1.05-.27.51-.44-.05.16.39.42-.71.44.05Z"/>
      <path class="cls-3" d="M189.79,190.1c-.07-.03-.11-.12-.17.04-.15-.22-.06-.61.04-.67l.13.64Z"/>
      <polygon class="cls-3" points="150.85 189.77 151.13 189.56 151 190.06 150.85 189.77"/>
      <path class="cls-3" d="M133.87,185.96c-.31.25-.03-.51-.05-.6.22,0-.25.59.05.6Z"/>
      <polygon class="cls-3" points="124.1 185.69 124.17 185.7 123.81 186.69 124.1 185.69"/>
    </g>
  </g>
  <g>
    <path class="cls-1" d="M93.7,146.86l34.49-.1c18.5-.05,36.82,3.66,53.83,10.93l31.04,13.25c1.38.59,2.16,2.05,1.88,3.52l-1.63,8.52c-.11.59-.39,1.14-.81,1.58l-4.79,5.08c-1,1.06-2.6,1.31-3.88.59l-29.46-16.57c-.14-.08-.29-.15-.45-.21-14.29-5.53-29.41-8.58-44.72-9.02l-35.47-1.02c-.33,0-.67.03-.99.13h0c-1.88.55-3.81-.71-4.05-2.65l-.48-3.8c-.06-.49,0-.99.16-1.46l2.35-6.65c.45-1.27,1.65-2.12,2.99-2.12Z"/>
    <g>
      <path class="cls-2" d="M94.39,145.87c-1.06.13.57.47-.69.21.14-.21.35-.38.69-.21Z"/>
      <path class="cls-2" d="M90.26,148.31c-.08.57-.04.97-.12,1.45-.06.46-.16.92-.28,1.39-.24.93-.59,1.86-.96,2.8l-.55,1.41c-.2.47-.32,1-.28,1.51.13,1.02.34,1.96.67,2.86.11.43-.77-.02-.46.94.32.93.97,1.89,1.92,2.39.47.25,1,.41,1.56.43.14,0,.28,0,.42-.01.07,0,.14-.02.21-.02l.24.06.12.03s.02-.23.07-.18l.23-.04c.15-.02.31-.03.47-.03,2.44.18,4.94.64,7.13,1.11l-.27.21c.83.18,1.88-.5,2.76-.38,0,.14-.29.19-.09.4.24-.42,1.61-.15,2-.46.35.18.3.52.75.72l.52-.48c1.45-1.12,3.43.18,5.37-.37-.1.11-.29.19-.14.31,3.11-.62,6.98-.38,10.45-.54-.14.17-.28.48-.08.68.19-.51,1.26-.61,2.19-.69.4.54,1.6-.44,2.68-.11l-.1.12c.82-.53,1.18.35,1.85-.29l.5.43c.38-.74,1.15.43,1.83.08l-.02-.16c.64-.15.95.22,1.54.13l.05.09c1.38-.11,2.14.35,2.15-.23.45.49-1.34.13-.63.86,4.51-.32,9.13.33,13.58,1.07.47.32.78.44.85.68.46-.05,1.69.2,2.14-.02-.15-.02.23.35.46.42.76.37,1.01-.47,1.84-.02-.38.08-.54.24-.47.47.84-.28,1.84,0,2.76.05-.16.06-.39.07-.39.26,1.08-.28,1.74.52,2.66.4l-.4.25c1.26.72.57-.59,1.69-.05-.31.03-.24.18-.33.3,1.25-.32,2.97.35,4.11.47-.08.03-.09.12-.09.12,1.21.25,2.38.83,3.76.97.42.3-.4.73.87,1.02.16-.66,2.19.42,1.7-.54,1.02.48,2.61,1.28,3.38,1.34-.56.07.22.97-.66.7l.51.63c-.19.22-.64-.34-.55.07.44.14,1.79.36,2.14.6.26-.03.53-.07.8-.1.73-.03,1.53-.05,2.42.38-.7-.09-.04.83-.49.72l2.32-.18c.42.2-.17.52.49.69.06-.17.36-.13.61-.15.11.15,1.75.79,1.6,1.47.05.33-.72-.25-.4.21.75.41.89.23,1.64.64l-.03.09c.44.36,1.59.57,1.23-.05-.33-.21-.07.42-.48-.03.54-.14,1.45.25,2.2.66-.31-.05-.36.12-.56.23,1.26.1,2.39.56,3.62.99.17-.27-.7.27-.78.03,1.21,1.19,3.26,1.12,4.13,2.35-.22-.06.11-.45.08-.37.67.42.41.8.95.91-.09.26.61.24,1.11.43.33-.04.06.18-.36-.02.76.16,3.53,1.25,4.83,2.43.06-.17,1.24-.06,1.57.15l-.34.29c.19.39,1.16.61,1.05.96.98-.03-3.02-1.21-1.84-.99.08.45,1.7.2,1.21.57.69.37,1.59.34,2.05,1.05-.16-.17-.84.19-.27.48,1.01.48.38-.02,1.23.31l.58.13c.12-.17.33-.03.49.07.14.08.15.1.18-.15-.05.16.15.22.31.29.16.07.32.13.26.47-.05.18-.11.35-.17.52.35.04.57-.51.72-.77.04.05.12.15.12.24-.04-.43.08-.42.25-.45.16-.02.39-.09.31-.44.09,0,.18-.05.27-.11.05-.04.07-.04.15-.12l.26-.25c.18-.16.35-.33.51-.48.33-.29.64-.5.92-.51.36-.74.63-1.46,1.37-1.98-.07.18-.22.37-.12.53.56-.24.5-.49.75-.95,0,.08.28-.04.64-.21.09-.04.18-.09.28-.14.09-.04.15-.05.22-.07.15-.05.29-.11.41-.16.05-.59-.47-.59-.69-.74.24,0,.34-.12.35-.27.09-.63-.26-1.75.38-2.26.06.28.17,1.18.49.59.92-.55-.31-1.52.28-2.57l-.71.15c.5-.42-.06-1.73.58-1.48-.16-.42.47-1.28-.19-1.28.47-1.12.54-1.4.39-1.91-.15-.47-.38-.78-.36-1.43-.1,0-.23-.05-.34-.07-.12-.02-.22,0-.25.17.02.1.04.14.08.16.11.05.36-.19.32,0-.13-.04-.25.1-.3.18l-.06-.08s-.08-.09-.11-.14c-.07-.06-.11-.12-.13-.18-.03-.12.08-.23.38-.36-1.02-.87-1.66.49-3.08-.39.17-.22.1-.36-.36-.51l-1.02.06c-.94-.52-.32-.8-.16-1.23-.56-.15-1.19-.45-1.56-.24l-.41-.8c.3.58-.54.07-.83.07h.29c-.02-.22-.68-.37-1-.44-.04.29.54.66.84.88-.35.07-.75-.15-1.19-.09.29-.36-.73-.66-1.13-.88-.44-.29-.7.14-.83.06.08-.22-.77-.37-.27-.51.19,0,.28.37.63.29-.25-.29-.05-.65-.82-.66-.58,0-.22.86-1.04.2.29,0,.4-.14.66-.21l-.79-.59-.2.36c-.08-.15.02-.14-.02-.22-.43.28-1.39-.45-1.78-.09-.46-.15-.82-.66-1.23-.88h.09c-.42-.44-1.17-.59-1.71-.52l.06-.07c-.27-.15-.96-.38-1.41-.31-.59-.59.36-1.51-.63-1.38-.73-.3-1.43.2-1.24.56-1.19-.81-2.93-.83-3.88-1.92-.25.07-.17.22-.6.14-1.85-.96-4.22-1.28-5.42-2.66.62.08.2-.36.28-.58-.6.14-.4-.58-.81-.08-.1.36-.21.5.26.87-1.22-.31-2.91-.99-3.41-1.57.25.29-.03.29-.32.29.3-.52-.51-.92-1.22-.97l-.22.3-.28-.5c-.28.01-.53.6-1.04.04.02-.14.03-.29-.05-.43-.76.02-1.86.17-2.47-.37l-.42-.7c-.33-.05-.94.06-.45.39-1.12-.72-1.91-1-2.17-1.56-2.46.34-5.57-.49-8.06-1.23l.14-.24c-.62-.41-.47.37-.89.07.28-.19-.38-.66.23-.84-.91-.51-1.36.14-2.02.11-.18.32.56-.1.33.31-.14.09-1.28-.59-1.55-.1-.2-.26.08-.6.26-.78l-.65.12c-.6-.76,1.91-.72,1.31-1.63l-.58-.04c-.41-.66,1.62-.29.25-.78-.67.12-1.35.76-.86,1.11-1.29-.13-.85,1.11-2.18.78-.3-.39,1.09.16.92-.32-.55-.56-1.32-.04-1.86-.29.59.32-.05.74-.47.76-.64-.38.54-.41-.42-.65-.22.27-1.15.33-.42.68-.48.62-.97-.38-1.59.05-.23-.54,1.2-.93.17-1.36.09.49-1.43.41-.98,1.2-.39-.2-.38-.57-.03-.81-.56-.38-1.59.61-1.64-.34l-.28.44c-.16-.19-.41-.35-.68-.64-.53-.08-1.8.41-1.65-.3-.18.05-1.39-.15-.98.41.71.41.91-.25,1.24.49-.45-.62-1.09-.08-1.54.05l-.04-.29c-.27.08-.86-.05-1.06.23.22-.14.14-.34-.06-.43l-.32.39c-1.07.09-.16-.77-1.2-.77l.81-.24c-.18.05-.49-.38-.99-.31-.23.37-.64.79-.83,1.08-.59.12-.22-.46-.82-.11l.79-.4c.13-.12-.44-.68-1.22-.74-.51.09-1.32.59-.56.87-.39-.03-.91-.31-.58-.57-.89.06.08.43-.69.6-.29-.28-1.23-.71-1.79-1.12l.84-.6-.53-.04c.72-.48-.32-.42.1-.95-.36-.11-.81.05-1.17.17,1.01.95-1.25,1.13-.98,1.96-1.45.17-.83-1.99-2.38-.78.24.22-.49.81.43.61-.9-.12-.63.78-1.68.42.79-.32-.83-.82.32-1.29-.08.26.63.22.81.15-.36-.32.1-.81-.83-.84-.57.07-1.35.08-1.24.5.02.46.86-.04.49.42-1.12.15-1.31-.55-1.78.26.71-.06.88.42.87.74l-.82.18.16-.3c-1.32-.23-.37.54-1.68.47l-.61-.6c.31-.52,1.89.23,1.66-.62-.83-.04-1.12.4-1.92.18.18-.07.42-.09.6-.17-.3-.03-.61-1.15-1.82-.49-.62.26-.16.3-.18.62-1.36.1-1.77.43-2.64.48.18-.62-1.55-.06-.58-.69.45.36,2.42.32,2.9-.27-.5-.73,1.07.1,1.36-.64-1.09-.01-1.04-.74-1.22-1.21-.3-.03-.6.17-.78.24-.13.45.27.44.29.9-1.22-.12-2.39.14-3.06.57-.41-.22-.28-.66.2-.71-1.45.14-3,.08-4.38-.05.89.72-1.54.18-.93.78.74.16,1.37.68.97,1.01-.46-.05.01-.32-.18-.47-.59.4-.92-.63-1.49,0,1.32-.24.26-.89.5-1.46-.95.32.04-.41-.9-.4-.95.32-2.12.57-3.18.7-1.33-.54-3.37,0-4.55.02-.62-.29-.2-.93-.88-1.04-.79.02.59.69-.58.4l.11-.13c-.35.15-2.15-.43-2.49.5l.36-.7c-.22-.06-.42.1-.6.17,0-.23-.26-.43.09-.58-.72-.48-1.52.08-2.3.1l.51.41c-1.34.33-2.25-.08-3.55.07l.04-.41-.77.24c.19-.39-.52-.64-.93-.31l2.01-1c.56.24-.61.49-.26.89.3.35,1.5.23,1.7-.16-.46-.04-.48.05-.84.19-.15-.56.55-.54.89-.92-.24.02-.59-.15-.64.03.47-.28.95-.32,1.74-.34-.53.22.29.35.09.51.06-.5.82-.65,1.79-.51.7.57,1.83-.37,2.96-.22-.46.5-1.04.91-1.73,1.11.71.25.79-.02,1.5.24.34-.38.59-.95,1.51-1.18l.05.37c.84-.19.84-.74,1.91-.64,1.83.18,3.72.17,5.11.21l.05.37c.77-.79,2.59-.3,3.63-.65,1.78.35,3.87-.36,4.78.27,3.14-.29,5.88-.6,9.19-.4l-.56.52c.6-.39.37.32.95.26-.65-.45.81-.53,1.24-.84,1.45.45,3.34.13,4.67-.17l.02.37c1.36-.59,2.89.14,4.5.42.17.17.43.55.92.56.95-.49,1.41-.42,2.75-.61.94.14,2.46.47,3.38.87,3.69-.29,7.19.97,10.94,1.34l.16.49c3.76-.07,7.84,1.98,10.91,2.52l-.52.61c.85.51,2.16.5,2.09-.07.84.54,2.42.47,2.79,1.25.88.48,1.26.11,2.07.31,1.77.96,2.46,1.21,4.26,1.79l-.41-.22c-.25.07-.39.36.02.58.74.07,2.26,1.17,1.98.09,1.61,1.25,4.39,1.42,5.88,2.81-.05-.29.41-.14.66-.21,1.59.67,3.07,1.84,4.5,2,.21.22-.56.21.07.51.42.08.13-.29.66-.21,2.75.68,5.03,2.65,7.42,3.55,1.82.56,3.62,1.25,5.39,1.98,1.84.78,3.67,1.56,5.44,2.32,1.21.51,2.2,1.36,2.88,2.39l-.2.02c1,.85,1.3,2.49,1.02,3.87-.06.35-.16.69-.24,1.02-.03.13-.06.25-.09.38-.02.09-.04.19-.05.28-.04.37,0,.72.19,1.05-.23.3-.33,1.27-.61.96.25,1.23-1.05,3.09-.77,4.85.05-.15.03-.24-.02-.43-.07.15-.13.31-.18.46l-.07.23-.03.11-.04.19c-.25,1.08-.69,2.1-1.42,2.94l-.42.46-.35.36c-.24.24-.51.47-.81.68.07-.18.25-.46.16-.62-.72.27-.57,1.7-1.45,1.39-.26.29.12.5.27.31-.38.34-.75.7-1.12,1.06l-.55.56-.67.71c-1.6,1.83-4.38,2.54-6.74,1.54l-2.45-1.17c-.68-.33-1.36-.66-2.03-.99-2.28-1.87.55-1.35-1.76-1.91-.08-.24-.28.22-.22.05-.89-.23-.73-1.51-1.49-1.42-.04.58-.5.06-.67.33-1.38-1.17-1.46-1.76-2.88-2.1l.23-.19c-1.82-.12-3.27-1.42-4.93-1.32-4.73-2.55-9.43-4.94-14.04-7.33l-4.53-1.48c-1.66-.52-3.34-1.03-5.02-1.51-8.1-2.63-16.36-3.85-24.89-5.19-1.95-.92-2.12-.91-4.36-.77.1-.11.24-.13.1-.25-.15.59-1.57-.04-1.82.52-3.15-.26-6.24-.16-9.6-.26.54-.05.82-.53.18-.51l-.68.36-.1-.17c-.44.08-.92.36-.48.56-8.5.27-16.81-1.17-25.12-1.26-.49-.08-1.04-.12-1.61-.15-.29,0-.58-.02-.88-.03h-.11s-.02,0-.02,0h-.04s-.05.02-.08.03c-.05.01.05,0-.3.09-.13.03-.24.07-.38.09l-.46.07c-.62.08-1.25.06-1.86-.04-1.22-.2-2.33-.74-3.18-1.46-.58-.59-1.06-1.28-1.38-2.02-.15-.37-.29-.75-.37-1.14-.05-.19-.08-.39-.1-.58-.02-.17-.05-.45-.05-.5-.01-.78-.02-1.56-.03-2.33l-.03-1.15-.02-.41c0-.16,0-.32,0-.48.01-.32.05-.64.11-.95.06-.31.15-.62.26-.92l.17-.41.12-.26.45-1.05c.59-1.4,1.15-2.82,1.66-4.27l.19-.55.11-.31c.06-.16.12-.32.19-.47.29-.62.68-1.2,1.18-1.68.98-.98,2.36-1.6,3.82-1.68,0,0-.1.1-.3.26-.19.16-.47.39-.86.7-.71.62-1.69,1.55-2.28,3.08Z"/>
      <path class="cls-2" d="M95.66,145.81c.23.3.97.46.38.86-.07-.28-.46-.59-.38-.86Z"/>
      <path class="cls-2" d="M115.41,148.83c.03-.09.28.12.34.17-.24.02-.47.28-.66.12.25-.02.21-.16.32-.29Z"/>
      <path class="cls-2" d="M120.46,148.99c-.07.27-1.15.48-1.79.51l1.79-.51Z"/>
      <path class="cls-2" d="M125.16,150.07c.41.22.3.35-.25.34-.04-.14.14-.21.25-.34Z"/>
      <path class="cls-2" d="M125.49,149.47c.39,0,.59.15.78.3-.02-.23-.91.15-.78-.3Z"/>
      <path class="cls-2" d="M135.51,150.42c.24,0,.77-.2.98.11-.24-.22-1.18.27-.98-.11Z"/>
      <path class="cls-2" d="M140.16,150.35c.15.03.2.08.38.03.26.14-.04.31-.28.32l-.11-.34Z"/>
      <polygon class="cls-2" points="211.98 179.24 211.94 178.72 212.19 178.84 211.98 179.24"/>
      <path class="cls-2" d="M186.14,178.01c-.53-.1-.19-.39-.24-.47.42.2-.31.2.24.47Z"/>
      <polygon class="cls-2" points="167.03 170.32 167.18 170.36 166.96 170.86 167.03 170.32"/>
    </g>
  </g>
</svg>