<?xml version="1.0" encoding="UTF-8"?>
<svg id="Layer_3" data-name="Layer 3" xmlns="http://www.w3.org/2000/svg" viewBox="0 0 95 95">
  <defs>
    <style>
      .cls-1 {
        fill: #fff;
      }

      .cls-2 {
        fill: #ff4f20;
      }
    </style>
  </defs>
  <path class="cls-1" d="M68.21,53.49c0-1.77-.36-3.46-.99-5.04.3-1.12.48-2.28.48-3.47,0-7.59-6.41-14-14-14-6.74,0-12.57,5.11-13.76,11.57-.29-.02-.57-.04-.87-.04-11.55,0-14.47,13.42-8.74,20.19.16,1.11.46,2.18.87,3.2-.32,4.22,2.24,8.7,7.7,8.7.7,0,1.35-.08,1.95-.22,1.07.27,2.18.43,3.32.43s2.18-.15,3.23-.41c1.05.26,2.13.41,3.24.41.64,0,1.26-.06,1.88-.15,1.01.49,2.2.79,3.57.79,5.87,0,8.39-5.2,7.57-9.68.37-.93.65-1.89.8-2.89,2.31-2.51,3.75-5.82,3.75-9.39Z"/>
  <g>
    <g>
      <path class="cls-1" d="M62,75.02h-28.3s-6.07-18.91-6.07-18.91l6.07,18.91h28.3l6.07-18.91H27.62s-6.25.21-6.21-7.52,10.35-6.28,10.35-6.28c0,0-4.47-3.1-1.24-8.15,2.21-3.45,5.66-1.66,5.66-1.66,0,0-1.46-6.21,3.31-8.97,5.25-3.04,9.53,1.24,9.53,1.24,0,0,.21-4.87,1.52-5.11,7.66-1.38,10.08,11.32,10.08,11.32"/>
      <g>
        <path class="cls-2" d="M61.42,75.56c.88-.07-.47-.26.58-.11-.12.12-.29.21-.58.11Z"/>
        <path class="cls-2" d="M60.2,28.04c-.82-1.24-1.43-2.75-2.27-4.21-.82-1.44-1.97-2.88-3.46-3.42-.33-.14.3-.35-.52-.61-.97-.23-2.15-.27-3.27-.07-.29.04-.53.25-.67.51-.15.26-.27.54-.36.83-.2.58-.35,1.26-.47,1.85l-.17.88-.07.41-.03.19-.02.09-.09-.1c-.49-.51-.99-.91-1.42-1.25-.12-.08-.23-.16-.33-.24l.16-.04c-.33-.29-1.38-.32-2.1-.52.01-.08.27-.05.12-.2-.23.14-1.42-.13-1.75.06-.3-.11-.27-.29-.69-.36l-.42.31c-.28.2-.59.36-.92.46-.33.14-.68.25-1.05.36-.71.28-1.53.62-2.03,1.3.02-.1.11-.25-.03-.2-.77.85-1.41,1.92-1.77,3.11-.2.59-.3,1.22-.38,1.84-.02.32-.05.63-.05.94,0,.34.01.68.04,1.03-.01.46-.01.9.04,1.31-.02-.07-.06-.15-.09-.2-.02-.04-.13-.13-.16-.09.06.08.12.19.18.32.02.05.03.1.05.15.02.04,0,.04-.03.02l-.07-.03c-.29-.1-.74-.19-1.21-.15-.1-.06-.22-.09-.36-.08-.23-.03-.6.04-.88.14-.3.1-.6.21-.91.29l.04-.09c-.42.49-.91.3-1.06.9l-.43.12c.13.45-.74.6-.82,1.2l.08.03c-.17.47-.43.64-.55,1.1l-.06.03c-.23,1.06-.42,1.68-.11,1.66-.29.37-.02-1.04-.44-.49-.02.28,0,.55.03.82.01.27.08.54.15.8.05.27.17.5.27.78.15.26.25.54.46.8.36.75.82,1.38,1.37,1.86l.11.09s.04.03.05.04h-.07s-.29-.02-.29-.02c-.2,0-.39,0-.59,0-.39,0-.8.07-1.21.14-.58.01-1.16.02-1.71.1-.51.05-.99.15-1.47.27-.43-.01-.71.03-.84-.06-.17.1-.49.25-.8.4-.31.17-.57.39-.68.54.11-.06-.31-.04-.46.09-.61.35-.37.7-.91,1.17.12-.27.11-.42-.05-.43-.11.34-.33.63-.46,1-.16.35-.34.7-.37,1.07-.02-.13,0-.31-.1-.32.03.45-.12.78-.19,1.13-.06.35-.13.7-.08,1.06l-.16-.28c-.28,1.17.37.34.26,1.34-.07-.23-.14-.15-.21-.19.16.47.32,1.05.45,1.64.18.57.34,1.15.6,1.52-.05-.04-.09,0-.09,0,.43.87,1.01,1.79,1.99,2.27.29.27-.39.35.61.79.06-.17.49-.03.86.04.37.07.66.08.42-.19.41.13.95.28,1.47.29.56.03,1.08.03,1.39-.03-.41.14.46.45-.31.49l.58.22c-.08.15-.6-.05-.41.14.39-.01,1.51-.16,1.85-.1.71-.23,1.36-.65,2.52-.7-.54.14.32.41-.05.47l1.6-.71c.38-.02.09.29.64.2-.03-.1.21-.16.38-.24.14.04,1.6-.09,1.77.27.17.14-.63.08-.2.21.71,0,.74-.13,1.45-.13v.05c.48.05,1.4-.16.88-.36-.33-.01.13.22-.36.11.33-.21,1.15-.27,1.86-.28-.24.06-.21.16-.31.26.95-.29,1.96-.38,3.03-.5.01-.17-.39.32-.55.22,1.37.24,2.82-.34,3.96.01-.19.03-.1-.25-.09-.2.66.02.63.27,1.06.18.04.15.54-.05.98-.09.23-.11.12.07-.27.09.61-.13,3.08-.35,4.5-.14-.03-.1.87-.36,1.2-.35l-.13.23c.3.14,1.1-.02,1.15.18.7-.28-2.69.24-1.74.02.24.19,1.31-.36,1.11-.05.66,0,1.29-.27,1.92-.05-.18-.04-.53.32,0,.3.93-.04.27-.11,1.02-.19l.47-.09c.03-.22.84.03.49-.22.12.18,1.36-.11,1.26.26l-.13.29c.4-.02.66-.31.98-.44.05.03.16.09.14.13.06-.44.96.04,1.44-.31.42.08.96.08,1.44.1.24,0,.47.02.66.05.15.03.48.07.58.14.94-.13,2.02-.3,3.07-.2-.27.04-.59.05-.73.15.55.13.81.01,1.55-.06-.05.01-.03.03.03.05-.22.41-.74,1.52-1.05,2.07-.1.76.24.46.38.51-.19.24-.31.5-.41.79-.09.27-.18.68-.22.92-.07.48-.15.97-.45,1.26.01-.23.08-.96-.19-.49-.6.43-.06,1.23-.55,2.08l.42-.11c-.34.33-.23,1.4-.55,1.19.03.34-.46,1.03-.09,1.04-.76,1.4-.99,3.68-1.89,4.4-.01.23-.24.75-.03.69.3-.29.02-.54.2-.63-.05.19.03.27.07.3-.23.44-.37.8-.51.27-.54.96.23,1.25-.32,2.52-.12-.1-.21-.02-.31.37v.81c-.32.83-.47.38-.71.32-.07.28-.15.58-.22.85-.07.31-.12.6-.09.81-.17.19-.33.35-.48.48.17-.15.16,0,.1.24-.23.02-.59.01-.73.04l.27-.06c-.18-.1-.86-.04-1.24,0,.1.15.93.22,1.41.26-.3.11-.88.08-1.35.21.08-.12-.27-.17-.58-.18-.26,0-.57-.01-.76-.02-.43-.05-.49.22-.62.21-.01-.13-.71-.02-.37-.2.15-.04.34.12.58.01-.29-.09-.25-.32-.85-.15-.45.12.11.48-.73.33.22-.06.26-.16.44-.25l-.79-.13-.03.22c-.11-.06-.03-.08-.08-.11-.24.23-1.21.07-1.39.34-.4.02-.84-.15-1.23-.18l.07-.02c-.47-.13-1.09-.04-1.48.11l.02-.05c-.26-.02-.86.02-1.18.15-.65-.17-.22-.84-.93-.56-.66,0-1.03.41-.76.55-1.18-.15-2.51.21-3.61-.13-.17.09-.06.15-.41.2-1.73-.09-3.65.26-5.03-.17.5-.09.03-.22.02-.35-.41.2-.5-.21-.65.14.04.2,0,.3.49.38-1.03.11-2.6.11-3.17-.08.29.09.07.15-.16.22.08-.32-.69-.37-1.26-.26l-.08.2-.37-.2c-.24.06-.19.41-.87.22-.05-.08-.1-.15-.26-.21-.61.1-1.48.25-2.33.3-.16-.39-.29-.82-.36-1.23-.01-.35-.02-.68-.02-.98-.18-.46-.48-.84-.39-.28-.2-1.18-.38-1.81-.25-2.23-1.15-1.62-2.02-4.24-2.65-6.36l.16.02c-.05-.61-.34-.21-.37-.64.19.14.15-.52.46-.13-.11-.85-.58-.96-.81-1.47-.21-.02.25.38-.01.36-.09-.07-.22-1.16-.53-1.2.04-.24.3-.15.45-.07l-.29-.45c.13-.71,1.02,1.19,1.22.43l-.19-.44c.15-.53.71,1.1.45-.07-.3-.45-.83-.75-.81-.27-.41-1.01-.81-.27-1.15-1.38.07-.36.32.88.48.59.06-.59-.46-1.01-.53-1.5.06.55-.36.2-.52-.11-.05-.61.38.28.15-.53-.2-.08-.56-.78-.47-.11-.45-.17-.17-.86-.59-1.21.17-.34.85.63.7-.29-.12.13-.33-.23-.53-.43l2.94-.94c.14.14.27.2.36-.04.04.37-.14.47-.37.26,0,.54.83,1.05.4,1.37l.31.09c-.03.18-.02.42-.08.71.13.44.79,1.29.4,1.37.08.13.38,1.12.52.65-.04-.67-.42-.64-.17-1.1-.15.53.32.87.53,1.2l-.13.1c.12.19.25.69.45.77-.14-.13-.21-.02-.19.16l.29.15c.39.82-.33.33,0,1.14l-.38-.58c.08.13-.03.48.16.86.25.09.59.3.79.39.24.44-.16.29.2.68l-.44-.53c-.1-.07-.2.52,0,1.15.2.38.69.91.6.24.1.32.12.8-.11.59.3.69.19-.16.51.41-.05.3,0,1.14-.04,1.68l-.55-.54.13.43c-.45-.47-.12.35-.51.13.05.31.26.63.43.89.19-1,.94.76,1.28.37.49,1.14-.79,1.06.26,2.07.05-.24.55.24.19-.46.19.74.58.36.68,1.28-.38-.58-.21.82-.75-.02.16.02-.06-.55-.14-.68-.06.35-.44.07-.2.82.19.44.4,1.06.59.9.23-.1-.25-.69.09-.47.19.44.2.73.24.94.02.16.04.17.26.13-.06-.08.07-.52.26-.51l.08.16.04.08s.01,0,.02,0c.02,0,.04,0,.06,0-.05.03-.1.05-.16.07-.05.21.24-.11.24-.1h0c-.07.11-.12.22-.14.34-.06.11-.13.12-.19.11-.02-.1-.01-.21-.24,0,.02.11.08.14.13.16.11-.05.18-.09.26-.02-.06.04-.12.05-.19.09.08.02-.17.63.69.27.52-.14.14-.17.15-.34,1.14-.05,1.47-.23,2.21-.26-.15.34,1.29.03.48.38-.37-.2-2.01-.18-2.42.14.44.4-.98-.06-.96.35.21,0,.51.11.62.24.12.13.15.3.22.43.25.02.5-.09.65-.13.11-.24-.22-.24-.24-.49,1.02.07,1.99-.07,2.55-.31.34.12.23.37-.17.39,1.21-.07,2.5-.04,3.65.03-.74-.4,1.28-.09.77-.43-.62-.09-1.14-.37-.81-.55.38.03-.01.17.15.26.49-.22.76.35,1.24,0-1.1.13-.21.49-.42.8.8-.18-.03.22.75.22.79-.17,1.77-.31,2.65-.38,1.11.3,2.81,0,3.8,0,.52.16.17.51.73.57.66,0-.49-.38.49-.22l-.09.07c.29-.08,1.79.24,2.08-.27l-.3.38c.18.03.35-.05.5-.09,0,.12.22.24-.08.32.6.26,1.27-.04,1.92-.05l-.42-.23c1.12-.18,1.87.05,2.96-.03l-.03.22.64-.13c-.16.21.43.35.78.17l-1.68.54c-.47-.13.51-.27.22-.49-.25-.19-1.25-.13-1.41.08.38.02.4-.02.7-.1.13.31-.46.3-.74.5.2-.01.49.08.53-.02-.39.15-.79.17-1.45.18.45-.12-.24-.19-.07-.28-.05.27-.68.36-1.5.28-.58-.31-1.53.2-2.47.12.38-.28.87-.5,1.44-.61-.59-.14-.66,0-1.25-.13-.29.21-.49.52-1.26.64l-.04-.2c-.7.1-.7.4-1.59.35-1.53-.1-3.1-.1-4.26-.13l-.04-.2c-.65.43-2.16.16-3.03.35-1.48-.2-3.22.19-3.99-.16-.7.04-1.37.08-2.04.12-.4.02-.81.03-1.21.05l-1.38.04c-.25-.73-.5-1.47-.76-2.23-.19-.57-.37-1.15-.55-1.76l.42.34c-.36-.4.07-.35-.12-.79-.06.59-.49-.54-.77-.8-.15-1.22-.86-2.62-1.39-3.58l.18-.1c-.69-.91-.77-2.25-1.12-3.55.03-.17.14-.46,0-.84-.54-.6-.63-.97-1.15-1.93-.24-.75-.55-1.98-.67-2.78-.23-.45-.43-.9-.62-1.37l2.18-.7c.95,2.29,1.56,4.73,2.56,7.09l-.16.28c1.39,2.67,2.07,6.29,3.09,8.63l-.46-.11c.12.79.66,1.69.87,1.41-.02.18.12.34.17.47.12,0,.2.02.23.16.21.08.63-.19,1.26-.24,1.63.15,2.24.12,3.77.04l-.38-.03c-.17.09-.18.26.2.29.57-.11,2.11.11,1.54-.38,1.64.28,3.83-.23,5.43.15-.14-.13.27-.16.44-.25,1.44,0,2.95.26,4.1.04.23.07-.36.23.22.24.35-.05,0-.17.44-.25,2.33-.25,4.73.26,6.85.19.51-.03,1.03-.06,1.54-.08l.37-.05.06-.24.03-.11.15-.48c.21-.66.42-1.32.63-1.98.42-1.31.83-2.6,1.23-3.85l.08.07c.02-1.27,1.23-2.59.99-3.68.18-.24.38-1.03.49-.77.04-.98,1.07-2.53,1.16-3.89-.02.05-.04.17-.04.31.15-.33.17-.33.21-.42.04-.08.06-.16.08-.24.04-.16.04-.28.12-.45-.07,0-.13-.03-.19-.07.09-.04.22-.07.36-.17-.01-.09-.28,0-.44.08-.17.07-.25.1-.22-.14-.15,0-.17.24-.1.22l-.2-.03s-.04,0-.13-.01h-.31c-.41-.01-.83-.01-1.25-.02-.84,0-1.68.03-2.53.06-1.7.07-3.41.15-5.1.22-2.43-.28-.15-.79-2.06-.44-.16-.09-.11.18-.14.08-.74.13-1.15-.53-1.67-.28.21.29-.34.16-.36.34-1.48-.19-1.78-.45-2.95-.23l.09-.15c-1.37.43-2.96.2-4.11.7-3.78.04-7.48.14-11.16.22-1.84.04-3.67.08-5.5.12-2.31.12-4.88-.78-6.55-2.74-1.3-1.54-1.88-3.42-2.05-5.11-.15-1.62-.16-3.53.69-5.38.42-.91,1.05-1.76,1.81-2.4.38-.32.76-.64,1.18-.86.41-.25.83-.47,1.25-.62.42-.19.85-.33,1.27-.43.43-.13.85-.21,1.27-.28.21-.04.42-.08.63-.09.14-.01.09,0,.11,0h.05s.17.05.17.05v-.07s.09-.02.12-.03c.05-.04.08-.09.09-.14,0-.02,0,0,.02.04,0,.02-.01-.06-.02-.08l-.05-.21c-.04-.14-.07-.27-.11-.41-.11-.57-.3-1.21-.26-2.31.05.11.05.26.13.1-.14-.07-.15-.53-.03-.96.1-.44.21-.89.12-1.04.14-.33.27-.66.42-.97l.49-.87c.34-.58.81-1.18,1.37-1.7.58-.52,1.28-.96,2.07-1.24.7-.28,1.96-.33,1.67-.31.04,0,.08,0,.12.02.01.03.15.3.25.32-.01-.03-.03-.07-.05-.1-.02-.03-.05-.08-.1-.13l.1.09c-.06-.13-.23-.27-.34-.35-.01-.02-.03-.03-.04-.03,0,0-.01,0-.01,0,0,0,0,0,0,0,0-.02,0,.02,0-.13.02-.43.04-.86.12-1.29.11-.86.37-1.74.72-2.58.73-1.69,2.09-3.2,3.68-4.08,1.51-.85,3.29-1.39,5.1-1.3.9.02,1.77.19,2.6.44.4.14.84.29,1.17.45.08.04.1.06.15.09.08.06.16.12.24.18.03,0,.01-.1.02-.15.02-.01.04-.04.05-.08.02-.05.04-.12.05-.2l.05-.23.1-.38c.09-.36.26-.73.4-1.09.34-.68.84-1.33,1.56-1.55.36-.09.72-.17,1.07-.26.36-.07.78-.05.98-.07.87.08,1.73.3,2.5.65.77.36,1.44.82,2.03,1.32,1.16,1.03,1.98,2.21,2.66,3.41.67,1.2,1.21,2.44,1.69,3.7.48,1.28.9,2.53,1.28,3.97,0,0-.06-.05-.17-.14-.1-.09-.25-.23-.42-.43-.34-.41-.77-1.06-1.22-2.1Z"/>
        <path class="cls-2" d="M60.36,75.59c-.19-.16-.8-.25-.31-.47.06.15.38.33.31.47Z"/>
        <path class="cls-2" d="M43.91,73.9s-.23-.07-.29-.09c.2-.01.39-.15.55-.06-.21.01-.17.09-.27.16Z"/>
        <path class="cls-2" d="M39.7,73.81c.06-.15.96-.26,1.5-.28l-1.5.28Z"/>
        <path class="cls-2" d="M35.78,73.2c-.34-.12-.25-.19.21-.19.03.08-.12.12-.21.19Z"/>
        <path class="cls-2" d="M35.5,73.54c-.08,0-.15,0-.22-.01-.03,0-.04-.02-.05-.04-.03-.03-.04-.07-.05-.12-.01.06.04.04.09.04.09,0,.31,0,.24.13Z"/>
        <path class="cls-2" d="M33.46,68.05c-.07-.19-.32-.58-.23-.81-.04.24.48.89.23.81Z"/>
        <path class="cls-2" d="M32.04,64.35c-.03-.12-.02-.18-.1-.31,0-.24.17-.04.24.14l-.14.17Z"/>
        <polygon class="cls-2" points="67.52 61.43 67.45 61.85 67.33 61.75 67.52 61.43"/>
        <path class="cls-2" d="M41.75,55.01c-.43.09-.3-.14-.37-.16.39-.01-.14.18.37.16Z"/>
        <polygon class="cls-2" points="25.02 55.1 25.13 55.15 24.96 55.4 25.02 55.1"/>
      </g>
    </g>
    <g>
      <path class="cls-1" d="M49.99,31.39h11.74s2.59-.44,5.28,3.59c1.93,2.9-.86,6.07-.86,6.07"/>
      <g>
        <path class="cls-2" d="M50.05,30.85c-.09.07.05.26-.06.11.01-.12.03-.21.06-.11Z"/>
        <path class="cls-2" d="M66.63,41.04c-.44-.69.41-.58.16-1.12,0-.05.36.21.32.09-.37-.57.14-.8.7-1.05l.1.06c.11-.05-.23-.26-.16-.32.08.02.1.06.21.07-.22-.09-.07-.18-.23-.26.1,0,.28.04.39.03l-.25-.11c-.59-.26.11-.3-.19-.53.06.02.11.04.17.04-.33-.33-.25-.64-.41-.92.1,0,.27,0,.38-.01-.28,0-.36-.09-.42-.15.28-.07-.27-.1-.12-.2h.07c-.31-.01.15-.13-.22-.11l.22-.08c-.41.06.19-.14-.03-.15l-.08.02c-.11-.02.09-.1,0-.13l.04-.02c-.13-.07.05-.2-.25-.1.23-.12.15.06.48-.11-.43-.26-.54-.59-.75-.91.08-.11.1-.15.19-.23-.08,0-.13-.09-.29-.02.01,0,.12-.11.12-.14.06-.13-.33.14-.26,0,.09-.03.18-.08.27-.16-.24.09-.26,0-.37-.02.05-.02.09-.03.17-.09-.28.1-.04-.17-.23-.11l.16-.09c.1-.23-.33.21-.29.05.06-.02.11-.07.17-.11-.33.13-.34-.06-.48-.06.02-.01.06-.05.06-.05-.1-.05-.08-.21-.27-.2.03-.09.35-.29.22-.33-.27.25-.24-.03-.51.3-.02-.11-.02-.31-.15-.27.13-.07.29-.35.37-.32l.12-.2c.11-.1,0,.08.13-.07-.04-.02-.23,0-.21-.07-.22.11-.56.37-.67.33.14-.07.25-.32.32-.35l-.59.42s.19-.23.08-.19c-.06.08-.12.11-.18.16.02-.05-.18-.02.04-.32.08-.12.1-.02.15-.15-.06-.04-.14.05-.2.01l.03-.04c0-.07-.2.04-.29.23.02.03.12-.18.1-.07-.16.15-.25.15-.3.11.05-.03.11-.11.18-.19-.24.17-.37.2-.51.25-.1.14.21-.24.17-.16.02-.27-.39.14-.3-.2.03-.02-.12.22-.09.17-.04-.05.09-.26,0-.2.07-.13-.07.02-.12.04-.07.08.03-.07.06-.07-.11.08-.39.19-.41-.05-.04.09-.21.3-.23.28l.1-.21c.03-.14-.09-.02-.02-.2-.16.23.3-.13.15.04.05-.19-.24.29-.11,0-.06-.02-.19.21-.17,0,0,.04.15-.28.1-.28-.09.01-.06.1-.14.15l-.07.08c-.07.21-.05-.05-.1.2.04-.18-.13.08-.02-.27l.09-.28s-.13.28-.19.4c0-.03,0-.09.02-.13-.11.43-.07-.06-.17.27-.03-.16-.14-.05-.13-.32-.07.13-.12.28-.16.18.01-.04.03-.05.04-.15-.02-.14-.04-.02-.07.05.01-.06-.05-.27-.09-.42-.04.13-.02.37-.02.52-.02-.28-.09-.09-.01-.02l-.19.02s-.07.05-.1-.1c.02-.06.1-.22.04-.33-.06-.44-.12.32-.22.11l.02.36c-.04-.23-.15.21-.14-.16-.03.13-.12-.12-.11.24-.16-.3-.4.18-.5-.46-.02.06-.08,0-.07.18.04.2.05-.14.07,0-.02.01-.03.11-.03.16-.05-.08-.09-.11-.04-.4-.11-.22-.12.6-.26.47,0-.15,0-.2-.05-.18l-.08.25c-.09-.06-.05-.33-.05-.58-.05.04-.11.03-.13.22l-.06-.31c.04.23-.04.15-.06.21l.02-.06c0-.1-.07-.04-.1,0,0,.15.07.22.1.26-.03.11-.06.08-.1.21.01-.24-.08-.17-.12-.2-.05-.05-.05.22-.06.21,0-.13-.07-.02-.04-.2.02-.04.04.12.06.01-.03-.09-.03-.32-.09-.15-.05.12.01.48-.08.33.02-.06.03-.16.05-.25l-.08-.13v.22c-.01-.06,0-.08-.01-.11-.02.23-.13.07-.15.34-.04.02-.09-.15-.13-.18v-.02c-.04-.13-.11-.04-.15.11v-.05s-.09.02-.12.15c-.07-.17-.02-.84-.1-.56-.07,0-.11.41-.08.55-.12-.15-.26.21-.38-.13-.02.09,0,.15-.04.2-.18-.09-.38.26-.52-.17.05-.09,0-.22,0-.35-.04.2-.05-.21-.07.14,0,.2,0,.3.05.38-.11.11-.27.11-.33-.08.03.09,0,.15-.02.22,0-.32-.07-.37-.13-.26v.2s-.05-.2-.05-.2c-.02.06-.03.41-.08.22,0-.08,0-.15-.02-.21-.06.16-.15.43-.22.27l-.06-.29s-.08.2-.03.29c-.11-.17-.19-.19-.23-.44-.2.6-.48.63-.71.58v-.15c-.05-.14-.03.26-.07.15.02-.14-.05-.3,0-.47-.09-.15-.11.25-.17.32,0,.19.05-.12.04.12,0,.07-.12-.15-.14.14-.02-.11,0-.33,0-.45l-.05.14c-.07-.34.15-.61.08-1.03l-.05.05c-.05-.3.13-.34,0-.45-.05.14-.1.57-.05.69-.11.08-.05.69-.17.67-.03-.17.1-.04.07-.28-.06-.23-.11.13-.17.05.06.11,0,.4-.03.46-.06-.14.04-.28-.05-.3-.01.17-.09.29-.03.41-.03.38-.09-.11-.14.19-.03-.27.09-.62,0-.75.02.26-.12.35-.07.73-.04-.07-.04-.28-.01-.44-.05-.16-.13.47-.15-.04l-.02.26c-.02-.09-.04-.15-.07-.29-.05,0-.15.36-.15-.04-.02.04-.12.02-.08.3.07.17.08-.2.11.17-.05-.3-.1.04-.14.14v-.15c-.03.06-.08.03-.1.19.02-.09,0-.19,0-.23l-.02.23c-.09.12-.02-.41-.11-.34l.07-.18s-.05-.18-.09-.11c-.02.21-.05.47-.06.64-.05.09-.02-.24-.07-.02l.07-.26c.01-.07-.04-.35-.11-.35-.04.07-.11.38-.04.5-.03,0-.08-.13-.06-.28-.08.07.01.23-.06.36-.03-.14-.11-.35-.17-.55l.07-.36h-.05c.06-.29-.03-.22,0-.52-.03-.05-.07.06-.1.13.09.48-.1.66-.08,1.1-.13.12-.08-1.07-.21-.38.02.11-.04.45.04.32-.08-.05-.05.44-.15.26.07-.18-.07-.45.03-.71,0,.15.06.11.07.07-.03-.17,0-.44-.07-.44-.05.04-.12.05-.11.28,0,.25.08-.03.04.23-.1.09-.12-.3-.16.15.06-.03.08.23.08.4l-.07.11v-.17c-.1-.12-.02.3-.13.26l-.05-.33c.03-.29.16.13.14-.34-.07-.02-.1.22-.17.1.02-.04.04-.05.05-.09-.03-.02-.05-.63-.16-.27-.05.14-.01.17-.02.34-.12.05-.15.23-.23.26.02-.34-.13-.03-.05-.38.04.2.21.18.25-.14-.04-.4.09.06.12-.35-.09,0-.09-.41-.11-.67-.03-.02-.05.09-.07.13-.01.24.02.24.03.49-.11-.07-.21.07-.27.31-.04-.12-.02-.37.02-.39-.13.07-.26.04-.38-.03.08.4-.13.09-.08.43.06.09.12.37.08.55-.04-.03,0-.17-.02-.26-.05.22-.08-.35-.13,0,.11-.13.02-.49.04-.8-.08.18,0-.22-.08-.22-.08.17-.18.31-.28.38-.12-.3-.29,0-.4,0-.05-.16-.02-.51-.08-.57-.07,0,.05.38-.05.22v-.07c-.02.08-.18-.24-.21.27l.03-.38s-.04.05-.05.09c0-.12-.02-.24,0-.32-.06-.26-.13.04-.2.05l.04.23c-.12.18-.19-.05-.31.03v-.22s-.06.13-.06.13c.02-.21-.05-.35-.08-.17l.17-.54c.05.13-.05.27-.02.49.03.19.13.13.15-.08-.04-.02-.04.02-.07.1-.01-.31.05-.3.08-.5-.02.01-.05-.08-.06.02.04-.15.08-.17.15-.18-.05.12.03.19,0,.28,0-.27.07-.36.16-.28.06.31.16-.2.26-.12-.04.28-.09.5-.15.61.06.14.07,0,.13.13.03-.21.05-.52.13-.64v.2c.08-.1.08-.4.17-.35.16.1.32.1.44.13v.2c.07-.43.23-.16.32-.35.15.2.34-.19.41.16.27-.16.51-.31.79-.23l-.05.3c.05-.22.03.17.08.13-.06-.24.07-.31.1-.49.13.23.29-.02.4-.23v.2c.12-.38.25-.05.39.02.02.08.04.27.08.25.08-.33.12-.3.23-.51.08,0,.21.08.3.21.31-.46.62-.17.94-.44l.02.24c.31-.51.69-.05.95-.31l-.03.41c.08.13.19-.11.17-.4.08.12.21-.2.26.14.08.08.1-.19.17-.24.17.15.23.12.39.04l-.04-.03c-.02.09-.02.26.02.29.06-.11.22.11.16-.38.17.28.4-.23.56.15-.01-.13.03-.16.05-.25.15,0,.31.26.43.04.02.07-.04.23.02.24.04-.05,0-.17.05-.25.24-.25.49.26.71.19.39-.26.8-.13,1.18-.17v.1c.12-.37.29.38.39-.18.03.09.11.04.09.23.09-.23.24.13.37,0l-.26.02c.08-.03.13-.07.16-.11-.04,0-.03.01-.09.06.37.17.5-.1.75.1-.03.04-.07.07-.08.17.07.19.24-.39.24.08.05,0,.06-.23.03-.22.45.24.97.07,1.46.14.2.39-.28.74.08.52-.02.09.09-.16.05-.07.15-.08-.09.54.08.34.1-.27.11-.13.19-.28.09.26-.01.5.22.38l-.08.13c.37-.29.41.01.81-.32.87.47,1.73.91,2.39,1.57.25.38.56.7.81,1.05.24.3.56.82.68,1.4-.27.41-.26.4,0,.62-.07,0-.09,0-.14.03.32-.09.1.18.4.12.04.43.22.8.24,1.23-.04-.07-.31-.08-.28,0l.21.07-.09.02c.05.05.22.11.32.04.17.56.02,1.11-.2,1.59-.22.48-.5.88-.63,1.32-.21.15-.22.48-.27.72-.73.44-1.26.64-1.51,1.42,0,0-.13-.17-.28-.37-.15-.2-.29-.42-.3-.58Z"/>
        <path class="cls-2" d="M50.16,30.82c.02.16.08.25.03.47,0-.15-.04-.33-.03-.47Z"/>
        <path class="cls-2" d="M51.87,32.5s.02.07.03.09c-.02.01-.04.15-.06.06.02-.01.02-.09.03-.16Z"/>
        <path class="cls-2" d="M52.31,32.6c0,.15-.1.26-.16.28l.16-.28Z"/>
        <path class="cls-2" d="M52.71,33.2c.04.12.03.19-.02.19,0-.08.01-.12.02-.19Z"/>
        <path class="cls-2" d="M52.74,32.87s.05.08.07.17c0-.12-.08.08-.07-.17Z"/>
        <path class="cls-2" d="M53.63,33.29s.07-.13.09.03c-.02-.11-.1.19-.09-.03Z"/>
        <path class="cls-2" d="M54.04,33.07s.02.04.03,0c.02.07,0,.17-.02.19v-.18Z"/>
        <polygon class="cls-2" points="61.54 32.49 61.49 32.56 61.5 32.42 61.54 32.49"/>
        <path class="cls-2" d="M63.95,33.25c.08-.05-.06.13-.07.15-.04,0,.12-.14.07-.15Z"/>
        <polygon class="cls-2" points="65.63 33.8 65.62 33.8 65.84 33.6 65.63 33.8"/>
      </g>
    </g>
    <g>
      <path class="cls-1" d="M55.37,41.05h12.7s5.52.55,5.52,8.15c0,5.66-5.52,6.9-5.52,6.9"/>
      <g>
        <path class="cls-2" d="M55.45,40.51c-.12.07.07.26-.08.11.02-.12.04-.21.08-.11Z"/>
        <path class="cls-2" d="M68.57,56.35c.12-.84.88-.32,1.06-.96.03-.05.18.38.24.24.09-.72.78-.72,1.48-.72l.05.11c.14,0-.02-.38.1-.4.05.06.05.11.14.17-.13-.19.07-.21-.01-.37.09.04.22.18.33.21l-.14-.24c-.33-.57.33-.25.23-.65.04.05.06.1.12.12-.05-.52.25-.83.33-1.23.07.06.21.16.32.2-.23-.16-.23-.3-.24-.42.28.09-.16-.28.03-.31l.05.04c-.24-.21.22-.05-.09-.26l.23.04c-.36-.19.25-.03.08-.18l-.08-.03c-.07-.1.13-.06.09-.15h.05c-.06-.17.19-.18-.12-.27.26.03.07.17.45.21-.06-.29-.07-.55-.06-.81.02-.25.1-.5.1-.75.13-.04.17-.08.29-.08-.06-.06-.05-.2-.21-.25,0,.02.17-.02.18-.05.13-.09-.35-.11-.2-.21.08.04.19.06.31.05-.24-.09-.19-.21-.29-.31.05.02.09.04.19.04-.29-.11.05-.21-.13-.3l.19.03c.22-.17-.39-.04-.26-.18.06.03.13.02.21.02-.34-.12-.24-.33-.36-.44.03,0,.08,0,.08,0-.05-.13.06-.29-.11-.43.07-.06.45-.03.36-.17-.37.05-.19-.23-.59-.09.04-.13.15-.34.02-.4.15.03.44-.14.49-.04l.21-.12c.15-.01-.04.09.15.04-.02-.05-.19-.18-.14-.24-.24-.06-.66-.06-.75-.2.16.04.39-.13.46-.09l-.75-.05s.28-.08.17-.13c-.09.03-.16.01-.24.01.04-.03-.14-.17.2-.29.13-.06.1.06.21-.03-.03-.09-.15-.06-.18-.15l.05-.02c.04-.08-.2-.13-.37,0,0,.04.2-.08.12.01-.21.02-.3-.05-.34-.14.07,0,.16-.03.26-.05-.32-.02-.45-.1-.6-.18-.16.06.31-.07.23-.02.16-.25-.43-.19-.17-.46.04,0-.22.12-.17.09-.02-.08.21-.19.1-.19.13-.07-.07-.04-.14-.06-.11.03.06-.05.09-.01-.15-.01-.48-.15-.38-.41-.08.05-.36.11-.37.08l.2-.11c.09-.1-.09-.09.07-.21-.28.09.38.13.14.16.14-.13-.39.07-.12-.08-.05-.06-.3.03-.17-.16-.02.04.29-.13.24-.18-.1-.07-.11.04-.22,0h-.11c-.18.15-.03-.09-.2.1.14-.13-.19-.04.1-.27l.23-.18c-.05-.02-.29.14-.41.2.02-.02.05-.07.09-.1-.34.29-.05-.11-.34.08.05-.18-.15-.19,0-.41-.15.05-.31.12-.31,0,.04-.02.07-.01.13-.08.05-.13-.04-.06-.12-.03.05-.04.09-.27.14-.44-.14.05-.27.26-.37.37.21-.39-.33.11-.17-.26.05-.04.21-.11.23-.24.19-.4-.3.18-.27-.06l-.17.32c.08-.22-.25.1-.04-.21-.1.1-.05-.17-.22.15,0-.36-.44-.03-.28-.65-.05.04-.08-.04-.14.13-.04.2.11-.1.07.03-.03,0-.07.09-.09.13-.02-.1-.05-.14.12-.39-.04-.26-.35.51-.44.33.06-.14.06-.19.01-.19l-.16.21c-.07-.08.05-.33.12-.57-.07.03-.13,0-.21.17l.02-.32c-.01.23-.08.13-.12.19l.04-.05c.02-.1-.06-.06-.1-.03-.03.15.02.23.04.28-.05.1-.09.07-.15.19.07-.24-.05-.19-.07-.22-.02-.06-.07.21-.07.2.02-.13-.04-.03,0-.2.02-.04,0,.13.04.02,0-.1.02-.32-.04-.16-.05.12-.04.48-.08.32.01-.07.03-.16.05-.25l-.06-.13v.22c-.01-.06-.01-.07-.01-.11,0,.23-.15.07-.17.34-.06.02-.12-.15-.17-.18v-.02c-.05-.13-.14-.04-.19.11v-.05s-.12.02-.16.15c-.09-.17-.03-.84-.13-.56-.09,0-.14.41-.1.55-.16-.15-.35.21-.5-.13-.02.09,0,.15-.06.2-.24-.09-.5.26-.69-.17.07-.09,0-.22,0-.35-.06.2-.07-.21-.09.14,0,.2,0,.3.07.38-.14.11-.36.11-.44-.08.04.09,0,.15-.02.22.01-.32-.09-.37-.17-.26v.2s-.06-.2-.06-.2c-.03.06-.03.41-.11.22,0-.08,0-.15-.02-.21-.08.16-.2.43-.29.27l-.07-.29s-.1.2-.04.29c-.15-.17-.25-.19-.3-.44-.26.6-.64.63-.94.58v-.15c-.07-.14-.03.26-.09.15.03-.14-.06-.3,0-.47-.12-.15-.15.25-.23.32-.01.19.06-.12.05.12-.01.07-.16-.15-.18.14-.03-.11,0-.33,0-.45l-.07.14c-.09-.34.2-.61.11-1.03l-.07.05c-.06-.3.17-.34,0-.45-.07.14-.13.57-.07.69-.15.08-.07.69-.23.67-.04-.17.13-.04.1-.28-.08-.23-.15.13-.22.05.07.11.01.4-.04.46-.08-.14.05-.28-.06-.3-.02.17-.13.29-.03.41-.04.38-.12-.11-.18.19-.04-.27.12-.62,0-.75.02.26-.16.35-.09.73-.05-.07-.05-.28-.02-.44-.07-.16-.17.47-.2-.04l-.02.26c-.03-.08-.05-.15-.09-.29-.06,0-.2.36-.2-.04-.02.04-.16.02-.11.3.09.17.1-.2.15.17-.06-.3-.13.04-.18.14v-.15c-.04.06-.11.03-.13.19.02-.09.01-.19-.01-.23l-.03.23c-.12.12-.03-.41-.15-.34l.09-.18s-.06-.18-.12-.11c-.03.21-.06.47-.08.64-.07.09-.03-.24-.1-.02l.09-.26c.01-.07-.06-.35-.15-.35-.06.07-.15.38-.06.5-.05,0-.11-.13-.07-.28-.1.07.01.23-.08.36-.04-.14-.15-.35-.22-.55l.09-.36h-.06c.08-.29-.04-.22,0-.52-.04-.05-.09.06-.13.13.12.48-.14.66-.1,1.1-.17.12-.11-1.07-.28-.38.03.11-.05.45.05.32-.11-.05-.07.44-.2.26.09-.18-.1-.45.03-.71,0,.15.07.11.09.07-.04-.17,0-.44-.1-.44-.07.04-.16.05-.14.28,0,.25.1-.03.06.23-.13.09-.15-.3-.21.15.08-.03.1.23.1.4l-.1.11.02-.17c-.15-.12-.05.3-.2.26l-.07-.33c.04-.29.22.13.19-.34-.1-.02-.13.22-.22.1.02-.04.05-.05.07-.09-.03-.02-.07-.63-.21-.27-.07.14-.02.17-.02.34-.16.05-.2.23-.3.26.02-.34-.18-.03-.07-.38.05.2.28.18.33-.14-.06-.4.12.06.16-.35-.13,0-.12-.41-.14-.67-.03-.02-.07.09-.09.13-.01.24.03.24.03.49-.14-.07-.27.07-.35.31-.05-.12-.03-.37.02-.39-.17.07-.34.04-.5-.03.1.4-.18.09-.11.43.08.09.16.37.11.55-.05-.03,0-.17-.02-.26-.07.22-.1-.35-.17,0,.15-.13.03-.49.06-.8-.11.18,0-.22-.1-.22-.11.17-.24.31-.36.38-.15-.3-.39,0-.52,0-.07-.16-.02-.51-.1-.57-.09,0,.07.38-.07.22v-.07c-.03.08-.23-.24-.27.27l.04-.38s-.05.05-.07.09c0-.12-.03-.24.01-.32-.08-.26-.17.04-.26.05l.06.23c-.15.18-.26-.05-.41.03v-.22s-.08.13-.08.13c.02-.21-.06-.35-.11-.17l.23-.54c.06.13-.07.27-.03.49.03.19.17.13.19-.08-.05-.02-.06.02-.1.1-.02-.31.06-.3.1-.5-.03.01-.07-.08-.07.02.05-.15.11-.17.2-.18-.06.12.03.19.01.28,0-.27.09-.36.21-.28.08.31.21-.2.34-.12-.05.28-.12.5-.2.61.08.14.09,0,.17.13.04-.21.07-.52.17-.64v.2c.1-.1.1-.4.22-.35.21.1.43.1.59.13v.2c.1-.43.3-.16.42-.35.2.2.44-.19.55.16.36-.16.68-.31,1.05-.23l-.06.3c.07-.22.04.17.11.13-.08-.24.09-.31.14-.49.17.23.38-.02.53-.23v.2c.15-.38.33-.05.52.02.02.08.05.27.11.25.1-.33.15-.3.3-.51.11,0,.28.08.39.21.41-.46.82-.17,1.24-.44l.03.24c.41-.51.91-.05,1.26-.31l-.03.41c.11.13.25-.11.22-.4.11.12.27-.2.34.14.11.08.14-.19.23-.24.22.15.31.12.52.04l-.05-.03c-.02.09-.03.26.03.29.08-.11.29.11.21-.38.23.28.53-.23.75.15-.02-.13.04-.16.06-.25.2,0,.41.26.56.04.03.07-.05.23.03.24.05-.05,0-.17.06-.25.35-.23.56.22,1.15.22.85-.11,1.4.23,2,.47l-.05.09c.37-.25.25.56.67.15,0,.11.14.13.01.28.29-.14.24.46.63.33-.01-.02-.03-.01-.08,0,.07.3.41.22.48.53-.05.01-.1,0-.17.08-.05.2.45-.15.17.23.04.03.19-.15.16-.16.27.5.87.73,1.29,1.16,0,.5-.65.46-.17.53-.06.07.16-.08.08-.03.18.04-.36.43-.11.38.23-.18.17-.03.32-.12-.05.31-.26.46.02.53l-.14.06c.5,0,.38.33.91.32.58,1.13,1.04,2.25,1.23,3.43-.03.59.07,1.11.04,1.75-.01.31-.03.63-.08.94-.07.32-.17.63-.3.94-.44.2-.46.21-.4.57-.06-.03-.06-.06-.13-.05.31.12-.04.23.24.36-.19.45-.35.88-.57,1.34,0-.09-.21-.25-.23-.16l.13.19-.09-.03c0,.08.11.22.23.22-.22.64-.7,1.11-1.21,1.48-.52.37-1.06.65-1.52,1.02-.31.05-.56.37-.79.57-.5.04-.95.03-1.36.09-.43.06-.74.17-1.23.45,0,0,0-.22.02-.47.01-.25.05-.53.17-.67Z"/>
        <path class="cls-2" d="M55.59,40.48c.03.16.11.25.04.47,0-.15-.05-.33-.04-.47Z"/>
        <path class="cls-2" d="M57.86,42.17s.03.07.04.09c-.03.01-.05.15-.08.06.03-.01.02-.09.04-.16Z"/>
        <path class="cls-2" d="M58.44,42.27c0,.15-.13.26-.21.28l.21-.28Z"/>
        <path class="cls-2" d="M58.98,42.87c.05.12.03.19-.03.19,0-.08.02-.12.03-.19Z"/>
        <path class="cls-2" d="M59.01,42.53s.07.08.09.17c0-.12-.1.08-.09-.17Z"/>
        <path class="cls-2" d="M60.18,42.96s.09-.13.12.03c-.03-.11-.14.19-.12-.03Z"/>
        <path class="cls-2" d="M60.73,42.74s.02.04.05,0c.03.07,0,.17-.03.19l-.02-.18Z"/>
        <polygon class="cls-2" points="69.82 42.91 69.74 42.94 69.83 42.82 69.82 42.91"/>
        <path class="cls-2" d="M71.97,45.77c.11.02-.12.08-.13.09-.03-.04.18-.04.13-.09Z"/>
        <polygon class="cls-2" points="73.15 47.72 73.14 47.7 73.44 47.67 73.15 47.72"/>
      </g>
    </g>
    <g>
      <line class="cls-1" x1="40.74" y1="57.48" x2="43.22" y2="73.22"/>
      <g>
        <path class="cls-2" d="M41.28,57.44c-.08-.05-.25.07-.12-.02.12-.01.21-.01.12.02Z"/>
        <path class="cls-2" d="M43.56,72.97c-.78-.07-.06-.43-.57-.56-.04-.02.41-.06.31-.1-.62-.11-.32-.47.1-.78h.12c.08-.06-.32-.06-.27-.12.08-.01.11,0,.22-.03-.24.02-.12-.07-.3-.06.09-.03.27-.06.37-.1h-.27c-.64.04.02-.18-.33-.23.06,0,.11,0,.17-.02-.41-.11-.37-.33-.54-.5.1,0,.27-.03.37-.06-.28.03-.36-.01-.42-.05.28-.07-.28-.05-.13-.13h.06c-.31,0,.16-.1-.2-.08l.22-.06c-.41.04.2-.1-.01-.1h-.08c-.1,0,.1-.05.02-.08h.05c-.12-.07.1-.15-.22-.1.25-.07.13.05.49-.05-.36-.19-.34-.46-.39-.7.12-.05.16-.07.28-.1-.07-.01-.07-.08-.24-.08,0,0,.16-.04.17-.06.11-.06-.36,0-.22-.07.09,0,.19,0,.31-.03-.25,0-.22-.07-.31-.1.05,0,.09,0,.19-.01-.29-.01.04-.11-.14-.13h.19c.21-.12-.39.03-.26-.06.06,0,.13-.01.21-.02-.34,0-.25-.13-.37-.17.03,0,.08,0,.08,0-.05-.06.04-.15-.12-.2.08-.04.45-.06.37-.12-.37.06-.17-.1-.58.01.05-.07.17-.19.04-.21.14,0,.44-.1.48-.05l.22-.07c.15-.02-.04.05.14,0-.02-.02-.18-.07-.12-.11-.23-.01-.66.01-.72-.06.15.01.4-.08.47-.07h-.72s.29-.05.19-.07c-.1.02-.16.01-.24.01.04-.02-.11-.09.25-.16.14-.03.08.03.21-.02-.01-.05-.13-.03-.15-.07h.05s-.17-.07-.36-.01c0,.02.22-.04.12,0-.21.01-.28-.03-.29-.08.06,0,.16-.01.26-.02-.29-.02-.39-.07-.52-.12-.17.03.32-.02.23,0,.22-.13-.37-.13-.03-.26.03,0-.24.05-.19.04.01-.05.26-.08.17-.1.15-.03-.05-.03-.1-.05-.11,0,.07-.02.09,0-.13-.02-.38-.15-.18-.27-.1.02-.36,0-.36-.02l.23-.03c.13-.04-.03-.07.16-.1-.28,0,.26.14.04.11.19-.05-.37-.03-.06-.06-.01-.04-.28-.04-.07-.12-.03.02.32-.01.3-.05-.05-.05-.11,0-.19-.04l-.1-.02c-.22.03.02-.06-.22,0,.18-.04-.13-.07.24-.12l.29-.04s-.31,0-.44,0c.03,0,.08-.02.13-.03-.44.07.03-.07-.32-.05.14-.08,0-.14.26-.21-.14-.02-.3-.04-.22-.1.04,0,.06.01.15,0,.12-.05,0-.04-.07-.06.07,0,.25-.1.4-.16-.14-.02-.37.03-.52.05.43-.11-.3-.08.09-.19.06,0,.22.03.33-.02.43-.11-.33-.03-.13-.12l-.36.07c.22-.06-.22-.06.15-.11-.13,0,.11-.09-.24-.03.28-.15-.22-.22.4-.38-.06,0,0-.05-.19-.02-.19.06.15.01.01.04-.01-.01-.11,0-.16,0,.08-.04.1-.07.39-.09.21-.11-.61.02-.49-.09.15-.02.2-.03.17-.06h-.26c.05-.08.32-.1.57-.14-.05-.02-.04-.06-.23-.05l.3-.09c-.22.06-.15,0-.22,0h.06c.1-.02.03-.04,0-.06-.15.03-.21.07-.25.1-.11,0-.09-.03-.22-.03.24-.03.16-.08.18-.11.05-.04-.22,0-.21,0,.13-.02.01-.05.19-.06.04,0-.12.04,0,.04.09-.03.31-.07.14-.08-.12-.01-.48.08-.33,0,.06,0,.16,0,.25,0l.12-.07-.22.03c.05-.02.07-.01.1-.02-.23.02-.08-.07-.35-.04-.03-.02.14-.08.16-.11h.02c.12-.05.03-.08-.12-.08h.05s-.03-.06-.16-.06c.16-.07.83-.15.54-.15-.01-.04-.41,0-.55.04.14-.1-.24-.13.09-.26-.09,0-.15.02-.2,0,.07-.13-.3-.2.12-.36.1.02.22-.03.35-.05-.2,0,.2-.06-.14-.02-.2.03-.3.05-.37.09-.12-.05-.13-.15.05-.22-.09.03-.15.03-.21.02.32-.04.36-.1.24-.12l-.19.03.19-.06c-.06,0-.41.05-.23-.02.07-.01.15-.03.2-.04-.16-.01-.44-.03-.28-.1l.28-.08s-.21-.02-.28.03c.16-.1.17-.15.41-.21-.61-.03-.67-.21-.65-.36l.15-.02c.13-.06-.26.02-.16-.02.14,0,.29-.08.47-.07.14-.08-.26-.03-.33-.06-.19.02.13,0-.12.04-.07,0,.14-.1-.15-.06.11-.03.32-.05.44-.07h-.14c.33-.11.61-.01,1.02-.12l-.05-.02c.3-.08.35.03.44-.07-.15-.01-.57.02-.69.08-.09-.06-.69.08-.68,0,.17-.05.05.05.28,0,.23-.07-.14-.05-.06-.1-.1.05-.4.07-.45.05.13-.06.28-.02.3-.08-.17.02-.3-.01-.41.05-.38.04.1-.07-.2-.06.26-.06.62-.04.74-.12-.25.05-.36-.02-.73.07.07-.04.27-.07.43-.08.15-.06-.48,0,.03-.1l-.26.03c.08-.02.14-.05.28-.09,0-.03-.37-.04.03-.1-.04,0-.04-.07-.3,0-.16.07.21.02-.16.1.3-.08-.05-.05-.15-.06l.15-.03c-.06,0-.03-.04-.2-.03.09,0,.19-.02.23-.04l-.23.02c-.12-.04.4-.08.33-.13l.19.02s.17-.06.1-.07c-.21.02-.47.04-.64.06-.1-.02.24-.05.01-.05h.26c.07,0,.34-.08.33-.12-.08-.02-.39-.01-.5.05,0-.02.12-.07.27-.08-.08-.04-.23.04-.36.02.14-.04.33-.13.53-.19h.36s0-.04,0-.04c.29,0,.21-.05.52-.08.04-.03-.06-.04-.14-.04-.47.13-.66.04-1.1.12-.13-.06,1.05-.22.36-.19-.11.03-.45.04-.32.08.04-.06-.44.03-.27-.05.19.02.44-.12.7-.09-.15.02-.1.05-.06.06.16-.05.44-.07.43-.12-.05-.02-.06-.07-.29-.02-.25.04.03.04-.22.06-.1-.05.28-.12-.17-.08.04.03-.22.08-.39.11l-.11-.03.17-.02c.11-.09-.3.03-.27-.05l.32-.09c.28-.03-.11.12.35.04.01-.05-.22-.03-.11-.09.04,0,.05.02.1.02.01-.02.62-.13.25-.14-.14-.01-.17.02-.34.04-.06-.07-.24-.06-.28-.1.34-.04.02-.09.37-.09-.19.06-.16.16.17.14.39-.09-.05.07.36.02,0-.06.39-.12.65-.17.02-.02-.1-.02-.14-.02-.24.03-.24.05-.48.09.06-.08-.09-.12-.33-.12.12-.04.36-.07.39-.05-.08-.07-.06-.16,0-.24-.39.11-.11-.07-.43.02-.08.05-.36.13-.54.14.02-.03.17-.03.26-.05-.22,0,.34-.1,0-.08.14.05.48-.06.79-.1-.18-.02.22-.03.21-.08-.18-.03-.33-.07-.4-.11.28-.12-.02-.18-.05-.25.15-.06.5-.09.56-.14-.01-.04-.37.09-.22,0h.07c-.08-.01.22-.16-.29-.1l.38-.04s-.06-.01-.1-.02c.12-.02.23-.05.32-.04.25-.08-.05-.08-.07-.12l-.22.06c-.19-.05.03-.13-.06-.19l.22-.03-.14-.02c.21-.02.34-.08.16-.08l.55.03c-.12.05-.27,0-.48.06-.19.05-.12.1.1.08.02-.03-.03-.02-.11-.03.3-.06.3-.02.5-.03-.01-.01.08-.04-.02-.03.15,0,.18.02.19.07-.12-.01-.19.05-.28.05.27-.04.36-.01.29.05-.3.09.22.07.14.14-.28.02-.5.02-.61,0-.13.06.01.04-.12.1.21-.01.52-.05.65-.02l-.2.03c.11.03.41-.02.36.05-.08.12-.07.22-.08.3l-.2.03c.43-.03.18.12.38.14-.18.13.22.18-.11.29.18.15.36.27.31.46l-.3.02c.22,0-.16.05-.12.07.23-.07.31,0,.49-.01-.21.11.05.18.26.22l-.2.03c.39.01.07.15.02.25-.08.02-.27.07-.24.09.33,0,.31.03.53.06,0,.05-.06.15-.18.22.49.12.23.36.53.52l-.23.05c.53.12.11.43.4.55l-.41.05c-.12.07.12.1.41.04-.11.07.22.1-.11.19-.07.07.2.04.26.07-.14.13-.09.17,0,.25l.02-.03c-.09,0-.26.03-.28.06.12.02-.09.16.39.04-.26.15.27.22-.09.38.13-.03.16,0,.25-.01.02.09-.23.23,0,.28-.06.03-.23.01-.23.05.05.01.17-.03.25-.01.27.11-.2.35-.12.48.29.21.21.49.29.72h-.1c.38.03-.35.26.22.23-.09.03-.03.08-.22.09.27.02-.22.22.13.25,0,0-.01-.01-.06-.01-.2.13.11.16-.07.29-.04,0-.08-.02-.17,0-.18.07.42.02-.04.12,0,.02.24-.02.22-.03-.15.24.19.42.33.63-.25.2-.78.13-.41.2-.09.02.18-.02.08,0,.14.03-.51.16-.26.15.28-.06.16,0,.34-.03-.17.13-.42.19-.2.23l-.15.02c.44.02.23.16.73.16.17.48.51.91.65,1.39-.02.49.28.93.09,1.45-.38.18-.37.18-.19.28-.06,0-.08,0-.14.02.32-.04.04.08.36.05-.03.19.08.34.11.52-.04-.02-.31,0-.28.03h.21s-.09.02-.09.02c.05.02.22.02.32-.02.35.42-.22.98-.07,1.42-.12.13.03.26.12.37-.38.42-.68.78-.32,1.09,0,0-.84.09-1.06-.03Z"/>
        <path class="cls-2" d="M41.32,57.5c-.16.04-.24.09-.46.09.15-.03.32-.08.46-.09Z"/>
        <path class="cls-2" d="M39.82,58.84s-.06.03-.09.03c-.01-.01-.15,0-.07-.03.01.01.09,0,.16,0Z"/>
        <path class="cls-2" d="M39.77,59.13c-.15.02-.27-.02-.29-.05l.29.05Z"/>
        <path class="cls-2" d="M39.22,59.48c-.12.04-.19.05-.19.02.08-.01.12-.01.19-.02Z"/>
        <path class="cls-2" d="M39.55,59.45s-.08.04-.16.07c.12-.02-.09-.04.16-.07Z"/>
        <path class="cls-2" d="M39.22,60.08s.14.02-.02.06c.11-.03-.19-.04.02-.06Z"/>
        <path class="cls-2" d="M39.47,60.3s-.03.02,0,.02c-.06.03-.17.03-.19.02l.18-.04Z"/>
        <polygon class="cls-2" points="40.8 64.93 40.72 64.91 40.87 64.9 40.8 64.93"/>
        <path class="cls-2" d="M41.13,67c.1.01-.13.04-.15.05-.02-.02.18-.02.15-.05Z"/>
        <polygon class="cls-2" points="42.03 68 42.02 67.99 42.32 67.95 42.03 68"/>
      </g>
    </g>
    <g>
      <line class="cls-1" x1="55.37" y1="57.48" x2="52.88" y2="73.22"/>
      <g>
        <path class="cls-2" d="M55.9,57.61c-.06-.07-.26,0-.11-.06.11.03.2.05.11.06Z"/>
        <path class="cls-2" d="M53.28,73.09c-.72-.3.08-.43-.37-.71-.03-.03.41.07.32,0-.55-.29-.16-.55.33-.71l.11.03c.09-.03-.29-.15-.22-.19.08.01.11.03.22.04-.23-.05-.09-.1-.26-.15.09,0,.28.03.38.02l-.26-.07c-.62-.18.07-.18-.24-.34.06.01.11.03.17.03-.36-.23-.25-.43-.36-.64.09.02.26.06.37.06-.28-.05-.34-.12-.39-.18.29.02-.25-.13-.08-.16l.06.02c-.29-.09.18-.04-.17-.13h.23c-.4-.08.22-.02.02-.09h-.08c-.09-.06.11-.05.05-.09h.05c-.1-.09.14-.09-.18-.14.26.01.1.09.48.11-.29-.3-.18-.54-.15-.79.13,0,.17-.02.29,0-.06-.03-.04-.1-.2-.15,0,0,.16,0,.18,0,.13-.03-.34-.1-.19-.13.08.03.18.06.3.07-.24-.08-.19-.13-.26-.19.05.02.08.03.18.05-.27-.1.07-.09-.09-.17l.18.05c.23-.04-.38-.08-.24-.13.06.03.13.03.2.05-.32-.11-.2-.2-.3-.28.02,0,.07.01.07.01-.03-.07.08-.13-.05-.22.09-.01.44.08.39,0-.37-.06-.13-.14-.55-.17.07-.05.22-.13.1-.19.14.05.45.04.48.1h.23c.15.03-.06.03.13.05-.01-.03-.14-.12-.08-.14-.22-.08-.63-.19-.66-.27.14.06.41.04.47.08l-.69-.22s.29.04.2-.01c-.1-.01-.15-.04-.23-.06.04,0-.07-.12.29-.07.14.01.07.05.2.05,0-.05-.12-.07-.12-.12h.05c.06-.02-.14-.11-.34-.11-.02.02.22.03.11.04-.21-.05-.26-.12-.25-.17.06.03.15.04.25.06-.27-.11-.35-.19-.46-.28-.17-.03.31.08.22.07.25-.05-.31-.24.05-.26.03.02-.24-.03-.2-.03.03-.04.28,0,.19-.04.15.02-.04-.04-.08-.08-.1-.03.07,0,.08.03-.12-.06-.32-.26-.09-.32-.1-.01-.35-.11-.33-.13l.22.04c.14,0,0-.07.19-.05-.27-.09.21.21,0,.12.19.01-.35-.14-.04-.08,0-.04-.25-.13-.03-.13-.04,0,.31.08.3.05-.03-.07-.1-.03-.17-.1l-.09-.05c-.22-.04.04-.05-.21-.07.18.02-.1-.11.27-.04l.29.05s-.3-.09-.42-.13c.03,0,.09,0,.13.01-.44-.07.05-.06-.29-.14.16-.03.04-.14.31-.12-.13-.06-.28-.13-.18-.16.04.02.05.03.14.05.13-.01.02-.04-.05-.08.06.02.27-.02.43-.03-.12-.06-.36-.09-.51-.11.44.03-.26-.16.14-.15.06.02.2.1.32.08.44.03-.31-.13-.09-.16l-.36-.04c.23,0-.19-.12.17-.06-.13-.04.13-.05-.22-.1.31-.06-.14-.28.5-.24-.06-.02,0-.05-.17-.07-.2,0,.13.06,0,.04,0-.01-.1-.03-.15-.04.09-.02.11-.04.4.04.23-.04-.59-.17-.43-.24.14.03.2.03.18,0l-.24-.09c.07-.05.34.02.58.06-.04-.04-.02-.07-.2-.12h.32c-.23,0-.14-.04-.2-.06l.06.02c.1.01.05-.04.02-.06-.15-.02-.22,0-.27.02-.11-.03-.08-.05-.2-.1.24.05.18-.02.21-.04.06-.02-.21-.07-.2-.07.13.02.03-.04.2,0,.04.02-.13,0-.02.04.1,0,.31.03.16-.03-.11-.05-.48-.07-.32-.1.06.02.15.04.24.07l.13-.03-.22-.04c.06,0,.07,0,.11.01-.23-.05-.06-.09-.32-.14-.02-.03.16-.03.19-.05h.02c.13,0,.06-.06-.09-.11h.05s0-.05-.13-.09c.17-.02.83.12.56.03,0-.04-.39-.13-.54-.14.16-.05-.18-.2.17-.22-.09-.03-.14-.03-.19-.06.1-.1-.22-.28.22-.3.09.05.22.04.35.06-.19-.06.21,0-.13-.06-.2-.03-.3-.05-.38-.03-.1-.08-.08-.19.11-.2-.1,0-.15-.02-.21-.04.32.05.37.01.27-.04l-.19-.04h.2c-.06-.02-.4-.07-.21-.08.07,0,.15.02.21.02-.15-.06-.41-.16-.24-.18h.29s-.19-.07-.28-.05c.18-.05.21-.09.46-.07-.58-.22-.57-.4-.5-.54l.14.03c.14-.02-.25-.06-.15-.07.14.03.3.02.47.07.16-.03-.24-.11-.3-.16-.19-.04.12.05-.12,0-.07-.02.16-.05-.13-.11.11,0,.32.05.44.07l-.13-.06c.34.01.58.19,1.01.21l-.04-.04c.31.02.33.14.44.07-.14-.06-.55-.15-.68-.14-.07-.08-.68-.14-.64-.21.17,0,.03.07.27.09.24,0-.12-.09-.03-.11-.11.02-.4-.06-.45-.09.14-.02.27.07.31.02-.16-.04-.28-.11-.4-.08-.37-.08.11-.04-.17-.12.27.02.6.15.74.11-.26-.03-.34-.13-.72-.16.08-.01.28.02.43.06.16,0-.45-.16.05-.09l-.26-.05c.09,0,.15,0,.3,0,0-.03-.34-.15.06-.09-.04-.02-.01-.08-.29-.1-.17.02.19.08-.18.05.3.02-.03-.07-.13-.11l.15.02c-.06-.02-.02-.05-.18-.09.09.02.19.04.23.03l-.23-.05c-.11-.08.41.05.35-.02l.17.07s.18,0,.11-.04c-.21-.04-.46-.1-.62-.14-.09-.05.24.02.03-.04l.25.08c.07.02.35.03.35-.02-.07-.04-.37-.13-.49-.1,0-.02.13-.03.28,0-.07-.06-.23-.03-.35-.09.14,0,.35-.02.56-.02l.35.1v-.03c.29.08.23.01.52.08.05-.01-.05-.05-.12-.08-.49-.02-.64-.17-1.08-.22-.11-.1,1.07.12.4-.08-.12,0-.44-.1-.32-.03.06-.04-.43-.1-.24-.13.17.07.45.02.7.13-.14-.03-.12.02-.08.03.17,0,.44.07.45.02-.04-.04-.04-.08-.27-.11-.25-.04.02.05-.23,0-.08-.08.3-.03-.13-.12.03.04-.23.01-.4-.01l-.1-.06.16.04c.13-.05-.3-.07-.24-.13l.33.02c.28.06-.14.08.32.14.03-.04-.21-.1-.08-.12.04.02.05.03.09.05.02-.01.63.07.28-.06-.13-.06-.16-.03-.33-.06-.04-.08-.21-.13-.23-.18.33.06.05-.08.38.03-.2,0-.2.1.12.18.4.04-.07.05.34.13.02-.06.41,0,.67.04.02-.01-.09-.05-.12-.06-.24-.05-.24-.02-.49-.06.08-.06-.05-.14-.28-.22.12,0,.36.04.38.07-.06-.09-.01-.17.07-.23-.4-.01-.08-.1-.41-.12-.09.03-.38.02-.55-.03.03-.02.17.03.26.03-.21-.07.35,0,.02-.08.12.09.48.09.79.15-.17-.08.22.04.23-.01-.16-.08-.29-.16-.35-.23.3-.03.03-.18.03-.25.16,0,.51.07.57.04,0-.04-.38-.03-.21-.07l.07.02c-.08-.03.26-.08-.24-.18l.38.08s-.05-.03-.09-.05c.12.02.24.02.31.05.27,0-.03-.09-.03-.13h-.23c-.16-.11.07-.12,0-.21l.22.04-.12-.06c.21.04.35.03.18-.02l.52.19c-.13.01-.26-.08-.48-.09-.19-.01-.14.06.07.11.03-.02-.02-.03-.1-.06.31.04.29.08.49.13-.01-.02.09-.02-.01-.04.14.05.16.08.16.12-.11-.05-.19-.01-.28-.04.27.05.34.1.26.14-.32-.01.18.13.09.18-.27-.07-.48-.13-.58-.19-.14.02,0,.04-.14.06.2.05.51.11.62.18l-.2-.03c.09.06.39.11.33.16-.11.08-.13.19-.17.26l-.2-.03c.42.11.14.17.32.25-.21.07.16.24-.19.24.13.2.25.37.15.54l-.29-.08c.21.07-.17,0-.13.03.24,0,.3.09.47.14-.24.04,0,.18.19.29l-.2-.03c.37.13.02.16-.05.24-.08,0-.28-.02-.26.01.32.1.29.12.48.22,0,.05-.1.12-.24.15.42.27.1.42.34.66l-.24-.02c.47.27-.02.44.21.65l-.4-.08c-.13.03.09.14.37.17-.13.03.17.16-.16.14-.08.04.18.09.22.15-.17.08-.14.13-.08.24l.03-.02c-.09-.03-.26-.05-.29-.03.11.06-.13.12.36.16-.3.06.19.29-.2.33.13.01.15.04.24.07,0,.1-.29.15-.08.26-.07,0-.22-.06-.24-.02.05.03.17.03.24.07.22.19-.3.27-.26.42.21.29.05.53.05.77l-.1-.02c.36.14-.41.13.14.28-.1,0-.05.06-.24.02.25.1-.27.14.04.28.01,0,0-.01-.05-.03-.23.06.05.19-.16.25-.04-.02-.07-.04-.16-.06-.19,0,.39.15-.08.1,0,.02.23.05.22.04-.21.18.05.46.12.7-.3.12-.78-.11-.46.07-.09,0,.18.04.08.02.12.07-.53,0-.29.07.29.03.16.05.33.08-.2.07-.46.05-.26.16l-.15-.03c.41.16.17.23.64.38.01.51.21,1.03.19,1.52-.17.46-.02.97-.36,1.41-.41.05-.4.06-.26.21-.06-.02-.08-.03-.14-.03.32.06.02.09.32.15-.09.17-.03.35-.05.53-.03-.03-.29-.09-.28-.05l.2.07h-.09s.2.07.31.07c.21.51-.52.86-.51,1.33-.15.09-.05.26,0,.39-.49.28-.88.54-.64.94,0,0-.83-.18-1-.35Z"/>
        <path class="cls-2" d="M55.92,57.68c-.16-.01-.26.01-.47-.05.15.02.33.03.47.05Z"/>
        <path class="cls-2" d="M54.08,58.5s-.07,0-.1,0c0-.02-.14-.05-.06-.05.01.02.09.03.15.04Z"/>
        <path class="cls-2" d="M53.94,58.76c-.14-.03-.25-.1-.26-.14l.26.14Z"/>
        <path class="cls-2" d="M53.31,58.92c-.13,0-.19-.01-.18-.04.08,0,.11.03.18.04Z"/>
        <path class="cls-2" d="M53.63,58.99s-.09.02-.17.02c.12.02-.07-.06.17-.02Z"/>
        <path class="cls-2" d="M53.13,59.48s.12.06-.04.05c.11,0-.17-.09.04-.05Z"/>
        <path class="cls-2" d="M53.3,59.78s-.04,0,0,.02c-.07,0-.17-.03-.18-.04l.18.02Z"/>
        <polygon class="cls-2" points="53.14 64.59 53.07 64.55 53.21 64.58 53.14 64.59"/>
        <path class="cls-2" d="M52.82,66.66c.09.04-.14,0-.16,0-.01-.03.18.04.16,0Z"/>
        <polygon class="cls-2" points="53.36 67.89 53.36 67.88 53.65 67.93 53.36 67.89"/>
      </g>
    </g>
  </g>
</svg>