<?xml version="1.0" encoding="UTF-8"?>
<svg id="Layer_3" data-name="Layer 3" xmlns="http://www.w3.org/2000/svg" viewBox="0 0 95 95">
  <defs>
    <style>
      .cls-1 {
        fill: #202020;
      }
    </style>
  </defs>
  <g>
    <path class="cls-1" d="M88.21,48.11c-.09-.94-.54.5-.2-.61.23.13.4.31.2.61Z"/>
    <path class="cls-1" d="M87.75,44.41c-.21-.36-.36-.73-.51-1.12-.16-.38-.29-.78-.4-1.18-.21-.81-.32-1.66-.42-2.53-.16-.85-.34-1.72-.57-2.56-.12-.42-.25-.83-.4-1.22-.17-.39-.41-.74-.66-1.08-.19-.33.82-.18.34-.92-.27-.32-.53-.67-.77-1.05-.23-.38-.45-.79-.72-1.2-.49-.83-.93-1.75-1.32-2.72-.93-1.87-1.69-3.97-2.55-5.77l.33.05c-.33-.69-1.43-.98-1.89-1.6.11-.11.34.04.38-.23-.49.16-1.12-.91-1.6-.92-.07-.35.22-.59.1-1.03l-.69.04c-.85-.04-1.42-.51-1.93-1.13-.53-.6-1.03-1.35-1.9-1.62.14-.05.34-.02.31-.2-.67-.26-1.32-.57-1.97-.94-.66-.35-1.28-.79-1.98-1.12-1.37-.71-2.7-1.56-4.13-2.01.19-.12.45-.38.38-.65-.39.44-1.27.17-2.03-.07-.08-.73-1.46,0-2.2-.63l.12-.09c-.85.34-.84-.68-1.59-.18l-.27-.59c-.52.7-.84-.66-1.51-.4l-.03.17c-.57.06-.73-.41-1.25-.4l-.02-.1c-1.16-.11-1.75-.61-1.84.02-.31-.56,1.15-.06.67-.89-3.93-.08-7.82-.34-11.68-.02-.46-.2-.75-.23-.88-.46-.37.19-1.44.34-1.73.71.13-.03-.3-.28-.51-.29-.75-.12-.63.78-1.43.7.26-.24.32-.47.17-.68-.54.65-1.41.8-2.12,1.15.09-.13.25-.24.17-.43-.67.76-1.56.24-2.15.88l.15-.45c-1.29,0-.09.86-1.15.96.19-.2.06-.3.06-.46-.35.48-.9.81-1.47,1.08-.58.25-1.12.58-1.52.87.03-.07-.03-.16-.03-.16-.46.27-.95.47-1.45.7-.5.22-1,.5-1.41.94-.44.07-.33-.86-1.22-.15.42.62-1.46,1.24-.45,1.61-.22.09-.47.2-.73.31-.25.13-.5.28-.75.43-.49.3-.92.61-1.09.9.17-.48-.92-.44-.32-.97h-.76c-.11-.29.57-.29.18-.48-.31.28-1.09,1.19-1.43,1.35-.27.86-.2,1.95-1,2.8.21-.58-.8-.38-.61-.73-.09.72-.17,1.42-.17,2.17-.23.31-.48-.34-.72.21.16.11.09.38.09.61-.16.05-.93,1.3-1.61.96-.34-.06.31-.57-.18-.42-.49.54-.27.76-.71,1.34l-.09-.05c-.38.32-.6,1.32.04,1.14.22-.25-.43-.16.04-.43.14.53-.26,1.25-.68,1.82.05-.26-.13-.35-.24-.54-.12,1.09-.41,2.09-.77,3.09.29.19-.34-.66-.1-.7-.55.46-.81,1.14-.98,1.81-.17.67-.34,1.3-.9,1.66.02-.19.49.12.4.09-.32.56-.77.33-.78.79-.29-.08-.17.51-.21.97.12.29-.17.05-.07-.32.01.34-.08,1.12-.29,1.95-.22.83-.54,1.72-.89,2.35.19.03.48,1.02.38,1.32l-.41-.23c-.34.22-.23,1.05-.63,1.02.37.8.21-2.69.39-1.68-.43.14.38,1.44-.17,1.09-.14.64.18,1.34-.31,1.87.1-.16-.54-.64-.59-.11-.06.94.17.3.21,1.07l.11.49c.44.09-.18.8.36.53-.38.07.01,1.33-.69,1.17l-.57-.19c.01.41.57.72.81,1.05-.06.05-.18.14-.27.12.88.12-.12.95.54,1.45-.17.41-.21.93-.27,1.4-.01.47-.06.89-.33,1.09.3.64.65,1.19.5,1.93-.09-.14-.13-.33-.32-.36-.24.48,0,.58.16.98-.17-.08-.39.96-.63,1.52.36.6.8.31,1.1.33-.76.72.77,1.67.2,2.52-.19-.18-.63-.82-.74-.25-.71.77.93,1.01.75,2.02l.65-.41c-.33.52.74,1.21,0,1.32.3.23.11,1.12.75.81-.02.81.39,1.66.68,2.46.27.81.62,1.51.22,2.22.2.15.34.7.61.44.2-.5-.48-.34-.29-.58.11.17.3.12.4.1.06.5.18.87-.55.72.09,1.17,1.51.47,1.97,1.73-.29.09-.33.24-.08.55l.82.38c.35.8-.31.78-.72,1.07.32.36.6.88,1.05.82l-.17.82c.12-.6.48.14.71.24l-.23-.11c-.12.19.32.56.53.74.21-.24-.03-.76-.14-1.05.32.06.5.39.9.49-.45.21.18.82.36,1.15.17.41.65.08.71.19-.19.17.43.54-.06.52-.16-.06-.04-.4-.37-.44.04.33-.31.59.33.82.48.17.65-.72.98.1-.24-.08-.41.02-.65.01l.34.75.35-.28c-.01.15-.09.13-.1.2.5-.15.91.79,1.4.55.31.24.39.77.63,1.06l-.08-.02c.16.5.73.79,1.21.82l-.08.06c.16.19.64.55,1.04.54.29.63-.89,1.43.03,1.42.54.38,1.31-.04,1.27-.42.37.46.92.74,1.43,1.06.54.27,1.05.56,1.32,1.13.23-.07.21-.22.55-.13.67.52,1.48.87,2.27,1.16.78.32,1.46.7,1.89,1.4-.52-.04-.21.39-.3.63.52-.18.3.57.69,0,.12-.39.22-.54-.15-.88,1.01.16,2.42.66,2.82,1.22-.2-.27.04-.32.28-.35-.27.59.4.95,1.01.84l.19-.36.24.48c.24-.07.44-.73.88-.23,0,.15-.02.31.06.44.65-.19,1.52-.45,2.07-.06l.4.64c.28-.02.78-.29.34-.53.99.5,1.67.65,1.95,1.19,1.98-1.03,4.54-.92,6.65-1.03l-.04.3c.59.25.26-.53.67-.34-.16.29.49.58.06.95.86.29,1.01-.6,1.51-.8.03-.39-.39.31-.35-.19.07-.15,1.15.13,1.19-.47.23.2.14.64.07.89l.45-.35c.73.58-1.21,1.41-.45,2.14l.47-.16c.56.53-1.18.88.07.9.49-.37.79-1.26.29-1.45,1.04-.33.25-1.41,1.36-1.59.18.13-.03.21-.25.3-.23.07-.46.16-.31.38.63.41,1-.5,1.49-.44-.56-.08-.26-.77.04-.95.62.12-.23.63.57.48.05-.36.69-.78.02-.85.08-.8.86,0,1.11-.67.41.45-.45,1.39.49,1.43-.27-.43.83-1.02.15-1.59.36.02.53.4.39.78.57.13.81-1.3,1.31-.39l-.02-.55c.2.11.46.15.8.33.21-.07.47-.36.72-.53.24-.19.45-.28.59.09.09-.14,1.01-.54.43-.87-.69-.04-.47.68-1.08.14.63.37.76-.46.99-.79l.18.25c.14-.2.6-.35.57-.7-.06.23.1.38.29.37v-.51c.64-.57.55.65,1.23.16-.12.21-.26.4-.4.6.08-.14.57.16.84-.2-.07-.46-.08-1.06-.13-1.41.3-.4.42.31.59-.31l-.25.76c0,.17.7.4,1.25.05.28-.34.47-1.18-.19-1.05.26-.17.78-.18.74.22.53-.49-.33-.34.05-.87.37.11,1.21-.04,1.85,0l-.11.98.36-.26c-.13.81.49.18.58.86.3-.11.48-.5.63-.8-1.29-.24-.01-1.64-.77-2.18.78-.87,1.95,1.19,1.99-.68-.3-.04-.32-.93-.7-.24.6-.42-.23-.99.64-1.29-.22.69,1.12.19.79,1.2-.15-.26-.54.19-.59.35.45.04.54.71,1.12.18.29-.38.76-.83.37-1.09-.37-.35-.49.52-.62-.05.57-.73,1.21-.32.82-1.23-.33.48-.81.21-1.05-.05.12-.19.2-.42.3-.62l.16.33c.88-.62-.23-.65.51-1.34l.82.09c.26.56-1.19.93-.39,1.44.49-.48.29-.96.89-1.27-.04.16-.15.32-.18.48.18-.15,1.28.47,1.4-.73.1-.57-.17-.31-.43-.54.57-.94.48-1.41.85-2,.46.52.79-.95.9.08-.54.06-1.44,1.32-1.17,2.05.43.09.28.25.08.47-.22.21-.5.47-.27.82.63-.65,1.2-.12,1.69.09.18-.19.16-.52.19-.7-.32-.39-.51-.12-.92-.42.71-.73,1.08-1.67,1.01-2.38.4-.13.74.23.54.58.32-.51.61-1.06.94-1.58.33-.52.69-1.01,1.06-1.46-1.07.23.49-1.18-.35-1.07-.46.44-1.22.58-1.37.13.24-.29.3.18.53.14-.13-.6.99-.3.58-1.04-.23,1.08.77.65,1.24,1.12.03-.88.38.24.72-.48.04-.88.21-1.88.47-2.72.94-.81.97-2.63,1.29-3.54.43-.41,1.02.14,1.28-.38.15-.65-.86.27-.3-.6l.11.13c-.09-.33.92-1.66,0-2.16l.67.46c.11-.16-.01-.37-.06-.54.24.05.52-.12.6.21.71-.49.14-1.31.24-1.97l-.51.35c-.19-1.18.4-1.87.37-2.99l.44.08-.23-.68c.42.2.73-.39.39-.77.33.6.68,1.21.98,1.84-.32.46-.47-.59-.94-.32-.4.22-.45,1.24-.05,1.47.11-.39.02-.42-.1-.74.63-.06.52.54.88.9,0-.21.24-.49.05-.56.24.45.22.88.13,1.58-.17-.51-.42.19-.56-.01.53.14.59.84.31,1.67-.77.46-.01,1.67-.43,2.62-.43-.54-.73-1.15-.8-1.78-.42.53-.16.67-.58,1.2.32.39.88.77.91,1.64l-.4-.08c-.02.77.52.95.09,1.82-.38.74-.71,1.5-1.01,2.22-.36.69-.7,1.34-.99,1.9l-.38-.13c.24.5.06,1.06-.19,1.62-.25.56-.65,1.06-.72,1.57-.58.58-.95,1.37-1.3,2.06-.39.66-.8,1.21-1.32,1.33-.36.61-.71,1.2-1.05,1.78-.38.56-.79,1.08-1.2,1.61-.41.53-.84,1.05-1.3,1.57-.49.48-1.03.95-1.59,1.41l-.04-.76c-.09.67-.48-.02-.79.38.75-.04-.11.93-.16,1.45-1.28.5-2.34,1.84-3.04,2.9l-.27-.31c-.56,1.29-2.16,1.44-3.46,2.1-.22-.05-.64-.28-1.01-.05-.41.93-.81,1.07-1.7,1.95-.76.42-2.15.71-3.05.78-.68.47-1.39.94-2.16,1.22-.77.29-1.56.52-2.36.75l-1.21.33-1.23.23c-.82.16-1.65.36-2.47.62l-.29-.44c-.78.33-1.65.49-2.53.6-.88.09-1.79.21-2.68.1-1.78-.16-3.48-.23-4.91-.26l.37-.77c-.82-.38-1.99-.09-1.87.52-.42-.19-.98-.17-1.5-.22-.51-.08-.97-.2-1.16-.6-.84-.37-1.16.09-1.93,0-.85-.35-1.41-.63-1.99-.85-.57-.21-1.15-.36-1.99-.59l.38.19c.24-.1.38-.42,0-.62-.34,0-.87-.24-1.28-.38-.4-.15-.7-.14-.6.44-.72-.66-1.73-1.01-2.73-1.4-1-.38-1.92-.94-2.5-1.71,0,.31-.42.11-.68.17-.35-.21-.68-.45-1.01-.7-.3-.28-.6-.56-.89-.83-.59-.53-1.17-1-1.83-1.21-.12-.26.61-.11.1-.52-.37-.16-.23.27-.7.09-1.14-.69-2.05-1.69-2.88-2.69-.78-1.06-1.44-2.16-2.29-2.99-3.1-2.93-5.26-6.9-6.95-10.58l.2-.04c-1.22-.99-.39-3.24-1.84-3.89.06-.36-.24-1.22.18-1.09-.39-.45-.46-1.22-.56-2.04-.05-.41-.11-.83-.21-1.23-.09-.41-.2-.81-.43-1.16,0,.15.06.22.16.37.09-.82-.06-1.54-.22-2.27-.08-.37-.16-.74-.21-1.12-.04-.39,0-.79.06-1.21.09.16.17.46.37.49.34-.65-.9-1.45.02-1.85-.03-.36-.49-.24-.45-.02.02-1.81.13-3.66.08-5.56v-.71s.04-.71.04-.71l.09-1.43.1-1.44.06-.72.13-.7c1.22-2.5,1.58.22,1.43-2.01.22-.12-.32-.22-.12-.19-.02-.43.31-.67.6-.88.32-.2.6-.37.46-.71-.63.04-.18-.46-.5-.59.93-1.42,1.48-1.53,1.58-2.88l.24.21c-.07-.85.19-1.63.43-2.39.24-.76.43-1.52.36-2.31.53-.93,1.06-1.85,1.58-2.76.56-.89,1.19-1.74,1.78-2.61.57-.89,1.25-1.69,1.93-2.49.69-.79,1.3-1.65,2.08-2.36l2.24-2.21c.79-.69,1.62-1.33,2.44-1.99.8-.69,1.69-1.25,2.58-1.81.9-.55,1.75-1.19,2.72-1.62.95-.44,1.9-.88,2.84-1.32.96-.4,1.95-.73,2.92-1.1.49-.17.97-.37,1.47-.53l1.51-.4c1.01-.25,2-.57,3.03-.75l3.09-.48.77-.11.78-.04,1.57-.06c2.09-.15,4.19.11,6.29.34,1.88,1.03,1.98,1.06,4.17,1.06-.11.11-.25.12-.13.26.24-.66,1.49.26,1.82-.29,1.49.46,2.97.75,4.38,1.3.72.25,1.43.49,2.16.74.74.24,1.42.62,2.16.95-.49-.16-.94.22-.38.44l.75-.1v.21c.42.09.98,0,.69-.37.47.2.95.37,1.4.61l1.33.75c.87.53,1.77,1.01,2.57,1.63.8.62,1.59,1.25,2.36,1.9.4.31.76.65,1.11,1.02l1.06,1.07c1.45,1.38,2.62,3.02,3.89,4.52l1.7,2.42c.28.4.59.79.86,1.2l.78,1.25c.35.88,1,1.81,1.53,2.82.54,1.01,1.14,2.03,1.64,2.92.36,1.48.64,2.94.96,4.34.2,1.44.4,2.84.64,4.22.12,1.41.27,2.8.49,4.21.09,1.42.23,2.86.45,4.35,0,0-1.73-.79-2.24-3.09Z"/>
    <path class="cls-1" d="M88.22,49.24c-.34.19-.55.82-.96.29.31-.05.67-.37.96-.29Z"/>
    <path class="cls-1" d="M80.79,64.56c.08.06-.22.15-.29.17.06-.19-.1-.48.12-.55-.06.19.09.23.17.38Z"/>
    <path class="cls-1" d="M78.56,68.01c-.21-.22.04-1.08.28-1.54l-.28,1.54Z"/>
    <path class="cls-1" d="M75.37,70.33c-.39.09-.43-.06-.17-.4.14.07.12.24.17.4Z"/>
    <path class="cls-1" d="M75.72,70.96c-.21.24-.44.24-.67.24.2.15.36-.63.67-.24Z"/>
    <path class="cls-1" d="M69.29,75.91c-.14.13-.33.58-.66.42.3.06.52-.85.66-.42Z"/>
    <path class="cls-1" d="M66.47,78.39c-.11.05-.18.03-.26.17-.26,0-.17-.3-.02-.42l.29.25Z"/>
    <polygon class="cls-1" points="11.12 56.29 11.36 56.66 11.07 56.67 11.12 56.29"/>
    <path class="cls-1" d="M16.34,26.69c.07-.46.39-.08.47-.12-.2.32-.23-.32-.47.12Z"/>
    <polygon class="cls-1" points="27.62 14.07 27.51 14.14 27.24 13.61 27.62 14.07"/>
  </g>
  <g>
    <g>
      <g>
        <path class="cls-1" d="M35.62,24.58c-.07-.22-.26.12-.11-.15.12.03.21.07.11.15Z"/>
        <path class="cls-1" d="M35.83,24.81c.72-.76,1.68,0,2.47-.48.09-.03-.02.42.19.32.77-.59,1.98-.24,2.92.22l-.06.12c.18.09.4-.31.59-.25,0,.08-.06.11-.02.22.05-.24.34-.11.42-.29.07.09.07.28.16.38l.11-.27c.3-.64.73.05,1.14-.29-.02.06-.06.11-.03.17.66-.39,1.48-.32,2.22-.46-.03.09-.06.27-.01.38.04-.28.26-.36.46-.41.09.29.34-.27.57-.11l-.02.06c.17-.3.25.18.39-.19l.11.23c.08-.41.25.21.39,0v-.08c.13-.1.2.11.32.04v.05c.3-.11.47.12.46-.2.1.26-.28.12-.12.49.95-.33,1.94-.27,2.89-.27.11.13.18.17.2.29.1-.06.36-.06.45-.22-.03,0,.06.16.11.18.17.12.19-.35.38-.21-.08.09-.1.19-.08.31.16-.25.38-.21.58-.29-.03.05-.08.09-.07.19.21-.28.39.06.57-.12l-.07.19c.3.22.09-.39.35-.25-.06.06-.04.13-.05.21.24-.34.63-.23.87-.34-.01.03-.01.08-.01.08.26-.04.53.06.82-.08.1.08-.03.45.24.38-.01-.37.47-.15.31-.57.24.06.61.2.77.07-.11.14.12.45-.08.49l.15.22c-.02.15-.15-.05-.11.14.09-.01.4-.16.46-.1.16-.23.42-.65.8-.7-.2.14-.06.41-.18.47.21-.24.47-.47.77-.71.14-.02-.13.29.09.2.05-.1.16-.16.27-.24.01.04.62-.09.36.27-.08.14-.25.08-.23.21.2,0,.32-.12.53-.13h0s-.05.06-.05.06c-.05.18.16.27.36-.07.01-.12-.22.24-.11-.01.21-.1.27.15.28.4-.06-.04-.16.04-.26.09.29.09.38.42.5.77.17-.07-.32-.02-.22-.11-.12.29-.03.49.04.72.07.22.13.48-.05.67-.03-.05.25-.03.2-.03-.02.17-.27.16-.18.27-.15.01.05.14.09.25.11.06-.07.03-.09-.07.13.16.35.79.14,1.15.1,0,.36.22.35.31l-.23-.03c-.14.08.02.27-.18.31.28.16-.24-.7-.02-.46-.19.06.36.34.05.28,0,.12.27.47.05.66.04-.07-.32-.23-.3-.05.04.32.11.11.19.4l.09.2c.22.09-.03.3.22.27-.18-.04.11.59-.26.36l-.29-.2c.02.14.31.4.44.61-.03,0-.09,0-.13-.04.44.33-.04.33.31.78-.08.1-.08.3-.1.47-.21-.02-.42-.05-.61-.19-.12.13-.25.3-.6.2.03-.04.1-.05.05-.15-.26-.13-.22-.01-.34.06,0-.07-.49-.26-.71-.42-.17.13-.02.37.01.52-.19-.22-.32-.15-.5-.07-.17.08-.37.16-.52-.04.09-.06.33-.22.13-.33-.23-.44-.36.32-.6.11l.06.36c-.11-.23-.36.21-.33-.16-.08.13-.29-.12-.26.24-.4-.3-.97.18-1.22-.46-.06.06-.2,0-.17.18.1.2.13-.14.17,0-.05.01-.06.11-.07.16-.12-.08-.22-.11-.1-.4-.28-.22-.29.6-.64.47.02-.15-.01-.2-.11-.18l-.2.25c-.23-.06-.13-.33-.13-.58-.12.04-.27.03-.33.22l-.15-.31c.11.23-.1.15-.16.21l.06-.06c-.02-.1-.16-.04-.23,0,.02.15.16.22.24.26-.06.11-.16.08-.24.21.03-.24-.2-.17-.29-.2-.11-.05-.12.22-.16.21,0-.13-.18-.02-.09-.2.04-.04.09.12.15.01-.07-.09-.06-.32-.22-.15-.11.12.03.48-.19.33.06-.06.07-.16.11-.25l-.2-.13v.22c-.04-.06-.02-.08-.03-.11-.06.23-.31.07-.36.34-.1.02-.22-.15-.31-.18l.02-.02c-.12-.13-.28-.04-.38.11v-.05c-.06-.02-.21.02-.3.15-.16-.17-.06-.84-.24-.56-.17,0-.26.41-.19.55-.3-.15-.64.21-.92-.13-.04.09-.02.15-.11.2-.44-.09-.93.26-1.28-.17.13-.09,0-.22,0-.35-.11.2-.13-.21-.16.14.01.2,0,.3.12.38-.26.11-.66.11-.81-.08.07.09.02.15-.04.22.02-.32-.18-.37-.32-.26l-.02.2-.1-.2c-.06.06-.06.41-.21.22,0-.08-.02-.15-.04-.21-.15.16-.37.43-.53.27l-.14-.29c-.07.03-.19.2-.07.29-.28-.17-.46-.19-.55-.44-.48.6-1.19.63-1.75.58l.02-.15c-.15-.14-.08.26-.18.15.05-.14-.12-.3,0-.47-.22-.15-.28.25-.42.32-.02.19.11-.12.09.12-.02.07-.3-.15-.33.14-.05-.11-.01-.33.02-.45l-.13.14c-.16-.34.37-.61.2-1.03l-.12.05c-.12-.3.32-.34.02-.45-.13.14-.25.57-.13.69-.28.08-.13.69-.43.67-.08-.17.24-.04.18-.28-.14-.23-.28.13-.41.05.14.11.02.4-.07.46-.15-.14.1-.28-.12-.3-.04.17-.23.29-.06.41-.08.38-.22-.11-.34.19-.07-.27.22-.62-.01-.75.04.26-.29.35-.17.73-.09-.07-.1-.28-.03-.44-.13-.16-.32.47-.36-.04l-.05.26c-.04-.09-.1-.15-.17-.29-.12,0-.37.36-.36-.04-.04.04-.3.02-.2.3.16.17.19-.2.28.17-.12-.3-.24.04-.33.14l-.02-.15c-.06.06-.19.03-.22.19.04-.09.02-.19-.02-.23l-.06.23c-.23.12-.05-.41-.28-.34l.17-.18s-.11-.18-.22-.11c-.04.21-.12.47-.16.64-.13.09-.06-.24-.18-.02l.16-.26c.02-.07-.11-.35-.28-.35-.11.07-.28.38-.11.5-.08,0-.2-.13-.14-.28-.19.07.03.23-.14.36-.07-.14-.28-.35-.41-.55l.17-.36h-.11c.15-.29-.08-.22,0-.52-.08-.05-.17.06-.25.13.23.48-.26.66-.19,1.1-.13.06-.26-.21-.33-.41-.08-.2-.12-.32-.44.02.07.11-.26.45.12.32-.33-.05-.33.44-.73.26.35-.18-.18-.45.31-.71-.07.15.2.11.26.07-.09-.17.11-.44-.18-.44-.18.04-.43.05-.48.28-.09.25.3-.03.09.23-.45.09-.32-.3-.71.15.28-.03.23.23.15.4l-.39.11.15-.17c-.47-.12-.32.3-.85.26-.01-.11-.02-.22-.02-.33.31-.29.66.13.84-.34-.28-.02-.55.22-.76.1.1-.04.19-.05.28-.09-.11-.02.27-.63-.41-.27-.33.14-.21.17-.36.34-.19.02-.36.05-.5.09-.07-.15-.15-.22-.17-.43.34-.22.03-.61.38-.53-.14.21-.17.64-.07.81.17-.04.34-.12.48-.22.2-.4.31.06.74-.35-.33,0,.04-.41.24-.67-.05-.02-.23.09-.32.13-.28.24-.17.24-.4.49-.04,0-.08-.01-.12-.02.01-.32-.12-.49-.32-.54.12-.22.37-.35.39-.23-.07-.37-.04-.87.03-1.29-.4.41-.09-.44-.43-.16-.09.26-.37.59-.55.51.03-.18.17-.05.26-.15-.22-.16.35-.41,0-.53.13.44.49-.02.8,0-.18-.23.22-.04.22-.28-.09-.11-.16-.26-.23-.39-.06-.12-.12-.23-.15-.35.3-.28,0-.72,0-.97.16-.13.51-.04.57-.19,0-.17-.38.12-.22-.12l.07.02c-.08-.08.24-.46-.27-.53l.38.08s-.05-.09-.09-.13c.12,0,.24-.06.32.02.26-.15-.04-.32-.05-.49l-.23.11c-.18-.29.05-.48-.03-.75h.22s-.13-.16-.13-.16c.21.04.35-.11.17-.2l.54.43c-.13.12-.27-.13-.49-.06-.19.06-.13.32.08.36.02-.1-.02-.1-.1-.18.31-.03.3.12.5.19-.01-.05.08-.12-.02-.14.15.1.17.2.18.37-.12-.11-.19.06-.28.02.27.01.36.17.28.38-.31.15.2.39.12.63-.28-.1-.5-.22-.61-.37-.14.15,0,.17-.13.32.21.07.52.13.64.32h-.2c.1.19.4.19.35.42-.1.38-.1.82-.13,1.06l-.2.02c.43.09.16.39.35.48-.2.37.19.38-.16.79.02.04.04.09.06.13.52-.13.85-.23,1.19-.17-.05.1-.1.2-.15.3.15-.22.02.17.13.13-.06-.24.18-.31.24-.49.05.11.28.11.44.05.17-.06.34-.17.48-.28v.2c.29-.38.62-.05.96.02.04.08.1.27.2.25.19-.33.28-.3.56-.51.2,0,.52.08.73.21.75-.46,1.52-.17,2.3-.44l.06.24c.76-.51,1.69-.05,2.34-.31l-.06.41c.2.13.46-.11.41-.4.2.12.51-.2.64.14.21.08.25-.19.43-.24.42.15.57.12.96.04l-.1-.03c-.04.09-.05.26.05.29.15-.11.54.11.39-.38.42.28.98-.23,1.39.15-.03-.13.07-.16.11-.25.37,0,.75.26,1.05.04.06.07-.09.23.06.24.09-.05,0-.17.11-.25.6-.25,1.21.26,1.75.19.96-.26,1.97-.13,2.89-.17v.1c.3-.37.71.38.96-.18.07.09.28.04.22.23.12-.13.3-.07.48-.02.12.03.14.05.17.05.03,0,.06-.03.06-.12-.01,0-.01.01-.01.05.17.22.15-.08.36.12.01.04,0,.07.06.17.2.19-.17-.41.22.06.03,0-.17-.24-.17-.22.07.03.14.05.2.06.03-.25-.19-.63-.28-.77.28-.58.79-.03.44-.5.09-.04-.18-.03-.08-.04-.13-.19.53-.29.28-.43-.29.05-.16-.09-.34-.09.19-.38.45-.45.23-.75l.15.02c-.43-.44-.2-.54-.7-.5-.02-.1-.06-.18-.1-.22-.18.06-.31.13-.37.19-.58.06-1.36.11-2.04.13-1.86-.09-3.68.13-5.57-.13-.44-.4-.48-.39-.96-.23.02-.06.05-.08.02-.14-.02.33-.34.03-.39.34-.7-.06-1.34.03-2.06.03.11-.04.17-.3.04-.28l-.14.21-.02-.09c-.09.05-.19.21-.1.32-1.81.28-3.58-.37-5.35-.29-.42-.14-1.02-.01-1.47.06-1.35-.44-2.57-.79-3.95-.48,0,0,.18-.85.75-1.04Z"/>
        <path class="cls-1" d="M35.65,24.85c-.16.05-.25.21-.47.08.15-.02.33-.1.47-.08Z"/>
        <path class="cls-1" d="M33.97,29.22s-.07.1-.09.13c-.01-.08-.15-.14-.06-.21.01.08.09.06.16.08Z"/>
        <path class="cls-1" d="M33.87,30.91c-.15.07-.26-.24-.28-.46.09.17.19.33.28.46Z"/>
        <path class="cls-1" d="M33.68,32.72c.05.12-.05.19-.27.19.06-.08.16-.12.27-.19Z"/>
        <path class="cls-1" d="M34.1,32.38c.14,0,.14.08.15.17.1-.12-.4.08-.15-.17Z"/>
        <path class="cls-1" d="M37.55,32.81c.05-.01.17-.13.21.03-.05-.11-.25.19-.21-.03Z"/>
        <path class="cls-1" d="M38.56,32.59s.05.04.08,0c.06.07,0,.17-.05.19l-.03-.18Z"/>
        <polygon class="cls-1" points="56.94 32 56.83 32.07 56.85 31.93 56.94 32"/>
        <path class="cls-1" d="M60.34,24.43c-.09-.1.14-.21.16-.25.01.14-.18.07-.16.25Z"/>
        <polygon class="cls-1" points="55.63 24.07 55.66 24.07 55.65 24.37 55.63 24.07"/>
      </g>
      <g>
        <path class="cls-1" d="M60.57,31.47c.2-.47-.36.1.07-.34.07.12.09.25-.07.34Z"/>
        <path class="cls-1" d="M60.81,32.54c1.5,1.02,1.91,3.24,3.27,4.57.02.03.03.05.02.07-.08.1-.38.06-.3.4.59,1.69.24,4.45-.22,6.55l-.12-.13c-.09.4.31.89.25,1.32-.08,0-.11-.14-.22-.04.24.11.11.77.29.95-.09.17-.28.15-.38.37l.27.24c.64.68-.05,1.65.29,2.57-.06-.04-.11-.14-.17-.06.39,1.49.32,3.35.46,5.01-.1-.07-.27-.13-.38-.03.28.08.36.6.41,1.04-.29.2.27.76.11,1.29l-.06-.04c.3.39-.18.57.19.89l-.23.24c.41.17-.21.56,0,.88h.08c.1.29-.11.45-.04.73l-.05.03c.11.65-.12,1.03.2,1.02-.26.23-.12-.63-.49-.27.33,2.15.27,4.37.27,6.53-.13.25-.17.4-.29.46.06.22.06.81.22,1.01,0-.07-.16.14-.18.25-.12.36.35.49.21.94-.09-.22-.19-.3-.31-.28.25.44.21.97.29,1.5-.05-.12-.09-.26-.19-.33.07.19.11.34.11.47-.33.03-.74-.13-.98,0,.02-.06.04-.12.05-.19-.76-.22,0,.39-.68.25.13-.06.05-.13.06-.21-.2.17-.63.22-.97.25-.35.03-.71.03-.98.09.03-.03.02-.08.02-.08-.59.04-1.21-.06-1.85.08-.24-.08.08-.45-.55-.38.02.37-1.06.15-.69.57-.53-.06-1.38-.2-1.73-.07.24-.14-.26-.45.18-.49l-.33-.22c.05-.15.34.05.24-.14-.22.01-.87.16-1.07.1-.41.23-.79.65-1.45.7.31-.14-.18-.41.03-.47l-.93.71c-.22.02-.05-.29-.37-.2.02.1-.12.16-.22.24-.08-.04-.92.09-1.02-.27-.1-.14.36-.08.12-.21-.41,0-.43.13-.84.13v-.05c-.28-.05-.8.16-.51.36.19.01-.07-.22.21-.11-.19.21-.67.27-1.08.28.14-.06.12-.16.18-.26-.55.29-1.13.38-1.75.5,0,.17.23-.32.32-.22-.79-.24-1.63.34-2.28-.01.11-.03.06.25.05.2-.38-.02-.36-.27-.61-.18-.02-.15-.31.05-.56.09-.13.11-.07-.07.16-.09-.35.13-1.77.35-2.59.14.02.1-.5.36-.69.35l.07-.23c-.17-.14-.63.02-.66-.18-.4.28,1.55-.24,1-.02-.14-.19-.76.36-.64.05-.38,0-.74.27-1.11.05.11.04.31-.32,0-.3-.54.04-.15.11-.59.19l-.27.09c-.02.22-.48-.03-.28.22-.07-.18-.78.11-.73-.26l.07-.29c-.23.02-.38.31-.56.44-.03-.03-.09-.09-.08-.13-.04.44-.55-.04-.83.31-.49-.15-1.24-.01-1.47-.29-.19.07-.37.14-.55.19-.19.05-.34.06-.71.01.13-.04.31-.05.35-.15-.39-.13-.48-.01-.86.06.09-.07-.71-.26-.97-.42-.58.13-.61.37-.77.52-.06-.16-.29-.17-.6-.13-.06-.41-.27-.91-.02-1.48.06.17.22.63.33.14.22-.36.14-.51.03-.73-.11-.21-.25-.51-.14-.91-.12.07-.24.15-.36.24.23-.49-.21-.95.16-.92-.13-.18.12-.65-.24-.59.3-.9-.18-2.19.46-2.75-.06-.13,0-.45-.18-.39-.2.21.14.3,0,.38-.01-.12-.11-.14-.16-.15.08-.28.11-.5.4-.24.22-.62-.6-.64-.47-1.44.15.04.2-.02.18-.26l-.25-.44c.06-.51.33-.29.58-.3-.04-.27-.03-.61-.22-.73l.31-.33c-.23.24-.15-.23-.21-.35l.06.13c.1-.05.04-.37,0-.53-.15.04-.22.36-.26.54-.11-.14-.08-.36-.21-.54.24.06.17-.45.2-.66.05-.25-.22-.28-.21-.35.13,0,.02-.41.2-.21.04.09-.12.19-.01.34.09-.17.32-.15.15-.49-.12-.26-.48.07-.33-.42.06.13.16.15.25.25l.13-.46-.22-.02c.06-.06.08-.02.11-.05-.23-.14-.07-.7-.34-.8-.02-.23.15-.49.18-.71l.02.04c.13-.27.04-.63-.11-.85h.05c.02-.13-.02-.48-.15-.67.17-.37.84-.13.56-.54,0-.38-.41-.59-.55-.44.15-.68-.21-1.45.13-2.08-.09-.1-.15-.04-.2-.24.09-1-.26-2.1.17-2.9.09.29.22.02.35.01-.2-.24.21-.29-.14-.37-.2.02-.3,0-.38.28-.11-.59-.11-1.5.08-1.83-.09.16-.15.04-.22-.09.32.04.37-.4.26-.73l-.2-.05.2-.22c-.06-.13-.41-.14-.22-.47.08-.02.15-.04.21-.1-.16-.34-.43-.83-.27-1.2l.29-.3c-.03-.16-.2-.43-.29-.15.17-.63.19-1.04.44-1.25-.3-.55-.46-1.22-.53-1.91-.04-.37-.06-.64-.06-1.1,0-.61,0-1.2.01-1.76l.15.14c.14-.5-.26-.45-.15-.81.14.27.3-.22.47.33.11-.47-.08-.88-.21-1.34.06-.05.15-.09.27-.11-.1-.19-.32.12-.45-.12.05-.07,1.28.15,1.23-.14.29.11.25.33.22.45l.41-.14c.39.17.11.32-.08.48-.21.16-.31.33.08.54l.3-.05c.46.3-.56.34.23.45.19-.14.37-.57-.04-.69.8-.08.15-.69,1.25-.67.3.17-.87.04-.61.28.26.12.48.08.71.03.18-.05.31-.12.46-.08-.31-.11-.05-.4.15-.46.34.14-.22.28.26.3.08-.17.52-.29.14-.41.17-.38.5.11.77-.19.16.27-.5.62.03.75-.08-.26.66-.35.37-.73.21.07.23.28.08.44.3.16.72-.47.82.04l.1-.26c.09.09.23.15.38.29.26,0,.84-.36.82.04.08-.04.68-.02.45-.3-.37-.17-.43.2-.63-.17.26.3.54-.04.75-.14l.03.15c.13-.06.42-.03.5-.19-.1.09-.05.19.06.23l.13-.23c.52-.12.12.41.63.34l-.38.18c.08-.04.26.18.5.11.09-.21.27-.47.35-.64.29-.09.13.24.41.02l-.37.26c-.06.07.25.35.63.35.24-.07.62-.38.24-.5.19,0,.46.13.31.28.43-.07-.06-.23.32-.36.15.14.63.35.92.55l-.39.36h.26c-.34.29.17.22-.02.52.18.05.39-.06.56-.13-.52-.48.58-.66.43-1.1.71-.12.44,1.07,1.18.38-.12-.11.23-.45-.22-.32.44.05.3-.44.82-.26-.39.18.41.45-.14.71.04-.15-.31-.11-.4-.07.18.17-.04.44.41.44.28-.04.65-.05.6-.28-.01-.25-.42.03-.24-.23.55-.09.64.3.87-.15-.35.03-.43-.23-.43-.4l.4-.11-.08.17c.65.12.19-.3.82-.26l.29.33c-.15.29-.91-.13-.8.34.41.02.54-.22.93-.1-.09.04-.2.05-.29.09.15.02.29.63.87.27.3-.14.08-.17.09-.34.65-.05.85-.23,1.27-.26-.09.34.74.03.28.38-.21-.2-1.16-.18-1.39.14.24.4-.51-.06-.65.35.52,0,.5.41.58.67.15.02.29-.09.37-.13.06-.24-.13-.24-.14-.49.59.07,1.15-.07,1.47-.31.2.12.13.37-.1.39.7-.07,1.44-.04,2.1.03-.43-.4.74-.09.45-.43-.35-.09-.66-.37-.46-.55.22.03,0,.17.09.26.28-.22.44.35.72,0-.64.13-.12.49-.24.8.46-.18-.02.22.43.22.46-.17,1.02-.31,1.53-.38.24.1.4.13.58.13.18,0,.35-.03.49-.07.07-.18.12-.33.17-.43.22-.05.42.3.61.1.16-.29-.45.01-.05-.34l.03.08c.02-.19.73-.76.38-1.17l.24.35c.08-.07.06-.2.07-.3.11.06.27.01.25.2.4-.16.34-.65.52-.98l-.32.09c.18-.65.59-.9.84-1.48l.18.13.08-.39c.14.19.43-.03.38-.29l-.03,1.11c-.25.16-.08-.39-.35-.36-.24.03-.48.55-.35.74.13-.18.1-.21.12-.4.3.1.12.38.21.63.05-.11.21-.2.14-.27.01.27-.08.48-.27.81.03-.28-.24.02-.26-.11.22.17.1.52-.2.88-.44.13-.28.86-.63,1.28-.12-.33-.17-.68-.1-1.03-.29.22-.19.33-.48.55.09.25.33.47.12,1.06l-.17-.11c-.15.43-.01.69-.27,1.15-.05,0-.11,0-.19,0-.3-.02-.6-.04-.9-.06-.27-.01-.53-.02-.78-.03-.42-.01-.81-.02-1.15-.03l-.03-.2c-.37.43-1.24.16-1.75.35-.86-.2-1.86.19-2.3-.16-1.51.16-2.83.31-4.39.23l.26-.3c-.28.22-.18-.17-.46-.13.32.24-.38.31-.57.49-.7-.23-1.59.02-2.21.23l-.02-.2c-.62.38-1.37.05-2.14-.02-.09-.08-.23-.27-.46-.25-.42.33-.64.3-1.26.51-.45,0-1.18-.08-1.64-.21-.84.23-1.68.27-2.54.29-.54,0-.57.01-.77.03-.17.02-.32.05-.41.11v.03c-.07-.06-.15-.12-.23-.17.13.31.19.51.23.68.02.1.02.13.03.29v.7c-.02.92-.07,1.81.06,2.54l-.41-.14c-.13.46.11,1.04.4.93-.12.46.2,1.15-.14,1.44-.08.47.19.57.24.96-.15.94-.12,1.29-.04,2.17l.03-.22c-.09-.1-.26-.11-.29.11.11.33-.11,1.21.38.89-.28.95.23,2.21-.15,3.12.13-.08.16.15.25.25,0,.83-.26,1.7-.04,2.36-.07.13-.23-.21-.24.13.05.2.17,0,.25.25.25,1.34-.26,2.72-.19,3.94.26,2.17.13,4.44.17,6.52l-.1-.02c.37.7-.38,1.64.18,2.19-.09.16-.04.63-.23.51.13.4.07.39.02.54-.05.13-.1.34.07.29,0-.03-.01-.02-.05,0-.03.06-.05.11-.06.16.17.08.43-.12.62.05-.03.04-.09.07-.12.17.03.05.07.04.11.02.02-.01.04-.03.06-.05l.14-.05c.18-.07.34-.1.43.14.19,0,.13-.24.02-.22,1.87.18,3.87-.12,5.82-.22,1.4.28.09.79,1.19.44.09.09.07-.18.08-.08.43-.13.66.53.96.28-.12-.29.2-.16.21-.34.85.19,1.03.45,1.7.23l-.05.15c.79-.43,1.71-.2,2.37-.7,4.36-.09,8.53-.37,12.78-.42.73,0,1.46.02,2.18.02.03,0,.06,0,.08,0v-.07s-.01-1.92-.01-1.92c.01-1.37.04-2.74.13-4.13.4-1,.39-1.07.23-2.17.06.04.08.11.14.04-.33-.06-.03-.77-.34-.88.06-1.58-.03-3.03-.03-4.65.04.26.3.39.28.08l-.21-.32.09-.05c-.05-.21-.21-.44-.32-.22-.28-4.07.37-8.08.29-12.07.14-.95.01-2.3-.06-3.33.04-.27.08-.53.11-.8l.03-.19.03-.04.05-.09c.11.03-.29-.79-.51-1.28-.26-.55-.52-1.09-.81-1.62-.57-1.07-1.2-2.11-1.96-3.14,0,0,.94-.09,1.76.91Z"/>
        <path class="cls-1" d="M60.28,32.01c-.2,0-.45.27-.5-.09.15.05.39-.02.5.09Z"/>
        <path class="cls-1" d="M53.44,36.09s-.13-.07-.16-.09c.12-.01.23-.15.32-.06-.12.01-.1.09-.15.16Z"/>
        <path class="cls-1" d="M51.01,35.99c.04-.15.55-.26.86-.28l-.86.28Z"/>
        <path class="cls-1" d="M48.76,35.39c-.2-.12-.14-.19.12-.19.02.08-.07.12-.12.19Z"/>
        <path class="cls-1" d="M48.59,35.72c-.19,0-.28-.08-.37-.17,0,.12.43-.08.37.17Z"/>
        <path class="cls-1" d="M43.69,35.3c-.12.01-.37.13-.48-.03.12.11.57-.19.48.03Z"/>
        <path class="cls-1" d="M41.42,35.52c-.07,0-.1-.04-.19,0-.13-.07,0-.17.12-.19l.07.18Z"/>
        <polygon class="cls-1" points="30.75 69.45 30.68 69.1 30.82 69.12 30.75 69.45"/>
        <path class="cls-1" d="M48.55,71.65c.25-.09.17.14.21.16-.22.01.08-.18-.21-.16Z"/>
        <polygon class="cls-1" points="58.34 70.93 58.27 70.93 58.29 70.63 58.34 70.93"/>
      </g>
    </g>
    <g>
      <path class="cls-1" d="M36.8,31.31c-.03-.07-.19-.18-.06-.1.08.09.13.16.06.1Z"/>
      <path class="cls-1" d="M31.31,36.19c-.46-.62.15-.13-.11-.56-.01-.03.28.31.23.22-.33-.5.01-.34.41-.08l.08.09c.07.05-.17-.26-.12-.23.05.06.07.09.15.16-.16-.18-.04-.11-.16-.24.07.06.2.2.28.27l-.17-.21c-.41-.49.1-.03-.09-.3.04.05.07.09.11.13-.21-.34-.08-.35-.11-.52.06.07.18.2.25.28-.19-.21-.22-.28-.24-.34.21.21-.15-.22-.02-.12l.04.05c-.19-.24.14.11-.09-.17l.17.16c-.27-.31.17.14.04-.03l-.06-.06c-.06-.08.09.06.05,0l.03.03c-.05-.1.12.05-.1-.18.18.18.05.11.32.37-.14-.32,0-.35.07-.44.1.08.13.11.21.19-.04-.06,0-.07-.11-.2,0,0,.12.11.13.12.1.07-.22-.27-.11-.18.05.07.12.15.2.23-.16-.2-.11-.19-.15-.26.03.04.05.07.12.14-.17-.22.08.01-.03-.13l.12.14c.18.14-.26-.29-.14-.21.03.05.09.1.14.16-.21-.27-.1-.22-.15-.32.02.02.05.06.05.06,0-.05.09,0,.02-.13.07.05.3.33.28.26-.25-.27-.06-.15-.36-.44.06.03.19.1.12,0,.09.11.32.32.32.36l.17.15c.1.11-.05-.02.09.11,0-.02-.08-.15-.03-.11-.14-.18-.41-.51-.42-.57.09.12.29.29.32.35l-.45-.55s.2.21.15.13c-.07-.07-.1-.12-.15-.18.03.03-.03-.1.23.16.1.1.04.07.14.16.01-.02-.07-.11-.06-.13l.03.04s-.07-.14-.22-.28c-.02,0,.15.16.07.09-.14-.16-.16-.22-.15-.24.03.05.1.12.17.2-.17-.23-.21-.32-.27-.43-.12-.13.21.24.14.18.2.15-.17-.31.1-.08.02.03-.17-.18-.14-.14.03,0,.2.19.15.11.1.11-.02-.05-.04-.09-.07-.08.05.05.05.07-.07-.11-.17-.32,0-.2-.07-.07-.22-.28-.21-.28l.15.17c.1.09.01-.04.15.1-.17-.22.1.23-.02.05.14.13-.22-.29-.01-.06,0-.02-.15-.22,0-.08-.03-.02.2.24.2.22,0-.05-.07-.09-.1-.16l-.05-.08c-.15-.16.04,0-.14-.17.13.13-.05-.11.2.16l.19.22s-.19-.24-.27-.34c.02.02.06.06.09.09-.3-.33.05,0-.18-.26.12.1.06-.04.26.16-.08-.11-.17-.24-.09-.19.02.03.03.05.09.12.1.09.02,0-.02-.06.04.05.2.17.32.28-.08-.11-.24-.28-.34-.39.31.31-.15-.25.14.03.04.05.13.18.21.25.31.31-.19-.26-.03-.13l-.25-.26c.16.16-.11-.18.14.09-.08-.1.11.06-.14-.19.24.19-.04-.21.42.23-.04-.05.02-.02-.11-.15-.14-.14.08.11-.01.02,0-.01-.07-.08-.1-.12.07.05.09.06.28.29.17.14-.39-.47-.26-.39.1.11.14.15.13.12l-.15-.2c.06.02.24.23.41.42-.02-.04,0-.04-.12-.19l.23.22c-.16-.16-.09-.12-.13-.17l.04.05c.07.08.04.02.03-.01-.11-.11-.16-.15-.2-.17-.07-.09-.04-.07-.12-.18.16.18.14.11.16.12.05.03-.14-.17-.13-.17.09.09.03,0,.14.14.02.03-.09-.08-.02,0,.07.06.22.23.12.1-.07-.1-.33-.35-.21-.26.04.05.1.12.16.19l.1.08-.15-.16s.05.05.07.08c-.15-.18-.02-.08-.2-.28,0-.03.12.09.15.11v.02c.11.09.07,0-.03-.11l.03.04s0-.03-.07-.13c.13.11.58.61.4.39,0-.02-.25-.32-.36-.42.13.09-.09-.21.17.02-.06-.07-.1-.11-.13-.15.1.03-.1-.27.23.02.05.08.15.16.24.26-.13-.15.15.14-.08-.11-.14-.15-.2-.22-.27-.27-.05-.1-.01-.13.13,0-.07-.06-.11-.11-.14-.16.22.24.27.26.2.16l-.13-.15.15.14c-.04-.05-.27-.31-.13-.18.05.05.11.11.15.15-.1-.13-.26-.35-.13-.24l.21.2s-.12-.16-.19-.21c.14.1.17.1.35.28-.37-.48-.32-.56-.24-.57l.1.11c.11.09-.17-.19-.09-.13.09.11.22.21.32.35.12.1-.15-.21-.18-.27-.13-.14.07.1-.09-.08-.04-.05.13.08-.07-.13.08.08.22.24.3.33l-.08-.11c.25.24.38.48.68.77l-.02-.04c.22.21.21.28.3.33-.09-.12-.36-.43-.46-.52-.03-.08-.46-.52-.42-.53.12.12,0,.05.18.22.17.16-.06-.12,0-.07-.09-.07-.28-.29-.31-.34.11.09.18.21.22.21-.11-.13-.18-.23-.27-.31-.25-.28.09.06-.1-.17.19.19.4.47.51.55-.18-.19-.21-.28-.49-.55.06.05.2.19.3.32.12.11-.29-.37.06,0l-.18-.2c.06.06.11.1.21.2.01,0-.21-.29.06,0-.02-.03.01-.04-.19-.24-.13-.11.12.16-.14-.1.22.21,0-.05-.07-.13l.11.11s0-.04-.11-.16c.06.07.13.14.16.17l-.15-.18c-.06-.1.29.3.26.23l.11.15s.13.12.09.06c-.14-.16-.31-.35-.42-.48-.05-.08.17.17.03,0l.16.2c.05.05.25.25.26.23-.04-.06-.24-.3-.33-.37,0,0,.1.08.2.2-.03-.07-.16-.17-.23-.28.1.1.26.23.41.37l.23.28h.01c.18.22.16.15.35.38.04.03-.02-.06-.07-.12-.35-.34-.43-.51-.73-.82-.05-.11.75.77.31.24-.08-.08-.3-.34-.23-.23.05.02-.29-.34-.14-.22.11.15.32.31.48.53-.1-.11-.09-.07-.06-.04.12.12.3.33.32.31-.02-.04,0-.06-.17-.23-.17-.18,0,.04-.17-.16-.04-.08.23.19-.07-.14,0,.04-.17-.15-.29-.28l-.06-.09.11.13c.11.06-.2-.23-.14-.22l.24.23c.19.21-.12-.06.2.28.03,0-.13-.18-.03-.1.02.03.03.05.05.08.02,0,.44.45.22.17-.08-.11-.11-.12-.23-.25-.01-.06-.12-.2-.13-.24.23.25.05,0,.27.27-.14-.14-.17-.09.04.16.28.29-.06-.02.21.28.03-.01.3.28.48.47.02,0-.05-.08-.08-.11-.16-.18-.17-.17-.34-.36.07.03,0-.09-.15-.28.09.08.25.26.26.29-.02-.08.03-.08.11-.05-.29-.28-.03-.1-.27-.33-.08-.05-.28-.25-.4-.39.03.01.12.13.18.19-.14-.17.26.24.03-.02.06.12.33.36.54.59-.1-.15.15.16.17.15-.1-.14-.17-.27-.2-.33.23.19.07-.06.08-.08.12.1.35.37.41.4.01-.02-.27-.27-.14-.17l.05.05c-.05-.07.2.14-.14-.24l.25.29s-.03-.05-.05-.08c.08.09.17.17.22.24.19.18,0-.06,0-.08l-.16-.16c-.1-.15.07,0,.04-.09l.15.16-.08-.11c.14.16.25.25.14.11l.33.43c-.1-.09-.17-.21-.33-.36-.14-.13-.12-.07.02.09.03,0,0-.03-.05-.09.21.22.19.23.33.38,0-.01.07.05,0-.02.09.12.1.14.09.16-.07-.1-.14-.13-.19-.2.18.2.23.27.16.24-.23-.22.1.18.02.14-.18-.21-.32-.38-.38-.47-.11-.09,0,.02-.12-.07.13.16.34.39.41.5l-.14-.15c.05.09.26.31.2.29-.1-.04-.14,0-.18,0l-.14-.15c.28.33.06.16.17.32-.17-.11.06.21-.2-.03.05.17.1.33-.01.33l-.19-.23c.14.17-.12-.12-.1-.08.17.16.19.24.31.38-.18-.14-.05.07.07.25l-.14-.15c.23.3-.02.08-.09.07-.06-.06-.2-.19-.19-.17.21.26.18.25.3.42-.02.02-.1-.02-.21-.09.25.4-.02.25.1.52l-.17-.17c.28.44-.12.17,0,.42l-.27-.3c-.1-.08.03.12.23.32-.1-.07.09.19-.15-.05-.07-.04.11.16.13.21-.14-.08-.13-.04-.12.05h.03c-.06-.06-.17-.19-.2-.2.06.09-.12-.04.22.31-.23-.17.07.25-.23,0,.09.09.1.12.16.19-.03.03-.25-.13-.12.06-.05-.04-.15-.17-.17-.17.03.04.12.13.16.19.12.23-.28-.09-.29,0,.09.27-.09.26-.14.36l-.07-.07c.23.3-.32-.22.04.21-.07-.06-.05,0-.18-.15.16.21-.23-.12-.03.15,0,0,0-.01-.03-.05-.18-.13,0,.11-.17,0-.03-.03-.04-.06-.11-.13-.14-.12.25.33-.08,0,0,.01.16.18.15.16-.2-.07-.07.23-.08.38-.25-.15-.54-.58-.35-.28-.07-.06.12.13.05.06.07.11-.38-.36-.23-.17.2.21.1.13.22.25-.16-.11-.35-.29-.22-.11l-.1-.11c.26.34.07.21.38.6-.11.23-.09.58-.22.78-.23.09-.24.4-.59.36-.31-.26-.31-.25-.24-.09-.04-.05-.05-.06-.09-.1.22.24,0,.05.2.28-.1.01-.1.13-.16.19-.01-.04-.19-.24-.19-.21l.13.16-.06-.06s.13.17.21.24c.03.36-.57.02-.68.23-.13-.07-.1.08-.09.16-.42-.21-.77-.37-.68-.03,0,0-.56-.64-.64-.83Z"/>
      <path class="cls-1" d="M36.8,31.36c-.12-.12-.19-.17-.33-.34.11.11.23.23.33.34Z"/>
      <path class="cls-1" d="M35.27,30.47s-.05-.04-.07-.06c0-.01-.09-.12-.03-.06,0,.01.06.07.1.12Z"/>
      <path class="cls-1" d="M35.11,30.49c-.1-.11-.16-.21-.16-.24l.16.24Z"/>
      <path class="cls-1" d="M34.61,30.13c-.09-.08-.14-.13-.12-.14.05.06.08.09.12.14Z"/>
      <path class="cls-1" d="M34.83,30.38s-.07-.05-.13-.11c.09.09-.04-.07.13.11Z"/>
      <path class="cls-1" d="M34.35,30.25s.08.11-.04,0c.08.08-.1-.16.04,0Z"/>
      <path class="cls-1" d="M34.41,30.5s-.03-.02,0,.01c-.05-.04-.12-.13-.12-.14l.13.13Z"/>
      <polygon class="cls-1" points="33.17 32.45 33.13 32.39 33.23 32.49 33.17 32.45"/>
      <path class="cls-1" d="M32.46,33.12c.05.08-.1-.09-.12-.11,0-.02.12.13.12.11Z"/>
      <polygon class="cls-1" points="32.57 34.01 32.57 34.01 32.77 34.23 32.57 34.01"/>
    </g>
    <g>
      <path class="cls-1" d="M55.99,70.48c.07.12.26-.07.11.08-.12-.02-.21-.04-.11-.08Z"/>
      <path class="cls-1" d="M56.15,37.61c.76.39,0,.91.48,1.35.03.05-.42-.01-.32.1.59.42.24,1.08-.22,1.59l-.12-.03c-.09.1.31.22.25.32-.08,0-.11-.03-.22,0,.24.03.11.19.29.23-.09.04-.28.04-.38.09l.27.06c.64.16-.05.4.29.62-.06-.01-.11-.03-.17-.02.39.36.32.81.46,1.21-.1-.02-.27-.03-.38,0,.28.02.36.14.41.25-.29.05.27.18.11.31h-.06c.3.08-.18.13.19.2l-.23.06c.41.04-.21.13,0,.21h.08c.1.07-.11.11-.04.18h-.05c.11.16-.12.26.2.25-.26.06-.12-.15-.49-.07.33.52.27,1.05.27,1.58-.13.06-.17.1-.29.11.06.05.06.2.22.24,0-.02-.16.03-.18.06-.12.1.35.1.21.21-.09-.04-.19-.06-.31-.04.25.09.21.21.29.31-.05-.02-.09-.04-.19-.04.28.11-.06.21.12.31l-.19-.04c-.22.16.39.05.25.19-.06-.03-.13-.02-.21-.03.34.13.23.34.34.47-.03,0-.08,0-.08,0,.04.14-.06.29.08.45-.08.06-.45-.02-.38.13.37,0,.15.26.57.17-.06.13-.2.33-.07.42-.14-.06-.45.06-.49-.04l-.22.08c-.15-.01.05-.08-.14-.06.01.05.16.21.1.26.23.1.65.19.7.35-.14-.08-.41.04-.47,0l.71.22c.02.05-.29.01-.2.09.1,0,.16.03.24.05-.04.02.09.22-.27.25-.14.02-.08-.09-.21-.03,0,.1.13.1.13.2h-.05c-.05.07.16.19.36.12.01-.05-.22.02-.11-.05.21.05.27.16.28.26-.06-.03-.16-.03-.26-.04.29.13.38.27.5.42.17,0-.32-.06-.22-.08-.24.19.34.39-.01.55-.03-.03.25-.01.2-.01-.02.09-.27.09-.18.15-.15,0,.05.07.09.14.11.03-.07.02-.09-.04.13.09.35.43.14.63.1,0,.36.12.35.17l-.23-.02c-.14.04.02.15-.18.16.28.1-.24-.37-.02-.24-.19.03.36.18.05.15,0,.09.27.18.05.27.04-.03-.32-.07-.3,0,.04.13.11.04.19.14l.09.07c.22,0-.03.12.22.07-.18.02.11.19-.26.18l-.29-.02c.02.06.31.09.44.14-.03,0-.09.02-.13.02.44,0-.04.13.31.2-.15.12-.01.3-.29.35.13.09.3.17.2.28-.04-.02-.05-.05-.15-.05-.13.06-.01.08.06.14-.07-.01-.26.13-.42.2.13.09.37.06.52.07-.44.08.28.25-.12.36-.06-.03-.22-.13-.33-.06-.44.08.32.17.11.3l.36-.03c-.23.06.21.19-.16.18.13.04-.12.16.24.14-.3.22.18.53-.46.66.06.03,0,.11.18.09.2-.05-.14-.07,0-.09.01.03.11.03.16.04-.08.07-.11.12-.4.06-.22.15.6.16.47.35-.15,0-.2,0-.18.06l.25.11c-.06.12-.33.07-.58.07.04.07.03.15.22.18l-.31.08c.23-.06.15.05.21.09l-.06-.03c-.1.01-.04.09,0,.13.15,0,.22-.09.26-.13.11.03.08.09.21.13-.24-.01-.17.11-.2.16-.05.06.22.07.21.09-.13,0-.02.1-.2.05-.04-.02.12-.05.01-.08-.09.04-.32.04-.15.12.12.06.48-.02.33.1-.06-.03-.16-.04-.25-.06l-.13.11h.22c-.06.02-.08,0-.11.02.23.03.07.17.34.19.02.06-.15.12-.18.17h-.02c-.13.05-.04.14.11.2h-.05s.02.12.15.16c-.17.09-.84.03-.56.13,0,.09.41.14.55.11-.15.16.21.35-.13.5.09.02.15,0,.2.06-.09.24.26.51-.17.7-.09-.07-.22,0-.35,0,.2.06-.21.07.14.09.2,0,.3,0,.38-.07.11.14.11.36-.08.44.09-.04.15,0,.22.02-.32-.01-.37.1-.26.18h.2s-.2.06-.2.06c.06.03.41.03.22.11-.08,0-.15,0-.21.02.16.08.43.2.27.29l-.29.07s.2.1.29.04c-.17.15-.19.25-.44.3.6.26.63.65.58.95h-.15c-.14.07.26.03.15.09-.14-.03-.3.06-.47,0-.15.12.25.15.32.23.19.01-.12-.06.12-.05.07.01-.15.16.14.18-.11.03-.33,0-.45,0l.14.07c-.34.09-.61-.2-1.03-.11l.05.07c-.3.06-.34-.18-.45,0,.14.07.57.13.69.07.08.15.69.07.67.23-.17.04-.04-.13-.28-.1-.23.08.13.15.05.22.11-.08.4-.01.46.04-.14.08-.28-.05-.3.06.17.02.29.13.41.03.38.04-.11.12.19.18-.27.04-.62-.12-.75,0,.26-.02.35.16.73.09-.07.05-.28.06-.44.02-.16.07.47.17-.04.2l.26.02c-.09.02-.15.05-.29.09,0,.06.36.2-.04.2.04.02.02.16.3.11.17-.09-.2-.1.17-.15-.3.06.04.13.14.18h-.15c.06.04.03.11.19.13-.09-.02-.19-.01-.23.01l.23.03c.12.13-.41.03-.34.15l-.18-.09s-.18.06-.11.12c.21.02.47.07.64.08.09.07-.24.03-.02.1l-.26-.09c-.07-.01-.35.06-.35.15.07.06.38.15.5.06,0,.05-.13.11-.28.07.07.1.23-.01.36.08-.14.04-.35.15-.55.22l-.36-.09v.06c-.29-.08-.22.04-.52,0-.05.04.06.09.13.14.48-.12.66.14,1.1.1.12.17-1.07.11-.38.29.11-.03.45.05.32-.05-.05.11.44.07.26.2-.18-.09-.45.1-.71-.03.15,0,.11-.07.07-.1-.17.04-.44,0-.44.1.04.07.05.16.28.14.25,0-.03-.1.23-.06.09.13-.3.15.15.21-.03-.08.23-.1.4-.1l.11.1-.17-.02c-.12.16.3.05.26.2l-.33.07c-.29-.04.13-.22-.34-.19-.02.1.22.13.1.22-.04-.02-.05-.05-.09-.07-.02.04-.63.07-.27.21.14.07.17.02.34.02.05.16.23.2.26.31-.34-.02-.03.18-.38.07.2-.05.18-.28-.14-.34-.4.06.06-.12-.35-.16,0,.13-.41.12-.67.14-.02.04.09.07.13.09.24.01.24-.03.49-.03-.07.14.07.28.31.35-.12.05-.37.03-.39-.02.07.17.04.35-.03.51.4-.1.09.18.43.11.09-.09.37-.16.55-.11-.03.05-.17,0-.26.02.22.07-.35.11,0,.17-.13-.15-.49-.03-.8-.06.18.11-.22,0-.22.1.17.11.31.25.38.37-.3.15,0,.39,0,.53-.16.07-.51.02-.57.1,0,.09.38-.07.22.07h-.07c.08.03-.24.24.27.28l-.38-.04s.05.05.09.07c-.12,0-.24.03-.32-.01-.26.08.04.18.05.27l.23-.06c.18.16-.05.26.03.41h-.22s.13.09.13.09c-.21-.02-.35.06-.17.11l-.54-.23c.13-.06.27.07.49.03.19-.03.13-.17-.08-.2-.02.05.02.06.1.1-.31.02-.3-.06-.5-.1.01.03-.08.07.02.07-.15-.05-.17-.11-.18-.2.12.06.19-.03.28-.01-.27,0-.36-.09-.28-.21.31-.08-.2-.21-.12-.34.28.05.5.12.61.2.14-.08,0-.09.13-.17-.21-.04-.52-.07-.64-.18h.2c-.1-.1-.4-.1-.35-.23.1-.21.1-.43.13-.59h.2c-.43-.1-.16-.31-.35-.43.2-.21-.19-.45.16-.55-.16-.36-.31-.68-.23-1.06l.3.06c-.22-.07.17-.04.13-.11-.24.08-.31-.09-.49-.14.23-.17-.02-.38-.23-.53h.2c-.38-.16-.05-.34.02-.52.08-.02.27-.06.25-.11-.33-.1-.3-.15-.51-.3,0-.11.08-.29.21-.4-.46-.41-.17-.83-.44-1.25l.24-.03c-.51-.41-.05-.92-.31-1.27l.41.03c.13-.11-.11-.25-.4-.22.12-.11-.2-.28.14-.35.08-.11-.19-.14-.24-.23.15-.23.12-.31.04-.52l-.03.05c.09.02.26.03.29-.03-.11-.08.11-.29-.38-.21.28-.23-.23-.53.15-.75-.13.02-.16-.04-.25-.06,0-.2.26-.41.04-.57.07-.03.23.05.24-.03-.05-.05-.17,0-.25-.06-.25-.32.26-.66.19-.95-.26-.52-.13-1.07-.17-1.57h.1c-.37-.16.38-.39-.18-.52.09-.04.04-.15.23-.12-.26-.13.25-.38-.09-.57,0,.02.01.03.05.05.22-.2-.08-.37.12-.57.04.02.07.06.17.07.19-.08-.41-.19.06-.23,0-.05-.24-.03-.22,0,.18-.45-.12-.93-.22-1.4.28-.34.79-.02.44-.29.09-.02-.18-.02-.08-.02-.13-.1.53-.16.28-.23-.29.03-.16-.05-.34-.05.19-.21.45-.25.23-.41h.15c-.43-.18-.2-.4-.7-.56-.09-1.05-.37-2.06-.42-3.08.09-1.01-.13-2.01.13-3.03.4-.24.39-.26.23-.52.06.01.08.03.14,0-.33-.01-.03-.19-.34-.21.06-.38-.03-.73-.03-1.12.04.06.3.09.28.02l-.21-.08h.09c-.05-.06-.21-.12-.32-.07-.28-.98.37-1.95.29-2.91.14-.23.01-.55-.06-.8.44-.74.79-1.4.48-2.15,0,0,.85.1,1.04.41Z"/>
      <path class="cls-1" d="M55.95,70.34c.16-.03.25-.11.47-.04-.15,0-.33.05-.47.04Z"/>
      <path class="cls-1" d="M57.64,68.05s.07-.03.09-.04c.01.03.15.05.06.08-.01-.03-.09-.02-.16-.04Z"/>
      <path class="cls-1" d="M57.74,67.46c.15,0,.26.13.28.21l-.28-.21Z"/>
      <path class="cls-1" d="M58.34,66.92c.12-.05.19-.03.19.03-.08,0-.12-.02-.19-.03Z"/>
      <path class="cls-1" d="M58.01,66.88s.08-.07.17-.09c-.12,0,.08.1-.17.09Z"/>
      <path class="cls-1" d="M58.43,65.7s-.13-.09.03-.12c-.11.03.19.14-.03.12Z"/>
      <path class="cls-1" d="M58.21,65.15s.04-.03,0-.05c.07-.03.17,0,.19.03l-.18.02Z"/>
      <polygon class="cls-1" points="57.63 55.14 57.7 55.2 57.55 55.19 57.63 55.14"/>
      <path class="cls-1" d="M57.62,50.76c-.09-.06.14-.04.16-.05.01.05-.18-.02-.16.05Z"/>
      <polygon class="cls-1" points="56.89 48.39 56.89 48.41 56.59 48.4 56.89 48.39"/>
    </g>
    <g>
      <path class="cls-1" d="M32.21,51.99c-.11,0-.11.24-.11.06.08-.09.14-.15.11-.06Z"/>
      <path class="cls-1" d="M56.05,52.25c.13.82-.63.36-.69.95-.02.05-.19-.37-.22-.24-.02.68-.67.62-1.22.36l-.03-.12c-.1-.05-.03.35-.13.33-.03-.07-.02-.11-.08-.2.08.22-.09.16-.05.33-.07-.07-.13-.25-.21-.33l.06.27c.12.64-.31.08-.35.45-.01-.06-.01-.11-.05-.17-.13.47-.51.51-.78.74-.01-.09-.05-.26-.1-.36.06.28-.01.37-.09.45-.11-.27-.08.3-.22.17v-.07c-.01.32-.16-.14-.14.23l-.1-.21c.05.41-.15-.19-.17.03l.02.08c-.04.11-.11-.09-.15,0v-.05c-.12.14-.24-.08-.18.23-.09-.25.11-.13-.03-.49-.36.39-.83.38-1.27.36-.05-.13-.07-.17-.08-.29-.05.06-.16.05-.22.21.01,0-.01-.16-.03-.18-.06-.13-.13.33-.2.18.05-.08.07-.18.08-.3-.11.23-.2.18-.3.24.03-.05.05-.08.07-.18-.16.26-.15-.1-.27.05l.08-.17c-.06-.25-.14.36-.22.2.05-.05.06-.12.08-.19-.21.3-.34.12-.49.18.02-.02.03-.07.03-.07-.13,0-.2-.16-.38-.09,0-.1.23-.39.09-.39-.18.33-.26.02-.42.42-.06-.12-.13-.32-.26-.26.12-.09.22-.4.31-.38l.08-.22c.1-.12.02.08.12-.09-.04-.01-.22.04-.22-.04-.2.14-.52.43-.65.38.14-.08.22-.34.3-.37l-.58.45s.17-.24.07-.2c-.06.08-.12.11-.18.16.01-.04-.19-.04.02-.33.07-.12.1-.02.15-.15-.06-.05-.14.05-.21,0l.03-.04c0-.07-.21.03-.29.23.02.03.12-.18.1-.07-.16.15-.26.14-.32.1.05-.03.11-.11.18-.19-.25.17-.38.2-.52.24-.1.14.2-.24.17-.16.01-.29-.39.16-.3-.2.03-.02-.11.22-.09.18-.04-.05.08-.27,0-.2.06-.13-.06.02-.11.05-.06.09.02-.07.06-.07-.11.08-.35.23-.39,0-.03.1-.16.32-.17.31l.06-.22c0-.14-.09,0-.05-.19-.12.26.27-.19.14,0,.03-.2-.19.33-.1.03-.06,0-.15.24-.16.02,0,.04.1-.3.05-.3-.09.02-.04.1-.11.17l-.05.09c-.03.22-.07-.03-.06.22,0-.18-.11.11-.08-.26l.03-.29s-.08.3-.11.43c0-.03-.01-.09,0-.13-.01.45-.08-.05-.11.3-.06-.15-.14,0-.2-.28-.04.13-.05.3-.12.22,0-.04.02-.06,0-.15-.06-.12-.05,0-.06.07,0-.07-.12-.24-.21-.39-.02.14.06.37.09.51-.17-.41-.05.31-.22-.05,0-.06,0-.23-.08-.32-.2-.4.01.34-.14.18l.16.33c-.12-.19-.02.24-.16-.1.03.13-.14-.07.02.25-.26-.2-.21.31-.61-.19.01.06-.07.04.03.19.13.15-.03-.15.05-.04-.01.02.03.11.06.15-.08-.05-.13-.05-.24-.33-.21-.13.22.57.02.53-.07-.13-.11-.17-.13-.13l.07.26c-.11,0-.22-.25-.36-.46-.02.06-.08.09,0,.26l-.22-.23c.16.17.04.15.06.22v-.07c-.08-.08-.09,0-.1.05.09.13.18.14.23.16.04.11-.01.11.03.24-.12-.21-.17-.1-.22-.1-.07-.02.07.22.05.22-.07-.11-.08.03-.14-.14,0-.04.1.08.06-.03-.08-.06-.19-.25-.17-.08.02.13.27.4.1.32,0-.07-.06-.15-.09-.24l-.15-.06.11.19s-.04-.06-.06-.08c.1.21-.08.14.04.37-.03.05-.17-.08-.22-.08v-.02c-.12-.08-.14.03-.11.18l-.02-.04s-.08.07-.05.2c-.15-.11-.43-.72-.37-.44-.07.04.08.42.17.53-.2-.06-.2.35-.48.09.02.09.05.14.03.2-.24.02-.38.44-.7.09.03-.11-.07-.21-.11-.33.01.21-.12-.18-.04.16.07.19.09.29.18.34-.1.16-.33.21-.45.05.06.08.05.15.03.21-.07-.31-.18-.34-.23-.21l.03.19-.09-.18c-.02.07.05.41-.07.24-.02-.07-.04-.15-.06-.2-.05.17-.13.46-.25.31l-.11-.27s-.08.22,0,.29c-.18-.14-.28-.17-.34-.41-.21.62-.64.66-.94.59l.02-.15c-.07-.14-.06.25-.11.15.04-.14-.04-.31.03-.47-.1-.16-.17.25-.25.3-.03.19.07-.11.03.13-.02.07-.14-.17-.19.12-.02-.12.03-.33.06-.44l-.08.13c-.04-.35.25-.58.21-1.01l-.06.04c-.02-.31.18-.32.06-.44-.07.14-.18.55-.14.68-.14.06-.15.68-.3.64-.02-.17.13-.02.13-.27-.04-.24-.16.11-.21.02.05.12-.05.4-.11.45-.06-.15.1-.26-.01-.31-.05.16-.17.27-.1.4-.11.37-.1-.13-.21.15.02-.27.23-.59.14-.74-.03.26-.21.31-.23.7-.03-.08,0-.28.07-.43-.03-.17-.26.43-.17-.08l-.08.25c0-.09-.02-.16-.02-.3-.06-.01-.27.3-.17-.08-.03.04-.15-.02-.17.26.04.18.14-.17.1.2.02-.31-.13,0-.2.09l.03-.15c-.04.05-.1,0-.16.16.05-.08.06-.18.05-.23l-.09.22c-.15.08.09-.4-.04-.37l.13-.15s0-.19-.08-.13c-.09.2-.19.43-.26.59-.09.07.04-.24-.08-.05l.15-.22c.03-.06.05-.36-.03-.38-.07.05-.25.32-.2.46-.04-.01-.06-.15.02-.29-.11.04-.06.22-.18.32.01-.15-.02-.37-.02-.59l.2-.31-.05-.02c.16-.25.04-.22.18-.49-.02-.06-.09.03-.15.09-.06.49-.34.58-.46,1.01-.19.06.29-1.04-.11-.45-.02.12-.21.4-.07.32-.07-.08-.22.39-.26.18.15-.14.08-.45.29-.65-.06.13.02.13.05.1.03-.17.17-.41.08-.44-.07.02-.15,0-.22.22-.09.24.09,0-.04.23-.14.04-.01-.33-.23.07.08,0,0,.25-.07.41l-.12.06.08-.15c-.08-.17-.16.26-.27.17l.07-.33c.14-.25.13.2.29-.24-.07-.05-.19.15-.22,0,.03-.03.06-.03.09-.06-.02-.03.2-.6-.06-.32-.12.1-.08.14-.16.3-.15,0-.26.13-.36.12.16-.3-.13-.1.11-.37-.04.2.15.27.33,0,.12-.39.08.1.27-.27-.1-.05.07-.41.16-.66-.02-.03-.09.06-.12.09-.11.22-.08.23-.18.46-.08-.11-.24-.04-.41.15.02-.13.13-.34.18-.34-.16,0-.29-.09-.37-.22-.1.4-.18.01-.28.34.02.11-.05.4-.16.54-.03-.04.08-.16.1-.24-.15.17.08-.35-.13-.07.18-.05.25-.42.41-.69-.16.11.11-.2.02-.24-.16.11-.33.18-.45.19.03-.32-.29-.16-.39-.21.03-.17.24-.45.22-.54-.07-.03-.14.36-.16.16l.04-.06c-.07.05-.05-.31-.34.11l.23-.31s-.06.02-.1.05c.06-.11.1-.22.17-.27.08-.26-.14-.04-.21-.07l-.08.22c-.2.08-.16-.15-.3-.15l.12-.18-.13.07c.13-.17.16-.32.02-.19l.45-.35c-.03.14-.19.19-.29.39-.08.17.05.19.18.02-.02-.04-.05,0-.12.04.16-.27.2-.22.34-.38-.03,0,0-.1-.06-.02.12-.1.17-.1.23-.07-.11.08-.08.18-.14.24.15-.23.25-.26.29-.15-.11.3.25-.09.29.04-.18.22-.33.38-.45.44-.02.15.07.03.05.18.13-.16.31-.42.45-.49l-.1.18c.12-.05.27-.31.32-.22.09.16.24.25.34.33l-.09.18c.26-.35.28-.03.45-.16.06.25.39-.03.32.32.32-.03.6-.07.83.1l-.15.26c.13-.18-.03.17.03.15.03-.24.18-.26.27-.42.04.26.28.08.45-.08l-.06.19c.23-.33.24.04.36.13,0,.08-.04.27,0,.26.16-.3.19-.26.35-.43.07.02.17.13.22.27.38-.38.6-.06.91-.3v.24c.3-.49.59-.03.79-.31l.02.41c.09.13.15-.13.09-.41.08.11.12-.22.22.11.08.06.05-.19.08-.26.16.12.2.07.3-.03l-.04-.02c.01.09.06.26.1.27.01-.12.2.04,0-.4.22.23.19-.31.47-.02-.07-.12-.05-.15-.07-.24.1-.05.35.12.33-.12.05.05.08.21.13.2,0-.06-.08-.15-.09-.24.06-.32.52,0,.68-.18.2-.43.66-.58,1.07-.86l.04.09c-.02-.41.52.16.41-.41.08.07.17-.03.22.16.03-.31.46.07.57-.3-.02,0-.03.02-.04.07.27.13.4-.2.68-.05-.02.05-.05.08-.04.18.11.17.15-.45.27.01.05,0,0-.24-.02-.22.56.13,1.04-.17,1.65-.15.33.36-.16.77.22.51,0,.09.07-.17.04-.07.15-.09.01.55.16.34.06-.28.1-.14.17-.3.16.26.07.52.33.39l-.08.13c.38-.3.46.02.88-.31,1.01.57,1.71.88,2.07.96.31.23.58.08,1.23.27.19.38.21.36.34.18,0,.06,0,.08.02.14-.05-.32.11-.05.07-.36.25.02.45-.12.69-.2-.03.04.02.31.06.27v-.21s.03.09.03.09c.02-.06,0-.22-.05-.31.52-.45,1.38-.08,2-.46.21.05.37-.17.5-.31.66.15,1.33.18,1.59-.35,0,0,.42.74.31,1.04Z"/>
      <path class="cls-1" d="M32.32,52.03c-.08.15-.07.26-.24.41.08-.13.15-.29.24-.41Z"/>
      <path class="cls-1" d="M33.06,54.43s0,.07-.01.1c-.03,0-.11.11-.09.03.03,0,.06-.07.1-.13Z"/>
      <path class="cls-1" d="M33.47,54.74c-.07.13-.22.18-.29.17l.29-.17Z"/>
      <path class="cls-1" d="M33.66,55.49c-.01.13-.05.19-.1.16.03-.07.06-.1.1-.16Z"/>
      <path class="cls-1" d="M33.82,55.2s.02.1,0,.18c.05-.11-.12.03,0-.18Z"/>
      <path class="cls-1" d="M34.66,56s.12-.1.09.06c.01-.12-.19.13-.09-.06Z"/>
      <path class="cls-1" d="M35.22,55.95s.01.04.04,0c0,.07-.05.17-.08.17l.04-.18Z"/>
      <polygon class="cls-1" points="43.63 53.65 43.62 53.73 43.57 53.6 43.63 53.65"/>
      <path class="cls-1" d="M45.94,54.01c.09-.05-.06.13-.06.15-.04,0,.12-.14.06-.15Z"/>
      <polygon class="cls-1" points="47.93 54.56 47.91 54.56 48.06 54.3 47.93 54.56"/>
    </g>
  </g>
</svg>