<?xml version="1.0" encoding="UTF-8"?>
<svg id="Layer_3" data-name="Layer 3" xmlns="http://www.w3.org/2000/svg" viewBox="0 0 300 300">
  <defs>
    <style>
      .cls-1 {
        fill: #fff;
      }

      .cls-2 {
        fill: #202020;
      }
    </style>
  </defs>
  <g>
    <ellipse class="cls-1" cx="123.77" cy="133.65" rx="12.94" ry="19.23"/>
    <g>
      <path class="cls-1" d="M137.23,133.9c-.05-.38-.26.2-.11-.25.12.05.2.13.11.25Z"/>
      <path class="cls-1" d="M137.03,132.39c-.79-1.16-.22-2.82-.95-4.05-.06-.15.42-.04.26-.37-.86-1.13-1-3.12-1.25-4.75l.14.04c-.04-.32-.53-.5-.63-.81.07-.04.15.04.21-.07-.25.03-.36-.47-.58-.51.03-.16.2-.23.21-.43l-.32-.04c-.8-.13-.59-1.09-1.24-1.49.07,0,.15.02.17-.06-.96-.67-1.73-1.8-2.76-2.48.1-.04.25-.14.27-.26-.24.17-.56-.03-.84-.2.06-.32-.61-.11-.81-.45l.06-.04c-.39.1-.24-.4-.63-.19l-.04-.28c-.31.3-.25-.38-.55-.31l-.03.08c-.23-.01-.24-.26-.46-.26v-.05c-.48-.07-.65-.38-.75-.07-.07-.3.46.05.35-.39-1.59-.24-3.16-.43-4.7-.15-.2-.09-.32-.1-.38-.21-.14.1-.58.18-.66.39.05-.02-.14-.12-.23-.1-.31,0-.17.44-.52.42.08-.12.09-.24,0-.33-.17.33-.51.41-.75.65.02-.07.07-.14.02-.22-.18.42-.59.25-.77.56v-.21c-.55.05.08.4-.34.52.05-.11-.02-.15-.05-.22-.13.52-.73.76-.94,1.13,0-.04-.04-.07-.04-.07-.28.32-.71.52-.92.98-.17.07-.29-.36-.55.03.28.24-.4.68.09.75-.32.22-.76.66-.82.93-.01-.22-.48-.11-.31-.39l-.33.07c-.1-.12.2-.18,0-.23-.09.15-.27.61-.39.71.03.39.24.85.03,1.28,0-.27-.42-.1-.39-.26.09.32.17.62.28.94-.06.15-.27-.11-.29.14.09.03.1.15.14.25-.06.04-.21.63-.57.53-.16,0,.05-.27-.15-.16-.13.27-.03.33-.13.61h-.05c-.12.15-.08.58.19.46.06-.12-.22-.04-.05-.18.14.21.07.55-.04.82-.02-.11-.11-.14-.19-.21.11.47.07.89.05,1.34.16.06-.25-.25-.14-.29-.4.47-.05,1.19-.48,1.55-.01-.08.25.02.2.02-.09.26-.33.18-.28.38-.15-.02,0,.23,0,.41.08.11-.08.03-.06-.13.04.27.08,1.3-.22,1.84.1,0,.29.41.26.53l-.22-.08c-.16.1-.03.45-.23.44.22.32-.08-1.13.08-.71-.21.07.27.58-.02.46-.02.27.21.56-.03.79.04-.07-.29-.25-.3-.03,0,.39.1.12.14.44l.07.2c.22.03-.06.34.2.22-.2.03.08.56-.29.5l-.29-.07c.02.17.3.29.42.43-.03.02-.09.06-.13.05.44.04-.05.39.29.6-.18.34-.03.87-.3,1.04.14.27.31.5.23.81-.04-.06-.06-.14-.16-.15-.12.2,0,.24.07.41-.06-.04-.26.4-.38.62.16.26.39.14.54.16-.41.28.36.71,0,1.05-.07-.08-.25-.36-.34-.13-.41.3.36.45.23.86l.34-.15c-.19.21.31.53-.07.55.15.11-.04.47.3.37-.21.7.51,1.45-.02,2,.08.07.08.31.24.22.15-.2-.19-.17-.07-.26.03.08.13.07.18.06-.03.21-.02.37-.35.27-.09.49.72.27.75.83-.15.02-.19.08-.12.23l.33.21c.05.36-.25.31-.48.4.1.17.19.39.39.41l-.2.33c.15-.24.2.09.29.15l-.09-.06c-.08.07.06.26.13.35.13-.09.1-.32.1-.45.14.05.17.2.34.27-.24.06-.04.36,0,.51.03.18.29.08.3.13-.11.06.11.26-.11.22-.06-.04.05-.17-.1-.22-.03.14-.24.23.02.37.19.11.41-.25.43.12-.09-.05-.19-.02-.3-.05l.03.35.2-.09c-.03.06-.06.05-.08.08.25-.02.28.41.55.34.1.12.04.36.1.51l-.03-.02c-.01.23.19.4.4.45l-.05.02c.04.1.19.29.37.32.01.3-.64.54-.24.62.17.21.57.09.63-.08.08.23.27.4.43.57.18.16.34.33.36.6.11-.01.13-.08.25-.01.18.29.48.49.74.69.26.2.47.44.54.77-.22-.04-.15.17-.22.27.25-.06.03.28.29.04.11-.17.18-.24.08-.41.39.13.84.49.93.75-.05-.13.06-.14.16-.16-.19.26.04.44.28.44l.12-.16.03.25c.1-.02.26-.32.36-.05-.02.07-.04.15-.03.22.28-.06.65-.21.81.02l.09.34c.11,0,.31-.09.17-.24.33.28.58.33.65.61.81-.41,1.7-.42,2.48-.46v.15c.22.12.07-.26.23-.17-.05.15.21.26.07.47.33.08.35-.34.52-.45-.01-.19-.13.15-.14-.09.01-.07.44.05.41-.23.1.09.11.31.1.43l.14-.18c.34.27-.36.7,0,1.05l.18-.09c.27.25-.42.45.1.44.18-.18.21-.67,0-.72.37-.23-.04-.73.37-.86.17.12-.3.16-.15.36.28.14.34-.27.54-.26-.23-.03-.19-.36-.1-.45.25.04-.01.32.28.2-.03-.18.16-.42-.1-.41-.08-.39.32-.06.32-.39.22.18.02.69.39.65-.17-.2.19-.5-.16-.75.15,0,.27.17.27.35.26.06.12-.65.46-.26l-.1-.26c.1.04.2.04.37.1.15-.1.22-.6.46-.28.02-.06.32-.32.03-.43-.28.03-.08.35-.42.13.33.15.24-.25.27-.41l.12.1c.02-.1.18-.2.11-.36.01.11.11.16.18.15l-.1-.23c.16-.3.34.25.54-.02l-.06.3c.01-.07.25.02.32-.15-.1-.2-.23-.46-.3-.62.05-.2.23.1.19-.18l.03.35c.03.08.37.12.53-.07.06-.17-.01-.56-.27-.45.08-.09.3-.14.35.04.13-.26-.2-.12-.14-.39.18.02.51-.11.8-.14l.13.43.11-.14c.09.36.24.04.41.33.11-.07.12-.26.13-.4-.6,0-.3-.71-.72-.88.18-.44,1.06.35.75-.45-.14,0-.3-.37-.35-.05.2-.23-.27-.41.06-.6.02.31.53,0,.56.45-.11-.1-.21.12-.2.2.21-.02.36.26.53-.01.06-.19.2-.42-.02-.5-.22-.12-.13.26-.29.03.12-.36.49-.23.16-.59-.07.23-.34.15-.49.06.02-.09.02-.19.03-.29l.12.13c.3-.33-.21-.26.01-.61l.38-.03c.21.22-.39.49.06.64.14-.24-.03-.43.2-.61,0,.07-.02.15,0,.22.06-.08.66.1.52-.42-.03-.24-.13-.12-.28-.2.14-.43.01-.63.1-.9.29.18.22-.46.43-.03-.24.06-.47.67-.23.95.44.02-.21.29.11.56.17-.33.53-.14.79-.09.06-.09,0-.23-.02-.3-.21-.14-.26-.01-.49-.11.22-.36.24-.78.11-1.08.16-.08.38.04.34.21.14-.48.32-.97.53-1.4-.47.17.07-.53-.31-.43-.16.21-.5.32-.63.14.07-.14.17.06.27.02-.15-.25.43-.19.16-.47-.01.46.44.22.71.39-.07-.36.21.08.31-.23-.08-.37-.12-.79-.1-1.16.41-.37.26-1.13.31-1.53.19-.18.52.02.62-.2.04-.27-.41.14-.18-.24l.06.05c-.06-.13.36-.71-.14-.89l.37.17c.04-.07-.04-.15-.07-.22.12.01.25-.06.31.07.29-.22.01-.54.03-.81l-.24.15c-.14-.48.15-.78.07-1.24l.22.03-.12-.28c.21.08.36-.17.18-.32l.52.74c-.14.19-.26-.23-.48-.12-.19.09-.15.52.04.6.04-.16,0-.17-.08-.3.31-.03.28.21.47.35,0-.09.1-.2,0-.23.13.18.14.35.12.64-.1-.2-.2.09-.28,0,.27.05.32.33.21.67-.34.21.14.69-.03,1.08-.25-.21-.42-.44-.5-.7-.16.23-.03.28-.21.51.18.15.48.29.54.64l-.2-.02c.05.31.35.37.22.74-.22.63-.41,1.29-.55,1.78l-.2-.03c.36.39-.13.94-.05,1.36-.36.56-.3,1.4-.75,1.58-.13.56-.3,1.08-.51,1.59-.1.26-.21.51-.33.76-.14.24-.3.49-.47.74l-.15-.32c.07.29-.22.03-.29.23.33-.08.11.41.18.64-.48.32-.7,1-.83,1.53l-.17-.11c-.02.62-.68.84-1.13,1.24-.11-.01-.33-.07-.44.06-.02.46-.16.56-.4,1.05-.27.24-.82.51-1.19.62-.91,1.14-2.35,1.55-3.75,2.08l-.15-.21c-.32.22-.7.32-1.09.38-.39.05-.79.12-1.19.06-.39-.04-.78-.08-1.14-.11-.36-.06-.7-.13-1.02-.13l.21-.37c-.34-.2-.86-.1-.86.19-.32-.25-.99-.16-1.09-.56-.33-.21-.51-.04-.83-.14-.31-.26-.53-.41-.77-.54-.21-.15-.44-.28-.76-.46l.13.13c.12-.03.22-.17.09-.29-.29-.07-.74-.67-.82-.13-.4-.72-1.54-1.05-1.74-1.89-.06.14-.2.01-.32.01-.49-.49-.64-1.25-1.15-1.54,0-.12.29,0,.14-.22-.14-.1-.15.1-.32-.02-.39-.39-.62-.9-.82-1.4-.18-.51-.3-1.02-.55-1.44-.95-1.46-1.46-3.21-1.85-4.79h.1c-.25-.23-.23-.56-.23-.88.02-.32.02-.61-.3-.78.07-.14-.04-.49.16-.43-.35-.39.06-1.23-.33-1.81,0,.06.02.09.07.15.15-.65-.21-1.18-.02-1.85.04.07.08.19.18.2.18-.26-.43-.59.03-.74,0-.15-.24-.1-.22,0,.13-1.45-.08-3,0-4.53.42-1.04.78.04.57-.85.1-.05-.17-.08-.07-.07-.07-.35.61-.41.4-.68-.3.04-.13-.18-.3-.22.29-.62.61-.68.51-1.23l.14.07c-.28-.7.12-1.32-.17-1.96.95-3.28,2.34-6.48,4.92-9.05,1.31-1.21,2.84-2.25,4.61-2.9,1.76-.65,3.76-.84,5.64-.38.4.29.6.44.84.52.24.07.49.1.96.2-.06.05-.12.04-.08.12.16-.29.64.21.84-.04.62.31,1.2.63,1.77.96.53.38,1.13.7,1.62,1.18-.19-.12-.44.02-.23.17l.34.02-.03.1c.16.08.42.09.35-.11,1.38,1.08,2.39,2.5,3.12,3.97.77,1.46,1.28,2.99,1.85,4.47.11.76.56,1.73.79,2.52.13,2.46.01,4.57.35,6.96,0,0-.86-.32-1.09-1.26Z"/>
      <path class="cls-1" d="M137.25,134.36c-.17.08-.27.34-.48.12.15-.02.33-.15.48-.12Z"/>
      <path class="cls-1" d="M134.58,140.93s-.09.07-.13.08c.01-.08-.1-.19,0-.23-.01.08.06.09.12.15Z"/>
      <path class="cls-1" d="M133.96,142.52c-.12-.07-.12-.45-.07-.66.02.22.06.44.07.66Z"/>
      <path class="cls-1" d="M132.81,143.72c-.17.07-.22,0-.13-.15.08.02.09.09.13.15Z"/>
      <path class="cls-1" d="M133.06,143.96c-.06.12-.16.14-.26.16.12.05.06-.3.26-.16Z"/>
      <path class="cls-1" d="M131.04,146.59c-.04.07-.04.28-.21.24.14,0,.07-.41.21-.24Z"/>
      <path class="cls-1" d="M130.27,147.89s-.07.03-.08.1c-.11.02-.12-.12-.09-.18l.17.09Z"/>
      <path class="cls-1" d="M112.18,137.34c.03.05.07.11.1.16h-.15c.02-.06.03-.11.05-.16Z"/>
      <path class="cls-1" d="M113.49,124.67c-.02-.19.17-.06.2-.08-.04.15-.15-.12-.2.08Z"/>
      <polygon class="cls-1" points="116.43 118.36 116.39 118.4 116.18 118.19 116.43 118.36"/>
    </g>
  </g>
  <g>
    <ellipse class="cls-1" cx="147.08" cy="135.01" rx="12.94" ry="19.23"/>
    <g>
      <path class="cls-1" d="M160.55,135.26c-.05-.38-.26.2-.11-.25.12.05.2.13.11.25Z"/>
      <path class="cls-1" d="M160.34,133.75c-.79-1.16-.22-2.82-.95-4.05-.06-.15.42-.04.26-.37-.86-1.13-1-3.12-1.25-4.75l.14.04c-.04-.32-.53-.5-.63-.81.07-.04.15.04.21-.07-.25.03-.36-.47-.58-.51.03-.16.2-.23.21-.43l-.32-.04c-.8-.13-.59-1.09-1.24-1.49.07,0,.15.02.17-.06-.96-.68-1.73-1.8-2.76-2.48.1-.04.25-.14.27-.26-.24.17-.56-.03-.84-.2.06-.32-.61-.11-.81-.45l.06-.03c-.39.1-.24-.4-.63-.19l-.04-.28c-.31.3-.25-.38-.55-.31l-.03.08c-.23-.01-.24-.26-.46-.26v-.05c-.48-.07-.65-.38-.75-.07-.07-.3.46.05.35-.39-1.59-.24-3.16-.43-4.7-.15-.2-.09-.32-.1-.38-.21-.14.1-.58.18-.66.39.05-.02-.14-.12-.23-.1-.31,0-.17.44-.52.42.08-.12.09-.24,0-.33-.17.33-.51.41-.75.65.02-.07.07-.14.02-.22-.18.42-.59.25-.77.56v-.21c-.55.05.08.4-.34.52.05-.11-.02-.15-.05-.22-.13.52-.73.76-.94,1.13,0-.04-.04-.07-.04-.07-.28.32-.71.52-.92.98-.17.07-.29-.36-.55.03.28.24-.4.68.09.75-.32.22-.76.66-.82.93-.01-.22-.48-.11-.31-.39l-.33.07c-.1-.12.2-.18,0-.23-.09.15-.27.61-.39.71.03.39.24.85.03,1.28,0-.27-.42-.1-.39-.26.09.32.17.62.28.94-.06.15-.27-.11-.29.15.09.03.1.15.14.25-.06.04-.21.63-.57.53-.16,0,.05-.27-.15-.16-.13.27-.03.33-.13.61h-.05c-.12.15-.08.58.19.46.06-.12-.22-.04-.05-.18.14.21.07.55-.04.82-.02-.11-.11-.14-.19-.21.11.47.07.89.05,1.34.16.06-.25-.25-.14-.29-.4.47-.05,1.19-.48,1.55-.01-.08.25.02.2.02-.09.26-.33.18-.28.38-.15-.02,0,.23,0,.41.08.11-.08.03-.06-.13.04.27.08,1.3-.22,1.84.1,0,.29.41.26.53l-.22-.08c-.16.1-.03.45-.23.44.22.32-.08-1.13.08-.71-.21.07.27.58-.02.46-.02.27.21.56-.03.79.04-.07-.29-.25-.3-.03,0,.39.1.12.14.44l.07.2c.22.03-.06.34.2.22-.2.03.08.56-.29.5l-.29-.07c.02.17.3.29.42.43-.03.02-.09.06-.13.05.44.04-.05.39.29.6-.18.34-.03.87-.3,1.04.14.27.31.5.23.81-.04-.06-.06-.14-.16-.15-.12.2,0,.24.07.41-.06-.04-.26.4-.38.62.16.26.39.14.54.16-.41.28.36.71,0,1.05-.07-.08-.25-.36-.34-.13-.41.3.36.45.23.86l.34-.15c-.19.2.31.53-.07.55.15.11-.04.47.3.37-.21.7.51,1.45-.02,2,.08.07.08.31.24.22.15-.2-.19-.17-.07-.26.03.08.13.07.18.06-.03.21-.02.37-.35.27-.09.49.72.27.75.84-.15.02-.19.08-.12.23l.33.21c.05.36-.25.31-.48.4.1.17.19.39.39.41l-.2.33c.15-.24.2.09.29.15l-.09-.06c-.08.07.06.26.13.35.13-.09.1-.32.1-.45.14.05.17.2.34.27-.24.06-.04.36,0,.51.03.18.29.08.3.13-.11.06.11.26-.11.22-.06-.04.05-.17-.1-.22-.03.14-.24.23.02.37.19.11.41-.25.43.12-.09-.05-.19-.02-.3-.05l.03.35.2-.09c-.03.06-.06.05-.08.08.25-.02.28.41.55.34.1.12.04.36.1.51l-.03-.02c-.01.23.19.4.4.45l-.05.02c.04.1.19.28.37.32.01.3-.64.54-.24.62.17.21.57.09.63-.08.08.23.27.4.43.58.18.16.34.33.36.6.11-.01.13-.08.25-.01.18.29.48.49.74.69.26.2.47.44.54.77-.22-.04-.15.17-.22.27.25-.06.03.28.29.04.11-.17.18-.24.08-.41.39.13.84.49.93.75-.05-.13.06-.14.16-.16-.19.26.04.44.28.44l.12-.16.03.24c.1-.01.26-.32.36-.05-.02.07-.04.15-.03.22.28-.06.65-.21.81.02l.09.34c.11,0,.31-.09.17-.24.33.28.58.33.65.61.81-.41,1.7-.42,2.48-.46v.15c.22.12.07-.26.23-.17-.05.15.21.26.07.47.33.08.35-.34.52-.45-.01-.19-.13.15-.14-.09.01-.07.44.05.41-.23.1.09.11.31.1.43l.14-.18c.34.27-.36.7,0,1.05l.18-.09c.27.25-.42.45.1.44.18-.18.21-.67,0-.72.37-.23-.04-.73.37-.86.17.12-.3.16-.15.36.28.14.34-.27.54-.26-.23-.03-.19-.36-.1-.45.25.04-.01.32.28.2-.03-.18.16-.42-.1-.41-.08-.39.32-.06.32-.39.22.18.02.69.39.65-.17-.2.19-.5-.16-.75.15,0,.27.17.27.35.26.06.12-.65.46-.26l-.1-.26c.1.04.2.04.37.1.15-.1.22-.6.46-.28.02-.06.32-.32.03-.43-.28.03-.08.35-.42.13.33.15.24-.25.27-.41l.12.1c.02-.1.18-.2.11-.36.01.11.11.16.18.15l-.1-.23c.16-.3.34.25.54-.02l-.06.3c.01-.07.25.02.32-.15-.1-.2-.23-.46-.3-.62.05-.2.23.1.19-.18l.03.35c.03.08.37.12.53-.07.06-.17-.01-.56-.27-.45.08-.09.3-.14.35.04.13-.26-.2-.12-.14-.39.18.02.51-.11.8-.14l.13.43.11-.14c.09.36.24.04.41.33.11-.07.12-.26.13-.4-.6,0-.3-.71-.72-.88.18-.44,1.06.35.75-.45-.14,0-.3-.37-.35-.05.2-.23-.27-.41.06-.6.02.31.53,0,.56.45-.11-.1-.21.12-.2.2.21-.02.36.26.53-.01.06-.19.2-.42-.02-.5-.22-.12-.13.26-.29.03.12-.36.49-.23.16-.59-.07.23-.34.15-.49.06.02-.09.02-.19.03-.29l.12.13c.3-.33-.21-.26.01-.61l.38-.03c.21.22-.39.49.06.64.14-.24-.03-.43.2-.61,0,.07-.02.15,0,.22.06-.08.66.1.52-.42-.03-.24-.13-.12-.28-.2.14-.43.01-.63.1-.9.29.18.22-.46.43-.03-.24.06-.47.67-.23.95.44.02-.21.29.11.56.17-.33.53-.14.79-.09.06-.09,0-.23-.02-.3-.21-.14-.26-.01-.49-.11.22-.36.24-.78.11-1.08.16-.08.38.04.34.21.14-.48.32-.97.53-1.4-.47.17.07-.53-.31-.43-.16.21-.5.32-.63.14.07-.14.17.06.27.02-.15-.25.43-.19.16-.47-.01.46.44.22.71.39-.07-.36.21.08.31-.23-.08-.37-.12-.79-.1-1.16.41-.37.26-1.13.31-1.53.19-.18.52.02.62-.2.04-.27-.41.14-.18-.24l.06.05c-.06-.13.36-.71-.14-.89l.37.17c.04-.07-.04-.15-.07-.22.12.01.25-.06.31.07.29-.22.01-.54.03-.81l-.24.15c-.14-.48.15-.78.07-1.24l.22.03-.12-.28c.21.08.36-.17.18-.32l.52.74c-.14.19-.26-.23-.48-.12-.19.09-.15.52.04.6.04-.16,0-.17-.08-.3.31-.03.28.21.47.35,0-.09.1-.2,0-.23.13.18.14.35.12.64-.1-.2-.2.09-.28,0,.27.05.32.33.21.67-.34.21.14.69-.03,1.08-.25-.21-.42-.44-.5-.7-.16.23-.03.28-.21.51.18.15.48.29.54.64l-.2-.02c.05.32.35.37.22.74-.22.63-.41,1.29-.55,1.78l-.2-.03c.36.39-.13.94-.05,1.36-.36.56-.3,1.4-.75,1.58-.13.56-.3,1.08-.51,1.59-.1.26-.21.51-.33.76-.14.25-.3.49-.47.74l-.15-.32c.07.29-.22.03-.29.23.33-.08.11.41.18.64-.48.32-.7,1-.83,1.53l-.17-.11c-.02.62-.68.84-1.13,1.24-.11-.01-.33-.07-.44.06-.02.46-.16.56-.4,1.05-.27.24-.82.51-1.19.62-.91,1.14-2.35,1.55-3.75,2.08l-.15-.21c-.32.22-.7.32-1.09.38-.39.05-.79.12-1.19.06-.39-.04-.78-.08-1.14-.11-.36-.06-.7-.13-1.02-.13l.21-.37c-.34-.2-.86-.1-.86.19-.32-.25-.99-.16-1.09-.56-.33-.21-.51-.04-.83-.14-.31-.26-.53-.41-.77-.54-.21-.15-.44-.28-.76-.46l.13.13c.12-.03.22-.16.09-.29-.29-.07-.74-.67-.82-.13-.4-.72-1.54-1.05-1.74-1.89-.06.14-.2.01-.32.01-.49-.49-.64-1.25-1.15-1.54,0-.12.29,0,.14-.22-.14-.1-.15.1-.32-.02-.39-.39-.62-.9-.82-1.4-.18-.51-.3-1.02-.55-1.44-.95-1.46-1.46-3.21-1.85-4.79h.1c-.25-.23-.23-.56-.23-.88.02-.32.02-.61-.3-.78.07-.14-.04-.49.16-.43-.35-.39.06-1.23-.33-1.81,0,.06.02.09.07.15.15-.65-.21-1.18-.02-1.85.04.07.08.19.18.2.18-.26-.43-.59.03-.74,0-.15-.24-.1-.22,0,.13-1.45-.08-3,0-4.53.42-1.04.78.04.57-.85.1-.05-.17-.08-.07-.07-.07-.35.61-.41.4-.68-.3.04-.13-.18-.3-.22.29-.62.61-.68.51-1.23l.14.07c-.28-.7.12-1.32-.17-1.96.95-3.28,2.34-6.48,4.92-9.05,1.31-1.21,2.84-2.26,4.61-2.9,1.76-.65,3.76-.84,5.64-.38.4.29.6.44.84.52.24.07.49.1.96.2-.06.05-.12.04-.08.12.16-.29.64.21.84-.04.62.31,1.2.63,1.77.96.53.38,1.13.7,1.62,1.19-.19-.12-.44.02-.23.17l.34.02-.03.1c.16.08.42.09.35-.11,1.38,1.08,2.39,2.5,3.12,3.97.77,1.46,1.28,2.99,1.85,4.47.11.76.56,1.73.79,2.52.13,2.46.01,4.57.35,6.96,0,0-.86-.32-1.09-1.26Z"/>
      <path class="cls-1" d="M160.56,135.72c-.17.08-.27.34-.48.12.15-.02.33-.15.48-.12Z"/>
      <path class="cls-1" d="M157.89,142.29s-.09.07-.13.08c.01-.08-.1-.19,0-.23-.01.08.06.09.12.15Z"/>
      <path class="cls-1" d="M157.27,143.88c-.12-.07-.12-.45-.07-.66.02.22.06.44.07.66Z"/>
      <path class="cls-1" d="M156.12,145.08c-.17.07-.22,0-.13-.15.08.02.09.09.13.15Z"/>
      <path class="cls-1" d="M156.37,145.32c-.06.12-.16.14-.26.16.12.05.06-.3.26-.16Z"/>
      <path class="cls-1" d="M154.35,147.95c-.04.07-.04.28-.21.24.14,0,.07-.41.21-.24Z"/>
      <path class="cls-1" d="M153.58,149.25s-.07.03-.08.1c-.11.02-.12-.12-.09-.18l.17.09Z"/>
      <path class="cls-1" d="M135.49,138.7c.03.05.07.11.1.16h-.15c.02-.06.03-.11.05-.16Z"/>
      <path class="cls-1" d="M136.8,126.03c-.02-.19.17-.06.2-.08-.04.15-.15-.12-.2.08Z"/>
      <polygon class="cls-1" points="139.74 119.72 139.7 119.77 139.5 119.55 139.74 119.72"/>
    </g>
  </g>
  <g>
    <path class="cls-2" d="M122.36,136.45c-.07.35.26-.11,0,.25-.07-.08-.12-.17,0-.25Z"/>
    <path class="cls-2" d="M131.79,137.07c.25.6.09,1.28-.14,1.93-.23.65-.55,1.27-.64,1.93-.04.15-.29-.18-.37.15-.1,1.32-1.47,2.91-2.8,3.62v-.13c-.25.13-.27.62-.54.76-.04-.05.02-.13-.09-.15.06.19-.35.41-.38.58-.14,0-.21-.13-.38-.13l-.03.28c-.06.36-.36.45-.65.55-.32.04-.62.09-.94.25.02-.05.08-.1.02-.14-.99.47-2.38.32-3.56.11.07-.06.15-.19.1-.29-.12.22-.49.17-.81.1-.05-.27-.61.02-.9-.28l.05-.03c-.37.1-.31-.3-.66-.15l-.06-.26c-.28.22-.26-.36-.54-.34l-.03.06c-.24-.05-.22-.27-.42-.35v-.04c-.43-.22-.51-.55-.67-.35.01-.26.41.24.41-.16-1.35-.8-2.24-2.27-2.79-3.72.05-.21.04-.32.12-.39-.1-.13-.22-.54-.39-.64.02.05.1-.13.09-.21.03-.29-.34-.23-.29-.57.09.11.18.13.27.07-.25-.21-.28-.57-.41-.87.05.04.09.11.17.09-.3-.3-.02-.62-.2-.9l.16.1c.14-.49-.33-.11-.25-.54.06.1.11.06.17.07-.33-.37-.23-1.01-.32-1.4.02.02.06.02.06.02-.05-.43.1-.86,0-1.34.08-.16.36.09.35-.36-.3-.02-.01-.77-.39-.55.09-.38.31-.96.28-1.23.08.19.4-.1.36.21l.23-.19c.11.06-.09.23.08.19.02-.15,0-.63.08-.75-.1-.32-.36-.68-.26-1.15.05.25.35-.02.36.14-.13-.27-.24-.54-.34-.82.04-.16.24.05.24-.2-.08-.02-.09-.13-.13-.22.05-.05.17-.67.48-.61.14-.02-.05.26.12.14.12-.27.03-.32.15-.6h.04c.12-.15.13-.57-.11-.45-.07.12.18.03.02.18-.11-.21.02-.54.17-.81,0,.11.07.14.12.22,0-.47.13-.89.32-1.33-.11-.08.12.29.02.3.25-.19.36-.48.48-.76.13-.27.29-.52.55-.62-.03.08-.18-.1-.15-.08.2-.21.34-.06.41-.26.1.07.14-.19.26-.35.01-.13.08,0-.04.13.06-.13.26-.42.52-.72.29-.26.65-.54.97-.65-.06-.06.21-.45.36-.51l.03.19c.17.03.45-.25.53-.12.18-.35-1,.74-.7.39.17.09.4-.55.43-.28.25-.16.46-.45.81-.38-.09,0-.15.32.08.23.39-.16.09-.12.4-.29.06-.05.13-.1.2-.13-.02-.18.4-.03.19-.21.08.14.64-.18.62.12l-.04.24c.18-.04.28-.3.43-.39.03.02.08.07.07.11.03-.36.45.05.7-.22.39.12,1.04.22,1.16.46.33-.05.65,0,.96.22-.08,0-.18-.04-.23.03.16.19.25.13.47.17-.06.01.26.45.36.69.31.1.36-.11.46-.18-.05.44.8.51.76,1-.08-.07-.42-.24-.32,0-.14.42.51.31.6.78l.2-.24c-.04.25.43.52.15.61.16.09.11.51.37.36.01.38.16.78.28,1.16.08.38.13.73-.08.98.07.09.05.33.19.26.14-.19-.15-.2-.05-.28.03.08.11.09.15.09-.04.22-.03.39-.3.23-.12.48.57.41.51,1.01-.12-.01-.16.03-.13.2l.23.31c-.01.39-.25.24-.46.26.05.2.05.44.21.52l-.24.25c.18-.18.13.16.18.25l-.05-.09c-.08.04-.02.27,0,.38.13-.03.17-.27.2-.4.1.1.08.26.19.39-.2-.04-.14.33-.15.49-.04.18.18.2.18.26-.1,0-.02.3-.16.16-.03-.06.1-.14,0-.24-.08.12-.25.11-.12.35.1.19.39-.05.27.31-.05-.09-.13-.11-.2-.18l-.1.33h.18c-.05.06-.06.03-.09.05.19.1.06.5.27.58.02.17-.13.35-.15.5l-.02-.03c-.11.19-.04.45.08.61h-.04c-.02.09,0,.34.12.47-.14.26-.69.08-.46.37,0,.27.33.41.45.3-.11.58.03,1.38-.43,1.79.04.1.1.07.07.25-.38.76-.67,1.69-1.36,1.95.09-.22-.13-.13-.21-.19,0,.25-.27.06-.1.29.14.09.18.16.38.03-.23.44-.78.95-1.08,1,.15-.03.11.08.05.18-.15-.22-.43-.03-.6.2l.06.15-.24-.03c-.06.1.1.35-.23.37-.04-.05-.09-.09-.16-.1-.17.26-.47.66-.85.66l-.34-.13c-.12.07-.36.26-.07.26-.62.03-1.17-.01-1.31-.25-.58.2-1.28.05-1.85-.23-.59-.28-1.04-.71-1.4-1.1l.11-.06c-.11-.28-.25.03-.33-.17.15,0,.04-.32.29-.25-.17-.37-.48-.25-.69-.42-.15.06.21.1.02.18-.08,0-.23-.52-.46-.43.02-.14.21-.17.32-.18l-.23-.13c.07-.38.78.26.89-.19l-.15-.15c.1-.29.53.27.32-.18-.22-.1-.61-.1-.59.14-.3-.37-.61.11-.85-.37.05-.19.24.36.36.17.04-.3-.33-.39-.38-.62.04.26-.28.19-.39.05-.01-.3.28.07.14-.3-.15,0-.4-.3-.35.03-.35-.01-.08-.43-.38-.56.16-.19.62.22.57-.22-.19.15-.43-.44-.67-.13,0-.2.17-.25.32-.16.05-.26-.52-.54-.12-.7l-.23-.06c.05-.09.08-.22.2-.39,0-.13-.08-.34-.11-.52-.02-.16,0-.29.17-.26-.03-.08.06-.6-.19-.44-.18.32.12.41-.21.57.28-.22.02-.51-.02-.72h.13c-.02-.13.06-.37-.06-.47.05.1.14.08.19,0l-.16-.16c.04-.45.35,0,.42-.42l.05.34c0-.08.2-.16.2-.36-.15-.13-.29-.33-.39-.44.01-.25.22-.03.14-.31l.09.35c.04.06.34-.08.44-.36.02-.2-.09-.57-.3-.33.06-.14.25-.29.31-.13.09-.34-.19-.04-.16-.35.15-.07.48-.32.73-.44l.12.4.09-.17c.09.33.22-.03.37.21.1-.1.09-.28.1-.42-.54.14-.25-.65-.61-.74.2-.54.92.18.76-.61-.13.03-.2-.36-.31,0,.23-.27-.17-.41.21-.66-.07.34.49-.04.4.44-.08-.09-.22.14-.23.22.19-.04.27.23.48-.05.1-.19.27-.42.1-.51-.17-.12-.18.27-.26.04.2-.39.51-.24.35-.62-.16.23-.37.15-.48.06l.16-.31.06.14c.21-.16.21-.26.2-.35-.02-.09-.02-.19.31-.47.16-.02.3-.03.44-.04-.02.31-.92.71-.53.88.3-.31.36-.58.74-.81-.06.1-.16.2-.22.3.16-.11.47.21.86-.39.24-.29.04-.19,0-.33.3-.26.53-.31.71-.45.19-.14.36-.18.58-.21-.06.15.13.13.27.13.15.02.23.03-.03.16-.09-.07-.38-.09-.68-.01-.29.14-.58.3-.66.51.28.2-.47.26-.47.66.43-.29.49.06.59.23.09-.06.18-.2.23-.26.02-.23-.12-.16-.16-.37.5-.21.94-.4,1.33-.56.16.1.04.29-.17.31.64-.13,1.29.37,1.42.95.04-.29.12-.16.21,0,.07.17.14.36.21.14-.03-.37-.05-.8.16-.74.1.21-.11.1-.12.23.28.14-.06.59.25.7-.27-.58-.37.12-.63.16.2.31-.16.1-.1.47.18.3.29.81.3,1.31-.29.52-.18,1.21-.27,1.64-.17.19-.42-.02-.52.2-.06.27.35-.13.13.24l-.05-.05c.04.14-.37.67,0,.89l-.27-.2c-.05.07,0,.15.02.22-.1-.02-.21.04-.24-.1-.27.18-.11.51-.18.77l.23-.11c0,.49-.26.73-.34,1.18l-.17-.07.02.29c-.15-.12-.33.08-.24.26l-.2-.79c.16-.15.14.27.35.21.18-.05.26-.46.11-.57-.07.14-.03.16,0,.3-.26-.03-.17-.25-.3-.41-.01.08-.12.17-.05.21-.07-.19-.04-.35.03-.61.04.2.18-.05.23.04-.21-.08-.2-.35-.05-.65.31-.16,0-.64.16-.99.18.2.31.44.34.69.17-.21.06-.26.23-.47-.14-.15-.36-.29-.4-.62l.17.02c-.02-.29-.26-.34-.15-.68.09-.28.16-.6.2-.85.04-.21.05-.41.07-.58l.17-.08c-.18-.04-.22-.16-.25-.32-.03-.15-.06-.34-.18-.36,0-.27-.24-.39-.44-.37-.21.02-.35.06-.44-.08-.36.23-.61.51-.81.77-.27.34-.55.68-.85,1.05l-.09-.28c.03.26-.19.01-.27.19.28-.07.06.36.11.55-.42.29-.54.94-.57,1.37l-.16-.06c.1.51-.34.84-.55,1.31-.08.03-.26.08-.29.23.17.34.13.47.23.86-.03.28-.13.57-.16.89.54.89.84,1.99,1.71,2.73l-.1.18c.5.28.91.67,1.32.96.4.3.81.45,1.01.33,0,.11-.03.22-.05.34.18.11.45-.16.32-.37.24.04.46-.34.72-.19.27-.08.21-.3.36-.47.51-.23.67-.4.99-.83l-.11.08c.01.09.11.2.22.11.08-.2.56-.51.13-.61.56-.31.58-1.15,1-1.47-.11,0-.1-.12-.16-.18.12-.39.34-.64.15-1.25.05-.1.18.16.2-.09-.04-.15-.14,0-.2-.19-.19-.98.24-1.94.18-2.79-.22-1.5-.2-3.04-.53-4.32h.08c-.19-.19-.18-.45-.2-.69-.01-.25-.04-.49-.33-.54.03-.11-.11-.34.06-.34-.15-.11-.22-.32-.3-.53-.07-.23-.21-.44-.45-.5.02.03.04.04.1.05-.07-.22-.21-.37-.39-.45-.17-.1-.32-.22-.49-.36.06-.01.14,0,.19-.06-.11-.21-.51.14-.45-.27-.1-.04-.13.15-.07.17-.23-.1-.49-.16-.74-.23-.27,0-.55,0-.82,0l-.79.21-.73.35c-.8.17-.34-.55-.78,0-.09-.04.04.14,0,.08-.15.24-.57-.11-.61.17.2.14-.02.18.07.29-.51.2-.72.17-.91.58l-.07-.11c-.08.62-.62.94-.51,1.54-1.49,2.34-2.09,5.17-2.2,7.87-.11,1.33,0,2.69.31,3.93.32,1.24.81,2.38,1.5,3.42.09.68.2.69.74,1.06-.06.03-.09,0-.09.07.2-.18.38.27.59.1.71.6,1.52.94,2.43,1.21-.15-.01-.29.16-.11.21l.23-.12v.08c.14,0,.3-.1.2-.22.59.11,1.17.15,1.74.2.55.02,1.18,0,1.51-.08.88-.24,1.97-1,2.71-2.01.47-.39.88-1.19,1.16-1.78.64-.77,1.18-1.58,1.55-2.46.37-.87.57-1.84.42-2.75,0,0,.17.05.36.22.18.16.41.45.42.9Z"/>
    <path class="cls-2" d="M122.48,136.04c.15-.03.3-.24.41,0-.13-.02-.3.06-.41,0Z"/>
    <path class="cls-2" d="M125.19,129.14s.02-.16.03-.2c.04.11.17.16.11.29-.03-.12-.08-.07-.14-.09Z"/>
    <path class="cls-2" d="M123.93,127.31c.08-.14.62.03.83.25-.24-.15-.54-.24-.83-.25Z"/>
    <path class="cls-2" d="M121.7,127.19c-.23.03-.19-.06.09-.24.03.05-.05.14-.09.24Z"/>
    <path class="cls-2" d="M121.62,127.56c-.18.12-.29.11-.41.1.05.09.41-.34.41-.1Z"/>
    <path class="cls-2" d="M118.45,130.69c-.04.08-.05.31-.21.32.12-.04.09-.47.21-.32Z"/>
    <path class="cls-2" d="M117.81,132.39c-.03.05-.06.07-.05.14-.09.08-.13-.06-.11-.15h.16Z"/>
    <polygon class="cls-2" points="127.65 124.62 127.8 124.76 127.69 124.79 127.65 124.62"/>
    <path class="cls-2" d="M115.78,126.97c-.02.2-.16.06-.19.08.07-.15.1.13.19-.08Z"/>
    <polygon class="cls-2" points="114.17 133.99 114.17 133.94 114.41 133.99 114.17 133.99"/>
  </g>
  <g>
    <path class="cls-2" d="M146.18,137.87c-.07.35.26-.11,0,.25-.07-.08-.12-.17,0-.25Z"/>
    <path class="cls-2" d="M155.6,138.48c.25.6.09,1.28-.14,1.93-.23.65-.55,1.26-.64,1.93-.04.15-.29-.18-.37.15-.1,1.32-1.47,2.91-2.8,3.62v-.13c-.25.13-.27.62-.54.76-.04-.05.02-.13-.09-.15.06.19-.35.41-.38.58-.14,0-.21-.14-.38-.13l-.03.28c-.06.36-.36.45-.65.55-.32.04-.62.09-.94.25.02-.05.08-.1.02-.14-.99.47-2.38.32-3.56.11.07-.06.15-.19.1-.29-.12.22-.49.17-.81.1-.05-.27-.61.02-.9-.28l.05-.03c-.37.1-.31-.3-.66-.15l-.06-.26c-.28.22-.26-.36-.54-.34l-.03.06c-.24-.05-.22-.27-.42-.35v-.04c-.43-.22-.51-.55-.67-.35.01-.26.41.24.41-.16-1.35-.8-2.24-2.27-2.79-3.72.05-.21.04-.32.12-.39-.1-.13-.22-.54-.39-.64.02.05.1-.13.09-.21.03-.29-.34-.23-.29-.57.09.11.18.13.27.07-.25-.21-.28-.57-.41-.87.05.04.09.11.17.09-.3-.3-.02-.62-.2-.9l.16.1c.14-.49-.33-.11-.25-.54.06.1.11.06.17.07-.33-.37-.23-1.01-.32-1.4.02.02.06.02.06.02-.05-.43.1-.86,0-1.34.08-.16.36.09.35-.36-.3-.02-.01-.77-.39-.55.09-.38.31-.96.28-1.23.08.19.4-.1.36.21l.23-.19c.11.06-.09.23.08.19.02-.15,0-.63.08-.75-.1-.32-.36-.68-.26-1.15.05.25.35-.02.36.14-.13-.27-.24-.54-.34-.82.04-.16.24.05.24-.2-.08-.02-.09-.13-.13-.22.05-.05.17-.67.48-.61.14-.02-.05.26.12.14.12-.27.03-.32.15-.6h.04c.12-.15.13-.57-.11-.45-.07.12.18.03.02.18-.11-.21.02-.54.17-.81,0,.11.07.14.12.22,0-.47.13-.89.32-1.33-.11-.08.12.29.02.3.25-.19.36-.48.48-.76.13-.27.29-.52.55-.62-.03.08-.18-.1-.15-.08.2-.21.34-.06.41-.26.1.07.14-.19.26-.35.01-.13.08,0-.04.13.06-.13.26-.42.52-.72.29-.26.65-.54.97-.65-.06-.06.21-.45.36-.51l.03.19c.17.03.45-.25.53-.12.18-.35-1,.74-.7.39.17.09.4-.55.43-.28.25-.16.46-.45.81-.38-.09,0-.15.32.08.23.39-.16.09-.12.4-.29.06-.05.13-.1.2-.13-.02-.18.4-.03.19-.21.08.14.64-.18.62.12l-.04.24c.18-.04.28-.3.43-.39.03.02.08.07.07.11.03-.36.45.05.7-.22.39.12,1.04.22,1.16.46.33-.05.65,0,.96.22-.08,0-.18-.04-.23.03.16.19.25.13.47.17-.06.01.26.45.36.69.31.1.36-.11.46-.18-.05.44.8.51.76,1-.08-.07-.42-.24-.32,0-.14.42.51.31.6.78l.2-.24c-.04.25.43.52.15.61.16.09.11.51.37.36.01.38.16.78.28,1.16.08.38.13.73-.08.98.07.09.05.33.19.26.14-.19-.15-.2-.05-.28.03.08.11.09.15.09-.04.22-.03.39-.3.23-.12.48.57.41.51,1.01-.12-.01-.16.03-.13.2l.23.31c-.01.39-.25.24-.46.26.05.2.05.44.21.52l-.24.25c.18-.18.13.16.18.25l-.05-.09c-.08.04-.02.27,0,.38.13-.03.17-.27.2-.4.1.1.08.26.19.39-.2-.04-.14.33-.15.49-.04.18.18.2.18.26-.1,0-.02.3-.16.16-.03-.06.1-.14,0-.24-.08.12-.25.11-.12.35.1.19.39-.05.27.31-.05-.09-.13-.11-.2-.18l-.1.33h.18c-.05.06-.06.03-.09.05.19.1.06.5.27.58.02.17-.13.35-.15.5l-.02-.03c-.11.19-.04.45.08.61h-.04c-.02.09,0,.34.12.47-.14.26-.69.08-.46.37,0,.27.33.41.45.3-.11.58.03,1.38-.43,1.79.04.1.1.07.07.25-.38.76-.67,1.69-1.36,1.95.09-.22-.13-.13-.21-.19,0,.25-.27.06-.1.29.14.09.18.16.38.03-.23.44-.78.95-1.08,1,.15-.03.11.08.05.18-.15-.22-.43-.03-.6.2l.06.15-.24-.03c-.06.1.1.35-.23.37-.04-.05-.09-.09-.16-.1-.17.26-.47.66-.85.66l-.34-.13c-.12.07-.36.26-.07.26-.62.03-1.17-.01-1.31-.25-.58.2-1.28.05-1.85-.23-.59-.28-1.04-.71-1.4-1.1l.11-.06c-.11-.28-.25.03-.33-.17.15,0,.04-.32.29-.25-.17-.37-.48-.25-.69-.42-.15.06.21.1.02.18-.08,0-.23-.52-.46-.43.02-.14.21-.17.32-.18l-.23-.13c.07-.38.78.26.89-.19l-.15-.15c.1-.29.53.27.32-.18-.22-.1-.61-.1-.59.14-.3-.37-.61.11-.85-.37.05-.19.24.36.36.17.04-.3-.33-.39-.38-.62.04.26-.28.19-.39.05-.01-.3.28.07.14-.3-.15,0-.4-.3-.35.03-.35-.01-.08-.43-.38-.56.16-.19.62.22.57-.22-.19.15-.43-.44-.67-.13,0-.2.17-.25.32-.16.05-.26-.52-.54-.12-.7l-.23-.06c.05-.09.08-.22.2-.39,0-.13-.08-.34-.11-.52-.02-.16,0-.29.17-.26-.03-.08.06-.6-.19-.44-.18.32.12.41-.21.57.28-.22.02-.51-.02-.72h.13c-.02-.13.06-.37-.06-.47.05.1.14.08.19,0l-.16-.16c.04-.45.35,0,.42-.42l.05.34c0-.08.2-.16.2-.36-.15-.13-.29-.33-.39-.44.01-.25.22-.03.14-.31l.09.35c.04.06.34-.08.44-.36.02-.2-.09-.57-.3-.33.06-.14.25-.29.31-.13.09-.34-.19-.04-.16-.35.15-.07.48-.32.73-.44l.12.4.09-.17c.09.33.22-.03.37.21.1-.1.09-.28.1-.42-.54.14-.25-.65-.61-.74.2-.54.92.18.76-.61-.13.03-.2-.36-.31,0,.23-.27-.17-.41.21-.66-.07.34.49-.04.4.44-.08-.09-.22.14-.23.22.19-.04.27.23.48-.05.1-.19.27-.42.1-.51-.17-.12-.18.27-.26.04.2-.39.51-.24.35-.62-.16.23-.37.15-.48.06l.16-.31.06.14c.21-.16.21-.26.2-.35-.02-.09-.02-.19.31-.47.16-.02.3-.03.44-.04-.02.31-.92.71-.53.88.3-.31.36-.58.74-.81-.06.1-.16.2-.22.3.16-.11.47.21.86-.39.24-.29.04-.19,0-.33.3-.26.53-.31.71-.45.19-.14.36-.18.58-.21-.06.15.13.13.27.13.15.02.23.03-.03.16-.09-.07-.38-.09-.68-.01-.29.14-.58.3-.66.51.28.2-.47.26-.47.66.43-.29.49.06.59.23.09-.06.18-.2.23-.26.02-.23-.12-.16-.16-.37.5-.21.94-.4,1.33-.56.16.1.04.29-.17.31.64-.13,1.29.37,1.42.95.04-.29.12-.16.21,0,.07.17.14.36.21.14-.03-.37-.05-.8.16-.74.1.22-.11.1-.12.23.28.14-.06.59.25.7-.27-.58-.37.12-.63.16.2.31-.16.1-.1.47.18.3.29.81.3,1.31-.29.52-.18,1.21-.27,1.64-.17.19-.42-.02-.52.2-.06.27.35-.13.13.24l-.05-.05c.04.14-.37.67,0,.89l-.27-.2c-.05.07,0,.15.02.22-.1-.02-.21.04-.24-.1-.27.18-.11.51-.18.77l.23-.11c0,.49-.26.73-.34,1.18l-.17-.07.02.29c-.15-.12-.33.08-.24.26l-.2-.79c.16-.15.14.27.35.21.18-.05.26-.46.11-.57-.07.14-.03.16,0,.3-.26-.03-.17-.25-.3-.41-.01.08-.12.17-.05.21-.07-.19-.04-.35.03-.61.04.2.18-.05.23.04-.21-.08-.2-.35-.05-.65.31-.16,0-.64.16-.99.18.2.31.44.34.69.17-.21.06-.26.23-.47-.14-.15-.36-.29-.4-.62l.17.02c-.02-.29-.26-.34-.15-.68.09-.28.16-.6.2-.85.04-.21.05-.41.07-.58l.17-.08c-.18-.04-.22-.16-.25-.32-.03-.15-.06-.34-.18-.36,0-.27-.24-.39-.44-.38-.21.02-.35.06-.44-.08-.36.23-.61.51-.81.77-.27.34-.55.68-.85,1.05l-.09-.28c.03.26-.19.01-.27.19.28-.07.06.36.11.55-.42.29-.54.94-.57,1.37l-.16-.06c.1.51-.34.84-.55,1.31-.08.03-.26.08-.29.23.17.34.13.47.23.86-.03.28-.13.57-.16.89.54.89.84,1.99,1.71,2.73l-.1.18c.5.28.91.67,1.32.96.4.3.81.45,1.01.33,0,.11-.03.22-.05.34.18.11.45-.16.32-.37.24.04.46-.34.72-.19.27-.08.21-.3.36-.47.51-.23.67-.4.99-.83l-.11.08c.01.09.11.2.22.11.08-.2.56-.51.13-.61.56-.31.58-1.15,1-1.47-.11,0-.1-.12-.16-.18.12-.39.34-.64.15-1.25.05-.1.18.16.2-.09-.04-.15-.14,0-.2-.19-.19-.98.24-1.94.18-2.79-.22-1.5-.2-3.04-.53-4.32h.08c-.19-.19-.18-.45-.2-.69-.01-.25-.04-.49-.33-.54.03-.11-.11-.34.06-.34-.15-.11-.22-.32-.3-.53-.07-.23-.21-.44-.45-.5.02.03.04.04.1.05-.07-.22-.21-.37-.39-.45-.17-.1-.32-.22-.49-.36.06-.01.14,0,.19-.06-.11-.21-.51.14-.45-.27-.1-.04-.13.15-.07.17-.23-.1-.49-.16-.74-.23-.27,0-.55,0-.82,0l-.79.21-.73.35c-.8.17-.34-.55-.78,0-.09-.04.04.14,0,.08-.15.24-.57-.11-.61.17.2.14-.02.18.07.29-.51.2-.72.17-.91.58l-.07-.11c-.08.62-.62.94-.51,1.54-1.49,2.34-2.09,5.17-2.2,7.87-.11,1.33,0,2.69.31,3.93.32,1.24.81,2.38,1.5,3.42.09.68.2.69.74,1.06-.06.03-.09,0-.09.07.2-.18.38.27.59.1.71.6,1.52.94,2.43,1.21-.15-.02-.29.16-.11.21l.23-.12v.08c.14,0,.3-.1.2-.22.59.11,1.17.15,1.74.2.55.02,1.18,0,1.51-.08.88-.24,1.97-1,2.71-2.01.47-.39.88-1.19,1.16-1.78.64-.77,1.18-1.58,1.55-2.46.37-.87.57-1.84.42-2.75,0,0,.17.05.36.22.18.16.41.45.42.9Z"/>
    <path class="cls-2" d="M146.3,137.45c.15-.03.3-.24.41,0-.13-.02-.3.06-.41,0Z"/>
    <path class="cls-2" d="M149.01,130.56s.02-.16.03-.2c.04.11.17.16.11.29-.03-.12-.08-.07-.14-.09Z"/>
    <path class="cls-2" d="M147.75,128.73c.08-.14.62.03.83.25-.24-.15-.54-.24-.83-.25Z"/>
    <path class="cls-2" d="M145.52,128.61c-.23.03-.19-.06.09-.24.03.05-.05.14-.09.24Z"/>
    <path class="cls-2" d="M145.44,128.98c-.18.12-.29.11-.41.1.05.09.41-.34.41-.1Z"/>
    <path class="cls-2" d="M142.27,132.11c-.04.08-.05.31-.21.32.12-.04.09-.47.21-.32Z"/>
    <path class="cls-2" d="M141.63,133.81c-.03.05-.06.07-.05.14-.09.08-.13-.06-.11-.15h.16Z"/>
    <polygon class="cls-2" points="151.46 126.03 151.62 126.18 151.5 126.21 151.46 126.03"/>
    <path class="cls-2" d="M139.6,128.39c-.02.2-.16.06-.19.08.07-.15.1.13.19-.08Z"/>
    <polygon class="cls-2" points="137.99 135.41 137.99 135.36 138.23 135.4 137.99 135.41"/>
  </g>
  <g>
    <g>
      <path class="cls-2" d="M133.45,129.41c.13.19.51-.1.23.12-.23-.03-.41-.06-.23-.12Z"/>
      <path class="cls-2" d="M160.36,135.64c-1.55-.56,0-1.41-1.04-2.01-.07-.07.84-.04.62-.2-1.25-.54-.6-1.57.16-2.49h.24c.15-.16-.66-.23-.57-.4.15-.03.23.02.43-.05-.47.03-.26-.25-.62-.26.17-.09.54-.15.73-.27h-.54c-1.29-.02-.01-.62-.74-.83.13,0,.23,0,.34-.05-.89-.38-.86-1.07-1.31-1.58.19-.03.53-.09.73-.18-.56.12-.75-.03-.9-.15.54-.23-.59-.12-.33-.39l.13-.02c-.62.04.28-.3-.45-.19l.41-.22c-.8.19.35-.32-.08-.31l-.16.06c-.22-.04.16-.22,0-.27l.09-.04c-.29-.15.1-.43-.5-.21.45-.25.3.14.96-.23-.9-.52-1.02-1.31-1.38-2.01.2-.19.25-.27.46-.39-.15-.02-.23-.22-.55-.15.02.02.27-.19.29-.24.16-.24-.7.16-.5-.1.18-.02.37-.09.58-.21-.5.09-.52-.09-.74-.16.11-.03.18-.02.36-.12-.59.11-.05-.33-.44-.3l.35-.13c.28-.43-.71.3-.58,0,.13-.01.24-.1.38-.16-.68.15-.64-.23-.93-.29.05-.02.13-.07.13-.07-.17-.15-.13-.43-.5-.47.09-.16.78-.46.53-.58-.62.41-.47-.15-1.09.43,0-.22.06-.63-.21-.59.28-.09.68-.61.82-.51l.29-.37c.26-.16-.01.17.28-.09-.07-.06-.46-.07-.41-.2-.46.15-1.22.57-1.44.45.3-.09.6-.56.74-.58-.44.21-.88.42-1.31.65-.07-.04.44-.39.22-.35-.15.13-.27.17-.41.25.04-.08-.33-.12.19-.63.19-.22.2-.01.34-.25-.11-.1-.3.07-.41-.03l.07-.07c0-.14-.42.02-.64.37.03.06.3-.32.21-.11-.35.25-.55.22-.65.13.12-.05.25-.19.41-.33-.54.27-.79.27-1.09.31-.24.25.48-.41.38-.26.15-.56-.84.18-.54-.49.07-.03-.3.39-.24.32-.06-.11.26-.5.08-.4.18-.24-.14.01-.25.03-.16.15.07-.13.15-.11-.25.12-.83.22-.81-.24-.11.17-.51.53-.54.49l.26-.38c.1-.26-.18-.06.01-.4-.39.41.65-.16.28.12.16-.35-.58.5-.22-.01-.11-.05-.45.35-.33-.08-.01.08.39-.5.29-.53-.18-.02-.15.17-.33.23l-.16.12c-.21.39-.1-.1-.27.36.14-.34-.29.12.03-.54l.27-.52c-.09.01-.37.51-.52.73.01-.05.05-.17.09-.25-.36.81-.12-.13-.45.47-.01-.34-.29-.17-.18-.71-.19.23-.37.52-.42.31.04-.07.08-.09.14-.27,0-.27-.09-.05-.19.07.05-.12-.01-.54-.04-.87-.17.23-.23.71-.3,1,.08-.88-.37.47-.35-.31.05-.12.22-.42.17-.64.02-.87-.3.63-.39.2l-.04.73c-.02-.45-.24.4-.17-.34-.07.26-.16-.26-.18.45-.19-.64-.63.34-.84-.92-.04.12-.15,0-.12.37.08.39.09-.29.13-.02-.04.02-.04.22-.04.32-.1-.16-.17-.21-.1-.8-.23-.43-.17,1.21-.44.94,0-.29-.03-.41-.1-.35l-.11.52c-.17-.1-.14-.66-.18-1.16-.08.1-.2.08-.21.46l-.17-.61c.13.44-.05.31-.07.43l.03-.13c-.04-.21-.13-.07-.18,0,.05.31.17.42.23.5-.02.22-.1.18-.13.44-.04-.49-.18-.33-.26-.38-.1-.1-.03.45-.05.43-.04-.25-.13-.02-.12-.38.02-.08.09.23.11,0-.08-.18-.13-.62-.19-.28-.04.25.16.95-.03.67.02-.13,0-.32,0-.5l-.18-.22.07.44c-.04-.11-.03-.15-.05-.21.04.47-.19.18-.12.7-.06.06-.2-.28-.28-.32v-.04c-.13-.24-.21-.06-.2.26l-.02-.1s-.13.07-.12.34c-.19-.3-.46-1.62-.44-1.04-.11.05.05.83.17,1.09-.28-.24-.26.5-.64-.07.04.18.09.28.08.4-.32-.05-.28.66-.84,0-.02-.2-.2-.4-.32-.62.13.39-.27-.32.03.29.2.35.29.53.42.63-.03.27-.21.36-.48.08.14.14.17.26.21.37-.34-.55-.49-.57-.43-.32l.21.33-.27-.3c.05.12.45.69.17.43-.09-.12-.19-.24-.27-.32.12.31.37.79.1.59l-.43-.39c0,.07.19.38.34.45-.33-.15-.43-.11-.81-.42.32.54.44.85.44,1.06.02.23-.08.35-.2.44l-.23-.18c-.27-.09.39.33.19.26-.21-.18-.54-.3-.78-.55-.33-.07.31.41.39.56.32.22-.17-.19.23.09.11.09-.33,0,.15.31-.21-.09-.56-.34-.75-.48l.2.22c-.64-.26-.92-.85-1.68-1.19l.03.13c-.57-.24-.46-.59-.76-.48.19.25.87.75,1.14.81.04.25,1.15.78,1.02.91-.32-.12,0-.17-.43-.37-.45-.15.14.29-.04.27.24.03.72.37.79.46-.29-.05-.46-.31-.58-.22.29.17.46.38.71.4.66.37-.25.02.26.34-.5-.19-1.06-.67-1.36-.64.48.2.56.47,1.29.72-.16-.01-.53-.17-.8-.35-.32-.05.79.56-.16.18l.47.23c-.17-.04-.31-.07-.58-.13-.04.07.57.48-.17.18.07.05-.03.19.51.33.35.03-.33-.25.39-.03-.59-.16.02.16.19.28l-.29-.1c.1.07.02.13.32.26-.16-.08-.36-.14-.44-.14l.43.19c.18.21-.79-.24-.7-.05l-.31-.22c.07.05-.36-.04-.25.08.39.16.87.36,1.18.49.16.13-.47-.11-.07.09l-.46-.25c-.13-.06-.7-.14-.72-.03.12.12.68.39.94.35,0,.05-.28.05-.57-.08.1.16.45.11.67.28-.29-.04-.72-.02-1.14-.03l-.66-.3-.03.08c-.52-.25-.44-.06-1.01-.27-.11.04.08.16.22.26.97.07,1.24.51,2.11.66.19.26-2.12-.35-.82.19.23.01.87.26.65.07-.12.11.85.28.46.35-.33-.19-.9-.06-1.38-.34.28.07.24-.05.16-.09-.34-.01-.86-.2-.9-.05.06.11.05.23.51.31.5.1-.02-.14.47.01.14.2-.63.09.24.32-.04-.12.47-.05.81.02l.18.16-.32-.08c-.28.15.59.17.46.33l-.67-.02c-.56-.15.3-.23-.62-.37-.07.12.39.24.14.32-.08-.04-.09-.08-.17-.12-.04.04-1.26-.12-.57.2.26.14.32.08.67.14.08.23.42.34.45.48-.67-.12-.1.23-.77-.02.4-.02.41-.32-.22-.5-.81-.05.13-.15-.66-.33-.04.17-.83.04-1.34-.01-.04.05.17.13.24.17.48.1.48.03.98.1-.16.18.08.41.54.58-.25.03-.73-.05-.77-.14.11.26,0,.5-.17.71.81-.06.17.27.83.24.19-.1.76-.14,1.11-.04-.06.07-.35-.04-.52-.03.43.14-.71.08-.03.24-.24-.24-.97-.14-1.59-.24.34.2-.44-.05-.45.11.33.2.59.42.71.6-.61.18-.05.56-.05.76-.32.09-1.03-.02-1.16.09,0,.14.77-.06.43.12l-.14-.03c.16.07-.49.35.52.45l-.76-.09c-.07.04.1.08.18.11-.25,0-.48.03-.64-.04-.53.11.08.27.1.41l.45-.07c.35.24-.1.39.05.61h-.44s.26.12.26.12c-.43-.04-.71.08-.35.16l-1.08-.37c.26-.09.53.12.97.06.38-.05.27-.26-.16-.3-.05.08.05.09.2.15-.62.01-.59-.11-1-.18.02.04-.17.1.03.11-.3-.09-.34-.18-.36-.32.24.1.38-.04.56,0-.54-.03-.71-.17-.55-.34.63-.1-.4-.35-.22-.55.55.11.99.23,1.21.36.28-.11-.01-.14.27-.25-.41-.08-1.03-.15-1.27-.34h.41c-.19-.15-.8-.19-.67-.37.22-.32.25-.66.32-.91l.4.03c-.85-.22-.29-.5-.64-.73.43-.28-.28-.77.43-.84-.24-.61-.46-1.19-.16-1.77l.56.22c-.4-.2.35,0,.28-.12-.49.02-.57-.27-.9-.43.51-.17.08-.62-.23-.98l.39.1c-.66-.45.08-.57.29-.83.17.02.55.08.53-.02-.56-.38-.51-.45-.79-.84.08-.18.35-.42.66-.49-.58-1.06.37-1.49.3-2.47l.43.22c-.19-.61.09-1.01.39-1.33.32-.32.71-.55.79-.99l.51.64c.32.04.2-.5-.21-.9.33.05.21-.67.74-.22.27-.02,0-.47.1-.68.56-.04.67-.14.98-.5h-.12c.05.19.22.49.33.48.03-.28.61-.09.02-.87.65.26.83-.86,1.53-.34-.13-.24-.04-.33-.05-.51.39-.17.93.27,1.11-.26.09.11.02.46.18.45.06-.12-.09-.34-.01-.51.53-.67,1.33.26,1.84.02.88-.63,1.9-.44,2.76-.54v.2c.26-.77.71.77,1.04-.32.08.19.32.11.23.48.34-.49.72.54,1.21-.03-.03-.03-.06,0-.12.08.31.51.78.02,1.1.51-.06.07-.16.11-.22.3.04.4.6-.69.41.23.09.01.21-.43.14-.42.39.3.8.45,1.29.5.5.05,1.01.1,1.46.26.28.83-.79,1.37.01,1.04-.06.17.22-.29.12-.12.32-.11-.33,1.03.05.69.28-.5.26-.22.46-.5.09.54-.18,1,.32.83l-.2.23c.8-.46.83.15,1.72-.4,1.57,1.22,3.18,2.36,4.28,3.91.78,1.67,1.98,3.09,2.11,4.97-.61.67-.58.68-.12,1-.13.03-.17,0-.27.08.63-.19.17.28.78.12.08.66.41,1.19.6,1.83-.1-.08-.63,0-.55.11l.44.02-.17.07c.12.06.46.07.63-.07.49.75.47,1.63.42,2.48-.09.86-.26,1.7-.06,2.49-.23.41.07.92.24,1.33-.73,1.32-1.45,2.38-.79,3.6,0,0-1.7-.16-2.11-.63Z"/>
      <path class="cls-2" d="M133.39,129.18c.33-.04.51-.17.95-.06-.31,0-.65.08-.95.06Z"/>
      <path class="cls-2" d="M136.92,125.94c-.1-.01.14-.03.19-.04.02.04.29.11.12.12-.02-.04-.18-.05-.31-.08Z"/>
      <path class="cls-2" d="M137.21,125.15c.29.05.49.25.51.35l-.51-.35Z"/>
      <path class="cls-2" d="M138.5,124.59c.25-.02.38.02.36.1-.15-.02-.23-.06-.36-.1Z"/>
      <path class="cls-2" d="M137.85,124.44c0-.06.18-.06.34-.07-.25-.04.14.16-.34.07Z"/>
      <path class="cls-2" d="M138.98,123.13s-.23-.18.09-.13c-.23-.02.32.26-.09.13Z"/>
      <path class="cls-2" d="M138.73,122.38s.08,0,0-.05c.14,0,.33.1.35.14l-.36-.09Z"/>
      <polygon class="cls-2" points="147.03 116.42 146.95 116.56 146.99 116.27 147.03 116.42"/>
      <path class="cls-2" d="M151.56,118.83c.18-.08-.16.23-.18.27-.07-.03.27-.24.18-.27Z"/>
      <polygon class="cls-2" points="154.73 120.46 154.71 120.44 155.22 120.12 154.73 120.46"/>
    </g>
    <g>
      <path class="cls-2" d="M133.45,128.04c.14.18.51-.1.23.12-.24-.02-.42-.06-.23-.12Z"/>
      <path class="cls-2" d="M108.8,132.78c-1.5-.64.03-1.38-.87-2.09-.06-.08.83.08.64-.11-1.14-.72-.34-1.72.68-2.34l.23.08c.19-.12-.56-.41-.43-.55.16.02.21.08.43.08-.46-.11-.18-.31-.52-.43.19-.03.56.04.77,0l-.51-.18c-1.21-.47.21-.57-.38-1.03.12.04.21.09.33.09-.67-.69-.37-1.35-.47-2.02.18.07.51.19.72.21-.54-.18-.63-.4-.69-.59.58.09-.43-.43-.07-.53l.12.05c-.55-.32.39-.1-.26-.44l.47.05c-.76-.32.47-.07.12-.31l-.16-.05c-.15-.17.26-.1.16-.24l.09.02c-.12-.31.36-.29-.24-.5.51.1.14.31.88.44-.38-.99.14-1.72.46-2.47.27.03.36.01.59.11-.07-.13.05-.31-.21-.53,0,.03.31.11.36.09.28,0-.54-.48-.2-.48.12.14.29.26.5.36-.37-.36-.21-.49-.26-.71.08.08.11.14.29.24-.4-.45.26-.22.04-.54l.28.25c.51.03-.62-.48-.27-.52.07.11.2.17.32.26-.45-.53-.06-.68-.13-.98.03.04.12.1.12.1.07-.23.37-.3.28-.68.18.03.69.58.72.31-.6-.46.03-.49-.72-.93.24-.08.67-.14.57-.41.15.26.74.54.67.7l.41.21c.21.22-.16.02.15.25.03-.08-.03-.45.1-.42-.23-.42-.74-1.13-.62-1.38.11.29.62.54.65.69-.24-.41-.48-.84-.71-1.27.04-.08.41.42.38.19-.14-.14-.18-.27-.25-.41.08.04.17-.39.67.15.21.2,0,.21.23.35.11-.11-.04-.3.07-.42l.06.07c.15.02.04-.45-.29-.69-.07.03.29.33.08.23-.21-.38-.13-.61,0-.72.02.13.15.28.25.46-.17-.59-.06-.87.02-1.21-.19-.29.28.58.14.44.54.22.2-.95.81-.5,0,.08-.28-.41-.22-.33.16-.05.41.39.4.17.16.25.06-.16.11-.28-.05-.21.09.11.03.18,0-.28.35-.96.86-.72-.09-.17-.11-.74-.02-.76l.16.43c.18.22.23-.15.4.2-.07-.58-.4.71-.36.22.21.32,0-.8.2-.21.14-.08.08-.63.39-.3-.07-.05.12.64.23.56.17-.16-.02-.23.09-.43l.04-.21c-.15-.42.22,0-.04-.45.15.34.25-.32.47.39l.16.56c.07-.07-.05-.63-.06-.9.03.05.09.15.12.24-.26-.85.25,0,.15-.7.29.23.52-.14.76.37.08-.32.15-.64.38-.5-.02.09-.06.12-.02.31.17.23.14,0,.21-.16,0,.13.33.47.51.75.09-.29-.05-.75-.09-1.04.3.84.34-.64.66.11-.04.13-.15.47.01.66.27.84.17-.69.46-.32l-.16-.71c.16.42.29-.47.36.27.05-.27.29.22.19-.48.43.57.91-.43,1.21.83.05-.12.18,0,.14-.37-.11-.39-.11.29-.16.02.05-.02.05-.22.05-.32.13.16.22.2.13.8.26.42.22-1.22.57-.97,0,.3,0,.4.13.36l.24-.49c.28.13.12.68.11,1.18.13-.08.29-.04.39-.41l.09.63c-.06-.46.15-.29.22-.4l-.08.11c0,.21.15.11.23.06.04-.31-.09-.46-.17-.57.1-.2.2-.13.33-.37-.11.48.15.39.25.46.1.13.23-.4.27-.37-.05.25.19.08.01.41-.06.07-.04-.26-.16-.06.04.2-.08.63.16.35.18-.21.22-.95.37-.58-.09.1-.15.28-.25.44.05.1.09.2.13.31l.13-.42c0,.12-.03.15-.04.21.19-.43.35-.04.57-.52.12,0,.12.37.2.45l-.03.03c.03.29.25.18.46-.05l-.04.09c.05.06.22.06.41-.14.02.38-.65,1.55-.25,1.12.15.05.6-.62.66-.9.16.39.81-.05.71.7.13-.13.16-.24.3-.28.31.37,1.13.11.9,1.04-.22.07-.27.35-.43.55.32-.26-.16.4.29-.12.24-.32.37-.47.36-.68.35-.01.69.25.55.64.07-.19.19-.25.31-.3-.43.47-.35.68-.09.61l.28-.28-.2.36c.13-.05.6-.56.46-.18-.1.11-.2.23-.25.33.33-.13.89-.37.76,0l-.32.5c.09,0,.42-.14.46-.35-.05.45.03.61-.27,1.01,1.24-.46,1.73.12,2,.64l-.25.16c-.13.28.46-.23.36-.03-.26.12-.43.44-.78.54-.13.34.58-.07.77-.02.33-.2-.26.04.15-.21.13-.05-.09.42.42.13-.16.17-.54.37-.76.47l.31-.04c-.49.5-1.2.36-1.82.96l.13.04c-.46.42-.72.14-.76.48.3-.06,1.07-.43,1.23-.66.27.13,1.24-.64,1.35-.36-.25.25-.19-.16-.57.14-.33.36.36.09.29.28.12-.23.68-.43.82-.41-.16.27-.53.2-.47.41.31-.14.63-.09.74-.36.7-.31-.06.3.51.12-.44.32-1.18.4-1.31.74.44-.28.75-.08,1.36-.55-.09.16-.44.35-.75.44-.22.26.98-.15.09.36l.49-.2c-.13.11-.22.23-.45.41.04.1.81.02.08.35.09,0,.17.25.63-.08.23-.29-.45,0,.18-.4-.5.37.18.18.41.19l-.27.14c.13,0,.13.15.45.05-.18.03-.36.14-.41.21l.45-.13c.3.13-.74.38-.53.53h-.4c.08,0-.29.23-.12.27.41-.13.91-.25,1.23-.34.22.05-.43.24.03.19l-.54.04c-.14.03-.61.37-.55.52.17.04.81-.02.97-.27.04.08-.16.28-.48.33.21.13.42-.19.73-.13-.24.17-.55.5-.89.76l-.73.09.03.1c-.59.07-.39.21-.98.34-.07.1.16.11.33.12.84-.52,1.34-.2,2.15-.54.32.23-1.99.84-.59.72.2-.12.89-.17.59-.28-.04.21.88-.13.6.2-.4-.06-.81.43-1.38.35.29-.07.18-.19.09-.2-.3.17-.85.25-.8.42.11.08.17.23.61.08.48-.14-.1-.15.41-.23.24.18-.5.42.39.27-.11-.12.38-.3.72-.39l.25.12-.33.06c-.15.34.61-.08.6.22l-.61.29c-.57.08.14-.45-.75-.16.01.18.49.11.3.33-.09-.02-.12-.06-.21-.07-.02.07-1.18.42-.43.49.3.06.33-.04.67-.12.16.25.52.25.61.42-.67.11,0,.33-.72.27.37-.17.25-.56-.4-.51-.77.28.07-.24-.74-.1.03.21-.75.39-1.25.54-.02.06.2.07.29.08.48-.09.46-.16.95-.28-.08.26.23.42.72.46-.22.13-.71.2-.77.12.2.24.19.55.1.83.75-.3.24.26.87.04.15-.17.68-.39,1.05-.37-.03.1-.35.06-.51.12.45.05-.65.29.04.3-.3-.22-.97.1-1.59.15.38.12-.44.06-.42.24.36.12.66.3.82.49-.56.32.06.63.11.86-.3.15-1.02.13-1.12.27.03.14.75-.17.45.07h-.14c.18.04-.45.42.57.41h-.77c-.07.03.11.05.19.08-.25.02-.47.08-.64.02-.52.16.09.26.12.41l.45-.12c.36.23-.08.42.09.65h-.44s.27.14.27.14c-.43-.02-.7.11-.34.18l-1.1-.33c.26-.11.54.09.97.02.38-.06.25-.28-.18-.3-.05.08.05.08.21.14-.62.05-.6-.08-1.01-.12.03.04-.16.11.04.11-.3-.07-.35-.15-.37-.28.24.08.38-.07.56-.04-.54.02-.71-.1-.57-.28.62-.16-.4-.29-.26-.48.56.03,1.01.1,1.23.21.27-.15-.02-.14.24-.29-.42-.03-1.05-.02-1.32-.15l.4-.05c-.22-.12-.82-.06-.73-.25.16-.33.13-.64.15-.88l.4-.07c-.87,0-.38-.39-.8-.49.32-.36-.51-.55.15-.84-.39-.46-.83-.79-.83-1.34l.59-.08c-.44.03.31-.16.2-.23-.42.24-.62.05-.98.1.38-.37-.21-.5-.67-.54l.38-.15c-.79.08-.25-.38-.23-.68.14-.09.48-.29.41-.34-.65.13-.65.05-1.11.04-.06-.13-.02-.41.14-.66-1.03-.07-.85-.79-1.58-.96l.37-.3c-1.14.18-.76-.89-1.47-.85l.63-.52c.09-.28-.37-.09-.77.33.09-.28-.5.04-.1-.49,0-.2-.38.16-.53.17.01-.4-.1-.44-.4-.46l.02.07c.13-.12.35-.39.34-.47-.22.12-.15-.38-.66.45.07-.3-.12-.3-.29-.31-.17,0-.32,0-.23-.39-.12.24-.2.25-.31.39-.17-.11-.12-.67-.46-.33.03-.13.24-.39.17-.45-.09.07-.15.31-.26.43-.24.15-.31-.01-.39-.21-.07-.2-.16-.49-.29-.43-.14.11-.25.16-.35.18-.09.05-.16.07-.23.06-.03-.02-.26,0-.41,0-.16,0-.32.02-.48.05v-.2c-.15.76-.58-.73-.63.4-.07-.18-.2-.08-.21-.45-.09.55-.53-.4-.66.3.02.01.03-.03.04-.12-.32-.38-.41.24-.74-.1,0-.09.04-.15,0-.35-.19-.34-.04.84-.32-.06-.05.03.08.47.1.43-.62-.16-1.04.55-1.43.98-.58-.34-.67-1.44-.67-.66-.1-.15.14.33.05.16,0,.29-.64-.86-.51-.38.29.5.09.31.25.63-.39-.22-.72-.67-.67-.17l-.14-.27c.23.88-.24.64.15,1.57-.48.36-.76.95-1.09,1.42-.14.27-.26.55-.4.8-.07.13-.14.25-.22.37-.06.14-.13.27-.2.39-.2.21-.38.43-.54.67l-.4.79c-.31.5-.51,1.1-1.05,1.56-.85-.02-.84.04-.65.47-.12-.06-.14-.09-.26-.11.61.24-.03.25.55.49-.29.41-.26.9-.37,1.4-.05-.1-.55-.28-.54-.18l.38.21-.18-.03c.08.09.37.24.59.23.21,1.33-1.29,2.35-1.3,3.72-.33.28-.1.76,0,1.11-.98.93-1.68,1.91-1.1,2.98,0,0-1.69-.14-2.07-.61Z"/>
      <path class="cls-2" d="M133.38,127.82c.33-.04.5-.18.94-.08-.31.02-.65.09-.94.08Z"/>
      <path class="cls-2" d="M136.45,123.96c-.1.01.12-.07.18-.1.03.04.31.05.14.11-.03-.04-.18-.01-.32-.01Z"/>
      <path class="cls-2" d="M136.46,122.95c.29-.04.56.13.62.25l-.62-.25Z"/>
      <path class="cls-2" d="M137.44,121.76c.22-.14.36-.15.38-.03-.15.04-.23.02-.38.03Z"/>
      <path class="cls-2" d="M136.78,121.85c-.02-.08.14-.16.29-.23-.24.06.19.15-.29.23Z"/>
      <path class="cls-2" d="M137.01,119.56s-.31-.07-.02-.22c-.19.13.44.12.02.22Z"/>
      <path class="cls-2" d="M136.23,118.77s.05-.07-.04-.07c.1-.11.32-.13.37-.09l-.33.16Z"/>
      <polygon class="cls-2" points="121.11 109.95 121.19 109.79 121.21 110.08 121.11 109.95"/>
      <path class="cls-2" d="M113.94,112.85c.02.21-.23-.18-.27-.2.06-.08.19.31.27.2Z"/>
      <polygon class="cls-2" points="112.07 116.68 112.08 116.65 112.54 117.03 112.07 116.68"/>
    </g>
  </g>
</svg>