<?xml version="1.0" encoding="UTF-8"?>
<svg id="Layer_3" data-name="Layer 3" xmlns="http://www.w3.org/2000/svg" viewBox="0 0 300 300">
  <defs>
    <style>
      .cls-1 {
        fill: #fff;
      }

      .cls-2 {
        fill: #202020;
      }
    </style>
  </defs>
  <g>
    <ellipse class="cls-1" cx="97.47" cy="152.45" rx="55.91" ry="83.13"/>
    <g>
      <path class="cls-1" d="M155.71,153.53c-.26-1.65-1.12.88-.47-1.08.5.22.89.54.47,1.08Z"/>
      <path class="cls-1" d="M154.87,147.01c-1.76-2.56-1.96-5.53-2.16-8.62-.1-1.54-.17-3.11-.46-4.61-.14-.75-.3-1.5-.54-2.21-.25-.71-.57-1.4-.96-2.05-.26-.63,1.81-.17,1.09-1.58-3.58-4.93-4.41-13.44-5.38-20.56l.63.19c-.19-1.36-2.34-2.15-2.74-3.48.3-.16.63.19.91-.29-1.08.13-1.49-2.07-2.47-2.23.1-.67.84-.99.9-1.83l-1.4-.16c-1.71-.32-2.36-1.44-2.88-2.79-.55-1.32-1.06-2.83-2.48-3.66.3-.04.65.09.73-.25-2.06-1.5-3.89-3.45-5.83-5.37-1.89-1.97-3.94-3.87-6.04-5.42.42-.16,1.07-.58,1.16-1.14-1.02.73-2.45-.09-3.66-.8.14-.68-.52-.82-1.31-.98-.39-.08-.82-.15-1.2-.31-.39-.14-.74-.35-.98-.71l.27-.16c-1.72.44-1.06-1.66-2.74-.78l-.15-1.23c-.67.63-.92.22-1.18-.32-.27-.52-.57-1.17-1.21-.99l-.14.34c-1.01-.03-1.06-1.06-1.99-1.11v-.22c-2.01-.39-2.82-1.63-3.22-.32-.32-1.28,2.02.16,1.51-1.72-3.47-.53-6.84-1.01-10.25-1.18-3.39-.18-6.81-.06-10.11.57-.85-.4-1.38-.48-1.67-.95-.6.45-2.47.89-2.84,1.77.21-.1-.63-.53-1-.48-1.37-.07-.78,1.83-2.23,1.79.35-.55.37-1.04,0-1.45-.35.73-.89,1.21-1.48,1.6-.6.39-1.21.8-1.75,1.25.08-.3.32-.58.08-.94-.8,1.73-2.56,1.08-3.32,2.42v-.94c-1.18.13-1.09.58-.93,1.04.15.46.36.94-.55,1.21.22-.45-.08-.63-.19-.95-.32,1.09-1.11,1.89-1.9,2.68-.4.39-.83.75-1.21,1.1-.37.37-.7.74-.94,1.1,0-.15-.15-.3-.15-.3-.64.67-1.41,1.22-2.11,1.89-.7.66-1.41,1.36-1.86,2.33-.77.29-1.24-1.53-2.4.12,1.2,1-1.69,2.98.43,3.27-.32.27-.69.57-1.08.89-.37.33-.75.69-1.11,1.05-.7.72-1.3,1.45-1.38,2.07-.06-.98-2.06-.48-1.36-1.71l-1.41.31c-.44-.52.82-.78-.04-.99-.36.64-1.08,2.7-1.63,3.1.11,1.68.97,3.62.13,5.53-.04-1.17-1.81-.4-1.71-1.13.39,1.38.78,2.71,1.25,4.05-.25.64-1.19-.47-1.28.61.4.15.43.65.59,1.08-.31.13-.87,2.72-2.44,2.33-.7.01.19-1.17-.65-.71-.55,1.17-.08,1.45-.56,2.64l-.2-.06c-.55.7-.37,2.56.8,2.05.28-.52-.96-.16-.2-.78.31.45.37,1.04.3,1.66-.05.63-.23,1.29-.45,1.88-.08-.49-.49-.6-.85-.92.52,2.04.31,3.85.19,5.79.7.27-1.07-1.09-.6-1.23-.91.98-.92,2.3-.97,3.54-.07,1.23-.12,2.4-1.11,3.18-.04-.36,1.08.1.87.07-.39,1.1-1.43.78-1.24,1.62-.65-.08-.02.99,0,1.79.36.5-.35.13-.27-.55.26,1.2.31,5.62-.96,7.95.43.02,1.3,1.76,1.16,2.31l-.95-.36c-.68.44-.16,1.93-1.02,1.92.53.69.4-.52.27-1.69-.11-1.17-.26-2.29.07-1.39-.89.31,1.2,2.53-.07,1.98-.1,1.17.87,2.41-.19,3.41.2-.3-1.25-1.09-1.29-.14.01,1.68.42.52.63,1.9l.33.88c.95.13-.25,1.46.87.93-.83.14.33,2.41-1.25,2.15l-1.24-.3c.06.73,1.26,1.25,1.79,1.84-.12.09-.38.27-.59.22,1.9.19-.23,1.71,1.25,2.59-.34.74-.38,1.69-.47,2.54-.07.85-.2,1.6-.8,1.97.6,1.15,1.3,2.17.97,3.49-.19-.25-.27-.61-.69-.67-.52.85,0,1.03.34,1.77-.29-.16-1.06,1.72-1.64,2.7.67,1.11,1.67.62,2.31.69-.9.6-.53,1.39-.13,2.19.43.8.88,1.61.1,2.37-.31-.36-1.12-1.55-1.49-.55-1.74,1.29,1.62,1.94.99,3.73l1.5-.64c-.85.89,1.28,2.29-.33,2.38.63.46-.15,2.04,1.32,1.58-.39,1.47.12,3.08.5,4.57.34,1.5.54,2.89-.57,4.07.35.32.35,1.35,1.06.94.66-.86-.83-.73-.32-1.12.14.33.56.3.78.28-.12.92-.05,1.61-1.49,1.16-.38,2.13,3.07,1.17,3.19,3.63-.64.09-.81.34-.48.98l1.47.91c.27,1.55-1.07,1.33-2.08,1.72.45.74.8,1.72,1.68,1.78l-.89,1.45c.65-1.07.84.42,1.26.67l-.4-.26c-.36.32.29,1.11.61,1.51.57-.37.42-1.38.39-1.95.6.21.77.86,1.5,1.16-1.04.24-.16,1.55.01,2.2.12.78,1.23.37,1.29.58-.49.25.45,1.15-.5.95-.27-.16.23-.76-.39-.94-.15.62-1.04.98.04,1.63.81.48,1.78-1.09,1.83.52-.41-.22-.81-.1-1.28-.21.03.5.08,1,.14,1.49l.88-.39c-.13.28-.26.2-.34.34,1.09-.11,1.26,1.73,2.41,1.45.43.54.15,1.58.39,2.21l-.14-.07c-.09,1,.8,1.73,1.72,1.94l-.2.08c.17.41.86,1.21,1.63,1.35.03,1.31-2.78,2.36-1.06,2.69.7.93,2.45.42,2.69-.31.34.99,1.19,1.69,1.92,2.44.77.72,1.44,1.46,1.49,2.67.48-.05.54-.34,1.11-.07.43.59.95,1.11,1.5,1.61.58.46,1.16.92,1.72,1.37.54.47,1.08.9,1.49,1.43.42.52.71,1.15.88,1.85-.92-.19-.65.72-.97,1.16,1.09-.25.13,1.23,1.23.2.47-.73.78-1.03.36-1.79,1.61.69,3.66,2.07,4.04,3.24-.19-.58.26-.62.71-.66-.83,1.11.15,1.95,1.2,1.98l.52-.69.13,1.04c.45-.08,1.14-1.41,1.59-.27-.1.32-.19.64-.14.94.59-.12,1.3-.33,1.93-.38.32-.02.62,0,.88.08.27.07.5.21.67.46l.39,1.44c.47.02,1.36-.45.76-1.04.69.63,1.33.97,1.81,1.37.48.4.83.77,1,1.33,1.77-.97,3.6-1.36,5.42-1.62.46-.07.91-.11,1.36-.13.45-.03.9-.1,1.35-.12.45-.02.89-.04,1.32-.06.43-.04.85-.07,1.27-.09l-.02.64c.98.48.32-1.14.99-.79-.2.65.89,1.16.29,2.03,1.45.39,1.52-1.39,2.26-1.85-.06-.83-.54.67-.61-.4.07-.28,1.89.17,1.74-1.07.44.39.46,1.35.42,1.88l.61-.79c.68.54.36,1.36-.03,2.17-.37.82-.79,1.7,0,2.42l.75-.4c1.17,1.05-1.8,2.02.42,1.89.77-.82.9-2.86,0-3.12,1.62-.94-.15-3.09,1.6-3.64.37.24.05.44-.29.65-.34.2-.69.44-.34.87,1.22.69,1.46-1.2,2.31-1.15-.99-.1-.81-1.55-.42-1.96,1.09.16-.05,1.36,1.2.89-.11-.76.71-1.78-.43-1.77-.34-1.69,1.41-.16,1.41-1.65.95.78.1,3.04,1.67,2.79-.74-.87.81-2.23-.7-3.27.64,0,1.16.71,1.15,1.51,1.11.18.55-2.79,2.01-1.08l-.41-1.1c.42.16.89.21,1.59.44.61-.45.93-2.65,1.95-1.26.08-.29,1.41-1.34.15-1.82-1.24.11-.36,1.46-1.82.53,1.4.62,1.03-1.08,1.18-1.77l.51.44c.09-.43.82-.83.48-1.52.06.47.47.71.78.63l-.42-1c.68-1.34,1.47,1.06,2.29-.13l-.24,1.31c.05-.29,1.08.06,1.35-.66-.47-.85-.92-1.98-1.29-2.64.24-.84,1,.46.84-.75l.11,1.5c.11.32,1.6.55,2.33-.29.23-.76-.1-2.44-1.18-1.94.34-.41,1.26-.63,1.49.14.56-1.14-.86-.52-.62-1.68.75.07,2.25-.46,3.49-.58l.52,1.85.49-.6c.36,1.56,1.07.17,1.75,1.41.5-.31.56-1.1.57-1.73-2.58.03-1.32-3.1-3.15-3.81.74-1.93,4.59,1.51,3.28-1.95-.61.03-1.29-1.59-1.53-.21.86-.98-1.13-1.72.29-2.59.11,1.38,2.27-.06,2.42,1.94-.48-.42-.88.54-.87.84.9-.08,1.58,1.13,2.29-.05.26-.82.81-1.83-.14-2.18-.97-.51-.53,1.15-1.22.13.49-1.58,2.08-1.02.69-2.55-.34.98-1.47.64-2.11.26.07-.4.11-.82.16-1.24l.53.55c1.33-1.41-.91-1.11.1-2.6.56-.03,1.11-.07,1.66-.12.94.97-1.72,2.1.22,2.75.63-1.03-.07-1.83.87-2.63.05.3-.06.64,0,.94.24-.35,2.83.41,2.18-1.84-.16-1.07-.55-.51-1.22-.85.59-1.86.09-2.7.48-3.88,1.27.8.93-2,1.83-.15-1,.3-2.06,2.85-1.05,4.09,1.89.07-.88,1.29.52,2.43.72-1.42,2.25-.64,3.39-.41.27-.38,0-.99-.05-1.31-.89-.6-1.11-.05-2.12-.47.98-1.53,1.12-3.36.49-4.65.7-.36,1.62.19,1.46.89.51-2.1,1.38-4.21,2.32-6.05-2.02.73.27-2.29-1.36-1.86-.69.92-2.12,1.41-2.69.62.3-.6.71.25,1.15.1-.66-1.08,1.83-.82.65-2.04-.02,1.99,1.91.96,3.1,1.69-.32-1.58.9.33,1.32-1.02-.35-1.59-.46-3.42-.38-5.01.84-.81,1.14-2.04,1.23-3.27.07-1.24-.02-2.48.12-3.34.84-.79,2.23.08,2.65-.88.15-1.19-1.76.61-.8-1.02l.27.21c-.26-.57,1.52-3.07-.62-3.87l1.58.75c.19-.31-.15-.66-.29-.95.54.05,1.07-.27,1.35.31,1.26-.96.12-2.33.15-3.52l-1.04.67c-.61-2.1.53-3.36.26-5.36l.96.11-.51-1.2c.91.33,1.57-.73.82-1.38l2.19,3.2c-.61.83-1.11-1.01-2.08-.52-.83.41-.69,2.24.18,2.61.16-.7-.04-.75-.34-1.31,1.35-.14,1.22.92,2.05,1.53-.02-.38.43-.88.01-.99.59.78.63,1.54.55,2.77-.45-.88-.86.38-1.21.02,1.16.2,1.43,1.42.91,2.9-1.47.91.54,2.96-.13,4.67-1.07-.9-1.85-1.92-2.21-3.04-.72,1-.14,1.21-.9,2.2.8.65,2.08,1.24,2.39,2.76l-.88-.07c.19,1.36,1.47,1.6.92,3.21-.98,2.74-1.68,5.61-2.37,7.69l-.86-.15c.76.84.64,1.87.36,2.9-.28,1.04-.66,2.09-.55,3-1.67,2.38-1.3,6.06-3.25,6.83-1.28,4.81-2.66,9.09-5.66,13.38l-.65-1.41c.34,1.28-.93.14-1.25.99,1.43-.33.45,1.75.74,2.74-1.02.72-1.81,1.78-2.33,3-.54,1.21-.97,2.5-1.25,3.61l-.73-.49c-.01,1.34-.77,2.26-1.71,3.08-.96.8-2.18,1.43-3.18,2.3-.48-.04-1.4-.31-1.89.3-.02,1-.19,1.63-.48,2.25-.31.61-.72,1.23-1.26,2.26-.58.53-1.48,1.06-2.4,1.57-.9.52-1.9.91-2.71,1.12-1.87,2.49-4.52,4.15-7.33,5.47-2.81,1.37-5.84,2.26-8.88,3.55l-.66-.92c-2.82,1.73-6.45,2.07-9.84,1.88-1.71-.06-3.37-.35-4.94-.53-.79-.1-1.54-.25-2.28-.32-.74-.08-1.46-.12-2.14-.17l.91-1.58c-.73-.47-1.64-.59-2.39-.44-.75.16-1.32.52-1.31,1.2-.72-.53-1.78-.66-2.74-.9-.93-.28-1.77-.65-1.96-1.52-1.42-.96-2.21-.16-3.62-.58-1.37-1.09-2.27-1.84-3.27-2.41-.93-.64-1.95-1.13-3.33-1.93.19.19.37.38.58.55.52-.12.96-.72.39-1.25-1.22-.31-3.11-2.97-3.5-.62-.92-1.57-2.58-2.62-4.11-3.86-.39-.3-.77-.61-1.14-.92-.35-.33-.69-.67-.99-1.02-.6-.71-1.12-1.46-1.33-2.35-.25.59-.86.04-1.38.03-.48-.56-.92-1.17-1.33-1.79-.37-.64-.75-1.28-1.11-1.9-.76-1.21-1.46-2.34-2.53-3.01-.03-.54,1.22.04.6-.95-.58-.44-.63.41-1.39-.11-.86-.84-1.55-1.8-2.15-2.82-.56-1.04-1-2.13-1.42-3.22-.78-2.2-1.4-4.39-2.4-6.22-1.08-1.55-1.93-3.23-2.78-4.92-.77-1.72-1.53-3.46-2.12-5.24-1.28-3.53-2.17-7.13-3.12-10.54l.43-.02c-1.05-.96-.96-2.42-.94-3.78.05-1.37.03-2.63-1.35-3.34.27-.62-.16-2.14.7-1.86-.7-.83-.66-2.18-.62-3.61.06-1.44.06-2.95-.8-4.22-.02.25.08.38.3.65.66-2.8-.81-5.09-.09-8.02.2.28.36.8.78.87.75-1.12-1.91-2.55.13-3.22-.03-.63-1.03-.43-.96-.04.63-6.26-.37-12.96,0-19.6,1.83-4.51,3.41.19,2.45-3.68.43-.23-.74-.34-.31-.32-.35-1.52,2.6-1.79,1.74-2.94-1.3.17-.56-.77-1.3-.95,1.31-2.67,2.62-2.93,2.17-5.34l.6.32c-.6-1.49-.42-2.93-.31-4.33.13-1.4.26-2.75-.43-4.16,1.06-3.56,2.17-7.09,3.52-10.54.62-1.74,1.39-3.43,2.09-5.14.79-1.68,1.53-3.38,2.41-5.02,1.68-3.32,3.62-6.54,5.81-9.63,2.17-3.1,4.65-6.06,7.46-8.79,5.72-5.17,12.3-9.73,19.95-12.55,7.6-2.88,16.3-3.6,24.39-1.6.88.6,1.54,1.06,2.1,1.4.56.38,1.02.64,1.52.83.5.19,1.02.31,1.69.42.65.14,1.44.27,2.48.44-.25.21-.52.18-.35.52.33-.62,1.05-.45,1.75-.17.7.27,1.42.55,1.88,0,.69.31,1.35.65,1.99,1,.65.34,1.3.67,1.95,1.01,1.24.72,2.52,1.4,3.72,2.15,1.2.77,2.43,1.51,3.58,2.38.58.43,1.18.85,1.76,1.3.56.47,1.12.94,1.7,1.42-.82-.5-1.92.09-1.02.73l1.48.08-.12.42c.69.35,1.77.42,1.51-.46,5.98,4.68,10.22,10.87,13.48,17.19,3.22,6.38,5.57,12.92,7.97,19.33.57,3.25,2.33,7.51,3.46,10.88.32,5.3.29,10.27.4,15.17.11,4.9.35,9.73,1.03,14.92,0,0-.92-.34-1.96-1.19-1.05-.85-2.15-2.2-2.68-4.25Z"/>
      <path class="cls-1" d="M155.81,155.51c-.72.34-1.12,1.47-2.05.53.67-.09,1.42-.66,2.05-.53Z"/>
      <path class="cls-1" d="M144.23,183.93c.19.09-.4.31-.54.37.05-.35-.42-.84.01-1-.05.36.28.4.52.64Z"/>
      <path class="cls-1" d="M141.52,190.78c-.54-.32-.5-1.96-.28-2.85.09.94.22,1.9.28,2.85Z"/>
      <path class="cls-1" d="M136.56,195.99c-.73.29-.93.02-.58-.65.33.09.37.39.58.65Z"/>
      <path class="cls-1" d="M137.66,197.02c-.23.51-.68.6-1.12.68.5.21.24-1.3,1.12-.68Z"/>
      <path class="cls-1" d="M128.93,208.41c-.15.3-.15,1.21-.91,1.03.62.03.3-1.78.91-1.03Z"/>
      <path class="cls-1" d="M125.64,214.05c-.16.13-.31.11-.35.41-.47.08-.54-.52-.37-.79l.71.38Z"/>
      <path class="cls-1" d="M47.38,168.39c.13.24.28.47.42.7l-.63-.02c.07-.23.14-.45.22-.68Z"/>
      <path class="cls-1" d="M53.06,113.6c-.1-.84.74-.27.87-.36-.18.65-.64-.51-.87.36Z"/>
      <polygon class="cls-1" points="65.71 86.32 65.56 86.5 64.67 85.57 65.71 86.32"/>
    </g>
  </g>
  <g>
    <ellipse class="cls-1" cx="198.23" cy="158.33" rx="55.91" ry="83.13"/>
    <g>
      <path class="cls-1" d="M256.46,159.41c-.26-1.65-1.12.88-.47-1.08.5.22.89.54.47,1.08Z"/>
      <path class="cls-1" d="M255.63,152.89c-1.76-2.56-1.96-5.53-2.16-8.62-.1-1.54-.17-3.11-.46-4.61-.14-.75-.3-1.5-.54-2.21-.25-.71-.57-1.4-.96-2.05-.26-.63,1.81-.17,1.09-1.58-3.58-4.93-4.41-13.44-5.38-20.56l.63.19c-.19-1.36-2.34-2.15-2.74-3.48.3-.16.63.19.91-.29-1.08.13-1.49-2.07-2.47-2.23.1-.67.84-.99.9-1.83l-1.4-.16c-1.71-.32-2.36-1.44-2.88-2.79-.55-1.32-1.06-2.83-2.48-3.66.3-.04.65.09.73-.25-2.06-1.5-3.89-3.45-5.83-5.37-1.89-1.97-3.94-3.87-6.04-5.43.42-.16,1.07-.58,1.16-1.14-1.02.73-2.45-.09-3.66-.8.14-.68-.52-.82-1.31-.98-.39-.08-.82-.15-1.2-.31-.39-.14-.74-.35-.98-.71l.27-.16c-1.72.44-1.06-1.66-2.74-.78l-.15-1.23c-.67.63-.92.22-1.18-.32-.27-.52-.57-1.17-1.21-.99l-.14.34c-1.01-.03-1.06-1.06-1.99-1.11v-.22c-2.01-.39-2.82-1.63-3.22-.32-.32-1.28,2.02.16,1.51-1.72-3.47-.53-6.84-1.01-10.25-1.18-3.39-.18-6.81-.06-10.11.57-.85-.4-1.38-.48-1.67-.95-.6.45-2.47.89-2.84,1.77.21-.1-.63-.53-1-.48-1.37-.07-.78,1.83-2.23,1.79.35-.55.37-1.04,0-1.45-.35.73-.89,1.21-1.48,1.6-.6.39-1.21.8-1.75,1.25.08-.3.32-.58.08-.94-.8,1.73-2.56,1.08-3.32,2.42v-.94c-1.18.13-1.09.58-.93,1.04.15.46.36.94-.55,1.21.22-.45-.08-.63-.19-.95-.32,1.09-1.11,1.89-1.9,2.68-.4.39-.83.75-1.21,1.1-.37.37-.7.74-.94,1.1,0-.15-.15-.3-.15-.3-.64.67-1.41,1.22-2.11,1.89-.7.66-1.41,1.36-1.86,2.33-.77.29-1.24-1.53-2.4.12,1.2,1-1.69,2.98.43,3.27-.32.27-.69.57-1.08.89-.37.33-.75.69-1.11,1.05-.7.72-1.3,1.45-1.38,2.07-.06-.98-2.06-.48-1.36-1.71l-1.41.31c-.44-.52.82-.78-.04-.99-.36.64-1.08,2.7-1.63,3.1.11,1.68.97,3.62.13,5.53-.04-1.17-1.81-.4-1.71-1.13.39,1.38.78,2.71,1.25,4.05-.25.64-1.19-.47-1.28.62.4.15.43.65.59,1.08-.31.13-.87,2.72-2.44,2.33-.7.01.19-1.17-.65-.71-.55,1.17-.08,1.45-.56,2.64l-.2-.06c-.55.7-.37,2.56.8,2.05.28-.52-.96-.16-.2-.78.31.45.37,1.04.3,1.66-.05.63-.23,1.29-.45,1.88-.08-.49-.49-.6-.85-.92.52,2.04.31,3.85.19,5.79.7.27-1.07-1.09-.6-1.23-.91.98-.92,2.3-.97,3.54-.07,1.23-.12,2.4-1.11,3.18-.04-.36,1.08.1.87.07-.39,1.1-1.43.78-1.24,1.62-.65-.08-.02.99,0,1.79.36.5-.35.13-.27-.55.26,1.2.31,5.62-.96,7.95.43.02,1.3,1.76,1.16,2.31l-.95-.36c-.68.44-.16,1.93-1.02,1.92.53.69.4-.52.27-1.69-.11-1.17-.26-2.29.07-1.39-.89.31,1.2,2.53-.07,1.98-.1,1.17.87,2.41-.19,3.41.2-.3-1.25-1.09-1.29-.14.01,1.68.42.52.63,1.9l.33.88c.95.13-.25,1.46.87.93-.83.14.33,2.41-1.25,2.15l-1.24-.3c.06.73,1.26,1.25,1.79,1.84-.12.09-.38.27-.59.22,1.9.19-.23,1.71,1.25,2.59-.34.74-.38,1.69-.47,2.54-.07.85-.2,1.6-.8,1.97.6,1.15,1.3,2.17.97,3.49-.19-.25-.27-.61-.69-.67-.52.85,0,1.03.34,1.77-.29-.16-1.06,1.72-1.64,2.7.67,1.11,1.67.62,2.31.69-.9.6-.53,1.39-.13,2.19.43.8.88,1.61.1,2.37-.31-.36-1.12-1.55-1.49-.55-1.74,1.29,1.62,1.94.99,3.73l1.5-.64c-.85.89,1.28,2.29-.33,2.38.63.46-.15,2.04,1.32,1.58-.39,1.47.12,3.08.5,4.57.34,1.5.54,2.89-.57,4.07.35.32.35,1.35,1.06.94.66-.86-.83-.73-.32-1.12.14.33.56.3.78.28-.12.92-.05,1.61-1.49,1.16-.38,2.13,3.07,1.17,3.19,3.63-.64.09-.81.34-.48.98l1.47.91c.27,1.55-1.07,1.33-2.08,1.72.45.74.8,1.72,1.68,1.78l-.89,1.45c.65-1.07.84.42,1.26.67l-.4-.26c-.36.32.29,1.11.61,1.51.57-.37.42-1.38.39-1.95.6.21.77.86,1.5,1.16-1.04.24-.16,1.55.01,2.2.12.78,1.23.37,1.29.58-.49.25.45,1.15-.5.95-.27-.16.23-.76-.39-.94-.15.62-1.04.98.04,1.63.81.48,1.78-1.09,1.83.52-.41-.22-.81-.1-1.28-.21.03.5.08,1,.14,1.49l.88-.39c-.13.28-.26.2-.34.34,1.09-.1,1.26,1.73,2.41,1.45.43.54.15,1.58.39,2.21l-.14-.07c-.09,1,.8,1.73,1.72,1.94l-.2.08c.17.41.86,1.21,1.63,1.35.03,1.31-2.78,2.36-1.06,2.69.7.93,2.45.42,2.69-.31.34.99,1.19,1.69,1.92,2.44.77.72,1.44,1.46,1.49,2.67.48-.05.54-.34,1.11-.07.43.59.95,1.11,1.5,1.61.58.46,1.16.92,1.72,1.37.54.47,1.08.9,1.49,1.43.42.52.71,1.15.88,1.85-.92-.19-.65.72-.97,1.16,1.09-.25.13,1.23,1.23.2.47-.73.78-1.03.36-1.79,1.61.69,3.66,2.07,4.04,3.24-.19-.58.26-.62.71-.66-.83,1.11.15,1.95,1.2,1.98l.52-.69.13,1.04c.45-.08,1.14-1.41,1.59-.27-.1.32-.19.64-.14.94.59-.12,1.3-.34,1.93-.38.32-.02.62,0,.88.08.27.07.5.21.67.46l.39,1.44c.47.02,1.36-.45.76-1.04.69.63,1.33.97,1.81,1.37.48.4.83.77,1,1.33,1.77-.97,3.6-1.36,5.42-1.62.46-.07.91-.11,1.36-.13.45-.03.9-.1,1.35-.12.45-.02.89-.04,1.32-.06.43-.04.85-.07,1.27-.09l-.02.64c.98.48.32-1.14.99-.79-.2.65.89,1.16.29,2.03,1.45.39,1.52-1.39,2.26-1.85-.06-.83-.54.67-.61-.4.07-.28,1.89.17,1.74-1.07.44.39.46,1.35.42,1.88l.61-.79c.68.54.36,1.36-.03,2.17-.37.82-.79,1.7,0,2.42l.75-.4c1.17,1.05-1.8,2.02.42,1.89.77-.82.9-2.87,0-3.12,1.62-.94-.15-3.09,1.6-3.64.37.24.05.44-.29.65-.34.2-.69.44-.34.87,1.22.69,1.46-1.2,2.31-1.15-.99-.1-.81-1.55-.42-1.96,1.09.16-.05,1.35,1.2.89-.11-.76.71-1.78-.43-1.77-.34-1.69,1.41-.16,1.41-1.65.95.78.1,3.04,1.67,2.79-.74-.87.81-2.23-.7-3.27.64,0,1.16.71,1.15,1.51,1.11.18.55-2.79,2.01-1.08l-.41-1.1c.42.16.89.21,1.59.44.61-.45.93-2.65,1.95-1.26.08-.29,1.41-1.34.15-1.82-1.24.11-.36,1.46-1.82.53,1.4.62,1.03-1.08,1.18-1.77l.51.44c.09-.43.82-.83.48-1.52.06.47.47.71.78.63l-.42-1c.68-1.34,1.47,1.06,2.29-.13l-.24,1.31c.05-.29,1.08.06,1.35-.66-.47-.85-.92-1.98-1.29-2.64.24-.84,1,.46.84-.75l.11,1.5c.11.32,1.6.55,2.33-.29.23-.76-.1-2.44-1.18-1.94.34-.41,1.26-.63,1.49.14.56-1.14-.86-.52-.62-1.68.75.07,2.25-.46,3.49-.58l.52,1.85.49-.6c.36,1.56,1.07.17,1.75,1.41.5-.31.56-1.1.57-1.73-2.58.03-1.32-3.1-3.15-3.81.74-1.93,4.59,1.51,3.28-1.95-.61.03-1.29-1.59-1.53-.21.86-.98-1.13-1.72.29-2.59.11,1.38,2.27-.06,2.42,1.94-.48-.42-.88.54-.87.84.9-.08,1.58,1.13,2.29-.05.26-.82.81-1.83-.14-2.18-.97-.51-.53,1.15-1.22.13.49-1.58,2.08-1.02.69-2.55-.34.98-1.47.64-2.11.26.07-.4.11-.82.16-1.24l.53.55c1.33-1.41-.91-1.11.1-2.6.56-.03,1.11-.07,1.66-.12.94.97-1.72,2.1.22,2.75.63-1.03-.07-1.83.87-2.63.05.3-.06.64,0,.94.24-.35,2.83.41,2.18-1.84-.16-1.07-.55-.51-1.22-.85.59-1.86.09-2.7.48-3.88,1.27.8.93-2,1.83-.15-1,.3-2.06,2.85-1.05,4.09,1.89.07-.88,1.29.52,2.43.72-1.42,2.25-.64,3.39-.41.27-.38,0-.99-.05-1.31-.89-.6-1.11-.05-2.12-.47.98-1.53,1.12-3.36.49-4.65.7-.36,1.62.19,1.46.89.51-2.1,1.38-4.21,2.32-6.05-2.02.73.27-2.29-1.36-1.86-.69.92-2.12,1.41-2.69.62.3-.6.71.25,1.15.1-.66-1.08,1.83-.82.65-2.04-.02,1.99,1.91.96,3.1,1.69-.32-1.58.9.33,1.32-1.02-.35-1.59-.46-3.42-.38-5.01.84-.81,1.14-2.04,1.23-3.27.07-1.24-.02-2.48.12-3.34.84-.79,2.23.08,2.65-.88.15-1.19-1.76.61-.8-1.02l.27.21c-.26-.57,1.52-3.07-.62-3.87l1.58.75c.19-.31-.15-.66-.29-.95.54.05,1.07-.27,1.35.31,1.26-.96.12-2.33.15-3.52l-1.04.67c-.61-2.09.53-3.36.26-5.35l.96.11-.51-1.2c.91.33,1.57-.73.82-1.38l2.19,3.2c-.61.83-1.11-1.01-2.08-.52-.83.41-.69,2.24.18,2.61.16-.7-.04-.75-.34-1.31,1.35-.14,1.22.92,2.05,1.53-.02-.38.43-.88.01-.99.59.78.63,1.54.55,2.77-.45-.88-.86.38-1.21.02,1.16.2,1.43,1.42.91,2.9-1.47.91.54,2.96-.13,4.67-1.07-.9-1.85-1.92-2.21-3.04-.72,1-.14,1.21-.9,2.2.8.65,2.08,1.24,2.39,2.76l-.88-.07c.19,1.36,1.47,1.6.92,3.21-.98,2.74-1.68,5.61-2.37,7.69l-.86-.15c.76.84.64,1.87.36,2.9-.28,1.04-.66,2.09-.55,3-1.67,2.38-1.3,6.06-3.25,6.83-1.28,4.81-2.66,9.09-5.66,13.38l-.65-1.41c.34,1.28-.93.14-1.25.99,1.43-.33.45,1.75.74,2.74-1.02.72-1.81,1.78-2.33,3-.54,1.21-.97,2.5-1.25,3.61l-.73-.49c-.01,1.34-.77,2.26-1.71,3.08-.96.8-2.18,1.43-3.18,2.3-.48-.04-1.4-.31-1.89.3-.02,1-.19,1.63-.48,2.25-.31.61-.72,1.23-1.26,2.26-.58.53-1.48,1.06-2.4,1.57-.9.52-1.9.91-2.71,1.12-1.87,2.49-4.52,4.15-7.33,5.47-2.81,1.37-5.84,2.26-8.88,3.55l-.66-.92c-2.82,1.73-6.45,2.07-9.84,1.88-1.71-.06-3.37-.35-4.94-.53-.79-.1-1.54-.25-2.28-.32-.74-.08-1.46-.12-2.14-.17l.91-1.58c-.73-.47-1.64-.59-2.39-.44-.75.16-1.32.52-1.31,1.2-.72-.53-1.78-.66-2.74-.9-.93-.28-1.77-.65-1.96-1.52-1.42-.96-2.21-.16-3.62-.58-1.37-1.09-2.27-1.84-3.27-2.41-.93-.64-1.95-1.13-3.33-1.93.19.19.37.38.58.55.52-.12.96-.72.39-1.25-1.22-.31-3.11-2.97-3.5-.62-.92-1.57-2.58-2.62-4.11-3.86-.39-.3-.77-.61-1.14-.92-.35-.33-.69-.67-.99-1.02-.6-.71-1.12-1.46-1.33-2.35-.25.59-.86.04-1.38.03-.48-.56-.92-1.17-1.33-1.79-.37-.64-.75-1.28-1.11-1.9-.76-1.21-1.46-2.34-2.53-3.01-.03-.54,1.22.04.6-.95-.58-.44-.63.41-1.39-.11-.86-.84-1.55-1.8-2.15-2.82-.56-1.04-1-2.13-1.42-3.22-.78-2.2-1.4-4.39-2.4-6.22-1.08-1.55-1.93-3.23-2.78-4.92-.77-1.72-1.53-3.46-2.12-5.24-1.28-3.53-2.17-7.13-3.12-10.54l.43-.02c-1.05-.96-.96-2.42-.94-3.78.05-1.37.03-2.63-1.35-3.34.27-.62-.16-2.14.7-1.86-.7-.83-.66-2.18-.62-3.61.06-1.44.06-2.95-.8-4.22-.02.25.08.38.3.65.66-2.8-.81-5.09-.09-8.02.2.28.36.8.78.87.75-1.12-1.91-2.55.13-3.22-.03-.63-1.03-.43-.96-.04.63-6.26-.37-12.96,0-19.6,1.83-4.51,3.41.19,2.45-3.68.43-.23-.74-.34-.31-.32-.35-1.52,2.6-1.79,1.74-2.94-1.3.17-.56-.77-1.3-.95,1.31-2.67,2.62-2.93,2.17-5.34l.6.32c-.6-1.49-.42-2.93-.31-4.33.13-1.4.26-2.75-.43-4.16,1.06-3.56,2.17-7.09,3.52-10.54.62-1.74,1.39-3.43,2.09-5.14.79-1.68,1.53-3.38,2.41-5.02,1.68-3.32,3.62-6.54,5.81-9.63,2.17-3.1,4.65-6.06,7.46-8.79,5.72-5.17,12.3-9.73,19.95-12.55,7.6-2.88,16.3-3.6,24.39-1.6.88.6,1.54,1.06,2.1,1.4.56.38,1.02.64,1.52.83.5.19,1.02.31,1.69.42.65.14,1.44.27,2.48.44-.25.21-.52.18-.35.52.33-.62,1.05-.45,1.75-.17.7.27,1.42.55,1.88,0,.69.31,1.35.65,1.99,1,.65.34,1.3.67,1.95,1.01,1.24.72,2.52,1.4,3.72,2.15,1.2.77,2.43,1.51,3.58,2.38.58.43,1.18.85,1.76,1.3.56.47,1.12.94,1.7,1.42-.82-.5-1.92.09-1.02.73l1.48.08-.12.42c.69.35,1.77.42,1.51-.46,5.98,4.68,10.22,10.87,13.48,17.19,3.22,6.38,5.57,12.92,7.97,19.33.57,3.25,2.33,7.51,3.46,10.88.32,5.3.29,10.27.4,15.17.11,4.9.35,9.73,1.03,14.92,0,0-.92-.34-1.96-1.19-1.05-.85-2.15-2.2-2.68-4.25Z"/>
      <path class="cls-1" d="M256.57,161.4c-.72.34-1.12,1.47-2.05.53.67-.09,1.42-.66,2.05-.53Z"/>
      <path class="cls-1" d="M244.98,189.82c.19.09-.4.31-.54.37.05-.35-.42-.84.01-1-.05.36.28.4.52.64Z"/>
      <path class="cls-1" d="M242.28,196.67c-.54-.32-.5-1.96-.28-2.85.09.94.22,1.9.28,2.85Z"/>
      <path class="cls-1" d="M237.31,201.88c-.73.29-.93.02-.58-.65.33.09.37.39.58.65Z"/>
      <path class="cls-1" d="M238.41,202.91c-.23.51-.68.6-1.12.68.5.21.24-1.3,1.12-.68Z"/>
      <path class="cls-1" d="M229.68,214.29c-.15.3-.15,1.21-.91,1.03.62.03.3-1.78.91-1.03Z"/>
      <path class="cls-1" d="M226.4,219.93c-.16.13-.31.11-.35.41-.47.08-.54-.52-.37-.79l.71.38Z"/>
      <path class="cls-1" d="M148.13,174.28c.13.24.28.47.42.7l-.63-.02c.07-.23.14-.45.22-.68Z"/>
      <path class="cls-1" d="M153.81,119.49c-.1-.84.74-.27.87-.36-.18.65-.64-.51-.87.36Z"/>
      <polygon class="cls-1" points="166.46 92.21 166.31 92.39 165.42 91.46 166.46 92.21"/>
    </g>
  </g>
  <g>
    <path class="cls-2" d="M91.42,164.55c-.31,1.52,1.14-.46.03,1.08-.32-.33-.51-.72-.03-1.08Z"/>
    <path class="cls-2" d="M132.18,167.22c1.03,2.6.37,5.55-.65,8.33-1.02,2.81-2.37,5.48-2.79,8.34-.17.63-1.25-.78-1.57.66-.25,2.83-1.79,6.01-4.06,8.82-2.26,2.82-5.23,5.26-8.05,6.86l-.02-.56c-.52.32-.81.96-1.12,1.62-.3.67-.64,1.33-1.2,1.66-.18-.21.06-.56-.4-.67.29.87-1.55,1.7-1.66,2.49-.6,0-.92-.57-1.64-.54l-.12,1.17c-.29,1.5-1.5,2.04-2.8,2.37-1.35.3-2.71.35-4.04,1.09.11-.24.35-.45.1-.63-2.11,1-4.73,1.4-7.4,1.36-2.68-.02-5.4-.44-7.98-.89.29-.27.63-.81.44-1.25-.25.45-.78.63-1.42.67-.64.02-1.39-.11-2.09-.24-.22-1.18-2.6.03-3.91-1.21l.23-.15c-1.59.43-1.34-1.35-2.82-.69l-.28-1.09c-.59.49-.9.11-1.18-.39-.28-.51-.54-1.12-1.16-1.09l-.14.27c-1.01-.23-.96-1.15-1.82-1.47l.04-.18c-1.87-.99-2.22-2.41-2.93-1.55.04-.58.48-.31.9-.12.45.17.88.26.88-.59-2.89-1.72-5.36-4.19-7.35-6.99-2-2.8-3.51-5.93-4.71-9.11.17-.89.15-1.39.5-1.68-.46-.55-.95-2.32-1.66-2.76.08.21.44-.57.4-.92.12-1.27-1.5-1.01-1.31-2.44.41.46.81.56,1.18.3-1.14-.92-1.22-2.47-1.73-3.76.22.18.39.49.73.38-1.24-1.32-.11-2.69-.91-3.9l.7.42c.59-2.12-1.42-.49-1.08-2.33.23.42.48.25.75.31-1.31-1.6-1.02-4.37-1.35-6.06.09.1.27.08.27.08-.06-.92.02-1.86.09-2.82.05-.96.09-1.94-.07-2.98.36-.7,1.55.39,1.52-1.55-1.31-.08-.12-3.33-1.73-2.4.23-.82.59-1.86.84-2.84.28-.97.48-1.89.37-2.48.34.83,1.72-.46,1.57.91l.98-.84c.49.26-.38.99.34.81.06-.67.03-2.7.37-3.24-.45-1.39-1.63-2.94-1.15-4.99.2,1.08,1.54-.1,1.56.6-.53-1.16-1.01-2.34-1.47-3.54.17-.68,1.02.2,1.04-.86-.35-.07-.38-.55-.53-.95.22-.19.77-2.86,2.1-2.62.59-.08-.2,1.15.53.62.5-1.17.09-1.42.63-2.58l.17.05c.53-.67.58-2.5-.45-1.98-.3.52.79.14.08.77-.43-.88.1-2.33.71-3.5-.03.5.3.61.54.94-.07-2.03.63-3.83,1.39-5.74-.5-.36.53,1.24.1,1.31,1.03-.85,1.54-2.08,2.08-3.27.57-1.16,1.17-2.28,2.36-2.69-.15.34-.79-.42-.64-.33.89-.9,1.51-.26,1.81-1.09.44.3.59-.84,1.08-1.56.04-.58.33.03-.14.59.13-.28.38-.76.78-1.29.4-.53.91-1.16,1.5-1.78.62-.59,1.3-1.2,2.01-1.7.74-.47,1.48-.88,2.16-1.1-.25-.26.87-1.98,1.49-2.28l.15.84c.75.14,1.97-1.03,2.35-.45.44-.75-.71.02-1.75.79-1,.82-1.88,1.66-1.28.86.38.17.77-.43,1.12-.93.37-.48.67-.86.73-.28.59-.29,1.06-.81,1.61-1.17.55-.36,1.15-.63,1.87-.49-.4.01-.61,1.42.34,1.01,1.7-.67.37-.52,1.75-1.2.28-.19.56-.39.85-.55-.1-.78,1.7-.22.83-.95.18.31.84.04,1.49-.04.65-.08,1.24-.07,1.2.59l-.16,1.05c.77-.15,1.21-1.21,1.86-1.65.11.1.33.3.29.47.05-.78.56-.75,1.16-.68.61.06,1.29.29,1.84-.28,1.68.62,4.48.79,5.01,2,.36-.02.71-.05,1.07-.05.35.02.7.04,1.06.1.7.11,1.41.33,2.04.88-.35-.02-.76-.18-.98.08.67.88,1.05.61,1.99.83-.14.04.16.51.55,1.1.39.58.86,1.28,1.06,1.85,1.29.47,1.53-.43,1.97-.74-.02.98.76,1.49,1.68,2.04.82.59,1.77,1.25,1.61,2.3-.41-.29-1.79-1.07-1.41.01-.26.92.26,1.23.97,1.58.72.34,1.48.8,1.63,1.8l.9-1.02c-.12.57.36,1.11.71,1.58.36.47.6.86-.04,1.03.7.4.44,2.21,1.54,1.56.07,1.65.76,3.36,1.21,5,.2.82.36,1.61.34,2.34-.04.72-.23,1.38-.7,1.92.3.37.23,1.44.84,1.12.58-.81-.64-.88-.23-1.21.11.36.46.39.64.4-.14.96-.12,1.67-1.28.99-.46,2.07,2.43,1.75,2.22,4.38-.53-.06-.7.15-.55.88l1,1.34c-.08,1.66-1.11,1.01-1.98,1.12.22.85.22,1.91.9,2.27l-1.06,1.1c.77-.79.56.69.79,1.09l-.23-.4c-.36.17-.1,1.16.02,1.66.54-.13.74-1.15.87-1.72.41.43.34,1.12.8,1.7-.87-.17-.57,1.43-.67,2.11-.18.79.78.88.75,1.11-.45.02-.07,1.28-.7.67-.14-.26.43-.61.03-1.05-.33.52-1.1.47-.54,1.53.43.8,1.7-.21,1.16,1.32-.21-.4-.56-.48-.87-.79l-.45,1.43.78.06c-.2.19-.27.06-.37.15.83.43.24,2.18,1.16,2.51.07.72-.56,1.5-.66,2.18l-.07-.13c-.48.83-.19,1.93.33,2.63l-.17-.04c-.07.45.05,1.51.5,2.07-.6,1.12-2.97.37-1.98,1.62.04,1.14,1.46,1.76,1.95,1.3-.03.14-.05.23-.08.4-.03.18-.05.35-.07.53-.03.35-.05.71-.06,1.07.01.74-.05,1.44-.13,2.13-.11,1.43-.57,2.7-1.49,3.61.16.44.44.3.32,1.06-.21.41-.41.84-.6,1.28-.2.42-.4.84-.6,1.26l-.58,1.28c-.22.4-.44.8-.65,1.19-.43.8-.94,1.51-1.51,2.09-.28.3-.58.57-.9.8-.33.22-.68.4-1.05.54.39-.97-.57-.55-.92-.82.02,1.07-1.17.25-.45,1.27.58.41.79.71,1.64.14-.5.94-1.36,1.95-2.22,2.79-.89.81-1.82,1.41-2.46,1.55.64-.14.47.33.24.79-.63-.96-1.88-.12-2.59.88l.27.66-1.04-.14c-.26.42.42,1.52-1,1.58-.19-.2-.39-.39-.68-.45-.74,1.12-2.02,2.85-3.69,2.83-.51-.17-1-.36-1.47-.55-.53.31-1.57,1.12-.29,1.14-.7.02-1.35.03-1.93.04-.59,0-1.22-.05-1.7-.12-.49-.1-.91-.21-1.25-.36-.33-.17-.6-.36-.78-.6-2.49.81-5.54.22-8-1.01-2.49-1.24-4.52-3.05-6.06-4.77l.47-.26c-.49-1.22-1.11.16-1.42-.73.63-.04.19-1.4,1.27-1.1-.7-1.61-2.09-1.08-2.98-1.84-.64.28.9.45.08.8-.33,0-1.02-2.22-1.99-1.88.09-.59.9-.73,1.37-.78l-1-.58c.16-.86,1-.54,1.86-.29.86.26,1.74.42,1.98-.5-.22-.21-.42-.42-.64-.64.43-1.27,2.29,1.19,1.37-.79-.94-.46-2.63-.4-2.55.59-.67-.79-1.32-.68-1.93-.62-.62.06-1.23.08-1.75-.98.22-.84,1.03,1.56,1.55.74.18-1.32-1.45-1.67-1.63-2.67.14,1.13-1.21.8-1.68.21-.07-1.3,1.21.29.59-1.29-.65,0-1.69-1.33-1.52.12-1.5-.08-.36-1.83-1.64-2.42.71-.83,2.64.98,2.48-.97-.38.28-.87-.16-1.36-.55-.49-.38-1.02-.7-1.52,0,.03-.85.7-1.09,1.4-.71.12-.6-.44-1.14-.82-1.67-.37-.53-.58-1.02.29-1.36l-.98-.25c.12-.21.22-.45.34-.72.12-.26.28-.65.51-.99-.05-.6-.35-1.46-.47-2.22-.09-.71,0-1.28.69-1.15-.13-.35.3-2.56-.8-1.87-.81,1.37.47,1.72-.91,2.47.58-.51.59-1.05.46-1.58-.14-.53-.46-1.09-.55-1.53l.56-.03c-.12-.54.24-1.59-.25-2.02.21.44.62.33.84,0l-.68-.7c.15-1.95,1.5-.05,1.82-1.83.06.49.13.99.21,1.49-.05-.33.86-.68.88-1.55-.62-.55-1.26-1.44-1.71-1.91.05-1.07.94-.13.59-1.33.12.51.25,1.02.39,1.53.17.26,1.46-.38,1.93-1.57.07-.85-.39-2.49-1.3-1.44.25-.62,1.05-1.27,1.34-.56.39-1.45-.82-.16-.7-1.52.68-.27,2.04-1.41,3.15-1.9.16.58.33,1.16.52,1.73l.4-.75c.38,1.43.94-.12,1.6.91.42-.41.41-1.19.45-1.8-2.33.64-1.09-2.81-2.65-3.19.92-2.31,3.96.76,3.31-2.64-.57.11-.87-1.55-1.37-.03,1-1.14-.71-1.75.9-2.85-.27,1.45,2.1-.19,1.73,1.89-.34-.41-.94.62-.97.94.84-.15,1.2.99,2.07-.21.4-.82,1.17-1.81.42-2.18-.72-.52-.8,1.18-1.15.16.91-1.69,2.18-1.03,1.49-2.67-.69,1-1.59.65-2.06.25l.66-1.36.26.6c.46-.37.69-.63.77-.84.09-.22.12-.46.08-.65-.06-.4-.1-.83,1.33-2.1.65-.12,1.31-.15,1.93-.15-.03.36-.3.68-.64,1.05-.34.37-.77.75-1.16,1.11-.4.36-.74.72-.85,1.02-.12.3.02.47.38.68.29-.3.59-.69.83-1,.24-.32.43-.63.64-.93.39-.62.88-1.16,1.75-1.61-.27.41-.71.84-.96,1.24.3-.22.89.02,1.53-.01.65-.06,1.32-.29,2.21-1.67,1.04-1.2.17-.79.02-1.42.34-.22.65-.44.94-.65.29-.18.56-.34.81-.49.25-.16.49-.32.71-.46.23-.13.44-.24.64-.36.82-.49,1.55-.81,2.54-.98-.27.64.56.61,1.17.62.63.05,1,.09-.15.69-.2-.18-.6-.26-1.13-.31-.53,0-1.17.09-1.81.3-1.29.44-2.52,1.37-2.85,2.23.6.46.1.71-.56,1.06-.67.32-1.51.95-1.45,1.79.91-.66,1.45-.62,1.8-.27.35.33.54.89.76,1.28.4-.23.76-.85,1.01-1.16.1-1.02-.51-.67-.69-1.58.53-.21,1.05-.46,1.56-.66.51-.25,1.02-.44,1.51-.67.49-.24.97-.38,1.42-.61.46-.19.89-.37,1.28-.58.35.25.38.59.22.85-.16.26-.5.44-.95.52.34-.06.68-.06,1.02-.03.34,0,.67.09,1.01.16.34.08.68.14.98.31.3.16.64.28.9.51,1.14.8,1.86,2,2.23,3.23.17-1.25.54-.7.92-.01.3.72.63,1.54.92.6-.15-1.61-.24-3.47.7-3.21.45.93-.48.43-.5,1,.62.25.51.98.49,1.57,0,.6-.12,1.19.6,1.46-.55-1.32-1.02-1.08-1.39-.64-.37.46-.8,1.21-1.33,1.34.87,1.34-.69.41-.44,2.02.77,1.3,1.24,3.5,1.28,5.69-.17.34-.31.69-.41.93-.1.28-.18.57-.26.87-.14.6-.19,1.24-.24,1.87-.08,1.27-.07,2.53-.23,3.43-.75.81-1.83-.09-2.26.85-.25,1.16,1.52-.55.55,1.03l-.2-.22c.17.6-1.59,2.9,0,3.87l-1.17-.87c-.2.28.02.65.08.95-.43-.1-.91.16-1.05-.43-1.18.78-.46,2.2-.76,3.34l.98-.49c.03,2.11-1.13,3.16-1.46,5.09l-.73-.3.08,1.24c-.63-.5-1.42.33-1.02,1.11-.28-1.15-.57-2.29-.88-3.42.7-.64.62,1.15,1.51.9.78-.21,1.13-1.98.49-2.48-.28.63-.13.71-.02,1.3-1.11-.12-.75-1.09-1.3-1.79-.06.35-.53.73-.22.91-.3-.82-.17-1.51.14-2.63.18.87.77-.22.98.16-.89-.37-.86-1.5-.22-2.8,1.34-.69.02-2.76.69-4.27.8.87,1.33,1.9,1.46,2.98.73-.89.27-1.13.99-2.04-.59-.67-1.57-1.27-1.72-2.68l.72.08c-.09-1.27-1.14-1.48-.66-2.94.2-.63.38-1.26.52-1.89.07-.32.14-.63.2-.94.05-.29.1-.58.15-.86.16-.9.22-1.76.28-2.52l.73-.34c-.8-.17-.95-.7-1.07-1.37-.14-.64-.25-1.45-.8-1.54,0-.29-.07-.55-.19-.76-.1-.23-.26-.4-.45-.53-.36-.28-.85-.34-1.28-.33-.89.02-1.53.3-1.9-.36-.8.48-1.45,1.07-2.01,1.64-.57.57-1.03,1.15-1.47,1.7l-.64.83c-.32.38-.64.79-.97,1.2-.66.82-1.34,1.67-2.04,2.55l-.39-1.23c.13,1.12-.81.08-1.15.84,1.22-.29.23,1.54.48,2.36-1.8,1.26-2.34,4.04-2.45,5.94l-.67-.25c.42,2.19-1.49,3.63-2.4,5.68-.35.14-1.14.33-1.24.99.78,1.46.54,2.05,1,3.72-.05.27-.1.58-.16.92-.07.33-.13.66-.19.98-.09.35-.1.61-.19.92-.03.36-.1.7-.15,1.02,1.18,2,2.1,4.05,3.18,6.13,1.09,2.06,2.37,4.13,4.22,5.67l-.44.79c2.16,1.23,3.93,2.91,5.7,4.17,1.72,1.28,3.51,1.96,4.39,1.43-.05.48-.12.96-.21,1.44.42.24.82.1,1.2-.29.34-.36.43-.85.19-1.32.22.09.5-.04.75-.15.26-.14.5-.24.76-.43.52-.36,1.02-.52,1.62-.22.57-.18.8-.51.97-.86.16-.38.26-.8.6-1.15,2.22-.98,2.91-1.72,4.29-3.57l-.46.35c.05.4.47.86.94.49.08-.23.28-.47.51-.72.21-.26.44-.52.6-.77.33-.5.38-.92-.56-1.13,1.16-.62,1.83-1.93,2.39-3.17.26-.63.5-1.24.82-1.78.25-.55.64-1.02,1.12-1.41-.49,0-.43-.51-.67-.8.06-.21.14-.42.23-.62.07-.2.12-.39.2-.58l.24-.58c.08-.19.09-.36.15-.54.04-.18.08-.36.12-.53,0-.05.02-.08.02-.15v-.23c0-.16,0-.31,0-.46-.03-.61-.12-1.19-.32-1.71.24-.42.79.67.85-.4-.18-.63-.61-.02-.87-.8-.83-4.25,1.04-8.39.79-12.08-.95-6.49-.84-13.15-2.27-18.69h.35c-.84-.81-.8-1.92-.85-3.01-.08-1.05-.24-2.08-1.44-2.34.17-.53-.48-1.49.25-1.49-.7-.45-.94-1.36-1.3-2.32-.21-.45-.4-.95-.72-1.34-.33-.36-.7-.72-1.22-.82.09.13.21.15.44.21-.14-.48-.42-.82-.7-1.16-.29-.33-.66-.54-1-.79-.72-.46-1.44-.83-2.13-1.56.23-.04.6.03.82-.24-.19-.45-.74-.4-1.22-.31-.48.07-.83.05-.74-.82-.43-.15-.56.67-.31.72-1.87-1.04-4.45-1.29-6.78-.95-2.36.33-4.54,1.26-6.58,2.38-1.72.26-2.13-.27-2.29-.67-.16-.39-.13-.57-1.07.68-.37-.15.19.62-.03.35-.34.5-.94.36-1.52.25-.57-.12-1.09-.19-1.14.42.88.61-.07.78.3,1.28-2.16.91-3.18.65-3.94,2.53l-.29-.47c-.13.64-.31,1.25-.57,1.79-.26.54-.57,1.03-.83,1.56-.56,1.01-1.02,2.05-.82,3.3-3.26,5-5.47,10.69-6.98,16.46-1.51,5.78-2.3,11.71-2.55,17.6-.51,5.79.03,11.63,1.34,17.01,1.35,5.38,3.46,10.34,6.46,14.82.13.7.25,1.25.38,1.7.14.44.32.77.53,1.07.42.61,1.1,1.03,2.32,1.78-.24.1-.4,0-.41.3.88-.79,1.6,1.23,2.52.49,3.05,2.59,6.58,4.01,10.53,5.22-.66-.07-1.27.71-.49.9l1.01-.49.04.35c.57-.01,1.27-.42.83-.92,2.54.4,5.06.69,7.53.83,2.41.11,5.09.02,6.53-.33.93-.25,1.94-.63,2.98-1.14,1.03-.55,2.09-1.16,3.11-1.94,2.06-1.5,3.98-3.43,5.64-5.59,2.04-1.7,3.81-5.11,5-7.72,2.77-3.3,5.11-6.82,6.71-10.62,1.59-3.77,2.47-7.96,1.82-11.9,0,0,.75.22,1.58.93.84.71,1.71,1.97,1.84,3.92Z"/>
    <path class="cls-2" d="M91.94,162.76c.66-.12,1.31-1.04,1.76.03-.55-.08-1.31.25-1.76-.03Z"/>
    <path class="cls-2" d="M103.64,132.95c-.17.04.09-.69.14-.87.15.46.73.68.48,1.27-.11-.52-.34-.3-.62-.4Z"/>
    <path class="cls-2" d="M98.19,125.05c.09-.11.29-.18.58-.21.27,0,.62.06,1,.16.74.21,1.55.67,2.02,1.13-1.06-.63-2.33-1.04-3.61-1.08Z"/>
    <path class="cls-2" d="M88.54,124.47c-1.01.06-.85-.31.41-1,.15.23-.23.6-.41,1Z"/>
    <path class="cls-2" d="M88.16,126.06c-.76.53-1.24.52-1.76.51.2.41,1.75-1.58,1.76-.51Z"/>
    <path class="cls-2" d="M74.49,139.68c-.17.37-.22,1.34-.9,1.4.54-.18.39-2.05.9-1.4Z"/>
    <path class="cls-2" d="M71.72,147.02c-.13.22-.25.28-.23.61-.39.35-.56-.25-.45-.64l.69.03Z"/>
    <polygon class="cls-2" points="114.31 113.36 114.96 113.99 114.45 114.13 114.31 113.36"/>
    <path class="cls-2" d="M62.91,123.56c-.12.85-.7.25-.83.33.31-.66.42.54.83-.33Z"/>
    <polygon class="cls-2" points="56 153.94 56.01 153.71 57.05 153.9 56 153.94"/>
  </g>
  <g>
    <path class="cls-2" d="M194.36,170.67c-.31,1.52,1.14-.46.03,1.08-.32-.33-.51-.72-.03-1.08Z"/>
    <path class="cls-2" d="M235.13,173.35c1.03,2.6.37,5.55-.65,8.33-1.02,2.81-2.37,5.48-2.79,8.34-.17.63-1.25-.78-1.57.66-.25,2.83-1.79,6.01-4.06,8.82-2.26,2.82-5.23,5.26-8.05,6.86l-.02-.56c-.52.32-.81.96-1.12,1.62-.3.67-.64,1.33-1.2,1.66-.18-.21.06-.56-.4-.67.29.87-1.55,1.7-1.66,2.49-.6,0-.92-.57-1.64-.54l-.12,1.17c-.29,1.5-1.5,2.04-2.8,2.37-1.35.3-2.71.35-4.04,1.09.11-.24.35-.45.1-.63-2.11,1-4.73,1.4-7.4,1.36-2.68-.02-5.4-.44-7.98-.89.29-.27.63-.81.44-1.25-.25.45-.78.63-1.42.67-.64.02-1.39-.11-2.09-.24-.22-1.18-2.6.03-3.91-1.21l.23-.15c-1.59.43-1.34-1.35-2.82-.69l-.28-1.09c-.59.49-.9.11-1.18-.39-.28-.51-.54-1.12-1.16-1.09l-.14.27c-1.01-.23-.96-1.15-1.82-1.47l.04-.18c-1.87-.99-2.22-2.41-2.93-1.55.04-.58.48-.31.9-.12.45.17.88.26.88-.59-2.89-1.72-5.36-4.19-7.35-6.99-2-2.8-3.51-5.93-4.71-9.11.17-.89.15-1.39.5-1.68-.46-.55-.95-2.32-1.66-2.76.08.21.44-.57.4-.92.12-1.27-1.5-1.01-1.31-2.44.41.46.81.56,1.18.3-1.14-.92-1.22-2.47-1.73-3.76.22.18.39.49.73.38-1.24-1.32-.11-2.69-.91-3.9l.7.42c.59-2.12-1.42-.49-1.08-2.33.23.42.48.25.75.31-1.31-1.6-1.02-4.37-1.35-6.06.09.1.27.08.27.08-.06-.92.02-1.86.09-2.82.05-.96.09-1.94-.07-2.98.36-.7,1.55.39,1.52-1.55-1.31-.08-.12-3.33-1.73-2.4.23-.82.59-1.86.84-2.84.28-.97.48-1.89.37-2.48.34.83,1.72-.46,1.57.91l.98-.84c.49.26-.38.99.34.81.06-.67.03-2.7.37-3.24-.45-1.39-1.63-2.94-1.15-4.99.2,1.08,1.54-.1,1.56.6-.53-1.16-1.01-2.34-1.47-3.54.17-.68,1.02.2,1.04-.86-.35-.07-.38-.55-.53-.95.22-.19.77-2.86,2.1-2.62.59-.08-.2,1.15.53.62.5-1.17.09-1.42.63-2.58l.17.05c.53-.67.58-2.5-.45-1.98-.3.52.79.14.08.77-.43-.88.1-2.33.71-3.5-.03.5.3.61.54.94-.07-2.03.63-3.83,1.39-5.74-.5-.36.53,1.24.1,1.31,1.03-.85,1.54-2.08,2.08-3.27.57-1.16,1.17-2.28,2.36-2.69-.15.34-.79-.42-.64-.33.89-.9,1.51-.26,1.81-1.09.44.3.59-.84,1.08-1.56.04-.58.33.03-.14.59.13-.28.38-.76.78-1.29.4-.53.91-1.16,1.5-1.78.62-.59,1.3-1.2,2.01-1.7.74-.47,1.48-.88,2.16-1.1-.25-.26.87-1.98,1.49-2.28l.15.84c.75.14,1.97-1.03,2.35-.45.44-.75-.71.02-1.75.79-1,.82-1.88,1.66-1.28.86.38.17.77-.43,1.12-.93.37-.48.67-.86.73-.28.59-.29,1.06-.81,1.61-1.17.55-.36,1.15-.63,1.87-.49-.4.01-.61,1.42.34,1.01,1.7-.67.37-.52,1.75-1.2.28-.19.56-.39.85-.55-.1-.78,1.7-.22.83-.95.18.31.84.04,1.49-.04.65-.08,1.24-.07,1.2.59l-.16,1.05c.77-.15,1.21-1.21,1.86-1.65.11.1.33.3.29.47.05-.78.56-.75,1.16-.68.61.06,1.29.29,1.84-.28,1.68.62,4.48.79,5.01,2,.36-.02.71-.05,1.07-.05.35.02.7.04,1.06.1.7.11,1.41.33,2.04.88-.35-.02-.76-.18-.98.08.67.88,1.05.61,1.99.83-.14.04.16.51.55,1.1.39.58.86,1.28,1.06,1.85,1.29.47,1.53-.43,1.97-.74-.02.98.76,1.49,1.68,2.04.82.59,1.77,1.25,1.61,2.3-.41-.29-1.79-1.07-1.41.01-.26.92.26,1.23.97,1.58.72.34,1.48.8,1.63,1.8l.9-1.02c-.12.57.36,1.11.71,1.58.36.47.6.86-.04,1.03.7.4.44,2.21,1.54,1.56.07,1.65.76,3.36,1.21,5,.2.82.36,1.61.34,2.34-.04.72-.23,1.38-.7,1.92.3.37.23,1.44.84,1.12.58-.81-.64-.88-.23-1.21.11.36.46.39.64.4-.14.96-.12,1.67-1.28.99-.46,2.07,2.43,1.75,2.22,4.38-.53-.06-.7.15-.55.88l1,1.34c-.08,1.66-1.11,1.01-1.98,1.12.22.85.22,1.91.9,2.27l-1.06,1.1c.77-.79.56.69.79,1.09l-.23-.4c-.36.17-.1,1.16.02,1.66.54-.13.74-1.15.87-1.72.41.43.34,1.12.8,1.7-.87-.17-.57,1.43-.67,2.11-.18.79.78.88.75,1.11-.45.02-.07,1.28-.7.67-.14-.26.43-.61.03-1.05-.33.52-1.1.47-.54,1.53.43.8,1.7-.21,1.16,1.32-.21-.4-.56-.48-.87-.79l-.45,1.43.78.06c-.2.19-.27.06-.37.15.83.43.24,2.18,1.16,2.51.07.72-.56,1.5-.66,2.18l-.07-.13c-.48.83-.19,1.93.33,2.63l-.17-.04c-.07.45.05,1.51.5,2.07-.6,1.12-2.97.37-1.98,1.62.04,1.14,1.46,1.76,1.95,1.3-.03.14-.05.23-.08.4-.03.18-.05.35-.07.53-.03.35-.05.71-.06,1.07.01.74-.05,1.44-.13,2.13-.11,1.43-.57,2.7-1.49,3.61.16.44.44.3.32,1.06-.21.41-.41.84-.6,1.28-.2.42-.4.84-.6,1.26l-.58,1.28c-.22.4-.44.8-.65,1.19-.43.8-.94,1.51-1.51,2.09-.28.3-.58.57-.9.8-.33.22-.68.4-1.05.54.39-.97-.57-.55-.92-.82.02,1.07-1.17.25-.45,1.27.58.41.79.71,1.64.14-.5.94-1.36,1.95-2.22,2.79-.89.81-1.82,1.41-2.46,1.55.64-.14.47.33.24.79-.63-.96-1.88-.12-2.59.88l.27.66-1.04-.14c-.26.42.42,1.52-1,1.58-.19-.2-.39-.39-.68-.45-.74,1.12-2.02,2.85-3.69,2.83-.51-.17-1-.36-1.47-.55-.53.31-1.57,1.12-.29,1.14-.7.02-1.35.03-1.93.04-.59,0-1.22-.05-1.7-.12-.49-.1-.91-.21-1.25-.36-.33-.17-.6-.36-.78-.6-2.49.81-5.54.22-8-1.01-2.49-1.24-4.52-3.05-6.06-4.77l.47-.26c-.49-1.22-1.11.16-1.42-.73.63-.04.19-1.4,1.27-1.1-.7-1.61-2.09-1.08-2.98-1.84-.64.28.9.45.08.8-.33,0-1.02-2.22-1.99-1.88.09-.59.9-.73,1.37-.78l-1-.58c.16-.86,1-.54,1.86-.29.86.26,1.74.42,1.98-.5-.22-.21-.42-.42-.64-.64.43-1.27,2.29,1.19,1.37-.79-.94-.46-2.63-.4-2.55.59-.67-.79-1.32-.68-1.93-.62-.62.06-1.23.08-1.75-.98.22-.84,1.03,1.56,1.55.74.18-1.32-1.45-1.67-1.63-2.67.14,1.13-1.21.8-1.68.21-.07-1.3,1.21.29.59-1.29-.65,0-1.69-1.33-1.52.12-1.5-.08-.36-1.83-1.64-2.42.71-.83,2.64.98,2.48-.97-.38.28-.87-.16-1.36-.55-.49-.38-1.02-.7-1.52,0,.03-.85.7-1.09,1.4-.71.12-.6-.44-1.14-.82-1.67-.37-.53-.58-1.02.29-1.36l-.98-.25c.12-.21.22-.45.34-.72.12-.26.28-.65.51-.99-.05-.6-.35-1.46-.47-2.22-.09-.71,0-1.28.69-1.15-.13-.35.3-2.56-.8-1.87-.81,1.37.47,1.72-.91,2.47.58-.51.59-1.05.46-1.58-.14-.53-.46-1.09-.55-1.53l.56-.03c-.12-.54.24-1.59-.25-2.02.21.44.62.33.84,0l-.68-.7c.15-1.96,1.5-.05,1.82-1.83.06.49.13.99.21,1.49-.05-.33.86-.68.88-1.55-.62-.55-1.26-1.44-1.71-1.91.05-1.07.94-.13.59-1.33.12.51.25,1.02.39,1.53.17.26,1.46-.38,1.93-1.57.07-.85-.39-2.49-1.3-1.44.25-.62,1.05-1.27,1.34-.56.39-1.45-.82-.16-.7-1.52.68-.27,2.04-1.41,3.15-1.9.16.58.33,1.16.52,1.73l.4-.75c.38,1.43.94-.12,1.6.91.42-.41.41-1.19.45-1.8-2.33.64-1.09-2.81-2.65-3.19.92-2.31,3.96.76,3.31-2.64-.57.11-.87-1.55-1.37-.03,1-1.14-.71-1.75.9-2.85-.27,1.45,2.1-.19,1.73,1.89-.34-.41-.94.62-.97.94.84-.15,1.2.99,2.07-.21.4-.82,1.17-1.81.42-2.18-.72-.52-.8,1.18-1.15.16.91-1.69,2.18-1.03,1.49-2.67-.69,1-1.59.65-2.06.25l.66-1.36.26.6c.46-.37.69-.63.77-.84.09-.22.12-.46.08-.65-.06-.4-.1-.83,1.33-2.1.65-.12,1.31-.15,1.93-.15-.03.36-.3.68-.64,1.05-.34.37-.77.75-1.16,1.11-.4.36-.74.72-.85,1.02-.12.3.02.47.38.68.29-.3.59-.69.83-1,.24-.32.43-.63.64-.93.39-.62.88-1.16,1.75-1.61-.27.41-.71.84-.96,1.24.3-.22.89.02,1.53-.01.65-.06,1.32-.29,2.21-1.67,1.04-1.21.17-.79.02-1.42.34-.22.65-.44.94-.65.29-.18.56-.34.81-.49.25-.16.49-.32.71-.46.23-.13.44-.24.64-.36.82-.49,1.55-.81,2.54-.98-.27.64.56.61,1.17.62.63.05,1,.09-.15.69-.2-.18-.6-.26-1.13-.31-.53,0-1.17.09-1.81.3-1.29.44-2.52,1.37-2.85,2.23.6.46.1.71-.56,1.06-.67.32-1.51.95-1.45,1.79.91-.66,1.45-.62,1.8-.27.35.33.54.89.76,1.28.4-.23.76-.85,1.01-1.16.1-1.02-.51-.67-.69-1.58.53-.21,1.05-.46,1.56-.66.51-.25,1.02-.44,1.51-.67.49-.24.97-.38,1.42-.61.46-.19.89-.37,1.28-.58.35.25.38.59.22.85-.16.26-.5.44-.95.52.34-.06.68-.06,1.02-.03.34,0,.67.09,1.01.16.34.08.68.14.98.31.3.16.64.28.9.51,1.14.8,1.86,2,2.23,3.23.17-1.25.54-.7.92-.01.3.72.63,1.54.92.6-.15-1.61-.24-3.47.7-3.21.45.93-.48.43-.5,1,.62.25.51.98.49,1.57,0,.6-.12,1.19.6,1.46-.55-1.32-1.02-1.09-1.39-.64-.37.46-.8,1.21-1.33,1.34.87,1.34-.69.41-.44,2.02.77,1.3,1.24,3.5,1.28,5.69-.17.34-.31.69-.41.93-.1.28-.18.57-.26.87-.14.6-.19,1.24-.24,1.87-.08,1.27-.07,2.53-.23,3.43-.75.81-1.83-.09-2.26.85-.25,1.16,1.52-.55.55,1.03l-.2-.22c.17.6-1.59,2.9,0,3.87l-1.17-.87c-.2.28.02.65.08.95-.43-.1-.91.16-1.05-.43-1.18.78-.46,2.2-.76,3.34l.98-.49c.03,2.11-1.13,3.16-1.46,5.09l-.73-.3.08,1.24c-.63-.5-1.42.33-1.02,1.11-.28-1.15-.57-2.29-.88-3.42.7-.64.62,1.15,1.51.9.78-.21,1.13-1.98.49-2.48-.28.63-.13.71-.02,1.3-1.11-.12-.75-1.09-1.3-1.79-.06.35-.53.73-.22.91-.3-.82-.17-1.51.14-2.63.18.87.77-.22.98.16-.89-.37-.86-1.5-.22-2.8,1.34-.69.02-2.76.69-4.27.8.87,1.33,1.9,1.46,2.98.73-.89.27-1.13.99-2.04-.59-.67-1.57-1.27-1.72-2.68l.72.08c-.09-1.27-1.14-1.48-.66-2.94.2-.63.38-1.26.52-1.89.07-.32.14-.63.2-.94.05-.29.1-.58.15-.86.16-.9.22-1.76.28-2.52l.73-.34c-.8-.17-.95-.7-1.07-1.37-.14-.64-.25-1.45-.8-1.54,0-.29-.07-.55-.19-.76-.1-.23-.26-.4-.45-.53-.36-.28-.85-.34-1.28-.33-.89.02-1.53.3-1.9-.36-.8.48-1.45,1.07-2.01,1.64-.57.57-1.03,1.15-1.47,1.7l-.64.83c-.32.38-.64.79-.97,1.2-.66.82-1.34,1.67-2.04,2.55l-.39-1.23c.13,1.12-.81.08-1.15.84,1.22-.29.23,1.54.48,2.36-1.8,1.26-2.34,4.04-2.45,5.94l-.67-.25c.42,2.19-1.49,3.63-2.4,5.68-.35.14-1.14.33-1.24.99.78,1.46.54,2.05,1,3.72-.05.27-.1.58-.16.92-.07.33-.13.66-.19.98-.09.35-.1.61-.19.92-.03.36-.1.7-.15,1.02,1.18,2,2.1,4.05,3.18,6.13,1.09,2.06,2.37,4.13,4.22,5.67l-.44.79c2.16,1.23,3.93,2.91,5.7,4.17,1.72,1.28,3.51,1.96,4.39,1.43-.05.48-.12.96-.21,1.44.42.24.82.1,1.2-.29.34-.36.43-.85.19-1.32.22.09.5-.04.75-.15.26-.14.5-.24.76-.43.52-.36,1.02-.52,1.62-.22.57-.18.8-.51.97-.86.16-.38.26-.8.6-1.15,2.22-.98,2.91-1.72,4.29-3.57l-.46.35c.05.4.47.86.94.49.08-.23.28-.47.51-.72.21-.26.44-.52.6-.77.33-.5.38-.92-.56-1.13,1.16-.62,1.83-1.93,2.39-3.17.26-.63.5-1.24.82-1.78.25-.55.64-1.02,1.12-1.41-.49,0-.43-.51-.67-.8.06-.21.14-.42.23-.62.07-.2.12-.39.2-.58l.24-.58c.08-.19.09-.36.15-.54.04-.18.08-.36.12-.53,0-.05.02-.08.02-.15v-.23c0-.16,0-.31,0-.46-.03-.61-.12-1.19-.32-1.71.24-.42.79.67.85-.4-.18-.63-.61-.02-.87-.8-.83-4.25,1.04-8.39.79-12.08-.95-6.49-.84-13.15-2.27-18.69h.35c-.84-.81-.8-1.92-.85-3.01-.08-1.05-.24-2.08-1.44-2.34.17-.53-.48-1.49.25-1.49-.7-.45-.94-1.36-1.3-2.32-.21-.45-.4-.95-.72-1.34-.33-.36-.7-.72-1.22-.82.09.13.21.15.44.21-.14-.48-.42-.82-.7-1.16-.29-.33-.66-.54-1-.79-.72-.46-1.44-.83-2.13-1.56.23-.04.6.03.82-.24-.19-.45-.74-.4-1.22-.31-.48.07-.83.05-.74-.82-.43-.15-.56.67-.31.72-1.87-1.04-4.45-1.29-6.78-.95-2.36.33-4.54,1.26-6.58,2.38-1.72.26-2.13-.27-2.29-.67-.16-.39-.13-.57-1.07.68-.37-.15.19.62-.03.35-.34.5-.94.36-1.52.25-.57-.12-1.09-.19-1.14.42.88.61-.07.78.3,1.28-2.16.91-3.18.65-3.94,2.53l-.29-.47c-.13.64-.31,1.25-.57,1.79-.26.54-.57,1.03-.83,1.56-.56,1.01-1.02,2.05-.82,3.3-3.26,5-5.47,10.69-6.98,16.46-1.51,5.78-2.3,11.71-2.55,17.6-.51,5.79.03,11.63,1.34,17.01,1.35,5.38,3.46,10.34,6.46,14.82.13.7.25,1.25.38,1.7.14.44.32.77.53,1.07.42.61,1.1,1.03,2.32,1.78-.24.1-.4,0-.41.3.88-.79,1.6,1.23,2.52.49,3.05,2.59,6.58,4.01,10.53,5.22-.66-.07-1.27.71-.49.9l1.01-.49.04.35c.57-.01,1.27-.42.83-.92,2.54.4,5.06.69,7.53.83,2.41.11,5.09.02,6.53-.33.93-.25,1.94-.63,2.98-1.14,1.03-.55,2.09-1.16,3.11-1.94,2.06-1.5,3.98-3.43,5.64-5.59,2.04-1.7,3.81-5.11,5-7.72,2.77-3.3,5.11-6.82,6.71-10.62,1.59-3.77,2.47-7.96,1.82-11.9,0,0,.75.22,1.58.93.84.71,1.71,1.97,1.84,3.92Z"/>
    <path class="cls-2" d="M194.88,168.89c.66-.12,1.31-1.04,1.76.03-.55-.08-1.31.25-1.76-.03Z"/>
    <path class="cls-2" d="M206.59,139.08c-.17.04.09-.69.14-.87.15.46.73.68.48,1.27-.11-.52-.34-.3-.62-.4Z"/>
    <path class="cls-2" d="M201.13,131.17c.09-.11.29-.18.58-.21.27,0,.62.06,1,.16.74.21,1.55.67,2.02,1.13-1.06-.63-2.33-1.04-3.61-1.08Z"/>
    <path class="cls-2" d="M191.48,130.6c-1.01.06-.85-.31.41-1,.15.23-.23.6-.41,1Z"/>
    <path class="cls-2" d="M191.1,132.19c-.76.53-1.24.52-1.76.51.2.41,1.75-1.58,1.76-.51Z"/>
    <path class="cls-2" d="M177.43,145.8c-.17.37-.22,1.34-.9,1.4.54-.18.39-2.05.9-1.4Z"/>
    <path class="cls-2" d="M174.67,153.15c-.13.22-.25.28-.23.61-.39.35-.56-.25-.45-.64l.69.03Z"/>
    <polygon class="cls-2" points="217.25 119.48 217.9 120.12 217.4 120.26 217.25 119.48"/>
    <path class="cls-2" d="M165.86,129.69c-.12.85-.7.25-.83.33.31-.66.42.54.83-.33Z"/>
    <polygon class="cls-2" points="158.94 160.07 158.95 159.83 159.99 160.03 158.94 160.07"/>
  </g>
  <g>
    <g>
      <path class="cls-2" d="M139.33,134.14c.57.82,2.22-.44.98.54-1.01-.11-1.79-.27-.98-.54Z"/>
      <path class="cls-2" d="M255.67,161.06c-3.31-1.26-3.32-2.73-3.1-4.28.25-1.54.8-3.17-1.43-4.42-.31-.31,3.61-.18,2.68-.87-1.33-.6-2.15-1.31-2.59-2.12-.45-.8-.53-1.69-.32-2.64.44-1.89,1.9-4.01,3.62-6l1.04.06c.63-.76-2.79-1.05-2.45-1.8.67-.11.99.07,1.88-.24-2.05.15-1.14-1.09-2.69-1.12.74-.4,2.34-.65,3.16-1.15h-2.36c-2.82-.05-2.82-.7-2.53-1.48.28-.77.88-1.67-.67-2.11.54-.04.98.02,1.47-.2-1.88-.83-2.81-1.98-3.54-3.2-.73-1.22-1.17-2.53-2.12-3.62.82-.11,2.3-.4,3.15-.78-2.4.5-3.21-.11-3.86-.66,2.33-.99-2.51-.53-1.41-1.67l.56-.09c-2.7.18,1.19-1.29-1.98-.83l1.78-.94c-3.46.81,1.5-1.38-.37-1.32l-.69.24c-.96-.18.66-.96-.05-1.18l.38-.17c-1.22-.66.45-1.86-2.15-.93,1.97-1.06,1.27.6,4.14-.98-.95-.58-1.7-1.21-2.31-1.9-.64-.67-1.13-1.4-1.54-2.15-.8-1.52-1.39-3.11-2.07-4.65.87-.81,1.07-1.17,1.98-1.68-.65-.08-1.02-.96-2.43-.63.1.08,1.18-.8,1.23-1.03.67-1.02-3.03.71-2.2-.44.78-.08,1.62-.39,2.5-.93-2.18.41-2.24-.41-3.17-.7.46-.12.79-.1,1.55-.52-2.52.46-.18-1.46-1.85-1.32l1.52-.54c1.21-1.87-3.08,1.31-2.51-.04.55-.05,1.06-.42,1.65-.7-2.97.66-2.81-.97-4.07-1.2.22-.07.58-.3.58-.3-.75-.61-.53-1.88-2.12-2.05.41-.69,3.35-2,2.33-2.52-2.65,1.77-2.02-.65-4.72,1.84-.01-.94.23-2.7-.96-2.5,1.2-.41,2.94-2.63,3.57-2.22l1.26-1.58c1.11-.71-.04.72,1.2-.39-.3-.24-1.98-.32-1.76-.89-1.99.65-5.24,2.43-6.16,1.89,1.27-.4,2.59-2.43,3.22-2.52-1.9.89-3.81,1.84-5.67,2.81-.33-.15,1.89-1.69.94-1.51-.63.57-1.16.75-1.77,1.09.19-.33-1.45-.49.78-2.69.82-.94.87-.05,1.45-1.07-.46-.44-1.27.27-1.73-.15l.3-.3c.05-.63-1.8.05-2.76,1.58.11.27,1.3-1.39.92-.46-1.53,1.06-2.34.92-2.78.54.5-.23,1.09-.84,1.78-1.41-2.34,1.2-3.46,1.22-4.76,1.41-1.03,1.09,2.08-1.79,1.63-1.12.31-1.15-.61-1.01-1.43-.88-.82.12-1.51.18-.88-1.28.28-.11-1.3,1.7-1.03,1.37-.26-.47,1.12-2.16.35-1.74.77-1.02-.6.06-1.1.17-.7.63.3-.55.63-.48-.53.29-1.47.54-2.22.46-.75-.1-1.36-.41-1.3-1.5-.46.72-2.21,2.26-2.33,2.06l1.12-1.63c.44-1.14-.77-.27.06-1.74-.84.92-.14.69.57.46.71-.22,1.46-.51.65.08.71-1.51-2.48,2.13-.95-.08-.48-.19-1.98,1.53-1.47-.31-.04.34,1.69-2.19,1.26-2.27-.81-.05-.64.72-1.45,1.02l-.68.55c-.9,1.7-.43-.48-1.17,1.54.63-1.46-1.26.49.15-2.38l1.15-2.23c-.37.03-1.57,2.19-2.23,3.11.06-.23.2-.73.37-1.09-.8,1.75-.91,1.6-1.02,1.35-.11-.24-.23-.6-.94.72-.05-1.44-1.28-.63-.78-2.99-.82.98-1.58,2.2-1.82,1.26.19-.32.36-.39.62-1.17,0-1.18-.37-.23-.8.28.1-.27.1-.86.04-1.56-.06-.68-.16-1.48-.21-2.19-.74,1.02-.99,3.08-1.31,4.32.2-1.9-.25-1.37-.68-.79-.43.56-.84,1.23-.84-.5.22-.5.95-1.76.71-2.75.07-1.9-.29-1.24-.67-.33-.39.91-.79,2.06-1.03,1.1l-.17,3.16c-.03-.99-.32-.57-.52-.3-.21.28-.36.43-.21-1.18-.29,1.13-.71-1.06-.79,2.01-.81-2.68-2.74,1.53-3.64-3.96-.18.51-.66,0-.52,1.58.36,1.69.4-1.24.55-.07-.17.1-.18.94-.18,1.36-.41-.69-.75-.89-.45-3.46-1-1.86-.73,5.26-1.88,4.11-.02-1.27-.14-1.75-.45-1.53l-.46,2.22c-.73-.45-.62-2.85-.8-5-.37.4-.87.33-.9,1.95l-.74-2.65c.54,1.91-.2,1.33-.32,1.88l.13-.55c-.17-.89-.57-.28-.76.01.21,1.32.72,1.8,1,2.16-.09.96-.42.78-.54,1.92-.16-2.11-.79-1.42-1.11-1.61-.41-.42-.13,1.93-.23,1.87-.16-1.09-.56-.1-.52-1.66.07-.36.41,1.01.47.03-.33-.77-.58-2.67-.85-1.22-.2,1.09.71,4.11-.14,2.89.09-.55-.01-1.38,0-2.15l-.8-.99.29,1.9c-.16-.47-.13-.64-.21-.89.15,2.02-.83.77-.54,3.04-.25.25-.86-1.18-1.2-1.34l.02-.17c-.58-1.04-.91-.22-.89,1.12l-.08-.41c-.22-.1-.58.3-.52,1.45-.81-1.3-1.99-6.99-1.92-4.52-.5.2.22,3.62.74,4.74-.57-.5-.87.07-1.19.43-.34.35-.66.55-1.54-.73.16.77.4,1.2.34,1.71-.69-.17-1,.62-1.42,1-.44.38-.92.45-2.2-1.03-.07-.87-.86-1.72-1.38-2.69.54,1.66-1.17-1.41.13,1.24.85,1.52,1.24,2.27,1.83,2.76-.17,1.09-.87,1.58-2.06.38.58.59.74,1.11.91,1.62-1.44-2.38-2.11-2.45-1.85-1.42l.92,1.43-1.18-1.3c.19.53,1.94,2.97.71,1.84-.4-.52-.81-1.04-1.15-1.39.5,1.34,1.64,3.46.45,2.58-.6-.57-1.22-1.13-1.84-1.69.03.31.83,1.62,1.49,1.96-1.44-.68-1.9-.51-3.55-1.89,1.35,2.3,1.92,3.72,1.95,4.63.09.98-.41,1.41-.91,1.86l-1-.77c-1.17-.39,1.7,1.44.84,1.13-.92-.79-2.32-1.27-3.36-2.36-1.43-.27,1.37,1.81,1.69,2.42,1.37.95-.75-.82.98.39.48.37-1.47-.07.63,1.32-.9-.41-2.43-1.46-3.26-2.06l.86.92c-1.37-.58-2.37-1.45-3.42-2.41-1.06-.95-2.15-2-3.83-2.73l.13.55c-2.46-1.03-1.95-2.51-3.27-2.07.8,1.06,3.76,3.21,4.9,3.47.17,1.08,4.95,3.33,4.41,3.93-1.4-.52-.02-.74-1.88-1.63-1.96-.64.62,1.26-.16,1.21,1.02.11,3.1,1.6,3.41,2-1.23-.2-1.99-1.33-2.48-.95,1.24.76,1.98,1.67,3.09,1.75,2.85,1.62-1.07.08,1.11,1.46-2.17-.81-4.58-2.86-5.9-2.76,2.06.88,2.42,2.01,5.56,3.09-.68-.07-2.29-.76-3.46-1.49-1.41-.22,3.37,2.4-.74.75l2.05,1.01c-.72-.19-1.29-.25-2.5-.55-.16.31,2.49,2.1-.71.83.29.23-.13.86,2.21,1.43,1.52.11-1.44-1.1,1.66-.16-2.56-.67.08.71.82,1.22l-1.26-.42c.43.32.06.56,1.38,1.12-.68-.36-1.56-.61-1.9-.6l1.86.82c.77.9-3.41-1.02-3.06-.24l-1.34-.95c.28.21-1.58-.18-1.08.31,1.57.65,3.83,1.57,5.1,2.09.67.55-2.05-.49-.32.4l-1.99-1.08c-.56-.25-3.02-.63-3.11-.12.52.5,2.96,1.7,4.06,1.52-.04.23-1.21.24-2.45-.31.46.7,1.93.48,2.91,1.24-1.23-.15-3.1-.05-4.93-.12l-2.85-1.3-.13.34c-2.27-1.09-1.9-.25-4.35-1.17-.47.15.33.69.93,1.1,4.23.31,5.36,2.18,9.13,2.86.8,1.11-9.19-1.51-3.59.78,1.01.06,3.74,1.12,2.8.32-.55.47,3.66,1.19,1.98,1.52-1.44-.83-3.9-.23-5.98-1.44,1.23.31,1.02-.22.69-.42-1.48-.06-3.74-.86-3.87-.22.28.47.25,1.02,2.21,1.33,2.15.41-.12-.63,2,.05.6.88-2.69.39,1.06,1.42-.2-.52,2.03-.21,3.5.09l.79.68-1.41-.37c-1.19.64,2.54.72,2.01,1.44l-2.89-.1c-2.41-.63,1.29-1.01-2.69-1.58-.28.52,1.71,1.06.6,1.4-.32-.17-.39-.35-.73-.53-.16.17-5.45-.5-2.5.83,1.13.61,1.4.34,2.88.58.31.97,1.78,1.45,1.93,2.05-2.9-.53-.41,1-3.31-.06,1.73-.09,1.78-1.36-.95-2.13-3.49-.2.6-.64-2.85-1.42-.2.74-3.58.17-5.82-.05-.19.2.71.56,1.04.74,2.08.41,2.09.12,4.24.44-.71.76.34,1.77,2.33,2.5-1.07.15-3.15-.21-3.31-.59.49,1.12.07,2.17-.68,3.09,3.49-.27.71,1.18,3.6,1.04.82-.44,3.3-.61,4.82-.17-.25.29-1.5-.17-2.25-.12,1.84.59-3.06.33-.14,1.02-1.03-1.03-4.17-.6-6.85-1.03,1.45.84-1.91-.22-1.97.47,1.43.84,2.54,1.79,3.05,2.59-2.63.77-.2,2.45-.15,3.3-1.39.38-4.43-.1-4.99.38.02.59,3.32-.27,1.87.53l-.6-.11c.7.29-2.13,1.52,2.25,1.95l-3.3-.4c-.3.15.45.33.79.48-1.08-.03-2.06.12-2.76-.17-2.3.47.32,1.17.39,1.76l1.97-.32c1.49,1.05-.46,1.67.22,2.66l-1.92-.06,1.14.6c-1.85-.17-3.06.36-1.51.68l-4.68-1.61c1.14-.41,2.31.51,4.2.27,1.65-.2,1.15-1.11-.7-1.3-.22.35.2.37.89.66-2.67.06-2.56-.47-4.33-.78.11.19-.71.44.13.5-1.3-.39-1.49-.77-1.53-1.39,1.02.45,1.66-.18,2.42,0-2.35-.11-3.05-.73-2.36-1.47,2.73-.44-1.69-1.5-.91-2.36,2.36.48,4.25,1.01,5.19,1.58,1.22-.49-.04-.61,1.18-1.09-1.77-.34-4.47-.67-5.5-1.45l1.76.06c-.85-.7-3.45-.86-2.91-1.67.94-1.39,1.05-2.87,1.39-3.95l1.75.12c-3.67-.95-1.21-2.16-2.76-3.16,1.85-1.21-1.28-3.3,1.8-3.62-.47-1.33-.94-2.61-1.16-3.87-.2-1.26-.11-2.52.46-3.76l2.41.96c-1.74-.84,1.49,0,1.22-.51-2.11.09-2.45-1.18-3.88-1.86,2.22-.72.43-2.69-.96-4.25l1.7.42c-2.85-1.95.25-2.47,1.22-3.59.74.07,2.38.36,2.32-.08-2.43-1.62-2.16-1.93-3.39-3.61.31-.79,1.46-1.8,2.8-2.14-1.17-2.22-.83-3.91-.14-5.47.62-1.59,1.58-3.03,1.53-5.21l1.86.93c-.43-1.31-.35-2.41-.02-3.36.36-.93,1.02-1.7,1.69-2.4.67-.71,1.48-1.29,2.08-1.97.6-.69,1.11-1.39,1.31-2.35l2.2,2.76c1.4.18.92-2.11-.88-3.85,1.43.2.88-2.93,3.14-1.03,1.17-.07.02-2.02.46-2.91,2.44-.1,2.89-.63,4.22-2.22l-.52.05c.2.78.94,2.09,1.44,2.05.13-1.19,2.66-.32.12-3.75.74.31,1.31.21,1.81-.06.51-.25.95-.69,1.41-1.1.92-.85,1.93-1.53,3.39-.31-.55-1.03-.17-1.4-.23-2.2.83-.35,1.86-.05,2.76.02.9.08,1.67-.07,2.07-1.16.4.49.1,1.99.78,1.94.28-.52-.37-1.45-.05-2.2,1.08-1.4,2.59-1.15,4.02-.66,1.46.45,2.8,1.26,3.92.79,1.89-1.38,3.99-1.87,6.02-2.05,2.04-.18,4.04-.08,5.91-.28l-.03.85c.3-.81.64-1.01,1-.93.35.08.7.43,1.16.76.86.65,1.62,1.1,2.38-1.3.33.82,1.39.45.99,2.06.7-1.09,1.52-.44,2.37.13.86.58,1.73,1.05,2.85-.17-.14-.11-.27.04-.51.36.7,1.09,1.51,1.08,2.38,1.07.86-.03,1.74,0,2.38,1.07-.28.3-.67.46-.94,1.26.11.87.73.13,1.25-.33.52-.46.94-.62.5,1.37.38.07.89-1.86.62-1.82.84.64,1.69,1.15,2.64,1.46.94.32,1.97.49,2.99.67,1.03.17,2.12.27,3.2.43,1.05.18,2.11.39,3.12.69.66,1.77-.29,3.27-.84,4.12-.56.86-.85,1.09.86.39-.28.75.95-1.24.52-.51,1.35-.47-1.46,4.48.2,3.02,1.23-2.18,1.11-.94,2-2.16.41,2.32-.75,4.28,1.43,3.54l-.89.98c1.74-1.03,2.62-.81,3.55-.69.92.13,1.88.18,3.81-.97,3.45,2.62,6.85,5.15,10.07,7.88,3.13,2.75,6.12,5.68,8.44,9.02.9,1.81,1.82,3.55,2.82,5.25.92,1.72,1.97,3.39,2.81,5.13.44.87.87,1.74,1.27,2.62.39.89.73,1.79,1.04,2.71.65,1.84,1.04,3.76,1.21,5.77-2.58,2.9-2.52,2.95-.53,4.34-.56.11-.71.03-1.17.33,2.71-.82.7,1.21,3.33.53.36,2.86,1.88,5.11,2.64,7.92-.41-.37-2.71.03-2.39.5l1.9.08-.74.29c.5.25,1.96.29,2.74-.32,1.08,1.62,1.57,3.39,1.83,5.2.23,1.82.12,3.69-.02,5.54-.18,1.86-.46,3.7-.55,5.5-.14,1.8-.13,3.56.29,5.27-1,1.79.35,3.99,1.09,5.74-3.3,5.69-6.18,10.3-3.49,15.55,0,0-7.34-.7-9.06-2.72Z"/>
      <path class="cls-2" d="M139.06,133.15c1.42-.17,2.2-.73,4.09-.26-1.33.04-2.83.33-4.09.26Z"/>
      <path class="cls-2" d="M154.32,119.11c-.42-.06.59-.14.83-.16.09.18,1.26.45.51.52-.09-.18-.76-.22-1.35-.36Z"/>
      <path class="cls-2" d="M155.55,115.68c1.25.21,2.15,1.07,2.25,1.51l-2.25-1.51Z"/>
      <path class="cls-2" d="M161.14,113.28c1.09-.09,1.66.07,1.57.41-.67-.08-.98-.25-1.57-.41Z"/>
      <path class="cls-2" d="M158.34,112.61c.01-.26.77-.27,1.5-.28-1.07-.17.58.7-1.5.28Z"/>
      <path class="cls-2" d="M163.21,106.94c-.06-.17-1-.75.39-.53-.99-.09,1.39,1.09-.39.53Z"/>
      <path class="cls-2" d="M162.12,103.67c.1-.07.34-.03.03-.24.6,0,1.43.45,1.51.62l-1.54-.37Z"/>
      <polygon class="cls-2" points="198.04 77.92 197.68 78.5 197.87 77.26 198.04 77.92"/>
      <path class="cls-2" d="M217.65,88.32c.8-.34-.67,1-.76,1.16-.3-.11,1.18-1.03.76-1.16Z"/>
      <polygon class="cls-2" points="231.37 95.38 231.28 95.3 233.46 93.92 231.37 95.38"/>
    </g>
    <g>
      <path class="cls-2" d="M139.34,128.19c.59.78,2.21-.43,1,.51-1.02-.11-1.8-.25-1-.51Z"/>
      <path class="cls-2" d="M32.74,148.67c-3.3-1.34-3.23-2.88-2.85-4.41.36-1.54,1.07-3.06-.93-4.63-.26-.35,3.6.33,2.78-.48-2.49-1.55-2.8-3.42-2.02-5.22.81-1.81,2.79-3.53,4.96-4.89l.98.34c.83-.51-2.4-1.75-1.83-2.35.67.1.92.36,1.86.34-1.99-.47-.75-1.33-2.21-1.86.83-.13,2.42.15,3.35-.03l-2.22-.76c-5.25-2.01.85-2.49-1.68-4.46.51.18.89.4,1.43.39-1.4-1.48-1.78-2.95-1.89-4.39-.08-1.44.13-2.86-.13-4.33.77.32,2.19.8,3.12.89-2.34-.76-2.7-1.73-2.96-2.56,2.51.39-1.85-1.85-.28-2.29l.52.23c-2.34-1.39,1.71-.45-1.13-1.89l2.01.22c-3.28-1.37,2.03-.3.49-1.35l-.7-.22c-.66-.75,1.1-.42.69-1.05l.4.1c-.53-1.33,1.57-1.23-1.04-2.17,2.21.42.58,1.32,3.81,1.88-.73-2.1-.64-4-.11-5.72.47-1.75,1.39-3.31,2.14-4.92,1.17.14,1.58.06,2.55.46-.33-.56.17-1.38-.92-2.33,0,.13,1.35.47,1.56.38,1.21-.05-2.33-2.08-.91-2.11.51.61,1.24,1.13,2.18,1.55-1.61-1.59-.88-2.1-1.12-3.07.34.34.49.62,1.25,1.04-1.7-1.92,1.17-.92.2-2.32l1.22,1.07c2.2.13-2.68-2.08-1.18-2.25.29.46.87.74,1.39,1.13-1.94-2.31-.32-2.99-.62-4.3.15.17.51.41.51.41.27-1.02,1.63-1.26,1.27-2.9.8.13,3,2.5,3.14,1.35-2.55-1.99.09-2.16-3.1-4.01,1.01-.37,2.83-.64,2.41-1.82.65,1.12,3.18,2.32,2.92,3.04l1.78.91c.91.93-.68.1.65,1.09.11-.34-.11-1.91.48-1.78-.99-1.81-3.17-4.84-2.65-5.94.5,1.26,2.67,2.34,2.81,2.97-1.07-1.8-2.09-3.64-3.08-5.51.18-.37,1.78,1.81,1.61.82-.59-.61-.76-1.16-1.09-1.79.34.18.68-1.72,2.87.61.93.85-.04.89,1.01,1.49.5-.45-.16-1.3.35-1.77l.28.32c.64.09.21-1.9-1.26-2.96-.32.13,1.27,1.41.33.99-.89-1.64-.54-2.59.03-3.07.1.55.64,1.21,1.1,1.98-.73-2.55-.29-3.8.05-5.31-.84-1.25,1.2,2.5.62,1.93,1.18.46,1.33-.59,1.6-1.48.26-.89.61-1.68,1.9-.68-.03.33-1.19-1.77-.96-1.42.7-.2,1.78,1.69,1.75.76.68,1.09.27-.65.49-1.21-.24-.92.41.48.13.8,0-1.23,1.47-4.24,3.65-3.22-.4-.75-.45-3.2-.07-3.26l.69,1.86c.77.95,1.01-.63,1.73.9-.13-1.25-.59-.49-.97.31-.38.8-.68,1.64-.63.6.91,1.41-.02-3.43.88-.89.59-.34.37-2.67,1.69-1.22-.3-.22.53,2.75.97,2.41.75-.69-.1-.98.39-1.87l.18-.93c-.65-1.81.92-.06-.17-1.95.66,1.45,1.06-1.42,2.01,1.63l.7,2.42c.32-.31-.23-2.73-.26-3.91.13.21.39.65.5,1.04-1.13-3.7,1.06,0,.67-2.98,1.26,1.02,2.28-.54,3.31,1.67.35-1.33.66-2.79,1.62-2.17-.07.38-.26.54-.11,1.36.74,1,.62-.02.92-.72.03.58,1.44,1.98,2.21,3.21.41-1.27-.2-3.25-.38-4.52.67,1.79,1.01,1.11,1.39.39.38-.72.79-1.5,1.45.14-.15.56-.66,1.99.04,2.85,1.17,3.65.76-2.96,2.01-1.31l-.67-3.09c.7,1.85,1.25-2.02,1.54,1.19.2-1.16,1.27.92.83-2.12.96,1.21,1.91.73,2.83.61.92-.14,1.78.21,2.4,2.93.2-.52.79-.02.61-1.59-.46-1.7-.48,1.25-.67.08.2-.1.21-.94.21-1.37.54.68.93.89.57,3.46,1.13,1.86.95-5.26,2.44-4.12-.02.64,0,1.07.07,1.33.06.25.2.32.48.23.33-.72.69-1.44,1.07-2.15,1.23.55.53,2.91.46,5.07.59-.35,1.24-.16,1.67-1.73.14.92.26,1.84.36,2.76-.24-2,.62-1.24.95-1.71l-.33.48c-.03.91.66.46,1.03.25.16-1.33-.42-1.97-.74-2.42.43-.89.86-.59,1.46-1.62-.5,2.07.69,1.63,1.09,1.96.4.56,1-1.71,1.14-1.6-.24,1.07.81.38.04,1.78-.25.3-.15-1.13-.66-.26.16.88-.34,2.72.66,1.53.77-.88.93-4.08,1.59-2.51-.4.43-.67,1.23-1.07,1.91.21.43.4.88.58,1.31l.58-1.83c-.02.5-.15.64-.16.9.85-1.86,1.55-.18,2.48-2.27.53-.02.52,1.61.86,1.97l-.14.13c.12,1.25,1.04.79,1.96-.21l-.18.38c.22.26.97.26,1.79-.62.1,1.64-2.79,6.69-1.08,4.84.64.24,2.58-2.66,2.85-3.89.33.89,1.2.8,1.94.95.74.13,1.4.46,1.17,2.05.56-.56.71-1.05,1.29-1.22.64.87,1.86.93,2.79,1.36.92.42,1.64,1.13,1.1,3.11-.92.3-1.18,1.51-1.84,2.39,1.39-1.1-.68,1.74,1.25-.5,1.03-1.4,1.59-2.04,1.58-2.94,1.5-.02,2.95,1.13,2.35,2.8.28-.82.81-1.07,1.35-1.29-1.86,2.05-1.52,2.91-.39,2.6l1.21-1.2-.86,1.57c.54-.23,2.6-2.41,1.97-.78-.42.5-.85,1.01-1.1,1.44,1.41-.55,3.79-1.55,3.28,0l-1.36,2.15c.4.03,1.84-.61,1.97-1.51-.21,1.93.19,2.62-1.16,4.33,5.24-1.94,7.55.52,8.66,2.77l-1.07.68c-.58,1.23,2-1.01,1.56-.11-1.11.52-1.85,1.91-3.36,2.35-.57,1.5,2.49-.29,3.3-.09,1.43-.85-1.15.18.66-.9.56-.24-.37,1.81,1.82.57-.7.74-2.35,1.59-3.27,2.04l1.33-.18c-2.12,2.13-5.24,1.57-7.88,4.14l.59.18c-1.98,1.79-3.14.62-3.28,2.05,1.3-.28,4.62-1.85,5.31-2.83,1.18.56,5.37-2.77,5.85-1.57-1.09,1.06-.82-.69-2.46.62-1.42,1.55,1.56.41,1.22,1.23.53-.98,2.96-1.86,3.55-1.75-.69,1.16-2.27.84-2.03,1.75,1.33-.6,2.71-.39,3.21-1.53,3.03-1.32-.29,1.29,2.18.52-1.89,1.37-5.13,1.75-5.68,3.18,1.88-1.22,3.25-.35,5.91-2.39-.38.67-1.91,1.52-3.25,1.91-.96,1.12,4.26-.65.41,1.54l2.12-.86c-.58.5-.96.97-1.93,1.78.17.45,3.46.11.33,1.54.39-.01.72,1.07,2.7-.32,1.01-1.27-1.92,0,.82-1.74-2.16,1.59.75.79,1.73.82l-1.18.62c.58.01.56.65,1.94.21-.78.13-1.56.6-1.78.91l1.96-.58c1.32.54-3.17,1.64-2.26,2.3l-1.73-.05c.37.02-1.24,1.05-.49,1.22,1.77-.56,3.95-1.09,5.34-1.49.96.22-1.84,1.02.13.81l-2.34.18c-.6.14-2.65,1.59-2.34,2.22.77.17,3.51-.1,4.2-1.16.16.34-.72,1.22-2.08,1.43.88.55,1.82-.81,3.14-.54-1.05.71-2.39,2.18-3.9,3.27l-3.15.37.13.45c-2.54.28-1.68.92-4.26,1.48-.29.42.68.46,1.42.52,3.65-2.24,5.76-.88,9.29-2.32,1.4.99-8.59,3.64-2.49,3.12.88-.51,3.86-.74,2.55-1.22-.15.92,3.83-.58,2.62.84-1.72-.25-3.48,1.83-5.97,1.49,1.24-.3.75-.82.36-.86-1.3.74-3.69,1.06-3.45,1.82.51.35.74.97,2.63.34,2.1-.62-.43-.67,1.78-.98,1,.77-2.17,1.81,1.68,1.19-.45-.54,1.67-1.3,3.12-1.7l1.08.51-1.44.24c-.69,1.46,2.64-.34,2.58.94l-2.64,1.26c-2.46.34.62-1.95-3.21-.7.03.76,2.08.49,1.25,1.44-.38-.07-.53-.25-.91-.32-.07.31-5.15,1.84-1.89,2.1,1.3.24,1.43-.19,2.89-.53.71,1.07,2.29,1.09,2.69,1.82-2.91.46.02,1.41-3.11,1.19,1.6-.73,1.05-2.43-1.77-2.19-3.3,1.22.28-1.02-3.21-.42.14.91-3.22,1.66-5.37,2.32-.1.27.87.28,1.25.34,2.09-.37,1.98-.68,4.1-1.19-.34,1.12,1.03,1.81,3.16,1.96-.95.55-3.04.86-3.33.51.87,1.05.79,2.39.36,3.61,3.27-1.31,1.03,1.13,3.77.17.66-.74,2.98-1.71,4.57-1.61-.15.44-1.49.24-2.19.53,1.95.21-2.84,1.26.17,1.29-1.28-.96-4.19.44-6.89.66,1.63.53-1.9.27-1.79,1.02,1.59.53,2.89,1.31,3.59,2.11-2.37,1.39.26,2.74.46,3.72-1.31.63-4.39.57-4.87,1.15.12.62,3.24-.75,1.94.3l-.61-.04c.75.23-1.94,1.84,2.45,1.82l-3.32-.06c-.29.19.48.3.84.42-1.07.08-2.04.34-2.76.11-2.25.7.43,1.14.56,1.76l1.93-.5c1.59.99-.29,1.79.4,2.79l-1.92.03,1.16.57c-1.86-.1-3.05.47-1.49.76-1.57-.49-3.15-.96-4.72-1.42,1.12-.46,2.33.39,4.21.07,1.64-.28,1.11-1.21-.75-1.28-.19.36.23.36.92.61-2.67.21-2.57-.33-4.37-.51.12.18-.68.46.16.47-1.32-.3-1.54-.64-1.64-1.22,1.06.35,1.64-.3,2.41-.18-2.35.06-3.1-.44-2.49-1.2,2.67-.69-1.79-1.24-1.14-2.09,2.41.13,4.35.43,5.33.89,1.16-.63-.09-.6,1.05-1.24-1.79-.12-4.52-.08-5.66-.66l1.74-.2c-.95-.54-3.54-.28-3.12-1.1.76-1.42.51-2.77.61-3.82l1.73-.29c-3.77-.02-1.64-1.67-3.43-2.14.72-.78.18-1.39-.17-1.95-.36-.56-.58-1.05.83-1.69-1.79-1.96-3.55-3.45-3.58-5.82l2.56-.36c-1.92.14,1.32-.68.84-.98-1.81,1.05-2.7.23-4.27.44,1.6-1.59-.91-2.16-2.88-2.34l1.63-.64c-3.37.31-1.06-1.65-1.01-2.91.62-.4,2.06-1.24,1.75-1.48-2.82.56-2.8.21-4.76.17-.26-.56-.04-1.79.62-2.85-1.17-.08-1.95-.32-2.54-.67-.59-.34-1.01-.77-1.37-1.23-.7-.94-1.35-1.92-2.96-2.23l1.6-1.3c-2.48.32-3.23-.59-3.86-1.61-.57-1.05-1.05-2.17-2.47-2.11l2.73-2.24c.37-1.19-1.64-.38-3.33,1.47.19-.58-.36-.55-.73-.64-.38-.08-.57-.3.3-1.47.01-.88-1.64.68-2.29.71.04-1.71-.49-1.84-1.73-1.94l.07.33c.57-.53,1.53-1.69,1.45-2.03-.93.52-.62-1.69-2.83,1.92.29-1.3-.54-1.27-1.26-1.31-.74,0-1.36-.08-.97-1.75-.52,1.03-.85,1.1-1.33,1.71-.39-.18-.49-.93-.72-1.41-.22-.48-.56-.76-1.27-.03.12-.58,1.03-1.68.75-1.93-.38.32-.63,1.36-1.12,1.85-.52.36-.86.34-1.11.14-.25-.19-.42-.6-.59-1.07-.32-.88-.68-2.02-1.27-1.85-1.2.84-1.99,1.03-2.55,1.06-.07,0-.14,0-.21,0-.01,0-.11,0-.2,0h-.27c-.36.01-.71.02-1.07.02-.71,0-1.4.03-2.08.15l-.02-.84c-.35,1.64-.91.88-1.48.3-.56-.57-1.11-.94-1.19,1.51-.3-.78-.85-.31-.89-1.93-.22,1.17-.76.73-1.37.36-.6-.37-1.26-.66-1.51.84.11.07.13-.11.17-.49-.68-.85-1.14-.58-1.58-.27-.45.3-.88.62-1.61-.09.03-.38.17-.68.01-1.51-.82-1.47-.15,3.68-1.38-.22-.23.1.34,2.03.45,1.87-1.34-.41-2.53.14-3.51,1.09-.97.98-1.84,2.15-2.69,3.09-2.54-1.54-2.89-6.21-2.93-2.89-.44-.66.59,1.44.21.69,0,1.23-2.77-3.69-2.19-1.6,1.27,2.16.4,1.37,1.09,2.72-1.69-.93-3.06-2.82-2.88-.7l-.6-1.18c.47,1.89.23,2.54.05,3.24-.18.7-.32,1.43.56,3.46-1.94,1.76-3.38,4-4.64,6.22l-.89,1.71-.45.83-.42.86c-.28.57-.58,1.12-.89,1.65-.28.57-.59,1.12-.91,1.65-.47.41-.87.89-1.24,1.4-.37.5-.73,1.01-1.07,1.54-.61,1.13-1.25,2.19-1.79,3.38-.29.58-.58,1.15-.91,1.72-.3.59-.61,1.17-.97,1.73-.74,1.11-1.51,2.28-2.6,3.32-3.7-.07-3.65.14-2.87,2-.51-.25-.59-.38-1.12-.47,2.63,1.04-.13,1.08,2.39,2.12-.58.92-.86,1.91-1.05,2.92-.17,1.04-.27,2.09-.57,3.15-.19-.41-2.37-1.21-2.32-.75l1.62.9-.78-.14c.33.39,1.61,1.05,2.56,1,.5,2.97-.91,5.4-2.42,7.98l-1.15,1.93c-.36.66-.7,1.32-1,1.99-.62,1.34-1.01,2.74-1.01,4.18-1.37,1.21-.43,3.3,0,4.81-4.11,4.05-7.34,8.25-4.71,12.92,0,0-7.32-.6-8.98-2.65Z"/>
      <path class="cls-2" d="M139.04,127.25c1.42-.18,2.18-.76,4.08-.34-1.33.08-2.81.38-4.08.34Z"/>
      <path class="cls-2" d="M152.31,110.58c-.42.04.53-.32.76-.41.13.19,1.34.2.63.48-.14-.19-.79-.06-1.39-.06Z"/>
      <path class="cls-2" d="M152.4,106.21c1.25-.18,2.4.55,2.65,1.08l-2.65-1.08Z"/>
      <path class="cls-2" d="M156.61,101.06c.96-.61,1.55-.65,1.63-.15-.65.19-1.01.1-1.63.15Z"/>
      <path class="cls-2" d="M153.75,101.44c-.1-.33.58-.67,1.23-1.01-1.04.27.85.63-1.23,1.01Z"/>
      <path class="cls-2" d="M154.7,91.55c-.17-.19-1.33-.3-.08-.97-.84.54,1.89.53.08.97Z"/>
      <path class="cls-2" d="M151.4,88.1c.02-.16.22-.3-.17-.32.44-.45,1.4-.54,1.6-.38l-1.42.7Z"/>
      <polygon class="cls-2" points="85.98 49.96 86.33 49.28 86.44 50.52 85.98 49.96"/>
      <path class="cls-2" d="M55.01,62.55c.1.9-.97-.76-1.14-.87.27-.35.81,1.33,1.14.87Z"/>
      <polygon class="cls-2" points="46.91 79.09 46.96 78.97 48.95 80.61 46.91 79.09"/>
    </g>
  </g>
</svg>