<?xml version="1.0" encoding="UTF-8"?>
<svg id="Layer_3" data-name="Layer 3" xmlns="http://www.w3.org/2000/svg" viewBox="0 0 300 300">
  <defs>
    <style>
      .cls-1 {
        fill: #202020;
      }
    </style>
  </defs>
  <g>
    <path class="cls-1" d="M151.61,127.51c-.56-.8-2.17.43-.96-.53.99.11,1.75.27.96.53Z"/>
    <path class="cls-1" d="M37.79,101.18c3.24,1.23,3.25,2.67,3.03,4.19-.24,1.51-.78,3.1,1.4,4.33.3.3-3.53.17-2.62.85,1.3.58,2.11,1.28,2.53,2.07.44.79.52,1.66.31,2.58-.43,1.85-1.86,3.92-3.54,5.87l-1.01-.06c-.62.75,2.73,1.03,2.4,1.76-.65.11-.97-.07-1.84.23,2-.14,1.12,1.06,2.63,1.1-.73.39-2.29.63-3.09,1.12h2.31c2.76.05,2.76.69,2.47,1.45-.28.75-.86,1.63.66,2.06-.53.04-.96-.02-1.44.2,1.84.82,2.75,1.93,3.47,3.13.71,1.19,1.14,2.48,2.08,3.55-.8.11-2.25.39-3.08.77,2.35-.49,3.14.11,3.77.64-2.28.96,2.45.51,1.38,1.63l-.55.09c2.64-.18-1.16,1.26,1.93.81l-1.74.92c3.39-.79-1.46,1.35.36,1.29l.68-.23c.94.17-.65.94.05,1.16l-.37.17c1.19.64-.44,1.82,2.1.91-1.93,1.04-1.25-.59-4.05.95.93.56,1.67,1.19,2.26,1.86.62.66,1.1,1.37,1.51,2.1.78,1.48,1.36,3.04,2.02,4.55-.85.79-1.05,1.15-1.94,1.64.64.08.99.94,2.37.62-.09-.08-1.16.79-1.21,1.01-.66,1,2.96-.7,2.16.43-.76.08-1.58.38-2.45.91,2.13-.41,2.19.4,3.11.68-.45.12-.77.1-1.51.51,2.47-.45.17,1.43,1.81,1.29l-1.49.53c-1.18,1.83,3.01-1.28,2.45.03-.54.05-1.04.41-1.61.69,2.91-.65,2.74.95,3.98,1.18-.21.07-.57.3-.57.3.73.6.52,1.83,2.08,2-.4.68-3.28,1.96-2.28,2.47,2.6-1.73,1.97.64,4.61-1.8.01.92-.22,2.64.94,2.45-1.18.4-2.88,2.58-3.49,2.17l-1.24,1.54c-1.09.69.04-.71-1.18.38.3.24,1.93.32,1.72.87,1.95-.63,5.13-2.38,6.03-1.85-1.24.39-2.53,2.38-3.15,2.46,1.86-.87,3.72-1.8,5.54-2.75.32.15-1.85,1.65-.92,1.48.62-.56,1.14-.73,1.74-1.07-.18.32,1.41.48-.77,2.64-.8.92-.86.05-1.42,1.05.45.43,1.24-.26,1.7.14l-.29.29c-.05.62,1.76-.05,2.7-1.55-.11-.26-1.27,1.36-.9.45,1.5-1.04,2.29-.9,2.72-.53-.49.22-1.06.82-1.74,1.38,2.29-1.17,3.38-1.2,4.65-1.38,1.01-1.07-2.03,1.75-1.6,1.09-.3,1.12.6.99,1.4.86.8-.11,1.47-.18.86,1.26-.28.11,1.27-1.66,1.01-1.34.26.46-1.1,2.12-.34,1.7-.75,1,.58-.06,1.08-.17.69-.62-.3.54-.62.47.52-.28,1.43-.53,2.17-.45.73.1,1.33.4,1.27,1.47.45-.7,2.16-2.22,2.28-2.02l-1.09,1.6c-.43,1.12.75.26-.06,1.7.82-.9.14-.67-.56-.45-.69.22-1.43.5-.64-.07-.69,1.48,2.43-2.08.93.08.47.18,1.93-1.5,1.43.3.04-.33-1.66,2.14-1.23,2.22.79.05.62-.71,1.42-1l.67-.53c.88-1.67.42.47,1.14-1.51-.61,1.43,1.24-.48-.15,2.32l-1.13,2.18c.37-.03,1.54-2.14,2.18-3.04-.06.23-.19.71-.37,1.07.78-1.71.89-1.57,1-1.32.11.24.23.59.92-.7.05,1.4,1.25.62.76,2.92.8-.95,1.55-2.15,1.78-1.24-.19.31-.35.38-.6,1.15,0,1.16.36.23.79-.28-.1.26-.1.84-.04,1.53.05.67.16,1.45.2,2.14.72-1,.97-3.02,1.28-4.22-.2,1.86.25,1.34.66.77.43-.55.82-1.21.82.49-.21.49-.93,1.72-.7,2.69-.07,1.86.28,1.21.65.32.38-.89.77-2.01,1.01-1.08l.16-3.09c.03.97.31.55.51.29.21-.28.35-.42.21,1.15.28-1.1.69,1.04.77-1.96.79,2.62,2.68-1.5,3.57,3.87.17-.5.65,0,.5-1.55-.35-1.66-.39,1.22-.53.07.16-.09.18-.92.18-1.33.4.67.73.88.44,3.39.98,1.82.71-5.15,1.84-4.02.02,1.24.13,1.72.44,1.5l.45-2.17c.72.44.61,2.79.78,4.89.36-.39.85-.33.88-1.91l.72,2.59c-.53-1.87.19-1.3.32-1.84l-.13.54c.16.88.55.28.75-.01-.2-1.29-.7-1.77-.98-2.11.09-.94.41-.76.53-1.87.15,2.06.77,1.39,1.09,1.57.4.41.12-1.89.23-1.83.16,1.06.55.09.51,1.62-.07.36-.4-.99-.46-.03.32.76.56,2.61.83,1.19.19-1.07-.69-4.02.13-2.83-.08.53.01,1.35,0,2.11l.78.97-.28-1.86c.16.46.13.63.21.87-.14-1.97.82-.75.53-2.97.24-.25.84,1.16,1.17,1.31l-.02.17c.57,1.02.89.22.87-1.1l.08.4c.21.1.57-.3.51-1.42.79,1.27,1.95,6.84,1.88,4.42.49-.19-.22-3.54-.73-4.63.56.49.85-.07,1.17-.42.33-.35.65-.54,1.51.71-.16-.75-.39-1.18-.34-1.67.68.17.98-.6,1.39-.98.43-.37.9-.44,2.15,1,.07.85.84,1.68,1.35,2.63-.53-1.62,1.14,1.38-.13-1.22-.83-1.48-1.21-2.22-1.79-2.7.16-1.07.85-1.55,2.02-.37-.57-.58-.73-1.09-.89-1.58,1.41,2.32,2.06,2.39,1.81,1.39l-.9-1.39,1.15,1.27c-.19-.51-1.9-2.9-.7-1.8.39.5.79,1.02,1.13,1.36-.49-1.31-1.6-3.39-.44-2.52.59.56,1.19,1.11,1.8,1.65-.03-.3-.81-1.59-1.46-1.92,1.4.66,1.86.5,3.47,1.84-1.32-2.25-1.88-3.64-1.91-4.53-.09-.96.4-1.38.89-1.82l.98.76c1.15.38-1.66-1.41-.82-1.1.9.78,2.26,1.24,3.28,2.31,1.4.26-1.34-1.77-1.66-2.37-1.34-.93.73.8-.96-.38-.47-.36,1.44.07-.61-1.29.88.4,2.38,1.43,3.19,2.02l-.84-.9c1.34.57,2.32,1.42,3.35,2.36,1.03.93,2.11,1.95,3.75,2.67l-.13-.53c2.41,1.01,1.91,2.46,3.2,2.03-.78-1.04-3.68-3.14-4.8-3.4-.16-1.05-4.85-3.26-4.32-3.84,1.36.51.01.72,1.84,1.59,1.91.63-.61-1.23.16-1.19-1-.11-3.03-1.57-3.33-1.96,1.21.2,1.94,1.3,2.43.93-1.22-.74-1.94-1.63-3.02-1.71-2.79-1.59,1.05-.08-1.09-1.43,2.12.79,4.48,2.8,5.77,2.7-2.01-.86-2.37-1.96-5.44-3.02.66.07,2.24.74,3.39,1.46,1.38.21-3.3-2.35.72-.73l-2.01-.98c.71.18,1.27.25,2.45.54.16-.3-2.44-2.05.69-.81-.29-.22.13-.85-2.16-1.4-1.49-.11,1.4,1.08-1.62.16,2.51.65-.08-.69-.81-1.19l1.24.41c-.42-.31-.06-.55-1.35-1.1.67.35,1.52.6,1.86.59l-1.82-.8c-.75-.88,3.34,1,2.99.24l1.31.93c-.28-.2,1.54.18,1.06-.31-1.54-.63-3.75-1.54-4.99-2.05-.65-.54,2,.48.32-.39l1.95,1.06c.54.25,2.95.62,3.04.11-.51-.49-2.9-1.66-3.97-1.49.04-.23,1.18-.24,2.4.31-.45-.69-1.89-.47-2.85-1.21,1.21.15,3.03.05,4.82.12l2.79,1.27.12-.33c2.22,1.06,1.86.24,4.26,1.14.46-.15-.32-.68-.91-1.08-4.13-.3-5.25-2.13-8.93-2.79-.79-1.08,8.99,1.48,3.51-.76-.99-.05-3.66-1.09-2.74-.31.54-.46-3.58-1.16-1.94-1.49,1.41.81,3.82.23,5.85,1.41-1.2-.3-1,.22-.68.41,1.44.05,3.66.85,3.78.21-.28-.46-.24-1-2.17-1.3-2.1-.4.11.61-1.96-.05-.59-.87,2.63-.38-1.03-1.39.2.51-1.99.2-3.42-.09l-.78-.67,1.38.36c1.16-.63-2.48-.71-1.97-1.41l2.83.1c2.36.62-1.27.99,2.63,1.55.27-.51-1.68-1.03-.59-1.37.32.17.39.34.71.52.16-.16,5.34.49,2.45-.81-1.11-.6-1.37-.33-2.82-.57-.3-.95-1.75-1.42-1.89-2.01,2.84.52.4-.97,3.23.06-1.69.08-1.74,1.34.93,2.08,3.42.2-.58.63,2.79,1.39.19-.73,3.5-.17,5.69.05.19-.2-.7-.55-1.02-.73-2.03-.4-2.04-.12-4.15-.43.69-.75-.33-1.73-2.28-2.45,1.05-.14,3.09.21,3.24.57-.48-1.09-.07-2.12.67-3.02-3.41.26-.69-1.16-3.52-1.02-.8.44-3.23.6-4.71.17.24-.28,1.47.17,2.2.11-1.8-.58,3-.32.14-1,1,1,4.08.58,6.7,1.01-1.42-.82,1.87.22,1.93-.46-1.4-.83-2.48-1.75-2.98-2.54,2.57-.76.2-2.4.15-3.23,1.36-.37,4.33.09,4.88-.37-.02-.58-3.25.26-1.83-.52l.59.11c-.68-.28,2.08-1.49-2.2-1.9l3.23.39c.3-.15-.44-.33-.78-.47,1.05.03,2.02-.12,2.7.17,2.25-.46-.32-1.14-.39-1.72l-1.93.32c-1.46-1.02.45-1.63-.22-2.6l1.88.06-1.11-.59c1.81.17,2.99-.35,1.48-.67l4.58,1.57c-1.11.4-2.26-.5-4.11-.27-1.61.19-1.12,1.09.68,1.28.21-.34-.2-.37-.87-.64,2.61-.06,2.5.46,4.24.76-.1-.18.69-.43-.13-.48,1.28.38,1.46.76,1.5,1.36-1-.44-1.62.18-2.36,0,2.3.11,2.98.71,2.31,1.44-2.67.43,1.65,1.47.89,2.31-2.31-.46-4.16-.99-5.08-1.54-1.19.48.04.59-1.15,1.07,1.73.34,4.37.65,5.38,1.42l-1.72-.06c.83.68,3.37.84,2.84,1.64-.91,1.36-1.03,2.8-1.36,3.86l-1.71-.11c3.59.93,1.18,2.11,2.7,3.09-1.81,1.18,1.26,3.23-1.76,3.54.46,1.3.92,2.55,1.14,3.79.19,1.24.11,2.46-.45,3.68l-2.36-.94c1.71.83-1.46,0-1.19.5,2.06-.08,2.4,1.15,3.8,1.82-2.17.71-.42,2.63.94,4.15l-1.67-.41c2.79,1.91-.24,2.42-1.19,3.51-.73-.07-2.33-.36-2.27.07,2.38,1.58,2.12,1.89,3.32,3.53-.31.77-1.42,1.76-2.74,2.09,1.14,2.17.81,3.83.14,5.36-.61,1.55-1.55,2.96-1.5,5.09l-1.82-.91c.42,1.28.35,2.36.02,3.29-.35.91-.99,1.66-1.66,2.34-.66.69-1.44,1.26-2.03,1.93-.59.67-1.09,1.36-1.28,2.3l-2.16-2.7c-1.37-.17-.9,2.07.86,3.76-1.4-.19-.86,2.86-3.07,1.01-1.15.07-.02,1.97-.45,2.85-2.39.1-2.83.62-4.13,2.17l.51-.05c-.2-.77-.92-2.04-1.41-2-.12,1.17-2.6.31-.12,3.66-.72-.3-1.28-.21-1.77.06-.49.24-.93.67-1.38,1.08-.9.83-1.89,1.5-3.32.31.54,1,.16,1.37.22,2.15-.82.34-1.82.05-2.7-.02-.88-.07-1.63.07-2.03,1.14-.4-.48-.09-1.94-.76-1.9-.27.51.36,1.42.05,2.15-1.06,1.37-2.53,1.12-3.93.64-1.42-.44-2.74-1.23-3.84-.77-1.85,1.35-3.9,1.83-5.89,2.01-1.99.17-3.95.08-5.78.27l.03-.83c-.3.79-.63.99-.98.91-.34-.08-.68-.42-1.13-.75-.85-.64-1.58-1.08-2.33,1.27-.32-.8-1.36-.44-.97-2.01-.68,1.07-1.49.43-2.32-.12-.84-.57-1.69-1.03-2.79.17.14.11.26-.04.5-.36-.68-1.07-1.48-1.06-2.33-1.05-.84.03-1.71,0-2.33-1.04.27-.29.65-.45.92-1.23-.17-1.7-2.53,2.89-1.71-1.02-.37-.07-.88,1.82-.61,1.78-.82-.63-1.66-1.12-2.59-1.43-.92-.32-1.93-.48-2.92-.66-1.01-.17-2.08-.26-3.13-.42-1.03-.18-2.07-.38-3.05-.68-.64-1.73.28-3.2.82-4.03.55-.84.83-1.07-.84-.38.27-.74-.93,1.21-.51.5-1.32.46,1.43-4.38-.19-2.95-1.21,2.14-1.09.92-1.95,2.11-.4-2.27.73-4.19-1.4-3.47l.87-.95c-1.71,1-2.56.79-3.47.68-.9-.12-1.84-.17-3.73.95-3.38-2.57-6.7-5.04-9.85-7.71-3.06-2.69-5.99-5.56-8.26-8.82-.88-1.77-1.78-3.47-2.76-5.13-.9-1.68-1.93-3.32-2.75-5.02-.43-.85-.85-1.7-1.24-2.57-.38-.87-.71-1.75-1.02-2.65-.64-1.8-1.02-3.68-1.19-5.64,2.53-2.83,2.46-2.88.52-4.24.54-.11.7-.03,1.14-.32-2.65.81-.68-1.18-3.26-.52-.35-2.8-1.84-5-2.58-7.75.41.36,2.65-.03,2.34-.49l-1.85-.08.72-.28c-.49-.24-1.92-.28-2.68.31-1.06-1.58-1.53-3.32-1.79-5.09-.23-1.78-.11-3.61.02-5.42.18-1.82.45-3.62.54-5.38.13-1.76.12-3.49-.28-5.16.98-1.75-.35-3.9-1.07-5.62,3.23-5.57,6.05-10.07,3.41-15.21,0,0,7.18.68,8.86,2.66Z"/>
    <path class="cls-1" d="M151.87,128.48c-1.39.16-2.15.71-4,.25,1.3-.04,2.76-.32,4-.25Z"/>
    <path class="cls-1" d="M136.94,142.22c.41.06-.58.14-.81.16-.09-.18-1.24-.44-.5-.51.09.18.74.21,1.32.35Z"/>
    <path class="cls-1" d="M135.74,145.57c-1.22-.21-2.1-1.04-2.2-1.48l2.2,1.48Z"/>
    <path class="cls-1" d="M130.27,147.92c-1.07.09-1.62-.07-1.54-.4.65.08.96.24,1.54.4Z"/>
    <path class="cls-1" d="M133.01,148.58c-.01.26-.75.27-1.46.27,1.04.16-.57-.68,1.46-.27Z"/>
    <path class="cls-1" d="M128.24,154.13c.06.16.98.73-.38.52.96.09-1.36-1.07.38-.52Z"/>
    <path class="cls-1" d="M129.31,157.32c-.1.06-.33.03-.03.24-.58,0-1.4-.44-1.48-.6l1.51.37Z"/>
    <polygon class="cls-1" points="94.17 182.51 94.52 181.95 94.34 183.16 94.17 182.51"/>
    <path class="cls-1" d="M74.99,172.34c-.78.33.65-.97.74-1.14.3.11-1.15,1-.74,1.14Z"/>
    <polygon class="cls-1" points="61.56 165.44 61.65 165.51 59.52 166.86 61.56 165.44"/>
  </g>
  <g>
    <path class="cls-1" d="M151.6,133.34c-.58-.77-2.16.42-.97-.5,1,.11,1.76.25.97.5Z"/>
    <path class="cls-1" d="M255.89,113.3c3.22,1.31,3.16,2.82,2.79,4.32-.35,1.51-1.05,2.99.91,4.53.25.35-3.52-.32-2.72.47,2.43,1.52,2.74,3.34,1.98,5.11-.79,1.77-2.73,3.45-4.85,4.78l-.96-.33c-.81.5,2.35,1.71,1.79,2.3-.66-.1-.9-.35-1.82-.34,1.95.46.73,1.3,2.16,1.82-.81.13-2.37-.15-3.28.03l2.17.74c5.13,1.97-.83,2.43,1.65,4.36-.5-.17-.87-.39-1.4-.38,1.37,1.45,1.74,2.88,1.85,4.3.08,1.41-.13,2.8.13,4.24-.75-.31-2.14-.79-3.05-.87,2.29.75,2.64,1.69,2.89,2.51-2.45-.38,1.81,1.81.27,2.24l-.5-.23c2.29,1.36-1.68.44,1.11,1.85l-1.97-.22c3.21,1.34-1.99.29-.48,1.32l.68.21c.65.74-1.08.41-.67,1.02l-.39-.09c.52,1.3-1.53,1.2,1.02,2.12-2.16-.41-.56-1.29-3.73-1.84.71,2.05.63,3.91.11,5.6-.46,1.71-1.36,3.24-2.09,4.82-1.14-.13-1.54-.06-2.5-.45.32.55-.17,1.35.9,2.28,0-.13-1.32-.46-1.53-.37-1.19.05,2.28,2.04.89,2.06-.5-.6-1.22-1.1-2.14-1.52,1.58,1.55.86,2.06,1.09,3-.34-.33-.48-.61-1.22-1.02,1.66,1.88-1.14.9-.2,2.27l-1.2-1.05c-2.15-.13,2.62,2.03,1.15,2.2-.29-.45-.85-.72-1.36-1.1,1.9,2.26.31,2.93.6,4.2-.15-.17-.5-.4-.5-.4-.26,1-1.59,1.23-1.24,2.84-.78-.13-2.93-2.45-3.07-1.32,2.5,1.95-.09,2.11,3.04,3.92-.99.36-2.77.63-2.36,1.78-.63-1.1-3.11-2.26-2.85-2.97l-1.75-.89c-.89-.91.66-.1-.64-1.06-.11.33.11,1.87-.47,1.74.97,1.77,3.1,4.73,2.59,5.81-.49-1.23-2.62-2.28-2.74-2.91,1.04,1.76,2.05,3.56,3.02,5.39-.18.37-1.74-1.77-1.58-.8.58.6.75,1.13,1.07,1.75-.34-.17-.67,1.68-2.8-.6-.91-.83.04-.87-.98-1.45-.49.44.16,1.27-.34,1.73l-.27-.31c-.62-.09-.21,1.86,1.23,2.89.31-.12-1.25-1.38-.32-.97.87,1.6.52,2.53-.03,3-.1-.54-.63-1.19-1.08-1.94.71,2.5.29,3.72-.05,5.2.82,1.22-1.17-2.44-.61-1.89-1.15-.45-1.3.58-1.57,1.45-.26.87-.59,1.64-1.86.67.03-.32,1.17,1.73.94,1.38-.69.2-1.74-1.65-1.71-.74-.67-1.07-.26.64-.48,1.18.23.9-.4-.47-.12-.78,0,1.2-1.44,4.15-3.57,3.15.39.73.44,3.13.07,3.19l-.67-1.82c-.76-.93-.99.62-1.69-.88.13,1.22.58.48.95-.3.37-.78.67-1.61.61-.59-.89-1.38.02,3.36-.86.87-.58.33-.36,2.61-1.65,1.2.3.21-.52-2.69-.95-2.36-.74.67.1.96-.38,1.83l-.17.91c.63,1.77-.9.06.17,1.91-.64-1.42-1.04,1.39-1.97-1.6l-.69-2.36c-.31.31.22,2.67.25,3.82-.13-.2-.38-.63-.49-1.02,1.11,3.62-1.04,0-.65,2.91-1.23-1-2.23.53-3.23-1.63-.34,1.3-.64,2.73-1.59,2.12.07-.38.25-.53.1-1.33-.72-.97-.6.02-.9.71-.03-.57-1.41-1.94-2.16-3.14-.4,1.24.2,3.18.37,4.42-.66-1.75-.99-1.09-1.36-.38-.37.71-.77,1.47-1.42-.14.15-.54.64-1.94-.04-2.79-1.15-3.57-.74,2.89-1.96,1.28l.66,3.02c-.68-1.81-1.22,1.98-1.51-1.16-.2,1.14-1.25-.9-.81,2.08-.94-1.18-1.87-.71-2.77-.6-.9.13-1.74-.21-2.35-2.86-.2.51-.77.02-.59,1.56.45,1.66.47-1.22.66-.08-.2.1-.2.92-.2,1.34-.53-.67-.91-.87-.56-3.38-1.11-1.82-.93,5.15-2.39,4.03.02-.62,0-1.05-.06-1.3-.06-.24-.2-.31-.47-.22-.33.7-.68,1.41-1.05,2.11-1.2-.53-.52-2.85-.45-4.96-.58.34-1.21.15-1.64,1.7-.14-.9-.26-1.8-.35-2.7.23,1.96-.61,1.22-.93,1.67l.33-.47c.03-.89-.65-.45-1-.25-.16,1.3.41,1.93.72,2.36-.42.87-.84.58-1.43,1.59.49-2.02-.68-1.59-1.06-1.92-.39-.55-.98,1.68-1.11,1.57.23-1.05-.79-.38-.04-1.74.25-.29.15,1.11.64.26-.15-.86.34-2.66-.65-1.5-.76.86-.91,3.99-1.55,2.46.4-.42.66-1.2,1.04-1.87-.21-.42-.39-.86-.57-1.28l-.56,1.79c.02-.49.14-.62.16-.88-.83,1.82-1.51.18-2.42,2.22-.52.02-.51-1.57-.84-1.92l.14-.12c-.11-1.22-1.02-.78-1.92.2l.18-.37c-.21-.25-.95-.25-1.75.61-.1-1.61,2.73-6.54,1.05-4.73-.63-.24-2.52,2.6-2.79,3.81-.32-.87-1.17-.78-1.9-.93-.73-.13-1.37-.45-1.15-2.01-.55.55-.7,1.02-1.26,1.19-.62-.85-1.82-.91-2.73-1.33-.9-.42-1.6-1.11-1.07-3.05.9-.3,1.16-1.48,1.8-2.34-1.36,1.07.66-1.7-1.23.49-1.01,1.37-1.55,2-1.54,2.88-1.47.02-2.88-1.11-2.3-2.74-.28.81-.79,1.04-1.32,1.26,1.82-2,1.49-2.84.38-2.54l-1.18,1.17.84-1.54c-.53.23-2.55,2.36-1.93.76.41-.49.83-.98,1.08-1.41-1.38.54-3.71,1.52-3.21,0l1.33-2.1c-.39-.03-1.8.6-1.93,1.47.21-1.89-.18-2.56,1.14-4.24-5.13,1.89-7.38-.51-8.47-2.71l1.05-.67c.57-1.2-1.96.98-1.53.11,1.08-.51,1.81-1.87,3.29-2.3.56-1.47-2.44.29-3.23.09-1.4.83,1.13-.18-.65.88-.54.23.36-1.77-1.78-.55.68-.72,2.3-1.55,3.2-2l-1.3.18c2.07-2.09,5.12-1.54,7.71-4.05l-.57-.17c1.94-1.75,3.07-.61,3.21-2.01-1.27.27-4.52,1.81-5.19,2.77-1.15-.54-5.26,2.71-5.72,1.54,1.06-1.04.8.67,2.41-.6,1.39-1.51-1.53-.4-1.19-1.2-.51.96-2.89,1.82-3.48,1.71.68-1.14,2.22-.82,1.98-1.72-1.3.59-2.65.38-3.14,1.5-2.96,1.29.28-1.27-2.13-.51,1.85-1.34,5.02-1.71,5.56-3.11-1.84,1.2-3.17.34-5.78,2.34.37-.66,1.87-1.49,3.18-1.87.94-1.1-4.16.64-.4-1.5l-2.08.84c.57-.48.94-.95,1.89-1.74-.16-.44-3.39-.1-.32-1.51-.38.01-.71-1.05-2.64.31-.99,1.24,1.88,0-.8,1.7,2.11-1.55-.73-.77-1.69-.8l1.16-.6c-.56-.01-.55-.64-1.9-.21.76-.13,1.53-.58,1.74-.89l-1.92.56c-1.29-.53,3.1-1.6,2.21-2.25l1.69.05c-.36-.02,1.22-1.03.48-1.2-1.74.55-3.86,1.07-5.23,1.46-.94-.21,1.8-.99-.13-.8l2.29-.17c.59-.13,2.59-1.56,2.29-2.17-.76-.17-3.43.1-4.1,1.13-.15-.33.7-1.2,2.03-1.4-.86-.53-1.78.79-3.07.53,1.03-.7,2.33-2.13,3.81-3.2l3.08-.36-.13-.44c2.48-.27,1.65-.9,4.16-1.45.28-.41-.67-.45-1.39-.51-3.57,2.19-5.64.86-9.09,2.27-1.37-.96,8.4-3.56,2.43-3.06-.86.5-3.77.72-2.5,1.19.15-.9-3.75.57-2.56-.83,1.68.24,3.41-1.79,5.84-1.46-1.21.29-.73.8-.35.84,1.27-.73,3.61-1.04,3.38-1.78-.49-.35-.73-.95-2.57-.33-2.05.61.42.65-1.75.95-.98-.75,2.12-1.77-1.64-1.16.44.53-1.63,1.28-3.05,1.66l-1.06-.5,1.41-.23c.67-1.43-2.58.33-2.52-.92l2.58-1.23c2.41-.34-.6,1.9,3.14.69-.03-.75-2.03-.48-1.23-1.41.37.07.51.25.89.31.07-.3,5.04-1.8,1.85-2.05-1.27-.24-1.4.19-2.83.52-.69-1.04-2.24-1.07-2.63-1.78,2.85-.45-.02-1.38,3.04-1.16-1.57.71-1.03,2.38,1.73,2.14,3.23-1.19-.27,1,3.14.41-.14-.89,3.15-1.63,5.26-2.27.1-.26-.85-.27-1.22-.34-2.04.36-1.94.66-4.01,1.16.33-1.09-1-1.77-3.1-1.92.93-.54,2.98-.84,3.25-.5-.85-1.03-.77-2.34-.35-3.53-3.2,1.28-1-1.1-3.68-.16-.64.72-2.91,1.67-4.47,1.58.14-.43,1.46-.23,2.14-.52-1.91-.2,2.77-1.24-.17-1.26,1.26.94,4.1-.44,6.74-.65-1.59-.52,1.86-.26,1.75-1-1.55-.52-2.83-1.29-3.52-2.06,2.32-1.36-.25-2.68-.45-3.64,1.28-.62,4.3-.56,4.76-1.12-.12-.6-3.17.74-1.89-.29l.6.04c-.74-.23,1.89-1.8-2.4-1.79l3.25.06c.28-.19-.47-.29-.82-.41,1.05-.08,2-.33,2.7-.1,2.2-.68-.42-1.12-.55-1.72l-1.89.49c-1.56-.97.28-1.76-.39-2.73l1.88-.03-1.13-.56c1.82.1,2.98-.46,1.45-.74,1.54.48,3.08.94,4.62,1.39-1.1.45-2.27-.38-4.12-.07-1.6.27-1.09,1.19.73,1.26.19-.35-.22-.35-.9-.6,2.61-.21,2.51.32,4.27.5-.12-.17.66-.45-.16-.46,1.29.3,1.51.63,1.6,1.2-1.04-.34-1.6.29-2.36.18,2.3-.06,3.03.43,2.43,1.17-2.61.68,1.75,1.21,1.12,2.05-2.36-.13-4.25-.42-5.21-.87-1.14.62.09.58-1.03,1.21,1.76.12,4.43.08,5.54.64l-1.71.19c.93.53,3.46.27,3.06,1.07-.74,1.39-.5,2.71-.6,3.73l-1.69.28c3.69.02,1.61,1.63,3.36,2.09-.7.76-.18,1.36.17,1.91.36.54.56,1.03-.81,1.65,1.75,1.91,3.47,3.38,3.51,5.69l-2.51.35c1.88-.13-1.29.67-.82.96,1.77-1.03,2.64-.22,4.18-.43-1.57,1.55.89,2.11,2.82,2.29l-1.6.63c3.3-.3,1.04,1.62.99,2.85-.61.39-2.02,1.21-1.71,1.44,2.76-.54,2.74-.2,4.66-.16.26.55.04,1.75-.61,2.79,1.14.07,1.91.31,2.48.65.58.33.99.75,1.34,1.2.68.92,1.33,1.88,2.89,2.18l-1.57,1.27c2.43-.31,3.16.58,3.77,1.58.56,1.02,1.02,2.12,2.42,2.06l-2.67,2.19c-.36,1.16,1.61.37,3.26-1.43-.19.57.36.53.72.63.37.08.56.29-.29,1.44-.01.86,1.6-.66,2.24-.7-.04,1.67.48,1.8,1.69,1.9l-.06-.32c-.56.52-1.5,1.65-1.42,1.99.91-.5.6,1.66,2.77-1.87-.29,1.27.53,1.24,1.23,1.28.73,0,1.33.07.95,1.71.5-1.01.83-1.07,1.3-1.68.72.38.52,2.82,1.95,1.41-.11.57-1.01,1.64-.74,1.89.37-.31.62-1.33,1.1-1.81.51-.36.84-.34,1.09-.13.25.19.41.59.58,1.05.31.86.66,1.97,1.25,1.81,1.18-.82,1.94-1,2.49-1.04.07,0,.14,0,.21,0,.01,0,.11,0,.2,0h.26c.35-.01.7-.01,1.04-.02.69,0,1.37-.03,2.04-.15l.02.83c.34-1.6.89-.86,1.45-.3.55.56,1.09.92,1.17-1.48.29.77.83.3.87,1.89.21-1.15.74-.72,1.34-.35.59.36,1.23.64,1.48-.83-.11-.07-.13.11-.17.48.67.83,1.12.57,1.55.26.44-.29.86-.6,1.57.09-.03.37-.16.67-.01,1.48.8,1.44.15-3.6,1.35.22.23-.1-.33-1.98-.44-1.83,1.31.4,2.47-.14,3.43-1.06.95-.96,1.8-2.1,2.64-3.02,2.49,1.51,2.83,6.08,2.86,2.83.43.65-.57-1.41-.2-.67,0-1.21,2.71,3.61,2.14,1.56-1.24-2.11-.39-1.34-1.06-2.66,1.65.91,2.99,2.76,2.82.68l.58,1.15c-.46-1.85-.23-2.49-.05-3.17.17-.69.31-1.4-.54-3.38,1.9-1.72,3.31-3.92,4.54-6.08l.87-1.67c.3-.54.59-1.08.85-1.65.28-.56.57-1.09.87-1.61.28-.56.57-1.09.89-1.61.46-.4.85-.87,1.21-1.37.37-.49.72-.99,1.04-1.5.59-1.1,1.22-2.14,1.75-3.31.28-.57.57-1.13.89-1.68.29-.57.6-1.14.95-1.7.73-1.08,1.47-2.23,2.54-3.25,3.62.07,3.58-.13,2.81-1.96.49.24.58.37,1.09.46-2.57-1.02.13-1.05-2.34-2.08.57-.9.84-1.87,1.03-2.86.16-1.02.26-2.05.56-3.08.19.4,2.32,1.19,2.27.74l-1.59-.88.76.13c-.33-.38-1.57-1.03-2.5-.98-.49-2.91.89-5.28,2.36-7.81l1.13-1.89c.35-.64.69-1.29.98-1.95.61-1.31.99-2.68.99-4.09,1.34-1.19.42-3.22,0-4.7,4.02-3.97,7.18-8.07,4.61-12.64,0,0,7.16.58,8.79,2.6Z"/>
    <path class="cls-1" d="M151.89,134.25c-1.38.18-2.13.74-3.99.33,1.3-.08,2.75-.37,3.99-.33Z"/>
    <path class="cls-1" d="M138.91,150.56c.41-.04-.52.32-.75.4-.13-.18-1.31-.2-.62-.47.13.19.77.06,1.36.06Z"/>
    <path class="cls-1" d="M138.82,154.84c-1.23.18-2.35-.54-2.59-1.06l2.59,1.06Z"/>
    <path class="cls-1" d="M134.71,159.88c-.94.59-1.51.63-1.59.14.63-.18.99-.1,1.59-.14Z"/>
    <path class="cls-1" d="M137.5,159.51c.1.32-.57.66-1.21.99,1.01-.26-.83-.61,1.21-.99Z"/>
    <path class="cls-1" d="M136.57,169.18c.17.18,1.3.29.08.94.83-.53-1.85-.52-.08-.94Z"/>
    <path class="cls-1" d="M139.8,172.55c-.02.16-.21.29.17.31-.43.44-1.37.53-1.56.37l1.39-.69Z"/>
    <polygon class="cls-1" points="203.8 209.87 203.45 210.53 203.34 209.32 203.8 209.87"/>
    <path class="cls-1" d="M234.1,197.55c-.1-.88.95.75,1.12.85-.26.34-.79-1.31-1.12-.85Z"/>
    <polygon class="cls-1" points="242.02 181.37 241.97 181.49 240.02 179.88 242.02 181.37"/>
  </g>
</svg>