<?xml version="1.0" encoding="UTF-8"?>
<svg id="Layer_3" data-name="Layer 3" xmlns="http://www.w3.org/2000/svg" viewBox="0 0 95 95">
  <defs>
    <style>
      .cls-1 {
        fill: #fff;
      }

      .cls-2 {
        fill: #ff5320;
      }
    </style>
  </defs>
  <g>
    <g>
      <path class="cls-1" d="M31.29,39.02c1.65-.56,3.09-1.64,4.13-3.08,3.01-4.19.61-9.45,9.68-11.81,2.81-.73,7.38,4.79,9.82,6.41,4.14,2.74,15.84-4.05,16.29,11.38.25,8.6-7.64,7-8.93,10.16-1.35,3.32,4.72,8.99.02,13.8-5.63,5.76-10.07-1.64-13.12-1.09-3.18.57-5.73,6.78-11.46,6.12-6.58-.76-5.73-12.89-6.55-13.74-.82-.85-8.01-6.32-7.37-11.01.58-4.2,4.96-6.27,7.47-7.13Z"/>
      <g>
        <path class="cls-2" d="M31.45,38.39c-.48.25.36.14-.29.23.03-.14.09-.25.29-.23Z"/>
        <path class="cls-2" d="M29.38,39.38c-.69.74-1.6,1.24-2.49,1.87-.89.61-1.74,1.42-2.05,2.4-.09.22-.33-.27-.52.25-.2,1.02-.51,2.21-.41,3.5.09,1.29.55,2.63,1.02,3.77l-.18-.06c.18.45.83.69,1.08,1.09-.06.05-.18-.06-.2.1.25-.04.64.62.91.66.05.21-.1.32-.01.57l.39.03c.97.14,1.25,1.38,2.25,1.86-.08.01-.19-.02-.17.08.75.44,1.5.95,2.26,1.61.28.42.31.97.4,1.43.08.48.16.95.24,1.41-.1-.06-.28-.11-.38,0,.29.06.43.62.54,1.11-.26.26.37.81.31,1.4l-.07-.04c.37.37-.06.66.36.93l-.17.31c.44.1-.08.65.21.95l.08-.03c.19.29.02.52.18.79l-.04.04c.31.65.26,1.12.55.99-.15.33-.35-.61-.56-.11.56,1.08,1.19,2.13,2.02,2.96.84.82,1.94,1.37,3.12,1.39.26.14.43.19.49.31.24-.02.91-.13,1.1-.3-.08.02.18.14.31.12.46,0,.38-.42.86-.46-.15.15-.18.27-.08.36.31-.38.83-.53,1.21-.85-.04.08-.13.16-.07.24.34-.48.87-.44,1.16-.85,0,.09-.02.17-.04.25.75-.26-.05-.44.55-.72-.09.14,0,.16.02.24.28-.63,1.07-1.19,1.43-1.69,0,.04.03.07.03.07.46-.48,1.02-.88,1.49-1.47.26-.11.22.39.72-.09-.27-.3.9-.81.33-.93.4-.22,1.04-.4,1.54-.51.23-.02.43-.03.58-.07-.3.15.28.45-.23.49.13.08.24.13.34.23-.06.13-.33-.05-.24.14.18-.06.87-.01,1.05.14.48-.06,1.09-.22,1.76.13-.38-.05-.03.45-.27.39l1.26-.07c.22.11-.1.28.25.38.03-.09.2-.07.33-.08.06.1.91.4.84.77.03.18-.39-.12-.21.13.4.21.48.09.89.26v.05c.24.19.85.13.61-.15-.18-.07,0,.23-.24.04.27-.16.73-.01,1.12.02-.14.04-.15.13-.23.23.61-.17,1.15-.22,1.67-.43-.01-.18-.16.37-.26.26.19.06.38,0,.56-.04.18-.05.36-.11.52-.24.32-.22.61-.36.96-.42-.07.09-.17-.18-.14-.14.32-.18.45.04.6-.17.11.12.23-.22.38-.43.03-.17.1,0-.06.17.09-.18.39-.53.7-.91.28-.4.62-.8.87-1.1-.09-.04-.07-.56-.04-.71l.19.15c.18-.1.17-.54.37-.52-.08-.21-.13.14-.19.49-.02.36-.18.67-.13.4.27-.04-.09-.8.17-.58.14-.34-.09-.72.18-1.01-.05.09.26.33.3.04,0-.53-.1-.16-.16-.59l-.09-.26c-.2,0-.01-.47-.24-.26.17-.08-.19-.73.17-.74l.3.03c-.07-.24-.38-.34-.55-.49.02-.04.06-.11.11-.11-.43.07-.1-.57-.52-.76,0-.53-.4-1.26-.22-1.6-.27-.34-.55-.66-.62-1.16.07.08.13.2.23.2.02-.33-.11-.36-.27-.62.09.04.04-.67.13-1.07-.23-.4-.43-.21-.59-.22.15-.24.06-.59-.07-.94-.11-.36-.16-.83.07-1.11.02.21.18.78.3.37.21-.21.19-.43.16-.73-.06-.3-.02-.68.3-.99-.14-.01-.28-.01-.42,0,.1-.06.18-.17.26-.29.08-.11.17-.22.25-.33.16-.21.3-.36.38-.19.13-.29.8-.42.54-.68,1.22-.39,2.36-1.26,3.15-.93.11-.11.44-.2.3-.33-.28-.08-.23.26-.37.17.11-.06.1-.16.09-.21.3-.05.52-.13.39.26.71-.08.35-.83,1.08-1.1.05.14.13.16.3,0l.19-.44c.38-.26.42.07.59.25.17-.22.43-.43.35-.66l.44-.06c-.33.05.02-.26.04-.4l-.03.13c.13.03.22-.29.27-.44-.16-.05-.33.21-.48.3,0-.15.1-.33.07-.54.18.16.37-.27.45-.46.12-.21-.12-.33-.09-.39.12.04.14-.35.25-.13.01.09-.18.14-.11.3.14-.12.34-.04.3-.4-.05-.27-.46-.05-.23-.48.04.14.13.18.2.3l.2-.43-.22-.06c.07-.05.08,0,.11-.03-.21-.17.06-.69-.23-.82-.02-.23.17-.48.2-.7l.02.04c.15-.27.06-.65-.11-.89h.05c0-.15-.05-.52-.19-.71.15-.41.83-.2.51-.62-.05-.41-.47-.58-.6-.41.07-.74-.44-1.45-.26-2.14-.11-.07-.15,0-.25-.18-.2-1.02-.95-1.78-1.03-2.59.23.17.19-.11.29-.2-.29-.08,0-.35-.33-.2-.14.15-.22.18-.14.44-.41-.37-.96-.88-1.11-1.18.06.16-.06.15-.19.13.22-.25-.11-.5-.43-.54l-.13.16-.09-.26c-.14.01-.27.31-.48.04.01-.08.02-.15-.01-.23-.36.03-.85.19-1.17-.04-.08-.11-.16-.23-.24-.34-.17,0-.45.14-.19.26-.6-.26-1.03-.3-1.23-.56-1.17.53-2.87.64-4.41.57l.05-.15c-.41-.15-.22.25-.51.14.14-.13-.3-.32.03-.47-.58-.18-.78.21-1.21.22-.09.18.35-.08.24.15-.08.07-.87-.28-1.04-.02-.15-.15.04-.32.15-.43-.14.03-.29.02-.44.03-.2-.23.13-.3.43-.38.3-.11.56-.23.38-.48-.11,0-.22,0-.33-.02-.22-.35.9-.17.15-.42-.35.05-.8.36-.51.58-.39-.07-.55.02-.72.14-.16.11-.35.19-.81-.09-.16-.29.76.39.69.06-.16-.21-.38-.3-.59-.37-.19-.07-.38-.12-.5-.26.26.32-.2.36-.43.25-.24-.37.38-.05-.06-.44-.18.07-.68-.18-.39.21-.42.15-.39-.47-.82-.45.04-.32.85-.09.47-.59-.1.26-.79-.24-.81.26-.13-.22-.01-.38.22-.39-.15-.35-.92-.2-.66-.65l-.26.12c-.02-.13-.09-.28-.12-.5-.21-.2-.93-.35-.65-.63-.1-.03-.58-.47-.57-.1.19.39.48.16.41.59-.01-.42-.46-.36-.71-.43l.07-.14c-.14-.04-.36-.27-.53-.2.14,0,.16-.12.1-.22l-.26.09c-.49-.25.16-.4-.3-.68l.43.11c-.09-.02-.1-.31-.35-.41-.21.11-.51.21-.67.3-.28-.09.04-.28-.31-.26.15,0,.3,0,.45,0,.09-.02,0-.45-.32-.65-.25-.08-.71-.01-.47.29-.15-.11-.3-.32-.1-.39-.38-.13-.07.22-.43.17-.05-.21-.31-.54-.46-.82.13-.1.29-.14.44-.2l-.22-.1c.4-.13-.07-.27.2-.48-.15-.11-.39-.06-.56-.03.18.31-.01.42-.18.54-.16.15-.28.29-.26.51-.13.04-.12-.19-.24-.4-.09-.2-.3-.25-.56.18.15.07-.1.5.31.25-.45.08-.17.51-.72.49.32-.29-.55-.3-.08-.72,0,.15.34.01.42-.05-.23-.11-.09-.44-.55-.3-.27.12-.65.26-.51.46.09.22.4-.17.31.13-.49.28-.72-.03-.76.46.31-.16.48.05.54.21l-.32.24v-.18c-.62.13-.07.33-.6.55l-.39-.17c0-.16.2-.23.37-.31.18-.07.33-.14.18-.33-.4.13-.38.43-.77.49.05-.07.15-.14.2-.21-.12.05-.57-.43-.88.18-.16.29.03.18.12.33-.47.39-.5.63-.73.9-.17-.3-.5.41-.45-.11.14,0,.36-.14.54-.33.2-.18.38-.4.37-.6-.41-.2.42-.24.36-.64-.48.24-.64-.07-.87-.24-.14.08-.2.26-.25.34.09.23.25.12.41.32-.55.26-.83.8-.88,1.16-.2.06-.36-.14-.22-.34-.4.57-.86,1.13-1.19,1.73.54-.22-.23.71.2.58.22-.3.61-.41.69-.17-.11.17-.16-.08-.27-.04.08.31-.49.25-.27.64.1-.64-.41-.3-.66-.52,0,.52-.2-.1-.37.35,0,.53-.05,1.15-.14,1.71-.49.6-.51,1.77-.78,2.41-.28.27-.51-.09-.72.23-.19.4.49-.14.05.39l-.04-.09c-.01.1-.18.36-.35.61-.17.25-.29.53-.13.76l-.21-.39c-.09.08-.08.23-.1.34-.1-.07-.27-.02-.23-.23-.43.16-.46.68-.75,1l.36-.05c-.38.68-.92.87-1.46,1.35l-.11-.19c-.09.12-.18.24-.28.35-.03-.23-.42-.14-.53.12.23-.34.43-.69.59-1.03.31-.07-.1.4.18.47.25.07.74-.41.66-.64-.2.15-.18.19-.28.38-.26-.19.04-.41.03-.69-.08.09-.28.14-.24.23.09-.27.25-.45.52-.74-.1.28.24.02.23.16-.17-.21.03-.54.38-.88.24-.04.32-.28.39-.54.08-.26.12-.55.28-.79.15.33.2.71.09,1.07.32-.25.23-.35.52-.63-.11-.26-.31-.5-.25-.99l.2.05c.06-.45-.21-.54.01-1.05.4-.87.64-1.86.91-2.59l.2.04c-.3-.55.34-1.42.46-2.04.64-.81,1.18-2.02,1.85-2.11,1.27-1.33,2.73-2.13,4.49-2.6l-.2.37c.24-.3.25.1.54-.03-.42-.12.33-.42.51-.66,1.14-.09,2.31.14,3.12.3l-.06.19c.88.03,1.48.83,2.15,1.43.03.13.04.38.26.53.59.05.76.24,1.44.54.39.34.95.96,1.25,1.4.86.46,1.6,1.08,2.3,1.59.38.27.58.38.93.48.35.09.75.13,1.18.1l.1.25c1.73-.37,4.13-.12,5.93-.22l-.2.39c.53.16,1.26.03,1.17-.27.54.18,1.49.09,1.76.52.56.27.78.07,1.29.25,1.08.73,1.48,1,2.4,1.82-.06-.08-.12-.17-.19-.24-.17-.03-.28.08-.1.31.41.24.91,1.33,1.05.7.52,1.18,1.59,2.54,1.5,3.77.11-.13.2.15.32.25.26,1.02.11,2.1.41,2.87-.05.16-.25-.23-.22.17.07.23.17,0,.26.28.08.4.12.8.13,1.2-.02.43-.07.87-.13,1.29-.03.42-.19.85-.28,1.26-.05.21-.1.41-.14.61-.07.2-.13.41-.19.6-.3,1.45-1.26,2.92-2.48,3.84-1.21.94-2.52,1.44-3.59,1.9v-.1c-.6.63-1.8.34-1.81,1.05-.07,0-.18.04-.24.07-.05.03-.1.03-.15-.06-.04.21-.12.23-.24.38-.11.15-.19.46.02.76,0-.06-.02-.09-.08-.16-.16.65.33,1.29.44,2.2-.07-.08-.16-.23-.26-.22-.06.4.67.66.29,1.02.08.2.27.07.22-.06.27,1.01.69,2.09,1,3.29.31,1.19.5,2.58.2,3.98-.47.93-.66.85-.76.79-.13-.08-.06-.13-.28.59-.14.06.11.16.02.13-.09.29-.32.42-.52.52-.21.09-.4.15-.43.38.33.06-.04.3.09.42-.43.39-.75.51-1.01.66-.26.15-.46.32-.71.68l-.04-.16c-.29.45-.72.82-1.19,1.13-.51.26-.96.58-1.41.89-1.16.33-2.4.21-3.47-.03-1.09-.26-1.99-.71-2.85-1.14-.84-.44-1.6-.89-2.28-1.24l-.48-.23-.4-.14c-.11-.03-.17-.01-.24-.04-.04.02-.03.04-.05.02-.12.05-.48.22-.84.5-.39.31-.8.67-1.25,1.11-.85.75-1.75,1.63-2.82,2.44-1.07.81-2.36,1.56-3.84,1.94-.73.21-1.51.28-2.27.28-.38-.02-.75-.02-1.14-.07-.41-.06-.82-.14-1.22-.28-.8-.27-1.58-.69-2.21-1.23-.63-.54-1.14-1.16-1.54-1.81-.39-1.39-.41-1.43-1.09-2.68.08.03.12.11.15,0-.34.05-.34-.9-.67-.93-.49-1.9-.83-3.6-1.05-5.46.07.29.35.4.29.06l-.25-.34.08-.07c-.07-.23-.26-.47-.34-.21-.09-.53-.17-1.07-.26-1.6-.01-.06,0,0,0-.02h0s.06.05-.09-.08c-.84-.76-1.7-1.61-2.5-2.5-.81-.89-1.57-1.83-2.28-2.85-.7-1.03-1.38-2.09-1.89-3.37-.17-.64-.39-1.41-.5-2.3-.05-.44-.02-.91-.02-1.36.05-.41.1-.81.19-1.18.83-2.11,2.35-3.51,3.84-4.55,1.53-1.03,3.11-1.78,4.82-2.54,0,0-.05.24-.26.57-.21.33-.57.74-1.2,1.13Z"/>
        <path class="cls-2" d="M32.02,38.1c.17.1.56,0,.39.33-.11-.12-.36-.18-.39-.33Z"/>
        <path class="cls-2" d="M38.8,30.34s.11-.11.15-.12c-.03.12.06.26-.05.32.03-.12-.05-.12-.09-.2Z"/>
        <path class="cls-2" d="M39.99,28.31c.08.11-.09.56-.21.81.06-.26.1-.56.21-.81Z"/>
        <path class="cls-2" d="M41.89,27.39c.21,0,.2.09.02.22-.06-.05-.02-.13-.02-.22Z"/>
        <path class="cls-2" d="M41.83,27.03c.15-.1.28-.06.4-.03-.07-.11-.32.26-.4.03Z"/>
        <path class="cls-2" d="M45.83,25.99c.05,0,.25-.06.27.11-.05-.12-.37.07-.27-.11Z"/>
        <path class="cls-2" d="M47.56,26.6c.05.05.06.09.16.1.07.13-.11.14-.2.09l.05-.19Z"/>
        <path class="cls-2" d="M61.23,51.8c0-.13.05-.26.1-.4l.1.12c-.08.09-.15.18-.2.28Z"/>
        <path class="cls-2" d="M57.22,66.93c-.24.05-.13-.16-.16-.19.2.02-.1.16.16.19Z"/>
        <polygon class="cls-2" points="46.9 65.58 46.96 65.52 47.12 65.78 46.9 65.58"/>
      </g>
    </g>
    <g>
      <ellipse class="cls-1" cx="45" cy="48.06" rx="9.72" ry="9.44"/>
      <g>
        <path class="cls-2" d="M45.15,38.09c-.23.06.12.26-.15.11.03-.12.08-.2.15-.11Z"/>
        <path class="cls-2" d="M44.24,38.29c-.34.38-.73.48-1.16.49-.41.07-.87.08-1.16.45-.08.06-.11-.4-.27-.24-.53.78-1.65.96-2.71,1.17l-.02-.13c-.2.04-.15.48-.33.56-.05-.06-.02-.13-.12-.18.11.22-.19.32-.14.5-.12-.02-.24-.16-.38-.17l.1.27c.21.65-.54.5-.59,1.02-.03-.05-.04-.12-.11-.13-.12.76-.64,1.35-.83,2.06-.07-.07-.21-.17-.33-.18.23.16.2.39.17.58-.31-.04.11.4-.11.54l-.05-.04c.23.26-.25.17.05.41l-.25.02c.36.19-.27.16-.1.36l.08.02c.06.15-.15.16-.11.29h-.05c.03.29-.21.4.1.46-.27.05-.07-.29-.46-.21.14.98.05,1.89.13,2.81-.11.12-.14.19-.26.23.08.08.11.34.29.4-.01-.03-.15.09-.16.14-.09.19.37.11.28.32-.1-.05-.21-.05-.32,0,.28.1.3.31.43.47-.06-.01-.1-.05-.2-.01.32.12.04.38.28.5h-.2c-.11.35.4-.05.36.23-.08-.04-.14,0-.21.03.39.1.42.48.64.64-.03,0-.07.02-.07.02.15.2.16.5.44.65-.02.13-.41.2-.2.4.31-.21.37.3.64-.06.06.22.18.57.37.62-.17,0-.29.37-.43.24l-.09.26c-.13.08-.05-.15-.17,0,.07.07.36.21.38.31.3-.01.72-.18.94-.02-.19,0-.24.34-.35.32.26-.06.52-.15.78-.24.08.05-.18.23-.02.25.06-.08.14-.08.23-.12,0,.05.34.18.14.49-.06.14-.16-.04-.17.13.14.1.23,0,.37.1l-.03.04c.06.11.36.07.38-.17-.06-.05-.1.2-.13.04.19-.13.37-.06.51.03-.08.02-.13.1-.2.17.35-.11.6-.09.86-.06.09-.15-.23.23-.22.13.16.39.72,0,.8.42-.05.01.08-.23.06-.19.12.08.02.31.15.27-.05.14.13,0,.24,0,.09-.08,0,.08-.09.06.19-.08.76-.08,1.02.19.02-.1.28-.3.34-.27l-.08.22c.03.15.24.04.21.23.22-.23-.65.08-.39-.08.01.2.37-.28.26.01.15.03.33-.19.44.04-.03-.04-.18.29-.05.3.22,0,.08-.1.26-.15l.12-.08c.04-.22.18.06.14-.2,0,.18.31-.06.25.29l-.06.29c.1-.02.18-.3.26-.42,0,.03.03.09.02.13.04-.44.22.05.34-.29.18.17.47.03.57.29.14-.14.26-.31.43-.22-.03.04-.07.06-.08.15.11.13.13,0,.22-.07-.02.07.23.23.38.37.13-.15.05-.38.04-.53.2.41.35-.33.58.02-.03.08-.17.25-.02.34.23.4.2-.38.46-.23l-.14-.34c.15.2.24-.28.32.09.03-.14.28.05.15-.29.43.16.71-.43,1.16.04.02-.08.16-.07.06-.23-.16-.14-.05.18-.13.07.04-.03,0-.12-.01-.17.13.03.22.01.25.33.32.08-.03-.63.29-.67.06.14.11.17.17.11l.02-.3c.2-.05.27.23.4.44.07-.09.2-.15.13-.33l.28.18c-.21-.13-.01-.18,0-.26v.08c.07.07.14-.05.17-.12-.1-.12-.24-.09-.32-.09-.02-.12.06-.15.05-.3.12.21.24.04.33,0,.11-.02-.05-.23-.02-.25.08.1.13-.09.19.1,0,.05-.13-.04-.11.08.11.04.24.21.24,0,0-.16-.33-.35-.09-.36,0,.08.06.16.09.25l.22-.02-.14-.17c.06.03.06.05.08.07-.12-.21.16-.23,0-.45.05-.07.24-.02.31-.06v.03c.17.02.2-.15.15-.31l.03.04c.05-.03.12-.15.07-.29.22,0,.67.51.56.2.09-.13-.18-.44-.33-.48.28-.11.16-.55.56-.56-.06-.08-.12-.09-.12-.18.29-.27.14-.8.67-.87.04.14.2.1.32.15-.14-.16.24-.02-.06-.19-.19-.07-.27-.12-.39-.06,0-.25.09-.55.32-.61-.11.03-.15-.04-.19-.1.29.12.41-.02.33-.18l-.18-.07.21-.02c-.05-.06-.38-.16-.17-.23.07.01.15.03.21.02-.12-.17-.33-.39-.15-.49l.3-.06c-.02-.07-.18-.19-.27-.1.2-.2.25-.35.51-.4-.56-.49-.55-1.02-.55-1.48h.15c.13-.13-.26-.04-.16-.13.14.03.3-.12.47-.04.15-.2-.28-.21-.36-.31-.19,0,.14.08-.11.08-.07,0,.11-.26-.18-.24.11-.06.32-.06.44-.06l-.16-.09c.31-.2.65.22,1.04.01l-.06-.11c.28-.16.39.25.44-.06-.16-.11-.59-.13-.7,0-.12-.23-.69.01-.72-.23.15-.1.09.18.31.09.21-.17-.19-.21-.13-.33-.08.14-.39.11-.46.06.1-.15.29.01.27-.17-.17.01-.33-.1-.41.06-.38.05.06-.2-.25-.2.24-.14.64,0,.72-.24-.23.1-.42-.12-.74.1.04-.09.23-.17.4-.17.11-.16-.53-.08-.07-.3l-.26.06c.06-.07.12-.13.22-.24-.02-.1-.45-.14-.08-.3-.05-.01-.13-.22-.34-.02-.09.19.25.05-.05.27.23-.21-.12-.15-.24-.17l.13-.08c-.07-.01-.09-.12-.25-.07.09-.01.18-.07.2-.12l-.23.07c-.18-.1.35-.24.2-.36.08,0,.15.02.23.03-.05,0,.12-.17,0-.21-.21.07-.46.16-.62.22-.13-.03.18-.16-.06-.13l.29-.03c.07-.02.25-.26.17-.38-.11-.04-.44.02-.46.2-.04-.05.02-.21.18-.25-.14-.09-.18.14-.36.11.08-.12.15-.37.24-.59l.38-.1-.06-.08c.31-.07.13-.19.42-.31,0-.09-.14-.09-.25-.1-.26.46-.65.23-.96.57-.24-.11.7-.83,0-.57-.05.11-.39.25-.18.28-.07-.15-.4.22-.39-.03.22-.02.22-.42.55-.46-.12.09,0,.16.05.16.08-.17.34-.29.21-.42-.1-.05-.21-.15-.36.03-.17.18.13.1-.1.23-.2-.09.03-.38-.34-.11.12.06-.04.27-.16.39h-.18s.14-.12.14-.12c-.09-.24-.26.18-.39,0l.14-.32c.23-.18.16.31.44-.06-.1-.11-.29.03-.32-.15.05,0,.09,0,.14,0-.03-.04.33-.56-.07-.42-.18.04-.13.11-.24.25-.23-.1-.39,0-.52-.06.22-.26-.2-.19.13-.37-.05.21.24.39.51.19.17-.37.12.16.42-.12-.15-.15.1-.44.23-.67-.04-.05-.15,0-.21.01-.17.18-.1.22-.25.43-.15-.19-.41-.21-.64-.09,0-.15.16-.34.25-.3-.27-.1-.51-.26-.7-.46-.04.43-.3-.06-.35.29.08.14.04.45-.11.57-.06-.06.09-.15.1-.24-.19.14.01-.38-.23-.12.27-.02.26-.41.45-.67-.25.08.11-.19-.06-.27-.25.08-.51.1-.72.08-.13-.36-.61-.23-.82-.28-.07-.18.11-.5,0-.59-.16-.03.01.4-.17.18l.04-.06c-.09.06-.37-.34-.54.14l.15-.36s-.09.03-.14.06c.02-.12,0-.25.08-.31-.09-.3-.32,0-.48-.03l.07.24c-.29.14-.44-.12-.71-.07l.03-.22-.17.12c.06-.21-.08-.36-.18-.18.15-.17.31-.35.47-.52.11.14-.16.25-.1.48.04.19.29.17.36-.03-.09-.04-.1,0-.19.08,0-.31.15-.28.25-.47-.05,0-.12-.1-.14,0,.12-.13.23-.14.4-.12-.13.1.03.2-.02.28.05-.27.24-.32.44-.22.08.34.44-.1.67.04-.17.24-.34.43-.51.5.11.17.16.03.27.2.12-.18.25-.47.49-.54l-.05.2c.21-.05.29-.33.5-.2.36.22.75.37,1.01.54l-.07.19c.34-.32.59.09.88.05.24.36.86.28.82.7.66.27,1.25.57,1.7,1.17l-.3.11c.24-.06-.07.18.05.24.07-.27.34-.08.54-.13.06.39.48.57.84.69l-.16.13c.49.02.4.53.54.87-.05.08-.18.23-.11.31.38.02.4.13.72.31.11.19.16.56.12.82.75.62.65,1.55,1.04,2.37l-.23.09c.59.81.13,1.89.26,2.62l-.39-.12c-.16.2.03.52.32.51-.15.2.08.61-.28.68-.13.21.11.33.11.53-.28.42-.33.58-.41,1.03l.06-.09c-.07-.08-.23-.15-.29-.05.06.2-.34.51.17.56-.45.31-.31,1.13-.9,1.32.13.04.09.15.14.24-.22.37-.73.54-.76.95-.09.01-.11-.23-.22-.1-.03.11.13.11.1.26-.14.33-.43.56-.73.73-.31.16-.63.3-.84.52-.7.89-1.8,1.38-2.75,1.83l-.03-.1c-.2.47-.9-.08-.99.54-.11-.07-.32.04-.31-.16-.21.31-.81-.03-1.14.34.04,0,.06-.02.09-.07-.43-.16-.75.22-1.2.03.04-.04.12-.08.12-.18-.17-.18-.36.43-.48-.03-.09,0-.06.24,0,.22-.93-.13-1.92.08-2.93-.01-.62-.44.14-.78-.47-.57-.02-.1-.08.17-.06.07-.24.07-.17-.58-.37-.4-.03.3-.14.12-.2.29-.34-.32-.32-.59-.71-.5l.08-.13c-.51.23-.83-.16-1.36.12-1.98-.98-3.8-2.37-4.94-4.35-.5-1.01-.88-2.05-1.14-3.14-.22-1.09-.27-2.23-.04-3.35.46-.48.46-.5.39-1.09.06.04.07.07.13.05-.33-.1.06-.39-.23-.52.26-.79.43-1.55.82-2.31-.03.14.18.31.23.16l-.11-.24.09.02c0-.12-.08-.3-.23-.25.39-1.03,1.11-1.9,1.94-2.57.82-.69,1.72-1.22,2.59-1.77.48-.15,1.05-.54,1.51-.83,1.65-.18,2.98-.08,4.5-.4,0,0-.21.86-.76,1.08Z"/>
        <path class="cls-2" d="M45.43,38.07c.04.17.2.26.06.48,0-.15-.08-.33-.06-.48Z"/>
        <path class="cls-2" d="M48.89,40.64s.02.08.02.11c-.05,0-.14.1-.14,0,.05,0,.07-.06.12-.12Z"/>
        <path class="cls-2" d="M49.65,41.18c-.09.12-.32.12-.42.08l.42-.08Z"/>
        <path class="cls-2" d="M49.98,42.15c-.02.14-.08.18-.15.12.04-.07.09-.08.15-.12Z"/>
        <path class="cls-2" d="M50.24,41.92c.06.04.03.13,0,.22.08-.1-.17-.04,0-.22Z"/>
        <path class="cls-2" d="M51.18,43.46s.18.02.08.15c.06-.1-.27-.04-.08-.15Z"/>
        <path class="cls-2" d="M51.82,43.98s-.01.05.04.06c-.03.08-.15.09-.18.06l.14-.12Z"/>
        <polygon class="cls-2" points="47 56.17 47.08 56.07 47.1 56.22 47 56.17"/>
        <path class="cls-2" d="M40.25,55.02c-.13.03.02-.15.02-.17.08.03-.13.13-.02.17Z"/>
        <polygon class="cls-2" points="36.99 52.74 37.01 52.77 36.75 52.92 36.99 52.74"/>
      </g>
    </g>
  </g>
  <g>
    <path class="cls-1" d="M39.72,45.44s-2,8,5,8"/>
    <g>
      <path class="cls-2" d="M40.24,45.59c-.06-.05-.25-.04-.11-.05.11.03.2.06.11.05Z"/>
      <path class="cls-2" d="M44.59,53.06c-.15.75-.29-.03-.46.44-.02.03.04-.42,0-.32-.19.58-.4.21-.48-.25l.03-.12c-.02-.09-.11.3-.14.23.01-.08.03-.11.04-.21-.05.23-.07.09-.12.26.01-.09.03-.28.04-.38l-.07.26c-.17.61-.11-.08-.25.23.02-.06.03-.11.04-.17-.2.35-.34.24-.51.35.03-.09.09-.25.11-.36-.09.27-.15.33-.2.37.07-.28-.14.24-.14.07l.02-.06c-.13.28.01-.18-.14.16l.06-.22c-.15.38.03-.22-.07-.04l-.03.08c-.06.08,0-.12-.04-.06l.02-.05c-.09.08-.03-.15-.15.15.08-.24.09-.08.21-.44-.28.23-.44.09-.6.01.04-.12.05-.16.11-.27-.05.05-.09.02-.18.16,0,0,.07-.15.07-.16.03-.12-.21.29-.17.15.06-.07.11-.15.17-.26-.16.2-.17.14-.24.19.03-.04.06-.06.11-.15-.18.21-.02-.09-.15.04l.11-.15c.08-.22-.23.31-.19.17.04-.04.08-.1.12-.16-.23.25-.22.11-.33.18.02-.02.05-.06.05-.06-.07,0-.04-.11-.18-.03.04-.08.29-.35.21-.33-.23.29-.17.06-.41.4,0-.08.03-.23-.08-.15.11-.09.29-.35.34-.35l.13-.18c.11-.11-.01.05.11-.09-.02,0-.16.08-.13.03-.18.14-.49.42-.57.41.12-.08.28-.3.34-.33l-.56.44s.21-.21.12-.16c-.07.07-.12.1-.19.15.03-.03-.13,0,.14-.26.1-.1.08-.03.16-.13-.03-.02-.12.06-.15.04l.04-.03c.03-.05-.16.05-.3.2,0,.02.16-.15.1-.06-.17.13-.25.13-.28.1.05-.03.13-.09.21-.15-.25.15-.36.16-.5.19-.14.11.26-.18.2-.11.14-.2-.38.08-.13-.17.03-.01-.2.15-.16.12,0-.04.2-.19.11-.15.12-.09-.05,0-.1,0-.1.05.06-.05.08-.04-.12.05-.38.05-.24-.14-.08.05-.33.15-.33.12l.2-.11c.11-.09-.05-.04.12-.15-.26.11.28,0,.07.07.16-.11-.35.13-.08-.03-.03-.03-.27.07-.1-.07-.03.03.29-.13.26-.15-.06-.02-.1.04-.19.04l-.1.02c-.2.11,0-.06-.21.08.16-.09-.14-.02.19-.19l.26-.13s-.29.11-.41.16c.02-.02.07-.05.11-.07-.4.2,0-.06-.31.07.11-.11-.05-.12.19-.26-.14.02-.29.06-.22-.02.04,0,.06,0,.15-.04.11-.08,0-.04-.07-.03.06-.02.22-.15.35-.24-.13.02-.35.13-.49.18.39-.2-.3.01.05-.18.06-.01.22-.03.31-.1.4-.19-.32.06-.15-.07l-.34.14c.2-.1-.23,0,.12-.13-.13.03.09-.1-.24.03.25-.18-.25-.15.34-.39-.06,0-.01-.04-.18.02-.18.08.14-.02.02.03-.01,0-.11.02-.16.03.07-.05.09-.08.38-.14.2-.12-.59.12-.48,0,.14-.04.19-.06.17-.07l-.25.03c.04-.06.32-.12.56-.18-.05-.01-.04-.04-.23,0l.3-.11c-.21.08-.15.02-.21.02h.06c.1-.03.03-.05,0-.05-.15.04-.2.09-.24.11-.11.01-.09-.01-.22,0,.24-.05.16-.08.18-.11.05-.04-.22.03-.21.02.12-.03.01-.04.19-.07.04,0-.12.05,0,.03.09-.04.3-.09.14-.08-.12,0-.47.12-.33.04.06,0,.16-.02.25-.03l.11-.07-.22.05c.05-.01.07-.02.1-.03-.23.04-.09-.05-.35,0-.03-.02.14-.08.16-.1h.02c.12-.05.03-.07-.12-.06h.05s-.03-.05-.16-.04c.16-.07.82-.16.54-.15-.01-.03-.41.02-.55.06.14-.09-.23-.1.1-.21-.09,0-.15.02-.2,0,.07-.1-.29-.16.14-.29.1.02.22-.03.35-.04-.2,0,.2-.05-.14-.02-.2.03-.3.03-.37.07-.11-.04-.13-.13.06-.18-.09.02-.15.02-.22.01.32-.03.36-.07.25-.09h-.2s.2-.02.2-.02c-.06,0-.41.02-.22-.02.07,0,.15-.02.21-.03-.16-.02-.43-.04-.27-.09l.28-.05s-.2-.03-.29,0c.17-.07.19-.11.43-.14-.61-.06-.64-.22-.6-.34h.15c.14-.04-.26-.01-.16-.04.14,0,.3-.03.47-.01.15-.05-.26-.05-.32-.08-.19,0,.12.02-.12.02-.07,0,.15-.07-.14-.07.11-.01.33,0,.45,0l-.14-.03c.34-.03.61.07,1.02.03l-.05-.02c.31-.02.34.06.45,0-.14-.02-.56-.04-.69-.02-.08-.05-.69-.02-.67-.08.17-.02.04.05.28.04.23-.03-.13-.06-.05-.08-.11.03-.4,0-.46-.02.14-.03.28.02.31-.02-.17,0-.29-.05-.41-.02-.38-.02.11-.05-.19-.07.27-.01.62.05.75,0-.26,0-.35-.07-.73-.05.08-.02.28-.02.44,0,.16-.02-.47-.08.04-.07l-.26-.02c.09,0,.15-.01.29-.03,0-.02-.36-.09.04-.07-.04,0-.02-.06-.3-.05-.17.03.2.05-.17.05.3-.01-.04-.05-.14-.08h.15c-.06-.01-.03-.04-.19-.05.09.01.19.01.23,0l-.23-.02c-.12-.06.41,0,.35-.04l.18.04s.18-.02.11-.04c-.21-.02-.47-.05-.64-.06-.09-.03.24,0,.02-.04l.25.05c.07,0,.35,0,.35-.04-.07-.03-.38-.08-.5-.05,0-.02.13-.04.28-.01-.07-.04-.23,0-.36-.05.14-.01.35-.03.56-.05l.35.06v-.02c.29.05.22,0,.52.04.05-.01-.05-.04-.13-.06-.49.01-.66-.1-1.1-.12-.11-.08,1.07.04.39-.08-.12,0-.45-.06-.32,0,.05-.04-.44-.06-.25-.1.18.05.45,0,.71.07-.15-.02-.11.02-.07.03.17,0,.44.04.45,0-.04-.03-.05-.06-.28-.08-.25-.02.02.04-.23,0-.08-.06.3-.03-.14-.09.03.03-.23.02-.4,0l-.1-.05.17.02c.13-.05-.3-.05-.25-.1h.33c.28.05-.13.08.33.11.02-.03-.21-.07-.09-.09.04.02.05.02.09.04.02-.01.63.04.28-.05-.14-.04-.16-.02-.34-.04-.05-.06-.22-.1-.24-.15.34.05.04-.06.38.02-.2,0-.19.09.13.14.4.02-.06.04.34.09.01-.04.41,0,.67.02.02,0-.09-.03-.13-.05-.24-.03-.24-.02-.49-.04.07-.04-.06-.11-.29-.16.12,0,.36.03.38.05-.06-.07-.02-.13.06-.18-.4-.02-.09-.08-.42-.1-.09.02-.38,0-.55-.03.03-.02.17.02.26.03-.21-.06.35,0,.01-.06.12.08.48.08.79.13-.17-.06.22.03.22,0-.17-.06-.3-.13-.36-.18.3,0,.03-.14.03-.19.16,0,.51.08.57.06,0-.03-.38-.04-.21-.06l.07.02c-.08-.03.25-.04-.25-.15l.37.08s-.05-.03-.09-.04c.12.02.24.03.31.06.26.02-.03-.07-.03-.1l-.23-.02c-.16-.09.06-.08,0-.15l.22.05-.12-.06c.21.05.35.05.18,0l.52.19c-.13,0-.26-.08-.47-.11-.19-.03-.14.03.07.08.03-.01-.02-.02-.1-.05.3.06.29.08.49.13-.01-.01.08,0-.01-.03.14.05.16.07.17.1-.11-.04-.19-.03-.27-.05.27.05.34.1.26.12-.31-.03.19.1.1.13-.27-.06-.48-.12-.59-.17-.14,0,0,.03-.14.03.2.05.51.11.63.17l-.2-.03c.1.05.39.1.33.13-.11.05-.12.12-.15.16l-.2-.03c.43.09.15.12.33.18-.2.04.17.16-.18.15.14.13.28.24.2.35l-.29-.05c.21.04-.17,0-.13.02.24,0,.3.05.48.08-.23.03.01.12.21.18h-.2c.38.06.04.09-.03.15-.08,0-.27,0-.25.02.33.05.3.06.51.11,0,.03-.08.08-.21.11.46.13.16.25.44.37h-.24c.52.12.06.28.33.37l-.41.02c-.12.04.11.07.4.04-.12.04.2.06-.13.11-.07.04.19.02.25.04-.14.07-.11.1-.02.14l.02-.02c-.09,0-.26.02-.29.04.12,0-.1.09.38.01-.27.1.25.11-.12.22.13-.03.16-.01.25-.02.01.05-.25.15-.02.16-.06.02-.22.03-.23.05.05,0,.17-.03.25-.03.26.03-.21.21-.13.27.29.06.18.24.26.33l-.09.03c.37-.09-.32.21.22.05-.08.04-.03.05-.21.11.26-.07-.2.18.13.09,0,0-.01,0-.05,0-.18.13.1.05-.06.18-.04.01-.07.02-.16.05-.16.1.39-.13-.03.08,0,0,.22-.09.2-.09-.12.18.22.14.35.16-.2.21-.67.42-.34.29-.07.05.15-.09.07-.04.12-.05-.42.32-.21.2.24-.16.14-.08.29-.17-.13.14-.34.31-.14.22l-.13.08c.37-.2.23-.04.64-.31.22.1.51.06.69.09.04.08.11.12.19.15.09.02.16.06.2.23-.12.39-.11.38,0,.26-.03.06-.03.07-.05.13.12-.3.05-.01.16-.3.04.1.15.02.23.04-.02.03-.11.29-.09.27l.08-.2-.02.09s.08-.2.1-.3c.27-.25.29.5.58.42.04.14.14.02.21-.04.14.45.33.82.54.53,0,0-.03.84-.13,1.03Z"/>
      <path class="cls-2" d="M40.26,45.64c-.16-.03-.25-.02-.46-.09.15.03.32.06.46.09Z"/>
      <path class="cls-2" d="M38.47,46.12s-.07,0-.09,0c-.01-.01-.15-.04-.06-.04.01.01.09.02.16.04Z"/>
      <path class="cls-2" d="M38.34,46.32c-.15-.02-.25-.08-.27-.11l.27.11Z"/>
      <path class="cls-2" d="M37.72,46.45c-.12,0-.19,0-.18-.03.08,0,.12.02.18.03Z"/>
      <path class="cls-2" d="M38.05,46.5s-.09.02-.17.02c.12.01-.07-.05.17-.02Z"/>
      <path class="cls-2" d="M37.59,46.92s.13.04-.03.04c.11,0-.18-.07.03-.04Z"/>
      <path class="cls-2" d="M37.79,47.14s-.04,0,0,.02c-.07,0-.17-.01-.19-.02h.18Z"/>
      <polygon class="cls-2" points="38.89 50.94 38.82 50.94 38.95 50.89 38.89 50.94"/>
      <path class="cls-2" d="M39.81,52.5c.09-.04-.09.1-.11.12-.03,0,.14-.11.11-.12Z"/>
      <polygon class="cls-2" points="40.98 52.64 40.97 52.64 41.16 52.41 40.98 52.64"/>
    </g>
  </g>
</svg>