<?xml version="1.0" encoding="UTF-8"?>
<svg id="Layer_3" data-name="Layer 3" xmlns="http://www.w3.org/2000/svg" viewBox="0 0 95 95">
  <defs>
    <style>
      .cls-1 {
        fill: #202020;
      }
    </style>
  </defs>
  <g>
    <path class="cls-1" d="M65.63,47.55c-.12-.47-.22.3-.15-.29.12.05.22.12.15.29Z"/>
    <path class="cls-1" d="M65.12,45.72c-1.03-1.33-.81-3.45-1.8-4.89-.09-.17.41-.08.18-.47-1.11-1.32-1.68-3.77-2.27-5.72l.16.05c-.11-.37-.65-.61-.82-.96.07-.04.16.05.21-.08-.26.03-.47-.56-.71-.62,0-.18.16-.27.14-.5l-.35-.05c-.86-.19-.84-1.29-1.61-1.81.08,0,.16.04.17-.06-1.17-.84-2.23-2.2-3.51-3.07.11-.03.27-.13.27-.27-.25.17-.64-.09-.99-.31.02-.34-.73-.19-1.02-.59l.07-.03c-.45.05-.34-.45-.78-.27l-.08-.3c-.33.29-.34-.43-.7-.39l-.03.08c-.28-.05-.33-.26-.59-.3v-.05c-.59-.12-.84-.46-.92-.15-.11-.32.57.1.39-.37-.49-.12-1.01-.12-1.49-.22-.49-.07-.99-.04-1.48-.08-.97.05-1.94.26-2.83.69-.26-.03-.41,0-.5-.09-.16.12-.65.39-.72.63.05-.04-.19-.08-.29-.04-.38.08-.16.5-.57.58.08-.16.08-.27-.03-.34-.15.39-.54.64-.82.93.02-.08.08-.16,0-.23-.19.48-.69.42-.87.82v-.24c-.63.23.1.42-.39.66.06-.13-.02-.15-.05-.23-.18.57-.84,1.03-1.11,1.47,0-.04-.04-.07-.04-.07-.36.4-.84.73-1.12,1.29-.21.11-.29-.36-.62.12.29.23-.54.83.01.85-.35.34-.93.87-1.04,1.2.02-.26-.51-.08-.28-.43l-.37.11c-.09-.13.24-.22.03-.26-.12.17-.37.74-.52.86-.03.45.12.98-.18,1.51.04-.32-.43-.09-.38-.29.03.37.07.73.14,1.1-.09.18-.27-.12-.34.19.09.04.08.18.1.3-.08.04-.35.77-.71.66-.17,0,.1-.32-.13-.19-.19.33-.1.4-.26.74l-.05-.02c-.16.2-.19.73.11.58.09-.15-.22-.04-.02-.22.11.25-.03.67-.2,1,0-.14-.09-.17-.16-.26.02.57-.12,1.08-.22,1.65.16.08-.21-.32-.09-.36-.49.57-.27,1.48-.79,1.91,0-.1.25.04.2.03-.13.32-.36.22-.34.46-.15-.03-.05.28-.08.51.06.15-.09.03-.04-.16,0,.17-.04.58-.14,1.02-.09.44-.19.93-.39,1.26.1.01.24.52.19.68l-.21-.12c-.17.12-.12.55-.32.54.18.41.11-1.41.2-.88-.22.08.19.74-.09.57-.09.33.12.71-.14.98.05-.09-.27-.33-.3-.06-.04.49.08.16.09.56l.05.26c.22.05-.1.42.17.28-.19.03,0,.7-.36.61l-.28-.1c-.01.21.27.38.39.55-.03.02-.09.07-.14.06.44.08-.07.49.25.76-.17.42-.12,1.08-.36,1.28.15.34.32.63.23,1.01-.04-.07-.06-.18-.16-.2-.12.24,0,.3.07.51-.07-.05-.25.49-.39.77.18.32.4.18.55.2-.4.35.4.88.06,1.31-.07-.1-.28-.45-.35-.16-.38.37.37.57.29,1.07l.33-.19c-.17.26.37.65,0,.68.17.13.01.59.35.45-.15.87.75,1.76.29,2.46.09.09.13.38.28.26.12-.25-.22-.2-.11-.32.04.09.14.08.19.07,0,.27.06.45-.31.35.03.6.8.29.95.98-.15.03-.17.11-.07.28l.39.24c.14.43-.18.38-.4.51.16.19.3.46.52.46l-.12.41c.09-.3.23.1.34.17l-.11-.07c-.07.09.13.31.23.41.11-.11.02-.39-.02-.55.16.05.23.23.42.3-.24.08.05.44.15.6.09.21.33.08.36.14-.1.08.19.3-.05.27-.08-.04,0-.21-.16-.25,0,.17-.18.28.12.44.23.12.36-.33.48.11-.11-.06-.21-.01-.33-.04l.13.41.19-.12c-.01.08-.05.06-.06.1.25-.04.42.46.7.35.15.14.16.42.27.58l-.04-.02c.06.26.33.45.57.49l-.04.03c.07.11.3.31.52.32.12.34-.51.67-.05.72.25.23.66.06.66-.14.32.54,1.08.66,1.3,1.26.12-.02.11-.1.28-.03.3.31.73.49,1.11.69.38.2.7.45.91.79-.27-.02-.12.19-.17.3.28-.09.14.29.36.02.07-.19.13-.27-.05-.44.51.11,1.19.45,1.38.73-.1-.13.03-.15.15-.18-.15.29.19.45.5.43l.1-.17.11.25c.12-.02.24-.35.44-.09,0,.08-.01.16.02.23.32-.04.78-.27,1.04-.03l.2.33c.14,0,.39-.13.17-.26.49.3.83.31.98.57.98-.5,2.22-.56,3.27-.72v.15c.3.08.09-.28.3-.22-.06.16.28.25.09.47.44.07.47-.35.71-.47,0-.19-.18.16-.19-.09.03-.05.58-.01.56-.31.13.08.12.31.1.44l.2-.21c.41.22-.51.81-.08,1.11l.22-.12c.32.22-.54.54.1.44.23-.23.31-.7.04-.74.5-.25.02-.74.57-.89.21.11-.42.18-.23.37.34.13.48-.28.72-.32-.29.01-.19-.36-.06-.48.32,0-.06.33.32.19,0-.18.28-.45-.06-.42-.03-.41.43-.08.5-.44.24.18-.11.73.36.66-.18-.2.34-.55-.05-.78.18-.02.3.14.26.35.3,0,.29-.73.62-.33l-.06-.27c.11.03.24.03.43.08.2-.12.42-.66.62-.33.04-.08.46-.37.14-.48-.35.05-.17.39-.53.18.36.13.34-.3.43-.49l.11.11c.05-.11.27-.24.22-.41-.01.12.09.18.18.16l-.05-.25c.27-.35.34.26.64-.05l-.15.34c.03-.07.29,0,.41-.17-.08-.22-.13-.52-.19-.69.11-.23.24.11.26-.22l-.06.4c.01.09.39.12.63-.11.11-.2.13-.64-.19-.5.12-.11.37-.17.39.03.22-.3-.19-.13-.06-.44.2.02.62-.13.93-.18l.03.5.15-.17c.01.42.26.04.37.37.14-.09.19-.3.24-.47-.66.02-.15-.82-.58-1.01.3-.53,1.11.42.94-.54-.15.01-.24-.43-.37-.05.26-.28-.2-.48.2-.72-.05.37.57-.02.5.52-.1-.11-.25.15-.26.24.23-.03.33.3.57-.03.11-.22.3-.5.08-.59-.21-.14-.19.31-.31.04.21-.43.57-.28.32-.69-.15.26-.41.17-.55.07l.11-.33.1.15c.41-.39-.17-.3.14-.72l.41-.04c.18.26-.5.6-.06.77.19-.3.05-.52.32-.74,0,.08-.04.18-.05.26.08-.1.67.1.62-.52,0-.29-.11-.14-.26-.23.25-.51.14-.75.27-1.08.28.22.29-.57.44-.05-.26.09-.56.83-.41,1.15.46.01-.28.36.01.67.24-.4.58-.19.85-.13.08-.11.05-.27.06-.36-.19-.16-.27-.01-.5-.12.32-.42.37-.96.28-1.31.18-.11.38.04.32.24.1-.3.22-.59.36-.88.13-.29.24-.58.37-.85-.5.23.12-.65-.28-.51-.19.27-.54.42-.65.2.08-.17.16.06.27.02-.13-.3.45-.25.2-.58-.05.56.43.25.69.44-.04-.44.21.08.34-.3-.01-.44-.06-.97-.02-1.43.21-.24.29-.6.33-.95.04-.35-.02-.71,0-.96.19-.25.52-.02.61-.31.03-.34-.41.21-.19-.28l.06.06c-.07-.16.36-.92-.17-1.1l.38.18c.03-.09-.05-.19-.09-.27.12,0,.24-.11.32.05.26-.31-.04-.68-.05-1.02l-.23.22c-.2-.59.09-.99-.07-1.55h.22s-.17-.33-.17-.33c.22.07.33-.26.13-.42l.64.85c-.1.26-.3-.26-.5-.08-.16.14-.08.67.12.75.02-.21-.02-.22-.1-.37.31-.08.3.23.5.38-.01-.11.08-.27-.02-.29.15.21.17.43.18.79-.12-.24-.19.13-.28.04.27.03.35.37.28.82-.16.15-.1.36-.03.6.05.24.13.51.06.76-.25-.24-.44-.52-.52-.83-.17.31-.03.35-.2.66.19.17.49.31.56.75h-.2c.06.39.36.43.25.92-.27.81-.47,1.65-.63,2.27l-.2-.03c.3.46-.23,1.17-.2,1.69-.42.71-.54,1.72-1.01,1.96-.5,1.35-1.03,2.55-2.01,3.71l-.09-.38c.02.35-.24.04-.36.27.36-.1.03.48.05.74-.62.36-1,1.16-1.26,1.75l-.16-.13c-.18.68-.95.95-1.54,1.4-.12-.01-.35-.08-.51.07-.12.5-.31.61-.67,1.15-.34.29-1.04.55-1.47.69-.58.66-1.37,1.01-2.14,1.4-.38.2-.81.3-1.22.47-.42.14-.81.36-1.24.5l-.18-.21c-.39.21-.83.37-1.29.49-.46.12-.94.11-1.41.15-.95.1-1.85-.11-2.61,0l.19-.39c-.44-.13-1.04-.07-.98.25-.43-.21-1.2-.04-1.4-.43-.43-.22-.6,0-1-.07-.87-.43-1.19-.55-2.03-.87l.19.12c.13-.04.21-.19.02-.31-.35-.04-1.05-.62-.98-.04-.67-.73-2.07-.94-2.56-1.85-.02.15-.22.03-.35.04-.7-.49-1.13-1.31-1.77-1.6-.05-.14.31-.02.08-.26-.18-.1-.13.12-.36,0-1.12-.81-1.64-2.2-2.36-3.16-1.44-1.64-2.39-3.75-3.06-5.71h.1c-.29-.28-.33-.7-.39-1.09-.02-.4-.06-.77-.4-.97.05-.18-.1-.62.11-.54-.42-.48-.05-1.55-.48-2.29,0,.07.03.11.08.19.05-.41-.02-.78-.08-1.16-.04-.38-.07-.77.01-1.2.04.08.08.24.18.26.18-.33-.44-.76.03-.95,0-.18-.24-.13-.22-.02.05-.93.16-1.87.14-2.84.04-.96.13-1.92.24-2.88.61-1.26.79.1.71-1.02.11-.06-.16-.11-.06-.1-.02-.44.67-.48.5-.83-.31.04-.11-.23-.27-.29.43-.74.74-.8.73-1.49l.13.1c-.18-.87.37-1.6.17-2.39,1.56-3.95,3.63-7.56,6.47-10.69,1.5-1.46,3.05-2.87,4.91-4.03.93-.57,1.93-1.1,3.11-1.44l.89-.24c.33-.05.67-.07,1.01-.1l.5-.03c.16,0,.3.03.46.04l.9.12c.55.23.79.45,1.08.53.28.11.62.1,1.2.23-.07.04-.14.03-.08.12.16-.29.78.27,1,.03.4.16.77.35,1.12.56.35.2.72.38,1.07.58.64.46,1.37.85,1.97,1.42-.22-.15-.49-.02-.24.16l.38.05-.02.1c.19.1.48.13.38-.09,1.67,1.29,2.97,2.92,4,4.64.56.84.97,1.74,1.46,2.59.44.88.87,1.75,1.3,2.63.27.89.91,2.04,1.31,2.96.63,2.94.96,5.54,1.77,8.41,0,0-.91-.24-1.33-1.38Z"/>
    <path class="cls-1" d="M65.72,48.13c-.15.12-.2.46-.45.23.15-.05.3-.24.45-.23Z"/>
    <path class="cls-1" d="M63.37,56.57s-.1.09-.14.11c.02-.1-.08-.23.03-.28-.02.1.06.11.11.17Z"/>
    <path class="cls-1" d="M62.54,58.53c-.13-.09-.02-.53.03-.79.02.27-.02.53-.03.79Z"/>
    <path class="cls-1" d="M61.15,60.02c-.19.08-.23,0-.11-.18.08.02.07.1.11.18Z"/>
    <path class="cls-1" d="M61.37,60.3c-.08.14-.19.17-.31.19.11.06.12-.36.31-.19Z"/>
    <path class="cls-1" d="M58.61,63.46c-.06.08-.11.33-.29.28.15,0,.18-.48.29-.28Z"/>
    <path class="cls-1" d="M57.41,64.99c-.05.04-.09.03-.12.11-.13.03-.11-.13-.05-.21l.17.1Z"/>
    <path class="cls-1" d="M31.08,53.97c.03.07.06.14.11.2h-.15c0-.07.03-.14.04-.2Z"/>
    <path class="cls-1" d="M33.68,38.25c.02-.24.19-.08.23-.1-.08.18-.13-.14-.23.1Z"/>
    <polygon class="cls-1" points="37.96 30.45 37.92 30.51 37.71 30.29 37.96 30.45"/>
  </g>
  <g>
    <path class="cls-1" d="M36.83,48.31c-.06-.07-.26.02-.11-.05.12.02.21.04.11.05Z"/>
    <path class="cls-1" d="M47.23,63c-.33.72-.56-.1-.89.34-.04.03.08-.41-.01-.32-.36.54-.73.13-.92-.37l.05-.11c-.03-.1-.2.26-.24.18.02-.08.05-.1.06-.21-.07.22-.13.07-.21.23,0-.1.05-.28.05-.39l-.11.25c-.27.58-.22-.12-.45.15.03-.06.05-.1.06-.16-.33.3-.58.14-.88.19.04-.09.12-.24.14-.35-.11.26-.22.3-.3.33.08-.28-.21.21-.23.03l.03-.06c-.18.26-.01-.2-.2.11l.06-.23c-.19.36,0-.23-.12-.07l-.03.08c-.08.07-.02-.13-.09-.09l.02-.05c-.14.05-.09-.18-.23.1.08-.25.14-.06.25-.42-.44.14-.72-.08-1.02-.23.03-.13.03-.17.09-.28-.06.04-.14,0-.26.12.01,0,.07-.15.06-.17.02-.14-.24.26-.22.09.07-.05.13-.14.19-.24-.18.17-.22.09-.32.12.04-.04.07-.05.12-.14-.22.19-.07-.13-.22-.02l.13-.14c.05-.24-.25.3-.24.13.05-.03.09-.1.14-.16-.26.22-.31.05-.44.09.02-.02.05-.06.05-.06-.1-.02-.11-.16-.28-.11.02-.09.29-.34.18-.35-.23.29-.23.02-.45.37-.03-.1-.04-.28-.17-.23.12-.08.27-.36.35-.35l.11-.2c.11-.11,0,.07.12-.08-.04,0-.21.04-.19-.03-.2.12-.53.39-.63.35.13-.07.26-.32.33-.34l-.6.4s.2-.21.1-.18c-.07.07-.13.1-.19.14.02-.04-.17-.04.08-.31.09-.11.09-.01.16-.13-.05-.04-.14.04-.19,0l.03-.03c.01-.07-.2.02-.31.19.01.03.15-.16.11-.05-.18.12-.27.11-.32.06.06-.02.13-.09.21-.15-.27.13-.41.12-.57.12-.13.11.26-.18.2-.11.1-.25-.44.03-.25-.28.04,0-.18.16-.15.13-.03-.06.17-.22.07-.19.11-.09-.07-.01-.13-.02-.1.05.05-.05.08-.03-.13.03-.45-.02-.35-.26-.08.06-.34.15-.35.11l.19-.13c.09-.1-.08-.07.08-.19-.26.11.34.07.11.12.14-.13-.37.11-.1-.05-.04-.05-.29.05-.15-.12-.02.04.29-.14.25-.17-.08-.05-.1.04-.21.03l-.1.02c-.18.12-.02-.08-.21.09.15-.11-.17-.04.14-.24l.25-.15s-.29.12-.41.17c.02-.02.06-.06.1-.08-.38.24-.02-.1-.34.05.08-.15-.11-.18.11-.36-.15.02-.32.06-.27-.06.04,0,.06,0,.15-.04.09-.11-.01-.06-.09-.05.06-.03.18-.21.3-.33-.14.01-.34.15-.47.22.36-.27-.33-.01-.01-.27.06-.01.23-.03.3-.12.36-.26-.34.06-.19-.12l-.31.19c.18-.14-.25-.02.08-.19-.13.03.06-.15-.25.02.2-.27-.33-.25.2-.6-.06,0-.03-.07-.19.02-.16.12.15-.02.03.05-.02-.01-.11.03-.15.05.05-.08.06-.12.35-.21.15-.18-.6.17-.53-.01.14-.06.18-.09.15-.11l-.26.04c.02-.1.29-.18.52-.28-.06-.02-.06-.08-.24-.02l.27-.17c-.19.13-.15.03-.22.03h.06c.09-.05.01-.08-.02-.09-.14.07-.18.14-.21.18-.11.02-.1-.02-.23,0,.23-.09.13-.14.14-.18.03-.06-.22.04-.22.03.12-.05,0-.07.17-.11.04,0-.1.08,0,.06.08-.06.28-.14.11-.13-.13,0-.44.19-.33.06.06,0,.16-.04.24-.05l.09-.12-.21.08s.07-.03.1-.05c-.23.07-.11-.08-.36,0-.04-.03.11-.13.12-.17h.02c.11-.09,0-.11-.15-.09l.05-.02s-.05-.07-.18-.05c.14-.11.78-.3.5-.27-.03-.05-.42.05-.54.12.1-.15-.28-.16.02-.37-.09.01-.14.04-.2.03.04-.18-.35-.25.03-.51.1.02.21-.06.34-.1-.2.02.19-.1-.15-.02-.19.06-.29.09-.35.15-.13-.06-.17-.21,0-.31-.08.05-.15.05-.21.04.31-.08.34-.16.21-.18l-.19.04.18-.09c-.07,0-.4.08-.24-.02.07-.02.15-.05.2-.07-.17-.01-.46-.02-.31-.12l.27-.12s-.21-.02-.28.05c.14-.14.15-.21.38-.3-.62-.03-.7-.29-.71-.5l.14-.02c.12-.08-.26.02-.17-.04.14-.01.29-.1.47-.09.13-.11-.27-.05-.35-.09-.19.03.13.02-.11.05-.07,0,.12-.14-.16-.09.11-.04.32-.07.44-.08l-.15-.02c.32-.12.62.02,1.02-.12l-.05-.03c.29-.1.36.04.44-.08-.15-.02-.57.02-.69.09-.1-.08-.69.08-.69-.03.16-.06.06.08.29.01.22-.09-.15-.08-.07-.14-.1.07-.4.08-.45.06.13-.08.28-.01.29-.1-.17.02-.3-.03-.41.05-.38.04.09-.1-.21-.09.26-.07.62-.02.74-.13-.25.06-.36-.05-.73.06.07-.05.27-.08.43-.08.15-.07-.48-.04.02-.14l-.26.02c.08-.03.14-.05.28-.11,0-.04-.37-.08.02-.14-.04,0-.04-.11-.31-.03-.16.09.21.04-.15.13.29-.09-.05-.08-.16-.1l.15-.03c-.06-.01-.04-.07-.2-.06.09,0,.19-.02.23-.04h-.24c-.13-.06.4-.07.33-.14l.19.04s.17-.07.09-.09c-.22,0-.47.02-.64.03-.1-.04.24-.05.01-.07l.26.03c.07,0,.34-.09.33-.15-.08-.03-.4-.05-.5.02,0-.03.11-.09.27-.08-.08-.06-.23.04-.37,0,.14-.04.33-.14.53-.21l.36.02v-.04c.29.02.21-.05.52-.06.04-.03-.06-.05-.14-.07-.47.14-.67-.02-1.1.05-.13-.1,1.06-.18.36-.23-.11.03-.45,0-.32.07.04-.08-.45,0-.27-.11.19.05.44-.11.71-.04-.15,0-.11.06-.06.07.17-.05.44-.04.44-.11-.05-.04-.06-.1-.29-.07-.25.03.03.06-.22.06-.1-.08.29-.13-.16-.13.04.05-.22.09-.39.11l-.11-.06h.17c.11-.12-.31,0-.27-.12l.33-.08c.29,0-.11.16.35.1.01-.07-.23-.07-.11-.14.04.01.05.03.1.04.01-.03.63-.1.26-.16-.14-.04-.17,0-.34.01-.06-.1-.24-.12-.27-.19.34,0,.03-.12.38-.07-.2.05-.17.2.16.21.4-.07-.05.09.36.08,0-.08.4-.11.66-.14.02-.02-.1-.04-.14-.05-.25,0-.24.04-.49.06.06-.1-.08-.18-.32-.21.12-.04.36-.04.39,0-.08-.11-.05-.23.02-.33-.4.09-.1-.11-.43-.05-.09.06-.37.12-.55.1.02-.04.17,0,.26-.03-.22-.04.35-.09,0-.12.13.1.49,0,.8,0-.18-.06.22,0,.22-.08-.18-.06-.32-.15-.39-.23.29-.11,0-.26-.01-.35.16-.05.51-.02.57-.07,0-.06-.38.05-.22-.04h.07c-.08-.02.24-.15-.27-.18l.38.03s-.05-.03-.09-.05c.12,0,.24-.02.32,0,.26-.05-.04-.11-.05-.17l-.23.03c-.18-.1.05-.17-.03-.27h.22s-.13-.05-.13-.05c.21.02.35-.03.18-.06l.54.16c-.13.04-.27-.05-.49-.03-.19.02-.13.11.08.13.03-.03-.02-.04-.1-.06.31,0,.3.05.5.08-.01-.02.08-.04-.02-.05.15.04.17.07.18.13-.12-.04-.19.02-.28,0,.27,0,.35.06.28.13-.31.05.2.13.12.21-.28-.03-.5-.07-.61-.12-.14.05,0,.06-.13.11.21.02.52.04.65.1h-.2c.1.06.4.06.35.14-.1.13-.09.26-.11.36h-.2c.44.05.17.19.37.25-.19.14.21.26-.14.35.17.21.34.39.29.62h-.3c.22.01-.17.03-.12.07.23-.07.31.03.49.04-.22.13.04.23.26.29l-.2.03c.38.05.07.19.03.31-.08.02-.27.07-.24.1.33.02.32.05.53.11,0,.06-.06.18-.17.27.49.17.23.46.57.65l-.23.06c.55.13.16.52.46.66l-.4.08c-.11.09.14.12.41.03-.11.1.23.1-.08.23-.05.08.2.03.27.07-.11.17-.06.2.05.3l.02-.04c-.09.01-.26.06-.27.1.12.01-.06.2.4.01-.23.21.3.22-.02.46.12-.05.16-.03.25-.05.03.11-.18.31.07.32-.06.04-.22.05-.22.1.06,0,.16-.06.25-.05.3.08-.1.43.02.57.35.18.33.52.51.74l-.09.04c.38-.09-.24.37.3.18-.07.06,0,.09-.17.17.27-.06-.12.31.22.24,0-.01-.02,0-.06,0-.14.2.16.14.05.34-.04.01-.08,0-.16.05-.14.14.4-.12.01.15.02.02.21-.11.19-.11,0,.3.4.36.63.5-.12.32-.63.48-.27.39-.07.06.15-.1.07-.04.14-.03-.37.39-.15.28.22-.19.14-.08.28-.18-.08.21-.27.39-.05.33l-.12.09c.4-.19.32.04.75-.22.46.34.98.56,1.44.79.17.19.39.32.59.47.23.11.45.23.62.47-.08.41-.06.41.14.33-.03.06-.05.06-.07.12.15-.29.1.02.25-.26.14.15.34.16.54.2-.04.02-.16.27-.11.26l.12-.18-.03.09s.13-.18.14-.29c.58-.14.82.71,1.38.72.1.15.3.06.44.01.32.49.67.91,1.12.67,0,0-.12.84-.33,1Z"/>
    <path class="cls-1" d="M36.86,48.39c-.17,0-.26.06-.47,0,.15,0,.33-.02.47,0Z"/>
    <path class="cls-1" d="M35.18,49.86s-.07.02-.09.03c-.01-.02-.15-.03-.07-.05.01.02.09.01.16.02Z"/>
    <path class="cls-1" d="M35.1,50.25c-.15,0-.27-.07-.29-.12l.29.12Z"/>
    <path class="cls-1" d="M34.52,50.66c-.12.04-.19.04-.19,0,.08,0,.12,0,.19,0Z"/>
    <path class="cls-1" d="M34.86,50.66s-.08.05-.16.07c.12-.01-.09-.06.16-.07Z"/>
    <path class="cls-1" d="M34.51,51.5s.14.05-.02.08c.11-.03-.19-.07.02-.08Z"/>
    <path class="cls-1" d="M34.77,51.85s-.03.02,0,.03c-.06.03-.17.02-.19,0l.18-.03Z"/>
    <polygon class="cls-1" points="37.33 58.16 37.25 58.16 37.37 58.1 37.33 58.16"/>
    <path class="cls-1" d="M39.08,60.62c.1-.03-.08.11-.09.13-.04-.02.14-.11.09-.13Z"/>
    <polygon class="cls-1" points="40.73 61.19 40.72 61.19 40.91 60.96 40.73 61.19"/>
  </g>
  <g>
    <path class="cls-1" d="M88.21,48.11c-.09-.94-.54.5-.2-.61.23.13.4.31.2.61Z"/>
    <path class="cls-1" d="M87.75,44.41c-.21-.36-.36-.73-.51-1.12-.16-.38-.29-.78-.4-1.18-.21-.81-.32-1.66-.42-2.53-.16-.85-.34-1.72-.57-2.56-.12-.42-.25-.83-.4-1.22-.17-.39-.41-.74-.66-1.08-.19-.33.82-.18.34-.92-.27-.32-.53-.67-.77-1.05-.23-.38-.45-.79-.72-1.2-.49-.83-.93-1.75-1.32-2.72-.93-1.87-1.69-3.97-2.55-5.77l.33.05c-.33-.69-1.43-.98-1.89-1.6.11-.11.34.04.38-.23-.49.16-1.12-.91-1.6-.92-.07-.35.22-.59.1-1.03l-.69.04c-.85-.04-1.42-.51-1.93-1.13-.53-.6-1.03-1.35-1.9-1.62.14-.05.34-.02.31-.2-.67-.26-1.32-.57-1.97-.94-.66-.35-1.28-.79-1.98-1.12-1.37-.71-2.7-1.56-4.13-2.01.19-.12.45-.38.38-.65-.39.44-1.27.17-2.03-.07-.08-.73-1.46,0-2.2-.63l.12-.09c-.85.34-.84-.68-1.59-.18l-.27-.59c-.52.7-.84-.66-1.51-.4l-.03.17c-.57.06-.73-.41-1.25-.4l-.02-.1c-1.16-.11-1.75-.61-1.84.02-.31-.56,1.15-.06.67-.89-3.93-.08-7.82-.34-11.68-.02-.46-.2-.75-.23-.88-.46-.37.19-1.44.34-1.73.71.13-.03-.3-.28-.51-.29-.75-.12-.63.78-1.43.7.26-.24.32-.47.17-.68-.54.65-1.41.8-2.12,1.15.09-.13.25-.24.17-.43-.67.76-1.56.24-2.15.88l.15-.45c-1.29,0-.09.86-1.15.96.19-.2.06-.3.06-.46-.35.48-.9.81-1.47,1.08-.58.25-1.12.58-1.52.87.03-.07-.03-.16-.03-.16-.46.27-.95.47-1.45.7-.5.22-1,.5-1.41.94-.44.07-.33-.86-1.22-.15.42.62-1.46,1.24-.45,1.61-.22.09-.47.2-.73.31-.25.13-.5.28-.75.43-.49.3-.92.61-1.09.9.17-.48-.92-.44-.32-.97h-.76c-.11-.29.57-.29.18-.48-.31.28-1.09,1.19-1.43,1.35-.27.86-.2,1.95-1,2.8.21-.58-.8-.38-.61-.73-.09.72-.17,1.42-.17,2.17-.23.31-.48-.34-.72.21.16.11.09.38.09.61-.16.05-.93,1.3-1.61.96-.34-.06.31-.57-.18-.42-.49.54-.27.76-.71,1.34l-.09-.05c-.38.32-.6,1.32.04,1.14.22-.25-.43-.16.04-.43.14.53-.26,1.25-.68,1.82.05-.26-.13-.35-.24-.54-.12,1.09-.41,2.09-.77,3.09.29.19-.34-.66-.1-.7-.55.46-.81,1.14-.98,1.81-.17.67-.34,1.3-.9,1.66.02-.19.49.12.4.09-.32.56-.77.33-.78.79-.29-.08-.17.51-.21.97.12.29-.17.05-.07-.32.01.34-.08,1.12-.29,1.95-.22.83-.54,1.72-.89,2.35.19.03.48,1.02.38,1.32l-.41-.23c-.34.22-.23,1.05-.63,1.02.37.8.21-2.69.39-1.68-.43.14.38,1.44-.17,1.09-.14.64.18,1.34-.31,1.87.1-.16-.54-.64-.59-.11-.06.94.17.3.21,1.07l.11.49c.44.09-.18.8.36.53-.38.07.01,1.33-.69,1.17l-.57-.19c.01.41.57.72.81,1.05-.06.05-.18.14-.27.12.88.12-.12.95.54,1.45-.17.41-.21.93-.27,1.4-.01.47-.06.89-.33,1.09.3.64.65,1.19.5,1.93-.09-.14-.13-.33-.32-.36-.24.48,0,.58.16.98-.17-.08-.39.96-.63,1.52.36.6.8.31,1.1.33-.76.72.77,1.67.2,2.52-.19-.18-.63-.82-.74-.25-.71.77.93,1.01.75,2.02l.65-.41c-.33.52.74,1.21,0,1.32.3.23.11,1.12.75.81-.02.81.39,1.66.68,2.46.27.81.62,1.51.22,2.22.2.15.34.7.61.44.2-.5-.48-.34-.29-.58.11.17.3.12.4.1.06.5.18.87-.55.72.09,1.17,1.51.47,1.97,1.73-.29.09-.33.24-.08.55l.82.38c.35.8-.31.78-.72,1.07.32.36.6.88,1.05.82l-.17.82c.12-.6.48.14.71.24l-.23-.11c-.12.19.32.56.53.74.21-.24-.03-.76-.14-1.05.32.06.5.39.9.49-.45.21.18.82.36,1.15.17.41.65.08.71.19-.19.17.43.54-.06.52-.16-.06-.04-.4-.37-.44.04.33-.31.59.33.82.48.17.65-.72.98.1-.24-.08-.41.02-.65.01l.34.75.35-.28c-.01.15-.09.13-.1.2.5-.15.91.79,1.4.55.31.24.39.77.63,1.06l-.08-.02c.16.5.73.79,1.21.82l-.08.06c.16.19.64.55,1.04.54.29.63-.89,1.43.03,1.42.54.38,1.31-.04,1.27-.42.37.46.92.74,1.43,1.06.54.27,1.05.56,1.32,1.13.23-.07.21-.22.55-.13.67.52,1.48.87,2.27,1.16.78.32,1.46.7,1.89,1.4-.52-.04-.21.39-.3.63.52-.18.3.57.69,0,.12-.39.22-.54-.15-.88,1.01.16,2.42.66,2.82,1.22-.2-.27.04-.32.28-.35-.27.59.4.95,1.01.84l.19-.36.24.48c.24-.07.44-.73.88-.23,0,.15-.02.31.06.44.65-.19,1.52-.45,2.07-.06l.4.64c.28-.02.78-.29.34-.53.99.5,1.67.65,1.95,1.19,1.98-1.03,4.54-.92,6.65-1.03l-.04.3c.59.25.26-.53.67-.34-.16.29.49.58.06.95.86.29,1.01-.6,1.51-.8.03-.39-.39.31-.35-.19.07-.15,1.15.13,1.19-.47.23.2.14.64.07.89l.45-.35c.73.58-1.21,1.41-.45,2.14l.47-.16c.56.53-1.18.88.07.9.49-.37.79-1.26.29-1.45,1.04-.33.25-1.41,1.36-1.59.18.13-.03.21-.25.3-.23.07-.46.16-.31.38.63.41,1-.5,1.49-.44-.56-.08-.26-.77.04-.95.62.12-.23.63.57.48.05-.36.69-.78.02-.85.08-.8.86,0,1.11-.67.41.45-.45,1.39.49,1.43-.27-.43.83-1.02.15-1.59.36.02.53.4.39.78.57.13.81-1.3,1.31-.39l-.02-.55c.2.11.46.15.8.33.21-.07.47-.36.72-.53.24-.19.45-.28.59.09.09-.14,1.01-.54.43-.87-.69-.04-.47.68-1.08.14.63.37.76-.46.99-.79l.18.25c.14-.2.6-.35.57-.7-.06.23.1.38.29.37v-.51c.64-.57.55.65,1.23.16-.12.21-.26.4-.4.6.08-.14.57.16.84-.2-.07-.46-.08-1.06-.13-1.41.3-.4.42.31.59-.31l-.25.76c0,.17.7.4,1.25.05.28-.34.47-1.18-.19-1.05.26-.17.78-.18.74.22.53-.49-.33-.34.05-.87.37.11,1.21-.04,1.85,0l-.11.98.36-.26c-.13.81.49.18.58.86.3-.11.48-.5.63-.8-1.29-.24-.01-1.64-.77-2.18.78-.87,1.95,1.19,1.99-.68-.3-.04-.32-.93-.7-.24.6-.42-.23-.99.64-1.29-.22.69,1.12.19.79,1.2-.15-.26-.54.19-.59.35.45.04.54.71,1.12.18.29-.38.76-.83.37-1.09-.37-.35-.49.52-.62-.05.57-.73,1.21-.32.82-1.23-.33.48-.81.21-1.05-.05.12-.19.2-.42.3-.62l.16.33c.88-.62-.23-.65.51-1.34l.82.09c.26.56-1.19.93-.39,1.44.49-.48.29-.96.89-1.27-.04.16-.15.32-.18.48.18-.15,1.28.47,1.4-.73.1-.57-.17-.31-.43-.54.57-.94.48-1.41.85-2,.46.52.79-.95.9.08-.54.06-1.44,1.32-1.17,2.05.43.09.28.25.08.47-.22.21-.5.47-.27.82.63-.65,1.2-.12,1.69.09.18-.19.16-.52.19-.7-.32-.39-.51-.12-.92-.42.71-.73,1.08-1.67,1.01-2.38.4-.13.74.23.54.58.32-.51.61-1.06.94-1.58.33-.52.69-1.01,1.06-1.46-1.07.23.49-1.18-.35-1.07-.46.44-1.22.58-1.37.13.24-.29.3.18.53.14-.13-.6.99-.3.58-1.04-.23,1.08.77.65,1.24,1.12.03-.88.38.24.72-.48.04-.88.21-1.88.47-2.72.94-.81.97-2.63,1.29-3.54.43-.41,1.02.14,1.28-.38.15-.65-.86.27-.3-.6l.11.13c-.09-.33.92-1.66,0-2.16l.67.46c.11-.16-.01-.37-.06-.54.24.05.52-.12.6.21.71-.49.14-1.31.24-1.97l-.51.35c-.19-1.18.4-1.87.37-2.99l.44.08-.23-.68c.42.2.73-.39.39-.77.33.6.68,1.21.98,1.84-.32.46-.47-.59-.94-.32-.4.22-.45,1.24-.05,1.47.11-.39.02-.42-.1-.74.63-.06.52.54.88.9,0-.21.24-.49.05-.56.24.45.22.88.13,1.58-.17-.51-.42.19-.56-.01.53.14.59.84.31,1.67-.77.46-.01,1.67-.43,2.62-.43-.54-.73-1.15-.8-1.78-.42.53-.16.67-.58,1.2.32.39.88.77.91,1.64l-.4-.08c-.02.77.52.95.09,1.82-.38.74-.71,1.5-1.01,2.22-.36.69-.7,1.34-.99,1.9l-.38-.13c.24.5.06,1.06-.19,1.62-.25.56-.65,1.06-.72,1.57-.58.58-.95,1.37-1.3,2.06-.39.66-.8,1.21-1.32,1.33-.36.61-.71,1.2-1.05,1.78-.38.56-.79,1.08-1.2,1.61-.41.53-.84,1.05-1.3,1.57-.49.48-1.03.95-1.59,1.41l-.04-.76c-.09.67-.48-.02-.79.38.75-.04-.11.93-.16,1.45-1.28.5-2.34,1.84-3.04,2.9l-.27-.31c-.56,1.29-2.16,1.44-3.46,2.1-.22-.05-.64-.28-1.01-.05-.41.93-.81,1.07-1.7,1.95-.76.42-2.15.71-3.05.78-.68.47-1.39.94-2.16,1.22-.77.29-1.56.52-2.36.75l-1.21.33-1.23.23c-.82.16-1.65.36-2.47.62l-.29-.44c-.78.33-1.65.49-2.53.6-.88.09-1.79.21-2.68.1-1.78-.16-3.48-.23-4.91-.26l.37-.77c-.82-.38-1.99-.09-1.87.52-.42-.19-.98-.17-1.5-.22-.51-.08-.97-.2-1.16-.6-.84-.37-1.16.09-1.93,0-.85-.35-1.41-.63-1.99-.85-.57-.21-1.15-.36-1.99-.59l.38.19c.24-.1.38-.42,0-.62-.34,0-.87-.24-1.28-.38-.4-.15-.7-.14-.6.44-.72-.66-1.73-1.01-2.73-1.4-1-.38-1.92-.94-2.5-1.71,0,.31-.42.11-.68.17-.35-.21-.68-.45-1.01-.7-.3-.28-.6-.56-.89-.83-.59-.53-1.17-1-1.83-1.21-.12-.26.61-.11.1-.52-.37-.16-.23.27-.7.09-1.14-.69-2.05-1.69-2.88-2.69-.78-1.06-1.44-2.16-2.29-2.99-3.1-2.93-5.26-6.9-6.95-10.58l.2-.04c-1.22-.99-.39-3.24-1.84-3.89.06-.36-.24-1.22.18-1.09-.39-.45-.46-1.22-.56-2.04-.05-.41-.11-.83-.21-1.23-.09-.41-.2-.81-.43-1.16,0,.15.06.22.16.37.09-.82-.06-1.54-.22-2.27-.08-.37-.16-.74-.21-1.12-.04-.39,0-.79.06-1.21.09.16.17.46.37.49.34-.65-.9-1.45.02-1.85-.03-.36-.49-.24-.45-.02.02-1.81.13-3.66.08-5.56v-.71s.04-.71.04-.71l.09-1.43.1-1.44.06-.72.13-.7c1.22-2.5,1.58.22,1.43-2.01.22-.12-.32-.22-.12-.19-.02-.43.31-.67.6-.88.32-.2.6-.37.46-.71-.63.04-.18-.46-.5-.59.93-1.42,1.48-1.53,1.58-2.88l.24.21c-.07-.85.19-1.63.43-2.39.24-.76.43-1.52.36-2.31.53-.93,1.06-1.85,1.58-2.76.56-.89,1.19-1.74,1.78-2.61.57-.89,1.25-1.69,1.93-2.49.69-.79,1.3-1.65,2.08-2.36l2.24-2.21c.79-.69,1.62-1.33,2.44-1.99.8-.69,1.69-1.25,2.58-1.81.9-.55,1.75-1.19,2.72-1.62.95-.44,1.9-.88,2.84-1.32.96-.4,1.95-.73,2.92-1.1.49-.17.97-.37,1.47-.53l1.51-.4c1.01-.25,2-.57,3.03-.75l3.09-.48.77-.11.78-.04,1.57-.06c2.09-.15,4.19.11,6.29.34,1.88,1.03,1.98,1.06,4.17,1.06-.11.11-.25.12-.13.26.24-.66,1.49.26,1.82-.29,1.49.46,2.97.75,4.38,1.3.72.25,1.43.49,2.16.74.74.24,1.42.62,2.16.95-.49-.16-.94.22-.38.44l.75-.1v.21c.42.09.98,0,.69-.37.47.2.95.37,1.4.61l1.33.75c.87.53,1.77,1.01,2.57,1.63.8.62,1.59,1.25,2.36,1.9.4.31.76.65,1.11,1.02l1.06,1.07c1.45,1.38,2.62,3.02,3.89,4.52l1.7,2.42c.28.4.59.79.86,1.2l.78,1.25c.35.88,1,1.81,1.53,2.82.54,1.01,1.14,2.03,1.64,2.92.36,1.48.64,2.94.96,4.34.2,1.44.4,2.84.64,4.22.12,1.41.27,2.8.49,4.21.09,1.42.23,2.86.45,4.35,0,0-1.73-.79-2.24-3.09Z"/>
    <path class="cls-1" d="M88.22,49.24c-.34.19-.55.82-.96.29.31-.05.67-.37.96-.29Z"/>
    <path class="cls-1" d="M80.79,64.56c.08.06-.22.15-.29.17.06-.19-.1-.48.12-.55-.06.19.09.23.17.38Z"/>
    <path class="cls-1" d="M78.56,68.01c-.21-.22.04-1.08.28-1.54l-.28,1.54Z"/>
    <path class="cls-1" d="M75.37,70.33c-.39.09-.43-.06-.17-.4.14.07.12.24.17.4Z"/>
    <path class="cls-1" d="M75.72,70.96c-.21.24-.44.24-.67.24.2.15.36-.63.67-.24Z"/>
    <path class="cls-1" d="M69.29,75.91c-.14.13-.33.58-.66.42.3.06.52-.85.66-.42Z"/>
    <path class="cls-1" d="M66.47,78.39c-.11.05-.18.03-.26.17-.26,0-.17-.3-.02-.42l.29.25Z"/>
    <polygon class="cls-1" points="11.12 56.29 11.36 56.66 11.07 56.67 11.12 56.29"/>
    <path class="cls-1" d="M16.34,26.69c.07-.46.39-.08.47-.12-.2.32-.23-.32-.47.12Z"/>
    <polygon class="cls-1" points="27.62 14.07 27.51 14.14 27.24 13.61 27.62 14.07"/>
  </g>
</svg>