<?xml version="1.0" encoding="UTF-8"?>
<svg id="Layer_3" data-name="Layer 3" xmlns="http://www.w3.org/2000/svg" viewBox="0 0 95 95">
  <defs>
    <style>
      .cls-1 {
        fill: #fff;
      }

      .cls-2 {
        fill: #ff4f20;
      }
    </style>
  </defs>
  <g>
    <g>
      <path class="cls-1" d="M38.65,28.02v-13.69h-9.53v13.69c0,4.27-1.8,8.2-4.67,10.97-1.94,1.88-3.17,4.67-3.17,7.78v28.61c0,2.92,2.09,5.28,4.66,5.28h15.88c2.57,0,4.66-2.36,4.66-5.28v-28.61c0-3.12-1.23-5.91-3.17-7.78-2.86-2.78-4.67-6.7-4.67-10.97Z"/>
      <g>
        <path class="cls-2" d="M38.11,27.62c.07.61.26-.33.11.4-.12-.08-.21-.2-.11-.4Z"/>
        <path class="cls-2" d="M38.43,30.11c.51.95.76,2.04,1.14,3.16.36,1.11.87,2.23,1.66,3.01.17.19-.39.17.02.6.43.35.86.77,1.32,1.22.44.46.96.91,1.4,1.48.88,1.12,1.4,2.55,1.55,3.78l-.16-.1c.07.45.59.91.63,1.42-.08.02-.14-.14-.22,0,.26.08.25.87.44,1.06-.08.21-.27.2-.35.46l.28.27c.65.8-.04,1.99.29,3.11-.06-.05-.11-.16-.17-.08.39,1.8.32,4.05.46,6.06-.1-.08-.27-.15-.38-.04.28.1.36.72.41,1.26-.29.24.27.92.11,1.56l-.06-.05c.3.47-.18.69.19,1.07l-.23.3c.41.21-.21.68,0,1.06h.08c.1.35-.11.54-.04.88l-.05.03c.11.79-.12,1.25.2,1.23-.26.28-.12-.77-.49-.33.33,2.6.27,5.29.27,7.91-.13.3-.17.49-.29.55.06.26.06.99.22,1.22,0-.09-.16.17-.18.31-.12.48.35.52.21,1.04-.09-.21-.19-.28-.31-.21.25.45.21,1.04.29,1.57-.05-.08-.09-.21-.19-.19.28.58-.04,1.05.04,1.57l-.16-.21c-.34.75.35.31.06.99,0-.18-.1-.14-.16-.19.18.74-.44,1.73-.8,2.31,0-.05-.04-.07-.04-.07-.45.61-1.12,1.04-1.83,1.5-.32.02-.08-.41-.77-.14.06.18-.25.29-.53.37-.27.06-.51.12-.26.32-.69-.04-1.68-.19-2.12-.06.29-.14-.31-.45.22-.49l-.41-.22c.06-.15.42.05.29-.14-.27.01-1.05.16-1.29.1-.5.23-.96.65-1.76.7.38-.14-.22-.41.04-.47l-1.13.71c-.27.02-.06-.29-.45-.2.02.1-.15.16-.27.24-.1-.04-1.12.09-1.23-.27-.12-.14.44-.08.14-.21-.5,0-.52.13-1.01.13v-.05c-.34-.05-.97.16-.62.36.23.01-.09-.22.25-.11-.23.21-.81.27-1.3.28.17-.06.15-.16.22-.26-.67.29-1.37.38-2.12.5-.01.17.28-.32.39-.22-.95-.24-1.97.34-2.76-.01.13-.03.07.25.06.2-.46-.02-.44-.27-.74-.18-.05-.15-.34.06-.72.08-.2.1-.09-.08.23-.08-.25.05-.93.14-1.66-.08-.73-.19-1.47-.66-1.84-1.14-.05.11-.8-.25-.96-.5l.25-.06c-.07-.27-.56-.73-.41-.88-.26-.18.06.28.44.65.38.37.8.65.45.46,0-.24-.98-.6-.63-.66-.31-.43-.81-.78-.8-1.36.03.16.46.27.28-.11-.29-.67-.18-.15-.43-.71l-.18-.35c-.24.02-.07-.68-.28-.36.14-.11-.2-1.13.18-1.04l.29.1c-.03-.29-.31-.46-.44-.69.03-.04.09-.11.13-.1-.44-.05.04-.67-.31-1.01.15-.59.01-1.5.29-1.78-.13-.45-.3-.87-.2-1.39.04.1.05.24.15.27.13-.32.01-.41-.06-.7.07.07.26-.65.42-1.01-.13-.45-.37-.3-.52-.34.44-.41-.28-1.27.12-1.79.06.16.22.66.33.28.44-.41-.32-.83-.11-1.5l-.36.16c.23-.3-.21-.98.16-.91-.13-.22.12-.78-.24-.71.3-1.09-.18-2.65.46-3.33-.06-.16,0-.55-.18-.47-.2.26.14.36,0,.46-.01-.14-.11-.17-.16-.19.08-.34.11-.61.4-.29.22-.76-.6-.78-.47-1.74.15.04.2-.03.18-.31l-.25-.53c.06-.62.33-.35.58-.37-.04-.33-.03-.74-.22-.89l.31-.4c-.23.29-.15-.27-.21-.43l.06.16c.11-.06.04-.45,0-.64-.15.05-.22.44-.26.65-.11-.17-.08-.43-.21-.66.24.07.17-.54.2-.81.05-.3-.22-.34-.21-.43.13,0,.02-.49.2-.26.04.1-.12.24-.01.41.09-.2.32-.18.15-.59-.12-.31-.48.08-.33-.51.06.16.16.18.25.3l.13-.55-.22-.02c.06-.07.08-.02.11-.06-.23-.16-.07-.85-.34-.97-.02-.28.15-.59.18-.86l.02.05c.13-.33.04-.76-.11-1.03h.05c.02-.16-.02-.58-.15-.81.17-.45.84-.15.56-.65,0-.46-.41-.72-.55-.53.08-.41.02-.84,0-1.29-.02-.48,0-.96.22-1.35-.07-.14-.14-.06-.16-.34.25-1.3.41-2.89,1.29-3.68-.08.39.19.12.31.17-.04-.37.35-.24.1-.5-.19-.07-.26-.14-.51.16.25-.78.96-1.83,1.41-2.05-.21.12-.15-.06-.09-.24.21.25.62-.18.86-.57l-.09-.18c.12-.02.24-.05.33-.05.06-.15-.18-.4.21-.53.07.04.14.08.23.07.15-.39.27-.96.65-1.18l.43-.1c.08-.16.11-.5-.14-.3.54-.47.79-.85,1.12-.92.11-1.35.7-2.91,1.02-4.26l.13.07c.21-.34-.21-.24-.07-.47.11.15.35-.23.47.09.26-.51-.15-.73-.16-1.08-.18-.07.09.29-.15.2-.05-.06.22-.72-.07-.82.12-.12.33-.01.44.07-.04-.11-.08-.22-.12-.33.37-.4.55.97.99.57l-.02-.33c.33-.3.28.89.44.07-.13-.37-.55-.68-.68-.37-.06-.72-.68-.33-.66-1.14.17-.22.04.65.28.49.23-.38-.13-.77-.05-1.11-.11.38-.4.06-.46-.19.14-.41.28.27.3-.32-.17-.1-.29-.63-.41-.17-.38-.21.11-.61-.19-.93.27-.19.62.6.75-.04-.26.1-.35-.79-.73-.45.07-.25.28-.28.44-.09.16-.36-.47-.87.04-.99l-.26-.12c.09-.11.15-.27.29-.46,0-.32-.36-1.02.04-.99-.04-.1-.02-.83-.3-.55-.17.45.2.52-.17.77.3-.32-.04-.65-.14-.91l.15-.04c-.06-.15-.03-.51-.19-.61.09.12.19.06.23-.07l-.23-.16c-.12-.63.41-.15.34-.76l.18.47c-.04-.1.18-.31.11-.6-.21-.11-.47-.33-.64-.43-.09-.35.24-.15.02-.49l.26.45c.07.07.35-.3.35-.76-.07-.29-.38-.75-.5-.29,0-.23.13-.56.28-.37-.07-.52-.23.07-.36-.38.14-.22.35-.64.55-1.35.12.26.24.58.36.71v-.42c.29.6.22-.26.52.08.05-.26-.06-.59-.13-.9-.24.33-.41.07-.57-.37-.16-.43-.32-1.03-.54-1.01-.07-.99.32-.83.5-.91.33.13.56.16.95-.12-.34-.11.17-.45-.7-.32.97.05.38-.44,1.68-.26-.41.09-.11.2.1.32.22.12.36.25-.12.39.01-.15-.67-.11-.8-.07.45.17.23.44,1,.44.45-.04,1.1-.05.99-.28-.05-.25-.79.03-.51-.23,1.17-.09,1.05.3,1.38-.15-.42.03-.53-.23-.52-.4l.49-.11-.09.17c.78.12.23-.3.99-.26l.36.33c-.18.29-1.1-.13-.97.34.49.02.66-.22,1.12-.1-.1.04-.24.05-.35.09.18.02.35.63,1.06.27.36-.14.1-.17.1-.34.79-.05,1.03-.23,1.54-.26-.1.34.9.03.34.38-.26-.2-1.4-.18-1.69.14.29.4-.62-.06-.79.35.64,0,.6.41.71.67.18.02.35-.09.45-.13.07-.24-.16-.24-.17-.49.71.07,1.39-.07,1.78-.31.24.12.16.37-.12.39.34-.04,1.06-.05,1.63-.04.59,0,1.17.04,1.67.07-.12-.15.02-.2.26-.22.04.33,0,1.07.2.58.04-.35.13-.72.23-1.01-.11-.11-.09-.23.23-.33.04,0,.07,0,.09,0-.04.34-.17.08-.25.34.22.41-.35,1.15,0,1.46-.06-.61-.19-.56-.33-.39-.14.18-.31.46-.47.47.18.61-.22.12-.22.79.09.29.16.67.23,1.08.06.39.12.66.15.98-.3.77,0,1.96,0,2.65-.16.36-.51.12-.57.51,0,.46.38-.34.22.34l-.07-.07c.08.21-.24,1.25.27,1.45l-.38-.21c-.03.13.05.24.09.35-.12,0-.24.15-.32-.05-.26.42.04.88.05,1.34l.23-.29c.18.78-.05,1.31.03,2.06l-.22-.02.13.45c-.21-.11-.35.3-.17.54l-.54-1.17c.13-.32.27.35.49.15.19-.17.13-.87-.08-.99-.02.27.02.28.1.49-.31.09-.3-.32-.5-.52.01.14-.08.34.02.37-.15-.28-.17-.55-.18-1.01.12.31.19-.17.28-.05-.27-.04-.36-.48-.28-1.04.31-.41-.2-1.07-.12-1.72.28.27.5.61.61,1.01.14-.41,0-.46.13-.87-.21-.2-.52-.34-.64-.88l.2-.03c-.1-.49-.4-.49-.35-1.11.05-.53.07-1.07.09-1.58.01-.46.02-.89.03-1.25l.2-.07c-.34-.19-.25-.67-.28-1.06-.12,0-.25.03-.37.07-.27-.1-.7-.05-1.02-.02-.41.03-.91.04-1.16-.14-.91.08-1.77.15-2.63.2-.43.02-.87.04-1.31.05-.16,0-.31,0-.48,0-.14,0-.28-.01-.43-.02.01-.1.04-.2.07-.3-.14.22-.24-.17-.5-.13.43.24-.14.31-.08.49h-.03c-.11.13-.1.47-.04.77.03.15.07.29.12.41.02.04.05.14.08.25.03.1.05.2.08.29l-.2.03c.38.76.05,1.66-.02,2.6-.08.11-.27.28-.25.56.33.51.3.78.51,1.53,0,.55-.08,1.43-.21,1.99.23,1.03.27,2.07.29,3.12.02,1.01.03,2.17.01,3.35l-.26.13c.1,1.14-.19,2.4-.63,3.54-.44,1.14-1.03,2.16-1.43,3.05l-.25-.37c-.41.44-.65,1.19-.34,1.23-.44.42-.77,1.34-1.29,1.4-.45.41-.4.69-.69,1.08-.77.58-.98.91-1.39,1.73.04-.06.09-.12.14-.18-.02-.13-.16-.23-.31-.05-.09.35-.69,1.1-.1.99-.7.79-.54,2.19-1,3.08.14-.07.14.18.23.28-.04.46-.09.93-.13,1.38-.04.49-.05.95.06,1.36-.07.16-.23-.25-.24.15.05.24.17,0,.25.3.25,1.63-.26,3.3-.19,4.78.26,2.63.13,5.38.17,7.9l-.1-.03c.37.84-.38,1.98.18,2.65-.09.2-.04.76-.23.61.26.67-.25,1.88.09,2.85,0-.09-.01-.14-.05-.24-.22.98.08,1.85-.12,2.88-.04-.11-.07-.3-.17-.33-.19.4.41.95-.06,1.17,0,.23.24.16.22.02-.09,1.13-.06,2.31,0,3.49l.03.44.04.33c.04.22.09.44.16.64.14.41.33.79.57,1.13.2.56.1.69,0,.77-.1.06-.16.07.32.31,0,.12.16-.1.11-.02.34.13.18.79.56.71.03-.31.23-.06.31-.23.28.23.48.37.68.47.22.09.34.11.78,0l-.06.15c.96-.43,2.06-.2,2.87-.7,2.64-.04,5.22-.14,7.79-.22,1.28-.04,2.56-.08,3.84-.12l.96-.02c.2,0,.21-.02.31-.02.08,0,.16-.03.24-.04.31-.07.61-.22.89-.43.58-.39,1.02-1.11,1.18-1.9.15-.61.05-2.13.07-3.34-.01-2.53,0-5.06.13-7.64.4-1.21.39-1.3.23-2.63.06.05.08.14.14.05-.33-.07-.03-.94-.34-1.06.06-1.91-.03-3.67-.03-5.63.04.31.3.47.28.1l-.21-.39.09-.06c-.05-.25-.21-.53-.32-.27-.14-2.47-.05-4.91.07-7.35.07-1.31.14-2.2-.04-3.23-.16-1-.52-1.96-1.05-2.8-.19-.44-.52-.91-.93-1.32-.25-.23-.49-.46-.73-.69-.29-.26-.55-.54-.79-.78-2.32-3.49-3.28-7.07-3.64-11.14,0,0,.21.14.46.47.24.33.52.85.73,1.62Z"/>
        <path class="cls-2" d="M38.08,26.88c.16-.13.25-.56.47-.22-.15.04-.33.26-.47.22Z"/>
        <path class="cls-2" d="M39.77,14.85s.07-.28.09-.36c.01.21.15.36.06.57-.01-.22-.09-.15-.16-.22Z"/>
        <path class="cls-2" d="M36.97,13.12c.07-.15,1.15-.26,1.8-.28l-1.8.28Z"/>
        <path class="cls-2" d="M34.06,12.52c-.24-.12-.17-.19.15-.19.02.08-.08.12-.15.19Z"/>
        <path class="cls-2" d="M33.87,12.85c-.23,0-.34-.08-.45-.17,0,.12.53-.08.45.17Z"/>
        <path class="cls-2" d="M27.22,14.66c.01.28.13.88-.03,1.09.11-.24-.19-1.39.03-1.09Z"/>
        <path class="cls-2" d="M27.44,18.28c0,.09-.04.13,0,.23-.07.16-.17,0-.19-.15l.18-.08Z"/>
        <polygon class="cls-2" points="20.2 66.37 20.13 66.07 20.27 66.12 20.2 66.37"/>
        <path class="cls-2" d="M31.12,81.76c.3-.09.21.14.26.16-.27.01.1-.18-.26-.16Z"/>
        <polygon class="cls-2" points="43.07 80.85 42.98 80.88 42.93 80.59 43.07 80.85"/>
      </g>
    </g>
    <g>
      <path class="cls-2" d="M28.94,17.75c-.03.07.02.26-.02.11,0-.12.01-.21.02-.11Z"/>
      <path class="cls-2" d="M38.33,17.91c-.11.76-.26,0-.38.48-.01.03,0-.42-.03-.32-.12.59-.31.24-.45-.22v-.12c-.02-.09-.05.31-.08.25,0-.08,0-.11,0-.22,0,.24-.05.11-.07.29-.01-.09-.01-.28-.03-.38l-.02.27c-.05.64-.11-.05-.18.29,0-.06,0-.11,0-.17-.1.39-.23.32-.35.46,0-.09,0-.27,0-.38,0,.28-.04.36-.07.41-.01-.29-.05.27-.09.11v-.06c-.02.3-.04-.18-.06.19l-.02-.23c-.01.41-.04-.21-.06,0v.08c-.02.1-.03-.11-.05-.04v-.05c-.05.11-.07-.12-.07.2-.02-.26.04-.12.02-.49-.15.33-.3.27-.45.27-.02-.13-.03-.17-.03-.29-.01.06-.06.06-.07.22,0,0,0-.16-.02-.18-.03-.12-.03.35-.06.21.01-.09.02-.19.01-.31-.03.25-.06.21-.09.29,0-.05.01-.09.01-.19-.03.28-.06-.06-.09.12v-.19c-.04-.22,0,.39-.04.25,0-.06,0-.13,0-.21-.04.34-.1.23-.14.34,0-.03,0-.08,0-.08-.04.04-.08-.06-.13.08-.02-.08,0-.45-.04-.38,0,.37-.07.15-.05.57-.04-.06-.09-.2-.12-.07.02-.14-.02-.45.01-.49l-.02-.22c0-.15.02.05.02-.14-.02.01-.06.16-.07.1-.03.23-.05.65-.1.7.02-.14-.01-.41,0-.47l-.06.71s0-.29-.03-.2c0,.1,0,.16-.02.24,0-.04-.06.09-.07-.27,0-.14.02-.08,0-.21-.03,0-.03.13-.06.13v-.05c-.02-.05-.06.16-.04.36.01.01,0-.22.01-.11-.01.21-.05.27-.07.28,0-.06,0-.16.01-.26-.04.29-.08.38-.12.5,0,.17.02-.32.02-.22-.05-.24-.11.34-.16-.01,0-.03,0,.25,0,.2-.03-.02-.02-.27-.04-.18,0-.15-.02.05-.04.09,0,.11,0-.07.01-.09-.02.13-.12.35-.18.14,0,.1-.03.36-.05.35v-.23c0-.14-.04.02-.04-.18-.03.28.11-.24.07-.02,0-.19-.05.36-.04.05-.03,0-.05.27-.08.05,0,.04.02-.32,0-.3-.04.04-.01.11-.04.19l-.02.09c0,.22-.03-.03-.02.22,0-.18-.05.11-.05-.26v-.29s-.02.31-.03.44c0-.03,0-.09,0-.13,0,.44-.04-.04-.06.31-.03-.15-.09-.01-.1-.29-.03.13-.05.3-.08.2,0-.04.01-.05.02-.15-.02-.13-.02-.01-.04.06,0-.07-.04-.26-.06-.42-.03.13-.02.37-.02.52-.02-.44-.07.28-.1-.12,0-.06.04-.22.02-.33-.02-.44-.05.32-.09.11v.36c0-.23-.05.21-.04-.16-.01.13-.04-.12-.04.24-.06-.3-.15.18-.19-.46,0,.06-.03,0-.03.18.01.2.02-.14.03,0,0,.01,0,.11-.01.16-.02-.08-.03-.11-.02-.4-.04-.22-.04.6-.1.47,0-.15,0-.2-.02-.18l-.03.25c-.04-.06-.02-.33-.02-.58-.02.04-.04.03-.05.22l-.02-.31c.02.23-.02.15-.02.21v-.06c0-.1-.02-.04-.03,0,0,.15.02.22.04.26,0,.11-.02.08-.04.21,0-.24-.03-.17-.05-.2-.02-.05-.02.22-.02.21,0-.13-.03-.02-.01-.2,0-.04.01.12.02.01-.01-.09-.01-.32-.03-.15-.02.12,0,.48-.03.33,0-.06.01-.16.02-.25l-.03-.13v.22c0-.06,0-.08,0-.11,0,.23-.05.07-.06.34-.02.02-.03-.15-.05-.18v-.02c-.02-.13-.04-.04-.06.11v-.05s-.03.02-.05.15c-.03-.17,0-.84-.04-.56-.03,0-.04.41-.03.55-.05-.15-.1.21-.14-.13,0,.09,0,.15-.02.2-.07-.09-.14.26-.2-.17.02-.09,0-.22,0-.35-.02.2-.02-.21-.03.14,0,.2,0,.3.02.38-.04.11-.1.11-.13-.08.01.09,0,.15,0,.22,0-.32-.03-.37-.05-.26v.2s-.02-.2-.02-.2c0,.06,0,.41-.03.22,0-.08,0-.15,0-.21-.02.16-.06.43-.08.27l-.02-.29s-.03.2-.01.29c-.04-.17-.07-.19-.09-.44-.08.6-.18.63-.27.58v-.15c-.02-.14,0,.26-.03.15,0-.14-.02-.3,0-.47-.03-.15-.04.25-.07.32,0,.19.02-.12.01.12,0,.07-.05-.15-.05.14,0-.11,0-.33,0-.45l-.02.14c-.03-.34.06-.61.03-1.03l-.02.05c-.02-.3.05-.34,0-.45-.02.14-.04.57-.02.69-.04.08-.02.69-.07.67-.01-.17.04-.04.03-.28-.02-.23-.04.13-.06.05.02.11,0,.4-.01.46-.02-.14.02-.28-.02-.3,0,.17-.04.29,0,.41-.01.38-.03-.11-.05.19-.01-.27.03-.62,0-.75,0,.26-.05.35-.03.73-.01-.07-.02-.28,0-.44-.02-.16-.05.47-.06-.04v.26c-.01-.09-.02-.15-.03-.29-.02,0-.06.36-.06-.04,0,.04-.05.02-.03.3.03.17.03-.2.04.17-.02-.3-.04.04-.05.14v-.15c-.01.06-.03.03-.04.19,0-.09,0-.19,0-.23v.23c-.05.12-.02-.41-.05-.34l.03-.18s-.02-.18-.03-.11c0,.21-.02.47-.02.64-.02.09,0-.24-.03-.02l.03-.26c0-.07-.02-.35-.04-.35-.02.07-.04.38-.02.5-.01,0-.03-.13-.02-.28-.03.07,0,.23-.02.36-.01-.14-.04-.35-.06-.55l.03-.36h-.02c.02-.29-.01-.22,0-.52-.01-.05-.03.06-.04.13.04.48-.04.66-.03,1.1-.05.12-.03-1.07-.08-.38,0,.11-.02.45.02.32-.03-.05-.02.44-.06.26.03-.18-.03-.45,0-.71,0,.15.02.11.03.07-.01-.17,0-.44-.03-.44-.02.04-.04.05-.04.28,0,.25.03-.03.02.23-.04.09-.04-.3-.06.15.02-.03.03.23.03.4l-.03.11v-.17c-.04-.12,0,.3-.05.26l-.02-.33c.01-.29.06.13.06-.34-.03-.02-.04.22-.06.1,0-.04.01-.05.02-.09-.01-.02-.02-.63-.06-.27-.02.14,0,.17,0,.34-.05.05-.06.23-.09.26,0-.34-.05-.03-.02-.38.01.2.08.18.1-.14-.02-.4.04.06.05-.35-.04,0-.03-.41-.04-.67-.01-.02-.02.09-.03.13,0,.24,0,.24,0,.49-.04-.07-.08.07-.1.31-.01-.12,0-.37,0-.39-.05.07-.1.04-.14-.03.03.4-.05.09-.03.43.02.09.05.37.03.55-.02-.03,0-.17,0-.26-.02.22-.03-.35-.05,0,.04-.13,0-.49.02-.8-.03.18,0-.22-.03-.22-.03.17-.07.31-.11.38-.04-.3-.11,0-.15,0-.02-.16,0-.51-.03-.57-.03,0,.02.38-.02.22v-.07c0,.08-.07-.24-.08.27v-.38s0,.05,0,.09c0-.12,0-.24,0-.32-.02-.26-.05.04-.08.05l.02.23c-.04.18-.07-.05-.12.03v-.22s-.02.13-.02.13c0-.21-.02-.35-.03-.17l.07-.54c.02.13-.02.27,0,.49,0,.19.05.13.06-.08-.02-.02-.02.02-.03.1,0-.31.02-.3.03-.5,0,.01-.02-.08-.02.02.02-.15.03-.17.06-.18-.02.12,0,.19,0,.28,0-.27.03-.36.06-.28.02.31.06-.2.1-.12-.02.28-.03.5-.06.61.02.14.03,0,.05.13.01-.21.02-.52.05-.64v.2c.03-.1.03-.4.06-.35.06.1.12.1.17.13v.2c.03-.43.09-.16.12-.35.06.2.13-.19.16.16.1-.16.19-.31.3-.23l-.02.3c.02-.22.01.17.03.13-.02-.24.03-.31.04-.49.05.23.11-.02.15-.23v.2c.04-.38.1-.05.15.02,0,.08.02.27.03.25.03-.33.04-.3.09-.51.03,0,.08.08.11.21.12-.46.24-.17.36-.44v.24c.13-.51.27-.05.37-.31v.41c.02.13.06-.11.05-.4.03.12.08-.2.1.14.03.08.04-.19.07-.24.06.15.09.12.15.04l-.02-.03c0,.09,0,.26,0,.29.02-.11.08.11.06-.38.07.28.15-.23.22.15,0-.13.01-.16.02-.25.06,0,.12.26.16.04,0,.07-.01.23,0,.24.01-.05,0-.17.02-.25.09-.25.19.26.27.19.15-.26.31-.13.45-.17v.1c.05-.37.11.38.15-.18.01.09.04.04.03.23.04-.26.11.25.16-.09,0,0,0,.01-.01.05.06.22.11-.08.16.12,0,.04-.02.07-.02.17.02.19.05-.41.07.06.01,0,0-.24,0-.22.13.18.27-.12.4-.22.1.28,0,.79.08.44,0,.09,0-.18,0-.08.03-.13.05.53.07.28,0-.29.01-.16.01-.34.06.19.07.45.12.23v.15c.05-.43.11-.2.16-.7.3-.09.59-.37.88-.42.29.09.57-.13.87.13.07.4.07.39.15.23,0,.06,0,.08,0,.14,0-.33.05-.03.06-.34.11.06.21-.03.32-.03-.02.04-.03.3,0,.28l.02-.21v.09s.03-.21.02-.32c.28-.28.56.37.83.29.07.14.16.01.23-.06.21.44.4.79.61.48,0,0-.03.85-.12,1.04Z"/>
      <path class="cls-2" d="M28.98,17.72c0,.16.03.25.01.47,0-.15-.02-.33-.01-.47Z"/>
      <path class="cls-2" d="M29.63,19.4s0,.07.01.09c0,.01-.02.15-.02.06,0-.01,0-.09.01-.16Z"/>
      <path class="cls-2" d="M29.8,19.5c0,.15-.04.26-.06.28l.06-.28Z"/>
      <path class="cls-2" d="M29.96,20.1c.01.12,0,.19,0,.19,0-.08,0-.12,0-.19Z"/>
      <path class="cls-2" d="M29.97,19.77s.02.08.03.17c0-.12-.03.08-.03-.17Z"/>
      <path class="cls-2" d="M30.31,20.19s.03-.13.03.03c0-.11-.04.19-.03-.03Z"/>
      <path class="cls-2" d="M30.46,19.97s0,.04.01,0c0,.07,0,.17,0,.19v-.18Z"/>
      <polygon class="cls-2" points="33.32 19.39 33.3 19.46 33.31 19.31 33.32 19.39"/>
      <path class="cls-2" d="M34.57,19.38c.02-.09.01.14.01.16-.02.01,0-.18-.01-.16Z"/>
      <polygon class="cls-2" points="35.25 18.65 35.24 18.65 35.24 18.36 35.25 18.65"/>
    </g>
    <g>
      <path class="cls-2" d="M21.12,47.86c-.1.07.05.26-.06.11.01-.12.03-.21.06-.11Z"/>
      <path class="cls-2" d="M46.77,48.03c-.31.76-.71,0-1.05.48-.04.03.01-.42-.08-.32-.33.59-.84.24-1.24-.22l.02-.12c-.08-.09-.17.31-.25.25,0-.08.03-.11,0-.22-.02.24-.15.11-.18.29-.03-.09-.03-.28-.07-.38l-.05.27c-.13.64-.31-.05-.48.29,0-.06.03-.11.01-.17-.28.39-.63.32-.94.46.01-.09.02-.27,0-.38-.02.28-.11.36-.2.41-.04-.29-.14.27-.24.11v-.06c-.06.3-.1-.18-.16.19l-.05-.23c-.03.41-.11-.21-.17,0v.08c-.05.1-.08-.11-.14-.04v-.05c-.13.11-.2-.12-.2.2-.04-.26.12-.12.05-.49-.4.33-.82.27-1.23.27-.05-.13-.08-.17-.09-.29-.04.06-.15.06-.19.22.01,0-.03-.16-.05-.18-.07-.12-.08.35-.16.21.03-.09.04-.19.03-.31-.07.25-.16.21-.24.29.01-.05.03-.09.03-.19-.09.28-.16-.06-.24.12l.03-.19c-.13-.22-.04.39-.15.25.03-.06.02-.13.02-.21-.1.34-.27.23-.37.34,0-.03,0-.08,0-.08-.11.04-.23-.06-.35.08-.04-.08.01-.45-.1-.38,0,.37-.2.15-.13.57-.1-.06-.26-.2-.33-.07.05-.14-.05-.45.03-.49l-.06-.22c0-.15.06.05.04-.14-.04.01-.16.16-.2.1-.08.23-.15.65-.27.7.06-.14-.03-.41,0-.47l-.18.71s0-.29-.07-.2c0,.1-.02.16-.04.24-.02-.04-.17.09-.19-.27-.02-.14.07-.08.02-.21-.08,0-.08.13-.16.13v-.05c-.05-.05-.15.16-.1.36.04.01-.01-.22.04-.11-.04.21-.13.27-.2.28.03-.06.02-.16.03-.26-.1.29-.21.38-.33.5,0,.17.04-.32.06-.22-.15-.24-.31.34-.43-.01.02-.03.01.25,0,.2-.07-.02-.07-.27-.11-.18,0-.15-.06.05-.11.09-.02.11-.01-.07.03-.09-.07.13-.33.35-.49.14,0,.1-.09.36-.13.35v-.23c-.02-.14-.1.02-.11-.18-.08.28.29-.24.19-.02-.03-.19-.14.36-.12.05-.07,0-.14.27-.21.05.02.04.06-.32,0-.3-.1.04-.03.11-.11.19l-.05.09c0,.22-.09-.03-.05.22-.01-.18-.15.11-.14-.26v-.29s-.06.31-.09.44c0-.03-.02-.09-.02-.13,0,.44-.1-.04-.16.31-.09-.15-.23-.01-.28-.29-.07.13-.13.3-.22.2.02-.04.04-.05.04-.15-.05-.13-.06-.01-.11.06.01-.07-.1-.26-.16-.42-.07.13-.05.37-.05.52-.06-.44-.2.28-.28-.12.02-.06.1-.22.04-.33-.06-.44-.13.32-.23.11l.03.36c-.05-.23-.15.21-.14-.16-.03.13-.12-.12-.11.23-.17-.3-.41.18-.52-.46-.02.06-.09,0-.07.18.04.2.06-.14.07,0-.02.01-.03.11-.03.16-.05-.08-.09-.11-.04-.4-.12-.22-.12.6-.27.47,0-.15,0-.2-.05-.18l-.08.25c-.1-.06-.05-.33-.06-.58-.05.04-.11.03-.14.22l-.06-.31c.05.23-.04.15-.07.21l.02-.06c0-.11-.07-.04-.1,0,0,.15.07.22.1.26-.03.11-.07.08-.1.21.01-.24-.08-.17-.13-.2-.05-.05-.05.22-.07.21,0-.13-.08-.02-.04-.2.02-.04.04.12.06.01-.03-.09-.03-.32-.09-.15-.05.12.01.48-.08.33.02-.06.03-.16.05-.25l-.09-.13v.22c-.02-.06,0-.08-.01-.11-.03.23-.13.07-.15.34-.04.02-.09-.15-.13-.18v-.02c-.04-.13-.11-.04-.15.11v-.05s-.09.02-.13.15c-.07-.17-.02-.84-.1-.56-.07,0-.11.41-.08.55-.13-.15-.27.21-.39-.13-.02.09,0,.15-.04.2-.19-.09-.4.26-.55-.17.05-.09,0-.22,0-.35-.04.2-.05-.21-.07.14,0,.2,0,.3.05.38-.11.11-.28.11-.34-.08.03.09,0,.15-.02.22,0-.32-.07-.37-.14-.26v.2s-.05-.2-.05-.2c-.02.06-.03.41-.09.22,0-.08,0-.15-.02-.21-.06.16-.16.43-.23.27l-.06-.29s-.08.2-.03.29c-.12-.17-.2-.19-.23-.44-.21.6-.5.63-.74.58v-.15c-.06-.14-.03.26-.07.15.02-.14-.05-.3,0-.47-.09-.15-.12.25-.18.32,0,.19.05-.12.04.12-.01.07-.13-.15-.14.14-.02-.11,0-.33,0-.45l-.06.14c-.07-.34.16-.61.08-1.03l-.05.05c-.05-.3.14-.34,0-.45-.06.14-.1.57-.05.69-.12.08-.05.69-.18.67-.03-.17.1-.04.08-.28-.06-.23-.12.13-.17.05.06.11,0,.4-.03.46-.06-.14.04-.28-.05-.3-.02.17-.1.29-.03.41-.03.38-.09-.11-.14.19-.03-.27.09-.62,0-.75.02.26-.12.35-.07.73-.04-.07-.04-.28-.01-.44-.06-.16-.14.47-.15-.04l-.02.26c-.02-.09-.04-.15-.07-.29-.05,0-.16.36-.15-.04-.02.04-.13.02-.08.3.07.17.08-.2.12.17-.05-.3-.1.04-.14.14v-.15c-.03.06-.09.03-.1.19.02-.09,0-.19-.01-.23l-.03.23c-.1.12-.02-.41-.12-.34l.07-.18s-.05-.18-.09-.11c-.02.21-.05.47-.07.64-.05.09-.02-.24-.08-.02l.07-.26c.01-.07-.05-.35-.12-.35-.05.07-.12.38-.04.5-.04,0-.09-.13-.06-.28-.08.07.01.23-.06.36-.03-.14-.12-.35-.17-.55l.07-.36h-.05c.06-.29-.03-.22,0-.52-.03-.05-.07.06-.11.13.1.48-.11.66-.08,1.1-.13.12-.08-1.07-.22-.38.02.11-.04.45.04.32-.08-.05-.06.44-.15.26.07-.18-.08-.45.03-.71,0,.15.06.11.07.07-.03-.17,0-.44-.08-.44-.05.04-.12.05-.11.28,0,.25.08-.03.05.23-.1.09-.12-.3-.16.15.07-.03.08.23.08.4l-.08.11v-.17c-.11-.12-.02.3-.14.26l-.06-.33c.03-.29.17.13.15-.34-.08-.02-.1.22-.17.1.02-.04.04-.05.05-.09-.03-.02-.05-.63-.16-.27-.06.14-.01.17-.02.34-.12.05-.16.23-.24.26.02-.34-.14-.03-.05-.38.04.2.22.18.26-.14-.04-.4.1.06.12-.35-.1,0-.09-.41-.11-.67-.03-.02-.05.09-.07.13-.01.24.02.24.03.49-.11-.07-.22.07-.28.31-.04-.12-.03-.37.02-.39-.13.07-.27.04-.4-.03.08.4-.14.09-.08.43.07.09.12.37.09.55-.04-.03,0-.17-.02-.26-.05.22-.08-.35-.13,0,.12-.13.02-.49.05-.8-.09.18,0-.22-.08-.22-.09.17-.19.31-.29.38-.12-.3-.3,0-.41,0-.06-.16-.02-.51-.08-.57-.07,0,.05.38-.05.22v-.07c-.02.08-.18-.24-.22.27l.03-.38s-.04.05-.05.09c0-.12-.02-.24,0-.32-.07-.26-.14.04-.21.05l.05.23c-.12.18-.2-.05-.32.03v-.22s-.07.13-.07.13c.02-.21-.05-.35-.08-.17l.18-.54c.05.13-.06.27-.02.49.03.19.14.13.15-.08-.04-.02-.04.02-.08.1-.01-.31.05-.3.08-.5-.02.01-.05-.08-.06.02.04-.15.09-.17.16-.18-.05.12.03.19,0,.28,0-.27.07-.36.16-.28.06.31.17-.2.27-.12-.04.28-.09.5-.16.61.06.14.07,0,.14.13.03-.21.05-.52.14-.64v.2c.08-.1.08-.4.18-.35.17.1.34.1.46.13v.2c.08-.43.24-.16.33-.35.16.2.35-.19.43.16.28-.16.53-.31.83-.23l-.05.3c.05-.22.03.17.09.13-.06-.24.07-.31.11-.49.13.23.3-.02.42-.23v.2c.12-.38.26-.05.41.02.02.08.04.27.09.25.08-.33.12-.3.24-.51.08,0,.22.08.31.21.32-.46.65-.17.98-.44l.02.24c.32-.51.72-.05.99-.31l-.03.41c.09.13.2-.11.17-.4.09.12.22-.2.27.14.09.08.11-.19.18-.24.18.15.24.12.41.04l-.04-.03c-.02.09-.02.26.02.29.06-.11.23.11.17-.38.18.28.42-.23.59.15-.01-.13.03-.16.05-.25.16,0,.32.26.45.04.02.07-.04.23.02.24.04-.05,0-.17.05-.25.25-.25.51.26.74.19.41-.26.84-.13,1.23-.17v.1c.13-.37.3.38.41-.18.03.09.12.04.1.23.1-.26.29.25.44-.09-.01,0-.02.01-.04.05.15.22.29-.08.45.12-.02.04-.05.07-.05.17.06.19.15-.41.18.06.04,0,.03-.24,0-.22.35.18.73-.12,1.1-.22.26.28.02.79.22.44.02.09.01-.18.02-.08.08-.13.12.53.18.28-.02-.29.04-.16.04-.34.16.19.19.45.32.23v.15c.14-.43.31-.2.44-.7.82-.09,1.61-.37,2.41-.42.79.09,1.57-.13,2.37.13.19.4.2.39.41.23,0,.06-.02.08,0,.14.01-.33.15-.03.17-.34.3.06.57-.03.88-.03-.05.04-.07.3-.02.28l.06-.21v.09s.09-.21.05-.32c.77-.28,1.52.37,2.27.29.18.14.43.01.63-.06.57.44,1.09.79,1.68.48,0,0-.08.85-.32,1.04Z"/>
      <path class="cls-2" d="M21.23,47.83c.02.16.09.25.03.47,0-.15-.04-.33-.03-.47Z"/>
      <path class="cls-2" d="M23.02,49.51s.03.07.03.09c-.02.01-.04.15-.06.06.02-.01.02-.09.03-.16Z"/>
      <path class="cls-2" d="M23.47,49.61c0,.15-.1.26-.16.28l.16-.28Z"/>
      <path class="cls-2" d="M23.9,50.21c.04.12.03.19-.02.19,0-.08.01-.12.02-.19Z"/>
      <path class="cls-2" d="M23.93,49.88s.05.08.07.17c0-.12-.08.08-.07-.17Z"/>
      <path class="cls-2" d="M24.85,50.3s.07-.13.09.03c-.02-.11-.11.19-.09-.03Z"/>
      <path class="cls-2" d="M25.28,50.08s.02.04.04,0c.03.07,0,.17-.02.19v-.18Z"/>
      <polygon class="cls-2" points="33.09 49.5 33.04 49.57 33.05 49.43 33.09 49.5"/>
      <path class="cls-2" d="M36.51,49.49c.05-.09.03.14.04.16-.04.01.02-.18-.04-.16Z"/>
      <polygon class="cls-2" points="38.36 48.76 38.34 48.77 38.35 48.47 38.36 48.76"/>
    </g>
    <g>
      <path class="cls-2" d="M21.24,68.25c-.09.07.05.26-.06.11.01-.12.03-.21.06-.11Z"/>
      <path class="cls-2" d="M46.53,68.42c-.3.76-.7,0-1.04.48-.04.03.01-.42-.08-.32-.32.59-.83.24-1.22-.22l.02-.12c-.07-.09-.17.31-.25.25,0-.08.03-.11,0-.22-.02.24-.14.11-.18.29-.03-.09-.03-.28-.07-.38l-.05.27c-.13.64-.31-.05-.48.29,0-.06.03-.11.01-.17-.28.39-.62.32-.93.46.01-.09.02-.27,0-.38-.02.28-.11.36-.19.41-.04-.29-.14.27-.24.11v-.06c-.06.3-.1-.18-.16.19l-.05-.23c-.03.41-.1-.21-.16,0v.08c-.05.1-.08-.11-.13-.04v-.05c-.13.11-.2-.12-.19.2-.04-.26.12-.12.05-.49-.4.33-.81.27-1.21.27-.05-.13-.07-.17-.08-.29-.04.06-.15.06-.19.22.01,0-.03-.16-.05-.18-.07-.12-.08.35-.16.21.03-.09.04-.19.03-.31-.07.25-.16.21-.24.29.01-.05.03-.09.03-.19-.09.28-.16-.06-.24.12l.03-.19c-.12-.22-.04.39-.14.25.03-.06.02-.13.02-.21-.1.34-.26.23-.36.34,0-.03,0-.08,0-.08-.11.04-.22-.06-.34.08-.04-.08.01-.45-.1-.38,0,.37-.2.15-.13.57-.1-.06-.26-.2-.32-.07.04-.14-.05-.45.03-.49l-.06-.22c0-.15.06.05.04-.14-.04.01-.16.16-.2.1-.08.23-.15.65-.27.7.06-.14-.03-.41,0-.47l-.17.71s0-.29-.07-.2c0,.1-.02.16-.04.24-.02-.04-.17.09-.19-.27-.02-.14.07-.08.02-.21-.08,0-.08.13-.16.13v-.05c-.05-.05-.15.16-.09.36.03.01-.01-.22.04-.11-.04.21-.12.27-.2.28.03-.06.02-.16.03-.26-.1.29-.21.38-.32.5,0,.17.04-.32.06-.22-.15-.24-.3.34-.42-.01.02-.03.01.25,0,.2-.07-.02-.07-.27-.11-.18,0-.15-.06.05-.1.09-.02.11-.01-.07.03-.09-.07.13-.33.35-.48.14,0,.1-.09.36-.13.35v-.23c-.02-.14-.1.02-.11-.18-.07.28.29-.24.19-.02-.03-.19-.14.36-.12.05-.07,0-.14.27-.21.05.02.04.06-.32,0-.3-.1.04-.03.11-.11.19l-.05.09c0,.22-.09-.03-.05.22-.01-.18-.15.11-.13-.26v-.29s-.06.31-.09.44c0-.03-.02-.09-.01-.13,0,.44-.1-.04-.15.31-.09-.15-.23-.01-.27-.29-.07.13-.13.3-.21.2.02-.04.04-.05.04-.15-.05-.13-.06-.01-.11.06.01-.07-.1-.26-.16-.42-.07.13-.05.37-.05.52-.06-.44-.2.28-.27-.12.02-.06.1-.22.04-.33-.06-.44-.13.32-.23.11l.03.36c-.05-.23-.15.21-.14-.16-.03.13-.12-.12-.11.24-.17-.3-.41.18-.51-.46-.02.06-.08,0-.07.18.04.2.06-.14.07,0-.02.01-.03.11-.03.16-.05-.08-.09-.11-.04-.4-.12-.22-.12.6-.27.47,0-.15,0-.2-.05-.18l-.08.25c-.1-.06-.05-.33-.06-.58-.05.04-.11.03-.14.22l-.06-.31c.05.23-.04.15-.07.21l.02-.06c0-.1-.07-.04-.1,0,0,.15.07.22.1.26-.03.11-.07.08-.1.21.01-.24-.08-.17-.12-.2-.05-.05-.05.22-.07.21,0-.13-.08-.02-.04-.2.02-.04.04.12.06.01-.03-.09-.03-.32-.09-.15-.05.12.01.48-.08.33.02-.06.03-.16.05-.25l-.08-.13v.22c-.02-.06,0-.08-.01-.11-.03.23-.13.07-.15.34-.04.02-.09-.15-.13-.18v-.02c-.04-.13-.11-.04-.15.11v-.05s-.09.02-.12.15c-.07-.17-.02-.84-.1-.56-.07,0-.11.41-.08.55-.13-.15-.27.21-.39-.13-.02.09,0,.15-.04.2-.18-.09-.39.26-.54-.17.05-.09,0-.22,0-.35-.04.2-.05-.21-.07.14,0,.2,0,.3.05.38-.11.11-.28.11-.34-.08.03.09,0,.15-.02.22,0-.32-.07-.37-.13-.26v.2s-.05-.2-.05-.2c-.02.06-.03.41-.09.22,0-.08,0-.15-.02-.21-.06.16-.15.43-.22.27l-.06-.29s-.08.2-.03.29c-.12-.17-.19-.19-.23-.44-.2.6-.5.63-.73.58v-.15c-.06-.14-.03.26-.07.15.02-.14-.05-.3,0-.47-.09-.15-.12.25-.18.32,0,.19.05-.12.04.12-.01.07-.13-.15-.14.14-.02-.11,0-.33,0-.45l-.06.14c-.07-.34.15-.61.08-1.03l-.05.05c-.05-.3.14-.34,0-.45-.06.14-.1.57-.05.69-.12.08-.05.69-.18.67-.03-.17.1-.04.08-.28-.06-.23-.12.13-.17.05.06.11,0,.4-.03.46-.06-.14.04-.28-.05-.3-.01.17-.1.29-.03.41-.03.38-.09-.11-.14.19-.03-.27.09-.62,0-.75.02.26-.12.35-.07.73-.04-.07-.04-.28-.01-.44-.06-.16-.13.47-.15-.04l-.02.26c-.02-.09-.04-.15-.07-.29-.05,0-.16.36-.15-.04-.02.04-.13.02-.08.3.07.17.08-.2.12.17-.05-.3-.1.04-.14.14v-.15c-.03.06-.09.03-.1.19.02-.09,0-.19-.01-.23l-.02.23c-.1.12-.02-.41-.12-.34l.07-.18s-.05-.18-.09-.11c-.02.21-.05.47-.07.64-.05.09-.02-.24-.08-.02l.07-.26c.01-.07-.05-.35-.12-.35-.05.07-.12.38-.04.5-.04,0-.09-.13-.06-.28-.08.07.01.23-.06.36-.03-.14-.12-.35-.17-.55l.07-.36h-.05c.06-.29-.03-.22,0-.52-.03-.05-.07.06-.1.13.1.48-.11.66-.08,1.1-.13.12-.08-1.07-.22-.38.02.11-.04.45.04.32-.08-.05-.06.44-.15.26.07-.18-.08-.45.03-.71,0,.15.06.11.07.07-.03-.17,0-.44-.08-.44-.05.04-.12.05-.11.28,0,.25.08-.03.05.23-.1.09-.12-.3-.16.15.06-.03.08.23.08.4l-.07.11v-.17c-.11-.12-.02.3-.14.26l-.05-.33c.03-.29.17.13.15-.34-.08-.02-.1.22-.17.1.02-.04.04-.05.05-.09-.03-.02-.05-.63-.16-.27-.06.14-.01.17-.02.34-.12.05-.16.23-.24.26.02-.34-.14-.03-.05-.38.04.2.22.18.26-.14-.04-.4.1.06.12-.35-.1,0-.09-.41-.11-.67-.03-.02-.05.09-.07.13-.01.24.02.24.03.49-.11-.07-.21.07-.27.31-.04-.12-.02-.37.02-.39-.13.07-.27.04-.39-.03.08.4-.14.09-.08.43.07.09.12.37.09.55-.04-.03,0-.17-.02-.26-.05.22-.08-.35-.13,0,.12-.13.02-.49.04-.8-.09.18,0-.22-.08-.22-.08.17-.19.31-.28.38-.12-.3-.3,0-.41,0-.06-.16-.02-.51-.08-.57-.07,0,.05.38-.05.22v-.07c-.02.08-.18-.24-.21.27l.03-.38s-.04.05-.05.09c0-.12-.02-.24,0-.32-.06-.26-.14.04-.21.05l.05.23c-.12.18-.2-.05-.32.03v-.22s-.07.13-.07.13c.02-.21-.05-.35-.08-.17l.18-.54c.05.13-.05.27-.02.49.03.19.13.13.15-.08-.04-.02-.04.02-.07.1-.01-.31.05-.3.08-.5-.02.01-.05-.08-.06.02.04-.15.08-.17.16-.18-.05.12.03.19,0,.28,0-.27.07-.36.16-.28.06.31.16-.2.26-.12-.04.28-.09.5-.15.61.06.14.07,0,.13.13.03-.21.05-.52.14-.64v.2c.08-.1.08-.4.17-.35.16.1.33.1.46.13v.2c.07-.43.24-.16.33-.35.16.2.34-.19.43.16.28-.16.53-.31.82-.23l-.05.3c.05-.22.03.17.08.13-.06-.24.07-.31.11-.49.13.23.3-.02.41-.23v.2c.12-.38.26-.05.4.02.02.08.04.27.09.25.08-.33.12-.3.23-.51.08,0,.22.08.3.21.32-.46.64-.17.97-.44l.02.24c.32-.51.71-.05.98-.31l-.03.41c.08.13.19-.11.17-.4.09.12.21-.2.27.14.09.08.11-.19.18-.24.17.15.24.12.4.04l-.04-.03c-.02.09-.02.26.02.29.06-.11.23.11.16-.38.18.28.41-.23.58.15-.01-.13.03-.16.05-.25.15,0,.32.26.44.04.02.07-.04.23.02.24.04-.05,0-.17.05-.25.25-.25.51.26.73.19.4-.26.82-.13,1.21-.17v.1c.13-.37.3.38.4-.18.03.09.12.04.09.23.1-.26.29.25.44-.09-.01,0-.02.01-.04.05.15.22.28-.08.44.12-.02.04-.05.07-.05.17.06.19.15-.41.18.06.04,0,.03-.24,0-.22.35.18.72-.12,1.08-.22.26.28.02.79.22.44.02.09.01-.18.01-.08.08-.13.12.53.18.28-.02-.29.04-.16.04-.34.16.19.19.45.32.23v.15c.14-.43.31-.2.43-.7.81-.09,1.58-.37,2.37-.42.78.09,1.54-.13,2.34.13.19.4.2.39.4.23,0,.06-.02.08,0,.14.01-.33.14-.03.16-.34.29.06.56-.03.86-.03-.05.04-.07.3-.01.28l.06-.21v.09s.09-.21.05-.32c.76-.28,1.5.37,2.24.29.18.14.43.01.62-.06.57.44,1.08.79,1.65.48,0,0-.08.85-.31,1.04Z"/>
      <path class="cls-2" d="M21.35,68.22c.02.16.09.25.03.47,0-.15-.04-.33-.03-.47Z"/>
      <path class="cls-2" d="M23.11,69.91s.03.07.03.09c-.02.01-.04.15-.06.06.02-.01.02-.09.03-.16Z"/>
      <path class="cls-2" d="M23.56,70.01c0,.15-.1.26-.16.28l.16-.28Z"/>
      <path class="cls-2" d="M23.98,70.61c.04.12.03.19-.02.19,0-.08.01-.12.02-.19Z"/>
      <path class="cls-2" d="M24.01,70.27s.05.08.07.17c0-.12-.08.08-.07-.17Z"/>
      <path class="cls-2" d="M24.92,70.7s.07-.13.09.03c-.02-.11-.11.19-.09-.03Z"/>
      <path class="cls-2" d="M25.34,70.48s.02.04.04,0c.03.07,0,.17-.02.19v-.18Z"/>
      <polygon class="cls-2" points="33.04 69.89 33 69.96 33 69.82 33.04 69.89"/>
      <path class="cls-2" d="M36.42,69.88c.05-.09.03.14.04.16-.04.01.02-.18-.04-.16Z"/>
      <polygon class="cls-2" points="38.24 69.16 38.22 69.16 38.23 68.86 38.24 69.16"/>
    </g>
  </g>
  <g>
    <g>
      <rect class="cls-1" x="56.67" y="77.67" width="14.04" height="3"/>
      <g>
        <path class="cls-2" d="M70.62,81.21c.12-.07-.07-.26.08-.11-.02.12-.04.21-.08.11Z"/>
        <path class="cls-2" d="M71.08,80.26c-.38-.2-.38-.43-.34-.68.04-.24.11-.54-.14-.65-.03-.04.42-.17.32-.25-.41-.12-.37-.43-.15-1.06-.09-.1-.16-.23-.25-.37l.13-.12c-.07-.09-.49.31-.56.25.05-.08.11-.11.15-.22-.18.24-.29.11-.44.29,0-.09.1-.28.08-.38l-.2.27c-.24.32-.32.31-.42.26-.09-.05-.21-.14-.36.03.02-.06.05-.11.04-.17-.44.39-.85.32-1.27.46.02-.09.03-.27,0-.38-.02.28-.15.36-.26.41-.05-.29-.19.27-.32.11v-.06c-.08.3-.13-.18-.21.19l-.06-.23c-.04.41-.14-.21-.22,0v.08c-.07.1-.11-.11-.18-.04v-.05c-.17.11-.26-.12-.26.2-.06-.26.16-.12.07-.49-.53.33-1.08.27-1.61.27-.06-.13-.1-.17-.11-.29-.05.06-.2.06-.25.22.02,0-.03-.16-.06-.18-.1-.12-.11.35-.21.21.04-.09.06-.19.04-.31-.09.25-.21.21-.32.29.02-.05.04-.09.04-.19-.12.28-.21-.06-.32.12l.04-.19c-.17-.22-.05.39-.19.25.03-.06.02-.13.03-.21-.13.34-.35.23-.48.34,0-.03,0-.08,0-.08-.15.04-.3-.06-.46.08-.06-.08.02-.45-.13-.38,0,.37-.26.15-.17.57-.13-.06-.34-.2-.43-.07.06-.14-.06-.45.05-.49l-.08-.22c.01-.15.08.05.06-.14-.05.01-.21.16-.26.1-.1.23-.19.65-.36.7.08-.14-.04-.41,0-.47l-.23.71c-.05.02-.01-.29-.09-.2,0,.1-.03.16-.05.24-.02-.04-.23.09-.25-.27-.02-.14.09-.08.03-.21-.1,0-.11.13-.21.13v-.05c-.07-.05-.2.16-.13.36.05.01-.02-.22.05-.11-.05.21-.16.27-.26.28.03-.06.03-.16.04-.26-.14.29-.28.38-.43.5,0,.17.06-.32.08-.22-.19-.24-.4.34-.56-.01.03-.03.01.25.01.2-.09-.02-.09-.27-.15-.18,0-.15-.09.05-.11.09-.01.11-.01-.07.02-.09-.07.13-.19.35-.35.14.03.1.06.36.04.35l-.08-.23c-.08-.14-.07.02-.16-.18.06.28.13-.24.14-.02-.1-.19.03.36-.07.05-.06,0,.03.27-.13.05.03.04-.12-.32-.16-.3-.07.04.03.11.01.19l.02.09c.14.22-.08-.03.11.22-.14-.18,0,.11-.27-.26l-.2-.29s.17.31.25.44c-.02-.03-.08-.09-.12-.13.36.44-.11-.04.16.31-.09-.08-.13-.08-.18-.1-.02-.05-.05-.1-.19-.22.13.1.3.14.2.05-.04-.01-.05,0-.15-.06-.13-.08-.01-.02.06,0-.07-.03-.26-.12-.42-.1.13.03.37.02.52.03-.11-.05-.15.08-.15.16,0,.09.04.19.07.31.04.12.08.25.08.36.02.03,0-.02-.08-.05-.08-.01-.28-.11-.36-.15-.21-.09-.12-.02.01.02.13.05.3.06.19.04.13.01.27.03.4.06-.23-.04.24-.13-.17-.1.14-.04-.17-.03.22-.12-.09-.01-.14-.02-.2-.02-.01-.02-.01.03-.01.09v.16c0,.1,0,.21,0,.31,0,.09,0,.22,0,.28,0-.01-.02-.02-.05-.03-.05-.01-.14-.01-.3.03.06-.02,0,0,.18-.07.2-.05-.14.06,0,.02.01,0,.11-.04.16-.06-.08,0-.11.01-.4.13-.22.14.6-.31.47-.34-.15.12-.2.16-.18.13.07-.07.14-.15.22-.24l.04-.03c0,.06-.29.33-.53.58.09-.04.13-.03.31-.22l-.22.31c.15-.23.16-.15.23-.21l-.07.06c-.08.1.03.04.08,0,.11-.15.11-.22.13-.26.11-.11.11-.08.23-.21-.19.24-.07.17-.06.2,0,.05.18-.22.18-.21-.08.13.03.02-.1.2-.04.04.05-.12-.04-.01-.04.09-.18.32-.03.15.11-.12.28-.48.24-.33-.05.07-.11.16-.17.25v.13s.11-.22.11-.22c-.03.06-.03.07-.05.11.14-.23.13-.07.25-.34.03-.02-.01.15,0,.18v.02c-.02.13.06.04.12-.11v.05s.05-.02.09-.15c0,.17-.11.84-.01.56.07,0,.12-.41.11-.55.01.15.3-.21.43.13.02-.09,0-.15.06-.2.25.09.52-.26.71.17-.07.09,0,.22,0,.35.06-.2.07.21.09-.14,0-.2,0-.3-.07-.38.15-.11.37-.11.45.08-.04-.09,0-.15.02-.22-.01.32.1.37.18.26v-.2s.06.2.06.2c.03-.06.03-.41.12-.22,0,.08,0,.15.02.21.08-.16.2-.43.3-.27l.08.29s.11-.2.04-.29c.16.17.26.19.31.44.27-.6.66-.63.97-.58v.15c.07.14.03-.26.09-.15-.03.14.06.3,0,.47.12.15.16-.25.23-.32.01-.19-.06.12-.05-.12.01-.07.17.15.19-.14.03.11,0,.33,0,.45l.07-.14c.09.34-.21.61-.11,1.03l.07-.05c.06.3-.18.34,0,.45.07-.14.14-.57.07-.69.15-.08.07-.69.24-.67.05.17-.13.04-.1.28.08.23.16-.13.23-.05-.08-.11-.01-.4.04-.46.08.14-.05.28.06.3.02-.17.13-.29.03-.41.04-.38.12.11.19-.19.04.27-.12.62,0,.75-.02-.26.16-.35.09-.73.05.07.06.28.02.44.07.16.18-.47.2.04l.03-.26c.02.09.06.15.09.29.06,0,.21-.36.2.04.02-.04.17-.02.11-.3-.09-.17-.11.2-.16-.17.06.3.13-.04.19-.14v.15c.04-.06.11-.03.13-.19-.02.09-.01.19.01.23l.03-.23c.13-.12.03.41.15.34l-.09.18s.06.18.12.11c.03-.21.06-.47.09-.64.07-.09.03.24.1.02l-.09.26c-.01.07.06.35.15.35.06-.07.15-.38.06-.5.05,0,.11.13.08.28.11-.07-.01-.23.08-.36.04.14.15.35.23.55l-.1.36h.06c-.08.29.04.22,0,.52.04.05.1-.06.14-.13-.13-.48.14-.66.11-1.1.17-.12.11,1.07.29.38-.03-.11.06-.45-.05-.32.11.05.07-.44.2-.26-.1.18.1.45-.04.71,0-.15-.08-.11-.1-.07.04.17,0,.44.1.44.07-.04.16-.05.15-.28,0-.25-.1.03-.06-.23.14-.09.16.3.21-.15-.09.03-.11-.23-.11-.4l.1-.11-.02.17c.16.12.05-.3.2-.26l.07.33c-.04.29-.22-.13-.2.34.1.02.13-.22.23-.1-.02.04-.05.05-.07.09.04.02.07.63.21.27.07-.14.02-.17.02-.34.16-.05.21-.23.31-.26-.02.34.18.03.07.38-.05-.2-.29-.18-.34.14.06.4-.13-.06-.16.35.13,0,.12.41.14.67.04.02.07-.09.09-.13.02-.24-.03-.24-.03-.49.14.07.28-.07.36-.31.05.12.03.37-.02.39.17-.07.36-.04.52.03-.11-.4.18-.09.11-.43-.09-.09-.16-.37-.11-.55.05.03,0,.17.02.26.07-.22.11.35.18,0-.16.13-.03.49-.06.8.11-.18,0,.22.11.22.11-.17.25-.31.38-.38.16.3.4,0,.54,0,.07.16.02.51.1.57.09,0-.07-.38.07-.22v.07c.03-.08.24.24.28-.27l-.04.38s.05-.05.07-.09c0,.12.03.24-.01.32.09.26.18-.04.27-.05l-.06-.23c.16-.18.27.05.42-.03v.22s.09-.13.09-.13c-.02.21.06.35.11.17l-.24.54c-.07-.13.07-.27.03-.49-.04-.19-.18-.13-.2.08.05.02.06-.02.1-.1.02.31-.06.3-.11.5.03-.01.07.08.08-.02-.06.15-.11.17-.21.18.06-.12-.03-.19-.01-.28,0,.27-.1.36-.21.28-.08-.31-.22.2-.35.12.05-.28.12-.5.21-.61-.08-.14-.09,0-.18-.13-.04.21-.07.52-.18.64v-.2c-.11.1-.11.4-.23.35-.22-.1-.44-.1-.6-.13v-.2c-.1.43-.31.16-.44.35-.21-.2-.46.19-.57-.16-.37.16-.7.31-1.08.23l.06-.3c-.07.22-.04-.17-.11-.13.08.24-.09.31-.14.49-.17-.23-.39.02-.54.23v-.2c-.16.38-.34.05-.53-.02-.02-.08-.06-.27-.11-.25-.1.33-.16.3-.31.51-.11,0-.29-.08-.4-.21-.42.46-.85.17-1.28.44l-.03-.24c-.42.51-.94.05-1.3.31l.03-.41c-.11-.13-.26.11-.23.4-.11-.12-.28.2-.35-.14-.12-.08-.14.19-.24.24-.23-.15-.32-.12-.54-.04l.05.03c.02-.09.03-.26-.03-.29-.08.11-.3-.11-.22.38-.23-.28-.54.23-.77-.15.02.13-.04.16-.06.25-.11,0-.19-.06-.33-.1-.18-.04-.33-.05-.49.06-.05-.07.12-.23-.02-.24-.09.05-.03.17-.15.25-.68.25-1.11-.26-1.62-.19-.53.13-1.05.16-1.53.16,0-.83.02-1.65,0-2.44h.1s-.04-.05-.06-.08c-.02.02-.03.05-.03.08-.02.05-.02.11-.01.16,0,.11.05.21.09.29,0-.24,0-.52-.33-.66.08-.15,0-.52.22-.43-.16-.21-.07-.53.04-.81.06-.14.12-.27.15-.41.03-.12,0,0,0,.03-.02.04-.05.09-.09.13,0-.04.01-.06.05-.09.05.12.08.22.08.31,0,.01,0,.07,0,.05v-.1s-.02-.2-.02-.2c-.02-.27-.05-.57.05-.82.04.08.07.2.17.25.19-.09-.41-.75.06-.57,0-.12-.24-.26-.22-.17.03-.2.05-.4.06-.62.65.03,1.15-.19,1.83-.28.71.28.35.79.66.44.06.09-.03-.18,0-.08.14-.13.39.53.44.28-.1-.29.04-.16.02-.34.37.19.45.45.66.23v.15c.18-.43.41-.2.57-.7,1.07-.09,2.1-.37,3.15-.42,1.03.09,2.05-.13,3.1.13.25.4.26.39.54.23-.01.06-.03.08,0,.14.01-.33.19-.03.22-.34.39.06.75-.03,1.15-.03-.06.04-.09.3-.02.28l.08-.21v.09c.06-.05.12-.21.07-.32.25-.07.5-.08.75-.06l.67.05.72.08c.94.12,1.73.26,2.67.22h.02c-.12.55,0,1.02.06,1.45-.22.85-.42,1.52-.52,2.12-.03.15-.05.3-.06.44-.01.09-.02.18-.02.27,0,.18.04.37.12.56,0,0-.85-.1-1.04-.42Z"/>
        <path class="cls-2" d="M70.47,81.24c-.03-.16-.11-.25-.04-.47,0,.15.05.33.04.47Z"/>
        <path class="cls-2" d="M68.14,79.56s-.03-.07-.04-.09c.03-.01.06-.15.08-.06-.03.01-.02.09-.04.16Z"/>
        <path class="cls-2" d="M67.54,79.46c0-.15.14-.26.21-.28l-.21.28Z"/>
        <path class="cls-2" d="M66.98,78.86c-.05-.12-.03-.19.03-.19,0,.08-.02.12-.03.19Z"/>
        <path class="cls-2" d="M66.94,79.19s-.07-.08-.09-.17c0,.12.11-.08.09.17Z"/>
        <path class="cls-2" d="M65.74,78.77s-.09.13-.12-.03c.03.11.14-.19.12.03Z"/>
        <path class="cls-2" d="M65.18,78.99s-.03-.04-.05,0c-.03-.07,0-.17.03-.19l.02.18Z"/>
        <path class="cls-2" d="M57.86,79.26s.07,0,.1,0l-.16-.03.06.03Z"/>
        <path class="cls-2" d="M59.86,78.76c.06-.09.04.14.05.16-.05.01.02-.18-.05-.16Z"/>
        <polygon class="cls-2" points="62.28 78.03 62.26 78.04 62.27 77.74 62.28 78.03"/>
      </g>
    </g>
    <g>
      <rect class="cls-1" x="61.92" y="67.71" width="3.48" height="9.84"/>
      <g>
        <path class="cls-2" d="M65.33,78.09c.1-.07-.05-.26.06-.11-.01.12-.03.21-.06.11Z"/>
        <path class="cls-2" d="M65.77,77.23c-.76-.31,0-.73-.48-1.07-.03-.04.42.01.32-.08-.59-.33-.24-.86.22-1.27l.12.02c.09-.08-.31-.17-.25-.25.08,0,.11.03.22,0-.24-.02-.11-.15-.29-.18.09-.03.28-.03.38-.07l-.27-.05c-.64-.13.05-.32-.29-.5.06,0,.11.03.17.01-.39-.29-.32-.64-.46-.96.09.01.27.02.38,0-.28-.02-.36-.11-.41-.2.29-.04-.27-.15-.11-.25h.06c-.3-.07.18-.1-.19-.16l.23-.05c-.41-.03.21-.11,0-.17h-.08c-.1-.06.11-.09.04-.14h.05c-.11-.13.12-.2-.2-.2.26-.04.12.12.49.05-.33-.41-.27-.84-.27-1.26.13-.05.17-.08.29-.09-.06-.04-.06-.16-.22-.19,0,.01.16-.03.18-.05.12-.08-.35-.08-.21-.17.09.03.19.04.31.03-.25-.07-.21-.17-.29-.24.05,0,.09.03.19.02-.28-.07.06-.17-.12-.23h.19c.22-.17-.39.03-.25-.1.06.01.13-.01.21-.02-.34-.03-.23-.2-.34-.25.03,0,.08-.02.08-.02-.04-.08.06-.24-.08-.27.08-.09.45-.23.38-.32-.37.22-.15-.1-.57.24.06-.11.2-.36.07-.31.14-.07.45-.41.49-.36l.22-.25c.15-.11-.05.12.14-.06-.01-.04-.16-.06-.1-.15-.19.1-.53.35-.66.39-.03.02-.06.04-.09.04.2-.14.37-.41.47-.47-.29.24-.57.47-.82.71-.05.02.25-.29.12-.2-.08.1-.16.16-.24.24.02-.04-.19.09.07-.27.09-.14.12-.08.18-.21-.08,0-.17.13-.24.13l.03-.05c-.01-.05-.23.16-.32.36.02.01.13-.22.1-.11-.17.21-.26.27-.31.28.05-.06.11-.16.17-.26-.12.14-.21.23-.28.31-.04.07.05.13.1.19-.04.17,0-.32-.02-.22.05-.06.07-.07.1-.05.01.02-.06.05-.09.09-.08.07-.15.13-.21-.05.02-.03.01.25,0,.2-.07-.02-.07-.27-.12-.18,0-.15-.06.05-.11.09-.03.11-.01-.07.03-.09-.03.06-.12.15-.22.2-.05.02-.1.03-.15.03.06,0,.12-.03.15-.09.01.05.07.14.15.21.11.08.13.14.11.13l-.11-.23c-.09-.14-.05.02-.16-.18.06.14.06.08.07.01,0-.02,0-.03,0-.05-.02-.01-.04-.03-.05-.03-.02-.01-.02,0,.02.05-.01-.19.15.36.01.05-.04,0,.08.27-.09.05.03.04-.16-.32-.19-.3-.04.04.05.11.05.19l.04.09c.16.22-.07-.03.13.22-.15-.18.02.11-.27-.26l-.22-.29s.2.31.29.44c-.03-.03-.08-.09-.12-.13.38.44-.09-.04.19.31-.09-.08-.12-.08-.16-.1-.02,0-.05,0-.19-.12.13.17.3.34.2.29-.04-.04-.05-.06-.15-.15-.13-.08-.01.03.06.11-.07-.06-.26-.15-.42-.23.13.15.37.3.52.41-.44-.26.28.28-.12.07-.06-.05-.22-.19-.33-.22-.44-.2.32.27.11.21l.36.17c-.23-.08.21.16-.16,0,.13.07-.12.02.24.15-.3-.01.18.2-.46.15.06.02,0,.05.18.07.2,0-.14-.05,0-.04.01.01.11.03.16.04-.08.01-.11.04-.4-.02-.22.08.6.09.47.2-.15,0-.2,0-.18.05l.25.08c-.06.1-.33.06-.58.06.04.05.03.12.22.14l-.31.06c.23-.05.15.04.21.07l-.06-.02c-.1,0-.04.07,0,.1.15,0,.22-.07.26-.1.11.03.08.07.21.1-.24-.01-.17.09-.2.13-.05.05.22.05.21.07-.13,0-.02.08-.2.04-.04-.02.12-.04.01-.06-.09.03-.32.03-.15.09.12.05.48-.01.33.08-.06-.02-.16-.03-.25-.05l-.13.09h.22c-.06.02-.08,0-.11.01.23.03.07.13.34.15.02.04-.15.09-.18.14h-.02c-.13.04-.04.11.11.16h-.05s.02.09.15.13c-.17.07-.84.02-.56.1,0,.07.41.11.55.08-.15.13.21.28-.13.4.09.02.15,0,.2.05-.09.19.26.41-.17.56-.09-.06-.22,0-.35,0,.2.05-.21.06.14.07.2,0,.3,0,.38-.05.11.11.11.29-.08.35.09-.03.15,0,.22.02-.32,0-.37.08-.26.14h.2s-.2.05-.2.05c.06.02.41.03.22.09-.08,0-.15,0-.21.02.16.07.43.16.27.23l-.29.06s.2.08.29.03c-.17.12-.19.2-.44.24.6.21.63.52.58.76h-.15c-.14.06.26.03.15.07-.14-.02-.3.05-.47,0-.15.09.25.12.32.18.19,0-.12-.05.12-.04.07.01-.15.13.14.14-.11.02-.33,0-.45,0l.14.06c-.34.07-.61-.16-1.03-.09l.05.05c-.3.05-.34-.14-.45,0,.14.06.57.11.69.06.08.12.69.06.67.18-.17.04-.04-.1-.28-.08-.23.06.13.12.05.18.11-.06.4,0,.46.02-.14.02-.28-.01-.3.02.17,0,.29.02.41,0,.38-.02-.11.03.19,0-.27.04-.62.03-.75.08.26-.03.35,0,.73-.07-.07.02-.28.05-.44.07-.16.05.47-.05-.04.06l.26-.05c-.09.03-.15.05-.29.09,0,.03.36-.06-.04.07.04,0,.02.04.3-.08.17-.08-.2.05.17-.08-.3.11.04,0,.14-.03l-.15.06c.06-.02.03,0,.19-.07-.09.04-.19.08-.23.1l.23-.1c.12-.05-.41.2-.34.18l-.18.07s-.18.1-.11.09c.21-.1.47-.23.64-.33.09-.05-.24.14-.02.02l-.26.14c-.07.03-.35.21-.35.24.07-.02.38-.21.5-.3,0,0-.13.1-.28.19.07-.03.23-.15.36-.23-.14.1-.35.26-.55.44l-.36.24v.03c-.29.18-.22.19-.52.39-.05.06.06.01.13-.03.48-.44.66-.48,1.1-.87.12-.09-1.07.98-.38.41.11-.11.45-.42.32-.32-.05.07.44-.41.26-.23l-.02.02c-.09.09-.18.18-.29.29-.1.1-.21.22-.33.33l-.08.07c.15-.14.11-.13.07-.1-.17.18-.44.42-.44.47h.01c.06-.04.12-.07.31-.27.24-.25-.06.03.2-.23.12-.09-.23.3.2-.15-.05.03.19-.23.35-.4l.1-.11-.15.17c-.09.12.28-.3.24-.26l-.27.33c-.24.29.08-.13-.32.34.01.02.21-.22.14-.1-.04.04-.05.05-.09.09-.01.02-.48.63-.15.27.13-.14.13-.17.26-.34.08-.05.2-.23.23-.26-.22.34.01.03-.22.38.1-.2.06-.18-.2.14-.27.4,0-.06-.33.35.05,0-.25.41-.42.67.01.02.11-.09.16-.13.18-.24.15-.24.33-.49.02.07.18-.07.35-.31-.05.12-.19.37-.24.39.13-.07.19-.04.24.03.11-.4.12-.09.21-.43,0-.09.1-.37.18-.55,0,.03-.07.17-.1.26.1-.22-.1.35.04,0-.09.13-.18.49-.3.8.12-.18-.08.22-.01.22.13-.17.23-.31.3-.38.04.3.19,0,.27,0,.06.16.02.51.08.57.07,0-.05-.38.05-.22v.07c.02-.08.19.24.22-.27l-.03.38s.04-.05.06-.09c0,.12.02.24,0,.32.07.26.14-.04.21-.05l-.05-.23c.12-.18.21.05.33-.03v.22s.07-.13.07-.13c-.02.21.05.35.09.17l-.19.54c-.05-.13.06-.27.02-.49-.03-.19-.14-.13-.16.08.04.02.04-.02.08-.1.01.31-.05.3-.08.5.02-.01.05.08.06-.02-.04.15-.09.17-.16.18.05-.12-.03-.19,0-.28,0,.27-.08.36-.17.28-.06-.31-.17.2-.27.12.04-.28.1-.5.16-.61-.07-.14-.07,0-.14-.13-.03.21-.05.52-.14.64v-.2c-.08.1-.1.4-.23.35-.22-.1-.44-.1-.6-.13l.05-.2c-.22.43-.35.16-.55.35-.12-.2-.6.19-.5-.16-.43.14-.9.29-1.25.25,0-.03,0-.06.01-.1l.3-.22c-.22.15.17-.21.13-.23-.24.3-.31.2-.49.31.23-.39-.02-.4-.23-.44l.2-.15c-.38.08-.05-.37.02-.6.08-.07.27-.2.25-.25-.33.04-.3-.03-.51-.13,0-.14.08-.38.21-.53-.23-.18-.27-.47-.29-.71-.02-.17-.01-.34-.15-.51l.24-.02c-.51-.33-.05-.73-.31-1.02l.41.03c.13-.09-.11-.2-.4-.18.12-.09-.2-.22.14-.28.08-.09-.19-.11-.24-.19.15-.18.12-.25.04-.42l-.03.04c.09.02.26.02.29-.02-.11-.06.11-.23-.38-.17.28-.18-.23-.42.15-.6-.13.02-.16-.03-.25-.05,0-.16.26-.33.04-.46.07-.03.23.04.24-.02-.05-.04-.17,0-.25-.05-.25-.26.26-.52.19-.76-.13-.21-.16-.42-.17-.63v-.43c0-.18,0-.37,0-.55l.1.03c-.37-.35.38-.42-.18-.8.09-.02.04-.2.23-.07-.26-.32.25-.37-.09-.83,0,.02.01.05.05.1.22-.12-.08-.57.12-.69.04.06.07.14.17.23.19.07-.41-.61.06-.24,0-.06-.24-.26-.22-.21.03-.08.05-.16.06-.26.52.03.86-.19,1.37-.28.32.14.42.34.47.46.09.12-.04.16.3-.02.09.09,0-.18.03-.08.32-.13.59.53.58.28-.02-.29.04-.16.04-.34.16.19.2.45.33.23v.15c.15-.43.3-.2.46-.7,1.36-.02,1.4-.06,1.9-.1l1.32-.14c.08.65.16,1.35.18,2.1-.02.41-.03.8-.02,1.2l.02,1c.01.4,0,.81-.13,1.22-.4.19-.39.21-.23.42-.06,0-.08-.02-.14,0,.33.01.03.15.34.17-.06.3.03.58.03.9-.04-.05-.3-.07-.28-.02l.21.06h-.09c.05.05.21.09.32.05.28.79-.37,1.56-.29,2.33-.14.18-.01.44.06.64-.44.59-.79,1.12-.48,1.72,0,0-.85-.08-1.04-.32Z"/>
        <path class="cls-2" d="M65.22,78.12c-.02-.16-.09-.25-.03-.47,0,.15.04.33.03.47Z"/>
        <path class="cls-2" d="M63.75,76.44s0-.07.02-.09c.01-.01.07-.15.05-.06-.01.01-.04.09-.06.16Z"/>
        <path class="cls-2" d="M63.57,76.34c.08-.15.18-.26.2-.28-.06.09-.13.19-.2.28Z"/>
        <path class="cls-2" d="M63.83,75.74c.09-.12.14-.19.14-.19-.06.08-.09.12-.14.19Z"/>
        <path class="cls-2" d="M63.57,76.07s.05-.08.11-.17c-.1.12.08-.08-.11.17Z"/>
        <path class="cls-2" d="M63.82,75.6s-.13.09.03-.03c-.11.09.19-.14-.03.03Z"/>
        <path class="cls-2" d="M63.6,75.68s.04-.03,0,0c.07-.04.17-.1.19-.11l-.18.11Z"/>
        <polygon class="cls-2" points="63.02 69.31 63.09 69.37 62.94 69.29 63.02 69.31"/>
        <path class="cls-2" d="M63.82,68.8c.08-.09-.06.14-.07.16-.03.01.11-.18.07-.16Z"/>
        <polygon class="cls-2" points="65.04 68.83 65.03 68.82 65.33 68.65 65.04 68.83"/>
      </g>
    </g>
    <g>
      <path class="cls-1" d="M63.69,67.59h0c-5.66,0-10.26-4.59-10.26-10.26v-15.18s20.51,0,20.51,0v15.18c0,5.66-4.59,10.26-10.26,10.26Z"/>
      <g>
        <path class="cls-2" d="M63.48,68.12c.16-.03.12-.09.08-.13-.02-.02-.03-.03-.02-.03,0,0,.02,0,.04.02.01,0,.03.01.04.02h.03s.02.02.02.02h0s0,0,0,0h0s0,0,0,0h0s0,0,0,0v-.43s0,.43,0,.43h0s0,0,0,0h0s0,0,0,0h0s0,.03,0,.03l-.02.04s-.03.04-.05.05c-.03.02-.08.02-.13-.03Z"/>
        <path class="cls-2" d="M64.74,67.92c.46-.45,1.01-.51,1.58-.64.29-.05.58-.11.85-.22.27-.11.53-.23.71-.47.1-.08.14.39.36.18.69-.97,2.14-1.55,3.37-2.26l.03.14c.23-.14.16-.61.35-.79.06.05.04.14.16.15-.15-.2.2-.45.13-.64.14-.03.29.09.45.03l-.14-.28c-.32-.68.57-.85.51-1.52.05.05.06.12.14.11.02-.98.43-2,.4-3.01.09.05.25.11.37.07-.28-.09-.29-.4-.34-.66.3-.1-.24-.46-.07-.75l.06.03c-.3-.23.18-.34-.19-.53l.23-.15c-.41-.1.21-.34,0-.53h-.08c-.1-.17.11-.27.04-.44l.05-.02c-.11-.39.12-.62-.2-.61.26-.14.12.38.49.16-.33-1.29-.27-2.62-.27-3.92.13-.15.17-.24.29-.27-.06-.13-.06-.49-.22-.61,0,.04.16-.08.18-.15.12-.24-.35-.26-.21-.52.09.1.19.14.31.1-.25-.22-.21-.52-.29-.78.05.04.09.1.19.09-.28-.29.06-.52-.12-.77l.19.09c.22-.4-.39-.12-.25-.47.06.08.13.05.21.07-.34-.33-.23-.85-.34-1.18.03.02.08.01.08.01-.04-.35.06-.72-.08-1.11.08-.14.45.05.38-.33-.37.01-.15-.64-.57-.42.06-.31.2-.86.07-.99.14.11.45-.21.49.05.07-.07.15-.15.22-.24.15.01-.05.24.14.15-.01-.17-.16-.57-.1-.72-.23-.2-.65-.17-.7-.44.14.05.41-.43.47-.36-.19,0-.39.03-.58.11l-.2.13c-.11.02.25-.29.01-.2-.08.1-.19.16-.29.24-.01-.04-.42.09-.28-.27.02-.14.23-.08.17-.21-.23,0-.29.13-.5.13v-.05c-.13-.05-.42.16-.31.36.08.01,0-.22.11-.11-.07.11-.15.17-.23.22-.07.04-.16.06-.3.06.08-.06.07-.16.11-.26-.33.29-.68.38-1.05.5,0,.17.14-.32.19-.22-.47-.24-.98.34-1.37-.01.06-.03.03.25.03.2-.23-.02-.22-.27-.37-.18-.01-.15-.19.05-.34.09-.08.11-.04-.07.09-.09-.21.13-1.07.35-1.56.14,0,.1-.3.36-.42.35l.04-.23c-.1-.14-.38.02-.4-.18-.24.28.93-.24.6-.02-.08-.19-.46.36-.38.05-.23,0-.45.27-.66.05.06.04.18-.32,0-.3-.32.04-.09.11-.35.19l-.16.09c-.01.22-.29-.03-.17.22-.04-.18-.47.11-.44-.26l.04-.29c-.14.02-.23.31-.34.44-.02-.03-.05-.09-.05-.13-.02.44-.33-.04-.5.31-.29-.15-.74-.01-.88-.29-.23.13-.43.3-.69.2.05-.04.12-.05.14-.15-.16-.13-.2-.01-.35.06.03-.07-.32-.26-.5-.42-.22.13-.15.37-.17.52-.2-.44-.63.28-.89-.12.08-.06.33-.22.14-.33-.2-.44-.41.32-.74.11l.08.36c-.15-.23-.49.21-.45-.16-.11.13-.39-.12-.35.24-.54-.3-1.32.18-1.65-.46-.08.06-.27,0-.23.18.13.2.18-.14.23,0-.07.01-.08.11-.09.16-.17-.08-.3-.11-.14-.4-.37-.22-.39.6-.86.47.02-.15-.01-.2-.15-.18l-.26.25c-.31-.06-.18-.33-.18-.58-.16.04-.37.03-.44.22-.07-.1-.13-.21-.18-.31.11.23-.08.15-.12.21l.04-.06c-.03-.1-.16-.04-.21,0,.06.15.18.22.24.26-.03.11-.1.08-.12.21-.04-.24-.18-.17-.26-.2-.11-.05.02.22,0,.21-.07-.13-.12-.02-.17-.2,0-.04.13.12.11.01-.1-.09-.22-.32-.25-.15,0,.12.33.48.1.33-.01-.06-.07-.16-.1-.25l-.25-.13.17.22c-.07-.06-.07-.08-.1-.11.11.17-.02.13-.01.2.03.05.07.1.14.18.02.07-.15-.02-.18.03l-.02-.03c-.13-.02-.04.17.11.31l-.05-.03s.02.15.15.24c-.17.04-.84-.21-.56.02,0,.17.41.25.55.21-.02.02-.03.04-.03.06,0,.04,0,.1,0,.15,0,.11.03.21.04.32.03.21.03.42-.14.61.09.06.15.02.2.14-.09.6.26,1.26-.17,1.74-.09-.17-.22-.01-.35,0,.2.14-.21.17.14.22.2-.01.3,0,.38-.17.11.36.11.9-.08,1.1.09-.1.15-.02.22.06-.32-.03-.37.24-.26.44l.2.03-.2.13c.06.08.41.08.22.28-.08.01-.15.02-.21.06.16.21.43.5.27.72l-.29.18c.03.1.2.26.29.09-.17.38-.19.63-.44.75.6.66.63,1.61.58,2.38l-.15-.02c-.14.21.26.11.15.25-.14-.07-.3.16-.47,0-.15.29.25.38.32.57.19.03-.12-.15.12-.12.07.03-.15.41.14.45-.11.07-.33.02-.45-.02l.14.18c-.34.22-.61-.5-1.03-.27l.05.17c-.3.16-.34-.44-.45-.02.14.18.57.33.69.17.08.37.69.17.67.58-.17.11-.04-.32-.28-.25-.23.19.13.38.05.55.11-.19.4-.03.46.09-.14.21-.28-.13-.3.16.17.05.29.31.41.08.38.1-.11.3.19.46-.27.09-.62-.3-.75.02.26-.05.35.39.73.23-.07.13-.28.14-.44.05-.16.18.47.43-.04.49l.27.05c-.08.05-.14.12-.28.2,0,.14.38.41-.02.43.04.04.04.35.31.21.16-.2-.21-.2.16-.33-.29.15.04.27.16.36l-.15.03c.07.06.06.2.23.22-.09-.03-.19,0-.22.06l.24.03c.15.23-.4.12-.29.36l-.21-.16s-.16.16-.07.27c.22.01.49.03.66.04.13.11-.22.11.03.2l-.3-.12c-.08-.01-.31.2-.26.39.1.11.45.2.51-.01.03.09-.07.26-.23.23.12.19.21-.09.39.05-.11.11-.22.4-.36.61l-.41-.07.05.13c-.33-.07-.17.16-.49.17-.01.11.13.19.23.25.35-.44.72.04,1.1-.22.26.26-.87.66-.08.71.08-.11.45-.1.24-.25.06.22.44-.06.42.24-.26-.08-.28.4-.66.29.13-.05.02-.19-.04-.22-.1.16-.41.19-.29.41.12.11.23.28.41.14.21-.14-.14-.18.13-.23.22.19-.08.45.36.3-.12-.13.08-.31.23-.4l.19.11-.16.06c.06.34.3-.09.44.18l-.18.31c-.27.11-.17-.43-.52-.13.11.18.34.1.36.32-.06-.01-.1-.05-.16-.06.03.07-.41.5.06.53.2.04.15-.07.29-.18.26.22.46.17.62.31-.28.2.23.3-.18.37.07-.22-.26-.56-.6-.44-.23.36-.12-.25-.49-.06.16.23-.15.48-.32.68.04.08.18.07.25.08.21-.13.13-.21.32-.38.17.28.48.43.76.38,0,.15-.2.31-.31.24.34.2.6.52.85.79.06-.45.38.17.45-.19-.1-.19-.05-.5.14-.58.07.09-.11.14-.13.23.25-.09-.03.42.29.22-.34-.09-.34.35-.57.57.31.01-.14.17.07.33.31.02.66.04.93.14.16.44.8.41,1.08.53.1.2-.14.49.01.61.21.07-.02-.41.23-.15l-.05.06c.11-.05.49.44.73-.04l-.2.34s.13-.02.19-.05c-.03.12,0,.25-.11.3.13.31.44.07.65.11l-.09-.26c.4-.07.61.15.98.14l-.04.22.23-.1c-.08.21.11.37.25.19-.21.18-.42.33-.64.47-.15-.15.21-.24.14-.47-.06-.2-.4-.19-.5,0,.13.04.14,0,.26-.07,0,.31-.2.27-.34.46.07,0,.16.11.19.01-.16.12-.32.14-.55.09.18-.08-.05-.21.03-.28-.07.26-.32.29-.59.14-.12-.35-.6.05-.9-.16.23-.21.46-.36.68-.4-.15-.19-.22-.07-.37-.27-.16.16-.34.43-.65.45l.06-.19c-.28.01-.39.27-.67.08-.48-.32-.95-.63-1.31-.87l.1-.18c-.44.24-.73-.33-1.1-.37-.28-.51-1.04-.66-.96-1.12-.78-.58-1.39-1.23-1.84-2.15h.34c-.28-.04.09-.18-.03-.31-.12.29-.38-.07-.59-.11,0-.5-.42-.94-.76-1.26l.19-.08c-.5-.28-.29-.86-.34-1.36.07-.07.25-.2.2-.34-.36-.22-.38-.36-.62-.75-.02-.3.04-.8.16-1.09-.46-1.02-.17-2.06-.44-3.12l.24-.08c-.51-1.03-.05-2.29-.31-3.17l.41.08c.13-.28-.11-.63-.4-.56.12-.28-.2-.69.14-.86.08-.28-.19-.35-.24-.58.15-.56.12-.77.04-1.31l-.03.13c.09.06.26.06.29-.07-.11-.2.11-.73-.38-.53.28-.57-.23-1.33.15-1.88-.13.05-.16-.09-.25-.15,0-.25.06-.5.1-.75.02-.08.03-.34.03-.53,0-.2-.03-.39-.09-.58.07-.12.23.27.24-.07-.05-.22-.17-.05-.25-.34-.14-.89-.04-1.73.07-2.42.68.08,1.28.15,1.8.13.52-.06,1.09-.1,1.67-.13l.65-.03h.5c.66-.02,1.31,0,1.94-.02v.1c.4-.37.97.38,1.3-.18.1.09.38.04.3.23.33-.26.93.25,1.42-.09-.04,0-.07.01-.12.05.49.22.92-.08,1.43.12-.05.04-.15.07-.16.17.2.19.47-.41.58.06.11,0,.08-.24.01-.22,1.13.18,2.33-.12,3.5-.22.84.28.05.79.71.44.05.09.04-.18.05-.08.26-.13.4.53.58.28-.07-.29.12-.16.12-.34.51.19.62.45,1.02.23l-.03.15c.47-.43,1.02-.2,1.43-.7,1.81-.07,3.6-.13,5.36-.2.08,2.04.15,4.06.23,6.1-.09,2.52.13,4.99-.13,7.56-.4.6-.39.65-.23,1.3-.06-.03-.08-.07-.14-.02.33.03.03.46.34.53-.03.47-.02.93,0,1.39,0,.46,0,1.07-.05,1.63,0-.19-.26-.3-.27-.09l.17.25-.1.02c.03.15.16.34.29.2-.07,1.49-.65,2.92-1.45,4.13-.8,1.22-1.82,2.23-2.86,3.18-.59.34-1.28.99-1.89,1.42-2.12.71-3.97.79-6.06,1.14,0,0,.28-.86,1.05-1.1Z"/>
        <path class="cls-2" d="M63.09,68.14c-.06-.17-.27-.27-.08-.48.01.15.11.33.08.48Z"/>
        <path class="cls-2" d="M58.45,64.82s-.02-.1-.02-.13c.06.03.18-.05.17.05-.06-.03-.09.04-.16.08Z"/>
        <path class="cls-2" d="M57.51,63.93c.12-.09.39,0,.52.09l-.52-.09Z"/>
        <path class="cls-2" d="M57.15,62.68c.04-.16.1-.17.18-.07-.05.06-.11.05-.18.07Z"/>
        <path class="cls-2" d="M56.85,62.83c-.06-.08-.02-.17.02-.26-.1.08.19.13-.02.26Z"/>
        <path class="cls-2" d="M55.96,60.5s-.19-.12-.05-.23c-.08.1.27.19.05.23Z"/>
        <path class="cls-2" d="M55.4,59.5s.02-.06-.03-.09c.05-.08.17-.04.2.01l-.17.08Z"/>
        <polygon class="cls-2" points="60.55 43.26 60.41 43.33 60.43 43.19 60.55 43.26"/>
        <path class="cls-2" d="M71.48,43.25c.15-.09.1.14.13.16-.13.01.05-.18-.13-.16Z"/>
        <polygon class="cls-2" points="73.58 45.58 73.58 45.54 73.88 45.55 73.58 45.58"/>
      </g>
    </g>
    <g>
      <ellipse class="cls-1" cx="63.69" cy="53.2" rx="9.85" ry="2.04"/>
      <g>
        <path class="cls-2" d="M74.05,53.41c0-.31-.28.12-.08-.21.11.03.19.12.08.21Z"/>
        <path class="cls-2" d="M73.57,52.49c-.49.08-.68-.03-.94-.18-.25-.16-.52-.31-.84-.17-.07.01.14-.4-.03-.34-.66.41-1.35-.08-1.92-.64l.06-.11c-.11-.1-.32.26-.44.19.01-.08.06-.1.04-.21-.07.23-.25.07-.33.24-.04-.1,0-.28-.06-.39l-.11.26c-.28.61-.49-.11-.81.19.02-.06.05-.11.04-.17-.49.34-1.03.22-1.54.33.03-.09.06-.27.03-.37-.04.28-.2.34-.34.39-.04-.29-.24.25-.39.08l.02-.06c-.13.3-.16-.18-.27.18l-.06-.23c-.07.41-.16-.22-.26-.01v.08c-.09.1-.13-.11-.22-.04v-.05c-.2.1-.31-.13-.32.19-.06-.26.19-.11.09-.49-.65.31-1.31.24-1.96.26-.08-.13-.12-.17-.14-.29-.06.07-.24.06-.3.23.02,0-.05-.16-.08-.18-.12-.12-.12.36-.25.22.05-.09.06-.19.04-.31-.1.25-.25.22-.38.3.02-.05.05-.09.04-.19-.13.29-.26-.05-.38.13l.04-.19c-.21-.21-.04.39-.22.27.04-.06.02-.13.02-.21-.15.34-.41.25-.57.37,0-.03,0-.08,0-.08-.17.05-.36-.04-.55.12-.08-.08-.01-.45-.19-.37.04.37-.3.18-.16.59-.16-.05-.42-.16-.52-.02.06-.15-.12-.44,0-.49l-.12-.21c0-.15.11.04.06-.15-.07.02-.25.19-.31.13-.1.24-.16.68-.35.75.07-.16-.1-.4-.05-.47l-.18.74c-.06.03-.05-.29-.13-.18.02.1-.01.16-.03.24-.03-.04-.25.13-.33-.23-.05-.14.09-.09,0-.21-.12.02-.11.15-.23.17v-.05c-.1-.04-.22.19-.1.38.06,0-.06-.21.04-.12-.02.22-.15.3-.26.32.03-.07,0-.16,0-.27-.11.31-.25.43-.4.58.03.17,0-.32.05-.24-.28-.2-.38.43-.64.13.02-.04.07.24.06.19-.11,0-.16-.24-.21-.14-.04-.14-.07.07-.13.13,0,.11-.04-.06.02-.1-.07.15-.37.46-.64.33.03.09,0,.38-.05.38l-.06-.22c-.09-.11-.13.08-.21-.1,0,.29.28-.36.23-.11-.11-.17-.06.41-.14.11-.08.05-.06.31-.23.15.04.02-.06-.32-.13-.27-.11.09.01.11-.04.23v.11c.11.19-.1.02.06.21-.13-.14-.02.15-.23-.15l-.17-.24s.15.28.22.38c-.02-.02-.06-.06-.1-.09.18.2.07.07.01,0-.07-.08-.18-.15-.26-.18-.11-.04-.06-.04-.1-.06-.02-.01-.07-.02-.09-.01.08,0,.11-.03.13-.04.06-.03.21-.09.28-.17.04-.04.08-.08.12-.13,0-.02.06-.06.09-.08,0,0,0,.01,0,.02-.03.03-.05.03-.12.1-.07.11.03.03.09-.01-.05.04-.12.25-.12.42.14-.07.23-.3.31-.42-.16.42.31-.16.23.24-.05.04-.21.14-.18.28-.08.44.28-.23.34.01l.09-.35c-.02.23.26-.13.13.21.09-.11.12.17.21-.17.15.35.6-.01.61.63.05-.05.12.03.15-.15-.01-.21-.11.12-.11-.02.03,0,.06-.1.08-.14.06.1.11.14-.03.41.13.25.31-.55.49-.37-.04.14-.03.2.04.19l.17-.22c.13.08.02.34-.02.59.09-.03.18,0,.25-.17l.04.33c-.03-.24.09-.14.14-.19l-.05.05c0,.11.1.06.15.03.01-.15-.07-.23-.11-.28.06-.1.12-.07.19-.19-.06.24.1.19.16.23.06.06.11-.2.13-.19-.02.13.11.04.03.21-.03.04-.04-.13-.09-.03.03.1,0,.32.12.17.09-.11.05-.48.17-.31-.04.05-.07.15-.11.23l.11.14.04-.22c.01.06,0,.08,0,.11.07-.23.21-.05.27-.3.07-.01.12.17.18.2v.02c.05.14.16.07.24-.07v.05s.14,0,.2-.13c.09.18-.05.84.1.57.11,0,.21-.39.18-.53.18.17.43-.17.59.19.04-.09.02-.15.08-.19.28.11.62-.21.83.23-.09.09-.02.22-.02.35.08-.2.07.21.12-.13,0-.2.02-.3-.06-.38.18-.1.44-.08.53.11-.04-.1,0-.16.04-.21-.03.32.1.38.2.26l.02-.2.05.2c.04-.06.06-.41.14-.22,0,.08,0,.15.02.21.11-.16.25-.42.36-.25l.08.29s.13-.2.05-.28c.18.18.3.2.36.45.33-.6.78-.61,1.15-.58v.15c.09.14.04-.26.11-.16-.03.14.08.3,0,.47.15.15.18-.26.27-.32.01-.19-.07.12-.06-.12.01-.07.2.15.22-.14.04.11.01.33,0,.45l.08-.14c.12.34-.23.61-.11,1.03l.08-.05c.09.3-.21.35,0,.45.09-.15.15-.57.07-.7.18-.09.07-.7.26-.68.06.17-.16.05-.11.28.1.23.18-.14.27-.06-.09-.11-.03-.4.03-.46.1.13-.06.28.09.3.02-.17.14-.3.03-.41.04-.38.15.1.21-.2.06.27-.12.62.04.75-.03-.26.18-.36.08-.74.06.07.08.27.04.43.09.15.19-.48.24.03l.02-.27c.03.08.07.15.12.29.08,0,.22-.37.24.03.02-.04.2-.03.11-.31-.12-.16-.11.21-.19-.16.09.3.15-.05.21-.15l.02.15c.03-.06.12-.04.13-.2-.02.09,0,.19.03.23l.02-.24c.14-.13.06.41.2.33l-.1.19s.09.17.15.1c.02-.22.04-.48.05-.64.07-.1.06.24.12.01l-.08.26c-.01.07.1.35.21.33.06-.08.15-.4.03-.5.05,0,.14.12.11.28.12-.08-.04-.23.06-.37.06.14.21.33.31.52l-.08.37h.08c-.07.29.07.21.04.52.06.04.11-.07.15-.15-.2-.47.1-.68.01-1.11.19-.14.24,1.06.38.35-.05-.11.01-.46-.1-.31.13.03.03-.45.2-.29-.09.19.17.43.04.71,0-.15-.1-.1-.12-.05.07.16.04.44.17.43.07-.05.18-.07.14-.3-.03-.25-.12.04-.1-.22.14-.11.22.27.23-.18-.09.05-.15-.21-.17-.38l.1-.12v.17c.2.1.01-.31.19-.29l.13.32c0,.29-.27-.09-.18.37.12,0,.12-.23.25-.13-.02.04-.05.06-.07.1.04,0,.17.61.28.23.06-.15,0-.17-.03-.34.17-.08.2-.26.31-.31.03.34.21,0,.14.36-.09-.19-.35-.13-.37.2.13.39-.15-.03-.13.38.15-.01.2.38.27.63.05.01.07-.1.09-.15-.02-.24-.07-.23-.12-.48.18.04.32-.12.37-.37.08.11.1.35.04.39.18-.11.4-.12.6-.08-.2-.37.19-.14.04-.44-.11-.06-.25-.33-.24-.51.07.01.03.17.08.25.03-.23.19.32.19-.04-.14.16.07.48.1.8.09-.2.04.22.17.19.09-.2.22-.37.34-.47.25.24.45-.11.58-.17.13.12.18.48.29.51.1-.04-.2-.34,0-.23v.07c.03-.09.38.12.22-.37l.1.37s.03-.07.04-.12c.05.11.13.2.11.3.2.2.19-.12.27-.18l-.16-.17c.05-.24.29-.09.35-.25l.13.18v-.16c.11.18.3.22.19.05.09.19.11.38.13.61-.15-.05-.08-.28-.26-.41-.14-.12-.23,0-.15.2.07-.01.05-.06.05-.15.19.25.09.29.15.49.03-.03.13.02.08-.07.01.17-.05.23-.16.3.02-.15-.13-.15-.14-.24.12.25.04.38-.14.37-.22-.25-.19.31-.4.28-.02-.28-.02-.51.03-.66-.14-.09-.1.05-.25-.05.02.21.09.52,0,.68l-.07-.19c-.09.14,0,.43-.18.42-.3-.02-.57.06-.78.07l-.05-.2c-.02.45-.34.25-.46.46-.3-.14-.54.3-.73-.02-.43.23-.82.44-1.31.42l.05-.3c-.06.23-.08-.16-.15-.11.12.22-.08.32-.12.5-.24-.21-.48.07-.66.29l-.03-.2c-.16.4-.42.08-.66.04-.03-.08-.09-.27-.16-.24-.11.34-.18.32-.35.53-.14,0-.37-.06-.52-.18-.5.49-1.05.21-1.59.5l-.04-.24c-.52.52-1.18.05-1.63.31l.05-.41c-.14-.13-.32.1-.29.39-.14-.13-.36.19-.44-.15-.14-.08-.18.18-.31.23-.29-.16-.39-.14-.67-.08l.07.03c.03-.09.05-.26-.02-.29-.11.11-.37-.13-.3.36-.27-.29-.7.18-.96-.22.01.13-.06.15-.1.24-.26-.02-.51-.32-.74-.11-.03-.07.09-.22-.01-.24-.07.04-.02.17-.1.24-.45.2-.82-.35-1.21-.35-.72.16-1.43-.11-2.12-.24l.03-.09c-.33.29-.42-.51-.78-.04-.03-.11-.2-.12-.1-.28-.28.19-.44-.43-.87-.26.02.02.05,0,.1-.02-.2-.34-.64-.23-.94-.75.07,0,.16.04.23-.03-.01-.14-.14-.09-.29-.17-.14-.07-.26-.17-.1-.36-.08-.12-.26.03-.2.11-.09-.15-.19-.42-.23-.72-.06-.28-.02-.56.05-.84.08-.32.19-.46.3-.64.06-.09.12-.17.18-.25l.15-.16.31-.31.26-.22c.19-.16.34-.26.51-.36.61.06.32.72.57.26.06.08-.04-.18,0-.09.1-.17.38.43.4.16-.12-.26.02-.17-.03-.34.33.1.45.34.61.07l.02.15c.15-.48.49-.32.6-.85,1.37-.36,2.66-.78,4-.94,1.33,0,2.61-.25,3.95.03.31.4.33.39.67.24-.02.06-.04.08-.02.14.03-.33.24-.02.28-.34.49.07.95.01,1.46.04-.08.03-.14.3-.04.28l.11-.2v.09c.08-.04.16-.2.1-.31,1.32-.19,2.51.6,3.8.76.28.19.74.17,1.1.18.46.35.87.67,1.35,1l.37.25c.14.1.25.15.43.3.16.13.32.22.53.49.1.14.19.2.28.43.09.21.15.44.18.66,0,0-.23-.15-.5-.33-.28-.22-.65-.26-.89-.38Z"/>
        <path class="cls-2" d="M73.94,53.76c-.18-.03-.33.02-.44-.19.13.08.32.11.44.19Z"/>
        <path class="cls-2" d="M70.65,53.5s-.05-.06-.07-.08c.03-.02.03-.16.07-.08-.03.02,0,.09,0,.16Z"/>
        <path class="cls-2" d="M69.96,53.54c-.02-.15.11-.29.19-.32l-.19.32Z"/>
        <path class="cls-2" d="M69.24,53.05c-.07-.11-.07-.18,0-.19.02.08,0,.12,0,.19Z"/>
        <path class="cls-2" d="M69.24,53.38c-.05.01-.09-.07-.13-.15.02.12.11-.1.13.15Z"/>
        <path class="cls-2" d="M67.81,53.13s-.09.14-.14-.02c.05.11.14-.2.14.02Z"/>
        <path class="cls-2" d="M67.18,53.41s-.03-.03-.05,0c-.04-.06-.01-.17.02-.19l.03.18Z"/>
        <path class="cls-2" d="M55.38,53.13l.08-.04-.06.13s-.01-.06-.02-.09Z"/>
        <path class="cls-2" d="M57.42,52.73c.05-.1.07.13.09.14-.06.03,0-.18-.09-.14Z"/>
        <polygon class="cls-2" points="60.18 51.66 60.15 51.66 60.14 51.37 60.18 51.66"/>
      </g>
    </g>
    <g>
      <ellipse class="cls-1" cx="63.69" cy="41.8" rx="10.21" ry="2.04"/>
      <g>
        <path class="cls-2" d="M74.4,42.02c0-.33-.28.12-.08-.22.11.04.19.13.08.22Z"/>
        <path class="cls-2" d="M73.9,41.08c-.49.09-.69-.02-.97-.18-.26-.16-.54-.31-.87-.16-.07.01.13-.4-.04-.34-.67.42-1.39-.08-1.99-.64l.06-.11c-.11-.1-.33.26-.45.19,0-.08.06-.1.04-.21-.07.23-.26.07-.34.24-.04-.1-.01-.28-.07-.39l-.11.26c-.29.61-.51-.11-.83.19.02-.06.05-.11.04-.17-.5.34-1.06.22-1.59.33.03-.09.06-.27.03-.37-.04.28-.21.34-.35.39-.05-.29-.25.25-.4.08l.02-.06c-.13.3-.17-.18-.28.18l-.07-.23c-.07.41-.16-.22-.27-.01v.08c-.1.1-.14-.11-.23-.04v-.05c-.21.1-.32-.13-.33.19-.06-.26.2-.11.1-.49-.67.31-1.35.24-2.02.26-.08-.13-.13-.17-.15-.29-.07.07-.25.06-.31.23.02,0-.05-.16-.08-.18-.13-.12-.12.36-.26.22.05-.09.07-.19.04-.31-.11.25-.26.22-.39.3.02-.05.05-.09.04-.19-.14.29-.27-.05-.39.13l.04-.19c-.22-.21-.04.39-.23.27.04-.06.02-.13.03-.21-.15.34-.43.25-.59.37,0-.03,0-.08,0-.08-.18.05-.38-.04-.56.12-.08-.08,0-.45-.2-.37.04.37-.31.18-.17.59-.17-.05-.44-.16-.53-.02.06-.15-.12-.44,0-.49l-.13-.21c0-.15.11.04.06-.15-.07.02-.25.19-.32.13-.1.24-.17.67-.37.75.08-.16-.1-.4-.04-.47l-.2.74c-.06.03-.05-.29-.14-.18.02.1-.02.16-.04.24-.03-.04-.26.13-.34-.23-.05-.14.1-.09,0-.21-.12.02-.11.15-.23.17v-.05c-.1-.04-.23.19-.11.38.06,0-.06-.21.04-.12-.02.22-.16.3-.28.32.03-.07.01-.16,0-.27-.12.31-.27.43-.43.58.03.17,0-.32.05-.24-.28-.2-.4.43-.66.13.02-.04.07.24.06.19-.11,0-.17-.24-.22-.14-.04-.14-.08.07-.14.13,0,.11-.04-.06.02-.1-.07.15-.4.46-.67.34.03.09-.01.38-.06.39l-.06-.22c-.1-.12-.14.08-.22-.1,0,.29.3-.37.24-.11-.1-.17-.07.41-.15.11-.09.05-.07.32-.24.15.04.02-.05-.32-.12-.27-.11.09,0,.12-.05.23v.11c.1.2-.11.02.05.22-.05-.08-.07-.03-.1-.01,0,.02-.03.01-.14-.14l-.16-.24s.14.28.21.39c-.02-.02-.07-.06-.1-.09.07.08.11.12.12.14-.02-.02-.05-.07-.09-.11-.07-.08-.18-.16-.27-.2-.11-.04-.08-.05-.12-.07-.02-.01-.08-.02-.1-.02.08,0,.12-.03.13-.04.09-.04.23-.11.31-.19.04-.04.08-.09.12-.14.1-.1.05-.03.06-.03-.03.03-.05.03-.12.1-.06.11.03.03.09-.01-.05.04-.11.25-.1.43.15-.07.23-.3.31-.42-.15.43.32-.16.26.24-.05.04-.21.15-.18.28-.07.44.28-.23.35.01l.09-.36c-.01.23.27-.13.14.21.09-.11.13.17.22-.18.16.35.63-.02.64.63.05-.05.13.03.15-.15-.02-.21-.12.12-.11-.02.04,0,.06-.1.08-.14.06.1.12.14-.02.41.14.25.31-.55.51-.37-.04.14-.03.2.04.19l.17-.22c.14.08.02.34-.02.59.09-.03.19,0,.25-.17l.05.33c-.04-.23.09-.14.14-.19l-.05.06c0,.11.1.06.16.03.01-.15-.07-.23-.12-.28.06-.1.12-.07.19-.19-.06.24.11.19.17.23.07.06.11-.2.13-.19-.02.13.12.04.03.21-.03.04-.04-.13-.1-.03.04.1,0,.32.12.17.09-.11.05-.48.17-.31-.05.06-.07.15-.11.23l.12.14.03-.22c.01.06,0,.08,0,.11.07-.23.22-.05.28-.3.07-.01.13.17.19.2v.02c.05.14.17.07.25-.07v.05s.14,0,.21-.13c.09.18-.05.84.1.57.12,0,.22-.39.19-.53.19.17.45-.17.61.19.04-.09.02-.15.09-.19.29.11.64-.22.86.23-.09.09-.02.22-.02.35.08-.2.08.21.12-.13,0-.2.02-.3-.06-.38.18-.1.45-.08.55.11-.05-.1,0-.16.04-.21-.03.32.1.38.21.26l.02-.2.06.2c.04-.06.06-.41.15-.22,0,.08,0,.15.02.21.11-.16.26-.42.37-.25l.08.29s.13-.2.05-.28c.19.18.31.2.37.45.34-.6.81-.61,1.2-.58v.15c.09.14.04-.26.11-.16-.03.14.08.3,0,.47.15.15.19-.26.28-.32.01-.19-.07.12-.06-.12.02-.07.21.15.22-.14.04.11.01.33,0,.45l.09-.14c.12.34-.24.61-.12,1.03l.08-.05c.09.3-.22.35,0,.45.09-.15.16-.57.07-.7.19-.09.07-.7.27-.68.06.17-.16.05-.12.28.1.23.19-.14.28-.06-.1-.11-.03-.4.03-.46.11.13-.06.28.09.3.02-.17.15-.3.03-.41.04-.38.15.1.22-.2.06.27-.13.62.04.75-.04-.26.18-.36.08-.74.07.07.08.27.04.43.1.15.19-.48.25.03l.02-.27c.03.08.08.15.13.29.08,0,.23-.37.25.03.02-.04.2-.03.12-.31-.12-.16-.12.21-.2-.16.1.3.16-.05.22-.15l.02.15c.03-.06.12-.04.14-.2-.02.09,0,.19.03.23l.02-.24c.15-.13.06.41.21.33l-.1.19s.09.17.16.1c.02-.22.04-.48.06-.64.08-.1.06.24.12.01l-.09.26c-.01.07.1.35.21.33.07-.08.15-.4.03-.5.06,0,.15.12.11.28.12-.08-.04-.23.06-.37.06.14.21.33.32.52l-.08.37h.08c-.08.29.07.21.04.52.06.04.11-.07.16-.15-.2-.47.11-.68.02-1.11.2-.14.24,1.06.39.35-.05-.11.02-.46-.1-.31.13.03.04-.45.21-.29-.09.19.17.43.04.71,0-.15-.1-.1-.12-.05.07.16.04.44.17.43.08-.05.19-.07.15-.3-.03-.25-.12.04-.1-.22.15-.11.23.27.24-.18-.1.05-.15-.21-.17-.38l.1-.12v.17c.2.1.01-.31.2-.29l.13.32c0,.29-.28-.09-.19.37.12,0,.13-.23.26-.13-.02.04-.05.06-.07.1.04,0,.17.61.29.23.07-.15,0-.17-.02-.34.18-.08.21-.26.33-.31.03.34.22,0,.14.36-.09-.19-.36-.13-.38.2.13.39-.16-.03-.14.38.16-.01.21.38.27.63.05.01.07-.1.09-.15-.02-.24-.07-.23-.12-.48.18.04.33-.12.39-.37.08.11.1.35.04.39.19-.11.42-.12.62-.08-.2-.37.2-.13.04-.44-.12-.06-.26-.33-.24-.52.07.01.03.17.07.25.04-.23.19.32.2-.04-.15.17.06.48.1.8.1-.2.04.22.17.19.1-.2.23-.37.36-.47.25.24.46-.11.6-.17.13.12.18.48.29.51.1-.04-.2-.34,0-.23v.07c.03-.09.38.13.23-.37l.1.38s.04-.07.04-.12c.05.11.13.21.11.3.2.2.2-.12.29-.18l-.16-.17c.07-.24.3-.09.37-.25l.13.18v-.16c.11.18.3.22.2.05.08.19.1.39.1.62-.15-.05-.07-.28-.25-.42-.14-.12-.24,0-.16.2.07-.01.05-.06.05-.15.19.25.09.29.14.5.03-.03.13.02.09-.07,0,.17-.06.23-.18.3.03-.15-.13-.15-.14-.24.11.25.03.38-.15.37-.22-.25-.21.31-.41.28-.02-.29,0-.51.05-.66-.15-.09-.11.05-.26-.05.02.21.08.52-.02.68l-.07-.19c-.09.14,0,.43-.19.42-.31-.02-.59.06-.81.07l-.05-.2c-.02.45-.36.25-.48.46-.3-.14-.56.3-.75-.03-.45.23-.85.44-1.35.42l.05-.3c-.06.23-.08-.16-.16-.11.13.22-.09.32-.13.5-.24-.21-.5.07-.68.29l-.03-.2c-.17.4-.43.08-.68.04-.03-.08-.09-.27-.16-.24-.11.34-.18.32-.37.53-.14,0-.38-.06-.53-.18-.52.49-1.08.21-1.64.49l-.04-.24c-.54.52-1.21.05-1.68.31l.05-.41c-.14-.13-.33.1-.3.39-.14-.13-.37.19-.45-.15-.15-.08-.19.18-.32.23-.29-.16-.41-.14-.69-.08l.07.03c.04-.09.05-.26-.02-.29-.11.11-.38-.13-.3.36-.28-.29-.73.18-.99-.22.01.13-.06.15-.1.24-.27-.01-.52-.31-.76-.11-.04-.07.09-.22-.02-.24-.07.04-.02.17-.11.24-.46.2-.85-.35-1.25-.35-.74.16-1.47-.11-2.17-.23l.03-.09c-.34.29-.45-.51-.8-.03-.03-.11-.21-.12-.11-.28-.28.19-.46-.42-.89-.25.02.02.05,0,.1-.02-.21-.34-.65-.21-.96-.73.07,0,.16.04.23-.03-.02-.14-.15-.1-.3-.16-.15-.06-.27-.17-.11-.36-.09-.12-.27.03-.19.11-.05-.1-.09-.16-.14-.3-.05-.14-.09-.29-.11-.44-.07-.3-.03-.59.06-.89.09-.33.2-.46.32-.65.06-.09.13-.18.19-.25l.15-.16c.1-.1.22-.22.31-.3l.27-.22c.2-.16.35-.25.53-.36.61.07.31.72.57.26.06.08-.04-.18,0-.09.11-.17.38.43.41.16-.12-.27.02-.17-.03-.34.34.1.45.34.62.07l.02.15c.16-.48.5-.32.63-.85,1.42-.36,2.74-.78,4.12-.93,1.37,0,2.69-.25,4.07.03.32.4.34.39.69.24-.02.06-.04.08-.02.14.03-.33.25-.02.29-.34.51.07.98.01,1.5.04-.09.03-.14.3-.04.28l.12-.2v.09c.08-.04.17-.2.1-.31,1.35-.19,2.59.6,3.91.76.29.19.76.16,1.13.18.48.35.9.67,1.4.99.24.15.5.32.82.53.17.14.32.2.55.48.11.14.2.2.3.43.1.21.17.46.2.7,0,0-.23-.16-.5-.35-.29-.23-.66-.26-.91-.37Z"/>
        <path class="cls-2" d="M74.28,42.38c-.18-.03-.33.02-.44-.2.13.09.32.11.44.2Z"/>
        <path class="cls-2" d="M70.9,42.1s-.05-.06-.07-.08c.03-.02.03-.16.08-.08-.03.02,0,.09,0,.16Z"/>
        <path class="cls-2" d="M70.19,42.14c-.01-.15.11-.29.2-.32l-.2.32Z"/>
        <path class="cls-2" d="M69.44,41.65c-.07-.11-.07-.18,0-.19.02.08,0,.12,0,.19Z"/>
        <path class="cls-2" d="M69.45,41.99c-.05.01-.09-.07-.13-.15.02.12.11-.1.13.15Z"/>
        <path class="cls-2" d="M67.96,41.74s-.1.14-.14-.02c.05.11.15-.2.14.02Z"/>
        <path class="cls-2" d="M67.31,42.02s-.03-.03-.06,0c-.05-.06-.01-.17.02-.19l.03.18Z"/>
        <path class="cls-2" d="M55.07,41.73l.08-.05-.06.13s-.02-.06-.03-.09Z"/>
        <path class="cls-2" d="M57.2,41.34c.06-.1.07.13.09.14-.06.03,0-.18-.09-.14Z"/>
        <polygon class="cls-2" points="60.06 40.26 60.03 40.27 60.02 39.97 60.06 40.26"/>
      </g>
    </g>
  </g>
</svg>