<?xml version="1.0" encoding="UTF-8"?>
<svg id="Layer_3" data-name="Layer 3" xmlns="http://www.w3.org/2000/svg" viewBox="0 0 95 95">
  <defs>
    <style>
      .cls-1 {
        fill: #fff;
      }

      .cls-2 {
        fill: #ff4f20;
      }
    </style>
  </defs>
  <g>
    <path class="cls-1" d="M55.71,32.67s-10.03-6.71-13.28-5.23c-2.12.96-3.14,8.78-3.14,8.78"/>
    <g>
      <path class="cls-2" d="M55.36,33.09c.11,0,.1-.24.11-.06-.08.09-.14.16-.11.06Z"/>
      <path class="cls-2" d="M39.71,35.98c-.71-.39.11-.65-.32-1.03-.03-.04.41.08.33-.02-.53-.4-.09-.81.42-1.08l.11.04c.1-.05-.27-.21-.2-.27.08.02.1.05.21.05-.23-.07-.08-.15-.24-.22.1,0,.28.03.39.02l-.25-.1c-.6-.25.1-.27-.18-.5.06.02.1.05.16.05-.32-.34-.18-.64-.24-.96.09.03.25.09.36.1-.27-.08-.32-.19-.35-.28.29.04-.22-.2-.04-.25l.06.02c-.28-.15.2-.05-.14-.2l.23.02c-.39-.14.23-.04.05-.15l-.08-.02c-.08-.08.12-.05.07-.11h.05c-.07-.13.17-.13-.14-.22.26.04.08.14.45.19-.21-.46-.02-.81.1-1.17.13,0,.18,0,.3.03-.05-.06,0-.15-.14-.24,0,.01.16.04.18.03.14-.02-.3-.2-.14-.22.07.06.16.11.27.15-.21-.15-.14-.22-.18-.32.04.03.07.06.16.1-.23-.19.11-.12-.02-.26l.16.1c.26,0-.34-.19-.17-.23.04.05.11.07.18.11-.26-.23-.09-.32-.15-.46.02.02.07.04.07.04.01-.11.14-.16.09-.34.09,0,.38.24.38.12-.32-.19-.03-.24-.41-.41.11-.05.31-.1.24-.24.09.12.39.24.37.32l.21.09c.11.1-.07.01.09.11,0-.03-.04-.2.03-.18-.13-.2-.38-.54-.32-.68.05.15.29.28.31.36-.12-.21-.24-.45-.32-.67.03-.04.18.23.18.11-.06-.08-.07-.14-.1-.22.04.03.13-.2.33.11.09.11-.02.11.09.19.06-.05,0-.16.07-.21l.02.04s.04,0,.04-.04c.02-.07,0-.21-.1-.32-.04,0,.11.19,0,.12-.05-.21.03-.3.12-.33-.01.07.03.16.05.26,0-.31.12-.44.25-.58-.04-.17.02.32-.02.23.22.2.34-.42.53-.08-.02.03-.04-.24-.03-.2.09.02.1.27.15.17.01.15.06-.05.12-.1.03-.11.02.07-.03.09.07-.14.38-.35.54-.13,0-.1.13-.35.17-.34l-.03.23c.02.14.13,0,.12.19.1-.27-.33.21-.2,0,.01.19.18-.35.13-.04.07,0,.18-.25.23-.03-.02-.04-.1.31-.04.3.11-.03.04-.11.14-.17l.07-.09c.04-.22.09.04.09-.21-.02.18.17-.08.1.28l-.06.28s.12-.29.18-.41c0,.03,0,.09,0,.13.09-.44.1.06.22-.27.07.17.24.07.22.35.1-.12.2-.26.26-.14-.03.04-.05.04-.08.14.02.14.06.03.12-.03-.03.06.04.28.05.44.1-.11.14-.35.18-.49-.05.44.27-.22.24.19-.04.05-.16.18-.13.3-.06.44.21-.28.25-.05l.08-.36c-.02.23.21-.16.09.2.07-.12.08.15.17-.19.07.34.45-.05.34.59.04-.05.08.03.13-.15.03-.2-.1.12-.07-.02.02,0,.06-.09.08-.14.02.09.05.13-.09.39.03.24.31-.53.41-.35-.06.14-.07.19-.02.18l.16-.21c.07.09-.07.33-.15.57.06-.02.11.01.2-.15l-.06.31c.04-.23.09-.13.14-.17l-.04.05c-.03.1.05.06.09.04.05-.15.02-.23,0-.28.06-.09.09-.05.17-.16-.1.22.01.19.04.23.02.07.13-.18.14-.17-.05.12.06.05-.04.2-.03.03.01-.13-.05-.03,0,.1-.09.3.02.18.09-.09.17-.45.19-.27-.04.05-.09.14-.13.21l.03.15.09-.2c-.01.06-.03.07-.03.1.11-.21.14-.02.26-.25.05,0,.02.18.05.22h-.01c0,.15.09.1.18-.02l-.02.04s.09.02.17-.09c0,.18-.31.78-.14.55.06.02.26-.33.29-.47.05.19.33-.09.29.27.05-.07.07-.13.12-.16.13.16.46-.08.4.38-.09.06-.1.2-.15.32.12-.16-.04.21.12-.09.08-.18.13-.27.12-.36.14-.05.29.02.26.22.01-.1.06-.14.11-.19-.15.29-.1.36,0,.29l.09-.17-.05.2s.2-.36.17-.16c-.03.07-.06.14-.08.19.13-.12.32-.32.31-.14l-.08.28s.16-.15.15-.24c.03.21.08.26,0,.49.45-.45.71-.34.9-.19l-.07.13c0,.15.15-.21.14-.1-.08.11-.1.29-.22.42,0,.18.22-.17.3-.2.1-.17-.1.09.03-.12.04-.06.04.19.19-.06-.03.11-.15.29-.22.39l.11-.1c-.1.33-.42.47-.55.87l.06-.02c-.1.29-.27.24-.22.39.11-.1.35-.45.37-.59.14-.02.37-.59.47-.51-.05.17-.1,0-.2.21-.06.23.16-.06.17.03,0-.12.18-.36.24-.39-.01.15-.17.22-.1.29.09-.14.22-.21.22-.35.21-.32.03.14.21-.1-.1.25-.38.5-.36.66.11-.23.27-.25.41-.61,0,.08-.1.26-.2.39-.03.16.34-.35.11.11l.14-.22c-.02.08-.04.15-.08.29.04.03.31-.24.11.11.03-.03.12.04.22-.22.02-.18-.16.14-.02-.21-.11.29.1.01.19-.06l-.07.14s.08.01.17-.12c-.06.07-.1.16-.1.21l.14-.19c.14-.06-.18.37-.07.36l-.15.12s-.05.18.03.14c.12-.18.27-.39.37-.52.09-.06-.1.22.05.06l-.18.19c-.04.06-.14.33-.07.36.07-.04.29-.28.28-.41.03.01,0,.15-.09.27.1-.03.11-.2.23-.29-.05.14-.07.36-.13.56l-.24.28.04.03c-.19.22-.08.2-.26.45,0,.06.09-.01.15-.07.16-.47.42-.52.62-.92.17-.04-.47.97,0,.44.04-.11.26-.37.13-.3.04.08.27-.36.26-.15-.15.12-.16.42-.38.6.08-.12,0-.12-.03-.1-.06.16-.23.38-.16.42.06-.01.13.01.23-.19.13-.22-.08-.01.08-.22.13-.03-.05.31.21-.05-.07,0,.05-.23.14-.38l.12-.05-.1.14c.04.16.18-.25.26-.15l-.12.31c-.17.23-.08-.19-.3.22.05.05.19-.14.19,0-.03.03-.06.03-.09.05.01.03-.28.57,0,.31.12-.09.1-.14.19-.28.13.01.25-.12.33-.1-.19.28.1.1-.15.35.07-.19-.09-.26-.29,0-.17.37-.05-.1-.28.24.08.06-.13.39-.25.62.01.03.09-.05.12-.08.14-.2.1-.22.23-.44.05.11.21.04.38-.13-.03.12-.17.32-.22.32.14,0,.24.1.3.22.14-.38.16-.01.29-.32,0-.11.09-.38.22-.52.02.04-.09.15-.12.23.16-.16-.12.34.11.07-.16.05-.27.4-.45.66.16-.11-.12.19-.05.23.16-.11.32-.17.43-.18-.06.31.24.16.33.2-.04.16-.26.44-.24.52.06.03.16-.35.16-.16l-.05.05c.07-.05.02.3.32-.11l-.23.31s.06-.03.09-.05c-.07.11-.11.21-.18.27-.09.26.13.03.19.06l.09-.21c.19-.09.13.14.27.13l-.12.18.13-.08c-.13.17-.16.32-.03.19l-.44.36c.03-.14.19-.2.28-.4.08-.17-.04-.18-.16,0,.02.04.05,0,.12-.05-.16.27-.2.22-.33.38.02,0,0,.09.05.02-.11.11-.16.1-.22.07.1-.08.08-.17.14-.24-.15.23-.25.26-.28.16.12-.3-.24.09-.27-.03.18-.21.34-.37.45-.44.02-.15-.06-.03-.04-.18-.13.16-.32.41-.45.48l.1-.17c-.11.05-.27.31-.32.21-.08-.17-.21-.25-.29-.33l.1-.17c-.28.34-.27.02-.44.14-.03-.24-.37,0-.26-.34-.3,0-.58.01-.77-.19l.19-.23c-.15.16.06-.16,0-.15-.07.23-.21.23-.33.37.01-.26-.25-.12-.44,0l.1-.18c-.28.28-.23-.08-.31-.2.03-.08.1-.26.05-.26-.22.25-.25.21-.44.34-.07-.04-.14-.17-.14-.32-.48.26-.6-.14-.99-.03l.09-.22c-.49.32-.6-.26-.94-.14l.21-.35c-.01-.15-.21.02-.32.28-.01-.15-.26.09-.16-.23-.04-.1-.17.13-.25.15-.07-.21-.14-.2-.31-.2l.02.04c.05-.07.13-.23.11-.27-.1.08-.14-.19-.3.28-.02-.32-.43.05-.41-.36-.04.13-.09.13-.14.21-.13-.05-.15-.36-.34-.19,0-.07.12-.19.08-.23-.05.03-.07.16-.14.21-.3.14-.31-.41-.52-.43-.42.11-.72-.14-1.04-.21l.04-.09c-.22.32-.13-.44-.38.07,0-.1-.08-.07,0-.25-.16.22-.16-.31-.37-.02,0,.01.02,0,.04-.04-.06-.24-.25.01-.32-.2.02-.04.05-.06.08-.16,0-.19-.21.37-.13-.09-.03,0-.07.23-.05.22-.24-.25-.59,0-.84.08-.16-.3.05-.8-.12-.45,0-.09-.02.18-.02.08-.06.13-.06-.53-.11-.28,0,.29-.03.16-.03.34-.1-.19-.14-.45-.21-.23v-.15c-.07.44-.18.21-.12.71-.03.03-.06.07-.07.11-.02.08,0,.16.03.23.03,0,.02.09,0,.18-.02.09-.05.14-.09.24-.33.4-.34,1.07-.8,1.6-.43.03-.42.05-.32.26-.06-.03-.07-.04-.13-.05.31.1,0,.13.29.23-.13.22-.1.48-.17.73-.02-.05-.28-.14-.27-.08l.19.1h-.09s.19.11.3.1c.12.7-.67,1.2-.72,1.88-.17.13-.08.37-.05.56-.52.42-.95.85-.71,1.38,0,0-.83-.17-.99-.42Z"/>
      <path class="cls-2" d="M55.25,33.06c.07-.15.07-.26.23-.41-.08.13-.15.29-.23.41Z"/>
      <path class="cls-2" d="M54.75,30.75s.01-.07.02-.1c.02,0,.11-.11.08-.03-.02,0-.06.07-.11.12Z"/>
      <path class="cls-2" d="M54.44,30.44c.08-.12.22-.17.28-.16l-.28.16Z"/>
      <path class="cls-2" d="M54.4,29.71c.03-.12.08-.18.11-.15-.04.07-.07.09-.11.15Z"/>
      <path class="cls-2" d="M54.21,29.99s0-.1.03-.18c-.06.11.11-.03-.03.18Z"/>
      <path class="cls-2" d="M53.66,29.17s-.12.08-.06-.07c-.04.11.18-.11.06.07Z"/>
      <path class="cls-2" d="M53.2,29.16s0-.04-.03-.01c.01-.07.09-.15.11-.15l-.08.17Z"/>
      <polygon class="cls-2" points="46.11 26.56 46.18 26.5 46.13 26.64 46.11 26.56"/>
      <path class="cls-2" d="M42.32,26.32c-.03.11-.09-.11-.11-.13.05-.03.04.18.11.13Z"/>
      <polygon class="cls-2" points="41.14 28.27 41.14 28.26 41.39 28.42 41.14 28.27"/>
    </g>
  </g>
  <g>
    <path class="cls-1" d="M55.71,62.33s-10.03,6.71-13.28,5.23c-2.12-.96-3.14-8.78-3.14-8.78"/>
    <g>
      <path class="cls-2" d="M55.96,62.81c.04-.11-.18-.19-.01-.13.06.1.09.19.01.13Z"/>
      <path class="cls-2" d="M38.96,59.13c.8.17.09.66.63.89.04.03-.41.06-.3.13.63.2.37.72,0,1.18h-.12c-.07.09.33.1.29.18-.08.02-.11,0-.22.04.24-.03.14.11.31.11-.08.05-.27.08-.36.14h.27c.65-.03.01.28.38.37-.06,0-.11,0-.17.03.44.17.44.5.65.74-.09.01-.27.05-.36.09.28-.06.37.01.44.07-.27.11.29.06.16.19h-.06c.31,0-.14.15.22.11l-.21.1c.4-.08-.18.15.04.15l.08-.03c.11.02-.08.1,0,.13l-.04.02c.14.08-.06.21.24.11-.23.11-.14-.07-.48.1.42.27.48.64.61.99-.11.08-.13.12-.24.18.07.01.11.11.27.08-.01,0-.14.08-.15.11-.09.11.35-.06.25.06-.09,0-.19.04-.3.09.26-.04.25.06.35.1-.05.01-.09,0-.18.05.29-.04,0,.17.2.16l-.18.05c-.15.2.37-.13.29.01-.06,0-.13.04-.2.07.35-.06.31.12.45.15-.03,0-.07.03-.07.03.08.07.03.22.22.23-.05.07-.4.22-.28.28.31-.2.23.07.54-.21,0,.1-.05.3.09.27-.13.05-.34.31-.4.27l-.14.18c-.13.09,0-.08-.14.05.04.03.24.03.22.1.23-.09.57-.34.66-.31-.13.07-.25.33-.32.35.2-.14.38-.28.56-.45.03,0-.17.24-.08.19.06-.08.11-.12.16-.18-.01.04.14-.02-.04.31-.06.13-.08.04-.12.17.06.03.12-.08.17-.05l-.02.04s.02.02.05,0c.06-.04.14-.17.17-.3-.02-.02-.08.2-.07.1.12-.19.19-.22.23-.21-.04.05-.07.14-.11.24.17-.24.25-.32.34-.43.04-.17-.1.3-.09.21.05.25.22-.3.26.05-.02.03.02-.25.01-.2.04.02.02.28.06.18,0,.15.05-.04.08-.09.02-.11,0,.07-.02.09.05-.11.24-.36.36-.14,0-.1.04-.36.07-.35v.23c.04.13.1-.03.12.16.03-.28-.21.26-.15.04.04.19.08-.38.09-.06.06-.01.08-.28.16-.07-.02-.04-.01.32.04.3.08-.05.01-.11.07-.19l.03-.1c-.03-.22.08.02,0-.22.04.18.1-.13.15.23l.04.29s0-.31.01-.44c0,.03.03.08.04.13-.07-.44.09.02.07-.32.1.14.19-.03.28.24.03-.15.04-.31.13-.23,0,.04-.02.06,0,.15.07.12.06,0,.07-.08,0,.07.15.23.23.37.03-.15-.06-.37-.09-.52.17.41.08-.32.26.05,0,.06-.03.23.05.32.18.41.02-.34.16-.16l-.13-.34c.1.2.06-.24.16.12-.01-.13.14.08.02-.25.23.24.28-.28.57.29,0-.06.07-.02,0-.19-.1-.17,0,.15-.06.03.01-.02-.01-.11-.03-.16.07.06.11.07.17.37.17.17-.1-.6.07-.52.05.14.07.19.1.15l-.02-.26c.1.02.16.3.25.53.03-.06.09-.07.04-.25l.16.27c-.12-.2-.02-.15-.02-.22v.07c.05.09.07.01.09-.02-.06-.14-.14-.18-.18-.21-.02-.11.03-.1,0-.23.08.23.13.13.18.15.06.03-.04-.22-.02-.22.05.12.07,0,.11.17,0,.04-.08-.1-.06,0,.06.08.14.28.13.11,0-.13-.19-.44-.06-.33,0,.06.04.16.05.24l.12.09-.08-.21s.03.07.05.09c-.07-.23.08-.11,0-.36.03-.04.13.11.18.12v.02c.09.1.12,0,.09-.15l.02.05s.07-.05.05-.18c.12.13.35.76.31.48.06-.03-.07-.41-.15-.53.17.09.13-.29.37-.02-.02-.09-.05-.14-.05-.2.19,0,.21-.39.51-.05,0,.11.09.2.15.32-.05-.2.13.17,0-.15-.09-.18-.13-.27-.21-.32.04-.14.18-.21.31-.06-.07-.07-.07-.14-.08-.2.13.29.22.3.22.18l-.08-.18.12.16c0-.07-.16-.38-.03-.23.04.07.07.13.11.18-.02-.17-.07-.45.06-.33l.17.23s-.03-.21-.11-.27c.17.11.24.09.39.3-.11-.62.12-.76.33-.82l.06.13c.12.09-.09-.24,0-.17.05.13.18.25.22.42.15.1-.02-.27,0-.36-.08-.17.02.13-.09-.09-.02-.07.17.08.05-.18.07.09.16.29.2.4l-.02-.15c.22.27.16.6.42.94l.02-.06c.18.25.05.36.21.4-.02-.15-.18-.54-.28-.64.06-.12-.28-.63-.17-.67.11.14-.06.08.07.28.16.18.03-.17.11-.12-.1-.07-.2-.35-.19-.41.12.09.1.26.18.25-.07-.15-.06-.3-.18-.37-.16-.35.13.05.02-.23.15.22.22.58.37.66-.14-.22-.07-.36-.3-.67.07.05.17.22.22.38.12.11-.12-.47.14-.03l-.11-.24c.06.07.1.12.2.23.04-.02-.05-.38.14-.03,0-.04.09-.08-.08-.3-.14-.12.03.21-.18-.1.19.24.06-.08.04-.19l.08.13c-.01-.06.05-.06-.02-.21.03.09.09.17.12.2l-.1-.22c.02-.14.22.35.26.25l.03.19s.13.14.13.05c-.09-.2-.19-.43-.26-.58,0-.1.14.2.07-.01l.07.25c.03.07.21.29.27.25,0-.09-.1-.39-.21-.45.03-.02.13.07.19.22.03-.1-.12-.19-.13-.34.09.11.26.25.41.4l.12.34.04-.02c.09.28.13.18.26.45.05.03.03-.08.02-.16-.32-.37-.24-.62-.49-.99.04-.16.61.89.37.23-.08-.09-.19-.41-.2-.26.09,0-.18-.41-.01-.29.04.19.29.35.34.63-.07-.13-.1-.07-.09-.03.11.13.22.39.29.35.02-.06.07-.1-.05-.29-.13-.22-.05.06-.15-.18.04-.12.24.2.05-.21-.03.06-.18-.16-.27-.31v-.13s.08.15.08.15c.16.05-.13-.28-.01-.29l.21.26c.12.26-.2-.03.06.36.07-.02-.03-.23.09-.16,0,.04,0,.06,0,.1.03,0,.37.52.27.16-.03-.15-.07-.15-.16-.3.07-.1,0-.27.05-.33.16.3.13-.04.24.3-.13-.15-.26-.05-.13.25.24.32-.1,0,.08.36.08-.04.28.3.43.52.03,0,0-.1-.01-.15-.12-.22-.14-.2-.27-.41.12,0,.13-.16.06-.39.09.09.21.3.19.34.07-.12.19-.16.33-.16-.27-.3.06-.15-.16-.4-.1-.04-.29-.26-.36-.43.05,0,.09.15.15.21-.07-.21.25.26.11-.06-.03.17.24.43.38.7-.02-.19.11.19.18.15-.02-.19-.01-.36.03-.46.25.19.24-.14.32-.2.13.11.29.42.37.45.05-.04-.24-.3-.08-.21l.03.06c-.02-.09.28.11.03-.34l.18.34s0-.06,0-.11c.07.1.15.19.16.27.19.19.08-.1.13-.15l-.16-.17c0-.21.18-.06.23-.19l.12.19-.02-.15c.1.19.23.27.16.1l.15.55c-.11-.08-.1-.25-.25-.42-.12-.15-.18-.04-.07.15.05,0,.02-.04,0-.13.18.25.12.27.21.46.01-.02.09.04.04-.04.05.15.03.19-.03.23-.03-.13-.12-.15-.16-.23.14.23.13.34.02.32-.22-.23-.02.25-.15.23-.11-.25-.19-.47-.2-.59-.12-.09-.05.04-.18-.04.09.19.24.47.24.61l-.11-.17c0,.12.15.38.05.38-.18,0-.32.08-.43.12l-.11-.17c.17.4-.1.25-.08.46-.23-.09-.18.34-.43.08-.15.27-.27.52-.55.6l-.11-.28c.07.21-.11-.13-.13-.07.17.18.1.3.16.47-.22-.14-.23.16-.23.39l-.1-.17c.09.39-.19.16-.34.17-.06-.07-.17-.22-.19-.18.1.32.05.32.05.55-.07.04-.22.03-.36-.04-.04.55-.46.44-.6.83l-.13-.2c-.03.59-.58.36-.7.71l-.16-.38c-.13-.08-.12.18.03.43-.13-.07-.1.27-.29,0-.11-.03-.01.21-.05.29-.22-.06-.26,0-.37.13h.05c-.02-.08-.1-.24-.14-.25,0,.13-.25,0,.02.41-.28-.18-.27.38-.58.1.07.12.04.16.06.24-.14.07-.39-.12-.41.14-.05-.05-.05-.22-.12-.21-.01.06.07.16.06.25-.13.33-.56-.04-.75.11-.28.39-.73.42-1.09.59l-.03-.09c-.01.4-.42-.27-.35.3-.06-.08-.13,0-.16-.19-.02.29-.36-.15-.42.21.02,0,.02-.02.02-.06-.21-.17-.27.16-.48,0,0-.04.03-.08.01-.18-.11-.17-.06.44-.2-.01-.03.01.03.24.05.22-.4-.09-.73.27-1.16.42-.33-.25-.08-.78-.29-.42-.03-.09,0,.18-.01.08-.09.13-.17-.52-.22-.27.03.29-.04.16-.04.34-.19-.18-.22-.44-.38-.24l.02-.15c-.2.42-.41.18-.71.61-.31-.03-.62-.11-.92-.18-.24-.11-.48-.22-.71-.35-.24-.13-.42-.32-.64-.49-.1-.08-.23-.18-.3-.26l-.2-.23c-.13-.15-.27-.33-.37-.49-.38-.89-.85-1.57-.87-2.45.33-.3.31-.31.1-.46.06-.01.08,0,.14-.03-.32.08-.07-.13-.38-.06-.03-.31-.18-.54-.26-.84.05.04.31,0,.28-.06h-.22s.09-.04.09-.04c-.06-.03-.22-.03-.32.04-.46-.68.02-1.54-.2-2.24.1-.2-.07-.41-.17-.59.33-.63.6-1.15.22-1.69,0,0,.85-.03,1.08.16Z"/>
      <path class="cls-2" d="M55.88,62.9c-.11-.13-.21-.17-.29-.38.09.13.21.25.29.38Z"/>
      <path class="cls-2" d="M53.59,62.36s-.05-.04-.07-.07c.01-.02-.05-.15.01-.08-.01.02.03.09.06.15Z"/>
      <path class="cls-2" d="M53.18,62.49c-.07-.13-.05-.27-.02-.32l.02.32Z"/>
      <path class="cls-2" d="M52.54,62.17c-.09-.09-.12-.15-.08-.17.04.06.05.11.08.17Z"/>
      <path class="cls-2" d="M52.69,62.47s-.08-.05-.14-.11c.07.11.02-.11.14.11Z"/>
      <path class="cls-2" d="M51.76,62.53s.01.15-.09.02c.07.09,0-.21.09-.02Z"/>
      <path class="cls-2" d="M51.53,62.91s-.03-.02-.03.02c-.05-.05-.08-.15-.07-.17l.1.15Z"/>
      <polygon class="cls-2" points="45.49 66.34 45.51 66.26 45.54 66.4 45.49 66.34"/>
      <path class="cls-2" d="M43.05,66.62c-.05.08.03-.13.04-.16.02,0-.07.17-.04.16Z"/>
      <polygon class="cls-2" points="41.75 66.35 41.76 66.36 41.51 66.51 41.75 66.35"/>
    </g>
  </g>
  <g>
    <path class="cls-1" d="M70.47,48.08l3.52,2.43s-5.79,11.79-19.62,11.74c-17.15-.06-22.23-11.11-22.23-11.11,0,0-8.13,10.26-10.66,8.04-2.07-1.81,3.52-11.11,3.52-11.11v-.27s-5.58-9.3-3.52-11.11c2.53-2.22,10.66,8.04,10.66,8.04,0,0,5.09-11.05,22.23-11.11,13.84-.05,19.62,11.74,19.62,11.74l-3.52,2.43v.27Z"/>
    <g>
      <path class="cls-2" d="M71.1,47.85c-.53-.28.12.39-.38-.13.13-.05.28-.06.38.13Z"/>
      <path class="cls-2" d="M72.08,47.15c.27-.42.69-.82,1.09-1.15.2-.17.42-.33.65-.49l.17-.12c.01-.05-.05-.12-.07-.18l-.19-.37c-.54-.99-1.17-2.02-2.01-2.66-.18-.17.37-.21-.06-.58-1.73-1.2-3.78-3.55-5.74-5.22l.19-.02c-.37-.33-1.06-.3-1.49-.56.03-.07.2-.03.14-.17-.22.15-.87-.31-1.14-.25-.14-.17-.04-.35-.24-.53l-.38.14c-.5.15-.94-.03-1.41-.26-.47-.23-1-.43-1.56-.42.07-.05.18-.07.11-.15-.89-.08-1.87-.12-2.86-.23-.99-.09-2.02-.07-2.98-.05.08-.1.15-.27.03-.38-.1.29-.69.39-1.2.46-.25-.28-.87.3-1.48.17l.05-.07c-.42.31-.68-.12-1,.29l-.31-.19c-.15.43-.67-.13-1.01.13l.02.08c-.33.14-.54-.04-.85.07l-.04-.04c-.72.27-1.19.14-1.11.45-.31-.19.69-.27.21-.55-2.4.78-4.83,1.59-7.05,2.76-.31.02-.5.07-.61,0-.2.16-.78.55-.89.8.07-.05-.22-.05-.35,0-.46.15-.24.55-.71.73.11-.19.11-.31-.02-.37-.2.46-.68.77-1.04,1.14.03-.09.11-.19.03-.25-.26.56-.81.62-1.06,1.07v-.26c-.73.36.1.43-.47.81.07-.16-.02-.17-.05-.24-.1.35-.36.67-.62.99-.25.33-.51.64-.68.91,0-.04-.04-.07-.04-.07-.18.27-.44.58-.68.9-.23.34-.45.69-.65,1.18-.19.15-.12-.74-.45,0,.02.14,0,.33-.06.5-.02.06-.04.11-.06.16-.03.02-.06-.04-.1-.06-.07-.06-.13-.12-.19-.15-.11-.06-.18-.04-.06.35-.51-.73-1.17-1.74-1.57-2,.29.12.08-.59.45-.22-.04-.16-.07-.31-.1-.45.14-.08.2.3.25.07-.11-.11-.74-.59-.85-.8-.5-.2-1.1-.24-1.67-.76.36.16.15-.43.37-.3l-1.27-.26c-.19-.17.17-.25-.17-.44-.05.08-.21.02-.35,0-.04-.1-.83-.64-.68-.99.01-.18.36.22.24-.07-.36-.31-.46-.23-.82-.52l.02-.04c-.21-.24-.82-.43-.67-.07.16.14.07-.22.25.05-.3.03-.76-.23-1.13-.47.16.03.2-.06.31-.11-.37-.07-.54-.06-.76-.09-.2-.02-.38-.04-.55,0,.02.2.09-.34.18-.2-.28-.24-.62-.2-.82-.02-.22.18-.3.43-.54.52,0-.1.27.16.22.12-.08.21-.33.07-.24.3-.16-.05.05.26.13.42.12.1-.07.04-.11-.13.08.17.2.38.37.82.18.51.39,1.09.45,1.55.08-.05.54.39.61.59h-.24c-.05.24.3.66.13.77.42.31-.9-1.53-.46-1.04-.12.22.66.65.32.65.18.39.58.66.56,1.13-.02-.12-.44-.18-.27.13.3.54.17.11.46.53l.22.24c.21-.08.22.51.34.19-.13.15.51.74.15.86l-.3.06c.14.23.48.24.69.37,0,.04-.03.13-.07.14.21-.09.27.06.35.24.04.09.08.19.13.27.05.07.13.15.28.24.11.34.35.71.44,1.08.07.17.06.36.04.54-.01.17-.08.31-.12.44-.11.12-.2.21-.3.27-.1.3-.19.58-.28.87-.06.21-.16.41-.32.6,0-.11.06-.23,0-.3-.26.21-.2.33-.26.61-.03-.09-.52.42-.81.66-.08.44.21.42.32.52-.57.15-.27,1.2-.83,1.47,0-.16.06-.65-.19-.38-.56.18-.03.85-.46,1.34h.4c-.32.17-.14.91-.46.72.05.24-.36.64,0,.69-.3.39-.45,1.1-.47,1.29-.05.27-.1.49-.41.89.07.05.08.32.25.11.16-.28-.2-.07-.07-.23.02.07.13,0,.18-.02-.05.2.01.38-.37.47,0,.19.08.25.2.24.31-.03.64-.42.86-.31-.08.17-.06.26.09.2.11-.12.19-.24.26-.36.23-.03.19.29.21.57.19-.13.43-.26.4-.46.09.06.29.07.44.09-.35-.04.12-.27.2-.39l-.08.13c.11.06.35-.21.48-.34-.13-.1-.45.07-.63.14.06-.17.27-.3.35-.52.1.24.49-.16.7-.3.25-.14.1-.37.17-.42.09.09.36-.29.31,0-.05.09-.24.05-.29.24.2-.05.33.13.51-.24.14-.29-.37-.31.13-.56-.07.14-.02.23-.04.37l.47-.26-.14-.18c.09,0,.07.04.11.04-.05-.28.52-.6.42-.87.17-.2.5-.28.69-.44l-.02.05c.31-.13.53-.49.6-.78l.03.04c.13-.11.37-.43.42-.67.41-.2.72.46.83-.08.27-.31.34-1,.04-.88.46-.42.86-.96,1.28-1.54.42-.56.87-1.13,1.22-1.29.11-.26.06-.37.28-.6.46.98,1.02,1.89,1.55,2.76.26.44.56.81.79,1.15.12.22.23.43.29.67-.28-.18-.18.13-.28.22.32.07.05.38.37.22.13-.15.22-.2.08-.48.48.43,1.19,1.1,1.31,1.5-.06-.2.07-.14.22-.09-.26.2.08.56.43.71l.17-.12.05.31c.15.04.37-.2.54.15-.03.07-.06.14-.04.23.41.1.98.2,1.21.57l.12.41c.17.07.51.08.29-.15.5.51.86.78.94,1.1.7,0,1.4.24,2.12.47.74.2,1.43.56,2.1.76l-.09.13c.32.24.27-.19.49-.01-.16.1.18.37-.15.45.48.31.75-.03,1.1,0,.1-.17-.3.03-.17-.18.07-.04.67.37.83.09.1.14-.05.32-.15.42l.36-.07c.32.42-1.06.39-.75.89l.32.02c.22.36-.91.15-.15.43.38-.06.76-.41.49-.6.71.07.48-.61,1.2-.42.17.21-.59-.09-.5.18.3.31.72.02,1.01.17-.32-.18.02-.41.25-.41.35.18-.29.24.24.34.12-.15.62-.22.22-.39.25-.35.54.17.87-.08.14.29-.63.54-.06.75-.06-.27.77-.26.5-.68.22.1.22.31.04.44.32.2.84-.36.9.15l.14-.26c.1.09.24.16.4.31.3.02.96-.32.92.08.1-.04.77.01.52-.28-.41-.19-.49.18-.7-.2.28.32.6-.01.84-.1l.03.16c.14-.05.47,0,.56-.17-.11.08-.05.19.06.23l.15-.23c.55-.15.13.4.68.31l-.41.2c.09-.04.28.16.55.08.1-.22.28-.48.35-.66.3-.11.15.23.44,0l-.38.28c-.06.07.29.34.71.31.26-.08.64-.42.21-.51.21,0,.5.06.36.24.45-.15-.09-.22.29-.41.18.12.71.24,1.06.39l-.36.42.29-.04c-.32.34.23.19.07.52.21.02.43-.12.61-.23-.66-.37.5-.76.23-1.18.7-.31.73.91,1.33.04-.16-.08.11-.5-.32-.25.47-.08.19-.49.76-.49-.33.32.56.26.08.73,0-.15-.36-.02-.44.05.24.11.09.44.58.3.27-.15.66-.31.53-.5-.1-.23-.42.19-.33-.12.53-.3.76.03.83-.48-.34.17-.52-.04-.57-.21l.36-.25v.19c.67-.14.06-.34.68-.56l.42.16c-.02.35-.94.29-.65.66.43-.13.45-.43.87-.5-.07.08-.17.14-.24.22.14-.06.56.43.97-.18.23-.27,0-.19-.07-.34.62-.35.68-.66,1.06-.9.1.34.7-.39.46.16-.31-.06-1.15.53-1.24.9.42.24-.53.2-.49.64.53-.25.69.11.9.3.16-.06.25-.23.32-.31-.06-.25-.25-.14-.38-.36.6-.26,1.07-.73,1.24-1.11.25-.01.33.23.12.38.63-.47,1.3-.96,1.94-1.36-.61,0,.57-.61.11-.65-.36.19-.79.19-.74-.09.2-.14.1.14.24.14.09-.37.59-.05.6-.51-.44.55.21.46.32.78.28-.47.13.18.52-.16.28-.47.62-1.03.98-1.48.71-.32,1.23-1.36,1.6-1.87.34-.17.48.23.75-.04.25-.36-.5.04.01-.39l.02.09c.06-.21.87-.84.42-1.08.11.07.21.15.3.24.09-.08.06-.18.06-.26.13.03.33-.07.32.1.48-.3.44-.74.51-1.05-.06.08-.26.19-.37.27,0-.06.05-.13.02-.18-.07-.04-.14-.07-.19-.11-.12-.07-.21-.15-.3-.23-.18-.15-.37-.33-.64-.47l.17-.15-.41-.12c.21-.12-.04-.46-.33-.44.42.07.8.11,1.32.25.19.29-.51-.03-.48.26,0,.23.51.51.85.48-.19-.16-.25-.15-.48-.21.2-.24.53,0,.93.04-.14-.08-.23-.27-.35-.23.4.1.7.29,1.15.61-.44-.17-.08.17-.3.11.45-.08.22.42-.19,1-.29.2-.39.45-.51.78-.06.17-.12.35-.21.54-.07.15-.15.29-.27.41-.07-.36-.04-.79.07-1.17-.35.28-.24.39-.59.64.05.27.23.57.01,1.08l-.18-.1c-.22.44.02.63-.41,1.07-.38.37-.76.75-1.11,1.11-.37.34-.71.67-1,.94l-.16-.13c-.03.62-1.01,1.11-1.35,1.63-.47.23-.89.6-1.28.92-.4.3-.77.53-1.09.52-.71.57-1.47.98-2.22,1.42-.77.39-1.59.72-2.5.99.07-.12.15-.24.21-.37-.25.31-.26-.1-.56.03.43.13-.35.41-.54.65-.44-.01-.89.15-1.35.28-.45.13-.89.32-1.25.48l-.06-.2c-.7.54-1.66.22-2.6.2-.11-.08-.28-.26-.56-.22-.51.36-.77.29-1.52.47-.54-.03-1.42-.14-1.96-.3-1.03.09-2.08.03-3.12-.13-1.03-.23-2.08-.38-3.15-.59l-.08-.28c-2.2-.04-4.39-1.61-6.07-2.28l.35-.26c-.41-.4-1.14-.59-1.18-.27-.42-.38-1.29-.65-1.38-1.14-.42-.41-.69-.27-1.09-.56-.8-.88-1.11-1.17-1.95-1.91l.17.21c.15.03.28-.09.11-.3-.36-.22-.91-1.21-1.02-.59-.06-.12-.14-.23-.21-.35-.06-.09-.12-.18-.18-.27-.05-.08-.11-.12-.16-.16-.11-.09-.18-.12-.23-.36-.01-.1-.03-.09-.06-.14.01.19-.04.29-.04.43-.06.07-.14.07-.23.12-.05.02-.09.06-.13.11l-.02.04-.09.13c-.06.09-.11.18-.16.27-.16.07,0-.34-.28-.05-.12.21.13.12-.02.39-.91,1.37-2.45,2.2-3.54,3.23-.35.36-.72.72-1.14,1.05-.45.35-.73.6-1.6,1.07-1.49.83-3.17.94-4.32-.07-.75-.69-1.02-1.66-1.02-2.7l.1.02c-.22-.61.1-1.63.31-2.11.2-.48.4-.91.25-1.34.16-.17.32-.73.44-.52,0-.75.96-1.67,1.08-2.67-.05.08-.05.13-.06.24.62-.79.75-1.69,1.41-2.5-.01.11-.08.29,0,.37.18-.13.2-.38.24-.6.02-.11.05-.21.1-.28.06-.08.09-.03.22-.02.04-.09-.19-.14-.2-.1.05-.05.1-.11.14-.17.16-.16-.04-.33-.11-.48-.26-.43-.53-.87-.79-1.31-.55-.91-1.11-1.84-1.59-2.81-.41-1.69.68-.39-.15-1.51.05-.14-.2-.01-.11-.06-.31-.45.22-.94-.13-1.22-.23.23-.23-.19-.4-.15-.03-.29-.03-.47-.04-.73,0-.26-.02-.46-.01-.67,0-.41-.05-.75-.12-1.35l.15.14c-.18-.71-.05-1.47.38-2.01.43-.56,1.04-.88,1.55-1.17.85-.1,1.77.12,2.65.56.22.1.44.21.66.35.23.14.31.18.45.28.27.17.52.35.77.52.98.71,1.86,1.46,2.7,2.23.84.77,1.63,1.56,2.41,2.37l.14.15c.06.06.03.02.04.04h.03s.04.03.04.03c.02,0,.04.02.05,0l.02-.09s0,0,.01,0c.02-.02-.02.03.13-.16.21-.27.44-.51.66-.77.43-.52.93-.97,1.4-1.46.5-.45.99-.9,1.51-1.32.54-.4,1.05-.83,1.61-1.19,2.2-1.5,4.67-2.62,7.27-3.23,1.3,0,1.38.03,2.67-.43-.04.08-.12.11-.02.15,0-.33.93-.23,1-.56.97-.1,1.9-.22,2.83-.36.94-.07,1.88-.13,2.88-.17-.32.05-.47.32-.09.29l.39-.23.06.09c.26-.05.55-.19.28-.31,2.6-.11,5.21.39,7.62,1.31,2.42.93,4.59,2.3,6.62,3.79.88.81,2.21,1.86,3.15,2.76.27.38.54.76.81,1.14.25.38.49.77.74,1.14.24.41.48.81.72,1.21.34.61.69,1.19.96,1.77l.42.86.1.22s0,.06-.04.09l-.1.07-.4.29c-.51.39-1.06.77-1.62,1.15l-.69.48-.52.38c-.34.26-.69.52-1.03.8l.6-1.15c0,.09.01.18.02.27,0,0-.14-.08-.31-.27l-.48.91c.08-.37.31-.96.98-1.57Z"/>
      <path class="cls-2" d="M71.7,48.23c.01.21.3.52-.09.51.05-.15-.02-.41.09-.51Z"/>
      <path class="cls-2" d="M68.33,55.82s-.16.05-.2.05c.09-.09.09-.28.22-.28-.09.09-.02.14-.02.23Z"/>
      <path class="cls-2" d="M66.17,57.41c-.05-.15.34-.58.6-.79l-.6.79Z"/>
      <path class="cls-2" d="M63.76,58.16c-.24-.02-.22-.1.03-.22.05.06,0,.13-.03.22Z"/>
      <path class="cls-2" d="M63.76,58.54c-.18.09-.31.06-.44.03.06.11.38-.28.44-.03Z"/>
      <path class="cls-2" d="M58.68,59.91c-.12.03-.37.19-.51.05.15.09.57-.27.51-.05Z"/>
      <path class="cls-2" d="M56.29,60.47c-.08,0-.12-.03-.2.01-.15-.06,0-.17.12-.19l.09.18Z"/>
      <polygon class="cls-2" points="23.33 53.69 23.29 53.97 23.17 53.88 23.33 53.69"/>
      <path class="cls-2" d="M23.82,38.07c.16,0,.01.17.03.2-.13-.07.12-.14-.03-.2Z"/>
      <polygon class="cls-2" points="32.43 44.97 32.38 45.07 32.33 44.52 32.43 44.97"/>
    </g>
  </g>
  <g>
    <circle class="cls-1" cx="61.61" cy="42.58" r="1.79"/>
    <g>
      <path class="cls-2" d="M63.93,42.62c-.06-.05-.26.02-.11-.03.12,0,.21.02.11.03Z"/>
      <path class="cls-2" d="M63.76,42.42c-.38-.05-.4-.11-.37-.2.02-.08.07-.19-.19-.18-.04,0,.4-.13.29-.14-.6.07-.34-.19-.11-.65l.1-.06c.04-.09-.29.11-.28.05.06-.05.09-.06.17-.14-.19.14-.13.01-.28.12.06-.07.2-.2.25-.29l-.21.17c-.49.41-.08-.14-.36.05.04-.05.08-.08.11-.13-.35.22-.41.09-.59.17.05-.08.13-.24.17-.34-.13.25-.2.3-.25.34.1-.28-.15.23-.12.07l.03-.06c-.13.28.02-.18-.11.16l.05-.22c-.13.39.02-.21-.06-.02l-.02.08c-.04.09,0-.11-.04-.05v-.05c-.06.09-.04-.13-.1.18.03-.25.06-.11.11-.48-.23.29-.35.23-.51.24-.03-.13-.05-.16-.07-.28,0,.07-.06.07-.05.23,0,0-.04-.16-.05-.17-.06-.11.03.35-.02.22,0-.09-.02-.19-.05-.3.02.25-.02.22-.03.31,0-.05-.01-.09-.04-.18.04.28-.09-.04-.06.14l-.05-.18c-.13-.19.11.37.03.26-.01-.06-.04-.13-.06-.2.07.33-.02.25,0,.37-.01-.02-.03-.07-.03-.07-.02.06-.11-.02-.07.13-.06-.06-.22-.4-.23-.31.19.32.01.17.26.51-.06-.04-.18-.11-.13,0-.07-.12-.29-.35-.28-.39l-.16-.16c-.09-.12.06.02-.07-.12,0,.03.03.18-.02.14.12.2.38.54.38.6-.08-.12-.29-.29-.32-.34.14.19.3.37.46.55,0,.02-.21-.2-.16-.12.07.07.11.11.17.17-.03-.02.04.09-.24-.14-.11-.09-.04-.07-.15-.14-.02.02.08.11.07.13l-.04-.03c-.06-.02.09.14.27.24.02,0-.18-.13-.08-.08.16.14.2.19.19.2-.05-.04-.13-.09-.21-.15.21.19.28.25.38.33.15.09-.27-.17-.19-.13-.23-.08.27.22-.06.08-.03-.02.22.1.18.08-.03,0-.26-.1-.17-.05-.14-.06.04.03.08.06.1.05-.07-.02-.08-.04.11.07.31.18.1.14.09.03.31.1.33.11l-.22-.06c-.13-.03.01.02-.18-.02.27.08-.21-.12-.01-.04-.19-.04.35.12.04.04,0,.02.25.08.04.05.04,0-.31-.07-.3-.06.04.03.11.03.18.06l.09.02c.22.03-.03.01.22.04-.18-.02.11.03-.26,0l-.29-.03s.3.05.43.06c-.03,0-.09,0-.13,0,.44.03-.04.02.31.04-.16,0-.02.03-.29.05.14.01.3,0,.2.03-.04,0-.06,0-.15,0-.13.02-.01.01.06.02-.07,0-.26.04-.41.08.13,0,.37-.04.52-.06-.43.08.28-.02-.11.07-.06.01-.22.02-.32.06-.42.11.33-.04.12.03l.35-.1c-.22.07.21-.04-.15.07.13-.03-.11.06.23-.05-.27.13.18-.03-.39.25.06-.02,0,.02.17-.07.18-.09-.13.05-.01,0,.01,0,.1-.04.14-.06-.07.04-.09.06-.36.18-.18.13.55-.25.43-.17-.13.07-.18.1-.15.1l.22-.12s-.28.19-.49.32c.04-.01.04,0,.2-.09l-.25.19c.18-.14.13-.08.18-.11l-.05.03c-.08.06-.02.04,0,.03.12-.1.16-.14.2-.17.09-.06.08-.04.18-.11-.2.15-.13.12-.15.14-.04.04.18-.13.17-.13-.1.08,0,.02-.15.13-.03.02.09-.08,0-.02-.07.06-.24.21-.1.11.1-.07.36-.32.25-.21-.05.04-.12.1-.19.16l-.08.1.16-.15s-.05.05-.08.07c.17-.16.07-.03.26-.21.02-.01-.1.12-.11.14h-.01c-.08.11-.01.06.09-.05l-.03.04s.02,0,.11-.1c-.1.13-.53.66-.34.45.02,0,.27-.31.35-.43-.07.14.14-.16-.03.14.05-.08.08-.12.11-.17-.02.09.14-.22-.02.19-.04.08-.09.2-.14.32.09-.18-.07.2.07-.12.07-.19.11-.28.14-.35.05-.1.06-.1,0,.09.03-.09.05-.15.07-.2-.1.3-.1.36-.06.25l.06-.19-.05.19c.02-.06.11-.4.07-.21-.02.07-.04.15-.05.2.05-.15.11-.41.08-.25l-.05.28s.04-.2.05-.28c-.01.17-.02.2-.03.44.1-.6.08-.62.09-.58v.15c.02.14,0-.26,0-.15.01.14.02.3.04.47.03.15,0-.25-.01-.32-.02-.19.01.12-.02-.12,0-.07.03.15-.02-.14.02.11.05.32.07.44l-.02-.14c.07.33.07.6.14,1.02v-.05c.08.3,0,.35.08.44,0-.15-.06-.56-.09-.69.02-.08-.11-.68-.09-.66.04.17,0,.04.05.28.06.23,0-.13.02-.05-.03-.1-.09-.39-.1-.44.04.13.06.27.08.29-.04-.16-.07-.28-.1-.4-.02-.09,0-.02-.01-.04.03.08.05.18.08.27.04.13.07.25.1.31-.06-.21-.08-.28-.18-.58,0,.02-.02-.05.02.06.02.08.05.16.08.24.06.15-.15-.45.02.03l-.09-.25c.03.08.06.14.11.27,0,0-.13-.33.03.03-.01-.04,0-.03-.12-.28-.06-.13.06.14-.05-.11.02.05.05.11.01.03,0,0-.01-.03-.02-.04h0s0,0,0,0h0s0,0,0,0h0s.03.05.04.07c.02.03.03.05.02.04l.08.16s.09.16.06.09c-.07-.12-.15-.27-.2-.36h0s.03.05.03.05c.03.06.18.3.18.3-.02-.03-.07-.11-.12-.2-.03-.04-.06-.09-.08-.13-.02-.04,0-.01-.01-.02h0s.06.1.1.16c-.02-.04-.06-.1-.1-.16-.05-.07.1.14.22.31l.2.3h0c.16.24.13.17.3.42.04.03-.01-.06-.06-.13-.31-.38-.39-.54-.67-.88-.08-.09.69.82.25.29-.08-.09-.3-.34-.22-.24-.01-.01-.03-.03-.06-.07.09.1.23.25.37.4-.1-.11-.08-.08-.05-.05.12.12.29.33.31.32-.02-.04-.01-.05-.18-.22-.18-.18.01.03-.16-.16-.05-.07.22.2-.1-.12.01.01-.03-.02-.09-.08-.03-.03-.07-.07-.09-.09h0s0,0,0,0h0s0,0,0,0c.2.18-.1-.09.24.23.02,0-.16-.15-.06-.07.03.03.04.04.07.06.01.01.48.41.22.16-.1-.1-.13-.11-.26-.22-.04-.04-.18-.15-.2-.16.27.19.03.02.31.22-.17-.11-.15-.1.1.11.32.25-.05-.03.26.24.02,0,.33.24.53.4.02,0-.06-.07-.09-.1-.19-.15-.19-.15-.39-.3.07.02-.03-.08-.22-.22.1.06.3.2.32.23-.04-.07,0-.07.08-.06-.36-.18-.07-.07-.36-.22-.09-.03-.33-.17-.49-.26.03.02.15.09.23.13-.19-.11.31.16,0,0,.11.07.43.23.7.38-.15-.1.2.11.21.08-.14-.1-.26-.19-.31-.23.28.08.03-.07.03-.09.15.03.49.15.55.14,0-.03-.37-.09-.21-.08l.07.02c-.08-.03.25,0-.24-.13l.37.09s-.05-.02-.09-.04c.12.03.24.04.31.07.27.03-.03-.07-.04-.09l-.23-.02c-.17-.07.06-.06-.02-.11l.22.02-.13-.04c.21.03.35,0,.17-.02.18.04.36.08.54.13-.13.01-.26-.05-.48-.06-.19,0-.14.04.07.07.03-.01-.02-.02-.1-.04.31.03.29.06.49.1-.01-.01.08-.02-.01-.03.15.04.17.07.17.11-.11-.05-.19-.02-.28-.04.27.05.34.1.26.14-.31-.03.17.14.07.18-.26-.1-.47-.18-.57-.23-.14,0,0,.03-.14.03.19.07.5.16.6.24l-.19-.06c.09.07.37.16.3.2-.13.06-.16.15-.22.21l-.18-.09c.37.23.08.19.22.33-.21-.02.04.29-.27.13.03.22.03.46-.16.53l-.18-.24c.12.18-.13-.11-.12-.06.18.15.17.26.27.41-.21-.12-.13.13-.09.35l-.12-.17c.15.36-.13.14-.23.13-.05-.07-.16-.23-.17-.2.11.31.07.3.08.53-.05.03-.18-.01-.28-.11-.06.52-.38.29-.58.59l-.04-.23c-.2.53-.53.07-.75.29l.07-.4c-.04-.13-.15.09-.19.37-.04-.13-.21.16-.18-.18-.05-.09-.13.16-.2.2-.1-.19-.14-.17-.3-.15l.02.04c.05-.08.11-.24.09-.28-.09.09-.11-.17-.27.3,0-.31-.42.05-.35-.36-.06.12-.1.12-.17.19-.12-.07-.06-.37-.28-.25.03-.06.17-.16.13-.2-.06.02-.11.13-.19.17-.33.04-.14-.48-.3-.56-.41-.09-.51-.49-.67-.76l.09-.04c-.39.03.27-.36-.29-.26.08-.05.01-.11.2-.14-.28-.02.18-.28-.17-.33,0,.01.01.02.06.02.19-.15-.12-.22.07-.37.04,0,.07.03.17.02.18-.06-.42-.09.05-.14,0-.03-.24,0-.22,0,.17-.27-.11-.56-.15-.9.33-.14.77.18.47-.06.09.01-.17-.06-.08-.03-.11-.1.53.07.3-.04-.28-.08-.14-.08-.31-.13.22-.06.47.03.3-.14l.14.07c-.35-.27-.09-.28-.47-.61.25-.63.58-1.35,1.24-1.76.68-.25,1.42-.61,2.15-.29.13.42.12.41.32.28-.02.06-.03.07-.03.14.07-.32.12,0,.21-.31.24.12.51.12.76.23-.06.01-.18.25-.13.25l.14-.17-.03.09c.05-.03.16-.15.17-.27.39.04.67.34.84.67.18.33.27.67.48.92-.03.2.17.33.31.46-.2.66-.5,1.02-.19,1.45,0,0-.85-.06-1.05-.16Z"/>
      <path class="cls-2" d="M63.96,42.68c-.16,0-.26.03-.47,0,.15,0,.33,0,.47,0Z"/>
      <path class="cls-2" d="M62.21,42.89s-.06-.03-.09-.04c0,0-.13-.07-.05-.04.01,0,.08.04.14.08Z"/>
      <path class="cls-2" d="M62.09,42.9c-.11-.08-.2-.15-.23-.16.08.05.15.11.23.16Z"/>
      <path class="cls-2" d="M61.6,42.58h0s0,0,0,0Z"/>
      <path class="cls-2" d="M61.84,42.78s-.07-.05-.13-.1c.08.07-.04-.03.13.1Z"/>
      <path class="cls-2" d="M61.6,42.58h0s0,0,0,0Z"/>
      <path class="cls-2" d="M61.66,42.67s-.02-.03,0,0c-.02-.03-.05-.08-.06-.09-.01-.02.02.03.05.09Z"/>
      <polygon class="cls-2" points="60.94 42.75 61.01 42.74 60.87 42.77 60.94 42.75"/>
      <path class="cls-2" d="M61.03,42.2c-.07-.06.12.07.13.08,0,.01-.15-.1-.13-.08Z"/>
      <polygon class="cls-2" points="60.88 41.36 60.88 41.37 60.72 41.11 60.88 41.36"/>
    </g>
  </g>
  <g>
    <path class="cls-1" d="M54.59,38.21s-4.81,15.38,4.29,22.62"/>
    <g>
      <path class="cls-2" d="M55.09,38.43c-.04-.1-.26-.03-.09-.09.11.05.19.09.09.09Z"/>
      <path class="cls-2" d="M58.91,60.35c-.7.39-.47-.45-1.03-.31-.05,0,.3-.29.17-.28-.63.21-.78-.36-.62-.96l.1-.06c.02-.11-.33.08-.33-.02.06-.05.1-.05.17-.13-.19.14-.16-.03-.32.05.05-.08.2-.2.26-.29l-.24.14c-.57.3-.14-.25-.5-.18.05-.03.1-.05.14-.09-.46.02-.64-.27-.9-.45.09-.04.24-.13.32-.2-.24.14-.35.1-.44.06.23-.19-.29.02-.2-.15l.06-.03c-.3.1.1-.18-.24-.04l.18-.16c-.37.18.13-.19-.07-.14l-.07.04c-.11,0,.05-.12-.03-.13l.04-.03c-.15-.05.01-.22-.27-.06.2-.16.16.04.45-.19-.47-.18-.65-.54-.77-.91.1-.09.13-.14.23-.19-.07,0-.11-.11-.27-.08.01,0,.14-.09.15-.11.09-.11-.35.07-.25-.06.09,0,.19-.04.3-.09-.25.04-.25-.06-.35-.1.05,0,.09,0,.18-.04-.29.03,0-.16-.2-.17l.18-.04c.16-.19-.37.11-.29-.04.06,0,.13-.03.2-.05-.35.03-.31-.15-.45-.21.03,0,.07-.02.07-.02-.08-.08-.02-.22-.2-.28.07-.07.43-.13.34-.21-.35.12-.2-.13-.58.06.03-.11.12-.3-.01-.32.15,0,.42-.18.47-.11l.2-.12c.15-.04-.03.07.14,0-.02-.03-.2-.1-.15-.15-.24,0-.66.05-.74-.05.15.01.39-.14.46-.12l-.73.03s.28-.08.17-.12c-.09.03-.16.02-.24.02.04-.02-.13-.14.21-.25.13-.05.09.04.21-.03-.02-.07-.14-.04-.17-.11h.05c.04-.07-.19-.11-.37-.02,0,.04.21-.06.12,0-.22.02-.3-.05-.32-.13.06.01.16-.01.26-.03-.3-.03-.43-.11-.56-.2-.17.04.32-.03.23,0,.21-.19-.39-.22-.06-.41.03.01-.24.06-.19.05,0-.07.26-.12.16-.15.14-.03-.06-.05-.11-.08-.11,0,.07-.03.09.01-.13-.04-.4-.26-.22-.44-.1.02-.37-.03-.37-.07l.23-.02c.13-.05-.04-.11.15-.15-.29-.03.28.24.05.18.18-.06-.38-.08-.07-.11-.02-.07-.29-.09-.09-.19-.03.02.32,0,.3-.05-.06-.09-.11-.01-.2-.08l-.1-.04c-.22.03.01-.09-.23-.02.18-.04-.14-.13.23-.17l.29-.03s-.32-.03-.45-.04c.03,0,.08-.03.13-.03-.44.05.02-.11-.32-.11.14-.11,0-.23.26-.3-.14-.05-.31-.1-.22-.19.04.01.06.03.15.03.13-.06,0-.06-.07-.1.07,0,.25-.12.4-.19-.14-.05-.38,0-.52,0,.43-.1-.3-.17.09-.28.06.02.22.08.33.01.43-.1-.33-.1-.13-.21l-.36.05c.22-.06-.22-.13.15-.15-.13-.02.11-.13-.24-.09.29-.18-.22-.4.41-.53-.06-.02,0-.08-.18-.06-.2.05.14.05,0,.07-.01-.02-.11-.02-.16-.02.08-.06.11-.1.4-.06.22-.12-.61-.09-.47-.24.15,0,.2-.01.18-.05l-.25-.07c.06-.1.33-.06.58-.07-.04-.05-.03-.11-.22-.13l.31-.07c-.23.05-.15-.04-.21-.06l.06.02c.1-.01.04-.07,0-.1-.15,0-.22.07-.26.1-.11-.02-.09-.06-.21-.09.24,0,.17-.09.2-.13.05-.05-.22-.05-.21-.06.13,0,.02-.08.2-.04.04.02-.12.04-.01.06.09-.03.31-.03.15-.09-.12-.05-.48.02-.33-.07.06.02.16.03.25.04l.13-.08h-.22c.06-.01.08,0,.11-.01-.23-.02-.07-.13-.34-.15-.02-.04.15-.09.18-.13h.02c.13-.04.04-.11-.11-.15h.05s-.02-.09-.15-.12c.17-.07.84-.01.56-.09,0-.07-.4-.11-.55-.09.16-.12-.2-.27.15-.38-.09-.02-.15-.01-.2-.05.1-.18-.25-.4.2-.52.09.06.22.01.35.02-.2-.05.21-.04-.13-.07-.2,0-.3-.01-.38.03-.1-.11-.1-.28.09-.33-.09.02-.15,0-.21-.03.32.03.37-.05.26-.12l-.2-.02.2-.03c-.06-.03-.41-.05-.22-.1.08,0,.15,0,.21,0-.16-.07-.42-.18-.25-.24l.29-.03s-.2-.09-.28-.05c.18-.1.21-.18.46-.19-.58-.25-.58-.55-.51-.78l.15.02c.14-.05-.25-.06-.15-.09.14.03.31-.02.47.05.16-.07-.24-.14-.3-.21-.19-.03.12.06-.12.02-.07-.02.16-.11-.13-.15.12,0,.33.03.44.06l-.13-.07c.34-.03.59.22,1.01.2l-.04-.05c.31-.01.33.17.44.06-.14-.07-.55-.16-.68-.13-.07-.12-.69-.13-.64-.25.17-.01.03.1.27.11.24-.03-.11-.13-.03-.17-.12.04-.4-.04-.45-.08.14-.05.27.07.31,0-.16-.04-.28-.13-.4-.08-.37-.08.12-.08-.17-.16.27,0,.6.17.75.09-.26-.02-.33-.16-.72-.16.08-.03.28,0,.43.04.16-.03-.45-.19.06-.14l-.26-.05c.09,0,.16-.01.3-.03.01-.05-.33-.2.06-.14-.04-.02,0-.13-.28-.12-.18.04.19.11-.19.09.31,0-.03-.1-.12-.16l.15.02c-.06-.03-.02-.08-.18-.12.08.03.19.04.23.02l-.23-.06c-.1-.11.41.04.36-.06l.17.1s.18-.02.12-.07c-.21-.05-.46-.12-.62-.16-.08-.07.24.01.03-.07l.24.11c.07.02.36,0,.36-.06-.07-.06-.36-.17-.49-.12,0-.04.14-.06.29-.01-.06-.09-.23-.03-.35-.12.15,0,.36-.06.58-.08l.34.13v-.05c.28.11.23,0,.52.09.05-.02-.04-.08-.11-.12-.49.01-.63-.21-1.07-.26-.1-.15,1.07.11.42-.15-.12,0-.44-.12-.33-.02.06-.07-.43-.13-.23-.2.17.1.45,0,.69.15-.14-.03-.12.04-.08.06.17,0,.44.08.45,0-.03-.06-.03-.13-.26-.16-.25-.04.01.08-.23,0-.07-.12.31-.06-.12-.18.02.07-.24.04-.41,0l-.09-.09.16.05c.14-.1-.29-.09-.23-.2h.34c.28.09-.15.15.31.22.03-.07-.2-.14-.06-.19.04.02.04.05.08.07.02-.02.63.07.29-.11-.13-.08-.16-.05-.33-.08-.03-.13-.19-.2-.21-.28.33.08.06-.13.38.03-.2,0-.22.17.09.28.4.04-.07.08.32.18.03-.09.41-.01.67.02.02-.02-.08-.07-.12-.09-.24-.06-.24-.02-.49-.07.09-.09-.03-.22-.25-.32.13-.01.36.05.38.1-.04-.14.02-.26.11-.36-.41,0-.06-.15-.4-.17-.1.04-.39.04-.56-.03.03-.03.17.04.26.04-.2-.1.36,0,.03-.13.1.14.47.13.77.22-.15-.12.22.05.23-.03-.15-.12-.27-.25-.31-.35.31-.05.07-.28.09-.39.17-.01.5.11.57.06,0-.07-.38-.04-.2-.1l.07.03c-.07-.05.28-.12-.21-.27l.36.13s-.04-.05-.08-.07c.12.03.24.04.31.09.27,0-.01-.14,0-.2l-.23-.02c-.14-.16.1-.17.05-.3l.21.06-.11-.1c.2.07.35.05.19-.03l.48.31c-.14.01-.24-.12-.46-.15-.19-.03-.16.09.04.16.03-.03-.01-.05-.08-.1.3.07.27.12.47.2,0-.02.09-.03,0-.06.14.08.15.12.14.19-.1-.07-.19-.03-.27-.06.26.08.33.16.23.22-.32-.02.16.2.05.27-.26-.1-.46-.2-.55-.29-.15.02,0,.07-.16.09.19.08.49.17.6.28l-.2-.04c.08.09.38.16.3.24-.13.12-.17.28-.22.38l-.2-.04c.41.16.11.25.28.37-.22.1.12.35-.24.36.1.29.21.54.09.79l-.28-.1c.2.09-.17,0-.14.06.24-.01.29.12.46.18-.25.08-.03.27.16.41l-.2-.03c.35.17.01.24-.07.36-.09,0-.28,0-.26.04.31.12.29.15.47.29-.01.08-.11.19-.25.25.42.35.08.6.33.93h-.24c.48.34-.01.64.22.91l-.4-.06c-.13.07.09.19.38.19-.13.07.18.21-.16.23-.08.07.18.11.24.18-.16.15-.13.21-.06.36l.03-.04c-.09-.02-.26-.03-.29,0,.11.06-.12.2.37.17-.29.15.21.38-.17.52.13,0,.16.03.25.05,0,.14-.28.28-.06.39-.07.02-.22-.04-.24.02.05.03.17,0,.25.04.25.22-.25.45-.18.65.27.36.13.73.19,1.08h-.1c.38.09-.36.29.21.35-.09.03-.03.11-.22.1.27.07-.22.28.12.38,0-.01-.01-.02-.06-.03-.2.15.1.24-.08.4-.04,0-.08-.03-.17-.03-.18.08.42.08-.04.17,0,.03.24,0,.22-.02-.17.33.19.62.36.91-.24.27-.78.14-.4.26-.09.03.18-.02.08,0,.14.05-.5.2-.25.21.28-.07.16,0,.34-.03-.16.17-.41.25-.18.32l-.15.02c.44.05.24.24.75.25.26.66.7,1.22.95,1.83.18.62.55,1.15.64,1.82-.28.32-.26.33-.04.4-.06.03-.08.02-.13.06.29-.15.09.09.37-.05.07.24.25.39.37.6-.05-.01-.28.11-.24.14l.2-.07-.07.06c.06,0,.21-.06.28-.14.58.32.43,1.17.87,1.62,0,.2.25.25.41.31.02.62.13,1.2.68,1.3,0,0-.57.62-.86.62Z"/>
      <path class="cls-2" d="M55.09,38.53c-.16-.03-.26,0-.46-.1.15.04.32.05.46.1Z"/>
      <path class="cls-2" d="M53.05,39.75s-.07,0-.1,0c0-.02-.14-.07-.05-.07,0,.02.08.04.15.06Z"/>
      <path class="cls-2" d="M52.86,40.16c-.14-.04-.23-.15-.24-.21l.24.21Z"/>
      <path class="cls-2" d="M52.19,40.45c-.13.01-.19-.01-.18-.06.08.01.11.04.18.06Z"/>
      <path class="cls-2" d="M52.51,40.54s-.09.03-.18.04c.12.02-.06-.09.18-.04Z"/>
      <path class="cls-2" d="M51.93,41.35s.12.09-.04.08c.12,0-.16-.14.04-.08Z"/>
      <path class="cls-2" d="M52.08,41.81s-.04.01,0,.04c-.07.01-.17-.03-.18-.05l.18.02Z"/>
      <polygon class="cls-2" points="52.32 49.44 52.25 49.4 52.39 49.4 52.32 49.44"/>
      <path class="cls-2" d="M52.83,52.76c.1.02-.12.06-.14.07-.03-.04.18-.03.14-.07Z"/>
      <polygon class="cls-2" points="54.01 54.29 54 54.28 54.29 54.19 54.01 54.29"/>
    </g>
  </g>
</svg>