<?xml version="1.0" encoding="UTF-8"?>
<svg id="Layer_3" data-name="Layer 3" xmlns="http://www.w3.org/2000/svg" viewBox="0 0 95 95">
  <defs>
    <style>
      .cls-1 {
        fill: #fff;
      }

      .cls-2 {
        fill: #ff4f20;
      }
    </style>
  </defs>
  <g>
    <path class="cls-1" d="M65.63,36.67c-.06.44-.14.87-.25,1.3-.17.72-.43,1.42-.54,2.15-.04.28-.08.57-.12.85,0,.06-.01.11-.02.17-.02.15-.04.3-.06.45-.02.13-.03.26-.05.39,0,.04.01.09.02.13,0,.16-.02.3-.07.44,0,.08-.02.16-.02.24-.02.96-.77,1.66-1.71,1.71-.58.03-1.1-.32-1.41-.8-.16-.04-.32-.09-.48-.15-.02,0-.04-.02-.06-.03-.11.03-.23.04-.35.05-.43.02-.91-.2-1.21-.5-.31-.31-.5-.77-.5-1.21,0-1.51.36-2.98.66-4.45.07-.37.33-.67.63-.9,0-.05-.02-.1-.03-.15-.06-.29-.05-.57,0-.84-.4-.51-.66-1.13-.74-1.79h-3.39c.03.18.06.37.06.55,0,1.27-.66,2.3-1.63,2.92.03.18.05.36.06.55,0,.25-.05.51-.08.75-.02.11-.04.21-.08.31-.08.23-.17.45-.28.67,0,.01-.02.02-.03.03,0,.01,0,.03,0,.04v.09c0,.31-.08.6-.23.86l-.27.35c-.21.21-.46.36-.75.44-.03,0-.05,0-.08.01-.06.02-.11.06-.18.07-.15.02-.3.04-.45.06-.22,0-.42-.04-.61-.13-1.33.4-2.8.23-4.17.15-.91-.06-1.82-.12-2.74-.16-.87.09-1.73.18-2.59.3-2.11.29-4.74,1.26-5.87,3.08-.14.22-.3.39-.48.52l2.26,24.62-.11-.13c0,2.21,5.59,4,12.49,4s12.49-1.79,12.49-4l-.11.13,3.05-33.14Z"/>
    <g>
      <path class="cls-2" d="M66.41,34.01c-.03-.37-.27.17-.09-.25.11.06.2.14.09.25Z"/>
      <path class="cls-2" d="M66.17,37.02c.11-.33.05-.6-.22-.65.08.08.18-.2.28,0,.02-.24,0-.39-.09-.55-.01.04-.04.1-.04.15-.19-.14-.16-.38-.47-.36.07.13.12.14.08.3-.21-.09-.23-.51-.03-.6.23-.1.33.32.48.13l-.37-.58c-.06.13-.13.26-.21.39v.04s-.02,0-.02,0c-.06.1-.12.19-.2.28-.05.3-.17.56-.07.92l.24-.15c-.01.27.27.58-.02.8-.07-.13-.19-.05-.32-.06.03.07.12.14.07.22l-.37-.16c.49.17.12.76.19.89l-.07-.05c-.2.39.22-.05.2.22-.08.23-.42.05-.6.25-.03.41.2,1.15-.14,1.58.03.37.13.79.28,1.14-.03.33-.4-.05-.25.29-.13-.05-.28-.01-.41,0,.15.05-.08.62.29.38-.12.47-.2,1.01-.17,1.52,0-.17-.25-.24-.38-.11.22.26.31.68.21,1.09.25.02.26-.12.5-.06.03.07.13.18.11.28-.26.04-.66-.02-.7.36-.4-.14.11-.64-.31-.51-.31-.2-.26-.88-.05-1.02-.32-.37-.06.26-.4.17,0,.31.16.47.17.94.17.02.21-.14.33.09.32.45-.3.5-.33.61-.04-.07-.04-.15-.07-.22-.15.27.08.39.03.68-.47.04,0-.48-.28-.61l-.35.18c-.09.45.37.16.2.62l-.16-.07.08.3c.17.02.44-.02.43-.27.43.21.04.24.09.64.24.15,0-.17.24-.16.23-.02.22.26.24.46-.03.33-.29.14-.47.26-.04-.07-.05-.32.1-.28-.22-.43-.54.13-.7-.17-.18.3.12.31.19.48.04-.09.25.07.35,0,.64.6-.53.3-.46.82.45-.07.55.74,1.07.41.07.13.16.3.1.42-.29-.16-.25.21-.52-.06l-.02.19-.33-.32c-.23.19-.46.51-.61.61.11.28.3-.06.34.26-.15-.12-.29.06-.3.2.14-.27.42.03.48.22-.02.28-.32.47-.39.42l-.23-.29c.2.22-.12.08-.05.29.16.07.4.23.61.31.06.18-.17.29-.14.35l-.16-.29c.03.37-.47.04-.38.42l.22.12c-.04.07-.15.1-.23.02.16.07.11.28.16.38h-.16c.09.18.41.41.09.57.39-.12.02-.19.21-.44.29-.14.23.29.27.35-.4-.05-.07.4-.1.59-.15.1-.23.19-.32.25l.26.1c-.52.02.08.39-.1.59-.15-.12-.35-.13-.44.02.4-.17.44.38.71.34-.17.37-.48-.13-.75-.04.28.22-.23.41.14.57.14-.27.24.07.4.14-.06.35-.16-.07-.32.16.04.15.31.37.44.15-.1.2.24.46-.01.67-.25.07-.07-.44-.25-.32-.07.48.56.3.6.76.15-.18.55.04.67.27-.15.49-.12-.23-.44-.07l.03.2c-.44.24-.63-.65-.99-.42l.12.23c-.11-.06-.32-.15-.44-.07.28.08.03.51.09.56.24.07-.05-.18.13-.13.04.24.44.38.26.71-.15-.21-.34.04-.47-.05-.12.16.29.08.13.31l-.14-.04c-.13.92-.21,2.07.32,2.91-.26.12-.31.42-.52.86.1-.19.25.01.27.13l-.3.19c-.19.25.05.63.18.89-.06.04-.14.05-.21.05-.21.22.14.26.19.36l-.21.14.19.05c.09.25.01.56-.3.5.05.1.1.2.21.09-.21.22-.27.87-.2,1.31.1-.2.2-.17.4-.17.33.09-.07.09.11.28-.13,0-.27.18-.35-.04-.49.53-.21,1.37-.37,2.08.04.15.1.11.18.19-.39.42-.08,1.01-.27,1.49.15-.1.54.09.52.37.25.32-.4.08-.59.34.03.02.06.04.08.06h0s.1-.07.1-.03c0,.03,0,.06,0,.07h-.05c.16.09.18.26,0,.29v-.02c-.07.06-.29.02-.3.09.18.2-.05.18.02.44-.03-.01-.02-.04-.08-.07l.12.18-.3.05c0-.11-.04-.19-.02-.28-.32.02.04.22-.02.41-.09.26-.21.05-.34.02.02-.14.17-.02.19-.09,0-.21-.14,0-.21-.11-.04.01.07.26-.09.29-.13.05-.39.25-.46,0-.06.16-.2.2-.24.33.12,0,.35-.03.43.1-.09.07-.26.22-.33.13l.06-.09c-.06.09-.38.14-.14.29l-.33-.21c-.01.2-.24.27-.4.37-.09-.24-.03-.54-.38-.49l-.21.32c-.15.07-.2.02-.22-.12-.55.02-.37.8-.85.7.11-.33-.04-.32-.25-.35,0,.05,0,.15-.07.18.08.12.07-.23.25-.07.09.17-.15.16-.22.24-.51-.54-1.29.1-1.97-.11.09.35-.26.14-.38.29,0-.37-.35.11-.54-.1l.14.35c-.4-.16-.58.62-.86.2-.23-.09.05-.27.14-.34-.33-.37-.77.39-1.05-.03-.02.15.09.38-.17.53-.22-.15-.65-.32-.61-.39-.17.08-.21.2-.41.07.01-.1.1-.11.15-.15-.3-.09-.54.07-.8.21-.17-.27-.69-.13-1.04-.29-.2.34-.56-.15-.59.3,0-.05-.03-.11-.05-.13-.13.12-.25.4-.42.42l.07-.29c.05-.37-.46-.1-.5-.28.13.26-.18-.01-.21.21l-.2.08c-.31.05-.05.14-.43.15-.22,0-.05-.34.02-.3-.17-.17-.36-.09-.56-.04.07,0,.1.03.03.08,0-.04-.02-.06-.05-.08-.07.02-.14.03-.21.02,0,0,0,0,0-.02.08,0,.15-.02.2-.01-.05-.03-.12-.04-.19-.05,0-.01-.02-.02-.05,0-.06-.01-.12-.03-.16-.08l.08-.22c-.13-.03-.52.19-.52.29-.49-.25-1.36-.22-1.72-.16.08-.04.1-.11.02-.05-.18.01-.42.16-.41.01-.19.06-.13-.18-.38-.26,0-.05-.09.21,0,.2-.36-.45-1.08-.01-1.54-.41.02.07.15-.08.23-.15-.42,0-.81-.04-1.26.1.07-.08.1-.18.21-.2-.27-.08-.57-.17-.79-.02.13.17.06-.11.18-.05.11.27-.31.31-.47.19l.02-.05c-.25-.13-.32-.02-.58-.16-.09-.19.16.01.17-.14.1-.34-.39-.52-.42-.59-.1.03-.2.02-.25.1-.22-.06.07-.22-.03-.28-.29.08-.6.05-.97-.02.14.09.2-.31.45-.21-.1-.16-.32-.25-.48-.38-.08-.06-.17-.13-.26-.2l-.06-.05s0,.03-.01.05l-.04.11c.07-.18-.14-.61-.16-.78.18-.09,0,.14.16.16l.2-.26c.06.32.34-.07.5.09-.15-.25-.07-.87-.04-1.26-.39.3-.25-.5-.62-.45-.11-.45.28-.25.35-.43-.19-.46-.13-.91-.21-1.33,0,0,.05-.01.08.01-.15-.38-.1-1.03-.47-1.39.08.01.15-.03.21.06.09-.43-.48-.03-.3-.54l.19.1c-.21-.29.11-.6-.2-.92.1-.02.14.05.2.1-.11-.31-.1-.67-.38-.91.11-.05.22-.02.32.1.11-.33-.36-.31-.27-.6,0-.08.15-.25.16-.2-.18-.13-.21-.56-.29-.71.12-.05.15-.17.26-.36-.15-1.57-.23-3.17-.7-4.7.35-.29.27.34.51.15-.32.04-.11-.26-.27-.72l.05-.02c-.09-.2.11-.33-.01-.54l-.08.02c-.23-.21.37-.55-.05-.64l.21-.2c-.38-.19.08-.37-.25-.62l.07.03c.13-.39-.47-.75-.19-.92-.08-.32-.19-.68-.48-.72.1-.08.28-.05.38-.01-.25-1.19-.3-2.54-.79-3.58.06-.06.11,0,.18.03-.39-.64.23-1.4-.46-1.84l-.28-.15c.09-.17.28-.17.36-.3-.19-.11-.1-.61-.35-.66.1-.08.14.02.22,0,.03-.31-.4-.63-.34-.93l.13.08c.31-1.57.48-3.58-.22-4.78-.13-.33.33-.18.29-.33-.6-1.25.02-2.88-.85-3.99-.28-.91-1.15-1.12-1.15-1.12.51,2.22.34,4.24.11,6.49.14.74.35,1.7.28,2.4.35,2.88-.04,5.84.51,8.76.09-.17.27-.02.33.13l-.09.05.23.21c.04.22-.23.15-.29-.03.11,1.17.3,2.22.34,3.36.32.05.07.59.4.6-.06.06-.07.01-.14-.02.23.78.25.83-.08,1.59.02,3.11.52,6.06.7,9.11.08.77.18,1.53.29,2.29l.08.57.04.29c0,.07.02.11.03.19-.03,0-.07,0-.06,0h0s0,.01,0,.01l.02.13v.05s.03-.07.03-.07c0,.02,0,.03,0,.05v.03s.07.46.07.46c.12.33.26.67.46.96.22.29.41.57.71.82.32.27.51.43.74.56.45.29.88.48,1.31.68.85.34,1.69.6,2.53.8.63-.34,1.26.05,1.94-.27l-.07.14c.54-.12.62.16,1.23.44.03-.17.25,0,.2-.31.25-.21.34.46.68.37,0,.1.01-.17.07-.08.87-.26-.18.15.85.54,1.49.04,3-.22,4.41-.07-.09.02-.13-.22,0-.22.15.47.47-.13.72.04-.02.1-.13.14-.2.18.65.16,1.17-.14,1.8.01.56-.24,1.27.1,1.63-.2-.07.2.28.11.41.18.34-.62,1.17.03,1.64-.46v.1c1.56-.36,3.35-.67,4.92-1.83.22-.14.47-.3.73-.43.22-.14.65-.41.92-.7.14-.15.28-.31.41-.47.12-.17.2-.37.3-.56.11-.19.13-.4.16-.61l.03-.31v-.02c.08,0-.1-.01-.08,0h0s0,0,0,0h0s0,.01,0,.01v.03s.01.07.01.07v.13s0,0,0,0c-.02-.06-.08-.13-.07-.18-.05-.25-.19-.07-.23-.24.04-.24.17.02.25-.07-.18-.5.15-1.11.2-1.71-.08-.08-.09-.25-.23-.2.44-.63.01-1.59.36-2.25-.51.19-.23-.43-.32-.68.03-.13.16-.13.25-.08-.01-.51,0-.79.19-1.39-.03-.29-.28-.39-.18-.72.35-.18.08-.71.23-1.03-.3.06-.49-.39-.33-.71l.4.14c-.16-1.08.44-2.56.04-3.85l.25-.07c-.16-1.3.25-2.53-.1-3.8.16-.32.29-.84.32-1.17-.16-.47-.13-.62-.42-.96,0-.17.19-.25.28-.31.11-.56.5-1.06.16-1.55h.2c-.16-.46-.35-1.13-.08-1.62-.17-.16-.19-.67-.45-.46-.02-.2.35-.1.16-.32l.28.22c.18-1.12.11-2.09.06-3.2.38-.29.06-1.05.31-1.65-.16-.38.17-.99-.24-1.3h.2c.07-.48.13-1.14.29-1.76.09-.37-.21-.39-.29-.69h.2c-.09-.33-.4-.45-.59-.58.16-.23.02-.28.18-.51.09.25.29.47.55.66.12-.39-.35-.83-.02-1.04Z"/>
      <path class="cls-2" d="M46.12,72.6s.08,0,.13-.02c-.05.02-.1.03-.13.02Z"/>
      <path class="cls-2" d="M64.1,41.16s-.08.09-.1.11c0-.09-.13-.18-.04-.24,0,.09.08.08.15.13Z"/>
      <path class="cls-2" d="M63.84,42.9c-.14-.04-.22-.43-.22-.65l.22.65Z"/>
      <path class="cls-2" d="M63.09,44.48c-.14.13-.2.08-.18-.11.08,0,.11.06.18.11Z"/>
      <path class="cls-2" d="M63.41,44.63c0,.14-.1.2-.19.25.12,0-.05-.32.19-.25Z"/>
      <path class="cls-2" d="M62.66,48.14c0,.09.11.28-.06.35.12-.08-.15-.43.06-.35Z"/>
      <path class="cls-2" d="M62.73,49.8c-.01.05-.04.07,0,.14-.08.09-.17-.02-.18-.11l.19-.03Z"/>
      <polygon class="cls-2" points="53.87 72.4 54.03 72.31 54.02 72.45 53.87 72.4"/>
      <path class="cls-2" d="M41.28,71.32c-.19.03-.06-.17-.08-.2.14.03-.11.15.08.2Z"/>
      <polygon class="cls-2" points="37.94 67.24 37.95 67.29 37.65 67.3 37.94 67.24"/>
    </g>
  </g>
  <g>
    <rect class="cls-1" x="33.71" y="40.06" width="44" height="2.89" transform="translate(2 85.58) rotate(-76.06)"/>
    <g>
      <path class="cls-2" d="M51.42,63.67c.41.03-.13-.3.29-.05-.08.1-.19.17-.29.05Z"/>
      <path class="cls-2" d="M52.45,62.19c-.47-1.26.63-2.49.45-3.79,0-.15.4.14.38-.2-.29-1.28.5-3,1.29-4.28l.09.11c.15-.24-.15-.66-.03-.93.08.02.09.12.21.08-.21-.13.02-.53-.12-.7.12-.09.3-.03.43-.15l-.22-.23c-.51-.6.31-1.07.14-1.76.05.04.09.12.16.08-.13-1.07.24-2.28.37-3.41.08.07.24.15.36.11-.26-.12-.25-.48-.23-.78.32-.06-.13-.57.11-.87l.06.04c-.23-.33.26-.33-.04-.63l.26-.11c-.37-.21.3-.32.15-.58h-.08c-.05-.24.18-.29.16-.49h.05c0-.46.29-.66-.03-.72.29-.09,0,.44.43.3.03-1.49.46-2.94.8-4.36.16-.13.23-.22.35-.23-.03-.16.08-.55-.05-.72,0,.05.18-.05.22-.12.18-.23-.27-.37-.06-.62.05.13.15.2.27.19-.18-.3-.06-.62-.07-.92.04.06.06.13.16.15-.2-.38.2-.56.09-.88l.15.15c.33-.39-.34-.22-.12-.57.03.11.11.09.18.13-.24-.44.01-.99,0-1.37.02.03.07.03.07.03.06-.4.26-.78.22-1.24.12-.14.43.16.46-.27-.36-.07.02-.73-.44-.59.15-.34.42-.86.35-1.12.1.19.48-.06.44.24l.27-.17c.14.07-.11.21.1.19.02-.15-.02-.61.08-.73-.15-.33-.5-.68-.44-1.13.09.24.43-.02.45.14l-.54-.78c.02-.15.29.04.25-.2-.1-.01-.13-.12-.2-.2.05-.04.06-.63.43-.6.16-.03.02.26.18.13.06-.27-.05-.31,0-.58h.05c.1-.16-.02-.56-.27-.41-.04.12.22,0,.08.16-.18-.18-.15-.5-.09-.77.03.11.13.12.22.18-.19-.43-.18-.84-.2-1.27-.17-.05.27.23.17.26.36-.46-.07-1.15.38-1.5.01.08-.25-.02-.2-.01.08-.24.32-.17.27-.36.15.02,0-.22,0-.39-.08-.11.08-.03.06.12-.03-.13-.05-.44,0-.79.02-.25.04-.37.2-.56-.1,0-.35-.08-.33-.12l.25-.06c.17-.11.03-.2.26-.32-.14,0-.11.1-.07.22.04.11.08.25,0,.16.23-.13-.34-.14,0-.23.02-.12-.16-.12-.06-.25,0-.01.02-.03.05-.06-.03.03.46-.21.34-.23-.22-.01-.17.07-.36.1l-.14.06c-.16.19-.07-.05-.19.18.08-.17-.13.08-.02-.27l.11-.27c-.1,0-.2.27-.23.39,0-.03-.01-.09-.01-.14-.01.23-.02.21-.05.18-.02-.03-.08-.08-.03.11-.05-.09-.1-.11-.14-.14-.04.07-.08.11-.2,0,.07.28.18.49.07.55-.03-.05-.03-.1-.11-.18-.14,0-.04.12,0,.24-.05-.06-.28.05-.47.15.09.2.33.22.47.27-.48.12.1.76-.35.95-.04-.1-.12-.41-.28-.23-.48.12.2.53-.09.84h.38c-.26.11.07.58-.28.46.1.15-.22.4.13.44-.44.52-.18,1.49-.89,1.7.04.1-.08.3.11.3.23-.09-.09-.23.06-.25,0,.08.08.12.13.14-.12.17-.19.3-.43.06-.32.36.48.57.22,1.06-.14-.06-.2-.03-.22.13l.17.35c-.14.32-.37.11-.62.06,0,.19-.07.41.09.54l-.36.14c.26-.11.11.18.15.28l-.04-.1c-.11,0-.1.23-.09.35.16.01.27-.19.34-.29.08.12.02.26.12.41-.23-.1-.24.25-.3.39-.09.15.17.24.15.28-.12-.03-.09.26-.23.09-.03-.07.15-.1.07-.22-.12.09-.33.02-.23.28.08.2.48.07.25.36-.04-.1-.13-.14-.2-.22l-.2.27.21.07c-.06.03-.08,0-.11,0,.21.15-.04.48.19.61-.02.16-.23.28-.29.42v-.03c-.18.15-.16.4-.05.59l-.05-.02c-.04.09-.06.33.03.48-.22.2-.84-.12-.63.22-.05.25.3.49.46.42-.26.41-.03,1-.47,1.34.07.09.14.06.15.2-.25.63-.09,1.45-.64,1.86-.04-.21-.21-.07-.34-.09.15.2-.25.14.07.28.2.03.29.07.41-.09,0,.42-.14,1.01-.38,1.18.12-.09.16.01.19.11-.3-.11-.42.17-.37.42l.18.08-.23.09c.04.1.37.19.14.36-.08,0-.15-.01-.22.01.1.26.28.65.06.85l-.33.13c0,.11.13.33.25.17-.27.38-.36.64-.63.71.41.86.17,1.92-.08,2.74l-.14-.06c-.19.19.22.18.08.31-.12-.11-.34.1-.46-.12-.23.28.14.48.16.7.18.08-.08-.2.15-.1.06.05-.26.41.01.53-.13.05-.32-.06-.43-.13l.09.23c-.39.16-.45-.69-.92-.54v.19c-.34.1-.22-.56-.43-.13.09.23.46.5.63.36-.02.43.63.36.49.79-.2.08.05-.36-.21-.34-.28.15.02.45-.1.61.16-.18.4.07.42.21-.19.19-.23-.21-.34.1.15.09.2.42.38.19.34.21-.18.31.06.55-.29.04-.52-.48-.74-.16.26,0,.23.52.65.42-.11.12-.31.08-.44-.05-.2.16.34.59-.17.53l.24.13c-.1.04-.18.11-.35.18-.05.17.21.64-.17.53.03.07-.09.45.22.37.22-.2-.13-.33.27-.38-.34.1-.05.36.01.53h-.16c.04.08-.04.27.11.36-.07-.09-.18-.08-.23-.02l.21.14c.03.37-.42-.02-.44.33l-.11-.3c.02.06-.22.13-.19.3.19.11.41.29.56.39.04.21-.26.03-.09.26l-.19-.3c-.06-.05-.38.08-.44.33.03.18.27.5.45.28-.03.13-.2.27-.32.13,0,.3.23.02.3.3-.16.07-.44.33-.69.47l-.28-.34-.05.17c-.22-.29-.24.06-.5-.14-.08.1,0,.27.04.4.55-.22.55.54,1,.55,0,.5-1.12.03-.57.69.13-.05.4.26.35-.07-.12.28.38.3.12.6-.11-.3-.5.16-.67-.27.14.06.16-.18.13-.24-.19.08-.42-.13-.5.17,0,.19-.06.44.17.46.25.05.04-.28.26-.11,0,.38-.39.35,0,.61.02-.24.29-.23.46-.19l.04.29-.15-.09c-.22.4.26.2.12.6l-.37.11c-.25-.17.27-.57-.2-.61-.09.26.12.41-.06.63-.02-.07-.02-.15-.04-.21-.04.09-.66.04-.41.51.09.23.15.09.32.14-.06.44.09.61.04.9-.32-.14-.15.48-.41.09.23-.09.36-.72.09-.95-.43.06.14-.32-.23-.52-.09.34-.48.23-.74.22-.04.09.04.21.07.28.23.1.25-.03.5.03-.16.37-.12.77.06,1.04-.15.1-.38,0-.36-.16-.04.48-.2.96-.38,1.38.46-.19-.03.51.34.4.14-.21.47-.34.61-.17-.06.14-.17-.05-.27,0,.17.24-.41.2-.12.47-.02-.45-.45-.2-.74-.35.1.34-.21-.07-.29.23.09.34.14.75.12,1.1-.2.17-.26.44-.29.71-.04.3.02.39,0,.52-.2.13-.54.06-.65.25-.04.21.44-.2.2.11h-.07c.07.03-.42.67.16.47-.14.05-.28.09-.42.12-.05.08.03.09.07.11-.15.07-.3.22-.37.16-.16.16-.19.28-.19.36.19,0,.44-.03.58,0,.03-.07.06-.14.1-.21.55-.05.57.19,1.01.22l-.17.19.32-.06c-.2.17-.06.35.17.22-.3.11-.65.21-1.03.3-.09-.16.41-.17.46-.39.05-.18-.33-.22-.6-.06.12.06.18.02.35-.02-.21.27-.43.2-.74.33.1.01.14.12.24.04-.3.08-.51.05-.82-.02.32-.04.09-.17.26-.22-.26.17-.57.19-.84.11.02-.06.04-.13.07-.2.43-.45-.05-.62.17-1.16.25.13.45.26.52.43.21-.29.06-.26.27-.53-.2-.05-.52-.07-.56-.44l.22-.03c-.03-.31-.33-.35-.16-.8.24-.56.39-1.15.52-1.59l.2.03c-.36-.35.05-.86-.06-1.23.33-.52.12-1.27.53-1.47.1-1.03.16-1.94.49-2.95l.24.24c-.16-.24.19-.08.2-.27-.28.15-.23-.32-.38-.5.34-.4.24-1.05.14-1.51l.2.03c-.27-.5.18-.91.37-1.41.1-.04.3-.09.32-.24-.25-.36-.19-.5-.29-.95.07-.3.27-.76.47-1.03-.17-1.23.4-2.3.42-3.53l.25-.03c-.21-1.25.58-2.52.56-3.55l.37.19c.2-.27.07-.71-.23-.71.2-.27,0-.8.37-.91.15-.29-.09-.42-.08-.69.3-.58.33-.82.4-1.42l-.06.14c.07.09.24.13.3,0-.06-.24.3-.77-.22-.67.43-.55.14-1.51.66-2.02-.14.02-.13-.14-.2-.23.13-.55.54-1.06.42-1.55.09-.07.18.19.25-.03-.02-.14-.17-.04-.2-.22-.02-.94.69-1.73.83-2.55.11-1.49.6-2.95.9-4.33l.09.04c-.25-.55.64-.98.18-1.49.12-.09.15-.4.31-.28-.17-.43.49-.96.3-1.57-.02.05,0,.08.02.15.09-.12.14-.24.18-.37.02-.06.03-.13.05-.19l.07-.33c.09-.44.18-.91.38-1.31.01.13,0,.32.08.4.24-.19-.14-1.17.3-.96.04-.2-.15-.37-.17-.22.11-.33.22-.66.31-1.02,1.78.47,3.65.76,5.82,1.19l-.12.64c-.37.89-.58.95-.71.98s-.16-.03-.11.49c-.12.11.18.04.07.07.02.47-.71.7-.53.98.32-.09.11.22.28.26-.11.25-.18.3-.25.4-.07.09-.13.16-.18.22-.1.14-.14.28-.09.52l-.14-.07c.29.62-.08,1.17.29,1.73-.62,2.89-1.04,5.71-1.68,8.52-.78,2.74-1.23,5.5-2.19,8.25-.55.56-.55.61-.58,1.38-.06-.04-.06-.09-.13-.06.31.11-.1.52.19.66-.32,1.02-.47,2-.73,3.07,0-.18-.23-.33-.26-.12l.15.26h-.1c.01.16.13.35.27.23-.39,2.75-1.68,5.23-2.26,7.88-.29.59-.39,1.51-.49,2.2-.92,1.9-1.72,3.63-1.92,5.75,0,0-.76-.47-.74-1.36Z"/>
      <path class="cls-2" d="M50.93,63.58c-.02-.17-.22-.32.09-.46-.06.14,0,.34-.09.46Z"/>
      <path class="cls-2" d="M51.09,58.73s.09-.07.12-.09c0,.08.11.19.01.23,0-.08-.07-.09-.13-.14Z"/>
      <path class="cls-2" d="M51.58,57.16c.14.06.16.43.13.63l-.13-.63Z"/>
      <path class="cls-2" d="M52.53,55.82c.15-.1.21-.05.16.13-.08,0-.1-.07-.16-.13Z"/>
      <path class="cls-2" d="M52.24,55.63c.03-.12.13-.16.22-.21-.12-.03,0,.31-.22.21Z"/>
      <path class="cls-2" d="M53.45,52.5c0-.08-.07-.28.11-.31-.13.05.09.42-.11.31Z"/>
      <path class="cls-2" d="M53.61,50.95s.05-.06.03-.13c.09-.07.17.05.16.13h-.19Z"/>
      <polygon class="cls-2" points="59.82 23.51 59.84 23.68 59.71 23.63 59.82 23.51"/>
      <path class="cls-2" d="M59.93,25.97c.05.18-.16.08-.19.1.02-.15.16.1.19-.1Z"/>
      <polygon class="cls-2" points="59.04 32.59 59.05 32.54 59.33 32.63 59.04 32.59"/>
    </g>
  </g>
  <g>
    <path class="cls-2" d="M57.43,30.12c.25-.03-.09-.27.17-.09-.05.11-.11.19-.17.09Z"/>
    <path class="cls-2" d="M61.52,30.89c.98-.48,1.66.59,2.6.58.1.02-.23.35.01.37.48-.05,1.01.23,1.33.71.33.47.3,1.12-.09,1.47l-.12-.06c-.09.12.23.38.08.53-.08-.03-.09-.09-.21-.1.23.14-.06.28.05.43-.13,0-.28-.11-.41-.11.05.08.11.16.16.24.14.3-.03.43-.22.51-.19.09-.43.12-.53.38-.01-.06,0-.13-.06-.16-.39.7-1.27,1-1.97,1.39,0-.1-.03-.27-.11-.36.06.28-.15.42-.34.54-.18-.25-.27.37-.56.28v-.07c-.09.34-.31-.1-.36.3l-.17-.19c.02.42-.31-.13-.41.1l.03.08c-.12.13-.24-.05-.35.04l-.02-.04c-.28.17-.51,0-.43.3-.16-.23.27-.18.02-.51-.93.55-2,.65-3.01.8-.13-.11-.21-.14-.25-.26-.09.08-.38.1-.45.27.03,0-.08-.16-.14-.17-.2-.1-.17.37-.39.25.07-.09.09-.2.05-.32-.15.27-.39.26-.59.35.03-.06.07-.09.06-.19-.2.3-.42-.03-.6.17l.06-.19c-.33-.2-.06.39-.35.28.06-.06.03-.13.04-.21-.23.36-.66.28-.91.4.01-.03,0-.08,0-.08-.28.05-.58-.04-.88.12-.12-.08.02-.45-.27-.37.02.37-.5.16-.31.58-.26-.06-.66-.19-.83-.06.11-.14-.13-.45.08-.49l-.16-.22c.02-.15.16.05.11-.14-.1.02-.41.17-.5.11-.19.23-.38.65-.7.69.15-.14-.08-.41.02-.47l-.46.7c-.11.02-.02-.29-.17-.2,0,.1-.06.16-.11.24-.04-.04-.45.08-.48-.29-.04-.15.17-.07.06-.2-.19,0-.21.12-.4.12v-.05c-.13-.06-.39.14-.26.35.09.02-.02-.22.1-.11-.1.21-.33.26-.53.25.07-.06.07-.15.1-.26-.28.28-.57.35-.87.44-.02.17.13-.31.17-.21-.36-.27-.81.28-1.1-.1.05-.03,0,.25,0,.2-.18-.04-.15-.29-.28-.21,0-.15-.15.03-.28.06-.07.1-.02-.07.08-.08-.18.11-.9.26-1.26,0,0,.1-.29.32-.38.3l.07-.22c-.06-.15-.31-.02-.29-.22-.23.25.78-.13.49.05-.04-.2-.41.31-.31,0-.18-.02-.4.21-.54-.03.05.04.2-.29.05-.3-.26,0-.09.1-.31.14l-.15.07c-.05.22-.23-.07-.17.19,0-.19-.4.04-.31-.32l.09-.28c-.11,0-.24.27-.35.38,0-.03-.03-.09-.01-.14-.1.43-.26-.08-.46.23-.2-.2-.6-.15-.65-.44-.21.09-.41.21-.59.07.05-.03.11-.03.14-.12-.1-.16-.16-.05-.29-.01.04-.06-.19-.32-.29-.51-.21.08-.21.33-.27.46-.04-.47-.59.14-.67-.31.08-.04.32-.12.21-.28-.03-.47-.42.2-.61-.08l-.05.37c-.04-.25-.46.07-.31-.27-.13.1-.26-.23-.36.12-.31-.44-1.13-.26-1.11-.98-.09.02-.21-.1-.26.07,0,.23.2-.06.18.08-.06-.02-.12.06-.14.1-.1-.14-.18-.21.08-.41-.18-.33-.59.37-.9.01.1-.11.1-.18-.02-.23-.11.03-.23.06-.35.07-.21-.24.07-.37.21-.58-.13-.05-.31-.22-.5-.14.01-.12.05-.24.08-.35-.07.25-.21,0-.31-.04l.1.03c.06-.09-.11-.2-.2-.26-.12.1-.04.3,0,.42-.15,0-.22-.14-.42-.18.24-.1-.06-.33-.08-.48-.02-.17-.28-.1-.29-.15.12-.05-.09-.27.13-.2.06.04-.06.16.08.21.04-.14.26-.19.02-.34-.17-.13-.47.16-.4-.21.08.08.16.08.28.12,0-.1.04-.21.06-.31l-.22.02s.07-.02.1-.04c-.24-.07-.16-.46-.37-.54,0-.17.21-.33.26-.48v.03c.17-.16.21-.38.12-.59l.04.02c.05-.09.11-.33.09-.49.31-.14.78.35.71,0,.13-.18-.06-.55-.25-.56.21-.13.44-.36.59-.53.15-.17.32-.27.56-.22,0-.1-.06-.13,0-.24.52-.24.91-.78,1.47-.57-.1.14.08.21.13.32.03-.23.21.14.12-.19-.09-.18-.12-.28-.28-.3.24-.21.69-.4.91-.28-.11-.06-.07-.14-.03-.22.09.31.31.29.44.13l-.04-.19.17.16c.04-.08-.06-.41.16-.29.03.07.06.14.11.18.12-.21.28-.54.5-.43l.22.23c.07-.05.15-.25,0-.29.35.08.56.05.71.26.38-.7,1.17-.92,1.79-.97v.15c.2.1.05-.27.18-.19-.03.15.18.28.08.47.26.11.26-.31.41-.4,0-.19-.1.14-.11-.1.02-.08.35.09.35-.2.08.1.06.32.05.44l.12-.16c.23.31-.31.66-.06,1.04l.12-.06c.17.28-.29.39.05.45.12-.16.18-.6.03-.71.29-.12.04-.71.36-.73.11.16-.26.08-.16.31.19.21.29-.17.44-.11-.17-.09-.08-.4.01-.46.18.11-.07.29.17.28.02-.17.22-.33.02-.42.04-.39.26.08.35-.23.11.26-.17.64.11.75-.07-.25.28-.38.1-.75.11.06.14.26.09.43.16.14.3-.51.4,0l.02-.27c.05.08.13.14.21.27.13-.01.38-.4.4,0,.04-.04.33-.05.19-.31-.2-.15-.19.22-.33-.15.16.29.26-.06.36-.17l.03.15c.06-.06.21-.04.23-.21-.04.09,0,.19.05.23l.05-.24c.25-.14.09.41.33.32l-.17.2s.14.17.25.09c.03-.22.1-.48.13-.65.13-.1.08.24.2,0l-.16.27c-.02.07.14.34.33.32.11-.08.28-.4.09-.5.09,0,.23.12.17.28.21-.08-.04-.23.14-.37.08.14.33.33.48.53l-.17.37h.13c-.15.29.09.21.01.52.09.04.18-.06.26-.15-.27-.47.25-.67.17-1.11.35-.14.25,1.06.59.36-.06-.11.1-.45-.12-.32.22.05.14-.45.4-.27-.19.18.21.44-.06.71.02-.15-.15-.11-.19-.07.09.17,0,.44.21.44.13-.04.31-.06.28-.29,0-.25-.2.03-.12-.23.27-.09.32.29.42-.16-.17.04-.21-.22-.21-.4l.2-.11-.04.17c.32.12.09-.31.4-.27l.15.33c-.07.29-.45-.12-.39.34.2.02.26-.22.45-.1-.04.04-.1.05-.14.09.07.01.14.63.42.27.15-.14.04-.17.04-.34.32-.05.42-.23.62-.25-.05.34.36.04.13.38-.1-.2-.56-.19-.68.14.11.4-.25-.06-.32.35.25.01.24.41.28.67.07.02.14-.09.18-.13.03-.24-.06-.24-.06-.49.28.07.55-.06.72-.3.09.12.06.37-.06.39.34-.07.7-.02,1.01.07-.19-.41.36-.08.23-.42-.17-.1-.31-.39-.2-.56.11.03-.01.17.03.26.15-.21.2.36.35.02-.32.12-.08.48-.15.79.23-.17-.02.22.2.23.23-.16.51-.28.75-.34.29.31.78.06,1.05.07.13.17,0,.51.15.59.18,0-.1-.39.15-.21l-.03.07c.09-.08.47.29.6-.21l-.12.37s.1-.04.15-.08c-.01.12.03.24-.06.32.14.28.35,0,.53,0l-.09-.24c.33-.14.51.11.81.07l-.04.22.19-.11c-.07.21.07.37.19.2l-.53.47c-.11-.15.17-.25.12-.47-.04-.2-.32-.18-.39.03.1.04.11-.01.2-.08,0,.31-.16.28-.26.47.06,0,.12.1.14,0-.13.14-.23.15-.41.13.13-.1-.04-.2.01-.28-.05.27-.22.33-.43.23-.12-.33-.43.16-.67.05.13-.27.28-.47.45-.57-.15-.15-.18-.01-.33-.16-.1.2-.18.51-.4.61v-.2c-.19.09-.22.39-.45.31-.4-.13-.83-.16-1.14-.2v-.2c-.2.42-.59.13-.84.31-.39-.21-.87.17-1.07-.18-.71.14-1.32.31-2.05.24l.12-.3c-.13.22-.09-.17-.22-.12.15.23-.17.31-.26.49-.33-.22-.74.05-1.02.27l-.02-.2c-.27.39-.63.08-1,.05-.05-.08-.13-.27-.23-.23-.17.34-.27.33-.54.55-.21.01-.55-.03-.78-.13-.73.54-1.56.36-2.31.76l-.1-.22c-.68.63-1.7.38-2.28.8l-.04-.41c-.23-.07-.43.23-.3.49-.23-.06-.44.32-.65.04-.22,0-.18.26-.33.36-.44-.02-.57.07-.89.28h.1c0-.11-.05-.27-.15-.26-.09.16-.53.09-.2.49-.48-.09-.69.58-1.14.44.1.1.04.16.06.25-.13.07-.26.13-.3.09-.06-.01-.11.04-.03.12-.07-.02-.18-.14-.22-.11.03.05.15.09.21.15.08.11,0,.11-.1.18-.11.06-.21.18-.13.25.09.05.18.07.24.11.07.04.07,0,.24.15.17.11.33.21.5.31.19.09.38.18.57.27l-.05.08c.4-.22.49.61.91.18.03.11.24.13.13.29.31-.18.56.46,1.01.23-.03-.02-.05,0-.1.03.29.3.67.11.99.39-.05.03-.13.05-.16.14.1.22.44-.32.41.15.09.01.11-.22.06-.22.78.37,1.74.24,2.63.26.59.37-.07.79.48.52.03.1.05-.17.05-.08.21-.1.24.56.41.33-.02-.29.11-.15.13-.32.37.23.42.5.75.31l-.04.15c.4-.38.81-.13,1.15-.6,2,.06,3.92-.2,5.84-.34,1.92,0,3.74-.4,5.66-.48.51.31.55.3,1,.03,0,.07-.03.09.01.14-.05-.32.33-.11.31-.42.69-.1,1.29-.35,1.93-.57-.09.07-.06.34.06.28l.06-.24.05.08c.07-.07.11-.26-.02-.33.73-.42,1.5-.66,2.06-.92l.09-.05.02.02s.03.02.05.02c.04,0,.08,0,.12-.02.08-.03.12-.13.06-.19.06-.05.03-.1-.02-.12-.07-.04-.08.01-.21-.04-.53-.91-1.66-1.72-2.98-1.83l1.72-.96c0,.06-.01.13-.02.19,0,0-.14-.11-.3-.29l-1.3.73c.17-.21.46-.46.81-.46Z"/>
    <path class="cls-2" d="M57.14,30.11c-.03-.17-.18-.28-.01-.48,0,.15.05.34.01.48Z"/>
    <path class="cls-2" d="M52.81,27.99s-.06-.07-.08-.1c.06,0,.12-.14.16-.06-.06,0-.05.09-.08.15Z"/>
    <path class="cls-2" d="M51.64,27.85c.02-.15.28-.25.43-.27l-.43.27Z"/>
    <path class="cls-2" d="M50.55,27.23c-.1-.12-.07-.19.06-.19,0,.08-.03.12-.06.19Z"/>
    <path class="cls-2" d="M50.47,27.56c-.09,0-.14-.08-.18-.17,0,.12.21-.08.18.17Z"/>
    <path class="cls-2" d="M48.06,27.18c-.06.01-.18.14-.24-.02.07.11.27-.2.24.02Z"/>
    <path class="cls-2" d="M46.95,27.45s-.05-.03-.09.01c-.07-.06,0-.17.05-.19l.04.18Z"/>
    <polygon class="cls-2" points="38.38 38.03 38.24 38.06 38.31 37.92 38.38 38.03"/>
    <path class="cls-2" d="M47.14,39.49c.12-.09.08.14.09.16-.11,0,.05-.18-.09-.16Z"/>
    <polygon class="cls-2" points="51.86 38.82 51.83 38.83 51.83 38.53 51.86 38.82"/>
  </g>
  <g>
    <path class="cls-2" d="M53.76,42.31c.22-.06-.1-.26.15-.11-.04.12-.09.2-.15.11Z"/>
    <path class="cls-2" d="M57.45,42.59c.84-.62,1.6.32,2.46.06.1,0-.13.39.09.35.88-.38,1.97.38,2.52,1.2l-.1.08c.1.14.47-.09.59.05-.04.07-.11.07-.13.18.17-.18.29.06.46-.03-.01.11-.15.24-.17.35.09-.05.18-.09.27-.13.34-.12.49,0,.56.17.08.17.08.35.35.47-.07,0-.15-.02-.2.03.35.21.49.6.43.98-.04.18-.12.37-.2.54-.11.17-.22.33-.32.49-.05-.08-.18-.19-.3-.23.22.19.08.39-.05.57-.24-.16-.15.43-.45.43l-.02-.07c0,.35-.31,0-.26.37l-.21-.15c.12.4-.32-.08-.35.17l.04.07c-.08.15-.23,0-.31.11l-.03-.04c-.23.21-.47.06-.35.35-.19-.2.22-.21-.07-.5-.75.67-1.73.88-2.64,1.1-.13-.1-.21-.12-.26-.24-.08.08-.33.13-.38.31.03-.01-.09-.15-.14-.15-.19-.08-.11.38-.33.27.06-.1.06-.2.02-.32-.11.27-.33.27-.5.39.02-.06.06-.1.03-.2-.16.31-.38.01-.53.21l.04-.19c-.32-.18-.02.39-.3.3.05-.07.02-.14.02-.21-.18.37-.58.31-.8.46.01-.03,0-.08,0-.08-.25.08-.53,0-.8.18-.11-.07-.02-.45-.28-.36.05.37-.44.2-.24.6-.24-.04-.62-.15-.77-.01.09-.15-.15-.44.04-.49l-.16-.21c0-.15.15.04.09-.15-.09.02-.36.19-.45.14-.16.24-.3.68-.59.74.13-.15-.1-.4-.01-.47l-.37.73c-.1.02-.03-.29-.17-.19.01.1-.05.16-.09.24-.04-.04-.4.11-.46-.25-.05-.14.16-.08.04-.21-.18,0-.18.13-.36.14v-.05c-.12-.05-.35.16-.22.36.08.01-.04-.22.09-.11-.08.21-.29.28-.47.28.06-.06.05-.16.08-.26-.24.29-.5.39-.77.51,0,.17.1-.31.14-.22-.35-.25-.72.33-1.01-.03.05-.03.02.25.02.2-.17-.02-.15-.28-.27-.18,0-.15-.14.04-.25.09-.06.1-.03-.07.07-.09-.16.12-.8.32-1.15.09,0,.1-.24.35-.33.33l.05-.23c-.07-.14-.28,0-.28-.2-.2.27.7-.19.45,0-.05-.19-.36.35-.29.04-.17,0-.35.24-.49.01.04.04.16-.31.02-.3-.24.02-.08.1-.27.16l-.13.08c-.03.22-.21-.05-.14.21-.01-.19-.36.09-.3-.28l.06-.29c-.1.01-.2.29-.29.41-.01-.03-.03-.09-.02-.14-.06.44-.24-.06-.4.27-.2-.18-.55-.07-.62-.36-.18.12-.36.25-.53.13.04-.04.1-.04.12-.13-.1-.15-.15-.03-.26.02.03-.06-.2-.29-.31-.47-.18.11-.16.35-.2.5-.08-.45-.51.21-.64-.22.07-.05.28-.17.16-.3-.07-.46-.36.26-.56.01v.37c-.07-.24-.41.14-.31-.22-.11.12-.26-.18-.31.18-.33-.39-1.02-.03-1.11-.73-.07.04-.2-.06-.21.13.04.22.17-.1.17.04-.05,0-.09.09-.11.13-.1-.11-.19-.16,0-.42-.21-.29-.44.51-.76.28.06-.14.05-.19-.06-.21l-.27.18c-.21-.13-.03-.36.05-.6-.13,0-.27-.06-.39.1l-.04-.34c.03.25-.15.11-.22.15l.08-.04c.01-.1-.14-.1-.22-.1-.04.15.08.27.14.34-.1.08-.19.02-.31.11.11-.22-.13-.24-.22-.3-.09-.09-.21.15-.24.13.05-.12-.17-.09-.02-.22.05-.02.04.15.14.07-.04-.12.06-.32-.15-.23-.16.06-.16.46-.32.22.08-.03.13-.11.21-.17l-.14-.21-.1.2c0-.06.02-.07.02-.11-.16.18-.33-.08-.5.13-.11-.03-.14-.24-.23-.32h.03c-.05-.19-.25-.21-.43-.15l.03-.04c-.06-.07-.27-.14-.46-.12-.08-.3.49-.68.12-.64-.16-.13-.58.03-.61.18-.13-.19-.33-.34-.49-.52-.16-.18-.32-.37-.21-.62-.11-.03-.15.02-.25-.09-.11-.31-.2-.65-.28-.99.03-.33.07-.68.39-.86.02.19.21.06.33.09-.14-.18.26-.1-.05-.24-.2-.04-.28-.09-.43.06-.01-.41.38-.95.68-1.01-.15.04-.15-.06-.14-.17.24.19.49.04.57-.19l-.12-.15.26.04c.02-.1-.21-.36.09-.38.06.05.12.1.18.12.04-.14.1-.29.18-.43.07-.12.15-.2.28-.19l.28.16c.05-.07.09-.28-.07-.29.37,0,.56-.06.75.12.22-.78.97-1.09,1.55-1.23l.03.14c.2.08,0-.27.14-.21,0,.15.21.25.14.45.26.07.2-.33.33-.43-.03-.19-.08.15-.12-.09,0-.07.35.06.3-.23.09.09.1.31.1.43l.1-.17c.25.28-.2.69.08,1.04l.11-.08c.19.26-.22.42.1.44.09-.17.09-.61-.06-.7.25-.15-.05-.7.25-.76.12.14-.23.1-.11.32.2.19.25-.2.39-.15-.16-.08-.12-.39-.04-.46.18.1-.03.29.19.27,0-.17.17-.34-.03-.41,0-.39.25.05.31-.26.13.25-.09.66.18.73-.09-.24.22-.41.01-.76.11.05.16.25.13.42.16.12.23-.53.37-.03v-.27c.05.08.13.13.22.26.12-.02.31-.42.37-.03.03-.05.3-.08.15-.33-.2-.13-.16.23-.32-.12.17.28.23-.08.32-.2l.04.15c.05-.07.19-.06.2-.23-.03.09,0,.19.06.22l.02-.24c.22-.15.12.4.34.3l-.14.2s.14.16.24.07c0-.22.05-.48.06-.65.12-.11.09.23.19,0l-.13.28c-.01.07.16.33.33.3.1-.09.23-.42.04-.51.09-.02.22.1.18.26.19-.1-.06-.22.1-.38.09.13.33.31.48.5l-.13.37h.12c-.11.29.1.2.05.51.08.04.16-.07.23-.16-.28-.46.18-.69.07-1.12.31-.15.31,1.05.57.32-.07-.11.06-.46-.13-.31.2.03.09-.46.35-.29-.16.19.23.43,0,.71,0-.15-.15-.1-.18-.05.1.16.03.44.23.43.12-.05.28-.07.24-.3-.03-.25-.19.04-.13-.22.24-.11.31.27.38-.18-.15.05-.21-.21-.22-.38l.17-.12-.02.17c.3.1.06-.31.35-.29l.16.32c-.05.29-.42-.09-.34.37.18,0,.23-.24.41-.13-.04.04-.09.06-.12.1.07.01.17.62.41.24.13-.15.03-.17.02-.34.29-.07.37-.25.56-.28-.02.34.34.02.14.37-.1-.19-.53-.16-.61.17.13.4-.23-.05-.27.37.23,0,.25.39.3.65.06.02.12-.1.16-.14.01-.25-.07-.24-.09-.49.26.05.5-.09.64-.34.09.12.07.36-.03.39.3-.09.64-.07.93,0-.2-.4.32-.1.19-.43-.16-.09-.3-.37-.22-.55.1.02,0,.17.04.26.12-.22.2.35.32,0-.28.13-.05.49-.09.8.2-.18,0,.22.19.22.2-.18.44-.32.67-.39.28.3.71.03.97.03.13.16.03.51.17.58.17,0-.11-.39.13-.21l-.03.07c.08-.08.44.26.53-.25l-.09.38s.09-.05.13-.09c0,.12.05.24-.03.32.14.27.32-.03.48-.03l-.1-.23c.29-.17.47.07.75,0l-.02.22.17-.13c-.05.21.09.36.18.18l-.45.52c-.11-.14.14-.26.08-.48-.05-.19-.31-.14-.36.07.09.03.1-.02.18-.1.01.31-.13.29-.21.49.05-.01.12.09.13-.01-.11.15-.21.17-.37.17.12-.12-.05-.19,0-.28-.03.27-.18.35-.38.26-.13-.32-.38.19-.61.09.1-.27.23-.49.38-.59-.14-.14-.16,0-.31-.14-.08.2-.14.51-.33.63v-.2c-.18.1-.19.4-.41.33-.37-.12-.76-.12-1.05-.14v-.2c-.17.44-.55.17-.76.36-.37-.19-.78.23-.99-.11-.64.18-1.19.39-1.86.36l.09-.3c-.1.23-.09-.16-.21-.11.16.22-.13.32-.2.51-.32-.2-.67.09-.9.33l-.04-.2c-.21.41-.56.13-.9.11-.05-.08-.14-.26-.23-.22-.13.35-.22.34-.44.59-.19.03-.5,0-.72-.08-.6.59-1.36.47-1.98.94l-.12-.21c-.5.69-1.45.53-1.81,1.03l-.13-.39c-.22-.03-.31.27-.13.5-.2-.03-.24.38-.45.11-.13-.01.04.2.05.27-.21-.03-.24.06-.22.17.01,0,.03-.01.04-.01-.08-.05-.26-.13-.31-.1.09.09-.22.16.35.23-.17.02-.13.11-.06.16.06.06.11.08-.06.2.14-.06.17-.04.27-.07.03.04-.11.29.12.17-.03.06-.18.15-.15.19.05-.02.12-.13.18-.17.11-.1.29.13.46.3.18.18.33.4.57.45.84.09,1.68.45,2.5.62l-.03.09c.36-.3.57.52.91.02.05.11.25.09.16.27.27-.22.59.36.97.09-.03-.01-.05,0-.09.04.3.27.64.01.96.26-.04.04-.11.06-.13.15.11.21.38-.36.39.12.08,0,.09-.23.04-.22.76.28,1.63.06,2.45,0,.57.32-.01.8.47.47.03.09.04-.18.04-.08.19-.12.25.54.39.3-.04-.29.09-.16.1-.33.35.2.42.47.71.26l-.03.15c.35-.42.73-.19,1.01-.68,1.83-.08,3.56-.45,5.29-.71,1.73-.11,3.34-.63,4.97-.89.49.26.53.24.85-.07,0,.07-.01.09.04.14-.1-.31.26-.14.17-.44.51-.16,1.05-.59.93-.53.02.03.21.22.22.19-.05-.05-.1-.1-.15-.15l.08.05s-.17-.14-.26-.19c-.15-.08-.04.04.07-.07.02-.02.04-.05.04-.09,0-.04.05-.04-.08-.14-.23-.2-.55-.38-.89-.51-.27-.26-.81-.32-1.21-.38-1.01-.77-2.1-1.36-3.42-1.26,0,0,.3-.81.88-.91Z"/>
    <path class="cls-2" d="M53.5,42.33c-.03-.17-.18-.26-.04-.47,0,.15.07.33.04.47Z"/>
    <path class="cls-2" d="M49.4,40.51s-.06-.07-.08-.09c.05-.01.1-.15.14-.07-.05.01-.04.09-.07.16Z"/>
    <path class="cls-2" d="M48.32,40.44c.01-.15.24-.27.38-.3l-.38.3Z"/>
    <path class="cls-2" d="M47.28,39.89c-.1-.12-.08-.19.04-.19.01.08-.02.12-.04.19Z"/>
    <path class="cls-2" d="M47.22,40.22c-.08,0-.13-.07-.18-.15.01.12.19-.09.18.15Z"/>
    <path class="cls-2" d="M44.98,40c-.05.02-.15.15-.22,0,.07.11.24-.21.22,0Z"/>
    <path class="cls-2" d="M43.98,40.34s-.05-.03-.08.02c-.07-.06-.02-.17.03-.19l.06.18Z"/>
    <polygon class="cls-2" points="42.58 50.71 42.46 50.76 42.5 50.62 42.58 50.71"/>
    <path class="cls-2" d="M50.65,51.34c.11-.09.08.14.1.16-.1.02.03-.18-.1-.16Z"/>
    <polygon class="cls-2" points="54.93 50.37 54.9 50.38 54.88 50.08 54.93 50.37"/>
  </g>
  <g>
    <path class="cls-1" d="M37.07,27.08c.51,1.53,6.13,17.19,6.13,17.19"/>
    <g>
      <path class="cls-2" d="M37.6,26.95c-.09-.04-.23.11-.12,0,.11-.03.2-.04.12,0Z"/>
      <path class="cls-2" d="M43.47,43.94c-.79.05-.16-.47-.7-.53-.04-.02.4-.13.28-.16-.63-.02-.42-.48-.09-.89l.12-.02c.06-.08-.33,0-.29-.08.07-.03.11-.02.21-.07-.23.07-.14-.06-.31-.02.08-.05.26-.11.34-.17l-.26.06c-.63.13-.03-.22-.38-.22.06-.02.11-.02.16-.05-.43-.05-.45-.31-.65-.47.09-.02.26-.07.36-.12-.27.08-.36.04-.43,0,.27-.12-.28,0-.16-.12l.06-.02c-.3.05.14-.13-.22-.05l.21-.11c-.39.12.18-.14-.03-.11l-.08.03c-.11,0,.08-.09,0-.1l.04-.02c-.13-.05.07-.17-.23-.06.23-.11.14.04.47-.13-.41-.16-.44-.45-.55-.72.11-.07.14-.11.25-.15-.07,0-.09-.08-.25-.05,0,0,.15-.07.16-.09.1-.09-.35.06-.24-.04.09,0,.19-.03.3-.08-.25.04-.24-.04-.33-.06.05,0,.09,0,.18-.04-.29.03.02-.13-.17-.12l.18-.04c.18-.16-.37.1-.27-.01.06,0,.13-.03.2-.05-.34.04-.28-.1-.41-.13.03,0,.07-.02.07-.02-.07-.06,0-.17-.16-.2.07-.06.43-.14.34-.19-.35.13-.19-.08-.57.1.03-.09.13-.24,0-.24.14-.02.42-.18.47-.14l.2-.12c.15-.04-.03.06.14-.02-.02-.02-.19-.05-.14-.1-.23.02-.65.12-.72.05.15,0,.38-.16.45-.15l-.71.12s.27-.1.17-.11c-.09.03-.16.04-.23.05.04-.02-.13-.08.21-.22.13-.06.09.02.2-.05-.02-.05-.14-.01-.16-.06l.05-.02c.04-.05-.18-.05-.36.06,0,.03.2-.08.12-.01-.21.05-.29,0-.31-.04.06,0,.15-.04.25-.06-.3.03-.41-.02-.55-.05-.16.06.31-.08.23-.03.19-.18-.39-.09-.09-.29.03,0-.23.09-.18.07,0-.05.24-.14.14-.14.14-.05-.06-.02-.11-.04-.11.02.06-.03.09,0-.13,0-.41-.1-.24-.28-.09.03-.36.05-.36.03l.22-.07c.12-.07-.05-.07.14-.14-.28.04.29.12.07.12.17-.08-.38.03-.08-.06-.02-.04-.28,0-.1-.12-.03.03.31-.07.28-.1-.06-.05-.11.02-.2-.01h-.1c-.21.07,0-.07-.22.03.17-.07-.14-.06.21-.17l.28-.09s-.31.05-.44.07c.02-.01.08-.04.12-.05-.42.14.01-.08-.33,0,.12-.11-.04-.16.21-.28-.14,0-.31,0-.24-.08.04,0,.06,0,.15-.02.11-.08,0-.05-.08-.05.07-.01.22-.15.36-.24-.14,0-.36.09-.5.13.4-.19-.31-.04.04-.22.06,0,.23,0,.32-.08.4-.19-.34.02-.16-.12l-.34.14c.2-.1-.24-.03.12-.15-.13.02.08-.12-.25,0,.24-.21-.27-.21.31-.49-.06,0-.02-.06-.19.01-.18.09.15,0,.02.05-.02-.01-.11.02-.16.03.06-.06.08-.1.37-.16.18-.15-.6.12-.5-.03.14-.04.19-.07.16-.09l-.26.03c.03-.08.3-.15.54-.23-.05-.02-.06-.07-.24-.02l.28-.14c-.2.1-.15.02-.22.02h.06c.1-.04.02-.06-.02-.07-.14.05-.19.12-.22.15-.11.02-.1-.02-.23,0,.23-.07.14-.11.16-.15.04-.05-.22.04-.21.02.12-.04,0-.06.18-.09.04,0-.11.06,0,.05.08-.05.29-.12.12-.11-.13,0-.45.16-.33.05.06,0,.16-.03.24-.05l.1-.1-.21.07c.05-.03.07-.03.1-.04-.23.06-.1-.06-.35,0-.03-.02.12-.11.14-.15h.02c.11-.08.01-.09-.14-.07h.05s-.04-.07-.17-.05c.14-.1.79-.29.51-.25-.02-.04-.41.06-.54.12.11-.13-.27-.11.03-.3-.09.02-.14.04-.2.03.04-.15-.34-.18.04-.42.1,0,.21-.07.33-.11-.2.03.18-.1-.14,0-.19.07-.28.1-.35.16-.13-.04-.17-.15,0-.25-.08.05-.14.05-.21.06.31-.1.33-.17.21-.17l-.19.06.18-.09c-.06,0-.39.11-.23.01.07-.03.14-.05.19-.08-.17,0-.44.04-.3-.06l.26-.13s-.21.01-.28.07c.13-.13.14-.19.36-.3-.62.06-.71-.13-.73-.3l.14-.04c.11-.09-.25.06-.16,0,.14-.03.28-.13.45-.15.12-.11-.27,0-.35-.02-.18.06.13,0-.11.06-.07.02.11-.13-.17-.05.1-.05.31-.11.42-.14h-.15c.31-.15.61-.08.99-.27l-.06-.02c.28-.13.36-.02.43-.14-.15,0-.56.11-.67.19-.1-.05-.67.19-.68.1.15-.08.06.05.28-.04.21-.11-.15-.04-.09-.1-.09.07-.38.14-.44.13.11-.09.27-.06.28-.13-.16.04-.3.03-.39.11-.37.1.08-.1-.21-.03.25-.11.61-.14.71-.25-.24.09-.36.03-.71.19.06-.05.25-.12.41-.15.14-.09-.48.06,0-.12l-.25.07c.08-.04.13-.07.26-.14,0-.03-.38,0,0-.12-.04,0-.05-.08-.3.04-.14.1.21-.01-.13.13.28-.13-.06-.05-.17-.05l.14-.05c-.06,0-.04-.04-.21,0,.09-.02.19-.06.22-.08l-.23.06c-.13-.03.38-.15.3-.19h.19s.16-.1.08-.11c-.21.05-.46.12-.62.16-.1,0,.22-.09,0-.06l.26-.04c.07-.02.32-.14.3-.19-.08,0-.39.05-.48.13-.01-.02.1-.1.25-.13-.09-.03-.22.08-.36.08.13-.06.3-.19.48-.29l.36-.07v-.03c.28-.05.19-.09.49-.16.04-.04-.07-.03-.15-.03-.44.22-.65.14-1.07.3-.15-.05,1-.4.31-.27-.1.05-.44.12-.3.13.03-.07-.43.1-.28-.02.19,0,.41-.19.68-.21-.14.04-.09.07-.05.07.15-.08.42-.14.4-.19-.05-.02-.08-.07-.29.02-.24.08.04.04-.21.1-.11-.04.25-.17-.18-.06.05.03-.19.13-.36.18l-.12-.02.16-.04c.09-.12-.3.07-.28-.02l.3-.14c.28-.07-.08.15.36,0,0-.06-.23,0-.13-.08.04,0,.06,0,.1,0,0-.02.59-.24.22-.2-.15,0-.16.04-.33.1-.08-.06-.26-.03-.3-.08.33-.1,0-.1.35-.16-.18.09-.12.2.2.13.37-.16-.03.08.36-.03-.01-.07.36-.19.61-.28.01-.02-.1,0-.14,0-.23.07-.22.09-.46.17.04-.09-.12-.12-.36-.09.11-.06.34-.13.37-.11-.1-.06-.1-.17-.06-.27-.36.18-.12-.06-.42.08-.07.07-.33.2-.5.23.01-.04.17-.05.24-.09-.22.03.31-.17-.03-.09.15.04.47-.14.77-.22-.19,0,.21-.07.19-.12-.19,0-.34-.03-.43-.07.25-.17-.07-.2-.1-.27.14-.09.48-.17.52-.23-.02-.04-.35.16-.22.03l.07-.02c-.09,0,.18-.2-.31-.06l.37-.1s-.06,0-.1,0c.12-.04.22-.09.31-.1.24-.13-.07-.08-.1-.12l-.2.1c-.2-.02,0-.15-.11-.2l.21-.07h-.14c.21-.06.32-.15.14-.11l.56-.05c-.11.07-.27.05-.47.14-.17.08-.09.13.11.08.01-.04-.03-.02-.12-.02.29-.11.29-.06.5-.11-.02-.01.06-.06-.03-.03.15-.02.19,0,.21.05-.13,0-.17.08-.26.09.26-.08.35-.06.3.02-.28.14.23.05.17.14-.27.06-.49.09-.61.09-.12.09.02.04-.09.13.2-.04.51-.13.64-.11l-.19.07c.12.02.4-.08.37,0-.06.14-.02.25-.01.34l-.19.07c.43-.09.21.1.41.1-.15.17.27.17-.05.33.21.14.42.25.42.47l-.29.06c.22-.03-.15.08-.1.1.21-.11.31-.05.49-.08-.19.16.09.19.31.2l-.19.07c.39-.04.1.15.08.27-.08.04-.25.12-.22.14.33-.05.32-.02.54,0,.02.06-.02.17-.13.27.51.06.31.37.65.5l-.22.09c.56.05.21.46.53.56l-.39.11c-.1.1.15.1.42-.01-.1.1.24.08-.07.22-.05.08.2.01.27.04-.1.17-.06.2.06.28v-.04c-.07.02-.24.07-.25.11.12,0-.05.19.4-.01-.22.21.31.2,0,.44.12-.05.16-.03.25-.05.04.1-.18.3.07.31-.06.04-.22.05-.22.09.06,0,.16-.06.25-.05.29.09-.12.42,0,.55.34.19.32.51.45.75l-.09.03c.38-.03-.29.33.27.21-.08.05-.01.09-.2.14.27-.02-.17.27.19.26,0-.01-.02-.01-.06,0-.17.17.14.16,0,.33-.04,0-.08,0-.17.02-.16.1.42-.04-.01.14.01.02.23-.06.21-.07-.09.29.28.44.47.65-.2.27-.74.27-.36.29-.08.04.17-.05.08-.02.14,0-.47.25-.22.21.27-.11.16-.03.33-.09-.14.17-.38.27-.14.29l-.15.04c.44-.04.26.15.76.07.28.51.72.94.96,1.45.1.55.49.99.43,1.6-.33.26-.32.26-.12.34-.06.02-.08.01-.13.04.31-.1.06.09.36,0,.01.22.16.37.23.57-.04-.02-.3.05-.27.08l.21-.03-.08.04c.05,0,.22-.02.31-.08.45.41,0,1.13.26,1.6-.09.16.09.29.2.39-.28.53-.49.99-.06,1.27,0,0-.82.24-1.06.14Z"/>
      <path class="cls-2" d="M37.65,27.02c-.15.07-.22.14-.44.17.14-.05.3-.13.44-.17Z"/>
      <path class="cls-2" d="M36.47,28.73s-.06.04-.08.05c-.02-.01-.15.02-.08-.02.02.01.09-.02.16-.03Z"/>
      <path class="cls-2" d="M36.49,29.07c-.14.04-.27.01-.3-.02l.3.02Z"/>
      <path class="cls-2" d="M36.02,29.54c-.11.06-.17.08-.18.04.07-.03.11-.03.18-.04Z"/>
      <path class="cls-2" d="M36.34,29.45s-.07.06-.14.1c.12-.04-.09-.03.14-.1Z"/>
      <path class="cls-2" d="M36.16,30.2s.14,0,0,.07c.1-.05-.2-.01,0-.07Z"/>
      <path class="cls-2" d="M36.47,30.41s-.03.02.01.02c-.06.04-.16.05-.18.04l.17-.07Z"/>
      <polygon class="cls-2" points="38.86 35.39 38.78 35.38 38.92 35.34 38.86 35.39"/>
      <path class="cls-2" d="M39.68,37.65c.1,0-.12.07-.14.08-.02-.02.17-.05.14-.08Z"/>
      <polygon class="cls-2" points="40.8 38.63 40.79 38.62 41.08 38.53 40.8 38.63"/>
    </g>
  </g>
  <g>
    <polyline class="cls-1" points="39.84 22.05 35.35 20.08 34.45 20.45 28.54 31.47 31.31 28.62 34.34 31.31 36.89 27.09 36.97 26.94 41.74 28.46 42.39 24.45 46.33 24.9 39.84 22.05"/>
    <g>
      <path class="cls-2" d="M39.51,22.5c.2.02,0-.28.16-.05-.07.1-.14.16-.16.05Z"/>
      <path class="cls-2" d="M40.27,22.65c.87-.45,1.29.58,2.1.4.08,0-.19.37.02.35.83-.28,1.62.45,2.16,1.19l-.09.09c.1.14.43-.15.55-.03-.03.07-.09.08-.1.19.13-.2.31.02.44-.12.02.11-.06.28-.03.41l.19-.21c.39-.38.5.02.76.13l.08-.3c-.07,0-.15.01-.23.07.02-.06.06-.1.04-.17-.59.32-1.3.17-1.89.24.02-.09.06-.26.03-.37-.05.28-.22.33-.36.37-.12-.31-.19.25-.38.06v-.07c0,.31-.27-.21-.2.17l-.19-.25c.18.43-.31-.25-.29-.04l.06.09c-.02.1-.22-.13-.26-.07l-.05-.05h-.02c.03.28-.15.2.11.48-.23-.17-.07-.31-.4-.57.08.56.08.98.05,1.29-.01.17-.05.4-.08.59l-.12.72c-.13.02-.18.05-.29-.02.04.13,0,.34.13.57,0-.03-.15-.1-.17-.07-.13.02.27.52.12.55-.06-.17-.14-.3-.25-.4.19.4.13.57.16.83-.03-.08-.06-.18-.14-.29.02.06.03.1.05.14-.04.14-.36-.23-.39-.07l-.06-.21c-.36-.35.16.46-.14.22.02-.05-.03-.15-.06-.24-.02.35-.44.1-.62.16,0-.02,0-.08,0-.08-.23-.03-.47-.22-.74-.15-.09-.11.07-.45-.15-.45-.05.37-.43.02-.41.47-.18-.12-.43-.35-.6-.27.13-.11.05-.46.21-.44l-.05-.25c.06-.14.11.09.13-.11-.08,0-.37.05-.44-.03-.22.17-.38.56-.56.55.09-.12-.07-.45,0-.5-.11.21-.18.44-.21.68-.05,0-.07-.33-.14-.25.03.11,0,.17,0,.25-.04-.06-.18.04-.37-.4-.09-.18.08-.06-.06-.23-.05-.03-.06.01-.06.06,0,.1,0,.19-.04.27l-.03-.05c-.08.02-.04.37.11.5.03-.03-.13-.21-.03-.17.09.27.06.42.02.51-.02-.08-.08-.17-.14-.27.1.39.1.56.14.74.13.12-.22-.25-.14-.21-.14,0-.13.14-.11.25,0,.14-.04.31-.25.32,0-.05.22.11.18.08-.09.11-.31-.02-.28.11-.13-.07-.02.12-.04.24.05.12-.07-.02-.04-.1.05.17-.22,1.05-.59,1.25.07.07.08.57,0,.66l-.11-.26c-.13-.05-.17.32-.28.13.04.46.29-.94.26-.48-.15-.13,0,.71-.14.34-.09.17-.08.64-.28.57.05,0-.07-.5-.14-.36-.12.28.01.19-.07.48l-.04.25c.08.3-.15.19,0,.42-.08-.22-.2.55-.29-.01l-.07-.45c-.05.13-.01.61-.03.9-.02-.03-.05-.09-.05-.17.02.11.02.19.02.25-.03.2-.25-.4-.3-.06-.23-.41-.55-.5-.63-.95-.16.04-.33.1-.5-.18.04-.02.1.01.12-.09-.09-.25-.13-.13-.25-.15.04-.06-.15-.48-.2-.74-.18.01-.23.29-.31.42.05-.54-.59-.15-.57-.66.09,0,.33,0,.28-.19.06-.24-.04-.22-.18-.2-.15.02-.32.04-.32-.09l-.2.31c.08-.23-.37-.04-.1-.31-.14.05-.1-.25-.32.03-.01-.11-.07-.19-.13-.26-.1-.1-.23-.19-.34-.29.02-.03-.11.03-.2.07l-.28.12c-.18.08-.36.15-.54.23-.3.12-.59.24-.91.37l-.18.06-.08.03s.02,0,.02-.01c.05-.03.1-.06.16-.09.13-.08.29-.17.48-.29-.16.11-.02.06-.46.34-.49.3.36-.26.02-.05-.03.03-.27.19-.39.27.21-.11.26-.12.98-.62.45-.23-1.43,1-1.07.84.3-.2.42-.27.37-.22l-.48.36c.14-.04.62-.38,1.08-.68-.1.09-.11.13-.42.35l.48-.28c-.33.19-.25.19-.35.26l.1-.08c.15-.1.03.02-.03.07-.21.13-.29.15-.35.18-.16.12-.13.12-.3.25.34-.23.24-.11.27-.11.06-.01-.25.19-.24.19.14-.09.04.02.22-.12.05-.04-.14.07-.01-.03.11-.06.35-.21.16-.06-.13.11-.49.31-.32.25.05-.05.14-.11.23-.18l.1-.02-.19.13c.05-.03.06-.04.09-.05-.2.14-.07.11-.24.23,0,.02.12-.03.13-.02h0c.07-.03.01.04-.02.09h.01s0,.04,0,.06c.02,0,.03,0,.04,0,0,0,0,0,0,0h0s0,.02,0,.02h0s0,0,0,0l-1.54,1.35h0s-.04.03-.04.03c.07-.14-.71.47-1.05.8.49-.6-.01-.43.84-1.29-.15.08-.27.2-.32.17.43-.62.15-.85,1.13-1.73.08.05.37-.22.58-.35-.27.09.41-.33-.13-.04-.34.21-.49.28-.71.52-.01-.21.27-.73.65-1.04-.19.16-.25.13-.3.1.48-.21.67-.46.59-.56l-.27.09.35-.23c-.06-.03-.54.15-.18-.13.11-.05.22-.09.32-.15-.13-.09-.34-.28,0-.54l.45-.24c0-.07-.13-.18-.32-.01.4-.39.54-.6.88-.71-.2-.26-.17-.66-.03-1.07.12-.38.42-.94.51-1.05l.12.08c.18-.05-.19-.18-.06-.21.1.1.31.06.42.23.22-.09-.11-.33-.11-.46-.16-.11.06.14-.14,0-.05-.05.25-.15,0-.31.12.01.29.15.39.22l-.07-.16c.36.04.39.56.82.63v-.11c.32.06.18.4.4.22-.07-.17-.4-.45-.56-.42.04-.24-.56-.42-.42-.63.18.02-.06.2.18.27.26,0,0-.27.12-.32-.15.05-.36-.18-.38-.27.18-.05.2.2.31.06-.13-.11-.17-.31-.34-.24-.3-.24.18-.12-.03-.34.26.07.46.46.67.35-.24-.09-.19-.38-.58-.47.1-.03.29.06.4.18.19-.02-.29-.46.18-.25l-.21-.16c.09.01.17,0,.32.01.05-.08-.17-.45.18-.25-.02-.05.1-.24-.18-.29-.21.04.1.24-.26.13.31.06.06-.19,0-.31l.14.06c-.03-.07.05-.15-.08-.26.06.07.16.11.21.09l-.18-.16c-.01-.23.38.15.41-.04l.09.21s.2,0,.18-.11c-.17-.14-.37-.31-.5-.42-.03-.14.24.07.09-.12l.16.24c.05.05.36.09.42-.04-.02-.12-.23-.39-.4-.31.03-.06.19-.09.3.03.01-.18-.21-.09-.26-.28.15.02.42-.04.65-.04l.25.3.05-.08c.19.25.22.05.46.25.07-.04.02-.16-.02-.25-.52-.06-.48-.5-.9-.66.02-.29,1.02.36.55-.21-.12-.01-.36-.29-.32-.08.12-.12-.34-.31-.08-.39.09.21.47.08.6.38-.12-.08-.15.05-.13.1.18.02.38.22.46.07,0-.09.09-.28-.12-.37-.23-.11-.08.22-.27.02.09-.35.43-.17.13-.56-.07.21-.32.12-.47.03l.05-.32.11.15c.31-.32-.18-.31.07-.69.12.02.23.04.34.06.17.3-.39.46,0,.7.13-.21,0-.46.21-.59,0,.08-.02.15-.02.23.03-.04.22.07.34.07.13.02.24,0,.31-.19.13-.21-.03-.17-.13-.32.47-.25.58-.49.93-.67,0,.37.6-.21.28.3-.17-.14-.97.21-.95.55.37.28-.39.1-.22.47.33-.13.52.22.7.43.07,0,.08-.13.1-.18-.07-.24-.16-.19-.29-.41.37-.08.64-.34.85-.69.14.07.09.36-.04.44l.18-.1c.29.09.59.25.83.43-.09-.48.39.07.36-.31-.15-.16-.25-.52-.08-.64.13.08-.06.17-.03.27.23-.14.14.44.39.18-.37-.02-.24.43-.42.69.26-.08-.09.2.07.28.23-.09.47-.13.67-.12.1.37.55.25.75.32.04.19-.17.48-.09.59.13.05.06-.39.18-.16l-.05.06c.09-.05.26.37.52-.07l-.21.32s.09-.02.14-.04c-.05.11-.05.24-.14.29.01.29.27.07.4.12v-.24c.3-.07.36.2.6.23l-.1.2.18-.07c-.12.18-.06.36.08.23l-.55.35c-.04-.16.21-.2.24-.43.03-.2-.19-.23-.31-.05.07.06.09.01.18-.03-.1.29-.21.23-.35.4.04,0,.06.12.11.03-.14.1-.23.09-.36.04.14-.07.03-.2.1-.26-.12.24-.28.27-.41.13.01-.34-.38.05-.53-.11.19-.22.37-.38.53-.43-.06-.18-.13-.05-.19-.23-.14.16-.31.43-.51.48l.07-.19c-.18.03-.3.31-.45.18-.26-.22-.57-.36-.79-.48l.07-.19c-.15.17-.29.15-.38.13-.08-.02-.16-.08-.24,0-.08-.16-.22-.14-.32-.15-.05.04-.08.04-.15-.09-.09.11-.15.2-.18.26-.02.12-.05.22-.09.31-.03.09-.08.17-.19.34l-.21-.23c.14.19-.18-.02-.19.09.26,0,.2.27.33.42-.32.12-.26.53-.19.83l-.18-.09c.23.39-.2.47-.39.7-.09-.01-.28-.05-.3.03.21.29.15.36.23.66-.08.15-.28.35-.47.44.11.78-.46,1.21-.53,1.92l-.23-.07c.04.2.02.38-.04.55-.03.13-.04.14-.08.2-.07.09-.19.21-.08.28l-.47.02c-.19.1.04.16.41.07-.19.09.2.04-.27.21-.14.1.22-.02.29-.02-.27.18-.25.22-.18.23l.05-.04c-.14.07-.41.22-.47.27.16-.06-.27.27.57-.27-.26.19-.2.19-.14.17.05,0,.1-.03-.29.3.23-.18.31-.23.47-.36,0,.01-.63.61-.15.21-.15.13-.27.24-.5.43.18-.16.3-.27.54-.47.29-.26.18-.16.06-.07-.12.1-.25.2-.15.1.29-.26.38-.34.46-.42.07-.05.11-.16.19-.15l-.08.06c.18-.09.12-.02.1.06.02.12.12.27.38.12-.02.11.15.19-.01.3.08-.01.14.01.19.06.05.05.09.13.08.15,0,.07.02.15.13.02,0-.01-.01,0-.04.04-.02.27.14.02.16.3-.02.04-.04.06-.06.17.01.26.14-.43.1.17.02.02.03-.29.02-.28.07.17.17.24.24.24.06-.22.07-.47.09-.61.23.17.45.78.33.31.07.07-.11-.17-.05-.08-.06-.15.41.33.27.09-.22-.2-.1-.15-.23-.27.1.02.21.05.28.05.07,0,.1-.03.08-.2l.12.09c-.11-.23-.07-.39-.05-.55.02-.09.01-.14.02-.26.02-.13.01-.28-.03-.45.45-.76.83-1.61,1.22-2.45,1,.25,1.99.5,2.97.75l.9.21c.06,0,.04-.03.06-.03.02.04.05.04.05.03v-.04s0-.11-.03.14c-.01.12-.07.53.02.1l.05-.18.02-.09.05-.27c.07-.35.15-.7.23-1.06.49-.51.46-.43.45-1.34.05.09.06.15.12.16-.22-.28-.05-.46-.1-.71.03-.02.03-.06,0-.13,1.15.2,2.12.22,3.28.35-.18.01-.25.28-.05.28l.22-.19.03.1c.14-.03.32-.17.17-.3.2,0,.26,0,.35,0h.25c.17.01.33.03.5.06.33.05.65.13.98.21l-1.09,4.03c-.72-.45-1.42-.96-2.2-1.26-.27-.27-.78-.36-1.16-.45-.87-.86-1.67-1.6-2.85-1.78,0,0,.48-.71,1-.7Z"/>
      <path class="cls-2" d="M39.29,22.43c.03-.17-.06-.3.13-.46-.05.15-.06.33-.13.46Z"/>
      <path class="cls-2" d="M36.73,19.47s-.02-.08-.02-.11c.04,0,.14-.1.14-.01-.05,0-.07.07-.12.12Z"/>
      <path class="cls-2" d="M35.52,18.83c.02-.15.33-.14.51-.08-.18.02-.35.05-.51.08Z"/>
      <path class="cls-2" d="M33.7,18.8c-.23-.04-.23-.11,0-.21.06.06,0,.13,0,.21Z"/>
      <path class="cls-2" d="M33.76,19.14c-.14.06-.26.02-.39-.02.09.1.3-.21.39.02Z"/>
      <path class="cls-2" d="M31.99,21.01s.05.19-.11.15c.12.01-.06-.28.11-.15Z"/>
      <path class="cls-2" d="M31.78,21.86s-.05.02-.03.06c-.08.01-.15-.08-.14-.13l.17.06Z"/>
      <path class="cls-2" d="M31.74,30.47s-.11-.03-.14-.03l.11-.1s.02.09.04.13Z"/>
      <path class="cls-2" d="M37.25,28.61c-.04-.12.1.09.12.11,0,.04-.11-.17-.12-.11Z"/>
      <polygon class="cls-2" points="39.58 28.15 39.55 28.14 39.61 27.85 39.58 28.15"/>
    </g>
  </g>
</svg>