<?xml version="1.0" encoding="UTF-8"?>
<svg id="Layer_3" data-name="Layer 3" xmlns="http://www.w3.org/2000/svg" viewBox="0 0 95 95">
  <defs>
    <style>
      .cls-1 {
        fill: #202020;
      }
    </style>
  </defs>
  <g>
    <g>
      <path class="cls-1" d="M33.56,57.91c-.09-.15-.24.11-.13-.09.12,0,.21.03.13.09Z"/>
      <path class="cls-1" d="M33.49,58.31c.61-.68,1.18.18,1.81-.22.07-.02-.09.41.08.33.65-.54,1.45.05,1.97.64l-.07.1c.1.11.35-.23.46-.14-.02.08-.07.1-.07.21.09-.22.26-.05.36-.2.03.1-.03.28,0,.4l.15-.24c.39-.57.49.17.86-.03-.03.05-.08.09-.07.16.56-.2,1.1.07,1.65.13-.06.08-.14.23-.16.34.13-.25.32-.27.47-.25-.07.29.33-.12.41.1l-.04.05c.25-.21.08.24.34-.03l-.04.24c.24-.34.06.27.25.14l.04-.08c.14-.04.08.16.19.15l-.02.05c.24,0,.23.26.39-.01-.07.25-.24,0-.33.38.4,0,.71.16,1.01.36.3.19.57.42.86.63-.02.14-.02.21-.08.31.09,0,.22.14.37.07-.02-.01-.08.15-.07.19,0,.17.35-.15.34.06-.1.02-.19.08-.26.17.26-.09.34.06.5.1-.06.02-.1.02-.17.09.32-.07.14.24.37.22l-.18.08c-.03.29.34-.19.35.04-.07,0-.12.06-.18.09.36-.06.44.25.63.33-.03,0-.07.04-.07.04.14.14.16.36.41.47-.04.11-.39.19-.26.34.32-.18.28.24.6-.05.02.19,0,.5.17.56-.16-.02-.39.25-.47.13l-.17.18c-.15.04,0-.12-.16-.01.04.05.26.18.23.26.27.03.69.02.8.23-.17-.06-.38.17-.46.12.25.03.51.06.76.1.04.07-.28.09-.16.17.09-.03.16,0,.25.02-.03.04.17.29-.18.39-.13.06-.11-.1-.21,0,.03.13.15.11.17.25h-.05c-.04.11.19.25.37.12,0-.07-.21.06-.12-.05.22.03.3.19.32.33-.07-.04-.16-.02-.27-.03.31.15.43.35.56.56.17,0-.31-.06-.23-.1-.23.28.35.56,0,.79-.03-.04.25-.02.2-.02-.02.13-.27.12-.18.21-.15,0,.05.11.09.2.1.05-.07.02-.08-.06.12.12.3.65.06.91.1,0,.33.22.31.29l-.22-.06c-.15.04-.02.22-.21.2.25.18-.14-.56.04-.35-.2.02.32.31.01.23-.01.12.22.31-.03.44.04-.04-.29-.2-.29-.07,0,.23.1.09.13.3l.06.15c.21.09-.09.2.17.21-.18-.05,0,.42-.32.21l-.25-.17c0,.1.23.31.32.47-.03,0-.09,0-.12-.04.38.28-.11.21.13.56-.1.06-.15.19-.21.3-.14.03-.28.05-.43-.05-.06.16-.12.36-.38.34.02-.05.06-.07.02-.16-.19-.08-.15.03-.23.12-.01-.06-.37-.17-.54-.28-.1.16.03.38.07.52-.15-.18-.24-.09-.35,0-.1.09-.25.2-.34.02.02-.07.18-.25.03-.34-.19-.41-.18.36-.4.19l.1.35c-.11-.2-.26.24-.29-.13-.05.14-.24-.1-.18.25-.34-.26-.78.25-.99-.4-.04.06-.16,0-.13.18.08.2.11-.14.13,0-.04.01-.05.11-.05.16-.1-.08-.18-.11-.08-.4-.21-.22-.23.6-.52.46.02-.15,0-.2-.08-.18l-.18.23c-.18-.08-.07-.35-.06-.6-.1.03-.21,0-.28.18l-.08-.33c.05.24-.1.14-.15.19l.05-.06c0-.11-.12-.06-.18-.03-.01.15.09.23.15.28-.06.1-.14.07-.22.19.06-.24-.13-.19-.2-.23-.08-.06-.14.2-.17.19.02-.13-.14-.06-.04-.21.04-.03.04.14.11.04-.04-.1.01-.32-.14-.19-.11.09-.08.48-.22.28.06-.05.09-.14.14-.22l-.13-.17-.06.21c0-.06.01-.08,0-.11-.1.22-.26,0-.36.25-.09,0-.13-.2-.2-.24h.02c-.06-.17-.2-.12-.33,0l.02-.04s-.17-.04-.28.05c-.07-.21.26-.8.02-.6-.12-.05-.35.29-.35.45-.17-.24-.58-.03-.64-.43-.07.06-.08.12-.17.14-.28-.25-.81-.2-.81-.72.14-.02.13-.18.2-.29-.18.12.04-.22-.19.04-.11.17-.17.24-.13.37-.24-.04-.54-.22-.5-.45-.01.11-.09.13-.16.14.21-.24.13-.38-.03-.38l-.14.14.07-.21c-.07.02-.31.27-.27.05.05-.06.09-.12.11-.18-.2.03-.52.1-.5-.11l.12-.28c-.06-.02-.26.03-.24.16-.05-.28-.14-.4,0-.61-.69.1-1.07-.37-1.31-.76l.13-.07c.04-.18-.25.09-.22-.03.14-.05.19-.25.39-.27.03-.22-.34-.04-.47-.09-.17.09.16,0-.06.12-.08.02-.02-.28-.27-.15.08-.1.27-.18.38-.23l-.17-.02c.23-.29.65-.07.94-.41l-.08-.06c.22-.24.4.02.39-.23-.17,0-.57.14-.63.28-.17-.14-.64.27-.73.06.12-.14.12.14.31-.02.15-.21-.22-.13-.19-.25-.04.15-.34.22-.42.18.06-.17.28-.07.22-.23-.16.06-.34-.02-.38.16-.36.13,0-.21-.3-.15.21-.17.63-.14.66-.36-.21.15-.42-.04-.71.22.03-.1.21-.2.37-.22.09-.16-.54-.01-.1-.27l-.25.08c.06-.07.1-.14.2-.25-.04-.08-.46-.11-.1-.27-.06,0-.11-.21-.33-.02-.11.19.24.05-.06.27.23-.21-.12-.15-.24-.19l.14-.07c-.07-.02-.08-.13-.24-.09.09,0,.18-.06.2-.11l-.23.05c-.17-.13.36-.2.24-.34l.21.05s.13-.15.04-.2c-.21.05-.47.09-.63.13-.12-.06.21-.13-.03-.14l.28.02c.07,0,.3-.21.25-.33-.1-.05-.43-.06-.49.1-.03-.06.06-.2.23-.2-.12-.11-.21.1-.38.02.11-.1.25-.33.41-.49h.38s-.03-.08-.03-.08c.31,0,.19-.13.49-.17.02-.07-.1-.1-.19-.13-.4.32-.69.03-1.1.22-.2-.2.97-.48.22-.5-.1.07-.46.06-.28.17,0-.16-.46.03-.34-.19.21.07.39-.27.69-.16-.14.03-.07.13-.02.15.14-.11.43-.12.38-.26-.06-.08-.1-.19-.32-.11-.24.08.06.13-.2.14-.13-.15.23-.29-.22-.24.06.1-.18.21-.35.25l-.13-.1.17-.02c.06-.25-.31.02-.32-.2l.3-.19c.29-.03-.05.34.39.17-.01-.14-.25-.12-.17-.28.05.02.07.05.11.07,0-.05.59-.26.19-.35-.16-.06-.17.02-.34.06-.1-.2-.29-.22-.35-.35.34-.05-.03-.25.35-.18-.18.12-.08.42.25.42.37-.18-.01.18.39.12-.03-.17.35-.26.6-.36,0-.05-.11-.07-.16-.08-.24.04-.22.1-.47.17.02-.2-.16-.35-.41-.4.1-.09.34-.13.39-.06-.12-.2-.15-.45-.13-.68-.36.22-.15-.22-.45-.06-.06.13-.31.29-.5.27,0-.08.17-.03.25-.08-.24-.05.31-.21-.05-.23.18.18.49-.06.8-.08-.21-.11.22-.04.18-.18-.21-.11-.37-.26-.46-.42.26-.26-.07-.52-.11-.7.14-.12.5-.11.55-.22-.02-.12-.36.15-.23-.06h.07c-.09-.04.19-.36-.32-.34h.39s-.06-.06-.11-.08c.12-.02.23-.07.32-.03.25-.15-.07-.22-.1-.34l-.21.11c-.21-.18,0-.35-.11-.54l.22-.02-.15-.1c.22,0,.34-.12.15-.16l.58.24c-.12.1-.28-.06-.49.02-.18.07-.1.24.12.25.01-.07-.03-.07-.12-.11.3-.06.31.05.52.07-.02-.03.07-.1-.03-.09.16.05.19.12.22.24-.13-.06-.18.07-.27.05.27-.03.37.07.32.23-.3.15.24.24.18.42-.28-.03-.51-.08-.64-.17-.12.13.02.12-.1.25.21.02.53,0,.67.13l-.2.04c.12.11.42.06.38.23-.06.29-.02.57-.01.78l-.2.05c.45.03.25.34.47.45-.13.3.32.51.02.72.27.42.5.77.55,1.25h-.31c.23.03-.14.11-.07.18.19-.16.33.02.53.02-.14.27.19.45.45.54l-.19.08c.42.04.19.37.21.61-.07.06-.23.17-.18.23.35,0,.35.06.6.15.05.12.09.34.04.51.65.22.6.82,1.11,1.09l-.18.16c.71.08.67.84,1.14.96l-.33.25c0,.17.29.13.47-.1,0,.17.36.06.18.36.04.14.24-.03.35,0,.07.3.17.33.41.39l-.03-.05c-.07.06-.18.2-.15.25.14-.04.21.27.41-.18.06.36.56.14.6.55.04-.13.11-.13.17-.2.19.07.28.41.52.27,0,.08-.13.19-.06.24.06-.03.06-.16.14-.21.38-.12.58.42.91.46.3-.08.59-.09.87-.05.28.02.57.02.84.01v.1c.15-.37.46.34.56-.23.05.09.17.03.16.22.06-.13.17-.09.28-.06.06.02.13.03.17.02.02,0,.04-.04.03-.12,0,0,0,.01,0,.05.15.19.1-.1.27.06.02.04.02.07.07.16.16.15-.17-.39.16.02.02-.01-.15-.21-.15-.19.05.02.1.02.14.01.04-.07.03-.2,0-.31-.03-.13-.11-.15-.12-.32.34-.32.79.1.49-.25.09-.01-.18-.04-.08-.03-.12-.13.54-.12.3-.24-.29,0-.16-.07-.33-.09.2-.21.48-.26.26-.45l.15.02c-.43-.23-.21-.48-.7-.64-.14-1.14-.73-2.02-1.27-2.83-.12-.21-.25-.42-.38-.63l-.54-.54c-.31-.39-.8-.66-1.14-1.12.02-.5-.02-.5-.37-.5.04-.05.07-.05.08-.12-.18.27-.21-.07-.39.18-.36-.25-.72-.38-1.14-.56.08,0,.23-.24.14-.25l-.17.16.02-.09c-.08.02-.2.15-.18.27-.59-.07-1.08-.35-1.57-.66-.53-.26-1.07-.53-1.65-.63-.25-.19-.65-.2-.97-.16-.82-.56-1.63-1.03-2.6-.86,0,0,.21-.83.63-.96Z"/>
      <path class="cls-1" d="M33.62,58.09c-.16.05-.23.17-.46.11.15-.03.31-.1.46-.11Z"/>
      <path class="cls-1" d="M32.4,61.35s-.05.06-.08.07c-.02-.04-.17-.04-.09-.09.02.04.1.02.17.02Z"/>
      <path class="cls-1" d="M32.5,62.15c-.15.02-.3-.12-.34-.22l.34.22Z"/>
      <path class="cls-1" d="M32.1,63.03c-.1.1-.17.1-.19,0,.07-.03.12,0,.19,0Z"/>
      <path class="cls-1" d="M32.43,63c.02.06-.06.11-.13.17.12-.03-.11-.12.13-.17Z"/>
      <path class="cls-1" d="M32.5,64.73s.17.08.03.17c.09-.08-.24-.13-.03-.17Z"/>
      <path class="cls-1" d="M32.99,65.4s-.02.05.03.06c-.05.07-.16.06-.19.03l.16-.09Z"/>
      <polygon class="cls-1" points="44.75 72.52 44.68 72.6 44.67 72.46 44.75 72.52"/>
      <path class="cls-1" d="M47.73,66.87c-.1-.08.13-.08.15-.09.02.08-.18,0-.15.09Z"/>
      <polygon class="cls-1" points="46.08 63.85 46.09 63.87 45.82 64 46.08 63.85"/>
    </g>
    <g>
      <path class="cls-1" d="M61.73,58.02c-.04-.17-.27.06-.1-.12.11.03.2.07.1.12Z"/>
      <path class="cls-1" d="M60.63,57.56c-.42.83-1.2.16-1.69.73-.06.04-.05-.41-.19-.29-.45.63-1.33.51-2.11.23v-.12c-.14-.05-.19.36-.34.34-.02-.08.01-.12-.04-.21.03.24-.21.16-.22.35-.08-.08-.12-.26-.22-.34v.28c-.03.65-.53.09-.7.52,0-.06,0-.12-.04-.17-.32.53-.89.67-1.33.98-.02-.09-.07-.26-.14-.35.09.27-.04.39-.14.5-.18-.23-.1.35-.31.28l-.02-.06c.03.33-.24-.07-.16.3l-.17-.17c.15.39-.25-.11-.24.13l.04.07c-.03.13-.18-.03-.22.08l-.03-.04c-.12.19-.35.05-.18.32-.2-.19.11-.19-.18-.46-.23.29-.46.55-.71.78-.26.23-.54.42-.8.62-.15-.05-.2-.04-.3-.12,0,.1-.14.23-.07.39.01-.02-.14-.09-.18-.07-.17,0,.16.35-.04.34-.03-.1-.09-.18-.19-.25.1.26-.03.34-.07.49-.03-.05-.03-.1-.11-.16.11.29-.24.16-.19.37l-.11-.15c-.32.02.26.29.05.35-.02-.07-.09-.1-.14-.16.17.35-.06.5-.06.71-.02-.02-.06-.05-.06-.05-.06.17-.26.28-.24.52-.11.02-.39-.25-.42-.03.33.17,0,.37.42.46-.12.12-.35.3-.28.44-.1-.12-.45-.1-.43-.24h-.25c-.13-.06.09-.07-.1-.11-.02.07.03.32-.05.36.16.2.54.45.53.66-.11-.13-.41-.06-.45-.15.2.16.4.32.61.47,0,.07-.29-.06-.22.06.1.02.14.07.21.12-.05.02.02.27-.35.23-.15,0-.05-.12-.19-.07-.02.13.11.15.09.28h-.05c-.06.07.12.26.33.2.02-.05-.22-.01-.1-.08.2.09.24.23.23.35-.05-.05-.15-.05-.25-.08.27.2.33.36.44.54.17.01-.32-.08-.22-.1-.25.22.34.48-.02.66-.03-.03.25-.02.2-.02-.02.11-.27.11-.18.18-.15.01.04.09.09.16.11.03-.07.02-.09-.04.14.1.4.48.2.73.09-.02.37.09.37.14h-.23c-.13.08.05.19-.14.23.29.07-.31-.4-.07-.28-.18.07.4.16.08.17.03.12.3.16.1.25.03-.02-.32.01-.29.07.06.1.11,0,.2.07l.1.02c.21-.08,0,.09.22-.04-.17.09.13.06-.21.23l-.27.13s.3-.08.42-.13c-.02.02-.07.06-.12.09.4-.26,0,.12.31-.07-.06.08-.04.13-.05.18.02.03.03.07-.05.2.16-.09.3-.22.31-.12-.04.03-.06.04-.12.13-.03.13.05.03.13-.03-.05.06-.04.26-.04.43.13-.11.19-.34.25-.48-.05.22.02.16.08.09.07-.06.1-.14.14.07-.06.05-.16.19-.12.31.02.45.25-.29.37-.05v-.37c.05.24.26-.19.2.18.07-.13.17.14.19-.22.23.33.6-.13.75.5.04-.06.13,0,.11-.18-.06-.2-.09.14-.11,0,.03-.01.04-.11.04-.16.08.08.14.11.07.4.19.22.17-.61.39-.47,0,.15.02.2.08.18l.1-.27c.14.04.11.32.13.57.08-.05.17-.05.19-.24l.13.3c-.1-.22.05-.16.07-.22l-.03.07c.03.1.11.03.15-.01-.04-.15-.14-.2-.19-.24.02-.11.09-.1.12-.23.02.24.15.16.22.17.08.04.04-.22.06-.22.03.12.11,0,.1.18-.02.05-.08-.1-.09.01.06.08.1.3.16.12.04-.14-.12-.47.04-.35-.02.07,0,.17-.01.26l.15.09-.05-.22c.03.05.02.07.04.1-.02-.24.17-.12.13-.38.05-.04.17.11.23.12v.02c.1.11.18,0,.19-.16v.05c.06.01.13-.06.13-.2.15.12.33.77.34.46.1-.05,0-.45-.1-.56.23.06.26-.35.56-.1-.02-.09-.06-.13-.03-.2.28-.05.31-.53.74-.27-.01.12.12.19.2.29-.06-.2.19.12.01-.17-.12-.16-.17-.24-.28-.27.07-.18.27-.29.45-.21-.09-.04-.1-.11-.12-.18.19.26.31.21.3.06l-.12-.16.17.11c-.02-.07-.24-.33-.06-.25.05.05.11.11.16.14-.04-.18-.14-.47.05-.41l.26.15c.01-.05-.06-.22-.17-.23.25,0,.34-.06.57.07-.26-.65-.04-.99.2-1.24l.11.09c.17,0-.18-.18-.06-.18.1.1.29.11.39.27.21-.02-.1-.28-.11-.39-.15-.12.06.12-.13-.02-.05-.04.23-.07,0-.25.11.03.28.17.37.25l-.08-.15c.34.08.4.54.81.66v-.1c.3.09.18.38.38.25-.08-.16-.4-.45-.55-.44.02-.21-.55-.44-.44-.59.17.04-.04.16.19.25.25.04-.03-.23.08-.26-.14.03-.36-.19-.38-.26.16-.02.21.19.3.08-.14-.1-.19-.27-.34-.23-.31-.23.16-.07-.07-.28.26.08.48.42.67.34-.24-.1-.22-.33-.6-.43.09-.02.28.07.4.18.18,0-.32-.39.15-.19l-.22-.14c.09,0,.17.02.31.03.04-.07-.21-.36.15-.19-.02-.03.05-.2-.22-.24-.19.03.14.2-.23.09.32.07.03-.15-.04-.25l.14.05c-.04-.06.02-.12-.13-.21.07.06.17.09.22.08l-.2-.13c-.06-.18.39.13.38-.04l.13.17s.19,0,.15-.1c-.19-.11-.41-.25-.55-.34-.06-.11.24.06.06-.1l.2.19c.06.04.35.06.39-.04-.04-.09-.29-.31-.44-.24.02-.05.16-.08.29.02-.03-.14-.22-.07-.31-.21.15,0,.39-.05.61-.06l.3.23.03-.07c.23.19.22.03.49.18.06-.04-.01-.13-.07-.21-.51-.01-.56-.38-1-.48-.04-.23,1.07.21.49-.2-.12,0-.41-.2-.33-.04.09-.11-.39-.21-.17-.3.15.16.46.01.67.25-.14-.05-.14.05-.11.09.18,0,.42.14.47.02-.02-.09,0-.21-.23-.26-.24-.07,0,.13-.24,0-.05-.18.33-.1-.08-.29,0,.11-.25.06-.41.01l-.07-.14.16.07c.16-.15-.28-.14-.19-.3h.34c.26.12-.19.23.27.33.05-.11-.17-.22-.03-.29.03.04.04.07.07.11.03-.04.63.08.32-.18-.11-.12-.15-.07-.32-.11,0-.2-.16-.3-.16-.43.32.11.08-.21.39.01-.21.02-.26.29.04.44.41.03-.09.14.29.28.05-.15.43-.04.69,0,.03-.04-.07-.11-.1-.15-.23-.08-.24-.02-.49-.08.11-.16.02-.36-.19-.51.13-.03.36.05.37.12-.02-.22.07-.44.19-.62-.42.04-.04-.24-.38-.22-.11.09-.41.11-.57.02.04-.06.17.04.26.03-.19-.13.37-.06.06-.21.08.21.47.13.77.23-.14-.17.22.05.25-.09-.13-.17-.24-.37-.29-.54.32-.14.08-.5.09-.67.17-.07.51.05.58-.04,0-.12-.39.03-.2-.12l.07.03c-.07-.06.28-.29-.21-.41l.37.11s-.04-.07-.08-.1c.12.02.24,0,.31.06.28-.07,0-.23,0-.35l-.24.05c-.15-.22.09-.33.04-.53l.22.03-.12-.13c.21.05.36-.04.19-.12l.5.37c-.14.07-.25-.13-.48-.1-.2.02-.16.21.05.27.03-.07-.01-.08-.09-.14.31.02.28.12.48.2,0-.04.09-.08,0-.1.14.09.15.17.14.29-.11-.1-.2.02-.28-.02.27.05.33.17.24.31-.33.06.16.31.05.47-.26-.11-.47-.24-.56-.36-.15.09,0,.12-.16.21.2.08.5.17.6.33l-.2-.02c.08.14.38.19.3.35-.14.27-.18.55-.24.76l-.2-.03c.4.2.06.42.21.62-.26.23.04.64-.33.69.03.51.08.98-.13,1.45l-.25-.17c.18.15-.18,0-.17.1.26-.03.25.21.4.33-.3.15-.16.5-.04.77l-.19-.06c.28.33-.12.45-.26.67-.09,0-.28-.03-.29.05.25.26.21.32.32.6-.06.14-.26.33-.45.41.13.72-.39,1.12-.49,1.79l-.23-.1c.04.78-.75,1.13-.92,1.68l-.26-.31c-.21.03-.19.33.04.51-.21.03-.17.44-.48.27-.17.06-.03.28-.1.43-.35.13-.42.23-.66.47l.08-.03c-.02-.09-.12-.23-.21-.21-.03.16-.43.16-.06.49-.45-.05-.58.69-1.09.49.09.11.02.17.02.26-.3.14-.7.03-.85.34-.07-.04,0-.24-.13-.2-.05.08.06.16,0,.27-.41.42-1.08.05-1.5.23-.38.19-.79.27-1.21.33-.41.04-.82,0-1.21.03v-.1c-.27.37-.56-.43-.81.12-.05-.1-.23-.07-.16-.25-.12.12-.25.04-.4-.04-.08-.04-.14-.08-.23-.09-.11-.02-.23,0-.36.05.04.02.07,0,.12-.03-.36-.28-.83-.14-1.18-.43.07-.02.16-.03.23-.11-.04-.2-.62.23-.42-.2-.09-.03-.22.17-.15.18-.14-.08-.28-.15-.44-.22-.12-.39-.31-.73-.47-1.12l-.27-.59c-.08-.18-.15-.47-.2-.59.19-.55.77-.15.37-.49.09-.04-.18,0-.08-.02-.15-.14.5-.29.25-.37-.28.07-.17-.05-.34-.04.16-.33.41-.39.18-.62h.15c-.43-.26-.2-.59-.69-.85-.02-1.63.2-3.35,1.03-4.86.25-.34.49-.69.72-1.03.26-.31.54-.61.82-.91.53-.65,1.22-1.04,1.93-1.44.52.1.53.1.79-.23.02.06,0,.09.06.13-.15-.29.23-.16.1-.45.53-.21.95-.57,1.48-.8-.07.06,0,.32.09.27l.02-.23.05.08c.05-.07.06-.25-.05-.32.62-.39,1.34-.55,2.04-.68.71-.06,1.4-.08,2.05-.28.34.07.76-.2,1.09-.29,1.09.28,2.02.51,3,.06,0,0-.05.86-.43,1.11Z"/>
      <path class="cls-1" d="M61.73,58.22c-.17.02-.27.12-.48,0,.15,0,.33-.03.48,0Z"/>
      <path class="cls-1" d="M59.62,60.91s-.07.03-.1.03c0-.04-.13-.1-.04-.11,0,.04.08.05.14.08Z"/>
      <path class="cls-1" d="M59.35,61.6c-.14-.04-.22-.22-.21-.31l.21.31Z"/>
      <path class="cls-1" d="M58.61,62.11c-.13.02-.19,0-.17-.08.08.01.11.05.17.08Z"/>
      <path class="cls-1" d="M58.92,62.24c-.01.06-.1.06-.19.06.12.03-.05-.15.19-.06Z"/>
      <path class="cls-1" d="M58.1,63.49s.09.14-.08.12c.12,0-.12-.21.08-.12Z"/>
      <path class="cls-1" d="M58.08,64.18s-.04.01-.01.05c-.08.01-.16-.07-.16-.1l.18.05Z"/>
      <polygon class="cls-1" points="49.8 70.35 49.88 70.29 49.85 70.43 49.8 70.35"/>
      <path class="cls-1" d="M48.65,67.1c-.08-.08.14-.03.17-.04,0,.06-.18-.04-.17.04Z"/>
      <polygon class="cls-1" points="48.77 64.19 48.76 64.21 48.5 64.07 48.77 64.19"/>
    </g>
  </g>
  <g>
    <path class="cls-1" d="M47.46,18.74c.04-.17-.25-.09-.03-.16.08.09.13.17.03.16Z"/>
    <path class="cls-1" d="M47.13,18.97c.91-.06.71.96,1.44,1.12.07.03-.35.23-.18.29.84.08.99,1.06.94,1.85l-.12.03c0,.15.41.08.43.23-.07.04-.12.02-.2.1.22-.09.22.15.4.11-.05.09-.22.18-.27.29l.27-.06c.68-.13.22.47.63.58-.06.02-.12.01-.16.06.54.25.73.83,1.08,1.26-.1.02-.27.06-.35.13.27-.08.42.04.51.16-.25.16.32.15.22.36h-.07c.33.03-.11.24.26.22l-.2.15c.41-.07-.15.24.08.27l.08-.03c.12.07-.06.17.03.24l-.04.02c.17.18-.02.35.29.27-.23.13-.17-.17-.5.03.28.28.39.62.46.97.08.35.11.7.16,1.05-.11.09-.16.14-.28.16.06.07.05.25.21.32,0-.02-.16.05-.18.08-.12.12.35.14.2.28-.08-.06-.19-.08-.31-.06.25.12.2.28.28.43-.05-.03-.08-.06-.18-.06.28.17-.07.27.11.42l-.18-.07c-.23.19.38.11.22.28-.05-.05-.12-.05-.2-.06.3.21.13.48.21.68-.02-.02-.07-.02-.07-.02,0,.2-.14.37-.04.62-.1.05-.41-.14-.42.06.36.1.02.37.46.39-.12.15-.35.36-.28.52-.1-.13-.45-.1-.43-.24h-.24c-.13-.06.08-.07-.1-.11,0,.07.05.31-.02.34.17.21.47.5.4.72-.08-.16-.39-.14-.41-.23.16.2.32.4.47.61-.02.07-.26-.14-.23,0,.09.05.11.12.17.19-.05,0-.08.33-.4.15-.14-.05,0-.15-.15-.15-.07.11.02.18-.05.3l-.04-.03c-.1.04-.04.3.19.34.05-.04-.19-.11-.05-.12.13.18.08.34,0,.46-.02-.08-.1-.13-.17-.21.11.32.06.55,0,.79.13.12-.18-.27-.09-.23-.36.03-.15.64-.56.56,0-.05.19.16.15.13-.11.08-.28-.11-.27.02-.11-.1-.04.11-.08.2.04.11-.07-.04-.02-.1,0,.17-.25.67-.6.68.07.08.08.4.01.42l-.11-.2c-.13-.08-.17.14-.29,0,.05.31.3-.5.27-.22-.15-.13,0,.44-.15.17-.09.08-.06.37-.33.29.06,0-.06-.34-.15-.26-.17.16,0,.13-.12.3l-.07.15c.08.21-.2.08-.03.27-.09-.16-.3.29-.38-.08l-.05-.3c-.07.07-.06.38-.1.55-.02-.02-.06-.07-.06-.12.07.46-.23.07-.3.49-.11-.03-.24.03-.36.06-.12-.08-.23-.16-.27-.34-.16.07-.34.17-.5-.03.05-.02.1,0,.13-.1-.08-.19-.13-.09-.25-.07.04-.05-.14-.38-.18-.58-.18.05-.24.29-.32.42.02-.24-.11-.24-.25-.24-.14,0-.32-.03-.26-.23.06-.03.3-.05.26-.22.15-.43-.38.13-.42-.15l-.18.32c.06-.22-.35-.01-.11-.29-.13.06-.1-.24-.31.05-.05-.43-.73-.38-.42-.98-.07.01-.11-.11-.22.03-.09.19.17-.03.1.09-.04-.02-.11.04-.15.07-.01-.13-.05-.2.23-.34.01-.3-.59.26-.69-.04.12-.09.14-.14.07-.18l-.29.04c-.07-.19.19-.3.38-.46-.09-.05-.15-.15-.32-.06l.18-.28c-.13.2-.17.03-.24.03h.08c.07-.08-.05-.13-.1-.15-.12.1-.1.23-.1.3-.12.03-.14-.05-.29-.03.21-.13.04-.23.02-.3-.01-.1-.24.04-.25.01.1-.07-.06-.14.13-.18.05,0-.07.13.05.11.05-.1.24-.22.04-.23-.15-.01-.39.28-.35.05.08,0,.16-.04.25-.05l.03-.21-.19.11s.06-.05.08-.07c-.22.08-.19-.18-.43-.08-.06-.06.05-.23.03-.31h.02c.07-.14-.07-.21-.25-.22l.05-.02c-.02-.05-.09-.15-.24-.16.1-.2.75-.39.44-.41-.05-.12-.45-.04-.56.07.05-.28-.39-.43-.15-.76-.1,0-.14.03-.22-.02-.02-.37-.43-.71-.06-1.08.11.09.22-.03.34-.06-.21-.05.18-.13-.16-.11-.2.04-.3.05-.35.17-.14-.2-.22-.54-.04-.67-.09.07-.15.03-.22-.01.32-.02.36-.18.25-.29h-.2s.2-.1.2-.1c-.06-.04-.41-.03-.23-.16.08-.01.15-.02.21-.05-.16-.11-.44-.29-.28-.43l.28-.11c-.03-.06-.21-.16-.29-.06.17-.23.19-.38.43-.44-.56-.41-.5-1.02-.39-1.47l.14.04c.15-.1-.24-.11-.13-.18.13.06.31-.04.47.09.18-.14-.22-.27-.26-.4-.19-.06.11.12-.13.04-.07-.04.19-.21-.08-.3.12-.02.32.06.43.11l-.11-.13c.37-.04.51.41.96.38l-.02-.1c.32-.01.27.3.43.11-.11-.12-.5-.3-.65-.25-.02-.22-.65-.26-.56-.48.18-.02-.01.19.23.21.26-.05-.06-.24.04-.31-.14.07-.39-.09-.42-.17.17-.08.24.15.32,0-.15-.07-.23-.26-.38-.16-.35-.17.15-.14-.1-.32.27.03.54.35.72.21-.26-.05-.27-.32-.66-.35.09-.05.29,0,.42.11.18-.05-.37-.39.12-.26l-.24-.12c.09,0,.17-.03.32-.03.03-.08-.25-.41.12-.26-.04-.05.07-.22-.22-.25-.21.06.13.21-.24.15.31.01.03-.19-.04-.3l.15.04c-.04-.06.04-.14-.11-.23.07.06.17.09.22.07l-.2-.13c-.03-.21.4.12.41-.07l.11.19s.2-.01.17-.11c-.18-.11-.4-.27-.54-.36-.04-.13.24.05.08-.12l.18.22c.06.04.36.06.41-.06-.03-.1-.26-.35-.42-.28.03-.06.18-.09.3.02,0-.17-.22-.08-.28-.25.15,0,.41-.06.63-.06l.27.27.04-.08c.21.22.22.04.47.23.07-.03,0-.14-.04-.23-.51-.05-.51-.47-.93-.62,0-.28,1.02.35.51-.2-.12-.02-.37-.28-.32-.08.11-.11-.35-.3-.11-.38.09.2.47.09.6.38-.12-.08-.14.04-.12.09.18.02.39.22.45.08,0-.1.07-.21-.15-.3-.22-.12-.05.13-.24-.04.02-.2.37-.04.02-.32-.03.12-.27.02-.42-.07l-.02-.17.13.1c.22-.13-.23-.2-.08-.37l.34.08c.22.18-.27.2.16.4.09-.11-.1-.26.08-.31.02.04,0,.08.03.13.04-.04.6.23.39-.11-.07-.16-.13-.11-.28-.2.07-.22-.05-.36,0-.5.28.2.16-.2.37.12-.21-.04-.36.24-.12.47.39.14-.14.12.19.36.1-.14.44.06.67.17.04-.03-.03-.12-.05-.17-.2-.14-.23-.09-.45-.21.16-.13.13-.36-.01-.57.14,0,.33.15.31.23.06-.23.21-.43.39-.57-.41-.1.05-.26-.28-.36-.14.05-.43-.02-.54-.17.06-.05.15.1.23.12-.13-.2.37.07.13-.2,0,.25.38.3.63.51-.07-.22.18.13.26,0-.07-.23-.08-.45-.03-.62.37,0,.32-.42.42-.57.19.02.43.27.55.23.07-.1-.36-.15-.12-.2l.05.06c-.03-.09.39-.12.02-.47l.27.27s0-.08-.02-.13c.1.07.21.11.25.2.28.07.1-.21.17-.31l-.23-.08c-.02-.27.24-.25.3-.46l.17.14-.03-.18c.15.16.32.16.22,0l.24.58c-.15-.01-.16-.24-.36-.33-.18-.08-.24.1-.09.26.06-.04.03-.07,0-.17.26.17.18.25.32.42.01-.04.12-.02.04-.09.08.15.05.22-.01.32-.05-.14-.18-.08-.23-.16.21.17.21.31.06.38-.31-.1,0,.34-.17.42-.18-.22-.31-.42-.33-.57-.18,0-.07.1-.24.1.13.16.37.38.38.56l-.17-.11c0,.16.25.34.11.43-.24.16-.42.38-.56.54l-.17-.11c.3.34-.07.42.01.66-.3.12-.13.59-.5.52-.11.48-.19.89-.49,1.27l-.23-.21c.15.18-.17-.03-.17.07.25.02.22.25.36.38-.29.09-.18.45-.07.7l-.19-.08c.27.33-.13.39-.28.58-.09,0-.28-.04-.29.03.25.24.2.29.32.53-.05.12-.18.3-.34.39.31.62-.16,1.01.01,1.56h-.24c.45.55-.13,1.05.12,1.47l-.41-.06c-.12.12.12.29.4.26-.12.12.21.3-.13.39-.07.13.19.15.25.24-.16.26-.11.35.02.56v-.06c-.08-.01-.25.01-.27.07.13.07-.04.34.42.16-.21.3.3.5.03.81.12-.06.17-.01.26-.02.08.18-.09.49.17.56-.05.06-.22.04-.21.13.06.03.16-.07.25-.04.36.18.11.71.32.97.27.16.48.35.65.58.19.21.38.42.58.6l-.07.07c.38-.15.09.57.56.24-.03.1.1.14-.04.27.14-.05.18.05.24.16.03.05.07.11.11.13.02.01.06,0,.11-.06,0-.01-.01,0-.04.04-.03.24.14,0,.15.23-.02.04-.04.06-.07.16,0,.22.15-.39.1.12.02,0,.04-.25.03-.24.03.05.06.09.09.11.08-.02.16-.12.21-.22.07-.11.03-.18.14-.31.47.01.49.63.52.17.07.06-.1-.15-.03-.08,0-.18.47.29.38.05-.21-.2-.06-.16-.17-.3.3,0,.52.16.51-.13l.09.12c-.14-.47.2-.49-.04-.95.7-.91.91-1.95,1.1-2.9.07-.24.12-.48.17-.72v-.76c.06-.5-.1-1.03-.02-1.6.37-.34.34-.37.09-.62.07,0,.09.01.14-.02-.32.07-.09-.2-.4-.14-.08-.43-.24-.78-.41-1.2.06.05.33,0,.27-.08h-.23s.08-.05.08-.05c-.07-.04-.25-.03-.32.06-.37-.46-.52-1.01-.64-1.58-.19-.56-.38-1.13-.72-1.61-.04-.31-.32-.6-.58-.8-.19-.98-.42-1.88-1.23-2.44,0,0,.73-.44,1.12-.24Z"/>
    <path class="cls-1" d="M47.37,18.91c-.15-.08-.29-.04-.4-.25.13.09.3.15.4.25Z"/>
    <path class="cls-1" d="M44.21,20.35s-.08,0-.11,0c.01-.04-.09-.15,0-.13,0,.04.06.08.11.13Z"/>
    <path class="cls-1" d="M43.71,20.99c-.12-.09-.13-.3-.09-.4l.09.4Z"/>
    <path class="cls-1" d="M42.8,21.33c-.14,0-.19-.05-.14-.13.07.03.09.08.14.13Z"/>
    <path class="cls-1" d="M43.06,21.54c-.03.06-.12.04-.21.02.11.06,0-.17.21-.02Z"/>
    <path class="cls-1" d="M41.89,22.82s.07.18-.1.14c.12.01-.08-.26.1-.14Z"/>
    <path class="cls-1" d="M41.76,23.63s-.05.02-.02.06c-.08.02-.16-.07-.15-.11l.18.05Z"/>
    <polygon class="cls-1" points="45.04 36.99 44.93 36.99 45.03 36.88 45.04 36.99"/>
    <path class="cls-1" d="M51.14,35.09c-.02-.13.14.04.17.04-.04.07-.12-.14-.17-.04Z"/>
    <polygon class="cls-1" points="52.11 31.79 52.1 31.82 51.82 31.72 52.11 31.79"/>
  </g>
  <g>
    <g>
      <path class="cls-1" d="M33.56,45.4c-.09-.15-.24.11-.13-.09.12,0,.21.03.13.09Z"/>
      <path class="cls-1" d="M33.49,45.79c.61-.68,1.18.18,1.81-.22.07-.02-.09.41.08.33.65-.54,1.45.05,1.97.64l-.07.1c.1.11.35-.23.46-.14-.02.08-.07.1-.07.21.09-.22.26-.05.36-.2.03.1-.03.28,0,.4l.15-.24c.39-.57.49.17.86-.03-.03.05-.08.09-.07.16.56-.2,1.1.07,1.65.13-.06.08-.14.23-.16.34.13-.25.32-.27.47-.25-.07.29.33-.12.41.1l-.04.05c.25-.21.08.24.34-.03l-.04.24c.24-.34.06.27.25.14l.04-.08c.14-.04.08.16.19.15l-.02.05c.24,0,.23.26.39-.01-.07.25-.24,0-.33.38.4,0,.71.16,1.01.36.3.19.57.42.86.63-.02.14-.02.21-.08.31.09,0,.22.14.37.07-.02-.01-.08.15-.07.19,0,.17.35-.15.34.06-.1.02-.19.08-.26.17.26-.09.34.06.5.1-.06.02-.1.02-.17.09.32-.07.14.24.37.22l-.18.08c-.03.29.34-.19.35.04-.07,0-.12.06-.18.09.36-.06.44.25.63.33-.03,0-.07.03-.07.03.14.14.16.36.41.47-.04.11-.39.19-.26.34.32-.18.28.24.6-.05.02.19,0,.5.17.56-.16-.02-.39.25-.47.13l-.17.18c-.15.04,0-.12-.16-.01.04.05.26.18.23.26.27.03.69.02.8.23-.17-.06-.38.17-.46.12.25.03.51.06.76.1.04.07-.28.09-.16.17.09-.03.16,0,.25.02-.03.04.17.29-.18.39-.13.06-.11-.1-.21,0,.03.13.15.11.17.25h-.05c-.04.11.19.25.37.12,0-.07-.21.06-.12-.05.22.03.3.19.32.33-.07-.04-.16-.02-.27-.03.31.15.43.35.56.56.17,0-.31-.06-.23-.1-.23.28.35.56,0,.79-.03-.04.25-.02.2-.02-.02.13-.27.12-.18.21-.15,0,.05.11.09.2.1.05-.07.02-.08-.06.12.12.3.65.06.91.1,0,.33.22.31.29l-.22-.06c-.15.04-.02.22-.21.2.25.18-.14-.56.04-.35-.2.02.32.31.01.23-.01.12.22.31-.03.44.04-.04-.29-.2-.29-.07,0,.23.1.09.13.3l.06.15c.21.09-.09.2.17.21-.18-.05,0,.42-.32.21l-.25-.17c0,.1.23.31.32.47-.03,0-.09,0-.12-.04.38.28-.11.21.13.56-.1.06-.15.19-.21.3-.14.03-.28.05-.43-.05-.06.16-.12.36-.38.34.02-.05.06-.07.02-.16-.19-.08-.15.03-.23.12-.01-.06-.37-.17-.54-.28-.1.16.03.38.07.52-.15-.18-.24-.09-.35,0-.1.09-.25.2-.34.02.02-.07.18-.25.03-.34-.19-.41-.18.36-.4.19l.1.35c-.11-.2-.26.24-.29-.13-.05.14-.24-.1-.18.25-.34-.26-.78.25-.99-.4-.04.06-.16,0-.13.18.08.2.11-.14.13,0-.04.01-.05.11-.05.16-.1-.08-.18-.11-.08-.4-.21-.22-.23.6-.52.46.02-.15,0-.2-.08-.18l-.18.23c-.18-.08-.07-.35-.06-.6-.1.03-.21,0-.28.18l-.08-.33c.05.24-.1.14-.15.19l.05-.06c0-.11-.12-.06-.18-.03-.01.15.09.23.15.28-.06.1-.14.07-.22.19.06-.24-.13-.19-.2-.23-.08-.06-.14.2-.17.19.02-.13-.14-.06-.04-.21.04-.03.04.14.11.04-.04-.1.01-.32-.14-.19-.11.09-.08.48-.22.28.06-.05.09-.14.14-.22l-.13-.17-.06.21c0-.06.01-.08,0-.11-.1.22-.26,0-.36.25-.09,0-.13-.2-.2-.24h.02c-.06-.17-.2-.12-.33,0l.02-.04s-.17-.04-.28.05c-.07-.21.26-.8.02-.6-.12-.05-.35.29-.35.45-.17-.24-.58-.03-.64-.43-.07.06-.08.12-.17.14-.28-.25-.81-.2-.81-.72.14-.02.13-.18.2-.29-.18.12.04-.22-.19.04-.11.17-.17.24-.13.37-.24-.04-.54-.22-.5-.45-.01.11-.09.13-.16.14.21-.24.13-.38-.03-.38l-.14.14.07-.21c-.07.02-.31.27-.27.05.05-.06.09-.12.11-.18-.2.03-.52.1-.5-.11l.12-.28c-.06-.02-.26.03-.24.16-.05-.28-.14-.4,0-.61-.69.1-1.07-.37-1.31-.76l.13-.07c.04-.18-.25.09-.22-.03.14-.05.19-.25.39-.27.03-.22-.34-.04-.47-.09-.17.09.16,0-.06.12-.08.02-.02-.28-.27-.15.08-.1.27-.18.38-.22l-.17-.02c.23-.29.65-.07.94-.41l-.08-.06c.22-.24.4.02.39-.23-.17,0-.57.14-.63.28-.17-.14-.64.27-.73.06.12-.14.12.14.31-.02.15-.21-.22-.13-.19-.25-.04.15-.34.22-.42.18.06-.17.28-.07.22-.23-.16.06-.34-.02-.38.16-.36.13,0-.21-.3-.15.21-.17.63-.14.66-.36-.21.15-.42-.04-.71.22.03-.1.21-.2.37-.22.09-.16-.54-.01-.1-.27l-.25.08c.06-.07.1-.14.2-.25-.04-.08-.46-.11-.1-.27-.06,0-.11-.21-.33-.02-.11.19.24.05-.06.27.23-.21-.12-.15-.24-.19l.14-.07c-.07-.02-.08-.13-.24-.09.09,0,.18-.06.2-.11l-.23.05c-.17-.13.36-.2.24-.34l.21.05s.13-.15.04-.2c-.21.05-.47.09-.63.13-.12-.06.21-.13-.03-.14l.28.02c.07,0,.3-.21.25-.33-.1-.05-.43-.06-.49.1-.03-.06.06-.2.23-.2-.12-.11-.21.1-.38.02.11-.1.25-.33.41-.49h.38s-.03-.08-.03-.08c.31,0,.19-.13.49-.17.02-.07-.1-.1-.19-.13-.4.32-.69.03-1.1.22-.2-.2.97-.48.22-.5-.1.07-.46.06-.28.17,0-.16-.46.03-.34-.19.21.07.39-.27.69-.16-.14.03-.07.13-.02.15.14-.11.43-.12.38-.26-.06-.08-.1-.19-.32-.11-.24.08.06.13-.2.14-.13-.15.23-.29-.22-.24.06.1-.18.21-.35.25l-.13-.1.17-.02c.06-.25-.31.02-.32-.2l.3-.19c.29-.03-.05.34.39.17-.01-.14-.25-.12-.17-.28.05.02.07.05.11.07,0-.05.59-.26.19-.35-.16-.06-.17.02-.34.06-.1-.2-.29-.22-.35-.35.34-.05-.03-.25.35-.18-.18.12-.08.42.25.42.37-.18-.01.18.39.12-.03-.17.35-.26.6-.36,0-.05-.11-.07-.16-.08-.24.04-.22.1-.47.17.02-.2-.16-.35-.41-.4.1-.09.34-.13.39-.06-.12-.2-.15-.45-.13-.68-.36.22-.15-.22-.45-.06-.06.13-.31.29-.5.27,0-.08.17-.03.25-.08-.24-.05.31-.21-.05-.23.18.18.49-.06.8-.08-.21-.11.22-.04.18-.18-.21-.11-.37-.26-.46-.42.26-.26-.07-.52-.11-.7.14-.12.5-.11.55-.22-.02-.12-.36.15-.23-.06h.07c-.09-.04.19-.36-.32-.34h.39s-.06-.06-.11-.08c.12-.02.23-.07.32-.03.25-.15-.07-.22-.1-.34l-.21.11c-.21-.18,0-.35-.11-.54l.22-.02-.15-.1c.22,0,.34-.12.15-.16l.58.24c-.12.1-.28-.06-.49.02-.18.07-.1.24.12.25.01-.07-.03-.07-.12-.11.3-.06.31.05.52.07-.02-.03.07-.1-.03-.09.16.05.19.12.22.24-.13-.06-.18.07-.27.05.27-.03.37.07.32.23-.3.15.24.24.18.42-.28-.03-.51-.08-.64-.17-.12.13.02.12-.1.25.21.02.53,0,.67.13l-.2.04c.12.11.42.06.38.23-.06.29-.02.57-.01.78l-.2.05c.45.03.25.34.47.45-.13.3.32.51.02.72.27.42.5.77.55,1.25h-.31c.23.03-.14.11-.07.18.19-.16.33.02.53.02-.14.27.19.45.45.54l-.19.08c.42.04.19.37.21.61-.07.06-.23.17-.18.23.35,0,.35.06.6.15.05.12.09.34.04.51.65.22.6.82,1.11,1.09l-.18.16c.71.08.67.84,1.14.96l-.33.25c0,.17.29.13.47-.1,0,.17.36.06.18.36.04.14.24-.03.35,0,.07.3.17.33.41.39l-.03-.05c-.07.06-.18.2-.15.25.14-.04.21.27.41-.18.06.36.56.14.6.55.04-.13.11-.13.17-.2.19.07.28.41.52.27,0,.08-.13.19-.06.24.06-.03.06-.16.14-.21.38-.12.58.42.91.46.3-.08.59-.09.87-.05.28.02.57.02.84.01v.1c.15-.37.46.34.56-.23.05.09.17.03.16.22.06-.13.17-.09.28-.06.06.02.13.03.17.02.02,0,.04-.04.03-.12,0,0,0,.01,0,.05.15.19.1-.1.27.06.02.04.02.07.07.16.16.15-.17-.39.16.02.02-.01-.15-.21-.15-.19.05.02.1.02.14.01.04-.07.03-.2,0-.31-.03-.13-.11-.15-.12-.32.34-.32.79.1.49-.25.09-.01-.18-.04-.08-.03-.12-.13.54-.12.3-.24-.29,0-.16-.07-.33-.09.2-.21.48-.26.26-.45l.15.02c-.43-.23-.21-.48-.7-.64-.14-1.14-.73-2.02-1.27-2.83-.12-.21-.25-.42-.38-.63l-.54-.54c-.31-.39-.8-.66-1.14-1.12.02-.5-.02-.5-.37-.5.04-.05.07-.05.08-.12-.18.27-.21-.07-.39.18-.36-.25-.72-.38-1.14-.56.08,0,.23-.24.14-.25l-.17.16.02-.09c-.08.02-.2.15-.18.27-.59-.07-1.08-.35-1.57-.66-.53-.26-1.07-.53-1.65-.63-.25-.19-.65-.2-.97-.16-.82-.56-1.63-1.03-2.6-.86,0,0,.21-.83.63-.96Z"/>
      <path class="cls-1" d="M33.62,45.58c-.16.05-.23.17-.46.11.15-.03.31-.1.46-.11Z"/>
      <path class="cls-1" d="M32.4,48.84s-.05.06-.08.07c-.02-.04-.17-.04-.09-.09.02.04.1.01.17.02Z"/>
      <path class="cls-1" d="M32.5,49.64c-.15.02-.3-.12-.34-.22l.34.22Z"/>
      <path class="cls-1" d="M32.1,50.52c-.1.1-.17.1-.19,0,.07-.03.12,0,.19,0Z"/>
      <path class="cls-1" d="M32.43,50.49c.02.06-.06.11-.13.17.12-.04-.11-.12.13-.17Z"/>
      <path class="cls-1" d="M32.5,52.22s.17.08.03.17c.09-.08-.24-.13-.03-.17Z"/>
      <path class="cls-1" d="M32.99,52.89s-.02.05.03.06c-.05.07-.16.06-.19.03l.16-.09Z"/>
      <polygon class="cls-1" points="44.75 60.01 44.68 60.09 44.67 59.95 44.75 60.01"/>
      <path class="cls-1" d="M47.73,54.36c-.1-.08.13-.08.15-.09.02.08-.18,0-.15.09Z"/>
      <polygon class="cls-1" points="46.08 51.34 46.09 51.36 45.82 51.49 46.08 51.34"/>
    </g>
    <g>
      <path class="cls-1" d="M61.73,45.51c-.04-.17-.27.06-.1-.12.11.03.2.07.1.12Z"/>
      <path class="cls-1" d="M60.63,45.05c-.42.83-1.2.16-1.69.73-.06.04-.05-.41-.19-.29-.45.63-1.33.51-2.11.23v-.12c-.14-.05-.19.36-.34.34-.02-.08.01-.12-.04-.21.03.24-.21.16-.22.35-.08-.08-.12-.26-.22-.34v.28c-.03.65-.53.09-.7.52,0-.06,0-.12-.04-.17-.32.53-.89.67-1.33.98-.02-.09-.07-.26-.14-.35.09.27-.04.39-.14.5-.18-.23-.1.35-.31.28l-.02-.06c.03.33-.24-.07-.16.3l-.17-.17c.15.39-.25-.11-.24.13l.04.07c-.03.13-.18-.03-.22.08l-.03-.04c-.12.19-.35.05-.18.32-.2-.19.11-.19-.18-.46-.23.29-.46.55-.71.78-.26.23-.54.42-.8.62-.15-.05-.2-.04-.3-.12,0,.1-.14.23-.07.39.01-.02-.14-.09-.18-.07-.17,0,.16.35-.04.34-.03-.1-.09-.18-.19-.25.1.26-.03.34-.07.49-.03-.05-.03-.1-.11-.16.11.29-.24.16-.19.37l-.11-.15c-.32.02.26.29.05.35-.02-.07-.09-.1-.14-.16.17.35-.06.5-.06.71-.02-.02-.06-.05-.06-.05-.06.17-.26.28-.24.52-.11.02-.39-.25-.42-.03.33.17,0,.37.42.45-.12.12-.35.3-.28.44-.1-.12-.45-.1-.43-.24h-.25c-.13-.06.09-.07-.1-.11-.02.07.03.32-.05.36.16.2.54.45.53.66-.11-.13-.41-.06-.45-.15.2.16.4.32.61.47,0,.07-.29-.06-.22.06.1.02.14.07.21.12-.05.02.02.27-.35.23-.15,0-.05-.12-.19-.07-.02.12.11.15.09.28h-.05c-.06.07.12.26.33.2.02-.05-.22-.01-.1-.08.2.09.24.23.23.35-.05-.05-.15-.05-.25-.08.27.2.33.36.44.54.17.01-.32-.08-.22-.1-.25.22.34.48-.02.66-.03-.03.25-.02.2-.02-.02.11-.27.11-.18.18-.15.01.04.09.09.16.11.03-.07.02-.09-.04.14.1.4.48.2.73.09-.02.37.09.37.14h-.23c-.13.08.05.19-.14.23.29.07-.31-.4-.07-.28-.18.07.4.16.08.17.03.12.3.16.1.25.03-.02-.32.01-.29.07.06.1.11,0,.2.07l.1.02c.21-.08,0,.09.22-.04-.17.09.13.06-.21.23l-.27.13s.3-.08.42-.13c-.02.02-.07.06-.12.09.4-.26,0,.12.31-.07-.06.08-.04.13-.05.18.02.03.03.07-.05.2.16-.09.3-.22.31-.12-.04.03-.06.04-.12.13-.03.13.05.03.13-.03-.05.06-.04.26-.04.43.13-.11.19-.34.25-.48-.05.22.02.16.08.09.07-.06.1-.14.14.07-.06.05-.16.19-.12.31.02.45.25-.29.37-.05v-.37c.05.24.26-.19.2.18.07-.13.17.14.19-.22.23.33.6-.13.75.5.04-.06.13,0,.11-.18-.06-.2-.09.14-.11,0,.03-.01.04-.11.04-.16.08.08.14.11.07.4.19.22.17-.61.39-.47,0,.15.02.2.08.18l.1-.27c.14.04.11.32.13.57.08-.05.17-.05.19-.24l.13.3c-.1-.22.05-.16.07-.22l-.03.07c.03.1.11.03.15-.01-.04-.15-.14-.2-.19-.24.02-.11.09-.1.12-.23.02.24.15.16.22.17.08.04.04-.22.06-.22.03.12.11,0,.1.18-.02.05-.08-.11-.09.01.06.08.1.3.16.12.04-.14-.12-.47.04-.35-.02.07,0,.17-.01.26l.15.09-.05-.22c.03.05.02.07.04.1-.02-.24.17-.12.13-.38.05-.04.17.11.23.12v.02c.1.11.18,0,.19-.16v.05c.06.01.13-.06.13-.2.15.12.33.77.34.46.1-.05,0-.45-.1-.56.23.06.26-.35.56-.1-.02-.09-.06-.13-.03-.2.28-.05.31-.53.74-.27-.01.12.12.19.2.29-.06-.2.19.12.01-.17-.12-.16-.17-.24-.28-.27.07-.18.27-.29.45-.21-.09-.04-.1-.11-.12-.18.19.26.31.21.3.06l-.12-.16.17.11c-.02-.07-.24-.33-.06-.25.05.05.11.11.16.14-.04-.18-.14-.47.05-.41l.26.15c.01-.05-.06-.22-.17-.23.25,0,.34-.06.57.07-.26-.65-.04-.99.2-1.24l.11.09c.17,0-.18-.18-.06-.18.1.1.29.11.39.27.21-.02-.1-.28-.11-.39-.15-.11.06.12-.13-.02-.05-.04.23-.07,0-.25.11.03.28.17.37.25l-.08-.15c.34.08.4.54.81.66v-.1c.3.09.18.38.38.25-.08-.16-.4-.45-.55-.44.02-.21-.55-.44-.44-.59.17.04-.04.16.19.25.25.04-.03-.23.08-.26-.14.03-.36-.19-.38-.26.16-.02.21.19.3.08-.14-.1-.19-.27-.34-.23-.31-.23.16-.07-.07-.28.26.08.48.42.67.34-.24-.1-.22-.33-.6-.43.09-.02.28.07.4.18.18,0-.32-.39.15-.19l-.22-.14c.09,0,.17.02.31.03.04-.07-.21-.36.15-.19-.02-.03.05-.2-.22-.24-.19.03.14.2-.23.09.32.07.03-.15-.04-.25l.14.05c-.04-.06.02-.12-.13-.21.07.06.17.09.22.08l-.2-.13c-.06-.18.39.13.38-.04l.13.17s.19,0,.15-.1c-.19-.11-.41-.25-.55-.34-.06-.11.24.06.06-.1l.2.19c.06.04.35.06.39-.04-.04-.09-.29-.31-.44-.24.02-.05.16-.08.29.02-.03-.14-.22-.07-.31-.21.15,0,.39-.05.61-.06l.3.23.03-.07c.23.19.22.03.49.18.06-.04-.01-.13-.07-.21-.51-.01-.56-.38-1-.48-.04-.23,1.07.21.49-.2-.12,0-.41-.2-.33-.04.09-.11-.39-.21-.17-.3.15.16.46.01.67.25-.14-.05-.14.05-.11.09.18,0,.42.14.47.02-.02-.09,0-.21-.23-.26-.24-.07,0,.13-.24,0-.05-.18.33-.1-.08-.3,0,.11-.25.06-.41.01l-.07-.14.16.07c.16-.15-.28-.14-.19-.3h.34c.26.12-.19.23.27.33.05-.11-.17-.22-.03-.29.03.04.04.07.07.11.03-.04.63.08.32-.18-.11-.12-.15-.07-.32-.11,0-.2-.16-.3-.16-.43.32.11.08-.21.39.01-.21.02-.26.29.04.44.41.03-.09.14.29.28.05-.15.43-.04.69,0,.03-.04-.07-.11-.1-.15-.23-.08-.24-.02-.49-.08.11-.16.02-.36-.19-.51.13-.03.36.05.37.12-.02-.22.07-.44.19-.62-.42.04-.04-.24-.38-.22-.11.09-.41.11-.57.02.04-.06.17.04.26.03-.19-.13.37-.06.06-.21.08.21.47.13.77.23-.14-.17.22.05.25-.09-.13-.17-.24-.37-.29-.54.32-.14.08-.5.09-.67.17-.07.51.05.58-.04,0-.12-.39.03-.2-.12l.07.03c-.07-.06.28-.29-.21-.41l.37.11s-.04-.07-.08-.1c.12.02.24,0,.31.06.28-.07,0-.23,0-.35l-.24.05c-.15-.22.09-.33.04-.53l.22.03-.12-.13c.21.05.36-.04.19-.12l.5.37c-.14.07-.25-.13-.48-.1-.2.02-.16.21.05.27.03-.07-.01-.08-.09-.14.31.02.28.12.48.2,0-.04.09-.08,0-.1.14.09.15.17.14.29-.11-.1-.2.02-.28-.02.27.05.33.17.24.31-.33.06.16.31.05.47-.26-.11-.47-.24-.56-.36-.15.09,0,.12-.16.21.2.08.5.17.6.33l-.2-.02c.08.14.38.19.3.35-.14.27-.18.55-.24.76l-.2-.03c.4.2.06.42.21.62-.26.23.04.64-.33.69.03.51.08.98-.13,1.45l-.25-.17c.18.15-.18,0-.17.1.26-.03.25.21.4.33-.3.15-.16.5-.04.77l-.19-.06c.28.33-.12.45-.26.67-.09,0-.28-.03-.29.05.25.26.21.32.32.6-.06.14-.26.33-.45.41.13.72-.39,1.12-.49,1.79l-.23-.1c.04.78-.75,1.13-.92,1.68l-.26-.31c-.21.03-.19.33.04.51-.21.03-.17.44-.48.27-.17.06-.03.28-.1.43-.35.13-.42.23-.66.47l.08-.03c-.02-.09-.12-.23-.21-.21-.03.16-.43.16-.06.49-.45-.05-.58.69-1.09.49.09.11.02.17.02.26-.3.14-.7.03-.85.34-.07-.04,0-.24-.13-.2-.05.08.06.16,0,.27-.41.42-1.08.05-1.5.23-.38.19-.79.27-1.21.33-.41.04-.82,0-1.21.03v-.1c-.27.37-.56-.43-.81.12-.05-.1-.23-.07-.16-.25-.12.13-.25.04-.4-.04-.08-.04-.14-.08-.23-.09-.11-.02-.23,0-.36.05.04.02.07,0,.12-.03-.36-.28-.83-.14-1.18-.43.07-.02.16-.03.23-.11-.04-.2-.62.23-.42-.2-.09-.03-.22.17-.15.18-.14-.08-.28-.15-.44-.22-.12-.39-.31-.73-.47-1.12l-.27-.59c-.08-.18-.15-.47-.2-.59.19-.55.77-.15.37-.49.09-.04-.18,0-.08-.02-.15-.14.5-.29.25-.37-.28.07-.17-.05-.34-.04.16-.33.41-.39.18-.62h.15c-.43-.26-.2-.59-.69-.85-.02-1.63.2-3.35,1.03-4.86.25-.34.49-.69.72-1.03.26-.31.54-.61.82-.91.53-.65,1.22-1.04,1.93-1.44.52.1.53.1.79-.23.02.06,0,.09.06.13-.15-.29.23-.16.1-.45.53-.21.95-.57,1.48-.8-.07.06,0,.32.09.27l.02-.23.05.08c.05-.07.06-.25-.05-.32.62-.39,1.34-.55,2.04-.68.71-.06,1.4-.08,2.05-.28.34.07.76-.2,1.09-.3,1.09.28,2.02.51,3,.06,0,0-.05.86-.43,1.11Z"/>
      <path class="cls-1" d="M61.73,45.7c-.17.02-.27.12-.48,0,.15,0,.33-.03.48,0Z"/>
      <path class="cls-1" d="M59.62,48.4s-.07.03-.1.03c0-.04-.13-.1-.04-.11,0,.04.08.05.14.08Z"/>
      <path class="cls-1" d="M59.35,49.09c-.14-.04-.22-.22-.21-.31l.21.31Z"/>
      <path class="cls-1" d="M58.61,49.6c-.13.02-.19,0-.17-.08.08.01.11.05.17.08Z"/>
      <path class="cls-1" d="M58.92,49.73c-.01.06-.1.06-.19.06.12.03-.05-.15.19-.06Z"/>
      <path class="cls-1" d="M58.1,50.98s.09.14-.08.12c.12,0-.12-.21.08-.12Z"/>
      <path class="cls-1" d="M58.08,51.67s-.04.01-.01.05c-.08.01-.16-.07-.16-.1l.18.05Z"/>
      <polygon class="cls-1" points="49.8 57.84 49.88 57.78 49.85 57.92 49.8 57.84"/>
      <path class="cls-1" d="M48.65,54.59c-.08-.08.14-.03.17-.04,0,.06-.18-.04-.17.04Z"/>
      <polygon class="cls-1" points="48.77 51.68 48.76 51.7 48.5 51.56 48.77 51.68"/>
    </g>
  </g>
  <g>
    <g>
      <path class="cls-1" d="M35.87,32.33c-.06-.16-.26.07-.11-.11.12.03.21.07.11.11Z"/>
      <path class="cls-1" d="M35.73,32.71c.71-.57,1.13.37,1.82.08.07-.01-.15.39.02.34.73-.42,1.42.29,1.84.96l-.08.09c.08.13.38-.17.48-.07-.03.07-.09.08-.1.19.13-.2.27,0,.39-.14,0,.1-.08.27-.06.39l.19-.21c.48-.5.45.25.85.11-.04.05-.09.08-.1.14.59-.11,1.07.25,1.61.4-.07.07-.18.21-.21.31.17-.22.36-.21.51-.17-.11.28.35-.07.39.17l-.05.04c.28-.17.04.25.34.02l-.07.23c.29-.29.01.28.22.18l.05-.07c.14-.02.05.17.17.18l-.02.04c.24.05.19.3.39.05-.11.24-.24-.04-.39.32.39.07.68.28.94.52.26.24.5.51.74.76-.04.14-.05.21-.14.29.09.02.19.18.36.13-.02-.02-.11.13-.1.17-.03.17.37-.09.33.11-.1,0-.2.04-.29.13.27-.04.33.11.48.19-.06.01-.1,0-.19.06.33-.02.1.26.33.28l-.19.05c-.08.29.37-.13.34.1-.07-.01-.13.03-.2.06.37,0,.39.32.56.43-.03,0-.07.02-.07.02.12.16.1.38.33.53-.05.1-.42.12-.31.29.35-.12.23.28.6.05-.01.19-.08.5.07.58-.16-.04-.42.18-.49.05l-.19.15c-.15.02.02-.11-.15-.04.03.06.22.22.18.29.26.08.67.14.75.35-.15-.08-.4.11-.47.05.24.07.49.14.74.23.02.07-.29.04-.18.14.1-.01.16.03.24.06-.04.03.12.31-.24.36-.14.04-.09-.12-.21-.03,0,.13.13.14.13.27h-.05c-.06.09.15.27.35.17.01-.06-.22.02-.11-.07.21.07.26.23.26.38-.06-.05-.15-.05-.26-.07.28.2.37.42.46.64.17.02-.3-.11-.21-.13-.27.24.25.61-.13.78-.02-.04.25.02.2.02-.04.13-.29.07-.21.18-.15-.02.03.12.05.21.09.07-.08,0-.07-.07.09.14.19.69-.09.9.1.02.29.28.26.34l-.21-.1c-.15.01-.05.22-.24.16.22.22-.05-.58.09-.33-.2-.01.26.36-.02.23-.03.12.16.34-.1.43.05-.03-.25-.25-.28-.12-.04.23.08.1.08.32l.03.16c.19.12-.12.19.13.23-.17-.08-.07.41-.35.16l-.22-.21c-.02.1.18.34.24.51-.03,0-.08-.02-.12-.06.33.34-.15.19.04.57-.11.04-.18.16-.26.26-.15,0-.28,0-.41-.12-.09.15-.18.34-.43.27.02-.04.07-.06.04-.16-.18-.11-.15,0-.24.09,0-.07-.33-.22-.49-.37-.12.15-.03.38-.01.52-.12-.21-.22-.13-.35-.05-.11.08-.28.16-.34-.04.04-.06.22-.22.08-.33-.12-.44-.24.33-.43.12l.04.36c-.08-.22-.3.19-.26-.17-.07.13-.22-.14-.22.22-.29-.32-.81.12-.91-.56-.05.05-.15-.03-.16.16.04.21.13-.12.13.02-.04,0-.07.1-.08.15-.09-.1-.16-.14-.01-.41-.17-.25-.33.55-.59.37.04-.14.04-.2-.05-.19l-.21.2c-.17-.11-.02-.35.04-.6-.1.01-.21-.03-.3.14l-.02-.33c.01.24-.12.12-.18.17l.06-.05c.01-.11-.11-.07-.17-.06-.04.15.05.24.1.3-.08.09-.15.04-.25.15.1-.23-.1-.21-.16-.26-.07-.08-.17.18-.19.16.04-.12-.13-.08,0-.22.04-.03.02.15.11.06-.02-.11.06-.32-.1-.21-.13.07-.16.46-.26.24.07-.04.11-.12.18-.19l-.1-.18-.09.2c0-.06.02-.07.03-.1-.14.2-.26-.04-.4.19-.09-.02-.1-.21-.16-.27h.02c-.03-.17-.18-.15-.33-.05l.03-.04s-.17-.07-.29,0c-.03-.22.39-.75.12-.59-.11-.06-.39.23-.42.38-.12-.26-.57-.12-.56-.53-.08.05-.1.11-.19.11-.23-.29-.76-.33-.68-.84.14,0,.16-.16.25-.25-.2.08.07-.22-.19,0-.14.15-.21.21-.19.34-.23-.08-.49-.31-.42-.53-.03.11-.11.11-.18.12.25-.2.19-.36.03-.38l-.16.11.11-.19c-.08,0-.35.22-.28,0,.06-.05.11-.11.14-.16-.2,0-.53.02-.48-.19l.17-.26c-.06-.03-.26,0-.27.12,0-.29-.07-.42.1-.61-.7-.01-.99-.54-1.17-.97l.14-.05c.07-.17-.26.05-.21-.07.14-.02.23-.21.43-.2.06-.22-.33-.09-.45-.17-.18.06.15.03-.08.11-.08.01.03-.28-.24-.19.09-.09.3-.13.42-.16l-.16-.05c.27-.24.65.04,1-.25l-.07-.07c.25-.2.39.09.42-.16-.16-.03-.58.04-.67.17-.14-.17-.68.16-.73-.07.14-.12.1.16.31.03.18-.19-.19-.16-.15-.28-.07.14-.37.16-.45.11.09-.16.28-.02.26-.19-.17.03-.34-.08-.4.09-.38.07.04-.2-.27-.2.24-.14.64-.03.71-.25-.24.11-.41-.11-.74.1.05-.09.24-.16.41-.16.12-.14-.53-.1-.05-.28l-.26.04c.07-.06.12-.12.24-.21-.02-.09-.44-.19-.05-.28-.06-.02-.07-.22-.33-.08-.14.17.23.09-.11.26.26-.17-.09-.17-.2-.22l.15-.05c-.07-.03-.05-.14-.22-.13.09.01.19-.03.22-.07h-.24c-.15-.14.39-.13.29-.29l.2.09s.16-.13.07-.19c-.22.02-.48.01-.64.02-.11-.08.23-.1,0-.15l.28.07c.07,0,.33-.16.3-.29-.09-.07-.42-.13-.51.02-.02-.07.09-.18.26-.16-.1-.13-.22.06-.38-.04.13-.08.3-.28.48-.41l.38.07v-.09c.29.06.19-.09.5-.09.04-.07-.08-.12-.17-.16-.44.25-.69-.08-1.12.04-.17-.23,1.03-.31.3-.46-.11.06-.46-.02-.31.12.02-.16-.46-.04-.31-.25.19.11.43-.2.71-.04-.15,0-.09.12-.04.14.16-.08.44-.05.41-.2-.05-.08-.07-.21-.29-.16-.25.04.04.14-.22.11-.1-.17.28-.25-.17-.27.04.11-.21.17-.39.19l-.12-.13h.17c.1-.23-.31-.02-.28-.24l.32-.13c.29.02-.1.32.36.23,0-.14-.23-.16-.12-.3.04.02.06.06.1.09.01-.05.62-.16.25-.32-.15-.09-.17-.01-.34,0-.07-.21-.25-.27-.29-.41.34,0,.01-.25.37-.12-.19.09-.15.41.18.45.39-.12-.04.18.37.18,0-.17.39-.2.65-.25.01-.05-.1-.08-.14-.11-.25,0-.24.06-.49.09.05-.2-.1-.37-.34-.46.12-.07.36-.07.39,0-.09-.22-.07-.47-.02-.69-.39.16-.11-.24-.44-.13-.08.12-.36.24-.54.18.02-.08.17,0,.26-.04-.22-.09.34-.16-.01-.24.14.21.49.02.8.05-.19-.14.22,0,.21-.15-.19-.14-.32-.32-.39-.49.3-.21.02-.52.01-.71.16-.1.51-.03.58-.13,0-.12-.38.09-.22-.09l.07.02c-.08-.06.25-.33-.26-.39l.38.06s-.05-.07-.09-.09c.12,0,.24-.03.32.02.27-.1-.04-.23-.04-.35l-.23.07c-.17-.21.06-.34-.02-.55l.22.02-.13-.13c.21.04.35-.06.18-.13l.54.33c-.13.08-.27-.1-.49-.06-.19.04-.14.22.08.26.03-.07-.02-.07-.1-.13.31-.01.29.1.5.16-.01-.04.08-.08-.01-.1.15.08.17.15.18.27-.12-.08-.19.04-.28,0,.27.02.35.13.27.28-.32.1.2.28.1.45-.27-.07-.49-.16-.6-.27-.14.11,0,.12-.14.23.2.06.52.1.64.24h-.2c.1.13.4.13.34.29-.1.27-.12.56-.14.76h-.2c.44.12.19.39.39.54-.17.27.24.56-.1.72.19.45.36.84.34,1.32l-.31-.04c.23.06-.16.08-.1.16.22-.13.33.07.52.1-.19.24.11.47.35.61l-.2.04c.41.11.12.39.11.64-.08.04-.25.13-.22.19.34.05.33.12.57.25.03.13.03.35-.05.51.61.32.46.91.91,1.26l-.2.13c.69.19.52.94.96,1.14l-.37.19c-.03.17.27.17.48-.02-.03.17.34.12.12.39.02.15.24,0,.34.05.02.3.11.35.34.45l-.02-.06c-.08.05-.21.16-.19.22.15-.02.16.3.43-.11,0,.36.53.23.5.64.06-.12.13-.11.2-.17.17.1.21.45.47.36,0,.08-.16.16-.1.23.07-.01.09-.15.18-.18.4-.06.5.51.82.6.31-.03.59.01.86.09.27.06.55.12.82.15l-.02.1c.22-.34.4.42.59-.13.04.1.16.06.12.24.08-.12.18-.06.29-.01.05.03.12.05.16.05.02,0,.04-.03.05-.12,0,0,0,.01-.01.05.12.22.11-.09.26.1,0,.04,0,.07.04.17.13.18-.1-.41.15.04.02,0-.11-.23-.11-.21.05.03.1.04.14.04.05-.06.06-.19.04-.3-.01-.13-.08-.16-.07-.33.39-.26.76.23.52-.17.09,0-.17-.07-.07-.05-.1-.15.55-.03.34-.18-.29-.04-.14-.1-.31-.14.24-.18.52-.17.33-.4l.15.04c-.39-.3-.12-.51-.59-.75.05-1.15-.39-2.12-.79-3-.08-.23-.18-.46-.27-.68l-.44-.62c-.24-.44-.68-.78-.94-1.29.1-.49.06-.49-.29-.55.05-.04.08-.04.1-.1-.22.24-.19-.11-.41.12-.31-.3-.65-.5-1.03-.74.08,0,.26-.2.17-.22l-.19.13.04-.08c-.08.01-.22.12-.23.23-.57-.16-1-.52-1.44-.91-.48-.34-.97-.7-1.52-.9-.21-.23-.6-.3-.93-.31-.72-.69-1.43-1.29-2.42-1.28,0,0,.34-.78.78-.85Z"/>
      <path class="cls-1" d="M35.89,32.52c-.16.02-.26.13-.47.03.15,0,.33-.05.47-.03Z"/>
      <path class="cls-1" d="M34.16,35.53s-.06.05-.09.06c-.01-.04-.16-.07-.07-.1.02.04.09.03.16.05Z"/>
      <path class="cls-1" d="M34.12,36.34c-.15,0-.27-.17-.3-.27l.3.27Z"/>
      <path class="cls-1" d="M33.57,37.14c-.12.08-.19.07-.19-.02.08-.01.12.01.19.02Z"/>
      <path class="cls-1" d="M33.91,37.16c0,.06-.08.1-.16.14.12-.01-.09-.14.16-.14Z"/>
      <path class="cls-1" d="M33.69,38.88s.16.11,0,.17c.1-.06-.22-.17,0-.17Z"/>
      <path class="cls-1" d="M34.06,39.62s-.03.04.02.06c-.06.06-.17.03-.19,0l.17-.06Z"/>
      <polygon class="cls-1" points="44.48 48.59 44.39 48.66 44.41 48.52 44.48 48.59"/>
      <path class="cls-1" d="M48.35,43.51c-.09-.09.14-.05.16-.07.01.08-.18-.04-.16.07Z"/>
      <polygon class="cls-1" points="47.23 40.26 47.24 40.29 46.95 40.37 47.23 40.26"/>
    </g>
    <g>
      <path class="cls-1" d="M59.42,32.26c-.07-.16-.25.1-.12-.1.12.01.21.04.12.1Z"/>
      <path class="cls-1" d="M58.27,31.99c-.28.89-1.16.36-1.55,1-.05.05-.12-.4-.23-.26-.34.7-1.23.72-2.04.57v-.12c-.16-.03-.15.39-.3.4-.03-.07,0-.12-.08-.2.07.23-.18.2-.16.38-.09-.06-.16-.23-.27-.3l.04.27c.08.65-.5.18-.61.63-.02-.06-.01-.12-.06-.16-.23.58-.77.81-1.15,1.19-.03-.09-.11-.25-.2-.32.13.25.03.39-.06.51-.21-.2-.04.36-.26.33l-.03-.06c.09.32-.24-.03-.1.32l-.2-.14c.21.36-.27-.06-.22.16l.05.06c-.01.14-.18,0-.2.11l-.04-.03c-.09.21-.33.11-.12.35-.22-.15.08-.21-.25-.42-.18.32-.36.62-.57.89-.21.26-.46.5-.69.75-.16-.03-.21,0-.31-.07.01.1-.1.25,0,.4,0-.02-.16-.06-.19-.04-.17.04.21.31.02.34-.04-.09-.12-.17-.22-.22.14.24.02.34.02.5-.03-.05-.04-.09-.13-.14.16.27-.21.2-.12.4l-.13-.13c-.32.07.3.24.11.34-.03-.07-.1-.09-.17-.13.23.31.02.51.06.71-.02-.02-.07-.04-.07-.04-.03.18-.21.32-.15.55-.1.04-.43-.18-.42.04.35.11.06.37.49.38-.1.13-.3.35-.2.48-.12-.1-.46-.02-.46-.16l-.25.06c-.14-.05.08-.1-.12-.11,0,.08.09.31.01.36.19.17.61.36.63.56-.13-.11-.41,0-.47-.07.23.13.45.25.68.36.01.07-.29-.01-.21.09.1,0,.15.05.23.08-.04.02.07.27-.3.29-.15.03-.07-.11-.2-.04,0,.13.13.13.14.26h-.05c-.05.09.17.24.36.15,0-.06-.22.03-.12-.06.21.05.28.19.29.31-.06-.04-.16-.03-.26-.04.3.15.38.31.52.46.17-.02-.33-.03-.23-.07-.21.26.41.41.09.65-.04-.03.24-.06.19-.05,0,.11-.25.15-.15.21-.14.04.06.08.12.14.11.01-.07.03-.1-.02.15.08.47.4.32.69.09-.03.38.03.39.08l-.22.05c-.11.09.08.16-.1.23.3.02-.37-.35-.12-.27-.17.1.42.09.11.16.05.11.32.11.14.23.03-.03-.31.06-.28.12.08.09.11-.01.21.03h.1c.2-.11,0,.09.21-.08-.15.12.14.03-.17.26l-.24.17s.28-.13.39-.2c-.02.02-.06.08-.1.11.35-.33.02.12.29-.12-.04.09-.02.14-.01.19.03.03.05.06-.01.2.15-.12.26-.27.28-.17-.03.04-.05.05-.1.14-.01.13.06.02.12-.05-.04.06,0,.26.04.43.11-.13.13-.37.16-.51-.02.22.05.15.1.08.06-.08.07-.16.15.04-.05.06-.13.21-.07.33.09.44.2-.32.36-.11l-.05-.36c.08.23.22-.22.22.15.04-.14.19.11.15-.25.28.28.58-.22.82.36.03-.07.13-.02.08-.2-.09-.18-.06.16-.1.03.03-.02.02-.11.02-.16.09.07.16.08.13.38.22.18.07-.63.31-.53.02.15.05.2.11.16l.06-.28c.15.02.16.3.23.54.07-.07.16-.08.14-.27l.18.27c-.13-.2.02-.16.04-.23l-.02.07c.05.1.11,0,.15-.04-.06-.14-.17-.18-.23-.2,0-.12.07-.11.08-.25.06.24.17.13.24.14.09.03,0-.23.02-.23.05.12.11-.03.12.16,0,.05-.09-.09-.09.03.08.07.15.28.18.09.02-.14-.19-.44-.02-.35,0,.07.02.16.03.26l.17.06-.08-.21s.03.07.05.09c-.06-.23.15-.15.06-.4.05-.05.18.09.25.08v.02c.12.09.18-.03.16-.19l.02.04s.11-.08.08-.22c.17.09.45.71.41.4.09-.07-.08-.44-.19-.54.24.02.19-.38.54-.2-.03-.09-.08-.12-.07-.19.27-.1.22-.57.68-.39,0,.12.15.16.24.25-.09-.19.21.09-.02-.17-.15-.14-.21-.21-.32-.22.04-.19.22-.33.41-.28-.1-.03-.12-.1-.15-.16.23.22.34.16.31,0l-.14-.14.19.08c-.03-.07-.3-.29-.1-.24.06.04.12.09.18.11-.07-.18-.21-.44-.02-.42l.28.1c0-.05-.1-.21-.21-.2.24-.04.33-.11.57-.02-.36-.6-.21-.97,0-1.25l.13.07c.17-.02-.21-.15-.09-.17.11.09.31.06.43.2.21-.06-.15-.26-.17-.36-.17-.09.08.11-.14,0-.05-.04.22-.11-.05-.24.12.01.31.12.41.18l-.1-.13c.35.03.48.46.91.52l-.02-.1c.31.04.24.35.41.18-.1-.15-.47-.38-.61-.35-.02-.21-.62-.34-.53-.51.18.01-.01.16.22.21.25,0-.06-.22.04-.27-.13.05-.38-.13-.42-.2.16-.04.24.15.31.03-.15-.08-.23-.24-.37-.17-.34-.17.14-.1-.11-.26.27.04.54.33.72.23-.25-.06-.27-.29-.66-.33.09-.03.29.02.42.11.18-.03-.38-.33.11-.21l-.24-.1c.09,0,.17,0,.32-.02.03-.07-.27-.32.12-.21-.02-.03.02-.2-.26-.2-.18.06.17.17-.21.13.32.01,0-.15-.08-.24l.15.03c-.05-.05,0-.13-.16-.19.08.05.19.06.23.04l-.22-.09c-.09-.17.41.06.37-.1l.16.15s.19-.03.13-.12c-.2-.08-.45-.18-.6-.24-.08-.1.24.02.04-.11l.23.16c.07.03.36,0,.37-.11-.06-.09-.34-.25-.48-.17,0-.05.15-.1.29-.03-.05-.14-.23-.03-.34-.16.15-.02.37-.11.59-.16l.33.18.02-.08c.26.15.23-.01.51.1.06-.05-.03-.13-.1-.19-.51.07-.62-.28-1.06-.3-.08-.22,1.09.03.45-.28-.12.02-.43-.13-.33.02.07-.12-.42-.14-.22-.27.17.14.45-.07.7.13-.14-.03-.13.07-.09.11.18-.03.44.07.46-.06-.04-.09-.04-.21-.27-.22-.25-.03.02.13-.23.05-.08-.17.31-.16-.13-.28.03.11-.23.1-.41.08l-.1-.13.17.04c.13-.18-.3-.09-.24-.27l.34-.05c.28.07-.15.25.32.27.03-.12-.2-.18-.08-.29.04.03.05.07.09.09.02-.04.64-.02.29-.23-.13-.1-.16-.04-.34-.06-.04-.2-.21-.27-.23-.4.34.05.05-.22.39-.05-.2.05-.2.33.11.43.41-.04-.07.15.34.23.02-.16.42-.11.68-.12.02-.04-.08-.1-.12-.13-.24-.04-.24.02-.49,0,.08-.17-.04-.36-.27-.47.12-.05.37-.02.39.06-.06-.22,0-.44.08-.64-.41.11-.08-.23-.41-.15-.1.1-.39.18-.56.12.03-.06.17,0,.26-.01-.21-.09.36-.12.02-.21.11.19.48.05.79.1-.17-.15.22.01.23-.13-.16-.15-.3-.32-.37-.48.29-.19,0-.5-.02-.68.16-.09.51-.03.57-.14,0-.12-.38.09-.22-.09l.07.02c-.08-.05.23-.33-.28-.37l.38.05s-.05-.06-.1-.09c.12,0,.24-.05.32,0,.26-.12-.05-.23-.06-.35l-.22.08c-.18-.2.04-.34-.05-.53h.22s-.14-.12-.14-.12c.22.02.35-.1.17-.15l.55.28c-.13.09-.27-.08-.49-.02-.19.05-.13.23.09.25.02-.07-.03-.07-.11-.12.31-.04.3.07.51.12-.01-.04.08-.09-.02-.1.15.07.18.14.19.26-.12-.08-.19.05-.28.02.27,0,.36.12.29.27-.31.11.21.28.13.46-.28-.07-.5-.15-.61-.26-.14.11.01.12-.13.23.21.05.52.08.65.23h-.2c.11.14.41.14.35.3-.1.28-.08.58-.11.79h-.2c.42.14.13.41.31.58-.22.27.15.62-.21.74.11.5.25.95.12,1.46l-.28-.12c.2.12-.18.04-.15.13.25-.07.28.16.45.26-.27.19-.08.52.09.76l-.2-.03c.33.28-.04.46-.15.7-.09.01-.28.01-.27.09.29.21.26.28.41.54-.04.15-.2.37-.37.48.24.69-.19,1.17-.19,1.85l-.24-.06c.17.76-.56,1.24-.63,1.81l-.31-.26c-.2.06-.13.36.13.49-.2.06-.1.46-.43.34-.16.09.02.28-.03.44-.32.18-.38.3-.58.58l.08-.04c-.04-.09-.16-.21-.24-.17,0,.16-.4.23.02.5-.46.02-.45.78-.99.66.1.09.05.16.07.25-.27.19-.69.14-.79.47-.08-.03-.05-.24-.16-.18-.04.08.09.15.04.27-.34.48-1.06.22-1.44.47-.34.25-.74.4-1.14.52-.4.1-.81.14-1.19.23v-.1c-.22.41-.64-.33-.8.25-.07-.09-.24-.03-.2-.22-.1.14-.24.08-.4.03-.08-.03-.15-.05-.24-.05-.11,0-.23.03-.35.11.04.01.06,0,.11-.05-.4-.22-.84,0-1.23-.23.06-.03.16-.06.2-.15-.08-.19-.58.33-.44-.13-.09-.01-.19.21-.12.2-.15-.06-.3-.1-.47-.14-.19-.37-.43-.67-.65-1.02l-.36-.54c-.11-.17-.23-.43-.29-.54.1-.58.74-.28.28-.55.08-.06-.18.03-.09,0-.17-.11.44-.37.18-.41-.27.12-.17-.03-.34.02.11-.35.34-.45.08-.64h.15c-.47-.21-.29-.57-.82-.75-.29-1.6-.36-3.34.21-4.96.19-.38.36-.76.54-1.14.21-.35.43-.69.65-1.04.42-.73,1.04-1.23,1.67-1.74.53.02.54.01.75-.36.03.06.02.09.08.12-.2-.26.2-.19.03-.46.49-.29.84-.72,1.33-1.03-.06.08.05.32.13.25l-.02-.23.07.07c.04-.08.02-.25-.1-.3.55-.48,1.23-.77,1.9-1.01.69-.18,1.37-.31,1.98-.62.35,0,.72-.32,1.03-.47,1.13.1,2.08.16,2.97-.44,0,0,.09.86-.24,1.17Z"/>
      <path class="cls-1" d="M59.46,32.45c-.16.04-.25.16-.47.08.15-.02.32-.09.47-.08Z"/>
      <path class="cls-1" d="M57.83,35.46s-.07.04-.1.05c0-.04-.15-.07-.06-.1,0,.04.09.03.16.05Z"/>
      <path class="cls-1" d="M57.67,36.18c-.15-.02-.25-.18-.26-.27l.26.27Z"/>
      <path class="cls-1" d="M57.02,36.81c-.13.05-.19.02-.18-.05.08,0,.11.03.18.05Z"/>
      <path class="cls-1" d="M57.35,36.89c0,.06-.09.08-.17.09.12,0-.07-.14.17-.09Z"/>
      <path class="cls-1" d="M56.76,38.25s.11.13-.06.13c.12-.02-.15-.19.06-.13Z"/>
      <path class="cls-1" d="M56.85,38.93s-.04.02,0,.05c-.07.02-.17-.04-.18-.07l.18.02Z"/>
      <polygon class="cls-1" points="49.7 46.4 49.77 46.32 49.76 46.47 49.7 46.4"/>
      <path class="cls-1" d="M48.03,43.38c-.09-.06.13-.05.16-.07.02.06-.18-.01-.16.07Z"/>
      <polygon class="cls-1" points="47.67 40.49 47.67 40.52 47.38 40.42 47.67 40.49"/>
    </g>
  </g>
  <g>
    <path class="cls-1" d="M88.21,48.11c-.09-.94-.54.5-.2-.61.23.13.4.31.2.61Z"/>
    <path class="cls-1" d="M87.75,44.41c-.21-.36-.36-.73-.51-1.12-.16-.38-.29-.78-.4-1.18-.21-.81-.32-1.66-.42-2.53-.16-.85-.34-1.72-.57-2.56-.12-.42-.25-.83-.4-1.22-.17-.39-.41-.74-.66-1.08-.19-.33.82-.18.34-.92-.27-.32-.53-.67-.77-1.05-.23-.38-.45-.79-.72-1.2-.49-.83-.93-1.75-1.32-2.72-.93-1.87-1.69-3.97-2.55-5.77l.33.05c-.33-.69-1.43-.98-1.89-1.6.11-.11.34.04.38-.23-.49.16-1.12-.91-1.6-.92-.07-.35.22-.59.1-1.03l-.69.04c-.85-.04-1.42-.51-1.93-1.13-.53-.6-1.03-1.35-1.9-1.62.14-.05.34-.02.31-.2-.67-.26-1.32-.57-1.97-.94-.66-.35-1.28-.79-1.98-1.12-1.37-.71-2.7-1.56-4.13-2.01.19-.12.45-.38.38-.65-.39.44-1.27.17-2.03-.07-.08-.73-1.46,0-2.2-.63l.12-.09c-.85.34-.84-.68-1.59-.18l-.27-.59c-.52.7-.84-.66-1.51-.4l-.03.17c-.57.06-.73-.41-1.25-.4l-.02-.1c-1.16-.11-1.75-.61-1.84.02-.31-.56,1.15-.06.67-.89-3.93-.08-7.82-.34-11.68-.02-.46-.2-.75-.23-.88-.46-.37.19-1.44.34-1.73.71.13-.03-.3-.28-.51-.29-.75-.12-.63.78-1.43.7.26-.24.32-.47.17-.68-.54.65-1.41.8-2.12,1.15.09-.13.25-.24.17-.43-.67.76-1.56.24-2.15.88l.15-.45c-1.29,0-.09.86-1.15.96.19-.2.06-.3.06-.46-.35.48-.9.81-1.47,1.08-.58.25-1.12.58-1.52.87.03-.07-.03-.16-.03-.16-.46.27-.95.47-1.45.7-.5.22-1,.5-1.41.94-.44.07-.33-.86-1.22-.15.42.62-1.46,1.24-.45,1.61-.22.09-.47.2-.73.31-.25.13-.5.28-.75.43-.49.3-.92.61-1.09.9.17-.48-.92-.44-.32-.97h-.76c-.11-.29.57-.29.18-.48-.31.28-1.09,1.19-1.43,1.35-.27.86-.2,1.95-1,2.8.21-.58-.8-.38-.61-.73-.09.72-.17,1.42-.17,2.17-.23.31-.48-.34-.72.21.16.11.09.38.09.61-.16.05-.93,1.3-1.61.96-.34-.06.31-.57-.18-.42-.49.54-.27.76-.71,1.34l-.09-.05c-.38.32-.6,1.32.04,1.14.22-.25-.43-.16.04-.43.14.53-.26,1.25-.68,1.82.05-.26-.13-.35-.24-.54-.12,1.09-.41,2.09-.77,3.09.29.19-.34-.66-.1-.7-.55.46-.81,1.14-.98,1.81-.17.67-.34,1.3-.9,1.66.02-.19.49.12.4.09-.32.56-.77.33-.78.79-.29-.08-.17.51-.21.97.12.29-.17.05-.07-.32.01.34-.08,1.12-.29,1.95-.22.83-.54,1.72-.89,2.35.19.03.48,1.02.38,1.32l-.41-.23c-.34.22-.23,1.05-.63,1.02.37.8.21-2.69.39-1.68-.43.14.38,1.44-.17,1.09-.14.64.18,1.34-.31,1.87.1-.16-.54-.64-.59-.11-.06.94.17.3.21,1.07l.11.49c.44.09-.18.8.36.53-.38.07.01,1.33-.69,1.17l-.57-.19c.01.41.57.72.81,1.05-.06.05-.18.14-.27.12.88.12-.12.95.54,1.45-.17.41-.21.93-.27,1.4-.01.47-.06.89-.33,1.09.3.64.65,1.19.5,1.93-.09-.14-.13-.33-.32-.36-.24.48,0,.58.16.98-.17-.08-.39.96-.63,1.52.36.6.8.31,1.1.33-.76.72.77,1.67.2,2.52-.19-.18-.63-.82-.74-.25-.71.77.93,1.01.75,2.02l.65-.41c-.33.52.74,1.21,0,1.32.3.23.11,1.12.75.81-.02.81.39,1.66.68,2.46.27.81.62,1.51.22,2.22.2.15.34.7.61.44.2-.5-.48-.34-.29-.58.11.17.3.12.4.1.06.5.18.87-.55.72.09,1.17,1.51.47,1.97,1.73-.29.09-.33.24-.08.55l.82.38c.35.8-.31.78-.72,1.07.32.36.6.88,1.05.82l-.17.82c.12-.6.48.14.71.24l-.23-.11c-.12.19.32.56.53.74.21-.24-.03-.76-.14-1.05.32.06.5.39.9.49-.45.21.18.82.36,1.15.17.41.65.08.71.19-.19.17.43.54-.06.52-.16-.06-.04-.4-.37-.44.04.33-.31.59.33.82.48.17.65-.72.98.1-.24-.08-.41.02-.65.01l.34.75.35-.28c-.01.15-.09.13-.1.2.5-.15.91.79,1.4.55.31.24.39.77.63,1.06l-.08-.02c.16.5.73.79,1.21.82l-.08.06c.16.19.64.55,1.04.54.29.63-.89,1.43.03,1.42.54.38,1.31-.04,1.27-.42.37.46.92.74,1.43,1.06.54.27,1.05.56,1.32,1.13.23-.07.21-.22.55-.13.67.52,1.48.87,2.27,1.16.78.32,1.46.7,1.89,1.4-.52-.04-.21.39-.3.63.52-.18.3.57.69,0,.12-.39.22-.54-.15-.88,1.01.16,2.42.66,2.82,1.22-.2-.27.04-.32.28-.35-.27.59.4.95,1.01.84l.19-.36.24.48c.24-.07.44-.73.88-.23,0,.15-.02.31.06.44.65-.19,1.52-.45,2.07-.06l.4.64c.28-.02.78-.29.34-.53.99.5,1.67.65,1.95,1.19,1.98-1.03,4.54-.92,6.65-1.03l-.04.3c.59.25.26-.53.67-.34-.16.29.49.58.06.95.86.29,1.01-.6,1.51-.8.03-.39-.39.31-.35-.19.07-.15,1.15.13,1.19-.47.23.2.14.64.07.89l.45-.35c.73.58-1.21,1.41-.45,2.14l.47-.16c.56.53-1.18.88.07.9.49-.37.79-1.26.29-1.45,1.04-.33.25-1.41,1.36-1.59.18.13-.03.21-.25.3-.23.07-.46.16-.31.38.63.41,1-.5,1.49-.44-.56-.08-.26-.77.04-.95.62.12-.23.63.57.48.05-.36.69-.78.02-.85.08-.8.86,0,1.11-.67.41.45-.45,1.39.49,1.43-.27-.43.83-1.02.15-1.59.36.02.53.4.39.78.57.13.81-1.3,1.31-.39l-.02-.55c.2.11.46.15.8.33.21-.07.47-.36.72-.53.24-.19.45-.28.59.09.09-.14,1.01-.54.43-.87-.69-.04-.47.68-1.08.14.63.37.76-.46.99-.79l.18.25c.14-.2.6-.35.57-.7-.06.23.1.38.29.37v-.51c.64-.57.55.65,1.23.16-.12.21-.26.4-.4.6.08-.14.57.16.84-.2-.07-.46-.08-1.06-.13-1.41.3-.4.42.31.59-.31l-.25.76c0,.17.7.4,1.25.05.28-.34.47-1.18-.19-1.05.26-.17.78-.18.74.22.53-.49-.33-.34.05-.87.37.11,1.21-.04,1.85,0l-.11.98.36-.26c-.13.81.49.18.58.86.3-.11.48-.5.63-.8-1.29-.24-.01-1.64-.77-2.18.78-.87,1.95,1.19,1.99-.68-.3-.04-.32-.93-.7-.24.6-.42-.23-.99.64-1.29-.22.69,1.12.19.79,1.2-.15-.26-.54.19-.59.35.45.04.54.71,1.12.18.29-.38.76-.83.37-1.09-.37-.35-.49.52-.62-.05.57-.73,1.21-.32.82-1.23-.33.48-.81.21-1.05-.05.12-.19.2-.42.3-.62l.16.33c.88-.62-.23-.65.51-1.34l.82.09c.26.56-1.19.93-.39,1.44.49-.48.29-.96.89-1.27-.04.16-.15.32-.18.48.18-.15,1.28.47,1.4-.73.1-.57-.17-.31-.43-.54.57-.94.48-1.41.85-2,.46.52.79-.95.9.08-.54.06-1.44,1.32-1.17,2.05.43.09.28.25.08.47-.22.21-.5.47-.27.82.63-.65,1.2-.12,1.69.09.18-.19.16-.52.19-.7-.32-.39-.51-.12-.92-.42.71-.73,1.08-1.67,1.01-2.38.4-.13.74.23.54.58.32-.51.61-1.06.94-1.58.33-.52.69-1.01,1.06-1.46-1.07.23.49-1.18-.35-1.07-.46.44-1.22.58-1.37.13.24-.29.3.18.53.14-.13-.6.99-.3.58-1.04-.23,1.08.77.65,1.24,1.12.03-.88.38.24.72-.48.04-.88.21-1.88.47-2.72.94-.81.97-2.63,1.29-3.54.43-.41,1.02.14,1.28-.38.15-.65-.86.27-.3-.6l.11.13c-.09-.33.92-1.66,0-2.16l.67.46c.11-.16-.01-.37-.06-.54.24.05.52-.12.6.21.71-.49.14-1.31.24-1.97l-.51.35c-.19-1.18.4-1.87.37-2.99l.44.08-.23-.68c.42.2.73-.39.39-.77.33.6.68,1.21.98,1.84-.32.46-.47-.59-.94-.32-.4.22-.45,1.24-.05,1.47.11-.39.02-.42-.1-.74.63-.06.52.54.88.9,0-.21.24-.49.05-.56.24.45.22.88.13,1.58-.17-.51-.42.19-.56-.01.53.14.59.84.31,1.67-.77.46-.01,1.67-.43,2.62-.43-.54-.73-1.15-.8-1.78-.42.53-.16.67-.58,1.2.32.39.88.77.91,1.64l-.4-.08c-.02.77.52.95.09,1.82-.38.74-.71,1.5-1.01,2.22-.36.69-.7,1.34-.99,1.9l-.38-.13c.24.5.06,1.06-.19,1.62-.25.56-.65,1.06-.72,1.57-.58.58-.95,1.37-1.3,2.06-.39.66-.8,1.21-1.32,1.33-.36.61-.71,1.2-1.05,1.78-.38.56-.79,1.08-1.2,1.61-.41.53-.84,1.05-1.3,1.57-.49.48-1.03.95-1.59,1.41l-.04-.76c-.09.67-.48-.02-.79.38.75-.04-.11.93-.16,1.45-1.28.5-2.34,1.84-3.04,2.9l-.27-.31c-.56,1.29-2.16,1.44-3.46,2.1-.22-.05-.64-.28-1.01-.05-.41.93-.81,1.07-1.7,1.95-.76.42-2.15.71-3.05.78-.68.47-1.39.94-2.16,1.22-.77.29-1.56.52-2.36.75l-1.21.33-1.23.23c-.82.16-1.65.36-2.47.62l-.29-.44c-.78.33-1.65.49-2.53.6-.88.09-1.79.21-2.68.1-1.78-.16-3.48-.23-4.91-.26l.37-.77c-.82-.38-1.99-.09-1.87.52-.42-.19-.98-.17-1.5-.22-.51-.08-.97-.2-1.16-.6-.84-.37-1.16.09-1.93,0-.85-.35-1.41-.63-1.99-.85-.57-.21-1.15-.36-1.99-.59l.38.19c.24-.1.38-.42,0-.62-.34,0-.87-.24-1.28-.38-.4-.15-.7-.14-.6.44-.72-.66-1.73-1.01-2.73-1.4-1-.38-1.92-.94-2.5-1.71,0,.31-.42.11-.68.17-.35-.21-.68-.45-1.01-.7-.3-.28-.6-.56-.89-.83-.59-.53-1.17-1-1.83-1.21-.12-.26.61-.11.1-.52-.37-.16-.23.27-.7.09-1.14-.69-2.05-1.69-2.88-2.69-.78-1.06-1.44-2.16-2.29-2.99-3.1-2.93-5.26-6.9-6.95-10.58l.2-.04c-1.22-.99-.39-3.24-1.84-3.89.06-.36-.24-1.22.18-1.09-.39-.45-.46-1.22-.56-2.04-.05-.41-.11-.83-.21-1.23-.09-.41-.2-.81-.43-1.16,0,.15.06.22.16.37.09-.82-.06-1.54-.22-2.27-.08-.37-.16-.74-.21-1.12-.04-.39,0-.79.06-1.21.09.16.17.46.37.49.34-.65-.9-1.45.02-1.85-.03-.36-.49-.24-.45-.02.02-1.81.13-3.66.08-5.56v-.71s.04-.71.04-.71l.09-1.43.1-1.44.06-.72.13-.7c1.22-2.5,1.58.22,1.43-2.01.22-.12-.32-.22-.12-.19-.02-.43.31-.67.6-.88.32-.2.6-.37.46-.71-.63.04-.18-.46-.5-.59.93-1.42,1.48-1.53,1.58-2.88l.24.21c-.07-.85.19-1.63.43-2.39.24-.76.43-1.52.36-2.31.53-.93,1.06-1.85,1.58-2.76.56-.89,1.19-1.74,1.78-2.61.57-.89,1.25-1.69,1.93-2.49.69-.79,1.3-1.65,2.08-2.36l2.24-2.21c.79-.69,1.62-1.33,2.44-1.99.8-.69,1.69-1.25,2.58-1.81.9-.55,1.75-1.19,2.72-1.62.95-.44,1.9-.88,2.84-1.32.96-.4,1.95-.73,2.92-1.1.49-.17.97-.37,1.47-.53l1.51-.4c1.01-.25,2-.57,3.03-.75l3.09-.48.77-.11.78-.04,1.57-.06c2.09-.15,4.19.11,6.29.34,1.88,1.03,1.98,1.06,4.17,1.06-.11.11-.25.12-.13.26.24-.66,1.49.26,1.82-.29,1.49.46,2.97.75,4.38,1.3.72.25,1.43.49,2.16.74.74.24,1.42.62,2.16.95-.49-.16-.94.22-.38.44l.75-.1v.21c.42.09.98,0,.69-.37.47.2.95.37,1.4.61l1.33.75c.87.53,1.77,1.01,2.57,1.63.8.62,1.59,1.25,2.36,1.9.4.31.76.65,1.11,1.02l1.06,1.07c1.45,1.38,2.62,3.02,3.89,4.52l1.7,2.42c.28.4.59.79.86,1.2l.78,1.25c.35.88,1,1.81,1.53,2.82.54,1.01,1.14,2.03,1.64,2.92.36,1.48.64,2.94.96,4.34.2,1.44.4,2.84.64,4.22.12,1.41.27,2.8.49,4.21.09,1.42.23,2.86.45,4.35,0,0-1.73-.79-2.24-3.09Z"/>
    <path class="cls-1" d="M88.22,49.24c-.34.19-.55.82-.96.29.31-.05.67-.37.96-.29Z"/>
    <path class="cls-1" d="M80.79,64.56c.08.06-.22.15-.29.17.06-.19-.1-.48.12-.55-.06.19.09.23.17.38Z"/>
    <path class="cls-1" d="M78.56,68.01c-.21-.22.04-1.08.28-1.54l-.28,1.54Z"/>
    <path class="cls-1" d="M75.37,70.33c-.39.09-.43-.06-.17-.4.14.07.12.24.17.4Z"/>
    <path class="cls-1" d="M75.72,70.96c-.21.24-.44.24-.67.24.2.15.36-.63.67-.24Z"/>
    <path class="cls-1" d="M69.29,75.91c-.14.13-.33.58-.66.42.3.06.52-.85.66-.42Z"/>
    <path class="cls-1" d="M66.47,78.39c-.11.05-.18.03-.26.17-.26,0-.17-.3-.02-.42l.29.25Z"/>
    <polygon class="cls-1" points="11.12 56.29 11.36 56.66 11.07 56.67 11.12 56.29"/>
    <path class="cls-1" d="M16.34,26.69c.07-.46.39-.08.47-.12-.2.32-.23-.32-.47.12Z"/>
    <polygon class="cls-1" points="27.62 14.07 27.51 14.14 27.24 13.61 27.62 14.07"/>
  </g>
</svg>