<?xml version="1.0" encoding="UTF-8"?>
<svg id="Layer_3" data-name="Layer 3" xmlns="http://www.w3.org/2000/svg" viewBox="0 0 300 300">
  <defs>
    <style>
      .cls-1 {
        fill: #fff;
      }

      .cls-2 {
        fill: #202020;
      }

      .cls-3 {
        fill: #212121;
      }
    </style>
  </defs>
  <g>
    <path class="cls-3" d="M246.15,127.36c0,49.99-42.98,90.51-96,90.51s-96-40.52-96-90.51h192Z"/>
    <g>
      <path class="cls-2" d="M249.51,128.56c-.37-1.85-1.64.97-.68-1.21.73.25,1.29.61.68,1.21Z"/>
      <path class="cls-2" d="M240.24,125c-5.73,4.79-13.28-.05-19.56,3.01-.73.2.19-2.62-1.47-1.99-6.08,3.72-15.67,1.5-23.08-1.37l.45-.74c-1.41-.54-3.14,1.92-4.63,1.57-.01-.49.48-.7.13-1.37-.38,1.48-2.7.68-3.34,1.79-.59-.58-.53-1.76-1.3-2.4l-.86,1.69c-2.38,4.02-5.78-.28-9.03,1.79.16-.39.48-.7.22-1.08-5.21,2.44-11.74,1.99-17.57,2.88.23-.6.45-1.69.11-2.36-.29,1.78-2.09,2.23-3.65,2.58-.7-1.83-2.68,1.67-4.51.66l.16-.41c-1.36,1.91-2.01-1.1-3.11,1.19l-.86-1.44c-.6,2.58-1.96-1.33-3.08-.03l.04.53c-1.06.63-1.61-.66-2.58-.23l-.09-.3c-2.29.68-3.63-.75-3.57,1.25-.8-1.61,2.22-.73.96-3.07-7.54,2.07-15.32,1.67-22.91,1.7-.86-.81-1.41-1.05-1.61-1.81-.76.41-2.86.37-3.55,1.4.25-.04-.49-1.03-.89-1.13-1.38-.76-1.51,2.21-3.03,1.31.6-.54.81-1.18.61-1.93-1.29,1.57-3.02,1.32-4.55,1.83.24-.34.61-.54.55-1.17-1.67,1.78-3.05-.38-4.52.75l.55-1.16c-2.36-1.41-.7,2.43-2.74,1.59.49-.37.32-.82.41-1.29-1.9,2.11-4.98,1.41-6.88,2.13.11-.16.08-.48.08-.48-2.07.26-4.23-.39-6.51.53-.83-.52.27-2.83-1.92-2.41.08,2.33-3.72.96-2.43,3.6-1.87-.38-4.83-1.26-6.08-.47.84-.89-.91-2.85.64-3.05l-1.17-1.41c.17-.96,1.21.32.84-.88-.78.09-3.05,1.02-3.75.64-.72.72-1.42,1.74-2.21,2.62-.76.88-1.43,1.62-2.34,1.77.35-.45.12-1.1-.19-1.68-.31-.58-.69-1.09-.34-1.29-.81,1.49-1.26,2.98-1.35,4.47-.5.11-1-1.84-1.59-1.23.38.62.22,1,.29,1.5-.18-.13-.65.01-1.29-.09-.64-.11-1.51-.47-2.66-1.62-1.08-.9.68-.49-.76-1.3-1.3.02-.62.81-1.78.84l-.35-.31c-.15-.04-.28-.06-.4-.05-.04.02-.14-.02-.13.05.02.08.04.16.07.25.11.35.31.76.56,1.15.5.79,1.21,1.48,1.89,1.69.07-.4-1.5-1.09-.79-1.2,1.48,1.81,1.91,3.13,1.96,4.05-.41-.57-1.08-.98-1.79-1.6.99,1.39,1.7,2.39,2.25,3.24.55.85.93,1.57,1.4,2.24.58.16.04-.07-.57-.38-.61-.31-1.28-.72-.99-.72-.73.61,0,1.78.56,2.6.28.43.54.8.63,1.16.04.18.03.36-.05.55-.04.1-.1.19-.17.3-.08.1-.16.3-.27.44-.26-.31,1.49-.48,1.19-.4.1,1.23-1.47,1.51-.73,2.19-.89.28.53.94,1,1.67.76.26-.39.32-.66-.37,1.02,1,3.55,4.99,3.22,7.9.57-.24,2.67.76,2.8,1.34l-1.42.29c-.64.84.89,1.84-.22,2.41,1.06.27.22-.74-.62-1.71-.8-.99-1.64-1.92-.7-1.31-.49.42.26.82.88,1.13.62.31,1.15.53.16.72.53,1.14,2.47,1.58,1.69,3.21.08-.4-2.21-.13-1.73.77,1,1.51.84.18,1.9,1.27l.92.55c1.28-.56.51,1.49,1.62.21-.97.74,1.82,1.88-.32,2.83l-1.72.65c.49.62,2.29.19,3.28.31-.1.17-.33.53-.6.64,2.45-1.27.74,1.67,3.04,1.32-.05,1.88,2.09,3.37,1.07,4.98,1.36.55,2.87.8,3.21,2.26-.37-.06-.67-.31-1.2-.02-.13,1.2.59.93,1.43,1.29-.46.13-.17,2.37-.29,3.79,1.44.42,2.3-.89,3.08-1.4-.71,1.33.21,1.69,1.17,2.02.96.34,1.94.65,1.5,2.03-.55-.04-2.19-.39-2.01.84-1.23,2.77,3.07.21,3.39,2.42l1.28-1.95c-.21.78.48,1.01,1.01,1.23.54.2.92.39.06,1.19,1-.21,1.07,1.98,2.4.17.43,1.71,2.04,2.58,3.3,3.6,1.29,1,2.36,2.04,1.92,4.22.55-.04,1.21.88,1.69-.19.13-1.4-1.31.16-1.04-.69.34.17.77-.28.97-.5.44.94.98,1.47-.81,2.51.98,2.29,3.86-1.92,5.55.15-.59.72-.6,1.12.12,1.39l2.04-.62c1.23,1.17-.23,2.3-.99,3.69.94.2,1.89.81,2.81-.03l.05,2.27c-.05-1.66,1.09-.46,1.66-.63l-.56.16c-.15.66,1,.76,1.56.81.31-.93-.48-1.74-.87-2.24.73-.41,1.3.04,2.19-.43-.86,1.29.84,1.62,1.41,2.07.61.66,1.41-.89,1.6-.74-.31.74,1.17.64.14,1.41-.36.12-.27-.96-.98-.5.25.75-.36,2,1.09,1.52,1.08-.37.99-2.87,2.07-1.36-.53.19-.83.73-1.35,1.1l1.09,1.33.58-1.27c.05.41-.12.46-.1.68.96-1.21,2.32.38,3.2-1.06.75.11,1.13,1.49,1.78,1.84l-.17.07c.58,1.05,1.88.89,2.85.21l-.13.28c.42.26,1.57.38,2.37-.27.88,1.33-1,5.2.78,3.85,1.24.28,2.51-1.98,2.24-2.98,1.95,1.39,4.79-.27,6.42,2.15.41-.5.27-.89.96-1.11,1.53.58,3.28.31,4.88.38,1.61.08,3.1.24,4.3,1.73-.98.52-.15,1.39-.17,2.19.86-1.19.89,1.37,1.27-.76-.02-1.26.08-1.87-.79-2.45.97-.24,2.18-.43,3.27-.33,1.09.08,2.08.43,2.61.99-.54-.57-.12-.97.29-1.36-.13,2.02,1.32,2.29,2.37,1.55l.11-1.23.74,1.25c.4-.4.33-2.57,1.44-1.47.08.47.17.95.39,1.28,1.06-1.1,2.43-2.85,3.7-1.97l1.16,1.66c.49-.26,1.21-1.43.26-1.84,1.07.41,1.94.63,2.65.89.71.25,1.26.58,1.71,1.29,2.93-4.23,7.58-5.53,11.5-6.44l.16.92c1.29.49.05-1.71.96-1.32-.07.94,1.38,1.56.89,2.84,1.83.45,1.44-2.13,2.23-2.88-.26-1.19-.5,1.01-.83-.5,0-.47,2.33.14,1.9-1.65.62.54.82,1.89.89,2.66l.58-1.16c.94.79.67,1.9.4,3.09-.27,1.18-.54,2.43.53,3.44l.78-.6c1.55,1.47-1.6,2.9.89,2.67.68-1.2.47-3.99-.66-4.4,1.73-1.28-.76-4.41,1.27-5.11.97.75-1.48.91-.52,2.14,1.53.94,1.58-1.55,2.61-1.46-1.2-.2-1.18-2.24-.76-2.82,1.34.31.09,1.88,1.56,1.37-.22-1.07.69-2.38-.72-2.52-.57-2.39,1.72-.07,1.6-2.11,1.23,1.26.38,4.2,2.27,4.15-.97-1.32.81-2.95-1.11-4.64.78.11,1.46,1.19,1.51,2.29,1.32.4.56-3.64,2.41-1.03l-.56-1.6c.52.31,1.08.45,1.96.96.75-.42,1.1-3.28,2.37-1.15.09-.37,1.73-1.34.16-2.37-1.54-.24-.42,1.82-2.23.19,1.72,1.17,1.25-1.14,1.44-2.02l.63.74c.12-.53.99-.87.6-1.86.07.62.57,1.08.97,1.09l-.52-1.45c.84-1.54,1.81,1.87,2.83.59l-.29,1.64c.07-.35,1.32.42,1.67-.4-.57-1.25-1.1-2.86-1.55-3.83.32-1,1.24.95,1.05-.67l.12,1.99c.14.47,1.97,1.26,2.89.46.32-.86-.03-3.08-1.42-2.89.44-.38,1.61-.29,1.88.76.73-1.23-1.06-.98-.74-2.37.93.37,2.87.33,4.44.67l.58,2.49.64-.55c.39,2.07,1.35.64,2.17,2.45.65-.18.75-1.14.81-1.91-3.3-1.01-1.54-4.33-3.86-5.94,1-2.05,5.86,3.73,4.31-1-.79-.21-1.6-2.44-1.95-.88,1.16-.81-1.43-2.56.5-2.95.04,1.64,2.99.9,3.04,3.29-.61-.7-1.19.26-1.18.64,1.18.28,1.97,1.98,2.98.88.44-.83,1.15-1.85-.05-2.64-1.23-1-.74,1.15-1.59-.33.68-1.69,2.74-.39,1.03-2.72-.53.98-1.96.14-2.78-.58l.27-1.36.67.85c1.86-1.04-1.11-1.64.25-2.95l2.2.55c1.14,1.45-2.31,1.76.18,3.28.89-.95-.06-2.19,1.28-2.69.04.36-.12.7-.08,1.07.33-.3,3.78,1.64,3.02-1.23-.18-1.3-.71-.81-1.59-1.45.86-1.9.33-2.97.83-4.17,1.67,1.37,1.38-1.86,2.48.52-.72-.04-1.4.6-1.8,1.42-.41.82-.48,1.89.15,2.78,2.5.8-1.19,1.17.58,3.01,1.07-1.34,3.02.12,4.54.82.38-.35.08-1.14.03-1.53-1.16-1.03-1.5-.49-2.83-1.35,1.46-1.34,1.7-3.42.95-5.07.98-.15,2.2.8,1.92,1.53.2-.55.45-1.09.72-1.61.26-.53.53-1.05.83-1.56.59-1.01,1.35-1.93,2-2.83-2.85.14.51-2.44-1.77-2.48-1.01.79-3.01.84-3.75-.21.44-.54.97.51,1.58.49-.86-1.38,2.58-.3,1-2.01-.14,2.15,2.6,1.65,4.22,2.82-.34-1.85,1.24.65,1.9-.73-.41-1.89-.44-3.91-.26-5.63,1.22-.66,1.71-1.94,1.9-3.25.16-1.33.07-2.69.3-3.6,1.23-.68,3.19.55,3.83-.43.26-1.27-2.55.33-1.11-1.27l.38.28c-.18-.34.39-1.1.64-1.95.26-.84.1-1.77-1.4-2.35l2.25,1.05c.28-.31-.2-.75-.39-1.09.77.14,1.55-.15,1.94.53,1.84-.89.26-2.55.33-3.85l-1.52.61c-.4-1.18-.21-2.07.06-2.95.29-.88.6-1.76.43-2.84l1.38.19-.73-1.34c1.32.42,2.28-.72,1.21-1.47,1.05,1.18,2.09,2.4,3.13,3.67-.9.88-1.59-1.2-3.01-.72-.62.2-.87.8-.81,1.41.03.61.38,1.24,1.02,1.48.26-.75-.04-.83-.47-1.47,1.97-.05,1.73,1.12,2.94,1.87-.02-.42.64-.95.05-1.11.83.92.87,1.78.73,3.16-.62-1.03-1.25.33-1.76-.1,1.68.35,2.03,1.76,1.21,3.36-1.08.42-.92,1.25-.6,2.24.32.98.7,2.11.21,3.02-1.5-1.21-2.57-2.48-3.03-3.77-1.08.99-.26,1.32-1.38,2.29,1.12.86,2.93,1.75,3.3,3.54l-1.26-.25c.21,1.56,2.02,2.11,1.13,3.82-1.57,2.91-2.74,6-3.88,8.2l-1.2-.42c1,1.16.78,2.33.3,3.43-.47,1.11-1.11,2.2-1,3.3-1.3,1.1-1.82,2.75-2.43,4.17-.63,1.39-1.28,2.57-2.62,2.67-2.16,5.15-4.41,9.72-8.64,13.73l-.73-1.95c.32,1.66-1.24-.22-1.71.69,1.87.15.48,2.32.8,3.64-1.42.43-2.44,1.46-3.21,2.75-.76,1.28-1.36,2.72-1.78,3.99l-.91-.9c-.06,1.69-1.03,2.57-2.25,3.22-1.22.65-2.71,1.07-4,1.75-.59-.22-1.71-.88-2.31-.26-.03,2.61-.83,2.92-2.04,5.29-1.39.99-4.08,1.92-5.93,2.13-1.02,1.4-2.24,2.53-3.55,3.54-1.33.96-2.77,1.74-4.22,2.51-1.47.72-2.99,1.38-4.47,2.14-1.5.72-3,1.48-4.43,2.48l-.95-1.25c-1.28,1.25-2.8,2.18-4.42,2.89-1.64.65-3.38,1.12-5.1,1.49-1.74.31-3.45.59-5.05.92-1.61.28-3.11.66-4.43,1.3l.15-2.62c-1.79-.49-3.78,1.16-3.14,2.92-.92-.29-1.96.17-2.97.4-1,.22-1.94.27-2.57-.74-1.8-.35-2.11,1.36-3.6,1.73-1.82-.44-3.05-.6-4.26-.58-1.2-.03-2.38.12-4.09.31l.84.18c.39-.55.45-1.64-.38-1.82-1.28.73-4.55-.95-3.49,2.2-1.76-1.01-3.89-.78-6.02-.79-1.07,0-2.13.02-3.13-.19-.99-.23-1.91-.63-2.68-1.37.16.88-.75.88-1.23,1.37-1.6-.22-3.12-1.05-4.6-1.6-1.48-.54-2.88-1.02-4.31-.66-.38-.54,1.15-1.16-.08-1.58-.83.11-.3,1.05-1.35,1.25-1.38.06-2.65-.3-3.89-.76-1.23-.46-2.41-1.09-3.52-1.81-1.11-.71-2.2-1.4-3.28-2.09-1.06-.69-2.13-1.27-3.25-1.64-2.09-.45-4.09-1.2-6.08-1.99-.98-.44-1.94-.9-2.9-1.38-.96-.47-1.91-.98-2.82-1.54-.91-.55-1.83-1.11-2.73-1.66-.9-.57-1.76-1.18-2.63-1.77-1.76-1.15-3.4-2.41-5.07-3.56l.45-.43c-1.82.15-2.66-1.39-3.56-2.68-.91-1.29-1.75-2.49-3.74-1.9-.09-.87-1.64-1.85-.48-2.4-1.37-.11-2.16-1.49-3.08-2.86-.95-1.36-1.86-2.86-3.71-3.29.15.25.35.29.78.35-.28-.81-.7-1.45-1.16-2.04-.46-.6-.98-1.13-1.52-1.66-.53-.53-1.07-1.06-1.55-1.67-.46-.62-.85-1.33-1.1-2.18.41.11.93.47,1.47.18.19-1.7-3.89-.86-1.92-3.16-.43-.58-1.5.43-1.18.76-.78-1.67-1.76-3.21-2.77-4.77-.5-.78-1.02-1.56-1.56-2.32l-.83-1.15-.8-1.17c-1.09-1.56-2.24-3.11-3.27-4.74-.53-.81-1.06-1.62-1.56-2.45-.48-.84-.94-1.68-1.39-2.54-.25-2.86.96-3.38,1.66-3.59.72-.21,1.03-.1-.72-1.7.42-.51-1.15.14-.59-.12-.66-.64-.11-1.51.41-2.28.53-.78,1-1.44.1-1.75-1.6.98-1.19-.42-2.25-.14.15-3.49,1.7-4.5-.28-6.66l.98-.02c-.85-.57-1.4-1.25-1.83-1.97-.11-.18-.21-.36-.31-.55l-.14-.28-.16-.41c-.2-.56-.4-1.13-.6-1.69-.18-.56-.36-1.12-.56-1.69-.18-.56-.37-1.12-.6-1.67-.46-1.12-1.07-2.23-1.97-3.4l-.31-2.51c-.1-.84-.11-1.64-.17-2.46-.1-1.65-.21-3.3-.31-4.94-.1-1.69-.2-3.37-.3-5.06l-.16-2.56-.08-1.29-.02-.32c0-.05-.01-.11,0-.16h.15s.58-.07.58-.07c3.14-.31,6.27-.62,9.39-.94l2.38-.24,2.55-.1,5.16-.21,5.24-.2.66-.03h.32s.17-.03.17-.03l.7-.05,1.39-.1,5.56-.36c3.71-.22,7.42-.4,11.15-.49,14.73.59,29.16-.81,44.12.84,3.51,2.51,3.77,2.45,7.62,1.43-.15.41-.4.5-.14.88.19-2.05,2.71-.19,3.08-2.16,5.53.39,10.63-.18,16.32-.19-.9.22-1.35,1.9-.28,1.77l1.12-1.31.18.57c.73-.3,1.53-1.32.77-1.98,14.3-1.78,28.36,2.35,42.37,1.85,3.33.86,8.06.07,11.67-.35,10.71,2.75,20.36,4.96,31.24,3.04,0,0-1.42,5.32-5.91,6.55Z"/>
      <path class="cls-2" d="M249.66,130.8c-1.04.36-1.64,1.6-2.98.52.97-.08,2.07-.69,2.98-.52Z"/>
      <path class="cls-2" d="M232.12,159.94c.26.16-.57.22-.77.23.09-.37-.54-1.04.06-1.09-.07.38.38.52.71.86Z"/>
      <path class="cls-2" d="M228.02,166.6c-.74-.57-.59-2.36-.23-3.25l.23,3.25Z"/>
      <path class="cls-2" d="M221.03,170.54c-.97.05-1.22-.34-.76-.98.43.23.49.59.76.98Z"/>
      <path class="cls-2" d="M222.45,172.16c-.31.51-.94.41-1.53.33.66.45.4-1.38,1.53-.33Z"/>
      <path class="cls-2" d="M210.53,181.94c-.2.3-.23,1.42-1.19.89.79.28.45-2.06,1.19-.89Z"/>
      <path class="cls-2" d="M206.18,187.64c-.22.1-.39.03-.44.4-.59-.06-.66-.87-.45-1.16l.89.76Z"/>
      <polygon class="cls-2" points="84.98 184.33 85.86 184.57 85.14 185.13 84.98 184.33"/>
      <path class="cls-2" d="M61.74,136.72c-.66-.82.92.28,1.06.31.12.41-1.24-.9-1.06-.31Z"/>
      <polygon class="cls-2" points="83.47 129.63 83.21 129.65 83.3 127.78 83.47 129.63"/>
    </g>
  </g>
  <g>
    <path class="cls-1" d="M91.86,121.22l.2,1.61,6.06,48.88c.04.31.31.55.62.55h34.57c.28,0,.53-.19.61-.47l12.62-47.53c.17-.64,1.09-.61,1.22.04l9.28,48.23c.06.29.31.51.61.51h40.51c.3,0,.56-.21.61-.51l9.65-49.79c.07-.38-.22-.74-.61-.75l-115.96-.79Z"/>
    <g>
      <path class="cls-2" d="M93.22,122.01c-.33-1.43-.49.85-.38-.91.3.16.54.42.38.91Z"/>
      <path class="cls-2" d="M96.69,122.13c4.7-1.74,10.87.09,16.02-1,.6-.07-.16.97,1.2.74,4.99-1.34,12.84-.47,18.9.64l-.37.27c1.16.21,2.57-.69,3.8-.56,0,.18-.39.26-.11.51.31-.55,2.22-.24,2.74-.64.48.22.43.65,1.06.9l.71-.62c1.96-1.47,4.73.14,7.4-.61-.13.14-.39.26-.18.4,4.28-.87,9.62-.67,14.39-.97-.19.22-.37.62-.09.87.24-.66,1.72-.81,3-.93.57.68,2.2-.6,3.7-.22l-.13.15c1.11-.7,1.64.42,2.55-.42l.7.54c.49-.95,1.6.5,2.52.03l-.03-.2c.87-.23,1.31.25,2.12.1l.08.11c1.88-.24,2.97.3,2.93-.44.65.6-1.82.26-.79,1.13,6.18-.72,12.55-.53,18.76-.5.7.3,1.15.4,1.31.68.62-.15,2.34-.12,2.91-.5-.21.01.4.38.73.42.55.14.87-.06,1.26-.25.38-.2.85-.38,1.45-.21-.64.19-.88.43-.83.71.62-.28,1.35-.41,2.06-.45.35-.02.71-.03,1.05-.03.34.02.71-.08,1.02.09-.26-.07-.63,0-.76.17.47-.15.85.09.91.4.03.3-.08.62-.14.94-.16.65-.37,1.25-.26,1.79-.13-.1-.25-.2-.38-.28-.12.26-.19.45-.23.6-.27,1,1-.06.42,1.54-.06-.42-.26-.26-.43-.32.48,1.65-.26,4.1-.3,5.67-.04-.1-.16-.1-.16-.1-.23,1.68-.8,3.37-.82,5.27-.32.63-.99-.42-1.17,1.37.86.1-.23,3.06.93,2.2-.43,1.48-1.21,3.79-1.12,4.85-.19-.74-1.18.53-1.01-.73l-.7.85c-.32-.21.31-.95-.19-.73-.09.63-.11,2.52-.35,3.06.3,1.26,1.06,2.51.8,4.41-.16-.95-1.03.32-1.06-.31l1.11,2.94c-.08.63-.7,0-.65.95.23,0,.29.42.42.73-.14.22-.29,2.64-1.18,2.75-.38.21.02-1.05-.41-.42-.21,1.16.06,1.26-.15,2.42h-.12c-.27.74-.08,2.32.54,1.58.13-.53-.54.1-.15-.63.38.63.26,2,.04,3.15-.06-.42-.29-.42-.49-.62.18.84.24,1.68.25,2.53,0,.43,0,.86-.02,1.29,0,.18-.03.52-.06.84-.03.33-.06.65-.09.98.19.1.06-.22-.08-.57-.14-.36-.31-.72-.17-.87-.28.73-.45,1.46-.56,2.25-.12.78-.3,1.52-.53,2.17-.09.32-.36.65-.66.8-.29.13-.58.22-.91.29-.65.15-1.41.11-2.12-.11.4-.07.42.57.35.46-1.6-.05-1.64-.64-2.49-.42-.07-.34-.89.11-1.62.21-.38.25-.19-.17.45-.21-1.02.29-5.09.82-7.45.32.05.23-1.45.83-1.99.81l.21-.53c-.49-.32-1.81.05-1.9-.41-1.16.65,4.45-.55,2.89-.05-.4-.44-2.18.85-1.84.12-1.09.02-2.14.62-3.18.12.3.09.88-.74,0-.7-1.54.09-.44.25-1.69.43l-.79.22c-.05.52-1.38-.07-.81.51-.19-.43-2.25.26-2.09-.6l.21-.68c-.67.05-1.09.71-1.62,1.01-.09-.06-.26-.2-.23-.31-.11,1.03-1.59-.09-2.39.71-1.4-.36-3.56-.03-4.22-.68-1.08.31-2.06.69-3.29.46.25-.1.58-.13.65-.35-.77-.3-.96-.03-1.67.14.06-.08-.27-.23-.86-.41-.72-.18-1.55-.38-2.04-.57-1.5.28-1.31.79-1.61,1.13-.2-.27-.51-.43-.86-.54-.18-.06-.37-.1-.57-.16-.21-.07-.43-.19-.61-.34-.58-.57-1.2-1.38-1.2-2.44,0-.24.02-.46.08-.69.06.12.15.3.24.5.3.55.7.97.64.02.06-.17.1-.33.12-.47.26-1.24-1.38-2.25-1.19-3.65l-.76.54c.38-.79-.92-2.19-.04-2.19-.4-.46-.08-1.88-.85-1.55.2-2.68-1.6-6.11-.45-7.95-.21-.34-.24-1.27-.62-1.01-.34.69.49.78.22,1.07-.09-.32-.32-.35-.44-.36.03-.83-.03-1.46.79-.84.16-1.86-1.73-1.55-1.84-3.85.36.04.45-.16.27-.8l-.81-1.13c-.15-1.47.6-.97,1.17-1.11-.25-.75-.4-1.71-.89-1.98l.53-1.08c-.39.78-.47-.57-.68-.91l.21.34c.21-.19-.11-1.06-.26-1.49-.33.16-.3,1.11-.31,1.63-.32-.34-.39-.99-.78-1.42.58-.01.27-.74.26-1.08.04-.47-.53-.06-.53-.15.26-.23-.06-.57.34-.67.11.06-.19.51.07.51.15-.38.59-.82.16-1.06-.31-.12-.91,1.22-.73.22.14,0,.33-.23.52-.3l.09-1.1-.4.66c.08-.27.13-.26.17-.4-.23.26-.3.09-.38-.07-.08-.15-.16-.28-.38.22-.08-.14.12-1.26.09-1.72l.04-.04c.11-1.05-.12-1.2-.35-.53l.06-.28c-.02-.3-.15-.57-.32.15.09-1.63.78-6.29.38-4.94-.07-.33-.21.22-.32,1.09-.12.86-.22,2-.26,2.67,0-.51-.05-.77-.09-.91-.03-.07-.03-.12-.11-.13-.08,0-.2.06-.29.16-.2.23-.16.56-.24.58-.05.04-.1-.14-.18-.64,0,.85.02,1.24-.02,1.87-.16.19-.27,1.24-.38,1.83-.11.63-.22.85-.64.43-.02-.77-.27-.98-.45-1.47.17,1.18-.42-.3.02,1.13.29.71.43,1.08.62,1.11-.02,1.06-.19,1.68-.66,1.76.23-.02.31.25.4.45-.61-.61-.88-.03-.74.46l.43.17-.61.47c.05.39.82.64.15,1.44-.18,0-.37,0-.54.14.11,1.05.36,2.55-.29,3.49l-.87.68c-.05.46.14,1.3.53.58-.85,1.66-1.2,2.78-1.91,3.2.55,3.4-.57,7.82-1.61,11.32l-.3-.19c-.56.87.44.64.04,1.25-.23-.39-.87.54-1.06-.31-.71,1.26.11,1.9.02,2.82.4.25-.09-.78.41-.47.06.1-.15.54-.3,1.01-.05.16-.18.66-.22,1-.04.36-.02.65.11.82-.41.5-.73-.22-.91-.61l-.06,1.52c-.58.6-.61-.58-.75-1.56-.12-1.01-.33-1.79-.97-1.27l-.15.97c-.44.26-.46-.44-.49-.86-.03-.44-.06-.65-.43.27.11.94.64,2.55,1.19,1.79-.27,1.18-.12,1.67,0,2.2.05.27.12.52,0,.84-.12.32-.48.68-1.09.84-.45-.08.05-.22.51-.49.24-.15.47-.39.54-.57.07-.18.05-.31-.11-.32-.25.13-.54.32-.81.45-.27.11-.5.21-.75.34-.5.25-1.08.5-1.74.39,1.47.21.61.95-.44,1.06-.89-.16-.62-.32-.47-.45.16-.13.22-.23-.9-.26-.59.39-1.71.68-.64.95-.5.88-1.45-.25-2.2.44-.45-.62,1.43-1.44-.1-1.75.24.6-1.88.82-1.08,1.71-.6-.17-.66-.65-.22-1.01-.85-.37-2.07,1.09-2.35-.09l-.29.61c-.27-.2-.65-.35-1.09-.68-.75-.01-2.43.83-2.36-.1-.24.1-1.96.05-1.3.7,1.07.39,1.23-.47,1.82.4-.75-.71-1.54.09-2.16.33l-.1-.36c-.37.14-1.21.06-1.44.45.28-.21.14-.45-.16-.54l-.39.54c-1.49.27-.35-.96-1.81-.8l1.1-.42c-.24.09-.74-.42-1.43-.25-.27.5-.78,1.09-1.01,1.48-.82.22-.37-.56-1.17-.05l1.06-.6c.16-.16-.71-.82-1.81-.81-.7.17-1.79.89-.68,1.16-.55,0-1.32-.29-.88-.66-1.24.17.16.53-.91.84-.44-.33-1.81-.8-2.63-1.28l1.12-.83h-.75c.97-.67-.49-.52.05-1.22-.51-.11-1.12.13-1.62.31,1.49,1.13-1.67,1.54-1.24,2.57-.51.07-.84-.05-1.09-.25-.06-.05-.12-.1-.17-.16-.09-.06-.17-.12-.25-.18-.15-.12-.28-.25-.41-.36-.25-.23-.48-.42-.87-.45-.4-.03-.94.11-1.96.49.49.28-1.6,1.03.8.76-1.11-.04-1.59.17-2.11.3-.5.13-1.13.18-1.92-.54.83.2.6-.24.5-.6-.05-.18-.08-.38.05-.47.14-.1.39-.12.97-.09-.17.13.06.28.42.39.36.11.85.13,1.07.1-.31-.23-.13-.49-.12-.7.02-.22-.15-.38-.9-.57-.25-.05-.49-.06-.74-.18-.25-.12-.47-.31-.6-.46-.24-.3-.45-.48-.63-.2-.22.23-.05.56.13.79.2.24.42.4-.05.36-.62-.64-.71-1.29-.81-1.79-.08-.51-.1-.86-.39-1.14-.09-.09-.21-.18-.37-.27.03.16.05.3.06.43.17,1.32-.07,1.88-.42,2.12-.28-.44-.51-.95-.66-1.54l-.08-.34.35.2.07.04s0-.06,0-.07c-.08-1.71-.28-1.88-.51-2.08-.11-.1-.23-.19-.34-.49-.05-.15-.11-.35-.16-.62-.02-.12-.04-.26-.07-.41,0-.09-.02-.19-.03-.3l.66-.93c.18.09.27.29.32.55.03.13.04.27.06.41.02.2.04.41.06.61.1,1,.23,1.82.72,1.35-.05-.49-.12-.89-.21-1.24-.05-.18-.09-.35-.13-.51-.04-.14-.08-.2-.11-.3-.14-.37-.26-.73-.18-1.29.12.23.19.56.32.79-.02-.42,1.36-1.01.32-2.56-.43-.81-.41-.18-.81-.15-.35-1.85-.83-2.35-1.04-3.55.82.15-.19-2.13.78-.91-.38.67,0,3.36.83,3.93.84-.79.05,1.48,1.04,1.76-.16-1.5.76-1.54,1.33-1.86,0-.42-.31-.79-.44-1.03-.59-.11-.51.44-1.09.54-.05-1.69-.57-3.26-1.23-4.11.21-.59.8-.49.93.17-.41-1.96-.6-4.1-.66-6-.77,1.33-.48-2.08-1.14-1.15-.08,1.04-.63,1.99-1.11,1.48-.02-.64.41-.03.57-.32-.6-.74.65-1.35-.24-2.04.52,1.78,1.17.21,1.93.46-.57-1.26.52,0,.36-1.3-.56-1.26-1.08-2.82-1.41-4.25.46-1.9-.56-4.61-.79-6.23.26-.9,1.15-.42,1.17-1.36-.15-1.08-.78.91-.61-.74l.18.13c-.25-.46.19-3.01-1.04-3.34l.95.39c.04-.31-.19-.56-.32-.8.29-.05.5-.43.75.04.49-1.06-.36-2.07-.51-3.14l-.44.76c-.64-1.79-.27-3.09-.68-4.84h.52s-.44-1.03-.44-1.03c.53.2.73-.81.24-1.32l1.59,2.6c-.21.8-.72-.76-1.17-.22-.39.46-.05,2.09.48,2.3-.02-.64-.14-.66-.38-1.12.69-.3.78.66,1.31,1.08-.07-.33.09-.82-.15-.87.43.6.56,1.25.71,2.33-.37-.7-.39.45-.63.2.64,0,.96,1.02.95,2.38-.61,1.04.78,2.45.77,4.02-.71-.55-1.32-1.29-1.69-2.2-.2,1.01.15,1.08-.05,2.09.53.41,1.3.66,1.74,1.89l-.46.13c.38,1.12,1.07,1.03,1.13,2.51.08,2.53.4,5.11.58,7.03l-.46.13c1.13.94.81,3.5,1.43,4.88-.15,2.49,1.1,5.24.45,6.59.31,1.48.6,2.9.89,4.31.22,1.17.43,2.33.66,3.53.06.35.11.72.16,1.11,0,.2.17.39.37.39.2.01.39.02.59.03-.28.23-.6.46-.96.69.92-.5.13.39.84.29-.23-.27.1-.45.47-.61.38-.16.82-.31,1.01-.52.15.07.26.12.49.15.26.03.54.05.81.06.55.01,1.11-.02,1.67-.09,1.11-.14,2.2-.4,3.08-.64l.07.47c1.79-.89,3.93-.11,6.16.04.26.2.66.64,1.33.59,1.21-.76,1.84-.71,3.62-1.18,1.3,0,3.4.19,4.72.49,1.22-.27,2.45-.43,3.68-.52.62-.05,1.23-.08,1.85-.1l.89-.05c.26-.01.51-.01.76-.04.13-.03.19-.18.2-.31l.08-.39c.05-.26.08-.52.1-.77-.01-.04.07-.46.12-.75l.14-.94.63-.21c.12-5.06,2.71-10.62,3.2-14.83l.81.63c.62-1.2.53-2.96-.21-2.81.62-1.2.4-3.3,1.37-3.91.52-1.26,0-1.71.17-2.82.05-.11.15-.41.24-.66.09-.25.17-.49.25-.73.15-.46.29-.89.43-1.3.26-.82.47-1.54.67-2.28.39-1.47.72-2.96,1.22-5.18l-.32.96c.02.74.3,1.25.6.37.22-1.86,1.57-4.92.56-5.52.4-.81.72-2.1,1.12-2.96.1-.21.2-.43.3-.64l.31-.54c.21-.4.4-.67.6-.98.2-.32.38-.55.56-.76.17-.2.38-.43.52-.52.3-.22.64-.36.85-.25-.09-.38.14-.67.23-1.02.1-.08.21-.14.31-.2.11-.05.13-.11.47-.13.31-.02.74.04.97.15.23.11.22.22.34.34.36.46.69.91,1.14.84.11.43-.34.64,0,1.13.24.05.08-.74.44-.72.46.17.96.55,1.46,1.44.24.4.48.99.67,1.72.19.75.3,1.79.43,2.69.51,3.74.9,7.12,1.53,9.96.61,2.37,1.34,5.7,1.6,6.73.35,1.54.68,3.1.98,4.64.61,3.1,1.15,6.17,1.76,9.1l-.24-.02c1.23,1.8.01,4.78,1.6,6.1-.12.51.24,1.8-.26,1.53.32.52.45,1.23.53,2.04.02.2.04.41.06.62.01.14,0,.16,0,.18v.1c-.03.13-.04.28-.02.42.03.22.11.42.36.36-.01-.07-.05-.05-.15-.03-.04.13-.06.27,0,.33.05.07.14.06.22.07.17.01.35-.01.53-.04l.26-.04h.13s.3-.01.3-.01c.57,0,1.16.05,1.78.16-.25.1-.7.17-.78.4.95.43,2.25-.96,2.77.14.54-.01.39-.55.05-.52,5.38.43,11.13-.27,16.72-.52,4.01.65.24,1.84,3.41,1.03.26.21.19-.42.23-.19,1.22-.31,1.91,1.22,2.76.65-.35-.67.57-.38.59-.78,2.45.44,2.95,1.04,4.88.53l-.15.35c.14-.06.29-.12.43-.17.15-.05.3-.1.34-.14.14-.08.26-.15.38-.2.24-.11.46-.17.65-.24.1-.03.19-.07.26-.11.08-.05.11-.2.07-.35-.07-.3-.2-.59-.44-.87.92-5.65,1.81-11.19,2.71-16.69.96-6.02,1.92-11.99,3.02-18,.33-1.6.65-3.19.98-4.77l.42-2.15v-.09s.03-.07,0-.1c-.04,0-.08,0-.12.01h-.05s-.02.01-.02.01h-.77s-3.29-.02-3.29-.02c-4.39-.04-8.8-.15-13.27-.4-2.86-.95-3.08-.93-6.23-.57.13-.15.33-.18.12-.32-.16.76-2.22.06-2.53.78-4.53-.17-8.7,0-13.36-.02.74-.08,1.11-.7.24-.65l-.92.48-.15-.21c-.6.11-1.26.48-.64.73-11.71.58-23.22-1.03-34.68-.92-2.72-.34-6.6-.07-9.56.07-8.76-1.08-16.66-1.95-25.57-1.3,0,0,1.18-1.96,4.86-2.39Z"/>
      <path class="cls-2" d="M93.52,123.74c-.34.36-.42,1.39-1.03.65.34-.14.68-.71,1.03-.65Z"/>
      <path class="cls-2" d="M92.98,151.25c.12.02-.11.4-.16.5-.07-.33-.43-.6-.26-.89.07.33.24.26.42.39Z"/>
      <path class="cls-2" d="M93.61,158.18c-.35-.06-.8-1.51-.95-2.38l.95,2.38Z"/>
      <path class="cls-2" d="M93.02,164.79c-.22.59-.39.46-.47-.29.17-.08.29.16.47.29Z"/>
      <path class="cls-2" d="M93.84,165.16c.07.53-.09.82-.25,1.11.29-.06-.34-1.22.25-1.11Z"/>
      <path class="cls-2" d="M104.89,176.69c.34-.03,1.07-.31,1.39.07-.35-.26-1.65.43-1.39-.07Z"/>
      <path class="cls-2" d="M111.43,176.17c.21.02.3.09.54-.01.39.16-.02.4-.35.44l-.19-.43Z"/>
      <path class="cls-2" d="M153.87,169.59c-.12-.32-.2-.47-.31-.71l.35.04c-.01.23-.04.37-.04.67Z"/>
      <path class="cls-2" d="M202.49,166.72c-.08-.73.41-.42.48-.53-.09.63-.37-.31-.48.53Z"/>
      <polygon class="cls-2" points="206.18 138.77 206.15 138.98 205.48 138.78 206.18 138.77"/>
    </g>
  </g>
  <g>
    <path class="cls-2" d="M249.22,129.16c-.37-1.85-1.64.97-.68-1.21.73.25,1.29.61.68,1.21Z"/>
    <path class="cls-2" d="M239.94,125.6c-5.73,4.79-13.28-.05-19.56,3.01-.73.2.19-2.62-1.47-1.99-6.08,3.72-15.67,1.5-23.08-1.37l.45-.74c-1.41-.54-3.14,1.92-4.63,1.57-.01-.49.48-.7.13-1.37-.38,1.48-2.7.68-3.34,1.79-.59-.58-.53-1.76-1.3-2.4l-.86,1.69c-2.38,4.02-5.78-.28-9.03,1.79.16-.39.48-.7.22-1.08-5.21,2.44-11.74,1.99-17.57,2.88.23-.6.45-1.69.11-2.36-.29,1.78-2.09,2.23-3.65,2.58-.7-1.83-2.68,1.67-4.51.66l.16-.41c-1.36,1.91-2.01-1.1-3.11,1.19l-.86-1.44c-.6,2.58-1.96-1.33-3.08-.03l.04.53c-1.06.63-1.61-.66-2.58-.23l-.09-.3c-2.29.68-3.63-.75-3.57,1.25-.8-1.61,2.22-.73.96-3.07-7.54,2.07-15.32,1.67-22.91,1.7-.86-.81-1.41-1.05-1.61-1.81-.76.41-2.86.37-3.55,1.4.25-.04-.49-1.03-.89-1.13-1.38-.76-1.51,2.21-3.03,1.31.6-.54.81-1.19.61-1.93-1.29,1.57-3.02,1.32-4.55,1.83.24-.34.61-.54.55-1.17-1.67,1.78-3.05-.38-4.52.75l.55-1.16c-2.36-1.41-.7,2.43-2.74,1.59.49-.37.32-.82.41-1.29-1.9,2.11-4.98,1.41-6.88,2.13.11-.16.08-.48.08-.48-2.07.26-4.23-.39-6.51.53-.83-.52.27-2.83-1.92-2.41.08,2.33-3.72.96-2.43,3.6-1.87-.38-4.83-1.26-6.08-.47.84-.89-.91-2.85.64-3.05l-1.17-1.41c.17-.96,1.21.32.84-.88-.78.09-3.05,1.02-3.75.64-.72.72-1.42,1.74-2.21,2.62-.76.88-1.43,1.62-2.34,1.77.35-.45.12-1.1-.19-1.68-.31-.58-.69-1.09-.34-1.29-.81,1.49-1.26,2.98-1.35,4.47-.5.11-1-1.84-1.59-1.23.38.62.22,1,.29,1.5-.18-.13-.65.01-1.29-.09-.64-.11-1.51-.47-2.66-1.62-1.08-.9.68-.49-.76-1.3-1.3.02-.62.81-1.78.84l-.35-.31c-.15-.04-.28-.06-.4-.05-.04.02-.14-.02-.13.05.02.08.04.16.07.25.11.35.31.76.56,1.15.5.79,1.21,1.48,1.89,1.69.07-.4-1.5-1.09-.79-1.2,1.48,1.81,1.91,3.13,1.96,4.05-.41-.57-1.08-.98-1.79-1.6.99,1.39,1.7,2.39,2.25,3.24.55.85.93,1.57,1.4,2.24.58.16.04-.07-.57-.38-.61-.31-1.28-.72-.99-.72-.73.61,0,1.78.56,2.6.28.43.55.8.63,1.16.04.18.03.36-.05.55-.04.1-.1.19-.17.3-.08.1-.16.3-.27.44-.26-.31,1.49-.48,1.19-.4.1,1.23-1.47,1.51-.73,2.19-.89.28.53.94,1,1.67.76.26-.39.32-.66-.37,1.02,1,3.55,4.99,3.22,7.9.57-.24,2.67.76,2.8,1.34l-1.42.29c-.64.84.89,1.84-.22,2.41,1.06.27.22-.74-.62-1.71-.8-.99-1.64-1.92-.7-1.31-.49.42.26.82.88,1.13.62.31,1.15.53.16.72.53,1.14,2.47,1.58,1.69,3.21.08-.4-2.21-.13-1.73.77,1,1.51.84.18,1.9,1.27l.92.55c1.28-.56.51,1.49,1.62.21-.97.74,1.82,1.88-.32,2.83l-1.72.65c.49.62,2.29.19,3.28.31-.1.17-.33.53-.6.64,2.45-1.27.74,1.67,3.04,1.32-.05,1.88,2.09,3.37,1.07,4.98,1.36.55,2.87.8,3.21,2.26-.37-.06-.67-.31-1.2-.02-.13,1.2.59.93,1.43,1.29-.46.13-.17,2.37-.29,3.79,1.44.42,2.3-.89,3.08-1.4-.71,1.33.21,1.69,1.17,2.02.96.34,1.94.65,1.5,2.03-.55-.04-2.19-.39-2.01.84-1.23,2.77,3.07.21,3.39,2.42l1.28-1.95c-.21.78.48,1.01,1.01,1.22.54.2.92.39.06,1.19,1-.21,1.07,1.98,2.4.17.43,1.71,2.04,2.58,3.3,3.6,1.29,1,2.36,2.04,1.92,4.22.55-.04,1.21.88,1.69-.19.13-1.4-1.31.16-1.04-.69.34.17.77-.28.97-.5.44.94.98,1.47-.81,2.51.98,2.29,3.86-1.92,5.55.15-.59.72-.6,1.12.12,1.39l2.04-.62c1.23,1.17-.23,2.3-.99,3.69.94.2,1.89.81,2.81-.03l.05,2.27c-.05-1.66,1.09-.46,1.66-.63l-.56.16c-.15.66,1,.76,1.56.81.31-.93-.48-1.74-.87-2.24.73-.41,1.3.04,2.19-.43-.86,1.29.84,1.62,1.41,2.07.61.66,1.41-.89,1.6-.74-.31.74,1.17.64.14,1.41-.36.12-.27-.96-.98-.5.25.75-.36,2,1.09,1.52,1.08-.37.99-2.87,2.07-1.36-.53.19-.83.73-1.35,1.1l1.09,1.33.58-1.27c.05.41-.12.46-.1.68.96-1.21,2.32.38,3.2-1.06.75.11,1.13,1.49,1.78,1.84l-.17.07c.58,1.05,1.88.89,2.85.21l-.13.28c.42.26,1.57.38,2.37-.27.88,1.33-1,5.2.78,3.85,1.24.28,2.51-1.98,2.24-2.98,1.95,1.39,4.79-.27,6.42,2.15.41-.5.27-.89.96-1.11,1.53.58,3.28.31,4.88.38,1.61.08,3.1.24,4.3,1.73-.98.52-.15,1.39-.17,2.19.86-1.19.89,1.37,1.27-.76-.02-1.26.08-1.87-.79-2.45.97-.24,2.18-.43,3.27-.33,1.09.08,2.08.43,2.61.99-.54-.57-.12-.97.29-1.36-.13,2.01,1.32,2.29,2.37,1.55l.11-1.23.74,1.25c.4-.4.33-2.57,1.44-1.47.08.47.17.95.39,1.28,1.06-1.1,2.43-2.85,3.7-1.97l1.16,1.66c.49-.26,1.21-1.43.26-1.84,1.07.41,1.94.63,2.65.89.71.25,1.26.58,1.71,1.29,2.93-4.23,7.58-5.53,11.5-6.44l.16.92c1.29.49.05-1.71.96-1.32-.07.94,1.38,1.56.89,2.84,1.83.45,1.44-2.13,2.23-2.88-.26-1.19-.5,1.01-.83-.5,0-.47,2.33.14,1.9-1.65.62.54.82,1.89.89,2.66l.58-1.16c.94.79.67,1.9.4,3.09-.27,1.18-.54,2.43.53,3.44l.78-.6c1.55,1.47-1.6,2.9.89,2.67.68-1.2.47-3.99-.66-4.4,1.73-1.28-.76-4.41,1.27-5.11.97.75-1.48.91-.52,2.14,1.53.94,1.58-1.55,2.61-1.46-1.2-.2-1.18-2.24-.76-2.82,1.34.31.09,1.88,1.56,1.37-.22-1.07.69-2.38-.72-2.52-.57-2.39,1.72-.07,1.6-2.11,1.23,1.26.38,4.2,2.27,4.15-.97-1.32.81-2.95-1.11-4.64.78.11,1.46,1.19,1.51,2.29,1.32.4.56-3.64,2.41-1.03l-.56-1.6c.52.31,1.08.45,1.96.96.75-.42,1.1-3.28,2.37-1.15.09-.37,1.73-1.34.16-2.37-1.54-.24-.42,1.82-2.23.19,1.72,1.17,1.25-1.14,1.44-2.02l.63.74c.12-.53.99-.87.6-1.86.07.62.57,1.08.97,1.09l-.52-1.45c.84-1.54,1.81,1.87,2.83.59l-.29,1.64c.07-.35,1.32.42,1.67-.4-.57-1.25-1.1-2.86-1.55-3.83.32-1,1.24.95,1.05-.67l.12,1.99c.14.47,1.97,1.26,2.89.46.32-.86-.03-3.08-1.42-2.89.44-.38,1.61-.29,1.88.76.73-1.23-1.06-.98-.74-2.37.93.37,2.87.33,4.44.67l.58,2.49.64-.55c.39,2.07,1.35.64,2.17,2.45.65-.18.75-1.14.81-1.91-3.3-1.01-1.54-4.33-3.86-5.94,1-2.05,5.86,3.73,4.31-1-.79-.21-1.6-2.44-1.95-.88,1.16-.81-1.43-2.56.5-2.95.04,1.64,2.99.9,3.04,3.29-.61-.7-1.19.26-1.18.64,1.18.28,1.97,1.98,2.98.88.44-.83,1.15-1.85-.05-2.64-1.23-1-.74,1.15-1.59-.33.68-1.69,2.74-.39,1.03-2.72-.53.98-1.96.14-2.78-.58l.27-1.36.67.85c1.86-1.04-1.11-1.64.25-2.95l2.2.55c1.14,1.45-2.31,1.76.18,3.28.89-.95-.06-2.19,1.28-2.69.04.36-.12.7-.08,1.07.33-.3,3.78,1.64,3.02-1.23-.18-1.3-.71-.81-1.59-1.45.86-1.9.33-2.97.83-4.17,1.67,1.37,1.38-1.86,2.48.52-.72-.04-1.4.6-1.8,1.42-.41.82-.48,1.89.15,2.78,2.5.8-1.19,1.17.58,3.01,1.07-1.34,3.02.12,4.54.82.38-.35.08-1.14.03-1.53-1.16-1.03-1.5-.49-2.83-1.35,1.46-1.34,1.7-3.42.95-5.07.98-.15,2.2.8,1.92,1.53.2-.55.45-1.09.72-1.61.26-.53.53-1.05.83-1.56.59-1.01,1.35-1.93,2-2.83-2.85.14.51-2.44-1.77-2.48-1,.79-3.01.84-3.75-.21.44-.54.97.51,1.58.49-.86-1.38,2.58-.3,1-2.01-.14,2.15,2.6,1.65,4.22,2.82-.34-1.85,1.24.65,1.9-.73-.41-1.89-.44-3.91-.26-5.63,1.22-.66,1.71-1.94,1.9-3.25.16-1.33.07-2.69.3-3.6,1.23-.68,3.19.55,3.83-.43.26-1.27-2.55.33-1.11-1.27l.38.28c-.18-.34.39-1.1.64-1.95.26-.84.1-1.77-1.4-2.35l2.25,1.05c.28-.31-.2-.75-.39-1.09.77.14,1.55-.15,1.94.53,1.84-.89.26-2.55.33-3.85l-1.52.61c-.4-1.18-.21-2.07.06-2.95.29-.88.6-1.76.43-2.84l1.38.19-.73-1.34c1.32.42,2.28-.72,1.21-1.47,1.05,1.18,2.09,2.4,3.13,3.67-.9.88-1.59-1.2-3.01-.72-.62.2-.87.8-.81,1.41.03.61.38,1.24,1.02,1.48.26-.75-.04-.83-.47-1.47,1.97-.05,1.73,1.12,2.94,1.87-.02-.42.64-.95.05-1.11.83.92.87,1.78.73,3.16-.62-1.03-1.25.33-1.76-.1,1.68.35,2.03,1.76,1.21,3.36-1.08.42-.92,1.25-.6,2.24.32.98.7,2.11.21,3.02-1.5-1.21-2.57-2.48-3.03-3.77-1.08.99-.26,1.32-1.38,2.29,1.12.86,2.93,1.75,3.3,3.54l-1.26-.25c.21,1.56,2.02,2.11,1.13,3.82-1.57,2.91-2.74,6-3.88,8.2l-1.2-.42c1,1.16.78,2.33.3,3.43-.47,1.11-1.11,2.2-1,3.3-1.3,1.1-1.82,2.75-2.43,4.17-.63,1.39-1.28,2.57-2.62,2.67-2.16,5.15-4.41,9.72-8.64,13.73l-.73-1.95c.32,1.66-1.24-.22-1.71.69,1.87.15.48,2.32.8,3.64-1.42.43-2.44,1.46-3.21,2.75-.76,1.28-1.36,2.72-1.78,3.99l-.91-.9c-.06,1.69-1.03,2.57-2.25,3.22-1.22.65-2.71,1.07-4,1.75-.59-.22-1.71-.88-2.31-.26-.03,2.61-.83,2.92-2.04,5.29-1.39.99-4.08,1.92-5.93,2.13-1.02,1.4-2.24,2.53-3.55,3.54-1.33.96-2.77,1.74-4.22,2.51-1.47.72-2.99,1.38-4.47,2.14-1.5.72-3,1.48-4.43,2.48l-.95-1.25c-1.28,1.25-2.8,2.18-4.42,2.89-1.64.65-3.38,1.12-5.1,1.49-1.74.31-3.45.59-5.05.92-1.61.28-3.11.66-4.43,1.3l.15-2.62c-1.79-.5-3.78,1.16-3.14,2.92-.92-.29-1.96.17-2.97.4-1,.22-1.94.27-2.57-.74-1.8-.35-2.11,1.36-3.6,1.73-1.82-.44-3.05-.6-4.26-.58-1.2-.03-2.38.12-4.09.31l.84.18c.39-.55.45-1.64-.38-1.82-1.28.73-4.55-.95-3.49,2.2-1.76-1.01-3.89-.78-6.02-.79-1.07,0-2.13.02-3.13-.19-.99-.23-1.91-.63-2.68-1.37.16.88-.75.88-1.23,1.37-1.6-.22-3.12-1.05-4.6-1.6-1.48-.54-2.88-1.02-4.31-.66-.38-.54,1.15-1.16-.08-1.58-.83.11-.3,1.05-1.35,1.25-1.38.06-2.65-.3-3.89-.76-1.23-.46-2.41-1.09-3.52-1.81-1.11-.71-2.2-1.4-3.28-2.09-1.06-.69-2.13-1.27-3.25-1.64-2.09-.45-4.09-1.2-6.08-1.99-.98-.44-1.94-.9-2.9-1.38-.96-.47-1.91-.98-2.82-1.54-.91-.55-1.83-1.11-2.73-1.66-.9-.57-1.76-1.18-2.63-1.77-1.76-1.15-3.4-2.41-5.07-3.56l.45-.43c-1.82.15-2.66-1.39-3.56-2.68-.91-1.29-1.75-2.49-3.74-1.9-.09-.87-1.64-1.85-.48-2.4-1.37-.11-2.16-1.49-3.08-2.86-.95-1.36-1.86-2.86-3.71-3.29.15.25.35.29.78.35-.28-.81-.7-1.45-1.17-2.04-.46-.6-.98-1.13-1.52-1.66-.53-.53-1.07-1.06-1.55-1.67-.46-.62-.85-1.33-1.1-2.18.41.11.93.47,1.47.18.19-1.7-3.89-.86-1.92-3.16-.43-.58-1.5.43-1.18.76-.78-1.67-1.76-3.21-2.77-4.77-.5-.78-1.02-1.56-1.56-2.32l-.83-1.15-.8-1.17c-1.09-1.56-2.24-3.11-3.27-4.74-.53-.81-1.06-1.62-1.56-2.45-.48-.84-.94-1.68-1.39-2.54-.25-2.86.96-3.38,1.66-3.59.72-.21,1.03-.1-.72-1.7.42-.51-1.15.14-.59-.12-.66-.64-.11-1.51.41-2.28.53-.78,1-1.44.1-1.75-1.6.98-1.19-.42-2.25-.14.15-3.49,1.7-4.5-.28-6.66l.98-.02c-.85-.57-1.4-1.25-1.83-1.97-.11-.18-.21-.36-.31-.55l-.14-.28-.16-.41c-.2-.56-.4-1.13-.6-1.69-.18-.56-.36-1.12-.56-1.69-.18-.56-.37-1.12-.6-1.67-.46-1.12-1.08-2.23-1.97-3.4l-.31-2.51c-.1-.84-.11-1.64-.17-2.46-.1-1.65-.21-3.3-.31-4.94-.1-1.69-.2-3.37-.3-5.06l-.16-2.56-.08-1.29-.02-.32c0-.05-.01-.11,0-.16h.15s.58-.07.58-.07c3.14-.31,6.27-.62,9.39-.94l2.38-.24,2.55-.1,5.16-.21,5.24-.2.66-.03h.32s.17-.03.17-.03l.7-.05,1.39-.1,5.56-.36c3.71-.22,7.42-.4,11.15-.49,14.73.59,29.16-.81,44.12.84,3.51,2.51,3.77,2.45,7.62,1.43-.15.41-.4.5-.14.88.19-2.05,2.71-.19,3.08-2.16,5.53.39,10.63-.18,16.32-.19-.9.22-1.35,1.9-.28,1.77l1.12-1.31.18.57c.73-.3,1.53-1.32.77-1.98,14.3-1.78,28.36,2.35,42.37,1.85,3.33.86,8.06.07,11.67-.35,10.71,2.75,20.36,4.96,31.24,3.04,0,0-1.42,5.32-5.91,6.55Z"/>
    <path class="cls-2" d="M249.36,131.39c-1.04.36-1.64,1.6-2.98.52.97-.08,2.07-.69,2.98-.52Z"/>
    <path class="cls-2" d="M231.82,160.53c.26.16-.57.22-.77.23.09-.37-.54-1.04.06-1.09-.07.38.38.52.71.86Z"/>
    <path class="cls-2" d="M227.72,167.19c-.74-.57-.59-2.36-.23-3.25l.23,3.25Z"/>
    <path class="cls-2" d="M220.73,171.14c-.97.05-1.22-.34-.76-.98.43.23.49.59.76.98Z"/>
    <path class="cls-2" d="M222.16,172.75c-.31.51-.94.41-1.53.33.66.45.4-1.38,1.53-.33Z"/>
    <path class="cls-2" d="M210.23,182.54c-.2.3-.23,1.42-1.19.89.79.28.45-2.06,1.19-.89Z"/>
    <path class="cls-2" d="M205.89,188.24c-.22.1-.39.03-.44.4-.59-.06-.66-.87-.45-1.16l.89.76Z"/>
    <polygon class="cls-2" points="84.68 184.92 85.56 185.17 84.84 185.73 84.68 184.92"/>
    <path class="cls-2" d="M61.44,137.31c-.66-.82.92.28,1.06.31.12.41-1.24-.9-1.06-.31Z"/>
    <polygon class="cls-2" points="83.17 130.22 82.91 130.25 83 128.37 83.17 130.22"/>
  </g>
</svg>