<?xml version="1.0" encoding="UTF-8"?>
<svg id="Layer_3" data-name="Layer 3" xmlns="http://www.w3.org/2000/svg" viewBox="0 0 300 300">
  <defs>
    <style>
      .cls-1 {
        fill: #202020;
      }
    </style>
  </defs>
  <path class="cls-1" d="M184.59,161.9c-.16-.48-.71.25-.29-.31.31.06.55.16.29.31Z"/>
  <path class="cls-1" d="M99.61,163.16c1.07.72,1.11,1.56,1.06,2.45.04.88,0,1.82.78,2.5.12.17-1.12.15-.78.54.87.65,1.33,1.56,1.41,2.63.05.53.01,1.11-.08,1.7-.09.59-.14,1.16-.26,1.73h-.34c-.08.44,1.08.49,1.08.91-.2.08-.33,0-.56.19.63-.14.54.57,1.03.54-.17.24-.64.43-.82.73l.75-.08c1.83-.15.58,1.42,1.77,1.79-.17.04-.32.03-.44.16.8.36,1.26.97,1.82,1.54.53.59,1,1.23,1.57,1.75-.24.09-.66.31-.85.55.67-.37,1.08-.09,1.42.16-.52.61,1,.11.94.73l-.16.08c.87-.23-.06.69.89.3l-.35.56c.96-.58-.13.75.48.62l.17-.15c.37.03.04.5.33.58l-.08.1c.6.25.4.89,1.02.3-.37.61-.63-.2-1.15.71,1.01.41,1.82.99,2.55,1.64.75.64,1.49,1.28,2.23,1.91-.05.41-.01.59-.18.87.26-.01.66.37,1.08.12-.06-.02-.17.42-.11.52.1.47.89-.53.98,0-.26.1-.47.29-.62.58.68-.35.98,0,1.42.04-.13.08-.26.1-.4.33.79-.38.56.59,1.14.41l-.39.33c.17.86.72-.77.95-.17-.19.06-.26.25-.39.41.89-.48,1.43.13,2,.12-.06.05-.12.17-.12.17.51.16.86.69,1.55.63.08.3-.64,1.04-.05,1.16.43-.88,1.05.05,1.26-1.1.35.34.88.99,1.31.81-.35.26-.29,1.21-.69,1.12l.03.68c-.21.36-.23-.26-.36.25.21.05.92-.06,1.02.16.6-.42,1.33-1.3,1.93-1.22-.41.27-.25,1.08-.5,1.18.5-.5.99-1.01,1.47-1.52.2.02-.23.76.12.6.08-.25.25-.37.4-.54.03.13.84.02.61.99-.04.4-.37.09-.27.5.35.11.47-.2.82-.1l-.03.13c.19.22.79-.17.71-.78-.15-.08-.11.59-.26.23.33-.49.76-.5,1.11-.44-.16.13-.22.38-.34.64.68-.63,1.23-.75,1.82-.94.12-.45-.4.78-.41.52.52.79,1.57-.57,1.91.49-.11.06.09-.66.06-.53.3.13.16.81.42.6-.05.4.29-.09.53-.18.16-.27.02.2-.18.22.37-.29,1.65-.73,2.27-.05.02-.26.54-.9.69-.85l-.13.61c.1.39.54.02.51.55.42-.7-1.39.44-.86-.07.06.53.75-.88.56-.06.33.04.7-.63.96-.05-.08-.1-.34.84-.07.81.48-.09.16-.29.55-.48l.25-.24c.05-.6.41.1.28-.58.03.5.68-.27.58.72l-.1.78c.21-.05.37-.81.53-1.15.02.08.07.24.06.36.07-1.2.47.12.73-.79.2.22.46.24.7.3.24.04.44.12.55.49.32-.38.59-.83.96-.59-.07.12-.17.16-.18.42.24.34.29.02.49-.18-.04.18.49.68.78,1.09.3-.37.15-1.02.15-1.41.38,1.17.83-.79,1.28.24-.09.19-.41.61-.12.9.41,1.16.5-.95,1.03-.45l-.23-.96c.28.58.6-.66.68.34.11-.37.59.24.4-.7.88.67,1.73-.69,2.52.84.08-.18.38-.09.22-.56-.29-.48-.17.44-.31.09.09-.05.06-.32.04-.45.27.16.48.18.42,1.02.66.45.18-1.72.91-1.52.06.39.15.53.33.42l.19-.75c.46.05.47.82.66,1.46.2-.17.5-.2.46-.71l.52.75c-.37-.53.08-.44.13-.65l-.06.2c.12.26.33,0,.44-.13-.15-.39-.47-.46-.64-.52.03-.32.22-.32.27-.7.15.65.5.32.69.33.25.07.04-.64.11-.64.11.32.34-.06.34.45-.03.13-.26-.26-.28.06.21.2.39.77.53.26.1-.38-.48-1.21.05-.95-.05.19.02.45.02.7l.49.2-.19-.57c.1.13.08.19.13.26-.11-.63.5-.38.33-1.07.16-.12.54.26.74.26v.06c.33.26.52-.1.54-.55l.04.13c.13,0,.36-.22.36-.61.46.29,1.01,2.04,1.03,1.2.29-.16,0-1.21-.27-1.51.69.13.85-1.01,1.74-.4-.04-.26-.15-.37-.08-.58.84-.21,1.15-1.49,2.33-.8-.08.34.3.52.48.81-.1-.56.51.35.09-.47-.3-.45-.42-.69-.74-.76.14-.25.37-.46.63-.58.24-.14.52-.18.77-.05-.25-.13-.26-.33-.26-.53.45.74.83.64.88.23l-.27-.46.46.34c0-.2-.54-.97-.03-.72.13.16.26.32.39.41-.01-.52-.13-1.33.39-1.15l.67.47c.06-.14-.05-.64-.37-.68.7.05.98-.15,1.53.26-.16-.93-.02-1.61.27-2.13.3-.51.75-.87,1.13-1.22l.26.31c.45.06-.39-.6-.06-.54.2.33.73.42.9.91.58,0-.12-.86-.07-1.17-.35-.39.09.38-.34-.11-.1-.16.68-.12.15-.7.29.14.66.59.86.85l-.11-.44c.89.4.71,1.63,1.76,2.17l.08-.26c.77.39.22,1.11.86.85-.09-.46-.78-1.39-1.19-1.46.22-.54-1.21-1.44-.78-1.8.45.2-.23.39.33.75.66.23.12-.61.42-.66-.39.01-.85-.68-.86-.91.45.02.45.63.76.37-.3-.35-.34-.85-.78-.81-.7-.77.47-.14-.02-.81.64.35,1.04,1.38,1.6,1.26-.58-.39-.4-1.02-1.36-1.48.26,0,.7.32.96.68.49.07-.64-1.24.51-.46l-.52-.5c.23.08.44.1.83.23.15-.17-.35-1.11.51-.46-.05-.12.25-.51-.46-.78-.53-.01.26.61-.66.15.81.32.15-.42.02-.71l.36.21c-.08-.18.12-.32-.22-.63.16.2.41.32.54.31l-.47-.44c-.04-.52.98.54,1.05.09l.24.53c-.05-.11.52.09.46-.19-.42-.38-.97-.87-1.3-1.17-.09-.32.61.26.22-.24l.43.61c.14.14.92.34,1.08.07-.06-.28-.61-.96-1.05-.86.07-.13.49-.13.79.19.02-.39-.56-.28-.71-.71.41.1,1.05.04,1.65.1l.7.76.11-.19c.55.64.58.16,1.22.7.18-.08.02-.38-.09-.61-1.35-.24-1.35-1.29-2.47-1.73-.04-.64,2.75,1,1.36-.38-.32-.05-1.01-.7-.87-.23.28-.26-.97-.74-.33-.89.3.49,1.25.22,1.68.93-.34-.2-.39.1-.32.21.48.07,1.06.56,1.24.21,0-.26.13-.55-.46-.77-.62-.28-.09.34-.65-.08-.02-.5.98-.14-.06-.81-.01.3-.71.06-1.13-.13-.04-.13-.07-.26-.13-.4l.39.24c.48-.34-.7-.47-.42-.88l.91.13c.67.41-.57.54.61.96.17-.29-.38-.64.03-.8.08.11.07.21.15.31.08-.09,1.67.42.94-.39-.26-.37-.39-.22-.83-.4.06-.55-.33-.86-.28-1.19.84.37.3-.53,1.05.13-.57-.01-.8.7-.05,1.2,1.09.21-.3.34.68.86.18-.41,1.17,0,1.86.19.09-.1-.14-.33-.21-.44-.6-.28-.65-.13-1.29-.36.35-.4.18-.98-.33-1.44.37-.05.98.21.96.42.06-.61.25-1.21.61-1.7-1.13.05-.08-.67-1.01-.68-.31.22-1.11.24-1.54-.04.11-.15.45.14.69.13-.51-.38,1-.09.17-.56.2.59,1.24.44,2.03.76-.36-.51.58.17.68-.21-.35-.51-.58-1.06-.64-1.52.9-.37.24-1.37.29-1.85.46-.18,1.38.14,1.59-.12.03-.34-1.06.09-.55-.33l.18.07c-.2-.17.79-.82-.55-1.13l1,.27c.11-.08-.11-.2-.21-.28.33.04.66-.04.85.14.78-.23-.05-.67-.05-1.01l-.62.16c-.45-.61.18-.95,0-1.51l.6.05-.34-.35c.57.11.97-.19.49-.38.47.31.95.63,1.42.96-.37.23-.71-.31-1.31-.19-.52.1-.39.62.18.75.08-.2-.05-.22-.26-.39.84-.01.79.29,1.33.49-.03-.11.23-.25-.03-.29.4.24.45.47.45.83-.31-.27-.52.09-.75-.03.73.09.95.46.7.88-.89.21.41.89.09,1.38-.7-.32-1.25-.65-1.5-.99-.42.26-.04.35-.46.6.53.23,1.35.46,1.61.93l-.55-.07c.21.42,1.02.56.79,1.02-.2.39-.33.8-.45,1.18-.14.38-.27.73-.38,1.04l-.54-.11c1.04.63.11,1.25.48,1.85-.36.32-.35.79-.39,1.19-.07.39-.17.73-.69.77-.06.74-.11,1.45-.24,2.14-.07.34-.14.69-.27,1.02-.15.32-.32.64-.54.96l-.6-.57c.41.49-.49-.05-.5.23.71.01.58.69.93,1.08-.86.32-.64,1.39-.45,2.21l-.49-.25c.56,1.03-.62,1.2-1.16,1.73-.24-.05-.74-.22-.81,0,.52.83.35.98.47,1.8-.24.38-.89.8-1.43.94-.02,1.03-.47,1.77-.96,2.47-.52.68-1.15,1.27-1.49,2.17l-.55-.36c-.16,2.26-2.68,2.65-3.31,4.14l-.58-.95c-.55.03-.6.88-.04,1.42-.57,0-.62,1.09-1.39.53-.5.1-.17.74-.41,1.09-1.02.18-1.21.5-1.87,1.12l.23-.05c-.04-.25-.29-.65-.51-.6-.12.42-1.19.35-.23,1.31-1.2-.19-1.64,1.65-2.92,1.2.24.29.05.45.07.7-.76.37-1.87.07-2.22.9-.19-.11-.06-.64-.38-.54-.13.21.18.43.04.72-.98,1.23-2.81.36-3.89.93-.46.34-.95.62-1.45.87-.51.22-1.05.36-1.59.5-1.08.26-2.14.51-3.16.75l-.02-.26c-.53,1.1-1.78-.78-2.11.8-.2-.23-.65-.03-.59-.55-.47.77-1.6-.41-2.32.49.08.02.11-.03.19-.15-.85-.54-1.51.29-2.39-.2.08-.12.23-.21.25-.47-.34-.49-.74,1.15-.95-.11-.18.02-.12.64,0,.6-.93-.17-1.88-.17-2.86-.03-.97.12-1.98.38-2.97.43-1.3-.95.15-2.14-1.04-1.35-.06-.26-.12.47-.11.21-.47.29-.45-1.5-.83-.88,0,.79-.25.4-.33.87-.76-.62-.79-1.34-1.55-.85l.12-.4c-.98,1.01-1.72.16-2.68,1.31-2.18-.32-4.28-.85-6.42-1.34-1.05-.28-2.07-.66-3.11-1.01-.51-.19-1.03-.37-1.54-.58-.49-.24-.98-.48-1.47-.74-3.67-2.26-7.47-4.48-10.11-8.11.06-1.5,0-1.51-1.1-2.03.16-.08.24-.06.31-.22-.7.55-.61-.5-1.3-.05-.45-.69-.95-1.29-1.47-1.88-.51-.6-1.1-1.16-1.53-1.88.22.17.89-.14.67-.36l-.64.05.17-.18c-.22-.11-.72-.06-.83.29-.74-.79-1.35-1.67-1.87-2.6-.44-.97-.8-1.99-1.13-2.99-.37-.99-.56-2.05-.82-3.06-.13-.51-.27-1.01-.43-1.5-.17-.49-.34-.97-.49-1.47.09-1.05-.6-2.29-1.05-3.29.27-1.68.59-3.22.64-4.7.18-1.49.14-2.92-.35-4.48,0,0,2.31.41,2.9,1.58Z"/>
  <path class="cls-1" d="M184.65,162.48c-.45.09-.71.41-1.29.14.42-.02.89-.18,1.29-.14Z"/>
  <path class="cls-1" d="M178.98,170.21c.12.04-.2.06-.28.07,0-.1-.34-.28-.1-.3,0,.1.21.14.38.23Z"/>
  <path class="cls-1" d="M178.19,172.08c-.37-.15-.56-.66-.54-.91l.54.91Z"/>
  <path class="cls-1" d="M176,173.24c-.37.02-.52-.09-.44-.27.2.06.27.16.44.27Z"/>
  <path class="cls-1" d="M176.79,173.69c-.05.15-.29.13-.52.11.32.12-.07-.4.52-.11Z"/>
  <path class="cls-1" d="M174.11,176.77c-.01.1.18.44-.24.3.31.06-.24-.64.24-.3Z"/>
  <path class="cls-1" d="M173.72,178.63c-.05.04-.13.02-.07.13-.21,0-.4-.25-.38-.35l.45.21Z"/>
  <polygon class="cls-1" points="146.27 197.3 146.45 197.08 146.47 197.47 146.27 197.3"/>
  <path class="cls-1" d="M130.96,196.08c-.27.19-.04-.39-.06-.45.19,0-.2.45.06.45Z"/>
  <polygon class="cls-1" points="122.33 194.8 122.39 194.82 122 195.53 122.33 194.8"/>
</svg>