<?xml version="1.0" encoding="UTF-8"?>
<svg id="Layer_3" data-name="Layer 3" xmlns="http://www.w3.org/2000/svg" viewBox="0 0 300 300">
  <defs>
    <style>
      .cls-1 {
        fill: #202020;
      }
    </style>
  </defs>
  <path class="cls-1" d="M249.53,109.94c-.39-1.12-1.63.59-.7-.73.74.15,1.29.37.7.73Z"/>
  <path class="cls-1" d="M51.6,112.88c1.2.84,1.88,1.74,2.23,2.7.35.95.36,1.97.34,3.01.02,1.03,0,2.08.18,3.09.1.5.24.99.48,1.46.26.46.61.9,1.07,1.29.28.4-2.61.35-1.79,1.24,2.13,1.5,3.08,3.64,3.23,6.14.14,1.24.09,2.56-.08,3.92-.18,1.36-.36,2.72-.65,4.06h-.79c-.2,1.02,2.44,1.17,2.49,2.13-.45.19-.76-.02-1.31.43,1.47-.34,1.29,1.3,2.46,1.23-.4.57-1.49,1-1.9,1.7l1.75-.19c2.13-.14,2.45.65,2.57,1.65.14.98.04,2.18,1.46,2.56-.39.1-.76.07-1.02.38,3.66,1.68,5.18,5.27,7.94,7.63-.57.22-1.55.73-1.99,1.28,1.57-.85,2.55-.22,3.35.34-1.23,1.41,2.31.28,2.14,1.74l-.38.17c2-.53-.15,1.63,2.05.73l-.8,1.29c2.23-1.36-.29,1.74,1.15,1.42l.39-.36c.88.07.1,1.16.8,1.32l-.19.24c1.4.57.89,2.1,2.35.73-.87,1.43-1.43-.48-2.67,1.64,4.54,2.03,7.59,5.4,11.1,8.3-.12.95-.01,1.35-.4,2.01.61-.03,1.57.82,2.53.25-.15-.06-.39.99-.26,1.21.22,1.11,2.06-1.23,2.25.03-.61.22-1.1.66-1.44,1.34,1.57-.8,2.24.04,3.29.13-.31.2-.61.24-.95.78,1.85-.9,1.32,1.34,2.68.9l-.92.79c.42,1.98,1.69-1.8,2.24-.42-.44.15-.6.59-.9.95,2.1-1.14,3.3.36,4.63.34-.14.1-.28.38-.28.38,1.17.43,2.01,1.58,3.63,1.42.19.69-1.48,2.43-.11,2.68,1.02-2.07,2.43.14,2.93-2.56.81.82,2.02,2.37,3.01,1.97-.82.59-.69,2.84-1.61,2.61l.07,1.58c-.5.84-.55-.6-.84.59.48.12,2.15-.19,2.39.33,1.39-.98,3.13-3.1,4.51-2.88-.95.62-.59,2.53-1.16,2.74,1.17-1.16,2.3-2.33,3.41-3.5.46.05-.54,1.76.28,1.42.18-.59.57-.85.93-1.25.04.15.52.18.93.44.41.25.75.73.49,1.85-.09.92-.87.23-.64,1.16.83.24,1.1-.5,1.92-.27l-.08.3c.44.5,1.86-.44,1.65-1.83-.34-.19-.26,1.37-.61.55.77-1.16,1.78-1.21,2.59-1.04-.37.29-.51.88-.8,1.48,1.59-1.45,2.85-1.7,4.21-2.11.28-1.06-.92,1.81-.96,1.2.58.95,1.52.61,2.38.33.87-.27,1.66-.47,2.08.76-.25.14.2-1.54.15-1.24.71.29.37,1.85.97,1.36-.13.92.67-.19,1.22-.38.38-.62.05.47-.41.5.87-.68,3.82-1.55,5.27-.07.05-.62,1.26-2.12,1.61-2.01l-.31,1.41c.24.9,1.25.02,1.19,1.26.99-1.64-3.25,1.11-2.02-.11.15,1.23,1.76-2.09,1.31-.18.76.05,1.63-1.49,2.23-.11-.19-.25-.79,1.94-.16,1.89,1.11-.18.37-.66,1.28-1.08l.59-.55c.13-1.39.94.26.64-1.33.07,1.16,1.57-.59,1.35,1.7l-.23,1.82c.48-.13.86-1.91,1.25-2.71.05.17.16.54.13.84.16-2.79,1.1.26,1.69-1.89.47.5,1.08.54,1.63.66.55.1,1.03.31,1.28,1.18.74-.87,1.38-1.89,2.24-1.31-.16.26-.39.35-.42.96.56.81.67.07,1.14-.39-.09.44,1.14,1.58,1.82,2.52.7-.89.34-2.38.35-3.3.88,2.7,1.92-1.91,2.97.5-.21.42-.96,1.43-.27,2.09.97,2.68,1.18-2.19,2.4-1l-.53-2.25c.65,1.35,1.41-1.5,1.6.83.25-.86,1.38.6.94-1.6,1.01.79,2.04.32,3.01.14.98-.17,1.9-.1,2.85,1.73.18-.42.89-.18.52-1.28-.67-1.13-.4,1-.73.2.21-.12.14-.73.1-1.03.64.38,1.11.45.98,2.38,1.54,1.08.44-3.97,2.14-3.47.15.92.35,1.23.76.97l.44-1.76c1.06.1,1.1,1.88,1.52,3.39.47-.41,1.15-.51,1.07-1.7l1.2,1.72c-.87-1.24.18-1.03.31-1.49l-.14.45c.29.6.78.01,1.03-.27-.36-.9-1.09-1.08-1.5-1.25.07-.75.53-.72.63-1.61.34,1.51,1.17.77,1.63.8.58.16.1-1.48.25-1.47.26.76.81-.12.8,1.06-.08.29-.61-.62-.66.13.5.46.91,1.79,1.24.63.24-.88-1.11-2.82.11-2.23-.11.45.05,1.05.05,1.63l1.12.43-.44-1.33c.23.29.2.43.31.59-.25-1.48,1.15-.91.75-2.53.37-.29,1.24.57,1.71.57l-.03.14c.8.58,1.25-.22,1.3-1.26l.1.29c.31-.01.85-.49.86-1.38,1.09.69,2.35,4.74,2.4,2.81.69-.33,0-2.84-.63-3.51,1.6.27,1.94-2.42,4.02-1.02-.09-.59-.36-.85-.17-1.33.98-.22,1.68-1.07,2.46-1.65.79-.57,1.6-.96,2.99-.17-.18.8.69,1.22,1.11,1.9-.24-1.32,1.17.81.19-1.11-.7-1.05-.99-1.6-1.72-1.76.32-.59.84-1.1,1.44-1.39.58-.31,1.23-.4,1.83-.08-.59-.31-.6-.77-.6-1.23,1.04,1.73,1.93,1.5,2.07.55l-.62-1.07,1.07.81c-.02-.47-1.25-2.25-.06-1.66.3.37.61.74.91.95-.04-1.22-.32-3.13.87-2.72l1.56,1.08c.13-.34-.12-1.5-.87-1.59,1.62.11,2.31-.31,3.6.65-.36-2.14-.01-3.69.63-4.95.66-1.23,1.68-2.1,2.61-2.86l.59.71c1.07.16-.89-1.39-.12-1.25.47.77,1.7,1,2.09,2.13,1.37,0-.26-1.99-.13-2.7-.8-.9.21.88-.81-.27-.23-.36,1.56-.28.32-1.64.68.32,1.54,1.37,1.99,1.98l-.26-1.03c2.06.92,1.68,3.82,4.1,5.07l.17-.61c1.77.9.54,2.61,2,1.98-.22-1.09-1.83-3.26-2.79-3.41.48-1.27-2.83-3.37-1.84-4.22,1.05.45-.51.93.78,1.76,1.52.52.24-1.45.96-1.54-.91.01-1.98-1.6-1.99-2.1,1.07.06,1.04,1.45,1.78.86-.7-.81-.78-1.95-1.8-1.87-1.63-1.78,1.11-.3,0-1.85,1.5.82,2.41,3.19,3.72,2.94-1.36-.91-.91-2.35-3.14-3.44.61,0,1.63.74,2.24,1.59,1.14.15-1.52-2.91,1.14-1.09l-1.2-1.16c.54.19,1.01.23,1.9.54.33-.39-.85-2.6,1.16-1.1-.12-.29.61-1.17-1.05-1.8-1.25-.04.59,1.41-1.56.35,1.86.73.37-.97.07-1.65l.83.5c-.18-.41.3-.74-.48-1.45.36.46.96.76,1.26.73l-1.08-1.03c-.08-1.19,2.28,1.25,2.46.23l.55,1.23c-.11-.27,1.22.22,1.1-.42-1.03-.88-2.22-2.04-3.03-2.72-.23-.76,1.41.61.5-.56l1.02,1.44c.32.33,2.12.79,2.48.14-.15-.65-1.45-2.24-2.45-2.01.16-.31,1.13-.32,1.82.43.02-.93-1.3-.65-1.66-1.66.93.22,2.46.08,3.86.23l1.6,1.77.26-.44c1.26,1.47,1.37.38,2.84,1.64.44-.17.08-.87-.19-1.41-3.16-.56-3.12-2.99-5.72-4.01-.05-1.49,6.43,2.36,3.16-.89-.75-.11-2.36-1.64-2-.53.63-.61-2.26-1.73-.82-2.08.72,1.14,2.88.5,3.92,2.17-.8-.46-.89.23-.72.5,1.11.15,2.47,1.3,2.86.49,0-.61.27-1.31-1.09-1.81-1.45-.65-.2.81-1.51-.18-.06-1.17,2.25-.34-.17-1.89-.05.7-1.64.15-2.62-.31-.09-.31-.19-.62-.3-.94l.91.56c1.15-.79-1.62-1.1-.93-2.02l2.13.31c1.55.95-1.38,1.24,1.38,2.22.41-.67-.87-1.48.11-1.85.17.24.15.47.33.72.19-.21,3.9.99,2.23-.9-.6-.86-.91-.52-1.93-.93.13-1.28-.82-2.01-.71-2.79,1.96.87.67-1.24,2.44.3-1.32-.02-1.8,1.66-.04,2.82,2.53.49-.7.79,1.56,1.99.45-.93,2.76.02,4.35.45.21-.24-.33-.77-.51-1.03-1.4-.66-1.51-.29-2.99-.84.78-.95.36-2.31-.85-3.38.85-.11,2.27.49,2.25.97.08-1.44.62-2.81,1.47-3.94-2.66.11-.15-1.56-2.32-1.57-.74.51-2.63.56-3.6-.1.28-.35,1.05.32,1.62.3-1.17-.88,2.38-.21.4-1.29.48,1.38,2.9,1.04,4.74,1.77-.85-1.19,1.34.41,1.56-.5-.83-1.19-1.41-2.48-1.58-3.56,2.1-.86.65-3.18.79-4.28,1.09-.43,3.21.33,3.69-.28.06-.78-2.45.21-1.29-.78l.42.17c-.47-.41,1.78-1.92-1.34-2.64l2.35.64c.24-.19-.28-.46-.51-.66.78.08,1.52-.09,1.98.32,1.77-.54-.1-1.57-.1-2.35l-1.46.37c-1.01-1.42.48-2.2.07-3.52l1.39.11-.81-.82c1.34.25,2.24-.44,1.12-.89,1.11.71,2.25,1.46,3.34,2.22-.87.53-1.63-.73-3.03-.44-1.22.24-.94,1.45.38,1.75.19-.46-.11-.5-.58-.9,1.95-.03,1.82.68,3.08,1.14-.06-.26.56-.58-.05-.67.91.56,1.01,1.08.99,1.92-.71-.63-1.22.2-1.76-.06,1.69.21,2.17,1.07,1.58,2.05-2.06.5,1,2.08.3,3.23-1.65-.74-2.94-1.53-3.54-2.31-.96.61-.06.81-1.03,1.41,1.23.53,3.16,1.07,3.8,2.17l-1.27-.15c.48.97,2.34,1.3,1.78,2.37-.5.91-.82,1.85-1.11,2.75-.3.89-.58,1.72-.82,2.43l-1.25-.25c1.23.73,1.3,1.47,1.19,2.19-.14.72-.49,1.41-.07,2.12-.87.74-.86,1.82-.97,2.76-.14.93-.35,1.71-1.55,1.8-.06.87-.09,1.72-.18,2.56-.1.82-.23,1.63-.4,2.43-.17.8-.37,1.59-.68,2.36-.32.76-.71,1.52-1.2,2.26l-1.42-1.33c.96,1.15-1.14-.1-1.15.56,1.64.02,1.37,1.61,2.18,2.52-2.01.72-1.58,3.2-1.14,5.1l-1.13-.59c1.33,2.42-1.37,2.83-2.62,4.09-.56-.12-1.74-.52-1.91-.01,1.19,1.92.78,2.26,1.04,4.16-.58.86-2.04,1.88-3.29,2.23.02,2.45-1.11,4.1-2.29,5.72-1.23,1.58-2.61,3.04-3.4,5.12l-1.28-.84c-.25,2.5-1.79,4.16-3.48,5.47-1.66,1.37-3.45,2.42-4.26,4.13l-1.36-2.2c-1.29.04-1.43,2.02-.12,3.29-1.32,0-1.41,2.59-3.19,1.29-1.14.26-.38,1.76-.94,2.55-2.38.41-2.88,1.08-4.4,2.56l.52-.13c-.11-.59-.68-1.53-1.19-1.4-.28,1-2.75.86-.52,3.09-1.4-.18-2.31.79-3.31,1.64-.99.86-2.03,1.66-3.52,1.1.55.67.13,1.04.18,1.65-1.77.87-4.29.27-5.15,2.15-.45-.26-.12-1.49-.88-1.26-.3.47.43,1,.08,1.66-1.15,1.33-2.79,1.63-4.46,1.63-1.67.02-3.29-.05-4.59.55-4.31,3.19-9.76,3.66-14.47,4.87l-.06-.61c-.59,1.29-1.65.86-2.62.56-.98-.3-1.86-.44-2.27,1.39-.47-.53-1.51-.1-1.37-1.3-1.1,1.79-3.74-1.08-5.41,1.11.18.05.26-.09.44-.37-1-.61-1.86-.42-2.75-.21-.89.22-1.79.42-2.81-.18.19-.27.55-.47.58-1.09-.78-1.16-1.73,2.64-2.21-.32-.43.04-.28,1.49-.01,1.4-2.17-.48-4.38-.39-6.66-.03-1.14.2-2.29.35-3.44.53-1.16.16-2.32.35-3.47.4-3.05-2.14.35-4.98-2.42-3.09-.13-.59-.29,1.11-.25.49-1.09.69-1.06-3.44-1.93-2.02.01,1.84-.59.93-.78,2.02-1.77-1.49-1.84-3.17-3.6-2.07l.29-.92c-2.28,2.33-4.02.43-6.25,3.14-5.03-.97-10.02-1.87-14.92-3.21-4.88-1.37-9.74-2.98-14.29-5.37-4.25-2.76-8.6-5.25-12.64-8.28-4.04-3-7.91-6.36-10.92-10.61.08-3.44,0-3.53-2.53-4.75.37-.2.55-.14.72-.52-1.62,1.28-1.38-1.21-3.01-.12-2.16-3.13-4.77-5.52-7.01-8.75.53.39,2.08-.33,1.56-.85l-1.51.12.4-.43c-.53-.24-1.69-.13-1.94.67-1.81-1.78-3.11-3.92-4.29-6.1-1.07-2.25-2.01-4.55-2.69-6.94-.76-2.35-1.29-4.77-1.95-7.11-.32-1.17-.59-2.36-.95-3.51-.36-1.15-.74-2.29-1.13-3.42.09-1.22-.32-2.53-.81-3.85-.48-1.33-1.11-2.65-1.61-3.81.27-1.95.62-3.83.84-5.64.29-1.82.55-3.57.65-5.3.16-1.73.23-3.43.07-5.15-.09-1.72-.34-3.46-.87-5.27,0,0,5.35.96,6.66,3.67Z"/>
  <path class="cls-1" d="M249.7,111.29c-1.04.22-1.62.97-2.98.32.97-.05,2.06-.42,2.98-.32Z"/>
  <path class="cls-1" d="M236.54,129.31c.29.1-.47.15-.65.16-.02-.24-.81-.66-.25-.7.02.24.5.33.9.54Z"/>
  <path class="cls-1" d="M234.63,133.65c-.85-.36-1.26-1.52-1.2-2.11l1.2,2.11Z"/>
  <path class="cls-1" d="M229.62,136.39c-.86.05-1.21-.2-1.01-.63.47.14.64.38,1.01.63Z"/>
  <path class="cls-1" d="M231.45,137.43c-.12.34-.69.3-1.24.26.73.28-.14-.93,1.24-.26Z"/>
  <path class="cls-1" d="M225.17,144.58c-.04.22.4,1.01-.58.69.73.14-.52-1.48.58-.69Z"/>
  <path class="cls-1" d="M224.26,148.93c-.12.09-.3.04-.16.32-.49,0-.92-.59-.89-.81l1.05.49Z"/>
  <polygon class="cls-1" points="160.3 192.38 160.74 191.87 160.77 192.78 160.3 192.38"/>
  <path class="cls-1" d="M124.66,189.55c-.63.43-.09-.92-.13-1.07.45.02-.46,1.05.13,1.07Z"/>
  <polygon class="cls-1" points="104.56 186.54 104.71 186.59 103.8 188.23 104.56 186.54"/>
</svg>