<?xml version="1.0" encoding="UTF-8"?>
<svg id="Layer_3" data-name="Layer 3" xmlns="http://www.w3.org/2000/svg" viewBox="0 0 300 300">
  <defs>
    <style>
      .cls-1 {
        fill: #fff;
      }

      .cls-2 {
        fill: #202020;
      }
    </style>
  </defs>
  <g>
    <path class="cls-1" d="M191.3,130.53c0,21.51-18.49,38.94-41.3,38.94s-41.3-17.43-41.3-38.94h82.6Z"/>
    <g>
      <path class="cls-2" d="M192.74,131.05c-.14-.79-.71.42-.28-.52.31.11.55.26.28.52Z"/>
      <path class="cls-2" d="M188.76,129.52c-2.47,2.06-5.71-.02-8.41,1.29-.32.09.08-1.13-.63-.86-2.62,1.6-6.74.64-9.93-.59l.19-.32c-.61-.23-1.35.82-1.99.68,0-.21.21-.3.06-.59-.16.64-1.16.29-1.44.77-.25-.25-.23-.76-.56-1.03l-.37.73c-1.02,1.73-2.49-.12-3.88.77.07-.17.21-.3.09-.46-2.24,1.05-5.05.85-7.56,1.24.1-.26.19-.73.05-1.01-.12.77-.9.96-1.57,1.11-.3-.79-1.15.72-1.94.28l.07-.18c-.58.82-.86-.47-1.34.51l-.37-.62c-.26,1.11-.84-.57-1.32-.01l.02.23c-.45.27-.69-.29-1.11-.1l-.04-.13c-.99.29-1.56-.32-1.54.54-.35-.69.96-.31.41-1.32-3.24.89-6.59.72-9.86.73-.37-.35-.61-.45-.69-.78-.33.17-1.23.16-1.53.6.11-.02-.21-.44-.38-.49-.59-.33-.65.95-1.3.56.26-.23.35-.51.26-.83-.56.67-1.3.57-1.96.79.1-.15.26-.23.24-.5-.72.77-1.31-.16-1.94.32l.24-.5c-1.02-.61-.3,1.04-1.18.69.21-.16.14-.35.17-.56-.82.91-2.14.61-2.96.92.05-.07.04-.2.04-.2-.89.11-1.82-.17-2.8.23-.36-.22.12-1.22-.83-1.04.03,1-1.6.41-1.04,1.55-.8-.16-2.08-.54-2.61-.2.36-.38-.39-1.23.28-1.31l-.51-.61c.07-.41.52.14.36-.38-.34.04-1.31.44-1.61.27-.31.31-.61.75-.95,1.13-.33.38-.61.7-1.01.76.34-.39-.49-1.11-.23-1.28-.35.64-.54,1.28-.58,1.92-.21.05-.43-.79-.68-.53.16.27.09.43.12.64-.18-.11-.72.25-1.7-.74-.47-.39.29-.21-.33-.56-.56.01-.26.35-.77.36l-.15-.13c-.06-.02-.12-.03-.17-.02-.02,0-.05,0-.07.01l.03.1c.05.15.14.33.25.5.22.34.53.64.82.73.02-.17-.65-.47-.35-.52.64.78.84,1.35.87,1.74-.18-.25-.47-.42-.77-.69.88,1.18,1.15,1.77,1.54,2.36.5.16-.93-.45-.67-.47-.33.26.02.77.26,1.11.13.17.24.32.27.47.03.14-.03.28-.22.59-.11-.13.64-.21.51-.17.03.53-.65.65-.33.94-.38.12.24.4.45.71.33.11-.16.14-.29-.16.23.2.63.75.93,1.39.3.64.49,1.39.46,2.01.24-.1,1.17.32,1.23.57l-.61.13c-.26.36.37.8-.11,1.04.9.25-1.39-1.81-.57-1.3-.41.37,1.3.64.46.79.22.49,1.04.69.69,1.4.04-.18-.94-.06-.74.33.44.64.37.08.83.54l.4.23c.55-.24.23.63.71.09-.4.31.76.82-.15,1.22l-.74.28c.2.27.97.09,1.39.14-.05.07-.14.23-.26.28,1.04-.54.33.71,1.33.56.01.79.89,1.45.45,2.15.57.25,1.23.34,1.39.96-.16-.02-.29-.13-.52,0-.05.51.26.39.63.54-.19.05-.08,1.03-.14,1.64.61.19.98-.38,1.32-.6-.62,1.18,1.57.55,1.17,1.72-.24-.01-.96-.15-.87.37-.51,1.18,1.31.1,1.44,1.06l.56-.84c-.1.34.2.44.42.54.24.08.4.16.03.51.44-.1.48.83,1.05.06.21.71.87,1.12,1.41,1.57.55.44,1.03.86.84,1.79.24-.02.52.37.73-.08.06-.61-.57.07-.45-.29.15.07.33-.12.42-.22.19.4.41.64-.35,1.08.41,1,1.64-.79,2.37.09-.25.31-.26.48.06.59l.88-.28c.54.49-.1.99-.42,1.58.4.09.8.37,1.2.01l.02.99c-.01-.72.46-.18.71-.27l-.24.07c-.06.28.43.32.68.33.13-.4-.21-.74-.38-.95.31-.18.56,0,.95-.2-.37.56.37.68.62.87.26.28.6-.38.69-.31-.13.32.5.29.06.62-.15.05-.11-.42-.42-.23.11.33-.16.86.46.67.46-.15.43-1.24.88-.57-.23.08-.36.31-.58.47l.46.59.25-.55c.02.18-.05.2-.04.29.41-.52,1,.14,1.39-.48.32.05.5.61.77.78l-.07.03c.24.46.8.4,1.22.12l-.05.12c.18.12.67.18,1.02-.11.38.56-.43,2.23.34,1.64.54.11,1.08-.87.97-1.3.84.61,2.05-.05,2.76.95.17-.22.12-.38.41-.48.66.21,1.41.14,2.1.18.69.06,1.33.08,1.85.72-.42.23-.07.6-.08.94.37-.52.38.58.55-.34,0-.54.04-.81-.34-1.04.84-.26,2.06-.17,2.53.32-.23-.24-.05-.42.12-.59-.06.87.57.97,1.02.64l.05-.53.32.53c.17-.18.14-1.12.62-.63.04.2.07.41.17.55.46-.47,1.05-1.18,1.59-.82l.5.71c.21-.12.52-.63.11-.8.92.34,1.49.31,1.88.93.32-.46.68-.81,1.07-1.12.39-.33.8-.6,1.24-.81.86-.45,1.82-.58,2.64-.83l.07.4c.55.2.02-.74.41-.58-.03.41.59.66.38,1.22.78.17.61-.94.96-1.25-.11-.51-.22.43-.36-.22,0-.2,1.01.08.83-.69.27.23.35.82.38,1.14l.25-.49c.83.69-.52,1.91.39,2.79l.34-.25c.67.64-.7,1.22.38,1.15.3-.5.2-1.71-.28-1.88.74-.56-.33-1.9.53-2.23.42.32-.63.41-.22.93.65.4.67-.69,1.11-.65-.52-.09-.51-.97-.33-1.21.58.14.04.8.68.6-.09-.46.3-1.01-.31-1.08-.24-1.02.75,0,.69-.89.53.54.17,1.81.98,1.78-.42-.57.34-1.29-.48-2.01.33.04.63.5.65.98.57.17.22-1.6,1.03-.46l-.24-.69c.23.14.47.2.85.43.33-.17.49-1.38,1.03-.48.03-.16.73-.59.06-1.03-.66-.09-.17.8-.95.1.74.5.53-.5.61-.89l.27.32c.05-.23.42-.38.25-.81.03.27.25.46.42.47l-.22-.62c.37-.65.78.81,1.23.27l-.13.69c.03-.15.57.19.73-.16-.24-.54-.47-1.22-.66-1.64.14-.43.53.41.45-.3l.06.86c.06.2.84.54,1.23.18.13-.38-.03-1.34-.62-1.25.18-.17.68-.13.8.32.31-.53-.46-.42-.32-1.02.4.16,1.25.16,1.93.31l.24,1.06.28-.23c.16.88.59.28.93,1.05.29-.07.33-.48.35-.82-1.41-.42-.68-1.88-1.67-2.57.41-.9,2.5,1.59,1.85-.43-.34-.09-.68-1.05-.85-.38.51-.34-.61-1.09.24-1.25,0,.7,1.3.4,1.3,1.41-.26-.3-.52.1-.52.27.51.13.85.85,1.29.39.2-.34.48-.8-.03-1.14-.53-.43-.3.51-.68-.14.28-.74,1.16-.18.42-1.19-.22.43-.83.07-1.18-.24l.11-.59.29.37c.78-.46-.49-.71.11-1.27l.95.24c.49.62-1.02.73.06,1.4.39-.4,0-.93.57-1.14.01.15-.06.3-.04.45.14-.13,1.65.72,1.32-.52-.09-.57-.31-.35-.69-.63.36-.83.1-1.3.33-1.81.71.59.62-.79,1.08.23-.62-.04-1.25,1.04-.7,1.81,1.06.34-.49.52.26,1.3.47-.57,1.29.05,1.95.35.16-.15.03-.5,0-.67-.5-.44-.64-.21-1.21-.58.6-.6.72-1.48.41-2.18.43-.06.95.35.82.66.09-.23.2-.46.33-.68.11-.23.22-.46.34-.68.25-.44.54-.85.84-1.22-1.24.05.25-1.04-.75-1.06-.44.34-1.32.35-1.63-.1.2-.23.42.22.68.21-.36-.59,1.12-.12.46-.85-.08.91,1.11.71,1.81,1.21-.13-.79.53.28.83-.31-.18-.81-.24-1.7-.15-2.44.53-.28.77-.82.85-1.39.05-.58,0-1.17.09-1.56.52-.3,1.37.23,1.66-.18.13-.54-1.11.14-.47-.54l.16.12c-.14-.28,1.03-1.33-.31-1.84l.98.45c.12-.13-.09-.32-.18-.47.33.06.66-.06.84.23.78-.38.06-1.11.12-1.66l-.66.26c-.35-1.01.44-1.54.24-2.49l.6.08-.33-.58c.57.18.97-.31.5-.63.46.51.92,1.04,1.38,1.58-.37.38-.7-.52-1.3-.31-.26.08-.36.34-.33.61,0,.26.15.53.43.64.12-.32,0-.35-.19-.63.85-.02.74.48,1.25.8,0-.18.29-.41.03-.47.35.39.35.76.28,1.35-.26-.44-.55.14-.76-.05.72.15.85.76.53,1.45-.46.18-.38.54-.23.97.15.42.29.9.07,1.29-.64-.52-1.07-1.06-1.29-1.62-.45.43-.12.56-.61.98.47.37,1.25.75,1.39,1.51l-.54-.11c.1.68.88.91.52,1.66-.66,1.26-1.24,2.56-1.67,3.52l-.52-.18c.91,1.03-.45,1.93-.33,2.88-.55.48-.75,1.21-1.01,1.81-.28.59-.58,1.09-1.16,1.13-.47,1.11-.87,2.2-1.51,3.14-.3.49-.62.96-.97,1.43-.35.47-.72.94-1.21,1.34l-.31-.83c.13.71-.54-.1-.75.28.81.07.2.99.33,1.55-.61.19-1.03.65-1.35,1.21-.32.56-.6,1.15-.78,1.7l-.39-.39c-.04.71-.45,1.1-.96,1.39-.52.29-1.14.48-1.71.76-.25-.1-.74-.38-1-.13-.03,1.1-.35,1.26-.87,2.29-.58.46-1.77.8-2.56.89-.44.61-.95,1.11-1.5,1.56-.57.41-1.2.72-1.83,1.04-.63.32-1.28.62-1.91.96-.65.31-1.3.61-1.92,1.03l-.41-.54c-.54.55-1.19.97-1.89,1.29-.71.26-1.46.44-2.21.6-.74.15-1.47.3-2.16.44-.7.11-1.34.26-1.91.52l.06-1.12c-.77-.23-1.62.53-1.35,1.27-.39-.12-.84.1-1.27.19-.43.08-.84.1-1.11-.34-.78-.17-.91.55-1.55.73-.78-.17-1.31-.23-1.83-.21-.52-.03-1.03.03-1.76.1l.36.09c.17-.23.19-.7-.16-.79-.55.28-1.96-.39-1.5.95-1.49-.76-3.73.21-5.09-.99.07.37-.33.39-.53.6-1.38-.22-2.6-1.33-3.83-.99-.17-.23.5-.51-.04-.68-.36.05-.13.45-.58.55-1.18.03-2.21-.56-3.18-1.13-.48-.29-.95-.59-1.42-.87-.45-.31-.91-.57-1.39-.74-.89-.22-1.77-.49-2.63-.83-.83-.39-1.65-.83-2.45-1.28l-1.19-.69c-.39-.24-.75-.52-1.12-.78-.74-.52-1.46-1.04-2.19-1.52l.19-.19c-.8.08-1.14-.61-1.52-1.17-.37-.58-.75-1.07-1.61-.81-.04-.37-.72-.78-.22-1.02-1.18-.13-1.33-2.32-2.91-2.65.07.11.16.12.34.15-.27-.67-.71-1.12-1.15-1.59-.45-.46-.91-.94-1.14-1.66.18.04.41.2.64.07.07-.72-1.7-.35-.85-1.34-.18-.25-.64.18-.51.32-.63-1.46-1.62-2.71-2.55-4.06-.46-.68-.93-1.36-1.4-2.05-.23-.35-.48-.69-.69-1.04l-.57-1.1c-.14-2.47,1.94-.91.4-2.27.18-.22-.5.06-.26-.05-.61-.55.98-1.47.22-1.73-.69.42-.5-.18-.96-.06.11-1.52.73-1.93-.14-2.86h.42c-.38-.25-.6-.55-.78-.86-.09-.16-.17-.32-.24-.48-.08-.25-.16-.49-.24-.73-.32-1.01-.7-2.01-1.4-2.97-.12-1.45-.24-2.89-.36-4.32l-.19-2.2-.1-1.11c0-.34-.22-.89.28-.76,2.72-.21,5.45-.47,8.49-.55l2.25-.09.5-.02.3-.02.6-.04,2.39-.16c1.6-.1,3.19-.17,4.79-.21,6.34.26,12.54-.35,18.98.36,1.51,1.08,1.62,1.05,3.28.61-.07.18-.17.21-.06.38.08-.88,1.17-.08,1.32-.93,2.38.17,4.57-.08,7.02-.08-.39.09-.58.82-.12.76l.48-.57.08.25c.31-.13.66-.57.33-.85,6.15-.77,12.2,1.01,18.22.79,1.43.37,3.47.03,5.02-.15,4.61,1.18,8.76,2.14,13.44,1.31,0,0-.61,2.29-2.54,2.82Z"/>
      <path class="cls-2" d="M192.77,132.01c-.45.16-.72.69-1.29.23.42-.03.9-.3,1.29-.23Z"/>
      <path class="cls-2" d="M185.26,144.55c.11.07-.25.09-.34.1.04-.16-.22-.44.03-.47-.02.17.17.22.3.37Z"/>
      <path class="cls-2" d="M183.5,147.42c-.32-.24-.27-1.02-.13-1.41l.13,1.41Z"/>
      <path class="cls-2" d="M180.48,149.11c-.41.03-.52-.14-.33-.42.19.1.21.25.33.42Z"/>
      <path class="cls-2" d="M181.1,149.81c-.12.22-.41.18-.66.14.29.2.18-.59.66-.14Z"/>
      <path class="cls-2" d="M175.97,154.01c-.08.13-.09.62-.51.39.35.13.18-.89.51-.39Z"/>
      <path class="cls-2" d="M174.09,156.46c-.09.04-.17.01-.18.18-.25-.02-.29-.37-.2-.5l.38.33Z"/>
      <polygon class="cls-2" points="121.98 155.01 122.35 155.12 122.04 155.36 121.98 155.01"/>
      <path class="cls-2" d="M112,134.55c-.28-.35.39.12.46.13.05.17-.53-.39-.46-.13Z"/>
      <polygon class="cls-2" points="121.33 131.51 121.21 131.52 121.25 130.71 121.33 131.51"/>
    </g>
  </g>
  <g>
    <path class="cls-1" d="M111.02,144.84c.43,0,17.62,6.21,27.4,5.45l2.64-.85,3.23,1.7,5.11-1.19"/>
    <g>
      <path class="cls-2" d="M111.22,143.78c-.3.09.11.53-.2.2.03-.23.11-.4.2-.2Z"/>
      <path class="cls-2" d="M148.76,149.32c-.11,1.59-1.06.23-1.34,1.3-.04.08-.17-.82-.26-.59-.11.63-.39.82-.75.76-.36-.06-.82-.37-1.1-.78v-.24c-.1-.15-.14.66-.26.57,0-.16.02-.23-.01-.45,0,.49-.16.26-.21.63-.04-.18-.03-.57-.06-.77l-.08.57c-.12.72-.26.69-.36.6-.09-.16-.16-.36-.33-.1.04-.12.08-.21.09-.34-.52.61-1.03.17-1.58.2.11-.16.28-.46.36-.66-.29.49-.48.55-.62.6.18-.56-.38.4-.36.05l.05-.12c-.28.54-.02-.41-.3.27l.08-.48c-.25.8-.02-.49-.19-.11l-.04.17c-.11.17-.06-.27-.14-.16v-.1c-.17.15-.19-.38-.26.31,0-.57.17-.17.19-1.01-.07.04-.13.08-.2.11-.54.64-.97.68-1.45.84-.13-.23-.2-.29-.29-.51-.02.14-.19.18-.14.51.02-.02-.14-.3-.18-.32-.17-.2.08.71-.13.48,0-.18-.03-.39-.11-.61.03.51-.14.49-.23.69,0-.11.02-.19-.03-.38-.04.61-.27-.1-.34.27v-.37c-.23-.44.03.77-.18.51.03-.12,0-.26,0-.41-.11.68-.39.46-.54.7,0-.05,0-.15,0-.15-.17.09-.36-.11-.54.19-.07-.16.01-.9-.17-.76.01.74-.31.32-.2,1.15-.16-.12-.4-.41-.51-.17.08-.28-.06-.91.07-.97l-.09-.45c.02-.3.1.11.07-.28-.06.03-.25.31-.3.19-.13.45-.27,1.29-.47,1.38.1-.29-.02-.82.05-.94l-.34,1.41c-.07.03.02-.59-.09-.4,0,.2-.05.32-.09.47-.02-.08-.29.17-.27-.56-.01-.29.12-.15.06-.41-.12,0-.14.25-.26.26v-.1c-.07-.12-.25.29-.19.7.05.03.01-.44.08-.22-.09.42-.24.52-.36.52.05-.11.06-.31.09-.51-.21.56-.4.72-.6.94-.03.35.12-.62.13-.44-.19-.5-.55.63-.68-.08.04-.06-.03.49-.02.39-.11-.05-.05-.55-.14-.38.02-.3-.1.08-.19.17-.06.21,0-.14.07-.17-.13.24-.61.65-.8.19-.02.2-.24.69-.29.66l.08-.45c-.02-.28-.19.01-.15-.38-.19.53.52-.41.3,0,0-.39-.31.69-.2.08-.11,0-.29.5-.34.06.02.08.17-.61.08-.6-.17.06-.07.21-.22.34l-.11.17c-.07.44-.13-.08-.14.42.03-.37-.26.19-.14-.54l.1-.57c-.07.03-.2.59-.29.84,0-.06,0-.17.01-.27-.14.88-.15-.1-.34.57-.1-.33-.36-.08-.35-.64-.15.25-.3.55-.4.34.04-.08.08-.1.11-.29-.04-.27-.09-.04-.19.09.04-.13-.07-.54-.1-.87-.15.24-.2.72-.26,1.01.05-.88-.4.5-.39-.3.06-.11.23-.4.18-.63.05-.88-.31.6-.4.16l-.09.72c0-.46-.31.37-.16-.35-.1.25-.15-.27-.26.43-.15-.63-.71.24-.63-1.04-.06.11-.13-.03-.18.33-.01.4.14-.26.11,0-.04.01-.08.2-.1.3-.05-.18-.1-.24.09-.8-.09-.47-.42,1.15-.6.83.07-.29.07-.4,0-.37l-.23.47c-.13-.15.05-.67.15-1.16-.1.07-.19.02-.3.38l.03-.63c-.02.46-.13.28-.19.39l.06-.11c.03-.21-.09-.1-.15-.05-.05.3.01.45.05.54-.09.21-.14.14-.24.38.12-.48-.06-.37-.11-.43-.05-.12-.17.41-.19.39.05-.25-.11-.07.02-.4.04-.07,0,.25.09.04,0-.19.09-.62-.08-.33-.13.22-.18.95-.26.62.06-.11.11-.3.18-.47l-.08-.28-.1.43c0-.11.03-.15.03-.21-.14.45-.23.1-.37.6-.08.03-.07-.33-.12-.4l.02-.03c-.02-.27-.16-.13-.29.15l.02-.09s-.15,0-.26.24c-.03-.35.34-1.65.1-1.13-.11,0-.35.76-.37,1.04-.13-.34-.51.32-.54-.4-.07.17-.08.28-.16.37-.24-.24-.73.37-.75-.54.13-.16.11-.43.17-.68-.16.37.02-.42-.17.24-.09.39-.14.58-.1.76-.22.17-.48.1-.48-.29,0,.19-.06.3-.13.41.17-.62.07-.74-.08-.55l-.11.38.04-.41c-.07.11-.24.78-.24.4.03-.15.06-.3.07-.41-.18.29-.45.77-.47.43l.06-.57c-.06.05-.22.36-.18.54-.1-.38-.2-.45-.13-.94-.61,1.08-1.08,1.01-1.42.82l.09-.28c-.03-.29-.18.48-.2.27.1-.26.08-.61.25-.92-.06-.34-.31.44-.44.55-.11.37.14-.22,0,.25-.05.13-.11-.34-.29.21.03-.23.17-.64.25-.86l-.16.25c.08-.68.56-1.11.67-1.94l-.1.07c.09-.61.38-.61.25-.86-.16.25-.46,1.05-.45,1.32-.22.11-.45,1.32-.63,1.22.04-.34.17-.04.27-.51.04-.48-.25.21-.28.02.03.24-.2.78-.29.87-.02-.29.21-.51.09-.61-.11.32-.31.52-.26.78-.25.72-.09-.24-.32.3.1-.53.48-1.15.4-1.45-.12.51-.38.62-.5,1.38-.02-.16.09-.55.21-.85,0-.33-.46.85-.21-.14l-.17.5c.02-.17.03-.31.05-.59-.07-.03-.43.62-.21-.15-.05.07-.2-.01-.29.54.01.35.23-.35.09.38.09-.61-.17.03-.29.21l.08-.3c-.07.1-.13.02-.25.33.08-.16.12-.37.11-.45l-.17.44c-.21.18.19-.8.01-.71l.21-.32c-.05.07.03-.37-.08-.25-.15.4-.34.88-.46,1.19-.13.16.1-.47-.1-.08l.25-.46c.05-.13.13-.7.02-.72-.11.12-.39.68-.35.94-.06,0-.06-.28.07-.57-.16.11-.11.45-.29.67.04-.29.02-.72.06-1.14l.31-.65-.07-.03c.26-.52.08-.43.3-1-.02-.11-.14.07-.23.21-.13.97-.54,1.22-.75,2.08-.27.17.49-2.1-.11-.83-.03.23-.32.85-.12.64-.1-.13-.34.82-.38.43.21-.32.14-.89.45-1.35-.1.28.02.24.07.17.05-.34.27-.85.14-.89-.1.06-.21.04-.33.49-.14.49.13-.02-.06.46-.21.12,0-.62-.33.22.12-.04,0,.47-.11.8l-.17.17.12-.31c-.11-.29-.23.57-.38.43l.11-.66c.21-.53.18.32.42-.58-.1-.07-.28.37-.32.11.05-.07.09-.08.13-.15-.03-.04.29-1.23-.08-.59-.17.24-.12.31-.22.64-.21.05-.37.37-.51.38.22-.64-.19-.13.15-.75-.06.4.22.44.47-.16.17-.79.11.15.39-.62-.14-.06.1-.82.23-1.32-.03-.05-.13.15-.18.22-.16.46-.11.47-.25.95-.12-.18-.36.04-.59.46.02-.25.18-.71.26-.73-.24.08-.42-.05-.56-.25-.12.8-.26.12-.38.77.04.2-.04.77-.2,1.1-.05-.07.11-.33.13-.5-.21.39.09-.71-.2-.07.25-.19.33-.92.54-1.51-.23.3.14-.42.01-.46-.23.29-.47.5-.65.59,0-.62-.44-.15-.61-.18.01-.33.28-.98.23-1.13-.11-.02-.15.75-.21.39l.06-.13c-.1.14-.14-.55-.49.41l.28-.72c0-.07-.09.08-.14.15.07-.24.11-.46.21-.61.07-.53-.23.02-.33,0l-.07.45c-.29.28-.26-.18-.48-.08l.14-.42-.18.22c.15-.4.14-.7-.02-.37l.59-.96c0,.27-.24.49-.32.92-.07.38.12.31.27-.09-.05-.07-.08.03-.17.16.16-.6.25-.54.42-.92-.04.01-.03-.18-.1,0,.15-.27.24-.29.34-.27-.14.21-.08.38-.16.54.17-.52.32-.64.41-.46-.1.63.36-.31.46-.1-.23.51-.44.9-.6,1.08,0,.29.11.02.12.31.17-.38.39-.97.59-1.17l-.12.39c.17-.16.36-.74.46-.58.18.27.43.34.59.45l-.11.39c.36-.8.44-.2.69-.52.12.44.62-.21.53.49.5-.17.95-.35,1.33-.08l-.24.54c.2-.39-.05.34.05.28.05-.48.28-.56.44-.89.06.5.45.09.73-.26l-.11.39c.39-.68.4.02.58.2-.02.17-.09.55-.01.52.3-.6.34-.54.63-.88.12.03.28.25.33.53.71-.75,1.03-.05,1.65-.46l-.09.47c.73-.86,1.06.19,1.59-.21l-.24.78c.06.27.34-.14.45-.7.06.27.41-.31.32.36.09.18.25-.33.38-.4.18.36.29.32.57.23l-.05-.06c-.07.17-.16.5-.11.57.14-.2.28.3.42-.67.12.61.7-.3.78.49.04-.26.11-.3.18-.47.23.04.34.62.62.22,0,.14-.16.43-.07.48.08-.09.08-.34.18-.47.47-.4.63.67.99.61.7-.38,1.26,0,1.84.03l-.04.19c.33-.69.3.83.66-.25.01.19.15.12.05.48.24-.49.34.56.67-.06-.02-.02-.03.02-.07.09.15.46.44-.09.61.34-.04.08-.09.13-.13.32.03.39.34-.78.24.16.05,0,.11-.46.08-.44.45.44,1.08-.09,1.63-.22.3.61-.18,1.58.21.92,0,.18.06-.36.04-.16.15-.24.05,1.07.19.59.04-.58.09-.31.14-.66.18.39.18.92.41.5l-.05.3c.3-.83.51-.35.77-1.32.59-.03,1.16-.16,1.7-.33.54-.16,1.09-.28,1.57-.38.12.02.25.03.37.03h.18s.05,0,.05,0c.07,0,.03-.03.05-.04-.03,0,.08-.03.14-.05l.23-.08c.28-.09.57-.17.86-.25.57-.15,1.15-.26,1.71-.3.39.51.46.63.74.42.08,0,.18-.02.31-.03-.04.13-.07.14-.05.29.11-.68.36.12.51-.51.73.52,1.48.71,2.28,1.13-.16,0-.45.45-.29.48l.34-.3-.07.17c.1-.06.31-.31.35-.53.22.04.13-.06.17-.06,0-.02,0-.02,0,0-.02.04-.04.14-.05.28,0,.12.02.25.06.34.02.04.04.07.07.09.01,0,.02.01.03,0l.12-.04c.33.2.65-.13.91-.33,1.05.65,1.98,1.16,2.71.36,0,0,.27,1.68,0,2.14Z"/>
      <path class="cls-2" d="M111.6,143.8c-.04.33-.01.53-.21.92.08-.3.12-.64.21-.92Z"/>
      <path class="cls-2" d="M113.22,147.85c.03-.09,0,.14-.01.19-.04.01-.15.27-.13.1.04-.01.08-.16.14-.29Z"/>
      <path class="cls-2" d="M113.83,148.24c-.1.28-.31.45-.41.46l.41-.46Z"/>
      <path class="cls-2" d="M114.11,149.59c-.02.25-.07.38-.14.35.04-.15.09-.22.14-.35Z"/>
      <path class="cls-2" d="M114.35,148.97c.05.01.03.18,0,.35.07-.24-.17.11,0-.35Z"/>
      <path class="cls-2" d="M115.48,150.19s.18-.22.12.1c.03-.23-.27.31-.12-.1Z"/>
      <path class="cls-2" d="M116.24,149.96s0,.08.06,0c0,.14-.1.33-.14.35l.08-.36Z"/>
      <polygon class="cls-2" points="128.39 151.69 128.29 151.82 128.36 151.54 128.39 151.69"/>
      <path class="cls-2" d="M133.78,152.4c.09-.18.03.28.04.32-.07.02.05-.36-.04-.32Z"/>
      <polygon class="cls-2" points="136.77 151.06 136.75 151.07 136.75 150.47 136.77 151.06"/>
    </g>
  </g>
</svg>