<?xml version="1.0" encoding="UTF-8"?>
<svg id="Layer_3" data-name="Layer 3" xmlns="http://www.w3.org/2000/svg" viewBox="0 0 126.38 116.43">
  <defs>
    <style>
      .cls-1 {
        fill: #424242;
      }

      .cls-2 {
        fill: #202020;
      }
    </style>
  </defs>
  <path class="cls-1" d="M92.74,44.5c-.59-8.29-6.4-14.98-13.57-15.63-8.41-.76-15.48,6.62-15.96,16.05l-.03.02c-.47-9.44-7.55-16.83-15.96-16.07-7.16.64-12.98,7.34-13.57,15.63-.37,5.25,1.31,10.06,4.21,13.47h0s25.34,29.65,25.34,29.65l25.34-29.65h0c2.9-3.41,4.58-8.22,4.21-13.47Z"/>
  <g>
    <path class="cls-2" d="M91.61,44.12c.21.69.47-.43.28.44-.25-.08-.44-.2-.28-.44Z"/>
    <path class="cls-2" d="M92.01,46.92c.71,1.2.51,2.63.08,3.97-.42,1.36-1.07,2.6-1.25,3.99-.09.3-.7-.45-.85.23-.06.99-.55,2.05-1.32,2.98l-.06-.3h0s.22.11.22.11l-.16.19c-1.34,1.61-3.25,3.06-4.97,4.19l-.06-.3c-.51.34-.39,1.39-.88,1.8-.12-.1-.04-.3-.3-.33.26.43-.57,1-.47,1.43-.3.07-.57-.19-.93-.09l.18.62c.33,1.59-1.64,1.78-2.01,3.24-.05-.13-.04-.3-.2-.29-.82,2.16-2.7,4.14-4.07,6.17-.08-.2-.29-.49-.54-.52.35.46-.03,1.12-.37,1.69-.63-.16-.32,1.2-1.06,1.57l-.06-.13c.1.83-.81.41-.55,1.23l-.58-.03c.46.72-.85.35-.84.97l.14.1c-.13.47-.6.37-.76.77l-.1-.03c-.46.87-1.17.99-.67,1.39-.61-.08.43-.86-.48-.94-.75,1.37-1.6,2.56-2.62,3.84-1.07,1.33-2.2,2.62-3.29,3.9l-.29-.34c-.24-.68-.38-.96-.39-1.35-.23-.06-.78-.74-1.11-.62.08.07-.02-.52-.1-.67-.24-.65-.78.17-1.08-.62.29.07.45-.05.54-.31-.64.02-1.12-.67-1.64-1.02.15,0,.3.08.43-.07-.88-.16-.74-1.05-1.41-1.28l.43-.07c-.3-1.04-.78.28-1.13-.54.22.08.29-.07.42-.14-1.03-.17-1.69-1.29-2.38-1.74.07,0,.14-.07.14-.07-.63-.6-1.05-1.42-1.89-1.96-.1-.37.76-.5.06-1.11-.54.51-1.24-.98-1.53-.03-.41-.67-1.01-1.79-1.54-2.02.44.08.44-.88.91-.43l.02-.66c.28-.14.25.45.44.08-.23-.23-1.07-.76-1.17-1.06-.74-.16-1.74-.03-2.45-.71.52.16.45-.73.75-.58l-1.97-.11c-.24-.22.4-.43-.05-.67-.13.15-.36.07-.57.06-.02-.15-1.02-.9-.55-1.49.13-.3.46.3.42-.14-.4-.45-.6-.31-1-.76l.07-.07c-.18-.37-1-.68-1.02-.09.16.22.27-.36.37.08-.5.06-1.05-.39-1.44-.84.22.08.35-.07.57-.14-.96-.24-1.65-.77-2.42-1.3-.27.22.7-.16.64.06-.38-1.19-2.07-1.37-2.16-2.55.15.08-.32.39-.25.31-.33-.45.07-.76-.31-.91.2-.22-.37-.28-.68-.51-.29,0,.05-.17.28.06-.53-.23-2.22-1.52-2.68-2.71-.04.05-.16.05-.3.03l-.45-.06,1.13-3.3h0s-.68,3.36-.68,3.36c-.33-.06-.82-.29-.95-.47l.44-.18c.04-.39-.65-.82-.36-1.08-.42-.11.04.34.51.74.48.39.95.73.51.53.15-.4-1.34-.53-.72-.76-.38-.48-1.14-.71-1.08-1.44.03.19.79.09.52-.31-.5-.7-.32-.09-.79-.63l-.37-.31c-.42.18-.29-.73-.6-.22.28-.25-.74-1.09-.01-1.29l.58-.11c-.17-.32-.8-.33-1.14-.52.04-.07.11-.2.21-.21-.86.23-.23-.87-1-1.11.06-.85-.45-2,.04-2.47-.36-.55-.76-1.08-.62-1.79.1.13.14.32.33.34.22-.45-.03-.54-.19-.93.13.08.47-.89.8-1.35-.27-.58-.74-.4-1.04-.47.46-.27.32-.68.21-1.14-.1-.45-.21-.95.22-1.24.1.23.33.92.61.45.91-.41-.5-1.17.09-1.97l-.76.06c.49-.3-.1-1.4.59-1.12-.17-.36.51-.94-.19-1.06.54-.61.72-1.5,1.09-2.25.32-.77.78-1.41,1.55-1.47,0-.25.37-.62,0-.72-.53.09,0,.57-.3.54.07-.18-.07-.31-.15-.38.37-.32.63-.57.89.09.92-.56-.46-1.56.62-2.44.19.23.34.22.54-.1.02-.3.07-.58.12-.88.68-.55.82.11,1.19.44.23-.39.66-.72.56-1.13l.81.12c-.58-.09.07-.48.18-.69l-.09.22c.2.11.52-.29.69-.49-.23-.22-.73,0-1.02.11.05-.31.38-.49.48-.89.2.45.8-.16,1.16-.29.41-.13.18-.62.3-.67.13.21.63-.31.5.16-.08.14-.4-.05-.5.27.34.03.51.41.86-.13.28-.4-.54-.81.35-.9-.15.21-.1.4-.17.63l.79-.1-.15-.42c.14.06.09.12.16.16.03-.53,1.05-.55,1.05-1.11.37-.2.91.07,1.28.01l-.06.06c.51.12,1.05-.15,1.41-.49v.1c.25,0,.83-.18,1.14-.43.67.31.29,1.67.95,1.09.6-.05,1.01-.79.76-1.1.58.21,1.22.13,1.85.17.62.07,1.25.17,1.68.66.21-.12.14-.26.51-.25,1.61.62,3.7,1.02,4.34,2.52-.5-.14-.28.35-.42.56.55-.09.13.61.65.15.21-.35.36-.48.07-.9.46.23,1.06.55,1.47.98.42.42.75.85.82,1.17-.08-.32.18-.27.41-.18-.51.4-.09,1,.45,1.27l.35-.19-.07.53c.22.09.79-.31.83.37-.11.11-.2.25-.25.36.4,0,.84-.29.71.13-.09.22-.16.45-.23.7.09.04.31-.23.33-.53-.04.65.07.93-.05,1.78.05-.07.1-.14.15-.21.27-.4.37-.63.45-.64.06-.02.09.19.1.51v.79c0,.92,0-1.35.01-.7,0,.96,0,.79,0,2.71,0,.12,0,.24.02.25h0s.02-1.97.03-2.4c0-1.04,0,.77-.01-.56,0-.36.03.49.02-.96.02.91.03,1.54.04,2.2v-.83c.05.71.06,1.5.04,2.46-.02.94-.02,2.05.01,2.89l.05-.54c.1,1.11-.13,2.65.04,2.21.07-1.15.04-3.31-.03-3.64.1-.96-.09-3.37,0-3.61.07.59-.07.45,0,1.41.04.39.08.12.09-.19.02-.32.02-.68.06-.61-.09-.22-.15-1.51-.16-1.74.1.34.08,1.1.17.95-.05-.64-.07-1.18-.17-1.45-.08-.66-.07-.58-.04-.49.03.09.08.18-.01-.26.1.36.19.83.27,1.27.08.44.14.84.25.86-.1-.34-.12-.69-.17-1.02-.05-.34-.14-.66-.3-1.12.07.17.26.63.36,1.1.1.13.04-.24,0-.46-.04-.22-.06-.31.22.19l-.26-.57c.11.14.21.23.42.42.1-.16-.3-.85.29-.31,0-.02,0-.06,0-.09v-.06c.03-.06.05-.11.07-.16.08-.22.07-.43-.27-.44-.16.07-.27.2-.29.24,0,.02.02.05.04.08.02.05,0,.08-.29-.16.24.19.26.12.18.03-.03-.17-.03-.54,0-.74l.28.14c.03-.26.43-.62.28-.94.02.25.24.31.42.23l-.19-.49c.46-.86.75.38,1.26-.37-.08.24-.13.5-.19.75.05-.16.54-.1.75-.47-.18-.41-.3-1-.42-1.35.26-.5.49.2.58-.48l-.15.84c.03.17.78.21,1.29-.2.23-.36.42-1.28-.28-1.04.28-.22.82-.3.78.12.54-.58-.35-.31.05-.94.4.07,1.37-.03,2,.08-.08.33-.16.65-.22.96l.38-.22c-.19.78.45.24.49.92.28-.07.48-.41.66-.66-1.23-.5.31-1.6-.26-2.31.55-.39.95.06,1.27.36.33.3.58.49,1-.38-.27-.15.15-1-.56-.5.79-.16.29-1.04,1.35-.9-.62.5.92.72.06,1.44,0-.29-.6-.12-.71.03.39.23.17.85.91.69.43-.18,1.05-.32.89-.76-.1-.5-.71.2-.5-.37.94-.39,1.19.44,1.5-.51-.61.12-.84-.37-.88-.72l.75-.28-.12.35c1.23.15.31-.67,1.54-.61l.55.68c-.15.28-.56.2-.92.19-.36,0-.66.06-.53.52.72-.04.97-.46,1.67-.21-.16.07-.37.09-.52.17.28.05.46,1.26,1.51.61.55-.21.18-.31.23-.65.6.03,1-.03,1.36-.08.35-.03.65-.06,1.04.01-.32.6,1.3.43.29.86-.13-.24-.62-.46-1.14-.55-.52-.09-1.09.04-1.33.32.31.86-.88-.25-1.18.59.88.04.74.89.81,1.41.21.07.46-.12.61-.18.18-.47-.12-.5-.07-1.01.48.12.94.19,1.38.2.44,0,.86-.1,1.19-.22.24.34-.03.77-.39.68,1.13.23,2.26.79,3.09,1.48-.2-1.05,1.14.47,1.09-.34-.41-.46-.6-1.24-.11-1.37.32.25-.19.29-.14.53.66-.1.29.97,1.05.7-1.05-.42-.72.68-1.23,1.08.79.14-.27.35.29.77.79.12,1.64.52,2.34.99.29,1.14,1.73,1.92,2.25,2.71,0,.57-.77.7-.59,1.17.33.48.42-.77.6.14h-.16c.27.16.35,1.58,1.35,1.39l-.8.09c0,.17.22.23.35.32-.22.11-.35.37-.61.21-.26.68.53.94.73,1.47l.3-.5c.69.8.45,1.58.84,2.45l-.44.08c.14.16.25.32.38.49-.44-.04-.62.5-.21.72-.46-.4-.86-.79-1.35-1.13.15-.43.63.27.99-.06.31-.29-.04-1.11-.48-1.11.04.33.14.31.36.51-.57.27-.67-.21-1.13-.31.07.15-.05.42.14.4-.37-.23-.5-.51-.7-.99.35.25.29-.31.5-.25-.54.15-.82-.27-.97-.9.19-.34-.03-.58-.31-.82-.31-.23-.67-.44-.78-.8.62-.02,1.2.11,1.63.44.01-.56-.28-.47-.28-1.05-.47,0-1.09.17-1.64-.19l.32-.25c-.49-.35-.95,0-1.3-.6-.55-1.07-1.47-1.9-2.12-2.52l.23-.34c-.48.19-.85,0-1.21-.24-.38-.21-.75-.48-1.12-.48-.41-.4-1-.63-1.53-.73-.52-.15-.96-.24-1.16-.64-2.02-.17-3.69.15-5.64.46l.2-.64c-.26.5-.32-.3-.66-.11.52.32-.32.75-.43,1.17-1.01-.16-1.87.86-2.26,1.61l-.25-.33c-.13.52-.43.82-.85,1.01-.42.2-.88.41-1.3.7-.21-.05-.6-.17-.78.1.12.86-.13,1.02-.25,1.91-.31.39-.71.93-1.04,1.55-.35.61-.72,1.1-1,1.48-.09.75-.2,1.53-.32,2.32-.13.73-.22,1.77-.47,1.96-.22.37-.45.7-.68,1.03l-.58.76-.48.61c-.17.21-.21.37-.32.57-.09.19-.19.4-.27.61l-.12.62-.03-.52c-.02.16-.05.33-.07.5h0c-.14.05-.16-.05-.24-.12-.08-.09-.31-.15-.46-.29-.04-.03-.08-.07-.13-.1l-.24-.05c-.16-.04-.32-.07-.47-.11-.21-.12-.85,0-1.34.16-.17-1.17-.33-2.41-.53-3.04.19-.37.38-.77.57-1.21-.08-1.05-.28-1.76-.5-2.18-.22-.4-.45-.55-.59.06-.01-.14-.02-.27-.04-.42-.01-.15-.05-.19-.08-.28-.06-.17-.14-.33-.21-.48-.16-.31-.33-.63-.49-.94-.16-.31-.31-.63-.4-.94-.1-.3-.18-.55-.14-.81-.11-.26-.29-.45-.39-.55-.08-.06-.18-.1-.28-.13-.2-.05-.4-.09-.6-.22-.49-1.04-.87-1.3-1.75-1.85l.17.19c.19-.05.44-.32.26-.53-.46-.06-1.05-1.07-1.28-.02-.3-.5-.9-.79-1.5-.93-.59-.21-1.17-.28-1.55-.82.02.28-.25.27-.39.43-.43-.08-.85-.33-1.29-.41-.22-.06-.43-.11-.64-.11-.21.02-.41.08-.58.2-.15-.13.22-.46-.16-.48-.22.11,0,.35-.25.5-.35.14-.69.25-1.05.26-.35.06-.71.07-1.09.09-.36.05-.75.06-1.1.15-.35.11-.71.2-.99.41-1.9,1.62-3.79,3.49-4.86,5.77l-.16-.11c.17.55-.23.89-.52,1.28-.29.39-.57.8-.1,1.29-.23.14-.29.7-.61.47.14.39-.03.82-.24,1.31-.2.48-.32,1.05-.05,1.56.03-.09,0-.14-.08-.25-.52.98.07,1.89-.23,2.96-.09-.1-.18-.29-.37-.31-.34.46.91.89.01,1.24.04.24.49.1.44-.04-.02,1.18.34,2.38.89,3.46.56,1.08,1.29,2.05,2.03,2.93.53,1.64-1.17,1.06.12,1.66l1.62.74-2.38,3.03h0s.76-3.78.76-3.78c.01,0,.03.01.06.02-.05.22.34-.16.2-.02.61.3-.17,1.42.49,1.43.32-.51.43,0,.71-.21.53,1.19.29,1.72,1.27,2.19l-.28.14c1.41.32,1.93,1.64,3.31,1.74,4.28,4.73,8.68,9.03,12.81,13.68,1.31,1.63,2.67,3.21,4.03,4.77l.51.59.26.29s.01,0,.02.02l.04.02s.04.03.06.07c.02,0,.04,0,.09.01.02,0,.05,0,.09,0h.03s.02,0,.02,0c0,0,0,0,.07-.06l.53-.53c1.56-.59,1.61-.69,2.41-2.12.06.13.01.23.18.23-.44-.49.69-.9.31-1.42,1.59-1.68,2.84-3.41,4.38-5.22-.19.33.09.82.35.46v-.63s.17.06.17.06c.12-.29.1-.76-.27-.66,3.45-4.9,8.26-8.51,11.94-13.06.78-.62,1.56-1.63,2.25-2.6l1.09,5.64h0s-3.73-1.53-3.73-1.53l2.63-4.1c.21-.33.41-.65.57-.96,1.36-1.16,2.48-2.65,3.16-4.35.67-1.71.88-3.64.44-5.58,0,0,.43.09.92.42.49.32,1.04.9,1.18,1.81Z"/>
    <path class="cls-2" d="M91.45,43.29c.32-.19.38-.72.9-.39-.29.1-.6.4-.9.39Z"/>
    <path class="cls-2" d="M87.12,29.63c-.07.07-.11-.24-.12-.32.17.1.49-.01.52.22-.18-.1-.24.04-.4.1Z"/>
    <path class="cls-2" d="M83.6,27.47c.17-.27,1.1-.11,1.61.11-.55-.05-1.06-.13-1.61-.11Z"/>
    <path class="cls-2" d="M79.94,25.32c-.34-.29-.23-.42.28-.34.02.16-.16.21-.28.34Z"/>
    <path class="cls-2" d="M79.58,25.94c-.34-.03-.49-.19-.65-.37,0,.24.81-.12.65.37Z"/>
    <path class="cls-2" d="M70.66,26.7c-.19.12-.51.52-.84.35.29.07.81-.8.84-.35Z"/>
    <path class="cls-2" d="M67.38,29.3c-.11.07-.2.05-.26.22-.26.06-.22-.28-.07-.43l.33.21Z"/>
    <polygon class="cls-2" points="31.72 42.21 31.66 41.79 31.93 41.9 31.72 42.21"/>
    <path class="cls-2" d="M42.83,67.15c.37.15-.05.37-.04.44-.23-.23.35-.14.04-.44Z"/>
    <polygon class="cls-2" points="53.26 77.11 53.18 77.03 53.66 76.67 53.26 77.11"/>
  </g>
</svg>