<?xml version="1.0" encoding="UTF-8"?>
<svg id="Layer_3" data-name="Layer 3" xmlns="http://www.w3.org/2000/svg" viewBox="0 0 300 300">
  <defs>
    <style>
      .cls-1 {
        fill: #202020;
      }

      .cls-2 {
        fill: #b51a25;
      }
    </style>
  </defs>
  <g>
    <path class="cls-2" d="M143.62,116.28c-4.13-15.62-17.67-26.3-31.59-24.94-16.35,1.6-27.18,18.27-24.67,36.47l-.06.05c-4.33-17.86-20.53-29.41-36.33-24.91-13.46,3.83-22.13,18.74-20.25,34.79,1.19,10.17,6.15,18.75,12.93,24.21h0s59.18,47.45,59.18,47.45l37.66-65.84h0c4.31-7.57,5.77-17.36,3.15-27.26Z"/>
    <g>
      <path class="cls-1" d="M139.95,116.36c.81,1.14,1.4-1.14.97.63-.8.02-1.43-.05-.97-.63Z"/>
      <path class="cls-1" d="M142.13,121.31c2.78,1.84,2.93,4.72,2.5,7.4-.41,2.75-1.38,5.26-.59,8.17.02.64-2.55-.93-2.33.49.79,2.08.45,4.4-.68,6.48l-.37-.93h0s.77.22.77.22l-.39.72c-1.96,3.57-5.63,6.72-9.19,9.11l-.49-.7c-1.06.72.47,3.2-.45,4.08-.45-.25-.44-.7-1.19-.8,1.19,1.03-.47,2.26.27,3.28-.76.12-1.8-.53-2.69-.33l1.18,1.48c2.67,3.75-2.59,3.93-2.02,7.29-.29-.31-.44-.7-.88-.71.1,4.93-2.94,9.3-4.48,13.87-.45-.47-1.34-1.19-2.08-1.29,1.49,1.12,1.17,2.62.86,3.9-1.94-.45.43,2.75-1.22,3.52l-.31-.32c1.18,1.94-1.81.85-.18,2.81l-1.64-.14c2.09,1.75-1.99.69-1.27,2.16l.49.25c.14,1.07-1.25.79-1.25,1.7l-.31-.09c-.31,1.97-2.14,2.17-.31,3.16-1.77-.26.23-1.94-2.39-2.26-.52,2.99-1.85,6.2-3.37,9.22-1.53,3.05-3.23,5.88-4.86,8.71-.23-.18-.45-.36-.68-.54-.8-1.72-1.19-2.36-1.45-3.58-.4.22-1.72-.89-2.18.12.17.08-.34-1.64-.58-1.97-.42-.84-.67-.31-.99.15-.31.47-.68.86-1.14-.11.51-.31.71-1.01.69-2.02-1.03,1.26-2.19,0-3.39-.28.28-.22.59-.24.76-.95-.83.52-1.34-.02-1.75-.58-.42-.57-.73-1.16-1.51-1.04.33-.25.65-.51.96-.78-.66-2.41-1.78,1.81-2.7-.04.57-.03.73-.51,1.08-.86-2.57.75-4.07-1.38-5.74-1.77.18-.07.36-.34.36-.34-1.48-.84-2.42-2.47-4.46-2.88-.19-.84,2.02-2.16.35-2.93-1.47,1.93-2.98-1.11-3.88,1.69-.94-1.26-2.24-3.47-3.55-3.46,1.11-.29,1.28-2.77,2.39-2.15l.17-1.74c.73-.69.56.88,1.1-.29-.55-.32-2.59-.72-2.79-1.38-1.84.43-4.42,1.92-6.09.97,1.29-.18,1.27-2.4,2.01-2.35l-4.97,1.97c-.56-.31,1.09-1.58-.02-1.66-.36.53-.92.59-1.46.82-.01-.36-2.43-1.17-1.15-3.2.37-.91,1.12.25,1.1-.85-.93-.71-1.47-.11-2.41-.81l.18-.26c-.38-.76-2.41-.62-2.58.93.37.4.74-1.25.92-.21-1.29.74-2.59.2-3.52-.51.55-.05.91-.58,1.46-1.01-2.4.49-4.06-.09-5.92-.58-.73.87,1.8-1.2,1.63-.57-.77-2.63-5.01-1.16-5.03-4.12.37.03-.88,1.36-.7,1.1-.75-.79.31-2.04-.62-2,.55-.8-.88-.31-1.63-.54-.73.31.15-.48.71-.17-1.3.01-5.38-1.36-6.32-3.92-.11.16-.41.32-.77.43l.12-11.19h0s-.13,11.19-.13,11.19c-.86.2-2.16.13-2.48-.21l1.19-.95c.15-1.05-1.69-1.39-.87-2.38-1.13.16.09.82,1.31,1.34,1.23.49,2.44.85,1.3.81.22-.63-.64-.58-1.38-.56-.72,0-1.31,0-.47-.61-.96-.8-3.07-.57-2.86-2.44.06.44,2.19-.63,1.47-1.3-1.34-1.14-.88.11-2.17-.68l-1.05-.34c-1.21.84-.82-1.42-1.72.09.42-.45-.12-.88-.51-1.37-.38-.49-.58-1.04.48-1.61l1.72-.83c-.51-.54-2.36.06-3.39-.06.1-.18.33-.55.61-.67-1.28.68-1.47.23-1.64-.34-.16-.57-.25-1.27-1.48-1.19.05-.97-.34-1.96-.62-2.87-.24-.93-.35-1.79.37-2.46-1.24-.86-2.63-1.68-2.41-3.27.34.21.53.56,1.16.46.57-1.09-.23-1.08-.87-1.77.46.06,1.22-2.13,2.1-3.23-1.08-1-2.54-.37-3.51-.33,1.34-.8.74-1.56.15-2.43-.57-.86-1.17-1.83.07-2.62.43.43,1.54,1.69,2.18.64,1.4-.64.79-1.12.08-1.73-.72-.6-1.61-1.36-.92-2.25l-2.38.41c.75-.41.37-1.1.21-1.68-.18-.58-.25-1.03.95-.84-.81-.7.96-2.09-1.36-2.15,1.22-1.43,1.15-3.32,1.6-5.03.35-1.71,1.15-3.2,3.4-3.37-.11-.27,0-.62,0-.93.02-.31-.08-.58-.68-.69-1.49.22.53,1.28-.4,1.22.06-.39-.51-.7-.8-.85.82-.74,1.3-1.33,2.74.19,1.06-.67.35-1.51-.36-2.51-.74-1-1.38-2.14-.33-3.19.79.57,1.2.56,1.45-.22-.25-.72-.41-1.43-.6-2.17,1.32-1.36,2.38.33,3.77,1.18.22-.93.98-1.74.27-2.82.77.11,1.53.25,2.28.39-1.63-.3-.32-1.22-.3-1.78v.58c.65.32,1.03-.72,1.25-1.26-.81-.61-1.87-.06-2.51.21-.21-.83.44-1.29.28-2.36,1.01,1.25,1.89-.38,2.61-.75.88-.33-.2-1.74.04-1.88.55.6,1.22-.86,1.41.48-.05.4-1.04-.15-.94.73.86.08,1.68,1.2,1.95-.33.24-1.17-2.13-2.34-.07-2.61-.15.6.16,1.17.22,1.83l1.77-.28-.77-1.24c.39.17.33.37.52.47-.46-1.56,1.88-1.7,1.37-3.4.68-.61,2.11.07,2.9-.13l-.09.18c.63.18,1.16,0,1.61-.35.46-.33.83-.87,1.08-1.47l.06.31c.56-.06,1.69-.74,2.17-1.68,1.64.75,1.73,5.23,2.7,3.14,1.19-.35,1.63-2.96.94-3.83,1.35.36,2.65-.17,4.01-.39,1.34-.17,2.74-.21,3.8,1.02.41-.54.22-.94,1.02-1.18.93.28,1.91.34,2.88.45.97.14,1.95.23,2.9.4.96.14,1.81.53,2.57.99.75.5,1.39,1.11,1.73,2.1-1.18.11-.64,1.3-.98,2.06,1.28-.82.29,1.64,1.52-.24.5-1.22.87-1.75.16-2.69.57.08,1.2.24,1.82.46.31.11.62.24.92.37.29.14.52.3.77.47.96.67,1.7,1.5,1.83,2.31-.07-.4.04-.64.24-.78.1-.07.22-.12.36-.15.08-.07.16-.13.23-.2-1.18,1.72-.82,2.4-.18,1.97l.56-1.18c-.12.46-.23.92-.32,1.41.28-.27,1.04-2.55.86-1.11-.14.52-.27,1.06-.32,1.49.3-.4.64-1.03.85-1.39.21-.35.33-.46.37.31-.02.83,0,1.68.03,2.56.16-.09.35-1.36.23-2.27.03.22.06.42.09.59.27,1.52.55,2.23.79,4.58.08-.82.17-1.72.26-2.67.04-.65.07-1.07.12-1.29.06-.45.21-.03.38.71l.38,2.09c.46,2.3-.66-3.61-.33-1.96.54,2.89.1.51,1.33,7.08.07.29.09.58.16.59h0s-.19-1.21-.44-2.59c-.21-1.11-.39-2.11-.63-3.41-.54-2.75.36,1.96-.32-1.56-.1-.51,0-.09.01-.09,0,0,0-.09-.07-.43-.17-.87-.29-1.5-.37-1.89.31,1.44.9,4.31,1.22,5.97l-.39-2.16c.46,2.01.88,4.14,1.32,6.62.43,2.44.96,5.25,1.49,7.68l-.13-1.23c.41,1.7.65,3.24.82,4.41.18,1.15.27,1.87.4,1.6-.2-1.37-.58-3.56-.97-5.49-.38-1.94-.76-3.65-.93-4.22-.11-1.11-.59-3.38-1.02-5.45-.44-2.08-.85-3.93-.78-4.12.48,1.78.07,1.06.74,3.81.31,1.2.26.54.13-.27-.12-.82-.31-1.79-.18-1.52-.34-.82-1.13-4.44-1.28-5.1.2.61.4,1.36.55,1.99.16.62.26,1.1.34.99-.46-1.87-.78-3.41-1.16-4.34-.54-1.99-.46-1.73-.34-1.43.12.31.28.66-.16-.75.42,1.2.89,2.66,1.29,4.04.41,1.36.76,2.59,1.03,2.85-.41-1.14-.65-2.14-.94-3.16-.29-1.04-.67-2.09-1.29-3.69.26.59.94,2.22,1.41,3.72.29.54-.04-.64-.26-1.33-.22-.71-.31-.98.61.9l-.9-2.05c.33.58.59.96,1.17,1.81.06-.12-.21-.91-.32-1.3-.1-.39-.02-.42.8.77-.12-.34.2-.76-1.1-2.06-.42-.35-.22-.02-.15.18.08.19.05.25-.73-.85.64.88.65.71.42.3-.22-.41-.69-1.07-.9-1.36l.69.8c-.25-.36-.02-.32-.81-1.11.41.43.91.93,1.12,1.05-.36-.38-.74-.75-1.11-1.1-.27-.3.25.14.82.57.28.22.57.44.79.57.11.07.19.11.24.12.03,0,.05,0,.06-.01,0,0,0-.02,0-.03.02-.05.04-.09.07-.14,0,.07,0,.16.03.21l.1.12.2.24c.13.16.26.33.38.51-.08-.11.18.03.43.11.13.05.25.08.33.07.12-.07.26-.25.28-.48-.94-1.08-1.9-2.59-2.58-3.5.15-1.22,1.52.6,1.01-1.12.17.71.34,1.42.52,2.11.12.22.71.39,1.36.38.67-.01,1.29-.19,1.79-.73.21-.96-.24-3.46-1.85-2.82.51-.6,1.86-.8,2.19.34.81-1.58-1.25-.86-.84-2.58,1.11.2,3.47-.11,5.13.23.12.93.27,1.83.45,2.72l.71-.6c.35,2.19,1.36.71,2.15,2.64.31-.07.49-.34.6-.7.13-.34.2-.76.28-1.13-1.66-.75-1.96-1.87-2-3.13-.05-1.25.15-2.63-.91-3.65.97-1.19,2.33.1,3.36.99,1.06.88,1.76,1.42,1.96-1.25-.77-.44-.52-3.07-1.74-1.46,1.71-.57-.21-3.22,2.37-3.01-.53.87.19,1.36.8,1.97.63.6,1.14,1.32.51,2.52-.25-.92-1.42-.22-1.56.21,1.09.68,1.16,2.62,2.61,2,.77-.63,2-1.18,1.31-2.52-.61-1.54-1.4.76-1.39-1.05.44-.34.85-.45,1.21-.47.36-.01.68.08.93.1.5.05.75-.13.78-1.66-1.25.59-2.13-.91-2.47-1.99l1.47-1.15-.02,1.15c1.42,0,1.48-.52,1.54-1.12.03-.3.05-.61.24-.87.19-.27.55-.49,1.24-.52.57.64,1.11,1.28,1.63,1.93-.15.97-1.1.9-1.9,1-.79.15-1.41.41-.81,1.82,1.55-.33,1.81-1.86,3.46-1.34-.3.31-.74.46-1.02.78.29,0,.75.97,1.33,1.62.59.66,1.24.92,2.21-.33,1.06-.97.23-1.1.16-2.23,1.3-.24,2.15-.65,2.91-1.02.75-.32,1.41-.62,2.3-.65-.26,1.1.5,1.2,1.05,1.3.56.11.89.23-.14,1.25-.34-.68-1.49-1.05-2.67-.98-1.17.07-2.34.75-2.72,1.81.52,1.29.03,1.22-.62,1.17-.66-.08-1.48,0-1.55,1.34.92-.13,1.42.51,1.72,1.37.3.85.42,1.92.6,2.76.44.1.85-.64,1.12-.91.17-1.61-.45-1.56-.56-3.2.52.09,1.02.08,1.51.04.49-.02.97-.11,1.43-.27.92-.3,1.78-.88,2.47-1.53.61.9.13,2.43-.66,2.46,2.43-.14,4.98.65,6.88,1.9-.51-2.97,2.61.32,2.47-2.04-.96-.99-1.48-3.16-.36-4,.77.47-.42,1.06-.27,1.71.76-.48.96.21,1.17.79.22.57.41,1.08,1.35.28-1.26-.15-1.68.6-1.93,1.5-.24.91-.37,2.05-.95,2.91,1.83-.41-.63,1.3.66,1.92,1.81-.44,3.85-.25,5.54.31.16.71.5,1.26.95,1.7.22.22.48.41.75.59.26.19.53.37.81.53.57.33,1.17.61,1.74.88.56.28,1.02.6,1.38.91-.05,1.42-2.16,2.57-1.76,3.54.83.8,1.25-2.34,1.64-.33l-.45.18c.37.02.59.89,1.05,1.52.49.62,1.17,1.07,2.66.31-.78.34-1.56.69-2.32,1.05,0,.39.63.29,1,.35-.65.49-1.05,1.21-1.77,1.11-.41.91-.07,1.28.49,1.55.54.27,1.24.49,1.56.94l.89-1.39c.99.54,1.38,1.29,1.62,2.09.23.81.36,1.62,1.02,2.37l-1.35.55c.44.2.81.44,1.22.67-1.39.31-1.87,1.54-.57,1.65-1.47-.44-2.82-.84-4.3-1.09.45-1.02,1.94-.02,3.04-1.02.95-.88-.17-2.29-1.51-1.85.14.64.43.52,1.12.73-1.72,1.08-2.06.2-3.44.44.21.24-.15.91.45.68-.57-.05-.95-.18-1.25-.41-.32-.21-.57-.52-.83-.93,1.02.17.89-.95,1.51-1.03-1.6.84-2.44.31-2.75-.91.59-.93-.02-1.23-.79-1.43-.82-.17-1.78-.23-2-.93,1.69-.77,3.3-1.11,4.46-.83.1-1.31-.71-.78-.64-2.12-1.31.51-3.05,1.62-4.43,1.41l.9-.97c-1.23-.28-2.54,1.13-3.24.07-1.16-1.95-3.1-3.13-4.44-4.09l.56-1.19c-1.1,1.04-1.87.96-2.6.67-.75-.22-1.49-.62-2.23-.24-.77-.84-1.93-.91-2.9-.82-.49.02-.93,0-1.3-.15-.37-.12-.68-.41-.91-.99-1.83.36-3.4,1.06-4.93,1.64-.19.07-.39.13-.57.2l-.55.26c-.37.16-.75.31-1.13.43-.39.1-.76.28-1.15.43-.39.15-.8.27-1.23.38-.09-.65-.17-1.32-.23-1.99-.04,1.56-.88-.87-1.39-.29,1.35,1.01.08,2.25.32,3.46-1.07-.33-1.79.32-2.27,1.11-.25.39-.39.9-.47,1.41-.09.51-.12,1.01-.13,1.47l-.95-.93c.34,1.34,0,1.96-.77,2.32-.38.16-.81.41-1.26.64-.44.23-.89.49-1.26.81-.56-.23-1.84-.37-2.11.47.48,1.44.57,2.43.54,3.44-.02.25-.03.52-.05.79.03.36.06.74.09,1.14.07.83.16,1.8.31,3.07-.17,1.34-.44,2.99-1.03,4.32-.27.68-.55,1.29-.85,1.8-.15.25-.3.48-.44.67-.07.1-.15.18-.22.26l-.11.11s-.1,0-.14,0c-.11,1.21-.33,2.27-.61,3.24-.27.95-.71,1.85-.89,2.53-.25.71-.53,1.33-.83,1.91-.14.28-.34.59-.44.83l-.29.7-.61,1.34c-.12.24-.16.42-.21.63l-.15.62c-.09.43-.19.89-.26,1.38l.03,1.47-.38-1.68c.04.47.08.89.1,1.27h0c-.09.13-.07.1-.08.12l-.02.04s-.03.04-.05.06c-.03.03-.07.06-.11.06-.09.02-.15-.03-.29-.09-.19-.02-.4-.09-.6-.19-.1-.05-.21-.11-.32-.18l-.16-.1-.25-.05c-.34-.07-.67-.14-1-.2-.16-.03-.32-.06-.48-.07-.06-.02-.19,0-.31.04l-.36.1c-.47.14-.92.34-1.36.66-.22.16-.43.34-.64.57-.14.15-.28.3-.42.45-.16.17-.31.36-.47.55.12-2.23.22-4.41.3-6.54-.89-.98-1.81-.1-2.48,2.07-.48.09-.82,1.04-.73,3.54-.42-1.93-.81-3.1-1.27-4.35-.45-1.22-.93-2.35-1.39-3.56-.46-1.2-.9-2.47-1.24-3.8-.04-.17-.08-.34-.12-.5-.03-.12-.07-.25-.1-.36-.06-.24-.12-.49-.17-.75-.1-.52-.16-1.08-.18-1.68-.61-1.71-1.13-2.11-1.68-2.44-.28-.16-.56-.3-.86-.53-.15-.12-.3-.26-.46-.44-.18-.09-.37-.17-.56-.31-.75-1.11-1.38-1.98-1.97-2.72-.29-.37-.57-.7-.85-1.01l-.21-.23-.11-.09-.22-.16c-.3-.2-.61-.35-.98-.49-.35-.13-.79-.33-1.2-.35l.29.33c.47-.38,1.04-1.4.71-1.75-.94.38-1.9-1.74-2.59,1.46-.2-.58-.6-.84-1.05-1-.45-.19-.97-.12-1.46-.09-.99-.02-1.84.2-2.53-1.19.07.87-.34,1.04-.52,1.62-.32.01-.65-.1-.98-.25-.34-.18-.67-.24-1.02-.35-.34-.09-.68-.15-.98-.08-.3.12-.56.36-.74.77-.32-.38.04-1.52-.56-1.48-.26.39.25,1.11-.02,1.65-.42.51-.82.82-1.34.88-.49.15-1.06.14-1.67.12-.58.06-1.25.01-1.83.16-.56.18-1.14.36-1.48.82-.96,1.88-2.04,3.51-3.07,5.28-1.03,1.75-1.98,3.65-2.41,5.64l-.6-.22c1.04,1.01.18,1.56-.39,2.27-.57.69-1.07,1.45.75,2.19-.63.26-.39,1.21-1.59.89.77.62.44,1.37.06,2.25-.35.87-.5,1.88.62,2.58.05-.16-.08-.23-.37-.38-.34.45-.39.9-.38,1.31.01.42.16.82.31,1.21.29.79.64,1.54.27,2.59-.32-.1-.61-.38-1.23-.27-.5.51.29.76.81,1,.52.25.84.48-.55,1.17.17.39,1.55-.23,1.39-.43.08,2.09,1.16,3.99,2.6,5.51,1.45,1.52,3.22,2.67,4.77,3.72.32,1.55-.42,2.57-.96,3.13-.54.56-.8.72.71.63l3.11-.19-3.26,12.75h0s.13-12.57.13-12.57c.04,0,.09,0,.14,0-.17.62.88-.8.52-.28,1.48.09-.67,3.86.99,3.13.91-1.69,1.1-.47,1.83-1.35,1.13,2.48.45,4.11,2.84,4.19l-.73.68c3.51-.78,4.61,2.02,8.11.68,10.05,7.31,20.46,13.34,30.13,20.62,1.52,1.35,3.08,2.66,4.65,3.93l1.18.95.12.1h.01s.02.02.02.02c.03.02.07.03.1.03.14.03.2-.05.3.13.08,0,.2.25.74.4.97.93,1.59,1.14,1.81,1.1.12-.03.15-.13.11-.3-.01-.09-.07-.15-.09-.31.06-.32.14-.68.22-1.08.31.32.29.54.74.55-1.78-1.2.92-2.01-.71-3.29,2.58-3.7,4.12-7.58,6.4-11.6-.16.75,1.17,1.94,1.48,1.11l-.73-1.47.59.17c.02-.67-.57-1.76-1.47-1.57,4.16-10.99,13.56-18.77,18.74-28.9,1.49-1.34,2.53-3.6,3.38-5.78l6.95,17.43h0s-11.18-1.58-11.18-1.58l4.22-15.83c.16-.61.3-1.19.4-1.74,2.44-1.86,4.47-4.54,5.38-7.62.91-3.07.66-6.56-1.16-9.6,0,0,1.38-.15,3.03.1,1.65.24,3.56.96,4.43,2.57Z"/>
      <path class="cls-1" d="M139.28,114.93c.96-.61,1.11-1.71,2.76-1.48-.9.43-1.82,1.27-2.76,1.48Z"/>
      <path class="cls-1" d="M128.74,87.25c-.17.27-.25-.6-.28-.81.41.11,1.16-.53,1.23.12-.43-.11-.58.37-.95.69Z"/>
      <path class="cls-1" d="M120.57,83.91c.15-.45.76-.82,1.47-.96.71-.15,1.54-.15,2.13-.05-1.25.31-2.42.56-3.6,1.01Z"/>
      <path class="cls-1" d="M111.87,79.5c-.89-.76-.71-1.21.44-1.25.11.5-.25.78-.44,1.25Z"/>
      <path class="cls-1" d="M111.39,81.7c-.74.07-1.15-.4-1.59-.89.12.79,1.69-.75,1.59.89Z"/>
      <path class="cls-1" d="M91.99,86.25c-.36.36-.73,1.58-1.72,1.08.8.22,1.2-2.41,1.72-1.08Z"/>
      <path class="cls-1" d="M86.25,93.58c-.23.17-.48.16-.45.57-.61.11-.9-.73-.65-1.14l1.1.57Z"/>
      <polygon class="cls-1" points="23.31 134.1 22.84 133.26 23.78 133.39 23.31 134.1"/>
      <path class="cls-1" d="M54.68,179.92c.92-.03-.18,1-.18,1.19-.55-.32.92-.77.18-1.19Z"/>
      <polygon class="cls-1" points="79.43 193.66 79.25 193.55 80.52 192.07 79.43 193.66"/>
    </g>
  </g>
  <g>
    <path class="cls-2" d="M268.87,143.17c3.05-15.87-4.52-31.36-17.66-36.17-15.42-5.64-32.41,4.68-38.04,22.17l-.07.02c3.84-17.97-5.75-35.41-21.94-38.2-13.79-2.38-28.07,7.29-33.33,22.57-3.33,9.69-2.59,19.56,1.15,27.42h0s32.76,68.41,32.76,68.41l62.48-43.01h0c7.16-4.95,12.72-13.14,14.66-23.2Z"/>
    <g>
      <path class="cls-1" d="M265.53,141.66c.24,1.38,1.75-.43.61.99-.73-.33-1.27-.67-.61-.99Z"/>
      <path class="cls-1" d="M265.35,147.06c1.71,2.86.59,5.52-.96,7.76-1.57,2.3-3.52,4.14-4.08,7.1-.26.58-1.89-1.95-2.31-.57-.19,2.21-1.5,4.16-3.42,5.54l.07-1h0s.6.53.6.53l-.67.48c-3.31,2.37-7.99,3.61-12.23,4.22l-.14-.84c-1.26.19-.97,3.09-2.17,3.48-.3-.42-.09-.82-.72-1.24.62,1.44-1.4,1.83-1.18,3.07-.74-.23-1.39-1.26-2.28-1.46l.42,1.84c.78,4.53-4.03,2.42-4.98,5.69-.13-.41-.09-.82-.49-1.02-2.05,4.49-6.68,7.1-10.05,10.56-.2-.62-.7-1.65-1.32-2.07.86,1.66-.08,2.87-.92,3.89-1.55-1.24-.81,2.66-2.63,2.64l-.14-.42c.22,2.26-1.99-.02-1.38,2.45l-1.42-.84c1.12,2.48-2.1-.24-2.08,1.39l.34.44c-.34,1.02-1.46.17-1.86.99l-.24-.21c-1.13,1.64-2.87,1.02-1.65,2.72-1.48-1.01,1.05-1.65-1.17-3.07-1.76,2.47-4.35,4.78-7.03,6.85-2.7,2.08-5.46,3.89-8.15,5.75-.13-.26-.25-.52-.38-.78.02-1.9-.05-2.65.24-3.86-.46.02-1.16-1.55-2.01-.84.11.15.4-1.63.33-2.03-.01-.94-.47-.57-.96-.29-.48.29-.99.48-.98-.59.59-.06,1.08-.61,1.5-1.53-1.48.69-1.98-.95-2.93-1.72.35-.08.64.04,1.1-.53-.97.11-1.2-.6-1.33-1.28-.13-.69-.15-1.36-.91-1.59.41-.08.81-.18,1.2-.29.45-2.45-2.39.86-2.41-1.2.53.22.88-.15,1.34-.31-2.64-.44-3.07-3.01-4.41-4.08.19.01.48-.15.48-.15-.97-1.4-1.11-3.27-2.78-4.53.2-.84,2.75-1.07,1.59-2.49-2.16,1.11-2.2-2.29-4.22-.16-.3-1.54-.52-4.1-1.69-4.66,1.13.22,2.35-1.95,3.08-.9l.91-1.49c.96-.3.12,1.03,1.12.22-.36-.53-2.02-1.78-1.91-2.46-1.85-.41-4.81-.19-5.91-1.77,1.24.4,2.19-1.61,2.83-1.24l-5.33-.38c-.38-.52,1.67-.95.7-1.5-.56.32-1.08.13-1.67.11.15-.33-1.68-2.1.35-3.38.73-.66.9.71,1.36-.29-.53-1.04-1.28-.74-1.82-1.77l.28-.16c-.01-.85-1.9-1.61-2.73-.28.16.52,1.21-.8.92.21-1.49.11-2.42-.95-2.95-1.98.52.19,1.07-.13,1.75-.27-2.37-.6-3.62-1.84-5.08-3.08-1.04.47,2.14-.3,1.71.19.45-2.7-4.01-3.21-2.74-5.89.31.19-1.38.84-1.1.69-.34-1.04,1.17-1.7.31-2.07.84-.48-.66-.67-1.24-1.19-.79-.03.34-.37.71.15-1.18-.55-4.26-3.56-4-6.27-.17.1-.5.11-.88.05l4.96-10.03h0s-4.97,10.02-4.97,10.02c-.86-.19-2-.81-2.14-1.26l1.48-.34c.59-.88-.92-1.99.24-2.52-1.08-.34-.27.78.6,1.77.9.98,1.82,1.82.82,1.3.47-.47-.32-.8-1-1.1-.65-.31-1.18-.57-.16-.75-.51-1.14-2.52-1.84-1.52-3.44-.13.42,2.25.38,1.89-.54-.71-1.61-.84-.28-1.66-1.56l-.8-.76c-1.45.24-.12-1.64-1.59-.66.57-.22.27-.85.14-1.46-.13-.61-.07-1.19,1.14-1.25h1.91c-.22-.71-2.15-.98-3.03-1.53.17-.12.53-.36.84-.34-1.45.06-1.43-.43-1.33-1.01.1-.59.32-1.26-.82-1.71.47-.86.54-1.91.68-2.86.19-.94.46-1.76,1.4-2.06-.75-1.31-1.64-2.65-.76-3.99.22.34.24.74.84.92.99-.74.26-1.07-.02-1.98.38.25,2.03-1.39,3.29-2-.53-1.37-2.13-1.43-3.02-1.82,1.55-.14,1.35-1.09,1.19-2.12-.14-1.02-.26-2.16,1.2-2.33.2.57.65,2.19,1.69,1.52,1.54.03,1.2-.66.82-1.53-.38-.85-.87-1.92.15-2.42l-2.32-.67c.85-.04.81-.83.91-1.42.09-.6.22-1.03,1.22-.35-.42-.98,1.78-1.47-.29-2.53,1.72-.76,2.48-2.5,3.62-3.84,1.06-1.39,2.42-2.38,4.53-1.57.01-.29.27-.56.41-.84.15-.27.18-.56-.32-.92-1.44-.45-.08,1.38-.89.93.22-.33-.16-.85-.35-1.11,1.06-.31,1.75-.63,2.39,1.36,1.25-.14.97-1.21.76-2.42-.23-1.22-.32-2.53,1.09-3.01.46.85.84,1.02,1.4.43.09-.76.25-1.47.4-2.22,1.78-.65,2,1.33,2.89,2.7.61-.74,1.64-1.14,1.47-2.42.65.44,1.28.89,1.88,1.34-1.34-.98.24-1.24.5-1.74l-.24.53c.43.56,1.23-.21,1.66-.6-.47-.9-1.66-.87-2.36-.9.17-.84.95-.97,1.27-2.01.37,1.56,1.86.48,2.68.46.94.08.58-1.66.85-1.68.23.78,1.47-.24,1.06,1.05-.22.34-.87-.59-1.17.25.74.45.99,1.81,1.9.55.72-.95-.91-3.04,1.07-2.39-.4.48-.36,1.12-.59,1.75l1.72.52-.15-1.45c.27.32.14.48.27.65.27-1.61,2.43-.71,2.71-2.47.88-.25,1.87.98,2.67,1.14l-.16.12c.49.44,1.04.51,1.6.38.56-.1,1.13-.42,1.61-.86l-.08.31c.53.19,1.84.07,2.68-.57,1.16,1.39-.71,5.46,1.07,4.01,1.23.2,2.76-1.96,2.51-3.05,1.06.91,2.46.99,3.78,1.38,1.28.43,2.56,1,2.98,2.57.61-.31.6-.75,1.43-.62.72.65,1.57,1.13,2.4,1.65.81.54,1.66,1.06,2.44,1.62.8.55,1.4,1.26,1.89,2.01.46.77.77,1.6.65,2.64-1.11-.41-1.14.89-1.77,1.44,1.51-.18-.46,1.6,1.48.45.98-.88,1.55-1.2,1.31-2.35.48.32.97.73,1.44,1.2.23.23.46.48.67.74.2.25.34.5.49.76.58,1.02.88,2.09.65,2.88.11-.39.31-.56.55-.6.12-.02.25,0,.39.02.1-.02.2-.05.3-.08-1.81,1.04-1.78,1.81-1.01,1.7l1.02-.82c-.31.36-.6.73-.9,1.13.37-.12,2.05-1.85,1.25-.63-.35.41-.7.83-.94,1.2.45-.23,1.02-.65,1.37-.88.35-.23.49-.28.19.44-.37.74-.73,1.51-1.08,2.32.19,0,.9-1.07,1.19-1.94-.06.21-.13.41-.18.57-.41,1.49-.47,2.25-1.28,4.47.43-.7.9-1.48,1.4-2.29.32-.56.53-.93.67-1.11.25-.37.2.07.04.81l-.56,2.05c-.58,2.27.97-3.54.55-1.91-.76,2.84-.13.5-1.87,6.96-.06.29-.17.56-.12.6h0c.01.06.35-1.18.72-2.52.3-1.09.56-2.07.91-3.34.7-2.71-.52,1.93.38-1.54.13-.5.04-.08.05-.07,0,0,.03-.08.13-.41.22-.86.39-1.48.49-1.87-.34,1.43-1.06,4.27-1.49,5.91l.59-2.11c-.45,2.01-1,4.11-1.68,6.54-.67,2.39-1.42,5.15-1.99,7.56l.41-1.16c-.36,1.71-.82,3.21-1.17,4.33-.34,1.11-.57,1.8-.33,1.61.42-1.32,1.02-3.46,1.51-5.37.5-1.91.9-3.61.99-4.21.38-1.05.94-3.3,1.44-5.35.51-2.06.94-3.91,1.08-4.05-.34,1.81-.4.98-.99,3.76-.24,1.21,0,.6.24-.19.24-.79.5-1.75.5-1.45.05-.89.9-4.49,1.06-5.15-.08.64-.23,1.4-.37,2.03-.13.63-.24,1.11-.12,1.04.4-1.89.77-3.41.83-4.41.37-2.02.33-1.76.31-1.44-.03.33-.03.72.18-.75-.14,1.26-.36,2.78-.58,4.2-.22,1.4-.43,2.66-.31,3.02.13-1.2.34-2.21.53-3.26.19-1.07.31-2.17.43-3.89-.03.64-.12,2.41-.34,3.96.03.61.24-.59.34-1.31.11-.73.15-1.02.16,1.08l.08-2.24c.04.66.12,1.12.27,2.14.1-.08.21-.91.27-1.31.08-.39.17-.39.39,1.04.03-.36.52-.6-.1-2.33-.23-.5-.19-.12-.21.1-.01.21-.07.25-.29-1.08.19,1.07.28.92.25.46-.02-.47-.16-1.26-.22-1.62l.28,1.02c-.07-.43.11-.3-.25-1.35.18.57.41,1.23.55,1.43-.16-.5-.34-.99-.53-1.48-.11-.38.17.23.49.87.16.32.33.65.46.86.07.1.13.18.17.21.02.02.04.02.06.01,0,0,.01-.01.02-.02.04-.03.08-.06.12-.1-.02.07-.06.15-.07.2l.04.15.08.3c.05.2.09.41.12.63-.02-.14.15.1.34.29.1.1.19.18.27.21.14,0,.34-.11.46-.31-.38-1.38-.59-3.16-.81-4.27.67-1.04,1.11,1.2,1.4-.57-.16.71-.31,1.42-.44,2.13.02.25.47.66,1.06.94.61.28,1.25.39,1.93.12.61-.78,1.28-3.22-.44-3.35.72-.32,2.02.08,1.82,1.26,1.41-1.08-.75-1.32.36-2.69.92.66,3.17,1.4,4.53,2.43-.29.89-.55,1.77-.78,2.65l.89-.23c-.64,2.13.92,1.23.8,3.31.31.07.59-.1.85-.37.26-.25.51-.59.74-.89-1.17-1.4-.96-2.53-.44-3.69.49-1.15,1.27-2.31.77-3.68,1.39-.65,2.05,1.1,2.59,2.35.57,1.25.97,2.05,2.31-.28-.5-.73.86-2.99-.94-2.07,1.78.23,1.21-3,3.44-1.69-.85.55-.42,1.3-.13,2.12.3.82.45,1.69-.63,2.49.18-.94-1.18-.82-1.5-.49.69,1.08-.09,2.86,1.49,2.94.97-.23,2.31-.2,2.28-1.7.12-1.65-1.59.08-.8-1.55.54-.11.96-.03,1.3.1.33.15.58.37.79.5.43.26.73.21,1.42-1.15-1.38-.01-1.52-1.75-1.36-2.87l1.82-.4-.51,1.02c1.28.62,1.56.17,1.87-.34.15-.26.31-.53.59-.68.29-.16.7-.2,1.34.07.23.82.44,1.63.63,2.44-.56.81-1.38.34-2.14.08-.78-.21-1.45-.24-1.52,1.29,1.54.37,2.43-.89,3.7.29-.4.15-.87.09-1.26.26.26.13.26,1.21.5,2.03.25.85.71,1.37,2.13.66,1.38-.42.68-.89,1.11-1.94,1.27.35,2.22.35,3.06.34.82.04,1.54.05,2.36.41-.71.88-.07,1.29.38,1.63.45.34.7.59-.67,1.07-.02-.76-.89-1.59-1.98-2.03-1.09-.45-2.44-.34-3.23.45-.1,1.39-.5,1.11-1.06.78-.55-.36-1.33-.65-1.98.53.88.28,1.06,1.08.96,1.98-.1.9-.45,1.91-.65,2.75.36.28,1.04-.21,1.4-.34.85-1.38.27-1.6.88-3.12.43.31.89.51,1.35.69.45.19.92.32,1.4.38.96.12,1.99-.03,2.89-.31.16,1.07-.94,2.25-1.67,1.93,2.25.93,4.2,2.74,5.37,4.7.83-2.9,2.21,1.42,3.11-.77-.43-1.31.04-3.48,1.41-3.76.49.76-.84.78-.98,1.43.89-.1.78.61.71,1.22-.05.61-.1,1.15,1.1.84-1.07-.68-1.77-.19-2.39.52-.61.72-1.22,1.69-2.12,2.21,1.82.43-1.13.9-.24,2.02,1.82.38,3.58,1.45,4.86,2.68-.16.71-.09,1.35.12,1.94.11.3.25.58.42.85.15.28.32.56.5.83.37.54.8,1.06,1.18,1.55.39.49.66.98.84,1.42-.66,1.26-3.06,1.38-3.12,2.43.4,1.08,2.14-1.57,1.62.41l-.48-.04c.32.18.14,1.06.29,1.83.17.77.59,1.47,2.26,1.43-.85-.03-1.7-.05-2.55-.06-.17.35.44.53.75.75-.8.16-1.47.63-2.08.24-.77.65-.61,1.12-.23,1.61.37.48.91.98,1,1.52l1.41-.87c.66.92.69,1.76.55,2.58-.15.82-.38,1.62-.11,2.57l-1.45-.09c.31.37.54.75.81,1.13-1.38-.32-2.35.58-1.22,1.24-1.14-1.04-2.18-1.98-3.41-2.85.85-.72,1.76.82,3.18.4,1.24-.38.84-2.14-.56-2.33-.15.63.16.65.69,1.14-2.02.22-1.94-.72-3.29-1.1.08.31-.53.75.11.8-.5-.29-.78-.57-.95-.91-.2-.33-.28-.72-.35-1.2.84.6,1.21-.47,1.81-.27-1.8.06-2.33-.78-2.08-2.01.94-.58.52-1.12-.09-1.63-.66-.51-1.51-.98-1.4-1.7,1.86.04,3.46.43,4.38,1.19.66-1.13-.3-1.01.34-2.19-1.4-.11-3.45.14-4.6-.65l1.24-.48c-.99-.79-2.78-.08-2.95-1.35-.2-2.26-1.44-4.16-2.23-5.61l1.03-.83c-1.44.46-2.1.06-2.64-.52-.58-.52-1.07-1.21-1.91-1.18-.33-1.09-1.34-1.66-2.26-1.99-.45-.19-.83-.41-1.1-.7-.29-.27-.44-.66-.39-1.29-1.81-.47-3.52-.52-5.15-.65-.2-.02-.4-.05-.6-.07h-.61c-.41-.02-.81-.06-1.21-.11-.4-.08-.81-.07-1.22-.11-.41-.04-.84-.1-1.27-.19.2-.63.42-1.26.66-1.89-.71,1.39-.41-1.17-1.12-.87.78,1.49-.91,2.06-1.21,3.26-.82-.76-1.75-.49-2.53.02-.39.24-.74.64-1.04,1.07-.3.42-.55.86-.75,1.27l-.46-1.25c-.28,1.36-.86,1.76-1.7,1.76-.41-.02-.91.01-1.41.03-.5.02-1.01.05-1.48.19-.4-.45-1.5-1.13-2.1-.49-.19,1.51-.53,2.44-1.01,3.34-.12.22-.25.45-.39.7-.13.34-.26.69-.41,1.07-.3.78-.64,1.69-1.06,2.9-.74,1.14-1.69,2.5-2.8,3.45-.53.49-1.06.92-1.54,1.25-.24.16-.47.3-.69.41-.11.05-.21.1-.31.14l-.15.05s-.08-.05-.12-.07c-.62,1.04-1.28,1.91-1.95,2.65-.65.74-1.44,1.36-1.9,1.89-.53.53-1.06.97-1.58,1.36-.25.2-.56.38-.75.56l-.57.5-1.13.95c-.22.16-.33.31-.46.47l-.4.5c-.27.34-.56.72-.84,1.13l-.61,1.34.39-1.67c-.16.45-.32.84-.46,1.19h0c-.14.08-.11.06-.13.08l-.04.02s-.05.03-.07.03c-.05.02-.09.02-.13.01-.09-.02-.13-.09-.22-.21-.17-.1-.32-.25-.46-.43-.07-.09-.14-.19-.21-.3l-.1-.16-.21-.15c-.27-.21-.54-.41-.81-.61-.13-.1-.27-.19-.4-.28-.05-.05-.17-.07-.3-.1l-.36-.07c-.49-.07-.98-.09-1.51,0-.26.05-.54.12-.82.23-.19.07-.38.15-.57.22-.22.09-.44.19-.66.29,1.08-1.96,2.11-3.88,3.1-5.76-.38-1.27-1.58-.87-3.13.79-.47-.13-1.19.58-2.19,2.87.46-1.93.61-3.14.75-4.47.12-1.29.18-2.52.29-3.81.11-1.28.26-2.61.53-3.96.04-.17.07-.34.11-.51.02-.13.04-.25.07-.37.05-.25.1-.49.17-.75.14-.51.32-1.04.56-1.59.19-1.81-.1-2.39-.46-2.93-.18-.27-.38-.51-.54-.85-.08-.17-.16-.37-.22-.6-.12-.16-.26-.31-.38-.52-.2-1.33-.39-2.38-.6-3.3-.1-.46-.21-.88-.33-1.28l-.09-.3-.06-.13-.13-.23c-.18-.3-.4-.58-.67-.87-.26-.27-.57-.64-.93-.84l.12.42c.59-.14,1.54-.81,1.4-1.27-1.01-.06-.95-2.39-2.97.19.07-.61-.17-1.02-.51-1.36-.32-.36-.82-.53-1.28-.71-.89-.45-1.74-.61-1.76-2.17-.32.81-.75.79-1.17,1.24-.3-.13-.54-.37-.77-.65-.22-.31-.5-.51-.76-.76-.27-.23-.55-.43-.85-.5-.32-.02-.66.08-1,.38-.12-.48.69-1.35.13-1.58-.41.24-.25,1.1-.73,1.48-.6.28-1.09.39-1.59.21-.51-.07-1.01-.33-1.56-.62-.55-.2-1.13-.53-1.72-.65-.58-.08-1.18-.17-1.69.1-1.68,1.28-3.36,2.28-5.06,3.43-1.68,1.13-3.36,2.43-4.62,4.03l-.45-.46c.5,1.36-.51,1.49-1.34,1.88-.81.37-1.6.84-.27,2.3-.68-.04-.88.92-1.82.11.43.89-.2,1.42-.92,2.05-.69.63-1.27,1.48-.56,2.59.11-.12.02-.24-.17-.5-.5.26-.74.64-.91,1.02-.17.39-.21.8-.24,1.22-.08.84-.09,1.66-.88,2.45-.24-.23-.39-.61-.99-.78-.67.25-.07.81.3,1.26.36.45.55.8-1.01.81-.02.43,1.5.47,1.44.21-.83,1.92-.68,4.1-.05,6.09.65,2,1.74,3.8,2.69,5.42-.38,1.53-1.49,2.14-2.22,2.41-.74.27-1.04.3.37.87l2.89,1.18-8.47,10.08h0s5.57-11.27,5.57-11.27c.04.01.08.03.12.06-.42.49,1.14-.34.59-.03,1.3.72-2.28,3.19-.46,3.25,1.55-1.13,1.19.05,2.24-.42-.06,2.72-1.38,3.9.74,5.01l-.96.3c3.5.82,3.27,3.82,7.01,4.13,5.89,10.94,12.65,20.89,18.21,31.64.78,1.88,1.62,3.73,2.48,5.56l.65,1.37.07.14h0s.02.03.02.03c.02.03.05.05.08.07.11.09.2.04.21.25.07.04.07.31.49.69.47,1.26.94,1.71,1.16,1.78.12.03.19-.06.23-.22.03-.09,0-.17.05-.32.2-.26.42-.55.66-.88.14.42.03.61.43.82-1.08-1.85,1.7-1.41.79-3.27,3.93-2.22,7-5.04,10.8-7.68-.47.6.22,2.25.85,1.65l-.03-1.64.46.41c.31-.6.24-1.83-.65-2.05,8.51-8.11,20.35-11.04,29.42-17.92,1.93-.56,3.84-2.15,5.55-3.74l-1.29,18.72h0s-9.39-6.27-9.39-6.27l10.66-12.43c.41-.48.79-.95,1.11-1.39,3-.62,5.99-2.16,8.15-4.54,2.15-2.37,3.44-5.62,3.11-9.15,0,0,1.31.46,2.69,1.4,1.38.93,2.8,2.41,2.88,4.24Z"/>
      <path class="cls-1" d="M265.55,140.07c1.13-.13,1.74-1.06,3.13-.14-1,0-2.19.35-3.13.14Z"/>
      <path class="cls-1" d="M268.05,110.56c-.27.17.03-.65.1-.85.32.28,1.28.03,1.06.64-.34-.29-.69.08-1.16.21Z"/>
      <path class="cls-1" d="M262.13,104.01c.33-.34,1.04-.41,1.74-.23.7.17,1.46.53,1.94.88-1.26-.26-2.43-.55-3.69-.65Z"/>
      <path class="cls-1" d="M256.21,96.26c-.47-1.07-.11-1.4.94-.93-.12.5-.56.59-.94.93Z"/>
      <path class="cls-1" d="M254.82,98.03c-.7-.25-.87-.85-1.05-1.49-.23.77,1.85.05,1.05,1.49Z"/>
      <path class="cls-1" d="M235.36,93.72c-.48.17-1.34,1.1-2.02.22.62.55,2.13-1.65,2.02-.22Z"/>
      <path class="cls-1" d="M227.01,97.84c-.28.06-.5-.07-.65.32-.6-.17-.5-1.04-.09-1.31l.74.99Z"/>
      <polygon class="cls-1" points="152.73 107.08 152.67 106.12 153.47 106.64 152.73 107.08"/>
      <path class="cls-1" d="M161.14,161.96c.85.37-.6.83-.67.99-.36-.53,1.16-.3.67-.99Z"/>
      <polygon class="cls-1" points="177.48 185.08 177.37 184.9 179.16 184.12 177.48 185.08"/>
    </g>
  </g>
</svg>