<?xml version="1.0" encoding="UTF-8"?>
<svg id="Layer_3" data-name="Layer 3" xmlns="http://www.w3.org/2000/svg" viewBox="0 0 126.38 116.43">
  <defs>
    <style>
      .cls-1 {
        fill: #ff3a00;
      }
    </style>
  </defs>
  <path class="cls-1" d="M90.88,44.19c.3.66.82-.44.43.41-.4-.07-.72-.16-.43-.41Z"/>
  <path class="cls-1" d="M91.5,46.9c1.23,1.2,1.03,2.66.55,3.98-.47,1.35-1.2,2.52-1.08,4.07-.05.32-1.2-.72-1.22.03.2,1.12-.19,2.26-.96,3.21l-.1-.51h0s.37.18.37.18l-.27.33c-1.33,1.62-3.49,2.85-5.52,3.72l-.18-.4c-.6.26-.07,1.66-.62,2.02-.2-.17-.15-.39-.52-.52.5.63-.46,1.1-.18,1.68-.4-.01-.86-.44-1.33-.42l.45.86c.99,2.15-1.68,1.74-1.72,3.49-.12-.19-.15-.39-.38-.44-.42,2.5-2.38,4.41-3.59,6.58-.18-.28-.56-.73-.93-.85.64.71.34,1.44.06,2.05-.93-.41-.05,1.43-.96,1.66l-.12-.19c.41,1.1-.99.25-.36,1.4l-.82-.23c.89,1.08-1.07.16-.85.97l.23.17c-.03.55-.71.28-.8.74l-.15-.07c-.35.96-1.29.89-.46,1.57-.87-.3.31-.96-.99-1.37-.55,1.46-1.53,2.95-2.59,4.34-1.07,1.39-2.2,2.66-3.29,3.94l-.29-.34c-.24-.95-.38-1.31-.39-1.95-.23.07-.78-.61-1.11-.15.08.06-.02-.86-.1-1.05-.24-.91-.78.91-1.08-.18.29-.11.45-.44.54-.96-.64.54-1.11-.21-1.68-.47.16-.09.32-.07.47-.41-.47.18-.68-.14-.83-.46-.16-.33-.26-.66-.66-.67.19-.1.38-.2.56-.3-.1-1.28-1.07.74-1.36-.28.29.04.42-.19.63-.33-1.37.13-1.93-1.09-2.73-1.44.1-.02.22-.14.22-.14-.67-.57-.99-1.48-1.98-1.88-.01-.44,1.23-.9.46-1.45-.93.84-1.4-.85-2.12.48-.35-.73-.8-1.97-1.46-2.09.59-.04.91-1.28,1.41-.86l.25-.86c.44-.28.2.5.58-.04-.25-.22-1.24-.61-1.28-.97-.97.04-2.41.54-3.17-.09.67.03.87-1.09,1.24-.99l-2.7.52c-.26-.21.7-.69.15-.84-.24.23-.52.21-.82.27.03-.18-1.11-.82-.27-1.73.27-.42.54.23.64-.32-.4-.45-.73-.2-1.14-.64l.12-.12c-.12-.42-1.16-.55-1.39.22.15.24.49-.56.49-.02-.72.25-1.33-.15-1.73-.6.28.03.52-.2.83-.37-1.26.02-2.04-.44-2.93-.86-.45.37,1.02-.43.88-.13-.14-1.4-2.42-1.06-2.14-2.56.18.05-.57.6-.46.49-.3-.47.35-1-.12-1.07.36-.35-.42-.24-.77-.43-.4.09.12-.23.37-.02-.66-.12-2.59-1.2-2.82-2.59-.07.07-.24.12-.43.14l1.13-5.64h0s-1.14,5.64-1.14,5.64c-.45.02-1.1-.14-1.23-.34l.69-.37c.18-.52-.72-.87-.21-1.28-.58-.03-.03.43.53.8.58.37,1.15.66.58.54.35-.57-1.78-.29-.82-.77-.41-.5-1.49-.58-1.21-1.51,0,.23,1.17-.11.87-.52-.57-.71-.45-.03-1.03-.55l-.5-.27c-.69.31-.28-.8-.88-.12.5-.36-.92-1.12.27-1.51l.95-.26c-.2-.32-1.2-.2-1.71-.36.07-.08.22-.25.37-.28-1.44.43-.2-.94-1.43-1.07.25-.96-.47-2.17.38-2.72-.54-.55-1.16-1.1-.91-1.88.15.14.22.34.54.35.39-.5-.01-.57-.27-.98.22.08.82-.96,1.37-1.43-.45-.61-1.25-.43-1.74-.5.75-.28.53-.72.31-1.21-.2-.49-.42-1.04.29-1.32.18.26.61,1,1.04.53.77-.19.51-.49.21-.87-.3-.37-.69-.84-.25-1.22l-1.24-.02c.8-.26-.36-1.57.83-1.16-.34-.43.69-.96-.48-1.22.75-.61.9-1.57,1.29-2.39.34-.83.89-1.51,2.04-1.38-.07-.3.39-.66-.18-.89-.78-.03.15.7-.32.58.07-.19-.19-.4-.32-.5.49-.3.78-.55,1.37.36,1.19-.43-1.11-2.07.2-2.95.34.36.56.4.75.03-.06-.39-.07-.76-.1-1.15.8-.56,1.17.4,1.79.96.2-.45.66-.79.41-1.4.38.13.75.27,1.11.42-.8-.31-.05-.65.02-.93l-.05.3c.29.22.58-.27.74-.52-.35-.38-.94-.21-1.29-.13-.03-.44.34-.61.37-1.17.39.73.99,0,1.39-.13.48-.08.07-.9.2-.95.22.36.7-.32.67.38-.07.2-.51-.18-.55.28.43.12.73.77,1.02.02.23-.57-.85-1.39.21-1.33-.13.29-.03.61-.06.95l.92.03-.27-.7c.18.13.13.22.22.29-.08-.83,1.11-.68,1.02-1.58.4-.24,1.06.24,1.48.21l-.06.08c.59.29,1.16-.11,1.53-.66v.16c.29.02.92-.21,1.26-.64.76.54.37,2.81,1.06,1.85.64-.06,1.11-1.34.84-1.85.65.31,1.36.17,2.06.19.69.05,1.4.16,1.82.88.26-.23.2-.45.63-.5.44.23.93.35,1.41.5.47.16.96.3,1.43.48.9.38,1.69.95,1.88,1.98-.61-.06-.45.6-.69.95.73-.29-.01.86.79.03.37-.57.61-.8.34-1.34.54.19,1.25.56,1.65,1,.42.43.71.92.7,1.34,0-.21.08-.32.19-.37.06-.03.12-.04.2-.04.04-.02.09-.05.14-.08-.76.76-.64,1.13-.28.98l.4-.54c-.11.22-.2.44-.3.68.17-.11.77-1.19.54-.48-.12.25-.24.51-.31.72.41-.32.84-1.19.72-.42-.09.42-.16.85-.23,1.3.09-.03.31-.65.33-1.12,0,.11,0,.22-.01.31,0,.79.06,1.18-.04,2.39.35-1.12.49-1.75.57-1.96.08-.22.11,0,.13.4v1.09c0,1.21,0-1.89.01-1.02,0,1.31,0,1.08,0,3.71,0,.15,0,.3.02.32h0s.02-.63.02-1.35c0-.59,0-1.14,0-1.78,0-1.44,0,1.03-.01-.82,0-.51.04.8.02-1.26.02,1.3.03,2.2.04,3.13v-1.13c.05,1.06.06,2.17.04,3.47-.02,1.27-.02,2.75.01,4.02l.05-.63c.1,1.74-.13,3.37.04,3.15.07-1.45.04-4.49-.03-5.09.1-1.12-.09-4.82,0-5.01.07.95-.07.54,0,2,.04.63.08.3.09-.13.02-.43.02-.93.06-.78-.09-.45-.15-2.35-.16-2.7.1.63.08,1.67.17,1.59-.05-.99-.07-1.8-.17-2.3-.08-1.06-.07-.92-.04-.76.03.17.08.36-.01-.39.1.64.19,1.43.27,2.16.08.73.14,1.38.25,1.54-.1-.61-.12-1.14-.17-1.69-.05-.56-.14-1.12-.3-1.99.07.32.26,1.21.36,2.01.1.3.04-.33,0-.7-.04-.38-.06-.53.22.51l-.26-1.12c.11.32.21.54.42,1.03.1-.15-.3-1.6.29-.22-.03-.18.18-.37-.36-1.15-.34-.46.21.82-.38-.42.5.99.04-.27-.14-.58l.27.47c-.09-.21.02-.16-.3-.64.17.26.37.56.46.64-.15-.23-.3-.45-.46-.66-.11-.18.12.09.36.37.26.26.46.6.54.37-.02.09,0,.14.03.18l.08.14.15.29c-.03-.06.09.03.21.1.06.03.12.06.16.07.07-.02.16-.1.19-.21-.37-.64-.71-1.49-.97-2.01.19-.6.71.45.62-.47l.06,1.12c.1.24,1.09.58,1.62.13.2-.47.21-1.77-.66-1.6.32-.25,1.01-.23,1.07.38.56-.72-.55-.56-.17-1.38.54.21,1.76.28,2.57.61-.03.48-.04.95-.04,1.42l.41-.23c-.03,1.14.62.49.84,1.54.32-.02.46-.49.62-.84-.77-.54-.81-1.13-.71-1.77.09-.64.33-1.31-.11-1.93.6-.51,1.17.28,1.6.82.45.55.75.89,1.11-.45-.35-.29.03-1.6-.74-.9.92-.12.2-1.65,1.48-1.3-.35.39-.04.7.22,1.07.26.37.45.78.02,1.32-.04-.49-.7-.25-.81-.04.48.45.33,1.43,1.13,1.26.45-.24,1.12-.4.91-1.15-.16-.83-.78.25-.6-.66,1.05-.53,1.36.82,1.67-.74-.69.18-.99-.67-1.06-1.24l.85-.44-.12.58c1.43.3.34-1.1,1.77-.98.22.38.44.75.64,1.13-.17.48-.64.35-1.05.32-.41,0-.75.07-.58.84.81-.02,1.09-.77,1.88-.35-.18.13-.42.16-.59.29.32.07.49,2.11,1.66.99.63-.39.22-.53.3-1.11.68,0,1.15-.12,1.57-.24.41-.09.77-.18,1.22-.11-.46,1.04,1.47.53.21,1.38-.11-.38-.65-.67-1.25-.75-.6-.08-1.26.15-1.55.65.29,1.4-.98-.34-1.34,1.06.96.06.75,1.45.78,2.31.22.09.49-.24.65-.35.24-.8-.08-.83.03-1.67.51.17,1.01.23,1.51.17.49-.07.98-.28,1.39-.54.22.51-.17,1.24-.57,1.18,1.24.16,2.45.8,3.29,1.62.03-1.55,1.29.41,1.44-.79-.39-.59-.44-1.74.2-2.05.35.31-.31.5-.3.84.88-.32.1,1.42,1.17.78-1.25-.35-1.1,1.22-1.88,1.95.96-.03-.44.6.15,1.04.95-.05,1.97.24,2.77.69.01.76.5,1.21,1,1.66.51.43,1.13.8,1.4,1.21-.16.71-1.34,1.09-1.23,1.62.34.49.85-1.06.86-.01l-.24.05c.38.12.08,1.76,1.7,1.28l-1.27.31c-.04.2.29.21.47.27-.38.18-.65.51-1,.39-.59.83.58.91.8,1.45l.58-.62c.45.37.57.79.62,1.21.04.43.03.85.29,1.29l-.73.15c.2.14.37.3.55.45-.73.02-1.09.6-.44.78-.7-.36-1.35-.7-2.07-.96.33-.47.98.17,1.63-.23.57-.36.13-1.17-.59-1.08,0,.34.17.3.49.47-.97.38-1.06-.1-1.78-.11.08.14-.16.44.16.38-.56-.16-.72-.42-.93-.87.5.19.54-.39.86-.37-.89.27-1.26-.08-1.3-.72.39-.41.11-.62-.26-.8-.4-.16-.88-.29-.92-.66.93-.23,1.77-.24,2.33,0,.18-.65-.29-.46-.12-1.13-.71.13-1.7.53-2.37.29l.55-.4c-.6-.26-1.39.33-1.64-.28-.4-1.1-1.27-1.88-1.85-2.49l.4-.55c-.65.42-1.04.31-1.38.09-.36-.18-.69-.46-1.11-.34-.31-.5-.89-.65-1.39-.69-.49-.09-.89-.16-1.01-.79-.96,0-1.82.21-2.65.36-.83.16-1.61.33-2.51.41.02-.34.04-.68.08-1.03-.17.78-.36-.52-.67-.28.58.64-.18,1.15-.17,1.78-1.03-.48-1.69.82-1.83,1.74l-.39-.56c.04.71-.19.99-.61,1.1-.41.12-.98.25-1.41.49-.26-.17-.89-.36-1.11.03.21,1.64-.24,1.68-.36,4.36-.37,1.35-1.42,3.1-2.1,3.34-.17.6-.38,1.12-.62,1.58-.23.46-.54.87-.69,1.19-.35.65-.9,1.18-1.12,1.59l-.44.62c-.15.21-.2.38-.3.6-.09.21-.18.43-.27.67l-.13.75-.03-.88c-.02.21-.05.43-.07.65h0c-.16.18-.18.13-.3.05-.21-.04-.33-.24-.62-.39-.58-.27-1.37-.65-2.74.57.28-1.12.54-2.21.78-3.27-.35-.58-.9-.22-1.45.81-.25,0-.52.44-.71,1.72-.03-1.02-.11-1.64-.22-2.32-.12-.64-.24-1.3-.36-1.93-.12-.65-.22-1.33-.26-2.04v-.27s-.03-.19-.03-.19c0-.13-.01-.26-.01-.4,0-.27.02-.56.07-.86-.14-.92-.37-1.17-.62-1.4-.12-.11-.25-.2-.38-.35-.06-.07-.13-.16-.19-.27-.08-.06-.17-.12-.26-.21-.27-.63-.51-1.13-.73-1.56-.11-.21-.22-.41-.33-.59l-.08-.14-.05-.06-.1-.1c-.26-.23-.59-.48-1.02-.64l.12.19c.27-.15.66-.61.52-.82-.51.1-.79-1.06-1.45.49-.11-.6-.65-.77-1.16-.79-.5-.1-.95-.07-1.16-.84-.05.45-.27.49-.42.77-.33-.05-.62-.37-.95-.5-.16-.08-.33-.14-.49-.14-.16.03-.32.13-.45.32-.12-.22.17-.76-.14-.8-.17.17.02.58-.17.83-.26.22-.49.34-.76.32-.26.03-.55-.03-.86-.1-.3-.03-.63-.11-.94-.1-.3.04-.61.07-.82.27-.67.86-1.37,1.58-2.06,2.37-.69.79-1.35,1.65-1.76,2.62l-.28-.17c.43.61-.06.81-.42,1.11-.35.29-.68.63.17,1.18-.34.07-.31.57-.89.3.33.39.09.73-.19,1.14-.26.4-.43.9.07,1.36.04-.08-.02-.12-.15-.23-.8.85.19,1.65-.39,2.6-.15-.08-.27-.25-.6-.26-.59.45,1.45.72-.08,1.12.05.21.81.03.74-.08-.16,1.07.2,2.13.78,3.03.59.91,1.37,1.66,2.05,2.34.01.81-.46,1.26-.79,1.49-.33.23-.47.29.3.38l1.59.2-2.87,6.13h0s1.27-6.34,1.27-6.34c.02,0,.04,0,.07.01-.15.3.52-.32.29-.09.74.19-.71,1.89.2,1.68.62-.77.6-.13,1.06-.51.33,1.36-.17,2.12,1.03,2.39l-.44.28c1.85-.06,2.13,1.46,4.03,1.12,4.38,4.65,9.05,8.7,13.24,13.31.64.83,1.3,1.64,1.97,2.43l.51.59.05.06h0s.01.01.01.01c.02.01.03.02.05.03.07.03.1,0,.14.1.04.01.08.14.34.28.4.56.69.73.81.73.06,0,.09-.05.08-.14,0-.05-.02-.08-.02-.17.06-.16.13-.33.21-.53.12.19.09.3.32.35-.78-.78.66-.93-.04-1.73,1.66-1.62,2.81-3.43,4.35-5.24-.15.36.41,1.09.64.7l-.23-.81.28.14c.07-.34-.12-.94-.59-.93,3.15-5.16,8.65-8.18,12.24-12.8.88-.53,1.62-1.58,2.26-2.6l1.84,9.47h0s-5.5-1.87-5.5-1.87l3.65-7.59c.14-.29.27-.57.37-.84,1.41-.7,2.69-1.86,3.45-3.34.76-1.46.96-3.25.33-4.96,0,0,.71.05,1.52.34.81.28,1.71.82,1.99,1.73Z"/>
  <path class="cls-1" d="M90.68,43.4c.54-.22.73-.76,1.54-.48-.49.13-1.04.46-1.54.48Z"/>
  <path class="cls-1" d="M88.01,28.41c-.11.12-.07-.33-.06-.44.2.09.64-.16.61.18-.2-.1-.33.13-.55.26Z"/>
  <path class="cls-1" d="M84.2,25.94c.25-.46,1.34-.4,1.92-.17-.66.04-1.28.05-1.92.17Z"/>
  <path class="cls-1" d="M80.23,22.87c-.38-.47-.24-.68.34-.59,0,.26-.2.37-.34.59Z"/>
  <path class="cls-1" d="M79.78,23.93c-.38-.03-.54-.31-.72-.6-.01.41.93-.22.72.6Z"/>
  <path class="cls-1" d="M69.54,24.37c-.22.15-.52.73-.97.38.38.19.84-1.1.97-.38Z"/>
  <path class="cls-1" d="M65.94,27.52c-.13.07-.26.03-.28.24-.32,0-.38-.45-.22-.64l.5.39Z"/>
  <polygon class="cls-1" points="30.25 41.96 30.1 41.49 30.56 41.64 30.25 41.96"/>
  <path class="cls-1" d="M41.7,68.11c.47.07-.19.49-.2.58-.25-.21.54-.3.2-.58Z"/>
  <polygon class="cls-1" points="52.89 77.43 52.81 77.35 53.59 76.73 52.89 77.43"/>
</svg>