<?xml version="1.0" encoding="UTF-8"?>
<svg id="Layer_3" data-name="Layer 3" xmlns="http://www.w3.org/2000/svg" viewBox="0 0 300 300">
  <defs>
    <style>
      .cls-1 {
        fill: #202020;
      }

      .cls-2 {
        fill: #b51a25;
      }
    </style>
  </defs>
  <g>
    <path class="cls-2" d="M132.07,125.73c-1.27-4.78-5.41-8.06-9.67-7.64-5.01.49-8.32,5.6-7.56,11.17h-.02c-1.33-5.46-6.29-8.99-11.13-7.62-4.12,1.17-6.78,5.74-6.2,10.65.37,3.12,1.88,5.74,3.96,7.41h0s18.12,14.53,18.12,14.53l11.53-20.16h0c1.32-2.32,1.77-5.32.96-8.35Z"/>
    <g>
      <path class="cls-1" d="M130.94,125.76c.25.35.43-.35.3.19-.24,0-.44-.02-.3-.19Z"/>
      <path class="cls-1" d="M131.61,127.28c.85.56.9,1.45.77,2.27-.13.84-.42,1.61-.18,2.5,0,.2-.78-.29-.71.15.24.64.14,1.35-.21,1.98l-.11-.29h0s.24.07.24.07l-.12.22c-.6,1.09-1.73,2.06-2.82,2.79l-.15-.21c-.32.22.14.98-.14,1.25-.14-.07-.13-.21-.36-.25.36.32-.14.69.08,1-.23.04-.55-.16-.82-.1l.36.45c.82,1.15-.79,1.2-.62,2.23-.09-.1-.13-.21-.27-.22.03,1.51-.9,2.85-1.37,4.25-.14-.14-.41-.36-.64-.4.46.34.36.8.26,1.2-.59-.14.13.84-.37,1.08l-.09-.1c.36.6-.55.26-.05.86l-.5-.04c.64.54-.61.21-.39.66l.15.08c.04.33-.38.24-.38.52l-.09-.03c-.09.6-.66.66-.09.97-.54-.08.07-.6-.73-.69-.16.91-.57,1.9-1.03,2.82-.47.93-.99,1.8-1.49,2.67l-.21-.17c-.25-.53-.37-.72-.45-1.1-.12.07-.53-.27-.67.04.05.03-.1-.5-.18-.6-.24-.5-.36.62-.65.01.16-.09.22-.31.21-.62-.32.39-.67,0-1.04-.09.09-.07.18-.07.23-.29-.54.3-.55-.59-1-.5l.29-.24c-.2-.74-.55.55-.83-.01.17-.01.22-.16.33-.26-.79.23-1.25-.42-1.76-.54.05-.02.11-.11.11-.11-.45-.26-.74-.76-1.37-.88-.06-.26.62-.66.11-.9-.45.59-.91-.34-1.19.52-.29-.39-.69-1.06-1.09-1.06.34-.09.39-.85.73-.66l.05-.53c.22-.21.17.27.34-.09-.17-.1-.79-.22-.85-.42-.56.13-1.35.59-1.86.3.39-.06.39-.74.62-.72l-1.52.6c-.17-.09.33-.48,0-.51-.11.16-.28.18-.45.25,0-.11-.74-.36-.35-.98.11-.28.34.08.34-.26-.28-.22-.45-.03-.74-.25l.06-.08c-.12-.23-.74-.19-.79.28.11.12.23-.38.28-.06-.4.23-.79.06-1.08-.16.17-.02.28-.18.45-.31-.73.15-1.24-.03-1.81-.18-.22.27.55-.37.5-.18-.23-.81-1.53-.35-1.54-1.26.11.01-.27.42-.21.34-.23-.24.1-.62-.19-.61.17-.24-.27-.1-.5-.17-.22.1.04-.15.22-.05-.4,0-1.65-.42-1.94-1.2-.03.05-.12.1-.24.13l.04-3.43h0s-.04,3.43-.04,3.43c-.26.06-.66.04-.76-.06l.36-.29c.05-.32-.52-.43-.27-.73-.34.05.03.25.4.41.38.15.75.26.4.25.14-.37-1.08.03-.57-.36-.29-.25-.94-.17-.88-.75.02.13.67-.19.45-.4-.41-.35-.27.03-.66-.21l-.32-.1c-.37.26-.25-.44-.53.03.25-.27-.66-.55,0-.91l.53-.26c-.16-.17-.72.02-1.04-.02.03-.06.1-.17.19-.21-.79.41-.22-.53-.95-.47.04-.59-.52-1.21-.08-1.63-.38-.26-.8-.52-.74-1,.1.06.16.17.35.14.18-.33-.07-.33-.27-.54.14.02.37-.65.64-.99-.33-.31-.78-.11-1.08-.1.41-.25.23-.48.05-.74-.17-.26-.36-.56.02-.8.13.13.47.52.67.19.84-.37-.68-.65-.26-1.22l-.73.12c.44-.24-.38-.88.35-.77-.25-.21.3-.64-.42-.66.37-.44.35-1.02.49-1.54.11-.52.35-.98,1.04-1.03-.08-.17.16-.43-.21-.5-.46.07.16.39-.12.38.02-.12-.16-.21-.24-.26.25-.23.4-.41.84.06.65-.39-.88-1.09-.21-1.75.24.17.37.17.44-.07-.08-.22-.13-.44-.18-.66.4-.42.73.1,1.16.36.07-.29.3-.53.08-.86.24.03.47.08.7.12-.5-.09-.1-.37-.09-.55v.18c.2.1.31-.22.38-.38-.25-.19-.57-.02-.77.06-.06-.25.13-.4.09-.72.31.38.58-.12.8-.23.27-.1-.06-.53.01-.58.17.18.37-.26.43.15-.02.12-.32-.05-.29.22.26.02.51.37.6-.1.07-.36-.65-.72-.02-.8-.05.19.05.36.07.56l.54-.08-.23-.38c.12.05.1.11.16.14-.14-.48.58-.52.42-1.04.21-.19.65.02.89-.04l-.03.06c.38.1.67-.19.82-.56l.02.1c.17-.02.52-.23.66-.51.5.23.53,1.6.83.96.37-.11.5-.91.29-1.17.41.11.81-.05,1.23-.12.41-.05.84-.06,1.16.31.13-.17.07-.29.31-.36,1.1.26,2.6.04,3.09,1.21-.36.03-.2.4-.3.63.39-.25.09.5.47-.07.15-.37.27-.54.05-.82.75.09,1.56.61,1.64,1.11-.02-.12.01-.19.07-.24.07-.04.15-.06.18-.11-.36.53-.25.73-.05.6l.17-.36c-.04.14-.07.28-.1.43.09-.08.32-.78.26-.34-.04.16-.08.32-.1.46.2-.23.36-.79.37-.33,0,.25,0,.51,0,.78.05-.03.11-.42.07-.69,0,.07.02.13.03.18.08.47.17.68.24,1.4.14-1.41.1-1.48.24-.99l.12.64c.14.71-.2-1.11-.1-.6.13.7.18.98.41,2.17.02.09.03.18.05.18h0s-.06-.37-.14-.79c-.07-.36-.13-.7-.19-1.04-.17-.84.11.6-.1-.48-.06-.3.11.47-.13-.74.12.61.27,1.32.37,1.83l-.12-.66c.14.62.27,1.27.4,2.03.13.75.29,1.61.46,2.35l-.04-.38c.25,1.01.3,1.99.37,1.84-.12-.86-.47-2.63-.58-2.98-.07-.67-.59-2.81-.55-2.93.15.54.02.32.23,1.17.2.71-.09-.74-.01-.55-.1-.25-.35-1.36-.39-1.56.13.36.23.97.27.91-.14-.57-.24-1.04-.36-1.33-.34-1.19.11.23-.16-.67.26.69.55,1.91.71,2.11-.25-.72-.29-1.15-.68-2.1.08.18.29.68.43,1.14.19.29-.45-1.31.11-.13l-.28-.63c.1.18.18.29.36.56.04-.1-.35-.9.15-.16-.04-.1.06-.23-.34-.63-.25-.23.21.45-.27-.2.4.52,0-.16-.15-.32l.21.24c-.08-.11,0-.1-.25-.34.13.13.28.28.34.32l-.34-.34c-.15-.2.62.56.61.33.04.15.15.21.22.33-.02-.03.05,0,.13.04.04.01.08.02.1.02.04-.02.08-.08.09-.15-.29-.33-.58-.79-.79-1.07.05-.37.46.18.31-.34l.16.65c.09.13.7.22.96-.11.07-.3-.07-1.06-.57-.86.16-.18.57-.25.67.1.25-.48-.38-.26-.26-.79.34.06,1.06-.03,1.57.07.04.28.08.56.14.83l.22-.18c.11.67.42.22.66.81.19-.05.22-.34.27-.56-1.05-.44-.28-1.43-.89-2.08.63-.72,1.55,1.56,1.63-.08-.24-.13-.16-.94-.53-.45.52-.17-.06-.99.72-.92-.3.52.81.63.4,1.37-.08-.28-.43-.07-.48.07.33.21.35.8.8.61.24-.19.61-.36.4-.77-.19-.47-.43.23-.42-.32.55-.43.89.33.89-.62-.38.18-.65-.28-.76-.61l.45-.35v.35c.87.02.07-.68.92-.77.17.19.34.39.5.59-.05.3-.34.28-.58.31-.24.04-.43.13-.25.56.47-.1.55-.57,1.06-.41-.09.1-.23.14-.31.24.2,0,.52,1.18,1.08.4.33-.3.07-.34.05-.68.79-.16,1.05-.5,1.59-.51-.15.66.92.15.28.78-.21-.43-1.42-.44-1.65.26.32.79-.61-.09-.66.77.57-.07.6.76.71,1.27.14.03.26-.19.34-.28.05-.49-.14-.48-.17-.98.63.1,1.22-.11,1.66-.54.19.27.04.75-.2.75.74-.04,1.52.2,2.11.58-.16-.91.8.1.76-.62-.29-.3-.45-.97-.11-1.22.24.14-.13.33-.08.52.48-.28.22.82.77.33-.77-.06-.51.83-.88,1.35.56-.12-.19.4.2.59.55-.14,1.18-.08,1.7.09.19.85,1.29.99,1.72,1.41-.02.44-.66.79-.54,1.08.25.25.38-.72.5-.1l-.14.05c.23.03.24,1.02,1.14.56l-.71.32c0,.12.19.09.31.11-.2.15-.32.37-.54.34-.25.55.44.47.63.76l.27-.43c.63.33.42.92.81,1.36l-.41.17c.13.06.25.13.37.2-.42.09-.57.47-.17.5-.45-.14-.86-.26-1.32-.33.14-.31.59,0,.93-.31.29-.27-.05-.7-.46-.57.04.2.13.16.34.22-.53.33-.63.06-1.05.13.06.07-.05.28.14.21-.35-.03-.47-.16-.64-.41.31.05.27-.29.46-.31-.49.26-.75.1-.84-.28.36-.59-.73-.32-.85-.72.52-.24,1.01-.34,1.37-.25.03-.4-.22-.24-.2-.65-.4.16-.93.5-1.36.43l.28-.3c-.38-.09-.78.35-.99.02-.35-.6-.95-.96-1.36-1.25l.17-.37c-.34.32-.57.3-.8.21-.23-.07-.46-.19-.68-.07-.24-.26-.59-.28-.89-.25-.3,0-.54,0-.68-.35-1.13.26-1.91.74-2.93,1.02-.03-.2-.05-.4-.07-.61-.01.48-.27-.27-.42-.09.41.31.02.69.1,1.06-.66-.17-.9.67-.88,1.22l-.29-.28c.1.41,0,.6-.24.71-.23.11-.55.25-.77.44-.17-.07-.56-.11-.65.14.31.94.05,1.01.27,2.59-.07.83-.49,1.97-.86,2.19-.05.73-.31,1.33-.46,1.77-.13.42-.39.79-.48,1.05-.13.28-.26.55-.3.79-.03.13-.06.27-.08.42v.45s-.11-.51-.11-.51c0,.13.02.26.03.39h0c-.07.13-.09.09-.17.06-.13,0-.22-.1-.41-.16-.37-.09-.87-.23-1.54.64l.09-2c-.27-.3-.55-.03-.76.63-.15.03-.25.32-.22,1.08-.13-.59-.25-.95-.39-1.33-.14-.36-.29-.73-.43-1.09-.14-.37-.28-.76-.38-1.16-.1-.38-.16-.62-.18-1.01-.19-.52-.35-.65-.52-.75-.08-.05-.17-.09-.26-.16-.05-.04-.09-.08-.14-.14-.05-.03-.11-.05-.17-.09-.23-.34-.42-.61-.6-.83-.18-.22-.37-.44-.42-.46-.18-.11-.4-.21-.67-.26l.09.1c.14-.12.32-.43.22-.54-.29.12-.58-.53-.79.45-.13-.34-.47-.38-.77-.33-.3,0-.56.06-.77-.36.02.27-.1.32-.16.5-.2,0-.4-.15-.61-.19-.21-.07-.42-.06-.53.21-.1-.12.01-.46-.17-.45-.08.12.08.34,0,.51-.13.16-.25.25-.41.27-.15.05-.32.04-.51.04-.36,0-.79.03-1.01.3-.56,1.12-1.39,2.09-1.68,3.34l-.18-.07c.32.31.06.48-.12.7-.17.21-.33.44.23.67-.19.08-.12.37-.49.27.24.19.13.42.02.69-.11.27-.15.58.19.79.01-.05-.03-.07-.11-.11-.37.59.3.94.06,1.56-.1-.03-.19-.12-.38-.08-.3.33.93.26.08.67.05.12.48-.07.43-.13.03.64.36,1.22.8,1.69.44.47.98.82,1.46,1.14.23.96-.99,1.21-.08,1.15l.95-.06-1,3.91h0s.04-3.85.04-3.85c.01,0,.03,0,.04,0-.05.19.27-.25.16-.09.45.03-.21,1.18.3.96.28-.52.34-.14.56-.41.35.76.14,1.26.87,1.28l-.22.21c1.08-.24,1.41.62,2.48.21,3.08,2.24,6.27,4.09,9.23,6.32.47.41.94.81,1.42,1.2l.36.29c.07.06.03.02.05.04h.03s.06,0,.09.05c.02,0,.06.08.23.12.3.28.49.35.56.34.04,0,.05-.04.03-.09,0-.03-.02-.05-.03-.1.02-.1.04-.21.07-.33.09.1.09.16.23.17-.54-.37.28-.62-.22-1.01.79-1.13,1.26-2.32,1.96-3.55-.05.23.36.59.45.34l-.22-.45.18.05c0-.21-.18-.54-.45-.48,1.27-3.37,4.15-5.75,5.74-8.85.46-.41.77-1.1,1.04-1.77l2.13,5.34h0s-3.42-.48-3.42-.48l1.29-4.85c.05-.19.09-.37.12-.53.75-.57,1.37-1.39,1.65-2.34.28-.94.2-2.01-.36-2.94,0,0,.42-.05.93.03.5.07,1.09.29,1.36.79Z"/>
      <path class="cls-1" d="M130.74,125.32c.29-.19.34-.52.84-.45-.27.13-.56.39-.84.45Z"/>
      <path class="cls-1" d="M127.51,116.84c-.05.08-.08-.18-.09-.25.13.03.36-.16.38.04-.13-.03-.18.11-.29.21Z"/>
      <path class="cls-1" d="M125.01,115.82c.09-.3.74-.38,1.1-.31-.38.1-.74.17-1.1.31Z"/>
      <path class="cls-1" d="M122.35,114.47c-.27-.23-.22-.37.14-.38.03.15-.08.24-.14.38Z"/>
      <path class="cls-1" d="M122.2,115.14c-.23.02-.35-.12-.49-.27.04.24.52-.23.49.27Z"/>
      <path class="cls-1" d="M116.26,116.54c-.11.11-.22.48-.53.33.24.07.37-.74.53-.33Z"/>
      <path class="cls-1" d="M114.5,118.78c-.07.05-.15.05-.14.17-.19.03-.28-.22-.2-.35l.34.17Z"/>
      <polygon class="cls-1" points="95.22 131.19 95.08 130.94 95.37 130.97 95.22 131.19"/>
      <path class="cls-1" d="M104.83,145.22c.28,0-.05.31-.05.36-.17-.1.28-.24.05-.36Z"/>
      <polygon class="cls-1" points="112.41 149.43 112.35 149.4 112.75 148.95 112.41 149.43"/>
    </g>
  </g>
  <g>
    <path class="cls-2" d="M170.43,133.97c.93-4.86-1.38-9.61-5.41-11.08-4.72-1.73-9.93,1.43-11.65,6.79h-.02c1.18-5.5-1.76-10.84-6.72-11.69-4.22-.73-8.6,2.23-10.21,6.91-1.02,2.97-.79,5.99.35,8.4h0s10.03,20.95,10.03,20.95l19.13-13.17h0c2.19-1.52,3.9-4.03,4.49-7.11Z"/>
    <g>
      <path class="cls-1" d="M169.4,133.51c.07.42.54-.13.19.3-.22-.1-.39-.2-.19-.3Z"/>
      <path class="cls-1" d="M169.35,135.16c.52.88.18,1.69-.29,2.38-.48.7-1.08,1.27-1.25,2.18-.08.18-.58-.6-.71-.17-.06.68-.46,1.27-1.05,1.7l.02-.31h0s.18.16.18.16l-.2.15c-1.01.73-2.45,1.11-3.75,1.29l-.04-.26c-.39.06-.3.94-.66,1.07-.09-.13-.03-.25-.22-.38.19.44-.43.56-.36.94-.23-.07-.43-.39-.7-.45l.13.56c.24,1.39-1.24.74-1.53,1.74-.04-.12-.03-.25-.15-.31-.63,1.38-2.05,2.18-3.08,3.23-.06-.19-.21-.51-.4-.63.26.51-.02.88-.28,1.19-.47-.38-.25.82-.8.81l-.04-.13c.07.69-.61,0-.42.75l-.44-.26c.34.76-.64-.07-.64.43l.1.13c-.1.31-.45.05-.57.3l-.07-.07c-.35.5-.88.31-.5.83-.45-.31.32-.5-.36-.94-.54.76-1.33,1.47-2.15,2.1-.83.64-1.67,1.19-2.5,1.76l-.12-.24c0-.58-.02-.81.07-1.18-.14,0-.36-.47-.62-.26.03.04.12-.5.1-.62,0-.56-.59.4-.59-.27.18-.02.33-.19.46-.47-.45.21-.61-.29-.9-.53.11-.02.2.01.34-.16-.61.03-.24-.77-.69-.88l.37-.09c.14-.75-.73.26-.74-.37.16.07.27-.04.41-.09-.81-.13-.94-.92-1.35-1.25.06,0,.15-.05.15-.05-.3-.43-.34-1-.85-1.39.06-.26.84-.33.49-.76-.66.34-.67-.7-1.29-.05-.09-.47-.16-1.26-.52-1.43.35.07.72-.6.94-.28l.28-.46c.29-.09.04.32.34.07-.11-.16-.62-.54-.59-.75-.57-.13-1.47-.06-1.81-.54.38.12.67-.49.87-.38l-1.63-.12c-.12-.16.51-.29.21-.46-.17.1-.33.04-.51.03.04-.1-.51-.64.11-1.04.22-.2.28.22.42-.09-.16-.32-.39-.23-.56-.54l.09-.05c0-.26-.58-.49-.83-.09.05.16.37-.25.28.06-.46.03-.74-.29-.9-.61.16.06.33-.04.54-.08-.73-.18-1.11-.56-1.56-.94-.32.14.66-.09.52.06.14-.83-1.23-.98-.84-1.8.1.06-.42.26-.34.21-.1-.32.36-.52.1-.64.26-.15-.2-.2-.38-.36-.24-.01.1-.11.22.05-.36-.17-1.3-1.09-1.22-1.92-.05.03-.15.03-.27.02l1.52-3.07h0s-1.52,3.07-1.52,3.07c-.26-.06-.61-.25-.66-.39l.45-.1c.18-.27-.28-.61.07-.77-.33-.11-.08.24.18.54.28.3.56.56.25.4.29-.27-.98-.44-.36-.57-.16-.35-.77-.56-.47-1.05-.04.13.69.12.58-.16-.22-.49-.26-.09-.51-.48l-.24-.23c-.45.07-.04-.5-.49-.2.34-.13-.36-.79.39-.83h.59c-.07-.22-.66-.3-.93-.47.05-.04.16-.11.26-.1-.89.03.03-.57-.66-.83.29-.52.06-1.32.64-1.5-.23-.4-.5-.81-.23-1.22.07.1.07.23.26.28.3-.23.08-.33,0-.61.12.08.62-.43,1.01-.61-.16-.42-.65-.44-.93-.56.48-.04.41-.33.37-.65-.04-.31-.08-.66.37-.71.06.17.2.67.52.47.92.03-.34-.88.3-1.21l-.71-.2c.5-.02.03-.96.65-.54-.13-.3.54-.45-.09-.77.53-.23.76-.76,1.11-1.18.32-.43.74-.73,1.39-.48,0-.18.33-.32.03-.54-.44-.14-.02.42-.27.29.07-.1-.05-.26-.11-.34.33-.1.53-.19.73.42.75-.07-.32-1.36.57-1.66.14.26.26.31.43.13.03-.23.08-.45.12-.68.55-.2.61.41.88.83.19-.23.5-.35.45-.74.2.13.39.27.58.41-.41-.3.07-.38.15-.53l-.07.16c.13.17.38-.06.51-.18-.14-.28-.51-.27-.72-.28.05-.26.29-.3.39-.61.11.48.57.15.82.14.29.03.18-.51.26-.51.07.24.45-.07.32.32-.07.1-.27-.18-.36.08.23.14.3.55.58.17.22-.29-.28-.93.33-.73-.12.15-.11.34-.18.54l.53.16-.05-.44c.08.1.04.15.08.2.08-.49.74-.22.83-.76.27-.08.57.3.82.35l-.05.04c.3.26.69.11.98-.15l-.03.09c.16.06.56.02.82-.18.35.43-.22,1.67.33,1.23.38.06.84-.6.77-.93.32.28.75.3,1.16.42.39.13.78.31.91.79.19-.09.18-.23.44-.19.88.71,2.33,1.16,2.26,2.43-.34-.13-.35.27-.54.44.46-.06-.14.49.45.14.3-.27.47-.37.4-.72.63.4,1.14,1.23,1,1.71.03-.12.09-.17.17-.18.08,0,.16.01.21-.02-.55.32-.54.55-.31.52l.31-.25c-.09.11-.19.22-.28.35.11-.04.63-.57.38-.19-.11.13-.22.26-.29.37.29-.12.67-.56.48-.13-.11.23-.22.46-.33.71.06,0,.28-.33.36-.6-.02.06-.04.12-.05.17-.13.46-.14.69-.39,1.37.74-1.21.73-1.29.64-.79l-.17.63c-.18.7.3-1.08.17-.59-.18.69-.26.96-.57,2.13-.02.09-.05.17-.04.19h0s.11-.36.22-.77c.1-.35.19-.69.28-1.02.22-.83-.16.59.12-.47.08-.29-.1.47.2-.72-.15.6-.33,1.3-.46,1.81l.18-.65c-.14.62-.31,1.26-.51,2-.21.73-.43,1.58-.61,2.32l.13-.36c-.21,1.02-.59,1.92-.46,1.82.26-.83.71-2.58.77-2.93.23-.63.69-2.79.77-2.88-.1.56-.12.3-.3,1.15-.13.72.24-.71.23-.5.01-.27.28-1.37.32-1.58-.04.38-.21.98-.15.94.12-.58.24-1.04.25-1.35.21-1.22,0,.25.15-.67-.06.74-.33,1.96-.27,2.21.09-.76.24-1.16.29-2.19,0,.2-.04.74-.1,1.21.05.34.17-1.38.15-.07l.02-.69c.01.2.04.34.08.66.08-.07.07-.97.2-.08.01-.11.16-.18-.03-.71-.12-.32,0,.5-.15-.3.13.64.06-.15,0-.35l.08.31c-.02-.13.04-.09-.08-.41.06.17.13.38.17.44l-.16-.45c-.05-.24.31.77.4.56-.03.15.05.25.05.39,0-.04.05.03.1.09.03.03.06.06.08.06.04,0,.1-.03.14-.09-.12-.42-.18-.97-.25-1.31.2-.32.34.37.43-.17l-.14.65c.02.15.54.5.91.32.19-.24.39-.99-.14-1.03.22-.1.62.03.56.39.43-.33-.23-.4.11-.82.28.2.97.43,1.39.74-.09.27-.17.54-.24.81l.27-.07c-.19.65.28.38.24,1.01.19.04.34-.21.49-.39-.76-.85.37-1.41.1-2.26.88-.38.73,2.08,1.5.63-.15-.22.26-.92-.29-.63.55.07.37-.92,1.05-.52-.5.34.46.92-.23,1.41.05-.29-.36-.25-.46-.15.21.33-.03.88.46.9.3-.07.71-.06.7-.52.04-.51-.49.02-.24-.47.68-.14.66.68,1.07-.17-.42,0-.47-.53-.42-.88l.56-.12-.16.31c.78.39.36-.58,1.17-.29.07.25.14.5.19.75-.17.25-.42.1-.66.02-.24-.06-.44-.07-.47.39.47.11.75-.27,1.13.09-.12.05-.27.03-.38.08.18.09-.04,1.29.8.83.42-.13.21-.27.34-.59.78.2,1.16,0,1.66.23-.43.53.76.53-.09.82,0-.48-1.09-1.01-1.6-.48-.05.85-.51-.35-.93.4.54.18.21.95.09,1.45.11.09.32-.06.43-.1.26-.42.08-.49.27-.96.52.36,1.15.43,1.73.23.05.33-.29.69-.51.59.69.28,1.29.84,1.65,1.44.25-.89.68.44.95-.23-.13-.4.01-1.07.43-1.15.15.23-.26.24-.3.44.55-.05-.16.83.55.63-.67-.39-.82.53-1.38.84.56.13-.35.28-.07.62.56.12,1.1.44,1.49.82-.2.85.74,1.45.94,2.02-.2.39-.94.42-.96.74.12.33.65-.48.5.13h-.15c.2.12-.22,1.02.78.99l-.78-.02c-.05.11.14.16.23.23-.24.05-.45.19-.64.07-.47.39.19.61.23.96l.43-.27c.42.57-.02,1.01.14,1.58l-.44-.03c.09.11.17.23.25.35-.42-.1-.72.18-.37.38-.35-.32-.67-.61-1.04-.87.26-.22.54.25.97.12.38-.12.26-.65-.17-.71-.05.19.05.2.21.35-.62.07-.6-.22-1.01-.34.03.09-.16.23.03.25-.3-.18-.35-.35-.4-.64.26.18.37-.14.55-.08-.55.02-.72-.24-.64-.62.58-.38-.52-.6-.46-1.02.57.01,1.06.13,1.34.36.2-.35-.09-.31.1-.67-.43-.03-1.06.04-1.41-.2l.38-.15c-.3-.24-.85-.03-.9-.41-.06-.69-.44-1.28-.68-1.72l.31-.25c-.44.14-.64.02-.81-.16-.18-.16-.33-.37-.58-.36-.1-.33-.41-.51-.69-.61-.27-.13-.48-.23-.46-.61-1.13-.26-2.04-.17-3.08-.35.06-.19.13-.39.2-.58-.22.43-.13-.36-.34-.26.24.46-.28.63-.37,1-.52-.44-1.1.21-1.32.72l-.14-.38c-.09.42-.26.54-.52.54-.26,0-.6,0-.89.07-.12-.14-.46-.35-.64-.15-.13.98-.4.93-.88,2.45-.42.72-1.29,1.57-1.72,1.6-.36.64-.85,1.07-1.18,1.39-.3.32-.7.54-.89.74-.24.2-.47.38-.61.59-.08.11-.17.22-.26.35l-.19.41.12-.51c-.05.12-.09.24-.14.36h0c-.12.08-.12.05-.18-.02-.12-.06-.15-.19-.3-.32-.29-.25-.69-.59-1.66-.09l.95-1.77c-.11-.39-.48-.27-.96.24-.14-.04-.37.18-.67.88.14-.59.19-.96.23-1.37.03-.38.06-.78.09-1.17.03-.39.08-.8.16-1.21.07-.38.12-.63.28-.98.06-.55-.03-.73-.14-.9-.05-.08-.11-.16-.17-.26-.03-.05-.05-.11-.07-.18-.04-.05-.08-.09-.12-.16-.06-.41-.12-.73-.18-1.01-.06-.28-.14-.56-.19-.59-.11-.17-.27-.37-.49-.52l.04.13c.18-.04.47-.25.43-.39-.31-.02-.29-.73-.91.06.03-.36-.26-.54-.55-.63-.27-.14-.53-.19-.54-.66-.1.25-.23.24-.36.38-.18-.08-.3-.31-.47-.43-.16-.15-.35-.23-.57-.04-.04-.15.21-.41.04-.48-.12.07-.08.34-.22.45-.18.08-.33.12-.49.06-.15-.02-.31-.1-.48-.19-.33-.15-.73-.32-1.04-.17-.99.76-2.16,1.28-2.96,2.29l-.14-.14c.15.42-.16.46-.41.58-.25.11-.49.26-.08.7-.21-.01-.27.28-.56.03.13.27-.06.44-.28.63-.21.19-.39.45-.17.79.03-.04,0-.07-.05-.15-.59.37-.14.98-.62,1.44-.07-.07-.12-.19-.3-.24-.41.17.73.64-.22.63,0,.13.46.14.44.07-.26.59-.21,1.26-.01,1.86.2.61.53,1.16.82,1.66-.21.97-1.42.66-.57,1l.89.36-2.59,3.09h0s1.71-3.45,1.71-3.45c0,0,.02.01.04.02-.13.15.35-.1.18,0,.4.22-.7.98-.14,1,.48-.35.37.02.69-.13-.02.83-.42,1.19.23,1.53l-.29.09c1.07.25,1,1.17,2.15,1.27,1.8,3.35,3.87,6.4,5.58,9.69.24.58.5,1.14.76,1.7l.2.42c.04.08.02.03.03.05l.02.02s.06.01.06.08c.02.01.02.09.15.21.15.39.29.53.35.54.04,0,.06-.02.07-.07,0-.03,0-.05.02-.1.06-.08.13-.17.2-.27.04.13,0,.19.13.25-.33-.57.52-.43.24-1,1.2-.68,2.14-1.54,3.31-2.35-.14.18.07.69.26.5v-.5s.13.12.13.12c.09-.18.07-.56-.2-.63,2.61-2.48,6.23-3.38,9.01-5.49.59-.17,1.18-.66,1.7-1.15l-.4,5.73h0s-2.88-1.92-2.88-1.92l3.27-3.81c.13-.15.24-.29.34-.43.92-.19,1.84-.66,2.5-1.39.66-.73,1.05-1.72.95-2.8,0,0,.4.14.82.43.42.29.86.74.88,1.3Z"/>
      <path class="cls-1" d="M169.41,133.02c.35-.04.53-.32.96-.04-.3,0-.67.11-.96.04Z"/>
      <path class="cls-1" d="M170.17,123.98c-.08.05.01-.2.03-.26.1.08.39,0,.32.2-.1-.09-.21.02-.35.06Z"/>
      <path class="cls-1" d="M168.36,121.98c.21-.23.83-.02,1.13.2-.39-.08-.74-.17-1.13-.2Z"/>
      <path class="cls-1" d="M166.55,119.6c-.14-.33-.04-.43.29-.29-.04.15-.17.18-.29.29Z"/>
      <path class="cls-1" d="M166.12,120.15c-.21-.08-.27-.26-.32-.46-.07.24.57.02.32.46Z"/>
      <path class="cls-1" d="M160.17,118.83c-.15.05-.41.34-.62.07.19.17.65-.5.62-.07Z"/>
      <path class="cls-1" d="M157.61,120.09c-.09.02-.15-.02-.2.1-.18-.05-.15-.32-.03-.4l.23.3Z"/>
      <polygon class="cls-1" points="134.86 122.92 134.84 122.62 135.08 122.78 134.86 122.92"/>
      <path class="cls-1" d="M137.43,139.72c.26.11-.18.25-.21.3-.11-.16.36-.09.21-.3Z"/>
      <polygon class="cls-1" points="142.44 146.8 142.4 146.75 142.95 146.51 142.44 146.8"/>
    </g>
  </g>
</svg>