<?xml version="1.0" encoding="UTF-8"?>
<svg id="Layer_2" data-name="Layer 2" xmlns="http://www.w3.org/2000/svg" viewBox="0 0 126.38 116.43">
  <defs>
    <style>
      .cls-1 {
        fill: #ff3600;
      }
    </style>
  </defs>
  <path class="cls-1" d="M76.91,54.88s-.05,0-.07.01c0,.06.03.04.07-.01Z"/>
  <path class="cls-1" d="M93.43,53.9s-.06-.04-.1-.05l-.24-.28.32.19c-.34-.26-.39-.38-.49-.54-.1-.16-.24-.35-.64-.6.16.03.29.13.43.22-.37-.33-.66-.67-1.06-.95l-.16-.18c.11,0,.23.04.4.15-.11-.29-.47-.36-.7-.51l-.18-.21c-.05-.1-.04-.31.01-.25-.22-.08-.47-.32-.67-.51l-.24-.28c.01-.11-.04-.25-.09-.48-1.43-1.66-2.85-3.4-4.48-4.88l-.2-.24c.06-.43.52.28.55-.06-.23.22-.32-.23-.85-.69l.02-.05c-.24-.18-.2-.44-.48-.62l-.06.06c-.38-.12-.17-.84-.6-.71v-.35c-.49-.01-.25-.48-.75-.59h.08c-.24-.53-1.05-.62-.96-.97-.27-.25-.58-.53-.84-.57l-.11-.13c.06-.05.15-.08.23-.09-.89-.89-1.77-1.92-2.68-2.78l-6.33-7.4c-.64-.93-1.35-1.78-2.08-2.43l-.87-1.02s.07-.09.01-.15c-.16-.11-.31-.24-.46-.38l-4.27-4.99s0-.08-.02-.12c-.02.02-.03.03-.05.04l-.27-.32-.77.9c-.19,0-.31.02-.31.02.05.05.1.11.16.16l-.17.2.06-.26c0,.27-.34.46-.44.25l-.15.38-.16-.16c-.37.55-.84.76-1.15,1.39l.34-.05c-.13.16-.2.36-.29.54l-.23.27c-.06.04-.11.09-.19.11.06-.19-.11-.17-.21-.24-.03.1-.03.23-.13.29l-.17-.39c.27.46-.57.95-.62,1.14l-.02-.09c-.51.35.23.06-.03.37-.27.22-.4-.17-.72-.03-.38.47-.83,1.44-1.5,1.76-.3.45-.58.99-.76,1.47-.31.36-.29-.28-.47.2-.07-.13-.22-.17-.35-.22.08.14-.6.67-.09.6-.51.48-1.05,1.06-1.47,1.67.14-.2,0-.41-.23-.33-.04.41-.32.96-.78,1.38.2.15.33,0,.47.21-.03.1-.04.28-.16.39-.26-.1-.54-.38-.91.04-.21-.38.65-.68.18-.75-.09-.4.55-1.17.85-1.21.06-.6-.28.27-.48-.02-.27.36-.27.63-.68,1.19.13.12.3-.04.2.29-.12.7-.69.42-.81.53.03-.1.1-.2.13-.29-.36.23-.27.49-.56.81-.43-.21.41-.56.29-.86l-.45.02c-.47.47.17.39-.36.83l-.07-.17-.2.39c.13.12.38.22.6-.08.18.47-.17.3-.48.8.07.31.14-.2.34-.05.21.11-.04.41-.2.66-.31.36-.37,0-.62.04.03-.1.24-.4.33-.27.18-.62-.57-.15-.44-.58-.41.25-.17.43-.26.67.11-.09.15.21.29.2.02,1.04-.71.05-1.1.7.44.17-.18,1.17.54,1.06-.06.19-.13.43-.28.54-.1-.35-.4.1-.38-.35l-.18.21v-.55c-.36.1-.84.35-1.05.38-.16.39.3.09.06.49-.01-.22-.3-.09-.43.06.35-.23.33.27.22.52-.26.31-.68.37-.7.28l.06-.46c-.03.37-.17.02-.3.31.07.17.14.48.24.7-.11.24-.4.24-.42.33l.13-.43c-.3.45-.42-.21-.69.28l.09.26c-.1.06-.21.03-.21-.11.07.17-.16.39-.2.53l-.14-.07c-.07.24,0,.68-.41.7.43.08.18-.21.57-.4.37,0-.06.46-.08.56-.29-.28-.41.42-.6.63-.21.03-.35.09-.48.11l.13.25c-.46-.25-.27.5-.59.63-.02-.22-.19-.34-.39-.22.48.02.05.68.3.78-.47.34-.28-.42-.6-.46.04.4-.55.35-.38.74.35-.23.14.21.22.38-.35.37-.07-.17-.41.01-.1.2-.06.6.24.42-.26.17-.2.67-.59.77-.27-.05.32-.55.07-.51-.48.52.22.65-.15,1.21.28-.13.43.35.33.68-.55.49.1-.33-.31-.32l-.15.25c-.58.04.04-1.1-.47-1.03l-.1.33c-.04-.13-.14-.35-.31-.32.17.25-.42.61-.41.7.14.21.11-.24.23-.08-.17.3.05.68-.41.97.05-.33-.33-.14-.36-.31-.24.13.17.25-.17.43l-.09-.13c-.91.99-1.98,2.29-2.27,3.56-.18.02-.29.04-.54.25-.28.25-.63.56-1.07.95.41-.35.27.08.14.28l-.66.34c-.64.5-.88,1.19-.98,1.56-.15.09-.3.14-.43.19-.69.52-.13.4-.15.52l-.59.39.3-.05c-.15.34-.69.9-1.31,1.14-.03.13-.04.23.34-.07-.16.13-.34.28-.53.47.52.09,1.75.07,2.67-.02-.36-.08-.16-.18.11-.38.65-.34.11.06.76-.13-.18.13.09.26-.5.35.35.22,1.21.24,2.09.22.88-.02,1.84-.09,2.62-.04.21-.05.15-.11.25-.2.67.35,1.48-.02,2.2.13-.16-.14.07-.54.46-.55.43-.28.17.39.57.56.19-.13.56-.17.72-.15v.05c.23-.15.61-.24.89-.11l-.04.02c.23.03.5.2.75.18.11-.26.7-.1.85-.34.03.03-.01.05.05.11l.02-.22.48.13c-.1.09-.13.19-.27.25.52.15.17-.21.45-.33.36-.16.34.06.52.15-.15.11-.27-.05-.36-.01-.21.18.22.07.23.2.08,0,.11-.26.38-.21.23.03.77-.05.7.2.2-.13.43-.1.58-.21-.19-.04-.53-.11-.57-.26.17-.03.5-.1.56,0l-.14.06c.14-.06.63.02.38-.21l.35.31c.13-.19.49-.17.78-.22.01.25-.22.53.32.58l.47-.25c.25-.02.31.03.27.18.84.14.86-.69,1.52-.47-.28.3-.05.32.25.4.01-.05.04-.15.16-.16-.08-.14-.17.2-.4,0-.07-.18.27-.12.41-.18.59.64,1.95.15,2.91.46-.06-.36.43-.1.62-.24-.06.37.54-.07.8.16l-.14-.36c.58.21.95-.55,1.31-.11.33.11-.11.27-.25.33.45.4,1.2-.32,1.56.12.04-.15-.1-.39.3-.52.32.16.94.35.88.42.26-.07.33-.19.61-.06-.03.1-.15.11-.24.15.45.1.81-.06,1.21-.2.24.28,1.04.14,1.55.29.29-.34.84.14.88-.31-.01.05.05.11.08.13.19-.13.35-.41.6-.44l-.08.29c-.06.37.7.07.77.26-.21-.25.28,0,.3-.22l.29-.09c.46-.08.05-.14.62-.19.32-.02.11.34,0,.3.27.15.55.07.83,0-.1,0-.14-.02-.04-.08,0,.04.04.06.08.07.1-.02.2-.04.31-.04,0,0,0,0,0,.01-.11.02-.22.03-.29.04.07.03.18.03.29.03.01.01.04.01.08,0,.1,0,.19.02.24.06l-.08.23c.2.01.75-.25.73-.35.78.19,2.07.03,2.59-.1-.1.05-.11.13-.01.05.27-.04.57-.24.6-.09.26-.09.24.16.64.18,0,.05.06-.23-.05-.2.68.35,1.55-.21,2.37,0-.07.02-.16.15-.22.22.62-.11,1.22-.21,1.78-.48-.06.1-.04.2-.19.26.43,0,.94-.06,1.14-.28-.29-.11-.02.13-.22.11-.31-.2.25-.41.53-.36v.05c.44,0,.46-.13.89-.13.26.13-.23.06-.12.21.1.37.99.23,1.08.27.1-.08.25-.14.23-.24.34-.1.16.21.39.2l.88-.63h.05c.03.11.27.29.02.4.44-.03.76-.21,1.05-.4h1.57c-.15.1.17.33-.04.44.38-.13,1.27.01,1.83.07-.37-.39.61-.23.71-.52h.4c.12.1.07.27.26.33.73-.15,1.49-.04,2.17-.08,0,0,.07.05.06.08.48-.11,1.71,0,1.68-.32h.04c.13.07.3.13.26.19.46.06.27-.04.08-.15ZM62.97,21.9s.05.01.07.02l-.31.36s-.03-.05-.06-.06c-.03.09-.04.15-.06.2l-.14.17c-.07-.22.26-.7.5-.69ZM60.66,24.7l-.13.16s0-.04-.01-.06c.07-.04.11-.07.15-.1ZM70.44,54.74c.07-.03.14-.04.19-.03-.06,0-.12.02-.19.03Z"/>
  <path class="cls-1" d="M69.68,54.85s.03,0,.05,0c0,0,0,0,0,0-.01,0-.03,0-.04,0Z"/>
  <path class="cls-1" d="M56.2,28.16s.04.01.05.02c0-.01-.03-.02-.05-.02Z"/>
  <path class="cls-1" d="M50.28,34.22c.06-.06.09-.11.11-.16-.03.02-.06.07-.11.16Z"/>
  <path class="cls-1" d="M56.16,27.69c-.07.11-.09.19-.09.26.07-.04.11-.11.09-.26Z"/>
  <path class="cls-1" d="M56.07,27.95c-.14.09-.39.06-.41.31-.13.02-.08-.26-.26-.1,0,.27.43.21.74-.01.03,0,.04,0,.05.01-.08-.04-.14-.1-.13-.21Z"/>
  <path class="cls-1" d="M56.53,27.83c-.02-.09-.09-.12-.01-.23-.13.02-.1.2-.17.3.04,0,.21-.03.18-.07Z"/>
  <path class="cls-1" d="M55.17,28.84c-.2.26-.47.75-.38.87l.38-.87Z"/>
  <path class="cls-1" d="M52.78,31.13c-.02-.09.01-.18-.06-.22-.18.21-.17.3.06.22Z"/>
  <path class="cls-1" d="M52.61,31.66s-.04.01-.07.02c.02.02.04,0,.07-.02Z"/>
  <path class="cls-1" d="M52.61,31.66c.1-.02.21-.05.32-.18-.11-.17-.22.1-.32.18Z"/>
  <path class="cls-1" d="M49.23,35.14c-.1-.21-.18.34-.35.37.2.02.28-.27.35-.37Z"/>
  <path class="cls-1" d="M47.7,37.28c.03-.1.07-.1.13-.16l-.19-.06c-.07.1-.08.28.06.22Z"/>
  <polygon class="cls-1" points="58.76 55.03 59.02 54.96 58.8 54.88 58.76 55.03"/>
  <path class="cls-1" d="M78.47,55.11s.04-.25-.22-.16c.31-.02-.01.17.22.16Z"/>
  <polygon class="cls-1" points="88.53 54.22 88.61 54.22 88.56 53.93 88.53 54.22"/>
  <path class="cls-1" d="M87.65,62.52c.09-.18,0-.29-.11-.37-.14.68.05-.2.11.37Z"/>
  <path class="cls-1" d="M46.54,96.05s0,0-.01,0c-.07.02-.14.03-.21.05.08,0,.13-.01.23-.05Z"/>
  <path class="cls-1" d="M71.66,96.03s.02-.03.04-.05c-.09,0-.18.01-.28.02l.25.03Z"/>
  <path class="cls-1" d="M88.29,90.44c-.2-.69-.18-.94-.51-1.41-.02-.26.17-.42.25-.52.06-.87.4-1.7.02-2.4l.2-.03c-.21-.69-.46-1.69-.23-2.47-.18-.22-.25-1-.49-.64-.04-.31.34-.2.13-.51l.3.29c.07-1.75-.08-3.23-.23-4.92.35-.49-.04-1.61.16-2.57-.19-.56.08-1.54-.35-1.96l.2-.03c.03-.75.03-1.77.13-2.75.06-.58-.24-.58-.35-1.03l.2-.03c-.12-.46-.4-.61-.6-.78v-.22c.04-.22-.03-.32.09-.63.11.37.33.69.61.93.09-.61-.43-1.22-.12-1.6.08-.53,0-.93-.28-.97.09.11.16-.34.28-.05,0-.38-.03-.62-.14-.85,0,.07-.03.17-.02.25-.18-.16-.21-.45-.41-.47v-.5c.18-.03.3.44.42.17l-.42-.83v-1.78h-7.51c1.87-.23,3.98.31,5.63-.37,1.43-.2,1.89-1.04,1.89-1.04-3.48.31-6.56-.05-9.98-.48-1.15.07-2.67.19-3.73.06-4.47.08-8.97-.58-13.53-.29.24.11-.01.27-.25.32l-.06-.09-.36.21c-.34.02-.2-.25.09-.28-1.82,0-3.45.09-5.21.03-.12.31-.92.02-.98.34-.08-.06,0-.08.04-.14-1.23.16-1.31.17-2.43-.23-1.48-.08-2.94-.12-4.4-.13-2.16,0-4.3,0-6.45,0,0,1.59,0,3.18.01,4.77,0,.89-.02,1.78-.03,2.68.06,4.76.33,9.44.42,14.33.5.75.27,1.77.7,2.66l-.15-.06c.22.76-.04.95-.23,1.9.18,0,.05.37.34.23.25.33-.41.6-.28,1.08-.1.02.17-.01.08.09.35,1.24-.16-.23-.44,1.33.04.9.12,1.82.18,2.72l.02.34.02.44.03,1.12c.02.74.03,1.46.02,2.19.61,0,1.2.02,1.79.06-.23.01-.19-.22.14-.22.05.24.37.2.71.14.34-.07.71-.17.96-.08,0,.1-.32.13-.48.17.46.05.65.07.87.07.22,0,.44,0,.66-.02.43-.02.85-.04,1.3.06.86-.2,1.85.21,2.43-.03-.14.19.38.14.57.23.62-.56,1.68.19,2.46-.18l-.03.1c2.33-.04,4.87.09,7.31-.17,1.37-.06,2.91.44,4.42.19.28-.07.06-.2.28-.25.38.01,0,.17.14.24.74-.23,1.72.04,2.65.04.11-.09.37-.11.28-.25,1.03.38,2.44-.13,3.5.15-.37-.49.62-.26.99-.38.21.02.23.15.16.24.79-.06,1.21-.07,2.15.06.44-.05.55-.32,1.08-.24.33.33,1.1.01,1.61.14-.13-.29.53-.52,1.04-.4l-.16.41c1.64-.26,4,.2,5.91-.31l.14.24c.31-.04.61-.07.92-.09l.46-.02.67-.02c.95-.01,1.89-.03,2.83-.04-.03-1.18-.1-2.4-.27-3.43.13-.51.21-1.34.21-1.84ZM41.96,64.27s0-.04-.02-.05c0,0,.01,0,.02,0v.05ZM41.96,68.68v.43s-.03-.02-.05-.02c-.02-.24,0-.35.05-.41ZM41.96,74.6l-.04-.06s.02,0,.04,0v.06ZM87.11,67.23v-.38c.03.13.03.26,0,.38ZM87.13,65.54s0-.01-.01-.02v-.23c.02.06.03.12.01.25ZM78.87,62.15h-1.42c.38-.05.74-.11,1.06-.21.34-.06.34.1.36.21ZM65.2,62.09c1.04-.33,2.12.35,2.88-.29l.27-.27c.24.1.23.29.41.38.2-.18.95-.05,1.07-.29.11.11-.05.14-.04.22.48.05,1.03-.34,1.48-.25l-.14.12c.91.18,1.92.33,2.93.43h-10.32c.53-.05,1.05-.12,1.53-.23.08.06-.02.11-.07.17ZM59.69,62s.05.09.05.15h-.18c.06-.04.11-.09.13-.15ZM53.2,62.12s.01.02.02.03h-.33c.1-.01.2-.02.31-.03ZM45.43,62.15h-.39c.13-.01.26-.03.33-.05.01.02.04.03.06.05ZM43.96,62.14s.01,0,.02,0h-.3c.07-.03.15-.04.28,0ZM43.18,62.15h-.23c.07-.03.13-.06.19-.1.04.04.04.07.05.1ZM41.9,63.45l.07.08v.4c-.1-.06-.17-.15-.07-.49ZM41.56,71.7c.19-.12-.01.21.14.27l.22-.38c0,.09.02.13.04.16v1.66c-.11-.18-.22-.35-.3-.52.06-.22-.09-.95-.1-1.2Z"/>
  <path class="cls-1" d="M87.51,65.22s.03.06.04.09c0-.04,0-.08-.04-.09Z"/>
  <path class="cls-1" d="M87.69,63.2c-.15-.04-.32.16-.47.2.22.32.31-.08.47-.2Z"/>
</svg>