<?xml version="1.0" encoding="UTF-8"?>
<svg id="Layer_4" data-name="Layer 4" xmlns="http://www.w3.org/2000/svg" viewBox="0 0 300 300">
  <defs>
    <style>
      .cls-1 {
        fill: #faaf3a;
      }

      .cls-2 {
        fill: #202020;
      }

      .cls-3 {
        fill: #0d783d;
      }
    </style>
  </defs>
  <path class="cls-3" d="M254.71,160.95c-4.38-15-16.69-25.33-31.05-30.89-10.24-3.96-28.64-2-36.12,7.54-.29-.09-.57-.19-.86-.27,4.25-7.05,5.26-16.07,3.06-24.06,4.17-3.68,8-7.73,9.66-13.19.76-2.49.67-5.54.98-8,3.61-.07,7.03-.31,9.85-1.26,6.3-2.1,8.74-9.55,3.2-14.18-5.49-4.59-17.11-3.57-22.05,1.32-.4.39-.75.81-1.08,1.24-3.79.01-7.55.18-11.12,1.25-5.94,1.77-13.48,6.41-16.77,11.83-.34.56-.63,1.15-.87,1.75-15.17,1.15-23.24,12.78-24.23,25.11-.99-.52-2.05-.96-3.15-1.36-6.51-8.9-14.76-16.83-25.82-17.66-.97-.07-1.81.05-2.56.3-4.6-1.42-9.63-1.95-15.16-1.28-5.37.65-10.92,2.07-16.38,3.85-2.63-.22-5.3-.1-8.24.35-3.18.49-5.66,2.69-7.19,5.48-.58.24-1.17.49-1.74.73-9.31,3.94-12.68,10.68-11.35,20.6,1.12,8.39,14.49,8.5,13.35,0-.37-2.79.31-4.81,1.62-6.36,3.01,2.83,7.4,3.83,11.82,3.15,1.44-.22,8.19,3.38,10.9,3.96,2.47.52,4.94.7,7.46.73,1.38.02,2.07.12,2.4.15.36,3.48,2.08,6.03,4.47,7.63-.76,5.43-.13,11.09,1.9,16.12.22,1.61.43,3.22.65,4.84.28.98.62,1.92.99,2.85-9.46,5.26-7.5,23.02,5.95,23.02,5.57,0,9.17-3.07,10.8-7.03,2.9,1.01,5.92,1.57,9.09,1.58h1.14c.11,0,.21,0,.32,0,.14.1.27.21.41.31,1.8,1.65,3.83,2.9,6.05,3.83.8.6,1.62,1.17,2.5,1.69.76.57,1.51,1.14,2.27,1.71,3.19,2.03,6.64,3.13,10.34,3.3,3.7.83,7.39.66,11.09-.5,1.54-.37,2.98-.91,4.35-1.56.86.33,1.71.64,2.5.94.73.28,1.48.51,2.25.71.53.57,1.19,1.08,2.13,1.53,1.67.8,3.58,1.01,5.4.69.99.48,2.03.91,3.12,1.27,1.55,2.63,3.99,3.93,6.68,4.14.26.6.51,1.2.77,1.81,2.9,6.85,11.91,2.61,12.06-3.75.15-.86.15-1.75,0-2.61,11.26-4.3,16.77-15.58,16.5-26.74,1,.74,2.29,1.19,3.87,1.19,4.27,0,6.41-3.29,6.44-6.61,6.42.14,12.93,1.21,16.27,5.31,4.33,5.31,12.93-.43,11.16-6.49Z"/>
  <g>
    <g>
      <path class="cls-1" d="M84.41,202.04s26.23-4.79,58.19,2.78c41.93,9.93,54.61,24.7,54.61,24.7,0,0,5.25-17.66,2.56-22.35-6.3-11.03-27.97-16.45-39.93-20.82-14.42-5.27-56.5-13.16-68.68-3.85-3.91,2.99-6.75,19.55-6.75,19.55Z"/>
      <g>
        <path class="cls-2" d="M84.64,199.28c-1.01.5.79,1.16-.62.68.05-.6.21-1.08.62-.68Z"/>
        <path class="cls-2" d="M86.88,199.09c-1.52-1.98-1.08-3.87-.4-5.7.68-1.85,1.58-3.58,1.08-5.7,0-.46,1.9.84,1.77-.21-.33-.98-.38-2.01-.05-3.03.13-.53.42-.98.72-1.45.15-.23.38-.4.58-.6.2-.2.44-.35.7-.48,2.36-1.29,5.23-1.08,7.55-.39l-.09.63c.78.22,1.33-1.83,2.2-1.73.07.38-.16.59.11,1.08,0-1.2,1.38-.75,1.61-1.67.39.41.47,1.33.94,1.8l.32-1.38c.5-1.65,1.35-1.68,2.25-1.48.91.18,1.86.59,2.76-.26-.08.31-.26.56-.1.86,2.93-2.02,6.74-1.57,10.14-2.05-.17.46-.34,1.32-.18,1.86.26-1.4,1.32-1.68,2.25-1.88.28,1.47,1.67-1.19,2.66-.29l-.12.31c.94-1.43,1.07.98,1.9-.75l.37,1.19c.58-1.99,1.01,1.17,1.77.23l.03-.42c.67-.42.86.64,1.46.37l.02.24c1.39-.37,2,.88,2.19-.7.28,1.32-1.36.39-.89,2.33,4.53-1.02,8.95.07,13.25.95.36.73.63.98.61,1.59.49-.23,1.66.07,2.23-.64-.15,0,.1.85.3.98.64.76,1.24-1.51,1.94-.61-.44.33-.67.81-.7,1.41,1.01-1.04,1.94-.61,2.89-.78-.2.23-.45.33-.54.82,1.29-1.13,1.62.73,2.67.09l-.55.81c1.01,1.43.89-1.75,1.86-.8-.35.2-.35.58-.5.92,1.51-1.31,3.08-.28,4.31-.46-.1.1-.16.34-.16.34,1.22.17,2.26,1.11,3.71.84.31.54-.89,2.06.41,2.17.56-1.76,2.27-.03,2.24-2.25.91.63,2.31,1.83,3.18,1.46-.68.51-.22,2.3-1.12,2.17l.29,1.27c-.34.69-.58-.46-.68.51.45.07,1.92-.2,2.2.21,1.15-.81,2.55-2.56,3.9-2.34-.83.47-.32,2.04-.83,2.2l2.94-2.72c.46.07-.39,1.41.38,1.17.13-.47.5-.66.82-.96.09.26,1.94.2,1.49,1.98-.06.74-.82.1-.58.88.78.28,1.04-.29,1.83-.02l-.07.23c.42.45,1.8-.14,1.6-1.29-.34-.19-.26,1.07-.6.37.75-.85,1.78-.76,2.58-.45-.38.16-.53.62-.83,1.06,1.59-.89,2.9-.86,4.34-.85.37-.78-1.08,1.24-1.07.74.52.89,1.47.84,2.37.86.9.05,1.76.15,1.99,1.24-.27.04.44-1.15.35-.93.69.47.08,1.54.76,1.39-.3.68.69.12,1.29.19.51-.33-.05.38-.51.22.48-.08,1.55-.03,2.63.37,1.07.43,2.17,1.05,2.62,2.06.24-.43,1.99-.74,2.33-.42l-.83.8c-.1.77,1.24.8.67,1.63.8-.21-.08-.62-.97-.84-.88-.24-1.73-.41-.93-.48-.33.94,2.5-.39,1.33.67.71.46,2.21.16,2.15,1.52-.07-.31-1.59.68-1.02,1.09,1.05.69.65-.2,1.64.29l.79.18c.85-.71.7,1,1.29-.19-.29.36.15.65.47.98.33.32.49.79-.28,1.26l-1.26.72c.4.39,1.76-.13,2.57-.07-.07.14-.22.43-.44.53.96-.56,1.13-.22,1.29.22.05.13.06.17.15.39.09.2.18.4.29.59.25.39.51.64,1.01.79,0,1.16.14,2.14.15,2.97,0,.86-.14,1.63-.83,1.96.69,1.07,1.45,2.3.85,3.53-.18-.3-.21-.67-.68-.82-.72.66-.13.94.13,1.77-.3-.23-1.44,1.18-2.3,1.58.48,1.25,1.64,1.5,2.31,1.94-1.1-.01-.9.86-.71,1.89.19,1,.35,2.16-.64,2.07-.18-.61-.63-2.21-1.29-1.76-1.05-.31-.76.35-.41,1.27.36.91.79,2.09.18,2.36.52.41,1.05.81,1.58,1.19-.47-.11-.48.46-.46,1.02.02.56.06,1.12-.28.86-.12-.1-.27-.26-.45-.51.1.44-.33.51-.55.67-.22.16-.31.41.31,1.15-1.3-.12-1.94.76-2.63,1.33-.67.59-1.31.92-1.92.48-.06.32-.43.6-.2.92.42.21.17-.7.39-.47-.11.17-.04.43,0,.56-.1.03-.19.06-.26.08-.04.03-.07,0-.11-.05-.03-.04-.07-.08-.09-.12-.12-.16-.18-.36-.15-.57-.61-.69-.57-.16-.71.25-.08.22-.27.42-.77.13-.1-.47-.25-.69-.57-.74l-.47.76c-.95-.37-.83-1.47-1.11-2.48-.39-.02-1.03-.3-1.13.51-.3-.54-.59-1.11-.87-1.7.62,1.27-.32.6-.54.85l.21-.24c-.15-.57-.71-.45-1.08-.34.07.44.29.77.56,1.03.25.26.5.46.7.6-.11.25-.28.33-.46.43-.19.1-.45.22-.65.57.06-1.33-1.13-1.08-1.65-1.29-.04-.02-.07-.04-.09-.05-.52-.51-.69.85-.87.65.02-.38-.25-.63-.44-.85-.2-.21-.31-.39-.01-.73.23-.08.44,1.11.84.74-.39-.88-.2-2.16-1.12-1.79-.73.25-.19,2.8-1.37,1.07.41-.09.56-.58.88-.9l-.99-1.42-.32,1.13c-.09-.4.04-.42.01-.63-.65.97-1.86-.81-2.62.25-.68-.29-1.05-1.52-1.54-1.94.04-.02.07-.03.14-.03-.16-.84-.95-.79-1.69-.34l.14-.2c-.2-.21-.86-.39-1.48.04-.24-1.06,1.72-3.81.37-2.94-.68-.3-1.94,1.29-2,2.05-.41-.62-1.14-.71-1.81-.88-.68-.16-1.29-.41-1.48-1.44-.36.33-.37.63-.83.71-1.55-1.23-4.19-.4-4.77-3,.69-.22.45-1.01.68-1.6-.8.74-.13-1.17-.92.34-.33.95-.55,1.38-.21,1.96-1.25.04-2.87-.56-3.14-1.65.14.55-.21.74-.55.94.64-1.46-.08-1.99-.87-1.68l-.42.88-.05-1.08c-.34.21-.95,1.82-1.23.72.1-.36.19-.74.17-1.04-.89.5-2.22,1.51-2.63.5l-.11-1.53c-.34.05-1.11.7-.72,1.26-.9-1.2-1.62-1.55-1.62-2.84-2.93,2.17-5.91,1.5-8.21.58l.26-.68c-.46-.84-.66,1.13-.98.52.39-.62-.1-1.58.63-2.27-.73-.98-1.53.91-2.21,1.08-.33.9.64-.47.21.67-.19.31-1.09-1.05-1.59.32-.09-.61.35-1.59.63-2.13l-.74.53c-.28-1.82,2.34-2.52,2.13-4.72l-.59.08c-.14-1.6,1.85-1.29.63-2.14-.77.54-1.77,2.45-1.42,3.2-1.3.08-1.4,3.2-2.64,2.76-.15-.92,1.07.06,1.11-1.16-.32-1.29-1.37.32-1.8-.21.47.68-.38,1.97-.82,2.13-.49-.83.74-1.23-.14-1.6-.35.78-1.32,1.21-.73,1.93-.75,1.77-.82-.71-1.63.61,0-1.36,1.61-2.8.76-3.67-.13,1.29-1.61,1.44-1.49,3.41-.31-.45-.14-1.44.32-2.15-.4-.89-1.83,2-1.5-.53l-.46,1.24c-.09-.46-.27-.82-.42-1.58-.49-.15-1.93,1.45-1.52-.5-.2.17-1.32-.11-1.13,1.31.55.94.99-.84,1.04,1.05-.21-1.57-1.04.02-1.53.44l.07-.76c-.29.25-.82,0-1.11.78.26-.4.25-.93.09-1.15l-.45,1.1c-1.07.4.11-2.06-.89-1.89l.87-.76c-.19.16-.34-.97-.86-.69-.35,1.02-.88,2.22-1.16,3.01-.61.39-.06-1.22-.75-.21l.89-1.17c.16-.33-.2-1.8-.94-1.88-.52.3-1.45,1.72-.81,2.4-.36-.03-.78-.75-.38-1.47-.87.25-.05,1.15-.85,1.7-.19-.74-.95-1.87-1.38-2.97l.98-1.66-.5-.09c.83-1.32-.19-1.13.36-2.57-.32-.28-.8.16-1.19.51.72,2.5-1.52,3.15-1.47,5.36-1.41.45-.27-5.4-2.06-2.13.17.59-.66,2.19.26,1.65-.82-.33-.79,2.13-1.68,1.12.82-.82-.59-2.3.6-3.49-.14.72.54.61.73.42-.27-.87.29-2.19-.59-2.28-.56.15-1.3.12-1.29,1.28-.09,1.25.83-.06.37,1.17-1.09.35-1.12-1.56-1.73.62.68-.12.74,1.18.65,2.04l-.81.47.21-.82c-1.18-.69-.48,1.48-1.64,1.18l-.44-1.69c.38-1.4,1.69.76,1.65-1.57-.78-.15-1.12,1-1.81.35.18-.19.41-.23.58-.42-.27-.1-.36-3.18-1.6-1.47-.62.67-.2.82-.26,1.68-1.27.21-1.69,1.07-2.5,1.17.24-1.68-1.42-.22-.46-1.91.38,1.01,2.19.99,2.73-.6-.35-2.03.98.33,1.38-1.66-1.02-.12-.86-2.08-.96-3.38-.29-.1-.6.43-.78.62-.18,1.21.19,1.21.15,2.46-1.13-.38-2.28.25-2.94,1.41-.36-.62-.2-1.83.26-1.92-1.38.28-2.84.12-4.14-.27.82,2-1.45.45-.89,2.1.69.46,1.26,1.88.87,2.76-.42-.13.02-.87-.15-1.3-.55,1.08-.84-1.75-1.38-.05,1.23-.62.25-2.42.48-3.97-.91.87.04-1.11-.86-1.11-.91.87-2.01,1.57-3,1.92-1.29-1.46-3.19.08-4.29.17-.62-.75-.31-2.53-.97-2.8-.75.08.66,1.86-.5,1.12l.09-.36c-.31.43-2.14-1.08-2.28,1.48l.21-1.93c-.22-.15-.38.3-.54.51-.05-.62-.34-1.16-.03-1.59-.8-1.25-1.45.33-2.19.44l.58,1.08c-1.2.98-2.16-.03-3.35.49l-.09-1.1-.66.74c.05-1.08-.72-1.68-.99-.75.53-.97,1.07-1.94,1.63-2.92.62.59-.45,1.39.02,2.43.39.9,1.51.5,1.59-.58-.46-.08-.46.17-.76.6-.31-1.51.37-1.52.61-2.57-.23.09-.62-.34-.62.14.39-.79.85-.96,1.62-1.07-.47.64.37.92.21,1.38-.06-1.35.65-1.82,1.64-1.53.8,1.49,1.73-1.13,2.89-.77-.38,1.39-.88,2.52-1.51,3.11.73.65.76-.08,1.5.57.27-1.04.42-2.61,1.31-3.29l.1,1.01c.8-.55.74-2.04,1.81-1.8,1.83.41,3.69.4,5.07.51l.06,1.01c.76-2.18,2.55-.79,3.6-1.73,1.74.98,3.87-.87,4.7.91,1.57-.33,3.05-.64,4.53-.75,1.49-.12,2.99-.15,4.58.23l-.68,1.4c.67-1.01.29.88.87.72-.53-1.24.93-1.43,1.42-2.28.66.64,1.47.7,2.31.49.83-.19,1.68-.64,2.39-1.06l-.09,1.01c1.54-1.68,2.87.14,4.4.72.12.44.25,1.43.74,1.4,1.13-1.46,1.56-1.26,3.02-2.04.47.08,1.06.29,1.63.58.57.31,1.13.69,1.53,1.1,1.95-.74,3.8-.59,5.56-.24,1.76.35,3.51.82,5.47.61l-.05,1.21c2.05-.82,3.98-.25,5.8.36.91.32,1.79.66,2.66.91.86.26,1.69.44,2.52.37l-.9,1.84c.71.89,2.23.17,2.45-1.26.71.89,2.61-.18,2.64,1.59.8.69,1.45-.46,2.31-.43,1.6,1.42,2.34,1.48,4.23,1.82l-.38-.3c-.36.35-.68,1.13-.3,1.43.85-.26,2.16,1.48,2.43-1.02.67,1.03,1.85,1.22,3.02,1.46,1.16.27,2.3.62,2.8,1.89.13-.67.63-.58,1.01-.89,1.65.7,2.72,2.8,4.51,2.44.1.42-.92.79-.31,1.18.5-.03.41-.76,1.06-.84,4.02.79,2.5,2.85,3.56,3.12l.19-.1c.64-.37,1-.06,1.51.44l.17.18.08.09c.03.05.03-.05.04-.07.04-.15.07-.31.08-.5l.36.75c-.65-1.57-.27-.97.08-.72.33.29.61.26-.55-1.43.22.25.27.22.4.31.11.08.27.22.64.7-.54-.83-.24-.66.05-.69.28,0,.55-.21-.2-.92-.05,0,.04.09.23.27.54.11.49-.23.41-.51-.08-.29-.18-.51.32-.69.2.1.35.24.83.39.47-.03-.02-.32-.36-.5-.33-.18-.49-.27.68-.27-.02-.17-1.18-.16-1.11-.08.12-.15.18-.32.22-.49.04-.14.01-.42-.01-.46h0s0-.01,0-.01l.29-.08.32-.1.27-.06c.18-.05.36-.1.53-.15.34-.1.74-.29,1.01-.39.27-.1.54-.22.8-.37l.19-.12h.01c.71-.41-6.18,3.52-3.26,1.85h0s0,0,0,0h-.01s-.02-.03-.02-.03l-.08-.07-.17-.14-.33-.28c-.85-.75-2.2-1.31-3.39-2.01-.36-1.18.14-2,.54-2.45.38-.45.56-.57-.69-.41.14-.46-.6.67-.34.26-.9.13.5-2.8-.61-2.06-.59,1.33-.72.49-1.2,1.23-.35-.79-.48-1.5-.7-1.97-.22-.47-.54-.71-1.33-.52l.44-.62c-1.12.58-1.96.48-2.76.4-.79-.08-1.6-.09-2.67.79-3.72-1.43-7.69-2.42-11.74-3.36-4.04-.94-8.26-1.85-12.58-3.26-1.58-.69-3.4-1.27-5.26-1.76-1.87-.49-3.78-.93-5.72-1.35-3.87-.84-7.79-1.66-11.71-2.97-1.58-2.26-1.75-2.24-3.95-1.74.13-.31.27-.36.17-.68-.33,1.59-1.5-.06-1.9,1.47-2.95-.69-5.75-.55-8.78-.75.49-.14.84-1.44.25-1.38l-.67,1-.07-.46c-.41.22-.88.99-.51,1.54-3.81.47-7.44-.08-10.91-.44-1.75-.2-3.43-.32-5-.28-1.58.03-3.01.32-3.94.81-.36-.24-.53-.15-.64.06-.08.22-.03.52.07.73-.31,0-.47-.25-.99.27-.43.45-.88.86-1.28,1.4-.83,1.01-1.56,2.2-2.16,3.42-.6,1.24-1.07,2.55-1.36,3.94-.29,1.36-.42,2.88-.28,4.28,0,0-.25-.08-.64-.24-.39-.17-.9-.44-1.44-.79-1.06-.7-2.18-1.77-2.39-3.11Z"/>
        <path class="cls-2" d="M85.89,198.93c.34.78,1.12,1.12.69,2.28-.17-.75-.66-1.55-.69-2.28Z"/>
        <path class="cls-2" d="M105.37,206.08c.02-.24.26.33.32.46-.23.06-.44.75-.62.33.23-.07.19-.45.3-.79Z"/>
        <path class="cls-2" d="M110.08,206.63c-.09.72-1.11,1.28-1.7,1.36l1.7-1.36Z"/>
        <path class="cls-2" d="M114.3,209.81c.34.63.21.96-.28.92-.02-.39.16-.57.28-.92Z"/>
        <path class="cls-2" d="M114.7,208.18c.36.01.52.45.66.88.02-.62-.86.33-.66-.88Z"/>
        <path class="cls-2" d="M123.87,211.11c.23-.04.79-.57.89.26-.16-.6-1.19.78-.89-.26Z"/>
        <path class="cls-2" d="M128.32,210.61c.13.07.17.21.36.03.21.36-.14.85-.37.89v-.92Z"/>
        <polygon class="cls-2" points="204.15 224.27 204.28 225.25 203.71 224.56 204.15 224.27"/>
        <path class="cls-2" d="M182.76,188.74c-.65.23-.08-.77-.12-.9.46.11-.5.76.12.9Z"/>
        <polygon class="cls-2" points="162.65 185.43 162.79 185.46 162.26 186.85 162.65 185.43"/>
      </g>
    </g>
    <g>
      <path class="cls-2" d="M197.25,206.07c.15.9,1.34-.18.44.66-.55-.24-.95-.49-.44-.66Z"/>
      <path class="cls-2" d="M192.02,131.47c.18-2.28,1.58-2.98,3.05-3.46,1.48-.49,3.04-.74,3.96-2.37.26-.27.64,1.98,1.17,1.25,1.59-3.74,6.66-3.3,10.15-1.47l-.1.61c.65.35,1.14-1.71,1.84-1.5.05.39-.15.57.06,1.08.03-1.18,1.11-.65,1.32-1.55.3.43.34,1.36.7,1.86l.29-1.35c.43-1.6,1.12-1.61,1.82-1.35.71.26,1.43.66,2.19-.11-.08.31-.23.54-.13.85,2.42-1.88,5.45-1.15,8.23-1.21-.21.44-.5,1.26-.47,1.81.44-1.34,1.35-1.52,2.13-1.56-.09,1.49,1.6-.94,2.2.12l-.17.28c1.1-1.22.6,1.14,1.72-.39l-.02,1.2c1.02-1.82.47,1.33,1.33.57l.15-.39c.66-.26.49.78,1.05.65l-.06.23c1.22-.03,1.26,1.3,1.96-.14-.24,1.3-1.2.04-1.49,1.97,3.84.06,6.84,2.44,9.55,4.66-.09.73-.02,1.05-.35,1.57.46-.01,1.15.65,1.94.26-.11-.06-.38.75-.3.93.05.86,1.73-.82,1.74.2-.49.1-.92.41-1.26.89,1.27-.47,1.69.26,2.48.49-.27.1-.51.09-.85.45,1.56-.4.76,1.19,1.84,1.13l-.86.41c-.17,1.55,1.66-1,1.76.16-.37,0-.6.3-.91.51.92-.2,1.51.08,2,.44.46.39.79.87,1.28,1.07-.14.03-.33.18-.33.18.37.34.59.79.87,1.21.26.44.56.86,1.15,1.14-.15.54-1.99,1.04-1.19,1.72,1.62-.96,1.48,1.16,3.04-.36.13.97.17,2.5.94,2.82-.79-.09-1.91,1.28-2.33.69l-.83.93c-.72.23.03-.59-.78-.06.19.28,1.24.92,1.08,1.32,1.32.16,3.45.08,4.04,1.08-.85-.28-1.85.88-2.26.65,1.28.11,2.57.27,3.83.49.18.35-1.39.45-.79.86.47-.15.82.01,1.24.08-.16.18.83,1.48-.94,1.99-.67.3-.49-.52-1.04.01.14.67.75.54.91,1.28l-.24.05c-.09.26.17.58.55.79.38.21.9.31,1.37-.02.01-.39-1.06.23-.62-.37,1.12.26,1.5,1.3,1.61,2.19-.33-.32-.81-.3-1.34-.43.77.57,1.32,1.22,1.73,1.92.38.69.66,1.43.97,2.22.87.24-1.58-.94-1.13-1-.59.7-.09,1.65.2,2.63.32.97.55,1.98-.32,2.22-.14-.31,1.19.52.95.41-.17.79-1.38,0-.98.79-.7-.4.16.77.3,1.47.46.64-.34-.11-.37-.61.26.57.57,1.82.57,3.05.01.62-.04,1.24-.16,1.75-.13.5-.37.88-.67,1.05.42.39,1.22,2.71,1.07,3.09l-.87-1.26c-.61-.31-.26,1.37-1.02.44.42,1.1.41.03.33-1.01-.11-1.06-.27-2.09.06-1.06-.42-.31-.12.48.11,1.17.23.69.39,1.23-.18.35-.15.75.6,2.85-.38,2.42.2-.02-1.01-2.27-1.1-1.62-.12,1.2.32.87.35,2.1l.17,1.04c.75,1.3-.39.75.57,1.8-.64-.93-.17,2.17-1.31-.15l-.88-1.87c-.06.53.75,2.52,1.01,3.65-.1-.11-.32-.36-.46-.67,1.32,2.84-.48.77.31,3.44-.78-.08-1.03,2.14-1.9.68.06,1.54.11,3.21-.45,3.28-.02-.43.05-.72-.15-1.41-.5-.45-.29.46-.34,1.37-.1-.55-.98-.92-1.49-1.57-.04,1.54.5,3.06.74,4.17-.55-1.28-.63-.35-.75.67-.11,1.01-.26,2.11-.75.99.03-.68.13-2.49-.3-2.8-.48-1.35-.48-.49-.49.66,0,1.14-.02,2.56-.4,2.2l.61,2.57c-.51-1.33-.53,3.05-.92.05-.02,1.35-.76.15-.32,2.89-.08-.05-.16-.07-.23-.07-.03-.11-.06-.22-.09-.34-.06-.19-.11-.32-.16-.41-.1-.18-.18-.17-.28-.26-.2-.16-.46-.58-.95-4.14,0,.56-.23-.29,0,1.77.33,2.24,0-1.42.19.08-.05.07.05,1.11.1,1.63-.23-.93-.37-1.38-.57-4.51-.27-1.46-.21.13-.13,1.97.04.92.07,1.89.06,2.54-.02.66-.1,1.01-.26.58-.13-1.88-.22-2.6-.35-2.35,0,1.07-.05,2.25-.08,3.44-.45-.64-.51-4.68-.74-8.19-.14.47-.43.2-.4,3.03l-.47-4.97c.16,1.85.14,2.4.07,2.66-.08.26-.22.19-.26.69l.09-1c-.04-.64-.09-.91-.16-.96-.11-.36-.25-.24-.35-.19.06,1.9.27,3.45.47,4.67.06.22.12.42.17.59-.03.59-.07.96-.12,1.26-.12.22-.27.05-.4,1.03,0-3.72-.55-4.13-.81-5.2-.27-1.52-.35,2.33-.45,1.95.02-1.85-.49-1.64-.2-3.51.11-.32.2,2.37.38,1.21-.18-1.9-.08-4.94-.51-3.64-.34.9-.12,6.83-.65,3.11.2-.37.27-1.6.43-2.49l-.44-2.99-.17,2.79c-.03-.91.03-1.02.02-1.49-.16,1.29-.39.96-.61.68-.23-.28-.46-.52-.67.81-.33-.57-.44-3.37-.67-4.28l.08-.07c-.14-2.19-.68-2.27-1.2-1.69l.1-.4c-.14-.64-.6-1.43-1.08-1.02-.07-1.34.31-3.03.58-4.3.26-1.28.42-2.08-.08-1.52-.21-.4-.59-.04-.95.55-.36.59-.68,1.43-.74,2.14-.06-.38-.15-.71-.24-1-.1-.26-.22-.49-.34-.7-.25-.42-.53-.77-.81-1.17-.27-.41-.54-.8-.73-1.29-.19-.5-.31-1.11-.27-1.87-.39.19-.47.6-.91.35-.32-.64-.73-1.17-1.17-1.68-.42-.51-.95-.98-1.41-1.39-.26-.24-.34-.3-.43-.42-.09-.12-.16-.23-.2-.38-.09-.29-.06-.68.13-1.25.57-.1.77-.8,1.18-1.27-.88.52.4-1.02-.8.19-.63.78-.97,1.13-1,1.63-.43-.01-.82-.16-1.07-.44-.25-.23-.36-.6-.25-1.09-.12.49-.4.66-.67.84.93-1.32.63-1.75.06-1.44l-.52.83.3-.99c-.27.22-1.04,1.77-.88.81.15-.35.29-.7.36-.98-.65.54-1.41,1.75-1.41.86.07-.49.12-.95.15-1.43-.19.12-.57.91-.47,1.35-.25-.96-.59-1.08-.66-2.32-.44.96-.86,1.74-1.07,2.15-.09.23-.16.42-.24.54-.08.11-.15.19-.21.28-.07.08-.14.11-.23.11-.09.04-.19.08-.31.09l-.3-.67c-.51-.52.48,1.18.12.78-.25-.65-.91-1.23-1.12-2.07-.79-.42.14,1.41.13,1.8.5.81-.17-.61.46.42.08.15-.13.06-.27.09-.14.05-.22.23.2.82-.43-.38-1.02-1.27-1.32-1.79l.2.74c-.67-.55-.99-1.25-1.29-2.04-.31-.78-.58-1.66-1.4-2.33l-.16.42c-1.25-.94-.17-2.05-1.32-1.8.05.87,1.14,2.68,1.82,2.96-.37.8,1.96,2.83,1.34,3.25-.73-.47.3-.57-.61-1.36-1.07-.58-.11,1.01-.63.94.65.13,1.46,1.39,1.5,1.7-.76-.17-.81-1.15-1.3-.81.54.65.67,1.44,1.39,1.51,1.28,1.41-.76.07.15,1.24-1.15-.71-1.94-2.43-2.89-2.38,1.04.75.84,1.77,2.53,2.68-.44-.04-1.25-.64-1.75-1.29-.86-.17,1.31,2.12-.8.69l.98.88c-.41-.15-.77-.2-1.46-.45-.23.29.83,1.91-.8.78.1.2-.41.86.91,1.33.96.04-.53-1.04,1.16-.22-1.45-.58-.22.69.06,1.19l-.67-.37c.16.3-.18.54.47,1.06-.31-.34-.78-.56-1.01-.54l.9.75c.15.88-1.84-.92-1.9-.15l-.51-.92c.11.2-.95-.14-.81.34.77.61,1.88,1.5,2.51,1.99.22.56-1.13-.44-.37.42l-.87-1.06c-.26-.24-1.71-.57-1.94-.07.16.49,1.27,1.68,2.03,1.48-.11.24-.86.27-1.44-.28.04.71,1.05.46,1.39,1.23-.73-.15-1.93,0-3.04-.08l-1.34-1.31-.18.34c-1.05-1.09-1.09-.25-2.31-1.18-.33.14-.02.67.22,1.07,2.5.36,2.58,2.21,4.67,2.94.12,1.17-5.12-1.65-2.45.78.6.07,1.91,1.22,1.6.37-.49.49,1.83,1.29.7,1.61-.61-.88-2.28-.33-3.15-1.61.64.34.7-.2.56-.4-.88-.09-1.99-.95-2.28-.32.03.47-.16,1.02.92,1.39,1.16.48.12-.64,1.19.11.08.92-1.74.31.19,1.48.04-.54,1.29-.15,2.08.19l.25.74-.73-.43c-.92.64,1.29.84.74,1.59l-1.69-.22c-1.23-.74,1.08-1.01-1.12-1.74-.32.53.7,1.16-.07,1.47-.14-.19-.12-.37-.27-.57-.15.17-3.09-.75-1.74.73.49.68.73.41,1.53.73-.1,1.02.62,1.6.53,2.23-1.55-.71-.53,1-1.92-.26,1.04.03,1.45-1.32.07-2.23-2-.38.54-.63-1.26-1.57-.34.73-2.16-.01-3.42-.35-.17.18.26.59.41.79,1.1.52,1.19.24,2.37.67-.63.73-.3,1.79.65,2.65-.67.08-1.78-.42-1.76-.8-.03,1.14-.57,2.17-1.24,3.03,2.09,0,.07,1.23,1.78,1.32.6-.38,2.09-.36,2.83.2-.23.28-.82-.29-1.27-.29.89.75-1.86.09-.37,1.03-.31-1.13-2.24-.94-3.66-1.6.61.96-1.04-.38-1.26.3.6.95.98,1.99,1.07,2.85-1.71.52-.76,2.41-.95,3.28-.88.23-2.49-.56-2.92-.14-.13.59,1.95.09.93.72l-.31-.18c.32.36-1.58,1.26.78,2.17l-1.77-.76c-.21.12.17.38.33.56-.6-.15-1.19-.11-1.52-.48-1.41.2-.1,1.18-.2,1.77l1.19-.09c.6,1.21-.65,1.6-.5,2.65l-1.07-.29.5.73c-1-.39-1.8-.02-1,.49l-2.26-2.14c.74-.26,1.18.78,2.3.77.97,0,.91-.96-.08-1.36-.21.31.02.39.34.75-1.52-.26-1.33-.76-2.25-1.28.01.2-.51.34-.04.5-.64-.54-.66-.93-.54-1.54.48.55.97.02,1.36.28-1.3-.38-1.55-1.06-.99-1.7,1.64-.12-.59-1.64.06-2.39,1.22.71,2.16,1.44,2.55,2.1.81-.34.12-.6.94-.94-.91-.53-2.36-1.13-2.76-2l.98.24c-.32-.77-1.75-1.19-1.24-1.91.88-1.24,1.32-2.64,1.77-3.65l.97.27c-1.87-1.24-.13-2.17-.77-3.25,1.36-1.01.11-3.21,1.99-3.29.13-2.58.26-4.91,1.64-7.16l1.17.99c-.8-.86.89.07.88-.43-1.29,0-1.13-1.19-1.81-1.87,1.5-.59,1.05-2.45.61-3.87l.92.42c-1.18-1.82.89-2.2,1.83-3.19.44.08,1.38.35,1.47-.05-1.02-1.46-.71-1.73-.98-3.21.45-.68,1.55-1.55,2.55-1.84.02-.95.23-1.8.61-2.56.41-.75.88-1.44,1.47-2.09,1.2-1.3,2.52-2.49,3.9-4.17l.88.85c.15-.34.34-.66.55-.96.22-.29.5-.55.78-.8.58-.47,1.2-.93,1.97-1.2.75-.27,1.52-.55,2.31-.65.79-.1,1.58-.16,2.34-.22.81.01,1.55.02,2.24-.02.7-.01,1.38-.04,2.04-.19-.21.65-.42,1.31-.61,1.97.23.19.5.26.76.25.26.01.53-.06.78-.21.49-.29.93-.85.96-1.58.24.22.54.3.87.35.32.06.66.09.98.14.64.11,1.23.31,1.2,1.23.81.79,1.62-.31,2.56-.09.76.89,1.33,1.38,1.88,1.8.56.41,1.23.69,2.07,1.16l-.29-.4c-.44.21-.98.88-.71,1.27.44,0,.85.51,1.25.74.39.24.83.2,1.4-.92.13.6.44,1.05.85,1.43.17.18.44.41.59.5.11.05.2.06.27.06.31.02.49-.03.11,1,.34-.63.47-.66.72-1.05.08.08,0,.53.01.87,0,.33.09.57.34-.02-.08.46-.42,1.29-.35,1.52.13-.23.27-1.07.43-1.46.29-.61.25-.09.31.8.03.86.14,2.09.27,2.09.1-.3.18-.48.24-.55.11-.13.21.08.31.4.1.31.21.73.27.78l.15,1.3c-.25-2.37-.07-1,.1.2.08.59.16,1.11.15.98-.02-.3-.05-.6-.07-.88-.05-.52-.13-1.27-.26-2.3.21,1.3.19.45.58,3.15-.23-1.97-.04-1.21.18-.67.21.56.45.86.03-1.39-.04-.09.01.17.12.75.39,1.19.41.73.41.3,0-.45-.03-.87.39,0,.13.51.21.93.54,2.05.36.94.05-.34-.16-1.17-.21-.84-.3-1.23.59,1.2.03-.17-.85-2.56-.82-2.36.5.49.59-.44.43-1.49-.15-1.07-.53-2.25-.73-2.93.73.65,1.71,1.72,2.29,2.45.58.73.78.96-.03-.43.46.44-.89-1.04-.4-.51-.31-.49.36.13.96.61.6.49,1.13.85.52.13-1.47-1.3-.8-.92-1.69-1.73,1,.39,2.36,1.08,1.25-.21l.78.56c-1.09-1.07-1.34-1.46-1.64-1.88-.3-.4-.64-.8-1.93-1.34-.14-.43-.33-.78-.6-1.08-.05,0-.18-.43-.28-.72-.1-.32-.22-.62-.36-.92-.28-.59-.48-1.21-.81-1.76-1.16-2.29-2.55-4.3-4-6.29-1.14-2.17-2.92-3.98-4.81-5.72-.5-.42-.98-.85-1.46-1.3-.5-.43-1.03-.85-1.53-1.3-.25-.23-.5-.46-.74-.69-.25-.21-.5-.42-.74-.65-.49-.45-.95-.94-1.44-1.39-.04-2.35-.23-2.41-1.82-2.29.19-.26.3-.29.36-.6-.78,1.43-.94-.33-1.73,1.06-1.63-1.08-3.47-1.23-5.34-1.71.34-.11.83-1.35.43-1.34l-.63.93.04-.45c-.31.18-.74.9-.61,1.47-2.47.17-4.68-.52-7.17-1.09-2.46-.57-5.18-.98-7.72-.21-1.38-.43-3,.69-4.19,1.41-2.27-.41-4.54-.58-6.63-.2-1.05.19-2.05.53-2.96,1.03-.46.25-.89.55-1.29.89-.2.17-.39.35-.56.54-.15.17-.38.42-.37.53-.14.1-2.05-3.74-.76-5.59Z"/>
      <path class="cls-2" d="M197.32,205.06c.84,0,1.4-.45,2.36.24-.76-.12-1.66-.02-2.36-.24Z"/>
      <path class="cls-2" d="M209.42,192.8c-.22-.09.38-.1.52-.1,0,.19.6.56.15.57,0-.19-.38-.28-.68-.47Z"/>
      <path class="cls-2" d="M211.08,189.43c.67.3.94,1.23.88,1.7l-.88-1.7Z"/>
      <path class="cls-2" d="M215.07,187.27c.67-.05.96.15.8.5-.37-.11-.51-.3-.8-.5Z"/>
      <path class="cls-2" d="M213.61,186.45c.09-.27.54-.24.98-.21-.58-.22.12.74-.98.21Z"/>
      <path class="cls-2" d="M218.4,180.7c.02-.17-.36-.76.43-.55-.58-.09.47,1.13-.43.55Z"/>
      <path class="cls-2" d="M218.88,177.34c.09-.07.23-.04.11-.25.38,0,.75.42.74.6l-.84-.35Z"/>
      <polygon class="cls-2" points="254.31 195.58 254.18 196.54 254.02 195.38 254.31 195.58"/>
      <path class="cls-2" d="M263.74,159.58c-.52-.61.64-.36.74-.46.13.55-.92-.25-.74.46Z"/>
      <polygon class="cls-2" points="255.16 143.37 255.24 143.46 253.93 144.16 255.16 143.37"/>
    </g>
    <g>
      <path class="cls-2" d="M188.53,174.12c.61.98,1.07-.91.74.56-.61,0-1.09-.09-.74-.56Z"/>
      <path class="cls-2" d="M124.61,151.82c-1.53-2.02-1.07-3.96-.43-5.86.66-1.91,1.51-3.77.86-5.89-.04-.46,1.97.67,1.75-.41-1.86-4.27,1.61-9.29,5.27-12.5l.46.45c.68-.62-.78-2.25-.19-2.97.37.14.41.46.98.47-1.01-.64.08-1.66-.59-2.34.56-.15,1.4.24,2.04.02l-1.04-.97c-2.37-2.53,1.53-3.03.85-5.42.24.21.38.49.72.48-.49-3.62,1.64-6.92,2.71-10.29.34.35,1.03.89,1.59.98-1.14-.84-.9-1.94-.66-2.89,1.46.39-.34-2.08.96-2.59l.22.25c-.84-1.5,1.39-.54.22-2.09l1.23.19c-1.51-1.44,1.51-.4,1.05-1.52l-.36-.22c-.04-.8.99-.49,1.05-1.16l.23.09c.35-1.45,1.74-1.41.46-2.33,1.3.37-.34,1.42,1.6,1.91,1.36-4.57,4.72-7.97,7.99-11.13.82.11,1.19.04,1.69.4.11-.54,1.05-1.35.82-2.25-.09.13.74.41.99.33,1.02-.05-.42-1.91.75-1.93-.02.56.21,1.03.68,1.42-.18-1.44.74-1.96,1.23-2.82.04.3-.04.55.29.93-.02-1.71,1.66-.79,1.86-2.02l.25.95c1.76.14-.74-1.83.64-1.98-.08.41.2.65.36,1,.02-2.04,1.97-2.48,2.67-3.57,0,.15.14.36.14.36.98-.83,2.42-.87,3.34-2.15.62.16.79,2.1,1.82,1.24-.79-1.67,1.78-1.5.27-3.16,1.21-.12,3.1-.19,3.66-.94-.27.81,1.21,1.99.37,2.4l1,.87c.13.75-.75-.05-.25.8.4-.19,1.44-1.26,1.91-1.08.48-1.33.75-3.61,2.08-4.12-.48.84.82,1.9.45,2.31.36-1.29.74-2.58,1.15-3.88.45-.19.4,1.4.96.78-.13-.47.1-.83.23-1.26.21.17,1.88-.8,2.39.96.32.67-.69.51-.06,1.06.84-.17.78-.78,1.63-.96l.05.24c.59.15,1.56-.99.8-1.91-.41,0,.31,1.06-.36.61.25-1.1,1.24-1.52,2.13-1.65-.27.33-.17.81-.23,1.33.5-.78,1.06-1.33,1.66-1.77.6-.43,1.24-.72,1.9-1.07-.05-.86-.39,1.6-.62,1.16.91.53,1.76.05,2.6-.37.84-.39,1.69-.68,2.42.18-.24.16-.15-1.22-.13-.98.86.1.81,1.35,1.36.87.05.73.69-.22,1.27-.42.31-.52.14.36-.36.43.4-.3,1.41-.7,2.56-.88,1.15-.16,2.45,0,3.31.61.01-.51,1.39-1.61,1.83-1.48l-.35,1.1c.28.73,1.46.14,1.36,1.11.58-.6-.36-.46-1.24-.27-.89.19-1.72.43-1.04,0,.16.99,1.99-1.51,1.48-.02.44.05.9-.21,1.38-.32.49-.11,1.14.02,1.5.65-.28-.26-1.26,1.3-.43,1.43,1.5.16.57-.42,1.92-.47l.98-.23c.55-.99,1.3.6,1.32-.7-.12.44.51.51,1.05.68.54.16.97.41.33,1.15l-1.07,1.15c.64.09,1.94-.94,2.87-1.21-.01.15-.05.45-.24.62.82-.85,1.17-.64,1.56-.34.39.3.77.65,1.85.22.34.62,1.1,1.09,1.72,1.55.31.23.59.46.72.7.12.26.12.52-.09.8,1.47.18,3.2.34,3.58,1.32-.4-.06-.72-.22-1.28-.04-.13.74.62.57,1.53.84-.24.02-.31.38-.37.8-.07.43-.16.95-.34,1.3,1.44.38,2.59-.14,3.5-.3-.92.61-.07.97.87,1.41.94.42,1.93.94,1.07,1.5-.57-.22-2.16-.84-2.32-.19-1.04.47-.29.68.68.97.98.28,2.15.67,1.91,1.22l2.01-.36c-.5.28.12.67.57,1.01.46.33.71.61-.45.54,1.05.4.14,1.29,2.22,1.27-.33.92.6,2.08,1.16,3.2.55,1.1.74,2.11-.91,2.26.48.35.39.95,1.4,1.08,1-.19-1.1-.85-.36-.83.17.26.76.46,1.06.55-.25.51-.23.94-2.17-.08-.09.11-.1.22-.07.32-.05.41.81.9,1.46,1.42.66.52,1.08,1.07.55,1.59-.6-.28-.86-.25-.88.19.26.37.47.74.64,1.1-.59.79-1.22.08-2.02-.21.05.27.04.56.07.83.02.14.04.27.09.39.02.05.03.04.11.09l-1.27-.5c.96.38.11.1.13.15v-.04c-.39-.16-.66-.19-.77-.19.58.25,1.19.42,1.52.53.17.11-.16.03.08.2-.75-.36-1.12-.36-1.48-.42-.53-.14.55.38.43.37-.54-.25-.56-.06-1.1-.41-.06-.07.76.26.47.06-.58-.19-1.52-.64-1.29-.37.19.24,2.24,1.03.96.7-.14-.14-.56-.36-.82-.54l-1.24-.33,1.05.53c-.36-.13-.39-.18-.58-.25.99.56-.61.2.67.94-.06.04-.26.02-.52-.04-.47-.1-1.14-.31-1.45-.32l-.05-.07c-1.15-.36-1.24-.02-.65.62l-.28-.18c-.32-.02-.7.27-.15.89-1.71-.44-5.67-3.37-4.61-2.06-.67.12,1.57,2.19,2.81,2.73-.88-.07-1.34.3-1.76.73-.43.44-.89,1-1.79,1.11-.88-.31-1.85-.73-2.9-1.29.01.2.16.39.22.54.05.14.02.26-.29.34-1.23-.28-2.43-.51-3.37-.47-.5,0-.99,0-1.48,0-.46.04-.92.08-1.37.12-.94.02-1.79.17-2.66.12-.43-.02-.87-.09-1.26-.14-.2-.03-.41-.08-.58-.14-.08-.03-.18-.06-.25-.1l-.16-.15c.44-.61-.32-1.06-.48-1.67-.09,1.05-.78-.83-.37.83.36.94.48,1.4.98,1.66-.66.77-1.64,1.2-2.47.6.42.31.4.66.41.99-.71-1.44-1.37-1.31-1.44-.61l.5.84c-.26-.22-.52-.44-.79-.66.02.17.29.61.45.93.15.33.22.5-.28.33-.26-.27-.52-.55-.77-.7.05,1.01.39,2.51-.62,2.29-.46-.24-.9-.46-1.35-.67-.08.31.23,1.23.83,1.19-1.31.16-1.89.58-3.05.04,1.09,3.45-.24,5.35-1.39,7.21l-.61-.4c-.88.19.98.86.34.97-.52-.49-1.56-.29-2.09-1.09-1.11.43.65,1.58.71,2.2.83.48-.37-.66.68-.05.28.22-1.16.75.11,1.44-.61-.04-1.52-.6-2.01-.94l.42.75c-.9-.02-1.47-.65-2.04-1.31-.58-.66-1.19-1.37-2.3-1.45l-.02.58c-1.62-.1-.96-2.02-2.02-.94.38.85,2.19,2.11,2.95,1.86-.05,1.27,3.01,1.79,2.48,2.87-.92.02.15-.97-1.05-1.18-1.3.14.2,1.32-.37,1.66.73-.35,1.91.57,2.07,1-.83.37-1.18-.82-1.58-.02.75.4,1.12,1.34,1.87.87,1.72.85-.76.69.51,1.55-1.36-.09-2.69-1.72-3.62-.98,1.26.21,1.36,1.62,3.33,1.63-.45.26-1.43.04-2.13-.43-.9.34,1.96,1.84-.56,1.41l1.23.48c-.46.06-.83.22-1.59.34-.13.48,1.44,1.89-.5,1.46.17.2-.13,1.27,1.3,1.1.95-.51-.83-.96,1.06-.97-1.57.17,0,.99.43,1.45l-.77-.07c.24.27,0,.78.79,1.06-.41-.25-.93-.24-1.15-.09l1.11.43c.44,1.02-2.06-.09-1.86.88l-.79-.84c.17.18-.95.35-.66.85,1.03.32,2.24.81,3.04,1.06.4.57-1.22.09-.19.73l-1.2-.83c-.34-.15-1.79.24-1.84.97.32.51,1.77,1.36,2.42.71-.02.35-.72.78-1.46.43.28.84,1.15,0,1.73.75-.74.21-1.79,1.02-2.86,1.5l-1.72-.88-.05.51c-1.38-.77-1.11.26-2.58-.22-.26.34.22.81.59,1.17,2.47-.86,3.2,1.33,5.43,1.13.55,1.36-5.37.64-1.98,2.19.58-.22,2.23.49,1.62-.38-.26.84,2.16.61,1.25,1.58-.9-.75-2.23.77-3.53-.33.72.08.56-.59.36-.76-.85.34-2.21-.13-2.23.77.21.55.25,1.3,1.39,1.2,1.26-.02-.13-.83,1.14-.47.43,1.06-1.48,1.25.75,1.68-.17-.67,1.13-.84,1.99-.82l.52.76-.83-.14c-.6,1.23,1.52.35,1.31,1.53l-1.64.6c-1.43-.26.59-1.76-1.72-1.52-.08.8,1.11,1.03.53,1.79-.2-.16-.26-.39-.47-.55-.07.28-3.13.66-1.31,1.75.73.56.83.12,1.7.11.33,1.26,1.23,1.59,1.4,2.4-1.71-.07-.06,1.46-1.86.66.96-.49.78-2.3-.86-2.69-1.98.55.23-1.02-1.79-1.23-.02,1.05-1.99,1.08-3.27,1.3-.07.3.48.57.7.74,1.22.07,1.18-.32,2.43-.39-.27,1.19.46,2.29,1.69,2.84-.57.43-1.79.39-1.94-.06.46,1.37.41,2.87.18,4.24,1.89-1.05.61,1.43,2.19.67.38-.75,1.72-1.48,2.65-1.19-.09.44-.87.07-1.27.29,1.13.44-1.65,1.04.12,1.4-.78-1.18-2.43.01-4.01-.05.98.83-1.1.08-1,1,.97.83,1.77,1.88,2.25,2.85-1.3,1.48.44,3.25.68,4.36-.67.72-2.48.61-2.67,1.32.17.76,1.77-.89,1.17.38l-.36-.05c.45.27-.8,2.3,1.75,2.16h-1.94c-.13.25.34.36.57.5-.61.12-1.11.48-1.58.21-1.16.96.5,1.44.7,2.19l1-.72c1.13,1.12.22,2.21.89,3.38l-1.09.21.81.6c-1.08.06-1.59.91-.63,1.09-1.03-.43-2.06-.88-3.09-1.35.51-.69,1.44.3,2.42-.28.85-.5.31-1.59-.77-1.56-.02.48.22.45.68.71-1.47.48-1.56-.22-2.63-.34.11.22-.27.66.21.61-.83-.31-1.05-.76-1.25-1.54.7.41.87-.48,1.34-.37-1.34.21-1.89-.46-1.72-1.5,1.4-.99-1.33-1.64-1.11-2.86,1.42.23,2.61.61,3.28,1.18.55-.82-.19-.77.37-1.59-1.06-.16-2.65-.13-3.42-.96l.99-.22c-.65-.75-2.12-.52-2.01-1.64.2-1.92-.05-3.82-.09-5.24l.99-.17c-2.24-.53-1.09-2.52-2.14-3.49.79-1.89-1.28-3.89.4-4.93-.96-3.15-1.76-6-1.36-9.37l1.46.59c-1.08-.62.85-.37.65-.96-1.2.65-1.49-.85-2.37-1.3,1.16-1.46.08-3.43-.85-4.89l1.01.03c-1.74-1.53.05-3.03.6-4.66.44-.14,1.43-.3,1.39-.82-1.47-1.16-1.31-1.62-2.03-3.17.19-1,.9-2.54,1.79-3.38-.69-2.12-.29-4.1.23-6.03.31-.96.65-1.92.93-2.91.28-.99.6-2,.72-3.11l1.2.24c-.24-2.36.82-4.49,2.19-6.3.34-.46.66-.92,1.01-1.35.36-.42.72-.84,1.04-1.26.66-.84,1.18-1.7,1.59-2.57l1.27,1.61c1.2-.37,1.33-2.19.13-3,.31-.1.54-.32.75-.59.23-.25.42-.55.64-.81.43-.53.91-.93,1.72-.53.57-.24.67-.65.75-1.12.12-.48.19-1.02.6-1.49,1.4-.49,2.29-.84,3.11-1.25.82-.43,1.57-.91,2.69-1.55-.21.03-.42.06-.63.11-.1.53.22,1.32.83,1.21.32-.41,1.15-.57,1.69-.84.14-.06.25-.14.34-.23.07-.08.05-.17.05-.3-.02-.25-.15-.61-.41-1.17.52.57.76.24.92,0,.18-.24.21-.4,1.32.4-.62-.57-.6-.69-.98-1.07h.02c.17,0,.68.29,1.1.45.41.17.72.22.11-.25.53.3,1.41.98,1.73,1.06-.23-.21-1.2-.76-1.62-1.08-.58-.48-.09-.25.9.17,1.08.47,2.84,1.2,2.88,1.14-.29-.19-.48-.31-.57-.38-.04-.03-.06-.06-.06-.06,0,0,0,0,.02,0l-.12-.18c-.31-.47-.33-.78-.48-1.13-.08-.19-.2-.38-.42-.58l1.12.21c-2.21-.53-1.2-.44-.55-.55.66-.07.96-.31-1.98-.5.91-.01.27-.19,2.17-.14-1.41-.11-.9-.24-.6-.46.32-.2.43-.51-1.13-.39-.05.04.13.02.52,0,.72-.31.32-.46-.04-.55-.37-.11-.71-.14-.31-.56.32-.08.63-.11,1.3-.35.51-.32-.34-.15-.87-.02-.55.13-.81.19.52-.58-.18-.07-1.48.69-1.34.68-.02-.62-.98-.84-1.82-.79-.43.04-.85.13-1.2.24l-.49.18-.21.08s-.1.02-.21.02h-.3c-2.14-1.76.48-3.92-1.71-2.49-.11-.46-.23.88-.2.39-.82.58-.93-2.72-1.6-1.56.1,1.45-.43.76-.51,1.63-1.47-1.02-1.79-2.31-3.07-1.28l.1-.75c-1.5,2.17-3.22,1-4.32,3.59-3.95.48-7.82,1.54-11.61,2.88l-1.42.48-1.23.53c-.81.37-1.65.64-2.44,1.04-.79.41-1.58.8-2.37,1.16-.79.39-1.54.87-2.32,1.27-3.21,1.4-6.13,3.41-8.83,5.82-2.72,2.38-5.35,4.94-8.34,7.52-2.69.17-2.76.38-3.37,2.47-.21-.26-.19-.4-.52-.48,1.25,1.05-.72,1.29.43,2.35-.48.56-.93,1.12-1.34,1.71-.39.61-.75,1.22-1.11,1.84-.73,1.23-1.35,2.55-2.13,3.87.09-.5-.93-1.39-1.13-.83l.59,1.04-.44-.14c0,.46.51,1.24,1.15,1.13-1.26,3.69-3.36,6.89-5.47,10.19-2.12,3.29-4.19,6.7-5.29,10.47-1.27,1.53-1.49,4.27-1.75,6.29-1.91,2.55-3.63,5.08-4.82,7.77-.6,1.35-1.06,2.73-1.36,4.17-.14.72-.25,1.45-.3,2.2-.05.73-.05,1.54.03,2.17,0,0-.25-.07-.65-.22-.39-.16-.91-.43-1.44-.77-1.07-.7-2.19-1.78-2.4-3.16Z"/>
      <path class="cls-2" d="M188.05,172.89c.73-.43.99-1.25,2.19-.94-.73.25-1.46.84-2.19.94Z"/>
      <path class="cls-2" d="M192.86,152.22c-.24,0,.3-.3.43-.38.09.23.8.36.39.59-.09-.23-.47-.15-.82-.22Z"/>
      <path class="cls-2" d="M192.89,147.37c.74.02,1.37.99,1.52,1.58-.52-.52-1.01-1.05-1.52-1.58Z"/>
      <path class="cls-2" d="M195.61,142.79c.59-.4.93-.31.94.2-.38.05-.59-.11-.94-.2Z"/>
      <path class="cls-2" d="M193.95,142.55c-.02-.37.4-.56.81-.75-.62.03.41.83-.81.75Z"/>
      <path class="cls-2" d="M196.14,133.19c-.04-.22-.61-.74.21-.89-.58.19.84,1.12-.21.89Z"/>
      <path class="cls-2" d="M195.41,128.86c.06-.13.2-.17.02-.35.36-.21.86.11.9.33l-.92.02Z"/>
      <path class="cls-2" d="M232.3,79.94c.28.15.55.3.81.46l-.92-.02c.05-.15.08-.29.11-.44Z"/>
      <path class="cls-2" d="M189.87,65.56c-.49.52-.46-.63-.56-.72.48-.13-.08.91.56.72Z"/>
      <polygon class="cls-2" points="170.08 74.18 170.22 74.09 170.76 75.47 170.08 74.18"/>
    </g>
    <g>
      <path class="cls-2" d="M128.98,119.36c.74.38.73-1.12.75.02-.51.3-.94.47-.75-.02Z"/>
      <path class="cls-2" d="M93.88,180.35c-1.36-1.94-.92-3.45-.34-5.02.57-1.55,1.28-3.17.35-4.89-.1-.38,2.04.45,1.67-.45-2.41-3.43-.23-7.53,1.81-11.48l.6.2c.4-.77-1.6-1.52-1.41-2.28.39-.05.57.19,1.09-.04-1.18-.08-.68-1.33-1.61-1.53.41-.36,1.34-.46,1.78-.94l-1.38-.22c-1.67-.33-1.76-1-1.67-1.81.04-.79.27-1.74-.77-2.26.32-.02.6.06.85-.15-1.32-.97-2.18-2.14-3.03-3.33-.43-.59-.82-1.21-1.29-1.76-.23-.28-.46-.56-.69-.82-.25-.25-.52-.49-.79-.71.44-.19,1.21-.61,1.54-1.05-1.24.71-1.98.22-2.69-.13.45-.59-.02-.62-.57-.63-.54-.02-1.2.05-1.21-.52l.28-.18c-1.49.68-.06-1.3-1.65-.27l.44-1.11c-1.51,1.4-.03-1.39-1.09-.92l-.24.35c-.69.11-.31-.85-.88-.84l.1-.22c-1.19-.17-1.08-1.48-1.92-.12.37-1.29,1.17.11,1.7-1.78-1.99-.32-3.72-.9-5.41-1.51l-2.53-.86-1.28-.33c-.42-.12-.85-.23-1.28-.27-.29-.69-.53-.92-.55-1.53-.21.14-.56.14-.91.26-.35.12-.7.31-.87.71.12-.03-.2-.82-.4-.91-.7-.64-.69,1.74-1.4,1.08.25-.44.33-.96.2-1.55-.57,1.28-1.38,1.13-2.01,1.68.06-.28.21-.47.1-.96-.28.77-.63.75-1.01.68-.37-.07-.76-.15-.97.37v-.96c-1.44-.74.23,1.93-.87,1.58.12-.36-.07-.66-.15-1.03-.17.95-.59,1.43-1.06,1.77-.49.37-1.12.75-1.49,1.27.02-.16-.07-.4-.07-.4-.48.34-.97.67-1.47.99-.25.18-.5.34-.75.63-.24.3-.48.66-.74,1.16-.2-.11-.19-.95-.26-1.59-.06-.69-.17-.96-.59-.48,0,.33-.05.84-.13,1.18-.08.36-.19.67-.32.96-.25.58-.54,1.06-.72,1.77-.14.47-.23,1.07-.17,2-.01.1,0,.17,0,.24l-.02.02c-.46-.1-.91-.26-1.34-.2-.22.03-.43.11-.64.27-.19.17-.37.42-.54.78.55-1.48.53-3.77,1.09-4.44-.02-.39-.04-.79-.03-1.21.29-1.15.28,0,.45-1.25-.21.31-1.14,2.09-1.21,1.87-.42,1.09-.99,2.65-1.58,4.05-.58,1.38-1.12,2.57-1.54,3.1.34-.7.53-1.42.68-2.02.08-.32.17-.63.22-.83.08-.29.18-.55.27-.75l-.69,1.7-.66,1.55c-.43,1.02-.86,2-1.29,2.95-.26.33.63-1.91.09-.91-.21.62-.48,1.16-.75,1.76.02-.16-1.01,1.39-.28-.55.23-.69.48-.89.55-1.32-.07.11-.12.2-.16.26-.3.53-.55,1.09-.84,1.54l.09-.24c-.12.1-.93,1.75-1.09,2.37.12-.14.37-.99.37-.78-.57,1.27-1,1.97-1.25,2.37.19-.38.35-.79.57-1.3-.89,1.85-1.33,2.66-1.77,3.54-.24.57.53-1.2.46-1-.05-.01-.39.7-.63,1.24-.11.24-.21.47-.31.69-.07.17-.11.26-.11.28.07-.16-.16.38-.12.29-.03.07-.03.1-.04.11,0,0,.01.03,0-.09-.02-.16-.03-.29-.16-.34.1-.29-.25-.26-.5-.4-.21.11.03-.23.2-.03-.18-.06-.61-.3-1.08-.62-.47-.33-.99-.76-1.1-1.58-.1.2-.4.44-.73.64-.33.19-.68.35-.77.26l.67-.97c.22-.78-.65-.46-.09-1.45-.62.5-.05.56.43.62.48.07.91.15.45.31.17-.47-.18-.3-.52-.11-.33.19-.63.37-.14-.31-.16-.17-.53-.03-.83,0-.3.03-.53-.06-.32-.82,0,.28,1.36-1.38,1.09-1.65-.5-.37-.52.32-1.06.37-.02.03-.05.01-.09-.01l-.47.02c-.93,1.26-.02-1.12-.99.71.76-1.18-.73-.94.88-2.89l1.27-1.48c-.14-.31-1.4.97-2.01,1.29.11-.21.36-.65.57-.88-1.99,2.31.04-1.3-1.56-.09.31-.92.26-1.58.31-2.26.06-.69.2-1.38.86-2.25-.69-.14-1.5-.22-1.03-1.57.21.02.28.21.75-.14.65-1.12.07-.76-.3-1,.32-.15,1.35-2.19,2.21-3.34-.64-.27-1.9.8-2.66,1.24,1.14-1.14.83-1.45.48-1.84-.35-.37-.74-.83.37-1.85.3.14,1.03.56,1.68-.4,1.19-.97.82-1.06.3-1.19-.52-.12-1.19-.31-.54-1.14l-2,1.1c.65-.54.4-.88.3-1.21-.11-.33-.15-.61.84-.87-.63-.21.93-1.67-1.01-1.02.98-1.3,1.14-2.54,1.41-3.77.34-1.21.95-2.39,2.78-2.85-.23-.31.39-.98-.59-.97-1.22.37.46.77-.3.87.03-.27-.44-.39-.68-.44.69-.63,1.02-1.07,2.26-.26.83-.56.21-1-.39-1.62-.6-.59-1.26-1.38-.43-2.19.64.34.97.3,1.13-.25-.21-.49-.41-1-.6-1.54.89-1.09,1.8.14,2.9.71.1-.6.48-1.06-.18-1.77l1.65.3c-1.19-.23-.4-.77-.52-1.15l.12.38c.48.2.55-.46.61-.8-.66-.38-1.31-.06-1.66.12-.31-.54.05-.82-.26-1.49.92.8,1.22-.21,1.58-.48.5-.23-.53-1.11-.41-1.21.5.38.61-.56,1.04.29.05.25-.73-.09-.46.48.56.02,1.4.74,1.2-.26-.14-.77-1.94-1.42-.71-1.68.06.39.4.74.61,1.17l1.05-.27-.81-.75c.29.09.31.22.46.27-.35-.48-.19-.81-.05-1.14.16-.32.3-.64-.11-1.17.25-.42,1.24-.17,1.63-.39v.13c.83.08,1.03-.71.88-1.55l.14.19c.28-.13.68-.71.54-1.45,1.11.15,2.86,3.04,2.57,1.46.53-.45-.34-2.28-1.01-2.66.77-.11,1.19-.75,1.68-1.3.51-.52,1.1-.91,2.08-.52-.08-.48-.33-.65-.13-1.09.94-.38,1.71-1.12,2.53-1.7.41-.28.84-.52,1.31-.6.46-.05.96.05,1.53.38-.29.64.45,1.01.73,1.58-.03-1.08.91.71.33-.89-.46-.89-.63-1.35-1.28-1.49.78-.95,2.34-1.68,3.28-1.05-.47-.32-.37-.68-.25-1.05.54,1.5,1.39,1.43,1.76.68l-.27-.94.74.79c.11-.38-.48-2,.44-1.35.16.34.33.69.53.9.31-.99.76-2.57,1.72-1.99l.99,1.17c.23-.24.47-1.21-.16-1.44,1.42.45,2.18.31,2.88,1.4.59-1.69,1.68-2.76,2.91-3.45,1.25-.63,2.67-.85,3.91-.96l.03.73c.75.57.16-1.31.7-.87-.12.71.7,1.44.3,2.34,1.02.66,1.04-1.39,1.63-1.78,0-.96-.43.66-.44-.56.08-.35,1.39.6,1.42-.86.29.54.19,1.62.11,2.22.17-.25.34-.51.52-.75.8,1.62-1.32,3.16-.41,5.16l.47-.28c.57,1.46-1.11,1.84.12,2.23.44-.77.78-2.86.24-3.48,1.12-.45.32-3.47,1.63-3.41.39.83-1.03.25-.72,1.43.65,1.14,1.17-.71,1.73-.32-.61-.52-.15-2,.25-2.28.68.66-.41,1.37.53,1.51.14-.83,1.03-1.44.26-2.04.36-1.88,1.01.54,1.56-.91.27,1.33-1.03,3.06-.02,3.74-.14-1.29,1.33-1.72.85-3.63.41.38.4,1.39.07,2.17.53.78,1.56-2.26,1.59.29l.29-1.29c.15.44.4.78.63,1.51.49.06,1.84-1.63,1.57.34.18-.19,1.33.07,1.06-1.35-.64-.93-.95.87-1.16-1,.36,1.53,1.09-.06,1.6-.5l-.03.77c.3-.26.86,0,1.15-.8-.26.41-.24.94-.06,1.15l.45-1.11c1.15-.41-.08,2.04.97,1.89-.3.24-.61.5-.9.76.2-.17.34.95.87.69.37-1.01.96-2.19,1.28-2.97.67-.34.01,1.23.8.27l-.99,1.1c-.17.32.14,1.82.86,1.94.53-.27,1.64-1.6,1.01-2.33.39.06.75.83.28,1.51.92-.14.16-1.14,1.05-1.59.13.77.8,1.99,1.05,3.12l-1.2,1.52.47.14c-.99,1.21,0,1.13-.73,2.49.24.31.76-.09,1.16-.37-.24-2.6,1.99-2.82,2.39-4.99,1.55-.12-.87,5.32,1.6,2.53-.03-.62,1.18-1.96.13-1.66.74.52,1.31-1.87,1.98-.64-1.03.57-.04,2.37-1.51,3.21.32-.66-.37-.73-.59-.59.04.91-.81,2.05-.03,2.35.55-.02,1.22.2,1.55-.9.44-1.18-.8-.16-.02-1.23,1.16-.02.59,1.8,1.84-.08-.68-.12-.36-1.35-.03-2.16.32-.07.64-.13.95-.18l-.47.71c.95,1.07.94-1.24,2.02-.53l-.14,1.74c-.85,1.18-1.4-1.31-2.11.91.68.4,1.4-.57,1.84.28-.24.11-.47.07-.7.2.23.2-.79,3.06.94,1.92.81-.38.5-.68.88-1.45,1.24.33,2.01-.31,2.79-.02-.94,1.41,1.19.84-.42,1.93.13-1.08-1.58-1.84-2.69-.58-.48,2-.75-.69-1.85,1.03.85.47-.05,2.22-.49,3.45.19.19.65-.19.88-.3.64-1.04.33-1.17.87-2.3.82.76,2.03.65,3.13-.09.03.7-.66,1.71-1.09,1.61,1.3.28,2.38,1.15,3.21,2.08.39-2.1,1.39.33,1.82-1.34-.3-.74-.07-2.24.73-2.8.3.33-.47.73-.55,1.18,1.04-.62-.24,1.92,1.13.77-1.36-.13-1.51,1.9-2.55,3.08,1.17-.28-.63.91.04,1.35,1.16-.29,2.37-.24,3.33.02.06,1.86,2.32,1.77,3.17,2.4-.08.95-1.48,2.08-1.23,2.67.53.41.84-1.78,1.08-.51l-.3.2c.5-.11.58,2.07,2.48.4l-1.5,1.21c.02.25.44.04.69,0-.41.46-.63,1.02-1.12,1.13-.44,1.37,1.06.68,1.57,1.1l.47-1.11c1.44.15,1.2,1.48,2.25,2l-.82.74h.93c-.88.63-.99,1.53-.1,1.17-1.04.19-2.07.42-3.08.66.16-.78,1.3-.57,1.88-1.53.52-.84-.42-1.35-1.27-.71.18.35.36.19.86.12-1.01,1.17-1.37.72-2.28,1.25.18.09.04.61.41.3-.8.26-1.14.08-1.61-.32.72-.14.49-.84.91-1.05-.98.94-1.67.83-1.99.04.64-1.53-1.74-.22-2.12-1.1,1.15-.81,2.23-1.34,3.02-1.38.02-.9-.51-.39-.5-1.3-.88.6-2.03,1.65-2.99,1.67l.61-.81c-.85-.02-1.78,1.14-2.25.41-.82-1.26-2.02-2.12-2.84-2.85l.53-.85c-1.72,1.46-2.13-.48-3.35-.07-.68-1.57-3.04-.64-2.83-2.51-2.55-.43-4.7-.61-6.88-1.79l.9-1.22c-.8.85.02-.9-.48-.86.08,1.28-1.09,1.21-1.67,1.99-.33-.71-.95-.88-1.61-.78-.67.11-1.39.52-1.97.9l.22-.99c-1.38,1.56-2.09-.24-3.23-.8-.06-.44-.11-1.42-.5-1.36-.92,1.51-1.24,1.35-2.3,2.23-.67-.1-1.73-.56-2.4-1.26-.69.49-1.35.85-2,1.04-.65.21-1.29.22-1.94.32-1.29.15-2.61.17-3.83,1.04l-.32-1.16c-1.14,1.35-2.48,1.73-3.85,1.85-1.35.23-2.73.28-3.6,1.22l-.36-2.01c-.86-.38-1.39,1-.78,2.31-.86-.37-1.32,1.41-2.28.04-.8-.09-.49,1.2-.94,1.66-.8-.1-1.31-.07-1.76.11-.44.2-.81.52-1.35.98l.35-.02c-.05-.47-.39-1.26-.75-1.23-.23.72-1.95.29-.44,2.26-.99-.34-1.52.3-2.08.85-.28.28-.57.53-.9.67-.32.15-.71.17-1.23-.06.45.5.25.78.38,1.22-.23.15-.51.23-.8.3-.28.08-.57.15-.84.23-.54.17-1.02.42-.98,1.14-.34-.14-.5-1.05-.89-.81-.04.37.55.67.55,1.16-.13.52-.4.86-.77,1.1-.34.27-.77.44-1.22.6-.23.08-.47.15-.7.23-.22.09-.43.19-.63.29-.4.21-.75.47-.96.83-.17.79-.45,1.46-.74,2.13-.14.34-.29.67-.46.98l-.24.43-.07.16c-.2.4-.47.75-.5,1.14h-.53c.97.11.42.23-.06.47-.47.22-.83.55.84.16-.58.21-.32.29-1.47.64.77-.15.37.11-.01.48-.38.34-.71.8.34.33.07-.07-.06,0-.33.12-.73.6-.64.76-.51.85.12.1.27.13-.4.91-.28.19-.48.26-1.13.77-.64.63.04.21.49-.08.45-.28.65-.41-.94,1.11.02.11,1.59-1.39,1.5-1.37-.51.86-.51,1.37-.26,1.53.25.17.74-.02,1.18-.28.25-.14.48-.3.66-.39-.9,1.8-2.19,4.14-2.97,5.46-.78,1.32-1.05,1.78.15.17-.58,1.13,1.18-2.07.55-.92.45-.64-.39,1.02-1.12,2.58-.73,1.54-1.37,2.96-.56,1.55,1.83-3.71,1.06-1.87,2.17-4.09-1.1,2.89-2.65,6.74-1.17,4.24l-.94,2.08.87-1.61.32-.57c.1-.16.19-.44.27-.63.26-.62.52-1.24.77-1.85.82-1.95,1.6-3.8,2.33-5.52.41-.87.81-1.73,1.2-2.57.69-1.44,1.18-2.51,1.33-2.99l.1-.33c.02.05.07.06.13.06h.02s.39-.16.39-.16l.95-.38c.64-.25,1.26-.52,1.94-.7,2.62-.9,5.46-1.34,8.27-1.46,5.64-.1,10.96,1.59,14.94,4.36.58,1.38.77,2.12,1.24,2.52.43.43,1.12.52,2.28.82-.25.22-.41.2-.45.54.99-1.3,1.39.77,2.46-.38.68.55,1.35,1.09,2.01,1.63.7.58,1.43,1.1,2.1,1.72,1.38,1.18,2.72,2.49,3.92,4.04-.51-.4-1.73.2-1.22.7l1.27-.02-.29.37c.48.25,1.46.24,1.58-.48.91.9,1.59,1.95,2.29,2.99.6,1.07,1.21,2.18,1.61,3.32.91,2.28,1.32,4.62,1.59,6.89.43,4.56.04,8.77.12,12.8-.71,1.9-.3,4.58-.25,6.65-1.47,2.85-2.96,5.36-4.13,7.88-.58,1.27-1.09,2.53-1.47,3.87-.2.67-.36,1.35-.51,2.06-.07.36-.13.73-.2,1.1-.07.4-.1.72-.21,1.26.04-.13-3.56-2.39-3.8-4.79Z"/>
      <path class="cls-2" d="M128.23,118.74c.5-.67.43-1.41,1.56-1.79-.53.56-.97,1.35-1.56,1.79Z"/>
      <path class="cls-2" d="M121.17,101.69c-.15.19-.03-.41,0-.56.21.07.77-.39.68.06-.22-.07-.4.27-.68.5Z"/>
      <path class="cls-2" d="M117.57,98.9c.42-.61,1.56-.6,2.11-.37-.71.12-1.4.22-2.11.37Z"/>
      <path class="cls-2" d="M115.11,94.23c-.08-.72.16-.98.63-.73-.14.36-.38.46-.63.73Z"/>
      <path class="cls-2" d="M114.11,95.58c-.33-.15-.31-.61-.3-1.06-.25.57.93.02.3,1.06Z"/>
      <path class="cls-2" d="M105.87,90.11c-.24-.03-.9.42-.9-.41.08.59,1.38-.56.9.41Z"/>
      <path class="cls-2" d="M101.17,90.02c-.13-.08-.16-.22-.37-.06-.19-.38.19-.84.44-.86l-.06.92Z"/>
      <polygon class="cls-2" points="37.67 131.86 37.37 131.46 38.13 131.21 37.67 131.86"/>
      <path class="cls-2" d="M45,152.85c.29-.57-.14.44-.15.51-.14.21.35-.81.15-.51Z"/>
      <polygon class="cls-2" points="57.2 138.22 57.07 138.37 57.14 136.02 57.2 138.22"/>
    </g>
  </g>
  <g>
    <circle class="cls-1" cx="42.5" cy="164.97" r="12.86"/>
    <g>
      <path class="cls-2" d="M56.6,165.18c-.14-.32-.59.17-.25-.21.27.04.47.11.25.21Z"/>
      <path class="cls-2" d="M56.17,163.92c-.88-.44-1-.94-.99-1.53-.07-.56-.02-1.21-.74-1.51-.11-.09.92-.28.6-.47-.8-.27-1.19-.76-1.34-1.44-.19-.65-.16-1.52-.16-2.35l.26-.1c0-.33-.88-.03-.96-.3.14-.12.25-.1.4-.31-.46.3-.51-.2-.89,0,.09-.22.41-.5.48-.77l-.55.31c-.66.35-.82.19-.94-.08-.12-.26-.2-.62-.65-.5.11-.09.23-.15.28-.28-1.26.15-2.01-.58-3.03-.69.13-.18.34-.52.4-.76-.33.56-.67.58-.94.59.16-.68-.63.41-.75-.03l.07-.13c-.43.58-.17-.49-.59.24l.03-.55c-.36.87-.16-.54-.47-.13l-.04.19c-.22.18-.18-.3-.37-.18v-.11c-.39.14-.5-.39-.63.33-.02-.59.4-.21.36-1.08-1.37.51-2.53.33-3.76.43-.17-.27-.27-.35-.33-.62-.11.17-.46.21-.5.59.04-.02-.14-.36-.22-.38-.28-.23-.09.82-.39.56.05-.22.04-.46-.05-.71-.09.61-.38.59-.57.83,0-.13.04-.21-.02-.43-.09.69-.53-.02-.64.47l-.05-.43c-.54-.35.17.88-.23.7.03-.15-.05-.3-.1-.47-.03.83-.58.75-.74,1.14,0-.06-.06-.16-.06-.16-.25.24-.69.15-.83.64-.21-.1-.47-.92-.71-.6.45.72-.33.61.36,1.31-.32,0-.86.06-.85.4-.09-.34-.75-.74-.59-.95l-.47-.29c-.19-.29.24-.03-.08-.34-.09.12-.21.61-.38.59.14.57.63,1.44.44,1.76-.1-.36-.72-.61-.73-.8.24.52.49,1.02.78,1.52-.05.11-.5-.45-.46-.16.17.15.22.3.32.46-.1-.03-.15.48-.83-.01-.29-.17,0-.26-.32-.35-.15.17.08.37-.05.56l-.09-.07c-.19.05.02.56.49.71.08-.06-.42-.27-.14-.24.33.38.29.64.18.81-.07-.13-.26-.25-.43-.41.36.6.42.97.49,1.35.34.21-.57-.46-.36-.4-.71.07.29,1.06-.56.99-.04-.08.52.22.42.17-.12.14-.65-.1-.51.1-.31-.12.02.18.08.34.21.15-.16-.03-.16-.15.22.3.44,1.07-.11,1.31.22.06.73.45.69.52l-.5-.16c-.32,0-.03.3-.47.21.57.34-.34-.87.08-.49-.44-.04.72.56.04.33-.03.19.5.47,0,.55.09-.03-.69-.29-.68-.13.05.29.23.12.37.37l.19.16c.5.08-.1.22.48.2-.42-.02.2.38-.64.27l-.66-.1c.04.13.69.26.98.37-.06,0-.2.03-.3.02,1.01.09-.1.26.68.43-.38.22-.05.56-.67.69.32.17.69.3.48.52-.1-.03-.13-.08-.35-.08-.29.15-.02.17.14.27-.16-.01-.56.31-.89.52.33.15.86,0,1.2-.03-.96.33.69.37-.14.73-.16-.03-.54-.16-.76.04-.93.39.81.17.41.54l.79-.28c-.47.25.55.23-.27.44.3,0-.17.38.59.1-.5.63.71.76-.48,1.59.15,0,.09.2.46-.01.36-.29-.36.01-.09-.16.05.04.25-.05.36-.09-.11.2-.12.32-.78.51-.3.52,1.35-.34,1.26.11-.3.15-.4.24-.29.31l.6-.13c0,.27-.57.53-1.05.84.15.07.22.23.61.03l-.49.55c.35-.4.35-.11.5-.14l-.15.03c-.18.16.04.2.14.23.27-.23.29-.44.32-.57.24-.09.26.02.54-.09-.46.32-.19.41-.17.53-.02.18.47-.22.48-.18-.22.19.09.17-.28.37-.1.03.15-.25-.09-.14-.11.19-.5.52-.11.4.29-.09.81-.75.7-.35-.14.05-.32.19-.5.29l-.06.36.38-.34c-.08.11-.12.12-.16.18.44-.32.34.14.8-.25.11.03-.08.4-.05.51l-.05.02c-.11.3.15.28.46.09l-.08.08c.02.08.2.13.45-.05-.11.4-1.16,1.53-.6,1.15.17.1.8-.57.93-.87.05.48.78-.02.61.78.15-.15.19-.28.33-.33.28.44,1.07-.13.98.96-.21.14-.21.46-.32.73.28-.37-.05.49.29-.21.17-.43.26-.63.22-.85.34-.13.7-.01.7.45,0-.23.1-.34.19-.45-.25.69-.09.87.13.65l.14-.43-.03.47c.1-.12.3-.89.33-.44-.04.17-.07.34-.07.47.25-.32.56-.85.64-.47v.66c.1-.06.28-.43.19-.63.21.43.38.51.41,1.08.66-1.33,1.24-1.34,1.78-1.3v.34c.18.31.04-.59.16-.36-.02.32.17.69.09,1.08.26.35.23-.6.34-.77-.03-.44-.07.3-.11-.26,0-.16.33.29.26-.37.09.25.13.74.14,1.01l.08-.34c.3.74-.17,1.43.14,2.35l.13-.13c.26.67-.29.84.14,1.02.13-.35.09-1.32-.1-1.59.28-.23-.14-1.57.16-1.58.16.37-.21.14-.05.66.26.51.23-.36.39-.21-.2-.21-.23-.9-.18-1.03.22.27.06.64.28.65-.06-.38.04-.7-.18-.92-.16-.86.26.18.17-.49.25.57.19,1.41.51,1.65-.2-.55.03-.86-.35-1.65.13.13.29.57.34.94.24.29-.07-1.12.36-.04l-.17-.58c.11.16.21.31.39.57.12-.03.02-.88.37-.05,0-.1.25-.18-.11-.71-.29-.28.03.5-.39-.24.37.59.16-.18.13-.42l.16.31c-.01-.15.12-.13-.02-.48.06.2.18.4.26.46l-.2-.5c.05-.32.48.82.59.59l.05.44c-.01-.1.3.32.31.12-.2-.44-.44-1-.59-1.35-.02-.24.32.45.16-.04l.18.58c.06.15.49.65.63.55,0-.2-.25-.87-.52-1.02.06-.04.31.15.46.48.06-.23-.31-.43-.35-.76.23.24.64.5,1.03.81l.34.77.1-.07c.25.63.36.36.69.97.14.03.09-.23.05-.42-.87-.74-.7-1.37-1.39-2.11.05-.37,1.72,1.77.94.35-.21-.16-.62-.84-.56-.49.21-.04-.59-.84-.16-.66.16.41.83.63,1.06,1.23-.22-.26-.27-.1-.24,0,.32.23.66.77.83.62.03-.16.16-.3-.23-.66-.41-.41-.1.17-.45-.3.04-.3.69.28.02-.51-.04.17-.49-.23-.77-.52-.02-.09-.04-.19-.07-.28l.26.29c.37,0-.46-.54-.23-.64l.64.42c.44.48-.46.07.35.77.15-.1-.21-.51.1-.44.04.09.03.14.08.23.06-.02,1.18.86.73.12-.16-.31-.27-.27-.57-.52.07-.3-.21-.61-.16-.78.61.49.25-.2.78.42-.43-.19-.62.14-.11.7.79.5-.24.1.42.75.19-.17.88.41,1.37.75.08-.04-.07-.26-.11-.35-.42-.37-.47-.29-.93-.64.29-.14.21-.56-.14-.98.28.09.73.42.7.55.08-.37.3-.65.63-.85-.9-.27,0-.41-.74-.66-.27.05-.9-.17-1.21-.44.1-.05.35.2.54.26-.37-.34.8.22.16-.26.14.39.96.57,1.57.96-.26-.4.44.25.55.03-.25-.4-.41-.79-.44-1.08.74-.04.29-.77.36-1.02.38-.04,1.13.3,1.31.16.04-.21-.88-.1-.45-.28l.15.07c-.16-.13.67-.42-.44-.76l.83.28c.09-.04-.09-.14-.17-.2.28.06.55.04.71.18.65-.07-.02-.44,0-.65l-.53.05c-.35-.41.2-.57.06-.93l.51.06-.29-.24c.49.09.81-.08.41-.22.4.21.81.44,1.2.68-.32.13-.59-.24-1.1-.19-.44.04-.36.37.12.49.08-.12-.03-.14-.2-.26.71.04.65.23,1.1.4-.02-.07.21-.15,0-.19.32.18.35.34.33.58-.25-.21-.44.02-.63-.08.61.12.76.39.54.65-.75.05.31.65.03.96-.57-.31-1.02-.6-1.22-.85-.36.12-.04.22-.4.34.43.21,1.11.48,1.31.84l-.45-.12c.15.31.8.53.56.81-.21.24-.36.49-.49.73-.14.23-.28.45-.39.64l-.42-.19c.79.66-.02.89.18,1.38-.34.13-.4.44-.49.71-.1.26-.23.47-.64.34-.14.5-.3.98-.55,1.4-.23.44-.54.82-1,1.1l-.33-.61c.2.49-.35-.21-.41-.02.51.27.29.69.45,1.09-.69-.1-.81.68-.9,1.34l-.28-.37c.13.96-.76.59-1.26.74-.14-.13-.44-.48-.55-.37.09.79-.07.81-.26,1.42-.28.15-.85.15-1.24-.01-.36.72-.95.97-1.54,1.15-.59.22-1.21.25-1.81.67l-.15-.53c-.54.62-1.27.71-1.93.64-.68-.08-1.3-.2-1.87,0l.22-.91c-.27-.33-.76.13-.79.8-.28-.32-.93.3-.97-.51-.29-.25-.51.31-.83.36-.58-.51-.82-.56-1.51-.61l.13.11c.14-.17.29-.54.16-.65-.33.17-.71-.56-.93.55-.19-.45-.61-.5-1.03-.59-.42-.09-.81-.26-.87-.8-.11.29-.29.25-.46.38-.57-.31-.7-1.24-1.42-1.12.02-.18.45-.31.27-.49-.19,0-.25.31-.51.33-.57-.12-.87-.59-1.09-1.08-.21-.51-.34-1.03-.7-1.32-1.5-.88-2.19-2.55-2.9-3.95l.21-.07c-1-.18.39-1.44-.97-1.42.16-.18-.03-.49.4-.52-.68-.26.23-1.24-.59-1.68-.01.06.04.08.14.13.41-.67-.39-1.1.03-1.79.1.06.18.17.4.16.41-.26-.97-.51.1-.7-.02-.13-.55-.08-.51,0,.34-1.36-.21-2.83-.14-4.36.88-.87,1.77.37,1.2-.6.22,0-.38-.16-.17-.11-.21-.39,1.27-.1.81-.46-.66-.13-.3-.25-.68-.38.62-.45,1.2-.32.92-.95l.3.17c-.65-.9.08-1.27-.66-2.24,1.43-2.95,3.44-5.79,6.45-7.51,1.54-.7,3.11-1.27,4.75-1.64,1.64-.34,3.36-.39,5.01.05.69,1,.7.99,1.6.76-.06.14-.12.16-.09.31.19-.74.59.06.82-.62,1.17.42,2.32.59,3.49,1.15-.22-.02-.56.5-.33.56l.43-.32-.06.2c.19-.03.52-.28.48-.57,1.62.46,2.93,1.6,3.9,2.89,1.01,1.28,1.73,2.69,2.62,3.95.14.77.84,1.55,1.32,2.23.01,2.63-.44,4.56.28,6.78,0,0-1.95-.31-2.44-1.05Z"/>
      <path class="cls-2" d="M56.65,165.57c-.38.06-.59.26-1.09.06.35,0,.75-.1,1.09-.06Z"/>
      <path class="cls-2" d="M51.68,169.67c.1.06-.16-.01-.22-.03,0-.06-.26-.25-.07-.2,0,.06.16.13.29.23Z"/>
      <path class="cls-2" d="M50.92,170.52c-.27-.2-.38-.54-.34-.67.12.22.23.44.34.67Z"/>
      <path class="cls-2" d="M49.25,170.49c-.27-.12-.37-.23-.3-.31.14.11.19.19.3.31Z"/>
      <path class="cls-2" d="M49.79,171.02c-.05.06-.23-.03-.4-.13.22.18-.01-.25.4.13Z"/>
      <path class="cls-2" d="M47.67,171.71s.06.33-.19.06c.19.18-.08-.47.19-.06Z"/>
      <path class="cls-2" d="M47.21,172.63s-.08-.05-.06.05c-.13-.1-.2-.34-.18-.39l.24.34Z"/>
      <polygon class="cls-2" points="32.46 167.4 32.64 167.47 32.32 167.53 32.46 167.4"/>
      <path class="cls-2" d="M33.88,159.21c-.11-.22.31.11.36.12-.03.1-.32-.27-.36-.12Z"/>
      <polygon class="cls-2" points="36.36 154.63 36.33 154.66 35.99 154.07 36.36 154.63"/>
    </g>
  </g>
  <g>
    <circle class="cls-1" cx="249.82" cy="100.98" r="13.34"/>
    <g>
      <path class="cls-2" d="M239.33,111.16c.34.14.31-.56.34-.03-.23.16-.42.26-.34.03Z"/>
      <path class="cls-2" d="M240.57,111.77c.97-.32,1.43-.04,1.85.39.46.36.9.87,1.65.56.15-.02-.47.88-.09.79.78-.38,1.43-.32,2.04.07.62.34,1.23,1,1.84,1.61l-.12.26c.25.23.67-.62.92-.49-.01.19-.11.26-.07.52.12-.55.52-.23.66-.65.1.22.07.67.21.92l.17-.63c.23-.74.46-.74.74-.63.27.1.6.31.84-.11-.01.15-.06.27,0,.41.82-1.03,1.9-1.05,2.73-1.71.04.23.13.63.27.85-.16-.65.06-.91.26-1.12.38.61.16-.76.57-.53l.04.15c-.11-.75.48.24.26-.61l.37.43c-.37-.9.52.28.44-.25l-.11-.17c.03-.29.35.08.41-.14l.07.09c.19-.4.66-.09.22-.71.45.42-.14.44.52,1.05.63-1.37,1.61-2.1,2.44-3.07.32.08.45.06.7.21-.04-.2.18-.49-.06-.8-.01.04.37.16.44.12.38-.04-.53-.67-.13-.7.12.2.31.36.56.48-.38-.52-.16-.71-.19-1.03.09.1.12.19.34.3-.44-.57.4-.38.12-.81l.35.28c.65-.14-.77-.52-.34-.69.09.13.26.18.41.27-.58-.63-.13-.97-.29-1.38.05.04.16.07.16.07,0-.35.4-.61.14-1.07.22-.08,1.02.33.96-.08-.86-.2-.2-.69-1.23-.7.23-.24.59-.68.33-.92.31.18,1.09-.01,1.13.26l.56-.14c.35.08-.15.2.31.2-.02-.15-.29-.6-.15-.71-.53-.31-1.52-.6-1.61-.97.33.19.98-.08,1.12.05-.55-.2-1.1-.38-1.68-.54-.05-.12.69-.04.46-.21-.23.02-.38-.05-.57-.1.1-.05-.24-.47.62-.6.34-.09.19.19.49.02-.02-.24-.33-.22-.37-.45l.11-.02c.1-.18-.43-.4-.88-.16-.01.1.51-.11.28.07-.52-.04-.69-.26-.73-.46.15.05.37,0,.62-.02-.71-.18-1.02-.41-1.35-.63-.4.1.75-.08.55.03.47-.57-1-.56-.32-1.14.09.03-.54.22-.43.18-.01-.19.55-.4.3-.44.32-.14-.15-.12-.31-.19-.26.04.14-.1.23,0-.38-.06-1.1-.46-.87-1.04-.2.12-.87.21-.89.13l.48-.25c.23-.24-.2-.24.19-.5-.67.17.88.39.3.41.35-.3-.93.12-.27-.22-.12-.16-.71.02-.4-.4-.04.09.72-.29.59-.4-.25-.17-.26.08-.54,0l-.26.02c-.43.31-.08-.23-.5.2.32-.29-.43-.14.27-.67l.56-.41c-.12-.06-.7.31-.99.45.04-.05.12-.17.21-.23-.81.68-.12-.27-.82.18.12-.44-.37-.45-.01-1-.36.11-.73.28-.73-.03.09-.05.16-.03.31-.2.1-.33-.1-.14-.3-.09.13-.11.18-.64.27-1.03-.35.13-.63.63-.86.9.46-.94-.78.24-.43-.64.13-.1.51-.28.52-.59.4-.97-.72.47-.7-.1l-.38.78c.16-.53-.57.24-.13-.52-.22.22-.15-.4-.51.36-.1-.83-1.07-.03-.82-1.52-.11.11-.22-.08-.33.34-.05.48.25-.27.18.05-.06,0-.15.22-.2.33-.06-.23-.15-.32.2-.94-.16-.6-.74,1.24-1,.85.11-.33.11-.47-.01-.44l-.35.53c-.2-.19.03-.81.16-1.39-.16.06-.33,0-.47.42l-.04-.76c.04.55-.18.33-.27.47l.09-.13c.01-.25-.18-.12-.27-.06-.03.37.11.54.18.65-.11.25-.21.17-.33.46.11-.57-.16-.44-.26-.52-.11-.15-.19.51-.22.48.02-.3-.19-.06-.06-.47.05-.09.07.3.16.03-.06-.23-.01-.75-.22-.37-.15.28-.04,1.14-.25.77.07-.14.09-.37.16-.58l-.22-.31-.03.53c-.03-.14,0-.18-.01-.25-.09.55-.35.15-.4.77-.11.06-.23-.35-.34-.41l.02-.05c-.14-.3-.32-.09-.4.27v-.12c-.08-.04-.24.05-.29.37-.21-.37-.27-1.97-.41-1.28-.2.05-.17,1-.04,1.33-.39-.32-.56.59-1.02-.12,0,.22.06.34,0,.48-.53-.11-.69.88-1.42.01.05-.25-.18-.49-.3-.77.06.47-.32-.4-.05.37.19.44.27.65.46.78-.15.35-.5.52-.85.18.17.17.18.32.19.47-.32-.69-.57-.7-.58-.38l.21.42-.32-.37c.02.16.43.88.08.57-.1-.15-.2-.3-.29-.4.05.42.22,1.04-.13.82l-.5-.47c-.02.11.12.51.34.59-.46-.16-.65-.09-1.1-.49.49,1.46.08,1.89-.36,2.26l-.25-.24c-.35-.1.41.46.15.37-.22-.25-.63-.38-.86-.73-.45-.06.27.61.32.82.35.3-.16-.27.27.11.12.12-.46.02.08.46-.25-.12-.64-.45-.84-.64l.19.31c-.77-.32-.92-1.18-1.83-1.62v.19c-.68-.3-.41-.83-.85-.65.16.35.9,1.03,1.24,1.1-.04.38,1.25,1.05,1.04,1.28-.39-.15.05-.26-.45-.53-.57-.19.1.43-.14.44.3,0,.82.49.89.63-.35-.04-.51-.43-.68-.27.32.24.49.55.81.55.75.51-.33.06.23.49-.6-.24-1.18-.89-1.58-.83.55.26.61.65,1.47.95-.19,0-.63-.21-.93-.44-.4-.04.88.77-.24.29l.55.3c-.19-.04-.38-.07-.71-.13-.07.11.63.66-.24.31.08.07-.05.31.6.44.42,0-.39-.35.46-.11-.7-.16.02.25.22.4l-.35-.11c.12.1,0,.19.37.34-.19-.1-.43-.16-.53-.15l.51.22c.2.27-.95-.25-.87,0l-.36-.28c.08.06-.46-.02-.31.14.47.18,1.05.41,1.42.55.19.16-.57-.09-.09.14l-.56-.3c-.16-.07-.83-.11-.86.07.14.15.82.46,1.13.37-.01.07-.34.12-.69-.02.12.21.54.09.81.3-.35,0-.84.1-1.35.16l-.81-.32-.03.13c-.65-.28-.53,0-1.22-.21-.13.08.1.23.27.35,1.17-.1,1.52.49,2.57.53.24.3-2.56-.03-.95.43.27-.04,1.06.16.77-.05-.12.18,1.05.18.6.37-.42-.18-1.07.15-1.68-.13.35.03.27-.13.17-.18-.4.06-1.05-.08-1.06.15.09.14.1.34.65.31.6,0-.05-.2.55-.1.19.25-.72.3.35.39-.09-.15.53-.19.94-.18.08.05.17.11.26.16l-.4-.03c-.27.27.73.06.64.3l-.78.16c-.68-.03.28-.39-.82-.31-.04.19.53.22.25.4-.1-.03-.13-.08-.23-.11-.03.06-1.49.24-.63.45.35.11.4,0,.81-.04.17.27.6.3.69.46-.8.09-.03.33-.87.26.45-.18.35-.56-.43-.59-.94.21.1-.25-.85-.24-.01.26-.95.35-1.55.45-.03.09.24.14.34.18.58-.04.56-.14,1.15-.21-.11.32.25.57.83.61-.27.14-.84.22-.91.11.21.33.26.7.16,1.09.86-.46.3.3,1.02-.06.16-.23.78-.53,1.21-.56-.04.11-.4.11-.59.2.52-.02-.75.43.08.31-.39-.18-1.12.28-1.85.45.48.11-.51.14-.42.38.48.11.88.28,1.11.47-.51.58.35.78.49,1.02-.25.31-1.05.61-1.08.84.12.18.71-.57.54-.12l-.16.06c.21-.02-.19.8.88.24l-.82.4c-.04.1.17.03.27.02-.25.16-.44.37-.65.39-.43.53.34.31.48.47l.35-.42c.56.04.27.56.64.73l-.41.33.39-.04c-.43.29-.54.66-.14.46-.45.14-.92.28-1.38.38.14-.33.61-.25.94-.67.29-.35,0-.53-.45-.27.03.14.13.08.34.04-.55.49-.65.31-1.1.51.07.04-.04.27.15.14-.37.1-.51,0-.67-.19.33-.03.31-.34.52-.41-.53.36-.84.28-.88-.08.51-.59-.7-.25-.72-.68.64-.19,1.18-.31,1.51-.27.17-.35-.13-.19.04-.54-.47.16-1.16.46-1.57.34l.42-.24c-.34-.12-.97.2-1-.18-.02-.32-.09-.62-.18-.89-.07-.28-.13-.54-.18-.76l.45-.17c-1.06.1-.63-.67-1.14-.88.15-.34-.03-.62-.16-.88-.12-.26-.17-.51.21-.72-.26-.47-.5-.94-.63-1.43-.15-.49-.2-1-.07-1.54l.69.21c-.51-.21.41-.1.31-.29-.57.18-.71-.29-1.13-.47.58-.43.09-1.09-.33-1.64l.48.07c-.8-.61.12-.99.39-1.46.2,0,.67.03.67-.13-.65-.51-.54-.64-.85-1.23.1-.32.51-.73.92-.9-.26-.79-.01-1.4.28-1.97.27-.59.7-1.07.83-1.82l.5.28c-.06-.85.41-1.45.95-1.89.56-.43,1.1-.81,1.37-1.37l.51.83c.44.04.46-.65,0-1.16.44.03.47-.9,1.09-.33.39-.03.14-.6.34-.87.8-.05,1.01-.19,1.55-.65l-.18.02c.02.23.18.6.36.59.11-.36.93-.11.28-1.09.47.19.82-.08,1.19-.32.37-.24.78-.4,1.23-.05-.13-.29.03-.39.06-.62.65-.19,1.42.4,1.86-.22.12.14-.1.55.16.55.14-.14-.04-.41.13-.61.5-.32,1.07-.2,1.59-.01.53.22,1.01.51,1.48.45,1.74-.45,3.48.27,5.02.77l-.1.21c.87-.6.77,1.34,1.75.33.02.25.39.34.09.68.69-.31.74,1.08,1.66.8-.03-.05-.09-.03-.2.01.2.79,1.09.53,1.28,1.33-.11.03-.25,0-.41.17-.11.49,1.09-.34.44.58.11.09.45-.34.37-.38.75,1.24,2.23,1.92,3.3,3.09-.01,1.28-1.57,1.03-.44,1.32-.15.16.4-.17.2-.04.44.13-.86,1.01-.25.93.57-.39.4-.04.78-.22-.13.78-.65,1.11.02,1.37l-.35.1c1.14.18.87.99,2.13,1.16,1.11,3.22,1.72,6.77.77,10.23-.62,1.64-1.35,3.21-2.28,4.69-.96,1.45-2.18,2.75-3.71,3.64-1.24-.23-1.24-.22-1.73.62-.06-.15-.03-.21-.16-.29.4.68-.47.39-.15,1.06-1.17.55-2.14,1.27-3.4,1.71.17-.15.04-.78-.16-.65l-.08.55-.11-.19c-.12.16-.18.59.07.77-1.52.85-3.32.97-4.98.74-1.68-.2-3.24-.7-4.82-.97-.67-.47-1.76-.52-2.61-.67-1.94-1.92-3.02-3.67-5.18-4.76,0,0,1.65-1.21,2.56-1.02Z"/>
      <path class="cls-2" d="M239,110.91c.24-.32.25-.63.75-.84-.26.26-.48.62-.75.84Z"/>
      <path class="cls-2" d="M239.65,104.26c-.11.03.13-.11.19-.14.05.04.38,0,.2.09-.05-.04-.22.02-.38.05Z"/>
      <path class="cls-2" d="M239.57,103.08c.35-.05.67.12.74.24-.24-.07-.49-.15-.74-.24Z"/>
      <path class="cls-2" d="M240.83,101.88c.28-.11.44-.1.45,0-.18.03-.28,0-.45,0Z"/>
      <path class="cls-2" d="M240.04,101.88c-.01-.08.19-.14.39-.2-.3.03.19.17-.39.2Z"/>
      <path class="cls-2" d="M241.09,99.83s-.29-.2.1-.18c-.27.01.4.28-.1.18Z"/>
      <path class="cls-2" d="M240.75,98.81s.09-.02,0-.08c.17-.02.4.1.42.15l-.43-.07Z"/>
      <polygon class="cls-2" points="255.41 91.83 255.22 91.92 255.41 91.63 255.41 91.83"/>
      <path class="cls-2" d="M260.36,98.88c.24.08-.31.14-.35.17-.05-.1.43-.04.35-.17Z"/>
      <polygon class="cls-2" points="261.9 104.05 261.9 104.01 262.59 104.19 261.9 104.05"/>
    </g>
  </g>
  <g>
    <path class="cls-1" d="M249.82,193.83c7.37,0,13.34,5.97,13.34,13.34s-5.97,13.34-13.34,13.34c-7.37,0-13.34-5.97-13.34-13.34,0-7.37,5.97-13.34,13.34-13.34Z"/>
    <g>
      <path class="cls-2" d="M250.04,192.56c-.33.14.17.62-.22.26.04-.28.11-.49.22-.26Z"/>
      <path class="cls-2" d="M248.73,192.99c-.45.91-.98,1.04-1.59,1.03-.58.07-1.25.02-1.57.77-.09.12-.29-.95-.49-.62-.28.83-.78,1.23-1.49,1.39-.68.2-1.57.16-2.44.17l-.1-.27c-.34,0-.03.91-.31.99-.12-.14-.1-.26-.32-.41.31.47-.2.53,0,.92-.23-.09-.52-.42-.8-.5l.32.57c.36.68.2.85-.08.97-.27.12-.64.2-.51.67-.1-.11-.15-.23-.29-.29.15,1.3-.6,2.09-.72,3.14-.19-.13-.54-.35-.79-.41.58.35.6.69.61.97-.7-.17.42.65-.03.78l-.14-.08c.61.45-.51.17.25.62l-.57-.04c.9.37-.56.17-.14.49l.2.05c.19.22-.31.19-.19.39h-.11c.15.4-.4.52.34.65-.62.02-.22-.41-1.12-.38.53,1.42.34,2.62.45,3.9-.28.17-.36.28-.64.34.17.11.21.47.61.52-.02-.04-.37.15-.4.22-.24.29.85.1.58.41-.22-.05-.47-.04-.74.05.63.09.62.39.86.59-.13,0-.22-.05-.45.03.72.09-.02.55.49.66l-.45.05c-.36.56.91-.18.73.24-.16-.03-.31.06-.48.1.86.03.78.6,1.18.77-.06,0-.17.06-.17.06.25.26.15.72.66.86-.1.21-.95.49-.62.74.75-.46.63.35,1.36-.38,0,.34.06.9.41.88-.35.09-.76.78-.98.61l-.3.49c-.3.19-.03-.25-.36.08.12.1.63.21.61.39.59-.15,1.5-.65,1.82-.46-.37.1-.63.75-.83.76.53-.25,1.05-.51,1.57-.81.12.05-.46.52-.17.47.15-.18.31-.23.47-.33-.03.11.5.16-.01.86-.18.3-.27,0-.36.33.18.16.39-.08.58.05l-.07.09c.05.2.59-.02.74-.51-.06-.08-.28.44-.25.15.39-.34.67-.31.84-.18-.14.07-.26.27-.43.45.63-.38,1.01-.43,1.4-.51.21-.35-.48.59-.41.37.07.73,1.1-.31,1.03.58-.08.04.22-.54.18-.44.15.13-.11.67.1.52-.13.33.19-.02.35-.09.16-.21-.03.17-.15.17.31-.22,1.11-.46,1.35.12.06-.22.46-.76.54-.72l-.17.52c0,.34.31.03.22.49.35-.59-.9.35-.51-.08-.04.46.58-.74.35-.04.2.03.49-.51.57,0-.03-.09-.3.71-.13.7.3-.05.13-.24.38-.39l.17-.2c.08-.52.23.11.21-.49-.02.44.4-.2.28.66l-.11.68c.13-.04.27-.71.38-1.01,0,.07.03.2.02.32.09-1.05.27.1.45-.71.22.39.58.05.71.7.18-.33.32-.72.54-.5-.03.1-.09.13-.08.36.16.3.17.02.28-.15-.01.17.33.58.54.92.15-.34,0-.89-.03-1.24.34.99.38-.72.76.15-.03.16-.16.56.05.79.4.97.18-.84.56-.42l-.29-.82c.26.49.23-.57.46.28,0-.31.39.17.1-.62.65.52.78-.73,1.65.5,0-.16.21-.1-.01-.47-.3-.38.01.37-.16.1.04-.05-.05-.26-.09-.37.2.12.34.12.53.81.54.31-.35-1.4.11-1.31.16.31.25.41.32.3l-.13-.62c.28,0,.55.6.87,1.09.07-.16.24-.23.03-.63l.57.5c-.41-.36-.11-.36-.14-.52l.03.16c.17.19.21-.04.23-.15-.24-.28-.46-.3-.59-.33-.1-.25.02-.27-.09-.56.33.48.43.2.55.18.18.02-.23-.49-.19-.5.2.23.18-.09.38.29.03.1-.26-.16-.14.09.2.12.54.52.42.11-.09-.3-.78-.84-.36-.72.05.15.2.33.3.52l.37.07-.35-.39c.11.08.13.13.19.17-.33-.45.14-.36-.26-.83.03-.12.41.09.53.05l.02.05c.31.12.29-.16.09-.47l.08.08c.08-.03.13-.2-.05-.47.41.11,1.59,1.2,1.19.62.11-.18-.59-.83-.91-.97.5-.05-.02-.81.81-.64-.16-.15-.29-.2-.35-.34.46-.29-.13-1.11.99-1.01.14.21.48.22.76.33-.38-.29.51.05-.22-.3-.45-.17-.65-.27-.88-.22-.14-.36-.01-.72.47-.73-.24,0-.35-.1-.47-.2.72.26.9.09.68-.14l-.44-.15.48.03c-.13-.1-.92-.32-.46-.34.18.04.35.07.49.08-.33-.26-.89-.58-.49-.67l.69-.02c-.06-.09-.45-.27-.66-.18.44-.21.53-.4,1.12-.43-1.38-.69-1.39-1.29-1.34-1.85h.35c.32-.18-.61-.04-.37-.16.33.02.71-.18,1.12-.09.36-.27-.62-.24-.8-.36-.46.03.31.08-.27.12-.17,0,.31-.34-.38-.27.26-.09.77-.13,1.05-.14l-.35-.08c.77-.32,1.48.18,2.44-.14l-.13-.14c.69-.27.87.3,1.05-.14-.36-.13-1.37-.09-1.65.1-.24-.29-1.63.14-1.64-.17.38-.17.15.22.69.06.53-.27-.38-.24-.21-.41-.22.2-.93.24-1.07.19.28-.22.66-.06.67-.29-.4.06-.73-.04-.96.19-.89.17.19-.27-.51-.18.59-.26,1.46-.2,1.71-.53-.57.21-.89-.03-1.71.36.14-.13.59-.3.97-.35.31-.25-1.16.08-.04-.38l-.6.18c.16-.11.32-.22.59-.41-.03-.13-.91-.02-.05-.39-.11,0-.19-.26-.74.11-.29.3.52-.03-.25.4.61-.38-.19-.16-.44-.13l.32-.17c-.15.01-.13-.13-.5.02.2-.06.42-.19.48-.26l-.52.2c-.33-.06.85-.5.61-.61l.45-.05c-.1.01.34-.31.12-.32-.46.2-1.03.46-1.4.62-.25.02.47-.33-.04-.16l.61-.18c.16-.06.67-.51.57-.66-.21,0-.91.26-1.06.54-.04-.06.16-.33.5-.47-.24-.06-.45.32-.78.36.25-.24.52-.67.84-1.06l.8-.35-.07-.11c.66-.26.37-.38,1.01-.72.03-.14-.24-.09-.44-.05-.76.9-1.42.72-2.19,1.44-.38-.05,1.84-1.79.36-.98-.17.22-.87.64-.51.58-.04-.22-.87.61-.68.16.43-.17.65-.86,1.28-1.1-.27.22-.1.28,0,.25.24-.33.8-.69.64-.86-.17-.04-.31-.16-.68.24-.43.42.18.1-.31.46-.31-.04.29-.72-.53-.03.18.04-.24.51-.53.8-.09.02-.2.05-.29.07l.3-.26c0-.38-.56.47-.66.24l.44-.66c.5-.46.07.47.8-.36-.11-.16-.53.22-.46-.11.09-.05.15-.03.24-.08-.02-.07.89-1.22.12-.76-.32.17-.28.28-.54.6-.31-.07-.63.21-.81.16.51-.63-.21-.26.43-.81-.19.45.15.64.72.11.52-.81.1.25.78-.43-.18-.2.43-.91.78-1.42-.04-.08-.27.07-.37.12-.39.44-.3.49-.67.96-.14-.3-.58-.22-1.02.15.09-.29.44-.75.57-.73-.38-.08-.68-.31-.88-.65-.28.93-.43,0-.68.77.05.27-.18.93-.46,1.26-.05-.1.21-.36.27-.56-.35.39.22-.83-.27-.16.4-.15.6-.99.99-1.63-.42.26.26-.46.03-.57-.42.26-.82.42-1.12.46-.05-.77-.79-.3-1.06-.37-.04-.4.31-1.17.17-1.36-.21-.04-.1.91-.3.46l.07-.15c-.13.17-.44-.7-.79.45l.29-.86c-.04-.09-.14.09-.21.18.06-.29.05-.57.19-.73-.07-.68-.45.02-.67,0l.05.55c-.43.36-.59-.21-.96-.06l.06-.52-.24.3c.1-.5-.09-.84-.23-.42.22-.42.45-.84.71-1.25.14.33-.25.61-.19,1.14.04.46.38.37.51-.12-.13-.08-.15.04-.27.21.04-.73.24-.67.42-1.14-.08.02-.16-.22-.2,0,.19-.33.35-.37.61-.34-.21.26.02.46-.08.66.12-.63.4-.79.68-.56.05.78.67-.32.99-.03-.32.59-.62,1.05-.88,1.26.12.37.23.04.35.41.22-.45.49-1.15.87-1.35l-.13.46c.32-.16.54-.83.84-.58.24.21.51.37.76.51.24.15.47.29.67.41l-.19.44c.68-.82.92.02,1.43-.19.13.35.46.42.74.51.27.1.48.24.36.66.52.15,1.02.31,1.45.57.45.24.85.56,1.14,1.04l-.64.34c.51-.21-.22.36-.02.42.28-.53.71-.3,1.13-.47-.1.71.71.84,1.39.93l-.39.29c1-.13.62.78.76,1.31-.14.15-.5.45-.38.57.82-.1.84.07,1.47.27.16.29.15.88-.02,1.29.74.38,1,.98,1.2,1.59.23.61.26,1.26.7,1.88l-.55.16c.64.56.73,1.31.67,2-.09.7-.2,1.35,0,1.94l-.94-.23c-.34.28.14.78.83.82-.33.29.31.97-.53,1-.26.3.33.53.37.86-.53.6-.58.85-.64,1.56l.12-.14c-.17-.15-.56-.3-.67-.17.18.34-.58.73.57.97-.46.2-.52.63-.62,1.07-.09.43-.27.84-.83.91.3.11.26.3.4.48-.32.59-1.28.72-1.16,1.47-.19-.02-.32-.46-.5-.28,0,.2.32.26.34.53-.13.59-.62.9-1.12,1.13-.52.22-1.07.35-1.37.73-.91,1.55-2.65,2.27-4.1,3.01l-.07-.22c-.19,1.04-1.49-.41-1.47,1-.19-.16-.51.03-.54-.42-.27.7-1.28-.24-1.74.61.06.01.09-.04.13-.15-.7-.42-1.15.4-1.85-.04.06-.1.17-.18.17-.41-.27-.43-.53,1.01-.72-.1-.14.02-.08.57,0,.53-1.41-.35-2.93.22-4.52.15-.9-.92.39-1.84-.62-1.24,0-.22-.16.4-.11.17-.41.22-.11-1.32-.48-.84-.13.68-.26.32-.4.71-.46-.65-.33-1.24-.99-.95l.18-.32c-.93.68-1.32-.08-2.33.68-3.06-1.49-6-3.57-7.78-6.69-.72-1.6-1.32-3.23-1.71-4.93-.35-1.7-.4-3.49.05-5.2,1.04-.71,1.03-.72.78-1.66.15.06.17.12.32.09-.77-.2.06-.61-.64-.85.44-1.21.61-2.41,1.19-3.61-.02.23.52.58.58.34l-.34-.45.21.06c-.03-.2-.29-.54-.59-.5.47-1.68,1.66-3.03,3-4.05,1.33-1.05,2.79-1.8,4.09-2.72.8-.14,1.61-.87,2.32-1.37,2.73-.01,4.73.46,7.03-.29,0,0-.32,2.02-1.09,2.53Z"/>
      <path class="cls-2" d="M250.45,192.5c.06.39.27.62.06,1.13,0-.37-.1-.78-.06-1.13Z"/>
      <path class="cls-2" d="M254.69,197.65c.06-.1-.01.17-.03.23-.06,0-.26.27-.21.07.06,0,.14-.17.24-.3Z"/>
      <path class="cls-2" d="M255.58,198.44c-.21.28-.56.39-.69.36.22-.12.46-.24.69-.36Z"/>
      <path class="cls-2" d="M255.54,200.18c-.12.28-.24.38-.32.32.11-.15.2-.2.32-.32Z"/>
      <path class="cls-2" d="M256.1,199.61c.07.05-.03.24-.14.41.19-.23-.26.02.14-.41Z"/>
      <path class="cls-2" d="M256.81,201.81s.34-.07.06.2c.18-.2-.49.08-.06-.2Z"/>
      <path class="cls-2" d="M257.77,202.29s-.05.08.05.06c-.11.13-.35.21-.41.19l.36-.25Z"/>
      <polygon class="cls-2" points="252.34 217.59 252.41 217.39 252.48 217.73 252.34 217.59"/>
      <path class="cls-2" d="M243.85,216.11c-.22.12.11-.32.13-.37.11.03-.27.33-.13.37Z"/>
      <polygon class="cls-2" points="239.1 213.54 239.13 213.57 238.52 213.92 239.1 213.54"/>
    </g>
  </g>
</svg>