<?xml version="1.0" encoding="UTF-8"?>
<svg id="Layer_4" data-name="Layer 4" xmlns="http://www.w3.org/2000/svg" viewBox="0 0 300 300">
  <defs>
    <style>
      .cls-1 {
        fill: #faaf3a;
      }

      .cls-2 {
        fill: #202020;
      }

      .cls-3 {
        fill: #0d783d;
      }
    </style>
  </defs>
  <path class="cls-3" d="M217.13,82.89c-1.97-6.74-7.5-11.38-13.95-13.88-4.6-1.78-12.87-.9-16.23,3.39-.13-.04-.26-.09-.39-.12,1.91-3.17,2.37-7.22,1.38-10.81,1.87-1.65,3.6-3.47,4.34-5.93.34-1.12.3-2.49.44-3.6,1.62-.03,3.16-.14,4.43-.56,2.83-.94,3.93-4.29,1.44-6.37-2.47-2.06-7.69-1.61-9.91.6-.18.18-.34.36-.49.56-1.7,0-3.39.08-5,.56-2.67.8-6.06,2.88-7.54,5.32-.15.25-.28.52-.39.79-6.82.52-10.44,5.74-10.89,11.28-.45-.23-.92-.43-1.42-.61-2.92-4-6.63-7.56-11.6-7.94-.44-.03-.82.02-1.15.14-2.07-.64-4.33-.88-6.81-.57-2.41.29-4.91.93-7.36,1.73-1.18-.1-2.38-.05-3.71.16-1.43.22-2.54,1.21-3.23,2.46-.26.11-.53.22-.78.33-4.18,1.77-5.7,4.8-5.1,9.26.5,3.77,6.51,3.82,6,0-.17-1.25.14-2.16.73-2.86,1.35,1.27,3.33,1.72,5.31,1.41.65-.1,3.68,1.52,4.9,1.78,1.11.24,2.22.31,3.35.33.62,0,.93.06,1.08.07.16,1.57.93,2.71,2.01,3.43-.34,2.44-.06,4.98.85,7.25.1.72.19,1.45.29,2.17.12.44.28.86.45,1.28-4.25,2.36-3.37,10.35,2.67,10.35,2.5,0,4.12-1.38,4.85-3.16,1.3.45,2.66.71,4.08.71h.51s.09,0,.14,0c.06.04.12.09.19.14.81.74,1.72,1.31,2.72,1.72.36.27.73.53,1.12.76.34.26.68.51,1.02.77,1.43.91,2.98,1.41,4.65,1.48,1.66.37,3.32.3,4.98-.22.69-.16,1.34-.41,1.95-.7.39.15.77.29,1.12.42.33.13.67.23,1.01.32.24.25.54.49.96.69.75.36,1.61.46,2.43.31.44.22.91.41,1.4.57.7,1.18,1.79,1.77,3,1.86.11.27.23.54.34.81,1.3,3.08,5.35,1.17,5.42-1.68.07-.39.07-.79,0-1.17,5.06-1.93,7.54-7,7.41-12.02.45.33,1.03.54,1.74.54,1.92,0,2.88-1.48,2.9-2.97,2.88.06,5.81.54,7.31,2.38,1.95,2.39,5.81-.19,5.01-2.92Z"/>
  <g>
    <g>
      <path class="cls-1" d="M140.59,101.36s11.79-2.15,26.15,1.25c18.84,4.46,24.54,11.1,24.54,11.1,0,0,2.36-7.93,1.15-10.05-2.83-4.96-12.57-7.39-17.95-9.36-6.48-2.37-25.39-5.91-30.87-1.73-1.76,1.34-3.03,8.79-3.03,8.79Z"/>
      <g>
        <path class="cls-2" d="M140.7,100.11c-.46.22.36.52-.28.3.02-.27.09-.49.28-.3Z"/>
        <path class="cls-2" d="M141.71,100.03c-.68-.89-.48-1.74-.18-2.56.31-.83.71-1.61.49-2.56,0-.2.86.38.79-.09-.15-.44-.17-.9-.02-1.36.13-.46.44-.9.9-1.14,1.06-.58,2.35-.49,3.39-.17l-.04.28c.35.1.6-.82.99-.78.03.17-.07.27.05.49,0-.54.62-.34.73-.75.17.18.21.6.42.81l.15-.62c.47-1.49,1.46-.02,2.25-.78-.04.14-.11.25-.05.39,1.32-.91,3.03-.71,4.56-.92-.07.21-.16.59-.08.83.12-.63.59-.76,1.01-.84.13.66.75-.54,1.2-.13l-.05.14c.42-.64.48.44.85-.34l.17.53c.26-.89.45.53.8.1v-.19c.32-.19.4.29.67.17v.11c.64-.17.91.4.99-.31.13.6-.61.18-.4,1.05,2.04-.46,4.02.03,5.95.43.16.33.28.44.27.72.22-.1.75.03,1-.29-.07,0,.04.38.14.44.29.34.56-.68.87-.27-.2.15-.3.36-.31.63.45-.47.87-.27,1.3-.35-.09.1-.2.15-.24.37.58-.51.73.33,1.2.04l-.25.36c.45.64.4-.79.84-.36-.16.09-.16.26-.23.41.68-.59,1.39-.12,1.94-.21-.05.05-.07.15-.07.15.55.08,1.01.5,1.67.38.14.24-.4.93.18.97.25-.79,1.02-.01,1.01-1.01.41.28,1.04.82,1.43.66-.31.23-.1,1.04-.5.98l.13.57c-.15.31-.26-.21-.3.23.2.03.86-.09.99.09.52-.36,1.14-1.15,1.75-1.05-.38.21-.14.92-.37.99l1.32-1.22c.21.03-.18.63.17.53.06-.21.22-.3.37-.43.04.11.87.09.67.89-.03.33-.37.05-.26.4.35.12.47-.13.82,0l-.03.1c.19.2.81-.06.72-.58-.15-.09-.12.48-.27.17.34-.38.8-.34,1.16-.2-.17.07-.24.28-.37.47.71-.4,1.3-.39,1.95-.38.16-.35-.49.56-.48.33.45.78,1.74-.05,1.96.94-.12.02.2-.52.16-.42.31.21.03.69.34.62-.13.3.31.05.58.09.23-.15-.02.17-.23.1.43-.11,1.94.2,2.36,1.09.11-.19.9-.33,1.05-.19l-.37.36c-.04.35.56.36.3.73.72-.25-1.59-.55-.85-.59-.15.42,1.12-.18.6.3.32.21.99.07.97.68-.03-.14-.72.31-.46.49.47.31.29-.09.74.13l.36.08c.38-.32.31.45.58-.09-.26.31.8.54.09,1.01l-.57.32c.18.17.79-.06,1.16-.03-.03.06-.1.19-.2.24.43-.25.51-.1.58.1.03.07.08.25.18.41.09.15.23.28.46.35.03.3.02.51.03.72.01.22.05.43.05.64,0,.39-.07.73-.37.88.29.48.65,1.03.38,1.58-.08-.14-.09-.3-.3-.37-.32.3-.07.42.05.8-.13-.1-.64.53-1.03.71.22.56.74.68,1.04.87-.49,0-.41.38-.32.85.09.45.16.97-.29.93-.08-.27-.28-.99-.58-.79-.47-.14-.35.16-.18.57.17.41.35.94.08,1.06l.71.54c-.42-.12-.03,1.06-.33.85-.06-.04-.12-.12-.21-.23.07.38-.67.15-.11.82-.58-.06-.87.34-1.18.6-.3.27-.59.41-.87.22-.03.14-.19.27-.09.41.19.1.08-.32.17-.21-.05.08-.02.19,0,.25-.17.14-.3-.13-.28-.3-.27-.31-.26-.07-.32.11-.04.1-.12.19-.35.06-.05-.21-.11-.31-.26-.33l-.21.34c-.43-.17-.37-.66-.5-1.11-.17-.01-.46-.13-.51.23-.14-.24-.27-.5-.39-.76.28.57-.15.27-.24.38l.1-.11c-.07-.26-.32-.2-.49-.15.07.39.41.6.56.73-.09.23-.3.13-.5.45.03-.6-.51-.49-.74-.58-.02,0-.03-.02-.04-.02-.24-.23-.31.38-.4.29.02-.35-.48-.42-.2-.71.1-.04.2.5.38.33-.18-.4-.09-.97-.5-.8-.33.11-.09,1.26-.61.48.18-.04.25-.26.4-.4l-.44-.64-.14.51c-.04-.18.02-.19,0-.28-.29.44-.84-.36-1.18.11-.3-.13-.47-.68-.69-.87.02,0,.03-.02.06-.02-.07-.38-.43-.35-.76-.15l.06-.09c-.09-.1-.39-.17-.67.02-.11-.48.78-1.71.17-1.32-.3-.14-.87.58-.9.92-.37-.57-1.31-.12-1.48-1.04-.16.15-.17.28-.37.32-.69-.55-1.89-.18-2.15-1.35.31-.1.2-.45.31-.72-.36.33-.06-.53-.41.15-.15.43-.25.62-.09.88-.56.02-1.29-.25-1.41-.74.06.25-.09.33-.24.42.29-.66-.03-.89-.39-.76l-.19.4-.02-.49c-.15.09-.43.82-.55.32.04-.16.08-.33.08-.47-.4.23-1,.68-1.18.22l-.05-.69c-.16.02-.5.31-.32.56-.4-.54-.73-.7-.73-1.28-1.32.97-2.65.67-3.69.26l.12-.31c-.21-.38-.3.51-.44.24.18-.28-.04-.71.28-1.02-.33-.44-.69.41-.99.49-.15.4.29-.21.1.3-.08.14-.49-.47-.72.14-.04-.27.16-.72.28-.96l-.33.24c-.13-.82,1.05-1.13.96-2.12l-.27.04c-.06-.72.83-.58.28-.96-.34.24-.8,1.1-.64,1.44-.58.04-.63,1.44-1.19,1.24-.07-.41.48.03.5-.52-.15-.58-.61.15-.81-.09.21.31-.17.89-.37.96-.22-.37.33-.55-.06-.72-.16.35-.59.54-.33.87-.34.8-.37-.32-.73.28,0-.61.73-1.26.34-1.65-.06.58-.72.65-.67,1.53-.14-.2-.06-.65.14-.97-.18-.4-.82.9-.67-.24l-.2.56c-.04-.2-.12-.37-.19-.71-.22-.07-.87.65-.68-.22-.09.08-.59-.05-.51.59.25.42.45-.38.47.47-.1-.71-.47,0-.69.2l.03-.34c-.13.11-.37,0-.5.35.12-.18.11-.42.04-.52l-.2.5c-.48.18.05-.93-.4-.85l.39-.34c-.09.07-.15-.43-.39-.31-.16.46-.4,1-.52,1.35-.27.17-.03-.55-.34-.1l.4-.53c.07-.15-.09-.81-.42-.84-.24.13-.65.77-.36,1.08-.16-.02-.35-.33-.17-.66-.39.11-.02.52-.38.77-.09-.33-.43-.84-.62-1.33l.44-.75-.22-.04c.37-.6-.09-.51.16-1.15-.14-.13-.36.07-.53.23.32,1.12-.68,1.41-.66,2.41-.63.2-.12-2.43-.93-.96.08.27-.3.98.12.74-.37-.15-.35.96-.76.5.37-.37-.26-1.03.27-1.57-.06.32.24.28.33.19-.12-.39.13-.98-.27-1.03-.25.07-.58.05-.58.57-.04.56.37-.03.17.53-.49.16-.5-.7-.78.28.31-.05.33.53.29.92l-.36.21.1-.37c-.53-.31-.22.67-.74.53l-.2-.76c.17-.63.76.34.74-.7-.35-.07-.5.45-.82.16.08-.08.18-.1.26-.19-.12-.04-.16-1.43-.72-.66-.28.3-.09.37-.12.75-.57.09-.76.48-1.12.53.11-.76-.64-.1-.21-.86.17.45.98.44,1.23-.27-.16-.91.44.15.62-.75-.46-.06-.39-.94-.43-1.52-.13-.05-.27.19-.35.28-.08.54.09.54.07,1.1-.51-.17-1.02.11-1.32.63-.16-.28-.09-.82.12-.86-.62.13-1.28.06-1.86-.12.37.9-.65.2-.4.94.31.2.57.84.39,1.24-.19-.06.01-.39-.07-.58-.25.48-.38-.79-.62-.02.55-.28.11-1.09.22-1.78-.41.39.02-.5-.39-.5-.41.39-.9.7-1.35.86-.58-.66-1.43.03-1.93.08-.28-.34-.14-1.14-.44-1.26-.34.04.3.84-.22.5l.04-.16c-.14.19-.96-.48-1.03.66l.09-.87c-.1-.07-.17.13-.24.23-.02-.28-.15-.52-.01-.72-.36-.56-.65.15-.99.2l.26.49c-.54.44-.97-.01-1.51.22l-.04-.5-.3.33c.02-.49-.32-.76-.45-.34l.73-1.31c.28.26-.2.62,0,1.09.18.41.68.22.71-.26-.21-.03-.2.08-.34.27-.14-.68.17-.68.27-1.16-.1.04-.28-.15-.28.06.17-.36.38-.43.73-.48-.21.29.17.41.1.62-.03-.61.29-.82.74-.69.36.67.78-.51,1.3-.34-.17.63-.39,1.13-.68,1.4.33.29.34-.04.67.25.12-.47.19-1.17.59-1.48l.04.45c.36-.25.33-.92.81-.81.82.19,1.66.18,2.28.23l.03.45c.34-.98,1.15-.36,1.62-.78.78.44,1.74-.39,2.11.41,1.41-.3,2.66-.54,4.1-.24l-.3.63c.3-.46.13.39.39.33-.24-.56.42-.64.64-1.03.59.57,1.47.11,2.11-.26l-.04.45c.69-.76,1.29.06,1.98.32.05.2.11.64.33.63.51-.65.7-.57,1.36-.92.42.07,1.06.38,1.42.76,1.79-.69,3.21.35,4.96.16l-.02.54c1.84-.68,3.46.85,4.94.74l-.41.83c.32.4,1,.08,1.1-.57.32.4,1.17-.08,1.19.72.36.31.65-.21,1.04-.19.72.64,1.05.67,1.9.82l-.17-.13c-.16.16-.31.51-.14.64.38-.11.97.67,1.09-.46.59.91,2.16.35,2.62,1.5.06-.3.28-.26.46-.4.74.31,1.22,1.26,2.03,1.1.05.19-.41.35-.14.53.23-.01.18-.34.48-.38,1.81.35,1.13,1.28,1.6,1.4l.09-.05c.29-.17.45-.03.68.2l.08.08s.05.07.05,0c.02-.07.03-.14.04-.23l.16.34c-.29-.71-.12-.44.03-.32.15.13.27.12-.25-.64.1.11.12.1.18.14.05.03.12.1.29.31-.24-.37-.11-.3.02-.31.13,0,.25-.09-.09-.41-.02,0,.02.04.1.12.24.05.22-.1.18-.23-.03-.13-.08-.23.14-.31.09.04.16.11.37.17.21-.01,0-.15-.16-.22-.15-.08-.22-.12.31-.12,0-.08-.53-.07-.5-.04.09-.12.13-.33.09-.4v-.02s-.04,0,.11-.05l.16-.05.11-.02.22-.05c.29-.07.57-.19.83-.36l.1-.07h0c1.31-.75-1.78,1.02-1.46.83h0s0,0,0,0h0s0-.01,0-.01l-.04-.03-.07-.06-.15-.13c-.38-.34-.99-.59-1.52-.9-.37-1.07,1.04-1.43-.07-1.29.06-.21-.27.3-.15.12-.4.06.22-1.26-.27-.93-.27.6-.32.22-.54.55-.32-.71-.21-1.28-.92-1.12l.2-.28c-1.02.55-1.46-.25-2.44.53-3.37-1.31-7.04-1.72-10.93-2.97-1.44-.63-3.21-1.02-4.93-1.4-1.74-.38-3.5-.75-5.26-1.34-.71-1.02-.79-1.01-1.78-.78.06-.14.12-.16.08-.31-.15.71-.67-.03-.85.66-1.33-.31-2.58-.25-3.95-.34.22-.06.38-.65.11-.62l-.3.45-.03-.21c-.18.1-.4.45-.23.69-1.71.21-3.34-.04-4.9-.2-.79-.09-1.54-.15-2.25-.13-.71.01-1.35.14-1.77.36-.16-.11-.24-.07-.29.03-.04.1-.01.23.03.33-.14,0-.21-.11-.44.12-.19.2-.39.38-.58.63-.37.45-.7.99-.97,1.54-.54,1.1-.85,2.39-.73,3.7,0,0-.46-.14-.93-.46-.48-.32-.98-.79-1.08-1.4Z"/>
        <path class="cls-2" d="M141.26,99.96c.15.35.5.5.31,1.02-.08-.34-.3-.69-.31-1.02Z"/>
        <path class="cls-2" d="M150.01,103.17c.01-.11.12.15.14.21-.1.03-.2.34-.28.15.1-.03.09-.2.13-.36Z"/>
        <path class="cls-2" d="M152.13,103.42c-.04.32-.5.58-.76.61l.76-.61Z"/>
        <path class="cls-2" d="M154.03,104.85c.15.29.1.43-.13.41,0-.17.07-.26.13-.41Z"/>
        <path class="cls-2" d="M154.21,104.12c.16,0,.23.2.3.39.01-.28-.38.15-.3-.39Z"/>
        <path class="cls-2" d="M158.33,105.43c.1-.02.35-.26.4.12-.07-.27-.53.35-.4-.12Z"/>
        <path class="cls-2" d="M160.33,105.21c.06.03.08.09.16.01.09.16-.06.38-.17.4v-.41Z"/>
        <polygon class="cls-2" points="194.41 111.35 194.47 111.79 194.21 111.48 194.41 111.35"/>
        <path class="cls-2" d="M184.79,95.38c-.29.1-.04-.34-.05-.4.21.05-.22.34.05.4Z"/>
        <polygon class="cls-2" points="175.76 93.89 175.82 93.91 175.58 94.53 175.76 93.89"/>
      </g>
    </g>
    <g>
      <path class="cls-2" d="M191.31,103.17c.07.4.6-.08.2.3-.25-.11-.43-.22-.2-.3Z"/>
      <path class="cls-2" d="M188.96,69.64c.08-1.02.71-1.34,1.37-1.55.66-.23,1.37-.33,1.78-1.07.12-.12.29.89.53.57.71-1.71,3-1.45,4.56-.66l-.05.27c.29.16.51-.75.83-.66.02.17-.07.26.03.49.02-.53.5-.3.59-.71.13.19.15.61.31.84l.13-.6c.42-1.43,1.15.05,1.8-.66-.04.14-.1.24-.06.38.53-.39,1.16-.52,1.79-.58.63-.01,1.27.09,1.91.04-.1.2-.23.57-.21.81.2-.61.61-.7.96-.7-.04.67.71-.4.98.07l-.08.13c.5-.55.27.5.78-.19v.54c.46-.83.2.6.59.27l.07-.18c.29-.11.22.36.47.31l-.03.11c.55-.01.57.57.89-.08-.11.58-.54.03-.67.89.88-.04,1.62.31,2.33.69.73.36,1.34.89,1.97,1.38-.04.33-.01.47-.16.71.21,0,.52.29.87.12-.05-.03-.17.34-.13.42.02.39.78-.37.78.09-.22.04-.41.18-.57.4.57-.21.76.12,1.11.22-.12.05-.23.04-.38.2.7-.18.34.54.83.51l-.38.18c-.08.7.75-.45.79.07-.17,0-.27.13-.41.23.84-.18,1.05.49,1.47.68-.06.01-.15.08-.15.08.34.3.39.81.91,1.06-.07.24-.9.47-.54.77.73-.43.66.52,1.37-.16.06.44.08,1.12.42,1.27-.36-.04-.86.58-1.05.31l-.37.42c-.33.1.02-.27-.35-.03.09.12.56.41.49.59.59.07,1.55.03,1.82.49-.38-.12-.83.4-1.02.29.58.05,1.15.12,1.72.22.08.16-.62.2-.35.39.21-.07.37,0,.56.04-.07.08.37.66-.42.9-.3.13-.22-.23-.47,0,.06.3.34.24.41.57l-.11.02c-.07.21.44.63.86.34,0-.17-.48.1-.28-.16.5.12.67.59.72.99-.15-.14-.36-.13-.6-.19.71.52.95,1.16,1.21,1.86.39.11-.71-.42-.51-.45-.27.31-.04.74.09,1.18.14.43.25.89-.15,1-.06-.14.53.23.43.19-.08.36-.62,0-.44.36-.31-.18.07.35.13.66.21.29-.15-.05-.17-.28.12.25.25.82.25,1.37.02.56-.08,1.11-.37,1.26.19.18.55,1.22.48,1.39l-.39-.57c-.27-.14-.12.61-.46.2.19.5.18.02.15-.46-.05-.48-.12-.94.02-.48-.36-.29.49,1.47-.03.68-.07.34.27,1.28-.17,1.09.09,0-.46-1.02-.49-.73-.06.54.14.39.16.94l.08.47c.34.59-.18.34.26.81-.29-.42-.07.98-.59-.07l-.4-.84c-.03.24.34,1.13.46,1.64-.05-.05-.14-.16-.21-.3.59,1.28-.22.34.14,1.55-.35-.04-.46.96-.85.3.03.69.05,1.44-.2,1.48,0-.19.02-.32-.07-.64-.23-.2-.13.21-.15.62-.04-.25-.44-.41-.67-.71-.02.69.22,1.37.33,1.87-.47-1.17-.21,1.73-.67.74.01-.3.06-1.12-.14-1.26-.42-1.22-.04,1.59-.4,1.29l.27,1.15c-.23-.6-.24,1.37-.41.02-.01.61-.34.07-.15,1.3-.04-.02-.07-.03-.1-.03l-.04-.15c-.03-.09-.05-.15-.07-.18-.04-.08-.08-.08-.13-.11-.09-.07-.21-.26-.43-1.86,0,.25-.1-.13,0,.8.15,1,0-.64.08.04-.02.03.02.5.04.73-.11-.42-.17-.62-.25-2.03-.26-1.35.16,2.96-.15,2.29-.06-.84-.1-1.17-.16-1.05l-.04,1.55c-.2-.29-.23-2.11-.33-3.68-.06.21-.2.09-.18,1.36l-.21-2.24c.15,1.65-.04,1.04-.09,1.51l.04-.45c-.02-.28-.04-.4-.07-.43-.05-.17-.12-.11-.16-.09.03.86.12,1.56.22,2.11.03.09.05.18.08.26-.01.26-.03.42-.05.56-.05.1-.12.02-.18.47,0-1.67-.25-1.85-.36-2.34-.12-.68-.16,1.05-.2.87,0-.83-.22-.74-.09-1.58.05-.14.09,1.07.17.54-.08-.85-.04-2.22-.23-1.64-.15.4-.05,3.07-.29,1.4.09-.17.12-.72.19-1.12l-.2-1.34-.08,1.25c-.02-.41.01-.46,0-.67-.15,1.14-.39-.54-.58.67-.15-.26-.2-1.51-.3-1.92l.03-.03c-.06-.99-.31-1.02-.54-.76l.04-.18c-.06-.29-.27-.64-.48-.46-.06-1.18.68-3.11.22-2.61-.18-.34-.7.58-.76,1.21-.11-.71-.38-.91-.63-1.29-.24-.36-.49-.72-.45-1.42-.18.09-.21.27-.41.16-.29-.56-.73-1-1.16-1.38-.12-.11-.15-.13-.19-.19-.04-.05-.07-.1-.09-.17-.04-.13-.03-.3.06-.56.26-.04.34-.36.53-.57-.4.23.18-.46-.36.09-.28.35-.43.51-.45.73-.19,0-.37-.07-.48-.2-.11-.1-.16-.27-.11-.49-.05.22-.18.3-.3.38.42-.59.28-.79.03-.65l-.23.37.13-.44c-.12.1-.47.79-.39.37.07-.16.13-.31.16-.44-.29.24-.64.79-.63.39.03-.22.05-.43.07-.64-.09.05-.26.41-.21.61-.11-.43-.27-.48-.3-1.04-.2.43-.39.78-.48.97-.16.43-.22.4-.44.46l-.13-.3c-.23-.23.21.53.05.35-.11-.29-.41-.55-.51-.93-.35-.19.06.64.06.81.23.36-.07-.28.21.19.08.12-.4-.14-.03.41-.19-.17-.46-.57-.59-.8l.09.33c-.63-.47-.5-1.34-1.21-1.97l-.07.19c-.56-.42-.08-.92-.59-.81.02.39.51,1.21.82,1.33-.17.36.88,1.27.6,1.46-.33-.21.13-.26-.27-.61-.48-.26-.05.45-.28.42.29.06.65.62.68.76-.34-.08-.36-.52-.59-.36.24.29.3.65.62.68.57.63-.34.03.07.56-.52-.32-.87-1.09-1.3-1.07.47.34.38.79,1.14,1.21-.2-.02-.56-.29-.78-.58-.39-.08.59.95-.36.31l.44.4c-.19-.07-.35-.09-.66-.2-.1.13.37.86-.36.35.05.09-.18.39.41.6.43.02-.24-.47.52-.1-.65-.26-.1.31.03.53l-.3-.17c.07.14-.08.24.21.48-.14-.15-.35-.25-.46-.24l.4.34c.07.39-.83-.41-.85-.07l-.23-.42c.05.09-.43-.06-.36.15.37.29.84.67,1.13.9.1.25-.51-.2-.16.19l-.39-.47c-.12-.11-.77-.26-.87-.03.07.22.57.75.91.66-.05.11-.38.12-.65-.13.02.32.47.21.63.55-.33-.07-.87,0-1.37-.04l-.6-.59-.08.15c-.47-.49-.49-.11-1.04-.53-.15.06,0,.3.1.48,1.13.16,1.16.99,2.1,1.32.05.52-2.3-.74-1.1.35.27.03.86.55.72.17-.22.22.82.58.31.72-.27-.4-1.03-.15-1.42-.72.29.15.31-.09.25-.18-.39-.04-.9-.43-1.02-.15.01.21-.07.46.42.63.52.22.06-.29.53.05.04.41-.78.14.08.67.02-.24.58-.07.93.09l.11.33-.33-.19c-.42.29.58.38.33.72l-.76-.1c-.55-.33.49-.45-.5-.78-.14.24.32.52-.03.66-.06-.09-.06-.17-.12-.26-.07.08-1.39-.34-.78.33.22.31.33.18.69.33-.05.46.28.72.24,1-.69-.32-.24.45-.86-.12.47.01.65-.59.03-1-.9-.17.24-.28-.57-.7-.15.33-.97,0-1.54-.16-.07.08.12.26.18.35.5.23.54.11,1.06.3-.28.33-.14.8.29,1.19-.3.04-.8-.19-.79-.36-.01.51-.26.98-.56,1.36.94,0,.03.55.8.6.27-.17.94-.16,1.27.09-.1.12-.37-.13-.57-.13.4.34-.84.04-.17.46-.14-.51-1.01-.42-1.65-.72.27.43-.47-.17-.57.14.27.43.44.9.48,1.28-.77.23-.34,1.09-.43,1.47-.4.1-1.12-.25-1.31-.07-.06.26.88.04.42.32l-.14-.08c.14.16-.71.57.35.98l-.79-.34c-.09.05.08.17.15.25-.27-.07-.54-.05-.68-.22-.63.09-.04.53-.09.8l.53-.04c.27.54-.29.72-.23,1.19l-.48-.13.23.33c-.45-.18-.81,0-.45.22l-1.02-.96c.33-.12.53.35,1.03.35.44,0,.41-.43-.04-.61-.09.14.01.18.15.34-.68-.12-.6-.34-1.01-.57,0,.09-.23.15-.02.22-.29-.24-.3-.42-.24-.69.21.25.44,0,.61.13-.58-.17-.7-.48-.44-.76.74-.05-.27-.74.03-1.07.55.32.97.65,1.15.94.36-.15.06-.27.42-.42-.41-.24-1.06-.51-1.24-.9l.44.11c-.14-.35-.79-.53-.56-.86.39-.56.59-1.19.8-1.64l.44.12c-.84-.56-.06-.98-.35-1.46.61-.45.05-1.44.89-1.48.06-1.16.12-2.21.74-3.22l.52.44c-.36-.39.4.03.4-.19-.58,0-.51-.54-.81-.84.67-.26.47-1.1.28-1.74l.41.19c-.53-.82.4-.99.82-1.43.2.03.62.16.66-.02-.46-.65-.32-.78-.44-1.44.2-.31.7-.7,1.14-.83,0-.86.42-1.5.93-2.09.54-.59,1.13-1.12,1.75-1.87l.4.38c.54-1.24,2.23-1.71,3.57-1.72.36,0,.69.01,1,0,.31,0,.62-.02.91-.09l-.27.88c.41.31,1.07-.03,1.12-.69.41.36,1.36-.04,1.37.77.36.36.73-.14,1.15-.04.68.79.99.91,1.77,1.33l-.13-.18c-.2.1-.44.4-.32.57.41,0,.68.92,1.19-.08.06.27.2.47.38.64.08.08.2.18.27.23.05.02.09.03.12.03.14,0,.22-.01.05.45.15-.28.21-.3.32-.47.05.04-.08.88.16.38-.03.21-.19.58-.16.68.06-.1.12-.48.19-.66.13-.27.11-.04.14.36.02.39.06.94.12.94.05-.13.08-.21.11-.25.09-.14.2.46.26.53l.07.58c-.11-1.07-.03-.45.05.09.04.26.07.5.07.44,0-.05-.03-.52-.15-1.43.1.59.08.2.26,1.41-.1-.88-.02-.54.08-.3.1.25.2.39.02-.63-.02-.04,0,.08.05.34.17.54.19.33.18.13,0-.2-.01-.39.17,0,.06.23.09.42.24.92.34.81-.6-2.2.19.02.01-.08-.38-1.15-.37-1.06.23.22.27-.2.19-.67-.07-.48-.24-1.01-.33-1.32.33.29.77.77,1.03,1.1.26.33.35.43-.01-.19.21.2-.4-.47-.18-.23-.28-.4,1.21,1.01.67.33-.66-.58-.36-.41-.76-.78.45.18,1.06.49.56-.1l.35.25c-.49-.48-.6-.66-.74-.85-.14-.18-.29-.36-.87-.6-.06-.19-.15-.35-.27-.49-.02,0-.08-.19-.13-.32-.04-.14-.1-.28-.16-.41-.13-.27-.22-.54-.37-.79-.52-1.03-1.15-1.93-1.8-2.83-1.03-1.95-3.12-3.27-4.83-4.95,0-1.08-.09-1.11-.82-1.03.09-.12.14-.13.16-.27-.35.64-.43-.13-.78.48-.36-.25-.74-.43-1.16-.5-.41-.09-.81-.19-1.23-.3.15-.05.38-.61.2-.6l-.29.42.02-.2c-.14.08-.34.41-.28.66-1.11.09-2.1-.25-3.22-.49l-.85-.19c-.29-.06-.58-.06-.87-.09-.59-.06-1.18,0-1.75.17-.62-.22-1.35.32-1.89.63-1.02-.17-2.04-.27-2.98-.09-.47.08-.92.23-1.33.46-.39.21-.82.56-1,.88,0,0-.05-.1-.15-.27-.08-.16-.2-.39-.26-.66-.15-.53-.21-1.17.07-1.58Z"/>
      <path class="cls-2" d="M191.34,102.71c.38,0,.63-.2,1.06.11-.34-.05-.75,0-1.06-.11Z"/>
      <path class="cls-2" d="M196.78,97.21c-.1-.04.17-.04.23-.04,0,.09.27.25.07.25,0-.09-.17-.13-.3-.21Z"/>
      <path class="cls-2" d="M197.53,95.69c.3.13.42.55.39.76l-.39-.76Z"/>
      <path class="cls-2" d="M199.32,94.72c.3-.02.43.07.36.23-.17-.05-.23-.14-.36-.23Z"/>
      <path class="cls-2" d="M198.66,94.35c.04-.12.24-.11.44-.1-.26-.1.06.33-.44.1Z"/>
      <path class="cls-2" d="M200.81,91.77c0-.08-.16-.34.19-.25-.26-.04.21.51-.19.25Z"/>
      <path class="cls-2" d="M201.03,90.26s.1-.02.05-.11c.17,0,.34.19.33.27l-.38-.16Z"/>
      <polygon class="cls-2" points="216.95 98.46 216.89 98.89 216.82 98.37 216.95 98.46"/>
      <path class="cls-2" d="M221.19,82.28c-.23-.28.29-.16.33-.21.06.25-.41-.11-.33.21Z"/>
      <polygon class="cls-2" points="217.34 74.99 217.37 75.04 216.78 75.35 217.34 74.99"/>
    </g>
    <g>
      <path class="cls-2" d="M187.39,88.81c.27.44.48-.41.33.25-.27,0-.49-.04-.33-.25Z"/>
      <path class="cls-2" d="M158.66,78.79c-1.37-1.85.79-3.41.19-5.28-.02-.21.88.3.79-.18-.83-1.92.72-4.17,2.37-5.62l.21.2c.31-.28-.35-1.01-.09-1.34.16.06.18.21.44.21-.45-.29.04-.75-.27-1.05.25-.07.63.11.92.01l-.47-.44c-1.06-1.14.69-1.36.38-2.44.11.1.17.22.32.21-.22-1.63.74-3.11,1.22-4.63.15.16.46.4.71.44-.51-.38-.41-.87-.3-1.3.66.18-.15-.93.43-1.16l.1.11c-.38-.67.62-.24.1-.94l.55.09c-.68-.65.68-.18.47-.68l-.16-.1c-.02-.36.44-.22.47-.52l.1.04c.16-.65.78-.64.21-1.05.58.17-.15.64.72.86.61-2.05,2.12-3.58,3.59-5,.37.05.54.02.76.18.05-.24.47-.61.37-1.01-.04.06.33.19.44.15.46-.02-.19-.86.34-.87,0,.25.1.46.31.64-.08-.65.33-.88.55-1.27.02.13-.02.25.13.42,0-.77.74-.36.84-.91l.11.42c.79.06-.33-.82.29-.89-.04.18.09.29.16.45.01-.92.88-1.12,1.2-1.6,0,.07.06.16.06.16.44-.37,1.09-.39,1.5-.97.28.07.36.95.82.56-.35-.75.8-.68.12-1.42.55-.06,1.39-.09,1.64-.42-.12.36.54.9.17,1.08l.45.39c.06.34-.34-.02-.11.36.18-.09.65-.56.86-.49.22-.6.34-1.62.94-1.84-.22.37.37.86.2,1.04.16-.57.34-1.15.52-1.72.2-.08.18.63.43.36-.06-.21.05-.37.1-.56.09.08.84-.38,1.07.41.14.3-.31.24-.03.48.38-.08.35-.36.73-.45l.02.11c.26.05.7-.43.36-.86-.19,0,.14.48-.16.27.11-.49.56-.67.96-.72-.12.15-.08.36-.1.59.45-.69,1.01-.95,1.6-1.28-.02-.39-.17.73-.28.53.41.23.79,0,1.16-.2.38-.18.76-.29,1.09.1-.11.07-.06-.55-.06-.44.39.05.37.61.61.41.02.33.31-.1.57-.2.14-.24.06.16-.16.2.18-.14.63-.33,1.15-.42.52-.07,1.1.02,1.49.31,0-.22.63-.73.83-.67l-.16.5c.13.32.66.04.61.48.51-.56-1.65.31-1.02-.09.07.44.9-.7.67-.03.19.02.41-.1.61-.16.2-.06.5.03.65.31-.12-.12-.55.57-.19.64.66.1.25-.18.84-.18l.43-.09c.24-.44.59.25.59-.32-.12.38,1.21.11.65.78l-.47.52c.29.03.87-.44,1.28-.55,0,.07-.02.2-.11.28.74-.75.57.37,1.49-.02.29.55,1.54.77,1.11,1.33.65.09,1.38.19,1.58.61-.18-.02-.33-.1-.58-.01-.05.32.29.25.71.36-.11.01-.13.17-.15.35-.03.19-.08.43-.16.59.64.18,1.15-.06,1.55-.13-.42.28-.02.44.41.63.44.18.89.41.49.67-.25-.1-.96-.38-1.03-.09-.94.4,1.34.47,1.16.99l.9-.16c-.44.23,1.14.74.07.69.47.18.05.59.98.57-.15.41.3.93.53,1.44.25.5.36.94-.4,1.01.21.16.17.43.63.49.44-.08-.49-.38-.16-.37.07.12.34.21.47.25-.11.23-.1.42-.97-.03-.32.41,1.81,1.06,1.7,1.78-.39-.16-.51-.16-.38.1l.77.71c0,.5-.77-.03-1.4-.27.09.16.15.33.26.49.05.08.11.17.19.25.05.04.11.06.22.11l-1.03-.43c.76.31.28.15.39.22l-.11-.06c-.33-.14-.33-.11-.32-.07.5.22.84.32,1.05.39.25.13.08.08.41.27-.72-.34-.73-.26-.91-.28-.3-.08.64.37.59.36-.45-.21-.23,0-.79-.32-.1-.07.52.2.19,0-.39-.14-1.19-.53-.78-.25.33.24,1.83.85,1.07.65-.19-.14-.56-.32-.85-.49l-.71-.21.88.44c-.25-.1-.31-.15-.44-.2.89.47,0,.28,1.13.9.05.15-.84-.23-1.04-.18l-.08-.07c-.72-.22-.46.12.27.7l-.25-.15c-.14-.03-.04.41.66,1.02-1.01-.26-4.84-2.98-3.4-1.71-.03.04.06.17.24.36.18.34,1.27,1.25,2.29,1.81-.77-.33-1.35-.52-1.89-.68l-.78-.21-.39-.1-.31-.07c-.8-.17-1.8-.46-3.01-1.11,0,.08.06.17.08.23.01.06,0,.11-.13.16-.53-.11-1.01-.15-1.48-.18l-.71-.03c-.2.03-.4.06-.59.09-.4.05-.8.08-1.2.04-.1,0-.2-.02-.3-.04-.13,0-.25,0-.37,0-.19-.03-.2-.11-.33-.2.13-.26-.13-.48-.22-.75-.03.48-.35-.37-.17.37.16.42.22.63.45.75-.32.32-.72.55-1.12.26.19.14.18.3.18.44-.33-.65-.61-.58-.63-.26l.23.38-.36-.3c0,.17.5.74.07.56-.12-.12-.23-.25-.35-.31.02.46.18,1.13-.28,1.03-.2-.11-.4-.21-.61-.3-.04.14.1.55.37.53-.59.07-.85.26-1.37.02.49,1.55-.11,2.4-.62,3.24l-.27-.18c-.4.09.44.39.15.44-.23-.22-.7-.13-.94-.49-.5.19.29.71.32.99.37.21-.17-.3.31-.02.12.1-.52.34.05.65-.27-.02-.68-.27-.9-.42l.19.34c-.83,0-.96-1.15-1.95-1.24v.26c-.73-.05-.44-.91-.91-.42.17.38.98.95,1.33.84-.02.57,1.35.81,1.11,1.29-.41,0,.07-.44-.47-.53-.58.06.09.59-.17.75.33-.16.86.26.93.45-.37.17-.53-.37-.71-.01.34.18.5.6.84.39.77.38-.34.31.23.69-.61-.04-1.21-.77-1.63-.44.57.09.61.73,1.5.73-.2.12-.64.02-.96-.19-.4.16.88.83-.25.63l.55.22c-.21.03-.37.1-.71.15-.06.22.65.85-.22.66.08.09-.06.57.58.49.43-.23-.37-.43.48-.44-.71.08,0,.45.19.65l-.34-.03c.11.12,0,.35.36.47-.18-.11-.42-.11-.51-.04l.5.19c.2.46-.92-.04-.84.4l-.35-.38c.08.08-.43.16-.3.38.44.15,1.02.35,1.37.48.18.26-.55.04-.08.33l-.54-.37c-.15-.07-.81.11-.83.44.14.23.8.61,1.09.32,0,.16-.32.35-.66.19.12.38.52,0,.78.34-.33.1-.81.46-1.29.68l-.77-.4-.02.23c-.62-.34-.5.12-1.16-.1-.12.15.1.36.26.53,1.11-.39,1.44.6,2.44.51.25.61-2.41.29-.89.99.26-.1,1,.22.73-.17-.12.38.97.28.56.71-.4-.34-1,.35-1.59-.15.33.04.25-.27.16-.34-.38.15-1-.06-1,.35.09.25.11.59.63.54.57,0-.06-.37.51-.21.2.48-.66.56.34.76-.08-.3.51-.38.89-.37l.23.34-.37-.06c-.27.55.68.16.59.69l-.74.27c-.64-.12.26-.79-.77-.68-.03.36.5.46.24.8-.09-.07-.12-.17-.21-.25-.03.13-1.41.3-.59.79.33.25.37.06.76.05.15.57.55.72.63,1.08-.77-.03-.03.65-.83.3.43-.22.35-1.03-.39-1.21-.89.25.11-.46-.8-.55-.01.47-.89.48-1.47.58-.03.14.22.26.31.33.55.03.53-.14,1.09-.18-.12.53.2,1.03.76,1.28-.26.19-.8.18-.87-.03.21.62.18,1.29.08,1.9.85-.47.27.64.98.3.17-.34.77-.67,1.19-.53-.04.2-.39.03-.57.13.51.2-.74.47.05.63-.35-.53-1.09,0-1.8-.02.44.37-.5.04-.45.45.44.37.8.84,1.01,1.28-.58.67.2,1.46.31,1.96-.3.33-1.11.27-1.2.59.07.34.8-.4.53.17l-.16-.02c.2.12-.36,1.03.78.97h-.87c-.06.11.15.16.25.23-.27.06-.5.22-.71.09-.52.43.23.65.32.99l.45-.32c.51.5.1.99.4,1.52l-.49.09.37.27c-.49.03-.71.41-.28.49l-1.39-.61c.23-.31.65.14,1.09-.13.38-.22.14-.72-.34-.7-.01.21.1.2.31.32-.66.22-.7-.1-1.18-.15.05.1-.12.3.1.27-.37-.14-.47-.34-.56-.69.31.18.39-.22.6-.17-.6.1-.85-.21-.77-.68.63-.44-.6-.74-.5-1.29.64.1,1.17.27,1.47.53.25-.37-.08-.35.17-.71-.48-.07-1.19-.06-1.53-.43l.44-.1c-.29-.34-.95-.23-.9-.74.09-.86-.02-1.71-.04-2.36l.45-.08c-1.01-.24-.49-1.13-.96-1.57.35-.85-.58-1.75.18-2.22-.43-1.42-.79-2.7-.61-4.21l.66.26c-.48-.28.38-.17.29-.43-.54.29-.67-.38-1.07-.59.52-.65.04-1.54-.38-2.2h.45c-.78-.67.02-1.35.27-2.08.2-.06.64-.14.62-.37-.66-.52-.59-.73-.91-1.42.09-.45.41-1.14.81-1.52-.59-1.94.59-3.47.84-5.41l.54.11c-.11-1.06.37-2.02.99-2.83.29-.42.62-.8.92-1.17.3-.38.53-.77.71-1.16l.57.72c.54-.17.6-.98.06-1.35.53-.19.67-1.21,1.4-.87.25-.11.3-.29.34-.5.06-.21.09-.45.27-.65,1.25-.45,1.6-.65,2.6-1.27-.09,0-.19.02-.28.05-.04.24.1.6.37.54.29-.37,1.47-.22.78-1.14.24.26.34.12.41,0,.08-.1.1-.18.59.18-.28-.26-.27-.31-.43-.48.09-.02.67.32.7.25,0-.02-.04-.06-.15-.15.24.14.63.44.77.48-.1-.09-.54-.34-.72-.48-.28-.23,0-.09.5.12.48.21,1.18.5,1.19.47-.17-.11-.26-.17-.28-.19,0,0,0-.01,0-.01,0,0,.01,0-.02-.05-.05-.07-.08-.13-.11-.19-.1-.22-.09-.4-.32-.61l.5.1c-.99-.24-.54-.2-.25-.25.29-.03.42-.13-.89-.22.41,0,.12-.09.97-.07-.63-.05-.41-.1-.27-.2.15-.09.19-.23-.5-.17-.02.02.06,0,.24,0,.32-.14.14-.2-.02-.25-.16-.05-.32-.06-.14-.25.15-.04.28-.05.58-.16.23-.14-.15-.06-.39,0-.24.06-.36.08.23-.26-.08-.03-.66.31-.6.31,0-.29-.45-.36-.81-.36-.19.02-.38.07-.54.12l-.22.08-.09.03s-.18.01-.26.02c-.97-.75.22-1.75-.78-1.09-.05-.21-.1.39-.09.17-.37.25-.41-1.24-.71-.73.04.66-.19.34-.23.73-.66-.45-.81-1.01-1.39-.53l.05-.34c-.68.97-1.44.38-1.94,1.59-.89.15-1.77.29-2.63.49-.87.27-1.73.54-2.58.81l-.64.2-.55.24c-.37.17-.74.29-1.1.47-.35.18-.71.36-1.06.52-.35.17-.69.39-1.04.57-1.44.63-2.75,1.53-3.97,2.61-1.22,1.07-2.41,2.22-3.75,3.38-1.21.08-1.24.17-1.51,1.11-.1-.12-.08-.18-.23-.21.56.47-.32.58.19,1.06-.89.99-1.37,2.15-2.06,3.34.04-.23-.42-.62-.51-.37l.27.47-.2-.06c0,.21.23.56.52.51-.56,1.66-1.51,3.1-2.46,4.58-.95,1.48-1.88,3.01-2.38,4.7-.57.69-.67,1.92-.79,2.83-.86,1.15-1.63,2.28-2.16,3.49-.53,1.19-.86,2.54-.73,3.84,0,0-.46-.13-.94-.45-.48-.32-.98-.8-1.08-1.42Z"/>
      <path class="cls-2" d="M187.17,88.26c.33-.19.44-.56.98-.42-.33.11-.66.38-.98.42Z"/>
      <path class="cls-2" d="M189.34,78.97c-.11,0,.13-.14.19-.17.04.1.36.16.18.27-.04-.1-.21-.07-.37-.1Z"/>
      <path class="cls-2" d="M189.35,76.79c.33,0,.61.44.68.71l-.68-.71Z"/>
      <path class="cls-2" d="M190.57,74.73c.27-.18.42-.14.42.09-.17.02-.26-.05-.42-.09Z"/>
      <path class="cls-2" d="M189.83,74.62c-.01-.16.18-.25.36-.34-.28.02.18.37-.36.34Z"/>
      <path class="cls-2" d="M190.81,70.42c-.02-.1-.27-.33.09-.4-.26.09.38.5-.09.4Z"/>
      <path class="cls-2" d="M190.48,68.47c.03-.06.09-.08,0-.16.16-.1.38.05.41.15h-.41Z"/>
      <polygon class="cls-2" points="207.03 46.49 207.4 46.7 206.98 46.69 207.03 46.49"/>
      <path class="cls-2" d="M188,40.05c-.22.23-.21-.29-.25-.33.22-.06-.04.41.25.33Z"/>
      <polygon class="cls-2" points="179.09 43.9 179.16 43.86 179.4 44.48 179.09 43.9"/>
    </g>
    <g>
      <path class="cls-2" d="M160.63,64.2c.33.16.33-.5.34,0-.24.12-.43.21-.34,0Z"/>
      <path class="cls-2" d="M144.85,91.61c-.61-.87-.42-1.55-.15-2.26.25-.7.59-1.42.15-2.2-.04-.17.91.2.75-.2-1.09-1.54-.08-3.38.81-5.16l.27.09c.19-.34-.7-.68-.63-1.02.17-.02.26.09.49-.02-.54-.03-.32-.6-.73-.68.19-.16.6-.21.81-.42l-.62-.1c-.75-.15-.81-.45-.77-.81.02-.35.15-.79-.33-1.02.14,0,.27.03.38-.07-.64-.42-.98-.96-1.37-1.5l-.59-.78-.29-.38c-.11-.11-.24-.21-.37-.31.2-.09.55-.27.69-.47-.55.32-.92.12-1.21-.05.39-.54-.76-.06-.79-.52l.13-.08c-.68.31-.05-.56-.76-.11l.2-.5c-.67.63,0-.64-.47-.43l-.11.16c-.31.05-.14-.38-.4-.38l.05-.1c-.53-.07-.49-.66-.86-.06.17-.58.53.05.76-.8-1.77-.27-3.14-1.1-4.72-1.33-.13-.31-.24-.41-.25-.69-.18.1-.64.07-.8.43.05-.01-.09-.37-.18-.41-.31-.29-.31.78-.63.48.11-.2.15-.43.09-.7-.26.58-.62.51-.9.76.03-.13.09-.21.05-.43-.24.68-.68-.02-.89.47v-.43c-.65-.33.1.87-.39.71.05-.16-.03-.3-.07-.46-.08.43-.26.64-.48.79-.22.16-.5.34-.67.57,0-.07-.03-.18-.03-.18-.21.15-.44.3-.66.44-.23.14-.44.35-.67.8-.09-.05-.09-.43-.12-.71-.03-.31-.08-.43-.26-.21,0,.82-.36,1.15-.52,1.76-.06.21-.1.47-.07.88,0,.05,0,.08,0,.12,0,0,0,0-.01.01-.4-.09-.84-.28-1.14.38.25-.67.24-1.69.49-1.99-.01-.18-.02-.36-.01-.54.13-.51.12,0,.2-.56-.1.14-.51.94-.55.84-.38,1-1.04,2.77-1.4,3.21.15-.32.24-.64.31-.91.04-.14.07-.27.1-.37.04-.13.08-.25.12-.34-.43,1.06-.8,1.92-1.19,2.79-.12.15.29-.86.04-.41-.1.28-.22.52-.34.79,0-.07-.45.63-.13-.25.1-.31.21-.4.25-.6-.03.05-.05.09-.07.12-.13.24-.25.49-.38.69l.04-.11c-.05.05-.42.79-.49,1.07.05-.06.17-.44.17-.35-.26.57-.45.88-.56,1.07.09-.17.16-.35.26-.58-.28.56-.53,1.05-.8,1.59-.11.26.24-.54.21-.45-.02,0-.17.32-.28.56-.11.25-.19.43-.19.43.03-.07-.07.17-.06.13-.03.05,0,.08-.02.02,0-.07-.02-.13-.07-.15.04-.13-.11-.12-.22-.18-.09.05.01-.1.09-.01-.08-.03-.27-.14-.49-.28-.21-.15-.45-.34-.49-.71-.07.17-.58.47-.68.4l.31-.43c.09-.35-.3-.21-.04-.65-.27.22-.03.25.19.28.22.03.41.07.21.14.18-.46-.73.4-.3-.19-.14-.17-.69.3-.51-.37,0,.13.61-.62.49-.74-.22-.17-.23.16-.49.17,0,.01-.02,0-.03,0h-.21c-.42.57-.01-.5-.45.33.34-.53-.34-.42.39-1.3l.57-.66c-.06-.14-.62.43-.9.58.05-.09.16-.29.26-.4-.89,1.03.03-.59-.7-.05.13-.41.11-.7.13-1.01.03-.31.1-.62.4-1.02-.3-.07-.67-.1-.47-.7.1,0,.13.09.34-.06.29-.5.03-.34-.14-.45.14-.07.61-.98,1-1.5-.28-.13-.85.36-1.18.55.52-.51.37-.65.21-.82-.16-.17-.34-.37.15-.83.14.06.47.25.76-.18.53-.43.36-.47.14-.54-.23-.06-.52-.14-.22-.51l-.9.49c.58-.46-.37-.69.51-.93-.29-.1.4-.74-.47-.45.41-.57.54-1.14.68-1.69.15-.54.4-1.07,1.21-1.28-.11-.14.18-.44-.27-.43-.56.16.2.34-.13.39.01-.12-.2-.17-.31-.2.31-.28.47-.47,1.01-.12.75-.46-1.04-.9-.33-1.69.29.15.43.13.49-.12-.1-.22-.2-.46-.29-.7.38-.5.79.06,1.29.31.04-.27.23-.47-.07-.79l.75.14c-.54-.11-.17-.34-.23-.51l.05.17c.22.09.25-.21.27-.36-.3-.17-.57-.02-.74.06-.13-.24.02-.37-.12-.67.42.36.54-.1.7-.23.22-.11-.25-.51-.19-.55.22.17.28-.25.47.13.02.11-.33-.04-.21.22.25,0,.62.33.54-.11-.06-.34-.87-.64-.31-.75.03.17.18.33.27.52l.48-.11-.36-.34c.13.04.14.1.21.12-.31-.44.3-.56-.07-1.03.11-.19.55-.09.72-.19v.06c.37.02.45-.33.39-.7l.06.09c.13-.05.31-.31.25-.64.5.07,1.29,1.37,1.17.67.23-.21-.16-1.04-.46-1.21.34-.06.52-.36.74-.61.23-.23.5-.39.94-.21-.03-.21-.15-.29-.06-.48.43-.14.76-.51,1.13-.78.18-.13.37-.25.58-.29.21-.02.44.03.7.19-.13.28.2.45.33.71-.01-.48.41.33.15-.39-.21-.4-.28-.61-.58-.68.36-.42,1.08-.72,1.49-.44-.21-.14-.16-.31-.11-.47.24.67.62.63.78.29l-.12-.42.33.35c.05-.17-.22-.9.19-.62.07.15.15.31.24.4.13-.46.34-1.16.77-.89l.45.53c.11-.1.22-.53-.07-.64.64.22.99.17,1.3.65.26-.77.75-1.27,1.29-1.59.56-.28,1.21-.35,1.77-.39v.33c.35.26.09-.59.33-.39-.05.32.31.64.13,1.05.45.28.46-.64.73-.83,0-.43-.19.3-.2-.24.03-.16.62.25.63-.41.13.24.08.73.05,1,.08-.11.15-.24.23-.34.36.72-.59,1.43-.18,2.33l.21-.13c.26.65-.5.85.05,1,.2-.35.35-1.27.11-1.56.5-.19.14-1.55.73-1.51.17.38-.46.1-.32.63.29.52.53-.3.78-.12-.27-.24-.07-.9.11-1.02.31.3-.18.62.24.68.06-.38.46-.66.12-.92.16-.85.45.23.7-.43.12.6-.46,1.39-.01,1.68-.06-.58.6-.79.38-1.64.18.17.18.62.03.97.24.34.7-1.02.71.13l.13-.58c.07.2.18.36.28.69.22.03.82-.71.7.17.08-.08.6.02.48-.62-.29-.41-.43.4-.52-.44.16.7.49-.03.72-.23v.34c.12-.12.38-.01.5-.37-.12.18-.11.42-.03.52l.2-.5c.52-.19-.04.91.44.84-.13.1-.27.22-.41.35.09-.08.16.42.39.31.17-.45.43-.98.57-1.33.3-.15,0,.55.36.13l-.44.49c-.08.14.06.82.38.89.24-.11.73-.71.45-1.04.17.03.34.37.12.68.42-.07.07-.51.47-.72.06.34.36.88.48,1.38l-.54.69.21.06c-.45.55,0,.5-.33,1.12.11.14.34-.06.53-.17-.11-1.18.89-1.26,1.07-2.24.69-.04-.39,2.4.71,1.16-.01-.28.53-.88.06-.75.33.23.59-.84.89-.3-.47.26-.01,1.06-.68,1.44.15-.3-.17-.32-.27-.26.02.41-.36.92-.01,1.05.25-.01.55.08.7-.42.2-.53-.36-.06-.01-.55.52-.02.27.79.83-.04-.3-.06-.16-.6-.01-.97.15-.03.29-.06.43-.08l-.21.32c.42.49.42-.56.9-.22l-.06.79c-.38.53-.62-.6-.94.4.3.19.62-.25.82.14-.11.05-.21.03-.31.08.11.09-.36,1.39.42.87.37-.17.22-.3.4-.65.56.14.91-.16,1.26-.02-.42.63.53.39-.19.87.06-.5-.71-.83-1.21-.25-.21.89-.34-.3-.84.47.39.2-.02.99-.21,1.54.09.08.29-.09.4-.14.29-.47.15-.53.39-1.03.38.32.91.29,1.41-.04.01.32-.3.77-.49.72.57.14,1.07.52,1.45.92.18-.94.62.15.82-.6-.13-.34-.03-1.01.33-1.26.14.15-.21.33-.24.53.46-.27-.11.87.5.35-.61-.06-.68.85-1.14,1.38.52-.12-.28.41.02.61.52-.12,1.07-.11,1.5,0,.03.84,1.03.81,1.42,1.08-.03.42-.66.93-.55,1.2.23.19.38-.8.48-.23l-.13.09c.22-.05.25.94,1.11.18l-.68.55c.01.11.2.02.31,0-.18.21-.28.46-.51.51-.19.61.48.3.71.5l.21-.5c.64.08.54.66,1.01.9l-.37.33h.41c-.4.29-.45.69-.05.53-.47.09-.93.19-1.38.3.07-.35.58-.26.85-.69.24-.38-.19-.6-.57-.31.08.16.17.09.39.05-.45.52-.62.33-1.03.57.08.04.02.27.19.13-.36.12-.52.04-.73-.14.32-.06.22-.38.41-.47-.44.43-.74.37-.89.02.28-.68-.79-.09-.95-.49.52-.36,1-.59,1.35-.61,0-.41-.23-.18-.22-.59-.4.27-.91.73-1.34.75l.27-.36c-.38,0-.8.52-1.02.19-.36-.58-.9-.96-1.28-1.28l.24-.38c-.77.66-.94-.24-1.5-.04-.32-.68-1.37-.29-1.27-1.13-.57-.09-1.11-.14-1.61-.26-.25-.06-.5-.14-.74-.22-.25-.07-.5-.17-.74-.3l.41-.56c-.36.39,0-.4-.22-.38.04.57-.49.55-.75.89-.15-.32-.42-.41-.72-.37-.3.05-.63.25-.89.42l.1-.44c-.63.73-.94-.11-1.45-.38-.03-.2-.05-.65-.22-.61-.42.69-.56.62-1.04,1.03-.3-.03-.78-.27-1.07-.59-.62.45-1.19.61-1.77.64-.58.04-1.17.02-1.72.45l-.15-.52c-.51.65-1.11.76-1.73.8-.61.11-1.22.18-1.61.59l-.16-.9c-.39-.18-.63.43-.36,1.02-.38-.17-.6.6-1.03,0-.36-.03-.22.55-.42.77-.71-.07-.91.1-1.39.49h.16c-.02-.21-.17-.57-.34-.56-.11.32-.88.11-.2,1-.45-.17-.68.13-.92.39-.24.26-.48.49-.96.27.2.23.11.35.17.54-.11.07-.24.1-.37.12-.12.04-.25.08-.37.11-.24.08-.43.21-.43.53-.16-.06-.22-.47-.4-.36-.02.16.25.3.24.52-.06.23-.19.37-.37.47-.14.13-.33.21-.53.29-.4.15-.85.28-1.05.59-.07.36-.17.68-.31.98-.07.15-.14.29-.22.43l-.11.19-.03.07c-.07.17-.22.34-.22.51h-.24c.44.05.19.1-.03.21-.21.1-.38.25.38.07-.26.1-.14.13-.66.29.35-.07.16.05,0,.21-.18.15-.32.36.16.15.03-.03-.03,0-.15.05-.33.27-.28.34-.23.38.05.05.12.06-.18.41-.13.09-.21.12-.51.35-.57.61,1.23-.87-.2.46,0,.05.71-.63.67-.62-.46.8,0,.83.41.56l.3-.18c-.4.81-.98,1.86-1.33,2.45-.35.59-.47.8.07.08-.26.51.53-.93.25-.41.4-.61-1.49,3.09-.75,1.86.82-1.67.47-.84.98-1.84-.49,1.3-1.19,3.03-.53,1.91l-.42.94c.14-.25.26-.49.39-.73.11-.18.19-.33.27-.54.12-.28.23-.56.35-.83.35-.82.66-1.57,1.05-2.48.18-.39.36-.78.54-1.16.31-.65.53-1.13.6-1.34l.04-.15s.03.03.06.03h0s.18-.07.18-.07l.43-.17c.29-.11.57-.23.87-.32,1.18-.41,2.46-.6,3.72-.65,2.54-.04,4.93.72,6.71,1.96.47,1.26.49,1.25,1.58,1.5-.11.1-.18.09-.2.24.44-.58.63.35,1.11-.17.56.43,1.21,1.03,1.83,1.53.66.49,1.21,1.11,1.75,1.81-.24-.17-.79.1-.55.32l.58-.02-.13.16c.22.11.67.1.72-.22.44.39.7.88,1.01,1.35.27.48.59.97.75,1.48.35,1.02.64,2.08.7,3.09.25,2.06,0,3.94.07,5.75-.17.42-.2.94-.18,1.47,0,.52.05,1.05.07,1.52-.66,1.28-1.33,2.41-1.85,3.54-.27.57-.48,1.14-.66,1.74-.18.62-.29,1.19-.41,1.99,0,0-.09-.07-.25-.2-.14-.12-.33-.29-.56-.5-.41-.4-.85-.91-.9-1.46Z"/>
      <path class="cls-2" d="M160.29,63.92c.23-.3.19-.63.7-.8-.24.25-.44.61-.7.8Z"/>
      <path class="cls-2" d="M157.11,56.27c-.07.08-.01-.19,0-.25.1.03.34-.17.3.03-.1-.03-.18.12-.3.22Z"/>
      <path class="cls-2" d="M155.49,55.02c.19-.27.7-.27.95-.17l-.95.17Z"/>
      <path class="cls-2" d="M154.39,52.92c-.04-.32.07-.44.28-.33-.06.16-.17.21-.28.33Z"/>
      <path class="cls-2" d="M153.94,53.53c-.15-.06-.14-.27-.14-.47-.11.26.42,0,.14.47Z"/>
      <path class="cls-2" d="M150.24,51.06c-.11-.02-.41.19-.4-.18.04.26.62-.25.4.18Z"/>
      <path class="cls-2" d="M148.12,51.04c-.06-.04-.07-.1-.17-.03-.09-.17.09-.38.2-.38l-.03.41Z"/>
      <polygon class="cls-2" points="119.61 69.82 119.48 69.64 119.82 69.52 119.61 69.82"/>
      <path class="cls-2" d="M122.88,79.25c.13-.25-.06.2-.07.23-.06.09.16-.37.07-.23Z"/>
      <polygon class="cls-2" points="128.37 72.68 128.31 72.74 128.34 71.68 128.37 72.68"/>
    </g>
  </g>
  <g>
    <circle class="cls-1" cx="121.76" cy="84.7" r="5.78"/>
    <g>
      <path class="cls-2" d="M128.1,84.79c-.06-.15-.27.07-.11-.1.12.02.21.05.11.1Z"/>
      <path class="cls-2" d="M127.91,84.22c-.39-.2-.45-.42-.45-.69-.03-.25,0-.54-.33-.68-.05-.04.41-.13.27-.21-.72-.23-.67-.93-.68-1.7l.12-.04c0-.15-.39-.01-.43-.13.06-.05.11-.05.18-.14-.21.13-.23-.09-.4,0,.04-.1.18-.23.22-.35l-.25.14c-.59.33-.3-.35-.71-.26.05-.04.1-.07.13-.13-.57.07-.91-.26-1.36-.31.06-.08.15-.23.18-.34-.15.25-.3.26-.42.27.07-.3-.28.18-.34-.01l.03-.06c-.19.26-.08-.22-.27.11l.02-.25c-.16.39-.07-.24-.21-.06l-.02.08c-.1.08-.08-.13-.17-.08v-.05c-.17.06-.23-.17-.28.15,0-.27.18-.09.16-.48-.61.23-1.14.15-1.69.2-.07-.12-.12-.16-.15-.28-.05.07-.21.09-.23.27.02,0-.06-.16-.1-.17-.13-.1-.04.37-.18.25.02-.1.02-.2-.02-.32-.04.28-.17.27-.26.37,0-.06.02-.1-.01-.19-.04.31-.24,0-.29.21l-.02-.19c-.24-.16.08.39-.11.32.01-.07-.02-.13-.04-.21-.01.37-.26.34-.33.51,0-.03-.03-.07-.03-.07-.11.11-.31.07-.37.29-.09-.04-.21-.41-.32-.27.2.32-.15.27.16.59-.15,0-.39.03-.38.18-.04-.15-.34-.33-.26-.43l-.21-.13c-.08-.13.11-.02-.03-.15-.04.05-.09.27-.17.26.06.26.28.65.2.79-.04-.16-.32-.27-.33-.36.11.23.22.46.35.68-.02.05-.23-.2-.21-.07.08.07.1.13.14.2-.05-.01-.07.22-.37,0-.13-.08,0-.12-.14-.16-.07.08.04.17-.02.25l-.04-.03c-.09.02.01.25.22.32.04-.03-.19-.12-.06-.11.15.17.13.29.08.36-.03-.06-.12-.11-.19-.18.16.27.19.44.22.61.15.09-.25-.21-.16-.18-.32.03.13.48-.25.45-.02-.04.23.1.19.08-.06.06-.29-.05-.23.04-.14-.06.01.08.04.15.09.07-.07-.01-.07-.07.1.13.2.48-.05.59.1.03.33.2.31.23l-.22-.07c-.15,0-.01.13-.21.1.26.15-.15-.39.03-.22-.2-.02.32.25.02.15-.01.08.22.21,0,.25.04-.01-.31-.13-.3-.06.02.13.11.06.17.16l.09.07c.23.04-.05.1.21.09-.19,0,.09.17-.29.12l-.3-.05c.02.06.31.12.44.17-.03,0-.09.01-.14,0,.46.04-.04.12.31.19-.17.1-.02.25-.3.31.14.08.31.14.22.23-.04-.01-.06-.04-.16-.04-.13.07-.01.07.07.12-.07,0-.25.14-.4.23.15.07.39,0,.54-.01-.43.15.31.17-.06.33-.07-.01-.24-.07-.34.02-.42.17.37.08.18.24l.36-.12c-.21.11.25.1-.12.2.13,0-.08.17.27.04-.22.28.32.34-.21.72.07,0,.04.09.2,0,.16-.13-.16,0-.04-.07.02.02.11-.02.16-.04-.05.09-.05.15-.35.23-.14.23.61-.15.57.05-.13.07-.18.11-.13.14l.27-.06c0,.12-.26.24-.47.38.07.03.1.1.27.02l-.22.25c.16-.18.16-.05.23-.06h-.07c-.08.09.02.11.06.12.12-.1.13-.2.14-.26.11-.04.12.01.24-.04-.21.14-.08.19-.08.24-.01.08.21-.1.21-.08-.1.09.04.08-.13.17-.04.01.07-.11-.04-.06-.05.09-.23.23-.05.18.13-.04.36-.34.31-.16-.06.02-.14.09-.22.13l-.03.16.17-.15s-.05.06-.07.08c.2-.14.15.06.36-.11.05.01-.04.18-.02.23h-.02c-.05.14.07.13.2.05l-.03.04s.09.06.2-.02c-.05.18-.52.69-.27.52.08.05.36-.26.42-.39.02.21.35,0,.28.35.07-.07.08-.12.15-.15.13.2.48-.06.44.43-.09.06-.1.21-.15.33.13-.16-.02.22.13-.1.07-.19.12-.28.1-.38.15-.06.31,0,.31.2,0-.1.04-.15.09-.2-.11.31-.04.39.06.29l.07-.19v.21c.03-.06.12-.4.13-.2-.02.08-.03.15-.03.21.11-.14.25-.38.29-.21v.3s.13-.19.09-.28c.09.19.17.23.19.49.3-.6.56-.6.8-.58v.15c.08.14.02-.26.07-.16-.01.14.08.31.04.49.12.16.1-.27.15-.35-.02-.2-.03.13-.05-.12,0-.07.15.13.12-.17.04.11.06.33.06.45l.04-.15c.14.33-.08.64.06,1.06l.06-.06c.12.3-.13.38.06.46.06-.16.04-.59-.04-.71.13-.1-.06-.71.07-.71.07.17-.1.06-.02.3.12.23.1-.16.18-.09-.09-.09-.1-.4-.08-.46.1.12.03.29.13.29-.03-.17.02-.32-.08-.42-.07-.39.12.08.08-.22.11.26.09.63.23.74-.09-.25.01-.39-.16-.74.06.06.13.26.15.42.11.13-.03-.5.16-.02l-.08-.26c.05.07.09.13.18.26.05-.01,0-.4.17-.02,0-.05.11-.08-.05-.32-.13-.13.01.23-.17-.11.17.27.07-.08.06-.19l.07.14c0-.07.06-.06,0-.22.03.09.08.18.11.21l-.09-.23c.02-.14.21.37.27.27l.02.2s.13.15.14.05c-.09-.2-.2-.45-.27-.6,0-.11.14.2.07-.02l.08.26c.03.07.22.29.28.24,0-.09-.11-.39-.23-.46.03-.02.14.07.2.22.03-.1-.14-.19-.16-.34.1.11.29.23.46.36l.15.35.05-.03c.11.28.16.16.31.44.06.01.04-.1.02-.19-.39-.33-.31-.61-.63-.95.02-.17.77.8.42.16-.09-.07-.28-.38-.25-.22.09-.02-.26-.38-.07-.3.07.18.37.28.48.55-.1-.12-.12-.04-.11,0,.14.1.3.35.37.28.02-.07.07-.13-.1-.3-.18-.18-.05.08-.2-.14.02-.13.31.13.01-.23-.02.08-.22-.1-.34-.23l-.03-.13.11.13c.17,0-.2-.24-.1-.29l.29.19c.2.22-.21.03.16.35.07-.05-.1-.23.05-.2.02.04.01.06.03.1.03,0,.53.38.33.05-.07-.14-.12-.12-.26-.24.03-.14-.09-.28-.07-.35.27.22.11-.09.35.19-.19-.08-.28.06-.05.31.35.22-.11.05.19.34.09-.08.4.18.62.34.04-.02-.03-.12-.05-.16-.19-.17-.21-.13-.42-.29.13-.06.1-.25-.06-.44.13.04.33.19.31.25.03-.17.14-.29.28-.38-.41-.12,0-.19-.33-.29-.12.02-.4-.08-.54-.2.04-.02.16.09.24.12-.17-.15.36.1.07-.12.06.18.43.26.71.43-.11-.18.2.11.25.01-.11-.18-.18-.36-.2-.48.33-.02.13-.34.16-.46.17-.02.51.13.59.07.02-.09-.39-.04-.2-.13l.07.03c-.07-.06.3-.19-.2-.34l.37.13s-.04-.06-.08-.09c.13.03.25.02.32.08.29-.03,0-.2,0-.29l-.24.02c-.16-.18.09-.25.03-.42l.23.03-.13-.11c.22.04.37-.04.18-.1.18.09.36.2.54.31-.14.06-.26-.11-.49-.08-.2.02-.16.16.05.22.03-.05-.02-.06-.09-.12.32.02.29.11.5.18,0-.03.09-.07,0-.09.14.08.16.15.15.26-.11-.09-.2,0-.29-.03.27.05.34.17.24.29-.34.02.14.29.01.43-.26-.14-.46-.27-.55-.38-.16.05-.02.1-.18.15.19.1.5.21.59.38l-.2-.05c.07.14.36.24.25.36-.18.21-.28.45-.4.62l-.19-.08c.36.3,0,.4.08.62-.29.11-.13.58-.51.48-.13.45-.29.87-.69,1.12l-.15-.28c.09.22-.16-.09-.18,0,.23.12.13.31.2.49-.31-.04-.36.31-.4.6l-.12-.17c.06.43-.34.27-.57.33-.06-.06-.2-.22-.25-.17.04.35-.03.36-.12.64-.13.07-.38.07-.56,0-.35.64-.98.47-1.5.82l-.07-.24c-.51.57-1.22.1-1.71.29l.1-.41c-.12-.15-.34.06-.35.36-.12-.14-.42.13-.43-.23-.13-.11-.23.14-.37.16-.26-.23-.37-.25-.68-.28l.06.05c.06-.07.13-.24.07-.29-.15.08-.32-.25-.42.25-.16-.39-.79-.12-.86-.63-.05.13-.13.11-.21.17-.26-.14-.31-.56-.64-.5,0-.08.2-.14.12-.22-.09,0-.11.14-.23.15-.53-.11-.51-.82-.81-1.08-.67-.4-.99-1.15-1.3-1.77l.1-.03c-.45-.08.18-.65-.43-.64.07-.08-.01-.22.18-.24-.3-.12.1-.56-.27-.75,0,.03.02.04.06.06.18-.3-.17-.5.02-.8.04.03.08.07.18.07.19-.12-.44-.23.04-.31,0-.06-.24-.03-.23,0,.15-.61-.09-1.27-.06-1.96.4-.39.8.17.54-.27.1,0-.17-.07-.08-.05-.1-.18.57-.05.36-.21-.3-.06-.14-.11-.31-.17.28-.2.54-.14.41-.43l.14.08c-.29-.4.04-.57-.3-1.01.64-1.33,1.55-2.6,2.9-3.37,1.36-.61,2.88-1.12,4.39-.72.31.45.31.45.72.34-.03.06-.05.07-.04.14.08-.33.26.02.37-.28.53.19,1.04.27,1.57.52-.1,0-.25.22-.15.25l.19-.15-.02.09c.09-.01.24-.13.21-.26.73.21,1.31.72,1.75,1.3.46.58.78,1.21,1.18,1.77.06.35.38.7.59,1,0,1.18-.2,2.05.13,3.05,0,0-.88-.14-1.1-.47Z"/>
      <path class="cls-2" d="M128.12,84.97c-.17.03-.27.12-.49.03.16,0,.34-.04.49-.03Z"/>
      <path class="cls-2" d="M125.89,86.81s-.07,0-.1-.01c0-.03-.12-.11-.03-.09,0,.03.07.06.13.1Z"/>
      <path class="cls-2" d="M125.55,87.19c-.12-.09-.17-.24-.15-.3l.15.3Z"/>
      <path class="cls-2" d="M124.79,87.18c-.12-.05-.17-.11-.14-.14.06.05.09.09.14.14Z"/>
      <path class="cls-2" d="M125.04,87.42s-.1-.02-.18-.06c.1.08,0-.11.18.06Z"/>
      <path class="cls-2" d="M124.08,87.72s.03.15-.09.03c.09.08-.04-.21.09-.03Z"/>
      <path class="cls-2" d="M123.88,88.14s-.04-.02-.03.02c-.06-.05-.09-.15-.08-.18l.11.15Z"/>
      <polygon class="cls-2" points="117.25 85.79 117.33 85.82 117.18 85.85 117.25 85.79"/>
      <path class="cls-2" d="M117.89,82.11c-.05-.1.14.05.16.05-.01.05-.14-.12-.16-.05Z"/>
      <polygon class="cls-2" points="119 80.05 118.99 80.06 118.83 79.8 119 80.05"/>
    </g>
  </g>
  <g>
    <circle class="cls-1" cx="214.94" cy="55.94" r="5.99"/>
    <g>
      <path class="cls-2" d="M210.22,60.51c.15.06.14-.25.15-.01-.1.07-.19.12-.15.01Z"/>
      <path class="cls-2" d="M210.78,60.79c.43-.14.64-.02.83.18.21.16.4.39.74.25.07,0-.21.39-.04.35.69-.36,1.17.19,1.74.75l-.05.12c.11.1.3-.28.41-.22,0,.08-.05.12-.03.23.05-.25.23-.1.3-.29.04.1.03.3.09.41l.08-.28c.19-.68.47.03.71-.33,0,.07-.03.12,0,.18.37-.46.86-.47,1.23-.77.02.1.06.28.12.38-.07-.29.03-.41.11-.5.17.28.07-.34.26-.24l.02.07c-.05-.33.22.11.12-.28l.17.19c-.17-.41.23.13.2-.11l-.05-.08c.01-.13.16.04.18-.06l.03.04c.09-.18.3-.04.1-.32.2.19-.06.2.24.47.28-.62.72-.94,1.1-1.38.15.04.2.03.31.09-.02-.09.08-.22-.03-.36,0,.02.16.07.2.06.17-.02-.24-.3-.06-.31.05.09.14.16.25.22-.17-.23-.07-.32-.09-.46.04.04.06.09.15.13-.2-.26.18-.17.05-.36l.16.13c.29-.06-.35-.23-.15-.31.04.06.12.08.19.12-.26-.28-.06-.44-.13-.62.02.02.07.03.07.03,0-.16.18-.28.06-.48.1-.04.46.15.43-.04-.39-.09-.09-.31-.55-.31.1-.11.26-.3.15-.41.14.08.49,0,.51.12l.25-.06c.16.04-.07.09.14.09,0-.07-.13-.27-.07-.32-.24-.14-.68-.27-.73-.43.15.09.44-.04.5.02-.25-.09-.5-.17-.76-.24-.02-.05.31-.02.2-.1-.1,0-.17-.02-.26-.04.04-.02-.11-.21.28-.27.15-.04.09.09.22.01,0-.11-.15-.1-.17-.2h.05c.05-.09-.19-.19-.4-.08,0,.05.23-.05.13.03-.23-.02-.31-.11-.33-.21.07.02.17,0,.28,0-.32-.08-.46-.18-.61-.28-.18.04.34-.03.25.01.21-.26-.45-.25-.14-.51.04.01-.24.1-.19.08,0-.09.25-.18.13-.2.14-.06-.07-.05-.14-.08-.12.02.06-.04.1,0-.17-.03-.5-.21-.39-.47-.09.05-.39.09-.4.06l.22-.11c.11-.11-.09-.11.08-.23-.3.08.4.17.14.19.16-.13-.42.05-.12-.1-.05-.07-.32,0-.18-.18-.02.04.32-.13.26-.18-.11-.08-.12.04-.24,0h-.12c-.19.15-.04-.1-.22.1.15-.13-.19-.06.12-.3l.25-.18c-.05-.03-.31.14-.44.2.02-.02.06-.07.1-.11-.36.31-.06-.12-.37.08.05-.2-.17-.2,0-.45-.16.05-.33.13-.33-.01.04-.02.07-.01.14-.09.05-.15-.05-.06-.14-.04.06-.05.08-.29.12-.46-.16.06-.28.28-.38.41.21-.42-.35.11-.19-.29.06-.04.23-.13.24-.26.18-.44-.33.21-.31-.04l-.17.35c.07-.24-.26.11-.06-.23-.1.1-.07-.18-.23.16-.04-.37-.48-.02-.37-.68-.05.05-.1-.04-.15.15-.02.22.11-.12.08.02-.03,0-.07.1-.09.15-.03-.1-.07-.15.09-.42-.07-.27-.33.56-.45.38.05-.15.05-.21,0-.2l-.16.24c-.09-.09.02-.36.07-.62-.07.03-.15,0-.21.19l-.02-.34c.02.25-.08.15-.12.21l.04-.06c0-.11-.08-.05-.12-.03-.01.16.05.24.08.29-.05.11-.09.08-.15.21.05-.26-.07-.2-.12-.23-.05-.07-.08.23-.1.22.01-.14-.09-.03-.03-.21.02-.04.03.13.07.02-.03-.1,0-.34-.1-.17-.07.13-.02.51-.11.34.03-.06.04-.17.07-.26l-.1-.14v.24c-.03-.06-.02-.08-.02-.11-.04.25-.16.07-.18.35-.05.03-.1-.16-.15-.18v-.02c-.05-.14-.13-.04-.17.12v-.05s-.11.02-.13.16c-.1-.17-.12-.89-.18-.58-.09.02-.07.45-.02.6-.17-.14-.25.27-.46-.06,0,.1.03.15,0,.22-.24-.05-.31.4-.64,0,.02-.11-.08-.22-.13-.35.03.21-.15-.18-.02.17.09.2.12.29.21.35-.07.16-.23.23-.38.08.08.07.08.14.09.21-.15-.31-.26-.32-.26-.17l.09.19-.14-.16c0,.07.19.39.04.25-.04-.07-.09-.14-.13-.18.02.19.1.47-.06.37l-.22-.21s.05.23.15.27c-.21-.07-.29-.04-.49-.22.22.66.03.85-.16,1.01l-.11-.11c-.16-.05.18.2.07.17-.1-.11-.28-.17-.38-.33-.2-.03.12.28.14.37.16.13-.07-.12.12.05.05.05-.2.01.04.21-.11-.05-.29-.2-.38-.29l.09.14c-.34-.14-.41-.53-.82-.73v.08c-.31-.14-.18-.37-.38-.29.07.16.41.46.56.49-.02.17.56.47.47.57-.18-.07.02-.12-.2-.24-.25-.08.04.19-.06.2.13,0,.37.22.4.28-.16-.02-.23-.19-.31-.12.14.11.22.25.36.25.34.23-.15.03.1.22-.27-.11-.53-.4-.71-.37.25.12.27.29.66.43-.09,0-.28-.09-.42-.2-.18-.02.39.35-.11.13l.25.14c-.09-.02-.17-.03-.32-.06-.03.05.28.3-.11.14.04.03-.02.14.27.2.19,0-.17-.16.21-.05-.32-.07,0,.11.1.18l-.16-.05c.05.04,0,.08.16.15-.08-.05-.19-.07-.24-.07l.23.1c.09.12-.43-.11-.39,0l-.16-.13s-.21,0-.14.06c.21.08.47.18.64.25.09.07-.25-.04-.04.06l-.25-.13c-.07-.03-.38-.05-.39.03.06.07.37.21.51.17,0,.03-.15.05-.31,0,.06.1.24.04.36.13-.16,0-.38.05-.61.07l-.36-.14v.06c-.3-.13-.25,0-.56-.09-.06.04.04.11.12.16.53-.04.68.22,1.15.24.11.14-1.15-.02-.43.2.12-.02.48.07.35-.02-.06.08.47.08.27.17-.19-.08-.48.07-.76-.06.16.01.12-.06.08-.08-.18.03-.47-.04-.48.07.04.07.05.15.29.14.27,0-.02-.09.25-.05.09.11-.32.13.16.18-.04-.07.24-.09.42-.08l.12.07h-.18c-.12.11.33.02.29.12l-.35.07c-.3-.01.13-.17-.37-.14-.02.08.24.1.11.18-.04-.01-.06-.04-.1-.05-.02.03-.67.11-.28.2.16.05.18,0,.36-.02.08.12.27.13.31.21-.36.04-.02.15-.39.12.2-.08.16-.25-.19-.26-.42.09.05-.11-.38-.11,0,.12-.43.16-.7.2-.01.04.11.06.15.08.26-.02.25-.06.52-.09-.05.14.11.25.37.28-.12.06-.38.1-.41.05.1.15.12.31.07.49.39-.21.14.14.46-.03.07-.1.35-.24.55-.25-.02.05-.18.05-.26.09.23-.01-.34.19.04.14-.18-.08-.51.13-.83.2.22.05-.23.06-.19.17.21.05.4.13.5.21-.23.26.16.35.22.46-.11.14-.47.28-.49.38.06.08.32-.26.24-.05l-.07.03c.1-.01-.08.36.39.11l-.37.18s.07.01.12,0c-.11.07-.2.17-.29.17-.19.24.15.14.22.21l.16-.19c.25.02.12.25.29.33l-.19.15.17-.02c-.19.13-.24.3-.06.21-.2.06-.41.12-.62.17.06-.15.27-.11.42-.3.13-.16,0-.24-.2-.12.01.06.06.04.15.02-.25.22-.29.14-.5.23.03.02-.02.12.07.06-.17.05-.23,0-.3-.08.15-.01.14-.15.23-.18-.24.16-.38.12-.39-.04.23-.27-.32-.11-.33-.31.29-.09.53-.14.68-.12.08-.16-.06-.09.02-.24-.21.07-.52.21-.71.15l.19-.11c-.15-.05-.44.09-.45-.08-.03-.29-.13-.54-.16-.74l.2-.08c-.48.04-.29-.3-.51-.39.13-.3-.33-.52.02-.72-.23-.42-.42-.85-.31-1.33l.31.09c-.23-.09.18-.05.14-.13-.26.08-.32-.13-.51-.21.26-.19.04-.49-.15-.74l.21.03c-.36-.28.05-.44.17-.66.09,0,.3.01.3-.06-.29-.23-.24-.29-.38-.55.04-.14.23-.33.41-.4-.21-.73.38-1.06.5-1.71l.22.13c-.04-.8.83-.97,1.04-1.46l.23.37c.2.02.2-.29,0-.52.2.01.21-.4.49-.15.18-.01.06-.27.15-.39.36-.02.45-.08.7-.29h-.08c0,.11.08.28.16.27.05-.16.42-.05.13-.49.4.17.67-.49,1.09-.17-.06-.13.01-.18.03-.28.29-.09.64.18.84-.1.05.06-.04.25.07.25.06-.06-.02-.18.06-.27.47-.3.97.23,1.38.2.78-.2,1.56.12,2.26.35l-.05.09c.39-.27.35.6.79.15,0,.11.17.15.04.31.31-.14.33.48.75.36-.02-.02-.04-.01-.09,0,.09.36.49.24.58.6-.05.01-.11,0-.19.08-.05.22.49-.15.2.26.05.04.2-.15.16-.17.34.56,1,.86,1.48,1.39,0,.58-.71.46-.2.59-.07.07.18-.08.09-.02.2.06-.39.45-.11.42.26-.17.18-.02.35-.1-.06.35-.29.5.01.62l-.16.04c.51.08.39.44.96.52.5,1.45.77,3.04.35,4.6-.55,1.45-1.29,2.93-2.69,3.74-.56-.1-.56-.1-.78.28-.03-.07-.01-.09-.07-.13.18.31-.21.17-.07.48-.53.25-.96.57-1.53.77.08-.07.02-.35-.07-.29l-.03.25-.05-.09c-.05.07-.08.26.03.35-.68.38-1.49.44-2.24.33-.76-.09-1.46-.31-2.16-.44-.3-.21-.79-.23-1.17-.3-.87-.86-1.36-1.65-2.33-2.14,0,0,.74-.54,1.15-.46Z"/>
      <path class="cls-2" d="M210.07,60.4c.11-.14.11-.28.34-.38-.12.12-.22.28-.34.38Z"/>
      <path class="cls-2" d="M210.36,57.41c-.05.01.06-.05.08-.06.02.02.17,0,.09.04-.02-.02-.1,0-.17.02Z"/>
      <path class="cls-2" d="M210.33,56.88c.16-.02.3.05.33.11l-.33-.11Z"/>
      <path class="cls-2" d="M210.89,56.34c.13-.05.2-.04.2,0-.08.01-.13,0-.2,0Z"/>
      <path class="cls-2" d="M210.54,56.34s.09-.06.17-.09c-.13.01.09.08-.17.09Z"/>
      <path class="cls-2" d="M211.01,55.42s-.13-.09.04-.08c-.12,0,.18.13-.04.08Z"/>
      <path class="cls-2" d="M210.86,54.96s.04,0,0-.04c.08,0,.18.05.19.07l-.19-.03Z"/>
      <polygon class="cls-2" points="217.45 51.83 217.36 51.86 217.45 51.74 217.45 51.83"/>
      <path class="cls-2" d="M219.67,54.99c.11.03-.14.06-.16.08-.02-.04.19-.02.16-.08Z"/>
      <polygon class="cls-2" points="220.37 57.32 220.37 57.3 220.67 57.38 220.37 57.32"/>
    </g>
  </g>
  <g>
    <path class="cls-1" d="M214.94,97.67c3.31,0,5.99,2.68,5.99,5.99s-2.68,5.99-5.99,5.99c-3.31,0-5.99-2.68-5.99-5.99,0-3.31,2.68-5.99,5.99-5.99Z"/>
    <g>
      <path class="cls-2" d="M215.03,97.09c-.15.06.08.28-.1.12.02-.12.05-.22.1-.12Z"/>
      <path class="cls-2" d="M214.45,97.29c-.2.41-.44.47-.71.46-.26.03-.56,0-.7.35-.04.05-.13-.43-.22-.28-.24.74-.96.7-1.77.7l-.05-.12c-.15,0-.02.41-.14.45-.06-.06-.05-.12-.14-.19.14.21-.09.24,0,.41-.1-.04-.23-.19-.36-.23l.15.26c.35.61-.36.31-.27.74-.04-.05-.07-.11-.13-.13.07.59-.27.94-.32,1.41-.08-.06-.24-.16-.36-.18.26.16.27.31.27.44-.31-.07.19.29-.02.35l-.06-.03c.27.2-.23.08.11.28l-.25-.02c.41.17-.25.08-.06.22l.09.02c.08.1-.14.09-.09.17h-.05c.07.18-.18.23.15.29-.28,0-.1-.18-.5-.17.24.64.15,1.18.2,1.75-.13.08-.16.12-.29.15.08.05.1.21.28.24,0-.02-.17.07-.18.1-.11.13.38.04.26.18-.1-.02-.21-.02-.33.02.29.04.28.18.39.27-.06,0-.1-.02-.2.01.32.04,0,.25.22.3l-.2.02c-.16.25.41-.08.33.11-.07-.01-.14.02-.22.05.39.02.35.27.53.34-.03,0-.08.03-.08.03.11.11.07.32.3.39-.04.1-.43.22-.28.33.34-.21.28.16.61-.17,0,.15.03.4.18.4-.16.04-.34.35-.44.27l-.13.22c-.14.09-.02-.11-.16.04.05.04.28.1.27.18.27-.07.67-.29.82-.21-.17.05-.28.34-.37.34.24-.11.47-.23.71-.36.05.02-.21.23-.08.21.07-.08.14-.1.21-.15-.01.05.23.07,0,.39-.08.13-.12,0-.16.15.08.07.17-.04.26.02l-.03.04c.02.09.26-.01.33-.23-.03-.04-.13.2-.11.07.18-.15.3-.14.38-.08-.06.03-.12.12-.19.2.28-.17.45-.19.63-.23.1-.16-.22.26-.18.17.03.33.5-.14.46.26-.04.02.1-.24.08-.2.07.06-.05.3.05.24-.06.15.08-.01.16-.04.07-.1-.01.08-.07.08.14-.1.5-.2.61.05.03-.1.21-.34.24-.32l-.07.23c0,.15.14.01.1.22.16-.27-.4.16-.23-.04-.02.21.26-.33.16-.02.09.01.22-.23.25,0-.01-.04-.13.32-.06.32.13-.02.06-.11.17-.17l.08-.09c.04-.23.1.05.09-.22,0,.2.18-.09.13.3l-.05.31c.06-.02.12-.32.17-.46,0,.03.01.09,0,.14.04-.47.12.05.2-.32.1.18.26.02.32.31.08-.15.14-.32.24-.22-.02.04-.04.06-.04.16.07.14.08.01.12-.07,0,.08.15.26.24.42.07-.15,0-.4-.01-.56.15.45.17-.32.34.07-.01.07-.07.25.02.35.18.43.08-.38.25-.19l-.13-.37c.12.22.11-.26.2.13,0-.14.18.08.05-.28.29.23.35-.33.74.22,0-.07.1-.04,0-.21-.14-.17,0,.17-.07.04.02-.02-.02-.12-.04-.17.09.05.15.05.24.36.24.14-.16-.63.05-.59.07.14.11.18.14.14l-.06-.28c.13,0,.25.27.39.49.03-.07.11-.1.02-.28l.25.23c-.19-.16-.05-.16-.07-.23v.07c.09.08.11-.02.12-.07-.11-.13-.21-.13-.27-.15-.04-.11.01-.12-.04-.25.15.22.19.09.25.08.08.01-.1-.22-.08-.22.09.1.08-.04.17.13.01.05-.12-.07-.06.04.09.05.24.23.19.05-.04-.14-.35-.38-.16-.32.02.07.09.15.13.23l.17.03-.16-.18c.05.04.06.06.08.08-.15-.2.06-.16-.12-.37.02-.05.19.04.24.02v.02c.15.05.14-.07.05-.21l.04.04s.06-.09-.02-.21c.19.05.71.54.54.28.05-.08-.27-.37-.41-.44.22-.02,0-.37.36-.29-.07-.07-.13-.09-.16-.15.2-.13-.06-.5.45-.45.06.1.22.1.34.15-.17-.13.23.02-.1-.13-.2-.08-.29-.12-.4-.1-.06-.16,0-.32.21-.33-.11,0-.16-.05-.21-.09.32.12.41.04.3-.06l-.2-.07h.22c-.06-.03-.42-.13-.2-.14.08.02.16.03.22.03-.15-.11-.4-.26-.22-.3h.31s-.2-.13-.3-.09c.2-.1.24-.18.5-.19-.62-.31-.63-.58-.6-.83h.16c.14-.08-.27-.02-.17-.07.15.01.32-.08.5-.04.16-.12-.28-.11-.36-.16-.2.02.14.03-.12.05-.07,0,.14-.15-.17-.12.12-.04.35-.06.47-.06l-.16-.04c.34-.14.67.08,1.1-.07l-.06-.06c.31-.12.39.14.47-.06-.16-.06-.62-.04-.74.04-.11-.13-.73.06-.74-.08.17-.08.07.1.31.03.24-.12-.17-.11-.1-.18-.1.09-.42.11-.48.08.12-.1.3-.03.3-.13-.18.03-.33-.02-.43.08-.4.08.09-.12-.23-.08.26-.12.66-.09.77-.24-.26.09-.4-.01-.77.16.06-.06.27-.13.44-.16.14-.11-.52.03-.02-.17l-.27.08c.08-.05.14-.1.27-.18-.01-.06-.41,0-.02-.17-.05,0-.08-.12-.33.05-.13.14.23-.01-.11.18.28-.17-.08-.07-.2-.06l.15-.08c-.07,0-.06-.06-.22,0,.09-.03.19-.08.22-.12l-.23.09c-.15-.02.38-.22.28-.28l.2-.02s.15-.14.05-.14c-.21.09-.46.2-.63.28-.11,0,.21-.15-.02-.07l.27-.08c.07-.03.3-.23.25-.3-.09,0-.41.11-.48.24-.02-.03.07-.15.22-.21-.11-.03-.2.14-.35.16.11-.11.23-.3.38-.48l.36-.16-.03-.05c.29-.12.17-.17.45-.32.02-.07-.11-.04-.2-.02-.34.4-.64.33-.98.65-.17-.02.82-.8.16-.44-.08.1-.39.29-.23.26-.02-.1-.39.27-.31.07.19-.08.29-.39.57-.49-.12.1-.04.13,0,.11.11-.15.36-.31.29-.39-.08-.02-.14-.07-.31.11-.19.19.08.05-.14.21-.14-.02.13-.32-.24-.01.08.02-.11.23-.24.36l-.13.03.14-.12c0-.17-.25.21-.3.11l.2-.3c.22-.21.03.21.36-.16-.05-.07-.24.1-.21-.05.04-.02.07-.01.11-.04,0-.03.4-.55.06-.34-.15.08-.13.13-.24.27-.14-.03-.29.1-.36.07.23-.28-.09-.12.19-.36-.09.2.07.29.32.05.23-.37.05.11.35-.19-.08-.09.19-.41.35-.64-.02-.04-.12.03-.17.05-.17.2-.13.22-.3.43-.07-.14-.26-.1-.46.07.04-.13.2-.34.25-.33-.17-.04-.3-.14-.4-.29-.13.42-.19,0-.31.34.02.12-.08.42-.21.56-.02-.05.09-.16.12-.25-.16.17.1-.37-.12-.07.18-.07.27-.45.45-.73-.19.12.12-.21.01-.26-.19.12-.37.19-.5.21-.02-.34-.36-.14-.48-.17-.02-.18.14-.53.08-.61-.1-.02-.04.41-.13.21l.03-.07c-.06.08-.2-.31-.35.2l.13-.39s-.06.04-.09.08c.03-.13.02-.26.08-.33-.03-.3-.2.01-.3,0l.02.25c-.19.16-.26-.09-.43-.03l.03-.24-.11.14c.04-.23-.04-.38-.1-.19.1-.19.2-.38.32-.56.06.15-.11.27-.09.51.02.21.17.17.23-.06-.06-.04-.07.02-.12.09.02-.33.11-.3.19-.51-.03,0-.07-.1-.09,0,.09-.15.16-.16.27-.15-.1.11,0,.21-.04.3.05-.28.18-.36.3-.25.02.35.3-.15.45-.01-.14.27-.28.47-.39.57.06.17.1.02.16.19.1-.2.22-.52.39-.61l-.06.21c.14-.07.24-.37.38-.26.22.19.47.29.64.41l-.09.2c.31-.37.41,0,.64-.08.12.3.61.14.49.53.46.13.9.3,1.17.72l-.29.15c.23-.09-.1.16,0,.19.12-.24.32-.13.51-.21-.05.32.32.38.62.42l-.17.13c.45-.06.28.35.34.59-.06.07-.22.2-.17.25.37-.04.38.03.66.12.07.13.07.4,0,.58.67.36.48,1.02.85,1.56l-.25.07c.59.53.1,1.27.3,1.77l-.42-.1c-.15.13.06.35.37.37-.15.13.14.43-.24.45-.12.13.15.24.17.39-.24.27-.26.38-.29.7l.05-.06c-.08-.07-.25-.13-.3-.07.08.15-.26.33.26.44-.41.17-.12.82-.65.89.14.05.12.13.18.22-.15.27-.58.32-.52.66-.08,0-.14-.21-.23-.12,0,.09.14.12.15.24-.12.55-.85.52-1.12.84-.41.7-1.19,1.02-1.84,1.35l-.03-.1c-.09.47-.67-.18-.66.45-.09-.07-.23.01-.24-.19-.12.32-.58-.11-.78.28.03,0,.04-.02.06-.07-.31-.19-.51.18-.83-.02.03-.05.08-.08.08-.19-.12-.19-.24.45-.32-.05-.06,0-.04.25,0,.24-.63-.16-1.32.1-2.03.07-.4-.41.17-.83-.28-.56,0-.1-.07.18-.05.08-.18.1-.05-.59-.22-.38-.06.31-.12.14-.18.32-.21-.29-.15-.56-.44-.43l.08-.14c-.42.3-.59-.04-1.05.31-1.38-.67-2.7-1.6-3.5-3.01-.63-1.41-1.16-2.98-.74-4.55.47-.32.46-.32.35-.75.07.03.08.06.14.04-.35-.09.03-.27-.29-.38.2-.54.28-1.08.54-1.62,0,.1.23.26.26.15l-.15-.2.1.03c-.01-.09-.13-.24-.27-.22.21-.76.74-1.36,1.35-1.82.6-.47,1.25-.81,1.84-1.22.36-.06.72-.39,1.04-.62,1.23,0,2.13.21,3.16-.13,0,0-.14.91-.49,1.14Z"/>
      <path class="cls-2" d="M215.22,97.07c.03.18.12.28.03.51,0-.16-.05-.35-.03-.51Z"/>
      <path class="cls-2" d="M217.12,99.39s0,.08-.01.1c-.03,0-.12.12-.09.03.03,0,.06-.08.11-.14Z"/>
      <path class="cls-2" d="M217.52,99.74c-.09.13-.25.18-.31.16l.31-.16Z"/>
      <path class="cls-2" d="M217.51,100.52c-.06.12-.11.17-.14.14.05-.07.09-.09.14-.14Z"/>
      <path class="cls-2" d="M217.76,100.27s-.02.11-.06.19c.09-.1-.12,0,.06-.19Z"/>
      <path class="cls-2" d="M218.08,101.25s.15-.03.03.09c.08-.09-.22.04-.03-.09Z"/>
      <path class="cls-2" d="M218.51,101.47s-.02.04.02.03c-.05.06-.16.09-.18.08l.16-.11Z"/>
      <polygon class="cls-2" points="216.07 108.34 216.1 108.26 216.13 108.41 216.07 108.34"/>
      <path class="cls-2" d="M212.25,107.68c-.1.05.05-.14.06-.17.05.01-.12.15-.06.17Z"/>
      <polygon class="cls-2" points="210.12 106.52 210.13 106.54 209.86 106.7 210.12 106.52"/>
    </g>
  </g>
</svg>