<?xml version="1.0" encoding="UTF-8"?>
<svg id="Layer_3" data-name="Layer 3" xmlns="http://www.w3.org/2000/svg" viewBox="0 0 95 95">
  <defs>
    <style>
      .cls-1 {
        fill: #fff;
      }

      .cls-2 {
        fill: #ff4f20;
      }
    </style>
  </defs>
  <g>
    <path class="cls-1" d="M73.27,36.19c0,14.61-12.56,26.46-28.06,26.46s-28.06-11.85-28.06-26.46h56.13Z"/>
    <g>
      <path class="cls-2" d="M73.79,36.54c-.04-.53-.27.28-.1-.35.11.07.2.18.1.35Z"/>
      <path class="cls-2" d="M71.54,35.82c-1.67.76-3.88,0-5.72.48-.21.03.06-.42-.43-.32-1.78.59-4.58.24-6.75-.22l.13-.12c-.41-.09-.92.31-1.35.25,0-.08.14-.11.04-.22-.11.24-.79.11-.98.29-.17-.09-.16-.28-.38-.38l-.25.27c-.7.64-1.69-.05-2.64.29.05-.06.14-.11.06-.17-1.52.39-3.43.32-5.13.46.07-.1.13-.27.03-.38-.08.28-.61.36-1.07.41-.21-.29-.78.27-1.32.11l.05-.06c-.4.3-.59-.18-.91.19l-.25-.23c-.17.41-.57-.21-.9,0v.08c-.3.1-.46-.11-.74-.04l-.03-.05c-.67.11-1.06-.12-1.04.2-.23-.26.65-.12.28-.49-2.2.33-4.48.27-6.7.27-.25-.13-.41-.17-.47-.29-.22.06-.83.06-1.04.22.07,0-.14-.16-.26-.18-.4-.12-.44.35-.88.21.18-.09.24-.19.18-.31-.38.25-.88.21-1.33.29.07-.05.18-.09.16-.19-.49.28-.89-.06-1.32.12l.16-.19c-.69-.22-.2.39-.8.25.14-.06.09-.13.12-.21-.56.34-1.46.23-2.01.34.03-.03.02-.08.02-.08-.6.04-1.24-.06-1.9.08-.24-.08.08-.45-.56-.38.02.37-1.09.15-.71.57-.55-.06-1.41-.2-1.78-.07.25-.14-.27-.45.19-.49l-.34-.22c.05-.15.35.05.24-.14-.23.01-.89.16-1.1.1-.42.23-.81.65-1.49.7.32-.14-.18-.41.04-.47l-.95.71c-.22.02-.07-.29-.36-.2.02.1-.09.16-.15.24-.08-.04-.58.09-.89-.27-.18-.14.27-.08-.02-.21-.38,0-.3.13-.65.13l-.05-.05s-.07,0-.11,0h-.05s.01.07.01.07c.02.09.05.19.09.28.08.18.19.3.29.27,0-.13-.23-.14-.13-.26.23.36.31.72.33,1-.07-.13-.17-.17-.27-.27.33.61.41.91.58,1.36.09,0,0-.05-.1-.11-.09-.03-.19-.09-.15-.12-.06.11-.03.35.02.53.05.19.12.38.18.57.13.37.25.72.13,1.08-.05-.1.23-.1.19-.09.04.37-.22.41-.08.63-.14.06.13.29.24.52.14.1-.05.08-.13-.13.24.31.75,1.6.85,2.42.09-.05.52.34.57.51h-.24c-.07.22.24.58.07.69.4.27-.78-1.34-.38-.92-.13.2.61.57.28.57.14.35.51.58.44,1,0-.11-.4-.16-.28.12.28.46.17.09.43.44l.21.2c.21-.08.19.43.32.15-.13.14.45.63.1.75l-.29.07c.12.2.44.19.63.29-.01.04-.03.12-.08.14.39-.18.26.48.7.54.13.48.64,1.02.54,1.37.3.24.65.4.83.79-.09-.04-.17-.12-.26-.08.06.29.2.27.4.41-.09,0,.13.58.19.91.33.21.44-.05.57-.12-.14.57.92.56.9,1.14-.13-.05-.53-.24-.4.06-.08.55.71.27.93.81l.16-.36c0,.35.71.4.42.63.23.02.41.5.6.2.24.4.68.72,1.05,1.04.38.31.75.58.78,1,.14.03.37.26.42.07-.06-.28-.32-.05-.31-.21.1.06.18,0,.21-.04.18.23.34.37-.04.46.39.53.84-.11,1.43.41-.11.11-.09.18.13.28h.51c.41.3.08.43-.03.65.26.1.54.28.74.17l.14.44c-.1-.33.26-.01.41-.02h-.14c0,.12.32.19.48.23.03-.15-.23-.34-.37-.46.17-.04.36.07.58.03-.16.19.33.34.51.45.2.15.34-.08.41-.05-.05.12.36.19.11.27-.09,0-.13-.19-.3-.15.11.15,0,.35.38.34.28,0,.13-.47.51-.13-.14,0-.2.08-.32.12l.37.31.1-.2c.03.08-.01.08,0,.12.21-.17.68.16.87-.05.22.05.4.3.6.4h-.05c.21.22.57.25.83.18l-.03.04c.13.07.47.14.68.05.31.25-.1.84.37.67.37.08.67-.26.56-.43.62.3,1.41.15,1.97.55.11-.08.06-.14.26-.16.96.23,2.05.05,2.8.48-.29.08-.03.22-.03.35.25-.19.27.22.38-.12-.01-.2.01-.3-.26-.39.59-.09,1.46-.02,1.79.15-.16-.09-.04-.15.09-.22-.04.32.39.35.72.22l.04-.2.22.19c.12-.07.12-.42.45-.24.02.07.04.15.11.2.33-.18.77-.45,1.15-.34l.33.24c.15-.05.39-.26.11-.3.63.08,1.03.05,1.27.26.24-.19.52-.34.81-.47.29-.16.6-.29.92-.41.63-.25,1.32-.35,1.9-.55v.15c.36.02.09-.3.34-.28-.06.17.33.21.14.45.5-.01.5-.44.77-.61-.02-.2-.19.2-.22-.05.03-.08.67-.07.64-.37.15.07.14.3.12.43l.22-.23c.47.2-.56.83-.05,1.1l.25-.13c.36.2-.58.56.13.43.24-.23.32-.72.02-.74.54-.33,0-.76.61-1.01.23.08-.46.25-.25.42.38.09.52-.38.8-.42-.32.03-.21-.35-.06-.48.36-.01-.08.34.36.17,0-.18.34-.47-.05-.43-.02-.42.49-.1.58-.48.26.17-.14.78.37.65-.19-.19.39-.63-.03-.83.21-.03.32.13.27.35.33,0,.37-.76.71-.36l-.05-.28c.12.03.27.02.47.07.23-.12.52-.71.71-.37.05-.08.53-.4.19-.5-.39.06-.22.41-.59.2.38.12.4-.33.51-.53l.11.11c.07-.12.32-.26.28-.44-.03.13.07.18.18.16l-.03-.27c.34-.38.34.27.7-.07l-.2.36c.04-.08.31,0,.46-.19-.05-.22-.07-.53-.11-.7.16-.24.24.11.31-.23l-.11.43c0,.09.4.12.68-.12.13-.21.21-.69-.14-.54.14-.12.42-.19.41.02.27-.33-.19-.14,0-.47.2.01.69-.13,1.04-.16l-.05.51.2-.16c-.06.43.28.05.34.4.17-.08.26-.3.32-.48-.69.02-.06-.89-.48-1.09.38-.57,1.07.44,1.07-.56-.17,0-.18-.46-.38-.07.33-.27-.13-.51.35-.74-.12.39.61,0,.44.57-.08-.12-.29.14-.32.23.25-.01.3.33.61,0,.17-.21.37-.53.17-.63-.2-.16-.23.34-.32.04.26-.47.62-.3.41-.76-.18.29-.43.18-.56.07l.16-.37.08.16c.48-.41-.13-.33.28-.77l.44-.02c.14.28-.64.6-.21.81.26-.3.15-.54.48-.76-.02.09-.08.18-.1.27.09-.1.7.16.73-.52.04-.33-.09-.16-.23-.27.3-.56.25-.82.45-1.17.24.25.42-.58.47-.02-.28.07-.76.84-.61,1.22.45.03-.3.4-.08.73.32-.41.61-.18.88-.09.1-.11.08-.3.1-.39-.17-.19-.27-.03-.48-.16.37-.45.56-1,.53-1.38.21-.1.39.08.28.28.34-.6.65-1.27,1.03-1.82-.55.2.25-.69-.18-.58-.24.27-.63.4-.7.16.12-.18.15.08.27.04-.07-.34.51-.23.32-.61-.16.6.39.31.62.55.05-.48.19.11.4-.29.01-.5.08-1.07.2-1.57.25-.24.41-.62.5-1,.07-.39.1-.78.16-1.06.23-.24.52.04.66-.26.09-.37-.44.18-.14-.33l.05.07c-.03-.18.51-.96,0-1.23l.35.25c.05-.1-.02-.21-.05-.31.12.02.25-.08.31.11.32-.3.08-.75.13-1.12l-.26.21c-.09-.67.26-1.06.19-1.71l.22.04-.11-.39c.21.11.37-.23.2-.44l.49,1.04c-.15.26-.25-.33-.48-.17-.1.06-.14.24-.13.42,0,.18.03.35.13.41.06-.22.02-.24-.04-.42.32-.04.25.3.43.49,0-.12.13-.28.03-.32.11.25.1.49.04.89-.08-.28-.21.12-.28,0,.26.07.29.46.13.93-.36.29.06.95-.2,1.49-.21-.29-.33-.62-.38-.97-.19.32-.09.38-.31.69.16.21.43.4.43.89l-.2-.03c-.01.43.28.52.08,1.03-.37.86-.74,1.73-1.02,2.38l-.2-.05c.29.55-.42,1.24-.48,1.8-.3.35-.46.82-.66,1.21-.21.38-.41.71-.68.81-.69,1.44-1.47,2.62-2.6,3.82l-.03-.4c-.04.36-.26.02-.42.26.4-.08-.05.49-.06.77-.67.38-1.14,1.23-1.53,1.79l-.15-.14c-.27.7-1.05,1.02-1.76,1.43-.13-.01-.36-.08-.55.08-.17.52-.38.64-.8,1.19-.38.3-1.13.58-1.61.72-.33.32-.7.61-1.08.87-.39.24-.81.44-1.23.64-.42.2-.84.4-1.26.61-.43.19-.87.36-1.29.58l-.21-.18c-.39.27-.83.49-1.29.68-.47.15-.96.27-1.45.37-.48.11-.96.21-1.41.31-.46.07-.88.15-1.26.27l.09-.42c-.5-.06-1.08.26-.93.53-.5-.03-1.21.34-1.55,0-.51-.05-.6.22-1.02.29-.51-.05-.85-.07-1.19-.06-.34-.02-.67,0-1.15.01l.24.04c.11-.08.12-.26-.11-.29-.36.1-1.29-.17-.97.33-1-.28-2.4-.03-3.33-.53.06.14-.19.13-.31.21-.89-.15-1.74-.67-2.49-.61-.12-.1.28-.16-.07-.26-.22,0-.05.17-.33.17-.74-.07-1.42-.41-2.07-.71-.32-.16-.64-.32-.96-.48-.3-.18-.61-.33-.91-.45-.56-.19-1.12-.39-1.67-.62-.53-.27-1.06-.56-1.57-.86-1.06-.55-1.97-1.33-2.92-1.94l.08-.06c-.85-.16-1.11-1.43-1.94-1.39-.07-.19-.49-.48-.26-.53-.62-.23-1-1.38-1.85-1.77.05.06.09.08.19.12-.46-.76-1.12-1.22-1.56-2.06.09.05.22.16.32.12-.07-.39-.86-.42-.59-.85-.11-.17-.27.01-.19.11-.46-.91-1.1-1.74-1.66-2.64-.51-.92-1.18-1.79-1.58-2.79-.29-1.52.7-.37-.05-1.36.05-.12-.2,0-.11-.05-.3-.39.26-.83-.06-1.06-.24.21-.21-.16-.38-.12-.06-.95.14-1.18-.26-1.82l.16.02c-.61-.73-.5-1.76-1.12-2.4l-.08-.44c-.02-.17-.03-.45-.05-.67l-.1-1.42-.1-1.43-.05-.72c0-.22-.15-.58.21-.48,1-.02,1.99-.04,2.98-.06l1.25-.03.82-.03c2.17-.09,4.33-.17,6.51-.2,4.31.09,8.52-.13,12.9.13,1.02.4,1.1.39,2.23.23-.05.06-.12.08-.04.14.06-.33.79-.03.9-.34,1.62.06,3.11-.03,4.77-.03-.26.04-.4.3-.08.28l.33-.21.05.09c.21-.05.45-.21.23-.32,4.18-.28,8.29.37,12.38.29.97.14,2.36.01,3.41-.06,3.13.44,5.95.79,9.13.48,0,0-.41.85-1.73,1.04Z"/>
      <path class="cls-2" d="M73.79,37.18c-.17.11-.28.47-.48.17.16-.03.34-.21.48-.17Z"/>
      <path class="cls-2" d="M70.02,46.1s-.12.09-.16.1c.04-.11-.03-.26.08-.31-.03.11.04.13.08.2Z"/>
      <path class="cls-2" d="M68.85,48.17c-.11-.11.02-.61.13-.88l-.13.88Z"/>
      <path class="cls-2" d="M67.16,49.68c-.2.09-.23,0-.09-.2.07.03.06.12.09.2Z"/>
      <path class="cls-2" d="M67.35,50c-.09.16-.23.17-.35.19.11.07.19-.38.35-.19Z"/>
      <path class="cls-2" d="M63.96,53.29c-.07.09-.15.36-.35.3.18.02.26-.52.35-.3Z"/>
      <path class="cls-2" d="M62.47,54.9c-.06.04-.1.04-.14.12-.14.03-.1-.14-.03-.22l.16.1Z"/>
      <polygon class="cls-2" points="25.52 53.47 25.74 53.6 25.61 53.67 25.52 53.47"/>
      <path class="cls-2" d="M18.34,38.09c-.1-.18.14-.03.16-.04.02.12-.19-.13-.16.04Z"/>
      <polygon class="cls-2" points="25.73 36.55 25.65 36.56 25.68 36.26 25.73 36.55"/>
    </g>
  </g>
  <g>
    <path class="cls-1" d="M56.71,57.18c-12.34-15-27.43-5.84-27.43-5.84-.47.47-7.34,21.87,4.53,25.93,11.87,4.06,23.21-19.47,23.21-19.47"/>
    <g>
      <path class="cls-2" d="M56.14,57.37c.28.2.08-.3.24.09-.12.04-.23.05-.24-.09Z"/>
      <path class="cls-2" d="M56.18,58.63c.17,1.32-1.21,2.2-1.4,3.47-.04.14-.34-.24-.41.08-.08,1.3-1.38,2.67-2.55,3.55l-.05-.14c-.22.17-.09.66-.3.86-.07-.04-.04-.14-.16-.15.15.19-.21.48-.14.68-.14.04-.29-.08-.45-.03l.12.29c.25.75-.69.85-.81,1.53-.03-.06-.03-.14-.11-.14-.31,1.02-1.17,1.93-1.82,2.84-.04-.1-.14-.24-.26-.27.17.23-.01.53-.18.79-.3-.1-.17.55-.53.69l-.02-.07c.03.4-.4.14-.29.56l-.28-.05c.2.38-.42.1-.44.39l.06.06c-.08.21-.3.13-.39.31l-.04-.02c-.26.37-.61.35-.4.59-.28-.1.26-.36-.17-.49-.88,1.18-2.16,2.02-3.46,2.69-.2-.03-.32-.03-.4-.12-.1.12-.47.27-.53.48.04-.03-.15-.11-.23-.1-.28,0-.14.43-.47.4.08-.12.08-.23,0-.33-.15.31-.48.39-.73.56.03-.06.09-.12.05-.21-.23.36-.58.08-.81.32l.06-.2c-.48-.12-.05.42-.46.36.08-.07.04-.14.04-.21-.31.36-.92.36-1.29.46.02-.03.01-.08.01-.08-.41.02-.82-.03-1.28.03-.15-.1.1-.44-.32-.43-.04.38-.73.04-.57.49-.35-.16-.88-.44-1.15-.4.2-.08-.01-.49.27-.42-.05-.09-.09-.19-.13-.29.08-.13.19.13.19-.07-.13-.04-.58-.06-.67-.16-.34.12-.75.4-1.18.2.26-.02.09-.42.25-.4-.29.11-.6.22-.92.3-.14-.08.13-.27-.1-.32-.05.09-.16.08-.26.1-.02-.07-.6-.31-.41-.64.04-.15.24.1.19-.11-.21-.18-.3-.1-.51-.29l.03-.04c-.1-.16-.52-.26-.51.02.09.1.12-.19.19.02-.25.07-.54-.14-.73-.37.11.04.18-.04.28-.08-.47-.1-.83-.37-1.17-.68-.15.1.35-.04.32.06-.06-.3-.3-.49-.52-.69-.2-.21-.38-.42-.34-.71.06.05-.2.15-.16.12-.11-.25.11-.35-.04-.47.13-.08-.13-.18-.25-.33-.14-.04.05-.07.13.07-.24-.16-.82-1.05-.79-1.68-.09.04-.44-.25-.46-.38h.23c.1-.16-.14-.44.05-.51-.34-.2.51.99.21.68.16-.15-.49-.42-.17-.42-.08-.25-.4-.45-.23-.75-.02.08.35.14.29-.06-.11-.36-.13-.08-.26-.36l-.13-.17c-.22.03-.03-.34-.25-.16.17-.08-.19-.53.18-.54h.29c-.04-.15-.34-.21-.49-.32.02-.02.08-.07.12-.07-.45.03-.02-.39-.37-.54.12-.36-.07-.87.21-1.05-.15-.25-.32-.48-.23-.78.04.06.06.14.16.15.12-.19,0-.23-.07-.4.07.04.26-.38.42-.58-.13-.25-.37-.17-.52-.19.43-.23-.27-.73.14-1.02.06.09.2.38.32.17.45-.21-.32-.48-.08-.85l-.37.07c.24-.15-.17-.57.19-.51-.12-.14.15-.43-.21-.42.35-.59-.04-1.53.65-1.82-.05-.09.04-.3-.15-.28-.21.12.12.22-.03.26,0-.08-.1-.11-.14-.12.1-.18.15-.33.42-.11.27-.39-.54-.52-.32-1.04.14.05.2.02.2-.15l-.2-.34c.12-.34.36-.14.61-.11-.01-.19.04-.41-.13-.53l.35-.16c-.25.12-.12-.18-.16-.28l.04.1c.11-.01.09-.24.08-.35-.16,0-.26.2-.33.31-.09-.11-.04-.26-.14-.41.23.09.23-.27.29-.41.09-.16-.17-.23-.15-.28.13.02.08-.27.22-.1.03.07-.15.1-.06.22.12-.09.33-.03.22-.29-.08-.2-.48-.06-.26-.35.04.1.13.14.2.22l.19-.28-.21-.06c.06-.03.08,0,.11,0-.21-.14.04-.48-.2-.61.01-.16.23-.29.29-.43v.03c.19-.15.16-.4.06-.59l.04.02c.04-.09.07-.33-.02-.49.23-.2.83.15.64-.2.07-.25-.28-.51-.44-.45.29-.42.06-.96.67-1.53-.04-.14-.12-.11-.07-.33.16-.2.27-.46.48-.63.22-.15.46-.3.69-.44.26-.16.38-.2.55-.25.16-.04.33-.06.5-.02-.15.17.08.21.14.32.07-.25.27.11.18-.23-.1-.18-.12-.27-.34-.27.34-.26.94-.51,1.22-.42-.14-.05-.08-.14-.02-.22.09.31.39.25.57.07l-.03-.2.21.14c.06-.09-.04-.42.24-.32.04.07.07.14.13.17.17-.24.43-.59.73-.5l.29.22c.1-.06.23-.28.02-.3.48.04.76-.02.96.19.61-.74,1.73-1.03,2.64-1.06v.15c.25.11.09-.27.27-.19-.06.15.22.28.05.47.36.11.41-.31.63-.4.02-.2-.17.14-.15-.1.03-.08.49.1.53-.18.1.11.04.33,0,.45l.2-.15c.27.33-.54.62-.25,1.03l.18-.05c.2.3-.47.36,0,.45.19-.15.35-.58.15-.7.43-.09.17-.7.65-.69.13.17-.38.05-.28.29.23.23.44-.14.64-.07-.22-.1-.04-.4.11-.46.24.13-.16.28.19.3.06-.17.38-.3.1-.41.13-.39.36.1.56-.18.1.28-.37.59,0,.75-.05-.26.48-.32.3-.71.15.09.15.29.04.44.2.17.55-.43.58.08l.09-.26c.06.09.15.16.25.31.18.02.64-.31.58.09.07-.05.49.04.36-.26-.24-.22-.33.17-.44-.22.15.31.39-.01.56-.07v.16c.1-.04.31.03.39-.12-.08.07-.06.18,0,.23l.13-.21c.4-.04.02.42.39.43l-.31.13c.07-.03.15.21.33.17.11-.2.28-.42.38-.58.23-.05.04.25.29.08l-.32.2c-.05.06.1.38.37.43.19-.04.53-.29.28-.45.14.02.3.19.15.32.32,0,.02-.24.31-.29.07.17.35.47.48.74l-.36.26.17.06c-.3.2.05.25-.16.5.1.08.27.03.41,0-.2-.57.59-.51.63-.96.53.05-.05,1.11.68.63-.04-.14.32-.37-.04-.35.29.15.37-.35.66-.05-.33.07.11.53-.36.63.08-.13-.17-.17-.24-.15.06.2-.18.41.12.51.19.03.43.14.49-.09.09-.24-.28-.1-.07-.29.39.09.29.47.62.13-.24-.07-.19-.34-.12-.5l.31.03-.12.13c.38.31.25-.22.65.02l.05.39c-.22.21-.55-.4-.66.06.25.14.44-.03.64.2-.07,0-.15-.02-.23,0,.09.06-.09.66.44.51.26-.03.13-.12.21-.28.44.16.67.04.94.19-.22.26.43.32-.02.44-.01-.28-.63-.57-.94-.34-.03.43-.3-.21-.57.11.33.17.13.51.06.77.08.06.22,0,.29,0,.15-.2.03-.25.14-.48.35.22.73.32,1.05.24.05.18-.11.36-.25.3.44.2.86.51,1.2.82-.03-.49.48.2.5-.18-.16-.21-.18-.56.04-.64.12.11-.1.14-.09.25.29-.07.06.46.42.28-.45-.14-.35.35-.6.56.37.03-.14.17.12.34.37.01.74.17,1.05.34.15.52.84.72,1.15.97.05.25-.29.43-.16.61.2.16.11-.41.29-.04l-.08.03c.15.01.37.62.78.36l-.35.19c.02.08.13.06.2.08-.09.09-.11.23-.24.21-.03.36.36.33.54.51l.05-.28c.42.2.46.57.8.82l-.17.14.27.09c-.2.1-.15.36.07.34l-.84-.11c-.02-.22.33-.04.42-.27.08-.2-.23-.45-.43-.34.08.13.12.1.26.13-.19.25-.34.07-.56.13.06.05.07.19.15.14-.21,0-.33-.1-.5-.28.2.04.07-.2.18-.21-.21.17-.43.06-.58-.22.08-.39-.53-.28-.75-.56.29-.11.59-.16.83-.08-.07-.26-.19-.16-.27-.41-.22.08-.5.26-.8.17l.12-.16c-.27-.09-.47.13-.68-.12-.37-.44-.82-.83-1.14-1.13l.11-.17c-.46.22-.77-.31-1.15-.33-.36-.47-1.1-.48-1.16-.94-.95-.29-1.76-.53-2.65-.99l.27-.22c-.25.15-.05-.19-.24-.21.11.28-.34.21-.52.34-.35-.35-.97-.29-1.39-.21l.04-.2c-.47.23-.85-.13-1.33-.3-.04-.09-.09-.3-.24-.3-.32.27-.45.22-.86.35-.28-.02-.73-.14-1.01-.28-1.09.34-2.17.11-3.26.46l-.1-.23c-.51.33-1.1.38-1.67.48-.57.11-1.13.15-1.54.4l-.02-.42c-.31-.04-.61.29-.46.54-.31-.04-.63.38-.91.12-.3.03-.28.3-.49.43-.61.04-.8.16-1.28.45l.14-.03c.02-.11-.04-.27-.18-.24-.15.18-.74.2-.35.56-.29-.02-.71.24-.67.28-.07.07-.07.14-.27.14.12.05.13.1.21.15-.1.19-.2.39-.29.57-.11.23-.19.46-.14.7-.09.06-.18-.19-.25.01.01.14.17.05.2.22,0,.89-.69,1.62-.79,2.41-.04,1.42-.41,2.83-.52,4.16l-.1-.03c.32.48-.49,1.01.05,1.41-.1.1-.07.4-.25.31.23.37-.3.98.02,1.5.01-.05,0-.07-.05-.13-.23.51.07.96-.11,1.51-.04-.05-.08-.15-.18-.17-.18.22.43.48-.03.61,0,.12.24.07.22,0-.12,1.19.33,2.41.71,3.51-.05.88-.75.26-.24.81-.07.08.18-.01.09.02.2.2-.37.55-.07.64.25-.17.19.06.36,0-.01.55-.17.74.18,1.03l-.15.04c.59.24.65.83,1.28.86.71.98,1.62,1.69,2.64,2.15,1.04.47,2.13.71,3.18.73,2.15.19,4.26-.99,6.46-2.31.73-.03.77-.09,1.19-.65.02.07,0,.11.07.12-.18-.27.35-.33.19-.61.77-.61,1.37-1.3,2.06-2.05-.09.14.05.39.17.23v-.29s.08.04.08.04c.06-.13.03-.34-.14-.32,1.51-2.07,3.58-3.73,4.96-5.94.45-.44.82-1.24,1.12-1.85,1.4-1.45,2.63-2.89,3.24-4.8,0,0,.17.14.3.4.14.26.24.62.13,1.04Z"/>
      <path class="cls-2" d="M55.85,57.09c.08-.16-.02-.39.28-.4-.1.12-.15.32-.28.4Z"/>
      <path class="cls-2" d="M52.32,51.51s-.04-.11-.04-.14c.08.04.22-.04.23.07-.08-.04-.11.03-.18.07Z"/>
      <path class="cls-2" d="M50.94,50.51c.1-.11.47,0,.66.09l-.66-.09Z"/>
      <path class="cls-2" d="M49.84,49.18c-.07-.17,0-.21.17-.13-.02.07-.1.08-.17.13Z"/>
      <path class="cls-2" d="M49.58,49.43c-.12-.06-.14-.16-.17-.26-.05.11.32.07.17.26Z"/>
      <path class="cls-2" d="M46.46,47.7c-.09-.02-.3.04-.33-.14.05.14.46-.05.33.14Z"/>
      <path class="cls-2" d="M44.81,47.46c-.05-.02-.07-.05-.14-.02-.08-.08.04-.17.13-.17v.19Z"/>
      <polygon class="cls-2" points="25.81 63.02 25.75 62.84 25.89 62.88 25.81 63.02"/>
      <path class="cls-2" d="M28.96,75.26c.19.08-.02.19-.02.22-.12-.12.18-.07.02-.22Z"/>
      <polygon class="cls-2" points="35.34 78 35.29 77.99 35.35 77.7 35.34 78"/>
    </g>
  </g>
  <g>
    <path class="cls-1" d="M44.31,51.13s-5.04,1.15-9.72,20.05"/>
    <g>
      <path class="cls-2" d="M44.43,51.66c0-.07-.08-.24-.02-.11.02.12.05.2.02.11Z"/>
      <path class="cls-2" d="M35.02,71c-.67-.45.17-.6-.23-1-.02-.04.4.11.32.01-.5-.43-.04-.77.49-.99l.11.05c.1-.04-.26-.22-.19-.27.08.02.1.05.21.06-.22-.08-.07-.15-.24-.23.1,0,.28.05.38.04l-.25-.11c-.59-.28.11-.25-.17-.49.06.02.1.05.16.06-.32-.34-.15-.61-.21-.92.09.04.25.09.36.11-.27-.09-.31-.19-.35-.28.29.05-.22-.2-.04-.23l.06.03c-.27-.15.2-.04-.14-.19l.23.03c-.39-.14.23-.03.05-.14l-.08-.02c-.08-.08.12-.04.07-.11h.05c-.07-.12.16-.12-.14-.21.26.04.08.13.46.18-.21-.43-.05-.77.05-1.11.13,0,.18-.01.3.01-.05-.05-.02-.15-.16-.23,0,.01.16.03.18.01.13-.03-.32-.17-.16-.2.07.05.17.09.29.12-.22-.13-.16-.2-.21-.29.05.03.07.05.17.08-.24-.16.1-.12-.05-.24l.17.08c.25-.04-.36-.15-.2-.2.05.04.12.05.19.08-.29-.19-.14-.29-.22-.41.02.01.07.03.07.03,0-.11.12-.17.02-.32.09-.01.42.16.39.04-.35-.11-.09-.21-.51-.29.09-.06.26-.15.16-.25.12.08.44.11.45.19l.23.02c.14.06-.07.04.12.08,0-.04-.11-.19-.04-.2-.19-.14-.57-.34-.58-.46.12.1.4.11.44.16l-.62-.38s.28.09.2,0c-.09-.03-.14-.07-.21-.11.04,0-.04-.18.31-.07.14.03.05.08.19.09.02-.07-.1-.11-.08-.18l.05.02c.07-.02-.1-.18-.31-.2-.02.03.21.06.1.07-.19-.1-.22-.2-.2-.26.05.04.14.07.23.12-.24-.18-.29-.31-.37-.44-.16-.06.28.14.19.13.27-.04-.22-.37.15-.35.02.03-.23-.08-.19-.06.04-.05.28.04.21-.03.14.05-.03-.06-.05-.12-.09-.06.07.01.07.06-.1-.1-.22-.4.03-.45-.09-.03-.3-.21-.28-.23l.21.09c.14.02.02-.11.2-.04-.23-.16.13.33-.04.16.19.05-.29-.25-.01-.12.02-.06-.2-.21.02-.19-.04,0,.28.16.28.11,0-.1-.09-.06-.14-.16l-.07-.08c-.21-.08.06-.06-.19-.12.17.06-.06-.16.28-.02l.27.12s-.26-.17-.37-.25c.03,0,.09.02.13.04-.41-.17.07-.07-.24-.24.17-.02.09-.19.36-.12-.1-.11-.23-.22-.11-.25.03.03.04.05.12.09.14,0,.03-.05-.02-.11.06.03.28.02.44.03-.1-.11-.33-.18-.46-.24.43.12-.19-.27.21-.18.05.04.16.17.28.16.43.12-.25-.23-.02-.23l-.34-.12c.22.05-.14-.21.2-.05-.11-.08.15-.05-.18-.18.34-.02-.02-.41.6-.24-.05-.04.03-.07-.14-.13-.2-.05.11.1-.02.06,0-.02-.09-.07-.13-.09.09-.01.13-.03.38.13.24,0-.51-.35-.33-.41.13.07.19.08.18.03l-.2-.17c.09-.06.32.09.55.2-.02-.06.01-.11-.15-.2l.31.08c-.22-.06-.12-.1-.17-.14l.05.05c.1.04.06-.04.04-.08-.14-.06-.22-.04-.27-.03-.09-.07-.05-.09-.16-.17.22.11.19,0,.23-.02.07-.02-.18-.14-.16-.14.12.05.05-.05.2.05.03.03-.13-.02-.04.05.1.02.3.11.18,0-.09-.09-.44-.2-.26-.2.05.05.13.09.2.14h.15s-.2-.11-.2-.11c.06.01.07.03.1.04-.2-.12-.01-.14-.24-.27,0-.05.18,0,.21-.03h.01c.14.03.09-.06-.03-.16l.04.02s.02-.08-.08-.17c.18.02.76.35.54.17.02-.06-.32-.27-.46-.31.19-.04-.08-.32.28-.26-.07-.06-.13-.07-.16-.13.15-.11-.08-.45.38-.36.06.09.19.11.31.17-.16-.13.21.06-.09-.12-.18-.09-.26-.14-.36-.14-.04-.14.03-.28.23-.24-.1-.02-.14-.07-.18-.12.28.16.36.12.29.01l-.17-.1.19.07s-.35-.22-.15-.18c.07.03.14.07.19.09-.11-.13-.3-.34-.13-.31l.27.1s-.14-.17-.24-.16c.2-.01.26-.06.49.03-.43-.47-.32-.73-.15-.89l.12.08c.15.02-.2-.16-.09-.14.11.09.28.12.4.25.18.01-.16-.23-.18-.31-.16-.11.08.1-.12-.04-.05-.05.19-.02-.05-.19.11.04.28.17.37.25l-.09-.12c.32.13.43.45.82.62v-.06c.27.13.21.29.36.25-.09-.12-.42-.38-.56-.42,0-.13-.56-.42-.47-.5.16.07-.02.1.2.21.23.08-.05-.16.05-.16-.12-.01-.34-.21-.37-.27.15.03.21.18.28.13-.13-.1-.19-.24-.33-.25-.3-.24.14-.02-.08-.22.24.13.47.42.63.42-.22-.13-.23-.29-.57-.47.08.01.25.12.37.23.16.05-.32-.37.11-.1l-.21-.17c.08.03.14.06.28.11.03-.03-.2-.33.12-.09-.02-.04.05-.11-.19-.24-.18-.04.12.18-.21,0,.28.14.03-.1-.03-.19l.13.08c-.03-.05.02-.08-.1-.19.06.07.15.12.19.13l-.17-.16c-.04-.15.35.23.35.11l.1.16s.17.07.14,0c-.16-.15-.35-.32-.47-.43-.04-.1.21.13.06-.05l.17.21c.05.05.31.18.35.12-.03-.08-.24-.32-.37-.34.02-.03.15,0,.26.13-.01-.11-.19-.13-.25-.27.13.06.34.12.54.21l.24.28.03-.03c.19.22.19.11.41.32.06,0,0-.09-.05-.16-.43-.23-.46-.49-.82-.75-.01-.18.89.62.44.07-.1-.06-.32-.32-.28-.18.09-.03-.3-.33-.1-.28.09.17.39.23.53.48-.11-.1-.12-.03-.1.01.15.08.34.29.39.23,0-.06.04-.12-.14-.26-.19-.16-.03.08-.2-.11,0-.13.3.11,0-.22-.02.07-.22-.09-.36-.2l-.03-.13.12.12c.17-.01-.21-.23-.09-.29l.29.18c.19.21-.21.05.15.34.06-.04-.1-.22.04-.19.02.04.01.06.03.1.03-.01.51.38.31.06-.07-.14-.11-.12-.24-.24.04-.13-.07-.28-.03-.35.23.25.13-.08.31.22-.18-.11-.28.04-.07.29.33.24-.1.03.18.33.07-.06.36.21.56.37.03,0-.04-.1-.06-.14-.17-.17-.19-.15-.38-.32.11-.03.08-.2-.04-.41.11.06.28.24.27.28.04-.14.16-.21.29-.24-.33-.23.03-.16-.23-.37-.11-.02-.35-.18-.44-.34.05-.01.12.13.19.18-.11-.2.3.2.1-.09,0,.18.32.37.51.62-.06-.19.15.16.21.11-.06-.18-.08-.36-.05-.47.28.15.23-.18.31-.26.14.09.32.4.4.41.05-.05-.27-.28-.09-.21l.03.06c-.02-.09.29.1.03-.34l.19.34s0-.06,0-.11c.07.1.15.19.17.27.19.19.08-.1.13-.15l-.15-.17c0-.22.19-.06.25-.18l.1.2v-.15c.08.2.19.3.14.12.02.19.06.38.11.56-.1-.1-.09-.26-.21-.44-.11-.16-.17-.06-.08.14.04,0,.02-.04,0-.12.16.27.1.28.19.47,0-.02.07.05.03-.03.04.15.03.18-.01.22-.03-.12-.12-.15-.15-.23.14.24.14.33.04.31-.22-.23,0,.24-.1.21-.14-.24-.23-.44-.25-.56-.13-.08-.05.04-.17-.04.1.18.27.45.3.59l-.13-.16c.01.12.2.36.11.36-.16,0-.27.08-.36.14l-.14-.15c.25.36-.03.25.05.44-.23-.05-.06.33-.36.13-.04.28-.06.54-.27.67l-.2-.22c.14.17-.15-.09-.14-.03.21.11.2.24.32.38-.25-.07-.13.21-.03.41l-.16-.12c.24.31-.09.2-.21.26-.08-.04-.24-.13-.25-.09.22.25.19.26.3.45-.04.05-.18.1-.32.09.24.48-.15.54-.07.92l-.21-.11c.28.48-.27.53-.16.86l-.34-.22c-.14,0,.01.2.27.32-.14,0,.08.25-.23.13-.1.03.12.17.14.25-.21.05-.2.12-.2.27l.04-.02c-.07-.06-.22-.14-.26-.12.07.1-.19.11.26.3-.32,0,.05.42-.35.37.12.05.13.09.2.15-.05.12-.36.12-.2.31-.07-.01-.19-.13-.22-.09.03.05.15.08.2.15.13.3-.42.27-.45.47.08.41-.17.7-.27,1.01l-.09-.04c.3.25-.45.09.03.39-.1-.01-.08.07-.25-.02.21.18-.33.13-.07.38.01,0,0-.02-.04-.05-.25.04-.02.25-.26.3-.03-.03-.05-.06-.14-.1-.2-.02.34.27-.11.12,0,.03.21.11.21.09-.28.21-.11.62-.12.95-.34.11-.74-.27-.48.02-.09-.02.16.07.07.04.1.11-.53-.09-.32.05.28.08.14.09.3.15-.22.06-.48,0-.31.17l-.14-.06c.36.27.09.33.52.6-.16.69-.1,1.42-.27,2.07-.31.6-.29,1.3-.74,1.88-.43.04-.42.05-.32.27-.06-.03-.07-.04-.13-.05.31.1,0,.13.29.23-.13.23-.11.48-.19.73-.02-.05-.27-.14-.27-.09l.19.11-.09-.02s.18.13.29.12c.08.7-.7,1.16-.8,1.8-.17.11-.11.36-.08.54-.55.37-1.01.72-.84,1.28,0,0-.81-.27-.94-.52Z"/>
      <path class="cls-2" d="M44.38,51.71c-.07-.15-.15-.21-.2-.43.07.14.15.29.2.43Z"/>
      <path class="cls-2" d="M42.14,51.26s-.06-.03-.09-.05c0-.02-.07-.14,0-.09,0,.02.05.08.09.14Z"/>
      <path class="cls-2" d="M41.75,51.5c-.1-.11-.11-.26-.08-.31l.08.31Z"/>
      <path class="cls-2" d="M41.02,51.4c-.12-.06-.16-.11-.12-.14.06.05.08.09.12.14Z"/>
      <path class="cls-2" d="M41.24,51.65s-.1-.02-.17-.06c.09.08,0-.11.17.06Z"/>
      <path class="cls-2" d="M40.32,52.07s.06.14-.08.05c.1.05-.08-.2.08-.05Z"/>
      <path class="cls-2" d="M40.24,52.54s-.04,0-.02.03c-.07-.02-.14-.11-.14-.13l.15.1Z"/>
      <polygon class="cls-2" points="37.31 59.1 37.26 59.04 37.39 59.1 37.31 59.1"/>
      <path class="cls-2" d="M36.2,61.95c.07.07-.14-.02-.16-.02,0-.04.16.07.16.02Z"/>
      <polygon class="cls-2" points="36.36 63.73 36.36 63.72 36.64 63.82 36.36 63.73"/>
    </g>
  </g>
  <g>
    <path class="cls-2" d="M70.37,31.28c-.03.09.02.2-.02.17,0-.22,0-.24.02-.17Z"/>
    <path class="cls-2" d="M78.22,36.68c-.77-.11-.01-.3-.51-.41-.03-.01.42-.03.31-.06-.6-.09-.26-.31.18-.55h.12c.08-.05-.31-.04-.26-.08.08-.01.11,0,.22-.03-.24.03-.12-.05-.3-.03.09-.03.27-.06.37-.09l-.27.03c-.64.06.02-.14-.33-.15.06,0,.11-.01.17-.03-.41-.03-.37-.18-.53-.27.09-.02.26-.06.36-.1-.27.07-.35.05-.41.04.28-.1-.27.02-.12-.06l.06-.02c-.3.06.16-.09-.2,0l.21-.09c-.39.12.19-.1-.02-.06l-.08.03c-.1.01.09-.06.01-.06l.04-.02c-.12,0,.08-.11-.22,0,.23-.11.13,0,.47-.15-.37-.03-.37-.2-.44-.34.11-.07.14-.1.24-.16-.06.01-.08-.03-.23.03,0,0,.14-.09.15-.1.09-.09-.32.14-.21.04.08-.03.17-.08.28-.14-.23.1-.22.05-.31.06.05-.02.08-.03.17-.08-.26.11.01-.09-.16-.02l.16-.09c.16-.16-.34.19-.25.09.05-.02.11-.06.18-.1-.31.15-.25.04-.36.07.02-.01.06-.04.06-.04-.06-.01,0-.11-.14-.06.06-.06.37-.26.28-.26-.3.23-.17.03-.48.31.03-.07.1-.2,0-.14.12-.08.34-.31.38-.3l.16-.17c.12-.09-.02.06.12-.07-.02,0-.17.05-.14,0-.2.12-.53.39-.6.39.12-.08.29-.29.35-.32l-.57.44s.21-.2.12-.15c-.07.07-.12.1-.18.16.03-.03-.11.03.14-.24.1-.11.07-.04.15-.14-.02-.02-.11.07-.14.05l.03-.04c.02-.05-.15.07-.27.24,0,.02.15-.16.09-.07-.16.15-.22.17-.24.15.05-.04.11-.11.18-.18-.22.19-.3.23-.4.3-.11.13.21-.23.16-.16.12-.22-.28.19-.1-.1.02-.02-.15.2-.12.16,0-.03.15-.23.08-.16.09-.12-.04.03-.08.05-.07.08.04-.06.06-.07-.1.09-.29.23-.21.03-.06.08-.23.28-.23.27l.13-.19c.07-.12-.04,0,.06-.17-.17.22.21-.15.06.02.1-.16-.24.28-.06.02-.02,0-.18.2-.08,0-.01.03.18-.26.16-.25-.05.02-.07.09-.13.14l-.06.07c-.12.19,0-.04-.13.18.09-.16-.09.07.1-.24l.15-.25s-.17.25-.25.36c.01-.02.04-.08.06-.12-.22.39,0-.05-.19.24.05-.15-.06-.04.06-.29-.08.11-.17.25-.15.15.02-.04.04-.04.08-.13.04-.12-.01-.02-.06.04.03-.06.08-.25.13-.4-.08.11-.17.33-.24.46.16-.41-.17.23-.03-.14.03-.05.12-.18.14-.29.15-.41-.17.28-.12.07l-.13.34c.07-.21-.12.18.02-.17-.06.12,0-.13-.12.2.06-.31-.18.13,0-.48-.03.05-.03,0-.08.16-.05.19.06-.13.03,0-.01,0-.04.1-.06.15.01-.08,0-.11.12-.38.03-.22-.23.56-.23.42.05-.14.06-.19.04-.18l-.1.23c-.01-.06.08-.32.15-.56-.03.04-.05.02-.11.19l.07-.31c-.05.22-.06.14-.08.2l.03-.06c.03-.1-.01-.05-.03-.02-.04.15-.04.22-.04.26-.04.1-.04.07-.09.2.07-.23.02-.18.01-.2,0-.06-.07.21-.08.2.03-.12-.02-.03.04-.2.02-.04-.02.12.02.02.01-.09.07-.31,0-.16-.05.11-.12.47-.11.31.02-.06.05-.15.08-.23v-.13s-.05.22-.05.22c.01-.06.02-.07.02-.1-.06.23-.06.06-.13.31-.02.02,0-.16,0-.18v-.02c.02-.13-.02-.05-.07.09v-.05s-.02.01-.06.14c.01-.17.16-.82.08-.56-.03,0-.12.39-.14.53-.01-.16-.13.19-.1-.15-.02.09-.03.14-.05.19-.05-.1-.17.24-.15-.21.03-.09.03-.22.05-.35-.04.19,0-.21-.04.13-.03.2-.04.3-.03.38-.05.1-.11.1-.11-.09,0,.09-.02.15-.03.21.04-.32.02-.37-.02-.26l-.03.19v-.2c0,.06-.05.41-.05.22,0-.08.01-.15.02-.21-.04.16-.1.42-.1.26v-.29s-.04.2-.03.28c-.02-.18-.05-.2-.04-.45-.12.59-.21.6-.29.56v-.15c0-.14-.01.26-.02.15.01-.14,0-.3.02-.47-.03-.15-.05.25-.07.32,0,.19.02-.12,0,.12,0,.07-.04-.15-.05.14,0-.11,0-.33.02-.45l-.02.14c-.02-.34.07-.61.06-1.02l-.02.05c-.01-.31.07-.34.02-.45-.03.14-.06.56-.04.69-.05.08-.04.69-.08.67,0-.17.04-.04.03-.28-.02-.23-.05.13-.06.05.02.11,0,.4-.02.46-.02-.14.02-.28-.01-.31,0,.17-.04.29-.01.41-.01.38-.03-.11-.05.19,0-.27.04-.62,0-.75,0,.26-.04.35-.03.73-.01-.08-.01-.28,0-.44-.02-.16-.05.47-.05-.04v.26c-.01-.09-.02-.15-.03-.29-.02,0-.05.36-.06-.04,0,.04-.05.02-.03.3.03.17.03-.2.04.17-.02-.3-.03.04-.05.14v-.15c-.01.06-.03.03-.03.19,0-.09,0-.19,0-.23v.23c-.03.12-.02-.41-.05-.34l.02-.18s-.02-.18-.04-.11c0,.21,0,.47,0,.64-.02.09-.02-.24-.03-.02l.02-.26c0-.07-.03-.35-.05-.35-.01.07-.03.38,0,.5-.01,0-.03-.13-.03-.28-.03.07.01.23,0,.36-.02-.14-.05-.34-.08-.55v-.36s0,0,0,0c.01-.29-.02-.22-.02-.52-.02-.05-.03.06-.03.14.06.48,0,.66.03,1.1-.04.12-.09-1.07-.1-.38.02.11.01.45.03.32-.03-.05,0,.44-.04.26.01-.18-.06-.44-.04-.71,0,.15.03.11.03.07-.02-.17-.02-.44-.06-.44-.02.04-.04.05-.02.28.02.25.03-.03.03.23-.03.09-.06-.29-.05.16.02-.04.04.22.06.4l-.02.11v-.17c-.06-.12,0,.31-.04.26l-.04-.33c-.01-.29.07.12.03-.34-.03-.02-.02.22-.06.1,0-.04,0-.05.01-.09-.01-.01-.07-.63-.08-.27,0,.14,0,.17.02.34-.04.06-.04.23-.06.26-.02-.34-.05-.03-.05-.38.03.2.09.17.08-.15-.05-.4.04.05.02-.35-.04,0-.07-.4-.1-.66-.01-.02-.01.09-.02.13.02.24.03.24.05.49-.05-.06-.08.08-.08.32-.02-.12-.04-.36-.03-.39-.04.08-.1.05-.16-.02.07.39-.04.1.01.43.03.09.08.37.09.55-.02-.02-.02-.17-.03-.26,0,.22-.07-.34-.05,0,.03-.13-.04-.48-.07-.8-.02.18-.02-.22-.06-.22-.02.18-.04.32-.07.39-.08-.29-.12,0-.16.02-.04-.15-.07-.51-.1-.57-.03.01.07.38,0,.22v-.07c0,.08-.11-.23-.06.28l-.03-.38s0,.05-.01.1c-.02-.12-.04-.24-.03-.32-.06-.26-.05.05-.08.06l.05.22c-.03.18-.08-.04-.13.05l-.02-.22-.02.13c-.01-.21-.05-.35-.05-.17.01-.18.02-.37.02-.55.03.13.01.27.04.48.03.19.07.12.05-.09-.02-.02-.01.03-.02.11-.04-.31-.01-.3-.03-.5,0,.01-.03-.08-.02.02,0-.15.01-.18.04-.19,0,.12.03.19.04.28-.03-.27-.01-.36.03-.29.06.31.04-.21.09-.13.02.28.02.5,0,.61.04.13.03-.01.07.12-.01-.21-.04-.52-.02-.65l.03.2c.02-.11-.02-.4.03-.35.08.09.15.08.21.1l.02.2c-.02-.43.08-.17.1-.37.09.19.13-.21.2.14.11-.16.21-.33.34-.26v.3c0-.22.02.17.04.12-.04-.23.01-.31.02-.49.07.23.13-.03.17-.23v.2c.05-.38.12-.05.19,0,0,.08.03.27.04.25.03-.33.05-.31.09-.51.04,0,.1.08.14.21.15-.46.29-.16.46-.43v.24c.17-.51.34-.03.49-.28l-.05.41c.03.13.1-.1.12-.39.03.13.12-.19.12.15.03.08.07-.18.11-.23.07.16.1.13.19.06l-.02-.03c-.02.09-.04.26-.03.29.04-.11.09.13.13-.36.05.29.24-.19.27.2.02-.13.04-.15.07-.24.08,0,.11.29.22.08,0,.07-.07.22-.04.24.03-.05.04-.17.07-.24.18-.22.2.3.33.27.27-.19.46,0,.67.03l-.04.09c.2-.33.02.41.27-.09-.02.09.04.07-.04.24.16-.22.05.29.25.02,0-.01-.02,0-.04.04-.01.23.18,0,.17.21-.03.03-.05.05-.1.14-.06.18.26-.34.06.09.02,0,.12-.2.1-.2.09.23.4.08.64.11-.03.32-.43.67-.14.44-.04.08.11-.15.05-.06.11-.08-.25.47-.08.28.16-.24.11-.12.21-.26-.04.2-.18.42,0,.28l-.1.12c.33-.3.26-.07.63-.39.4.26.98.39,1.29.8.1.23.27.41.4.62.11.21.2.43.17.7-.33.25-.32.25-.12.3-.06.02-.08.02-.13.05.31-.11.06.06.36-.03.02.18.13.3.17.46-.04-.02-.3.05-.27.07l.21-.03-.09.03c.05,0,.21-.01.31-.06.36.36-.14.92-.05,1.26-.13.11,0,.22.08.31-.42.33-.75.57-.43.85,0,0-.85-.04-1.05-.14Z"/>
    <path class="cls-2" d="M70.4,31.24c.01.16.04.25.03.47-.01-.15-.02-.33-.03-.47Z"/>
    <path class="cls-2" d="M71.27,32.84s.02.06.02.09c0,.01,0,.15-.02.07,0-.01,0-.09,0-.16Z"/>
    <path class="cls-2" d="M71.45,32.92c.01.15-.01.26-.03.28l.03-.28Z"/>
    <path class="cls-2" d="M71.66,33.51c.02.12.02.19,0,.19,0-.08,0-.12,0-.19Z"/>
    <path class="cls-2" d="M71.64,33.17s.03.08.04.16c-.01-.12-.02.08-.04-.16Z"/>
    <path class="cls-2" d="M72,33.58s.02-.13.03.03c-.01-.11-.03.19-.03-.03Z"/>
    <path class="cls-2" d="M72.14,33.35s0,.04.01,0c.01.07,0,.17,0,.19v-.18Z"/>
    <polygon class="cls-2" points="74.77 33.16 74.73 33.22 74.79 33.09 74.77 33.16"/>
    <path class="cls-2" d="M75.66,33.7c.07-.06-.08.11-.1.13-.02,0,.12-.13.1-.13Z"/>
    <polygon class="cls-2" points="76.6 33.66 76.59 33.66 76.83 33.48 76.6 33.66"/>
  </g>
</svg>