<?xml version="1.0" encoding="UTF-8"?>
<svg id="Layer_2" data-name="Layer 2" xmlns="http://www.w3.org/2000/svg" viewBox="0 0 300 300">
  <defs>
    <style>
      .cls-1 {
        fill: #fff;
      }

      .cls-2 {
        opacity: .3;
      }

      .cls-3 {
        fill: #ff6d40;
      }
    </style>
  </defs>
  <g>
    <path class="cls-3" d="M233.71,148.37l-.32,1.15c1.69.73.55-.25.32-1.15Z"/>
    <path class="cls-3" d="M233.71,148.37l.23-.82c-.27.22-.3.51-.23.82Z"/>
    <path class="cls-3" d="M236.35,145.57c1.09-1.88.39-4.74-1.95-4.9,1.52,1.65-.18,3.9,1.95,4.9Z"/>
    <polygon class="cls-3" points="232.6 142.17 233.32 143.42 234.46 143.55 232.6 142.17"/>
    <path class="cls-3" d="M231.9,136.81c.37,2.13,3.26.26,3.14,3.1.7-.19.55-1.32.52-2.37-.04-1.05-.04-2.03,1.12-2,.28-2.5-1.33.11-2.36-.97l.62,1.72c-1.21,1.88-2.22-.75-3.04.51Z"/>
    <path class="cls-3" d="M83.28,187.4c-.17.01-.39.06-.65.17,0,.02-.01.04-.02.07h.69s-.02-.24-.02-.24Z"/>
    <path class="cls-3" d="M226.97,107.7c-.08-.56-.42-.87-.84-1.06-.12.46.03.86.84,1.06Z"/>
    <path class="cls-3" d="M220.7,98.79s.04.03.05.04c.17-.22.11-.21-.05-.04Z"/>
    <path class="cls-3" d="M216.38,93.31s.09.03.13.05c.09-.19.09-.25-.13-.05Z"/>
    <path class="cls-3" d="M226.13,106.64c.31-1.22,2.55-3-.73-2.31l-.23.42c.22-.98-1.36-1.19-1.9-1.79-.2.24-.35.45-.46.67.19.35.4.85.67,1.65-.04,1.17,1.58.88,2.65,1.35Z"/>
    <path class="cls-3" d="M211.13,221.12c-.45.7-1.31.33-2.04.58-.05,2.68,2.71-2.06,1.95.89.58-.47.87-1.04,1.11-1.61l-2.03-.89c-.65,1.48,1.16-.07,1.02,1.04Z"/>
    <path class="cls-3" d="M84.32,197.08l-.02-.36c-.62.68-.98.68-.67,1.93,1.71.05,2.49-2.39,4.72-1.85-.32-.18-.55-.62-.66-1.11-.6,1.27-2.04,1.43-3.37,1.38Z"/>
    <path class="cls-3" d="M87.68,195.7s.03-.06.06-.1c.11-.17.19-.32.26-.48-.13-.2-.21-.44-.2-.68-.2.35-.22.82-.12,1.25Z"/>
    <path class="cls-3" d="M188.48,233.23c-.32.05-.61.1-.87.14.53.2.76.1.87-.14Z"/>
    <path class="cls-3" d="M97.67,82.03c.15-.39.29-.79.37-1.14-.36.45-.42.81-.37,1.14Z"/>
    <path class="cls-3" d="M77.99,181.19c.04-.31.02-.6-.02-.9-.09-.15-.19-.27-.28-.46l.3,1.36Z"/>
    <path class="cls-3" d="M212.3,221.04c-.04-.05-.08-.1-.12-.17-.01.03-.02.06-.04.1l.16.07Z"/>
    <path class="cls-3" d="M85.07,189.75l-.97-1.81-.88-1.86.06,1.32c1.2,0,.33,2.51,1.78,2.35Z"/>
    <path class="cls-3" d="M232.26,191.16c.07.12.14.24.23.35-.05-.16-.13-.27-.23-.35Z"/>
    <path class="cls-3" d="M69.3,170.47c.14,0,.27-.01.39-.04-.13,0-.25,0-.39.04Z"/>
    <path class="cls-3" d="M236.59,169.08c-1.24-.82-3.03-1.77-2.64-3.13,2.58.12,1.32,2.37,3.55.75-.14-2.84-3.59-4.55-2.49-7l1.02.55c.07-1.69.82-4.92.73-6.62.5-.06.43.19.53.52,1.08-3.11-1.25-1.34.57-3.88l-1.21-.74c-.93,1.3-2.15,3.65-.86,5.32-.66-.84-1.51-.26-2.45.38-.43.29-.87.59-1.33.79.18-2.14.29-4.3.29-6.49,0-1.96-.1-3.89-.24-5.81l.31.85.39-.24-.76-1.31c-.29-3.45-.8-6.84-1.52-10.15,1.12.3,2.64.33,2.68,1.71.31-1.18,1.45-1.21,2.37-.69.01-1.27-.05-3.97-1.23-3.21l-.2.51c-.83.07-1.27-.51-1.75-.73-.38-1.62,1.21-1.11,1.73-1.59-.28-2.86-3.13.6-3.72-1.85l.5-.49c-.9-.75-1.57-1.99-2.81-2.27-.47-1.36-.97-2.71-1.51-4.03,1.6-.58,1.9.37,2.05,1.55.16,1.3.03,2.88,1.44,3.16.45-1.55,2.3.04,3.45.3-1.07-1.18-2.15-2.32-3.22-3.43.46-.51,2.09-2.51.28-2.63l.03.35c-1.11-1.39-2.6-.26-2.63-1.81.29-.37,1.13-.25,1.45-.27-.18-1.4-1.4-.61-2.14-1.24-.18-1.39,1.96-.16,1.95-1.4-2.21-.69-.74-2.41-1.45-3.61-1.01.85-2.37.05-3.63-.42-.91-.36-1.71-.56-2.18.05-.3-.52-.59-1.05-.9-1.56,1.13-.05,2.35-.11,3.05-1.05l1.2,2.28c1.29-.96.14-1.9-1.02-2.97-1.22-1.04-2.46-2.18-1.46-3.9-.7-1.23-.85-.66-1.12-3.78l-2.02,2.06c-.26-1.48.66-2.76,1.04-3.13-.65-.53-1.04-1.15-1.42-1.82.45-.11.92-.13,1.35.17.57-1.82-.08-1.71-.97-1.45-.92.03-1.41-.69-1.97-1.37l1.32-.09c-.53-.25-1.2-.55-1.62-.25-.25-.27-.52-.49-.87-.61-.2.5-1.06,2.06-.83,3.45-.58-1.57-1.47-2.67-2.2-3.84-.72-1.19-1.36-2.38-1.56-4.19.63-.53,2.19-.46,2.01-.78-.74-1.29-2.84-1.28-3.57-.25-.29-.15-.49-.28-.65-.41.27-.7.52-1.49.09-2.02.05-.3,0-.63-.3-1.02-1.78,1.4-3.18-1.09-4.26-.64.35.57.96,1.02,1.61,1.44-1.82.48-3.61,1.27-3.53-.21,2.48.11-.33-3.22,2.51-1.81-.03-3.65-2.15.95-3.4-1.21l-.58-1.8c1.11-1.23,2.48.75,2.54.04l-.99-.45c.78-.19,1.9.45,3.18,1.17,1.25.76,2.72,1.54,4.27,1.66-1.11-1.31-2.27-2.6-3.45-3.88-3.2-1.11-6.11-3.19-9.22-4.77-3.06-1.64-6.29-2.79-9.44-2.21.07.02.15.04.22.05-.15.11-.31.37-.63.91l-.05-.47c-.48.24-.95.47-1.43.73-.5-1.83-2.43-3-3.87-4.73.81,1.35.8,1.34.49,2.54-.78,1.47-1.17,2.07-2.6.95.35-1.11,1.36-.74.43-2.03.45.76-.37,1.35-1.13,1.25-.68-1.05-2.23-1.61-1.92-2.76.53-.18.78.31,1.03.56.54-.17-1.51-1.53.09-2.07l-1.85-.18c-.78-1.24,1.09-1.29.85-2.01-1.6-.06-2.96.55-4.23,1.14-1.28.59-2.48,1.21-3.88,1.38.24-.59.74-3.15.58-2.41-.98-.56-2.23-.1-3.49.57-1.27.68-2.55,1.48-3.71,1.44.42-.72,1.26-.31,2.01-.59-3.51-.98-6.8-1.38-10.05-1.89-1.63-.25-3.25-.44-4.92-.77-1.67-.26-3.38-.61-5.19-1.06-.51.96-1,1.92-1.48,2.88l-2.03-1.53c-1.87-.12-3.63-.04-5.29.24-1.65.33-3.23.71-4.73,1.33-1.5.6-2.98,1.23-4.43,2.01-.73.38-1.46.75-2.21,1.14-.73.4-1.48.81-2.25,1.24-1.93.95-1.92-1.27-3.17-1.54-2.28.86-3.39,2.09-4.32,3.48-.95,1.37-1.78,2.8-3.55,4.2.11-1.01-.08-3.56-1.86-2.66.07.86.48,2-.82,2.24l.11-1.03c-1.6-.42-1.93,1.14-4.2,2-3.44,2.44-5.47,6.45-5.93,10.83-2.8,2.16-1.67-2.39-2.54-2.38,2.59-.95,1.04-1.53.87-2.6-.55,1.49-1.49,2.88-3.3,1.99-1.31,1.44-2.07,1.95-2.45,4.23.2-1.15,1.5-1,1.49.25-.77.32-1.71,1.33-2.65,2.03-.94.7-1.84,1.16-2.67.28-5.76,7.12-11.68,15.63-15.36,24.8.53,2,.9-.98,1.37.19.62,2.8-1.47,1.44-.97,3.67l-.93-1.19c-1.2,2.63.17,6.27.65,9.13-1.31-.82-1.79,1.83-2.03-.57-.07.67-1.79.98-3.37,1.35-1.58.36-3.03.76-2.49,1.44,2.13-.07,4.26-.11,6.37-.11.57.21-.2,1.92.24,1.83-1.47.84-3.1,2-3.25,2.81-1.6.13-.93-1.86-.66-2.96-2.56-.73-2.34,3.51-4.4,1.41-.02,2.57,1.38-.11,2.07,1.53-.3.68-.64,1.36-.9,2.05.35-.51.75-1.02,1.13-1.52.44,1.91,2.4,2.75.64,4.92.73.9,1.53,1.79,2.31,2.65-2.07.08-.52,1.72-1.07,2.92l-1.26-.85c-.04,1.67-.37,2.3-1.16,3.34-1.79-1,.48-1.51-1.23-1.99l-.66,1.87c1.17.02,2.05,1.21,2.79-.1,2.11,1.75,3.92,2.62,3.88,6.7-.93.98-1.41.52-1.89-.11-.46-.62-.91-1.4-1.89-.96-.36,2.24,1.11,3.52,2.54,4.48,1.43.97,3.02,1.64,3.04,2.87-.22,1.61.15,2.31.66,2.97.5.67,1.11,1.31,1.45,2.83-1.55-.71-.94,2.44-2.06,3.33l-1.66-.94c.55.75.4,1.63-.31,1.84,1.48.11,2.45,3.9,3.89,5.6l1.37-.85c.52.73,1.2,1.57,1.78,2.45.58.88,1.12,1.77,1.25,2.67,1.43,2.28,2.55,1.16,4.89,2.26-.84,1.58-2.39,2.21-4.1,2.59.43-.99-.5-1.9-.54-3.17-1.24-1.3-2.91-2.28-4.28-3.44-1.32-1.17-2.51-2.45-2.6-4.27-2.03-.21-1.76.34-1.08,1.2.69.86,1.85,1.95,1.49,2.99-.23.03-.34-.07-.42-.18.04.15.07.28.04.45-.85-1.06-2.11-2.86-4.04-2.66,1.03,2.02,4.1.35,3.4,3.42,1.65,1.5-.5,4.07-.29,5.35,1.84.71,4.67-.49,5.45,2.67l-2.51-.39c.74,1.71,1.67,1.74,2.54,1.75.87,0,1.72-.02,2.43,1.48-.31-1.15,2.35,0,1.41-1.96,1.47.45,2.8,2.33,3.15,4.16.51.23.67-.29,1.33-.59.16-1.2-.52-1.66-1.11-2.14-.6-.47-1.11-.97-.51-2.16l-2.64-.13c-.08-1.98,1.52-2.91,2.81-2.37-.31-.39-.79-.63-.57-1.13,2.96-1.76-.18,2.4,2.71,1.6l-.77-.95c.66-.54,1.24-.46,1.74-.09.6,1.18,1.23,2.34,1.89,3.48,0,.81.05,1.56.01,2.2-.03.75-.22,1.38-.88,1.86-.64-.54-1.25-1.1-1.84-1.68-.52,1.77,2.27,2.21,2.94,3.4-.14.2-.2.4-.21.61.08-.14.18-.26.31-.34.09.29.07.62-.11,1.02.66,1.05,2.46,1.95,2.75,3.14l1.07-.99-.74.37c-.63-.92-.75-2.67.61-2.62,1.1.7,1.19,1.53.93,2.38-.27.84-.9,1.68-1.2,2.31-2.11.91-1.53-1.95-2.86-2.57-.66.96-.34,1.55.23,2.23.58.68,1.37,1.48,1.64,3-2.55.67-1.91-2.48-4.05-1.61,1.07,2,2.71,1.43,3.75,3.57-1.07.52-2.59-1.21-3.61-.2.14.54.27,1.1.43,1.64-1.24-1.44-1.72-.85-2.18-.13-.46.72-.88,1.57-2.07.54.14,1.77,2.76.36,2.94,2.88.41-1.13.85-3.55,2.81-2.73l.87,2.09c-.26,1.48-3.42-.02-3.22,1.71.72.41,1.43.82,2.17,1.18.47-.55-.02-1.59,1.19-1.76.34,1.49,3.51-.34,5.27-.04.8.86,1.38,1.61,1.11,2.51,3.59.53,6.43,2.93,9.76,2.94-2.29.02-1.47,2.02-1.17,3.54-1.92-1.02-3.3.7-4.06,1.96,1.23.68,3.34-.71,3.24-1.7,1.27,2.04,2.15-.39,2.86,1.98.61,1.37-1.78,1.48-1.9,2.43,2,1.47,2.08-1.9,4-.03-.28.18-.53.12-.58.59.94,1.2,2.84,1.05,3.66.23-.09,1.64.89,2.12,1.66,2.45.79.31,1.38.5.59,1.7,3.44.9.25-1.63,1.33-2.19.91-.25,1.8.15,2.55.7.76.52,1.37,1.21,1.64,1.58-.78-.29-1.84.11-2.37-.65l-.2,2.1c3.42,3.09,4.28-2.94,7.39.14-2.34.19-1.2,1.15-2.71,2.05.79-.22,3.64,1.5,2.34-.65,1.38.75,2.31,1.37,3.21,2.08,1.55-.25,3.16-.38,4.27-1.41,1.98.81,3.2,2.51,4.03,3.59,1.2-.08,2.32.04,3.43.23,1.1.19,2.17.54,3.27.81,1.09.26,2.2.52,3.35.66,1.15.13,2.34.06,3.57-.22l-.35-.15c3.68.64-1.44-2.73,2.34-2.42-.62,2.42,2.21,1.7,3.46,3.02,1.19.33,2.32.32,3.39.22,1.07-.1,2.08-.35,3.07-.64.99-.27,1.97-.53,2.97-.65,1-.16,2.04-.17,3.19.09.04.51-.17,1.15-1.02,1.32.87.08,1.69.09,2.48.05.79-.07,1.54-.19,2.28-.33.74-.15,1.46-.3,2.2-.45.73-.18,1.46-.35,2.22-.5l-.06.32c2.66.44,4.97-.37,7.13-1.46,1.08-.58,2.13-1.24,3.19-1.9,1.05-.69,2.1-1.39,3.23-1.99-.27.44-.02,1.33-.2,1.75,2.63-.41,6.65-1.93,7.22-4.76,1.92.37,2.3-.04,2.73-.52.45-.48.96-1,3.28-1,.42.25-.14.54-.32.76,2.12-.32,3.16-1.33,5.01-2.18,2.77-3.86,1.67-6.89,6.03-9.36,2.36,2.35-1.8,2.63-.26,4.71.45-1.08.67-2.17,2.24-2.5.2,1.54.39.74.73,2.04.7-.03.98-1.42,1.08-2.74.1-1.32-.03-2.62.08-2.5-.4-.51-.89-.51-1.55.24-.26-1.15.59-2.02,1.66-2.89,1.09-.85,2.29-1.82,2.84-2.96-.58.53-2.73,1.84-3.21.08,1.33-.89,1.62-2.08,1.59-3.33-.05-1.28-.38-2.61-.19-3.83,1.48-.56,1.69.25,1.76,1.39.08,1.13.02,2.57,1.07,3.13.95.2,3.15.48,3,2.04,2.21-1.74,1.86-4.58,2.9-6.76l.49.44c.86-1.47,1.28-3.3,1.66-5.01.4-1.71.93-3.2,2.16-4.08l-1.38.88c-.07-.66.92-2.01.2-3.44.79.55,2.31-.43,2.94.07-.89-1.43-.55-3.16-.22-4.9.3-1.91.66-3.79-.6-5.15,1.12-.45,2.18.71,2.82,1.26-1.07,1.78-2.01,2.08-1.18,3.66.66-1.57,2-2.36,2.62-1.81-1.29-2.46-.66-6.51-2.5-8,1.41-.78,2.35-1.73,3.94-.77.21-2.68-1.34-2.43-2.68-2.27-1.35.17-2.52.26-1.76-2.39,2.39-2.02,1.6,3.06,3.16-.23l.09.72c2.62-.67,1.88-1.38.65-2.18ZM229.84,128.53c1.12,1.56,3.46,2.39,2.71,4.04-.51.86-1.35.43-2.14-.06-.2-.91-.41-1.82-.65-2.72.07-.02.13-.03.21-.06l-.13-1.2ZM224.36,115.34c-.32-.65-.65-1.28-.98-1.92,1.39.18,1.24.98.98,1.92ZM219.25,95.8c-.19.05-.39.09-.58.12h0s.58-.12.58-.12ZM214.5,97.85c.31.88.1,1.44-.33,1.91-.44-.52-.88-1.03-1.33-1.54.53-.19,1.07-.34,1.66-.37Z"/>
    <path class="cls-3" d="M71.34,178.27c-.06-.18-.15-.37-.29-.63.14.26.19.48.29.63Z"/>
    <path class="cls-3" d="M237.24,127.54l-1-.09c-.06.54-.1,1.08-.2,1.62.35-.33,1.2-1.15,1.19-1.52Z"/>
    <path class="cls-3" d="M228.84,101.51l.55,2.38c1.1.2.85-2.86-.55-2.38Z"/>
    <path class="cls-3" d="M225.43,96.28c-1.91.56-.79-2.34-2.45-1.63.78.16.91,2.66,2.45,1.63Z"/>
    <path class="cls-3" d="M213.53,90.59c1.02-.87,1.6-.11,2.1.86-.54.03-1.14.29-1.6.1,1.93.54,1.87.77,3.28,1.37-.27-1.64-1.33-3.61,0-4.6-1.62.06-3.86.53-3.78,2.27Z"/>
    <path class="cls-3" d="M216.55,85.97c-.79-.68-1.78-1.32-2.77-1.76-.99-.42-1.95-.66-2.61-.63l.08,1.01c2.11.15,3.24,2.11,5.29,1.37Z"/>
    <path class="cls-3" d="M179.85,67.75c.58-.63-1.52-2.47-.39-1.2-.6.79.86,2.4.39,1.2Z"/>
    <path class="cls-3" d="M65.59,140.79c.12-1.42-.75-.72-1.04-1.8-.66,1.23-.33,2.02,1.04,1.8Z"/>
    <polygon class="cls-3" points="65.75 142.43 65.07 142.55 63.98 143.32 65.75 142.43"/>
    <path class="cls-3" d="M63.52,151.18c-.22-.06-.46-.29-.6-.53.2.5.39.93.6.53Z"/>
    <path class="cls-3" d="M62.83,150.39c-.05-.24.04-.5.41-.59l-.72-.1c.11.15.2.43.3.69Z"/>
    <path class="cls-3" d="M62.13,152.47l1.22,1.39,2-1.76c-1.05-1.72-1,2.03-3.22.37Z"/>
    <path class="cls-3" d="M65.2,164.52c1.03,2.15,1.97,1.68,2.89,1.34.93-.36,1.77-.59,2.73,1.74.13-2.41-1.07-2.78-2.32-3.12-1.21-.33-2.49-.63-2.09-2.88-1.22,2.29-1.36-1.24-2.02-1.88-.45,1.72,3,3.54.81,4.8Z"/>
    <path class="cls-3" d="M68.35,158.52c-1.24-.13-1.1,1.87-.22,2.37.06-.6,1.62-1.75.22-2.37Z"/>
    <polygon class="cls-3" points="66.28 169.9 67.12 170.08 66.88 168.34 66.28 169.9"/>
    <path class="cls-3" d="M67.67,173.57l-1.73-.95c.65.3,1.11,2.3,1.73.95Z"/>
    <path class="cls-3" d="M70.1,180.24c.02.21.05.41.09.62-.53.02-1.07,1.8-1.95.34.03,1.39,3.47,1.3,1.85-.96Z"/>
    <path class="cls-3" d="M80.1,194.22c-.36-.77-1.22-1.43-1.72-.94l1.74,1.69-.02-.75Z"/>
    <path class="cls-3" d="M85.6,187.16c-.03-.13-.06-.27-.11-.44.01.16.05.31.11.44Z"/>
    <path class="cls-3" d="M85.6,187.16c.26,1.13.13,1.27,1.13,2.73,1.22-1.44-.65-1.6-1.13-2.73Z"/>
    <path class="cls-3" d="M79.14,197.97c-1.03-.11-1.14-1.24-1.34-1.81-.81.83.34,2.09,1.34,1.81Z"/>
    <path class="cls-3" d="M86.65,202.6c-1.08-.79-2.54-.93-3.53-1.23-1.01-.29-1.57-.72-.78-2.04-1.38.06-2.72.07-4.1.06.71,2.15,2.91.05,3.58,1.37-.2,1.1-1,.5-1.11,1.29.13.95.48,1.78.99,2.38.53.58,1.19.94,1.92.98.38-.88,1.83-2.73,3.03-2.81Z"/>
    <path class="cls-3" d="M86.35,194.87c1.92-1.67-1.38-1.45-1.93-2.03l-.26,1.73c.8-.82,1.51-.08,2.19.3Z"/>
    <path class="cls-3" d="M94.23,211.89c-.65-.28-1.3-.57-1.93-.89.81.59,1.69,1.11,2.52,1.65l-.6-.76Z"/>
    <polygon class="cls-3" points="92.64 213.49 95.22 214.11 93.1 212.92 92.64 213.49"/>
    <polygon class="cls-3" points="92.88 214.62 94.79 215.72 94.61 215.39 92.88 214.62"/>
    <path class="cls-3" d="M97.54,218.04c.8.08,1.94,1.16,1.78,2.12l.22-1.17c-.79-.25-1.2-2.13-2-.95Z"/>
    <path class="cls-3" d="M235.6,161.41c.58.28,1.17.07,1.76-.17-.45-1.5-1.47.03-1.76.17Z"/>
    <path class="cls-3" d="M235.6,161.41s-.05-.01-.08-.03c.01.04.04.04.08.03Z"/>
  </g>
  <g class="cls-2">
    <path class="cls-1" d="M233.71,148.37l-.32,1.15c1.69.73.55-.25.32-1.15Z"/>
    <path class="cls-1" d="M233.71,148.37l.23-.82c-.27.22-.3.51-.23.82Z"/>
    <path class="cls-1" d="M236.35,145.57c1.09-1.88.39-4.74-1.95-4.9,1.52,1.65-.18,3.9,1.95,4.9Z"/>
    <polygon class="cls-1" points="232.6 142.17 233.32 143.42 234.46 143.55 232.6 142.17"/>
    <path class="cls-1" d="M231.9,136.81c.37,2.13,3.26.26,3.14,3.1.7-.19.55-1.32.52-2.37-.04-1.05-.04-2.03,1.12-2,.28-2.5-1.33.11-2.36-.97l.62,1.72c-1.21,1.88-2.22-.75-3.04.51Z"/>
    <path class="cls-1" d="M83.28,187.4c-.17.01-.39.06-.65.17,0,.02-.01.04-.02.07h.69s-.02-.24-.02-.24Z"/>
    <path class="cls-1" d="M226.97,107.7c-.08-.56-.42-.87-.84-1.06-.12.46.03.86.84,1.06Z"/>
    <path class="cls-1" d="M220.7,98.79s.04.03.05.04c.17-.22.11-.21-.05-.04Z"/>
    <path class="cls-1" d="M216.38,93.31s.09.03.13.05c.09-.19.09-.25-.13-.05Z"/>
    <path class="cls-1" d="M226.13,106.64c.31-1.22,2.55-3-.73-2.31l-.23.42c.22-.98-1.36-1.19-1.9-1.79-.2.24-.35.45-.46.67.19.35.4.85.67,1.65-.04,1.17,1.58.88,2.65,1.35Z"/>
    <path class="cls-1" d="M211.13,221.12c-.45.7-1.31.33-2.04.58-.05,2.68,2.71-2.06,1.95.89.58-.47.87-1.04,1.11-1.61l-2.03-.89c-.65,1.48,1.16-.07,1.02,1.04Z"/>
    <path class="cls-1" d="M84.32,197.08l-.02-.36c-.62.68-.98.68-.67,1.93,1.71.05,2.49-2.39,4.72-1.85-.32-.18-.55-.62-.66-1.11-.6,1.27-2.04,1.43-3.37,1.38Z"/>
    <path class="cls-1" d="M87.68,195.7s.03-.06.06-.1c.11-.17.19-.32.26-.48-.13-.2-.21-.44-.2-.68-.2.35-.22.82-.12,1.25Z"/>
    <path class="cls-1" d="M188.48,233.23c-.32.05-.61.1-.87.14.53.2.76.1.87-.14Z"/>
    <path class="cls-1" d="M97.67,82.03c.15-.39.29-.79.37-1.14-.36.45-.42.81-.37,1.14Z"/>
    <path class="cls-1" d="M77.99,181.19c.04-.31.02-.6-.02-.9-.09-.15-.19-.27-.28-.46l.3,1.36Z"/>
    <path class="cls-1" d="M212.3,221.04c-.04-.05-.08-.1-.12-.17-.01.03-.02.06-.04.1l.16.07Z"/>
    <path class="cls-1" d="M85.07,189.75l-.97-1.81-.88-1.86.06,1.32c1.2,0,.33,2.51,1.78,2.35Z"/>
    <path class="cls-1" d="M232.26,191.16c.07.12.14.24.23.35-.05-.16-.13-.27-.23-.35Z"/>
    <path class="cls-1" d="M69.3,170.47c.14,0,.27-.01.39-.04-.13,0-.25,0-.39.04Z"/>
    <path class="cls-1" d="M236.59,169.08c-1.24-.82-3.03-1.77-2.64-3.13,2.58.12,1.32,2.37,3.55.75-.14-2.84-3.59-4.55-2.49-7l1.02.55c.07-1.69.82-4.92.73-6.62.5-.06.43.19.53.52,1.08-3.11-1.25-1.34.57-3.88l-1.21-.74c-.93,1.3-2.15,3.65-.86,5.32-.66-.84-1.51-.26-2.45.38-.43.29-.87.59-1.33.79.18-2.14.29-4.3.29-6.49,0-1.96-.1-3.89-.24-5.81l.31.85.39-.24-.76-1.31c-.29-3.45-.8-6.84-1.52-10.15,1.12.3,2.64.33,2.68,1.71.31-1.18,1.45-1.21,2.37-.69.01-1.27-.05-3.97-1.23-3.21l-.2.51c-.83.07-1.27-.51-1.75-.73-.38-1.62,1.21-1.11,1.73-1.59-.28-2.86-3.13.6-3.72-1.85l.5-.49c-.9-.75-1.57-1.99-2.81-2.27-.47-1.36-.97-2.71-1.51-4.03,1.6-.58,1.9.37,2.05,1.55.16,1.3.03,2.88,1.44,3.16.45-1.55,2.3.04,3.45.3-1.07-1.18-2.15-2.32-3.22-3.43.46-.51,2.09-2.51.28-2.63l.03.35c-1.11-1.39-2.6-.26-2.63-1.81.29-.37,1.13-.25,1.45-.27-.18-1.4-1.4-.61-2.14-1.24-.18-1.39,1.96-.16,1.95-1.4-2.21-.69-.74-2.41-1.45-3.61-1.01.85-2.37.05-3.63-.42-.91-.36-1.71-.56-2.18.05-.3-.52-.59-1.05-.9-1.56,1.13-.05,2.35-.11,3.05-1.05l1.2,2.28c1.29-.96.14-1.9-1.02-2.97-1.22-1.04-2.46-2.18-1.46-3.9-.7-1.23-.85-.66-1.12-3.78l-2.02,2.06c-.26-1.48.66-2.76,1.04-3.13-.65-.53-1.04-1.15-1.42-1.82.45-.11.92-.13,1.35.17.57-1.82-.08-1.71-.97-1.45-.92.03-1.41-.69-1.97-1.37l1.32-.09c-.53-.25-1.2-.55-1.62-.25-.25-.27-.52-.49-.87-.61-.2.5-1.06,2.06-.83,3.45-.58-1.57-1.47-2.67-2.2-3.84-.72-1.19-1.36-2.38-1.56-4.19.63-.53,2.19-.46,2.01-.78-.74-1.29-2.84-1.28-3.57-.25-.29-.15-.49-.28-.65-.41.27-.7.52-1.49.09-2.02.05-.3,0-.63-.3-1.02-1.78,1.4-3.18-1.09-4.26-.64.35.57.96,1.02,1.61,1.44-1.82.48-3.61,1.27-3.53-.21,2.48.11-.33-3.22,2.51-1.81-.03-3.65-2.15.95-3.4-1.21l-.58-1.8c1.11-1.23,2.48.75,2.54.04l-.99-.45c.78-.19,1.9.45,3.18,1.17,1.25.76,2.72,1.54,4.27,1.66-1.11-1.31-2.27-2.6-3.45-3.88-3.2-1.11-6.11-3.19-9.22-4.77-3.06-1.64-6.29-2.79-9.44-2.21.07.02.15.04.22.05-.15.11-.31.37-.63.91l-.05-.47c-.48.24-.95.47-1.43.73-.5-1.83-2.43-3-3.87-4.73.81,1.35.8,1.34.49,2.54-.78,1.47-1.17,2.07-2.6.95.35-1.11,1.36-.74.43-2.03.45.76-.37,1.35-1.13,1.25-.68-1.05-2.23-1.61-1.92-2.76.53-.18.78.31,1.03.56.54-.17-1.51-1.53.09-2.07l-1.85-.18c-.78-1.24,1.09-1.29.85-2.01-1.6-.06-2.96.55-4.23,1.14-1.28.59-2.48,1.21-3.88,1.38.24-.59.74-3.15.58-2.41-.98-.56-2.23-.1-3.49.57-1.27.68-2.55,1.48-3.71,1.44.42-.72,1.26-.31,2.01-.59-3.51-.98-6.8-1.38-10.05-1.89-1.63-.25-3.25-.44-4.92-.77-1.67-.26-3.38-.61-5.19-1.06-.51.96-1,1.92-1.48,2.88l-2.03-1.53c-1.87-.12-3.63-.04-5.29.24-1.65.33-3.23.71-4.73,1.33-1.5.6-2.98,1.23-4.43,2.01-.73.38-1.46.75-2.21,1.14-.73.4-1.48.81-2.25,1.24-1.93.95-1.92-1.27-3.17-1.54-2.28.86-3.39,2.09-4.32,3.48-.95,1.37-1.78,2.8-3.55,4.2.11-1.01-.08-3.56-1.86-2.66.07.86.48,2-.82,2.24l.11-1.03c-1.6-.42-1.93,1.14-4.2,2-3.44,2.44-5.47,6.45-5.93,10.83-2.8,2.16-1.67-2.39-2.54-2.38,2.59-.95,1.04-1.53.87-2.6-.55,1.49-1.49,2.88-3.3,1.99-1.31,1.44-2.07,1.95-2.45,4.23.2-1.15,1.5-1,1.49.25-.77.32-1.71,1.33-2.65,2.03-.94.7-1.84,1.16-2.67.28-5.76,7.12-11.68,15.63-15.36,24.8.53,2,.9-.98,1.37.19.62,2.8-1.47,1.44-.97,3.67l-.93-1.19c-1.2,2.63.17,6.27.65,9.13-1.31-.82-1.79,1.83-2.03-.57-.07.67-1.79.98-3.37,1.35-1.58.36-3.03.76-2.49,1.44,2.13-.07,4.26-.11,6.37-.11.57.21-.2,1.92.24,1.83-1.47.84-3.1,2-3.25,2.81-1.6.13-.93-1.86-.66-2.96-2.56-.73-2.34,3.51-4.4,1.41-.02,2.57,1.38-.11,2.07,1.53-.3.68-.64,1.36-.9,2.05.35-.51.75-1.02,1.13-1.52.44,1.91,2.4,2.75.64,4.92.73.9,1.53,1.79,2.31,2.65-2.07.08-.52,1.72-1.07,2.92l-1.26-.85c-.04,1.67-.37,2.3-1.16,3.34-1.79-1,.48-1.51-1.23-1.99l-.66,1.87c1.17.02,2.05,1.21,2.79-.1,2.11,1.75,3.92,2.62,3.88,6.7-.93.98-1.41.52-1.89-.11-.46-.62-.91-1.4-1.89-.96-.36,2.24,1.11,3.52,2.54,4.48,1.43.97,3.02,1.64,3.04,2.87-.22,1.61.15,2.31.66,2.97.5.67,1.11,1.31,1.45,2.83-1.55-.71-.94,2.44-2.06,3.33l-1.66-.94c.55.75.4,1.63-.31,1.84,1.48.11,2.45,3.9,3.89,5.6l1.37-.85c.52.73,1.2,1.57,1.78,2.45.58.88,1.12,1.77,1.25,2.67,1.43,2.28,2.55,1.16,4.89,2.26-.84,1.58-2.39,2.21-4.1,2.59.43-.99-.5-1.9-.54-3.17-1.24-1.3-2.91-2.28-4.28-3.44-1.32-1.17-2.51-2.45-2.6-4.27-2.03-.21-1.76.34-1.08,1.2.69.86,1.85,1.95,1.49,2.99-.23.03-.34-.07-.42-.18.04.15.07.28.04.45-.85-1.06-2.11-2.86-4.04-2.66,1.03,2.02,4.1.35,3.4,3.42,1.65,1.5-.5,4.07-.29,5.35,1.84.71,4.67-.49,5.45,2.67l-2.51-.39c.74,1.71,1.67,1.74,2.54,1.75.87,0,1.72-.02,2.43,1.48-.31-1.15,2.35,0,1.41-1.96,1.47.45,2.8,2.33,3.15,4.16.51.23.67-.29,1.33-.59.16-1.2-.52-1.66-1.11-2.14-.6-.47-1.11-.97-.51-2.16l-2.64-.13c-.08-1.98,1.52-2.91,2.81-2.37-.31-.39-.79-.63-.57-1.13,2.96-1.76-.18,2.4,2.71,1.6l-.77-.95c.66-.54,1.24-.46,1.74-.09.6,1.18,1.23,2.34,1.89,3.48,0,.81.05,1.56.01,2.2-.03.75-.22,1.38-.88,1.86-.64-.54-1.25-1.1-1.84-1.68-.52,1.77,2.27,2.21,2.94,3.4-.14.2-.2.4-.21.61.08-.14.18-.26.31-.34.09.29.07.62-.11,1.02.66,1.05,2.46,1.95,2.75,3.14l1.07-.99-.74.37c-.63-.92-.75-2.67.61-2.62,1.1.7,1.19,1.53.93,2.38-.27.84-.9,1.68-1.2,2.31-2.11.91-1.53-1.95-2.86-2.57-.66.96-.34,1.55.23,2.23.58.68,1.37,1.48,1.64,3-2.55.67-1.91-2.48-4.05-1.61,1.07,2,2.71,1.43,3.75,3.57-1.07.52-2.59-1.21-3.61-.2.14.54.27,1.1.43,1.64-1.24-1.44-1.72-.85-2.18-.13-.46.72-.88,1.57-2.07.54.14,1.77,2.76.36,2.94,2.88.41-1.13.85-3.55,2.81-2.73l.87,2.09c-.26,1.48-3.42-.02-3.22,1.71.72.41,1.43.82,2.17,1.18.47-.55-.02-1.59,1.19-1.76.34,1.49,3.51-.34,5.27-.04.8.86,1.38,1.61,1.11,2.51,3.59.53,6.43,2.93,9.76,2.94-2.29.02-1.47,2.02-1.17,3.54-1.92-1.02-3.3.7-4.06,1.96,1.23.68,3.34-.71,3.24-1.7,1.27,2.04,2.15-.39,2.86,1.98.61,1.37-1.78,1.48-1.9,2.43,2,1.47,2.08-1.9,4-.03-.28.18-.53.12-.58.59.94,1.2,2.84,1.05,3.66.23-.09,1.64.89,2.12,1.66,2.45.79.31,1.38.5.59,1.7,3.44.9.25-1.63,1.33-2.19.91-.25,1.8.15,2.55.7.76.52,1.37,1.21,1.64,1.58-.78-.29-1.84.11-2.37-.65l-.2,2.1c3.42,3.09,4.28-2.94,7.39.14-2.34.19-1.2,1.15-2.71,2.05.79-.22,3.64,1.5,2.34-.65,1.38.75,2.31,1.37,3.21,2.08,1.55-.25,3.16-.38,4.27-1.41,1.98.81,3.2,2.51,4.03,3.59,1.2-.08,2.32.04,3.43.23,1.1.19,2.17.54,3.27.81,1.09.26,2.2.52,3.35.66,1.15.13,2.34.06,3.57-.22l-.35-.15c3.68.64-1.44-2.73,2.34-2.42-.62,2.42,2.21,1.7,3.46,3.02,1.19.33,2.32.32,3.39.22,1.07-.1,2.08-.35,3.07-.64.99-.27,1.97-.53,2.97-.65,1-.16,2.04-.17,3.19.09.04.51-.17,1.15-1.02,1.32.87.08,1.69.09,2.48.05.79-.07,1.54-.19,2.28-.33.74-.15,1.46-.3,2.2-.45.73-.18,1.46-.35,2.22-.5l-.06.32c2.66.44,4.97-.37,7.13-1.46,1.08-.58,2.13-1.24,3.19-1.9,1.05-.69,2.1-1.39,3.23-1.99-.27.44-.02,1.33-.2,1.75,2.63-.41,6.65-1.93,7.22-4.76,1.92.37,2.3-.04,2.73-.52.45-.48.96-1,3.28-1,.42.25-.14.54-.32.76,2.12-.32,3.16-1.33,5.01-2.18,2.77-3.86,1.67-6.89,6.03-9.36,2.36,2.35-1.8,2.63-.26,4.71.45-1.08.67-2.17,2.24-2.5.2,1.54.39.74.73,2.04.7-.03.98-1.42,1.08-2.74.1-1.32-.03-2.62.08-2.5-.4-.51-.89-.51-1.55.24-.26-1.15.59-2.02,1.66-2.89,1.09-.85,2.29-1.82,2.84-2.96-.58.53-2.73,1.84-3.21.08,1.33-.89,1.62-2.08,1.59-3.33-.05-1.28-.38-2.61-.19-3.83,1.48-.56,1.69.25,1.76,1.39.08,1.13.02,2.57,1.07,3.13.95.2,3.15.48,3,2.04,2.21-1.74,1.86-4.58,2.9-6.76l.49.44c.86-1.47,1.28-3.3,1.66-5.01.4-1.71.93-3.2,2.16-4.08l-1.38.88c-.07-.66.92-2.01.2-3.44.79.55,2.31-.43,2.94.07-.89-1.43-.55-3.16-.22-4.9.3-1.91.66-3.79-.6-5.15,1.12-.45,2.18.71,2.82,1.26-1.07,1.78-2.01,2.08-1.18,3.66.66-1.57,2-2.36,2.62-1.81-1.29-2.46-.66-6.51-2.5-8,1.41-.78,2.35-1.73,3.94-.77.21-2.68-1.34-2.43-2.68-2.27-1.35.17-2.52.26-1.76-2.39,2.39-2.02,1.6,3.06,3.16-.23l.09.72c2.62-.67,1.88-1.38.65-2.18ZM229.84,128.53c1.12,1.56,3.46,2.39,2.71,4.04-.51.86-1.35.43-2.14-.06-.2-.91-.41-1.82-.65-2.72.07-.02.13-.03.21-.06l-.13-1.2ZM224.36,115.34c-.32-.65-.65-1.28-.98-1.92,1.39.18,1.24.98.98,1.92ZM219.25,95.8c-.19.05-.39.09-.58.12h0s.58-.12.58-.12ZM214.5,97.85c.31.88.1,1.44-.33,1.91-.44-.52-.88-1.03-1.33-1.54.53-.19,1.07-.34,1.66-.37Z"/>
    <path class="cls-1" d="M71.34,178.27c-.06-.18-.15-.37-.29-.63.14.26.19.48.29.63Z"/>
    <path class="cls-1" d="M237.24,127.54l-1-.09c-.06.54-.1,1.08-.2,1.62.35-.33,1.2-1.15,1.19-1.52Z"/>
    <path class="cls-1" d="M228.84,101.51l.55,2.38c1.1.2.85-2.86-.55-2.38Z"/>
    <path class="cls-1" d="M225.43,96.28c-1.91.56-.79-2.34-2.45-1.63.78.16.91,2.66,2.45,1.63Z"/>
    <path class="cls-1" d="M213.53,90.59c1.02-.87,1.6-.11,2.1.86-.54.03-1.14.29-1.6.1,1.93.54,1.87.77,3.28,1.37-.27-1.64-1.33-3.61,0-4.6-1.62.06-3.86.53-3.78,2.27Z"/>
    <path class="cls-1" d="M216.55,85.97c-.79-.68-1.78-1.32-2.77-1.76-.99-.42-1.95-.66-2.61-.63l.08,1.01c2.11.15,3.24,2.11,5.29,1.37Z"/>
    <path class="cls-1" d="M179.85,67.75c.58-.63-1.52-2.47-.39-1.2-.6.79.86,2.4.39,1.2Z"/>
    <path class="cls-1" d="M65.59,140.79c.12-1.42-.75-.72-1.04-1.8-.66,1.23-.33,2.02,1.04,1.8Z"/>
    <polygon class="cls-1" points="65.75 142.43 65.07 142.55 63.98 143.32 65.75 142.43"/>
    <path class="cls-1" d="M63.52,151.18c-.22-.06-.46-.29-.6-.53.2.5.39.93.6.53Z"/>
    <path class="cls-1" d="M62.83,150.39c-.05-.24.04-.5.41-.59l-.72-.1c.11.15.2.43.3.69Z"/>
    <path class="cls-1" d="M62.13,152.47l1.22,1.39,2-1.76c-1.05-1.72-1,2.03-3.22.37Z"/>
    <path class="cls-1" d="M65.2,164.52c1.03,2.15,1.97,1.68,2.89,1.34.93-.36,1.77-.59,2.73,1.74.13-2.41-1.07-2.78-2.32-3.12-1.21-.33-2.49-.63-2.09-2.88-1.22,2.29-1.36-1.24-2.02-1.88-.45,1.72,3,3.54.81,4.8Z"/>
    <path class="cls-1" d="M68.35,158.52c-1.24-.13-1.1,1.87-.22,2.37.06-.6,1.62-1.75.22-2.37Z"/>
    <polygon class="cls-1" points="66.28 169.9 67.12 170.08 66.88 168.34 66.28 169.9"/>
    <path class="cls-1" d="M67.67,173.57l-1.73-.95c.65.3,1.11,2.3,1.73.95Z"/>
    <path class="cls-1" d="M70.1,180.24c.02.21.05.41.09.62-.53.02-1.07,1.8-1.95.34.03,1.39,3.47,1.3,1.85-.96Z"/>
    <path class="cls-1" d="M80.1,194.22c-.36-.77-1.22-1.43-1.72-.94l1.74,1.69-.02-.75Z"/>
    <path class="cls-1" d="M85.6,187.16c-.03-.13-.06-.27-.11-.44.01.16.05.31.11.44Z"/>
    <path class="cls-1" d="M85.6,187.16c.26,1.13.13,1.27,1.13,2.73,1.22-1.44-.65-1.6-1.13-2.73Z"/>
    <path class="cls-1" d="M79.14,197.97c-1.03-.11-1.14-1.24-1.34-1.81-.81.83.34,2.09,1.34,1.81Z"/>
    <path class="cls-1" d="M86.65,202.6c-1.08-.79-2.54-.93-3.53-1.23-1.01-.29-1.57-.72-.78-2.04-1.38.06-2.72.07-4.1.06.71,2.15,2.91.05,3.58,1.37-.2,1.1-1,.5-1.11,1.29.13.95.48,1.78.99,2.38.53.58,1.19.94,1.92.98.38-.88,1.83-2.73,3.03-2.81Z"/>
    <path class="cls-1" d="M86.35,194.87c1.92-1.67-1.38-1.45-1.93-2.03l-.26,1.73c.8-.82,1.51-.08,2.19.3Z"/>
    <path class="cls-1" d="M94.23,211.89c-.65-.28-1.3-.57-1.93-.89.81.59,1.69,1.11,2.52,1.65l-.6-.76Z"/>
    <polygon class="cls-1" points="92.64 213.49 95.22 214.11 93.1 212.92 92.64 213.49"/>
    <polygon class="cls-1" points="92.88 214.62 94.79 215.72 94.61 215.39 92.88 214.62"/>
    <path class="cls-1" d="M97.54,218.04c.8.08,1.94,1.16,1.78,2.12l.22-1.17c-.79-.25-1.2-2.13-2-.95Z"/>
    <path class="cls-1" d="M235.6,161.41c.58.28,1.17.07,1.76-.17-.45-1.5-1.47.03-1.76.17Z"/>
    <path class="cls-1" d="M235.6,161.41s-.05-.01-.08-.03c.01.04.04.04.08.03Z"/>
  </g>
</svg>