<?xml version="1.0" encoding="UTF-8"?>
<svg id="Layer_2" data-name="Layer 2" xmlns="http://www.w3.org/2000/svg" viewBox="0 0 519.51 77.36">
  <defs>
    <style>
      .cls-1 {
        fill: #ff3600;
      }
    </style>
  </defs>
  <path class="cls-1" d="M20.1,71.75l-.94-21.35-1.66-29.96H1.69l.83-13.09,48.41-.86v11.36l-17.47.86c0-.39,1.18,25.02,2.46,53.03h-15.83Z"/>
  <path class="cls-1" d="M81.87,71.75h-38.68l-.83-22.87,27.61-1.58v-10.31l-26.03-1.58-.75-9.48h36.26l2.41,45.83ZM69.97,63.85l-1.58-8.65-15.8.75v7.9h17.38Z"/>
  <path class="cls-1" d="M146.11,71.75h-54.3v-13.3h38.79l1.11-12.19h-41.01l-2.22-28.82,2.22-5.54h50.98v12.19h-38.79l1.11,7.76,38.79,1.11,3.32,38.79Z"/>
  <path class="cls-1" d="M182.64,33.87l-10.81.86,3.33,37.02h-14.14l-2.49-37.02-7.49-.86v-8.61h7.49l.83-18.77,10.82.86.83,17.04,10.82.86.83,8.61Z"/>
  <path class="cls-1" d="M276.12,71.75h-87.24l1.13-61.1,47.52-2.26,5.66,1.13,1.13,37.34-38.47,1.13,2.26,10.18h65.75l2.26,13.58ZM229.61,21.97c-2.49-2.49-23.76,0-23.76,0l1.13,13.58s23.76,2.26,23.76,0,0-12.45-1.13-13.58Z"/>
  <path class="cls-1" d="M327.2,65.58l-1.66,6.17h-39.09l.83-64.37,29.11-.88,6.65,14.11-3.33,14.11,4.99,2.65,2.49,28.22ZM307.24,28.54v-12.35l-7.49.88-.83,12.35,8.32-.88ZM313.06,60.29v-10.58l-5.82-5.29h-6.65l-.83,14.99,13.31.88Z"/>
  <path class="cls-1" d="M374.19,71.75h-38.26l-2.49-44.91h11.64l1.66,32.44h14.97l-.83-33.27,11.64.83,1.66,44.91Z"/>
  <path class="cls-1" d="M423.24,71.75h-40.74l1.66-44.91h20.55l-1.75-20.34h14.27l6.01,65.25ZM407.37,60.94l-1.71-22.46h-11.51l.83,22.46h12.39Z"/>
  <path class="cls-1" d="M472.07,71.75h-40.74l1.66-44.91h20.55l-1.75-20.34h14.27l6.01,65.25ZM456.2,60.94l-1.71-22.46h-11.51l.83,22.46h12.39Z"/>
  <path class="cls-1" d="M517.82,6.44l-2.83,65.3-34.1-.83-.83-9.15,25.78-1.66v-15.8h-24.95l-3.82-38.69h11.64l1.32,29.54h14.97l2-28.71h10.81Z"/>
</svg>