<?xml version="1.0" encoding="UTF-8"?>
<svg id="Layer_3" data-name="Layer 3" xmlns="http://www.w3.org/2000/svg" viewBox="0 0 300 300">
  <defs>
    <style>
      .cls-1 {
        fill: #202020;
      }
    </style>
  </defs>
  <g>
    <path class="cls-1" d="M265.83,151.74c-.47-2.66-2.09,1.4-.87-1.74.93.36,1.64.88.87,1.74Z"/>
    <path class="cls-1" d="M264.17,141.24c-.85-1-1.48-2.04-2.02-3.11-.56-1.07-.98-2.17-1.3-3.31-.16-.57-.29-1.14-.4-1.73-.13-.58-.26-1.17-.37-1.76-.22-1.18-.38-2.39-.52-3.62-.75-4.82-1.45-9.96-4.83-13.59-.58-.92,3.25-.82,1.71-2.86-3.81-3.36-6.33-8.26-8.63-13.7-2.28-5.43-4.27-11.45-6.14-16.97l1.17-.04c-.38-1.04-1.6-1.6-2.83-2.13-1.23-.54-2.48-1.04-3.05-2,.47-.42,1.15-.04,1.46-.98-1.82.81-3.27-2.5-4.98-2.21-.06-1.13,1.1-2.09.9-3.49l-2.43.56c-3.01.48-4.48-.94-5.84-2.81-.66-.94-1.41-1.88-2.25-2.71-.87-.81-1.84-1.53-3.2-1.72.49-.25,1.11-.26,1.12-.87-3.97-1.19-7.69-3.23-11.55-5.23-.95-.51-1.91-1.02-2.88-1.54-.98-.48-1.96-.95-2.94-1.43-1.93-.99-3.95-1.74-5.91-2.45.63-.53,1.53-1.63,1.46-2.62-1.37,1.8-3.95,1.26-6.15.76.01-1.28-1.08-1.2-2.4-.99-1.32.19-2.84.44-3.81-.63l.38-.41c-2.61,1.65-2.24-2.25-4.62.02l-.59-2.13c-1.75,2.89-2.18-2.39-4.19-1.24l-.13.67c-1.62.35-1.98-1.38-3.46-1.17l-.04-.4c-3.33.07-4.86-1.98-5.24.54-.75-2.21,3.27-.36,2.08-3.61-5.61.22-11.07.17-16.52.06-5.46-.03-10.91.02-16.28.53-1.32-.88-2.15-1.08-2.54-2.01-1.02.65-4.05.97-4.79,2.48.35-.11-.91-1.17-1.51-1.19-2.16-.58-1.6,3.11-3.93,2.48.69-.86.81-1.74.33-2.6-1.4,2.4-3.89,2.55-5.82,3.83.21-.51.66-.9.37-1.65-1.69,2.85-4.38.7-5.95,2.79l.29-1.66c-3.83-.6.04,3.25-3.07,3.18.5-.66.07-1.13,0-1.74-.85,1.7-2.31,2.82-3.88,3.66-1.57.83-3.14,1.64-4.19,2.58.06-.25-.15-.6-.15-.6-1.28.73-2.66,1.31-4.04,2-.69.34-1.37.71-2.03,1.15-.65.45-1.25,1.01-1.8,1.66-1.35.01-1.45-3.33-3.93-1.28,1.6,2.45-3.84,3.9-.49,5.73-.62.24-1.33.52-2.08.81-.73.32-1.48.67-2.19,1.04-1.41.75-2.65,1.57-3.01,2.53.26-1.64-3.23-2.07-1.62-3.66l-2.44-.37c-.54-1.12,1.65-.78.29-1.65-.84.83-2.77,3.78-3.84,4.09-.43,2.82.32,6.52-1.74,9.08.33-1.92-2.91-1.75-2.48-2.86.16,2.46.38,4.86.73,7.29-.64.87-1.86-1.45-2.38.22.63.48.51,1.3.66,2.07-.55.06-2.34,3.82-4.9,2.3-1.2-.37.7-1.75-.89-1.5-1.33,1.56-.55,2.31-1.78,3.91l-.33-.21c-.59.4-.96,1.37-.89,2.21.09.86.59,1.57,1.65,1.47.62-.67-1.63-.78-.11-1.34.76,1.74-.13,3.9-1.25,5.5,0-.81-.69-1.19-1.21-1.88.14,1.73.06,3.3-.2,4.79-.26,1.48-.67,2.88-.95,4.39,1.17.75-1.64-2.22-.79-2.23-1.75,1.15-2.19,3.17-2.54,5.08-.32,1.94-.77,3.65-2.66,4.48-.01-.57,1.9.59,1.53.46-.89,1.55-2.7.65-2.5,2.03-1.13-.37-.3,1.5-.37,2.76.57.9-.65.08-.38-.96.17.99,0,3.19-.45,5.52-.2,1.18-.51,2.38-.95,3.49-.45,1.1-.91,2.15-1.6,2.96.79.16,2.09,3.01,1.84,3.82l-1.7-.78c-1.24.52-.51,2.91-2.07,2.71.87,1.16.82-.71.69-2.54-.13-1.83-.18-3.6.28-2.13-1.71.26,1.96,4.18-.33,3.04-.34,1.78,1.26,3.84-.68,5.19.37-.42-2.23-1.92-2.36-.45-.13,2.6.73.88.97,3.03.16.46.35.93.55,1.39,1.75.34-.52,2.21,1.57,1.55-1.49.13.43,3.69-2.46,3.14l-2.28-.59c.07,1.14,2.3,2.06,3.26,2.99-.23.12-.72.38-1.09.29,3.55.42-.53,2.6,2.23,4.01-.64,1.11-.71,2.55-.89,3.84-.12,1.29-.36,2.44-1.46,3.02.57.87,1.15,1.68,1.57,2.53.43.84.62,1.72.32,2.74-.36-.37-.51-.91-1.28-.96-.95,1.34.01,1.59.67,2.67-.59-.21-1.77,2.72-2.84,4.33,1.28,1.64,3.1.73,4.29.74-1.64,1.05-.83,2.19-.02,3.34.82,1.16,1.67,2.3.37,3.6-.31-.24-.87-.77-1.43-1.05-.53-.28-1.09-.3-1.37.51-1.53,1.16-.7,1.85.36,2.58,1.09.73,2.32,1.5,1.89,2.96l2.65-1.35c-1.43,1.57,2.65,3.13-.28,3.71,1.2.53,0,3.19,2.61,2.04-.24,1.17-.06,2.34.26,3.49.37,1.13.92,2.23,1.36,3.32.22.54.41,1.08.56,1.62.17.53.28,1.05.3,1.58.05,1.06-.24,2.15-1.12,3.29.66.37.94,1.94,2.11,1.01.95-1.58-1.65-.77-.83-1.58.3.46,1.05.23,1.43.11,0,1.44.31,2.47-2.38,2.4-.17,3.48,5.62.53,6.48,4.2-1.1.44-1.35.91-.64,1.76.91.26,1.85.49,2.79.7.88,2.24-1.52,2.58-3.18,3.7,1,.92,1.79,2.34,3.38,1.96l-1.13,2.74c.8-2,1.61.19,2.36.4l-.75-.21c-.54.7.76,1.64,1.46,2.07.43-.45.51-1.05.46-1.64-.05-.6-.21-1.22-.31-1.66,1.08.02,1.51.98,2.88,1.01-1.73.96.19,2.49.66,3.43.4,1.2,2.2-.11,2.36.2-.76.68,1.11,1.54-.56,1.78-.51-.1.16-1.33-.96-1.25-.07,1.06-1.47,2.15.57,2.54,1.53.28,2.7-2.78,3.26-.24-.75-.13-1.41.31-2.23.42.22.77.43,1.55.69,2.3l1.37-1.14c-.13.52-.38.47-.46.74,1.81-.82,2.69,1.98,4.51.85.88.61.76,2.43,1.36,3.29l-.25-.02c.1.81.57,1.4,1.22,1.74.67.32,1.5.42,2.29.31l-.3.26c.43.55,1.83,1.41,3.15,1.15.5,2.1-3.77,5.59-.82,5.05,1.48,1.09,4.18-.87,4.3-2.22.9,1.4,2.53,2.02,3.99,2.78,1.5.71,2.86,1.52,3.36,3.49.76-.37.75-.9,1.76-.8.9.72,1.94,1.26,3.01,1.75,1.06.5,2.21.83,3.26,1.28,2.09.93,3.99,1.88,4.96,4.27-1.52.13-.8,1.59-1.16,2.54,1.64-.99.62,2.05,2.04-.31.51-1.54.9-2.2-.03-3.3,1.42.13,3.09.53,4.5,1.18,1.42.63,2.64,1.39,3.12,2.36-.48-.95.23-1.23.94-1.5-1,2.37.83,3.42,2.57,2.93l.64-1.45.51,1.82c.71-.33,1.47-2.97,2.53-1.14-.07.6-.14,1.22.02,1.71.93-.44,2.04-1.07,3.08-1.38,1.04-.3,2.01-.3,2.72.48l.96,2.49c.77-.12,2.19-1.26,1.05-2.13,1.29.96,2.42,1.49,3.3,2.06.88.58,1.52,1.2,1.87,2.24,1.4-1,2.89-1.87,4.4-2.43.76-.29,1.52-.51,2.3-.71.77-.22,1.56-.4,2.34-.53s1.57-.22,2.35-.28c.78-.07,1.56-.16,2.33-.19,1.54-.09,3.05-.03,4.47-.09l-.09,1.18c1.62.98.65-2.11,1.77-1.38-.42,1.15,1.39,2.33.27,3.79,2.39,1.08,2.71-2.3,4.05-3,.03-1.55-1.03,1.12-.98-.85.16-.58,3.18.8,3.17-1.54.67.82.52,2.58.36,3.55.4-.42.78-.9,1.17-1.34,1.04,1.19.32,2.56-.45,4.01-.76,1.4-1.57,2.88-.41,4.42.43-.18.86-.34,1.28-.54,1.68,2.23-3.2,3.21.36,3.57,1.34-1.4,1.96-4.94.53-5.73,2.83-1.18.38-5.67,3.42-6.09.55.57-.03.8-.63,1.08-.61.26-1.24.59-.76,1.48.91.8,1.59.4,2.2-.18.62-.57,1.16-1.28,1.87-1.1-1.61-.53-.94-3.1-.17-3.71,1.77.72-.46,2.36,1.75,2.1.03-1.4,1.67-2.92-.22-3.35-.06-3.15,2.37.2,2.83-2.38,1.32,1.85-.76,5.36,1.89,5.73-.49-.95.04-1.79.38-2.8.35-.99.53-2.06-.53-3.31,1.04.28,1.66,1.78,1.41,3.21,1.71.75,1.82-4.58,3.63-.89l-.31-2.15c.63.49,1.36.75,2.42,1.56.57-.2,1.19-1.22,1.8-1.8.6-.61,1.19-.81,1.79.68.22-.46,2.76-1.45.88-3.02-2.06-.55-1.1,2.27-3.12-.09,2.03,1.75,2.04-1.27,2.53-2.38l.66,1.05c.32-.64,1.59-1,1.3-2.36-.06.83.5,1.48,1.04,1.54l-.32-1.94c1.57-1.86,2,2.69,3.74,1.17-.26.71-.56,1.38-.85,2.08.18-.46,1.73.77,2.41-.31-.45-1.72-.78-3.89-1.14-5.22.69-1.26,1.46,1.39,1.63-.73l-.36,2.58c.05.6,2.4,1.92,3.87.96.64-1.12.7-4.09-1.22-3.97.69-.47,2.25-.24,2.37,1.17,1.3-1.53-1.21-1.41-.42-3.18,1.19.59,3.81.68,5.87,1.27.08,1.11.15,2.23.2,3.37l1.01-.68c.04,2.79,1.69.95,2.37,3.43.93-.19,1.3-1.46,1.56-2.48-2.15-.77-2.38-2.27-2.47-3.83-.08-1.57-.02-3.19-1.38-4.37.93-1.34,2.68.03,4.08.88,1.4.87,2.51,1.25,1.97-1.94-1.02-.33-1.62-3.37-2.45-1.3,1.73-1.02-1.31-3.47,1.3-3.96-.11,1.11.82,1.46,1.75,1.92.93.46,1.87,1.03,1.65,2.69-.34-.49-.74-.41-1.07-.14-.34.25-.62.69-.65.95,1.53.44,2.25,2.8,3.82,1.34.71-1.15,1.96-2.43.49-3.57-1.45-1.41-1.26,1.5-2.09-.54.66-1.12,1.61-1.19,2.17-1.42.54-.23.71-.59-.22-2.22-.88,1.34-2.63.13-3.59-.88.24-.6.42-1.24.62-1.85l.73,1.19c2.66-1.39-1.19-2.3.94-4l2.81.8c1.3,2.07-3.48,2.26-.43,4.46.69-.62.8-1.36.97-2.01.16-.67.35-1.27,1.28-1.6-.01.5-.29.96-.29,1.47.51-.4,4.68,2.32,4.26-1.61,0-1.79-.8-1.12-1.84-2.04,1.47-2.61.95-4.1,1.83-5.76,1.97,1.92,2.14-2.56,3.2.76-.95-.07-1.95.81-2.64,1.94-.68,1.13-.97,2.6-.29,3.85,1.59.58,1.14.98.55,1.56-.62.55-1.38,1.27-.36,2.58,1.68-1.82,4.05.27,5.92,1.26.56-.48.31-1.58.32-2.12-1.35-1.45-1.9-.7-3.51-1.92,1.05-.94,1.83-2.07,2.17-3.32.34-1.25.33-2.53-.01-3.68,1.32-.19,2.77,1.14,2.28,2.15.76-1.5,1.59-3,2.56-4.39,1-1.37,1.99-2.73,3.04-3.95-3.78.18,1.08-3.4-1.94-3.48-1.44,1.1-4.11,1.15-4.91-.32.67-.75,1.2.72,2,.69-.45-.98.42-1.06,1.16-1.22.73-.17,1.35-.41.42-1.6-.4,3.06,3.18,2.34,5.14,3.99-.24-2.63,1.53.92,2.54-1.05-.16-2.61-.11-5.55.4-7.95,1.66-.94,2.39-2.78,2.81-4.64.33-1.91.35-3.85.74-5.14,1.6-1,4.04.76,4.95-.65.46-1.82-3.31.48-1.31-1.81l.47.41c-.22-.49.64-1.57.97-2.8.34-1.22.26-2.55-1.63-3.37l2.8,1.5c.39-.45-.19-1.07-.41-1.55.98.19,2-.22,2.45.76.61-.31.95-.7,1.12-1.14.15-.44.12-.92.03-1.42-.19-1-.64-2.05-.52-2.98l-2,.89c-.21-.85-.23-1.59-.15-2.28.07-.69.21-1.34.39-1.97.35-1.28.83-2.54.67-4.1l1.76.26-.92-1.94c1.68.6,2.92-1.04,1.55-2.12,1.31,1.7,2.66,3.47,3.93,5.29-1.2,1.26-1.97-1.72-3.8-1.03-1.58.57-1.49,3.45.15,4.17.34-1.09-.04-1.2-.57-2.13,2.5-.08,2.19,1.61,3.71,2.69-.02-.61.83-1.37.07-1.6,1.02,1.32,1.13,2.57.83,4.55-.71-1.48-1.64.48-2.24-.14,2.12.5,2.44,2.52,1.4,4.84-1.43.61-1.29,1.8-.97,3.21.33,1.41.83,3.04.08,4.34-.9-.86-1.67-1.74-2.29-2.64-.64-.91-1.11-1.83-1.35-2.75-1.48,1.42-.34,1.92-1.9,3.3,1.36,1.23,3.62,2.49,3.93,5.04l-1.59-.35c.16,2.25,2.41,3,1.11,5.46-.55,1.04-1.11,2.1-1.66,3.14-.53,1.04-1.03,2.08-1.5,3.09-1.02,1.99-1.92,3.87-2.77,5.43l-1.52-.59c1.12,1.63.64,3.25-.08,4.84-.73,1.59-1.82,3.06-1.81,4.62-.46.4-.84.84-1.21,1.31-.38.46-.71.95-1.01,1.45-.61,1.01-1.11,2.07-1.61,3.07-1.05,1.94-2.14,3.56-3.93,3.68-3.75,7.13-7.68,13.35-14.3,18.59-.17-.89-.38-1.81-.58-2.7.1,2.3-1.61-.33-2.45.86,2.52.32.11,3.14.24,4.94-1.99.56-3.67,1.82-5.01,3.51-1.36,1.66-2.53,3.54-3.43,5.21l-1.02-1.26c-.52,2.23-2.1,3.29-3.94,4.07-1.85.77-4.07,1.06-6,1.9-.74-.33-2.14-1.34-3.14-.62-.81,3.35-1.93,3.79-4.34,6.64-2.24,1.09-6.26,1.92-8.93,1.86-3.73,3.25-8.21,5.03-12.84,6.23-1.16.3-2.33.6-3.49.9-1.18.25-2.36.51-3.54.79-2.35.62-4.74,1.13-7.11,2.01l-.91-1.81c-2.23,1.23-4.71,1.97-7.26,2.36-1.28.16-2.57.26-3.87.31-.65.02-1.3.05-1.94.04-.65-.03-1.29-.06-1.94-.09-1.28-.08-2.56-.16-3.81-.23-1.25-.1-2.47-.25-3.67-.33-1.19-.1-2.36-.11-3.48-.14-1.12-.03-2.21,0-3.26.13l1.19-3.14c-1.17-.67-2.61-.6-3.73-.16-1.12.44-1.94,1.35-1.81,2.55-1.18-.72-2.82-.6-4.33-.7-1.49-.15-2.83-.49-3.31-1.97-2.4-1.15-3.47.69-5.72.52-1.19-.67-2.2-1.15-3.12-1.6-.91-.45-1.74-.8-2.57-1.08-.84-.29-1.68-.52-2.63-.74-.94-.25-1.97-.52-3.18-.84l1.08.64c.77-.47,1.3-1.75.24-2.39-1.01.08-2.51-.72-3.7-1.07-1.18-.36-2.11-.2-2.05,1.96-1-1.07-2.24-1.81-3.61-2.41-1.35-.64-2.82-1.18-4.28-1.72-1.48-.52-2.89-1.18-4.14-1.99-1.24-.82-2.34-1.76-3.02-3.13-.19,1.15-1.4.61-2.26.91-1-.63-1.94-1.38-2.84-2.17-.86-.83-1.72-1.66-2.56-2.47-1.71-1.55-3.32-2.98-5.37-3.43-.25-.88,2.05-.68.64-1.94-1.14-.38-.89,1.07-2.36.66-1.76-.87-3.31-2.05-4.7-3.38-1.35-1.38-2.52-2.94-3.64-4.49-1.09-1.58-2.07-3.22-3.12-4.72-1.04-1.5-2.05-2.98-3.28-4.18-4.7-4.02-8.71-8.98-11.99-14.28-3.28-5.32-6-10.87-8.49-16.25l.77-.19c-2.17-1.22-2.28-3.73-2.56-5.97-.21-2.29-.48-4.38-3.14-5.2.4-1.11-.66-3.55.96-3.3-1.43-1.22-1.62-3.47-1.69-5.88-.06-1.2-.14-2.43-.44-3.61-.26-1.18-.7-2.31-1.56-3.31,0,.42.2.63.62,1.04.44-2.4-.11-4.46-.52-6.61-.23-1.07-.46-2.14-.57-3.26-.1-1.12-.02-2.29.27-3.51.37.46.68,1.32,1.47,1.39.68-.97-.23-1.98-.84-2.93-.61-.95-.94-1.83.94-2.42-.06-1.04-1.91-.67-1.78-.02.32-2.63.29-5.28.38-7.96.02-1.34-.01-2.69-.04-4.05.02-1.36,0-2.72-.02-4.1l-.05-2.07.03-2.07.05-4.18c.09-1.39.18-2.78.27-4.17l.17-2.09.29-2.06c1.99-3.62,3.55-3.3,4.45-2.99.91.31,1.11.69.6-2.6.83-.28-1.29-.74-.52-.61-.18-1.29,1.08-1.88,2.2-2.39,1.15-.5,2.16-.93,1.48-2-2.41-.09-.88-1.43-2.19-1.94,1.45-2.02,2.82-3.01,3.75-4.02.94-1.01,1.38-2.06,1.33-4.09l1,.73c-.35-1.32-.37-2.56-.23-3.76.12-1.2.42-2.35.75-3.46.63-2.24,1.12-4.45.37-7.05,2.85-5.51,6.09-10.74,9.59-15.77,3.48-5.05,7.34-9.81,11.5-14.29,1.06-1.1,2.06-2.26,3.17-3.31l3.3-3.19c1.12-1.04,2.29-2.03,3.44-3.04.58-.5,1.15-1.01,1.75-1.5l1.81-1.42c1.22-.93,2.4-1.93,3.67-2.79l3.8-2.64c1.28-.86,2.61-1.64,3.93-2.46.66-.4,1.32-.81,1.99-1.19l2.05-1.11c5.51-2.69,11.15-5.02,16.89-7.05,5.72-2.08,11.61-3.65,17.57-4.89,5.97-1.24,12.06-1.87,18.17-2.11,6.12-.1,12.27.26,18.37,1.37,5.4,3.84,5.68,3.72,12.09,3.58-.35.46-.75.51-.44,1.06.83-2.57,4.34.67,5.48-1.63,8.73,2.58,16.92,4.66,25.46,8.65-1.48-.36-3.03,1.29-1.38,1.85.79-.25,1.59-.51,2.38-.72l-.06.79c1.23.19,3-.35,2.26-1.68,11.21,4.34,20.75,11.95,28.72,20.51,3.98,4.32,7.58,8.9,11.01,13.54,3.34,4.71,6.59,9.41,9.72,14.21,1.94,5.17,6.45,11.44,9.25,16.74,1.86,8.78,2.74,17.08,3.56,25.19.8,8.13,1.56,16.1,2.79,24.73,0,0-1.71-.58-3.63-1.96-1.95-1.39-3.99-3.54-5.08-6.79Z"/>
    <path class="cls-1" d="M266,154.97c-1.3.53-2.15,2.31-3.8.76,1.24-.11,2.64-1,3.8-.76Z"/>
    <path class="cls-1" d="M241.33,196.79c.32.23-.76.32-1.02.34.16-.53-.59-1.48.21-1.55-.16.53.43.74.81,1.21Z"/>
    <path class="cls-1" d="M234.99,206.12c-.88-.8-.38-3.28.24-4.52l-.24,4.52Z"/>
    <path class="cls-1" d="M225.07,211.48c-1.31.04-1.55-.49-.83-1.37.53.33.54.82.83,1.37Z"/>
    <path class="cls-1" d="M226.66,213.73c-.54.66-1.34.53-2.11.41.78.62.79-1.87,2.11-.41Z"/>
    <path class="cls-1" d="M208.6,226.4c-.34.4-.65,1.87-1.83,1.09,1.01.44,1.09-2.7,1.83-1.09Z"/>
    <path class="cls-1" d="M201.32,233.57c-.32.11-.53.01-.7.48-.8-.17-.68-1.19-.32-1.56l1.02,1.09Z"/>
    <polygon class="cls-1" points="50.13 174.13 50.94 175.11 49.78 175.22 50.13 174.13"/>
    <path class="cls-1" d="M64.5,92.9c.02-1.38,1.36-.04,1.6-.1-.49.91-.99-1.13-1.6.1Z"/>
    <polygon class="cls-1" points="94.47 56.62 94.17 56.83 93.05 54.72 94.47 56.62"/>
  </g>
  <g>
    <path class="cls-1" d="M69.33,56.32c-.99-.26-1.16,1.75-1.05.22.76-.56,1.4-.94,1.05-.22Z"/>
    <path class="cls-1" d="M229.11,226.29c-6.35,2.18-4.42-4.74-9.35-4.28-.44-.08,2.49-2.23,1.34-2.27-5.48,1.11-6.65-4.23-6.5-9.37l.83-.49c.02-.97-2.82.57-3.01-.26.45-.44.81-.44,1.31-1.16-1.5,1.17-1.54-.36-2.78.39.34-.72,1.44-1.73,1.78-2.57l-1.85,1.18c-4.51,2.68-1.68-2.29-4.69-1.62.41-.29.8-.44,1.07-.87-4.01.3-5.78-2.41-8.57-3.68.63-.44,1.71-1.32,2.21-2.03-1.74,1.46-2.76,1.22-3.61.97,1.45-1.85-2.44.52-2.13-1.02l.43-.3c-2.22,1.2.34-1.68-2.15-.05l1.04-1.57c-2.58,2.05.57-1.86-1.01-1.11l-.48.48c-.94.18.07-1.15-.66-1.12l.25-.3c-1.4-.21-.52-1.94-2.36-.16,1.21-1.69,1.42.14,3.16-2.36-4.45-.85-6.69-3.95-9.28-6.61.45-1.01.5-1.42,1.13-2.16-.63.09-1.3-.69-2.48-.03.12.06.78-1.08.74-1.31.24-1.15-2.55,1.41-2.23.08.7-.26,1.37-.75,1.99-1.48-1.88.92-2.24.09-3.22,0,.39-.21.7-.26,1.26-.83-2.2.97-.68-1.41-2.21-.94l1.26-.83c.51-2.07-2.48,1.89-2.39.43.5-.15.87-.61,1.33-.99-2.59,1.18-2.98-.52-4.28-.57.19-.1.47-.39.47-.39-.94-.5-1.06-1.84-2.68-1.84.2-.75,2.71-2.39,1.58-2.79-2.13,2.08-2.14-.47-4.14,2.3-.28-1-.47-2.81-1.61-2.56,1.1-.48,2.32-2.82,3.03-2.45l.91-1.65c.94-.78.11.71,1.09-.48-.35-.2-1.96-.19-1.85-.77-1.81.75-4.71,2.61-5.77,2.05,1.21-.41,2.16-2.48,2.78-2.56l-5.22,2.77c-.36-.18,1.64-1.68.7-1.54-.55.56-1.06.72-1.64,1.04.15-.33-1.62-.63.38-2.77.72-.91.88.02,1.34-1-.51-.49-1.25.18-1.77-.3l.27-.28c0-.63-1.84-.13-2.67,1.35.15.3,1.19-1.3.9-.37-1.46.94-2.36.67-2.87.18.51-.15,1.05-.71,1.72-1.21-2.32.9-3.53.68-4.95.58-1.02.95,2.1-1.46,1.68-.84.47-2.3-3.9-.13-2.63-2.89.31-.04-1.36,1.43-1.09,1.15-.32-.59,1.16-1.96.33-1.75.83-.85-.64-.13-1.2-.19-.78.43.34-.48.7-.29-1.15.26-4.14-.26-3.86-2.46-.55.56-2.68,1.35-2.83,1.06l1.41-1.17c.59-.97-.86-.67.24-1.79-2.08,1.03,3.2.62,1.31,1.13.94-1.23-3,1.07-1.06-.5-.49-.43-2.42.54-1.6-1.09-.09.33,2.2-1.36,1.75-1.66-.87-.44-.81.41-1.77.29l-.87.18c-1.31,1.2-.39-.76-1.6.86.99-1.1-1.58-.35.63-2.32l1.77-1.51c-.4-.17-2.23,1.22-3.19,1.7.12-.19.39-.59.68-.83-2.62,2.41-.44-.89-2.76.66.32-1.46-1.38-1.61-.04-3.43-1.22.28-2.56.74-2.51-.32.34-.12.55-.05,1.14-.55.44-1.06-.32-.49-1.02-.4.45-.3.87-2.1,1.44-3.34-1.21.27-2.45,1.75-3.35,2.52,2.14-2.84-2.88.26-1.08-2.47.5-.18,1.89-.51,2.17-1.51,2.14-2.84-2.69.94-2.11-.91l-1.96,2.18c1.02-1.55-2.18.16.04-1.82-.98.5-.07-1.47-2.05.57.68-2.77-3.64-1.72-.6-5.92-.5.17-.52-.57-1.51.52-.89,1.36,1.18-.41.49.44-.2-.08-.79.42-1.09.68.14-.8.03-1.21,2.05-2.51.54-1.99-4.26,2.53-4.39.78.89-.77,1.15-1.15.74-1.31l-1.98.84c-.27-.96,1.59-2.2,3.03-3.6-.57-.1-.9-.59-2.12.28l1.42-2.14c-1.03,1.55-1.14.55-1.65.73l.51-.18c.55-.64-.2-.68-.57-.7-.85.9-.83,1.64-.88,2.11-.8.43-.91.02-1.88.5,1.49-1.27.48-1.51.37-1.92.01-.6-1.6.86-1.64.72.73-.71-.36-.62.9-1.36.33-.12-.48.92.33.48.35-.72,1.66-1.92.32-1.46-1.01.35-2.72,2.74-2.4,1.28.5-.18,1.1-.68,1.72-1.04l.2-1.27-1.31,1.2c.25-.39.42-.44.56-.64-1.52,1.12-1.24-.47-2.89.85-.41-.16.32-1.45.21-1.87l.16-.05c.44-1.06-.48-1.03-1.62-.48l.3-.25c-.07-.28-.69-.52-1.66-.02.54-1.39,4.72-4.79,2.62-3.76-.49-.43-3.06,1.51-3.71,2.49.07-1.67-2.94-.62-1.68-3.31-.64.37-.89.76-1.43.8-.67-1.72-4.01-1.15-2.41-4.55.88-.16,1.31-1.2,2.04-1.91-1.44.8.86-1.5-1.22.28-1.14,1.14-1.73,1.65-1.87,2.45-1.33-.14-2.39-1.26-1.69-2.71-.35.72-.85.9-1.36,1.07,1.91-1.71,1.68-2.53.63-2.31l-1.19,1.02.91-1.38c-.51.19-2.54,2.08-1.84.64.42-.44.84-.88,1.09-1.27-1.33.45-3.47,1.35-2.95-.02l1.3-1.95c-.37-.02-1.68.59-1.83,1.39.25-1.74-.11-2.36,1.08-3.97-4.78,1.96-6.79.12-8.04-1.69l.89-.76c.39-1.18-1.69,1.19-1.39.34.94-.63,1.45-1.99,2.76-2.61.32-1.46-2.21.62-2.97.59-1.17,1,1.02-.36-.47.91-.46.31.07-1.67-1.71-.16.52-.78,1.87-1.84,2.63-2.41l-1.17.41c1.54-2.33,4.5-2.31,6.48-5.1l-.59-.09c1.46-2.01,2.85-.99,2.64-2.42-1.18.42-3.93,2.43-4.36,3.46-1.2-.33-4.36,3.46-5.02,2.5.78-1.17.87.44,2.11-1.04.99-1.68-1.51-.06-1.36-.87-.27.99-2.28,2.29-2.83,2.33.39-1.18,1.86-1.24,1.46-2.01-1.07.83-2.32.97-2.54,2.09-2.41,1.88.02-1.21-2,.1,1.36-1.67,4.18-2.8,4.33-4.19-1.4,1.53-2.81,1.12-4.7,3.58.19-.67,1.34-1.82,2.44-2.5.57-1.24-3.58,1.7-.73-1.24l-1.65,1.33c.39-.59.6-1.11,1.25-2.08-.28-.35-3.07.92-.73-1.25-.34.12-.94-.72-2.27,1.09-.54,1.39,1.67-.58-.24,1.73,1.45-2-.86-.45-1.7-.16l.85-.89c-.5.17-.65-.38-1.71.44.63-.37,1.18-1.01,1.27-1.34l-1.52,1.13c-1.29,0,2.24-2.42,1.25-2.68l1.51-.53c-.32.11.74-1.31.03-1.21-1.35,1.06-3.05,2.26-4.11,3.07-.88.16,1.25-1.49-.36-.63l1.93-.96c.47-.32,1.76-2.26,1.27-2.7-.72.11-2.95,1.34-3.18,2.46-.24-.22.19-1.27,1.28-1.94-.94-.13-1.27,1.34-2.48,1.61.65-.97,1.26-2.68,2.12-4.18l2.53-1.49-.29-.34c2.06-1.17,1.07-1.42,3.04-2.85.07-.48-.78-.18-1.44.04-2.2,3.31-4.52,2.93-6.91,5.55-1.53-.22,5.71-6.47.82-3.58-.52.78-2.88,2.2-1.62,2.06-.24-.82-2.92,2.07-2.48.42,1.51-.52,2.11-2.98,4.29-3.74-.89.76-.28,1,.07.87.76-1.16,2.62-2.4,2.09-2.96-.57-.11-1.07-.53-2.33.8-1.45,1.41.65.37-1.04,1.56-1.16-.2.96-2.43-1.9-.24.61.24-.8,1.78-1.81,2.73l-1.09.08,1.07-.83c-.06-1.47-1.99,1.44-2.47.42l1.58-2.2c1.83-1.39.34,1.83,2.91-.87-.37-.61-1.9.53-1.66-.62.33-.11.54-.03.88-.16-.08-.27,3.32-3.85.54-2.58-1.17.4-1.06.82-2.07,1.77-1.08-.52-2.34.22-2.99-.16,2.08-1.77-.69-1.1,1.88-2.44-.9,1.36.33,2.43,2.48.93,2.05-2.51.28.95,2.81-1.12-.57-.7,1.76-2.86,3.17-4.4-.07-.28-.87.15-1.21.27-1.49,1.27-1.25,1.49-2.69,2.89-.31-1.09-1.76-1.04-3.52-.13.47-.91,1.96-2.18,2.37-2.02-1.24-.47-1.93-1.57-2.28-2.8-1.81,2.73-1.42-.4-2.99,1.79-.1.93-1.39,2.88-2.66,3.63-.11-.42,1.02-.95,1.41-1.54-1.6.85,1.51-2.47-.81-.92,1.5.08,2.97-2.53,4.92-4.11-1.56.4,1.31-1.2.78-1.76-1.55.39-3.01.45-4,.19.97-2.43-1.87-2.04-2.62-2.68.57-1.24,2.85-2.94,2.83-3.68-.49-.43-1.88,2.45-1.6.86l.47-.32c-.68.24.18-2.6-2.97,0l2.43-1.9c.08-.32-.55.04-.88.16.72-.69,1.23-1.47,1.91-1.71,1.12-1.89-1.11-.67-1.61-1.08l-1.03,1.55c-1.79.18-1-1.6-2.2-1.93l1.31-1.2-1.21.27c1.35-1.07,1.75-2.26.48-1.51l4.29-1.8c-.44,1.05-1.9,1.11-2.97,2.53-.94,1.23.09,1.62,1.44.56-.12-.41-.41-.15-1.08.07,1.7-1.79,2.03-1.31,3.42-2.24-.21-.07.14-.8-.45-.29,1.14-.55,1.55-.39,2.04.04-1,.34-.94,1.23-1.57,1.59,1.61-1.46,2.52-1.47,2.64-.47-1.42,2.15,2.21-.02,2.35,1.13-1.86,1.24-3.47,2.11-4.5,2.31-.4,1.19.49.43.09,1.62,1.38-.93,3.35-2.52,4.6-2.65l-1.15,1.15c1.07-.07,2.82-1.73,3.1-.78.46,1.64,1.53,2.76,2.17,3.74l-1.14,1.15c2.95-1.93,2.39.66,4.11.22-.12,2.14,3.31,1.24,1.81,3.7,2.68,1.02,5.12,1.81,6.54,4.16l-2.02,1.3c1.59-.85-.77,1.16-.19,1.26,1-1.69,2.22-1.22,3.5-1.97-.51,2.13,2,1.86,3.92,1.48l-1.15,1.15c2.94-1.33,1.89,1.44,2.44,2.74-.38.57-1.32,1.8-.92,1.96,2.4-1.28,2.52-.88,4.44-1.25.53.56.92,1.92.73,3.19,4.67-.43,5.01,3.34,8.7,4l-1.23,1.47c4.97-.68,4.77,4.48,8.01,4.85l-2.53,2.07c-.19,1.26,1.85.7,3.39-1.03-.18,1.26,2.5.33.9,2.54.12,1,1.77-.32,2.55-.14.21,2.02.83,2.26,2.31,2.94l-.11-.41c-.63.37-1.65,1.32-1.54,1.73,1.04-.21.8,2.11,3.23-.98-.52,2.73,3.93,1.48,2.82,4.71.68-.83,1.1-.68,1.74-1.06,1.01,1,.47,3.57,2.56,3.15-.23.53-1.56.98-1.24,1.48.53-.03,1.01-.95,1.73-1.06,3.02.3,1.73,4.79,3.54,5.95,4.05,1.28,5.97,4.81,8.68,7.15l-.59.51c2.98-1.19-.29,4.14,3.63,1.73-.35.72.49,1.02-.75,1.91,2.18-.76.39,3.3,3.28,2.45-.03-.14-.2-.09-.54.04-.29,2.19,2.26,1.45,2.14,3.59-.35.12-.71.1-1.31.6-.69,1.44,3.31-1.3.8,1.52.25.21,1.53-1.14,1.31-1.2,1.15,3.33,5.25,4.16,8.17,5.98.02,3.29-4.49,4.47-1.16,3.91-.42.61,1.12-.91.58-.36,1.26-.19-2.27,3.72-.49,2.73,1.53-1.75,1.17-.65,2.2-1.6-.08,2.09-1.39,3.75.68,3.37l-.94.78c3.42-1.39,3.17,1.02,6.83-.89,5.66,4.91,12.19,8.58,17.53,13.53,4.41,5.73,10.55,9.61,14.06,16.35-1.14,3.45-.99,3.48,1.25,3.95-.43.3-.59.3-.86.72,1.96-1.74,1.09.79,3.03-.81,1.5,2.3,3.74,3.6,5.66,5.6-.51-.12-2.21,1.19-1.73,1.45l1.59-.76-.47.57c.53,0,1.73-.62,2.09-1.46,6.45,3.49,7.37,12.1,12.54,16.6.32,1.93,2.65,2.91,4.25,3.82,1.07,6.2,2.27,11.56,7.7,13.72,0,0-5.39,4.17-8.04,3.66Z"/>
    <path class="cls-1" d="M70.24,56.9c-.82,1.04-.92,1.97-2.53,2.83.85-.89,1.64-2.07,2.53-2.83Z"/>
    <path class="cls-1" d="M71.65,77.96c.3-.25-.23.53-.35.72-.21-.08-1.14.55-.75-.04.21.08.64-.37,1.1-.68Z"/>
    <path class="cls-1" d="M73.94,81.5c-.89.76-2.17.75-2.64.47l2.64-.47Z"/>
    <path class="cls-1" d="M73.11,87.62c-.48.92-.94,1.23-1.23.88.43-.45.76-.56,1.23-.88Z"/>
    <path class="cls-1" d="M75.23,85.99c.24.22-.15.8-.52,1.38.72-.7-.97-.11.52-1.38Z"/>
    <path class="cls-1" d="M78.55,94.41c.21.08,1.21-.27.4.76.51-.78-1.75.31-.4-.76Z"/>
    <path class="cls-1" d="M82.52,96.02c.03.14-.09.33.25.21-.23.54-1.02.95-1.23.88l.98-1.09Z"/>
    <polygon class="cls-1" points="134.85 144.25 134.14 144.34 135.02 143.59 134.85 144.25"/>
    <path class="cls-1" d="M156.33,166.76c.82-.2-.59.97-.67,1.14-.35-.19,1.14-.89.67-1.14Z"/>
    <polygon class="cls-1" points="172.12 174.9 172.01 174.83 173.77 173.22 172.12 174.9"/>
  </g>
</svg>