<?xml version="1.0" encoding="UTF-8"?>
<svg id="Layer_3" data-name="Layer 3" xmlns="http://www.w3.org/2000/svg" viewBox="0 0 95 95">
  <defs>
    <style>
      .cls-1 {
        fill: #202020;
      }
    </style>
  </defs>
  <g>
    <g>
      <path class="cls-1" d="M88.21,48.11c-.09-.94-.54.5-.2-.61.23.13.4.31.2.61Z"/>
      <path class="cls-1" d="M87.75,44.41c-.21-.36-.36-.73-.51-1.12-.16-.38-.29-.78-.4-1.18-.21-.81-.32-1.66-.42-2.53-.16-.85-.34-1.72-.57-2.56-.12-.42-.25-.83-.4-1.22-.17-.39-.41-.74-.66-1.08-.19-.33.82-.18.34-.92-.27-.32-.53-.67-.77-1.05-.23-.38-.45-.79-.72-1.2-.49-.83-.93-1.75-1.32-2.72-.93-1.87-1.69-3.97-2.55-5.77l.33.05c-.33-.69-1.43-.98-1.89-1.6.11-.11.34.04.38-.23-.49.16-1.12-.91-1.6-.92-.07-.35.22-.59.1-1.03l-.69.04c-.85-.04-1.42-.51-1.93-1.13-.53-.6-1.03-1.35-1.9-1.62.14-.05.34-.02.31-.2-.67-.26-1.32-.57-1.97-.94-.66-.35-1.28-.79-1.98-1.12-1.37-.71-2.7-1.56-4.13-2.01.19-.12.45-.38.38-.65-.39.44-1.27.17-2.03-.07-.08-.73-1.46,0-2.2-.63l.12-.09c-.85.34-.84-.68-1.59-.18l-.27-.59c-.52.7-.84-.66-1.51-.4l-.03.17c-.57.06-.73-.41-1.25-.4l-.02-.1c-1.16-.11-1.75-.61-1.84.02-.31-.56,1.15-.06.67-.89-3.93-.08-7.82-.34-11.68-.02-.46-.2-.75-.23-.88-.46-.37.19-1.44.34-1.73.71.13-.03-.3-.28-.51-.29-.75-.12-.63.78-1.43.7.26-.24.32-.47.17-.68-.54.65-1.41.8-2.12,1.15.09-.13.25-.24.17-.43-.67.76-1.56.24-2.15.88l.15-.45c-1.29,0-.09.86-1.15.96.19-.2.06-.3.06-.46-.35.48-.9.81-1.47,1.08-.58.25-1.12.58-1.52.87.03-.07-.03-.16-.03-.16-.46.27-.95.47-1.45.7-.5.22-1,.5-1.41.94-.44.07-.33-.86-1.22-.15.42.62-1.46,1.24-.45,1.61-.22.09-.47.2-.73.31-.25.13-.5.28-.75.43-.49.3-.92.61-1.09.9.17-.48-.92-.44-.32-.97h-.76c-.11-.29.57-.29.18-.48-.31.28-1.09,1.19-1.43,1.35-.27.86-.2,1.95-1,2.8.21-.58-.8-.38-.61-.73-.09.72-.17,1.42-.17,2.17-.23.31-.48-.34-.72.21.16.11.09.38.09.61-.16.05-.93,1.3-1.61.96-.34-.06.31-.57-.18-.42-.49.54-.27.76-.71,1.34l-.09-.05c-.38.32-.6,1.32.04,1.14.22-.25-.43-.16.04-.43.14.53-.26,1.25-.68,1.82.05-.26-.13-.35-.24-.54-.12,1.09-.41,2.09-.77,3.09.29.19-.34-.66-.1-.7-.55.46-.81,1.14-.98,1.81-.17.67-.34,1.3-.9,1.66.02-.19.49.12.4.09-.32.56-.77.33-.78.79-.29-.08-.17.51-.21.97.12.29-.17.05-.07-.32.01.34-.08,1.12-.29,1.95-.22.83-.54,1.72-.89,2.35.19.03.48,1.02.38,1.32l-.41-.23c-.34.22-.23,1.05-.63,1.02.37.8.21-2.69.39-1.68-.43.14.38,1.44-.17,1.09-.14.64.18,1.34-.31,1.87.1-.16-.54-.64-.59-.11-.06.94.17.3.21,1.07l.11.49c.44.09-.18.8.36.53-.38.07.01,1.33-.69,1.17l-.57-.19c.01.41.57.72.81,1.05-.06.05-.18.14-.27.12.88.12-.12.95.54,1.45-.17.41-.21.93-.27,1.4-.01.47-.06.89-.33,1.09.3.64.65,1.19.5,1.93-.09-.14-.13-.33-.32-.36-.24.48,0,.58.16.98-.17-.08-.39.96-.63,1.52.36.6.8.31,1.1.33-.76.72.77,1.67.2,2.52-.19-.18-.63-.82-.74-.25-.71.77.93,1.01.75,2.02l.65-.41c-.33.52.74,1.21,0,1.32.3.23.11,1.12.75.81-.02.81.39,1.66.68,2.46.27.81.62,1.51.22,2.22.2.15.34.7.61.44.2-.5-.48-.34-.29-.58.11.17.3.12.4.1.06.5.18.87-.55.72.09,1.17,1.51.47,1.97,1.73-.29.09-.33.24-.08.55l.82.38c.35.8-.31.78-.72,1.07.32.36.6.88,1.05.82l-.17.82c.12-.6.48.14.71.24l-.23-.11c-.12.19.32.56.53.74.21-.24-.03-.76-.14-1.05.32.06.5.39.9.49-.45.21.18.82.36,1.15.17.41.65.08.71.19-.19.17.43.54-.06.52-.16-.06-.04-.4-.37-.44.04.33-.31.59.33.82.48.17.65-.72.98.1-.24-.08-.41.02-.65.01l.34.75.35-.28c-.01.15-.09.13-.1.2.5-.15.91.79,1.4.55.31.24.39.77.63,1.06l-.08-.02c.16.5.73.79,1.21.82l-.08.06c.16.19.64.55,1.04.54.29.63-.89,1.43.03,1.42.54.38,1.31-.04,1.27-.42.37.46.92.74,1.43,1.06.54.27,1.05.56,1.32,1.13.23-.07.21-.22.55-.13.67.52,1.48.87,2.27,1.16.78.32,1.46.7,1.89,1.4-.52-.04-.21.39-.3.63.52-.18.3.57.69,0,.12-.39.22-.54-.15-.88,1.01.16,2.42.66,2.82,1.22-.2-.27.04-.32.28-.35-.27.59.4.95,1.01.84l.19-.36.24.48c.24-.07.44-.73.88-.23,0,.15-.02.31.06.44.65-.19,1.52-.45,2.07-.06l.4.64c.28-.02.78-.29.34-.53.99.5,1.67.65,1.95,1.19,1.98-1.03,4.54-.92,6.65-1.03l-.04.3c.59.25.26-.53.67-.34-.16.29.49.58.06.95.86.29,1.01-.6,1.51-.8.03-.39-.39.31-.35-.19.07-.15,1.15.13,1.19-.47.23.2.14.64.07.89l.45-.35c.73.58-1.21,1.41-.45,2.14l.47-.16c.56.53-1.18.88.07.9.49-.37.79-1.26.29-1.45,1.04-.33.25-1.41,1.36-1.59.18.13-.03.21-.25.3-.23.07-.46.16-.31.38.63.41,1-.5,1.49-.44-.56-.08-.26-.77.04-.95.62.12-.23.63.57.48.05-.36.69-.78.02-.85.08-.8.86,0,1.11-.67.41.45-.45,1.39.49,1.43-.27-.43.83-1.02.15-1.59.36.02.53.4.39.78.57.13.81-1.3,1.31-.39l-.02-.55c.2.11.46.15.8.33.21-.07.47-.36.72-.53.24-.19.45-.28.59.09.09-.14,1.01-.54.43-.87-.69-.04-.47.68-1.08.14.63.37.76-.46.99-.79l.18.25c.14-.2.6-.35.57-.7-.06.23.1.38.29.37v-.51c.64-.57.55.65,1.23.16-.12.21-.26.4-.4.6.08-.14.57.16.84-.2-.07-.46-.08-1.06-.13-1.41.3-.4.42.31.59-.31l-.25.76c0,.17.7.4,1.25.05.28-.34.47-1.18-.19-1.05.26-.17.78-.18.74.22.53-.49-.33-.34.05-.87.37.11,1.21-.04,1.85,0l-.11.98.36-.26c-.13.81.49.18.58.86.3-.11.48-.5.63-.8-1.29-.24-.01-1.64-.77-2.18.78-.87,1.95,1.19,1.99-.68-.3-.04-.32-.93-.7-.24.6-.42-.23-.99.64-1.29-.22.69,1.12.19.79,1.2-.15-.26-.54.19-.59.35.45.04.54.71,1.12.18.29-.38.76-.83.37-1.09-.37-.35-.49.52-.62-.05.57-.73,1.21-.32.82-1.23-.33.48-.81.21-1.05-.05.12-.19.2-.42.3-.62l.16.33c.88-.62-.23-.65.51-1.34l.82.09c.26.56-1.19.93-.39,1.44.49-.48.29-.96.89-1.27-.04.16-.15.32-.18.48.18-.15,1.28.47,1.4-.73.1-.57-.17-.31-.43-.54.57-.94.48-1.41.85-2,.46.52.79-.95.9.08-.54.06-1.44,1.32-1.17,2.05.43.09.28.25.08.47-.22.21-.5.47-.27.82.63-.65,1.2-.12,1.69.09.18-.19.16-.52.19-.7-.32-.39-.51-.12-.92-.42.71-.73,1.08-1.67,1.01-2.38.4-.13.74.23.54.58.32-.51.61-1.06.94-1.58.33-.52.69-1.01,1.06-1.46-1.07.23.49-1.18-.35-1.07-.46.44-1.22.58-1.37.13.24-.29.3.18.53.14-.13-.6.99-.3.58-1.04-.23,1.08.77.65,1.24,1.12.03-.88.38.24.72-.48.04-.88.21-1.88.47-2.72.94-.81.97-2.63,1.29-3.54.43-.41,1.02.14,1.28-.38.15-.65-.86.27-.3-.6l.11.13c-.09-.33.92-1.66,0-2.16l.67.46c.11-.16-.01-.37-.06-.54.24.05.52-.12.6.21.71-.49.14-1.31.24-1.97l-.51.35c-.19-1.18.4-1.87.37-2.99l.44.08-.23-.68c.42.2.73-.39.39-.77.33.6.68,1.21.98,1.84-.32.46-.47-.59-.94-.32-.4.22-.45,1.24-.05,1.47.11-.39.02-.42-.1-.74.63-.06.52.54.88.9,0-.21.24-.49.05-.56.24.45.22.88.13,1.58-.17-.51-.42.19-.56-.01.53.14.59.84.31,1.67-.77.46-.01,1.67-.43,2.62-.43-.54-.73-1.15-.8-1.78-.42.53-.16.67-.58,1.2.32.39.88.77.91,1.64l-.4-.08c-.02.77.52.95.09,1.82-.38.74-.71,1.5-1.01,2.22-.36.69-.7,1.34-.99,1.9l-.38-.13c.24.5.06,1.06-.19,1.62-.25.56-.65,1.06-.72,1.57-.58.58-.95,1.37-1.3,2.06-.39.66-.8,1.21-1.32,1.33-.36.61-.71,1.2-1.05,1.78-.38.56-.79,1.08-1.2,1.61-.41.53-.84,1.05-1.3,1.57-.49.48-1.03.95-1.59,1.41l-.04-.76c-.09.67-.48-.02-.79.38.75-.04-.11.93-.16,1.45-1.28.5-2.34,1.84-3.04,2.9l-.27-.31c-.56,1.29-2.16,1.44-3.46,2.1-.22-.05-.64-.28-1.01-.05-.41.93-.81,1.07-1.7,1.95-.76.42-2.15.71-3.05.78-.68.47-1.39.94-2.16,1.22-.77.29-1.56.52-2.36.75l-1.21.33-1.23.23c-.82.16-1.65.36-2.47.62l-.29-.44c-.78.33-1.65.49-2.53.6-.88.09-1.79.21-2.68.1-1.78-.16-3.48-.23-4.91-.26l.37-.77c-.82-.38-1.99-.09-1.87.52-.42-.19-.98-.17-1.5-.22-.51-.08-.97-.2-1.16-.6-.84-.37-1.16.09-1.93,0-.85-.35-1.41-.63-1.99-.85-.57-.21-1.15-.36-1.99-.59l.38.19c.24-.1.38-.42,0-.62-.34,0-.87-.24-1.28-.38-.4-.15-.7-.14-.6.44-.72-.66-1.73-1.01-2.73-1.4-1-.38-1.92-.94-2.5-1.71,0,.31-.42.11-.68.17-.35-.21-.68-.45-1.01-.7-.3-.28-.6-.56-.89-.83-.59-.53-1.17-1-1.83-1.21-.12-.26.61-.11.1-.52-.37-.16-.23.27-.7.09-1.14-.69-2.05-1.69-2.88-2.69-.78-1.06-1.44-2.16-2.29-2.99-3.1-2.93-5.26-6.9-6.95-10.58l.2-.04c-1.22-.99-.39-3.24-1.84-3.89.06-.36-.24-1.22.18-1.09-.39-.45-.46-1.22-.56-2.04-.05-.41-.11-.83-.21-1.23-.09-.41-.2-.81-.43-1.16,0,.15.06.22.16.37.09-.82-.06-1.54-.22-2.27-.08-.37-.16-.74-.21-1.12-.04-.39,0-.79.06-1.21.09.16.17.46.37.49.34-.65-.9-1.45.02-1.85-.03-.36-.49-.24-.45-.02.02-1.81.13-3.66.08-5.56v-.71s.04-.71.04-.71l.09-1.43.1-1.44.06-.72.13-.7c1.22-2.5,1.58.22,1.43-2.01.22-.12-.32-.22-.12-.19-.02-.43.31-.67.6-.88.32-.2.6-.37.46-.71-.63.04-.18-.46-.5-.59.93-1.42,1.48-1.53,1.58-2.88l.24.21c-.07-.85.19-1.63.43-2.39.24-.76.43-1.52.36-2.31.53-.93,1.06-1.85,1.58-2.76.56-.89,1.19-1.74,1.78-2.61.57-.89,1.25-1.69,1.93-2.49.69-.79,1.3-1.65,2.08-2.36l2.24-2.21c.79-.69,1.62-1.33,2.44-1.99.8-.69,1.69-1.25,2.58-1.81.9-.55,1.75-1.19,2.72-1.62.95-.44,1.9-.88,2.84-1.32.96-.4,1.95-.73,2.92-1.1.49-.17.97-.37,1.47-.53l1.51-.4c1.01-.25,2-.57,3.03-.75l3.09-.48.77-.11.78-.04,1.57-.06c2.09-.15,4.19.11,6.29.34,1.88,1.03,1.98,1.06,4.17,1.06-.11.11-.25.12-.13.26.24-.66,1.49.26,1.82-.29,1.49.46,2.97.75,4.38,1.3.72.25,1.43.49,2.16.74.74.24,1.42.62,2.16.95-.49-.16-.94.22-.38.44l.75-.1v.21c.42.09.98,0,.69-.37.47.2.95.37,1.4.61l1.33.75c.87.53,1.77,1.01,2.57,1.63.8.62,1.59,1.25,2.36,1.9.4.31.76.65,1.11,1.02l1.06,1.07c1.45,1.38,2.62,3.02,3.89,4.52l1.7,2.42c.28.4.59.79.86,1.2l.78,1.25c.35.88,1,1.81,1.53,2.82.54,1.01,1.14,2.03,1.64,2.92.36,1.48.64,2.94.96,4.34.2,1.44.4,2.84.64,4.22.12,1.41.27,2.8.49,4.21.09,1.42.23,2.86.45,4.35,0,0-1.73-.79-2.24-3.09Z"/>
      <path class="cls-1" d="M88.22,49.24c-.34.19-.55.82-.96.29.31-.05.67-.37.96-.29Z"/>
      <path class="cls-1" d="M80.79,64.56c.08.06-.22.15-.29.17.06-.19-.1-.48.12-.55-.06.19.09.23.17.38Z"/>
      <path class="cls-1" d="M78.56,68.01c-.21-.22.04-1.08.28-1.54l-.28,1.54Z"/>
      <path class="cls-1" d="M75.37,70.33c-.39.09-.43-.06-.17-.4.14.07.12.24.17.4Z"/>
      <path class="cls-1" d="M75.72,70.96c-.21.24-.44.24-.67.24.2.15.36-.63.67-.24Z"/>
      <path class="cls-1" d="M69.29,75.91c-.14.13-.33.58-.66.42.3.06.52-.85.66-.42Z"/>
      <path class="cls-1" d="M66.47,78.39c-.11.05-.18.03-.26.17-.26,0-.17-.3-.02-.42l.29.25Z"/>
      <polygon class="cls-1" points="11.12 56.29 11.36 56.66 11.07 56.67 11.12 56.29"/>
      <path class="cls-1" d="M16.34,26.69c.07-.46.39-.08.47-.12-.2.32-.23-.32-.47.12Z"/>
      <polygon class="cls-1" points="27.62 14.07 27.51 14.14 27.24 13.61 27.62 14.07"/>
    </g>
    <g>
      <path class="cls-1" d="M18.49,14.5c-.31-.13-.26.47-.3.01.2-.13.37-.21.3-.01Z"/>
      <path class="cls-1" d="M75.4,74.84c-1.79.33-1.58-1.68-3.03-1.8-.13-.05.63-.55.28-.62-1.59.05-2.22-1.64-2.44-3.2l.22-.11c-.04-.3-.82.03-.92-.24.11-.11.22-.09.33-.28-.39.28-.48-.19-.81-.03.06-.2.34-.45.4-.69l-.49.26c-1.21.58-.63-.79-1.49-.74.11-.07.22-.09.28-.21-1.19-.12-1.86-1.04-2.77-1.58.17-.1.44-.31.56-.5-.44.35-.76.23-1.03.11.34-.49-.71.03-.69-.42l.11-.07c-.6.25.01-.49-.65-.13l.23-.42c-.67.49.07-.54-.36-.39l-.12.12c-.27,0-.04-.35-.26-.38l.06-.08c-.43-.14-.26-.62-.72-.17.27-.45.43.12.82-.55-1.38-.49-2.22-1.56-3.13-2.51.08-.29.07-.41.23-.6-.18,0-.43-.28-.75-.14.04.02.18-.29.15-.36,0-.34-.69.3-.66-.09.2-.04.37-.16.52-.35-.52.18-.67-.09-.97-.17.11-.04.2-.04.34-.19-.61.18-.28-.47-.71-.4l.33-.19c.04-.61-.64.45-.7,0,.14-.02.23-.14.35-.23-.72.22-.92-.32-1.31-.4.05-.02.12-.09.12-.09-.31-.2-.42-.62-.9-.7.02-.22.69-.59.33-.77-.53.52-.67-.26-1.12.48-.14-.32-.29-.88-.62-.87.31-.09.55-.74.78-.59l.18-.46c.24-.19.07.22.3-.09-.11-.08-.6-.16-.6-.33-.5.13-1.28.55-1.62.32.34-.06.52-.64.7-.64l-1.42.57c-.12-.07.4-.43.13-.43-.14.14-.28.16-.44.23.03-.09-.52-.28-.03-.82.17-.24.26.05.35-.23-.18-.18-.37-.01-.55-.18l.07-.07c-.03-.19-.56-.14-.73.27.06.1.29-.33.25-.07-.39.21-.67.08-.85-.09.14-.02.28-.16.45-.28-.65.15-1.02.02-1.45-.08-.26.24.55-.33.46-.17.02-.68-1.18-.25-.94-1.02.09,0-.33.37-.27.29-.13-.2.24-.54,0-.52.2-.21-.2-.07-.37-.12-.21.09.08-.13.19-.05-.33.02-1.26-.3-1.29-.95-.14.14-.73.27-.79.17l.36-.28c.13-.26-.29-.25-.02-.53-.57.21.99.36.45.41.22-.33-.85.17-.35-.21-.17-.16-.7.04-.54-.42,0,.1.59-.3.44-.41-.28-.18-.22.08-.52,0h-.25c-.33.31-.16-.24-.44.19.24-.28-.49-.19.07-.67l.45-.37c-.13-.07-.6.25-.87.35.03-.05.09-.16.16-.22-.66.6-.18-.3-.79.06.02-.43-.5-.57-.19-1.05-.35.02-.73.09-.77-.23.1-.02.16.01.31-.11.08-.3-.12-.17-.33-.18.12-.07.15-.6.26-.94-.35.02-.64.41-.87.59.49-.76-.85-.07-.45-.81.14-.03.54-.06.57-.35.49-.75-.76.14-.68-.39l-.47.56c.22-.42-.64-.07-.08-.55-.27.1-.1-.45-.59.07.06-.81-1.18-.72-.49-1.84-.14.02-.19-.2-.42.08-.2.37.33-.06.17.16-.06-.04-.22.09-.29.15,0-.24-.05-.37.48-.66.06-.58-1.15.55-1.28,0,.23-.19.28-.29.15-.36l-.55.15c-.13-.31.36-.59.72-.94-.18-.06-.3-.23-.62-.03l.31-.58c-.23.42-.31.11-.46.14l.14-.03c.13-.17-.1-.22-.21-.24-.21.23-.16.46-.15.6-.22.09-.27-.04-.54.05.38-.31.06-.44.01-.57-.03-.18-.44.18-.45.13.18-.18-.14-.21.2-.37.09-.02-.1.26.12.16.07-.2.4-.5.02-.43-.28.05-.67.69-.65.27.14-.03.29-.15.46-.23v-.38s-.34.3-.34.3c.06-.1.1-.11.13-.17-.4.26-.4-.21-.82.11-.13-.07.02-.43-.04-.56h.05c.08-.31-.2-.35-.51-.24l.08-.06c-.04-.09-.23-.19-.5-.1.09-.4,1.17-1.21.59-1.01-.17-.16-.84.3-.98.56-.07-.51-.92-.35-.68-1.1-.17.08-.23.19-.39.17-.29-.56-1.27-.56-.96-1.52.26,0,.33-.3.51-.48-.39.17.18-.41-.35.02-.28.29-.43.41-.43.65-.41-.11-.78-.51-.65-.92-.07.2-.21.23-.35.26.48-.42.37-.68.07-.67l-.3.25.2-.37c-.14.03-.65.5-.52.1.1-.11.21-.23.26-.33-.38.07-.97.23-.89-.16l.29-.53c-.11-.03-.47.09-.48.33-.02-.52-.16-.73.12-1.16-1.33.35-2.03-.32-2.5-.94l.23-.19c.06-.34-.45.27-.4.03.25-.14.33-.53.69-.65.02-.43-.63.07-.86.02-.3.24.29-.06-.09.25-.12.07-.07-.5-.52-.14.11-.21.46-.46.66-.6l-.33.06c.34-.63,1.23-.47,1.68-1.22l-.18-.06c.33-.54.8-.15.67-.6-.33.07-1.05.53-1.13.83-.38-.16-1.13.83-1.37.5.17-.32.28.18.58-.21.21-.46-.46-.1-.45-.34-.03.29-.57.58-.73.56.06-.34.49-.28.33-.54-.28.2-.65.17-.65.5-.62.45-.06-.37-.6-.08.32-.44,1.11-.63,1.08-1.05-.34.39-.78.19-1.22.85.02-.19.31-.48.6-.64.1-.35-.99.33-.28-.42l-.43.32c.09-.16.12-.31.27-.57-.1-.12-.87.12-.28-.42-.09.02-.32-.27-.62.21-.09.4.47-.09.02.52.33-.53-.28-.18-.52-.14l.21-.23c-.14.03-.22-.15-.49.04.17-.08.3-.25.31-.34l-.4.26c-.39-.07.55-.62.23-.75l.42-.08c-.09.02.15-.36-.05-.37-.35.25-.8.53-1.07.72-.26,0,.3-.39-.14-.21l.53-.19c.13-.07.41-.6.24-.76-.21,0-.82.25-.82.58-.08-.08,0-.38.28-.53-.29-.09-.31.34-.66.36.14-.26.24-.75.42-1.17l.68-.32-.1-.12c.56-.25.25-.38.76-.71,0-.14-.24-.1-.43-.06-.48.9-1.2.66-1.78,1.33-.47-.15,1.37-1.68.06-1.05-.12.21-.75.52-.38.54-.11-.26-.77.48-.72,0,.43-.08.48-.8,1.09-.92-.23.19-.03.29.07.27.17-.31.66-.6.47-.79-.18-.06-.35-.22-.66.12-.36.35.22.15-.23.42-.36-.12.16-.69-.58-.17.2.11-.15.5-.4.74l-.32-.03.28-.2c-.1-.45-.52.34-.72,0l.36-.59c.48-.33.2.58.83-.11-.14-.21-.54.06-.53-.28.09-.02.16.02.25,0-.04-.09.79-1,.03-.76-.33.06-.27.19-.53.43-.35-.22-.69-.06-.91-.21.53-.43-.26-.37.43-.65-.2.37.23.76.79.41.48-.66.13.3.78-.2-.21-.24.38-.78.72-1.18-.03-.09-.25,0-.35.02-.38.31-.3.39-.66.74-.15-.35-.58-.41-1.06-.22.09-.25.47-.56.6-.49-.4-.21-.66-.58-.83-.98-.4.74-.45-.2-.8.39.02.28-.27.81-.61.97-.06-.13.26-.24.34-.4-.43.18.32-.68-.29-.32.45.1.76-.62,1.26-1-.45.04.33-.3.14-.5-.44.04-.88-.02-1.19-.15.16-.69-.67-.72-.93-.96.1-.35.7-.75.65-.97-.17-.16-.44.65-.44.18l.12-.07c-.19.04-.08-.79-.89-.16l.63-.45c0-.09-.16-.02-.26,0,.18-.17.29-.38.48-.42.24-.52-.37-.26-.54-.42l-.23.42c-.53-.04-.38-.54-.76-.71l.33-.3-.35.02c.35-.26.41-.6.06-.44l1.19-.32c-.08.3-.51.24-.76.62-.22.33.11.5.46.25-.06-.13-.13-.07-.32-.03.42-.46.54-.29.91-.5-.07-.03,0-.24-.15-.11.31-.11.44-.04.61.12-.28.05-.22.32-.39.4.41-.36.68-.32.77,0-.31.58.66.11.76.47-.49.28-.93.46-1.23.47-.06.34.17.16.11.5.37-.21.87-.59,1.24-.57l-.28.29c.32.04.75-.38.89-.07.22.53.6.92.85,1.26l-.28.29c.78-.43.75.33,1.24.28.08.65,1.06.55.74,1.23.86.45,1.63.82,2.18,1.62l-.54.29c.43-.18-.17.31,0,.38.21-.46.6-.25.95-.42-.04.62.7.67,1.26.66l-.28.29c.81-.25.64.54.88.97-.08.16-.3.48-.17.55.65-.27.71-.14,1.27-.15.19.2.38.63.39,1.01,1.38.11,1.68,1.29,2.82,1.68l-.29.38c1.46.05,1.67,1.62,2.66,1.9l-.65.5c.01.37.59.31.96-.14.01.37.77.23.4.82.09.31.51,0,.76.09.17.63.37.73.85,1.02l-.05-.13c-.17.08-.43.32-.37.45.3,0,.35.69.92-.13-.01.81,1.26.66,1.09,1.59.16-.22.29-.15.47-.23.36.36.33,1.12.93,1.1-.04.15-.42.22-.29.39.16.02.25-.24.46-.23.92.25.77,1.55,1.38,2,1.28.61,2.05,1.78,2.98,2.64l-.15.12c.83-.21.13,1.25,1.18.72-.07.2.2.34-.12.54.62-.12.29,1.03,1.11.92-.02-.05-.06-.04-.16-.02.03.65.76.56.83,1.21-.1.02-.21,0-.36.12-.13.4.93-.22.32.51.09.08.4-.27.33-.3.52,1.08,1.8,1.55,2.77,2.26.18,1-1.11,1.13-.14,1.13-.09.16.29-.22.15-.08.37,0-.48,1.02,0,.81.37-.45.32-.14.58-.37.09.64-.22,1.07.38,1.07l-.24.19c.95-.24,1,.48,2,.09,1.96,1.8,4.11,3.26,5.97,5.06,1.62,1.98,3.67,3.49,5.08,5.73-.16.99-.11,1.01.58,1.27-.11.07-.16.06-.22.18.5-.43.37.3.87-.09.57.78,1.31,1.3,2,2.01-.16-.06-.6.25-.44.35l.44-.15-.11.15c.16.03.49-.1.55-.34,2.12,1.41,2.85,4.08,4.64,5.73.2.61.95,1.03,1.48,1.39.65,1.95,1.29,3.65,3.03,4.6,0,0-1.4.99-2.22.69Z"/>
      <path class="cls-1" d="M18.79,14.73c-.19.27-.17.55-.61.73.21-.23.38-.55.61-.73Z"/>
      <path class="cls-1" d="M20.32,21.24c.08-.06-.04.15-.07.2-.07-.04-.31.11-.23-.05.07.03.17-.08.29-.15Z"/>
      <path class="cls-1" d="M21.2,22.44c-.23.19-.61.12-.77,0h.77Z"/>
      <path class="cls-1" d="M21.27,24.27c-.1.26-.22.33-.32.2.1-.12.2-.13.32-.2Z"/>
      <path class="cls-1" d="M21.82,23.88c.08.08,0,.24-.08.39.18-.18-.3-.08.08-.39Z"/>
      <path class="cls-1" d="M23.26,26.63c.07.04.35-.02.16.25.11-.21-.51,0-.16-.25Z"/>
      <path class="cls-1" d="M24.54,27.33s0,.1.09.08c-.04.15-.25.24-.32.2l.24-.28Z"/>
      <polygon class="cls-1" points="42.78 44.82 42.58 44.81 42.8 44.62 42.78 44.82"/>
      <path class="cls-1" d="M50.42,52.82c.24-.02-.13.26-.14.31-.11-.08.3-.21.14-.31Z"/>
      <polygon class="cls-1" points="55.59 56.14 55.55 56.12 55.99 55.72 55.59 56.14"/>
    </g>
  </g>
  <g>
    <g>
      <path class="cls-1" d="M88.21,48.11c-.09-.94-.54.5-.2-.61.23.13.4.31.2.61Z"/>
      <path class="cls-1" d="M87.75,44.41c-.21-.36-.36-.73-.51-1.12-.16-.38-.29-.78-.4-1.18-.21-.81-.32-1.66-.42-2.53-.16-.85-.34-1.72-.57-2.56-.12-.42-.25-.83-.4-1.22-.17-.39-.41-.74-.66-1.08-.19-.33.82-.18.34-.92-.27-.32-.53-.67-.77-1.05-.23-.38-.45-.79-.72-1.2-.49-.83-.93-1.75-1.32-2.72-.93-1.87-1.69-3.97-2.55-5.77l.33.05c-.33-.69-1.43-.98-1.89-1.6.11-.11.34.04.38-.23-.49.16-1.12-.91-1.6-.92-.07-.35.22-.59.1-1.03l-.69.04c-.85-.04-1.42-.51-1.93-1.13-.53-.6-1.03-1.35-1.9-1.62.14-.05.34-.02.31-.2-.67-.26-1.32-.57-1.97-.94-.66-.35-1.28-.79-1.98-1.12-1.37-.71-2.7-1.56-4.13-2.01.19-.12.45-.38.38-.65-.39.44-1.27.17-2.03-.07-.08-.73-1.46,0-2.2-.63l.12-.09c-.85.34-.84-.68-1.59-.18l-.27-.59c-.52.7-.84-.66-1.51-.4l-.03.17c-.57.06-.73-.41-1.25-.4l-.02-.1c-1.16-.11-1.75-.61-1.84.02-.31-.56,1.15-.06.67-.89-3.93-.08-7.82-.34-11.68-.02-.46-.2-.75-.23-.88-.46-.37.19-1.44.34-1.73.71.13-.03-.3-.28-.51-.29-.75-.12-.63.78-1.43.7.26-.24.32-.47.17-.68-.54.65-1.41.8-2.12,1.15.09-.13.25-.24.17-.43-.67.76-1.56.24-2.15.88l.15-.45c-1.29,0-.09.86-1.15.96.19-.2.06-.3.06-.46-.35.48-.9.81-1.47,1.08-.58.25-1.12.58-1.52.87.03-.07-.03-.16-.03-.16-.46.27-.95.47-1.45.7-.5.22-1,.5-1.41.94-.44.07-.33-.86-1.22-.15.42.62-1.46,1.24-.45,1.61-.22.09-.47.2-.73.31-.25.13-.5.28-.75.43-.49.3-.92.61-1.09.9.17-.48-.92-.44-.32-.97h-.76c-.11-.29.57-.29.18-.48-.31.28-1.09,1.19-1.43,1.35-.27.86-.2,1.95-1,2.8.21-.58-.8-.38-.61-.73-.09.72-.17,1.42-.17,2.17-.23.31-.48-.34-.72.21.16.11.09.38.09.61-.16.05-.93,1.3-1.61.96-.34-.06.31-.57-.18-.42-.49.54-.27.76-.71,1.34l-.09-.05c-.38.32-.6,1.32.04,1.14.22-.25-.43-.16.04-.43.14.53-.26,1.25-.68,1.82.05-.26-.13-.35-.24-.54-.12,1.09-.41,2.09-.77,3.09.29.19-.34-.66-.1-.7-.55.46-.81,1.14-.98,1.81-.17.67-.34,1.3-.9,1.66.02-.19.49.12.4.09-.32.56-.77.33-.78.79-.29-.08-.17.51-.21.97.12.29-.17.05-.07-.32.01.34-.08,1.12-.29,1.95-.22.83-.54,1.72-.89,2.35.19.03.48,1.02.38,1.32l-.41-.23c-.34.22-.23,1.05-.63,1.02.37.8.21-2.69.39-1.68-.43.14.38,1.44-.17,1.09-.14.64.18,1.34-.31,1.87.1-.16-.54-.64-.59-.11-.06.94.17.3.21,1.07l.11.49c.44.09-.18.8.36.53-.38.07.01,1.33-.69,1.17l-.57-.19c.01.41.57.72.81,1.05-.06.05-.18.14-.27.12.88.12-.12.95.54,1.45-.17.41-.21.93-.27,1.4-.01.47-.06.89-.33,1.09.3.64.65,1.19.5,1.93-.09-.14-.13-.33-.32-.36-.24.48,0,.58.16.98-.17-.08-.39.96-.63,1.52.36.6.8.31,1.1.33-.76.72.77,1.67.2,2.52-.19-.18-.63-.82-.74-.25-.71.77.93,1.01.75,2.02l.65-.41c-.33.52.74,1.21,0,1.32.3.23.11,1.12.75.81-.02.81.39,1.66.68,2.46.27.81.62,1.51.22,2.22.2.15.34.7.61.44.2-.5-.48-.34-.29-.58.11.17.3.12.4.1.06.5.18.87-.55.72.09,1.17,1.51.47,1.97,1.73-.29.09-.33.24-.08.55l.82.38c.35.8-.31.78-.72,1.07.32.36.6.88,1.05.82l-.17.82c.12-.6.48.14.71.24l-.23-.11c-.12.19.32.56.53.74.21-.24-.03-.76-.14-1.05.32.06.5.39.9.49-.45.21.18.82.36,1.15.17.41.65.08.71.19-.19.17.43.54-.06.52-.16-.06-.04-.4-.37-.44.04.33-.31.59.33.82.48.17.65-.72.98.1-.24-.08-.41.02-.65.01l.34.75.35-.28c-.01.15-.09.13-.1.2.5-.15.91.79,1.4.55.31.24.39.77.63,1.06l-.08-.02c.16.5.73.79,1.21.82l-.08.06c.16.19.64.55,1.04.54.29.63-.89,1.43.03,1.42.54.38,1.31-.04,1.27-.42.37.46.92.74,1.43,1.06.54.27,1.05.56,1.32,1.13.23-.07.21-.22.55-.13.67.52,1.48.87,2.27,1.16.78.32,1.46.7,1.89,1.4-.52-.04-.21.39-.3.63.52-.18.3.57.69,0,.12-.39.22-.54-.15-.88,1.01.16,2.42.66,2.82,1.22-.2-.27.04-.32.28-.35-.27.59.4.95,1.01.84l.19-.36.24.48c.24-.07.44-.73.88-.23,0,.15-.02.31.06.44.65-.19,1.52-.45,2.07-.06l.4.64c.28-.02.78-.29.34-.53.99.5,1.67.65,1.95,1.19,1.98-1.03,4.54-.92,6.65-1.03l-.04.3c.59.25.26-.53.67-.34-.16.29.49.58.06.95.86.29,1.01-.6,1.51-.8.03-.39-.39.31-.35-.19.07-.15,1.15.13,1.19-.47.23.2.14.64.07.89l.45-.35c.73.58-1.21,1.41-.45,2.14l.47-.16c.56.53-1.18.88.07.9.49-.37.79-1.26.29-1.45,1.04-.33.25-1.41,1.36-1.59.18.13-.03.21-.25.3-.23.07-.46.16-.31.38.63.41,1-.5,1.49-.44-.56-.08-.26-.77.04-.95.62.12-.23.63.57.48.05-.36.69-.78.02-.85.08-.8.86,0,1.11-.67.41.45-.45,1.39.49,1.43-.27-.43.83-1.02.15-1.59.36.02.53.4.39.78.57.13.81-1.3,1.31-.39l-.02-.55c.2.11.46.15.8.33.21-.07.47-.36.72-.53.24-.19.45-.28.59.09.09-.14,1.01-.54.43-.87-.69-.04-.47.68-1.08.14.63.37.76-.46.99-.79l.18.25c.14-.2.6-.35.57-.7-.06.23.1.38.29.37v-.51c.64-.57.55.65,1.23.16-.12.21-.26.4-.4.6.08-.14.57.16.84-.2-.07-.46-.08-1.06-.13-1.41.3-.4.42.31.59-.31l-.25.76c0,.17.7.4,1.25.05.28-.34.47-1.18-.19-1.05.26-.17.78-.18.74.22.53-.49-.33-.34.05-.87.37.11,1.21-.04,1.85,0l-.11.98.36-.26c-.13.81.49.18.58.86.3-.11.48-.5.63-.8-1.29-.24-.01-1.64-.77-2.18.78-.87,1.95,1.19,1.99-.68-.3-.04-.32-.93-.7-.24.6-.42-.23-.99.64-1.29-.22.69,1.12.19.79,1.2-.15-.26-.54.19-.59.35.45.04.54.71,1.12.18.29-.38.76-.83.37-1.09-.37-.35-.49.52-.62-.05.57-.73,1.21-.32.82-1.23-.33.48-.81.21-1.05-.05.12-.19.2-.42.3-.62l.16.33c.88-.62-.23-.65.51-1.34l.82.09c.26.56-1.19.93-.39,1.44.49-.48.29-.96.89-1.27-.04.16-.15.32-.18.48.18-.15,1.28.47,1.4-.73.1-.57-.17-.31-.43-.54.57-.94.48-1.41.85-2,.46.52.79-.95.9.08-.54.06-1.44,1.32-1.17,2.05.43.09.28.25.08.47-.22.21-.5.47-.27.82.63-.65,1.2-.12,1.69.09.18-.19.16-.52.19-.7-.32-.39-.51-.12-.92-.42.71-.73,1.08-1.67,1.01-2.38.4-.13.74.23.54.58.32-.51.61-1.06.94-1.58.33-.52.69-1.01,1.06-1.46-1.07.23.49-1.18-.35-1.07-.46.44-1.22.58-1.37.13.24-.29.3.18.53.14-.13-.6.99-.3.58-1.04-.23,1.08.77.65,1.24,1.12.03-.88.38.24.72-.48.04-.88.21-1.88.47-2.72.94-.81.97-2.63,1.29-3.54.43-.41,1.02.14,1.28-.38.15-.65-.86.27-.3-.6l.11.13c-.09-.33.92-1.66,0-2.16l.67.46c.11-.16-.01-.37-.06-.54.24.05.52-.12.6.21.71-.49.14-1.31.24-1.97l-.51.35c-.19-1.18.4-1.87.37-2.99l.44.08-.23-.68c.42.2.73-.39.39-.77.33.6.68,1.21.98,1.84-.32.46-.47-.59-.94-.32-.4.22-.45,1.24-.05,1.47.11-.39.02-.42-.1-.74.63-.06.52.54.88.9,0-.21.24-.49.05-.56.24.45.22.88.13,1.58-.17-.51-.42.19-.56-.01.53.14.59.84.31,1.67-.77.46-.01,1.67-.43,2.62-.43-.54-.73-1.15-.8-1.78-.42.53-.16.67-.58,1.2.32.39.88.77.91,1.64l-.4-.08c-.02.77.52.95.09,1.82-.38.74-.71,1.5-1.01,2.22-.36.69-.7,1.34-.99,1.9l-.38-.13c.24.5.06,1.06-.19,1.62-.25.56-.65,1.06-.72,1.57-.58.58-.95,1.37-1.3,2.06-.39.66-.8,1.21-1.32,1.33-.36.61-.71,1.2-1.05,1.78-.38.56-.79,1.08-1.2,1.61-.41.53-.84,1.05-1.3,1.57-.49.48-1.03.95-1.59,1.41l-.04-.76c-.09.67-.48-.02-.79.38.75-.04-.11.93-.16,1.45-1.28.5-2.34,1.84-3.04,2.9l-.27-.31c-.56,1.29-2.16,1.44-3.46,2.1-.22-.05-.64-.28-1.01-.05-.41.93-.81,1.07-1.7,1.95-.76.42-2.15.71-3.05.78-.68.47-1.39.94-2.16,1.22-.77.29-1.56.52-2.36.75l-1.21.33-1.23.23c-.82.16-1.65.36-2.47.62l-.29-.44c-.78.33-1.65.49-2.53.6-.88.09-1.79.21-2.68.1-1.78-.16-3.48-.23-4.91-.26l.37-.77c-.82-.38-1.99-.09-1.87.52-.42-.19-.98-.17-1.5-.22-.51-.08-.97-.2-1.16-.6-.84-.37-1.16.09-1.93,0-.85-.35-1.41-.63-1.99-.85-.57-.21-1.15-.36-1.99-.59l.38.19c.24-.1.38-.42,0-.62-.34,0-.87-.24-1.28-.38-.4-.15-.7-.14-.6.44-.72-.66-1.73-1.01-2.73-1.4-1-.38-1.92-.94-2.5-1.71,0,.31-.42.11-.68.17-.35-.21-.68-.45-1.01-.7-.3-.28-.6-.56-.89-.83-.59-.53-1.17-1-1.83-1.21-.12-.26.61-.11.1-.52-.37-.16-.23.27-.7.09-1.14-.69-2.05-1.69-2.88-2.69-.78-1.06-1.44-2.16-2.29-2.99-3.1-2.93-5.26-6.9-6.95-10.58l.2-.04c-1.22-.99-.39-3.24-1.84-3.89.06-.36-.24-1.22.18-1.09-.39-.45-.46-1.22-.56-2.04-.05-.41-.11-.83-.21-1.23-.09-.41-.2-.81-.43-1.16,0,.15.06.22.16.37.09-.82-.06-1.54-.22-2.27-.08-.37-.16-.74-.21-1.12-.04-.39,0-.79.06-1.21.09.16.17.46.37.49.34-.65-.9-1.45.02-1.85-.03-.36-.49-.24-.45-.02.02-1.81.13-3.66.08-5.56v-.71s.04-.71.04-.71l.09-1.43.1-1.44.06-.72.13-.7c1.22-2.5,1.58.22,1.43-2.01.22-.12-.32-.22-.12-.19-.02-.43.31-.67.6-.88.32-.2.6-.37.46-.71-.63.04-.18-.46-.5-.59.93-1.42,1.48-1.53,1.58-2.88l.24.21c-.07-.85.19-1.63.43-2.39.24-.76.43-1.52.36-2.31.53-.93,1.06-1.85,1.58-2.76.56-.89,1.19-1.74,1.78-2.61.57-.89,1.25-1.69,1.93-2.49.69-.79,1.3-1.65,2.08-2.36l2.24-2.21c.79-.69,1.62-1.33,2.44-1.99.8-.69,1.69-1.25,2.58-1.81.9-.55,1.75-1.19,2.72-1.62.95-.44,1.9-.88,2.84-1.32.96-.4,1.95-.73,2.92-1.1.49-.17.97-.37,1.47-.53l1.51-.4c1.01-.25,2-.57,3.03-.75l3.09-.48.77-.11.78-.04,1.57-.06c2.09-.15,4.19.11,6.29.34,1.88,1.03,1.98,1.06,4.17,1.06-.11.11-.25.12-.13.26.24-.66,1.49.26,1.82-.29,1.49.46,2.97.75,4.38,1.3.72.25,1.43.49,2.16.74.74.24,1.42.62,2.16.95-.49-.16-.94.22-.38.44l.75-.1v.21c.42.09.98,0,.69-.37.47.2.95.37,1.4.61l1.33.75c.87.53,1.77,1.01,2.57,1.63.8.62,1.59,1.25,2.36,1.9.4.31.76.65,1.11,1.02l1.06,1.07c1.45,1.38,2.62,3.02,3.89,4.52l1.7,2.42c.28.4.59.79.86,1.2l.78,1.25c.35.88,1,1.81,1.53,2.82.54,1.01,1.14,2.03,1.64,2.92.36,1.48.64,2.94.96,4.34.2,1.44.4,2.84.64,4.22.12,1.41.27,2.8.49,4.21.09,1.42.23,2.86.45,4.35,0,0-1.73-.79-2.24-3.09Z"/>
      <path class="cls-1" d="M88.22,49.24c-.34.19-.55.82-.96.29.31-.05.67-.37.96-.29Z"/>
      <path class="cls-1" d="M80.79,64.56c.08.06-.22.15-.29.17.06-.19-.1-.48.12-.55-.06.19.09.23.17.38Z"/>
      <path class="cls-1" d="M78.56,68.01c-.21-.22.04-1.08.28-1.54l-.28,1.54Z"/>
      <path class="cls-1" d="M75.37,70.33c-.39.09-.43-.06-.17-.4.14.07.12.24.17.4Z"/>
      <path class="cls-1" d="M75.72,70.96c-.21.24-.44.24-.67.24.2.15.36-.63.67-.24Z"/>
      <path class="cls-1" d="M69.29,75.91c-.14.13-.33.58-.66.42.3.06.52-.85.66-.42Z"/>
      <path class="cls-1" d="M66.47,78.39c-.11.05-.18.03-.26.17-.26,0-.17-.3-.02-.42l.29.25Z"/>
      <polygon class="cls-1" points="11.12 56.29 11.36 56.66 11.07 56.67 11.12 56.29"/>
      <path class="cls-1" d="M16.34,26.69c.07-.46.39-.08.47-.12-.2.32-.23-.32-.47.12Z"/>
      <polygon class="cls-1" points="27.62 14.07 27.51 14.14 27.24 13.61 27.62 14.07"/>
    </g>
    <g>
      <g>
        <path class="cls-1" d="M71.1,47.85c-.53-.28.12.39-.38-.13.13-.05.28-.06.38.13Z"/>
        <path class="cls-1" d="M72.08,47.15c.27-.42.69-.82,1.09-1.15.2-.17.42-.33.65-.49l.17-.12c.01-.05-.05-.12-.07-.18l-.19-.37c-.54-.99-1.17-2.02-2.01-2.66-.18-.17.37-.21-.06-.58-1.73-1.2-3.78-3.55-5.74-5.22l.19-.02c-.37-.33-1.06-.3-1.49-.56.03-.07.2-.03.14-.17-.22.15-.87-.31-1.14-.25-.14-.17-.04-.35-.24-.53l-.38.14c-.5.15-.94-.03-1.41-.26-.47-.23-1-.43-1.56-.42.07-.05.18-.07.11-.15-.89-.08-1.87-.12-2.86-.23-.99-.09-2.02-.07-2.98-.05.08-.1.15-.27.03-.38-.1.29-.69.39-1.2.46-.25-.28-.87.3-1.48.17l.05-.07c-.42.31-.68-.12-1,.29l-.31-.19c-.15.43-.67-.13-1.01.13l.02.08c-.33.14-.54-.04-.85.07l-.04-.04c-.72.27-1.19.14-1.11.45-.31-.19.69-.27.21-.55-2.4.78-4.83,1.59-7.05,2.76-.31.02-.5.07-.61,0-.2.16-.78.55-.89.8.07-.05-.22-.05-.35,0-.46.15-.24.55-.71.73.11-.19.11-.31-.02-.37-.2.46-.68.77-1.04,1.14.03-.09.11-.19.03-.25-.26.56-.81.62-1.06,1.07v-.26c-.73.36.1.43-.47.81.07-.16-.02-.17-.05-.24-.1.35-.36.67-.62.99-.25.33-.51.64-.68.91,0-.04-.04-.07-.04-.07-.18.27-.44.58-.68.9-.23.34-.45.69-.65,1.18-.19.15-.12-.74-.45,0,.02.14,0,.33-.06.5-.02.06-.04.11-.06.16-.03.02-.06-.04-.1-.06-.07-.06-.13-.12-.19-.15-.11-.06-.18-.04-.06.35-.51-.73-1.17-1.74-1.57-2,.29.12.08-.59.45-.22-.04-.16-.07-.31-.1-.45.14-.08.2.3.25.07-.11-.11-.74-.59-.85-.8-.5-.2-1.1-.24-1.67-.76.36.16.15-.43.37-.3l-1.27-.26c-.19-.17.17-.25-.17-.44-.05.08-.21.02-.35,0-.04-.1-.83-.64-.68-.99.01-.18.36.22.24-.07-.36-.31-.46-.23-.82-.52l.02-.04c-.21-.24-.82-.43-.67-.07.16.14.07-.22.25.05-.3.03-.76-.23-1.13-.47.16.03.2-.06.31-.11-.37-.07-.54-.06-.76-.09-.2-.02-.38-.04-.55,0,.02.2.09-.34.18-.2-.28-.24-.62-.2-.82-.02-.22.18-.3.43-.54.52,0-.1.27.16.22.12-.08.21-.33.07-.24.3-.16-.05.05.26.13.42.12.1-.07.04-.11-.13.08.17.2.38.37.82.18.51.39,1.09.45,1.55.08-.05.54.39.61.59h-.24c-.05.24.3.66.13.77.42.31-.9-1.53-.46-1.04-.12.22.66.65.32.65.18.39.58.66.56,1.13-.02-.12-.44-.18-.27.13.3.54.17.11.46.53l.22.24c.21-.08.22.51.34.19-.13.15.51.74.15.86l-.3.06c.14.23.48.24.69.37,0,.04-.03.13-.07.14.21-.09.27.06.35.24.04.09.08.19.13.27.05.07.13.15.28.24.11.34.35.71.44,1.08.07.17.06.36.04.54-.01.17-.08.31-.12.44-.11.12-.2.21-.3.27-.1.3-.19.58-.28.87-.06.21-.16.41-.32.6,0-.11.06-.23,0-.3-.26.21-.2.33-.26.61-.03-.09-.52.42-.81.66-.08.44.21.42.32.52-.57.15-.27,1.2-.83,1.47,0-.16.06-.65-.19-.38-.56.18-.03.85-.46,1.34h.4c-.32.17-.14.91-.46.72.05.24-.36.64,0,.69-.3.39-.45,1.1-.47,1.29-.05.27-.1.49-.41.89.07.05.08.32.25.11.16-.28-.2-.07-.07-.23.02.07.13,0,.18-.02-.05.2.01.38-.37.47,0,.19.08.25.2.24.31-.03.64-.42.86-.31-.08.17-.06.26.09.2.11-.12.19-.24.26-.36.23-.03.19.29.21.57.19-.13.43-.26.4-.46.09.06.29.07.44.09-.35-.04.12-.27.2-.39l-.08.13c.11.06.35-.21.48-.34-.13-.1-.45.07-.63.14.06-.17.27-.3.35-.52.1.24.49-.16.7-.3.25-.14.1-.37.17-.42.09.09.36-.29.31,0-.05.09-.24.05-.29.24.2-.05.33.13.51-.24.14-.29-.37-.31.13-.56-.07.14-.02.23-.04.37l.47-.26-.14-.18c.09,0,.07.04.11.04-.05-.28.52-.6.42-.87.17-.2.5-.28.69-.44l-.02.05c.31-.13.53-.49.6-.78l.03.04c.13-.11.37-.43.42-.67.41-.2.72.46.83-.08.27-.31.34-1,.04-.88.46-.42.86-.96,1.28-1.54.42-.56.87-1.13,1.22-1.29.11-.26.06-.37.28-.6.46.98,1.02,1.89,1.55,2.76.26.44.56.81.79,1.15.12.22.23.43.29.67-.28-.18-.18.13-.28.22.32.07.05.38.37.22.13-.15.22-.2.08-.48.48.43,1.19,1.1,1.31,1.5-.06-.2.07-.14.22-.09-.26.2.08.56.43.71l.17-.12.05.31c.15.04.37-.2.54.15-.03.07-.06.14-.04.23.41.1.98.2,1.21.57l.12.41c.17.07.51.08.29-.15.5.51.86.78.94,1.1.7,0,1.4.24,2.12.47.74.2,1.43.56,2.1.76l-.09.13c.32.24.27-.19.49-.01-.16.1.18.37-.15.45.48.31.75-.03,1.1,0,.1-.17-.3.03-.17-.18.07-.04.67.37.83.09.1.14-.05.32-.15.42l.36-.07c.32.42-1.06.39-.75.89l.32.02c.22.36-.91.15-.15.43.38-.06.76-.41.49-.6.71.07.48-.61,1.2-.42.17.21-.59-.09-.5.18.3.31.72.02,1.01.17-.32-.18.02-.41.25-.41.35.18-.29.24.24.34.12-.15.62-.22.22-.39.25-.35.54.17.87-.08.14.29-.63.54-.06.75-.06-.27.77-.26.5-.68.22.1.22.31.04.44.32.2.84-.36.9.15l.14-.26c.1.09.24.16.4.31.3.02.96-.32.92.08.1-.04.77.01.52-.28-.41-.19-.49.18-.7-.2.28.32.6-.01.84-.1l.03.16c.14-.05.47,0,.56-.17-.11.08-.05.19.06.23l.15-.23c.55-.15.13.4.68.31l-.41.2c.09-.04.28.16.55.08.1-.22.28-.48.35-.66.3-.11.15.23.44,0l-.38.28c-.06.07.29.34.71.31.26-.08.64-.42.21-.51.21,0,.5.06.36.24.45-.15-.09-.22.29-.41.18.12.71.24,1.06.39l-.36.42.29-.04c-.32.34.23.19.07.52.21.02.43-.12.61-.23-.66-.37.5-.76.23-1.18.7-.31.73.91,1.33.04-.16-.08.11-.5-.32-.25.47-.08.19-.49.76-.49-.33.32.56.26.08.73,0-.15-.36-.02-.44.05.24.11.09.44.58.3.27-.15.66-.31.53-.5-.1-.23-.42.19-.33-.12.53-.3.76.03.83-.48-.34.17-.52-.04-.57-.21l.36-.25v.19c.67-.14.06-.34.68-.56l.42.16c-.02.35-.94.29-.65.66.43-.13.45-.43.87-.5-.07.08-.17.14-.24.22.14-.06.56.43.97-.18.23-.27,0-.19-.07-.34.62-.35.68-.66,1.06-.9.1.34.7-.39.46.16-.31-.06-1.15.53-1.24.9.42.24-.53.2-.49.64.53-.25.69.11.9.3.16-.06.25-.23.32-.31-.06-.25-.25-.14-.38-.36.6-.26,1.07-.73,1.24-1.11.25-.01.33.23.12.38.63-.47,1.3-.96,1.94-1.36-.61,0,.57-.61.11-.65-.36.19-.79.19-.74-.09.2-.14.1.14.24.14.09-.37.59-.05.6-.51-.44.55.21.46.32.78.28-.47.13.18.52-.16.28-.47.62-1.03.98-1.48.71-.32,1.23-1.36,1.6-1.87.34-.17.48.23.75-.04.25-.36-.5.04.01-.39l.02.09c.06-.21.87-.84.42-1.08.11.07.21.15.3.24.09-.08.06-.18.06-.26.13.03.33-.07.32.1.48-.3.44-.74.51-1.05-.06.08-.26.19-.37.27,0-.06.05-.13.02-.18-.07-.04-.14-.07-.19-.11-.12-.07-.21-.15-.3-.23-.18-.15-.37-.33-.64-.47l.17-.15-.41-.12c.21-.12-.04-.46-.33-.44.42.07.8.11,1.32.25.19.29-.51-.03-.48.26,0,.23.51.51.85.48-.19-.16-.25-.15-.48-.21.2-.24.53,0,.93.04-.14-.08-.23-.27-.35-.23.4.1.7.29,1.15.61-.44-.17-.08.17-.3.11.45-.08.22.42-.19,1-.29.2-.39.45-.51.78-.06.17-.12.35-.21.54-.07.15-.15.29-.27.41-.07-.36-.04-.79.07-1.17-.35.28-.24.39-.59.64.05.27.23.57.01,1.08l-.18-.1c-.22.44.02.63-.41,1.07-.38.37-.76.75-1.11,1.11-.37.34-.71.67-1,.94l-.16-.13c-.03.62-1.01,1.11-1.35,1.63-.47.23-.89.6-1.28.92-.4.3-.77.53-1.09.52-.71.57-1.47.98-2.22,1.42-.77.39-1.59.72-2.5.99.07-.12.15-.24.21-.37-.25.31-.26-.1-.56.03.43.13-.35.41-.54.65-.44-.01-.89.15-1.35.28-.45.13-.89.32-1.25.48l-.06-.2c-.7.54-1.66.22-2.6.2-.11-.08-.28-.26-.56-.22-.51.36-.77.29-1.52.47-.54-.03-1.42-.14-1.96-.3-1.03.09-2.08.03-3.12-.13-1.03-.23-2.08-.38-3.15-.59l-.08-.28c-2.2-.04-4.39-1.61-6.07-2.28l.35-.26c-.41-.4-1.14-.59-1.18-.27-.42-.38-1.29-.65-1.38-1.14-.42-.41-.69-.27-1.09-.56-.8-.88-1.11-1.17-1.95-1.91l.17.21c.15.03.28-.09.11-.3-.36-.22-.91-1.21-1.02-.59-.06-.12-.14-.23-.21-.35-.06-.09-.12-.18-.18-.27-.05-.08-.11-.12-.16-.16-.11-.09-.18-.12-.23-.36-.01-.1-.03-.09-.06-.14.01.19-.04.29-.04.43-.06.07-.14.07-.23.12-.05.02-.09.06-.13.11l-.02.04-.09.13c-.06.09-.11.18-.16.27-.16.07,0-.34-.28-.05-.12.21.13.12-.02.39-.91,1.37-2.45,2.2-3.54,3.23-.35.36-.72.72-1.14,1.05-.45.35-.73.6-1.6,1.07-1.49.83-3.17.94-4.32-.07-.75-.69-1.02-1.66-1.02-2.7l.1.02c-.22-.61.1-1.63.31-2.11.2-.48.4-.91.25-1.34.16-.17.32-.73.44-.52,0-.75.96-1.67,1.08-2.67-.05.08-.05.13-.06.24.62-.79.75-1.69,1.41-2.5-.01.11-.08.29,0,.37.18-.13.2-.38.24-.6.02-.11.05-.21.1-.28.06-.08.09-.03.22-.02.04-.09-.19-.14-.2-.1.05-.05.1-.11.14-.17.16-.16-.04-.33-.11-.48-.26-.43-.53-.87-.79-1.31-.55-.91-1.11-1.84-1.59-2.81-.41-1.69.68-.39-.15-1.51.05-.14-.2-.01-.11-.06-.31-.45.22-.94-.13-1.22-.23.23-.23-.19-.4-.15-.03-.29-.03-.47-.04-.73,0-.26-.02-.46-.01-.67,0-.41-.05-.75-.12-1.35l.15.14c-.18-.71-.05-1.47.38-2.01.43-.56,1.04-.88,1.55-1.17.85-.1,1.77.12,2.65.56.22.1.44.21.66.35.23.14.31.18.45.28.27.17.52.35.77.52.98.71,1.86,1.46,2.7,2.23.84.77,1.63,1.56,2.41,2.37l.14.15c.06.06.03.02.04.04h.03s.04.03.04.03c.02,0,.04.02.05,0l.02-.09s0,0,.01,0c.02-.02-.02.03.13-.16.21-.27.44-.51.66-.77.43-.52.93-.97,1.4-1.46.5-.45.99-.9,1.51-1.32.54-.4,1.05-.83,1.61-1.19,2.2-1.5,4.67-2.62,7.27-3.23,1.3,0,1.38.03,2.67-.43-.04.08-.12.11-.02.15,0-.33.93-.23,1-.56.97-.1,1.9-.22,2.83-.36.94-.07,1.88-.13,2.88-.17-.32.05-.47.32-.09.29l.39-.23.06.09c.26-.05.55-.19.28-.31,2.6-.11,5.21.39,7.62,1.31,2.42.93,4.59,2.3,6.62,3.79.88.81,2.21,1.86,3.15,2.76.27.38.54.76.81,1.14.25.38.49.77.74,1.14.24.41.48.81.72,1.21.34.61.69,1.19.96,1.77l.42.86.1.22s0,.06-.04.09l-.1.07-.4.29c-.51.39-1.06.77-1.62,1.15l-.69.48-.52.38c-.34.26-.69.52-1.03.8l.6-1.15c0,.09.01.18.02.27,0,0-.14-.08-.31-.27l-.48.91c.08-.37.31-.96.98-1.57Z"/>
        <path class="cls-1" d="M71.7,48.23c.01.21.3.52-.09.51.05-.15-.02-.41.09-.51Z"/>
        <path class="cls-1" d="M68.33,55.82s-.16.05-.2.05c.09-.09.09-.28.22-.28-.09.09-.02.14-.02.23Z"/>
        <path class="cls-1" d="M66.17,57.41c-.05-.15.34-.58.6-.79l-.6.79Z"/>
        <path class="cls-1" d="M63.76,58.16c-.24-.02-.22-.1.03-.22.05.06,0,.13-.03.22Z"/>
        <path class="cls-1" d="M63.76,58.54c-.18.09-.31.06-.44.03.06.11.38-.28.44-.03Z"/>
        <path class="cls-1" d="M58.68,59.91c-.12.03-.37.19-.51.05.15.09.57-.27.51-.05Z"/>
        <path class="cls-1" d="M56.29,60.47c-.08,0-.12-.03-.2.01-.15-.06,0-.17.12-.19l.09.18Z"/>
        <polygon class="cls-1" points="23.33 53.69 23.29 53.97 23.17 53.88 23.33 53.69"/>
        <path class="cls-1" d="M23.82,38.07c.16,0,.01.17.03.2-.13-.07.12-.14-.03-.2Z"/>
        <polygon class="cls-1" points="32.43 44.97 32.38 45.07 32.33 44.52 32.43 44.97"/>
      </g>
      <g>
        <path class="cls-1" d="M63.93,42.62c-.06-.05-.26.02-.11-.03.12,0,.21.02.11.03Z"/>
        <path class="cls-1" d="M63.76,42.42c-.38-.05-.4-.11-.37-.2.02-.08.07-.19-.19-.18-.04,0,.4-.13.29-.14-.6.07-.34-.19-.11-.65l.1-.06c.04-.09-.29.11-.28.05.06-.05.09-.06.17-.14-.19.14-.13.01-.28.12.06-.07.2-.2.25-.29l-.21.17c-.49.41-.08-.14-.36.05.04-.05.08-.08.11-.13-.35.22-.41.09-.59.17.05-.08.13-.24.17-.34-.13.25-.2.3-.25.34.1-.28-.15.23-.12.07l.03-.06c-.13.28.02-.18-.11.16l.05-.22c-.13.39.02-.21-.06-.02l-.02.08c-.04.09,0-.11-.04-.05v-.05c-.06.09-.04-.13-.1.18.03-.25.06-.11.11-.48-.23.29-.35.23-.51.24-.03-.13-.05-.16-.07-.28,0,.07-.06.07-.05.23,0,0-.04-.16-.05-.17-.06-.11.03.35-.02.22,0-.09-.02-.19-.05-.3.02.25-.02.22-.03.31,0-.05-.01-.09-.04-.18.04.28-.09-.04-.06.14l-.05-.18c-.13-.19.11.37.03.26-.01-.06-.04-.13-.06-.2.07.33-.02.25,0,.37-.01-.02-.03-.07-.03-.07-.02.06-.11-.02-.07.13-.06-.06-.22-.4-.23-.31.19.32.01.17.26.51-.06-.04-.18-.11-.13,0-.07-.12-.29-.35-.28-.39l-.16-.16c-.09-.12.06.02-.07-.12,0,.03.03.18-.02.14.12.2.38.54.38.6-.08-.12-.29-.29-.32-.34.14.19.3.37.46.55,0,.02-.21-.2-.16-.12.07.07.11.11.17.17-.03-.02.04.09-.24-.14-.11-.09-.04-.07-.15-.14-.02.02.08.11.07.13l-.04-.03c-.06-.02.09.14.27.24.02,0-.18-.13-.08-.08.16.14.2.19.19.2-.05-.04-.13-.09-.21-.15.21.19.28.25.38.33.15.09-.27-.17-.19-.13-.23-.08.27.22-.06.08-.03-.02.22.1.18.08-.03,0-.26-.1-.17-.05-.14-.06.04.03.08.06.1.05-.07-.02-.08-.04.11.07.31.18.1.14.09.03.31.1.33.11l-.22-.06c-.13-.03.01.02-.18-.02.27.08-.21-.12-.01-.04-.19-.04.35.12.04.04,0,.02.25.08.04.05.04,0-.31-.07-.3-.06.04.03.11.03.18.06l.09.02c.22.03-.03.01.22.04-.18-.02.11.03-.26,0l-.29-.03s.3.05.43.06c-.03,0-.09,0-.13,0,.44.03-.04.02.31.04-.16,0-.02.03-.29.05.14.01.3,0,.2.03-.04,0-.06,0-.15,0-.13.02-.01.01.06.02-.07,0-.26.04-.41.08.13,0,.37-.04.52-.06-.43.08.28-.02-.11.07-.06.01-.22.02-.32.06-.42.11.33-.04.12.03l.35-.1c-.22.07.21-.04-.15.07.13-.03-.11.06.23-.05-.27.13.18-.03-.39.25.06-.02,0,.02.17-.07.18-.09-.13.05-.01,0,.01,0,.1-.04.14-.06-.07.04-.09.06-.36.18-.18.13.55-.25.43-.17-.13.07-.18.1-.15.1l.22-.12s-.28.19-.49.32c.04-.01.04,0,.2-.09l-.25.19c.18-.14.13-.08.18-.11l-.05.03c-.08.06-.02.04,0,.03.12-.1.16-.14.2-.17.09-.06.08-.04.18-.11-.2.15-.13.12-.15.14-.04.04.18-.13.17-.13-.1.08,0,.02-.15.13-.03.02.09-.08,0-.02-.07.06-.24.21-.1.11.1-.07.36-.32.25-.21-.05.04-.12.1-.19.16l-.08.1.16-.15s-.05.05-.08.07c.17-.16.07-.03.26-.21.02-.01-.1.12-.11.14h-.01c-.08.11-.01.06.09-.05l-.03.04s.02,0,.11-.1c-.1.13-.53.66-.34.45.02,0,.27-.31.35-.43-.07.14.14-.16-.03.14.05-.08.08-.12.11-.17-.02.09.14-.22-.02.19-.04.08-.09.2-.14.32.09-.18-.07.2.07-.12.07-.19.11-.28.14-.35.05-.1.06-.1,0,.09.03-.09.05-.15.07-.2-.1.3-.1.36-.06.25l.06-.19-.05.19c.02-.06.11-.4.07-.21-.02.07-.04.15-.05.2.05-.15.11-.41.08-.25l-.05.28s.04-.2.05-.28c-.01.17-.02.2-.03.44.1-.6.08-.62.09-.58v.15c.02.14,0-.26,0-.15.01.14.02.3.04.47.03.15,0-.25-.01-.32-.02-.19.01.12-.02-.12,0-.07.03.15-.02-.14.02.11.05.32.07.44l-.02-.14c.07.33.07.6.14,1.02v-.05c.08.3,0,.35.08.44,0-.15-.06-.56-.09-.69.02-.08-.11-.68-.09-.66.04.17,0,.04.05.28.06.23,0-.13.02-.05-.03-.1-.09-.39-.1-.44.04.13.06.27.08.29-.04-.16-.07-.28-.1-.4-.02-.09,0-.02-.01-.04.03.08.05.18.08.27.04.13.07.25.1.31-.06-.21-.08-.28-.18-.58,0,.02-.02-.05.02.06.02.08.05.16.08.24.06.15-.15-.45.02.03l-.09-.25c.03.08.06.14.11.27,0,0-.13-.33.03.03-.01-.04,0-.03-.12-.28-.06-.13.06.14-.05-.11.02.05.05.11.01.03,0,0-.01-.03-.02-.04h0s0,0,0,0h0s0,0,0,0h0s.03.05.04.07c.02.03.03.05.02.04l.08.16s.09.16.06.09c-.07-.12-.15-.27-.2-.36h0s.03.05.03.05c.03.06.18.3.18.3-.02-.03-.07-.11-.12-.2-.03-.04-.06-.09-.08-.13-.02-.04,0-.01-.01-.02h0s.06.1.1.16c-.02-.04-.06-.1-.1-.16-.05-.07.1.14.22.31l.2.3h0c.16.24.13.17.3.42.04.03-.01-.06-.06-.13-.31-.38-.39-.54-.67-.88-.08-.09.69.82.25.29-.08-.09-.3-.34-.22-.24-.01-.01-.03-.03-.06-.07.09.1.23.25.37.4-.1-.11-.08-.08-.05-.05.12.12.29.33.31.32-.02-.04-.01-.05-.18-.22-.18-.18.01.03-.16-.16-.05-.07.22.2-.1-.12.01.01-.03-.02-.09-.08-.03-.03-.07-.07-.09-.09h0s0,0,0,0h0s0,0,0,0c.2.18-.1-.09.24.23.02,0-.16-.15-.06-.07.03.03.04.04.07.06.01.01.48.41.22.16-.1-.1-.13-.11-.26-.22-.04-.04-.18-.15-.2-.16.27.19.03.02.31.22-.17-.11-.15-.1.1.11.32.25-.05-.03.26.24.02,0,.33.24.53.4.02,0-.06-.07-.09-.1-.19-.15-.19-.15-.39-.3.07.02-.03-.08-.22-.22.1.06.3.2.32.23-.04-.07,0-.07.08-.06-.36-.18-.07-.07-.36-.22-.09-.03-.33-.17-.49-.26.03.02.15.09.23.13-.19-.11.31.16,0,0,.11.07.43.23.7.38-.15-.1.2.11.21.08-.14-.1-.26-.19-.31-.23.28.08.03-.07.03-.09.15.03.49.15.55.14,0-.03-.37-.09-.21-.08l.07.02c-.08-.03.25,0-.24-.13l.37.09s-.05-.02-.09-.04c.12.03.24.04.31.07.27.03-.03-.07-.04-.09l-.23-.02c-.17-.07.06-.06-.02-.11l.22.02-.13-.04c.21.03.35,0,.17-.02.18.04.36.08.54.13-.13.01-.26-.05-.48-.06-.19,0-.14.04.07.07.03-.01-.02-.02-.1-.04.31.03.29.06.49.1-.01-.01.08-.02-.01-.03.15.04.17.07.17.11-.11-.05-.19-.02-.28-.04.27.05.34.1.26.14-.31-.03.17.14.07.18-.26-.1-.47-.18-.57-.23-.14,0,0,.03-.14.03.19.07.5.16.6.24l-.19-.06c.09.07.37.16.3.2-.13.06-.16.15-.22.21l-.18-.09c.37.23.08.19.22.33-.21-.02.04.29-.27.13.03.22.03.46-.16.53l-.18-.24c.12.18-.13-.11-.12-.06.18.15.17.26.27.41-.21-.12-.13.13-.09.35l-.12-.17c.15.36-.13.14-.23.13-.05-.07-.16-.23-.17-.2.11.31.07.3.08.53-.05.03-.18-.01-.28-.11-.06.52-.38.29-.58.59l-.04-.23c-.2.53-.53.07-.75.29l.07-.4c-.04-.13-.15.09-.19.37-.04-.13-.21.16-.18-.18-.05-.09-.13.16-.2.2-.1-.19-.14-.17-.3-.15l.02.04c.05-.08.11-.24.09-.28-.09.09-.11-.17-.27.3,0-.31-.42.05-.35-.36-.06.12-.1.12-.17.19-.12-.07-.06-.37-.28-.25.03-.06.17-.16.13-.2-.06.02-.11.13-.19.17-.33.04-.14-.48-.3-.56-.41-.09-.51-.49-.67-.76l.09-.04c-.39.03.27-.36-.29-.26.08-.05.01-.11.2-.14-.28-.02.18-.28-.17-.33,0,.01.01.02.06.02.19-.15-.12-.22.07-.37.04,0,.07.03.17.02.18-.06-.42-.09.05-.14,0-.03-.24,0-.22,0,.17-.27-.11-.56-.15-.9.33-.14.77.18.47-.06.09.01-.17-.06-.08-.03-.11-.1.53.07.3-.04-.28-.08-.14-.08-.31-.13.22-.06.47.03.3-.14l.14.07c-.35-.27-.09-.28-.47-.61.25-.63.58-1.35,1.24-1.76.68-.25,1.42-.61,2.15-.29.13.42.12.41.32.28-.02.06-.03.07-.03.14.07-.32.12,0,.21-.31.24.12.51.12.76.23-.06.01-.18.25-.13.25l.14-.17-.03.09c.05-.03.16-.15.17-.27.39.04.67.34.84.67.18.33.27.67.48.92-.03.2.17.33.31.46-.2.66-.5,1.02-.19,1.45,0,0-.85-.06-1.05-.16Z"/>
        <path class="cls-1" d="M63.96,42.68c-.16,0-.26.03-.47,0,.15,0,.33,0,.47,0Z"/>
        <path class="cls-1" d="M62.21,42.89s-.06-.03-.09-.04c0,0-.13-.07-.05-.04.01,0,.08.04.14.08Z"/>
        <path class="cls-1" d="M62.09,42.9c-.11-.08-.2-.15-.23-.16.08.05.15.11.23.16Z"/>
        <path class="cls-1" d="M61.6,42.58h0s0,0,0,0Z"/>
        <path class="cls-1" d="M61.84,42.78s-.07-.05-.13-.1c.08.07-.04-.03.13.1Z"/>
        <path class="cls-1" d="M61.6,42.58h0s0,0,0,0Z"/>
        <path class="cls-1" d="M61.66,42.67s-.02-.03,0,0c-.02-.03-.05-.08-.06-.09-.01-.02.02.03.05.09Z"/>
        <polygon class="cls-1" points="60.94 42.75 61.01 42.74 60.87 42.77 60.94 42.75"/>
        <path class="cls-1" d="M61.03,42.2c-.07-.06.12.07.13.08,0,.01-.15-.1-.13-.08Z"/>
        <polygon class="cls-1" points="60.88 41.36 60.88 41.37 60.72 41.11 60.88 41.36"/>
      </g>
      <g>
        <path class="cls-1" d="M55.36,33.09c.11,0,.1-.24.11-.06-.08.09-.14.16-.11.06Z"/>
        <path class="cls-1" d="M39.71,35.98c-.71-.39.11-.65-.32-1.03-.03-.04.41.08.33-.02-.53-.4-.09-.81.42-1.08l.11.04c.1-.05-.27-.21-.2-.27.08.02.1.05.21.05-.23-.07-.08-.15-.24-.22.1,0,.28.03.39.02l-.25-.1c-.6-.25.1-.27-.18-.5.06.02.1.05.16.05-.32-.34-.18-.64-.24-.96.09.03.25.09.36.1-.27-.08-.32-.19-.35-.28.29.04-.22-.2-.04-.25l.06.02c-.28-.15.2-.05-.14-.2l.23.02c-.39-.14.23-.04.05-.15l-.08-.02c-.08-.08.12-.05.07-.11h.05c-.07-.13.17-.13-.14-.22.26.04.08.14.45.19-.21-.46-.02-.81.1-1.17.13,0,.18,0,.3.03-.05-.06,0-.15-.14-.24,0,.01.16.04.18.03.14-.02-.3-.2-.14-.22.07.06.16.11.27.15-.21-.15-.14-.22-.18-.32.04.03.07.06.16.1-.23-.19.11-.12-.02-.26l.16.1c.26,0-.34-.19-.17-.23.04.05.11.07.18.11-.26-.23-.09-.32-.15-.46.02.02.07.04.07.04.01-.11.14-.16.09-.34.09,0,.38.24.38.12-.32-.19-.03-.24-.41-.41.11-.05.31-.1.24-.24.09.12.39.24.37.32l.21.09c.11.1-.07.01.09.11,0-.03-.04-.2.03-.18-.13-.2-.38-.54-.32-.68.05.15.29.28.31.36-.12-.21-.24-.45-.32-.67.03-.04.18.23.18.11-.06-.08-.07-.14-.1-.22.04.03.13-.2.33.11.09.11-.02.11.09.19.06-.05,0-.16.07-.21l.02.04s.04,0,.04-.04c.02-.07,0-.21-.1-.32-.04,0,.11.19,0,.12-.05-.21.03-.3.12-.33-.01.07.03.16.05.26,0-.31.12-.44.25-.58-.04-.17.02.32-.02.23.22.2.34-.42.53-.08-.02.03-.04-.24-.03-.2.09.02.1.27.15.17.01.15.06-.05.12-.1.03-.11.02.07-.03.09.07-.14.38-.35.54-.13,0-.1.13-.35.17-.34l-.03.23c.02.14.13,0,.12.19.1-.27-.33.21-.2,0,.01.19.18-.35.13-.04.07,0,.18-.25.23-.03-.02-.04-.1.31-.04.3.11-.03.04-.11.14-.17l.07-.09c.04-.22.09.04.09-.21-.02.18.17-.08.1.28l-.06.28s.12-.29.18-.41c0,.03,0,.09,0,.13.09-.44.1.06.22-.27.07.17.24.07.22.35.1-.12.2-.26.26-.14-.03.04-.05.04-.08.14.02.14.06.03.12-.03-.03.06.04.28.05.44.1-.11.14-.35.18-.49-.05.44.27-.22.24.19-.04.05-.16.18-.13.3-.06.44.21-.28.25-.05l.08-.36c-.02.23.21-.16.09.2.07-.12.08.15.17-.19.07.34.45-.05.34.59.04-.05.08.03.13-.15.03-.2-.1.12-.07-.02.02,0,.06-.09.08-.14.02.09.05.13-.09.39.03.24.31-.53.41-.35-.06.14-.07.19-.02.18l.16-.21c.07.09-.07.33-.15.57.06-.02.11.01.2-.15l-.06.31c.04-.23.09-.13.14-.17l-.04.05c-.03.1.05.06.09.04.05-.15.02-.23,0-.28.06-.09.09-.05.17-.16-.1.22.01.19.04.23.02.07.13-.18.14-.17-.05.12.06.05-.04.2-.03.03.01-.13-.05-.03,0,.1-.09.3.02.18.09-.09.17-.45.19-.27-.04.05-.09.14-.13.21l.03.15.09-.2c-.01.06-.03.07-.03.1.11-.21.14-.02.26-.25.05,0,.02.18.05.22h-.01c0,.15.09.1.18-.02l-.02.04s.09.02.17-.09c0,.18-.31.78-.14.55.06.02.26-.33.29-.47.05.19.33-.09.29.27.05-.07.07-.13.12-.16.13.16.46-.08.4.38-.09.06-.1.2-.15.32.12-.16-.04.21.12-.09.08-.18.13-.27.12-.36.14-.05.29.02.26.22.01-.1.06-.14.11-.19-.15.29-.1.36,0,.29l.09-.17-.05.2s.2-.36.17-.16c-.03.07-.06.14-.08.19.13-.12.32-.32.31-.14l-.08.28s.16-.15.15-.24c.03.21.08.26,0,.49.45-.45.71-.34.9-.19l-.07.13c0,.15.15-.21.14-.1-.08.11-.1.29-.22.42,0,.18.22-.17.3-.2.1-.17-.1.09.03-.12.04-.06.04.19.19-.06-.03.11-.15.29-.22.39l.11-.1c-.1.33-.42.47-.55.87l.06-.02c-.1.29-.27.24-.22.39.11-.1.35-.45.37-.59.14-.02.37-.59.47-.51-.05.17-.1,0-.2.21-.06.23.16-.06.17.03,0-.12.18-.36.24-.39-.01.15-.17.22-.1.29.09-.14.22-.21.22-.35.21-.32.03.14.21-.1-.1.25-.38.5-.36.66.11-.23.27-.25.41-.61,0,.08-.1.26-.2.39-.03.16.34-.35.11.11l.14-.22c-.02.08-.04.15-.08.29.04.03.31-.24.11.11.03-.03.12.04.22-.22.02-.18-.16.14-.02-.21-.11.29.1.01.19-.06l-.07.14s.08.01.17-.12c-.06.07-.1.16-.1.21l.14-.19c.14-.06-.18.37-.07.36l-.15.12s-.05.18.03.14c.12-.18.27-.39.37-.52.09-.06-.1.22.05.06l-.18.19c-.04.06-.14.33-.07.36.07-.04.29-.28.28-.41.03.01,0,.15-.09.27.1-.03.11-.2.23-.29-.05.14-.07.36-.13.56l-.24.28.04.03c-.19.22-.08.2-.26.45,0,.06.09-.01.15-.07.16-.47.42-.52.62-.92.17-.04-.47.97,0,.44.04-.11.26-.37.13-.3.04.08.27-.36.26-.15-.15.12-.16.42-.38.6.08-.12,0-.12-.03-.1-.06.16-.23.38-.16.42.06-.01.13.01.23-.19.13-.22-.08-.01.08-.22.13-.03-.05.31.21-.05-.07,0,.05-.23.14-.38l.12-.05-.1.14c.04.16.18-.25.26-.15l-.12.31c-.17.23-.08-.19-.3.22.05.05.19-.14.19,0-.03.03-.06.03-.09.05.01.03-.28.57,0,.31.12-.09.1-.14.19-.28.13.01.25-.12.33-.1-.19.28.1.1-.15.35.07-.19-.09-.26-.29,0-.17.37-.05-.1-.28.24.08.06-.13.39-.25.62.01.03.09-.05.12-.08.14-.2.1-.22.23-.44.05.11.21.04.38-.13-.03.12-.17.32-.22.32.14,0,.24.1.3.22.14-.38.16-.01.29-.32,0-.11.09-.38.22-.52.02.04-.09.15-.12.23.16-.16-.12.34.11.07-.16.05-.27.4-.45.66.16-.11-.12.19-.05.23.16-.11.32-.17.43-.18-.06.31.24.16.33.2-.04.16-.26.44-.24.52.06.03.16-.35.16-.16l-.05.05c.07-.05.02.3.32-.11l-.23.31s.06-.03.09-.05c-.07.11-.11.21-.18.27-.09.26.13.03.19.06l.09-.21c.19-.09.13.14.27.13l-.12.18.13-.08c-.13.17-.16.32-.03.19l-.44.36c.03-.14.19-.2.28-.4.08-.17-.04-.18-.16,0,.02.04.05,0,.12-.05-.16.27-.2.22-.33.38.02,0,0,.09.05.02-.11.11-.16.1-.22.07.1-.08.08-.17.14-.24-.15.23-.25.26-.28.16.12-.3-.24.09-.27-.03.18-.21.34-.37.45-.44.02-.15-.06-.03-.04-.18-.13.16-.32.41-.45.48l.1-.17c-.11.05-.27.31-.32.21-.08-.17-.21-.25-.29-.33l.1-.17c-.28.34-.27.02-.44.14-.03-.24-.37,0-.26-.34-.3,0-.58.01-.77-.19l.19-.23c-.15.16.06-.16,0-.15-.07.23-.21.23-.33.37.01-.26-.25-.12-.44,0l.1-.18c-.28.28-.23-.08-.31-.2.03-.08.1-.26.05-.26-.22.25-.25.21-.44.34-.07-.04-.14-.17-.14-.32-.48.26-.6-.14-.99-.03l.09-.22c-.49.32-.6-.26-.94-.14l.21-.35c-.01-.15-.21.02-.32.28-.01-.15-.26.09-.16-.23-.04-.1-.17.13-.25.15-.07-.21-.14-.2-.31-.2l.02.04c.05-.07.13-.23.11-.27-.1.08-.14-.19-.3.28-.02-.32-.43.05-.41-.36-.04.13-.09.13-.14.21-.13-.05-.15-.36-.34-.19,0-.07.12-.19.08-.23-.05.03-.07.16-.14.21-.3.14-.31-.41-.52-.43-.42.11-.72-.14-1.04-.21l.04-.09c-.22.32-.13-.44-.38.07,0-.1-.08-.07,0-.25-.16.22-.16-.31-.37-.02,0,.01.02,0,.04-.04-.06-.24-.25.01-.32-.2.02-.04.05-.06.08-.16,0-.19-.21.37-.13-.09-.03,0-.07.23-.05.22-.24-.25-.59,0-.84.08-.16-.3.05-.8-.12-.45,0-.09-.02.18-.02.08-.06.13-.06-.53-.11-.28,0,.29-.03.16-.03.34-.1-.19-.14-.45-.21-.23v-.15c-.07.44-.18.21-.12.71-.03.03-.06.07-.07.11-.02.08,0,.16.03.23.03,0,.02.09,0,.18-.02.09-.05.14-.09.24-.33.4-.34,1.07-.8,1.6-.43.03-.42.05-.32.26-.06-.03-.07-.04-.13-.05.31.1,0,.13.29.23-.13.22-.1.48-.17.73-.02-.05-.28-.14-.27-.08l.19.1h-.09s.19.11.3.1c.12.7-.67,1.2-.72,1.88-.17.13-.08.37-.05.56-.52.42-.95.85-.71,1.38,0,0-.83-.17-.99-.42Z"/>
        <path class="cls-1" d="M55.25,33.06c.07-.15.07-.26.23-.41-.08.13-.15.29-.23.41Z"/>
        <path class="cls-1" d="M54.75,30.75s.01-.07.02-.1c.02,0,.11-.11.08-.03-.02,0-.06.07-.11.12Z"/>
        <path class="cls-1" d="M54.44,30.44c.08-.12.22-.17.28-.16l-.28.16Z"/>
        <path class="cls-1" d="M54.4,29.71c.03-.12.08-.18.11-.15-.04.07-.07.09-.11.15Z"/>
        <path class="cls-1" d="M54.21,29.99s0-.1.03-.18c-.06.11.11-.03-.03.18Z"/>
        <path class="cls-1" d="M53.66,29.17s-.12.08-.06-.07c-.04.11.18-.11.06.07Z"/>
        <path class="cls-1" d="M53.2,29.16s0-.04-.03-.01c.01-.07.09-.15.11-.15l-.08.17Z"/>
        <polygon class="cls-1" points="46.11 26.56 46.18 26.5 46.13 26.64 46.11 26.56"/>
        <path class="cls-1" d="M42.32,26.32c-.03.11-.09-.11-.11-.13.05-.03.04.18.11.13Z"/>
        <polygon class="cls-1" points="41.14 28.27 41.14 28.26 41.39 28.42 41.14 28.27"/>
      </g>
      <g>
        <path class="cls-1" d="M55.96,62.81c.04-.11-.18-.19-.01-.13.06.1.09.19.01.13Z"/>
        <path class="cls-1" d="M38.96,59.13c.8.17.09.66.63.89.04.03-.41.06-.3.13.63.2.37.72,0,1.18h-.12c-.07.09.33.1.29.18-.08.02-.11,0-.22.04.24-.03.14.11.31.11-.08.05-.27.08-.36.14h.27c.65-.03.01.28.38.37-.06,0-.11,0-.17.03.44.17.44.5.65.74-.09.01-.27.05-.36.09.28-.06.37.01.44.07-.27.11.29.06.16.19h-.06c.31,0-.14.15.22.11l-.21.1c.4-.08-.18.15.04.15l.08-.03c.11.02-.08.1,0,.13l-.04.02c.14.08-.06.21.24.11-.23.11-.14-.07-.48.1.42.27.48.64.61.99-.11.08-.13.12-.24.18.07.01.11.11.27.08-.01,0-.14.08-.15.11-.09.11.35-.06.25.06-.09,0-.19.04-.3.09.26-.04.25.06.35.1-.05.01-.09,0-.18.05.29-.04,0,.17.2.16l-.18.05c-.15.2.37-.13.29.01-.06,0-.13.04-.2.07.35-.06.31.12.45.15-.03,0-.07.03-.07.03.08.07.03.22.22.23-.05.07-.4.22-.28.28.31-.2.23.07.54-.21,0,.1-.05.3.09.27-.13.05-.34.31-.4.27l-.14.18c-.13.09,0-.08-.14.05.04.03.24.03.22.1.23-.09.57-.34.66-.31-.13.07-.25.33-.32.35.2-.14.38-.28.56-.45.03,0-.17.24-.08.19.06-.08.11-.12.16-.18-.01.04.14-.02-.04.31-.06.13-.08.04-.12.17.06.03.12-.08.17-.05l-.02.04s.02.02.05,0c.06-.04.14-.17.17-.3-.02-.02-.08.2-.07.1.12-.19.19-.22.23-.21-.04.05-.07.14-.11.24.17-.24.25-.32.34-.43.04-.17-.1.3-.09.21.05.25.22-.3.26.05-.02.03.02-.25.01-.2.04.02.02.28.06.18,0,.15.05-.04.08-.09.02-.11,0,.07-.02.09.05-.11.24-.36.36-.14,0-.1.04-.36.07-.35v.23c.04.13.1-.03.12.16.03-.28-.21.26-.15.04.04.19.08-.38.09-.06.06-.01.08-.28.16-.07-.02-.04-.01.32.04.3.08-.05.01-.11.07-.19l.03-.1c-.03-.22.08.02,0-.22.04.18.1-.13.15.23l.04.29s0-.31.01-.44c0,.03.03.08.04.13-.07-.44.09.02.07-.32.1.14.19-.03.28.24.03-.15.04-.31.13-.23,0,.04-.02.06,0,.15.07.12.06,0,.07-.08,0,.07.15.23.23.37.03-.15-.06-.37-.09-.52.17.41.08-.32.26.05,0,.06-.03.23.05.32.18.41.02-.34.16-.16l-.13-.34c.1.2.06-.24.16.12-.01-.13.14.08.02-.25.23.24.28-.28.57.29,0-.06.07-.02,0-.19-.1-.17,0,.15-.06.03.01-.02-.01-.11-.03-.16.07.06.11.07.17.37.17.17-.1-.6.07-.52.05.14.07.19.1.15l-.02-.26c.1.02.16.3.25.53.03-.06.09-.07.04-.25l.16.27c-.12-.2-.02-.15-.02-.22v.07c.05.09.07.01.09-.02-.06-.14-.14-.18-.18-.21-.02-.11.03-.1,0-.23.08.23.13.13.18.15.06.03-.04-.22-.02-.22.05.12.07,0,.11.17,0,.04-.08-.1-.06,0,.06.08.14.28.13.11,0-.13-.19-.44-.06-.33,0,.06.04.16.05.24l.12.09-.08-.21s.03.07.05.09c-.07-.23.08-.11,0-.36.03-.04.13.11.18.12v.02c.09.1.12,0,.09-.15l.02.05s.07-.05.05-.18c.12.13.35.76.31.48.06-.03-.07-.41-.15-.53.17.09.13-.29.37-.02-.02-.09-.05-.14-.05-.2.19,0,.21-.39.51-.05,0,.11.09.2.15.32-.05-.2.13.17,0-.15-.09-.18-.13-.27-.21-.32.04-.14.18-.21.31-.06-.07-.07-.07-.14-.08-.2.13.29.22.3.22.18l-.08-.18.12.16c0-.07-.16-.38-.03-.23.04.07.07.13.11.18-.02-.17-.07-.45.06-.33l.17.23s-.03-.21-.11-.27c.17.11.24.09.39.3-.11-.62.12-.76.33-.82l.06.13c.12.09-.09-.24,0-.17.05.13.18.25.22.42.15.1-.02-.27,0-.36-.08-.17.02.13-.09-.09-.02-.07.17.08.05-.18.07.09.16.29.2.4l-.02-.15c.22.27.16.6.42.94l.02-.06c.18.25.05.36.21.4-.02-.15-.18-.54-.28-.64.06-.12-.28-.63-.17-.67.11.14-.06.08.07.28.16.18.03-.17.11-.12-.1-.07-.2-.35-.19-.41.12.09.1.26.18.25-.07-.15-.06-.3-.18-.37-.16-.35.13.05.02-.23.15.22.22.58.37.66-.14-.22-.07-.36-.3-.67.07.05.17.22.22.38.12.11-.12-.47.14-.03l-.11-.24c.06.07.1.12.2.23.04-.02-.05-.38.14-.03,0-.04.09-.08-.08-.3-.14-.12.03.21-.18-.1.19.24.06-.08.04-.19l.08.13c-.01-.06.05-.06-.02-.21.03.09.09.17.12.2l-.1-.22c.02-.14.22.35.26.25l.03.19s.13.14.13.05c-.09-.2-.19-.43-.26-.58,0-.1.14.2.07-.01l.07.25c.03.07.21.29.27.25,0-.09-.1-.39-.21-.45.03-.02.13.07.19.22.03-.1-.12-.19-.13-.34.09.11.26.25.41.4l.12.34.04-.02c.09.28.13.18.26.45.05.03.03-.08.02-.16-.32-.37-.24-.62-.49-.99.04-.16.61.89.37.23-.08-.09-.19-.41-.2-.26.09,0-.18-.41-.01-.29.04.19.29.35.34.63-.07-.13-.1-.07-.09-.03.11.13.22.39.29.35.02-.06.07-.1-.05-.29-.13-.22-.05.06-.15-.18.04-.12.24.2.05-.21-.03.06-.18-.16-.27-.31v-.13s.08.15.08.15c.16.05-.13-.28-.01-.29l.21.26c.12.26-.2-.03.06.36.07-.02-.03-.23.09-.16,0,.04,0,.06,0,.1.03,0,.37.52.27.16-.03-.15-.07-.15-.16-.3.07-.1,0-.27.05-.33.16.3.13-.04.24.3-.13-.15-.26-.05-.13.25.24.32-.1,0,.08.36.08-.04.28.3.43.52.03,0,0-.1-.01-.15-.12-.22-.14-.2-.27-.41.12,0,.13-.16.06-.39.09.09.21.3.19.34.07-.12.19-.16.33-.16-.27-.3.06-.15-.16-.4-.1-.04-.29-.26-.36-.43.05,0,.09.15.15.21-.07-.21.25.26.11-.06-.03.17.24.43.38.7-.02-.19.11.19.18.15-.02-.19-.01-.36.03-.46.25.19.24-.14.32-.2.13.11.29.42.37.45.05-.04-.24-.3-.08-.21l.03.06c-.02-.09.28.11.03-.34l.18.34s0-.06,0-.11c.07.1.15.19.16.27.19.19.08-.1.13-.15l-.16-.17c0-.21.18-.06.23-.19l.12.19-.02-.15c.1.19.23.27.16.1l.15.55c-.11-.08-.1-.25-.25-.42-.12-.15-.18-.04-.07.15.05,0,.02-.04,0-.13.18.25.12.27.21.46.01-.02.09.04.04-.04.05.15.03.19-.03.23-.03-.13-.12-.15-.16-.23.14.23.13.34.02.32-.22-.23-.02.25-.15.23-.11-.25-.19-.47-.2-.59-.12-.09-.05.04-.18-.04.09.19.24.47.24.61l-.11-.17c0,.12.15.38.05.38-.18,0-.32.08-.43.12l-.11-.17c.17.4-.1.25-.08.46-.23-.09-.18.34-.43.08-.15.27-.27.52-.55.6l-.11-.28c.07.21-.11-.13-.13-.07.17.18.1.3.16.47-.22-.14-.23.16-.23.39l-.1-.17c.09.39-.19.16-.34.17-.06-.07-.17-.22-.19-.18.1.32.05.32.05.55-.07.04-.22.03-.36-.04-.04.55-.46.44-.6.83l-.13-.2c-.03.59-.58.36-.7.71l-.16-.38c-.13-.08-.12.18.03.43-.13-.07-.1.27-.29,0-.11-.03-.01.21-.05.29-.22-.06-.26,0-.37.13h.05c-.02-.08-.1-.24-.14-.25,0,.13-.25,0,.02.41-.28-.18-.27.38-.58.1.07.12.04.16.06.24-.14.07-.39-.12-.41.14-.05-.05-.05-.22-.12-.21-.01.06.07.16.06.25-.13.33-.56-.04-.75.11-.28.39-.73.42-1.09.59l-.03-.09c-.01.4-.42-.27-.35.3-.06-.08-.13,0-.16-.19-.02.29-.36-.15-.42.21.02,0,.02-.02.02-.06-.21-.17-.27.16-.48,0,0-.04.03-.08.01-.18-.11-.17-.06.44-.2-.01-.03.01.03.24.05.22-.4-.09-.73.27-1.16.42-.33-.25-.08-.78-.29-.42-.03-.09,0,.18-.01.08-.09.13-.17-.52-.22-.27.03.29-.04.16-.04.34-.19-.18-.22-.44-.38-.24l.02-.15c-.2.42-.41.18-.71.61-.31-.03-.62-.11-.92-.18-.24-.11-.48-.22-.71-.35-.24-.13-.42-.32-.64-.49-.1-.08-.23-.18-.3-.26l-.2-.23c-.13-.15-.27-.33-.37-.49-.38-.89-.85-1.57-.87-2.45.33-.3.31-.31.1-.46.06-.01.08,0,.14-.03-.32.08-.07-.13-.38-.06-.03-.31-.18-.54-.26-.84.05.04.31,0,.28-.06h-.22s.09-.04.09-.04c-.06-.03-.22-.03-.32.04-.46-.68.02-1.54-.2-2.24.1-.2-.07-.41-.17-.59.33-.63.6-1.15.22-1.69,0,0,.85-.03,1.08.16Z"/>
        <path class="cls-1" d="M55.88,62.9c-.11-.13-.21-.17-.29-.38.09.13.21.25.29.38Z"/>
        <path class="cls-1" d="M53.59,62.36s-.05-.04-.07-.07c.01-.02-.05-.15.01-.08-.01.02.03.09.06.15Z"/>
        <path class="cls-1" d="M53.18,62.49c-.07-.13-.05-.27-.02-.32l.02.32Z"/>
        <path class="cls-1" d="M52.54,62.17c-.09-.09-.12-.15-.08-.17.04.06.05.11.08.17Z"/>
        <path class="cls-1" d="M52.69,62.47s-.08-.05-.14-.11c.07.11.02-.11.14.11Z"/>
        <path class="cls-1" d="M51.76,62.53s.01.15-.09.02c.07.09,0-.21.09-.02Z"/>
        <path class="cls-1" d="M51.53,62.91s-.03-.02-.03.02c-.05-.05-.08-.15-.07-.17l.1.15Z"/>
        <polygon class="cls-1" points="45.49 66.34 45.51 66.26 45.54 66.4 45.49 66.34"/>
        <path class="cls-1" d="M43.05,66.62c-.05.08.03-.13.04-.16.02,0-.07.17-.04.16Z"/>
        <polygon class="cls-1" points="41.75 66.35 41.76 66.36 41.51 66.51 41.75 66.35"/>
      </g>
      <g>
        <path class="cls-1" d="M54.96,38.39c-.02-.1-.2-.01-.07-.08.08.04.14.07.07.08Z"/>
        <path class="cls-1" d="M58.85,60.42c-.58.24-.47-.45-.95-.4-.04,0,.22-.22.11-.22-.53.1-.73-.4-.67-.93l.08-.04c0-.1-.27.03-.28-.06.04-.04.08-.03.13-.1-.15.1-.14-.05-.27,0,.04-.07.15-.15.18-.23l-.18.09c-.45.2-.15-.25-.45-.22.04-.02.08-.03.11-.07-.39-.04-.57-.31-.81-.51.07-.03.18-.09.24-.15-.19.1-.28.05-.35,0,.17-.15-.24-.01-.18-.16l.05-.02c-.23.06.06-.16-.2-.07l.13-.13c-.28.13.09-.17-.07-.14l-.05.03c-.09,0,.03-.11-.04-.13l.03-.02c-.13-.06-.01-.2-.22-.09.15-.13.13.06.35-.13-.39-.22-.59-.57-.71-.93.07-.08.09-.12.17-.16-.06-.02-.09-.11-.22-.1,0,.01.1-.07.11-.1.06-.1-.27.03-.2-.08.07,0,.15-.02.22-.06-.2.01-.2-.08-.29-.13.04,0,.07,0,.14-.03-.23,0-.02-.16-.17-.18l.14-.03c.11-.17-.28.07-.23-.06.05,0,.1-.02.15-.04-.27,0-.25-.17-.37-.23.02,0,.06-.02.06-.02-.07-.09-.04-.21-.18-.29.05-.06.32-.09.25-.18-.26.09-.16-.15-.44.02.02-.11.08-.28-.03-.32.11.01.31-.14.36-.08l.15-.11c.11-.03-.02.07.11,0-.02-.03-.16-.11-.12-.16-.18-.02-.51,0-.57-.1.12.02.29-.11.34-.09l-.56-.02s.21-.07.12-.1c-.07.02-.12,0-.18,0,.03-.02-.11-.14.15-.23.1-.04.07.05.16-.02-.02-.07-.11-.05-.14-.12h.04c.03-.07-.15-.12-.28-.03,0,.03.16-.05.09.02-.16,0-.23-.07-.25-.14.05.01.12,0,.2-.01-.23-.05-.34-.13-.44-.23-.13.03.24,0,.17.02.15-.18-.3-.24-.06-.41.03.01-.18.05-.14.04,0-.07.19-.1.11-.14.11-.03-.04-.05-.09-.09-.08,0,.05-.02.07.02-.1-.04-.32-.27-.18-.45-.07.02-.28-.05-.28-.08h.17c.1-.06-.03-.13.11-.15-.22-.04.22.25.05.18.14-.05-.29-.09-.06-.11-.02-.07-.22-.1-.07-.19-.02.02.24.02.22-.03-.05-.09-.09-.01-.16-.08l-.08-.04c-.17.02,0-.09-.17-.03.13-.03-.11-.13.17-.16l.22-.02s-.24-.04-.34-.06c.02,0,.06-.03.1-.03-.33.04.01-.1-.25-.12.11-.1-.01-.23.19-.29-.11-.06-.23-.11-.17-.19.03.01.04.03.12.03.09-.06,0-.06-.05-.1.05,0,.19-.12.3-.18-.11-.06-.28-.02-.39-.01.32-.09-.23-.17.06-.28.05.02.17.08.25.02.32-.09-.25-.1-.1-.22l-.27.05c.16-.06-.17-.14.11-.15-.1-.03.08-.12-.19-.09.21-.18-.18-.39.3-.52-.04-.02,0-.08-.14-.06-.15.05.11.05,0,.07,0-.02-.08-.02-.12-.02.06-.05.08-.09.3-.06.16-.12-.45-.1-.35-.24.11,0,.15-.01.13-.05l-.19-.07c.04-.09.25-.06.44-.07-.03-.05-.03-.11-.16-.13l.23-.07c-.17.05-.11-.04-.16-.06l.05.02c.08-.01.03-.07,0-.1-.12,0-.16.07-.19.1-.08-.02-.06-.06-.16-.1.18,0,.13-.08.15-.12.04-.05-.17-.05-.16-.06.1,0,.01-.07.15-.04.03.02-.09.04,0,.06.07-.03.24-.03.11-.09-.09-.05-.36.02-.25-.07.05.02.12.03.19.04l.09-.08h-.17s.06,0,.08-.01c-.18-.02-.06-.13-.25-.14-.02-.04.11-.09.13-.13h.01c.1-.04.03-.11-.08-.15h.04s-.01-.09-.11-.12c.13-.07.63-.01.42-.09,0-.07-.3-.11-.41-.09.12-.12-.15-.27.12-.37-.07-.02-.11,0-.15-.05.07-.18-.18-.39.15-.52.07.06.17.01.26.01-.15-.05.16-.04-.1-.07-.15,0-.22-.01-.29.04-.08-.11-.07-.28.07-.33-.07.03-.12,0-.16-.03.24.02.28-.06.2-.12l-.15-.02.15-.03s-.31-.05-.16-.1c.06,0,.11,0,.16,0-.12-.07-.31-.17-.18-.23l.22-.04s-.14-.09-.21-.04c.14-.1.16-.18.35-.2-.43-.23-.42-.53-.37-.76l.11.02c.11-.05-.19-.05-.11-.09.1.03.23-.02.35.04.12-.08-.18-.13-.22-.2-.14-.02.09.06-.09.03-.05-.02.12-.11-.09-.15.09-.01.25.02.33.04l-.1-.07c.26-.04.44.2.76.17l-.03-.05c.23-.02.24.16.33.04-.1-.06-.41-.15-.51-.11-.05-.12-.51-.11-.48-.23.13-.02.02.1.2.1.18-.04-.08-.13-.01-.17-.09.05-.3-.03-.34-.07.11-.05.2.07.23-.02-.12-.03-.21-.12-.3-.06-.28-.07.09-.08-.12-.16.2,0,.45.15.56.07-.19,0-.24-.15-.54-.14.06-.03.21-.01.33.03.13-.04-.33-.18.05-.14l-.19-.05c.07-.01.12-.02.23-.04,0-.05-.24-.19.05-.14-.03-.02,0-.12-.21-.11-.13.05.14.1-.14.1.23-.02-.02-.1-.09-.15h.12s0-.07-.13-.1c.06.03.14.03.17.02l-.17-.05c-.07-.11.31.02.27-.08l.13.09s.14-.03.09-.08c-.16-.05-.34-.1-.46-.14-.06-.06.18,0,.03-.07l.18.1c.05.02.27,0,.27-.07-.05-.05-.27-.16-.36-.1,0-.04.11-.07.22-.02-.04-.09-.17-.02-.26-.1.11-.01.28-.07.44-.1l.25.11v-.05c.21.09.18,0,.4.07.04-.03-.03-.08-.08-.12-.37.03-.47-.19-.8-.22-.07-.14.81.06.32-.16-.09,0-.33-.1-.25,0,.05-.07-.32-.11-.17-.18.12.09.34-.01.52.12-.11-.03-.09.04-.06.06.13-.01.33.07.34-.01-.02-.05-.02-.12-.19-.14-.19-.03,0,.08-.18.01-.05-.11.24-.07-.08-.18.01.07-.18.05-.31.02l-.06-.09.12.04c.11-.1-.22-.08-.16-.18h.25c.21.06-.12.14.22.18.03-.07-.14-.13-.04-.18.03.02.03.04.06.06.02-.02.48.04.23-.12-.09-.07-.12-.04-.25-.06-.02-.12-.14-.19-.14-.27.25.07.05-.13.29,0-.15,0-.18.18.06.27.3.02-.06.08.24.17.02-.09.31-.03.51,0,.02-.02-.06-.06-.09-.08-.18-.05-.18-.01-.37-.05.07-.09,0-.21-.17-.31.1-.02.27.03.28.08-.03-.13.03-.26.1-.36-.31.01-.04-.14-.29-.15-.08.05-.3.06-.42,0,.03-.04.13.03.19.03-.15-.09.27-.02.03-.13.07.13.35.1.58.17-.11-.11.16.04.18-.04-.11-.11-.19-.23-.22-.33.24-.06.07-.28.09-.38.13-.02.38.07.44.03.01-.07-.29-.02-.15-.09l.05.02c-.05-.04.22-.13-.14-.26l.27.1s-.03-.04-.06-.07c.09.02.18.02.23.07.21,0,0-.13.01-.2h-.18c-.1-.15.08-.18.06-.3l.16.05-.08-.09c.15.06.27.03.15-.04l.35.27c-.11.02-.18-.1-.35-.12-.14-.01-.13.1.02.15.03-.03,0-.04-.06-.09.23.05.2.1.34.17,0-.02.07-.03,0-.05.1.07.11.11.09.18-.08-.07-.14-.01-.2-.05.2.06.24.13.17.2-.24,0,.11.19.02.26-.19-.09-.34-.18-.41-.25-.12.03-.01.07-.13.1.14.07.37.14.44.24l-.15-.03c.06.09.28.14.22.22-.11.13-.14.28-.19.39l-.15-.03c.3.13.07.24.19.35-.17.11.07.34-.2.37.06.28.14.53.03.78l-.21-.08c.15.08-.13,0-.11.06.18-.02.21.11.34.16-.19.09-.03.27.1.4l-.15-.02c.26.15,0,.24-.07.36-.06,0-.21,0-.2.05.23.11.21.14.35.27-.01.08-.09.19-.19.26.3.34.03.6.22.93h-.18c.35.33-.03.66.15.92l-.3-.05c-.1.07.06.18.28.18-.1.07.13.2-.12.24-.06.08.14.11.17.18-.12.15-.1.21-.05.37l.02-.04c-.07-.02-.2-.03-.22,0,.08.06-.09.2.28.16-.22.15.16.38-.14.52.1-.01.12.03.18.05,0,.14-.21.28-.05.4-.05.02-.17-.04-.18.02.04.03.13,0,.19.04.19.23-.18.46-.13.66.2.36.1.75.15,1.09h-.07c.29.1-.26.29.17.36-.07.03-.02.11-.17.1.21.08-.16.28.1.39,0-.01,0-.02-.04-.03-.15.15.08.25-.05.41-.03-.01-.06-.04-.13-.03-.13.07.32.1-.03.17,0,.03.18,0,.17-.02-.12.33.17.64.3.94-.17.26-.58.11-.29.25-.06.03.14-.01.06,0,.11.05-.37.18-.18.2.21-.06.13.01.25-.01-.11.17-.3.23-.12.31h-.11c.34.08.2.27.58.3.24.68.62,1.28.86,1.91.21.63.54,1.21.7,1.87-.19.28-.17.29.02.38-.05.02-.06.01-.1.05.22-.11.08.1.29,0,.08.24.25.41.38.63-.04-.02-.22.07-.18.1l.16-.04-.05.04s.17-.03.22-.1c.53.39.54,1.16.97,1.63.03.18.26.25.41.33.12.55.28,1.07.79,1.24,0,0-.44.45-.7.41Z"/>
        <path class="cls-1" d="M54.96,38.49c-.12-.02-.2.02-.35-.07.11.03.25.03.35.07Z"/>
        <path class="cls-1" d="M53.32,39.81s-.05.01-.08.01c0-.02-.1-.06-.04-.07,0,.02.06.03.11.05Z"/>
        <path class="cls-1" d="M53.16,40.22c-.11-.03-.17-.14-.17-.2l.17.2Z"/>
        <path class="cls-1" d="M52.63,40.54c-.1.02-.15,0-.13-.05.06,0,.08.03.13.05Z"/>
        <path class="cls-1" d="M52.87,40.61s-.07.04-.13.04c.09.02-.04-.09.13-.04Z"/>
        <path class="cls-1" d="M52.4,41.44s.09.08-.04.08c.09,0-.12-.13.04-.08Z"/>
        <path class="cls-1" d="M52.49,41.87s-.03.01,0,.03c-.05.02-.13-.02-.14-.04h.14Z"/>
        <polygon class="cls-1" points="52.6 49.42 52.54 49.38 52.65 49.38 52.6 49.42"/>
        <path class="cls-1" d="M53.09,52.7c.08.03-.09.05-.11.06-.02-.04.14-.02.11-.06Z"/>
        <polygon class="cls-1" points="54.09 54.26 54.09 54.25 54.3 54.18 54.09 54.26"/>
      </g>
    </g>
  </g>
</svg>