<?xml version="1.0" encoding="UTF-8"?>
<svg id="Layer_3" data-name="Layer 3" xmlns="http://www.w3.org/2000/svg" viewBox="0 0 95 95">
  <defs>
    <style>
      .cls-1 {
        fill: #202020;
      }
    </style>
  </defs>
  <g>
    <g>
      <path class="cls-1" d="M88.21,48.11c-.09-.94-.54.5-.2-.61.23.13.4.31.2.61Z"/>
      <path class="cls-1" d="M87.75,44.41c-.21-.36-.36-.73-.51-1.12-.16-.38-.29-.78-.4-1.18-.21-.81-.32-1.66-.42-2.53-.16-.85-.34-1.72-.57-2.56-.12-.42-.25-.83-.4-1.22-.17-.39-.41-.74-.66-1.08-.19-.33.82-.18.34-.92-.27-.32-.53-.67-.77-1.05-.23-.38-.45-.79-.72-1.2-.49-.83-.93-1.75-1.32-2.72-.93-1.87-1.69-3.97-2.55-5.77l.33.05c-.33-.69-1.43-.98-1.89-1.6.11-.11.34.04.38-.23-.49.16-1.12-.91-1.6-.92-.07-.35.22-.59.1-1.03l-.69.04c-.85-.04-1.42-.51-1.93-1.13-.53-.6-1.03-1.35-1.9-1.62.14-.05.34-.02.31-.2-.67-.26-1.32-.57-1.97-.94-.66-.35-1.28-.79-1.98-1.12-1.37-.71-2.7-1.56-4.13-2.01.19-.12.45-.38.38-.65-.39.44-1.27.17-2.03-.07-.08-.73-1.46,0-2.2-.63l.12-.09c-.85.34-.84-.68-1.59-.18l-.27-.59c-.52.7-.84-.66-1.51-.4l-.03.17c-.57.06-.73-.41-1.25-.4l-.02-.1c-1.16-.11-1.75-.61-1.84.02-.31-.56,1.15-.06.67-.89-3.93-.08-7.82-.34-11.68-.02-.46-.2-.75-.23-.88-.46-.37.19-1.44.34-1.73.71.13-.03-.3-.28-.51-.29-.75-.12-.63.78-1.43.7.26-.24.32-.47.17-.68-.54.65-1.41.8-2.12,1.15.09-.13.25-.24.17-.43-.67.76-1.56.24-2.15.88l.15-.45c-1.29,0-.09.86-1.15.96.19-.2.06-.3.06-.46-.35.48-.9.81-1.47,1.08-.58.25-1.12.58-1.52.87.03-.07-.03-.16-.03-.16-.46.27-.95.47-1.45.7-.5.22-1,.5-1.41.94-.44.07-.33-.86-1.22-.15.42.62-1.46,1.24-.45,1.61-.22.09-.47.2-.73.31-.25.13-.5.28-.75.43-.49.3-.92.61-1.09.9.17-.48-.92-.44-.32-.97h-.76c-.11-.29.57-.29.18-.48-.31.28-1.09,1.19-1.43,1.35-.27.86-.2,1.95-1,2.8.21-.58-.8-.38-.61-.73-.09.72-.17,1.42-.17,2.17-.23.31-.48-.34-.72.21.16.11.09.38.09.61-.16.05-.93,1.3-1.61.96-.34-.06.31-.57-.18-.42-.49.54-.27.76-.71,1.34l-.09-.05c-.38.32-.6,1.32.04,1.14.22-.25-.43-.16.04-.43.14.53-.26,1.25-.68,1.82.05-.26-.13-.35-.24-.54-.12,1.09-.41,2.09-.77,3.09.29.19-.34-.66-.1-.7-.55.46-.81,1.14-.98,1.81-.17.67-.34,1.3-.9,1.66.02-.19.49.12.4.09-.32.56-.77.33-.78.79-.29-.08-.17.51-.21.97.12.29-.17.05-.07-.32.01.34-.08,1.12-.29,1.95-.22.83-.54,1.72-.89,2.35.19.03.48,1.02.38,1.32l-.41-.23c-.34.22-.23,1.05-.63,1.02.37.8.21-2.69.39-1.68-.43.14.38,1.44-.17,1.09-.14.64.18,1.34-.31,1.87.1-.16-.54-.64-.59-.11-.06.94.17.3.21,1.07l.11.49c.44.09-.18.8.36.53-.38.07.01,1.33-.69,1.17l-.57-.19c.01.41.57.72.81,1.05-.06.05-.18.14-.27.12.88.12-.12.95.54,1.45-.17.41-.21.93-.27,1.4-.01.47-.06.89-.33,1.09.3.64.65,1.19.5,1.93-.09-.14-.13-.33-.32-.36-.24.48,0,.58.16.98-.17-.08-.39.96-.63,1.52.36.6.8.31,1.1.33-.76.72.77,1.67.2,2.52-.19-.18-.63-.82-.74-.25-.71.77.93,1.01.75,2.02l.65-.41c-.33.52.74,1.21,0,1.32.3.23.11,1.12.75.81-.02.81.39,1.66.68,2.46.27.81.62,1.51.22,2.22.2.15.34.7.61.44.2-.5-.48-.34-.29-.58.11.17.3.12.4.1.06.5.18.87-.55.72.09,1.17,1.51.47,1.97,1.73-.29.09-.33.24-.08.55l.82.38c.35.8-.31.78-.72,1.07.32.36.6.88,1.05.82l-.17.82c.12-.6.48.14.71.24l-.23-.11c-.12.19.32.56.53.74.21-.24-.03-.76-.14-1.05.32.06.5.39.9.49-.45.21.18.82.36,1.15.17.41.65.08.71.19-.19.17.43.54-.06.52-.16-.06-.04-.4-.37-.44.04.33-.31.59.33.82.48.17.65-.72.98.1-.24-.08-.41.02-.65.01l.34.75.35-.28c-.01.15-.09.13-.1.2.5-.15.91.79,1.4.55.31.24.39.77.63,1.06l-.08-.02c.16.5.73.79,1.21.82l-.08.06c.16.19.64.55,1.04.54.29.63-.89,1.43.03,1.42.54.38,1.31-.04,1.27-.42.37.46.92.74,1.43,1.06.54.27,1.05.56,1.32,1.13.23-.07.21-.22.55-.13.67.52,1.48.87,2.27,1.16.78.32,1.46.7,1.89,1.4-.52-.04-.21.39-.3.63.52-.18.3.57.69,0,.12-.39.22-.54-.15-.88,1.01.16,2.42.66,2.82,1.22-.2-.27.04-.32.28-.35-.27.59.4.95,1.01.84l.19-.36.24.48c.24-.07.44-.73.88-.23,0,.15-.02.31.06.44.65-.19,1.52-.45,2.07-.06l.4.64c.28-.02.78-.29.34-.53.99.5,1.67.65,1.95,1.19,1.98-1.03,4.54-.92,6.65-1.03l-.04.3c.59.25.26-.53.67-.34-.16.29.49.58.06.95.86.29,1.01-.6,1.51-.8.03-.39-.39.31-.35-.19.07-.15,1.15.13,1.19-.47.23.2.14.64.07.89l.45-.35c.73.58-1.21,1.41-.45,2.14l.47-.16c.56.53-1.18.88.07.9.49-.37.79-1.26.29-1.45,1.04-.33.25-1.41,1.36-1.59.18.13-.03.21-.25.3-.23.07-.46.16-.31.38.63.41,1-.5,1.49-.44-.56-.08-.26-.77.04-.95.62.12-.23.63.57.48.05-.36.69-.78.02-.85.08-.8.86,0,1.11-.67.41.45-.45,1.39.49,1.43-.27-.43.83-1.02.15-1.59.36.02.53.4.39.78.57.13.81-1.3,1.31-.39l-.02-.55c.2.11.46.15.8.33.21-.07.47-.36.72-.53.24-.19.45-.28.59.09.09-.14,1.01-.54.43-.87-.69-.04-.47.68-1.08.14.63.37.76-.46.99-.79l.18.25c.14-.2.6-.35.57-.7-.06.23.1.38.29.37v-.51c.64-.57.55.65,1.23.16-.12.21-.26.4-.4.6.08-.14.57.16.84-.2-.07-.46-.08-1.06-.13-1.41.3-.4.42.31.59-.31l-.25.76c0,.17.7.4,1.25.05.28-.34.47-1.18-.19-1.05.26-.17.78-.18.74.22.53-.49-.33-.34.05-.87.37.11,1.21-.04,1.85,0l-.11.98.36-.26c-.13.81.49.18.58.86.3-.11.48-.5.63-.8-1.29-.24-.01-1.64-.77-2.18.78-.87,1.95,1.19,1.99-.68-.3-.04-.32-.93-.7-.24.6-.42-.23-.99.64-1.29-.22.69,1.12.19.79,1.2-.15-.26-.54.19-.59.35.45.04.54.71,1.12.18.29-.38.76-.83.37-1.09-.37-.35-.49.52-.62-.05.57-.73,1.21-.32.82-1.23-.33.48-.81.21-1.05-.05.12-.19.2-.42.3-.62l.16.33c.88-.62-.23-.65.51-1.34l.82.09c.26.56-1.19.93-.39,1.44.49-.48.29-.96.89-1.27-.04.16-.15.32-.18.48.18-.15,1.28.47,1.4-.73.1-.57-.17-.31-.43-.54.57-.94.48-1.41.85-2,.46.52.79-.95.9.08-.54.06-1.44,1.32-1.17,2.05.43.09.28.25.08.47-.22.21-.5.47-.27.82.63-.65,1.2-.12,1.69.09.18-.19.16-.52.19-.7-.32-.39-.51-.12-.92-.42.71-.73,1.08-1.67,1.01-2.38.4-.13.74.23.54.58.32-.51.61-1.06.94-1.58.33-.52.69-1.01,1.06-1.46-1.07.23.49-1.18-.35-1.07-.46.44-1.22.58-1.37.13.24-.29.3.18.53.14-.13-.6.99-.3.58-1.04-.23,1.08.77.65,1.24,1.12.03-.88.38.24.72-.48.04-.88.21-1.88.47-2.72.94-.81.97-2.63,1.29-3.54.43-.41,1.02.14,1.28-.38.15-.65-.86.27-.3-.6l.11.13c-.09-.33.92-1.66,0-2.16l.67.46c.11-.16-.01-.37-.06-.54.24.05.52-.12.6.21.71-.49.14-1.31.24-1.97l-.51.35c-.19-1.18.4-1.87.37-2.99l.44.08-.23-.68c.42.2.73-.39.39-.77.33.6.68,1.21.98,1.84-.32.46-.47-.59-.94-.32-.4.22-.45,1.24-.05,1.47.11-.39.02-.42-.1-.74.63-.06.52.54.88.9,0-.21.24-.49.05-.56.24.45.22.88.13,1.58-.17-.51-.42.19-.56-.01.53.14.59.84.31,1.67-.77.46-.01,1.67-.43,2.62-.43-.54-.73-1.15-.8-1.78-.42.53-.16.67-.58,1.2.32.39.88.77.91,1.64l-.4-.08c-.02.77.52.95.09,1.82-.38.74-.71,1.5-1.01,2.22-.36.69-.7,1.34-.99,1.9l-.38-.13c.24.5.06,1.06-.19,1.62-.25.56-.65,1.06-.72,1.57-.58.58-.95,1.37-1.3,2.06-.39.66-.8,1.21-1.32,1.33-.36.61-.71,1.2-1.05,1.78-.38.56-.79,1.08-1.2,1.61-.41.53-.84,1.05-1.3,1.57-.49.48-1.03.95-1.59,1.41l-.04-.76c-.09.67-.48-.02-.79.38.75-.04-.11.93-.16,1.45-1.28.5-2.34,1.84-3.04,2.9l-.27-.31c-.56,1.29-2.16,1.44-3.46,2.1-.22-.05-.64-.28-1.01-.05-.41.93-.81,1.07-1.7,1.95-.76.42-2.15.71-3.05.78-.68.47-1.39.94-2.16,1.22-.77.29-1.56.52-2.36.75l-1.21.33-1.23.23c-.82.16-1.65.36-2.47.62l-.29-.44c-.78.33-1.65.49-2.53.6-.88.09-1.79.21-2.68.1-1.78-.16-3.48-.23-4.91-.26l.37-.77c-.82-.38-1.99-.09-1.87.52-.42-.19-.98-.17-1.5-.22-.51-.08-.97-.2-1.16-.6-.84-.37-1.16.09-1.93,0-.85-.35-1.41-.63-1.99-.85-.57-.21-1.15-.36-1.99-.59l.38.19c.24-.1.38-.42,0-.62-.34,0-.87-.24-1.28-.38-.4-.15-.7-.14-.6.44-.72-.66-1.73-1.01-2.73-1.4-1-.38-1.92-.94-2.5-1.71,0,.31-.42.11-.68.17-.35-.21-.68-.45-1.01-.7-.3-.28-.6-.56-.89-.83-.59-.53-1.17-1-1.83-1.21-.12-.26.61-.11.1-.52-.37-.16-.23.27-.7.09-1.14-.69-2.05-1.69-2.88-2.69-.78-1.06-1.44-2.16-2.29-2.99-3.1-2.93-5.26-6.9-6.95-10.58l.2-.04c-1.22-.99-.39-3.24-1.84-3.89.06-.36-.24-1.22.18-1.09-.39-.45-.46-1.22-.56-2.04-.05-.41-.11-.83-.21-1.23-.09-.41-.2-.81-.43-1.16,0,.15.06.22.16.37.09-.82-.06-1.54-.22-2.27-.08-.37-.16-.74-.21-1.12-.04-.39,0-.79.06-1.21.09.16.17.46.37.49.34-.65-.9-1.45.02-1.85-.03-.36-.49-.24-.45-.02.02-1.81.13-3.66.08-5.56v-.71s.04-.71.04-.71l.09-1.43.1-1.44.06-.72.13-.7c1.22-2.5,1.58.22,1.43-2.01.22-.12-.32-.22-.12-.19-.02-.43.31-.67.6-.88.32-.2.6-.37.46-.71-.63.04-.18-.46-.5-.59.93-1.42,1.48-1.53,1.58-2.88l.24.21c-.07-.85.19-1.63.43-2.39.24-.76.43-1.52.36-2.31.53-.93,1.06-1.85,1.58-2.76.56-.89,1.19-1.74,1.78-2.61.57-.89,1.25-1.69,1.93-2.49.69-.79,1.3-1.65,2.08-2.36l2.24-2.21c.79-.69,1.62-1.33,2.44-1.99.8-.69,1.69-1.25,2.58-1.81.9-.55,1.75-1.19,2.72-1.62.95-.44,1.9-.88,2.84-1.32.96-.4,1.95-.73,2.92-1.1.49-.17.97-.37,1.47-.53l1.51-.4c1.01-.25,2-.57,3.03-.75l3.09-.48.77-.11.78-.04,1.57-.06c2.09-.15,4.19.11,6.29.34,1.88,1.03,1.98,1.06,4.17,1.06-.11.11-.25.12-.13.26.24-.66,1.49.26,1.82-.29,1.49.46,2.97.75,4.38,1.3.72.25,1.43.49,2.16.74.74.24,1.42.62,2.16.95-.49-.16-.94.22-.38.44l.75-.1v.21c.42.09.98,0,.69-.37.47.2.95.37,1.4.61l1.33.75c.87.53,1.77,1.01,2.57,1.63.8.62,1.59,1.25,2.36,1.9.4.31.76.65,1.11,1.02l1.06,1.07c1.45,1.38,2.62,3.02,3.89,4.52l1.7,2.42c.28.4.59.79.86,1.2l.78,1.25c.35.88,1,1.81,1.53,2.82.54,1.01,1.14,2.03,1.64,2.92.36,1.48.64,2.94.96,4.34.2,1.44.4,2.84.64,4.22.12,1.41.27,2.8.49,4.21.09,1.42.23,2.86.45,4.35,0,0-1.73-.79-2.24-3.09Z"/>
      <path class="cls-1" d="M88.22,49.24c-.34.19-.55.82-.96.29.31-.05.67-.37.96-.29Z"/>
      <path class="cls-1" d="M80.79,64.56c.08.06-.22.15-.29.17.06-.19-.1-.48.12-.55-.06.19.09.23.17.38Z"/>
      <path class="cls-1" d="M78.56,68.01c-.21-.22.04-1.08.28-1.54l-.28,1.54Z"/>
      <path class="cls-1" d="M75.37,70.33c-.39.09-.43-.06-.17-.4.14.07.12.24.17.4Z"/>
      <path class="cls-1" d="M75.72,70.96c-.21.24-.44.24-.67.24.2.15.36-.63.67-.24Z"/>
      <path class="cls-1" d="M69.29,75.91c-.14.13-.33.58-.66.42.3.06.52-.85.66-.42Z"/>
      <path class="cls-1" d="M66.47,78.39c-.11.05-.18.03-.26.17-.26,0-.17-.3-.02-.42l.29.25Z"/>
      <polygon class="cls-1" points="11.12 56.29 11.36 56.66 11.07 56.67 11.12 56.29"/>
      <path class="cls-1" d="M16.34,26.69c.07-.46.39-.08.47-.12-.2.32-.23-.32-.47.12Z"/>
      <polygon class="cls-1" points="27.62 14.07 27.51 14.14 27.24 13.61 27.62 14.07"/>
    </g>
    <g>
      <path class="cls-1" d="M18.49,14.5c-.31-.13-.26.47-.3.01.2-.13.37-.21.3-.01Z"/>
      <path class="cls-1" d="M75.4,74.84c-1.79.33-1.58-1.68-3.03-1.8-.13-.05.63-.55.28-.62-1.59.05-2.22-1.64-2.44-3.2l.22-.11c-.04-.3-.82.03-.92-.24.11-.11.22-.09.33-.28-.39.28-.48-.19-.81-.03.06-.2.34-.45.4-.69l-.49.26c-1.21.58-.63-.79-1.49-.74.11-.07.22-.09.28-.21-1.19-.12-1.86-1.04-2.77-1.58.17-.1.44-.31.56-.5-.44.35-.76.23-1.03.11.34-.49-.71.03-.69-.42l.11-.07c-.6.25.01-.49-.65-.13l.23-.42c-.67.49.07-.54-.36-.39l-.12.12c-.27,0-.04-.35-.26-.38l.06-.08c-.43-.14-.26-.62-.72-.17.27-.45.43.12.82-.55-1.38-.49-2.22-1.56-3.13-2.51.08-.29.07-.41.23-.6-.18,0-.43-.28-.75-.14.04.02.18-.29.15-.36,0-.34-.69.3-.66-.09.2-.04.37-.16.52-.35-.52.18-.67-.09-.97-.17.11-.04.2-.04.34-.19-.61.18-.28-.47-.71-.4l.33-.19c.04-.61-.64.45-.7,0,.14-.02.23-.14.35-.23-.72.22-.92-.32-1.31-.4.05-.02.12-.09.12-.09-.31-.2-.42-.62-.9-.7.02-.22.69-.59.33-.77-.53.52-.67-.26-1.12.48-.14-.32-.29-.88-.62-.87.31-.09.55-.74.78-.59l.18-.46c.24-.19.07.22.3-.09-.11-.08-.6-.16-.6-.33-.5.13-1.28.55-1.62.32.34-.06.52-.64.7-.64l-1.42.57c-.12-.07.4-.43.13-.43-.14.14-.28.16-.44.23.03-.09-.52-.28-.03-.82.17-.24.26.05.35-.23-.18-.18-.37-.01-.55-.18l.07-.07c-.03-.19-.56-.14-.73.27.06.1.29-.33.25-.07-.39.21-.67.08-.85-.09.14-.02.28-.16.45-.28-.65.15-1.02.02-1.45-.08-.26.24.55-.33.46-.17.02-.68-1.18-.25-.94-1.02.09,0-.33.37-.27.29-.13-.2.24-.54,0-.52.2-.21-.2-.07-.37-.12-.21.09.08-.13.19-.05-.33.02-1.26-.3-1.29-.95-.14.14-.73.27-.79.17l.36-.28c.13-.26-.29-.25-.02-.53-.57.21.99.36.45.41.22-.33-.85.17-.35-.21-.17-.16-.7.04-.54-.42,0,.1.59-.3.44-.41-.28-.18-.22.08-.52,0h-.25c-.33.31-.16-.24-.44.19.24-.28-.49-.19.07-.67l.45-.37c-.13-.07-.6.25-.87.35.03-.05.09-.16.16-.22-.66.6-.18-.3-.79.06.02-.43-.5-.57-.19-1.05-.35.02-.73.09-.77-.23.1-.02.16.01.31-.11.08-.3-.12-.17-.33-.18.12-.07.15-.6.26-.94-.35.02-.64.41-.87.59.49-.76-.85-.07-.45-.81.14-.03.54-.06.57-.35.49-.75-.76.14-.68-.39l-.47.56c.22-.42-.64-.07-.08-.55-.27.1-.1-.45-.59.07.06-.81-1.18-.72-.49-1.84-.14.02-.19-.2-.42.08-.2.37.33-.06.17.16-.06-.04-.22.09-.29.15,0-.24-.05-.37.48-.66.06-.58-1.15.55-1.28,0,.23-.19.28-.29.15-.36l-.55.15c-.13-.31.36-.59.72-.94-.18-.06-.3-.23-.62-.03l.31-.58c-.23.42-.31.11-.46.14l.14-.03c.13-.17-.1-.22-.21-.24-.21.23-.16.46-.15.6-.22.09-.27-.04-.54.05.38-.31.06-.44.01-.57-.03-.18-.44.18-.45.13.18-.18-.14-.21.2-.37.09-.02-.1.26.12.16.07-.2.4-.5.02-.43-.28.05-.67.69-.65.27.14-.03.29-.15.46-.23v-.38s-.34.3-.34.3c.06-.1.1-.11.13-.17-.4.26-.4-.21-.82.11-.13-.07.02-.43-.04-.56h.05c.08-.31-.2-.35-.51-.24l.08-.06c-.04-.09-.23-.19-.5-.1.09-.4,1.17-1.21.59-1.01-.17-.16-.84.3-.98.56-.07-.51-.92-.35-.68-1.1-.17.08-.23.19-.39.17-.29-.56-1.27-.56-.96-1.52.26,0,.33-.3.51-.48-.39.17.18-.41-.35.02-.28.29-.43.41-.43.65-.41-.11-.78-.51-.65-.92-.07.2-.21.23-.35.26.48-.42.37-.68.07-.67l-.3.25.2-.37c-.14.03-.65.5-.52.1.1-.11.21-.23.26-.33-.38.07-.97.23-.89-.16l.29-.53c-.11-.03-.47.09-.48.33-.02-.52-.16-.73.12-1.16-1.33.35-2.03-.32-2.5-.94l.23-.19c.06-.34-.45.27-.4.03.25-.14.33-.53.69-.65.02-.43-.63.07-.86.02-.3.24.29-.06-.09.25-.12.07-.07-.5-.52-.14.11-.21.46-.46.66-.6l-.33.06c.34-.63,1.23-.47,1.68-1.22l-.18-.06c.33-.54.8-.15.67-.6-.33.07-1.05.53-1.13.83-.38-.16-1.13.83-1.37.5.17-.32.28.18.58-.21.21-.46-.46-.1-.45-.34-.03.29-.57.58-.73.56.06-.34.49-.28.33-.54-.28.2-.65.17-.65.5-.62.45-.06-.37-.6-.08.32-.44,1.11-.63,1.08-1.05-.34.39-.78.19-1.22.85.02-.19.31-.48.6-.64.1-.35-.99.33-.28-.42l-.43.32c.09-.16.12-.31.27-.57-.1-.12-.87.12-.28-.42-.09.02-.32-.27-.62.21-.09.4.47-.09.02.52.33-.53-.28-.18-.52-.14l.21-.23c-.14.03-.22-.15-.49.04.17-.08.3-.25.31-.34l-.4.26c-.39-.07.55-.62.23-.75l.42-.08c-.09.02.15-.36-.05-.37-.35.25-.8.53-1.07.72-.26,0,.3-.39-.14-.21l.53-.19c.13-.07.41-.6.24-.76-.21,0-.82.25-.82.58-.08-.08,0-.38.28-.53-.29-.09-.31.34-.66.36.14-.26.24-.75.42-1.17l.68-.32-.1-.12c.56-.25.25-.38.76-.71,0-.14-.24-.1-.43-.06-.48.9-1.2.66-1.78,1.33-.47-.15,1.37-1.68.06-1.05-.12.21-.75.52-.38.54-.11-.26-.77.48-.72,0,.43-.08.48-.8,1.09-.92-.23.19-.03.29.07.27.17-.31.66-.6.47-.79-.18-.06-.35-.22-.66.12-.36.35.22.15-.23.42-.36-.12.16-.69-.58-.17.2.11-.15.5-.4.74l-.32-.03.28-.2c-.1-.45-.52.34-.72,0l.36-.59c.48-.33.2.58.83-.11-.14-.21-.54.06-.53-.28.09-.02.16.02.25,0-.04-.09.79-1,.03-.76-.33.06-.27.19-.53.43-.35-.22-.69-.06-.91-.21.53-.43-.26-.37.43-.65-.2.37.23.76.79.41.48-.66.13.3.78-.2-.21-.24.38-.78.72-1.18-.03-.09-.25,0-.35.02-.38.31-.3.39-.66.74-.15-.35-.58-.41-1.06-.22.09-.25.47-.56.6-.49-.4-.21-.66-.58-.83-.98-.4.74-.45-.2-.8.39.02.28-.27.81-.61.97-.06-.13.26-.24.34-.4-.43.18.32-.68-.29-.32.45.1.76-.62,1.26-1-.45.04.33-.3.14-.5-.44.04-.88-.02-1.19-.15.16-.69-.67-.72-.93-.96.1-.35.7-.75.65-.97-.17-.16-.44.65-.44.18l.12-.07c-.19.04-.08-.79-.89-.16l.63-.45c0-.09-.16-.02-.26,0,.18-.17.29-.38.48-.42.24-.52-.37-.26-.54-.42l-.23.42c-.53-.04-.38-.54-.76-.71l.33-.3-.35.02c.35-.26.41-.6.06-.44l1.19-.32c-.08.3-.51.24-.76.62-.22.33.11.5.46.25-.06-.13-.13-.07-.32-.03.42-.46.54-.29.91-.5-.07-.03,0-.24-.15-.11.31-.11.44-.04.61.12-.28.05-.22.32-.39.4.41-.36.68-.32.77,0-.31.58.66.11.76.47-.49.28-.93.46-1.23.47-.06.34.17.16.11.5.37-.21.87-.59,1.24-.57l-.28.29c.32.04.75-.38.89-.07.22.53.6.92.85,1.26l-.28.29c.78-.43.75.33,1.24.28.08.65,1.06.55.74,1.23.86.45,1.63.82,2.18,1.62l-.54.29c.43-.18-.17.31,0,.38.21-.46.6-.25.95-.42-.04.62.7.67,1.26.66l-.28.29c.81-.25.64.54.88.97-.08.16-.3.48-.17.55.65-.27.71-.14,1.27-.15.19.2.38.63.39,1.01,1.38.11,1.68,1.29,2.82,1.68l-.29.38c1.46.05,1.67,1.62,2.66,1.9l-.65.5c.01.37.59.31.96-.14.01.37.77.23.4.82.09.31.51,0,.76.09.17.63.37.73.85,1.02l-.05-.13c-.17.08-.43.32-.37.45.3,0,.35.69.92-.13-.01.81,1.26.66,1.09,1.59.16-.22.29-.15.47-.23.36.36.33,1.12.93,1.1-.04.15-.42.22-.29.39.16.02.25-.24.46-.23.92.25.77,1.55,1.38,2,1.28.61,2.05,1.78,2.98,2.64l-.15.12c.83-.21.13,1.25,1.18.72-.07.2.2.34-.12.54.62-.12.29,1.03,1.11.92-.02-.05-.06-.04-.16-.02.03.65.76.56.83,1.21-.1.02-.21,0-.36.12-.13.4.93-.22.32.51.09.08.4-.27.33-.3.52,1.08,1.8,1.55,2.77,2.26.18,1-1.11,1.13-.14,1.13-.09.16.29-.22.15-.08.37,0-.48,1.02,0,.81.37-.45.32-.14.58-.37.09.64-.22,1.07.38,1.07l-.24.19c.95-.24,1,.48,2,.09,1.96,1.8,4.11,3.26,5.97,5.06,1.62,1.98,3.67,3.49,5.08,5.73-.16.99-.11,1.01.58,1.27-.11.07-.16.06-.22.18.5-.43.37.3.87-.09.57.78,1.31,1.3,2,2.01-.16-.06-.6.25-.44.35l.44-.15-.11.15c.16.03.49-.1.55-.34,2.12,1.41,2.85,4.08,4.64,5.73.2.61.95,1.03,1.48,1.39.65,1.95,1.29,3.65,3.03,4.6,0,0-1.4.99-2.22.69Z"/>
      <path class="cls-1" d="M18.79,14.73c-.19.27-.17.55-.61.73.21-.23.38-.55.61-.73Z"/>
      <path class="cls-1" d="M20.32,21.24c.08-.06-.04.15-.07.2-.07-.04-.31.11-.23-.05.07.03.17-.08.29-.15Z"/>
      <path class="cls-1" d="M21.2,22.44c-.23.19-.61.12-.77,0h.77Z"/>
      <path class="cls-1" d="M21.27,24.27c-.1.26-.22.33-.32.2.1-.12.2-.13.32-.2Z"/>
      <path class="cls-1" d="M21.82,23.88c.08.08,0,.24-.08.39.18-.18-.3-.08.08-.39Z"/>
      <path class="cls-1" d="M23.26,26.63c.07.04.35-.02.16.25.11-.21-.51,0-.16-.25Z"/>
      <path class="cls-1" d="M24.54,27.33s0,.1.09.08c-.04.15-.25.24-.32.2l.24-.28Z"/>
      <polygon class="cls-1" points="42.78 44.82 42.58 44.81 42.8 44.62 42.78 44.82"/>
      <path class="cls-1" d="M50.42,52.82c.24-.02-.13.26-.14.31-.11-.08.3-.21.14-.31Z"/>
      <polygon class="cls-1" points="55.59 56.14 55.55 56.12 55.99 55.72 55.59 56.14"/>
    </g>
  </g>
  <g>
    <g>
      <g>
        <path class="cls-1" d="M30.35,44.53c.04-.17-.25-.09-.03-.16.08.09.13.17.03.16Z"/>
        <path class="cls-1" d="M30.03,44.76c.91-.06.71.96,1.44,1.12.07.03-.35.23-.18.29.84.08.99,1.06.94,1.85l-.12.03c0,.15.41.08.43.23-.07.04-.12.02-.2.1.22-.09.22.15.4.11-.05.09-.22.18-.27.29l.27-.06c.68-.13.22.47.63.58-.06.02-.12.01-.16.06.54.25.73.83,1.08,1.26-.1.02-.27.06-.35.13.27-.08.42.04.51.16-.25.16.32.15.22.36h-.07c.33.03-.11.24.26.22l-.2.15c.41-.07-.15.24.08.27l.08-.03c.12.07-.06.17.03.24l-.04.02c.17.18-.02.35.29.27-.23.13-.17-.17-.5.03.28.28.39.62.46.97.08.35.11.7.16,1.05-.11.09-.16.14-.28.16.06.07.05.25.21.32,0-.02-.16.05-.18.08-.12.12.35.14.2.28-.08-.06-.19-.08-.31-.06.25.12.2.28.28.43-.05-.03-.08-.06-.18-.06.28.17-.07.27.11.42l-.18-.07c-.23.19.38.11.22.28-.05-.05-.12-.05-.2-.06.3.21.13.48.21.68-.02-.02-.07-.02-.07-.02,0,.2-.14.37-.04.62-.1.05-.41-.14-.42.06.36.1.02.37.46.39-.12.15-.35.36-.28.52-.1-.13-.45-.1-.43-.24h-.24c-.13-.06.08-.07-.1-.11,0,.07.05.31-.02.34.17.21.47.5.4.72-.08-.16-.39-.14-.41-.23.16.2.32.4.47.61-.02.07-.26-.14-.23,0,.09.05.11.12.17.19-.05,0-.08.33-.4.15-.14-.05,0-.15-.15-.15-.07.11.02.18-.05.3l-.04-.03c-.1.04-.04.3.19.34.05-.04-.19-.11-.05-.12.13.18.08.34,0,.46-.02-.08-.1-.13-.17-.21.11.32.06.55,0,.79.13.12-.18-.27-.09-.23-.36.03-.15.64-.56.56,0-.05.19.16.15.13-.11.08-.28-.11-.27.02-.11-.1-.04.11-.08.2.04.11-.07-.04-.02-.1,0,.17-.25.67-.6.68.07.08.08.4.01.42l-.11-.2c-.13-.08-.17.14-.29,0,.05.31.3-.5.27-.22-.15-.13,0,.44-.15.17-.09.08-.06.37-.33.29.06,0-.06-.34-.15-.26-.17.16,0,.13-.12.3l-.07.15c.08.21-.2.08-.03.27-.09-.16-.3.29-.38-.08l-.05-.3c-.07.07-.06.38-.1.55-.02-.02-.06-.07-.06-.12.07.46-.23.07-.3.49-.11-.03-.24.03-.36.06-.12-.08-.23-.16-.27-.34-.16.07-.34.17-.5-.03.05-.02.1,0,.13-.1-.08-.19-.13-.09-.25-.07.04-.05-.14-.38-.18-.58-.18.05-.24.29-.32.42.02-.24-.11-.24-.25-.24-.14,0-.32-.03-.26-.23.06-.03.3-.05.26-.22.15-.43-.38.13-.42-.15l-.18.32c.06-.22-.35-.01-.11-.29-.13.06-.1-.24-.31.05-.05-.43-.73-.38-.42-.98-.07.01-.11-.11-.22.03-.09.19.17-.03.1.09-.04-.02-.11.04-.15.07-.01-.13-.05-.2.23-.34.01-.3-.59.26-.69-.04.12-.09.14-.14.07-.19l-.29.04c-.07-.19.19-.3.38-.46-.09-.05-.15-.15-.32-.06l.18-.28c-.13.2-.17.03-.24.03h.08c.07-.08-.05-.13-.1-.15-.12.1-.1.23-.1.3-.12.03-.14-.05-.29-.03.21-.13.04-.23.02-.3-.01-.1-.24.04-.25.01.1-.07-.06-.14.13-.18.05,0-.07.13.05.11.05-.1.24-.22.04-.23-.15-.01-.39.28-.35.05.08,0,.16-.04.25-.05l.03-.21-.19.11s.06-.05.08-.07c-.22.08-.19-.18-.43-.08-.06-.06.05-.23.03-.31h.02c.07-.14-.07-.21-.25-.22l.05-.02c-.02-.05-.09-.15-.24-.16.1-.2.75-.39.44-.41-.05-.12-.45-.04-.56.07.05-.28-.39-.43-.15-.76-.1,0-.14.03-.22-.02-.02-.37-.43-.71-.06-1.08.11.09.22-.03.34-.06-.21-.05.18-.13-.16-.11-.2.04-.3.05-.35.17-.14-.2-.22-.54-.04-.67-.09.07-.15.03-.22-.01.32-.02.36-.18.25-.29h-.2s.2-.1.2-.1c-.06-.04-.41-.03-.23-.16.08-.01.15-.02.21-.05-.16-.11-.44-.29-.28-.43l.28-.11c-.03-.06-.21-.16-.29-.06.17-.23.19-.38.43-.44-.56-.41-.5-1.02-.39-1.47l.14.04c.15-.1-.24-.11-.13-.18.13.06.31-.04.47.09.18-.14-.22-.27-.26-.4-.19-.06.11.12-.13.04-.07-.04.19-.21-.08-.3.12-.02.32.06.43.11l-.11-.13c.37-.04.51.41.96.38l-.02-.1c.32-.01.27.3.43.11-.11-.12-.5-.3-.65-.25-.02-.22-.65-.26-.56-.48.18-.02-.01.19.23.21.26-.05-.06-.24.04-.31-.14.07-.39-.09-.42-.17.17-.08.24.15.32,0-.15-.07-.23-.26-.38-.16-.35-.17.15-.14-.1-.32.27.03.54.35.72.21-.26-.05-.27-.32-.66-.35.09-.05.29,0,.42.11.18-.05-.37-.39.12-.26l-.24-.12c.09,0,.17-.03.32-.03.03-.08-.25-.41.12-.26-.04-.05.07-.22-.22-.25-.21.06.13.21-.24.15.31.01.03-.19-.04-.3l.15.04c-.04-.06.04-.14-.11-.23.07.06.17.09.22.07l-.2-.13c-.03-.21.4.12.41-.07l.11.19s.2-.01.17-.11c-.18-.11-.4-.27-.54-.36-.04-.13.24.05.08-.12l.18.22c.06.04.36.06.41-.06-.03-.1-.26-.35-.42-.28.03-.06.18-.09.3.02,0-.17-.22-.08-.28-.25.15,0,.41-.06.63-.06l.27.27.04-.08c.21.22.22.04.47.23.07-.03,0-.14-.04-.23-.51-.05-.51-.47-.93-.62,0-.28,1.02.35.51-.2-.12-.01-.37-.28-.32-.08.11-.11-.35-.3-.11-.38.09.2.47.09.6.38-.12-.08-.14.04-.12.09.18.02.39.22.45.08,0-.1.07-.21-.15-.3-.22-.12-.05.13-.24-.04.02-.2.37-.04.02-.32-.03.12-.27.02-.43-.07l-.02-.17.13.1c.22-.13-.23-.2-.08-.37l.34.08c.22.18-.27.2.16.4.09-.11-.1-.26.08-.31.02.04,0,.08.03.13.04-.04.6.23.39-.12-.07-.16-.13-.11-.28-.2.07-.22-.05-.36,0-.5.28.2.16-.2.37.12-.21-.04-.36.24-.12.47.39.14-.14.12.19.36.1-.14.44.06.67.17.04-.03-.03-.12-.05-.17-.2-.14-.23-.09-.45-.21.16-.13.13-.36-.01-.57.14,0,.33.15.31.23.06-.23.21-.43.39-.57-.41-.1.05-.26-.28-.36-.14.05-.43-.02-.54-.17.06-.05.15.1.23.12-.13-.2.37.07.13-.2,0,.25.38.3.63.51-.07-.23.18.13.26,0-.07-.23-.08-.45-.03-.62.37,0,.32-.42.42-.57.19.02.43.27.55.23.07-.1-.36-.15-.12-.2l.05.06c-.03-.09.39-.12.02-.47l.27.27s0-.08-.02-.13c.1.07.21.11.25.2.28.07.1-.21.17-.31l-.23-.08c-.02-.27.24-.25.3-.46l.17.14-.03-.18c.15.16.32.16.22,0l.24.58c-.15-.01-.16-.24-.36-.33-.18-.08-.24.1-.09.26.06-.04.03-.07,0-.17.26.17.18.25.32.42.01-.04.12-.02.04-.09.08.15.05.22-.01.32-.05-.14-.18-.08-.23-.16.21.17.21.31.06.38-.31-.1,0,.34-.17.42-.18-.22-.31-.42-.33-.57-.18,0-.07.1-.24.1.13.16.37.38.38.56l-.17-.11c0,.16.25.34.11.43-.24.16-.42.38-.56.54l-.17-.11c.3.34-.07.42.01.66-.3.12-.13.59-.5.52-.11.48-.19.89-.49,1.27l-.23-.21c.15.18-.17-.03-.17.07.25.02.22.25.36.38-.29.09-.18.45-.07.7l-.19-.08c.27.33-.13.39-.28.58-.09,0-.28-.04-.29.03.25.24.2.29.32.53-.05.12-.18.3-.34.39.31.62-.16,1.01.01,1.56h-.24c.45.55-.13,1.05.12,1.47l-.41-.06c-.12.12.12.29.4.26-.12.12.21.3-.13.39-.07.13.19.15.25.24-.16.26-.11.35.02.56v-.06c-.08-.01-.25.01-.27.07.13.07-.04.34.42.16-.21.3.3.5.03.81.12-.06.17-.01.26-.02.08.18-.09.49.17.56-.05.06-.22.04-.21.13.06.03.16-.07.25-.04.36.18.11.71.32.97.27.16.48.35.65.58.19.21.38.42.58.6l-.07.07c.38-.15.09.57.56.24-.03.1.1.14-.04.27.14-.05.18.05.24.16.03.05.07.11.11.13.02.01.06,0,.11-.06,0-.01-.01,0-.04.04-.03.24.14,0,.15.23-.02.04-.04.06-.07.16,0,.22.15-.39.1.12.02,0,.04-.25.03-.24.03.05.06.09.09.11.08-.02.16-.12.21-.22.07-.11.03-.18.14-.31.47.01.49.63.52.17.07.06-.1-.15-.03-.08,0-.18.47.29.38.05-.21-.2-.06-.16-.17-.3.3,0,.52.16.51-.13l.09.12c-.14-.47.2-.49-.04-.95.7-.91.91-1.95,1.1-2.9.07-.24.12-.48.17-.72v-.76c.06-.5-.1-1.03-.02-1.6.37-.34.34-.37.09-.62.07,0,.09.01.14-.02-.32.07-.09-.2-.4-.14-.08-.43-.24-.78-.41-1.2.06.05.33,0,.27-.08h-.23s.08-.05.08-.05c-.07-.04-.25-.03-.32.06-.37-.46-.52-1.01-.64-1.58-.19-.56-.38-1.13-.72-1.61-.04-.31-.32-.6-.58-.8-.19-.98-.42-1.88-1.23-2.44,0,0,.73-.44,1.12-.24Z"/>
        <path class="cls-1" d="M30.27,44.7c-.15-.08-.28-.04-.4-.25.13.09.3.15.4.25Z"/>
        <path class="cls-1" d="M27.1,46.15s-.08,0-.11,0c.01-.04-.09-.15,0-.13,0,.04.06.08.11.13Z"/>
        <path class="cls-1" d="M26.6,46.78c-.12-.09-.13-.3-.09-.4l.09.4Z"/>
        <path class="cls-1" d="M25.69,47.12c-.14,0-.19-.05-.14-.13.07.03.09.08.14.13Z"/>
        <path class="cls-1" d="M25.95,47.34c-.03.06-.12.04-.21.02.11.06,0-.17.21-.02Z"/>
        <path class="cls-1" d="M24.78,48.61s.07.18-.1.14c.12.01-.08-.26.1-.14Z"/>
        <path class="cls-1" d="M24.65,49.42s-.05.02-.02.06c-.08.02-.16-.07-.15-.11l.18.05Z"/>
        <polygon class="cls-1" points="27.94 62.78 27.82 62.78 27.92 62.68 27.94 62.78"/>
        <path class="cls-1" d="M34.04,60.89c-.02-.13.14.04.17.04-.04.07-.12-.14-.17-.04Z"/>
        <polygon class="cls-1" points="35 57.59 35 57.61 34.72 57.51 35 57.59"/>
      </g>
      <g>
        <path class="cls-1" d="M50.19,64.52c.09-.15-.23-.15.01-.15.06.1.09.19-.01.15Z"/>
        <path class="cls-1" d="M49.74,63.43c-.89.29-.97-.73-1.71-.68-.07-.01.26-.33.08-.34-.77.13-1.3-.58-1.65-1.33l.1-.08c-.07-.14-.4.11-.49,0,.04-.07.09-.07.12-.18-.15.19-.27-.03-.4.09,0-.11.09-.27.08-.4l-.2.19c-.49.44-.43-.31-.86-.13.04-.05.09-.08.1-.15-.61.15-1.1-.16-1.63-.24.05-.08.14-.23.15-.34-.13.25-.3.25-.45.25.04-.29-.32.18-.42-.02l.03-.06c-.21.25-.12-.22-.32.1v-.24c-.17.38-.11-.25-.26-.08l-.02.08c-.12.07-.11-.14-.21-.1v-.05c-.22.05-.27-.21-.35.1,0-.27.22-.06.2-.45-.36.04-.71.06-1.05.05-.34-.02-.67-.08-1.01-.13-.07-.14-.12-.17-.13-.3-.07.07-.26.07-.33.23.02,0-.04-.16-.08-.18-.13-.12-.13.36-.27.22.05-.09.07-.19.05-.31-.11.25-.27.22-.4.3.02-.05.05-.09.04-.19-.13.29-.28-.05-.4.13l.03-.19c-.24-.22-.02.39-.21.28.03-.07.01-.14,0-.21-.12.37-.4.31-.54.46,0-.03,0-.08,0-.08-.17.08-.38.01-.54.19-.09-.06-.1-.45-.27-.32.12.35-.26.26-.02.62-.17,0-.46-.04-.51.12.01-.16-.25-.39-.13-.47l-.19-.17c-.04-.15.13,0,.02-.16-.07.04-.2.25-.29.22-.03.25.06.71-.09.84.02-.18-.24-.33-.22-.42.03.26.06.51.1.76-.05.05-.16-.25-.2-.11.06.08.05.15.07.24-.04-.02-.18.21-.41-.08-.11-.1.05-.12-.08-.19-.1.07-.03.18-.13.26l-.03-.04c-.1,0-.1.27.09.38.05-.02-.15-.16-.02-.13.08.21,0,.34-.08.41,0-.07-.07-.14-.12-.24.05.33-.03.49-.08.69.11.13-.17-.28-.08-.23-.33-.02-.1.57-.48.45,0-.04.19.16.15.13-.09.06-.27-.12-.25,0-.11-.1-.03.09-.05.18.06.1-.07-.03-.04-.09.02.17-.05.62-.37.66.08.06.2.33.16.37l-.17-.15c-.14-.04-.09.16-.25.05.16.26.07-.51.15-.25-.18-.08.17.39-.06.18-.06.1.1.32-.11.25.04,0-.23-.22-.26-.16-.03.12.08.08.09.19l.06.08c.21.09-.07.06.18.12-.18-.06.05.13-.31.02l-.28-.1c0,.05.27.15.39.21-.03,0-.1,0-.15-.02.47.09-.09.08.27.16-.1.02-.12.06-.16.1,0,.04-.02.07-.17.1.18.05.37.06.3.13-.05,0-.07-.01-.18,0-.11.07.02.06.11.07-.07,0-.21.15-.33.28.17.02.37-.11.51-.16-.19.11-.1.13,0,.12.1,0,.17-.03.05.15-.08,0-.25.02-.3.13-.3.33.38-.02.3.23l.27-.25c-.14.2.31.05,0,.26.14-.04.02.22.29-.02-.07.39.52.34.18.88.07-.02.09.09.21-.05.1-.18-.16.04-.08-.07.03.02.11-.05.14-.08,0,.11.03.18-.24.33-.02.29.55-.31.61-.05-.11.1-.13.16-.07.18l.26-.12c.07.13-.15.31-.31.5.09.02.16.08.3-.04l-.12.31c.08-.22.14-.08.21-.11l-.07.03c-.05.09.06.1.12.1.08-.13.05-.24.03-.3.1-.06.13,0,.25-.08-.16.19,0,.22.03.28.03.09.18-.13.2-.12-.07.11.08.07-.06.19-.04.02.02-.13-.07-.06-.01.1-.14.28.03.2.13-.07.25-.41.28-.22-.06.03-.12.11-.19.17l.04.17.12-.19c-.01.06-.03.07-.04.1.15-.18.21.03.36-.18.06.01.04.2.08.25h-.02c0,.16.13.14.25.03l-.02.04s.13.04.23-.06c.02.19-.31.78-.09.56.11.03.31-.32.33-.46.12.21.43-.06.47.33.05-.08.05-.14.12-.17.23.16.59-.15.71.33-.09.08-.05.22-.07.34.1-.18.04.22.13-.11.03-.2.05-.3,0-.39.17-.08.39-.02.47.17-.03-.09,0-.15.05-.21-.05.32.07.37.17.26l.03-.2.04.2c.04-.06.06-.41.14-.22,0,.08,0,.15.02.21.1-.16.23-.42.33-.26l.08.29s.11-.2.04-.28c.17.18.28.2.35.45.27-.64.67-.73,1.02-.73v.15c.13.12.02-.26.1-.17,0,.14.13.29.08.47.17.13.13-.27.2-.35-.03-.19-.04.13-.08-.11,0-.06.21.12.17-.18.06.1.08.32.09.44l.05-.16c.18.3-.1.66.1,1.04l.07-.07c.15.27-.14.4.09.44.06-.17.03-.6-.07-.7.16-.13-.08-.7.11-.73.09.15-.14.08-.04.31.15.2.14-.18.24-.12-.12-.08-.12-.39-.08-.45.13.1.01.28.15.27-.02-.17.06-.32-.08-.41-.06-.38.16.06.15-.24.12.24.05.63.23.72-.1-.24.07-.39-.12-.73.08.05.15.25.15.41.13.13.05-.5.24-.03l-.06-.26c.06.07.1.13.2.25.07-.02.11-.4.24-.03.01-.04.17-.1.01-.33-.16-.11-.04.23-.23-.1.18.27.13-.09.15-.21l.06.14c.01-.07.1-.08.06-.24,0,.09.06.19.1.21l-.05-.23c.09-.17.19.37.29.24l-.03.21s.14.13.17.04c-.05-.21-.11-.47-.16-.63.04-.12.13.21.11-.03v.28c.02.07.21.3.31.24.04-.1,0-.42-.14-.49.05-.03.17.06.2.22.08-.12-.11-.2-.07-.37.1.11.31.24.47.39l.05.37.07-.03c.03.3.14.18.22.47.07.02.09-.1.1-.19-.35-.37-.13-.67-.37-1.04.13-.19.6.91.49.2-.09-.09-.15-.43-.21-.26.14-.01-.13-.42.09-.33-.01.22.32.33.3.65-.06-.13-.14-.06-.14-.01.13.13.2.4.32.34.05-.08.15-.15.02-.34-.12-.22-.1.09-.17-.16.1-.16.31.16.15-.27-.07.08-.22-.13-.3-.28l.05-.15.06.16c.22,0-.1-.3.08-.35l.24.24c.1.27-.29.03-.04.42.11-.05.03-.27.19-.23,0,.05-.03.08-.03.13.04,0,.39.5.36.1,0-.17-.06-.16-.15-.31.14-.15.1-.33.19-.42.15.3.21-.09.27.28-.16-.14-.39.02-.28.34.26.31-.16.03,0,.41.14-.08.33.27.49.48.05,0,.03-.13.03-.17-.11-.22-.16-.19-.29-.4.19-.04.27-.24.22-.5.11.07.23.29.18.35.15-.17.36-.26.57-.3-.33-.27.14-.2-.12-.43-.14-.02-.37-.21-.42-.39.07-.01.09.15.16.21-.05-.23.3.22.19-.11-.09.21.24.43.38.7.02-.22.12.19.24.12.03-.21.09-.43.18-.58.33.12.4-.3.54-.41.17.07.32.4.44.39.09-.08-.3-.26-.06-.23l.03.07c0-.1.4,0,.14-.44l.19.34s.02-.08.02-.13c.08.1.17.17.18.26.25.15.16-.17.25-.25l-.2-.13c.05-.26.3-.17.41-.35l.13.18v-.17c.12.19.29.23.23.05l.09.61c-.15-.05-.09-.27-.27-.41-.15-.12-.26.03-.16.22.07-.02.04-.06.04-.16.21.23.12.28.2.48.02-.03.12.01.07-.07.03.16-.01.23-.1.31,0-.15-.15-.12-.18-.21.16.22.11.36-.05.39-.27-.19-.11.33-.3.37-.11-.27-.16-.5-.15-.65-.17-.05-.09.08-.26.03.08.2.23.47.19.66l-.12-.16c-.04.16.13.41-.03.46-.29.09-.52.27-.71.37l-.12-.16c.14.42-.26.34-.29.59-.34-.02-.42.48-.72.26-.34.38-.63.75-1.12.94l-.06-.3c.02.23-.13-.12-.19-.05.2.17.03.32.05.51-.31-.11-.47.24-.57.51l-.09-.18c-.03.43-.4.23-.66.28-.06-.07-.17-.22-.23-.17,0,.36-.08.37-.2.65-.14.05-.42.05-.61-.03-.42.6-1.07.52-1.61.92l-.09-.23c-.52.58-1.33.26-1.83.54l.03-.41c-.17-.13-.37.1-.33.39-.17-.13-.43.19-.53-.15-.17-.08-.22.18-.37.23-.34-.16-.46-.14-.8-.13l.08.04c.05-.08.08-.25,0-.29-.14.09-.42-.19-.39.31-.28-.36-.9.08-1.12-.42-.01.14-.1.13-.17.2-.31-.11-.52-.48-.84-.37-.02-.08.17-.18.05-.24-.09.02-.07.16-.19.19-.59,0-.8-.73-1.22-.9-.4-.13-.75-.37-1.09-.62-.32-.27-.58-.58-.88-.84l.08-.06c-.46.06-.1-.71-.67-.5.03-.11-.12-.21.06-.29-.17,0-.21-.15-.25-.31-.03-.08-.04-.15-.1-.23-.07-.09-.16-.17-.29-.22.01.04.05.05.11.06-.05-.45-.49-.69-.52-1.14.06.03.13.09.24.08.11-.17-.6-.28-.15-.43-.04-.08-.28-.03-.24.02-.04-.15-.09-.31-.16-.46.19-.36.3-.73.46-1.13l.23-.61c.07-.19.22-.44.27-.55.53-.25.65.44.61-.09.09.03-.13-.13-.05-.07,0-.2.56.15.44-.09-.25-.15-.08-.16-.21-.27.35-.11.56.01.57-.31l.1.12c-.11-.49.29-.56.13-1.1,1.14-1.17,2.51-2.23,4.16-2.7.42-.06.83-.14,1.24-.22.41-.04.81-.05,1.22-.07.83-.08,1.6.13,2.38.35.3.44.31.45.72.4-.03.06-.06.07-.05.13.1-.31.27.05.39-.24.52.23,1.07.27,1.61.48-.1,0-.23.23-.13.25l.18-.15-.02.09c.08-.02.22-.13.19-.26.71.17,1.34.55,1.93.96.54.46,1.05.94,1.65,1.25.19.29.68.4.98.56.57.97,1.07,1.79,2.08,2.16,0,0-.64.57-1.09.48Z"/>
        <path class="cls-1" d="M50.06,64.67c-.13-.11-.28-.11-.34-.33.11.11.26.21.34.33Z"/>
        <path class="cls-1" d="M46.66,65.08s-.07-.03-.09-.05c.02-.03-.02-.16.05-.1-.02.03.02.09.05.16Z"/>
        <path class="cls-1" d="M45.98,65.38c-.07-.13,0-.31.07-.37l-.07.37Z"/>
        <path class="cls-1" d="M45.09,65.21c-.11-.08-.13-.14-.06-.18.04.06.04.11.06.18Z"/>
        <path class="cls-1" d="M45.22,65.52s-.11-.03-.18-.09c.06.11.07-.14.18.09Z"/>
        <path class="cls-1" d="M43.76,65.83s-.04.16-.14.03c.08.09.07-.23.14-.03Z"/>
        <path class="cls-1" d="M43.26,66.3s-.04-.02-.05.03c-.06-.05-.07-.16-.04-.19l.09.16Z"/>
        <polygon class="cls-1" points="33.04 64.81 33.14 64.83 33.01 64.9 33.04 64.81"/>
        <path class="cls-1" d="M34.52,61.7c0-.11.12.08.15.09-.04.05-.09-.15-.15-.09Z"/>
        <polygon class="cls-1" points="36.66 59.73 36.64 59.74 36.56 59.45 36.66 59.73"/>
      </g>
    </g>
    <g>
      <path class="cls-1" d="M67.88,26.66c.15-.09-.11-.24.09-.13,0,.12-.03.21-.09.13Z"/>
      <path class="cls-1" d="M67.48,26.6c.68.61-.18,1.18.22,1.81.02.07-.41-.09-.33.08.54.65-.05,1.45-.64,1.97l-.1-.07c-.11.1.23.35.14.46-.08-.02-.1-.07-.21-.07.22.09.05.26.2.36-.1.03-.28-.03-.4,0l.24.15c.57.39-.17.49.03.86-.05-.03-.09-.08-.16-.07.2.56-.07,1.1-.13,1.65-.08-.06-.23-.14-.34-.16.25.13.27.32.25.47-.29-.07.12.33-.1.41l-.05-.04c.21.25-.24.08.03.34l-.24-.04c.34.24-.27.06-.14.25l.08.04c.04.14-.16.08-.15.19l-.05-.02c0,.24-.26.23.01.39-.25-.07,0-.24-.38-.33,0,.4-.16.71-.36,1.01-.19.3-.42.57-.63.86-.14-.02-.21-.02-.31-.08,0,.09-.14.22-.07.37.01-.02-.15-.08-.19-.07-.17,0,.15.35-.06.34-.02-.1-.08-.19-.17-.26.09.26-.06.34-.1.5-.02-.06-.02-.1-.09-.17.07.32-.24.14-.22.37l-.08-.18c-.29-.03.19.34-.04.35,0-.07-.06-.12-.09-.18.06.36-.25.44-.33.63,0-.03-.03-.07-.03-.07-.14.14-.36.16-.47.41-.11-.04-.19-.39-.34-.26.18.32-.24.28.05.6-.19.02-.5,0-.56.17.02-.16-.25-.39-.13-.47l-.18-.17c-.04-.15.12,0,.01-.16-.05.04-.18.26-.26.23-.03.27-.02.69-.23.8.06-.17-.17-.38-.12-.46-.03.25-.06.51-.1.76-.07.04-.09-.28-.17-.16.03.09,0,.16-.02.25-.04-.03-.29.17-.39-.18-.06-.13.1-.11,0-.21-.13.03-.11.15-.25.17v-.05c-.11-.04-.25.19-.12.37.07,0-.06-.21.05-.12-.03.22-.19.3-.33.32.04-.06.02-.16.03-.27-.15.31-.35.43-.56.56,0,.17.06-.31.1-.23-.28-.23-.56.35-.79,0,.04-.03.02.25.02.2-.13-.02-.12-.27-.21-.18,0-.15-.11.05-.2.09-.05.1-.02-.07.06-.08-.12.12-.65.3-.91.06,0,.1-.22.33-.29.31l.06-.22c-.04-.15-.22-.02-.2-.21-.18.25.56-.14.35.04-.02-.2-.31.31-.23.01-.12-.01-.31.22-.44-.03.04.04.2-.29.07-.29-.23,0-.09.1-.3.13l-.15.06c-.09.21-.2-.09-.21.17.05-.18-.42,0-.21-.32l.17-.25c-.1,0-.31.23-.47.32,0-.03,0-.09.04-.12-.28.38-.21-.11-.56.13-.06-.1-.19-.15-.3-.21-.03-.14-.05-.28.05-.43-.16-.06-.36-.12-.34-.38.05.02.07.06.16.02.08-.19-.03-.15-.12-.23.06-.01.17-.37.28-.54-.16-.1-.38.03-.52.07.18-.15.09-.24,0-.35-.09-.1-.2-.25-.02-.34.07.02.25.18.34.03.41-.19-.36-.18-.19-.4l-.35.1c.2-.11-.24-.26.13-.29-.14-.05.1-.24-.25-.18.26-.34-.25-.78.4-.99-.06-.04,0-.16-.18-.13-.2.08.14.11,0,.13-.01-.04-.11-.05-.16-.05.08-.1.11-.18.4-.08.22-.21-.6-.23-.46-.52.15.02.2,0,.18-.08l-.23-.18c.08-.18.35-.07.6-.06-.03-.1,0-.21-.18-.28l.33-.08c-.24.05-.14-.1-.19-.15l.06.05c.11,0,.06-.12.03-.18-.15-.01-.23.09-.28.15-.1-.06-.07-.14-.19-.22.24.06.19-.13.23-.2.06-.08-.2-.14-.19-.17.13.02.06-.14.21-.04.03.04-.14.04-.04.11.1-.04.32.01.19-.14-.09-.11-.48-.08-.28-.22.05.06.14.09.22.14l.17-.13-.21-.06c.06,0,.08.01.11,0-.22-.1,0-.26-.25-.36,0-.09.2-.13.24-.2v.02c.17-.06.12-.2,0-.33l.04.02s.04-.17-.05-.28c.21-.07.8.26.6.02.05-.12-.29-.35-.45-.35.24-.17.03-.58.43-.64-.07-.07-.12-.08-.14-.17.25-.28.2-.81.72-.81.02.14.18.13.29.2-.12-.18.22.04-.04-.19-.17-.11-.24-.17-.37-.13.04-.24.22-.54.45-.5-.11-.01-.13-.09-.14-.16.24.21.38.13.38-.03l-.14-.14.21.07c-.02-.07-.27-.31-.05-.27.06.05.12.09.18.11-.03-.2-.1-.52.11-.5l.28.12c.02-.06-.03-.26-.16-.24.28-.05.4-.14.61,0-.1-.69.37-1.07.76-1.31l.07.13c.18.04-.09-.25.03-.22.05.14.25.19.27.39.22.03.04-.34.09-.47-.09-.17,0,.16-.12-.06-.02-.08.28-.02.15-.27.1.08.18.27.23.38l.02-.17c.29.23.07.65.41.94l.06-.08c.24.22-.02.4.23.39,0-.17-.14-.57-.28-.63.14-.17-.27-.64-.06-.73.14.12-.14.12.02.31.21.15.13-.22.25-.19-.15-.04-.22-.34-.18-.42.17.06.07.28.23.22-.06-.16.02-.34-.16-.38-.13-.36.21,0,.15-.3.17.21.14.63.36.66-.15-.21.04-.42-.22-.71.1.03.2.21.22.37.16.09.01-.54.27-.1l-.08-.25c.07.06.14.1.25.2.08-.04.11-.46.27-.1,0-.06.21-.11.02-.33-.19-.11-.05.24-.27-.06.21.23.15-.12.19-.24l.07.14c.02-.07.13-.08.09-.24,0,.09.06.18.11.2l-.05-.23c.13-.17.2.36.34.24l-.05.21s.15.13.2.04c-.05-.21-.09-.47-.13-.63.06-.12.13.21.14-.03l-.02.28c0,.07.21.3.33.25.05-.1.06-.43-.1-.49.06-.03.2.06.2.23.11-.12-.1-.21-.02-.38.1.11.33.25.49.41v.38s.08-.03.08-.03c0,.31.13.19.17.49.07.02.1-.1.13-.19-.32-.4-.03-.69-.22-1.1.2-.2.48.97.5.22-.07-.1-.06-.46-.17-.28.16,0-.03-.46.19-.34-.07.21.27.39.16.69-.03-.14-.13-.07-.15-.02.11.14.12.43.26.38.08-.06.19-.1.11-.32-.08-.24-.13.06-.14-.2.15-.13.29.23.24-.22-.1.06-.21-.18-.25-.35l.1-.13.02.17c.25.06-.02-.31.2-.32l.19.3c.03.29-.34-.05-.17.39.14-.01.12-.25.28-.17-.02.05-.05.07-.07.11.05,0,.26.59.35.19.06-.16-.02-.17-.06-.34.2-.1.22-.29.35-.35.05.34.25-.03.18.35-.12-.18-.42-.08-.42.25.18.37-.18-.01-.12.39.17-.03.26.35.36.6.05,0,.07-.11.08-.16-.04-.24-.1-.22-.17-.47.2.02.35-.16.4-.42.09.1.13.34.06.39.2-.12.45-.15.68-.13-.22-.36.22-.15.06-.45-.13-.06-.29-.31-.27-.5.08,0,.03.17.08.25.05-.24.21.31.23-.05-.18.18.06.49.08.8.11-.21.04.22.18.18.11-.21.26-.37.42-.46.26.26.52-.07.7-.11.12.14.11.5.22.55.12-.02-.15-.36.05-.23v.07c.04-.09.36.19.34-.32v.39s.06-.06.08-.11c.02.12.07.23.03.32.15.25.22-.07.34-.1l-.11-.21c.18-.21.35,0,.54-.11l.02.22.1-.15c0,.22.12.34.16.15l-.24.58c-.1-.12.06-.28-.02-.49-.07-.18-.24-.1-.25.12.07.01.07-.03.11-.12.06.3-.05.31-.07.52.03-.02.1.07.09-.03-.05.16-.12.19-.24.22.06-.13-.07-.18-.05-.28.03.27-.07.37-.23.32-.15-.3-.24.24-.42.18.03-.28.08-.51.17-.64-.13-.12-.12.02-.25-.1-.02.21,0,.53-.13.67l-.04-.2c-.11.12-.06.42-.23.38-.29-.06-.57-.02-.78-.01l-.05-.2c-.03.45-.34.25-.45.47-.3-.13-.51.32-.72.02-.42.27-.77.5-1.25.55v-.31c-.03.23-.11-.14-.18-.07.16.19-.02.33-.02.53-.27-.14-.45.19-.54.45l-.08-.19c-.04.42-.37.19-.61.21-.06-.07-.17-.23-.23-.18,0,.35-.06.35-.15.6-.12.05-.34.09-.51.04-.22.65-.82.6-1.09,1.11l-.16-.18c-.08.71-.84.67-.96,1.14l-.25-.33c-.17,0-.13.29.1.47-.17,0-.06.36-.36.18-.14.04.03.24,0,.35-.3.07-.33.17-.39.41l.05-.03c-.06-.07-.2-.18-.25-.15.04.14-.27.21.18.41-.36.06-.14.56-.55.6.13.04.13.11.2.17-.07.19-.41.28-.27.52-.08,0-.19-.13-.24-.06.03.06.16.06.21.14.12.38-.42.58-.46.91.08.3.09.59.05.87-.02.28-.02.57-.01.84h-.1c.37.15-.34.46.23.56-.09.05-.03.17-.22.16.13.06.09.17.06.28-.02.06-.03.13-.02.17,0,.02.04.04.12.03,0,0-.01,0-.05,0-.19.15.1.09-.06.27-.04.02-.07.02-.16.07-.15.16.39-.17-.02.16.01.02.21-.15.19-.15-.02.05-.02.1-.01.14.07.04.2.03.31,0,.13-.03.15-.11.32-.12.32.34-.1.79.25.49.01.09.04-.18.03-.08.13-.12.12.54.24.3,0-.29.07-.16.09-.33.21.2.26.48.45.26l-.02.15c.23-.43.48-.21.64-.7,1.14-.14,2.02-.73,2.83-1.27.21-.12.42-.25.63-.38l.54-.54c.39-.31.66-.8,1.12-1.14.5.02.5-.02.5-.37.05.04.05.07.12.08-.27-.18.07-.21-.18-.39.25-.36.38-.72.56-1.14,0,.08.24.23.25.14l-.16-.17.09.02c-.02-.08-.15-.2-.27-.18.07-.59.35-1.08.66-1.57.26-.53.53-1.07.63-1.65.19-.25.2-.65.16-.97.56-.82,1.03-1.63.86-2.6,0,0,.83.21.96.63Z"/>
      <path class="cls-1" d="M67.7,26.72c-.05-.16-.17-.23-.11-.46.03.15.1.31.11.46Z"/>
      <path class="cls-1" d="M64.44,25.51s-.06-.05-.07-.08c.04-.02.04-.17.09-.09-.04.02-.01.1-.02.17Z"/>
      <path class="cls-1" d="M63.64,25.6c-.02-.15.12-.3.22-.34l-.22.34Z"/>
      <path class="cls-1" d="M62.75,25.2c-.1-.1-.1-.17,0-.19.03.07,0,.12,0,.19Z"/>
      <path class="cls-1" d="M62.79,25.54c-.06.02-.11-.06-.17-.13.03.12.12-.11.17.13Z"/>
      <path class="cls-1" d="M61.06,25.61s-.08.17-.17.03c.08.09.13-.24.17-.03Z"/>
      <path class="cls-1" d="M60.39,26.09s-.05-.02-.06.03c-.07-.05-.06-.16-.03-.19l.09.16Z"/>
      <polygon class="cls-1" points="53.27 37.86 53.18 37.78 53.33 37.77 53.27 37.86"/>
      <path class="cls-1" d="M58.92,40.83c.08-.1.08.13.09.15-.08.02,0-.18-.09-.15Z"/>
      <polygon class="cls-1" points="61.94 39.18 61.91 39.2 61.78 38.93 61.94 39.18"/>
    </g>
    <g>
      <g>
        <path class="cls-1" d="M39.2,35.68c.04-.17-.25-.09-.03-.16.08.09.13.17.03.16Z"/>
        <path class="cls-1" d="M38.87,35.92c.91-.06.71.96,1.44,1.12.07.03-.35.23-.18.29.84.08.99,1.06.94,1.85l-.12.03c0,.15.41.08.43.23-.07.04-.12.02-.2.1.22-.09.22.15.4.11-.05.09-.22.18-.27.29l.27-.06c.68-.13.22.47.63.58-.06.02-.12.01-.16.06.54.25.73.83,1.08,1.26-.1.02-.27.06-.35.13.27-.08.42.04.51.16-.25.16.32.15.22.36h-.07c.33.03-.11.24.26.22l-.2.15c.41-.07-.15.24.08.27l.08-.03c.12.07-.06.17.03.24l-.04.02c.17.18-.02.35.29.27-.23.13-.17-.17-.5.03.28.28.39.62.46.97.08.35.11.7.16,1.05-.11.09-.16.14-.28.16.06.07.05.25.21.32,0-.02-.16.05-.18.08-.12.12.35.14.2.28-.08-.06-.19-.08-.31-.06.25.12.2.28.28.43-.05-.03-.08-.06-.18-.06.28.17-.07.27.11.42l-.18-.07c-.23.19.38.11.22.28-.05-.05-.12-.05-.2-.06.3.21.13.48.21.68-.02-.02-.07-.02-.07-.02,0,.2-.14.37-.04.62-.1.05-.41-.14-.42.06.36.1.02.37.46.39-.12.15-.35.36-.28.52-.1-.13-.45-.1-.43-.24h-.24c-.13-.06.08-.07-.1-.11,0,.07.05.31-.02.34.17.21.47.5.4.72-.08-.16-.39-.14-.41-.23.16.2.32.4.47.61-.02.07-.26-.14-.23,0,.09.05.11.12.17.19-.05,0-.08.33-.4.15-.14-.05,0-.15-.15-.15-.07.11.02.18-.05.3l-.04-.03c-.1.04-.04.3.19.34.05-.04-.19-.11-.05-.12.13.18.08.34,0,.46-.02-.08-.1-.13-.17-.21.11.32.06.55,0,.79.13.12-.18-.27-.09-.23-.36.03-.15.64-.56.56,0-.05.19.16.15.13-.11.08-.28-.11-.27.02-.11-.1-.04.11-.08.2.04.11-.07-.04-.02-.1,0,.17-.25.67-.6.68.07.08.08.4.01.42l-.11-.2c-.13-.08-.17.14-.29,0,.05.31.3-.5.27-.22-.15-.13,0,.44-.15.17-.09.08-.06.37-.33.29.06,0-.06-.34-.15-.26-.17.16,0,.13-.12.3l-.07.15c.08.21-.2.08-.03.27-.09-.16-.3.29-.38-.08l-.05-.3c-.07.07-.06.38-.1.55-.02-.02-.06-.07-.06-.12.07.46-.23.07-.3.49-.11-.03-.24.03-.36.06-.12-.08-.23-.16-.27-.34-.16.07-.34.17-.5-.03.05-.02.1,0,.13-.1-.08-.19-.13-.09-.25-.07.04-.05-.14-.38-.18-.58-.18.05-.24.29-.32.42.02-.24-.11-.24-.25-.24-.14,0-.32-.03-.26-.23.06-.03.3-.05.26-.22.15-.43-.38.13-.42-.15l-.18.32c.06-.22-.35-.01-.11-.29-.13.06-.1-.24-.31.05-.05-.43-.73-.38-.42-.98-.07.01-.11-.11-.22.03-.09.19.17-.03.1.09-.04-.02-.11.04-.15.07-.01-.13-.05-.2.23-.34.01-.3-.59.26-.69-.04.12-.09.15-.14.07-.18l-.29.04c-.07-.19.19-.3.38-.46-.09-.05-.15-.15-.32-.06l.18-.28c-.13.2-.17.03-.24.03h.08c.07-.08-.05-.13-.1-.15-.12.1-.1.23-.1.3-.12.03-.14-.05-.29-.03.21-.13.04-.23.02-.3-.01-.1-.24.04-.25.01.1-.07-.06-.14.13-.18.05,0-.07.13.05.11.05-.1.24-.22.04-.23-.15-.01-.39.28-.35.05.08,0,.16-.04.25-.05l.03-.21-.19.11s.06-.05.08-.07c-.22.08-.19-.18-.43-.08-.06-.06.05-.23.03-.31h.02c.07-.14-.07-.21-.25-.22l.05-.02c-.02-.05-.09-.15-.24-.16.1-.2.75-.39.44-.41-.05-.12-.45-.04-.56.07.05-.28-.39-.43-.15-.76-.1,0-.14.03-.22-.02-.02-.37-.43-.71-.06-1.08.11.09.22-.03.34-.06-.21-.05.18-.13-.16-.11-.2.04-.3.05-.35.17-.14-.2-.22-.54-.04-.67-.09.07-.15.03-.22-.01.32-.02.36-.18.25-.29h-.2s.2-.1.2-.1c-.06-.04-.41-.03-.23-.16.08-.01.15-.02.21-.05-.16-.11-.44-.29-.28-.43l.28-.11c-.03-.06-.21-.16-.29-.06.17-.23.19-.38.43-.44-.56-.41-.5-1.02-.39-1.47l.14.04c.15-.1-.24-.11-.13-.18.13.06.31-.04.47.09.18-.14-.22-.27-.26-.4-.19-.06.11.12-.13.04-.07-.04.19-.21-.08-.3.12-.02.32.06.43.11l-.11-.13c.37-.04.51.41.96.38l-.02-.1c.32-.01.27.3.43.11-.11-.12-.5-.3-.65-.25-.02-.22-.65-.26-.56-.48.18-.02-.01.19.23.21.26-.05-.06-.24.04-.31-.14.07-.39-.09-.42-.17.17-.08.24.15.32,0-.15-.07-.23-.26-.38-.16-.35-.17.15-.14-.1-.32.27.03.54.35.72.21-.26-.05-.27-.32-.66-.35.09-.05.29,0,.42.11.18-.05-.37-.39.12-.26l-.24-.12c.09,0,.17-.03.32-.03.03-.08-.25-.41.12-.26-.04-.05.07-.22-.22-.25-.21.06.13.21-.24.15.31.01.03-.19-.04-.3l.15.04c-.04-.06.04-.14-.11-.23.07.06.17.09.22.07l-.2-.13c-.03-.21.4.12.41-.07l.11.19s.2-.01.17-.11c-.18-.11-.4-.27-.54-.36-.04-.13.24.05.08-.12l.18.22c.06.04.36.06.41-.06-.03-.1-.26-.35-.42-.28.03-.06.18-.09.3.02,0-.17-.22-.08-.28-.25.15,0,.41-.06.63-.06l.27.27.04-.08c.21.22.22.04.47.23.07-.03,0-.14-.04-.23-.51-.05-.51-.47-.93-.62,0-.28,1.02.35.51-.2-.12-.02-.37-.28-.32-.08.11-.11-.35-.3-.11-.38.09.2.47.09.6.38-.12-.08-.14.04-.12.09.18.02.39.22.45.08,0-.1.07-.21-.15-.3-.22-.12-.05.13-.24-.04.02-.2.37-.04.02-.32-.03.12-.27.02-.42-.07l-.02-.17.13.1c.22-.13-.23-.2-.08-.37l.34.08c.22.18-.27.2.16.4.09-.11-.1-.26.08-.31.02.04,0,.08.03.13.04-.04.6.23.39-.11-.07-.16-.13-.11-.28-.2.07-.22-.05-.36,0-.5.28.2.16-.2.37.12-.21-.04-.36.24-.12.47.39.14-.14.12.19.36.1-.14.44.06.67.17.04-.03-.03-.12-.05-.17-.2-.14-.23-.09-.45-.21.16-.13.13-.36-.01-.57.14,0,.33.15.31.23.06-.23.21-.43.39-.57-.41-.1.05-.26-.28-.36-.14.05-.43-.02-.54-.17.06-.05.15.1.23.12-.13-.2.37.07.13-.2,0,.25.38.3.63.51-.07-.22.18.13.26,0-.07-.23-.08-.45-.03-.62.37,0,.32-.42.42-.57.19.02.43.27.55.23.07-.1-.36-.15-.12-.2l.05.06c-.03-.09.39-.12.02-.47l.27.27s0-.08-.02-.13c.1.07.21.11.25.2.28.07.1-.21.17-.31l-.23-.08c-.02-.27.24-.25.3-.46l.17.14-.03-.18c.15.16.32.16.22,0l.24.58c-.15-.01-.16-.24-.36-.33-.18-.08-.24.1-.09.26.06-.04.03-.07,0-.17.26.17.18.25.32.42.01-.04.12-.02.04-.09.08.15.05.22-.01.32-.05-.14-.18-.08-.23-.16.21.17.21.31.06.38-.31-.1,0,.34-.17.42-.18-.22-.31-.42-.33-.57-.18,0-.07.1-.24.1.13.16.37.38.38.56l-.17-.11c0,.16.25.34.11.43-.24.16-.42.38-.56.54l-.17-.11c.3.34-.07.42.01.66-.3.12-.13.59-.5.52-.11.48-.19.89-.49,1.27l-.23-.21c.15.18-.17-.03-.17.07.25.02.22.25.36.38-.29.09-.18.45-.07.7l-.19-.08c.27.33-.13.39-.28.58-.09,0-.28-.04-.29.03.25.24.2.29.32.53-.05.12-.18.3-.34.39.31.62-.16,1.01.01,1.56h-.24c.45.55-.13,1.05.12,1.47l-.41-.06c-.12.12.12.29.4.26-.12.12.21.3-.13.39-.07.13.19.15.25.24-.16.26-.11.35.02.56v-.06c-.08-.01-.25.01-.27.07.13.07-.04.34.42.16-.21.3.3.5.03.81.12-.06.17-.01.26-.02.08.18-.09.49.17.56-.05.06-.22.04-.21.13.06.03.16-.07.25-.04.36.18.11.71.32.97.27.16.48.35.65.58.19.21.38.42.58.6l-.07.07c.38-.15.09.57.56.24-.03.1.1.14-.04.27.14-.05.18.05.24.16.03.05.07.11.11.13.02.01.06,0,.11-.06,0-.01-.01,0-.04.04-.03.24.14,0,.15.23-.02.04-.04.06-.07.16,0,.22.15-.39.1.12.02,0,.04-.25.03-.24.03.05.06.09.09.11.08-.02.16-.12.21-.22.07-.11.03-.18.14-.31.47.01.49.63.52.17.07.06-.1-.15-.03-.08,0-.18.47.29.38.05-.21-.2-.06-.16-.17-.3.3,0,.52.16.51-.13l.09.12c-.14-.47.2-.49-.04-.95.7-.91.91-1.95,1.1-2.9.07-.24.12-.48.17-.72v-.76c.06-.5-.1-1.03-.02-1.6.37-.34.34-.37.09-.62.07,0,.09.01.14-.02-.32.07-.09-.2-.4-.14-.08-.43-.24-.78-.41-1.2.06.05.33,0,.27-.08h-.23s.08-.05.08-.05c-.07-.04-.25-.03-.32.06-.37-.46-.52-1.01-.64-1.58-.19-.56-.38-1.13-.72-1.61-.04-.31-.32-.6-.58-.8-.19-.98-.42-1.88-1.23-2.44,0,0,.73-.44,1.12-.24Z"/>
        <path class="cls-1" d="M39.11,35.86c-.15-.08-.29-.04-.4-.25.13.09.3.15.4.25Z"/>
        <path class="cls-1" d="M35.95,37.3s-.08,0-.11,0c.01-.04-.09-.15,0-.13,0,.04.06.08.11.13Z"/>
        <path class="cls-1" d="M35.45,37.94c-.12-.09-.13-.3-.09-.4l.09.4Z"/>
        <path class="cls-1" d="M34.54,38.28c-.14,0-.19-.05-.14-.13.07.03.09.08.14.13Z"/>
        <path class="cls-1" d="M34.8,38.49c-.03.06-.12.04-.21.02.11.06,0-.17.21-.02Z"/>
        <path class="cls-1" d="M33.63,39.76s.07.18-.1.14c.12.01-.08-.26.1-.14Z"/>
        <path class="cls-1" d="M33.5,40.58s-.05.02-.02.06c-.08.02-.16-.07-.15-.11l.18.05Z"/>
        <polygon class="cls-1" points="36.78 53.93 36.67 53.94 36.77 53.83 36.78 53.93"/>
        <path class="cls-1" d="M42.88,52.04c-.02-.13.14.04.17.04-.04.07-.12-.14-.17-.04Z"/>
        <polygon class="cls-1" points="43.85 48.74 43.84 48.76 43.56 48.67 43.85 48.74"/>
      </g>
      <g>
        <path class="cls-1" d="M59.04,55.68c.09-.15-.23-.15.01-.15.06.1.09.19-.01.15Z"/>
        <path class="cls-1" d="M58.59,54.58c-.89.29-.97-.73-1.71-.68-.07-.01.26-.33.08-.34-.77.13-1.3-.58-1.65-1.33l.1-.08c-.07-.14-.4.11-.49,0,.04-.07.09-.07.12-.18-.15.19-.27-.03-.4.09,0-.11.09-.27.08-.4l-.2.19c-.49.44-.43-.31-.86-.13.04-.05.09-.08.1-.15-.61.15-1.1-.16-1.63-.24.05-.08.14-.23.15-.34-.13.25-.3.25-.45.25.04-.29-.32.18-.42-.02l.03-.06c-.21.25-.12-.22-.32.1v-.24c-.17.38-.11-.25-.26-.08l-.02.08c-.12.07-.11-.14-.21-.1v-.05c-.22.05-.27-.21-.35.1,0-.27.22-.06.2-.45-.36.04-.71.06-1.05.05-.34-.02-.67-.08-1.01-.13-.07-.14-.12-.17-.13-.3-.07.07-.26.07-.33.23.02,0-.04-.16-.08-.18-.13-.12-.13.36-.27.22.05-.09.07-.19.05-.31-.11.25-.27.22-.4.3.02-.05.05-.09.04-.19-.13.29-.28-.05-.4.13l.03-.19c-.24-.22-.02.39-.21.28.03-.07.01-.14,0-.21-.12.37-.4.31-.54.46,0-.03,0-.08,0-.08-.17.08-.38.01-.54.19-.09-.06-.1-.45-.27-.32.12.35-.26.26-.02.62-.17,0-.46-.04-.51.12.01-.16-.25-.39-.13-.47l-.19-.17c-.04-.15.13,0,.02-.16-.07.04-.2.25-.29.22-.03.25.06.71-.09.84.02-.18-.24-.33-.22-.42.03.26.06.51.1.76-.05.05-.16-.25-.2-.11.06.08.05.15.07.24-.04-.02-.18.21-.41-.08-.11-.1.05-.12-.08-.19-.1.07-.03.18-.13.26l-.03-.04c-.1,0-.1.27.09.38.05-.02-.15-.16-.02-.13.08.21,0,.34-.08.41,0-.07-.07-.14-.12-.24.05.33-.03.49-.08.69.11.13-.17-.28-.08-.23-.33-.02-.1.57-.48.45,0-.04.19.16.15.13-.09.06-.27-.12-.25,0-.11-.1-.03.09-.05.18.06.1-.07-.03-.04-.09.02.17-.05.62-.37.66.08.06.2.33.16.37l-.17-.15c-.14-.04-.09.16-.25.05.16.26.07-.51.15-.25-.18-.08.17.39-.06.18-.06.1.1.32-.11.25.04,0-.23-.22-.26-.16-.03.12.08.08.09.19l.06.08c.21.09-.07.06.18.12-.18-.06.05.13-.31.02l-.28-.1c0,.05.27.15.39.21-.03,0-.1,0-.15-.02.47.09-.09.08.27.17-.1.02-.12.06-.16.1,0,.04-.02.07-.17.1.18.05.37.06.3.13-.05,0-.07-.01-.18,0-.11.07.02.06.11.07-.07,0-.21.15-.33.28.17.02.37-.11.51-.16-.19.11-.1.13,0,.12.1,0,.17-.03.05.15-.08,0-.25.02-.3.13-.3.33.38-.02.3.23l.27-.25c-.14.2.31.05,0,.26.14-.04.02.22.29-.02-.07.39.52.34.18.88.07-.02.09.09.21-.05.1-.18-.16.04-.08-.07.03.02.11-.05.14-.08,0,.11.03.18-.24.33-.02.29.55-.31.61-.05-.11.1-.13.16-.07.18l.26-.12c.07.13-.15.3-.31.5.09.02.16.08.3-.04l-.12.31c.08-.22.14-.08.21-.11l-.07.03c-.05.09.06.1.12.1.08-.13.05-.24.03-.3.1-.06.13,0,.25-.08-.16.19,0,.22.03.28.03.09.18-.13.2-.12-.07.11.08.07-.06.19-.04.02.02-.13-.07-.06-.01.1-.14.28.03.2.13-.07.25-.41.28-.22-.06.03-.12.11-.19.17l.04.17.12-.19c-.01.06-.03.07-.04.1.15-.18.21.03.36-.18.06.01.04.2.08.25h-.02c0,.16.13.14.25.03l-.02.04s.13.04.23-.06c.02.19-.31.78-.09.56.11.03.31-.32.33-.46.12.21.43-.06.47.33.05-.08.05-.14.12-.17.23.16.59-.15.71.33-.09.08-.05.22-.07.34.1-.18.04.22.13-.11.03-.2.05-.3,0-.39.17-.08.39-.02.47.17-.03-.09,0-.15.05-.21-.05.32.07.37.17.26l.03-.2.04.2c.04-.06.06-.41.14-.22,0,.08,0,.15.02.21.1-.16.23-.42.33-.26l.08.29s.11-.2.04-.28c.17.18.28.2.35.45.27-.64.67-.73,1.02-.73v.15c.13.12.02-.26.1-.17,0,.14.13.29.08.47.17.13.13-.27.2-.35-.03-.19-.04.13-.08-.11,0-.06.21.12.17-.18.06.1.08.32.09.44l.05-.16c.18.3-.1.66.1,1.04l.07-.07c.15.27-.14.4.09.44.06-.17.03-.6-.07-.7.16-.13-.08-.7.11-.73.09.15-.14.08-.04.31.15.2.14-.18.24-.12-.12-.08-.12-.39-.08-.45.13.1.01.28.15.27-.02-.17.06-.32-.08-.41-.06-.38.16.06.15-.24.12.24.05.63.23.72-.1-.24.07-.39-.12-.73.08.05.15.25.15.41.13.13.05-.5.24-.03l-.06-.26c.06.07.1.13.2.25.07-.02.11-.4.24-.03.01-.04.17-.1.01-.33-.16-.11-.04.23-.23-.1.18.27.13-.09.15-.21l.06.14c.01-.07.1-.08.06-.24,0,.09.06.19.1.21l-.05-.23c.09-.17.19.37.29.24l-.03.21s.14.13.17.04c-.05-.21-.11-.47-.16-.63.04-.12.13.21.11-.03v.28c.02.07.21.3.31.24.04-.1,0-.42-.14-.49.05-.03.17.06.2.22.08-.12-.11-.2-.07-.37.1.11.31.24.47.39l.05.37.07-.03c.03.3.14.18.22.47.07.02.09-.1.1-.19-.35-.37-.13-.67-.37-1.04.13-.19.6.91.49.2-.09-.09-.15-.43-.21-.26.14-.01-.13-.42.09-.33-.01.22.32.33.3.65-.06-.13-.14-.06-.14-.01.13.13.2.4.32.34.05-.08.15-.15.02-.34-.12-.22-.1.09-.17-.16.1-.16.31.16.15-.27-.07.08-.22-.13-.3-.28l.05-.15.06.16c.22,0-.1-.3.08-.35l.24.24c.1.27-.29.03-.04.42.11-.05.03-.27.19-.23,0,.05-.03.08-.03.13.04,0,.39.5.36.1,0-.17-.06-.16-.15-.31.14-.15.1-.33.19-.42.15.3.21-.09.27.28-.16-.14-.39.02-.28.34.26.31-.16.03,0,.41.14-.08.33.27.49.48.05,0,.03-.13.03-.17-.11-.22-.16-.19-.29-.4.19-.04.27-.24.22-.5.11.07.23.29.18.35.15-.17.36-.26.57-.31-.33-.27.14-.2-.12-.43-.14-.02-.37-.21-.42-.39.07-.01.09.15.16.21-.05-.23.3.22.19-.11-.09.21.24.43.38.7.02-.22.12.19.24.12.03-.21.09-.43.18-.58.33.12.4-.3.54-.41.17.07.32.4.44.39.09-.08-.3-.26-.06-.23l.03.07c0-.1.4,0,.14-.44l.19.34s.02-.08.02-.13c.08.1.17.17.18.26.25.15.16-.17.25-.25l-.2-.13c.05-.26.3-.17.41-.35l.13.18v-.17c.12.19.29.23.23.05l.09.61c-.15-.05-.09-.27-.27-.41-.15-.12-.26.03-.16.22.07-.02.04-.06.04-.16.21.23.12.28.2.48.02-.03.12.01.07-.07.03.16-.01.23-.1.31,0-.15-.15-.12-.18-.21.16.22.11.36-.05.39-.27-.19-.11.33-.3.37-.11-.27-.16-.5-.15-.65-.17-.05-.09.08-.26.03.08.2.23.47.19.66l-.13-.16c-.04.16.13.41-.03.46-.29.09-.52.27-.71.37l-.12-.16c.14.42-.26.34-.29.59-.34-.02-.42.48-.72.26-.34.38-.63.75-1.12.94l-.06-.3c.02.23-.13-.12-.19-.05.2.17.03.32.05.51-.31-.11-.47.24-.57.51l-.09-.18c-.03.43-.4.23-.66.28-.06-.07-.17-.22-.23-.17,0,.36-.08.37-.2.65-.14.05-.42.05-.61-.03-.42.6-1.07.52-1.61.92l-.09-.23c-.52.58-1.33.26-1.83.54l.03-.41c-.17-.13-.37.1-.33.39-.17-.13-.43.19-.53-.15-.17-.08-.22.18-.37.23-.34-.16-.46-.14-.8-.13l.08.04c.05-.08.08-.25,0-.29-.14.09-.42-.19-.39.31-.28-.36-.9.08-1.12-.42-.01.14-.1.13-.17.2-.31-.11-.52-.48-.84-.37-.02-.08.17-.18.05-.24-.09.02-.07.16-.19.19-.59,0-.8-.73-1.22-.9-.4-.13-.75-.37-1.09-.62-.32-.27-.58-.58-.88-.84l.08-.06c-.46.06-.1-.71-.67-.5.03-.11-.12-.21.06-.29-.17,0-.21-.15-.25-.31-.03-.08-.04-.15-.1-.23-.07-.09-.16-.17-.29-.22.01.04.05.05.11.06-.05-.45-.49-.69-.52-1.14.06.03.13.09.24.08.11-.17-.6-.28-.15-.43-.04-.08-.28-.03-.24.02-.04-.15-.09-.31-.16-.46.19-.36.3-.73.46-1.13l.23-.61c.07-.19.22-.44.27-.55.53-.25.65.44.61-.09.09.03-.13-.13-.05-.07,0-.2.56.15.44-.09-.25-.15-.08-.16-.21-.27.35-.11.56.01.57-.31l.1.12c-.11-.49.29-.56.13-1.1,1.14-1.17,2.51-2.23,4.16-2.7.42-.06.83-.14,1.24-.22.41-.04.81-.05,1.22-.07.83-.08,1.6.13,2.38.35.3.44.31.45.72.4-.03.06-.06.07-.05.13.1-.31.27.05.39-.24.52.23,1.07.27,1.61.48-.1,0-.23.23-.13.25l.18-.15-.02.09c.08-.02.22-.13.19-.26.71.17,1.34.55,1.93.96.54.46,1.05.94,1.65,1.25.19.29.68.4.98.56.57.97,1.07,1.79,2.08,2.16,0,0-.64.57-1.09.48Z"/>
        <path class="cls-1" d="M58.9,55.82c-.13-.11-.28-.11-.34-.33.11.11.26.21.34.33Z"/>
        <path class="cls-1" d="M55.51,56.23s-.07-.03-.09-.05c.02-.03-.02-.16.05-.1-.02.03.02.09.05.16Z"/>
        <path class="cls-1" d="M54.83,56.53c-.07-.13,0-.31.07-.37l-.07.37Z"/>
        <path class="cls-1" d="M53.94,56.37c-.11-.08-.13-.14-.06-.18.04.06.04.11.06.18Z"/>
        <path class="cls-1" d="M54.07,56.68s-.11-.03-.18-.09c.06.11.07-.14.18.09Z"/>
        <path class="cls-1" d="M52.61,56.99s-.04.16-.14.03c.08.09.07-.23.14-.03Z"/>
        <path class="cls-1" d="M52.11,57.46s-.04-.02-.05.03c-.06-.05-.07-.16-.04-.19l.09.16Z"/>
        <polygon class="cls-1" points="41.89 55.96 41.98 55.98 41.86 56.06 41.89 55.96"/>
        <path class="cls-1" d="M43.37,52.85c0-.11.12.08.15.09-.04.05-.09-.15-.15-.09Z"/>
        <polygon class="cls-1" points="45.51 50.88 45.49 50.9 45.41 50.61 45.51 50.88"/>
      </g>
    </g>
    <g>
      <g>
        <path class="cls-1" d="M50.07,28.07c.07-.16-.23-.13,0-.16.06.1.1.19,0,.16Z"/>
        <path class="cls-1" d="M49.71,28.25c.91.1.54,1.06,1.23,1.35.06.05-.38.17-.22.26.82.22.8,1.21.62,1.98h-.12c-.03.15.39.15.39.3-.07.03-.12,0-.21.07.23-.05.19.19.38.18-.07.08-.25.14-.32.24l.28-.02c.69-.01.14.5.52.68-.06,0-.12,0-.17.03.49.34.58.94.86,1.42-.1,0-.27.02-.37.07.28-.03.4.11.48.24-.28.12.29.2.16.4h-.07c.32.07-.15.21.22.25l-.22.11c.41,0-.19.21.03.28h.08c.11.07-.09.15,0,.23h-.05c.13.21-.08.35.24.32-.25.09-.14-.19-.5-.05.23.32.28.68.29,1.03.02.35,0,.71-.02,1.06-.13.07-.18.11-.3.11.05.07,0,.26.16.35,0-.02-.17.02-.19.05-.14.1.32.2.15.31-.07-.07-.17-.11-.29-.11.22.16.15.31.2.47-.05-.03-.07-.07-.17-.09.25.22-.11.26.04.43l-.17-.1c-.26.15.36.17.17.31-.04-.06-.11-.07-.18-.09.26.26.05.5.09.7-.02-.02-.07-.03-.07-.03-.03.2-.2.34-.14.6-.11.03-.39-.21-.42-.01.34.16-.04.36.39.46-.15.13-.41.3-.36.47-.08-.14-.43-.17-.38-.31l-.24-.03c-.12-.09.1-.06-.08-.14-.02.06,0,.32-.08.34.13.24.38.57.28.78-.05-.17-.36-.21-.37-.3.13.22.25.45.36.68-.03.07-.23-.18-.23-.03.08.06.09.14.13.21-.05,0-.14.31-.42.08-.12-.07.02-.14-.13-.17-.09.1,0,.19-.1.28l-.04-.03c-.1.02-.08.29.13.37.06-.04-.17-.14-.03-.13.1.2.02.35-.08.45,0-.08-.07-.14-.13-.23.05.34-.03.55-.13.78.11.14-.13-.29-.05-.24-.36-.03-.25.61-.64.46.01-.05.16.19.13.15-.12.06-.26-.15-.27-.02-.09-.12-.06.11-.11.19.02.11-.06-.05,0-.1-.03.17-.35.62-.71.57.05.09.01.4-.06.42l-.08-.22c-.12-.1-.19.11-.29-.06,0,.31.38-.44.3-.17-.13-.15-.07.44-.18.14-.1.06-.12.35-.37.23.06.01,0-.35-.11-.28-.19.13-.02.13-.17.28l-.09.13c.05.22-.22.05-.07.26-.06-.17-.34.24-.36-.14v-.3c-.09.05-.12.37-.2.53-.01-.02-.04-.07-.04-.12,0,.47-.24.03-.38.43-.1-.05-.24-.01-.36,0-.11-.1-.2-.2-.21-.38-.17.04-.37.11-.49-.11.05-.01.1,0,.14-.08-.05-.2-.11-.11-.23-.11.05-.05-.08-.39-.08-.6-.19.02-.29.25-.38.36.06-.23-.07-.25-.21-.28-.13-.03-.31-.09-.21-.27.07-.02.31,0,.29-.17.22-.4-.4.06-.38-.22l-.23.28c.1-.21-.35-.07-.06-.31-.14.04-.06-.25-.31,0,.02-.43-.66-.49-.25-1.04-.07,0-.09-.13-.22,0-.12.18.18,0,.08.11-.03-.03-.12.02-.16.05,0-.13-.01-.21.28-.3.06-.3-.63.16-.67-.16.13-.07.17-.12.1-.17h-.29c-.04-.2.24-.27.45-.4-.08-.06-.13-.17-.31-.12l.22-.25c-.16.18-.17,0-.24,0h.08c.08-.05-.02-.12-.08-.15-.13.08-.13.21-.14.29-.12,0-.13-.07-.28-.08.23-.09.08-.22.07-.3,0-.1-.25,0-.25-.03.12-.05-.03-.15.15-.15.05.01-.09.12.03.12.06-.09.27-.18.08-.22-.14-.04-.43.21-.36-.01.07.02.17,0,.26-.01l.06-.2-.21.08s.07-.03.09-.06c-.23.04-.15-.21-.41-.15-.05-.07.08-.22.08-.3h.02c.09-.12-.03-.22-.21-.25h.05c0-.06-.07-.18-.21-.21.13-.18.8-.26.5-.33-.03-.12-.44-.11-.57-.03.1-.27-.32-.49-.02-.77-.1-.02-.15,0-.21-.06.04-.37-.3-.77.12-1.08.1.1.22,0,.35,0-.2-.08.2-.1-.14-.13-.2,0-.3,0-.38.1-.11-.22-.13-.56.07-.67-.1.05-.16,0-.21-.05.32.03.39-.12.29-.24l-.19-.03.21-.06c-.06-.05-.4-.09-.2-.19.08,0,.15,0,.21-.01-.14-.14-.38-.36-.2-.47l.3-.06c-.02-.06-.18-.19-.27-.1.2-.2.25-.34.5-.36-.48-.5-.32-1.09-.14-1.51l.13.06c.17-.07-.22-.15-.1-.2.12.09.31.02.45.17.2-.11-.17-.3-.2-.44-.17-.09.09.13-.13.02-.06-.05.22-.18-.03-.31.12,0,.31.12.41.18l-.08-.15c.37.02.44.49.88.53v-.1c.32.04.21.34.41.18-.09-.14-.44-.38-.6-.35.02-.22-.59-.36-.47-.56.18.01-.05.18.19.24.26,0-.02-.25.09-.3-.15.05-.37-.15-.39-.24.18-.05.22.19.32.05-.14-.1-.18-.29-.35-.22-.31-.22.17-.11-.05-.33.26.07.48.43.68.33-.24-.09-.21-.36-.6-.45.1-.03.28.05.4.17.19-.02-.3-.45.16-.24l-.22-.16c.09.01.17,0,.32.02.04-.08-.18-.44.16-.24-.03-.05.11-.21-.18-.28-.22.02.1.23-.26.11.3.06.06-.19.01-.3l.14.07c-.03-.07.06-.14-.07-.25.06.07.16.11.21.1l-.17-.16c0-.21.37.18.41,0l.08.21s.2.02.19-.09c-.16-.14-.35-.33-.47-.44-.02-.13.23.09.1-.11l.14.25c.05.05.35.12.41,0-.02-.11-.2-.39-.37-.34.04-.06.2-.06.3.07.02-.17-.2-.11-.24-.29.15.03.41.01.63.05l.22.31.05-.07c.17.26.21.08.42.3.07-.02.03-.14,0-.23-.49-.14-.43-.55-.82-.76.04-.28.95.51.54-.11-.12-.03-.32-.34-.3-.13.13-.1-.3-.36-.04-.39.06.21.44.17.53.47-.11-.1-.15.02-.13.07.17.05.35.28.43.15.02-.09.1-.19-.09-.32-.2-.15-.07.12-.23-.08.05-.19.37.02.07-.32-.05.11-.27-.03-.41-.14v-.17s.12.12.12.12c.24-.09-.2-.24-.02-.38l.32.13c.19.22-.3.16.09.42.1-.09-.05-.28.13-.3.01.05,0,.08,0,.13.04-.03.55.33.4-.05-.04-.17-.11-.13-.24-.24.1-.2.01-.37.08-.49.24.24.19-.17.35.18-.2-.08-.39.18-.19.45.36.2-.16.09.13.39.12-.13.42.13.64.28.04-.02-.01-.13-.02-.18-.17-.17-.21-.12-.41-.28.18-.1.19-.33.08-.57.13.03.3.21.27.28.09-.22.28-.38.48-.5-.39-.16.09-.25-.22-.4-.14.03-.42-.09-.51-.26.07-.04.13.12.21.15-.1-.22.35.13.16-.18-.05.25.33.36.53.61-.03-.23.16.16.25.05-.03-.24,0-.46.07-.62.36.06.38-.36.51-.5.18.05.38.34.5.31.08-.09-.33-.21-.09-.22l.04.06c-.02-.1.41-.06.09-.46l.22.32s.01-.08,0-.13c.09.09.19.14.21.24.26.12.14-.19.22-.28l-.21-.11c.03-.27.28-.2.37-.4l.15.17v-.18c.12.18.29.21.22.03l.14.61c-.15-.04-.11-.26-.3-.39-.16-.11-.26.06-.13.24.07-.03.04-.07.02-.17.23.21.14.28.24.46.02-.03.12,0,.06-.08.05.16.01.23-.07.31-.02-.14-.16-.11-.2-.19.18.21.15.34,0,.39-.29-.15-.06.34-.24.39-.14-.24-.23-.46-.23-.62-.17-.03-.08.09-.26.06.11.18.3.43.29.62l-.15-.14c-.02.16.19.37.04.44-.27.12-.48.31-.64.44l-.15-.13c.24.39-.14.4-.09.65-.32.07-.23.56-.58.43-.18.46-.34.85-.7,1.18l-.19-.24c.12.2-.17-.06-.18.04.24.06.18.28.29.44-.3.04-.25.41-.18.68l-.17-.11c.21.37-.19.36-.38.53-.09-.02-.27-.09-.29-.02.21.28.15.32.22.58-.07.11-.22.27-.4.33.2.66-.32.97-.24,1.54l-.23-.05c.35.63-.3,1.03-.13,1.49l-.39-.12c-.14.1.07.31.36.33-.14.1.16.33-.19.36-.09.12.16.17.2.28-.2.23-.17.33-.08.56l.02-.06c-.09-.03-.26-.03-.29.03.12.09-.1.33.39.23-.26.26.21.54-.1.81.13-.04.17.02.26.03.05.19-.17.47.08.58-.06.05-.23,0-.23.09.06.04.17-.04.25,0,.32.24,0,.72.15,1.01.24.2.41.43.54.68.15.24.31.48.47.69l-.08.05c.4-.09-.01.58.51.33-.04.09.07.16-.09.26.14-.03.17.08.21.2.02.06.05.12.08.15.02.01.06,0,.12-.04,0-.01-.01,0-.05.03-.07.24.14.02.11.25-.02.04-.05.05-.09.15-.03.22.22-.36.08.14.02.01.08-.24.07-.23.02.05.04.1.07.12.08,0,.18-.09.24-.19.09-.1.06-.17.19-.29.46.09.38.7.49.25.06.07-.07-.17-.02-.08.04-.17.41.37.37.11-.17-.23-.03-.17-.12-.32.29.04.49.24.52-.05l.07.14c-.06-.49.27-.45.11-.94.84-.78,1.22-1.77,1.56-2.68.11-.22.2-.45.29-.68l.12-.75c.14-.48.07-1.04.25-1.58.42-.27.39-.31.19-.59.07,0,.08.02.14,0-.33.01-.06-.21-.37-.21,0-.43-.11-.81-.21-1.25.05.06.33.05.28-.04l-.23-.05.09-.03c-.06-.05-.24-.07-.32,0-.29-.52-.34-1.08-.37-1.66-.1-.58-.19-1.18-.44-1.71.01-.31-.21-.64-.44-.88-.02-1-.11-1.92-.8-2.61,0,0,.79-.31,1.15-.05Z"/>
        <path class="cls-1" d="M49.96,28.23c-.13-.1-.27-.09-.36-.31.11.11.27.2.36.31Z"/>
        <path class="cls-1" d="M46.6,29.13s-.08-.01-.1-.02c.02-.04-.06-.16.02-.12-.02.04.04.09.08.15Z"/>
        <path class="cls-1" d="M46,29.67c-.1-.11-.07-.31-.02-.4l.02.4Z"/>
        <path class="cls-1" d="M45.05,29.86c-.14-.03-.18-.09-.12-.15.06.04.07.09.12.15Z"/>
        <path class="cls-1" d="M45.27,30.11s-.13.02-.21-.01c.1.08.04-.16.21.01Z"/>
        <path class="cls-1" d="M43.9,31.17s.04.18-.12.12c.12.03-.04-.27.12-.12Z"/>
        <path class="cls-1" d="M43.64,31.96s-.05,0-.03.06c-.08,0-.14-.1-.13-.14l.17.08Z"/>
        <polygon class="cls-1" points="44.67 45.67 44.55 45.66 44.67 45.57 44.67 45.67"/>
        <path class="cls-1" d="M50.99,44.81c0-.13.14.06.16.07-.05.07-.1-.15-.16-.07Z"/>
        <polygon class="cls-1" points="52.49 41.72 52.49 41.74 52.22 41.6 52.49 41.72"/>
      </g>
      <g>
        <path class="cls-1" d="M66.78,44.68c.06-.16-.25-.11-.01-.15.07.09.12.18.01.15Z"/>
        <path class="cls-1" d="M66.15,43.67c-.83.43-1.07-.56-1.8-.39-.07,0,.2-.37.02-.35-.73.25-1.38-.36-1.85-1.04l.08-.09c-.09-.13-.38.18-.49.08.03-.07.08-.09.09-.2-.11.21-.27.01-.38.15-.02-.11.05-.28.02-.4l-.16.22c-.41.51-.48-.23-.87.02.03-.06.07-.09.07-.16-.57.25-1.11.03-1.65.03.04-.09.1-.25.09-.36-.09.27-.25.29-.4.32,0-.29-.28.23-.41.05l.02-.06c-.17.29-.15-.2-.3.15l-.04-.24c-.11.4-.14-.23-.27-.04v.08c-.11.09-.14-.12-.23-.07v-.05c-.21.08-.31-.16-.33.16-.05-.26.2-.09.12-.48-.35.1-.69.18-1.03.22-.34.04-.68.03-1.01.04-.09-.13-.14-.15-.17-.27-.06.08-.25.11-.28.28.02-.01-.07-.15-.11-.16-.14-.09-.07.37-.23.26.04-.09.04-.2,0-.31-.07.27-.23.26-.34.36,0-.06.03-.09,0-.19-.08.3-.29,0-.37.19v-.19c-.27-.17.04.38-.16.31.02-.07-.01-.14-.03-.21-.06.38-.34.37-.46.54,0-.03-.02-.07-.02-.07-.15.1-.37.08-.5.28-.1-.04-.18-.43-.32-.27.17.33-.21.3.08.62-.16.03-.46.04-.48.2-.01-.16-.31-.34-.21-.44l-.21-.13c-.07-.14.13-.01,0-.16-.06.05-.16.28-.25.27,0,.25.18.69.05.85-.01-.18-.29-.29-.28-.38.07.25.14.5.23.73-.04.05-.2-.22-.21-.08.07.07.08.14.11.22-.05-.02-.14.24-.42-.01-.12-.09.03-.13-.11-.17-.09.09,0,.19-.08.28l-.04-.03c-.1.02-.05.29.15.36.05-.03-.17-.14-.04-.12.11.19.06.33-.01.42-.02-.07-.09-.13-.16-.21.1.32.05.49.04.7.13.11-.21-.25-.12-.21-.33.04,0,.58-.4.53,0-.04.21.13.17.1-.08.07-.29-.07-.25.04-.13-.08-.02.1-.02.18.07.09-.07-.02-.05-.09.05.16.05.62-.26.72.09.04.25.29.22.33l-.2-.12c-.14-.02-.06.17-.24.09.2.23-.02-.51.1-.27-.19-.05.23.36-.03.19-.04.11.15.3-.07.26.04,0-.27-.18-.28-.11-.01.12.09.07.12.17l.07.07c.22.06-.06.07.2.09-.19-.02.07.12-.3.07l-.3-.05c0,.05.29.11.42.14-.03,0-.1.01-.15,0,.48.01-.07.09.29.12-.09.04-.11.08-.14.12,0,.04-.01.08-.15.13.19.02.38,0,.32.08-.05,0-.07,0-.17.03-.1.09.03.05.12.05-.07.02-.19.19-.28.33.17,0,.35-.17.48-.25-.17.15-.07.14.02.12.1-.01.16-.06.07.14-.08,0-.24.06-.28.18-.24.38.37-.09.33.17l.22-.29c-.11.22.31,0,.05.26.13-.06.06.21.28-.07,0,.4.57.25.32.84.07-.03.11.08.2-.08.07-.2-.15.07-.09-.06.03,0,.1-.07.13-.1.02.11.05.17-.18.37.03.29.49-.39.59-.15-.09.12-.1.18-.04.19l.24-.16c.09.11-.1.33-.22.54.09,0,.17.06.29-.09l-.06.32c.04-.23.13-.1.19-.14l-.06.04c-.04.1.08.09.13.08.06-.14,0-.24-.02-.31.09-.08.13-.03.23-.12-.12.21.03.21.07.27.04.08.16-.16.18-.15-.05.12.1.06-.03.2-.04.03,0-.13-.08-.04,0,.1-.09.3.06.19.12-.09.17-.45.24-.26-.06.04-.1.13-.16.2l.07.16.09-.2c0,.06-.02.07-.03.1.12-.2.21,0,.33-.24.06,0,.07.19.12.24h-.02c.03.16.15.12.25,0l-.02.05s.13.02.22-.1c.05.18-.18.82,0,.57.11.01.26-.36.25-.51.15.18.41-.13.52.24.04-.08.03-.14.09-.18.26.12.56-.25.76.21-.08.09,0,.22,0,.35.07-.2.08.21.11-.13,0-.2,0-.3-.07-.38.16-.11.39-.08.49.09-.05-.09-.02-.15.01-.22,0,.32.13.35.21.23v-.2s.07.19.07.19c.03-.07,0-.41.1-.24.01.07.03.15.05.2.08-.17.16-.46.28-.31l.13.27s.08-.21-.01-.29c.2.15.31.15.42.39.16-.68.54-.83.88-.89l.04.14c.14.1-.04-.26.06-.18.02.14.17.26.16.45.19.1.08-.29.14-.38-.06-.18-.02.13-.09-.1-.01-.06.23.08.14-.21.07.09.13.3.16.42l.02-.17c.23.26.02.67.27,1.01l.06-.08c.19.24-.07.42.16.42.03-.18-.07-.6-.19-.68.14-.16-.2-.68-.02-.74.12.13-.12.11,0,.31.18.17.11-.2.22-.16-.13-.06-.18-.36-.15-.43.14.08.06.28.2.24-.05-.16,0-.33-.14-.39-.12-.36.17.03.11-.26.16.22.15.62.35.67-.14-.22,0-.4-.24-.7.09.04.18.22.22.38.15.1-.04-.51.23-.07l-.1-.24c.07.06.12.11.24.21.07-.03.04-.41.23-.07,0-.04.15-.13-.04-.33-.17-.08,0,.24-.24-.06.22.24.11-.11.11-.23l.09.13c0-.07.09-.09.02-.25.02.09.09.17.13.19l-.09-.22c.06-.18.24.33.33.19v.22s.16.11.18,0c-.09-.2-.19-.44-.26-.59.02-.12.16.18.11-.05l.05.28c.02.07.25.26.34.19.02-.1-.06-.42-.22-.46.04-.03.18.03.23.19.06-.13-.14-.18-.13-.35.12.09.34.19.53.31l.11.36.07-.04c.08.29.17.15.29.43.07,0,.07-.11.07-.21-.41-.31-.24-.64-.54-.97.1-.21.74.79.51.12-.1-.07-.22-.4-.25-.22.13-.03-.19-.4.04-.34.02.22.37.27.4.59-.08-.12-.14-.04-.14.01.15.1.26.36.37.28.04-.09.12-.17-.03-.34-.16-.2-.08.1-.2-.13.07-.18.33.11.1-.29-.06.09-.24-.09-.34-.23l.02-.16.09.15c.22-.03-.15-.28.02-.36l.27.2c.15.25-.28.08.03.42.1-.06-.01-.28.15-.26,0,.05-.01.08,0,.13.04-.02.47.43.37.04-.02-.17-.09-.14-.2-.28.11-.17.04-.34.12-.44.2.28.19-.12.31.23-.18-.11-.38.09-.22.38.31.26-.15.06.07.4.13-.1.38.21.56.4.05-.02,0-.13,0-.18-.14-.2-.19-.16-.35-.35.18-.07.22-.28.14-.53.12.05.27.25.23.31.11-.19.31-.32.51-.4-.37-.21.11-.22-.19-.4-.14,0-.4-.15-.48-.32.07-.02.12.13.2.18-.08-.21.34.17.17-.13-.06.22.3.38.49.63-.01-.22.15.17.25.07,0-.21.02-.44.08-.6.34.07.35-.36.46-.49.18.04.38.34.5.31.08-.09-.33-.2-.1-.22l.04.06c-.02-.1.4-.07.07-.46l.24.3s0-.08,0-.13c.09.09.2.14.22.23.27.1.13-.2.2-.29l-.22-.1c.01-.27.27-.21.34-.41l.16.15-.02-.17c.14.16.32.18.23.01l.19.59c-.16-.03-.13-.25-.33-.36-.17-.1-.25.08-.12.24.07-.03.03-.07.01-.16.24.19.16.26.28.44.02-.04.12-.01.06-.08.06.16.03.22-.05.32-.03-.14-.17-.1-.21-.18.19.19.17.33.01.39-.3-.14-.05.35-.23.41-.15-.24-.24-.46-.25-.62-.17-.02-.08.09-.25.07.11.18.31.43.3.62l-.15-.14c-.02.17.2.38.04.46-.27.13-.46.35-.64.48l-.15-.14c.21.39-.2.38-.19.63-.34.04-.33.54-.67.37-.27.44-.5.85-.95,1.11l-.11-.28c.06.23-.15-.1-.2-.02.23.13.08.31.14.5-.33-.05-.42.31-.48.6l-.12-.16c.04.43-.36.3-.6.39-.07-.05-.21-.19-.26-.13.06.36-.02.38-.09.67-.13.08-.4.11-.6.07-.32.66-.97.69-1.44,1.17l-.13-.21c-.41.66-1.27.48-1.72.83l-.03-.41c-.18-.1-.35.16-.26.44-.19-.1-.39.26-.54-.06-.18-.05-.19.22-.33.29-.36-.1-.48-.06-.82,0l.08.03c.04-.09.03-.26-.05-.29-.12.11-.45-.12-.33.37-.34-.31-.87.23-1.17-.23.01.14-.08.15-.13.23-.32-.06-.59-.39-.89-.22-.03-.08.13-.2.01-.24-.09.03-.05.17-.16.22-.58.1-.91-.59-1.35-.68-.42-.06-.81-.24-1.17-.43-.36-.21-.67-.47-1-.68l.07-.07c-.44.13-.22-.68-.74-.39.02-.11-.15-.19.01-.3-.17.03-.23-.12-.3-.26-.04-.08-.07-.14-.14-.21-.08-.08-.18-.14-.32-.16.02.04.05.04.12.04-.13-.44-.59-.6-.71-1.04.07.02.15.07.25.04.08-.19-.64-.18-.22-.4-.06-.07-.28.01-.23.06-.06-.15-.14-.29-.23-.43.13-.39.17-.77.26-1.19l.12-.64c.04-.2.15-.47.18-.59.48-.34.72.33.59-.19.1.01-.15-.1-.06-.06-.04-.2.58.05.42-.16-.27-.11-.1-.14-.25-.23.32-.17.56-.08.51-.4l.12.1c-.19-.47.19-.6-.06-1.1.93-1.34,2.11-2.61,3.66-3.36.4-.13.79-.28,1.18-.42.4-.1.8-.18,1.2-.27.81-.22,1.6-.14,2.41-.05.36.39.37.39.78.28-.02.06-.05.07-.03.14.05-.32.28,0,.34-.3.56.14,1.1.09,1.67.21-.09.01-.19.26-.08.27l.15-.18v.09c.08-.03.19-.17.14-.29.73.05,1.41.33,2.06.63.61.36,1.19.75,1.84.96.24.25.74.28,1.06.39.73.87,1.35,1.59,2.41,1.79,0,0-.54.67-1,.66Z"/>
        <path class="cls-1" d="M66.67,44.84c-.15-.08-.29-.06-.39-.27.12.09.29.17.39.27Z"/>
        <path class="cls-1" d="M63.39,45.81s-.08-.02-.1-.04c.02-.03-.05-.15.03-.11-.02.03.04.08.07.15Z"/>
        <path class="cls-1" d="M62.77,46.22c-.09-.12-.05-.3.01-.38v.38Z"/>
        <path class="cls-1" d="M61.86,46.2c-.12-.06-.15-.12-.09-.17.05.06.06.1.09.17Z"/>
        <path class="cls-1" d="M62.04,46.49s-.12,0-.19-.06c.08.1.05-.14.19.06Z"/>
        <path class="cls-1" d="M60.65,47.04s-.01.17-.13.05c.09.07.03-.24.13-.05Z"/>
        <path class="cls-1" d="M60.24,47.58s-.04-.01-.04.03c-.07-.03-.09-.15-.07-.18l.12.14Z"/>
        <polygon class="cls-1" points="49.91 47.81 50.01 47.8 49.9 47.9 49.91 47.81"/>
        <path class="cls-1" d="M50.86,44.49c-.02-.11.13.06.16.06-.03.05-.12-.14-.16-.06Z"/>
        <polygon class="cls-1" points="52.64 42.19 52.63 42.21 52.5 41.94 52.64 42.19"/>
      </g>
    </g>
    <g>
      <path class="cls-1" d="M88.21,48.11c-.09-.94-.54.5-.2-.61.23.13.4.31.2.61Z"/>
      <path class="cls-1" d="M87.75,44.41c-.21-.36-.36-.73-.51-1.12-.16-.38-.29-.78-.4-1.18-.21-.81-.32-1.66-.42-2.53-.16-.85-.34-1.72-.57-2.56-.12-.42-.25-.83-.4-1.22-.17-.39-.41-.74-.66-1.08-.19-.33.82-.18.34-.92-.27-.32-.53-.67-.77-1.05-.23-.38-.45-.79-.72-1.2-.49-.83-.93-1.75-1.32-2.72-.93-1.87-1.69-3.97-2.55-5.77l.33.05c-.33-.69-1.43-.98-1.89-1.6.11-.11.34.04.38-.23-.49.16-1.12-.91-1.6-.92-.07-.35.22-.59.1-1.03l-.69.04c-.85-.04-1.42-.51-1.93-1.13-.53-.6-1.03-1.35-1.9-1.62.14-.05.34-.02.31-.2-.67-.26-1.32-.57-1.97-.94-.66-.35-1.28-.79-1.98-1.12-1.37-.71-2.7-1.56-4.13-2.01.19-.12.45-.38.38-.65-.39.44-1.27.17-2.03-.07-.08-.73-1.46,0-2.2-.63l.12-.09c-.85.34-.84-.68-1.59-.18l-.27-.59c-.52.7-.84-.66-1.51-.4l-.03.17c-.57.06-.73-.41-1.25-.4l-.02-.1c-1.16-.11-1.75-.61-1.84.02-.31-.56,1.15-.06.67-.89-3.93-.08-7.82-.34-11.68-.02-.46-.2-.75-.23-.88-.46-.37.19-1.44.34-1.73.71.13-.03-.3-.28-.51-.29-.75-.12-.63.78-1.43.7.26-.24.32-.47.17-.68-.54.65-1.41.8-2.12,1.15.09-.13.25-.24.17-.43-.67.76-1.56.24-2.15.88l.15-.45c-1.29,0-.09.86-1.15.96.19-.2.06-.3.06-.46-.35.48-.9.81-1.47,1.08-.58.25-1.12.58-1.52.87.03-.07-.03-.16-.03-.16-.46.27-.95.47-1.45.7-.5.22-1,.5-1.41.94-.44.07-.33-.86-1.22-.15.42.62-1.46,1.24-.45,1.61-.22.09-.47.2-.73.31-.25.13-.5.28-.75.43-.49.3-.92.61-1.09.9.17-.48-.92-.44-.32-.97h-.76c-.11-.29.57-.29.18-.48-.31.28-1.09,1.19-1.43,1.35-.27.86-.2,1.95-1,2.8.21-.58-.8-.38-.61-.73-.09.72-.17,1.42-.17,2.17-.23.31-.48-.34-.72.21.16.11.09.38.09.61-.16.05-.93,1.3-1.61.96-.34-.06.31-.57-.18-.42-.49.54-.27.76-.71,1.34l-.09-.05c-.38.32-.6,1.32.04,1.14.22-.25-.43-.16.04-.43.14.53-.26,1.25-.68,1.82.05-.26-.13-.35-.24-.54-.12,1.09-.41,2.09-.77,3.09.29.19-.34-.66-.1-.7-.55.46-.81,1.14-.98,1.81-.17.67-.34,1.3-.9,1.66.02-.19.49.12.4.09-.32.56-.77.33-.78.79-.29-.08-.17.51-.21.97.12.29-.17.05-.07-.32.01.34-.08,1.12-.29,1.95-.22.83-.54,1.72-.89,2.35.19.03.48,1.02.38,1.32l-.41-.23c-.34.22-.23,1.05-.63,1.02.37.8.21-2.69.39-1.68-.43.14.38,1.44-.17,1.09-.14.64.18,1.34-.31,1.87.1-.16-.54-.64-.59-.11-.06.94.17.3.21,1.07l.11.49c.44.09-.18.8.36.53-.38.07.01,1.33-.69,1.17l-.57-.19c.01.41.57.72.81,1.05-.06.05-.18.14-.27.12.88.12-.12.95.54,1.45-.17.41-.21.93-.27,1.4-.01.47-.06.89-.33,1.09.3.64.65,1.19.5,1.93-.09-.14-.13-.33-.32-.36-.24.48,0,.58.16.98-.17-.08-.39.96-.63,1.52.36.6.8.31,1.1.33-.76.72.77,1.67.2,2.52-.19-.18-.63-.82-.74-.25-.71.77.93,1.01.75,2.02l.65-.41c-.33.52.74,1.21,0,1.32.3.23.11,1.12.75.81-.02.81.39,1.66.68,2.46.27.81.62,1.51.22,2.22.2.15.34.7.61.44.2-.5-.48-.34-.29-.58.11.17.3.12.4.1.06.5.18.87-.55.72.09,1.17,1.51.47,1.97,1.73-.29.09-.33.24-.08.55l.82.38c.35.8-.31.78-.72,1.07.32.36.6.88,1.05.82l-.17.82c.12-.6.48.14.71.24l-.23-.11c-.12.19.32.56.53.74.21-.24-.03-.76-.14-1.05.32.06.5.39.9.49-.45.21.18.82.36,1.15.17.41.65.08.71.19-.19.17.43.54-.06.52-.16-.06-.04-.4-.37-.44.04.33-.31.59.33.82.48.17.65-.72.98.1-.24-.08-.41.02-.65.01l.34.75.35-.28c-.01.15-.09.13-.1.2.5-.15.91.79,1.4.55.31.24.39.77.63,1.06l-.08-.02c.16.5.73.79,1.21.82l-.08.06c.16.19.64.55,1.04.54.29.63-.89,1.43.03,1.42.54.38,1.31-.04,1.27-.42.37.46.92.74,1.43,1.06.54.27,1.05.56,1.32,1.13.23-.07.21-.22.55-.13.67.52,1.48.87,2.27,1.16.78.32,1.46.7,1.89,1.4-.52-.04-.21.39-.3.63.52-.18.3.57.69,0,.12-.39.22-.54-.15-.88,1.01.16,2.42.66,2.82,1.22-.2-.27.04-.32.28-.35-.27.59.4.95,1.01.84l.19-.36.24.48c.24-.07.44-.73.88-.23,0,.15-.02.31.06.44.65-.19,1.52-.45,2.07-.06l.4.64c.28-.02.78-.29.34-.53.99.5,1.67.65,1.95,1.19,1.98-1.03,4.54-.92,6.65-1.03l-.04.3c.59.25.26-.53.67-.34-.16.29.49.58.06.95.86.29,1.01-.6,1.51-.8.03-.39-.39.31-.35-.19.07-.15,1.15.13,1.19-.47.23.2.14.64.07.89l.45-.35c.73.58-1.21,1.41-.45,2.14l.47-.16c.56.53-1.18.88.07.9.49-.37.79-1.26.29-1.45,1.04-.33.25-1.41,1.36-1.59.18.13-.03.21-.25.3-.23.07-.46.16-.31.38.63.41,1-.5,1.49-.44-.56-.08-.26-.77.04-.95.62.12-.23.63.57.48.05-.36.69-.78.02-.85.08-.8.86,0,1.11-.67.41.45-.45,1.39.49,1.43-.27-.43.83-1.02.15-1.59.36.02.53.4.39.78.57.13.81-1.3,1.31-.39l-.02-.55c.2.11.46.15.8.33.21-.07.47-.36.72-.53.24-.19.45-.28.59.09.09-.14,1.01-.54.43-.87-.69-.04-.47.68-1.08.14.63.37.76-.46.99-.79l.18.25c.14-.2.6-.35.57-.7-.06.23.1.38.29.37v-.51c.64-.57.55.65,1.23.16-.12.21-.26.4-.4.6.08-.14.57.16.84-.2-.07-.46-.08-1.06-.13-1.41.3-.4.42.31.59-.31l-.25.76c0,.17.7.4,1.25.05.28-.34.47-1.18-.19-1.05.26-.17.78-.18.74.22.53-.49-.33-.34.05-.87.37.11,1.21-.04,1.85,0l-.11.98.36-.26c-.13.81.49.18.58.86.3-.11.48-.5.63-.8-1.29-.24-.01-1.64-.77-2.18.78-.87,1.95,1.19,1.99-.68-.3-.04-.32-.93-.7-.24.6-.42-.23-.99.64-1.29-.22.69,1.12.19.79,1.2-.15-.26-.54.19-.59.35.45.04.54.71,1.12.18.29-.38.76-.83.37-1.09-.37-.35-.49.52-.62-.05.57-.73,1.21-.32.82-1.23-.33.48-.81.21-1.05-.05.12-.19.2-.42.3-.62l.16.33c.88-.62-.23-.65.51-1.34l.82.09c.26.56-1.19.93-.39,1.44.49-.48.29-.96.89-1.27-.04.16-.15.32-.18.48.18-.15,1.28.47,1.4-.73.1-.57-.17-.31-.43-.54.57-.94.48-1.41.85-2,.46.52.79-.95.9.08-.54.06-1.44,1.32-1.17,2.05.43.09.28.25.08.47-.22.21-.5.47-.27.82.63-.65,1.2-.12,1.69.09.18-.19.16-.52.19-.7-.32-.39-.51-.12-.92-.42.71-.73,1.08-1.67,1.01-2.38.4-.13.74.23.54.58.32-.51.61-1.06.94-1.58.33-.52.69-1.01,1.06-1.46-1.07.23.49-1.18-.35-1.07-.46.44-1.22.58-1.37.13.24-.29.3.18.53.14-.13-.6.99-.3.58-1.04-.23,1.08.77.65,1.24,1.12.03-.88.38.24.72-.48.04-.88.21-1.88.47-2.72.94-.81.97-2.63,1.29-3.54.43-.41,1.02.14,1.28-.38.15-.65-.86.27-.3-.6l.11.13c-.09-.33.92-1.66,0-2.16l.67.46c.11-.16-.01-.37-.06-.54.24.05.52-.12.6.21.71-.49.14-1.31.24-1.97l-.51.35c-.19-1.18.4-1.87.37-2.99l.44.08-.23-.68c.42.2.73-.39.39-.77.33.6.68,1.21.98,1.84-.32.46-.47-.59-.94-.32-.4.22-.45,1.24-.05,1.47.11-.39.02-.42-.1-.74.63-.06.52.54.88.9,0-.21.24-.49.05-.56.24.45.22.88.13,1.58-.17-.51-.42.19-.56-.01.53.14.59.84.31,1.67-.77.46-.01,1.67-.43,2.62-.43-.54-.73-1.15-.8-1.78-.42.53-.16.67-.58,1.2.32.39.88.77.91,1.64l-.4-.08c-.02.77.52.95.09,1.82-.38.74-.71,1.5-1.01,2.22-.36.69-.7,1.34-.99,1.9l-.38-.13c.24.5.06,1.06-.19,1.62-.25.56-.65,1.06-.72,1.57-.58.58-.95,1.37-1.3,2.06-.39.66-.8,1.21-1.32,1.33-.36.61-.71,1.2-1.05,1.78-.38.56-.79,1.08-1.2,1.61-.41.53-.84,1.05-1.3,1.57-.49.48-1.03.95-1.59,1.41l-.04-.76c-.09.67-.48-.02-.79.38.75-.04-.11.93-.16,1.45-1.28.5-2.34,1.84-3.04,2.9l-.27-.31c-.56,1.29-2.16,1.44-3.46,2.1-.22-.05-.64-.28-1.01-.05-.41.93-.81,1.07-1.7,1.95-.76.42-2.15.71-3.05.78-.68.47-1.39.94-2.16,1.22-.77.29-1.56.52-2.36.75l-1.21.33-1.23.23c-.82.16-1.65.36-2.47.62l-.29-.44c-.78.33-1.65.49-2.53.6-.88.09-1.79.21-2.68.1-1.78-.16-3.48-.23-4.91-.26l.37-.77c-.82-.38-1.99-.09-1.87.52-.42-.19-.98-.17-1.5-.22-.51-.08-.97-.2-1.16-.6-.84-.37-1.16.09-1.93,0-.85-.35-1.41-.63-1.99-.85-.57-.21-1.15-.36-1.99-.59l.38.19c.24-.1.38-.42,0-.62-.34,0-.87-.24-1.28-.38-.4-.15-.7-.14-.6.44-.72-.66-1.73-1.01-2.73-1.4-1-.38-1.92-.94-2.5-1.71,0,.31-.42.11-.68.17-.35-.21-.68-.45-1.01-.7-.3-.28-.6-.56-.89-.83-.59-.53-1.17-1-1.83-1.21-.12-.26.61-.11.1-.52-.37-.16-.23.27-.7.09-1.14-.69-2.05-1.69-2.88-2.69-.78-1.06-1.44-2.16-2.29-2.99-3.1-2.93-5.26-6.9-6.95-10.58l.2-.04c-1.22-.99-.39-3.24-1.84-3.89.06-.36-.24-1.22.18-1.09-.39-.45-.46-1.22-.56-2.04-.05-.41-.11-.83-.21-1.23-.09-.41-.2-.81-.43-1.16,0,.15.06.22.16.37.09-.82-.06-1.54-.22-2.27-.08-.37-.16-.74-.21-1.12-.04-.39,0-.79.06-1.21.09.16.17.46.37.49.34-.65-.9-1.45.02-1.85-.03-.36-.49-.24-.45-.02.02-1.81.13-3.66.08-5.56v-.71s.04-.71.04-.71l.09-1.43.1-1.44.06-.72.13-.7c1.22-2.5,1.58.22,1.43-2.01.22-.12-.32-.22-.12-.19-.02-.43.31-.67.6-.88.32-.2.6-.37.46-.71-.63.04-.18-.46-.5-.59.93-1.42,1.48-1.53,1.58-2.88l.24.21c-.07-.85.19-1.63.43-2.39.24-.76.43-1.52.36-2.31.53-.93,1.06-1.85,1.58-2.76.56-.89,1.19-1.74,1.78-2.61.57-.89,1.25-1.69,1.93-2.49.69-.79,1.3-1.65,2.08-2.36l2.24-2.21c.79-.69,1.62-1.33,2.44-1.99.8-.69,1.69-1.25,2.58-1.81.9-.55,1.75-1.19,2.72-1.62.95-.44,1.9-.88,2.84-1.32.96-.4,1.95-.73,2.92-1.1.49-.17.97-.37,1.47-.53l1.51-.4c1.01-.25,2-.57,3.03-.75l3.09-.48.77-.11.78-.04,1.57-.06c2.09-.15,4.19.11,6.29.34,1.88,1.03,1.98,1.06,4.17,1.06-.11.11-.25.12-.13.26.24-.66,1.49.26,1.82-.29,1.49.46,2.97.75,4.38,1.3.72.25,1.43.49,2.16.74.74.24,1.42.62,2.16.95-.49-.16-.94.22-.38.44l.75-.1v.21c.42.09.98,0,.69-.37.47.2.95.37,1.4.61l1.33.75c.87.53,1.77,1.01,2.57,1.63.8.62,1.59,1.25,2.36,1.9.4.31.76.65,1.11,1.02l1.06,1.07c1.45,1.38,2.62,3.02,3.89,4.52l1.7,2.42c.28.4.59.79.86,1.2l.78,1.25c.35.88,1,1.81,1.53,2.82.54,1.01,1.14,2.03,1.64,2.92.36,1.48.64,2.94.96,4.34.2,1.44.4,2.84.64,4.22.12,1.41.27,2.8.49,4.21.09,1.42.23,2.86.45,4.35,0,0-1.73-.79-2.24-3.09Z"/>
      <path class="cls-1" d="M88.22,49.24c-.34.19-.55.82-.96.29.31-.05.67-.37.96-.29Z"/>
      <path class="cls-1" d="M80.79,64.56c.08.06-.22.15-.29.17.06-.19-.1-.48.12-.55-.06.19.09.23.17.38Z"/>
      <path class="cls-1" d="M78.56,68.01c-.21-.22.04-1.08.28-1.54l-.28,1.54Z"/>
      <path class="cls-1" d="M75.37,70.33c-.39.09-.43-.06-.17-.4.14.07.12.24.17.4Z"/>
      <path class="cls-1" d="M75.72,70.96c-.21.24-.44.24-.67.24.2.15.36-.63.67-.24Z"/>
      <path class="cls-1" d="M69.29,75.91c-.14.13-.33.58-.66.42.3.06.52-.85.66-.42Z"/>
      <path class="cls-1" d="M66.47,78.39c-.11.05-.18.03-.26.17-.26,0-.17-.3-.02-.42l.29.25Z"/>
      <polygon class="cls-1" points="11.12 56.29 11.36 56.66 11.07 56.67 11.12 56.29"/>
      <path class="cls-1" d="M16.34,26.69c.07-.46.39-.08.47-.12-.2.32-.23-.32-.47.12Z"/>
      <polygon class="cls-1" points="27.62 14.07 27.51 14.14 27.24 13.61 27.62 14.07"/>
    </g>
  </g>
</svg>