<?xml version="1.0" encoding="UTF-8"?>
<svg id="Layer_3" data-name="Layer 3" xmlns="http://www.w3.org/2000/svg" viewBox="0 0 95 95">
  <defs>
    <style>
      .cls-1 {
        fill: #202020;
      }
    </style>
  </defs>
  <g>
    <g>
      <path class="cls-1" d="M88.21,48.11c-.09-.94-.54.5-.2-.61.23.13.4.31.2.61Z"/>
      <path class="cls-1" d="M87.75,44.41c-.21-.36-.36-.73-.51-1.12-.16-.38-.29-.78-.4-1.18-.21-.81-.32-1.66-.42-2.53-.16-.85-.34-1.72-.57-2.56-.12-.42-.25-.83-.4-1.22-.17-.39-.41-.74-.66-1.08-.19-.33.82-.18.34-.92-.27-.32-.53-.67-.77-1.05-.23-.38-.45-.79-.72-1.2-.49-.83-.93-1.75-1.32-2.72-.93-1.87-1.69-3.97-2.55-5.77l.33.05c-.33-.69-1.43-.98-1.89-1.6.11-.11.34.04.38-.23-.49.16-1.12-.91-1.6-.92-.07-.35.22-.59.1-1.03l-.69.04c-.85-.04-1.42-.51-1.93-1.13-.53-.6-1.03-1.35-1.9-1.62.14-.05.34-.02.31-.2-.67-.26-1.32-.57-1.97-.94-.66-.35-1.28-.79-1.98-1.12-1.37-.71-2.7-1.56-4.13-2.01.19-.12.45-.38.38-.65-.39.44-1.27.17-2.03-.07-.08-.73-1.46,0-2.2-.63l.12-.09c-.85.34-.84-.68-1.59-.18l-.27-.59c-.52.7-.84-.66-1.51-.4l-.03.17c-.57.06-.73-.41-1.25-.4l-.02-.1c-1.16-.11-1.75-.61-1.84.02-.31-.56,1.15-.06.67-.89-3.93-.08-7.82-.34-11.68-.02-.46-.2-.75-.23-.88-.46-.37.19-1.44.34-1.73.71.13-.03-.3-.28-.51-.29-.75-.12-.63.78-1.43.7.26-.24.32-.47.17-.68-.54.65-1.41.8-2.12,1.15.09-.13.25-.24.17-.43-.67.76-1.56.24-2.15.88l.15-.45c-1.29,0-.09.86-1.15.96.19-.2.06-.3.06-.46-.35.48-.9.81-1.47,1.08-.58.25-1.12.58-1.52.87.03-.07-.03-.16-.03-.16-.46.27-.95.47-1.45.7-.5.22-1,.5-1.41.94-.44.07-.33-.86-1.22-.15.42.62-1.46,1.24-.45,1.61-.22.09-.47.2-.73.31-.25.13-.5.28-.75.43-.49.3-.92.61-1.09.9.17-.48-.92-.44-.32-.97h-.76c-.11-.29.57-.29.18-.48-.31.28-1.09,1.19-1.43,1.35-.27.86-.2,1.95-1,2.8.21-.58-.8-.38-.61-.73-.09.72-.17,1.42-.17,2.17-.23.31-.48-.34-.72.21.16.11.09.38.09.61-.16.05-.93,1.3-1.61.96-.34-.06.31-.57-.18-.42-.49.54-.27.76-.71,1.34l-.09-.05c-.38.32-.6,1.32.04,1.14.22-.25-.43-.16.04-.43.14.53-.26,1.25-.68,1.82.05-.26-.13-.35-.24-.54-.12,1.09-.41,2.09-.77,3.09.29.19-.34-.66-.1-.7-.55.46-.81,1.14-.98,1.81-.17.67-.34,1.3-.9,1.66.02-.19.49.12.4.09-.32.56-.77.33-.78.79-.29-.08-.17.51-.21.97.12.29-.17.05-.07-.32.01.34-.08,1.12-.29,1.95-.22.83-.54,1.72-.89,2.35.19.03.48,1.02.38,1.32l-.41-.23c-.34.22-.23,1.05-.63,1.02.37.8.21-2.69.39-1.68-.43.14.38,1.44-.17,1.09-.14.64.18,1.34-.31,1.87.1-.16-.54-.64-.59-.11-.06.94.17.3.21,1.07l.11.49c.44.09-.18.8.36.53-.38.07.01,1.33-.69,1.17l-.57-.19c.01.41.57.72.81,1.05-.06.05-.18.14-.27.12.88.12-.12.95.54,1.45-.17.41-.21.93-.27,1.4-.01.47-.06.89-.33,1.09.3.64.65,1.19.5,1.93-.09-.14-.13-.33-.32-.36-.24.48,0,.58.16.98-.17-.08-.39.96-.63,1.52.36.6.8.31,1.1.33-.76.72.77,1.67.2,2.52-.19-.18-.63-.82-.74-.25-.71.77.93,1.01.75,2.02l.65-.41c-.33.52.74,1.21,0,1.32.3.23.11,1.12.75.81-.02.81.39,1.66.68,2.46.27.81.62,1.51.22,2.22.2.15.34.7.61.44.2-.5-.48-.34-.29-.58.11.17.3.12.4.1.06.5.18.87-.55.72.09,1.17,1.51.47,1.97,1.73-.29.09-.33.24-.08.55l.82.38c.35.8-.31.78-.72,1.07.32.36.6.88,1.05.82l-.17.82c.12-.6.48.14.71.24l-.23-.11c-.12.19.32.56.53.74.21-.24-.03-.76-.14-1.05.32.06.5.39.9.49-.45.21.18.82.36,1.15.17.41.65.08.71.19-.19.17.43.54-.06.52-.16-.06-.04-.4-.37-.44.04.33-.31.59.33.82.48.17.65-.72.98.1-.24-.08-.41.02-.65.01l.34.75.35-.28c-.01.15-.09.13-.1.2.5-.15.91.79,1.4.55.31.24.39.77.63,1.06l-.08-.02c.16.5.73.79,1.21.82l-.08.06c.16.19.64.55,1.04.54.29.63-.89,1.43.03,1.42.54.38,1.31-.04,1.27-.42.37.46.92.74,1.43,1.06.54.27,1.05.56,1.32,1.13.23-.07.21-.22.55-.13.67.52,1.48.87,2.27,1.16.78.32,1.46.7,1.89,1.4-.52-.04-.21.39-.3.63.52-.18.3.57.69,0,.12-.39.22-.54-.15-.88,1.01.16,2.42.66,2.82,1.22-.2-.27.04-.32.28-.35-.27.59.4.95,1.01.84l.19-.36.24.48c.24-.07.44-.73.88-.23,0,.15-.02.31.06.44.65-.19,1.52-.45,2.07-.06l.4.64c.28-.02.78-.29.34-.53.99.5,1.67.65,1.95,1.19,1.98-1.03,4.54-.92,6.65-1.03l-.04.3c.59.25.26-.53.67-.34-.16.29.49.58.06.95.86.29,1.01-.6,1.51-.8.03-.39-.39.31-.35-.19.07-.15,1.15.13,1.19-.47.23.2.14.64.07.89l.45-.35c.73.58-1.21,1.41-.45,2.14l.47-.16c.56.53-1.18.88.07.9.49-.37.79-1.26.29-1.45,1.04-.33.25-1.41,1.36-1.59.18.13-.03.21-.25.3-.23.07-.46.16-.31.38.63.41,1-.5,1.49-.44-.56-.08-.26-.77.04-.95.62.12-.23.63.57.48.05-.36.69-.78.02-.85.08-.8.86,0,1.11-.67.41.45-.45,1.39.49,1.43-.27-.43.83-1.02.15-1.59.36.02.53.4.39.78.57.13.81-1.3,1.31-.39l-.02-.55c.2.11.46.15.8.33.21-.07.47-.36.72-.53.24-.19.45-.28.59.09.09-.14,1.01-.54.43-.87-.69-.04-.47.68-1.08.14.63.37.76-.46.99-.79l.18.25c.14-.2.6-.35.57-.7-.06.23.1.38.29.37v-.51c.64-.57.55.65,1.23.16-.12.21-.26.4-.4.6.08-.14.57.16.84-.2-.07-.46-.08-1.06-.13-1.41.3-.4.42.31.59-.31l-.25.76c0,.17.7.4,1.25.05.28-.34.47-1.18-.19-1.05.26-.17.78-.18.74.22.53-.49-.33-.34.05-.87.37.11,1.21-.04,1.85,0l-.11.98.36-.26c-.13.81.49.18.58.86.3-.11.48-.5.63-.8-1.29-.24-.01-1.64-.77-2.18.78-.87,1.95,1.19,1.99-.68-.3-.04-.32-.93-.7-.24.6-.42-.23-.99.64-1.29-.22.69,1.12.19.79,1.2-.15-.26-.54.19-.59.35.45.04.54.71,1.12.18.29-.38.76-.83.37-1.09-.37-.35-.49.52-.62-.05.57-.73,1.21-.32.82-1.23-.33.48-.81.21-1.05-.05.12-.19.2-.42.3-.62l.16.33c.88-.62-.23-.65.51-1.34l.82.09c.26.56-1.19.93-.39,1.44.49-.48.29-.96.89-1.27-.04.16-.15.32-.18.48.18-.15,1.28.47,1.4-.73.1-.57-.17-.31-.43-.54.57-.94.48-1.41.85-2,.46.52.79-.95.9.08-.54.06-1.44,1.32-1.17,2.05.43.09.28.25.08.47-.22.21-.5.47-.27.82.63-.65,1.2-.12,1.69.09.18-.19.16-.52.19-.7-.32-.39-.51-.12-.92-.42.71-.73,1.08-1.67,1.01-2.38.4-.13.74.23.54.58.32-.51.61-1.06.94-1.58.33-.52.69-1.01,1.06-1.46-1.07.23.49-1.18-.35-1.07-.46.44-1.22.58-1.37.13.24-.29.3.18.53.14-.13-.6.99-.3.58-1.04-.23,1.08.77.65,1.24,1.12.03-.88.38.24.72-.48.04-.88.21-1.88.47-2.72.94-.81.97-2.63,1.29-3.54.43-.41,1.02.14,1.28-.38.15-.65-.86.27-.3-.6l.11.13c-.09-.33.92-1.66,0-2.16l.67.46c.11-.16-.01-.37-.06-.54.24.05.52-.12.6.21.71-.49.14-1.31.24-1.97l-.51.35c-.19-1.18.4-1.87.37-2.99l.44.08-.23-.68c.42.2.73-.39.39-.77.33.6.68,1.21.98,1.84-.32.46-.47-.59-.94-.32-.4.22-.45,1.24-.05,1.47.11-.39.02-.42-.1-.74.63-.06.52.54.88.9,0-.21.24-.49.05-.56.24.45.22.88.13,1.58-.17-.51-.42.19-.56-.01.53.14.59.84.31,1.67-.77.46-.01,1.67-.43,2.62-.43-.54-.73-1.15-.8-1.78-.42.53-.16.67-.58,1.2.32.39.88.77.91,1.64l-.4-.08c-.02.77.52.95.09,1.82-.38.74-.71,1.5-1.01,2.22-.36.69-.7,1.34-.99,1.9l-.38-.13c.24.5.06,1.06-.19,1.62-.25.56-.65,1.06-.72,1.57-.58.58-.95,1.37-1.3,2.06-.39.66-.8,1.21-1.32,1.33-.36.61-.71,1.2-1.05,1.78-.38.56-.79,1.08-1.2,1.61-.41.53-.84,1.05-1.3,1.57-.49.48-1.03.95-1.59,1.41l-.04-.76c-.09.67-.48-.02-.79.38.75-.04-.11.93-.16,1.45-1.28.5-2.34,1.84-3.04,2.9l-.27-.31c-.56,1.29-2.16,1.44-3.46,2.1-.22-.05-.64-.28-1.01-.05-.41.93-.81,1.07-1.7,1.95-.76.42-2.15.71-3.05.78-.68.47-1.39.94-2.16,1.22-.77.29-1.56.52-2.36.75l-1.21.33-1.23.23c-.82.16-1.65.36-2.47.62l-.29-.44c-.78.33-1.65.49-2.53.6-.88.09-1.79.21-2.68.1-1.78-.16-3.48-.23-4.91-.26l.37-.77c-.82-.38-1.99-.09-1.87.52-.42-.19-.98-.17-1.5-.22-.51-.08-.97-.2-1.16-.6-.84-.37-1.16.09-1.93,0-.85-.35-1.41-.63-1.99-.85-.57-.21-1.15-.36-1.99-.59l.38.19c.24-.1.38-.42,0-.62-.34,0-.87-.24-1.28-.38-.4-.15-.7-.14-.6.44-.72-.66-1.73-1.01-2.73-1.4-1-.38-1.92-.94-2.5-1.71,0,.31-.42.11-.68.17-.35-.21-.68-.45-1.01-.7-.3-.28-.6-.56-.89-.83-.59-.53-1.17-1-1.83-1.21-.12-.26.61-.11.1-.52-.37-.16-.23.27-.7.09-1.14-.69-2.05-1.69-2.88-2.69-.78-1.06-1.44-2.16-2.29-2.99-3.1-2.93-5.26-6.9-6.95-10.58l.2-.04c-1.22-.99-.39-3.24-1.84-3.89.06-.36-.24-1.22.18-1.09-.39-.45-.46-1.22-.56-2.04-.05-.41-.11-.83-.21-1.23-.09-.41-.2-.81-.43-1.16,0,.15.06.22.16.37.09-.82-.06-1.54-.22-2.27-.08-.37-.16-.74-.21-1.12-.04-.39,0-.79.06-1.21.09.16.17.46.37.49.34-.65-.9-1.45.02-1.85-.03-.36-.49-.24-.45-.02.02-1.81.13-3.66.08-5.56v-.71s.04-.71.04-.71l.09-1.43.1-1.44.06-.72.13-.7c1.22-2.5,1.58.22,1.43-2.01.22-.12-.32-.22-.12-.19-.02-.43.31-.67.6-.88.32-.2.6-.37.46-.71-.63.04-.18-.46-.5-.59.93-1.42,1.48-1.53,1.58-2.88l.24.21c-.07-.85.19-1.63.43-2.39.24-.76.43-1.52.36-2.31.53-.93,1.06-1.85,1.58-2.76.56-.89,1.19-1.74,1.78-2.61.57-.89,1.25-1.69,1.93-2.49.69-.79,1.3-1.65,2.08-2.36l2.24-2.21c.79-.69,1.62-1.33,2.44-1.99.8-.69,1.69-1.25,2.58-1.81.9-.55,1.75-1.19,2.72-1.62.95-.44,1.9-.88,2.84-1.32.96-.4,1.95-.73,2.92-1.1.49-.17.97-.37,1.47-.53l1.51-.4c1.01-.25,2-.57,3.03-.75l3.09-.48.77-.11.78-.04,1.57-.06c2.09-.15,4.19.11,6.29.34,1.88,1.03,1.98,1.06,4.17,1.06-.11.11-.25.12-.13.26.24-.66,1.49.26,1.82-.29,1.49.46,2.97.75,4.38,1.3.72.25,1.43.49,2.16.74.74.24,1.42.62,2.16.95-.49-.16-.94.22-.38.44l.75-.1v.21c.42.09.98,0,.69-.37.47.2.95.37,1.4.61l1.33.75c.87.53,1.77,1.01,2.57,1.63.8.62,1.59,1.25,2.36,1.9.4.31.76.65,1.11,1.02l1.06,1.07c1.45,1.38,2.62,3.02,3.89,4.52l1.7,2.42c.28.4.59.79.86,1.2l.78,1.25c.35.88,1,1.81,1.53,2.82.54,1.01,1.14,2.03,1.64,2.92.36,1.48.64,2.94.96,4.34.2,1.44.4,2.84.64,4.22.12,1.41.27,2.8.49,4.21.09,1.42.23,2.86.45,4.35,0,0-1.73-.79-2.24-3.09Z"/>
      <path class="cls-1" d="M88.22,49.24c-.34.19-.55.82-.96.29.31-.05.67-.37.96-.29Z"/>
      <path class="cls-1" d="M80.79,64.56c.08.06-.22.15-.29.17.06-.19-.1-.48.12-.55-.06.19.09.23.17.38Z"/>
      <path class="cls-1" d="M78.56,68.01c-.21-.22.04-1.08.28-1.54l-.28,1.54Z"/>
      <path class="cls-1" d="M75.37,70.33c-.39.09-.43-.06-.17-.4.14.07.12.24.17.4Z"/>
      <path class="cls-1" d="M75.72,70.96c-.21.24-.44.24-.67.24.2.15.36-.63.67-.24Z"/>
      <path class="cls-1" d="M69.29,75.91c-.14.13-.33.58-.66.42.3.06.52-.85.66-.42Z"/>
      <path class="cls-1" d="M66.47,78.39c-.11.05-.18.03-.26.17-.26,0-.17-.3-.02-.42l.29.25Z"/>
      <polygon class="cls-1" points="11.12 56.29 11.36 56.66 11.07 56.67 11.12 56.29"/>
      <path class="cls-1" d="M16.34,26.69c.07-.46.39-.08.47-.12-.2.32-.23-.32-.47.12Z"/>
      <polygon class="cls-1" points="27.62 14.07 27.51 14.14 27.24 13.61 27.62 14.07"/>
    </g>
    <g>
      <path class="cls-1" d="M18.49,14.5c-.31-.13-.26.47-.3.01.2-.13.37-.21.3-.01Z"/>
      <path class="cls-1" d="M75.4,74.84c-1.79.33-1.58-1.68-3.03-1.8-.13-.05.63-.55.28-.62-1.59.05-2.22-1.64-2.44-3.2l.22-.11c-.04-.3-.82.03-.92-.24.11-.11.22-.09.33-.28-.39.28-.48-.19-.81-.03.06-.2.34-.45.4-.69l-.49.26c-1.21.58-.63-.79-1.49-.74.11-.07.22-.09.28-.21-1.19-.12-1.86-1.04-2.77-1.58.17-.1.44-.31.56-.5-.44.35-.76.23-1.03.11.34-.49-.71.03-.69-.42l.11-.07c-.6.25.01-.49-.65-.13l.23-.42c-.67.49.07-.54-.36-.39l-.12.12c-.27,0-.04-.35-.26-.38l.06-.08c-.43-.14-.26-.62-.72-.17.27-.45.43.12.82-.55-1.38-.49-2.22-1.56-3.13-2.51.08-.29.07-.41.23-.6-.18,0-.43-.28-.75-.14.04.02.18-.29.15-.36,0-.34-.69.3-.66-.09.2-.04.37-.16.52-.35-.52.18-.67-.09-.97-.17.11-.04.2-.04.34-.19-.61.18-.28-.47-.71-.4l.33-.19c.04-.61-.64.45-.7,0,.14-.02.23-.14.35-.23-.72.22-.92-.32-1.31-.4.05-.02.12-.09.12-.09-.31-.2-.42-.62-.9-.7.02-.22.69-.59.33-.77-.53.52-.67-.26-1.12.48-.14-.32-.29-.88-.62-.87.31-.09.55-.74.78-.59l.18-.46c.24-.19.07.22.3-.09-.11-.08-.6-.16-.6-.33-.5.13-1.28.55-1.62.32.34-.06.52-.64.7-.64l-1.42.57c-.12-.07.4-.43.13-.43-.14.14-.28.16-.44.23.03-.09-.52-.28-.03-.82.17-.24.26.05.35-.23-.18-.18-.37-.01-.55-.18l.07-.07c-.03-.19-.56-.14-.73.27.06.1.29-.33.25-.07-.39.21-.67.08-.85-.09.14-.02.28-.16.45-.28-.65.15-1.02.02-1.45-.08-.26.24.55-.33.46-.17.02-.68-1.18-.25-.94-1.02.09,0-.33.37-.27.29-.13-.2.24-.54,0-.52.2-.21-.2-.07-.37-.12-.21.09.08-.13.19-.05-.33.02-1.26-.3-1.29-.95-.14.14-.73.27-.79.17l.36-.28c.13-.26-.29-.25-.02-.53-.57.21.99.36.45.41.22-.33-.85.17-.35-.21-.17-.16-.7.04-.54-.42,0,.1.59-.3.44-.41-.28-.18-.22.08-.52,0h-.25c-.33.31-.16-.24-.44.19.24-.28-.49-.19.07-.67l.45-.37c-.13-.07-.6.25-.87.35.03-.05.09-.16.16-.22-.66.6-.18-.3-.79.06.02-.43-.5-.57-.19-1.05-.35.02-.73.09-.77-.23.1-.02.16.01.31-.11.08-.3-.12-.17-.33-.18.12-.07.15-.6.26-.94-.35.02-.64.41-.87.59.49-.76-.85-.07-.45-.81.14-.03.54-.06.57-.35.49-.75-.76.14-.68-.39l-.47.56c.22-.42-.64-.07-.08-.55-.27.1-.1-.45-.59.07.06-.81-1.18-.72-.49-1.84-.14.02-.19-.2-.42.08-.2.37.33-.06.17.16-.06-.04-.22.09-.29.15,0-.24-.05-.37.48-.66.06-.58-1.15.55-1.28,0,.23-.19.28-.29.15-.36l-.55.15c-.13-.31.36-.59.72-.94-.18-.06-.3-.23-.62-.03l.31-.58c-.23.42-.31.11-.46.14l.14-.03c.13-.17-.1-.22-.21-.24-.21.23-.16.46-.15.6-.22.09-.27-.04-.54.05.38-.31.06-.44.01-.57-.03-.18-.44.18-.45.13.18-.18-.14-.21.2-.37.09-.02-.1.26.12.16.07-.2.4-.5.02-.43-.28.05-.67.69-.65.27.14-.03.29-.15.46-.23v-.38s-.34.3-.34.3c.06-.1.1-.11.13-.17-.4.26-.4-.21-.82.11-.13-.07.02-.43-.04-.56h.05c.08-.31-.2-.35-.51-.24l.08-.06c-.04-.09-.23-.19-.5-.1.09-.4,1.17-1.21.59-1.01-.17-.16-.84.3-.98.56-.07-.51-.92-.35-.68-1.1-.17.08-.23.19-.39.17-.29-.56-1.27-.56-.96-1.52.26,0,.33-.3.51-.48-.39.17.18-.41-.35.02-.28.29-.43.41-.43.65-.41-.11-.78-.51-.65-.92-.07.2-.21.23-.35.26.48-.42.37-.68.07-.67l-.3.25.2-.37c-.14.03-.65.5-.52.1.1-.11.21-.23.26-.33-.38.07-.97.23-.89-.16l.29-.53c-.11-.03-.47.09-.48.33-.02-.52-.16-.73.12-1.16-1.33.35-2.03-.32-2.5-.94l.23-.19c.06-.34-.45.27-.4.03.25-.14.33-.53.69-.65.02-.43-.63.07-.86.02-.3.24.29-.06-.09.25-.12.07-.07-.5-.52-.14.11-.21.46-.46.66-.6l-.33.06c.34-.63,1.23-.47,1.68-1.22l-.18-.06c.33-.54.8-.15.67-.6-.33.07-1.05.53-1.13.83-.38-.16-1.13.83-1.37.5.17-.32.28.18.58-.21.21-.46-.46-.1-.45-.34-.03.29-.57.58-.73.56.06-.34.49-.28.33-.54-.28.2-.65.17-.65.5-.62.45-.06-.37-.6-.08.32-.44,1.11-.63,1.08-1.05-.34.39-.78.19-1.22.85.02-.19.31-.48.6-.64.1-.35-.99.33-.28-.42l-.43.32c.09-.16.12-.31.27-.57-.1-.12-.87.12-.28-.42-.09.02-.32-.27-.62.21-.09.4.47-.09.02.52.33-.53-.28-.18-.52-.14l.21-.23c-.14.03-.22-.15-.49.04.17-.08.3-.25.31-.34l-.4.26c-.39-.07.55-.62.23-.75l.42-.08c-.09.02.15-.36-.05-.37-.35.25-.8.53-1.07.72-.26,0,.3-.39-.14-.21l.53-.19c.13-.07.41-.6.24-.76-.21,0-.82.25-.82.58-.08-.08,0-.38.28-.53-.29-.09-.31.34-.66.36.14-.26.24-.75.42-1.17l.68-.32-.1-.12c.56-.25.25-.38.76-.71,0-.14-.24-.1-.43-.06-.48.9-1.2.66-1.78,1.33-.47-.15,1.37-1.68.06-1.05-.12.21-.75.52-.38.54-.11-.26-.77.48-.72,0,.43-.08.48-.8,1.09-.92-.23.19-.03.29.07.27.17-.31.66-.6.47-.79-.18-.06-.35-.22-.66.12-.36.35.22.15-.23.42-.36-.12.16-.69-.58-.17.2.11-.15.5-.4.74l-.32-.03.28-.2c-.1-.45-.52.34-.72,0l.36-.59c.48-.33.2.58.83-.11-.14-.21-.54.06-.53-.28.09-.02.16.02.25,0-.04-.09.79-1,.03-.76-.33.06-.27.19-.53.43-.35-.22-.69-.06-.91-.21.53-.43-.26-.37.43-.65-.2.37.23.76.79.41.48-.66.13.3.78-.2-.21-.24.38-.78.72-1.18-.03-.09-.25,0-.35.02-.38.31-.3.39-.66.74-.15-.35-.58-.41-1.06-.22.09-.25.47-.56.6-.49-.4-.21-.66-.58-.83-.98-.4.74-.45-.2-.8.39.02.28-.27.81-.61.97-.06-.13.26-.24.34-.4-.43.18.32-.68-.29-.32.45.1.76-.62,1.26-1-.45.04.33-.3.14-.5-.44.04-.88-.02-1.19-.15.16-.69-.67-.72-.93-.96.1-.35.7-.75.65-.97-.17-.16-.44.65-.44.18l.12-.07c-.19.04-.08-.79-.89-.16l.63-.45c0-.09-.16-.02-.26,0,.18-.17.29-.38.48-.42.24-.52-.37-.26-.54-.42l-.23.42c-.53-.04-.38-.54-.76-.71l.33-.3-.35.02c.35-.26.41-.6.06-.44l1.19-.32c-.08.3-.51.24-.76.62-.22.33.11.5.46.25-.06-.13-.13-.07-.32-.03.42-.46.54-.29.91-.5-.07-.03,0-.24-.15-.11.31-.11.44-.04.61.12-.28.05-.22.32-.39.4.41-.36.68-.32.77,0-.31.58.66.11.76.47-.49.28-.93.46-1.23.47-.06.34.17.16.11.5.37-.21.87-.59,1.24-.57l-.28.29c.32.04.75-.38.89-.07.22.53.6.92.85,1.26l-.28.29c.78-.43.75.33,1.24.28.08.65,1.06.55.74,1.23.86.45,1.63.82,2.18,1.62l-.54.29c.43-.18-.17.31,0,.38.21-.46.6-.25.95-.42-.04.62.7.67,1.26.66l-.28.29c.81-.25.64.54.88.97-.08.16-.3.48-.17.55.65-.27.71-.14,1.27-.15.19.2.38.63.39,1.01,1.38.11,1.68,1.29,2.82,1.68l-.29.38c1.46.05,1.67,1.62,2.66,1.9l-.65.5c.01.37.59.31.96-.14.01.37.77.23.4.82.09.31.51,0,.76.09.17.63.37.73.85,1.02l-.05-.13c-.17.08-.43.32-.37.45.3,0,.35.69.92-.13-.01.81,1.26.66,1.09,1.59.16-.22.29-.15.47-.23.36.36.33,1.12.93,1.1-.04.15-.42.22-.29.39.16.02.25-.24.46-.23.92.25.77,1.55,1.38,2,1.28.61,2.05,1.78,2.98,2.64l-.15.12c.83-.21.13,1.25,1.18.72-.07.2.2.34-.12.54.62-.12.29,1.03,1.11.92-.02-.05-.06-.04-.16-.02.03.65.76.56.83,1.21-.1.02-.21,0-.36.12-.13.4.93-.22.32.51.09.08.4-.27.33-.3.52,1.08,1.8,1.55,2.77,2.26.18,1-1.11,1.13-.14,1.13-.09.16.29-.22.15-.08.37,0-.48,1.02,0,.81.37-.45.32-.14.58-.37.09.64-.22,1.07.38,1.07l-.24.19c.95-.24,1,.48,2,.09,1.96,1.8,4.11,3.26,5.97,5.06,1.62,1.98,3.67,3.49,5.08,5.73-.16.99-.11,1.01.58,1.27-.11.07-.16.06-.22.18.5-.43.37.3.87-.09.57.78,1.31,1.3,2,2.01-.16-.06-.6.25-.44.35l.44-.15-.11.15c.16.03.49-.1.55-.34,2.12,1.41,2.85,4.08,4.64,5.73.2.61.95,1.03,1.48,1.39.65,1.95,1.29,3.65,3.03,4.6,0,0-1.4.99-2.22.69Z"/>
      <path class="cls-1" d="M18.79,14.73c-.19.27-.17.55-.61.73.21-.23.38-.55.61-.73Z"/>
      <path class="cls-1" d="M20.32,21.24c.08-.06-.04.15-.07.2-.07-.04-.31.11-.23-.05.07.03.17-.08.29-.15Z"/>
      <path class="cls-1" d="M21.2,22.44c-.23.19-.61.12-.77,0h.77Z"/>
      <path class="cls-1" d="M21.27,24.27c-.1.26-.22.33-.32.2.1-.12.2-.13.32-.2Z"/>
      <path class="cls-1" d="M21.82,23.88c.08.08,0,.24-.08.39.18-.18-.3-.08.08-.39Z"/>
      <path class="cls-1" d="M23.26,26.63c.07.04.35-.02.16.25.11-.21-.51,0-.16-.25Z"/>
      <path class="cls-1" d="M24.54,27.33s0,.1.09.08c-.04.15-.25.24-.32.2l.24-.28Z"/>
      <polygon class="cls-1" points="42.78 44.82 42.58 44.81 42.8 44.62 42.78 44.82"/>
      <path class="cls-1" d="M50.42,52.82c.24-.02-.13.26-.14.31-.11-.08.3-.21.14-.31Z"/>
      <polygon class="cls-1" points="55.59 56.14 55.55 56.12 55.99 55.72 55.59 56.14"/>
    </g>
  </g>
  <g>
    <g>
      <path class="cls-1" d="M30.05,64.54c.36.3.02-.36.29.15-.13.04-.25.03-.29-.15Z"/>
      <path class="cls-1" d="M31.5,65.69c.41.09.79.23,1.15.44.37.19.73.4,1.1.64.38.19.76.42,1.17.56.41.12.81.25,1.23.22.19.01-.16.39.29.4.83-.08,1.79-.04,2.82.06,1.02.04,2.13.15,3.13.09l-.09.14c.4,0,.71-.51,1.09-.59.03.07-.08.15.04.22.02-.25.63-.34.71-.58.18.02.24.2.47.21l.09-.34c.25-.83,1.34-.68,1.82-1.47,0,.07-.03.16.06.17.22-.27.44-.55.67-.84.25-.27.49-.56.7-.87.42-.63.75-1.33,1.01-2.02.06.09.19.22.33.19-.22-.19-.09-.63.02-1.01.34-.04.03-.73.37-1.09l.04.06c-.14-.44.37-.4.15-.8l.3-.11c-.31-.31.4-.37.33-.71l-.08-.03c.03-.29.27-.33.32-.58h.05c.17-.57.53-.77.24-.91.32-.06-.16.56.32.45.57-1.85,1.86-3.52,3.38-4.74.25-.05.38-.1.5-.04.11-.17.53-.5.57-.73-.05.04.2.05.29,0,.35-.11.1-.51.51-.62-.08.16-.06.27.05.34.13-.39.52-.61.8-.88-.02.08-.08.16-.02.23.21-.47.69-.36.92-.7l-.03.23c.63-.1-.04-.43.48-.57-.08.11,0,.15.01.23.26-.53,1.01-.8,1.4-1.11-.01.04.01.08.01.08.47-.26.97-.44,1.4-.83.22-.04.18.44.61.08-.22-.3.67-.67.16-.82.42-.19,1.04-.59,1.18-.89-.06.24.48.17.22.46l.38-.04c.07.14-.27.18-.06.25.15-.14.47-.66.61-.77.06-.45,0-.94.26-1.44-.03.31.42.11.37.3-.04-.37-.09-.72-.14-1.07.09-.17.28.12.33-.16-.09-.04-.09-.17-.12-.28.07-.04.27-.72.64-.64.17-.02-.07.31.14.18.17-.32.03-.39.16-.72h.05c.13-.19.1-.68-.18-.52-.07.14.23.02.04.2-.15-.23-.04-.61.02-.94.03.13.13.14.21.22-.18-.54-.09-1-.17-1.52-.17-.04.29.23.19.3.16-.3.12-.66.09-.98-.04-.33-.11-.63.07-.9.03.09-.25.05-.2.04.03-.31.28-.3.19-.5.15-.03-.07-.25-.14-.45-.12-.1.07-.06.1.12-.08-.14-.2-.49-.29-.88-.14-.39-.23-.82-.21-1.17-.09.04-.48-.27-.52-.41l.24-.02c.08-.18-.19-.47-.02-.57-.37-.21.65,1.1.3.76.14-.17-.55-.45-.23-.47-.06-.14-.17-.26-.25-.38-.1-.12-.18-.24-.15-.41,0,.09.4.09.27-.13-.24-.38-.16-.06-.39-.34l-.18-.15c-.18.09-.19-.34-.3-.08.12-.14-.45-.44-.12-.62l.27-.12c-.13-.15-.43-.08-.61-.12,0-.04.03-.11.07-.13-.35.24-.27-.36-.68-.3-.05-.13-.14-.26-.24-.39-.05-.06-.09-.12-.14-.18-.06-.07.06.03.05,0-.06-.09-.1-.19-.08-.29-.32-.11-.62-.17-.81-.47.08.01.15.07.23,0-.08-.25-.19-.2-.4-.25.08-.03-.2-.45-.32-.73-.33-.07-.37.2-.47.3,0-.55-.87-.14-.98-.66.11,0,.49.01.31-.21-.03-.26-.2-.26-.39-.23-.2.04-.42.11-.59-.06l-.03.38c-.11-.28-.66-.02-.51-.36-.17.06-.47-.24-.51.11-.64-.49-1.7-.11-2.12-.76-.11.06-.37,0-.32.19.17.19.25-.15.31-.01-.09.01-.12.11-.13.16-.22-.08-.41-.1-.19-.4-.53-.19-.51.57-1.14.53.01-.15-.04-.2-.23-.15l-.31.3c-.41,0-.29-.29-.35-.54-.21.1-.49.16-.54.36l-.35-.23c.26.17-.14.19-.23.28l.09-.08c-.07-.1-.31.05-.42.13.08.14.34.09.5.11-.08.12-.25.16-.35.34-.03-.25-.4-.04-.57,0-.21.02-.13.28-.19.29-.06-.12-.31.12-.24-.12.04-.07.2.05.26-.09-.16-.03-.24-.26-.43.02-.14.21.25.41-.16.45.06-.1.04-.2.07-.31l-.39.06.09.2c-.07-.03-.05-.06-.08-.08.01.26-.48.32-.4.6-.14.12-.4.09-.57.16l.02-.03c-.25.02-.46.23-.5.48l-.02-.04c-.1.06-.29.27-.32.47-.34.06-.64-.56-.71-.13-.23.22-.05.64.13.65-.48.3-.62.96-1.16,1.18.03.12.1.11.05.27-.29.28-.41.69-.58,1.04-.08.18-.18.33-.29.5-.12.18-.26.34-.44.45.03-.28-.19-.11-.31-.17.08.28-.3.14-.03.37.19.07.27.14.46-.06-.15.54-.55,1.29-.87,1.46.16-.09.15.05.14.18-.26-.19-.5.13-.56.45l.15.14-.28.07c0,.13.28.33-.04.49-.07-.03-.15-.05-.22-.04-.04.35-.07.89-.4,1.08l-.4.07c-.06.14-.07.44.15.28-.49.38-.75.67-1.06.66-.08.59-.39,1.18-.79,1.72-.4.53-.99,1.06-1.5,1.42l-.06-.14c-.35.1.02.32-.24.38,0-.17-.39-.1-.27-.39-.48.14-.35.56-.58.78.07.19.14-.24.22,0,0,.1-.64.22-.55.51-.16-.04-.19-.27-.2-.4l-.17.27c-.46-.12.36-.93-.17-1.1l-.19.17c-.36-.14.38-.64-.2-.4-.15.26-.15.74.13.73-.46.35.11.73-.46,1.02-.23-.07.43-.28.2-.43-.37-.06-.46.4-.73.44.31-.03.22.34.08.47-.35.02.06-.34-.35-.16,0,.18-.31.47.06.43.02.41-.47.11-.56.48-.24-.18.15-.76-.35-.67.18.2-.4.57,0,.81-.2.01-.31-.17-.25-.37-.31-.03-.41.7-.69.27l.02.28c-.11-.04-.25-.06-.43-.13-.22.09-.54.63-.68.26-.05.07-.53.27-.24.43.36.02.26-.34.57-.07-.34-.18-.41.23-.54.4l-.09-.13c-.07.1-.32.17-.31.35.04-.11-.05-.19-.14-.19v.26c-.33.29-.27-.33-.62-.08l.21-.3c-.04.07-.28-.07-.42.09.03.23.03.52.05.69-.15.18-.22-.17-.28.13.03-.12.07-.24.12-.36,0-.08-.35-.22-.59-.06-.14.16-.17.56.11.51-.11.07-.32.07-.33-.12-.19.22.16.17.04.41-.17-.04-.45-.09-.78-.04l-.05-.45s-.09.06-.14.12c-.02-.39-.25-.06-.36-.38-.13.08-.18.29-.22.45.64.02.18.79.6.98-.26.47-1.06-.39-.86.48.15,0,.27.4.36.05-.24.25.22.43-.14.65,0-.35-.54.03-.54-.48.11.1.24-.13.24-.21-.22.02-.35-.28-.56.02-.08.22-.23.49,0,.57.22.12.15-.3.29-.05-.14.41-.52.29-.21.66.11-.25.37-.18.52-.09l-.06.31-.12-.13c-.33.37.21.27-.03.66l-.39.06c-.21-.22.4-.57-.05-.7-.15.28.02.47-.21.69,0-.08.02-.16,0-.24-.05.1-.71-.05-.51.53.05.27.14.12.3.18-.12.5,0,.68-.04,1-.31-.15-.17.55-.42.12.12-.06.21-.26.24-.49.06-.22.05-.46-.07-.6-.44.05.18-.37-.15-.62-.16.4-.52.25-.79.23-.06.11,0,.27.02.35.22.13.27-.03.51.04-.24.43-.19.93-.03,1.23-.16.13-.38.03-.36-.16-.04.29-.08.58-.12.87-.05.29-.13.57-.16.85.41-.32.07.61.41.39.1-.28.4-.5.57-.33-.03.17-.17-.02-.26.05.21.23-.37.33-.03.56-.1-.5-.48-.11-.79-.21.16.39-.23-.02-.23.36.21.39.33.85.46,1.26-.1.28-.08.62.03.94.12.31.26.61.32.83-.08.28-.47.22-.43.51.11.31.28-.35.29.16l-.08-.02c.11.11.08.93.62.84l-.41.02c0,.1.12.14.19.19-.11.05-.17.2-.31.1-.11.39.3.58.49.85l.09-.29c.45.38.41.84.81,1.22l-.19.12.3.18c-.22.06-.15.39.09.42-.31-.11-.62-.24-.95-.37-.04-.27.38.06.46-.19.07-.21-.26-.59-.47-.55.08.18.12.17.27.25-.22.23-.37-.03-.62-.06.06.08.06.27.16.23-.23-.1-.36-.27-.55-.57.23.15.1-.21.22-.17-.25.11-.51-.14-.61-.58.16-.41-.54-.66-.61-1.19.34.1.6.27.84.5,0-.33-.13-.31-.11-.65-.24-.07-.57-.07-.83-.42l.19-.08c-.19-.33-.48-.26-.54-.74-.09-.83-.18-1.67-.17-2.3l.2-.03c-.48-.33-.15-1.16-.32-1.64.15-.39.17-.83.19-1.22.06-.38.13-.72.35-.88.23-1.39.62-2.64,1.51-3.85.03.12.06.24.1.37-.04-.34.24-.04.35-.27-.37.1-.04-.46-.07-.72.28-.21.53-.48.74-.8.1-.16.19-.32.28-.49.11-.17.22-.34.31-.49l.15.14c.29-.72,1.13-.83,1.79-1.09.11.03.31.15.49.04.21-.47.4-.53.83-.95.37-.17,1-.36,1.42-.4,1.17-1.03,2.66-1.4,3.71-2.43l.22.14c.46-.6.98-1.06,1.51-1.56.54-.53,1.06-1.06,1.33-1.62l.25.34c.34-.23.45-.77.15-.86.33-.24.38-.89.8-.91.28-.29.1-.51.22-.82.54-.6.65-.88.93-1.58l-.11.15c.04.11.19.2.3.05.03-.3.56-.88,0-.84.28-.27.49-.79.72-1.3.21-.52.51-.99.94-1.25-.15-.01-.04-.22-.05-.36.23-.36.59-.63.89-.9.31-.27.57-.56.76-.85.15-.04,0,.3.26.09.12-.17-.11-.13.03-.35.88-1.13,2.4-1.4,3.46-1.97,1.92-1.12,4.32-1.38,6.43-1.21l-.03.09c.37-.14.79-.04,1.16.13.38.16.73.29,1.08.08.15.11.61.24.43.38.31-.03.67.17,1.05.37.37.22.75.48,1.19.52-.06-.04-.11-.05-.21-.05.16.14.32.25.49.35.16.12.33.22.49.32.33.21.7.4.95.77-.09-.03-.23-.11-.31-.04.13.35.85.21.67.68.14.12.26-.08.17-.15.15.17.29.32.47.5l-.59.58c.07-.07-.8.74-.42.39h0s.01-.02.01-.02l.02-.03.04-.06.18-.24.35-.48c.32-.48.25-.2.31-.22l.22.24.44.46c.31.29.59.63.86.97.58.66,1.05,1.43,1.47,2.21.23,1.44-.71.36,0,1.28-.06.11.19,0,.11.05.23.38-.36.77-.05.99.26-.18.2.16.38.13,0,.88-.31,1.06-.01,1.7l-.16-.04c.45.76.23,1.66.6,2.38-.45,4.39-3.01,8.52-7.01,10.6l-.37.19-.3.14-.59.28c-.39.19-.77.4-1.14.61-.74.43-1.46.89-2.14,1.4-.68.5-1.33,1.03-1.94,1.59-.32.29-.56.54-.83.82-.26.29-.52.59-.77.92-.76.44-.79.52-1.08,1.38-.04-.06-.03-.12-.11-.09.27.19-.27.59-.02.81-.64,1.16-1.04,2.37-1.67,3.74.07-.23-.13-.45-.22-.19l.06.36h-.1c-.04.2,0,.47.19.33-.39.91-.83,1.88-1.82,2.89-.79.72-1.64,1.36-2.57,1.86-1.86,1.01-3.89,1.53-5.91,1.79-.98-.05-2.35.1-3.41-.02-3.06-.9-5.33-2.54-7.64-4.45,0,0,.21-.09.54-.09.35,0,.82.08,1.32.39Z"/>
      <path class="cls-1" d="M29.65,64.14c.05-.18-.09-.48.25-.43-.1.12-.12.36-.25.43Z"/>
      <path class="cls-1" d="M28.31,56.03c-.05-.01.07-.11.1-.13,0,.09.15.18.07.25-.02-.09-.09-.08-.17-.12Z"/>
      <path class="cls-1" d="M28.58,54.1c.14.06.2.48.18.71l-.18-.71Z"/>
      <path class="cls-1" d="M29.62,52.57c.16-.1.21-.03.15.15-.08-.01-.09-.09-.15-.15Z"/>
      <path class="cls-1" d="M29.35,52.34c.05-.14.14-.18.25-.21-.13-.05-.04.34-.25.21Z"/>
      <path class="cls-1" d="M31.64,49.39c.05-.07.09-.3.26-.25-.14,0-.15.44-.26.25Z"/>
      <path class="cls-1" d="M32.64,48.26c.05-.02.08,0,.12-.08.12,0,.08.15.02.21l-.14-.13Z"/>
      <polygon class="cls-1" points="60.28 29.66 60.07 29.66 60.15 29.53 60.28 29.66"/>
      <path class="cls-1" d="M66.03,41.4c.04.22-.17.1-.19.12.03-.18.16.11.19-.12Z"/>
      <polygon class="cls-1" points="61.91 48.27 61.96 48.23 62.1 48.49 61.91 48.27"/>
    </g>
    <g>
      <path class="cls-1" d="M88.21,48.11c-.09-.94-.54.5-.2-.61.23.13.4.31.2.61Z"/>
      <path class="cls-1" d="M87.75,44.41c-.21-.36-.36-.73-.51-1.12-.16-.38-.29-.78-.4-1.18-.21-.81-.32-1.66-.42-2.53-.16-.85-.34-1.72-.57-2.56-.12-.42-.25-.83-.4-1.22-.17-.39-.41-.74-.66-1.08-.19-.33.82-.18.34-.92-.27-.32-.53-.67-.77-1.05-.23-.38-.45-.79-.72-1.2-.49-.83-.93-1.75-1.32-2.72-.93-1.87-1.69-3.97-2.55-5.77l.33.05c-.33-.69-1.43-.98-1.89-1.6.11-.11.34.04.38-.23-.49.16-1.12-.91-1.6-.92-.07-.35.22-.59.1-1.03l-.69.04c-.85-.04-1.42-.51-1.93-1.13-.53-.6-1.03-1.35-1.9-1.62.14-.05.34-.02.31-.2-.67-.26-1.32-.57-1.97-.94-.66-.35-1.28-.79-1.98-1.12-1.37-.71-2.7-1.56-4.13-2.01.19-.12.45-.38.38-.65-.39.44-1.27.17-2.03-.07-.08-.73-1.46,0-2.2-.63l.12-.09c-.85.34-.84-.68-1.59-.18l-.27-.59c-.52.7-.84-.66-1.51-.4l-.03.17c-.57.06-.73-.41-1.25-.4l-.02-.1c-1.16-.11-1.75-.61-1.84.02-.31-.56,1.15-.06.67-.89-3.93-.08-7.82-.34-11.68-.02-.46-.2-.75-.23-.88-.46-.37.19-1.44.34-1.73.71.13-.03-.3-.28-.51-.29-.75-.12-.63.78-1.43.7.26-.24.32-.47.17-.68-.54.65-1.41.8-2.12,1.15.09-.13.25-.24.17-.43-.67.76-1.56.24-2.15.88l.15-.45c-1.29,0-.09.86-1.15.96.19-.2.06-.3.06-.46-.35.48-.9.81-1.47,1.08-.58.25-1.12.58-1.52.87.03-.07-.03-.16-.03-.16-.46.27-.95.47-1.45.7-.5.22-1,.5-1.41.94-.44.07-.33-.86-1.22-.15.42.62-1.46,1.24-.45,1.61-.22.09-.47.2-.73.31-.25.13-.5.28-.75.43-.49.3-.92.61-1.09.9.17-.48-.92-.44-.32-.97h-.76c-.11-.29.57-.29.18-.48-.31.28-1.09,1.19-1.43,1.35-.27.86-.2,1.95-1,2.8.21-.58-.8-.38-.61-.73-.09.72-.17,1.42-.17,2.17-.23.31-.48-.34-.72.21.16.11.09.38.09.61-.16.05-.93,1.3-1.61.96-.34-.06.31-.57-.18-.42-.49.54-.27.76-.71,1.34l-.09-.05c-.38.32-.6,1.32.04,1.14.22-.25-.43-.16.04-.43.14.53-.26,1.25-.68,1.82.05-.26-.13-.35-.24-.54-.12,1.09-.41,2.09-.77,3.09.29.19-.34-.66-.1-.7-.55.46-.81,1.14-.98,1.81-.17.67-.34,1.3-.9,1.66.02-.19.49.12.4.09-.32.56-.77.33-.78.79-.29-.08-.17.51-.21.97.12.29-.17.05-.07-.32.01.34-.08,1.12-.29,1.95-.22.83-.54,1.72-.89,2.35.19.03.48,1.02.38,1.32l-.41-.23c-.34.22-.23,1.05-.63,1.02.37.8.21-2.69.39-1.68-.43.14.38,1.44-.17,1.09-.14.64.18,1.34-.31,1.87.1-.16-.54-.64-.59-.11-.06.94.17.3.21,1.07l.11.49c.44.09-.18.8.36.53-.38.07.01,1.33-.69,1.17l-.57-.19c.01.41.57.72.81,1.05-.06.05-.18.14-.27.12.88.12-.12.95.54,1.45-.17.41-.21.93-.27,1.4-.01.47-.06.89-.33,1.09.3.64.65,1.19.5,1.93-.09-.14-.13-.33-.32-.36-.24.48,0,.58.16.98-.17-.08-.39.96-.63,1.52.36.6.8.31,1.1.33-.76.72.77,1.67.2,2.52-.19-.18-.63-.82-.74-.25-.71.77.93,1.01.75,2.02l.65-.41c-.33.52.74,1.21,0,1.32.3.23.11,1.12.75.81-.02.81.39,1.66.68,2.46.27.81.62,1.51.22,2.22.2.15.34.7.61.44.2-.5-.48-.34-.29-.58.11.17.3.12.4.1.06.5.18.87-.55.72.09,1.17,1.51.47,1.97,1.73-.29.09-.33.24-.08.55l.82.38c.35.8-.31.78-.72,1.07.32.36.6.88,1.05.82l-.17.82c.12-.6.48.14.71.24l-.23-.11c-.12.19.32.56.53.74.21-.24-.03-.76-.14-1.05.32.06.5.39.9.49-.45.21.18.82.36,1.15.17.41.65.08.71.19-.19.17.43.54-.06.52-.16-.06-.04-.4-.37-.44.04.33-.31.59.33.82.48.17.65-.72.98.1-.24-.08-.41.02-.65.01l.34.75.35-.28c-.01.15-.09.13-.1.2.5-.15.91.79,1.4.55.31.24.39.77.63,1.06l-.08-.02c.16.5.73.79,1.21.82l-.08.06c.16.19.64.55,1.04.54.29.63-.89,1.43.03,1.42.54.38,1.31-.04,1.27-.42.37.46.92.74,1.43,1.06.54.27,1.05.56,1.32,1.13.23-.07.21-.22.55-.13.67.52,1.48.87,2.27,1.16.78.32,1.46.7,1.89,1.4-.52-.04-.21.39-.3.63.52-.18.3.57.69,0,.12-.39.22-.54-.15-.88,1.01.16,2.42.66,2.82,1.22-.2-.27.04-.32.28-.35-.27.59.4.95,1.01.84l.19-.36.24.48c.24-.07.44-.73.88-.23,0,.15-.02.31.06.44.65-.19,1.52-.45,2.07-.06l.4.64c.28-.02.78-.29.34-.53.99.5,1.67.65,1.95,1.19,1.98-1.03,4.54-.92,6.65-1.03l-.04.3c.59.25.26-.53.67-.34-.16.29.49.58.06.95.86.29,1.01-.6,1.51-.8.03-.39-.39.31-.35-.19.07-.15,1.15.13,1.19-.47.23.2.14.64.07.89l.45-.35c.73.58-1.21,1.41-.45,2.14l.47-.16c.56.53-1.18.88.07.9.49-.37.79-1.26.29-1.45,1.04-.33.25-1.41,1.36-1.59.18.13-.03.21-.25.3-.23.07-.46.16-.31.38.63.41,1-.5,1.49-.44-.56-.08-.26-.77.04-.95.62.12-.23.63.57.48.05-.36.69-.78.02-.85.08-.8.86,0,1.11-.67.41.45-.45,1.39.49,1.43-.27-.43.83-1.02.15-1.59.36.02.53.4.39.78.57.13.81-1.3,1.31-.39l-.02-.55c.2.11.46.15.8.33.21-.07.47-.36.72-.53.24-.19.45-.28.59.09.09-.14,1.01-.54.43-.87-.69-.04-.47.68-1.08.14.63.37.76-.46.99-.79l.18.25c.14-.2.6-.35.57-.7-.06.23.1.38.29.37v-.51c.64-.57.55.65,1.23.16-.12.21-.26.4-.4.6.08-.14.57.16.84-.2-.07-.46-.08-1.06-.13-1.41.3-.4.42.31.59-.31l-.25.76c0,.17.7.4,1.25.05.28-.34.47-1.18-.19-1.05.26-.17.78-.18.74.22.53-.49-.33-.34.05-.87.37.11,1.21-.04,1.85,0l-.11.98.36-.26c-.13.81.49.18.58.86.3-.11.48-.5.63-.8-1.29-.24-.01-1.64-.77-2.18.78-.87,1.95,1.19,1.99-.68-.3-.04-.32-.93-.7-.24.6-.42-.23-.99.64-1.29-.22.69,1.12.19.79,1.2-.15-.26-.54.19-.59.35.45.04.54.71,1.12.18.29-.38.76-.83.37-1.09-.37-.35-.49.52-.62-.05.57-.73,1.21-.32.82-1.23-.33.48-.81.21-1.05-.05.12-.19.2-.42.3-.62l.16.33c.88-.62-.23-.65.51-1.34l.82.09c.26.56-1.19.93-.39,1.44.49-.48.29-.96.89-1.27-.04.16-.15.32-.18.48.18-.15,1.28.47,1.4-.73.1-.57-.17-.31-.43-.54.57-.94.48-1.41.85-2,.46.52.79-.95.9.08-.54.06-1.44,1.32-1.17,2.05.43.09.28.25.08.47-.22.21-.5.47-.27.82.63-.65,1.2-.12,1.69.09.18-.19.16-.52.19-.7-.32-.39-.51-.12-.92-.42.71-.73,1.08-1.67,1.01-2.38.4-.13.74.23.54.58.32-.51.61-1.06.94-1.58.33-.52.69-1.01,1.06-1.46-1.07.23.49-1.18-.35-1.07-.46.44-1.22.58-1.37.13.24-.29.3.18.53.14-.13-.6.99-.3.58-1.04-.23,1.08.77.65,1.24,1.12.03-.88.38.24.72-.48.04-.88.21-1.88.47-2.72.94-.81.97-2.63,1.29-3.54.43-.41,1.02.14,1.28-.38.15-.65-.86.27-.3-.6l.11.13c-.09-.33.92-1.66,0-2.16l.67.46c.11-.16-.01-.37-.06-.54.24.05.52-.12.6.21.71-.49.14-1.31.24-1.97l-.51.35c-.19-1.18.4-1.87.37-2.99l.44.08-.23-.68c.42.2.73-.39.39-.77.33.6.68,1.21.98,1.84-.32.46-.47-.59-.94-.32-.4.22-.45,1.24-.05,1.47.11-.39.02-.42-.1-.74.63-.06.52.54.88.9,0-.21.24-.49.05-.56.24.45.22.88.13,1.58-.17-.51-.42.19-.56-.01.53.14.59.84.31,1.67-.77.46-.01,1.67-.43,2.62-.43-.54-.73-1.15-.8-1.78-.42.53-.16.67-.58,1.2.32.39.88.77.91,1.64l-.4-.08c-.02.77.52.95.09,1.82-.38.74-.71,1.5-1.01,2.22-.36.69-.7,1.34-.99,1.9l-.38-.13c.24.5.06,1.06-.19,1.62-.25.56-.65,1.06-.72,1.57-.58.58-.95,1.37-1.3,2.06-.39.66-.8,1.21-1.32,1.33-.36.61-.71,1.2-1.05,1.78-.38.56-.79,1.08-1.2,1.61-.41.53-.84,1.05-1.3,1.57-.49.48-1.03.95-1.59,1.41l-.04-.76c-.09.67-.48-.02-.79.38.75-.04-.11.93-.16,1.45-1.28.5-2.34,1.84-3.04,2.9l-.27-.31c-.56,1.29-2.16,1.44-3.46,2.1-.22-.05-.64-.28-1.01-.05-.41.93-.81,1.07-1.7,1.95-.76.42-2.15.71-3.05.78-.68.47-1.39.94-2.16,1.22-.77.29-1.56.52-2.36.75l-1.21.33-1.23.23c-.82.16-1.65.36-2.47.62l-.29-.44c-.78.33-1.65.49-2.53.6-.88.09-1.79.21-2.68.1-1.78-.16-3.48-.23-4.91-.26l.37-.77c-.82-.38-1.99-.09-1.87.52-.42-.19-.98-.17-1.5-.22-.51-.08-.97-.2-1.16-.6-.84-.37-1.16.09-1.93,0-.85-.35-1.41-.63-1.99-.85-.57-.21-1.15-.36-1.99-.59l.38.19c.24-.1.38-.42,0-.62-.34,0-.87-.24-1.28-.38-.4-.15-.7-.14-.6.44-.72-.66-1.73-1.01-2.73-1.4-1-.38-1.92-.94-2.5-1.71,0,.31-.42.11-.68.17-.35-.21-.68-.45-1.01-.7-.3-.28-.6-.56-.89-.83-.59-.53-1.17-1-1.83-1.21-.12-.26.61-.11.1-.52-.37-.16-.23.27-.7.09-1.14-.69-2.05-1.69-2.88-2.69-.78-1.06-1.44-2.16-2.29-2.99-3.1-2.93-5.26-6.9-6.95-10.58l.2-.04c-1.22-.99-.39-3.24-1.84-3.89.06-.36-.24-1.22.18-1.09-.39-.45-.46-1.22-.56-2.04-.05-.41-.11-.83-.21-1.23-.09-.41-.2-.81-.43-1.16,0,.15.06.22.16.37.09-.82-.06-1.54-.22-2.27-.08-.37-.16-.74-.21-1.12-.04-.39,0-.79.06-1.21.09.16.17.46.37.49.34-.65-.9-1.45.02-1.85-.03-.36-.49-.24-.45-.02.02-1.81.13-3.66.08-5.56v-.71s.04-.71.04-.71l.09-1.43.1-1.44.06-.72.13-.7c1.22-2.5,1.58.22,1.43-2.01.22-.12-.32-.22-.12-.19-.02-.43.31-.67.6-.88.32-.2.6-.37.46-.71-.63.04-.18-.46-.5-.59.93-1.42,1.48-1.53,1.58-2.88l.24.21c-.07-.85.19-1.63.43-2.39.24-.76.43-1.52.36-2.31.53-.93,1.06-1.85,1.58-2.76.56-.89,1.19-1.74,1.78-2.61.57-.89,1.25-1.69,1.93-2.49.69-.79,1.3-1.65,2.08-2.36l2.24-2.21c.79-.69,1.62-1.33,2.44-1.99.8-.69,1.69-1.25,2.58-1.81.9-.55,1.75-1.19,2.72-1.62.95-.44,1.9-.88,2.84-1.32.96-.4,1.95-.73,2.92-1.1.49-.17.97-.37,1.47-.53l1.51-.4c1.01-.25,2-.57,3.03-.75l3.09-.48.77-.11.78-.04,1.57-.06c2.09-.15,4.19.11,6.29.34,1.88,1.03,1.98,1.06,4.17,1.06-.11.11-.25.12-.13.26.24-.66,1.49.26,1.82-.29,1.49.46,2.97.75,4.38,1.3.72.25,1.43.49,2.16.74.74.24,1.42.62,2.16.95-.49-.16-.94.22-.38.44l.75-.1v.21c.42.09.98,0,.69-.37.47.2.95.37,1.4.61l1.33.75c.87.53,1.77,1.01,2.57,1.63.8.62,1.59,1.25,2.36,1.9.4.31.76.65,1.11,1.02l1.06,1.07c1.45,1.38,2.62,3.02,3.89,4.52l1.7,2.42c.28.4.59.79.86,1.2l.78,1.25c.35.88,1,1.81,1.53,2.82.54,1.01,1.14,2.03,1.64,2.92.36,1.48.64,2.94.96,4.34.2,1.44.4,2.84.64,4.22.12,1.41.27,2.8.49,4.21.09,1.42.23,2.86.45,4.35,0,0-1.73-.79-2.24-3.09Z"/>
      <path class="cls-1" d="M88.22,49.24c-.34.19-.55.82-.96.29.31-.05.67-.37.96-.29Z"/>
      <path class="cls-1" d="M80.79,64.56c.08.06-.22.15-.29.17.06-.19-.1-.48.12-.55-.06.19.09.23.17.38Z"/>
      <path class="cls-1" d="M78.56,68.01c-.21-.22.04-1.08.28-1.54l-.28,1.54Z"/>
      <path class="cls-1" d="M75.37,70.33c-.39.09-.43-.06-.17-.4.14.07.12.24.17.4Z"/>
      <path class="cls-1" d="M75.72,70.96c-.21.24-.44.24-.67.24.2.15.36-.63.67-.24Z"/>
      <path class="cls-1" d="M69.29,75.91c-.14.13-.33.58-.66.42.3.06.52-.85.66-.42Z"/>
      <path class="cls-1" d="M66.47,78.39c-.11.05-.18.03-.26.17-.26,0-.17-.3-.02-.42l.29.25Z"/>
      <polygon class="cls-1" points="11.12 56.29 11.36 56.66 11.07 56.67 11.12 56.29"/>
      <path class="cls-1" d="M16.34,26.69c.07-.46.39-.08.47-.12-.2.32-.23-.32-.47.12Z"/>
      <polygon class="cls-1" points="27.62 14.07 27.51 14.14 27.24 13.61 27.62 14.07"/>
    </g>
    <g>
      <path class="cls-1" d="M58.02,30.74c.13-.07-.11-.11.08-.08,0,.06-.02.11-.08.08Z"/>
      <path class="cls-1" d="M31.68,60.55c-.29-.14-.42-.42-.46-.72-.06-.3-.13-.59-.26-.86-.02-.06.21-.01.14-.15-.18-.25-.25-.61-.17-.98.04-.37.2-.73.38-1.02l.05.05c.07-.11-.1-.3-.04-.42.04,0,.04.05.1.04-.1-.06.02-.24-.05-.32.06-.04.15,0,.22-.05l-.1-.11c-.24-.3.17-.48.15-.8.02.03.03.06.07.05,0-.51.31-1.01.52-1.5.03.04.09.11.15.11-.11-.1-.05-.25,0-.38.16.03.03-.27.19-.37l.02.03c-.05-.19.17-.1.08-.29h.14c-.13-.16.2-.07.18-.21l-.04-.02c.02-.11.13-.08.16-.17h.02c.09-.19.25-.21.13-.31.14.03-.08.19.13.23.31-.62.85-1.1,1.36-1.55.1,0,.15-.01.21.02.03-.07.18-.18.18-.28-.02.02.08.04.12.02.13-.03,0-.22.15-.25-.02.07,0,.12.05.16.02-.18.17-.24.26-.35,0,.03-.02.07,0,.1.05-.2.25-.12.31-.27v.11c.24-.01-.04-.21.15-.24-.03.05,0,.07.02.11.07-.22.35-.3.48-.43,0,.02,0,.04,0,.04.16-.11.37-.11.55-.25.08.01.04.22.22.13-.06-.18.29-.17.13-.34.16-.02.44-.03.52-.13-.05.09.15.19.03.25l.14.07c.01.08-.11,0-.05.09.07-.02.23-.17.3-.17.08-.15.11-.4.3-.49-.06.1.13.17.08.22.05-.15.09-.29.13-.44.06-.04.07.13.14.04-.02-.04,0-.09.01-.14.03,0,.24-.16.34-.01.06.05-.09.08.01.11.11-.06.09-.11.21-.17v.02c.1,0,.2-.19.07-.23-.05.02.07.09-.03.08,0-.12.12-.22.23-.28-.02.05,0,.09.01.14.08-.21.22-.33.35-.47-.04-.08.02.17-.03.14.28,0,.34-.4.61-.35-.02.03-.08-.1-.07-.08.1-.05.17.06.21-.02.05.06.07-.07.12-.13,0-.07.04.02-.02.06.06-.11.35-.45.62-.5-.03-.04.02-.23.07-.26l.05.11c.08.03.15-.12.21-.05.02-.18-.32.38-.24.19.09.06.08-.28.15-.13.09-.07.1-.24.26-.22-.04,0,.02.18.09.12.12-.12,0-.07.09-.18l.04-.09c-.06-.09.13-.08,0-.14.07.06.16-.19.26-.03l.07.13c.05-.05,0-.19,0-.28.02,0,.05.02.06.04-.13-.18.14-.09.1-.28.16-.04.3-.23.44-.17.04-.13.07-.26.2-.31,0,.03-.03.06,0,.1.1,0,.08-.06.11-.14,0,.04.21-.01.33-.02.04-.13-.07-.19-.11-.25.23.09.13-.33.36-.27,0,.05-.04.19.06.17.23.08.04-.26.23-.31l-.16-.1c.13.03.1-.25.22-.1,0-.08.18-.1.04-.21.29-.1.39-.54.73-.46,0-.05.09-.11,0-.15-.12-.01,0,.12-.07.09.02-.03-.01-.07-.03-.09.09-.04.14-.08.2.08.21-.08-.1-.35.1-.48.05.05.08.06.12,0v-.18c.1-.11.17.03.27.11.03-.08.1-.16.05-.25h.19c-.14,0-.02-.09-.02-.14v.05c.05.02.09-.08.1-.13-.07-.04-.15.02-.2.05-.02-.07.03-.11.01-.19.09.09.15-.06.2-.11.06-.05-.04-.13-.03-.15.05.03.08-.1.12,0,0,.03-.08.01-.06.08.07-.01.15.05.14-.08,0-.1-.21-.12-.07-.2,0,.05.04.08.06.13l.13-.08-.09-.07s.03.02.05.02c-.08-.1.09-.2,0-.29.02-.06.14-.08.18-.14v.02c.1-.04.11-.15.08-.25h.02s.06-.12.03-.19c.13-.06.39.16.32-.01.04-.11-.11-.25-.19-.24.15-.15.07-.41.32-.54-.03-.05-.06-.04-.06-.11.17-.28.16-.68.46-.82,0,.1.1.05.16.08-.06-.11.13-.04-.01-.14-.09-.04-.14-.06-.21,0,.03-.2.15-.47.28-.52-.07.03-.08-.02-.08-.07.14.08.23-.03.23-.15l-.08-.06.12-.02c0-.05-.16-.14-.03-.19.04.01.07.03.11.02-.02-.13-.06-.34.07-.41l.17-.02c.01-.05-.02-.17-.1-.11.17-.14.25-.25.38-.24-.08-.46.21-.9.45-1.24l.05.05c.12-.05-.07-.12.01-.16.04.07.17.01.19.14.15-.09,0-.24.04-.35-.07-.07,0,.1-.09.02-.02-.03.19-.13.09-.24.07,0,.14.09.17.14v-.12c.21,0,.08.39.33.42l.03-.08c.17.02,0,.28.17.14,0-.12-.12-.31-.22-.28.09-.18-.22-.28-.08-.45.1,0-.09.15.03.19.16-.01.07-.2.16-.25-.1.05-.17-.11-.15-.18.12-.05.06.14.17.03-.05-.07-.01-.23-.13-.16-.11-.16.14-.1.08-.26.13.04.14.32.3.23-.12-.06,0-.28-.21-.33.07-.03.16.03.19.12.12-.02-.02-.33.19-.19l-.08-.11c.05,0,.11,0,.19,0,.06-.06.05-.33.19-.19,0-.03.14-.17-.01-.21-.14.04-.02.17-.2.1.17.04.1-.15.11-.23l.06.04c0-.05.08-.11.04-.19.01.05.06.08.1.06l-.06-.11c.07-.17.17.11.27-.03l-.02.15s.12,0,.15-.08c-.06-.1-.11-.23-.15-.3.03-.1.12.05.1-.09v.18s.19.07.28-.02c.03-.08.01-.28-.12-.23.04-.05.15-.06.17.03.08-.13-.09-.07-.05-.2.09.02.27-.02.41-.01l.03.22.06-.06c.02.18.11.04.17.19.06-.02.07-.11.08-.17-.28-.06-.09-.37-.27-.5.14-.2.47.31.42-.11-.07-.02-.09-.22-.16-.08.13-.08-.07-.23.12-.28-.04.15.25.08.19.3-.04-.06-.11.02-.12.06.1.03.14.18.25.08.05-.07.14-.16.06-.23-.08-.09-.1.1-.13-.04.11-.15.25-.02.17-.24-.08.09-.18,0-.23-.06l.07-.13.03.08c.2-.09-.05-.16.13-.27l.18.07c.05.14-.28.13-.11.29.11-.08.07-.19.21-.22-.01.03-.04.06-.05.09.04-.02.27.19.31-.06.04-.11-.03-.08-.08-.15.16-.15.16-.26.26-.35.08.16.21-.13.18.1-.11-.04-.36.16-.32.33.18.12-.15.08-.07.27.14-.1.25.07.35.15.04-.02.05-.09.06-.12-.06-.11-.1-.07-.18-.17.17-.09.28-.25.29-.41.09.02.14.12.09.18.17-.16.38-.27.58-.36-.22-.09.18-.17,0-.26-.12.02-.28-.04-.28-.15.07-.03.04.08.09.09.02-.14.21.07.2-.13-.14.17.09.23.14.38.08-.15.05.1.18.02.08-.15.21-.3.33-.41.25.02.46-.25.62-.33.12.03.14.22.25.2.11-.06-.16-.13.03-.14v.04c.03-.07.35-.03.29-.28l.03.2s.05-.05.07-.08c.03.06.08.09.05.15.15.08.2-.11.31-.16l-.11-.07c.16-.16.33-.1.5-.21l.03.11.09-.1c0,.11.13.14.16.04-.07.12-.14.23-.2.35-.1-.03.04-.16-.05-.24-.07-.07-.24.02-.23.13.07-.01.06-.04.1-.09.07.14-.03.17-.04.28.03-.02.1,0,.09-.04-.04.1-.1.13-.21.18.05-.08-.08-.07-.06-.12.04.13-.04.21-.19.23-.16-.1-.21.19-.37.23,0-.16.03-.29.11-.38-.13-.02-.11.05-.23.03,0,.12.03.27-.06.39l-.05-.09c-.09.1-.02.24-.17.28-.26.08-.5.22-.69.31l-.06-.08c0,.24-.28.27-.36.44-.27.06-.42.39-.63.33-.33.34-.61.63-.99.92l-.03-.16c0,.14-.1-.03-.15.04.15.03.01.19.02.3-.24.05-.35.33-.42.54l-.08-.07c0,.27-.28.31-.47.45-.05-.01-.15-.05-.19.02.03.21-.02.25-.07.46-.09.1-.27.24-.41.31-.17.53-.58.88-.8,1.38l-.12-.04c-.07.58-.62.98-.73,1.44l-.16-.14c-.12.09-.11.31.04.35-.12.09-.08.35-.27.35-.1.11,0,.2-.03.31-.21.21-.24.32-.31.58l.04-.06s-.11-.09-.14-.03c0,.12-.2.32.06.33-.25.2-.17.65-.46.83.07,0,.05.07.08.12-.11.25-.36.48-.36.73-.05.03-.07-.12-.13-.02-.01.07.08.04.07.13-.11.47-.57.74-.77,1.09-.3.68-.83,1.22-1.27,1.75l-.03-.04c-.02.29-.5.26-.42.59-.07,0-.16.13-.2.04-.04.22-.45.27-.52.57.02-.01.02-.03.03-.07-.26.11-.34.37-.61.48,0-.03.03-.08,0-.12-.14,0-.05.32-.25.19-.04.04.04.12.07.09-.52.33-.93.85-1.42,1.27-.45.16-.25-.3-.44.04-.05-.02.03.09,0,.05-.08.13-.33-.1-.34.06.11.1,0,.1.04.18-.28.08-.39,0-.52.21l-.03-.07c-.1.32-.42.37-.48.7-.61.37-1.22.74-1.86,1.05-.33.15-.64.32-.99.43l-.51.19-.38.15c-1.01.34-1.91,1.21-2.84,1.99-.34.08-.37.09-.51.39-.02-.03,0-.05-.05-.05.11.12-.13.19-.03.31-.33.33-.52.71-.78,1.09.03-.07-.06-.17-.11-.09l.04.13h-.05c0,.05.03.15.1.13-.48,1.04-1.2,1.97-1.3,3.08-.07.25-.06.62,0,.89-.2.81-.08,1.65.45,2.35,0,0-.41.12-.67-.2Z"/>
      <path class="cls-1" d="M57.85,30.81c-.05-.07-.17-.08-.12-.21.03.07.11.14.12.21Z"/>
      <path class="cls-1" d="M54.78,31.3s-.05,0-.07-.01c.03-.03.02-.1.07-.08-.03.02,0,.05,0,.09Z"/>
      <path class="cls-1" d="M54.09,31.69c-.03-.07.08-.21.16-.27l-.16.27Z"/>
      <path class="cls-1" d="M53.31,31.88c-.09-.01-.1-.05-.02-.1.03.03.02.06.02.1Z"/>
      <path class="cls-1" d="M53.37,32.04s-.1.02-.15,0c.04.05.09-.12.15,0Z"/>
      <path class="cls-1" d="M51.98,32.91s-.04.14-.12.1c.07.01.07-.2.12-.1Z"/>
      <path class="cls-1" d="M51.52,33.52s-.04.01-.04.05c-.06,0-.06-.06-.04-.09l.08.05Z"/>
      <polygon class="cls-1" points="44.46 44.44 44.49 44.36 44.53 44.42 44.46 44.44"/>
      <path class="cls-1" d="M40.02,47.76c-.04.08-.08-.04-.09-.04.06-.04.02.09.09.04Z"/>
      <polygon class="cls-1" points="37.39 49.24 37.41 49.23 37.45 49.37 37.39 49.24"/>
    </g>
    <g>
      <path class="cls-1" d="M37.45,65.49c-.13.07.11.11-.08.08,0-.06.02-.11.08-.08Z"/>
      <path class="cls-1" d="M63.79,35.69c.28.14.42.42.46.72.06.3.13.59.26.86.02.06-.21.01-.14.15.18.25.25.61.17.98-.04.37-.2.73-.38,1.02l-.05-.05c-.07.11.1.3.04.42-.04,0-.04-.05-.1-.04.1.06-.02.24.05.32-.06.04-.15,0-.22.05l.1.11c.24.3-.17.48-.15.8-.02-.03-.03-.06-.07-.05,0,.51-.31,1.01-.52,1.5-.03-.04-.09-.11-.15-.11.11.1.05.25,0,.38-.16-.03-.03.27-.19.37l-.02-.03c.05.19-.17.1-.08.29h-.14c.13.16-.2.07-.18.21l.04.02c-.02.11-.13.08-.16.17h-.02c-.09.19-.25.21-.13.31-.14-.03.08-.19-.13-.23-.31.62-.85,1.1-1.36,1.55-.1,0-.15.01-.21-.02-.03.07-.18.18-.18.28.02-.02-.08-.04-.12-.02-.13.03,0,.22-.15.25.02-.07,0-.12-.05-.16-.02.18-.17.24-.26.35,0-.03.02-.07,0-.1-.05.2-.25.12-.31.27v-.11c-.24.01.04.21-.15.24.03-.05,0-.07-.02-.11-.07.22-.35.3-.48.43,0-.02,0-.04,0-.04-.16.11-.37.11-.55.25-.08-.01-.04-.22-.22-.13.06.18-.29.17-.13.34-.16.02-.44.03-.52.13.05-.09-.15-.19-.02-.25l-.14-.07c-.01-.08.11,0,.05-.09-.07.02-.23.17-.3.17-.08.15-.11.4-.3.49.06-.1-.13-.17-.08-.22-.05.15-.09.29-.13.44-.06.04-.07-.13-.14-.04.02.04,0,.09-.01.14-.03,0-.24.16-.34.01-.06-.05.09-.08-.01-.11-.11.06-.09.11-.21.17v-.02c-.1,0-.2.19-.07.23.05-.02-.07-.09.03-.08,0,.12-.12.22-.23.28.02-.05,0-.09-.01-.14-.08.21-.22.33-.35.47.04.08-.02-.17.03-.14-.28,0-.34.4-.61.35.02-.03.08.1.07.08-.1.05-.17-.06-.21.02-.05-.06-.07.07-.12.13,0,.07-.04-.02.02-.06-.06.11-.35.45-.62.5.03.04-.02.23-.07.26l-.05-.11c-.08-.03-.15.12-.21.05-.02.18.32-.38.24-.19-.09-.06-.08.28-.15.13-.09.07-.1.24-.26.22.04,0-.02-.18-.09-.12-.12.12,0,.07-.09.18l-.04.09c.06.09-.13.08,0,.14-.07-.06-.16.19-.26.03l-.07-.13c-.05.05,0,.19,0,.28-.02,0-.05-.02-.06-.04.13.18-.14.09-.1.28-.16.04-.3.23-.44.17-.04.13-.07.26-.2.31,0-.03.03-.06,0-.1-.1,0-.08.06-.11.14,0-.04-.21.01-.33.02-.04.13.07.19.11.25-.23-.09-.13.33-.36.27,0-.05.04-.19-.06-.17-.23-.08-.04.26-.23.31l.16.1c-.13-.03-.1.25-.22.1,0,.08-.18.1-.04.21-.29.1-.39.54-.73.46,0,.05-.09.11,0,.15.12.01,0-.12.07-.09-.02.03.01.07.03.09-.09.04-.14.08-.2-.08-.21.08.1.35-.1.48-.05-.05-.08-.06-.12,0v.18c-.1.11-.17-.03-.27-.11-.03.08-.1.16-.05.25h-.19c.14,0,.02.09.02.14v-.05c-.05-.02-.08.08-.1.13.07.04.15-.02.2-.05.02.07-.03.11-.01.19-.09-.09-.15.06-.2.11-.06.05.04.13.03.15-.05-.03-.08.1-.12,0,0-.03.08-.01.06-.08-.07.01-.15-.05-.14.08,0,.1.21.12.07.2,0-.05-.04-.08-.06-.13l-.13.08.09.07s-.03-.02-.05-.02c.08.1-.09.2,0,.29-.02.06-.14.08-.18.14v-.02c-.1.04-.11.15-.08.25h-.02s-.06.12-.03.19c-.13.06-.39-.16-.32.01-.04.11.11.25.19.24-.15.15-.07.41-.32.54.03.05.06.04.06.11-.17.28-.16.68-.46.82,0-.1-.1-.05-.16-.08.06.11-.13.04.01.14.09.04.14.06.21,0-.03.2-.15.47-.28.52.07-.03.08.02.08.07-.14-.08-.23.03-.23.15l.08.06-.12.02c0,.05.16.14.03.19-.04-.01-.07-.03-.11-.02.02.13.06.34-.07.41l-.17.02c-.01.05.02.17.1.11-.17.14-.25.25-.38.24.08.46-.21.9-.45,1.24l-.05-.05c-.12.05.07.12-.01.16-.04-.07-.17-.01-.19-.14-.15.09,0,.24-.04.35.07.07,0-.1.09-.02.02.03-.19.13-.09.24-.07,0-.14-.09-.17-.14v.12c-.21,0-.08-.39-.33-.42l-.03.08c-.17-.02,0-.28-.17-.14,0,.12.12.31.22.28-.09.18.22.28.08.45-.1,0,.09-.15-.03-.19-.16.01-.07.2-.16.25.1-.05.17.11.15.18-.12.05-.06-.14-.17-.03.05.07.01.23.13.16.11.16-.14.1-.08.26-.13-.04-.14-.32-.3-.23.12.06,0,.28.21.33-.07.03-.16-.03-.19-.12-.12.02.02.33-.19.19l.08.11c-.05,0-.11,0-.19,0-.06.06-.05.33-.19.19,0,.03-.14.17.01.21.14-.04.02-.17.2-.1-.17-.04-.1.15-.11.23l-.06-.04c0,.05-.08.11-.04.19-.01-.05-.06-.08-.1-.06l.06.11c-.07.17-.17-.11-.27.03l.02-.15s-.12,0-.15.08c.06.1.11.23.15.3-.03.1-.12-.05-.1.09v-.18s-.19-.07-.28.02c-.03.08-.01.28.12.23-.04.05-.15.06-.17-.03-.08.13.09.07.05.2-.09-.02-.27.02-.41.01l-.03-.22-.06.06c-.02-.18-.11-.04-.17-.19-.06.02-.07.11-.08.17.28.06.09.37.27.5-.14.2-.47-.31-.42.11.07.02.09.22.16.08-.13.08.07.23-.12.28.04-.15-.25-.08-.19-.3.04.06.11-.02.12-.06-.1-.03-.14-.18-.25-.08-.05.07-.14.16-.06.23.08.09.1-.1.13.04-.11.15-.25.02-.17.24.08-.09.18,0,.23.06l-.07.13-.03-.08c-.2.09.05.16-.13.27l-.18-.07c-.05-.14.28-.13.11-.29-.11.08-.07.19-.21.22.01-.03.04-.06.05-.09-.04.02-.27-.19-.31.06-.04.11.03.08.08.15-.16.15-.16.26-.26.35-.08-.16-.21.13-.18-.1.11.04.36-.16.32-.33-.18-.12.15-.08.07-.27-.14.1-.25-.07-.35-.15-.04.02-.05.09-.06.12.06.11.1.07.18.17-.17.09-.28.25-.29.41-.09-.02-.14-.12-.09-.18-.17.16-.38.27-.58.36.22.09-.18.17,0,.26.12-.02.28.04.28.15-.07.03-.04-.08-.09-.09-.02.14-.21-.07-.2.13.14-.17-.09-.23-.14-.38-.08.15-.05-.1-.18-.02-.08.15-.21.3-.33.41-.25-.02-.46.25-.62.33-.12-.03-.14-.22-.25-.2-.11.06.16.13-.03.14v-.04c-.03.07-.35.03-.29.28l-.03-.2s-.05.05-.07.08c-.03-.06-.08-.09-.05-.15-.15-.08-.2.11-.31.16l.11.07c-.16.16-.33.1-.5.21l-.03-.11-.09.1c0-.11-.13-.14-.16-.04.07-.12.14-.23.2-.35.1.03-.04.16.05.24.07.07.24-.02.23-.13-.07.01-.06.04-.1.09-.07-.14.03-.17.04-.28-.03.02-.1,0-.09.04.04-.1.1-.13.21-.18-.05.08.08.07.06.12-.04-.13.04-.21.19-.23.16.1.21-.19.37-.23,0,.16-.03.29-.11.38.13.02.11-.05.23-.03,0-.12-.03-.27.06-.39l.05.09c.09-.1.02-.24.17-.28.26-.08.5-.22.69-.31l.06.08c0-.24.29-.27.36-.44.27-.06.42-.39.63-.33.33-.34.61-.63.99-.92l.03.16c0-.14.1.03.15-.04-.15-.03-.01-.19-.02-.3.24-.05.35-.33.42-.54l.08.07c0-.27.28-.31.47-.45.05.01.15.05.19-.02-.03-.21.02-.25.07-.46.09-.1.27-.24.41-.31.17-.53.58-.88.8-1.38l.12.04c.07-.58.62-.98.73-1.44l.16.14c.12-.09.11-.31-.04-.35.12-.09.08-.35.27-.35.1-.11,0-.2.03-.31.21-.21.24-.32.31-.58l-.04.06s.11.09.14.03c0-.12.2-.32-.06-.33.25-.2.17-.65.46-.83-.07,0-.05-.07-.08-.12.11-.25.36-.48.36-.73.05-.03.07.12.13.02.01-.07-.08-.04-.07-.13.11-.47.57-.74.77-1.09.3-.68.83-1.22,1.27-1.75l.03.04c.02-.29.5-.26.42-.59.07,0,.16-.13.2-.04.04-.22.45-.27.52-.57-.02.01-.02.03-.03.07.26-.11.34-.37.61-.48,0,.03-.04.08,0,.12.14,0,.05-.32.25-.19.04-.04-.04-.12-.07-.09.52-.33.93-.85,1.42-1.27.45-.16.25.3.44-.04.05.02-.03-.09,0-.05.08-.13.33.1.34-.06-.11-.1,0-.1-.04-.18.28-.08.39,0,.52-.21l.03.07c.1-.32.42-.37.48-.7.61-.37,1.22-.74,1.86-1.05.33-.15.64-.32.99-.43l.51-.19.38-.15c1.01-.34,1.91-1.21,2.84-1.99.34-.08.37-.09.51-.39.02.03,0,.05.05.05-.11-.12.13-.19.03-.31.33-.33.52-.71.78-1.09-.03.07.06.17.11.09l-.04-.13h.05c0-.05-.03-.15-.1-.13.48-1.04,1.2-1.97,1.3-3.08.07-.25.06-.62,0-.89.2-.81.08-1.65-.45-2.35,0,0,.41-.12.67.2Z"/>
      <path class="cls-1" d="M37.62,65.43c.05.07.17.08.12.21-.03-.07-.11-.14-.12-.21Z"/>
      <path class="cls-1" d="M40.69,64.94s.05,0,.07.01c-.03.03-.02.1-.07.08.03-.02,0-.05,0-.09Z"/>
      <path class="cls-1" d="M41.38,64.55c.03.07-.08.21-.16.27l.16-.27Z"/>
      <path class="cls-1" d="M42.16,64.36c.09.01.1.05.02.1-.03-.03-.02-.06-.02-.1Z"/>
      <path class="cls-1" d="M42.11,64.2s.1-.02.15,0c-.04-.05-.09.12-.15,0Z"/>
      <path class="cls-1" d="M43.49,63.33s.04-.14.12-.1c-.07-.01-.07.2-.12.1Z"/>
      <path class="cls-1" d="M43.96,62.72s.04-.01.04-.05c.06,0,.06.06.04.09l-.08-.05Z"/>
      <polygon class="cls-1" points="51.01 51.8 50.99 51.87 50.94 51.82 51.01 51.8"/>
      <path class="cls-1" d="M55.45,48.48c.04-.08.08.04.09.04-.06.04-.02-.09-.09-.04Z"/>
      <polygon class="cls-1" points="58.08 47 58.06 47.01 58.03 46.86 58.08 47"/>
    </g>
    <g>
      <path class="cls-1" d="M61.62,33.14c.07-.14-.15-.02.02-.11.03.05.05.1-.02.11Z"/>
      <path class="cls-1" d="M33.86,63.02c0-.62.71-.89.85-1.46.03-.06.15.14.2,0,.09-.59.75-1.12,1.33-1.46l.02.07c.11-.07.05-.3.15-.39.03.02.02.07.08.08-.07-.1.11-.21.07-.31.07,0,.14.05.22.04l-.06-.14c-.12-.36.33-.37.38-.69.02.03.02.07.05.07.14-.47.52-.87.79-1.3.02.05.08.12.14.13-.09-.11-.02-.25.05-.37.15.05.05-.26.21-.33l.02.03c-.04-.19.18-.07.1-.26l.13.02c-.12-.17.19-.06.17-.2l-.03-.03c.02-.1.13-.07.16-.16h.02c.09-.17.25-.18.13-.29.14.03-.08.18.13.22.3-.59.76-1.08,1.19-1.56.1-.01.14-.03.2,0,.02-.07.14-.2.12-.3-.01.02.09.02.12,0,.12-.05-.04-.21.1-.26,0,.07.02.11.08.14-.02-.17.1-.26.15-.39,0,.03,0,.07.04.1,0-.2.2-.17.22-.32l.04.1c.22-.07-.1-.17.07-.26,0,.05.03.06.05.1-.01-.23.21-.39.28-.55,0,.02.02.03.02.03.11-.14.27-.24.35-.44.08-.02.15.17.25.01-.14-.12.16-.28-.06-.35.13-.09.36-.23.39-.35,0,.1.22.1.14.21h.15c.04.07-.09.06,0,.11.04-.05.12-.24.18-.27,0-.17-.07-.4.05-.56-.01.12.18.1.16.17l-.06-.45c.04-.05.11.09.15,0-.04-.03-.03-.08-.04-.13.03,0,.16-.23.31-.12.07.03-.05.1.05.1.09-.09.05-.14.13-.22l.02.02c.08-.04.11-.22-.02-.23-.04.04.09.06,0,.08-.03-.12.05-.24.13-.33,0,.05.03.08.05.13.02-.22.11-.38.2-.55-.06-.06.06.16,0,.15.26-.08.24-.46.51-.47-.01.03-.1-.08-.08-.06.09-.07.17.02.2-.06.06.05.05-.08.09-.15,0-.07.04.01,0,.06.04-.12.27-.5.53-.58-.04-.03,0-.23.04-.27l.06.1c.08.02.14-.13.21-.07,0-.18-.28.4-.22.21.1.04.05-.29.13-.15.08-.08.08-.25.24-.24-.04,0,.03.18.1.11.11-.12,0-.07.07-.19l.03-.09c-.07-.09.12-.08,0-.14.07.06.14-.2.25-.05l.08.13c.05-.05-.01-.19-.01-.28.02,0,.05.02.06.04-.14-.18.14-.09.09-.28.16-.04.28-.23.42-.17.04-.12.06-.25.19-.3,0,.03-.03.06,0,.1.1,0,.08-.06.11-.13,0,.03.21,0,.32,0,.04-.12-.07-.19-.11-.25.22.09.13-.32.36-.26,0,.05-.05.19.06.17.22.09.04-.26.23-.29l-.15-.11c.13.03.1-.24.22-.09,0-.09.18-.09.05-.2.3-.07.41-.52.75-.4,0-.05.1-.09.02-.15-.11-.03-.01.11-.08.08.02-.03,0-.07-.02-.09.09-.03.14-.07.19.1.21-.05-.07-.35.14-.47.04.06.08.07.12.01v-.18c.14-.09.19.06.28.14.04-.07.12-.14.08-.23l.18.04c-.13-.03,0-.1,0-.15v.05s.09-.06.11-.11c-.06-.05-.15,0-.21.02,0-.07.05-.11.04-.19.07.1.16-.03.21-.07.07-.03-.02-.14,0-.15.05.04.09-.08.12.02,0,.03-.08,0-.07.07.07,0,.14.08.16-.05.01-.1-.18-.16-.03-.21,0,.05.02.09.03.14l.14-.05-.07-.08s.03.02.05.03c-.05-.11.12-.17.05-.29.04-.06.16-.05.21-.09v.02c.1-.01.15-.12.14-.22v.02c.05-.03.11-.11.1-.2.14-.02.33.27.31.08.08-.08-.02-.27-.11-.29.19-.09.22-.39.48-.4-.01-.05-.05-.06-.02-.12.24-.18.34-.54.66-.56-.03.1.08.08.12.12-.02-.12.13,0,.03-.13-.08-.06-.11-.1-.2-.07.08-.17.27-.36.4-.37-.07,0-.06-.04-.06-.09.11.12.22.04.24-.07l-.06-.08.12.02s-.12-.17.01-.18c.03.02.06.04.1.05.01-.13.01-.33.15-.35l.17.03s.01-.16-.07-.13c.19-.08.28-.16.41-.12,0-.45.31-.8.58-1.07l.05.06c.12-.03-.06-.13.03-.14.03.07.16.04.17.16.16-.06.03-.22.07-.32-.06-.08,0,.1-.08,0-.01-.04.19-.1.1-.21.07.01.13.1.16.16v-.11c.21.03.07.39.3.44l.04-.08c.17.04-.02.28.16.16,0-.11-.1-.31-.2-.3.1-.17-.2-.3-.06-.44.1.02-.09.13.02.18.15,0,.08-.18.17-.22-.1.03-.16-.12-.14-.19.12-.03.06.14.17.04-.05-.07,0-.21-.12-.17-.11-.17.14-.08.08-.23.13.05.13.32.29.24-.11-.07,0-.26-.2-.33.07-.02.15.04.18.13.12-.01-.03-.32.18-.17l-.08-.11c.05,0,.1,0,.18.01.05-.06.03-.31.18-.17,0-.03.13-.16-.02-.2-.14.03,0,.16-.19.08.17.04.09-.13.1-.21l.06.04s.07-.1.03-.18c.01.05.06.07.1.06l-.06-.11c.06-.15.18.11.25-.03v.15s.11,0,.13-.08c-.06-.1-.12-.21-.17-.29.02-.09.12.05.09-.08l.02.17s.18.06.26-.02c.02-.08-.02-.27-.14-.22.04-.04.14-.06.17.03.06-.12-.1-.06-.07-.19.08.01.25-.03.39-.02l.06.21.05-.06c.04.17.12.03.19.18.05-.02.06-.11.06-.17-.28-.04-.13-.35-.33-.46.09-.2.49.26.38-.14-.07-.01-.12-.2-.16-.06.11-.08-.11-.21.06-.27,0,.15.25.05.24.27-.05-.06-.1.03-.1.07.1.01.16.16.25.05.04-.08.11-.16.01-.23-.1-.08-.07.1-.13-.02.08-.15.24-.05.11-.24-.06.09-.17.02-.23-.04l.04-.13.05.07c.17-.11-.08-.14.06-.27l.18.04c.08.13-.23.16-.03.29.09-.09.03-.19.15-.24,0,.03-.02.06-.02.1.03-.03.3.14.27-.11,0-.11-.05-.07-.11-.13.11-.16.08-.27.15-.37.11.13.16-.16.2.06-.12-.02-.3.2-.22.36.2.08-.12.1,0,.26.11-.12.25.02.37.09.04-.03.02-.09.02-.13-.08-.09-.12-.05-.21-.13.14-.11.2-.28.17-.43.08,0,.16.09.13.15.11-.18.27-.34.43-.46-.23-.03.11-.2-.07-.24-.1.05-.27.03-.3-.08.05-.04.06.06.12.07-.03-.14.22.01.14-.16-.08.19.16.19.26.32.02-.16.08.08.17-.03.02-.16.08-.33.15-.47.24-.05.32-.37.42-.5.12-.02.21.14.3.09.07-.09-.2-.06-.03-.14l.02.04c0-.07.29-.16.13-.36l.11.16s.02-.06.02-.1c.05.04.12.05.11.11.17,0,.13-.18.19-.27l-.13-.02c.06-.21.23-.23.32-.4l.08.08.02-.13c.06.09.18.06.15-.05l.02.4c-.1.02-.05-.15-.16-.19-.1-.03-.19.12-.13.21.05-.04.04-.06.04-.13.13.08.06.16.11.26.02-.03.09-.04.05-.08.01.1-.02.16-.09.25,0-.1-.1-.03-.11-.08.1.09.06.2-.06.29-.18-.03-.09.27-.23.36-.06-.14-.09-.28-.07-.39-.12.03-.07.09-.19.12.05.1.14.23.1.38l-.08-.06c-.04.13.08.22-.05.32-.21.17-.39.37-.53.52l-.08-.06c.09.23-.18.34-.21.51-.24.13-.29.48-.51.47-.24.39-.44.74-.78,1.07l-.06-.16c.03.13-.1-.02-.14.06.15,0,.04.19.07.29-.22.08-.31.37-.35.57l-.08-.06c.02.27-.26.32-.43.48-.05,0-.15-.04-.19.02.04.2-.01.25-.06.45-.09.1-.27.24-.41.3-.17.53-.63.82-.88,1.31l-.11-.05c-.16.55-.76.86-.96,1.27l-.12-.17c-.14.06-.17.27-.04.34-.14.06-.16.32-.35.27-.12.08-.05.19-.11.29-.25.15-.31.24-.46.46l.05-.04c-.01-.05-.07-.11-.13-.07-.03.11-.29.23-.05.32-.3.11-.38.56-.71.63.06.03.03.09.04.14-.17.18-.45.28-.51.5-.05,0-.04-.12-.11-.06-.02.06.06.06.04.14-.2.38-.67.5-.91.78-.37.56-.91.99-1.35,1.45l-.03-.04c-.02.28-.49.2-.42.52-.07,0-.16.11-.19.02-.03.21-.43.23-.5.52.02-.01.02-.03.03-.06-.25.09-.31.35-.58.44,0-.03.03-.08,0-.12-.14,0-.04.31-.24.17-.04.04.05.12.07.09-.5.31-.85.82-1.24,1.23-.4.16-.28-.28-.41.06-.05-.02.05.08,0,.05-.05.13-.32-.07-.31.08.12.08.01.1.07.17-.25.1-.37.04-.44.26l-.04-.07c-.02.32-.3.42-.27.73-.89.93-1.66,1.91-2.5,2.85-.88.88-1.62,1.86-2.56,2.73-.35.09-.36.11-.51.41-.02-.03,0-.05-.05-.05.11.12-.14.18-.04.31-.33.34-.58.69-.89,1.06.04-.07-.04-.19-.09-.11l.02.14-.04-.02c-.02.06,0,.17.08.15-.67,1.02-1.69,1.72-2.41,2.67-.23.18-.44.53-.6.79-.74.57-1.39,1.11-1.84,1.93,0,0-.26-.35-.1-.72Z"/>
      <path class="cls-1" d="M61.52,33.29c-.08-.03-.19.03-.22-.11.07.04.17.05.22.11Z"/>
      <path class="cls-1" d="M59.04,34.9s-.05,0-.07,0c.02-.03-.01-.1.04-.09-.02.03.01.05.03.09Z"/>
      <path class="cls-1" d="M58.52,35.42c-.05-.06,0-.21.06-.29l-.06.29Z"/>
      <path class="cls-1" d="M57.85,35.73c-.08,0-.1-.03-.05-.09.03.02.03.05.05.09Z"/>
      <path class="cls-1" d="M57.95,35.88s-.09.04-.14.03c.05.04.06-.12.14-.03Z"/>
      <path class="cls-1" d="M56.82,36.84s-.02.13-.11.1c.07,0,.04-.19.11-.1Z"/>
      <path class="cls-1" d="M56.45,37.42s-.03.01-.04.04c-.05,0-.06-.06-.05-.09l.08.05Z"/>
      <polygon class="cls-1" points="48.12 46.56 48.15 46.48 48.19 46.54 48.12 46.56"/>
      <path class="cls-1" d="M44.08,50.23c-.02.09-.08-.01-.1-.01.04-.05.05.08.1.01Z"/>
      <polygon class="cls-1" points="42.27 52.59 42.28 52.57 42.39 52.68 42.27 52.59"/>
    </g>
    <g>
      <path class="cls-1" d="M37.67,47.56c-.05-.04-.12.07-.07-.02.06-.01.11-.02.07.02Z"/>
      <path class="cls-1" d="M48.26,58.4c-.28.34-.42-.12-.69.07-.03,0,.07-.21,0-.17-.28.23-.56,0-.69-.33l.03-.05c-.03-.06-.15.11-.19.06.01-.04.04-.05.04-.11-.06.11-.1.02-.16.1,0-.05.04-.14.03-.2l-.08.12c-.2.28-.17-.1-.33.02.02-.03.04-.05.04-.08-.24.12-.43,0-.64,0,.03-.04.08-.12.09-.18-.07.13-.15.14-.2.14.05-.15-.14.08-.16-.03l.02-.03c-.11.12-.02-.12-.14.04l.03-.12c-.12.18,0-.13-.09-.05l-.02.04c-.06.03-.02-.08-.07-.06v-.02c-.09.01-.07-.12-.15.03.04-.13.1-.02.15-.21-.31.03-.52-.13-.75-.26.01-.07,0-.1.04-.16-.04.01-.09-.03-.16.03,0,0,.03-.08.03-.1,0-.08-.14.12-.14.03.04-.03.08-.07.11-.12-.11.08-.14.03-.21.04.02-.02.04-.03.07-.07-.13.09-.07-.09-.16-.04l.07-.07c0-.14-.14.15-.15.06.03-.02.05-.05.07-.08-.15.11-.21,0-.29,0,.01,0,.03-.03.03-.03-.07-.02-.1-.11-.21-.09,0-.05.15-.18.07-.2-.12.16-.15,0-.25.19-.03-.06-.07-.18-.14-.16.07-.04.13-.21.18-.19l.04-.12c.05-.06.01.05.07-.04-.02-.01-.13,0-.13-.04-.11.06-.29.2-.36.17.08-.03.12-.18.16-.19l-.32.21s.09-.12.03-.11c-.03.04-.06.05-.1.08,0-.02-.12-.04,0-.19.04-.06.06,0,.08-.07-.04-.03-.08.02-.12-.01l.02-.02s-.13,0-.17.1c.01.02.07-.09.06-.03-.09.07-.15.05-.19.02.03-.01.07-.05.11-.09-.15.07-.24.06-.33.06-.06.07.13-.1.11-.06.01-.16-.27,0-.2-.18.02,0-.08.1-.07.08-.03-.04.07-.13.01-.12.05-.06-.04,0-.08-.01-.05.03.02-.03.05-.02-.08.02-.28-.02-.27-.17-.03.04-.18.09-.19.07l.09-.08c.04-.07-.06-.05,0-.12-.14.07.22.05.09.08.06-.08-.2.07-.07-.04-.03-.03-.16.03-.11-.08,0,.02.14-.09.11-.11-.06-.03-.05.03-.12.02h-.06c-.09.09-.03-.04-.11.07.06-.07-.11-.03.04-.16l.12-.1s-.15.08-.21.11c0-.01.02-.04.04-.05-.17.16-.03-.06-.19.04.02-.1-.1-.11-.01-.23-.08.01-.18.04-.17-.03.02,0,.04,0,.08-.03.03-.07-.02-.04-.07-.03.03-.02.06-.14.1-.22-.08.01-.17.11-.23.15.15-.18-.19,0-.07-.18.03,0,.13-.02.15-.09.15-.18-.18.05-.14-.07l-.14.14c.07-.1-.15,0,0-.12-.07.03,0-.1-.14.03.05-.18-.25-.14-.03-.41-.03,0-.03-.04-.1.02-.06.09.08-.02.03.03-.01,0-.06.02-.08.04.01-.05,0-.08.15-.15.04-.13-.3.14-.3.02.06-.04.08-.07.05-.08l-.14.04c-.01-.07.12-.14.22-.22-.04-.01-.06-.05-.14,0l.11-.13c-.08.1-.08.03-.11.03h.03s0-.06-.03-.06c-.06.05-.06.1-.07.14-.06.02-.06,0-.13.01.11-.07.04-.1.04-.13,0-.04-.11.04-.11.03.05-.04-.02-.05.07-.08.02,0-.04.06.02.04.03-.05.12-.11.03-.1-.07.01-.2.16-.17.06.03,0,.08-.03.12-.05l.02-.08-.1.07s.03-.03.04-.04c-.11.06-.08-.05-.2.03-.03-.02.03-.1.03-.12h.01c.04-.07-.03-.08-.11-.05h.02s-.04-.06-.11-.03c.05-.09.35-.27.2-.22-.03-.03-.22.07-.27.12.02-.11-.2-.08-.09-.24-.05.02-.07.04-.1.04-.03-.13-.26-.14-.12-.35.06,0,.1-.06.15-.1-.1.03.07-.09-.08,0-.09.06-.13.09-.15.14-.09-.03-.15-.12-.09-.21-.03.04-.07.05-.1.05.14-.09.14-.15.07-.15l-.09.05.07-.08s-.19.1-.13.01c.03-.02.07-.05.09-.07-.09.01-.25.04-.2-.05l.11-.11s-.12.01-.14.06c.03-.11.02-.16.12-.25-.34.05-.45-.11-.5-.26l.07-.03c.04-.07-.13.05-.1,0,.07-.03.12-.11.22-.12.04-.09-.15,0-.2-.02-.09.05.07,0-.04.05-.03.01.03-.11-.11-.04.04-.04.15-.09.21-.11h-.08c.13-.12.33-.07.5-.21l-.04-.02c.12-.11.2-.02.21-.11-.08,0-.29.09-.33.15-.07-.04-.33.15-.36.07.07-.06.05.05.15-.03.09-.09-.1-.03-.08-.08-.03.06-.18.11-.22.1.04-.07.14-.05.12-.11-.08.03-.17.02-.2.09-.19.08.02-.08-.13-.03.11-.08.31-.1.35-.19-.11.07-.2.02-.36.14.02-.04.11-.09.2-.12.06-.07-.26.04-.03-.1l-.13.05s.06-.06.11-.11c-.01-.03-.21,0-.03-.1-.02,0-.05-.07-.16.02-.06.08.12,0-.04.11.13-.1-.05-.05-.11-.05l.07-.04s-.04-.04-.12,0c.05-.01.09-.04.1-.06l-.12.04c-.08-.03.18-.11.12-.15h.11s.07-.07.02-.08c-.11.04-.23.09-.32.12-.06,0,.11-.07-.01-.05l.14-.02s.15-.11.13-.15c-.05,0-.21.02-.25.09-.01-.02.03-.08.12-.1-.06-.03-.1.06-.19.05.06-.05.13-.15.21-.23l.19-.04v-.03c.14-.03.08-.07.23-.12.01-.03-.05-.03-.09-.03-.2.17-.34.09-.54.21-.09-.05.48-.3.12-.22-.05.04-.23.08-.14.1,0-.06-.23.07-.17-.03.11,0,.19-.15.34-.15-.07.03-.04.06-.01.06.07-.06.21-.1.19-.15-.03-.02-.06-.06-.16,0-.12.06.03.04-.1.08-.07-.04.11-.14-.12-.06.03.03-.08.1-.17.14l-.07-.02.08-.03c.02-.1-.15.05-.17-.03l.14-.11c.14-.05-.01.13.2.01-.01-.05-.13-.01-.09-.08.02,0,.04.01.06.01,0-.02.29-.17.08-.16-.08,0-.08.03-.17.07-.06-.06-.15-.04-.19-.08.17-.06-.02-.09.17-.11-.08.07-.03.17.14.12.18-.11,0,.07.2,0-.02-.06.17-.14.29-.21,0-.02-.06-.01-.08-.01-.12.05-.11.07-.23.12,0-.08-.09-.11-.22-.09.05-.05.17-.09.19-.07-.07-.06-.09-.15-.08-.24-.17.13-.08-.06-.23.04-.03.06-.15.15-.24.17,0-.03.08-.04.12-.06-.12.01.15-.12-.03-.08.09.04.24-.09.4-.14-.11-.01.11-.04.09-.09-.11-.01-.2-.05-.26-.09.11-.13-.07-.18-.1-.24.06-.06.25-.11.26-.16-.02-.04-.17.11-.12.01h.04s.07-.17-.18-.09l.2-.05s-.03-.01-.06-.01c.06-.02.11-.06.16-.06.11-.09-.05-.07-.07-.11l-.1.07c-.12-.04-.02-.13-.09-.18l.11-.04-.08-.02c.11-.03.16-.09.07-.08h.31c-.05.06-.14.03-.25.08-.09.05-.04.1.07.08,0-.03-.02-.02-.07-.03.15-.06.16-.03.26-.04-.01-.01.03-.05-.02-.03.08,0,.1.02.12.06-.07,0-.09.05-.14.06.13-.05.19-.02.17.04-.14.1.14.06.12.13-.14.03-.26.04-.33.03-.05.06.02.04-.03.1.11-.02.27-.07.35-.05l-.1.04c.07.02.21-.04.21.03-.01.11.03.21.05.29l-.1.04c.23-.05.13.1.25.11-.05.13.18.16.03.28.15.12.29.23.33.41l-.15.04c.12-.02-.07.06-.04.08.1-.09.16-.03.26-.05-.07.13.09.16.22.17l-.09.05c.21-.03.09.13.11.22-.03.03-.12.09-.09.11.18-.04.18,0,.3,0,.02.05.03.14,0,.22.3.06.27.3.5.4l-.1.08c.33.03.24.36.44.44l-.19.1c-.03.08.11.07.23-.02-.03.08.16.05.03.17,0,.07.12,0,.17.02-.01.13.03.16.12.22v-.03s-.12.07-.12.09c.07,0,.03.15.22-.02-.06.17.23.14.13.34.05-.05.08-.03.12-.05.06.07,0,.23.14.23-.02.03-.11.05-.09.08.03,0,.07-.05.12-.05.19.04.07.33.18.42.25.12.35.36.52.52l-.04.03c.2-.07-.04.27.23.13-.03.05.03.07-.06.12.15-.04.01.22.2.17,0,0-.01,0-.04,0-.03.14.14.1.13.25-.02,0-.05,0-.09.04-.05.1.22-.08.05.1.02.01.1-.07.09-.08.08.22.35.27.54.38,0,.22-.29.3-.07.26-.03.04.07-.06.04-.02.08-.01-.14.25-.03.18.1-.12.08-.04.14-.11,0,.14-.08.25.05.22l-.06.05c.22-.1.22.05.45-.09.41.27.82.5,1.22.72.35.3.75.48,1.09.8-.01.23,0,.24.15.22-.02.03-.03.03-.04.06.09-.15.08.03.17-.11.13.11.29.15.44.23-.03,0-.11.12-.07.13l.08-.09-.02.05s.09-.08.09-.14c.46.02.72.52,1.14.64.08.09.24.07.35.07.25.31.51.57.87.51,0,0-.13.42-.3.48Z"/>
      <path class="cls-1" d="M37.7,47.62c-.08.04-.11.09-.23.1.07-.03.15-.08.23-.1Z"/>
      <path class="cls-1" d="M37.3,48.99s-.03.03-.04.04c-.01-.01-.08,0-.05-.02.01.01.05,0,.08-.02Z"/>
      <path class="cls-1" d="M37.37,49.28c-.07.03-.15,0-.18-.04l.18.04Z"/>
      <path class="cls-1" d="M37.19,49.66s-.08.06-.1.03c.04-.02.06-.02.1-.03Z"/>
      <path class="cls-1" d="M37.36,49.61s-.02.05-.06.08c.06-.03-.06-.03.06-.08Z"/>
      <path class="cls-1" d="M37.42,50.24s.08.01.01.06c.05-.04-.12-.02-.01-.06Z"/>
      <path class="cls-1" d="M37.65,50.44s-.01.02.01.02c-.02.03-.08.04-.09.03l.08-.05Z"/>
      <polygon class="cls-1" points="40.69 54.47 40.65 54.47 40.71 54.42 40.69 54.47"/>
      <path class="cls-1" d="M42.24,56.04c.05-.02-.03.07-.04.08-.03-.01.07-.06.04-.08Z"/>
      <polygon class="cls-1" points="43.4 56.5 43.39 56.5 43.48 56.38 43.4 56.5"/>
    </g>
    <g>
      <path class="cls-1" d="M32.05,51.24c-.06-.05-.12.08-.07-.02.06-.01.11-.02.07.02Z"/>
      <path class="cls-1" d="M45.63,64.47c-.37.28-.49-.23-.83-.1-.03,0,.1-.2.02-.18-.36.18-.64-.15-.81-.5l.04-.05c-.03-.06-.19.09-.23.04.02-.04.04-.04.06-.1-.07.11-.12,0-.19.07,0-.06.05-.14.05-.21l-.1.11c-.24.26-.2-.14-.39-.04.02-.03.05-.04.05-.08-.29.08-.5-.08-.75-.13.03-.04.09-.12.1-.17-.08.13-.17.12-.24.12.05-.15-.17.07-.19-.04l.02-.03c-.13.11-.03-.12-.16.03l.03-.12c-.13.18-.01-.14-.11-.06l-.02.04c-.07.03-.03-.08-.08-.07v-.02c-.1,0-.08-.14-.17.01.04-.13.11,0,.17-.2-.35-.02-.61-.22-.87-.39,0-.08,0-.11.03-.16-.05.01-.12-.04-.19.02.01,0,.03-.08.02-.1-.01-.08-.16.12-.17.02.05-.02.08-.07.11-.12-.12.08-.17.03-.24.03.02-.02.05-.02.08-.07-.14.09-.09-.09-.19-.05l.08-.07c-.01-.15-.14.15-.17.05.03-.01.05-.05.08-.08-.17.1-.23-.02-.33-.02.01,0,.03-.03.03-.03-.08-.03-.12-.13-.24-.13,0-.06.15-.19.06-.21-.11.16-.17-.03-.26.19-.04-.07-.1-.21-.18-.18.07-.04.12-.22.18-.19l.03-.12c.05-.06.02.05.07-.04-.03-.01-.15,0-.16-.05-.12.06-.3.21-.4.17.08-.03.11-.19.16-.2l-.34.22s.09-.13.02-.11c-.03.04-.07.06-.1.08,0-.02-.14-.04-.03-.2.04-.07.07,0,.08-.08-.05-.03-.09.02-.14-.02l.02-.02s-.14-.01-.18.1c.02.02.07-.1.06-.03-.09.07-.17.05-.21.01.04-.01.07-.05.11-.09-.16.07-.25.05-.36.04-.06.07.13-.11.11-.06,0-.17-.3-.02-.25-.22.02,0-.08.11-.06.09-.03-.05.05-.15,0-.13.05-.06-.05-.01-.09-.02-.05.03.02-.04.05-.02-.08.02-.32-.03-.34-.19-.03.04-.18.09-.2.07l.09-.08c.03-.07-.08-.05-.01-.13-.14.07.26.05.12.09.05-.09-.21.07-.09-.04-.04-.03-.18.03-.14-.09,0,.02.15-.1.11-.12-.07-.04-.06.03-.13.02h-.06c-.08.1-.04-.05-.11.07.06-.08-.13-.03.01-.17l.11-.11s-.15.08-.22.11c0-.01.02-.04.04-.06-.17.17-.04-.07-.2.03,0-.11-.13-.13-.05-.26-.09.01-.18.04-.19-.04.02,0,.04,0,.08-.03.02-.08-.03-.04-.08-.04.03-.02.04-.15.07-.25-.09.01-.17.12-.22.17.13-.2-.22,0-.11-.2.04,0,.14-.03.15-.1.13-.2-.19.05-.17-.08l-.12.15c.06-.11-.17,0-.02-.14-.07.03-.02-.11-.15.03.02-.2-.3-.16-.11-.46-.04,0-.04-.05-.11.02-.06.1.08-.02.04.04-.02,0-.06.02-.08.04,0-.06,0-.09.13-.17.02-.15-.3.15-.32.01.06-.05.08-.08.05-.09l-.14.04c-.03-.08.1-.15.2-.24-.04-.01-.07-.06-.16,0l.09-.15c-.07.11-.08.03-.12.04h.04c.04-.05-.02-.06-.05-.07-.06.06-.05.12-.05.15-.06.02-.07,0-.14.02.1-.08.02-.11.01-.14,0-.05-.12.05-.12.04.05-.05-.03-.05.06-.09.02,0-.03.07.03.04.02-.05.11-.13.01-.11-.07.01-.19.18-.17.07.04,0,.08-.04.12-.06v-.09s-.09.08-.09.08c.02-.03.03-.03.04-.04-.11.07-.1-.05-.21.03-.03-.02.01-.11,0-.14h.01c.03-.08-.04-.09-.13-.06l.02-.02s-.05-.05-.12-.03c.03-.1.33-.3.18-.25-.04-.04-.22.07-.27.14,0-.13-.22-.09-.14-.28-.05.02-.06.05-.1.04-.06-.14-.31-.16-.2-.39.07,0,.1-.07.15-.11-.11.04.06-.1-.09,0-.08.07-.13.1-.13.16-.1-.03-.19-.14-.14-.24-.02.05-.06.05-.1.06.14-.1.12-.17.04-.17l-.09.06.07-.09s-.19.12-.14.02c.03-.03.06-.05.08-.08-.1.01-.26.04-.22-.06l.1-.13s-.12.01-.14.07c.02-.13,0-.19.08-.29-.35.06-.51-.13-.6-.29l.07-.04c.03-.08-.13.06-.1,0,.07-.03.11-.12.21-.14.03-.11-.17,0-.22-.02-.09.05.08,0-.04.06-.04.01.01-.13-.12-.05.04-.05.14-.1.2-.13h-.09c.12-.14.34-.07.49-.25l-.04-.02c.11-.12.21-.02.2-.13-.09,0-.29.1-.33.17-.09-.05-.33.17-.37.08.06-.07.06.05.16-.03.08-.11-.11-.04-.1-.1-.02.07-.18.13-.22.12.03-.08.14-.05.11-.12-.08.04-.17.02-.19.1-.18.09,0-.09-.15-.04.11-.1.32-.12.33-.22-.11.09-.21.02-.36.17.02-.05.11-.11.19-.14.05-.08-.27.05-.05-.11l-.13.06s.05-.07.1-.13c-.02-.03-.23,0-.05-.11-.03,0-.07-.08-.17.03-.05.09.13,0-.03.13.12-.12-.06-.06-.13-.05l.07-.05s-.05-.05-.13,0c.05-.01.09-.05.1-.07l-.12.05c-.1-.03.18-.13.11-.18h.11s.06-.08.01-.1c-.11.04-.23.1-.32.13-.06-.01.1-.08-.02-.06l.15-.02s.14-.13.11-.18c-.05-.01-.22.03-.25.11-.02-.02.02-.09.11-.12-.07-.04-.1.07-.19.06.05-.06.11-.18.18-.27l.19-.05-.02-.03c.16-.04.09-.08.24-.14,0-.04-.05-.03-.1-.03-.18.2-.35.1-.54.24-.11-.06.46-.34.09-.25-.04.05-.23.09-.13.11-.01-.07-.23.08-.18-.04.11,0,.18-.17.34-.17-.07.03-.03.07,0,.07.06-.07.21-.11.18-.17-.04-.02-.07-.07-.18,0-.12.07.04.05-.09.09-.08-.05.09-.16-.14-.07.04.04-.07.12-.15.16l-.08-.03.08-.03c.01-.12-.16.05-.18-.04l.13-.12c.14-.05,0,.15.21.02-.02-.06-.14-.02-.11-.1.02,0,.04.01.06.01,0-.02.28-.2.07-.18-.09,0-.08.03-.17.08-.07-.07-.17-.05-.21-.1.17-.07-.04-.11.16-.13-.08.08,0,.2.17.15.17-.13,0,.08.21,0-.03-.07.16-.17.27-.25,0-.02-.06-.01-.09-.01-.12.05-.1.08-.22.14,0-.09-.11-.13-.25-.11.04-.06.16-.11.19-.08-.08-.07-.12-.18-.13-.28-.16.15-.09-.07-.23.04-.02.07-.13.18-.23.2,0-.04.08-.04.12-.07-.12.01.14-.14-.04-.1.1.06.24-.1.4-.16-.11-.02.11-.05.08-.11-.11-.02-.21-.06-.28-.11.1-.15-.1-.22-.14-.29.06-.08.24-.13.25-.18-.03-.05-.17.12-.12.01h.04c-.05-.01.06-.2-.2-.11l.2-.06s-.04-.02-.06-.02c.06-.03.11-.07.16-.06.11-.1-.06-.09-.09-.14l-.1.08c-.13-.05-.04-.15-.11-.22l.11-.04-.09-.02c.11-.03.16-.1.06-.09l.32.02c-.05.06-.15.02-.25.08-.09.06-.03.12.08.09,0-.03-.02-.03-.07-.03.15-.07.16-.03.27-.05-.01-.01.03-.05-.02-.04.09,0,.11.02.14.07-.07,0-.09.06-.13.06.14-.05.2-.02.19.05-.13.11.15.07.14.16-.15.03-.27.04-.34.02-.05.08.03.05-.02.12.11-.02.27-.08.36-.05l-.1.05c.08.03.22-.04.23.04,0,.13.06.25.09.34l-.1.05c.23-.06.15.12.28.14-.04.15.22.18.08.33.18.15.33.28.41.48l-.16.05c.12-.02-.07.07-.03.09.09-.1.17-.03.27-.06-.06.15.12.19.26.21l-.09.06c.22-.03.12.15.15.26-.03.03-.11.11-.08.13.18-.04.19,0,.33,0,.03.05.05.16.03.25.34.07.34.36.6.48l-.09.09c.36.04.33.42.57.5l-.19.11c-.02.09.13.09.25-.02-.02.09.18.07.06.21,0,.08.13,0,.18.03.02.15.06.18.17.25v-.03c-.05.02-.13.07-.12.11.08,0,.06.17.24-.03-.03.2.29.16.21.39.05-.05.08-.04.12-.06.07.09.04.28.19.27-.02.04-.11.05-.09.1.04,0,.07-.06.12-.06.22.06.15.37.29.48.31.13.46.41.68.61l-.04.03c.21-.07.02.3.28.15-.02.05.05.08-.04.14.16-.05.06.25.27.2,0-.01-.02,0-.04,0,0,.16.18.12.19.28-.02,0-.05,0-.09.04-.04.1.23-.08.07.12.02.02.1-.08.08-.08.12.26.43.34.68.47.05.24-.27.32-.03.28-.02.04.07-.07.04-.03.09-.01-.12.27,0,.2.09-.13.08-.05.14-.12.02.15-.05.28.1.25l-.06.06c.23-.1.25.08.49-.07.48.37,1.06.57,1.54.91.43.4.99.58,1.4,1.03,0,.26.02.26.19.27-.02.03-.04.03-.04.06.1-.15.1.04.2-.09.17.14.37.19.57.3-.04,0-.13.11-.08.13l.09-.08-.02.05s.11-.07.11-.13c.57.13.87.74,1.41.92.09.12.29.14.43.16.29.39.57.72,1.03.75,0,0-.22.4-.43.42Z"/>
      <path class="cls-1" d="M32.1,51.31c-.08.05-.1.11-.23.11.07-.03.15-.09.23-.11Z"/>
      <path class="cls-1" d="M31.84,52.93s-.02.03-.03.04c-.01-.01-.09,0-.05-.03.01.01.05,0,.09-.02Z"/>
      <path class="cls-1" d="M31.96,53.28c-.07.03-.16,0-.19-.04l.19.04Z"/>
      <path class="cls-1" d="M31.83,53.73c-.04.06-.08.07-.1.03.04-.02.06-.02.1-.03Z"/>
      <path class="cls-1" d="M32,53.66s-.02.06-.05.09c.06-.03-.07-.04.05-.09Z"/>
      <path class="cls-1" d="M32.17,54.41s.09.01.02.07c.04-.05-.13-.02-.02-.07Z"/>
      <path class="cls-1" d="M32.44,54.65s0,.02.02.02c-.02.04-.08.05-.09.04l.08-.06Z"/>
      <polygon class="cls-1" points="36.48 59.28 36.43 59.29 36.49 59.23 36.48 59.28"/>
      <path class="cls-1" d="M38.46,61.08c.06-.01-.03.07-.03.09-.03-.02.07-.07.03-.09Z"/>
      <polygon class="cls-1" points="39.84 61.65 39.83 61.64 39.93 61.52 39.84 61.65"/>
    </g>
    <g>
      <path class="cls-1" d="M52.12,31.72c-.05-.05-.11.07-.07-.02.06-.01.1-.02.07.02Z"/>
      <path class="cls-1" d="M63.61,43.44c-.3.3-.45-.15-.74.02-.03,0,.07-.19,0-.17-.3.2-.59-.04-.74-.37l.04-.05c-.03-.06-.16.09-.2.05.01-.04.04-.04.05-.1-.06.1-.11.01-.16.08,0-.05.04-.14.03-.19l-.08.11c-.2.26-.18-.11-.35,0,.02-.03.04-.04.04-.07-.25.1-.45-.03-.68-.06.03-.04.08-.11.09-.16-.07.12-.15.12-.21.12.05-.14-.15.07-.17-.04l.02-.03c-.11.11-.02-.11-.14.03l.03-.12c-.12.17-.01-.13-.1-.06l-.02.04c-.06.02-.02-.08-.07-.06v-.02c-.09,0-.07-.12-.15.02.04-.12.1,0,.15-.19-.32,0-.55-.17-.78-.31,0-.07,0-.1.03-.15-.04.01-.1-.04-.16.02,0,0,.03-.08.02-.09,0-.08-.14.11-.15.02.04-.02.08-.06.1-.11-.11.07-.15.02-.22.02.02-.02.04-.02.07-.06-.13.08-.07-.09-.17-.05l.07-.06c0-.14-.13.14-.15.04.03-.01.05-.05.07-.07-.15.09-.21-.02-.3-.01.01,0,.02-.03.02-.03-.07-.03-.1-.12-.22-.11,0-.05.14-.17.06-.19-.11.15-.16-.02-.25.17-.04-.06-.08-.18-.15-.17.07-.03.12-.2.17-.17l.04-.11c.05-.05.02.05.07-.03-.03-.01-.13,0-.13-.05-.11.05-.28.18-.36.14.08-.03.11-.17.15-.18l-.32.19s.09-.11.03-.1c-.03.04-.06.05-.1.07,0-.02-.12-.04,0-.19.04-.06.06,0,.08-.07-.04-.03-.08.01-.12-.02l.02-.02s-.13,0-.17.09c.01.02.07-.09.06-.02-.09.06-.15.04-.2.01.03,0,.06-.05.1-.08-.15.06-.24.04-.34.03-.06.06.13-.1.11-.05,0-.15-.27-.02-.22-.2.02,0-.08.09-.06.08-.03-.04.06-.13,0-.12.05-.06-.04-.01-.08-.02-.05.03.02-.03.04-.02-.07.01-.28-.04-.28-.19-.03.04-.17.08-.18.06l.09-.07c.03-.06-.06-.05,0-.12-.13.06.22.06.1.09.05-.08-.2.06-.08-.04-.04-.03-.16.02-.12-.08,0,.02.14-.08.11-.1-.06-.04-.05.02-.12,0h-.06c-.08.08-.03-.05-.1.06.06-.07-.11-.03.03-.16l.11-.09s-.14.07-.21.1c0-.01.02-.04.04-.05-.16.15-.04-.06-.19.03.01-.1-.11-.12-.03-.23-.08,0-.17.03-.17-.04.02,0,.04,0,.07-.03.03-.07-.02-.04-.07-.04.03-.02.05-.14.08-.22-.08,0-.16.1-.22.14.13-.18-.19-.01-.08-.18.03,0,.13-.02.14-.08.14-.18-.18.04-.15-.08l-.13.13c.06-.1-.15-.01,0-.13-.06.02,0-.1-.14.02.04-.18-.25-.16-.06-.42-.03,0-.04-.04-.1.02-.06.08.08-.02.03.04-.01,0-.05.02-.07.03,0-.05,0-.08.13-.15.03-.13-.29.13-.3,0,.06-.04.08-.07.05-.08l-.13.03c-.02-.07.11-.13.2-.21-.04-.01-.06-.05-.14,0l.1-.13c-.07.09-.08.02-.11.03h.03s-.01-.06-.04-.06c-.06.05-.06.1-.06.14-.05.02-.06-.01-.13,0,.1-.07.03-.1.03-.13,0-.04-.11.04-.11.03.05-.04-.02-.05.06-.08.02,0-.03.06.02.04.02-.05.11-.11.02-.1-.07,0-.18.15-.16.06.03,0,.07-.03.12-.05v-.09s-.07.06-.07.06c.02-.02.03-.02.04-.04-.1.06-.08-.05-.2.02-.03-.02.02-.1.02-.13h.01c.03-.07-.03-.08-.11-.06h.02s-.05-.06-.11-.04c.04-.09.33-.26.18-.22-.03-.04-.21.06-.25.12,0-.11-.2-.09-.11-.25-.04.02-.06.04-.1.03-.04-.13-.26-.15-.14-.36.06,0,.09-.06.14-.1-.1.03.06-.09-.08,0-.08.06-.12.08-.14.14-.09-.03-.15-.13-.1-.22-.03.04-.06.05-.1.05.13-.08.12-.14.05-.15l-.08.05.07-.08s-.18.1-.13.01c.03-.02.06-.05.08-.07-.09,0-.24.03-.2-.06l.1-.11s-.12,0-.13.06c.03-.11,0-.16.09-.25-.32.04-.44-.13-.51-.29l.06-.03c.04-.07-.12.05-.09,0,.07-.02.11-.11.2-.12.03-.09-.15,0-.2-.02-.08.04.07,0-.04.05-.03.01.02-.11-.11-.05.04-.04.14-.09.19-.11h-.08c.12-.12.31-.06.47-.21l-.04-.02c.11-.11.19,0,.19-.11-.08,0-.28.08-.31.14-.08-.05-.31.14-.35.06.06-.06.05.05.15-.03.08-.09-.1-.04-.08-.09-.03.06-.17.11-.21.1.04-.07.13-.04.11-.11-.08.03-.16.01-.19.09-.17.07.01-.08-.13-.04.1-.08.3-.1.32-.19-.11.07-.19.01-.34.14.02-.04.1-.09.18-.12.05-.07-.25.03-.03-.1l-.12.05s.05-.06.1-.11c-.01-.03-.21,0-.03-.1-.02,0-.05-.07-.16.02-.05.08.11,0-.03.11.11-.1-.05-.05-.11-.05l.06-.04s-.04-.04-.12-.01c.04-.01.09-.04.1-.06l-.11.04c-.08-.03.17-.11.11-.15h.1s.06-.07.02-.08c-.1.04-.22.08-.3.11-.06-.01.1-.07-.02-.05l.14-.02s.14-.11.11-.15c-.05-.01-.21.02-.23.09-.01-.02.03-.08.1-.1-.06-.03-.1.06-.18.05.05-.05.11-.15.18-.23l.18-.04v-.03c.13-.03.07-.07.21-.12.01-.03-.05-.03-.09-.03-.18.17-.32.09-.51.2-.09-.06.45-.3.1-.22-.04.04-.21.08-.13.1,0-.06-.21.07-.16-.04.1,0,.17-.15.32-.14-.07.03-.03.06,0,.06.06-.06.2-.1.17-.15-.03-.02-.06-.06-.16,0-.11.06.04.04-.09.08-.07-.04.09-.14-.12-.07.04.03-.07.1-.15.14l-.07-.02.08-.03c.02-.1-.15.05-.16-.04l.13-.11c.14-.05,0,.13.2.02-.02-.05-.13-.01-.1-.09.02,0,.03.01.06.01,0-.02.26-.17.07-.16-.08,0-.08.03-.16.06-.06-.06-.15-.05-.19-.09.16-.06-.03-.09.15-.11-.08.07-.01.17.15.13.16-.12,0,.07.19,0-.03-.06.15-.15.26-.21,0-.02-.06-.01-.08-.01-.11.05-.1.07-.21.12,0-.08-.1-.12-.22-.1.04-.05.16-.09.18-.07-.07-.07-.1-.16-.1-.25-.16.13-.08-.07-.22.04-.02.06-.13.16-.22.17,0-.03.08-.04.11-.06-.11.01.13-.12-.04-.09.09.05.23-.09.37-.14-.1-.02.1-.04.08-.1-.1-.02-.19-.05-.25-.1.1-.13-.08-.19-.12-.26.06-.07.23-.11.24-.16-.02-.04-.16.11-.11.01h.03s.06-.17-.18-.1l.18-.05s-.03-.01-.06-.02c.06-.02.1-.06.15-.06.1-.09-.06-.08-.08-.12l-.09.07c-.11-.04-.03-.14-.1-.2l.1-.04-.08-.02c.1-.03.15-.09.06-.08h.3c-.05.07-.14.03-.23.09-.08.05-.03.11.08.08,0-.03-.02-.02-.07-.03.14-.07.15-.02.25-.04-.01-.01.02-.05-.02-.03.08,0,.1.02.12.06-.07,0-.08.05-.13.06.13-.05.18-.02.17.05-.13.1.14.06.12.14-.14.03-.25.04-.32.02-.05.07.02.04-.02.11.1-.02.25-.07.33-.04l-.09.04c.07.03.2-.03.2.04,0,.12.05.22.07.3l-.09.04c.21-.05.14.11.25.12-.04.14.18.17.05.29.15.13.3.25.35.44l-.14.04c.11-.02-.06.06-.03.08.09-.09.16-.03.25-.05-.06.13.1.17.23.19l-.09.05c.2-.02.1.14.12.24-.03.03-.11.09-.08.11.17-.03.17,0,.3.01.03.05.04.15,0,.23.3.07.29.32.52.44l-.09.07c.33.05.26.39.47.47l-.18.09c-.02.08.12.08.23-.01-.02.08.16.06.04.18,0,.07.12,0,.17.03,0,.14.04.16.13.23v-.03s-.12.06-.11.09c.07,0,.04.15.21-.02-.05.18.24.16.15.36.05-.05.08-.03.12-.05.06.08.02.24.16.24-.02.03-.11.05-.09.08.03,0,.07-.05.12-.05.2.06.1.34.21.44.26.14.38.39.56.57l-.04.03c.2-.05-.02.27.24.15-.02.05.03.07-.05.12.14-.03.03.23.22.19,0,0-.01,0-.04,0-.02.15.15.11.15.26-.02,0-.05,0-.08.03-.04.09.21-.07.06.11.02.02.1-.07.08-.07.09.22.37.3.57.43.02.22-.27.28-.05.26-.02.04.07-.06.04-.02.08,0-.13.24-.02.18.09-.11.07-.04.13-.1,0,.14-.07.25.07.23l-.06.05c.21-.08.22.07.45-.06.43.3.87.57,1.3.82.38.32.81.55,1.19.89,0,.23.01.23.16.23-.02.03-.03.03-.04.06.09-.14.09.03.18-.09.15.12.31.17.48.27-.03,0-.11.11-.07.12l.08-.07-.02.04s.09-.07.1-.13c.49.06.78.56,1.23.71.08.1.26.09.38.09.27.31.55.58.94.55,0,0-.15.39-.32.44Z"/>
      <path class="cls-1" d="M52.16,31.78c-.07.04-.1.1-.21.11.07-.03.14-.08.21-.11Z"/>
      <path class="cls-1" d="M51.87,33.21s-.02.03-.03.04c-.01-.01-.08,0-.05-.02.01.01.05,0,.08-.01Z"/>
      <path class="cls-1" d="M51.96,33.52c-.07.03-.15,0-.17-.04l.17.04Z"/>
      <path class="cls-1" d="M51.82,33.91s-.08.06-.09.03c.03-.02.06-.02.09-.03Z"/>
      <path class="cls-1" d="M51.98,33.86s-.02.05-.05.08c.06-.03-.06-.03.05-.08Z"/>
      <path class="cls-1" d="M52.08,34.53s.08.01.02.06c.04-.04-.12-.02-.02-.06Z"/>
      <path class="cls-1" d="M52.32,34.74s0,.02.01.02c-.02.03-.08.04-.09.03l.08-.05Z"/>
      <polygon class="cls-1" points="55.6 39.01 55.55 39.01 55.61 38.96 55.6 39.01"/>
      <path class="cls-1" d="M57.25,40.69c.05-.01-.03.07-.03.08-.03-.01.07-.06.03-.08Z"/>
      <polygon class="cls-1" points="58.45 41.23 58.44 41.23 58.54 41.11 58.45 41.23"/>
    </g>
    <g>
      <path class="cls-1" d="M47.72,36.61c-.05-.05-.12.07-.07-.02.06,0,.11-.01.07.02Z"/>
      <path class="cls-1" d="M59.79,48.33c-.34.3-.45-.19-.76-.04-.03,0,.09-.2.01-.17-.32.2-.59-.1-.74-.42l.04-.05c-.03-.06-.17.1-.21.05.02-.04.04-.05.05-.1-.06.11-.11,0-.17.08,0-.05.04-.14.04-.2l-.09.11c-.22.26-.18-.12-.36-.01.02-.03.04-.04.05-.08-.26.1-.46-.05-.69-.08.03-.04.08-.12.1-.17-.08.13-.16.13-.22.13.05-.15-.15.08-.18-.03l.02-.03c-.12.12-.02-.11-.15.04l.03-.12c-.12.18-.01-.13-.1-.05l-.02.04c-.06.03-.03-.08-.07-.06v-.02c-.09,0-.07-.12-.16.02.04-.13.1-.01.16-.2-.32,0-.55-.17-.79-.32,0-.07,0-.1.03-.16-.04.01-.11-.03-.17.03,0,0,.03-.08.02-.1,0-.08-.15.13-.15.03.04-.03.08-.07.11-.12-.11.09-.15.03-.23.04.02-.02.04-.03.07-.07-.13.09-.08-.08-.18-.03l.07-.07c0-.14-.13.16-.16.06.03-.02.05-.05.07-.08-.16.11-.22,0-.31,0,.01,0,.02-.03.02-.03-.07-.03-.11-.12-.22-.11,0-.05.14-.19.06-.21-.11.16-.16-.02-.25.19-.04-.07-.08-.19-.16-.16.07-.04.11-.21.17-.19l.03-.12c.05-.06.02.05.07-.04-.03-.01-.14,0-.14-.04-.11.07-.29.22-.37.18.08-.04.11-.19.15-.2l-.32.23s.09-.13.02-.11c-.03.04-.06.06-.1.08,0-.02-.13-.03-.02-.19.04-.07.06,0,.08-.08-.04-.03-.09.02-.13,0l.02-.02s-.13,0-.17.11c.02.02.06-.1.06-.03-.09.07-.16.06-.2.02.03-.01.06-.05.1-.09-.15.07-.24.06-.34.06-.06.07.13-.11.11-.06,0-.16-.28,0-.23-.2.02,0-.08.1-.06.08-.03-.04.06-.14,0-.12.05-.06-.05,0-.09-.01-.05.03.02-.03.05-.02-.08.02-.3-.01-.31-.17-.03.04-.18.1-.19.08l.09-.08c.03-.07-.07-.05,0-.13-.14.08.24.04.11.08.05-.09-.2.08-.08-.03-.04-.03-.17.04-.13-.07,0,.02.14-.1.11-.12-.07-.03-.05.03-.12.02h-.06c-.08.1-.04-.04-.11.07.06-.08-.12-.02.02-.16l.11-.11s-.14.08-.21.12c0-.01.02-.04.04-.06-.16.17-.04-.07-.19.04,0-.1-.11-.12-.03-.25-.08.02-.18.05-.18-.03.02,0,.04,0,.08-.04.02-.07-.03-.04-.08-.03.03-.02.04-.15.07-.23-.08.02-.16.12-.22.17.13-.2-.2,0-.1-.18.03-.01.13-.03.14-.1.13-.19-.19.06-.16-.07l-.12.15c.06-.11-.16,0-.01-.13-.07.03-.02-.1-.14.03.03-.19-.28-.14-.08-.43-.03,0-.04-.04-.1.03-.06.09.08-.02.04.04-.01,0-.05.02-.07.04,0-.06,0-.09.13-.17.03-.14-.29.15-.31.02.06-.05.08-.07.05-.09l-.14.05c-.02-.07.1-.15.2-.24-.04-.01-.07-.05-.15,0l.09-.14c-.07.1-.08.03-.11.04h.04c.04-.05-.02-.06-.04-.06-.06.06-.05.11-.06.14-.06.02-.06,0-.13.02.1-.08.03-.1.02-.14,0-.04-.11.05-.11.04.05-.04-.03-.05.06-.09.02,0-.03.06.02.04.02-.05.11-.12.02-.1-.07.02-.19.17-.17.07.04,0,.08-.04.12-.06v-.09s-.08.07-.08.07c.02-.03.03-.03.04-.04-.11.07-.09-.04-.2.04-.03-.02.02-.1,0-.13h.01c.03-.07-.04-.08-.12-.05l.02-.02s-.05-.05-.12-.02c.04-.1.33-.29.18-.24-.03-.04-.21.07-.26.14,0-.12-.21-.08-.12-.26-.04.02-.06.04-.1.04-.05-.13-.28-.14-.17-.36.06,0,.09-.07.15-.11-.1.04.06-.1-.09,0-.08.07-.13.1-.14.15-.09-.03-.17-.12-.12-.22-.03.05-.06.05-.1.06.14-.1.12-.16.05-.16l-.09.06.07-.09s-.18.11-.13.02c.03-.03.06-.05.08-.07-.09.01-.25.04-.2-.05l.1-.12s-.12.02-.13.07c.03-.12,0-.17.09-.27-.34.06-.48-.11-.55-.26l.07-.04c.03-.08-.13.05-.1,0,.07-.03.11-.12.21-.14.03-.1-.16,0-.21-.01-.09.05.07,0-.04.06-.03.01.02-.12-.12-.05.04-.05.14-.1.2-.12h-.08c.12-.13.33-.07.48-.24l-.04-.02c.12-.12.2-.02.2-.12-.08,0-.29.1-.33.17-.08-.05-.33.16-.36.08.06-.07.06.05.15-.03.08-.1-.1-.03-.09-.09-.03.07-.18.12-.21.11.04-.08.14-.05.12-.11-.08.04-.17.02-.19.1-.18.09.01-.09-.14-.04.11-.09.31-.11.33-.21-.11.08-.2.02-.35.16.02-.04.11-.1.19-.13.05-.08-.26.05-.04-.1l-.13.06s.05-.06.11-.12c-.02-.03-.22,0-.04-.1-.02,0-.06-.07-.17.03-.05.09.12,0-.03.12.12-.11-.06-.05-.12-.05l.07-.05s-.04-.04-.12,0c.05-.01.09-.05.1-.07l-.12.05c-.09-.03.18-.12.11-.17h.11s.07-.08.02-.09c-.11.04-.23.09-.31.12-.06,0,.1-.08-.02-.05l.14-.02s.15-.12.12-.16c-.05,0-.22.03-.24.1-.01-.02.03-.09.11-.11-.06-.03-.1.07-.19.06.06-.05.12-.16.19-.25l.19-.04-.02-.03c.15-.03.09-.08.24-.13.01-.03-.05-.03-.1-.03-.19.18-.34.1-.54.23-.1-.05.47-.32.1-.23-.05.04-.22.08-.14.11,0-.06-.23.07-.17-.03.11,0,.18-.16.34-.16-.07.03-.03.06,0,.06.07-.06.21-.1.18-.16-.04-.02-.07-.06-.17,0-.12.06.04.04-.09.08-.08-.04.1-.15-.13-.07.04.03-.08.11-.16.15l-.07-.02.08-.03c.02-.11-.15.05-.17-.04l.14-.11c.14-.05,0,.14.21.02-.02-.05-.13-.01-.1-.09.02,0,.04.01.06.01,0-.02.28-.18.08-.17-.08,0-.08.03-.16.07-.06-.07-.16-.05-.2-.1.17-.07-.03-.1.16-.12-.08.07-.02.18.15.13.18-.12,0,.08.2,0-.03-.06.16-.15.28-.23,0-.02-.06-.01-.08-.01-.12.05-.11.07-.22.13,0-.08-.1-.12-.23-.1.05-.05.17-.1.19-.08-.07-.07-.1-.16-.11-.26-.17.14-.08-.07-.23.04-.02.06-.14.16-.24.18,0-.03.08-.04.12-.07-.12.01.14-.13-.04-.09.1.05.24-.09.4-.14-.11-.02.11-.05.08-.1-.11-.02-.2-.06-.26-.1.11-.14-.08-.2-.12-.26.06-.07.24-.11.26-.17-.02-.04-.17.11-.12,0h.04s.07-.18-.19-.1l.2-.05s-.04-.01-.06-.02c.06-.02.11-.06.16-.06.11-.09-.06-.08-.08-.12l-.1.07c-.12-.05-.03-.14-.09-.2l.11-.04-.08-.02c.11-.03.16-.09.07-.08l.31.02c-.05.06-.15.01-.25.07-.09.05-.03.11.08.08,0-.03-.02-.02-.07-.03.15-.06.16-.02.27-.04-.01-.01.03-.05-.02-.03.08,0,.11.02.13.07-.07,0-.09.05-.14.06.14-.05.19-.02.18.05-.14.1.14.06.12.14-.14.03-.26.04-.33.02-.05.07.02.04-.03.11.11-.02.27-.07.35-.04l-.1.04c.07.03.22-.03.22.04,0,.12.04.23.06.31l-.1.05c.23-.05.14.11.26.12-.05.14.19.17.05.3.16.13.3.25.36.44l-.15.04c.12-.02-.07.06-.03.08.09-.09.17-.03.26-.06-.06.13.11.17.24.19l-.09.05c.21-.03.1.14.12.24-.03.03-.11.1-.09.12.18-.04.18-.01.31,0,.03.05.04.15.01.23.32.05.3.32.54.43l-.1.08c.34.03.29.38.51.45l-.19.11c-.02.09.12.07.24-.03-.02.09.17.06.04.19,0,.07.12,0,.17.02,0,.14.05.16.15.23v-.03c-.05.02-.12.07-.12.1.07,0,.05.15.23-.03-.04.18.26.14.18.35.05-.05.08-.04.12-.06.07.08.02.25.16.24-.02.04-.11.05-.09.09.04,0,.07-.06.12-.06.2.04.12.34.25.43.28.11.42.36.6.54l-.04.03c.2-.07,0,.28.26.13-.02.05.04.07-.04.13.15-.05.05.23.24.17,0,0-.01,0-.04,0,0,.15.16.1.17.25-.02,0-.05,0-.09.04-.04.1.22-.09.06.11.02.01.1-.08.08-.08.1.23.38.29.61.4.03.22-.27.32-.04.27-.02.04.07-.07.04-.03.09-.02-.12.26,0,.19.09-.12.07-.05.14-.12.02.14-.05.26.08.23l-.06.06c.22-.11.23.06.46-.09.43.32.96.48,1.39.77.38.35.89.48,1.26.89,0,.25.01.25.17.24-.02.03-.03.03-.04.06.09-.15.09.04.18-.1.15.12.34.16.52.25-.04,0-.12.12-.08.13l.09-.08-.02.05s.1-.07.1-.13c.52.08.78.65,1.27.79.08.11.26.11.39.13.26.35.52.66.93.66,0,0-.2.4-.39.43Z"/>
      <path class="cls-1" d="M47.76,36.67c-.08.04-.11.1-.23.1.08-.03.15-.08.23-.1Z"/>
      <path class="cls-1" d="M47.4,38.14s-.02.03-.04.04c-.01-.01-.08,0-.05-.03.01.01.05,0,.08-.02Z"/>
      <path class="cls-1" d="M47.49,38.46c-.07.03-.16,0-.18-.04l.18.04Z"/>
      <path class="cls-1" d="M47.34,38.87c-.05.05-.08.06-.1.03.04-.02.06-.02.1-.03Z"/>
      <path class="cls-1" d="M47.5,38.81s-.02.05-.06.08c.06-.03-.06-.03.06-.08Z"/>
      <path class="cls-1" d="M47.62,39.5s.09.01.02.07c.04-.04-.12-.02-.02-.07Z"/>
      <path class="cls-1" d="M47.87,39.72s-.01.02.01.02c-.02.03-.08.04-.09.03l.08-.06Z"/>
      <polygon class="cls-1" points="51.46 43.93 51.41 43.94 51.47 43.89 51.46 43.93"/>
      <path class="cls-1" d="M53.25,45.54c.06-.02-.03.07-.03.08-.03-.01.07-.07.03-.08Z"/>
      <polygon class="cls-1" points="54.52 46 54.51 46 54.6 45.87 54.52 46"/>
    </g>
  </g>
</svg>