<?xml version="1.0" encoding="UTF-8"?>
<svg id="Layer_3" data-name="Layer 3" xmlns="http://www.w3.org/2000/svg" viewBox="0 0 95 95">
  <defs>
    <style>
      .cls-1 {
        fill: #202020;
      }
    </style>
  </defs>
  <g>
    <g>
      <path class="cls-1" d="M88.21,48.11c-.09-.94-.54.5-.2-.61.23.13.4.31.2.61Z"/>
      <path class="cls-1" d="M87.75,44.41c-.21-.36-.36-.73-.51-1.12-.16-.38-.29-.78-.4-1.18-.21-.81-.32-1.66-.42-2.53-.16-.85-.34-1.72-.57-2.56-.12-.42-.25-.83-.4-1.22-.17-.39-.41-.74-.66-1.08-.19-.33.82-.18.34-.92-.27-.32-.53-.67-.77-1.05-.23-.38-.45-.79-.72-1.2-.49-.83-.93-1.75-1.32-2.72-.93-1.87-1.69-3.97-2.55-5.77l.33.05c-.33-.69-1.43-.98-1.89-1.6.11-.11.34.04.38-.23-.49.16-1.12-.91-1.6-.92-.07-.35.22-.59.1-1.03l-.69.04c-.85-.04-1.42-.51-1.93-1.13-.53-.6-1.03-1.35-1.9-1.62.14-.05.34-.02.31-.2-.67-.26-1.32-.57-1.97-.94-.66-.35-1.28-.79-1.98-1.12-1.37-.71-2.7-1.56-4.13-2.01.19-.12.45-.38.38-.65-.39.44-1.27.17-2.03-.07-.08-.73-1.46,0-2.2-.63l.12-.09c-.85.34-.84-.68-1.59-.18l-.27-.59c-.52.7-.84-.66-1.51-.4l-.03.17c-.57.06-.73-.41-1.25-.4l-.02-.1c-1.16-.11-1.75-.61-1.84.02-.31-.56,1.15-.06.67-.89-3.93-.08-7.82-.34-11.68-.02-.46-.2-.75-.23-.88-.46-.37.19-1.44.34-1.73.71.13-.03-.3-.28-.51-.29-.75-.12-.63.78-1.43.7.26-.24.32-.47.17-.68-.54.65-1.41.8-2.12,1.15.09-.13.25-.24.17-.43-.67.76-1.56.24-2.15.88l.15-.45c-1.29,0-.09.86-1.15.96.19-.2.06-.3.06-.46-.35.48-.9.81-1.47,1.08-.58.25-1.12.58-1.52.87.03-.07-.03-.16-.03-.16-.46.27-.95.47-1.45.7-.5.22-1,.5-1.41.94-.44.07-.33-.86-1.22-.15.42.62-1.46,1.24-.45,1.61-.22.09-.47.2-.73.31-.25.13-.5.28-.75.43-.49.3-.92.61-1.09.9.17-.48-.92-.44-.32-.97h-.76c-.11-.29.57-.29.18-.48-.31.28-1.09,1.19-1.43,1.35-.27.86-.2,1.95-1,2.8.21-.58-.8-.38-.61-.73-.09.72-.17,1.42-.17,2.17-.23.31-.48-.34-.72.21.16.11.09.38.09.61-.16.05-.93,1.3-1.61.96-.34-.06.31-.57-.18-.42-.49.54-.27.76-.71,1.34l-.09-.05c-.38.32-.6,1.32.04,1.14.22-.25-.43-.16.04-.43.14.53-.26,1.25-.68,1.82.05-.26-.13-.35-.24-.54-.12,1.09-.41,2.09-.77,3.09.29.19-.34-.66-.1-.7-.55.46-.81,1.14-.98,1.81-.17.67-.34,1.3-.9,1.66.02-.19.49.12.4.09-.32.56-.77.33-.78.79-.29-.08-.17.51-.21.97.12.29-.17.05-.07-.32.01.34-.08,1.12-.29,1.95-.22.83-.54,1.72-.89,2.35.19.03.48,1.02.38,1.32l-.41-.23c-.34.22-.23,1.05-.63,1.02.37.8.21-2.69.39-1.68-.43.14.38,1.44-.17,1.09-.14.64.18,1.34-.31,1.87.1-.16-.54-.64-.59-.11-.06.94.17.3.21,1.07l.11.49c.44.09-.18.8.36.53-.38.07.01,1.33-.69,1.17l-.57-.19c.01.41.57.72.81,1.05-.06.05-.18.14-.27.12.88.12-.12.95.54,1.45-.17.41-.21.93-.27,1.4-.01.47-.06.89-.33,1.09.3.64.65,1.19.5,1.93-.09-.14-.13-.33-.32-.36-.24.48,0,.58.16.98-.17-.08-.39.96-.63,1.52.36.6.8.31,1.1.33-.76.72.77,1.67.2,2.52-.19-.18-.63-.82-.74-.25-.71.77.93,1.01.75,2.02l.65-.41c-.33.52.74,1.21,0,1.32.3.23.11,1.12.75.81-.02.81.39,1.66.68,2.46.27.81.62,1.51.22,2.22.2.15.34.7.61.44.2-.5-.48-.34-.29-.58.11.17.3.12.4.1.06.5.18.87-.55.72.09,1.17,1.51.47,1.97,1.73-.29.09-.33.24-.08.55l.82.38c.35.8-.31.78-.72,1.07.32.36.6.88,1.05.82l-.17.82c.12-.6.48.14.71.24l-.23-.11c-.12.19.32.56.53.74.21-.24-.03-.76-.14-1.05.32.06.5.39.9.49-.45.21.18.82.36,1.15.17.41.65.08.71.19-.19.17.43.54-.06.52-.16-.06-.04-.4-.37-.44.04.33-.31.59.33.82.48.17.65-.72.98.1-.24-.08-.41.02-.65.01l.34.75.35-.28c-.01.15-.09.13-.1.2.5-.15.91.79,1.4.55.31.24.39.77.63,1.06l-.08-.02c.16.5.73.79,1.21.82l-.08.06c.16.19.64.55,1.04.54.29.63-.89,1.43.03,1.42.54.38,1.31-.04,1.27-.42.37.46.92.74,1.43,1.06.54.27,1.05.56,1.32,1.13.23-.07.21-.22.55-.13.67.52,1.48.87,2.27,1.16.78.32,1.46.7,1.89,1.4-.52-.04-.21.39-.3.63.52-.18.3.57.69,0,.12-.39.22-.54-.15-.88,1.01.16,2.42.66,2.82,1.22-.2-.27.04-.32.28-.35-.27.59.4.95,1.01.84l.19-.36.24.48c.24-.07.44-.73.88-.23,0,.15-.02.31.06.44.65-.19,1.52-.45,2.07-.06l.4.64c.28-.02.78-.29.34-.53.99.5,1.67.65,1.95,1.19,1.98-1.03,4.54-.92,6.65-1.03l-.04.3c.59.25.26-.53.67-.34-.16.29.49.58.06.95.86.29,1.01-.6,1.51-.8.03-.39-.39.31-.35-.19.07-.15,1.15.13,1.19-.47.23.2.14.64.07.89l.45-.35c.73.58-1.21,1.41-.45,2.14l.47-.16c.56.53-1.18.88.07.9.49-.37.79-1.26.29-1.45,1.04-.33.25-1.41,1.36-1.59.18.13-.03.21-.25.3-.23.07-.46.16-.31.38.63.41,1-.5,1.49-.44-.56-.08-.26-.77.04-.95.62.12-.23.63.57.48.05-.36.69-.78.02-.85.08-.8.86,0,1.11-.67.41.45-.45,1.39.49,1.43-.27-.43.83-1.02.15-1.59.36.02.53.4.39.78.57.13.81-1.3,1.31-.39l-.02-.55c.2.11.46.15.8.33.21-.07.47-.36.72-.53.24-.19.45-.28.59.09.09-.14,1.01-.54.43-.87-.69-.04-.47.68-1.08.14.63.37.76-.46.99-.79l.18.25c.14-.2.6-.35.57-.7-.06.23.1.38.29.37v-.51c.64-.57.55.65,1.23.16-.12.21-.26.4-.4.6.08-.14.57.16.84-.2-.07-.46-.08-1.06-.13-1.41.3-.4.42.31.59-.31l-.25.76c0,.17.7.4,1.25.05.28-.34.47-1.18-.19-1.05.26-.17.78-.18.74.22.53-.49-.33-.34.05-.87.37.11,1.21-.04,1.85,0l-.11.98.36-.26c-.13.81.49.18.58.86.3-.11.48-.5.63-.8-1.29-.24-.01-1.64-.77-2.18.78-.87,1.95,1.19,1.99-.68-.3-.04-.32-.93-.7-.24.6-.42-.23-.99.64-1.29-.22.69,1.12.19.79,1.2-.15-.26-.54.19-.59.35.45.04.54.71,1.12.18.29-.38.76-.83.37-1.09-.37-.35-.49.52-.62-.05.57-.73,1.21-.32.82-1.23-.33.48-.81.21-1.05-.05.12-.19.2-.42.3-.62l.16.33c.88-.62-.23-.65.51-1.34l.82.09c.26.56-1.19.93-.39,1.44.49-.48.29-.96.89-1.27-.04.16-.15.32-.18.48.18-.15,1.28.47,1.4-.73.1-.57-.17-.31-.43-.54.57-.94.48-1.41.85-2,.46.52.79-.95.9.08-.54.06-1.44,1.32-1.17,2.05.43.09.28.25.08.47-.22.21-.5.47-.27.82.63-.65,1.2-.12,1.69.09.18-.19.16-.52.19-.7-.32-.39-.51-.12-.92-.42.71-.73,1.08-1.67,1.01-2.38.4-.13.74.23.54.58.32-.51.61-1.06.94-1.58.33-.52.69-1.01,1.06-1.46-1.07.23.49-1.18-.35-1.07-.46.44-1.22.58-1.37.13.24-.29.3.18.53.14-.13-.6.99-.3.58-1.04-.23,1.08.77.65,1.24,1.12.03-.88.38.24.72-.48.04-.88.21-1.88.47-2.72.94-.81.97-2.63,1.29-3.54.43-.41,1.02.14,1.28-.38.15-.65-.86.27-.3-.6l.11.13c-.09-.33.92-1.66,0-2.16l.67.46c.11-.16-.01-.37-.06-.54.24.05.52-.12.6.21.71-.49.14-1.31.24-1.97l-.51.35c-.19-1.18.4-1.87.37-2.99l.44.08-.23-.68c.42.2.73-.39.39-.77.33.6.68,1.21.98,1.84-.32.46-.47-.59-.94-.32-.4.22-.45,1.24-.05,1.47.11-.39.02-.42-.1-.74.63-.06.52.54.88.9,0-.21.24-.49.05-.56.24.45.22.88.13,1.58-.17-.51-.42.19-.56-.01.53.14.59.84.31,1.67-.77.46-.01,1.67-.43,2.62-.43-.54-.73-1.15-.8-1.78-.42.53-.16.67-.58,1.2.32.39.88.77.91,1.64l-.4-.08c-.02.77.52.95.09,1.82-.38.74-.71,1.5-1.01,2.22-.36.69-.7,1.34-.99,1.9l-.38-.13c.24.5.06,1.06-.19,1.62-.25.56-.65,1.06-.72,1.57-.58.58-.95,1.37-1.3,2.06-.39.66-.8,1.21-1.32,1.33-.36.61-.71,1.2-1.05,1.78-.38.56-.79,1.08-1.2,1.61-.41.53-.84,1.05-1.3,1.57-.49.48-1.03.95-1.59,1.41l-.04-.76c-.09.67-.48-.02-.79.38.75-.04-.11.93-.16,1.45-1.28.5-2.34,1.84-3.04,2.9l-.27-.31c-.56,1.29-2.16,1.44-3.46,2.1-.22-.05-.64-.28-1.01-.05-.41.93-.81,1.07-1.7,1.95-.76.42-2.15.71-3.05.78-.68.47-1.39.94-2.16,1.22-.77.29-1.56.52-2.36.75l-1.21.33-1.23.23c-.82.16-1.65.36-2.47.62l-.29-.44c-.78.33-1.65.49-2.53.6-.88.09-1.79.21-2.68.1-1.78-.16-3.48-.23-4.91-.26l.37-.77c-.82-.38-1.99-.09-1.87.52-.42-.19-.98-.17-1.5-.22-.51-.08-.97-.2-1.16-.6-.84-.37-1.16.09-1.93,0-.85-.35-1.41-.63-1.99-.85-.57-.21-1.15-.36-1.99-.59l.38.19c.24-.1.38-.42,0-.62-.34,0-.87-.24-1.28-.38-.4-.15-.7-.14-.6.44-.72-.66-1.73-1.01-2.73-1.4-1-.38-1.92-.94-2.5-1.71,0,.31-.42.11-.68.17-.35-.21-.68-.45-1.01-.7-.3-.28-.6-.56-.89-.83-.59-.53-1.17-1-1.83-1.21-.12-.26.61-.11.1-.52-.37-.16-.23.27-.7.09-1.14-.69-2.05-1.69-2.88-2.69-.78-1.06-1.44-2.16-2.29-2.99-3.1-2.93-5.26-6.9-6.95-10.58l.2-.04c-1.22-.99-.39-3.24-1.84-3.89.06-.36-.24-1.22.18-1.09-.39-.45-.46-1.22-.56-2.04-.05-.41-.11-.83-.21-1.23-.09-.41-.2-.81-.43-1.16,0,.15.06.22.16.37.09-.82-.06-1.54-.22-2.27-.08-.37-.16-.74-.21-1.12-.04-.39,0-.79.06-1.21.09.16.17.46.37.49.34-.65-.9-1.45.02-1.85-.03-.36-.49-.24-.45-.02.02-1.81.13-3.66.08-5.56v-.71s.04-.71.04-.71l.09-1.43.1-1.44.06-.72.13-.7c1.22-2.5,1.58.22,1.43-2.01.22-.12-.32-.22-.12-.19-.02-.43.31-.67.6-.88.32-.2.6-.37.46-.71-.63.04-.18-.46-.5-.59.93-1.42,1.48-1.53,1.58-2.88l.24.21c-.07-.85.19-1.63.43-2.39.24-.76.43-1.52.36-2.31.53-.93,1.06-1.85,1.58-2.76.56-.89,1.19-1.74,1.78-2.61.57-.89,1.25-1.69,1.93-2.49.69-.79,1.3-1.65,2.08-2.36l2.24-2.21c.79-.69,1.62-1.33,2.44-1.99.8-.69,1.69-1.25,2.58-1.81.9-.55,1.75-1.19,2.72-1.62.95-.44,1.9-.88,2.84-1.32.96-.4,1.95-.73,2.92-1.1.49-.17.97-.37,1.47-.53l1.51-.4c1.01-.25,2-.57,3.03-.75l3.09-.48.77-.11.78-.04,1.57-.06c2.09-.15,4.19.11,6.29.34,1.88,1.03,1.98,1.06,4.17,1.06-.11.11-.25.12-.13.26.24-.66,1.49.26,1.82-.29,1.49.46,2.97.75,4.38,1.3.72.25,1.43.49,2.16.74.74.24,1.42.62,2.16.95-.49-.16-.94.22-.38.44l.75-.1v.21c.42.09.98,0,.69-.37.47.2.95.37,1.4.61l1.33.75c.87.53,1.77,1.01,2.57,1.63.8.62,1.59,1.25,2.36,1.9.4.31.76.65,1.11,1.02l1.06,1.07c1.45,1.38,2.62,3.02,3.89,4.52l1.7,2.42c.28.4.59.79.86,1.2l.78,1.25c.35.88,1,1.81,1.53,2.82.54,1.01,1.14,2.03,1.64,2.92.36,1.48.64,2.94.96,4.34.2,1.44.4,2.84.64,4.22.12,1.41.27,2.8.49,4.21.09,1.42.23,2.86.45,4.35,0,0-1.73-.79-2.24-3.09Z"/>
      <path class="cls-1" d="M88.22,49.24c-.34.19-.55.82-.96.29.31-.05.67-.37.96-.29Z"/>
      <path class="cls-1" d="M80.79,64.56c.08.06-.22.15-.29.17.06-.19-.1-.48.12-.55-.06.19.09.23.17.38Z"/>
      <path class="cls-1" d="M78.56,68.01c-.21-.22.04-1.08.28-1.54l-.28,1.54Z"/>
      <path class="cls-1" d="M75.37,70.33c-.39.09-.43-.06-.17-.4.14.07.12.24.17.4Z"/>
      <path class="cls-1" d="M75.72,70.96c-.21.24-.44.24-.67.24.2.15.36-.63.67-.24Z"/>
      <path class="cls-1" d="M69.29,75.91c-.14.13-.33.58-.66.42.3.06.52-.85.66-.42Z"/>
      <path class="cls-1" d="M66.47,78.39c-.11.05-.18.03-.26.17-.26,0-.17-.3-.02-.42l.29.25Z"/>
      <polygon class="cls-1" points="11.12 56.29 11.36 56.66 11.07 56.67 11.12 56.29"/>
      <path class="cls-1" d="M16.34,26.69c.07-.46.39-.08.47-.12-.2.32-.23-.32-.47.12Z"/>
      <polygon class="cls-1" points="27.62 14.07 27.51 14.14 27.24 13.61 27.62 14.07"/>
    </g>
    <g>
      <path class="cls-1" d="M18.49,14.5c-.31-.13-.26.47-.3.01.2-.13.37-.21.3-.01Z"/>
      <path class="cls-1" d="M75.4,74.84c-1.79.33-1.58-1.68-3.03-1.8-.13-.05.63-.55.28-.62-1.59.05-2.22-1.64-2.44-3.2l.22-.11c-.04-.3-.82.03-.92-.24.11-.11.22-.09.33-.28-.39.28-.48-.19-.81-.03.06-.2.34-.45.4-.69l-.49.26c-1.21.58-.63-.79-1.49-.74.11-.07.22-.09.28-.21-1.19-.12-1.86-1.04-2.77-1.58.17-.1.44-.31.56-.5-.44.35-.76.23-1.03.11.34-.49-.71.03-.69-.42l.11-.07c-.6.25.01-.49-.65-.13l.23-.42c-.67.49.07-.54-.36-.39l-.12.12c-.27,0-.04-.35-.26-.38l.06-.08c-.43-.14-.26-.62-.72-.17.27-.45.43.12.82-.55-1.38-.49-2.22-1.56-3.13-2.51.08-.29.07-.41.23-.6-.18,0-.43-.28-.75-.14.04.02.18-.29.15-.36,0-.34-.69.3-.66-.09.2-.04.37-.16.52-.35-.52.18-.67-.09-.97-.17.11-.04.2-.04.34-.19-.61.18-.28-.47-.71-.4l.33-.19c.04-.61-.64.45-.7,0,.14-.02.23-.14.35-.23-.72.22-.92-.32-1.31-.4.05-.02.12-.09.12-.09-.31-.2-.42-.62-.9-.7.02-.22.69-.59.33-.77-.53.52-.67-.26-1.12.48-.14-.32-.29-.88-.62-.87.31-.09.55-.74.78-.59l.18-.46c.24-.19.07.22.3-.09-.11-.08-.6-.16-.6-.33-.5.13-1.28.55-1.62.32.34-.06.52-.64.7-.64l-1.42.57c-.12-.07.4-.43.13-.43-.14.14-.28.16-.44.23.03-.09-.52-.28-.03-.82.17-.24.26.05.35-.23-.18-.18-.37-.01-.55-.18l.07-.07c-.03-.19-.56-.14-.73.27.06.1.29-.33.25-.07-.39.21-.67.08-.85-.09.14-.02.28-.16.45-.28-.65.15-1.02.02-1.45-.08-.26.24.55-.33.46-.17.02-.68-1.18-.25-.94-1.02.09,0-.33.37-.27.29-.13-.2.24-.54,0-.52.2-.21-.2-.07-.37-.12-.21.09.08-.13.19-.05-.33.02-1.26-.3-1.29-.95-.14.14-.73.27-.79.17l.36-.28c.13-.26-.29-.25-.02-.53-.57.21.99.36.45.41.22-.33-.85.17-.35-.21-.17-.16-.7.04-.54-.42,0,.1.59-.3.44-.41-.28-.18-.22.08-.52,0h-.25c-.33.31-.16-.24-.44.19.24-.28-.49-.19.07-.67l.45-.37c-.13-.07-.6.25-.87.35.03-.05.09-.16.16-.22-.66.6-.18-.3-.79.06.02-.43-.5-.57-.19-1.05-.35.02-.73.09-.77-.23.1-.02.16.01.31-.11.08-.3-.12-.17-.33-.18.12-.07.15-.6.26-.94-.35.02-.64.41-.87.59.49-.76-.85-.07-.45-.81.14-.03.54-.06.57-.35.49-.75-.76.14-.68-.39l-.47.56c.22-.42-.64-.07-.08-.55-.27.1-.1-.45-.59.07.06-.81-1.18-.72-.49-1.84-.14.02-.19-.2-.42.08-.2.37.33-.06.17.16-.06-.04-.22.09-.29.15,0-.24-.05-.37.48-.66.06-.58-1.15.55-1.28,0,.23-.19.28-.29.15-.36l-.55.15c-.13-.31.36-.59.72-.94-.18-.06-.3-.23-.62-.03l.31-.58c-.23.42-.31.11-.46.14l.14-.03c.13-.17-.1-.22-.21-.24-.21.23-.16.46-.15.6-.22.09-.27-.04-.54.05.38-.31.06-.44.01-.57-.03-.18-.44.18-.45.13.18-.18-.14-.21.2-.37.09-.02-.1.26.12.16.07-.2.4-.5.02-.43-.28.05-.67.69-.65.27.14-.03.29-.15.46-.23v-.38s-.34.3-.34.3c.06-.1.1-.11.13-.17-.4.26-.4-.21-.82.11-.13-.07.02-.43-.04-.56h.05c.08-.31-.2-.35-.51-.24l.08-.06c-.04-.09-.23-.19-.5-.1.09-.4,1.17-1.21.59-1.01-.17-.16-.84.3-.98.56-.07-.51-.92-.35-.68-1.1-.17.08-.23.19-.39.17-.29-.56-1.27-.56-.96-1.52.26,0,.33-.3.51-.48-.39.17.18-.41-.35.02-.28.29-.43.41-.43.65-.41-.11-.78-.51-.65-.92-.07.2-.21.23-.35.26.48-.42.37-.68.07-.67l-.3.25.2-.37c-.14.03-.65.5-.52.1.1-.11.21-.23.26-.33-.38.07-.97.23-.89-.16l.29-.53c-.11-.03-.47.09-.48.33-.02-.52-.16-.73.12-1.16-1.33.35-2.03-.32-2.5-.94l.23-.19c.06-.34-.45.27-.4.03.25-.14.33-.53.69-.65.02-.43-.63.07-.86.02-.3.24.29-.06-.09.25-.12.07-.07-.5-.52-.14.11-.21.46-.46.66-.6l-.33.06c.34-.63,1.23-.47,1.68-1.22l-.18-.06c.33-.54.8-.15.67-.6-.33.07-1.05.53-1.13.83-.38-.16-1.13.83-1.37.5.17-.32.28.18.58-.21.21-.46-.46-.1-.45-.34-.03.29-.57.58-.73.56.06-.34.49-.28.33-.54-.28.2-.65.17-.65.5-.62.45-.06-.37-.6-.08.32-.44,1.11-.63,1.08-1.05-.34.39-.78.19-1.22.85.02-.19.31-.48.6-.64.1-.35-.99.33-.28-.42l-.43.32c.09-.16.12-.31.27-.57-.1-.12-.87.12-.28-.42-.09.02-.32-.27-.62.21-.09.4.47-.09.02.52.33-.53-.28-.18-.52-.14l.21-.23c-.14.03-.22-.15-.49.04.17-.08.3-.25.31-.34l-.4.26c-.39-.07.55-.62.23-.75l.42-.08c-.09.02.15-.36-.05-.37-.35.25-.8.53-1.07.72-.26,0,.3-.39-.14-.21l.53-.19c.13-.07.41-.6.24-.76-.21,0-.82.25-.82.58-.08-.08,0-.38.28-.53-.29-.09-.31.34-.66.36.14-.26.24-.75.42-1.17l.68-.32-.1-.12c.56-.25.25-.38.76-.71,0-.14-.24-.1-.43-.06-.48.9-1.2.66-1.78,1.33-.47-.15,1.37-1.68.06-1.05-.12.21-.75.52-.38.54-.11-.26-.77.48-.72,0,.43-.08.48-.8,1.09-.92-.23.19-.03.29.07.27.17-.31.66-.6.47-.79-.18-.06-.35-.22-.66.12-.36.35.22.15-.23.42-.36-.12.16-.69-.58-.17.2.11-.15.5-.4.74l-.32-.03.28-.2c-.1-.45-.52.34-.72,0l.36-.59c.48-.33.2.58.83-.11-.14-.21-.54.06-.53-.28.09-.02.16.02.25,0-.04-.09.79-1,.03-.76-.33.06-.27.19-.53.43-.35-.22-.69-.06-.91-.21.53-.43-.26-.37.43-.65-.2.37.23.76.79.41.48-.66.13.3.78-.2-.21-.24.38-.78.72-1.18-.03-.09-.25,0-.35.02-.38.31-.3.39-.66.74-.15-.35-.58-.41-1.06-.22.09-.25.47-.56.6-.49-.4-.21-.66-.58-.83-.98-.4.74-.45-.2-.8.39.02.28-.27.81-.61.97-.06-.13.26-.24.34-.4-.43.18.32-.68-.29-.32.45.1.76-.62,1.26-1-.45.04.33-.3.14-.5-.44.04-.88-.02-1.19-.15.16-.69-.67-.72-.93-.96.1-.35.7-.75.65-.97-.17-.16-.44.65-.44.18l.12-.07c-.19.04-.08-.79-.89-.16l.63-.45c0-.09-.16-.02-.26,0,.18-.17.29-.38.48-.42.24-.52-.37-.26-.54-.42l-.23.42c-.53-.04-.38-.54-.76-.71l.33-.3-.35.02c.35-.26.41-.6.06-.44l1.19-.32c-.08.3-.51.24-.76.62-.22.33.11.5.46.25-.06-.13-.13-.07-.32-.03.42-.46.54-.29.91-.5-.07-.03,0-.24-.15-.11.31-.11.44-.04.61.12-.28.05-.22.32-.39.4.41-.36.68-.32.77,0-.31.58.66.11.76.47-.49.28-.93.46-1.23.47-.06.34.17.16.11.5.37-.21.87-.59,1.24-.57l-.28.29c.32.04.75-.38.89-.07.22.53.6.92.85,1.26l-.28.29c.78-.43.75.33,1.24.28.08.65,1.06.55.74,1.23.86.45,1.63.82,2.18,1.62l-.54.29c.43-.18-.17.31,0,.38.21-.46.6-.25.95-.42-.04.62.7.67,1.26.66l-.28.29c.81-.25.64.54.88.97-.08.16-.3.48-.17.55.65-.27.71-.14,1.27-.15.19.2.38.63.39,1.01,1.38.11,1.68,1.29,2.82,1.68l-.29.38c1.46.05,1.67,1.62,2.66,1.9l-.65.5c.01.37.59.31.96-.14.01.37.77.23.4.82.09.31.51,0,.76.09.17.63.37.73.85,1.02l-.05-.13c-.17.08-.43.32-.37.45.3,0,.35.69.92-.13-.01.81,1.26.66,1.09,1.59.16-.22.29-.15.47-.23.36.36.33,1.12.93,1.1-.04.15-.42.22-.29.39.16.02.25-.24.46-.23.92.25.77,1.55,1.38,2,1.28.61,2.05,1.78,2.98,2.64l-.15.12c.83-.21.13,1.25,1.18.72-.07.2.2.34-.12.54.62-.12.29,1.03,1.11.92-.02-.05-.06-.04-.16-.02.03.65.76.56.83,1.21-.1.02-.21,0-.36.12-.13.4.93-.22.32.51.09.08.4-.27.33-.3.52,1.08,1.8,1.55,2.77,2.26.18,1-1.11,1.13-.14,1.13-.09.16.29-.22.15-.08.37,0-.48,1.02,0,.81.37-.45.32-.14.58-.37.09.64-.22,1.07.38,1.07l-.24.19c.95-.24,1,.48,2,.09,1.96,1.8,4.11,3.26,5.97,5.06,1.62,1.98,3.67,3.49,5.08,5.73-.16.99-.11,1.01.58,1.27-.11.07-.16.06-.22.18.5-.43.37.3.87-.09.57.78,1.31,1.3,2,2.01-.16-.06-.6.25-.44.35l.44-.15-.11.15c.16.03.49-.1.55-.34,2.12,1.41,2.85,4.08,4.64,5.73.2.61.95,1.03,1.48,1.39.65,1.95,1.29,3.65,3.03,4.6,0,0-1.4.99-2.22.69Z"/>
      <path class="cls-1" d="M18.79,14.73c-.19.27-.17.55-.61.73.21-.23.38-.55.61-.73Z"/>
      <path class="cls-1" d="M20.32,21.24c.08-.06-.04.15-.07.2-.07-.04-.31.11-.23-.05.07.03.17-.08.29-.15Z"/>
      <path class="cls-1" d="M21.2,22.44c-.23.19-.61.12-.77,0h.77Z"/>
      <path class="cls-1" d="M21.27,24.27c-.1.26-.22.33-.32.2.1-.12.2-.13.32-.2Z"/>
      <path class="cls-1" d="M21.82,23.88c.08.08,0,.24-.08.39.18-.18-.3-.08.08-.39Z"/>
      <path class="cls-1" d="M23.26,26.63c.07.04.35-.02.16.25.11-.21-.51,0-.16-.25Z"/>
      <path class="cls-1" d="M24.54,27.33s0,.1.09.08c-.04.15-.25.24-.32.2l.24-.28Z"/>
      <polygon class="cls-1" points="42.78 44.82 42.58 44.81 42.8 44.62 42.78 44.82"/>
      <path class="cls-1" d="M50.42,52.82c.24-.02-.13.26-.14.31-.11-.08.3-.21.14-.31Z"/>
      <polygon class="cls-1" points="55.59 56.14 55.55 56.12 55.99 55.72 55.59 56.14"/>
    </g>
  </g>
  <g>
    <g>
      <path class="cls-1" d="M88.21,48.11c-.09-.94-.54.5-.2-.61.23.13.4.31.2.61Z"/>
      <path class="cls-1" d="M87.75,44.41c-.21-.36-.36-.73-.51-1.12-.16-.38-.29-.78-.4-1.18-.21-.81-.32-1.66-.42-2.53-.16-.85-.34-1.72-.57-2.56-.12-.42-.25-.83-.4-1.22-.17-.39-.41-.74-.66-1.08-.19-.33.82-.18.34-.92-.27-.32-.53-.67-.77-1.05-.23-.38-.45-.79-.72-1.2-.49-.83-.93-1.75-1.32-2.72-.93-1.87-1.69-3.97-2.55-5.77l.33.05c-.33-.69-1.43-.98-1.89-1.6.11-.11.34.04.38-.23-.49.16-1.12-.91-1.6-.92-.07-.35.22-.59.1-1.03l-.69.04c-.85-.04-1.42-.51-1.93-1.13-.53-.6-1.03-1.35-1.9-1.62.14-.05.34-.02.31-.2-.67-.26-1.32-.57-1.97-.94-.66-.35-1.28-.79-1.98-1.12-1.37-.71-2.7-1.56-4.13-2.01.19-.12.45-.38.38-.65-.39.44-1.27.17-2.03-.07-.08-.73-1.46,0-2.2-.63l.12-.09c-.85.34-.84-.68-1.59-.18l-.27-.59c-.52.7-.84-.66-1.51-.4l-.03.17c-.57.06-.73-.41-1.25-.4l-.02-.1c-1.16-.11-1.75-.61-1.84.02-.31-.56,1.15-.06.67-.89-3.93-.08-7.82-.34-11.68-.02-.46-.2-.75-.23-.88-.46-.37.19-1.44.34-1.73.71.13-.03-.3-.28-.51-.29-.75-.12-.63.78-1.43.7.26-.24.32-.47.17-.68-.54.65-1.41.8-2.12,1.15.09-.13.25-.24.17-.43-.67.76-1.56.24-2.15.88l.15-.45c-1.29,0-.09.86-1.15.96.19-.2.06-.3.06-.46-.35.48-.9.81-1.47,1.08-.58.25-1.12.58-1.52.87.03-.07-.03-.16-.03-.16-.46.27-.95.47-1.45.7-.5.22-1,.5-1.41.94-.44.07-.33-.86-1.22-.15.42.62-1.46,1.24-.45,1.61-.22.09-.47.2-.73.31-.25.13-.5.28-.75.43-.49.3-.92.61-1.09.9.17-.48-.92-.44-.32-.97h-.76c-.11-.29.57-.29.18-.48-.31.28-1.09,1.19-1.43,1.35-.27.86-.2,1.95-1,2.8.21-.58-.8-.38-.61-.73-.09.72-.17,1.42-.17,2.17-.23.31-.48-.34-.72.21.16.11.09.38.09.61-.16.05-.93,1.3-1.61.96-.34-.06.31-.57-.18-.42-.49.54-.27.76-.71,1.34l-.09-.05c-.38.32-.6,1.32.04,1.14.22-.25-.43-.16.04-.43.14.53-.26,1.25-.68,1.82.05-.26-.13-.35-.24-.54-.12,1.09-.41,2.09-.77,3.09.29.19-.34-.66-.1-.7-.55.46-.81,1.14-.98,1.81-.17.67-.34,1.3-.9,1.66.02-.19.49.12.4.09-.32.56-.77.33-.78.79-.29-.08-.17.51-.21.97.12.29-.17.05-.07-.32.01.34-.08,1.12-.29,1.95-.22.83-.54,1.72-.89,2.35.19.03.48,1.02.38,1.32l-.41-.23c-.34.22-.23,1.05-.63,1.02.37.8.21-2.69.39-1.68-.43.14.38,1.44-.17,1.09-.14.64.18,1.34-.31,1.87.1-.16-.54-.64-.59-.11-.06.94.17.3.21,1.07l.11.49c.44.09-.18.8.36.53-.38.07.01,1.33-.69,1.17l-.57-.19c.01.41.57.72.81,1.05-.06.05-.18.14-.27.12.88.12-.12.95.54,1.45-.17.41-.21.93-.27,1.4-.01.47-.06.89-.33,1.09.3.64.65,1.19.5,1.93-.09-.14-.13-.33-.32-.36-.24.48,0,.58.16.98-.17-.08-.39.96-.63,1.52.36.6.8.31,1.1.33-.76.72.77,1.67.2,2.52-.19-.18-.63-.82-.74-.25-.71.77.93,1.01.75,2.02l.65-.41c-.33.52.74,1.21,0,1.32.3.23.11,1.12.75.81-.02.81.39,1.66.68,2.46.27.81.62,1.51.22,2.22.2.15.34.7.61.44.2-.5-.48-.34-.29-.58.11.17.3.12.4.1.06.5.18.87-.55.72.09,1.17,1.51.47,1.97,1.73-.29.09-.33.24-.08.55l.82.38c.35.8-.31.78-.72,1.07.32.36.6.88,1.05.82l-.17.82c.12-.6.48.14.71.24l-.23-.11c-.12.19.32.56.53.74.21-.24-.03-.76-.14-1.05.32.06.5.39.9.49-.45.21.18.82.36,1.15.17.41.65.08.71.19-.19.17.43.54-.06.52-.16-.06-.04-.4-.37-.44.04.33-.31.59.33.82.48.17.65-.72.98.1-.24-.08-.41.02-.65.01l.34.75.35-.28c-.01.15-.09.13-.1.2.5-.15.91.79,1.4.55.31.24.39.77.63,1.06l-.08-.02c.16.5.73.79,1.21.82l-.08.06c.16.19.64.55,1.04.54.29.63-.89,1.43.03,1.42.54.38,1.31-.04,1.27-.42.37.46.92.74,1.43,1.06.54.27,1.05.56,1.32,1.13.23-.07.21-.22.55-.13.67.52,1.48.87,2.27,1.16.78.32,1.46.7,1.89,1.4-.52-.04-.21.39-.3.63.52-.18.3.57.69,0,.12-.39.22-.54-.15-.88,1.01.16,2.42.66,2.82,1.22-.2-.27.04-.32.28-.35-.27.59.4.95,1.01.84l.19-.36.24.48c.24-.07.44-.73.88-.23,0,.15-.02.31.06.44.65-.19,1.52-.45,2.07-.06l.4.64c.28-.02.78-.29.34-.53.99.5,1.67.65,1.95,1.19,1.98-1.03,4.54-.92,6.65-1.03l-.04.3c.59.25.26-.53.67-.34-.16.29.49.58.06.95.86.29,1.01-.6,1.51-.8.03-.39-.39.31-.35-.19.07-.15,1.15.13,1.19-.47.23.2.14.64.07.89l.45-.35c.73.58-1.21,1.41-.45,2.14l.47-.16c.56.53-1.18.88.07.9.49-.37.79-1.26.29-1.45,1.04-.33.25-1.41,1.36-1.59.18.13-.03.21-.25.3-.23.07-.46.16-.31.38.63.41,1-.5,1.49-.44-.56-.08-.26-.77.04-.95.62.12-.23.63.57.48.05-.36.69-.78.02-.85.08-.8.86,0,1.11-.67.41.45-.45,1.39.49,1.43-.27-.43.83-1.02.15-1.59.36.02.53.4.39.78.57.13.81-1.3,1.31-.39l-.02-.55c.2.11.46.15.8.33.21-.07.47-.36.72-.53.24-.19.45-.28.59.09.09-.14,1.01-.54.43-.87-.69-.04-.47.68-1.08.14.63.37.76-.46.99-.79l.18.25c.14-.2.6-.35.57-.7-.06.23.1.38.29.37v-.51c.64-.57.55.65,1.23.16-.12.21-.26.4-.4.6.08-.14.57.16.84-.2-.07-.46-.08-1.06-.13-1.41.3-.4.42.31.59-.31l-.25.76c0,.17.7.4,1.25.05.28-.34.47-1.18-.19-1.05.26-.17.78-.18.74.22.53-.49-.33-.34.05-.87.37.11,1.21-.04,1.85,0l-.11.98.36-.26c-.13.81.49.18.58.86.3-.11.48-.5.63-.8-1.29-.24-.01-1.64-.77-2.18.78-.87,1.95,1.19,1.99-.68-.3-.04-.32-.93-.7-.24.6-.42-.23-.99.64-1.29-.22.69,1.12.19.79,1.2-.15-.26-.54.19-.59.35.45.04.54.71,1.12.18.29-.38.76-.83.37-1.09-.37-.35-.49.52-.62-.05.57-.73,1.21-.32.82-1.23-.33.48-.81.21-1.05-.05.12-.19.2-.42.3-.62l.16.33c.88-.62-.23-.65.51-1.34l.82.09c.26.56-1.19.93-.39,1.44.49-.48.29-.96.89-1.27-.04.16-.15.32-.18.48.18-.15,1.28.47,1.4-.73.1-.57-.17-.31-.43-.54.57-.94.48-1.41.85-2,.46.52.79-.95.9.08-.54.06-1.44,1.32-1.17,2.05.43.09.28.25.08.47-.22.21-.5.47-.27.82.63-.65,1.2-.12,1.69.09.18-.19.16-.52.19-.7-.32-.39-.51-.12-.92-.42.71-.73,1.08-1.67,1.01-2.38.4-.13.74.23.54.58.32-.51.61-1.06.94-1.58.33-.52.69-1.01,1.06-1.46-1.07.23.49-1.18-.35-1.07-.46.44-1.22.58-1.37.13.24-.29.3.18.53.14-.13-.6.99-.3.58-1.04-.23,1.08.77.65,1.24,1.12.03-.88.38.24.72-.48.04-.88.21-1.88.47-2.72.94-.81.97-2.63,1.29-3.54.43-.41,1.02.14,1.28-.38.15-.65-.86.27-.3-.6l.11.13c-.09-.33.92-1.66,0-2.16l.67.46c.11-.16-.01-.37-.06-.54.24.05.52-.12.6.21.71-.49.14-1.31.24-1.97l-.51.35c-.19-1.18.4-1.87.37-2.99l.44.08-.23-.68c.42.2.73-.39.39-.77.33.6.68,1.21.98,1.84-.32.46-.47-.59-.94-.32-.4.22-.45,1.24-.05,1.47.11-.39.02-.42-.1-.74.63-.06.52.54.88.9,0-.21.24-.49.05-.56.24.45.22.88.13,1.58-.17-.51-.42.19-.56-.01.53.14.59.84.31,1.67-.77.46-.01,1.67-.43,2.62-.43-.54-.73-1.15-.8-1.78-.42.53-.16.67-.58,1.2.32.39.88.77.91,1.64l-.4-.08c-.02.77.52.95.09,1.82-.38.74-.71,1.5-1.01,2.22-.36.69-.7,1.34-.99,1.9l-.38-.13c.24.5.06,1.06-.19,1.62-.25.56-.65,1.06-.72,1.57-.58.58-.95,1.37-1.3,2.06-.39.66-.8,1.21-1.32,1.33-.36.61-.71,1.2-1.05,1.78-.38.56-.79,1.08-1.2,1.61-.41.53-.84,1.05-1.3,1.57-.49.48-1.03.95-1.59,1.41l-.04-.76c-.09.67-.48-.02-.79.38.75-.04-.11.93-.16,1.45-1.28.5-2.34,1.84-3.04,2.9l-.27-.31c-.56,1.29-2.16,1.44-3.46,2.1-.22-.05-.64-.28-1.01-.05-.41.93-.81,1.07-1.7,1.95-.76.42-2.15.71-3.05.78-.68.47-1.39.94-2.16,1.22-.77.29-1.56.52-2.36.75l-1.21.33-1.23.23c-.82.16-1.65.36-2.47.62l-.29-.44c-.78.33-1.65.49-2.53.6-.88.09-1.79.21-2.68.1-1.78-.16-3.48-.23-4.91-.26l.37-.77c-.82-.38-1.99-.09-1.87.52-.42-.19-.98-.17-1.5-.22-.51-.08-.97-.2-1.16-.6-.84-.37-1.16.09-1.93,0-.85-.35-1.41-.63-1.99-.85-.57-.21-1.15-.36-1.99-.59l.38.19c.24-.1.38-.42,0-.62-.34,0-.87-.24-1.28-.38-.4-.15-.7-.14-.6.44-.72-.66-1.73-1.01-2.73-1.4-1-.38-1.92-.94-2.5-1.71,0,.31-.42.11-.68.17-.35-.21-.68-.45-1.01-.7-.3-.28-.6-.56-.89-.83-.59-.53-1.17-1-1.83-1.21-.12-.26.61-.11.1-.52-.37-.16-.23.27-.7.09-1.14-.69-2.05-1.69-2.88-2.69-.78-1.06-1.44-2.16-2.29-2.99-3.1-2.93-5.26-6.9-6.95-10.58l.2-.04c-1.22-.99-.39-3.24-1.84-3.89.06-.36-.24-1.22.18-1.09-.39-.45-.46-1.22-.56-2.04-.05-.41-.11-.83-.21-1.23-.09-.41-.2-.81-.43-1.16,0,.15.06.22.16.37.09-.82-.06-1.54-.22-2.27-.08-.37-.16-.74-.21-1.12-.04-.39,0-.79.06-1.21.09.16.17.46.37.49.34-.65-.9-1.45.02-1.85-.03-.36-.49-.24-.45-.02.02-1.81.13-3.66.08-5.56v-.71s.04-.71.04-.71l.09-1.43.1-1.44.06-.72.13-.7c1.22-2.5,1.58.22,1.43-2.01.22-.12-.32-.22-.12-.19-.02-.43.31-.67.6-.88.32-.2.6-.37.46-.71-.63.04-.18-.46-.5-.59.93-1.42,1.48-1.53,1.58-2.88l.24.21c-.07-.85.19-1.63.43-2.39.24-.76.43-1.52.36-2.31.53-.93,1.06-1.85,1.58-2.76.56-.89,1.19-1.74,1.78-2.61.57-.89,1.25-1.69,1.93-2.49.69-.79,1.3-1.65,2.08-2.36l2.24-2.21c.79-.69,1.62-1.33,2.44-1.99.8-.69,1.69-1.25,2.58-1.81.9-.55,1.75-1.19,2.72-1.62.95-.44,1.9-.88,2.84-1.32.96-.4,1.95-.73,2.92-1.1.49-.17.97-.37,1.47-.53l1.51-.4c1.01-.25,2-.57,3.03-.75l3.09-.48.77-.11.78-.04,1.57-.06c2.09-.15,4.19.11,6.29.34,1.88,1.03,1.98,1.06,4.17,1.06-.11.11-.25.12-.13.26.24-.66,1.49.26,1.82-.29,1.49.46,2.97.75,4.38,1.3.72.25,1.43.49,2.16.74.74.24,1.42.62,2.16.95-.49-.16-.94.22-.38.44l.75-.1v.21c.42.09.98,0,.69-.37.47.2.95.37,1.4.61l1.33.75c.87.53,1.77,1.01,2.57,1.63.8.62,1.59,1.25,2.36,1.9.4.31.76.65,1.11,1.02l1.06,1.07c1.45,1.38,2.62,3.02,3.89,4.52l1.7,2.42c.28.4.59.79.86,1.2l.78,1.25c.35.88,1,1.81,1.53,2.82.54,1.01,1.14,2.03,1.64,2.92.36,1.48.64,2.94.96,4.34.2,1.44.4,2.84.64,4.22.12,1.41.27,2.8.49,4.21.09,1.42.23,2.86.45,4.35,0,0-1.73-.79-2.24-3.09Z"/>
      <path class="cls-1" d="M88.22,49.24c-.34.19-.55.82-.96.29.31-.05.67-.37.96-.29Z"/>
      <path class="cls-1" d="M80.79,64.56c.08.06-.22.15-.29.17.06-.19-.1-.48.12-.55-.06.19.09.23.17.38Z"/>
      <path class="cls-1" d="M78.56,68.01c-.21-.22.04-1.08.28-1.54l-.28,1.54Z"/>
      <path class="cls-1" d="M75.37,70.33c-.39.09-.43-.06-.17-.4.14.07.12.24.17.4Z"/>
      <path class="cls-1" d="M75.72,70.96c-.21.24-.44.24-.67.24.2.15.36-.63.67-.24Z"/>
      <path class="cls-1" d="M69.29,75.91c-.14.13-.33.58-.66.42.3.06.52-.85.66-.42Z"/>
      <path class="cls-1" d="M66.47,78.39c-.11.05-.18.03-.26.17-.26,0-.17-.3-.02-.42l.29.25Z"/>
      <polygon class="cls-1" points="11.12 56.29 11.36 56.66 11.07 56.67 11.12 56.29"/>
      <path class="cls-1" d="M16.34,26.69c.07-.46.39-.08.47-.12-.2.32-.23-.32-.47.12Z"/>
      <polygon class="cls-1" points="27.62 14.07 27.51 14.14 27.24 13.61 27.62 14.07"/>
    </g>
    <g>
      <g>
        <path class="cls-1" d="M46.58,73.97c-.1.12.17.2-.04.15-.03-.12-.04-.21.04-.15Z"/>
        <path class="cls-1" d="M46.99,73.96c-.83-.31-.18-1.06-.75-1.48-.04-.05.42-.05.29-.17-.7-.4-.39-1.25.02-1.87l.12.03c.08-.12-.32-.23-.28-.35.08,0,.11.03.22,0-.24-.02-.13-.21-.31-.25.09-.05.28-.05.37-.12l-.27-.06c-.66-.17.01-.47-.3-.72.06.01.11.04.17.02-.37-.42-.28-.96-.4-1.45.09.03.27.06.37.04-.28-.05-.35-.2-.39-.34.3-.02-.23-.25-.04-.39l.06.02c-.28-.16.2-.14-.14-.29l.24-.03c-.4-.12.24-.13.05-.25h-.08c-.08-.12.13-.12.07-.22h.05c-.07-.21.17-.27-.14-.34.26,0,.08.21.46.19-.24-.69.12-1.28.29-1.89.14-.02.2-.04.32,0-.03-.08.06-.23-.06-.35,0,.02.17.04.2.02.16-.04-.25-.27-.07-.32.05.09.13.15.25.19-.17-.21-.07-.32-.08-.47.04.05.05.09.14.13-.18-.27.17-.19.07-.39l.13.14c.28-.04-.3-.26-.09-.33.02.07.09.09.15.14-.18-.31.07-.46.08-.65.01.02.05.05.05.05.08-.17.27-.24.28-.49.11,0,.31.31.39.15-.27-.25.12-.32-.26-.54.17-.07.44-.13.44-.3.04.15.35.29.28.4l.22.11c.09.13-.1.02.04.15.03-.05.07-.28.15-.27-.06-.26-.21-.65-.07-.8,0,.17.28.31.26.39-.06-.24-.12-.49-.17-.74.05-.05.17.24.2.1-.06-.08-.05-.16-.07-.24.04.02.2-.24.4.06.09.11-.05.13.07.2.1-.06.05-.17.16-.23l.02.04c.1.01.14-.24-.03-.38-.06.01.12.19,0,.13-.04-.21.07-.33.18-.39-.01.07.03.16.06.26.03-.33.16-.5.3-.69-.06-.16.05.32-.01.24.31.14.37-.49.68-.23-.02.04-.09-.23-.08-.18.12-.02.19.22.24.11.05.14.08-.08.14-.14.01-.11.04.06-.02.1.07-.15.47-.47.76-.32-.03-.1.09-.39.16-.38v.23c.08.13.23-.05.28.14.08-.15-.12-.06-.2.02-.1.08-.2.18-.13.05.08.18.18-.39.19-.08.13-.03.29-.31.45-.12-.05-.03-.11.33,0,.3.2-.06.06-.12.23-.21l.12-.1c.03-.22.2.02.14-.22,0,.18.36-.13.26.25l-.09.29c.09-.03.22-.31.33-.44,0,.03.01.08,0,.13.15-.44.21.04.45-.3.07.08.2.08.31.11.07.11.12.23.07.4.16,0,.36-.02.4.21-.05,0-.08-.03-.15.05-.02.2.07.12.17.15-.06.04-.05.38-.11.58.17.02.33-.17.45-.26-.26.39.47.22.23.62-.08-.02-.29-.09-.33.08-.32.34.41.08.3.33l.31-.2c-.16.17.3.15-.04.29.14,0-.03.24.29.08-.16.38.45.6-.1.99.07.02.04.14.21.06.17-.13-.16-.05-.04-.11.02.03.12,0,.16,0-.05.11-.05.19-.36.2-.15.25.64.02.58.31-.15.03-.19.06-.15.13l.27.08c-.02.18-.31.17-.55.23.06.07.07.18.26.18l-.29.16c.21-.12.16.04.23.07l-.07-.03c-.1.03-.02.12.02.16.15-.04.19-.15.23-.21.12.03.1.1.24.14-.25.02-.14.17-.16.24-.04.09.23.06.23.09-.13.02-.01.14-.19.09-.04-.02.12-.08,0-.11-.09.07-.31.08-.14.18.13.07.48-.07.33.11-.06-.04-.16-.04-.25-.06l-.12.16h.22c-.05.01-.07,0-.1.01.24.03.08.22.35.24.03.08-.15.17-.17.24h-.02c-.13.08-.03.19.12.27h-.05s.02.16.14.23c-.18.12-.84,0-.58.15,0,.12.39.22.54.18-.17.21.16.52-.2.68.09.05.14.04.19.11-.14.31.08.76-.41.91-.06-.12-.21-.07-.33-.1.17.13-.22.03.1.15.19.05.29.09.39.02.05.22-.03.53-.25.56.11-.02.15.04.19.1-.29-.13-.4-.01-.34.13l.17.09h-.22s.36.19.14.22c-.07-.03-.14-.05-.2-.05.1.17.27.43.07.48l-.3-.04c0,.06.12.22.23.17-.25.11-.32.23-.57.16.33.59.03,1.06-.24,1.38l-.11-.1c-.17.01.17.2.04.21-.09-.11-.29-.11-.38-.29-.21.03.08.32.07.45.14.13-.05-.15.13.02.05.06-.25.09-.05.28-.11-.04-.26-.2-.33-.29l.04.16c-.34-.14-.29-.58-.69-.76l-.02.09c-.29-.14-.12-.37-.34-.29.05.15.32.48.47.51-.07.19.47.51.3.65-.17-.07.09-.15-.12-.28-.24-.08-.04.23-.16.24.15,0,.31.26.3.34-.18-.01-.16-.24-.28-.15.11.13.1.32.27.31.24.3-.19.05-.04.31-.23-.15-.34-.54-.55-.51.21.16.11.4.44.6-.1,0-.25-.14-.33-.29-.18-.04.17.5-.21.16l.16.21c-.08-.04-.16-.05-.29-.12-.06.06.06.46-.21.16.01.06-.15.15.09.31.21.05-.04-.24.27-.01-.26-.16-.1.15-.09.27l-.11-.11c0,.07-.09.1,0,.25-.03-.09-.12-.15-.17-.16l.12.2c-.05.19-.3-.29-.38-.13l-.03-.21s-.18-.09-.19.02c.11.19.24.41.33.55-.01.13-.19-.16-.12.07l-.07-.27c-.03-.06-.29-.22-.38-.14-.01.1.09.42.26.43-.05.04-.19,0-.25-.16-.06.14.16.17.15.35-.13-.08-.37-.15-.57-.25l-.13-.36-.06.05c-.1-.29-.17-.14-.32-.41-.07,0-.06.12-.05.21.42.29.26.64.56.96-.11.24-.75-.78-.52-.08.1.07.21.41.24.22-.14.05.19.42-.05.37,0-.21-.36-.3-.37-.6.08.13.14.03.14-.02-.14-.1-.25-.37-.36-.28-.04.08-.14.15,0,.33.15.21.09-.09.19.15-.09.16-.33-.14-.14.27.07-.08.24.11.34.26l-.05.15-.07-.15c-.24,0,.12.28-.07.35l-.26-.23c-.12-.26.31-.04.02-.41-.12.05-.02.27-.19.23,0-.05.02-.08.02-.12-.05.01-.42-.48-.37-.09,0,.17.07.15.16.3-.14.15-.1.33-.19.42-.16-.3-.21.09-.27-.28.16.13.4-.04.28-.35-.28-.3.16-.04-.03-.4-.14.08-.35-.26-.51-.47-.05,0-.02.12-.02.17.12.22.16.18.3.39-.18.04-.25.24-.21.49-.11-.07-.23-.29-.18-.35-.14.17-.34.26-.55.3.31.28-.14.2.1.44.13.02.36.22.4.4-.07.01-.09-.15-.15-.21.04.23-.29-.23-.19.11.1-.21-.21-.44-.34-.73-.03.22-.11-.2-.22-.13-.03.23-.11.42-.21.55-.31-.18-.43.21-.57.29-.15-.1-.26-.44-.37-.45-.1.06.25.3.03.23l-.02-.07c0,.1-.38-.08-.19.39l-.13-.37s-.03.07-.03.12c-.06-.11-.14-.2-.13-.29-.21-.19-.17.13-.26.19l.16.17c-.09.24-.3.1-.43.25l-.09-.2-.04.17c-.07-.21-.21-.29-.19-.1l.02-.61c.12.08.04.28.17.46.12.15.24.03.17-.18-.07,0-.05.05-.06.15-.15-.27-.06-.3-.11-.51-.02.03-.11-.04-.07.05,0-.16.04-.21.13-.27-.01.14.12.15.13.25-.11-.25-.06-.37.09-.36.22.24.13-.29.31-.28.07.27.1.5.06.65.15.08.09-.05.24.03-.05-.2-.16-.5-.11-.67l.1.18c.05-.14-.09-.41.07-.42.27-.02.5-.13.67-.2l.1.17c-.12-.43.22-.32.24-.56.3.04.33-.44.62-.21.27-.36.5-.67.9-.84l.11.28c-.06-.22.14.11.17.02-.21-.14-.1-.31-.16-.49.28.07.33-.29.32-.55l.13.15c-.11-.4.26-.26.46-.35.07.05.23.17.26.11-.13-.32-.06-.34-.07-.59.09-.08.27-.16.44-.16-.03-.65.52-.75.58-1.28l.21.12c-.18-.66.52-.8.47-1.25l.34.23c.16-.04.01-.29-.26-.39.16-.04-.07-.33.27-.25.12-.07-.11-.2-.13-.3.25-.13.24-.23.21-.45l-.04.04c.08.05.24.11.28.06-.09-.11.18-.25-.31-.31.32-.14-.06-.51.31-.65-.13,0-.15-.06-.24-.09,0-.17.3-.35.09-.5.07-.03.22.06.24-.02-.05-.05-.17,0-.24-.07-.24-.28.22-.6.16-.88-.17-.23-.25-.46-.3-.7-.07-.24-.13-.48-.22-.7l.09-.03c-.4-.01.2-.5-.36-.4.07-.07-.02-.15.16-.21-.14,0-.13-.11-.13-.22.02-.07.05-.11-.1-.04,0,.01.01,0,.05-.02.14-.2-.12-.04-.02-.26.03-.03.06-.04.13-.12.1-.2-.31.3-.03-.15-.02-.02-.15.21-.14.21,0-.05,0-.1-.03-.13-.16-.03-.4.21-.44.31-.28-.24-.13-.79-.31-.4-.04-.08.02.18,0,.09-.07.15-.27-.48-.29-.22.09.28-.01.17.03.34-.24-.13-.36-.38-.46-.12l-.03-.15c-.06.48-.34.33-.32.84-.91.44-1.46,1.2-1.97,1.87-.15.15-.28.32-.42.48l-.29.59c-.24.36-.33.85-.63,1.25-.47.11-.45.14-.34.44-.06-.02-.07-.04-.14-.04.32.08,0,.2.3.28-.12.37-.12.72-.15,1.11-.03-.07-.3-.13-.28-.05l.21.1h-.09c.05.06.21.13.31.09.13.52.01,1-.13,1.51-.08.52-.18,1.06-.1,1.58-.11.26.01.6.14.87-.29.86-.5,1.69-.05,2.46,0,0-.85.08-1.1-.24Z"/>
        <path class="cls-1" d="M46.72,73.87c.09.14.22.17.24.41-.07-.14-.19-.27-.24-.41Z"/>
        <path class="cls-1" d="M49.93,74.13s.07.04.09.06c-.02.03.02.17-.05.11.02-.03-.02-.09-.04-.16Z"/>
        <path class="cls-1" d="M50.6,73.83c.07.13,0,.31-.08.38l.08-.38Z"/>
        <path class="cls-1" d="M51.5,73.97c.12.07.14.14.07.18-.05-.06-.05-.11-.07-.18Z"/>
        <path class="cls-1" d="M51.36,73.67s.12.02.19.08c-.07-.1-.07.14-.19-.08Z"/>
        <path class="cls-1" d="M52.86,73.15s.01-.18.14-.07c-.1-.07-.03.26-.14.07Z"/>
        <path class="cls-1" d="M53.29,72.52s.05,0,.04-.04c.08.02.11.13.09.17l-.13-.13Z"/>
        <polygon class="cls-1" points="56.05 60.26 56.15 60.29 56.02 60.35 56.05 60.26"/>
        <path class="cls-1" d="M50.23,59.25c-.03.12-.11-.1-.13-.11.06-.05.05.18.13.11Z"/>
        <polygon class="cls-1" points="48.13 61.59 48.15 61.57 48.36 61.79 48.13 61.59"/>
      </g>
      <g>
        <path class="cls-1" d="M59.53,51.08c-.12-.1-.2.17-.15-.04.12-.03.21-.04.15.04Z"/>
        <path class="cls-1" d="M59.54,51.5c.31-.83,1.06-.18,1.48-.75.05-.04.05.42.17.29.4-.7,1.25-.39,1.87.02l-.03.12c.12.08.23-.32.35-.28,0,.08-.03.11,0,.22.02-.24.21-.13.25-.31.05.09.05.28.12.37l.06-.27c.17-.66.47.01.72-.3-.01.06-.04.11-.02.17.42-.37.96-.28,1.45-.4-.03.09-.06.27-.04.37.05-.28.2-.35.34-.39.02.3.25-.23.39-.04l-.02.06c.16-.28.14.2.29-.14l.03.24c.12-.4.13.24.25.05v-.08c.12-.08.13.13.22.07v.05c.21-.07.27.17.34-.14,0,.26-.21.08-.19.46.69-.24,1.28.12,1.89.29.02.14.04.2,0,.32.08-.03.23.06.35-.06-.02,0-.04.17-.02.2.04.16.27-.25.32-.07-.09.05-.15.13-.19.25.21-.17.32-.07.47-.08-.05.04-.09.05-.13.14.27-.18.19.17.39.07l-.14.13c.04.28.26-.3.33-.09-.07.02-.09.09-.14.15.31-.18.46.07.65.08-.02.01-.05.05-.05.05.17.08.24.27.49.28,0,.11-.31.31-.15.39.25-.27.32.12.54-.26.07.17.13.44.3.44-.15.04-.29.35-.4.28l-.11.22c-.13.09-.02-.1-.15.04.05.03.28.07.27.15.26-.06.65-.21.8-.07-.17,0-.31.28-.39.26.24-.06.49-.12.74-.17.05.05-.24.17-.1.2.08-.06.16-.05.24-.07-.02.04.24.2-.06.4-.11.09-.13-.05-.2.07.06.1.17.05.23.16l-.04.02c-.01.1.24.14.38-.03-.01-.06-.19.12-.13,0,.21-.04.33.07.39.18-.07-.01-.16.03-.26.06.33.03.5.16.69.3.16-.06-.32.05-.24-.01-.14.31.49.37.23.68-.04-.02.23-.09.18-.08.02.12-.22.19-.11.24-.14.05.08.08.14.15.11.01-.06.04-.1-.02.15.07.47.47.32.76.1-.03.38.09.38.16h-.23c-.13.08.05.23-.14.28.15.08.06-.12-.02-.2-.08-.1-.18-.2-.05-.13-.18.08.39.18.08.19.03.13.31.29.12.45.03-.05-.33-.11-.3,0,.06.2.12.06.21.23l.1.12c.22.03-.02.2.22.14-.18,0,.12.36-.25.26l-.29-.09c.03.09.31.22.44.33-.03,0-.08.01-.13,0,.44.15-.04.21.3.45-.08.07-.08.2-.11.31-.11.07-.23.12-.4.07,0,.16.02.36-.21.4,0-.05.03-.08-.05-.15-.2-.02-.12.07-.15.17-.04-.06-.38-.05-.58-.11-.02.17.17.33.26.45-.39-.26-.22.47-.62.23.02-.08.09-.29-.08-.33-.34-.32-.08.41-.33.3l.2.31c-.17-.16-.15.3-.29-.04,0,.14-.24-.03-.08.29-.38-.16-.6.45-.99-.1-.02.07-.14.04-.06.21.13.17.05-.16.11-.04-.03.02,0,.12,0,.16-.11-.05-.19-.05-.2-.36-.25-.15-.02.64-.31.58-.03-.15-.06-.19-.13-.15l-.08.27c-.18-.02-.17-.31-.23-.55-.07.06-.18.07-.18.26l-.16-.29c.12.21-.04.16-.07.23l.03-.07c-.03-.1-.12-.02-.16.02.04.15.15.19.21.23-.03.12-.1.1-.14.24-.02-.24-.17-.14-.24-.16-.09-.04-.06.23-.09.23-.02-.13-.14-.01-.09-.19.02-.04.08.12.11,0-.07-.09-.09-.31-.18-.14-.07.13.07.48-.11.33.04-.06.04-.16.06-.25l-.16-.12v.22c-.01-.06,0-.07-.01-.1-.03.24-.22.08-.24.35-.08.03-.17-.15-.24-.17v-.02c-.08-.13-.19-.03-.27.12v-.05s-.16.02-.23.14c-.12-.18,0-.84-.15-.58-.12,0-.22.39-.18.54-.21-.17-.52.16-.68-.2-.05.09-.04.14-.11.19-.31-.14-.76.08-.91-.41.12-.06.07-.21.1-.33-.13.17-.03-.22-.15.1-.05.19-.09.29-.02.39-.22.05-.53-.03-.56-.25.02.11-.04.15-.1.19.13-.29.01-.4-.13-.34l-.09.17v-.22s-.19.36-.22.14c.03-.07.05-.14.05-.2-.17.1-.43.27-.48.07l.04-.3c-.06,0-.22.12-.17.23-.11-.25-.23-.32-.16-.57-.59.33-1.06.03-1.38-.24l.1-.11c-.01-.17-.2.17-.21.04.11-.09.11-.29.29-.38-.03-.21-.32.08-.45.07-.13.14.15-.05-.02.13-.06.05-.09-.25-.28-.05.04-.11.2-.26.29-.33l-.16.04c.14-.34.58-.29.76-.69l-.09-.02c.14-.29.37-.12.29-.34-.15.05-.48.32-.51.47-.19-.07-.51.47-.65.3.07-.17.15.09.28-.12.08-.24-.23-.04-.24-.16,0,.15-.26.31-.34.3.01-.18.24-.16.14-.28-.13.11-.32.1-.31.27-.3.24-.05-.19-.31-.04.15-.23.54-.34.51-.55-.16.21-.4.11-.6.44,0-.1.14-.25.29-.33.04-.18-.5.17-.16-.21l-.21.16c.04-.08.05-.16.12-.29-.06-.06-.46.06-.16-.21-.06.01-.15-.15-.31.09-.05.21.24-.04.01.27.16-.26-.15-.1-.27-.09l.11-.11c-.07,0-.1-.09-.25,0,.09-.03.15-.12.16-.17l-.2.12c-.19-.05.29-.3.13-.38l.21-.03s.09-.18-.02-.19c-.19.11-.41.24-.55.33-.13-.01.16-.19-.07-.12l.27-.07c.06-.03.22-.29.14-.38-.1-.01-.42.09-.43.26-.04-.05,0-.19.16-.25-.14-.06-.17.16-.35.15.08-.13.15-.37.25-.57l.36-.13-.05-.06c.29-.1.14-.17.41-.32,0-.07-.12-.06-.21-.05-.29.42-.64.26-.96.56-.24-.11.78-.75.08-.52-.07.1-.41.21-.22.24-.04-.14-.42.19-.37-.05.21,0,.3-.36.6-.37-.13.08-.03.14.02.14.1-.14.37-.25.28-.36-.08-.04-.15-.14-.33,0-.21.15.09.09-.15.19-.16-.09.14-.33-.27-.14.08.07-.12.24-.26.34l-.15-.05.15-.07c0-.24-.28.12-.35-.07l.23-.26c.26-.12.04.31.41.02-.05-.12-.27-.02-.23-.19.05,0,.08.02.12.02-.01-.05.48-.42.09-.37-.17,0-.15.07-.3.16-.15-.14-.33-.1-.42-.19.3-.16-.09-.21.28-.27-.13.16.04.4.35.28.3-.28.04.16.4-.03-.08-.14.26-.35.47-.51,0-.05-.12-.02-.17-.02-.22.12-.18.16-.39.3-.04-.18-.24-.25-.49-.21.07-.11.29-.23.35-.18-.17-.14-.26-.34-.3-.55-.28.31-.2-.14-.44.1-.02.14-.22.36-.4.4-.01-.07.15-.09.21-.15-.23.04.23-.29-.11-.19.21.1.44-.21.73-.34-.22-.03.2-.11.13-.22-.23-.03-.42-.11-.54-.21.18-.31-.21-.43-.29-.57.1-.15.44-.26.45-.37-.06-.1-.3.25-.23.03l.07-.02c-.1,0,.08-.38-.39-.19l.37-.13s-.07-.03-.12-.03c.11-.06.2-.14.29-.13.19-.21-.13-.17-.19-.26l-.17.16c-.24-.09-.1-.3-.25-.43l.2-.09-.17-.04c.21-.07.29-.21.1-.19l.62.02c-.08.12-.28.04-.46.17-.15.12-.03.24.18.17,0-.07-.05-.05-.15-.06.27-.15.3-.06.51-.11-.03-.02.04-.11-.05-.07.16,0,.21.04.27.13-.14-.01-.15.12-.25.13.25-.11.37-.06.36.09-.24.22.29.13.28.31-.27.07-.5.1-.65.06-.08.15.05.09-.03.24.2-.05.5-.16.67-.11l-.18.1c.14.05.41-.09.42.07.02.27.13.5.2.67l-.17.1c.43-.12.32.22.56.24-.04.3.44.33.21.62.36.27.67.5.84.9l-.28.11c.22-.06-.11.14-.02.17.14-.21.31-.1.49-.16-.07.28.29.33.55.32l-.15.13c.4-.11.26.26.35.46-.05.07-.17.23-.11.26.32-.13.34-.06.59-.07.08.09.16.27.16.44.65-.03.75.52,1.28.58l-.12.21c.66-.18.8.52,1.25.47l-.23.34c.04.16.29.01.39-.26.04.16.33-.07.25.27.07.12.2-.11.3-.13.13.25.23.24.45.21l-.04-.04c-.05.08-.11.24-.06.28.11-.09.25.18.31-.31.14.32.51-.06.65.31,0-.13.06-.15.09-.24.17,0,.35.3.5.09.03.07-.06.22.02.24.05-.05,0-.17.07-.24.28-.24.6.22.88.16.23-.17.46-.25.71-.3.24-.07.48-.13.7-.22l.03.09c.01-.4.5.2.4-.36.07.07.15-.02.21.16,0-.14.11-.13.22-.13.07.02.11.05.04-.1-.01,0,0,.01.02.05.2.14.04-.12.26-.02.03.03.04.06.12.13.2.1-.3-.31.15-.03.02-.02-.21-.15-.21-.14.05,0,.1,0,.13-.03.03-.16-.21-.4-.31-.44.24-.28.79-.13.4-.31.08-.04-.18.02-.09,0-.15-.07.48-.27.22-.29-.28.09-.17-.01-.34.03.13-.24.38-.36.12-.46l.15-.03c-.48-.06-.33-.34-.84-.32-.44-.91-1.2-1.46-1.87-1.97-.15-.15-.32-.28-.48-.42l-.59-.29c-.36-.24-.85-.33-1.25-.63-.11-.47-.14-.45-.44-.34.02-.06.04-.07.04-.14-.08.32-.2,0-.28.3-.37-.12-.72-.12-1.11-.15.07-.03.13-.3.05-.28l-.1.21v-.09c-.06.05-.13.21-.09.31-.52.13-1,.01-1.51-.13-.52-.08-1.06-.18-1.58-.1-.26-.11-.6.01-.87.14-.86-.29-1.69-.5-2.46-.05,0,0-.08-.85.24-1.1Z"/>
        <path class="cls-1" d="M59.63,51.22c-.14.09-.17.22-.41.24.14-.07.27-.19.41-.24Z"/>
        <path class="cls-1" d="M59.37,54.43s-.04.07-.06.09c-.03-.02-.17.02-.11-.05.03.02.09-.02.16-.04Z"/>
        <path class="cls-1" d="M59.67,55.1c-.13.07-.31,0-.38-.08l.38.08Z"/>
        <path class="cls-1" d="M59.53,56.01c-.07.12-.14.14-.18.07.06-.05.11-.05.18-.07Z"/>
        <path class="cls-1" d="M59.83,55.87s-.02.12-.08.19c.1-.07-.14-.07.08-.19Z"/>
        <path class="cls-1" d="M60.35,57.36s.18.01.07.14c.07-.1-.26-.03-.07-.14Z"/>
        <path class="cls-1" d="M60.98,57.79s0,.05.04.04c-.02.08-.13.11-.17.09l.13-.13Z"/>
        <polygon class="cls-1" points="73.24 60.56 73.21 60.66 73.15 60.52 73.24 60.56"/>
        <path class="cls-1" d="M74.25,54.74c-.12-.03.1-.11.11-.13.05.06-.17.05-.11.13Z"/>
        <polygon class="cls-1" points="71.91 52.64 71.93 52.65 71.71 52.86 71.91 52.64"/>
      </g>
      <g>
        <path class="cls-1" d="M54.58,38.97c-.1.12.17.2-.04.15-.03-.12-.04-.21.04-.15Z"/>
        <path class="cls-1" d="M54.99,38.96c-.83-.31-.18-1.06-.75-1.48-.04-.05.42-.05.29-.17-.7-.4-.39-1.25.02-1.87l.12.03c.08-.12-.32-.23-.28-.35.08,0,.11.03.22,0-.24-.02-.13-.21-.31-.25.09-.05.28-.05.37-.12l-.27-.06c-.66-.17.01-.47-.3-.72.06.01.11.04.17.02-.37-.42-.28-.96-.4-1.45.09.03.27.06.37.04-.28-.05-.35-.2-.39-.34.3-.02-.23-.25-.04-.39l.06.02c-.28-.16.2-.14-.14-.29l.24-.03c-.4-.12.24-.13.05-.25h-.08c-.08-.12.13-.12.07-.22h.05c-.07-.21.17-.27-.14-.34.26,0,.08.21.46.19-.24-.69.12-1.28.29-1.89.14-.02.2-.04.32,0-.03-.08.06-.23-.06-.35,0,.02.17.04.2.02.16-.04-.25-.27-.07-.32.05.09.13.15.25.19-.17-.21-.07-.32-.08-.47.04.05.05.09.14.13-.18-.27.17-.19.07-.39l.13.14c.28-.04-.3-.26-.09-.33.02.07.09.09.15.14-.18-.31.07-.46.08-.65.01.02.05.05.05.05.08-.17.27-.24.28-.49.11,0,.31.31.39.15-.27-.25.12-.32-.26-.54.17-.07.44-.13.44-.3.04.15.35.29.28.4l.22.11c.09.13-.1.02.04.15.03-.05.07-.28.15-.27-.06-.26-.21-.65-.07-.8,0,.17.28.31.26.39-.06-.24-.12-.49-.17-.74.05-.05.17.24.2.1-.06-.08-.05-.16-.07-.24.04.02.2-.24.4.06.09.11-.05.13.07.2.1-.06.05-.17.16-.23l.02.04c.1.01.14-.24-.03-.38-.06.01.12.19,0,.13-.04-.21.07-.33.18-.39-.01.07.03.16.06.26.03-.33.16-.5.3-.69-.06-.16.05.32-.01.24.31.14.37-.49.68-.23-.02.04-.09-.23-.08-.18.12-.02.19.22.24.11.05.14.08-.08.14-.14.01-.11.04.06-.02.1.07-.15.47-.47.76-.32-.03-.1.09-.39.16-.38v.23c.08.13.23-.05.28.14.08-.15-.12-.06-.2.02-.1.08-.2.18-.13.05.08.18.18-.39.19-.08.13-.03.29-.31.45-.12-.05-.03-.11.33,0,.3.2-.06.06-.12.23-.21l.12-.1c.03-.22.2.02.14-.22,0,.18.36-.13.26.25l-.09.29c.09-.03.22-.31.33-.44,0,.03.01.08,0,.13.15-.44.21.04.45-.3.07.08.2.08.31.11.07.11.12.23.07.4.16,0,.36-.02.4.21-.05,0-.08-.03-.15.05-.02.2.07.12.17.15-.06.04-.05.38-.11.58.17.02.33-.17.45-.26-.26.39.47.22.23.62-.08-.02-.29-.09-.33.08-.32.34.41.08.3.33l.31-.2c-.16.17.3.15-.04.29.14,0-.03.24.29.08-.16.38.45.6-.1.99.07.02.04.14.21.06.17-.13-.16-.05-.04-.11.02.03.12,0,.16,0-.05.11-.05.19-.36.2-.15.25.64.02.58.31-.15.03-.19.06-.15.13l.27.08c-.02.18-.31.17-.55.23.06.07.07.18.26.18l-.29.16c.21-.12.16.04.23.07l-.07-.03c-.1.03-.02.12.02.16.15-.04.19-.15.23-.21.12.03.1.1.24.14-.25.02-.14.17-.16.24-.04.09.23.06.23.09-.13.02-.01.14-.19.09-.04-.02.12-.08,0-.11-.09.07-.31.08-.14.18.13.07.48-.07.33.11-.06-.04-.16-.04-.25-.06l-.12.16h.22c-.05.01-.07,0-.1.01.24.03.08.22.35.24.03.08-.15.17-.17.24h-.02c-.13.08-.03.19.12.27h-.05s.02.16.14.23c-.18.12-.84,0-.58.15,0,.12.39.22.54.18-.17.21.16.52-.2.68.09.05.14.04.19.11-.14.31.08.76-.41.91-.06-.12-.21-.07-.33-.1.17.13-.22.03.1.15.19.05.29.09.39.02.05.22-.03.53-.25.56.11-.02.15.04.19.1-.29-.13-.4-.01-.34.13l.17.09h-.22s.36.19.14.22c-.07-.03-.14-.05-.2-.05.1.17.27.43.07.48l-.3-.04c0,.06.12.22.23.17-.25.11-.32.23-.57.16.33.59.03,1.06-.24,1.38l-.11-.1c-.17.01.17.2.04.21-.09-.11-.29-.11-.38-.29-.21.03.08.32.07.45.14.13-.05-.15.13.02.05.06-.25.09-.05.28-.11-.04-.26-.2-.33-.29l.04.16c-.34-.14-.29-.58-.69-.76l-.02.09c-.29-.14-.12-.37-.34-.29.05.15.32.48.47.51-.07.19.47.51.3.65-.17-.07.09-.15-.12-.28-.24-.08-.04.23-.16.24.15,0,.31.26.3.34-.18-.01-.16-.24-.28-.15.11.13.1.32.27.31.24.3-.19.05-.04.31-.23-.15-.34-.54-.55-.51.21.16.11.4.44.6-.1,0-.25-.14-.33-.29-.18-.04.17.5-.21.16l.16.21c-.08-.04-.16-.05-.29-.12-.06.06.06.46-.21.16.01.06-.15.15.09.31.21.05-.04-.24.27-.01-.26-.16-.1.15-.09.27l-.11-.11c0,.07-.09.1,0,.25-.03-.09-.12-.15-.17-.16l.12.2c-.05.19-.3-.29-.38-.13l-.03-.21s-.18-.09-.19.02c.11.19.24.41.33.55-.01.13-.19-.16-.12.07l-.07-.27c-.03-.06-.29-.22-.38-.14-.01.1.09.42.26.43-.05.04-.19,0-.25-.16-.06.14.16.17.15.35-.13-.08-.37-.15-.57-.25l-.13-.36-.06.05c-.1-.29-.17-.14-.32-.41-.07,0-.06.12-.05.21.42.29.26.64.56.96-.11.24-.75-.78-.52-.08.1.07.21.41.24.22-.14.05.19.42-.05.37,0-.21-.36-.3-.37-.6.08.13.14.03.14-.02-.14-.1-.25-.37-.36-.28-.04.08-.14.15,0,.33.15.21.09-.09.19.15-.09.16-.33-.14-.14.27.07-.08.24.11.34.26l-.05.15-.07-.15c-.24,0,.12.28-.07.35l-.26-.23c-.12-.26.31-.04.02-.41-.12.05-.02.27-.19.23,0-.05.02-.08.02-.12-.05.01-.42-.48-.37-.09,0,.17.07.15.16.3-.14.15-.1.33-.19.42-.16-.3-.21.09-.27-.28.16.13.4-.04.28-.35-.28-.3.16-.04-.03-.4-.14.08-.35-.26-.51-.47-.05,0-.02.12-.02.17.12.22.16.18.3.39-.18.04-.25.24-.21.49-.11-.07-.23-.29-.18-.35-.14.17-.34.26-.55.3.31.28-.14.2.1.44.13.02.36.22.4.4-.07.01-.09-.15-.15-.21.04.23-.29-.23-.19.11.1-.21-.21-.44-.34-.73-.03.22-.11-.2-.22-.13-.03.23-.11.42-.21.55-.31-.18-.43.21-.57.29-.15-.1-.26-.44-.37-.45-.1.06.25.3.03.23l-.02-.07c0,.1-.38-.08-.19.39l-.13-.37s-.03.07-.03.12c-.06-.11-.14-.2-.13-.29-.21-.19-.17.13-.26.19l.16.17c-.09.24-.3.1-.43.25l-.09-.2-.04.17c-.07-.21-.21-.29-.19-.1l.02-.61c.12.08.04.28.17.46.12.15.24.03.17-.18-.07,0-.05.05-.06.15-.15-.27-.06-.3-.11-.51-.02.03-.11-.04-.07.05,0-.16.04-.21.13-.27-.01.14.12.15.13.25-.11-.25-.06-.37.09-.36.22.24.13-.29.31-.28.07.27.1.5.06.65.15.08.09-.05.24.03-.05-.2-.16-.5-.11-.67l.1.18c.05-.14-.09-.41.07-.42.27-.02.5-.13.67-.2l.1.17c-.12-.43.22-.32.24-.56.3.04.33-.44.62-.21.27-.36.5-.67.9-.84l.11.28c-.06-.22.14.11.17.02-.21-.14-.1-.31-.16-.49.28.07.33-.29.32-.55l.13.15c-.11-.4.26-.26.46-.35.07.05.23.17.26.11-.13-.32-.06-.34-.07-.59.09-.08.27-.16.44-.16-.03-.65.52-.75.58-1.28l.21.12c-.18-.66.52-.8.47-1.25l.34.23c.16-.04.01-.29-.26-.39.16-.04-.07-.33.27-.25.12-.07-.11-.2-.13-.3.25-.13.24-.23.21-.45l-.04.04c.08.05.24.11.28.06-.09-.11.18-.25-.31-.31.32-.14-.06-.51.31-.65-.13,0-.15-.06-.24-.09,0-.17.3-.35.09-.5.07-.03.22.06.24-.02-.05-.05-.17,0-.24-.07-.24-.28.22-.6.16-.88-.17-.23-.25-.46-.3-.7-.07-.24-.13-.48-.22-.7l.09-.03c-.4-.01.2-.5-.36-.4.07-.07-.02-.15.16-.21-.14,0-.13-.11-.13-.22.02-.07.05-.11-.1-.04,0,.01.01,0,.05-.02.14-.2-.12-.04-.02-.26.03-.03.06-.04.13-.12.1-.2-.31.3-.03-.15-.02-.02-.15.21-.14.21,0-.05,0-.1-.03-.13-.16-.03-.4.21-.44.31-.28-.24-.13-.79-.31-.4-.04-.08.02.18,0,.09-.07.15-.27-.48-.29-.22.09.28-.01.17.03.34-.24-.13-.36-.38-.46-.12l-.03-.15c-.06.48-.34.33-.32.84-.91.44-1.46,1.2-1.97,1.87-.15.15-.28.32-.42.48l-.29.59c-.24.36-.33.85-.63,1.25-.47.11-.45.14-.34.44-.06-.02-.07-.04-.14-.04.32.08,0,.2.3.28-.12.37-.12.72-.15,1.11-.03-.07-.3-.13-.28-.05l.21.1h-.09c.05.06.21.13.31.09.13.52.01,1-.13,1.51-.08.52-.18,1.06-.1,1.58-.11.26.01.6.14.87-.29.86-.5,1.69-.05,2.46,0,0-.85.08-1.1-.24Z"/>
        <path class="cls-1" d="M54.72,38.87c.09.14.22.17.24.41-.07-.14-.19-.27-.24-.41Z"/>
        <path class="cls-1" d="M57.93,39.13s.07.04.09.06c-.02.03.02.17-.05.11.02-.03-.02-.09-.04-.16Z"/>
        <path class="cls-1" d="M58.6,38.83c.07.13,0,.31-.08.38l.08-.38Z"/>
        <path class="cls-1" d="M59.5,38.97c.12.07.14.14.07.18-.05-.06-.05-.11-.07-.18Z"/>
        <path class="cls-1" d="M59.36,38.67s.12.02.19.08c-.07-.1-.07.14-.19-.08Z"/>
        <path class="cls-1" d="M60.86,38.15s.01-.18.14-.07c-.1-.07-.03.26-.14.07Z"/>
        <path class="cls-1" d="M61.29,37.52s.05,0,.04-.04c.08.02.11.13.09.17l-.13-.13Z"/>
        <polygon class="cls-1" points="64.05 25.26 64.15 25.29 64.02 25.35 64.05 25.26"/>
        <path class="cls-1" d="M58.23,24.25c-.03.12-.11-.1-.13-.11.06-.05.05.18.13.11Z"/>
        <polygon class="cls-1" points="56.13 26.59 56.15 26.57 56.36 26.79 56.13 26.59"/>
      </g>
      <g>
        <path class="cls-1" d="M48.65,54.7c.02.16.26.02.08.13-.1-.06-.18-.12-.08-.13Z"/>
        <path class="cls-1" d="M48.94,54.4c-.81.37-.88-.62-1.58-.52-.07,0,.26-.33.09-.32-.78.22-1.16-.61-1.31-1.33l.1-.07c-.03-.14-.39.07-.45-.05.05-.06.1-.06.15-.16-.18.16-.24-.06-.39.04.03-.1.16-.23.18-.35l-.23.15c-.59.35-.32-.34-.72-.3.05-.03.1-.05.13-.11-.56-.04-.88-.48-1.31-.74.09-.05.23-.15.29-.23-.23.16-.39.11-.52.04.2-.23-.34-.02-.3-.24l.06-.03c-.31.09.04-.24-.3-.1l.14-.19c-.36.2.08-.26-.14-.21l-.07.05c-.13-.02.01-.17-.09-.2l.04-.03c-.2-.1-.07-.31-.34-.14.18-.19.2.09.46-.2-.65-.32-.82-.99-1.13-1.54.08-.11.11-.17.22-.23-.08-.04-.12-.2-.29-.2.01.02.14-.09.15-.13.08-.14-.37-.01-.27-.18.1.02.2,0,.31-.04-.27-.03-.27-.18-.39-.28.06,0,.1.03.19,0-.31-.06-.01-.25-.22-.33h.19c.17-.22-.39.03-.29-.17.06.03.13,0,.21,0-.35-.09-.27-.37-.4-.52.03,0,.08,0,.08,0-.06-.17.02-.36-.15-.54.08-.07.44,0,.38-.17-.37.01-.14-.31-.56-.2.07-.17.22-.41.1-.53.14.08.46-.04.48.09l.23-.08c.15.03-.06.09.14.08-.01-.06-.15-.25-.09-.3-.23-.14-.61-.31-.62-.52.12.12.41.02.46.09-.22-.13-.43-.26-.64-.41,0-.07.29.05.21-.07-.1-.02-.15-.07-.22-.12.05-.01-.03-.31.33-.24.14.01.05.13.19.09.03-.12-.08-.16-.05-.27h.05c.08-.05-.07-.26-.29-.24-.03.05.22.05.09.1-.18-.12-.19-.28-.15-.41.04.06.13.09.23.14-.21-.26-.24-.47-.27-.7-.16-.07.26.19.16.18.32-.12-.08-.61.32-.64.01.04-.23-.1-.18-.08.07-.1.29.02.25-.09.14.06,0-.11,0-.2-.07-.09.07.02.05.09-.06-.15,0-.66.31-.77-.09-.05-.21-.34-.16-.38l.17.15c.14.05.11-.19.28-.09-.05-.16-.13.04-.13.15-.02.13-.02.26-.06.13.18.08-.15-.4.08-.19.07-.11-.01-.43.24-.4-.06.01.16.32.22.21.1-.19-.04-.12.01-.31v-.15c-.12-.18.17-.12-.04-.26.13.13.17-.34.36,0l.14.27c.04-.08-.07-.37-.08-.55.02.02.07.05.09.1-.2-.42.18-.12.11-.53.11,0,.2-.08.29-.14.13.03.25.08.33.23.11-.12.24-.27.43-.14-.03.04-.08.04-.07.14.13.15.13.04.23-.02-.01.06.24.31.33.49.14-.11.11-.36.13-.5.09.46.49-.17.6.28-.07.04-.27.14-.17.29.02.46.35-.23.45.02l.08-.36c0,.23.32-.11.18.23.1-.1.15.19.26-.15.16.38.75.11.62.77.06-.03.13.07.19-.11.03-.21-.15.08-.11-.05.04,0,.09-.08.11-.12.05.11.09.17-.11.39.07.28.46-.44.63-.2-.08.12-.09.18-.02.19l.25-.14c.11.14-.1.34-.22.55.09.01.17.08.31-.05l-.09.32c.06-.23.14-.08.21-.11l-.07.03c-.05.1.07.1.13.1.08-.13.03-.24,0-.31.1-.06.14,0,.27-.07-.16.19.02.22.06.28.03.09.21-.12.22-.1-.08.1.09.11-.07.2-.05.01.03-.14-.08-.08-.02.11-.16.28.02.22.14-.04.29-.39.31-.16-.07.02-.14.09-.22.13l.03.2.15-.17c-.02.06-.04.06-.06.09.19-.15.22.1.42-.08.07.04.02.22.05.29h-.02c-.02.16.12.17.28.12l-.04.03s.13.1.26.06c-.04.21-.59.6-.3.51.08.09.43-.12.51-.25.03.27.48.25.34.62.09-.03.13-.08.21-.05.12.32.6.48.35.93-.13-.04-.2.1-.31.16.21-.03-.14.18.18.04.17-.1.26-.14.29-.26.19.13.36.4.22.58.07-.09.14-.08.21-.06-.3.12-.29.27-.15.33l.19-.06-.16.14c.07.02.4-.11.26.07-.07.03-.14.07-.18.11.19.05.5.11.39.29l-.24.19s.24.07.29-.04c-.09.25-.07.39-.29.51.65.19.78.73.81,1.15h-.15c-.12.14.26.03.18.12-.14-.02-.29.12-.47.06-.13.17.29.17.37.27.19,0-.14-.07.11-.08.08.01-.12.24.17.23-.11.05-.33.04-.44.03l.14.08c-.34.14-.61-.2-1.03-.04l.05.08c-.3.1-.35-.18-.45.03.14.07.57.12.69.02.09.18.69.03.68.25-.17.07-.05-.17-.28-.11-.23.11.14.19.06.28.11-.1.4-.04.46.03-.13.12-.28-.06-.3.1.17.02.3.16.41.03.38.04-.1.17.2.25-.27.05-.62-.15-.75.03.26-.03.36.2.74.11-.07.07-.28.08-.44.03-.16.09.48.23-.03.26l.26.04c-.09.03-.15.07-.29.12,0,.08.36.28-.04.26.05.03,0,.21.29.16.18-.11-.19-.14.18-.2-.3.08.04.17.13.25h-.15c.06.05.01.14.18.17-.08-.04-.19-.03-.23,0l.23.06c.1.17-.42.01-.36.18l-.17-.13s-.19.07-.12.15c.21.05.46.12.62.16.08.1-.24.02-.04.13l-.24-.14c-.07-.02-.36.05-.37.17.07.08.36.23.49.12,0,.06-.14.13-.29.07.06.14.23,0,.35.14-.15.03-.37.16-.58.22l-.34-.16v.08c-.29-.14-.24.02-.53-.07-.05.05.04.12.11.18.5-.09.64.26,1.08.28.09.24-1.08-.02-.42.31.12-.02.44.14.33-.02-.07.13.43.17.22.3-.15-.15-.47.05-.69-.16.14.04.12-.08.08-.11-.17.03-.44-.08-.45.05.02.09,0,.2.24.22.25.04,0-.13.24-.03.05.18-.33.14.09.29-.01-.11.25-.09.42-.06l.08.14-.16-.05c-.16.17.29.11.2.3l-.35.02c-.27-.1.19-.25-.28-.3-.05.12.18.2.03.29-.03-.03-.04-.07-.07-.1-.03.04-.64-.04-.32.2.12.12.16.06.33.1,0,.21.17.3.16.44-.33-.1-.08.22-.39,0,.21-.02.26-.31-.05-.44-.41-.01.09-.14-.3-.26-.04.15-.43.06-.69.03-.03.04.07.1.11.13.24.07.24.01.49.06-.1.16,0,.35.2.5-.13.03-.36-.05-.37-.12.02.22-.06.43-.17.6.41-.02.04.24.38.24.11-.08.41-.1.57,0-.04.06-.17-.05-.26-.04.19.14-.37.04-.05.21-.08-.22-.46-.16-.76-.28.14.18-.21-.06-.24.07.14.18.22.37.24.53-.34.09-.16.45-.2.61-.18.04-.5-.13-.59-.06-.03.11.39.04.18.14l-.06-.04c.06.07-.32.21.14.41l-.35-.17s.03.07.06.11c-.12-.04-.24-.04-.3-.11-.28,0-.03.21-.05.32h.24c.11.24-.14.29-.13.49l-.21-.08.09.15c-.19-.1-.35-.05-.2.06l-.42-.45c.15-.03.23.17.45.2.19.03.19-.15,0-.25-.04.05,0,.07.06.14-.3-.08-.26-.17-.43-.28,0,.04-.1.05-.01.09-.12-.11-.12-.18-.1-.28.09.11.19.03.27.08-.25-.1-.3-.22-.19-.32.33.01-.11-.3.02-.41.24.14.43.29.5.41.16-.05.03-.1.19-.15-.18-.11-.47-.24-.55-.39l.2.06c-.06-.14-.35-.23-.25-.35.17-.2.26-.44.34-.62l.2.05c-.39-.22-.08-.38-.23-.57.24-.18-.07-.54.29-.58-.06-.44-.12-.82.04-1.23l.28.12c-.2-.11.17-.02.14-.1-.24.05-.29-.15-.46-.23.25-.15.03-.43-.16-.62l.2.02c-.36-.21,0-.37.08-.57.09-.02.28-.04.27-.11-.31-.14-.28-.19-.47-.37,0-.12.07-.3.2-.42-.48-.44-.17-.9-.49-1.31l.23-.06c-.59-.34-.2-.94-.55-1.21l.4-.08c.08-.14-.19-.21-.46-.1.08-.14-.28-.18.01-.36.03-.13-.22-.06-.3-.12.08-.27.01-.33-.17-.47v.05c.09-.02.25-.1.25-.15-.14-.01-.05-.3-.43,0,.12-.32-.4-.32-.24-.68-.1.09-.15.07-.24.1-.12-.13-.03-.46-.29-.42.03-.07.2-.11.16-.18-.07,0-.13.12-.22.12-.37-.03-.27-.58-.51-.74-.28-.04-.51-.15-.71-.29-.22-.12-.44-.24-.65-.34l.05-.09c-.29.27-.21-.5-.54-.03,0-.1-.12-.1-.03-.26-.1.1-.17.01-.25-.07-.03-.07-.04-.11-.1.04,0,.01,0,0,.02-.05-.05-.24-.12.06-.2-.17,0-.04.01-.07,0-.18-.08-.21,0,.43-.12-.08-.02,0,.04.25.05.24-.04-.04-.08-.06-.11-.07-.13.09-.13.43-.09.53-.37.02-.64-.47-.5-.06-.09-.03.14.11.06.06.06.16-.53-.15-.36.05.26.13.11.13.26.22-.27.08-.53-.02-.41.24l-.13-.08c.29.38,0,.48.37.82-.33.96-.18,1.88-.07,2.71,0,.21.03.43.05.64l.21.63c.09.43.37.83.44,1.33-.26.41-.22.42.07.56-.06.03-.08.02-.12.07.28-.16.14.14.41-.01.18.34.42.59.68.89-.07-.02-.3.12-.23.16l.22-.07-.06.07c.07,0,.24-.05.28-.16.45.28.72.7.98,1.16.31.43.62.87,1.04,1.19.11.26.43.42.72.51.41.82.84,1.55,1.7,1.78,0,0-.54.65-.95.61Z"/>
        <path class="cls-1" d="M48.68,54.53c.16.03.28-.04.46.12-.15-.04-.33-.06-.46-.12Z"/>
        <path class="cls-1" d="M51.14,52.45s.07-.02.1-.02c0,.04.13.11.04.11,0-.04-.08-.05-.14-.09Z"/>
        <path class="cls-1" d="M51.4,51.76c.14.04.22.23.21.32l-.21-.32Z"/>
        <path class="cls-1" d="M52.14,51.22c.13-.03.2,0,.17.08-.08-.01-.11-.04-.17-.08Z"/>
        <path class="cls-1" d="M51.82,51.11c0-.06.1-.07.19-.08-.12-.02.05.15-.19.08Z"/>
        <path class="cls-1" d="M52.51,49.68s-.12-.14.05-.15c-.12.02.16.21-.05.15Z"/>
        <path class="cls-1" d="M52.37,48.93s.04-.03,0-.06c.07-.04.17.02.18.06h-.18Z"/>
        <polygon class="cls-1" points="45.66 38.3 45.75 38.26 45.7 38.39 45.66 38.3"/>
        <path class="cls-1" d="M40.83,41.71c.06.11-.15,0-.17.01.01-.07.16.09.17-.01Z"/>
        <polygon class="cls-1" points="41 44.85 41 44.83 41.3 44.83 41 44.85"/>
      </g>
      <g>
        <path class="cls-1" d="M29.58,65.97c-.1.12.17.2-.04.15-.03-.12-.04-.21.04-.15Z"/>
        <path class="cls-1" d="M29.99,65.96c-.83-.31-.18-1.06-.75-1.48-.04-.05.42-.05.29-.17-.7-.4-.39-1.25.02-1.87l.12.03c.08-.12-.32-.23-.28-.35.08,0,.11.03.22,0-.24-.02-.13-.21-.31-.25.09-.05.28-.05.37-.12l-.27-.06c-.66-.17.01-.47-.3-.72.06.01.11.04.17.02-.37-.42-.28-.96-.4-1.45.09.03.27.06.37.04-.28-.05-.35-.2-.39-.34.3-.02-.23-.25-.04-.39l.06.02c-.28-.16.2-.14-.14-.29l.24-.03c-.4-.12.24-.13.05-.25h-.08c-.08-.12.13-.12.07-.22h.05c-.07-.21.17-.27-.14-.34.26,0,.08.21.46.19-.24-.69.12-1.28.29-1.89.14-.02.2-.04.32,0-.03-.08.06-.23-.06-.35,0,.02.17.04.2.02.16-.04-.25-.27-.07-.32.05.09.13.15.25.19-.17-.21-.07-.32-.08-.47.04.05.05.09.14.13-.18-.27.17-.19.07-.39l.13.14c.28-.04-.3-.26-.09-.33.02.07.09.09.15.14-.18-.31.07-.46.08-.65.01.02.05.05.05.05.08-.17.27-.24.28-.49.11,0,.31.31.39.15-.27-.25.12-.32-.26-.54.17-.07.44-.13.44-.3.04.15.35.29.28.4l.22.11c.09.13-.1.02.04.15.03-.05.07-.28.15-.27-.06-.26-.21-.65-.07-.8,0,.17.28.31.26.39-.06-.24-.12-.49-.17-.74.05-.05.17.24.2.1-.06-.08-.05-.16-.07-.24.04.02.2-.24.4.06.09.11-.05.13.07.2.1-.06.05-.17.16-.23l.02.04c.1.01.14-.24-.03-.38-.06.01.12.19,0,.13-.04-.21.07-.33.18-.39-.01.07.03.16.06.26.03-.33.16-.5.3-.69-.06-.16.05.32-.01.24.31.14.37-.49.68-.23-.02.04-.09-.23-.08-.18.12-.02.19.22.24.11.05.14.08-.08.14-.14.01-.11.04.06-.02.1.07-.15.47-.47.76-.32-.03-.1.09-.39.16-.38v.23c.08.13.23-.05.28.14.08-.15-.12-.06-.2.02-.1.08-.2.18-.13.05.08.18.18-.39.19-.08.13-.03.29-.31.45-.12-.05-.03-.11.33,0,.3.2-.06.06-.12.23-.21l.12-.1c.03-.22.2.02.14-.22,0,.18.36-.13.26.25l-.09.29c.09-.03.22-.31.33-.44,0,.03.01.08,0,.13.15-.44.21.04.45-.3.07.08.2.08.31.11.07.11.12.23.07.4.16,0,.36-.02.4.21-.05,0-.08-.03-.15.05-.02.2.07.12.17.15-.06.04-.05.38-.11.58.17.02.33-.17.45-.26-.26.39.47.22.23.62-.08-.02-.29-.09-.33.08-.32.34.41.08.3.33l.31-.2c-.16.17.3.15-.04.29.14,0-.03.24.29.08-.16.38.45.6-.1.99.07.02.04.14.21.06.17-.13-.16-.05-.04-.11.02.03.12,0,.16,0-.05.11-.05.19-.36.2-.15.25.64.02.58.31-.15.03-.19.06-.15.13l.27.08c-.02.18-.31.17-.55.23.06.07.07.18.26.18l-.29.16c.21-.12.16.04.23.07l-.07-.03c-.1.03-.02.12.02.16.15-.04.19-.15.23-.21.12.03.1.1.24.14-.25.02-.14.17-.16.24-.04.09.23.06.23.09-.13.02-.01.14-.19.09-.04-.02.12-.08,0-.11-.09.07-.31.08-.14.18.13.07.48-.07.33.11-.06-.04-.16-.04-.25-.06l-.12.16h.22c-.05.01-.07,0-.1.01.24.03.08.22.35.24.03.08-.15.17-.17.24h-.02c-.13.08-.03.19.12.27h-.05s.02.16.14.23c-.18.12-.84,0-.58.15,0,.12.39.22.54.18-.17.21.16.52-.2.68.09.05.14.04.19.11-.14.31.08.76-.41.91-.06-.12-.21-.07-.33-.1.17.13-.22.03.1.15.19.05.29.09.39.02.05.22-.03.53-.25.56.11-.02.15.04.19.1-.29-.13-.4-.01-.34.13l.17.09h-.22s.36.19.14.22c-.07-.03-.14-.05-.2-.05.1.17.27.43.07.48l-.3-.04c0,.06.12.22.23.17-.25.11-.32.23-.57.16.33.59.03,1.06-.24,1.38l-.11-.1c-.17.01.17.2.04.21-.09-.11-.29-.11-.38-.29-.21.03.08.32.07.45.14.13-.05-.15.13.02.05.06-.25.09-.05.28-.11-.04-.26-.2-.33-.29l.04.16c-.34-.14-.29-.58-.69-.76l-.02.09c-.29-.14-.12-.37-.34-.29.05.15.32.48.47.51-.07.19.47.51.3.65-.17-.07.09-.15-.12-.28-.24-.08-.04.23-.16.24.15,0,.31.26.3.34-.18-.01-.16-.24-.28-.15.11.13.1.32.27.31.24.3-.19.05-.04.31-.23-.15-.34-.54-.55-.51.21.16.11.4.44.6-.1,0-.25-.14-.33-.29-.18-.04.17.5-.21.16l.16.21c-.08-.04-.16-.05-.29-.12-.06.06.06.46-.21.16.01.06-.15.15.09.31.21.05-.04-.24.27-.01-.26-.16-.1.15-.09.27l-.11-.11c0,.07-.09.1,0,.25-.03-.09-.12-.15-.17-.16l.12.2c-.05.19-.3-.29-.38-.13l-.03-.21s-.18-.09-.19.02c.11.19.24.41.33.55-.01.13-.19-.16-.12.07l-.07-.27c-.03-.06-.29-.22-.38-.14-.01.1.09.42.26.43-.05.04-.19,0-.25-.16-.06.14.16.17.15.35-.13-.08-.37-.15-.57-.25l-.13-.36-.06.05c-.1-.29-.17-.14-.32-.41-.07,0-.06.12-.05.21.42.29.26.64.56.96-.11.24-.75-.78-.52-.08.1.07.21.41.24.22-.14.05.19.42-.05.37,0-.21-.36-.3-.37-.6.08.13.14.03.14-.02-.14-.1-.25-.37-.36-.28-.04.08-.14.15,0,.33.15.21.09-.09.19.15-.09.16-.33-.14-.14.27.07-.08.24.11.34.26l-.05.15-.07-.15c-.24,0,.12.28-.07.35l-.26-.23c-.12-.26.31-.04.02-.41-.12.05-.02.27-.19.23,0-.05.02-.08.02-.12-.05.01-.42-.48-.37-.09,0,.17.07.15.16.3-.14.15-.1.33-.19.42-.16-.3-.21.09-.27-.28.16.13.4-.04.28-.35-.28-.3.16-.04-.03-.4-.14.08-.35-.26-.51-.47-.05,0-.02.12-.02.17.12.22.16.18.3.39-.18.04-.25.24-.21.49-.11-.07-.23-.29-.18-.35-.14.17-.34.26-.55.3.31.28-.14.2.1.44.13.02.36.22.4.4-.07.01-.09-.15-.15-.21.04.23-.29-.23-.19.11.1-.21-.21-.44-.34-.73-.03.22-.11-.2-.22-.13-.03.23-.11.42-.21.55-.31-.18-.43.21-.57.29-.15-.1-.26-.44-.37-.45-.1.06.25.3.03.23l-.02-.07c0,.1-.38-.08-.19.39l-.13-.37s-.03.07-.03.12c-.06-.11-.14-.2-.13-.29-.21-.19-.17.13-.26.19l.16.17c-.09.24-.3.1-.43.25l-.09-.2-.04.17c-.07-.21-.21-.29-.19-.1l.02-.61c.12.08.04.28.17.46.12.15.24.03.17-.18-.07,0-.05.05-.06.15-.15-.27-.06-.3-.11-.51-.02.03-.11-.04-.07.05,0-.16.04-.21.13-.27-.01.14.12.15.13.25-.11-.25-.06-.37.09-.36.22.24.13-.29.31-.28.07.27.1.5.06.65.15.08.09-.05.24.03-.05-.2-.16-.5-.11-.67l.1.18c.05-.14-.09-.41.07-.42.27-.02.5-.13.67-.2l.1.17c-.12-.43.22-.32.24-.56.3.04.33-.44.62-.21.27-.36.5-.67.9-.84l.11.28c-.06-.22.14.11.17.02-.21-.14-.1-.31-.16-.49.28.07.33-.29.32-.55l.13.15c-.11-.4.26-.26.46-.35.07.05.23.17.26.11-.13-.32-.06-.34-.07-.59.09-.08.27-.16.44-.16-.03-.65.52-.75.58-1.28l.21.12c-.18-.66.52-.8.47-1.25l.34.23c.16-.04.01-.29-.26-.39.16-.04-.07-.33.27-.25.12-.07-.11-.2-.13-.3.25-.13.24-.23.21-.45l-.04.04c.08.05.24.11.28.06-.09-.11.18-.25-.31-.31.32-.14-.06-.51.31-.65-.13,0-.15-.06-.24-.09,0-.17.3-.35.09-.5.07-.03.22.06.24-.02-.05-.05-.17,0-.24-.07-.24-.28.22-.6.16-.88-.17-.23-.25-.46-.3-.7-.07-.24-.13-.48-.22-.7l.09-.03c-.4-.01.2-.5-.36-.4.07-.07-.02-.15.16-.21-.14,0-.13-.11-.13-.22.02-.07.05-.11-.1-.04,0,.01.01,0,.05-.02.14-.2-.12-.04-.02-.26.03-.03.06-.04.13-.12.1-.2-.31.3-.03-.15-.02-.02-.15.21-.14.21,0-.05,0-.1-.03-.13-.16-.03-.4.21-.44.31-.28-.24-.13-.79-.31-.4-.04-.08.02.18,0,.09-.07.15-.27-.48-.29-.22.09.28-.01.17.03.34-.24-.13-.36-.38-.46-.12l-.03-.15c-.06.48-.34.33-.32.84-.91.44-1.46,1.2-1.97,1.87-.15.15-.28.32-.42.48l-.29.59c-.24.36-.33.85-.63,1.25-.47.11-.45.14-.34.44-.06-.02-.07-.04-.14-.04.32.08,0,.2.3.28-.12.37-.12.72-.15,1.11-.03-.07-.3-.13-.28-.05l.21.1h-.09c.05.06.21.13.31.09.13.52.01,1-.13,1.51-.08.52-.18,1.06-.1,1.58-.11.26.01.6.14.87-.29.86-.5,1.69-.05,2.46,0,0-.85.08-1.1-.24Z"/>
        <path class="cls-1" d="M29.72,65.87c.09.14.22.17.24.41-.07-.14-.19-.27-.24-.41Z"/>
        <path class="cls-1" d="M32.93,66.13s.07.04.09.06c-.02.03.02.17-.05.11.02-.03-.02-.09-.04-.16Z"/>
        <path class="cls-1" d="M33.6,65.83c.07.13,0,.31-.08.38l.08-.38Z"/>
        <path class="cls-1" d="M34.5,65.97c.12.07.14.14.07.18-.05-.06-.05-.11-.07-.18Z"/>
        <path class="cls-1" d="M34.36,65.67s.12.02.19.08c-.07-.1-.07.14-.19-.08Z"/>
        <path class="cls-1" d="M35.86,65.15s.01-.18.14-.07c-.1-.07-.03.26-.14.07Z"/>
        <path class="cls-1" d="M36.29,64.52s.05,0,.04-.04c.08.02.11.13.09.17l-.13-.13Z"/>
        <polygon class="cls-1" points="39.05 52.26 39.15 52.29 39.02 52.35 39.05 52.26"/>
        <path class="cls-1" d="M33.23,51.25c-.03.12-.11-.1-.13-.11.06-.05.05.18.13.11Z"/>
        <polygon class="cls-1" points="31.13 53.59 31.15 53.57 31.36 53.79 31.13 53.59"/>
      </g>
      <g>
        <path class="cls-1" d="M21.53,36.08c-.12-.1-.2.17-.15-.04.12-.03.21-.04.15.04Z"/>
        <path class="cls-1" d="M21.54,36.5c.31-.83,1.06-.18,1.48-.75.05-.04.05.42.17.29.4-.7,1.25-.39,1.87.02l-.03.12c.12.08.23-.32.35-.28,0,.08-.03.11,0,.22.02-.24.21-.13.25-.31.05.09.05.28.12.37l.06-.27c.17-.66.47.01.72-.3-.01.06-.04.11-.02.17.42-.37.96-.28,1.45-.4-.03.09-.06.27-.04.37.05-.28.2-.35.34-.39.02.3.25-.23.39-.04l-.02.06c.16-.28.14.2.29-.14l.03.24c.12-.4.13.24.25.05v-.08c.12-.08.13.13.22.07v.05c.21-.07.27.17.34-.14,0,.26-.21.08-.19.46.69-.24,1.28.12,1.89.29.02.14.04.2,0,.32.08-.03.23.06.35-.06-.02,0-.04.17-.02.2.04.16.27-.25.32-.07-.09.05-.15.13-.19.25.21-.17.32-.07.47-.08-.05.04-.09.05-.13.14.27-.18.19.17.39.07l-.14.13c.04.28.26-.3.33-.09-.07.02-.09.09-.14.15.31-.18.46.07.65.08-.02.01-.05.05-.05.05.17.08.24.27.49.28,0,.11-.31.31-.15.39.25-.27.32.12.54-.26.07.17.13.44.3.44-.15.04-.29.35-.4.28l-.11.22c-.13.09-.02-.1-.15.04.05.03.28.07.27.15.26-.06.65-.21.8-.07-.17,0-.31.28-.39.26.24-.06.49-.12.74-.17.05.05-.24.17-.1.2.08-.06.16-.05.24-.07-.02.04.24.2-.06.4-.11.09-.13-.05-.2.07.06.1.17.05.23.16l-.04.02c-.01.1.24.14.38-.03-.01-.06-.19.12-.13,0,.21-.04.33.07.39.18-.07-.01-.16.03-.26.06.33.03.5.16.69.3.16-.06-.32.05-.24-.01-.14.31.49.37.23.68-.04-.02.23-.09.18-.08.02.12-.22.19-.11.24-.14.05.08.08.14.15.11.01-.06.04-.1-.02.15.07.47.47.32.76.1-.03.38.09.38.16h-.23c-.13.08.05.23-.14.28.15.08.06-.12-.02-.2-.08-.1-.18-.2-.05-.13-.18.08.39.18.08.19.03.13.31.29.12.45.03-.05-.33-.11-.3,0,.06.2.12.06.21.23l.1.12c.22.03-.02.2.22.14-.18,0,.12.36-.25.26l-.29-.09c.03.09.31.22.44.33-.03,0-.08.01-.13,0,.44.15-.04.21.3.45-.08.07-.08.2-.11.31-.11.07-.23.12-.4.07,0,.16.02.36-.21.4,0-.05.03-.08-.05-.15-.2-.02-.12.07-.15.17-.04-.06-.38-.05-.58-.11-.02.17.17.33.26.45-.39-.26-.22.47-.62.23.02-.08.09-.29-.08-.33-.34-.32-.08.41-.33.3l.2.31c-.17-.16-.15.3-.29-.04,0,.14-.24-.03-.08.29-.38-.16-.6.45-.99-.1-.02.07-.14.04-.06.21.13.17.05-.16.11-.04-.03.02,0,.12,0,.16-.11-.05-.19-.05-.2-.36-.25-.15-.02.64-.31.58-.03-.15-.06-.19-.13-.15l-.08.27c-.18-.02-.17-.31-.23-.55-.07.06-.18.07-.18.26l-.16-.29c.12.21-.04.16-.07.23l.03-.07c-.03-.1-.12-.02-.16.02.04.15.15.19.21.23-.03.12-.1.1-.14.24-.02-.24-.17-.14-.24-.16-.09-.04-.06.23-.09.23-.02-.13-.14-.01-.09-.19.02-.04.08.12.11,0-.07-.09-.09-.31-.18-.14-.07.13.07.48-.11.33.04-.06.04-.16.06-.25l-.16-.12v.22c-.01-.06,0-.07-.01-.1-.03.24-.22.08-.24.35-.08.03-.17-.15-.24-.17v-.02c-.08-.13-.19-.03-.27.12v-.05s-.16.02-.23.14c-.12-.18,0-.84-.15-.58-.12,0-.22.39-.18.54-.21-.17-.52.16-.68-.2-.05.09-.04.14-.11.19-.31-.14-.76.08-.91-.41.12-.06.07-.21.1-.33-.13.17-.03-.22-.15.1-.05.19-.09.29-.02.39-.22.05-.53-.03-.56-.25.02.11-.04.15-.1.19.13-.29.01-.4-.13-.34l-.09.17v-.22s-.19.36-.22.14c.03-.07.05-.14.05-.2-.17.1-.43.27-.48.07l.04-.3c-.06,0-.22.12-.17.23-.11-.25-.23-.32-.16-.57-.59.33-1.06.03-1.38-.24l.1-.11c-.01-.17-.2.17-.21.04.11-.09.11-.29.29-.38-.03-.21-.32.08-.45.07-.13.14.15-.05-.02.13-.06.05-.09-.25-.28-.05.04-.11.2-.26.29-.33l-.16.04c.14-.34.58-.29.76-.69l-.09-.02c.14-.29.37-.12.29-.34-.15.05-.48.32-.51.47-.19-.07-.51.47-.65.3.07-.17.15.09.28-.12.08-.24-.23-.04-.24-.16,0,.15-.26.31-.34.3.01-.18.24-.16.14-.28-.13.11-.32.1-.31.27-.3.24-.05-.19-.31-.04.15-.23.54-.34.51-.55-.16.21-.4.11-.6.44,0-.1.14-.25.29-.33.04-.18-.5.17-.16-.21l-.21.16c.04-.08.05-.16.12-.29-.06-.06-.46.06-.16-.21-.06.01-.15-.15-.31.09-.05.21.24-.04.01.27.16-.26-.15-.1-.27-.09l.11-.11c-.07,0-.1-.09-.25,0,.09-.03.15-.12.16-.17l-.2.12c-.19-.05.29-.3.13-.38l.21-.03s.09-.18-.02-.19c-.19.11-.41.24-.55.33-.13-.01.16-.19-.07-.12l.27-.07c.06-.03.22-.29.14-.38-.1-.01-.42.09-.43.26-.04-.05,0-.19.16-.25-.14-.06-.17.16-.35.15.08-.13.15-.37.25-.57l.36-.13-.05-.06c.29-.1.14-.17.41-.32,0-.07-.12-.06-.21-.05-.29.42-.64.26-.96.56-.24-.11.78-.75.08-.52-.07.1-.41.21-.22.24-.04-.14-.42.19-.37-.05.21,0,.3-.36.6-.37-.13.08-.03.14.02.14.1-.14.37-.25.28-.36-.08-.04-.15-.14-.33,0-.21.15.09.09-.15.19-.16-.09.14-.33-.27-.14.08.07-.12.24-.26.34l-.15-.05.15-.07c0-.24-.28.12-.35-.07l.23-.26c.26-.12.04.31.41.02-.05-.12-.27-.02-.23-.19.05,0,.08.02.12.02-.01-.05.48-.42.09-.37-.17,0-.15.07-.3.16-.15-.14-.33-.1-.42-.19.3-.16-.09-.21.28-.27-.13.16.04.4.35.28.3-.28.04.16.4-.03-.08-.14.26-.35.47-.51,0-.05-.12-.02-.17-.02-.22.12-.18.16-.39.3-.04-.18-.24-.25-.49-.21.07-.11.29-.23.35-.18-.17-.14-.26-.34-.3-.55-.28.31-.2-.14-.44.1-.02.14-.22.36-.4.4-.01-.07.15-.09.21-.15-.23.04.23-.29-.11-.19.21.1.44-.21.73-.34-.22-.03.2-.11.13-.22-.23-.03-.42-.11-.54-.21.18-.31-.21-.43-.29-.57.1-.15.44-.26.45-.37-.06-.1-.3.25-.23.03l.07-.02c-.1,0,.08-.38-.39-.19l.37-.13s-.07-.03-.12-.03c.11-.06.2-.14.29-.13.19-.21-.13-.17-.19-.26l-.17.16c-.24-.09-.1-.3-.25-.43l.2-.09-.17-.04c.21-.07.29-.21.1-.19l.62.02c-.08.12-.28.04-.46.17-.15.12-.03.24.18.17,0-.07-.05-.05-.15-.06.27-.15.3-.06.51-.11-.03-.02.04-.11-.05-.07.16,0,.21.04.27.13-.14-.01-.15.12-.25.13.25-.11.37-.06.36.09-.24.22.29.13.28.31-.27.07-.5.1-.65.06-.08.15.05.09-.03.24.2-.05.5-.16.67-.11l-.18.1c.14.05.41-.09.42.07.02.27.13.5.2.67l-.17.1c.43-.12.32.22.56.24-.04.3.44.33.21.62.36.27.67.5.84.9l-.28.11c.22-.06-.11.14-.02.17.14-.21.31-.1.49-.16-.07.28.29.33.55.32l-.15.13c.4-.11.26.26.35.46-.05.07-.17.23-.11.26.32-.13.34-.06.59-.07.08.09.16.27.16.44.65-.03.75.52,1.28.58l-.12.21c.66-.18.8.52,1.25.47l-.23.34c.04.16.29.01.39-.26.04.16.33-.07.25.27.07.12.2-.11.3-.13.13.25.23.24.45.21l-.04-.04c-.05.08-.11.24-.06.28.11-.09.25.18.31-.31.14.32.51-.06.65.31,0-.13.06-.15.09-.24.17,0,.35.3.5.09.03.07-.06.22.02.24.05-.05,0-.17.07-.24.28-.24.6.22.88.16.23-.17.46-.25.71-.3.24-.07.48-.13.7-.22l.03.09c.01-.4.5.2.4-.36.07.07.15-.02.21.16,0-.14.11-.13.22-.13.07.02.11.05.04-.1-.01,0,0,.01.02.05.2.14.04-.12.26-.02.03.03.04.06.12.13.2.1-.3-.31.15-.03.02-.02-.21-.15-.21-.14.05,0,.1,0,.13-.03.03-.16-.21-.4-.31-.44.24-.28.79-.13.4-.31.08-.04-.18.02-.09,0-.15-.07.48-.27.22-.29-.28.09-.17-.01-.34.03.13-.24.38-.36.12-.46l.15-.03c-.48-.06-.33-.34-.84-.32-.44-.91-1.2-1.46-1.87-1.97-.15-.15-.32-.28-.48-.42l-.59-.29c-.36-.24-.85-.33-1.25-.63-.11-.47-.14-.45-.44-.34.02-.06.04-.07.04-.14-.08.32-.2,0-.28.3-.37-.12-.72-.12-1.11-.15.07-.03.13-.3.05-.28l-.1.21v-.09c-.06.05-.13.21-.09.31-.52.13-1,.01-1.51-.13-.52-.08-1.06-.18-1.58-.1-.26-.11-.6.01-.87.14-.86-.29-1.69-.5-2.46-.05,0,0-.08-.85.24-1.1Z"/>
        <path class="cls-1" d="M21.63,36.22c-.14.09-.17.22-.41.24.14-.07.27-.19.41-.24Z"/>
        <path class="cls-1" d="M21.37,39.43s-.04.07-.06.09c-.03-.02-.17.02-.11-.05.03.02.09-.02.16-.04Z"/>
        <path class="cls-1" d="M21.67,40.1c-.13.07-.31,0-.38-.08l.38.08Z"/>
        <path class="cls-1" d="M21.53,41.01c-.07.12-.14.14-.18.07.06-.05.11-.05.18-.07Z"/>
        <path class="cls-1" d="M21.83,40.87s-.02.12-.08.19c.1-.07-.14-.07.08-.19Z"/>
        <path class="cls-1" d="M22.35,42.36s.18.01.07.14c.07-.1-.26-.03-.07-.14Z"/>
        <path class="cls-1" d="M22.98,42.79s0,.05.04.04c-.02.08-.13.11-.17.09l.13-.13Z"/>
        <polygon class="cls-1" points="35.24 45.56 35.21 45.66 35.15 45.52 35.24 45.56"/>
        <path class="cls-1" d="M36.25,39.74c-.12-.03.1-.11.11-.13.05.06-.17.05-.11.13Z"/>
        <polygon class="cls-1" points="33.91 37.64 33.93 37.65 33.71 37.86 33.91 37.64"/>
      </g>
      <g>
        <path class="cls-1" d="M46.2,26.85c.16-.02.02-.26.13-.08-.06.1-.12.18-.13.08Z"/>
        <path class="cls-1" d="M45.89,26.56c.37.81-.62.88-.52,1.58,0,.07-.33-.26-.32-.09.22.78-.61,1.16-1.33,1.31l-.07-.1c-.14.03.07.39-.05.45-.06-.05-.06-.1-.16-.15.16.18-.06.24.04.4-.1-.03-.23-.16-.35-.18l.15.23c.35.59-.34.32-.3.72-.03-.05-.05-.1-.11-.13-.04.56-.48.88-.74,1.31-.05-.09-.15-.23-.23-.29.16.23.11.39.04.52-.23-.19-.02.34-.24.3l-.03-.06c.09.31-.24-.04-.1.3l-.19-.14c.2.36-.26-.08-.21.14l.05.07c-.02.13-.17-.01-.2.09l-.03-.04c-.1.2-.31.07-.14.34-.19-.18.09-.2-.2-.46-.32.65-.99.82-1.54,1.13-.11-.08-.17-.11-.23-.22-.04.08-.2.12-.2.29.02-.01-.09-.14-.13-.15-.14-.08-.01.37-.18.27.02-.1,0-.2-.04-.31-.03.27-.18.27-.28.39,0-.06.03-.1,0-.19-.06.31-.25.01-.33.22v-.19c-.22-.17.03.39-.17.29.03-.06,0-.13,0-.21-.09.35-.37.27-.52.4,0-.03,0-.08,0-.08-.17.06-.36-.02-.54.15-.07-.08,0-.44-.17-.38.01.37-.31.14-.2.56-.17-.07-.41-.22-.53-.1.08-.14-.04-.46.09-.48l-.08-.23c.03-.15.09.06.08-.14-.06.01-.25.15-.3.09-.14.23-.31.61-.52.62.12-.12.02-.41.09-.46-.13.22-.26.43-.41.64-.07,0,.05-.29-.07-.21-.02.1-.07.15-.12.22-.01-.05-.31.03-.24-.33.01-.14.13-.05.09-.19-.12-.03-.16.08-.27.05v-.05c-.05-.08-.26.07-.24.29.05.03.05-.22.1-.09-.12.18-.28.19-.41.15.06-.04.09-.13.14-.23-.26.21-.47.24-.7.27-.07.16.19-.26.18-.16-.12-.32-.61.08-.64-.32.04-.01-.1.23-.08.18-.1-.07.02-.29-.09-.25.07-.14-.11,0-.2,0-.09.07.02-.07.09-.05-.15.06-.66,0-.77-.31-.05.09-.34.21-.38.16l.15-.17c.05-.14-.19-.11-.09-.28-.16.05.04.13.15.13.13.02.26.02.13.06.08-.18-.4.15-.19-.08-.11-.07-.43.01-.4-.24.01.06.32-.16.21-.22-.19-.1-.12.04-.31-.01h-.15c-.18.12-.12-.17-.26.04.13-.13-.34-.17,0-.36l.27-.14c-.08-.04-.37.07-.55.08.02-.02.05-.07.1-.09-.42.2-.12-.18-.53-.11,0-.11-.08-.2-.14-.29.03-.13.08-.25.23-.33-.12-.11-.27-.24-.14-.43.04.03.04.08.14.07.15-.13.04-.13-.02-.23.06.01.31-.24.49-.33-.11-.14-.36-.11-.5-.13.46-.09-.17-.49.28-.6.04.07.14.27.29.17.46-.02-.23-.35.02-.45l-.36-.08c.23,0-.11-.32.23-.18-.1-.1.19-.15-.15-.26.38-.16.11-.75.77-.62-.03-.06.07-.13-.11-.19-.21-.03.08.15-.05.11,0-.04-.08-.09-.12-.11.11-.05.17-.09.39.11.28-.07-.44-.46-.2-.63.12.08.18.09.19.02l-.14-.25c.14-.11.34.1.55.22.01-.09.08-.17-.05-.31l.32.09c-.23-.06-.08-.14-.11-.21l.03.07c.1.05.1-.07.1-.13-.13-.08-.24-.03-.31,0-.06-.1,0-.14-.07-.27.19.16.22-.02.28-.06.09-.03-.12-.21-.1-.22.1.08.11-.09.2.07.01.05-.14-.03-.08.08.11.02.28.16.22-.02-.04-.14-.39-.29-.16-.31.02.07.09.14.13.22l.2-.03-.17-.15c.06.02.06.04.09.06-.15-.19.1-.22-.08-.42.04-.07.22-.02.29-.05v.02c.16.02.17-.12.12-.28l.03.04s.1-.13.06-.26c.21.04.6.59.51.3.09-.08-.12-.43-.25-.51.27-.03.25-.48.62-.34-.03-.09-.08-.13-.05-.21.32-.12.48-.6.93-.35-.04.13.1.2.16.31-.03-.21.18.14.04-.18-.1-.17-.14-.26-.26-.29.13-.19.4-.36.58-.22-.09-.07-.08-.14-.06-.21.12.3.27.29.33.15l-.06-.19.14.16c.02-.07-.11-.4.07-.26.03.07.07.14.11.18.05-.19.11-.5.29-.39l.19.24s.07-.24-.04-.29c.25.09.39.07.51.29.19-.65.73-.78,1.15-.81v.15c.14.12.03-.26.12-.18-.02.14.12.29.06.47.17.13.17-.29.27-.37,0-.19-.07.14-.08-.11.01-.08.24.12.23-.17.05.11.04.33.03.44l.08-.14c.14.34-.2.61-.04,1.03l.08-.05c.1.3-.18.35.03.45.07-.14.12-.57.02-.69.18-.09.03-.69.25-.68.07.17-.17.05-.11.28.11.23.19-.14.28-.06-.1-.11-.04-.4.03-.46.12.13-.06.28.1.3.02-.17.16-.3.03-.41.04-.38.17.1.25-.2.05.27-.15.62.03.75-.03-.26.2-.36.11-.74.07.07.08.28.03.44.09.16.23-.48.26.03l.04-.26c.03.09.07.15.12.29.08,0,.28-.36.26.04.03-.05.21,0,.16-.29-.11-.18-.14.19-.2-.18.08.3.17-.04.25-.13v.15c.05-.06.14-.01.17-.18-.04.08-.03.19,0,.23l.06-.23c.17-.1.01.42.18.36l-.13.17s.07.19.15.12c.05-.21.12-.46.16-.62.1-.08.02.24.13.04l-.14.24c-.02.07.05.36.17.37.08-.07.23-.36.12-.49.06,0,.13.14.07.29.14-.06,0-.23.14-.35.03.15.16.37.22.58l-.16.34h.08c-.14.29.02.24-.07.53.05.05.12-.04.18-.11-.09-.5.26-.64.28-1.08.24-.09-.02,1.08.31.42-.02-.12.14-.44-.02-.33.13.07.17-.43.3-.22-.15.15.05.47-.16.69.04-.14-.08-.12-.11-.08.03.17-.08.44.05.45.09-.02.2,0,.22-.24.04-.25-.13,0-.03-.24.18-.05.14.33.29-.09-.11.01-.09-.25-.06-.42l.14-.08-.05.16c.17.16.11-.29.3-.2l.02.35c-.1.27-.25-.19-.3.28.12.05.2-.18.29-.03-.03.03-.07.04-.1.07.04.03-.04.64.2.32.12-.12.06-.16.1-.33.21,0,.3-.17.44-.16-.1.33.22.08,0,.39-.02-.21-.31-.26-.44.05-.01.41-.14-.09-.26.3.15.04.06.43.03.69.04.03.1-.07.13-.1.07-.24.01-.24.06-.49.16.1.35,0,.5-.2.03.13-.05.36-.12.37.22-.02.43.06.6.17-.02-.41.24-.04.24-.38-.08-.11-.1-.41,0-.57.06.04-.05.17-.04.26.14-.19.04.37.21.05-.22.08-.16.46-.28.76.18-.14-.06.21.07.24.18-.14.37-.22.53-.24.09.34.45.16.61.2.04.18-.13.5-.06.59.11.03.04-.39.14-.18l-.04.06c.07-.06.21.32.41-.14l-.17.35s.07-.03.11-.06c-.04.12-.04.24-.11.3,0,.28.21.03.32.05v-.24c.24-.11.29.14.49.13l-.08.21.15-.09c-.1.19-.05.35.06.2l-.45.42c-.03-.15.17-.23.2-.45.03-.19-.15-.19-.25,0,.05.04.07,0,.14-.06-.08.3-.17.26-.28.43.04,0,.05.1.09.01-.11.12-.18.12-.28.1.11-.09.03-.19.08-.27-.1.25-.22.3-.32.19.01-.33-.3.11-.41-.02.14-.24.29-.43.41-.5-.05-.16-.1-.03-.15-.19-.11.18-.24.47-.39.55l.05-.2c-.14.06-.23.35-.35.25-.2-.17-.44-.26-.62-.34l.05-.2c-.22.39-.38.08-.57.23-.18-.24-.54.07-.58-.29-.44.06-.82.12-1.23-.04l.12-.28c-.11.2-.02-.17-.1-.14.05.24-.15.29-.23.46-.15-.25-.43-.03-.62.16l.02-.2c-.21.36-.37,0-.57-.08-.02-.09-.04-.28-.11-.27-.14.31-.19.28-.37.47-.12,0-.3-.07-.42-.2-.44.48-.9.17-1.31.49l-.06-.23c-.34.59-.94.2-1.21.55l-.08-.4c-.14-.08-.21.19-.1.46-.14-.08-.18.28-.36-.01-.13-.03-.06.22-.12.3-.27-.08-.33-.01-.47.17h.05c-.02-.09-.1-.25-.15-.25-.01.14-.3.05,0,.43-.32-.12-.32.4-.68.24.09.1.07.15.1.24-.13.12-.46.03-.42.29-.07-.03-.11-.2-.18-.16,0,.07.12.13.12.22-.03.37-.58.27-.74.51-.04.28-.15.51-.29.71-.12.21-.24.44-.34.65l-.09-.05c.27.29-.5.21-.03.54-.1,0-.1.12-.26.03.1.1.01.17-.07.25-.07.03-.11.04.04.1.01,0,0,0-.05-.02-.24.05.06.12-.17.2-.04,0-.07-.01-.18,0-.21.08.43,0-.08.12,0,.02.25-.04.24-.05-.04.04-.06.08-.07.11.09.13.43.13.53.09.02.37-.47.64-.06.5-.03.09.11-.14.06-.06.16-.06-.15.53.05.36.13-.26.13-.11.22-.26.08.27-.02.53.24.41l-.08.13c.38-.29.48.01.82-.37.96.33,1.88.18,2.71.07.21,0,.43-.03.64-.05l.63-.21c.43-.09.83-.37,1.33-.44.41.26.42.22.56-.07.03.06.02.08.07.12-.16-.28.14-.14-.01-.41.34-.18.59-.42.89-.68-.02.07.12.3.16.23l-.07-.22.07.06c0-.07-.05-.24-.16-.28.28-.45.7-.72,1.16-.98.43-.31.87-.62,1.19-1.04.26-.11.42-.44.51-.72.82-.41,1.55-.84,1.78-1.7,0,0,.65.54.61.95Z"/>
        <path class="cls-1" d="M46.02,26.82c.03-.16-.04-.28.12-.46-.04.15-.06.33-.12.46Z"/>
        <path class="cls-1" d="M43.94,24.36s-.02-.07-.02-.1c.04,0,.11-.13.11-.04-.04,0-.05.08-.09.14Z"/>
        <path class="cls-1" d="M43.26,24.1c.04-.14.23-.22.32-.21l-.32.21Z"/>
        <path class="cls-1" d="M42.72,23.36c-.03-.13,0-.2.08-.17-.01.08-.04.11-.08.17Z"/>
        <path class="cls-1" d="M42.6,23.68c-.06,0-.07-.1-.08-.19-.02.12.15-.05.08.19Z"/>
        <path class="cls-1" d="M41.17,22.99s-.14.12-.15-.05c.02.12.21-.16.15.05Z"/>
        <path class="cls-1" d="M40.43,23.13s-.03-.04-.06,0c-.04-.07.02-.17.06-.18v.18Z"/>
        <polygon class="cls-1" points="29.8 29.84 29.75 29.75 29.89 29.8 29.8 29.84"/>
        <path class="cls-1" d="M33.21,34.67c.11-.06,0,.15.01.17-.07-.01.09-.16-.01-.17Z"/>
        <polygon class="cls-1" points="36.35 34.5 36.32 34.5 36.32 34.2 36.35 34.5"/>
      </g>
    </g>
  </g>
</svg>