<?xml version="1.0" encoding="UTF-8"?>
<svg id="Layer_3" data-name="Layer 3" xmlns="http://www.w3.org/2000/svg" viewBox="0 0 95 95">
  <defs>
    <style>
      .cls-1 {
        fill: #202020;
      }
    </style>
  </defs>
  <g>
    <path class="cls-1" d="M88.21,48.11c-.09-.94-.54.5-.2-.61.23.13.4.31.2.61Z"/>
    <path class="cls-1" d="M87.75,44.41c-.21-.36-.36-.73-.51-1.12-.16-.38-.29-.78-.4-1.18-.21-.81-.32-1.66-.42-2.53-.16-.85-.34-1.72-.57-2.56-.12-.42-.25-.83-.4-1.22-.17-.39-.41-.74-.66-1.08-.19-.33.82-.18.34-.92-.27-.32-.53-.67-.77-1.05-.23-.38-.45-.79-.72-1.2-.49-.83-.93-1.75-1.32-2.72-.93-1.87-1.69-3.97-2.55-5.77l.33.05c-.33-.69-1.43-.98-1.89-1.6.11-.11.34.04.38-.23-.49.16-1.12-.91-1.6-.92-.07-.35.22-.59.1-1.03l-.69.04c-.85-.04-1.42-.51-1.93-1.13-.53-.6-1.03-1.35-1.9-1.62.14-.05.34-.02.31-.2-.67-.26-1.32-.57-1.97-.94-.66-.35-1.28-.79-1.98-1.12-1.37-.71-2.7-1.56-4.13-2.01.19-.12.45-.38.38-.65-.39.44-1.27.17-2.03-.07-.08-.73-1.46,0-2.2-.63l.12-.09c-.85.34-.84-.68-1.59-.18l-.27-.59c-.52.7-.84-.66-1.51-.4l-.03.17c-.57.06-.73-.41-1.25-.4l-.02-.1c-1.16-.11-1.75-.61-1.84.02-.31-.56,1.15-.06.67-.89-3.93-.08-7.82-.34-11.68-.02-.46-.2-.75-.23-.88-.46-.37.19-1.44.34-1.73.71.13-.03-.3-.28-.51-.29-.75-.12-.63.78-1.43.7.26-.24.32-.47.17-.68-.54.65-1.41.8-2.12,1.15.09-.13.25-.24.17-.43-.67.76-1.56.24-2.15.88l.15-.45c-1.29,0-.09.86-1.15.96.19-.2.06-.3.06-.46-.35.48-.9.81-1.47,1.08-.58.25-1.12.58-1.52.87.03-.07-.03-.16-.03-.16-.46.27-.95.47-1.45.7-.5.22-1,.5-1.41.94-.44.07-.33-.86-1.22-.15.42.62-1.46,1.24-.45,1.61-.22.09-.47.2-.73.31-.25.13-.5.28-.75.43-.49.3-.92.61-1.09.9.17-.48-.92-.44-.32-.97h-.76c-.11-.29.57-.29.18-.48-.31.28-1.09,1.19-1.43,1.35-.27.86-.2,1.95-1,2.8.21-.58-.8-.38-.61-.73-.09.72-.17,1.42-.17,2.17-.23.31-.48-.34-.72.21.16.11.09.38.09.61-.16.05-.93,1.3-1.61.96-.34-.06.31-.57-.18-.42-.49.54-.27.76-.71,1.34l-.09-.05c-.38.32-.6,1.32.04,1.14.22-.25-.43-.16.04-.43.14.53-.26,1.25-.68,1.82.05-.26-.13-.35-.24-.54-.12,1.09-.41,2.09-.77,3.09.29.19-.34-.66-.1-.7-.55.46-.81,1.14-.98,1.81-.17.67-.34,1.3-.9,1.66.02-.19.49.12.4.09-.32.56-.77.33-.78.79-.29-.08-.17.51-.21.97.12.29-.17.05-.07-.32.01.34-.08,1.12-.29,1.95-.22.83-.54,1.72-.89,2.35.19.03.48,1.02.38,1.32l-.41-.23c-.34.22-.23,1.05-.63,1.02.37.8.21-2.69.39-1.68-.43.14.38,1.44-.17,1.09-.14.64.18,1.34-.31,1.87.1-.16-.54-.64-.59-.11-.06.94.17.3.21,1.07l.11.49c.44.09-.18.8.36.53-.38.07.01,1.33-.69,1.17l-.57-.19c.01.41.57.72.81,1.05-.06.05-.18.14-.27.12.88.12-.12.95.54,1.45-.17.41-.21.93-.27,1.4-.01.47-.06.89-.33,1.09.3.64.65,1.19.5,1.93-.09-.14-.13-.33-.32-.36-.24.48,0,.58.16.98-.17-.08-.39.96-.63,1.52.36.6.8.31,1.1.33-.76.72.77,1.67.2,2.52-.19-.18-.63-.82-.74-.25-.71.77.93,1.01.75,2.02l.65-.41c-.33.52.74,1.21,0,1.32.3.23.11,1.12.75.81-.02.81.39,1.66.68,2.46.27.81.62,1.51.22,2.22.2.15.34.7.61.44.2-.5-.48-.34-.29-.58.11.17.3.12.4.1.06.5.18.87-.55.72.09,1.17,1.51.47,1.97,1.73-.29.09-.33.24-.08.55l.82.38c.35.8-.31.78-.72,1.07.32.36.6.88,1.05.82l-.17.82c.12-.6.48.14.71.24l-.23-.11c-.12.19.32.56.53.74.21-.24-.03-.76-.14-1.05.32.06.5.39.9.49-.45.21.18.82.36,1.15.17.41.65.08.71.19-.19.17.43.54-.06.52-.16-.06-.04-.4-.37-.44.04.33-.31.59.33.82.48.17.65-.72.98.1-.24-.08-.41.02-.65.01l.34.75.35-.28c-.01.15-.09.13-.1.2.5-.15.91.79,1.4.55.31.24.39.77.63,1.06l-.08-.02c.16.5.73.79,1.21.82l-.08.06c.16.19.64.55,1.04.54.29.63-.89,1.43.03,1.42.54.38,1.31-.04,1.27-.42.37.46.92.74,1.43,1.06.54.27,1.05.56,1.32,1.13.23-.07.21-.22.55-.13.67.52,1.48.87,2.27,1.16.78.32,1.46.7,1.89,1.4-.52-.04-.21.39-.3.63.52-.18.3.57.69,0,.12-.39.22-.54-.15-.88,1.01.16,2.42.66,2.82,1.22-.2-.27.04-.32.28-.35-.27.59.4.95,1.01.84l.19-.36.24.48c.24-.07.44-.73.88-.23,0,.15-.02.31.06.44.65-.19,1.52-.45,2.07-.06l.4.64c.28-.02.78-.29.34-.53.99.5,1.67.65,1.95,1.19,1.98-1.03,4.54-.92,6.65-1.03l-.04.3c.59.25.26-.53.67-.34-.16.29.49.58.06.95.86.29,1.01-.6,1.51-.8.03-.39-.39.31-.35-.19.07-.15,1.15.13,1.19-.47.23.2.14.64.07.89l.45-.35c.73.58-1.21,1.41-.45,2.14l.47-.16c.56.53-1.18.88.07.9.49-.37.79-1.26.29-1.45,1.04-.33.25-1.41,1.36-1.59.18.13-.03.21-.25.3-.23.07-.46.16-.31.38.63.41,1-.5,1.49-.44-.56-.08-.26-.77.04-.95.62.12-.23.63.57.48.05-.36.69-.78.02-.85.08-.8.86,0,1.11-.67.41.45-.45,1.39.49,1.43-.27-.43.83-1.02.15-1.59.36.02.53.4.39.78.57.13.81-1.3,1.31-.39l-.02-.55c.2.11.46.15.8.33.21-.07.47-.36.72-.53.24-.19.45-.28.59.09.09-.14,1.01-.54.43-.87-.69-.04-.47.68-1.08.14.63.37.76-.46.99-.79l.18.25c.14-.2.6-.35.57-.7-.06.23.1.38.29.37v-.51c.64-.57.55.65,1.23.16-.12.21-.26.4-.4.6.08-.14.57.16.84-.2-.07-.46-.08-1.06-.13-1.41.3-.4.42.31.59-.31l-.25.76c0,.17.7.4,1.25.05.28-.34.47-1.18-.19-1.05.26-.17.78-.18.74.22.53-.49-.33-.34.05-.87.37.11,1.21-.04,1.85,0l-.11.98.36-.26c-.13.81.49.18.58.86.3-.11.48-.5.63-.8-1.29-.24-.01-1.64-.77-2.18.78-.87,1.95,1.19,1.99-.68-.3-.04-.32-.93-.7-.24.6-.42-.23-.99.64-1.29-.22.69,1.12.19.79,1.2-.15-.26-.54.19-.59.35.45.04.54.71,1.12.18.29-.38.76-.83.37-1.09-.37-.35-.49.52-.62-.05.57-.73,1.21-.32.82-1.23-.33.48-.81.21-1.05-.05.12-.19.2-.42.3-.62l.16.33c.88-.62-.23-.65.51-1.34l.82.09c.26.56-1.19.93-.39,1.44.49-.48.29-.96.89-1.27-.04.16-.15.32-.18.48.18-.15,1.28.47,1.4-.73.1-.57-.17-.31-.43-.54.57-.94.48-1.41.85-2,.46.52.79-.95.9.08-.54.06-1.44,1.32-1.17,2.05.43.09.28.25.08.47-.22.21-.5.47-.27.82.63-.65,1.2-.12,1.69.09.18-.19.16-.52.19-.7-.32-.39-.51-.12-.92-.42.71-.73,1.08-1.67,1.01-2.38.4-.13.74.23.54.58.32-.51.61-1.06.94-1.58.33-.52.69-1.01,1.06-1.46-1.07.23.49-1.18-.35-1.07-.46.44-1.22.58-1.37.13.24-.29.3.18.53.14-.13-.6.99-.3.58-1.04-.23,1.08.77.65,1.24,1.12.03-.88.38.24.72-.48.04-.88.21-1.88.47-2.72.94-.81.97-2.63,1.29-3.54.43-.41,1.02.14,1.28-.38.15-.65-.86.27-.3-.6l.11.13c-.09-.33.92-1.66,0-2.16l.67.46c.11-.16-.01-.37-.06-.54.24.05.52-.12.6.21.71-.49.14-1.31.24-1.97l-.51.35c-.19-1.18.4-1.87.37-2.99l.44.08-.23-.68c.42.2.73-.39.39-.77.33.6.68,1.21.98,1.84-.32.46-.47-.59-.94-.32-.4.22-.45,1.24-.05,1.47.11-.39.02-.42-.1-.74.63-.06.52.54.88.9,0-.21.24-.49.05-.56.24.45.22.88.13,1.58-.17-.51-.42.19-.56-.01.53.14.59.84.31,1.67-.77.46-.01,1.67-.43,2.62-.43-.54-.73-1.15-.8-1.78-.42.53-.16.67-.58,1.2.32.39.88.77.91,1.64l-.4-.08c-.02.77.52.95.09,1.82-.38.74-.71,1.5-1.01,2.22-.36.69-.7,1.34-.99,1.9l-.38-.13c.24.5.06,1.06-.19,1.62-.25.56-.65,1.06-.72,1.57-.58.58-.95,1.37-1.3,2.06-.39.66-.8,1.21-1.32,1.33-.36.61-.71,1.2-1.05,1.78-.38.56-.79,1.08-1.2,1.61-.41.53-.84,1.05-1.3,1.57-.49.48-1.03.95-1.59,1.41l-.04-.76c-.09.67-.48-.02-.79.38.75-.04-.11.93-.16,1.45-1.28.5-2.34,1.84-3.04,2.9l-.27-.31c-.56,1.29-2.16,1.44-3.46,2.1-.22-.05-.64-.28-1.01-.05-.41.93-.81,1.07-1.7,1.95-.76.42-2.15.71-3.05.78-.68.47-1.39.94-2.16,1.22-.77.29-1.56.52-2.36.75l-1.21.33-1.23.23c-.82.16-1.65.36-2.47.62l-.29-.44c-.78.33-1.65.49-2.53.6-.88.09-1.79.21-2.68.1-1.78-.16-3.48-.23-4.91-.26l.37-.77c-.82-.38-1.99-.09-1.87.52-.42-.19-.98-.17-1.5-.22-.51-.08-.97-.2-1.16-.6-.84-.37-1.16.09-1.93,0-.85-.35-1.41-.63-1.99-.85-.57-.21-1.15-.36-1.99-.59l.38.19c.24-.1.38-.42,0-.62-.34,0-.87-.24-1.28-.38-.4-.15-.7-.14-.6.44-.72-.66-1.73-1.01-2.73-1.4-1-.38-1.92-.94-2.5-1.71,0,.31-.42.11-.68.17-.35-.21-.68-.45-1.01-.7-.3-.28-.6-.56-.89-.83-.59-.53-1.17-1-1.83-1.21-.12-.26.61-.11.1-.52-.37-.16-.23.27-.7.09-1.14-.69-2.05-1.69-2.88-2.69-.78-1.06-1.44-2.16-2.29-2.99-3.1-2.93-5.26-6.9-6.95-10.58l.2-.04c-1.22-.99-.39-3.24-1.84-3.89.06-.36-.24-1.22.18-1.09-.39-.45-.46-1.22-.56-2.04-.05-.41-.11-.83-.21-1.23-.09-.41-.2-.81-.43-1.16,0,.15.06.22.16.37.09-.82-.06-1.54-.22-2.27-.08-.37-.16-.74-.21-1.12-.04-.39,0-.79.06-1.21.09.16.17.46.37.49.34-.65-.9-1.45.02-1.85-.03-.36-.49-.24-.45-.02.02-1.81.13-3.66.08-5.56v-.71s.04-.71.04-.71l.09-1.43.1-1.44.06-.72.13-.7c1.22-2.5,1.58.22,1.43-2.01.22-.12-.32-.22-.12-.19-.02-.43.31-.67.6-.88.32-.2.6-.37.46-.71-.63.04-.18-.46-.5-.59.93-1.42,1.48-1.53,1.58-2.88l.24.21c-.07-.85.19-1.63.43-2.39.24-.76.43-1.52.36-2.31.53-.93,1.06-1.85,1.58-2.76.56-.89,1.19-1.74,1.78-2.61.57-.89,1.25-1.69,1.93-2.49.69-.79,1.3-1.65,2.08-2.36l2.24-2.21c.79-.69,1.62-1.33,2.44-1.99.8-.69,1.69-1.25,2.58-1.81.9-.55,1.75-1.19,2.72-1.62.95-.44,1.9-.88,2.84-1.32.96-.4,1.95-.73,2.92-1.1.49-.17.97-.37,1.47-.53l1.51-.4c1.01-.25,2-.57,3.03-.75l3.09-.48.77-.11.78-.04,1.57-.06c2.09-.15,4.19.11,6.29.34,1.88,1.03,1.98,1.06,4.17,1.06-.11.11-.25.12-.13.26.24-.66,1.49.26,1.82-.29,1.49.46,2.97.75,4.38,1.3.72.25,1.43.49,2.16.74.74.24,1.42.62,2.16.95-.49-.16-.94.22-.38.44l.75-.1v.21c.42.09.98,0,.69-.37.47.2.95.37,1.4.61l1.33.75c.87.53,1.77,1.01,2.57,1.63.8.62,1.59,1.25,2.36,1.9.4.31.76.65,1.11,1.02l1.06,1.07c1.45,1.38,2.62,3.02,3.89,4.52l1.7,2.42c.28.4.59.79.86,1.2l.78,1.25c.35.88,1,1.81,1.53,2.82.54,1.01,1.14,2.03,1.64,2.92.36,1.48.64,2.94.96,4.34.2,1.44.4,2.84.64,4.22.12,1.41.27,2.8.49,4.21.09,1.42.23,2.86.45,4.35,0,0-1.73-.79-2.24-3.09Z"/>
    <path class="cls-1" d="M88.22,49.24c-.34.19-.55.82-.96.29.31-.05.67-.37.96-.29Z"/>
    <path class="cls-1" d="M80.79,64.56c.08.06-.22.15-.29.17.06-.19-.1-.48.12-.55-.06.19.09.23.17.38Z"/>
    <path class="cls-1" d="M78.56,68.01c-.21-.22.04-1.08.28-1.54l-.28,1.54Z"/>
    <path class="cls-1" d="M75.37,70.33c-.39.09-.43-.06-.17-.4.14.07.12.24.17.4Z"/>
    <path class="cls-1" d="M75.72,70.96c-.21.24-.44.24-.67.24.2.15.36-.63.67-.24Z"/>
    <path class="cls-1" d="M69.29,75.91c-.14.13-.33.58-.66.42.3.06.52-.85.66-.42Z"/>
    <path class="cls-1" d="M66.47,78.39c-.11.05-.18.03-.26.17-.26,0-.17-.3-.02-.42l.29.25Z"/>
    <polygon class="cls-1" points="11.12 56.29 11.36 56.66 11.07 56.67 11.12 56.29"/>
    <path class="cls-1" d="M16.34,26.69c.07-.46.39-.08.47-.12-.2.32-.23-.32-.47.12Z"/>
    <polygon class="cls-1" points="27.62 14.07 27.51 14.14 27.24 13.61 27.62 14.07"/>
  </g>
  <g>
    <path class="cls-1" d="M18.49,14.5c-.31-.13-.26.47-.3.01.2-.13.37-.21.3-.01Z"/>
    <path class="cls-1" d="M75.4,74.84c-1.79.33-1.58-1.68-3.03-1.8-.13-.05.63-.55.28-.62-1.59.05-2.22-1.64-2.44-3.2l.22-.11c-.04-.3-.82.03-.92-.24.11-.11.22-.09.33-.28-.39.28-.48-.19-.81-.03.06-.2.34-.45.4-.69l-.49.26c-1.21.58-.63-.79-1.49-.74.11-.07.22-.09.28-.21-1.19-.12-1.86-1.04-2.77-1.58.17-.1.44-.31.56-.5-.44.35-.76.23-1.03.11.34-.49-.71.03-.69-.42l.11-.07c-.6.25.01-.49-.65-.13l.23-.42c-.67.49.07-.54-.36-.39l-.12.12c-.27,0-.04-.35-.26-.38l.06-.08c-.43-.14-.26-.62-.72-.17.27-.45.43.12.82-.55-1.38-.49-2.22-1.56-3.13-2.51.08-.29.07-.41.23-.6-.18,0-.43-.28-.75-.14.04.02.18-.29.15-.36,0-.34-.69.3-.66-.09.2-.04.37-.16.52-.35-.52.18-.67-.09-.97-.17.11-.04.2-.04.34-.19-.61.18-.28-.47-.71-.4l.33-.19c.04-.61-.64.45-.7,0,.14-.02.23-.14.35-.23-.72.22-.92-.32-1.31-.4.05-.02.12-.09.12-.09-.31-.2-.42-.62-.9-.7.02-.22.69-.59.33-.77-.53.52-.67-.26-1.12.48-.14-.32-.29-.88-.62-.87.31-.09.55-.74.78-.59l.18-.46c.24-.19.07.22.3-.09-.11-.08-.6-.16-.6-.33-.5.13-1.28.55-1.62.32.34-.06.52-.64.7-.64l-1.42.57c-.12-.07.4-.43.13-.43-.14.14-.28.16-.44.23.03-.09-.52-.28-.03-.82.17-.24.26.05.35-.23-.18-.18-.37-.01-.55-.18l.07-.07c-.03-.19-.56-.14-.73.27.06.1.29-.33.25-.07-.39.21-.67.08-.85-.09.14-.02.28-.16.45-.28-.65.15-1.02.02-1.45-.08-.26.24.55-.33.46-.17.02-.68-1.18-.25-.94-1.02.09,0-.33.37-.27.29-.13-.2.24-.54,0-.52.2-.21-.2-.07-.37-.12-.21.09.08-.13.19-.05-.33.02-1.26-.3-1.29-.95-.14.14-.73.27-.79.17l.36-.28c.13-.26-.29-.25-.02-.53-.57.21.99.36.45.41.22-.33-.85.17-.35-.21-.17-.16-.7.04-.54-.42,0,.1.59-.3.44-.41-.28-.18-.22.08-.52,0h-.25c-.33.31-.16-.24-.44.19.24-.28-.49-.19.07-.67l.45-.37c-.13-.07-.6.25-.87.35.03-.05.09-.16.16-.22-.66.6-.18-.3-.79.06.02-.43-.5-.57-.19-1.05-.35.02-.73.09-.77-.23.1-.02.16.01.31-.11.08-.3-.12-.17-.33-.18.12-.07.15-.6.26-.94-.35.02-.64.41-.87.59.49-.76-.85-.07-.45-.81.14-.03.54-.06.57-.35.49-.75-.76.14-.68-.39l-.47.56c.22-.42-.64-.07-.08-.55-.27.1-.1-.45-.59.07.06-.81-1.18-.72-.49-1.84-.14.02-.19-.2-.42.08-.2.37.33-.06.17.16-.06-.04-.22.09-.29.15,0-.24-.05-.37.48-.66.06-.58-1.15.55-1.28,0,.23-.19.28-.29.15-.36l-.55.15c-.13-.31.36-.59.72-.94-.18-.06-.3-.23-.62-.03l.31-.58c-.23.42-.31.11-.46.14l.14-.03c.13-.17-.1-.22-.21-.24-.21.23-.16.46-.15.6-.22.09-.27-.04-.54.05.38-.31.06-.44.01-.57-.03-.18-.44.18-.45.13.18-.18-.14-.21.2-.37.09-.02-.1.26.12.16.07-.2.4-.5.02-.43-.28.05-.67.69-.65.27.14-.03.29-.15.46-.23v-.38s-.34.3-.34.3c.06-.1.1-.11.13-.17-.4.26-.4-.21-.82.11-.13-.07.02-.43-.04-.56h.05c.08-.31-.2-.35-.51-.24l.08-.06c-.04-.09-.23-.19-.5-.1.09-.4,1.17-1.21.59-1.01-.17-.16-.84.3-.98.56-.07-.51-.92-.35-.68-1.1-.17.08-.23.19-.39.17-.29-.56-1.27-.56-.96-1.52.26,0,.33-.3.51-.48-.39.17.18-.41-.35.02-.28.29-.43.41-.43.65-.41-.11-.78-.51-.65-.92-.07.2-.21.23-.35.26.48-.42.37-.68.07-.67l-.3.25.2-.37c-.14.03-.65.5-.52.1.1-.11.21-.23.26-.33-.38.07-.97.23-.89-.16l.29-.53c-.11-.03-.47.09-.48.33-.02-.52-.16-.73.12-1.16-1.33.35-2.03-.32-2.5-.94l.23-.19c.06-.34-.45.27-.4.03.25-.14.33-.53.69-.65.02-.43-.63.07-.86.02-.3.24.29-.06-.09.25-.12.07-.07-.5-.52-.14.11-.21.46-.46.66-.6l-.33.06c.34-.63,1.23-.47,1.68-1.22l-.18-.06c.33-.54.8-.15.67-.6-.33.07-1.05.53-1.13.83-.38-.16-1.13.83-1.37.5.17-.32.28.18.58-.21.21-.46-.46-.1-.45-.34-.03.29-.57.58-.73.56.06-.34.49-.28.33-.54-.28.2-.65.17-.65.5-.62.45-.06-.37-.6-.08.32-.44,1.11-.63,1.08-1.05-.34.39-.78.19-1.22.85.02-.19.31-.48.6-.64.1-.35-.99.33-.28-.42l-.43.32c.09-.16.12-.31.27-.57-.1-.12-.87.12-.28-.42-.09.02-.32-.27-.62.21-.09.4.47-.09.02.52.33-.53-.28-.18-.52-.14l.21-.23c-.14.03-.22-.15-.49.04.17-.08.3-.25.31-.34l-.4.26c-.39-.07.55-.62.23-.75l.42-.08c-.09.02.15-.36-.05-.37-.35.25-.8.53-1.07.72-.26,0,.3-.39-.14-.21l.53-.19c.13-.07.41-.6.24-.76-.21,0-.82.25-.82.58-.08-.08,0-.38.28-.53-.29-.09-.31.34-.66.36.14-.26.24-.75.42-1.17l.68-.32-.1-.12c.56-.25.25-.38.76-.71,0-.14-.24-.1-.43-.06-.48.9-1.2.66-1.78,1.33-.47-.15,1.37-1.68.06-1.05-.12.21-.75.52-.38.54-.11-.26-.77.48-.72,0,.43-.08.48-.8,1.09-.92-.23.19-.03.29.07.27.17-.31.66-.6.47-.79-.18-.06-.35-.22-.66.12-.36.35.22.15-.23.42-.36-.12.16-.69-.58-.17.2.11-.15.5-.4.74l-.32-.03.28-.2c-.1-.45-.52.34-.72,0l.36-.59c.48-.33.2.58.83-.11-.14-.21-.54.06-.53-.28.09-.02.16.02.25,0-.04-.09.79-1,.03-.76-.33.06-.27.19-.53.43-.35-.22-.69-.06-.91-.21.53-.43-.26-.37.43-.65-.2.37.23.76.79.41.48-.66.13.3.78-.2-.21-.24.38-.78.72-1.18-.03-.09-.25,0-.35.02-.38.31-.3.39-.66.74-.15-.35-.58-.41-1.06-.22.09-.25.47-.56.6-.49-.4-.21-.66-.58-.83-.98-.4.74-.45-.2-.8.39.02.28-.27.81-.61.97-.06-.13.26-.24.34-.4-.43.18.32-.68-.29-.32.45.1.76-.62,1.26-1-.45.04.33-.3.14-.5-.44.04-.88-.02-1.19-.15.16-.69-.67-.72-.93-.96.1-.35.7-.75.65-.97-.17-.16-.44.65-.44.18l.12-.07c-.19.04-.08-.79-.89-.16l.63-.45c0-.09-.16-.02-.26,0,.18-.17.29-.38.48-.42.24-.52-.37-.26-.54-.42l-.23.42c-.53-.04-.38-.54-.76-.71l.33-.3-.35.02c.35-.26.41-.6.06-.44l1.19-.32c-.08.3-.51.24-.76.62-.22.33.11.5.46.25-.06-.13-.13-.07-.32-.03.42-.46.54-.29.91-.5-.07-.03,0-.24-.15-.11.31-.11.44-.04.61.12-.28.05-.22.32-.39.4.41-.36.68-.32.77,0-.31.58.66.11.76.47-.49.28-.93.46-1.23.47-.06.34.17.16.11.5.37-.21.87-.59,1.24-.57l-.28.29c.32.04.75-.38.89-.07.22.53.6.92.85,1.26l-.28.29c.78-.43.75.33,1.24.28.08.65,1.06.55.74,1.23.86.45,1.63.82,2.18,1.62l-.54.29c.43-.18-.17.31,0,.38.21-.46.6-.25.95-.42-.04.62.7.67,1.26.66l-.28.29c.81-.25.64.54.88.97-.08.16-.3.48-.17.55.65-.27.71-.14,1.27-.15.19.2.38.63.39,1.01,1.38.11,1.68,1.29,2.82,1.68l-.29.38c1.46.05,1.67,1.62,2.66,1.9l-.65.5c.01.37.59.31.96-.14.01.37.77.23.4.82.09.31.51,0,.76.09.17.63.37.73.85,1.02l-.05-.13c-.17.08-.43.32-.37.45.3,0,.35.69.92-.13-.01.81,1.26.66,1.09,1.59.16-.22.29-.15.47-.23.36.36.33,1.12.93,1.1-.04.15-.42.22-.29.39.16.02.25-.24.46-.23.92.25.77,1.55,1.38,2,1.28.61,2.05,1.78,2.98,2.64l-.15.12c.83-.21.13,1.25,1.18.72-.07.2.2.34-.12.54.62-.12.29,1.03,1.11.92-.02-.05-.06-.04-.16-.02.03.65.76.56.83,1.21-.1.02-.21,0-.36.12-.13.4.93-.22.32.51.09.08.4-.27.33-.3.52,1.08,1.8,1.55,2.77,2.26.18,1-1.11,1.13-.14,1.13-.09.16.29-.22.15-.08.37,0-.48,1.02,0,.81.37-.45.32-.14.58-.37.09.64-.22,1.07.38,1.07l-.24.19c.95-.24,1,.48,2,.09,1.96,1.8,4.11,3.26,5.97,5.06,1.62,1.98,3.67,3.49,5.08,5.73-.16.99-.11,1.01.58,1.27-.11.07-.16.06-.22.18.5-.43.37.3.87-.09.57.78,1.31,1.3,2,2.01-.16-.06-.6.25-.44.35l.44-.15-.11.15c.16.03.49-.1.55-.34,2.12,1.41,2.85,4.08,4.64,5.73.2.61.95,1.03,1.48,1.39.65,1.95,1.29,3.65,3.03,4.6,0,0-1.4.99-2.22.69Z"/>
    <path class="cls-1" d="M18.79,14.73c-.19.27-.17.55-.61.73.21-.23.38-.55.61-.73Z"/>
    <path class="cls-1" d="M20.32,21.24c.08-.06-.04.15-.07.2-.07-.04-.31.11-.23-.05.07.03.17-.08.29-.15Z"/>
    <path class="cls-1" d="M21.2,22.44c-.23.19-.61.12-.77,0h.77Z"/>
    <path class="cls-1" d="M21.27,24.27c-.1.26-.22.33-.32.2.1-.12.2-.13.32-.2Z"/>
    <path class="cls-1" d="M21.82,23.88c.08.08,0,.24-.08.39.18-.18-.3-.08.08-.39Z"/>
    <path class="cls-1" d="M23.26,26.63c.07.04.35-.02.16.25.11-.21-.51,0-.16-.25Z"/>
    <path class="cls-1" d="M24.54,27.33s0,.1.09.08c-.04.15-.25.24-.32.2l.24-.28Z"/>
    <polygon class="cls-1" points="42.78 44.82 42.58 44.81 42.8 44.62 42.78 44.82"/>
    <path class="cls-1" d="M50.42,52.82c.24-.02-.13.26-.14.31-.11-.08.3-.21.14-.31Z"/>
    <polygon class="cls-1" points="55.59 56.14 55.55 56.12 55.99 55.72 55.59 56.14"/>
  </g>
</svg>