<?xml version="1.0" encoding="UTF-8"?>
<svg id="Layer_3" data-name="Layer 3" xmlns="http://www.w3.org/2000/svg" viewBox="0 0 95 95">
  <defs>
    <style>
      .cls-1 {
        fill: #202020;
      }
    </style>
  </defs>
  <g>
    <path class="cls-1" d="M88.21,48.11c-.09-.94-.54.5-.2-.61.23.13.4.31.2.61Z"/>
    <path class="cls-1" d="M87.75,44.41c-.21-.36-.36-.73-.51-1.12-.16-.38-.29-.78-.4-1.18-.21-.81-.32-1.66-.42-2.53-.16-.85-.34-1.72-.57-2.56-.12-.42-.25-.83-.4-1.22-.17-.39-.41-.74-.66-1.08-.19-.33.82-.18.34-.92-.27-.32-.53-.67-.77-1.05-.23-.38-.45-.79-.72-1.2-.49-.83-.93-1.75-1.32-2.72-.93-1.87-1.69-3.97-2.55-5.77l.33.05c-.33-.69-1.43-.98-1.89-1.6.11-.11.34.04.38-.23-.49.16-1.12-.91-1.6-.92-.07-.35.22-.59.1-1.03l-.69.04c-.85-.04-1.42-.51-1.93-1.13-.53-.6-1.03-1.35-1.9-1.62.14-.05.34-.02.31-.2-.67-.26-1.32-.57-1.97-.94-.66-.35-1.28-.79-1.98-1.12-1.37-.71-2.7-1.56-4.13-2.01.19-.12.45-.38.38-.65-.39.44-1.27.17-2.03-.07-.08-.73-1.46,0-2.2-.63l.12-.09c-.85.34-.84-.68-1.59-.18l-.27-.59c-.52.7-.84-.66-1.51-.4l-.03.17c-.57.06-.73-.41-1.25-.4l-.02-.1c-1.16-.11-1.75-.61-1.84.02-.31-.56,1.15-.06.67-.89-3.93-.08-7.82-.34-11.68-.02-.46-.2-.75-.23-.88-.46-.37.19-1.44.34-1.73.71.13-.03-.3-.28-.51-.29-.75-.12-.63.78-1.43.7.26-.24.32-.47.17-.68-.54.65-1.41.8-2.12,1.15.09-.13.25-.24.17-.43-.67.76-1.56.24-2.15.88l.15-.45c-1.29,0-.09.86-1.15.96.19-.2.06-.3.06-.46-.35.48-.9.81-1.47,1.08-.58.25-1.12.58-1.52.87.03-.07-.03-.16-.03-.16-.46.27-.95.47-1.45.7-.5.22-1,.5-1.41.94-.44.07-.33-.86-1.22-.15.42.62-1.46,1.24-.45,1.61-.22.09-.47.2-.73.31-.25.13-.5.28-.75.43-.49.3-.92.61-1.09.9.17-.48-.92-.44-.32-.97h-.76c-.11-.29.57-.29.18-.48-.31.28-1.09,1.19-1.43,1.35-.27.86-.2,1.95-1,2.8.21-.58-.8-.38-.61-.73-.09.72-.17,1.42-.17,2.17-.23.31-.48-.34-.72.21.16.11.09.38.09.61-.16.05-.93,1.3-1.61.96-.34-.06.31-.57-.18-.42-.49.54-.27.76-.71,1.34l-.09-.05c-.38.32-.6,1.32.04,1.14.22-.25-.43-.16.04-.43.14.53-.26,1.25-.68,1.82.05-.26-.13-.35-.24-.54-.12,1.09-.41,2.09-.77,3.09.29.19-.34-.66-.1-.7-.55.46-.81,1.14-.98,1.81-.17.67-.34,1.3-.9,1.66.02-.19.49.12.4.09-.32.56-.77.33-.78.79-.29-.08-.17.51-.21.97.12.29-.17.05-.07-.32.01.34-.08,1.12-.29,1.95-.22.83-.54,1.72-.89,2.35.19.03.48,1.02.38,1.32l-.41-.23c-.34.22-.23,1.05-.63,1.02.37.8.21-2.69.39-1.68-.43.14.38,1.44-.17,1.09-.14.64.18,1.34-.31,1.87.1-.16-.54-.64-.59-.11-.06.94.17.3.21,1.07l.11.49c.44.09-.18.8.36.53-.38.07.01,1.33-.69,1.17l-.57-.19c.01.41.57.72.81,1.05-.06.05-.18.14-.27.12.88.12-.12.95.54,1.45-.17.41-.21.93-.27,1.4-.01.47-.06.89-.33,1.09.3.64.65,1.19.5,1.93-.09-.14-.13-.33-.32-.36-.24.48,0,.58.16.98-.17-.08-.39.96-.63,1.52.36.6.8.31,1.1.33-.76.72.77,1.67.2,2.52-.19-.18-.63-.82-.74-.25-.71.77.93,1.01.75,2.02l.65-.41c-.33.52.74,1.21,0,1.32.3.23.11,1.12.75.81-.02.81.39,1.66.68,2.46.27.81.62,1.51.22,2.22.2.15.34.7.61.44.2-.5-.48-.34-.29-.58.11.17.3.12.4.1.06.5.18.87-.55.72.09,1.17,1.51.47,1.97,1.73-.29.09-.33.24-.08.55l.82.38c.35.8-.31.78-.72,1.07.32.36.6.88,1.05.82l-.17.82c.12-.6.48.14.71.24l-.23-.11c-.12.19.32.56.53.74.21-.24-.03-.76-.14-1.05.32.06.5.39.9.49-.45.21.18.82.36,1.15.17.41.65.08.71.19-.19.17.43.54-.06.52-.16-.06-.04-.4-.37-.44.04.33-.31.59.33.82.48.17.65-.72.98.1-.24-.08-.41.02-.65.01l.34.75.35-.28c-.01.15-.09.13-.1.2.5-.15.91.79,1.4.55.31.24.39.77.63,1.06l-.08-.02c.16.5.73.79,1.21.82l-.08.06c.16.19.64.55,1.04.54.29.63-.89,1.43.03,1.42.54.38,1.31-.04,1.27-.42.37.46.92.74,1.43,1.06.54.27,1.05.56,1.32,1.13.23-.07.21-.22.55-.13.67.52,1.48.87,2.27,1.16.78.32,1.46.7,1.89,1.4-.52-.04-.21.39-.3.63.52-.18.3.57.69,0,.12-.39.22-.54-.15-.88,1.01.16,2.42.66,2.82,1.22-.2-.27.04-.32.28-.35-.27.59.4.95,1.01.84l.19-.36.24.48c.24-.07.44-.73.88-.23,0,.15-.02.31.06.44.65-.19,1.52-.45,2.07-.06l.4.64c.28-.02.78-.29.34-.53.99.5,1.67.65,1.95,1.19,1.98-1.03,4.54-.92,6.65-1.03l-.04.3c.59.25.26-.53.67-.34-.16.29.49.58.06.95.86.29,1.01-.6,1.51-.8.03-.39-.39.31-.35-.19.07-.15,1.15.13,1.19-.47.23.2.14.64.07.89l.45-.35c.73.58-1.21,1.41-.45,2.14l.47-.16c.56.53-1.18.88.07.9.49-.37.79-1.26.29-1.45,1.04-.33.25-1.41,1.36-1.59.18.13-.03.21-.25.3-.23.07-.46.16-.31.38.63.41,1-.5,1.49-.44-.56-.08-.26-.77.04-.95.62.12-.23.63.57.48.05-.36.69-.78.02-.85.08-.8.86,0,1.11-.67.41.45-.45,1.39.49,1.43-.27-.43.83-1.02.15-1.59.36.02.53.4.39.78.57.13.81-1.3,1.31-.39l-.02-.55c.2.11.46.15.8.33.21-.07.47-.36.72-.53.24-.19.45-.28.59.09.09-.14,1.01-.54.43-.87-.69-.04-.47.68-1.08.14.63.37.76-.46.99-.79l.18.25c.14-.2.6-.35.57-.7-.06.23.1.38.29.37v-.51c.64-.57.55.65,1.23.16-.12.21-.26.4-.4.6.08-.14.57.16.84-.2-.07-.46-.08-1.06-.13-1.41.3-.4.42.31.59-.31l-.25.76c0,.17.7.4,1.25.05.28-.34.47-1.18-.19-1.05.26-.17.78-.18.74.22.53-.49-.33-.34.05-.87.37.11,1.21-.04,1.85,0l-.11.98.36-.26c-.13.81.49.18.58.86.3-.11.48-.5.63-.8-1.29-.24-.01-1.64-.77-2.18.78-.87,1.95,1.19,1.99-.68-.3-.04-.32-.93-.7-.24.6-.42-.23-.99.64-1.29-.22.69,1.12.19.79,1.2-.15-.26-.54.19-.59.35.45.04.54.71,1.12.18.29-.38.76-.83.37-1.09-.37-.35-.49.52-.62-.05.57-.73,1.21-.32.82-1.23-.33.48-.81.21-1.05-.05.12-.19.2-.42.3-.62l.16.33c.88-.62-.23-.65.51-1.34l.82.09c.26.56-1.19.93-.39,1.44.49-.48.29-.96.89-1.27-.04.16-.15.32-.18.48.18-.15,1.28.47,1.4-.73.1-.57-.17-.31-.43-.54.57-.94.48-1.41.85-2,.46.52.79-.95.9.08-.54.06-1.44,1.32-1.17,2.05.43.09.28.25.08.47-.22.21-.5.47-.27.82.63-.65,1.2-.12,1.69.09.18-.19.16-.52.19-.7-.32-.39-.51-.12-.92-.42.71-.73,1.08-1.67,1.01-2.38.4-.13.74.23.54.58.32-.51.61-1.06.94-1.58.33-.52.69-1.01,1.06-1.46-1.07.23.49-1.18-.35-1.07-.46.44-1.22.58-1.37.13.24-.29.3.18.53.14-.13-.6.99-.3.58-1.04-.23,1.08.77.65,1.24,1.12.03-.88.38.24.72-.48.04-.88.21-1.88.47-2.72.94-.81.97-2.63,1.29-3.54.43-.41,1.02.14,1.28-.38.15-.65-.86.27-.3-.6l.11.13c-.09-.33.92-1.66,0-2.16l.67.46c.11-.16-.01-.37-.06-.54.24.05.52-.12.6.21.71-.49.14-1.31.24-1.97l-.51.35c-.19-1.18.4-1.87.37-2.99l.44.08-.23-.68c.42.2.73-.39.39-.77.33.6.68,1.21.98,1.84-.32.46-.47-.59-.94-.32-.4.22-.45,1.24-.05,1.47.11-.39.02-.42-.1-.74.63-.06.52.54.88.9,0-.21.24-.49.05-.56.24.45.22.88.13,1.58-.17-.51-.42.19-.56-.01.53.14.59.84.31,1.67-.77.46-.01,1.67-.43,2.62-.43-.54-.73-1.15-.8-1.78-.42.53-.16.67-.58,1.2.32.39.88.77.91,1.64l-.4-.08c-.02.77.52.95.09,1.82-.38.74-.71,1.5-1.01,2.22-.36.69-.7,1.34-.99,1.9l-.38-.13c.24.5.06,1.06-.19,1.62-.25.56-.65,1.06-.72,1.57-.58.58-.95,1.37-1.3,2.06-.39.66-.8,1.21-1.32,1.33-.36.61-.71,1.2-1.05,1.78-.38.56-.79,1.08-1.2,1.61-.41.53-.84,1.05-1.3,1.57-.49.48-1.03.95-1.59,1.41l-.04-.76c-.09.67-.48-.02-.79.38.75-.04-.11.93-.16,1.45-1.28.5-2.34,1.84-3.04,2.9l-.27-.31c-.56,1.29-2.16,1.44-3.46,2.1-.22-.05-.64-.28-1.01-.05-.41.93-.81,1.07-1.7,1.95-.76.42-2.15.71-3.05.78-.68.47-1.39.94-2.16,1.22-.77.29-1.56.52-2.36.75l-1.21.33-1.23.23c-.82.16-1.65.36-2.47.62l-.29-.44c-.78.33-1.65.49-2.53.6-.88.09-1.79.21-2.68.1-1.78-.16-3.48-.23-4.91-.26l.37-.77c-.82-.38-1.99-.09-1.87.52-.42-.19-.98-.17-1.5-.22-.51-.08-.97-.2-1.16-.6-.84-.37-1.16.09-1.93,0-.85-.35-1.41-.63-1.99-.85-.57-.21-1.15-.36-1.99-.59l.38.19c.24-.1.38-.42,0-.62-.34,0-.87-.24-1.28-.38-.4-.15-.7-.14-.6.44-.72-.66-1.73-1.01-2.73-1.4-1-.38-1.92-.94-2.5-1.71,0,.31-.42.11-.68.17-.35-.21-.68-.45-1.01-.7-.3-.28-.6-.56-.89-.83-.59-.53-1.17-1-1.83-1.21-.12-.26.61-.11.1-.52-.37-.16-.23.27-.7.09-1.14-.69-2.05-1.69-2.88-2.69-.78-1.06-1.44-2.16-2.29-2.99-3.1-2.93-5.26-6.9-6.95-10.58l.2-.04c-1.22-.99-.39-3.24-1.84-3.89.06-.36-.24-1.22.18-1.09-.39-.45-.46-1.22-.56-2.04-.05-.41-.11-.83-.21-1.23-.09-.41-.2-.81-.43-1.16,0,.15.06.22.16.37.09-.82-.06-1.54-.22-2.27-.08-.37-.16-.74-.21-1.12-.04-.39,0-.79.06-1.21.09.16.17.46.37.49.34-.65-.9-1.45.02-1.85-.03-.36-.49-.24-.45-.02.02-1.81.13-3.66.08-5.56v-.71s.04-.71.04-.71l.09-1.43.1-1.44.06-.72.13-.7c1.22-2.5,1.58.22,1.43-2.01.22-.12-.32-.22-.12-.19-.02-.43.31-.67.6-.88.32-.2.6-.37.46-.71-.63.04-.18-.46-.5-.59.93-1.42,1.48-1.53,1.58-2.88l.24.21c-.07-.85.19-1.63.43-2.39.24-.76.43-1.52.36-2.31.53-.93,1.06-1.85,1.58-2.76.56-.89,1.19-1.74,1.78-2.61.57-.89,1.25-1.69,1.93-2.49.69-.79,1.3-1.65,2.08-2.36l2.24-2.21c.79-.69,1.62-1.33,2.44-1.99.8-.69,1.69-1.25,2.58-1.81.9-.55,1.75-1.19,2.72-1.62.95-.44,1.9-.88,2.84-1.32.96-.4,1.95-.73,2.92-1.1.49-.17.97-.37,1.47-.53l1.51-.4c1.01-.25,2-.57,3.03-.75l3.09-.48.77-.11.78-.04,1.57-.06c2.09-.15,4.19.11,6.29.34,1.88,1.03,1.98,1.06,4.17,1.06-.11.11-.25.12-.13.26.24-.66,1.49.26,1.82-.29,1.49.46,2.97.75,4.38,1.3.72.25,1.43.49,2.16.74.74.24,1.42.62,2.16.95-.49-.16-.94.22-.38.44l.75-.1v.21c.42.09.98,0,.69-.37.47.2.95.37,1.4.61l1.33.75c.87.53,1.77,1.01,2.57,1.63.8.62,1.59,1.25,2.36,1.9.4.31.76.65,1.11,1.02l1.06,1.07c1.45,1.38,2.62,3.02,3.89,4.52l1.7,2.42c.28.4.59.79.86,1.2l.78,1.25c.35.88,1,1.81,1.53,2.82.54,1.01,1.14,2.03,1.64,2.92.36,1.48.64,2.94.96,4.34.2,1.44.4,2.84.64,4.22.12,1.41.27,2.8.49,4.21.09,1.42.23,2.86.45,4.35,0,0-1.73-.79-2.24-3.09Z"/>
    <path class="cls-1" d="M88.22,49.24c-.34.19-.55.82-.96.29.31-.05.67-.37.96-.29Z"/>
    <path class="cls-1" d="M80.79,64.56c.08.06-.22.15-.29.17.06-.19-.1-.48.12-.55-.06.19.09.23.17.38Z"/>
    <path class="cls-1" d="M78.56,68.01c-.21-.22.04-1.08.28-1.54l-.28,1.54Z"/>
    <path class="cls-1" d="M75.37,70.33c-.39.09-.43-.06-.17-.4.14.07.12.24.17.4Z"/>
    <path class="cls-1" d="M75.72,70.96c-.21.24-.44.24-.67.24.2.15.36-.63.67-.24Z"/>
    <path class="cls-1" d="M69.29,75.91c-.14.13-.33.58-.66.42.3.06.52-.85.66-.42Z"/>
    <path class="cls-1" d="M66.47,78.39c-.11.05-.18.03-.26.17-.26,0-.17-.3-.02-.42l.29.25Z"/>
    <polygon class="cls-1" points="11.12 56.29 11.36 56.66 11.07 56.67 11.12 56.29"/>
    <path class="cls-1" d="M16.34,26.69c.07-.46.39-.08.47-.12-.2.32-.23-.32-.47.12Z"/>
    <polygon class="cls-1" points="27.62 14.07 27.51 14.14 27.24 13.61 27.62 14.07"/>
  </g>
  <g>
    <g>
      <path class="cls-1" d="M66.18,25.84c.53-.15-.33-.2.33-.17-.05.13-.14.23-.33.17Z"/>
      <path class="cls-1" d="M66.76,26.71c.7,1.78-.12,4.07.38,6,.04.22-.42-.05-.31.45.32.93.39,2.11.56,3.35.14,1.24.23,2.56.24,3.72l-.14-.11c0,.44.5.87.55,1.33-.08.02-.14-.12-.22,0,.25.06.28.78.49.94-.05.2-.24.22-.29.47l.32.2c.78.59.3,1.74.79,2.66-.07-.04-.13-.13-.18-.04.63,1.51.84,3.52.76,5.34-.08-.09-.25-.17-.37-.08.27.12.27.7.17,1.18-.17.07-.16.28-.16.56-.01.26-.03.58-.21.82l-.04-.07c.13.52-.41.5-.23.97l-.32.14c.29.36-.46.45-.45.84l.08.03c-.08.33-.34.38-.43.68h-.06c-.29.66-.7.88-.42,1.04-.35.07.27-.64-.25-.51-.97,2.13-2.53,3.99-4.11,5.7-.28.1-.42.2-.55.16-.12.21-.56.68-.6.94.05-.06-.22-.01-.32.06-.39.21-.09.58-.52.8.07-.19.05-.31-.08-.35-.11.46-.54.78-.84,1.15.02-.09.08-.19,0-.25-.19.56-.75.56-.98.99v-.25c-.69.28.1.45-.49.72.09-.14,0-.16-.02-.24-.26.62-1.1,1.09-1.55,1.49.02-.04-.02-.08-.02-.08-.53.37-1.17.61-1.78.99-.27.02-.09-.45-.69-.14.15.34-1.05.48-.54.76-.58.14-1.51.17-1.86.39.22-.2-.36-.38.09-.52l-.39-.14c.02-.16.37-.03.22-.19-.22.08-.88.32-1.1.31-.39.31-.73.78-1.45.92.32-.19-.24-.38-.02-.47-.3.28-.61.56-.92.82-.24.04-.08-.29-.42-.16.03.1-.12.17-.22.26-.09-.03-1,.18-1.12-.19-.11-.14.39-.1.11-.21-.44.03-.45.15-.9.18v-.05c-.3-.03-.87.19-.54.38.2,0-.08-.21.22-.12-.2.23-.72.29-1.16.3.15-.06.13-.16.19-.26-.59.3-1.23.4-1.91.5-.01.17.26-.31.35-.22-.85-.24-1.79.29-2.49-.1.12-.02.05.25.04.2-.41-.04-.38-.29-.65-.22-.02-.15-.34.02-.62.04-.15.09-.07-.08.18-.07-.39.11-1.98.16-2.84-.19,0,.1-.61.26-.82.21l.12-.21c-.16-.17-.69-.1-.69-.3-.49.2,1.73.06,1.1.17-.12-.21-.89.21-.71-.07-.41-.05-.87.09-1.22-.21.11.06.4-.23.07-.29-.59-.09-.19.07-.68.03h-.32c-.08.21-.51-.18-.37.12-.02-.2-.89-.14-.71-.49l.17-.24c-.25-.07-.51.13-.75.17-.02-.04-.07-.12-.04-.16-.2.39-.59-.24-1.1-.17-.47-.45-1.24-.91-1.26-1.31-.42-.2-.84-.37-1.13-.92.11.08.22.19.31.15-.11-.34-.28-.38-.51-.64.09.02-.05-.68-.06-1.04-.31-.32-.45-.1-.61-.07.27-.53-.74-.99-.51-1.59.1.12.4.49.39.13.29-.5-.56-.6-.56-1.25l-.3.25c.12-.33-.46-.8-.09-.85-.18-.16-.09-.72-.41-.56.02-1.04-.78-2.31-.28-3.04-.09-.13-.1-.48-.27-.38-.14.27.21.29.09.41-.04-.12-.14-.13-.19-.13.01-.32-.01-.56.34-.33.09-.71-.72-.58-.74-1.46.15.01.2-.06.13-.31l-.32-.44c-.03-.57.28-.37.53-.42-.09-.29-.13-.65-.33-.76l.26-.4c-.19.29-.18-.22-.25-.36l.08.13c.1-.07,0-.4-.06-.57-.15.06-.17.42-.19.61-.13-.14-.13-.38-.28-.57.25.04.12-.51.11-.75.03-.28-.24-.29-.24-.37.13-.02-.02-.45.18-.25.05.09-.11.22.02.37.08-.19.3-.19.11-.55-.14-.27-.47.11-.36-.44.07.14.17.15.27.26l.09-.51h-.22c.05-.08.07-.03.1-.07-.25-.13-.11-.76-.38-.86-.03-.25.13-.54.14-.79l.02.05c.11-.3.04-.69-.12-.94h.05c.02-.15-.02-.53-.15-.74.17-.41.84-.12.58-.58,0-.41-.38-.67-.53-.51.16-.74-.09-1.65.33-2.32-.07-.12-.14-.06-.15-.3.22-1.1.3-2.54,1.07-3.25-.04.36.2.11.32.15-.07-.33.33-.21.05-.44-.19-.06-.27-.13-.49.14.1-.33.26-.74.44-1.1.19-.34.41-.62.58-.74-.17.12-.16-.04-.14-.2.25.2.53-.21.64-.58l-.14-.15.3-.1c.02-.15-.26-.35.09-.57.07.03.15.05.23.02.08-.4.17-1,.54-1.25l.43-.11c.08-.16.12-.5-.13-.3.57-.46.85-.81,1.19-.83.28-1.32,1.42-2.7,2.44-3.68l.08.13c.36-.18-.05-.32.21-.44.01.18.42,0,.33.34.49-.27.32-.67.52-.97-.1-.18-.12.29-.24.07,0-.09.64-.42.51-.69.18,0,.25.22.27.35l.15-.33c.53-.02-.26,1.07.33,1.08l.19-.24c.42.03-.34.78.28.35.14-.32.06-.82-.24-.72.45-.52-.23-.73.34-1.21.26,0-.42.43-.15.51.41-.06.45-.56.74-.7-.34.14-.3-.27-.16-.46.38-.14-.02.37.42.05-.04-.19.27-.61-.14-.42-.09-.43.52-.27.58-.69.3.11-.08.83.48.58-.23-.15.39-.73-.09-.85.24-.08.37.07.33.3.35-.07.43-.86.81-.5l-.04-.29c.14.01.3-.02.52,0,.26-.15.71-.8.87-.44.05-.09.72-.39.35-.52-.49.05-.36.42-.76.21.43.12.54-.35.77-.55l.11.12c.13-.12.49-.24.53-.43-.09.13.01.2.15.19l.08-.29c.64-.33.29.34.91.09l-.43.31c.1-.07.37.08.65-.07.07-.24.23-.52.3-.71.34-.16.2.21.52-.07l-.41.34c-.05.09.37.28.81.22.27-.1.69-.46.22-.53.23-.03.56.07.4.24.51-.12-.08-.23.34-.39.19.13.76.3,1.09.5l-.43.38h.29c-.37.29.2.2,0,.51.19.04.43-.06.61-.14-.58-.48.64-.67.48-1.11.8-.1.48,1.08,1.31.41-.13-.12.27-.44-.23-.33.49.07.35-.43.92-.22-.44.16.43.47-.19.7.05-.14-.34-.13-.43-.09.19.18-.06.44.44.46.3-.03.71-.02.67-.25,0-.26-.46,0-.25-.24.61-.05.68.34.96-.09-.38.01-.46-.26-.44-.43l.45-.08-.1.16c.7.17.23-.29.92-.2l.29.36c-.18.27-.98-.2-.9.27.44.05.61-.17,1.01-.02-.1.03-.22.03-.32.07.16.03.27.65.92.35.34-.11.1-.16.12-.33.71,0,.94-.15,1.39-.14-.12.33.79.1.27.41-.21-.22-1.23-.29-1.51.01.22.42-.55-.1-.73.29.56.06.5.45.57.72.15.03.32-.06.41-.1.09-.24-.12-.25-.11-.5.62.12,1.24.04,1.6-.17.2.14.11.38-.14.38.75,0,1.54.1,2.23.23-.42-.43.79-.04.5-.39-.37-.12-.66-.42-.45-.59.23.04-.02.17.07.27.31-.2.44.38.75.06-.67.08-.16.48-.3.78.5-.14-.03.22.45.25.49-.15,1.09-.26,1.6-.34.65.28,1.67-.11,2.26-.19.33.12.16.5.51.52.4-.05-.34-.34.27-.25l-.05.08c.17-.1,1.13.1,1.23-.43l-.13.4c.12.02.21-.08.29-.13.02.12.17.22,0,.32.41.21.77-.15,1.17-.22l-.29-.19c.66-.27,1.15-.12,1.8-.3v.22s.39-.19.39-.19c-.06.23.32.31.5.1l-.94.7c-.3-.09.27-.31.06-.5-.18-.17-.78-.01-.85.21.24-.01.24-.06.41-.17.12.29-.23.34-.38.57.12-.03.31.04.32-.06-.22.19-.46.24-.87.31.26-.16-.18-.17-.08-.27,0,.27-.37.41-.88.41-.4-.26-.91.33-1.51.31.2-.3.48-.56.81-.72-.38-.09-.4.06-.79-.03-.15.23-.24.55-.7.73l-.05-.2c-.42.15-.39.45-.95.45-.96,0-2,.02-2.73-.04l-.02-.2c-.43.42-1.36.08-1.92.23-.91-.27-2.01.02-2.45-.37-1.63.01-3.04.04-4.68-.11l.29-.28c-.31.2-.19-.18-.48-.15.33.25-.42.29-.62.47-.73-.25-1.67,0-2.28.26l-.04-.2c-.61.41-1.36.17-2.12.27-.1-.06-.28-.2-.49-.12-.28.44-.48.51-.93.94-.39.21-1.06.48-1.51.65-1.17,1.33-2.71,2.27-3.83,3.75l-.26-.08c-.91,1.6-2.68,2.94-3.4,4.31l-.23-.37c-.39.31-.57.93-.27,1.01-.39.31-.51,1.08-.97,1.13-.34.36-.16.6-.33.96-.33.36-.51.63-.66.91-.16.28-.29.56-.43.97l.11-.18c-.04-.13-.19-.21-.31-.03-.06.34-.59,1.04-.02.94-.63.71-.36,1.98-.87,2.81.14-.06.14.17.22.28-.09.81-.4,1.68-.2,2.36-.07.13-.22-.22-.25.12.05.21.17,0,.25.26.24,1.36-.2,2.81-.01,4.08.46,2.22.7,4.57,1.23,6.67h-.1c.53.61.03,1.75.74,2.14-.04.19.14.63-.07.56.2.24.26.63.36,1.05.09.42.2.87.51,1.17-.02-.07-.05-.1-.13-.16.06.4.2.78.4,1.09.19.3.39.73.42.88-.07-.02-.15-.08-.23-.03-.05.27.67.17.45.6.13.12.25-.09.17-.15.26.32.61.63.96.86.17.12.36.22.47.26l.65.21c.89.28,1.89.41,2.85.57,1.35.52-.06.79,1.12.64.08.11.09-.17.09-.07.45-.06.61.61.95.41-.09-.3.22-.13.25-.31.85.3,1.02.55,1.74.4l-.06.15c.86-.36,1.8-.08,2.51-.56,2.26.01,4.48-.17,6.62-.51,2.11-.36,4.25-.84,5.86-1.68,1.66-.79,3.31-2.23,4.81-3.69,1.51-1.49,2.94-3.09,4.35-4.75.91-.59.98-.66,1.44-1.68.03.07,0,.14.1.11-.25-.22.4-.68.18-.93.84-1.3,1.44-2.68,1.66-3.93,0,.2.24.37.27.12l-.17-.29.1-.03c-.02-.17-.17-.37-.28-.21,0-1.7-.21-3.81-.48-5.87-.27-2.08-.62-4.19-1.1-6.33-.04-.52-.16-1.15-.29-1.81-.13-.64-.26-1.42-.32-2,.28-3.13.71-5.76.64-8.77l.48,1.09c-.24-.18-.5-.36-.76-.55,0,0,.49-.2,1.23,0l-.22-.5c.1.24.18.53.22.88Z"/>
      <path class="cls-1" d="M65.54,25.97c-.14-.14-.53-.17-.27-.44.06.15.28.29.27.44Z"/>
      <path class="cls-1" d="M55.4,25.29s-.14-.07-.17-.1c.12,0,.24-.14.33-.05-.12,0-.11.08-.17.15Z"/>
      <path class="cls-1" d="M52.85,24.99c.05-.14.61-.21.94-.2l-.94.2Z"/>
      <path class="cls-1" d="M50.48,24.17c-.2-.14-.14-.2.15-.18.01.08-.08.11-.15.18Z"/>
      <path class="cls-1" d="M50.28,24.49c-.2-.01-.3-.11-.39-.2,0,.12.48-.04.39.2Z"/>
      <path class="cls-1" d="M44.88,23.8c-.14.01-.42.14-.55-.02.14.11.66-.19.55.02Z"/>
      <path class="cls-1" d="M42.23,24.18c-.09,0-.13-.03-.23.03-.18-.03-.01-.18.12-.2l.11.17Z"/>
      <polygon class="cls-1" points="26.78 62.88 26.62 62.65 26.77 62.64 26.78 62.88"/>
      <path class="cls-1" d="M44.2,70.84c.27-.1.19.13.23.15-.24.02.09-.18-.23-.15Z"/>
      <polygon class="cls-1" points="54.69 68.64 54.62 68.67 54.54 68.38 54.69 68.64"/>
    </g>
    <g>
      <path class="cls-1" d="M40.25,54.34c-.06.14.19.07,0,.13-.05-.07-.08-.14,0-.13Z"/>
      <path class="cls-1" d="M66.39,25.54c.11.73-.73.8-.8,1.42-.02.06-.22-.22-.26-.07,0,.67-.72,1.07-1.38,1.29l-.04-.09c-.12.04,0,.34-.11.41-.04-.04-.04-.08-.11-.12.11.14-.09.22-.02.34-.08-.01-.18-.11-.28-.11l.1.19c.23.46-.34.33-.33.69-.03-.04-.04-.08-.08-.1-.07.51-.46.87-.7,1.29-.04-.06-.13-.16-.2-.19.14.16.08.3.03.43-.2-.1,0,.3-.19.33l-.03-.04c.1.23-.21.03-.06.28l-.17-.06c.2.24-.23.01-.17.18l.05.04c0,.11-.15.04-.16.14l-.03-.02c-.06.19-.26.16-.08.32-.19-.08.06-.19-.22-.3-.23.62-.69,1.06-1.1,1.52-.12-.01-.17,0-.25-.05,0,.08-.12.2-.07.33.01-.02-.12-.05-.15-.04-.14.02.11.27-.05.29-.01-.08-.06-.14-.14-.19.07.2-.05.29-.09.42-.02-.04-.01-.08-.07-.13.07.24-.2.15-.18.33l-.07-.13c-.25.03.18.24,0,.29,0-.06-.06-.08-.09-.13.08.28-.15.41-.19.59,0-.02-.04-.04-.04-.04-.09.15-.27.22-.31.44-.09,0-.24-.24-.32-.08.21.18-.12.3.19.43-.14.08-.37.19-.37.33-.03-.12-.3-.17-.24-.28l-.19-.04c-.08-.09.09-.05-.03-.12-.03.05-.08.27-.15.28.05.2.21.49.11.66-.02-.14-.26-.17-.26-.24l.22.55c-.03.06-.17-.14-.18-.02.06.05.06.11.09.17-.04,0-.12.24-.35.08-.1-.05.03-.12-.09-.13-.08.09-.01.16-.09.24l-.03-.02c-.08.03-.07.25.1.29.04-.03-.14-.1-.02-.1.08.15.02.28-.05.37,0-.06-.06-.1-.11-.17.05.26,0,.43-.06.62.1.09-.13-.21-.06-.18-.28.05-.12.52-.44.48,0-.04.15.11.12.09-.08.07-.22-.06-.22.04-.09-.07-.03.09-.06.17.03.08-.05-.02-.02-.08,0,.14-.14.55-.42.62.06.05.1.29.06.32l-.11-.13c-.11-.03-.11.14-.22.05.08.22.16-.45.18-.22-.13-.07.06.34-.09.16-.07.08,0,.29-.18.26.04,0-.12-.22-.17-.15-.08.13.03.09,0,.22v.11c.12.12-.11.09.07.17-.11-.08-.09.22-.28.03l-.15-.16c-.03.06.1.23.13.34-.02,0-.07-.02-.09-.05.24.23-.13.1.01.33-.18.03-.24.26-.44.17,0,.15.03.3-.11.34,0-.04,0-.07-.04-.12-.12,0-.07.06-.08.15-.03-.04-.25-.02-.39-.03,0,.15.16.24.24.32-.31-.15-.04.36-.35.26,0-.06-.02-.22-.14-.21-.31-.15.05.31-.17.32l.23.15c-.17-.06-.04.28-.23.08.04.1-.19.08.02.24-.34.04-.32.56-.78.35,0,.06-.09.09.03.17.15.05-.02-.14.07-.08-.02.03.03.08.06.11-.1.02-.16.05-.27-.15-.24.02.21.44-.02.54-.07-.08-.12-.1-.15-.04l.06.22c-.13.08-.24-.11-.38-.23-.03.08-.1.14-.02.26l-.24-.09c.17.06.04.12.05.18v-.06c-.08-.04-.1.06-.12.11.09.07.19.03.25.02.03.08-.02.12.01.22-.12-.14-.18,0-.24.04-.08.03.07.17.05.18-.07-.06-.09.08-.15-.05,0-.04.11.02.07-.07-.08-.01-.2-.13-.18.03.02.12.28.23.1.25,0-.06-.06-.11-.09-.18l-.16.03.12.12s-.05-.03-.07-.04c.1.15-.09.18.03.34-.03.06-.18.03-.24.06v-.02c-.13,0-.15.11-.11.23l-.02-.03s-.08.11-.05.22c-.16,0-.49-.4-.41-.17-.07.08.11.33.22.37-.21.07-.16.41-.47.37.03.07.07.08.07.15-.24.17-.25.58-.65.53,0-.11-.12-.12-.19-.18.07.15-.17-.04,0,.15.12.1.17.15.27.13-.05.18-.23.37-.39.35.08.01.09.07.1.13-.17-.17-.28-.1-.28.03l.1.11-.15-.06c.01.06.2.24.03.21-.05-.03-.09-.07-.13-.08.02.15.08.39-.08.39l-.22-.08s.03.19.13.17c-.22.05-.31.12-.48.04.13.53-.16.88-.43,1.13l-.07-.08c-.14,0,.11.17,0,.17-.06-.09-.22-.1-.26-.24-.18.03.02.26,0,.36.1.11-.02-.12.1.02.03.05-.21.07-.07.23-.09-.03-.19-.16-.24-.23l.02.13c-.26-.09-.18-.48-.49-.61l-.03.08c-.22-.1-.05-.33-.24-.23.02.14.21.4.33.41-.07.17.33.41.19.54-.13-.05.08-.13-.08-.23-.19-.05-.05.2-.15.22.12-.01.23.19.22.26-.14,0-.11-.19-.22-.1.08.1.06.26.2.24.18.23-.15.05-.04.26-.18-.1-.25-.42-.43-.37.16.11.07.32.34.45-.08,0-.2-.09-.26-.2-.15-.02.12.39-.18.15l.13.15c-.07-.02-.13-.03-.24-.07-.05.05.04.36-.18.15,0,.04-.12.16.08.25.16,0-.03-.19.22-.05-.22-.1-.08.13-.07.23l-.09-.07c0,.06-.07.1.01.2-.03-.07-.1-.11-.14-.1l.1.15c-.03.17-.25-.18-.31-.04l-.03-.17s-.15-.04-.15.05c.1.13.21.29.29.39,0,.11-.16-.09-.09.08l-.07-.21s-.24-.12-.31-.04c0,.09.09.32.23.3-.03.04-.16.03-.22-.08-.04.13.14.1.14.25-.11-.04-.31-.04-.48-.08l-.12-.26-.05.05c-.1-.22-.15-.07-.29-.27-.06.01-.04.11-.03.19.37.13.26.46.53.65-.07.21-.68-.45-.44.06.09.03.21.28.22.12-.11.07.19.29-.01.3-.03-.17-.33-.14-.37-.39.07.08.12,0,.11-.05-.13-.05-.24-.23-.33-.14-.03.08-.1.16.04.27.14.12.07-.1.17.06-.06.16-.29-.01-.08.26.05-.09.21.02.3.11l-.02.14-.08-.1c-.19.08.13.19-.01.3l-.24-.1c-.13-.18.24-.13-.04-.34-.09.08.02.22-.12.25,0-.04.01-.07,0-.11-.04.02-.41-.26-.32.05.02.13.08.1.17.19-.1.17-.03.3-.1.4-.17-.19-.16.14-.27-.13.15.05.32-.16.19-.37-.27-.15.13-.08-.07-.32-.11.11-.32-.1-.48-.21-.04.02,0,.11,0,.15.12.14.16.09.3.22-.15.09-.18.28-.11.47-.1-.02-.23-.16-.2-.22-.09.18-.25.32-.42.43.3.11-.09.2.15.31.12-.03.33.05.4.18-.06.03-.1-.09-.16-.11.07.17-.28-.08-.14.15.05-.2-.25-.27-.4-.45.01.19-.12-.12-.21-.02,0,.18-.02.37-.08.51-.29-.01-.31.34-.41.47-.15-.02-.3-.24-.4-.2-.07.08.27.13.07.17l-.03-.05c.01.08-.33.1-.08.39l-.18-.23s0,.07,0,.11c-.07-.06-.16-.09-.17-.17-.21-.06-.12.18-.18.26l.17.06c-.02.23-.23.21-.31.38l-.12-.12v.15c-.1-.13-.24-.12-.18,0l-.12-.48c.12,0,.09.2.25.27.13.07.21-.09.11-.21-.06.03-.03.06-.02.14-.19-.14-.11-.2-.2-.34-.02.03-.1.02-.05.07-.04-.12,0-.18.06-.27.02.11.13.07.16.13-.15-.14-.12-.26,0-.32.24.09.06-.29.21-.36.11.18.18.36.18.48.14,0,.07-.08.21-.09-.08-.14-.24-.32-.22-.48l.12.1c.02-.14-.15-.29-.02-.37.22-.14.4-.33.54-.46l.12.1c-.17-.3.15-.34.14-.55.27-.08.25-.49.53-.41.2-.4.37-.75.71-1.05l.11.2c-.07-.17.13.05.16-.03-.19-.05-.1-.23-.16-.37.26-.03.29-.35.3-.58l.12.1c-.09-.32.24-.31.42-.45.06.02.2.09.23.03-.1-.25-.05-.29-.04-.52.09-.1.27-.21.43-.24.07-.59.56-.81.75-1.32l.16.09c.04-.62.7-.83.84-1.27l.2.23c.16-.03.14-.28-.04-.4.16-.03.11-.34.35-.24.13-.06,0-.22.05-.33.27-.12.31-.21.44-.44l-.06.03c.03.07.13.15.18.12,0-.13.29-.2-.04-.38.34-.06.29-.58.68-.59-.09-.05-.06-.11-.09-.18.16-.18.47-.23.47-.48.06,0,.09.16.16.09.01-.07-.1-.09-.09-.18.12-.41.66-.45.86-.74.27-.59.78-1,1.15-1.47l.05.05c-.07-.34.53-.15.32-.55.08.01.15-.11.23,0-.04-.25.44-.2.4-.54-.02.01-.02.03,0,.07.27-.06.25-.36.52-.45,0,.04,0,.09.04.14.17.02-.08-.37.22-.17.03-.04-.11-.15-.12-.12.46-.31.67-.88.99-1.35.42-.15.46.38.47-.03.07.03-.09-.1-.03-.06,0-.16.42.12.34-.06-.18-.12-.05-.12-.15-.21.27-.09.45,0,.45-.25l.08.09c-.09-.38.21-.46.07-.85.78-.97,1.43-1.99,2.21-2.92.86-.84,1.52-1.83,2.48-2.6.41-.01.42-.03.54-.35.03.04.02.06.07.08-.17-.18.13-.18-.02-.36.34-.3.56-.66.87-1-.03.07.1.23.14.16l-.06-.17.06.03c.01-.07-.03-.2-.13-.21.62-1.01,1.75-1.53,2.47-2.41.26-.13.45-.48.6-.73.83-.43,1.55-.83,1.97-1.64,0,0,.39.51.26.88Z"/>
      <path class="cls-1" d="M40.35,54.19c.11.06.23.03.3.2-.09-.07-.22-.12-.3-.2Z"/>
      <path class="cls-1" d="M43.1,53.03s.06,0,.08.01c-.02.03.04.12-.03.1.02-.03-.03-.07-.06-.11Z"/>
      <path class="cls-1" d="M43.62,52.56c.07.08.04.25,0,.32v-.32Z"/>
      <path class="cls-1" d="M44.39,52.39c.11.02.13.07.08.12-.05-.03-.05-.07-.08-.12Z"/>
      <path class="cls-1" d="M44.23,52.19s.1-.02.16,0c-.07-.06-.04.13-.16,0Z"/>
      <path class="cls-1" d="M45.41,51.36s0-.15.11-.09c-.09-.03,0,.21-.11.09Z"/>
      <path class="cls-1" d="M45.72,50.77s.04,0,.03-.04c.06,0,.1.09.08.12l-.11-.08Z"/>
      <polygon class="cls-1" points="53.32 41.68 53.31 41.77 53.24 41.69 53.32 41.68"/>
      <path class="cls-1" d="M56.79,37.82c0-.1.11.03.13.03-.03.05-.08-.11-.13-.03Z"/>
      <polygon class="cls-1" points="58.26 35.38 58.25 35.4 58.09 35.24 58.26 35.38"/>
    </g>
    <g>
      <path class="cls-1" d="M51.14,26.34c.02-.09-.17-.1-.03-.09.06.07.1.13.03.09Z"/>
      <path class="cls-1" d="M40.86,41.94c-.12-.61.47-.31.49-.76.01-.04.17.26.18.16-.03-.51.45-.52.91-.41l.03.08c.09.02-.02-.26.06-.27.03.05.03.08.09.14-.09-.16.05-.13,0-.26.06.04.14.16.21.21l-.08-.19c-.18-.45.22-.11.2-.39.02.04.03.08.06.11.02-.37.28-.48.43-.7.03.06.1.18.15.24-.11-.18-.08-.27-.04-.34.15.16-.02-.23.11-.17l.02.04c-.08-.22.14.06.03-.19l.13.12c-.15-.27.16.09.11-.07l-.04-.05c0-.09.1.03.11-.04l.02.03c.04-.12.18-.01.04-.21.14.14-.03.13.17.33.13-.39.43-.53.65-.69.1.05.15.05.23.11-.01-.05.07-.1-.02-.19,0,0,.13.06.15.06.13.02-.19-.19-.05-.16.04.05.11.1.2.14-.06-.06-.08-.1-.08-.13-.03-.05-.04-.09-.07-.14.04.03.06.05.14.09-.21-.16.04-.11-.09-.22l.14.07c.17-.05-.29-.13-.19-.18.04.03.1.04.15.06-.25-.16-.17-.24-.25-.33.02,0,.06.01.06.01-.03-.08.05-.15-.06-.25.06-.04.34.01.29-.08-.28,0-.11-.16-.43-.1.05-.08.15-.21.06-.26.11.04.34-.04.36.03l.17-.05c.11,0-.04.05.1.04-.01-.03-.12-.13-.08-.16-.17-.06-.49-.12-.52-.22.11.05.31-.03.35,0l-.53-.14s.22,0,.15-.06c-.07,0-.12-.02-.18-.03.03-.01-.07-.14.2-.15.11-.01.06.05.16.02,0-.06-.1-.06-.1-.12h.04s-.12-.12-.27-.08c0,.03.16-.01.09.03-.16-.03-.2-.1-.21-.16.04.02.12.02.19.03-.22-.08-.28-.17-.37-.26-.13,0,.24.03.17.05.18-.12-.26-.24,0-.34.02.02-.18,0-.15,0,.02-.06.21-.05.14-.09.11,0-.04-.05-.07-.08-.08-.02.05,0,.07.02-.09-.05-.26-.26-.1-.39-.07,0-.27-.08-.26-.1h.17c.1-.01-.01-.08.13-.09-.21-.06.18.23.02.15.14-.02-.27-.11-.04-.1,0-.06-.2-.11-.04-.17-.03.02.24.05.23,0-.03-.08-.08-.02-.14-.09l-.07-.04c-.17,0,.02-.07-.16-.04.14,0-.08-.12.19-.11h.22s-.23-.05-.33-.07c.02,0,.06-.01.1-.01-.33,0,.03-.08-.23-.12.12-.07.01-.18.22-.22-.1-.06-.22-.11-.15-.17.03.01.04.03.11.03.1-.04.01-.05-.04-.09.05,0,.19-.08.31-.12-.1-.06-.28-.04-.39-.04.33-.05-.21-.16.09-.22.05.02.16.08.24.03.33-.05-.24-.1-.09-.18l-.27.02c.17-.04-.16-.12.12-.11-.1-.03.09-.1-.18-.09.23-.13-.14-.33.34-.41-.04-.02,0-.07-.14-.06-.15.03.11.04,0,.06,0-.02-.08-.02-.12-.02.06-.04.08-.07.3-.04.16-.09-.45-.1-.35-.21.11,0,.15,0,.13-.05l-.19-.11c.04-.12.25-.05.44-.03-.03-.06-.02-.12-.16-.17l.23-.03c-.17.02-.11-.07-.16-.1l.05.04c.08,0,.03-.07,0-.1-.12-.02-.16.04-.2.07-.08-.05-.06-.09-.16-.16.18.06.13-.07.15-.11.04-.04-.16-.12-.16-.13.1.03.02-.09.15,0,.03.03-.09.01,0,.07.07-.01.24.05.12-.06-.07-.07-.26-.11-.27-.16,0,0,.02-.02.06-.02.02.03.06.06.11.09l.05.03h.01s.14-.03.14-.03l-.16-.07c.05,0,.06.02.08.03-.15-.1.05-.13-.11-.25.02-.05.18-.03.23-.05h0c.13.02.12-.07.07-.17l.03.02s.07-.09.02-.18c.16.02.5.38.4.19.05-.06-.15-.29-.24-.35.15,0,.03-.27.29-.16-.04-.06-.08-.08-.08-.13.15-.06.07-.36.39-.22.02.08.12.12.19.18-.08-.13.14.08-.03-.11-.11-.1-.16-.16-.24-.17,0-.12.1-.22.23-.16-.07-.03-.09-.08-.11-.12.17.17.24.15.21.05l-.1-.11.13.08s-.21-.23-.07-.17c.04.04.09.07.12.1-.05-.12-.15-.31-.02-.27l.19.11s-.07-.15-.14-.16c.16.02.21-.01.37.09-.21-.43-.06-.61.09-.73l.08.08c.11.03-.12-.15-.04-.12.06.08.19.13.26.25.13.03-.07-.2-.08-.27-.1-.1.04.09-.09-.04-.03-.04.15,0,0-.15.07.05.18.17.24.24l-.05-.11c.22.14.24.4.51.58v-.05c.2.13.12.26.24.24-.05-.11-.25-.35-.35-.39.02-.11-.35-.39-.26-.45.11.07-.03.08.11.19.16.09,0-.14.07-.12-.09-.02-.22-.2-.23-.25.11.03.13.17.19.13-.08-.1-.11-.21-.21-.23-.19-.22.11,0-.02-.18.16.12.28.37.41.39-.15-.12-.12-.25-.36-.42.06.02.17.12.24.22.12.05-.18-.32.11-.07l-.13-.15c.06.03.1.06.2.11.03-.03-.11-.28.11-.07-.01-.03.06-.09-.12-.2-.13-.05.07.15-.16-.02.19.13.03-.08,0-.15l.09.08s.03-.06-.05-.15c.04.06.1.11.13.11l-.11-.14c0-.12.24.2.25.11l.06.14s.12.07.11,0c-.1-.12-.23-.27-.31-.37-.02-.08.14.11.05-.03l.1.17s.22.16.25.11c-.02-.06-.14-.27-.25-.28.02-.02.12.02.19.11,0-.08-.13-.11-.16-.22.09.06.25.11.39.19l.15.23.03-.03c.12.18.14.1.28.27.04,0,.01-.07-.01-.13-.32-.19-.3-.41-.55-.62,0-.14.63.51.33.07-.07-.05-.22-.26-.2-.14.07-.02-.21-.26-.06-.22.06.14.29.19.37.38-.08-.08-.09-.02-.08,0,.11.07.24.23.28.19,0-.05.04-.1-.09-.21-.14-.13-.03.06-.15-.09,0-.1.23.08,0-.17-.02.06-.17-.07-.26-.16l-.02-.1.08.1c.13,0-.15-.18-.06-.22l.21.14c.14.16-.16.03.1.26.05-.03-.06-.17.04-.15.01.03,0,.05.02.08.02,0,.37.3.24.05-.05-.11-.08-.09-.18-.19.04-.1-.04-.21,0-.27.18.19.09-.06.24.17-.13-.08-.22.03-.06.23.24.18-.08.03.12.25.06-.05.27.16.42.28.02,0-.02-.08-.03-.11-.13-.13-.14-.11-.28-.24.1-.03.08-.16-.02-.32.09.04.21.17.2.21.03-.11.13-.18.24-.21-.26-.16.03-.13-.18-.27-.09,0-.27-.12-.35-.24.04-.01.09.09.15.13-.09-.14.23.13.08-.07,0,.14.25.27.41.44-.05-.14.12.12.17.07-.05-.14-.06-.27-.05-.36.23.08.17-.17.22-.24.12.05.29.25.35.25.04-.04-.24-.17-.09-.14l.03.04c-.03-.06.24.01-.02-.27l.19.22s0-.05-.02-.08c.07.06.14.11.17.17.18.1.05-.1.09-.15l-.15-.09c-.03-.16.14-.09.16-.2l.12.12-.03-.11c.11.12.22.16.14.04l.2.39c-.1-.04-.12-.17-.25-.27-.12-.08-.15,0-.04.13.04-.01.01-.04-.01-.1.18.15.13.18.23.31,0-.02.07.01.02-.04.06.1.05.14.01.18-.04-.09-.12-.08-.16-.14.14.14.15.23.06.24-.2-.13.02.2-.08.21-.13-.17-.22-.31-.24-.4-.11-.04-.03.04-.15,0,.09.12.25.3.27.41l-.11-.1c.01.1.18.25.09.28-.14.04-.24.14-.32.2l-.11-.1c.2.26-.04.22.01.37-.19,0-.09.3-.32.17-.07.24-.12.46-.33.59l-.13-.18c.09.14-.11-.07-.12-.02.16.09.13.2.2.31-.2-.04-.15.18-.1.36l-.11-.1c.14.26-.12.17-.23.22-.05-.03-.17-.12-.18-.08.13.22.1.23.15.4-.05.05-.17.09-.28.07.07.42-.26.46-.29.79l-.14-.11c.1.45-.37.44-.38.73l-.21-.23c-.12-.02-.05.17.12.31-.11-.02-.01.23-.22.08-.09.01.04.16.03.23-.18.02-.2.08-.25.21h.04c-.04-.07-.13-.16-.17-.15.03.09-.18.07.11.29-.25-.04-.1.36-.4.26.08.06.07.1.11.16-.07.08-.36.09-.22.18-.04-.03-.12-.12-.14-.11.02.03.1.08.14.13.11.12-.13,0-.21.02,0,0,0,.01,0,.02.1.08.12.12.12.15v.18c0,.08,0,.16,0,.24h-.07c.28.1-.29.24.13.32-.07.02-.03.09-.17.08.2.08-.19.23.06.35,0-.01,0-.02-.04-.03-.16.12.06.23-.09.36-.03-.01-.05-.04-.13-.04-.14.05.31.12-.04.14,0,.03.18.02.17,0-.14.28.09.58.17.87-.21.21-.59.01-.33.18-.07.01.14,0,.06.01.1.06-.39.1-.21.14.22-.02.12.03.25.03-.14.13-.34.15-.17.25h-.11c.32.11.15.25.52.35.03.32.1.64.17.96l.09.47.03.24c0,.09.02.12.02.31-.03.52-.02,1.03,0,1.56-.29.2-.58.4-.88.6-.15.09-.3.18-.46.28-.17.1-.19.09-.31.13-.29-.17-.3-.15-.36.04-.02-.04-.02-.06-.05-.09.13.21-.08.08.04.29-.22.09-.36.27-.56.41.02-.04-.08-.22-.11-.18l.05.16-.04-.05s.03.17.11.21c-.38.52-1.16.44-1.62.83-.17,0-.29.18-.39.31-.56-.02-1.05,0-1.3.44,0,0-.31-.56-.23-.79Z"/>
      <path class="cls-1" d="M51.1,26.43c-.1-.07-.19-.08-.28-.23.09.08.2.15.28.23Z"/>
      <path class="cls-1" d="M49.2,26.58s-.05-.02-.07-.03c0-.02-.06-.1,0-.07,0,.02.04.06.07.1Z"/>
      <path class="cls-1" d="M48.9,26.79c-.08-.08-.08-.2-.06-.24l.06.24Z"/>
      <path class="cls-1" d="M48.34,26.72c-.09-.04-.12-.08-.09-.11.04.04.06.07.09.11Z"/>
      <path class="cls-1" d="M48.51,26.91s-.07-.01-.13-.05c.07.06,0-.09.13.05Z"/>
      <path class="cls-1" d="M47.77,27.22s.03.11-.07.04c.07.05-.04-.16.07-.04Z"/>
      <path class="cls-1" d="M47.66,27.58s-.03,0-.02.02c-.05-.02-.09-.09-.09-.11l.11.09Z"/>
      <polygon class="cls-1" points="44.58 33.37 44.53 33.33 44.64 33.34 44.58 33.37"/>
      <path class="cls-1" d="M44.59,36.08c.07.04-.1.03-.12.03-.01-.03.13.01.12-.03Z"/>
      <polygon class="cls-1" points="45.13 37.54 45.13 37.53 45.35 37.53 45.13 37.54"/>
    </g>
    <g>
      <path class="cls-1" d="M50.05,58.46c-.01-.07-.17-.09-.05-.08.07.06.12.1.05.08Z"/>
      <path class="cls-1" d="M45.2,69.62c-.55-.23.05-.35-.29-.56-.02-.02.31.05.24,0-.42-.22-.12-.44.24-.59l.09.02c.07-.03-.22-.11-.17-.15.06,0,.08.02.16.02-.17-.03-.07-.08-.2-.12.07,0,.21.01.29,0l-.2-.05c-.47-.12.05-.15-.18-.27.05.01.08.02.13.02-.27-.18-.19-.34-.28-.51.07.02.2.04.28.04-.21-.03-.26-.09-.29-.14.22,0-.19-.1-.06-.13h.05c-.22-.05.14-.03-.13-.09h.17c-.3-.06.16-.03.01-.08h-.06c-.07-.04.08-.04.04-.07h.04c-.07-.07.1-.08-.14-.11.19,0,.08.07.36.07-.22-.23-.14-.43-.12-.63.1-.01.13-.02.22-.01-.05-.03-.03-.08-.15-.12,0,0,.12,0,.14,0,.09-.02-.26-.07-.14-.1.06.02.14.04.23.05-.18-.06-.15-.1-.2-.15.04.01.06.02.14.03-.2-.07.06-.07-.07-.13l.14.03c.18-.04-.29-.06-.18-.1.04.02.1.02.15.03-.24-.08-.15-.15-.23-.21.02,0,.06,0,.06,0-.02-.06.06-.11-.04-.18.06-.01.33.05.29-.01-.28-.03-.1-.11-.42-.12.05-.04.17-.11.08-.15.1.04.34.02.36.06h.17c.11,0-.04.02.1.03,0-.02-.11-.1-.06-.11-.16-.06-.48-.14-.5-.2.1.04.31.02.35.05l-.52-.15s.22.02.15-.02c-.07,0-.12-.03-.17-.04.03,0-.06-.09.21-.07.11,0,.05.04.15.03,0-.04-.09-.05-.09-.09h.04s-.11-.09-.26-.08c-.01.02.16.01.08.03-.16-.04-.19-.09-.19-.13.04.02.11.03.19.04-.21-.08-.27-.14-.35-.21-.13-.02.23.05.16.05.19-.05-.23-.18.04-.21.02.01-.18-.02-.15-.01.02-.03.21,0,.14-.04.11.01-.03-.03-.06-.06-.08-.02.05,0,.06.02-.09-.02-.23-.28-.06-.35-.07-.01-.25-.14-.24-.17l.17.06c.1,0,0-.09.14-.05-.19-.12.15.26,0,.14.14.02-.25-.18-.03-.1,0-.05-.18-.17-.02-.16-.03,0,.22.13.22.08,0-.02-.01-.04-.02-.04-.02-.02-.06-.03-.08-.08l-.04-.06c-.15-.07.06-.04-.13-.1.13.05,0-.13.24,0l.19.11s-.18-.14-.25-.21c.02,0,.06.02.09.04-.29-.17.07-.05-.13-.21.14,0,.12-.14.3-.04-.06-.09-.14-.19-.06-.18.02.02.02.04.08.08.09.04.03-.02,0-.07.04.03.19.08.3.12-.06-.09-.21-.18-.3-.25.28.17-.11-.21.15-.06.03.04.1.14.18.16.28.17-.16-.2,0-.14l-.23-.15c.15.08-.08-.15.14.02-.07-.07.11,0-.11-.15.23.07.01-.25.43,0-.03-.04.03-.03-.09-.11-.13-.07.07.09-.02.03,0-.01-.06-.06-.09-.08.06.02.09.01.26.16.17.05-.33-.32-.2-.32.09.07.12.09.12.06l-.13-.15c.06-.01.22.13.37.24-.01-.04.02-.06-.09-.15l.21.11c-.15-.08-.08-.08-.11-.12l.03.04c.07.04.04,0,.03-.04-.1-.07-.15-.07-.19-.08-.06-.06-.03-.06-.1-.14.14.11.13.04.16.04.05,0-.12-.12-.11-.12.08.06.04-.02.13.07.02.02-.09-.04-.03.02.07.03.2.13.12.03-.06-.07-.29-.21-.17-.18.03.04.09.08.13.13l.1.02-.13-.1s.05.03.07.04c-.13-.11,0-.08-.16-.21,0-.03.12.03.15.03h0c.09.05.06-.02-.02-.1l.03.02s.02-.05-.05-.12c.12.05.51.37.37.21.02-.03-.21-.23-.31-.28.13.02-.05-.2.2-.1-.05-.05-.09-.07-.11-.11.11-.04-.04-.28.27-.14.04.06.13.1.21.16-.11-.11.14.07-.06-.09-.12-.09-.18-.13-.24-.15-.03-.09.02-.16.15-.1-.07-.03-.1-.07-.12-.1.19.15.24.13.2.06l-.12-.09.13.07s-.24-.19-.11-.13c.05.03.1.06.13.09-.08-.1-.21-.25-.09-.21l.19.1s-.1-.12-.16-.14c.14.03.17,0,.33.1-.3-.35-.23-.48-.13-.56l.09.07c.1.04-.14-.13-.07-.1.08.07.2.12.29.21.12.03-.12-.16-.14-.21-.11-.09.06.07-.08-.04-.04-.03.13.02-.04-.12.08.04.2.14.27.2l-.07-.09c.23.12.32.33.59.49v-.04c.19.12.15.21.26.2-.07-.09-.31-.29-.4-.33-.01-.08-.4-.33-.35-.37.11.06,0,.06.15.16.16.08-.04-.11.02-.09-.08-.03-.25-.18-.27-.22.1.04.15.14.2.12-.1-.08-.15-.17-.24-.19-.22-.18.09,0-.07-.14.17.11.35.31.46.33-.16-.11-.18-.21-.42-.36.06.02.18.11.27.19.11.05-.24-.26.07-.04l-.15-.13c.06.03.1.05.2.1.02-.02-.17-.22.07-.04-.02-.02.02-.06-.16-.17-.12-.05.1.12-.14-.03.2.12,0-.06-.04-.12l.09.07s0-.04-.09-.12c.05.05.11.09.14.1l-.13-.11c-.04-.09.26.17.24.11l.09.11s.12.06.09.01c-.12-.1-.27-.23-.36-.31-.04-.06.15.1.04-.02l.13.14s.23.14.24.11c-.03-.05-.2-.22-.29-.24,0-.02.1.02.19.1-.02-.07-.14-.1-.2-.19.1.05.24.11.38.18l.19.19.02-.02c.15.15.14.08.31.23.04,0-.01-.05-.05-.1-.32-.18-.37-.34-.64-.52-.03-.11.67.45.3.08-.08-.04-.26-.22-.21-.13.05-.01-.25-.22-.11-.18.09.11.29.17.42.33-.09-.07-.08-.03-.06,0,.11.06.27.2.29.17-.01-.04,0-.07-.14-.17-.15-.11,0,.04-.15-.08-.02-.08.21.08-.04-.13,0,.04-.16-.07-.26-.15l-.04-.08.1.08c.11,0-.17-.15-.11-.18l.22.13c.16.14-.13.01.16.21.03-.02-.1-.14,0-.11.02.03.02.04.04.06.02,0,.4.26.21.06-.07-.09-.1-.08-.2-.16,0-.07-.09-.17-.08-.21.2.16.06-.04.25.15-.13-.07-.17,0,0,.17.26.16-.06.01.18.21.03-.04.27.14.43.25.02,0-.04-.06-.06-.09-.14-.11-.15-.1-.3-.21.07-.01.02-.12-.1-.25.08.04.23.15.23.18,0-.08.06-.13.14-.14-.26-.15-.02-.1-.23-.22-.07-.01-.26-.12-.36-.21.03,0,.1.08.16.11-.12-.12.24.12.04-.05.04.11.29.23.47.37-.08-.11.13.1.16.07-.08-.11-.13-.22-.14-.28.21.08.09-.12.12-.17.11.05.31.22.37.22.02-.03-.25-.15-.12-.12l.04.04s.2.03-.09-.21l.22.18s-.02-.04-.04-.06c.08.06.15.1.19.15.18.09.02-.07.03-.11l-.15-.08c-.07-.13.09-.06.08-.14l.13.1-.06-.09c.12.1.23.14.13.04l.27.31c-.09-.04-.15-.14-.29-.23-.12-.07-.12,0,0,.1.03,0,0-.03-.04-.08.19.13.16.15.28.26,0-.01.06.02,0-.03.08.08.08.11.06.14-.06-.07-.12-.07-.17-.12.16.12.19.19.12.19-.21-.11.07.16,0,.16-.15-.14-.27-.26-.32-.33-.1-.04-.02.03-.12,0,.11.1.3.25.35.34l-.12-.09c.04.08.22.21.16.22-.11.02-.16.09-.21.13l-.12-.09c.24.22.03.16.12.29-.17-.02.01.23-.22.1,0,.18.03.35-.1.43l-.16-.15c.12.12-.11-.06-.1-.02.16.08.16.17.26.26-.18-.05-.08.13.01.27l-.12-.09c.2.22-.05.12-.13.15-.06-.03-.18-.11-.18-.08.17.18.15.18.24.32-.03.03-.12.05-.22.03.18.33-.09.33-.02.59l-.15-.1c.21.36-.18.31-.11.53l-.24-.19c-.1-.02,0,.13.19.25-.1-.02.06.17-.16.05-.07,0,.08.13.09.18-.15,0-.14.04-.15.14h.03c-.05-.05-.15-.13-.18-.13.05.08-.13.04.18.23-.22-.05.02.27-.26.17.08.05.09.08.14.13-.04.06-.25,0-.16.16-.05-.02-.12-.12-.15-.1.02.04.1.08.14.13.07.21-.31.09-.34.21.03.28-.17.39-.26.57l-.06-.05c.19.22-.32-.05-.01.24-.07-.03-.06.03-.17-.07.13.16-.24,0-.08.22,0,0,0-.01-.02-.04-.17-.03-.04.15-.2.13-.02-.03-.03-.05-.09-.1-.13-.06.21.24-.09.05,0,.02.13.12.13.1-.14,0-.05.11.01.18l.05.04c-.21-.03-.58-.18-.33-.06-.07-.01.13.04.06.02.09.04-.39-.06-.21,0,.21.04.12.03.25.06-.14,0-.34-.02-.18.07l-.11-.02c.31.11.13.18.49.29.01.41.17.83.16,1.23-.12.38,0,.78-.25,1.15-.31.05-.3.06-.2.18-.05-.01-.06-.02-.1-.02.24.04.01.07.25.11-.06.14-.02.28-.03.43-.02-.03-.22-.07-.21-.03l.15.05h-.07s.15.06.23.05c.16.41-.38.71-.36,1.09-.11.07-.04.21,0,.31-.36.24-.66.46-.47.78,0,0-.63-.12-.76-.26Z"/>
      <path class="cls-1" d="M50.04,58.52c-.1-.07-.18-.08-.3-.2.09.07.21.13.3.2Z"/>
      <path class="cls-1" d="M48.49,58.48s-.05-.02-.07-.03c0-.01-.08-.08-.02-.05,0,.01.05.05.09.08Z"/>
      <path class="cls-1" d="M48.3,58.62c-.09-.07-.13-.16-.12-.19l.12.19Z"/>
      <path class="cls-1" d="M47.81,58.52c-.09-.04-.12-.07-.11-.09.05.03.07.06.11.09Z"/>
      <path class="cls-1" d="M48,58.68s-.07-.02-.12-.05c.08.06-.02-.07.12.05Z"/>
      <path class="cls-1" d="M47.47,58.86s.06.09-.04.02c.08.04-.08-.13.04-.02Z"/>
      <path class="cls-1" d="M47.48,59.13s-.03,0,0,.02c-.05-.02-.1-.08-.11-.09l.11.08Z"/>
      <polygon class="cls-1" points="45.53 62.51 45.5 62.46 45.58 62.53 45.53 62.51"/>
      <path class="cls-1" d="M44.76,64.42c.07.03-.1,0-.12,0,0-.02.13.03.12,0Z"/>
      <polygon class="cls-1" points="45.19 65.4 45.19 65.39 45.41 65.43 45.19 65.4"/>
    </g>
    <g>
      <path class="cls-1" d="M62.11,42.04s-.18-.07-.07-.05c.08.04.14.07.07.05Z"/>
      <path class="cls-1" d="M59.35,47.55c-.49-.31.08-.15-.22-.38-.02-.02.28.14.22.08-.37-.26-.08-.26.28-.2l.08.04c.07.01-.19-.13-.14-.13.05.03.07.04.15.07-.16-.08-.06-.07-.17-.13.07.02.19.08.27.11l-.18-.1c-.42-.23.06-.05-.14-.2.04.02.07.04.12.06-.23-.19-.15-.24-.21-.35.06.03.18.09.25.12-.19-.09-.23-.14-.26-.17.2.09-.17-.12-.05-.09l.04.02c-.2-.11.13.03-.11-.1l.16.06c-.27-.14.15.05.02-.03l-.06-.03c-.06-.04.08.02.04-.02h.03c-.06-.05.1.01-.12-.09.18.07.07.06.33.17-.18-.19-.1-.26-.06-.35.09.03.12.04.2.07-.04-.03-.02-.05-.13-.11,0,0,.11.05.13.05.09.02-.23-.13-.12-.1.05.03.12.07.21.11-.16-.1-.13-.1-.17-.15.04.02.05.03.12.07-.18-.11.06-.02-.06-.09l.12.07c.17.04-.26-.13-.16-.11.04.02.09.05.14.07-.22-.13-.13-.13-.19-.19.02,0,.05.03.05.03-.02-.04.07-.03-.02-.1.06.02.3.15.27.1-.25-.12-.08-.09-.37-.21.05,0,.16,0,.08-.05.09.06.31.14.33.16l.16.06c.1.05-.04,0,.09.05,0-.01-.09-.09-.05-.08-.15-.09-.43-.24-.45-.28.09.06.28.12.32.15l-.46-.27s.2.09.14.05c-.07-.03-.11-.06-.16-.09.03.01-.04-.07.2.05.1.04.05.04.14.07,0-.02-.08-.06-.07-.08l.03.02s-.09-.08-.23-.14c-.01,0,.15.07.07.04-.14-.08-.17-.11-.17-.13.04.02.1.06.17.09-.18-.11-.23-.17-.3-.23-.12-.06.21.11.15.09.18.05-.2-.18.05-.09.02.01-.17-.08-.14-.06.02,0,.19.07.13.03.1.05-.03-.03-.05-.05-.07-.04.05.02.06.03-.08-.06-.2-.19-.04-.15-.07-.03-.23-.14-.22-.14l.15.08c.1.04,0-.03.13.03-.18-.11.13.14,0,.05.13.06-.23-.15-.02-.04,0-.02-.17-.12-.01-.06-.03,0,.21.11.2.1-.02-.04-.07-.04-.11-.08l-.06-.04c-.15-.07.03-.01-.14-.08.13.06-.06-.07.19.05l.2.1s-.2-.11-.28-.16c.02,0,.06.02.09.04-.3-.14.04-.01-.19-.13.11.03.03-.05.23.03-.08-.06-.19-.12-.11-.11.03.02.03.03.1.06.09.03.02,0-.03-.04.04.02.19.06.3.1-.08-.06-.25-.13-.35-.18.3.13-.17-.13.11-.02.04.02.14.09.22.11.3.13-.21-.13-.05-.09l-.25-.11c.16.06-.13-.1.12.02-.09-.05.09.01-.15-.1.22.06-.08-.15.36.03-.04-.02,0-.02-.12-.07-.14-.05.09.06,0,.02,0,0-.07-.04-.1-.06.06.01.08.01.28.12.16.05-.4-.22-.29-.21.1.05.14.06.13.05l-.16-.1s.23.1.4.18c-.02-.03,0-.03-.13-.1l.22.09c-.16-.06-.1-.06-.14-.08l.04.03c.07.03.03,0,.02-.02-.11-.05-.15-.05-.19-.06-.07-.04-.05-.04-.13-.09.16.08.13.04.15.04.04,0-.14-.08-.14-.08.09.04.02,0,.14.06.03.02-.09-.03-.01,0,.07.02.22.1.11.03-.08-.05-.33-.15-.21-.12.04.02.1.06.16.09l.09.02-.15-.07s.05.02.07.03c-.16-.08-.04-.05-.21-.14-.01-.02.11.03.14.03h.01c.09.04.04,0-.05-.06l.03.02s0-.03-.09-.08c.12.04.57.27.39.16,0-.02-.26-.16-.36-.19.12.02-.12-.13.13-.04-.06-.03-.1-.05-.13-.07.08-.01-.14-.17.17-.06.06.04.15.07.24.11-.13-.07.15.05-.08-.06-.14-.06-.2-.1-.26-.11-.06-.06-.04-.1.09-.05-.07-.02-.11-.05-.14-.07.22.1.26.1.19.05l-.13-.07.14.06s-.28-.14-.14-.09c.05.02.1.05.14.06-.1-.07-.28-.17-.16-.13l.2.08s-.13-.08-.19-.1c.13.03.15.02.32.09-.39-.24-.37-.31-.32-.35l.1.05c.1.03-.17-.09-.1-.07.09.05.21.09.32.15.11.03-.16-.11-.2-.14-.13-.06.08.05-.09-.03-.05-.02.11.02-.08-.08.08.03.22.1.3.15l-.09-.06c.24.09.4.23.69.35l-.03-.03c.21.09.22.14.3.15-.09-.06-.37-.2-.46-.23-.04-.05-.46-.23-.44-.25.12.05.02.04.18.11.16.06-.08-.07-.02-.05-.08-.02-.27-.13-.31-.15.1.03.18.1.21.09-.11-.06-.19-.12-.28-.14-.25-.13.08.01-.11-.09.18.08.41.22.51.24-.18-.08-.23-.14-.49-.25.05.02.19.08.3.14.11.04-.31-.18.04-.02l-.18-.09c.06.02.11.04.21.08,0,0-.23-.15.04-.02-.03-.02,0-.04-.19-.11-.12-.04.13.08-.13-.03.21.09-.02-.03-.08-.08l.1.05s0-.03-.12-.08c.06.03.13.06.16.07l-.16-.08c-.07-.06.28.13.25.08l.12.07s.13.05.08.01c-.14-.07-.31-.16-.42-.22-.06-.04.17.07.02,0l.17.1s.24.1.25.09c-.05-.03-.25-.15-.33-.17,0,0,.09.02.2.08-.04-.04-.16-.07-.24-.13.1.04.25.09.39.14l.23.13h0c.19.1.15.05.35.16.04,0-.03-.03-.08-.07-.34-.13-.44-.24-.74-.37-.07-.07.74.33.28.07-.08-.03-.3-.15-.22-.1.04,0-.29-.15-.16-.12.12.07.31.13.48.23-.1-.05-.08-.02-.05,0,.12.05.3.14.31.13-.02-.02-.02-.04-.18-.11-.17-.08.01.03-.16-.06-.05-.05.21.07-.09-.08.02.03-.16-.05-.28-.11l-.06-.05.11.06c.09.01-.2-.11-.16-.12l.23.09c.19.1-.1,0,.21.14.02-.01-.14-.09-.05-.07.03.02.03.02.06.04.01,0,.43.19.2.05-.09-.06-.11-.06-.23-.11-.02-.04-.14-.11-.15-.13.23.11.04-.02.26.11-.14-.06-.14-.01.07.1.28.12-.05,0,.23.14.02-.02.28.11.46.19.02,0-.06-.04-.08-.06-.16-.08-.17-.07-.34-.15.06,0-.03-.07-.18-.16.09.03.25.11.26.13-.04-.05,0-.07.06-.07-.28-.11-.05-.06-.28-.16-.07-.01-.27-.09-.38-.16.02,0,.12.06.18.08-.14-.08.25.09.02-.03.08.07.33.16.54.27-.11-.08.15.07.16.05-.11-.07-.19-.14-.23-.18.21.07.04-.06.04-.09.11.04.35.16.4.17,0-.02-.26-.11-.14-.08l.05.02c-.05-.03.18.04-.16-.14l.26.13s-.03-.03-.06-.04c.08.04.16.07.22.1.19.07-.01-.04-.01-.06l-.16-.06c-.11-.08.05-.03.01-.08l.15.07-.08-.06c.14.07.24.1.13.04l.35.21c-.09-.03-.18-.1-.33-.16-.13-.06-.1-.01.04.06.02,0-.01-.02-.06-.05.21.1.2.11.33.18,0,0,.06.01,0-.02.1.06.11.07.11.09-.08-.05-.13-.06-.19-.09.18.09.23.13.17.12-.22-.09.12.1.05.1-.18-.1-.33-.18-.4-.23-.1-.03,0,.02-.1-.01.14.07.35.18.42.24l-.14-.06c.06.05.27.15.22.15-.08,0-.1.04-.13.06l-.14-.06c.29.15.08.1.21.18-.15-.03.1.14-.15.04.08.11.15.21.07.25l-.19-.11c.14.08-.12-.05-.09-.02.17.06.2.11.32.18-.17-.05-.02.07.11.16l-.14-.06c.25.15,0,.07-.05.08-.06-.02-.19-.08-.18-.06.21.12.19.12.32.22,0,.02-.08.02-.17,0,.28.22.05.19.2.36l-.16-.07c.31.23-.04.17.11.31l-.27-.14c-.09-.02.05.08.25.17-.09-.02.11.11-.12.01-.06,0,.12.08.15.12-.12-.01-.11.01-.07.08h.02c-.06-.03-.18-.09-.2-.09.07.05-.1.01.24.16-.21-.05.11.16-.16.08.09.04.1.06.16.09-.01.04-.21-.02-.07.08-.05-.02-.15-.08-.17-.07.03.02.12.06.16.09.14.13-.23.03-.21.1.13.17,0,.22-.01.32l-.07-.03c.24.15-.29-.06.08.15-.07-.02-.04.01-.17-.05.17.11-.2-.02.01.12,0,0,0,0-.03-.03-.16-.04.02.09-.12.06-.03-.02-.04-.03-.11-.07-.13-.05.26.16-.06.02,0,0,.16.08.15.07-.16.02,0,.2.04.31-.22-.03-.54-.25-.32-.09-.06-.03.12.06.05.03.08.06-.37-.14-.21-.05.2.09.11.06.22.12-.14-.03-.32-.1-.19,0l-.1-.05c.28.17.1.13.43.32-.02.21.08.47.04.66-.15.14-.07.38-.34.47-.29-.09-.28-.08-.2.02-.04-.02-.05-.03-.09-.05.22.11,0,.04.22.15-.07.04-.04.13-.07.2-.02-.02-.2-.11-.19-.09l.14.08-.06-.03s.13.09.21.11c.11.26-.41.21-.43.4-.11,0-.05.09-.03.15-.36-.02-.65-.02-.5.21,0,0-.57-.29-.67-.4Z"/>
      <path class="cls-1" d="M62.12,42.07c-.11-.05-.18-.06-.32-.14.11.05.23.1.32.14Z"/>
      <path class="cls-1" d="M60.79,41.92s-.05-.02-.07-.02c0,0-.1-.06-.04-.03,0,0,.06.03.1.06Z"/>
      <path class="cls-1" d="M60.68,41.98c-.1-.05-.17-.11-.17-.12l.17.12Z"/>
      <path class="cls-1" d="M60.22,41.88c-.09-.03-.13-.06-.12-.07.05.02.08.04.12.07Z"/>
      <path class="cls-1" d="M60.45,42s-.06-.02-.12-.04c.08.04-.04-.04.12.04Z"/>
      <path class="cls-1" d="M60.06,42.06s.08.06-.03.01c.08.03-.11-.08.03-.01Z"/>
      <path class="cls-1" d="M60.17,42.22s-.03,0,0,0c-.05-.02-.12-.06-.12-.07l.13.06Z"/>
      <polygon class="cls-1" points="59.76 44.11 59.72 44.08 59.81 44.12 59.76 44.11"/>
      <path class="cls-1" d="M59.41,44.85c.06.04-.1-.04-.11-.04,0-.01.12.06.11.04Z"/>
      <polygon class="cls-1" points="59.72 45.49 59.72 45.48 59.92 45.58 59.72 45.49"/>
    </g>
    <g>
      <path class="cls-1" d="M31.17,51.66c0,.05.04.19,0,.09-.01-.09-.02-.15,0-.09Z"/>
      <path class="cls-1" d="M35.98,50.9c.05.57-.13.02-.13.39,0,.03-.05-.31-.06-.23.02.45-.12.2-.26-.12v-.09c-.04-.06,0,.23-.02.19-.01-.06-.01-.08-.03-.16.03.17-.01.09,0,.22-.02-.07-.04-.21-.07-.28l.03.2c.06.48-.06-.02-.05.23,0-.05-.01-.08-.02-.13,0,.3-.07.25-.11.37-.01-.07-.03-.2-.05-.28.04.21.03.27.02.31-.05-.21,0,.2-.03.09v-.05c.02.23-.05-.13-.01.15l-.04-.17c.05.3-.05-.15-.03,0v.06c.01.08-.02-.07-.02-.02v-.04c-.02.08-.06-.08-.02.15-.04-.19,0-.09-.06-.36-.03.26-.12.22-.19.24-.03-.09-.04-.12-.06-.21,0,.05-.02.05,0,.17,0,0-.03-.12-.03-.13-.03-.09.03.26,0,.16,0-.06-.02-.14-.04-.23.02.19,0,.16,0,.22,0-.04,0-.06-.02-.14.02.21-.04-.04-.03.1l-.02-.14c-.05-.16.05.29,0,.19,0-.04-.01-.1-.02-.15.03.25-.02.18-.02.26,0-.02,0-.06,0-.06-.02.03-.05-.04-.05.07-.02-.06-.06-.33-.07-.28.05.27-.02.12.05.43-.03-.04-.08-.14-.07-.04-.01-.11-.07-.33-.06-.36l-.04-.16c-.02-.11.02.04-.01-.1,0,.01,0,.12-.02.08.02.17.06.49.04.53,0-.11-.06-.3-.06-.35l.06.53s-.04-.22-.04-.14c.01.07.02.12.02.18,0-.03-.02.07-.07-.19-.02-.11,0-.06-.02-.15-.01,0,0,.1-.01.1v-.04s-.01.12.02.27c0,0-.03-.16,0-.09.02.16.01.2,0,.21,0-.04-.02-.12-.03-.19.02.22.01.29,0,.38.02.13-.03-.23-.02-.17-.06-.17-.01.26-.08,0,0-.02.04.18.03.15-.02-.01-.05-.2-.05-.13-.02-.11,0,.04,0,.07,0,.08-.01-.05,0-.07,0,.1-.01.27-.07.12.01.07.03.27.02.26l-.03-.17c-.02-.1-.02.02-.05-.13.02.21.02-.18.03-.02-.03-.14.02.27-.02.04-.01,0,0,.2-.03.05,0,.03-.03-.24-.04-.22-.01.03,0,.08,0,.14v.07c.03.16-.02-.02.02.16-.03-.14-.01.09-.06-.18l-.04-.21s.03.23.04.32c0-.02-.01-.06-.02-.1.06.33-.02-.02.01.23-.04-.11-.05,0-.09-.21,0,.1.01.22-.01.15,0-.03,0-.04-.01-.11-.03-.09-.01,0-.01.05,0-.05-.05-.19-.09-.3,0,.1.04.28.06.39-.07-.32,0,.22-.07-.08,0-.05-.01-.16-.04-.24-.07-.32.02.24-.03.09l.05.27c-.04-.17,0,.16-.05-.11.01.1-.04-.08.01.18-.07-.22-.05.15-.16-.32,0,.04-.02,0,.01.14.03.14,0-.11.01,0,0,0,0,.08.02.12-.02-.06-.03-.08-.06-.3-.05-.16.06.45.01.35-.02-.11-.03-.15-.03-.13l.02.19s-.06-.24-.09-.43c0,.03-.02.03,0,.16l-.05-.23c.04.17.01.11.02.16v-.05c-.02-.08-.02-.03-.02,0,.02.11.04.16.05.19,0,.08,0,.06,0,.16-.03-.18-.04-.13-.05-.14-.02-.04.02.16.02.16-.02-.09-.02-.01-.03-.15,0-.03.02.09.01,0-.02-.07-.05-.23-.04-.11,0,.09.07.36.03.24,0-.05-.02-.12-.02-.18l-.03-.09.03.16s-.01-.06-.02-.08c.03.17-.01.06.02.25,0,.02-.04-.11-.05-.13h0c-.03-.11-.03-.04-.02.07v-.04s-.02.02,0,.11c-.04-.12-.12-.62-.1-.41-.01,0,.03.3.06.41-.04-.11-.02.17-.09-.08,0,.07.02.11.02.15-.05-.06-.04.21-.13-.11,0-.07-.03-.16-.05-.26.02.15-.04-.15,0,.1.03.15.04.22.06.28,0,.08-.04.09-.07-.05.02.07.02.11.03.16-.04-.24-.06-.27-.06-.18l.02.14-.03-.15s.05.3.01.17c-.01-.06-.02-.11-.03-.15,0,.12.03.32,0,.2l-.05-.21s.01.15.03.21c-.05-.12-.06-.14-.1-.32.04.45,0,.48-.06.46l-.02-.11c-.03-.1.03.19,0,.12-.02-.1-.05-.22-.06-.35-.04-.11.01.19.01.24.02.14,0-.09.02.09,0,.05-.04-.11,0,.11-.02-.08-.05-.24-.06-.33v.11c-.05-.25-.04-.45-.11-.76v.04c-.05-.22-.02-.26-.06-.33,0,.11.06.42.08.51-.01.06.08.51.06.5-.03-.12.01-.03-.02-.21-.04-.17,0,.1-.03.04.03.08.06.3.06.34-.03-.1-.03-.2-.05-.22.02.12.02.22.05.3.05.28-.03-.07,0,.14-.04-.2-.07-.46-.1-.56.04.19.02.26.09.54-.02-.05-.05-.2-.06-.32-.03-.11.04.35-.03-.02l.03.2c-.01-.06-.03-.11-.05-.21,0,0,.02.27-.03-.03,0,.03-.02.02.02.22.04.12-.01-.15.05.12-.05-.22-.01.03,0,.11l-.02-.11s-.01.02,0,.15c0-.07-.02-.14-.03-.17l.03.17c0,.09-.06-.3-.07-.25v-.14s-.04-.13-.04-.08c.03.16.05.35.07.47,0,.07-.04-.18-.02-.01l-.02-.19c0-.05-.06-.26-.07-.25,0,.06.03.29.06.37,0,0-.03-.09-.05-.21,0,.06.03.17.04.27-.02-.1-.07-.25-.11-.4l-.03-.27h0c-.03-.21-.04-.16-.07-.39-.01-.03,0,.04,0,.1.08.35.07.49.13.82,0,.09-.16-.79-.09-.27.02.08.05.33.05.24-.02-.03.05.33,0,.2-.01-.14-.08-.33-.09-.53.02.11.03.08.02.05-.03-.12-.06-.33-.07-.32,0,.03-.02.04.02.21.03.19.01-.02.04.17,0,.07-.06-.21,0,.12,0-.03.05.16.07.29v.08s-.02-.12-.02-.12c-.04-.09.03.23,0,.2l-.06-.24c-.03-.21.05.09-.02-.25-.02-.01.01.16-.02.08,0-.03,0-.04,0-.07,0-.01-.1-.46-.07-.19,0,.11.02.12.04.25-.02.04,0,.18,0,.2-.04-.25-.03-.02-.06-.28.03.15.07.13.03-.12-.06-.3.03.04-.02-.26-.02,0-.07-.3-.11-.49,0-.01,0,.07,0,.1.03.18.04.18.07.36-.03-.05-.03.06,0,.24-.02-.09-.05-.27-.05-.29-.01.06-.05.04-.08-.01.07.29-.01.07.04.32.02.06.07.27.09.41-.01-.02-.02-.13-.04-.19.02.16-.06-.26-.03,0,0-.1-.06-.36-.1-.59,0,.13-.03-.16-.05-.16,0,.13,0,.24,0,.29-.06-.21-.06,0-.08.02-.03-.11-.07-.38-.09-.42-.01,0,.06.28.02.16v-.05c0,.06-.08-.17-.01.21l-.05-.28s0,.04,0,.07c-.02-.09-.04-.17-.04-.24-.05-.19-.02.04-.03.05l.04.17c0,.14-.04-.03-.06.04l-.03-.16v.1c-.02-.16-.05-.26-.03-.13l-.04-.41c.03.09.03.2.06.36.03.14.04.09.02-.07-.01-.02,0,.02,0,.08-.04-.23-.03-.22-.05-.37,0,0-.02-.06,0,.01-.01-.11,0-.13,0-.14,0,.09.03.14.04.21-.04-.2-.03-.26,0-.21.05.23,0-.15.03-.09.03.2.05.37.05.45.03.1.01,0,.04.09-.02-.15-.06-.39-.06-.48l.03.15c0-.08-.04-.3-.02-.26.04.07.08.06.1.08l.03.15c-.05-.32.02-.13.01-.27.06.14.04-.15.1.1.03-.12.06-.25.12-.2l.03.22c-.02-.16.03.12.03.09-.04-.17-.03-.23-.05-.36.06.16.05-.03.05-.18l.03.15c-.03-.29.04-.04.08,0,.01.06.05.2.05.18-.03-.24-.02-.23-.02-.38.02,0,.05.05.09.14,0-.35.1-.14.12-.36l.04.18c0-.39.13-.06.14-.26l.05.3c.03.09.02-.09-.02-.3.03.09.01-.15.07.09.03.05,0-.14,0-.19.05.11.06.08.08.02v-.02c0,.07.02.19.03.21,0-.09.06.07-.02-.28.07.2.05-.18.13.09-.02-.1-.02-.12-.02-.18.03,0,.1.18.09.01.01.05.02.17.04.18,0-.04-.02-.13-.02-.18.01-.19.13.17.16.12.04-.2.14-.12.21-.17v.07c-.01-.28.12.27.06-.15.02.07.03.03.05.17-.02-.2.09.17.07-.08,0,0,0,0,0,.04.06.15.04-.07.1.07,0,.03,0,.06.01.13.04.14-.03-.31.04.04,0,0-.03-.18-.03-.16.09.12.12-.11.17-.2.09.2.11.58.1.32.02.07-.02-.13,0-.06,0-.1.09.38.07.2-.04-.21-.02-.12-.04-.25.06.13.1.32.09.16l.02.11c-.03-.32.03-.16-.01-.53.14-.09.25-.32.39-.39.16.04.27-.15.46.02.09.29.09.28.11.15,0,.05,0,.06.02.1-.04-.24.02-.03-.02-.26.06.04.1-.04.16-.05,0,.03.03.23.04.21l-.02-.16v.07s0-.16-.02-.23c.1-.24.33.22.46.14.05.09.08,0,.11-.06.17.3.31.55.38.3,0,0,.1.63.08.78Z"/>
      <path class="cls-1" d="M31.19,51.63c.03.12.05.18.07.35-.02-.11-.05-.24-.07-.35Z"/>
      <path class="cls-1" d="M31.75,52.82s.01.05.02.07c0,0,.01.11,0,.05,0-.01,0-.07-.02-.12Z"/>
      <path class="cls-1" d="M31.85,52.87c.02.11.02.2,0,.21v-.21Z"/>
      <path class="cls-1" d="M32.01,53.3c.02.09.03.14.02.14-.01-.06-.01-.09-.02-.14Z"/>
      <path class="cls-1" d="M31.97,53.05s.02.06.04.12c-.02-.09,0,.06-.04-.12Z"/>
      <path class="cls-1" d="M32.2,53.34s0-.1.02.02c-.02-.08,0,.14-.02-.02Z"/>
      <path class="cls-1" d="M32.25,53.16s0,.03,0,0c.01.05.02.13.02.14l-.03-.13Z"/>
      <polygon class="cls-1" points="33.63 52.46 33.63 52.51 33.61 52.41 33.63 52.46"/>
      <path class="cls-1" d="M34.26,52.34c0-.07.02.1.03.12,0,.01-.02-.13-.03-.12Z"/>
      <polygon class="cls-1" points="34.51 51.73 34.51 51.74 34.47 51.52 34.51 51.73"/>
    </g>
  </g>
</svg>