<?xml version="1.0" encoding="UTF-8"?>
<svg id="Layer_3" data-name="Layer 3" xmlns="http://www.w3.org/2000/svg" viewBox="0 0 300 300">
  <defs>
    <style>
      .cls-1 {
        fill: #fff;
      }

      .cls-2 {
        fill: #202020;
      }
    </style>
  </defs>
  <g>
    <ellipse class="cls-1" cx="123.77" cy="133.65" rx="12.94" ry="19.23"/>
    <g>
      <path class="cls-1" d="M137.23,133.9c-.05-.38-.26.2-.11-.25.12.05.2.13.11.25Z"/>
      <path class="cls-1" d="M137.03,132.39c-.79-1.16-.22-2.82-.95-4.05-.06-.15.42-.04.26-.37-.86-1.13-1-3.12-1.25-4.75l.14.04c-.04-.32-.53-.5-.63-.81.07-.04.15.04.21-.07-.25.03-.36-.47-.58-.51.03-.16.2-.23.21-.43l-.32-.04c-.8-.13-.59-1.09-1.24-1.49.07,0,.15.02.17-.06-.96-.67-1.73-1.8-2.76-2.48.1-.04.25-.14.27-.26-.24.17-.56-.03-.84-.2.06-.32-.61-.11-.81-.45l.06-.04c-.39.1-.24-.4-.63-.19l-.04-.28c-.31.3-.25-.38-.55-.31l-.03.08c-.23-.01-.24-.26-.46-.26v-.05c-.48-.07-.65-.38-.75-.07-.07-.3.46.05.35-.39-1.59-.24-3.16-.43-4.7-.15-.2-.09-.32-.1-.38-.21-.14.1-.58.18-.66.39.05-.02-.14-.12-.23-.1-.31,0-.17.44-.52.42.08-.12.09-.24,0-.33-.17.33-.51.41-.75.65.02-.07.07-.14.02-.22-.18.42-.59.25-.77.56v-.21c-.55.05.08.4-.34.52.05-.11-.02-.15-.05-.22-.13.52-.73.76-.94,1.13,0-.04-.04-.07-.04-.07-.28.32-.71.52-.92.98-.17.07-.29-.36-.55.03.28.24-.4.68.09.75-.32.22-.76.66-.82.93-.01-.22-.48-.11-.31-.39l-.33.07c-.1-.12.2-.18,0-.23-.09.15-.27.61-.39.71.03.39.24.85.03,1.28,0-.27-.42-.1-.39-.26.09.32.17.62.28.94-.06.15-.27-.11-.29.14.09.03.1.15.14.25-.06.04-.21.63-.57.53-.16,0,.05-.27-.15-.16-.13.27-.03.33-.13.61h-.05c-.12.15-.08.58.19.46.06-.12-.22-.04-.05-.18.14.21.07.55-.04.82-.02-.11-.11-.14-.19-.21.11.47.07.89.05,1.34.16.06-.25-.25-.14-.29-.4.47-.05,1.19-.48,1.55-.01-.08.25.02.2.02-.09.26-.33.18-.28.38-.15-.02,0,.23,0,.41.08.11-.08.03-.06-.13.04.27.08,1.3-.22,1.84.1,0,.29.41.26.53l-.22-.08c-.16.1-.03.45-.23.44.22.32-.08-1.13.08-.71-.21.07.27.58-.02.46-.02.27.21.56-.03.79.04-.07-.29-.25-.3-.03,0,.39.1.12.14.44l.07.2c.22.03-.06.34.2.22-.2.03.08.56-.29.5l-.29-.07c.02.17.3.29.42.43-.03.02-.09.06-.13.05.44.04-.05.39.29.6-.18.34-.03.87-.3,1.04.14.27.31.5.23.81-.04-.06-.06-.14-.16-.15-.12.2,0,.24.07.41-.06-.04-.26.4-.38.62.16.26.39.14.54.16-.41.28.36.71,0,1.05-.07-.08-.25-.36-.34-.13-.41.3.36.45.23.86l.34-.15c-.19.2.31.53-.07.55.15.11-.04.47.3.37-.21.7.51,1.45-.02,2,.08.07.08.31.24.22.15-.2-.19-.17-.07-.26.03.08.13.07.18.06-.03.21-.02.37-.35.27-.09.49.72.27.75.84-.15.02-.19.08-.11.23l.33.21c.05.36-.25.31-.48.4.1.17.19.39.39.41l-.2.33c.15-.24.2.09.29.15l-.09-.06c-.08.07.06.26.13.35.13-.09.1-.32.1-.45.14.05.17.2.34.27-.24.06-.04.36,0,.51.03.18.29.08.3.13-.11.06.11.26-.11.22-.06-.04.05-.17-.1-.22-.03.14-.24.23.02.37.19.11.41-.25.43.12-.09-.05-.19-.02-.3-.05l.03.35.2-.09c-.03.06-.06.05-.08.08.25-.02.28.41.55.34.1.12.04.36.1.51l-.03-.02c-.01.23.19.4.4.45l-.05.02c.04.1.19.29.37.32.01.3-.64.54-.24.62.17.21.58.09.63-.08.08.23.27.4.43.58.18.16.34.33.36.6.11-.01.13-.08.25-.01.18.29.48.49.74.69.26.2.47.44.54.77-.22-.04-.15.17-.22.27.25-.06.03.28.29.04.11-.17.18-.24.08-.41.39.13.84.49.93.75-.05-.13.06-.14.16-.16-.19.26.04.44.28.44l.12-.16.03.24c.1-.02.26-.32.36-.05-.02.07-.04.15-.03.22.28-.06.65-.21.81.02l.09.34c.11,0,.31-.09.17-.24.33.28.58.33.65.61.81-.41,1.7-.42,2.48-.46v.15c.22.12.07-.26.23-.17-.05.15.21.26.07.47.33.08.35-.34.52-.45-.01-.19-.13.15-.14-.09.01-.07.44.05.41-.23.1.09.11.31.1.43l.14-.18c.34.27-.36.7,0,1.05l.18-.09c.27.25-.42.45.1.44.18-.18.21-.67,0-.72.37-.23-.04-.73.37-.86.17.12-.3.16-.15.36.28.14.34-.27.54-.26-.23-.03-.19-.36-.1-.45.25.04-.01.32.28.2-.03-.18.16-.42-.1-.41-.08-.39.32-.06.32-.39.22.18.02.69.39.65-.17-.2.19-.5-.16-.75.15,0,.27.17.27.35.26.06.12-.65.46-.26l-.1-.26c.1.04.2.04.37.1.15-.1.22-.6.46-.28.02-.06.32-.32.03-.43-.28.03-.08.35-.42.13.33.15.24-.25.27-.41l.12.1c.02-.1.18-.2.11-.36.01.11.11.16.18.15l-.1-.23c.16-.3.34.25.54-.02l-.06.3c.01-.07.25.02.32-.15-.1-.2-.23-.46-.3-.62.05-.2.23.1.19-.18l.03.35c.03.08.37.12.53-.07.06-.17-.01-.56-.27-.45.08-.09.3-.14.35.04.13-.26-.2-.12-.14-.39.18.02.51-.11.8-.14l.13.43.11-.14c.09.36.24.04.41.33.11-.07.12-.26.13-.4-.6,0-.3-.71-.72-.88.18-.44,1.06.35.75-.45-.14,0-.3-.37-.35-.05.2-.23-.27-.41.06-.6.02.31.53,0,.56.45-.11-.1-.21.12-.2.2.21-.02.36.26.53-.01.06-.19.2-.42-.02-.5-.22-.12-.13.26-.29.03.12-.36.49-.23.16-.59-.07.23-.34.15-.49.06.02-.09.02-.19.03-.29l.12.13c.3-.33-.21-.26.01-.61l.38-.03c.21.22-.39.49.06.64.14-.24-.03-.43.2-.61,0,.07-.02.15,0,.22.06-.08.66.1.52-.42-.03-.24-.13-.12-.28-.2.14-.43.01-.63.1-.9.29.18.22-.46.43-.03-.24.06-.47.67-.23.95.44.02-.21.29.11.56.17-.33.53-.14.79-.09.06-.09,0-.23-.02-.3-.21-.14-.26-.01-.49-.11.22-.36.24-.78.11-1.08.16-.08.38.04.34.21.14-.48.32-.97.53-1.4-.47.17.07-.53-.31-.43-.16.21-.5.32-.63.14.07-.14.17.06.27.02-.15-.25.43-.19.16-.47-.01.46.44.22.71.39-.07-.36.21.08.31-.23-.08-.37-.12-.79-.1-1.16.41-.37.26-1.13.31-1.53.19-.18.52.02.62-.2.04-.27-.41.14-.18-.24l.06.05c-.06-.13.36-.71-.14-.89l.37.17c.04-.07-.04-.15-.07-.22.12.01.25-.06.31.07.29-.22.01-.54.03-.81l-.24.15c-.14-.48.15-.78.07-1.24l.22.03-.12-.28c.21.08.36-.17.18-.32l.52.74c-.14.19-.26-.23-.48-.12-.19.09-.15.52.04.6.04-.16,0-.17-.08-.3.31-.03.28.21.47.35,0-.09.1-.2,0-.23.13.18.14.35.12.64-.1-.2-.2.09-.28,0,.27.05.32.33.21.67-.34.21.14.69-.03,1.08-.25-.21-.42-.44-.5-.7-.16.23-.03.28-.21.51.18.15.48.29.54.64l-.2-.02c.05.32.35.37.22.74-.22.63-.41,1.29-.55,1.78l-.2-.03c.36.39-.13.94-.05,1.36-.36.56-.3,1.4-.75,1.58-.13.56-.3,1.08-.51,1.59-.1.26-.21.51-.33.76-.14.24-.3.49-.47.74l-.15-.32c.07.29-.22.03-.29.23.33-.08.11.41.18.64-.48.32-.7,1-.83,1.53l-.17-.11c-.02.62-.68.84-1.13,1.24-.11-.01-.33-.07-.44.06-.02.46-.16.56-.4,1.05-.27.24-.82.51-1.19.62-.91,1.14-2.35,1.55-3.75,2.08l-.15-.21c-.32.22-.7.32-1.09.38-.39.05-.79.12-1.19.06-.39-.04-.78-.08-1.14-.11-.36-.06-.7-.13-1.02-.13l.21-.37c-.34-.2-.86-.1-.86.19-.32-.25-.99-.16-1.09-.56-.33-.21-.51-.04-.83-.14-.31-.26-.53-.41-.77-.54-.21-.15-.44-.28-.76-.46l.13.13c.12-.03.22-.17.09-.29-.29-.07-.74-.67-.82-.13-.4-.72-1.54-1.05-1.74-1.89-.06.14-.2.01-.32.01-.49-.49-.64-1.25-1.15-1.54,0-.12.29,0,.14-.22-.14-.1-.15.1-.32-.02-.39-.39-.62-.9-.82-1.4-.18-.51-.3-1.02-.55-1.44-.95-1.46-1.46-3.21-1.85-4.79h.1c-.25-.23-.23-.56-.23-.88.02-.32.02-.61-.3-.78.07-.14-.04-.49.16-.43-.35-.39.06-1.23-.33-1.81,0,.06.02.09.07.15.15-.65-.21-1.18-.02-1.85.04.07.08.19.18.2.18-.26-.43-.59.03-.74,0-.15-.24-.1-.22,0,.13-1.45-.08-3,0-4.53.42-1.04.78.04.57-.85.1-.05-.17-.08-.07-.07-.07-.35.61-.41.4-.68-.3.04-.13-.18-.3-.22.29-.62.61-.68.51-1.23l.14.07c-.28-.7.12-1.32-.17-1.96.95-3.28,2.34-6.48,4.92-9.05,1.31-1.21,2.84-2.26,4.61-2.9,1.76-.65,3.76-.84,5.64-.38.4.29.6.44.84.52.24.07.49.1.96.2-.06.05-.12.04-.08.12.16-.29.64.21.84-.04.62.31,1.2.63,1.77.96.53.38,1.13.7,1.62,1.18-.19-.12-.44.02-.23.17l.34.02-.03.1c.16.08.42.09.35-.11,1.38,1.08,2.39,2.5,3.12,3.97.77,1.46,1.28,2.99,1.85,4.47.11.76.56,1.73.79,2.52.13,2.46.01,4.57.35,6.96,0,0-.86-.32-1.09-1.26Z"/>
      <path class="cls-1" d="M137.25,134.36c-.17.08-.27.34-.48.12.15-.02.33-.15.48-.12Z"/>
      <path class="cls-1" d="M134.58,140.93s-.09.07-.13.08c.01-.08-.1-.19,0-.23-.01.08.06.09.12.15Z"/>
      <path class="cls-1" d="M133.96,142.52c-.12-.07-.12-.45-.07-.66.02.22.06.44.07.66Z"/>
      <path class="cls-1" d="M132.81,143.72c-.17.07-.22,0-.13-.15.08.02.09.09.13.15Z"/>
      <path class="cls-1" d="M133.06,143.96c-.06.12-.16.14-.26.16.12.05.06-.3.26-.16Z"/>
      <path class="cls-1" d="M131.04,146.59c-.04.07-.04.28-.21.24.14,0,.07-.41.21-.24Z"/>
      <path class="cls-1" d="M130.27,147.89s-.07.03-.08.1c-.11.02-.12-.12-.09-.18l.17.09Z"/>
      <path class="cls-1" d="M112.18,137.34c.03.05.07.11.1.16h-.15c.02-.06.03-.11.05-.16Z"/>
      <path class="cls-1" d="M113.49,124.67c-.02-.19.17-.06.2-.08-.04.15-.15-.12-.2.08Z"/>
      <polygon class="cls-1" points="116.43 118.36 116.39 118.4 116.18 118.19 116.43 118.36"/>
    </g>
  </g>
  <g>
    <ellipse class="cls-1" cx="147.08" cy="135.01" rx="12.94" ry="19.23"/>
    <g>
      <path class="cls-1" d="M160.55,135.26c-.05-.38-.26.2-.11-.25.12.05.2.13.11.25Z"/>
      <path class="cls-1" d="M160.34,133.75c-.79-1.16-.22-2.82-.95-4.05-.06-.15.42-.04.26-.37-.86-1.13-1-3.12-1.25-4.75l.14.04c-.04-.32-.53-.5-.63-.81.07-.04.15.04.21-.07-.25.03-.36-.47-.58-.51.03-.16.2-.23.21-.43l-.32-.04c-.8-.13-.59-1.09-1.24-1.49.07,0,.15.02.17-.06-.96-.67-1.73-1.8-2.76-2.48.1-.04.25-.14.27-.26-.24.17-.56-.03-.84-.2.06-.32-.61-.11-.81-.45l.06-.04c-.39.1-.24-.4-.63-.19l-.04-.28c-.31.3-.25-.38-.55-.31l-.03.08c-.23-.01-.24-.26-.46-.26v-.05c-.48-.07-.65-.38-.75-.07-.07-.3.46.05.35-.39-1.59-.24-3.16-.43-4.7-.15-.2-.09-.32-.1-.38-.21-.14.1-.58.18-.66.39.05-.02-.14-.12-.23-.1-.31,0-.17.44-.52.42.08-.12.09-.24,0-.33-.17.33-.51.41-.75.65.02-.07.07-.14.02-.22-.18.42-.59.25-.77.56v-.21c-.55.05.08.4-.34.52.05-.11-.02-.15-.05-.22-.13.52-.73.76-.94,1.13,0-.04-.04-.07-.04-.07-.28.32-.71.52-.92.98-.17.07-.29-.36-.55.03.28.24-.4.68.09.75-.32.22-.76.66-.82.93-.01-.22-.48-.11-.31-.39l-.33.07c-.1-.12.2-.18,0-.23-.09.15-.27.61-.39.71.03.39.24.85.03,1.28,0-.27-.42-.1-.39-.26.09.32.17.62.28.94-.06.15-.27-.11-.29.14.09.03.1.15.14.25-.06.04-.21.63-.57.53-.16,0,.05-.27-.15-.16-.13.27-.03.33-.13.61h-.05c-.12.15-.08.58.19.46.06-.12-.22-.04-.05-.18.14.21.07.55-.04.82-.02-.11-.11-.14-.19-.21.11.47.07.89.05,1.34.16.06-.25-.25-.14-.29-.4.47-.05,1.19-.48,1.55-.01-.08.25.02.2.02-.09.26-.33.18-.28.38-.15-.02,0,.23,0,.41.08.11-.08.03-.06-.13.04.27.08,1.3-.22,1.84.1,0,.29.41.26.53l-.22-.08c-.16.1-.03.45-.23.44.22.32-.08-1.13.08-.71-.21.07.27.58-.02.46-.02.27.21.56-.03.79.04-.07-.29-.25-.3-.03,0,.39.1.12.14.44l.07.2c.22.03-.06.34.2.22-.2.03.08.56-.29.5l-.29-.07c.02.17.3.29.42.43-.03.02-.09.06-.13.05.44.04-.05.39.29.6-.18.34-.03.87-.3,1.04.14.27.31.5.23.81-.04-.06-.06-.14-.16-.15-.12.2,0,.24.07.41-.06-.04-.26.4-.38.62.16.26.39.14.54.16-.41.28.36.71,0,1.05-.07-.08-.25-.36-.34-.13-.41.3.36.45.23.86l.34-.15c-.19.2.31.53-.07.55.15.11-.04.47.3.37-.21.7.51,1.45-.02,2,.08.07.08.31.24.22.15-.2-.19-.17-.07-.26.03.08.13.07.18.06-.03.21-.02.37-.35.27-.09.49.72.27.75.84-.15.02-.19.08-.11.23l.33.21c.05.36-.25.31-.48.4.1.17.19.39.39.41l-.2.33c.15-.24.2.09.29.15l-.09-.06c-.08.07.06.26.13.35.13-.09.1-.32.1-.45.14.05.17.2.34.27-.24.06-.04.36,0,.51.03.18.29.08.3.13-.11.06.11.26-.11.22-.06-.04.05-.17-.1-.22-.03.14-.24.23.02.37.19.11.41-.25.43.12-.09-.05-.19-.02-.3-.05l.03.35.2-.09c-.03.06-.06.05-.08.08.25-.02.28.41.55.34.1.12.04.36.1.51l-.03-.02c-.01.23.19.4.4.45l-.05.02c.04.1.19.29.37.32.01.3-.64.54-.24.62.17.21.58.09.63-.08.08.23.27.4.43.58.18.16.34.33.36.6.11-.01.13-.08.25-.01.18.29.48.49.74.69.26.2.47.44.54.77-.22-.04-.15.17-.22.27.25-.06.03.28.29.04.11-.17.18-.24.08-.41.39.13.84.49.93.75-.05-.13.06-.14.16-.16-.19.26.04.44.28.44l.12-.16.03.24c.1-.02.26-.32.36-.05-.02.07-.04.15-.03.22.28-.06.65-.21.81.02l.09.34c.11,0,.31-.09.17-.24.33.28.58.33.65.61.81-.41,1.7-.42,2.48-.46v.15c.22.12.07-.26.23-.17-.05.15.21.26.07.47.33.08.35-.34.52-.45-.01-.19-.13.15-.14-.09.01-.07.44.05.41-.23.1.09.11.31.1.43l.14-.18c.34.27-.36.7,0,1.05l.18-.09c.27.25-.42.45.1.44.18-.18.21-.67,0-.72.37-.23-.04-.73.37-.86.17.12-.3.16-.15.36.28.14.34-.27.54-.26-.23-.03-.19-.36-.1-.45.25.04-.01.32.28.2-.03-.18.16-.42-.1-.41-.08-.39.32-.06.32-.39.22.18.02.69.39.65-.17-.2.19-.5-.16-.75.15,0,.27.17.27.35.26.06.12-.65.46-.26l-.1-.26c.1.04.2.04.37.1.15-.1.22-.6.46-.28.02-.06.32-.32.03-.43-.28.03-.08.35-.42.13.33.15.24-.25.27-.41l.12.1c.02-.1.18-.2.11-.36.01.11.11.16.18.15l-.1-.23c.16-.3.34.25.54-.02l-.06.3c.01-.07.25.02.32-.15-.1-.2-.23-.46-.3-.62.05-.2.23.1.19-.18l.03.35c.03.08.37.12.53-.07.06-.17-.01-.56-.27-.45.08-.09.3-.14.35.04.13-.26-.2-.12-.14-.39.18.02.51-.11.8-.14l.13.43.11-.14c.09.36.24.04.41.33.11-.07.12-.26.13-.4-.6,0-.3-.71-.72-.88.18-.44,1.06.35.75-.45-.14,0-.3-.37-.35-.05.2-.23-.27-.41.06-.6.02.31.53,0,.56.45-.11-.1-.21.12-.2.2.21-.02.36.26.53-.01.06-.19.2-.42-.02-.5-.22-.12-.13.26-.29.03.12-.36.49-.23.16-.59-.07.23-.34.15-.49.06.02-.09.02-.19.03-.29l.12.13c.3-.33-.21-.26.01-.61l.38-.03c.21.22-.39.49.06.64.14-.24-.03-.43.2-.61,0,.07-.02.15,0,.22.06-.08.66.1.52-.42-.03-.24-.13-.12-.28-.2.14-.43.01-.63.1-.9.29.18.22-.46.43-.03-.24.06-.47.67-.23.95.44.02-.21.29.11.56.17-.33.53-.14.79-.09.06-.09,0-.23-.02-.3-.21-.14-.26-.01-.49-.11.22-.36.24-.78.11-1.08.16-.08.38.04.34.21.14-.48.32-.97.53-1.4-.47.17.07-.53-.31-.43-.16.21-.5.32-.63.14.07-.14.17.06.27.02-.15-.25.43-.19.16-.47-.01.46.44.22.71.39-.07-.36.21.08.31-.23-.08-.37-.12-.79-.1-1.16.41-.37.26-1.13.31-1.53.19-.18.52.02.62-.2.04-.27-.41.14-.18-.24l.06.05c-.06-.13.36-.71-.14-.89l.37.17c.04-.07-.04-.15-.07-.22.12.01.25-.06.31.07.29-.22.01-.54.03-.81l-.24.15c-.14-.48.15-.78.07-1.24l.22.03-.12-.28c.21.08.36-.17.18-.32l.52.74c-.14.19-.26-.23-.48-.12-.19.09-.15.52.04.6.04-.16,0-.17-.08-.3.31-.03.28.21.47.35,0-.09.1-.2,0-.23.13.18.14.35.12.64-.1-.2-.2.09-.28,0,.27.05.32.33.21.67-.34.21.14.69-.03,1.08-.25-.21-.42-.44-.5-.7-.16.23-.03.28-.21.51.18.15.48.29.54.64l-.2-.02c.05.32.35.37.22.74-.22.63-.41,1.29-.55,1.78l-.2-.03c.36.39-.13.94-.05,1.36-.36.56-.3,1.4-.75,1.58-.13.56-.3,1.08-.51,1.59-.1.26-.21.51-.33.76-.14.24-.3.49-.47.74l-.15-.32c.07.29-.22.03-.29.23.33-.08.11.41.18.64-.48.32-.7,1-.83,1.53l-.17-.11c-.02.62-.68.84-1.13,1.24-.11-.01-.33-.07-.44.06-.02.46-.16.56-.4,1.05-.27.24-.82.51-1.19.62-.91,1.14-2.35,1.55-3.75,2.08l-.15-.21c-.32.22-.7.32-1.09.38-.39.05-.79.12-1.19.06-.39-.04-.78-.08-1.14-.11-.36-.06-.7-.13-1.02-.13l.21-.37c-.34-.2-.86-.1-.86.19-.32-.25-.99-.16-1.09-.56-.33-.21-.51-.04-.83-.14-.31-.26-.53-.41-.77-.54-.21-.15-.44-.28-.76-.46l.13.13c.12-.03.22-.17.09-.29-.29-.07-.74-.67-.82-.13-.4-.72-1.54-1.05-1.74-1.89-.06.14-.2.01-.32.01-.49-.49-.64-1.25-1.15-1.54,0-.12.29,0,.14-.22-.14-.1-.15.1-.32-.02-.39-.39-.62-.9-.82-1.4-.18-.51-.3-1.02-.55-1.44-.95-1.46-1.46-3.21-1.85-4.79h.1c-.25-.23-.23-.56-.23-.88.02-.32.02-.61-.3-.78.07-.14-.04-.49.16-.43-.35-.39.06-1.23-.33-1.81,0,.06.02.09.07.15.15-.65-.21-1.18-.02-1.85.04.07.08.19.18.2.18-.26-.43-.59.03-.74,0-.15-.24-.1-.22,0,.13-1.45-.08-3,0-4.53.42-1.04.78.04.57-.85.1-.05-.17-.08-.07-.07-.07-.35.61-.41.4-.68-.3.04-.13-.18-.3-.22.29-.62.61-.68.51-1.23l.14.07c-.28-.7.12-1.32-.17-1.96.95-3.28,2.34-6.48,4.92-9.05,1.31-1.21,2.84-2.26,4.61-2.9,1.76-.65,3.76-.84,5.64-.38.4.29.6.44.84.52.24.07.49.1.96.2-.06.05-.12.04-.08.12.16-.29.64.21.84-.04.62.31,1.2.63,1.77.96.53.38,1.13.7,1.62,1.18-.19-.12-.44.02-.23.17l.34.02-.03.1c.16.08.42.09.35-.11,1.38,1.08,2.39,2.5,3.12,3.97.77,1.46,1.28,2.99,1.85,4.47.11.76.56,1.73.79,2.52.13,2.46.01,4.57.35,6.96,0,0-.86-.32-1.09-1.26Z"/>
      <path class="cls-1" d="M160.56,135.72c-.17.08-.27.34-.48.12.15-.02.33-.15.48-.12Z"/>
      <path class="cls-1" d="M157.89,142.29s-.09.07-.13.08c.01-.08-.1-.19,0-.23-.01.08.06.09.12.15Z"/>
      <path class="cls-1" d="M157.27,143.88c-.12-.07-.12-.45-.07-.66.02.22.06.44.07.66Z"/>
      <path class="cls-1" d="M156.12,145.08c-.17.07-.22,0-.13-.15.08.02.09.09.13.15Z"/>
      <path class="cls-1" d="M156.37,145.32c-.06.12-.16.14-.26.16.12.05.06-.3.26-.16Z"/>
      <path class="cls-1" d="M154.35,147.95c-.04.07-.04.28-.21.24.14,0,.07-.41.21-.24Z"/>
      <path class="cls-1" d="M153.58,149.25s-.07.03-.08.1c-.11.02-.12-.12-.09-.18l.17.09Z"/>
      <path class="cls-1" d="M135.49,138.7c.03.05.07.11.1.16h-.15c.02-.06.03-.11.05-.16Z"/>
      <path class="cls-1" d="M136.8,126.03c-.02-.19.17-.06.2-.08-.04.15-.15-.12-.2.08Z"/>
      <polygon class="cls-1" points="139.74 119.72 139.7 119.77 139.5 119.55 139.74 119.72"/>
    </g>
  </g>
  <g>
    <ellipse class="cls-2" cx="122.84" cy="134.66" rx="5.23" ry="8.3"/>
    <g>
      <path class="cls-2" d="M128.75,134.77c-.08-.17-.33.09-.14-.11.15.02.26.06.14.11Z"/>
      <path class="cls-2" d="M128.53,134.11c-.97-.46-.08-1.21-.78-1.68-.05-.06.52-.08.37-.2-.84-.4-.58-1.25-.32-2.11h.15c.05-.18-.46-.15-.45-.3.09-.04.15-.02.26-.1-.29.09-.23-.18-.46-.13.08-.1.3-.2.38-.32l-.34.08c-.8.17-.21-.49-.71-.55.07-.03.14-.04.19-.1-.67-.14-.92-.64-1.41-.87.1-.07.27-.21.34-.33-.27.23-.44.19-.58.15.2-.33-.39.12-.37-.13l.06-.06c-.31.25,0-.28-.33.05l.1-.27c-.31.42,0-.31-.22-.13l-.05.09c-.13.07-.05-.19-.16-.14l.02-.06c-.22.06-.22-.25-.36.13.05-.33.22-.07.3-.54-.76.14-1.32.01-1.94.14-.1-.14-.16-.18-.21-.32-.05.1-.23.12-.22.35.02-.02-.11-.18-.15-.18-.17-.09.04.46-.14.34,0-.12-.03-.24-.11-.37.02.32-.13.35-.19.51-.02-.07,0-.12-.07-.23.05.38-.27.07-.26.33l-.09-.22c-.33-.11.23.44,0,.4-.01-.08-.08-.15-.13-.23.12.44-.17.48-.18.7-.02-.03-.06-.07-.06-.07-.08.16-.32.19-.3.46-.12-.02-.41-.39-.47-.19.36.29-.06.37.43.61-.15.07-.43.18-.36.35-.11-.16-.52-.25-.48-.38l-.3-.07c-.15-.12.12-.06-.1-.16-.03.07.01.35-.08.37.18.27.58.63.54.83-.11-.17-.48-.2-.52-.29.21.22.44.45.67.66,0,.07-.34-.15-.27-.01.11.05.17.12.24.19-.06,0,0,.28-.44.13-.18-.04-.04-.14-.22-.13-.05.12.1.18.06.3l-.06-.02c-.09.05.1.29.37.3.03-.05-.27-.08-.11-.11.23.15.25.3.22.41-.06-.06-.17-.1-.29-.16.28.27.35.46.44.67.21.07-.36-.18-.24-.17-.36.13.28.55-.18.62-.03-.04.31.06.25.05-.05.1-.36.02-.26.11-.18-.03.04.1.08.18.12.06-.09,0-.1-.07.12.13.34.57.04.75.12.02.43.2.4.25l-.28-.06c-.18.03,0,.18-.24.16.33.16-.24-.47,0-.29-.25,0,.42.27.04.19,0,.11.31.24.03.32.05-.02-.39-.13-.38-.04.04.16.13.06.22.19l.11.09c.28.03-.05.13.27.1-.24,0,.13.22-.33.18l-.36-.04c.03.07.38.13.54.19-.03,0-.11.02-.17.02.56.03-.05.16.38.24-.2.13-.02.34-.37.41.17.1.38.19.26.31-.05-.02-.07-.05-.19-.06-.16.08-.01.1.08.16-.08-.01-.33.17-.51.27.18.1.48.03.66.03-.54.14.38.25-.11.42-.08-.03-.28-.12-.41-.02-.54.16.42.15.18.34l.45-.1c-.27.11.3.18-.17.23.17.02-.12.2.32.11-.34.32.34.53-.41.86.08.02.03.13.25.05.23-.12-.19-.04-.03-.1.02.03.14,0,.2,0-.08.1-.1.17-.48.19-.23.25.78-.02.67.23-.18.04-.24.08-.2.13l.34.02c-.03.15-.38.21-.68.31.07.06.09.15.32.11l-.34.22c.24-.16.2,0,.29,0h-.09c-.12.05,0,.11.04.14.18-.08.22-.19.25-.26.14-.01.13.05.3.04-.29.1-.16.19-.17.26-.04.09.28-.04.28-.02-.15.06.02.11-.21.15-.06,0,.12-.11-.02-.09-.09.09-.35.19-.12.2.17,0,.55-.26.42-.07-.08,0-.2.05-.31.07l-.09.18.26-.11c-.06.05-.08.05-.11.07.28-.09.16.13.47,0,.05.04-.12.2-.12.26h-.03c-.11.14.03.17.23.13l-.05.03s.08.1.25.05c-.13.19-.89.59-.52.49.07.08.52-.16.64-.29-.06.25.4.13.16.5.1-.05.15-.11.23-.12.07.27.54.09.29.62-.12.04-.19.21-.29.33.2-.15-.11.24.18-.07.16-.2.24-.29.26-.4.19-.03.31.07.23.31.04-.12.1-.16.17-.21-.23.33-.19.43-.05.34l.13-.21-.09.24c.06-.05.27-.44.21-.2-.04.09-.08.17-.11.24.15-.14.35-.44.33-.22l-.08.36s.15-.21.14-.33c.02.25.08.27.05.59.37-.68.46-.74.63-.69l.02.18c.07.17-.02-.31.02-.2.01.18.1.36.1.59.12.17.04-.34.06-.43-.05-.24,0,.16-.06-.14-.02-.09.14.16.04-.19.06.14.13.39.16.54v-.18c.2.38.07.77.29,1.26l.05-.07c.19.35-.08.46.16.54.04-.2-.09-.73-.2-.86.1-.15-.24-.85-.13-.86.12.19-.06.08.07.35.17.25.05-.2.14-.12-.11-.11-.23-.45-.23-.53.13.12.12.33.21.32-.08-.2-.1-.37-.22-.47-.21-.43.13.08-.03-.26.2.27.33.71.5.8-.18-.27-.13-.43-.44-.81.08.07.23.27.31.45.16.13-.24-.56.15-.06l-.19-.28c.08.07.15.13.28.25.05-.03-.16-.44.16-.07-.02-.05.08-.12-.19-.34-.19-.11.11.25-.23-.08.29.25.04-.11-.03-.23l.14.14c-.04-.07.03-.08-.11-.23.07.09.17.18.21.2l-.19-.22c-.04-.16.39.35.4.21l.11.22s.2.11.17,0c-.19-.2-.41-.43-.55-.59-.06-.12.25.18.07-.04l.2.27c.06.07.37.25.42.18-.03-.1-.29-.4-.46-.43.02-.03.19.03.32.17-.02-.13-.24-.17-.32-.33.16.08.42.15.68.24l.31.34.04-.05c.25.28.25.12.54.38.08,0,0-.13-.05-.22-.58-.23-.61-.58-1.11-.84-.05-.21,1.21.61.55,0-.14-.05-.47-.33-.38-.16.1-.06-.45-.34-.19-.32.16.19.55.18.77.46-.16-.1-.16,0-.13.04.21.07.48.29.54.18,0-.09.03-.18-.23-.3-.28-.15-.02.11-.29-.08-.03-.17.4.02-.07-.28,0,.1-.3-.03-.49-.13l-.08-.14.18.11c.2-.07-.33-.21-.22-.31l.41.11c.31.18-.24.12.3.36.07-.08-.19-.24-.01-.26.04.04.04.07.08.11.03-.02.76.26.41-.06-.14-.14-.19-.1-.39-.19,0-.18-.19-.31-.19-.41.39.17.11-.16.47.1-.26-.03-.31.19.04.4.49.14-.11.1.34.33.07-.12.53.07.84.18.04-.03-.08-.12-.11-.17-.28-.13-.29-.08-.59-.2.14-.12.03-.33-.22-.51.16,0,.45.12.45.19,0-.21.08-.4.22-.55-.52-.03-.05-.23-.48-.27-.14.06-.5.03-.71-.08.05-.04.21.06.32.07-.24-.14.46,0,.06-.17.11.2.58.19.95.33-.18-.18.27.08.3-.05-.18-.19-.31-.38-.36-.54.41-.1.1-.45.11-.61.21-.05.64.07.73-.01,0-.11-.49.01-.26-.12l.09.03c-.09-.06.35-.27-.29-.39l.47.11s-.06-.07-.11-.1c.16.02.3,0,.4.06.34-.07-.03-.23-.03-.35l-.29.05c-.21-.21.1-.32,0-.51l.28.02-.16-.12c.27.04.45-.06.22-.13l.67.33c-.17.08-.33-.11-.61-.07-.24.03-.17.21.09.26.04-.07-.02-.07-.12-.13.39,0,.37.11.62.18-.01-.04.11-.08-.01-.1.18.09.2.16.2.29-.14-.1-.24.03-.35-.02.34.04.43.17.32.31-.4.06.23.32.09.49-.33-.12-.59-.25-.72-.37-.18.08,0,.12-.19.2.25.09.63.18.77.35l-.25-.03c.11.15.48.21.38.37-.17.27-.25.56-.33.77l-.25-.05c.51.26.09.45.27.68-.31.2.04.68-.43.67,0,.54-.01,1.05-.37,1.49l-.28-.26c.19.21-.22-.05-.21.05.31.05.27.3.43.48-.36.07-.29.48-.21.83l-.21-.14c.26.48-.28.44-.51.6-.1-.05-.31-.17-.35-.09.19.39.11.43.11.79-.12.13-.43.23-.67.21-.22.89-1.08.94-1.77,1.44l-.12-.28c-.3.41-.79.46-1.22.42-.22-.03-.43-.06-.63-.09-.2-.04-.39-.06-.58-.02l.19-.48c-.15-.19-.47,0-.55.36-.14-.22-.6.03-.54-.41-.14-.18-.33.09-.52.06-.28-.38-.4-.43-.77-.59l.06.08c.1-.06.24-.23.19-.32-.21.03-.29-.42-.6.12-.05-.52-.89-.47-.76-1.08-.11.13-.2.08-.31.12-.22-.27-.12-.75-.52-.81.04-.09.28-.08.23-.2-.09-.03-.19.11-.31.08-.55-.31-.23-1.08-.48-1.46-.61-.63-.74-1.5-.93-2.23l.12-.02c-.52-.16.35-.67-.37-.75.11-.08.02-.24.26-.23-.37-.16.23-.59-.21-.83,0,.03.02.04.07.07.24-.31-.15-.54.09-.86.05.03.09.08.22.09.23-.12-.53-.26.06-.34,0-.07-.3-.04-.28,0,.21-.66-.13-1.37-.19-2.09.41-.46.99.1.61-.35.12-.01-.22-.06-.1-.04-.14-.18.69-.12.4-.28-.37-.02-.19-.1-.41-.14.28-.26.62-.24.4-.53l.18.06c-.47-.39-.12-.63-.64-1.04.34-1.57.73-3.24,2-4.71.69-.64,1.5-1.3,2.53-1.73,1.02-.43,2.29-.56,3.39-.17.41.62.41.58.99.59-.05.07-.09.07-.08.16.18-.37.36.11.58-.23.66.43,1.3.74,1.83,1.25-.12-.05-.38.16-.27.23l.28-.09-.06.1c.11.02.33-.05.35-.21.77.55,1.23,1.36,1.47,2.15.27.79.39,1.57.67,2.27-.05.39.23.83.39,1.19-.3,1.25-.65,2.19-.25,3.27,0,0-1.07-.15-1.33-.54Z"/>
      <path class="cls-2" d="M128.79,134.97c-.21.03-.32.14-.6.04.19,0,.41-.06.6-.04Z"/>
      <path class="cls-2" d="M126.31,137.51c.06.02-.09.01-.13.01,0-.03-.17-.11-.06-.1,0,.04.1.05.18.09Z"/>
      <path class="cls-2" d="M126,138.1c-.17-.07-.27-.24-.27-.33l.27.33Z"/>
      <path class="cls-2" d="M125.09,138.36c-.16-.02-.23-.06-.21-.12.09.03.13.07.21.12Z"/>
      <path class="cls-2" d="M125.46,138.56s-.13.02-.23,0c.14.06-.05-.13.23,0Z"/>
      <path class="cls-2" d="M124.46,139.32s.09.16-.09.06c.13.06-.13-.23.09-.06Z"/>
      <path class="cls-2" d="M124.4,139.87s-.05-.01-.02.03c-.08-.03-.17-.14-.17-.17l.19.14Z"/>
      <polygon class="cls-2" points="119.08 136.11 119.18 136.16 119 136.18 119.08 136.11"/>
      <path class="cls-2" d="M119.54,131.14c-.09-.1.18.01.21.01,0,.06-.21-.1-.21-.01Z"/>
      <polygon class="cls-2" points="120.05 128.32 120.04 128.34 119.75 128.09 120.05 128.32"/>
    </g>
  </g>
  <g>
    <ellipse class="cls-2" cx="147" cy="135.59" rx="5.23" ry="8.3"/>
    <g>
      <path class="cls-2" d="M152.91,135.69c-.08-.17-.33.09-.14-.11.15.02.26.06.14.11Z"/>
      <path class="cls-2" d="M152.69,135.04c-.97-.46-.08-1.21-.78-1.68-.05-.06.52-.08.37-.2-.84-.4-.58-1.25-.32-2.11h.15c.05-.18-.46-.15-.45-.3.09-.04.15-.02.26-.1-.29.09-.23-.18-.46-.13.08-.1.3-.2.38-.32l-.34.08c-.8.17-.21-.49-.71-.55.07-.03.14-.04.19-.1-.67-.14-.92-.64-1.41-.87.1-.07.27-.21.34-.33-.27.23-.44.19-.58.15.2-.33-.39.12-.37-.13l.06-.06c-.31.25,0-.28-.33.05l.1-.27c-.31.42,0-.31-.22-.13l-.05.09c-.13.07-.05-.19-.16-.14l.02-.06c-.22.06-.22-.25-.36.13.05-.33.22-.07.3-.54-.76.14-1.32.01-1.94.14-.1-.14-.16-.18-.21-.32-.05.1-.23.12-.22.35.02-.02-.11-.18-.15-.18-.17-.09.04.46-.14.34,0-.12-.03-.24-.11-.37.02.32-.13.35-.19.51-.02-.07,0-.12-.07-.23.05.38-.27.07-.26.33l-.09-.22c-.33-.11.23.44,0,.4-.01-.08-.08-.15-.13-.23.12.44-.17.48-.18.7-.02-.03-.06-.07-.06-.07-.08.16-.32.19-.3.46-.12-.02-.41-.39-.47-.19.36.29-.06.37.43.61-.15.07-.43.18-.36.35-.11-.16-.52-.25-.48-.38l-.3-.07c-.15-.12.12-.06-.1-.16-.03.07.01.35-.08.37.18.27.58.63.54.83-.11-.17-.48-.2-.52-.29.21.22.44.45.67.66,0,.07-.34-.15-.27-.01.11.05.17.12.24.19-.06,0,0,.28-.44.13-.18-.04-.04-.14-.22-.13-.05.12.1.18.06.3l-.06-.02c-.09.05.1.29.37.3.03-.05-.27-.08-.11-.11.23.15.25.3.22.41-.06-.06-.17-.1-.29-.16.28.27.35.46.44.67.21.07-.36-.18-.24-.17-.36.13.28.55-.18.62-.03-.04.31.06.25.05-.05.1-.36.02-.26.11-.18-.03.04.1.08.18.12.06-.09,0-.1-.07.12.13.34.57.04.75.12.02.43.2.4.25l-.28-.06c-.18.03,0,.18-.24.16.33.16-.24-.47,0-.29-.25,0,.42.27.04.19,0,.11.31.24.03.32.05-.02-.39-.13-.38-.04.04.16.13.06.22.19l.11.09c.28.03-.05.13.27.1-.24,0,.13.22-.33.18l-.36-.04c.03.07.38.13.54.19-.03,0-.11.02-.17.02.56.03-.05.16.38.24-.2.13-.02.34-.37.41.17.1.38.19.26.31-.05-.02-.07-.05-.19-.06-.16.08-.01.1.08.16-.08-.01-.33.17-.51.27.18.1.48.03.66.03-.54.14.38.25-.11.42-.08-.03-.28-.12-.41-.02-.54.16.42.15.18.34l.45-.1c-.27.11.3.18-.17.23.17.02-.12.2.32.11-.34.32.34.53-.41.86.08.02.03.13.25.05.23-.12-.19-.04-.03-.1.02.03.14,0,.2,0-.08.1-.1.17-.48.19-.23.25.78-.02.67.23-.18.04-.24.08-.2.13l.34.02c-.03.15-.38.21-.68.31.07.06.09.15.32.11l-.34.22c.24-.16.2,0,.29,0h-.09c-.12.05,0,.11.04.14.18-.08.22-.19.25-.26.14-.01.13.05.3.04-.29.1-.16.19-.17.26-.04.09.28-.04.28-.02-.15.06.02.11-.21.15-.06,0,.12-.11-.02-.09-.09.09-.35.19-.12.2.17,0,.55-.26.42-.07-.08,0-.2.05-.31.07l-.09.18.26-.11c-.06.05-.08.05-.11.07.28-.09.16.13.47,0,.05.04-.12.2-.12.26h-.03c-.11.14.03.17.23.13l-.05.03s.08.1.25.05c-.13.19-.89.59-.52.49.07.08.52-.16.64-.29-.06.25.4.13.16.5.1-.05.15-.11.23-.12.07.27.54.09.29.62-.12.04-.19.21-.29.33.2-.15-.11.24.18-.07.16-.2.24-.29.26-.4.19-.03.31.07.23.31.04-.12.1-.16.17-.21-.23.33-.19.43-.05.34l.13-.21-.09.24c.06-.05.27-.44.21-.2-.04.09-.08.17-.11.24.15-.14.35-.44.32-.22l-.08.36s.15-.21.14-.33c.02.25.08.27.05.59.37-.68.46-.74.63-.69l.02.18c.07.17-.02-.31.02-.2.01.18.1.36.1.59.12.17.04-.34.06-.43-.05-.24,0,.16-.06-.14-.02-.09.14.16.04-.19.06.14.13.39.16.54v-.18c.2.38.07.77.29,1.26l.05-.07c.19.35-.08.46.16.54.04-.2-.09-.73-.2-.86.1-.15-.24-.85-.13-.86.12.19-.06.08.07.35.17.25.05-.2.14-.12-.11-.11-.23-.45-.23-.53.13.12.12.33.21.32-.08-.2-.1-.37-.22-.47-.21-.43.13.08-.03-.26.2.27.33.71.5.8-.18-.27-.13-.43-.44-.81.08.07.23.27.31.45.16.13-.24-.56.15-.06l-.19-.28c.08.07.15.13.28.25.05-.03-.16-.44.16-.07-.02-.05.08-.12-.19-.34-.19-.11.11.25-.23-.08.29.25.04-.11-.03-.23l.14.14c-.04-.07.03-.08-.11-.23.07.09.17.18.21.2l-.19-.22c-.04-.16.39.35.4.21l.11.22s.2.11.17,0c-.19-.2-.41-.43-.55-.59-.06-.12.25.18.07-.04l.2.27c.06.07.37.25.42.18-.03-.1-.29-.4-.46-.43.02-.03.19.03.32.17-.02-.13-.24-.17-.32-.33.16.08.42.15.68.24l.31.34.04-.05c.25.28.25.12.54.38.08,0,0-.13-.05-.22-.58-.23-.61-.58-1.11-.84-.05-.21,1.21.61.55,0-.14-.05-.47-.33-.38-.16.1-.06-.45-.34-.19-.32.16.19.55.18.77.46-.16-.1-.16,0-.13.04.21.07.48.29.54.18,0-.09.03-.18-.23-.3-.28-.15-.02.11-.29-.08-.03-.17.4.02-.07-.28,0,.1-.3-.03-.49-.13l-.08-.14.18.11c.2-.07-.33-.21-.22-.31l.41.11c.31.18-.24.12.3.36.07-.08-.19-.24-.01-.26.04.04.04.07.08.11.03-.02.76.26.41-.06-.14-.14-.19-.1-.39-.19,0-.18-.19-.31-.19-.41.39.17.11-.16.47.1-.26-.03-.31.19.04.4.49.14-.11.1.34.33.07-.12.53.07.84.18.04-.03-.08-.12-.11-.17-.28-.13-.29-.08-.59-.2.14-.12.03-.33-.22-.51.16,0,.45.12.45.19,0-.21.08-.4.22-.55-.52-.03-.05-.23-.48-.27-.14.06-.5.03-.71-.08.05-.04.21.06.32.07-.24-.14.46,0,.06-.17.11.2.58.19.95.33-.18-.18.27.08.3-.05-.18-.19-.31-.38-.36-.54.41-.1.1-.45.11-.61.21-.05.64.07.73-.01,0-.11-.49.01-.26-.12l.09.03c-.09-.06.35-.27-.29-.39l.47.11s-.06-.07-.11-.1c.16.02.3,0,.4.06.34-.07-.03-.23-.03-.35l-.29.05c-.21-.21.1-.32,0-.51l.28.02-.16-.12c.27.04.45-.06.22-.13l.67.33c-.17.08-.33-.11-.61-.07-.24.03-.17.21.09.26.04-.07-.02-.07-.12-.13.39,0,.37.11.62.18-.01-.04.11-.08-.01-.1.18.09.2.16.2.29-.14-.1-.24.03-.35-.02.34.04.43.17.32.31-.4.06.23.32.09.49-.33-.12-.59-.25-.72-.37-.18.08,0,.12-.19.2.25.09.63.18.77.35l-.25-.03c.11.15.48.21.38.37-.17.27-.25.56-.33.77l-.25-.05c.51.26.09.45.27.68-.31.2.04.68-.43.67,0,.54-.01,1.05-.37,1.49l-.28-.26c.19.21-.22-.05-.21.05.31.05.27.3.43.48-.36.07-.29.48-.21.83l-.21-.14c.26.48-.28.44-.51.6-.1-.05-.31-.17-.35-.09.19.39.11.43.11.79-.12.13-.43.23-.67.21-.22.89-1.08.94-1.77,1.44l-.12-.28c-.3.41-.79.46-1.22.42-.22-.03-.43-.06-.63-.09-.2-.04-.39-.06-.58-.02l.19-.48c-.15-.19-.47,0-.55.36-.14-.22-.6.03-.54-.41-.14-.18-.33.09-.52.06-.28-.38-.4-.43-.77-.59l.06.08c.1-.06.24-.23.19-.32-.21.03-.29-.42-.6.12-.05-.52-.89-.47-.76-1.08-.11.13-.2.08-.31.12-.22-.27-.12-.75-.52-.81.04-.09.28-.08.23-.2-.09-.03-.19.11-.31.08-.55-.31-.23-1.08-.48-1.46-.61-.63-.74-1.5-.93-2.23l.12-.02c-.52-.16.35-.67-.37-.75.11-.08.02-.24.26-.23-.37-.16.23-.59-.21-.83,0,.03.02.04.07.07.24-.31-.15-.54.09-.86.05.03.09.08.22.09.23-.12-.53-.26.06-.34,0-.07-.3-.04-.28,0,.21-.66-.13-1.37-.19-2.09.41-.46.99.1.61-.35.12-.01-.22-.06-.1-.04-.14-.18.69-.12.4-.28-.37-.02-.19-.1-.41-.14.28-.26.62-.24.4-.53l.18.06c-.47-.39-.12-.63-.64-1.04.34-1.57.73-3.24,2-4.71.69-.64,1.5-1.3,2.53-1.73,1.02-.43,2.29-.56,3.39-.17.41.62.41.58.99.59-.05.07-.09.07-.08.16.18-.37.36.11.58-.23.66.43,1.3.74,1.83,1.25-.12-.05-.38.16-.27.23l.28-.09-.06.1c.11.02.33-.05.35-.21.77.55,1.23,1.36,1.47,2.15.27.79.39,1.57.67,2.27-.05.39.23.83.39,1.19-.3,1.25-.65,2.19-.25,3.27,0,0-1.07-.15-1.33-.54Z"/>
      <path class="cls-2" d="M152.95,135.9c-.21.03-.32.14-.6.04.19,0,.41-.06.6-.04Z"/>
      <path class="cls-2" d="M150.47,138.44c.06.02-.09.01-.13.01,0-.03-.17-.11-.06-.1,0,.04.1.05.18.09Z"/>
      <path class="cls-2" d="M150.17,139.03c-.17-.07-.27-.24-.27-.33l.27.33Z"/>
      <path class="cls-2" d="M149.26,139.29c-.16-.02-.23-.06-.21-.12.09.03.13.07.21.12Z"/>
      <path class="cls-2" d="M149.63,139.49s-.13.02-.23,0c.14.06-.05-.13.23,0Z"/>
      <path class="cls-2" d="M148.62,140.25s.09.16-.09.06c.13.06-.13-.23.09-.06Z"/>
      <path class="cls-2" d="M148.56,140.8s-.05-.01-.02.03c-.08-.03-.17-.14-.17-.17l.19.14Z"/>
      <polygon class="cls-2" points="143.24 137.03 143.34 137.09 143.16 137.1 143.24 137.03"/>
      <path class="cls-2" d="M143.7,132.06c-.09-.1.18.01.21.01,0,.06-.21-.1-.21-.01Z"/>
      <polygon class="cls-2" points="144.21 129.25 144.2 129.27 143.92 129.02 144.21 129.25"/>
    </g>
  </g>
  <g>
    <circle class="cls-1" cx="118.98" cy="130.22" r="3"/>
    <g>
      <path class="cls-1" d="M122.29,130.27c-.03-.08-.15.04-.06-.05.07,0,.12.03.06.05Z"/>
      <path class="cls-1" d="M122.19,129.97c-.45-.18-.07-.54-.42-.71-.03-.02.23-.07.15-.11-.39-.11-.36-.48-.35-.89l.07-.03c0-.08-.21,0-.23-.06.03-.03.06-.03.1-.08-.11.08-.12-.04-.22,0,.02-.05.1-.12.12-.19l-.14.08c-.32.19-.15-.18-.38-.13.03-.02.06-.04.07-.07-.3.05-.48-.13-.72-.15.03-.05.08-.13.1-.19-.08.14-.16.15-.23.15.04-.17-.15.1-.18,0l.02-.03c-.1.15-.04-.12-.14.06v-.14c-.08.22-.02-.13-.1-.03v.05c-.06.05-.05-.07-.1-.04v-.03c-.09.04-.12-.09-.15.09,0-.15.09-.05.09-.27-.32.13-.59.09-.88.11-.04-.07-.06-.09-.08-.16-.02.04-.11.05-.12.15,0,0-.03-.09-.05-.1-.07-.06-.02.2-.09.14.01-.05,0-.11-.01-.18-.02.15-.09.15-.13.21,0-.03,0-.05,0-.11-.02.17-.12,0-.15.11v-.11c-.14-.09.03.22-.06.17,0-.04-.01-.07-.03-.12,0,.21-.13.18-.17.28,0-.02-.02-.04-.02-.04-.06.06-.16.03-.19.15-.05-.03-.12-.23-.17-.15.11.18-.07.15.1.33-.08,0-.21,0-.2.09-.02-.08-.19-.19-.15-.24l-.12-.07c-.05-.07.06,0-.02-.08-.02.03-.04.15-.09.14.04.14.16.36.12.43-.03-.09-.18-.15-.18-.2.06.13.13.25.2.37-.01.03-.13-.11-.11-.04.04.04.06.07.08.11-.03,0-.03.11-.2-.01-.07-.04,0-.06-.08-.09-.04.04.02.09,0,.13l-.02-.02s.01.13.13.17c.02-.01-.11-.07-.04-.06.08.09.08.16.05.19-.02-.03-.07-.06-.11-.1.09.15.11.23.13.32.09.05-.14-.11-.09-.1-.17.01.08.25-.13.23-.01-.02.13.05.11.04-.03.03-.16-.03-.12.02-.08-.03,0,.04.02.08.05.04-.04,0-.04-.04.06.07.12.25-.02.3.05.01.19.11.17.12l-.13-.04c-.08,0,0,.07-.12.05.14.08-.09-.2.02-.11-.11-.01.18.13.01.08,0,.04.13.11,0,.13.02,0-.17-.07-.17-.03.01.07.06.03.09.09l.05.04c.13.02-.03.05.12.05-.11,0,.05.09-.16.06l-.16-.03s.17.06.25.09c-.02,0-.05,0-.08,0,.25.02-.02.06.17.1-.09.05-.01.13-.17.16.08.04.17.07.12.12-.02,0-.03-.02-.09-.02-.07.04,0,.04.04.06-.04,0-.14.07-.22.12.08.03.22,0,.3-.01-.24.08.17.08-.04.17-.04,0-.13-.03-.19.01-.23.09.2.04.1.12l.2-.07c-.12.06.14.05-.07.1.07,0-.04.09.15.02-.13.15.17.17-.13.37.04,0,.02.05.11,0,.09-.07-.09,0-.02-.04.01,0,.06-.01.09-.02-.03.05-.03.08-.2.12-.08.12.34-.09.31.01-.07.04-.1.06-.07.08l.15-.04c0,.06-.15.13-.27.21.04.01.05.05.15,0l-.12.13c.09-.1.09-.03.12-.04h-.04s0,.06.03.06c.07-.06.07-.11.08-.14.06-.02.06,0,.13-.03-.12.08-.05.1-.05.13,0,.04.12-.06.12-.05-.06.05.02.04-.07.09-.02,0,.04-.06-.02-.03-.03.05-.13.13-.03.1.07-.02.2-.19.17-.09-.03.01-.08.05-.12.07l-.02.09.1-.08s-.03.03-.04.04c.11-.08.08.03.2-.07.03,0-.02.1-.02.12h-.01c-.03.08.03.07.11.02l-.02.02s.05.03.11-.02c-.03.1-.29.38-.15.29.04.02.19-.15.23-.22,0,.12.18-.01.14.18.04-.04.05-.07.08-.08.06.1.25-.04.22.23-.05.04-.05.12-.08.18.07-.09-.02.12.07-.06.04-.11.06-.16.06-.21.08-.04.16,0,.16.11,0-.06.02-.09.05-.11-.06.17-.03.22.03.16l.04-.11v.12s.06-.22.07-.11c0,.04-.02.09-.02.12.06-.08.13-.22.15-.12v.17s.06-.11.04-.16c.05.11.09.13.09.27.16-.33.28-.34.41-.33v.08c.04.08,0-.15.04-.09,0,.08.04.17.02.27.06.09.05-.15.08-.19,0-.11-.02.07-.03-.07,0-.04.08.07.06-.09.02.06.03.19.03.25l.02-.08c.07.19-.04.36.04.59l.03-.03c.06.17-.07.21.03.25.03-.09.02-.33-.03-.4.06-.06-.04-.39.03-.39.04.09-.05.03,0,.17.06.13.05-.09.09-.05-.05-.05-.06-.22-.05-.26.05.07.02.16.07.16-.02-.1,0-.18-.05-.23-.04-.21.06.05.04-.12.06.14.05.35.13.41-.05-.14,0-.21-.09-.41.03.03.07.14.08.24.06.07-.03-.28.08,0l-.04-.15s.05.07.09.14c.03,0,0-.22.09,0,0-.03.06-.04-.03-.18-.07-.07.01.12-.09-.06.09.15.03-.04.03-.1l.04.08s.03-.03,0-.12c.02.05.05.1.06.12l-.05-.12c0-.08.12.21.14.15l.02.11s.07.08.07.03c-.05-.11-.11-.25-.15-.34,0-.06.08.11.04,0l.05.14s.12.16.15.14c0-.05-.07-.22-.13-.25.01,0,.07.04.11.12.01-.06-.08-.11-.09-.19.06.06.16.13.25.21l.09.19.02-.02c.07.16.09.09.17.24.03,0,.02-.05,0-.1-.21-.19-.18-.34-.35-.53,0-.09.43.45.23.1-.05-.04-.16-.21-.14-.13.05,0-.15-.21-.05-.16.04.1.21.16.27.31-.05-.06-.07-.03-.06,0,.08.06.17.19.2.16,0-.04.03-.07-.06-.16-.1-.1-.02.04-.11-.08,0-.07.17.08,0-.12,0,.04-.12-.06-.19-.13l-.02-.07.06.07c.09,0-.12-.13-.06-.15l.16.11c.11.12-.11.01.09.19.04-.02-.06-.12.02-.1,0,.02.01.03.02.06.01,0,.29.22.18.04-.04-.08-.07-.07-.14-.13.01-.07-.06-.15-.05-.19.15.12.06-.04.19.11-.11-.05-.15.03-.02.16.2.13-.06.02.11.18.04-.04.22.11.34.19.02,0-.02-.06-.03-.09-.11-.09-.12-.07-.23-.16.07-.03.05-.13-.05-.23.07.02.18.11.18.14.02-.09.07-.15.15-.2-.22-.07,0-.1-.19-.16-.06,0-.22-.05-.3-.11.02-.01.09.05.13.07-.09-.08.2.06.04-.06.04.09.24.14.39.24-.07-.1.11.06.14.01-.06-.1-.11-.19-.12-.26.18,0,.07-.18.08-.24.1,0,.28.08.33.05,0-.05-.22-.03-.11-.07l.04.02s.17-.1-.11-.18l.21.07s-.02-.03-.04-.05c.07.01.14.01.18.04.16-.01,0-.1,0-.15h-.13c-.09-.09.05-.12.01-.21h.13s-.07-.04-.07-.04c.12.02.2-.02.1-.05.1.05.2.1.3.16-.08.03-.15-.06-.28-.05-.11,0-.09.08.03.11.02-.03,0-.03-.05-.06.18.01.16.06.28.1,0-.02.05-.04,0-.05.08.04.09.08.08.14-.06-.05-.11,0-.16-.02.15.03.19.09.14.15-.19,0,.08.15.01.23-.14-.07-.26-.15-.31-.2-.09.03,0,.05-.1.08.11.05.28.12.33.2l-.11-.03c.04.07.2.13.14.19-.1.11-.15.24-.21.32l-.11-.05c.2.16,0,.21.05.33-.16.05-.06.31-.27.25-.06.24-.14.46-.36.59l-.08-.15c.05.12-.09-.05-.1,0,.13.07.07.17.12.27-.17-.03-.19.16-.21.32l-.07-.09c.04.24-.18.14-.3.17-.04-.03-.11-.12-.13-.09.03.2-.01.2-.05.35-.07.04-.2.03-.3,0-.18.35-.52.25-.79.45l-.04-.13c-.27.32-.64.05-.9.16l.05-.23c-.06-.08-.18.04-.19.2-.06-.08-.22.08-.23-.13-.07-.06-.12.08-.2.09-.14-.13-.19-.14-.36-.15l.03.03s.07-.13.04-.16c-.08.04-.17-.14-.23.14-.08-.21-.42-.06-.45-.34-.03.07-.07.06-.11.1-.14-.07-.16-.3-.34-.27,0-.04.11-.08.07-.12-.05,0-.06.08-.13.08-.28-.05-.26-.44-.42-.57-.36-.2-.52-.6-.69-.93l.05-.02c-.25-.04.1-.35-.23-.33.04-.04,0-.12.1-.13-.17-.06.06-.3-.14-.4,0,.01,0,.02.04.03.1-.16-.09-.26.01-.42.02.01.04.04.1.04.1-.06-.24-.12.02-.16,0-.03-.14-.02-.13,0,.09-.32-.05-.67-.04-1.03.22-.2.44.09.3-.14.05,0-.1-.04-.04-.03-.05-.09.32-.02.2-.11-.16-.03-.08-.06-.17-.09.15-.1.3-.07.22-.22l.08.04c-.17-.22.01-.3-.18-.54.34-.7.81-1.38,1.52-1.79.72-.32,1.52-.6,2.32-.38.16.25.16.25.38.19-.02.04-.03.04-.02.08.05-.19.14.01.2-.16.28.1.55.14.83.27-.05,0-.14.13-.08.14l.1-.08v.05s.11-.07.1-.14c.8.23,1.15,1.06,1.55,1.63.03.19.2.37.32.53,0,.63-.13,1.09.05,1.61,0,0-.49-.07-.61-.25Z"/>
      <path class="cls-1" d="M122.3,130.36c-.09.01-.15.06-.27.01.09,0,.19-.02.27-.01Z"/>
      <path class="cls-1" d="M121.08,131.29s-.04,0-.06,0c0-.01-.07-.06-.02-.05,0,.01.04.03.07.06Z"/>
      <path class="cls-1" d="M120.91,131.49c-.07-.05-.1-.13-.09-.16l.09.16Z"/>
      <path class="cls-1" d="M120.5,131.46c-.07-.03-.09-.06-.08-.08.04.03.05.05.08.08Z"/>
      <path class="cls-1" d="M120.64,131.59s-.06-.01-.1-.04c.05.05,0-.06.1.04Z"/>
      <path class="cls-1" d="M120.14,131.73s.02.08-.04.01c.05.05-.02-.11.04-.01Z"/>
      <path class="cls-1" d="M120.04,131.95s-.02-.01-.01.01c-.03-.03-.05-.09-.05-.1l.06.09Z"/>
      <polygon class="cls-1" points="116.68 130.77 116.73 130.79 116.65 130.8 116.68 130.77"/>
      <path class="cls-1" d="M117.01,128.9c-.03-.05.08.03.09.03,0,.02-.08-.07-.09-.03Z"/>
      <polygon class="cls-1" points="117.56 127.82 117.55 127.83 117.46 127.68 117.56 127.82"/>
    </g>
  </g>
  <g>
    <circle class="cls-1" cx="143.14" cy="131.62" r="3"/>
    <g>
      <path class="cls-1" d="M146.45,131.67c-.03-.08-.15.04-.06-.05.07.01.12.03.06.05Z"/>
      <path class="cls-1" d="M146.35,131.38c-.45-.18-.07-.54-.42-.71-.03-.02.23-.07.15-.11-.39-.11-.36-.48-.35-.89l.07-.03c0-.08-.21,0-.23-.06.03-.03.06-.03.1-.08-.11.08-.12-.04-.22,0,.02-.05.1-.12.12-.19l-.14.08c-.32.19-.15-.18-.38-.13.03-.02.06-.04.07-.07-.3.05-.48-.13-.72-.15.03-.05.08-.13.1-.19-.08.14-.16.15-.23.15.04-.17-.15.1-.18,0l.02-.03c-.1.15-.04-.12-.14.06v-.14c-.08.22-.02-.13-.1-.03v.05c-.06.05-.05-.07-.1-.04v-.03c-.09.04-.12-.09-.15.09,0-.15.09-.05.09-.27-.32.13-.59.09-.88.11-.04-.07-.06-.09-.08-.16-.02.04-.11.05-.12.15,0,0-.03-.09-.05-.1-.07-.06-.02.2-.09.14.01-.05,0-.11-.01-.18-.02.15-.09.15-.13.21,0-.03,0-.05,0-.11-.02.17-.12,0-.15.11v-.11c-.14-.09.03.22-.06.17,0-.04-.01-.07-.03-.12,0,.21-.13.18-.17.28,0-.02-.02-.04-.02-.04-.06.06-.16.03-.19.15-.05-.03-.12-.23-.17-.15.11.18-.07.15.1.33-.08,0-.21,0-.2.09-.02-.08-.19-.19-.15-.24l-.12-.07c-.05-.07.06,0-.02-.08-.02.03-.04.15-.09.14.04.14.16.36.12.43-.03-.09-.18-.15-.18-.2.06.13.13.25.2.37-.01.03-.13-.11-.11-.04.04.04.06.07.08.11-.03,0-.03.11-.2-.01-.07-.04,0-.06-.08-.09-.04.04.02.09,0,.13l-.02-.02s.01.13.13.17c.02-.01-.11-.07-.04-.06.08.09.08.16.05.19-.02-.03-.07-.06-.11-.1.09.15.11.23.13.32.09.05-.14-.11-.09-.1-.17.01.08.25-.13.23-.01-.02.13.05.11.04-.03.03-.16-.03-.12.02-.08-.03,0,.04.02.08.05.04-.04,0-.04-.04.06.07.12.25-.02.3.05.01.19.11.17.12l-.13-.04c-.08,0,0,.07-.12.05.14.08-.09-.2.02-.11-.11-.01.18.13.01.08,0,.04.13.11,0,.13.02,0-.17-.07-.17-.03.01.07.06.03.09.09l.05.04c.13.02-.03.05.12.05-.11,0,.05.09-.16.06l-.16-.03s.17.06.25.09c-.02,0-.05,0-.08,0,.25.02-.02.06.17.1-.09.05-.01.13-.17.16.08.04.17.07.12.12-.02,0-.03-.02-.09-.02-.07.04,0,.04.04.06-.04,0-.14.07-.22.12.08.03.22,0,.3-.01-.24.08.17.08-.04.17-.04,0-.13-.03-.19.01-.23.09.2.04.1.12l.2-.07c-.12.06.14.05-.07.1.07,0-.04.09.15.02-.13.15.17.17-.13.37.04,0,.02.05.11,0,.09-.07-.09,0-.02-.04.01,0,.06-.01.09-.02-.03.05-.03.08-.2.12-.08.12.34-.09.31.01-.07.04-.1.06-.07.08l.15-.04c0,.06-.15.13-.27.21.04.01.05.05.15,0l-.12.13c.09-.1.09-.03.12-.04h-.04s0,.06.03.06c.07-.06.07-.11.08-.14.06-.02.06,0,.13-.03-.12.08-.05.1-.05.13,0,.04.12-.06.12-.05-.06.05.02.04-.07.09-.02,0,.04-.06-.02-.03-.03.05-.13.13-.03.1.07-.02.2-.19.17-.09-.03.01-.08.05-.12.07l-.02.09.1-.08s-.03.03-.04.05c.11-.08.08.03.2-.07.03,0-.02.1-.02.12h-.01c-.03.08.03.07.11.02l-.02.02s.05.03.11-.02c-.03.1-.29.38-.15.29.04.02.19-.15.23-.22,0,.12.18-.01.14.18.04-.04.05-.07.08-.08.06.1.25-.04.22.23-.05.04-.05.12-.08.18.07-.09-.02.12.07-.06.04-.11.06-.16.06-.21.08-.04.16,0,.16.11,0-.06.02-.09.05-.11-.06.17-.03.22.03.16l.04-.11v.12s.06-.22.07-.11c0,.04-.02.09-.02.12.06-.08.13-.22.15-.12v.17s.06-.11.04-.16c.05.11.09.13.09.27.16-.33.28-.34.41-.33v.08c.04.08,0-.15.04-.09,0,.08.04.17.02.27.06.09.05-.15.08-.19,0-.11-.02.07-.03-.07,0-.04.08.07.06-.09.02.06.03.19.03.25l.02-.08c.07.19-.04.36.04.59l.03-.03c.06.17-.07.21.03.25.03-.09.02-.33-.03-.4.06-.06-.04-.39.03-.39.04.09-.05.03,0,.17.06.13.05-.09.09-.05-.05-.05-.06-.22-.05-.26.05.07.02.16.07.16-.02-.1,0-.18-.05-.23-.04-.21.06.05.04-.12.06.14.05.35.13.41-.05-.14,0-.21-.09-.41.03.03.07.14.08.24.06.07-.03-.28.08,0l-.04-.15s.05.07.09.14c.03,0,0-.22.09,0,0-.03.06-.04-.03-.18-.07-.07.01.12-.09-.06.09.15.03-.04.03-.1l.04.08s.03-.03,0-.12c.02.05.05.1.06.12l-.05-.12c0-.08.12.21.14.15l.02.11s.07.08.07.03c-.05-.11-.11-.25-.15-.34,0-.06.08.11.04,0l.05.14s.12.16.15.14c0-.05-.07-.22-.13-.25.01,0,.07.04.11.12.01-.06-.08-.11-.09-.19.06.06.16.13.25.21l.09.19.02-.02c.07.16.09.09.17.24.03,0,.02-.05,0-.1-.21-.19-.18-.34-.35-.53,0-.09.43.45.23.1-.05-.04-.16-.21-.14-.13.05,0-.15-.21-.05-.16.04.1.21.16.27.31-.05-.06-.07-.03-.06,0,.08.06.17.19.2.16,0-.04.03-.07-.06-.16-.1-.1-.02.04-.11-.08,0-.07.17.08,0-.12,0,.04-.12-.06-.19-.13l-.02-.07.06.07c.09,0-.12-.13-.06-.15l.16.11c.11.12-.11.01.09.19.04-.02-.06-.12.02-.1,0,.02.01.03.02.06.01,0,.29.22.18.04-.04-.08-.07-.07-.14-.13.01-.07-.06-.15-.05-.19.15.12.06-.04.19.11-.11-.05-.15.03-.02.16.2.13-.06.02.11.18.04-.04.22.11.34.19.02,0-.02-.06-.03-.09-.11-.09-.12-.07-.23-.16.07-.03.05-.13-.05-.23.07.02.18.11.18.14.02-.09.07-.15.15-.2-.22-.07,0-.1-.19-.16-.06,0-.22-.05-.3-.11.02-.01.09.05.13.07-.09-.08.2.06.04-.06.04.09.24.14.39.24-.07-.1.11.06.14.01-.06-.1-.11-.19-.12-.26.18,0,.07-.18.08-.24.1,0,.28.08.33.05,0-.05-.22-.03-.11-.07l.04.02s.17-.1-.11-.18l.21.07s-.02-.03-.04-.05c.07.01.14.01.18.04.16-.01,0-.1,0-.15h-.13c-.09-.09.05-.12.01-.21h.13s-.07-.04-.07-.04c.12.02.2-.02.1-.05.1.05.2.1.3.16-.08.03-.15-.06-.28-.05-.11,0-.09.08.03.11.02-.03,0-.03-.05-.06.18.01.16.06.28.1,0-.02.05-.04,0-.05.08.04.09.08.08.14-.06-.05-.11,0-.16-.02.15.03.19.09.14.15-.19,0,.08.15.01.23-.14-.07-.26-.15-.31-.2-.09.03,0,.05-.1.08.11.05.28.12.33.2l-.11-.03c.04.07.2.13.14.19-.1.11-.15.24-.21.32l-.11-.05c.2.16,0,.21.05.33-.16.05-.06.31-.27.25-.06.24-.14.46-.36.59l-.08-.15c.05.12-.09-.05-.1,0,.13.07.07.17.12.27-.17-.03-.19.16-.21.32l-.07-.09c.04.24-.18.14-.3.17-.04-.03-.11-.12-.13-.09.03.2-.01.2-.05.35-.07.04-.2.03-.3,0-.18.35-.52.25-.79.45l-.04-.13c-.27.32-.64.05-.9.16l.05-.23c-.06-.08-.18.04-.19.2-.06-.08-.22.08-.23-.13-.07-.06-.12.08-.2.09-.14-.13-.19-.14-.36-.15l.03.03s.07-.13.04-.16c-.08.04-.17-.14-.23.14-.08-.21-.42-.06-.45-.34-.03.07-.07.06-.11.1-.14-.07-.16-.3-.34-.27,0-.04.11-.08.07-.12-.05,0-.06.08-.13.08-.28-.05-.26-.44-.42-.57-.36-.2-.52-.6-.69-.93l.05-.02c-.25-.04.1-.35-.23-.33.04-.04,0-.12.1-.13-.17-.06.06-.3-.14-.4,0,.01,0,.02.04.03.1-.16-.09-.26.01-.42.02.01.04.04.1.04.1-.06-.24-.12.02-.16,0-.03-.14-.02-.13,0,.09-.32-.05-.67-.04-1.03.22-.2.44.09.3-.14.05,0-.1-.04-.04-.03-.05-.09.32-.02.2-.11-.16-.03-.08-.06-.17-.09.15-.1.3-.07.22-.22l.08.04c-.17-.22.01-.3-.18-.54.34-.7.81-1.38,1.52-1.79.72-.32,1.52-.6,2.32-.38.16.25.16.25.38.19-.02.04-.03.04-.02.08.05-.19.14.01.2-.16.28.1.55.14.83.27-.05,0-.14.13-.08.14l.1-.08v.05s.11-.07.1-.14c.8.23,1.15,1.06,1.55,1.63.03.19.2.37.32.53,0,.63-.13,1.09.05,1.61,0,0-.49-.07-.61-.25Z"/>
      <path class="cls-1" d="M146.47,131.77c-.09.01-.15.06-.27.01.09,0,.19-.02.27-.01Z"/>
      <path class="cls-1" d="M145.24,132.7s-.04,0-.06,0c0-.01-.07-.06-.02-.05,0,.01.04.03.07.06Z"/>
      <path class="cls-1" d="M145.07,132.89c-.07-.05-.1-.13-.09-.16l.09.16Z"/>
      <path class="cls-1" d="M144.66,132.87c-.07-.03-.09-.06-.08-.08.04.03.05.05.08.08Z"/>
      <path class="cls-1" d="M144.8,133s-.06-.01-.1-.04c.05.05,0-.06.1.04Z"/>
      <path class="cls-1" d="M144.3,133.14s.02.08-.04.01c.05.05-.02-.11.04-.01Z"/>
      <path class="cls-1" d="M144.21,133.36s-.02-.01-.01.01c-.03-.03-.05-.09-.05-.1l.06.09Z"/>
      <polygon class="cls-1" points="140.84 132.18 140.89 132.2 140.81 132.21 140.84 132.18"/>
      <path class="cls-1" d="M141.17,130.31c-.03-.05.08.03.09.03,0,.02-.08-.07-.09-.03Z"/>
      <polygon class="cls-1" points="141.72 129.23 141.71 129.23 141.63 129.08 141.72 129.23"/>
    </g>
  </g>
  <g>
    <g>
      <path class="cls-2" d="M133.45,129.41c.13.19.51-.1.23.12-.23-.03-.41-.06-.23-.12Z"/>
      <path class="cls-2" d="M160.36,135.64c-1.55-.56,0-1.41-1.04-2.01-.07-.07.84-.04.62-.2-1.25-.54-.6-1.57.16-2.49h.24c.15-.16-.66-.23-.57-.4.15-.03.23.02.43-.05-.47.03-.26-.25-.62-.26.17-.09.54-.15.73-.27h-.54c-1.29-.02-.01-.62-.74-.83.13,0,.23,0,.34-.05-.89-.38-.86-1.07-1.31-1.58.19-.03.53-.09.73-.18-.56.12-.75-.03-.9-.15.54-.23-.59-.12-.33-.39l.13-.02c-.62.04.28-.3-.45-.19l.41-.22c-.8.19.35-.32-.08-.31l-.16.06c-.22-.04.16-.22,0-.27l.09-.04c-.29-.15.1-.43-.5-.21.45-.25.3.14.96-.23-.9-.52-1.02-1.31-1.38-2.01.2-.19.25-.27.46-.39-.15-.02-.23-.22-.55-.15.02.02.27-.19.29-.24.16-.24-.7.16-.5-.1.18-.02.37-.09.58-.21-.5.09-.52-.09-.74-.16.11-.03.18-.02.36-.12-.59.11-.05-.33-.44-.3l.35-.13c.28-.43-.71.31-.58,0,.13-.01.24-.1.38-.16-.68.15-.64-.23-.93-.29.05-.02.13-.07.13-.07-.17-.15-.13-.43-.5-.47.09-.16.78-.46.53-.58-.62.41-.47-.15-1.09.43,0-.22.06-.63-.21-.59.28-.09.68-.61.82-.51l.29-.37c.26-.16-.01.17.28-.09-.07-.06-.46-.07-.41-.2-.46.15-1.22.57-1.44.45.3-.09.6-.56.74-.58-.44.21-.88.42-1.31.65-.07-.04.44-.39.22-.35-.15.13-.27.17-.41.25.04-.08-.33-.12.19-.63.19-.22.2-.01.34-.25-.11-.1-.3.07-.41-.03l.07-.07c0-.14-.42.02-.64.37.03.06.3-.32.21-.11-.35.25-.55.22-.65.13.12-.05.25-.19.41-.33-.54.27-.79.27-1.09.31-.24.25.48-.41.38-.26.15-.56-.84.18-.54-.49.07-.03-.3.39-.24.32-.06-.11.26-.5.08-.4.18-.24-.14.01-.25.03-.16.15.07-.13.15-.11-.25.12-.83.22-.81-.24-.11.17-.51.53-.54.49l.26-.38c.1-.26-.18-.06.01-.4-.39.41.65-.16.28.12.16-.35-.58.5-.22-.01-.11-.05-.45.35-.33-.08-.01.08.39-.5.29-.53-.18-.02-.15.17-.33.23l-.16.12c-.21.39-.1-.1-.27.36.14-.34-.29.12.03-.54l.27-.52c-.09.01-.37.51-.52.73.01-.05.05-.17.09-.25-.36.81-.12-.13-.45.47-.01-.34-.29-.17-.18-.71-.19.23-.37.52-.42.31.04-.07.08-.09.14-.27,0-.27-.09-.05-.19.07.05-.12-.01-.54-.04-.87-.17.23-.23.71-.3,1,.08-.88-.37.47-.35-.31.05-.12.22-.42.17-.64.02-.87-.3.63-.39.2l-.04.73c-.02-.45-.24.4-.17-.34-.07.26-.16-.26-.18.46-.19-.64-.63.34-.84-.92-.04.12-.15,0-.12.37.08.39.09-.29.13-.02-.04.02-.04.22-.04.32-.1-.16-.17-.21-.1-.8-.23-.43-.17,1.21-.44.94,0-.29-.03-.41-.1-.35l-.11.52c-.17-.1-.14-.66-.18-1.16-.08.09-.2.08-.21.46l-.17-.61c.13.44-.05.31-.08.43l.03-.13c-.04-.21-.13-.07-.18,0,.05.31.17.42.23.5-.02.22-.1.18-.13.44-.04-.49-.18-.33-.26-.38-.1-.1-.03.45-.05.43-.04-.25-.13-.02-.12-.38.02-.08.09.23.11,0-.08-.18-.13-.62-.19-.28-.04.25.16.95-.03.67.02-.13,0-.32,0-.5l-.18-.22.07.44c-.04-.11-.03-.15-.05-.21.04.47-.19.18-.12.7-.06.06-.2-.28-.28-.32v-.04c-.13-.24-.21-.06-.2.26l-.02-.1s-.13.07-.12.34c-.19-.3-.46-1.62-.44-1.04-.11.05.05.83.17,1.09-.28-.24-.26.5-.64-.07.04.18.09.28.08.4-.32-.05-.28.66-.84,0-.02-.2-.2-.4-.32-.62.13.39-.27-.32.03.29.2.35.29.53.42.63-.03.27-.21.36-.48.08.14.14.17.26.21.37-.34-.55-.49-.57-.43-.32l.21.33-.27-.3c.05.12.45.69.17.43-.09-.12-.19-.24-.27-.32.12.31.37.79.1.59l-.43-.39c0,.07.19.38.34.45-.33-.15-.43-.11-.81-.42.32.54.44.85.44,1.06.02.23-.08.35-.2.44l-.23-.18c-.27-.09.39.33.19.26-.21-.18-.54-.3-.78-.55-.33-.07.31.41.39.56.32.22-.17-.19.23.09.11.09-.33,0,.15.31-.21-.09-.56-.34-.75-.48l.2.22c-.64-.26-.92-.85-1.68-1.19l.03.13c-.57-.24-.46-.59-.76-.48.19.25.87.75,1.14.81.04.25,1.15.78,1.02.91-.32-.12,0-.17-.43-.37-.45-.15.14.29-.04.27.24.03.72.37.79.46-.29-.05-.46-.31-.58-.22.29.17.46.38.71.4.66.37-.25.02.26.34-.5-.19-1.06-.67-1.36-.64.48.2.56.47,1.29.72-.16-.01-.53-.17-.8-.35-.32-.05.79.56-.16.18l.47.23c-.17-.04-.31-.07-.58-.13-.04.07.57.48-.17.18.07.05-.03.19.51.33.35.03-.33-.25.39-.03-.59-.16.02.16.19.28l-.29-.1c.1.07.02.13.32.26-.16-.08-.36-.14-.44-.14l.43.19c.18.21-.79-.24-.7-.05l-.31-.22c.07.05-.36-.04-.25.08.39.16.87.36,1.18.49.16.13-.47-.11-.07.09l-.46-.25c-.13-.06-.7-.14-.72-.03.12.12.68.39.94.35,0,.05-.28.05-.57-.08.1.16.45.11.67.28-.29-.04-.72-.02-1.14-.03l-.66-.3-.03.08c-.52-.25-.44-.06-1.01-.27-.11.04.08.16.22.26.97.07,1.24.51,2.11.66.19.26-2.12-.35-.82.19.23.01.87.26.65.07-.12.11.85.28.46.35-.33-.19-.9-.06-1.38-.34.28.07.24-.05.16-.09-.34-.01-.86-.2-.9-.05.06.11.05.23.51.31.5.1-.02-.14.47.01.14.2-.63.09.24.32-.04-.12.47-.04.81.02l.18.16-.32-.09c-.28.15.59.16.46.33l-.67-.02c-.56-.15.3-.23-.62-.37-.07.12.39.24.14.32-.08-.04-.09-.08-.17-.12-.04.04-1.26-.12-.57.2.26.14.32.08.67.14.08.23.42.34.45.48-.67-.12-.1.23-.77-.02.4-.02.41-.32-.22-.5-.81-.05.14-.15-.66-.33-.04.17-.83.04-1.34-.01-.04.05.17.13.24.17.48.1.48.03.98.1-.16.18.08.41.54.58-.25.03-.73-.05-.77-.14.11.26,0,.5-.17.71.81-.06.17.27.83.24.19-.1.76-.14,1.11-.04-.06.07-.35-.04-.52-.03.43.14-.71.08-.03.24-.24-.24-.97-.14-1.59-.24.34.2-.44-.05-.45.11.33.2.59.42.71.6-.61.18-.05.56-.05.76-.32.09-1.03-.02-1.16.09,0,.14.77-.06.43.12l-.14-.03c.16.07-.49.35.52.45l-.76-.09c-.07.04.1.08.18.11-.25,0-.48.03-.64-.04-.53.11.08.27.1.41l.45-.07c.35.24-.1.39.05.62h-.44s.26.12.26.12c-.43-.04-.71.08-.35.16l-1.08-.37c.26-.09.53.12.97.06.38-.05.27-.26-.16-.3-.05.08.05.09.2.15-.62.01-.59-.11-1-.18.02.04-.17.1.03.11-.3-.09-.34-.18-.36-.32.24.1.38-.04.56,0-.54-.03-.71-.17-.55-.34.63-.1-.4-.35-.22-.55.55.11.99.23,1.21.36.28-.11-.01-.14.27-.25-.41-.08-1.03-.15-1.27-.34h.41c-.19-.15-.8-.19-.67-.37.22-.32.25-.66.32-.91l.4.03c-.85-.22-.29-.5-.64-.73.43-.28-.28-.77.43-.84-.24-.61-.46-1.19-.16-1.77l.56.22c-.4-.2.35,0,.28-.12-.49.02-.57-.27-.9-.43.51-.17.08-.62-.23-.98l.39.1c-.66-.45.08-.57.29-.83.17.02.55.08.53-.02-.56-.38-.51-.45-.79-.84.08-.18.35-.42.66-.49-.58-1.06.37-1.49.3-2.47l.43.22c-.19-.61.09-1.01.39-1.33.32-.32.71-.55.79-.99l.51.64c.32.04.2-.5-.21-.9.33.05.21-.67.74-.22.27-.02,0-.47.1-.68.56-.04.67-.14.98-.5h-.12c.05.19.22.49.33.48.03-.28.61-.09.02-.87.65.26.83-.86,1.53-.34-.13-.24-.04-.33-.05-.51.39-.17.93.27,1.11-.26.09.11.02.46.18.45.06-.12-.09-.34-.01-.51.53-.67,1.33.26,1.84.02.88-.63,1.9-.44,2.76-.54v.2c.26-.77.71.77,1.04-.32.08.19.32.11.23.48.34-.49.72.54,1.21-.03-.03-.03-.06,0-.12.08.31.51.78.02,1.1.51-.06.07-.16.11-.22.3.04.4.6-.69.41.23.09.01.21-.43.14-.42.39.3.8.45,1.29.5.5.05,1.01.1,1.46.26.28.83-.79,1.37.01,1.04-.06.17.22-.29.12-.12.32-.11-.33,1.03.05.69.28-.5.26-.22.46-.5.09.54-.18,1,.32.83l-.2.23c.8-.46.83.15,1.72-.4,1.57,1.22,3.18,2.36,4.28,3.91.78,1.67,1.98,3.09,2.11,4.97-.61.67-.58.68-.12,1-.13.03-.17,0-.27.08.63-.19.17.28.78.12.08.66.41,1.19.6,1.83-.1-.08-.63,0-.55.11l.44.02-.17.07c.12.06.46.07.63-.07.49.75.47,1.63.42,2.48-.09.86-.26,1.7-.06,2.49-.23.41.07.92.24,1.33-.73,1.32-1.45,2.38-.79,3.6,0,0-1.7-.16-2.11-.63Z"/>
      <path class="cls-2" d="M133.39,129.18c.33-.04.51-.17.95-.06-.31,0-.65.08-.95.06Z"/>
      <path class="cls-2" d="M136.92,125.94c-.1-.01.14-.03.19-.04.02.04.29.11.12.12-.02-.04-.18-.05-.31-.08Z"/>
      <path class="cls-2" d="M137.21,125.15c.29.05.49.25.51.35l-.51-.35Z"/>
      <path class="cls-2" d="M138.5,124.59c.25-.02.38.02.36.1-.15-.02-.23-.06-.36-.1Z"/>
      <path class="cls-2" d="M137.85,124.44c0-.06.18-.06.34-.07-.25-.04.14.16-.34.07Z"/>
      <path class="cls-2" d="M138.98,123.13s-.23-.17.09-.13c-.23-.02.32.26-.09.13Z"/>
      <path class="cls-2" d="M138.73,122.38s.08,0,0-.05c.14,0,.33.1.35.14l-.36-.09Z"/>
      <polygon class="cls-2" points="147.03 116.42 146.95 116.56 146.99 116.27 147.03 116.42"/>
      <path class="cls-2" d="M151.56,118.83c.18-.08-.16.23-.18.27-.07-.03.27-.24.18-.27Z"/>
      <polygon class="cls-2" points="154.73 120.46 154.71 120.44 155.22 120.12 154.73 120.46"/>
    </g>
    <g>
      <path class="cls-2" d="M133.45,128.04c.14.18.51-.1.23.12-.24-.02-.42-.06-.23-.12Z"/>
      <path class="cls-2" d="M108.8,132.78c-1.5-.64.03-1.38-.87-2.09-.06-.08.83.08.64-.11-1.14-.72-.34-1.72.68-2.34l.23.08c.19-.12-.56-.41-.43-.55.16.02.21.08.43.08-.46-.11-.18-.31-.52-.43.19-.03.56.04.77,0l-.51-.18c-1.21-.47.21-.57-.38-1.03.12.04.21.09.33.09-.67-.69-.37-1.35-.47-2.02.18.07.51.19.72.21-.54-.18-.63-.4-.69-.59.58.09-.43-.43-.07-.53l.12.05c-.55-.32.39-.1-.26-.44l.47.05c-.76-.32.47-.07.12-.31l-.16-.05c-.15-.17.26-.1.16-.24l.09.02c-.12-.31.36-.29-.24-.5.51.1.14.31.88.44-.38-.99.14-1.72.46-2.47.27.03.36.01.59.11-.08-.13.05-.31-.21-.53,0,.03.31.11.36.09.28,0-.54-.48-.2-.48.12.14.29.26.5.36-.37-.36-.21-.49-.26-.71.08.08.11.14.29.24-.4-.45.26-.22.04-.54l.28.25c.51.03-.62-.48-.27-.52.07.11.2.17.32.26-.45-.53-.06-.68-.13-.98.03.04.12.1.12.1.07-.23.37-.3.28-.68.18.03.69.58.72.31-.6-.46.03-.49-.72-.93.24-.08.67-.14.57-.41.15.26.74.54.67.7l.41.21c.21.22-.16.02.15.25.03-.08-.03-.45.1-.42-.23-.42-.74-1.13-.62-1.38.11.29.62.54.65.69-.24-.41-.48-.84-.71-1.27.04-.08.41.42.38.19-.14-.14-.18-.27-.25-.41.08.04.17-.39.67.15.21.2,0,.21.23.35.11-.11-.04-.3.07-.42l.06.07c.15.02.04-.45-.29-.69-.07.03.29.33.08.23-.21-.38-.13-.61,0-.72.02.13.15.28.25.46-.17-.59-.06-.87.02-1.21-.19-.29.28.58.14.44.54.22.2-.95.81-.5,0,.08-.28-.41-.22-.33.16-.05.41.39.4.17.16.25.06-.16.11-.28-.05-.21.09.11.03.18,0-.28.35-.96.86-.72-.09-.17-.11-.74-.02-.76l.16.43c.18.22.23-.15.4.2-.07-.58-.4.71-.36.22.21.32,0-.8.2-.21.14-.08.08-.63.39-.3-.07-.05.12.64.23.56.17-.16-.02-.23.09-.43l.04-.21c-.15-.42.22,0-.04-.45.15.34.25-.32.47.39l.16.56c.07-.07-.05-.63-.06-.9.03.05.09.15.12.24-.26-.85.25,0,.15-.7.29.23.52-.14.76.37.08-.32.15-.64.38-.5-.02.09-.06.12-.02.31.17.23.14,0,.21-.16,0,.13.33.46.51.75.09-.29-.05-.75-.09-1.04.3.84.34-.64.66.11-.04.13-.15.47.01.66.27.84.17-.69.46-.32l-.16-.71c.16.42.29-.47.36.27.05-.27.29.22.19-.48.43.57.91-.43,1.21.83.05-.12.18,0,.14-.37-.11-.39-.11.29-.16.02.05-.02.05-.22.05-.32.13.16.22.2.13.8.26.42.22-1.22.57-.97,0,.3,0,.4.13.36l.24-.49c.28.13.12.68.11,1.18.13-.08.29-.04.39-.41l.09.63c-.06-.46.15-.29.22-.4l-.08.11c0,.21.15.11.23.06.04-.31-.09-.46-.17-.57.1-.2.2-.13.33-.37-.11.48.15.39.25.46.1.13.23-.4.27-.37-.05.25.19.08.01.41-.06.07-.04-.26-.16-.06.04.2-.08.63.16.35.18-.21.22-.95.37-.58-.09.1-.15.28-.25.44.05.1.09.2.13.31l.13-.42c0,.12-.03.15-.04.21.19-.43.35-.04.57-.52.12,0,.12.37.2.45l-.03.03c.03.29.25.18.46-.05l-.04.09c.05.06.22.06.41-.14.02.38-.65,1.55-.25,1.12.15.05.6-.62.66-.9.16.39.81-.05.71.7.13-.13.16-.24.3-.28.31.37,1.13.11.9,1.04-.22.07-.27.35-.43.55.32-.26-.16.4.29-.12.24-.32.37-.47.36-.68.35-.01.69.25.55.64.07-.19.19-.25.31-.3-.43.47-.35.68-.09.61l.28-.28-.2.36c.13-.05.6-.56.46-.18-.1.12-.2.23-.25.33.33-.13.89-.37.76,0l-.32.5c.09,0,.42-.14.46-.35-.05.45.03.61-.27,1.01,1.24-.46,1.73.12,2,.64l-.25.16c-.13.28.46-.23.36-.03-.26.12-.43.44-.78.54-.13.34.58-.07.77-.02.33-.2-.26.04.15-.21.13-.05-.09.42.42.13-.16.17-.54.37-.76.47l.31-.04c-.49.5-1.2.36-1.82.96l.13.04c-.46.42-.72.14-.76.48.3-.06,1.07-.43,1.23-.66.27.13,1.24-.64,1.35-.36-.25.25-.19-.16-.57.14-.33.36.36.09.29.28.12-.23.68-.43.82-.41-.16.27-.53.2-.47.41.31-.14.63-.09.74-.36.7-.31-.06.3.51.12-.44.32-1.18.4-1.31.74.44-.28.75-.08,1.36-.55-.09.16-.44.35-.75.44-.22.26.98-.15.09.36l.49-.2c-.13.11-.22.23-.45.41.04.1.81.02.08.35.09,0,.17.25.63-.08.23-.29-.45,0,.18-.4-.5.37.18.18.41.19l-.27.14c.13,0,.13.15.45.05-.18.03-.36.14-.41.21l.45-.13c.3.13-.74.38-.53.53h-.4c.08,0-.29.23-.12.27.41-.13.91-.25,1.23-.34.22.05-.43.24.03.19l-.54.04c-.14.03-.61.37-.55.52.17.04.81-.02.97-.27.04.08-.16.28-.48.33.21.13.42-.19.73-.13-.24.17-.55.5-.89.76l-.73.09.03.1c-.59.07-.39.21-.98.34-.07.1.16.11.33.12.84-.52,1.34-.2,2.15-.54.32.23-1.99.84-.59.72.2-.12.89-.17.59-.28-.04.21.88-.13.6.2-.4-.06-.81.43-1.38.35.29-.07.18-.19.09-.2-.3.17-.85.25-.8.42.11.08.17.23.61.08.48-.14-.1-.15.41-.23.24.18-.5.42.39.27-.11-.12.38-.3.72-.39l.25.12-.33.06c-.15.34.61-.08.6.22l-.61.29c-.57.08.14-.45-.75-.16.01.18.49.11.3.33-.09-.02-.12-.06-.21-.07-.02.07-1.18.42-.43.49.3.06.33-.04.67-.12.16.25.52.25.61.42-.67.11,0,.33-.72.28.37-.17.25-.56-.4-.51-.77.28.07-.24-.74-.1.03.21-.75.39-1.25.54-.02.06.2.07.29.08.48-.09.46-.16.95-.28-.08.26.23.42.72.45-.22.13-.71.2-.77.12.2.24.19.55.1.83.75-.3.24.26.87.04.15-.17.68-.39,1.05-.37-.03.1-.35.06-.51.12.45.05-.65.29.04.3-.3-.22-.97.1-1.59.15.38.12-.44.06-.42.24.36.12.66.3.82.49-.56.32.06.63.11.86-.3.15-1.02.13-1.12.27.03.14.75-.17.45.07h-.14c.18.04-.45.42.57.41h-.77c-.07.03.11.05.19.08-.25.02-.47.08-.64.03-.52.16.09.27.12.41l.45-.12c.36.23-.08.42.09.65h-.44s.27.14.27.14c-.43-.02-.7.11-.34.18l-1.1-.33c.26-.11.54.09.97.01.38-.06.25-.28-.18-.3-.05.08.05.08.21.14-.62.05-.6-.08-1.01-.12.03.04-.16.11.04.11-.3-.07-.35-.15-.37-.28.24.08.38-.07.56-.04-.54.02-.71-.1-.57-.28.62-.16-.4-.29-.26-.48.56.03,1.01.1,1.23.21.27-.15-.02-.14.24-.29-.42-.03-1.05-.02-1.32-.15l.4-.05c-.22-.12-.82-.06-.73-.25.16-.33.13-.64.15-.88l.4-.07c-.87,0-.38-.39-.8-.49.32-.36-.51-.55.15-.84-.39-.46-.83-.79-.83-1.34l.59-.08c-.44.03.31-.16.2-.23-.42.24-.62.05-.98.1.38-.37-.21-.5-.67-.54l.38-.15c-.79.08-.25-.38-.23-.68.14-.09.48-.29.41-.34-.65.13-.65.05-1.11.04-.06-.13-.02-.41.14-.66-1.03-.07-.85-.79-1.58-.96l.37-.3c-1.14.18-.76-.89-1.47-.85l.63-.52c.09-.28-.37-.09-.76.33.09-.28-.5.04-.1-.49,0-.2-.38.16-.53.17.01-.4-.1-.44-.4-.46l.02.07c.13-.12.35-.39.33-.47-.22.12-.15-.38-.66.45.07-.3-.12-.3-.29-.31-.17,0-.32,0-.23-.39-.12.24-.2.25-.31.39-.17-.11-.12-.67-.46-.33.03-.13.24-.39.17-.45-.09.07-.15.31-.26.43-.24.15-.31-.01-.39-.21-.07-.2-.16-.49-.29-.43-.14.11-.25.16-.35.18-.09.05-.16.07-.23.06-.03-.02-.26,0-.41,0-.16,0-.32.02-.48.05v-.2c-.15.76-.58-.73-.63.4-.07-.18-.2-.08-.21-.45-.09.55-.53-.4-.66.3.02.01.03-.03.04-.12-.32-.38-.41.24-.74-.1,0-.09.04-.15,0-.35-.19-.34-.04.84-.32-.06-.05.03.08.47.1.43-.62-.16-1.04.55-1.43.98-.58-.34-.67-1.44-.67-.66-.1-.15.14.33.05.16,0,.29-.64-.86-.51-.38.29.5.09.31.25.63-.39-.22-.72-.67-.67-.17l-.14-.27c.23.88-.24.64.15,1.57-.48.36-.76.95-1.09,1.42-.14.27-.26.55-.4.8-.07.13-.14.25-.22.37-.06.14-.13.27-.2.39-.2.21-.38.43-.54.67l-.4.79c-.31.5-.51,1.1-1.05,1.56-.85-.02-.84.04-.65.47-.12-.06-.14-.09-.26-.11.61.24-.03.25.55.49-.29.41-.26.9-.37,1.4-.05-.1-.55-.28-.54-.18l.38.21-.18-.03c.08.09.37.24.59.23.21,1.33-1.29,2.35-1.3,3.72-.33.28-.1.76,0,1.11-.98.93-1.68,1.91-1.1,2.98,0,0-1.69-.14-2.07-.61Z"/>
      <path class="cls-2" d="M133.38,127.82c.33-.04.5-.18.94-.08-.31.02-.65.09-.94.08Z"/>
      <path class="cls-2" d="M136.45,123.96c-.1,0,.12-.07.18-.1.03.04.31.05.14.11-.03-.04-.18-.01-.32-.01Z"/>
      <path class="cls-2" d="M136.46,122.95c.29-.04.56.13.62.25l-.62-.25Z"/>
      <path class="cls-2" d="M137.44,121.76c.22-.14.36-.15.38-.03-.15.04-.23.02-.38.03Z"/>
      <path class="cls-2" d="M136.78,121.85c-.02-.08.14-.16.29-.23-.24.06.19.14-.29.23Z"/>
      <path class="cls-2" d="M137.01,119.56s-.31-.07-.02-.22c-.19.13.44.12.02.22Z"/>
      <path class="cls-2" d="M136.23,118.77s.05-.07-.04-.07c.1-.11.32-.13.37-.09l-.33.16Z"/>
      <polygon class="cls-2" points="121.11 109.95 121.19 109.79 121.21 110.08 121.11 109.95"/>
      <path class="cls-2" d="M113.94,112.85c.02.21-.23-.18-.27-.2.06-.08.19.31.27.2Z"/>
      <polygon class="cls-2" points="112.07 116.68 112.08 116.65 112.54 117.03 112.07 116.68"/>
    </g>
  </g>
</svg>