<?xml version="1.0" encoding="UTF-8"?>
<svg id="Layer_2" data-name="Layer 2" xmlns="http://www.w3.org/2000/svg" viewBox="0 0 126.38 116.43">
  <defs>
    <style>
      .cls-1 {
        fill: #ff3600;
      }
    </style>
  </defs>
  <path class="cls-1" d="M53.98,42.81c.11-.18.03-.29-.08-.38-.2.66.07-.19.08.38Z"/>
  <path class="cls-1" d="M84.8,85.94c.05-.05.1-.1.13-.16-.29,0-.06.1-.13.16Z"/>
  <path class="cls-1" d="M89.76,81.39c-.12.46-.75-.48-1.06-.39l-.29-.32c-.01-.15.18-.21.1-.37-.6-.44-.99-1.02-1.47-1.48,0,0,.03-.04.07-.03-.48-.36-1.05-1.13-1.69-1.38l-.03-.04c.06-.03.09-.1.22-.03-.19-.31-.3-.22-.42-.18l-.27-.3h.16c-.45-.22-.49-.78-1.06-.99.06-.08.17-.02.26,0-.32-.25-.61-.58-.95-.77l-.17-.18c.06-.04.15-.05.28,0-.16-.34-.41-.27-.62-.37l-.2-.22c-.07-.11-.11-.37-.05-.32-.19-.04-.45-.28-.67-.48l-.26-.29c0-.12-.05-.26-.13-.5-1.57-1.72-3.14-3.51-4.92-5.04l-.22-.24c.04-.45.55.29.56-.06-.22.23-.34-.24-.92-.71l.02-.05c-.26-.19-.23-.45-.53-.64l-.05.07c-.4-.12-.23-.87-.66-.73l-.02-.36c-.51-.01-.29-.49-.81-.61h.08c-.28-.55-1.12-.64-1.05-1-.3-.26-.63-.54-.9-.59l-.12-.13c.06-.05.15-.08.23-.09-.98-.92-1.96-2-2.95-2.9l-6.95-7.62c-.72-.96-1.5-1.84-2.29-2.51l-.96-1.05c.04-.05.07-.1,0-.15-.17-.12-.34-.25-.5-.39l-5.08-5.57-.1,1.04c-.57-.17-.95-.08-.95-.08.29.26.56.53.83.8-.01.18-.13.33-.27.25l.09.43-.22-.04c.01.71-.25,1.17-.15,1.91l.25-.25c-.01.21.04.43.07.65l-.04.38c-.02.07-.04.15-.1.21-.06-.2-.19-.07-.31-.08.03.1.11.22.06.33l-.36-.23c.49.23.08,1.17.14,1.36l-.06-.07c-.22.61.22-.09.19.33-.09.36-.43.1-.61.42-.05.64.14,1.76-.22,2.45.01.58.09,1.22.22,1.74-.05.51-.39-.07-.27.46-.13-.07-.28,0-.41.02.15.07-.11.95.27.57-.14.73-.25,1.56-.25,2.35,0-.26-.24-.35-.38-.15.2.38.28,1.03.15,1.68.25.01.27-.2.51-.11.03.1.13.27.09.43-.27.07-.66,0-.72.59-.39-.2.14-.99-.28-.77-.3-.29-.22-1.35,0-1.57-.3-.55-.08.41-.41.28-.02.47.14.71.12,1.45.17.02.22-.22.33.13.3.68-.33.79-.36.95-.03-.1-.03-.23-.06-.33-.16.42.06.59,0,1.05-.47.08.02-.73-.25-.93l-.36.3c-.11.7.36.23.17.94l-.16-.1.06.46c.17.02.44-.05.44-.44.42.3.03.36.06.99.24.22,0-.26.25-.25.23-.04.2.38.22.7-.05.51-.3.23-.49.42-.03-.1-.03-.49.11-.44-.2-.65-.55.22-.69-.23-.19.47.11.48.17.74.04-.15.25.09.35,0,.61.89-.55.48-.51,1.29.46-.13.52,1.12,1.05.58.06.2.14.45.07.64-.28-.24-.27.33-.52-.07l-.03.29-.32-.47c-.24.3-.49.82-.65.97.09.43.3-.1.33.39-.14-.18-.3.1-.31.32.16-.42.42.03.47.31-.03.43-.35.74-.41.67l-.22-.44c.19.33-.13.13-.06.46.16.11.39.33.6.45.05.28-.19.45-.16.55l-.14-.45c.01.57-.47.08-.41.67l.22.17c-.05.11-.16.16-.24.04.16.1.09.43.14.58l-.16.02c.08.25.39.59.06.85.39-.2.03-.29.24-.69.3-.23.22.43.25.53-.39-.06-.09.62-.13.91-.16.16-.24.3-.33.4l.25.14c-.52.06.06.59-.13.91-.14-.18-.35-.18-.44.05.41-.28.43.56.69.49-.19.58-.47-.18-.75-.03.27.32-.25.64.11.88.16-.42.24.09.39.19-.08.54-.16-.1-.33.26.03.23.3.55.44.21-.11.31.22.7-.05,1.03-.25.12-.05-.67-.24-.48-.09.75.55.43.57,1.14.16-.29.55.04.66.39-.18.76-.11-.35-.44-.08l.02.31c-.46.39-.6-.98-.97-.6l.11.35c-.11-.08-.31-.21-.44-.08.28.11,0,.79.06.85.24.09-.05-.28.14-.21.03.36.42.56.22,1.09-.14-.32-.34.08-.47-.05-.13.26.28.11.11.48l-.14-.06c-.18,1.42-.32,3.2.17,4.48-.27.2-.33.66-.57,1.35.11-.31.25.01.27.19l-.32.31c-.2.4.02.97.14,1.37-.06.06-.14.08-.22.09-.22.35.12.4.17.55l-.22.22.19.07c.08.38-.02.87-.33.79.05.15.09.3.2.12-.22.35-.32,1.36-.27,2.04.11-.31.21-.27.41-.28.33.13-.08.14.1.43-.13,0-.28.28-.35-.05-.26.42-.33.95-.36,1.52-.01.28-.02.57-.03.86l-.03.43-.06.53c.02.36.09.25.16.41-.23.56-.28,1.23-.31,1.84-.03.63-.03,1.2-.17,1.89.18-.43.59-.52.55.01.01.01.03.03.03.04.65-.4-.32.57.13.59.43-.28,1.01-.51,1.25-.57l-.05.07c.47-.32,1.03-.59,1.43-.59l-.07.04c.34-.09.77-.05,1.17-.2.05-.15.38-.29.55-.37.18-.08.36-.16.39-.3.04.02,0,.05.08.08l-.05-.22.53-.04c-.08.12-.07.22-.19.32.57-.03.11-.26.35-.46.31-.27.36-.06.57-.03-.11.16-.28.04-.36.11-.15.24.24,0,.29.11.08-.02.03-.29.31-.33.24-.05.76-.3.77-.05.16-.19.4-.24.51-.4-.2.02-.57.08-.66-.06.16-.09.48-.26.57-.18l-.12.1c.12-.1.64-.2.31-.33l.45.18c.07-.22.44-.33.71-.47.09.23-.06.57.51.45l.39-.4c.24-.1.32-.07.33.08.89-.15.65-.94,1.38-.95-.19.37.05.32.38.3,0-.05,0-.15.11-.2-.13-.1-.11.25-.4.14-.13-.15.23-.21.35-.31.79.41,2.02-.51,3.07-.55-.18-.32.4-.24.55-.43.06.37.52-.24.85-.12l-.26-.3c.65,0,.78-.84,1.28-.55.37,0-.03.29-.15.39.58.23,1.11-.71,1.61-.42,0-.15-.22-.33.14-.59.37.04,1.06.02,1.02.1.24-.16.27-.29.6-.26,0,.1-.12.15-.19.22.49-.06.8-.34,1.16-.6.33.18,1.09-.22,1.66-.25.18-.42.89-.15.79-.59,0,.05.09.08.13.1.15-.19.22-.51.46-.61v.3c.07.37.74-.17.87-.02-.29-.16.28-.09.23-.31l.26-.19c.44-.23,0-.16.57-.39.32-.12.22.28.09.29.32.05.57-.12.83-.28-.1.04-.15.03-.07-.07.02.04.06.04.1.04.09-.06.19-.11.29-.14,0,0,0,0,0,.01-.11.05-.21.1-.29.13.08,0,.19-.03.3-.07.02,0,.04,0,.08-.02.1-.03.19-.05.27-.03v.24c.2-.06.67-.49.62-.58.85-.08,2.09-.67,2.58-.97-.09.08-.08.16,0,.05.26-.13.5-.42.57-.29.23-.18.3.07.71-.05.02.04-.01-.24-.12-.17.8.1,1.49-.72,2.39-.8-.06.04-.11.19-.15.28.59-.32,1.16-.61,1.64-1.06-.03.12.02.2-.11.31.35-.12.72-.29.93-.49-.01,0-.03.02-.05.02-.38-.09.12-.47.42-.52l.02.04c.43-.15.41-.28.85-.43.3.04-.21.14-.06.24.22.31,1.07-.12,1.17-.11.08-.11.21-.22.16-.3.31-.21.22.15.46.05.29-.32.52-.62.67-.89l.06-.02c.12.07.51.13.31.31.53-.21.7-.46.77-.68l1.19-.4-.27-.3c.26.15.41-.04.76.18-.52-.39-1.05-1.17-1.5-1.76ZM53.18,44.85s.05-.02.07-.03l-.05.5s-.05-.02-.09-.02c.03.1.06.15.07.21l-.02.23c-.19-.15-.18-.76.01-.9ZM52.89,48.7l-.02.22s-.03-.03-.04-.04c.03-.07.05-.12.06-.18ZM75.78,89.22c.06-.05.13-.09.18-.1-.05.03-.12.06-.18.1Z"/>
  <path class="cls-1" d="M84.8,85.94s0,0,0,0c0,0,0,0,0,0Z"/>
  <path class="cls-1" d="M75.05,89.58s.03-.01.05-.02c0,0,0,0-.01,0-.01,0-.02.01-.04.02Z"/>
  <path class="cls-1" d="M50.98,54.34c-.06.16-.28.29-.15.52-.09.1-.22-.17-.27.07.16.24.47-.08.6-.47.02-.02.03-.01.05-.02-.09.02-.17,0-.23-.1Z"/>
  <path class="cls-1" d="M82.34,87.18s-.05.02-.07.04c.02.06.04.03.07-.04Z"/>
  <path class="cls-1" d="M49.81,63.34c.02-.09.01-.15,0-.21-.01.04-.01.1,0,.21Z"/>
  <path class="cls-1" d="M50.9,54.06c.01.14.04.22.07.28.03-.08.03-.17-.07-.28Z"/>
  <path class="cls-1" d="M51.2,54.45s.04,0,.06-.01c-.01,0-.04,0-.06.01Z"/>
  <path class="cls-1" d="M51.14,53.76c-.1.1.03.23.03.36.03-.03.16-.16.11-.18-.06-.07-.14-.05-.14-.19Z"/>
  <path class="cls-1" d="M50.74,55.66c-.01.34.05.94.19.99l-.19-.99Z"/>
  <path class="cls-1" d="M49.92,58.97c-.03.29.03.36.17.15-.06-.07-.09-.17-.17-.15Z"/>
  <path class="cls-1" d="M50.2,59.74c.09-.09.19-.19.2-.4-.24-.09-.08.4-.2.4Z"/>
  <path class="cls-1" d="M49.47,64.78c-.2-.12.05.41-.08.54.17-.11.08-.4.08-.54Z"/>
  <path class="cls-1" d="M49.26,67.41c0,.13.09.3.17.15-.03-.1,0-.13.02-.21l-.19.06Z"/>
  <polygon class="cls-1" points="64.1 93.44 64.34 93.28 64.1 93.29 64.1 93.44"/>
  <path class="cls-1" d="M83.71,86.78c.31-.13.04.17.28.07-.05,0-.04-.25-.28-.07Z"/>
  <polygon class="cls-1" points="88.9 80.67 88.7 80.9 88.96 80.74 88.9 80.67"/>
  <path class="cls-1" d="M37.81,37.62c.14.08.21.29.43.18.08.1-.17.21.04.27.2-.15-.04-.47-.34-.62-.01-.03,0-.04-.01-.06,0,0,0,0,0,.01,0,.09-.02.17-.12.21Z"/>
  <path class="cls-1" d="M37.51,37.65c.16.01.24,0,.3-.03-.07-.04-.16-.05-.3.03Z"/>
  <path class="cls-1" d="M61.47,22.28s0,.04.01.05c.06,0,.04-.02-.01-.05Z"/>
  <path class="cls-1" d="M41.22,38.37s-.01.02.02.02c0-.02,0-.02-.02-.02Z"/>
  <path class="cls-1" d="M37.93,37.4s0-.03,0-.05c0,.01,0,.03,0,.05Z"/>
  <path class="cls-1" d="M61.53,25.84s0,0-.01,0c0,0,0,0,0,0,0,0,.01,0,.02,0Z"/>
  <path class="cls-1" d="M47.16,43.54c-.43.07-.02-.25-.06-.43.4-.17.01.18.35.16.15-.13.18-.51-.1-.46.25-.05.28-.5.62-.45.23.14-.35.36-.13.42.49-.29-.09-.65.26-.99-.24.02-.33-.44-.25-.69.46-.23-.08.25.25.37l.14-.16c.5.14-.08.93.35,1.03l.1-.26c.03.13.1.34.25.37-.13-.27.4-.41.39-.5-.12-.22-.1.18-.2,0,.15-.22-.03-.59.35-.73-.04.27.28.19.31.36.21-.05-.15-.25.14-.33l.08.13c.38-.33.78-.72,1.08-1.16.16-.22.28-.45.38-.69.04-.12.1-.25.11-.36-.02-.07-.03-.16-.05-.25.2.14.3.06.46.13-.07-.04-.11-.27-.08-.35.05.08.1.17.14.27.04.05.05.03.07-.04.03-.07.07-.19.12-.28.02.08.02.17.02.27.05.26.08-.14.13-.18,0,.09.01.17.01.25l.05-.2c.11-.05.24.08.08.36.05-.04.11-.07.11-.18,0,.06,0,.1.03.15.08.08.17.16.28.23.21.15.48.27.71.34-.15-.18-.08-.25,0-.44.23-.26.06.11.31.02-.06.11.06.33-.18.3.31.69,1.25.79,2,1.16.17.01.15-.06.25-.12.21.24.49.33.83.38.39.03.78.06,1.16.1-.18-.14.03-.53.36-.58.3-.36.26.35.73.39.14-.21.46-.38.58-.49l.02.05c.13-.26.3-.59.58-.73v.05c.13-.18.43-.33.51-.59-.18-.22.15-.75-.07-.94.03-.02.05.02.11-.03l-.21-.06c.07-.15.13-.27.18-.4.08.09.18.12.23.25.19-.42-.19-.17-.3-.4-.14-.3.07-.26.17-.4.11.12-.05.2-.02.28.17.18.08-.18.2-.17,0-.06-.26-.09-.21-.3.03-.19-.07-.58.18-.55-.13-.14-.13-.32-.25-.42-.03.14-.07.4-.22.44-.03-.13-.13-.36-.03-.41l.07.09c-.07-.09-.04-.46-.24-.25l.28-.29c-.2-.07-.22-.32-.3-.52.24-.05.55.07.53-.33l-.31-.29c-.06-.17-.02-.22.13-.23,0-.63-.8-.44-.71-.95.34.12.32-.05.34-.28-.05,0-.15.01-.18-.07-.11.09.23.07.08.27-.16.1-.17-.15-.25-.23.13-.12.16-.35.19-.42.03-.08.01-.16-.01-.24-.05-.15-.17-.36-.04-.43-.33-.11-.26-.17-.28-.24.01,0,.02-.02,0-.04.42.24.1-.1.42.02l-.41-.23c.22.03.17-.1.18-.21,0-.12.05-.22.26-.08.2.04.12.24.12.3.21.13.22.04.28-.07.06-.11.28-.29.47-.14-.04-.14-.23-.32-.03-.56.27.04.78-.02.78.06.14-.16.12-.29.38-.3.04.09-.04.16-.08.23.36-.11.52-.42.69-.75.32.07.87-.52,1.18-1.39-.13-.28-.11-.61-.19-.91-.07-.28-.19-.46-.39-.37.05-.01.05-.12.05-.16-.26-.12-.57-.04-.75-.15l.24-.17c.15-.11.01-.26-.14-.36-.15-.09-.33-.17-.31-.27.04.31-.21-.12-.33.08l-.25-.02c-.28-.04-.09.11-.4.03-.17-.05.14-.31.16-.26-.02-.18-.16-.13-.31-.11.04.01.04.03-.05.07.03-.03.03-.05.03-.07-.05,0-.1,0-.15,0,0,0,0,0,.01-.01.06,0,.1,0,.14,0,0-.03-.04-.04-.07-.06.01-.01,0-.01-.03-.01-.03-.01-.05-.03-.03-.07l.24-.16s-.21.04-.39.1c-.06.01-.11.02-.15.04.27-.39.15-.7.06-1.04.04.08.12.1.05.01-.02-.2-.19-.43-.04-.43-.08-.19.17-.16.22-.44.05,0-.22-.06-.2.02.39-.46-.13-1.11.08-1.69.02.05.14.11.22.16-.11-.45-.22-.89-.53-1.27.11.03.2.01.27.11-.03-.32-.13-.69-.38-.8-.06.23.13,0,.14.14-.17.25-.43-.11-.42-.32l.05-.02c-.07-.31-.21-.29-.3-.59.05-.24.12.14.22.01.33-.21-.13-.89-.16-.96-.11-.03-.22-.09-.29,0-.25-.14.06-.25-.08-.39-.31-.01-.6.04-.87.15-.02,0-.03-.02-.05-.02.02-.11-.07-.34.15-.37-.36-.11-.64.05-.86.24-.3.01-.64.09-1.03.25.06-.13-.23-.26-.12-.43-.25.22-.86.39-1.24.57.43.19-.24.43-.13.71-.07.05-.15.11-.22.16-.12-.03-.18-.21-.3-.18-.3.4-.7.61-1,.93,0,0-.04-.03-.04-.07-.12.17-.31.34-.48.55-.17.2-.27.37-.33.64,0,0-.01.01-.02.02-.03-.07-.07-.11-.04-.22-.18.08-.12.21-.09.35-.06.06-.12.13-.18.19v-.17c-.15.41-.41.19-.6.79-.02-.12.03-.22.06-.32-.04.07-.09.14-.14.2l-.07.1s-.05.07-.07.04c-.07-.05-.15-.08-.22-.08-.03-.04-.07-.08-.11-.12.02-.09.05-.15.11-.17-.12-.28-.22-.05-.33-.06-.04-.04-.09-.09-.13-.14-.05-.09-.09-.33-.05-.3-.11.05-.29-.08-.44-.19-.06-.06-.12-.11-.18-.17.01-.1-.01-.2-.05-.38-1.11-.99-2.36-2.03-3.85-2.39-.07-.03-.14-.06-.22-.09-.07-.38.44-.05.38-.34-.12.31-.28-.04-.8-.08v-.05c-.22,0-.3-.22-.55-.17v.08c-.26.14-.53-.47-.68-.08-.06-.08-.13-.15-.2-.22-.22.37-.44-.09-.69.3l.02-.07c-.24-.04-.41.18-.54.32-.13.15-.19.3-.35.23-.21.19-.37.45-.34.66-.02.03-.05.06-.07.08-.06-.05-.12-.12-.15-.18-.49.78-.83,1.7-.9,2.56-.22.93-.37,2.06-.41,3.47,0,0-1.82.03-3.13.52-.19.04-.38.09-.55.17-.4.18-.76.5-.8.91-.02.12,0,.24.04.36.03.25.14.54.36.86-.07.02-.11.04-.06.08.11.09.22.17.32.25.49.57,1.29,1.23,2.5,2.02l-1.27,1.11c-.33.26-.62.5-.88.73l.04-.2c.01.23-.26.29-.36.09l-.11.28-.14-.17c-.29.38-.66.41-.89.96.1,0,.21-.01.3,0-.1.12-.12.27-.17.39-.06.07-.11.14-.16.2-.04.03-.08.07-.15.08,0-.14-.16-.11-.28-.15,0,.08.04.17-.04.23-.1-.08-.19-.16-.29-.25.38.28-.25.82-.18.99l-.06-.04c-.3.46.24-.08.16.22-.09.26-.43.13-.61.43.02.26.14.62.39.9.23.29.5.51.64.78.45.23,1.06.28,1.51.21.39.09-.15.37.32.3-.07.13-.05.27-.04.41.07-.15.74.14.48-.25.5.15,1.07.22,1.6.17-.17.02-.23.26-.09.39.13-.12.3-.2.49-.26.09-.03.21-.04.3-.05.07,0,.14,0,.22.01.03-.25-.08-.25-.03-.49.06-.04.16-.15.25-.14,0,.26-.09.66.12.66-.19.41-.33-.04-.33.36-.08.16-.14.25-.3.27-.23.02-.45-.03-.53-.13-.37.34.29.05.21.39.15-.01.32-.06.4-.11.04-.05.16-.11.22-.14.05-.17-.02-.2.1-.34.33-.37.14.25.14.26-.04.04-.07.06-.11.1.01.12.17-.12.26-.11-.32.48-.17.06-.35.35-.04.11-.09.22-.16.34-.02.05.26-.39.23-.27l-.15.17s.07-.07.12-.11c.17-.18.4-.45.3-.41.28-.31.26-.24.26-.19,0,.03-.05.11-.01.12.25-.19-.02-.04.23-.29.23-.25.23-.11.27-.02,0,.19-.27.3-.44.47-.04,0-.07-.06.07-.17-.26.09-.52.47-.7.56-.15.14.16-.09.24-.11.03-.04.25-.15.33-.23.34-.11.22.04.02.15-.19.13-.46.24-.39.27.22-.08.37-.07.54-.02.16.03.33.11.57-.04.08.06.2.25.17.37-.32-.12-.21.27-.52.03l.02.2-.39-.27c-.18.25-.34.66-.47.81.18.3.27-.14.41.22-.18-.1-.26.15-.23.31.05-.35.42-.08.53.1.06.31-.11.66-.2.63l-.35-.27c.29.21-.08.15.09.39.18.03.47.11.7.12.14.19.05.49.12.56-.12-.11-.24-.23-.36-.36.32.56-.38.32.04.9.1.01.19.02.28.03.04.13,0,.25-.15.19.19,0,.4.33.54.42l-.08.14c.29.14.72.11.83.54-.02-.45-.27-.2-.51-.65,0-.39.49.11.58.13-.25.31.53.43.81.48.12.19.26.3.36.39l.18-.24c0,.25.18.26.38.19.2-.08.41-.21.58-.15-.17.17-.15.39.13.42-.37-.31.51-.59.34-.82.61-.04-.02.52.2.72.23-.37.81-.08.82-.51ZM61.15,25.83c-.05.01-.09.01-.1,0,.03,0,.06,0,.1,0ZM37.67,31.96s.03.03.05.05c-.08.07-.15.14-.22.21-.02-.02-.03-.05-.06-.07-.02.07-.02.12-.03.16-.04.04-.07.07-.11.11-.09-.2.16-.53.37-.45ZM36.14,33.93s-.03.07-.05.11c-.01,0-.03-.01-.04-.02.04-.04.06-.06.09-.09Z"/>
  <path class="cls-1" d="M37.48,37.27c-.08.05-.09.13-.23.11.07.1.25,0,.37.02-.03-.03-.12-.17-.15-.13Z"/>
  <path class="cls-1" d="M39.53,37.66c-.23.08-.46.15-.7.22.25,0,.67-.08.7-.22Z"/>
  <path class="cls-1" d="M40.86,38.29c-.02.07-.03.11-.05.19.01,0,.04-.06.05-.19Z"/>
  <path class="cls-1" d="M40.97,37.96c-.08.25.06.04.02.16.02-.08.02-.17-.02-.16Z"/>
  <path class="cls-1" d="M41.1,38.67s-.05-.02-.05-.02c-.11.01-.09.02-.05.02,0,0,.02,0,.03,0l.03.07s.02.09-.01.12c.08-.05.08-.13.06-.2Z"/>
  <path class="cls-1" d="M41.34,40.45c.03.1.16.2.2.06-.05-.06-.03-.1-.04-.16l-.17.1Z"/>
  <polygon class="cls-1" points="60.33 31.63 60.34 31.55 60.21 31.52 60.33 31.63"/>
  <path class="cls-1" d="M61.65,21.1s-.25,0-.15.18c-.04-.23.17,0,.15-.18Z"/>
  <polygon class="cls-1" points="55.59 19.01 55.55 19.04 55.75 19.26 55.59 19.01"/>
</svg>