<?xml version="1.0" encoding="UTF-8"?>
<svg id="Layer_3" data-name="Layer 3" xmlns="http://www.w3.org/2000/svg" viewBox="0 0 300 300">
  <defs>
    <style>
      .cls-1 {
        fill: #faaf3a;
      }

      .cls-2 {
        fill: #6fcbdc;
      }

      .cls-3 {
        fill: #202020;
      }
    </style>
  </defs>
  <g>
    <polygon class="cls-2" points="187.3 55.07 192.44 110.16 150 95.95 187.3 55.07"/>
    <g>
      <path class="cls-3" d="M188.41,55.34c-.19-.56-.48.35-.26-.35.24.06.43.15.26.35Z"/>
      <path class="cls-3" d="M185.47,55.96c-.11,2.39-2.88,3.13-3.52,5.28-.11.22-.58-.61-.79-.08-.44,2.24-3.03,4.03-5.31,5.17l-.08-.26c-.43.22-.23,1.15-.63,1.43-.12-.1-.06-.26-.29-.33.27.41-.42.79-.3,1.17-.26.02-.53-.25-.85-.21l.21.57c.43,1.43-1.32,1.31-1.53,2.52-.06-.12-.06-.26-.21-.28-.55,1.76-2.07,3.21-3.12,4.78-.09-.18-.3-.47-.53-.53.36.45.07.97-.18,1.42-.58-.23-.19.99-.82,1.21l-.06-.12c.16.73-.69.24-.39.99l-.52-.11c.48.69-.74.18-.67.72l.13.11c-.08.38-.5.24-.61.56l-.09-.04c-.34.69-.96.7-.48,1.11-.55-.15.31-.68-.52-.89-1.14,2.23-2.92,3.98-4.55,5.79-.38.03-.55.11-.77,0-.07.27-.53.76-.44,1.14.05-.07-.35-.1-.46-.03-.48.16.19.83-.35,1,0-.26-.1-.45-.32-.56.09.64-.34,1-.55,1.47-.03-.13,0-.26-.16-.38.06.78-.75.64-.8,1.23l-.15-.38c-.84.26.42.69-.22.99.02-.19-.12-.25-.22-.37.08.91-.76,1.5-.9,1.99-.02-.05-.12-.1-.12-.1-.3.46-.96.87-1.05,1.39-.36.15-1.03-.21-1.34.34.97.04-.34.83,1.08.51-.46.33-1.46,1.01-1.25,1.15-.32-.07-1.75.57-1.53.23l-1.04.48c-.48.08.47-.37-.27-.12-.06.08-.11.21-.16.35.46.07.93.14.95.23,1.26-.06,2.85-.42,3.52-.29-.66.08-.85.58-1.23.59.94-.18,1.77-.41,2.5-.66.2.03-.56.43-.09.38.17-.15.4-.2.61-.3,0,.09.78.07.4.71-.09.27-.43.02-.38.31.41.13.56-.08.94.03l-.04.09c.23.19.83-.05.71-.52-.14-.07-.1.43-.24.16.26-.36.8-.31,1.25-.16-.19.06-.23.25-.36.43.77-.35,1.45-.31,2.18-.32.12-.33-.44.52-.48.31.69.74,1.95-.07,2.43.83-.13.02.09-.49.07-.39.39.18.21.65.54.56-.07.29.36.02.66.03.21-.16.03.16-.22.11.46-.11,2.11-.04,2.85.66.05-.19.76-.5.96-.41l-.22.41c.1.32.69.19.59.57.61-.38-1.8-.1-1.08-.32.03.41,1.04-.42.72.13.41.12.96-.24,1.21.3-.09-.11-.53.49-.19.57.6.11.23-.15.75-.14l.35-.08c.16-.42.49.23.44-.32-.05.37.91.07.61.75l-.26.52c.26.04.6-.45.88-.62.01.06.04.2,0,.28.32-.83.57.27,1.08-.29.42.47,1.31.47,1.38,1.08.48-.12.95-.3,1.35.03-.12.05-.25.03-.34.2.2.34.35.15.65.1-.1.11.41.68.62,1.09.48-.12.5-.62.63-.89.08.95,1.3-.16,1.5.75-.18.07-.72.21-.46.54.08.95.94-.37,1.39.23l.09-.74c.12.52,1-.11.7.57.28-.18.61.46.77-.24.77.89,2.45.44,2.64,1.84.18-.07.48.16.53-.21-.1-.45-.41.16-.41-.12.13.02.22-.15.26-.24.25.25.47.38,0,.85.53.64,1.07-.92,1.83-.37-.13.27-.1.39.16.43l.63-.32c.51.29.1.74-.05,1.22.32.02.67.16.92-.15l.16.71c-.11-.52.34-.2.51-.27l-.18.07c.02.23.3.19.42.16.02-.16-.01-.28-.06-.38-.02-.05-.04-.09-.07-.13-.05-.05-.1-.09-.14-.13.26-.14.33-.07.48-.29-.15.47.17.42.28.52.14.16.16-.41.19-.38,0,.27.2.11.13.46-.05.07-.12-.3-.19-.09.09.23.11.7.3.43.12-.21-.16-1.07.12-.65-.03.12,0,.33-.04.51.1.12.22.25.34.38l-.11-.51c.07.14.05.18.09.25-.07-.52.35-.03.15-.66.07-.03.38.45.54.56v.04c.32.38.43.24.27-.13l.08.13c.1.07.22.04.03-.3.48.5,1.71,2.19,1.56,1.79-.03-.04-.06-.1-.09-.15-.05-.33-.96-1.47-1.27-1.76.15.04.02-.28-.06-.49-.08-.22-.1-.35.26-.24-.2-.19-.32-.24-.44-.41.07-.15-.09-.46-.15-.66-.07-.22-.03-.34.39-.55.2.15.45,0,.7-.02-.41-.12.39-.25-.3-.29-.2.03-.35.05-.46.09-.12.05-.2.15-.27.19-.05,0-.12-.27-.16-.44-.04-.19-.07-.39-.08-.58-.02-.38.05-.74.22-.94-.17.2-.3.07-.44-.06.64-.01.69-.51.43-.86l-.4-.02.38-.28c-.14-.13-.83-.08-.49-.48.15-.03.3-.07.4-.15-.35-.35-.94-.84-.65-1.29l.54-.39c-.08-.17-.45-.44-.58-.11.28-.74.28-1.2.75-1.48-1.31-1.11-1.53-2.88-1.57-4.32h.3c.24-.39-.53-.14-.35-.42.29.1.58-.35.95-.08.26-.58-.57-.66-.74-1-.39-.02.27.26-.22.24-.14-.05.23-.78-.36-.82.21-.16.65-.09.89-.04l-.31-.31c.64-.47,1.3.82,2.09.31l-.12-.3c.58-.35.76.75.9-.04-.32-.31-1.18-.52-1.41-.19-.23-.68-1.41-.19-1.43-.95.32-.24.14.59.6.4.43-.4-.33-.69-.19-1.02-.19.37-.8.13-.93-.09.24-.41.57.2.58-.35-.34-.06-.64-.53-.83-.08-.78-.12.16-.58-.46-.82.52-.23,1.29.44,1.5-.18-.51.14-.77-.67-1.5-.28.13-.25.53-.31.86-.17.28-.36-1.01-.72,0-.92l-.54-.07c.16-.12.28-.28.54-.48-.02-.29-.8-.88,0-.93-.09-.09-.12-.76-.64-.45-.3.45.45.44-.27.74.58-.35-.13-.59-.36-.81l.3-.07c-.13-.13-.1-.47-.44-.53.19.09.39.02.45-.1l-.48-.11c-.29-.56.81-.21.62-.77l.4.4c-.09-.09.33-.32.16-.58-.44-.07-.97-.22-1.31-.28-.22-.3.47-.19,0-.46l.55.36c.15.05.68-.34.63-.77-.17-.26-.83-.62-1.02-.17-.03-.21.2-.54.53-.4-.19-.47-.45.11-.76-.29.27-.2.62-.77,1.01-1.13l.75.37-.02-.29c.61.32.42-.23,1.04-.08.08-.21-.15-.43-.33-.6-.91.67-1.38-.53-2.24-.28-.31-.77,2.09-.7.64-1.4-.22.16-.92-.17-.62.31.05-.5-.91-.25-.6-.87.4.4.85-.55,1.43.03-.3-.01-.19.37-.1.46.32-.24.89-.04.84-.55-.11-.3-.17-.72-.62-.62-.5.06.1.47-.43.32-.23-.6.52-.77-.39-.94.1.38-.4.53-.75.55l-.25-.43.34.06c.17-.75-.63-.16-.6-.87l.63-.39c.58.11-.16,1.04.76.83,0-.46-.49-.57-.29-1.02.09.09.12.22.21.3.02-.17,1.23-.44.45-1.03-.31-.31-.34-.06-.69-.03-.17-.72-.55-.91-.65-1.37.69.03-.01-.84.73-.38-.37.28-.24,1.33.43,1.53.78-.34-.06.59.77.67-.04-.59.76-.63,1.27-.78.02-.17-.21-.3-.3-.39-.49-.02-.47.19-.97.25.07-.67-.26-1.27-.77-1.59.22-.24.71-.22.78.04-.22-.77-.23-1.61-.15-2.36-.75.55-.26-.81-.89-.42-.14.41-.68.81-1.05.62.03-.25.35-.02.51-.14-.46-.28.65-.56-.06-.8.32.69.98.05,1.62.12-.4-.48.44-.02.4-.53-.39-.48-.73-1.08-.91-1.64.52-.77-.16-1.81-.24-2.45.28-.36,1.01-.2,1.1-.58-.05-.42-.73.39-.47-.27l.15.05c-.18-.17.37-1.2-.66-1.29l.78.12c.06-.12-.13-.22-.22-.31.25-.03.46-.19.64,0,.49-.44-.16-.81-.22-1.23l-.43.31c-.42-.69-.02-1.22-.24-1.9l.44-.02-.3-.39c.44.06.68-.35.3-.53l1.18.98c-.23.32-.56-.28-.98-.05-.36.2-.19.83.25.9.03-.25-.07-.26-.25-.43.61-.14.62.24,1.05.39-.04-.13.13-.33-.06-.34.32.23.39.48.45.9-.27-.27-.37.19-.55.1.54-.02.75.37.65.91-.59.43.49.95.38,1.57-.57-.2-1.04-.47-1.3-.82-.24.41.05.42-.19.83.43.15,1.07.22,1.36.69l-.4.06c.25.43.85.38.79.96-.11,1-.01,2.02,0,2.77l-.4.07c.9.34.45,1.36.89,1.89-.3.99.58,2.04-.07,2.6.47,1.66.91,3.11.92,4.87l-.62-.24c.46.27-.32.24-.2.53.44-.4.65.37,1.03.55-.38.82.21,1.78.68,2.43l-.4.06c.82.63.24,1.52.19,2.4-.16.12-.52.31-.45.56.7.41.67.66,1.15,1.32.05.51-.04,1.34-.24,1.88,1.09,1.82.69,3.81,1.43,5.74l-.46.19c1.19,1.82.49,4.26,1.17,5.85l-.83-.08c-.2.54.32,1.15.89.96-.2.54.51,1.25-.12,1.63-.1.54.43.61.58,1.03-.21,1.08-.1,1.46.14,2.44l.03-.25c-.19-.09-.53-.07-.56.18.06.09.09.22.11.36.02.13.03.27.07.5.08.39.23.66.69.35-.2.92.01,1.95.21,3.07.19,1.09.37,2.27.04,2.85.27.06.37.55.58.91.08.79.03,1.47.01,2.12-.02.66,0,1.28.22,2.12-.07,0-.13,0-.19.02-.39-.27-.12-.52-.76-.76-.25.02.36.49.05.54-1.04-.09-2.54-.72-3.88-1.36-1.36-.64-2.57-1.28-3.66-1.57-.49-.1-1-.21-1.51-.34l-1.41-.37c-.6-.15-1.2-.33-1.78-.52-1.17-.38-2.32-.81-3.44-1.14l.09-.18c-.98.46-1.5-1.31-2.45-.44-.12-.24-.64-.31-.39-.62-.76.3-1.5-1.03-2.57-.68.07.04.13.02.25-.03-.73-.7-1.68-.39-2.47-1.07.12-.05.31-.05.4-.23-.23-.47-1.1.5-.99-.46-.2-.06-.29.4-.16.42-1.88-1.02-4.2-1.16-6.35-1.65-1.31-1.03.41-1.53-.99-1.26-.04-.2-.18.32-.14.13-.54.1-.37-1.23-.85-.87-.05.59-.31.24-.43.57-.79-.66-.81-1.22-1.67-1.04l.15-.27c-1.12.53-1.94-.23-2.97.47-.79-.22-1.58-.45-2.36-.67l-.62-.17-1.06-.32-2.15-.63c-3.02-.89-6.02-1.77-9.01-2.66,1.84-2.16,3.79-4.43,5.83-6.73.8-.85,1.59-1.7,2.38-2.55l1.33-1.45,2.34-2.62c1.56-1.75,3.17-3.47,4.98-5.07,1.35-.29,1.39-.37,1.98-1.5.06.12.03.2.18.22-.44-.49.54-.68.16-1.19,1.29-1.23,2.25-2.55,3.48-3.9-.14.26.16.73.36.45l-.07-.55.17.08c.09-.24.02-.65-.3-.61,2.67-3.77,6.68-6.21,9.58-9.63.92-.6,1.76-1.89,2.44-2.84,2.96-1.95,5.57-3.76,7.46-6.74,0,0,.95,1.48.26,2.81Z"/>
      <path class="cls-3" d="M188.54,56.01c-.32.15-.46.57-.92.29.3-.07.63-.3.92-.29Z"/>
      <path class="cls-3" d="M186.17,66.94c.1,0-.12.16-.17.2-.04-.13-.32-.23-.16-.35.04.13.19.1.33.14Z"/>
      <path class="cls-3" d="M186.23,69.67c-.3-.01-.58-.57-.65-.91l.65.91Z"/>
      <path class="cls-3" d="M185.27,72.31c-.23.24-.37.19-.39-.1.15-.04.24.05.39.1Z"/>
      <path class="cls-3" d="M185.94,72.42c.03.21-.14.33-.29.45.25-.03-.2-.47.29-.45Z"/>
      <path class="cls-3" d="M185.61,77.99c.04.13.3.39,0,.55.21-.16-.43-.61,0-.55Z"/>
      <path class="cls-3" d="M186.29,80.5c-.01.08-.06.12.03.21-.12.16-.35.02-.39-.1l.36-.11Z"/>
      <polygon class="cls-3" points="177.48 102.83 177.78 102.79 177.65 103.05 177.48 102.83"/>
      <path class="cls-3" d="M158.1,96.36c-.32.09-.1-.32-.13-.38.25.05-.2.31.13.38Z"/>
      <polygon class="cls-3" points="153.08 93.64 153.05 93.69 152.3 93.63 153.08 93.64"/>
    </g>
  </g>
  <g>
    <path class="cls-1" d="M201.84,43.65c8.56,6.7-3.99,5.41-3.99,5.41.42,13.06-8.92.47-8.92.47-12.53,9.16-6.69-5.8-6.69-5.8,0,0-8.79-2.73-1.47-4.68,0,0-3.22-15.46,7.67-3.91,0,0,10.36-11.83,10.8,2.23,0,0,9.06.14,1.32,5.17l1.27,1.11Z"/>
    <g>
      <path class="cls-3" d="M202.7,42.96c-.38-.14-.16.53-.34.02.18-.15.35-.25.34-.02Z"/>
      <path class="cls-3" d="M201.41,42.28c-.24.05-.46.05-.65.03l-.03.48c.27-.61.81-.88,1.33-1.22.52-.32,1.06-.75,1.04-1.45.04-.16.66.53.7.08-.06-.39-.09-.75-.21-1.04-.11-.29-.28-.48-.52-.7-.44-.41-1.21-.88-1.65-1.31-.17-.16-.31-.31-.41-.46l.22-.2c-.08-.18-.92.49-1.12.37.13-.14.26-.19.38-.38-.22.2-.38.25-.54.28-.1.04-.11-.02-.14-.05-.03-.03-.08-.03-.16,0,.16-.26.51-.54.69-.81-.17.09-.33.18-.5.25-.76.29-.56-.33-.49-.75.04-.26.05-.48-.23-.64.13,0,.23.03.34-.06-.91-.85-1.13-2.18-2.03-2.81.16-.14.44-.41.52-.62-.18.18-.39.28-.56.3-.17.02-.32-.03-.47-.05.11-.33-.07-.29-.28-.17-.22.12-.44.25-.53.05l.08-.14c-.44.61-.25-.47-.64.34,0-.17-.02-.35-.04-.52-.25.94-.29-.47-.55.05v.19c-.19.26-.28-.18-.44.03l-.02-.1c-.37.34-.66,0-.52.63-.25-.46.32-.39-.03-1.07-.68.64-1.17,1.11-1.78,1.59-.56.46-1.28,1-1.92,1.62-.24-.13-.35-.14-.46-.37-.07.24-.38.53-.43,1.04.04-.05-.14-.33-.2-.31-.22-.12-.13,1.15-.41,1.02.08-.33.09-.65.04-.92-.08.46-.2.75-.33.98-.1.02-.21-.1-.32-.1.05-.11.1-.14.11-.43-.3.51-.43-.61-.7-.38l.15-.37c-.23-.87-.26.81-.53.19.11-.06.12-.25.18-.41-.48.49-.93-.29-1.38-.35.05-.03.09-.12.09-.12-.2-.12-.37-.31-.55-.48-.18-.16-.36-.26-.63-.29-.03-.23.59-.69.14-.85-.42.61-.8-.16-1.04.69-.21-.29-.58-.8-.87-.63.25-.2.16-.91.48-.85-.02-.17-.04-.34-.08-.51.15-.27.22.2.29-.19-.1-.02-.29-.02-.48-.02-.2.01-.38.02-.46-.06-.47.38-.72,1.25-.83,1.41,0-.16-.08-.35-.18-.51-.1-.16-.22-.28-.16-.38-.06.53.13,1.03.43,1.39,0,.07-.45-.37-.38-.16.16.11.23.22.35.33-.09-.03.02.37-.69.21-.3-.03-.07-.25-.37-.2-.07.26.16.34.12.59l-.1-.02c-.15.16.22.56.65.43.04-.1-.44-.03-.2-.16.39.18.48.47.47.72-.11-.1-.31-.1-.51-.16.55.4.71.75.96,1.14.35,0-.63-.14-.45-.2-.24.26-.07.52.09.77.08.12.15.25.16.37.01.14-.03.36-.19.51-.07-.11.49-.06.39-.05,0,.41-.51.35-.3.61-.3,0,.14.31.27.6.24.18-.14.04-.21-.19.15.19.42.7.61,1.27.19.57.32,1.21.16,1.5.12.06.4.35.53.6,0,.14-.06.26-.18.28l-.43-.35c-.48-.15-.64.23-1.08-.05.1.38.66-.21.84-.38,0-.13.01-.16.11.03-.03-.01-.06-.02-.08-.02-.37-.08.09.75-.43.29-.35.12-.29.64-1.07.44.19.02-.26-.6-.52-.47-.44.24.04.22-.28.49l-.14.25c.15.18,0,.22-.1.25-.1.03-.14.05.1.22-.15-.14-.27-.02-.42.05-.05.02-.06.03-.05.02,0,0,0-.02-.03-.04-.06-.07-.11-.13-.22-.26l-.37-.45s.08.2.18.27c-.09-.1-.19-.18-.31-.26-.06-.03-.09-.06-.08-.06,0,0-.14-.1-.24-.13,0-.01-.08-.02-.07-.02.03,0,.04,0,.06,0,.17,0,.5-.15.95-.51.05-.04.08-.08.15-.13.04-.03.16-.13.13-.1l-.04.05s-.06.13-.15.25c.27-.12.55-.31.62-.04-.08.05-.15.04-.26.19-.02.15.02.18.08.16.03,0,.07-.03.11-.05.02,0,.02-.03.11,0,.03,0,.07,0,.11,0-.12.09.22.7.26,1.06.51-.07.76-.49,1.01-.71-.05.15-.04.25.03.3.13.37,1.09.26.8.85-.16-.03-.65-.09-.62.22-.22.34,0,.3.29.3.28-.02.6,0,.61.21l.42-.35c-.17.3.68.29.18.49.04,0,.07,0,.09.02.12.09-.1.44.33.22-.13.36-.08.7.02,1.09.08.38.2.8-.09,1.14-.14.11-.31.21-.52.29.09.12-.13.44.27.38.48-.23-.21-.3.11-.39-.01.12.18.14.28.15-.27.31-.38.51-.92.25-.32.29-.04.44.23.67.14.11.28.24.35.39.08.13.07.39-.01.46-.28-.09-.4-.07-.39.09l.44.37c-.17.29-.69.06-1.19-.02.05.19,0,.4.36.53l-.65.13c.47-.1.28.18.4.27l-.11-.09c-.21.01-.11.23-.05.32.31,0,.44-.18.55-.28.21.11.14.23.4.34-.48-.07-.37.24-.41.34-.1.13.44.14.42.17-.26.02-.03.18-.39.12-.09-.03.25-.1.02-.17-.19.08-.64.11-.3.26.25.1.96-.1.67.12-.12-.04-.32-.03-.5-.05l-.23.23.44-.07c-.11.04-.15.03-.2.05.46-.02.19.18.69,0-.15.06-.5.2-.65.32h.02c-.07.02-.15.07-.22.15-.06.07-.03.03-.06.05h0c-.06.09.08-.12.07-.17.02-.05.03-.1.05-.16v-.04c0,.07-.02.14-.03.2-.07.3-.08.49,0,.23.13,0,.16-.82.13-1.1.07.32.23-.47.69.11-.01-.19-.08-.28-.02-.42.26,0,.47-.23.71-.41.06-.04.12-.08.18-.1l.26-.09c.24-.08.5-.09.76,0-.18.33.16.42.26.66.05-.5.38.26.21-.44-.16-.38-.2-.58-.52-.58.45-.49,1.44-1.22,1.8-1-.19-.1-.08-.32.04-.55.05.75.45.59.75.1l.04-.51c.07.11.14.23.21.35.12-.24.17-1.12.48-.88,0,.18.01.37.06.47.22-.4.55-1.02.85-1.31.13.08.24.24.31.53l.07,1.04c.13.06.44-.09.28-.58.38,1.07.66,1.5.59,2.2.64-.16,1.34.25,2.02.77.17.13.34.28.5.43l.35.31c.16.14.3.29.42.44l-.22.2c-.03.34.43-.3.39-.06-.24.16-.29.56-.64.7.02.44.63-.13.85-.11.27-.28-.27.09.07-.26.11-.08.1.48.49.04-.09.22-.39.53-.57.69l.3-.12c-.23.68-1.13.66-1.47,1.45l.2.04c-.22.6-.83.23-.57.69.35-.09.98-.68.99-.98.4.08.96-1.01,1.2-.8-.11.34-.26-.07-.48.36-.11.5.42-.04.44.17-.02-.27.4-.7.49-.78-.03.29-.33.45-.2.58.19-.27.37-.47.4-.72.19-.33.16-.29.14-.22-.04.12.04-.01-.08.3-.02.06-.02.04,0,0-.04.14-.08.28-.14.41-.11.25-.19.49-.18.62.06-.19.11-.36.18-.56-.05.23-.07.42-.04.19-.05.32-.06.28-.02.13-.05.17-.08.37-.07.57,0,.17,0,.21,0,.26v.07c.03.1.03.11.04.13,0,.01,0,.03.02.05,0-.02-.03-.07-.04-.09-.03-.04-.07-.07-.08-.09-.03-.1-.44-.4-.28-.28.13.09.19.17.24.23.02.03.04.05.07.09,0,0,.01.01.03.03,0,0-.1-.13-.18-.21-.09-.09-.15-.12-.26-.21l-.04-.03c-.14-.14-.5-.35-.61-.39.12.06.06.03-.07-.03-.06-.03-.15-.09-.23-.13-.44-.24-.64-.3-.32-.17.2.09.41.17.37.13.1.05.21.11.31.18-.07-.05.35.12.24-.02-.4-.18-.87-.38-1.19-.49-.16-.1.47.1.07-.07.16.07.31.14.47.22.12.05.71.15.73-.05-.11-.16-.64-.82-.94-.41.03-.21.32-.53.6-.24-.09-.6-.44-.04-.67-.64.28-.14.69-.64,1.11-.79.23.28.46.54.69.79l.02-.29c.55.62.44.03,1.03.51.1-.12-.08-.41-.24-.67-.49-.01-.81-.32-1.13-.74-.32-.41-.63-.93-1.07-1.12-.25-1.21,2.16,1.04.76-.97-.23-.04-.91-1.09-.65-.27.09-.5-.9-1.2-.54-1.61.19.45.41.51.66.65.25.13.51.33.78.92-.3-.33-.22.17-.14.34.34.09.9.83.89.35-.09-.37-.11-.79-.57-1.23-.51-.52.06.55-.46-.19-.05-.25-.03-.37.02-.43.4.14.7.38.31-.3-.37.04-1-.54-1.34-.92l.38-.18.2.35c1.13.34-.28-.64.75-.46l.94.74c.23.59-1.48-.38-.53.64.54.08.35-.41,1.04-.11-.06.08-.19.09-.24.17.24.05,1.25,1.37,1.44.65.19-.27-.09-.34-.29-.7.79-.05.91-.39,1.47-.41.13.69.99.09.6.78-.36-.39-1.66-.45-1.57.2.73.86-.69-.16-.32.68.59.06,1.01.88,1.38,1.42.14.04.14-.18.18-.26-.18-.5-.36-.5-.63-1.02.68.17,1.12-.09,1.38-.57.28.24.31.73.1.78.34-.07.69-.11,1.06-.11.23,0,.45.03.67.07-.36-.75.4-.25.11-.88-.22-.14-.45-.69-.4-1.05.11.03.05.35.12.51.05-.45.35.66.33-.05-.23.31.13.97.19,1.59.2-.4.07.44.35.38.2-.4.42-.76.46-.95.13.11.17.15.24.15.02,0,.02,0,.02,0h0s.07.05.07.05c.02.02.04.04.06.06.03.03.14.08.13.08,0,0,0,0,.01,0,.01,0-.09-.02-.11-.02-.06,0-.05,0-.14,0-.04,0-.07,0-.1,0h-.03s.08,0,.08,0c.12-.02.23-.04.35-.06.23-.04.43-.08.48-.18-.08-.17-.69.32-.47,0l.14-.03c-.13.04.17-.74-.74-.26.23-.12.46-.23.7-.34.02-.09-.16-.05-.26-.04.2-.14.34-.35.54-.35.29-.52-.39-.36-.57-.54l-.23.42c-.53-.08-.42-.59-.85-.77l.31-.32-.37.02c.34-.28.33-.65,0-.47.41-.12.82-.23,1.25-.33-.03.32-.53.25-.73.65-.18.34.18.54.54.29-.08-.15-.15-.09-.35-.06.39-.48.55-.29.93-.49-.08-.05-.04-.27-.19-.15.34-.09.5,0,.72.22-.31,0-.21.34-.39.4.41-.35.75-.23.88.18-.16.31.02.39.28.49.24.14.59.24.62.6-.6-.07-1.11-.03-1.42-.14-.12.36.16.25.01.59.21-.03.47-.07.73-.05.26.01.52.1.68.38l-.4.07c.14.2.31.36.46.55.15.19.21.45-.02.84-.45.63-.97.91-1.37,1.11-.41.18-.77.3-1.06.35l-.13-.38c-.09.94-.95.55-1.28.97-.19-.07-.37-.08-.54-.06-.11.02-.21.06-.3.1-.19.07-.33.09-.57-.25-.54.25-.83.46-1.32.44,0,.13,0,.26-.03.38l-.55-.64c.4.53-.31-.2-.23.04.44.22.57.71.9,1.04-.43,0,0,.76.37,1.08l-.39-.13c.35.28.36.3.23.53-.13.3-.46.63-.62.95-.19.03-.6.02-.65.24.21.33.28.55.25.82-.04.27-.05.53-.28,1.04-.23.26-.7.56-1.2.73-.53.15-1.05.16-1.4.04-.64.28-1.25.28-1.79.2-.25-.04-.49-.11-.73-.19-.21-.08-.42-.18-.62-.27-.77-.4-1.37-.88-2.13-1.16l.23-.43c-.44-.04-.81-.2-1.12-.42-.16-.11-.31-.23-.44-.36l-.13-.13-.05-.07c-.13-.19-.26-.49-.47-.34l.34-.84c-.03-.41-.31-.05-.44.67,0-.23-.1-.1-.14-.12-.04,0-.06-.01-.05-.35-.1-.11-.16.56-.22.73-.17-.25-.28-.1-.39.15.02,0,.04.02.06.02-.03-.19-.12-.54-.19-.56-.02.28-.48.03,0,.87-.14-.09-.16-.11-.33-.02-.21.11-.41.26-.61.41-.39.3-.91.56-1.46.36.17.23-.06.35-.12.55-.23.07-.46.11-.71.12-.28.01-.56,0-.83,0-.24,0-.61-.03-.89-.02-.27.02-.61.03-.96.07-.21-.18.47-.36-.13-.52-.39,0-.07.36-.62.33-.38-.09-.75-.21-1.1-.41-.34-.21-.68-.48-.93-.77-.24-.28-.46-.61-.61-.92-.13-.29-.23-.59-.31-.89-.23-1.11-.05-1.86-.15-2.52-.54-1.96.28-4.34.18-4.04,0-.03,0-.05,0-.08l.21-.03c-.39,0-.17-.07.02-.2.18-.11.34-.27-.32-.01.09-.04.15-.09.17-.11.04-.03.08-.07.35-.2-.36.13-.27.04-.25-.06.03-.1-.01-.21-.35,0,0,.02.04,0,.12-.06.05-.09.04-.14.01-.17-.05-.04-.15-.03-.21-.04-.04,0-.06-.02-.08-.05.08.03-.13-.14-.21-.28.12-.02.29,0,.41-.15-.05-.46-1.14.25-.76-.66-.17-.12-.42.27-.29.34-.38-.44-.89-.83-1.43-1.89-.12-.22-.25-.63-.32-.97-.06-.39-.08-.82-.01-1.22.03-.2.08-.4.14-.6.06-.19.13-.33.2-.49.16-.35.32-.57.49-.78.18-.24.33-.39.48-.54l.23-.23c.06-.06.05-.06.08-.09.04-.05.09-.1.11-.14l.03-.08c.03-.1.05-.19.08-.25.33.14.74.35.98.51.24.15.35.24.26.09-.03-.03-.03-.06-.1-.12.19.08-.39-.23-.18-.12-.3-.24,1.09.33.54-.02-.6-.21-.35-.21-.72-.35.36-.07.88-.09.41-.39l.31.06c-.45-.21-.56-.3-.69-.45-.14-.33-.29-.65-.79-.92-.06-.95-.11-1.93.05-3.15.03-.29.12-.65.19-.97l.18-.56c.06-.18.14-.38.25-.6.11-.22.2-.41.35-.64.16-.23.33-.46.52-.68.42-.45.93-.9,1.57-1.2.64-.34,1.26-.47,1.91-.56.27-.02.55-.02.82-.02l.41.02.33.05c.44.07.9.17,1.21.28.34.11.71.24.96.36,1.17.51,1.98,1.1,2.69,1.61-.02.08.05.11.07.1.02-.05.03-.07.06-.06h.03s0,.02.04,0l.31-.21c.24-.15.47-.3.73-.44l.39-.21.54-.28c1.51.07,1.48.01,2.74-.78-.03.15-.11.2,0,.29-.03-.34.21-.43.45-.51.24-.07.5-.13.55-.46,1.02-.12,1.98-.12,2.94.07.96.18,1.89.61,2.68,1.28-.3-.15-.71.2-.4.4l.55-.09-.06.19c.23.11.65.08.59-.29.51.4.93.9,1.3,1.46.17.29.31.6.46.9l.22.46.15.5.28,1c.04.14.09.39.13.6l.05.32v.04c-.04.08-.09.05-.14.11-.09.07-.21.21-.27.35-.01.08.04.16.13.19.03.01.07.02.12.01-.05.02.18.12.29.17.15.07.3.13.46.2.32.14.72.31,1.16.55.46.28.99.6,1.54,1.28.54.62.96,1.64,1.03,2.51-.02.47-.1.95-.22,1.28-.06.18-.12.36-.2.53-.07.14-.14.26-.22.39l-.23.37-.22.27c-.15.17-.31.36-.44.47-.28.26-.56.48-.8.64-.26.19-.49.32-.72.45-.92.52-1.71.9-2.45,1.4l.3-4.14c.42.36.89.68,1.42.94,0,0-1.34,1.08-2.29.77Z"/>
      <path class="cls-3" d="M203.1,43.2c-.14.31-.06.61-.5.81.18-.25.29-.6.5-.81Z"/>
      <path class="cls-3" d="M202.42,46.73c.01.1-.09-.12-.12-.17.05-.04.04-.32.12-.16-.05.04,0,.18,0,.32Z"/>
      <path class="cls-3" d="M200.77,46.71c-.03-.28.67-.56.72-.6-.09.1-.11.2-.26.3l-.46.3Z"/>
      <path class="cls-3" d="M197.46,45.38c-.42-.28-.43-.42-.03-.37.11.16.03.23.03.37Z"/>
      <path class="cls-3" d="M197.63,46.05c-.24-.01-.47-.2-.7-.39.17.26.49-.12.7.39Z"/>
      <path class="cls-3" d="M194.04,48.8c.03.19.27.67-.06.67.23-.05-.37-1.04.06-.67Z"/>
      <path class="cls-3" d="M194.33,51.95s-.08.03,0,.08c-.14.02-.34-.08-.36-.13l.36.05Z"/>
      <polygon class="cls-3" points="182.91 42.43 183.15 42.51 182.93 42.61 182.91 42.43"/>
      <path class="cls-3" d="M182.53,34.17c-.17-.16.28-.08.32-.1.02.13-.36-.07-.32.1Z"/>
      <polygon class="cls-3" points="184.59 32.6 184.54 32.58 184.91 32.1 184.59 32.6"/>
    </g>
  </g>
</svg>