<?xml version="1.0" encoding="UTF-8"?>
<svg id="Layer_3" data-name="Layer 3" xmlns="http://www.w3.org/2000/svg" viewBox="0 0 300 300">
  <defs>
    <style>
      .cls-1 {
        fill: #faaf3a;
      }

      .cls-2 {
        fill: #6fcbdc;
      }

      .cls-3 {
        fill: #202020;
      }
    </style>
  </defs>
  <g>
    <polygon class="cls-2" points="174.82 111.67 187.74 250.05 81.15 214.34 174.82 111.67"/>
    <g>
      <path class="cls-3" d="M177.61,112.35c-.47-1.39-1.21.89-.66-.88.61.14,1.08.37.66.88Z"/>
      <path class="cls-3" d="M170.22,113.92c-.28,5.99-7.23,7.87-8.83,13.25-.28.55-1.45-1.53-1.97-.2-1.1,5.62-7.62,10.13-13.33,12.99l-.19-.67c-1.08.55-.57,2.9-1.58,3.6-.3-.26-.15-.66-.74-.82.67,1.02-1.06,1.98-.75,2.95-.66.04-1.33-.63-2.12-.52l.53,1.42c1.08,3.58-3.3,3.28-3.84,6.34-.15-.3-.15-.66-.52-.71-1.39,4.42-5.19,8.05-7.83,12-.23-.46-.75-1.17-1.33-1.33.9,1.13.18,2.44-.46,3.56-1.46-.57-.47,2.49-2.06,3.04l-.16-.31c.4,1.84-1.74.6-.98,2.49l-1.32-.26c1.2,1.74-1.85.45-1.69,1.82l.33.27c-.2.97-1.26.6-1.54,1.41l-.23-.11c-.84,1.73-2.41,1.75-1.2,2.8-1.38-.39.77-1.72-1.29-2.23-2.87,5.6-7.32,10.01-11.42,14.54-.94.08-1.39.27-1.94-.02-.17.67-1.33,1.9-1.1,2.86.12-.17-.87-.26-1.15-.08-1.2.41.49,2.09-.87,2.51.01-.65-.26-1.12-.81-1.4.22,1.61-.86,2.51-1.39,3.69-.07-.32.01-.65-.39-.96.14,1.95-1.88,1.61-2.01,3.09l-.39-.95c-2.11.64,1.06,1.72-.54,2.49.05-.49-.31-.63-.54-.94.11,1.14-.36,2.07-.93,2.9-.27.38-.54.75-.79,1.11-.23.34-.43.66-.53.98-.06-.12-.29-.24-.29-.24-.4.6-.98,1.11-1.51,1.68-.53.56-1.03,1.18-1.11,1.82-.9.37-2.58-.54-3.38.84,2.43.1-.87,2.09,2.72,1.28-.6.43-1.49,1.03-2.2,1.61-.71.58-1.22,1.12-.95,1.29-.43-.06-1.49.26-2.42.54-.93.27-1.71.49-1.41.04-.85.37-1.72.77-2.61,1.19-1.22.2,1.19-.92-.69-.29-.15.21-.27.53-.41.88,1.14.17,2.33.35,2.4.57,1.55-.08,3.38-.34,4.98-.54,1.61-.2,2.99-.36,3.87-.2-.8.11-1.38.46-1.82.8-.45.34-.76.67-1.26.67,2.36-.46,4.46-1.02,6.28-1.67.51.08-1.4,1.09-.23.96.44-.38,1-.5,1.54-.75.02.23,1.96.17,1,1.78-.23.68-1.09.05-.95.78,1.02.32,1.42-.21,2.35.08l-.1.23c.25.23.82.21,1.22-.03.42-.24.67-.7.56-1.27-.34-.18-.24,1.08-.61.4.2-.21.41-.38.61-.49.18-.13.46-.18.76-.19.59-.03,1.2.1,1.75.27-.47.16-.58.64-.89,1.08,1.93-.88,3.64-.79,5.47-.8.3-.82-1.12,1.3-1.21.78,1.72,1.85,4.9-.17,6.09,2.1-.34.05.24-1.23.18-.99.98.45.53,1.63,1.34,1.4-.17.73.91.06,1.66.07.52-.39.06.4-.56.28,1.15-.28,5.31-.09,7.16,1.67.11-.48,1.92-1.26,2.41-1.04l-.56,1.02c.24.81,1.72.47,1.49,1.43,1.52-.96-4.52-.26-2.72-.8.07,1.04,2.61-1.05,1.8.32,1.03.3,2.42-.6,3.04.75-.22-.27-1.33,1.23-.48,1.43,1.5.29.58-.38,1.87-.36l.88-.2c.4-1.04,1.24.57,1.1-.79-.12.93,2.27.16,1.54,1.87l-.66,1.32c.66.1,1.51-1.12,2.2-1.57.04.16.11.49,0,.7.81-2.09,1.43.67,2.71-.72,1.06,1.17,3.3,1.18,3.47,2.71,1.22-.31,2.39-.76,3.38.08-.29.12-.63.08-.85.51.51.86.87.37,1.64.24-.25.27,1.02,1.72,1.57,2.74,1.21-.3,1.25-1.56,1.58-2.22.21,2.4,3.27-.4,3.77,1.87-.44.17-1.8.54-1.15,1.34.21,2.39,2.36-.93,3.49.57l.22-1.86c.29,1.29,2.5-.28,1.76,1.44.7-.46,1.54,1.15,1.94-.59,1.94,2.24,6.16,1.1,6.63,4.63.44-.17,1.21.41,1.32-.52-.26-1.14-1.03.41-1.03-.31.33.05.55-.39.66-.61.62.64,1.17.96,0,2.13,1.32,1.61,2.69-2.3,4.59-.93-.33.67-.26.99.4,1.09l1.58-.81c1.28.74.25,1.85-.12,3.05.8.04,1.68.4,2.31-.37l.39,1.79c-.29-1.3.84-.51,1.29-.69l-.44.18c0,.14.05.24.14.31.05.04.1.07.16.09.04.02.09.03.14.04.2.03.45-.01.6-.04.05-.39-.03-.71-.14-.96-.06-.13-.11-.23-.18-.33-.13-.12-.25-.23-.35-.32.66-.36.82-.17,1.21-.72-.37,1.17.43,1.06.72,1.3.36.4.4-1.03.47-.96.02.68.51.28.33,1.16-.12.17-.29-.75-.47-.22.22.57.28,1.76.76,1.07.3-.54-.41-2.69.3-1.64-.09.29-.02.83-.1,1.27.26.31.54.63.85.96l-.28-1.27c.16.35.13.44.22.63-.17-1.3.88-.09.37-1.65.17-.06.96,1.14,1.35,1.4v.1c.8.96,1.08.59.68-.33l.19.32c.26.18.56.1.08-.76,1.21,1.25,4.3,5.51,3.93,4.48-.07-.11-.14-.24-.23-.39-.05-.38-.66-1.35-1.34-2.25-.68-.91-1.45-1.79-1.85-2.17.39.1.05-.7-.15-1.23-.2-.56-.25-.87.65-.6-.5-.47-.8-.61-1.1-1.02.19-.38-.22-1.15-.38-1.66-.16-.54-.08-.86.97-1.39.51.37,1.12.02,1.76-.04-.52-.19-.27-.29-.11-.42.16-.16.23-.27-.64-.31-.5.08-.87.12-1.16.23-.15.06-.27.14-.38.26-.11.12-.21.14-.31.23l-.11-.11s-.08-.19-.11-.29c-.07-.23-.13-.46-.19-.7-.11-.48-.17-.98-.19-1.46-.04-.96.11-1.85.54-2.36-.42.51-.76.18-1.1-.16,1.61-.03,1.74-1.28,1.09-2.16l-.99-.04.95-.7c-.35-.33-2.09-.2-1.23-1.22.37-.08.75-.17,1.01-.37-.89-.89-2.37-2.12-1.64-3.25l1.35-.99c-.2-.43-1.13-1.1-1.47-.28.69-1.86.69-3.03,1.87-3.71-3.3-2.79-3.83-7.24-3.95-10.84l.74.04c.6-1.02-1.33-.38-.88-1.1.73.25,1.45-.87,2.38-.2.64-1.45-1.43-1.65-1.85-2.51-.97-.05.68.66-.55.6-.36-.12.57-1.97-.9-2.05.54-.4,1.63-.23,2.24-.1l-.78-.77c1.6-1.19,3.26,2.06,5.25.78l-.3-.75c1.46-.88,1.91,1.89,2.25-.1-.8-.78-2.97-1.3-3.54-.49-.57-1.72-3.54-.49-3.6-2.39.81-.6.35,1.49,1.51,1.02,1.09-1-.82-1.72-.48-2.55-.47.93-2.01.32-2.32-.22.6-1.02,1.44.49,1.46-.88-.86-.15-1.61-1.34-2.09-.2-1.95-.31.4-1.46-1.15-2.06,1.3-.57,3.23,1.11,3.76-.45-1.27.36-1.93-1.68-3.77-.71.32-.62,1.33-.78,2.16-.42.71-.91-2.54-1.81-.01-2.32l-1.35-.16c.41-.3.69-.71,1.37-1.2-.05-.74-2.01-2.21,0-2.33-.23-.22-.3-1.91-1.61-1.13-.74,1.12,1.12,1.11-.69,1.86,1.45-.88-.34-1.49-.9-2.05l.76-.17c-.33-.33-.24-1.18-1.1-1.32.47.23.98.04,1.14-.26l-1.21-.27c-.72-1.41,2.03-.54,1.56-1.93l1.01,1c-.22-.22.83-.81.4-1.45-1.1-.16-2.42-.54-3.28-.69-.54-.76,1.17-.47,0-1.16l1.38.91c.37.12,1.7-.86,1.57-1.93-.43-.65-2.08-1.57-2.56-.43-.07-.54.51-1.35,1.33-1-.48-1.18-1.13.27-1.9-.72.67-.5,1.56-1.93,2.52-2.83l1.89.93-.05-.73c1.52.81,1.05-.58,2.61-.19.19-.52-.38-1.07-.82-1.52-2.29,1.68-3.46-1.32-5.63-.69-.79-1.94,5.26-1.75,1.61-3.51-.54.39-2.32-.43-1.56.77.13-1.26-2.29-.64-1.52-2.18,1.01,1,2.13-1.37,3.59.07-.74-.04-.48.93-.24,1.15.8-.59,2.23-.1,2.11-1.37-.28-.75-.43-1.81-1.56-1.55-1.26.15.25,1.17-1.08.79-.59-1.5,1.32-1.94-.99-2.37.26.96-1.02,1.32-1.88,1.39l-.63-1.09.86.14c.43-1.87-1.57-.39-1.52-2.18l1.58-.98c1.47.29-.4,2.62,1.9,2.09-.01-1.15-1.23-1.42-.73-2.56.22.22.31.54.54.76.04-.42,3.09-1.11,1.13-2.58-.78-.78-.85-.15-1.72-.09-.44-1.81-1.38-2.28-1.62-3.45,1.72.08-.03-2.11,1.83-.96-.94.7-.6,3.35,1.09,3.85,1.95-.86-.15,1.47,1.93,1.68-.09-1.48,1.9-1.59,3.18-1.95.05-.42-.53-.76-.76-.99-1.24-.06-1.17.47-2.43.62.18-1.68-.65-3.2-1.93-3.99.55-.61,1.79-.55,1.97.09-.54-1.92-.57-4.03-.38-5.92-1.88,1.39-.66-2.03-2.25-1.06-.36,1.04-1.7,2.03-2.64,1.56.07-.64.88-.06,1.28-.36-1.17-.69,1.63-1.4-.16-2.01.81,1.73,2.47.12,4.06.3-1-1.21,1.12-.05,1-1.32-.99-1.21-1.82-2.72-2.29-4.12,1.32-1.93-.4-4.55-.61-6.14.71-.91,2.54-.51,2.76-1.45-.14-1.06-1.84.97-1.17-.69l.37.12c-.46-.44.93-3.01-1.65-3.24l1.96.31c.15-.31-.32-.54-.54-.77.62-.07,1.16-.47,1.61-.02,1.23-1.1-.4-2.03-.55-3.08l-1.07.79c-1.06-1.73-.05-3.05-.61-4.77l1.12-.05-.76-.98c1.1.15,1.7-.87.75-1.34l2.97,2.46c-.58.82-1.42-.7-2.47-.12-.91.49-.47,2.09.63,2.25.06-.63-.18-.64-.63-1.09,1.53-.35,1.55.6,2.63.97-.09-.32.33-.83-.16-.85.81.57.99,1.2,1.13,2.27-.67-.67-.92.48-1.39.25,1.37-.04,1.88.94,1.62,2.29-1.48,1.09,1.24,2.38.95,3.95-1.43-.49-2.61-1.18-3.25-2.06-.6,1.02.14,1.06-.47,2.09,1.07.37,2.67.55,3.42,1.74l-1.01.16c.62,1.09,2.13.95,1.98,2.41-.27,2.52-.03,5.06.02,6.96l-1.01.17c2.27.85,1.13,3.42,2.22,4.74-.75,2.5,1.46,5.13-.17,6.53,1.17,4.17,2.28,7.81,2.32,12.24l-1.54-.6c1.16.69-.8.59-.51,1.34,1.1-1,1.63.93,2.58,1.39-.96,2.06.52,4.46,1.72,6.1l-1.01.16c2.07,1.58.59,3.82.49,6.04-.4.29-1.31.78-1.14,1.41,1.75,1.03,1.69,1.66,2.88,3.3.12,1.27-.1,3.37-.61,4.72,2.75,4.56,1.73,9.57,3.58,14.4l-1.16.47c3,4.57,1.24,10.71,2.93,14.69l-2.08-.21c-.51,1.34.81,2.88,2.22,2.42-.5,1.35,1.29,3.13-.31,4.1-.25,1.35,1.09,1.53,1.47,2.6-.53,2.71-.26,3.68.35,6.13l.07-.63c-.47-.23-1.34-.17-1.41.46.16.22.23.54.28.89.02.17.04.35.06.53.02.12.03.24.04.35.02.13.04.26.06.39.19.98.59,1.67,1.74.88-.49,2.32.04,4.9.52,7.7.48,2.75.93,5.71.1,7.15.69.15.93,1.38,1.46,2.27.2,1.97.07,3.69.03,5.32-.04,1.65,0,3.22.56,5.33-.18,0-.34.02-.47.06-.98-.68-.3-1.29-1.9-1.91-.64.05.92,1.22.13,1.36-2.62-.22-6.38-1.82-9.74-3.4-3.42-1.61-6.45-3.2-9.2-3.95-1.23-.24-2.5-.53-3.79-.85l-1.95-.51-.98-.27-.61-.15c-1.51-.38-3.01-.83-4.48-1.31-2.95-.96-5.83-2.04-8.65-2.87l.22-.44c-2.46,1.15-3.77-3.29-6.16-1.11-.29-.59-1.62-.78-.99-1.56-1.91.76-3.77-2.58-6.45-1.7.18.11.33.05.62-.07-1.83-1.75-4.21-.99-6.19-2.68.3-.12.77-.13.99-.57-.59-1.19-2.75,1.26-2.49-1.15-.51-.15-.74,1-.4,1.04-4.72-2.55-10.56-2.91-15.95-4.15-3.29-2.59,1.04-3.85-2.47-3.17-.1-.51-.46.8-.35.32-1.35.24-.94-3.1-2.13-2.19-.13,1.49-.79.59-1.09,1.42-1.99-1.66-2.03-3.06-4.19-2.61l.38-.68c-2.8,1.34-4.88-.58-7.46,1.18-1.98-.58-3.96-1.14-5.94-1.68l-1.56-.42-2.67-.79c-1.81-.53-3.61-1.06-5.41-1.59-7.59-2.24-15.12-4.46-22.64-6.67,4.61-5.44,9.51-11.12,14.65-16.9,2.03-2.14,4.02-4.27,5.99-6.4,1.11-1.22,2.23-2.43,3.34-3.65l5.88-6.59c3.93-4.39,7.95-8.72,12.5-12.73,3.39-.73,3.49-.92,4.98-3.76.16.31.08.5.44.56-1.11-1.22,1.36-1.72.39-3,3.23-3.08,5.66-6.41,8.74-9.81-.36.65.39,1.83.89,1.12l-.17-1.37.44.2c.22-.6.05-1.62-.75-1.53,6.7-9.46,16.78-15.6,24.07-24.19,2.31-1.51,4.41-4.75,6.12-7.13,7.43-4.89,13.98-9.43,18.74-16.94,0,0,2.37,3.71.66,7.05Z"/>
      <path class="cls-3" d="M177.93,114.05c-.79.38-1.15,1.42-2.32.73.76-.17,1.58-.77,2.32-.73Z"/>
      <path class="cls-3" d="M171.99,141.49c.25.01-.3.41-.43.51-.09-.32-.81-.57-.41-.87.09.33.47.24.83.36Z"/>
      <path class="cls-3" d="M172.13,148.34c-.74-.03-1.45-1.44-1.62-2.29l1.62,2.29Z"/>
      <path class="cls-3" d="M169.72,154.97c-.57.61-.92.49-.97-.25.38-.09.6.14.97.25Z"/>
      <path class="cls-3" d="M171.42,155.27c.07.53-.34.83-.73,1.12.62-.08-.51-1.19.73-1.12Z"/>
      <path class="cls-3" d="M170.59,169.25c.09.33.76.99-.02,1.37.53-.4-1.08-1.53.02-1.37Z"/>
      <path class="cls-3" d="M172.29,175.55c-.03.21-.16.31.07.53-.3.41-.87.06-.97-.25l.9-.28Z"/>
      <polygon class="cls-3" points="150.16 231.64 150.93 231.52 150.6 232.17 150.16 231.64"/>
      <path class="cls-3" d="M101.49,215.38c-.81.22-.24-.81-.32-.94.62.13-.51.78.32.94Z"/>
      <polygon class="cls-3" points="88.89 208.55 88.8 208.68 86.92 208.52 88.89 208.55"/>
    </g>
  </g>
  <g>
    <path class="cls-1" d="M211.34,83.01c21.5,16.82-10.01,13.58-10.01,13.58,1.06,32.81-22.4,1.18-22.4,1.18-31.48,23-16.79-14.56-16.79-14.56,0,0-22.06-6.87-3.7-11.75,0,0-8.08-38.82,19.27-9.82,0,0,26.01-29.71,27.13,5.6,0,0,22.75.36,3.32,12.98l3.19,2.79Z"/>
    <g>
      <path class="cls-3" d="M213.51,81.26c-.96-.34-.4,1.33-.84.05.46-.38.89-.62.84-.05Z"/>
      <path class="cls-3" d="M210.28,79.57c-.61.12-1.14.13-1.63.07l-.09,1.21c.67-1.54,2.03-2.21,3.35-3.05.66-.41,1.3-.88,1.81-1.46.49-.6.84-1.33.81-2.19.09-.39,1.66,1.33,1.76.2-.05-.47-.16-.98-.2-1.4-.1-.45-.18-.85-.32-1.22-.27-.72-.7-1.21-1.3-1.75-.59-.53-1.31-1.07-2.07-1.63-.8-.57-1.51-1.11-2.08-1.65-.43-.4-.77-.79-1.02-1.17l.54-.51c-.14-.23-.67.08-1.29.41-.61.32-1.31.67-1.54.53.32-.34.66-.48.96-.96-.56.51-.96.62-1.36.69l-.15.03h-.07s-.02-.02-.02-.02c-.03-.05-.06-.1-.1-.13-.08-.07-.21-.08-.41.02.41-.64,1.27-1.36,1.73-2.03-.42.23-.84.44-1.26.63-.96.39-1.3.16-1.38-.27-.1-.43.06-1.06.16-1.62.1-.65.13-1.21-.57-1.62.32,0,.58.07.85-.14-.29-.22-.55-.5-.79-.8-.24-.31-.44-.68-.66-.99-.45-.64-.75-1.31-1.11-1.95-.7-1.28-1.44-2.58-2.54-3.33.4-.35,1.1-1.02,1.3-1.57-.46.46-.99.7-1.42.75-.43.05-.79-.08-1.18-.12.28-.82-.17-.72-.71-.43-.56.31-1.1.63-1.33.13l.19-.34c-.59.78-.69.48-.83.24-.14-.22-.32-.39-.77.62-.02-.43-.05-.88-.1-1.31-.35,1.17-.47.88-.66.46-.18-.43-.44-.97-.73-.33v.47c-.47.64-.7-.45-1.11.07l-.05-.25c-.48.44-.86.42-1.13.52-.26.09-.37.26-.18,1.07-.62-1.16.8-.98-.07-2.69-1.7,1.61-2.95,2.78-4.46,3.99l-2.33,1.88c-.85.7-1.68,1.42-2.49,2.18-.6-.32-.88-.36-1.14-.93-.19.6-.96,1.32-1.07,2.61.09-.13-.36-.82-.51-.79-.3-.12-.36.55-.46,1.29-.1.71-.23,1.46-.56,1.28.21-.83.22-1.63.11-2.3-.19,1.16-.51,1.89-.84,2.47-.03.07-.06.05-.1.03l-.1-.05-.2-.1c-.13-.06-.27-.12-.41-.13.11-.27.26-.35.26-1.07-.34.67-.65.24-.91-.22-.26-.47-.48-.99-.85-.72l.38-.92c-.3-1.08-.45-.58-.63,0-.18.6-.37,1.26-.7.47.28-.14.31-.64.44-1.03-.58.63-1.2.43-1.77.08-.57-.37-1.11-.84-1.68-.95.12-.07.23-.31.23-.31-.51-.3-.93-.78-1.39-1.2-.46-.41-.91-.66-1.59-.73-.08-.58,1.47-1.74.35-2.15-1.05,1.54-2-.4-2.61,1.73-.28-.39-.63-.86-1.02-1.22-.2-.18-.4-.35-.6-.41-.2-.06-.4-.05-.58.04.29-.26.43-.83.55-1.32.12-.49.25-.91.66-.83-.04-.42-.11-.85-.19-1.29.37-.68.56.5.72-.47-.24-.05-.73-.04-1.21-.04-.51.04-.96.04-1.15-.15-.53.44-1.05,1.31-1.39,1.98-.18.32-.3.72-.41.98-.11.27-.2.45-.29.59-.02-.4-.19-.88-.45-1.27-.24-.4-.55-.71-.41-.95-.15,1.33.33,2.58,1.09,3.49-.01.17-1.12-.94-.95-.39.41.26.58.55.89.84-.1,0-.11.17-.28.38-.17.21-.56.35-1.44.16-.75-.08-.18-.64-.93-.5-.18.66.41.85.3,1.49l-.24-.04c-.37.41.55,1.41,1.62,1.09.11-.26-1.11-.07-.5-.4.98.46,1.2,1.18,1.17,1.8-.28-.24-.77-.26-1.28-.4,1.37,1.02,1.78,1.89,2.4,2.87.87.01-1.59-.35-1.13-.51-.6.64-.16,1.32.23,1.94.19.31.37.62.4.92.03.35-.08.91-.48,1.29-.19-.27,1.23-.15.98-.13,0,1.02-1.29.87-.74,1.53-.75-.02.35.79.68,1.51.61.45-.35.09-.52-.48.38.49,1.04,1.75,1.54,3.2.49,1.44.8,3.04.4,3.78.15.07.39.29.67.58.28.3.46.58.68.92,0,.35-.16.66-.44.72l-1.09-.88c-1.22-.37-1.62.57-2.71-.13.12.49.53.35.98.04.44-.3.88-.77,1.14-.99-.02-.32.03-.4.27.08-.09-.03-.15-.04-.2-.04-.49-.09-.39.37-.39.72,0,.35-.05.59-.69.02-.46.15-.62.56-.93.86-.31.3-.79.5-1.75.24.47.05-.65-1.49-1.3-1.18-1.12.61.1.55-.7,1.24-.11.21-.23.42-.36.64.36.46,0,.55-.26.62-.24.07-.36.12.24.54-.37-.35-.69-.06-1.05.12l-.13.06s0,0,0-.01c0-.02-.02-.05-.06-.1-.08-.1-.14-.17-.19-.23-.12-.14-.21-.24-.36-.41-.32-.37-.62-.75-.92-1.13-.01.05.03.15.11.29.04.07.09.14.15.22.03.04.07.08.11.11.02.02.13.12.07.05-.22-.25-.46-.46-.77-.66-.14-.08-.23-.16-.21-.14-.02-.01-.08-.07-.2-.14-.06-.03-.13-.07-.21-.1-.09-.04-.2-.06-.19-.07-.03-.01-.06-.03-.1-.04h-.06s-.03-.01-.03-.01h.03c.07.01.11,0,.14-.01.13,0,.27-.04.39-.09.08-.03.08-.05.21-.09.12-.04.23-.08.34-.14.11-.05.21-.11.31-.17.1-.06.18-.13.35-.22.29-.17.56-.36.8-.57.12-.1.21-.2.39-.33l.23-.18.1-.08h0c-.04.06-.07.1-.11.14-.08.12-.16.33-.36.62.67-.31,1.38-.79,1.56-.11-.2.12-.36.1-.65.49-.05.37.06.44.2.41.08-.02.17-.07.26-.12.06-.02.06-.08.27-.01.09,0,.18-.02.28-.02-.3.23.55,1.76.64,2.66,1.29-.17,1.91-1.23,2.53-1.77-.12.38-.09.62.06.76.15.5.85.61,1.4.84.56.24.96.59.62,1.3-.4-.06-1.62-.22-1.57.54-.55.85.02.77.72.76.7-.04,1.5,0,1.52.52l1.07-.88c-.23.4.22.55.54.7.32.16.53.28-.1.53.09,0,.16.02.23.05.13.03.12.14.11.25,0,.11-.02.22,0,.31.04.18.19.25.7-.01-.33.91-.2,1.75.04,2.73.21.94.5,2.01-.22,2.87-.36.28-.78.53-1.3.73.22.3-.34,1.1.67.94,1.22-.57-.52-.75.26-.98-.03.29.46.35.71.37-.67.78-.96,1.29-2.3.62-.8.72-.1,1.11.59,1.67.35.28.7.59.88.97.09.19.14.4.14.62-.02.31-.05.39-.17.53-.71-.21-1-.18-.97.22.36.32.74.63,1.11.93-.44.72-1.74.16-2.98-.05.13.48,0,1.02.89,1.34l-1.63.33c1.17-.25.71.45,1,.67l-.29-.23c-.54.03-.27.57-.11.81.77,0,1.12-.45,1.38-.7.52.27.36.58,1,.86-1.21-.18-.93.59-1.04.85-.26.33,1.1.35,1.06.43-.65.04-.08.46-.99.29-.22-.08.62-.26.05-.42-.47.2-1.6.27-.75.64.63.25,2.41-.26,1.67.3-.31-.09-.8-.06-1.24-.14l-.57.59,1.11-.17c-.27.1-.37.08-.51.13.6-.05.7.1.83.16.14.04.27.07.89-.15-.01.01.08-.02-.09.05-.13.06-.19.08-.27.1-.15.05-.31.11-.46.18-.15.07-.3.15-.45.24-.13.07-.33.23-.37.24l.05-.03c-.17.08-.38.21-.57.41-.13.14-.07.07-.1.1-.01,0-.03.02-.04.04h0s-.02.03-.04.05c-.02.03,0,0,.03-.04l.06-.1c.07-.13.11-.25.12-.33.06-.17.1-.29.13-.39.01-.04.02-.07.03-.1-.04.18-.08.34-.12.5-.18.75-.21,1.24,0,.58.09.01.3-.54.32-1.13.05-.6.02-1.28.01-1.64-.03.43.34.05.5-.1.28-.23.61-.36,1.23.37-.03-.48-.2-.71-.05-1.06.33-.02.63-.17.91-.35.29-.2.58-.49.87-.69.15-.1.3-.2.46-.26.08-.03.16-.06.25-.08.06,0,.28-.11.41-.14.61-.2,1.25-.23,1.91.02-.46.83.4,1.07.65,1.67.13-1.25.95.65.53-1.11-.4-.94-.51-1.46-1.31-1.45,1.12-1.23,3.61-3.06,4.51-2.51-.47-.25-.21-.8.09-1.38.12,1.88,1.14,1.48,1.89.25l.1-1.27c.18.28.36.57.52.87.29-.59.42-2.81,1.2-2.21.01.46.03.92.14,1.18.29-.52.63-1.14,1-1.75.36-.58.77-1.24,1.13-1.55.32.19.61.6.79,1.33.08.89.14,1.76.18,2.61.32.15,1.11-.23.7-1.45.96,2.68,1.66,3.76,1.48,5.54,1.61-.4,3.36.62,5.07,1.94.43.33.85.7,1.26,1.07.29.26.59.52.88.77.4.36.74.73,1.05,1.11l-.55.5c-.09.85,1.07-.77.98-.15-.6.4-.73,1.4-1.61,1.76.06,1.11,1.57-.32,2.13-.27.67-.7-.68.23.18-.64.28-.2.26,1.2,1.23.09-.23.55-.98,1.33-1.42,1.73l.76-.3c-.31.84-.99,1.27-1.74,1.72-.74.45-1.55.91-1.96,1.93l.51.1c-.56,1.5-2.08.57-1.43,1.74.88-.22,2.46-1.71,2.5-2.47,1.01.21,2.4-2.55,3-2.02-.14.42-.3.38-.49.37-.2-.02-.44-.03-.71.52-.28,1.25,1.06-.11,1.11.42-.05-.68,1-1.75,1.23-1.95-.07.74-.83,1.13-.5,1.46.22-.36.49-.62.66-.92.16-.31.31-.56.34-.88.47-.82.4-.74.36-.55-.02.09-.05.2-.03.2.09-.19-.09.37-.18.55-.06.15-.04.11,0-.01-.1.35-.21.72-.35,1.02-.27.62-.48,1.23-.46,1.57.09-.31.18-.57.26-.82.03-.11.07-.23.12-.36l.05-.18s.05-.19.02-.06c-.13.57-.18,1.06-.09.47-.06.48-.11.54-.12.6,0,.03.01-.05.07-.27-.12.42-.2.94-.19,1.43,0,.06,0,.12,0,.18v.09c-.01.06-.02.11-.02.16,0,.1,0,.18,0,.22l.02.18s.02.09.03.14c.01.05.03.12.03.11,0,.02,0,.05,0,.08,0,.03.02.08.05.13-.02-.05-.07-.16-.11-.21-.04-.06-.08-.1-.11-.13-.01,0-.1-.14-.08-.1-.06-.09-.31-.4-.53-.57-.22-.18-.38-.26-.18-.14.32.22.48.42.61.57.06.08.11.15.17.22.02.02.04.04.07.07-.02.02-.24-.33-.44-.52-.1-.1-.2-.19-.31-.27l-.15-.11-.07-.05-.11-.1-.1-.09c-.35-.34-1.26-.89-1.52-.98.31.15.15.06-.18-.08-.15-.06-.38-.22-.57-.32-1.1-.6-1.6-.76-.81-.43.5.22,1.03.43.92.32.26.13.52.28.78.45-.17-.12.88.29.61-.04-.99-.45-2.19-.96-2.98-1.23-.41-.26,1.19.25.18-.18.39.16.78.35,1.17.55.31.12,1.78.38,1.84-.14-.28-.4-1.61-2.05-2.36-1.03,0-.06.03-.12.06-.18.03-.08.06-.16.11-.24.09-.15.21-.28.35-.37.28-.17.64-.16.99.18-.1-.73-.4-.79-.72-.81-.32-.03-.67-.01-.98-.79.7-.35,1.73-1.61,2.79-1.97.58.7,1.16,1.36,1.73,1.97l.04-.72c1.38,1.55,1.11.08,2.58,1.27.26-.29-.21-1.03-.6-1.68-1.22-.04-2.04-.8-2.84-1.86-.8-1.03-1.58-2.34-2.69-2.81-.31-1.47,1.04-.89,2.04-.48,1,.37,1.64.65-.13-1.96-.58-.1-2.29-2.74-1.63-.68.23-1.25-2.26-3.02-1.35-4.05.47,1.14,1.03,1.29,1.65,1.63.62.32,1.29.84,1.96,2.31-.75-.82-.55.42-.34.87.85.23,2.25,2.08,2.24.89-.22-.92-.28-1.98-1.44-3.08-1.28-1.32.15,1.38-1.15-.47-.13-.62-.07-.92.04-1.09,1.02.35,1.75.95.78-.75-.94.09-2.52-1.36-3.38-2.3.3-.15.62-.3.95-.45l.5.89c2.84.85-.7-1.6,1.89-1.15.81.63,1.6,1.25,2.35,1.87.26.74-.62.51-1.33.4-.71-.11-1.21-.08.01,1.2,1.35.21.89-1.02,2.62-.28-.14.19-.48.22-.59.42.27.06,1.1.93,1.87,1.54.79.62,1.45.99,1.75.1.49-.67-.24-.85-.73-1.76,1.98-.11,2.28-.97,3.69-1.02.32,1.74,2.48.22,1.52,1.95-.9-.97-4.18-1.13-3.95.51.9,1.07.49.97-.05.87-.54-.1-1.25-.22-.74.85,1.47.15,2.54,2.21,3.46,3.58.35.11.35-.46.44-.66-.46-1.26-.9-1.26-1.59-2.57,1.7.44,2.82-.23,3.47-1.42.71.61.78,1.83.24,1.95.84-.17,1.72-.27,2.67-.29.58,0,1.13.06,1.67.18-.9-1.89.99-.64.29-2.21-.56-.36-1.13-1.72-1.01-2.65.27.08.12.87.29,1.28.14-1.14.88,1.65.84-.12-.26.4-.23,1-.05,1.71.17.71.48,1.51.54,2.3.49-1.01.18,1.1.88.95.49-1.01,1.04-1.91,1.17-2.39.33.28.44.37.6.38.06,0,.04,0,.06-.02h0s.17.12.17.12c.05.05.09.1.15.15.06.05.12.09.19.13.07.04.17.08.13.07,0,0,0,.01.03.02.05.01-.06-.02-.11-.03-.06-.01-.12-.02-.17-.02s-.1,0-.15,0c-.04,0-.07.02-.2,0-.11,0-.2,0-.26,0-.03,0-.05,0-.08,0,.07,0,.14-.02.2-.03.33-.05.6-.1.87-.14.57-.1,1.09-.21,1.21-.44-.11-.24-.53,0-.87.15-.34.14-.59.25-.3-.13l.35-.06c-.11-.01-.12-.1-.11-.24.02-.13-.02-.34-.09-.5-.12-.33-.55-.54-1.67.1.57-.3,1.16-.59,1.75-.86.05-.23-.41-.12-.65-.1.51-.36.85-.87,1.35-.87.73-1.31-.98-.91-1.43-1.35-.19.36-.38.72-.58,1.07-.67-.11-.94-.46-1.17-.87-.23-.4-.41-.86-.96-1.07l.78-.8-.94.06c.84-.69.84-1.63-.01-1.18,1.02-.31,2.07-.59,3.15-.84-.08.82-1.33.62-1.84,1.64-.44.86.46,1.35,1.35.73-.2-.37-.39-.22-.88-.15.98-1.21,1.38-.73,2.34-1.22-.2-.11-.1-.68-.48-.36.84-.22,1.26,0,1.82.55-.79,0-.52.86-.98,1.01,1.04-.87,1.88-.59,2.21.46-.41.78.05.98.69,1.24.31.15.67.32.97.55.15.11.28.24.39.39.1.17.16.37.18.58-1.5-.17-2.8-.08-3.57-.35-.3.91.41.62.03,1.48.52-.06,1.18-.16,1.84-.12.33.03.66.08.96.22.29.16.55.4.75.74l-1,.18c.36.5.77.92,1.15,1.39.38.47.53,1.14-.05,2.12-1.12,1.58-2.43,2.28-3.45,2.79-.51.21-1.01.44-1.44.55-.44.15-.85.26-1.22.32l-.34-.96c-.08,1.17-.71,1.52-1.39,1.71-.67.17-1.38.18-1.83.71-.47-.18-.92-.21-1.36-.15-.27.04-.52.15-.75.24-.47.17-.83.23-1.42-.63-1.35.63-2.09,1.16-3.31,1.11.01.33,0,.64-.08.94-.46-.52-.92-1.05-1.38-1.61,1.02,1.32-.79-.5-.58.1,1.09.56,1.44,1.77,2.27,2.6-.55-.04-.55.48-.28,1.06.25.59.74,1.22,1.21,1.66l-.97-.34c.44.33.67.55.74.73.04.09.04.17.02.24-.03.12-.09.22-.17.35-.09.19-.2.38-.32.57-.14.2-.29.4-.43.61-.29.4-.58.8-.8,1.22-.47.08-1.51.06-1.63.61.54.82.71,1.39.62,2.06-.03.33-.09.67-.18,1.08-.05.39-.26.9-.52,1.53-.35.33-.68.68-1.23,1-.54.32-1.16.61-1.77.83-.65.17-1.32.28-1.93.31-.61.03-1.13-.1-1.58-.21-.84.38-1.54.5-2.35.59-.78.07-1.42,0-2.14-.08-.63-.11-1.22-.28-1.82-.48-.53-.21-1.05-.44-1.56-.69-1.94-1.01-3.44-2.2-5.34-2.91l.57-1.08c-1.09-.11-2.03-.5-2.82-1.05-.4-.27-.77-.58-1.11-.91l-.25-.25-.07-.08c-.05-.06-.09-.12-.13-.18-.31-.47-.64-1.23-1.17-.86.27-.72.55-1.42.85-2.11-.01-.5-.24-.56-.46-.23-.23.32-.47,1.04-.65,1.92,0-.57-.24-.25-.35-.3-.09.01-.16-.03-.13-.88-.24-.27-.41,1.4-.55,1.82-.42-.62-.7-.24-.97.38.06.02.09.04.14.06-.08-.47-.29-1.36-.47-1.4-.05.69-1.22.07.02,2.17-.14-.12-.27-.18-.39-.19-.06,0-.11,0-.16.01-.03,0-.05.02-.07.03l-.19.1c-.53.28-1.02.67-1.53,1.04-.26.19-.5.37-.78.53-.3.16-.6.29-.91.39-.63.19-1.24.25-1.97-.02.42.57-.15.88-.29,1.39-.57.17-1.14.27-1.78.31-.71.03-1.41,0-2.08,0h-.5c-.2-.01-.39-.02-.59-.03-.39-.01-.77-.02-1.14-.01-.39,0-.7.05-1.13.07-.43.01-.86.04-1.29.1-.54-.46,1.17-.91-.32-1.3-.47.02-.54.22-.64.44-.11.2-.19.48-.92.4-.94-.21-1.89-.52-2.75-1.03-.85-.54-1.71-1.2-2.34-1.92-.59-.71-1.16-1.54-1.54-2.3-.32-.73-.59-1.49-.79-2.23-.58-2.78-.12-4.68-.38-6.33-1.37-4.93.7-10.9.45-10.16.01-.07.02-.14.02-.2l.53-.08c-.97.02-.42-.17.06-.49.46-.29.85-.68-.8-.04.22-.11.37-.22.41-.27.09-.09.19-.19.88-.5-.9.33-.67.11-.62-.14.08-.24-.03-.52-.88,0,0,.05.09-.02.3-.15.13-.23.11-.36.03-.42-.12-.1-.36-.07-.54-.09-.09-.01-.16-.04-.21-.12.2.07-.32-.36-.52-.7.3-.06.72.01,1.02-.37-.1-.61-.76-.41-1.36-.41-.57.03-1.07-.14-.55-1.24-.43-.31-1.05.68-.73.85l-.77-.83-.41-.44-.45-.53-.45-.54c-.16-.21-.34-.46-.5-.69-.17-.25-.32-.45-.49-.74-.18-.31-.35-.63-.51-.96l-.23-.49c-.08-.19-.15-.41-.22-.62-.14-.43-.25-.87-.34-1.31-.15-.97-.21-2.07-.03-3.06.08-.51.2-1.01.35-1.5.15-.47.32-.83.51-1.24.18-.38.43-.84.62-1.12.19-.29.39-.57.61-.85.2-.26.46-.59.63-.77l.56-.58.59-.57c.06-.06.08-.08.09-.09l.04-.05.08-.09c.09-.12.22-.26.28-.36l.07-.2c.08-.26.13-.47.2-.63.84.35,1.85.88,2.45,1.27.61.38.88.61.66.23-.07-.08-.08-.14-.25-.3.48.2-.99-.59-.46-.31-.38-.34.31-.07.91.1.61.18,1.13.26.45-.16-1.52-.54-.88-.52-1.81-.87.91-.16,2.21-.23,1.02-.98l.78.14c-1.14-.53-1.41-.76-1.73-1.12-.36-.82-.72-1.62-1.99-2.31-.16-2.39-.28-4.86.12-7.9l.08-.57.13-.62.28-1.25c.13-.46.29-.94.45-1.4l.25-.7.38-.8c.28-.54.5-1.03.88-1.6.4-.59.83-1.16,1.29-1.7.46-.55,1.15-1.14,1.78-1.65.62-.53,1.37-.97,2.17-1.37,1.61-.85,3.17-1.17,4.8-1.41.68-.05,1.37-.06,2.07-.04.35,0,.69.02,1.04.05l.82.12c.55.09,1.1.19,1.64.31l.41.09.33.1.65.2c.85.28,1.79.6,2.42.91.68.31,1.43.65,2.05.99l1.76,1.02c.62.36,1.05.69,1.56,1.03l1.39.99c-.04.21.12.28.17.24.05-.12.06-.18.14-.16l.08.03s.02.02.1-.01h.02s.1-.08.1-.08l.21-.15.44-.29c.59-.38,1.18-.76,1.83-1.11l.99-.54c.45-.24.9-.47,1.35-.69,3.8.18,3.73.03,6.87-1.96-.08.37-.26.5,0,.74-.07-.84.52-1.07,1.13-1.29.61-.18,1.24-.32,1.38-1.16,2.55-.29,4.98-.31,7.39.17,2.41.45,4.74,1.54,6.73,3.22-.76-.39-1.78.5-1.01,1,.45-.08.91-.16,1.39-.22l-.16.47c.58.28,1.63.21,1.48-.72.59.55,1.25,1.03,1.77,1.67.52.63,1.02,1.3,1.49,1.99.43.72.78,1.51,1.16,2.27l.55,1.16c.14.41.26.83.38,1.25l.71,2.51c.11.36.23.97.33,1.51l.13.81-.02.09-.03.1h-.04s-.08.05-.08.05c-.06.03-.12.07-.18.12-.22.17-.52.52-.68.87-.03.21.1.39.33.47.09.03.17.04.29.04v.07s.16.08.22.12c.17.08.34.17.51.25.37.16.75.34,1.15.51.81.35,1.8.78,2.91,1.39.27.14.61.37.9.56.32.22.57.36.94.67.68.56,1.32,1.1,2.02,1.99.65.75,1.28,1.84,1.74,2.91.44,1.08.75,2.34.84,3.39-.05,1.17-.24,2.39-.55,3.2-.15.45-.31.89-.49,1.32-.17.35-.35.66-.54.98-.19.32-.38.63-.58.93-.19.25-.37.46-.55.68-.36.42-.77.91-1.1,1.18l-1.04.9c-.34.27-.65.46-.97.69-.65.47-1.24.79-1.82,1.14-2.31,1.32-4.3,2.27-6.15,3.51l.74-10.41c1.05.91,2.22,1.7,3.58,2.36,0,0-3.36,2.72-5.76,1.93Z"/>
      <path class="cls-3" d="M214.51,81.87c-.36.77-.15,1.52-1.26,2.04.45-.63.74-1.51,1.26-2.04Z"/>
      <path class="cls-3" d="M212.79,90.73c.04.24-.24-.29-.3-.42.13-.09.1-.79.3-.4-.12.09-.01.46,0,.81Z"/>
      <path class="cls-3" d="M208.65,90.7c-.01-.37.34-.7.83-.98.13-.07.24-.13.42-.2.09-.06.13-.11.2-.15.12-.09.25-.15.35-.18l-.27.38-.14.19c-.05.06-.07.12-.23.2l-1.16.75Z"/>
      <path class="cls-3" d="M200.34,87.34c-1.06-.7-1.08-1.04-.09-.94.28.41.07.59.09.94Z"/>
      <path class="cls-3" d="M200.78,89.04c-.59-.03-1.17-.51-1.76-.97.43.66,1.22-.3,1.76.97Z"/>
      <path class="cls-3" d="M191.75,95.94c.07.48.67,1.69-.15,1.68.58-.12-.92-2.62.15-1.68Z"/>
      <path class="cls-3" d="M192.48,103.86c-.06.07-.2.07-.01.21-.35.05-.85-.2-.9-.34l.91.13Z"/>
      <polygon class="cls-3" points="163.81 79.94 164.4 80.15 163.85 80.4 163.81 79.94"/>
      <path class="cls-3" d="M162.85,59.2c-.44-.39.7-.2.81-.24.05.32-.89-.19-.81.24Z"/>
      <path class="cls-3" d="M168.02,55.26s-.08-.04-.12-.06l.91-1.2-.79,1.25Z"/>
    </g>
  </g>
</svg>