<?xml version="1.0" encoding="UTF-8"?>
<svg id="Layer_3" data-name="Layer 3" xmlns="http://www.w3.org/2000/svg" viewBox="0 0 95 95">
  <defs>
    <style>
      .cls-1 {
        fill: #202020;
      }
    </style>
  </defs>
  <g>
    <path class="cls-1" d="M47.01,71.96c.47-.04-.25-.27.31-.1-.06.11-.16.2-.31.1Z"/>
    <path class="cls-1" d="M48.85,71.75c.35-.23.73-.4,1.12-.5.39-.13.8-.24,1.23-.32.41-.14.83-.24,1.22-.42.38-.2.75-.4,1.03-.71.14-.12.17.39.48.08.53-.64,1.24-1.3,2.04-1.95.75-.7,1.61-1.4,2.28-2.15l.04.16c.29-.27.14-.87.35-1.19.07.03.05.16.18.12-.16-.19.21-.69.09-.91.14-.11.31-.03.48-.19l-.18-.3c-.41-.76.47-1.43.25-2.33.06.05.09.14.16.08-.04-.35-.08-.7-.12-1.07-.02-.37-.05-.74-.12-1.11-.15-.74-.41-1.47-.72-2.14.11.02.29.02.36-.1-.29.02-.51-.38-.7-.73.21-.27-.49-.54-.51-1.03h.07c-.41-.2-.02-.52-.46-.66l.14-.29c-.44,0,.02-.54-.27-.74l-.08.04c-.18-.22-.04-.42-.18-.64l.04-.04c-.29-.52-.17-.92-.47-.81.18-.27.28.51.54.09-.9-1.71-1.18-3.81-.96-5.74.14-.21.2-.34.32-.38-.05-.2.02-.72-.11-.92,0,.06.18-.1.21-.2.17-.33-.29-.44-.08-.79.06.17.15.24.28.21-.19-.37-.07-.79-.06-1.19.04.07.05.17.15.18-.18-.48.23-.74.15-1.14l.14.18c.37-.52-.33-.27-.06-.74.02.14.1.11.17.16-.2-.56.15-1.28.2-1.78.01.04.06.05.06.05.15-.51.38-1,.4-1.58.13-.18.44.18.49-.38-.37-.06,0-.95-.47-.7.17-.43.32-1.15.21-1.46.13.21.46-.22.48.17l.24-.3c.15.05-.06.31.13.22,0-.21-.14-.8-.11-.98-.27-.36-.67-.66-.83-1.21.2.24.37-.22.47-.05-.29-.23-.57-.45-.85-.65-.06-.18.29-.11.12-.35-.09.04-.19-.06-.29-.11.02-.08-.32-.7,0-.91.11-.13.17.27.22.02-.11-.34-.25-.3-.4-.62l.04-.03c-.05-.24-.42-.56-.5-.24.05.15.17-.15.17.11-.26-.06-.46-.4-.65-.68.11.07.19.01.3,0-.51-.25-.78-.64-1.2-.95-.15.1.37-.04.34.08-.1-.33-.38-.55-.62-.76-.26-.2-.52-.36-.58-.69.08.04-.14.21-.11.17-.2-.24-.01-.41-.22-.49.08-.12-.23-.13-.42-.22-.15.02,0-.09.16.01-.16-.04-.49-.21-.83-.42-.37-.17-.74-.41-.98-.68-.04.09-.53.15-.66.08l.15-.18c-.07-.18-.46-.2-.41-.39-.41.12,1.24.32.75.33-.02-.22-.71.07-.49-.17-.14-.06-.3-.06-.45-.09-.16,0-.3-.04-.4-.18.07.06.34-.22.1-.28-.44-.1-.16.07-.52.03l-.24.02c-.06.2-.37-.11-.27.16-.01-.19-.63,0-.52-.35l.11-.28c-.2-.01-.36.25-.52.35-.02-.03-.06-.1-.05-.14-.08.42-.45-.06-.69.27-.13-.06-.29-.08-.45-.1-.08,0-.15-.02-.22-.03-.09-.01.06-.02.03-.03-.11-.02-.2-.06-.26-.15-.3.15-.56.32-.91.24.06-.04.16-.06.17-.16-.23-.12-.27-.01-.46.1.04-.07-.46-.18-.74-.29-.28.18-.12.4-.12.55-.38-.39-.71.51-1.16.22.08-.09.35-.34.07-.36-.21-.16-.32-.05-.44.11-.11.17-.22.38-.46.37l.25.29c-.27-.12-.48.46-.61.11-.08.16-.5.17-.29.44-.8.1-1.28,1.12-2.04.96-.03.12-.26.27-.09.36.26.02.07-.28.21-.23-.06.08,0,.16.02.2-.21.1-.36.22-.42-.15-.51.24.04.76-.43,1.18-.1-.11-.17-.11-.27.05v.43c-.31.29-.42,0-.64-.14-.08.22-.23.46-.13.64l-.41.08c.3-.06.03.24.03.36v-.12c-.12-.02-.18.25-.2.39.15.04.31-.18.43-.28.03.15-.06.29,0,.49-.2-.15-.3.25-.4.4-.13.17.11.29.08.34-.13-.05-.13.3-.25.09-.02-.08.18-.1.12-.25-.14.09-.36-.01-.29.31.05.24.47.11.21.43-.03-.12-.11-.17-.17-.27l-.23.32.21.08c-.07.03-.08,0-.11,0,.19.17-.11.56.15.71-.01.18-.22.35-.28.52v-.04c-.18.19-.17.49-.02.69l-.05-.02c-.03.12-.01.4.11.55-.19.28-.85.05-.59.41,0,.32.42.49.55.36-.13.55.25,1.12.02,1.65.1.06.15,0,.23.15,0,.4.2.78.33,1.15.07.19.11.36.15.56.04.21.05.42,0,.63-.17-.22-.22.06-.33.1.26.14-.11.31.24.28.18-.08.29-.09.28-.37.28.49.52,1.3.42,1.65.05-.17.14-.08.23.03-.32.05-.26.45-.08.72h.2s-.15.24-.15.24c.09.1.43.03.32.38-.07.03-.14.07-.18.13.23.28.58.67.48,1.05l-.23.33c.05.14.26.37.3.09-.08.62-.05,1.01-.28,1.22.36.47.56,1.11.65,1.77.09.65.05,1.45-.06,2.06l-.14-.06c-.18.32.24.22.1.44-.12-.13-.35.2-.47-.08-.24.43.14.64.14.96.18.09-.07-.27.16-.16.07.07-.3.61-.03.75-.14.09-.32-.05-.42-.14l.07.31c-.41.24-.4-.91-.9-.66l-.02.26c-.35.15-.18-.72-.43-.14.08.29.42.63.61.43-.08.57.59.44.39,1.05-.21.12.1-.5-.16-.45-.3.22-.04.6-.21.83.19-.24.4.08.39.28-.23.26-.2-.28-.37.14.14.12.12.55.35.26.3.28-.26.4-.06.74-.3.04-.43-.64-.72-.23.27.02.12.68.57.57-.14.15-.33.1-.43-.09-.24.2.21.78-.3.68l.21.18c-.11.05-.21.14-.4.21-.09.22.07.82-.3.66,0,.09-.19.56.14.47.27-.24-.06-.42.36-.46-.37.11-.13.45-.1.66l-.15-.03c.02.12-.1.35.03.47-.06-.11-.17-.1-.23-.04l.18.18c-.03.44-.42-.04-.5.38l-.07-.36c.02.08-.25.15-.23.36.18.14.38.35.53.46.03.23-.27.04-.11.29-.07-.1-.12-.22-.17-.34-.05-.06-.4.09-.46.38.02.21.28.52.44.28-.03.13-.18.27-.32.15.02.29.23,0,.32.26-.15.09-.39.25-.58.52l-.36-.28c0,.06-.02.11-.01.18-.29-.26-.22.13-.52-.01-.04.15.07.33.16.47.46-.44.69.44,1.12.27.15.51-1.03.47-.27.95.1-.11.47.1.29-.22,0,.34.46.15.36.56-.25-.25-.36.41-.72.04.15,0,.07-.26.02-.32-.14.17-.44.05-.39.41.1.21.18.51.4.41.24-.07-.11-.32.17-.24.19.39-.16.57.31.61-.1-.25.14-.38.3-.42l.17.26h-.17c.03.49.33.04.44.48l-.24.32c-.31,0-.12-.69-.53-.46.09.31.35.32.34.64-.06-.05-.1-.13-.16-.17.03.1-.53.46.01.74.23.16.18-.01.34-.08.27.43.48.49.68.74-.33.11.27.5-.21.38.04-.12-.04-.34-.17-.52-.12-.19-.29-.36-.48-.37-.28.34-.13-.39-.55-.33.17.39-.19.54-.4.72.04.12.19.18.26.23.24-.06.17-.21.39-.33.13.48.53.79.85.89-.02.2-.25.29-.37.14.17.23.35.47.53.7.17.24.32.5.48.72.06-.52.48.39.56-.02-.13-.27-.07-.63.17-.64.09.14-.14.11-.15.22.31.01-.02.49.37.42-.43-.28-.42.26-.71.41.39.16-.18.15.09.42.42.13.83.37,1.22.56.12.27.39.49.69.64.3.14.62.24.82.36.14.25-.17.49.05.66.3.14-.04-.45.32-.09l-.07.04c.16,0,.71.6,1.04.16l-.28.31c.07.06.18.01.27,0-.04.12.02.26-.15.29.2.35.62.2.94.26l-.14-.27c.59-.04.88.31,1.44.29l-.05.22.34-.08c-.11.2.17.38.36.23-.3.14-.61.27-.94.41-.22-.17.31-.22.19-.46-.1-.2-.6-.23-.72-.06.19.07.2.03.37-.02,0,.32-.29.24-.48.4.11.01.23.14.28.05-.23.1-.45.06-.79-.02.26-.06-.07-.22.04-.28-.1.25-.46.26-.84.03-.18-.4-.85-.08-1.28-.41.31-.17.62-.23.94-.24-.23-.23-.32-.13-.53-.38-.22.12-.45.36-.89.29l.08-.19c-.37-.09-.52.16-.91-.14-.65-.52-1.31-1.05-1.75-1.5l.12-.16c-.57.1-.92-.71-1.38-.93-.17-.38-.47-.7-.73-1-.23-.32-.42-.61-.37-.87-.82-1.15-1.43-2.31-1.65-3.79.11.06.21.13.33.19-.26-.21.14-.2.05-.44-.19.33-.36-.3-.56-.46.05-.34.04-.72-.04-1.08-.04-.18-.09-.37-.15-.54-.04-.2-.08-.39-.12-.56h.2c-.3-.72.21-1.4.49-2.05.1-.06.33-.11.38-.32-.18-.47-.09-.66-.09-1.25.15-.38.46-.96.72-1.29.1-1.55.89-2.87.9-4.34l.25-.06c-.1-.74-.06-1.44-.04-2.18.01-.75,0-1.5-.21-2.09l.42.07c.08-.4-.23-.86-.5-.72.07-.4-.36-.9-.08-1.21-.01-.4-.29-.43-.42-.74-.04-.8-.16-1.08-.45-1.77l.03.18c.11.05.28,0,.25-.18-.19-.23-.22-1.02-.59-.6,0-.39-.21-.91-.41-1.43-.22-.51-.34-1.06-.22-1.55-.12.1-.18-.13-.29-.22-.09-.42-.03-.86,0-1.27.03-.41,0-.8-.07-1.14.08-.13.21.22.25-.12-.04-.2-.17-.01-.23-.27-.18-1.42.71-2.69,1.05-3.84.56-2.15,2.08-4.03,3.69-5.4l.04.09c.16-.36.53-.58.92-.73.38-.16.72-.31.82-.71.18-.02.6-.26.57-.04.2-.24.59-.35,1-.48.42-.11.87-.19,1.21-.47-.07.01-.11.05-.18.11.21-.01.41-.05.6-.1.2-.03.38-.08.58-.12.38-.08.77-.21,1.22-.13-.08.05-.24.08-.25.19.34.16.76-.45.96,0,.19-.01.13-.24.01-.22.23.01.43.02.69.02v.82c0-.1-.04,1.08-.03.58h0s0-.03,0-.03v-.04s-.02-.07-.02-.07l-.05-.29-.09-.59c-.12-.57.03-.32.06-.37l.32.02.64.02c.43-.01.86.02,1.3.08.88.05,1.75.26,2.6.53,1.18.86-.25.75.9.91.04.12.14-.13.11-.04.44.11.29.8.66.74.06-.31.25-.03.36-.17.61.63.53.97,1.19,1.21l-.14.08c.85.21,1.34,1.01,2.11,1.26,2.79,3.43,3.9,8.16,2.54,12.45l-.13.39-.12.31-.22.61c-.14.41-.26.83-.37,1.24-.22.83-.4,1.67-.53,2.5-.13.83-.22,1.67-.25,2.5-.02.43-.01.78-.01,1.16.02.39.05.78.1,1.19-.22.85-.19.93.22,1.74-.07-.02-.1-.07-.14.01.33-.05.23.61.55.59.37,1.27.94,2.41,1.47,3.83-.12-.21-.41-.23-.29.03l.3.21-.07.08c.11.17.34.33.37.1.37.92.74,1.91.75,3.33-.05,1.07-.2,2.12-.51,3.13-.6,2.03-1.66,3.83-2.91,5.45-.72.66-1.59,1.73-2.43,2.4-2.8,1.53-5.57,1.97-8.54,2.25,0,0,.09-.21.32-.45.25-.24.64-.53,1.21-.65Z"/>
    <path class="cls-1" d="M46.44,71.97c-.09-.17-.4-.27-.13-.48.02.16.17.34.13.48Z"/>
    <path class="cls-1" d="M39.76,67.18s-.03-.13-.02-.16c.07.06.23.02.23.13-.08-.05-.12.01-.2.03Z"/>
    <path class="cls-1" d="M38.59,65.63c.14-.06.48.2.63.38l-.63-.38Z"/>
    <path class="cls-1" d="M38.25,63.81c.05-.18.13-.17.21,0-.06.05-.13,0-.21,0Z"/>
    <path class="cls-1" d="M37.89,63.84c-.06-.13-.03-.23.03-.33-.12.06.22.27-.03.33Z"/>
    <path class="cls-1" d="M37.42,60.13c-.02-.09-.15-.28,0-.36-.11.1.21.42,0,.36Z"/>
    <path class="cls-1" d="M37.33,58.63c.02-.05.05-.07.03-.14.09-.08.17.05.16.13h-.19Z"/>
    <polygon class="cls-1" points="43.72 25.93 43.57 26.08 43.54 25.93 43.72 25.93"/>
    <path class="cls-1" d="M56.09,30.16c.18.12-.05.19-.05.22-.1-.14.19-.03.05-.22Z"/>
    <polygon class="cls-1" points="58.03 37.94 58.04 37.87 58.33 37.96 58.03 37.94"/>
  </g>
  <g>
    <path class="cls-1" d="M88.21,48.11c-.09-.94-.54.5-.2-.61.23.13.4.31.2.61Z"/>
    <path class="cls-1" d="M87.75,44.41c-.21-.36-.36-.73-.51-1.12-.16-.38-.29-.78-.4-1.18-.21-.81-.32-1.66-.42-2.53-.16-.85-.34-1.72-.57-2.56-.12-.42-.25-.83-.4-1.22-.17-.39-.41-.74-.66-1.08-.19-.33.82-.18.34-.92-.27-.32-.53-.67-.77-1.05-.23-.38-.45-.79-.72-1.2-.49-.83-.93-1.75-1.32-2.72-.93-1.87-1.69-3.97-2.55-5.77l.33.05c-.33-.69-1.43-.98-1.89-1.6.11-.11.34.04.38-.23-.49.16-1.12-.91-1.6-.92-.07-.35.22-.59.1-1.03l-.69.04c-.85-.04-1.42-.51-1.93-1.13-.53-.6-1.03-1.35-1.9-1.62.14-.05.34-.02.31-.2-.67-.26-1.32-.57-1.97-.94-.66-.35-1.28-.79-1.98-1.12-1.37-.71-2.7-1.56-4.13-2.01.19-.12.45-.38.38-.65-.39.44-1.27.17-2.03-.07-.08-.73-1.46,0-2.2-.63l.12-.09c-.85.34-.84-.68-1.59-.18l-.27-.59c-.52.7-.84-.66-1.51-.4l-.03.17c-.57.06-.73-.41-1.25-.4l-.02-.1c-1.16-.11-1.75-.61-1.84.02-.31-.56,1.15-.06.67-.89-3.93-.08-7.82-.34-11.68-.02-.46-.2-.75-.23-.88-.46-.37.19-1.44.34-1.73.71.13-.03-.3-.28-.51-.29-.75-.12-.63.78-1.43.7.26-.24.32-.47.17-.68-.54.65-1.41.8-2.12,1.15.09-.13.25-.24.17-.43-.67.76-1.56.24-2.15.88l.15-.45c-1.29,0-.09.86-1.15.96.19-.2.06-.3.06-.46-.35.48-.9.81-1.47,1.08-.58.25-1.12.58-1.52.87.03-.07-.03-.16-.03-.16-.46.27-.95.47-1.45.7-.5.22-1,.5-1.41.94-.44.07-.33-.86-1.22-.15.42.62-1.46,1.24-.45,1.61-.22.09-.47.2-.73.31-.25.13-.5.28-.75.43-.49.3-.92.61-1.09.9.17-.48-.92-.44-.32-.97h-.76c-.11-.29.57-.29.18-.48-.31.28-1.09,1.19-1.43,1.35-.27.86-.2,1.95-1,2.8.21-.58-.8-.38-.61-.73-.09.72-.17,1.42-.17,2.17-.23.31-.48-.34-.72.21.16.11.09.38.09.61-.16.05-.93,1.3-1.61.96-.34-.06.31-.57-.18-.42-.49.54-.27.76-.71,1.34l-.09-.05c-.38.32-.6,1.32.04,1.14.22-.25-.43-.16.04-.43.14.53-.26,1.25-.68,1.82.05-.26-.13-.35-.24-.54-.12,1.09-.41,2.09-.77,3.09.29.19-.34-.66-.1-.7-.55.46-.81,1.14-.98,1.81-.17.67-.34,1.3-.9,1.66.02-.19.49.12.4.09-.32.56-.77.33-.78.79-.29-.08-.17.51-.21.97.12.29-.17.05-.07-.32.01.34-.08,1.12-.29,1.95-.22.83-.54,1.72-.89,2.35.19.03.48,1.02.38,1.32l-.41-.23c-.34.22-.23,1.05-.63,1.02.37.8.21-2.69.39-1.68-.43.14.38,1.44-.17,1.09-.14.64.18,1.34-.31,1.87.1-.16-.54-.64-.59-.11-.06.94.17.3.21,1.07l.11.49c.44.09-.18.8.36.53-.38.07.01,1.33-.69,1.17l-.57-.19c.01.41.57.72.81,1.05-.06.05-.18.14-.27.12.88.12-.12.95.54,1.45-.17.41-.21.93-.27,1.4-.01.47-.06.89-.33,1.09.3.64.65,1.19.5,1.93-.09-.14-.13-.33-.32-.36-.24.48,0,.58.16.98-.17-.08-.39.96-.63,1.52.36.6.8.31,1.1.33-.76.72.77,1.67.2,2.52-.19-.18-.63-.82-.74-.25-.71.77.93,1.01.75,2.02l.65-.41c-.33.52.74,1.21,0,1.32.3.23.11,1.12.75.81-.02.81.39,1.66.68,2.46.27.81.62,1.51.22,2.22.2.15.34.7.61.44.2-.5-.48-.34-.29-.58.11.17.3.12.4.1.06.5.18.87-.55.72.09,1.17,1.51.47,1.97,1.73-.29.09-.33.24-.08.55l.82.38c.35.8-.31.78-.72,1.07.32.36.6.88,1.05.82l-.17.82c.12-.6.48.14.71.24l-.23-.11c-.12.19.32.56.53.74.21-.24-.03-.76-.14-1.05.32.06.5.39.9.49-.45.21.18.82.36,1.15.17.41.65.08.71.19-.19.17.43.54-.06.52-.16-.06-.04-.4-.37-.44.04.33-.31.59.33.82.48.17.65-.72.98.1-.24-.08-.41.02-.65.01l.34.75.35-.28c-.01.15-.09.13-.1.2.5-.15.91.79,1.4.55.31.24.39.77.63,1.06l-.08-.02c.16.5.73.79,1.21.82l-.08.06c.16.19.64.55,1.04.54.29.63-.89,1.43.03,1.42.54.38,1.31-.04,1.27-.42.37.46.92.74,1.43,1.06.54.27,1.05.56,1.32,1.13.23-.07.21-.22.55-.13.67.52,1.48.87,2.27,1.16.78.32,1.46.7,1.89,1.4-.52-.04-.21.39-.3.63.52-.18.3.57.69,0,.12-.39.22-.54-.15-.88,1.01.16,2.42.66,2.82,1.22-.2-.27.04-.32.28-.35-.27.59.4.95,1.01.84l.19-.36.24.48c.24-.07.44-.73.88-.23,0,.15-.02.31.06.44.65-.19,1.52-.45,2.07-.06l.4.64c.28-.02.78-.29.34-.53.99.5,1.67.65,1.95,1.19,1.98-1.03,4.54-.92,6.65-1.03l-.04.3c.59.25.26-.53.67-.34-.16.29.49.58.06.95.86.29,1.01-.6,1.51-.8.03-.39-.39.31-.35-.19.07-.15,1.15.13,1.19-.47.23.2.14.64.07.89l.45-.35c.73.58-1.21,1.41-.45,2.14l.47-.16c.56.53-1.18.88.07.9.49-.37.79-1.26.29-1.45,1.04-.33.25-1.41,1.36-1.59.18.13-.03.21-.25.3-.23.07-.46.16-.31.38.63.41,1-.5,1.49-.44-.56-.08-.26-.77.04-.95.62.12-.23.63.57.48.05-.36.69-.78.02-.85.08-.8.86,0,1.11-.67.41.45-.45,1.39.49,1.43-.27-.43.83-1.02.15-1.59.36.02.53.4.39.78.57.13.81-1.3,1.31-.39l-.02-.55c.2.11.46.15.8.33.21-.07.47-.36.72-.53.24-.19.45-.28.59.09.09-.14,1.01-.54.43-.87-.69-.04-.47.68-1.08.14.63.37.76-.46.99-.79l.18.25c.14-.2.6-.35.57-.7-.06.23.1.38.29.37v-.51c.64-.57.55.65,1.23.16-.12.21-.26.4-.4.6.08-.14.57.16.84-.2-.07-.46-.08-1.06-.13-1.41.3-.4.42.31.59-.31l-.25.76c0,.17.7.4,1.25.05.28-.34.47-1.18-.19-1.05.26-.17.78-.18.74.22.53-.49-.33-.34.05-.87.37.11,1.21-.04,1.85,0l-.11.98.36-.26c-.13.81.49.18.58.86.3-.11.48-.5.63-.8-1.29-.24-.01-1.64-.77-2.18.78-.87,1.95,1.19,1.99-.68-.3-.04-.32-.93-.7-.24.6-.42-.23-.99.64-1.29-.22.69,1.12.19.79,1.2-.15-.26-.54.19-.59.35.45.04.54.71,1.12.18.29-.38.76-.83.37-1.09-.37-.35-.49.52-.62-.05.57-.73,1.21-.32.82-1.23-.33.48-.81.21-1.05-.05.12-.19.2-.42.3-.62l.16.33c.88-.62-.23-.65.51-1.34l.82.09c.26.56-1.19.93-.39,1.44.49-.48.29-.96.89-1.27-.04.16-.15.32-.18.48.18-.15,1.28.47,1.4-.73.1-.57-.17-.31-.43-.54.57-.94.48-1.41.85-2,.46.52.79-.95.9.08-.54.06-1.44,1.32-1.17,2.05.43.09.28.25.08.47-.22.21-.5.47-.27.82.63-.65,1.2-.12,1.69.09.18-.19.16-.52.19-.7-.32-.39-.51-.12-.92-.42.71-.73,1.08-1.67,1.01-2.38.4-.13.74.23.54.58.32-.51.61-1.06.94-1.58.33-.52.69-1.01,1.06-1.46-1.07.23.49-1.18-.35-1.07-.46.44-1.22.58-1.37.13.24-.29.3.18.53.14-.13-.6.99-.3.58-1.04-.23,1.08.77.65,1.24,1.12.03-.88.38.24.72-.48.04-.88.21-1.88.47-2.72.94-.81.97-2.63,1.29-3.54.43-.41,1.02.14,1.28-.38.15-.65-.86.27-.3-.6l.11.13c-.09-.33.92-1.66,0-2.16l.67.46c.11-.16-.01-.37-.06-.54.24.05.52-.12.6.21.71-.49.14-1.31.24-1.97l-.51.35c-.19-1.18.4-1.87.37-2.99l.44.08-.23-.68c.42.2.73-.39.39-.77.33.6.68,1.21.98,1.84-.32.46-.47-.59-.94-.32-.4.22-.45,1.24-.05,1.47.11-.39.02-.42-.1-.74.63-.06.52.54.88.9,0-.21.24-.49.05-.56.24.45.22.88.13,1.58-.17-.51-.42.19-.56-.01.53.14.59.84.31,1.67-.77.46-.01,1.67-.43,2.62-.43-.54-.73-1.15-.8-1.78-.42.53-.16.67-.58,1.2.32.39.88.77.91,1.64l-.4-.08c-.02.77.52.95.09,1.82-.38.74-.71,1.5-1.01,2.22-.36.69-.7,1.34-.99,1.9l-.38-.13c.24.5.06,1.06-.19,1.62-.25.56-.65,1.06-.72,1.57-.58.58-.95,1.37-1.3,2.06-.39.66-.8,1.21-1.32,1.33-.36.61-.71,1.2-1.05,1.78-.38.56-.79,1.08-1.2,1.61-.41.53-.84,1.05-1.3,1.57-.49.48-1.03.95-1.59,1.41l-.04-.76c-.09.67-.48-.02-.79.38.75-.04-.11.93-.16,1.45-1.28.5-2.34,1.84-3.04,2.9l-.27-.31c-.56,1.29-2.16,1.44-3.46,2.1-.22-.05-.64-.28-1.01-.05-.41.93-.81,1.07-1.7,1.95-.76.42-2.15.71-3.05.78-.68.47-1.39.94-2.16,1.22-.77.29-1.56.52-2.36.75l-1.21.33-1.23.23c-.82.16-1.65.36-2.47.62l-.29-.44c-.78.33-1.65.49-2.53.6-.88.09-1.79.21-2.68.1-1.78-.16-3.48-.23-4.91-.26l.37-.77c-.82-.38-1.99-.09-1.87.52-.42-.19-.98-.17-1.5-.22-.51-.08-.97-.2-1.16-.6-.84-.37-1.16.09-1.93,0-.85-.35-1.41-.63-1.99-.85-.57-.21-1.15-.36-1.99-.59l.38.19c.24-.1.38-.42,0-.62-.34,0-.87-.24-1.28-.38-.4-.15-.7-.14-.6.44-.72-.66-1.73-1.01-2.73-1.4-1-.38-1.92-.94-2.5-1.71,0,.31-.42.11-.68.17-.35-.21-.68-.45-1.01-.7-.3-.28-.6-.56-.89-.83-.59-.53-1.17-1-1.83-1.21-.12-.26.61-.11.1-.52-.37-.16-.23.27-.7.09-1.14-.69-2.05-1.69-2.88-2.69-.78-1.06-1.44-2.16-2.29-2.99-3.1-2.93-5.26-6.9-6.95-10.58l.2-.04c-1.22-.99-.39-3.24-1.84-3.89.06-.36-.24-1.22.18-1.09-.39-.45-.46-1.22-.56-2.04-.05-.41-.11-.83-.21-1.23-.09-.41-.2-.81-.43-1.16,0,.15.06.22.16.37.09-.82-.06-1.54-.22-2.27-.08-.37-.16-.74-.21-1.12-.04-.39,0-.79.06-1.21.09.16.17.46.37.49.34-.65-.9-1.45.02-1.85-.03-.36-.49-.24-.45-.02.02-1.81.13-3.66.08-5.56v-.71s.04-.71.04-.71l.09-1.43.1-1.44.06-.72.13-.7c1.22-2.5,1.58.22,1.43-2.01.22-.12-.32-.22-.12-.19-.02-.43.31-.67.6-.88.32-.2.6-.37.46-.71-.63.04-.18-.46-.5-.59.93-1.42,1.48-1.53,1.58-2.88l.24.21c-.07-.85.19-1.63.43-2.39.24-.76.43-1.52.36-2.31.53-.93,1.06-1.85,1.58-2.76.56-.89,1.19-1.74,1.78-2.61.57-.89,1.25-1.69,1.93-2.49.69-.79,1.3-1.65,2.08-2.36l2.24-2.21c.79-.69,1.62-1.33,2.44-1.99.8-.69,1.69-1.25,2.58-1.81.9-.55,1.75-1.19,2.72-1.62.95-.44,1.9-.88,2.84-1.32.96-.4,1.95-.73,2.92-1.1.49-.17.97-.37,1.47-.53l1.51-.4c1.01-.25,2-.57,3.03-.75l3.09-.48.77-.11.78-.04,1.57-.06c2.09-.15,4.19.11,6.29.34,1.88,1.03,1.98,1.06,4.17,1.06-.11.11-.25.12-.13.26.24-.66,1.49.26,1.82-.29,1.49.46,2.97.75,4.38,1.3.72.25,1.43.49,2.16.74.74.24,1.42.62,2.16.95-.49-.16-.94.22-.38.44l.75-.1v.21c.42.09.98,0,.69-.37.47.2.95.37,1.4.61l1.33.75c.87.53,1.77,1.01,2.57,1.63.8.62,1.59,1.25,2.36,1.9.4.31.76.65,1.11,1.02l1.06,1.07c1.45,1.38,2.62,3.02,3.89,4.52l1.7,2.42c.28.4.59.79.86,1.2l.78,1.25c.35.88,1,1.81,1.53,2.82.54,1.01,1.14,2.03,1.64,2.92.36,1.48.64,2.94.96,4.34.2,1.44.4,2.84.64,4.22.12,1.41.27,2.8.49,4.21.09,1.42.23,2.86.45,4.35,0,0-1.73-.79-2.24-3.09Z"/>
    <path class="cls-1" d="M88.22,49.24c-.34.19-.55.82-.96.29.31-.05.67-.37.96-.29Z"/>
    <path class="cls-1" d="M80.79,64.56c.08.06-.22.15-.29.17.06-.19-.1-.48.12-.55-.06.19.09.23.17.38Z"/>
    <path class="cls-1" d="M78.56,68.01c-.21-.22.04-1.08.28-1.54l-.28,1.54Z"/>
    <path class="cls-1" d="M75.37,70.33c-.39.09-.43-.06-.17-.4.14.07.12.24.17.4Z"/>
    <path class="cls-1" d="M75.72,70.96c-.21.24-.44.24-.67.24.2.15.36-.63.67-.24Z"/>
    <path class="cls-1" d="M69.29,75.91c-.14.13-.33.58-.66.42.3.06.52-.85.66-.42Z"/>
    <path class="cls-1" d="M66.47,78.39c-.11.05-.18.03-.26.17-.26,0-.17-.3-.02-.42l.29.25Z"/>
    <polygon class="cls-1" points="11.12 56.29 11.36 56.66 11.07 56.67 11.12 56.29"/>
    <path class="cls-1" d="M16.34,26.69c.07-.46.39-.08.47-.12-.2.32-.23-.32-.47.12Z"/>
    <polygon class="cls-1" points="27.62 14.07 27.51 14.14 27.24 13.61 27.62 14.07"/>
  </g>
  <g>
    <path class="cls-1" d="M42.9,28.29c.04-.14-.15,0,0-.11.04.05.07.09,0,.11Z"/>
    <path class="cls-1" d="M45.34,67.99c-.3.1-.59,0-.84-.18-.25-.17-.51-.33-.79-.42-.06-.03.14-.16,0-.21-.31-.05-.61-.26-.81-.57-.24-.29-.37-.66-.45-.99h.07c-.03-.12-.28-.14-.33-.27.03-.02.07,0,.1-.04-.12.03-.15-.18-.26-.19.02-.07.1-.11.12-.19h-.15c-.38-.05-.22-.47-.46-.67.03,0,.07.02.09-.01-.36-.36-.49-.94-.69-1.43.05,0,.14,0,.19-.03-.15,0-.21-.14-.27-.28.13-.09-.17-.21-.13-.39h.03c-.17-.09.05-.18-.14-.26l.1-.09c-.21-.03.09-.19-.03-.28h-.04c-.06-.08.04-.14,0-.23h.02c-.08-.21.03-.34-.13-.33.12-.08.08.2.25.07-.22-.66-.18-1.38-.13-2.06.07-.07.1-.12.16-.13-.02-.07,0-.26-.07-.33,0,.02.09-.03.1-.07.08-.11-.16-.16-.07-.29.04.06.08.09.14.08-.11-.14-.05-.28-.06-.43.02.03.03.06.08.07-.11-.18.09-.26.03-.41l.08.07c.16-.18-.18-.11-.06-.27.01.05.05.04.09.06-.11-.21.03-.46.03-.65,0,.01.03.02.03.02.04-.19.19-.34.21-.56.07-.05.19.13.24-.07-.16-.09.09-.33-.15-.33.1-.13.28-.33.28-.46.03.1.24.03.19.16l.15-.05c.06.05-.07.09.03.1.03-.06.04-.29.1-.33-.05-.17-.2-.36-.14-.56.03.12.21.03.21.1-.07-.14-.14-.27-.22-.4.01-.07.14.04.13-.07-.05-.01-.06-.06-.09-.11.03-.02.05-.28.23-.25.08,0,0,.12.09.07.04-.12-.02-.15.02-.27h.02c.06-.06,0-.26-.12-.2-.02.05.11.01.04.08-.08-.09-.07-.24-.04-.36.02.05.06.06.11.09-.09-.21-.08-.39-.09-.58-.08-.03.13.11.08.12.19-.2-.04-.53.18-.68,0,.04-.12-.01-.1,0,.04-.11.16-.08.13-.16.07,0,0-.1,0-.18-.04-.05.04-.01.03.06-.03-.12-.07-.57.09-.8-.05,0-.15-.18-.13-.24l.11.04c.08-.04.02-.19.12-.19-.11-.14.04.49-.04.31.1-.03-.14-.26,0-.2.01-.12-.1-.25.02-.34-.02.03.14.12.15.02,0-.17-.05-.05-.07-.19l-.03-.09c-.11-.02.04-.14-.1-.1.1,0-.02-.24.16-.2l.14.04c0-.07-.14-.13-.2-.2.01,0,.05-.02.07-.02-.22-.04.04-.17-.13-.27.09-.14.05-.38.19-.44-.06-.12-.14-.23-.08-.36.02.03.02.06.07.07.07-.08.01-.1-.02-.18.03.02.14-.16.22-.25-.06-.12-.18-.08-.26-.1.23-.1-.14-.32.07-.45.03.04.11.17.16.07.22-.1-.16-.21-.05-.38l-.18.04c.11-.08-.1-.25.08-.23-.06-.06.05-.2-.12-.18.14-.28-.11-.66.19-.85-.03-.04-.01-.14-.1-.11-.09.07.08.09.01.12,0-.03-.06-.04-.08-.04.03-.09.04-.16.19-.09.09-.2-.32-.17-.27-.42.07,0,.1-.02.08-.09l-.14-.12c0-.16.15-.11.28-.13-.03-.08-.04-.18-.14-.21l.14-.12c-.1.09-.08-.06-.12-.09l.04.03s0-.11-.02-.16c-.07.02-.09.13-.11.18-.06-.03-.06-.1-.13-.15.12,0,.07-.15.07-.21.01-.08-.12-.06-.12-.09.06-.01-.01-.12.08-.08.02.02-.05.07.01.1.04-.06.15-.07.05-.16-.07-.06-.23.07-.19-.09.04.03.09.03.14.05l.03-.15-.11.02s.04-.01.05-.03c-.12-.02-.08-.2-.21-.2-.03-.06.04-.16.03-.22h.01c.04-.08-.03-.18-.12-.22h.02s-.05-.14-.12-.17c.05-.13.39-.16.22-.24-.04-.11-.25-.1-.31-.03,0-.22-.24-.34-.15-.61-.05-.01-.07.02-.12-.03-.07-.32-.37-.59-.25-.91.08.07.11-.03.17-.06-.12-.04.06-.12-.11-.09-.09.04-.14.05-.15.15-.12-.16-.23-.43-.17-.57-.03.07-.07.04-.11,0,.16-.04.14-.18.05-.27l-.1.02.08-.1s-.21.02-.15-.11c.03-.02.07-.03.09-.06-.11-.08-.28-.2-.24-.34l.11-.13s-.14-.11-.15,0c.02-.22,0-.35.1-.44-.38-.27-.49-.78-.56-1.19h.07c.04-.12-.14-.03-.1-.12.08.02.13-.11.23-.04.04-.17-.17-.18-.21-.28-.1,0,.07.07-.05.07-.04-.01.04-.23-.1-.23.05-.05.16-.03.22-.02l-.08-.09c.15-.14.34.22.53.06l-.03-.08c.14-.11.2.2.22-.02-.08-.08-.3-.13-.36-.04-.07-.19-.36-.04-.37-.26.08-.07.04.17.16.11.1-.12-.09-.19-.06-.29-.04.11-.2.04-.23-.02.05-.12.15.05.14-.1-.09-.02-.17-.15-.21-.02-.2-.04.03-.17-.13-.24.13-.06.33.13.37-.05-.13.04-.2-.2-.38-.09.03-.07.13-.09.22-.05.07-.1-.25-.22,0-.27l-.13-.02s.07-.08.14-.13c0-.09-.2-.27,0-.27-.02-.03-.03-.22-.16-.14-.08.13.11.13-.07.21.15-.1-.03-.18-.09-.24l.08-.02s-.02-.14-.11-.16c.05.03.1.01.11-.02l-.12-.04c-.07-.17.2-.05.16-.21l.09.12s.08-.09.05-.16c-.11-.03-.23-.09-.32-.11-.05-.09.12-.04.01-.14l.13.12s.18-.08.18-.21c-.04-.08-.19-.21-.25-.08,0-.06.07-.15.14-.1-.04-.14-.12.02-.18-.11.07-.05.18-.21.28-.3l.18.13v-.08c.14.11.11-.05.26.01.02-.06-.03-.13-.06-.18-.25.16-.33-.2-.55-.17-.04-.24.55-.11.22-.38-.06.04-.22-.09-.17.06.04-.14-.21-.12-.11-.28.08.13.23-.12.35.08-.07-.02-.06.1-.05.13.09-.05.22.03.23-.12-.01-.09,0-.21-.12-.21-.13,0,0,.14-.12.07-.03-.18.16-.19-.05-.29,0,.12-.12.13-.21.12l-.04-.14.08.03c.08-.21-.15-.08-.1-.29l.18-.08c.13.07-.1.29.13.28.02-.13-.08-.19,0-.31.02.03.02.07.03.1.01-.05.33-.05.18-.27-.06-.11-.08-.04-.16-.05,0-.22-.07-.3-.07-.44.16.06.05-.24.2-.06-.11.05-.15.36,0,.46.21-.05-.05.16.14.24.03-.17.22-.13.36-.14.02-.04-.03-.1-.05-.13-.12-.04-.13.02-.25,0,.06-.18.02-.37-.08-.5.07-.05.19,0,.19.07,0-.23.08-.46.16-.66-.22.09,0-.24-.18-.19-.07.1-.23.17-.3.09.03-.07.08.02.13,0-.09-.12.2-.1.05-.23.02.22.23.1.37.17-.05-.16.11.03.14-.11-.05-.16-.06-.35-.05-.52.19-.16.15-.5.21-.68.11-.07.25.05.31-.03.04-.12-.21.02-.07-.12l.03.03c-.02-.07.23-.27,0-.41l.16.12s0-.07,0-.1c.06.02.13,0,.14.07.16-.05.06-.22.1-.33l-.13.03c0-.23.16-.31.21-.5l.1.05v-.14c.08.07.19,0,.13-.09.04.13.07.26.11.39-.09.05-.08-.14-.2-.14-.1,0-.15.18-.07.25.04-.06.02-.07,0-.14.15.04.1.14.17.23,0-.04.07-.06.03-.09.04.1.02.16-.02.27-.02-.1-.11,0-.13-.04.12.06.12.18.03.3-.18.04-.01.29-.1.43-.11-.11-.18-.23-.19-.35-.1.08-.04.11-.14.19.08.08.22.17.23.32l-.1-.03c0,.14.15.18.07.32-.13.24-.2.51-.27.71l-.1-.02c.17.16-.01.39.05.56-.15.24-.03.57-.21.68,0,.47.02.88-.04,1.35l-.14-.09c.1.09-.09.05-.07.14.13-.09.14.13.23.19-.14.2-.01.49.09.68h-.1c.19.2.02.42-.02.66-.04.03-.14.07-.12.14.17.12.16.19.28.37,0,.14-.02.36-.07.51.26.5.21,1.03.41,1.54l-.11.06c.37.46.25,1.13.5,1.53h-.21c-.02.16.14.3.27.23-.02.15.19.3.06.44,0,.15.14.14.2.24,0,.3.05.39.19.63v-.07c-.06-.01-.15.01-.14.08.09.08.08.37.27.19-.03.32.34.58.27.91.05-.05.09.01.14.02.1.25.08.6.26.77-.02.05-.13-.03-.1.08.04.06.08-.02.14.04.25.41.12.93.22,1.32.26.69.28,1.45.34,2.13h-.05c.19.22-.17.54.12.71-.04.06-.02.21-.11.17.13.18-.13.51.04.77,0-.02,0-.04-.03-.07-.11.26.02.5-.09.77-.02-.03-.03-.08-.08-.09-.1.1.19.27-.05.31,0,.06.12.05.11.01-.14.6-.06,1.26-.1,1.9-.21.43-.39-.04-.28.34-.05.02.08.04.04.03.04.15-.3.16-.2.28.15-.01.07.08.15.1-.15.25-.28.28-.22.52l-.07-.03c.15.3-.03.56.16.83-.17.7-.34,1.38-.57,2.06-.13.34-.23.68-.39,1l-.23.49-.16.37c-.48.95-.5,2.21-.61,3.42-.19.29-.2.32-.08.64-.03-.01-.04-.03-.07,0,.16,0,.04.22.2.24,0,.46.14.87.22,1.32-.03-.07-.17-.08-.14,0l.12.07-.04.02c.04.05.14.1.17.02.4,1.07.54,2.25,1.26,3.1.13.22.4.48.63.63.44.71,1.11,1.23,1.97,1.34,0,0-.21.37-.61.33Z"/>
    <path class="cls-1" d="M42.82,28.46c-.09-.01-.18.07-.23-.06.07.03.17.02.23.06Z"/>
    <path class="cls-1" d="M41,30.98s-.04.04-.06.04c0-.04-.06-.09,0-.11,0,.04.03.04.06.07Z"/>
    <path class="cls-1" d="M40.78,31.74c-.07-.03-.09-.2-.08-.3l.08.3Z"/>
    <path class="cls-1" d="M40.37,32.43c-.07.06-.1.03-.09-.05.04,0,.05.03.09.05Z"/>
    <path class="cls-1" d="M40.52,32.5c0,.06-.05.09-.1.11.06,0-.02-.15.1-.11Z"/>
    <path class="cls-1" d="M40.16,34.1s.06.13-.02.16c.06-.04-.09-.19.02-.16Z"/>
    <path class="cls-1" d="M40.26,34.86s-.02.03,0,.06c-.03.04-.09,0-.09-.04l.09-.02Z"/>
    <polygon class="cls-1" points="42.99 47.57 42.96 47.49 43.03 47.51 42.99 47.57"/>
    <path class="cls-1" d="M42.2,53.05c.02.09-.08.03-.09.04.01-.07.08.05.09-.04Z"/>
    <polygon class="cls-1" points="41.38 55.96 41.39 55.94 41.52 56.02 41.38 55.96"/>
  </g>
  <g>
    <path class="cls-1" d="M52.92,67.41c-.04.14.15,0,0,.11-.04-.05-.07-.09,0-.11Z"/>
    <path class="cls-1" d="M50.47,27.71c.3-.1.59,0,.84.18.25.17.51.33.79.42.06.03-.14.16,0,.21.31.05.61.26.81.57.24.29.37.66.45.99h-.07c.03.12.28.14.33.27-.03.02-.07,0-.1.04.12-.03.15.18.26.19-.02.07-.1.11-.12.19h.15c.38.05.22.47.46.67-.03,0-.07-.02-.09.01.36.36.49.94.69,1.43-.05,0-.14,0-.19.03.15,0,.21.14.27.28-.13.09.17.21.13.39h-.03c.17.09-.05.18.14.26l-.1.09c.21.03-.09.19.03.28h.04c.06.08-.04.14,0,.23h-.02c.08.21-.03.34.13.33-.12.08-.08-.2-.25-.07.22.66.18,1.38.13,2.06-.07.07-.1.12-.16.13.02.07,0,.26.07.33,0-.02-.09.03-.1.07-.08.11.16.16.07.29-.04-.06-.08-.09-.14-.08.11.14.05.28.06.43-.02-.03-.03-.06-.08-.07.11.18-.09.26-.03.41l-.08-.07c-.16.18.18.11.06.27-.01-.05-.05-.04-.09-.06.11.21-.03.46-.03.65,0-.01-.03-.02-.03-.02-.04.19-.19.34-.21.56-.07.05-.19-.13-.24.07.16.09-.09.33.15.33-.1.13-.28.33-.28.46-.03-.1-.24-.03-.19-.16l-.15.05c-.06-.05.07-.09-.03-.1-.03.06-.04.29-.1.33.05.17.2.36.14.56-.03-.12-.21-.03-.21-.1.07.14.14.27.22.4-.01.07-.14-.04-.13.07.05.01.06.06.09.11-.03.02-.05.28-.23.25-.08,0,0-.12-.09-.07-.04.12.02.15-.02.27h-.02c-.06.06,0,.26.12.2.02-.05-.11-.01-.04-.08.08.09.07.24.04.36-.02-.05-.06-.06-.11-.09.09.21.08.39.09.58.08.03-.13-.11-.08-.12-.19.2.04.53-.18.68,0-.04.12.01.1,0-.04.11-.16.08-.13.16-.07,0,0,.1,0,.18.04.05-.04.01-.03-.06.03.12.07.57-.09.8.05,0,.15.18.13.24l-.11-.04c-.08.04-.02.19-.12.19.11.14-.04-.49.04-.31-.1.03.14.26,0,.2-.01.12.1.25-.02.34.02-.03-.14-.12-.15-.02,0,.17.05.05.07.19l.03.09c.11.02-.04.14.1.1-.1,0,.02.24-.16.2l-.14-.04c0,.07.14.13.2.2-.01,0-.05.02-.07.02.22.04-.04.17.13.27-.09.14-.05.38-.19.44.06.12.14.23.08.36-.02-.03-.02-.06-.07-.07-.07.08-.01.1.02.18-.03-.02-.14.16-.22.25.06.12.18.08.26.1-.23.1.14.32-.07.45-.03-.04-.11-.17-.16-.07-.22.1.16.21.05.38l.18-.04c-.11.08.1.25-.08.23.06.06-.05.2.12.18-.14.28.11.66-.19.85.03.04.01.14.1.11.09-.07-.08-.09-.01-.12,0,.03.06.04.08.04-.03.09-.04.16-.19.09-.09.2.32.17.27.42-.07,0-.1.02-.08.09l.14.12c0,.16-.15.11-.28.13.03.08.04.18.14.21l-.14.12c.1-.09.08.06.12.09l-.04-.03s0,.11.02.16c.07-.02.09-.13.11-.18.06.03.06.1.13.15-.12,0-.07.15-.07.21-.01.08.12.06.12.09-.06.01.01.12-.08.08-.02-.02.05-.07-.01-.1-.04.06-.15.07-.05.16.08.06.23-.07.19.09-.04-.03-.09-.03-.14-.05l-.03.15.11-.02s-.04.01-.05.03c.12.02.08.2.21.2.03.06-.04.16-.03.22h-.01c-.04.08.03.18.12.22h-.02s.05.14.12.17c-.05.13-.39.16-.22.24.04.11.25.1.31.03,0,.22.24.34.15.61.05.01.07-.02.12.03.07.32.37.59.25.91-.08-.07-.11.03-.17.06.12.04-.06.12.11.09.09-.04.14-.05.15-.15.12.16.23.43.17.57.03-.07.07-.04.11,0-.16.04-.14.18-.05.27l.1-.02-.08.1s.21-.02.15.11c-.03.02-.07.03-.09.06.11.08.28.2.24.34l-.11.13s.14.11.15,0c-.02.22,0,.35-.1.44.38.27.49.78.56,1.19h-.07c-.04.12.14.03.1.12-.08-.02-.13.11-.23.04-.04.17.17.18.21.28.1,0-.07-.07.05-.07.04.01-.04.23.1.23-.05.05-.16.03-.22.02l.08.09c-.15.14-.34-.22-.53-.06l.03.08c-.14.11-.2-.2-.22.02.08.08.3.13.36.04.07.19.36.04.37.26-.08.07-.04-.17-.16-.11-.1.12.09.19.06.29.04-.11.2-.04.23.02-.05.12-.15-.05-.14.1.09.02.17.15.21.02.2.04-.03.17.13.24-.13.06-.33-.13-.37.05.13-.04.2.2.38.09-.03.07-.13.09-.22.05-.07.1.25.22,0,.27l.13.02s-.07.08-.14.13c0,.09.2.27,0,.27.02.03.03.22.16.14.08-.13-.11-.13.07-.21-.15.1.03.18.09.24l-.08.02s.02.14.11.16c-.05-.03-.1-.01-.11.02l.12.04c.07.17-.2.05-.16.21l-.09-.12s-.08.09-.05.16c.11.03.23.09.32.11.05.09-.12.04-.01.14l-.13-.12s-.18.08-.18.21c.04.08.19.21.25.08,0,.06-.07.15-.14.1.04.14.12-.02.18.11-.07.05-.18.2-.28.3l-.18-.13v.08c-.14-.11-.11.05-.26-.01-.02.06.03.13.06.18.25-.16.33.2.55.17.04.24-.55.11-.22.38.06-.04.22.09.17-.06-.04.14.21.12.11.28-.08-.13-.23.12-.35-.08.07.02.06-.1.04-.13-.09.05-.22-.03-.23.12.01.09,0,.21.12.21.13,0,0-.14.12-.07.03.18-.16.19.05.29,0-.12.12-.13.21-.12l.04.14-.08-.03c-.08.21.15.08.1.29l-.18.08c-.13-.07.1-.29-.13-.28-.02.13.08.19,0,.31-.02-.03-.02-.07-.03-.1-.01.05-.33.05-.18.27.06.11.08.04.16.05,0,.22.07.3.07.44-.16-.06-.05.24-.2.06.11-.05.15-.36,0-.46-.21.05.05-.16-.14-.24-.03.17-.22.13-.36.14-.02.04.03.1.05.13.12.04.13-.02.25,0-.06.18-.02.37.08.5-.07.05-.19,0-.19-.07,0,.23-.08.46-.16.66.22-.09,0,.24.18.19.07-.1.23-.17.3-.09-.03.07-.08-.02-.13,0,.09.12-.2.1-.05.23-.02-.22-.23-.1-.37-.17.05.16-.11-.03-.14.11.05.16.06.35.05.52-.19.16-.15.5-.21.68-.11.07-.25-.05-.31.03-.04.12.21-.02.07.12l-.03-.03c.02.07-.23.27,0,.41l-.16-.12s0,.07,0,.1c-.06-.02-.13,0-.14-.07-.16.05-.06.22-.1.33l.13-.03c0,.23-.16.31-.21.5l-.1-.05v.14c-.08-.07-.19,0-.13.09-.04-.13-.07-.26-.11-.39.09-.05.08.14.2.14.1,0,.15-.18.07-.25-.04.06-.02.07,0,.14-.15-.04-.1-.14-.17-.23,0,.04-.07.06-.03.09-.04-.1-.02-.16.02-.27.02.1.11,0,.13.04-.12-.06-.12-.18-.03-.3.18-.04.01-.29.1-.43.11.11.18.23.19.35.1-.08.04-.11.14-.19-.08-.08-.22-.17-.23-.32l.1.03c0-.14-.15-.18-.07-.32.13-.24.2-.51.27-.71l.1.02c-.17-.16.01-.39-.05-.56.15-.24.03-.57.21-.68,0-.47-.02-.88.04-1.35l.14.09c-.1-.09.09-.05.07-.14-.13.09-.14-.13-.23-.19.14-.2.01-.49-.09-.68h.1c-.19-.2-.02-.42.02-.66.04-.03.14-.07.12-.14-.17-.12-.16-.19-.28-.37,0-.14.02-.36.07-.51-.26-.5-.21-1.03-.41-1.54l.11-.06c-.37-.46-.25-1.13-.5-1.53h.21c.02-.16-.14-.3-.27-.23.02-.15-.19-.3-.06-.44,0-.15-.14-.14-.2-.24,0-.3-.05-.39-.19-.63v.07c.06.01.15-.01.14-.08-.09-.08-.08-.37-.27-.19.03-.32-.34-.58-.27-.91-.05.05-.09-.01-.14-.02-.1-.25-.08-.6-.26-.77.02-.05.13.03.1-.08-.04-.06-.08.02-.14-.04-.25-.41-.12-.93-.22-1.32-.26-.69-.28-1.45-.34-2.13h.05c-.19-.22.17-.54-.12-.71.04-.06.02-.21.11-.17-.13-.18.13-.51-.04-.77,0,.02,0,.04.03.07.11-.26-.02-.5.09-.77.02.03.03.08.08.09.1-.1-.19-.27.05-.31,0-.06-.12-.05-.11-.01.14-.6.06-1.26.1-1.9.21-.43.39.04.28-.34.05-.02-.08-.04-.04-.03-.04-.15.3-.16.2-.28-.15.01-.07-.08-.15-.1.15-.25.28-.28.22-.52l.07.03c-.15-.3.03-.56-.16-.83.17-.7.34-1.38.57-2.06.13-.34.23-.68.39-1l.23-.49.16-.37c.48-.95.5-2.21.61-3.42.19-.29.2-.32.08-.64.03.01.04.03.07,0-.16,0-.04-.22-.2-.24,0-.46-.14-.87-.22-1.32.03.07.17.08.14,0l-.12-.07.04-.02c-.04-.05-.14-.1-.17-.02-.4-1.07-.54-2.25-1.26-3.1-.13-.22-.4-.48-.63-.63-.44-.71-1.11-1.23-1.97-1.34,0,0,.21-.37.61-.33Z"/>
    <path class="cls-1" d="M52.99,67.25c.09.01.18-.07.23.06-.07-.03-.17-.02-.23-.06Z"/>
    <path class="cls-1" d="M54.82,64.73s.04-.04.06-.04c0,.04.06.09,0,.11,0-.04-.03-.04-.06-.07Z"/>
    <path class="cls-1" d="M55.03,63.96c.07.03.09.2.08.3l-.08-.3Z"/>
    <path class="cls-1" d="M55.45,63.28c.07-.06.1-.03.09.05-.04,0-.05-.03-.09-.05Z"/>
    <path class="cls-1" d="M55.29,63.2c0-.06.05-.09.1-.11-.06,0,.02.15-.1.11Z"/>
    <path class="cls-1" d="M55.66,61.61s-.06-.13.02-.16c-.06.04.09.19-.02.16Z"/>
    <path class="cls-1" d="M55.56,60.85s.02-.03,0-.06c.03-.04.09,0,.09.04l-.09.02Z"/>
    <polygon class="cls-1" points="52.83 48.14 52.86 48.21 52.79 48.2 52.83 48.14"/>
    <path class="cls-1" d="M53.62,42.65c-.02-.09.08-.03.09-.04-.01.07-.08-.05-.09.04Z"/>
    <polygon class="cls-1" points="54.43 39.75 54.42 39.77 54.3 39.69 54.43 39.75"/>
  </g>
  <g>
    <path class="cls-1" d="M47.13,27.44c-.05-.15-.12.09-.07-.09.06.02.11.04.07.09Z"/>
    <path class="cls-1" d="M48.64,68.2c-.44-.44-.13-1.13-.43-1.63-.02-.06.21,0,.14-.14-.35-.48-.26-1.32-.1-1.97l.06.03c.03-.12-.18-.25-.16-.38.04,0,.06.04.11,0-.12-.02-.08-.22-.17-.27.04-.05.13-.06.18-.13l-.14-.06c-.34-.17-.02-.49-.21-.75.03.01.06.04.09.01-.23-.43-.24-.99-.36-1.48.05.02.14.03.19,0-.14-.01-.19-.16-.23-.29.14-.07-.15-.22-.08-.38h.03c-.16-.09.07-.17-.11-.25l.11-.08c-.21-.04.09-.18-.02-.26h-.04c-.06-.08.04-.13,0-.22h.02c-.07-.2.04-.32-.12-.31.12-.08.07.19.25.06-.2-.63-.22-1.3-.26-1.95.06-.08.08-.13.14-.15-.04-.06-.04-.24-.13-.3,0,.02.08-.05.09-.08.05-.12-.18-.12-.12-.25.05.05.1.06.16.04-.13-.1-.12-.25-.17-.38.03.02.05.05.1.04-.15-.14.02-.26-.08-.38l.09.04c.1-.21-.2-.05-.14-.23.03.04.07.02.1.03-.17-.16-.13-.42-.19-.58.01,0,.04,0,.04,0-.03-.18.02-.36-.06-.56.04-.07.23.02.19-.17-.19.01-.08-.32-.29-.2.03-.16.09-.42.03-.52.07.07.23-.08.24.05l.11-.1c.08.01-.02.1.07.07,0-.07-.09-.26-.06-.32-.12-.12-.33-.23-.36-.43.07.09.2-.06.24,0l-.36-.28c0-.07.15-.02.1-.11-.05,0-.08-.04-.12-.07.02-.03-.05-.28.14-.31.07-.03.04.11.1.03,0-.12-.06-.13-.07-.25h.02c.03-.08-.08-.24-.18-.15,0,.06.11-.02.06.06-.11-.06-.14-.2-.14-.33.03.04.08.04.13.06-.14-.17-.19-.34-.25-.53-.09,0,.16.07.11.1.13-.24-.16-.5.03-.69.01.03-.12.01-.1.01.01-.11.14-.11.1-.18.07,0-.02-.09-.04-.17-.05-.04.04-.02.04.05-.06-.11-.17-.54-.04-.79-.05,0-.17-.16-.16-.22l.11.03c.07-.05,0-.19.1-.2-.13-.13.09.48,0,.31.1-.04-.17-.24-.01-.2,0-.11-.12-.24,0-.34-.02.03.15.1.15.01,0-.16-.05-.05-.08-.19l-.04-.09c-.11-.01.02-.14-.1-.09.09-.01-.04-.24.14-.21l.14.04c0-.07-.14-.13-.21-.19.01,0,.04-.02.07-.02-.22-.03.03-.16-.14-.26.09-.14.03-.36.18-.42-.06-.12-.13-.22-.08-.34.02.03.02.06.07.07.07-.08.01-.1-.02-.17.03.02.14-.15.22-.24-.06-.11-.18-.08-.26-.1.22-.09-.13-.32.07-.44.03.04.1.17.16.08.22-.09-.15-.21-.04-.37l-.18.03c.12-.07-.1-.24.09-.22-.06-.06.07-.19-.11-.18.16-.26-.08-.65.25-.81-.03-.04,0-.13-.09-.12-.1.06.07.09,0,.11,0-.03-.05-.04-.08-.05.04-.08.06-.15.2-.07.11-.18-.3-.2-.23-.43.07.01.1,0,.09-.08l-.12-.13c.03-.15.17-.09.29-.09-.02-.08-.01-.18-.11-.22l.16-.1c-.11.07-.08-.07-.11-.11l.03.04c.05-.02.02-.11,0-.16-.08.01-.11.11-.13.16-.05-.04-.04-.11-.11-.16.12.02.09-.13.1-.2.03-.07-.11-.08-.11-.11.06,0,.01-.12.1-.06.02.03-.06.06,0,.1.05-.05.16-.04.08-.15-.06-.08-.24.02-.16-.13.03.04.08.05.12.07l.06-.14h-.11s.04-.01.05-.02c-.12-.04-.04-.21-.17-.24-.01-.07.08-.15.09-.21h0c.07-.07.02-.17-.05-.24h.02s0-.14-.08-.2c.08-.11.42-.04.28-.16,0-.11-.21-.17-.28-.13.07-.2-.12-.43.05-.62-.05-.03-.07,0-.1-.07.04-.3-.14-.62.07-.87.05.08.11,0,.17,0-.1-.07.1-.09-.07-.11-.1,0-.15,0-.19.09-.06-.18-.07-.44.02-.55-.05.05-.08.01-.11-.02.16,0,.18-.12.12-.22h-.1s.1-.08.1-.08c-.03-.04-.21-.04-.12-.14.04,0,.08-.01.1-.03-.08-.1-.22-.24-.14-.35l.14-.1s-.11-.12-.14-.04c.08-.19.08-.32.2-.38-.31-.31-.35-.79-.34-1.17h.07c.06-.1-.13-.04-.08-.11.07.03.15-.08.24,0,.07-.15-.14-.18-.17-.28-.1,0,.07.07-.06.06-.04-.01.06-.21-.08-.22.06-.04.16-.02.22,0l-.07-.09c.16-.12.32.23.52.11l-.03-.08c.15-.09.18.21.22,0-.08-.09-.29-.15-.35-.07-.05-.18-.35-.07-.35-.27.08-.06.03.16.15.11.11-.1-.08-.19-.04-.27-.05.1-.2.02-.23-.03.06-.11.14.06.15-.09-.09-.02-.15-.15-.21-.03-.19-.04.05-.15-.11-.22.13-.05.32.13.38-.03-.13.03-.19-.19-.37-.09.03-.06.14-.08.22-.03.07-.09-.25-.2,0-.25l-.13-.02s.07-.07.14-.12c0-.08-.19-.24,0-.25-.02-.02-.02-.2-.16-.13-.08.12.11.12-.07.19.15-.09-.03-.16-.08-.22h.08c-.03-.05-.02-.14-.11-.16.05.03.1,0,.11-.02l-.12-.03c-.07-.15.2-.05.16-.2l.1.11s.09-.08.04-.15c-.11-.03-.24-.06-.32-.09-.05-.08.12-.05,0-.12l.13.1s.17-.08.16-.2c-.04-.07-.2-.17-.25-.06,0-.06.06-.14.14-.1-.04-.13-.11.02-.19-.08.07-.05.16-.2.26-.29l.19.11v-.08c.15.09.1-.06.26-.01.02-.05-.04-.12-.08-.16-.23.17-.34-.15-.56-.09-.07-.21.53-.17.17-.37-.05.04-.23-.05-.16.08.02-.13-.23-.08-.15-.24.1.11.22-.14.36.02-.07,0-.05.1-.03.12.08-.06.22,0,.21-.14-.03-.08-.04-.19-.15-.17-.13.01.02.12-.11.08-.05-.16.14-.2-.09-.25.02.1-.1.14-.19.14l-.06-.12.09.02c.05-.2-.16-.05-.15-.24l.16-.1c.15.03-.05.28.18.23,0-.12-.12-.15-.07-.27.02.02.03.06.05.08,0-.04.31-.11.12-.27-.08-.08-.08-.02-.17-.01-.04-.19-.13-.25-.16-.37.17.01,0-.22.18-.1-.09.07-.07.35.1.41.2-.08-.02.16.19.18,0-.16.19-.16.32-.2,0-.04-.05-.08-.07-.11-.12,0-.12.05-.24.06.02-.18-.06-.34-.18-.43.06-.06.18-.05.2.02-.05-.21-.05-.43-.03-.63-.19.14-.06-.22-.22-.12-.04.11-.17.21-.27.16,0-.07.09,0,.13-.04-.12-.08.16-.14-.01-.21.08.18.25.02.4.04-.1-.13.11,0,.1-.14-.1-.13-.18-.29-.22-.44.13-.2-.03-.48-.05-.65.07-.1.25-.05.28-.15-.01-.11-.18.1-.12-.08h.04s.1-.3-.16-.33l.2.04s-.03-.06-.05-.08c.06,0,.12-.05.16,0,.12-.11-.04-.22-.05-.33l-.11.08c-.1-.19,0-.32-.06-.51h.11s-.08-.11-.08-.11c.11.02.17-.09.07-.14l.3.27c-.06.09-.14-.08-.25-.02-.09.05-.05.22.06.24,0-.07-.02-.07-.06-.12.15-.03.15.07.26.11,0-.03.03-.09-.02-.09.08.06.1.13.11.24-.07-.07-.09.05-.14.02.14,0,.19.1.16.25-.15.11.12.26.09.42-.14-.05-.26-.13-.32-.22-.06.11.01.11-.05.22.11.04.27.06.34.19l-.1.02c.06.12.21.1.2.26-.03.27,0,.54,0,.74l-.1.02c.22.1.11.37.22.51-.08.26.14.55-.03.69.11.45.21.84.21,1.31l-.15-.07c.11.08-.08.06-.05.14.11-.1.16.1.25.16-.1.22.04.48.16.65h-.1c.2.19.05.42.03.66-.04.03-.13.08-.12.15.17.12.16.18.28.36,0,.14-.02.36-.08.5.26.5.14,1.03.3,1.55l-.12.04c.28.5.07,1.15.22,1.58l-.21-.03c-.06.14.07.31.21.27-.06.14.11.34-.05.43-.03.14.1.17.13.29-.07.29-.05.39,0,.66v-.07s-.12-.03-.13.04c.06.1-.04.37.2.26-.13.29.13.66-.05.94.07-.03.08.04.13.07,0,.25-.12.52,0,.71-.03.04-.11-.06-.12.04.03.06.09,0,.13.07.13.4-.12.82-.09,1.19.14.66.05,1.34.07,1.97h-.05c.19.21-.2.48.07.66-.05.05-.03.19-.12.15.13.17-.14.47.02.72,0-.02,0-.04-.02-.06-.12.24.02.47-.09.72-.02-.03-.03-.08-.08-.09-.1.09.19.25-.05.29,0,.06.11.05.11.01-.13.57-.02,1.19,0,1.75-.17.4-.4,0-.24.33-.05.02.09.02.04.03.06.13-.28.18-.16.28.15-.03.08.06.17.07-.1.25-.23.29-.13.5l-.08-.02c.21.24.08.51.33.71.02,1.29.18,2.52.25,3.78,0,1.25.17,2.46.12,3.74-.18.31-.17.33-.07.65-.03-.01-.04-.03-.07,0,.16,0,.03.23.19.25,0,.47.08.9.12,1.38-.02-.07-.16-.1-.14-.01l.11.09-.04.02c.03.06.12.12.16.05.24,1.2.02,2.42.18,3.6-.04.29.06.68.13.98-.12.93-.2,1.77.06,2.66,0,0-.44-.06-.58-.43Z"/>
    <path class="cls-1" d="M47.16,27.62c-.08.04-.11.15-.23.07.08-.02.16-.08.23-.07Z"/>
    <path class="cls-1" d="M46.55,30.52s-.03.04-.04.05c0-.03-.08-.06-.04-.09,0,.03.05.03.08.04Z"/>
    <path class="cls-1" d="M46.55,31.24c-.07,0-.14-.16-.16-.25l.16.25Z"/>
    <path class="cls-1" d="M46.3,31.94c-.06.06-.09.05-.1-.03.04,0,.06.02.1.03Z"/>
    <path class="cls-1" d="M46.47,31.97c0,.06-.04.09-.08.12.06,0-.05-.13.08-.12Z"/>
    <path class="cls-1" d="M46.35,33.45s.07.11,0,.14c.05-.04-.1-.17,0-.14Z"/>
    <path class="cls-1" d="M46.51,34.12s-.02.03,0,.06c-.03.04-.09,0-.1-.03l.09-.03Z"/>
    <polygon class="cls-1" points="47.08 46.48 47.05 46.4 47.12 46.41 47.08 46.48"/>
    <path class="cls-1" d="M46.81,51.93c.05.07-.07.05-.08.06,0-.07.09.03.08-.06Z"/>
    <polygon class="cls-1" points="47.21 54.88 47.2 54.86 47.35 54.86 47.21 54.88"/>
  </g>
  <g>
    <path class="cls-1" d="M38.7,55.99c-.08,0-.02.14-.06.04.03-.05.06-.09.06-.04Z"/>
    <path class="cls-1" d="M57.2,56.16c-.03.45-.48.22-.6.56-.02.03-.08-.2-.12-.13-.1.38-.52.4-.89.25v-.06c-.07-.02-.07.19-.13.18-.01-.04,0-.06-.03-.11.03.12-.08.09-.07.18-.04-.04-.07-.13-.12-.17v.14c.04.35-.21.05-.28.26,0-.03,0-.06-.02-.09-.13.26-.4.31-.6.46,0-.05-.02-.14-.05-.19.03.15-.03.2-.09.24-.07-.14-.07.16-.16.09v-.03c-.02.17-.1-.07-.1.13l-.06-.11c.03.21-.1-.09-.12.03v.04c-.02.06-.06-.04-.09,0v-.02c-.09.08-.17-.03-.13.13-.06-.12.07-.08-.02-.26-.26.23-.57.28-.87.34-.05-.06-.07-.08-.09-.14-.02.04-.11.05-.12.13,0,0-.03-.08-.05-.09-.07-.05-.03.19-.1.12.02-.05.02-.1,0-.16-.03.14-.1.13-.16.18,0-.03.02-.05,0-.1-.04.16-.13-.01-.17.09v-.1c-.1-.1,0,.2-.08.15.02-.03,0-.07,0-.11-.05.19-.18.14-.25.21,0-.01,0-.04,0-.04-.08.03-.17,0-.26.08-.04-.04-.02-.24-.1-.19.02.19-.14.1-.07.31-.08-.02-.21-.08-.25-.01.03-.08-.06-.24,0-.26l-.06-.11c0-.08.05.02.03-.08-.03,0-.11.09-.14.06-.05.12-.08.35-.18.38.04-.08-.04-.21-.01-.25l-.1.38s-.02-.15-.06-.1c0,.05-.01.08-.02.13-.01-.02-.13.06-.15-.13-.02-.07.05-.04.01-.11-.06,0-.06.07-.11.08v-.03s-.11.09-.06.19c.03,0-.02-.11.03-.06-.02.11-.09.15-.15.15.02-.03.01-.08.02-.14-.07.16-.15.21-.24.28,0,.09.03-.17.04-.12-.12-.12-.23.19-.33.01.02-.02.01.13,0,.1-.05-.01-.06-.14-.09-.09,0-.08-.04.02-.08.05-.02.06-.01-.04.02-.05-.05.07-.25.18-.37.07,0,.05-.07.19-.1.18v-.12c-.01-.07-.08,0-.08-.09-.06.15.22-.12.14-.01-.02-.1-.11.19-.09.03-.05,0-.11.14-.16.03.02.02.05-.17,0-.16-.08.02-.02.06-.09.1l-.04.05c0,.12-.07-.02-.04.11,0-.1-.11.06-.1-.14v-.15s-.04.16-.07.23c0-.01-.01-.05,0-.07-.01.23-.08-.02-.12.16-.07-.08-.18,0-.21-.16-.06.07-.11.16-.17.1.01-.02.03-.03.04-.08-.04-.07-.05-.01-.08.02,0-.03-.07-.14-.11-.23-.06.07-.05.19-.05.27-.04-.23-.16.14-.21-.08.02-.03.08-.11.04-.17-.03-.23-.11.16-.18.05v.19c-.02-.12-.12.1-.1-.09-.03.07-.09-.07-.09.12-.12-.17-.32.07-.38-.27-.02.03-.06,0-.06.09.02.11.05-.07.05,0-.02,0-.03.06-.03.08-.04-.05-.07-.06-.02-.21-.08-.12-.12.31-.23.23.01-.08,0-.11-.03-.1l-.08.13c-.07-.04-.02-.18-.01-.31-.04.02-.09,0-.12.1l-.03-.17c.02.12-.04.07-.06.1l.02-.03c0-.06-.05-.03-.07-.01,0,.08.04.12.06.15-.03.05-.06.04-.09.1.02-.13-.05-.1-.08-.12-.03-.03-.05.11-.06.1,0-.07-.06-.02-.02-.11.01-.02.02.07.05.01-.02-.05,0-.17-.06-.09-.04.06-.02.25-.08.16.02-.03.03-.08.05-.12l-.06-.07-.02.12s0-.04,0-.06c-.03.12-.1.03-.14.16-.03,0-.06-.09-.09-.11h0c-.03-.08-.09-.04-.13.03v-.03s-.07,0-.1.07c-.04-.09.04-.44-.04-.3-.05,0-.11.2-.1.28-.09-.09-.22.08-.29-.11-.02.04-.02.08-.05.1-.13-.07-.32.08-.4-.16.05-.04.02-.11.03-.18-.05.1-.02-.11-.06.06-.01.1-.03.15,0,.2-.09.04-.22.02-.25-.09.02.05,0,.08-.03.11.04-.16-.02-.2-.08-.15l-.02.1v-.11s-.07.21-.1.1c0-.04,0-.08,0-.11-.06.07-.16.2-.2.11l-.02-.15s-.08.09-.05.14c-.07-.1-.13-.13-.13-.26-.21.28-.44.24-.62.18l.02-.07c-.03-.08-.05.13-.08.07.03-.07,0-.16.05-.24-.05-.09-.12.11-.17.14-.03.1.05-.06.01.07-.02.03-.08-.1-.12.05,0-.06.03-.17.06-.23l-.06.06c-.01-.19.19-.29.18-.51l-.04.02c0-.16.14-.15.06-.23-.06.06-.14.27-.12.35-.1.02-.12.35-.21.31,0-.09.08,0,.09-.13-.02-.13-.1.05-.13,0,.03.07-.04.21-.08.23-.03-.08.06-.13,0-.16-.03.08-.11.13-.07.21-.07.19-.06-.07-.13.07.01-.14.15-.3.09-.39-.02.14-.13.16-.14.36-.02-.05,0-.15.04-.23-.02-.09-.16.21-.11-.05l-.05.13s0-.08-.02-.16c-.04-.01-.16.15-.11-.05-.02.02-.1-.01-.1.14.03.1.09-.09.07.11,0-.16-.08,0-.12.04v-.08s-.05,0-.08.08c.03-.04.03-.1.02-.12l-.05.11c-.09.04.04-.21-.04-.2l.08-.08s-.01-.1-.06-.07c-.05.1-.1.23-.13.31-.05.04.01-.13-.05-.03l.09-.12s.01-.19-.04-.2c-.04.03-.14.17-.1.25-.03,0-.05-.08,0-.15-.07.02-.02.12-.09.17,0-.08-.04-.2-.05-.31l.1-.17h-.04c.09-.14,0-.13.07-.27-.02-.03-.06.01-.1.05,0,.27-.17.31-.21.54-.12.03.09-.56-.11-.24,0,.06-.1.22-.02.17-.05-.04-.11.21-.15.1.08-.08,0-.24.12-.35-.03.07.03.07.04.05,0-.09.07-.22,0-.24-.04.01-.1,0-.12.12-.04.13.06,0,0,.13-.09.02-.05-.18-.14.04.05,0,.03.13,0,.22l-.07.04.04-.08c-.07-.09-.07.15-.15.1v-.18c.07-.14.12.1.17-.14-.05-.03-.11.09-.14.01.02-.02.04-.02.05-.04-.02-.01.05-.33-.08-.17-.06.06-.04.08-.06.17-.1,0-.15.08-.22.08.06-.17-.1-.05.02-.2,0,.11.13.14.22-.02.03-.21.06.05.14-.15-.07-.03,0-.22.02-.36-.02-.01-.05.03-.07.05-.05.12-.02.13-.06.25-.07-.06-.17-.01-.25.09,0-.07.04-.19.07-.19-.11,0-.2-.04-.28-.11,0,.22-.12.01-.13.19.03.06.03.22-.03.3-.03-.02.03-.09.03-.13-.07.1,0-.19-.1-.03.11-.04.1-.24.16-.39-.09.07.04-.11-.02-.13-.09.07-.19.11-.27.12-.04-.17-.22-.08-.3-.1-.01-.09.08-.26.04-.3-.05-.01-.03.2-.08.1l.02-.03s-.1-.17-.21.08l.09-.18s-.04.02-.06.03c.02-.06.03-.12.06-.16,0-.15-.1-.01-.16-.03v.12c-.13.06-.14-.08-.24-.07l.04-.11-.07.05c.05-.1.03-.19-.03-.11l.23-.22c.01.08-.09.12-.11.23-.02.1.07.1.12,0-.02-.02-.04,0-.07.03.05-.16.09-.13.15-.23-.02,0-.02-.05-.04,0,.06-.06.09-.06.14-.05-.06.05-.02.1-.05.14.05-.13.12-.16.16-.1-.01.17.15-.06.21,0-.08.13-.15.22-.22.26.02.08.05.01.07.1.06-.09.13-.24.21-.29l-.03.1c.07-.03.12-.18.18-.13.1.09.22.13.3.17l-.03.1c.12-.2.19-.03.29-.1.08.13.28-.02.28.17.23-.02.42-.04.62.05l-.08.14c.07-.1,0,.09.04.08,0-.13.1-.14.15-.22.06.14.22.05.33-.03l-.02.1c.14-.17.19.02.29.08,0,.05,0,.15.03.14.1-.15.13-.13.24-.22.06.02.15.08.19.16.28-.17.48.02.75-.07v.13c.28-.21.51.09.74,0l-.06.21c.05.08.15-.03.17-.18.05.08.17-.08.18.1.06.05.1-.08.15-.1.11.1.16.09.29.07l-.03-.02s-.04.13,0,.15c.05-.05.16.09.15-.17.1.17.32-.07.41.15,0-.07.03-.08.05-.12.11.01.21.17.32.06.01.04-.04.11,0,.13.03-.02.01-.09.05-.12.2-.11.35.18.52.17.31-.09.61,0,.9,0v.05c.1-.19.2.22.3-.07.02.05.08.03.06.13.08-.13.2.15.32-.02,0,0-.02,0-.03.03.1.12.21-.03.32.08-.01.02-.04.04-.04.09.04.1.12-.21.13.04.03,0,.02-.12,0-.12.25.1.53-.06.8-.11.19.15.01.42.16.23.01.05,0-.09.01-.04.06-.07.09.28.13.15-.02-.15.03-.08.03-.18.12.1.14.24.23.12v.08c.1-.22.23-.11.31-.38.59-.1,1.14-.23,1.7-.35.56-.04,1.09-.19,1.66-.21.17.18.18.17.31.05,0,.03,0,.04.01.07-.03-.17.1-.04.07-.2.21-.02.39-.1.6-.15-.03.03,0,.17.03.15v-.12s.03.04.03.04c.02-.03.02-.12-.02-.17.46-.32,1.07-.15,1.56-.37.14.01.28-.12.39-.21.46.04.88.05,1.19-.27,0,0,.16.41.05.58Z"/>
    <path class="cls-1" d="M38.79,56c-.02.09.01.15-.07.24.03-.08.03-.17.07-.24Z"/>
    <path class="cls-1" d="M39.75,57.28s0,.04,0,.05c-.02,0-.06.06-.05.02.02,0,.03-.04.05-.07Z"/>
    <path class="cls-1" d="M40.07,57.44c-.03.07-.12.11-.16.1l.16-.1Z"/>
    <path class="cls-1" d="M40.29,57.84c0,.07,0,.1-.05.09,0-.04.03-.06.05-.09Z"/>
    <path class="cls-1" d="M40.36,57.68s.03.05.03.1c.02-.06-.07.02-.03-.1Z"/>
    <path class="cls-1" d="M40.99,58.09s.07-.05.06.03c0-.06-.11.07-.06-.03Z"/>
    <path class="cls-1" d="M41.34,58.06s0,.02.03,0c.01.04-.02.09-.04.09l.02-.1Z"/>
    <polygon class="cls-1" points="47.29 58.73 47.26 58.77 47.27 58.69 47.29 58.73"/>
    <path class="cls-1" d="M49.92,58.76c.03-.05.03.07.03.08-.03,0,0-.1-.03-.08Z"/>
    <polygon class="cls-1" points="51.29 58.27 51.28 58.28 51.27 58.12 51.29 58.27"/>
  </g>
  <g>
    <path class="cls-1" d="M39.8,62.57c-.07,0-.03.14-.06.04.04-.05.07-.09.06-.04Z"/>
    <path class="cls-1" d="M57.22,62.33c-.04.46-.47.18-.59.51-.02.03-.08-.21-.12-.14-.1.38-.51.34-.85.22v-.07c-.07-.02-.06.2-.12.19-.01-.04,0-.06-.03-.11.03.12-.08.09-.07.18-.04-.04-.07-.13-.11-.18l.02.15c.03.35-.22.04-.28.25,0-.03,0-.06-.02-.09-.12.26-.37.3-.56.44,0-.05-.03-.14-.05-.19.03.15-.02.21-.07.25-.07-.14-.06.17-.15.11v-.04c0,.17-.1-.07-.09.13l-.06-.11c.04.22-.1-.09-.11.03v.04c-.01.06-.06-.04-.09,0v-.02c-.08.08-.16-.03-.12.13-.06-.13.07-.08-.03-.26-.23.24-.53.27-.82.34-.05-.06-.07-.08-.09-.14-.02.04-.1.06-.11.15,0,0-.04-.08-.05-.09-.06-.05-.02.2-.09.14.01-.05,0-.11-.01-.17-.02.14-.09.14-.14.19,0-.03.01-.05,0-.1-.03.16-.12,0-.15.1v-.1c-.11-.1.02.21-.07.16.01-.03,0-.07,0-.11-.04.19-.17.15-.23.22,0-.01,0-.04,0-.04-.07.03-.17,0-.24.08-.04-.04-.03-.24-.11-.19.04.2-.13.1-.04.32-.08-.02-.2-.08-.24,0,.02-.08-.07-.23-.01-.26l-.06-.11c0-.08.05.02.02-.08-.03.01-.1.1-.13.08-.04.13-.05.36-.14.4.03-.08-.05-.21-.03-.25l-.07.4s-.03-.15-.06-.1c0,.05,0,.09-.01.13-.01-.02-.12.07-.15-.12-.02-.07.04-.05,0-.11-.05.01-.05.08-.1.09v-.03s-.1.09-.05.2c.03,0-.02-.12.02-.06-.01.11-.07.15-.13.16.02-.03,0-.08,0-.14-.06.16-.13.21-.21.28,0,.09.01-.17.03-.12-.12-.12-.2.2-.31.02.01-.02.02.13.02.1-.05,0-.06-.14-.09-.09,0-.08-.04.03-.07.06-.01.06-.01-.04.02-.05-.04.07-.23.21-.35.1,0,.05-.06.2-.08.19v-.12c-.03-.07-.08.02-.09-.09-.05.15.2-.14.14-.02-.03-.1-.09.2-.09.04-.05,0-.09.15-.15.04.02.02.03-.17,0-.16-.07.03-.02.06-.07.11l-.03.05c0,.12-.07-.01-.03.12-.01-.1-.1.07-.11-.13v-.16s-.04.16-.06.23c0-.01-.01-.05-.01-.07,0,.24-.08-.02-.11.17-.07-.08-.17,0-.21-.15-.05.07-.09.16-.15.11.01-.02.03-.03.03-.08-.04-.07-.05,0-.08.03,0-.04-.08-.14-.12-.22-.05.07-.03.2-.04.28-.05-.23-.14.15-.2-.06.02-.03.07-.12.03-.17-.05-.23-.09.17-.17.06l.02.19c-.03-.12-.11.11-.1-.08-.03.07-.09-.06-.08.13-.12-.16-.3.1-.37-.25-.02.03-.06,0-.06.09.03.11.04-.07.05,0-.02,0-.02.06-.02.08-.04-.05-.07-.06-.03-.22-.08-.12-.1.32-.2.24,0-.08,0-.11-.03-.1l-.07.13c-.07-.04-.03-.18-.03-.31-.04.02-.08.01-.11.11l-.04-.17c.03.12-.03.08-.05.11l.02-.03c0-.06-.05-.02-.07,0,0,.08.04.12.07.14-.02.06-.05.04-.08.11.02-.13-.06-.1-.08-.11-.03-.03-.05.11-.06.11,0-.07-.06-.01-.02-.11.01-.02.02.07.05,0-.02-.05,0-.17-.06-.09-.04.06,0,.26-.07.17.02-.03.03-.08.04-.13l-.06-.07v.12s-.01-.04-.01-.06c-.03.12-.1.03-.12.17-.03.01-.06-.09-.09-.1h0c-.03-.08-.08-.04-.12.04v-.03s-.06,0-.1.07c-.04-.1.02-.45-.05-.31-.05,0-.1.21-.09.29-.08-.09-.21.09-.28-.1-.02.05-.01.08-.04.1-.13-.06-.31.11-.38-.14.05-.05.02-.12.03-.19-.05.1-.02-.11-.06.07-.01.11-.02.16.01.21-.09.05-.21.03-.24-.07.02.05,0,.08-.03.11.03-.17-.03-.2-.08-.15l-.02.1v-.11s-.06.21-.09.11c0-.04,0-.08,0-.11-.06.08-.15.21-.18.11l-.02-.16s-.08.1-.04.15c-.07-.11-.13-.13-.13-.26-.2.29-.42.27-.59.21l.02-.08c-.03-.08-.05.13-.07.07.03-.07,0-.17.05-.25-.05-.09-.11.12-.16.14-.03.1.05-.06.01.07-.01.03-.08-.1-.12.05,0-.06.03-.17.05-.23l-.06.06c-.01-.19.18-.29.17-.52l-.04.02c0-.17.13-.16.05-.23-.05.07-.13.28-.11.35-.09.02-.12.35-.2.32,0-.1.08,0,.09-.13-.02-.13-.1.05-.13,0,.03.07-.04.21-.07.23-.03-.08.06-.14,0-.17-.03.09-.11.14-.07.21-.07.19-.06-.07-.13.08.01-.14.14-.31.09-.39-.02.14-.13.16-.14.37-.02-.05,0-.15.04-.23-.02-.09-.16.22-.11-.05l-.05.13s0-.08-.01-.16c-.03-.01-.16.16-.11-.05-.02.02-.09,0-.1.14.03.1.08-.09.06.11,0-.17-.08,0-.12.05l.02-.08s-.06,0-.09.08c.03-.04.03-.1.02-.12l-.05.12c-.09.04.04-.22-.04-.2l.08-.08s-.01-.1-.05-.07c-.04.11-.1.23-.13.32-.05.04.02-.13-.05-.03l.08-.12s.02-.19-.04-.2c-.04.03-.14.17-.1.25-.03,0-.04-.08,0-.16-.07.02-.02.12-.09.18,0-.08-.04-.2-.04-.32l.1-.17h-.03c.09-.15,0-.13.08-.28-.02-.03-.06.01-.09.05,0,.27-.17.32-.22.55-.11.03.1-.57-.1-.24,0,.06-.1.22-.02.17-.05-.04-.11.22-.15.1.08-.08.01-.24.13-.36-.03.07.02.07.04.05,0-.09.07-.23.01-.24-.04.01-.09,0-.12.12-.04.13.06,0,0,.13-.09.02-.04-.18-.14.04.05,0,.02.13,0,.22l-.07.04.04-.08c-.07-.09-.07.15-.15.1v-.18c.08-.14.12.1.17-.14-.05-.03-.11.09-.14,0,.02-.02.04-.02.05-.03-.02-.01.06-.33-.07-.18-.06.06-.04.08-.07.17-.1,0-.15.08-.21.07.07-.17-.09-.05.03-.21,0,.11.12.14.21-.01.04-.21.06.05.14-.15-.07-.03,0-.23.03-.36-.02-.02-.05.03-.07.05-.05.12-.02.13-.06.26-.06-.06-.16-.01-.24.09,0-.07.05-.19.08-.19-.1,0-.19-.04-.27-.11-.02.22-.11.01-.13.19.03.06.02.22-.04.3-.02-.02.03-.09.04-.13-.08.1,0-.2-.09-.04.11-.03.1-.24.18-.39-.09.07.04-.11-.01-.13-.09.07-.19.11-.27.12-.03-.18-.21-.08-.28-.1,0-.09.09-.26.06-.31-.05-.02-.04.2-.08.09l.02-.03s-.08-.17-.21.07l.1-.18s-.04.02-.06.03c.03-.06.03-.12.07-.16.01-.15-.1-.02-.15-.03l-.02.12c-.12.05-.12-.08-.22-.08l.05-.11-.08.04c.06-.1.05-.19-.02-.11l.24-.21c0,.08-.09.11-.12.23-.03.1.06.1.12,0-.02-.02-.03,0-.07.03.06-.15.1-.13.16-.22-.02,0-.02-.05-.04,0,.06-.06.09-.06.14-.05-.06.05-.02.1-.05.14.06-.13.12-.15.16-.09-.03.17.15-.05.19.01-.08.13-.16.22-.22.26.01.09.05.02.06.1.06-.09.14-.24.22-.28l-.04.1c.07-.03.13-.18.18-.13.09.09.2.13.28.18l-.03.1c.13-.2.18-.02.28-.1.07.13.26-.02.26.17.21-.02.4-.04.58.05l-.08.14c.07-.1,0,.09.04.08,0-.13.09-.14.15-.23.05.14.2.05.31-.04l-.03.11c.13-.17.18.02.27.08,0,.05,0,.15.02.15.1-.16.12-.14.23-.23.06.01.14.08.18.16.27-.19.45.01.71-.08v.13c.26-.23.48.06.69-.05l-.05.21c.05.08.14-.03.15-.19.05.08.16-.08.17.1.05.05.09-.09.14-.11.11.1.16.08.27.06l-.03-.02s-.03.14,0,.15c.05-.05.15.08.14-.19.1.16.29-.09.39.13,0-.07.03-.08.05-.13.1,0,.2.17.3.06.01.04-.04.12,0,.13.03-.02,0-.09.04-.13.18-.11.34.16.5.13.29-.12.57-.04.84-.05v.05c.09-.19.2.2.28-.1.02.05.08.02.06.12.07-.14.2.13.3-.05,0,0-.01,0-.03.03.1.11.2-.04.31.06-.01.02-.03.04-.03.09.04.1.1-.22.13.03.02,0,.01-.13,0-.12.24.1.5-.06.74-.15.19.14.04.42.17.22.01.05,0-.1,0-.05.05-.07.1.27.13.14-.03-.15.02-.09.01-.18.12.09.15.23.23.1v.08c.08-.24.21-.12.27-.39.55-.08,1.05-.34,1.58-.44.54-.02,1.01-.29,1.57-.27.18.18.19.17.3.06,0,.03,0,.04.01.07-.04-.17.09-.04.06-.2.2-.02.36-.13.56-.19-.03.03,0,.17.03.15v-.12s.03.04.03.04c.02-.03.02-.12-.02-.17.44-.31,1.05-.09,1.51-.34.14.02.27-.11.38-.19.45.07.86.11,1.16-.19,0,0,.14.43.02.59Z"/>
    <path class="cls-1" d="M39.88,62.59c-.03.08,0,.15-.09.24.03-.08.05-.17.09-.24Z"/>
    <path class="cls-1" d="M40.71,63.9s0,.04,0,.06c-.02,0-.06.06-.05.02.02,0,.03-.04.05-.07Z"/>
    <path class="cls-1" d="M41.01,64.06c-.03.07-.12.11-.16.1l.16-.1Z"/>
    <path class="cls-1" d="M41.2,64.47c0,.07-.01.1-.05.09.01-.04.03-.06.05-.09Z"/>
    <path class="cls-1" d="M41.28,64.3s.02.05.02.1c.02-.06-.07.02-.02-.1Z"/>
    <path class="cls-1" d="M41.87,64.72s.07-.05.06.03c0-.06-.1.07-.06-.03Z"/>
    <path class="cls-1" d="M42.21,64.69s0,.02.03,0c0,.04-.02.09-.04.09l.02-.1Z"/>
    <polygon class="cls-1" points="47.9 65.12 47.87 65.16 47.88 65.08 47.9 65.12"/>
    <path class="cls-1" d="M50.39,64.99c.03-.05.03.07.04.08-.03.01,0-.1-.04-.08Z"/>
    <polygon class="cls-1" points="51.65 64.41 51.64 64.42 51.61 64.26 51.65 64.41"/>
  </g>
  <g>
    <path class="cls-1" d="M39.41,33.16c-.07,0-.02.13-.06.03.03-.05.06-.08.06-.03Z"/>
    <path class="cls-1" d="M55.83,33.32c0,.42-.42.22-.51.53-.02.03-.09-.19-.12-.12-.07.35-.44.39-.78.26v-.06c-.07-.02-.05.18-.11.17-.02-.04,0-.06-.04-.1.03.11-.07.08-.06.17-.04-.04-.07-.12-.11-.16l.02.13c.04.32-.2.05-.25.25,0-.03,0-.06-.02-.08-.11.25-.34.3-.52.44,0-.05-.03-.13-.05-.18.03.14-.02.19-.07.23-.07-.13-.06.15-.14.09v-.03c0,.16-.1-.07-.09.12l-.06-.1c.03.2-.1-.08-.11.03v.04c-.01.06-.06-.04-.08,0v-.02c-.08.07-.15-.02-.11.13-.06-.12.06-.08-.03-.24-.22.23-.51.27-.77.34-.04-.06-.07-.07-.09-.13-.02.04-.1.04-.11.13,0,0-.03-.08-.05-.08-.06-.05-.02.18-.09.12.01-.04.01-.1,0-.15-.02.13-.09.12-.14.17,0-.03.01-.05,0-.09-.04.15-.11-.01-.15.08v-.09c-.1-.1.01.19-.07.14.01-.03,0-.07,0-.1-.04.18-.16.14-.22.2,0-.01,0-.04,0-.04-.07.03-.16,0-.23.08-.03-.04-.02-.22-.09-.18.03.18-.12.1-.05.3-.07-.02-.19-.07-.22,0,.02-.07-.06-.22,0-.24l-.05-.11c0-.08.05.02.02-.07-.03,0-.1.09-.13.06-.04.12-.07.33-.15.36.03-.07-.04-.2-.02-.23l-.09.36s-.02-.14-.05-.09c0,.05,0,.08-.02.12-.01-.02-.12.05-.14-.13-.02-.07.04-.04,0-.1-.05,0-.05.07-.1.07v-.02s-.1.08-.06.18c.02,0-.02-.11.02-.06-.02.11-.08.14-.13.15.02-.03.01-.08.02-.13-.06.15-.14.2-.21.26,0,.09.02-.16.04-.11-.11-.11-.2.18-.29.01.01-.02.01.12,0,.1-.05,0-.05-.14-.08-.09,0-.07-.04.02-.07.04-.02.05,0-.04.02-.04-.04.06-.23.17-.33.06,0,.05-.07.18-.09.17v-.11c-.01-.07-.07,0-.08-.09-.05.14.2-.11.13,0-.02-.09-.1.18-.08.03-.05,0-.1.13-.14.02.01.02.04-.16,0-.15-.07.02-.02.05-.08.09l-.04.05c0,.11-.06-.02-.04.11,0-.09-.1.05-.09-.13v-.14s-.04.15-.07.21c0-.01-.01-.04,0-.07-.01.22-.07-.02-.11.15-.06-.08-.16,0-.19-.15-.05.07-.1.15-.15.09.01-.02.03-.02.03-.07-.03-.07-.04-.01-.08.02,0-.03-.06-.13-.1-.22-.05.06-.04.18-.05.25-.03-.22-.14.13-.19-.07.02-.03.08-.1.04-.16-.03-.22-.1.15-.16.04v.18c-.02-.11-.11.1-.09-.09-.03.06-.08-.07-.09.11-.1-.16-.29.07-.33-.25-.02.03-.06,0-.06.09.02.1.05-.07.05,0-.02,0-.02.05-.03.08-.03-.04-.06-.06-.01-.2-.07-.11-.11.29-.21.21.01-.07,0-.1-.02-.09l-.07.12c-.06-.04-.02-.17,0-.29-.04.02-.08,0-.11.09l-.02-.16c.02.12-.04.07-.06.1l.02-.03c0-.05-.04-.03-.07-.01,0,.08.03.11.05.14-.02.05-.05.03-.08.09.02-.12-.05-.09-.07-.11-.03-.03-.05.1-.06.1,0-.06-.05-.02-.01-.1.01-.02.02.06.04.01-.02-.05,0-.16-.05-.08-.04.05-.02.24-.08.15.02-.03.03-.08.05-.12l-.05-.07-.02.11s0-.04,0-.05c-.03.11-.09.02-.13.15-.03,0-.05-.08-.08-.1h0c-.03-.08-.08-.04-.12.03v-.02s-.06,0-.09.06c-.04-.09.05-.41-.03-.28-.05,0-.11.19-.1.26-.08-.09-.2.08-.26-.1-.02.04-.02.07-.05.09-.12-.07-.29.08-.35-.16.05-.04.02-.11.03-.17-.05.09-.02-.11-.06.06-.02.1-.03.15,0,.19-.09.04-.2.02-.23-.08.01.05-.01.08-.03.1.04-.15-.01-.19-.07-.14l-.03.09v-.1s-.07.2-.09.1c0-.04.01-.07,0-.1-.06.07-.15.19-.18.1v-.15s-.08.09-.06.13c-.06-.1-.11-.12-.11-.24-.2.26-.41.22-.56.16l.02-.07c-.03-.08-.05.12-.07.06.03-.06,0-.15.06-.23-.04-.09-.11.1-.16.12-.03.09.05-.05.01.06-.02.03-.07-.09-.11.04,0-.06.04-.16.06-.21l-.05.06c0-.17.18-.27.18-.48h-.04c0-.14.13-.13.06-.2-.05.06-.14.25-.12.32-.09.02-.12.32-.2.29,0-.09.07,0,.09-.12-.01-.12-.1.04-.12,0,.03.06-.04.2-.08.21-.03-.08.06-.13,0-.15-.03.08-.1.12-.07.19-.07.18-.05-.07-.12.07.01-.13.14-.28.09-.36-.02.13-.13.14-.14.34-.02-.04,0-.14.05-.21-.02-.09-.15.2-.1-.05l-.05.12s0-.08,0-.15c-.03-.01-.15.14-.1-.05-.02.02-.09-.01-.1.13.02.09.08-.08.06.1,0-.15-.07,0-.11.04l.02-.07s-.06,0-.09.07c.02-.04.03-.09.02-.11l-.05.11c-.08.04.04-.2-.03-.19l.07-.07s0-.09-.05-.07c-.04.1-.1.21-.13.29-.05.03.02-.12-.05-.03l.08-.11s.02-.18-.03-.19c-.04.03-.13.16-.1.23-.02,0-.04-.08,0-.15-.06.02-.03.11-.09.16,0-.07-.03-.19-.03-.3l.1-.16h-.03c.08-.13.01-.12.08-.26-.01-.03-.06.01-.09.04,0,.25-.17.29-.22.5-.11.03.11-.53-.09-.23,0,.06-.1.2-.02.16-.05-.04-.1.2-.14.09.08-.07.02-.23.13-.33-.03.07.02.07.04.05,0-.09.07-.21.02-.23-.04,0-.09,0-.12.11-.04.12.06,0,0,.12-.08.02-.03-.17-.13.04.05,0,.02.12,0,.21l-.07.03.04-.08c-.06-.08-.07.14-.14.09l.02-.17c.06-.13.09.1.15-.13-.05-.03-.1.08-.13,0,.02-.02.03-.02.05-.03-.02-.01.06-.31-.06-.16-.06.05-.04.07-.06.16-.09,0-.14.07-.2.07.07-.16-.09-.05.03-.19,0,.1.11.13.19-.01.03-.2.05.05.14-.14-.06-.03,0-.21.03-.34-.01-.01-.05.03-.07.05-.05.11-.02.12-.06.24-.06-.05-.15-.01-.23.08,0-.07.04-.18.08-.18-.1,0-.18-.05-.25-.11-.02.2-.11.01-.13.18.03.06.02.2-.04.28-.02-.02.03-.08.03-.12-.07.09,0-.18-.09-.03.1-.03.1-.22.17-.36-.09.06.04-.1-.01-.12-.08.06-.18.1-.25.11-.03-.16-.19-.08-.26-.1,0-.09.08-.24.05-.28-.05-.01-.04.19-.07.09l.02-.03s-.08-.16-.19.07l.09-.17s-.03.01-.05.03c.02-.06.03-.12.06-.14,0-.14-.09-.01-.14-.03v.11c-.12.05-.13-.08-.22-.07l.05-.1-.07.04c.05-.09.04-.17-.02-.1l.22-.2c0,.07-.09.11-.11.22-.02.09.06.1.11,0-.02-.02-.03,0-.07.03.05-.14.09-.12.15-.21-.02,0-.02-.05-.04,0,.06-.06.09-.06.13-.04-.05.04-.02.09-.05.13.06-.12.11-.14.15-.09-.02.16.14-.05.19.01-.08.12-.15.2-.21.24.01.08.05.01.06.09.06-.09.13-.23.2-.26l-.03.09c.07-.03.12-.17.17-.12.08.09.19.12.26.16l-.03.1c.12-.19.17-.02.26-.09.07.13.25,0,.24.17.2-.01.38-.03.56.06l-.08.13c.07-.09,0,.09.04.08,0-.12.09-.13.14-.21.05.14.19.05.29-.03l-.03.1c.13-.16.17.02.25.08,0,.04-.01.14.02.14.1-.14.12-.12.22-.2.05.02.13.08.17.16.26-.16.43.03.68-.05v.12c.25-.2.45.09.65,0l-.06.19c.04.07.14-.03.15-.17.04.07.16-.07.16.1.05.05.09-.08.14-.1.1.1.14.09.26.07l-.02-.02s-.04.13-.01.14c.05-.05.14.08.14-.16.09.16.28-.06.36.15,0-.07.03-.07.05-.12.1.01.18.16.28.06.01.03-.04.11,0,.12.03-.02.01-.08.05-.12.18-.1.31.17.46.16.28-.08.54.01.8,0v.05c.09-.18.18.2.27-.07.02.05.07.03.05.12.08-.12.18.14.29-.02,0,0-.01,0-.03.02.09.11.19-.02.29.08-.01.02-.03.03-.04.08.04.1.1-.2.12.03.02,0,.02-.12,0-.11.22.09.47-.05.71-.1.17.14,0,.39.14.22.01.05,0-.09,0-.04.05-.06.08.26.12.14-.02-.14.02-.08.02-.17.1.09.13.22.21.12v.08c.09-.21.2-.11.27-.36.52-.1,1.01-.21,1.5-.34.5-.04.96-.19,1.47-.21.16.16.17.16.28.04,0,.03,0,.04.01.07-.03-.16.09-.04.06-.19.19-.02.34-.1.53-.15-.02.02,0,.15.03.14v-.11s.02.04.02.04c.02-.03.02-.12-.02-.16.39-.3.95-.16,1.37-.37.13,0,.24-.12.33-.21.41.03.8.02,1.05-.28,0,0,.17.38.08.54Z"/>
    <path class="cls-1" d="M39.48,33.17c-.02.08,0,.14-.07.22.03-.07.04-.16.07-.22Z"/>
    <path class="cls-1" d="M40.29,34.39s0,.04,0,.05c-.02,0-.05.06-.05.02.02,0,.03-.04.05-.07Z"/>
    <path class="cls-1" d="M40.57,34.54c-.03.07-.11.1-.15.09l.15-.09Z"/>
    <path class="cls-1" d="M40.75,34.92c0,.07-.01.1-.04.08.01-.04.03-.05.04-.08Z"/>
    <path class="cls-1" d="M40.82,34.77s.02.05.02.09c.02-.06-.07.02-.02-.09Z"/>
    <path class="cls-1" d="M41.36,35.17s.07-.05.06.03c0-.06-.1.07-.06-.03Z"/>
    <path class="cls-1" d="M41.68,35.15s0,.02.02,0c0,.04-.03.08-.04.08l.02-.09Z"/>
    <polygon class="cls-1" points="47.03 35.85 46.99 35.88 47 35.81 47.03 35.85"/>
    <path class="cls-1" d="M49.39,35.87s.03.07.03.08c-.03,0,0-.09-.03-.08Z"/>
    <polygon class="cls-1" points="50.61 35.41 50.61 35.41 50.59 35.26 50.61 35.41"/>
  </g>
  <g>
    <path class="cls-1" d="M39.76,39.72c-.07,0-.03.13-.06.03.04-.05.07-.09.06-.03Z"/>
    <path class="cls-1" d="M56.58,39.48c-.03.45-.45.18-.56.51-.02.03-.08-.2-.11-.13-.09.37-.49.34-.82.22v-.06c-.07-.02-.05.2-.12.18-.01-.04,0-.06-.04-.11.03.12-.07.08-.06.18-.04-.04-.07-.13-.11-.17l.02.14c.03.34-.21.04-.26.24,0-.03,0-.06-.02-.09-.12.25-.36.29-.54.43,0-.05-.03-.14-.05-.19.03.15-.02.2-.06.25-.07-.14-.05.16-.14.1v-.03c0,.17-.1-.07-.09.13l-.06-.11c.04.21-.1-.08-.11.03v.04c0,.06-.06-.04-.08,0v-.02c-.08.07-.16-.03-.11.13-.06-.12.06-.08-.03-.26-.22.23-.51.27-.79.34-.05-.06-.07-.07-.09-.13-.02.04-.1.05-.1.14,0,0-.04-.08-.05-.08-.06-.05-.01.19-.08.13.01-.05,0-.1-.01-.16-.02.14-.08.13-.13.19,0-.03.01-.05,0-.1-.03.16-.12,0-.15.1v-.1c-.11-.1.02.21-.07.15.01-.03,0-.07,0-.11-.03.19-.16.15-.22.22,0-.01,0-.04,0-.04-.07.03-.16,0-.23.08-.04-.04-.03-.24-.1-.19.04.19-.12.1-.04.31-.07-.02-.19-.08-.23,0,.02-.08-.07-.23-.02-.26l-.06-.11c0-.08.05.02.02-.08-.03.01-.1.1-.13.07-.03.13-.05.35-.13.39.03-.08-.05-.21-.03-.25l-.07.39s-.03-.15-.06-.09c0,.05,0,.08-.01.13-.01-.02-.11.07-.15-.12-.02-.07.04-.05,0-.11-.05.01-.05.08-.1.09v-.03s-.1.09-.05.2c.03,0-.02-.11.02-.06-.01.11-.07.15-.12.16.01-.03,0-.08,0-.14-.05.16-.13.21-.2.28,0,.09.01-.17.03-.12-.12-.12-.2.2-.3.02.01-.02.02.13.02.1-.05,0-.06-.14-.09-.09,0-.08-.04.03-.07.05-.01.06-.01-.04.02-.05-.04.07-.22.2-.34.1,0,.05-.05.19-.08.19v-.12c-.03-.07-.08.02-.09-.09-.04.15.2-.14.13-.02-.02-.1-.09.2-.08.03-.05,0-.09.15-.14.04.02.02.03-.17,0-.16-.07.03-.02.06-.07.1l-.03.05c0,.12-.06-.01-.03.12-.01-.09-.1.07-.1-.13v-.15s-.04.16-.06.23c0-.01-.01-.04-.01-.07,0,.23-.07-.02-.1.16-.07-.08-.17,0-.2-.15-.05.07-.09.16-.15.11.01-.02.03-.03.03-.08-.04-.07-.04,0-.08.03,0-.04-.07-.14-.11-.22-.05.07-.03.2-.03.27-.05-.23-.14.15-.2-.06.02-.03.07-.11.03-.17-.04-.23-.09.17-.16.06l.02.19c-.03-.12-.11.11-.1-.08-.03.07-.08-.06-.08.12-.12-.15-.3.1-.36-.25-.02.03-.06,0-.05.09.03.11.04-.07.05,0-.02,0-.02.06-.02.08-.04-.04-.06-.06-.02-.21-.08-.12-.1.31-.2.23,0-.08,0-.11-.03-.1l-.06.13c-.07-.03-.03-.18-.03-.31-.04.02-.08.01-.1.11l-.03-.17c.03.12-.03.08-.05.11l.02-.03c0-.06-.05-.02-.07,0,0,.08.04.12.06.14-.02.06-.05.04-.08.11.02-.13-.05-.09-.08-.11-.03-.03-.04.11-.05.11,0-.07-.05-.01-.02-.11.01-.02.02.07.04,0-.02-.05,0-.17-.06-.08-.04.06,0,.25-.07.17.02-.03.03-.08.04-.13l-.06-.07v.12s-.01-.04-.01-.06c-.03.12-.1.03-.12.17-.03.01-.06-.08-.09-.1h0c-.03-.08-.08-.04-.12.04v-.03s-.06,0-.09.07c-.04-.09.02-.44-.04-.3-.05,0-.1.2-.09.28-.08-.09-.2.09-.27-.1-.02.05-.01.08-.04.1-.13-.06-.3.1-.37-.14.04-.04.02-.12.03-.18-.05.1-.02-.11-.06.06-.01.11-.02.16.01.2-.09.05-.21.03-.24-.07.01.05,0,.08-.03.11.03-.17-.02-.2-.08-.14l-.02.1v-.11s-.06.21-.09.1c0-.04,0-.08,0-.11-.06.07-.14.2-.18.11l-.02-.16s-.07.1-.04.14c-.07-.1-.12-.12-.12-.26-.2.29-.41.26-.58.21l.02-.07c-.03-.08-.05.13-.07.07.03-.07,0-.16.05-.24-.05-.09-.11.12-.16.14-.03.1.05-.06.01.07-.01.03-.07-.1-.11.05,0-.06.03-.17.05-.23l-.05.06c0-.19.17-.29.17-.51l-.04.02c0-.16.13-.15.05-.23-.05.06-.13.27-.11.35-.09.02-.12.35-.2.31,0-.09.07,0,.09-.13-.01-.13-.1.05-.12,0,.03.07-.04.21-.07.23-.03-.08.06-.13,0-.16-.03.08-.1.13-.07.21-.07.19-.05-.07-.12.07.01-.14.14-.3.09-.39-.02.14-.13.16-.14.36-.02-.04,0-.15.04-.23-.02-.09-.15.22-.1-.05l-.05.13s0-.08-.01-.16c-.03-.01-.16.16-.1-.05-.02.02-.09,0-.1.14.03.1.08-.09.06.11,0-.16-.08,0-.12.05l.02-.08s-.06,0-.09.08c.02-.04.03-.1.02-.12l-.05.11c-.08.04.04-.21-.04-.2l.07-.08s0-.1-.05-.07c-.04.1-.1.23-.13.31-.05.04.02-.13-.05-.03l.08-.12s.02-.19-.03-.2c-.04.03-.13.17-.1.24-.03,0-.04-.08,0-.15-.07.02-.03.12-.09.17,0-.08-.03-.2-.04-.31l.1-.17h-.03c.08-.14.01-.13.08-.27-.02-.03-.06.01-.09.05,0,.26-.17.31-.22.54-.11.03.11-.56-.09-.24,0,.06-.1.22-.02.17-.05-.04-.11.21-.15.1.08-.08.02-.24.13-.35-.03.07.02.07.04.05,0-.09.07-.22.02-.24-.04.01-.09,0-.12.12-.04.13.06,0,0,.12-.08.02-.04-.17-.14.04.05,0,.02.13,0,.22l-.07.04.04-.08c-.06-.09-.07.14-.15.09l.02-.18c.07-.14.1.1.16-.13-.05-.03-.1.08-.13,0,.02-.02.03-.02.05-.03-.02-.01.07-.33-.07-.17-.06.06-.04.08-.07.17-.09,0-.15.08-.21.07.07-.17-.09-.05.03-.2,0,.11.12.14.2-.01.04-.21.06.05.14-.15-.06-.03,0-.22.04-.36-.01-.02-.05.03-.07.05-.05.12-.02.13-.07.25-.06-.06-.16-.01-.24.09,0-.07.05-.19.08-.19-.1,0-.19-.04-.26-.11-.02.22-.11.01-.13.19.03.06.02.22-.04.3-.02-.02.03-.09.04-.13-.08.09,0-.19-.09-.04.1-.03.1-.23.18-.38-.09.06.04-.11-.01-.13-.09.06-.18.1-.26.11-.02-.18-.2-.08-.27-.1,0-.09.09-.25.06-.3-.05-.02-.04.2-.08.09l.02-.03s-.07-.17-.2.07l.1-.18s-.04.02-.05.03c.03-.06.04-.12.07-.15.01-.14-.1-.02-.14-.03l-.02.12c-.12.05-.12-.08-.21-.08l.05-.1-.07.04c.06-.1.05-.18-.01-.11l.24-.2c0,.08-.09.11-.12.22-.03.1.06.1.11,0-.02-.02-.03,0-.07.03.06-.15.1-.13.16-.22-.02,0-.01-.05-.04,0,.06-.06.09-.06.14-.04-.06.04-.03.1-.06.14.06-.13.12-.15.16-.09-.03.17.14-.05.19.02-.08.12-.16.21-.22.25.01.08.05.02.06.1.06-.09.14-.24.22-.28l-.04.1c.07-.03.13-.18.18-.13.08.09.19.13.26.17l-.03.1c.13-.2.18-.02.27-.1.07.13.26-.02.25.17.21-.02.39-.03.56.06l-.08.14c.07-.1,0,.09.04.08,0-.13.09-.14.14-.22.05.14.2.05.3-.04l-.03.1c.13-.17.17.02.26.08,0,.05,0,.15.02.14.1-.15.12-.14.22-.22.05.01.13.08.17.15.26-.19.44.01.68-.08v.13c.25-.22.46.06.67-.04l-.05.21c.05.08.14-.03.15-.18.05.07.16-.08.16.1.05.05.09-.08.14-.1.1.1.15.08.26.05l-.03-.02s-.03.14,0,.15c.05-.05.14.08.14-.18.1.16.28-.09.37.12,0-.07.03-.08.05-.13.1,0,.19.16.29.06.01.04-.04.11,0,.13.03-.02,0-.09.04-.13.18-.11.32.15.48.13.28-.12.55-.04.81-.04v.05c.09-.19.19.2.27-.09.02.05.08.02.06.12.07-.14.19.13.29-.05,0,0-.01,0-.02.03.1.11.19-.04.3.06-.01.02-.03.04-.03.09.04.1.09-.22.12.03.02,0,.01-.12,0-.12.24.09.48-.06.72-.15.18.13.04.41.16.22.01.05,0-.1,0-.04.05-.07.1.27.13.14-.03-.15.02-.09.01-.18.11.09.15.22.22.1v.08c.08-.23.2-.12.26-.39.53-.08,1.02-.34,1.52-.44.52-.02.97-.29,1.52-.27.17.17.18.17.29.05,0,.03,0,.04.01.07-.04-.17.09-.04.06-.2.2-.02.35-.13.54-.19-.02.03,0,.17.03.14v-.12s.03.04.03.04c.02-.03.02-.12-.02-.17.42-.31,1.02-.09,1.45-.34.13.02.26-.11.37-.19.43.07.83.1,1.12-.2,0,0,.14.42.03.58Z"/>
    <path class="cls-1" d="M39.83,39.74c-.03.08,0,.14-.09.23.03-.07.05-.17.09-.23Z"/>
    <path class="cls-1" d="M40.61,41.04s0,.04,0,.05c-.02,0-.06.06-.05.02.02,0,.03-.04.05-.07Z"/>
    <path class="cls-1" d="M40.9,41.2c-.03.07-.12.11-.16.1l.16-.1Z"/>
    <path class="cls-1" d="M41.09,41.59c0,.07-.01.1-.05.09.01-.04.03-.06.05-.09Z"/>
    <path class="cls-1" d="M41.16,41.44s.02.05.02.1c.02-.06-.07.02-.02-.1Z"/>
    <path class="cls-1" d="M41.73,41.85s.07-.05.06.03c0-.06-.1.07-.06-.03Z"/>
    <path class="cls-1" d="M42.06,41.82s0,.02.03,0c0,.04-.03.09-.04.09l.02-.1Z"/>
    <polygon class="cls-1" points="47.58 42.26 47.55 42.3 47.55 42.22 47.58 42.26"/>
    <path class="cls-1" d="M49.99,42.13c.03-.05.03.07.04.08-.03.01,0-.09-.04-.08Z"/>
    <polygon class="cls-1" points="51.21 41.56 51.2 41.56 51.17 41.41 51.21 41.56"/>
  </g>
  <g>
    <path class="cls-1" d="M40.95,47.94c-.06.01-.04.14-.06.04.03-.05.06-.09.06-.04Z"/>
    <path class="cls-1" d="M54.13,48.09c.05.44-.34.17-.38.48-.01.03-.09-.2-.11-.13-.02.36-.35.34-.64.18v-.06c-.07-.03-.03.18-.08.17-.02-.04,0-.06-.04-.11.04.12-.05.08-.03.18-.03-.04-.07-.13-.11-.18l.03.14c.06.35-.16.03-.19.23,0-.03,0-.06-.03-.09-.07.25-.26.28-.4.41,0-.05-.03-.14-.06-.19.04.15,0,.21-.03.25-.07-.15-.03.16-.11.09v-.03c0,.17-.09-.08-.07.12l-.06-.11c.04.22-.09-.1-.09.02v.04c0,.06-.05-.04-.07,0v-.02c-.06.07-.13-.04-.08.13-.06-.13.05-.08-.04-.26-.17.23-.4.25-.61.31-.04-.06-.06-.08-.08-.14-.01.04-.08.04-.08.13,0,0-.03-.08-.04-.09-.05-.06,0,.19-.07.12,0-.05,0-.1-.01-.17-.01.14-.07.12-.1.17,0-.03,0-.05,0-.1-.02.16-.09-.02-.12.08v-.1c-.09-.11.01.21-.06.15,0-.03,0-.07,0-.11-.03.19-.12.14-.17.21,0-.01,0-.04,0-.04-.06.03-.13-.01-.18.07-.03-.04-.02-.24-.08-.2.03.2-.1.1-.03.32-.06-.02-.15-.09-.18-.01.02-.08-.05-.24,0-.26l-.05-.12c0-.08.04.02.02-.08-.02.01-.08.09-.1.06-.03.12-.05.36-.11.39.03-.08-.04-.22-.02-.25l-.06.39s-.02-.16-.05-.1c0,.05,0,.09-.01.13-.01-.02-.09.06-.12-.14-.02-.08.03-.04,0-.11-.04,0-.04.07-.08.08v-.03s-.08.09-.04.2c.02,0-.01-.12.02-.06-.01.12-.06.15-.1.16.01-.03,0-.09.01-.14-.05.16-.11.21-.17.28,0,.09.02-.17.03-.12-.09-.12-.16.2-.24,0,.01-.02.01.13,0,.11-.04,0-.04-.15-.07-.09,0-.08-.03.03-.06.05-.01.06,0-.04.02-.05-.03.07-.18.19-.27.07,0,.05-.05.19-.07.19v-.12c-.01-.07-.06.01-.06-.1-.04.15.16-.13.11-.01-.02-.1-.08.2-.07.03-.04,0-.08.14-.12.03.01.02.03-.17,0-.16-.06.02-.02.06-.06.1l-.03.05c0,.12-.05-.02-.03.12,0-.1-.08.06-.07-.14v-.16s-.03.16-.05.23c0-.01,0-.05,0-.07,0,.24-.06-.02-.09.16-.05-.08-.13,0-.15-.16-.04.07-.08.16-.13.11.01-.02.02-.03.03-.08-.03-.07-.03,0-.06.03,0-.03-.05-.14-.08-.23-.04.07-.04.2-.04.28-.02-.24-.12.14-.15-.07.02-.03.06-.11.04-.17-.02-.24-.08.17-.13.05v.2c-.02-.12-.09.11-.07-.09-.02.07-.06-.07-.07.12-.08-.17-.24.08-.27-.27-.02.03-.05,0-.05.09.01.11.04-.07.04,0-.01,0-.02.06-.02.08-.03-.05-.05-.06,0-.22-.05-.12-.1.32-.18.24.01-.08,0-.11-.02-.1l-.06.13c-.05-.04-.01-.18,0-.32-.03.02-.07.01-.09.11l-.02-.17c.01.13-.03.08-.05.11l.02-.03c0-.06-.04-.03-.05-.01,0,.08.02.12.04.15-.02.06-.04.04-.07.11.02-.13-.04-.1-.06-.12-.02-.03-.04.11-.05.11,0-.07-.04-.02,0-.11.01-.02.01.07.03.01-.01-.05,0-.17-.04-.09-.04.06-.03.26-.07.17.02-.03.03-.08.04-.13l-.04-.07-.02.12s0-.04,0-.06c-.03.12-.08.03-.11.17-.03,0-.04-.09-.06-.11h0c-.02-.08-.06-.04-.1.03v-.03s-.05,0-.08.07c-.03-.1.05-.45-.01-.31-.04,0-.09.21-.09.29-.06-.09-.17.09-.21-.1-.02.05-.02.08-.04.1-.1-.06-.24.1-.28-.15.04-.04.02-.12.04-.19-.04.1,0-.12-.05.06-.02.11-.03.16,0,.21-.07.05-.17.03-.18-.08,0,.05-.01.08-.03.11.04-.17,0-.2-.05-.15l-.03.1v-.11s-.06.21-.07.11c0-.04.01-.08.01-.11-.05.08-.13.21-.15.12v-.16s-.07.1-.05.15c-.05-.1-.09-.12-.08-.26-.18.29-.35.26-.48.21l.02-.08c-.02-.08-.05.13-.06.07.03-.07.01-.17.06-.25-.03-.09-.1.12-.14.14-.03.1.04-.06,0,.07-.01.03-.05-.1-.1.05,0-.06.04-.17.06-.23l-.05.07c0-.19.16-.3.18-.53l-.03.02c.01-.17.12-.16.06-.23-.05.07-.13.28-.12.36-.07.03-.12.36-.19.33,0-.09.06,0,.08-.14,0-.13-.08.05-.1,0,.02.07-.05.21-.08.23-.02-.08.06-.14.01-.17-.03.09-.09.14-.07.21-.07.19-.04-.07-.11.08.02-.14.14-.31.1-.39-.03.14-.12.16-.14.37-.01-.05.02-.15.05-.23,0-.09-.14.22-.08-.05l-.05.13s0-.08,0-.16c-.03-.01-.14.16-.08-.05-.01.02-.07,0-.09.14.01.1.07-.09.04.11.02-.17-.06,0-.1.05l.02-.08s-.05,0-.08.09c.02-.04.03-.1.03-.12l-.05.12c-.07.04.05-.22-.01-.2l.07-.08s0-.1-.03-.07c-.04.11-.1.24-.13.32-.04.04.02-.13-.04-.02l.08-.12s.03-.19-.01-.2c-.04.03-.12.18-.1.25-.02,0-.03-.08.01-.16-.06.03-.03.12-.09.18,0-.08-.01-.2,0-.31l.1-.17h-.03c.08-.15.02-.13.08-.28,0-.03-.05.02-.08.05-.03.27-.16.32-.22.55-.09.04.13-.57-.06-.24,0,.06-.1.22-.03.17-.04-.04-.1.22-.13.11.07-.08.03-.24.13-.36-.03.07.01.07.03.05,0-.09.08-.23.03-.24-.03.01-.07,0-.11.12-.04.13.05,0-.01.13-.07.03-.01-.17-.11.05.04,0,0,.13-.02.22l-.06.04.04-.08c-.05-.08-.07.15-.13.11l.03-.18c.06-.14.07.1.14-.15-.04-.02-.09.09-.11.02.02-.02.03-.02.04-.04-.01-.01.08-.33-.04-.17-.05.06-.04.08-.07.17-.08,0-.13.09-.17.09.07-.17-.07-.04.04-.2-.01.11.09.13.17-.03.05-.21.04.05.13-.16-.05-.02.02-.22.06-.36-.01-.01-.04.04-.06.06-.05.12-.03.13-.07.26-.05-.05-.13,0-.2.11,0-.07.05-.19.08-.19-.08.01-.15-.03-.2-.09-.03.22-.09.02-.12.2.02.06,0,.21-.06.3-.02-.02.03-.09.04-.14-.07.1.02-.19-.07-.03.09-.04.1-.24.17-.4-.08.07.04-.11,0-.13-.08.07-.16.12-.22.14,0-.17-.16-.06-.21-.08,0-.09.09-.26.07-.3-.04-.01-.05.2-.07.1l.02-.03s-.05-.16-.17.09l.1-.18s-.03.02-.05.04c.03-.06.04-.12.07-.16.02-.14-.08,0-.12-.02l-.02.12c-.1.06-.09-.07-.17-.05l.05-.11-.06.05c.06-.1.05-.18,0-.1l.21-.23c0,.08-.08.12-.12.24-.03.1.04.09.09,0-.02-.02-.03,0-.06.04.06-.16.09-.14.15-.23-.01,0,0-.05-.03,0,.05-.07.08-.07.11-.06-.05.05-.03.1-.05.14.06-.13.11-.16.14-.11-.03.17.12-.07.15,0-.08.13-.15.23-.2.27,0,.08.04.01.04.09.06-.1.13-.25.2-.3l-.04.1c.06-.04.12-.19.15-.14.06.08.15.11.21.15l-.04.1c.12-.21.15-.04.23-.12.04.13.21-.03.19.16.17-.03.32-.07.46.02l-.07.14c.06-.1-.01.09.02.08,0-.13.09-.15.13-.23.03.14.15.04.25-.05l-.03.11c.12-.18.14.01.2.07,0,.05-.02.15,0,.14.09-.16.11-.14.2-.23.04.01.1.08.13.15.23-.19.35,0,.56-.11l-.02.13c.23-.23.37.07.54-.04l-.06.21c.03.07.11-.04.13-.19.03.07.13-.08.12.1.04.05.08-.09.12-.11.07.1.11.09.2.06l-.02-.02s-.04.14-.02.16c.04-.05.11.08.12-.18.06.17.23-.08.29.14,0-.07.03-.08.05-.13.08,0,.14.16.22.05,0,.04-.04.12,0,.13.02-.02.01-.09.04-.13.15-.11.24.17.36.16.23-.1.43-.02.64-.03v.05c.08-.2.13.22.21-.08.01.05.06.03.04.13.06-.14.14.15.23-.03,0,0-.01,0-.02.03.07.12.15-.03.23.08,0,.02-.03.04-.03.09.03.1.09-.22.09.03.02,0,.02-.13,0-.12.18.1.38-.06.56-.11.13.15,0,.43.12.24,0,.05,0-.1,0-.04.04-.07.07.28.1.15-.01-.16.02-.09.02-.18.08.1.11.25.17.12v.08c.07-.24.16-.12.21-.39.41-.08.8-.23,1.18-.34.4,0,.75-.17,1.16-.15.14.19.15.18.23.07,0,.03,0,.04.02.07-.04-.17.07-.03.03-.2.15,0,.27-.08.41-.12-.02.03.01.17.04.15v-.12s.01.05.01.05c.01-.03,0-.12-.03-.17.3-.28.77-.06,1.1-.24.11.03.19-.09.26-.17.35.09.69.13.87-.14,0,0,.2.41.13.56Z"/>
    <path class="cls-1" d="M41.01,47.95c-.03.08-.01.14-.09.24.03-.08.05-.17.09-.24Z"/>
    <path class="cls-1" d="M41.56,49.15s0,.04,0,.05c-.01,0-.05.07-.04.02.01,0,.03-.04.05-.07Z"/>
    <path class="cls-1" d="M41.79,49.29c-.03.07-.1.11-.14.11l.14-.11Z"/>
    <path class="cls-1" d="M41.91,49.68c0,.07-.02.1-.05.09.01-.04.03-.06.05-.09Z"/>
    <path class="cls-1" d="M41.98,49.51s.01.05,0,.1c.02-.06-.06.03,0-.1Z"/>
    <path class="cls-1" d="M42.41,49.89s.06-.06.04.03c0-.06-.09.08-.04-.03Z"/>
    <path class="cls-1" d="M42.67,49.85s0,.02.02,0c0,.04-.03.09-.04.09l.02-.1Z"/>
    <polygon class="cls-1" points="47.04 50.33 47.02 50.36 47.03 50.29 47.04 50.33"/>
    <path class="cls-1" d="M48.97,50.33c.02-.05.02.07.03.08-.02,0,0-.1-.03-.08Z"/>
    <polygon class="cls-1" points="49.95 49.85 49.94 49.85 49.93 49.69 49.95 49.85"/>
  </g>
</svg>