<?xml version="1.0" encoding="UTF-8"?>
<svg xmlns="http://www.w3.org/2000/svg" viewBox="0 0 95 95">
  <defs>
    <style>
      .cls-1 {
        isolation: isolate;
      }

      .cls-2 {
        fill: #ff4f20;
      }

      .cls-3 {
        fill: #f7a397;
        font-family: Icebox-Magnet-Trial-90ms-RKSJ-H, 'Icebox Trial';
        font-size: 7.74px;
        mix-blend-mode: multiply;
        opacity: .49;
      }
    </style>
  </defs>
  <g class="cls-1">
    <g id="Layer_3" data-name="Layer 3">
      <text class="cls-3" transform="translate(-134.26 -112.56) rotate(20.77)"><tspan x="0" y="0" xml:space="preserve">YUM YUM YUM YUM YUM YUM YUM YUM YUM YUM  </tspan><tspan x="0" y="8" xml:space="preserve">YUM YUM YUM YUM YUM YUM YUM YUM YUM YUM  </tspan><tspan x="0" y="16" xml:space="preserve">YUM YUM YUM YUM YUM YUM YUM YUM YUM YUM  </tspan><tspan x="0" y="24" xml:space="preserve">YUM YUM YUM YUM YUM YUM YUM YUM YUM YUM  </tspan><tspan x="0" y="32" xml:space="preserve">YUM YUM YUM YUM YUM YUM YUM YUM YUM YUM  </tspan><tspan x="0" y="40" xml:space="preserve">YUM YUM YUM YUM YUM YUM YUM YUM YUM YUM  </tspan><tspan x="0" y="48" xml:space="preserve">YUM YUM YUM YUM YUM YUM YUM YUM YUM YUM  </tspan><tspan x="0" y="56">YUM YUM YUM YUM YUM YUM YUM YUM YUM YUM</tspan><tspan x="0" y="64" xml:space="preserve">YUM YUM YUM YUM YUM YUM YUM YUM YUM YUM  </tspan><tspan x="0" y="72" xml:space="preserve">YUM YUM YUM YUM YUM YUM YUM YUM YUM YUM  </tspan><tspan x="0" y="80" xml:space="preserve">YUM YUM YUM YUM YUM YUM YUM YUM YUM YUM  </tspan><tspan x="0" y="88" xml:space="preserve">YUM YUM YUM YUM YUM YUM YUM YUM YUM YUM  </tspan><tspan x="0" y="96" xml:space="preserve">YUM YUM YUM YUM YUM YUM YUM YUM YUM YUM  </tspan><tspan x="0" y="104" xml:space="preserve">YUM YUM YUM YUM YUM YUM YUM YUM YUM YUM  </tspan><tspan x="0" y="112" xml:space="preserve">YUM YUM YUM YUM YUM YUM YUM YUM YUM YUM  </tspan><tspan x="0" y="120">YUM YUM YUM YUM YUM YUM YUM YUM YUM YUM</tspan><tspan x="0" y="128" xml:space="preserve">YUM YUM YUM YUM YUM YUM YUM YUM YUM YUM  </tspan><tspan x="0" y="136" xml:space="preserve">YUM YUM YUM YUM YUM YUM YUM YUM YUM YUM  </tspan><tspan x="0" y="144" xml:space="preserve">YUM YUM YUM YUM YUM YUM YUM YUM YUM YUM  </tspan><tspan x="0" y="152" xml:space="preserve">YUM YUM YUM YUM YUM YUM YUM YUM YUM YUM  </tspan><tspan x="0" y="160" xml:space="preserve">YUM YUM YUM YUM YUM YUM YUM YUM YUM YUM  </tspan><tspan x="0" y="168" xml:space="preserve">YUM YUM YUM YUM YUM YUM YUM YUM YUM YUM  </tspan><tspan x="0" y="176" xml:space="preserve">YUM YUM YUM YUM YUM YUM YUM YUM YUM YUM  </tspan><tspan x="0" y="184" xml:space="preserve">YUM YUM YUM YUM YUM YUM YUM YUM YUM YUM   </tspan><tspan x="0" y="192" xml:space="preserve">   </tspan><tspan x="0" y="200" xml:space="preserve">   </tspan></text>
      <g>
        <g>
          <path class="cls-2" d="M20.99,76.16c-.6.28.42.13-.37.25.05-.14.14-.27.37-.25Z"/>
          <path class="cls-2" d="M18.98,76.1c-.45-.15-.83-.65-.85-1.24,0-.59.3-1.17.49-1.76.44-1.17.92-2.36,1.07-3.54.06-.27.37.2.48-.41.17-2.32,1.66-5.56,2.98-8.01l.06.2c.25-.47.09-1.2.32-1.7.08.02.05.2.19.12-.18-.21.22-.98.13-1.26.16-.18.33-.1.52-.33l-.15-.39c-.32-1.04.74-2.01.81-3.25.04.07.05.2.14.13.26-1.95,1.11-4.21,1.68-6.3.06.11.2.24.34.16-.23-.19-.09-.85.05-1.41.36-.15.07-1.02.44-1.61l.04.08c-.13-.57.41-.65.19-1.15l.32-.23c-.32-.34.44-.62.37-1.08h-.08c.03-.42.29-.54.35-.91l.06-.02c.17-.84.55-1.23.24-1.31.34-.2-.16.82.35.49.59-2.75,1.59-5.45,2.5-8.11.23-.26.33-.44.47-.47.03-.29.29-1.02.22-1.31-.02.09.21-.12.28-.25.28-.44-.15-.64.17-1.13,0,.24.08.34.22.31-.08-.53.16-1.13.27-1.69.02.1,0,.24.11.25-.07-.68.42-1.05.43-1.62l.11.25c.5-.75-.28-.37.09-1.04,0,.19.09.15.15.21-.09-.78.39-1.82.51-2.52.01.05.06.05.06.05.21-.74.57-1.46.7-2.3.18-.26.39.24.59-.55-.36-.09.3-1.35-.25-1.03.15-.34.32-.68.51-1.15.19-.46.49-.8.66-1.03-.15.35.53.11.14.55.15-.05.3-.08.45-.09.04.15-.32.22-.11.29.07-.09.23-.27.43-.4.2-.14.44-.19.55-.18.21-.14.47-.3.8-.35.33-.05.75.03,1.13.38-.42-.2-.09.48-.34.33l.08.02,1.28.33c.22.19-.16.25.2.48.05-.09.22,0,.37.03.05.11.91.78.74,1.13-.01.19-.39-.28-.25.04.38.37.48.3.86.67l-.03.04c.21.29.84.62.71.21-.16-.18-.09.22-.27-.11.32.02.8.42,1.18.79-.17-.09-.22,0-.35.02.71.3,1.31.77,1.96,1.25.13-.11-.43.01-.45-.13.55.89,1.73,1.25,2.09,2.1-.12-.08.12-.23.09-.19.33.36.14.53.43.69-.08.13.32.25.58.45.2.04.01.11-.21-.08.41.24,1.88,1.38,2.48,2.28.05-.08.72.21.88.39l-.23.09c.06.25.59.57.48.73.57.17-1.59-1.25-.94-.91,0,.26.95.44.62.55.35.34.87.5,1.05.98-.07-.12-.51-.06-.21.21.52.46.22.06.67.41l.32.18c.17-.14.42.46.41.1-.07.19.8.64.49.85l-.27.14c.23.2.57.13.82.21,0,.05.02.14-.02.17.35-.28.48.54.98.55.34.56,1.13,1.15,1.14,1.55.44.25.87.45,1.19.91-.11-.05-.22-.15-.31-.1.15.34.3.32.57.49-.1,0,.31.68.47,1.06.44.25.49-.04.63-.11,0,.62,1.17.76,1.27,1.44-.16-.08-.65-.35-.45.02,0,.62.86.4,1.21,1.05l.13-.38c.06.38.89.59.58.8.26.08.51.68.7.37.62,1.04,2.14,1.88,2.2,2.84.16.08.41.42.48.23-.06-.34-.38-.17-.35-.34.11.1.21.05.25.03.2.32.38.54-.07.5.42.73,1.02.16,1.65.99-.14.07-.12.17.11.36l.58.23c.43.51.03.5-.13.69.28.22.58.54.83.52l.08.53c-.06-.38.31.1.48.18l-.16-.07c-.03.12.31.37.48.49.07-.14-.18-.48-.31-.68.21.05.39.27.65.35-.23.12.29.53.47.75.19.27.41.1.47.18-.08.1.36.39.06.34-.11-.05-.09-.27-.3-.32.08.22-.09.36.34.56.32.15.28-.4.62.16-.16-.08-.25-.03-.4-.06l.33.51.18-.14c.02.1-.04.07-.03.12.29-.04.69.59.97.5.23.2.34.56.52.78l-.05-.03c.15.34.54.61.86.71l-.05.02c.12.15.47.44.73.52.22.46-.48.71.1.89.35.34.83.25.79.01.13.18.29.35.45.5l.28.25c.14.12.27.26.39.4.49.55.72,1.31.57,1.93.1.19.15.07.18.49-.14,1.01-.71,2.04-1.63,2.59-.23.13-.47.24-.71.33-.25.08-.33.1-.5.14-.29.07-.58.1-.86.08.32-.21-.05-.22-.1-.34-.23.29-.42-.08-.41.28.09.18.1.28.47.24-.69.35-1.8.73-2.27.69.23.02.1.13-.04.24-.05-.32-.61-.18-.98.06v.21s-.32-.1-.32-.1c-.14.11-.04.45-.5.41-.05-.06-.09-.13-.19-.16-.37.3-.87.76-1.39.76l-.47-.14c-.18.1-.46.37-.09.33-.84.1-1.34.26-1.67.11-1.15,1.03-3.09,1.72-4.66,2.22v-.15c-.47.01-.14.32-.46.32.09-.18-.42-.18-.14-.45-.65.06-.69.51-1.06.7,0,.2.27-.22.28.03-.04.09-.88.14-.88.45-.19-.06-.14-.3-.1-.44l-.32.26c-.56-.17.82-.92.22-1.16l-.32.16c-.42-.18.78-.63-.1-.44-.32.26-.5.77-.13.78-.74.34-.13.78-.96,1.04-.28-.08.65-.26.41-.44-.46-.09-.74.39-1.11.43.42-.03.19.36-.04.5-.46.01.18-.35-.42-.18-.04.19-.55.5-.04.45-.09.43-.65.11-.88.5-.28-.19.41-.8-.29-.7.19.21-.69.61-.22.85-.28.02-.37-.17-.24-.38-.42-.02-.73.75-1.02.31l-.04.29c-.14-.04-.33-.05-.56-.12-.32.11-.92.69-1.02.31-.09.07-.83.31-.46.47.51,0,.46-.37.83-.11-.42-.18-.65.26-.88.45l-.09-.13c-.14.11-.51.2-.55.39.09-.12,0-.2-.14-.19l-.09.28c-.6.33-.28-.34-.88-.06l.41-.33c-.09.07-.37-.06-.65.11-.05.24-.18.56-.23.75-.32.21-.24-.17-.51.15l.37-.4c.05-.09-.42-.23-.89-.06-.27.17-.64.62-.13.57-.23.08-.6.07-.47-.14-.51.25.14.19-.27.48-.23-.07-.88-.06-1.3-.14l.36-.5-.32.11c.32-.41-.28-.14-.15-.5-.23.03-.46.22-.65.36.79.24-.5.87-.17,1.23-.83.41-.89-.83-1.58.14.19.06-.13.52.37.21-.56.14-.22.55-.92.59.41-.33-.65-.25-.05-.73,0,.15.42-.03.51-.1-.28-.08-.1-.44-.65-.25-.32.16-.79.32-.64.52.1.23.51-.2.37.11-.65.31-.88-.01-1.02.51.41-.18.61.03.65.2l-.46.27.04-.19c-.83.16-.14.37-.92.59l-.47-.19c.09-.33,1.16-.26.87-.66-.51.15-.6.43-1.11.48.09-.07.23-.13.32-.21-.18.05-.56-.48-1.16.11-.32.26-.04.19,0,.36-.79.33-.97.58-1.48.78,0-.36-.92.28-.47-.24.33.1,1.48-.32,1.66-.72-.42-.28.65-.16.69-.61-.65.21-.75-.17-.93-.38-.18.04-.32.21-.42.28,0,.26.24.17.33.41-.74.18-1.39.55-1.71.91-.28-.03-.28-.29,0-.41-.83.36-1.76.64-2.59.85.65.2-.88.4-.41.59.46-.06.93.08.75.33-.28.07-.05-.17-.19-.21-.28.33-.65-.15-.88.3.74-.39,0-.51.04-.86-.51.36-.05-.22-.6-.03-.51.36-1.15.72-1.75,1-.88-.01-1.99.68-2.68.93-.42-.02-.28-.44-.7-.36-.46.17.47.24-.27.33l.04-.09c-.18.15-1.34.21-1.38.76l.09-.44c-.14.01-.23.14-.32.21-.05-.12-.23-.17-.05-.32-.51-.1-.88.35-1.34.52l.37.11c-.74.44-1.34.41-2.08.75l-.05-.22-.41.28c.04-.24-.42-.23-.6.02l1.01-.92c.37.01-.27.38,0,.51.24.12.93-.18.97-.42-.28.07-.28.12-.46.27-.19-.26.23-.39.36-.66-.14.06-.37.04-.37.14.23-.24.5-.36.97-.52-.28.22.23.12.14.25-.05-.27.37-.5.97-.63.51.16,1.02-.56,1.71-.71-.18.35-.45.68-.82.92.46-.01.46-.17.93-.18.14-.26.18-.61.68-.92l.1.18c.46-.27.36-.55,1.01-.72,1.11-.28,2.22-.66,3.05-.92l.1.18c.32-.57,1.48-.68,2.03-1.07,1.11-.18,2.22-.97,2.87-.82,1.8-.78,3.37-1.48,5.31-2.07l-.23.39c.27-.32.28.08.6-.07-.46-.09.37-.45.55-.7.93-.08,1.94-.69,2.63-1.15l.1.18c.64-.62,1.66-.62,2.64-.89.14.04.37.16.65.04.41-.49.69-.56,1.38-1.01.55-.19,1.48-.42,2.08-.49,1.94-1.15,4.16-1.6,6.24-2.61l.23.17c1.94-1.2,4.67-1.65,6.38-2.52l-.04.45c.6-.07,1.25-.54,1.01-.77.6-.08,1.34-.67,1.81-.48.6-.13.64-.42,1.11-.64,1.2-.25,1.62-.43,2.68-.88l-.28.07c-.09.13-.04.29.23.22.37-.25,1.53-.41.97-.73.31-.03.63-.12.96-.24.2-.07.21-.1.28-.19.11-.17.12-.29.3-.47-.14.04-.17-.04-.27-.04l-.04-.16s-.02-.06-.03-.09c-.04-.06-.16-.19-.24-.28-.34-.4-.69-.76-1.07-.98-.07-.17.35.03.05-.29-.22-.15-.13.12-.41-.05-1.41-1.06-2.32-2.68-3.48-3.76-2.18-1.81-4.16-3.98-6.11-5.87l.09-.05c-.9-.38-1.23-1.77-2.14-1.88-.09-.22-.55-.61-.3-.63-.7-.32-1.25-1.6-2.22-2.1.06.07.11.1.22.15-.59-.9-1.46-1.34-2.1-2.27.11.05.28.17.37.13-.17-.44-1.01-.43-.84-.93-.18-.17-.29.04-.17.14-1.59-1.85-3.64-3.47-5.5-5.18-1.08-1.48.48-.64-.78-1.4-.02-.15-.19.07-.13-.02-.48-.3-.24-.98-.68-1.08-.09.32-.3-.07-.43.05-.65-.92-.62-1.26-1.4-1.72l.15-.06c-1.03-.42-1.71-1.42-2.67-1.69-1.03-.99-2.05-1.96-3.07-2.93-1-.93-1.99-1.86-2.97-2.79-.15-.09-.3.03-.29.12v.02s0,0,0,.02l-.04.12-.15.49-.31.97-.64,1.95c-1.86,5.13-3.38,10.25-5.43,15.4-.8,1.1-.82,1.19-1.13,2.59-.04-.08-.03-.16-.12-.09.29.17-.3.96-.04,1.19-.72,1.92-1.25,3.73-1.93,5.72.07-.33-.12-.57-.23-.19l.06.46-.11.03c-.04.27.01.6.21.37-1.45,5.1-3.76,9.8-5.37,14.73-.53,1.12-.98,2.82-1.35,4.1-.85,1.8-1.65,3.52-2.36,5.27l-.26.66-.13.33c-.04.11-.09.25-.09.26-.06.17-.06.33.02.48.07.16.23.28.38.33.16.05.31.02.46-.06,0,0,.05.22-.1.47-.12.25-.61.55-1.22.16Z"/>
          <path class="cls-2" d="M21.73,75.87c.19.11.65.04.38.37-.09-.13-.37-.22-.38-.37Z"/>
          <path class="cls-2" d="M33.91,73.47c0-.05.19,0,.23.02-.14.06-.23.24-.37.2.14-.06.09-.13.14-.22Z"/>
          <path class="cls-2" d="M36.92,72.54c0,.15-.6.48-.97.63l.97-.63Z"/>
          <path class="cls-2" d="M39.89,72.16c.28.03.24.12-.09.23-.05-.07.05-.14.09-.23Z"/>
          <path class="cls-2" d="M39.98,71.78c.23-.08.37-.04.51,0-.05-.12-.51.26-.51,0Z"/>
          <path class="cls-2" d="M46.13,70.11c.14-.06.41-.28.6-.18-.19-.06-.64.42-.6.18Z"/>
          <path class="cls-2" d="M48.86,68.94c.09-.02.14,0,.23-.08.19,0,.05.17-.09.23l-.14-.14Z"/>
          <polygon class="cls-2" points="62.3 39.08 62.58 39.26 62.44 39.32 62.3 39.08"/>
          <path class="cls-2" d="M45.62,22.41c-.29-.16-.06-.25-.08-.31.21.19-.2.05.08.31Z"/>
          <polygon class="cls-2" points="35.93 21.46 35.96 21.37 36.23 21.5 35.93 21.46"/>
        </g>
        <g>
          <path class="cls-2" d="M69.55,60.43c.17.07.12-.25.16,0-.1.07-.19.11-.16,0Z"/>
          <path class="cls-2" d="M36.97,27.62c.93-.15.9.91,1.68,1,.07.03-.31.28-.12.32.83,0,1.24.9,1.42,1.73l-.11.05c.04.16.43,0,.49.14-.05.06-.11.05-.16.15.19-.14.26.11.43.03-.03.11-.16.23-.18.36l.25-.13c.61-.29.36.43.82.42-.05.03-.11.05-.14.11.63.08,1.03.58,1.53.88-.08.05-.22.16-.27.26.22-.18.39-.11.54-.04-.16.25.37,0,.38.23l-.06.04c.31-.12.01.26.35.08l-.1.22c.33-.25-.02.28.21.21l.06-.06c.14,0,.04.18.15.2l-.03.04c.23.08.16.33.39.1-.13.24-.23-.07-.41.28.75.28,1.24.86,1.76,1.38-.03.15-.02.22-.09.31.1,0,.24.15.4.09-.02-.01-.08.15-.07.19,0,.18.35-.15.35.06-.1.02-.19.08-.26.18.27-.09.36.06.52.11-.05.02-.1.02-.17.09.31-.09.17.25.39.22l-.17.09c0,.32.32-.23.37,0-.07,0-.11.07-.17.12.37-.11.5.18.71.23-.03.01-.06.05-.06.05.17.11.25.33.5.39,0,.12-.34.3-.14.4.26-.27.36.15.57-.24.08.17.19.47.36.47-.16.04-.26.38-.39.3l-.08.24c-.12.1-.05-.12-.16.04.06.04.32.09.33.18.26-.06.65-.27.84-.15-.18.03-.25.33-.34.33l.73-.28c.07.04-.2.22-.05.23.07-.07.14-.08.22-.12,0,.05.29.16.05.44-.08.13-.14-.03-.17.12.1.1.19.01.3.11l-.03.04c.03.1.3.08.37-.13-.04-.05-.14.17-.13.03.2-.1.35-.03.45.06-.08,0-.14.08-.23.14.34-.07.54,0,.77.07.13-.12-.28.17-.24.08.02.36.63.15.54.55-.05,0,.16-.19.13-.15.08.11-.11.28.02.27-.1.11.11.04.2.07.11-.04-.03.07-.1.03.17,0,.67.18.72.52.07-.07.37-.13.41-.08l-.18.14c-.06.14.17.14.03.28.29-.1-.54-.2-.26-.23-.1.17.44-.08.19.12.1.09.37,0,.3.23,0-.05-.3.15-.21.21.16.1.11-.04.27.01h.13c.16-.15.09.14.22-.09-.11.15.27.11,0,.36l-.22.19c.07.04.31-.13.44-.17-.01.03-.04.08-.07.11.32-.31.11.16.42-.02,0,.23.29.31.15.56.19,0,.38-.04.42.13-.05,0-.09-.01-.16.05-.03.16.07.09.18.1-.06.03-.06.31-.1.5.18,0,.32-.2.44-.3-.23.39.45.05.27.44-.07.01-.28.02-.29.17-.23.39.39-.06.38.22l.23-.29c-.1.22.34.04.07.29.14-.05.07.24.31-.03,0,.43.65.4.34.98.07-.01.11.11.22-.04.09-.19-.17.03-.1-.09.04.02.11-.04.15-.07,0,.12.04.2-.23.34,0,.31.58-.27.67.02-.11.1-.14.15-.07.19l.28-.07c.08.16-.17.31-.34.49.1.04.17.12.33.02l-.14.3c.1-.22.16-.05.23-.06h-.07c-.06.1.06.13.12.15.1-.12.07-.24.06-.31.11-.04.15.03.28-.02-.19.16-.02.23.02.3.02.1.22-.09.23-.06-.09.09.08.11-.09.19-.05,0,.04-.13-.07-.09-.03.11-.19.26,0,.23.15-.02.33-.36.33-.13-.07.01-.15.08-.23.11l.02.2.16-.15c-.03.05-.05.06-.06.09.2-.13.22.12.43-.04.07.04,0,.23.04.3h-.02c-.03.16.12.19.28.13l-.04.03s.13.11.27.06c-.03.21-.56.62-.27.53.1.09.43-.15.49-.28.06.27.5.2.4.59.09-.04.11-.09.2-.08.18.3.69.32.57.82-.14,0-.16.15-.25.24.2-.08-.08.22.18,0,.14-.15.21-.21.2-.34.22.07.44.28.38.49.03-.11.1-.12.17-.13-.24.22-.17.36,0,.36l.15-.13-.09.19c.07-.01.32-.26.27-.04-.05.06-.1.12-.12.17.2-.03.5-.11.48.1l-.13.27c.06.02.25-.04.24-.17.03.27.11.39-.01.61.69-.16,1.09.2,1.36.54l-.11.09c-.02.18.22-.14.21,0-.13.07-.15.28-.34.33,0,.23.33-.03.45,0,.15-.12-.15.03.04-.13.06-.04.06.27.28.08-.05.11-.23.24-.32.31l.17-.03c-.15.33-.63.23-.83.62l.1.03c-.15.28-.42.07-.33.31.17-.03.53-.27.56-.42.21.09.56-.42.7-.24-.08.17-.16-.1-.3.1-.09.24.24.06.25.19,0-.15.27-.3.36-.29-.01.18-.25.14-.15.28.14-.1.33-.08.32-.26.31-.23.05.2.32.05-.15.23-.56.32-.52.54.16-.2.41-.09.61-.43,0,.1-.14.25-.29.33-.04.18.51-.16.17.23l.21-.16c-.04.08-.05.16-.12.3.06.07.46-.05.17.23.05,0,.18.15.32-.1.03-.21-.25.04-.03-.27-.15.28.16.1.28.08l-.1.12c.07-.01.12.08.26-.02-.09.04-.15.13-.15.18l.2-.13c.21.04-.26.32-.09.39l-.22.04s-.07.19.04.2c.17-.13.4-.27.53-.37.13,0-.14.2.08.11l-.27.09c-.06.04-.19.31-.1.4.11,0,.42-.12.41-.3.05.04.02.2-.13.27.16.05.15-.18.33-.18-.06.14-.09.4-.17.61l-.35.16.06.06c-.28.12-.11.2-.37.36,0,.08.13.05.23.04.22-.47.61-.33.88-.68.26.09-.65.87.01.55.05-.11.37-.26.18-.28.07.14.39-.24.38.01-.22.04-.22.42-.54.47.11-.09,0-.15-.05-.14-.08.16-.32.3-.21.41.1.04.19.12.34-.05.18-.18-.12-.08.1-.22.19.07-.06.36.32.1-.11-.06.06-.26.18-.38l.17.02-.14.1c.07.24.26-.17.38.01l-.16.31c-.24.17-.13-.31-.43.05.08.11.28-.02.29.15-.05,0-.08-.01-.13,0,.02.05-.38.52.02.4.17-.03.14-.1.26-.22.19.12.37.04.49.12-.26.22.16.2-.2.34.09-.19-.15-.41-.44-.23-.23.34-.08-.16-.41.09.12.13-.17.41-.33.61.02.05.13,0,.18,0,.19-.16.14-.2.32-.38.09.19.33.23.57.14-.04.13-.23.29-.3.25.22.12.37.32.48.53.18-.38.24.11.41-.19-.02-.15.11-.42.28-.5.03.07-.13.12-.16.2.22-.09-.14.35.17.18-.24-.06-.37.31-.62.51.23-.01-.16.15-.05.26.23-.01.46.02.63.1-.06.36.38.39.53.52-.04.18-.34.39-.3.51.1.09.2-.34.22-.09l-.06.04c.1-.02.08.42.48.1l-.31.23s.09.01.14,0c-.09.09-.14.2-.24.22-.1.27.2.15.3.23l.1-.22c.28.03.23.29.43.39l-.16.15h.18c-.17.13-.19.31-.02.23l-.62.15c.03-.16.26-.12.37-.31.1-.17-.08-.27-.25-.14.04.07.07.04.17.02-.2.24-.27.15-.46.25.04.02,0,.12.08.06-.16.05-.23.01-.33-.07.15-.02.1-.17.19-.21-.2.19-.35.16-.4,0,.14-.3-.35-.07-.42-.26.25-.14.47-.23.63-.23.02-.18-.1-.09-.08-.27-.18.11-.44.3-.63.28l.14-.15c-.17-.02-.38.19-.47.03-.14-.28-.36-.5-.5-.68l.14-.15c-.4.22-.41-.19-.67-.17-.07-.34-.58-.31-.44-.66-.47-.25-.9-.46-1.22-.89l.27-.15c-.22.09.08-.16-.02-.2-.09.24-.31.13-.48.21,0-.33-.4-.37-.69-.37l.14-.15c-.42.12-.36-.3-.5-.53.04-.08.14-.25.07-.29-.33.13-.37.06-.66.06-.11-.11-.23-.34-.25-.54-.73-.08-.94-.71-1.56-.93l.14-.2c-.77-.05-.95-.88-1.48-1.05l.32-.25c-.02-.2-.33-.17-.5.06-.02-.2-.41-.13-.25-.44-.06-.17-.27,0-.4-.06-.12-.33-.23-.39-.49-.55l.03.07c.09-.04.21-.16.18-.23-.16,0-.21-.37-.48.05-.03-.43-.69-.37-.64-.86-.08.11-.15.08-.24.12-.2-.2-.22-.6-.54-.6.02-.08.21-.11.14-.2-.08-.01-.12.12-.24.12-.5-.15-.47-.83-.81-1.08-.7-.34-1.16-.98-1.69-1.44l.07-.06c-.43.1-.12-.66-.65-.4.03-.11-.12-.18.04-.29-.32.05-.2-.55-.63-.5.01.02.04.02.09.01-.04-.35-.42-.31-.49-.65.05,0,.11,0,.19-.06.05-.21-.48.1-.19-.27-.05-.04-.2.13-.16.15-.32-.58-1.01-.85-1.56-1.24-.14-.53.54-.58.03-.6.04-.09-.14.11-.08.04-.2,0,.21-.53-.03-.43-.18.23-.16.07-.29.19-.07-.34.07-.56-.25-.57l.12-.1c-.49.11-.55-.27-1.06-.08-1.11-.98-2.31-1.79-3.37-2.77-.94-1.07-2.09-1.9-2.92-3.11.04-.52.02-.53-.36-.68.06-.04.08-.03.11-.09-.24.22-.21-.16-.45.03-.33-.42-.75-.71-1.14-1.09.09.04.31-.12.22-.18l-.22.07.05-.08c-.08-.02-.25.04-.28.17-1.18-.78-1.67-2.2-2.69-3.11-.13-.32-.54-.56-.84-.76-.42-1.04-.83-1.95-1.79-2.48,0,0,.7-.5,1.14-.33Z"/>
          <path class="cls-2" d="M69.38,60.3c.09-.14.07-.29.29-.38-.1.12-.18.28-.29.38Z"/>
          <path class="cls-2" d="M68.3,56.84s.01-.08.03-.11c.04.02.16-.05.12.03-.04-.02-.09.04-.15.08Z"/>
          <path class="cls-2" d="M67.78,56.18c.11-.09.32-.05.4,0h-.4Z"/>
          <path class="cls-2" d="M67.67,55.22c.04-.13.1-.17.16-.1-.05.06-.1.07-.16.1Z"/>
          <path class="cls-2" d="M67.39,55.41s0-.13.03-.21c-.09.09.16.05-.03.21Z"/>
          <path class="cls-2" d="M66.52,53.94s-.18,0-.1-.14c-.05.11.27,0,.1.14Z"/>
          <path class="cls-2" d="M65.82,53.55s0-.05-.05-.04c.01-.08.12-.12.16-.1l-.11.15Z"/>
          <polygon class="cls-2" points="55.45 44.01 55.56 44.02 55.45 44.11 55.45 44.01"/>
          <path class="cls-2" d="M51.08,39.66c-.12,0,.06-.14.06-.16.06.04-.15.11-.06.16Z"/>
          <polygon class="cls-2" points="48.22 37.82 48.24 37.83 48.02 38.04 48.22 37.82"/>
        </g>
        <g>
          <path class="cls-2" d="M40.97,39.71c-.13.06.07.26-.09.11.02-.12.04-.21.09-.11Z"/>
          <path class="cls-2" d="M40.45,39.9c-.18.38-.38.43-.62.43-.23.02-.49,0-.61.31-.04.05-.12-.4-.2-.26-.19.69-.83.62-1.56.6l-.04-.11c-.14,0,0,.37-.11.4-.05-.06-.05-.11-.13-.17.13.2-.08.22,0,.38-.09-.04-.22-.18-.33-.22l.14.24c.33.56-.32.27-.22.66-.04-.05-.07-.1-.12-.12.08.53-.22.83-.26,1.25-.08-.06-.23-.15-.33-.17.24.14.26.28.27.39-.29-.07.18.26,0,.31l-.06-.03c.26.18-.21.06.11.24l-.24-.02c.38.15-.24.06-.05.19l.08.02c.08.09-.13.07-.08.15h-.05c.06.16-.16.2.15.26-.26,0-.09-.16-.47-.15.23.56.15,1.03.2,1.53-.12.07-.15.11-.27.14.07.04.09.19.26.2,0-.02-.16.06-.17.09-.1.12.36.03.24.16-.09-.02-.2-.01-.31.03.27.03.26.15.36.23-.06,0-.09-.02-.19.01.3.03-.01.22.2.26l-.19.02c-.16.22.38-.08.3.09-.07-.01-.13.02-.2.04.36,0,.32.23.48.29-.03,0-.07.03-.07.03.1.1.06.28.26.33-.04.09-.4.21-.27.3.32-.2.26.13.57-.17,0,.13.01.36.16.35-.15.04-.32.32-.41.26l-.13.2c-.13.08-.01-.1-.15.04.05.04.26.08.24.15.25-.07.62-.29.75-.21-.15.05-.27.31-.35.32.22-.11.44-.22.65-.35.05.02-.2.22-.08.2.06-.07.13-.1.2-.14-.01.04.2.06-.02.35-.08.13-.11,0-.15.14.07.06.16-.04.23.01l-.03.04c.02.08.24-.02.3-.22-.02-.03-.12.18-.1.06.16-.14.27-.14.34-.09-.06.03-.11.11-.18.19.26-.16.41-.19.57-.23.09-.15-.2.25-.17.16.02.3.44-.14.4.23-.03.02.1-.23.08-.18.06.05-.05.28.03.22-.05.14.07-.01.14-.04.06-.09-.01.07-.06.07.12-.1.44-.2.53.04.03-.09.19-.32.21-.3l-.07.22c0,.14.12.01.08.2.14-.25-.35.15-.2-.03-.02.19.23-.32.13-.02.08.01.19-.22.22,0-.01-.04-.12.3-.06.3.12-.02.05-.1.15-.17l.07-.08c.04-.22.09.04.08-.21-.01.18.15-.09.11.28l-.04.29c.05-.02.11-.3.15-.43,0,.03.01.09,0,.13.04-.44.11.04.17-.3.09.16.22.02.28.29.07-.14.12-.3.21-.21-.01.04-.03.06-.03.15.06.13.07.01.11-.06,0,.07.13.24.21.39.06-.14,0-.38-.02-.52.14.42.14-.3.29.07,0,.07-.06.24.02.33.16.41.06-.35.22-.17l-.12-.35c.1.21.08-.24.18.12,0-.13.15.08.03-.26.26.22.29-.3.65.23,0-.06.08-.04-.01-.2-.12-.16,0,.15-.06.04.02-.02-.02-.11-.04-.15.08.05.13.05.22.34.22.14-.16-.58.02-.54.07.13.11.17.13.13l-.06-.26c.11,0,.23.25.36.46.02-.06.09-.09,0-.26l.23.22c-.17-.16-.05-.15-.07-.22l.02.07c.07.08.08-.01.09-.06-.1-.12-.19-.13-.24-.15-.04-.1,0-.11-.05-.23.14.2.17.09.22.08.07.01-.1-.2-.08-.2.08.1.07-.04.16.12.01.04-.11-.07-.05.03.08.05.22.22.17.05-.04-.12-.33-.35-.16-.3.02.06.09.14.13.22l.15.03-.15-.17s.05.05.08.07c-.14-.19.05-.14-.12-.34.01-.05.17.04.22.03v.02c.14.05.12-.06.04-.19l.04.03s.05-.08-.03-.19c.17.05.67.51.5.27.04-.07-.26-.34-.39-.4.2-.01-.02-.32.32-.24-.07-.06-.12-.08-.15-.14.18-.11-.07-.44.39-.38.06.09.2.09.32.14-.16-.12.21.03-.1-.12-.19-.07-.28-.11-.37-.1-.06-.14-.01-.28.19-.28-.1,0-.15-.04-.2-.08.3.11.38.05.28-.05l-.19-.06.2.02c-.05-.04-.39-.13-.19-.14.07.02.15.03.21.03-.14-.1-.38-.23-.21-.26h.29s-.19-.11-.28-.08c.19-.08.22-.15.47-.16-.58-.27-.59-.49-.57-.71h.15c.13-.07-.26-.01-.16-.06.14,0,.3-.07.47-.04.15-.11-.26-.09-.34-.13-.19.02.13.03-.11.05-.07,0,.13-.13-.16-.1.11-.04.32-.05.44-.06l-.15-.03c.32-.13.62.06,1.03-.07l-.05-.05c.29-.11.37.11.44-.06-.15-.05-.58-.03-.69.05-.1-.11-.69.06-.69-.05.16-.07.06.08.29.02.22-.11-.16-.09-.09-.16-.09.08-.39.1-.45.08.12-.09.28-.03.28-.12-.17.03-.31,0-.4.08-.37.07.08-.11-.21-.06.25-.11.61-.09.72-.22-.24.09-.37,0-.72.16.06-.05.25-.12.41-.15.13-.1-.49.04-.01-.15l-.25.08c.07-.05.13-.09.25-.16,0-.05-.38,0-.02-.15-.04,0-.07-.1-.31.05-.13.12.22-.02-.11.16.26-.16-.07-.06-.18-.04l.14-.07c-.06,0-.05-.05-.21.02.09-.03.18-.08.2-.11l-.22.09c-.14-.01.36-.21.26-.25l.19-.03s.14-.13.05-.13c-.2.09-.43.2-.58.26-.1.01.2-.14-.01-.06l.25-.08c.07-.03.28-.21.24-.27-.09,0-.38.12-.44.23-.02-.02.07-.13.21-.19-.1-.02-.19.13-.33.16.11-.1.23-.27.36-.44l.33-.15-.03-.04c.27-.11.16-.16.42-.3.02-.06-.1-.03-.18-.02-.33.37-.59.31-.92.61-.15-.01.78-.75.17-.4-.07.09-.36.27-.22.24-.01-.09-.36.26-.28.08.17-.08.28-.36.54-.47-.11.09-.05.12,0,.1.1-.14.34-.29.28-.36-.07-.01-.12-.06-.28.11-.18.18.07.04-.14.19-.12,0,.13-.29-.21,0,.07.01-.11.21-.23.33l-.12.03.13-.11c0-.15-.23.2-.27.11l.19-.28c.21-.2.02.19.33-.16-.04-.06-.21.1-.18-.03.04-.02.06-.02.1-.04,0-.03.38-.51.06-.31-.13.07-.12.12-.23.25-.12-.02-.26.1-.32.08.21-.27-.08-.1.19-.34-.09.19.05.26.29.03.22-.34.04.1.32-.19-.07-.08.19-.38.34-.59-.02-.03-.11.03-.15.05-.16.18-.13.21-.28.4-.05-.12-.23-.08-.41.08.04-.12.19-.32.24-.31-.15-.03-.26-.12-.34-.26-.13.39-.17,0-.28.33.02.11-.08.39-.2.53-.02-.04.09-.15.12-.23-.14.17.1-.35-.1-.06.16-.07.25-.42.41-.69-.17.12.11-.19.02-.24-.17.11-.33.19-.45.2,0-.32-.31-.12-.41-.14-.01-.17.13-.49.08-.57-.08-.01-.05.38-.12.2l.03-.06c-.05.07-.17-.29-.31.2l.12-.36s-.06.04-.08.08c.03-.12.02-.24.08-.31-.02-.28-.18.01-.26,0l.02.23c-.17.16-.23-.08-.38-.02l.03-.22-.1.13c.04-.21-.03-.36-.09-.18.09-.18.18-.36.28-.53.05.14-.1.26-.08.48.01.19.15.15.2-.05-.05-.03-.06.02-.11.09.02-.31.1-.29.17-.48-.03,0-.06-.09-.08,0,.08-.14.14-.16.24-.15-.09.11,0,.19-.03.28.05-.27.16-.33.27-.24.02.33.27-.14.4-.02-.13.25-.25.45-.36.54.05.16.09.02.13.17.09-.19.2-.48.35-.57l-.05.2c.13-.07.22-.35.34-.25.19.17.41.26.56.37l-.08.18c.28-.35.37,0,.57-.09.1.28.54.11.43.47.41.11.8.25,1.04.62l-.27.15c.21-.09-.09.15-.01.17.12-.22.3-.13.47-.2-.05.29.28.33.56.36l-.16.12c.41-.06.25.31.3.52-.06.06-.21.19-.16.23.34-.05.35.02.61.09.06.12.06.35-.02.52.61.31.44.9.78,1.37l-.23.06c.56.47.09,1.12.28,1.57l-.4-.09c-.14.11.06.31.35.33-.14.11.13.39-.22.4-.11.12.14.21.16.35-.22.24-.24.34-.26.62l.05-.05c-.07-.06-.23-.12-.28-.07.08.14-.24.29.25.39-.37.14-.1.73-.59.78.13.05.11.12.17.2-.13.24-.52.28-.46.59-.08,0-.14-.19-.21-.12,0,.08.13.11.14.22-.1.49-.77.46-1,.74-.36.63-1.05.91-1.63,1.21l-.03-.09c-.07.43-.6-.18-.58.41-.08-.07-.21.01-.22-.18-.1.29-.52-.11-.69.25.02,0,.03-.02.05-.06-.28-.18-.46.16-.74-.02.02-.04.07-.08.07-.17-.11-.18-.21.42-.29-.04-.06,0-.03.24,0,.22-.56-.15-1.17.09-1.8.07-.36-.38.16-.78-.24-.52,0-.09-.07.17-.05.07-.16.09-.03-.55-.19-.35-.06.29-.11.13-.16.3-.18-.27-.12-.52-.39-.39l.07-.13c-.38.29-.53-.02-.94.31-1.22-.59-2.41-1.41-3.13-2.66-.56-1.26-1.04-2.66-.66-4.05.44-.28.43-.29.32-.66.06.03.07.05.14.04-.32-.08.02-.24-.28-.35.18-.48.24-.96.48-1.45,0,.09.22.24.24.14l-.14-.18.09.03c-.01-.08-.13-.22-.25-.21.18-.68.66-1.22,1.2-1.62.54-.42,1.12-.71,1.64-1.08.32-.05.64-.35.92-.55,1.1.02,1.9.22,2.81-.09,0,0-.13.85-.43,1.06Z"/>
          <path class="cls-2" d="M41.13,39.69c.02.17.1.26.02.47,0-.15-.04-.33-.02-.47Z"/>
          <path class="cls-2" d="M42.76,41.82s0,.07-.02.1c-.03,0-.11.12-.08.03.02,0,.06-.07.1-.13Z"/>
          <path class="cls-2" d="M43.09,42.13c-.09.12-.23.17-.28.16l.28-.16Z"/>
          <path class="cls-2" d="M43.05,42.84c-.06.11-.1.16-.13.13.05-.06.08-.08.13-.13Z"/>
          <path class="cls-2" d="M43.28,42.6s-.02.1-.06.17c.08-.1-.1.01.06-.17Z"/>
          <path class="cls-2" d="M43.52,43.46s.14-.03.02.08c.08-.08-.2.04-.02-.08Z"/>
          <path class="cls-2" d="M43.9,43.63s-.02.03.02.02c-.05.05-.15.09-.17.08l.15-.1Z"/>
          <polygon class="cls-2" points="41.85 49.5 41.88 49.42 41.91 49.56 41.85 49.5"/>
          <path class="cls-2" d="M38.58,48.93c-.09.05.05-.13.06-.15.04.01-.11.14-.06.15Z"/>
          <polygon class="cls-2" points="36.69 47.97 36.71 47.98 36.45 48.13 36.69 47.97"/>
        </g>
        <g>
          <path class="cls-2" d="M47.88,64.2c.14-.06-.07-.26.09-.11-.02.12-.05.21-.09.11Z"/>
          <path class="cls-2" d="M48.41,64.01c.19-.38.4-.44.65-.43.24-.03.51,0,.64-.32.04-.05.12.4.2.26.21-.69.87-.64,1.61-.63l.04.11c.14,0,0-.38.12-.41.05.06.04.11.13.17-.13-.2.08-.22,0-.38.1.04.22.18.33.21l-.14-.24c-.33-.57.33-.28.24-.68.04.05.07.1.12.12-.07-.54.24-.86.28-1.29.08.06.23.15.33.17-.24-.15-.26-.29-.26-.4.29.07-.18-.27.01-.32l.06.03c-.26-.19.21-.07-.11-.25l.24.02c-.38-.16.24-.07.06-.2l-.08-.02c-.08-.09.13-.08.08-.16h.05c-.06-.16.17-.21-.15-.27.26,0,.09.17.47.16-.23-.58-.15-1.07-.19-1.59.12-.07.15-.11.27-.14-.07-.05-.09-.19-.26-.21,0,.02.16-.06.17-.09.1-.12-.36-.04-.24-.16.09.02.2.01.31-.02-.27-.04-.26-.16-.36-.24.06,0,.09.02.19-.01-.3-.04,0-.23-.2-.27l.19-.02c.15-.23-.38.08-.31-.1.07.01.13-.02.2-.04-.36-.01-.33-.24-.49-.31.03,0,.07-.03.07-.03-.1-.1-.06-.29-.27-.35.04-.09.4-.21.26-.31-.32.2-.26-.14-.57.16,0-.14-.02-.37-.17-.36.15-.04.32-.33.41-.26l.13-.2c.13-.08.01.1.15-.03-.05-.04-.26-.09-.25-.16-.25.07-.63.28-.76.2.15-.04.27-.31.35-.32-.22.11-.44.22-.66.35-.05-.02.19-.22.07-.2-.06.07-.13.1-.2.14.01-.04-.21-.06.01-.36.08-.13.11,0,.15-.14-.07-.06-.16.04-.24-.02l.03-.04c-.02-.08-.24.01-.31.22.03.03.12-.19.1-.06-.16.14-.28.13-.35.08.06-.03.11-.11.18-.19-.26.16-.42.19-.58.22-.09.15.2-.25.17-.16-.03-.31-.45.13-.42-.24.03-.02-.09.23-.07.18-.06-.05.05-.28-.04-.22.05-.14-.08.01-.14.04-.07.09.01-.07.06-.07-.13.1-.45.2-.55-.04-.03.09-.19.32-.22.3l.07-.22c0-.14-.13-.01-.09-.2-.15.25.37-.15.21.03.02-.19-.24.31-.14.02-.08-.01-.2.22-.23,0,.01.04.12-.3.06-.3-.12.02-.05.1-.16.16l-.07.08c-.04.22-.09-.04-.09.21,0-.18-.16.09-.11-.28l.05-.29c-.05.02-.11.3-.16.43,0-.03-.01-.09,0-.13-.04.44-.11-.04-.18.3-.09-.16-.24-.02-.29-.29-.07.14-.13.3-.22.21.01-.04.04-.06.03-.15-.06-.13-.07-.01-.11.06,0-.07-.13-.24-.22-.39-.06.14,0,.38.02.52-.14-.42-.15.3-.31-.06.01-.07.07-.24-.02-.33-.17-.41-.07.35-.23.18l.12.35c-.11-.21-.09.24-.19-.12,0,.13-.16-.07-.04.26-.27-.22-.31.3-.68-.22,0,.07-.09.04,0,.2.13.16,0-.15.07-.04-.02.02.02.11.04.15-.08-.05-.14-.05-.22-.34-.22-.13.15.59-.04.55-.07-.13-.11-.17-.13-.13l.06.26c-.11,0-.23-.25-.36-.46-.03.07-.1.09,0,.26l-.24-.21c.17.15.05.15.06.22v-.07c-.08-.08-.1.02-.11.06.1.12.19.13.25.14.04.11,0,.11.04.23-.14-.2-.18-.08-.23-.08-.08-.01.1.21.08.21-.08-.1-.07.04-.16-.12-.01-.04.11.07.06-.04-.08-.05-.23-.22-.17-.05.04.13.33.35.16.3-.02-.06-.08-.14-.13-.22l-.15-.03.15.17s-.05-.05-.08-.07c.14.19-.06.15.11.35-.01.05-.17-.04-.22-.02v-.02c-.14-.05-.13.06-.04.19l-.03-.03s-.05.08.03.19c-.17-.05-.67-.51-.5-.26-.04.07.25.34.38.41-.21.02.02.33-.33.25.07.06.12.08.15.14-.19.12.06.45-.41.41-.06-.09-.2-.09-.32-.14.16.12-.21-.02.1.12.19.07.28.11.37.1.06.15,0,.29-.19.29.1,0,.15.04.2.08-.3-.11-.38-.04-.28.05l.19.06-.2-.02c.05.04.39.13.19.14-.07-.02-.15-.03-.21-.03.14.11.37.24.21.27h-.29s.19.12.28.08c-.19.09-.22.16-.47.17.58.28.59.52.57.75h-.15c-.13.07.26.02.16.06-.14,0-.3.07-.47.04-.15.11.26.1.34.14.19-.02-.13-.03.11-.05.07,0-.13.14.16.11-.11.04-.32.05-.44.06l.15.03c-.32.13-.62-.07-1.03.06l.05.06c-.29.11-.37-.12-.44.06.15.05.58.03.69-.04.1.12.69-.06.69.06-.16.07-.06-.09-.29-.02-.22.11.16.09.09.16.09-.08.39-.1.45-.08-.12.09-.28.03-.28.12.17-.03.31.01.4-.08.37-.07-.08.11.21.07-.25.11-.62.09-.72.22.24-.09.37,0,.72-.16-.06.05-.25.12-.41.15-.13.1.49-.04.01.15l.25-.07c-.07.05-.13.09-.25.17.01.05.38,0,.02.16.05,0,.08.1.31-.05.13-.13-.22.01.11-.17-.26.16.08.07.18.05l-.14.07c.06,0,.05.05.21-.01-.09.03-.18.08-.2.11l.22-.09c.14.02-.36.21-.26.25l-.19.02s-.14.13-.05.13c.2-.09.43-.19.59-.26.1,0-.2.14.02.07l-.25.08c-.07.03-.28.21-.24.27.09,0,.38-.11.45-.23.02.02-.07.13-.21.2.1.02.19-.13.33-.15-.11.1-.22.28-.36.44l-.34.15.03.04c-.27.11-.16.16-.42.3-.01.06.1.04.18.02.32-.38.6-.31.92-.61.16.02-.78.75-.16.4.07-.09.36-.27.22-.24.02.09.36-.26.28-.07-.18.07-.28.36-.54.46.11-.09.04-.12,0-.1-.1.14-.34.29-.27.36.07.01.13.07.28-.1.18-.18-.07-.04.13-.19.13.01-.13.3.22,0-.07-.02.1-.21.23-.33l.12-.03-.13.11c0,.16.23-.2.27-.1l-.19.28c-.21.19-.03-.2-.33.16.04.06.22-.1.19.04-.04.02-.06.01-.1.03,0,.03-.38.51-.06.32.13-.07.12-.12.23-.25.13.03.26-.09.33-.07-.21.27.08.1-.18.34.08-.19-.05-.27-.3-.04-.22.34-.04-.1-.32.18.07.08-.18.38-.33.6.02.03.11-.03.15-.05.16-.18.13-.21.28-.4.06.12.24.09.42-.07-.04.12-.18.32-.24.31.16.03.28.13.36.27.12-.39.18,0,.28-.33-.02-.11.08-.39.2-.53.02.04-.09.15-.12.23.15-.16-.1.35.11.07-.17.06-.25.42-.42.69.17-.11-.11.19-.02.24.17-.11.34-.18.46-.2.01.32.32.12.43.15.01.17-.13.49-.07.57.09.01.04-.38.12-.2l-.03.06c.06-.07.18.29.32-.19l-.12.36s.06-.04.09-.07c-.03.12-.02.24-.08.31.03.28.19-.01.27,0l-.02-.23c.17-.15.24.09.39.03l-.03.22.1-.13c-.04.21.03.36.09.18-.09.18-.19.36-.29.53-.06-.14.1-.26.08-.48-.02-.19-.15-.16-.21.05.05.03.06-.02.11-.09-.02.31-.1.28-.17.48.03,0,.06.09.08,0-.08.14-.15.15-.25.15.09-.11,0-.19.03-.28-.05.27-.17.33-.28.24-.02-.33-.28.14-.41.01.13-.25.26-.45.36-.53-.05-.16-.09-.02-.14-.17-.09.19-.21.48-.36.57l.05-.2c-.13.07-.23.35-.35.25-.2-.17-.43-.27-.58-.38l.08-.19c-.28.35-.38,0-.59.08-.1-.28-.56-.12-.45-.48-.43-.12-.82-.27-1.07-.65l.27-.15c-.21.09.09-.15.01-.18-.12.22-.3.13-.47.2.05-.3-.29-.34-.57-.38l.16-.12c-.42.06-.25-.32-.31-.54.06-.06.21-.19.16-.24-.34.04-.35-.03-.62-.11-.07-.12-.06-.36.01-.53-.62-.33-.45-.93-.79-1.42l.23-.06c-.56-.49-.09-1.16-.28-1.62l.4.09c.14-.12-.06-.32-.35-.34.14-.12-.13-.4.22-.41.11-.12-.14-.22-.16-.35.22-.25.24-.35.26-.64l-.05.06c.07.06.23.12.28.07-.08-.14.24-.3-.24-.4.38-.15.11-.75.6-.81-.13-.05-.11-.13-.17-.2.13-.24.53-.29.48-.6.08,0,.14.19.21.12,0-.08-.13-.11-.14-.22.1-.5.78-.48,1.03-.76.37-.64,1.09-.94,1.68-1.24l.03.09c.08-.44.62.18.6-.42.08.07.21-.01.23.18.11-.3.53.1.72-.25-.03,0-.04.02-.05.06.29.18.47-.17.76.02-.02.04-.07.08-.07.17.11.18.22-.42.3.04.06,0,.03-.24,0-.22.58.15,1.21-.09,1.86-.07.37.38-.16.78.25.52,0,.09.07-.17.05-.07.17-.09.04.56.19.35.06-.29.11-.13.17-.3.19.27.13.52.4.4l-.07.13c.39-.29.54.03.96-.3,1.26.61,2.48,1.46,3.21,2.75.58,1.3,1.07,2.74.68,4.17-.44.29-.43.3-.33.68-.06-.03-.07-.05-.14-.04.32.08-.02.25.27.35-.18.5-.25.99-.49,1.49,0-.09-.22-.24-.24-.14l.14.19-.09-.02c.01.08.12.23.25.21-.19.69-.68,1.25-1.24,1.67-.55.43-1.15.74-1.69,1.12-.33.06-.66.36-.95.57-1.13,0-1.95-.21-2.9.11,0,0,.13-.85.45-1.07Z"/>
          <path class="cls-2" d="M47.71,64.22c-.02-.17-.11-.26-.03-.47,0,.15.04.33.03.47Z"/>
          <path class="cls-2" d="M45.99,62.07s0-.07.01-.1c.03,0,.11-.12.08-.03-.03,0-.06.07-.1.13Z"/>
          <path class="cls-2" d="M45.63,61.75c.09-.12.23-.17.29-.15l-.29.15Z"/>
          <path class="cls-2" d="M45.66,61.02c.05-.12.1-.16.13-.13-.05.06-.08.08-.13.13Z"/>
          <path class="cls-2" d="M45.43,61.26s.02-.1.06-.17c-.08.1.11,0-.06.17Z"/>
          <path class="cls-2" d="M45.16,60.36s-.14.03-.02-.08c-.08.08.2-.04.02.08Z"/>
          <path class="cls-2" d="M44.76,60.18s.02-.03-.02-.03c.05-.05.15-.09.17-.08l-.15.11Z"/>
          <polygon class="cls-2" points="46.95 53.98 46.92 54.06 46.89 53.92 46.95 53.98"/>
          <path class="cls-2" d="M50.39,54.58c.09-.05-.05.13-.05.15-.04-.01.12-.14.05-.15Z"/>
          <polygon class="cls-2" points="52.34 55.61 52.33 55.59 52.59 55.45 52.34 55.61"/>
        </g>
        <g>
          <path class="cls-2" d="M37.93,63.74c-.06-.12-.26.06-.11-.08.12.02.21.04.11.08Z"/>
          <path class="cls-2" d="M37.74,63.26c-.38-.16-.43-.35-.42-.57-.02-.21,0-.46-.3-.56-.05-.03.4-.12.27-.19-.68-.16-.58-.75-.54-1.44l.11-.05c0-.13-.36.01-.39-.09.06-.05.11-.05.17-.13-.2.13-.21-.06-.36.02.04-.09.18-.22.22-.33l-.23.14c-.55.34-.25-.29-.62-.18.05-.04.09-.07.12-.12-.51.1-.78-.18-1.17-.2.05-.08.14-.23.17-.33-.14.25-.27.26-.38.27.08-.29-.25.19-.28,0l.03-.06c-.18.26-.05-.21-.23.12l.02-.24c-.15.38-.05-.23-.17-.05l-.02.08c-.08.08-.06-.13-.14-.07v-.05c-.15.07-.18-.16-.24.15,0-.26.15-.1.15-.47-.52.24-.94.16-1.4.2-.06-.12-.1-.15-.13-.27-.04.07-.17.09-.18.25.01,0-.06-.16-.08-.17-.11-.1-.02.36-.14.24.02-.09,0-.2-.03-.31-.03.26-.13.25-.2.35,0-.06.01-.09-.02-.19-.02.3-.2-.01-.23.19l-.03-.19c-.21-.16.08.38-.08.3,0-.06-.03-.13-.05-.2,0,.36-.2.31-.25.47,0-.03-.03-.07-.03-.07-.09.09-.26.05-.3.25-.08-.05-.21-.4-.29-.27.19.32-.11.25.18.56-.12,0-.34,0-.32.14-.05-.14-.32-.33-.26-.41l-.2-.13c-.08-.13.09,0-.04-.14-.03.05-.06.25-.13.23.07.24.3.61.23.73-.05-.15-.31-.27-.32-.35.11.22.23.43.36.64-.02.04-.22-.2-.19-.08.07.06.1.13.15.19-.04-.02-.04.19-.34-.03-.12-.08,0-.1-.14-.15-.06.07.04.15,0,.22l-.04-.03c-.08.01.03.22.23.3.03-.02-.18-.12-.07-.1.15.16.14.26.1.32-.03-.05-.12-.11-.19-.17.17.25.2.39.25.54.15.09-.25-.19-.16-.16-.29,0,.16.41-.2.36-.02-.03.23.1.18.08-.05.05-.28-.06-.21.02-.14-.06.02.07.04.13.09.06-.07-.02-.07-.06.1.12.22.4-.02.48.09.03.33.18.31.2l-.22-.07c-.14,0,0,.11-.2.07.25.13-.16-.32.02-.18-.19-.02.32.22.02.12,0,.07.22.18,0,.2.04-.01-.3-.11-.3-.06.03.11.1.05.17.14l.09.06c.22.03-.04.08.21.08-.18-.01.09.14-.27.09l-.29-.04s.3.1.43.14c-.03,0-.09,0-.13,0,.44.04-.04.1.3.16-.16.08-.02.2-.29.25.14.06.3.11.21.18-.04-.01-.06-.03-.15-.03-.13.06-.01.06.06.09-.07,0-.25.12-.39.2.14.05.38,0,.52-.02-.42.13.3.12-.07.26-.07,0-.23-.05-.33.03-.41.16.35.05.17.19l.35-.12c-.21.1.23.07-.12.16.13,0-.08.14.25.02-.23.24.28.25-.25.6.06,0,.03.07.19-.02.16-.12-.15.02-.03-.06.02.01.11-.02.15-.04-.05.08-.06.12-.34.21-.14.21.58-.17.53,0-.13.07-.17.11-.13.13l.25-.07c0,.1-.26.22-.47.36.06.02.08.08.25,0l-.22.23c.16-.17.15-.05.21-.07l-.06.02c-.08.07,0,.08.05.08.12-.1.13-.18.15-.23.1-.05.1,0,.23-.05-.2.14-.09.17-.09.21-.02.07.2-.1.2-.09-.1.08.03.06-.13.15-.04.02.07-.1-.03-.05-.05.08-.22.22-.06.16.12-.05.36-.33.29-.16-.06.03-.13.09-.21.13l-.04.14.17-.15s-.05.05-.07.08c.19-.14.13.04.33-.13.04,0-.05.16-.04.21h-.02c-.06.14.05.11.18.03l-.03.04s.07.04.18-.04c-.06.17-.51.67-.28.49.06.04.33-.26.4-.39,0,.19.3-.04.2.3.06-.07.08-.12.14-.15.09.17.4-.09.33.37-.08.06-.09.2-.14.32.12-.16-.03.21.11-.1.07-.19.11-.28.1-.37.13-.07.25-.02.24.17,0-.1.04-.15.08-.2-.11.3-.05.38.03.28l.06-.19-.02.2c.04-.05.13-.39.13-.2-.02.07-.03.15-.04.21.1-.14.22-.38.24-.22v.29s.09-.19.07-.28c.07.18.13.22.13.47.25-.58.44-.59.63-.57v.15c.07.13.01-.26.05-.16,0,.14.07.3.04.47.1.15.08-.26.11-.33-.02-.19-.02.13-.04-.12,0-.07.12.13.09-.16.03.11.05.32.06.44l.02-.15c.12.33-.05.62.08,1.03l.05-.05c.1.29-.1.36.06.44.04-.15.02-.57-.05-.69.1-.1-.07-.69.04-.68.06.16-.07.06,0,.29.1.23.08-.15.14-.08-.07-.09-.1-.39-.08-.45.08.12.03.28.11.29-.03-.17,0-.3-.08-.4-.08-.37.1.08.05-.21.1.25.1.61.22.72-.08-.24,0-.37-.17-.72.05.06.12.25.14.41.1.13-.06-.48.13,0l-.08-.25c.05.07.08.13.16.25.04,0-.02-.37.13,0,0-.04.09-.07-.06-.3-.12-.13.03.21-.15-.12.15.26.05-.07.03-.17l.07.14c-.01-.06.04-.05-.02-.2.03.08.08.18.11.2l-.09-.22c0-.13.2.36.24.27l.04.18s.12.15.12.06c-.09-.2-.2-.43-.27-.58-.02-.1.14.2.05,0l.09.25c.03.07.21.29.26.25,0-.08-.13-.37-.24-.44.02-.02.12.08.19.22.01-.09-.13-.19-.16-.32.1.11.26.23.42.37l.16.33.04-.02c.12.27.15.16.3.42.06.02.03-.09,0-.17-.36-.33-.32-.59-.62-.91,0-.15.74.78.38.18-.09-.07-.28-.36-.24-.22.08,0-.26-.36-.09-.27.08.17.35.29.47.54-.1-.11-.11-.05-.09,0,.13.11.29.34.35.28,0-.06.05-.11-.12-.27-.18-.18-.03.07-.19-.14,0-.12.29.14-.01-.2,0,.06-.2-.11-.32-.24l-.04-.11.11.12c.14.02-.2-.23-.12-.26l.27.19c.2.21-.18,0,.17.31.06-.03-.11-.21.02-.17.02.04.02.06.04.09.02,0,.51.38.3.08-.08-.13-.12-.12-.25-.23.02-.11-.11-.24-.1-.3.27.21.09-.07.33.19-.18-.09-.24.03-.02.26.34.22-.09.03.2.31.07-.06.37.19.58.34.03-.01-.04-.1-.06-.14-.19-.16-.2-.13-.4-.29.11-.04.07-.21-.1-.39.12.04.32.19.31.24.02-.14.1-.24.23-.31-.39-.13-.01-.16-.33-.27-.11,0-.38-.1-.52-.21.04-.01.15.09.23.12-.17-.14.34.11.06-.09.07.15.42.25.69.41-.12-.16.19.11.23.03-.12-.16-.2-.31-.22-.42.32,0,.11-.28.13-.37.16,0,.49.13.57.09.01-.08-.38-.05-.2-.11l.07.03c-.07-.05.29-.15-.2-.29l.37.12s-.04-.05-.08-.08c.12.03.24.02.31.08.28-.02-.01-.16-.01-.24h-.23c-.16-.14.08-.2.02-.33l.22.03-.13-.09c.21.04.36-.03.18-.08.18.08.36.17.53.26-.14.05-.26-.09-.48-.08-.19.01-.15.13.06.18.03-.04-.02-.05-.09-.1.31.02.29.09.48.16,0-.03.09-.06,0-.07.14.07.16.13.15.22-.11-.08-.19,0-.28-.04.27.05.34.15.24.25-.33.01.14.25.03.37-.25-.13-.45-.24-.54-.34-.15.04-.01.08-.17.12.19.09.49.2.58.34l-.2-.05c.07.12.35.22.26.32-.16.18-.25.38-.35.52l-.18-.08c.35.27.01.35.11.54-.27.08-.09.51-.45.39-.09.39-.21.76-.57.97l-.15-.26c.1.21-.15-.1-.17-.02.21.12.14.29.21.46-.28-.06-.31.26-.33.53l-.12-.16c.08.41-.29.23-.48.28-.06-.06-.18-.21-.22-.17.05.34,0,.34-.07.6-.11.06-.33.05-.49-.03-.28.6-.83.42-1.27.75l-.06-.23c-.44.55-1.05.09-1.47.28l.09-.4c-.1-.14-.29.06-.31.35-.1-.14-.36.14-.37-.21-.11-.11-.2.14-.33.17-.22-.22-.31-.23-.58-.24l.05.05c.06-.07.12-.24.07-.28-.13.08-.27-.23-.38.25-.12-.37-.7-.08-.73-.56-.05.13-.12.11-.19.17-.22-.12-.25-.5-.55-.44.01-.08.19-.14.12-.21-.08,0-.11.13-.21.15-.47-.08-.42-.73-.68-.94-.6-.32-.86-.98-1.14-1.52l.09-.03c-.43-.06.19-.57-.39-.54.07-.07,0-.19.18-.21-.29-.09.12-.49-.24-.65,0,.02.02.03.06.05.18-.26-.16-.43.03-.69.04.02.08.06.17.06.18-.1-.42-.19.04-.27,0-.05-.24-.03-.22,0,.15-.53-.09-1.09-.08-1.69.37-.33.77.17.51-.22.09,0-.17-.07-.07-.04-.1-.16.55-.02.34-.17-.29-.06-.14-.1-.3-.16.26-.16.51-.1.38-.36l.13.07c-.3-.37,0-.5-.33-.9.55-1.15,1.31-2.28,2.48-2.95,1.19-.52,2.5-.99,3.81-.61.26.43.26.43.62.32-.03.06-.05.07-.04.14.08-.32.23.02.33-.28.45.17.9.23,1.36.45-.09,0-.23.22-.14.24l.18-.15-.03.09c.08-.02.21-.13.2-.25.64.17,1.15.62,1.52,1.14.39.51.65,1.07,1,1.55.04.31.33.6.52.87-.04,1.05-.26,1.79.06,2.64,0,0-.85-.12-1.06-.4Z"/>
          <path class="cls-2" d="M37.95,63.89c-.17.02-.26.1-.47.02.15,0,.33-.03.47-.02Z"/>
          <path class="cls-2" d="M35.87,65.34s-.07-.01-.1-.02c0-.02-.12-.1-.04-.08,0,.02.07.06.13.09Z"/>
          <path class="cls-2" d="M35.58,65.64c-.12-.09-.18-.22-.17-.27l.17.27Z"/>
          <path class="cls-2" d="M34.9,65.55c-.11-.06-.16-.11-.14-.13.06.05.09.08.14.13Z"/>
          <path class="cls-2" d="M35.14,65.78s-.09-.02-.16-.07c.1.08-.02-.1.16.07Z"/>
          <path class="cls-2" d="M34.35,65.95s.04.14-.07.01c.08.08-.05-.19.07-.01Z"/>
          <path class="cls-2" d="M34.22,66.31s-.03-.02-.02.02c-.05-.05-.09-.15-.08-.17l.1.15Z"/>
          <polygon class="cls-2" points="29 64.53 29.08 64.55 28.94 64.58 29 64.53"/>
          <path class="cls-2" d="M29.51,61.6c-.05-.09.13.05.15.06,0,.04-.14-.11-.15-.06Z"/>
          <polygon class="cls-2" points="30.33 59.85 30.31 59.86 30.17 59.6 30.33 59.85"/>
        </g>
      </g>
    </g>
  </g>
</svg>