<?xml version="1.0" encoding="UTF-8"?>
<svg xmlns="http://www.w3.org/2000/svg" viewBox="0 0 95 95">
  <defs>
    <style>
      .cls-1 {
        fill: #fff;
      }

      .cls-2 {
        isolation: isolate;
      }

      .cls-3 {
        fill: #ff4f20;
      }

      .cls-4 {
        fill: #f7a397;
        font-family: Icebox-Magnet-Trial-90ms-RKSJ-H, 'Icebox Trial';
        font-size: 7.74px;
        mix-blend-mode: multiply;
        opacity: .49;
      }
    </style>
  </defs>
  <g class="cls-2">
    <g id="Layer_3" data-name="Layer 3">
      <text class="cls-4" transform="translate(-134.26 -112.56) rotate(20.77)"><tspan x="0" y="0" xml:space="preserve">YUM YUM YUM YUM YUM YUM YUM YUM YUM YUM  </tspan><tspan x="0" y="8" xml:space="preserve">YUM YUM YUM YUM YUM YUM YUM YUM YUM YUM  </tspan><tspan x="0" y="16" xml:space="preserve">YUM YUM YUM YUM YUM YUM YUM YUM YUM YUM  </tspan><tspan x="0" y="24" xml:space="preserve">YUM YUM YUM YUM YUM YUM YUM YUM YUM YUM  </tspan><tspan x="0" y="32" xml:space="preserve">YUM YUM YUM YUM YUM YUM YUM YUM YUM YUM  </tspan><tspan x="0" y="40" xml:space="preserve">YUM YUM YUM YUM YUM YUM YUM YUM YUM YUM  </tspan><tspan x="0" y="48" xml:space="preserve">YUM YUM YUM YUM YUM YUM YUM YUM YUM YUM  </tspan><tspan x="0" y="56">YUM YUM YUM YUM YUM YUM YUM YUM YUM YUM</tspan><tspan x="0" y="64" xml:space="preserve">YUM YUM YUM YUM YUM YUM YUM YUM YUM YUM  </tspan><tspan x="0" y="72" xml:space="preserve">YUM YUM YUM YUM YUM YUM YUM YUM YUM YUM  </tspan><tspan x="0" y="80" xml:space="preserve">YUM YUM YUM YUM YUM YUM YUM YUM YUM YUM  </tspan><tspan x="0" y="88" xml:space="preserve">YUM YUM YUM YUM YUM YUM YUM YUM YUM YUM  </tspan><tspan x="0" y="96" xml:space="preserve">YUM YUM YUM YUM YUM YUM YUM YUM YUM YUM  </tspan><tspan x="0" y="104" xml:space="preserve">YUM YUM YUM YUM YUM YUM YUM YUM YUM YUM  </tspan><tspan x="0" y="112" xml:space="preserve">YUM YUM YUM YUM YUM YUM YUM YUM YUM YUM  </tspan><tspan x="0" y="120">YUM YUM YUM YUM YUM YUM YUM YUM YUM YUM</tspan><tspan x="0" y="128" xml:space="preserve">YUM YUM YUM YUM YUM YUM YUM YUM YUM YUM  </tspan><tspan x="0" y="136" xml:space="preserve">YUM YUM YUM YUM YUM YUM YUM YUM YUM YUM  </tspan><tspan x="0" y="144" xml:space="preserve">YUM YUM YUM YUM YUM YUM YUM YUM YUM YUM  </tspan><tspan x="0" y="152" xml:space="preserve">YUM YUM YUM YUM YUM YUM YUM YUM YUM YUM  </tspan><tspan x="0" y="160" xml:space="preserve">YUM YUM YUM YUM YUM YUM YUM YUM YUM YUM  </tspan><tspan x="0" y="168" xml:space="preserve">YUM YUM YUM YUM YUM YUM YUM YUM YUM YUM  </tspan><tspan x="0" y="176" xml:space="preserve">YUM YUM YUM YUM YUM YUM YUM YUM YUM YUM  </tspan><tspan x="0" y="184" xml:space="preserve">YUM YUM YUM YUM YUM YUM YUM YUM YUM YUM   </tspan><tspan x="0" y="192" xml:space="preserve">   </tspan><tspan x="0" y="200" xml:space="preserve">   </tspan></text>
      <g>
        <path class="cls-1" d="M-33.14.24l2.15,2.38c3.47,3.84,9.4,4.14,13.24.67L20.25-31.03c3.84-3.47,4.14-9.4.67-13.24l-2.15-2.38c-7.9-8.75-21.4-9.43-30.15-1.53l-20.23,18.27c-8.75,7.9-9.43,21.4-1.53,30.15Z"/>
        <path class="cls-3" d="M-34.25-1.68c-.43-.34-.83-.77-1.19-1.25-.38-.47-.62-1.06-.91-1.62-.3-.56-.49-1.17-.74-1.75-.13-.29-.25-.57-.38-.85-.11-.29-.23-.56-.37-.83-.11-.26.39-.04.13-.61-.56-1.01-.9-2.48-.94-4.01-.06-.76.07-1.55.14-2.3.11-.75.32-1.47.48-2.14l.09.18c.13-.5-.07-1.17.07-1.71.07.01.07.19.19.09-.09-.09-.07-.34-.04-.6.05-.26.12-.52.07-.65.15-.19.31-.12.48-.36l-.15-.37c-.18-.52.03-1.02.3-1.54.26-.52.55-1.06.72-1.65.02.08,0,.2.11.14.49-1.93,2.02-3.91,3.45-5.57,0,.12.06.29.22.27-.11-.26.32-.79.7-1.24.37.02.58-.86,1.18-1.21v.08c.18-.55.66-.38.74-.91l.38-.06c-.09-.43.68-.34.86-.77l-.06-.05c.23-.33.51-.33.74-.62h.06c.57-.64,1.08-.82.87-1.02.38-.02-.54.64.04.58,1.89-2.12,4.08-4.02,6.19-5.93.32-.13.5-.24.63-.2.17-.23.76-.76.85-1.04-.07.07.24,0,.36-.1.46-.26.2-.62.71-.9-.11.21-.11.33.02.36.2-.5.71-.9,1.08-1.34-.03.1-.11.21-.04.27.29-.61.88-.72,1.18-1.21l-.04.27c.8-.44-.05-.44.6-.86-.1.16,0,.17.02.24.32-.71,1.24-1.4,1.7-1.96-.02.05.02.07.02.07.55-.55,1.21-1.02,1.75-1.69.28-.15.2.37.78-.21-.25-.24.99-.99.36-.99.3-.2.67-.47,1.04-.7.37-.22.71-.43.87-.61-.19.28.52.17.05.51l.48-.07c.02.15-.4.21-.19.28.24-.16.85-.77,1.12-.81.37-.43.62-1.02,1.4-1.46-.33.28.38.26.14.42l.89-1.07c.27-.13.16.23.52-.01-.05-.08.1-.2.2-.32.12,0,1.17-.44,1.39-.15.16.09-.44.2-.09.23.52-.15.51-.29,1.04-.42l.02.04c.36-.02,1.01-.34.59-.45-.25.04.13.18-.25.16.21-.24.84-.42,1.38-.52-.18.09-.14.18-.2.28.69-.39,1.48-.51,2.31-.71,0-.16-.3.32-.42.25.54.04,1.08,0,1.61-.08.53-.06,1.05-.13,1.48.09-.15.01-.06-.24-.06-.19.52.07.47.3.81.25.02.14.42,0,.78,0,.19-.08.08.08-.22.06.25-.06.85,0,1.54.08.34.05.7.09,1.04.19.33.11.64.22.9.35,0-.09.76-.12,1.01-.04l-.17.17c.19.17.81.3.79.48.3-.01-.21-.17-.7-.29-.5-.09-.98-.16-.6-.15.13.21,1.1-.01.85.22.48.19,1.04.16,1.42.53-.12-.09-.5.11-.12.26.69.25.24-.03.8.17l.37.1c.12-.17.57.33.44,0,0,.19,1.01.41.77.68l-.23.19c.29.12.58.03.86.06.02.04.06.14.03.16.27-.32.61.45,1.11.39.48.48,1.33,1.08,1.42,1.46.49.21.92.45,1.28.93-.11-.06-.23-.16-.32-.12.17.35.31.33.6.52-.1,0,.36.68.5,1.07.42.28.47,0,.61-.05,0,.61,1.12.85,1.22,1.51-.16-.09-.63-.39-.43-.02,0,.61.83.44,1.18,1.2l.14-.36c.08.38.85.85.52.97.27.15.38.86.62.63.1.33.24.66.37,1.02.15.35.28.71.38,1.07.21.71.29,1.4.02,1.82.07.18.06.64.22.54.16-.32-.17-.42-.06-.54.03.16.12.19.17.21-.03.42-.06.73-.34.36-.2.87.59.92.33,2.08-.13-.07-.19,0-.24.34.03.22.08.45.1.68-.27.71-.42.32-.65.28-.06.39-.25.82-.16,1.05-.15.11-.3.22-.45.32.34-.22-.02.34-.06.53l.03-.19c-.12.02-.26.44-.37.65.16.04.42-.35.58-.55,0,.22-.16.5-.21.79-.15-.19-.49.46-.7.7-.27.25-.1.44-.17.52-.1-.07-.39.45-.34.12.05-.12.27-.14.32-.37-.22.13-.35-.02-.56.44-.18.34.4.24-.21.65.09-.17.05-.26.1-.42l-.55.38.12.17c-.1.02-.07-.03-.11-.03.01.28-.64.66-.57.94-.21.22-.57.32-.8.5l.03-.05c-.34.15-.64.52-.77.82l-.02-.04c-.15.12-.47.45-.57.7-.47.21-.65-.47-.87.08-.36.34-.32.8-.08.77-.75.49-1.28,1.42-2.1,1.73-.04.15.06.13-.11.35-1.02.82-1.88,2.03-2.93,2.43.22-.32-.12-.17-.21-.25-.11.35-.41.11-.28.42.15.12.19.21.51.02-.51.6-1.39,1.39-1.83,1.55.22-.08.13.07.04.23-.16-.26-.62.09-.87.46l.08.18-.34.05c-.09.16.12.41-.32.57-.06-.04-.13-.07-.22-.06-.23.41-.54,1.02-1,1.24l-.47.07c-.14.16-.29.52.04.33-.73.44-1.14.78-1.49.79-.69,1.38-2.22,2.79-3.48,3.88l-.06-.13c-.42.21-.01.33-.31.47.02-.19-.44.02-.29-.34-.57.32-.45.73-.72,1.05.07.18.17-.31.26-.09-.01.1-.75.49-.64.76-.19.03-.23-.2-.24-.34l-.2.36c-.57.09.43-1.15-.2-1.1l-.24.27c-.45.02.49-.88-.24-.34-.2.36-.19.88.15.73-.56.6.15.73-.52,1.31-.29.04.5-.5.22-.55-.45.12-.54.65-.86.84.37-.2.3.24.14.45-.42.21.04-.39-.45.02.03.19-.33.66.12.41.07.42-.56.37-.63.8-.32-.05.1-.87-.5-.49.24.11-.42.82.09.84-.25.13-.4.01-.35-.23-.39.15-.41.96-.82.69l.07.27c-.14.02-.31.1-.55.13-.26.23-.6.99-.82.69-.06.1-.65.62-.25.6.47-.21.29-.52.72-.44-.45.02-.5.5-.64.76l-.13-.08c-.09.15-.39.39-.37.58.04-.15-.07-.18-.2-.11l.02.28c-.43.54-.38-.18-.83.31l.26-.46c-.06.1-.36.1-.55.36.04.23.03.56.06.75-.22.32-.28-.05-.41.34l.2-.5c0-.1-.46-.03-.83.31-.19.27-.37.81.08.55-.18.17-.53.32-.48.07-.38.43.2.11-.08.53-.24.04-.83.31-1.24.42l.16-.59-.25.23c.15-.49-.3,0-.31-.38-.2.12-.35.38-.46.59.81-.12-.15.97.27,1.14-.62.71-1.1-.35-1.39.78.19-.03.06.51.42.03-.46.35-.01.57-.64.9.26-.46-.68.05-.3-.62.06.13.37-.2.43-.3-.28.04-.24-.34-.68.06-.24.27-.6.61-.41.72.17.16.39-.39.38-.06-.48.54-.81.36-.75.87.32-.33.56-.23.67-.1l-.33.43-.03-.19c-.7.48,0,.38-.63.9l-.49.03c-.03-.33.97-.71.57-.94-.41.34-.39.63-.84.88.06-.1.16-.21.22-.32-.15.12-.68-.18-1.02.58-.2.36.03.18.13.31-.6.61-.68.91-1.08,1.3-.07-.15-.23,0-.41.13-.17.13-.28.21-.12-.14.36-.06,1.25-.9,1.28-1.33-.48-.07.54-.41.42-.82-.52.46-.74.16-.98.05-.15.12-.22.32-.28.42.09.22.28.05.44.22-.63.47-1.04,1.05-1.29,1.52-.29.09-.36-.14-.12-.37-.69.71-1.65,1.22-2.53,1.54.72.11-.95.48-.45.61.51-.11,1.05-.05.84.22-.32.11-.05-.15-.22-.17-.33.35-.72-.05-1.01.36.87-.4.03-.48.1-.81-.57.34-.04-.2-.64-.03-.56.34-1.32.59-2.04.7-.91-.21-2.27-.09-3.08-.28-.37-.26,0-.5-.41-.68-.49-.14.26.46-.43.08l.09-.03c-.12,0-.43-.19-.75-.33-.32-.15-.64-.29-.86-.13l.38-.2c-.11-.09-.27-.08-.39-.11.05-.1-.04-.27.2-.23-.26-.45-.84-.46-1.24-.78l.12.37c-.8-.41-1.1-.99-1.7-1.55l.17-.12-.42-.28c.23-.05.02-.46-.27-.54l1.23.6c.15.34-.44-.12-.45.18-.02.26.58.77.8.71-.19-.22-.23-.2-.44-.31.14-.27.44.05.72.06-.11-.1-.2-.3-.28-.26.3.1.51.29.89.58-.32-.12.02.25-.12.24.18-.16.58.05,1.03.41.21.48,1.04.37,1.62.67-.33.13-.76.22-1.18.1.33.33.45.2.81.49.27-.09.51-.32,1.07-.28l-.02.19c.52.03.57-.25,1.17-.09,1.05.24,2.18.17,2.99,0l.07.18c.19-.22.54-.39.92-.51.37-.16.78-.28,1-.51.51-.14.97-.49,1.36-.81.37-.34.7-.62,1.03-.7,1.37-1.43,2.56-2.7,4.13-4.02l-.07.44c.14-.4.28-.04.52-.31-.45.11.18-.55.26-.84.82-.45,1.53-1.41,2.01-2.1l.15.12c.37-.81,1.3-1.24,2.1-1.88.14-.02.4-.01.61-.23.21-.6.43-.78.91-1.46.44-.4,1.2-.98,1.73-1.3,1.37-1.81,3.24-3.13,4.78-4.88l.27.05c1.35-1.86,3.69-3.39,4.94-4.85l.12.41c.52-.32.95-.99.66-1.09.52-.32.99-1.14,1.48-1.17.5-.36.44-.64.79-1.02,1.01-.72,1.33-1.05,2.14-1.88l-.23.18c-.04.15.06.28.29.1.25-.37,1.25-.99.63-1.04,1.1-.64,2-2.1,3.14-2.64-.16-.02.05-.24.09-.39.8-.73,1.82-1.31,2.33-2.05.17-.07-.06.34.27.05.16-.21-.1-.12.09-.39.58-.68,1.28-1.23,1.98-1.76.35-.26.69-.52,1.03-.77.26-.24.56-.45.74-.74.68-1,1.21-2.1,1.49-3.27.27-1.17.29-2.39.03-3.49h.09c-.25-.33-.27-.77-.38-1.2-.08-.43-.25-.82-.62-.96,0-.2-.34-.59-.11-.58-.26-.2-.48-.54-.76-.95-.33-.44-.7-.91-1.17-1.19.06.08.11.11.21.16-.28-.46-.63-.82-.99-1.18-.36-.35-.71-.65-1.02-1.1.1.05.26.16.35.12-.17-.41-.94-.41-.81-.88-.19-.15-.28.06-.16.14-1.61-1.68-3.92-2.75-6.15-3.5-.73-.46-.72-.59-.66-.7.06-.1.13-.12-.58-.16-.08-.11-.13.14-.12.05-.54-.02-.66-.73-1.08-.57.09.29-.28.1-.32.26-1-.36-1.17-.7-2.04-.56l.08-.13c-.52.16-1.04.13-1.55.16-.51.05-1,.11-1.4.34-2.65.11-5.2.79-7.48,1.91-.57.28-1.11.62-1.67.92-.54.33-1.04.72-1.57,1.07-.51.37-.97.81-1.46,1.21-.48.39-1.01.93-1.51,1.38-4.15,3.63-8.01,7.4-12.33,10.97-1.22.6-1.29.68-2.26,1.75,0-.08.06-.15-.05-.13.15.27-.73.7-.64,1.01-.79.67-1.52,1.34-2.25,2.02-.71.68-1.52,1.39-2.16,2.07.19-.24.13-.53-.12-.26l-.14.41-.1-.02c-.15.21-.23.5.02.39-1.57,1.85-2.94,3.81-3.95,6-1.01,2.17-1.63,4.56-1.63,6.97-.06.57-.1,1.27.02,1.97.05.35.09.7.14,1.05.07.34.16.66.23.96.24,3.68,1.63,7.07,4.35,9.78,0,0-.9.15-2.09-1.03Z"/>
      </g>
      <g>
        <g>
          <circle class="cls-1" cx="46.8" cy="47.5" r="28.09"/>
          <g>
            <path class="cls-3" d="M75.41,47.93c-.03-.66-.27.35-.09-.43.11.09.2.22.09.43Z"/>
            <path class="cls-3" d="M75.15,45.32c-.2-.51-.36-1.06-.51-1.64-.13-.57-.21-1.18-.29-1.79-.12-.6-.26-1.21-.42-1.8-.08-.3-.17-.59-.27-.87-.11-.28-.26-.54-.41-.78-.12-.24.42-.07.11-.61-.35-.47-.59-1.05-.94-1.64-.33-.59-.64-1.25-.93-1.93-.69-1.31-1.29-2.76-1.98-3.96l.19.06c-.26-.46-.91-.76-1.25-1.19.06-.05.2.06.2-.11-.27.05-.75-.67-1.04-.72-.08-.22.07-.33-.04-.62l-.41-.05c-.51-.12-.91-.45-1.29-.87-.39-.41-.77-.91-1.34-1.15.08-.01.21.02.17-.08-.9-.4-1.76-1.04-2.72-1.57-.96-.52-1.9-1.13-2.91-1.48.12-.05.27-.17.2-.32-.22.21-.84,0-1.37-.2-.11-.4-1-.11-1.55-.49l.08-.04c-.56.12-.62-.41-1.11-.2l-.22-.32c-.32.33-.62-.38-1.07-.29v.08c-.4,0-.54-.25-.9-.27l-.02-.05c-.82-.12-1.26-.38-1.29-.07-.24-.3.81,0,.43-.43-2.76-.19-5.54-.35-8.28-.13-.32-.09-.52-.09-.61-.2-.26.11-1.02.22-1.24.41.09-.02-.2-.13-.35-.13-.52-.04-.48.41-1.03.41.19-.14.24-.26.15-.36-.4.36-1.02.48-1.53.69.07-.07.19-.14.14-.23-.51.43-1.1.2-1.54.57l.13-.24c-.88.08-.11.45-.85.58.15-.12.06-.16.07-.24-.54.55-1.62.82-2.17,1.25.03-.04,0-.08,0-.08-.64.38-1.43.56-2.05,1.14-.3.08-.14-.44-.79.03.22.3-1.07.83-.44.94-.63.26-1.52.85-1.81,1.2.16-.29-.54-.16-.11-.53l-.48.08c-.04-.16.39-.23.16-.3-.22.19-.81.79-1.03.92-.25.53-.32,1.17-.91,1.77.19-.37-.45-.14-.29-.37-.13.44-.26.87-.34,1.33-.17.22-.25-.16-.45.21.09.05.01.22-.01.37-.1.05-.7.91-1.06.76-.19,0,.25-.39-.06-.24-.35.38-.24.5-.55.91l-.04-.02c-.25.24-.48.9-.09.72.15-.18-.23-.06.06-.28.03.32-.28.83-.58,1.23.05-.17-.04-.21-.08-.33-.18.71-.43,1.4-.74,2.1.14.1-.13-.4.01-.45-.35.36-.57.82-.72,1.29-.15.47-.29.91-.63,1.2.03-.13.25.04.21.03-.22.41-.44.29-.49.6-.15-.03-.14.36-.19.68.04.19-.09.05-.02-.21-.02.23-.12.78-.29,1.37-.17.59-.41,1.23-.62,1.7.1.01.19.69.13.91l-.2-.14c-.19.17-.17.75-.37.75.15.55.25-1.91.29-1.21-.23.12.12.99-.15.78-.11.46.01.94-.24,1.34.06-.12-.25-.44-.3-.06-.06.67.08.21.07.75l.04.35c.22.05-.12.58.16.37-.19.06-.04.96-.39.85l-.28-.12c0,.29.28.5.4.73-.03.03-.09.11-.14.09.44.08-.07.68.26,1.04-.09.29-.12.67-.15,1.01,0,.34-.02.64-.15.79.16.46.34.86.27,1.39-.05-.1-.07-.24-.16-.27-.11.34,0,.41.09.71-.09-.06-.17.68-.27,1.07.2.44.41.25.57.27-.35.48.44,1.23.19,1.8-.11-.14-.36-.61-.39-.21-.32.51.53.75.49,1.46l.31-.25c-.14.35.45.9.07.94.16.19.13.79.44.61.05.56.32,1.18.54,1.76.2.59.46,1.08.3,1.54.12.12.24.5.37.35.06-.32-.29-.27-.21-.42.07.12.17.11.22.1.08.34.17.6-.24.44.15.8.85.46,1.24,1.34-.15.04-.16.13,0,.36l.5.33c.27.57-.1.49-.3.63.21.27.42.63.67.64v.51c0-.37.28.14.43.23l-.15-.09c-.05.11.24.39.39.53.09-.13-.09-.49-.19-.69.19.07.33.3.57.41-.24.09.19.55.33.78.14.28.39.12.44.2-.09.09.32.38.02.32-.1-.05-.07-.26-.27-.31.06.21-.12.34.29.54.3.16.31-.38.59.17-.15-.08-.24-.03-.39-.06l.29.5.18-.13c0,.09-.04.07-.04.11.28-.04.63.59.9.5.22.18.33.51.51.71l-.05-.02c.16.32.54.55.84.62l-.04.03c.12.13.46.4.71.44.26.4-.41.75.18.83.38.28.83.11.77-.11.29.31.67.53,1.03.77.38.21.75.42.99.77.15-.02.11-.1.35-.02.97.76,2.37.94,3.05,1.78-.36-.07-.11.19-.15.31.34-.05.25.33.48.05.05-.2.11-.27-.17-.48.71.16,1.74.52,2.05.85-.16-.16,0-.16.17-.17-.15.29.34.53.77.5l.11-.17.2.26c.17-.02.27-.35.61-.07,0,.08,0,.16.06.23.45-.07,1.06-.14,1.47.07l.31.34c.2,0,.55-.12.22-.25.73.28,1.22.38,1.44.67,1.4-.48,3.27-.39,4.81-.49l-.04.15c.42.12.2-.27.49-.18-.12.15.34.29.03.47.61.14.74-.32,1.11-.44.03-.2-.29.17-.25-.08.05-.08.82.02.87-.28.16.09.08.32.02.45l.34-.19c.5.27-.92.75-.39,1.1l.34-.1c.38.25-.86.48.02.45.36-.2.6-.66.25-.74.75-.2.24-.72,1.04-.85.26.13-.63.17-.43.37.43.19.73-.31,1.08-.3-.39-.01-.15-.38.07-.49.43.03-.19.33.38.22.05-.19.54-.44.06-.44.1-.42.61-.05.83-.41.26.21-.41.74.26.71-.16-.2.65-.59.21-.84.25-.01.35.17.22.38.39.02.66-.74.94-.3l.02-.29c.13.04.31.05.53.12.31-.09.81-.69.94-.33.08-.08.74-.38.37-.51-.47.04-.38.41-.75.17.4.14.56-.32.75-.52l.1.12c.11-.12.44-.24.45-.43-.07.13.04.2.16.18l.04-.28c.5-.37.32.31.83-.03-.1.13-.22.24-.33.37.07-.09.37.04.59-.19,0-.25.05-.58.05-.77.24-.26.25.13.42-.23l-.24.45c-.02.1.43.15.83-.1.22-.22.43-.71-.02-.57.19-.12.54-.18.47.05.4-.33-.18-.16.12-.5.23.02.8-.16,1.2-.2l-.17.58.26-.19c-.16.48.3.05.29.44.21-.09.36-.34.48-.53-.8,0,.17-.95-.26-1.19.6-.59,1.11.49,1.33-.63-.18.01-.1-.52-.41-.07.42-.32-.03-.57.55-.85-.22.44.68,0,.36.64-.07-.14-.35.17-.4.27.28-.02.26.36.67-.01.22-.26.56-.58.35-.7-.19-.17-.36.36-.38.04.44-.5.78-.32.64-.84-.25.34-.52.22-.63.09.1-.13.17-.28.25-.42l.06.19c.6-.49-.07-.38.46-.9l.48-.04c.09.32-.83.72-.4.94.35-.35.28-.63.68-.89-.04.1-.13.21-.16.32.13-.12.71.15.92-.61.12-.38-.07-.18-.19-.3.43-.67.43-.96.71-1.38.21.28.56-.7.51-.05-.32.09-.98,1.01-.9,1.44.24,0,.14.13,0,.29-.15.15-.35.34-.25.54.45-.47.73-.2.99-.12.12-.14.15-.35.18-.46-.15-.21-.29-.02-.49-.17.49-.54.8-1.18.84-1.63.24-.12.4.07.25.32.47-.73.91-1.53,1.42-2.18-.62.25.39-.83-.09-.68-.3.33-.74.5-.77.21.16-.21.15.09.28.04,0-.39.58-.29.41-.76-.22.75.36.36.58.64.09-.6.19.13.43-.39.09-.6.27-1.28.48-1.87.55-.63.7-1.88.93-2.54.24-.31.52.03.68-.34.11-.46-.45.24-.12-.4l.05.08c-.03-.22.56-1.2.11-1.51l.32.29c.07-.12.01-.26,0-.37.12.02.27-.11.3.12.39-.37.12-.92.19-1.39l-.27.27c-.06-.83.26-1.33.28-2.12l.22.04-.11-.48c.21.13.37-.29.2-.55.16.42.33.85.47,1.28-.17.33-.22-.4-.47-.21-.21.16-.27.89-.07,1.04.07-.28.02-.3-.03-.52.32-.06.24.37.42.61.01-.15.14-.35.04-.39.11.31.08.61.02,1.1-.07-.35-.22.15-.28,0,.26.08.28.57.1,1.15-.41.35-.09,1.15-.35,1.83-.19-.35-.32-.76-.32-1.19-.24.39-.11.47-.36.86.15.26.41.49.39,1.09l-.2-.03c-.06.53.21.62-.07,1.23-.24.52-.47,1.06-.67,1.57-.25.49-.48.95-.68,1.34l-.2-.06c.09.31-.05.7-.23,1.09-.18.39-.45.75-.53,1.08-.37.43-.65.97-.9,1.45-.29.46-.57.84-.88.96-.26.42-.52.82-.77,1.22-.27.38-.57.74-.87,1.11-.3.36-.6.72-.92,1.08-.35.34-.72.66-1.11.99l.05-.45c-.12.41-.29.03-.52.3.46-.1-.16.56-.24.87-.84.42-1.64,1.28-2.18,1.95l-.14-.15c-.47.77-1.52.99-2.42,1.47-.14,0-.4-.1-.66.05-.35.53-.62.64-1.27,1.18-.53.29-1.49.53-2.1.62-1.96,1.26-4.32,1.43-6.61,2.02l-.19-.21c-.55.18-1.15.26-1.77.33-.61.05-1.24.13-1.86.06-1.23-.1-2.42-.13-3.4-.2l.24-.38c-.58-.21-1.38-.1-1.28.21-.29-.11-.68-.11-1.04-.15-.35-.07-.67-.15-.82-.36-.59-.23-.79,0-1.32-.09-.6-.22-.99-.4-1.39-.55-.4-.15-.8-.26-1.37-.43l.27.13c.16-.04.23-.2-.04-.32-.23-.03-.6-.18-.88-.28-.27-.11-.47-.13-.37.19-.52-.4-1.21-.67-1.9-.96-.69-.28-1.31-.68-1.75-1.15.02.17-.26.03-.42.03-.24-.15-.48-.31-.7-.47-.21-.19-.43-.37-.63-.55-.42-.36-.82-.68-1.25-.86-.1-.16.37,0,.01-.29-.25-.12-.12.13-.43-.01-.75-.51-1.4-1.19-2-1.86-.56-.71-1.06-1.44-1.63-2.03-2.07-2.09-3.6-4.8-4.76-7.36h.1c-.71-.75-.41-2.2-1.2-2.73,0-.24-.18-.84.04-.73-.22-.33-.29-.85-.38-1.41-.04-.28-.09-.57-.17-.85-.06-.28-.12-.56-.25-.81,0,.1.03.15.09.26.02-.56-.07-1.06-.17-1.57-.11-.51-.21-1.03-.12-1.62.05.11.09.32.19.35.16-.45-.47-1.02,0-1.29-.02-.25-.25-.17-.22-.01-.03-1.26.06-2.55.06-3.86-.03-.66.1-1.31.13-1.97.08-.66.08-1.33.24-1.97.74-1.76.8.08.82-1.44.12-.09-.15-.13-.05-.13,0-.6.73-.7.64-1.14-.33.06-.06-.3-.23-.37.58-1.01.87-1.13,1.01-2.04l.11.12c.08-1.11.76-2.14.8-3.14,2.83-5.16,6.92-9.46,12.08-12.21,2.56-1.32,5.3-2.2,8.09-2.82,2.81-.54,5.71-.66,8.61-.29,1.31.56,1.39.59,2.89.65-.07.05-.17.05-.08.13.14-.34,1.03.19,1.23-.07,1.03.31,2.05.51,3.02.89.99.34,1.99.66,2.97,1.18-.33-.12-.6.05-.22.21h.48s.02.11.02.11c.28.08.63.07.41-.15,2.56,1.14,4.86,2.79,6.78,4.78,1.02.93,1.83,2.05,2.73,3.07l1.19,1.66c.2.28.41.54.59.83l.54.87c.26.6.71,1.23,1.07,1.94.38.7.76,1.41,1.09,2.03,1.23,4.02,1.6,7.67,1.94,11.81,0,0-.87-.55-1.15-2.18Z"/>
            <path class="cls-3" d="M75.4,48.72c-.17.14-.28.59-.48.21.16-.04.34-.27.48-.21Z"/>
            <path class="cls-3" d="M70.79,59.79s-.13.12-.17.14c.05-.13-.01-.32.11-.38-.05.14.03.15.06.24Z"/>
            <path class="cls-3" d="M69.22,62.3c-.1-.12.13-.72.31-1.04l-.31,1.04Z"/>
            <path class="cls-3" d="M67.12,64.15c-.24.1-.25.01-.06-.23.07.03.04.14.06.23Z"/>
            <path class="cls-3" d="M67.26,64.5c-.15.17-.29.2-.43.22.1.07.29-.44.43-.22Z"/>
            <path class="cls-3" d="M62.72,68.25c-.1.09-.28.37-.48.32.19,0,.43-.56.48-.32Z"/>
            <path class="cls-3" d="M60.6,69.97c-.08.04-.13.03-.19.12-.17.03-.08-.15.03-.24l.16.11Z"/>
            <polygon class="cls-3" points="20.59 53.83 20.74 54.1 20.59 54.1 20.59 53.83"/>
            <path class="cls-3" d="M24.36,32.51c.09-.31.23-.09.28-.13-.15.23-.1-.19-.28.13Z"/>
            <polygon class="cls-3" points="32.64 23.7 32.57 23.75 32.44 23.47 32.64 23.7"/>
          </g>
        </g>
        <g>
          <circle class="cls-1" cx="46.8" cy="47.5" r="15.96"/>
          <g>
            <path class="cls-3" d="M63.29,47.75c-.05-.38-.27.2-.1-.25.11.05.2.13.1.25Z"/>
            <path class="cls-3" d="M63.07,46.25c-.39-.58-.55-1.23-.6-1.94-.15-.68-.21-1.42-.68-1.95-.08-.13.41-.1.19-.39-.47-.51-.87-1.19-1.18-1.98-.36-.76-.63-1.63-.95-2.38h.15c-.12-.29-.63-.35-.8-.61.06-.05.15,0,.19-.12-.23.09-.47-.35-.69-.33-.02-.15.13-.27.09-.47l-.32.05c-.79.09-.85-.87-1.58-1.07.07-.03.15-.03.15-.11-1.1-.36-2.15-1.19-3.3-1.57.08-.06.2-.2.19-.33-.18.23-.54.13-.85.05-.01-.35-.61.05-.89-.23l.05-.05c-.36.19-.33-.31-.65-.04l-.09-.28c-.23.36-.32-.3-.6-.16l-.02.08c-.23.04-.29-.18-.5-.17v-.05c-.48-.02-.71-.27-.75.05-.12-.28.47-.05.29-.45-1.59.03-3.14-.08-4.7.04-.19-.11-.3-.12-.36-.24-.15.09-.58.15-.69.33.05-.01-.13-.15-.21-.15-.31-.07-.24.38-.57.32.1-.11.12-.23.06-.33-.21.31-.56.36-.84.52.03-.06.1-.11.06-.21-.26.36-.63.09-.86.37l.05-.21c-.53-.04-.01.42-.45.43.07-.09.02-.15,0-.22-.25.45-.88.55-1.17.85,0-.03-.02-.08-.02-.08-.35.23-.82.29-1.14.67-.18.02-.18-.42-.53-.13.2.31-.57.53-.12.74-.36.12-.9.4-1.03.64.05-.22-.43-.25-.19-.47l-.33-.03c-.06-.14.23-.11.06-.22-.12.12-.42.51-.56.56-.08.38,0,.88-.31,1.23.07-.26-.38-.21-.31-.36,0,.32,0,.64.03.97-.09.13-.23-.18-.32.06.08.06.06.17.07.28-.07.02-.36.53-.69.35-.16-.04.11-.24-.1-.19-.2.22-.09.32-.27.55l-.04-.03c-.16.12-.21.55.07.5.09-.1-.21-.09,0-.18.09.24-.06.53-.22.76,0-.11-.08-.16-.14-.25,0,.47-.1.87-.22,1.29.15.09-.19-.29-.08-.3-.51.34-.25,1.13-.75,1.38,0-.08.24.07.19.05-.13.22-.36.11-.35.3-.14-.04-.06.21-.07.39.07.12-.08.02-.05-.13.05.29-.12,1.24-.44,1.72.1.02.26.42.22.54l-.21-.1c-.16.08-.09.42-.28.4.2.33.03-1.08.15-.67-.21.05.22.59-.06.44-.06.25.12.54-.11.75.05-.06-.28-.27-.3-.06-.02.38.09.12.12.43l.06.2c.22.04-.08.32.19.22-.19.02.03.53-.33.46l-.28-.08c0,.16.29.29.41.43-.03.02-.09.06-.14.04.44.06-.06.38.28.58-.19.32-.04.83-.3.99.15.25.32.47.24.76-.04-.05-.06-.13-.16-.14-.12.19,0,.23.08.39-.08-.03-.21.39-.33.62.17.24.39.11.54.12-.39.3.36.65.06,1-.09-.07-.29-.32-.36-.09-.37.32.44.39.32.8l.33-.18c-.18.22.34.47-.03.53.15.08.02.45.34.31-.08.68.66,1.3.27,1.89.09.05.13.28.28.16.11-.22-.22-.12-.12-.23.04.07.14.04.19.03,0,.2.05.35-.29.32,0,.49.71.13.87.64-.14.05-.17.12-.07.24l.37.12c.13.32-.18.35-.39.49.13.14.24.35.45.3l-.12.36c.08-.27.22.04.32.07l-.1-.03c-.06.09.12.23.21.3.11-.11.02-.33-.01-.45.15.01.21.14.39.17-.22.12.04.35.11.48.06.17.29,0,.32.05-.09.08.17.22-.05.23-.07-.02,0-.18-.14-.18,0,.14-.17.28.11.35.21.05.33-.35.44,0-.1-.02-.19.03-.3.04l.12.32.17-.14c-.01.07-.05.06-.06.1.23-.09.37.3.6.17.13.09.13.33.22.45h-.03c.05.21.29.31.5.3l-.04.03c.06.08.26.21.43.19.09.28-.46.7-.06.65.22.15.57-.08.57-.26.14.2.36.3.57.42.22.1.42.21.51.47.1-.04.1-.11.24-.09.51.45,1.34.4,1.63,1.04-.21,0-.1.2-.15.32.22-.11.1.27.29-.03.06-.19.11-.27-.03-.42.41.04.96.24,1.11.5-.07-.13.03-.16.12-.18-.13.3.13.45.38.38l.08-.18.08.23c.1-.04.2-.37.36-.14,0,.08-.01.15.01.22.27-.11.62-.26.83-.08l.15.31c.11-.01.31-.16.15-.27.38.23.65.3.76.56.8-.53,1.8-.5,2.63-.53l-.02.15c.23.13.1-.26.26-.17-.06.14.2.29.03.47.34.15.4-.29.59-.38,0-.2-.15.15-.14-.1.03-.07.46.08.46-.21.1.1.07.32.04.44l.17-.17c.3.3-.46.68-.15,1.06l.19-.07c.23.27-.46.42.04.45.19-.17.3-.62.09-.72.41-.15.08-.7.52-.77.16.15-.34.11-.21.33.26.21.39-.23.59-.19-.23-.05-.12-.39,0-.47.25.08-.08.3.24.25.01-.18.26-.37-.01-.42,0-.39.34.02.42-.3.18.23-.14.67.24.72-.12-.22.31-.47.01-.78.15.02.23.21.18.4.24.08.29-.61.52-.15l-.03-.27c.09.06.19.09.34.19.17-.05.38-.53.52-.16.03-.06.4-.22.14-.4-.29-.05-.17.31-.44.02.27.2.3-.19.37-.34l.09.13c.05-.09.23-.14.2-.31-.02.11.06.19.13.19l-.03-.25c.24-.25.26.34.52.13-.04.1-.09.18-.14.27.03-.06.24.1.34-.06-.04-.22-.09-.5-.12-.67.11-.17.19.17.23-.12l-.07.34c0,.08.32.22.53.08.1-.15.14-.53-.13-.5.1-.07.32-.05.32.14.2-.21-.16-.17-.03-.41.16.07.52.04.79.1v.45l.14-.1c-.02.37.22.11.29.43.13-.04.19-.21.23-.34-.57-.18-.09-.76-.45-1.04.29-.36.92.64.84-.21-.13-.03-.19-.44-.32-.15.24-.16-.15-.46.22-.55-.06.3.51.14.41.58-.08-.12-.23.06-.24.13.2.04.28.35.51.14.11-.16.3-.34.11-.48-.18-.18-.19.21-.28-.06.21-.3.52-.08.3-.51-.13.2-.35.05-.47-.08.04-.08.07-.17.1-.26l.09.15c.36-.22-.14-.3.16-.56l.37.08c.15.26-.49.35-.1.61.2-.19.08-.41.34-.52,0,.07-.05.13-.06.2.07-.06.61.27.6-.25.02-.25-.1-.15-.23-.26.21-.38.15-.59.29-.82.24.25.32-.37.42.08-.25,0-.6.5-.44.83.42.13-.25.23-.02.56.25-.26.54,0,.78.12.08-.07.05-.22.06-.3-.17-.19-.24-.08-.44-.23.29-.28.42-.68.35-.98.18-.04.36.13.28.28.23-.42.49-.86.8-1.21-.5.05.18-.48-.22-.47-.2.16-.55.19-.64,0,.1-.11.15.09.26.08-.09-.26.46-.08.23-.41-.07.44.39.3.64.52-.02-.37.19.12.33-.17-.02-.37.03-.78.12-1.12.43-.3.39-1.05.51-1.41.2-.15.51.09.62-.12.06-.26-.42.09-.16-.25l.06.06c-.05-.13.42-.65-.05-.88l.34.2c.05-.06-.02-.15-.04-.22.12.02.26-.04.3.1.33-.19.05-.53.09-.79l-.25.13c-.11-.48.17-.75.14-1.2l.22.03-.12-.28c.21.08.36-.15.19-.31.17.24.34.49.5.75-.16.18-.24-.24-.47-.14-.2.08-.21.5,0,.59.05-.16,0-.17-.06-.3.31-.02.27.22.45.37,0-.09.11-.2.02-.23.12.19.12.36.09.64-.09-.21-.2.07-.28-.01.26.06.31.35.18.68-.37.17.03.68-.15,1.07-.22-.23-.39-.49-.43-.75-.2.21-.06.27-.26.47.17.17.45.34.49.7l-.2-.04c0,.32.29.41.1.76-.16.3-.3.6-.42.9-.15.28-.29.54-.41.77l-.19-.07c.27.45-.26.91-.31,1.32-.25.23-.39.55-.53.84-.16.27-.32.5-.56.53-.27.51-.54.98-.88,1.4-.16.22-.34.43-.52.64-.2.2-.42.39-.65.57l-.05-.35c0,.3-.22-.03-.34.14.33.02,0,.42,0,.66-.55.17-.95.75-1.21,1.21l-.13-.16c-.19.58-.88.6-1.41.85-.1-.03-.29-.16-.43-.06-.14.43-.3.48-.65.88-.31.17-.88.28-1.26.28-1.08.91-2.51.91-3.83,1.36l-.12-.22c-.64.29-1.4.37-2.13.33-.73-.07-1.42-.11-2.01-.09l.16-.39c-.33-.18-.81-.02-.78.28-.34-.16-.94.04-1.08-.36-.34-.16-.48.07-.8.04-.68-.33-.93-.44-1.62-.6l.15.08c.1-.06.17-.22.02-.3-.29.03-.84-.46-.79.09-.28-.29-.7-.43-1.12-.58-.42-.15-.8-.37-1.01-.72-.02.15-.19.07-.3.11-.59-.32-.95-1.01-1.52-1.13-.04-.12.27-.08.07-.25-.16-.06-.11.13-.32.07-.48-.27-.85-.69-1.18-1.11-.31-.45-.57-.91-.92-1.24-1.31-1.17-2.18-2.81-2.87-4.32l.1-.02c-.56-.38-.1-1.35-.78-1.58.04-.15-.09-.5.11-.46-.35-.37-.11-1.24-.51-1.81,0,.06.02.09.08.15.13-.67-.3-1.19-.13-1.89.05.07.08.19.18.2.17-.27-.44-.59.02-.76-.01-.15-.24-.1-.22,0,.09-1.47-.05-3.06.17-4.62.55-1.01.79.12.66-.8.1-.04-.16-.1-.06-.08-.05-.37.64-.35.48-.63-.31,0-.1-.2-.26-.26.41-.57.68-.59.68-1.16l.12.1c-.12-.72.37-1.28.21-1.98,1.64-3.07,4-5.72,7.08-7.39,1.54-.77,3.17-1.31,4.84-1.68,1.68-.33,3.42-.39,5.14-.12.77.49.8.51,1.71.48-.05.06-.1.06-.06.13.11-.33.61.1.76-.18.61.19,1.22.31,1.8.54.59.2,1.19.38,1.78.69-.2-.06-.41.14-.18.23l.32-.08v.1c.17.03.41-.03.3-.2,1.56.63,2.93,1.66,4.04,2.88.59.58,1.06,1.26,1.58,1.88.45.68.95,1.31,1.36,2.01.31.71.89,1.62,1.31,2.36.57,2.47.63,4.61.96,7.03,0,0-.86-.32-1.11-1.25Z"/>
            <path class="cls-3" d="M63.3,48.21c-.17.08-.27.33-.48.11.16-.02.33-.15.48-.11Z"/>
            <path class="cls-3" d="M60,54.26s-.1.05-.13.06c.02-.08-.07-.21.03-.22-.02.08.05.1.1.17Z"/>
            <path class="cls-3" d="M59.1,55.62c-.11-.1-.03-.46.06-.64l-.06.64Z"/>
            <path class="cls-3" d="M57.74,56.46c-.17.02-.2-.05-.1-.18.07.04.07.11.1.18Z"/>
            <path class="cls-3" d="M57.93,56.75c-.08.09-.19.08-.29.07.1.08.13-.26.29-.07Z"/>
            <path class="cls-3" d="M55.34,58.64c-.05.05-.11.25-.26.16.13.04.18-.37.26-.16Z"/>
            <path class="cls-3" d="M54.26,59.65s-.08,0-.1.07c-.11-.01-.09-.15-.03-.2l.13.13Z"/>
            <polygon class="cls-3" points="32.37 50.99 32.48 51.13 32.34 51.14 32.37 50.99"/>
            <path class="cls-3" d="M34.44,39.24c.01-.19.18-.02.21-.03-.07.13-.12-.15-.21.03Z"/>
            <polygon class="cls-3" points="38.84 34.11 38.79 34.14 38.66 33.87 38.84 34.11"/>
          </g>
        </g>
        <g>
          <path class="cls-1" d="M15.91,21.07c.45.45.15,38.45.04,50.73-.02,2.08,1.66,3.78,3.75,3.78h0c2.07,0,3.75-1.68,3.75-3.75v-15.78h4.47v-13.99c0-8.49-4.4-16.39-11.65-20.8-.26-.16-.38-.23-.35-.19Z"/>
          <g>
            <path class="cls-3" d="M16.5,21.3c-.03-.11-.06-.17-.1-.21-.03-.02-.03.09-.05.1-.02.03-.03.05-.03.04,0-.01,0-.02,0-.08,0-.08-.03-.22-.12-.37.08.02.19.09.26.24.08.2.05.17.03.28Z"/>
            <path class="cls-3" d="M16.94,22.16c1.63.18,2.66,1.96,4.07,2.75.15.11-.33.25.03.48,1.5.68,2.76,2.9,3.24,4.72l-.16-.04c.11.33.64.53.77.89-.07.04-.15-.05-.21.07.25-.03.41.54.63.61-.02.17-.2.24-.22.46l.33.08c.84.28.52,1.34,1.1,1.99-.07-.02-.15-.08-.18,0,.78,1.11,1.16,2.74,1.5,4.18-.1-.04-.28-.07-.38.03.29.03.45.47.53.86-.27.21.33.65.22,1.14l-.07-.04c.33.33-.15.52.22.78l-.22.23c.41.14-.19.5.02.78h.08c.1.26-.11.4-.04.64l-.05.02c.11.58-.12.91.2.9-.26.2-.12-.56-.49-.24.33,1.9.27,3.86.27,5.77-.13.22-.17.36-.29.4.06.19.06.72.22.89,0-.06-.16.12-.18.22-.12.35.35.38.21.76-.09-.15-.19-.2-.31-.15.25.33.21.76.29,1.15-.05-.06-.09-.15-.19-.14.28.42-.06.77.12,1.14l-.19-.14c-.22.6.39.16.25.7-.06-.14-.13-.09-.21-.12.34.52.23,1.39.34,2-.03-.05-.08-.09-.08-.09.01.15.01.3.01.44-.46,0-.92-.04-1.36.07-.27-.08-.12-.45-.63-.38.05.19-.19.22-.41.27-.21.04-.31.09-.18.3-.34-.06-1.05-.2-1.22-.07.09-.14-.55-.45-.19-.49l-.48-.22c-.07-.15.38.05.14-.14-.15,0-.46.08-.69.11.01.15.01.26,0,.3.23.63.65,1.19.7,1.66-.14-.29-.41.03-.47-.17.24.38.47.57.71.84.02.2-.29.04-.2.33.1-.01.16.11.24.19-.04.07.09.81-.27.9-.14.09-.08-.32-.21-.1,0,.36.13.38.13.74h-.05c-.05.25.16.71.36.45.01-.17-.22.06-.11-.18.21.17.27.59.28.95-.06-.12-.16-.11-.26-.16.29.49.38,1,.5,1.54.17,0-.32-.2-.22-.28-.24.7.34,1.44-.01,2.02-.03-.09.25-.05.2-.04-.02.34-.27.32-.18.54-.15.02.05.27.09.5.11.12-.07.06-.09-.14.13.31.35,1.57.14,2.29.1-.01.36.44.35.61l-.23-.07c-.14.15.02.56-.18.59.28.36-.24-1.37-.02-.89-.19.12.36.67.05.57,0,.33.27.66.05.98.04-.09-.32-.27-.3,0,.04.47.11.14.19.52l.09.24c.22.02-.03.42.22.25-.18.06.11.69-.26.64l-.29-.07c.02.21.31.34.44.5-.03.02-.09.09-.13.08.45.06-.06.61.2.97-.24.53-.49,1.38-.89,1.45-.1.42-.24.85-.67,1.12.05-.1.13-.2.08-.29-.31.12-.27.25-.45.48,0-.08-.64.16-.99.14-.29.29-.08.45-.06.6-.27-.13-.51.04-.8.18-.28.15-.62.28-.87.08.15-.06.57-.28.23-.34-.36-.41-.72.38-1.32.06l.09.38c-.23-.24-.98-.02-.8-.36-.25.06-.62-.39-.72-.05-.41-.37-.94-.7-1.34-1.13-.41-.42-.66-.93-.5-1.34-.12-.1-.2-.45-.34-.32-.1.31.27.25.18.39-.07-.11-.17-.1-.22-.09-.06-.33-.1-.57.27-.4.01-.67-.82-.51-.76-1.48.15.05.2-.06.17-.27l-.25-.39c.06-.45.34-.25.59-.26-.04-.24-.03-.54-.21-.65l.32-.29c-.23.21-.15-.2-.21-.32l.06.11c.11-.04.04-.32.01-.47-.15.03-.22.32-.27.47-.11-.12-.08-.32-.21-.48.24.06.18-.39.2-.59.05-.22-.22-.25-.21-.32.13,0,.02-.36.2-.19.04.08-.12.17-.01.3.1-.14.32-.13.16-.43-.12-.23-.48.05-.32-.38.06.11.16.14.24.22l.13-.4-.22-.02c.06-.05.08-.02.11-.04-.23-.12-.07-.62-.33-.71-.02-.2.16-.43.18-.62l.02.04c.13-.24.05-.55-.1-.76h.05c.02-.12-.01-.43-.14-.59.17-.33.84-.1.56-.47,0-.33-.4-.53-.55-.39.16-.6-.2-1.28.15-1.83-.09-.09-.15-.03-.2-.21.09-.88-.25-1.86.19-2.56.09.26.22.02.35.01-.2-.21.21-.25-.13-.33-.2.02-.3,0-.38.24-.1-.53-.1-1.32.09-1.61-.09.15-.16.03-.21-.08.32.04.37-.35.26-.64l-.2-.04.2-.19c-.06-.11-.41-.13-.22-.42.08-.01.15-.03.21-.08-.16-.3-.43-.73-.26-1.06l.29-.27c-.03-.14-.2-.38-.28-.13.18-.56.2-.92.45-1.1-.6-.97-.61-2.37-.56-3.49l.15.03c.14-.3-.26-.16-.15-.37.14.1.3-.23.47,0,.16-.43-.25-.56-.32-.84-.19-.04.12.23-.12.17-.07-.05.15-.6-.14-.66.11-.11.33-.02.45.04l-.14-.26c.34-.32.6.74,1.02.4l-.04-.24c.31-.23.34.64.45.04-.14-.27-.56-.49-.69-.26-.08-.55-.69-.26-.67-.85.17-.16.04.47.28.36.24-.28-.13-.56-.04-.81-.11.28-.4.04-.46-.14.14-.3.27.2.31-.23-.17-.07-.29-.46-.41-.13-.38-.16.11-.44-.19-.68.27-.14.62.44.75-.03-.26.07-.35-.58-.73-.33.08-.18.28-.2.44-.07.16-.26-.47-.64.04-.72l-.26-.09c.09-.08.15-.2.29-.33,0-.23-.35-.75.04-.72-.04-.07-.02-.6-.3-.4-.17.33.2.38-.17.56.3-.23-.04-.47-.14-.66l.15-.03c-.06-.11-.03-.37-.19-.44.09.09.19.04.23-.05l-.23-.12c-.12-.46.41-.11.35-.55l.18.34c-.04-.07.18-.23.11-.44-.21-.08-.47-.24-.64-.31-.09-.25.24-.11.02-.36l.26.33c.07.05.35-.22.35-.55-.07-.21-.38-.55-.5-.21,0-.17.13-.4.28-.27-.07-.38-.23.05-.36-.28.14-.13.35-.55.55-.81l.36.35v-.23c.29.3.22-.15.52.02.05-.16-.06-.35-.13-.5-.48.46-.66-.51-1.1-.38-.12-.63,1.08-.39.38-1.04-.12.11-.45-.2-.32.19.05-.39-.44-.27-.26-.72.18.34.45-.36.71.13-.15-.03-.11.27-.07.35.17-.16.44.03.44-.37-.04-.24-.05-.58-.28-.53-.25.01.03.37-.23.22-.09-.48.3-.57-.15-.77.03.31-.23.38-.4.38l-.11-.36.17.07c.12-.57-.3-.17-.26-.72l.33-.26c.29.13-.13.8.34.71.02-.36-.22-.48-.1-.82.04.08.05.18.09.25.02-.13.63-.26.27-.77-.14-.26-.17-.07-.34-.08-.05-.58-.23-.75-.26-1.12.34.08.03-.66.38-.25-.2.19-.18,1.02.15,1.23.4-.21-.06.45.35.58,0-.46.41-.44.67-.52.02-.13-.09-.25-.13-.33-.24-.05-.24.11-.49.12.07-.52-.07-1.01-.31-1.3.12-.17.36-.12.39.09-.07-.61-.04-1.27.03-1.86-.4.38-.1-.65-.43-.39-.09.31-.37.58-.55.41.03-.2.17,0,.26-.08-.22-.25.35-.39,0-.63.13.56.49.11.8.21-.18-.4.22.02.22-.38-.18-.4-.32-.9-.39-1.35.29-.56,0-1.43-.02-1.93.16-.26.51-.09.57-.38-.01-.33-.38.25-.22-.24l.07.05c-.08-.15.23-.91-.28-1.05l.39.15c.03-.09-.06-.18-.1-.25.12,0,.24-.12.32.03.26-.31-.05-.64-.07-.97l-.22.22c-.19-.57.03-.95-.07-1.5h.22s-.14-.31-.14-.31c.22.07.34-.23.16-.4l.57.84c-.12.24-.27-.25-.49-.1-.19.13-.11.64.1.72.02-.2-.03-.2-.11-.35.31-.07.3.22.51.37-.02-.1.07-.25-.02-.27.16.2.18.4.2.74-.12-.23-.19.13-.28.04.27.02.36.34.29.76-.31.3.21.78.13,1.26-.28-.19-.5-.44-.62-.73-.13.3.01.34-.12.64.21.14.52.24.65.64l-.2.02c.11.36.41.35.36.81-.09.78-.09,1.58-.11,2.17l-.2.02c.44.33.17,1.1.36,1.54-.19.76.2,1.64-.15,2.03.16,1.33.31,2.5.23,3.88l-.29-.23c.22.25-.17.16-.13.4.24-.28.31.34.49.51-.23.61.02,1.4.22,1.95l-.2.02c.38.55.04,1.21-.02,1.9-.08.08-.28.2-.25.41.33.37.3.57.51,1.11,0,.4-.09,1.05-.21,1.45.45,1.5.15,3.03.42,4.59l-.24.11c.5,1.51.03,3.37.28,4.66l-.41-.13c-.13.4.1.92.39.82-.13.4.19,1.01-.15,1.27-.08.41.18.51.24.85-.16.83-.13,1.14-.06,1.92l.03-.19c-.09-.09-.26-.1-.29.1.11.29-.12,1.07.37.79-.29.83.21,1.95-.17,2.76.13-.07.16.14.25.22,0,.73-.28,1.5-.06,2.09-.07.12-.22-.19-.24.11.05.18.17,0,.25.22.24,1.19-.28,2.4-.22,3.48.12.96.14,1.94.14,2.91v.36s0,.22,0,.22c.01.13.03.26.06.39.07.25.18.49.35.68l-.09.05c.25.03.3.22.42.4.1.18.28.32.51.12.03.12.26.15.15.3.18-.09.33.02.56.07.21.06.48.08.63-.14-.04,0-.05.02-.09.08.48.1.7-.33,1.14-.49,0,.06-.05.14,0,.23.29,0,0-.58.43-.38.06-.09-.15-.2-.17-.14.19-.18.32-.41.4-.67.03-.13.06-.26.06-.39,0-.15,0-.22-.02-.47-.07-.86-.17-1.74-.22-2.6.28-1.23.79-.08.44-1.05.09-.08-.18-.06-.08-.07-.13-.38.53-.59.28-.85-.29.11-.16-.17-.34-.18.19-.75.45-.91.23-1.5l.15.04c-.43-.7-.2-1.51-.7-2.1-.03-1.24-.08-2.46-.13-3.68l-.04-.91-.02-.45-.02-.77c-.03-1.16-.05-2.32-.08-3.48l3.81-.08h.42c.11-.01.04-.01.06-.02h.02s.02-.03.02-.03h.02s.01,0,.01-.02v-.51s-.02-2.64-.02-2.64c0-1.76,0-3.53.13-5.34.4-.88.39-.95.23-1.92.06.04.08.1.14.04-.33-.05-.03-.68-.34-.78.04-.72,0-1.31-.03-1.93-.05-.62-.14-1.24-.22-1.89.07.2.35.27.29.03l-.25-.23.08-.06c-.08-.16-.26-.32-.34-.13-.4-1.59-.72-3.18-1.22-4.74-.49-1.55-1.14-3.08-2.08-4.41-.31-.73-1.09-1.53-1.69-2.11-.65-1.08-1.38-2.06-2.25-2.92-.42-.44-.92-.8-1.4-1.18-.26-.17-.53-.33-.8-.49l-.42-.23-.21-.1-.09-.04h-.02s0,0,0,0h0s.12-.22.12-.22l.22-.43.17-.35c.04-.08.08-.19.1-.23.01-.04,0-.03.02-.04.02-.01.05-.04.06-.06.02,0-.09.04-.08.11-.02.07-.07.18-.18.39-.11.21-.23.44-.37.71.05-.07.17-.13.32-.17.31-.09.75-.11,1.27.12Z"/>
            <path class="cls-3" d="M16.57,21.87c-.16.11-.23.43-.46.19.15-.04.31-.21.46-.19Z"/>
            <path class="cls-3" d="M15.02,30.27s-.07.12-.09.15c-.01-.1-.15-.2-.07-.28.01.1.09.09.16.14Z"/>
            <path class="cls-3" d="M14.93,32.41c-.15-.03-.26-.49-.28-.76l.28.76Z"/>
            <path class="cls-3" d="M14.33,34.41c-.12.17-.19.12-.19-.11.08-.02.12.06.19.11Z"/>
            <path class="cls-3" d="M14.67,34.55c0,.17-.08.25-.17.33.12,0-.08-.38.17-.33Z"/>
            <path class="cls-3" d="M14.24,38.87c.01.1.13.33-.03.43.11-.11-.18-.51.03-.43Z"/>
            <path class="cls-3" d="M14.46,40.88c0,.06-.04.09,0,.17-.07.12-.17,0-.19-.11l.18-.06Z"/>
            <path class="cls-3" d="M19.42,76.67c-.09.02-.19.04-.29.05l.06-.14.23.09Z"/>
            <path class="cls-3" d="M24.53,61.88c-.09-.22.14-.15.16-.19.01.2-.18-.07-.16.19Z"/>
            <polygon class="cls-3" points="26.36 56.42 26.28 56.42 26.24 56.12 26.36 56.42"/>
          </g>
        </g>
        <g>
          <path class="cls-1" d="M69.45,24.14v12.13h1.1v-11.62h3.95v11.36h1.1v-11.49h3.49v15.7l-3.4,4.72v26.65c0,2.2-1.29,3.99-2.87,3.99h0c-1.59,0-2.87-1.79-2.87-3.99v-26.97l-4.18-5.81v-14.55l3.67-.13Z"/>
          <g>
            <path class="cls-3" d="M69.91,24.54c-.06-.61-.22.33-.1-.4.1.08.18.2.1.4Z"/>
            <path class="cls-3" d="M67.38,23.89c-.58.19-1.08.28-1.63.34.1,1.72-.18,3.54.12,5.16.03.25-.35-.07-.27.51.5,2.1.2,5.42-.19,7.98l-.1-.16c-.02.17,0,.34.04.54.04.21.09.44.13.65.15.15.28.29.38.45-.05.04-.2-.11-.19.06.28.04.63.72.89.82.06.21-.08.29,0,.55l.36.11c.92.35,1.14,1.64,2.02,2.39-.07-.01-.17-.08-.16.02.4.39.79.82,1.2,1.31.1,1.4.1,2.91.18,4.32-.08-.08-.23-.15-.32-.04.24.1.3.72.35,1.26-.25.24.23.93.09,1.56l-.06-.05c.26.47-.15.69.16,1.07l-.19.3c.35.21-.18.68,0,1.06h.07c.08.35-.09.54-.03.88l-.04.03c.09.79-.1,1.25.17,1.23-.22.28-.1-.77-.42-.33.28,2.61.23,5.29.23,7.92-.11.3-.14.49-.24.55.05.26.05.99.19,1.23,0-.09-.14.17-.15.31-.1.48.3.52.18,1.05-.07-.21-.16-.28-.26-.21.21.45.18,1.04.25,1.57-.05-.08-.07-.21-.16-.19.24.58-.05,1.05.1,1.56l-.16-.19c-.19.82.33.24.22.95-.05-.17-.11-.11-.17-.14.29.66.15,1.73.39,2.32-.03-.03-.07-.01-.07-.01.16.65.38,1.39.95,1.87.15.23-.38.22.25.67.08-.13.35.02.6.08.25.06.43.04.3-.17.24.1.58.16.91.1.33-.06.6-.24.72-.39-.15.25.49.13.07.45.15-.02.3-.05.45-.1.04.15-.38.25-.18.29.27-.17.74-.89.89-1.09.11-.56-.04-1.1.06-1.84.05.38.38-.15.39.11-.12-.42-.31-.77-.51-1.13-.01-.27.25-.06.17-.45-.08.02-.13-.15-.2-.27.04-.1-.08-1.12.23-1.23.12-.12.07.44.18.14,0-.5-.11-.52-.11-1.01h.04c.05-.34-.13-.98-.3-.62-.01.23.19-.09.1.25-.18-.23-.23-.81-.23-1.3.05.17.13.15.22.22-.24-.67-.32-1.37-.42-2.12-.15-.01.27.28.19.39.2-.95-.29-1.97,0-2.77.03.13-.21.07-.17.06.02-.46.23-.44.15-.74.13-.03-.04-.38-.08-.68-.09-.16.06-.08.07.19-.11-.43-.3-2.15-.12-3.14-.08.02-.3-.61-.3-.84l.19.09c.12-.21-.02-.77.15-.8-.24-.49.2,1.88.02,1.22.16-.17-.31-.92-.04-.78,0-.46-.23-.9-.04-1.34-.03.13.27.37.26,0-.03-.65-.09-.19-.16-.71l-.08-.33c-.19-.02.03-.58-.19-.34.16-.08-.1-.95.22-.88l.25.09c-.02-.28-.26-.46-.37-.68.02-.04.07-.11.11-.1-.38-.05.03-.67-.26-1.01.13-.59.01-1.5.25-1.78-.11-.45-.25-.87-.17-1.39.04.1.05.25.13.27.11-.33.01-.41-.05-.7.06.07.22-.65.35-1.01-.11-.45-.32-.3-.44-.34.19-.21.13-.53.06-.86-.03-.17-.07-.33-.07-.49,0-.12.02-.43.11-.59.03.12.07.38.12.49.05.09.11.14.15-.07.16-.24.13-.45.06-.74.08-.28.26-.79.52-.99l-.35-.05c.33-.13.43-.9.64-.66.04-.25.54-.58.25-.69.42-.37.78-.93,1.13-1.43.18-.25.35-.48.54-.67.11-.11.16-.14.23-.16.07-.03.15-.05.25-.07,0-.02,0-.04.02-.06-.02-.12,0-.27-.14-.24-.12.08-.01.15.02.21,0,.02,0,.03-.05.03,0-.02.01-.03,0-.05-.03-.04-.08-.07-.11-.08.07-.13.09-.31.34-.09.05-.1.04-.26,0-.38-.04-.12-.1-.23-.17-.34-.14-.22-.28-.47-.22-.95.12.04.17-.03.15-.31l-.21-.53c.05-.62.28-.35.5-.37-.04-.33-.03-.74-.18-.89l.27-.4c-.19.29-.13-.27-.18-.43l.05.16c.09-.06.03-.45,0-.64-.13.05-.18.44-.22.65-.09-.17-.07-.43-.18-.66.21.07.15-.54.17-.81.04-.3-.19-.34-.18-.43.11,0,.02-.49.17-.26.03.1-.1.24-.01.41.08-.2.27-.18.13-.59-.1-.31-.41.08-.28-.51.05.16.13.18.21.3l.11-.55-.19-.02c.05-.07.06-.02.09-.06-.2-.17-.06-.85-.28-.97-.02-.28.13-.59.15-.86l.02.05c.11-.33.04-.76-.09-1.04h.04c.01-.16-.01-.59-.13-.81.14-.45.71-.15.48-.65,0-.46-.35-.72-.47-.53.03-.21.04-.42.03-.63l-.02-.32-.02-.14c-.02-.17-.03-.3.12-.59-.08.01-.12.08-.17.03h0c-.09-.03-.22-.02-.34,0l-.1.02h-.04s-.2.02-.2.02c-.07,0-.08,0-.19-.02-.11-.03-.25-.08-.45-.17.09-.08-.16-.19-.29-.3h0c.15.3-.18.07.11.35.17.12.25.18.32.12.05.18.07.34.06.48,0,.09-.02.1-.04.23-.02.17-.05.31-.09.41.08-.2.13-.05.18.11-.27-.05-.31.48-.22.88l.17.06-.17.26c.05.15.35.17.19.57-.06.02-.13.04-.18.12.14.42.37,1,.23,1.45l-.24.37c.03.19.17.52.24.18-.15.77-.16,1.27-.37,1.51.39,1.02.5,2.39.51,3.67v1.43s-1.41-.01-1.41-.01c-.38,0-.75,0-1.1-.01h-1.43s.03-1.4.03-1.4v-.02s.05.02.05.02l1.35,1.35.03-.07s-.02,0-.03,0l-1.47-.45.2-.82c.09-.38-.22-.2-.14-.48.12.13.26-.32.4,0,.13-.59-.22-.76-.27-1.15-.16-.06.1.31-.1.24-.06-.07.13-.82-.12-.91.1-.15.28-.03.38.05l-.12-.36c.29-.44.52,1.01.87.54l-.04-.33c.26-.32.29.88.38.05-.12-.36-.48-.67-.59-.35-.07-.76-.59-.35-.57-1.16.15-.22.03.65.24.49.2-.38-.11-.77-.04-1.11-.09.38-.34.06-.39-.19.12-.41.23.27.26-.32-.14-.1-.25-.64-.35-.17-.32-.21.09-.61-.16-.93.23-.19.53.6.64-.04-.22.1-.3-.79-.62-.45.06-.25.24-.28.37-.09.13-.36-.4-.87.03-.99l-.22-.12c.07-.11.13-.27.25-.46,0-.32-.3-1.02.03-.99-.02-.02-.02-.33-.05-.33-.03-.06-.08-.07-.2-.02-.04.03-.04.04-.04.07,0,.07.02.13.03.18.02.1.02.18-.14.31.13-.16.12-.32.07-.48-.05-.07-.15-.05-.19-.06l.13-.04c-.05,0-.02-.08-.16,0,.07-.03.16-.08.2-.13-.07.03-.13.07-.2.11-.08.03.22-.2.28-.33,0-.01-.01-.02-.04,0l.12-.07s.06,0,.08,0c-.02,0,.03-.07.06-.14,0-.03-.03-.06-.1-.03-.2.18-.39.4-.47.54-.06.08.07-.2-.03-.02.03-.07.09-.15.16-.22.06-.06.08-.3-.11-.3-.03.02-.06.04-.09.08-.05.03-.14.08-.18.12-.09.09-.09.18.14.23-.33,0-.26-.11-.27-.24-.11.06.03.19-.01.31-.04-.12-.23-.29-.52-.47-.03-.1-.04-.2-.03-.3h-.16c.05-.25-.28-.19-.34-.44-.11-.02-.2,0-.27.03.02.1.06.2.09.29.21-.03.35.25.48.45.14.21.27.36.45.44.05.09-.18.04-.34.07-.17.03-.27.04.02.53.1-.15.38.28.27-.27-.04.53.38.36.22.99-.15-.47-.38.5-.6-.17.12.05.09-.38.06-.48-.14.22-.38-.05-.38.5.04.33.04.79.24.73.21-.01-.02-.51.19-.3.07.67-.25.78.13,1.05-.03-.42.19-.53.34-.52l.09.49-.14-.09c-.1.78.26.23.22.99l-.28.36c-.24-.18.11-1.11-.29-.97-.02.49.18.66.08,1.12-.03-.1-.04-.25-.08-.35-.01.18-.54.35-.23,1.06.12.36.14.1.29.11.04.79.2,1.03.22,1.54-.29-.11-.03.9-.32.34.17-.26.15-1.41-.12-1.69-.34.29.05-.62-.3-.79,0,.64-.34.61-.56.71-.02.18.08.35.11.45.21.07.2-.16.42-.17-.06.71.06,1.39.26,1.78-.1.24-.31.16-.33-.12.06.84.03,1.75-.03,2.55.25-.38.18.27.23.51l.15.66-1.03.22c-.09.02-.12.06-.03.13h.03s.79.16.79.16l.23-1.17c.08-.42.32-.77.46-.53-.02.27-.15,0-.22.1.09.17.02.3-.04.43l-.68,1.47-.54-.25c-.13-.06-.27-.11-.44.04.77-.11.15-.41.29-.68-.56.15.02-.19-.53-.19-.13.04-.27.07-.43.1l-.36.07-.13-.56c-.1-.44-.18-.95-.22-1.42.25-.77,0-1.96,0-2.65.13-.36.43-.12.49-.51,0-.46-.32.34-.19-.34l.06.07c-.07-.21.2-1.25-.23-1.45l.33.21c.03-.13-.05-.25-.08-.35.11,0,.2-.15.27.05.22-.42-.04-.88-.04-1.34l-.19.29c-.15-.78.04-1.31-.03-2.06l.19.02-.11-.45c.18.11.3-.3.15-.54l.46,1.17c-.11.33-.23-.36-.41-.15-.16.17-.11.87.07.99.02-.27-.02-.28-.09-.49.26-.09.25.32.43.52-.01-.14.07-.34-.01-.37.13.28.15.55.15,1.01-.1-.31-.16.17-.24.05.23.04.3.48.24,1.04-.27.41.17,1.07.1,1.73-.23-.27-.42-.61-.51-1.01-.12.41,0,.46-.11.87.17.2.44.34.55.88l-.17.03c.09.49.34.49.29,1.11-.08,1.07-.08,2.16-.11,2.98l-.17.03s.03.04.05.07l-.4-.4c.26-.17.68-.18,1.1-.18l-.58.58c0-.34,0-.68-.07-.94.17-1.04-.16-2.25.13-2.78-.13-1.83-.26-3.43-.2-5.32l.25.32c-.18-.34.14-.22.11-.55-.1.19-.17.08-.22-.12-.06-.18-.11-.46-.19-.67.12-.69.09-1.45,0-2.32.48-.05.95-.13,1.38-.2l.12.17c.24-.08.53-.12.83-.14.39-.02.42-.01.83,0,.66.04,1.29.12,1.94.15.06.04.11.12.23.17-.03.13-.05.27-.04.41.28.47.26.88.43,1.99,0,.59-.07,1.45-.18,2.01.39,2.06.14,4.16.38,6.3l-.2.15c.07.36.12.73.16,1.11l-1.15-1.15c.36-.03.73-.05,1.1-.05l-1.21,1.21c-.03-1.49.1-3.01-.05-4.18l.35.17c.11-.55-.09-1.27-.34-1.12.11-.56-.17-1.39.12-1.74.06-.57-.16-.7-.21-1.17.07-.57.09-.96.09-1.34,0-.26,0-.53-.02-.82-.01-.36-.02-.75-.04-1.21l-.02.44c.08.24.22.29.24-.12-.05-.39-.02-1.08-.05-1.53.31-.03.44-.09-.02-.27.49.05.96.07,1.44.08.27,0,.54,0,.81,0,.23,0,.46-.01.69-.02.55-.01,1.1-.03,1.63-.04.5,0,.99,0,1.42.03-.02.28-.05.56-.09.83.11-.25.13.22.21.39,0,.45-.01.92-.03,1.38l-.03.64-.03.37c-.03.49-.04.96.05,1.36-.06.16-.19-.25-.2.15.04.24.15,0,.21.3.21,1.63-.22,3.3-.16,4.78.09,1.14.13,2.3.14,3.45,0,1.31,0,2.61,0,3.86-.3.42-.59.83-.88,1.24l-.05-.07c-.24.87-1.42,1.42-1.43,2.25-.18.12-.48.6-.52.38-.1.36-.6.91-.64.89-.02.09-.03.07-.02.26,0,.23.04.45.1.66,0-.09,0-.14-.04-.24-.18.98.07,1.85-.1,2.89-.04-.11-.06-.3-.14-.33-.16.4.35.95-.05,1.17,0,.23.2.16.19.02-.16,2.27.1,4.7.19,7.06-.24,1.69-.67.1-.37,1.44-.08.11.15.08.07.1.11.52-.45.8-.24,1.16.25-.15.14.24.29.25-.16,1.04-.38,1.24-.19,2.06l-.13-.06c.36.96.17,2.07.59,2.88.03,1.32.05,2.63.08,3.93.02.65.04,1.3.05,1.94l.03.97c0,.36,0,.81-.06,1.22-.12.83-.37,1.66-.86,2.45-.48.77-1.21,1.54-2.3,1.93-1.08.41-2.4.23-3.33-.35-.93-.57-1.53-1.37-1.93-2.18-.37-.82-.57-1.66-.62-2.49-.02-.46-.01-.75-.01-1.06v-.95s-.02-3.79-.02-3.79c0-2.53,0-5.07.11-7.65.34-1.21.33-1.3.19-2.63.06.05.07.14.12.05-.28-.07-.03-.94-.29-1.06.05-1.91-.02-3.67-.03-5.64.03.31.26.47.24.1l-.18-.39.08-.06c-.04-.25-.18-.53-.27-.27-.03-.68-.05-1.37-.06-2.05v-1.02s0-.42,0-.42h0c.17.22-.37-.56-.66-.99l-.99-1.49-.98-1.49c-.36-.54-.52-.81-1.29-1.9l.04-2.22v-1.7c.12-1.15,0-2.78-.05-4.03.12-1.23.24-2.41.33-3.59.04-.59.08-1.18.11-1.77.02-.94.04-1.88.06-2.83.96-.02,1.94-.06,2.88-.11.61-.04,1.23-.09,1.86-.15,0,0-.12.18-.43.4-.32.21-.79.45-1.61.56Z"/>
            <path class="cls-3" d="M69.94,25.28c-.14.13-.21.56-.4.22.13-.04.28-.26.4-.22Z"/>
            <path class="cls-3" d="M69.96,37.21s.16.06.2.08c-.14.01-.27.13-.39.05.14-.01.12-.08.19-.13Z"/>
            <path class="cls-3" d="M71.58,33.93c.12.04.22.67.24,1.04l-.24-1.04Z"/>
            <path class="cls-3" d="M72.09,31.19c.1-.24.16-.17.16.15-.07.02-.1-.08-.16-.15Z"/>
            <path class="cls-3" d="M71.81,30.99c0-.23.07-.34.14-.45-.11,0,.07.53-.14.45Z"/>
            <path class="cls-3" d="M72.17,26.31s-.05-.08-.05-.09c.02,0,.04.02.09.07-.03-.03-.04-.03-.04-.02.03.05.13.15,0,.04Z"/>
            <path class="cls-3" d="M72.72,26.08s.02.03.05,0c.02.06-.05.15-.06.16v-.16Z"/>
            <polygon class="cls-3" points="75.01 44.31 75.23 43.91 75.29 44.03 75.01 44.31"/>
            <path class="cls-3" d="M74.78,66.7c.08.3-.12.21-.13.26-.01-.27.15.1.13-.26Z"/>
            <polygon class="cls-3" points="71.59 74.81 71.65 74.86 71.48 75.04 71.59 74.81"/>
          </g>
        </g>
      </g>
    </g>
  </g>
</svg>