<?xml version="1.0" encoding="UTF-8"?>
<svg id="Layer_2" data-name="Layer 2" xmlns="http://www.w3.org/2000/svg" viewBox="0 0 126.38 116.43">
  <defs>
    <style>
      .cls-1 {
        fill: #ff3600;
      }
    </style>
  </defs>
  <path class="cls-1" d="M63.88,58.79l-.26-.06c-.17.36.06.12.26.06Z"/>
  <path class="cls-1" d="M64.07,58.84c-.05-.06-.12-.06-.19-.04l.19.04Z"/>
  <path class="cls-1" d="M64.52,59.33c.43.23,1.08.11,1.12-.4-.38.33-.89-.05-1.12.4Z"/>
  <polygon class="cls-1" points="64.98 58.94 65.3 58.56 65.01 58.7 64.98 58.94"/>
  <path class="cls-1" d="M66.52,58.38c-.49.08-.07.68-.71.68.09.29,1.01-.16.99.33.57.06-.02-.28.23-.49l-.39.13c-.43-.26.18-.46-.11-.64Z"/>
  <path class="cls-1" d="M54.99,24.48s0-.08-.03-.14c0,0,0,0-.02,0v.15s.05,0,.05,0Z"/>
  <path class="cls-1" d="M73.12,57.18c.12-.02.19-.1.24-.19-.1-.02-.19.02-.24.19Z"/>
  <path class="cls-1" d="M75.15,55.75s-.01.01-.01.01c.05.04.04.02.01-.01Z"/>
  <path class="cls-1" d="M76.39,54.76v.03s.04.02,0-.03Z"/>
  <path class="cls-1" d="M73.36,56.98c.27.05.65.53.52-.17l-.09-.05c.22.04.28-.29.42-.41-.05-.04-.1-.07-.14-.09-.08.04-.2.09-.38.15-.26,0-.22.34-.33.57Z"/>
  <path class="cls-1" d="M47.46,53.49c-.15-.11-.08-.29-.13-.46-.57-.04.45.62-.18.42.1.13.23.2.35.26l.18-.44c-.32-.16.02.26-.22.22Z"/>
  <path class="cls-1" d="M52.82,24.77h.08c-.14-.13-.14-.22-.42-.13-.02.37.51.51.37,1.01.04-.07.14-.13.25-.16-.27-.11-.3-.43-.28-.72Z"/>
  <path class="cls-1" d="M53.1,25.49s.01,0,.02.01c.04.02.07.04.1.05.05-.03.1-.05.15-.05-.08-.04-.18-.04-.28-.01Z"/>
  <path class="cls-1" d="M44.71,48.39c-.01-.07-.02-.14-.03-.2-.04.12-.02.17.03.2Z"/>
  <path class="cls-1" d="M78.89,27.85c.09.04.18.07.25.09-.1-.08-.18-.1-.25-.09Z"/>
  <path class="cls-1" d="M56.42,23.31c.07,0,.14,0,.2,0,.03-.02.06-.04.11-.06l-.31.07Z"/>
  <path class="cls-1" d="M47.48,53.75s.02-.02.03-.02c0,0-.01,0-.02,0v.03Z"/>
  <path class="cls-1" d="M54.45,24.88c.27-.16.54-.3.83-.42l-.3.02c-.01.25-.56.09-.53.41Z"/>
  <path class="cls-1" d="M43.96,43.54c-.11,0-.24-.04-.28-.23-.03.78.11,1.4.28,2.07l-.07-.02c-.06.59.08,1.12.33,1.61.27.49.6.94.86,1.46-.09-.06-.28-.01-.37-.06.08.6.48,1.48,1.06,1.64-.14.86.35.32.38,1.34-.05.09-.12-.03-.17-.08.09.47.3.72.49,1.13.88.62,1.49.43,2.07,1.4-.49.5-.59-.41-1.02-.09.23.11.47.17.56.51-.33.03-.16.08-.44.15.03.31,1.21.26,1.15.29.11-.08.1-.19-.06-.34.49-.09.76.8,1.31,1.03-.12-.13-.44-.6-.05-.69.43.59,1.05.26,1.58.37.27.67-.72.13-.96.57-.04.21-.08.69-.42.64.38.51,1.02.43,1.51.68l-.09.1c.64.44,1.65.34,2.04.89l-.2-.31c.15,0,.45.22.76.08-.14.19.19.61-.07.68.65-.5,1.72.35,2.32-.16.11.24-.14.46-.27.59-.41-.23-.48-.45-.82-.29.35.16.54.45.42.58.54-.26,1.47-.13,1.79-.49.18.31.4.52.19.85,1.19.08-.2-1.25,1.03-.93.47.5-.69.34.07.66l-.16.02c.34,1.1.58-.57,1.19-.38-.02.54-.53.26-.16.74.64-.03,1.03-.77,1.58-.51l-.12.21c.38.04,1.12.18,1.51.16.01.11-.04.09-.12.11.71.24.3-.26.88.14l.17-.25c-.29-.2-.83-.48-1.21-.2.27-.21-.12-.48-.27-.79.49.04.98.07,1.48.07.45,0,.89-.03,1.33-.07l-.2.06.06.08.3-.15c.79-.07,1.57-.18,2.32-.35-.07.24-.08.56-.4.57.27.07.27.31.15.5.29.01.9-.04.73-.28l-.11-.04c-.01-.17.12-.27.17-.38.37-.09.25.25.35.35.65-.06-.12-.66.44-.78l.11.1c.17-.19.44-.35.52-.61.31-.11.62-.21.92-.34.22.69-.96.2-1.08.76.34.08-.02.49-.08.74l.79-.72c.11.1.56.44.6.05h-.08c.32-.23.08-.53.43-.56.08.06.05.24.05.31.31-.05.14-.31.29-.47.31-.06.02.42.3.4.17-.48.55-.17.82-.33-.3-.34.44-1.03.13-1.25.12-.07.23-.14.35-.21,0,.24.01.5.21.65l-.51.29c.42.52.82-1,1.55-.59.27-.17.15-.19.83-.29l-.44-.42c.33-.07.61.12.69.2.13-.14.27-.23.42-.31.02.1.02.2-.05.29.4.11.38-.03.33-.22,0-.2.16-.32.31-.45v.29c.07-.12.14-.27.08-.36.06-.06.11-.12.14-.2-.11-.04-.44-.21-.74-.14.68-.31,1.03-.75,1.79-.9.11.13.08.48.15.44.28-.18.29-.64.08-.79.04-.06.07-.11.1-.14.15.05.32.1.44,0,.06,0,.14,0,.23-.07-.28-.37.25-.72.17-.95-.12.08-.22.22-.32.38-.09-.4-.25-.79.07-.79-.04.55.69-.11.37.54.78-.04-.19-.47.3-.76l.4-.14c.25.24-.19.55-.04.56l.11-.22c.06.34-.61.98-.67,1.67.3-.25.57-.53.85-.8.57-1.37,1.83-2.77,1.64-4.19v.05s-.09-.07-.2-.13h.1c-.05-.12-.09-.22-.15-.33.39-.13.62-.58,1.01-.9-.29.19-.29.18-.55.12-.31-.17-.43-.25-.18-.58.23.07.14.3.43.09-.17.1-.28-.08-.25-.25.24-.16.34-.51.58-.45.04.12-.06.18-.12.24.04.12.32-.35.43,0l.04-.42c.26-.18.27.24.42.18,0-.73-.41-1.19-.49-1.82.12.05.66.16.5.12.24-.45-.43-1.11-.4-1.63.15.09.06.28.11.45.24-.8.27-1.55.42-2.28.08-.74.17-1.47.38-2.29l-.62-.34.31-.46c.02-.42.02-.82-.05-1.2-.08-.37-.19-.73-.31-1.07-.22-.7-.62-1.32-.97-2.02-.21-.44.27-.43.31-.7-.44-1.01-1.06-1.01-1.7-1.8.22.03.77,0,.55-.39-.18,0-.43.09-.49-.2l.22.03c.08-.35-.25-.44-.45-.96-.59-.75-1.42-1.27-2.4-1.39-.5-.63.5-.34.49-.53.24.57.35.24.58.21-.33-.13-.65-.34-.47-.73-.32-.3-.42-.49-.93-.58.26.05.24.33-.04.32-.16-.34-.93-.83-.56-1.17-1.62-1.29-3.53-2.65-5.6-3.48-.45.11.23.19-.03.29-.63.13-.34-.31-.84-.21l.26-.19c-.6-.27-1.4-.03-2.05.09.18-.27-.42-.37.12-.43-.29-.02-.34-1.47-.65-1.25l.05,1.35c-.05.12-.43-.06-.41.03-.19-.33-.46-.65-.65-.68-.03-.33.42-.2.67-.14.16-.54-.8-.48-.33-.92-.58,0,.03.29-.34.44l-.47-.19.35.24c-.43.1-.62.49-1.11.11-.2.14-.4.32-.6.48-.02-.43-.39-.1-.66-.21l.19-.27c-.38,0-.52-.09-.75-.26.23-.37.34.11.45-.25l-.42-.15c0,.24-.27.42.02.59-.4.43-.59.81-1.52.83-.45-.4.44-.39.25-.8-1.03-.12-1.13,1.13-1.67,1.17-.73-.06-.63.31-1.32.45.17-.33-.55-.18-.74-.41l.22-.36c-.2.14-.43.09-.42-.13.13.37-.85.57-1.27.92l.18.28c-.33.24-.76.61-1.17.67-.53.3-.28.55-.54,1.06-.35-.16-.48-.49-.55-.85.22.08.43-.13.71-.15.6-.52.95-1.42,1.77-1.49.11-.86-.5.23-.94.11,0-.05.02-.07.04-.09-.03.01-.06.02-.1.01.24-.19.65-.48.61-.88-.46.22-.1.87-.78.75-.34.36-.91-.09-1.2-.05-.17.39.08.99-.62,1.19l.1-.54c-.76.36-.07.76-.76,1.07.26-.07-.02.5.43.29-.12.3-.54.61-.95.71-.05.11.06.14.12.28.53.05.43-.64.97-.39l.05-.56c.45-.02.65.31.51.59.09-.07.15-.17.26-.13.37.62-.54-.03-.38.58l.22-.16c.12.14.09.26,0,.37-.27.14-.53.28-.79.43-.39.02-.71.1-.9-.15l.39-.41c-.38-.09-.51.5-.79.65-.04-.03-.09-.04-.13-.04.03.02.06.04.07.06-.07.02-.14.02-.23-.02-.24.15-.44.57-.71.63l.21.22-.08-.16c.21-.14.59-.19.57.1-.32.5-.76.1-1.04-.02-.18-.45.46-.34.6-.64-.42-.26-.5.31-1.18.44-.12-.54.57-.42.4-.87-.45.24-.35.58-.83.83-.11-.23.29-.57.08-.78l-.37.1c.67-.55-.52-.39-.05-.91-.39.04-.11.59-.66.66.24.08.76.15.57.58l-.46.21c-.32-.04.03-.75-.35-.69l-.27.48c.12.1.35-.01.38.24-.33.08.04.75-.05,1.13-.19.19-.36.32-.55.27-.14.8-.71,1.42-.72,2.17,0-.51-.42-.3-.76-.23.24-.43-.13-.72-.39-.88-.15.28.13.73.34.7-.46.29.06.47-.46.64-.3.14-.3-.38-.51-.4-.33.45.39.45-.02.89-.04-.06-.02-.12-.12-.12-.25.22-.24.64-.08.81-.73-.02-.42.86-.91.53-.2.78.34.04.46.28.1.4-.35.82-.51.95.07-.18,0-.41.16-.53l-.45-.03c-.69.77.57.93-.08,1.65-.04-.53-.24-.26-.43-.6.04.18-.32.83.13.52-.15.32-.31.52-.46.73.03.34.06.71.28.95-.16.45-.54.73-.77.92,0,.53-.09,1.02-.23,1.52-.13.49-.26,1.01-.11,1.56l.03-.08c-.12.84.57-.33.51.53-.5-.14-.37.5-.65.79-.13.54,0,1.01.11,1.46.09.45.21.88.13,1.39ZM75.81,55.29l.02.13s-.02-.08-.02-.12h0ZM68.14,57.95l.27-.03c-.37.23-.56.74-.93.6-.19-.1-.09-.28.02-.45.21-.05.42-.11.62-.16,0,.02,0,.03,0,.04ZM71.43,56.67c.15-.07.3-.14.44-.21-.05.3-.23.26-.44.21ZM75,54.35c.12-.1.23-.21.34-.31.04.11.07.23.07.36-.19.08-.31.04-.41-.05Z"/>
  <path class="cls-1" d="M68.61,59.47l.03-.21-.37-.04c.07.07.26.25.34.25Z"/>
  <path class="cls-1" d="M74.49,57.53l-.54.13c-.05.23.63.17.54-.13Z"/>
  <path class="cls-1" d="M76.05,56.22c-.04.17-.6.21-.39.53-.11-.4.53-.18.39-.53Z"/>
  <path class="cls-1" d="M76.47,54.96c.37-.07.81-.31,1.02-.03,0-.34-.09-.84-.46-.8.18.22,0,.34-.21.46,0-.12-.05-.24,0-.34-.14.42-.19.41-.34.72Z"/>
  <path class="cls-1" d="M78,54.75c.3-.36.57-.91.56-1.2l-.22.02c-.06.45-.49.73-.34,1.17Z"/>
  <path class="cls-1" d="M82.18,46.46c.13.13.52-.36.25-.09-.16-.13-.5.21-.25.09Z"/>
  <path class="cls-1" d="M66,20.4c-.28-.15-.46-.07-.4.21.32.03.16-.16.4-.21Z"/>
  <polygon class="cls-1" points="65.2 20.5 65.02 20.28 65.22 20.64 65.2 20.5"/>
  <path class="cls-1" d="M63.37,20.04c-.11.04-.21.09-.12.13.01-.05.07-.1.12-.13Z"/>
  <path class="cls-1" d="M63.56,20.11l.02-.15s-.1.04-.16.07c.05-.01.11,0,.13.08Z"/>
  <path class="cls-1" d="M62.96,19.89l-.32.26.4.41c.39-.23-.46-.2-.08-.67Z"/>
  <path class="cls-1" d="M60.89,20.8c-.51-.24.28-.29.43-.44-.39-.08-.8.66-1.08.19-.96.43.36.78-.71,1.18,1.09.06.36-1.05,1.37-.93Z"/>
  <path class="cls-1" d="M61.58,21.18c.03-.26-.42-.22-.53-.03.13,0,.39.33.53.03Z"/>
  <polygon class="cls-1" points="59.02 20.79 58.98 20.97 59.37 20.9 59.02 20.79"/>
  <path class="cls-1" d="M58.19,21.1l.22-.36c-.07.14-.52.23-.22.36Z"/>
  <path class="cls-1" d="M56.68,21.65l-.14.02c0-.11-.4-.22-.07-.41-.31,0-.31.73.2.39Z"/>
  <path class="cls-1" d="M53.72,23.48l-.38.39h.16c.17-.1.32-.29.22-.39Z"/>
  <path class="cls-1" d="M55.12,24.94c-.35.1-.34.04-.71.3.35.28.36-.27.71-.3Z"/>
  <path class="cls-1" d="M53.09,23.39c-.18-.17-.47.08-.42.29.03-.22.29-.25.42-.29Z"/>
  <path class="cls-1" d="M51.59,25.33c.37-.46.18-1.27.75-.96,0-.3,0-.58.02-.87-.49.16-.04.62-.33.78-.24-.03-.1-.21-.28-.23-.42.08-.73.34-.76.65.19.08.59.38.59.63Z"/>
  <path class="cls-1" d="M53.77,24.78l-.39-.05c.18.17,0,.32-.09.47.36.4.34-.3.47-.42Z"/>
  <path class="cls-1" d="M49.7,26.62c-.14.17-.25.38-.38.57l.17-.14c.06-.15.13-.29.21-.43Z"/>
  <polygon class="cls-1" points="49.15 26.72 49.01 27.29 49.28 26.81 49.15 26.72"/>
  <polygon class="cls-1" points="48.91 26.78 48.66 27.22 48.74 27.17 48.91 26.78"/>
  <path class="cls-1" d="M48.13,27.82c-.03.17-.26.44-.47.41l.25.04c.05-.18.46-.28.22-.45Z"/>
  <path class="cls-1" d="M60.92,59.16s0-.01,0-.02c-.01,0,0,0,0,.02Z"/>
  <path class="cls-1" d="M60.96,59.53c.33-.08,0-.3-.04-.37-.06.12-.01.24.04.37Z"/>
  <path class="cls-1" d="M92.91,83.44c-.03-.18.08-.4-.15-.55.03-.13.28.05.19-.2-.26-.14-.37.31-.27.72-.01.03-.02.03-.03.05.08-.06.16-.08.26-.01Z"/>
  <path class="cls-1" d="M34.56,83.94s0,.03-.01.04c0,0,0,0,0,0,0-.01,0-.02,0-.04Z"/>
  <path class="cls-1" d="M92.65,83.45s-.03.02-.04.04c.01,0,.03-.02.04-.04Z"/>
  <path class="cls-1" d="M93.1,83.66c-.08-.12-.14-.18-.19-.22.02.09.06.17.19.22Z"/>
  <path class="cls-1" d="M94.32,93.38c-.09-.71.02-1.22-.26-1.93l-.18.3c-.03-.16-.1-.32-.17-.47-.03-.2-.07-.4-.1-.6,0-.05,0-.1.03-.16.11.18.2.02.32,0-.05-.09-.16-.19-.14-.31l.41.13c-.26-.05-.35-.33-.39-.62-.05-.29-.08-.59-.14-.67l.08.04c0-.66-.18.16-.29-.26-.03-.37.37-.23.44-.6-.19-.64-.71-1.66-.72-2.44-.27-.53-.62-1.1-.96-1.53-.18-.49.38-.13.03-.55.15,0,.25-.12.35-.22-.17,0-.41-.91-.54-.38-.27-.72-.6-1.52-1.04-2.21.15.22.39.18.4-.09-.4-.21-.86-.7-1.16-1.32-.21.14-.09.33-.34.4-.09-.06-.26-.14-.33-.3.17-.22.52-.41.21-.94.43-.08.5.92.69.47.42.06,1.02,1.02.98,1.33.59.3-.19-.39.16-.47-.29-.42-.56-.53-1.01-1.16-.15.09-.04.32-.34.09-.66-.38-.22-.88-.32-1.02.1.05.18.16.27.23-.15-.45-.46-.43-.72-.84.3-.38.51.59.85.57l.06-.47c-.42-.63-.43.05-.8-.64l.19-.02-.38-.33c-.14.1-.29.34-.01.65-.52.05-.28-.27-.74-.73-.33,0,.18.21,0,.37-.14.19-.42-.16-.64-.39-.32-.42.05-.39.05-.67.1.05.37.36.23.41.6.36.24-.56.66-.31-.2-.51-.41-.31-.66-.45.09.14-.24.11-.24.25-1.11-.2,0-.74-.66-1.29-.21.42-1.21-.41-1.15.37-.19-.09-.43-.2-.53-.39.36-.05-.08-.44.39-.35l-.2-.23.56.09c-.07-.41-.34-.94-.38-1.16-.42-.21-.1.3-.53,0,.24,0,.09-.3-.08-.45.26.4-.29.32-.55.18-.34-.3-.42-.75-.32-.76l.5.1c-.4-.06-.03-.19-.35-.35-.18.06-.5.11-.72.2-.25-.14-.28-.43-.39-.46.16.05.32.08.47.14-.51-.33.19-.44-.38-.73l-.27.09c-.07-.1-.06-.22.09-.22-.18.07-.44-.16-.6-.21l.06-.15c-.27-.08-.73,0-.81-.43-.02.45.25.19.51.59.05.38-.5-.05-.61-.08.25-.31-.51-.43-.76-.61-.07-.21-.17-.35-.22-.48l-.25.16c.18-.49-.59-.22-.81-.54.24-.04.32-.23.15-.42.09.5-.71.12-.75.4-.47-.44.37-.34.34-.67-.42.09-.52-.53-.88-.31.34.34-.17.17-.34.29-.5-.27.16-.11-.14-.4-.24-.06-.66.07-.37.33-.26-.22-.76-.05-.99-.42-.03-.28.67.2.56-.04-.71-.37-.61.36-1.3.12.23.25-.22.51-.58.49-.67-.44.36.02.22-.39l-.3-.1c-.24-.58,1.13-.22.88-.71l-.38-.02c.12-.07.31-.22.22-.39-.19.21-.8-.25-.89-.21-.16.2.3.03.17.19-.38-.07-.68.25-1.17-.09.36-.05,0-.36.17-.44-.23-.19-.18.24-.52-.02l.09-.12c-.35-.14-.73-.28-1.12-.42-.4-.1-.81-.19-1.22-.25-.82-.12-1.62-.21-2.31,0-.19-.28-.66-.37-1.38-.66.32.13-.02.25-.21.26l-.32-.34c-.42-.24-1.02-.05-1.43.11-.07-.06-.08-.14-.1-.21-.38-.21-.42.14-.57.19l-.24-.21-.07.19c-.39.09-.91.02-.85-.3-.16.05-.31.11-.11.21-.38-.24-1.46-.2-2.15-.05.33.06.31.16.34.36-.09.35-.16-.06-.43.16-.01-.13-.34-.24,0-.35-.48-.2-1.04-.19-1.63-.13-.59.09-1.19.26-1.78.3-.23.09-.15.13-.24.24-.39-.11-.8-.05-1.21.05-.4.13-.8.29-1.21.31.21.09.06.55-.36.66-.39.39-.28-.33-.76-.38-.17.18-.56.31-.73.35v-.05c-.21.23-.57.46-.91.44l.04-.04c-.25.06-.59,0-.84.12-.02.29-.7.36-.76.64-.04-.02,0-.05-.09-.08l.06.21c-.18.02-.37.05-.54.09.07-.13.06-.23.17-.35-.58.1-.09.27-.32.51-.29.32-.36.11-.58.11.1-.17.29-.08.36-.16.13-.26-.25.04-.31-.07-.08.03,0,.29-.29.37-.24.09-.75.41-.79.16-.14.21-.38.3-.48.47.21-.05.58-.16.68-.04-.15.11-.45.33-.56.26l.11-.12c-.11.12-.63.29-.27.37-.17-.04-.32-.05-.48-.08-.03.24-.37.43-.62.63-.14-.21-.06-.58-.6-.32l-.31.48c-.22.16-.31.15-.35,0-.89.36-.41,1.09-1.12,1.33.07-.42-.15-.29-.46-.16.02.05.05.14-.05.23.16.05.03-.28.35-.27.17.1-.17.28-.25.42-.45-.06-.91.23-1.38.59-.45.38-.89.86-1.38,1.1.29.21-.28.39-.35.63-.2-.31-.41.43-.75.49l.36.14c-.58.33-.3,1.15-.88,1.14-.32.19-.11-.27-.06-.42-.63.11-.65,1.2-1.25,1.21.09.13.35.16.2.59-.33.17-.9.61-.91.52-.11.27-.07.4-.36.58-.06-.08.01-.2.04-.3-.38.35-.49.76-.64,1.19-.38.07-.71.9-1.15,1.31.13.45-.6.73-.24.99-.03-.03-.12,0-.16.02,0,.24.16.53.07.78l-.22-.21c-.3-.23-.4.66-.6.65.32-.1-.14.28.05.39l-.05.33c-.15.49.11.12-.13.69-.14.32-.36-.03-.27-.12-.28.21-.32.53-.37.84.04-.11.07-.15.1-.02-.04,0-.07.02-.1.06-.02.11-.04.22-.07.33,0,0,0,0-.01,0,.03-.12.05-.24.08-.32-.05.07-.1.18-.14.29-.02,0-.03.04-.03.08-.04.1-.09.19-.15.23l-.18-.16c-.09.21-.05.87.05.88-.25.42-.53,1.02-.61,1.61-.08.47-.13.89-.13,1.15-.02-.12-.09-.15-.04-.03-.03.3.08.67-.07.66.02.3-.22.22-.35.65-.05,0,.21.11.21-.02-.5.67-.07,1.71-.42,2.57,0-.07-.12-.19-.18-.27,0,.33,0,.66.03.98.04.35.13.67.25,1.02-.1-.09-.2-.07-.25-.24-.02.54,0,1.36.2,1.51.13-.43-.13.02-.1-.26.22-.46.4.18.33.53l-.05.04c-.01.27.02.38.04.49.01.05.03.11.04.18,0,.04,0,.08,0,.12v.07s.06,0,.09,0c.09.06,0,.08-.1.1-.16.06-.1-.11-.2.04-.04.05-.12.16-.1.18.01.03.05.06.09.08.1.04.25.06.42.07.33.02.69,0,.74.02.19-.08.41-.14.43-.24.47-.1.12.21.45.2.25-.12.48-.24.68-.36l.41-.28h.06c.03.11.29.29.02.4.47-.03.82-.21,1.12-.4h1.68c-.16.1.18.33-.04.44.4-.13,1.36.01,1.96.07-.39-.39.66-.23.76-.52h.43c.12.1.03.27.21.33.73-.15,1.43-.04,2.1-.08,0,0,0,.05-.03.08.6-.11,1.55-.01,2.17-.32h.05c-.02.07.02.13-.13.19.36.07.36-.07.42-.19h.4l-.11.12c.47-.18.92.16,1.46-.12.02.1-.1.13-.18.19.4-.07.84-.06,1.22-.19h.25c-.01.07-.06.14-.2.2.36.11.48-.12.7-.2h.3c.13.03.35.17.27.17.15-.11.51-.14.81-.17h.4c.08.08.23.13.46.24,2.35,0,4.74.04,7.08-.24h.33c.31.33-.58.21-.33.46-.02-.32.41-.09,1.15-.2l.03.05c.32-.07.49.14.83.04v-.08c.35-.21.79.41.98,0l.28.23c.35-.37.57.12,1-.19l-.05.06c.59.16,1.23-.4,1.46-.11.4-.04.83-.1,1.05-.26h.18c0,.08-.04.17-.09.23,1.34-.1,2.79-.1,4.12-.23h10.42c1.2.11,2.39.14,3.42,0h1.44c.01.06.03.12.11.1.2-.05.42-.08.63-.1h7.59c0-.46-.01-.91-.03-1.36.02-.03.03-.05.03-.05-.01,0-.02,0-.04,0,0-.1-.01-.21-.02-.31l.1.17c-.19-.21-.07-.61.15-.52l-.15-.41h.22ZM93.38,89.51c-.01-.06-.03-.12-.04-.19.01,0,.03.01.04.02,0,.07,0,.12,0,.17ZM34.33,84.96c.01-.06.03-.13.04-.21,0,.08-.01.16-.04.21ZM93.99,93.36s-.03.02-.05.03c-.01-.16-.02-.33-.04-.49.03,0,.05.01.09,0-.04-.09-.08-.14-.1-.19,0-.08-.02-.15-.03-.23.23.12.31.72.14.89Z"/>
  <path class="cls-1" d="M88.16,75.13c.06.07.11.12.16.15-.02-.04-.07-.08-.16-.15Z"/>
  <path class="cls-1" d="M32.48,91.62s0-.05,0-.08c-.06-.01-.04.03,0,.08Z"/>
  <path class="cls-1" d="M92.82,83.94c.09.03.15-.02.21.11.04-.14-.13-.2-.19-.33-.01.04-.07.22-.02.22Z"/>
  <path class="cls-1" d="M92.4,82.12c-.17-.32-.54-.82-.69-.79l.69.79Z"/>
  <path class="cls-1" d="M91.12,78.73c-.16-.27-.25-.29-.23-.03.09.02.18.09.23.03Z"/>
  <path class="cls-1" d="M90.41,78.33s0-.05,0-.08c-.02.02-.02.04,0,.08Z"/>
  <path class="cls-1" d="M90.51,78.72c.19-.05-.04-.27-.09-.39,0,.12,0,.24.09.39Z"/>
  <path class="cls-1" d="M87.26,73.85c.23-.07-.35-.26-.37-.45-.03.21.27.35.37.45Z"/>
  <path class="cls-1" d="M84.99,71.94c.1.04.11.08.17.15l.06-.19c-.11-.08-.31-.12-.23.04Z"/>
  <polygon class="cls-1" points="41.02 73.79 40.88 74.06 41.1 73.93 41.02 73.79"/>
  <path class="cls-1" d="M32.07,93.31s.25.06.17-.24c0,.35-.17-.03-.17.24Z"/>
  <polygon class="cls-1" points="41.5 96.23 41.58 96.23 41.53 95.93 41.5 96.23"/>
</svg>