<?xml version="1.0" encoding="UTF-8"?>
<svg id="Layer_2" data-name="Layer 2" xmlns="http://www.w3.org/2000/svg" viewBox="0 0 300 300">
  <defs>
    <style>
      .cls-1 {
        fill: #ba75f1;
      }
    </style>
  </defs>
  <path class="cls-1" d="M231.03,136.54l-.31,1.11c1.64.71.53-.24.31-1.11Z"/>
  <path class="cls-1" d="M231.03,136.54l.23-.79c-.27.22-.29.5-.23.79Z"/>
  <path class="cls-1" d="M233.59,133.82c1.06-1.82.38-4.58-1.88-4.75,1.48,1.6-.17,3.78,1.88,4.75Z"/>
  <polygon class="cls-1" points="229.96 130.53 230.65 131.74 231.75 131.87 229.96 130.53"/>
  <path class="cls-1" d="M229.27,125.35c.36,2.07,3.16.25,3.04,3,.68-.19.54-1.27.5-2.29-.04-1.02-.04-1.96,1.08-1.93.27-2.42-1.29.11-2.28-.94l.6,1.66c-1.18,1.82-2.15-.72-2.94.49Z"/>
  <path class="cls-1" d="M85.42,174.32c-.17.01-.37.05-.63.16,0,.02-.01.04-.02.07h.67s-.01-.23-.01-.23Z"/>
  <path class="cls-1" d="M224.5,97.17c-.08-.54-.41-.84-.82-1.03-.12.45.03.83.82,1.03Z"/>
  <path class="cls-1" d="M218.43,88.54s.03.03.05.04c.17-.21.11-.2-.05-.04Z"/>
  <path class="cls-1" d="M214.25,83.25s.08.03.12.05c.09-.18.08-.24-.12-.05Z"/>
  <path class="cls-1" d="M223.68,96.14c.3-1.18,2.47-2.9-.71-2.23l-.22.41c.21-.95-1.31-1.15-1.84-1.73-.19.23-.34.44-.45.65.19.34.39.82.65,1.59-.04,1.13,1.53.85,2.57,1.31Z"/>
  <path class="cls-1" d="M209.17,206.96c-.44.67-1.27.32-1.97.56-.05,2.59,2.63-2,1.88.86.56-.45.84-1.01,1.07-1.56l-1.97-.86c-.63,1.44,1.12-.07.99,1Z"/>
  <path class="cls-1" d="M86.42,183.69l-.02-.35c-.6.65-.95.65-.65,1.87,1.65.05,2.41-2.31,4.57-1.79-.31-.17-.53-.6-.64-1.07-.58,1.23-1.97,1.39-3.26,1.33Z"/>
  <path class="cls-1" d="M89.68,182.35s.03-.06.06-.1c.11-.16.19-.31.25-.46-.13-.2-.2-.42-.19-.66-.19.34-.22.79-.11,1.21Z"/>
  <path class="cls-1" d="M187.25,218.68c-.31.05-.59.1-.84.14.51.19.74.1.84-.14Z"/>
  <path class="cls-1" d="M99.35,72.33c.15-.38.28-.76.36-1.1-.35.43-.41.78-.36,1.1Z"/>
  <path class="cls-1" d="M80.3,168.31c.04-.3.02-.58-.02-.87-.09-.15-.18-.26-.27-.45l.29,1.31Z"/>
  <path class="cls-1" d="M210.3,206.88c-.04-.05-.08-.1-.11-.16-.01.03-.02.05-.04.1l.15.06Z"/>
  <path class="cls-1" d="M87.15,176.59l-.93-1.75-.85-1.8.06,1.28c1.16,0,.32,2.43,1.73,2.27Z"/>
  <path class="cls-1" d="M71.89,157.93c.14,0,.26-.01.37-.04-.12,0-.24,0-.37.04Z"/>
  <path class="cls-1" d="M233.82,156.58c-1.2-.79-2.93-1.71-2.55-3.03,2.49.12,1.27,2.29,3.44.73-.14-2.75-3.47-4.4-2.41-6.78l.98.53c.06-1.64.8-4.77.71-6.41.49-.05.41.18.52.5,1.04-3.01-1.21-1.3.56-3.75l-1.17-.72c-.9,1.26-2.08,3.53-.83,5.15-.64-.82-1.46-.25-2.38.37-.41.28-.84.57-1.28.76.17-2.07.28-4.16.28-6.28,0-1.89-.09-3.76-.23-5.62l.3.83.38-.24-.74-1.26c-.28-3.34-.77-6.62-1.47-9.83,1.08.29,2.55.32,2.59,1.66.3-1.14,1.4-1.17,2.3-.67.01-1.23-.05-3.84-1.19-3.11l-.19.49c-.8.07-1.23-.49-1.69-.71-.36-1.57,1.17-1.08,1.67-1.54-.28-2.76-3.03.58-3.6-1.79l.48-.48c-.87-.73-1.52-1.93-2.72-2.19-.45-1.32-.94-2.62-1.47-3.9,1.55-.56,1.84.35,1.98,1.5.16,1.26.02,2.79,1.39,3.06.43-1.5,2.22.04,3.34.29-1.03-1.14-2.08-2.25-3.11-3.32.45-.49,2.03-2.43.27-2.55l.03.34c-1.08-1.34-2.52-.25-2.55-1.75.28-.36,1.09-.24,1.41-.26-.17-1.35-1.35-.59-2.07-1.2-.18-1.34,1.89-.16,1.88-1.36-2.14-.67-.72-2.33-1.41-3.49-.97.83-2.29.05-3.51-.41-.88-.35-1.65-.54-2.11.05-.29-.5-.57-1.01-.88-1.51,1.09-.05,2.27-.11,2.95-1.01l1.16,2.2c1.25-.92.14-1.84-.98-2.87-1.18-1.01-2.38-2.11-1.42-3.78-.68-1.19-.82-.64-1.09-3.66l-1.96,2c-.25-1.43.64-2.67,1.01-3.03-.63-.51-1.01-1.11-1.37-1.76.43-.11.89-.12,1.3.17.55-1.76-.08-1.66-.94-1.4-.9.02-1.37-.66-1.91-1.32l1.27-.09c-.52-.25-1.16-.53-1.57-.25-.24-.26-.5-.47-.84-.59-.19.49-1.03,1.99-.8,3.34-.56-1.52-1.42-2.58-2.13-3.71-.69-1.15-1.32-2.3-1.51-4.05.61-.51,2.12-.44,1.95-.75-.72-1.25-2.75-1.24-3.46-.25-.28-.14-.47-.27-.63-.4.26-.68.5-1.44.09-1.95.05-.29,0-.61-.29-.99-1.72,1.35-3.08-1.05-4.12-.62.34.55.93.99,1.56,1.4-1.76.47-3.49,1.23-3.42-.21,2.4.11-.32-3.12,2.43-1.76-.03-3.53-2.08.92-3.29-1.17l-.56-1.74c1.07-1.19,2.4.73,2.46.04l-.96-.43c.76-.19,1.84.43,3.08,1.13,1.21.74,2.63,1.5,4.14,1.6-1.07-1.27-2.2-2.52-3.34-3.76-3.1-1.07-5.91-3.09-8.93-4.62-2.96-1.58-6.09-2.7-9.13-2.14.07.02.14.04.22.05-.14.1-.3.36-.61.88l-.05-.46c-.46.23-.92.46-1.39.71-.49-1.77-2.35-2.91-3.74-4.58.78,1.3.77,1.3.48,2.46-.76,1.42-1.14,2.01-2.51.92.33-1.08,1.32-.72.42-1.97.44.73-.36,1.3-1.09,1.21-.66-1.02-2.15-1.56-1.86-2.67.51-.17.75.3.99.54.52-.17-1.46-1.48.08-2l-1.79-.17c-.76-1.2,1.06-1.25.82-1.95-1.55-.06-2.86.53-4.1,1.11-1.24.57-2.4,1.17-3.75,1.34.23-.57.72-3.04.56-2.33-.95-.54-2.15-.1-3.38.55-1.23.65-2.47,1.43-3.59,1.39.41-.7,1.22-.3,1.95-.57-3.4-.95-6.58-1.34-9.72-1.83-1.58-.24-3.15-.42-4.76-.75-1.61-.25-3.27-.59-5.03-1.02-.49.93-.97,1.86-1.43,2.79l-1.97-1.48c-1.81-.12-3.51-.04-5.12.23-1.6.32-3.13.69-4.58,1.29-1.46.58-2.88,1.19-4.28,1.95-.7.36-1.41.73-2.14,1.1-.71.39-1.43.79-2.17,1.2-1.87.92-1.86-1.23-3.07-1.49-2.21.84-3.28,2.02-4.18,3.37-.92,1.32-1.72,2.71-3.43,4.06.11-.98-.07-3.45-1.8-2.58.07.83.46,1.94-.8,2.17l.11-1c-1.55-.41-1.87,1.1-4.07,1.94-3.33,2.36-5.3,6.24-5.74,10.49-2.71,2.09-1.62-2.32-2.46-2.3,2.51-.92,1.01-1.48.84-2.52-.54,1.45-1.45,2.79-3.19,1.93-1.27,1.39-2,1.88-2.37,4.1.19-1.11,1.45-.97,1.44.24-.75.31-1.65,1.29-2.57,1.97-.91.68-1.78,1.12-2.59.28-5.57,6.89-11.3,15.13-14.87,24,.51,1.94.87-.95,1.32.19.6,2.71-1.42,1.4-.94,3.55l-.9-1.15c-1.16,2.55.16,6.07.63,8.84-1.27-.8-1.73,1.77-1.97-.55-.07.65-1.74.95-3.26,1.3-1.53.35-2.93.74-2.41,1.39,2.06-.07,4.12-.11,6.17-.11.56.21-.2,1.86.23,1.77-1.43.81-3,1.94-3.14,2.72-1.55.12-.9-1.8-.64-2.87-2.47-.7-2.27,3.4-4.26,1.36-.02,2.49,1.33-.11,2,1.48-.29.66-.62,1.32-.87,1.99.34-.5.72-.98,1.09-1.47.43,1.85,2.33,2.67.62,4.76.7.88,1.48,1.73,2.24,2.57-2,.07-.5,1.66-1.04,2.82l-1.22-.82c-.04,1.62-.36,2.22-1.13,3.23-1.73-.97.46-1.47-1.19-1.93l-.64,1.81c1.13.02,1.99,1.17,2.7-.09,2.05,1.7,3.79,2.53,3.76,6.49-.9.95-1.36.5-1.83-.11-.44-.6-.88-1.35-1.83-.93-.35,2.17,1.07,3.41,2.46,4.34,1.39.94,2.92,1.59,2.94,2.78-.21,1.56.14,2.23.64,2.88.48.65,1.08,1.27,1.41,2.74-1.5-.69-.91,2.37-1.99,3.22l-1.61-.91c.53.73.38,1.58-.3,1.78,1.43.11,2.37,3.78,3.76,5.42l1.33-.82c.51.71,1.17,1.52,1.72,2.37.56.85,1.08,1.71,1.21,2.59,1.38,2.2,2.47,1.13,4.73,2.19-.81,1.53-2.31,2.14-3.97,2.5.42-.96-.48-1.84-.52-3.07-1.2-1.26-2.82-2.21-4.14-3.33-1.28-1.13-2.43-2.38-2.52-4.13-1.97-.2-1.71.33-1.05,1.16.67.83,1.79,1.89,1.44,2.89-.22.03-.33-.07-.41-.18.04.14.07.28.03.43-.82-1.03-2.05-2.77-3.91-2.58.99,1.96,3.97.34,3.29,3.31,1.6,1.45-.48,3.94-.28,5.18,1.78.69,4.52-.47,5.27,2.58l-2.43-.37c.71,1.66,1.62,1.68,2.45,1.69.84,0,1.66-.02,2.35,1.43-.3-1.11,2.28,0,1.36-1.9,1.42.43,2.71,2.26,3.05,4.02.49.22.65-.28,1.29-.57.16-1.16-.5-1.61-1.08-2.07-.58-.46-1.07-.94-.5-2.09l-2.56-.12c-.08-1.92,1.47-2.82,2.72-2.3-.3-.38-.77-.61-.55-1.1,2.87-1.7-.18,2.32,2.62,1.55l-.74-.92c.64-.52,1.2-.45,1.68-.08.58,1.14,1.19,2.26,1.83,3.37,0,.78.05,1.51.01,2.13-.03.73-.21,1.34-.85,1.8-.62-.52-1.21-1.06-1.78-1.63-.5,1.72,2.2,2.14,2.85,3.29-.13.19-.2.39-.2.59.08-.14.17-.25.3-.33.09.29.07.6-.11.99.64,1.01,2.38,1.88,2.66,3.04l1.03-.96-.72.36c-.61-.89-.72-2.58.59-2.54,1.07.68,1.15,1.49.9,2.3-.26.82-.87,1.63-1.17,2.24-2.05.88-1.49-1.89-2.77-2.48-.64.92-.33,1.5.23,2.16.56.66,1.33,1.44,1.59,2.9-2.47.65-1.85-2.4-3.92-1.56,1.03,1.94,2.63,1.38,3.63,3.46-1.03.5-2.5-1.17-3.49-.2.14.53.26,1.06.41,1.59-1.2-1.39-1.67-.82-2.11-.12-.44.7-.86,1.52-2,.53.14,1.72,2.67.35,2.85,2.79.4-1.1.82-3.44,2.72-2.64l.84,2.02c-.25,1.43-3.31-.02-3.12,1.66.69.4,1.38.79,2.1,1.14.45-.53-.02-1.54,1.15-1.7.33,1.44,3.39-.33,5.1-.04.78.83,1.34,1.56,1.07,2.43,3.48.51,6.22,2.84,9.45,2.85-2.22.02-1.42,1.96-1.13,3.43-1.86-.99-3.19.68-3.93,1.89,1.19.66,3.23-.69,3.13-1.65.48.77.9.88,1.27.87-.03.14-.07.29-.29.41l-.36-.14c.38.31.67.61.45.82l-.72-.29c-.62.14,1.47.75.88.94.55.18.95.2,1.4.26-.22.24-.57.42-.9.6-.12-.06-.22-.12-.31-.17.12.08.19.14.25.2-.23.13-.44.27-.58.43l-.12-.08-.25.29c.55.42.49.74.07.92l-.98-.54c-.61.02.33.22.49.33.41.48-.32.32-.97.29.92.86-2.04.44-.62,1.39l-.63-.15c1.11,1.02-.98,1.08.7,2.15-2.39,0,1.78,1.1-.37,1.13l.31.08c-1.07,2.04-2.95,3.96-2.58,6.32l-.43-.15c-1.81,3.01-1.95,6.47-3.34,9.58.3.43,1.31.56,1.71.98-.08.1-.11.37-.64.2-.22-.31-.73-.35-.91-.49-.06.38-.83.65-.29,1.18l.77-.05c.25.22-.01.35-.09.46-.33-.16-1.14-.24-1.27-.4.37.32.49.5.52.48.02.02-.11-.01-.26-.07-.31-.1-.74-.29-.42-.13,1.41.62,2.46,1.44,3.3,2.39-.13-.03-.26-.07-.38-.11.06-.16-.95-.7-.83-.81-.42-.15.1.38-.15.35.32.25.74.6.86.79-.21-.05-.83-.62-.92-.59l-.36-.44c-.48-.39.12.22.18.35-.51-.49-.63-.51-1.18-1.13.66.81.27.4.66,1,.54.52.62.82,1.01,1.32l-.13-.41c-.39-.17-.06-.19-.9-1.12.42.34,1.32,1.74,1.26,1.4.29.65.04.44.34,1.14.03.07.06.18.1.29.06-.21.46.71.82,1.05-.28.04-.35-.38-.92-1.09-.13.03-.56-.59-.18.22-.42-.33-.47-.82-.84-1.27-.44-.75,1.13.93-.63-1.48h0c-.05-.16-.65-1.01-.61-.99-.19-.19-.59-.68-.57-.65,0,0,.04.06.12.19l.94,1.35s.56.95.42.83c-.22-.39-.63-.96-.6-.85.13.19.12.15.26.38-.04.1.48,1.03.41,1.28.34.35.6.76,1.15,1.34.51.95-.07.14-.12.25-.05-.13-.04-.15-.18-.34l.11.46c-.48-.41-.69-1.37-1.1-1.83-.48-.8.05.45-.24,0,.04.09.09.18.12.24-.03-.02-.05-.04-.07-.07,0,.02.02.04.03.07-.05.14-.2.06.01.77-.12-.32-.08.09-.06.31.03.28,0,1.12-.39-.02,0,0,0,0,0,0-.21-.14-.39-.49-.42-.88l-.26-.28-.09-.92c-.12.25-.05.79-.17,1.74-.05-.14-.1-.21-.15-.24-.08-.03-.19-.02-.28.03-.19.08-.36.28-.46.45-.03-.04-.08-.04-.16,0l.17.36c-.32-.04-.28.45-.49.45.04.09.05.14-.07,0,.02,0,.05,0,.07,0-.02-.04-.05-.08-.08-.11v.1s-.06-.03-.1-.07c.01-.1.06-.08.1-.03l-.04-.31c-.25-.98-.39.56-.66.21.03-.03.07-.1.1-.09-.15-.25-.37-1.56-.43-.76-.04-.1-.09.06-.14.26l-.11-.14s.08.09.11.14c-.07.26-.14.59-.14.4l-.39-.16c-.07-.13-.17-.02-.26.11l-.07-.38c-.14.06-.14-.17-.13-.28-.49-1.33-.76.68-1.29-.47-.1.64.12.93.14,1.27-.08.49-.39.93-.54,1.28-.24-.88-.96-1.66-.85-2.94-.44-.1.14.78-.08,1.23l-.05-.05c.15.15.27.58.36,1.07.03.69-.35.89-.47.69l.08-.98c-.4.34-.32,1.81-.57,2.8-.32-.39-.14-1.28-.2-2.15l-.34.24v-.74c-.22.2-.27.88-.58.59.22-.69-.46-.68-.15-1.62-.17-.25-.22,1.18-.3.2-.12.78.15.39.24.64.07,1.13-.37.54-.57.83-.02-.58.14-.69-.1-1.08-.05.44-.2.79-.34.25,0,.73-.27.15-.41.1.15.14.37.68.27,1.32-.12.29-.22.44-.49.34l.19.34c-.24,1.08-.39-.78-.71-.44.14-.44.22-.44.34-.98-.15.34-.44.88-.68,1.22l-.27-1.07c-.03.54-.3-.05-.3.69-.34-.49.27-.88.3-1.42-.42-.49-.34,1.22-.74.1l.13-.69c-.13-.05-.41.34-.42,0,0,.25.07.15.15.15-.08,1.47-.62,1.03-.57,2.55l.19.1c-.29.29-.49,1.32-.71.79-.17-.49.12-1.03.22-1.42-.27-.1-.22,1.67-.54,1.52.17.24.14.78.04,1.18.19.1.57.39.51-.25l-.07-.15c.02-.39.12-.54.17-.74.25,0,.12.69.17.98.42.24.03-1.52.42-1.47l.05.29c.19-.39.47-.45.52-1.38.17.98.44-.39.62.19.04,2.16-.66-.15-.88,1.03.2.44-.12,1.03-.2,1.52l.64-.93c.05.29.24,1.37.36.58l-.05-.05c.25-.24.19-1.13.41-.83.03.2-.03.54-.05.69.2.2.17-.49.3-.69.2.19-.1.88.07,1.12.24-.83.37.2.58.15-.09-1.22.81-1.67.37-2.74l.49-.84c.15.64-.34,1.71-.2,2.74l-.39-.04c.06,1.52.82-.99,1.07.7.21.07.16-.15.55.61l-.07-1.36c.2.31.27,1.05.28,1.3.12-.09.23-.05.34,0-.03.2-.07.38-.14.45.15.75.2.47.25.07.08-.34.21-.3.34-.28l-.12.51c.08-.11.17-.26.18-.51.05,0,.1-.04.15-.12-.03-.24-.12-1.03-.3-1.38.47.53.84.24,1.25,1.36-.02.39-.18.88-.13.93.2.2.42-.49.4-1.08.05-.04.08-.05.11-.06.04.34.09.7.18.76.02.12.06.23.13.27.07-1.08.46-.54.54-1.03-.09-.11-.2-.1-.32-.07.16-.72.31-1.54.44-.96-.3.69.32,1.12-.13,1.42.32,1.37.17-.98.51-.49l.22.54c-.03.78-.36.39-.3.69l.15-.1c-.15.59-.73.2-1.08,1.08l.71.44c.9-.94,2.01.14,2.77-1.58-.01,0-.02.01-.03.02.01-.08.02-.22.03-.52l.03.2.15-.59c.17.73.49.88.76,1.46q-.17-.49-.19-1.07c.03-.79.06-1.12.31-.83,0,.56-.15.54.03.99-.1-.27-.01-.67.1-.74.13.36.51.44.52,1-.09.15-.18-.04-.24-.12-.1.15.42.5.13.96l.4-.16c.27.47-.12.73,0,1.03.72-.38.89-1.66,1.36-2.04.03.3.26,1.54.2,1.18.58.37.68-1.35,1.08-1.46.05.37-.18.22-.27.4.82.24,1.57.36,2.37.57.81.21,1.67.52,2.88,1.11-.14-.43-.3-.85-.47-1.28l.73.62.2.13c.56-.38.8-1.14.91-1.95.11-.82.09-1.72.16-2.56.08-.5.85.28,1.23.27.49-1.03-.7-2.04-.67-3.05.32.28,1.24,1,1.44.58-.31-.24-.83-.51-.53-.69l.32.29c.61-.02.2-.51.59-.9.16-.56-.53-1.37-1.73-2.26.28-.45,1.29.48,1.59.47-.56.2.14.31.53.52-.28-.29-.42-.58.48-.39.03-.27.11-.37-.4-.81.25.22-.25.18-.61-.07.37-.11.21-.74,1.29-.36.18-1.27.85-2.53,1.22-3.83-.49-.4-.27.09-.63-.16-.62-.55.46-.12-.04-.57l.56.3c.21-.35-.75-1.1-1.18-1.65.65.28.66-.11.96.32-.05-.21,3.03.56,2.46.22l-2.87-.72c-.27-.1-.02-.29-.21-.33.6.03,1.32.05,1.35-.06.73.18.49.4.42.54,1.18.41.92-.25,1.94.32-.09-.38-.62-.15-1-.49l.34-.19-.47.08c-.28-.35-1.15-.72-.39-.81l-1.05-.7c.95.28.25-.18.52-.27l.56.3c.04-.23.23-.26.62-.28.78.39-.26.13.5.44l.35-.15c-.53-.17-.9-.46-1.27-.4-.91-.55-1.7-.94-1.43-1.47.99.05.71.53,1.64.72.57-.45-2.12-1.48-1.9-1.78.51-.31-.33-.56-.25-1.02.57.34.76-.09,1.38.02l.58.38c-.15-.2.14-.24.57-.06-.84-.25-.59-.82-.89-1.26l-.73-.18c-.16-.31-.5-.79-.24-.98-.11-.45-.77-.57-1.45-1.11.7.05,1.45.32,2.21.63-.4-.02-.24.22-.51.31.46.67,1.84,1.53,1.34,1.88,1.66.77-.1-.38.59-.41.1.04.13.07.14.09.01-.02.02-.03.07-.04.16.24.34.6,1.21.94-.08-.34-1.66-.77-.8-.88-.4-.42,1.03-.18,1.2-.3-.59-.38-1.97-.85-1.56-1.18l.91.5c.18-.47-1.34-.69-1.15-1.12-.17.12-.9-.46-1.02-.17-.47-.32-.46-.67-.1-.82-.13-.11-.32-.12-.65-.24-.76.05.51.64-.52.54l.98.53c-.46.12-1.31-.13-1.67-.41.02.08.14.19-.05.18-1.58-.47.66-.11-.65-.64l.05.21c-1.04-.26-.76-.7-.61-.91.56-.1.81-.28,1.56-.05l.2.45c.65.02-.2-.55-.11-.74.11.02.19.03.25.02-.07-.01-.14-.03-.21-.05.05-.03.15-.04.34-.01.1-.16-.27-.57.02-.65l-.67-.2.36.14c-.08.15-.56.24-1.01-.05-.34-.51.95-.17,1.56-.07.98.42-.13.35.16.65,1.03.22.23-.33,1.01-.49,1.05.51-.16.43.82.84.29-.24-.47-.57-.08-.8.49.21.44.53,1.1.73l.38-.1c-.1.52,1.39.36,1.53.84.51-.04-.81-.55-.03-.58-.5-.08-1.44-.16-1.78-.55l.42-.18c.57.06,1.07.68,1.58.64l-.28-.42c-.33-.1-.54,0-.96-.25.41-.06-1.17-.7-1.59-1.06.08-.15.19-.26.59-.19-.83-.72-.63-1.22-1.43-1.9.57.47,1.12.36,1.66.37.04.34,1.07.68,1.73.87-.05-.21-1.07-.68-1.44-.7.52-.16-.64-.44.13-.47.14-.02.3.03.46.1-.06.13-.13.27-.24.43,2.65.69,1.25-.71,1.08-1.59.08.02.17.05.28.09-.07-.19-.17-.27-.29-.3,0-.08.03-.15.08-.21l.38.08c.18-.08.19-.17.11-.26.76-.07,1.49.28,2.12.74.73.51,1.32,1.17,1.59,1.53-.76-.28-1.78.11-2.3-.63l-.2,2.04c3.31,2.99,4.14-2.84,7.16.14-2.26.19-1.16,1.11-2.62,1.99.77-.21,3.52,1.45,2.26-.63,1.34.73,2.23,1.33,3.11,2.01,1.5-.25,3.05-.36,4.14-1.37,1.92.78,3.09,2.43,3.91,3.48,1.16-.08,2.25.04,3.32.22,1.07.19,2.1.52,3.16.78,1.06.26,2.13.51,3.24.64,1.11.13,2.26.05,3.45-.22l-.34-.14c3.57.62-1.4-2.65,2.27-2.34-.6,2.34,2.14,1.65,3.35,2.92,1.16.32,2.24.31,3.28.21,1.03-.09,2.01-.34,2.97-.62.96-.27,1.9-.52,2.88-.63.97-.15,1.98-.17,3.09.09.03.49-.16,1.11-.99,1.28.84.08,1.64.09,2.4.05.76-.07,1.49-.19,2.21-.32.71-.15,1.42-.29,2.13-.43.7-.18,1.41-.34,2.15-.48l-.06.31c2.57.42,4.81-.35,6.91-1.41,1.04-.56,2.06-1.2,3.08-1.83,1.01-.67,2.03-1.35,3.13-1.93-.26.42-.02,1.28-.2,1.69,1.69-.27,3.97-1,5.47-2.27.03.37-.02.76,1.11.68-1.92,1.43,2.09-.17.37,1.13l.3-.12c.35,2.28-.03,4.94,1.67,6.61l-.43.14c.33,3.5,2.27,6.36,3,9.7.5.17,1.39-.32,1.96-.22,0,.13.13.36-.4.54-.36-.12-.79.16-1.03.15.17.34-.29,1.01.47,1.12l.6-.5c.33.03.2.29.2.42-.37.07-1.06.48-1.26.44.48.03.68.08.77.28.08.16,0,.32-.12.49-.23.34-.59.74-.08,1.15,1.49-.39,3.01.23,4.16.23l-.22.61c-.16-.5-.94.71-1.1,0-.19.83.54.94.5,1.62.28-.37.71-.69.91-.63-.07.45-.69,1.05-.63,1.48h-.51c-.38.69.3.34.45.48-.48.58-.38,1.28-.96,1.78.86-.2.54.42,1.15.49.31-1.21.68-.64,1.05-1.22l-.39-.37c-.04,1.25-.18-.17-.99.85.25-.85,1.55-1.04,1.2-1.56.58.23.43.72.98.79.12-.07.28-.18.47-.29-.6.21.59-.71.59-1.05.56-.04-.14.38-.45,1.09.33-.03.07.59.87-.22.32.33-.58.82-.57,1.27-.71.75-.94-.93-2.5,1.48-.02,0-.03,0-.05,0-.17-.2-.91.21-1.04-.31-.08.55-.31,1.51-.14,1.95.15,0,.32-.06.54-.19l.97-1.35c.43-.03,1.11-.95,1.3-.83-.4.39-.49.96-.09.85.02-.19-.13-.15.05-.38.65-.1,1.25-1.03,2-1.28-.33-.35-.21-.76-.28-1.34.68-.95.37-.14.69-.25-.11.13-.17.15-.21.34l.51-.46c.35.41-.79,1.37-.51,1.83,0,.8.71-.45.78,0,.02-.09.03-.18.05-.24.05.02.09.04.11.07,0-.02.01-.04.02-.07.39-.14.72-.06,1.06-.77-.08.32.31-.09.47-.31.28-.28.85-1.12.82.02,0,0-.01,0-.02,0,.34.14.59.49.44.88l.63.28-.18.92c.69-.25.68-.79,1.12-1.74.1.14.22.21.35.24.1.03.19.02.29-.03.19-.08.36-.28.46-.45.03.04.08.04.16,0l-.17-.36c.32.04.28-.45.49-.45-.04-.09-.05-.14.07,0-.02,0-.05,0-.07,0,.02.04.05.08.08.11v-.1s.06.03.1.07c-.01.1-.06.08-.1.03l.04.31c.25.98.39-.56.66-.21-.03.03-.07.1-.1.09.15.25.37,1.56.43.76.04.1.09-.06.14-.26l.11.14s-.08-.09-.11-.14c.07-.26.14-.59.14-.4l.39.16c.07.13.17.02.26-.11l.07.38c.14-.06.14.17.13.28.49,1.33.76-.68,1.29.47.1-.64-.12-.93-.14-1.27.08-.49.39-.93.54-1.28.24.88.96,1.66.85,2.94.44.1-.14-.78.08-1.23l.05.05c-.15-.15-.27-.58-.36-1.07-.03-.69.35-.89.47-.69l-.08.98c.4-.34.32-1.81.57-2.8.32.39.14,1.28.2,2.15l.34-.24v.74c.22-.2.27-.88.58-.59-.22.69.46.68.15,1.62.17.25.22-1.18.3-.2.12-.79-.15-.39-.24-.64-.07-1.13.37-.54.57-.83.02.58-.14.69.1,1.08.05-.44.2-.78.34-.25,0-.73.27-.15.41-.1-.15-.14-.37-.68-.27-1.32.12-.29.22-.44.49-.34l-.19-.34c.24-1.08.39.78.71.44-.14.44-.22.44-.34.98.15-.34.44-.88.68-1.22l.27,1.07c.03-.54.3.05.3-.69.34.49-.27.88-.3,1.42.42.49.34-1.22.74-.1l-.13.69c.13.05.41-.34.42,0,0-.25-.07-.15-.15-.15.08-1.47.62-1.03.57-2.55l-.19-.1c.29-.29.49-1.32.71-.79.17.49-.12,1.03-.22,1.42.27.1.22-1.67.54-1.52-.17-.24-.14-.78-.04-1.18-.19-.1-.57-.39-.51.25l.07.15c-.02.39-.12.54-.17.74-.25,0-.12-.69-.17-.98-.42-.24-.03,1.52-.42,1.47l-.05-.29c-.19.39-.47.45-.52,1.38-.17-.98-.44.39-.62-.19-.04-2.16.66.15.88-1.03-.2-.44.12-1.03.2-1.52l-.64.93c-.05-.29-.24-1.37-.36-.58l.05.05c-.25.24-.19,1.13-.41.83-.03-.2.03-.54.05-.69-.2-.2-.17.49-.3.69-.2-.19.1-.88-.07-1.12-.24.83-.37-.2-.58-.15.09,1.22-.81,1.67-.37,2.74l-.49.84c-.15-.64.34-1.71.2-2.74l.39.04c-.06-1.52-.82.99-1.07-.7-.21-.07-.16.15-.55-.61l.07,1.36c-.2-.31-.27-1.05-.28-1.3-.12.09-.23.05-.34,0,.03-.2.07-.38.14-.45-.15-.75-.2-.47-.25-.07-.08.34-.21.3-.34.28l.12-.51c-.08.11-.17.26-.18.51-.05,0-.1.04-.15.12.03.24.12,1.03.3,1.38-.47-.53-.84-.24-1.25-1.36.02-.39.18-.88.13-.93-.2-.2-.42.49-.4,1.08-.05.04-.08.05-.11.06-.04-.34-.09-.7-.18-.76-.02-.12-.06-.23-.13-.27-.07,1.08-.46.54-.54,1.03.09.11.2.1.32.07-.16.72-.31,1.54-.44.96.3-.69-.32-1.12.13-1.42-.32-1.37-.17.98-.51.49l-.22-.54c.03-.78.36-.39.3-.69l-.15.1c.15-.59.73-.2,1.08-1.08l-.71-.44c-.9.94-2.01-.14-2.77,1.58.01,0,.02-.01.03-.02-.01.08-.02.22-.03.52l-.03-.2-.15.59c-.17-.73-.49-.88-.76-1.46q.17.49.19,1.07c-.03.79-.06,1.12-.31.83,0-.56.15-.54-.03-.99.1.27.01.67-.1.74-.16-.36-.26-.44-.24-1,.04-.15.06.04.09.12.03-.15-.12-.5-.01-.96l-.12.16c-.03-.47.08-.73.08-1.03-.14.38-.41,1.66-.72,2.04.07-.3.31-1.54.24-1.18-.02-.37-.6,1.35-.88,1.46.15-.37.18-.22.29-.4-.22-.24-.42-.36-.55-.57-.12-.21-.17-.52.05-1.11-.31.43-.64.85-.98,1.28l.35-.62.16-.26c.23-.59.2-.7.02-.74-.17-.03-.47.03-.7-.06-.11-.08.73-.63,1.03-.89.07-.24-1.22.46-1.58.26.38-.11,1.39-.55,1.42-.65-.34.14-.88.35-.69.2l.37-.12c.51-.28,0-.08.19-.31-.21-.54-1.24-.78-2.73-.79-.04-.53,1.32-.38,1.56-.56-.33.49.29.17.74.1-.4-.07-.69-.22.15-.6-.14-.24-.13-.36-.8-.42.34.03-.1.29-.53.3.23-.31-.27-.72.82-1.05-.61-1.13-.82-2.54-1.29-3.81-.63-.03-.16.24-.6.25-.83-.07.3-.37-.37-.43l.63-.09c-.03-.4-1.26-.44-1.93-.62.69-.16.46-.48.96-.31-.17-.14,2.77-1.35,2.11-1.28l-2.74,1.12c-.28.08-.19-.22-.37-.14.5-.34,1.09-.74,1.05-.85.69-.29.63.03.66.19,1.19-.37.59-.75,1.75-.89-.3-.25-.59.24-1.09.2l.16-.36-.33.34c-.43-.11-1.36.1-.8-.42l-1.26.06c.92-.34.1-.29.26-.52l.63-.09c-.1-.21.03-.35.33-.59.86-.15-.13.26.66.06l.2-.33c-.53.18-1,.16-1.26.44-1.06.1-1.92.25-2.02-.33.82-.55.89,0,1.75-.39.19-.7-2.59.07-2.59-.31.23-.55-.6-.25-.8-.67.66-.06.56-.52,1.12-.8l.7-.04c-.24-.07-.04-.28.43-.39-.83.3-.97-.31-1.46-.48l-.69.29c-.32-.16-.87-.34-.77-.65-.35-.3-.95,0-1.82-.04.59-.37,1.36-.6,2.15-.8-.33.22-.06.32-.23.55.77.27,2.39.14,2.2.72,1.79-.36-.3-.25.23-.68.11-.03.14-.02.17,0,0-.02,0-.04.03-.07.27.1.63.28,1.53.04-.27-.22-1.79.36-1.16-.23-.57-.1.72-.76.79-.95-.7.04-2.09.49-1.96-.02l1.03-.13c-.14-.49-1.49.24-1.59-.22-.06.19-1,.16-.93.47-.56.02-.77-.27-.57-.6-.17-.01-.33.09-.66.19-.58.49.79.21-.1.74l1.1-.16c-.3.37-1.13.67-1.59.66.07.06.23.07.07.18-1.55.56.46-.48-.9-.13l.17.14c-.99.41-1.03-.12-1.03-.37.39-.41.49-.7,1.22-.96l.43.24c.53-.37-.49-.32-.53-.53.1-.05.17-.09.21-.13-.06.03-.13.06-.2.08.02-.05.1-.12.27-.21-.02-.19-.56-.3-.37-.54l-.65.24.38-.1c.03.17-.31.52-.84.56-.58-.21.67-.7,1.21-.98,1.04-.25.11.36.51.43.96-.44-.02-.4.52-.99,1.15-.21.13.44,1.16.19.09-.36-.72-.19-.54-.59.52-.13.67.17,1.32-.07l.25-.31c.23.48,1.33-.54,1.73-.23.39-.33-.98.04-.37-.45-.45.23-1.25.72-1.76.61l.23-.39c.49-.29,1.26-.09,1.65-.42l-.47-.17c-.32.12-.44.31-.92.37.3-.29-1.35.13-1.9.09-.03-.17,0-.32.36-.5-.28-.02-.49-.07-.68-.14.65-.35,1.29-.75,2.08-1.12,2.68-3.74,1.62-6.67,5.84-9.06,2.29,2.27-1.74,2.55-.25,4.56.44-1.05.65-2.1,2.17-2.42.19,1.49.38.71.71,1.98.68-.03.95-1.37,1.04-2.65.09-1.28-.03-2.54.08-2.42-.38-.49-.87-.49-1.5.23-.25-1.12.57-1.95,1.6-2.79,1.05-.82,2.22-1.76,2.75-2.86-.57.52-2.64,1.78-3.11.08,1.29-.86,1.57-2.01,1.54-3.23-.04-1.24-.37-2.53-.19-3.7,1.43-.54,1.63.25,1.71,1.34.08,1.09.02,2.49,1.04,3.03.92.19,3.05.46,2.91,1.97,2.14-1.69,1.8-4.44,2.81-6.55l.47.43c.83-1.42,1.23-3.19,1.6-4.85.39-1.66.9-3.1,2.09-3.95l-1.33.86c-.06-.64.9-1.94.2-3.33.76.53,2.23-.41,2.85.07-.86-1.39-.53-3.06-.21-4.74.29-1.85.64-3.67-.59-4.99,1.08-.43,2.11.68,2.73,1.22-1.03,1.72-1.95,2.02-1.14,3.54.64-1.52,1.93-2.29,2.54-1.75-1.25-2.39-.64-6.3-2.42-7.75,1.37-.76,2.28-1.67,3.81-.75.2-2.59-1.29-2.35-2.59-2.19-1.31.16-2.44.25-1.7-2.32,2.32-1.95,1.55,2.96,3.05-.23l.09.69c2.54-.65,1.82-1.33.63-2.11ZM89.25,242.79c.01-.08.03-.17.04-.24h0l-.04.24ZM92.89,237.06l.05.16c-.11.19-.17.37-.05-.16ZM95.8,237.37c-.35.43-.24-.09-.27-.39.32.3.59-.05.79.31-.04-.22-.05-.51-.06-.7.07.05.15.29.21.85-.02,1.1-.82-.71-.68-.07ZM220.23,236.65c-.01.08-.03.17-.04.24h0l.04-.24ZM216.59,242.38l-.05-.16c.11-.19.17-.37.05.16ZM213.68,242.07c.35-.43.24.09.27.39-.37-.3-.49.05-.89-.31.06.22.07.51.09.7-.17-.05-.34-.29-.36-.85.28-1.1,1.06.71.9.07ZM227.28,117.33c1.08,1.51,3.35,2.32,2.62,3.91-.49.83-1.31.42-2.07-.06-.2-.88-.4-1.76-.63-2.63.07-.02.13-.03.2-.06l-.12-1.16ZM221.97,104.57c-.31-.62-.63-1.24-.95-1.86,1.35.17,1.2.95.95,1.86ZM217.03,85.66c-.18.05-.37.09-.56.11h0s.57-.11.57-.11ZM212.44,87.63c.3.85.1,1.4-.32,1.85-.42-.5-.85-1-1.29-1.49.51-.19,1.04-.33,1.61-.36ZM115.09,212.39s.05.03.07.05c-.04-.02-.07-.04-.11-.05.01,0,.02,0,.04,0ZM115.32,212.93s.03.01.04.02c0,.05-.02.11-.04.17-.07-.06-.09-.12,0-.19Z"/>
  <path class="cls-1" d="M229.62,177.96c.07.11.13.23.22.34-.05-.16-.13-.27-.22-.34Z"/>
  <path class="cls-1" d="M73.86,165.48c-.06-.17-.15-.36-.28-.61.13.25.18.46.28.61Z"/>
  <path class="cls-1" d="M234.45,116.38l-.96-.09c-.06.52-.1,1.04-.19,1.57.34-.32,1.16-1.12,1.15-1.47Z"/>
  <path class="cls-1" d="M226.31,91.18l.54,2.31c1.06.2.83-2.77-.54-2.31Z"/>
  <path class="cls-1" d="M223.01,86.12c-1.85.54-.77-2.26-2.38-1.58.76.16.88,2.57,2.38,1.58Z"/>
  <path class="cls-1" d="M211.5,80.61c.99-.84,1.55-.11,2.04.83-.52.03-1.1.28-1.55.1,1.87.52,1.81.74,3.18,1.32-.26-1.59-1.28-3.5,0-4.45-1.57.06-3.73.51-3.66,2.2Z"/>
  <path class="cls-1" d="M214.42,76.14c-.77-.65-1.72-1.28-2.68-1.7-.96-.41-1.88-.64-2.53-.61l.08.98c2.04.14,3.13,2.04,5.12,1.33Z"/>
  <path class="cls-1" d="M178.9,58.51c.56-.61-1.47-2.39-.38-1.16-.58.76.83,2.32.38,1.16Z"/>
  <path class="cls-1" d="M68.3,129.2c.11-1.37-.73-.7-1-1.75-.64,1.19-.32,1.96,1,1.75Z"/>
  <polygon class="cls-1" points="68.45 130.79 67.79 130.91 66.74 131.65 68.45 130.79"/>
  <path class="cls-1" d="M66.29,139.25c-.21-.06-.44-.28-.58-.51.19.49.38.9.58.51Z"/>
  <path class="cls-1" d="M65.63,138.49c-.05-.23.04-.48.4-.57l-.7-.1c.1.14.2.41.29.67Z"/>
  <path class="cls-1" d="M64.95,140.5l1.18,1.35,1.94-1.7c-1.02-1.67-.97,1.96-3.12.35Z"/>
  <path class="cls-1" d="M67.92,152.17c.99,2.08,1.91,1.63,2.8,1.29.9-.35,1.72-.57,2.65,1.68.12-2.33-1.04-2.69-2.24-3.02-1.17-.32-2.41-.61-2.02-2.78-1.18,2.22-1.32-1.2-1.96-1.82-.43,1.66,2.9,3.42.78,4.65Z"/>
  <path class="cls-1" d="M70.97,146.36c-1.2-.13-1.06,1.81-.21,2.3.06-.58,1.57-1.7.21-2.3Z"/>
  <polygon class="cls-1" points="68.97 157.37 69.78 157.55 69.55 155.86 68.97 157.37"/>
  <path class="cls-1" d="M70.31,160.93l-1.67-.92c.63.29,1.07,2.23,1.67.92Z"/>
  <path class="cls-1" d="M72.66,167.38c.02.2.05.4.09.6-.51.02-1.04,1.74-1.88.33.03,1.35,3.36,1.26,1.79-.93Z"/>
  <path class="cls-1" d="M82.34,180.91c-.35-.74-1.18-1.38-1.66-.91l1.68,1.63-.02-.72Z"/>
  <path class="cls-1" d="M87.66,174.08c.25,1.1.12,1.23,1.09,2.64,1.18-1.4-.63-1.55-1.09-2.64Z"/>
  <path class="cls-1" d="M87.66,174.08c-.03-.13-.06-.27-.1-.43,0,.16.05.3.1.43Z"/>
  <path class="cls-1" d="M81.41,184.55c-1-.1-1.1-1.2-1.3-1.76-.79.81.33,2.03,1.3,1.76Z"/>
  <path class="cls-1" d="M84,187.24c-.2,1.06-.97.48-1.07,1.25.13.92.46,1.73.96,2.3.51.57,1.15.91,1.85.95.37-.85,1.78-2.64,2.93-2.72-1.05-.76-2.45-.9-3.42-1.19-.97-.28-1.52-.7-.76-1.98-1.33.06-2.63.06-3.96.05.69,2.08,2.82.05,3.47,1.33Z"/>
  <path class="cls-1" d="M88.4,181.55c1.86-1.62-1.34-1.41-1.87-1.96l-.25,1.68c.78-.8,1.46-.08,2.12.29Z"/>
  <path class="cls-1" d="M94.16,197.16c.78.57,1.63,1.07,2.44,1.6l-.58-.74c-.63-.27-1.26-.55-1.87-.86Z"/>
  <polygon class="cls-1" points="94.92 199.01 94.48 199.57 96.98 200.16 94.92 199.01"/>
  <polygon class="cls-1" points="96.38 201.4 94.71 200.66 96.56 201.72 96.38 201.4"/>
  <path class="cls-1" d="M101.15,204.88c-.76-.24-1.16-2.06-1.93-.92.77.08,1.88,1.13,1.72,2.05l.21-1.13Z"/>
  <path class="cls-1" d="M232.85,149.16s-.05-.01-.07-.03c.01.04.04.04.07.03Z"/>
  <path class="cls-1" d="M232.85,149.16c.56.27,1.13.07,1.71-.16-.43-1.45-1.42.03-1.71.16Z"/>
  <path class="cls-1" d="M80.94,240.41l-.18-.17c-.11.81.04.26.18.17Z"/>
  <path class="cls-1" d="M80.94,240.41l.13.12c-.03-.13-.08-.15-.13-.12Z"/>
  <path class="cls-1" d="M81.36,241.7c.27.58.69.34.76-.74-.27.64-.59-.24-.76.74Z"/>
  <polygon class="cls-1" points="81.92 240.03 81.71 240.33 81.68 240.87 81.92 240.03"/>
  <polygon class="cls-1" points="81.54 239.84 81.58 240.04 81.95 239.49 81.54 239.84"/>
  <path class="cls-1" d="M82.76,241.5c-.25-.73.17-.98,0-1.47-.34,0-.12,1.52-.54,1.28.03.69.68,0,.61,1.07.36.34.02-.64.2-1.03l-.27.15Z"/>
  <path class="cls-1" d="M97.61,235.53s.04.07.06.1c-.06-.12-.1-.2-.06-.1Z"/>
  <path class="cls-1" d="M98.32,234.07c.1.06.16.09.2.1-.09-.06-.17-.13-.25-.18l.05.09Z"/>
  <path class="cls-1" d="M96.46,237.55c-.05-.12-.09-.2-.13-.27.03.15.07.26.13.27Z"/>
  <path class="cls-1" d="M110.6,218.09c.07.03.16.07.29.12,0,0,.01,0,.03,0l-.26-.14-.06.02Z"/>
  <path class="cls-1" d="M97.57,230.64c-.05.11-.03.17.04.23,0-.07,0-.14-.04-.23Z"/>
  <path class="cls-1" d="M97.07,233.21c.06.06.11.1.11.09-.07-.07-.1-.09-.11-.09Z"/>
  <path class="cls-1" d="M87.18,242.55c.08.1.14.03.2-.1-.05-.16-.11-.19-.2.1Z"/>
  <path class="cls-1" d="M88.78,242.44s0,0,0,0c0,.13.01.1,0,0Z"/>
  <path class="cls-1" d="M89.8,242.54l-.02.03c.01.09.02.11.02-.03Z"/>
  <path class="cls-1" d="M87.37,242.46c.13.43.17,1.8.34.29l-.03-.2c.1.34.25-.25.37-.29-.01-.14-.03-.26-.04-.37-.06-.02-.14-.06-.26-.16-.14-.31-.24.4-.38.72Z"/>
  <path class="cls-1" d="M97.71,235.8c-.12-.28-.11-.13,0,0h0Z"/>
  <path class="cls-1" d="M97.31,236.93s.07.04.1.05c-.04-.05-.08-.11-.1-.05Z"/>
  <path class="cls-1" d="M92.76,236.54s.02.04.02.06c0-.16-.01-.13-.02-.06Z"/>
  <path class="cls-1" d="M97.49,236.99s-.05,0-.08-.01c.04.05.07.09.08.01Z"/>
  <path class="cls-1" d="M112.77,217.48c.42.1.53.17.8.08-.57-.34-1.57-.43-2.18-.9.05.07,0,.13-.11.17.59.08,1.13.37,1.57.63l-.09.02Z"/>
  <path class="cls-1" d="M111.29,216.83s-.03,0-.05,0c-.09-.01-.16-.03-.23-.04-.02.03-.06.06-.13.06.17.03.32.02.41-.02Z"/>
  <path class="cls-1" d="M108.84,234.89c.07.08.15.16.24.22-.02-.09-.12-.16-.24-.22Z"/>
  <path class="cls-1" d="M111.21,219.52c-.08.01-.14.04-.18.07,0,.03.02.06.02.09l.16-.16Z"/>
  <path class="cls-1" d="M105.21,208.89c.98.42-.06-.09.58-.07l-.49-.33c-.21.09-.08.28-.09.4Z"/>
  <path class="cls-1" d="M110.55,217.61l-.25.57.31-.09c-.47-.25.53-.2-.05-.48Z"/>
  <path class="cls-1" d="M83.5,237.23c-.34.49-.36,1.13-.44,1.86.3-.69.49-.34.88-.54l-.34-.73.1-.15-.2-.44Z"/>
  <path class="cls-1" d="M83.95,243.46l.05-.45-.22-.29c.03.2.12.69.17.74Z"/>
  <path class="cls-1" d="M87.79,244.87l-.32-.39c-.1.39.27,1.08.32.39Z"/>
  <path class="cls-1" d="M86.58,237.42c-.2.29-.05-.3-.22-.3l-.17.49c.15.39.36.34.39-.2Z"/>
  <path class="cls-1" d="M88.65,244.96c.1-.88.32.39.39-.44-.08.24-.37-.44-.39.44Z"/>
  <path class="cls-1" d="M88.43,236.57c-.1-.83-.27-.1-.47-.29.17,0,.41.88.47.29Z"/>
  <path class="cls-1" d="M90.07,242.9c.05-.2.08-.49.15-.59-.25.49-.27.39-.47.69.2.44.51.73.48,1.52.15-.59.34-1.47.15-2.05-.02.63-.15.59-.3.44Z"/>
  <path class="cls-1" d="M88.91,236.47c-.17-.25-.27-.83-.47-.78.04.44.1,1.08.34.98l-.08.74c.22.54-.09-.98.22-.93Z"/>
  <path class="cls-1" d="M90.53,245.05c.29-.05.64-.45.78-.89l-.1-.34c-.24.59-.54.29-.68,1.23Z"/>
  <path class="cls-1" d="M89.49,237.35c.27-.15.02.83.25.49l.03-1.03c-.24-.14.02.34-.07.59-.07-.15-.17-.24-.22-.05Z"/>
  <path class="cls-1" d="M90.83,236.27l-.24-1.12c-.36.39-.02.64-.07,1.56l.3-.44Z"/>
  <path class="cls-1" d="M90.9,237.39l.03.2.46-1.52c-.27.64-.29.54-.49,1.32Z"/>
  <path class="cls-1" d="M96.36,243.58c-.08.37.5.94.17.5.06-.44-.34-.99-.17-.5Z"/>
  <path class="cls-1" d="M96.06,235.24c-.22.21-.77,0-.74.6.13.33.55-.29.74-.6Z"/>
  <path class="cls-1" d="M96.77,232.66s-.23-.19.2.21c-.12-.1.08.13.46.52-.17-.21-.26-.35-.66-.73Z"/>
  <path class="cls-1" d="M97.24,232.77c.24.16.11.11.49.33.17.09-.22-.19-.49-.33Z"/>
  <path class="cls-1" d="M112.82,226.56c.27-.09.14-.24-.49-.4-.05.19.35.21.49.4Z"/>
  <polygon class="cls-1" points="112.28 225.9 112.59 225.98 113.09 226.03 112.28 225.9"/>
  <path class="cls-1" d="M113.54,225.07c.09.04.19.1.24.16-.06-.09-.13-.17-.24-.16Z"/>
  <path class="cls-1" d="M113.59,225.28l.32.12s-.07-.08-.1-.13c.01.04-.04.06-.22.01Z"/>
  <path class="cls-1" d="M112.76,224.67c.38.37.56-.1,1.48.45l-.48-.36-1-.09Z"/>
  <path class="cls-1" d="M113.03,223.39c.77-.05.48.36.72.54.37-.11-.99-.88.14-.64-.38-.77-1.88-.47-2.07-1.27-.77.44,2.01,1.02,1.22,1.38Z"/>
  <path class="cls-1" d="M111.87,223.42c.54.21.68-.03.33-.23-.09.06-.9-.07-.33.23Z"/>
  <polygon class="cls-1" points="113.78 222.42 113.63 222.62 114.11 222.58 113.78 222.42"/>
  <path class="cls-1" d="M114.07,222.02l.58.38c-.23-.14-.1-.38-.58-.38Z"/>
  <path class="cls-1" d="M114.23,221.06l.08-.06c.22.1.8.08.87.33.27-.09-1.16-.73-.95-.27Z"/>
  <path class="cls-1" d="M113.58,218.4c-.07.1.08.3.39.37l-.2-.41-.19.03Z"/>
  <path class="cls-1" d="M109.98,217.26c-.93-.19-.02.31-.39.42.25-.18.36-.11.39-.42Z"/>
  <path class="cls-1" d="M114.97,218.46c.34.2.06.26-.02.31.52.13.46-.13.02-.31Z"/>
  <path class="cls-1" d="M115.63,217.45c-.4-.07-1.46-.33-1.89-.57.2.45,1.81,1.17.47.92l1.47.8c.34-.19-1.02-.57-.87-.73.4.02.49.19.77.19.48-.08.5-.33.04-.61Z"/>
  <path class="cls-1" d="M111.62,217.59h.58c-.52-.14-.56-.31-.7-.47-1.16-.33.08.34.11.47Z"/>
  <polygon class="cls-1" points="114.76 215.73 114.63 215.25 114.52 215.36 114.76 215.73"/>
  <polygon class="cls-1" points="115.55 215.7 115.04 215.2 115.21 215.6 115.55 215.7"/>
  <polygon class="cls-1" points="115.67 215.35 115.88 215.67 115.74 215.32 115.67 215.35"/>
  <path class="cls-1" d="M116.23,214.57l-.5-.09c.09.14-.51.16.15.36-.19-.16-.04-.34.36-.27Z"/>
  <path class="cls-1" d="M104.88,207.84c.3.18.59.23.89.28l-.78-.38s.09.14-.11.1Z"/>
  <path class="cls-1" d="M106.07,207.63l.29.17-.84-.6c-.25.29.47.58.52.92.34-.03-.28-.42.03-.49Z"/>
  <path class="cls-1" d="M228.54,239.04l.18.17c.11-.81-.04-.26-.18-.17Z"/>
  <path class="cls-1" d="M228.54,239.04l-.13-.12c.03.13.08.15.13.12Z"/>
  <path class="cls-1" d="M227.36,238.48c.27-.64.59.24.76-.74-.27-.58-.69-.34-.76.74Z"/>
  <polygon class="cls-1" points="227.57 239.41 227.77 239.11 227.8 238.58 227.57 239.41"/>
  <polygon class="cls-1" points="227.53 239.95 227.94 239.6 227.91 239.41 227.53 239.95"/>
  <path class="cls-1" d="M226.65,237.07c-.36-.34-.02.64-.2,1.03l.27-.15c.25.73-.17.98,0,1.47.34,0,.12-1.52.54-1.28-.03-.69-.68,0-.61-1.07Z"/>
  <path class="cls-1" d="M208.39,243.92s-.01-.07-.02-.1c-.03.12-.04.2.02.1Z"/>
  <path class="cls-1" d="M203.11,241.31c.06-.18.08-.32.09-.44-.08.11-.15.21-.2.32l.12.12Z"/>
  <path class="cls-1" d="M212.83,241.89c.08.12.15.2.22.27-.04-.15-.11-.26-.22-.27Z"/>
  <path class="cls-1" d="M202.15,217.01c.08-.01.17-.04.31-.08,0,0,.01,0,.02-.02l-.29.04-.03.05Z"/>
  <path class="cls-1" d="M199.11,234.85c.02.12.08.16.17.16-.03-.06-.08-.12-.17-.16Z"/>
  <path class="cls-1" d="M202.77,244.53c-.04.18-.03.3,0,.4.02-.18.03-.32,0-.4Z"/>
  <path class="cls-1" d="M222.3,236.89c-.08-.1-.14-.03-.2.1.05.16.11.19.2-.1Z"/>
  <path class="cls-1" d="M220.71,237s0,0,0,0c0-.13-.01-.1,0,0Z"/>
  <path class="cls-1" d="M219.68,236.9l.02-.03c-.01-.09-.02-.11-.02.03Z"/>
  <path class="cls-1" d="M222.11,236.99c-.13-.43-.17-1.8-.34-.29l.03.2c-.1-.34-.25.25-.37.29.01.14.03.26.04.37.06.02.14.06.26.16.14.31.24-.4.38-.72Z"/>
  <path class="cls-1" d="M208.53,243.64c-.09.28.13.13,0,0h0Z"/>
  <path class="cls-1" d="M210.88,242.52c-.06-.02-.11-.04-.17-.05.05.05.09.11.17.05Z"/>
  <path class="cls-1" d="M216.72,242.91s-.02-.04-.02-.06c0,.16.01.13.02.06Z"/>
  <path class="cls-1" d="M210.54,242.46c.06,0,.11,0,.17.01-.04-.05-.08-.09-.17-.01Z"/>
  <path class="cls-1" d="M203.54,215.24c.4-.16.53-.18.7-.41-.66.06-1.52.59-2.29.57.08.02.08.1.01.2.52-.28,1.13-.37,1.64-.42l-.07.07Z"/>
  <path class="cls-1" d="M201.96,215.59s-.03.01-.04.02c-.08.04-.15.08-.21.11,0,.04-.01.08-.07.13.15-.08.27-.17.32-.26Z"/>
  <path class="cls-1" d="M210.71,231.58c.1.02.22.03.32.04-.07-.06-.19-.06-.32-.04Z"/>
  <path class="cls-1" d="M203.49,217.8c-.06.06-.09.11-.1.16.02.02.05.03.07.06l.04-.22Z"/>
  <path class="cls-1" d="M201.82,216.65l.13.61.19-.25c-.53.08.31-.47-.33-.36Z"/>
  <path class="cls-1" d="M225.54,240.89l.34.73-.1.15.2.44c.34-.49.36-1.13.44-1.86-.3.69-.49.34-.88.54Z"/>
  <path class="cls-1" d="M225.7,236.72c-.03-.2-.12-.69-.17-.74l-.05.45.22.29Z"/>
  <path class="cls-1" d="M221.69,234.58l.32.39c.1-.39-.27-1.08-.32-.39Z"/>
  <path class="cls-1" d="M222.9,242.03c.2-.29.05.3.22.3l.17-.49c-.15-.39-.36-.34-.39.2Z"/>
  <path class="cls-1" d="M220.44,234.92c.08-.24.37.44.39-.44-.1.88-.32-.39-.39.44Z"/>
  <path class="cls-1" d="M221.06,242.87c.1.83.27.1.47.29-.17,0-.41-.88-.47-.29Z"/>
  <path class="cls-1" d="M219.73,236.45c-.2-.44-.51-.73-.48-1.52-.15.59-.34,1.47-.15,2.05.02-.63.15-.59.3-.44-.05.2-.08.49-.15.59.25-.49.27-.39.47-.69Z"/>
  <path class="cls-1" d="M220.7,242.78l.08-.74c-.22-.54.09.98-.22.93.17.25.27.83.47.78-.04-.44-.1-1.08-.34-.98Z"/>
  <path class="cls-1" d="M218.28,235.62c.24-.59.54-.29.68-1.23-.29.05-.64.45-.78.89l.1.34Z"/>
  <path class="cls-1" d="M219.74,241.61l-.03,1.03c.24.14-.02-.34.07-.59.07.15.17.24.22.05-.27.15-.02-.83-.25-.49Z"/>
  <path class="cls-1" d="M218.96,242.74l-.3.44.24,1.12c.36-.39.02-.64.07-1.56Z"/>
  <path class="cls-1" d="M218.1,243.37c.27-.64.29-.54.49-1.32l-.03-.2-.46,1.52Z"/>
  <path class="cls-1" d="M213.18,235.37c-.04.44.09.99.04.5.02-.37-.11-.94-.04-.5Z"/>
  <path class="cls-1" d="M213.42,244.2c.22-.21.77,0,.74-.6-.13-.33-.55.29-.74.6Z"/>
  <path class="cls-1" d="M201.47,242.45c.09.12-.11.56.32.15-.04.34.32.58.72.28-.29-.16-.5-.36-1.04-.43Z"/>
  <path class="cls-1" d="M201.55,239.31c.14-.19-.38-.29-.61-.03.3.02.25.31.61.03Z"/>
  <path class="cls-1" d="M208.96,222.51c.17-.24-.03-.28-.63-.03.07.18.4-.04.63.03Z"/>
  <polygon class="cls-1" points="208.14 222.31 208.43 222.19 208.86 221.93 208.14 222.31"/>
  <path class="cls-1" d="M208.66,220.89c.1-.02.22-.03.29-.02-.1-.04-.21-.06-.29.02Z"/>
  <path class="cls-1" d="M208.99,220.89s0,.07-.17.14l.33-.09c-.05,0-.11-.02-.16-.04Z"/>
  <path class="cls-1" d="M208.66,220.51l-.86.52c.53.07.39-.41,1.46-.52h-.6Z"/>
  <path class="cls-1" d="M208.15,219.84c.23-.31-1.33-.12-.27-.6-.77-.39-1.79.74-2.42.21-.36.82,2.22-.38,1.8.39.59-.49.6,0,.89,0Z"/>
  <path class="cls-1" d="M206.33,220.55c.56-.15.53-.43.13-.39-.04.1-.76.48-.13.39Z"/>
  <polygon class="cls-1" points="207.28 218.87 207.65 218.55 207.28 218.62 207.28 218.87"/>
  <path class="cls-1" d="M207.28,218.12l.7-.04c-.27.02-.3-.25-.7.04Z"/>
  <path class="cls-1" d="M206.84,217.25l.03-.1c.24-.05.69-.41.89-.24.16-.23-1.36.1-.93.34Z"/>
  <path class="cls-1" d="M204.73,215.5c0,.12.24.19.53.07l-.4-.21-.13.14Z"/>
  <path class="cls-1" d="M201.16,216.72c-.86.4.17.27-.06.57.1-.29.23-.3.06-.57Z"/>
  <path class="cls-1" d="M205.89,214.72c.4-.04.2.17.17.27.5-.21.3-.37-.17-.27Z"/>
  <path class="cls-1" d="M205.42,214.33c.33-.22.51-.14.73-.3.33-.35.21-.56-.33-.52-.36.18-1.38.6-1.86.66.43.24,2.15-.13.93.46l1.66-.23c.16-.36-1.16.15-1.13-.08Z"/>
  <path class="cls-1" d="M202.68,216.01l.46-.36c-.5.2-.63.09-.83.05-1.13.42.26.22.37.31Z"/>
  <polygon class="cls-1" points="203.69 212.49 204.1 212.65 203.71 212.34 203.69 212.49"/>
  <polygon class="cls-1" points="204.71 212.16 204.01 212.06 204.39 212.28 204.71 212.16"/>
  <polygon class="cls-1" points="204.64 211.74 204.6 211.8 204.97 211.94 204.64 211.74"/>
</svg>