<?xml version="1.0" encoding="UTF-8"?>
<svg id="Layer_3" data-name="Layer 3" xmlns="http://www.w3.org/2000/svg" viewBox="0 0 95 95">
  <defs>
    <style>
      .cls-1 {
        fill: #ff3600;
      }
    </style>
  </defs>
  <path class="cls-1" d="M65.6,10.76c.08-2.36-2.2-3.42-3.67-3.42-6.6-.08-24.13-.41-29.68-.49-2.2-.08-2.45,2.36-2.53,3.83-.08,6.52-.24,16.39-.33,18.34,0,1.96.49,2.93,2.12,3.02,1.55,0,8.89.08,9.78.16.82,0,.82-.82.82-1.55s.16-7.58.16-8.32c0-1.47,0-2.61,1.22-2.61s6.03.08,6.85.16c1.96,0,2.2,1.63,2.2,3.42-.04.52-.16,6.82-.28,13.57-4.27-.07-8.26-.13-8.5-.13-3.02-.08-3.99,1.88-4.08,2.77-.08,6.12-.49,27.8-.49,31.31h12.8c.08-1.63.16-18.83.16-19.73,0-.82.24-1.47,1.3-1.47.65,0,5.87.08,8.56.16,2.69,0,2.93-.98,3.02-1.79,0-.9.08-8.72.16-9.7,0-.22-.01-.41-.06-.56.22-13.42.45-26.7.45-26.99Z"/>
  <rect class="cls-1" x="39.2" y="75.47" width="12.8" height="12.69"/>
</svg>