<?xml version="1.0" encoding="UTF-8"?>
<svg id="Layer_3" data-name="Layer 3" xmlns="http://www.w3.org/2000/svg" viewBox="0 0 126.38 116.43">
  <defs>
    <style>
      .cls-1 {
        fill: #202020;
      }
    </style>
  </defs>
  <g>
    <path class="cls-1" d="M81.29,21.47c.08-2.36-2.2-3.42-3.67-3.42-6.6-.08-24.13-.41-29.68-.49-2.2-.08-2.45,2.36-2.53,3.83-.08,6.52-.24,16.39-.33,18.34,0,1.96.49,2.93,2.12,3.02,1.55,0,8.89.08,9.78.16.82,0,.82-.82.82-1.55s.16-7.58.16-8.32c0-1.47,0-2.61,1.22-2.61s6.03.08,6.85.16c1.96,0,2.2,1.63,2.2,3.42-.04.52-.16,6.82-.28,13.57-4.27-.07-8.26-.13-8.5-.13-3.02-.08-3.99,1.88-4.08,2.77-.08,6.12-.49,27.8-.49,31.31h12.8c.08-1.63.16-18.83.16-19.73,0-.82.24-1.47,1.3-1.47.65,0,5.87.08,8.56.16,2.69,0,2.93-.98,3.02-1.79,0-.9.08-8.72.16-9.7,0-.22-.01-.41-.06-.56.22-13.42.45-26.7.45-26.99Z"/>
    <g>
      <path class="cls-1" d="M80.72,20.97c.12.74.25-.44.14.49-.13-.11-.2-.24-.14-.49Z"/>
      <path class="cls-1" d="M80.87,24.41c.72,2.85-.12,6.6.32,9.73.03.37-.42-.1-.33.73.54,3.03.11,7.8-.41,11.48l-.11-.23c-.1.7.28,1.56.21,2.31-.08,0-.11-.24-.22-.07.02.02.04.05.06.09l.02.14c.06.08.09.24.14.43v-.03c.02.39.02.83.11,1.01-.1.28-.28.24-.39.6l.26.45c.62,1.26-.09,2.86.21,4.52-.06-.09-.11-.25-.17-.14.09.66.14,1.36.18,2.09,0,.7.2,1.51-.23,2.2-.45.66-1.36.83-2.1.91-.77.07-1.51.04-2.24.08.12-.09.23-.26.06-.37-.15.28-1.04.34-1.82.38-.35-.3-1.33.24-2.24.06l.08-.06c-.68.29-1-.19-1.55.16l-.43-.24c-.15.2-.39.14-.67.06-.28-.08-.6-.21-.8-.05l.03.08c-.19.09-.29.13-.4.19-.1.07-.21.19-.22.39l-.05.03c-.01.55-.02.98-.03,1.27,0,.31.02.46.18.45-.26.4-.11-1.11-.49-.48.3,3.75.2,7.63.18,11.41-.13.43-.17.7-.3.79.06.38.05,1.42.21,1.77,0-.13-.17.24-.18.44-.13.68.35.76.2,1.51-.08-.3-.19-.41-.31-.31.24.65.2,1.49.27,2.36-.05-.16-.08-.36-.18-.37.14.48.12.9.09,1.25v.13s-.01.05-.02.06h-.08s-.29-.02-.29-.02c-.19,0-.36,0-.53.05.06-.06.11-.12.16-.19-1.24-.22-.15.39-1.3.25.26-.06.15-.13.18-.21-.94.34-2.48.23-3.42.34.06-.03.04-.08.04-.08-1.03.04-2.1-.06-3.24.08-.41-.08.13-.45-.95-.38.05.37-1.86.15-1.21.57-.55-.03-1.26-.07-1.93-.11-.16,0-.32-.01-.48-.01-.08,0-.15,0-.23,0-.04-.04,0-.14-.02-.2,0-.28-.01-.51-.04-.68.07.2.18-.02.29-.15.1-.14.19-.21.2.15.08-.25.16-.48.24-.69.15-.01-.06.55.14.27-.01-.29-.14-1.18-.08-1.57-.22-.72-.63-1.38-.66-2.54.14.55.41-.31.47.06l-.69-1.62c-.01-.39.29-.08.21-.64-.1.03-.16-.21-.23-.39.04-.14-.07-1.61.3-1.78.15-.17.07.63.2.2,0-.71-.12-.75-.11-1.46h.05c.06-.49-.13-1.4-.34-.89-.02.33.22-.12.11.36-.21-.33-.25-1.16-.25-1.88.06.24.15.22.25.31-.27-.96-.35-1.98-.45-3.05-.17-.02.31.4.22.56.26-1.37-.3-2.84.07-3.98.03.19-.25.1-.2.09.03-.66.28-.63.2-1.06.15-.04-.04-.54-.08-.99-.1-.23.07-.11.08.27-.12-.62-.3-3.1-.07-4.53-.1.03-.35-.88-.33-1.21l.23.13c.14-.3,0-1.1.19-1.15-.27-.71.19,2.71,0,1.75.19-.24-.34-1.33-.04-1.12,0-.66-.25-1.3-.02-1.93-.04.18.31.54.3,0-.03-.94-.1-.27-.17-1.03l-.09-.48c-.22-.03.04-.84-.21-.49.05-.05.06-.09.07-.3,0-.2.04-.45.1-.68.13-.47.33-.78.46-.65.06.09.12.19.19.27.18-.45.14-.86.33-1.28.07-.03.21-.09.22-.04-.13-.19.11-.42.44-.63.33-.22.74-.38.97-.66.55-.14,1.21-.28,1.79-.29.59,0,1.02.04,1.21.18.66-.12,1.25-.28,2-.17-.15.04-.35.05-.4.14.47.14.58.02,1.01-.04-.1.06.93.27,1.45.44.65-.12.43-.37.5-.51.29.22.75.16,1.23.09.3-.07.41-.15.72.05-.06.06-.46.21-.08.33.29.22.52.15.65.04l.1-.08s-.03-.15-.03-.21c-.03-.15-.04-.28.02-.39-.12-.03-.24-.06-.36-.12.11-.02.06-.23.03-.37-.03-.14-.05-.24.14-.2-.07-.03-.03-.36-.02-.59,0-.23-.02-.41-.19-.36.33-1.57-.1-3.85.55-4.8-.05-.23.02-.79-.17-.68-.21.37.13.53,0,.67,0-.2-.1-.25-.15-.28.09-.49.13-.87.41-.39.24-1.08-.58-1.16-.41-2.54.15.07.2-.03.19-.44l-.24-.79c.08-.9.34-.49.59-.49-.02-.28-.02-.6-.05-.85v.05c-.03-.18-.07-.33-.16-.41.1-.18.19-.36.28-.55-.19.4-.18-.35-.28-.5.03.05.06.12.09.18.1-.1-.06-.55-.18-.7-.11.09-.05.49-.07.75-.13-.18-.18-.47-.37-.57.13-.02.12-.15.07-.25-.05-.12-.15-.16-.2-.21-.15-.13-.27.13-.32.11,0-.05-.04-.07-.09-.09-.07-.01-.15-.02-.17-.04,0,0,0-.02,0-.04,0-.01.03-.03.06-.05.12-.04.2.14.34.06-.11-.11-.07-.3-.39-.25.02,0-.11,0-.15.01-.02,0-.05.01-.08.02-.45.11.07.48-.76.31.23-.06.27-.15.45-.24l-.78-.14-.05.22c-.1-.06-.03-.08-.07-.11-.25.23-1.21.04-1.4.3-.4.01-.83-.17-1.2-.21l.07-.02c-.46-.14-1.08-.07-1.47.07l.02-.05c-.11-.01-.37-.01-.53,0-.11.02-.21.06-.25.12-.32-.15-.48-.9-.76-.48-.19.11-.18.37-.09.52.08.16.21.24.29.24-.08.09-.1.22-.1.35l.03.6c.02.62,0,1.23-.17,1.78.09.17.15.06.19.41-.12,1.74.19,3.67-.27,5.05-.08-.5-.22-.03-.35-.02.19.44-.22.45.12.7.2-.05.3-.07.39-.54,0,.13.02.27.03.42,0,.25,0,.5.01.76,0,.5-.05,1-.21,1.41-.15.4-.42.75-.74.94-.32.19-.61.21-.83.22.43-.02.19.14-.14.24-.01-.17-.32-.2-.76-.26-.21-.02-.45-.03-.69-.02h-.35s-.22.04-.22.04l-.1.19-.36-.21c-.23.06-.28.4-.83.21-.02-.08-.05-.15-.15-.21-.61.15-1.46.41-2.1.23l-.51-.29c-.28.03-.75.19-.27.28-1.09-.19-1.8-.22-2.14-.47-.48.14-1.02.25-1.58.32-.8.08-1.97-.16-2.68-.91-.37-.36-.64-.83-.81-1.33-.18-.54-.24-.98-.28-1.34-.03-.34-.04-.78-.03-1.06,0-.29.02-.58.03-.86l.15.07c.15-.59-.25-.32-.14-.73.14.2.31-.45.47.02.17-.85-.23-1.11-.29-1.66-.19-.09.12.45-.13.34-.07-.1.17-1.18-.12-1.32.12-.21.33-.04.44.08l-.13-.53c.35-.63.58,1.47,1.01.81l-.04-.48c.31-.45.32,1.28.45.08-.13-.53-.55-.99-.68-.52-.06-1.09-.68-.52-.64-1.69.18-.32.02.94.27.72.24-.55-.11-1.11-.02-1.6-.12.54-.41.07-.45-.28.15-.59.27.39.31-.45-.17-.14-.28-.92-.41-.26-.37-.32.12-.88-.17-1.34.27-.27.6.89.75-.04-.26.14-.33-1.15-.72-.68.08-.36.28-.39.44-.12.17-.52-.45-1.27.07-1.43l-.26-.19c.09-.16.16-.39.3-.65.01-.46-.33-1.49.07-1.43-.04-.15,0-1.19-.28-.8-.18.64.19.75-.19,1.1.31-.45-.02-.94-.12-1.32l.15-.06c-.06-.23-.01-.74-.18-.88.09.17.19.09.23-.09l-.23-.24c-.1-.91.42-.2.36-1.09l.17.68c-.04-.15.19-.44.12-.87-.21-.18-.47-.46-.62-.67-.05-.61.25-.23.09-.84.06.27.12.5.19.76.07.1.36-.45.48-1.22,0-.49-.05-1.44-.39-.6.08-.43.45-1.03.47-.62.15-.51.11-.51.02-.48-.07.02-.2.08-.01-.43.16-.16.48-.53.94-.86.47-.34,1.09-.56,1.54-.58-.34.23-.63.52-.83.84.18-.15.4-.27.61-.37-.34.34-.19.33-.04.3.16-.03.35-.02.21.19.38-.12.81-.3,1.18-.37-.58-.22-.28-.4.17-.57.34-.15.75-.3.63-.53,1.24-.1.75,1.09,2.05.42-.21-.12.41-.44-.37-.33.77.06.53-.43,1.44-.24-.68.17.71.46-.27.71.07-.15-.54-.12-.69-.08.31.17-.08.44.71.46.48-.03,1.14-.03,1.05-.26-.01-.25-.74.02-.42-.24.96-.07,1.11.31,1.52-.13-.61.02-.75-.24-.74-.41l.71-.09-.14.17c1.12.14.34-.3,1.43-.24l.51.34c-.27.28-1.59-.15-1.4.32.71.03.95-.2,1.62-.07-.15.04-.35.05-.5.08.25.02.49.64,1.52.3.53-.13.14-.16.16-.34,1.14-.03,1.48-.21,2.22-.22-.16.34,1.3.05.48.39-.37-.21-2.02-.21-2.43.1.41.41-.89-.07-1.15.33.92.02.86.42,1.01.68.25.02.5-.08.65-.12.11-.24-.22-.24-.23-.5,1.02.08,2.01-.04,2.57-.27.34.13.23.37-.18.39,1.22-.05,2.51,0,3.67.1-.74-.41,1.29-.07.78-.41-.62-.1-1.14-.39-.8-.57.39.03-.02.17.15.26.49-.21.76.36,1.25.03-1.11.11-.22.48-.43.79.8-.16-.04.22.75.23.8-.16,1.78-.28,2.67-.33,1.11.32,2.82.05,3.81.06.52.17.16.51.73.59.66,0-.49-.39.49-.21l-.09.07c.3-.08,1.8.27,2.09-.23l-.31.38c.18.04.35-.05.5-.09,0,.12.22.24-.08.32.6.27,1.27-.02,1.93-.02l-.42-.23c.58-.07,1-.08,1.54-.01.51.08.98.24,1.53.46l-.13.19c.22.06.44.13.66.23-.25.09.16.52.51.67-.53-.3-1.1-.44-1.63-.46-.36-.29.55-.06.38-.36-.14-.32-1.21-.54-1.39-.3.38.07.4.03.72.03.04.33-.52.17-.79.36.18,0,.42.14.47.06-.39.06-.68.09-1.37.08.45-.11-.24-.19-.07-.28-.05.27-.69.34-1.51.25-.58-.32-1.54.18-2.49.07.39-.27.88-.48,1.46-.58-.59-.15-.66,0-1.26-.15-.29.2-.5.51-1.28.62l-.04-.2c-.71.09-.71.39-1.6.32-1.53-.12-3.11-.15-4.28-.2l-.04-.2c-.66.42-2.17.12-3.05.3-1.49-.22-3.25.14-4.01-.22-2.64.11-4.94.23-7.67.11l.47-.29c-.49.21-.31-.17-.79-.14.55.25-.67.3-1.02.47-.59-.12-1.33-.14-1.94-.08-.5.07-.64.34-.73.6l-.18-.1c-.05.68-.54,1.73-.61,3.09-.09.15-.28.39-.27.8.31.75.28,1.13.47,2.21-.01.79-.12,2.06-.26,2.86.41,2.97.06,5.99.28,9.07l-.24.22c.11.75.17,1.54.18,2.34l.02.53c.01.17.03.33.04.48l.03.2.02.11c.02.07.04.13.07.19.06.13.17.22.3.27.06.03.13.04.2.05h.12s.28.02.28.02c.75.01,1.46,0,2.11-.05l-.27.4c.79.14,1.83-.08,1.65-.37.8.14,2.02-.16,2.51.18.82.09,1.02-.17,1.71-.21.59.05.46.08.54.1.16.01.31.07.41-.04.09-.11.06-.28.04-.45l-.03.1c.09.09.26.21.29.06-.03-.07-.03-.16-.03-.24,0-.16,0-.33,0-.47-.01-.39-.07-.63-.32-.34.31-1.65-.15-3.85.26-5.45-.14.14-.15-.27-.24-.44,0-.36.03-.73.06-1.09l.04-.65c.02-.32.05-.63.1-.93.1-.6.29-1.13.59-1.56.29-.44.72-.76,1.13-.97.38-.05-.43.37.45.12.53-.12-.08-.2.63-.32.23-.02.47-.02.72-.03h.55c.28-.01.56,0,.84,0,.56.02,1.12.06,1.67.12,1.1.1,2.17.24,3.2.27.04,0-.09,0,.03,0,.18.01.33,0,.53.04.54.05,1.22.27,1.75.73.54.45.87,1.04,1.05,1.54.36,1.03.36,1.85.39,2.62l-.4.09c.5.04.39.03.39.03h0s0,.01,0,.01h0s0,.04,0,.04v.06s0,.11,0,.11v.23s0,.45,0,.45l-.02.9c-.01.6-.03,1.2-.04,1.8-.02,1.19-.04,2.37-.06,3.51l-.1-.05c.35,1.22-.44,2.82.1,3.81-.02.07-.04.17-.06.29l-.02.17c0,.1-.01.2-.02.29-.03.37-.07.62-.16.42.06.43.06.95.05,1.5-.01.27-.03.56-.04.86,0,.15-.02.29-.03.44-.02.06.02.18-.04.2h-.24c-.65-.05-1.31-.08-1.94-.09-.32,0-.63,0-.94.01l-.46.03c-.17.01-.2.03-.31.05.14.01.17,0,.45-.05-.21-.02-.42-.05-.62-.07-.17-.02-.34-.02-.51-.03-.34-.01-.67,0-1.01,0-.68.01-1.36.03-2.11-.08.15-.04.43-.07.47-.16-.57-.2-1.37.39-1.68-.08-.33,0-.24.23-.03.22-.4-.03-.85-.06-1.21-.06-.35-.01-.65.02-.94.08-.57.13-1.01.43-1.27.82-.13.18-.21.45-.21.54l.02.39.02.64c.02.86.04,1.71.07,2.56-.32,2.43-.79.14-.47,2.07-.09.16.18.12.08.14.12.74-.54,1.15-.31,1.67.29-.21.16.35.33.36-.21,1.49-.48,1.78-.28,2.96l-.15-.09c.41,1.38.15,2.98.63,4.14-.01,3.8.02,7.52.05,11.22l.02,2.77v.17s0,.02,0,.02v.04s.02.06.02.06c.02.02,0,.07.05.05l.09-.02h.02s0,0,0,0h.09s.17,0,.17,0h.69s2.78-.04,2.78-.04c1.59,0,3.17.02,4.74.02.04,0,.06,0,.04-.07v-.63s0-1.36,0-1.36c.02-3.62.06-7.26.22-10.96.41-1.73.4-1.86.26-3.77.06.08.08.2.14.07-.16-.05-.17-.38-.17-.73-.02-.3.04-1.04-.05-1.26.09-.35.26-.79.58-1.2.32-.41.79-.74,1.21-.9.43-.17.79-.21,1.11-.23h.23s.13,0,.13,0h.25c.67.01,1.34.02,2,.03,1.34.01,2.68.03,4.1.04-.45.03-.68.29-.14.28l.56-.2.09.09c.37-.04.77-.2.39-.31.62-.02,1.33,0,1.68-.05.24-.02.4-.06.34-.05,0,0-.01,0-.02,0,0,0,0,0,0,.02h0s.01-.42.01-.42l.07-1.8c.12-2.41.24-4.8.36-7.19v.16s-.01,0,0,.01c0,0,0,0,.02,0-.04,0,.11-.02.18-.04l.26-.07c.17-.05.34-.11.51-.18l-1.02-.31c.08-1.88.15-3.76.16-5.63.16-1.65.08-4,.04-5.8.26-2.66.5-5.19.65-7.73.07-1.27.12-2.54.14-3.84,0-.65,0-1.3,0-1.96,0-.33-.01-.66-.02-.99v-.5s-.02-.25-.02-.25v-.13s0-.06,0-.06v-.03s0-.02,0-.02h0s0-.01,0-.01c.39,0-.87,0,.87,0h-.87s0,0,0,0h0s0,0,0,0c0,0,.01.01.03.03.02.02.05.06.1.11.08.1.19.26.3.49.23.46.48,1.19.56,2.31Z"/>
      <path class="cls-1" d="M80.42,20.16c.09-.21-.2-.72.26-.49-.09.14-.1.47-.26.49Z"/>
      <path class="cls-1" d="M65.05,16.72s-.23-.07-.29-.1c.2,0,.4-.14.56-.06-.21,0-.18.09-.27.15Z"/>
      <path class="cls-1" d="M60.83,16.56c.07-.15.97-.25,1.51-.25l-1.51.25Z"/>
      <path class="cls-1" d="M56.9,15.89c-.34-.13-.24-.19.22-.18.03.08-.12.11-.22.18Z"/>
      <path class="cls-1" d="M56.61,16.22c-.33,0-.49-.09-.65-.18.01.13.76-.07.65.18Z"/>
      <path class="cls-1" d="M48.08,15.65c-.16.02-.41.04-.65.07-.28.04-.58.1-.78.06.21,0,.69-.15,1.01-.18.39-.05.49-.06.42.05Z"/>
      <path class="cls-1" d="M43.88,19.83c-.04.15-.07.21-.05.39-.1.27-.17-.03-.15-.28l.2-.11Z"/>
      <path class="cls-1" d="M66.87,46.48s-.03-.17-.04-.25l.14.15s-.03.11-.1.09Z"/>
      <path class="cls-1" d="M54.02,68.08c.09.43-.14.3-.16.37,0-.39.18.14.16-.37Z"/>
      <polygon class="cls-1" points="58.54 81.91 58.41 81.91 58.45 81.62 58.54 81.91"/>
    </g>
  </g>
  <g>
    <rect class="cls-1" x="54.9" y="86.18" width="12.8" height="12.69"/>
    <g>
      <path class="cls-1" d="M67.57,99.41c.19-.07-.1-.26.12-.11-.03.12-.06.21-.12.11Z"/>
      <path class="cls-1" d="M68.07,98.25c-.76-.6,0-1.4-.48-2.06-.03-.08.42.02.32-.15-.59-.64-.24-1.65.22-2.43l.12.05c.09-.15-.31-.33-.25-.49.08,0,.11.05.22.01-.24-.04-.11-.28-.29-.35.09-.06.28-.06.38-.14l-.27-.09c-.64-.25.05-.61-.29-.95.06.02.11.05.17.02-.39-.55-.32-1.23-.46-1.85.09.02.27.05.38.01-.28-.03-.36-.22-.41-.38.29-.07-.27-.28-.11-.47l.06.02c-.3-.14.18-.21-.19-.33l.23-.09c-.41-.06.21-.22,0-.31h-.08c-.1-.08.11-.15.04-.23l.05-.02c-.11-.18.12-.37-.2-.26.26-.16.12.16.49-.06-.21-.44-.26-.83-.27-1.28-.26,0-.52,0-.78,0,0-.13-.04-.17,0-.29-.11.06-.33.06-.46.22.03,0,0-.16-.03-.18-.12-.12-.24.35-.35.21.07-.09.11-.19.12-.31-.19.25-.34.21-.5.29.02-.05.06-.09.06-.19-.18.28-.32-.06-.47.12l.06-.19c-.25-.22-.07.39-.29.25.05-.06.03-.13.04-.21-.2.34-.52.23-.72.34.01-.03,0-.08,0-.08-.22.04-.44-.06-.68.08-.09-.08.03-.45-.2-.38,0,.37-.39.15-.25.57-.2-.06-.51-.2-.64-.07.09-.14-.1-.45.07-.49l-.12-.22c.02-.15.13.05.09-.14-.08.01-.32.16-.39.1-.15.23-.29.65-.54.7.12-.14-.07-.41.01-.47l-.34.71c-.08.02-.02-.29-.14-.2,0,.1-.05.16-.08.24-.03-.04-.34.09-.38-.27-.04-.14.13-.08.04-.21-.15,0-.16.13-.31.13v-.05c-.1-.05-.3.16-.19.36.07.01-.03-.22.08-.11-.07.21-.25.27-.4.28.05-.06.05-.16.07-.26-.2.29-.42.38-.64.5,0,.17.08-.32.12-.22-.29-.24-.6.34-.84-.01.04-.03.02.25.02.2-.14-.02-.13-.27-.22-.18,0-.15-.11.05-.21.09-.05.11-.02-.07.06-.09-.13.13-.65.35-.96.14,0,.05-.05.14-.09.21-.03.08-.05.14-.06.13v-.23c-.05-.14-.12.02-.16-.18-.05.28.31-.24.22-.02-.05-.19-.13.36-.13.05-.09,0-.09.27-.22.05.03.04-.02-.32-.09-.3-.12.04,0,.11-.07.19l-.02.09c.1.22-.11-.03.05.22-.11-.18-.06.11-.28-.26l-.16-.29s.1.31.16.44c-.02-.03-.08-.09-.11-.13.32.44-.14-.04.09.31-.1-.08-.16-.08-.23-.1-.02.03-.05.04-.19-.06.13.2.3.37.2.37-.04-.04-.05-.07-.15-.15-.13-.04-.01.06.06.15-.07-.06-.26-.06-.42-.05.13.16.37.23.52.3-.44-.1.28.27-.12.23-.06-.03-.22-.17-.33-.12-.44.01.32.22.11.31h.36c-.23-.02.21.24-.16.21.13.07-.12.24.24.22-.3.33.18.81-.46,1.01.06.05,0,.17.18.14.2-.08-.14-.11,0-.14.01.04.11.05.16.06-.08.1-.11.18-.4.09-.22.23.6.24.47.53-.15-.01-.2,0-.18.09l.25.16c-.06.19-.33.11-.58.11.04.1.03.22.22.27l-.31.12c.23-.09.15.08.21.13l-.06-.05c-.1.02-.04.14,0,.19.15-.01.22-.13.26-.2.11.05.08.13.21.2-.24-.02-.17.16-.2.25-.05.09.22.1.21.13-.13,0-.02.15-.2.08-.04-.03.12-.07.01-.12-.09.06-.32.05-.15.18.12.1.48-.02.33.16-.06-.05-.16-.06-.25-.09l-.13.17h.22c-.06.03-.08.01-.11.02.23.05.07.26.34.3.02.09-.15.18-.18.26l-.02-.02c-.13.1-.04.23.11.31h-.05s.02.18.15.25c-.17.14-.84.05-.56.2,0,.14.41.22.55.16-.15.25.21.53-.13.77.09.04.15.01.2.09-.09.37.26.78-.17,1.07-.09-.11-.22,0-.35,0,.2.09-.21.11.14.14.2,0,.3,0,.38-.1.11.22.11.55-.08.67.09-.06.15-.01.22.03-.32-.02-.37.15-.26.27l.2.02c-.07.03-.13.06-.2.06.06.02.41,0,.22.05-.08,0-.15.02-.21.03.16.05.43.02.27.11-.1.04-.19.09-.29.14.03.02.2-.02.29-.09-.17.14-.19.22-.44.4.36-.1.52-.16.57-.13.08-.04.12-.03.15-.01l-.11.15c-.06.14.2-.26.15-.15-.11.14-.16.3-.32.47,0,.15.26-.25.32-.32.1-.19-.09.12.04-.12.03-.07,0,.15.13-.14-.04.11-.13.33-.19.45l.09-.14c-.04.34-.39.61-.51,1.03l.1-.05c-.03.3-.39.34-.19.45.17-.14.37-.57.35-.69.18-.08.28-.69.36-.67,0,.17-.08.04-.13.28,0,.23.14-.13.17-.05-.04-.11.04-.4.06-.46.03.14-.05.28.01.3,0-.17.13-.29.02-.41.04-.38.18.11.27-.19.06.27-.18.62.01.75-.03-.26.24-.35.14-.73.08.07.08.28.03.44.11.16.27-.47.3.04l.04-.26c.03.09.08.15.14.29.1,0,.31-.36.3.04.03-.04.25-.02.17-.3-.14-.17-.16.2-.23-.17.1.3.2-.04.28-.14v.15c.06-.06.17-.03.2-.19-.04.09-.02.19.02.23l.05-.23c.19-.12.05.41.23.34l-.14.18s.09.18.18.11c.04-.21.1-.47.13-.64.11-.09.05.24.15.02l-.14.26c-.02.07.09.35.23.35.09-.07.23-.38.09-.5.07,0,.17.13.11.28.16-.07-.02-.23.12-.36.06.14.23.35.34.55l-.14.36h.1c-.12.29.06.22,0,.52.07.05.14-.06.21-.13-.19-.48.21-.66.16-1.1.26-.12.16,1.07.44.38-.04-.11.08-.45-.08-.32.16.05.11-.44.3-.26-.14.18.15.45-.05.71.01-.15-.11-.11-.15-.07.07.17-.01.44.15.44.1-.04.24-.05.22-.28,0-.25-.16.03-.09-.23.2-.09.24.3.32-.15-.13.03-.16-.23-.16-.4l.15-.11-.03.17c.24.12.07-.3.3-.26l.11.33c-.06.29-.34-.13-.3.34.15.02.2-.22.34-.1-.03.04-.07.05-.11.09.05.02.11.63.32.27.11-.14.03-.17.03-.34.24-.05.31-.23.47-.26-.03.34.27.03.1.38-.08-.2-.43-.18-.51.14.09.4-.19-.06-.24.35.19,0,.18.41.22.67.05.02.11-.09.14-.13.02-.24-.05-.24-.05-.49.22.07.42-.07.54-.31.07.12.05.37-.04.39.26-.07.53-.04.77.03-.16-.4.27-.09.16-.43-.13-.09-.24-.37-.17-.55.08.03,0,.17.03.26.1-.22.16.35.26,0-.23.13-.05.49-.09.8.17-.18,0,.22.16.22.17-.17.38-.31.56-.38.24.3.6,0,.81,0,.11.16.04.51.15.57.14,0-.1-.38.1-.22l-.02.07c.06-.08.38.24.44-.27l-.06.38s.07-.05.11-.09c0,.12.05.24-.02.32.13.26.27-.04.41-.05l-.09-.23c.24-.18.4.05.63-.03v.22s.13-.13.13-.13c-.03.21.09.35.16.17l-.36.54c-.1-.13.11-.27.05-.49-.05-.19-.27-.13-.3.08.08.02.09-.02.15-.1.03.31-.1.3-.16.5.04-.01.1.08.11-.02-.08.15-.17.17-.31.18.09-.12-.05-.19-.02-.28-.01.27-.14.36-.32.28-.12-.31-.32.2-.52.12.08-.28.18-.5.31-.61-.13-.14-.14,0-.27-.13-.06.21-.1.52-.27.64v-.2c-.16.1-.16.4-.35.35-.32-.1-.66-.1-.91-.13v-.2c-.15.43-.47.16-.65.35-.32-.2-.68.19-.85-.16-.56.16-1.04.31-1.62.23l.1-.3c-.1.22-.07-.17-.17-.13.12.24-.14.31-.21.49-.26-.23-.59.02-.81.23v-.2c-.24.38-.51.05-.8-.02-.03-.08-.08-.27-.17-.25-.16.33-.24.3-.46.51-.17,0-.44-.08-.61-.21-.16.12-.31.18-.47.22-.08.02-.16.03-.24.05l-.37.02c-.51.02-1.01.01-1.61.15l.06-.24c-.59.23-1.17.26-1.68.25.01-.64.08-1.25-.06-1.66l.41-.14c.13-.31-.11-.53-.4-.35.12-.31-.2-.67.14-.91.08-.28-.19-.34-.24-.56.15-.35.12-.48.04-.8l-.03.08c.09.04.26.04.29-.04-.11-.12.11-.45-.38-.33.28-.35-.23-.81.15-1.15-.13.03-.16-.06-.25-.09,0-.31.26-.63.04-.87.07-.05.23.08.24-.05-.05-.07-.17,0-.25-.09-.25-.5.26-1,.19-1.45-.26-.8-.13-1.64-.17-2.4h.1c-.37-.25.38-.59-.18-.8.09-.06.04-.23.23-.19-.13-.06-.07-.33-.02-.59.05-.26.1-.52-.07-.83,0,.04.01.08.05.15.22-.42-.08-1.01.12-1.43.04.08.07.2.17.28.19-.05-.41-.79.06-.52,0-.11-.24-.28-.22-.2.03-.17.05-.36.06-.55.96.03,1.82-.19,2.88-.28.48.14.49.34.49.46-.01.12,0,.16.25-.02.03.09.02-.18.03-.08.16-.13.24.53.35.28-.04-.29.07-.16.08-.34.31.19.38.45.63.23l-.02.15c.29-.43.63-.2.87-.7,1.61-.09,3.15-.37,4.71-.42.33.02.65.03.98.02h1.17c1.28-.03,2.6-.04,3.84.02-.02.47-.05.96-.09,1.45-.4.95-.39.92-.23,1.6-.06,0-.08-.05-.14.02.33-.06.03.49.34.51l-.02.41v.33s0,.42,0,.42c.02.28.04.56.04.86-.04-.09-.3-.14-.28-.03l.21.12-.09.02c.05.08.21.16.32.08.28,1.5-.37,2.98-.29,4.45-.14.35-.01.85.06,1.23-.44,1.13-.79,2.14-.48,3.28,0,0-.85-.15-1.04-.62Z"/>
      <path class="cls-1" d="M67.35,99.45c-.04-.16-.17-.25-.07-.47.01.15.08.33.07.47Z"/>
      <path class="cls-1" d="M63.85,97.76s-.05-.07-.06-.09c.04-.01.08-.15.12-.06-.04.01-.04.09-.06.16Z"/>
      <path class="cls-1" d="M62.96,97.66c.01-.15.2-.26.32-.28l-.32.28Z"/>
      <path class="cls-1" d="M62.13,97.06c-.07-.12-.05-.19.04-.19,0,.08-.02.12-.04.19Z"/>
      <path class="cls-1" d="M62.07,97.39c-.07,0-.1-.08-.14-.17,0,.12.16-.08.14.17Z"/>
      <path class="cls-1" d="M60.26,96.97s-.14.13-.18-.03c.05.11.21-.19.18.03Z"/>
      <path class="cls-1" d="M59.42,97.19s-.04-.04-.07,0c-.05-.07,0-.17.04-.19l.02.18Z"/>
      <polygon class="cls-1" points="56 88.23 56.07 88.28 55.92 88.26 56 88.23"/>
      <path class="cls-1" d="M59.67,87.27c.09-.09.06.14.08.16-.08.01.03-.18-.08-.16Z"/>
      <polygon class="cls-1" points="63.29 86.55 63.26 86.55 63.27 86.25 63.29 86.55"/>
    </g>
  </g>
</svg>