<?xml version="1.0" encoding="UTF-8"?>
<svg id="Layer_3" data-name="Layer 3" xmlns="http://www.w3.org/2000/svg" viewBox="0 0 95 95">
  <defs>
    <style>
      .cls-1 {
        fill: #fff;
      }

      .cls-2 {
        fill: #ff4f20;
      }
    </style>
  </defs>
  <g>
    <g>
      <ellipse class="cls-1" cx="48.12" cy="42.32" rx="12.55" ry="13.1" transform="translate(3.33 88.15) rotate(-87)"/>
      <g>
        <path class="cls-2" d="M61.61,43.23c-.02-.31-.22.15-.07-.2.09.05.16.11.07.2Z"/>
        <path class="cls-2" d="M61.5,42.02c-.3-.48-.39-1.01-.41-1.58-.1-.55-.12-1.15-.49-1.58-.06-.11.33-.07.17-.31-.75-.82-1.14-2.31-1.62-3.55h.12c-.08-.23-.5-.29-.64-.5.05-.04.12,0,.15-.09-.19.07-.37-.3-.54-.28,0-.13.11-.22.09-.37l-.25.04c-.66.08-.66-.72-1.26-.88.05-.02.12-.02.12-.08-.87-.32-1.7-1-2.62-1.32.07-.05.17-.16.16-.26-.15.18-.44.09-.68.01,0-.27-.49.03-.71-.21l.04-.04c-.29.15-.25-.26-.52-.05l-.07-.22c-.2.29-.25-.25-.48-.15v.07c-.2.03-.24-.16-.41-.15v-.04c-.38-.04-.56-.23-.61.02-.08-.23.38-.02.24-.35-1.28-.03-2.52-.18-3.77-.15-.15-.1-.24-.12-.28-.21-.12.06-.47.09-.57.23.04,0-.09-.12-.16-.13-.24-.07-.21.29-.47.23.09-.09.11-.18.06-.26-.18.24-.47.26-.7.37.03-.05.08-.09.06-.16-.22.28-.51.03-.71.25l.05-.17c-.42-.06-.03.33-.38.32.06-.07.02-.12.02-.18-.23.35-.74.39-.99.61,0-.03,0-.06,0-.06-.3.16-.67.2-.95.47-.15,0-.11-.35-.42-.13.14.26-.49.39-.14.59-.3.08-.76.25-.87.45.05-.17-.32-.23-.12-.39l-.26-.05c-.04-.12.19-.08.06-.17-.11.08-.36.39-.49.41-.09.29-.06.71-.33.97.07-.2-.29-.19-.22-.31-.02.26-.05.51-.05.77-.08.1-.18-.16-.26.03.06.05.04.14.04.23-.06,0-.32.41-.57.24-.12-.04.11-.19-.07-.16-.17.16-.11.24-.26.42l-.03-.02c-.13.09-.2.43.03.41.08-.07-.16-.09,0-.15.06.2-.08.42-.23.6.01-.09-.05-.13-.1-.21-.04.37-.14.69-.26,1.01.11.09-.14-.25-.05-.25-.2.12-.28.35-.36.55-.06.22-.12.42-.33.5,0-.06.19.07.15.05-.12.17-.29.07-.29.22-.11-.04-.06.16-.08.31.05.1-.07,0-.03-.11.01.23-.15.99-.46,1.35.08.02.19.35.15.45l-.16-.09c-.13.05-.09.33-.25.3.15.28.08-.86.15-.53-.17.03.15.48-.07.35-.05.2.07.44-.13.59.04-.05-.21-.23-.23-.06-.03.3.07.1.08.35l.04.16c.17.05-.08.25.14.18-.15,0,0,.43-.29.35l-.22-.08c0,.13.22.25.31.36-.02.01-.07.04-.11.03.35.06-.06.3.2.47-.17.25-.07.66-.28.78.11.21.24.39.16.62-.03-.04-.04-.11-.12-.12-.11.15-.01.18.05.31-.06-.03-.18.3-.29.48.13.2.31.1.43.11-.32.23.26.53.01.8-.06-.06-.23-.26-.29-.08-.31.25.34.32.23.65l.27-.14c-.15.17.25.38-.04.43.12.07.01.36.27.25-.04.26.08.54.17.79.09.25.18.49,0,.73.07.05.1.23.22.13.1-.17-.17-.1-.09-.19.03.05.11.03.15.02,0,.16.03.29-.24.25-.02.4.58.11.69.53-.11.04-.14.09-.06.19l.29.11c.09.26-.15.28-.32.39.1.12.2.27.37.25l-.1.29c.07-.21.17.03.25.06l-.08-.03c-.05.07.09.19.16.24.09-.09.03-.27,0-.36.12.01.17.12.31.14-.18.09.02.29.08.39.06.13.24,0,.26.04-.08.07.13.18-.05.19-.06-.01,0-.14-.11-.15,0,.12-.15.22.08.28.17.04.27-.28.35,0-.08-.02-.15.02-.24.03l.09.26.14-.11c-.01.06-.04.05-.05.08.19-.07.29.26.49.14.1.07.1.27.17.37h-.03c.03.17.22.26.39.26l-.03.02c.05.07.2.18.35.15.07.23-.38.56-.06.53.17.13.46-.05.46-.2.21.34.72.32.85.74.08-.03.08-.09.19-.07.4.38,1.08.35,1.29.88-.17,0-.09.16-.13.25.19-.1.08.21.23-.02.05-.15.1-.22-.01-.34.33.04.77.22.88.43-.06-.1.03-.12.11-.14-.11.24.1.36.3.32l.07-.14.06.19c.08-.03.17-.29.29-.1,0,.06-.02.12,0,.18.22-.07.51-.19.67-.04l.11.26c.09,0,.26-.12.13-.21.3.2.52.26.59.48.67-.4,1.47-.33,2.15-.32l-.02.12c.18.11.09-.21.22-.12-.06.11.15.25,0,.38.27.13.33-.21.5-.28.02-.16-.13.11-.11-.09.02-.06.36.09.38-.15.07.09.04.26.01.36l.15-.13c.23.25-.41.53-.17.85l.15-.05c.17.23-.39.32.01.36.16-.13.27-.48.11-.57.34-.1.1-.57.45-.59.12.13-.28.07-.19.25.2.18.33-.15.48-.12-.18-.06-.08-.32.02-.38.2.07-.08.24.18.22.02-.14.23-.28.01-.34.03-.32.28.03.36-.22.13.19-.15.54.15.59-.09-.19.28-.35.06-.62.12.03.17.18.12.33.19.08.27-.47.43-.09v-.22c.06.05.14.08.25.17.14-.04.34-.39.43-.1.03-.05.33-.15.14-.32-.23-.06-.15.24-.35-.01.21.19.25-.13.32-.25l.06.11c.04-.07.2-.1.18-.24-.02.08.04.15.1.16v-.2c.2-.18.18.28.4.13l-.13.21s.18.08.28-.02c-.02-.18-.04-.41-.05-.55.1-.13.14.14.19-.08l-.08.27c0,.06.24.2.42.1.09-.11.15-.42-.07-.41.09-.05.26-.02.25.13.17-.16-.11-.15,0-.33.13.07.42.08.63.14l-.03.36.12-.07c-.04.3.17.1.21.37.1-.02.16-.16.21-.26-.45-.18-.02-.62-.29-.87.25-.28.7.59.69-.1-.11-.04-.12-.37-.25-.14.2-.11-.09-.38.21-.43-.07.24.4.15.29.5-.06-.11-.19.03-.2.09.16.05.2.3.39.15.1-.12.26-.25.12-.38-.13-.15-.16.16-.22-.06.18-.24.43-.02.28-.38-.12.14-.3,0-.38-.1.03-.07.08-.12.1-.19l.06.13c.3-.16-.09-.25.16-.44l.29.09c.1.22-.41.25-.12.49.17-.14.09-.33.3-.39-.01.05-.05.1-.06.16.06-.04.47.26.49-.16.04-.19-.07-.12-.16-.22.21-.28.16-.46.29-.63.18.21.28-.28.33.09-.2-.02-.5.36-.4.64.33.14-.23.16-.06.44.21-.19.43.04.62.15.07-.04.06-.17.07-.23-.12-.16-.19-.08-.34-.21.25-.21.37-.52.34-.77.14-.02.28.13.21.24.22-.32.45-.65.72-.91-.4,0,.17-.37-.14-.39-.17.12-.45.12-.51-.05.08-.08.11.08.2.08-.07-.22.38-.03.21-.31-.09.34.3.27.48.46.01-.29.15.11.27-.11,0-.3.07-.62.16-.89.38-.21.37-.81.49-1.1.18-.1.41.1.51-.06.06-.21-.34.05-.12-.21l.04.05c-.03-.11.37-.5,0-.71l.27.18s0-.12-.02-.18c.1.03.21-.02.24.1.28-.13.08-.42.11-.63l-.21.09c-.06-.39.17-.59.17-.95l.18.04-.08-.23c.17.08.3-.11.17-.24.12.2.26.41.37.63-.14.14-.18-.21-.37-.13-.17.06-.19.39-.03.48.05-.12,0-.14-.03-.24.25,0,.2.19.35.32,0-.07.1-.15.03-.18.09.16.08.3.04.52-.06-.17-.17.05-.22-.03.21.06.24.3.1.56-.3.12,0,.55-.18.85-.17-.2-.28-.42-.31-.63-.17.16-.06.21-.23.37.13.15.35.3.35.59l-.16-.05c-.02.25.2.34.03.61-.27.47-.54.95-.77,1.28l-.15-.07c.2.38-.27.71-.33,1.04-.41.34-.56,1-.96,1.02-.24.4-.51.74-.8,1.06-.28.34-.62.63-1.02.9l-.02-.29c-.03.24-.17-.04-.28.09.26.03-.03.34-.04.53-.46.08-.81.54-1.05.89l-.09-.14c-.19.44-.74.43-1.18.59-.08-.04-.22-.15-.34-.08-.14.34-.27.37-.57.67-.26.12-.73.16-1.02.15-.92.67-2.05.59-3.13.89l-.09-.18c-.52.2-1.14.23-1.71.17-.58-.08-1.13-.14-1.6-.15l.14-.31c-.26-.15-.65-.04-.63.2-.26-.15-.75,0-.85-.32-.27-.14-.39.04-.64.01-.54-.28-.73-.37-1.28-.52l.12.07c.09-.04.14-.17.02-.24-.23.01-.66-.38-.64.06-.43-.48-1.35-.48-1.67-1.09-.02.12-.15.05-.25.08-.47-.28-.75-.82-1.2-.94-.03-.09.22-.06.06-.2-.13-.05-.09.1-.25.05-.79-.43-1.13-1.36-1.65-1.92-1.03-.96-1.72-2.29-2.23-3.53h.08c-.46-.33-.04-1.11-.59-1.31.03-.12-.07-.41.1-.37-.27-.31-.04-1.01-.35-1.48,0,.05.02.07.06.12.13-.54-.2-.97-.04-1.53.03.05.06.15.14.17.15-.21-.33-.49.05-.61,0-.12-.19-.09-.18-.01.13-1.19.09-2.47.36-3.72.49-.79.62.14.57-.61.09-.03-.12-.09-.05-.07-.02-.3.54-.24.43-.48-.25-.02-.07-.16-.2-.22.37-.43.57-.44.62-.89l.09.08c-.05-.59.36-1.02.29-1.57,1.51-2.36,3.59-4.32,6.16-5.45,2.55-1.01,5.33-1.51,8.07-.94.59.42.62.43,1.35.44-.04.05-.09.05-.05.1.1-.26.49.09.62-.13.97.33,1.89.59,2.83,1.07-.16-.05-.33.1-.15.18l.26-.05v.08c.13.03.33-.02.24-.16.63.24,1.18.64,1.73,1.01.51.44,1.03.86,1.45,1.37.91.97,1.61,2.08,2.3,3.18.1.3.29.62.48.95.18.34.36.68.52.98.4,2.01.39,3.73.55,5.7,0,0-.68-.3-.84-1.05Z"/>
        <path class="cls-2" d="M61.6,43.6c-.14.05-.23.25-.39.07.13,0,.28-.1.39-.07Z"/>
        <path class="cls-2" d="M58.63,48.27s-.08.04-.11.04c.02-.06-.04-.17.04-.18-.02.06.04.08.07.14Z"/>
        <path class="cls-2" d="M57.83,49.3c-.08-.09,0-.37.08-.51l-.08.51Z"/>
        <path class="cls-2" d="M56.68,49.87c-.14,0-.16-.06-.06-.15.05.04.04.09.06.15Z"/>
        <path class="cls-2" d="M56.81,50.11c-.07.07-.16.05-.24.04.07.07.12-.2.24-.04Z"/>
        <path class="cls-2" d="M54.61,51.45s-.11.19-.22.11c.1.04.17-.28.22-.11Z"/>
        <path class="cls-2" d="M53.67,52.19s-.06,0-.09.05c-.09-.02-.06-.13-.01-.16l.1.12Z"/>
        <polygon class="cls-2" points="36.14 44.48 36.22 44.6 36.11 44.6 36.14 44.48"/>
        <path class="cls-2" d="M38.37,35.24c.03-.15.15,0,.17,0-.07.1-.08-.12-.17,0Z"/>
        <polygon class="cls-2" points="42.24 31.41 42.2 31.44 42.11 31.21 42.24 31.41"/>
      </g>
    </g>
    <g>
      <ellipse class="cls-1" cx="48.12" cy="42.32" rx="5.42" ry="6.04" transform="translate(3.33 88.15) rotate(-87)"/>
      <g>
        <path class="cls-2" d="M54.57,42.75c-.04-.15-.21.06-.08-.1.09.02.16.06.08.1Z"/>
        <path class="cls-2" d="M54.45,42.19c-.31-.21-.35-.44-.35-.7-.03-.25-.02-.53-.3-.68-.04-.04.32-.1.2-.19-.6-.26-.63-.95-.73-1.64l.1-.03c-.01-.14-.35-.03-.39-.15.05-.04.09-.03.14-.11-.16.11-.21-.1-.34-.04.02-.09.13-.19.15-.29l-.2.11c-.49.26-.3-.34-.67-.27.04-.03.08-.05.1-.1-.5,0-.86-.3-1.3-.37.05-.06.12-.18.14-.27-.12.2-.26.19-.38.18.04-.24-.26.13-.33-.04l.03-.04c-.17.2-.09-.19-.26.07v-.19c-.14.3-.09-.2-.21-.06l-.02.07c-.09.06-.09-.11-.17-.08v-.04c-.17.04-.23-.15-.28.1-.01-.21.18-.06.15-.37-.6.14-1.13.05-1.69.06-.07-.11-.11-.13-.13-.23-.05.06-.21.07-.25.2.02,0-.05-.13-.08-.14-.11-.09-.08.29-.2.19.03-.08.04-.16.01-.25-.07.21-.2.21-.3.29,0-.05.03-.08.01-.15-.08.25-.23-.01-.31.15v-.15c-.21-.13.03.32-.14.25.02-.05,0-.11-.01-.17-.07.3-.31.26-.41.4,0-.02-.01-.06-.01-.06-.13.08-.3.06-.41.23-.08-.04-.12-.34-.25-.22.13.27-.19.23.04.49-.14,0-.38,0-.4.14,0-.13-.24-.28-.15-.36l-.17-.11c-.05-.11.1-.01,0-.13-.05.04-.14.23-.21.22,0,.21.12.55,0,.68,0-.14-.23-.24-.22-.31.05.2.1.4.16.59-.03.04-.16-.18-.17-.07.05.06.06.12.08.18-.04-.01-.11.2-.33,0-.1-.07.03-.11-.09-.14-.08.07-.01.15-.08.22l-.03-.03c-.08.02-.04.23.12.29.04-.03-.14-.11-.03-.1.09.15.05.27-.01.34-.01-.06-.07-.11-.13-.17.08.25.05.39.05.56.11.09-.17-.2-.1-.17-.27.03,0,.45-.31.42,0-.03.17.09.14.07-.06.06-.23-.05-.19.04-.11-.06,0,.08,0,.15.06.07-.06-.01-.04-.06.04.12.08.47-.15.57.07.03.24.21.22.24l-.17-.08c-.12,0-.03.13-.18.09.18.16-.07-.39.06-.22-.16-.02.22.26,0,.15-.02.08.15.21-.04.24.03-.01-.23-.14-.23-.06,0,.13.08.06.12.17l.06.08c.17.04-.05.1.16.1-.15-.02.05.18-.24.11l-.23-.06c0,.06.23.13.33.18-.02,0-.07,0-.11,0,.35.06-.04.12.23.21-.14.09-.03.25-.25.3.11.09.24.15.16.24-.03-.02-.04-.04-.12-.04-.11.06-.01.07.05.12-.05,0-.19.13-.31.21.12.07.3.02.42.01-.34.12.24.18-.04.33-.05-.02-.2-.08-.27,0-.33.15.29.1.15.25l.28-.1c-.16.1.2.12-.09.19.11,0-.05.16.22.06-.17.27.29.36-.11.69.06,0,.04.09.17.01.12-.11-.13,0-.04-.07.02.02.09-.01.13-.03-.03.08-.03.14-.27.19-.1.22.5-.11.49.09-.11.05-.14.09-.09.12l.22-.03c.02.12-.19.2-.36.32.07.03.11.1.24.03l-.16.21c.11-.16.13-.03.18-.04h-.06c-.06.07.03.1.07.11.09-.09.09-.18.09-.23.09-.03.1.02.21-.01-.16.11-.05.17-.03.21,0,.07.18-.07.18-.05-.08.07.05.08-.09.14-.04,0,.04-.1-.04-.06-.03.08-.17.19-.02.16.11-.02.28-.27.26-.11-.05.01-.11.06-.18.1v.15s.13-.12.13-.12c-.02.04-.04.05-.05.07.15-.11.15.07.32-.07.05.02,0,.16.02.21h-.02c-.03.12.08.13.19.07l-.03.03s.1.05.19,0c-.02.16-.39.55-.18.43.08.05.3-.19.34-.3.05.2.35.02.32.34.05-.05.07-.1.12-.11.16.17.49.01.5.41-.09.05-.08.16-.11.26.11-.13,0,.18.12-.07.06-.15.09-.22.06-.31.15-.03.33.03.35.2,0-.08.03-.12.07-.16-.09.24,0,.31.09.24l.06-.15v.17s.12-.31.15-.14c-.01.06-.02.12-.02.17.11-.1.25-.29.3-.15l.02.24s.12-.14.08-.22c.11.16.19.2.21.4.32-.45.62-.43.89-.41v.12c.07.11.03-.21.08-.12-.02.11.06.24,0,.38.11.13.13-.2.2-.26,0-.16-.05.1-.05-.09,0-.06.15.11.15-.13.03.09.03.26.02.36l.06-.12c.11.27-.15.5-.04.83l.06-.04c.09.24-.16.29.02.36.07-.12.1-.47.03-.56.14-.08.01-.56.16-.55.06.13-.11.04-.06.23.09.18.13-.12.2-.06-.08-.08-.06-.32-.02-.37.09.1-.01.23.09.23,0-.14.07-.25-.03-.33-.02-.31.12.07.12-.18.08.21,0,.51.13.59-.06-.2.08-.3-.04-.59.05.05.1.21.09.34.09.11.06-.41.18-.01l-.03-.21c.04.06.07.11.14.21.06-.01.09-.32.18-.01,0-.03.13-.07.02-.26-.11-.1-.04.18-.16-.09.13.22.1-.06.11-.15l.05.11c0-.05.07-.05.04-.18,0,.07.04.15.07.17l-.04-.19c.06-.12.14.3.22.22l-.02.16s.1.12.13.04c-.04-.17-.1-.37-.13-.5.02-.09.1.17.08-.02l.02.22c.01.06.16.24.23.2.02-.08-.02-.33-.13-.39.03-.02.13.05.15.18.05-.09-.09-.16-.07-.29.08.09.24.2.37.31l.06.3.05-.03c.04.24.12.13.2.37.06.01.06-.09.06-.16-.29-.28-.16-.53-.37-.81.07-.15.54.69.37.13-.07-.06-.17-.33-.18-.19.09-.02-.15-.33.01-.27.02.17.28.24.31.48-.06-.1-.1-.03-.1,0,.11.09.19.3.28.24.03-.07.1-.12-.02-.26-.12-.16-.06.07-.15-.12.05-.12.26.11.07-.2-.04.06-.18-.09-.27-.2v-.11s.08.12.08.12c.16,0-.12-.21-.01-.26l.21.17c.13.19-.2.04.05.32.07-.04-.03-.21.09-.19,0,.04,0,.06,0,.1.03,0,.38.34.28.04-.03-.13-.08-.11-.17-.21.07-.12,0-.25.03-.32.19.2.12-.09.26.17-.15-.08-.26.07-.12.29.26.2-.11.04.08.3.09-.07.31.16.47.3.04-.01,0-.1,0-.14-.13-.15-.16-.12-.3-.26.14-.05.14-.23.05-.41.1.03.24.17.22.23.07-.15.19-.27.33-.35-.32-.12.04-.18-.22-.28-.11.02-.32-.07-.42-.19.04-.02.11.09.18.11-.11-.15.28.09.09-.11,0,.16.3.25.5.41-.05-.17.15.11.21.02-.06-.17-.09-.34-.07-.47.29,0,.17-.33.22-.44.15-.01.39.14.47.09.02-.09-.31-.05-.14-.13l.05.03c-.05-.06.27-.18-.11-.34l.28.13s-.02-.06-.05-.09c.1.03.19.03.24.09.24-.02.03-.19.03-.28h-.19c-.11-.17.09-.24.07-.4l.18.03-.09-.11c.17.05.29-.02.15-.09.13.1.28.21.4.32-.12.05-.2-.12-.38-.1-.16.01-.14.16.02.22.03-.05,0-.06-.06-.12.25.03.22.11.37.19,0-.03.08-.06,0-.09.11.09.11.15.09.26-.08-.09-.16,0-.22-.04.21.06.26.18.16.29-.27.01.07.29-.05.42-.19-.14-.33-.27-.39-.38-.13.05-.03.1-.16.14.14.1.37.22.41.38l-.15-.06c.03.13.25.23.14.35-.17.2-.32.41-.43.57l-.14-.08c.24.29-.09.36-.06.57-.26.1-.24.51-.52.42-.21.39-.43.74-.84.96l-.08-.24c.04.19-.12-.08-.16,0,.18.11.05.27.08.42-.27-.06-.38.26-.47.48l-.08-.14c-.03.35-.35.22-.57.25-.05-.05-.14-.18-.2-.14-.02.29-.09.29-.21.51-.13.04-.36.03-.51-.03-.4.49-.97.32-1.48.58l-.05-.19c-.51.42-1.14.01-1.6.14l.09-.32c-.11-.12-.32.03-.33.26-.12-.12-.38.09-.4-.2-.12-.1-.21.1-.34.11-.25-.2-.35-.21-.63-.25l.06.04c.05-.06.11-.19.05-.23-.13.05-.31-.22-.37.18-.17-.33-.72-.13-.81-.56-.03.11-.11.08-.17.13-.24-.13-.33-.47-.61-.45,0-.07.16-.11.09-.18-.07,0-.09.11-.19.11-.47-.12-.53-.72-.81-.97-.62-.38-.96-1.07-1.26-1.68l.08-.02c-.39-.09.1-.6-.39-.63.05-.07-.03-.21.13-.21-.25-.13.07-.53-.23-.74,0,.03.01.04.05.06.14-.28-.14-.49.02-.78.03.03.06.08.14.08.15-.11-.33-.24.05-.3,0-.06-.19-.04-.18,0,.14-.59,0-1.25.11-1.9.36-.36.61.18.46-.24.08,0-.13-.07-.05-.05-.05-.17.47-.02.33-.18-.23-.06-.09-.11-.22-.17.25-.18.45-.12.41-.39l.1.07c-.17-.38.13-.53-.06-.93.78-1.18,1.82-2.19,3.13-2.74,1.3-.43,2.68-.73,4.04-.35.27.36.28.37.65.3-.02.05-.05.06-.04.11.07-.26.24.03.33-.21.48.18.94.26,1.43.48-.09-.01-.21.17-.12.19l.16-.11-.02.07c.08,0,.2-.09.18-.2.66.19,1.2.65,1.65,1.16.45.51.78,1.09,1.18,1.61.08.32.38.65.57.96.09,1.1-.05,1.95.16,2.94,0,0-.68-.17-.84-.51Z"/>
        <path class="cls-2" d="M54.58,42.93c-.14.02-.22.1-.38,0,.12,0,.27-.03.38,0Z"/>
        <path class="cls-2" d="M52.54,44.67s-.06,0-.08-.01c0-.03-.07-.11,0-.09,0,.03.05.06.09.1Z"/>
        <path class="cls-2" d="M52.16,45.03c-.08-.08-.08-.22-.06-.28.02.09.05.19.06.28Z"/>
        <path class="cls-2" d="M51.49,45.03c-.1-.05-.12-.1-.09-.13.05.04.05.08.09.13Z"/>
        <path class="cls-2" d="M51.65,45.25s-.09-.01-.15-.05c.07.07.02-.1.15.05Z"/>
        <path class="cls-2" d="M50.66,45.55s-.01.13-.09.03c.07.07.02-.19.09-.03Z"/>
        <path class="cls-2" d="M50.34,45.92s-.03-.02-.03.02c-.05-.04-.06-.13-.04-.15l.07.13Z"/>
        <polygon class="cls-2" points="43.07 43.15 43.14 43.19 43.02 43.21 43.07 43.15"/>
        <path class="cls-2" d="M44.02,39.52c-.02-.09.11.05.13.05-.02.04-.1-.11-.13-.05Z"/>
        <polygon class="cls-2" points="45.52 37.72 45.51 37.73 45.41 37.51 45.52 37.72"/>
      </g>
    </g>
  </g>
  <g>
    <line class="cls-1" x1="42.97" y1="17.7" x2="47.23" y2="58.71"/>
    <g>
      <path class="cls-2" d="M43.42,17.75c-.07-.14-.2.1-.1-.09.1.01.17.03.1.09Z"/>
      <path class="cls-2" d="M47.47,58.18c-.66-.42-.11-1.12-.55-1.61-.03-.06.34-.02.24-.15-.53-.47-.33-1.31-.03-1.97l.1.03c.06-.13-.27-.24-.24-.37.06,0,.09.03.18,0-.19-.01-.11-.22-.26-.26.07-.06.22-.07.3-.14l-.22-.05c-.53-.15-.01-.49-.31-.74.05,0,.09.03.14,0-.36-.41-.36-.97-.52-1.45.08.01.22.02.3-.02-.23,0-.3-.15-.36-.27.23-.08-.24-.2-.12-.37h.05c-.26-.08.12-.18-.18-.24l.18-.09c-.33-.02.15-.18-.02-.26h-.07c-.09-.07.07-.13,0-.21h.04c-.11-.2.06-.33-.19-.3.2-.09.11.18.4.04-.33-.61-.35-1.27-.42-1.91.1-.08.12-.13.22-.16-.06-.06-.07-.24-.21-.28,0,.02.13-.06.14-.09.08-.13-.3-.1-.19-.24.07.04.16.05.25.03-.21-.09-.2-.24-.27-.36.05.02.07.04.15.03-.24-.12.02-.26-.14-.37l.15.03c.16-.22-.32-.03-.23-.21.05.04.11.02.17.02-.29-.13-.22-.4-.33-.55.02,0,.06,0,.06,0-.05-.17.01-.36-.12-.54.06-.08.36-.01.29-.19-.3.04-.16-.3-.48-.16.03-.16.12-.42,0-.52.12.06.36-.11.39.01l.17-.12c.12,0-.03.11.12.06-.02-.06-.16-.24-.11-.31-.2-.1-.55-.18-.61-.37.13.08.32-.09.38-.03l-.6-.22c-.02-.06.23-.04.15-.13-.08.01-.13-.02-.2-.05.03-.03-.1-.27.19-.32.11-.04.07.1.17.02-.02-.12-.12-.12-.13-.24h.04c.04-.09-.15-.23-.3-.13,0,.06.17-.04.1.05-.18-.04-.24-.17-.25-.3.05.04.13.02.21.03-.25-.14-.34-.3-.45-.48-.14.01.26.04.19.08.17-.25-.32-.45-.06-.68.03.03-.2.04-.16.03,0-.11.21-.13.13-.2.12-.02-.05-.09-.09-.16-.09-.03.06-.03.08.04-.11-.09-.34-.5-.19-.76-.08.01-.3-.12-.3-.18h.19c.1-.06-.04-.18.12-.21-.23-.1.24.44.05.3.15-.06-.32-.19-.06-.19-.02-.11-.24-.2-.08-.32-.03.03.26.06.24-.02-.05-.16-.09-.04-.17-.16l-.08-.07c-.18.01,0-.15-.18-.07.15-.03-.11-.22.18-.24h.24c-.02-.07-.26-.09-.37-.13.02-.01.07-.03.1-.03-.36.03.01-.17-.27-.22.11-.16-.03-.37.19-.46-.12-.1-.26-.19-.2-.32.04.02.05.06.13.05.1-.09,0-.1-.06-.17.05.01.19-.18.31-.28-.12-.1-.31-.04-.43-.04.34-.14-.26-.29.05-.45.05.03.19.14.27.04.34-.14-.28-.18-.13-.36l-.29.07c.17-.09-.19-.22.11-.24-.11-.04.08-.2-.21-.15.21-.29-.21-.64.28-.85-.05-.03-.01-.13-.16-.1-.15.08.12.08.02.11-.01-.03-.09-.03-.13-.03.06-.09.07-.16.32-.1.16-.2-.5-.14-.42-.39.12,0,.16-.02.14-.09l-.22-.11c.03-.16.26-.11.46-.14-.04-.08-.04-.18-.2-.2l.24-.12c-.17.09-.13-.05-.18-.09l.05.03c.08-.02.02-.11,0-.16-.12.02-.16.13-.19.18-.09-.03-.08-.1-.19-.14.2,0,.13-.15.14-.21.03-.08-.18-.07-.18-.09.1-.01,0-.12.15-.08.03.02-.09.07,0,.1.07-.06.25-.07.11-.16-.11-.07-.38.06-.28-.1.05.03.13.03.2.05l.09-.15h-.18s.06,0,.08-.01c-.19-.02-.08-.2-.29-.21-.03-.07.11-.16.12-.22h.02c.1-.08.02-.18-.11-.23h.04s-.03-.15-.14-.19c.12-.12.67-.11.43-.21-.02-.11-.35-.14-.45-.08.1-.21-.22-.41.04-.63-.08-.02-.12,0-.17-.05.04-.3-.28-.6.05-.87.08.08.18-.01.28-.03-.17-.05.16-.1-.12-.1-.16.02-.24.02-.3.11-.1-.17-.13-.44,0-.55-.07.06-.12.02-.18,0,.26-.01.28-.15.18-.24h-.16s.15-.08.15-.08c-.05-.03-.33,0-.19-.12.06-.01.12-.02.16-.05-.14-.09-.37-.21-.25-.33l.22-.11s-.18-.11-.23-.02c.12-.2.12-.33.31-.41-.52-.27-.58-.74-.59-1.12h.12c.1-.11-.21-.03-.14-.11.12.02.23-.1.38-.04.11-.16-.22-.17-.29-.25-.16,0,.11.07-.09.07-.06-.01.1-.21-.14-.21.09-.05.26-.04.36-.03l-.12-.08c.26-.14.51.2.84.05l-.05-.08c.24-.1.3.19.36-.03-.12-.08-.47-.12-.56-.03-.08-.18-.56-.03-.57-.23.13-.07.05.16.24.1.18-.11-.12-.18-.07-.27-.08.1-.32.05-.37,0,.1-.11.23.04.24-.1-.14,0-.25-.13-.33,0-.31-.02.07-.16-.18-.21.21-.07.51.1.6-.07-.2.05-.3-.17-.6-.05.05-.07.22-.09.35-.06.12-.1-.4-.17,0-.25h-.21c.07-.04.11-.09.22-.14,0-.08-.31-.22,0-.25-.04-.02-.04-.2-.25-.11-.12.12.17.11-.12.2.24-.1-.05-.16-.14-.21l.12-.02c-.05-.03-.03-.12-.17-.13.07.02.16,0,.18-.04l-.19-.02c-.11-.14.33-.07.26-.21l.16.1s.14-.09.07-.16c-.17-.01-.39-.04-.52-.05-.08-.08.19-.06,0-.12l.22.09c.06.01.28-.1.26-.22-.07-.07-.33-.15-.41-.03,0-.06.09-.15.22-.11-.07-.12-.18.04-.3-.06.11-.06.26-.22.41-.32l.3.09v-.08c.24.08.17-.07.41-.04.03-.06-.06-.11-.12-.16-.37.19-.55-.12-.9-.04-.12-.2.85-.22.27-.38-.09.05-.37-.03-.25.09.03-.13-.36-.05-.23-.22.16.1.35-.16.57-.02-.12,0-.08.1-.04.12.13-.07.36-.03.34-.16-.04-.08-.06-.19-.24-.15-.2.02.03.12-.18.09-.09-.16.22-.21-.15-.24.04.1-.17.15-.31.16l-.1-.11h.14c.08-.19-.25-.02-.23-.21l.26-.11c.23.02-.07.28.3.21,0-.12-.19-.14-.11-.27.03.02.05.06.08.08,0-.04.5-.14.19-.28-.12-.08-.14,0-.28,0-.06-.19-.21-.23-.25-.36.28,0,0-.22.3-.11-.15.08-.11.36.16.4.32-.1-.03.16.3.16,0-.16.31-.18.52-.23.01-.04-.08-.08-.12-.1-.2,0-.19.06-.39.08.04-.18-.09-.33-.29-.41.09-.07.29-.07.31,0-.08-.2-.08-.42-.04-.63-.31.16-.1-.21-.35-.1-.06.11-.28.23-.43.18.01-.07.14-.01.21-.05-.18-.07.27-.16-.02-.21.12.18.39,0,.65,0-.16-.12.18-.01.16-.15-.15-.12-.28-.28-.35-.42.22-.21-.05-.48-.07-.65.12-.1.41-.07.45-.17-.02-.11-.3.12-.18-.06h.06c-.07-.03.16-.32-.25-.32l.31.02s-.05-.06-.08-.08c.1-.01.19-.06.26-.01.2-.12-.06-.21-.08-.32l-.17.09c-.16-.18,0-.32-.08-.5h.18s-.12-.11-.12-.11c.17,0,.28-.1.13-.15l.47.24c-.1.09-.22-.06-.39,0-.15.06-.08.22.09.23.01-.07-.03-.07-.1-.11.25-.05.25.05.42.09-.01-.03.06-.09-.02-.09.13.05.15.12.17.23-.1-.07-.15.06-.22.04.22-.01.3.09.25.23-.24.13.19.24.14.41-.23-.04-.41-.11-.51-.2-.1.11.02.11-.08.22.17.03.43.04.54.16l-.16.02c.1.11.34.09.31.24-.05.27-.02.54-.02.74l-.16.02c.36.07.17.36.34.49-.13.27.21.53-.05.69.17.43.33.81.32,1.28l-.24-.05c.18.07-.13.07-.09.15.18-.11.26.09.41.13-.16.23.07.47.25.64l-.16.02c.32.15.08.4.05.64-.06.03-.21.09-.19.16.28.1.26.17.45.33.01.13-.03.36-.12.5.42.47.24,1,.52,1.5l-.19.06c.46.47.15,1.13.41,1.54h-.33c-.09.14.12.29.35.23-.09.15.19.32-.07.44-.05.15.17.15.22.27-.09.29-.06.39.03.65v-.07c-.06-.02-.2,0-.21.06.1.09-.05.37.33.23-.2.3.25.64-.02.94.1-.03.13.03.21.05.03.25-.16.53.04.7-.05.04-.19-.04-.19.06.05.06.14-.01.21.05.24.38-.12.83-.03,1.19.27.62.24,1.31.34,1.92h-.08c.32.18-.26.52.21.64-.07.06-.02.19-.17.17.23.14-.15.48.14.69,0-.02-.01-.03-.05-.06-.15.26.11.45-.02.72-.04-.02-.07-.07-.14-.07-.14.11.35.2-.02.29,0,.06.19.02.18-.01-.09.57.21,1.14.36,1.71-.18.44-.63.09-.32.39-.07.03.15,0,.07.02.12.12-.4.24-.19.31.23-.06.14.04.28.03-.12.27-.33.34-.13.52h-.12c.37.2.21.49.63.64.21,1.29.56,2.5.73,3.76.05,1.25.36,2.46.28,3.74-.29.33-.28.35-.12.66-.05,0-.07-.03-.11,0,.26-.01.05.23.3.23,0,.47.12.9.17,1.38-.04-.07-.25-.09-.23,0l.18.08-.07.02c.05.06.18.11.26.04.35,1.19-.05,2.43.14,3.61-.08.29.06.68.15.98-.26.94-.45,1.79-.11,2.68,0,0-.69-.05-.89-.41Z"/>
      <path class="cls-2" d="M43.46,17.93c-.13.05-.19.16-.37.09.12-.02.25-.09.37-.09Z"/>
      <path class="cls-2" d="M42.4,20.88s-.05.05-.07.06c-.01-.03-.13-.05-.06-.09.01.03.07.02.13.03Z"/>
      <path class="cls-2" d="M42.4,21.61c-.12,0-.23-.14-.25-.23l.25.23Z"/>
      <path class="cls-2" d="M41.98,22.33c-.09.07-.15.06-.15-.02.06-.01.1.01.15.02Z"/>
      <path class="cls-2" d="M42.26,22.35c0,.06-.06.09-.12.12.1-.01-.08-.12.12-.12Z"/>
      <path class="cls-2" d="M42.07,23.84s.12.1,0,.15c.09-.05-.17-.15,0-.15Z"/>
      <path class="cls-2" d="M42.31,24.5s-.03.03,0,.06c-.05.05-.14.01-.15-.02l.14-.04Z"/>
      <polygon class="cls-2" points="44.06 36.75 43.99 36.68 44.11 36.68 44.06 36.75"/>
      <path class="cls-2" d="M44.62,42.14c.08.07-.1.06-.12.08-.02-.06.15,0,.12-.08Z"/>
      <polygon class="cls-2" points="45.51 44.99 45.5 44.96 45.74 44.95 45.51 44.99"/>
    </g>
  </g>
  <g>
    <g>
      <ellipse class="cls-1" cx="35.22" cy="52.06" rx="13.1" ry="12.55" transform="translate(-9.71 8.1) rotate(-11.54)"/>
      <g>
        <path class="cls-2" d="M48.52,49.55c-.1-.29-.18.2-.12-.18.1.02.18.07.12.18Z"/>
        <path class="cls-2" d="M48.1,48.4c-.41-.39-.63-.88-.8-1.42-.24-.51-.41-1.08-.88-1.41-.09-.09.3-.15.08-.34-.93-.61-1.68-1.95-2.46-3.03l.12-.02c-.14-.21-.56-.16-.74-.33.04-.05.12-.03.12-.13-.17.12-.43-.19-.6-.14-.04-.12.05-.24-.01-.38l-.24.1c-.62.25-.82-.53-1.44-.53.05-.03.11-.05.09-.11-.92-.09-1.9-.54-2.87-.62.05-.07.12-.19.09-.29-.1.21-.4.2-.66.18-.07-.26-.47.15-.74-.02l.03-.05c-.25.21-.31-.19-.52.08l-.12-.2c-.12.33-.31-.18-.5-.02v.07c-.17.07-.26-.1-.42-.05v-.04c-.39.06-.61-.08-.59.17-.14-.2.36-.11.15-.4-1.24.29-2.49.46-3.69.8-.17-.06-.26-.05-.32-.14-.1.09-.43.21-.49.37.04-.02-.12-.1-.19-.09-.25,0-.13.34-.4.34.06-.11.06-.2,0-.27-.12.28-.39.37-.58.54.02-.06.06-.11.02-.17-.15.33-.49.16-.62.42v-.18c-.42.04.06.33-.28.41.05-.08,0-.12-.03-.18-.13.4-.62.56-.81.84,0-.03-.02-.06-.02-.06-.25.23-.6.36-.81.69-.14.04-.2-.31-.44-.03.21.22-.38.5.01.61-.27.15-.67.43-.73.65.01-.18-.37-.14-.21-.34l-.27.02c-.07-.1.17-.12.01-.18-.08.11-.25.47-.37.52-.02.31.12.7-.08,1.02.02-.21-.33-.11-.29-.24.05.26.08.51.15.76-.05.11-.21-.11-.24.09.07.04.07.13.1.21-.05.02-.21.47-.49.37-.13-.01.06-.21-.11-.14-.12.2-.04.26-.14.47h-.04c-.11.11-.09.45.13.37.06-.09-.18-.04-.03-.15.1.18.03.43-.07.63,0-.09-.08-.11-.15-.18.06.37.03.7,0,1.05.13.05-.19-.21-.11-.23-.17.17-.18.41-.21.62,0,.23,0,.43-.19.57,0-.06.2.02.16.01-.07.19-.27.14-.23.29-.12-.01-.01.17,0,.32.08.09-.07.02-.05-.1.07.22.1,1-.1,1.42.08,0,.27.3.26.39l-.18-.05c-.12.09,0,.34-.16.35.21.23-.14-.86.02-.55-.16.07.27.43.02.35,0,.21.17.41.02.6.03-.06-.26-.17-.24,0,.05.3.09.08.16.32l.08.15c.18,0-.01.26.18.14-.15.05.11.41-.19.41l-.23-.02c.03.13.27.18.39.27-.02.02-.06.06-.1.06.36-.03.02.3.31.41-.1.28.1.65-.08.82.16.17.33.32.31.56-.04-.04-.07-.09-.15-.08-.07.17.04.18.12.29-.07-.01-.1.34-.16.54.17.16.33.02.45,0-.26.3.39.45.21.77-.08-.04-.29-.19-.3,0-.23.32.41.23.39.57l.23-.2c-.1.2.34.31.07.42.13.04.1.35.33.18.03.27.22.5.36.72.16.22.29.42.18.71.08.03.15.2.24.07.05-.19-.19-.06-.13-.16.05.04.12,0,.15-.01.04.16.1.27-.17.31.08.39.59-.04.8.34-.1.07-.11.12,0,.2l.31.03c.16.23-.08.31-.22.46.12.09.27.21.42.15l-.03.31c.02-.22.18,0,.26,0h-.09c-.03.07.13.15.22.19.06-.11-.04-.26-.09-.35.12-.02.19.08.33.06-.15.13.09.27.18.36.09.11.23-.05.26-.03-.06.08.17.14,0,.19-.06,0-.03-.14-.14-.11.03.11-.09.25.15.25.17,0,.2-.34.34-.08-.08,0-.14.06-.22.08l.15.23.11-.14c0,.06-.03.06-.03.09.17-.12.34.17.51.01.12.04.16.23.26.31h-.03c.07.17.28.2.44.16l-.02.03c.06.05.24.12.38.06.12.2-.23.64.07.53.2.08.43-.17.4-.31.28.28.78.13,1.01.5.07-.05.06-.11.17-.11.48.26,1.13.07,1.47.53-.17.04-.04.17-.06.28.16-.14.13.19.22-.08.01-.16.04-.24-.1-.32.33-.04.8.02.96.2-.08-.09,0-.13.07-.17-.05.26.19.32.37.23l.04-.16.11.17c.07-.05.09-.33.26-.17,0,.06.02.12.05.17.19-.13.44-.32.64-.21l.17.22c.09-.03.22-.18.07-.23.34.12.57.12.69.32.54-.56,1.34-.69,2-.85v.12c.22.06.05-.22.19-.17-.03.12.2.2.1.37.29.06.27-.29.41-.4-.02-.16-.1.14-.13-.06,0-.06.37,0,.33-.24.09.06.1.24.1.35l.11-.16c.28.19-.26.61.05.86l.13-.09c.23.18-.3.4.1.35.13-.17.14-.53-.04-.58.3-.18-.05-.57.29-.68.15.09-.26.13-.12.29.24.12.28-.23.44-.23-.19,0-.15-.29-.08-.37.21.02-.01.25.23.16-.02-.14.15-.33-.07-.33-.05-.31.28-.04.29-.31.18.16-.01.56.3.53-.13-.16.18-.41-.1-.61.12,0,.21.13.2.29.2.03.14-.53.39-.2l-.06-.21c.08.03.16.04.29.1.12-.07.23-.47.39-.2.02-.05.28-.23.06-.34-.23,0-.09.27-.35.08.25.13.21-.19.25-.32l.09.09c.03-.08.16-.15.12-.28,0,.09.07.14.13.13l-.06-.19c.16-.23.25.23.43.03l-.07.23c.02-.05.2.03.27-.09-.06-.17-.14-.38-.19-.52.06-.15.17.1.17-.13v.28c0,.06.27.13.42,0,.06-.13.04-.45-.18-.38.07-.07.25-.08.27.06.13-.19-.15-.12-.08-.32.14.04.43-.03.65-.03l.06.36.1-.1c.04.3.19.05.29.3.1-.05.12-.19.14-.31-.48-.06-.18-.59-.5-.77.17-.33.83.4.64-.27-.11,0-.21-.32-.27-.07.17-.16-.19-.35.09-.47,0,.25.42.04.41.41-.08-.09-.17.08-.17.13.17,0,.27.24.42.04.06-.14.19-.31.02-.39-.17-.12-.12.19-.23,0,.12-.27.41-.13.18-.44-.08.17-.29.08-.39,0,.02-.07.04-.14.05-.21l.09.11c.26-.23-.15-.22.04-.47l.31.02c.15.19-.33.34,0,.5.13-.18,0-.34.19-.46,0,.06-.02.11-.02.17.05-.06.52.13.43-.28-.01-.19-.09-.1-.21-.18.13-.32.04-.48.12-.69.23.16.2-.34.34,0-.2.03-.4.48-.23.72.35.05-.19.21.06.44.16-.24.43-.07.64,0,.06-.06.01-.18,0-.24-.16-.12-.2-.03-.38-.12.19-.26.23-.59.13-.83.14-.05.3.06.26.18.14-.36.27-.74.47-1.06-.39.11.07-.4-.24-.34-.14.16-.41.23-.51.08.06-.1.13.05.21.03-.12-.2.36-.12.13-.35,0,.35.35.19.58.32-.06-.29.17.07.24-.18-.07-.29-.09-.62-.07-.9.31-.29.16-.88.2-1.19.15-.15.42,0,.48-.18,0-.22-.32.13-.17-.18l.05.04c-.06-.1.23-.58-.17-.68l.3.11c.03-.06-.04-.12-.07-.17.1,0,.2-.07.26.03.23-.2-.03-.42-.05-.64l-.18.14c-.16-.36.01-.61-.07-.96h.18s-.14-.21-.14-.21c.18.03.26-.18.1-.27.17.16.35.33.51.51-.1.17-.22-.15-.39-.04-.15.1-.09.42.09.47.01-.13-.03-.13-.09-.23.25-.06.25.14.42.23-.01-.07.06-.17-.02-.18.13.13.15.27.17.5-.1-.15-.15.09-.22.03.22.01.3.23.24.51-.26.19.13.54.04.87-.21-.15-.38-.33-.46-.53-.12.19,0,.22-.13.41.16.11.41.2.49.48h-.16c.04.24.28.28.19.58-.15.52-.28,1.05-.42,1.44l-.16-.03c.29.32-.09.76-.06,1.09-.31.43-.29,1.11-.67,1.23-.13.44-.31.84-.51,1.23-.19.4-.44.76-.76,1.12l-.09-.27c.04.24-.17,0-.25.15.26-.03.05.34.09.53-.43.19-.64.73-.8,1.13l-.13-.11c-.08.48-.61.6-1,.87-.09-.02-.25-.09-.35,0-.05.36-.17.43-.38.79-.22.18-.66.34-.95.4-.72.88-1.84,1.08-2.81,1.65l-.13-.16c-.46.33-1.04.51-1.62.6-.58.06-1.13.15-1.59.26l.06-.33c-.29-.08-.64.12-.56.35-.29-.08-.73.19-.91-.1-.29-.07-.37.14-.62.17-.59-.13-.8-.18-1.37-.18l.14.04c.07-.06.1-.2-.04-.24-.22.07-.74-.2-.61.22-.53-.36-1.43-.13-1.89-.63.01.12-.13.09-.22.14-.52-.15-.93-.6-1.4-.6-.05-.08.2-.11,0-.21-.13-.02-.06.12-.23.11-.87-.22-1.43-1.03-2.08-1.45-1.24-.67-2.24-1.79-3.05-2.86l.07-.03c-.52-.19-.32-1.05-.9-1.11,0-.12-.17-.38,0-.38-.34-.23-.29-.97-.71-1.34,0,.05.03.07.09.1,0-.55-.44-.89-.42-1.47.05.04.1.13.18.13.09-.24-.45-.39-.11-.6-.03-.11-.21-.04-.18.03-.17-1.18-.53-2.41-.59-3.69.28-.89.64-.02.4-.74.08-.05-.14-.05-.06-.06-.1-.29.46-.37.3-.57-.24.04-.11-.14-.25-.17.25-.51.44-.57.38-1.02l.11.06c-.2-.56.09-1.08-.11-1.6.87-2.67,2.39-5.08,4.59-6.82,2.21-1.62,4.78-2.8,7.57-2.93.68.26.71.26,1.41.09-.03.05-.07.07-.02.11.03-.28.49-.03.56-.28,1.02.07,1.97.1,3.01.33-.17-.01-.29.18-.1.21l.24-.12.02.08c.14,0,.32-.1.2-.21.67.07,1.3.32,1.93.55.6.29,1.21.57,1.75.96,1.12.71,2.08,1.61,3.02,2.5.17.26.44.53.7.8.26.28.52.57.75.82.89,1.84,1.32,3.52,1.97,5.38,0,0-.73-.12-1.08-.81Z"/>
        <path class="cls-2" d="M48.6,49.91c-.12.09-.16.3-.36.16.12-.04.24-.17.36-.16Z"/>
        <path class="cls-2" d="M46.9,55.18s-.07.05-.1.06c0-.06-.08-.15,0-.18,0,.06.06.07.1.12Z"/>
        <path class="cls-2" d="M46.37,56.37c-.1-.07-.09-.36-.05-.51l.05.51Z"/>
        <path class="cls-2" d="M45.4,57.22c-.14.04-.17-.02-.1-.13.06.02.06.08.1.13Z"/>
        <path class="cls-2" d="M45.59,57.42c-.05.09-.14.09-.22.1.09.05.07-.22.22-.1Z"/>
        <path class="cls-2" d="M43.8,59.27c-.03.05-.05.21-.19.17.11.02.09-.32.19-.17Z"/>
        <path class="cls-2" d="M43.08,60.22s-.06.01-.07.07c-.09,0-.09-.11-.05-.16l.12.09Z"/>
        <polygon class="cls-2" points="24.17 57.16 24.28 57.25 24.17 57.29 24.17 57.16"/>
        <path class="cls-2" d="M24.01,47.65c0-.15.14-.04.17-.05-.04.11-.11-.1-.17.05Z"/>
        <polygon class="cls-2" points="26.79 42.98 26.76 43.01 26.62 42.82 26.79 42.98"/>
      </g>
    </g>
    <g>
      <ellipse class="cls-1" cx="35.22" cy="52.06" rx="6.04" ry="5.42" transform="translate(-9.71 8.1) rotate(-11.54)"/>
      <g>
        <path class="cls-2" d="M41.58,50.86c-.07-.13-.19.11-.1-.07.1,0,.17.01.1.07Z"/>
        <path class="cls-2" d="M41.32,50.34c-.35-.13-.45-.34-.52-.59-.09-.23-.16-.51-.46-.59-.05-.03.29-.17.15-.23-.65-.1-.85-.76-1.12-1.41l.08-.05c-.05-.13-.35.05-.42-.04.03-.05.08-.05.11-.14-.13.14-.23-.04-.34.05,0-.09.08-.22.07-.32l-.17.16c-.41.37-.37-.25-.72-.1.03-.04.07-.07.07-.12-.48.13-.91-.07-1.35-.03.03-.07.08-.21.07-.29-.07.22-.2.25-.32.27-.02-.24-.22.19-.33.05l.02-.05c-.12.23-.13-.16-.23.13l-.05-.19c-.06.33-.13-.17-.22,0v.07c-.08.08-.11-.09-.18-.03v-.04c-.17.08-.27-.08-.26.17-.07-.2.15-.1.05-.4-.55.28-1.09.33-1.62.48-.09-.09-.14-.1-.18-.19-.04.07-.19.12-.19.26.02-.01-.08-.11-.11-.11-.13-.06,0,.3-.15.23.01-.08,0-.16-.05-.25-.01.22-.14.25-.21.35,0-.05.01-.08-.03-.15-.01.26-.23.05-.26.23l-.03-.15c-.24-.08.1.3-.08.28,0-.06-.03-.1-.05-.16.01.31-.23.33-.29.49,0-.02-.03-.05-.03-.05-.1.11-.28.13-.34.32-.09-.02-.21-.3-.3-.15.19.23-.13.27.16.47-.13.04-.37.1-.35.24-.04-.12-.3-.21-.24-.31l-.19-.07c-.08-.1.09-.04-.03-.13-.04.05-.07.26-.15.26.05.2.25.51.18.66-.04-.14-.28-.17-.29-.25.1.18.2.36.3.54-.02.05-.2-.14-.18-.02.07.04.09.1.13.16-.04,0-.06.22-.32.08-.11-.04,0-.11-.12-.11-.06.09.03.15-.03.23l-.03-.02c-.07.04.02.24.19.25.03-.03-.16-.07-.06-.09.13.13.12.25.08.33-.03-.05-.1-.08-.17-.13.14.22.15.37.19.53.13.06-.21-.15-.14-.14-.25.1.11.43-.19.48-.02-.03.19.05.16.04-.04.07-.23.01-.18.09-.12-.03.02.08.03.14.08.05-.06,0-.06-.05.07.11.2.44,0,.59.08,0,.28.14.27.18l-.18-.03c-.11.03,0,.14-.15.13.22.11-.16-.36,0-.22-.16.02.28.19.03.15,0,.09.2.17.03.24.03-.02-.26-.07-.24,0,.04.12.09.04.15.13l.08.06c.18,0-.02.1.18.05-.15.02.09.16-.2.17h-.23c.02.06.26.07.36.09-.02,0-.07.03-.1.03.36-.04-.01.12.27.14-.11.12.03.25-.17.35.13.05.27.09.22.2-.04,0-.05-.03-.13-.01-.09.09,0,.08.08.11-.06,0-.16.17-.25.29.13.04.3-.06.41-.09-.3.21.28.12.04.33-.06,0-.21-.03-.26.07-.28.23.31.02.21.21l.24-.17c-.13.14.22.07-.04.21.11-.02,0,.17.23,0-.1.3.37.28.06.7.05,0,.06.08.16-.03.09-.14-.13.02-.06-.06.02.01.09-.03.12-.06-.01.09,0,.14-.21.26-.04.23.46-.23.49-.03-.09.08-.11.12-.06.14l.21-.08c.04.11-.13.24-.27.4.07.01.13.07.25-.03l-.1.24c.07-.18.12-.06.17-.08l-.05.02c-.04.07.05.08.09.08.07-.11.04-.19.03-.24.08-.05.1,0,.2-.06-.13.15,0,.17.03.21.02.07.15-.11.16-.1-.06.09.06.06-.05.16-.03.02.02-.11-.06-.05-.01.08-.11.23.02.16.1-.05.2-.34.22-.17-.05.03-.1.09-.15.14l.03.14.1-.15s-.03.05-.03.08c.12-.14.17.03.29-.15.05,0,.03.16.07.2h-.02c0,.13.11.11.2.02l-.02.03s.11.03.19-.05c.02.15-.24.63-.06.46.09.03.24-.25.25-.37.09.18.35-.07.4.24.04-.06.04-.11.09-.14.2.13.48-.11.59.27-.08.07-.03.18-.05.28.08-.15.04.17.1-.1.02-.16.03-.24-.02-.31.14-.07.33-.05.39.11-.03-.08,0-.12.03-.17-.03.26.07.3.15.21l.02-.16.04.16s.04-.33.11-.18c0,.06,0,.12.02.17.08-.13.17-.34.26-.22l.08.23s.08-.17.02-.23c.14.13.24.14.3.34.19-.52.49-.58.76-.62l.02.12c.1.09-.02-.21.05-.14,0,.11.12.22.1.37.14.09.08-.23.12-.31-.04-.15-.02.11-.07-.08,0-.06.17.07.11-.16.05.08.09.25.11.34l.02-.13c.17.23-.02.52.17.82l.05-.06c.14.21-.09.32.11.34.04-.14-.02-.47-.12-.55.12-.11-.13-.55.01-.58.09.12-.1.07,0,.24.14.15.1-.15.18-.11-.1-.05-.13-.3-.11-.35.11.07.04.22.15.2-.04-.13,0-.26-.11-.31-.1-.29.13.03.08-.2.13.18.12.49.27.54-.11-.18,0-.31-.19-.56.07.04.14.18.17.31.12.08-.05-.41.17-.06l-.08-.2c.05.05.1.09.19.17.05-.03,0-.33.17-.06,0-.03.11-.1-.05-.26-.13-.07.01.19-.18-.05.18.18.08-.08.06-.18l.07.1c0-.06.06-.07,0-.19.02.07.08.13.11.15l-.09-.17c.03-.13.21.26.27.15l.02.16s.13.09.14,0c-.08-.15-.19-.33-.25-.45,0-.1.14.14.07-.04l.07.21c.03.05.21.19.27.13,0-.08-.1-.32-.22-.34.03-.03.14.02.19.13.03-.1-.13-.13-.14-.26.1.07.28.13.44.21l.14.27.04-.04c.1.22.15.1.28.31.06,0,.04-.1.02-.17-.35-.2-.28-.47-.56-.7.02-.16.7.53.4.04-.09-.04-.24-.28-.22-.14.09-.04-.23-.28-.06-.26.06.15.33.17.42.39-.09-.08-.11,0-.1.03.13.06.26.24.33.16.01-.07.06-.14-.09-.25-.16-.13-.04.08-.18-.08.02-.13.28.04.02-.22-.02.07-.2-.04-.31-.13l-.02-.11.1.09c.16-.04-.17-.18-.08-.25l.25.11c.17.16-.18.09.13.29.06-.06-.08-.19.04-.2.02.03.01.06.03.09.03-.02.46.24.28-.03-.06-.11-.1-.09-.22-.16.04-.13-.07-.24-.05-.32.23.15.09-.12.3.1-.16-.04-.23.13-.04.31.3.13-.1.07.16.27.07-.09.34.08.53.18.03-.02-.02-.1-.04-.13-.16-.11-.18-.08-.36-.18.12-.08.08-.26-.06-.41.11,0,.28.11.27.17.03-.17.12-.31.23-.43-.33-.03,0-.18-.28-.22-.1.05-.33.01-.45-.08.04-.03.13.05.2.06-.14-.12.3.02.06-.13.05.16.36.16.58.27-.09-.15.17.07.21-.03-.1-.15-.17-.31-.19-.43.28-.08.08-.36.1-.48.14-.05.41.04.47-.03,0-.09-.31.03-.17-.09l.06.02c-.06-.04.21-.24-.19-.3l.31.06s-.04-.05-.07-.07c.1,0,.19-.02.26.02.22-.08-.02-.19-.04-.28l-.18.06c-.15-.16.03-.26-.04-.42h.18s-.12-.09-.12-.09c.18,0,.27-.1.12-.13.15.06.32.13.47.21-.1.08-.22-.06-.39,0-.15.05-.1.19.07.21.02-.06-.02-.06-.09-.1.25-.04.24.05.41.09-.01-.03.06-.08-.02-.08.12.06.14.12.15.23-.1-.07-.15.04-.22.01.22,0,.3.11.22.24-.26.08.14.26.06.41-.22-.09-.39-.18-.47-.27-.12.08,0,.1-.12.18.16.06.42.12.49.26l-.16-.02c.06.12.3.16.23.3-.12.24-.2.48-.27.66l-.16-.04c.31.22,0,.37.09.56-.23.16-.1.56-.4.53-.1.43-.23.83-.57,1.14l-.13-.21c.08.17-.14-.05-.16.03.2.06.12.25.18.38-.28.01-.3.34-.34.59l-.11-.12c.06.35-.28.3-.49.39-.06-.04-.19-.14-.23-.09.05.28-.01.31-.07.55-.11.07-.34.12-.51.1-.27.58-.86.56-1.29.93l-.09-.17c-.39.54-1.1.3-1.51.54v-.33c-.13-.09-.29.11-.24.34-.14-.09-.35.18-.44-.09-.14-.06-.18.15-.3.19-.29-.13-.39-.12-.67-.09l.07.03c.04-.07.06-.21,0-.24-.11.08-.35-.13-.31.27-.24-.28-.73.06-.93-.33,0,.11-.08.11-.13.17-.26-.07-.44-.37-.7-.28-.02-.07.13-.14.04-.19-.07.01-.06.13-.15.15-.49,0-.69-.57-1.03-.74-.69-.22-1.2-.8-1.64-1.32l.07-.04c-.4,0-.05-.61-.54-.51.03-.08-.08-.19.07-.24-.27-.06-.07-.53-.41-.66,0,.03.02.03.06.04.07-.31-.26-.44-.18-.76.04.02.08.06.15.04.12-.14-.38-.15-.03-.31-.02-.06-.2,0-.18.04-.02-.61-.31-1.21-.37-1.87.26-.44.64.02.38-.35.08-.02-.14-.04-.06-.03-.09-.15.45-.14.27-.26-.24,0-.12-.08-.26-.11.2-.24.41-.23.3-.48l.11.05c-.27-.33,0-.54-.29-.88.46-1.34,1.21-2.58,2.34-3.43,1.15-.74,2.41-1.38,3.82-1.36.35.28.36.28.7.13-.01.05-.03.07,0,.11,0-.27.24-.04.27-.28.51.05.98.02,1.5.11-.09.01-.16.22-.07.22l.13-.15v.08c.07-.02.18-.14.12-.23.69.02,1.33.33,1.88.71.57.38,1.03.86,1.55,1.27.16.29.54.54.79.78.36,1.05.45,1.9.9,2.8,0,0-.7,0-.94-.28Z"/>
        <path class="cls-2" d="M41.63,51.02c-.13.05-.18.16-.37.1.12-.03.25-.1.37-.1Z"/>
        <path class="cls-2" d="M40.1,53.22s-.06,0-.09,0c0-.03-.1-.08-.03-.08,0,.03.06.04.11.07Z"/>
        <path class="cls-2" d="M39.82,53.67c-.1-.06-.13-.19-.13-.26.05.08.09.17.13.26Z"/>
        <path class="cls-2" d="M39.17,53.83c-.1-.02-.14-.06-.11-.1.06.03.07.06.11.1Z"/>
        <path class="cls-2" d="M39.38,54s-.09.01-.15-.01c.08.05,0-.11.15.01Z"/>
        <path class="cls-2" d="M38.5,54.55s.02.13-.08.05c.08.05-.03-.19.08-.05Z"/>
        <path class="cls-2" d="M38.28,54.98s-.03,0-.03.03c-.05-.02-.09-.11-.08-.13l.1.11Z"/>
        <polygon class="cls-2" points="30.55 54.13 30.62 54.15 30.52 54.2 30.55 54.13"/>
        <path class="cls-2" d="M30.55,50.38c-.04-.08.12.02.14.02-.01.05-.12-.08-.14-.02Z"/>
        <polygon class="cls-2" points="31.56 48.26 31.54 48.27 31.4 48.08 31.56 48.26"/>
      </g>
    </g>
  </g>
  <g>
    <line class="cls-1" x1="24.04" y1="21.13" x2="36.94" y2="55.97"/>
    <g>
      <path class="cls-2" d="M24.48,21.06c-.1-.11-.17.14-.12-.05.1-.02.17-.02.12.05Z"/>
      <path class="cls-2" d="M37.06,55.44c-.73-.2-.35-.96-.88-1.27-.04-.04.32-.1.2-.19-.61-.27-.6-1.06-.45-1.72h.1c.03-.13-.31-.14-.31-.26.06-.02.1,0,.17-.05-.19.04-.15-.16-.3-.16.05-.07.2-.12.25-.2h-.23c-.55.02-.12-.41-.46-.56.05,0,.1,0,.14-.03-.43-.27-.55-.75-.81-1.13.08,0,.21-.04.29-.1-.22.06-.32-.05-.41-.15.2-.13-.27-.12-.2-.29h.05c-.27-.02.08-.2-.23-.18l.15-.13c-.33.07.11-.2-.08-.22l-.06.03c-.1-.05.04-.14-.04-.2l.03-.02c-.14-.13,0-.29-.25-.2.17-.13.15.13.4-.07-.45-.45-.61-1.03-.81-1.57.07-.1.09-.15.18-.2-.07-.04-.12-.19-.26-.19.01.02.11-.08.11-.11.05-.13-.31,0-.24-.16.08.02.16,0,.25-.04-.22-.02-.24-.16-.34-.25.05,0,.08.02.16-.01-.26-.04-.04-.24-.21-.29h.15c.11-.24-.31.05-.26-.14.06.02.11-.01.17-.03-.3-.04-.3-.29-.44-.4.02,0,.06-.02.06-.02-.09-.14-.07-.32-.24-.44.04-.08.35-.11.24-.25-.28.11-.21-.22-.5-.01,0-.15.02-.4-.11-.46.13.02.32-.19.38-.09l.14-.15c.12-.03,0,.1.13.02-.03-.05-.2-.17-.18-.24-.21-.04-.57-.02-.66-.17.14.04.29-.16.36-.12l-.62-.04c-.03-.05.22-.09.11-.15-.07.03-.13.01-.2.01.02-.03-.16-.21.11-.33.1-.06.09.07.17-.03-.04-.1-.14-.07-.18-.17l.04-.02c.02-.08-.19-.16-.32-.03,0,.05.16-.08.11.02-.18.01-.27-.09-.31-.19.06.02.13-.01.21-.03-.27-.06-.39-.18-.54-.3-.13.05.26-.03.2.02.11-.27-.41-.31-.2-.58.03.02-.18.08-.14.07-.02-.1.17-.17.08-.2.11-.05-.06-.07-.12-.12-.09,0,.05-.04.08.01-.13-.05-.43-.35-.35-.61-.07.03-.32-.03-.33-.08l.18-.05c.09-.08-.07-.15.07-.22-.25-.02.32.32.11.25.13-.09-.35-.09-.1-.15-.04-.09-.27-.11-.14-.26-.02.04.27-.01.23-.08-.08-.12-.1,0-.2-.1l-.1-.04c-.17.06-.02-.13-.19,0,.13-.07-.16-.17.13-.25l.23-.06c-.04-.05-.27-.01-.38-.02.02-.02.06-.05.09-.06-.34.11-.02-.15-.31-.12.07-.17-.11-.32.08-.45-.14-.06-.29-.1-.26-.23.04,0,.06.04.13.01.07-.1-.02-.09-.1-.13.06,0,.15-.21.24-.33-.14-.06-.3.04-.42.07.3-.21-.31-.19-.05-.4.06.02.21.08.27-.03.3-.21-.31-.08-.2-.28l-.26.14c.15-.12-.23-.14.05-.23-.12,0,.03-.2-.23-.08.14-.31-.34-.5.09-.82-.06-.02-.04-.11-.17-.05-.13.11.14.04.04.09-.02-.03-.09,0-.13,0,.04-.09.03-.16.28-.17.11-.22-.52,0-.49-.23.11-.03.15-.06.11-.11l-.23-.04c0-.15.23-.17.41-.24-.06-.06-.08-.15-.23-.12l.21-.17c-.15.12-.13-.01-.19-.03l.06.02c.07-.04,0-.1-.04-.14-.11.05-.13.15-.15.21-.1,0-.1-.07-.21-.08.19-.05.09-.16.09-.22.02-.08-.19,0-.19-.03.1-.04-.02-.11.13-.11.04.01-.08.08.02.09.06-.07.22-.12.07-.17-.12-.03-.36.15-.29-.01.06.02.13,0,.21,0l.05-.15-.17.06s.06-.03.08-.04c-.19.03-.12-.16-.33-.11-.04-.05.07-.17.07-.23h.02c.07-.1-.02-.17-.16-.18h.04c0-.05-.06-.13-.18-.14.09-.14.62-.27.37-.29-.04-.09-.36-.04-.46.04.05-.21-.3-.31-.09-.56-.08,0-.11.03-.17,0-.03-.28-.4-.46-.14-.78.1.05.17-.06.27-.09-.17,0,.13-.13-.14-.06-.15.06-.23.08-.26.18-.14-.12-.22-.35-.11-.48-.06.07-.11.05-.17.04.25-.08.24-.2.13-.25l-.15.04.13-.11c-.06-.01-.32.08-.21-.06.06-.03.11-.05.15-.08-.15-.04-.4-.09-.31-.23l.19-.16s-.19-.05-.23.04c.07-.21.05-.32.22-.44-.56-.11-.72-.5-.81-.83l.11-.03c.07-.12-.21.03-.16-.06.12-.01.2-.15.36-.13.07-.17-.25-.09-.33-.15-.15.04.12.03-.07.08-.06,0,.05-.21-.18-.15.07-.06.25-.1.34-.11l-.13-.04c.22-.19.54.04.82-.17l-.06-.06c.21-.15.33.09.34-.12-.14-.04-.48.02-.55.12-.12-.13-.55.12-.6-.05.11-.09.08.12.25.02.15-.15-.16-.12-.12-.22-.05.11-.3.13-.36.09.07-.12.23-.02.21-.15-.13.03-.27-.05-.32.08-.3.06.03-.16-.21-.14.19-.11.51-.05.57-.22-.19.09-.33-.07-.59.11.04-.07.19-.14.32-.14.09-.12-.42-.05-.05-.22l-.21.05c.06-.05.09-.1.19-.18-.02-.07-.35-.11-.05-.22-.04,0-.08-.17-.27-.03-.09.14.19.05-.07.21.21-.15-.08-.12-.18-.15l.11-.05c-.06-.02-.06-.1-.19-.07.08,0,.15-.04.17-.08l-.19.03c-.14-.1.3-.15.2-.25l.17.05s.11-.11.03-.16c-.17.04-.38.06-.51.09-.1-.05.17-.1-.02-.11l.23.02c.06,0,.24-.16.2-.26-.08-.04-.35-.05-.4.08-.02-.05.05-.15.19-.16-.1-.09-.17.08-.3.02.09-.08.2-.26.33-.39h.31s-.02-.07-.02-.07c.25,0,.15-.1.4-.14.02-.06-.08-.08-.15-.1-.32.27-.55.04-.87.2-.16-.15.77-.41.18-.41-.08.06-.36.07-.22.15,0-.12-.36.05-.27-.13.17.05.3-.23.55-.16-.11.03-.06.11-.02.12.11-.09.34-.11.3-.23-.06-.06-.1-.15-.27-.07-.19.07.06.1-.15.13-.12-.11.16-.24-.2-.18.06.08-.13.17-.26.22l-.12-.07.13-.03c.03-.2-.25.04-.27-.13l.22-.17c.23-.04-.01.27.33.11-.02-.11-.21-.08-.16-.21.04.01.06.04.1.05,0-.04.45-.25.12-.3-.13-.04-.13.03-.26.07-.1-.15-.25-.15-.31-.25.27-.07-.04-.2.26-.18-.13.11-.03.34.24.31.28-.17,0,.15.33.07-.04-.13.26-.24.45-.33,0-.04-.1-.05-.13-.06-.19.05-.17.1-.36.17,0-.17-.16-.27-.37-.28.07-.08.26-.14.3-.08-.12-.16-.16-.35-.17-.54-.26.22-.14-.16-.36,0-.03.11-.22.27-.37.27,0-.06.13-.05.19-.09-.19-.01.22-.21-.06-.18.16.12.38-.1.63-.16-.18-.07.17-.06.13-.17-.17-.07-.33-.17-.43-.28.16-.24-.15-.41-.21-.55.09-.12.38-.17.39-.27-.04-.09-.26.18-.19,0h.06c-.08-.03.09-.33-.31-.23l.31-.06s-.06-.04-.1-.05c.09-.04.17-.1.25-.08.17-.16-.1-.17-.14-.26l-.15.12c-.19-.11-.07-.28-.18-.42l.17-.06-.13-.06c.17-.04.24-.16.09-.16l.5.09c-.07.1-.23,0-.38.1-.13.09-.03.22.14.18,0-.06-.04-.05-.12-.07.23-.1.25-.02.42-.03-.02-.03.04-.09-.04-.07.14.02.17.07.22.16-.11-.03-.13.09-.21.09.21-.07.31,0,.29.14-.21.17.23.17.22.33-.23.02-.42.01-.54-.04-.07.12.04.09-.03.22.17-.02.42-.07.56,0l-.15.06c.12.07.34-.01.35.13,0,.25.09.48.13.65l-.15.06c.36-.03.24.27.43.34-.07.27.32.41.1.62.26.34.5.63.59,1.04l-.25.02c.19,0-.11.09-.05.15.15-.15.27.01.42,0-.11.24.16.39.38.49l-.15.06c.35.05.16.33.19.54-.06.05-.19.13-.15.19.29.01.29.08.5.17.04.11.05.32,0,.47.51.3.45.82.82,1.19l-.17.1c.54.29.39.95.72,1.24l-.32.08c-.05.15.18.23.39.12-.05.15.26.23.03.4-.01.14.2.09.27.18-.03.28.03.36.17.56v-.06c-.08,0-.21.05-.21.11.12.05.03.34.37.12-.12.32.38.49.18.83.09-.06.13,0,.21,0,.08.21-.04.5.19.61-.04.05-.19.01-.17.1.06.04.13-.05.21,0,.31.27.06.76.22,1.05.4.48.51,1.08.74,1.6l-.08.02c.35.07-.14.52.34.5-.06.07.03.17-.13.19.25.07-.04.46.28.57,0-.02-.02-.03-.06-.04-.09.26.2.36.14.63-.04-.01-.08-.04-.15-.02-.11.14.38.08.05.26.02.05.19-.03.17-.06.04.52.45.94.71,1.4-.08.43-.59.24-.22.42-.06.05.14-.03.07,0,.14.07-.34.31-.12.32.21-.11.14,0,.27-.04-.06.27-.24.38-.01.49l-.12.03c.4.08.31.37.75.4.47,1.07,1.07,2.05,1.51,3.1.32,1.08.87,2.06,1.07,3.21-.21.36-.19.38.03.61-.05,0-.07,0-.11.03.25-.08.1.19.34.12.1.41.3.76.46,1.16-.05-.05-.27-.01-.22.06l.19.02-.06.04c.06.04.2.05.26-.03.59.95.47,2.14.9,3.13-.02.28.21.58.35.82-.05.89-.06,1.68.46,2.38,0,0-.68.14-.95-.13Z"/>
      <path class="cls-2" d="M24.57,21.2c-.11.07-.15.19-.34.18.11-.05.23-.15.34-.18Z"/>
      <path class="cls-2" d="M24.17,24.07s-.04.05-.06.07c-.02-.03-.13-.02-.08-.06.02.03.08,0,.13,0Z"/>
      <path class="cls-2" d="M24.33,24.7c-.11.03-.25-.07-.29-.14l.29.14Z"/>
      <path class="cls-2" d="M24.08,25.44c-.08.08-.13.09-.15.02.06-.03.09-.02.15-.02Z"/>
      <path class="cls-2" d="M24.35,25.39s-.04.09-.09.14c.09-.04-.1-.09.09-.14Z"/>
      <path class="cls-2" d="M24.49,26.74s.14.06.02.13c.07-.06-.19-.09-.02-.13Z"/>
      <path class="cls-2" d="M24.86,27.25s-.02.04.02.05c-.04.05-.13.05-.15.02l.13-.07Z"/>
      <polygon class="cls-2" points="29.17 37.54 29.1 37.5 29.21 37.47 29.17 37.54"/>
      <path class="cls-2" d="M30.88,42.12c.09.04-.09.08-.1.1-.03-.05.14-.03.1-.1Z"/>
      <polygon class="cls-2" points="32.34 44.38 32.33 44.37 32.56 44.29 32.34 44.38"/>
    </g>
  </g>
  <g>
    <g>
      <ellipse class="cls-1" cx="58.82" cy="52.06" rx="13.1" ry="12.55"/>
      <g>
        <path class="cls-2" d="M72.34,52.26c-.04-.31-.21.16-.08-.2.09.04.16.1.08.2Z"/>
        <path class="cls-2" d="M72.16,51.05c-.32-.46-.45-.99-.5-1.55-.13-.54-.18-1.14-.58-1.55-.07-.1.33-.09.15-.32-.79-.78-1.26-2.25-1.8-3.46h.12c-.1-.24-.52-.27-.66-.47.05-.04.12,0,.15-.1-.19.08-.38-.28-.56-.25-.02-.12.1-.22.07-.38l-.25.05c-.65.12-.7-.69-1.31-.81.05-.02.12-.02.11-.09-.89-.27-1.75-.91-2.69-1.19.07-.05.16-.17.14-.27-.14.19-.43.12-.68.05-.02-.27-.49.05-.72-.17l.04-.04c-.29.16-.27-.24-.52-.02l-.08-.22c-.18.3-.26-.24-.49-.12v.07c-.2.04-.24-.15-.41-.13v-.04c-.38-.02-.57-.2-.61.05-.1-.22.38-.04.23-.37-1.28.04-2.53-.05-3.78.05-.15-.09-.24-.1-.29-.2-.12.07-.46.12-.56.26.04-.01-.1-.12-.17-.12-.24-.06-.2.3-.46.25.08-.09.1-.18.05-.27-.17.25-.45.29-.68.41.03-.05.08-.09.05-.17-.21.29-.51.06-.7.29l.04-.17c-.43-.04-.02.34-.36.34.06-.07.02-.12.01-.18-.21.37-.72.43-.96.66,0-.03-.01-.06-.01-.06-.29.18-.66.23-.93.52-.15,0-.13-.34-.42-.11.16.25-.47.41-.11.6-.29.09-.74.29-.85.49.05-.17-.34-.21-.14-.38l-.27-.03c-.05-.12.19-.09.05-.17-.1.09-.34.41-.47.44-.08.3-.02.71-.28.98.06-.21-.3-.18-.24-.3,0,.26-.02.51,0,.77-.08.1-.18-.15-.25.04.06.05.04.14.05.22-.06.01-.3.42-.56.27-.13-.04.1-.19-.08-.16-.16.17-.1.24-.23.43l-.03-.02c-.13.1-.18.44.05.41.07-.08-.16-.08,0-.15.07.19-.06.43-.19.61,0-.09-.06-.13-.11-.2-.02.37-.11.69-.21,1.03.12.08-.15-.24-.06-.24-.2.13-.26.36-.33.57-.05.22-.1.42-.3.52,0-.06.19.06.15.05-.11.18-.29.08-.28.23-.11-.04-.05.17-.07.31.06.1-.07,0-.03-.11.03.23-.1,1-.38,1.37.08.02.21.34.17.44l-.17-.09c-.13.06-.07.33-.23.31.16.27.04-.87.13-.54-.17.04.18.48-.05.35-.04.2.09.43-.1.6.04-.05-.22-.22-.24-.05-.01.3.07.1.1.35l.05.16c.18.04-.07.25.15.18-.15.02.02.42-.27.36l-.23-.07c0,.13.23.24.33.34-.02.01-.07.04-.11.03.36.05-.05.3.22.46-.15.26-.03.66-.24.79.12.2.26.37.19.61-.04-.04-.05-.11-.13-.11-.1.15,0,.18.06.31-.06-.02-.16.31-.26.49.14.19.32.09.44.09-.31.24.29.52.05.8-.07-.06-.25-.25-.29-.07-.29.26.35.31.27.64l.26-.15c-.14.18.27.37-.02.43.12.06.03.36.29.24-.03.27.11.53.21.78.11.25.2.48.04.73.07.04.11.22.22.12.09-.18-.18-.09-.1-.18.04.05.11.03.15.02,0,.16.05.28-.23.26,0,.4.58.08.72.49-.11.05-.13.1-.05.19l.3.09c.11.26-.14.28-.3.4.1.11.22.26.38.23l-.09.3c.06-.22.17.03.26.05l-.08-.03c-.05.07.1.18.17.24.08-.1.01-.27-.02-.36.12,0,.17.11.32.13-.17.1.04.28.1.38.06.13.24,0,.26.03-.07.07.14.17-.04.19-.06-.01,0-.14-.12-.14,0,.12-.13.23.09.28.17.04.26-.29.35-.01-.08-.02-.15.03-.24.04l.1.25.14-.12c0,.06-.04.05-.04.08.19-.08.3.24.49.11.11.07.11.26.19.36h-.03c.04.17.24.25.4.24l-.03.03c.05.06.21.17.36.14.08.22-.35.58-.03.53.18.12.46-.08.45-.22.22.33.73.29.89.69.08-.04.08-.09.19-.08.42.35,1.09.29,1.34.81-.17,0-.08.16-.11.26.18-.11.09.21.23-.03.05-.16.09-.23-.03-.34.33.02.78.18.9.38-.06-.1.02-.13.1-.15-.1.24.12.35.32.3l.07-.15.07.18c.08-.03.15-.3.29-.11,0,.06,0,.12.01.18.21-.08.5-.22.67-.07l.12.25c.09-.01.25-.13.11-.22.31.19.53.24.62.45.64-.44,1.45-.41,2.13-.43v.12c.18.1.07-.21.2-.13-.05.11.16.24.03.38.28.12.32-.23.48-.31,0-.16-.12.12-.11-.08.02-.06.37.07.38-.17.08.08.05.26.03.36l.14-.14c.24.24-.38.55-.13.85l.15-.06c.19.22-.38.34.03.36.16-.14.24-.5.08-.58.33-.12.07-.57.42-.61.12.12-.28.08-.17.26.21.17.32-.17.48-.14-.18-.05-.09-.31,0-.38.2.06-.07.24.19.21.01-.14.21-.3,0-.34.01-.32.28.02.35-.24.14.19-.12.54.18.58-.1-.18.26-.37.02-.62.12.02.18.17.14.32.19.07.24-.49.42-.11l-.02-.22c.07.05.15.08.27.16.14-.04.32-.41.42-.12.03-.05.32-.17.12-.32-.23-.04-.14.25-.35,0,.22.18.24-.15.31-.26l.07.11c.04-.07.19-.11.17-.25-.02.09.04.15.1.16l-.02-.2c.2-.2.2.27.42.11l-.12.22s.19.07.28-.03c-.03-.18-.06-.4-.08-.55.09-.14.15.14.19-.09l-.06.28c0,.06.25.18.42.08.08-.12.12-.43-.1-.41.08-.05.26-.03.26.12.17-.16-.12-.14-.01-.33.13.07.42.06.64.1v.36s.11-.08.11-.08c-.02.3.18.09.23.35.1-.03.15-.17.19-.27-.46-.15-.05-.62-.34-.85.24-.29.73.56.68-.14-.11-.03-.14-.36-.25-.13.2-.12-.11-.38.18-.44-.06.24.4.13.32.48-.06-.1-.18.04-.2.1.16.04.21.29.4.12.09-.13.24-.27.1-.38-.14-.15-.16.16-.22-.05.17-.24.43-.05.26-.39-.11.15-.29.02-.39-.08.03-.07.07-.13.09-.2l.07.13c.3-.17-.1-.25.14-.45l.3.08c.11.22-.4.27-.09.49.16-.15.07-.33.28-.41,0,.05-.04.11-.05.16.06-.05.48.23.48-.19.03-.19-.07-.12-.17-.21.19-.29.13-.47.25-.65.19.2.26-.29.33.07-.2,0-.48.39-.37.66.33.12-.22.17-.03.45.2-.2.43.02.63.12.07-.05.05-.18.05-.23-.13-.15-.19-.07-.35-.19.24-.22.35-.54.3-.79.14-.03.28.12.22.23.21-.33.42-.67.67-.95-.4.03.15-.38-.16-.38-.17.13-.45.14-.52-.02.08-.09.12.08.2.07-.08-.22.38-.05.2-.32-.07.34.31.25.5.43,0-.29.15.1.27-.13,0-.3.03-.63.11-.9.37-.22.33-.83.44-1.12.18-.11.41.08.51-.08.05-.21-.34.06-.13-.21l.05.05c-.04-.11.34-.52-.03-.7l.28.17c.04-.05-.01-.12-.03-.18.1.02.21-.03.24.08.27-.15.05-.42.08-.64l-.2.1c-.08-.39.14-.6.12-.96l.18.03-.1-.22c.17.07.29-.12.15-.25.13.19.28.4.4.61-.13.15-.19-.2-.38-.12-.17.07-.17.4,0,.48.04-.12,0-.14-.05-.24.25-.01.21.18.36.3,0-.07.09-.16.02-.18.1.15.1.29.07.52-.07-.17-.16.06-.23-.01.21.05.25.29.13.55-.3.14.02.55-.13.86-.18-.19-.31-.4-.34-.61-.16.16-.05.22-.21.38.13.14.36.28.38.57l-.16-.04c0,.25.22.33.07.61-.25.48-.49.97-.7,1.32l-.15-.06c.22.37-.24.73-.28,1.06-.39.36-.51,1.03-.91,1.07-.22.41-.47.76-.75,1.1-.26.36-.59.66-.97.95l-.03-.29c-.01.24-.17-.03-.27.1.27.02-.01.34-.02.53-.46.1-.78.58-1.01.94l-.1-.13c-.17.45-.71.47-1.15.65-.08-.04-.23-.14-.35-.06-.12.35-.25.39-.53.7-.25.13-.72.2-1.01.2-.88.71-2.02.69-3.08,1.05l-.1-.18c-.51.23-1.12.29-1.7.26-.58-.05-1.14-.08-1.61-.07l.13-.31c-.27-.14-.65,0-.62.23-.27-.13-.75.04-.87-.28-.27-.13-.39.06-.64.04-.55-.25-.75-.34-1.31-.45l.12.07c.08-.05.13-.18.01-.24-.23.02-.68-.35-.64.09-.45-.46-1.38-.41-1.73-1-.01.12-.15.06-.24.09-.48-.25-.79-.77-1.25-.87-.04-.09.22-.07.05-.2-.13-.04-.09.11-.25.06-.81-.39-1.2-1.29-1.74-1.83-1.08-.91-1.84-2.2-2.41-3.41l.08-.02c-.48-.29-.1-1.09-.66-1.27.02-.12-.09-.4.08-.37-.29-.29-.09-1-.43-1.46,0,.05.02.07.06.12.1-.54-.25-.96-.12-1.53.04.05.07.15.15.16.14-.22-.36-.47.01-.61,0-.12-.19-.08-.18,0,.07-1.19-.04-2.47.16-3.73.45-.81.63.11.54-.64.08-.03-.13-.08-.05-.07-.04-.3.53-.27.4-.5-.25,0-.08-.16-.21-.21.34-.45.55-.47.57-.92l.1.08c-.08-.58.31-1.04.21-1.59,1.39-2.44,3.36-4.5,5.86-5.77,2.49-1.14,5.24-1.79,8.01-1.36.61.39.64.4,1.37.37-.04.05-.08.05-.05.11.09-.26.49.07.61-.16.99.27,1.91.49,2.88.92-.16-.04-.32.12-.14.19l.26-.07v.08c.14.02.33-.03.24-.17.65.21,1.21.58,1.78.92.53.41,1.07.8,1.52,1.29.96.92,1.71,2,2.46,3.05.12.29.32.6.53.92.2.33.4.66.57.95.51,1.98.59,3.71.85,5.67,0,0-.7-.26-.89-1Z"/>
        <path class="cls-2" d="M72.35,52.63c-.14.06-.22.27-.39.09.13-.01.27-.12.39-.09Z"/>
        <path class="cls-2" d="M69.63,57.45s-.08.04-.11.04c.02-.06-.05-.17.03-.18-.02.06.04.08.08.14Z"/>
        <path class="cls-2" d="M68.88,58.52c-.08-.08-.02-.37.06-.51l-.06.51Z"/>
        <path class="cls-2" d="M67.76,59.15c-.14,0-.17-.05-.07-.14.05.03.05.09.07.14Z"/>
        <path class="cls-2" d="M67.9,59.39c-.07.07-.15.06-.23.05.08.06.11-.21.23-.05Z"/>
        <path class="cls-2" d="M65.78,60.84s-.1.2-.22.13c.1.04.15-.29.22-.13Z"/>
        <path class="cls-2" d="M64.88,61.63s-.06,0-.08.05c-.09-.01-.07-.12-.02-.16l.1.11Z"/>
        <polygon class="cls-2" points="46.97 54.84 47.06 54.96 46.94 54.97 46.97 54.84"/>
        <path class="cls-2" d="M48.71,45.5c.02-.15.15,0,.17-.02-.06.1-.09-.12-.17.02Z"/>
        <polygon class="cls-2" points="52.37 41.48 52.34 41.5 52.23 41.28 52.37 41.48"/>
      </g>
    </g>
    <g>
      <ellipse class="cls-1" cx="58.82" cy="52.06" rx="6.04" ry="5.42"/>
      <g>
        <path class="cls-2" d="M65.29,52.15c-.05-.14-.21.07-.09-.09.09.02.16.05.09.09Z"/>
        <path class="cls-2" d="M65.13,51.59c-.32-.2-.37-.42-.39-.68-.04-.25-.05-.53-.33-.67-.04-.04.32-.11.19-.2-.62-.23-.68-.91-.82-1.6l.09-.04c-.02-.14-.35-.02-.4-.13.04-.05.09-.04.13-.12-.16.11-.21-.09-.35-.02.02-.09.12-.2.13-.3l-.2.12c-.48.28-.31-.32-.69-.24.04-.03.08-.05.09-.1-.5.03-.88-.25-1.32-.3.04-.06.11-.19.12-.28-.11.2-.25.2-.37.2.03-.24-.25.14-.33-.02l.03-.05c-.16.21-.1-.18-.25.08v-.19c-.13.31-.11-.2-.23-.05v.07c-.1.06-.11-.11-.19-.07v-.04c-.17.05-.24-.14-.28.12-.03-.21.17-.07.13-.38-.59.17-1.13.11-1.68.15-.07-.1-.11-.12-.14-.22-.05.06-.21.08-.24.21.02,0-.05-.13-.09-.13-.12-.08-.06.29-.19.2.03-.08.03-.16,0-.25-.06.22-.19.22-.28.3,0-.05.03-.08,0-.16-.07.25-.23,0-.3.17v-.15c-.22-.12.04.31-.14.26.02-.06,0-.11-.02-.17-.05.31-.29.28-.38.42,0-.02-.02-.06-.02-.06-.12.09-.3.08-.4.25-.08-.03-.14-.34-.26-.21.14.26-.18.24.06.49-.14.01-.38.03-.39.16-.01-.13-.25-.27-.17-.35l-.17-.1c-.06-.11.1-.02,0-.13-.05.04-.12.24-.2.23.01.21.14.55.04.68-.01-.14-.24-.23-.23-.3.06.2.12.4.19.58-.03.04-.17-.17-.17-.06.06.06.06.12.09.18-.04,0-.1.2-.33.01-.1-.06.02-.11-.1-.14-.07.08,0,.15-.07.22l-.03-.03c-.08.02-.03.23.14.29.04-.03-.14-.1-.04-.1.1.15.07.26,0,.34-.02-.05-.08-.1-.14-.16.09.24.07.39.08.56.11.08-.18-.19-.11-.16-.26.05.02.45-.28.44-.01-.03.18.09.14.07-.05.06-.23-.03-.19.05-.11-.05,0,.08,0,.14.06.06-.06-.01-.05-.06.05.12.11.47-.12.58.08.02.25.19.23.23l-.17-.07c-.12,0-.02.13-.18.1.19.15-.09-.38.04-.22-.16-.01.24.24,0,.15-.02.08.16.21-.02.24.03-.02-.24-.12-.24-.05.01.13.08.05.12.16l.06.07c.18.03-.04.1.16.09-.15,0,.06.17-.23.13l-.23-.04c0,.06.24.11.34.16-.02,0-.07.01-.11,0,.36.04-.04.12.24.19-.14.1-.02.26-.24.31.11.08.25.14.17.24-.03-.01-.05-.04-.12-.04-.1.07,0,.07.05.12-.06,0-.19.14-.3.23.12.07.31,0,.42,0-.33.14.25.17-.03.33-.05-.01-.2-.07-.27.01-.32.17.3.08.17.25l.27-.12c-.16.11.2.11-.08.19.12,0-.04.16.23.05-.16.28.31.35-.08.69.06,0,.05.09.17,0,.12-.12-.13,0-.04-.07.02.02.09-.02.13-.03-.03.08-.02.14-.26.21-.08.22.49-.13.49.07-.1.06-.13.1-.09.13l.22-.04c.02.12-.18.21-.34.34.07.03.11.09.25.02l-.15.22c.1-.16.13-.04.18-.05h-.06c-.06.07.03.1.07.11.09-.09.08-.18.08-.23.09-.03.1.02.2-.02-.16.12-.04.17-.02.21,0,.07.17-.08.18-.06-.07.07.05.07-.08.15-.04,0,.04-.1-.05-.06-.03.08-.16.2,0,.16.11-.03.26-.29.25-.12-.05.02-.11.07-.18.1v.15s.13-.13.13-.13c-.02.04-.04.05-.05.07.15-.12.16.06.31-.09.05.02,0,.16.03.21h-.02c-.02.13.09.12.2.06l-.03.03s.1.05.19-.01c-.01.16-.36.57-.15.44.08.05.29-.2.32-.32.06.19.35,0,.34.32.05-.05.06-.1.12-.12.17.16.49-.01.52.38-.09.05-.07.17-.1.26.11-.13,0,.18.12-.08.05-.15.08-.23.04-.31.15-.04.33.02.36.19-.01-.08.03-.12.07-.16-.08.25,0,.31.1.23l.05-.15v.17s.11-.32.15-.15c0,.06-.02.12-.01.17.1-.11.24-.3.29-.16l.03.24s.12-.15.07-.22c.12.16.2.19.23.39.29-.47.6-.47.87-.46v.12c.08.11.02-.21.08-.13-.02.11.07.24.03.38.12.12.12-.21.18-.27,0-.16-.04.11-.05-.09,0-.06.16.1.14-.14.04.09.04.26.04.36l.05-.12c.12.26-.12.51,0,.83l.06-.05c.1.23-.15.3.04.36.06-.13.07-.47,0-.56.14-.08-.02-.56.13-.56.06.13-.11.05-.05.23.1.18.12-.12.19-.08-.08-.07-.07-.32-.04-.37.09.09,0,.23.11.23-.01-.14.06-.26-.04-.33-.03-.31.12.06.12-.18.09.2.02.51.16.59-.07-.2.06-.3-.07-.59.06.05.11.2.11.34.1.1.03-.41.18-.02l-.04-.21c.04.06.08.1.15.2.06-.02.07-.33.18-.02,0-.03.13-.07,0-.26-.12-.09-.03.18-.17-.08.14.22.09-.07.1-.16l.05.11c0-.06.07-.05.03-.18.01.07.05.15.08.17l-.05-.18c.05-.13.16.29.23.2v.16s.1.11.12.04c-.05-.16-.12-.36-.16-.49.01-.09.11.16.08-.02l.03.22c.01.06.17.23.24.19.02-.08-.03-.33-.15-.38.03-.02.13.05.16.17.05-.09-.1-.16-.09-.29.08.08.25.19.39.29l.08.29.05-.03c.06.24.13.13.22.36.06,0,.06-.09.05-.17-.31-.26-.18-.52-.41-.79.06-.16.58.66.38.11-.07-.06-.18-.32-.19-.18.09-.02-.17-.32,0-.27.03.16.29.23.33.47-.07-.1-.11-.03-.1,0,.11.08.21.29.29.23.03-.07.09-.13-.04-.26-.13-.16-.06.07-.16-.11.04-.13.26.1.06-.21-.04.07-.19-.08-.28-.19v-.11s.08.11.08.11c.16,0-.13-.21-.03-.26l.22.16c.14.19-.19.05.07.31.07-.05-.04-.21.08-.19.01.04,0,.06.01.1.03-.01.4.32.28.03-.04-.12-.08-.1-.18-.2.07-.12-.02-.25.02-.33.2.19.11-.1.27.16-.15-.07-.25.09-.11.3.27.19-.11.04.1.3.09-.08.32.15.48.28.04-.02,0-.1-.01-.14-.13-.14-.16-.11-.31-.25.13-.06.13-.24.03-.41.1.03.25.16.23.22.06-.16.18-.28.31-.37-.32-.1.03-.18-.23-.27-.1.03-.33-.05-.43-.17.04-.02.12.08.18.1-.12-.14.29.08.09-.12.01.16.32.23.52.38-.06-.16.15.1.21,0-.07-.17-.1-.34-.1-.46.29-.02.15-.34.19-.45.15-.02.4.12.47.06.02-.09-.31-.03-.15-.12l.05.03c-.05-.06.26-.19-.13-.33l.29.12s-.03-.06-.05-.09c.1.02.19.02.25.07.24-.03.02-.19.02-.29l-.19.02c-.11-.18.08-.25.04-.41l.18.03-.1-.1c.17.04.29-.04.15-.1.14.09.29.19.41.3-.12.06-.2-.1-.38-.08-.16.02-.14.16.03.22.03-.05,0-.06-.07-.12.25.02.23.1.38.17,0-.03.08-.07,0-.09.11.08.12.15.1.26-.08-.09-.16,0-.22-.03.21.05.27.17.17.28-.27.03.09.28-.02.42-.19-.13-.34-.25-.4-.36-.13.06-.02.1-.15.15.14.09.38.2.43.35l-.16-.05c.04.13.26.22.16.34-.16.21-.29.43-.4.59l-.14-.07c.26.27-.08.36-.03.57-.25.12-.21.52-.5.44-.18.4-.39.77-.79,1l-.09-.23c.05.19-.12-.08-.16,0,.18.1.07.27.1.41-.28-.04-.37.28-.45.51l-.09-.14c-.01.35-.34.24-.56.28-.05-.05-.15-.17-.21-.13,0,.29-.07.3-.18.52-.13.05-.36.05-.52,0-.38.51-.95.38-1.45.66l-.06-.19c-.49.45-1.14.07-1.59.23l.08-.32c-.12-.12-.32.04-.32.28-.12-.12-.38.11-.41-.18-.13-.09-.2.11-.33.12-.26-.18-.36-.19-.64-.22l.06.04c.05-.06.1-.19.04-.23-.12.06-.32-.2-.36.2-.18-.32-.73-.09-.84-.51-.03.11-.1.09-.16.14-.24-.12-.36-.45-.63-.42,0-.07.16-.11.08-.18-.07,0-.08.11-.18.12-.48-.09-.56-.69-.86-.93-.64-.35-1.02-1.02-1.34-1.62l.07-.03c-.39-.07.07-.61-.42-.6.05-.08-.04-.21.12-.22-.25-.12.04-.53-.27-.73,0,.03.02.04.05.06.13-.29-.16-.48-.02-.78.04.03.06.07.14.07.14-.11-.35-.22.03-.31,0-.06-.19-.03-.18,0,.11-.6-.07-1.25.01-1.91.34-.38.62.15.45-.27.08,0-.13-.07-.06-.05-.06-.17.47-.05.32-.2-.23-.05-.1-.1-.23-.16.24-.19.45-.15.39-.41l.1.07c-.19-.38.1-.54-.11-.92.72-1.22,1.7-2.29,2.98-2.9,1.28-.49,2.64-.87,4.01-.56.29.35.3.35.66.27-.02.05-.05.06-.03.11.06-.26.24.01.32-.22.49.15.96.21,1.45.41-.09,0-.2.18-.11.2l.16-.12v.07c.06,0,.18-.1.15-.21.67.15,1.24.59,1.7,1.07.48.48.84,1.05,1.26,1.55.09.32.42.63.62.93.15,1.1.06,1.95.32,2.92,0,0-.69-.13-.87-.47Z"/>
        <path class="cls-2" d="M65.3,52.33c-.13.03-.21.12-.38.03.12,0,.27-.04.38-.03Z"/>
        <path class="cls-2" d="M63.36,54.18s-.06,0-.08-.01c0-.03-.08-.1,0-.08,0,.03.05.06.09.09Z"/>
        <path class="cls-2" d="M63,54.56c-.09-.08-.09-.22-.07-.28.03.09.06.19.07.28Z"/>
        <path class="cls-2" d="M62.33,54.59c-.1-.04-.13-.09-.09-.12.05.04.06.07.09.12Z"/>
        <path class="cls-2" d="M62.5,54.8s-.09,0-.15-.04c.07.07.02-.11.15.04Z"/>
        <path class="cls-2" d="M61.53,55.15s0,.13-.09.03c.07.06.01-.19.09-.03Z"/>
        <path class="cls-2" d="M61.22,55.53s-.03-.02-.03.02c-.05-.03-.06-.13-.05-.15l.08.12Z"/>
        <polygon class="cls-2" points="53.82 53.16 53.89 53.19 53.78 53.22 53.82 53.16"/>
        <path class="cls-2" d="M54.58,49.48c-.02-.09.11.04.13.04-.02.04-.1-.1-.13-.04Z"/>
        <polygon class="cls-2" points="55.98 47.6 55.97 47.61 55.86 47.4 55.98 47.6"/>
      </g>
    </g>
  </g>
  <g>
    <path class="cls-1" d="M54.9,77.3h-14.8c-13.03,0-23.6-10.57-23.6-23.6h0s62,0,62,0h0c0,13.03-10.57,23.6-23.6,23.6Z"/>
    <g>
      <path class="cls-2" d="M54.54,77.74c.55-.05-.3-.21.36-.09-.08.09-.18.17-.36.09Z"/>
      <path class="cls-2" d="M56.76,77.51c.44-.16.91-.31,1.4-.42.49-.11,1.01-.18,1.53-.25,1.02-.26,2.12-.39,2.95-.95.21-.1.06.34.52.08.83-.51,1.88-1.11,3.04-1.62.56-.3,1.14-.59,1.72-.86.58-.28,1.11-.61,1.64-.88l-.06.16c.41-.21.64-.78,1.01-1.08.04.04-.05.17.08.16-.04-.22.57-.64.62-.88.19-.07.28.05.52-.05l.05-.34c.11-.92,1.29-1.29,1.69-2.28.01.07-.02.17.07.14.35-.76.9-1.49,1.32-2.33.23-.41.46-.82.69-1.23.18-.43.37-.86.54-1.27.04.1.14.22.26.16-.18-.18.04-.7.17-1.16.29-.12.08-.85.4-1.33l.03.06c-.1-.47.37-.53.16-.95l.24-.2c-.27-.27.32-.54.24-.92h-.07c0-.34.21-.46.23-.77l.04-.02c.03-.71.27-1.09.01-1.11.24-.21-.01.69.34.36.02-.59.08-1.18.11-1.77,0-.59,0-1.19.03-1.78l.02-.44h0s0-.02,0-.02h0c-.17-.17.23.23.19.18h0s-.03,0-.03,0h-.06s-.11,0-.11,0h-.22s-.89,0-.89,0c-.6,0-1.19,0-1.78,0-.27-.1-.44-.14-.5-.23-.24.05-.89.05-1.1.18.08,0-.15-.13-.28-.14-.43-.1-.47.28-.94.17.19-.07.25-.15.19-.25-.4.2-.94.17-1.42.23.07-.04.19-.07.17-.15-.52.23-.95-.05-1.41.1l.17-.15c-.73-.18-.22.31-.85.2.15-.05.1-.11.13-.17-.59.27-1.55.18-2.14.27.04-.02.03-.06.03-.06-.64.03-1.32-.05-2.02.07-.26-.07.08-.36-.6-.31.02.3-1.16.12-.75.46-.58-.05-1.5-.16-1.89-.06.26-.11-.28-.37.2-.39l-.37-.18c.05-.12.38.04.26-.11-.24.01-.95.13-1.17.08-.45.18-.86.53-1.59.56.34-.12-.19-.33.04-.38l-1.01.57c-.24.01-.05-.24-.4-.16.02.08-.13.13-.24.19-.09-.03-1.01.07-1.11-.22-.11-.12.39-.06.13-.17-.45,0-.47.1-.91.11v-.04c-.3-.04-.88.13-.56.29.21,0-.08-.18.23-.09-.21.17-.73.22-1.17.22.15-.05.13-.13.2-.21-.6.23-1.24.3-1.91.4-.01.14.25-.25.35-.18-.86-.19-1.78.28-2.49,0,.12-.02.06.2.06.16-.41-.02-.4-.22-.67-.15-.03-.12-.34.04-.62.07-.14.09-.07-.06.17-.07-.39.1-1.94.28-2.83.11.02.08-.55.29-.75.28l.08-.18c-.19-.11-.69.02-.72-.14-.44.22,1.69-.19,1.1-.02-.15-.15-.83.29-.7.04-.41,0-.81.21-1.21.04.11.03.34-.26,0-.24-.59.03-.17.09-.64.15l-.3.08c-.02.18-.52-.02-.31.18-.07-.15-.85.09-.79-.21l.08-.23c-.25.02-.42.25-.61.35-.03-.02-.1-.07-.09-.11-.04.36-.61-.03-.91.25-.53-.12-1.35-.01-1.6-.23-.41.11-.78.24-1.25.16.09-.03.22-.04.25-.12-.29-.11-.37-.01-.63.05.06-.05-.59-.21-.91-.34-.41.11-.27.3-.31.42-.37-.35-1.15.23-1.61-.09.14-.05.59-.17.26-.26-.37-.35-.75.26-1.35.09l.15.29c-.27-.18-.88.17-.82-.13-.2.11-.71-.1-.64.19-.98-.24-2.39.15-3-.37-.14.05-.49,0-.42.15.23.16.33-.11.41,0-.13,0-.15.09-.17.13-.31-.07-.55-.09-.26-.32-.68-.18-.7.49-1.57.38.04-.12-.03-.16-.28-.14l-.48.2c-.56-.05-.32-.27-.33-.47-.3.03-.67.02-.8.17l-.36-.25c.26.18-.25.12-.39.17l.14-.05c-.06-.08-.4-.03-.58,0,.04.12.39.17.59.21-.15.09-.39.07-.59.17.07-.2-.49-.14-.73-.16-.27-.04-.31.18-.39.17,0-.1-.45-.02-.23-.16.09-.03.21.1.37,0-.18-.08-.16-.25-.53-.12-.28.1.07.39-.46.26.14-.05.17-.13.27-.2l-.5-.1-.02.18c-.07-.05-.02-.06-.05-.08-.15.19-.76.06-.88.27-.25.02-.53-.12-.77-.14l.05-.02c-.29-.11-.69-.04-.93.09v-.04c-.15-.01-.53.01-.73.12-.41-.14-.14-.68-.59-.45-.41,0-.65.33-.48.44-.37-.06-.77-.02-1.15,0h-.15s-.02,0-.02,0h0c-.23.23,2.01-2.01,1.06-1.06h0s0,0,0,0h0s0,.01,0,.01v.03s0,.07,0,.07c0,.09,0,.18,0,.27,0,.18-.03.35-.09.52.08.1.12.03.17.24-.07,1.05.43,2.14.2,3.02-.12-.29-.18.01-.28.04.2.22-.12.33.17.37.16-.06.24-.05.26-.35.18.6.46,1.49.38,1.87.03-.19.11-.07.19.05-.25.02-.2.49,0,.79h.17s-.08.26-.08.26c.09.11.36.03.34.4-.05.04-.1.08-.12.15.25.29.61.68.64,1.09l-.07.38c.1.14.34.33.28.04.16.65.33,1.04.25,1.33.97.79,1.84,2.14,2.63,3.19l-.12.04c.12.35.27.02.35.27-.16-.02-.03.37-.3.23.23.48.59.36.85.57.15-.07-.25-.13-.06-.21.08,0,.38.6.6.5.02.16-.17.2-.29.22l.29.15c.06.48-.94-.31-.92.22l.23.19c.01.38-.73-.4-.29.22.31.16.73.13.61-.16.49.45.61-.17,1.1.32.05.23-.44-.35-.47-.12.12.36.57.37.74.62-.18-.29.18-.27.36-.17.19.32-.32.01.04.37.15-.05.55.19.32-.15.33-.11.33.42.7.38,0,.27-.73.08-.35.5.06-.21.72.18.67-.23.13.17.05.32-.15.33.17.29.82.14.66.54l.21-.11c.04.11.11.24.18.42.23.15.9.21.71.47.09.02.62.35.52.04-.26-.31-.46-.09-.48-.46.1.35.49.26.71.3l-.03.13c.14.03.38.21.51.13-.12.01-.12.11-.04.19l.21-.1c.52.14-.04.35.45.52l-.42-.04c.09,0,.17.24.43.3.17-.11.42-.22.55-.3.29.06.04.23.37.2l-.43.03c-.08.03.11.37.47.54.25.07.71-.05.38-.26.18.07.4.26.21.32.44.1.02-.19.41-.16.1.16.5.48.73.74l-.48.13.26.1c-.41.1.11.23-.16.39.17.1.41.1.6.1-.4-.55.74-.31.69-.72.73.09.22.95,1.1.6-.1-.12.31-.3-.16-.31.43.15.38-.27.86,0-.41.04.34.46-.26.52.06-.11-.29-.17-.39-.16.15.18-.12.34.34.46.29.06.69.08.66-.1.03-.2-.44-.04-.22-.22.58.01.62.34.91.01-.36-.03-.41-.25-.38-.38l.42-.02-.1.12c.64.2.23-.21.85-.08l.26.31c-.18.2-.91-.24-.85.14.42.08.58-.09.96.07-.09.02-.21,0-.3.03.15.04.25.57.88.3.32-.1.09-.13.11-.27.68,0,.88-.14,1.32-.14-.1.28.78.05.29.32-.22-.17-1.19-.21-1.45.04.23.34-.53-.07-.71.25.55.03.5.35.58.57.16.02.31-.06.41-.09.08-.19-.13-.2-.13-.4.62.08,1.21.02,1.56-.18.21.1.15.29-.11.31.76-.06,1.57-.03,2.29.03-.47-.32.81-.08.49-.34-.39-.07-.72-.3-.51-.45.24.02,0,.14.09.21.31-.18.48.28.78,0-.69.1-.14.39-.26.64.5-.14-.02.18.47.18.5-.14,1.11-.25,1.67-.31.7.24,1.76,0,2.39,0,.33.13.11.41.46.46.41,0-.31-.31.31-.18l-.06.06c.19-.07,1.13.19,1.31-.22l-.19.31c.11.03.22-.04.32-.08,0,.1.14.19-.05.26.38.21.8-.03,1.21-.04l-.26-.18c.71-.14,1.18.04,1.86-.03l-.02.18.41-.11c-.1.17.27.28.49.14l-1.05.44c-.29-.11.32-.22.14-.39-.16-.15-.79-.11-.89.07.24.02.25-.02.44-.08.08.25-.29.24-.47.41.13-.01.31.07.33-.01-.25.12-.5.14-.91.15.28-.1-.15-.15-.05-.23-.03.22-.43.29-.94.23-.37-.25-.96.16-1.55.09.24-.22.55-.4.91-.49-.37-.11-.41,0-.79-.11-.18.17-.31.42-.79.52l-.03-.16c-.44.08-.44.33-1,.28-.96-.08-1.95-.08-2.68-.1l-.03-.16c-.41.35-1.36.13-1.91.28-.94-.17-2.02.18-2.52-.15-1.68.08-3.18.03-4.89-.4l.34-.16c-.34.09-.17-.18-.47-.23.3.27-.47.13-.72.22-.35-.2-.79-.27-1.22-.38-.42-.1-.85-.16-1.21-.21l.03-.16c-.79.07-1.45-.55-2.21-.98-.06-.1-.13-.31-.37-.41-.56.04-.74-.14-1.43-.35-.43-.27-1.13-.73-1.47-1.15-.88-.42-1.7-.97-2.41-1.65-.36-.33-.76-.64-1.1-1-.35-.36-.7-.71-1.08-1.05l.05-.23c-.42-.28-.75-.68-1.09-1.08-.33-.41-.68-.82-.94-1.28-.54-.91-1.06-1.78-1.49-2.5h.36c-.13-.51-.59-1.03-.75-.82-.16-.5-.67-1.15-.53-1.56-.13-.52-.37-.56-.56-.97-.22-1.06-.3-1.45-.62-2.42l.04.25c.1.09.24.07.19-.18-.22-.34-.16-1.38-.49-.94.03-.56-.11-1.17-.24-1.8-.09-.62-.13-1.25-.01-1.79-.1.09-.14-.17-.21-.28v-.36s0-.18,0-.18v-.02s0-.01,0-.01h0c.62,0-1.39,0,1.39,0,0-2.77,0-.77,0-1.39h0s.04,0,.04,0h.09c.23.02.45.04.68.06.44.03.86.04,1.22-.05.14.05-.23.18.14.19.22-.04,0-.14.27-.2,1.47-.2,2.97.21,4.31.15,2.37-.21,4.85-.1,7.12-.14l-.03.08c.76-.3,1.79.31,2.39-.14.18.08.69.04.55.19.61-.21,1.7.2,2.57-.07-.08,0-.13,0-.22.04.88.17,1.67-.06,2.6.09-.09.03-.27.06-.29.14.36.15.85-.33,1.05.05.21,0,.15-.19.02-.18,2.05.15,4.23-.09,6.36-.18,1.53.23.09.64,1.3.36.1.07.07-.15.09-.07.47-.11.72.42,1.05.22-.13-.23.21-.13.22-.27.93.15,1.12.36,1.86.18l-.06.12c.86-.35,1.86-.16,2.59-.56,4.76-.07,9.32-.29,13.95-.34,2.29.04,4.56.01,6.84,0,1.14,0,2.28,0,3.43,0,.57.01,1.15.02,1.73.03h.11s.01,0,.01,0h0s0,0,0,0c-1.48-1.48,2.02,2.01,1.66,1.66v.03s0,.06,0,.06l-.02.23-.04.46-.08.93c-.36,1.14-.43,1.2-.48,2.48-.04-.06-.04-.14-.1-.06.25.11-.1.89.11,1.05-.26.88-.44,1.75-.71,2.59-.31.83-.54,1.71-.96,2.55.1-.28-.03-.5-.17-.18v.4s-.1.02-.1.02c-.07.23-.07.53.12.34-.43,1.12-1.07,2.13-1.7,3.14-.34.49-.72.94-1.08,1.41-.19.23-.37.46-.56.68l-.62.63c-1.61,1.72-3.5,3.1-5.42,4.38-.5.23-1.06.59-1.65.93-.6.32-1.21.65-1.73.93-3.41,1.09-6.53,1.44-10.06,1.72,0,0,.47-.71,1.86-.93Z"/>
      <path class="cls-2" d="M53.87,77.76c-.12-.13-.51-.2-.2-.38.04.12.24.26.2.38Z"/>
      <path class="cls-2" d="M43.53,76.4s-.15-.05-.18-.08c.13,0,.25-.12.35-.05-.13.01-.11.07-.17.13Z"/>
      <path class="cls-2" d="M40.88,76.33c.04-.12.61-.21.94-.23l-.94.23Z"/>
      <path class="cls-2" d="M38.52,75.76c-.19-.11-.13-.16.13-.14.02.06-.08.09-.13.14Z"/>
      <path class="cls-2" d="M38.34,76.02c-.19,0-.29-.08-.37-.15,0,.1.45-.04.37.15Z"/>
      <path class="cls-2" d="M33.46,74.75c-.12-.03-.39-.03-.45-.19.09.13.59.06.45.19Z"/>
      <path class="cls-2" d="M31.22,74.09c-.07-.04-.08-.07-.18-.08-.1-.11.06-.12.17-.08v.17Z"/>
      <polygon class="cls-2" points="34.41 54.59 34.14 54.65 34.18 54.53 34.41 54.59"/>
      <path class="cls-2" d="M54.25,54.58c.27-.07.19.11.23.13-.24.01.09-.15-.23-.13Z"/>
      <polygon class="cls-2" points="64.94 53.99 64.86 54 64.89 53.76 64.94 53.99"/>
    </g>
  </g>
</svg>