<?xml version="1.0" encoding="UTF-8"?>
<svg id="Layer_3" data-name="Layer 3" xmlns="http://www.w3.org/2000/svg" viewBox="0 0 95 95">
  <defs>
    <style>
      .cls-1 {
        fill: #fff;
      }

      .cls-2 {
        fill: #ff4f20;
      }
    </style>
  </defs>
  <g>
    <path class="cls-1" d="M21.74,49.32c-3.22-2.55-2.82-13.28-2.82-13.28,3.49,1.07,16.64-2.55,24.55,13.28"/>
    <g>
      <path class="cls-2" d="M21.32,49.66c.17.08.09-.27.16,0-.09.08-.17.12-.16,0Z"/>
      <path class="cls-2" d="M43.55,48.68c-.93-.09-.58-1.06-1.28-1.31-.06-.04.37-.2.21-.28-.75-.19-.94-1.06-.97-1.88l.12-.03c0-.16-.41-.06-.45-.2.06-.05.12-.03.18-.12-.21.11-.23-.14-.41-.08.04-.1.2-.21.24-.33l-.26.1c-.64.22-.25-.47-.71-.48.06-.03.12-.04.15-.09-.62-.11-.95-.59-1.4-.88.08-.05.22-.15.28-.25-.23.17-.38.1-.52.04.17-.25-.35,0-.34-.23l.06-.04c-.29.12,0-.26-.33-.06l.1-.21c-.33.26.02-.27-.2-.19l-.06.06c-.14.01-.03-.17-.15-.18l.03-.04c-.23-.06-.16-.3-.37-.06.12-.24.23.05.39-.31-.73-.2-1.17-.74-1.75-1.1.01-.15,0-.21.05-.32-.09.01-.25-.1-.39,0,.02,0,.06-.16.04-.19-.03-.17-.31.21-.34.02.09-.04.17-.11.22-.22-.24.14-.34.02-.5,0,.05-.03.09-.04.14-.13-.28.15-.19-.21-.4-.13l.14-.13c-.06-.31-.26.29-.34.09.07-.03.09-.1.14-.16-.33.21-.51-.02-.71,0,.02-.02.04-.06.04-.06-.18-.05-.3-.24-.55-.2-.03-.11.23-.39.03-.42-.16.33-.36-.02-.45.41-.12-.13-.29-.39-.44-.31.13-.1.12-.44.26-.42v-.24c.07-.13.08.09.13-.1-.07-.01-.33.04-.36-.04-.22.16-.49.5-.7.47.15-.1.11-.4.19-.43l-.54.55c-.07,0,.09-.28-.03-.23-.03.09-.09.13-.15.2,0-.05-.29-.02-.19-.37.02-.15.13-.03.11-.18-.12-.05-.17.07-.29.03v-.05c-.05-.08-.27.08-.25.29.05.03.05-.21.1-.09-.13.18-.28.2-.4.17.06-.04.09-.14.13-.23-.25.22-.45.26-.66.32-.05.17.16-.28.16-.19-.16-.3-.57.18-.66-.21.04-.02-.05.24-.04.2-.1-.05-.03-.3-.13-.23.03-.14-.1.01-.19.04-.07.1,0-.07.07-.07-.14.1-.61.23-.8-.03-.02.1-.22.32-.28.3l.07-.22c-.02-.14-.19-.02-.16-.21-.18.25.51-.13.3.04,0-.2-.3.31-.2.01-.11-.02-.27.21-.34-.02.02.04.15-.29.06-.3-.17,0-.07.1-.21.14l-.1.07c-.04.22-.14-.05-.12.2.01-.18-.25.08-.18-.28l.07-.28c-.07.01-.17.29-.24.41,0-.03-.01-.09,0-.13-.08.44-.16-.06-.3.27-.12-.17-.37-.07-.4-.35-.13.12-.25.26-.37.15.03-.04.07-.05.09-.14-.07-.14-.1-.03-.18.03.02-.07-.13-.27-.21-.44-.13.12-.11.36-.14.51-.06-.45-.35.26-.44-.15.04-.06.19-.2.1-.32-.07-.45-.24.31-.39.08v.37c-.04-.23-.25.19-.2-.18-.06.13-.19-.14-.19.22-.26-.32-.68.15-.82-.5-.04.06-.14,0-.13.18.06.2.1-.14.12,0-.04,0-.05.11-.05.15-.08-.09-.15-.11-.06-.41-.19-.23-.22.59-.46.44.02-.15,0-.2-.07-.18l-.15.25c-.16-.06-.08-.34-.08-.59-.09.04-.19.03-.24.21l-.1-.32c.07.23-.08.15-.12.21l.04-.06c-.01-.11-.11-.04-.17-.01,0,.15.11.22.16.27-.05.11-.11.08-.18.21.03-.24-.14-.18-.2-.2-.08-.05-.09.22-.12.21,0-.13-.13-.02-.06-.2.03-.04.06.12.11.01-.05-.1-.04-.32-.15-.16-.08.12.01.48-.14.32.04-.06.05-.16.09-.24l-.14-.13v.22c-.03-.06-.02-.08-.02-.11-.05.23-.23.06-.27.33-.08.02-.15-.16-.22-.19v-.02c-.06-.13-.1-.05-.12.1v-.05s-.08.02-.08.15c-.08-.17-.19-.85-.21-.57-.08,0,.01.41.08.55-.16-.16-.07.21-.34-.16.04.09.08.15.09.2-.12-.08-.1.05-.19,0-.02-.01-.06-.04-.11-.08-.04-.02-.09-.06-.16-.12-.09-.14-.22-.24-.35-.37.2.25-.21-.15.13.21.2.2.3.3.38.35.11.18.11.25-.08.15.09.05.16.12.22.17-.32-.25-.37-.22-.26-.1l.2.13-.2-.1c.06.06.41.26.22.19-.08-.04-.15-.08-.21-.1.16.14.43.29.27.26-.1-.02-.19-.05-.29-.06.03.04.21.12.29.11-.17.03-.19.09-.44.09.3.15.46.14.55.41.08.21.09.43.07.62h-.15c-.13.11.26.04.16.11-.14-.03-.3.09-.47.02-.14.16.27.18.34.27.19,0-.13-.07.12-.07.07.01-.14.21.15.22-.11.04-.33.03-.45.01l.15.08c-.33.13-.62-.22-1.03-.08l.05.08c-.3.1-.36-.21-.45.02.15.09.57.14.7.05.09.19.7.05.69.25-.17.07-.05-.16-.29-.11-.23.11.14.19.07.28.1-.1.4-.04.46.01-.13.11-.28-.05-.3.1.17.01.31.14.41.01.38.02-.09.16.21.22-.26.07-.63-.1-.75.07.26-.05.37.17.74.05-.07.07-.27.09-.43.06-.15.11.49.18-.02.25h.27c-.08.04-.14.09-.28.15,0,.08.38.22-.02.25.04.02.05.2.31.1.15-.13-.22-.11.15-.21-.29.11.06.16.17.21l-.15.03c.06.03.04.12.21.13-.09-.02-.19,0-.23.04h.24c.13.15-.4.1-.32.24l-.19-.09s-.17.1-.09.16c.22,0,.48.02.64.03.1.07-.23.07,0,.12l-.27-.08c-.07,0-.34.12-.32.23.08.06.41.13.51,0,.01.06-.1.15-.27.13.09.12.23-.05.37.04-.13.06-.31.23-.5.35l-.37-.06v.08c-.29-.06-.2.08-.51.07-.04.06.07.11.16.15.45-.23.68.07,1.11-.05.15.19-1.04.31-.32.41.11-.06.46-.01.31-.12-.03.14.45,0,.3.19-.2-.08-.42.2-.71.09.15-.02.09-.11.04-.13-.16.08-.44.07-.41.2.06.07.09.18.31.12.25-.05-.05-.12.21-.11.12.14-.25.24.2.22-.05-.09.2-.17.37-.2l.13.09h-.17c-.08.22.31,0,.3.19l-.31.15c-.29.02.07-.29-.38-.16,0,.12.24.11.15.25-.04-.02-.06-.05-.11-.06,0,.04-.6.22-.21.31.16.06.17-.01.34-.05.1.17.29.18.34.29-.34.06.02.21-.35.17.18-.11.09-.36-.24-.36-.38.16.02-.16-.38-.11.02.16-.37.24-.61.32,0,.05.11.07.16.08.24-.04.22-.09.47-.16-.02.18.16.32.41.35-.1.09-.34.13-.38.07.13.18.14.41.13.62.34-.24.16.17.45,0,.05-.12.29-.29.48-.29,0,.06-.17.05-.24.1.23,0-.29.22.06.19-.18-.13-.47.12-.78.19.21.07-.21.06-.17.19.21.08.39.18.51.3-.22.29.19.43.26.57-.11.15-.45.25-.46.37.05.1.3-.25.23-.02l-.07.02c.09,0-.07.4.4.17l-.36.15s.08.02.13.02c-.11.06-.18.16-.28.15-.16.23.16.17.23.26l.15-.19c.26.05.12.31.31.38l-.17.14h.18c-.18.11-.2.29-.03.2-.2.06-.41.1-.63.14.04-.15.28-.1.4-.28.11-.15-.03-.25-.22-.15.02.07.06.05.15.04-.23.21-.28.11-.48.19.03.03-.01.13.07.08-.16.03-.23-.03-.31-.13.15,0,.13-.15.22-.17-.23.15-.37.09-.4-.09.21-.26-.35-.15-.35-.37.28-.06.5-.08.66-.05.06-.16-.07-.1,0-.27-.2.05-.5.16-.68.08l.18-.1c-.15-.08-.42.05-.45-.13-.05-.31-.13-.6-.19-.82l.19-.08c-.45.03-.29-.34-.52-.44.11-.33-.35-.54-.05-.77-.29-.44-.5-.84-.54-1.36l.31.03c-.23-.05.16-.09.1-.17-.21.14-.32-.07-.51-.1.19-.26-.1-.51-.34-.68l.2-.04c-.41-.15-.11-.44-.08-.69.08-.04.26-.11.23-.18-.34-.1-.33-.17-.55-.35-.02-.15.04-.39.15-.55-.51-.51-.26-1.1-.57-1.65l.24-.05c-.54-.56-.1-1.11-.37-2l.41.14c.12-.18-.11-.5-.4-.54.12-.18-.19-.69.14-.68.08-.19-.18-.39-.23-.64.17-.4.13-.58.07-1.12l-.03.09c.09.13.25.29.28.2-.11-.27.12-.49-.35-.82.06-.07.11-.15.13-.25.42.07.76-.08,1.35.31-.13-.16-.02-.17-.01-.26.52.08,1.11.44,1.44.27.09.08-.07.21.12.26.1-.04-.03-.18.09-.24.94-.19,1.15.3,1.57.26.7-.24,1.42-.09,2.11-.1v.1c.24-.36.5.4.72-.14.05.1.21.06.15.25.2-.25.49.29.79-.02-.02-.01-.04,0-.07.05.25.24.51-.05.77.19-.03.04-.09.06-.11.16.09.2.31-.37.31.1.06,0,.07-.23.03-.22.59.28,1.29.04,1.96.09.41.37-.13.78.3.52.01.1.06-.17.04-.08.17-.1.1.56.25.34.03-.29.1-.14.14-.31.24.25.23.5.5.35l-.05.14c.36-.34.59-.03.95-.44.36.09.73.16,1.09.23l1.07.3c.36.1.72.2,1.07.32.34.14.68.3,1.02.46.31.2.63.38.95.55l.91.61c.6.41,1.22.83,1.67,1.44,0,.53.02.54.41.67-.05.04-.08.03-.1.09.23-.23.22.15.46-.05.18.21.38.37.59.54.19.18.38.37.56.57-.08-.04-.31.11-.22.17l.23-.06-.05.08c.08.02.25-.03.28-.16.56.44.99,1.01,1.31,1.63.3.63.58,1.27,1,1.8.07.34.45.63.66.91.13,1.12.26,2.07,1.03,2.82,0,0-.82.26-1.2,0Z"/>
      <path class="cls-2" d="M21.14,49.53c.08-.15.06-.3.28-.39-.1.12-.17.29-.28.39Z"/>
      <path class="cls-2" d="M21.12,46.17s.05-.06.07-.07c.02.03.16.01.09.06-.02-.03-.09,0-.16.01Z"/>
      <path class="cls-2" d="M21.01,45.47c.14-.03.29.08.33.16l-.33-.16Z"/>
      <path class="cls-2" d="M21.42,44.7c.11-.08.18-.08.19,0-.07.02-.12,0-.19,0Z"/>
      <path class="cls-2" d="M21.09,44.73c-.01-.05.06-.1.14-.14-.12.03.1.11-.14.14Z"/>
      <path class="cls-2" d="M21.24,43.24s-.15-.09,0-.15c-.11.05.21.14,0,.15Z"/>
      <path class="cls-2" d="M20.92,42.6s.03-.04-.01-.06c.06-.05.17-.02.19.01l-.18.04Z"/>
      <polygon class="cls-2" points="25.12 37.56 25.04 37.62 25.06 37.48 25.12 37.56"/>
      <path class="cls-2" d="M30.5,38.58c.1-.07,0,.14.01.17-.07,0,.08-.16-.01-.17Z"/>
      <polygon class="cls-2" points="33.52 39.06 33.5 39.05 33.64 38.79 33.52 39.06"/>
    </g>
  </g>
  <g>
    <path class="cls-1" d="M46.45,49.49c5.6-16.79-6.26-23.53-7.97-26.76,0,0-8.76,10.97-8.29,15.05l2.28,17.04"/>
    <g>
      <path class="cls-2" d="M45.98,49.17c0,.24.28-.04.07.18-.1-.07-.18-.14-.07-.18Z"/>
      <path class="cls-2" d="M32.74,54c-.86-.65-.23-1.75-.82-2.51-.05-.09.42-.03.29-.23-.69-.72-.51-2.03-.19-3.07l.12.04c.06-.2-.36-.37-.33-.58.08-.01.12.05.22-.01-.24-.02-.16-.34-.34-.4.08-.09.27-.11.36-.22l-.28-.08c-.68-.23-.06-.77-.44-1.15.06.01.12.05.17,0-.48-.64-.52-1.5-.76-2.25.1.02.27.02.37-.03-.29,0-.39-.23-.47-.43.28-.13-.31-.32-.18-.58h.07c-.33-.13.14-.27-.24-.37l.21-.14c-.42-.03.18-.28-.05-.41l-.08.02c-.12-.13.08-.22,0-.34l.05-.02c-.15-.29.06-.49-.26-.44.24-.14.15.28.5.06-.46-.95-.53-1.98-.67-2.98.11-.13.16-.21.28-.25-.06-.1-.05-.37-.21-.48,0,.03.16-.06.18-.11.12-.17-.32-.25-.14-.43.07.1.16.14.29.13-.21-.21-.12-.43-.16-.65.05.05.07.1.17.12-.24-.29.16-.38.05-.61l.15.12c.31-.23-.34-.21-.12-.42.03.08.11.08.18.12-.24-.35,0-.71,0-.98.02.02.07.04.07.04.07-.27.28-.5.27-.84.12-.07.39.22.46-.07-.34-.15.09-.51-.37-.54.17-.2.47-.49.44-.7.07.17.46.1.39.3l.27-.03c.12.09-.12.12.07.16.03-.1.05-.43.15-.48-.11-.27-.39-.64-.28-.93.05.2.4.13.4.25l-.4-.73c.04-.1.26.13.26-.05-.09-.04-.11-.13-.15-.21.06-.01.15-.42.48-.27.15.04-.02.19.15.15.1-.17,0-.24.09-.41l.04.02c.11-.08.06-.4-.18-.39-.06.07.2.09.05.14-.14-.19-.07-.41.04-.58.01.09.1.13.17.21-.1-.37-.03-.65.02-.96-.14-.1.21.26.11.25.4-.18.13-.83.6-.89,0,.06-.22-.11-.18-.09.12-.14.32,0,.31-.14.13.07.04-.15.07-.27-.05-.11.08.01.03.11-.01-.21.18-.89.58-1.08-.08-.05-.16-.4-.1-.47l.17.16c.16.01.15-.26.32-.16-.12-.32-.22.73-.25.4.19.06-.09-.5.13-.28.09-.15-.01-.44.26-.45-.06.02.17.3.24.18.11-.23-.05-.12.01-.33v-.16c-.18-.14.16-.17-.1-.24.17.08.12-.37.41-.13l.21.2c.05-.1-.14-.32-.2-.47.03,0,.09.02.13.05-.35-.28.18-.18-.01-.5.33-.19.55-.72.82-.61.07-.31.14-.67.37-.81-.02.09-.06.17-.02.28.17-.01.14-.16.21-.38,0,.1.33,0,.48.06.1-.34-.01-.59-.04-.8.13.19.22-.04.32-.29.1-.25.23-.54.33-.36-.05.17-.2.6-.06.61.13.43.21-.48.35-.54.03.02.07.09.1.21l-.04-.7c.08.52.36.16.3.72.09-.09.24.56.29,0,.18.51.43.77.67,1.09.23.33.45.61.38,1.02.09.02.2.21.28.04.02-.27-.22-.03-.18-.19.06.05.13-.02.16-.05.09.21.17.33-.14.44.06.22.23.18.42.16.18-.05.36-.1.44.08-.12.09-.14.15-.05.21l.33-.02c.12.21-.15.33-.33.5.12.06.22.19.39.1l-.12.33c.09-.24.18-.03.27-.02h-.09c-.06.09.09.15.16.19.1-.12.04-.27.02-.36.13-.03.18.06.33.04-.2.15.02.28.07.37.04.12.25-.05.27-.02-.09.09.12.16-.08.21-.06,0,.03-.15-.1-.13-.02.12-.19.26.04.28.17,0,.34-.35.38-.07-.09,0-.17.05-.26.08l.05.25.17-.14c-.02.06-.05.06-.06.09.22-.11.28.2.51.06.09.07.04.28.09.38h-.03c-.02.18.16.26.35.24l-.04.03c.03.07.17.17.33.16-.01.25-.61.58-.27.55.12.13.5-.04.56-.19.09.35.6.43.51.89.1-.02.13-.07.23-.03.23.43.83.68.67,1.26-.15-.07-.19.12-.29.19.23-.01-.1.23.21.08.16-.12.25-.16.24-.32.25.19.49.57.42.8.04-.12.12-.1.21-.07-.29.15-.2.35-.03.44l.18-.08-.12.2c.08.02.39-.14.3.1-.06.04-.12.09-.16.14.22.07.57.16.51.4l-.18.27c.06.05.28.09.29-.07,0,.36.07.55-.11.74.76.24,1.09.99,1.29,1.6l-.14.03c-.07.21.28,0,.22.14-.15,0-.25.23-.45.15-.08.28.33.22.44.35.19-.04-.15-.08.09-.13.07,0-.05.37.24.32-.09.09-.31.11-.43.11l.18.1c-.27.27-.7-.21-1.04.09l.08.11c-.26.21-.42-.23-.43.12.18.09.62.09.7-.07.16.27.7-.06.78.27-.14.13-.11-.25-.33-.12-.18.21.21.27.17.42.06-.18.38-.13.46-.04-.08.2-.3-.04-.26.2.17,0,.36.18.42-.03.39,0-.02.27.28.33-.25.14-.65-.11-.73.18.24-.1.4.25.75.03-.05.12-.25.17-.42.13-.13.18.52.26.03.41h.27c-.08.06-.13.14-.26.24.02.13.42.36.03.41.05.03.08.33.33.18.13-.21-.24-.18.11-.34-.28.18.09.26.2.36l-.15.04c.07.06.06.21.23.23-.1-.04-.2,0-.22.06l.24.04c.16.25-.4.11-.29.36l-.21-.17s-.15.15-.07.26c.22.02.48.08.64.11.1.14-.24.09,0,.21l-.27-.16c-.07-.02-.34.16-.33.35.08.11.4.28.51.08,0,.1-.11.24-.27.18.09.21.23-.05.37.13-.14.09-.33.34-.53.49l-.37-.17v.13c-.29-.15-.21.09-.52.02-.04.09.07.18.15.26.47-.27.68.26,1.11.17.14.36-1.06.24-.35.6.11-.06.46.11.32-.11-.04.22.46.15.26.41-.17-.19-.46.2-.71-.08.14.02.12-.15.07-.19-.17.09-.44-.02-.45.2.03.13.03.32.26.29.25,0-.02-.21.24-.12.07.27-.31.31.13.43-.02-.17.24-.21.41-.2l.09.21-.17-.04c-.14.32.3.11.24.42l-.34.13c-.28-.09.15-.45-.31-.41-.03.2.2.28.07.46-.04-.04-.05-.1-.08-.15-.02.07-.64.11-.3.41.13.16.16.05.34.07.03.33.2.44.22.66-.34-.08-.06.37-.39.1.2-.09.21-.56-.1-.7-.41.09.07-.25-.33-.34-.02.25-.42.21-.68.24-.02.07.08.14.12.19.24.05.24-.04.5-.03-.08.28.04.56.26.74-.13.08-.37.03-.38-.09.07.35-.06.69-.18.99.43-.15.03.36.38.27.12-.16.42-.26.59-.14-.04.1-.17-.03-.26,0,.19.17-.38.16-.06.35-.07-.33-.47-.13-.77-.24.14.24-.22-.04-.25.17.13.24.22.53.25.78-.35.24-.13.76-.18,1.04-.19.1-.51-.07-.61.06-.04.17.41-.04.18.18l-.06-.04c.06.1-.36.41.11.61l-.35-.17s.03.1.05.15c-.12-.03-.25,0-.3-.1-.3.09-.05.34-.09.51l.25-.05c.09.34-.18.48-.19.78l-.21-.07.08.21c-.19-.1-.37,0-.22.15l-.4-.59c.16-.08.22.21.45.19.2,0,.22-.29.02-.39-.05.09,0,.11.05.21-.31-.05-.25-.2-.43-.33,0,.05-.11.1-.02.14-.12-.14-.11-.25-.07-.42.08.15.2-.01.27.06-.26-.09-.29-.27-.16-.45.35-.07-.09-.44.06-.65.24.16.42.34.49.51.18-.12.04-.17.22-.29-.18-.12-.47-.25-.54-.47l.2.04c-.05-.2-.36-.27-.26-.49.16-.37.23-.78.31-1.07l.2.02c-.4-.24-.06-.58-.21-.84.28-.36-.07-.85.28-1.01-.11-.7-.23-1.29-.11-1.99l.29.12c-.21-.13.18-.08.13-.21-.23.14-.32-.17-.5-.25.21-.31-.06-.71-.28-.97l.2-.02c-.4-.25-.08-.6-.04-.95.08-.05.26-.13.22-.23-.36-.14-.35-.24-.6-.48-.03-.19,0-.52.08-.75-.53-.65-.54-1.42-1-2.08l.21-.13c-.72-.53-.65-1.53-1.15-2l.4-.12c.02-.23-.31-.36-.55-.18.02-.23-.41-.34-.17-.61-.03-.22-.28-.13-.41-.25-.06-.43-.2-.54-.46-.82l.03.09c.1-.01.25-.1.22-.2-.17-.06-.2-.51-.53-.12.02-.51-.73-.65-.67-1.2-.09.11-.17.04-.26.06-.22-.28-.24-.76-.61-.84.01-.09.23-.07.15-.2-.1-.04-.13.11-.26.07-.56-.29-.59-1.09-1.02-1.45-.42-.27-.8-.62-1.15-.99-.16-.17-.31-.34-.47-.5-.04-.05-.08-.09-.12-.12l.05-.09c-.11.15-.09.04-.1-.09,0-.12-.04-.23-.11.12,0-.14-.03-.11,0-.36-.03.12-.04.08-.06,0-.03-.19-.11-.19-.11.13,0,0,0-.03,0-.09-.12-.2-.09.25-.24.12-.01-.05-.01-.11-.05-.22-.14-.13.13.51-.14.09-.02.04.12.23.13.2-.07.02-.13.07-.17.14l-.11.19-.17.29c-.21.4-.39.83-.61,1.22-.59.36-.67-.42-.67.19-.1-.02.13.13.05.08,0,.23-.61-.05-.48.2.27.12.08.17.22.27-.38.22-.63.14-.63.52l-.11-.1c.16.54-.27.76-.02,1.29-1,1.71-1.73,3.48-2.4,5.12-.42.78-.63,1.58-.73,2.19,0,.12.02.19,0,.29-.02.02,0,.14.01.27l.04.36c.05.49.08.98.08,1.48-.34.51-.32.54-.09,1.03-.07-.01-.09-.04-.14,0,.33-.02.08.35.4.36.04.74.21,1.39.32,2.14-.05-.11-.32-.14-.28,0l.23.12-.09.04c.06.09.24.17.33.06.53,1.84.13,3.78.45,5.61-.08.46.13,1.06.26,1.53-.25,1.47-.42,2.78.07,4.17,0,0-.86-.07-1.14-.64Z"/>
      <path class="cls-2" d="M46.02,48.89c.17,0,.3-.13.47.06-.15-.03-.34,0-.47-.06Z"/>
      <path class="cls-2" d="M48.69,44.95s.08-.05.11-.06c0,.06.13.13.04.16,0-.06-.08-.06-.14-.1Z"/>
      <path class="cls-2" d="M48.99,43.8c.14.03.21.3.21.45l-.21-.45Z"/>
      <path class="cls-2" d="M49.66,42.74c.13-.09.19-.06.18.07-.08,0-.11-.04-.18-.07Z"/>
      <path class="cls-2" d="M49.33,42.64c0-.09.09-.13.18-.17-.12,0,.07.22-.18.17Z"/>
      <path class="cls-2" d="M49.8,40.19c-.01-.06-.14-.18.02-.25-.11.07.2.28-.02.25Z"/>
      <path class="cls-2" d="M49.51,39.05s.03-.06-.01-.09c.06-.07.17-.01.19.04l-.18.05Z"/>
      <polygon class="cls-2" points="38.48 20.99 38.58 20.84 38.56 21.09 38.48 20.99"/>
      <path class="cls-2" d="M32.68,29.02c.02.15-.16,0-.19,0,.04-.1.13.13.19,0Z"/>
      <polygon class="cls-2" points="31.03 33.42 31.04 33.38 31.3 33.52 31.03 33.42"/>
    </g>
  </g>
  <g>
    <ellipse class="cls-1" cx="60.92" cy="44.83" rx="15.03" ry="14.02"/>
    <g>
      <path class="cls-2" d="M76.47,45.05c-.05-.35-.27.18-.1-.23.12.05.2.12.1.23Z"/>
      <path class="cls-2" d="M76.26,43.69c-.4-.52-.54-1.12-.61-1.76-.14-.62-.21-1.3-.68-1.75-.08-.12.4-.12.19-.37-.96-.85-1.47-2.51-2.1-3.9h.14c-.1-.29-.62-.28-.78-.51.06-.06.15,0,.18-.13-.22.11-.44-.3-.65-.26-.01-.15.12-.27.09-.46l-.3.08c-.78.2-.8-.78-1.52-.87.06-.03.14-.04.14-.11-1.03-.26-2.01-.97-3.08-1.26.08-.07.19-.21.17-.33-.17.24-.5.16-.78.1-.02-.31-.56.09-.82-.17l.05-.05c-.33.21-.3-.29-.6,0l-.09-.26c-.21.37-.3-.29-.55-.14v.08c-.22.05-.28-.17-.47-.15v-.05c-.44,0-.65-.23-.69.08-.11-.27.43-.06.26-.46-1.45.08-2.87-.02-4.28.08-.17-.12-.28-.13-.33-.25-.13.08-.53.13-.63.31.05-.01-.12-.15-.19-.15-.28-.08-.22.37-.52.3.09-.11.11-.22.05-.33-.19.3-.51.34-.77.48.03-.06.09-.11.06-.2-.23.35-.58.06-.79.32l.05-.21c-.49-.07-.01.41-.41.41.07-.08.02-.14,0-.22-.23.45-.82.49-1.09.76,0-.03-.01-.08-.01-.08-.33.2-.75.26-1.06.57-.17,0-.16-.43-.49-.16.19.32-.53.48-.11.72-.33.1-.86.29-.97.53.05-.21-.4-.28-.18-.47l-.31-.06c-.06-.14.22-.09.05-.21-.12.1-.39.47-.53.5-.09.34,0,.85-.3,1.15.06-.24-.36-.23-.29-.37,0,.31,0,.62.01.92-.09.11-.22-.19-.3.03.08.06.06.17.07.27-.07,0-.34.48-.65.27-.15-.05.11-.22-.1-.19-.18.2-.11.28-.27.49l-.04-.03c-.15.1-.2.5.07.48.08-.09-.2-.1,0-.17.09.23-.05.5-.21.7,0-.1-.08-.15-.14-.25,0,.44-.12.79-.22,1.18.14.1-.19-.29-.08-.29-.48.28-.26,1.02-.73,1.21,0-.07.23.08.19.06-.13.2-.35.07-.33.25-.14-.05-.05.19-.08.35.07.12-.09,0-.04-.12.02.26-.09,1.13-.44,1.54.1.02.26.4.22.5l-.21-.1c-.16.06-.08.37-.28.34.2.31.03-.98.14-.6-.21.03.23.55-.05.39-.05.23.12.49-.12.67.05-.05-.28-.25-.29-.06-.01.34.09.12.12.4l.07.18c.22.05-.08.28.19.2-.19.01.03.48-.33.4l-.28-.08c0,.15.29.27.41.39-.03.02-.09.05-.13.04.44.06-.05.34.28.52-.19.29-.04.74-.3.89.15.23.32.42.24.68-.04-.05-.06-.12-.16-.12-.12.17,0,.21.08.35-.07-.03-.21.35-.33.56.17.21.39.09.54.09-.39.28.36.57.06.9-.08-.06-.3-.27-.36-.06-.37.31.43.33.31.71l.33-.18c-.18.21.33.4-.03.49.16.06.03.41.35.25-.04.3.12.6.23.88.14.27.23.53.03.83.09.04.13.25.27.13.11-.21-.21-.1-.11-.2.04.06.14.03.18,0,0,.19.05.32-.29.32-.02.46.72.05.85.52-.14.06-.16.12-.07.23l.35.08c.12.29-.18.34-.38.49.13.12.26.28.45.23l-.12.35c.08-.26.21.02.3.04l-.1-.02c-.06.09.11.21.2.26.1-.12.03-.31,0-.43.14,0,.2.12.37.12-.21.13.03.33.11.44.07.15.28-.03.31.01-.09.09.16.19-.05.23-.07-.01,0-.17-.14-.16,0,.14-.17.28.1.32.2.03.32-.36.41-.04-.1-.01-.18.05-.28.06l.11.29.16-.15c-.01.07-.04.06-.05.1.22-.1.35.25.58.09.12.07.12.3.21.41h-.03c.04.2.27.28.46.25l-.04.03c.05.08.25.17.42.13.08.26-.43.72-.06.64.2.13.53-.13.53-.3.25.38.85.28,1,.77.09-.05.09-.12.22-.1.48.39,1.24.29,1.51.9-.2.03-.09.2-.13.32.21-.14.1.25.27-.05.06-.19.1-.28-.03-.41.38.01.88.19,1.02.43-.07-.12.02-.16.11-.19-.12.31.13.42.36.35l.08-.18.08.23c.09-.04.18-.38.33-.15,0,.08-.01.15.01.22.24-.11.57-.3.76-.11l.14.31c.1-.02.29-.16.13-.27.35.22.6.28.69.54.73-.55,1.64-.52,2.4-.54v.15c.2.13.08-.26.22-.17-.06.14.18.3.03.47.31.15.36-.28.54-.37,0-.2-.14.14-.13-.1.02-.07.42.09.42-.2.09.1.06.32.04.45l.16-.16c.28.3-.42.67-.14,1.06l.17-.07c.21.28-.42.41.04.45.18-.17.27-.61.09-.71.38-.13.07-.71.47-.74.14.15-.31.09-.2.31.24.21.36-.2.54-.16-.21-.06-.11-.39,0-.47.23.09-.07.3.22.26.01-.18.24-.36-.01-.42,0-.39.31.03.39-.29.16.24-.13.67.22.72-.11-.23.29-.44.02-.76.13.03.21.22.17.4.22.09.26-.59.48-.12l-.03-.27c.08.06.17.1.31.2.15-.05.35-.5.48-.12.03-.06.36-.19.13-.39-.26-.07-.15.3-.41-.02.26.24.27-.16.35-.3l.08.13c.04-.09.21-.13.19-.3-.02.1.05.19.12.2l-.03-.24c.22-.23.24.34.48.16l-.13.26c.03-.06.22.1.32-.03-.03-.22-.08-.49-.11-.66.1-.16.18.18.21-.1l-.06.33c0,.08.29.24.49.12.09-.14.13-.51-.12-.5.09-.06.3-.02.3.16.18-.19-.14-.18-.02-.4.15.09.5.11.75.18v.44s.13-.09.13-.09c-.01.36.21.12.27.44.12-.02.17-.19.22-.32-.53-.22-.08-.75-.42-1.05.26-.34.88.73.79-.11-.13-.04-.18-.44-.3-.17.23-.13-.15-.46.2-.51-.06.29.48.18.39.6-.08-.13-.21.03-.23.1.19.06.26.36.47.18.1-.14.28-.3.1-.45-.17-.19-.18.19-.26-.08.19-.28.49-.03.29-.45-.13.16-.35,0-.46-.13l.11-.23.08.15c.35-.17-.13-.3.15-.52l.35.11c.14.26-.46.29-.09.58.18-.16.07-.39.31-.46,0,.06-.05.12-.05.19.07-.05.58.31.56-.19.02-.22-.09-.15-.21-.27.23-.31.14-.53.28-.73.23.25.3-.32.4.11-.24-.03-.55.42-.42.74.4.17-.26.18-.02.52.23-.22.52.05.75.19.08-.06.06-.19.06-.27-.16-.19-.23-.09-.43-.26.28-.24.39-.6.33-.9.17-.02.34.16.27.28.23-.37.49-.75.78-1.05-.48,0,.17-.43-.21-.45-.2.13-.53.13-.62-.06.09-.09.15.1.25.1-.1-.25.45-.04.23-.35-.09.38.38.31.61.53,0-.33.19.13.33-.13-.02-.35.02-.72.1-1.03.45-.23.38-.93.51-1.25.22-.12.51.11.63-.07.06-.24-.41.06-.16-.24l.06.05c-.05-.12.41-.58-.06-.8l.34.2c.05-.06-.02-.14-.04-.2.12.03.25-.02.3.1.33-.16.07-.48.09-.72l-.25.11c-.11-.44.16-.68.14-1.08l.22.04-.12-.25c.21.08.36-.13.19-.28.16.22.35.45.49.69-.16.16-.23-.23-.47-.14-.2.07-.21.45,0,.54.05-.14,0-.16-.06-.28.31,0,.27.21.45.35,0-.08.11-.18.02-.21.12.17.12.33.09.59-.09-.19-.2.06-.28-.02.26.07.32.34.17.63-.37.15.04.63-.15.98-.22-.23-.38-.47-.43-.71-.19.18-.06.25-.25.42.16.16.45.33.48.67l-.2-.05c0,.29.28.39.1.71-.29.54-.59,1.09-.83,1.49l-.19-.08c.28.45-.28.82-.31,1.21-.46.4-.6,1.17-1.06,1.19-.53.9-1.09,1.67-1.99,2.31l-.05-.34c0,.29-.2-.05-.32.1.31.04,0,.41,0,.63-.54.09-.89.66-1.15,1.07l-.12-.16c-.19.54-.81.53-1.32.72-.09-.05-.27-.18-.4-.1-.13.42-.28.46-.6.83-.29.13-.82.21-1.16.19-1,.83-2.3.78-3.51,1.2l-.11-.22c-.58.28-1.28.35-1.94.32-.66-.06-1.29-.1-1.83-.07l.15-.39c-.3-.17-.74,0-.71.3-.31-.16-.86.07-.99-.32-.31-.15-.44.09-.73.07-.63-.29-.86-.38-1.49-.5l.14.08c.1-.06.16-.22.02-.3-.26.03-.78-.39-.74.14-.51-.54-1.59-.43-1.98-1.12-.02.14-.17.08-.28.13-.55-.28-.91-.88-1.44-.97-.04-.11.26-.1.06-.25-.15-.04-.1.14-.3.09-.95-.41-1.38-1.46-2.02-2.07-1.27-1-2.17-2.46-2.84-3.85l.1-.03c-.59-.31-.1-1.26-.79-1.44.03-.14-.11-.46.1-.43-.35-.33-.1-1.16-.51-1.67,0,.06.02.08.08.14.13-.63-.3-1.1-.13-1.75.05.06.08.17.18.18.17-.25-.44-.54.02-.7-.01-.14-.24-.09-.22,0,.09-1.36-.05-2.83.18-4.28.55-.92.78.15.66-.72.1-.04-.16-.1-.06-.08-.05-.35.66-.28.49-.56-.3-.02-.1-.19-.26-.26.41-.51.66-.52.69-1.04l.12.1c-.12-.69.36-1.18.22-1.84.8-1.41,1.8-2.65,2.94-3.76,1.12-1.12,2.44-2.03,3.87-2.74,2.87-1.26,5.99-1.98,9.14-1.48.7.47.73.49,1.56.43-.04.06-.1.07-.05.13.1-.33.56.06.7-.21,1.13.31,2.18.54,3.3,1.01-.19-.05-.38.16-.16.23l.3-.1v.1c.16.02.38-.06.28-.22,1.46.49,2.74,1.41,3.82,2.47,1.11,1.04,1.98,2.27,2.88,3.45.14.34.37.69.62,1.05.23.37.47.75.68,1.08.59,2.28.67,4.26,1,6.5,0,0-.86-.3-1.1-1.14Z"/>
      <path class="cls-2" d="M76.48,45.47c-.17.07-.27.3-.48.1.16-.01.33-.13.48-.1Z"/>
      <path class="cls-2" d="M73.22,50.85s-.09.04-.13.04c.02-.07-.07-.2.03-.2-.02.07.05.1.1.16Z"/>
      <path class="cls-2" d="M72.34,52.02c-.09-.1-.03-.43.06-.59-.02.19-.02.4-.06.59Z"/>
      <path class="cls-2" d="M71.03,52.67c-.17,0-.2-.07-.09-.18.07.04.06.11.09.18Z"/>
      <path class="cls-2" d="M71.21,52.96c-.08.08-.18.06-.27.04.09.08.12-.24.27-.04Z"/>
      <path class="cls-2" d="M68.77,54.51s-.1.23-.24.14c.12.05.17-.34.24-.14Z"/>
      <path class="cls-2" d="M67.76,55.4s-.07,0-.09.06c-.1-.02-.08-.15-.03-.2l.12.14Z"/>
      <polygon class="cls-2" points="47.41 47.94 47.52 48.07 47.38 48.08 47.41 47.94"/>
      <path class="cls-2" d="M49.44,37.5c.02-.17.17,0,.21,0-.07.11-.11-.15-.21,0Z"/>
      <polygon class="cls-2" points="53.61 33 53.57 33.03 53.44 32.75 53.61 33"/>
    </g>
  </g>
  <g>
    <path class="cls-1" d="M64.27,29.33c-.53-.05-6.04-1.34-12.08,1.61l5.77,1.07-1.07,5.9,7.51-2.95,6.71,6.17-.54-5.64,6.44,2.01s-4.29-7.38-12.75-8.18Z"/>
    <g>
      <path class="cls-2" d="M64.02,29.84c.31-.02-.12-.28.21-.08-.05.11-.13.19-.21.08Z"/>
      <path class="cls-2" d="M65.05,29.82c.46-.33.94-.25,1.39-.08.47.15.91.34,1.41.27.11,0-.16.39.09.37,1.03-.3,2.19.68,2.83,1.59l-.11.07c.12.18.53-.02.68.14-.04.07-.12.06-.14.17.17-.17.38.12.55.02.02.12-.1.27-.07.41l.25-.15c.64-.3.63.52,1.18.56-.06.03-.12.04-.13.11.82.18,1.47.87,2.14,1.4-.09.04-.24.14-.29.24.23-.16.47-.03.66.11-.15.27.45.12.51.43l-.06.02c.36-.04.05.34.43.24l-.1.24c.38-.18,0,.35.27.36l.07-.05c.17.07.05.25.19.33l-.03.04c.28.22.2.5.46.32-.15.24-.28-.21-.49.15.12.1.24.21.34.32l.14.15-.24-.02c-.95-.09-1.85-.42-2.75-.7-.08-.16-.14-.22-.13-.34-.12.03-.41-.07-.54.06.04,0-.02-.18-.08-.21-.18-.18-.25.29-.42.09.08-.07.11-.16.09-.29-.19.2-.4.09-.58.12.02-.05.06-.07.03-.19-.15.25-.43-.2-.56-.05v-.2c-.46-.38.09.44-.24.19.03-.05-.04-.15-.07-.24-.05.34-.48.09-.6.17-.01-.03-.07-.1-.07-.1-.06,0-.13-.03-.2-.05.01.18,0,.36.14.68-.08.02-.5-.53-.4-.14.41.35.21.64.65.82-.05.14-.16.43-.01.63-.16-.17-.46-.06-.52-.29-.07.02-.15.05-.22.09-.16-.09.03-.17-.16-.19.03.15.22.56.16.65.26.3.7.45.77.75-.16-.14-.4.13-.47.03l.75.4c.03.11-.29.05-.18.2.1-.02.16.05.25.09-.04.05.14.45-.22.54-.14.06-.09-.17-.21-.04.02.2.15.2.17.41h-.05c-.04.15.19.39.38.23,0-.1-.22.06-.12-.09.2.07.29.27.32.46l.33,2.08-1.67-1.41-.04-.03s.06,0,.09-.03l1.2-.6c-.05-.01-.12-.01-.18-.02l.04.04.53.44-1.5.04c-.37,0-.63-.12-.93-.23-.12.12.3-.15.27-.06-.13-.45-.83-.3-.84-.78.06.01-.15.2-.12.16-.13-.15.05-.32-.1-.34.09-.12-.15-.07-.27-.12-.12.03.02-.08.12-.01-.22-.03-.9-.34-1.05-.78-.06.08-.43.09-.49.02l.18-.14c.03-.16-.25-.2-.13-.35-.34.07.73.35.39.33.08-.19-.53.01-.27-.18-.15-.12-.46-.06-.44-.34.01.06.33-.13.2-.22-.23-.15-.13.03-.34-.06l-.16-.02c-.16.16-.16-.19-.25.07.1-.16-.37-.18-.1-.44l.22-.19c-.1-.06-.35.1-.5.13,0-.03.02-.09.06-.12-.31.31-.18-.22-.52-.06-.08-.28-.45-.43-.35-.71-.23-.03-.47-.03-.56-.24.06,0,.11.03.19-.03,0-.19-.12-.13-.25-.15.06-.04.07-.29.06-.51-.16.03-.24.28-.32.41.08-.23-.02-.22-.09-.19-.08.03-.14.09-.13-.18.03-.05.17-.13.13-.32.01-.17-.02-.23-.05-.22-.11.11-.22.5-.32.38l.02.38c-.06-.22-.15.29-.18-.1-.02.15-.18-.06-.09.29-.08-.05-.09-.07-.22-.03-.12.04-.24.1-.36.15-.23.1-.47.14-.71-.1-.04.08-.21.08-.11.24.17.14.09-.19.18-.08-.05.03-.03.13-.01.17-.16-.02-.27,0-.26-.33-.37-.09-.08.68-.5.7-.04-.14-.09-.18-.19-.12l-.11.32c-.26.04-.26-.26-.36-.49-.12.1-.25.13-.29.35-.11-.07-.21-.14-.31-.22.21.16-.1.2-.17.3l.07-.09c-.05-.09-.23.05-.33.12.04.15.26.13.4.13-.07.15-.23.18-.35.37.02-.27-.33-.06-.48-.03-.17,0-.21.32-.27.33,0-.14-.29.09-.12-.16.06-.07.12.09.23-.08-.11-.06-.06-.32-.31-.04-.2.21-.05.54-.37.5.11-.11.15-.23.24-.36l-.27-.03-.09.27c-.02-.05.01-.09,0-.11-.18.32-.51.28-.72.64-.19.1-.27-.06-.41-.03l.04-.04c-.1-.1-.4.11-.69.39l.05-.07c-.09.02-.37.16-.63.41-.11-.14.78-1.21.22-.69-.23.1-.88.78-.94.96-.08,0-.18.03-.31.08.05-.38-.05-.66.35-1.36-.1.03-.18.15-.21.05.13-.45.12-.8.17-1.19.05-.39.15-.82.45-1.24.06.17.24-.1.39-.17-.19-.07.26-.29-.1-.2-.22.1-.33.12-.46.39-.03-.43.11-1.22.35-1.49-.12.14-.17.04-.21-.07.32.01.43-.31.37-.58l-.19-.07c.08-.05.15-.1.23-.12-.05-.06-.4-.09-.2-.12.08,0,.15,0,.21,0-.15-.09-.42-.09-.24-.17.1-.04.21-.08.31-.13-.03-.03-.2,0-.3.07.2-.16.24-.26.53-.46-.11.02-.22.04-.33.06-.52.21-.58.2-.69.15l.07-.14c0-.14-.13.24-.12.14.07-.13.06-.3.17-.45-.03-.08-.09-.03-.14.05l-.07.13s-.08.07-.12.08c-.06.18.15-.1.07.14-.04.06-.31-.21-.4.07-.04-.12.05-.33.1-.43l-.17.11c-.12-.37.52-.52.41-.97l-.14.02c-.07-.32.42-.27.1-.44-.17.11-.38.5-.27.66-.32.02-.27.66-.6.57-.06-.19.27,0,.25-.24-.11-.26-.34.07-.46-.04.13.14-.05.4-.16.43-.14-.17.16-.25-.07-.32-.07.16-.31.24-.14.39-.16.36-.23-.15-.41.12-.03-.28.36-.56.12-.74,0,.26-.39.28-.32.69-.09-.09-.06-.29.04-.44-.12-.18-.44.4-.4-.12l-.1.25c-.03-.09-.08-.17-.13-.32-.13-.03-.48.27-.4-.12-.05.03-.34-.04-.28.25.15.2.25-.16.28.23-.07-.32-.27-.01-.4.07v-.15s-.08.02-.13.03l-5.1.96,4.62-4.47s.08-.09.06-.18c-.01.1.06.18.13.2l-.03-.24c.21-.22.24.34.46.17l-.11.25c.03-.05.2.11.29-.01-.04-.22-.06-.49-.08-.66.11-.15.16.19.22-.07l-.08.32c0,.08.27.27.45.18.09-.12.17-.48-.07-.51.1-.04.28.03.26.2.19-.15-.11-.2.03-.4.13.1.45.2.67.34l-.07.41.13-.05c-.07.33.16.17.17.49.1.01.17-.12.23-.23-.42-.36.07-.73-.14-1.12.34-.23.56.95.73.18-.1-.09-.01-.47-.21-.27.24-.02.03-.47.36-.38-.15.24.34.37.12.71-.02-.15-.19-.06-.22,0,.14.13.11.43.34.36.13-.08.32-.15.23-.36-.07-.24-.21.09-.19-.18.26-.17.41.2.42-.26-.17.08-.29-.16-.33-.33l.19-.16v.17c.38.03.03-.32.38-.36l.23.29c-.01.3-.52,0-.35.43.22-.03.24-.28.47-.21-.04.05-.1.08-.13.13.08,0,.29.57.52.16.13-.17,0-.17-.02-.34.34-.12.41-.31.63-.38.01.34.4-.04.21.35-.15-.18-.65-.06-.71.28.21.37-.28,0-.27.41.27-.05.34.35.43.59.08,0,.13-.12.16-.16-.02-.25-.11-.22-.17-.47.31,0,.58-.18.71-.44.12.11.13.35,0,.39.35-.12.74-.14,1.09-.11-.27-.38.38-.13.19-.44-.2-.07-.39-.34-.3-.53.12.02.01.17.07.25.13-.23.27.33.39-.03-.33.16-.02.49-.06.81.22-.2,0,.22.24.2.22-.2.5-.35.77-.43.34.28.84-.01,1.15-.02.15.16.04.51.21.58.19,0-.13-.39.15-.21l-.03.07c.09-.08.51.26.63-.24l-.11.38c.05.04.11-.05.15-.08,0,.12.05.24-.04.32.16.28.37-.02.56-.01l-.1-.23c.35-.15.55.1.87.06l-.04.22.2-.11c-.07.21.08.37.2.2l-.55.47c-.12-.15.18-.25.12-.47-.05-.2-.35-.17-.42.03.11.04.12-.01.21-.08,0,.31-.17.28-.27.48.06,0,.13.1.15,0-.13.14-.24.15-.43.14.14-.11-.05-.2,0-.28-.04.27-.22.34-.44.25-.14-.33-.44.18-.7.08.12-.27.26-.49.44-.59-.16-.15-.19,0-.36-.15-.09.2-.16.51-.38.63v-.2c-.21.1-.21.4-.46.35-.43-.1-.87-.08-1.2-.08l-.03-.2c-.15.45-.59.21-.82.43-.44-.14-.86.3-1.12,0-.7.28-1.27.57-2.01.71l.04-.32c-.07.25-.13-.14-.25-.06.21.18-.09.35-.12.55-.39-.13-.72.27-.91.56l-.08-.19c-.14.45-.58.28-.95.38-.07-.06-.22-.2-.31-.14-.03.22-.07.32-.14.42l-.26-1.88c.09-.03.19-.06.33-.12.22.04.57.19.77.36.93-.29,1.7.15,2.67.05l.05.25c.54-.1,1.16-.03,1.74.07.56.12,1.12.23,1.64.34-.06.34-.1.65-.08.91l-.43.11c-.2.39-.02.72.3.55-.2.4.03.96-.36,1.22-.07.19-.05.31,0,.43.05.1.09.29.11.32-.18.1-.16.2-.1.29l.03-.04c-.09.01-.28.06-.31.11.11.02-.16.29.39-.03-.17.13-.12.19-.08.21.04.03.07.04-.18.34.17-.18.19-.18.3-.29,0,.03-.09.17-.15.28,0,.05.04.04.19-.14-.05.09-.27.35-.24.35.08-.09.18-.26.28-.38.18-.2.16-.13.18-.04.02.09.09.18.18.11.08-.1.14-.17.2-.22l.04-.03s.02-.02.1-.05l.38-.16c.51-.21,1.03-.39,1.51-.6l.02.1c.1-.24.32-.22.53-.23.06,0,.09,0,.16-.02.08-.02.15-.05.22-.08.14-.07.25-.18.34-.36.16.04.54-.16.45.07.27-.28.71-.31,1.12-.42.2.22.4.4.64.45-.04-.05-.08-.06-.15-.06.22.35.46.54.71.75.25.2.57.46.61.63-.06,0-.14-.03-.22.03,0,.25.57-.04.32.37.07.06.21-.13.16-.16.57.77,1.51,1.23,2.31,1.82.33.68-.51.61.14.73-.03.1.15-.11.09-.03.25.05-.11.61.17.53.15-.25.18-.05.3-.18.19.43.08.68.47.75l-.12.09c.58-.05.77.43,1.35.3.26.22.53.43.78.64l-2.92,1.45c-.08-.45-.15-.9-.23-1.35l-.12-.67-.06-.33-.09-.63c-.23-1.7-.47-3.5-.66-5.31l-.03-.46c1.94.64,3.79,1.19,5.7,1.77l.94.29.72.24c.48.17.96.36,1.43.57.23.34.33.47.53.51l-1.92,2.4s-.13-.12-.27-.22c.07-.02.09,0,.13-.06-.29.16-.22-.27-.5-.12-.35-.61-.85-1.06-1.34-1.6.11.06.35-.08.23-.16l-.25.04.05-.08c-.1-.04-.29,0-.3.14-1.42-1.13-2.45-2.73-4.09-3.53-.3-.34-.93-.44-1.36-.58-1.08-.89-2.31-1.55-3.76-1.41,0,0,.26-.82.92-.92Z"/>
      <path class="cls-2" d="M63.71,29.82c-.03-.17-.19-.29-.01-.48,0,.16.06.34.01.48Z"/>
      <path class="cls-2" d="M58.96,27.97s-.08-.06-.1-.09c.06-.02.11-.16.16-.08-.06.02-.05.09-.07.17Z"/>
      <path class="cls-2" d="M57.67,28.01c0-.15.26-.3.42-.34l-.42.34Z"/>
      <path class="cls-2" d="M56.36,27.63c-.13-.1-.12-.17.03-.2.03.07-.01.12-.03.2Z"/>
      <path class="cls-2" d="M56.34,27.97c-.1.02-.17-.05-.23-.12.03.12.22-.13.23.12Z"/>
      <path class="cls-2" d="M53.64,28.28c-.06.03-.15.2-.26.07.1.08.24-.29.26-.07Z"/>
      <path class="cls-2" d="M52.55,28.93s-.07-.01-.09.05c-.09-.03-.06-.16-.01-.2l.1.15Z"/>
      <polygon class="cls-2" points="64.08 36.27 64.02 36.37 64.04 36.21 64.08 36.27"/>
      <path class="cls-2" d="M70.25,41.83c.15.02-.03.16-.03.19-.09-.06.15-.1.03-.19Z"/>
      <polygon class="cls-2" points="71.06 36.76 71.07 36.79 70.74 36.49 71.06 36.76"/>
    </g>
  </g>
  <g>
    <path class="cls-2" d="M64.3,30.62c.06.05.25.07.1.05-.11-.04-.19-.07-.1-.05Z"/>
    <path class="cls-2" d="M68.05,25.82c.32.7-.15.09.04.54.01.03-.22-.35-.19-.26.26.54-.03.29-.37-.01l-.06-.1c-.07-.06.15.27.1.24-.05-.06-.06-.09-.13-.18.14.19.04.11.14.26-.06-.07-.18-.22-.24-.3l.15.22c.36.53-.09,0,.08.3-.04-.05-.06-.09-.1-.14.19.35.08.33.12.49-.06-.07-.17-.2-.24-.29.18.22.21.29.23.34-.2-.21.15.22.03.12l-.04-.05c.19.24-.13-.12.1.17l-.16-.16c.27.31-.16-.14-.03.02l.06.06c.06.08-.08-.07-.05,0l-.03-.03c.05.1-.11-.06.1.17-.18-.18-.06-.1-.32-.37.16.31.04.31-.01.39-.1-.08-.13-.11-.22-.19.04.05.02.07.13.19,0,0-.12-.11-.14-.12-.1-.07.24.26.12.17-.06-.06-.13-.14-.22-.22.17.18.13.17.17.24-.04-.04-.06-.06-.13-.13.19.21-.07-.01.05.12l-.13-.13c-.18-.13.28.27.16.2-.04-.04-.09-.09-.15-.14.23.25.12.2.19.29-.02-.02-.06-.05-.06-.05.01.05-.08,0,0,.11-.07-.05-.33-.3-.3-.24.28.25.08.13.41.4-.06-.02-.19-.09-.1,0-.1-.1-.35-.29-.36-.32l-.18-.13c-.11-.1.05.02-.1-.1,0,.02.1.14.05.1.16.16.48.45.49.5-.1-.1-.32-.26-.36-.3l.52.49s-.23-.19-.16-.11c.07.07.12.11.18.16-.03-.02.05.09-.24-.14-.11-.09-.05-.06-.16-.13,0,.02.09.09.08.11l-.04-.03s.1.12.27.24c.01,0-.17-.14-.08-.08.16.14.19.19.19.21-.05-.04-.12-.1-.2-.17.21.2.27.27.35.36.14.11-.24-.2-.17-.15-.21-.12.23.26-.06.06-.02-.02.2.15.16.12-.03,0-.23-.16-.16-.09-.12-.09.03.04.06.07.08.07-.06-.04-.07-.06.09.09.24.27.05.16.08.06.28.23.26.23l-.18-.14c-.11-.08,0,.03-.16-.08.21.18-.16-.19,0-.04-.16-.11.28.24.03.05,0,.02.2.18.02.06.03.02-.25-.2-.24-.18.02.04.08.07.14.13l.07.06c.18.13-.04,0,.17.14-.15-.1.07.09-.23-.13l-.23-.17s.24.19.34.27c-.02-.02-.07-.05-.11-.07.36.26-.04,0,.23.2-.14-.07-.04.03-.27-.12.1.09.23.19.14.15-.03-.03-.04-.04-.12-.09-.11-.07-.02,0,.04.05-.05-.04-.23-.13-.36-.21.1.09.3.22.42.3-.37-.23.21.19-.13-.02-.05-.04-.17-.14-.27-.19-.37-.23.26.2.07.1l.31.2c-.19-.12.16.14-.15-.06.11.08-.11-.04.18.15-.27-.13.11.17-.44-.16.05.04-.01.01.14.11.17.1-.11-.09,0-.02,0,0,.09.06.13.09-.07-.03-.1-.04-.34-.21-.2-.1.5.34.36.29-.12-.08-.17-.11-.16-.09l.21.15c-.06-.01-.29-.17-.5-.3.03.03.01.04.17.14l-.27-.15c.2.11.12.09.17.12l-.05-.04c-.09-.05-.04,0-.02.01.13.08.19.1.23.12.09.07.07.05.17.13-.21-.13-.16-.08-.18-.08-.05-.02.18.12.17.12-.11-.07-.03,0-.17-.1-.03-.02.11.06.02,0-.08-.04-.27-.16-.14-.06.1.07.41.25.27.18-.05-.03-.13-.09-.21-.13l-.12-.05.19.11s-.07-.04-.09-.05c.2.12.05.06.27.2.02.02-.14-.06-.17-.07h-.02c-.12-.07-.05-.01.07.07l-.04-.02s0,.03.11.1c-.15-.07-.73-.42-.5-.26,0,.02.34.22.47.29-.14-.05.16.15-.16,0,.08.05.13.07.17.11-.1,0,.19.2-.2.01-.08-.05-.19-.11-.31-.17.17.1-.19-.09.11.08.18.1.26.14.34.17.08.07.07.1-.1.02.09.04.14.07.19.11-.28-.15-.33-.16-.24-.1l.17.09-.18-.09c.05.03.36.2.19.12-.07-.03-.14-.07-.19-.09.13.09.37.23.21.16l-.26-.12s.17.11.25.14c-.16-.06-.19-.05-.41-.16.52.32.51.38.45.4l-.13-.07c-.13-.05.23.12.13.08-.12-.07-.28-.13-.42-.21-.15-.05.22.13.27.17.17.09-.11-.06.11.05.06.03-.15-.04.11.09-.1-.05-.29-.15-.4-.2l.12.07c-.31-.14-.53-.3-.91-.47l.04.03c-.28-.12-.29-.18-.4-.2.12.07.5.27.62.32.06.06.62.31.59.33-.16-.07-.03-.04-.25-.14-.22-.09.11.08.03.05.1.04.36.17.41.2-.13-.05-.24-.13-.28-.12.15.08.26.14.37.18.34.17-.1-.03.16.11-.24-.11-.55-.28-.68-.32.23.11.31.17.66.33-.07-.03-.25-.11-.4-.18-.15-.06.41.23-.05.01l.24.12c-.08-.03-.14-.06-.27-.11,0,0,.31.18-.05.01.04.02.01.03.26.14.16.06-.18-.1.17.05-.28-.12.03.03.12.08l-.14-.06c.05.03.02.03.17.1-.08-.04-.17-.08-.21-.09l.21.1c.1.07-.38-.17-.32-.12l-.16-.09s-.17-.07-.11-.03c.19.09.42.2.57.28.08.05-.22-.1-.03,0l-.23-.12c-.06-.03-.33-.14-.33-.12.06.04.34.18.45.21,0,0-.12-.04-.26-.11.06.04.21.09.33.16-.13-.05-.32-.12-.52-.19l-.32-.16h0c-.26-.12-.2-.07-.48-.2-.05-.01.04.04.11.08.45.18.6.29,1,.46.1.07-.99-.42-.37-.11.11.04.41.19.3.12-.05,0,.4.19.23.13-.16-.09-.42-.16-.65-.29.13.06.11.03.07.01-.16-.06-.41-.18-.41-.16.03.03.04.04.25.13.23.1-.02-.03.21.08.07.05-.28-.09.13.09-.03-.03.21.07.37.14l.09.05-.15-.07c-.12-.03.28.13.23.13l-.31-.12c-.26-.12.13.02-.3-.16-.02,0,.19.1.08.07-.03-.02-.05-.03-.08-.05-.02,0-.59-.24-.26-.07.13.07.15.07.31.13.04.04.2.12.22.14-.31-.13-.04.01-.36-.14.19.07.18.03-.11-.1-.37-.15.06,0-.31-.16-.02.02-.38-.14-.62-.24-.02,0,.08.05.12.07.23.09.22.09.46.18-.07,0,.05.07.26.17-.11-.04-.34-.13-.36-.15.06.05.02.07-.06.06.38.13.08.06.39.17.09.02.36.12.52.19-.03,0-.16-.07-.24-.09.2.09-.33-.11-.02.02-.11-.07-.45-.18-.74-.3.16.08-.21-.08-.21-.07.15.08.27.15.33.2-.29-.08-.03.06-.03.08-.15-.05-.48-.18-.54-.19,0,.02.36.12.2.09l-.07-.03c.07.03-.24-.04.23.14l-.36-.14s.05.03.08.04c-.12-.04-.23-.08-.3-.11-.25-.08.03.04.03.06l.22.07c.16.09-.06.03,0,.08l-.21-.07.12.06c-.2-.07-.34-.11-.17-.04l-.5-.22c.13.03.25.1.46.17.18.06.13.02-.07-.06-.03,0,.02.02.09.05-.29-.1-.28-.11-.47-.19.01,0-.08-.02.01.02-.14-.06-.16-.08-.16-.1.11.05.18.06.26.09-.26-.09-.33-.14-.25-.13.3.09-.18-.11-.09-.1.25.11.46.19.56.25.14.03,0-.02.13.02-.19-.08-.48-.19-.59-.26l.19.07c-.09-.05-.37-.16-.31-.16.11,0,.12-.04.16-.06l.19.07c-.4-.18-.13-.11-.3-.2.2.04-.15-.15.18-.04-.12-.12-.23-.24-.14-.28l.27.13c-.19-.1.16.06.12.03-.22-.08-.27-.14-.44-.22.22.06.01-.08-.17-.19l.19.08c-.34-.18-.02-.08.06-.08.08.03.25.1.24.09-.29-.15-.26-.15-.44-.27,0-.02.1-.02.22.02-.38-.27-.08-.22-.29-.42l.22.1c-.42-.3.04-.18-.16-.37l.36.19c.12.04-.07-.09-.33-.22.12.04-.15-.14.15,0,.08.02-.15-.11-.19-.16.16.03.13,0,.09-.07h-.03c.08.04.23.13.26.13-.09-.07.12,0-.31-.22.27.1-.15-.21.2-.06-.12-.06-.13-.08-.21-.13.02-.04.27.06.09-.08.06.03.19.12.21.11-.04-.03-.15-.09-.21-.14-.18-.18.29.01.26-.07-.17-.23,0-.26.03-.37l.08.05c-.29-.23.37.14-.09-.19.08.04.05,0,.21.11-.2-.17.25.07,0-.15,0,0,0,.01.04.04.2.09-.02-.11.16-.03.03.03.05.05.13.11.16.09-.32-.27.07,0,0-.01-.19-.14-.18-.13.2.03.02-.22-.01-.37.27.11.64.47.39.21.08.05-.14-.11-.06-.05-.09-.1.44.29.25.13-.23-.17-.12-.1-.26-.21.18.08.39.23.23.07l.12.09c-.32-.29-.11-.19-.48-.52.07-.23,0-.58.12-.79.23-.1.22-.43.59-.41.32.25.31.24.24.08.04.05.05.06.09.1-.22-.24.01-.05-.2-.29.11-.01.11-.14.17-.2.01.04.18.24.18.22l-.12-.17.06.07s-.12-.18-.2-.25c.01-.38.61,0,.74-.2.12.08.12-.06.13-.15.4.27.69.5.69.14,0,0,.39.75.44.95Z"/>
    <path class="cls-2" d="M64.28,30.58c.16.05.25.06.45.14-.15-.05-.31-.1-.45-.14Z"/>
    <path class="cls-2" d="M66,30.8s.06.02.09.03c0,0,.14.06.06.04-.01,0-.08-.04-.15-.06Z"/>
    <path class="cls-2" d="M66.12,30.75c.14.06.23.12.25.14l-.25-.14Z"/>
    <path class="cls-2" d="M66.71,30.9c.12.04.18.07.17.08-.07-.03-.11-.05-.17-.08Z"/>
    <path class="cls-2" d="M66.41,30.76s.08.02.16.05c-.12-.05.07.05-.16-.05Z"/>
    <path class="cls-2" d="M66.87,30.77s-.12-.07.03,0c-.11-.04.16.09-.03,0Z"/>
    <path class="cls-2" d="M66.7,30.6s.03.01,0,0c.06.02.16.07.17.08l-.17-.07Z"/>
    <polygon class="cls-2" points="66.95 28.95 67 28.99 66.88 28.91 66.95 28.95"/>
    <path class="cls-2" d="M67.34,28.38c-.07-.06.11.08.13.09,0,.02-.14-.11-.13-.09Z"/>
    <polygon class="cls-2" points="67.03 27.62 67.03 27.62 66.81 27.43 67.03 27.62"/>
  </g>
  <g>
    <path class="cls-1" d="M55.42,72.27h-15.83c-12.75,0-23.08-10.33-23.08-23.08h0s61.99,0,61.99,0h0c0,12.75-10.33,23.08-23.08,23.08Z"/>
    <g>
      <path class="cls-2" d="M55.06,72.81c.55-.07-.3-.26.36-.11-.07.12-.18.21-.36.11Z"/>
      <path class="cls-2" d="M57.27,72.55c.44-.19.9-.37,1.39-.49.49-.12,1.01-.17,1.52-.26,1.02-.24,2.11-.38,2.93-.99.2-.11.08.41.54.14,1.56-1.2,4.3-2.2,6.39-3.38l-.04.18c.43-.19.58-.86.95-1.13.06.06-.04.18.11.19-.07-.26.56-.66.58-.92.2-.06.32.09.57,0v-.39c0-1,1.28-1.28,1.6-2.33.02.08,0,.19.1.16.17-.39.37-.77.59-1.16.2-.4.41-.82.63-1.22.48-.8.83-1.69,1.16-2.52.06.1.19.23.33.18-.11-.1-.12-.28-.09-.49.02-.22.08-.47.13-.71.35-.1.03-.86.38-1.33l.05.06c-.15-.48.33-.54.07-.97l.29-.19c-.35-.28.36-.53.24-.91h-.09c0-.34.21-.47.18-.77l.05-.02c0-.71.29-1.08-.03-1.11.29-.21.01.69.44.36.02-.59.04-1.18,0-1.77v-.88s0-.44,0-.44v-.22s0-.01,0-.01h0s0-.01,0-.01h0c.1.1-.22-.22.22.22h-.03s-.06,0-.06,0h-.11c-1.19.03-2.38.01-3.56.02-.27-.13-.44-.17-.5-.29-.23.06-.89.06-1.1.22.08,0-.15-.16-.28-.18-.43-.12-.47.35-.94.21.19-.09.25-.19.19-.31-.4.25-.94.21-1.41.29.07-.05.19-.09.17-.19-.52.28-.95-.06-1.4.12l.17-.19c-.73-.22-.22.39-.85.25.15-.06.1-.13.13-.21-.59.34-1.54.23-2.13.34.04-.03.03-.08.03-.08-.64.04-1.31-.06-2.02.08-.26-.08.08-.45-.59-.38.02.37-1.15.15-.75.57-.58-.06-1.5-.2-1.88-.07.26-.14-.28-.45.2-.49l-.36-.22c.05-.15.37.05.26-.14-.24.01-.95.16-1.16.1-.45.23-.86.65-1.58.7.34-.14-.19-.41.04-.47l-1.01.71c-.24.02-.05-.29-.4-.2.02.1-.13.16-.24.24-.09-.04-1,.09-1.11-.27-.11-.14.39-.08.13-.21-.45,0-.46.13-.91.13v-.05c-.3-.05-.87.16-.55.36.2.01-.08-.22.22-.11-.21.21-.72.27-1.17.28.15-.06.13-.16.19-.26-.6.29-1.23.38-1.9.5-.01.17.25-.32.35-.22-.86-.24-1.77.34-2.48-.01.12-.03.06.25.06.2-.41-.02-.39-.27-.66-.18-.03-.15-.34.05-.61.09-.14.11-.07-.07.17-.09-.39.13-1.93.35-2.82.14.02.1-.55.36-.75.35l.08-.23c-.19-.14-.69.02-.72-.18-.44.28,1.68-.24,1.09-.02-.15-.19-.82.36-.7.05-.41,0-.81.27-1.2.05.11.04.33-.32,0-.3-.58.04-.17.11-.64.19l-.3.09c-.02.22-.52-.03-.31.22-.07-.18-.85.11-.79-.26l.08-.29c-.25.02-.41.31-.61.44-.03-.03-.1-.09-.09-.13-.04.44-.6-.04-.9.31-.53-.15-1.35-.01-1.6-.29-.41.13-.78.3-1.24.2.09-.04.22-.05.25-.15-.29-.13-.36-.01-.63.06.06-.07-.58-.26-.91-.42-.4.13-.27.37-.31.52-.37-.44-1.14.28-1.61-.12.14-.06.59-.22.25-.33-.37-.44-.75.32-1.34.11l.15.36c-.27-.23-.88.21-.82-.16-.2.13-.7-.12-.64.24-.98-.3-2.38.18-2.99-.46-.14.06-.49,0-.42.18.23.2.33-.14.41,0-.13.01-.15.11-.17.16-.3-.08-.54-.11-.26-.4-.68-.22-.7.6-1.56.47.04-.15-.03-.2-.28-.18l-.48.25c-.56-.06-.32-.33-.33-.58-.3.04-.66.03-.8.22l-.36-.31c.26.23-.25.15-.39.21l.14-.06c-.06-.1-.4-.04-.57,0,.04.15.39.22.58.26-.15.11-.39.08-.59.21.07-.24-.49-.17-.72-.2-.27-.05-.31.22-.39.21,0-.13-.44-.02-.23-.2.09-.04.21.12.37.01-.18-.09-.16-.32-.53-.15-.28.12.07.48-.46.33.14-.06.17-.16.27-.25l-.5-.13-.02.22c-.07-.06-.02-.08-.05-.11-.15.23-.76.07-.87.34-.25.02-.53-.15-.77-.18l.05-.02c-.29-.13-.68-.04-.93.11v-.05c-.15-.02-.53.02-.73.15-.4-.17-.14-.84-.58-.56-.41,0-.64.41-.48.55-.18-.04-.38-.04-.57-.04l-.29.02h-.02s0,0,0,0h0s0,0,0,0h0c-.28.28,2.43-2.43,1.28-1.28h0s0,.04,0,.04v.07s.03.14.03.14c.05.36.07.72-.09,1.05.09.09.15.03.21.23-.04.52.1,1.04.21,1.54.1.5.14.98,0,1.43-.15-.27-.23.03-.35.06.26.2-.13.34.23.35.19-.07.29-.07.3-.36.26.57.48,1.45.39,1.83.05-.19.14-.08.23.03-.33.05-.21.49.01.78l.2-.02-.11.27c.1.1.43,0,.37.37-.06.04-.13.09-.16.17.26.28.7.62.73,1.02l-.12.4c.1.13.37.3.32.01.12.66.28,1.05.19,1.34.56.33,1.03.84,1.48,1.38.49.51.9,1.1,1.29,1.61l-.14.07c.13.35.32-.03.4.21-.18,0-.05.4-.36.31.22.48.63.31.89.5.17-.1-.26-.11-.04-.23.09,0,.35.61.61.46.01.16-.21.25-.34.29.1.04.22.07.32.11.02.25-.24.21-.52.18-.26-.04-.53-.08-.54.21.08.06.15.13.24.18-.02.42-.79-.32-.35.29.34.12.83,0,.71-.29.54.38.7-.3,1.19.18.03.25-.43-.34-.5-.07.09.39.57.34.73.6-.17-.3.23-.34.41-.24.18.33-.36.08.01.4.17-.08.61.09.37-.23.38-.19.34.39.73.31-.03.31-.78.19-.42.63.09-.26.74.12.74-.37.12.19.03.37-.19.4.15.33.86.04.66.51l.23-.17c.03.12.11.24.17.45.23.14.91.14.7.47.09.02.61.33.54-.03-.24-.33-.47-.05-.46-.48.08.39.47.26.72.25l-.04.15c.14,0,.39.16.54.04-.13.04-.13.15-.05.23l.22-.15c.52.12-.07.42.42.58h-.43c.09,0,.16.27.41.31.17-.15.44-.31.57-.43.3.02.03.27.37.16l-.44.11c-.08.05.1.41.47.54.26.02.72-.14.4-.39.18.06.39.28.19.37.43.08.02-.24.42-.23.1.18.47.56.71.82-.16.08-.33.17-.49.23.08.04.17.05.26.08-.42.19.11.25-.17.49.17.09.42.05.61.02-.39-.6.76-.49.71-.96.71.05.19,1.18,1.08.65-.1-.13.31-.41-.16-.35.43.11.38-.39.86-.13-.41.12.34.51-.26.68.06-.14-.29-.16-.39-.13.15.19-.12.43.35.5.29,0,.68.05.66-.18.02-.25-.43-.04-.21-.26.56,0,.61.39.89-.02-.35-.02-.41-.29-.38-.46l.41-.04-.1.15c.63.22.22-.28.83-.19l.27.35c-.17.28-.9-.17-.84.3.41.04.57-.19.95-.05-.09.04-.21.04-.3.08.14.02.26.65.88.32.31-.12.09-.16.1-.34.65-.01.88-.2,1.34-.23-.09.34.81.03.3.38-.23-.2-1.27-.17-1.49.12.24.42-.53-.08-.69.32.55.04.51.43.59.7.16.03.31-.08.4-.11.07-.24-.14-.25-.14-.5.62.09,1.24-.06,1.59-.29.21.12.15.37-.11.39.76-.07,1.57-.04,2.28.03-.46-.4.8-.09.49-.43-.39-.09-.72-.37-.5-.55.24.03,0,.17.09.26.31-.22.48.35.78,0-.69.13-.13.49-.26.8.5-.18-.02.22.47.22.5-.17,1.11-.31,1.66-.38.69.3,1.76,0,2.38,0,.32.16.1.51.46.57.41,0-.31-.38.3-.22l-.06.07c.18-.08,1.12.24,1.3-.27l-.19.38c.11.03.22-.05.31-.09,0,.12.14.24-.05.32.38.26.79-.04,1.2-.05l-.26-.23c.7-.18,1.17.05,1.85-.03l-.02.22.4-.13c-.1.21.27.35.49.17l-1.05.54c-.29-.13.32-.27.14-.49-.16-.19-.78-.13-.89.08.24.02.25-.02.44-.1.08.31-.29.3-.47.5.13-.01.31.08.33-.02-.25.15-.5.17-.91.18.28-.12-.15-.19-.05-.28-.03.27-.43.36-.94.28-.36-.31-.96.2-1.55.12.24-.28.55-.5.9-.61-.37-.14-.41,0-.78-.13-.18.21-.31.52-.79.64l-.03-.2c-.44.1-.44.4-1,.35-.96-.1-1.94-.1-2.67-.13l-.03-.2c-.41.43-1.35.16-1.9.35-.93-.2-2.02.19-2.5-.16-1.64.13-3.18.22-4.9-.17l.34-.25c-.35.17-.17-.2-.48-.2.3.28-.48.25-.73.35-.7-.44-1.75-.38-2.47-.45l.04-.2c-.78.1-1.5-.45-2.25-.9-.06-.12-.12-.36-.36-.45-.57.08-.79-.03-1.51-.18-.44-.27-1.12-.77-1.49-1.15-.92-.34-1.74-.91-2.52-1.52-.75-.65-1.5-1.31-2.27-1.98l.08-.27c-.88-.53-1.55-1.42-2.16-2.28-.6-.88-1.06-1.8-1.6-2.47l.43-.05c-.12-.52-.61-1.02-.82-.78-.11-.53-.78-1.11-.56-1.56-.12-.53-.4-.55-.61-.96-.25-1.07-.34-1.45-.68-2.43l.04.25c.12.09.29.05.25-.2-.21-.34-.22-1.38-.62-.91.12-1.13-.66-2.51-.28-3.62-.13.1-.17-.17-.26-.28-.01-.24,0-.49,0-.73v-.18s.01-.09.01-.09v-.02s0-.01,0-.01h0s0,0,0,0c.75-.75-1.68,1.68,1.68-1.68h0s0,0,0,0h.04s.33.04.33.04c.44.04.86.05,1.22-.06.14.07-.23.23.14.24.22-.05,0-.17.27-.25,1.46-.25,2.96.26,4.29.19,2.36-.26,4.83-.13,7.09-.17l-.03.1c.76-.37,1.78.38,2.38-.18.18.09.68.04.55.23.6-.26,1.69.25,2.56-.09-.08,0-.13.01-.22.05.88.22,1.66-.08,2.59.12-.09.04-.27.07-.29.17.36.19.85-.41,1.05.06.21,0,.15-.24.02-.22,2.04.18,4.21-.12,6.33-.22,1.52.28.09.79,1.29.44.1.09.07-.18.09-.08.46-.13.72.53,1.04.28-.13-.29.21-.16.22-.34.93.19,1.11.45,1.85.23l-.06.15c.86-.43,1.85-.2,2.58-.7,4.74-.09,9.28-.37,13.9-.42,2.28.05,4.54.02,6.81,0,1.13,0,2.27,0,3.41.01.57.01,1.14.03,1.72.04l.43.02h.22s.11.01.11.01h.03s.01,0,.01,0h0c4.05,4.05,1.12,1.13,2.03,2.03h0s0,.07,0,.07l-.09.94c-.47,1.15-.4,1.23-.46,2.52-.06-.06-.06-.14-.13-.07.31.11-.11.89.18,1.07-.16.91-.45,1.77-.64,2.65-.24.86-.56,1.72-.89,2.62.08-.3-.12-.54-.22-.2.02.14.02.28.04.42l-.11.02c-.06.24-.03.55.18.36-.83,2.3-2.32,4.26-3.92,6.01-1.62,1.76-3.55,3.13-5.46,4.48-.51.23-1.09.58-1.66.95-.6.33-1.21.67-1.74.96-3.48,1.05-6.62,1.36-10.17,1.69,0,0,.47-.87,1.86-1.14Z"/>
      <path class="cls-2" d="M54.39,72.84c-.12-.16-.5-.25-.2-.47.04.15.24.33.2.47Z"/>
      <path class="cls-2" d="M44.09,71.15s-.15-.07-.18-.09c.13-.01.25-.15.35-.06-.13.01-.11.09-.17.16Z"/>
      <path class="cls-2" d="M41.45,71.05c.04-.15.6-.26.94-.28l-.94.28Z"/>
      <path class="cls-2" d="M39.04,70.42c-.19-.13-.13-.2.13-.18.02.08-.07.11-.13.18Z"/>
      <path class="cls-2" d="M38.87,70.75c-.19,0-.28-.1-.37-.19,0,.13.44-.06.37.19Z"/>
      <path class="cls-2" d="M34.06,69.61c-.12-.02-.4.04-.46-.15.09.14.6-.04.46.15Z"/>
      <path class="cls-2" d="M31.83,69.11c-.07-.03-.08-.07-.18-.06-.1-.11.07-.16.18-.13v.19Z"/>
      <polygon class="cls-2" points="33.92 50.29 33.65 50.36 33.69 50.21 33.92 50.29"/>
      <path class="cls-2" d="M53.67,50.28c.27-.09.19.14.23.16-.24.01.09-.18-.23-.16Z"/>
      <polygon class="cls-2" points="64.32 49.55 64.24 49.55 64.27 49.26 64.32 49.55"/>
    </g>
  </g>
</svg>