<?xml version="1.0" encoding="UTF-8"?>
<svg id="Layer_2" data-name="Layer 2" xmlns="http://www.w3.org/2000/svg" viewBox="0 0 126.38 116.43">
  <defs>
    <style>
      .cls-1 {
        fill: #202020;
      }
    </style>
  </defs>
  <path class="cls-1" d="M107.89,58.87c-.35,1.22.11-.36.2.68.21-.33.03-.54-.2-.68Z"/>
  <path class="cls-1" d="M16.96,67.54s0-.01,0-.02c-.05-.13-.1-.26-.17-.38,0,.16.06.24.17.41Z"/>
  <path class="cls-1" d="M107.45,64.42c.03.06.04.11.06.17.01-.08.01-.14-.06-.17Z"/>
  <path class="cls-1" d="M109.43,54.08c-.24-1.55-.41-3.08-.55-4.63-.28-1.52-.51-3.05-.74-4.63-.37-1.53-.69-3.12-1.1-4.74-.54-.98-1.19-2.1-1.78-3.21-.28-.57-.62-1.09-.92-1.61-.3-.52-.56-1.02-.77-1.49l-.86-1.37c-.3-.45-.63-.87-.94-1.32l-1.87-2.65c-1.4-1.65-2.68-3.44-4.29-4.94l-1.16-1.17c-.38-.4-.78-.78-1.22-1.11-.85-.7-1.72-1.39-2.6-2.07-.88-.68-1.87-1.2-2.82-1.78l-1.45-.82c-.5-.26-1.02-.45-1.54-.67.33.4-.27.47-.72.37l-.02-.22-.81.09c-.61-.24-.13-.62.4-.44-.8-.36-1.56-.78-2.36-1.05-.8-.28-1.59-.55-2.37-.82-1.55-.6-3.17-.92-4.81-1.42-.36.56-1.74-.41-1.99.27-.13-.15.02-.15.14-.27-2.4-.02-2.52-.07-4.59-1.13-2.3-.24-4.61-.53-6.9-.35l-1.72.07-.86.04-.85.12c-1.13.17-2.26.35-3.39.52-1.12.19-2.21.55-3.32.82l-1.65.44c-.54.17-1.07.39-1.61.58-1.07.4-2.15.77-3.21,1.2-1.04.48-2.08.96-3.12,1.45-1.06.48-2,1.18-2.99,1.78-.98.62-1.95,1.23-2.83,1.98-.9.72-1.81,1.43-2.68,2.18l-2.47,2.41c-.85.77-1.53,1.72-2.29,2.58-.75.88-1.5,1.75-2.13,2.73-.65.96-1.34,1.88-1.96,2.86-.58,1.01-1.16,2.02-1.74,3.03.04.85-.17,1.68-.45,2.51-.27.83-.57,1.69-.52,2.61l-.24-.22c-.14,1.47-.7,1.61-1.7,3.18.33.13-.14.68.5.63.13.37-.16.56-.49.79-.31.23-.65.5-.64.97-.2-.02.35.08.12.21.11,2.44-.2-.53-1.5,2.23l-.15.77-.07.79-.12,1.58-.11,1.57-.06.78v.78c.05,2.09-.08,4.12-.08,6.12-.04-.25.43-.38.46.02-.94.43.33,1.32-.02,2.04-.2-.04-.28-.36-.38-.54-.07.46-.1.9-.06,1.33.06.42.14.83.23,1.24.17.8.33,1.59.25,2.48.12.29.21.59.28.9.12.44.19.9.24,1.35.12.89.2,1.74.61,2.24-.43-.15-.11.8-.16,1.18,1.5.75.71,3.17,1.99,4.28l-.21.03c1.85,4.05,4.24,8.4,7.62,11.64.93.92,1.68,2.11,2.54,3.27.93,1.09,1.94,2.18,3.17,2.96.51.2.34-.24.75-.07.56.45-.23.27-.09.55.71.25,1.35.75,2,1.34.32.3.65.6.99.9.36.27.73.53,1.11.77.28-.04.73.17.73-.15.65.82,1.65,1.44,2.75,1.87,1.1.43,2.2.83,3,1.53-.12-.61.21-.6.64-.43.44.15,1.03.41,1.4.43.36.18.3.43.11.57.65.18,1.16.33,1.66.51.63.24,1.25.54,2.19.91.84.1,1.19-.36,2.11.03.22.41.73.54,1.28.64.57.05,1.19.04,1.65.24-.14-.62,1.14-.9,2.05-.5l-.4.78c1.56.05,3.44.12,5.4.29.98.11,1.97-.02,2.95-.11.97-.12,1.92-.28,2.79-.63l.32.44c.91-.28,1.82-.49,2.72-.66l1.36-.25,1.33-.36c.88-.25,1.75-.5,2.6-.81.85-.3,1.63-.8,2.39-1.31.98-.09,2.51-.43,3.35-.89.99-.94,1.43-1.1,1.9-2.07.4-.25.85-.03,1.09.02,1.42-.73,3.16-.94,3.81-2.31l.27.31c.79-1.14,1.99-2.58,3.37-3.16.06-.55,1.02-1.62.22-1.54.35-.44.74.28.86-.43v.81c.63-.52,1.22-1.03,1.76-1.56.5-.57.98-1.14,1.44-1.72.45-.58.92-1.15,1.33-1.77.38-.64.77-1.29,1.18-1.95.55-.15,1-.75,1.43-1.48.39-.76.8-1.62,1.43-2.28.09-.55.53-1.11.8-1.72.27-.61.48-1.23.25-1.76l.39.13c.32-.61.69-1.33,1.08-2.1.33-.8.69-1.64,1.1-2.45.46-.96-.09-1.15-.05-1.99l.41.07c-.01-.86-.47-1.27-.79-1.66.09-.32.17-.64.25-.96.04-.13.11-.28.26-.49.06.69.35,1.35.78,1.94.45-1.05-.3-2.36.5-2.88.29-.87.25-1.59-.21-1.8.15-.03.36-.5.5-.03.09-.68.11-1.13-.05-1.57-.02.13-.11.3-.12.45-.32-.34-.26-.89-.68-.98.03-.28.07-.57.1-.85.37-.01.51.84.81.39-.22-.51-.48-1.01-.73-1.5.08-1.07.13-2.14.13-3.22,0-2.38-.2-4.7-.56-6.98.06.35.12.69.2,1.02.11.45.25.88.42,1.31.16.42.3.84.52,1.24.53,2.54,2.3,3.41,2.3,3.41-.24-1.64-.38-3.22-.48-4.79ZM32.85,27.24s0-.06.01-.09c0,.02.02.03.04.04-.02.02-.03.03-.05.05ZM82.72,19.33c.03.1,0,.19-.03.28-.08-.04-.15-.08-.23-.12.1-.04.19-.08.26-.16ZM71.72,15.81s.01.04.03.06c-.14-.03-.27-.05-.41-.07.13,0,.26,0,.38.01ZM57.85,15.29s.04.05.07.07c-.14.02-.28.03-.41.05.14-.04.26-.08.35-.12ZM37.68,64.2l-.32.41-.02-.25.34-.16ZM52.44,86.71c-.31-.17-.51-.52-.69-.68.27.03.55.65.76.65l-.07.03ZM55.33,88.85l-.09-.08.13.06s-.03,0-.03.02ZM55.5,88.89l.37.21c-.1,0-.25-.12-.37-.21ZM57.34,89.38c0-.15-.15-.12-.29.09-.02-.01-.04-.03-.07-.05-.13.1-.24.07-.35.05-.11-.03-.21-.06-.43-.06-.16-.43.31-.37.54-.36-.01.05-.1.07-.01.22.11.03.21.06.3.11.19-.39.37-.58.64-.7,0,.31-.3.52-.33.69ZM68.89,70.63c.09,0,.18-.03.29-.08-.41.73-.11.1-.29.08ZM89.72,35.94c-.11.2-.22.39-.33.59-.1.17-.2.33-.3.49l-.09-.2c-.28.6-.73,1.37-1.06,1.63.03.04.03.23.14.17-.19.8-.29-.07-.5.79.05-.22.16-.46.09-.55l-.63,1.49c-.12-.05-.86.64-1.11,1.28.05.06.23-.06.33-.2l-.16.41-.43.14-.09.67.05.03-.07.1.02-.13-.22-.12c-.19.42,0,.75-.21,1.06-.85,1.13-.78.84-1.49,1.57.36.34-.82,1.36-.65,1.75-.98.96-1.77,2.73-2.74,4.18l.04-.14c-.57.53-.11.92-.6,1.56l.04-.21c-.74.76-1.46,2.44-1.77,3.38.04-.21-.15-.2-.29.08-.05.28.42-.05.06.38.03-.14-.12-.1-.18,0l-.07.59c-.86,1.14-1.86,2.5-2.48,3.84-.21.19-.19-.02-.22-.12-.55,1.03-.96,2.14-1.46,3.07l-.29-.05c-.26.45.21.49-.35.95-.11.11.21-.39.2-.61-.71.79-.08.67-.6,1.5l-.14-.38c-.54.56-.3.83-.28,1.16-.22,1.11-.91.35-1.4,1.74.02.28.24.05.25.33-.59.84-.46,1.06-1.04,1.9-.68.23.26-.45-.42-.16l.49-.62c-.55.45.25-.56-.04-.61-.32.39-.51,1.17-.76,1.78-.18-.11.36-.67-.03-.55l-.1.33c0-.11-.07-.17.04-.33-.23,0-.21.34-.37.61.08.07.22.14.41.12-.03,0-.06,0-.11.04-.07.72-.83,1.56-.91,2.17,0-.11-.06-.05-.12-.05-.21.34-.18.83-.38,1.33-.28.17-.31-.38-.67.4.07.22.53.04.16.66,0,0,.19-.61-.08-.38-.25.67-.16.17-.66.62.03.44-.43.56-.12.83-.34.06-.23.06-.62.34.29-.06-.24.83,0,.94-.35,0,.06-.83-.49-.49-.03.44-.34,1.11-.09,1.33-.22.22-.39.28-.65.67.05-.05.05-.16.04-.22-.24.83-1.05,1.79-.96,2.39-.31-.38-.95,1.51-1,.74-.16.31-.27.88-.26,1.03.01,0,.02,0,.04.02-.02.04-.03.02-.04-.02-.29-.21-.52.7-.9.92.08.27-.3.78-.39,1.17.05-.17.04-.28-.07-.28-.09.44-.16.28-.49.51-.2.56.29.05.26.44-.33.39-.24-.05-.41-.05l-.07.83c-.11.11-.22.17-.34.17-.04.28-.02.55-.36.78l.31-.56-.28.12-.19.78c-.38.39-.61.47-.78.43,0,.01.01.02.02.04l-.28.54c0-.15-.02-.29-.05-.42.07-.14.14-.19.2-.21-.11-.07-.2-.18-.3-.28l-.03.06-.83,1.23-3.02-2.28-.35.08c.53.44,1.68.62,1.68,1.21l-.3-.17c-.03.08-.01.4.46.54.14.06.34-.05.17-.16.07.09.16.19.26.3-.33.03-1.01-.41-1.49-.69.19.03.57.22.55.04-.43-.23-.88-.39-1.3-.61-.08-.02-.15-.04-.23-.09.01,0,.02-.02.04-.03-.04-.03-.09-.06-.13-.08.07.03.11.04.17,0,.01.04,0,.06-.04.08l.19.11c.21.04.38,0,.51-.02-.34-.41-.4-.11-.73-.33-.07-.16-.11-.27,0-.27-.45-.22-.77-.44-1.12-.85,0,0,.46.18.41,0l-.22-.16c-.71-.36-1.04-.31-1.89-.77-.75-.27-1.19-.78-1.7-1.27-.29-.36-.49-.59-.8-.76-.1.04.32.56-.11.23.21-.08-.14-.32-.1-.4-.62-.21-.57-.66-1-.81.12.02-.07-.28-.18-.48-.03.01-.05.03-.11.03l.1-.04h0c.22-.12-.39-.52.47-.17-.89-.36-1.03-1.16-1.9-1.22l.11.21-.54-.71.02.03c.07.09.16.21.28.39l-.28-.39c-.24-.3-.33-.29-.51-.84.2.11.43.34.62.45-.18-.49-.82-.56-1.2-.92.14-.11.43.34.48.08-.24-.28-.56-.41-.84-.62l.1-.04c-.49-.81-.6.09-.84-.62-.03.06-.13.04-.14.11-.1-.25-.39-.79.11-.47-.23-.23-.54-.42-.74-.46.09.3.19.29.13.5l-.98-.84c-.1-.1.14,0,.27.13-.7-1.44-2.48-1.85-3.24-3.51.02.25-.19.01-.38-.02-.36-.43-.98-.99-1.27-1.42l.19.04c-.52-.41-.96-.76-1.35-1.07-.2-.17-.36-.29-.56-.49-.24-.23-.47-.46-.67-.69-.1-.03.19-.04.36.09-.31-.2-.53-.49-.66-.7.5-.36.88-.54.72-.75l-.25.21c.16-.15.31-.29.46-.44l.22-.23.17-.19c.22-.25.43-.51.64-.77.42-.53.84-1.08,1.28-1.56.4-.03-.52.55-.11.58.72-.57,1.21-1.38,1.97-2.02-.09.14-.04.13-.09.2.82-.59-.28-.08.38-.69.04.14.11.12.39-.07.04-.13.08-.28.13-.43.05,0,.1.17.02.34.09-.27.39-.61.71-.95.37.34.75.7.98.74.04.13-.27.16-.22.35.33.44.58.55.87.69.1-.09.21.03.35.2.14.1.28.22.4.4-.15-.1-.28-.27-.4-.4-.11-.08-.23-.14-.35-.2h0c.09.35.65.86.51.77.5.62.19-.01.73.3l-.37-.53.83.75-.4-.22c.29.43.82.65,1.24,1.07l-.09-.3.55.42c-.17.26.57.66.05.65.79,1,1.64,1.3,2.48,2.1-.14-.14-.13-.04-.19-.04.43.52.82.7,1.22.87-.13,0-.26-.08-.32-.03.56.56.47.22,1.15.77-.26-.08-.25.02-.11.21.05-.11.25-.02.39.07-.9-.04.52.87-.11.92.12-.06,1.27.72,1.17.27l-.2-.14c.1-.14.28.14.46.3.15.1.27.2.08.06-.03-.02-.05-.04-.08-.06-.11-.07-.23-.14-.26-.12,1.02.74,1.81,1.79,2.91,2.67-.13-.04-.61-.36-.39-.07.16.19.32.35.48.5.1.09.12.1.16.13.04.03.07.05.11.07.14.08.25.09.32.05.03-.17.05-.31.06-.4.17.21.03.35-.04.53-.06-.03-.11-.03-.13.14.05.04.1.08.16.12.07-.17.14-.32.19-.47l.07-.2s0-.04.04-.11l.11-.23c.29-.63.58-1.27.88-1.95.78-.21.61-1.5,1.51-2.15-.21-.01-.02-.48.26-.96h0s.05-.07.05-.07c.14-.23.28-.46.41-.63l-.41.63-.04.07c.04.24.34-.26.35-.06.09-.5.74-1.74,1.03-1.51-.24-.29.54-.89.52-1.36-.1.11-.21.21-.35.28l.34-.39s0,.07,0,.11c.42-.46.6-1.17,1.08-1.77-.33.12.29-.71.35-1-.03.08-.08.23-.03.21.28-.1.3-.85.62-1.16.17-.13.16.15.33-.12-.13-.09.29-1.18.68-1.45-.1.17-.03.21-.04.35.79-1.9,2.18-3.6,2.96-5.56l.05.45c.96-.94.05-.96.6-1.83,1.54-2.36,3.36-4.69,4.6-7.15.03-.21-.14.05-.26.02.15-.19.38-.13.42-.49h-.16c.98-.89,1.61-3.27,2.61-3.76.41-1.15,1.18-1.68,1.62-3.12.34-.33-.05.59.29.07l.49-1.28-.02.07c.28-1.35,2.17-2.73,2.72-4.3l-.02.07c.07.08.34-.15.45-.39-.02-.12-.14.02-.29.11.59-1.34.75-1.62,1.3-2.64-.12.51.35-.33.55-.27.04-.33-.28.04-.03-.6.1-.16.19-.32.29-.48.11-.18.22-.36.33-.53.22-.34.44-.66.64-.95.59.4,1.14.79,1.67,1.15.11.03.22.05.33.07.09.02.17.05.24.07.15.04.27.06.33-.03.94.54,1.51.77,2.66,1.44v.09c.44-.07.91.71,1.21.69-.08.07-.23.03-.24.12l.57.23c-.29-.07-.57.08-.16.36.55.09-.05-.19.25-.21v.31c.14.07.43.14.49.07.04-.03.04-.08-.01-.16-.05-.08-.19-.2-.25-.26.75.43,1.5.85,2.23,1.27-.38.67-.74,1.33-1.1,1.97ZM89.11,23.53c.7.39,1.4.75,2.1,1.04.04.18-.17.15-.32.2.94.32,1.5,1.13,2.1,1.79.58.68,1.2,1.2,2.1,1.28h.73c.15.46-.15.7-.06,1.08.51.03,1.22,1.19,1.73,1.04-.03.29-.27.12-.39.23.51.69,1.67,1.04,2.05,1.79l-.35-.06c.71,1.4,1.36,2.99,2.05,4.53-3.01-5.05-7.01-9.44-11.74-12.91ZM104.59,44.48c-.26-.74-.53-1.47-.83-2.2.05.1.11.2.16.29.26.42.53.82.82,1.18.32.5.05.63-.16.73ZM106.08,67.94c.05-.24.09-.48.14-.72.02.26,0,.5-.14.72ZM105.01,45.72c.04.08.09.15.12.23.17.43.31.89.44,1.35.25.92.45,1.88.64,2.82.05.43.1.86.17,1.28-.33-1.94-.78-3.84-1.36-5.68Z"/>
  <path class="cls-1" d="M40.23,74.6c.24.18.37.21.45.18l-.33-.33c-.06.04-.1.1-.13.15Z"/>
  <path class="cls-1" d="M75.05,59.5c-.08.12-.03.21.06.2.11-.2.22-.38.32-.52-.16.15-.37.41-.38.32Z"/>
  <path class="cls-1" d="M74.56,60.71c.04-.07.1-.18.16-.3h0c-.08.15-.13.24-.16.3Z"/>
  <path class="cls-1" d="M50.39,84.45c.23.08.35.09.41.07l-.45-.34.04.27Z"/>
  <path class="cls-1" d="M53.33,86.7l.57.16-.53-.4c-.07.04-.08.15-.04.25Z"/>
  <path class="cls-1" d="M46.35,102.73s.07-.04.1-.07c-.17-.05-.33-.09-.52-.14l.42.21Z"/>
  <path class="cls-1" d="M108.1,60.79c-.29-.09-.66.27-.98.32.42.59.64-.11.98-.32Z"/>
</svg>