<?xml version="1.0" encoding="UTF-8"?>
<svg id="Layer_2" data-name="Layer 2" xmlns="http://www.w3.org/2000/svg" viewBox="0 0 126.38 116.43">
  <defs>
    <style>
      .cls-1 {
        fill: #ff3600;
      }
    </style>
  </defs>
  <path class="cls-1" d="M56.76,95.2c-.12-.06-.24-.1-.37-.13-.11-.18,0-.2.01-.27-.28-.01-.86-.09-.66.44.26,0,.39.04.52.07.13.03.27.06.43-.06.03.02.06.04.09.06.17-.26.35-.29.36-.11.04-.21.41-.47.41-.85-.33.15-.55.38-.78.85Z"/>
  <path class="cls-1" d="M52.34,92.75c.1.05.19.09.28.1l-.24-.14s-.03.02-.05.03Z"/>
  <path class="cls-1" d="M62.83,87.4s-.03-.01-.04-.02c0,.05.02.07.04.02Z"/>
  <path class="cls-1" d="M71.61,72.18c-.13.07-.25.09-.35.1.22.02-.15.79.35-.1Z"/>
  <path class="cls-1" d="M52.44,92.62c-.07.04-.13.03-.21,0,.06.04.11.07.16.1.04-.02.07-.05.05-.1Z"/>
  <path class="cls-1" d="M57.34,70.39l.5-.77c-.15.21-.33.49-.5.77Z"/>
  <path class="cls-1" d="M59.19,67.25c.17-.09.31-.21.43-.35,0-.04,0-.09,0-.13l-.42.48Z"/>
  <path class="cls-1" d="M95.34,25.91c.08.08.25.22.31.32.06.09.06.16.01.19-.08.08-.43,0-.6-.09v-.38c-.37.02.37.36-.3.25-.51-.34-.17-.53.19-.44l-.7-.28c.01-.11.19-.06.29-.15-.36.02-.94-.93-1.49-.85v-.1c-1.39-.83-2.08-1.1-3.24-1.76-.08.11-.23.09-.41.04-.09-.03-.19-.05-.3-.09-.13-.03-.27-.06-.4-.09-.65-.44-1.33-.91-2.04-1.41-.25.36-.51.75-.78,1.17-.13.21-.27.43-.41.65-.12.19-.23.39-.35.59-.3.78.08.33.04.73-.25-.08-.83.95-.68.33-.68,1.24-.87,1.58-1.59,3.22.19-.11.34-.28.36-.14-.13.3-.47.58-.55.48l.02-.09c-.68,1.92-2.98,3.61-3.33,5.25l.02-.09-.6,1.57c-.42.63.06-.49-.36-.09-.53,1.75-1.48,2.4-1.98,3.81-1.23.6-2,3.51-3.19,4.59h.2c-.05.44-.33.38-.51.61.14.03.36-.29.31-.03-1.52,3.01-3.74,5.85-5.62,8.74-.68,1.06.43,1.08-.74,2.24l-.06-.56c-.95,2.39-2.64,4.48-3.61,6.79,0-.17-.07-.22.05-.43-.47.33-.99,1.67-.83,1.78-.22.32-.2-.01-.41.14-.39.38-.41,1.3-.75,1.42-.06.02,0-.17.04-.26-.07.36-.84,1.37-.43,1.22-.59.74-.8,1.6-1.32,2.16.02.58-.94,1.3-.64,1.66-.36-.29-1.14,1.23-1.26,1.84-.02-.24-.38.37-.43.08-.34.58-.58,1.16-.32,1.18-1.1.8-.89,2.37-1.84,2.63-.36.83-.72,1.62-1.07,2.38l-.13.29c-.04.09-.03.09-.05.14l-.09.25c-.06.18-.14.37-.23.57-.07-.05-.14-.1-.2-.15.02-.21.09-.21.16-.17.08-.22.25-.39.05-.65,0,.12-.03.29-.07.49-.08.04-.22.03-.39-.07-.04-.02-.09-.05-.13-.08-.05-.04-.07-.05-.19-.16-.19-.18-.39-.38-.59-.61-.27-.35.31.04.47.09-1.34-1.08-2.31-2.36-3.55-3.26.03-.03.18.06.31.14-.22-.2-.45-.54-.57-.37l.25.17c.13.55-1.28-.4-1.43-.33.77-.06-.96-1.17.14-1.12-.17-.11-.41-.22-.48-.09-.18-.24-.19-.36.13-.26-.84-.68-.72-.26-1.41-.95.07-.07.24.04.39.03-.48-.21-.97-.42-1.49-1.06.08,0,.06-.13.24.04-1.02-.98-2.06-1.34-3.03-2.56.63.02-.27-.47-.07-.79l-.67-.51.11.36c-.51-.52-1.16-.78-1.51-1.31l.49.27-1.02-.92.45.65c-.66-.39-.28.39-.89-.37.17.11-.51-.52-.63-.94h0c-.35-.18-.66-.31-1.06-.85-.07-.24.31-.28.27-.43-.29-.05-.74-.49-1.2-.9-.38.42-.75.84-.86,1.16.09-.2.04-.42-.03-.41-.07.19-.12.36-.16.52-.34.23-.43.26-.48.09-.8.74.55.12-.46.84.05-.08,0-.08.11-.24-.93.78-1.54,1.77-2.41,2.47-.5-.03.62-.75.13-.71-.54.59-1.05,1.26-1.57,1.91-.26.32-.52.64-.79.95l-.21.23-.27.28c-.18.19-.37.37-.56.54l.31-.25c.2.26-.27.48-.88.92.15.27.42.61.8.86-.21-.16-.56-.14-.44-.11.25.28.53.56.82.84.25.24.44.39.69.59.48.38,1.02.81,1.65,1.31l-.24-.04c.36.53,1.12,1.22,1.55,1.74.24.05.5.34.47.03.93,2.02,3.11,2.52,3.96,4.28-.16-.16-.46-.29-.33-.16l1.2,1.03c.08-.25-.05-.25-.15-.61.24.04.63.28.9.56-.61-.39-.26.27-.13.57.01-.09.14-.07.18-.14.29.87.43-.23,1.03.76l-.13.04c.34.25.73.41,1.03.76-.06.32-.4-.23-.58-.09.46.44,1.25.53,1.47,1.13-.24-.14-.52-.41-.76-.55.22.67.33.66.62,1.03l-.03-.04.66.86-.13-.25c1.06.07,1.24,1.06,2.32,1.5-1.04-.43-.3.05-.57.21.13.25.36.61.22.59.53.19.46.74,1.22.99-.05.09.38.39.12.48.52.41,0-.23.14-.28.38.2.62.48.98.92.63.6,1.17,1.22,2.08,1.56,1.03.56,1.44.51,2.31.94l.26.2c.06.23-.5,0-.5,0,.42.5.82.77,1.37,1.04-.15,0-.09.13-.01.33.4.27.47-.09.89.41-.15.02-.37.08-.62.02.51.27,1.07.46,1.59.75.02.23-.44,0-.67-.04.59.35,1.42.88,1.83.85-.13-.14-.23-.26-.32-.36.2.13-.04.26-.21.19-.58-.17-.6-.57-.56-.66l.37.2c0-.72-1.4-.94-2.05-1.47l.43-.1,3.69,2.79,1.01-1.51.04-.07c.12.12.23.26.36.34-.07.02-.15.09-.24.26.03.16.05.33.06.51l.34-.66s-.01-.03-.02-.05c.21.05.49-.05.95-.53l.23-.95.35-.14-.38.68c.41-.28.39-.61.44-.95.14,0,.28-.07.41-.21l.08-1.01c.21,0,.1.54.5.06.04-.47-.56.15-.32-.53.41-.28.49-.08.6-.62.14,0,.15.13.09.34.11-.47.57-1.09.48-1.43.46-.27.74-1.39,1.09-1.13-.02-.18.12-.88.32-1.26.06.94.84-1.37,1.22-.9-.12-.74.88-1.91,1.17-2.93,0,.07.01.2-.05.27.33-.48.53-.55.8-.82-.3-.26.08-1.08.11-1.62.68-.42.18.6.6.6-.29-.13.35-1.22,0-1.15.48-.35.33-.34.75-.42-.37-.33.18-.48.15-1.02.6-.55.5.06.8-.76.34-.28.1.47.1.47.45-.75-.1-.54-.19-.81.44-.95.48-.28.82-.49.25-.61.21-1.22.47-1.63.07,0,.14-.07.15.06.1-.74,1.02-1.77,1.11-2.65.06-.03.1-.05.13-.04-.23.02-.4-.06-.5-.15.19-.34.17-.75.45-.75-.13.2-.05.27-.05.41l.12-.41c.49-.14-.18.54.04.67.31-.75.53-1.7.93-2.18.36.06-.63,1.3.05.74l-.59.75c.83-.36-.32.48.51.19.72-1.03.56-1.29,1.28-2.32-.02-.34-.29-.06-.31-.4.61-1.7,1.44-.77,1.71-2.13-.02-.41-.33-.74.34-1.42l.17.47c.65-1.03-.13-.88.74-1.84.02.27-.37.89-.24.75.68-.56.11-.61.43-1.16l.36.06c.61-1.14,1.11-2.49,1.78-3.75.05.12.02.38.27.15.77-1.64,1.98-3.29,3.04-4.69l.08-.72c.08-.13.26-.18.22,0,.44-.53-.14-.12-.08-.46.18-.34.4-.35.36-.1.39-1.16,1.26-3.21,2.17-4.13l-.05.26c.6-.79.04-1.26.74-1.9l-.04.18c1.19-1.77,2.15-3.93,3.35-5.11-.21-.48,1.23-1.72.79-2.14.87-.9.78-.55,1.82-1.92.25-.38.03-.77.26-1.29l.27.14.11-.83.52-.17.2-.5c-.12.17-.35.32-.41.24.3-.78,1.21-1.63,1.35-1.57l.77-1.82c.08.1-.04.4-.11.67.26-1.06.38,0,.61-.97-.13.08-.12-.15-.17-.2.4-.32.95-1.25,1.29-1.99l.11.24c.12-.2.24-.4.36-.6.13-.24.27-.48.41-.72.44-.78.89-1.59,1.35-2.41-.89-.51-1.8-1.03-2.72-1.55ZM36.22,77.14c.03-.06.08-.14.15-.18l.4.4c-.1.04-.26,0-.55-.21ZM48.64,89.18l-.04-.33.55.41c-.08.02-.23.01-.51-.08ZM52.23,91.93c-.05-.12-.04-.25.05-.3l.65.49-.7-.19ZM78.19,60.15c.04-.08.1-.19.2-.37h0c-.08.16-.15.29-.2.37ZM78.86,58.93c-.11,0-.17-.1-.08-.25,0,.11.26-.21.46-.39-.12.17-.25.4-.39.64Z"/>
  <polygon class="cls-1" points="91.72 38.11 91.66 38.07 91.64 38.24 91.72 38.11"/>
  <path class="cls-1" d="M39.07,80.42s0,.07.04.14c0-.02-.01-.07-.04-.14Z"/>
  <path class="cls-1" d="M41.92,83.36l.34.48c-.14-.22-.25-.37-.34-.48Z"/>
  <path class="cls-1" d="M44.04,85.68c.06,0,.1-.02.13-.04h0s-.13.04-.13.04Z"/>
  <path class="cls-1" d="M49.43,73.48s.06.06.09.08c.24.16.09.04-.09-.08Z"/>
  <path class="cls-1" d="M38.45,63.43c.15.08.29.15.43.24-.17-.2-.31-.35-.43-.24Z"/>
  <polygon class="cls-1" points="57.29 70.47 57.29 70.48 57.34 70.39 57.29 70.47"/>
  <path class="cls-1" d="M39.36,64.16c-.15-.23-.31-.37-.49-.49.14.17.3.37.49.49Z"/>
  <path class="cls-1" d="M54.68,94.55s.03-.02.04-.03l-.16-.08.11.1Z"/>
  <path class="cls-1" d="M54.88,94.61c-.07-.05-.12-.09-.16-.08l.16.08Z"/>
  <path class="cls-1" d="M55.33,94.86l-.45-.25c.15.11.33.26.45.25Z"/>
  <path class="cls-1" d="M50.3,91.11c.23.2.47.63.85.83l.08-.04c-.25,0-.6-.76-.93-.79Z"/>
  <polygon class="cls-1" points="33.1 64.42 32.69 64.61 32.71 64.92 33.1 64.42"/>
</svg>