<?xml version="1.0" encoding="UTF-8"?>
<svg id="Layer_3" data-name="Layer 3" xmlns="http://www.w3.org/2000/svg" viewBox="0 0 95 95">
  <defs>
    <style>
      .cls-1 {
        fill: #202020;
      }
    </style>
  </defs>
  <g>
    <path class="cls-1" d="M88.21,48.11c-.09-.94-.54.5-.2-.61.23.13.4.31.2.61Z"/>
    <path class="cls-1" d="M87.75,44.41c-.21-.36-.36-.73-.51-1.12-.16-.38-.29-.78-.4-1.18-.21-.81-.32-1.66-.42-2.53-.16-.85-.34-1.72-.57-2.56-.12-.42-.25-.83-.4-1.22-.17-.39-.41-.74-.66-1.08-.19-.33.82-.18.34-.92-.27-.32-.53-.67-.77-1.05-.23-.38-.45-.79-.72-1.2-.49-.83-.93-1.75-1.32-2.72-.93-1.87-1.69-3.97-2.55-5.77l.33.05c-.33-.69-1.43-.98-1.89-1.6.11-.11.34.04.38-.23-.49.16-1.12-.91-1.6-.92-.07-.35.22-.59.1-1.03l-.69.04c-.85-.04-1.42-.51-1.93-1.13-.53-.6-1.03-1.35-1.9-1.62.14-.05.34-.02.31-.2-.67-.26-1.32-.57-1.97-.94-.66-.35-1.28-.79-1.98-1.12-1.37-.71-2.7-1.56-4.13-2.01.19-.12.45-.38.38-.65-.39.44-1.27.17-2.03-.07-.08-.73-1.46,0-2.2-.63l.12-.09c-.85.34-.84-.68-1.59-.18l-.27-.59c-.52.7-.84-.66-1.51-.4l-.03.17c-.57.06-.73-.41-1.25-.4l-.02-.1c-1.16-.11-1.75-.61-1.84.02-.31-.56,1.15-.06.67-.89-3.93-.08-7.82-.34-11.68-.02-.46-.2-.75-.23-.88-.46-.37.19-1.44.34-1.73.71.13-.03-.3-.28-.51-.29-.75-.12-.63.78-1.43.7.26-.24.32-.47.17-.68-.54.65-1.41.8-2.12,1.15.09-.13.25-.24.17-.43-.67.76-1.56.24-2.15.88l.15-.45c-1.29,0-.09.86-1.15.96.19-.2.06-.3.06-.46-.35.48-.9.81-1.47,1.08-.58.25-1.12.58-1.52.87.03-.07-.03-.16-.03-.16-.46.27-.95.47-1.45.7-.5.22-1,.5-1.41.94-.44.07-.33-.86-1.22-.15.42.62-1.46,1.24-.45,1.61-.22.09-.47.2-.73.31-.25.13-.5.28-.75.43-.49.3-.92.61-1.09.9.17-.48-.92-.44-.32-.97h-.76c-.11-.29.57-.29.18-.48-.31.28-1.09,1.19-1.43,1.35-.27.86-.2,1.95-1,2.8.21-.58-.8-.38-.61-.73-.09.72-.17,1.42-.17,2.17-.23.31-.48-.34-.72.21.16.11.09.38.09.61-.16.05-.93,1.3-1.61.96-.34-.06.31-.57-.18-.42-.49.54-.27.76-.71,1.34l-.09-.05c-.38.32-.6,1.32.04,1.14.22-.25-.43-.16.04-.43.14.53-.26,1.25-.68,1.82.05-.26-.13-.35-.24-.54-.12,1.09-.41,2.09-.77,3.09.29.19-.34-.66-.1-.7-.55.46-.81,1.14-.98,1.81-.17.67-.34,1.3-.9,1.66.02-.19.49.12.4.09-.32.56-.77.33-.78.79-.29-.08-.17.51-.21.97.12.29-.17.05-.07-.32.01.34-.08,1.12-.29,1.95-.22.83-.54,1.72-.89,2.35.19.03.48,1.02.38,1.32l-.41-.23c-.34.22-.23,1.05-.63,1.02.37.8.21-2.69.39-1.68-.43.14.38,1.44-.17,1.09-.14.64.18,1.34-.31,1.87.1-.16-.54-.64-.59-.11-.06.94.17.3.21,1.07l.11.49c.44.09-.18.8.36.53-.38.07.01,1.33-.69,1.17l-.57-.19c.01.41.57.72.81,1.05-.06.05-.18.14-.27.12.88.12-.12.95.54,1.45-.17.41-.21.93-.27,1.4-.01.47-.06.89-.33,1.09.3.64.65,1.19.5,1.93-.09-.14-.13-.33-.32-.36-.24.48,0,.58.16.98-.17-.08-.39.96-.63,1.52.36.6.8.31,1.1.33-.76.72.77,1.67.2,2.52-.19-.18-.63-.82-.74-.25-.71.77.93,1.01.75,2.02l.65-.41c-.33.52.74,1.21,0,1.32.3.23.11,1.12.75.81-.02.81.39,1.66.68,2.46.27.81.62,1.51.22,2.22.2.15.34.7.61.44.2-.5-.48-.34-.29-.58.11.17.3.12.4.1.06.5.18.87-.55.72.09,1.17,1.51.47,1.97,1.73-.29.09-.33.24-.08.55l.82.38c.35.8-.31.78-.72,1.07.32.36.6.88,1.05.82l-.17.82c.12-.6.48.14.71.24l-.23-.11c-.12.19.32.56.53.74.21-.24-.03-.76-.14-1.05.32.06.5.39.9.49-.45.21.18.82.36,1.15.17.41.65.08.71.19-.19.17.43.54-.06.52-.16-.06-.04-.4-.37-.44.04.33-.31.59.33.82.48.17.65-.72.98.1-.24-.08-.41.02-.65.01l.34.75.35-.28c-.01.15-.09.13-.1.2.5-.15.91.79,1.4.55.31.24.39.77.63,1.06l-.08-.02c.16.5.73.79,1.21.82l-.08.06c.16.19.64.55,1.04.54.29.63-.89,1.43.03,1.42.54.38,1.31-.04,1.27-.42.37.46.92.74,1.43,1.06.54.27,1.05.56,1.32,1.13.23-.07.21-.22.55-.13.67.52,1.48.87,2.27,1.16.78.32,1.46.7,1.89,1.4-.52-.04-.21.39-.3.63.52-.18.3.57.69,0,.12-.39.22-.54-.15-.88,1.01.16,2.42.66,2.82,1.22-.2-.27.04-.32.28-.35-.27.59.4.95,1.01.84l.19-.36.24.48c.24-.07.44-.73.88-.23,0,.15-.02.31.06.44.65-.19,1.52-.45,2.07-.06l.4.64c.28-.02.78-.29.34-.53.99.5,1.67.65,1.95,1.19,1.98-1.03,4.54-.92,6.65-1.03l-.04.3c.59.25.26-.53.67-.34-.16.29.49.58.06.95.86.29,1.01-.6,1.51-.8.03-.39-.39.31-.35-.19.07-.15,1.15.13,1.19-.47.23.2.14.64.07.89l.45-.35c.73.58-1.21,1.41-.45,2.14l.47-.16c.56.53-1.18.88.07.9.49-.37.79-1.26.29-1.45,1.04-.33.25-1.41,1.36-1.59.18.13-.03.21-.25.3-.23.07-.46.16-.31.38.63.41,1-.5,1.49-.44-.56-.08-.26-.77.04-.95.62.12-.23.63.57.48.05-.36.69-.78.02-.85.08-.8.86,0,1.11-.67.41.45-.45,1.39.49,1.43-.27-.43.83-1.02.15-1.59.36.02.53.4.39.78.57.13.81-1.3,1.31-.39l-.02-.55c.2.11.46.15.8.33.21-.07.47-.36.72-.53.24-.19.45-.28.59.09.09-.14,1.01-.54.43-.87-.69-.04-.47.68-1.08.14.63.37.76-.46.99-.79l.18.25c.14-.2.6-.35.57-.7-.06.23.1.38.29.37v-.51c.64-.57.55.65,1.23.16-.12.21-.26.4-.4.6.08-.14.57.16.84-.2-.07-.46-.08-1.06-.13-1.41.3-.4.42.31.59-.31l-.25.76c0,.17.7.4,1.25.05.28-.34.47-1.18-.19-1.05.26-.17.78-.18.74.22.53-.49-.33-.34.05-.87.37.11,1.21-.04,1.85,0l-.11.98.36-.26c-.13.81.49.18.58.86.3-.11.48-.5.63-.8-1.29-.24-.01-1.64-.77-2.18.78-.87,1.95,1.19,1.99-.68-.3-.04-.32-.93-.7-.24.6-.42-.23-.99.64-1.29-.22.69,1.12.19.79,1.2-.15-.26-.54.19-.59.35.45.04.54.71,1.12.18.29-.38.76-.83.37-1.09-.37-.35-.49.52-.62-.05.57-.73,1.21-.32.82-1.23-.33.48-.81.21-1.05-.05.12-.19.2-.42.3-.62l.16.33c.88-.62-.23-.65.51-1.34l.82.09c.26.56-1.19.93-.39,1.44.49-.48.29-.96.89-1.27-.04.16-.15.32-.18.48.18-.15,1.28.47,1.4-.73.1-.57-.17-.31-.43-.54.57-.94.48-1.41.85-2,.46.52.79-.95.9.08-.54.06-1.44,1.32-1.17,2.05.43.09.28.25.08.47-.22.21-.5.47-.27.82.63-.65,1.2-.12,1.69.09.18-.19.16-.52.19-.7-.32-.39-.51-.12-.92-.42.71-.73,1.08-1.67,1.01-2.38.4-.13.74.23.54.58.32-.51.61-1.06.94-1.58.33-.52.69-1.01,1.06-1.46-1.07.23.49-1.18-.35-1.07-.46.44-1.22.58-1.37.13.24-.29.3.18.53.14-.13-.6.99-.3.58-1.04-.23,1.08.77.65,1.24,1.12.03-.88.38.24.72-.48.04-.88.21-1.88.47-2.72.94-.81.97-2.63,1.29-3.54.43-.41,1.02.14,1.28-.38.15-.65-.86.27-.3-.6l.11.13c-.09-.33.92-1.66,0-2.16l.67.46c.11-.16-.01-.37-.06-.54.24.05.52-.12.6.21.71-.49.14-1.31.24-1.97l-.51.35c-.19-1.18.4-1.87.37-2.99l.44.08-.23-.68c.42.2.73-.39.39-.77.33.6.68,1.21.98,1.84-.32.46-.47-.59-.94-.32-.4.22-.45,1.24-.05,1.47.11-.39.02-.42-.1-.74.63-.06.52.54.88.9,0-.21.24-.49.05-.56.24.45.22.88.13,1.58-.17-.51-.42.19-.56-.01.53.14.59.84.31,1.67-.77.46-.01,1.67-.43,2.62-.43-.54-.73-1.15-.8-1.78-.42.53-.16.67-.58,1.2.32.39.88.77.91,1.64l-.4-.08c-.02.77.52.95.09,1.82-.38.74-.71,1.5-1.01,2.22-.36.69-.7,1.34-.99,1.9l-.38-.13c.24.5.06,1.06-.19,1.62-.25.56-.65,1.06-.72,1.57-.58.58-.95,1.37-1.3,2.06-.39.66-.8,1.21-1.32,1.33-.36.61-.71,1.2-1.05,1.78-.38.56-.79,1.08-1.2,1.61-.41.53-.84,1.05-1.3,1.57-.49.48-1.03.95-1.59,1.41l-.04-.76c-.09.67-.48-.02-.79.38.75-.04-.11.93-.16,1.45-1.28.5-2.34,1.84-3.04,2.9l-.27-.31c-.56,1.29-2.16,1.44-3.46,2.1-.22-.05-.64-.28-1.01-.05-.41.93-.81,1.07-1.7,1.95-.76.42-2.15.71-3.05.78-.68.47-1.39.94-2.16,1.22-.77.29-1.56.52-2.36.75l-1.21.33-1.23.23c-.82.16-1.65.36-2.47.62l-.29-.44c-.78.33-1.65.49-2.53.6-.88.09-1.79.21-2.68.1-1.78-.16-3.48-.23-4.91-.26l.37-.77c-.82-.38-1.99-.09-1.87.52-.42-.19-.98-.17-1.5-.22-.51-.08-.97-.2-1.16-.6-.84-.37-1.16.09-1.93,0-.85-.35-1.41-.63-1.99-.85-.57-.21-1.15-.36-1.99-.59l.38.19c.24-.1.38-.42,0-.62-.34,0-.87-.24-1.28-.38-.4-.15-.7-.14-.6.44-.72-.66-1.73-1.01-2.73-1.4-1-.38-1.92-.94-2.5-1.71,0,.31-.42.11-.68.17-.35-.21-.68-.45-1.01-.7-.3-.28-.6-.56-.89-.83-.59-.53-1.17-1-1.83-1.21-.12-.26.61-.11.1-.52-.37-.16-.23.27-.7.09-1.14-.69-2.05-1.69-2.88-2.69-.78-1.06-1.44-2.16-2.29-2.99-3.1-2.93-5.26-6.9-6.95-10.58l.2-.04c-1.22-.99-.39-3.24-1.84-3.89.06-.36-.24-1.22.18-1.09-.39-.45-.46-1.22-.56-2.04-.05-.41-.11-.83-.21-1.23-.09-.41-.2-.81-.43-1.16,0,.15.06.22.16.37.09-.82-.06-1.54-.22-2.27-.08-.37-.16-.74-.21-1.12-.04-.39,0-.79.06-1.21.09.16.17.46.37.49.34-.65-.9-1.45.02-1.85-.03-.36-.49-.24-.45-.02.02-1.81.13-3.66.08-5.56v-.71s.04-.71.04-.71l.09-1.43.1-1.44.06-.72.13-.7c1.22-2.5,1.58.22,1.43-2.01.22-.12-.32-.22-.12-.19-.02-.43.31-.67.6-.88.32-.2.6-.37.46-.71-.63.04-.18-.46-.5-.59.93-1.42,1.48-1.53,1.58-2.88l.24.21c-.07-.85.19-1.63.43-2.39.24-.76.43-1.52.36-2.31.53-.93,1.06-1.85,1.58-2.76.56-.89,1.19-1.74,1.78-2.61.57-.89,1.25-1.69,1.93-2.49.69-.79,1.3-1.65,2.08-2.36l2.24-2.21c.79-.69,1.62-1.33,2.44-1.99.8-.69,1.69-1.25,2.58-1.81.9-.55,1.75-1.19,2.72-1.62.95-.44,1.9-.88,2.84-1.32.96-.4,1.95-.73,2.92-1.1.49-.17.97-.37,1.47-.53l1.51-.4c1.01-.25,2-.57,3.03-.75l3.09-.48.77-.11.78-.04,1.57-.06c2.09-.15,4.19.11,6.29.34,1.88,1.03,1.98,1.06,4.17,1.06-.11.11-.25.12-.13.26.24-.66,1.49.26,1.82-.29,1.49.46,2.97.75,4.38,1.3.72.25,1.43.49,2.16.74.74.24,1.42.62,2.16.95-.49-.16-.94.22-.38.44l.75-.1v.21c.42.09.98,0,.69-.37.47.2.95.37,1.4.61l1.33.75c.87.53,1.77,1.01,2.57,1.63.8.62,1.59,1.25,2.36,1.9.4.31.76.65,1.11,1.02l1.06,1.07c1.45,1.38,2.62,3.02,3.89,4.52l1.7,2.42c.28.4.59.79.86,1.2l.78,1.25c.35.88,1,1.81,1.53,2.82.54,1.01,1.14,2.03,1.64,2.92.36,1.48.64,2.94.96,4.34.2,1.44.4,2.84.64,4.22.12,1.41.27,2.8.49,4.21.09,1.42.23,2.86.45,4.35,0,0-1.73-.79-2.24-3.09Z"/>
    <path class="cls-1" d="M88.22,49.24c-.34.19-.55.82-.96.29.31-.05.67-.37.96-.29Z"/>
    <path class="cls-1" d="M80.79,64.56c.08.06-.22.15-.29.17.06-.19-.1-.48.12-.55-.06.19.09.23.17.38Z"/>
    <path class="cls-1" d="M78.56,68.01c-.21-.22.04-1.08.28-1.54l-.28,1.54Z"/>
    <path class="cls-1" d="M75.37,70.33c-.39.09-.43-.06-.17-.4.14.07.12.24.17.4Z"/>
    <path class="cls-1" d="M75.72,70.96c-.21.24-.44.24-.67.24.2.15.36-.63.67-.24Z"/>
    <path class="cls-1" d="M69.29,75.91c-.14.13-.33.58-.66.42.3.06.52-.85.66-.42Z"/>
    <path class="cls-1" d="M66.47,78.39c-.11.05-.18.03-.26.17-.26,0-.17-.3-.02-.42l.29.25Z"/>
    <polygon class="cls-1" points="11.12 56.29 11.36 56.66 11.07 56.67 11.12 56.29"/>
    <path class="cls-1" d="M16.34,26.69c.07-.46.39-.08.47-.12-.2.32-.23-.32-.47.12Z"/>
    <polygon class="cls-1" points="27.62 14.07 27.51 14.14 27.24 13.61 27.62 14.07"/>
  </g>
  <g>
    <g>
      <g>
        <path class="cls-1" d="M29.97,38.26c.12.12.21-.17.14.05-.12.03-.21.03-.14-.05Z"/>
        <path class="cls-1" d="M44.24,51.99c-.86-.17-.32-.96-.93-1.25-.05-.04.4-.12.26-.21-.71-.25-.61-1.05-.36-1.73h.12c.05-.13-.37-.13-.35-.26.07-.03.12,0,.21-.06-.23.05-.17-.16-.35-.15.07-.07.25-.13.33-.22l-.28.02c-.66.03-.1-.43-.49-.56.06,0,.12,0,.17-.04-.5-.25-.59-.74-.86-1.12.1-.01.27-.05.36-.11-.28.07-.39-.04-.48-.13.26-.14-.32-.11-.21-.29h.07c-.32,0,.12-.21-.26-.17l.2-.14c-.4.09.15-.21-.07-.22l-.08.03c-.12-.04.06-.15-.03-.2l.04-.02c-.16-.13.03-.3-.28-.19.22-.14.16.12.49-.09-.5-.44-.63-1.02-.82-1.56.1-.1.12-.16.23-.21-.08-.03-.13-.19-.3-.18.01.02.14-.09.15-.12.08-.14-.37,0-.27-.15.1.02.2,0,.31-.06-.27-.01-.27-.15-.39-.23.06,0,.1.02.19-.02-.31-.03-.02-.24-.22-.29l.19-.02c.16-.24-.38.07-.31-.12.07.02.13-.02.2-.04-.36-.03-.33-.29-.49-.39.03,0,.07-.02.07-.02-.09-.14-.04-.32-.24-.44.06-.09.43-.13.32-.26-.35.13-.24-.22-.6,0,.01-.15.07-.41-.08-.46.15.02.41-.21.48-.11l.18-.16c.15-.04-.02.1.15.02-.03-.05-.23-.17-.19-.24-.25-.03-.68.01-.79-.14.16.03.37-.18.45-.14h-.75c-.04-.06.27-.11.15-.16-.09.04-.16.02-.24.02.03-.03-.17-.2.17-.34.13-.07.1.07.21-.04-.04-.1-.16-.07-.2-.17l.05-.02c.03-.09-.22-.15-.38-.01,0,.05.2-.09.13.02-.22.02-.31-.08-.35-.18.07.02.16-.02.26-.04-.32-.05-.46-.16-.62-.28-.17.05.32-.04.24,0,.16-.28-.46-.3-.19-.58.04.02-.23.09-.18.08-.01-.1.23-.18.12-.21.14-.05-.07-.06-.14-.11-.11,0,.06-.04.1.01-.15-.05-.49-.33-.35-.61-.09.04-.38-.01-.39-.06l.22-.06c.11-.09-.07-.15.11-.22-.3-.01.36.31.11.25.17-.1-.41-.07-.1-.14-.04-.09-.32-.1-.14-.26-.03.04.33-.02.28-.1-.08-.12-.12,0-.23-.09l-.11-.04c-.21.07-.01-.13-.23,0,.17-.08-.17-.16.18-.27l.28-.07c-.04-.05-.32,0-.46,0,.02-.02.07-.05.12-.06-.42.13-.01-.15-.36-.11.1-.17-.09-.32.15-.46-.16-.05-.34-.09-.29-.22.05,0,.07.03.16,0,.1-.11-.02-.09-.1-.13.07,0,.2-.22.32-.35-.16-.05-.37.06-.52.1.39-.23-.36-.17-.02-.41.07.01.25.07.33-.05.39-.23-.37-.07-.21-.28l-.33.15c.19-.13-.27-.14.09-.24-.14,0,.06-.2-.27-.07.21-.32-.36-.5.2-.84-.07-.02-.03-.09-.2-.01-.18.09.15,0,.03.07-.02-.03-.11,0-.16.01.06-.06.08-.11.37-.17.17-.2-.59.14-.51.01.13-.07.18-.1.13-.13l-.26.05c-.01-.13.24-.24.45-.38-.07-.03-.11-.1-.28-.02l.21-.25c-.15.18-.15.04-.22.05h.07c.08-.08-.02-.11-.07-.12-.12.1-.12.2-.13.26-.11.04-.12-.02-.25.03.2-.14.08-.19.07-.24,0-.08-.21.08-.21.07.1-.08-.04-.08.12-.16.04-.01-.07.11.04.07.05-.09.22-.22.05-.18-.13.03-.36.32-.31.14.06-.02.14-.08.22-.12l.03-.16-.17.14s.05-.05.07-.08c-.2.13-.16-.08-.37.09-.05-.02.04-.18.02-.23h.02c.05-.14-.07-.14-.2-.07l.04-.03s-.09-.06-.21.02c.05-.18.53-.65.28-.5-.07-.05-.36.23-.42.36-.02-.21-.35.02-.25-.35-.06.07-.08.12-.14.14-.12-.16-.41.07-.37-.36.08-.07.08-.21.12-.33-.11.17.01-.22-.11.1-.06.19-.09.29-.07.38-.12.06-.22.05-.24-.14,0,.1-.02.15-.05.21.06-.31,0-.38-.07-.27l-.02.19-.02-.21c-.02.06-.04.41-.07.23,0-.08,0-.15-.01-.21-.06.16-.08.44-.14.27l-.08-.28s-.03.22.02.29c-.11-.14-.18-.15-.27-.38,0,.3-.04.48-.1.61-.06.12-.15.12-.25.19l-.07-.13c-.12-.08.11.23.03.17-.06-.13-.21-.22-.26-.4-.17-.07.04.28.04.37.11.16-.04-.13.1.08.03.06-.19-.05-.02.19-.09-.08-.21-.25-.27-.35l.04.14c-.28-.22-.24-.57-.56-.86l-.03.07c-.25-.2-.06-.38-.27-.35.02.16.25.51.38.58-.05.15.41.57.31.63-.14-.1.04-.1-.14-.26-.2-.13,0,.18-.09.16.12.04.29.28.31.34-.14-.06-.17-.22-.25-.18.11.13.16.26.29.29.27.27-.14-.02.06.2-.23-.15-.42-.46-.59-.47.21.16.21.31.54.51-.07-.02-.24-.14-.35-.26-.16-.05.32.37-.11.09l.21.16c-.08-.03-.15-.06-.28-.11-.04.04.23.29-.11.1.03.03-.03.12.23.21.17.03-.15-.16.19,0-.28-.11,0,.1.08.17l-.14-.07s0,.07.14.15c-.07-.05-.17-.09-.21-.09l.2.12c.07.11-.38-.15-.36-.05l-.14-.13s-.19-.03-.14.04c.19.1.42.21.57.29.08.07-.23-.06-.04.05l-.23-.15c-.06-.04-.34-.08-.36,0,.06.07.33.22.46.2,0,.03-.14.04-.29-.03.05.09.22.06.33.15-.14-.02-.37,0-.58.02l-.33-.16s-.02.03-.02.05c-.26-.14-.22-.01-.51-.13-.05.03.04.11.11.16.49,0,.63.26,1.07.31.1.14-1.08-.09-.42.16.12,0,.44.1.33,0-.06.08.43.11.24.19-.18-.1-.45.04-.7-.11.15.02.11-.05.08-.08-.17.02-.44-.07-.45.04.04.07.04.16.27.16.25.02-.02-.09.23-.03.08.12-.31.11.14.19-.03-.07.23-.07.4-.05l.1.08-.17-.03c-.13.12.3.06.25.17l-.33.05c-.29-.04.14-.17-.33-.18-.02.09.2.12.09.2-.04-.02-.05-.05-.09-.06-.02.03-.63.05-.27.19.14.07.17.02.34.02.05.14.23.18.26.26-.34,0-.02.16-.38.08.2-.06.18-.25-.15-.31-.4.06.06-.11-.35-.15,0,.12-.4.12-.66.14-.02.04.09.07.13.09.25.01.24-.04.49-.04-.06.14.07.27.32.33-.12.05-.36.05-.39,0,.09.16.07.34,0,.51.38-.15.12.17.44.06.07-.1.35-.19.53-.17-.02.05-.17.02-.26.05.23.04-.33.14.02.16-.15-.13-.49.03-.8.05.19.09-.22.02-.2.14.19.09.34.21.43.32-.26.21.07.4.12.53-.14.11-.49.14-.53.24.03.09.35-.16.23.02h-.07c.09.02-.17.32.33.23l-.38.06s.07.04.11.05c-.12.03-.22.1-.31.07-.23.16.09.18.13.27l.2-.13c.21.11.04.28.16.41l-.21.07.16.05c-.21.05-.31.18-.13.17l-.6-.07c.1-.11.28,0,.47-.12.17-.1.07-.22-.14-.18,0,.06.04.05.13.07-.29.11-.3.02-.51.04.02.03-.05.1.04.08-.16-.01-.21-.07-.24-.17.13.03.17-.09.26-.09-.26.07-.37,0-.33-.15.28-.17-.26-.18-.21-.36.28,0,.51.01.64.07.11-.12-.03-.1.08-.22-.21,0-.52.05-.67-.04l.2-.05c-.13-.08-.42-.02-.39-.17.05-.26,0-.51,0-.7l.2-.04c-.44-.04-.21-.32-.41-.44.18-.26-.24-.52.11-.67-.17-.42-.31-.83-.19-1.3l.29.11c-.21-.11.17-.03.14-.11-.25.06-.28-.15-.45-.24.27-.17.05-.48-.08-.73l.2.05c-.3-.3.08-.44.23-.64.09,0,.28.04.29-.03-.24-.25-.19-.31-.28-.59.06-.14.28-.31.47-.36-.04-.37.13-.64.34-.86l.31-.35c.11-.1.21-.22.29-.36l.17.17c.08-.38.36-.58.69-.7.31-.15.64-.2.9-.39l.04.41c.19.08.35-.19.26-.47.19.09.46-.23.59.09.18.07.23-.2.4-.24.37.21.51.18.87.2l-.08-.05c-.06.07-.1.24-.03.29.15-.07.4.25.44-.25.26.37.9.16,1,.66.05-.13.13-.1.21-.16.27.17.34.57.65.55,0,.08-.2.12-.12.21.08,0,.12-.13.23-.13.53.14.47.83.76,1.08.32.19.56.46.75.76.08.13.26.4.34.62.1.28.13.4.19.52l-.09.03c.41.06-.22.54.36.5-.07.07.01.17-.18.2.3.06-.1.47.28.57,0-.02-.02-.03-.07-.03-.13.27.21.36.09.64-.05,0-.09-.04-.18-.01-.15.14.46.07.03.26.02.05.24-.04.21-.07-.01.53.44.94.71,1.4-.15.44-.74.28-.32.44-.08.05.18-.04.09,0,.16.07-.44.34-.18.33.26-.12.17,0,.34-.06-.1.28-.34.4-.07.5l-.15.04c.47.06.34.37.86.38.46,1.07,1.08,2.04,1.49,3.09.27,1.09.83,2.06.95,3.22-.29.38-.28.4-.03.62-.07,0-.08,0-.14.03.31-.09.1.19.4.11.08.42.29.76.43,1.16-.06-.05-.32,0-.27.07h.23s-.08.06-.08.06c.06.04.24.04.32-.05.62.94.34,2.16.76,3.14-.05.28.19.58.34.82-.15.91-.25,1.72.3,2.4,0,0-.84.17-1.13-.09Z"/>
        <path class="cls-1" d="M29.87,38.11c.14-.09.2-.21.43-.21-.14.06-.29.17-.43.21Z"/>
        <path class="cls-1" d="M30.9,35.31s.06-.04.09-.05c.02.03.16.03.07.07-.02-.03-.09-.01-.16-.01Z"/>
        <path class="cls-1" d="M30.94,34.73c.15,0,.27.11.29.17l-.29-.17Z"/>
        <path class="cls-1" d="M31.52,34.22c.12-.04.19-.03.19.02-.08,0-.12-.01-.19-.02Z"/>
        <path class="cls-1" d="M31.19,34.18s.08-.06.16-.08c-.12,0,.08.09-.16.08Z"/>
        <path class="cls-1" d="M31.7,33.27s-.12-.1.04-.08c-.11,0,.16.14-.04.08Z"/>
        <path class="cls-1" d="M31.59,32.83s.04,0,0-.03c.07,0,.16.06.17.08l-.18-.05Z"/>
        <polygon class="cls-1" points="36.62 34.12 36.53 34.09 36.67 34.05 36.62 34.12"/>
        <path class="cls-1" d="M38.18,38.71c.11.03-.11.09-.13.1-.03-.05.18-.04.13-.1Z"/>
        <polygon class="cls-1" points="39.71 40.95 39.7 40.93 39.99 40.84 39.71 40.95"/>
      </g>
      <g>
        <g>
          <path class="cls-1" d="M55.76,54.87c-.17.51.36-.14-.05.36-.07-.12-.11-.25.05-.36Z"/>
          <path class="cls-1" d="M38.47,53.67c-1.43-1.2-1.72-3.56-2.97-5.02-.12-.18.4-.13.09-.53-1.32-1.37-2.25-4.09-2.81-6.27l.16.07c-.11-.42-.68-.71-.83-1.13.07-.04.16.08.21-.06-.26,0-.45-.68-.69-.77,0-.2.18-.26.18-.51l-.35-.11c-.44-.18-.61-.56-.79-1.02-.04-.27-.27-.4-.49-.54-.23-.13-.47-.23-.73-.24.07-.04.18-.05.13-.14-.81-.13-1.73-.21-2.53.15-.4.17-.72.48-.98.82-.27.35-.51.72-.68,1.1-.05-.1-.17-.25-.31-.21.2.22.02.71-.07,1.14-.34.12.03.79-.16,1.26l-.06-.05c.26.39-.21.57.17.87l-.21.26c.42.12-.15.58.12.88l.08-.03c.16.27,0,.47.13.73l-.04.04c.28.61.19,1.06.49.94-.17.3-.31-.59-.55-.12.93,2.05,2.05,4.04,3.19,5.99.02.29.07.45,0,.56.17.16.49.69.74.78-.05-.06-.06.21-.01.32.12.41.53.2.65.65-.17-.1-.29-.1-.36.01.42.19.66.64.98.98-.08-.03-.17-.11-.24-.04.5.27.45.79.83,1.06l-.24-.03c.2.71.44-.04.66.54-.13-.09-.16,0-.24.01.59.28,1.01,1.1,1.42,1.51-.04-.01-.08.02-.08.02.38.48.66,1.07,1.17,1.54.07.25-.42.19.01.69.29-.23.76.81.88.26.28.51.64,1.25,1.01,1.55-.28-.15-.23.45-.53.09,0,.14,0,.26,0,.38-.16.03-.14-.28-.25-.1.11.13.6.56.65.72.13.08.32.16.45.26.08.23.08.6-.25,1.09.08-.35-.5-.02-.41-.24.03.36,0,.8.03,1.18-.11.19-.27-.12-.37.2.09.04.07.19.09.31-.03.02-.14.24-.24.39-.09.14-.2.29-.38.3-.17.06,0-.33-.19-.15-.03.39.02.41.11.77h-.05c-.02.14.07.31.2.38.11.08.22.06.27-.07-.05-.13-.18.13-.17-.1.13.04.25.12.34.22.11.09.24.22.34.35-.11-.05-.18.02-.29.05.51.2.98.43,1.5.64.1-.14-.34.14-.36.02.48.64,1.49.47,1.94,1.04-.11,0,.04-.25.03-.2.34.15.23.38.49.38-.03.15.3.07.56.1.16-.06.04.09-.18.04.38,0,1.78.19,2.54.55,0-.1.56-.25.74-.2l-.11.21c.14.17.63.08.63.28.22-.11-.17-.11-.55-.1-.38,0-.74,0-.45-.06.1.22.81-.21.64.07.38.05.78-.14,1.11.12-.1-.05-.35.27-.04.3.55.02.17-.09.62-.12l.28-.06c.04-.22.48.08.3-.19.05.19.79-.06.71.31l-.1.28c.24,0,.41-.28.6-.4.03.03.09.09.07.14.06-.44.56.05.84-.29.49.17,1.24.02,1.48.28.37-.15.71-.33,1.14-.26-.08.05-.2.07-.22.17.28.11.34-.01.58-.1-.05.07.56.21.88.34.36-.18.2-.4.22-.55.4.4,1.01-.42,1.49-.1-.12.08-.51.3-.18.36.42.38.63-.43,1.21-.34l-.21-.33c.29.17.74-.37.77,0,.15-.17.66-.03.51-.37.96.08,2.01-.78,2.74-.4.1-.1.42-.17.28-.31-.27-.1-.22.24-.34.15.1-.05.09-.15.08-.2.28-.02.49-.1.37.28.66-.06.33-.8,1.03-1.03.05.14.12.16.29.03.08-.14.13-.29.19-.43.39-.21.4.12.56.31.18-.18.41-.38.34-.59.14,0,.28,0,.42,0-.29,0,0-.22-.03-.32v.1c.12.03.18-.2.19-.31-.16-.02-.3.13-.4.18-.05-.12.03-.21-.06-.33.23.11.25-.18.26-.3.06-.15-.24-.13-.23-.16.05-.01.06-.05.06-.08,0-.04,0-.09.11-.06.01,0,.01.02.01.03,0,.04-.08.1.02.15.05-.07.19-.11.17-.19,0-.03-.03-.07-.1-.11-.19-.11-.41.25-.42-.1.11.07.2.04.3.04.01-.07-.04-.26-.07-.39l-.2.1c.02-.08.06-.05.07-.09-.26.01-.42-.54-.7-.48-.11-.12-.26-.65-.42-.91l.06.05c-.12-.39-.53-.79-.94-1.08h.07s-.08-.1-.14-.18c.13-.22.3-.51.33-.72.55-.46.99.07,1.06-.5.15-.21.18-.43.16-.61-.03-.16-.14-.24-.25-.22.53-.48.7-1.35,1.36-1.68-.02-.13-.1-.11-.02-.32.67-.8,1.02-1.94,1.85-2.37-.09.3.17.14.28.21-.03-.32.34-.13.1-.4-.18-.09-.25-.17-.48.03.26-.57.78-1.34,1.12-1.53-.17.09-.15-.05-.13-.2.24.21.53-.14.63-.49l-.14-.15.29-.08c.02-.15-.27-.34.08-.53.07.03.15.05.23.03.06-.39.1-.95.44-1.18l.41-.12c.06-.16.06-.48-.16-.28.49-.46.73-.81,1.04-.86.07-1.27.83-2.68,1.44-3.78l.12.1c.26-.24-.16-.27.03-.43.08.16.38-.1.43.21.34-.37.04-.67.08-.97-.16-.12.03.27-.18.12-.04-.07.35-.52.11-.68.15-.06.32.08.41.18l-.04-.3c.45-.22.3.93.82.74l.05-.27c.38-.16.06.81.41.18-.02-.33-.35-.72-.56-.49.12-.65-.56-.51-.35-1.13.22-.13-.11.52.15.47.32-.24.06-.64.21-.88-.19.26-.4-.06-.41-.25.2-.27.22.26.35-.16-.14-.11-.2-.51-.37-.21-.35-.21.18-.4-.09-.65.28-.11.56.5.75.06-.25.03-.31-.58-.71-.37.09-.15.29-.17.44-.04.17-.26-.47-.55.02-.66l-.27-.05c.08-.08.13-.19.25-.33-.02-.22-.51-.53-.12-.64-.06-.05-.22-.49-.41-.21-.06.31.32.23,0,.49.25-.28-.18-.35-.31-.44l.13-.09c-.1-.06-.17-.26-.34-.23.11.02.18-.07.18-.15l-.26.04c-.31-.25.31-.31.01-.59.12.04.22.09.33.14-.07-.03.04-.28-.16-.4-.22.07-.5.12-.67.19-.16-.03.13-.2-.09-.12.08-.03.17-.08.28-.09.07-.03.18-.33.02-.44-.15-.03-.37.25-.33.38-.04,0-.05-.17.04-.29-.16.03-.07.22-.19.32.02-.15-.14-.37-.36-.56.07-.14.14-.24.24-.37h-.18c.24-.29-.14-.22-.02-.52-.16-.03-.34.09-.47.2.49.38-.29.75-.02,1.15-.37.26-.84-.82-.74-.09.1.07.26.38.26.23-.13.02.26.35.1.27-.07-.07-.16-.14-.27-.18-.11-.05-.24-.08-.3-.27.11.1.14-.04.15-.08-.17-.06-.34-.4-.46-.14-.02.09-.05.18-.06.28-.02.13,0,.23.11.26.12.05.16-.05.19-.13.01-.04.02-.06.11.03-.15.5-.55.46-.25.85.13-.34.4-.31.55-.23l-.09.42-.12-.15c-.4.55.19.31-.14.88l-.43.13c-.19-.26.53-.8.06-.9-.2.37-.05.6-.34.91,0-.1.05-.21.05-.31-.08.13-.7,0-.64.7-.01.34.11.15.27.23-.25.64-.18.9-.35,1.3-.27-.23-.37.68-.47.1.28-.11.69-1.01.5-1.37-.47.05.29-.46-.02-.77-.25.49-.59.29-.87.26-.08.13-.05.31-.05.41.19.16.28-.02.51.08-.33.52-.46,1.11-.39,1.52-.2.13-.39-.03-.3-.26-.25.69-.62,1.37-.99,1.96.55-.23-.25.73.18.6.24-.29.64-.46.71-.19-.12.2-.15-.08-.27-.03.07.36-.51.26-.33.67.17-.65-.38-.33-.61-.58-.05.51-.19-.12-.4.31-.05.51-.19,1.09-.36,1.6-.56.47-.74,1.51-.99,2.05-.28.21-.5-.13-.71.14-.17.36.47-.1.07.36l-.04-.08c0,.2-.69.86-.31,1.24l-.27-.33c-.08.08-.04.21-.05.31-.11-.05-.27.01-.27-.18-.4.21-.29.7-.46,1.06l.31-.13c-.13.68-.53.99-.75,1.61l-.19-.11-.05.41c-.15-.18-.43.08-.36.34l-.05-1.14c.24-.19.11.39.38.33.24-.05.45-.62.3-.8-.12.2-.08.23-.09.42-.31-.07-.15-.38-.26-.62-.04.11-.2.23-.12.29-.03-.28.05-.51.22-.86,0,.29.24-.05.27.08-.23-.15-.14-.52.14-.93.44-.18.22-.91.55-1.39.15.33.22.69.17,1.05.28-.26.17-.36.45-.62-.11-.24-.34-.49-.25-.96l.19.07c.09-.42-.18-.56.11-1.01.49-.78.9-1.63,1.23-2.25l.19.06c-.22-.54.42-1.24.48-1.79.57-.72.67-1.83,1.19-2.09.27-.74.53-1.44.81-2.13.14-.35.29-.69.45-1.04.09-.18.17-.36.26-.54.12-.25.25-.49.39-.73.01.18.04.35.07.51,0-.23.06-.26.14-.27.07-.02.17,0,.3-.1-.51.05.2-.5.4-.78.87-.18,1.8-.69,2.79-.76v.2c.47-.13,1.03.03,1.45.38.46.33.72.83.96,1.17,0,.13-.05.37.11.58.54.23.67.47,1.16,1.1.23.52.36,1.46.25,2.02.32,1.02.19,2.1-.04,3.05-.12.48-.26.94-.38,1.37-.14.45-.29.98-.42,1.45l-.28.03c-.31,1.96-1.86,3.68-2.43,5.14l-.27-.34c-.36.35-.49.99-.18,1.04-.36.35-.47,1.14-.93,1.21-.33.38-.17.61-.35.99-.68.74-.84,1.07-1.3,1.89l.15-.18c-.02-.13-.16-.24-.31-.06-.1.35-.81,1-.21.98-.79.66-1.13,2.04-1.99,2.62.16,0,.04.22.05.36-.25.36-.56.69-.84,1.01l-.2.24-.09.12-.03.04s-.03.09,0,.14c-.09.01-.19-.13-.26-.04.02.06.18.05.22.11.01.03.01.06.01.08.06.04.08.08.09.14.02.07-.04.04.16.42.28.6.56,1.06.92,2.06.01.06.04.11.04.16.31.92.09,1.97-.46,2.82-.56.82-1.1,1.24-1.69,1.65-1.15.78-2.32,1.24-3.42,1.65v-.1c-.64.62-1.85.18-2.31.86-.2-.05-.69.11-.6-.1-.55.4-1.71.1-2.53.55.08,0,.12-.03.21-.08-.9-.09-1.65.3-2.6.16.09-.05.26-.09.28-.19-.37-.15-.83.47-1.05,0-.2.01-.14.24,0,.22-2.05-.09-4.23.09-6.39-.14-1.47-.53.05-.78-1.2-.67-.08-.11-.11.16-.1.06-.49.04-.59-.67-.96-.51.06.31-.25.1-.3.27-.87-.42-.95-.75-1.73-.77l.1-.12c-.98.09-1.83-.5-2.77-.5-.69-.37-1.38-.86-2.03-1.54-.16-.19-.32-.39-.48-.6-.15-.23-.28-.52-.41-.79-.14-.27-.18-.57-.23-.87-.02-.15-.06-.3-.05-.45l.05-.45c.04-.3.05-.6.17-.89.1-.28.25-.59.34-.75.2-.37.39-.68.58-.99l.26-.4.02-.06.02-.09s-.08-.06-.12-.08h-.01s0,0-.05-.06l-.21-.27-.41-.54c-.55-.73-1.09-1.46-1.61-2.2-1.22-1.85-2.46-3.66-3.65-5.53-1.18-1.88-2.34-3.79-3.24-6.04-.06-.59-.08-.92-.17-1.25-.05-.16-.11-.32-.2-.51-.08-.17-.18-.38-.3-.64.08.03.11.09.15,0-.33.05-.28-.82-.61-.86-.22-.91-.38-1.9-.37-2.94,0-1.04.23-2.15.73-3.17-.13.34.07.61.2.22v-.48s.13-.02.13-.02c.08-.28.13-.61-.13-.42.18-.3.35-.62.56-.89.21-.28.37-.52.77-.89.69-.67,1.73-1.13,2.68-1.2.96-.08,1.78.11,2.48.37.37.15.61.24,1.12.54.22.13.44.27.65.41l.31.22c.08.09.13.22.19.32.12.22.23.45.33.69l.19.45.3.73.61,1.45c.42.96.85,1.91,1.32,2.84.31.95,1.04,2.16,1.57,3.1,1,3.06,1.94,5.79,3.63,8.57,0,0-.95,0-1.71-1.12Z"/>
          <path class="cls-1" d="M56.01,54.28c.2-.03.44-.32.51.04-.15-.03-.39.06-.51-.04Z"/>
          <path class="cls-1" d="M61.86,46.13s.12-.1.16-.11c-.04.11.03.28-.09.33.04-.12-.03-.13-.07-.21Z"/>
          <path class="cls-1" d="M63.05,43.9c.12.1-.02.64-.14.93l.14-.93Z"/>
          <path class="cls-1" d="M64.62,42.04c.2-.13.24-.05.11.2-.08-.02-.07-.11-.11-.2Z"/>
          <path class="cls-1" d="M64.39,41.74c.08-.18.2-.23.32-.28-.12-.05-.13.44-.32.28Z"/>
          <path class="cls-1" d="M66.62,39.25c.06-.03.19-.17.25-.02-.07-.11-.25.23-.25.02Z"/>
          <path class="cls-1" d="M67.49,39.11s0,.04.06.03c0,.1-.11.12-.15.13l.09-.16Z"/>
          <polygon class="cls-1" points="52.56 70.12 52.79 70 52.78 70.15 52.56 70.12"/>
          <path class="cls-1" d="M35.34,67.5c-.22-.07,0-.19,0-.22.12.11-.19.08,0,.22Z"/>
          <polygon class="cls-1" points="33.75 59.46 33.79 59.52 33.53 59.67 33.75 59.46"/>
        </g>
        <g>
          <path class="cls-1" d="M64.03,37.86c.02.14.26.04.08.11-.1-.06-.18-.11-.08-.11Z"/>
          <path class="cls-1" d="M51.47,52.23c-.58-.66.33-.95.02-1.56-.01-.06.39.15.34,0-.41-.63.16-1.2.77-1.59l.1.07c.12-.07-.21-.32-.12-.41.07.02.09.07.2.08-.21-.1-.04-.23-.19-.33.1-.01.28.05.39.03l-.23-.15c-.55-.38.18-.4-.05-.74.06.03.09.07.16.07-.24-.5-.01-.95,0-1.41.08.05.24.12.35.13-.26-.11-.29-.26-.3-.39.29.04-.19-.28.01-.36l.06.03c-.26-.2.22-.09-.1-.28h.24c-.37-.16.25-.06.08-.21l-.08-.02c-.07-.11.14-.08.1-.17h.05c-.05-.19.2-.21-.1-.31.26.02.06.2.44.23-.13-.65.12-1.19.3-1.74.14-.02.19-.05.31-.02-.04-.08.01-.22-.12-.33,0,.02.17.02.19,0,.15-.06-.3-.22-.12-.28.07.07.16.12.28.14-.2-.17-.13-.29-.16-.42.05.03.07.07.16.1-.23-.21.13-.2,0-.36l.16.1c.27-.1-.35-.17-.17-.28.04.05.12.06.19.1-.27-.24-.09-.43-.15-.6.02.02.07.03.07.03.01-.16.16-.28.08-.5.1-.03.42.16.41-.01-.35-.11-.05-.32-.48-.36.1-.11.31-.28.22-.41.11.11.45.08.44.2h.24c.14.05-.08.06.11.09,0-.06-.08-.27,0-.3-.18-.18-.55-.41-.54-.59.11.13.4.09.44.16l-.59-.46c0-.06.28.08.22-.03-.09-.03-.14-.08-.21-.13.05,0,0-.26.35-.17.14.02.04.12.19.1.03-.1-.08-.15-.06-.25h.05c.07-.04-.08-.24-.3-.23-.03.04.21.05.09.09-.18-.12-.2-.26-.17-.36.04.05.14.08.23.13-.23-.23-.26-.41-.32-.6-.16-.06.28.16.18.15.3-.12-.18-.52.21-.57.02.04-.24-.06-.19-.05.05-.09.29,0,.22-.1.14.04-.02-.09-.04-.17-.09-.07.07,0,.07.07-.09-.13-.18-.56.09-.7-.09-.03-.3-.24-.27-.29l.21.09c.14,0,.04-.17.22-.11-.23-.19.09.47-.07.26.19.03-.28-.31,0-.18.02-.1-.19-.27.05-.3-.04.01.27.18.28.1,0-.15-.09-.07-.13-.21l-.07-.1c-.21-.08.07-.11-.18-.14.18.04-.04-.23.31-.1l.27.11c0-.07-.26-.19-.36-.28.03,0,.09,0,.13.02-.42-.15.08-.13-.22-.31.19-.07.12-.31.4-.28-.1-.14-.22-.28-.09-.35.03.03.03.07.12.11.15-.03.04-.08,0-.17.06.04.29-.05.47-.08-.09-.14-.33-.18-.47-.24.45.06-.18-.36.24-.34.05.05.16.21.29.16.44.05-.25-.28,0-.35l-.36-.08c.23.01-.13-.27.22-.14-.11-.09.17-.12-.17-.22.36-.13.02-.61.67-.55-.05-.04.05-.14-.13-.18-.22.02.1.15-.03.12,0-.03-.09-.07-.14-.09.11-.08.16-.15.41.05.27-.12-.48-.47-.18-.7.12.09.18.09.2.01l-.14-.25c.14-.1.33.11.54.24,0-.09.07-.16-.06-.3l.31.1c-.22-.07-.09-.14-.11-.21l.03.07c.09.05.1-.06.1-.12-.13-.08-.24-.05-.31-.03-.06-.1,0-.14-.07-.26.18.16.22,0,.28-.04.09-.03-.12-.2-.1-.22.1.08.1-.08.2.08.02.05-.14-.03-.07.07.1.02.27.16.21-.02-.04-.14-.38-.29-.17-.31.02.07.09.14.14.22l.19-.02-.16-.15c.05.02.06.05.09.06-.15-.19.08-.21-.08-.41.04-.07.22,0,.29-.04v.02c.16.03.17-.11.12-.27l.03.04s.11-.12.06-.26c.2.05.58.61.5.31.08-.08-.12-.44-.25-.51.26-.02.28-.47.64-.3-.02-.09-.07-.13-.04-.21.34-.09.57-.61,1.02-.29-.07.12.07.21.11.33.01-.22.15.17.08-.17-.07-.19-.09-.29-.21-.33.17-.19.54-.27.7-.09-.08-.08-.04-.15,0-.22.04.32.2.34.32.21v-.2s.1.19.1.19c.04-.06.04-.41.18-.22,0,.08.02.15.04.21.13-.16.36-.42.5-.24l.08.29c.06-.02.19-.16.1-.27.22.22.36.29.37.54.28-.25.59-.3.85-.25.27.05.55.17.7.33l-.09.12c.02.18.19-.18.21-.04-.11.09-.1.3-.27.39.04.22.32-.09.45-.07.13-.14-.15.05.02-.14.06-.04.1.26.31.05-.04.12-.2.26-.29.34l.17-.05c-.12.33-.6.31-.76.72h.09c-.13.29-.38.16-.29.35.15-.07.49-.34.51-.49.2.07.52-.46.68-.28-.07.17-.17-.11-.29.11-.08.25.24.06.26.19,0-.16.27-.3.37-.28-.01.18-.25.13-.15.28.14-.1.35-.06.34-.24.33-.2.06.21.35.1-.17.21-.59.26-.58.49.18-.19.41-.03.66-.34-.01.11-.17.24-.33.29-.07.18.54-.05.14.27l.24-.12c-.05.08-.08.15-.17.28.05.08.48.08.12.27.05,0,.13.21.34,0,.09-.21-.25-.04.04-.3-.22.24.12.16.25.19l-.13.08c.07.02.09.13.26.09-.1,0-.18.07-.2.12l.23-.05c.19.14-.36.21-.21.35l-.23-.06s-.13.15-.02.2c.21-.05.48-.08.64-.11.12.07-.21.13.03.15l-.28-.04c-.07,0-.3.21-.26.33.09.05.43.09.5-.08.02.07-.07.2-.24.19.12.13.21-.09.38,0-.12.09-.26.31-.45.45l-.38-.04s.02.05.02.08c-.3-.03-.2.1-.51.12-.04.06.08.1.16.13.44-.26.68.04,1.11-.08.16.23-1.03.32-.31.46.11-.06.46.02.31-.12-.02.16.46.05.29.25-.19-.11-.43.18-.71.03.15,0,.1-.11.05-.13-.16.08-.44.05-.43.18.05.08.07.19.29.15.25-.03-.04-.13.22-.1.1.17-.28.23.17.27-.04-.11.21-.16.39-.17l.12.13-.17-.02c-.1.23.31.05.28.27l-.33.11c-.28-.04.11-.31-.35-.25-.01.13.24.17.11.3-.04-.03-.05-.06-.09-.09-.01.05-.63.1-.27.28.14.09.17.02.34.03.05.21.23.28.25.41-.34-.04-.05.23-.38.07.2-.05.19-.36-.14-.44-.4.07.06-.16-.35-.2-.01.16-.41.15-.67.17-.02.04.09.08.13.1.24.02.24-.03.49-.03-.07.17.07.34.3.45-.13.05-.37.02-.39-.05.06.21,0,.42-.09.6.41-.08.06.22.4.18.11-.09.4-.15.57-.07-.03.07-.17-.02-.26,0,.2.11-.37.09-.04.21-.1-.21-.48-.1-.78-.18.16.15-.22-.03-.24.09.15.15.27.33.31.49-.33.12-.09.45-.12.61-.17.05-.51-.09-.59-.02-.02.1.39.01.2.13l-.06-.03c.07.07-.3.21.18.39l-.36-.15s.04.07.07.1c-.12-.03-.24-.03-.3-.1-.28.02-.01.2-.03.3h.24c.12.22-.13.27-.11.46l-.21-.08.09.14c-.2-.09-.36-.05-.2.06l-.43-.42c.15-.03.23.16.45.18.19.02.18-.15-.01-.23-.04.05,0,.07.07.13-.3-.08-.26-.16-.44-.26,0,.03-.1.04,0,.08-.13-.1-.13-.16-.11-.26.1.1.19.02.27.07-.26-.09-.31-.2-.21-.29.33,0-.13-.27-.02-.38.25.12.45.25.54.36.16-.05.02-.1.17-.15-.19-.09-.49-.2-.58-.34l.2.04c-.08-.12-.37-.19-.29-.3.14-.2.19-.42.23-.58l.2.02c-.42-.16-.11-.33-.29-.48.21-.19-.15-.46.2-.55-.14-.38-.31-.67-.27-1.04l.3.03c-.22-.04.17-.07.11-.13-.22.1-.32-.05-.51-.06.19-.19-.07-.36-.32-.42l.19-.06c-.41-.02-.12-.26-.13-.44.07-.05.23-.15.19-.19-.34.05-.34,0-.57-.01-.03-.09-.05-.23,0-.38-.28-.01-.4-.1-.53-.19-.06-.05-.12-.1-.18-.15-.08-.03-.17-.06-.28-.05l.12-.21c-.29.1-.42.02-.55-.05-.12-.1-.24-.18-.37-.07l.12-.39c-.05-.14-.19.06-.21.35-.05-.14-.15.2-.17-.14-.07-.08-.07.18-.11.23-.12-.12-.18-.1-.26,0h.03c-.01-.08-.05-.25-.09-.26-.02.13-.22-.04,0,.4-.23-.23-.17.33-.49.07.08.1.06.15.1.23-.1.08-.4-.04-.35.22-.06-.03-.12-.2-.18-.17,0,.06.11.13.13.22-.01.34-.56.2-.69.45-.04.26-.16.47-.28.66-.11.19-.05.02-.17.41l-.09-.04c.29.3-.5.29-.02.61-.1.01-.1.14-.26.05.2.22-.37.31-.12.62.02-.02,0-.03-.03-.07-.27.14-.05.41-.31.56-.03-.04-.05-.09-.14-.12-.21.02.32.33-.14.22-.01.05.21.11.21.08-.33.41-.22,1.02-.29,1.54-.39.26-.76-.23-.52.16-.09,0,.17.07.07.05.09.15-.55,0-.35.15.28.06.14.1.3.16-.25.16-.51.11-.36.36l-.14-.06c.34.34.04.49.46.82-.29,1.13-.39,2.27-.7,3.36-.45,1.03-.59,2.14-1.2,3.13-.46.12-.46.15-.4.48-.06-.03-.07-.05-.13-.06.31.12-.04.2.25.33-.19.38-.23.77-.37,1.18-.01-.08-.25-.19-.26-.11l.17.15-.09-.02c.03.07.16.18.28.16-.08,1.12-1.05,1.92-1.31,2.95-.21.2-.21.58-.23.86-.68.63-1.25,1.21-1.22,2.09,0,0-.77-.37-.84-.76Z"/>
          <path class="cls-1" d="M64.05,37.71c.16.03.28-.03.46.12-.15-.04-.33-.06-.46-.12Z"/>
          <path class="cls-1" d="M66.3,35.62s.07-.03.1-.04c0,.04.14.09.05.1,0-.04-.08-.04-.15-.07Z"/>
          <path class="cls-1" d="M66.48,34.91c.15.02.25.19.26.29l-.26-.29Z"/>
          <path class="cls-1" d="M67.1,34.22c.12-.06.19-.05.19.04-.08,0-.12-.02-.19-.04Z"/>
          <path class="cls-1" d="M66.77,34.17c0-.06.08-.09.17-.12-.12,0,.08.14-.17.12Z"/>
          <path class="cls-1" d="M67.03,32.49s-.15-.1,0-.18c-.1.07.22.16,0,.18Z"/>
          <path class="cls-1" d="M66.6,31.76s.02-.05-.02-.06c.05-.07.16-.06.19-.02l-.17.08Z"/>
          <polygon class="cls-1" points="56.3 33.42 56.25 33.33 56.39 33.39 56.3 33.42"/>
          <path class="cls-1" d="M54.75,38.01c.07.09-.14,0-.17,0,0-.06.16.08.17,0Z"/>
          <polygon class="cls-1" points="54.6 40.72 54.6 40.7 54.88 40.8 54.6 40.72"/>
        </g>
      </g>
      <g>
        <path class="cls-1" d="M57.17,32.32c.07.09.25-.06.12.06-.12-.01-.21-.03-.12-.06Z"/>
        <path class="cls-1" d="M37.55,32c-.76-.37.03-.82-.39-1.26-.03-.05.41.07.33-.05-.54-.47-.05-1.06.52-1.34l.1.06c.11-.05-.23-.27-.15-.35.07.02.1.06.2.08-.22-.1-.05-.19-.21-.29.1,0,.27.07.38.06l-.23-.14c-.53-.37.19-.31-.03-.63.05.04.09.07.15.09-.24-.48.07-.8.14-1.21.07.07.21.17.31.21-.23-.17-.23-.31-.21-.43.27.13-.11-.29.1-.3l.05.05c-.18-.26.22,0-.02-.28l.21.1c-.29-.29.25.03.13-.16l-.07-.05c-.03-.12.15-.01.14-.11l.04.03c.01-.2.25-.09.02-.31.22.14-.02.18.31.38.13-.54.52-.92.95-1.17.12.07.17.08.25.18,0-.08.12-.15.06-.31-.01.01.12.12.15.12.14.05-.11-.35.05-.29.01.09.06.19.13.28-.06-.26.05-.29.09-.41.01.06.01.1.06.18-.05-.3.2-.03.2-.23l.06.18c.24.13-.14-.36.04-.3,0,.07.04.12.07.19-.04-.35.19-.34.25-.5,0,.03.03.07.03.07.11-.1.28-.06.35-.26.08.05.16.43.26.3-.14-.35.17-.21-.05-.58.14.02.37.09.41-.05,0,.15.2.41.12.47l.14.19c.04.15-.09-.03,0,.15.04-.03.13-.21.19-.17.02-.24-.02-.68.11-.77-.03.16.15.38.12.46l.02-.75s.08.28.13.16c-.03-.09-.01-.16,0-.25.03.03.19-.14.3.21.05.14-.06.09.02.21.09-.02.07-.14.16-.16v.05c.08.04.16-.18.05-.37-.05,0,.06.21-.02.12,0-.22.1-.29.2-.31-.02.06,0,.16,0,.26.07-.3.19-.42.32-.56-.03-.17,0,.32-.04.23.22.21.33-.4.54-.08-.02.04-.05-.24-.04-.19.09,0,.12.26.17.15.02.15.07-.06.12-.11.02-.11.02.07-.03.09.07-.15.38-.38.6-.18-.01-.1.09-.36.14-.36v.23c.05.13.15-.03.17.17.08-.28-.35.26-.24.03.05.19.15-.37.15-.06.09-.01.16-.27.26-.07-.03-.04-.05.32.02.3.12-.05.03-.11.13-.19l.06-.1c0-.22.12.02.06-.22.02.18.18-.12.18.25v.29s.07-.31.11-.44c0,.03.02.08.02.13,0-.45.13.03.19-.32.12.15.3,0,.35.28.08-.13.16-.3.26-.2-.02.04-.05.05-.05.15.06.13.08.01.13-.06-.01.07.12.26.19.42.09-.13.06-.37.07-.52.08.44.26-.27.36.14-.03.06-.14.21-.07.32.07.44.17-.31.3-.1v-.37c.03.23.19-.2.16.17.05-.13.15.13.16-.23.19.31.56-.15.62.49.04-.06.11,0,.11-.17-.03-.2-.09.14-.09,0,.03,0,.05-.11.06-.15.06.09.11.11,0,.4.12.23.23-.57.41-.4-.03.14-.02.2.04.19l.15-.23c.12.08.02.34-.02.59.07-.03.15,0,.21-.18l.02.32c-.01-.23.08-.14.12-.19l-.04.05c0,.11.08.06.12.03.02-.15-.04-.23-.08-.28.06-.1.1-.07.17-.18-.06.24.07.19.12.23.05.06.12-.2.13-.19-.03.12.09.04,0,.2-.03.04-.02-.13-.08-.03.02.1-.04.31.08.17.09-.11.1-.47.18-.3-.05.05-.07.15-.12.23l.08.14.06-.21c0,.06-.01.07-.01.1.09-.22.19-.04.28-.28.06,0,.08.19.12.23l-.02.02c.03.15.14.09.23-.03l-.02.05s.12.02.21-.09c.04.19-.24.81-.05.58.09.02.27-.34.28-.48.11.2.43-.08.45.3.06-.07.06-.13.13-.16.2.16.61,0,.6.48-.11.05-.1.2-.16.31.14-.15-.03.22.14-.08.09-.18.14-.26.11-.37.19-.02.4.09.38.29,0-.1.07-.14.13-.17-.17.27-.1.37.04.31l.11-.16-.06.2c.06-.04.25-.33.22-.12-.04.07-.07.13-.09.19.16-.08.41-.23.4-.04l-.1.28c.05,0,.21-.1.2-.21.04.24.11.32,0,.55.29-.16.54-.17.74-.12.19.07.32.21.43.35l-.11.1c-.03.16.21-.15.19-.03-.12.08-.16.27-.33.34-.02.2.3-.07.4-.05.15-.12-.14.04.05-.12.06-.04.02.23.25.05-.06.1-.23.23-.33.3l.16-.04c-.18.3-.59.27-.83.62h.08c-.18.26-.37.13-.33.32.15-.05.51-.29.56-.43.17.06.57-.42.66-.27-.1.15-.12-.08-.28.11-.12.21.2.04.19.15.03-.13.3-.27.37-.26-.05.16-.25.13-.19.25.14-.09.31-.08.34-.23.32-.2,0,.17.28.05-.18.2-.57.28-.59.47.19-.18.38-.08.64-.37-.02.09-.18.22-.33.28-.08.16.5-.13.1.2l.23-.13c-.05.07-.08.14-.18.25.04.06.43-.03.1.19.05,0,.11.14.31-.07.09-.18-.22.02.05-.24-.21.23.11.1.23.09l-.12.09c.07,0,.08.08.23.01-.09.03-.17.09-.19.14l.22-.1c.17.06-.33.25-.2.33h-.21s-.12.16-.02.18c.2-.08.44-.18.59-.25.12.02-.19.15.04.11l-.27.05c-.07.02-.27.24-.21.32.1.02.42-.05.47-.19.03.04-.05.17-.2.21.12.06.19-.13.36-.1-.1.1-.22.31-.37.47l-.36.08.03.06c-.29.06-.18.14-.46.24-.02.06.09.06.18.06.38-.34.65-.17,1.03-.4.19.12-.92.57-.21.44.09-.08.44-.13.27-.19,0,.13.44-.11.33.09-.21-.02-.36.28-.67.26.14-.05.07-.12.02-.12-.13.11-.41.18-.36.28.07.04.11.12.32.02.23-.1-.07-.09.18-.15.14.09-.2.26.23.14-.07-.07.16-.19.32-.26l.14.06-.16.05c-.05.21.3-.07.32.11l-.28.2c-.28.07.03-.27-.39-.07.02.1.25.05.17.19-.04,0-.07-.03-.11-.04,0,.04-.56.3-.18.3.16.02.16-.04.33-.1.11.14.29.13.36.23-.33.09.03.19-.34.19.17-.11.07-.34-.26-.28-.36.19,0-.14-.39-.03.04.12-.34.26-.58.36,0,.04.11.03.15.04.24-.07.22-.11.45-.2-.01.16.16.24.42.24-.1.08-.34.14-.38.1.13.14.14.32.11.5.36-.21.14.15.44,0,.06-.11.31-.26.5-.26,0,.06-.17.05-.24.09.23.01-.31.2.04.18-.17-.12-.48.1-.79.15.2.06-.22.05-.19.16.2.06.37.16.46.26-.26.21.07.38.11.52-.14.1-.5.11-.55.2.02.09.37-.13.23.03h-.07c.09.03-.2.27.31.24l-.39.02s.06.04.1.05c-.12.02-.23.06-.32.04-.25.11.07.16.09.24l.22-.08c.19.13-.02.26.07.39h-.22s.14.09.14.09c-.22,0-.35.08-.17.12l-.56-.17c.12-.07.27.04.49-.02.19-.05.11-.18-.1-.17-.02.05.03.05.11.08-.31.05-.3-.03-.51-.04.01.02-.08.07.02.06-.16-.03-.18-.08-.2-.16.12.04.19-.05.28-.04-.27.03-.36-.04-.3-.15.3-.12-.23-.16-.16-.28.28,0,.51.03.63.08.13-.1-.02-.08.11-.18-.21,0-.52.02-.66-.05l.2-.04c-.12-.07-.42-.01-.38-.13.06-.2.03-.39.01-.53l.19-.05c-.44.03-.23-.22-.44-.27.14-.23-.29-.31,0-.51-.26-.25-.48-.45-.56-.76l.29-.07c-.22.04.14-.1.07-.14-.19.16-.31.05-.49.1.14-.23-.15-.29-.4-.3l.18-.1c-.4.08-.18-.21-.21-.38.06-.06.21-.18.17-.21-.32.1-.33.05-.56.06-.04-.08-.07-.23-.02-.38-.57.02-.53-.44-.99-.47l.15-.18c-.3.07-.43-.04-.53-.18-.12-.12-.23-.25-.41-.23l.27-.31c0-.15-.23-.03-.37.22,0-.15-.28.04-.14-.27-.03-.12-.18.09-.28.11-.07-.21-.15-.21-.33-.22l.02.04c.06-.07.14-.22.12-.26-.11.07-.15-.2-.32.26-.04-.33-.43,0-.46-.38-.04.13-.09.14-.14.22-.14-.04-.21-.35-.4-.18,0-.07.11-.2.05-.24-.05.04-.06.16-.12.22-.3.15-.4-.42-.66-.38-.47.19-.85-.08-1.27-.04v-.1c-.16.36-.28-.4-.43.15-.03-.1-.12-.05-.09-.24-.12.26-.3-.27-.47.06.01.01.02,0,.04-.05-.16-.23-.3.06-.5-.13.02-.04.05-.07.06-.17-.07-.19-.18.41-.22-.06-.04,0-.03.24,0,.22-.41-.18-.81.16-1.2.28-.31-.27-.07-.79-.28-.43-.03-.09,0,.18-.01.08-.08.14-.19-.52-.23-.27.05.29-.03.16-.01.34-.19-.18-.26-.44-.37-.19v-.15c-.12.45-.33.26-.39.77-.85.21-1.53.7-2.19,1.03-.72.23-1.19.74-1.85,1.03-.4-.18-.41-.15-.43.09-.04-.05-.04-.07-.1-.1.23.23-.07.12.15.34-.2.17-.3.4-.45.63,0-.06-.22-.23-.23-.17l.15.16-.08-.04c.02.06.14.18.25.2-.11.66-.95,1.03-1.08,1.77-.17.14-.11.4-.07.6-.26.24-.49.49-.61.76-.13.26-.14.6.03.78,0,0-.21.01-.45,0-.24-.03-.5-.11-.6-.24Z"/>
        <path class="cls-1" d="M57.13,32.2c.16-.03.25-.11.47-.06-.15.02-.32.06-.47.06Z"/>
        <path class="cls-1" d="M58.43,29.79s.06-.05.08-.06c.02.02.16.02.08.06-.02-.03-.09,0-.16,0Z"/>
        <path class="cls-1" d="M58.36,29.18c.14-.04.29.06.33.13l-.33-.13Z"/>
        <path class="cls-1" d="M58.74,28.44c.1-.09.17-.1.19-.03-.07.03-.12.02-.19.03Z"/>
        <path class="cls-1" d="M58.41,28.52s.05-.1.12-.15c-.12.05.11.08-.12.15Z"/>
        <path class="cls-1" d="M58.29,27.17s-.16-.03-.03-.13c-.09.08.23.06.03.13Z"/>
        <path class="cls-1" d="M57.8,26.74s.02-.04-.03-.04c.04-.06.15-.09.18-.07l-.15.11Z"/>
        <polygon class="cls-1" points="48.58 22.2 48.65 22.14 48.63 22.28 48.58 22.2"/>
        <path class="cls-1" d="M44.27,22.48c-.04.1-.07-.13-.08-.15.05-.02.01.18.08.15Z"/>
        <polygon class="cls-1" points="42.21 23.79 42.23 23.78 42.33 24.06 42.21 23.79"/>
      </g>
    </g>
    <g>
      <path class="cls-1" d="M38.94,62.69c-.06.05.03.19-.04.09,0-.09.02-.16.04-.09Z"/>
      <path class="cls-1" d="M55.27,62.81c-.2.57-.45,0-.67.36-.03.02,0-.31-.05-.24-.21.44-.54.18-.79-.16l.02-.09c-.05-.06-.11.23-.16.19,0-.06.02-.08,0-.16-.01.18-.09.08-.11.21-.02-.07-.02-.21-.04-.29l-.03.2c-.08.48-.2-.03-.31.21,0-.05.02-.08,0-.13-.18.29-.4.24-.6.34,0-.07.02-.2,0-.28,0,.21-.07.27-.12.31-.02-.22-.09.2-.15.08v-.05c-.04.23-.06-.13-.1.14l-.03-.17c-.02.31-.07-.16-.11,0v.06c-.03.08-.05-.08-.09-.03v-.04c-.08.08-.13-.09-.13.15-.03-.19.08-.09.03-.37-.26.25-.52.2-.78.2-.03-.1-.05-.13-.05-.22-.03.05-.1.04-.12.17,0,0-.02-.12-.03-.13-.05-.09-.05.26-.1.16.02-.06.03-.14.02-.23-.04.19-.1.16-.16.22,0-.04.02-.06.02-.14-.06.21-.1-.05-.15.09l.02-.14c-.08-.17-.02.29-.09.19.02-.04.01-.1.01-.15-.07.25-.17.17-.24.25,0-.02,0-.06,0-.06-.07.03-.14-.05-.22.06-.03-.06,0-.34-.07-.29,0,.28-.13.11-.08.43-.06-.05-.16-.15-.21-.06.03-.11-.03-.34.02-.36l-.04-.17c0-.11.04.04.03-.1-.03.01-.1.12-.13.08-.05.17-.09.49-.17.52.04-.11-.02-.31,0-.35l-.11.53s0-.22-.04-.15c0,.07-.01.12-.03.18,0-.03-.11.07-.12-.2-.01-.11.04-.06.01-.16-.05,0-.05.1-.1.1v-.04s-.1.12-.06.27c.02,0,0-.16.02-.09-.02.16-.08.2-.13.21.02-.04.01-.12.02-.19-.07.22-.14.28-.21.37,0,.13.03-.24.04-.17-.09-.18-.19.26-.27,0,.01-.02,0,.18,0,.15-.05-.02-.04-.21-.07-.14,0-.11-.04.04-.07.07-.02.08,0-.05.02-.07-.04.09-.21.26-.31.1,0,.07-.06.27-.08.26v-.17c-.01-.1-.07.02-.07-.13-.05.21.19-.18.12-.02-.02-.14-.09.27-.08.04-.05,0-.09.2-.13.04.01.03.04-.24,0-.23-.06.03-.02.08-.07.14l-.03.07c0,.17-.06-.02-.03.16,0-.14-.09.08-.09-.19v-.22s-.04.23-.06.33c0-.02-.01-.06,0-.1,0,.33-.07-.03-.1.23-.06-.12-.15-.01-.18-.22-.04.1-.09.22-.14.15.01-.03.02-.04.03-.11-.03-.1-.04-.01-.07.04,0-.05-.06-.19-.1-.31-.04.1-.03.28-.03.39-.04-.33-.13.21-.18-.09.02-.05.07-.16.03-.24-.04-.33-.08.24-.15.08l.02.27c-.03-.17-.1.16-.09-.12-.02.1-.08-.09-.07.18-.11-.23-.26.14-.33-.34-.02.04-.05,0-.05.14.03.15.04-.11.05,0-.01,0-.02.08-.02.12-.03-.06-.06-.08-.03-.3-.07-.17-.08.45-.17.35,0-.11,0-.15-.03-.13l-.05.19c-.06-.04-.03-.25-.04-.44-.03.03-.07.02-.09.16l-.04-.23c.03.17-.03.11-.04.16l.02-.05c0-.08-.04-.03-.06,0,0,.12.04.16.06.2-.02.08-.04.06-.07.16,0-.18-.05-.13-.08-.15-.03-.04-.03.16-.04.16,0-.1-.05-.02-.03-.15.01-.03.02.09.04,0-.02-.07-.02-.24-.06-.12-.03.09,0,.36-.05.25.02-.05.02-.12.03-.18l-.05-.1v.17s0-.06,0-.08c-.02.18-.08.05-.1.25-.03.02-.06-.12-.08-.13h0c-.03-.11-.08-.05-.1.06v-.04s-.06.01-.08.11c-.04-.13-.02-.63-.06-.42-.05,0-.07.31-.05.41-.08-.11-.17.16-.25-.1-.01.07,0,.11-.03.15-.12-.07-.25.2-.35-.13.03-.07,0-.17,0-.26-.03.15-.03-.16-.04.1,0,.15,0,.22.03.29-.07.08-.18.08-.22-.06.02.07,0,.12-.01.16,0-.24-.05-.28-.09-.19v.15s-.03-.15-.03-.15c-.02.05-.02.31-.06.17,0-.06,0-.11-.01-.16-.04.12-.1.32-.14.2l-.04-.21s-.05.15-.02.21c-.08-.13-.13-.15-.15-.33-.13.45-.32.47-.47.44v-.11c-.04-.1-.02.19-.05.12.01-.1-.03-.23,0-.36-.06-.12-.08.19-.11.24,0,.14.03-.09.02.09,0,.05-.08-.11-.09.11-.01-.09,0-.25,0-.33l-.04.11c-.04-.25.1-.46.05-.77l-.03.03c-.03-.23.09-.26,0-.34-.04.11-.07.42-.03.52-.07.06-.03.52-.11.5-.02-.13.06-.03.05-.21-.04-.18-.08.1-.11.04.04.08,0,.3-.02.34-.04-.1.03-.21-.03-.23,0,.13-.06.22-.02.31-.02.29-.06-.08-.09.14-.02-.2.06-.46,0-.56.01.19-.08.26-.04.55-.02-.06-.03-.21,0-.33-.04-.12-.09.35-.1-.03v.2c-.02-.06-.04-.11-.06-.22-.03,0-.1.27-.1-.03-.01.03-.08.02-.05.22.04.13.05-.15.08.13-.03-.23-.06.03-.09.11v-.12s-.05.02-.06.14c.01-.07,0-.14,0-.17l-.02.18c-.06.09-.01-.31-.08-.26l.05-.14s-.03-.13-.06-.08c-.01.16-.03.35-.04.48-.03.07-.02-.18-.05-.02l.04-.19c0-.05-.03-.27-.08-.26-.03.06-.07.29-.03.38-.02,0-.05-.1-.04-.21-.05.06,0,.17-.04.27-.02-.11-.08-.26-.11-.41l.05-.27h-.03c.04-.22-.02-.17,0-.39-.02-.04-.05.04-.07.1.06.36-.07.5-.05.83-.09.09-.05-.81-.14-.29.01.09-.03.34.03.24-.05-.04-.04.33-.1.2.05-.14-.05-.34.02-.53,0,.11.04.08.05.05-.02-.13,0-.33-.05-.33-.03.03-.08.04-.07.21,0,.19.05-.02.03.17-.07.07-.08-.22-.1.11.04-.03.05.17.05.3l-.05.08v-.13c-.07-.09-.01.23-.09.2l-.04-.25c.02-.21.11.1.1-.25-.05-.01-.07.16-.11.07.01-.03.02-.04.03-.07-.02-.01-.03-.47-.1-.2-.04.11,0,.12-.01.25-.08.04-.1.17-.15.19.01-.26-.09-.02-.03-.29.03.15.14.13.17-.11-.03-.3.06.04.08-.26-.06,0-.06-.3-.07-.5-.02-.01-.03.07-.04.1,0,.18.02.18.02.37-.07-.05-.14.05-.18.23-.02-.09-.02-.27.01-.29-.08.05-.17.03-.25-.03.05.3-.09.07-.05.32.04.07.08.28.06.41-.03-.02,0-.13-.01-.2-.03.16-.05-.26-.09,0,.08-.1.01-.36.03-.6-.05.13,0-.17-.05-.17-.05.13-.12.23-.18.28-.08-.22-.19,0-.26,0-.04-.12-.01-.38-.05-.43-.05,0,.03.29-.03.16v-.05c-.01.06-.12-.18-.14.2l.02-.29s-.02.04-.03.07c0-.09-.02-.18,0-.24-.04-.2-.09.03-.13.04l.03.17c-.08.13-.13-.04-.2.02v-.17s-.04.1-.04.1c.01-.16-.03-.27-.05-.13l.12-.41c.03.1-.04.2-.01.36.02.14.09.1.1-.06-.03-.02-.03.02-.05.08,0-.23.03-.22.05-.38-.01,0-.03-.06-.04.01.03-.11.05-.13.1-.14-.03.09.02.14,0,.21,0-.2.05-.27.1-.21.04.24.11-.15.17-.09-.03.21-.06.37-.1.46.04.1.05,0,.09.1.02-.15.03-.39.09-.48v.15c.05-.08.05-.3.11-.26.11.07.21.07.29.09v.15c.05-.33.15-.12.21-.26.1.15.22-.15.28.12.18-.12.34-.23.53-.18l-.03.22c.03-.16.02.13.05.09-.04-.18.05-.23.07-.36.08.17.19-.02.26-.17v.15c.08-.29.17-.04.26.01.01.06.03.21.06.19.05-.25.08-.23.15-.38.05,0,.14.06.2.16.2-.35.41-.12.62-.33l.02.18c.21-.38.46-.04.63-.23l-.02.31c.05.09.13-.08.11-.3.06.09.14-.15.17.1.06.06.07-.14.12-.18.11.12.15.09.26.03l-.03-.02c-.01.07-.01.2.01.22.04-.08.15.08.11-.28.11.21.26-.17.37.11,0-.1.02-.12.03-.19.1,0,.2.2.28.03.02.05-.03.17.02.18.02-.04,0-.13.03-.19.16-.19.33.19.47.14.26-.19.53-.1.78-.13v.07c.08-.28.19.29.26-.13.02.07.08.03.06.17.07-.2.19.19.28-.06,0,0-.01,0-.02.04.1.16.18-.06.29.09-.01.03-.03.05-.03.13.04.14.09-.31.12.04.02,0,.02-.18,0-.17.22.14.46-.09.7-.17.17.21.01.59.14.33.01.07,0-.14,0-.06.05-.1.08.39.12.21-.01-.22.02-.12.02-.25.1.14.12.34.2.17v.11c.09-.32.2-.15.28-.52.52-.07,1.02-.27,1.53-.32.5.07,1-.1,1.51.1.12.3.13.29.26.17,0,.05-.01.06,0,.11,0-.25.09-.02.11-.26.19.05.36-.02.56-.02-.03.03-.05.23,0,.21l.04-.16v.07s.06-.16.03-.24c.49-.21.97.28,1.45.22.11.1.28,0,.4-.04.37.33.7.59,1.07.36,0,0-.05.64-.2.78Z"/>
      <path class="cls-1" d="M39.01,62.66c.01.12.06.19.02.35,0-.12-.03-.24-.02-.35Z"/>
      <path class="cls-1" d="M40.15,63.93s.02.05.02.07c-.01,0-.03.11-.04.05.01,0,.01-.07.02-.12Z"/>
      <path class="cls-1" d="M40.44,64c0,.11-.07.2-.1.21l.1-.21Z"/>
      <path class="cls-1" d="M40.71,64.45c.02.09.02.14-.01.14,0-.06,0-.09.01-.14Z"/>
      <path class="cls-1" d="M40.73,64.21s.03.06.04.12c0-.09-.05.06-.04-.12Z"/>
      <path class="cls-1" d="M41.32,64.52s.04-.1.06.02c-.01-.08-.07.14-.06-.02Z"/>
      <path class="cls-1" d="M41.59,64.36s.01.03.02,0c.02.05,0,.13-.01.14v-.14Z"/>
      <polygon class="cls-1" points="46.56 63.92 46.53 63.97 46.54 63.86 46.56 63.92"/>
      <path class="cls-1" d="M48.74,63.91c.03-.07.02.1.03.12-.03.01,0-.13-.03-.12Z"/>
      <polygon class="cls-1" points="49.91 63.37 49.9 63.37 49.91 63.15 49.91 63.37"/>
    </g>
  </g>
</svg>