<?xml version="1.0" encoding="UTF-8"?>
<svg id="Layer_4" data-name="Layer 4" xmlns="http://www.w3.org/2000/svg" viewBox="0 0 126.38 116.43">
  <defs>
    <style>
      .cls-1 {
        fill: #202020;
      }
    </style>
  </defs>
  <g>
    <path class="cls-1" d="M40.26,58.62c.15.71.57-.38.26.46-.26-.1-.46-.23-.26-.46Z"/>
    <path class="cls-1" d="M40.64,61.44c1.71,2.28-.02,5.29,1.07,7.79.07.29-.94-.08-.71.59,1.33,2.42.53,6.24-.49,9.19l-.26-.18c-.2.56.68,1.25.6,1.88-.18.02-.26-.19-.49-.03.27.07.34.35.4.64.09.29.16.6.38.7-.17.28-.58.32-.76.7.21.09.45.16.67.24.83.32.91.87,1.04,1.5.08.63.23,1.34.84,1.76-.15.01-.3-.06-.38.1.91.73,1.67,1.6,2.58,2.38.42.42.92.76,1.37,1.13.5.31.98.65,1.51.85-.19.14-.47.42-.48.69.44-.48,1.1-.24,1.7-.12-.02.35.28.35.64.28.36-.07.76-.16,1.03.13l-.1.12c.67-.5.64.58,1.22-.11.06.19.13.39.21.57.38-.87.66.58,1.16.18v-.19c.42-.2.59.27.97.13l.03.11c.89-.22,1.44.28,1.41-.43.32.57-.88.26-.38,1.1,3-.74,6.1-.6,9.13-.61.34.29.56.38.64.65.3-.15,1.14-.13,1.41-.5-.1.02.19.36.36.38.57.23.54-.78,1.14-.56-.21.23-.27.47-.16.72.45-.64,1.13-.61,1.65-.97-.06.14-.18.25-.11.46.25-.39.54-.43.84-.44.29-.04.59-.05.79-.34l-.06.46c1.08.13-.05-.87.78-.93-.12.2.01.32.05.49.37-.99,1.49-1.33,1.93-1.99,0,.07.07.16.07.16.58-.53,1.37-.91,1.72-1.77.35-.11.67.77,1.15.01-.66-.51.6-1.37-.46-1.52.51-.46,1.33-1.29,1.25-1.84.15.43,1.08.1.87.69l.66-.22c.28.21-.32.41.13.45.14-.31.17-1.32.39-1.55-.13-.36-.41-.74-.64-1.13-.24-.39-.37-.77-.38-1.21.26.47.94-.08,1.04.23-.47-.53-.89-1-1.42-1.43-.03-.28.66-.02.46-.44-.22.01-.35-.17-.52-.29.12-.06-.2-1.27.62-1.4.32-.14.17.5.46.16,0-.57-.29-.6-.3-1.17h.11c.12-.39-.35-1.12-.8-.71-.03.26.49-.1.25.29-.48-.27-.61-.93-.62-1.5.13.2.35.17.58.25-.64-.77-.85-1.58-1.12-2.44-.39-.01.71.32.5.45.54-1.1-.77-2.27.02-3.19.07.15-.55.08-.44.07.05-.53.61-.51.4-.85.33-.03-.11-.43-.21-.79-.24-.18.16-.09.2.22-.28-.49-.79-2.48-.31-3.62-.22.02-.8-.7-.78-.97l.51.1c.31-.24-.04-.88.39-.93-.62-.56.53,2.16.05,1.4.43-.2-.82-1.06-.12-.89-.02-.53-.6-1.04-.11-1.55-.08.15.71.43.67,0-.09-.75-.24-.21-.42-.82l-.21-.38c-.5-.03.07-.67-.49-.39.41-.09-.25-1.09.57-1.01l.65.1c-.05-.32-.69-.53-.98-.79.06-.04.19-.13.3-.11-1-.05.08-.78-.69-1.16.35-.68.03-1.73.65-2.05-.3-.52-.66-1-.45-1.6.09.12.12.28.34.32.29-.37.03-.47-.13-.81.15.08.58-.75.94-1.17-.3-.52-.84-.34-1.16-.39.98-.48-.63-1.47.26-2.06.14.18.48.76.73.33.98-.48-.73-.96-.25-1.73l-.82.19c.51-.34-.47-1.13.36-1.05-.29-.26.27-.9-.53-.82.67-1.26-.41-3.06,1.02-3.84-.13-.18,0-.63-.41-.54-.44.3.32.42.01.53-.02-.16-.24-.2-.35-.21.18-.39.24-.7.9-.33.49-.87-1.35-.9-1.04-2.01.33.05.45-.03.4-.36l-.56-.62c.13-.72.75-.41,1.31-.42-.1-.38-.07-.85-.49-1.03l.7-.47c-.51.34-.34-.32-.47-.5l.14.18c.24-.07.09-.51.02-.74-.35.05-.49.5-.59.75-.25-.2-.19-.5-.48-.76.54.1.4-.66.44-.9.1-.29-.51-.31-.49-.39.28-.02.03-.46.43-.27.09.09-.27.24,0,.39.2-.2.7-.21.32-.59-.29-.28-1.05.18-.79-.4.16.12.38.12.59.22l.2-.57-.5.06c.11-.09.16-.05.23-.09-.52-.07-.31-.76-.92-.73-.12-.22.22-.61.17-.86l.06.03c.17-.38-.14-.72-.56-.81l.11-.03c-.04-.16-.28-.49-.63-.53.15-.54,1.58-1.03.79-1.15-.26-.4-1.13-.1-1.3.22-.07-.4-.41-.65-.7-.91-.32-.24-.55-.52-.54-1.03-.22.07-.26.21-.5.15-.32-.45-.88-.66-1.34-.93-.24-.11-.46-.25-.64-.44-.18-.17-.34-.39-.43-.71.38-.05.23-.44.34-.7-.44.29-.12-.58-.52.09-.15.42-.25.61-.06.92-.68-.06-1.55-.32-1.81-.8.12.25-.04.35-.2.44.21-.7-.26-.91-.66-.7l-.11.43-.17-.48c-.16.11-.24.89-.55.46,0-.17-.02-.34-.08-.47-.21.17-.41.39-.66.54-.29.15-.59.21-.85.02l-.43-.64c-.22.07-.6.45-.2.64-.89-.39-1.46-.43-1.74-.99-1.53,1.35-3.75,1.4-5.52,1.31l.05-.33c-.48-.31-.25.57-.58.35.15-.31-.36-.68.01-1.06-.68-.35-.88.57-1.32.72-.07.43.36-.28.27.27-.08.15-.94-.34-1.05.32-.17-.26-.04-.74.05-1l-.42.32c-.5-.76,1.16-1.36.63-2.3l-.39.1c-.37-.68,1.02-.77.05-1-.44.31-.73,1.29-.39,1.56-.76.22-.29,1.57-1.01,1.56-.24-.37.57-.13.39-.65-.41-.52-.69.36-1.01.22.38.19.18.89.01,1.03-.41-.25.12-.64-.4-.63-.01.39-.37.78.05.94.04.87-.54-.1-.6.59-.35-.53.11-1.46-.54-1.6.25.53-.4.99.16,1.69-.24-.09-.43-.5-.41-.89-.45-.23-.27,1.24-.83.25l.16.58c-.17-.13-.35-.2-.65-.42-.26.14-.33,1.14-.8.37-.04.11-.56.48,0,.82.5.08.11-.63.73-.03-.6-.45-.4.36-.41.66l-.23-.26c-.01.18-.3.28-.11.63-.06-.21-.24-.36-.37-.36l.25.49c-.18.52-.7-.61-.98-.16v-.56c.01.12-.47-.12-.54.19.27.41.58.94.8,1.24-.02.33-.49-.27-.29.24-.07-.21-.13-.42-.2-.64-.07-.14-.78-.36-1.02-.01-.03.32.31,1.02.75.88-.1.15-.5.19-.7-.13-.12.44.44.24.5.71-.33-.05-.99.09-1.53.16-.18-.25-.34-.5-.49-.76-.05.08-.11.16-.16.25-.37-.65-.53-.05-1.02-.58-.19.15-.1.51-.04.77,1.24-.07,1.05,1.22,2.07,1.43.05.72-2.47-.37-1.19.87.28-.05.92.48.75-.02-.21.4.89.53.37.9-.31-.46-1.07.22-1.52-.47.31.11.33-.27.26-.38-.42.1-.95-.3-1.09.22.02.34,0,.78.5.79.56.07,0-.47.55-.18.12.6-.79.61.22.95-.06-.37.56-.38.94-.32.06.13.11.26.19.4l-.37-.11c-.3.6.68.23.54.79-.26.06-.5.25-.75.37-.65-.32.33-.94-.72-.91-.06.44.45.52.18,1.09-.09-.12-.11-.28-.21-.4-.03.2-1.42.41-.61,1.22.32.42.37.11.76.12.12.91.52,1.19.58,1.78-.76-.12-.07,1.04-.85.39.45-.3.4-1.62-.32-1.94-.9.33.13-.72-.79-.91-.02.73-.91.7-1.49.82-.04.2.21.4.3.52.55.09.54-.18,1.1-.2-.15.82.16,1.61.69,2.06-.27.27-.82.19-.87-.14.16.97.09,2.01-.08,2.94.89-.6.21,1.03.95.62.2-.5.84-.92,1.24-.65-.06.31-.39,0-.58.12.49.39-.78.61-.01,1-.29-.89-1.09-.17-1.79-.34.4.64-.5-.03-.5.61.39.64.7,1.42.85,2.13-.66.89-.01,2.26.01,3.05-.35.42-1.15.13-1.28.59.02.53.86-.39.49.39l-.16-.08c.18.24-.54,1.44.6,1.67l-.86-.24c-.08.15.12.28.21.4-.28,0-.53.18-.72-.06-.59.48.09,1.02.12,1.54l.51-.34c.4.9-.1,1.51.07,2.38l-.5-.03.3.52c-.48-.13-.79.35-.39.62l-1.22-1.35c.29-.37.6.41,1.09.17.43-.2.29-1.01-.19-1.14-.06.31.05.32.23.56-.69.1-.66-.37-1.13-.6.03.16-.18.39.04.43-.34-.32-.39-.64-.41-1.17.27.36.43-.2.63-.06-.61-.04-.8-.55-.63-1.2.7-.47-.45-1.23-.26-1.99.62.31,1.11.7,1.36,1.16.31-.48-.02-.53.29-1.01-.46-.23-1.16-.4-1.44-1.02l.46-.03c-.23-.56-.91-.56-.78-1.28.22-1.23.22-2.49.28-3.43l.45-.04c-.97-.52-.36-1.74-.79-2.44.44-1.2-.43-2.6.35-3.21-.17-1.06-.35-2.04-.45-3.04-.08-1.13-.03-2.31.36-3.51l.54.54c-.37-.52.44-.19.45-.6-.62.34-.54-.74-.8-1.17.44-.44.61-1.04.78-1.65.07-.31.12-.63.16-.95.06-.31.1-.61.13-.89l.41.21c-.2-1.35,1.22-1.92,2.16-2.7.24.03.7.19.93-.09,0-1,.31-1.19.87-2.17.62-.43,1.78-.9,2.59-.94,1.04-1.05,2.45-1.6,3.9-1.85.72-.16,1.46-.2,2.2-.27.73-.07,1.26-.12,1.9-.29l.18.53c2.39-1.14,5.33-.11,7.37-.69l-.2.91c.64.28,1.46-.24,1.3-.89.32.14.72.03,1.09-.02.19-.03.36-.04.52,0,.2.05.36.15.48.35.79.22,1.01-.4,1.72-.41.8.28,1.33.45,1.87.61.27.07.53.12.83.18.29.07.62.15,1,.25l-.34-.19c-.23.13-.36.49-.03.68.64-.08,1.79,1.06,1.75-.18.63.63,1.51,1.01,2.38,1.49.42.25.85.5,1.19.82.33.33.61.7.76,1.12.11-.31.45-.07.71-.07,1.08,1.09,1.46,2.7,2.48,3.46-.01.27-.63-.07-.35.46.27.25.35-.18.69.13.8.96,1.15,2.2,1.25,3.41.06.6.09,1.2.08,1.77.02.57.04,1.12.09,1.66.21,1.04.27,1.7.33,2.49.06.77.08,1.54.08,2.31.01,1.54-.04,3.05.01,4.51l-.22-.03c.84.97-.86,2.29.4,3.06-.21.23-.1.88-.52.71.59.78-.56,2.17.19,3.29.02-.1-.02-.16-.12-.28-.48,1.13.18,2.13-.26,3.33-.09-.12-.16-.34-.38-.38-.42.46.92,1.09-.13,1.35.01.26.53.19.5.03-.41,2.62.26,5.41.5,8.14-.63,1.95-1.78.12-.99,1.66-.2.13.4.09.19.11.29.6-1.18.93-.63,1.34.65-.17.36.28.76.29-.42,1.19-1.01,1.43-.51,2.37l-.34-.07c.96,1.1.45,2.38,1.56,3.32.05,1.52.13,3.03.21,4.52.05.75.09,1.49.14,2.24.02.96.02,1.95-.11,2.92-.44,3.91-2.29,7.72-5.27,10.44-1.52,1.29-3.21,2.35-5.03,3.13-1.82.77-3.77,1.24-5.74,1.38l-.74.04c-.25.01-.5.02-.66.02h-1.1c-.73-.01-1.46-.02-2.2-.03-1.47-.04-2.94-.12-4.43-.27-1.4-.9-1.5-.87-3.03-.51.06-.15.16-.18.06-.31-.09.73-1.03.08-1.33.75-2.89-.24-5.64-.73-8.3-2.24.45.18.94-.25.44-.47l-.74.1.02-.22c-.38-.1-.95-.03-.73.38-3.45-1.85-5.93-5.25-6.96-8.92-.54-1.83-.77-3.72-.71-5.57v-.67s.04-.52.04-.52l.05-1.05c.02-.7.03-1.4,0-2.09.31-1.32.02-3.21-.13-4.65.98-4.27,1.77-8.11,1.08-12.44,0,0,1.9.57,2.34,2.35Z"/>
    <path class="cls-1" d="M40.19,57.77c.37-.15.57-.65,1.06-.25-.35.05-.73.3-1.06.25Z"/>
    <path class="cls-1" d="M43.97,44.53c-.11-.02.15-.19.21-.23.03.16.34.32.14.45-.03-.17-.2-.14-.36-.22Z"/>
    <path class="cls-1" d="M44.19,41.14c.33.05.59.78.63,1.2l-.63-1.2Z"/>
    <path class="cls-1" d="M45.54,37.98c.28-.27.43-.2.42.17-.17.03-.26-.09-.42-.17Z"/>
    <path class="cls-1" d="M44.79,37.76c0-.26.19-.39.37-.52-.28.01.18.61-.37.52Z"/>
    <path class="cls-1" d="M46.55,32.85c.02-.11-.11-.45.26-.38-.28,0,.14.66-.26.38Z"/>
    <path class="cls-1" d="M47.28,30.71c.06-.05.12-.03.1-.16.2,0,.29.25.26.36l-.36-.2Z"/>
    <polygon class="cls-1" points="77.2 50.05 77.04 49.71 77.36 49.76 77.2 50.05"/>
    <path class="cls-1" d="M77.22,75.45c.21.34-.31.24-.35.3-.03-.31.4.11.35-.3Z"/>
    <polygon class="cls-1" points="75.93 87.88 75.99 87.8 76.48 88.25 75.93 87.88"/>
  </g>
  <g>
    <path class="cls-1" d="M51.93,68.94s.01.06.02.1c.08,0,.05-.04-.02-.1Z"/>
    <path class="cls-1" d="M51.89,78.59s0-.04,0-.06c0,0,0,0,0,.01,0,.02,0,.03.01.05Z"/>
    <path class="cls-1" d="M24.06,45.49s.05-.02.07-.02c-.02,0-.04.01-.07.02Z"/>
    <path class="cls-1" d="M23.63,45.05c.03.17.08.27.13.34.03-.1.02-.21-.13-.34Z"/>
    <path class="cls-1" d="M23.34,56.78c.01-.11,0-.19-.03-.26,0,.05,0,.12.03.26Z"/>
    <path class="cls-1" d="M23.76,45.39c-.06.21-.32.4-.13.67-.11.13-.3-.19-.33.12.23.28.59-.15.7-.66.03-.03.04-.02.06-.03-.12.03-.22.02-.3-.1Z"/>
    <path class="cls-1" d="M51.96,94.46c.47.08-.08-.72.2-1.06l-.46.19c.27-.78-.7-1.26-.14-1.75.14-.44.34.15.41.33.5-.6-.41-1.61.15-2.09-.19-.05-.49.13-.66-.4.2-.42.44-1.26.53-1.18-.09-.35-.24-.44-.07-.82.12.03.14.2.19.32.12-.6-.08-1.09-.25-1.62.35-.32.17-1.39.37-2.08-.43-.39.17-1.12-.39-1.17.06.02.13-.07.17-.11-.16-.26-.52-.47-.55-.8l.37.11c.47.08.09-.93.32-1.03-.31.28,0-.37-.28-.4l-.12-.39c-.1-.62-.18-.07-.23-.83-.02-.43.43-.15.38,0,.19-.36.08-.73,0-1.1,0,.14-.02.18-.11.05.05,0,.07-.06.09-.11-.03-.13-.05-.27-.05-.41,0,0,.01,0,.02,0,.02.15.04.29.05.39.03-.1.04-.24.04-.39.02-.02.02-.05,0-.1,0-.13.02-.25.08-.33l.29.1c.01-.27-.32-1-.44-.98.24-1.04.04-2.76-.12-3.46.07.14.16.15.06.02-.06-.36-.3-.76-.12-.8-.12-.35.2-.32.23-.86.06-.01-.29-.08-.25.07.44-.91-.26-2.07,0-3.16.03.09.18.21.28.29-.14-.83-.26-1.62-.61-2.37.13.08.25.06.33.25,0-.58-.08-1.25-.35-1.52-.13.39.16.03.14.29-.25.42-.52-.33-.45-.71h.06c0-.59-.16-.61-.17-1.19.16-.35.08.3.26.16.46-.14.29-1.32.34-1.44-.1-.14-.18-.34-.3-.31-.12-.45.27-.21.25-.52l-.8-1.17v-.07c.14-.04.36-.36.5-.02-.04-.59-.27-1.02-.5-1.4v-2.09c.12.2.41-.23.56.05-.16-.5.02-1.69.09-2.45-.5.49-.29-.82-.65-.95v-.54c.12-.15.35-.04.42-.26-.19-.92-.05-1.79-.11-2.62,0,0,.06-.01.1.03-.14-.75-.02-1.94-.41-2.71v-.06c.09.02.17-.02.24.16.09-.45-.09-.46-.24-.52v-.5l.15.14c-.23-.59.21-1.15-.15-1.82.13-.02.17.13.24.22-.08-.5-.08-1.05-.24-1.52v-.31c.09.01.18.08.26.24.13-.45-.16-.6-.26-.87v-.37c.03-.16.21-.44.22-.34-.14-.19-.18-.64-.22-1.01v-.49c.1-.1.17-.28.3-.57,0-2.93.06-5.93-.3-8.84v-.41c.42-.39.27.73.58.42-.4.02-.11-.51-.25-1.44l.06-.04c-.09-.39.17-.62.05-1.04h-.11c-.26-.44.52-.99,0-1.23l.29-.35c-.46-.44.15-.71-.24-1.25l.08.06c.2-.74-.5-1.53-.13-1.82-.06-.5-.13-1.04-.33-1.31v-.22c.11,0,.21.05.29.11-.09-1.19-.11-2.38-.17-3.67,0-.5-.11-1-.37-1.39-.49-.9-1.58-1.34-2.54-.81l-8.83,4.88c-1.38.6-2.69,1.29-3.74,2.06l-1.57.87c-.05-.07-.1-.11-.18-.05-.19.18-.41.34-.62.49l-6.35,3.51c-.64.35-1.04,1.06-1.04,1.84v2.25l-.16-.32c.23.28.05.76-.22.63l.17.52-.28-.03c.1.88-.18,1.49.04,2.41l.29-.34c0,.27.11.54.16.8v.48c-.02.09-.04.19-.1.28-.1-.24-.25-.07-.4-.06.05.12.16.26.12.41l-.48-.25c.64.24.23,1.45.34,1.69l-.09-.08c-.2.79.27-.14.28.4-.08.46-.52.17-.72.59.02.81.38,2.19,0,3.09.09.72.26,1.51.48,2.16,0,.64-.5-.04-.28.61-.17-.07-.35.02-.52.08.19.07-.03,1.21.41.69-.09.93-.14,1.99-.04,2.97-.03-.33-.34-.41-.49-.14.3.46.47,1.25.39,2.08.32-.02.31-.28.62-.2.05.12.19.32.17.53-.33.12-.83.08-.84.83-.51-.2.06-1.26-.44-.92-.41-.33-.43-1.66-.18-1.97-.44-.66-.05.52-.48.39.03.6.26.87.33,1.8.22.01.25-.3.43.12.46.82-.32,1.03-.34,1.23-.05-.12-.07-.28-.12-.41-.15.54.15.73.12,1.31-.59.16-.07-.92-.43-1.13l-.42.42c-.06.89.48.24.33,1.16l-.21-.11.13.57c.22,0,.55-.11.5-.6.57.32.08.45.19,1.23.32.25-.03-.33.29-.35.29-.08.3.46.35.85,0,.64-.35.33-.56.59-.05-.12-.1-.61.09-.56-.33-.79-.67.34-.9-.2-.19.61.19.58.3.9.04-.19.32.08.44-.05.87,1.05-.64.67-.48,1.67.56-.21.78,1.34,1.39.61.1.24.23.54.17.79-.38-.27-.3.45-.66-.03v.37s-.46-.55-.46-.55c-.26.41-.52,1.08-.7,1.29.17.53.36-.16.46.45-.2-.21-.36.16-.36.43.15-.54.54,0,.63.33,0,.54-.35.97-.44.89l-.33-.52c.28.4-.15.17-.03.58.21.11.53.36.8.5.09.34-.18.59-.13.7l-.23-.54c.09.72-.58.15-.43.89l.3.19c-.05.14-.18.22-.29.08.21.11.17.53.24.71l-.19.05c.13.3.56.69.18,1.06.47-.29,0-.37.22-.9.35-.33.33.52.38.64-.5-.03-.05.79-.05,1.16-.18.21-.26.4-.37.53l.33.14c-.65.14.15.74-.05,1.16-.2-.21-.46-.18-.55.11.48-.4.6.65.93.53-.17.75-.61-.18-.95.05.37.37-.24.84.24,1.08.15-.54.31.09.52.2-.04.68-.21-.11-.38.37.07.29.44.66.58.22-.1.4.36.85.06,1.29-.3.18-.14-.84-.35-.58-.03.95.74.47.85,1.36.16-.38.69-.02.88.41-.13.98-.18-.42-.57-.05l.06.39c-.53.54-.87-1.15-1.29-.63l.18.42c-.15-.09-.42-.23-.56-.06.37.11.09.99.18,1.06.31.09-.09-.34.15-.27.08.45.6.65.4,1.34-.22-.38-.42.14-.6-.01-.13.34.37.1.2.59l-.18-.05c-.05,1.8-.02,4.04.74,5.59-.31.28-.34.86-.56,1.76.1-.4.32-.02.36.21l-.36.43c-.1.26-.07.57.01.86.09.32.22.52.32.97-.07.14-.16.2-.26.25-.15.82.33.74.47.97-.03.18-.05.36-.05.55l.27-.02c.43.59,1.13,1.19.8,1.45.3.13.59.2.35-.09.76.71,1.76,1.11,2.6,1.38-.32-.26-.23-.36-.15-.6.29-.34.14.15.55.07-.06.15.22.46-.2.39.78.98,2.38,1.24,3.61,1.94.29.06.24-.04.41-.09.62.77,1.8.82,2.59,1.4-.12-.25.37-.58.86-.36.68-.07,0,.55.39.96.31-.04.77.13.95.24l-.04.05c.37-.04.87.08,1.15.39h-.06c.27.16.5.51.81.63.27-.24.91.28,1.21.1.02.05-.04.05,0,.15l.14-.24.52.42c-.17.04-.26.14-.45.13.54.47.32-.14.72-.12.52.02.38.26.54.47-.24.04-.29-.21-.42-.22-.34.09.23.21.17.36.09.05.28-.24.57-.03.27.16.95.38.74.63.31-.04.57.12.81.08-.2-.16-.58-.42-.55-.62.22.06.66.18.67.33h-.2c.2,0,.76.37.57-.04l.26.56c.26-.14.68.08,1.06.19-.12.29-.55.48.08.85l.7-.02c.35.13.51.29.36.42.22.13.42.23.59.29.53.17.83.03,1.1-.07.27-.11.51-.18,1.01-.12-.39.4.02.46.61.38,0-.07,0-.19.2-.29-.21-.1-.2.37-.7.22-.19-.19.43-.24.61-.42.64.17,1.52-.39,1.92-1.34.21-.47.3-.99.33-1.54.03-.51.05-1.2.15-1.43-.45.09-.13-.57-.3-.83ZM51.71,77.32c.01.07.03.16.04.26-.03-.1-.05-.19-.04-.26ZM25.41,33.25s.06-.04.09-.04v.63s-.07-.02-.11,0c.05.12.09.18.11.26v.29c-.25-.16-.32-.93-.09-1.13ZM25.44,38.32c.03-.09.05-.16.06-.23v.27s-.04-.03-.06-.05Z"/>
    <path class="cls-1" d="M24.09,44.86c-.09-.08-.18-.05-.2-.22-.11.13.07.29.08.45.03-.04.18-.22.12-.23Z"/>
    <path class="cls-1" d="M23.62,47.07c.02.43.17,1.17.35,1.22l-.35-1.22Z"/>
    <path class="cls-1" d="M23.21,51.47c-.09-.08-.14-.2-.24-.17,0,.37.08.45.24.17Z"/>
    <path class="cls-1" d="M23.63,51.7c-.31-.09-.05.52-.21.53.11-.13.21-.26.21-.53Z"/>
    <path class="cls-1" d="M23.09,58.63c-.27-.13.11.51-.04.68.2-.16.05-.52.04-.68Z"/>
    <path class="cls-1" d="M23.14,61.94c.02.16.15.36.24.17-.05-.12-.02-.16,0-.27l-.23.1Z"/>
    <polygon class="cls-1" points="52.12 93.17 52.03 92.83 51.93 93.12 52.12 93.17"/>
    <path class="cls-1" d="M52.22,66.85c-.03.06-.32-.05-.2.3-.03-.42.22.01.2-.3Z"/>
    <polygon class="cls-1" points="51.1 53.41 51.1 53.3 50.72 53.37 51.1 53.41"/>
  </g>
  <g>
    <path class="cls-1" d="M54.56,63.86c.16.07-.12.36.27.46.45-.33.45-.67.06-1.03.13-.08.29,0,.4,0-.3-.24-.82-.53-1.37-.36.59.24.34.31,1.04.57.08.21-.18.39-.41.36Z"/>
    <path class="cls-1" d="M53.82,60.4c.03.07.09.13.16.19-.03-.06-.05-.12-.06-.18-.03,0-.06,0-.1-.01Z"/>
    <path class="cls-1" d="M72.01,66.88c-.08-.14-.13-.3-.17-.46.06.37-.49.5.17.46Z"/>
    <path class="cls-1" d="M53.88,60.29s.02.09.03.13c.08.01.15.01.19-.01-.13-.02-.19-.06-.22-.11Z"/>
    <path class="cls-1" d="M87.16,39.97l.08-.98c-.05.22-.08.58-.08.98Z"/>
    <path class="cls-1" d="M88.44,77.03l-.24.27c.06-.03.14-.11.24-.27Z"/>
    <path class="cls-1" d="M88.97,39.27c.28.45.5.76.7,1,.01-.04.03-.07.02-.15l-.72-.85Z"/>
    <path class="cls-1" d="M87.27,49.18c.13.02.21.04.28.05-.02-.02-.04-.04-.05-.05-.08-.03-.16-.03-.23,0Z"/>
    <path class="cls-1" d="M90.96,75.29c-.07.09-.14.19-.24.33.08-.11.16-.22.24-.33Z"/>
    <path class="cls-1" d="M110.28,56.84c.38-.58-.71-1.41-1.77-2.13-1.27-.89-1.63-.98-1.82-1.69l-.16.29c-.4.09-.13-.34-.23-.52-.13.22.04.4-.2.44-1.96-1.04-3.25-3.16-4.83-4.77-.59-.57-1.41,1.04-1.74-.21l.6-.29c-1.75-.45-2.64-2.11-4.29-2.62.16-.05.28-.19.4-.09,0-.15-.04-.24-.17-.37-.19-.17-.42-.32-.64-.44-.45-.23-.84-.3-.91-.12-.32-.31.04-.38-.13-.74-.21-.33-.58-.44-.87-.52-.3-.08-.54-.15-.66-.52-.04-.12.14-.07.24-.04-.33,0-1.53-1.28-1.16-.33-.43-.49-.83-.74-1.19-.95-.36-.22-.67-.41-1.09-.93-.05.32-.42-.06-.76-.38-.34-.32-.63-.56-.34.18-.28-.67-.69-1.21-1.11-1.6-.07.46.08,1.58.3,2.32-.25-.66-.26.14-.61-.69.01.85.17,1.81.59,2.25-.49.01-.3,1.05-.13,1.84.16.84.29,1.41-.34,1.45.1.67.21,1.32.31,1.97.05.29.09.59.13.87.02.13.04.31.06.39l.06.23c.04.21.08.17.11.2.03.03.07.06.1.1.06.05.12.25.17.42-.41-.29-.43-.44-.46-.51-.02-.02-.05-.04-.21-.07.07.06.13.14.2.22.17.22.32.48.37.71-.06.04-.17.04-.32,0-.2-.11-.2-.36-.31-.5-.02.17-.24.15-.41.15-.09,0-.17,0-.25.03,0,.01-.17.04-.29.07-.12.03-.25.08-.37.13,0-.08.11-.16.21-.22-.19.03-.45-.12-.43.25l.19-.1c.31.54-.77,1.14-.81,1.42.33-1.07-.97-.27-.45-1.63-.13.07-.29.25-.26.5-.19-.07-.25-.22-.06-.51-.7.2-.45.6-1.08.59,0-.18.13-.25.19-.47-.32.35-.64.71-1.17.55.03-.11-.03-.25.13-.25-.92.05-1.56.94-2.57.6.3-.79-.34-.26-.4-.94l-.54.2.22.33c-.47-.01-.89.49-1.3.26l.35-.28-.89.13.5.26c-.48.35.05.86-.58.67.13-.07-.47,0-.72-.41h0c-.23.22-.48.44-.83.28-.09-.22.07-.76.01-.9-.23.57-1.11.16-1.4.77.1-.14.1-.5.07-.57l-.19.46c-.22-.15-.25-.22-.22-.51-.66-.08.21.87-.57.49.06-.04.03-.11.16-.18-.79-.19-1.52.29-2.24.07-.21-.69.63-.17.39-.75-1.04.12-2.16.82-3.17.66l.19.08c-.14.97-.75-.48-1.26-.02.12-.07.16-.54.13-.43-.69-.16-1.41.24-2.46.54l.13-.25c-.41-.22-1.07-.13-1.51-.24-.13.25-.38.21-.23.57-1.36-1.42-2.59.76-3.79-.42.14,0,.34-.22.23-.22l-1.02.23c.08.42.13.26.35.58-.13.25-.42.44-.67.44.46-.28,0-.68-.2-.91.03.13-.03.27-.02.4-.59-.75-.07.85-.87.34v-.22c-.31.11-.46.41-.79.34-.37-.49.21-.23.09-.63-.26.01-.41.25-.53.41-.13.17-.24.27-.63.03.09-.14.38-.14.51-.27-.85-.57-.87-.43-1.34-.52h.05c-.34-.02-.96-.32-.91.09l.16-.11c.61.98.67,1.29.66,1.63,0,.32-.06.71.34,1.25-.77-1.11-.45-.34-1-.62-.16.17-.34.53-.49.36.43.6-.37.83.27,1.52-.18.02-.02.35-.47.27.13.43.31-.1.54-.06.6.67-.77,1.55.06,2.51.31.77.84.98,1.15,1.61,0,.06,0,.11,0,.17-.27.12-.57-.24-.57-.24-.27.41-.22.73-.02,1.12-.16-.08-.29,0-.49.12.05.32.65.21.38.63-.2-.07-.52-.16-.72-.32.16.37.5.74.66,1.12-.31.1-.47-.23-.67-.37.14.43.29,1.12.78,1.25l.17-.28c.03.16-.42.08-.51-.03-.39-.37.17-.54.35-.56l.12.27c1.04-.28-.17-1.1-.11-1.65l.62.19c-.01,2.31.02,4.17.14,4.17h.05c-.03.29-.07.58-.07.85-.05,0-.1-.02-.16-.04-.12-.04-.29-.12-.41-.25-.12-.1-.21-.36-.19-.35,0-.07-.02-.2-.04-.27-.21-.03-.42-.08-.63-.14l.11.23.09.23.1.22c.09.18.26.4.5.54.23.14.48.18.65.19,0,0,0-.01,0-.02.05.36.2.69.6.96l.61-.52.2.41-.51.03c.29.39.47.04.68-.19.05.22.13.37.25.45l.59-.81c.07.33-.27.66.13.85.28-.38-.27-.75.19-1,.29.39.21.7.55.37.05.22-.02.36-.16.46.3-.26.8-.11.96-.56.3.48,1.02-.12.99.68.1-.19.53-.63.81-.67-.51.96,1.04.06.91,1.09.38-.87,1.36-.39,2.02-.87-.04.07-.11.21-.17.16.37.07.48.33.72.5.05-.72.63-.88.95-1.32.46.69-.28.84-.13,1.51-.02-.58.8-.58.64-1.06.35.43.3.21.48.8.06-.9.33-.15.62-.7.51.44.13.84.69.57.27.27-.23.59-.23.59.57.01.27-.66.39-1.05.68-.19.31.5.55.84.42-.18.75-.8,1.07-.77.02.11.08.15.01.29.45-.54,1.33-.03,1.85-.7.04.06.06.12.07.17-.08-.34-.1-.68-.08-.93.25-.01.47-.43.57.01-.16-.01-.17.17-.24.3l.27-.19c.24.63-.36.22-.36.69.52-.21,1.13-.73,1.53-.55.08.62-.93.21-.4.76l-.62-.24c.47.98-.38-.07.06.98.81.18.91-.32,1.72-.14.18-.35-.06-.51.12-.86,1.15-.62.91,1.56,1.75.73.22-.41.3-1.2.91-.78l-.21.7c.79.07.45-1.01,1.27-.54-.15.28-.62.23-.5.32.53.55.38-.4.79-.4l.09.62c.84-.1,1.76-.55,2.69-.66-.05.18-.21.38,0,.57,1.17-.31,2.5.08,3.63.44l.43-.54c.1,0,.19.24.08.35.44.2.02-.34.23-.55.25-.04.33.31.17.47.98-.46,1.74-.98,1.78-.41l-.16.16c0,.2.9-.84,1.06-.7-.02.04-.05.11-.1.19l-.1.04c-.12.41-.05.77-.06.88-.03.29-.07.57-.1.83-.07.53-.19,1.05-.4,1.61.39.02.3.61.25,1.22-.05.6-.06,1.18.48.71-.27.86-.45,1.31-.61,1.8-.16.5-.3,1.05-.48,2.34-.05.64.67-.31.79.04l-.56,1.05c.2-.07.39-.18.59-.31l-.4,1.06-.12.45.61-.66c-.16.08-.16-.2.03-.55.45-.52.75-.63.97-.59.21.04.35.24.27.48l1.94-2.13c-.07.26-.25.52-.46.79.7-.9-.14.94.81-.41-.1-.09.12-.52.16-.69.35.16,1.4-.67,2.08-1.38l-.05.53c.71-.49,1.44-1.13,2.15-1.76.37-.36.74-.74,1.16-1.07-.41.09-.76-.49-.55-.73l.47.39c-.07-.41-.39.02-.35-.59.35-.19.63.37.57.66l.25-.46c.13.12.1.27.22.46-.07-.41,1.02-.04.85-.72l.13.12c.84-.65,1.09-1.11,1.75-1.66-.3-.41.03-.53-.02-1.02.6-.26,1.4-.38,1.98-.89.26-.53-.15-.44-.15-.83.32.34.89-.16.79.35.67-.63.86-.8,1.54-1.81-.22-.07-.38-.05-.42-.22.12-.19.5-.14.61.05v.07c.28-.68,1.08-.87,1.84-1.08.52-.02,2.11-.92,2.3-1.69l-.03.09c.33-.48.62-.92.85-1.32.73-.47.04.41.88.12.3-.71.83-1.12,1.48-1.56-.5-.47-.95-.97-1.95-1.41ZM61.43,51.35c.01.12.03.29.01.44h-.37c.03-.18.12-.34.35-.44ZM54.97,57.09l.44-.15c0,.15,0,.3,0,.45-.12-.04-.27-.12-.43-.3ZM54.88,60.02c.12-.07.32-.12.49-.09,0,.18,0,.36,0,.53l-.49-.44ZM81.18,66.1c-.11.01-.21.02-.27.03.06,0,.14-.02.27-.04h0ZM81.82,66.06c-.04-.18,0-.36.12-.35-.06.12.2.22.37.37-.14-.02-.31-.02-.48-.02Z"/>
    <polygon class="cls-1" points="87.4 77 87.53 76.76 87.41 76.79 87.4 77"/>
    <path class="cls-1" d="M55.03,50.67l-.69-.18c.33.1.54.15.69.18Z"/>
    <path class="cls-1" d="M54.12,52.75c.09.08.16.12.22.16h0s-.22-.16-.22-.16Z"/>
    <path class="cls-1" d="M86.37,49.81s.05,0,.08-.02c.18-.1.06-.06-.08.02Z"/>
    <path class="cls-1" d="M76.71,51.01c.1-.09.2-.18.31-.24-.17-.04-.31-.05-.31.24Z"/>
    <polygon class="cls-1" points="87.15 40.08 87.16 40.1 87.16 39.97 87.15 40.08"/>
    <path class="cls-1" d="M77.47,50.78c-.17-.1-.32-.08-.45,0,.14.03.31.09.45,0Z"/>
    <path class="cls-1" d="M53.75,62.34s.06,0,.08.01l-.06-.11-.02.1Z"/>
    <path class="cls-1" d="M53.83,62.35l.06.11c0-.05,0-.1-.06-.11Z"/>
    <path class="cls-1" d="M53.89,62.46c0,.08-.02.18.13.23l-.13-.23Z"/>
    <path class="cls-1" d="M53.97,58.69c-.04.2-.4.49-.29.77l.15.03c-.28-.13.45-.6.14-.79Z"/>
    <polygon class="cls-1" points="72.24 50.25 72.11 50.68 72.52 50.54 72.24 50.25"/>
  </g>
</svg>