<?xml version="1.0" encoding="UTF-8"?>
<svg id="Layer_3" data-name="Layer 3" xmlns="http://www.w3.org/2000/svg" viewBox="0 0 300 300">
  <defs>
    <style>
      .cls-1 {
        fill: #fff;
      }

      .cls-2 {
        fill: #202020;
      }
    </style>
  </defs>
  <g>
    <path class="cls-1" d="M246.15,124.52c0,50.06-43.05,90.65-96.15,90.65s-96.15-40.58-96.15-90.65h192.29Z"/>
    <g>
      <path class="cls-2" d="M249.52,125.73c-.37-1.85-1.64.97-.69-1.21.73.25,1.29.61.69,1.21Z"/>
      <path class="cls-2" d="M240.23,122.16c-5.74,4.8-13.3-.05-19.59,3.01-.74.2.19-2.63-1.47-1.99-6.09,3.72-15.7,1.5-23.12-1.37l.45-.74c-1.41-.54-3.14,1.92-4.64,1.58-.01-.49.48-.7.13-1.37-.38,1.49-2.71.68-3.34,1.79-.59-.58-.53-1.76-1.3-2.41l-.86,1.69c-2.38,4.02-5.79-.28-9.04,1.8.16-.39.48-.7.22-1.08-5.22,2.44-11.76,1.99-17.6,2.89.23-.6.45-1.69.11-2.36-.29,1.78-2.09,2.23-3.66,2.58-.71-1.83-2.68,1.67-4.52.66l.16-.41c-1.36,1.92-2.01-1.1-3.11,1.19l-.86-1.44c-.6,2.58-1.96-1.34-3.08-.03l.04.53c-1.06.63-1.61-.66-2.59-.23l-.09-.3c-2.3.68-3.63-.76-3.58,1.25-.8-1.61,2.22-.73.96-3.08-7.55,2.07-15.34,1.67-22.95,1.7-.86-.81-1.41-1.05-1.61-1.82-.76.41-2.86.37-3.55,1.4.25-.04-.49-1.03-.89-1.13-1.38-.76-1.51,2.21-3.03,1.31.6-.54.81-1.19.61-1.94-1.3,1.57-3.03,1.32-4.56,1.83.24-.34.61-.54.55-1.17-1.67,1.78-3.06-.38-4.52.75l.55-1.16c-2.36-1.41-.7,2.43-2.74,1.6.49-.37.32-.82.41-1.3-1.91,2.12-4.99,1.42-6.89,2.13.11-.16.08-.48.08-.48-2.07.26-4.24-.39-6.52.53-.83-.52.27-2.84-1.92-2.41.08,2.34-3.72.96-2.43,3.6-1.87-.38-4.84-1.26-6.09-.47.84-.89-.91-2.85.64-3.05l-1.18-1.41c.17-.96,1.21.32.84-.88-.78.09-3.06,1.02-3.75.64-.72.72-1.42,1.74-2.21,2.62-.76.88-1.43,1.62-2.35,1.77.35-.46.12-1.1-.19-1.68-.31-.58-.69-1.1-.34-1.3-.81,1.49-1.26,2.98-1.35,4.47-.5.11-1-1.84-1.59-1.23.38.62.22,1,.29,1.5-.18-.13-.65.01-1.29-.09-.64-.11-1.51-.47-2.66-1.62-1.09-.9.68-.49-.76-1.3-1.3.02-.62.81-1.79.84l-.35-.31c-.15-.04-.28-.06-.4-.05-.04.02-.14-.02-.13.05.02.08.04.16.07.25.11.35.31.76.56,1.15.5.8,1.21,1.49,1.89,1.69.07-.4-1.51-1.09-.8-1.2,1.48,1.82,1.91,3.14,1.96,4.06-.41-.57-1.08-.98-1.79-1.6.99,1.39,1.7,2.39,2.25,3.25.55.85.93,1.57,1.4,2.24.58.16.04-.07-.57-.38-.61-.31-1.29-.72-.99-.72-.73.61,0,1.78.56,2.6.28.43.55.8.63,1.16.04.18.03.36-.05.55-.04.1-.1.19-.17.3-.08.1-.16.3-.27.44-.26-.31,1.49-.48,1.19-.4.1,1.23-1.48,1.52-.73,2.19-.89.28.53.94,1.01,1.67.76.26-.39.32-.66-.37,1.02,1,3.56,4.99,3.23,7.92.57-.24,2.67.76,2.81,1.34l-1.42.29c-.64.85.89,1.84-.22,2.41,1.06.27.22-.74-.62-1.71-.8-.99-1.64-1.93-.7-1.31-.49.42.26.82.88,1.13.62.31,1.15.54.16.72.53,1.14,2.48,1.59,1.69,3.21.08-.4-2.21-.13-1.73.77,1,1.51.84.18,1.9,1.27l.92.55c1.28-.56.51,1.5,1.63.21-.97.74,1.82,1.88-.33,2.83l-1.73.65c.49.62,2.3.19,3.28.31-.1.17-.33.53-.6.64,2.45-1.28.74,1.68,3.05,1.33-.05,1.88,2.09,3.37,1.07,4.99,1.37.55,2.87.8,3.21,2.27-.37-.06-.67-.32-1.2-.02-.13,1.2.59.93,1.43,1.29-.46.13-.18,2.38-.29,3.79,1.44.42,2.31-.9,3.09-1.4-.71,1.33.21,1.69,1.17,2.02.96.34,1.94.65,1.5,2.03-.55-.04-2.2-.39-2.01.84-1.23,2.78,3.07.21,3.4,2.42l1.29-1.96c-.21.79.48,1.01,1.01,1.23.55.2.92.39.06,1.19,1-.21,1.07,1.98,2.41.17.43,1.71,2.05,2.58,3.31,3.61,1.29,1.01,2.36,2.04,1.92,4.23.55-.04,1.22.88,1.7-.19.13-1.4-1.32.16-1.04-.69.35.17.77-.28.98-.51.44.94.98,1.47-.82,2.51.98,2.3,3.87-1.92,5.56.15-.59.72-.61,1.12.12,1.39l2.04-.62c1.23,1.18-.23,2.3-.99,3.69.94.2,1.9.81,2.81-.03l.05,2.27c-.05-1.66,1.09-.46,1.66-.64l-.56.16c-.15.66,1,.76,1.56.82.31-.93-.48-1.74-.87-2.25.73-.41,1.3.04,2.2-.43-.86,1.29.84,1.62,1.41,2.08.61.66,1.41-.89,1.6-.74-.31.74,1.17.64.14,1.42-.36.12-.27-.96-.98-.5.25.75-.36,2,1.09,1.52,1.08-.37.99-2.88,2.07-1.36-.53.19-.84.73-1.35,1.11l1.09,1.33.58-1.27c.05.41-.12.47-.1.68.96-1.21,2.32.38,3.21-1.06.75.11,1.14,1.49,1.78,1.84l-.17.07c.58,1.05,1.88.89,2.85.21l-.13.28c.42.26,1.57.38,2.37-.27.88,1.33-1,5.2.78,3.86,1.24.28,2.51-1.98,2.24-2.98,1.95,1.39,4.8-.27,6.43,2.15.41-.51.27-.89.96-1.11,1.53.58,3.29.31,4.89.38,1.61.08,3.1.24,4.3,1.73-.98.52-.15,1.39-.17,2.19.86-1.2.89,1.37,1.28-.76-.02-1.27.08-1.88-.79-2.45.97-.24,2.18-.43,3.27-.33,1.09.08,2.08.43,2.62.99-.54-.57-.12-.97.29-1.36-.13,2.02,1.32,2.29,2.37,1.56l.11-1.24.74,1.25c.4-.4.33-2.58,1.44-1.48.08.47.17.95.39,1.28,1.06-1.1,2.43-2.85,3.71-1.97l1.17,1.67c.49-.26,1.21-1.43.26-1.84,1.07.41,1.95.63,2.66.89.71.25,1.26.58,1.71,1.29,2.93-4.23,7.59-5.53,11.52-6.45l.16.92c1.29.49.05-1.71.96-1.33-.07.94,1.38,1.56.89,2.85,1.83.45,1.44-2.13,2.23-2.89-.26-1.19-.5,1.01-.83-.5,0-.47,2.33.14,1.9-1.65.62.54.82,1.9.89,2.66l.58-1.16c.94.79.67,1.91.4,3.09-.27,1.18-.55,2.44.53,3.44l.78-.6c1.55,1.47-1.6,2.9.89,2.67.68-1.2.47-4-.66-4.41,1.74-1.28-.76-4.41,1.27-5.12.97.76-1.48.91-.52,2.14,1.53.94,1.59-1.55,2.61-1.46-1.2-.2-1.18-2.24-.76-2.82,1.34.31.09,1.88,1.57,1.37-.22-1.07.69-2.38-.72-2.52-.57-2.39,1.72-.07,1.6-2.11,1.23,1.26.38,4.21,2.27,4.16-.98-1.32.81-2.95-1.11-4.65.79.11,1.47,1.19,1.52,2.3,1.33.4.56-3.65,2.41-1.03l-.56-1.6c.52.32,1.09.45,1.96.97.75-.42,1.1-3.28,2.37-1.15.09-.37,1.73-1.34.16-2.37-1.54-.24-.42,1.82-2.23.19,1.72,1.17,1.26-1.14,1.44-2.03l.63.74c.12-.53,1-.87.6-1.86.07.62.58,1.08.98,1.09l-.52-1.45c.84-1.54,1.82,1.88,2.84.59l-.29,1.64c.07-.35,1.32.42,1.68-.41-.57-1.26-1.1-2.86-1.55-3.84.32-1,1.24.95,1.05-.68l.12,1.99c.14.47,1.97,1.26,2.9.46.32-.86-.03-3.08-1.42-2.9.44-.38,1.62-.29,1.88.76.73-1.23-1.06-.98-.74-2.37.93.37,2.88.33,4.45.68l.58,2.5.64-.55c.4,2.07,1.35.64,2.17,2.45.65-.18.75-1.14.81-1.91-3.3-1.01-1.54-4.34-3.86-5.95,1-2.05,5.87,3.74,4.31-1-.79-.21-1.61-2.45-1.96-.88,1.16-.81-1.43-2.57.5-2.96.04,1.64,3,.9,3.04,3.3-.61-.7-1.19.26-1.18.64,1.18.29,1.97,1.98,2.98.88.44-.83,1.15-1.85-.05-2.64-1.23-1-.74,1.15-1.59-.33.68-1.69,2.75-.39,1.03-2.72-.54.98-1.96.14-2.79-.58l.27-1.36.67.85c1.86-1.05-1.11-1.64.25-2.96l2.2.55c1.15,1.45-2.31,1.76.18,3.29.89-.95-.06-2.2,1.28-2.69.04.36-.12.7-.08,1.07.33-.3,3.79,1.64,3.03-1.23-.18-1.3-.71-.81-1.59-1.46.86-1.9.33-2.97.83-4.18,1.67,1.37,1.38-1.87,2.49.52-.72-.04-1.4.6-1.8,1.43-.41.83-.48,1.89.15,2.78,2.5.8-1.19,1.17.58,3.02,1.07-1.35,3.03.12,4.55.82.38-.35.08-1.14.03-1.53-1.16-1.03-1.5-.49-2.83-1.35,1.47-1.35,1.7-3.43.96-5.08.98-.15,2.2.8,1.93,1.53.2-.55.45-1.09.72-1.61.26-.53.53-1.05.84-1.56.59-1.01,1.35-1.93,2-2.83-2.85.14.52-2.44-1.78-2.48-1.01.79-3.01.84-3.76-.21.44-.54.98.51,1.58.49-.86-1.39,2.58-.3,1-2.01-.14,2.15,2.6,1.66,4.22,2.82-.34-1.85,1.24.65,1.9-.73-.41-1.89-.44-3.92-.26-5.64,1.22-.67,1.71-1.94,1.91-3.26.16-1.34.07-2.69.3-3.6,1.24-.68,3.19.55,3.84-.43.27-1.27-2.55.33-1.11-1.27l.39.29c-.18-.34.39-1.1.64-1.95.26-.84.1-1.78-1.4-2.36l2.26,1.06c.28-.31-.2-.75-.39-1.09.77.14,1.55-.15,1.94.53,1.84-.89.26-2.56.33-3.85l-1.52.61c-.41-1.18-.21-2.07.06-2.96.29-.88.6-1.76.43-2.85l1.39.19-.73-1.35c1.32.42,2.29-.72,1.21-1.47,1.05,1.18,2.09,2.41,3.13,3.67-.9.88-1.59-1.2-3.01-.72-.62.2-.87.8-.81,1.41.03.61.38,1.24,1.02,1.49.26-.75-.04-.83-.47-1.48,1.97-.05,1.74,1.12,2.94,1.87-.02-.42.64-.95.05-1.11.83.92.87,1.78.73,3.16-.62-1.04-1.26.33-1.76-.1,1.69.35,2.03,1.77,1.21,3.37-1.08.42-.92,1.26-.6,2.24.32.98.7,2.11.21,3.02-1.5-1.21-2.57-2.49-3.04-3.78-1.08.99-.26,1.32-1.38,2.29,1.12.86,2.94,1.75,3.31,3.54l-1.26-.25c.21,1.57,2.02,2.11,1.13,3.83-1.57,2.91-2.75,6.01-3.88,8.21l-1.21-.42c1,1.16.78,2.33.3,3.43-.47,1.11-1.11,2.2-1,3.3-1.31,1.1-1.83,2.76-2.43,4.17-.63,1.39-1.28,2.58-2.63,2.67-2.16,5.16-4.42,9.73-8.66,13.75l-.73-1.95c.32,1.66-1.24-.22-1.71.69,1.87.15.48,2.32.8,3.65-1.42.43-2.45,1.47-3.21,2.75-.76,1.29-1.36,2.72-1.79,4l-.91-.9c-.06,1.69-1.03,2.58-2.26,3.22-1.23.65-2.71,1.07-4,1.75-.59-.22-1.72-.88-2.31-.26-.03,2.62-.83,2.92-2.04,5.3-1.39,1-4.09,1.92-5.94,2.13-1.02,1.4-2.24,2.53-3.55,3.54-1.33.96-2.77,1.74-4.23,2.51-1.48.73-3,1.38-4.48,2.14-1.5.72-3,1.48-4.44,2.48l-.95-1.25c-1.28,1.25-2.8,2.18-4.43,2.9-1.65.65-3.38,1.12-5.11,1.49-1.74.31-3.45.59-5.06.92-1.62.28-3.12.66-4.44,1.3l.15-2.62c-1.79-.5-3.79,1.16-3.15,2.93-.92-.29-1.97.17-2.97.4-1,.22-1.95.27-2.57-.74-1.81-.35-2.11,1.36-3.6,1.73-1.83-.44-3.05-.6-4.26-.58-1.21-.03-2.39.12-4.1.31l.84.18c.39-.55.45-1.64-.38-1.83-1.28.73-4.56-.95-3.5,2.2-1.76-1.01-3.89-.78-6.03-.79-1.07,0-2.14.02-3.13-.19-.99-.23-1.92-.63-2.69-1.37.16.88-.76.88-1.23,1.37-1.6-.22-3.13-1.05-4.61-1.6-1.49-.55-2.88-1.02-4.31-.67-.38-.54,1.15-1.16-.08-1.58-.83.11-.3,1.05-1.35,1.25-1.38.06-2.65-.3-3.89-.76-1.24-.46-2.41-1.09-3.52-1.82-1.11-.71-2.21-1.41-3.28-2.09-1.07-.69-2.13-1.27-3.26-1.64-2.09-.45-4.1-1.21-6.09-1.99-.98-.44-1.95-.9-2.91-1.38-.97-.47-1.91-.98-2.82-1.54-.92-.55-1.83-1.11-2.74-1.66-.9-.57-1.76-1.18-2.63-1.77-1.76-1.15-3.41-2.41-5.08-3.57l.45-.43c-1.82.15-2.67-1.39-3.56-2.69-.91-1.29-1.75-2.49-3.74-1.9-.09-.87-1.65-1.86-.48-2.4-1.37-.11-2.16-1.5-3.09-2.87-.95-1.36-1.86-2.87-3.71-3.3.15.25.35.29.78.35-.28-.81-.7-1.45-1.17-2.04-.46-.6-.98-1.13-1.52-1.66-.53-.53-1.08-1.07-1.56-1.68-.47-.62-.85-1.34-1.1-2.18.41.11.93.48,1.48.18.19-1.7-3.9-.86-1.92-3.16-.43-.58-1.5.43-1.18.76-.78-1.67-1.76-3.22-2.77-4.77-.5-.79-1.02-1.56-1.56-2.33l-.83-1.15-.8-1.17c-1.09-1.56-2.25-3.11-3.28-4.75-.53-.81-1.06-1.62-1.57-2.45-.48-.84-.94-1.69-1.39-2.54-.25-2.87.96-3.39,1.66-3.6.72-.21,1.03-.1-.72-1.71.42-.51-1.15.14-.6-.12-.66-.64-.11-1.51.41-2.28.53-.78,1.01-1.44.1-1.75-1.6.98-1.19-.42-2.26-.14.15-3.5,1.71-4.5-.28-6.67l.98-.02c-.85-.57-1.4-1.25-1.83-1.98-.11-.18-.21-.36-.31-.55l-.14-.28-.16-.41c-.2-.57-.4-1.13-.6-1.69-.18-.56-.36-1.13-.56-1.69-.18-.56-.37-1.12-.6-1.68-.46-1.12-1.08-2.24-1.98-3.41l-.31-2.51c-.1-.84-.11-1.64-.17-2.47-.1-1.65-.21-3.3-.31-4.95-.1-1.69-.2-3.38-.3-5.06l-.16-2.56-.08-1.29-.02-.32c0-.05-.01-.11,0-.16h.15s.58-.07.58-.07c3.15-.31,6.28-.63,9.41-.94l2.39-.24,2.56-.1,5.17-.21,5.25-.2.66-.03h.32s.17-.03.17-.03l.7-.05,1.39-.1,5.57-.36c3.71-.22,7.43-.4,11.16-.49,14.76.59,29.2-.81,44.19.85,3.51,2.52,3.77,2.45,7.63,1.43-.15.41-.4.5-.14.88.19-2.06,2.72-.19,3.08-2.16,5.54.39,10.64-.18,16.34-.19-.9.22-1.35,1.91-.28,1.77l1.12-1.32.18.57c.73-.3,1.53-1.32.77-1.98,14.32-1.78,28.41,2.36,42.43,1.85,3.33.86,8.07.07,11.69-.35,10.73,2.75,20.39,4.97,31.29,3.04,0,0-1.42,5.33-5.92,6.56Z"/>
      <path class="cls-2" d="M249.66,127.96c-1.04.36-1.64,1.6-2.99.53.97-.08,2.07-.69,2.99-.53Z"/>
      <path class="cls-2" d="M232.09,157.15c.26.16-.57.22-.77.23.09-.37-.54-1.04.06-1.09-.07.38.39.52.71.86Z"/>
      <path class="cls-2" d="M227.99,163.82c-.74-.57-.59-2.36-.23-3.25l.23,3.25Z"/>
      <path class="cls-2" d="M220.99,167.77c-.97.05-1.22-.34-.76-.98.43.23.49.59.76.98Z"/>
      <path class="cls-2" d="M222.42,169.39c-.31.51-.94.41-1.53.33.66.45.4-1.38,1.53-.33Z"/>
      <path class="cls-2" d="M210.48,179.19c-.2.3-.24,1.42-1.19.89.79.28.45-2.06,1.19-.89Z"/>
      <path class="cls-2" d="M206.12,184.9c-.22.1-.4.03-.44.4-.59-.06-.66-.87-.45-1.16l.89.76Z"/>
      <polygon class="cls-2" points="84.73 181.58 85.61 181.82 84.89 182.38 84.73 181.58"/>
      <path class="cls-2" d="M61.45,133.89c-.66-.82.92.28,1.06.31.12.41-1.25-.9-1.06-.31Z"/>
      <polygon class="cls-2" points="83.22 126.79 82.96 126.82 83.05 124.94 83.22 126.79"/>
    </g>
  </g>
  <g>
    <path class="cls-1" d="M59.26,157.82c.99,0,41.01,14.46,63.79,12.68l6.14-1.98,7.53,3.96,11.89-2.77"/>
    <g>
      <path class="cls-2" d="M59.73,155.37c-.69.2.25,1.24-.46.46.08-.54.26-.94.46-.46Z"/>
      <path class="cls-2" d="M147.12,168.26c-.26,3.71-2.48.54-3.13,3.02-.1.18-.41-1.9-.61-1.37-.25,1.47-.92,1.91-1.75,1.77-.83-.15-1.9-.87-2.55-1.81v-.56c-.22-.36-.32,1.53-.6,1.34-.02-.37.05-.54-.03-1.04,0,1.13-.38.61-.49,1.48-.09-.42-.06-1.32-.15-1.8l-.18,1.33c-.29,1.67-.6,1.61-.85,1.4-.22-.38-.38-.85-.78-.23.09-.28.18-.49.2-.8-1.2,1.41-2.4.4-3.68.48.25-.37.66-1.07.83-1.54-.67,1.14-1.11,1.29-1.44,1.4.42-1.31-.88.94-.83.11l.12-.28c-.65,1.26-.04-.95-.71.63l.18-1.11c-.58,1.85-.04-1.14-.45-.26l-.08.4c-.24.4-.13-.62-.34-.37l.03-.24c-.41.35-.47-.88-.64.71.02-1.34.39-.41.43-2.35-.16.1-.31.18-.46.25-1.25,1.5-2.25,1.58-3.38,1.96-.31-.53-.46-.67-.67-1.2-.05.33-.44.43-.33,1.19.04-.04-.32-.7-.42-.74-.41-.46.19,1.66-.3,1.12.02-.42-.08-.9-.26-1.42.07,1.2-.32,1.13-.54,1.6,0-.26.04-.43-.06-.89-.02.72-.21.64-.37.52-.17-.12-.32-.31-.42.11v-.86c-.54-1.03.06,1.8-.41,1.2.08-.27.01-.61,0-.96-.26,1.58-.91,1.08-1.25,1.62.02-.12,0-.35,0-.35-.4.21-.83-.26-1.26.43-.17-.38.03-2.1-.38-1.77.02,1.73-.72.74-.47,2.68-.37-.29-.93-.96-1.19-.39.18-.65-.13-2.12.17-2.25l-.2-1.05c.05-.71.22.25.17-.65-.15.06-.59.73-.71.45-.3,1.05-.62,3.01-1.09,3.22.24-.67-.04-1.91.11-2.2l-.78,3.28c-.16.08.03-1.36-.21-.92-.01.46-.12.73-.21,1.1-.05-.2-.67.41-.63-1.29-.02-.67.27-.35.14-.96-.28,0-.33.59-.61.6v-.23c-.15-.27-.58.67-.45,1.63.12.07.03-1.02.18-.51-.2.98-.55,1.22-.83,1.21.12-.27.14-.72.22-1.19-.48,1.3-.92,1.68-1.4,2.2-.08.81.29-1.45.31-1.02-.44-1.17-1.28,1.48-1.57-.2.09-.14-.08,1.15-.06.92-.25-.13-.12-1.29-.34-.87.06-.69-.24.2-.44.39-.15.49,0-.34.15-.4-.3.56-1.43,1.52-1.86.43-.04.45-.55,1.61-.68,1.54l.19-1.05c-.04-.65-.45.03-.35-.87-.44,1.24,1.2-.95.7,0,.02-.9-.73,1.61-.47.18-.26,0-.67,1.15-.79.13.05.18.4-1.43.19-1.39-.39.14-.17.49-.52.8l-.25.41c-.16,1.02-.31-.18-.33.98.07-.85-.61.44-.33-1.25l.24-1.33c-.17.08-.46,1.38-.68,1.95,0-.13,0-.4.03-.62-.33,2.05-.35-.22-.78,1.33-.23-.76-.85-.18-.8-1.48-.35.58-.7,1.27-.92.78.09-.18.18-.23.27-.66-.08-.63-.22-.1-.44.2.09-.3-.17-1.26-.24-2.02-.35.57-.45,1.68-.59,2.35.11-2.06-.94,1.17-.91-.7.14-.26.54-.92.42-1.47.12-2.05-.72,1.41-.92.37l-.21,1.69c.02-1.06-.73.87-.38-.83-.24.58-.34-.63-.6,1.01-.36-1.48-1.66.56-1.46-2.43-.14.25-.3-.07-.42.78-.03.93.33-.61.26.02-.09.03-.19.47-.24.7-.12-.41-.24-.56.2-1.87-.22-1.09-.98,2.67-1.39,1.93.16-.67.17-.93,0-.86l-.53,1.09c-.29-.34.12-1.57.34-2.71-.22.16-.44.06-.69.89l.07-1.47c-.05,1.07-.29.65-.44.92l.14-.26c.07-.49-.21-.23-.34-.11-.12.71.03,1.04.11,1.27-.2.48-.32.33-.57.9.28-1.11-.13-.85-.25-1-.12-.27-.4.96-.44.91.12-.58-.25-.15.05-.93.1-.17.01.59.21.1-.02-.45.21-1.45-.18-.77-.29.52-.43,2.2-.61,1.43.15-.26.26-.7.41-1.08l-.18-.64-.23,1.01c.01-.27.06-.35.07-.49-.33,1.05-.54.22-.87,1.4-.18.07-.17-.78-.29-.92l.05-.08c-.05-.64-.37-.3-.68.35l.06-.22c-.08-.1-.35,0-.61.57-.08-.82.78-3.83.22-2.63-.26-.02-.82,1.76-.86,2.43-.29-.79-1.19.74-1.25-.92-.16.39-.18.66-.37.87-.57-.55-1.7.87-1.74-1.25.29-.37.26-1,.4-1.58-.38.86.04-.98-.39.55-.21.91-.33,1.35-.24,1.77-.51.39-1.12.24-1.12-.67,0,.45-.15.71-.3.96.39-1.44.16-1.73-.19-1.28l-.25.88.09-.94c-.16.26-.56,1.83-.57.92.08-.34.15-.69.17-.95-.41.66-1.04,1.8-1.1,1l.13-1.34c-.14.11-.52.84-.43,1.26-.22-.88-.47-1.05-.31-2.19-1.43,2.52-2.51,2.34-3.3,1.92l.2-.65c-.06-.68-.43,1.12-.46.62.24-.61.2-1.41.58-2.13-.13-.78-.72,1.03-1.02,1.27-.27.85.32-.51-.02.58-.12.3-.26-.79-.67.5.06-.53.39-1.48.58-2l-.37.58c.18-1.59,1.29-2.58,1.56-4.53l-.24.16c.21-1.41.9-1.42.58-2-.37.59-1.06,2.44-1.04,3.06-.51.25-1.05,3.06-1.46,2.84.09-.8.4-.09.62-1.19.08-1.11-.58.48-.66.05.07.55-.47,1.82-.67,2.02-.05-.68.49-1.19.21-1.42-.26.74-.71,1.22-.61,1.81-.59,1.67-.2-.57-.74.71.23-1.23,1.11-2.68.93-3.38-.27,1.18-.87,1.45-1.17,3.22-.04-.37.2-1.29.5-1.97,0-.77-1.07,1.97-.49-.34l-.4,1.16c.05-.4.04-.72.12-1.38-.17-.07-1.01,1.44-.48-.34-.11.17-.48-.02-.68,1.25.03.82.54-.82.2.89.22-1.41-.4.08-.68.49l.18-.7c-.16.24-.31.04-.58.77.18-.38.28-.86.26-1.04l-.39,1.02c-.5.42.45-1.87.03-1.66l.49-.74c-.11.16.06-.85-.19-.57-.35.91-.79,2.06-1.06,2.78-.31.36.23-1.1-.24-.17l.58-1.08c.13-.3.3-1.63.04-1.68-.26.28-.91,1.59-.81,2.19-.13-.02-.13-.66.17-1.32-.38.24-.26,1.04-.68,1.56.09-.67.04-1.67.13-2.65l.73-1.52-.16-.06c.6-1.22.18-1.01.7-2.32-.05-.25-.33.17-.54.49-.3,2.26-1.25,2.84-1.74,4.84-.63.4,1.14-4.88-.26-1.94-.07.54-.75,1.97-.29,1.49-.22-.3-.79,1.92-.89,1,.5-.73.33-2.08,1.05-3.14-.22.65.05.56.17.39.11-.79.62-1.97.33-2.06-.24.14-.49.1-.77,1.14-.33,1.13.31-.04-.15,1.07-.48.29-.02-1.45-.77.51.27-.09-.02,1.09-.26,1.86l-.41.39.28-.73c-.26-.67-.54,1.32-.89,1l.26-1.54c.48-1.24.42.75.98-1.35-.24-.17-.65.86-.73.25.11-.16.2-.19.31-.36-.07-.1.67-2.87-.2-1.38-.39.57-.28.72-.52,1.5-.5.1-.87.86-1.18.89.52-1.5-.44-.29.34-1.75-.13.93.51,1.03,1.1-.37.39-1.84.26.35.9-1.43-.33-.15.23-1.91.53-3.08-.07-.11-.31.35-.42.51-.37,1.08-.25,1.1-.58,2.22-.29-.41-.84.08-1.37,1.08.04-.58.42-1.65.6-1.71-.55.18-.98-.11-1.31-.57-.28,1.86-.61.27-.88,1.8.1.47-.09,1.79-.47,2.55-.11-.16.25-.78.31-1.17-.49.91.2-1.64-.45-.17.59-.44.76-2.14,1.27-3.5-.54.69.32-.98.03-1.08-.54.68-1.09,1.18-1.51,1.37,0-1.45-1.03-.35-1.41-.42.03-.76.66-2.29.54-2.63-.25-.05-.36,1.75-.49.92l.13-.3c-.22.33-.32-1.27-1.14.94l.65-1.67c-.02-.17-.2.19-.32.36.17-.55.26-1.08.48-1.41.15-1.24-.52.04-.78,0l-.16,1.05c-.66.66-.62-.42-1.12-.19l.32-.98-.42.52c.35-.94.32-1.62-.05-.86l1.36-2.22c0,.64-.56,1.13-.75,2.14-.17.88.27.72.63-.2-.11-.15-.18.06-.4.38.38-1.39.58-1.27.98-2.15-.09.03-.07-.42-.22,0,.36-.62.55-.68.8-.64-.33.48-.18.88-.37,1.25.4-1.2.75-1.5.94-1.06-.23,1.46.85-.72,1.07-.22-.53,1.18-1.02,2.1-1.39,2.52.02.68.25.04.27.73.4-.88.91-2.25,1.37-2.71l-.27.91c.4-.38.83-1.71,1.07-1.36.42.62.99.8,1.38,1.05l-.27.9c.84-1.85,1.01-.46,1.6-1.22.27,1.03,1.44-.5,1.24,1.14,1.17-.4,2.21-.82,3.11-.19l-.56,1.27c.47-.91-.11.79.12.65.12-1.11.65-1.29,1.02-2.06.14,1.15,1.04.21,1.7-.6l-.25.91c.9-1.58.93.05,1.34.47-.05.39-.21,1.27-.03,1.21.69-1.39.8-1.25,1.46-2.05.29.08.65.58.78,1.23,1.66-1.75,2.39-.12,3.85-1.07l-.21,1.09c1.7-2,2.48.45,3.71-.49l-.57,1.81c.15.64.79-.32,1.05-1.64.15.64.95-.71.75.85.21.41.58-.76.89-.94.42.85.68.74,1.33.54l-.11-.15c-.16.39-.36,1.17-.25,1.32.34-.46.65.69.98-1.56.29,1.43,1.64-.7,1.81,1.15.09-.62.27-.7.42-1.09.53.09.8,1.45,1.45.52.01.32-.37.99-.17,1.11.18-.2.18-.79.41-1.09,1.1-.94,1.46,1.57,2.3,1.43,1.62-.89,2.92,0,4.28.07l-.1.44c.76-1.61.7,1.93,1.53-.57.02.45.36.27.12,1.12.57-1.15.78,1.31,1.56-.13-.04-.05-.08.04-.17.22.34,1.08,1.02-.2,1.41.79-.09.18-.21.31-.3.75.07.9.8-1.81.57.38.12,0,.26-1.07.18-1.02,1.05,1.02,2.53-.2,3.8-.52.71,1.42-.41,3.67.49,2.14,0,.43.14-.83.1-.38.34-.57.13,2.49.45,1.38.08-1.35.21-.73.31-1.54.43.92.41,2.14.95,1.16l-.11.7c.71-1.94,1.18-.82,1.8-3.08.68-.04,1.35-.14,2.02-.25.66-.15,1.29-.34,1.93-.52,1.26-.37,2.53-.65,3.65-.87.29.04.58.07.86.07h.41s.07,0,.11,0c.1,0,.09-.02.1-.04l.02-.06c-.07.02.18-.07.33-.12l.55-.18c.66-.21,1.32-.4,1.99-.57,1.33-.34,2.68-.6,3.98-.7.91,1.19,1.08,1.47,1.73.98.18,0,.42-.04.72-.08-.09.3-.17.33-.13.67.26-1.58.83.27,1.19-1.18,1.7,1.22,3.44,1.66,5.3,2.63-.37-.01-1.04,1.05-.68,1.12l.78-.69-.17.39c.23-.13.71-.73.81-1.23.09,0,.19.01.28.02.09,0,.05-.04.07-.06.02-.05.03-.08.04-.1.01-.04,0-.04-.02,0-.04.09-.1.33-.11.64,0,.29.04.59.14.79.05.1.1.17.16.2.03.02.06.02.08.02.01,0,.02,0,.04-.02l.24-.08c.76.48,1.51-.3,2.11-.76,2.45,1.52,4.62,2.7,6.32.84,0,0,.63,3.9,0,4.99Z"/>
      <path class="cls-2" d="M60.62,155.41c-.1.77-.03,1.23-.49,2.15.19-.69.29-1.5.49-2.15Z"/>
      <path class="cls-2" d="M64.37,164.83c.08-.21,0,.32-.02.45-.09.03-.36.62-.3.22.09-.03.19-.38.32-.67Z"/>
      <path class="cls-2" d="M65.8,165.75c-.23.64-.72,1.05-.94,1.07l.94-1.07Z"/>
      <path class="cls-2" d="M66.44,168.88c-.04.59-.17.88-.33.81.09-.35.2-.51.33-.81Z"/>
      <path class="cls-2" d="M67,167.44c.13.02.07.42.02.81.17-.56-.39.26-.02-.81Z"/>
      <path class="cls-2" d="M69.63,170.29c.09-.03.42-.52.28.23.07-.53-.62.71-.28-.23Z"/>
      <path class="cls-2" d="M71.42,169.75c.04.06.02.18.13.02,0,.32-.23.77-.32.81l.2-.83Z"/>
      <polygon class="cls-2" points="99.7 173.77 99.47 174.07 99.61 173.42 99.7 173.77"/>
      <path class="cls-2" d="M112.23,175.42c.21-.41.07.65.09.75-.16.05.12-.83-.09-.75Z"/>
      <polygon class="cls-2" points="119.2 172.31 119.15 172.33 119.16 170.94 119.2 172.31"/>
    </g>
  </g>
</svg>