<?xml version="1.0" encoding="UTF-8"?>
<svg id="Layer_3" data-name="Layer 3" xmlns="http://www.w3.org/2000/svg" viewBox="0 0 300 300">
  <defs>
    <style>
      .cls-1 {
        fill: #202020;
      }
    </style>
  </defs>
  <g>
    <path class="cls-1" d="M75.27,141.88c-.89.05-.61,1.82-.84.48.52-.69.97-1.19.84-.48Z"/>
    <path class="cls-1" d="M243.23,144.61c1.35.7,2,1.43,2.27,2.15.24.72.07,1.43-.16,2.14-.23.71-.51,1.41-.55,2.13-.05.72.11,1.46.86,2.3.17.36-2.99-.65-2.4.18,1.93,1.69,1.89,3.51.93,5.09-.45.8-1.27,1.5-2.15,2.11-.91.6-1.86,1.14-2.96,1.5l-.73-.48c-.8.26,1.57,2,.95,2.43-.53-.23-.67-.51-1.44-.7,1.51.84.32,1.34,1.34,2.12-.73-.08-1.94-.71-2.76-.79l1.6,1.19c1.86,1.5,1.48,2.05.85,2.44-.62.42-1.58.61-.92,1.86-.35-.3-.58-.61-1.01-.76.31.84.4,1.62.36,2.35-.08.7-.29,1.36-.56,1.99-.5,1.3-1.39,2.35-1.9,3.69-.42-.57-1.27-1.52-1.93-1.97.7.77,1.01,1.4,1.11,1.93.08.52-.04.94-.16,1.33-.85-.68-.73-.12-.6.58.13.7.26,1.56-.43,1.39l-.25-.41c.93,2.15-1.53-.45-.27,1.98l-1.34-1.09c1.57,2.58-1.64-.72-1.14.82l.37.5c.03.91-1.05-.23-1.14.43l-.23-.27c-.46,1.23-1.85.12-.62,2.12-1.27-1.42.42-1.27-1.49-3.3-.19.47-.4.92-.65,1.32-.26.38-.55.74-.85,1.06-.62.64-1.29,1.24-2.05,1.64-.75.42-1.54.79-2.34,1.12-.81.28-1.62.55-2.43.83-.66-.77-.96-.97-1.3-1.79-.18.54-1.06.74-1.04,1.97.1-.07-.53-1.1-.72-1.17-.79-.7,0,2.67-.9,1.83.11-.68.01-1.44-.28-2.26-.1,1.92-.93,1.78-1.46,2.5.02-.41.13-.67-.05-1.39-.3,2.18-1.38-.16-1.76,1.26v-1.38c-1.29-1.46.19,2.84-.87,2.02.14-.45-.02-.97-.07-1.52-.42,2.55-1.91,1.98-2.65,2.89.03-.19-.03-.56-.03-.56-.89.4-1.9-.27-2.82.9-.41-.57-.14-3.3-1.04-2.75.22,2.72-1.55,1.2-.81,4.25-.88-.41-2.23-1.34-2.76-.43.35-1.04-.47-3.32.2-3.56l-.54-1.64c.05-1.12.52.37.33-1.03-.32.11-1.26,1.2-1.56.76-.59,1.67-1.2,4.82-2.25,5.12.5-1.05-.22-3.01.12-3.47-.5,1.72-1.02,3.45-1.57,5.17-.36.12,0-2.15-.53-1.46,0,.72-.24,1.16-.42,1.73-.12-.3-1.5.62-1.5-2.08-.09-1.06.59-.53.26-1.5-.63-.01-.71.9-1.35.9v-.36c-.37-.42-1.3,1.06-.96,2.57.29.11,0-1.61.39-.81-.41,1.53-1.2,1.92-1.86,1.89.26-.41.29-1.12.44-1.87-1.04,2.02-2.03,2.59-3.11,3.36-.15,1.27.61-2.27.68-1.58-1.05-1.86-2.87,2.21-3.59-.49.2-.2-.14,1.81-.1,1.45-.58-.24-.31-2.07-.79-1.44.11-1.08-.53.28-.98.55-.32.75-.03-.53.34-.61-.68.87-3.18,2.13-4.21.37-.09.71-1.24,2.47-1.52,2.33l.4-1.63c-.1-1.04-1.01-.04-.81-1.46-.98,1.9,2.71-1.28,1.59.13.02-1.41-1.64,2.42-1.06.2-.6-.05-1.51,1.7-1.79.05.12.3.9-2.19.41-2.17-.88.14-.38.74-1.16,1.17l-.56.6c-.34,1.6-.71-.36-.75,1.49.16-1.34-1.38.56-.75-2.08l.54-2.06c-.38.08-1.03,2.08-1.51,2.95,0-.21-.01-.64.08-.98-.73,3.18-.8-.44-1.76,1.93-.52-1.26-1.9-.53-1.8-2.6-.79.83-1.59,1.85-2.09,1.02.2-.27.4-.32.6-.99-.19-1.03-.49-.22-.99.21.2-.45-.37-2.05-.54-3.29-.8.81-1.03,2.56-1.35,3.59.27-3.25-2.12,1.6-2.05-1.39.31-.38,1.22-1.32.96-2.23.3-3.24-1.64,2.04-2.07.31l-.49,2.64c.06-1.7-1.63,1.16-.83-1.45-.53.85-.74-1.12-1.35,1.42-.77-2.48-3.7.32-3.21-4.4-.32.36-.67-.21-.96,1.11-.09,1.49.75-.87.58.12-.2.03-.44.7-.56,1.04-.25-.7-.53-.97.49-2.93-.46-1.81-2.24,3.95-3.14,2.61.37-1.01.4-1.43,0-1.38l-1.21,1.56c-.64-.65.3-2.47.83-4.23-.5.18-.97-.07-1.57,1.18l.21-2.35c-.15,1.7-.67.94-1,1.31l.33-.37c.16-.76-.45-.46-.76-.32-.3,1.09.04,1.69.2,2.08-.45.7-.72.41-1.29,1.22.65-1.68-.27-1.43-.53-1.71-.25-.49-.92,1.39-1.01,1.29.28-.89-.56-.35.14-1.49.22-.24,0,.95.47.25-.03-.74.51-2.26-.36-1.31-.66.72-1.03,3.39-1.39,2.07.33-.36.6-1.03.95-1.59l-.38-1.11-.55,1.54c.04-.42.15-.53.18-.76-.75,1.56-1.2.15-1.98,1.92-.4.04-.35-1.32-.61-1.6l.11-.11c-.08-1.05-.81-.63-1.51.3l.14-.33c-.17-.2-.77-.14-1.36.67-.13-1.36,1.88-5.87.6-4.15-.57-.14-1.88,2.51-2.01,3.57-.62-1.39-2.67.7-2.71-2.02-.37.57-.43.99-.85,1.24-1.23-1.14-3.77.66-3.77-2.79.67-.48.62-1.51.94-2.38-.87,1.23.14-1.58-.89.72-.5,1.39-.8,2.04-.6,2.76-1.15.4-2.47-.11-2.44-1.58-.01.73-.36,1.08-.72,1.41.93-2.16.43-2.75-.35-2.17l-.6,1.31.24-1.49c-.35.35-1.32,2.71-1.29,1.24.18-.52.37-1.06.43-1.47-.93.89-2.38,2.44-2.46,1.1l.36-2.12c-.31.12-1.18,1.12-1.01,1.85-.43-1.54-.96-1.93-.55-3.72-3.26,3.42-5.64,2.61-7.32,1.52l.48-.96c-.09-1.13-1,1.61-1.05.78.57-.87.52-2.2,1.4-3.19-.24-1.34-1.64,1.32-2.29,1.56-.64,1.26.73-.67-.08.93-.28.43-.52-1.43-1.49.47.16-.84.94-2.22,1.38-2.97l-.84.76c.5-2.51,2.98-3.55,3.68-6.6l-.52.13c.54-2.21,2.03-1.86,1.38-2.98-.84.78-2.46,3.44-2.46,4.47-1.11.15-2.47,4.47-3.35,3.88.25-1.26.88.07,1.42-1.62.26-1.77-1.29.48-1.44-.25.11.93-1.15,2.73-1.59,2.96-.07-1.13,1.14-1.7.55-2.21-.62,1.07-1.63,1.62-1.44,2.65-1.4,2.43-.39-1.03-1.66.77.59-1.89,2.58-3.81,2.24-5.05-.67,1.78-1.99,1.92-2.76,4.66-.07-.63.52-2,1.22-2.96.07-1.25-2.46,2.67-1.03-.8l-.95,1.69c.13-.63.14-1.15.37-2.2-.35-.2-2.29,1.82-1.03-.81-.25.22-1.03-.29-1.56,1.69,0,1.36,1.23-1.06.37,1.56.57-2.19-.88-.09-1.5.44l.43-1.05c-.37.31-.68-.1-1.31.95.41-.52.67-1.25.64-1.57l-.92,1.47c-1.1.43,1.12-2.81.19-2.7l1.11-.95c-.24.2.2-1.36-.36-1.04-.8,1.36-1.86,2.94-2.5,3.99-.7.43.58-1.68-.51-.42l1.33-1.46c.3-.43.77-2.51.22-2.72-.57.33-2.09,2.12-1.92,3.15-.28-.11-.24-1.15.47-2.08-.84.19-.65,1.56-1.6,2.18.24-1.05.22-2.71.48-4.27l1.69-2.1-.35-.2c1.38-1.67.47-1.56,1.69-3.43-.09-.43-.72.11-1.2.51-.83,3.54-2.93,3.98-4.15,6.99-1.38.3,2.85-7.38-.41-3.33-.2.84-1.78,2.81-.75,2.28-.46-.62-1.86,2.71-1.99,1.14,1.13-.93.88-3.23,2.51-4.57-.53.94.07.94.32.73.3-1.24,1.49-2.9.87-3.2-.52.09-1.07-.11-1.74,1.44-.81,1.67.67.11-.41,1.67-1.05.2.08-2.39-1.7.39.59.02-.14,1.78-.71,2.92l-.91.41.66-1.05c-.5-1.24-1.27,1.87-2,1.13l.68-2.38c1.15-1.77.85,1.47,2.23-1.66-.5-.41-1.47,1.05-1.6,0,.25-.2.45-.2.7-.41-.15-.21,1.68-4.34-.31-2.38-.88.71-.66,1.03-1.25,2.16-1.08-.11-1.94.91-2.62.79,1.26-2.16-.92-.74.89-2.68-.37,1.45,1.01,1.99,2.4.03,1.01-2.8.52.73,2.06-1.84-.69-.42.66-3,1.41-4.76-.14-.22-.69.4-.95.61-.9,1.56-.63,1.66-1.45,3.32-.58-.84-1.81-.34-3.05.98.14-.93,1.04-2.48,1.44-2.47-1.19-.02-2.1-.76-2.75-1.71-.77,2.9-1.32.08-2.06,2.45.18.84-.37,2.9-1.24,3.93-.22-.33.6-1.13.77-1.75-1.13,1.21.59-2.59-.96-.55,1.31-.38,1.83-3.07,3.05-5.02-1.22.82.78-1.43.17-1.75-1.21.81-2.44,1.29-3.37,1.36.16-2.38-2.17-1.21-2.98-1.55.15-1.24,1.66-3.37,1.44-4-.53-.23-.96,2.67-1.15,1.21l.32-.41c-.52.41-.53-2.3-2.55.84l1.59-2.34c-.02-.3-.46.19-.72.39.44-.8.68-1.62,1.19-2.02.48-1.95-1.12-.26-1.66-.48l-.48,1.63c-1.5.66-1.27-1.1-2.39-1.06l.83-1.4-.97.57c.9-1.3.95-2.44.04-1.44l3.24-2.74c-.12,1.03-1.35,1.49-1.92,3.01-.5,1.32.49,1.38,1.37.08-.2-.32-.39-.02-.91.37,1.02-2.03,1.42-1.7,2.37-2.9-.2,0-.07-.73-.46-.12.84-.8,1.22-.78,1.75-.55-.77.58-.5,1.33-.94,1.82,1.01-1.72,1.78-1.99,2.13-1.16-.67,2.26,1.87-.66,2.28.29-1.26,1.61-2.41,2.83-3.24,3.3-.04,1.14.53.23.49,1.37.94-1.2,2.2-3.14,3.23-3.63l-.68,1.33c.89-.37,1.94-2.32,2.42-1.59.81,1.27,2.01,1.9,2.82,2.54l-.66,1.33c1.98-2.55,2.2-.17,3.53-1.07.48,1.86,3.12.02,2.54,2.59,2.54.02,4.8-.1,6.65,1.43l-1.31,1.77c1.08-1.24-.31,1.24.21,1.14.34-1.76,1.51-1.76,2.35-2.82.19,1.97,2.21.91,3.69-.06l-.61,1.36c2.05-2.11,1.99.57,2.85,1.48-.14.61-.55,1.97-.17,1.97,1.6-1.9,1.82-1.61,3.29-2.58.61.28,1.34,1.29,1.58,2.42,3.71-2.02,5.16,1.01,8.38.2l-.53,1.68c3.81-2.41,5.33,1.93,8.07.99l-1.34,2.68c.28,1.11,1.73-.14,2.38-2.16.28,1.1,2.11-.7,1.58,1.74.44.77,1.3-.96,1.99-1.12.86,1.56,1.44,1.52,2.85,1.47l-.23-.29c-.37.56-.85,1.74-.61,2.03.75-.6,1.38,1.4,2.22-2.1.56,2.44,3.61-.42,3.89,2.66.23-.96.62-1.01.98-1.58,1.14.39,1.67,2.67,3.14,1.45.02.53-.85,1.45-.42,1.72.4-.25.43-1.2.95-1.59,2.44-1.07,3.12,3.08,4.98,3.2,3.59-.79,6.41,1.1,9.39,1.63l-.23.68c1.71-2.34,1.51,3.36,3.39-.41.04.72.78.55.25,1.84,1.27-1.65,1.7,2.35,3.43.25-.08-.09-.18.03-.38.31.74,1.81,2.26-.01,3.11,1.64-.19.27-.47.44-.67,1.13.15,1.44,1.79-2.69,1.26.74.27.03.58-1.64.4-1.58,2.33,1.93,5.61.35,8.41.06,1.57,2.39-.88,5.76,1.1,3.49.02.68.31-1.29.21-.58.75-.86.32,3.96,1.03,2.24.16-2.12.46-1.13.67-2.4.98,1.55.97,3.49,2.14,2.01l-.22,1.1c1.53-2.99,2.61-1.12,3.93-4.65,6.01-.03,11.58-1.87,16.49-2.8,2.54.13,4.84-.54,6.98-1.16,2.19-.6,4.06-1.29,6.36-1.32,1.08,1.09,1.69,1.58,2.04,1.62.37.05.49-.39.63-1.2.21.43.2.56.5.9-1.21-2.08.55-.61-.61-2.59.39-.08.7-.27.97-.49.28-.21.54-.45.79-.7.48-.52.84-1.14,1.39-1.61.02.33,1.27,1.84,1.39,1.53l-.87-1.31.51.43c-.12-.4-.84-1.37-1.52-1.77.1-.5.28-.91.52-1.25.2-.39.47-.72.8-1.01.35-.27.68-.57,1.06-.86.38-.3.83-.53,1.24-.85.8-.65,1.76-1.24,2.44-2.12.36-.42.7-.84.97-1.32.24-.5.43-1.02.54-1.57.32-.17.55-.41.69-.68.14-.28.18-.63.18-.98,0-.7-.16-1.45-.24-2.08,3.9-2.74,6.95-6.42,4.93-10.69,0,0,6.17.79,7.47,2.79Z"/>
    <path class="cls-1" d="M76.18,142.12c-.46,1.12-.32,1.96-1.49,3.14.52-1.01.91-2.24,1.49-3.14Z"/>
    <path class="cls-1" d="M82.88,159.91c.18-.31-.04.53-.1.73-.2,0-.82.81-.66.19.21,0,.44-.51.75-.92Z"/>
    <path class="cls-1" d="M85.87,162.27c-.54.93-1.64,1.31-2.13,1.21l2.13-1.21Z"/>
    <path class="cls-1" d="M86.98,167.8c-.14.94-.44,1.35-.79,1.14.23-.52.48-.72.79-1.14Z"/>
    <path class="cls-1" d="M88.31,165.74c.27.11.11.74-.03,1.35.4-.82-.86.21.03-1.35Z"/>
    <path class="cls-1" d="M93.75,171.92c.2,0,.95-.62.58.52.19-.83-1.4.83-.58-.52Z"/>
    <path class="cls-1" d="M97.66,172c.07.11.03.31.28.1-.02.53-.56,1.14-.76,1.16l.48-1.26Z"/>
    <polygon class="cls-1" points="159.6 191.06 159.09 191.46 159.42 190.45 159.6 191.06"/>
    <path class="cls-1" d="M188.04,196.24c.45-.63.19,1.03.24,1.19-.37.07.25-1.3-.24-1.19Z"/>
    <polygon class="cls-1" points="203.77 191.14 203.66 191.18 203.55 188.99 203.77 191.14"/>
  </g>
  <g>
    <path class="cls-1" d="M51.52,146.98c.3.16,1.11-.19.51.09-.51.02-.91-.01-.51-.09Z"/>
    <path class="cls-1" d="M76.04,129.63c-.85,3.25-.89-.15-1.57,1.9-.06.13.22-1.81.06-1.39-.69,2.5-1.11.94-1.49-1.09l.07-.51c-.07-.38-.31,1.31-.4,1.07.02-.34.06-.48.07-.95-.09,1.03-.22.46-.31,1.23-.02-.41.04-1.22,0-1.68l-.13,1.17c-.31,2.77-.38-.23-.67,1.22.02-.27.05-.48.04-.75-.41,1.69-.82,1.37-1.2,1.98.02-.41.03-1.17,0-1.64-.02,1.24-.14,1.55-.24,1.79-.06-1.27-.16,1.15-.28.46v-.28c-.05,1.34-.14-.76-.17.84l-.08-1c.01,1.79-.15-.92-.2-.01v.37c-.04.44-.1-.46-.15-.15v-.21c-.14.48-.27-.51-.2.88-.1-1.11.12-.51-.04-2.14-.43,1.45-.91,1.2-1.39,1.29-.11-.55-.17-.72-.24-1.24-.02.29-.16.28-.12.99.01-.03-.12-.71-.15-.77-.16-.51.09,1.54-.08.93-.01-.37-.05-.82-.13-1.34.05,1.09-.08.93-.13,1.29-.02-.24-.01-.38-.08-.81.07,1.23-.24-.23-.22.56l-.09-.81c-.31-.94.22,1.68,0,1.13-.01-.26-.07-.57-.12-.89.11,1.47-.15,1.03-.18,1.54-.02-.11-.05-.33-.05-.33-.09.2-.32-.22-.33.43-.12-.34-.38-1.93-.46-1.62.34,1.59-.09.7.38,2.47-.16-.24-.47-.78-.42-.23-.09-.61-.53-1.91-.46-2.07l-.31-.93c-.15-.65.14.2-.09-.61-.04.08-.04.74-.15.5.15.99.54,2.8.46,3.04-.1-.63-.51-1.71-.54-1.99.2,1.02.42,2.03.65,3.04-.02.08-.37-1.23-.31-.8.12.41.17.67.25,1.01-.07-.17-.05.43-.54-1.08-.21-.59-.03-.35-.25-.87-.08.05.08.57,0,.62l-.07-.2c-.13-.2.06.7.39,1.52.05.04-.31-.91-.12-.48.25.9.25,1.17.19,1.21-.06-.25-.2-.65-.34-1.08.31,1.22.35,1.63.43,2.15.26.71-.44-1.31-.29-.94-.51-.93.26,1.49-.41.09-.03-.13.41,1,.33.8-.09-.06-.51-1.08-.39-.69-.25-.6.03.21.07.41.16.44-.13-.28-.13-.37.15.54.36,1.53-.16.73.18.39.6,1.45.55,1.42l-.42-.91c-.29-.53-.05.12-.44-.65.47,1.12-.21-1.04.12-.15-.39-.74.57,1.48,0,.25-.05.06.4,1.08-.07.28.09.14-.58-1.26-.6-1.17,0,.21.19.44.28.77l.15.39c.45.86-.13-.08.41.87-.39-.7.14.49-.63-.93l-.6-1.12c0,.1.59,1.21.84,1.71-.06-.11-.19-.32-.29-.5.95,1.7-.16-.1.55,1.23-.4-.55-.18.03-.85-.99.25.53.59,1.16.32.84-.09-.16-.1-.22-.33-.57-.34-.46-.08-.02.07.26-.15-.25-.69-.9-1.12-1.45.27.52.88,1.37,1.23,1.91-1.13-1.55.58,1.1-.47-.29-.14-.23-.47-.82-.8-1.18-1.17-1.52.73,1.22.11.52l.97,1.27c-.62-.77.47.81-.51-.49.33.47-.4-.35.56.87-.92-.94.29.78-1.58-1.28.15.21-.06.04.47.64.59.63-.37-.5.03-.06.02.05.29.37.43.53-.26-.25-.37-.31-1.18-1.3-.73-.65,1.67,2.04,1.2,1.66-.43-.48-.6-.65-.56-.55l.71.85c-.22-.14-1.04-1.03-1.79-1.82.1.17.02.17.57.77l-1-.93c.73.67.43.49.61.7l-.17-.2c-.33-.32-.17-.08-.09.04.49.47.72.62.88.74.32.35.22.3.61.71-.76-.75-.59-.49-.7-.54-.19-.13.67.69.64.67-.4-.38-.1-.02-.65-.57-.12-.13.41.35.07,0-.31-.26-1.02-.93-.54-.4.36.39,1.55,1.43,1.01,1.02-.21-.2-.49-.48-.77-.75l-.46-.32.72.66c-.19-.17-.25-.22-.35-.3.75.7.16.29,1.02,1.06.06.09-.55-.4-.66-.44l-.06-.06c-.46-.34-.21-.06.27.39l-.16-.14c-.07-.03.01.1.44.48-.6-.42-2.87-2.29-1.96-1.47-.02.08,1.35,1.18,1.85,1.54-.58-.32.64.7-.63-.12.31.24.51.38.69.53-.41-.11.82.85-.84-.1-.32-.26-.81-.53-1.28-.83.71.5-.79-.45.46.37.74.47,1.1.7,1.42.86.36.32.3.4-.43.02.36.19.58.34.8.49-1.2-.72-1.42-.78-1.01-.48l.74.44-.78-.41c.23.15,1.55.9.81.54-.29-.16-.58-.31-.8-.43.58.39,1.6,1,.94.7l-1.12-.55c.11.09.76.46,1.09.6-.7-.28-.82-.27-1.79-.73,2.29,1.33,2.32,1.49,2.08,1.56l-.59-.25c-.57-.19,1.02.46.6.31-.56-.25-1.24-.48-1.91-.8-.65-.19.99.51,1.25.66.78.32-.49-.23.5.17.28.12-.64-.16.54.31-.47-.17-1.34-.52-1.81-.72l.56.26c-1.41-.48-2.42-1.09-4.15-1.7l.17.12c-1.26-.43-1.34-.7-1.82-.72.56.3,2.26,1,2.8,1.15.29.23,2.81,1.13,2.68,1.18-.71-.23-.14-.13-1.13-.48-.98-.31.5.29.15.21.47.12,1.66.59,1.87.7-.58-.16-1.12-.44-1.27-.41.69.26,1.19.49,1.69.61,1.56.57-.45-.09.76.36-1.11-.35-2.54-.94-3.12-1.05,1.07.35,1.42.58,3.02,1.07-.32-.08-1.16-.35-1.81-.59-.67-.17,1.93.72-.21.05l1.09.36c-.36-.1-.64-.17-1.24-.33-.03.03,1.46.56-.21.06.17.06.07.13,1.24.43.72.16-.83-.31.74.13-1.28-.35.15.12.57.26l-.65-.18c.25.09.1.08.8.29-.37-.12-.81-.24-.97-.27l.98.29c.48.19-1.74-.47-1.47-.32l-.75-.26c.16.06-.77-.17-.47-.05.9.25,1.98.56,2.68.76.39.13-1.02-.25-.1.02l-1.08-.33c-.29-.09-1.5-.36-1.5-.3.3.12,1.61.49,2.11.56,0,.03-.55-.08-1.21-.26.3.13.98.23,1.53.41-.61-.13-1.49-.27-2.38-.43l-1.51-.41-.02.04c-1.21-.34-.94-.18-2.22-.51-.21-.01.22.13.55.24,2.08.37,2.8.72,4.7,1.1.49.19-4.61-.9-1.67-.18.5.08,1.93.42,1.39.25-.22.02,1.89.42,1.1.33-.77-.2-1.93-.31-3.05-.61.63.13.49.05.31,0-.73-.11-1.9-.39-1.92-.31.17.09.2.16,1.19.33,1.09.2-.1-.09.99.15.36.15-1.29-.13.63.25-.14-.08.98.12,1.73.25l.44.13-.72-.14c-.54-.01,1.31.25,1.1.29l-1.44-.2c-1.23-.23.57-.02-1.44-.36-.09.05.92.24.39.2-.15-.04-.23-.06-.39-.11-.07,0-2.74-.4-1.19-.05.6.14.72.12,1.47.24.22.13.98.27,1.09.34-1.47-.22-.16.09-1.65-.18.87.08.8-.05-.6-.31-1.74-.23.26-.04-1.5-.35-.05.09-1.77-.18-2.89-.34-.08.02.39.12.56.17,1.06.17,1.05.13,2.13.29-.3.06.27.26,1.3.44-.53-.04-1.59-.18-1.68-.24.29.17.14.29-.2.38,1.74.11.39.18,1.84.27.4-.02,1.64.07,2.41.18-.12.02-.76-.08-1.13-.11.94.14-1.53-.08-.04.1-.55-.15-2.11-.23-3.47-.38.76.16-.97-.1-.98,0,.74.17,1.34.32,1.62.44-1.3.03-.05.31,0,.4-.69.03-2.24-.08-2.5-.02.03.08,1.67,0,.96.1l-.31-.02c.36.04-1.06.19,1.16.27l-1.67-.07c-.15.02.23.05.41.07-.54,0-1.04,0-1.4-.04-1.15.06.18.17.23.25l.99-.05c.77.13-.2.22.14.35l-.97.02.58.07c-.94,0-1.54.1-.75.12-.79-.04-1.59-.1-2.38-.17.57-.08,1.17.05,2.13,0,.83-.05.57-.16-.36-.18-.11.05.11.05.46.09-1.35.04-1.3-.05-2.2-.08.05.03-.36.08.07.08-.66-.05-.76-.12-.8-.22.52.07.83-.03,1.22,0-1.19,0-1.55-.11-1.22-.24,1.37-.06-.88-.26-.49-.4,1.2.1,2.16.2,2.64.29.61-.06-.03-.09.58-.15-.89-.07-2.27-.15-2.81-.29l.89.03c-.45-.12-1.76-.19-1.51-.32.45-.21.47-.45.59-.62l.88.07c-1.88-.27-.66-.39-1.49-.61.87-.13-.78-.62.75-.53-.62-.49-1.21-.98-.81-1.35l1.25.32c-.92-.25.74.09.56,0-1.03-.12-1.3-.36-2.05-.58,1.02.01,0-.45-.83-.84l.86.2c-1.58-.57-.1-.44.22-.58.36.07,1.18.25,1.1.16-1.35-.5-1.23-.53-2.04-.96.03-.13.45-.24,1.02-.2-1.76-1.12-.36-1.21-1.27-2.17l.98.36c-.94-.67-.85-.99-.64-1.23.21-.24.52-.41.12-.88l1.57.85c.55.13-.26-.5-1.39-1.06.55.12-.57-.76.76-.14.36.03-.62-.57-.77-.81.74.05.68-.11.56-.55h-.14c.31.24.96.64,1.09.64-.36-.36.62-.08-1.23-1.14,1.2.41-.39-1.23,1.16-.54-.49-.32-.53-.45-.82-.71.17-.27,1.29.21.66-.59.26.15.72.67.84.62-.13-.19-.59-.48-.79-.75-.5-1.08,1.51-.03,1.57-.52-.26-1.33.74-1.55,1.21-2.15l.27.33c-.83-1.43,1.49.94.13-1.12.3.28.3,0,.76.69-.53-1.06,1.08.56.46-.79-.05-.02,0,.06.07.23.76.62.25-.6.97-.05.07.17.1.31.33.68.52.63-.74-1.67.4.04.04-.05-.51-.9-.51-.83.95.37.87-1.1,1.29-1.83.97.91,1.53,3.1,1.2,1.57.19.35-.32-.72-.13-.34-.11-.58,1.15,2,.78.98-.55-1.14-.23-.67-.54-1.37.59.63,1.07,1.67.89.7l.24.62c-.49-1.84.15-1-.41-3.1.62-.43,1.19-1.07,1.78-1.6.59-.56,1.23-1.1,1.9-1.34.73.08,1.4-.2,2.06-.31.66-.11,1.37-.18,2.05.38.41,1.73.42,1.68.71.96,0,.28-.02.35.02.61-.05-1.43.22-.14.2-1.51.49.25.93-.17,1.4-.16-.08.15-.11,1.32-.02,1.23l.09-.91v.4c.07-.21.15-.92.08-1.38.62-.61,1.24-.19,1.81.35.56.56,1.07,1.23,1.65,1.1.21.62.64.09.96-.16.64,2.01,1.11,3.62,2.12,2.41,0,0-.68,3.64-1.1,4.45Z"/>
    <path class="cls-1" d="M51.36,146.81c.71-.07,1.1-.17,2.06-.14-.67.04-1.42.12-2.06.14Z"/>
    <path class="cls-1" d="M58.78,144.95c-.21-.02.29,0,.41.01.05.02.65.1.28.08-.05-.02-.39-.05-.69-.09Z"/>
    <path class="cls-1" d="M59.25,144.59c.63.09,1.13.23,1.2.28l-1.2-.28Z"/>
    <path class="cls-1" d="M61.9,144.62c.54.06.83.11.81.14-.34-.05-.5-.09-.81-.14Z"/>
    <path class="cls-1" d="M60.47,144.38s.36.01.72.06c-.54-.08.33.11-.72-.06Z"/>
    <path class="cls-1" d="M62.41,144.06s-.56-.17.14-.03c-.49-.09.77.24-.14.03Z"/>
    <path class="cls-1" d="M61.54,143.55s.16.03-.01-.03c.29.06.73.19.79.22l-.78-.19Z"/>
    <polygon class="cls-1" points="62.38 137.72 62.53 137.99 62.16 137.48 62.38 137.72"/>
    <path class="cls-1" d="M64.86,136.42c-.09-.39.22.56.26.64-.01.07-.24-.75-.26-.64Z"/>
    <polygon class="cls-1" points="65.8 132.85 65.79 132.87 65.53 131.6 65.8 132.85"/>
  </g>
</svg>