<?xml version="1.0" encoding="UTF-8"?>
<svg id="Layer_3" data-name="Layer 3" xmlns="http://www.w3.org/2000/svg" viewBox="0 0 300 300">
  <defs>
    <style>
      .cls-1 {
        fill: #202020;
      }
    </style>
  </defs>
  <g>
    <path class="cls-1" d="M115.79,141.81c-.41.02-.28.83-.38.22.24-.32.45-.55.38-.22Z"/>
    <path class="cls-1" d="M192.68,143.07c1.25.64,1.19,1.32.97,1.96-.2.65-.53,1.27.14,2.03.08.16-1.37-.3-1.1.08,1.76,1.56.01,3.32-1.91,3.98l-.33-.22c-.36.12.72.92.44,1.11-.24-.11-.31-.23-.66-.32.69.39.15.61.61.97-.33-.04-.89-.32-1.26-.36l.73.55c.85.69.68.94.39,1.12-.28.19-.72.28-.42.85-.16-.14-.26-.28-.46-.35.14.38.18.74.17,1.07-.04.32-.13.62-.26.91-.23.6-.64,1.08-.87,1.69-.19-.26-.58-.7-.88-.9.65.71.56,1.15.43,1.49-.76-.63.18,1.04-.48.9l-.11-.19c.43.98-.7-.2-.13.91l-.61-.5c.72,1.18-.75-.33-.52.37l.17.23c.01.42-.48-.11-.52.2l-.1-.12c-.21.56-.85.06-.29.97-.58-.65.19-.58-.68-1.51-.72,1.73-2.35,2.27-3.81,2.73-.3-.35-.44-.44-.6-.82-.08.25-.49.34-.47.9.04-.03-.24-.5-.33-.54-.36-.32,0,1.22-.41.84.05-.31,0-.66-.13-1.04-.05.88-.42.81-.67,1.15.01-.19.06-.31-.02-.63-.14,1-.63-.07-.81.58v-.63c-.59-.67.09,1.3-.4.93.07-.21,0-.44-.03-.69-.19,1.17-.88.91-1.21,1.32.01-.09-.01-.25-.01-.25-.41.18-.87-.12-1.29.41-.19-.26-.06-1.51-.48-1.26.1,1.24-.71.55-.37,1.95-.4-.19-1.02-.61-1.26-.2.16-.48-.22-1.52.09-1.63l-.25-.75c.02-.51.24.17.15-.47-.15.05-.58.55-.71.35-.27.76-.55,2.2-1.03,2.34.23-.48-.1-1.38.05-1.59-.23.79-.47,1.58-.72,2.37-.16.05,0-.99-.24-.67,0,.33-.11.53-.19.79-.05-.14-.69.28-.69-.95-.04-.49.27-.24.12-.69-.29,0-.33.41-.62.41v-.16c-.17-.19-.6.49-.44,1.17.13.05,0-.74.18-.37-.19.7-.55.88-.85.87.12-.19.13-.51.2-.86-.47.92-.93,1.18-1.42,1.54-.07.58.28-1.04.31-.73-.48-.85-1.31,1.01-1.64-.22.09-.09-.06.83-.05.66-.27-.11-.14-.95-.36-.66.05-.5-.24.13-.45.25-.15.34-.01-.24.15-.28-.31.4-1.45.97-1.93.17-.04.33-.57,1.13-.7,1.07l.18-.75c-.04-.47-.46-.02-.37-.67-.45.87,1.24-.58.73.06,0-.65-.75,1.11-.49.09-.27-.02-.69.78-.82.02.05.14.41-1,.19-.99-.4.06-.18.34-.53.54l-.25.27c-.16.73-.32-.17-.34.68.07-.61-.63.25-.34-.95l.25-.94c-.18.04-.47.95-.69,1.35,0-.09,0-.3.03-.45-.33,1.46-.37-.2-.81.88-.24-.57-.87-.24-.82-1.19-.36.38-.73.85-.96.46.09-.12.19-.14.28-.45-.09-.47-.22-.1-.45.1.09-.21-.17-.94-.25-1.51-.36.37-.47,1.17-.62,1.64.13-1.49-.97.73-.94-.64.14-.17.56-.6.44-1.02.14-1.48-.75.93-.95.14l-.22,1.21c.03-.78-.75.53-.38-.66-.24.39-.34-.51-.62.65-.35-1.14-1.69.15-1.47-2.01-.14.17-.31-.1-.44.51-.04.68.34-.4.27.06-.09.01-.2.32-.26.47-.12-.32-.24-.45.22-1.34-.21-.83-1.03,1.81-1.44,1.2.17-.46.18-.66,0-.63l-.55.71c-.29-.3.14-1.13.38-1.94-.23.08-.44-.03-.72.54l.1-1.07c-.07.78-.31.43-.46.6l.15-.17c.07-.35-.21-.21-.35-.14-.14.5.02.77.09.95-.21.32-.33.19-.59.56.3-.77-.12-.65-.24-.78-.11-.22-.42.64-.46.59.13-.41-.26-.16.07-.68.1-.11,0,.44.21.11-.01-.34.24-1.04-.17-.6-.3.33-.47,1.55-.64.95.15-.16.27-.47.43-.73l-.17-.51-.25.7c.02-.19.07-.24.08-.35-.34.71-.55.07-.9.88-.18.02-.16-.6-.28-.73l.05-.05c-.04-.48-.37-.29-.69.14l.06-.15c-.08-.09-.35-.06-.62.31-.06-.62.86-2.69.27-1.9-.26-.07-.86,1.15-.92,1.63-.28-.64-1.22.32-1.24-.93-.17.26-.2.45-.39.57-.56-.52-1.73.3-1.72-1.28.3-.22.28-.69.43-1.09-.4.56.06-.72-.41.33-.23.64-.36.94-.28,1.26-.53.18-1.13-.05-1.12-.72,0,.34-.17.49-.33.65.42-.99.2-1.26-.16-.99l-.28.6.11-.68c-.16.16-.61,1.24-.59.57.08-.24.17-.48.2-.67-.43.41-1.09,1.12-1.13.5l.16-.97c-.14.05-.54.51-.46.85-.2-.71-.44-.88-.25-1.7-1.49,1.56-2.58,1.2-3.35.7l.22-.44c-.04-.52-.46.74-.48.36.26-.4.24-1.01.64-1.46-.11-.61-.75.6-1.05.72-.29.58.33-.31-.04.43-.13.2-.24-.65-.68.22.08-.39.43-1.02.63-1.36l-.39.35c.23-1.15,1.36-1.62,1.68-3.02l-.24.06c.25-1.01.93-.85.63-1.36-.38.36-1.12,1.58-1.13,2.05-.51.07-1.13,2.05-1.54,1.78.12-.58.4.03.65-.74.12-.81-.59.22-.66-.11.05.43-.52,1.25-.73,1.35-.03-.52.52-.78.25-1.01-.28.49-.75.74-.66,1.21-.64,1.11-.18-.47-.76.35.27-.86,1.18-1.75,1.03-2.31-.31.82-.91.88-1.27,2.13-.03-.29.24-.92.56-1.35.03-.57-1.13,1.22-.47-.37l-.44.77c.06-.29.07-.53.17-1.01-.16-.09-1.05.83-.47-.37-.11.1-.47-.13-.72.77,0,.62.56-.49.17.71.26-1-.4-.04-.69.2l.2-.48c-.17.14-.31-.05-.6.44.19-.24.31-.57.29-.72l-.42.67c-.5.2.51-1.29.09-1.24l.51-.43c-.11.09.09-.62-.17-.48-.37.62-.85,1.34-1.14,1.82-.32.2.27-.77-.23-.19l.61-.67c.14-.2.35-1.15.1-1.25-.26.15-.96.97-.88,1.44-.13-.05-.11-.53.21-.95-.38.09-.3.71-.73,1,.11-.48.1-1.24.22-1.96l.77-.96-.16-.09c.63-.76.21-.71.78-1.57-.04-.2-.33.05-.55.23-.38,1.62-1.34,1.82-1.9,3.2-.63.14,1.31-3.38-.19-1.53-.09.38-.82,1.29-.34,1.04-.21-.29-.85,1.24-.91.52.52-.42.4-1.48,1.15-2.09-.24.43.03.43.15.33.14-.57.68-1.33.4-1.47-.24.04-.49-.05-.8.66-.37.76.31.05-.19.76-.48.09.04-1.09-.78.18.27,0-.06.82-.33,1.34l-.42.19.3-.48c-.23-.57-.58.85-.91.52l.31-1.09c.53-.81.39.67,1.02-.76-.23-.19-.67.48-.73,0,.11-.09.21-.09.32-.19-.07-.09.77-1.99-.14-1.09-.4.32-.3.47-.57.99-.49-.05-.89.42-1.2.36.58-.99-.42-.34.41-1.23-.17.66.46.91,1.1.01.46-1.28.24.33.94-.84-.32-.19.3-1.38.65-2.18-.06-.1-.32.18-.43.28-.41.71-.29.76-.66,1.52-.27-.39-.83-.16-1.4.45.06-.42.48-1.13.66-1.13-.55,0-.96-.35-1.26-.78-.35,1.33-.61.04-.94,1.12.08.38-.17,1.33-.57,1.8-.1-.15.28-.52.35-.8-.52.56.27-1.18-.44-.25.6-.17.84-1.41,1.4-2.3-.56.37.36-.66.08-.8-.56.37-1.12.59-1.54.62.07-1.09-.99-.55-1.37-.71.07-.57.76-1.54.66-1.83-.24-.11-.44,1.22-.52.55l.15-.19c-.24.19-.24-1.05-1.17.38l.73-1.07c0-.14-.21.09-.33.18.2-.37.31-.74.55-.92.22-.89-.51-.12-.76-.22l-.22.75c-.69.3-.58-.5-1.09-.49l.38-.64-.45.26c.41-.6.44-1.12.02-.66l1.48-1.26c-.05.47-.62.68-.88,1.38-.23.61.22.63.63.04-.09-.15-.18,0-.42.17.47-.93.65-.78,1.09-1.33-.09,0-.03-.33-.21-.06.38-.36.56-.36.8-.25-.35.27-.23.61-.43.83.46-.79.82-.91.97-.53-.31,1.03.86-.3,1.04.13-.58.74-1.1,1.3-1.48,1.51-.02.52.24.1.23.63.43-.55,1.01-1.44,1.48-1.66l-.31.61c.41-.17.89-1.06,1.11-.73.37.58.92.87,1.29,1.16l-.3.61c.91-1.17,1.01-.08,1.61-.49.22.85,1.43,0,1.16,1.19,1.16,0,2.2-.05,3.05.65l-.6.81c.5-.57-.14.57.09.52.16-.81.69-.81,1.08-1.29.09.9,1.01.41,1.69-.03l-.28.62c.94-.97.91.26,1.3.68-.07.28-.25.9-.08.9.73-.87.83-.74,1.51-1.18.28.13.61.59.72,1.11,1.7-.92,2.36.46,3.84.09l-.24.77c1.75-1.1,2.44.88,3.7.45l-.61,1.23c.13.51.79-.06,1.09-.99.13.5.96-.32.72.79.2.35.6-.44.91-.51.39.72.66.7,1.31.67l-.11-.13c-.17.26-.39.8-.28.93.35-.27.63.64,1.01-.96.26,1.12,1.65-.19,1.78,1.22.11-.44.28-.46.45-.72.52.18.77,1.22,1.44.66,0,.24-.39.67-.19.79.18-.11.2-.55.44-.73,1.12-.49,1.43,1.41,2.28,1.46,1.64-.36,2.94.5,4.3.74l-.11.31c.78-1.07.69,1.54,1.55-.19.02.33.36.25.11.84.58-.76.78,1.08,1.57.12-.04-.04-.08.02-.17.14.34.83,1.03,0,1.42.75-.09.12-.21.2-.31.52.07.66.82-1.23.58.34.13.01.27-.75.18-.73,1.07.89,2.57.16,3.85.03.72,1.09-.41,2.64.5,1.6,0,.31.14-.59.1-.27.34-.39.14,1.81.47,1.02.07-.97.21-.52.31-1.1.45.71.44,1.6.98.92l-.1.5c.7-1.37,1.2-.51,1.8-2.13,2.75-.02,5.3-.85,7.55-1.28,1.16.06,2.21-.25,3.19-.53,1-.27,1.86-.59,2.91-.6.99.98,1.1.94,1.22.19.1.2.09.26.23.41-.55-.95.25-.28-.28-1.19.36-.08.57-.33.81-.54.22-.24.38-.52.64-.73,0,.15.58.84.64.7l-.4-.6.23.2c-.05-.18-.38-.63-.7-.81.22-.86.85-1.28,1.66-1.82.75-.56,1.64-1.25,1.81-2.29.62-.3.36-1.16.29-1.71,1.78-1.25,3.18-2.94,2.26-4.9,0,0,2.83.36,3.42,1.28Z"/>
    <path class="cls-1" d="M116.2,141.93c-.21.51-.15.9-.68,1.44.24-.46.42-1.02.68-1.44Z"/>
    <path class="cls-1" d="M119.27,150.07c.08-.14-.02.24-.04.33-.09,0-.38.37-.3.09.09,0,.2-.23.34-.42Z"/>
    <path class="cls-1" d="M120.64,151.15c-.25.43-.75.6-.97.55l.97-.55Z"/>
    <path class="cls-1" d="M121.15,153.68c-.06.43-.2.62-.36.52.11-.24.22-.33.36-.52Z"/>
    <path class="cls-1" d="M121.76,152.74c.12.05.05.34-.02.62.18-.38-.4.1.02-.62Z"/>
    <path class="cls-1" d="M124.25,155.56c.09,0,.43-.28.27.24.09-.38-.64.38-.27-.24Z"/>
    <path class="cls-1" d="M126.04,155.6c.03.05.01.14.13.04,0,.24-.26.52-.35.53l.22-.58Z"/>
    <polygon class="cls-1" points="154.4 164.33 154.16 164.51 154.31 164.05 154.4 164.33"/>
    <path class="cls-1" d="M167.41,166.7c.21-.29.09.47.11.55-.17.03.11-.6-.11-.55Z"/>
    <polygon class="cls-1" points="174.62 164.37 174.56 164.38 174.51 163.38 174.62 164.37"/>
  </g>
  <g>
    <path class="cls-1" d="M104.92,144.16c.14.07.51-.08.23.03-.23.01-.41,0-.23-.03Z"/>
    <path class="cls-1" d="M116.14,136.21c-.39,1.49-.41-.06-.72.89-.03.06.1-.83.03-.63-.31,1.16-.51.43-.68-.51l.03-.23c-.03-.18-.14.6-.18.48,0-.16.03-.22.03-.44-.04.47-.1.21-.14.56,0-.19.02-.56,0-.77l-.06.53c-.14,1.27-.18-.11-.31.56,0-.12.02-.22.02-.34-.19.78-.37.64-.55.92,0-.19.01-.54,0-.75,0,.57-.06.71-.1.82-.03-.58-.07.53-.13.21v-.13c-.02.61-.06-.35-.08.38l-.04-.46c0,.82-.07-.42-.09,0v.17c-.02.2-.05-.21-.07-.07v-.1c-.06.22-.12-.24-.09.4-.05-.51.05-.23-.02-.98-.2.66-.42.53-.64.59-.05-.25-.08-.33-.11-.57,0,.13-.07.13-.05.46,0-.01-.05-.32-.07-.35-.07-.23.05.7-.03.43,0-.17-.03-.38-.06-.61.03.5-.03.43-.05.6,0-.11,0-.17-.04-.37.03.57-.11-.11-.1.26l-.04-.37c-.14-.43.1.77,0,.51,0-.12-.03-.26-.06-.41.05.67-.07.47-.08.7,0-.05-.03-.15-.03-.15-.04.09-.15-.11-.15.19-.06-.16-.18-.89-.21-.74.16.73-.04.31.17,1.13-.08-.11-.22-.35-.19-.1-.04-.28-.24-.87-.21-.95l-.14-.43c-.07-.3.06.09-.04-.28-.02.04-.02.34-.07.23.07.46.25,1.29.22,1.4-.05-.29-.24-.78-.25-.91l.3,1.39s-.17-.56-.14-.37c.06.19.08.31.12.46-.03-.08-.02.2-.25-.49-.1-.27-.01-.16-.11-.4-.04.02.04.26,0,.28l-.03-.09c-.06-.09.02.32.18.69.02.02-.15-.41-.05-.22.12.41.12.53.09.55-.03-.12-.09-.3-.16-.5.14.56.16.74.19.98.12.33-.2-.6-.13-.43-.24-.43.12.67-.19.03-.02-.06.19.46.15.37-.04-.03-.23-.49-.18-.31-.12-.27.01.1.03.19.08.2-.06-.13-.06-.17.07.25.17.71-.07.34.08.18.28.67.26.65l-.2-.41c-.13-.24-.02.06-.2-.29.22.51-.1-.48.05-.07-.18-.34.27.68,0,.12-.02.03.19.5-.03.13.04.06-.27-.57-.27-.54,0,.09.09.2.13.35l.07.18c.21.39-.06-.04.19.4-.18-.32.06.22-.29-.43l-.27-.51s.27.55.38.78c-.03-.05-.09-.15-.14-.23.44.78-.07-.05.25.56-.19-.25-.09,0-.39-.46.11.24.27.53.15.39-.04-.07-.05-.1-.15-.26-.16-.21-.03,0,.03.12-.07-.11-.31-.41-.51-.66.12.24.4.63.57.87-.52-.71.27.51-.21-.13-.06-.1-.22-.37-.37-.54-.53-.69.34.56.06.24l.44.58c-.28-.35.21.37-.23-.23.15.22-.18-.16.26.39-.42-.43.13.35-.73-.6.07.1-.03.02.21.29.27.29-.17-.23.01-.02,0,.02.13.17.2.24-.12-.11-.17-.14-.54-.6-.34-.3.77.94.55.76-.2-.22-.28-.3-.26-.25l.33.39c-.1-.06-.47-.47-.82-.83.04.08,0,.08.26.35l-.46-.43c.33.31.2.23.28.32l-.08-.09c-.15-.15-.08-.03-.04.02.22.21.33.28.4.34.15.16.1.14.28.33-.35-.35-.27-.22-.32-.25-.09-.06.31.32.29.31-.19-.17-.05-.01-.3-.26-.05-.06.19.16.03,0-.14-.12-.47-.42-.25-.19.16.18.71.65.46.47-.09-.09-.23-.22-.35-.34l-.21-.15.33.3c-.09-.07-.11-.1-.16-.14.34.32.07.13.46.48.03.04-.25-.18-.3-.2l-.03-.03c-.21-.16-.1-.03.12.17l-.07-.06s0,.04.2.22c-.27-.19-1.31-1.05-.89-.67,0,.04.62.54.85.71-.26-.15.3.33-.28-.05.14.11.24.17.31.25-.18-.05.37.39-.39-.05-.15-.12-.37-.24-.59-.38.33.23-.36-.2.21.17.34.21.51.32.65.4.16.14.13.18-.2,0,.17.09.27.16.37.22-.55-.33-.65-.36-.46-.22l.34.2-.35-.19c.1.07.71.41.37.25-.13-.07-.27-.15-.37-.2.27.18.73.46.43.32l-.51-.25c.05.04.35.21.5.28-.32-.13-.37-.12-.82-.33,1.04.61,1.05.68.94.71l-.27-.12c-.26-.09.47.21.28.14-.25-.11-.57-.22-.88-.37-.3-.08.45.24.57.3.36.15-.22-.11.23.08.13.05-.29-.07.25.14-.21-.08-.61-.24-.83-.33l.26.12c-.64-.22-1.11-.5-1.9-.78l.08.06c-.58-.2-.62-.32-.83-.33.26.14,1.04.46,1.28.53.13.11,1.29.52,1.23.54-.33-.11-.06-.06-.52-.22-.45-.14.23.14.07.1.21.05.76.27.86.32-.27-.07-.51-.2-.58-.19.31.12.54.22.77.28.71.26-.21-.04.34.16-.51-.16-1.16-.43-1.43-.48.49.16.65.26,1.38.49-.15-.04-.53-.16-.83-.27-.31-.08.88.33-.1.02l.5.17c-.17-.05-.29-.08-.57-.15-.02.01.67.26-.1.03.08.03.03.06.57.2.33.07-.38-.14.34.06-.59-.16.07.05.26.12l-.3-.08c.11.04.05.04.37.13-.17-.05-.37-.11-.44-.12l.45.13c.22.09-.8-.21-.67-.15l-.35-.12c.07.03-.35-.08-.21-.02.41.12.91.26,1.23.35.18.06-.47-.11-.05,0l-.49-.15c-.14-.04-.69-.16-.68-.13.14.05.73.22.97.26,0,.01-.25-.04-.55-.12.14.06.45.11.7.19-.28-.05-.68-.12-1.09-.2l-.69-.19v.02c-.56-.16-.44-.08-1.03-.24-.1,0,.1.06.25.11.96.17,1.28.33,2.15.5.23.09-2.11-.41-.77-.08.23.04.88.19.64.11-.1,0,.87.19.5.15-.35-.09-.88-.14-1.39-.28.29.06.22.02.14,0-.33-.05-.87-.18-.88-.14.08.04.09.07.54.15.5.09-.05-.04.45.07.17.07-.59-.06.29.11-.06-.04.45.05.79.12l.2.06-.33-.06c-.24,0,.6.12.51.13l-.66-.09c-.56-.1.26-.01-.66-.16-.04.02.42.11.18.09-.08-.02-.1-.03-.18-.05-.03,0-1.25-.18-.55-.02.27.07.33.06.67.11.1.06.45.12.5.15-.67-.1-.07.04-.76-.08.4.04.37-.02-.27-.14-.8-.1.12-.02-.69-.16-.02.04-.81-.08-1.32-.15-.04,0,.18.06.26.08.49.07.48.07.98.13-.14.03.12.12.59.2-.24-.02-.73-.08-.77-.11.13.08.06.13-.09.17.8.05.18.08.84.12.18-.01.75.03,1.1.08-.05,0-.35-.04-.52-.05.43.06-.7-.04-.02.05-.25-.07-.97-.1-1.59-.17.35.07-.44-.05-.45,0,.34.08.61.15.74.2-.6.01-.02.14,0,.18-.32.01-1.02-.04-1.15,0,.01.04.76,0,.44.04h-.14c.16,0-.48.08.53.11l-.77-.03c-.07,0,.11.02.19.03-.25,0-.48,0-.64-.02-.53.03.08.08.1.12l.45-.02c.35.06-.09.1.07.16h-.44s.27.04.27.04c-.43,0-.71.05-.35.06l-1.09-.08c.26-.04.54.02.97,0,.38-.02.26-.08-.17-.08-.05.02.05.02.21.04-.62.02-.59-.02-1.01-.04.03.01-.16.04.03.04-.3-.02-.35-.05-.36-.1.24.03.38-.02.56,0-.54,0-.71-.05-.56-.11.63-.03-.4-.12-.23-.18.55.05.99.09,1.21.13.28-.03-.01-.04.27-.07-.41-.03-1.04-.07-1.29-.13h.41c-.2-.04-.81-.07-.69-.13.21-.1.22-.21.28-.28l.4.03c-.86-.12-.3-.18-.68-.28.39-.06-.36-.28.34-.24-.28-.22-.55-.45-.37-.62l.57.15c-.42-.12.34.04.26,0-.47-.05-.59-.16-.94-.26.47,0,0-.21-.37-.39l.4.09c-.72-.26-.05-.2.1-.27.17.03.54.12.5.08-.62-.23-.57-.24-.94-.44.01-.06.2-.11.47-.09-.8-.51-.16-.55-.58-.99l.45.16c-.86-.63.15-.54-.23-.97l.72.39c.25.06-.12-.23-.64-.49.25.06-.27-.35.34-.06.16.01-.29-.26-.35-.37.33.02.31-.05.26-.25h-.06c.14.11.44.29.5.29-.16-.16.29-.03-.56-.52.55.19-.17-.56.54-.25-.22-.15-.24-.21-.38-.33.07-.12.58.1.29-.27.12.07.33.31.39.28-.06-.09-.27-.22-.36-.34-.22-.49.7,0,.73-.23-.12-.6.32-.73.54-.99l.12.15c-.38-.65.69.44.06-.5.14.13.14,0,.35.32-.24-.48.49.25.21-.37-.02,0,0,.03.03.11.35.28.11-.28.44-.03.03.08.05.14.15.31.24.29-.34-.77.18.02.02-.02-.23-.41-.23-.38.44.18.4-.48.59-.82.44.41.71,1.42.55.71.09.16-.15-.33-.06-.16-.05-.27.53.91.36.45-.25-.52-.11-.31-.25-.63.27.29.49.76.41.31l.11.28c-.23-.85.07-.46-.19-1.41.55-.35,1.07-1.14,1.68-1.34.64.1,1.24-.47,1.88.02.19.8.19.77.32.45,0,.13,0,.16,0,.28-.02-.65.1-.06.09-.69.22.12.41-.06.64-.07-.04.07-.05.61,0,.56l.04-.42v.18c.04-.1.07-.42.04-.63.29-.29.58-.1.84.14.25.26.48.57.74.52.1.29.29.05.43-.07.3.91.52,1.64.99,1.08,0,0-.31,1.67-.5,2.04Z"/>
    <path class="cls-1" d="M104.84,144.07c.33-.03.51-.08.94-.06-.31.02-.65.04-.94.06Z"/>
    <path class="cls-1" d="M108.24,143.22c-.1-.01.13,0,.19,0,.02.01.3.04.13.04-.02-.01-.18-.02-.31-.04Z"/>
    <path class="cls-1" d="M108.45,143.06c.29.04.52.1.55.13l-.55-.13Z"/>
    <path class="cls-1" d="M109.67,143.07c.25.03.38.05.37.06-.15-.03-.23-.04-.37-.06Z"/>
    <path class="cls-1" d="M109.02,142.96s.17,0,.33.03c-.25-.04.15.05-.33-.03Z"/>
    <path class="cls-1" d="M109.91,142.81s-.25-.08.06-.01c-.22-.04.35.11-.06.01Z"/>
    <path class="cls-1" d="M109.51,142.59s.07.01,0-.01c.13.03.34.09.36.1l-.36-.09Z"/>
    <polygon class="cls-1" points="109.9 139.92 109.97 140.05 109.8 139.81 109.9 139.92"/>
    <path class="cls-1" d="M111.03,139.33c-.04-.18.1.25.12.29,0,.03-.11-.34-.12-.29Z"/>
    <polygon class="cls-1" points="111.46 137.69 111.45 137.7 111.33 137.11 111.46 137.69"/>
  </g>
</svg>