<?xml version="1.0" encoding="UTF-8"?>
<svg id="Layer_3" data-name="Layer 3" xmlns="http://www.w3.org/2000/svg" viewBox="0 0 95 95">
  <defs>
    <style>
      .cls-1 {
        fill: #fff;
      }

      .cls-2 {
        fill: #ff4f20;
      }
    </style>
  </defs>
  <g>
    <path class="cls-1" d="M47.86,75.95h-1.15c-16.33,0-29.57-13.24-29.57-29.57h0s60.29,0,60.29,0h0c0,16.33-13.24,29.57-29.57,29.57Z"/>
    <g>
      <path class="cls-2" d="M47.49,76.4c.57-.06-.3-.22.37-.1-.08.1-.19.17-.37.1Z"/>
      <path class="cls-2" d="M49.76,76.17c.45-.2.94-.26,1.44-.38.5-.11,1.03-.19,1.57-.25,1.08-.08,2.16-.36,3.07-.8.22-.08.04.35.53.14.44-.22.92-.53,1.47-.75.54-.25,1.15-.43,1.75-.67,1.19-.52,2.51-.9,3.6-1.4l-.07.16c.43-.18.73-.74,1.16-.95.04.05-.08.16.07.18,0-.21.67-.57.74-.81.2-.05.27.09.52.01l.09-.35c.14-.44.52-.71.94-.97.4-.29.84-.6,1.13-1.05,0,.07-.05.17.05.15.25-.34.54-.68.85-1.02.29-.36.59-.72.89-1.09.31-.36.62-.73.93-1.1.29-.38.55-.78.81-1.17.02.11.1.25.23.22-.14-.22.16-.71.41-1.13.35-.03.29-.82.7-1.24l.02.07c0-.5.46-.47.37-.92l.31-.13c-.21-.33.49-.43.48-.85l-.07-.02c.07-.34.3-.41.38-.72h.05c.23-.7.59-1,.34-1.09.31-.14-.21.67.24.44l.31-.85.25-.87c.18-.58.37-1.16.56-1.73l.45-1.76c.15-.59.33-1.16.39-1.76.15-.25.21-.42.32-.46-.02-.25.09-.91-.02-1.14,0,.08.16-.14.19-.26.17-.42-.23-.5-.08-.97.06.2.15.27.25.21-.19-.43-.13-.97-.17-1.46.04.08.06.2.15.18-.11-.27-.08-.51-.05-.74.02-.12.04-.23.05-.35,0-.06,0-.11,0-.17v-.09s-.02-.04-.02-.04h0s0-.02,0-.02h0s-.09-.1.09.09h0s0,0,0,0h0s-.02,0-.02,0l.02-.02h0s0,0,0,0h0s-.08-.08-.08-.08h0s0,0,0,0h0s0,.02,0,.02l.04.04.07.09s.02-.09.03-.13h0s0-.02,0-.02h0c-.17.02-.05-.17-.09-.09h0s0,0,0,0h-.03s-.05,0-.05,0c-.06,0-.1,0-.14,0-.07.02-.09.06-.11.11-.04.09-.07.19-.4.14.16-.05.1-.11.13-.17-.61.28-1.59.19-2.19.29.04-.02.03-.06.03-.06-.66.04-1.35-.05-2.07.07-.26-.07.09-.38-.61-.32.03.31-1.18.13-.77.48-.6-.05-1.54-.17-1.93-.06.27-.12-.29-.38.2-.41l-.37-.19c.06-.13.38.04.27-.12-.25.01-.97.14-1.19.09-.46.19-.88.55-1.62.59.35-.12-.2-.34.04-.4l-1.04.6c-.25.01-.05-.25-.41-.17.02.08-.14.13-.25.2-.09-.04-1.03.08-1.14-.23-.11-.12.4-.07.13-.17-.46,0-.48.11-.93.11v-.04c-.31-.05-.9.13-.57.3.21.01-.08-.19.23-.1-.21.18-.74.23-1.2.23.16-.05.14-.13.2-.22-.61.24-1.26.32-1.95.42-.01.15.26-.27.36-.19-.88-.2-1.81.29-2.55,0,.12-.03.06.21.06.17-.42-.02-.4-.23-.68-.15-.03-.12-.35.04-.63.08-.15.09-.07-.06.17-.07-.4.11-1.98.3-2.89.12.02.08-.56.3-.77.29l.08-.19c-.19-.12-.7.02-.74-.15-.45.23,1.73-.2,1.12-.02-.16-.16-.85.31-.71.04-.42,0-.83.22-1.23.04.12.03.34-.27,0-.25-.6.03-.17.09-.66.16l-.31.08c-.02.19-.54-.03-.31.18-.07-.16-.87.1-.81-.22l.08-.24c-.26.02-.42.26-.63.37-.03-.02-.1-.07-.09-.11-.04.38-.62-.03-.93.26-.54-.13-1.38-.01-1.64-.25-.42.11-.8.25-1.28.17.1-.04.23-.05.25-.13-.3-.11-.37-.01-.65.05.06-.06-.6-.22-.93-.35-.42.11-.27.31-.31.44-.38-.37-1.17.24-1.65-.1.14-.05.61-.18.26-.28-.38-.37-.77.27-1.38.1l.15.31c-.27-.19-.9.18-.84-.14-.21.11-.72-.1-.65.2-1.01-.25-2.45.15-3.07-.38-.14.05-.5,0-.43.15.24.17.33-.12.42,0-.13,0-.16.09-.17.13-.31-.07-.56-.09-.26-.34-.7-.19-.72.51-1.6.39.04-.12-.03-.17-.29-.15l-.49.21c-.57-.05-.33-.28-.34-.49-.31.04-.68.03-.82.18l-.37-.26c.27.19-.25.13-.4.18l.14-.05c-.06-.09-.41-.03-.59,0,.04.13.4.18.6.22-.16.09-.4.07-.61.18.07-.21-.5-.15-.74-.17-.28-.04-.31.19-.4.18,0-.11-.46-.02-.24-.17.1-.03.22.1.37.01-.18-.08-.16-.27-.54-.13-.29.1.07.41-.47.28.14-.05.17-.13.28-.21l-.51-.11-.02.19c-.07-.05-.02-.06-.05-.09-.15.2-.78.06-.9.28-.26.02-.54-.13-.79-.15l.05-.02c-.3-.11-.7-.04-.95.09v-.04c-.15-.01-.54.01-.74.13-.42-.14-.14-.71-.6-.47-.42,0-.66.34-.49.46-.76-.13-1.62.18-2.32-.11-.11.08-.04.12-.26.17-1.11-.07-2.35.22-3.23-.15.32-.08.02-.19.01-.29-.27.17-.32-.17-.42.11.03.17,0,.25.31.32-.17.02-.35.04-.55.05h-.29s-.04.01-.04.01h0s0,0,0,0h0c.54-.54-1.2,1.2,1.21-1.21h0s0,0,0,0v.02s0,.07,0,.07v.14c.02.36,0,.7-.08.88.07-.18.13-.04.19.09-.27-.04-.29.44-.18.79l.17.04-.16.24c.06.13.35.12.21.49-.06.02-.13.05-.17.12.18.35.49.83.41,1.24l-.19.36c.05.17.24.42.26.12-.03.69-.01,1.14-.14,1.39.4.52.7,1.18.95,1.88.21.71.54,1.39.74,2.04h-.13c.02.39.27.11.27.38-.15-.07-.14.36-.38.14.07.54.41.56.62.84.17-.02-.21-.2,0-.23.08.03.2.7.46.67-.03.16-.24.14-.36.12l.25.24c-.09.48-.86-.6-1-.08l.17.26c-.11.37-.61-.61-.36.12.26.25.7.35.67.04.36.58.66.03.96.68-.04.24-.28-.5-.4-.29-.03.4.39.57.47.87-.07-.34.27-.2.42-.04.09.37-.33-.09-.08.36.17,0,.51.35.38-.04.37,0,.2.5.56.61-.1.26-.72-.18-.52.36.14-.19.62.44.73.01.06.22-.07.34-.27.27.06.34.72.45.44.76l.25-.04c0,.12.04.26.04.46.17.23.78.54.5.72.08.05.45.57.49.23-.12-.4-.41-.26-.29-.63-.04.38.37.44.57.56l-.08.11c.12.08.29.34.44.32-.12-.04-.16.07-.11.17l.25-.02c.44.34-.18.32.23.68l-.39-.2c.09.04.07.3.29.45.2-.04.49-.05.65-.08.26.17-.06.24.28.33l-.42-.14c-.08,0-.04.4.24.7.22.15.68.26.47-.11.14.15.25.44.05.41.38.27.09-.17.46.01.04.19.29.66.4.99l-.52-.06.21.19c-.44-.07.01.26-.31.31.12.16.35.25.53.33-.14-.68.84,0,.96-.39.62.43-.23,1.02.77,1.05-.04-.15.43-.15-.02-.35.35.31.48-.1.83.35-.42-.12.13.57-.48.39.11-.07-.21-.27-.31-.3.07.23-.26.27.13.57.26.15.59.39.66.2.11-.18-.38-.25-.1-.31.51.29.41.62.82.45-.31-.2-.26-.43-.17-.55l.39.18-.15.07c.49.49.31-.09.84.29l.11.4c-.27.12-.77-.59-.88-.2.36.24.6.15.89.44-.1-.02-.21-.08-.3-.09.12.09-.01.61.68.68.34.07.14-.08.23-.2.62.32.86.32,1.28.48-.22.21.7.37.12.41-.06-.13-.33-.28-.61-.42-.27-.15-.58-.25-.75-.19.05.43-.45-.33-.76-.11.48.3.29.58.26.81.13.1.31.1.41.12.16-.14-.02-.25.08-.44.5.4,1.13.55,1.53.52.14.18,0,.34-.24.25.72.26,1.41.68,2.07.99-.31-.47.78.2.59-.17-.33-.2-.55-.53-.29-.6.21.1-.06.13,0,.23.35-.07.33.44.72.27-.68-.13-.27.34-.48.54.52.03-.09.17.38.34.53.03,1.13.16,1.68.25.6.41,1.71.44,2.31.59.29.21,0,.46.35.57.42.06-.25-.36.34-.14l-.07.05c.19-.04,1.09.37,1.34-.02l-.24.29c.11.05.23-.01.33-.03-.01.1.11.22-.09.26.35.27.81.1,1.22.13-.08-.06-.17-.14-.25-.22.72-.08,1.19.11,1.88.08l-.03.19.42-.09c-.11.18.27.31.49.17l-1.1.4c-.3-.13.34-.21.16-.4-.15-.17-.79-.15-.91.02.25.03.26,0,.46-.06.07.26-.31.23-.51.4.13,0,.31.08.35,0-.26.11-.53.12-.96.1.3-.09-.14-.17-.03-.24-.06.24-.47.24-.99.1-.34-.32-1.01.02-1.61-.15.29-.19.63-.33,1.01-.36-.36-.17-.42-.06-.78-.23-.21.14-.4.4-.91.4v-.17c-.45-.03-.51.22-1.06.03-.95-.32-1.95-.58-2.64-.89l.03-.17c-.52.2-1.37-.35-1.97-.41-.81-.57-1.98-.77-2.3-1.25-1.54-.74-2.93-1.4-4.29-2.56l.39-.02c-.37-.04-.08-.24-.35-.39.16.37-.5-.05-.78-.07-.49-.66-1.36-1.2-2.01-1.55l.1-.14c-.78-.23-1.11-1.12-1.68-1.79-.02-.12,0-.35-.19-.53-.54-.17-.67-.4-1.23-.86-.31-.42-.76-1.14-.99-1.62-.67-.72-1.22-1.56-1.75-2.4-.45-.89-.89-1.8-1.43-2.68l.13-.22c-.53-.85-.96-1.88-1.25-2.91-.24-1.05-.49-2.05-.76-2.86l.36.09c.02-.54-.27-1.17-.49-1,.02-.54-.37-1.3-.14-1.67-.01-.54-.21-.65-.29-1.1.04-.55.04-.93.03-1.29-.01-.18-.03-.36-.04-.56-.01-.1-.02-.2-.03-.32v-.09s-.01-.02-.01-.02h0s0,0,0,0c.57-.57-1.28,1.28,1.28-1.28h0s0,0,0,0h.01s.04,0,.04,0c.06,0,.12,0,.18-.01h-.12s-.06-.02-.06-.02h-.03s-.02,0-.02,0h0s0,0,0,0l-1.31,1.31h0s0,0,0,0h0c.04.06.1.09.15.08.02,0,.05-.03.06-.06h0s0-.02,0-.02h0s0,0,0,0h1.1s0-1.1,0-1.1h0s0,0,0,0h0s.03.01.03.01c.02,0,.05.01.08.01.37-.1,1.36.09.99-.32,1.06.24,2.46-.19,3.49.13-.09-.11.17-.13.28-.21.93,0,1.9.22,2.64.03.15.06-.23.19.14.2.22-.04,0-.15.28-.21,1.5-.21,3.04.22,4.4.16,2.43-.22,4.96-.11,7.28-.14l-.03.08c.78-.31,1.83.32,2.45-.15.18.08.7.04.57.2.62-.22,1.74.21,2.63-.07-.08,0-.13,0-.22.04.9.18,1.7-.07,2.66.1-.1.04-.27.06-.3.14.37.16.87-.35,1.08.05.21,0,.15-.2.02-.19,2.09.15,4.32-.1,6.5-.19,1.56.24.1.67,1.33.37.1.08.07-.15.09-.07.48-.11.74.44,1.07.24-.14-.24.22-.14.23-.28.95.16,1.14.38,1.9.19l-.06.13c.88-.36,1.9-.17,2.65-.59,4.86-.08,9.53-.31,14.27-.36,1.17,0,2.34.01,3.5.02h.22s.11,0,.11,0h.01s0,0,0,0c-1.58-1.58,2.15,2.15,1.77,1.77h0s0,.03,0,.03v.06s-.02.46-.02.46l-.04.92c-.03.61-.04,1.23-.1,1.85-.32,2.44-.79,4.9-1.79,7.22-.75.98-.68,1.09-1.13,2.29-.03-.07,0-.15-.09-.09.22.17-.37.83-.18,1.05-.22.41-.4.83-.63,1.22l-.69,1.16c-.23.39-.46.78-.69,1.17-.25.39-.54.75-.82,1.14.16-.26.06-.51-.13-.22l-.08.41h-.1c-.11.22-.17.52.06.37-.64,1.03-1.5,1.89-2.3,2.77-.83.87-1.79,1.59-2.69,2.36-.99.66-1.93,1.38-2.96,1.96-1.04.56-2.01,1.22-3.08,1.7-.53.19-1.13.48-1.75.79-.63.27-1.28.54-1.84.77-3.53.81-6.69,1.05-10.28,1.36,0,0,.47-.74,1.9-.98Z"/>
      <path class="cls-2" d="M46.81,76.43c-.12-.13-.52-.24-.2-.4.04.13.24.28.2.4Z"/>
      <path class="cls-2" d="M36.78,73.2s-.12-.1-.14-.14c.12.03.27-.04.34.07-.12-.03-.13.03-.2.07Z"/>
      <path class="cls-2" d="M34.41,72.11c.09-.09.63.06.93.19l-.93-.19Z"/>
      <path class="cls-2" d="M32.52,70.53c-.12-.2-.04-.22.19-.07-.02.07-.11.05-.19.07Z"/>
      <path class="cls-2" d="M32.23,70.68c-.17-.1-.22-.22-.27-.33-.05.09.43.18.27.33Z"/>
      <path class="cls-2" d="M28.24,67.33c-.1-.08-.37-.18-.36-.36.03.16.55.29.36.36Z"/>
      <path class="cls-2" d="M26.37,65.8c-.05-.06-.05-.1-.14-.15-.06-.14.11-.09.2-.01l-.06.16Z"/>
      <polygon class="cls-2" points="40.89 47.3 40.62 47.36 40.66 47.24 40.89 47.3"/>
      <path class="cls-2" d="M61.17,47.3c.27-.08.19.12.24.13-.25.01.09-.15-.24-.13Z"/>
      <polygon class="cls-2" points="72.11 46.68 72.03 46.69 72.06 46.44 72.11 46.68"/>
    </g>
  </g>
  <g>
    <path class="cls-1" d="M78.07,45.45c0,5.55-14.06,12.42-30.79,12.42s-30.36-6.8-30.36-12.34,13.63-7.75,30.36-7.75,30.79,2.13,30.79,7.68Z"/>
    <g>
      <path class="cls-2" d="M78.5,45.81c-.01-.56-.24.28-.07-.37.09.07.16.19.07.37Z"/>
      <path class="cls-2" d="M77.92,43.71c-.7-.59-1.36-1.18-2.16-1.74-.78-.54-1.66-1-2.56-1.13-.2-.05.18-.31-.29-.4-1.77-.13-4.27-1.02-6.28-1.74l.14-.08c-.38-.13-.92.11-1.32,0,0-.07.15-.07.06-.18-.13.18-.77-.02-.97.1-.15-.1-.12-.25-.32-.37l-.27.19c-.73.45-1.61-.24-2.55-.05.05-.05.14-.08.08-.14-1.49.18-3.31-.03-4.95,0,.07-.08.14-.22.05-.31-.09.23-.6.27-1.04.29-.19-.26-.76.19-1.27.03l.05-.05c-.39.24-.56-.17-.88.13l-.23-.2c-.18.34-.54-.2-.86-.03v.07c-.29.08-.44-.1-.72-.05l-.03-.04c-.64.08-1.01-.12-1,.15-.22-.22.62-.09.28-.41-2.12.24-4.3.18-6.43.22-.24-.11-.4-.14-.45-.24-.21.06-.8.07-.99.21.07,0-.14-.14-.25-.15-.39-.09-.41.31-.84.2.17-.08.22-.17.16-.26-.36.22-.84.2-1.27.29.06-.05.17-.08.15-.16-.46.26-.86-.02-1.26.15l.15-.16c-.67-.16-.18.34-.76.25.13-.06.08-.11.11-.18-.52.31-1.39.26-1.91.4.03-.02.02-.07.02-.07-.58.07-1.19.03-1.81.2-.24-.05.04-.39-.56-.28.05.31-1.03.22-.63.54-.52,0-1.36-.04-1.7.11.22-.15-.3-.35.13-.43l-.35-.15c.03-.13.34,0,.22-.14-.22.04-.84.23-1.04.21-.38.24-.7.64-1.34.77.29-.17-.22-.32-.02-.4l-.81.73c-.21.05-.09-.24-.38-.11.03.08-.1.15-.18.23-.09-.02-.87.22-1.02-.06-.12-.1.34-.13.08-.19-.39.08-.39.18-.79.26l-.02-.04c-.27,0-.74.29-.42.4.18-.03-.11-.17.18-.14-.15.22-.59.36-.97.45.12-.08.09-.16.12-.25-.47.36-1,.56-1.54.82.03.14.14-.31.25-.26-.8,0-1.42.7-2.1.63.09-.06.12.18.1.14-.35.1-.4-.1-.6.06-.07-.11-.26.14-.47.27-.08.14-.08-.04.11-.12-.28.22-1.39.93-2.08,1.2.06.07-.2.49-.31.59l-.07-.19c-.18,0-.41.35-.53.26-.04.2.15-.06.37-.31.21-.25.46-.47.3-.26-.22-.06-.33.65-.42.38-.25.22-.31.58-.61.69.07-.04-.05-.37-.2-.16-.25.38-.01.16-.14.49-.01.08-.03.15-.04.22.17.09-.16.32.09.26-.19,0-.05.53-.35.44l-.23-.1c-.01.2.23.34.32.46-.03.02-.07.07-.11.06.38,0,0,.42.34.57-.06.39.32.89.22,1.17.26.22.54.38.71.72-.07-.04-.14-.11-.22-.08.06.26.17.25.36.37-.07,0,.15.51.27.8.33.16.38-.07.49-.13-.02.49.87.46.98.95-.12-.03-.52-.17-.34.08.03.5.68.18,1,.62l.07-.33c.08.3.73.27.51.51.21,0,.46.42.57.13.6.66,1.87.88,2.12,1.59.13.01.39.19.4.03-.11-.24-.31-.02-.33-.16.1.04.16-.02.19-.05.21.18.4.28.06.41.48.41.77-.2,1.42.2-.08.1-.05.17.17.23l.47-.03c.44.23.16.36.09.57.26.06.56.19.73.08l.21.36c-.16-.26.25-.05.39-.05h-.14c.02.11.33.16.48.18,0-.14-.27-.29-.42-.38.16-.04.35.05.55,0-.12.17.36.29.55.37.22.12.32-.09.38-.06-.03.1.37.14.14.22-.09,0-.15-.16-.31-.11.13.12.05.3.41.27.27-.02.06-.41.47-.14-.13.01-.18.09-.29.13l.39.23.07-.17c.04.06,0,.07.02.1.18-.15.67.13.82-.05.22.04.42.25.62.32h-.04c.22.18.58.2.82.13l-.02.04c.13.05.47.1.67.03.32.22-.04.72.4.58.36.07.64-.22.52-.36.62.27,1.4.11,1.95.5.11-.06.06-.11.25-.12.94.24,2.03.1,2.75.56-.29.04-.04.18-.05.29.25-.13.26.21.37-.07,0-.17.03-.25-.23-.35.58-.02,1.45.08,1.75.26-.15-.09-.02-.13.11-.17-.07.27.35.34.68.28l.06-.16.19.19c.13-.04.16-.33.47-.15.01.06.03.13.08.18.34-.11.82-.31,1.17-.15l.28.25c.16-.02.42-.16.15-.24.61.17,1,.2,1.19.41,1.07-.49,2.59-.5,3.82-.53l-.03.12c.33.1.16-.22.39-.15-.1.12.26.25.01.4.48.11.6-.25.9-.32.04-.16-.24.12-.19-.09.05-.06.66.09.71-.16.12.09.05.27-.01.38l.28-.14c.38.26-.77.56-.37.89l.27-.06c.28.24-.69.33,0,.38.29-.14.51-.52.24-.6.6-.12.23-.61.88-.64.19.13-.51.08-.37.27.32.17.6-.16.88-.12-.31-.07-.08-.33.11-.4.34.08-.19.26.28.23.06-.15.48-.3.1-.36.13-.34.49.03.71-.24.18.21-.42.57.11.63-.11-.2.59-.37.28-.66.21.04.25.2.12.35.3.09.63-.49.79-.07l.07-.23c.1.06.23.1.4.19.25-.04.76-.43.79-.09.07-.05.65-.12.39-.32-.38-.08-.38.23-.63-.05.29.21.5-.11.69-.23l.06.12c.11-.07.39-.1.44-.25-.08.09-.02.17.09.18l.09-.22c.47-.19.18.32.65.17l-.33.22c.07-.05.27.1.49,0,.05-.2.18-.44.22-.6.25-.13.16.17.39-.06l-.3.29c-.04.07.29.24.65.16.22-.11.51-.44.13-.46.18-.04.45,0,.34.17.39-.16-.1-.18.23-.37.17.08.65.15.96.25l-.29.38.25-.06c-.26.31.21.14.09.43.18,0,.36-.14.5-.25-.59-.27.4-.68.16-1.01.63-.27.65.76,1.18,0-.14-.06.1-.43-.28-.2.42-.08.17-.44.69-.43-.31.25.49.25.04.61,0-.13-.31,0-.38.05.21.09.07.37.49.25.25-.11.59-.23.48-.4-.07-.2-.38.15-.28-.11.48-.23.66.05.76-.37-.31.13-.45-.06-.49-.2l.34-.2-.03.16c.62-.09.09-.3.67-.46l.36.17c-.06.27-.85.18-.63.52.37-.11.43-.34.81-.37-.07.06-.17.1-.23.16.13-.04.45.42.87-.07.23-.21.02-.16-.02-.3.57-.26.69-.46,1.05-.64.03.3.66-.24.37.2-.25-.07-1.08.27-1.19.6.33.23-.48.13-.49.5.48-.17.57.15.73.33.14-.04.24-.17.3-.23-.02-.21-.19-.15-.28-.34.55-.14,1.01-.47,1.22-.77.21.02.24.23.04.34.6-.32,1.26-.58,1.86-.81-.52-.12.6-.38.23-.51-.34.08-.7,0-.6-.23.2-.07.06.14.17.16.16-.28.51.08.61-.3-.48.38.08.42.11.71.32-.34.07.18.46-.03.33-.33.74-.7,1.13-1,.66-.1,1.31-.82,1.73-1.16.3-.06.33.29.61.14.29-.23-.41-.09.1-.31v.08c.07-.15.9-.49.7-.92l.1.35c.09-.05.11-.17.15-.25.08.07.23.06.16.22.41-.07.47-.54.71-.81l-.3.05c.29-.55.68-.77.92-1.31l.16.11.06-.37c.13.16.38-.1.3-.33.05.35.02.7,0,1.07-.24.18-.04-.37-.29-.31-.21.04-.46.53-.38.71.15-.16.11-.2.15-.38.26.08.08.36.11.6.07-.1.22-.2.17-.27-.02.28-.16.47-.4.78.09-.27-.21.01-.21-.12.15.17-.04.5-.42.8-.42.05-.53.75-1.02,1.05.02-.33.12-.65.3-.93-.33.14-.28.25-.61.38-.01.24.06.52-.23.88l-.12-.12c-.27.32-.13.52-.58.78-.78.44-1.57.89-2.17,1.2l-.1-.14c-.15.5-1.04.7-1.42,1.06-.84.22-1.64.91-2.16.8-1.35.68-2.56,1.23-4.07,1.62l.18-.31c-.21.25-.21-.09-.47.02.36.1-.29.35-.44.55-.72,0-1.53.43-2.09.74l-.06-.16c-.53.46-1.33.34-2.09.45-.1-.05-.27-.19-.49-.12-.36.35-.58.38-1.16.65-.45.07-1.18.13-1.65.08-1.63.62-3.39.55-5.14.88l-.14-.19c-1.7.53-3.82.15-5.29.33l.15-.34c-.45-.12-1.05.05-.94.3-.46-.12-1.16.11-1.43-.19-.47-.09-.59.12-.98.13-.93-.21-1.28-.21-2.17-.25l.22.05c.11-.06.13-.21-.09-.25-.34.06-1.2-.24-.92.21-.91-.36-2.23-.12-3.09-.61.06.12-.18.1-.29.16-.83-.14-1.64-.56-2.33-.52-.12-.09.25-.14-.08-.23-.21,0-.04.14-.29.15-1.38-.11-2.61-.9-3.8-1.22-2.17-.46-4.28-1.43-6.2-2.38l.06-.06c-.79-.06-1.32-1.09-2.05-.99-.1-.16-.54-.39-.34-.45-.62-.13-1.22-1.09-2.04-1.43.05.06.1.08.19.11-.54-.69-1.28-1.06-1.76-1.92.09.06.22.18.3.14-.1-.38-.83-.48-.6-.89-.12-.18-.25-.02-.17.08-.51-.94-1.06-2.05-1.03-3.4-.01-1.36.7-2.64,1.53-3.47.71-.47.83-.32.88-.24.05.09.01.15.43-.32.12,0-.03-.17.03-.11.34-.35.84,0,1.01-.33-.23-.16.12-.22.06-.35.89-.27,1.13-.13,1.71-.56v.14c.63-.65,1.59-.74,2.13-1.34,4.3-1.27,8.45-1.95,12.68-2.33,4.19-.22,8.28-.5,12.52-.26.99.35,1.06.34,2.15.22-.04.05-.11.06-.04.12.06-.27.77,0,.88-.27,1.57.09,3.01.07,4.63.15-.26.02-.4.24-.09.23l.33-.16.05.08c.21-.03.44-.15.23-.25,4.09.01,8.04.94,12.01,1.69.92.31,2.28.52,3.33.79,1.47.64,2.84,1.35,4.15,2.28.66.47,1.3,1.01,1.87,1.73.56.71,1.01,1.68,1.07,2.73,0,0-.19-.15-.41-.45-.23-.31-.53-.72-.94-1.29Z"/>
      <path class="cls-2" d="M78.41,46.48c-.15.09-.36.4-.43.07.14.01.32-.14.43-.07Z"/>
      <path class="cls-2" d="M70.88,51.78s-.14.01-.18,0c.09-.06.13-.21.24-.19-.09.06-.05.11-.07.19Z"/>
      <path class="cls-2" d="M68.76,52.7c-.02-.13.39-.42.65-.55l-.65.55Z"/>
      <path class="cls-2" d="M66.57,53.04c-.21-.03-.18-.1.05-.19.04.05-.03.11-.05.19Z"/>
      <path class="cls-2" d="M66.52,53.36c-.17.07-.28.03-.38,0,.04.1.37-.2.38,0Z"/>
      <path class="cls-2" d="M61.94,54.41c-.11.04-.32.2-.45.09.14.06.49-.29.45-.09Z"/>
      <path class="cls-2" d="M59.86,55.1c-.07,0-.1,0-.18.04-.14-.03-.02-.14.08-.18l.1.14Z"/>
      <polygon class="cls-2" points="21.25 50.16 21.47 50.25 21.37 50.33 21.25 50.16"/>
      <path class="cls-2" d="M25.69,40.54c.21-.13.19.07.23.08-.2.06.04-.17-.23-.08Z"/>
      <polygon class="cls-2" points="35.04 38.54 34.97 38.55 34.97 38.3 35.04 38.54"/>
    </g>
  </g>
  <g>
    <ellipse class="cls-1" cx="47.5" cy="50.76" rx="27.13" ry="6.17"/>
    <g>
      <path class="cls-2" d="M75.05,51.12c0-.55-.24.25-.06-.36.09.07.16.19.06.36Z"/>
      <path class="cls-2" d="M74.3,49.29c-.73-.31-1.36-.71-2.08-1.1-.71-.39-1.46-.74-2.23-.79-.17-.03.16-.32-.25-.36-1.52.02-3.63-.79-5.32-1.47l.12-.08c-.32-.13-.78.12-1.13.02,0-.07.13-.07.06-.18-.12.18-.65-.01-.82.11-.13-.1-.09-.25-.26-.36l-.24.19c-.64.45-1.36-.23-2.16-.04.04-.05.12-.08.07-.14-1.27.18-2.8-.03-4.19-.01.06-.08.12-.22.05-.31-.09.23-.52.26-.89.29-.15-.25-.65.18-1.07.02l.04-.05c-.33.24-.47-.17-.74.12l-.19-.2c-.16.34-.46-.2-.73-.03v.07c-.25.07-.37-.1-.61-.06l-.02-.04c-.55.07-.86-.13-.85.14-.18-.22.53-.08.24-.41-1.8.22-3.64.16-5.44.19-.21-.1-.34-.14-.39-.24-.18.06-.68.06-.84.21.06,0-.12-.13-.22-.15-.33-.09-.35.31-.71.2.14-.08.19-.16.14-.26-.3.22-.71.2-1.07.29.05-.05.14-.08.12-.16-.39.25-.73-.02-1.07.15l.12-.16c-.57-.16-.15.33-.64.25.11-.06.07-.11.09-.18-.44.3-1.17.26-1.61.38.03-.02.02-.06.02-.06-.49.07-1.01.02-1.53.19-.2-.05.03-.39-.48-.28.05.31-.87.21-.53.53-.44,0-1.15-.05-1.44.09.18-.14-.26-.36.11-.42l-.3-.16c.03-.13.29,0,.18-.14-.18.03-.71.22-.88.19-.32.23-.58.63-1.13.74.24-.15-.19-.32-.03-.4l-.68.7c-.18.04-.08-.24-.33-.12.03.08-.08.15-.15.22-.07-.02-.74.2-.87-.09-.1-.11.29-.11.07-.19-.34.06-.33.16-.67.23v-.04c-.24,0-.64.25-.37.37.15-.02-.09-.17.15-.12-.12.2-.5.32-.83.39.1-.07.07-.15.1-.24-.4.32-.85.5-1.32.7.02.14.13-.3.22-.24-.68-.06-1.23.58-1.82.43.08-.05.1.19.08.15-.3.06-.35-.15-.52-.02-.05-.11-.23.11-.42.2-.08.12-.07-.04.1-.11-.26.17-1.28.7-1.95.77.04.07-.26.42-.39.48l-.02-.2c-.17-.05-.44.22-.54.08-.2.34,1.05-.67.72-.33-.17-.11-.43.52-.45.24-.28.12-.43.45-.76.41.09,0,.09-.34-.12-.22-.35.24-.06.14-.32.36-.05.06-.09.11-.13.18.09.16-.3.17-.07.27-.15-.1-.36.4-.54.14l-.12-.22c-.12.12-.02.38-.02.53-.03,0-.09,0-.12-.04.13.13.08.19.03.22-.06.03-.12.11,0,.2-.22.13-.09.43-.26.58.08.07.19.1.25.15.08.02.11.07.19.2-.07-.01-.12-.06-.19-.01.02.2.14.16.29.23-.07.01.13.41.26.64.3.07.32-.16.41-.25.02.46.79.18.93.62-.11,0-.46-.03-.28.17.08.46.61-.02.94.31l.02-.32c.11.25.66.07.5.34.18-.05.45.27.51-.03.6.48,1.71.39,2.01,1.01.11-.02.36.1.34-.07-.13-.21-.27.05-.3-.07.09.02.13-.06.15-.1.2.12.37.19.1.38.45.31.63-.37,1.23-.11-.06.11-.02.17.17.19l.4-.13c.4.14.18.33.14.53.23,0,.5.07.63-.06l.22.31c-.16-.23.21-.09.32-.12l-.11.03c.02.09.29.09.43.08,0-.13-.26-.23-.4-.29.13-.07.3-.02.47-.1-.09.19.34.21.51.26.2.08.26-.15.32-.13-.01.11.33.07.15.19-.07.02-.14-.13-.27-.05.12.1.08.28.38.19.23-.07.01-.41.39-.22-.11.03-.14.11-.24.17l.36.17.04-.18c.04.05,0,.07.03.09.14-.18.58.02.69-.18.19,0,.38.19.55.23h-.04c.21.15.51.12.71.01l-.02.04c.12.03.41.04.57-.06.29.18.02.72.39.52.31.03.52-.29.41-.42.54.18,1.2-.05,1.69.28.09-.07.04-.12.21-.15.81.15,1.74-.08,2.37.33-.24.06-.03.19-.03.29.21-.16.23.19.31-.09,0-.17.02-.25-.21-.34.49-.06,1.24-.02,1.5.15-.13-.09-.02-.13.09-.18-.05.27.31.33.59.24l.05-.16.17.18c.11-.05.13-.34.39-.17.01.06.02.13.07.18.29-.12.69-.34,1-.19l.24.25c.13-.02.36-.16.13-.24.52.16.86.18,1.02.39.91-.49,2.22-.51,3.27-.48l-.03.12c.28.11.14-.22.34-.13-.09.12.22.25,0,.4.41.12.52-.22.78-.28.04-.16-.21.11-.16-.1.04-.06.56.12.62-.13.1.09.03.28-.02.38l.24-.13c.31.28-.68.53-.35.87l.23-.04c.22.25-.6.3-.02.38.25-.13.45-.49.23-.59.52-.08.22-.59.78-.59.16.14-.44.05-.33.25.27.19.52-.12.75-.06-.26-.08-.05-.34.11-.39.29.1-.17.24.23.25.06-.14.42-.27.1-.35.13-.33.42.07.62-.19.14.22-.39.54.06.63-.08-.21.53-.32.28-.63.17.05.2.22.08.36.25.12.57-.43.68,0l.07-.23c.08.07.19.12.33.23.22-.01.67-.35.68,0,.07-.04.56-.06.35-.28-.31-.12-.34.19-.53-.11.23.24.44-.06.61-.16l.04.13c.1-.06.34-.05.4-.19-.07.08-.03.17.06.19l.09-.21c.42-.13.13.34.54.25l-.3.18c.07-.04.22.13.42.06.06-.19.19-.41.24-.56.23-.1.12.19.33-.01l-.28.24c-.04.06.23.28.54.25.19-.08.48-.37.16-.44.16-.02.39.07.27.21.35-.1-.06-.19.23-.33.14.11.54.24.8.39l-.29.33.21-.02c-.25.27.16.17.03.44.15.02.32-.08.45-.16-.47-.36.41-.61.25-.97.56-.17.47.86,1,.2-.11-.08.14-.4-.21-.25.36,0,.2-.4.64-.3-.29.19.39.33-.04.61.01-.13-.27-.06-.33-.02.17.12.02.38.39.33.22-.06.53-.11.46-.3-.04-.21-.34.07-.23-.16.44-.13.56.17.69-.23-.28.07-.38-.14-.39-.28l.31-.14-.04.15c.54.02.12-.28.63-.31l.28.24c-.08.26-.75,0-.6.38.33-.03.41-.25.74-.2-.06.04-.16.07-.22.11.12,0,.32.49.74.11.22-.16.04-.15.02-.29.52-.14.65-.31.98-.39-.02.3.6-.09.28.27-.2-.13-.96.02-1.1.32.25.3-.42.02-.48.38.43-.06.46.27.57.48.12,0,.22-.12.29-.16.01-.21-.14-.18-.18-.39.48-.03.92-.22,1.14-.47.18.07.17.28-.02.34.55-.17,1.15-.27,1.7-.33-.41-.25.57-.22.27-.43-.3,0-.59-.18-.47-.37.18-.02.03.15.12.2.18-.23.41.2.56-.13-.48.23,0,.42-.03.7.33-.23.03.19.39.1.33-.24.75-.46,1.13-.63.57.1,1.26-.38,1.69-.55.27.04.22.38.49.33.29-.12-.33-.22.15-.26l-.02.07c.1-.11.86-.14.8-.59v.35c.1,0,.14-.11.19-.17.05.09.18.13.08.26.36.07.53-.3.79-.47l-.27-.07c.38-.38.76-.42,1.1-.78l.11.15.13-.29c.08.18.37.06.34-.17-.03.3-.13.61-.25.91-.25.06.05-.33-.18-.38-.2-.04-.52.28-.5.46.16-.09.15-.12.22-.26.21.17-.02.34-.05.55.08-.06.24-.08.21-.16-.09.21-.25.36-.53.53.14-.2-.19-.08-.15-.18.1.21-.15.44-.54.56-.37-.11-.62.48-1.08.59.09-.28.24-.55.45-.75-.31,0-.29.14-.6.13-.06.21-.06.5-.38.73l-.08-.15c-.29.19-.21.44-.64.53-.73.17-1.48.35-2.03.48l-.06-.16c-.21.44-.99.38-1.36.63-.74,0-1.5.48-1.92.26-1.22.36-2.31.65-3.62.76l.19-.28c-.21.21-.17-.12-.39-.06.29.16-.28.3-.43.47-.6-.12-1.32.17-1.83.4l-.04-.17c-.49.38-1.14.15-1.8.15-.08-.06-.21-.22-.4-.18-.33.3-.52.3-1.02.51-.38.02-1,0-1.39-.09-1.41.47-2.88.27-4.35.53l-.11-.2c-1.44.45-3.21.06-4.44.25l.13-.34c-.38-.11-.88.07-.79.32-.38-.12-.97.14-1.21-.15-.39-.08-.49.14-.82.17-.79-.16-1.08-.15-1.83-.13l.18.03c.09-.07.1-.22-.08-.25-.28.08-1.02-.16-.77.27-.78-.29-1.87.06-2.62-.33.06.12-.14.12-.23.19-.7-.06-1.41-.36-1.99-.24-.1-.07.2-.17-.08-.21-.17.02-.02.14-.24.18-1.16.07-2.26-.51-3.29-.63-1.86-.08-3.74-.59-5.49-1.05l.04-.07c-.68.14-1.26-.72-1.88-.44-.11-.12-.51-.23-.35-.34-.55.03-1.2-.71-1.99-.83.06.04.1.05.19.05-.57-.52-1.32-.68-1.89-1.5.09.04.24.15.31.11-.07-.18-.27-.25-.46-.42-.21-.16-.34-.35-.22-.54-.12-.22-.27-.08-.18.06-.25-.59-.37-1.25-.22-1.89l.14-.47.22-.45c.07-.14.2-.29.29-.42.09-.13.18-.22.27-.32.74-.8,1.53-1.31,2.32-1.74,1.26-.29.33.57,1.13-.07.1.04,0-.16.04-.09.31-.25.7.22.87-.07-.18-.19.12-.19.08-.33.76-.08.96.09,1.46-.25v.14c.55-.54,1.36-.54,1.82-1.07,3.63-.9,7.13-1.56,10.72-1.89,3.55-.19,7.03-.48,10.64-.21.84.35.9.34,1.83.23-.04.05-.1.06-.04.12.05-.27.65,0,.75-.27,1.33.1,2.56.09,3.93.18-.22.01-.34.23-.08.23l.28-.16.04.08c.18-.03.38-.15.21-.25,3.48.03,6.8.99,10.16,1.63.77.28,1.93.45,2.81.64,1.23.55,2.39,1.11,3.54,1.78.58.33,1.16.69,1.74,1.19.29.25.59.54.86.92.27.39.49.9.54,1.5,0,0-.18-.17-.43-.47-.28-.29-.64-.63-1.09-1Z"/>
      <path class="cls-2" d="M74.85,51.73c-.18.04-.41.27-.43-.05.12.05.34-.04.43.05Z"/>
      <path class="cls-2" d="M67.26,54.02s-.12-.03-.15-.05c.09-.03.15-.17.24-.11-.09.03-.06.09-.09.16Z"/>
      <path class="cls-2" d="M65.31,54.37c0-.12.4-.31.64-.38l-.64.38Z"/>
      <path class="cls-2" d="M63.41,54.21c-.17-.08-.14-.14.07-.17.03.06-.04.11-.07.17Z"/>
      <path class="cls-2" d="M63.32,54.5c-.15.03-.24-.03-.32-.09.02.1.34-.12.32.09Z"/>
      <path class="cls-2" d="M59.3,54.7c-.09.02-.29.15-.4.02.11.09.45-.21.4-.02Z"/>
      <path class="cls-2" d="M57.46,55.07c-.06,0-.09-.02-.15.02-.12-.05,0-.15.09-.17l.07.15Z"/>
      <polygon class="cls-2" points="23.77 52.74 23.97 52.76 23.89 52.86 23.77 52.74"/>
      <path class="cls-2" d="M29.76,47.03c.18-.12.16.09.2.1-.18.05.04-.16-.2-.1Z"/>
      <polygon class="cls-2" points="37.7 45.31 37.63 45.32 37.63 45.06 37.7 45.31"/>
    </g>
  </g>
  <g>
    <path class="cls-2" d="M43.17,48.95c.14.02.05-.22.12-.03-.07.08-.13.12-.12.03Z"/>
    <path class="cls-2" d="M39.9,21.34c.73-.19.65.63,1.25.64.06.02-.26.24-.12.26.64-.05.88.66.93,1.28l-.1.04c.01.11.33,0,.36.1-.05.04-.09.04-.15.11.17-.11.18.08.32.02-.04.08-.16.18-.2.27l.21-.1c.52-.21.21.33.57.33-.05.02-.1.03-.13.07.5.08.66.52.99.79-.08.03-.21.09-.28.15.22-.11.34-.03.44.04-.19.16.28.06.22.25h-.05c.27-.01-.07.21.24.15l-.15.14c.33-.1-.1.2.09.2l.06-.03c.11.04-.03.14.05.18l-.03.02c.16.11,0,.28.25.18-.19.13-.14-.12-.41.07.2.2.33.45.43.71.09.26.07.54.11.81-.1.07-.13.1-.23.12.07.05.05.19.18.25,0-.02-.14.03-.16.06-.11.09.29.12.16.22-.07-.05-.15-.07-.25-.06.2.11.16.23.21.34-.04-.02-.07-.05-.15-.06.22.15-.06.2.05.33l-.14-.07c-.23.11.31.11.16.23-.04-.04-.1-.05-.16-.07.24.19.09.38.15.54-.02-.01-.06-.03-.06-.03,0,.16-.14.27-.09.46-.09.03-.35-.16-.35,0,.29.12.01.29.37.35-.1.1-.29.25-.24.37-.08-.11-.37-.12-.34-.23l-.21-.02c-.11-.07.08-.05-.08-.1-.01.05.02.24-.05.26.12.18.39.43.34.6-.07-.13-.32-.14-.34-.21l.4.51c-.02.06-.22-.12-.19,0,.07.04.1.1.14.15-.04,0-.06.23-.33.09-.12-.05,0-.11-.13-.12-.05.08.03.15-.02.23l-.04-.02c-.07.03,0,.24.18.27.03-.03-.16-.09-.05-.1.12.14.1.27.04.35-.02-.06-.09-.1-.16-.16.12.25.11.42.1.6.12.09-.18-.2-.11-.17-.28.04,0,.49-.34.45,0-.04.18.11.14.09-.07.06-.24-.07-.21.03-.1-.07-.01.08-.02.16.05.08-.06-.02-.04-.08.03.13-.02.54-.29.58.07.05.16.28.13.31l-.14-.13c-.12-.04-.08.13-.22.04.12.22.07-.42.14-.2-.15-.07.13.33-.06.15-.05.08.07.28-.13.24.04,0-.16-.22-.2-.16-.05.12.05.09.04.21l.02.1c.14.12-.09.08.1.17-.13-.08-.04.21-.28,0l-.18-.17c-.02.06.15.23.2.34-.02,0-.07-.03-.1-.05.29.24-.11.09.08.32-.18.01-.19.23-.41.13.03.14.09.29-.04.32-.01-.04,0-.07-.07-.12-.13-.02-.06.06-.05.14-.04-.05-.25-.03-.4-.06.03.14.21.24.3.32-.34-.16.03.35-.3.22-.02-.06-.06-.21-.18-.21-.34-.16.11.3-.11.29l.26.16c-.19-.07.02.26-.22.06.06.1-.18.06.07.23-.33.02-.2.51-.71.28.02.05-.07.08.06.17.16.06-.05-.13.05-.07,0,.03.05.08.08.11-.1.01-.14.04-.3-.16-.23,0,.33.43.15.5-.1-.08-.14-.09-.15-.04l.12.2c-.1.06-.27-.1-.45-.22,0,.07-.05.13.07.24l-.26-.08c.19.06.08.11.11.16l-.03-.05c-.08-.04-.07.05-.07.09.12.06.2.03.25.01.06.07.02.1.09.19-.17-.12-.18,0-.22.04-.07.02.13.14.11.15-.09-.05-.06.06-.17-.04-.02-.03.11.01.05-.06-.09,0-.25-.1-.17.03.06.1.36.18.2.21-.04-.05-.11-.09-.16-.14-.05,0-.09.03-.14.04l.17.09s-.06-.03-.08-.03c.17.12,0,.16.19.28,0,.05-.15.04-.19.07h-.01c-.12,0-.08.09.01.18l-.04-.02s-.03.1.06.17c-.16.02-.67-.22-.49-.06-.03.08.28.23.4.24-.19.09.08.32-.22.37.07.04.12.04.15.09-.11.18.14.43-.26.53-.07-.07-.19-.03-.29-.04.16.07-.19.04.1.09.17.01.25.02.33-.02.06.12.09.29-.08.35.08-.03.13,0,.18.02-.27-.02-.31.07-.22.14h.17s-.17.05-.17.05c.05.03.35.02.19.09-.06,0-.13.01-.18.02.13.06.36.14.22.22l-.23.08s.19.06.25,0c-.12.14-.12.22-.32.29.56.14.57.4.65.65l-.12.03c-.09.1.22-.03.15.04-.12.02-.23.13-.38.12-.09.14.25.05.32.09.16-.05-.11-.01.08-.07.06-.01-.07.17.16.1-.08.06-.26.11-.35.13h.13c-.24.19-.53.03-.84.23l.06.05c-.22.15-.33-.06-.36.13.14.03.49-.05.57-.15.11.1.56-.16.59-.03-.12.09-.07-.09-.24.01-.16.14.15.08.12.16.05-.1.31-.15.37-.13-.07.11-.23.06-.21.16.14-.04.27-.01.33-.12.31-.11-.03.13.21.06-.19.13-.51.14-.56.29.19-.11.33-.01.59-.21-.04.06-.19.15-.32.18-.09.12.42-.06.05.17l.2-.09c-.05.05-.09.1-.18.19.02.05.34,0,.05.17.04,0,.1.11.27-.05.08-.14-.2.01.05-.18-.19.18.09.07.19.06l-.11.07c.06,0,.07.06.19,0-.07.02-.14.08-.16.11l.18-.08c.14.03-.28.21-.17.27l-.17.02s-.1.13-.02.14c.16-.08.36-.18.49-.24.1,0-.15.14.03.08l-.22.06c-.06.02-.22.21-.17.28.08,0,.33-.08.37-.2.02.03-.04.14-.16.19.1.04.15-.12.28-.13-.08.1-.15.28-.25.43l-.29.12.03.05c-.24.09-.12.14-.35.26,0,.06.09.04.17.03.25-.34.52-.24.79-.5.17.05-.64.64-.09.4.06-.08.32-.21.18-.21.03.1.33-.19.28,0-.17.04-.23.31-.48.36.1-.07.03-.11,0-.11-.08.12-.29.23-.23.31.07.03.12.09.26-.05.16-.14-.08-.06.11-.17.13.04-.1.27.22.06-.07-.04.08-.19.19-.29h.13s-.12.09-.12.09c.02.17.22-.14.28-.02l-.16.23c-.2.14-.05-.21-.33.07.05.08.22-.04.2.09-.04,0-.06,0-.1,0,.01.03-.35.41-.04.3.13-.03.11-.08.22-.18.13.07.27,0,.34.05-.22.19.09.14-.19.27.09-.15-.06-.29-.3-.14-.21.27-.04-.12-.32.1.08.09-.17.32-.32.48.01.04.1,0,.14-.01.16-.13.13-.16.28-.31.05.14.22.15.41.06-.04.1-.19.24-.25.22.16.07.26.2.33.35.16-.31.18.06.32-.19,0-.11.11-.33.24-.41.02.05-.1.11-.14.17.17-.09-.13.28.11.11-.18-.02-.3.28-.49.46.18-.04-.13.14-.05.21.17-.03.35-.04.48,0-.05.29.28.25.39.32-.03.15-.25.35-.22.44.07.05.15-.29.17-.1l-.05.04c.07-.03.07.31.36,0l-.23.23s.07,0,.1-.02c-.06.08-.1.18-.17.21-.07.23.16.08.24.12l.07-.19c.21-.03.18.18.34.21l-.11.15.14-.04c-.12.14-.12.28,0,.18l-.45.24c.01-.13.19-.14.26-.32.06-.15-.08-.19-.2-.06.03.05.06.02.13-.01-.14.22-.2.17-.33.28.03,0,.02.1.07.03-.12.07-.18.05-.26,0,.11-.04.07-.15.13-.2-.14.18-.26.18-.31.06.09-.26-.28,0-.34-.14.19-.15.36-.25.48-.28,0-.14-.08-.05-.07-.19-.14.11-.33.3-.48.32l.1-.14c-.13,0-.29.2-.36.08-.11-.21-.29-.35-.4-.48l.11-.13c-.31.21-.32-.11-.52-.08-.04-.27-.46-.2-.32-.49-.35-.19-.69-.33-.89-.69l.23-.11c-.18.06.08-.13.01-.16-.1.19-.26.09-.41.15.04-.26-.27-.3-.51-.33l.13-.11c-.35.06-.23-.28-.3-.47.05-.06.16-.18.11-.22-.29.06-.31,0-.54-.04-.07-.09-.1-.31-.06-.47-.56-.22-.55-.75-.92-1.14l.18-.1c-.6-.31-.32-1.02-.61-1.39h.35c.08-.15-.14-.28-.38-.23.07-.14-.18-.33.1-.42.06-.14-.16-.16-.21-.28.13-.28.1-.38.04-.64l-.02.06c.07.03.22.05.24-.01-.11-.11.15-.33-.29-.29.28-.24-.06-.69.3-.89-.11,0-.12-.08-.19-.13.03-.26.36-.41.25-.65.07-.02.16.12.2.04-.02-.07-.14-.05-.17-.14-.03-.44.48-.67.61-.97.13-.6.59-1.16.87-1.56l.06.05c-.14-.33.5-.12.21-.52.09.02.12-.1.23.02-.09-.24.4-.17.3-.5-.02,0-.01.03,0,.07.26-.04.18-.33.43-.39.01.04.01.08.07.14.17.04-.16-.36.18-.15.03-.04-.14-.15-.14-.12.4-.26.5-.79.71-1.21.39-.12.54.39.47,0,.07.03-.11-.11-.04-.06-.03-.15.45.15.33-.04-.21-.13-.08-.12-.2-.21.24-.06.45.04.39-.2l.1.09c-.18-.36.1-.42-.14-.79.51-.85.8-1.75,1.01-2.45.32-.69.17-1.23.21-1.94.28-.25.26-.28.08-.42.05-.01.07,0,.11-.03-.25.09-.08-.13-.33-.05-.1-.29-.24-.5-.42-.78.05.03.27-.06.21-.11l-.19.03.06-.05c-.06-.02-.2.02-.25.1-.32-.28-.45-.66-.67-1.06-.19-.4-.36-.83-.71-1.13-.06-.24-.35-.39-.54-.52-.21-.76-.5-1.42-1.19-1.73,0,0,.55-.46.89-.37Z"/>
    <path class="cls-2" d="M43.02,48.88c.05-.13.02-.24.18-.36-.07.11-.11.26-.18.36Z"/>
    <path class="cls-2" d="M42.12,46.37s.02-.06.03-.08c.03.01.12-.06.09,0-.03-.01-.07.04-.11.08Z"/>
    <path class="cls-2" d="M41.78,45.94c.09-.08.24-.07.3-.04l-.3.04Z"/>
    <path class="cls-2" d="M41.79,45.23c.05-.1.1-.13.13-.09-.04.05-.08.06-.13.09Z"/>
    <path class="cls-2" d="M41.57,45.39s0-.09.05-.16c-.08.07.11.02-.05.16Z"/>
    <path class="cls-2" d="M41.15,44.37s-.14,0-.04-.09c-.06.08.2,0,.04.09Z"/>
    <path class="cls-2" d="M40.72,44.1s.01-.04-.02-.03c.03-.06.12-.08.14-.07l-.12.1Z"/>
    <polygon class="cls-2" points="41.07 36.39 41.08 36.48 40.99 36.4 41.07 36.39"/>
    <path class="cls-2" d="M43.76,32.87c-.03-.1.12.03.14.03-.02.05-.11-.1-.14-.03Z"/>
    <polygon class="cls-2" points="44.46 30.41 44.45 30.43 44.22 30.33 44.46 30.41"/>
  </g>
  <g>
    <path class="cls-2" d="M54.52,50.61c.16.06.07-.22.14,0-.08.06-.15.1-.14,0Z"/>
    <path class="cls-2" d="M51.3,13.89c.81-.01.69.9,1.35,1.07.06.03-.29.19-.14.26.7.13.94.99.96,1.72l-.1.02c0,.14.35.09.38.22-.06.04-.1.01-.16.09.19-.08.19.15.35.12-.04.08-.18.16-.22.26l.23-.05c.57-.1.22.44.6.54-.05.01-.1,0-.14.05.49.24.67.78,1,1.18-.08.01-.22.05-.3.12.23-.07.35.05.43.16-.21.15.29.14.21.34h-.06c.28.03-.08.22.24.21l-.16.13c.35-.06-.11.22.09.25l.07-.02c.11.06-.03.16.04.22l-.04.02c.13.17-.03.33.23.27-.19.12-.14-.17-.42.02.2.28.33.6.42.92.05.33.06.67.08,1-.1.08-.13.12-.23.14.07.06.04.24.17.31,0-.02-.14.04-.16.07-.11.11.29.15.16.27-.07-.06-.15-.08-.26-.07.2.12.16.27.22.41-.04-.03-.07-.06-.15-.06.22.17-.06.26.06.4l-.14-.07c-.23.17.31.11.16.26-.04-.05-.1-.05-.16-.06.25.21.1.46.16.64-.02-.01-.06-.02-.06-.02,0,.19-.13.35-.08.57-.09.05-.36-.13-.36.06.3.09.02.34.39.35-.1.14-.29.35-.23.49-.09-.11-.38-.06-.37-.2l-.21.03c-.12-.06.07-.08-.09-.11,0,.07.03.29-.04.32.13.18.42.42.37.63-.07-.14-.34-.09-.36-.17l.44.5c-.01.07-.23-.09-.2.04.08.03.11.09.16.15-.04.01-.05.29-.34.18-.12-.03,0-.13-.14-.11-.05.11.04.16-.01.28l-.04-.02c-.08.05,0,.27.2.27.03-.05-.18-.06-.06-.1.13.13.11.28.06.4-.03-.06-.1-.09-.17-.15.14.26.13.46.13.67.13.07-.2-.19-.12-.18-.29.12.01.57-.34.61,0-.04.19.08.15.07-.07.09-.26-.02-.22.09-.11-.05-.01.1-.02.19.06.08-.06-.01-.04-.08.04.14,0,.62-.29.74.07.04.19.28.15.33l-.16-.12c-.13-.01-.08.17-.23.1.14.22.06-.5.14-.27-.16-.04.15.35-.06.19-.05.1.08.31-.13.31.04-.01-.18-.21-.22-.13-.05.16.06.09.05.23l.03.11c.16.1-.1.11.12.17-.14-.06-.04.25-.3.08l-.2-.14c-.02.07.16.23.23.33-.02,0-.08-.01-.11-.04.32.2-.11.13.1.35-.19.06-.2.31-.44.25.04.15.1.31-.03.38-.02-.04,0-.08-.07-.12-.14.01-.06.08-.05.17-.04-.04-.27.03-.43.04.04.15.23.22.33.3-.37-.1.04.39-.31.33-.02-.06-.07-.23-.2-.2-.37-.1.13.32-.1.37l.29.12c-.2-.03.03.3-.23.12.07.1-.18.12.08.25-.35.1-.2.64-.75.51.02.06-.07.12.07.18.18.03-.06-.14.05-.1,0,.03.06.08.09.11-.1.04-.14.08-.33-.11-.24.07.37.41.17.55-.11-.07-.15-.07-.16,0l.14.21c-.1.1-.29-.05-.48-.14,0,.09-.05.17.07.27l-.28-.03c.2.02.09.11.12.17l-.03-.05c-.09-.02-.08.08-.07.13.12.04.21-.02.27-.05.07.07.02.12.1.21-.18-.1-.19.05-.24.1-.07.05.14.14.12.16-.1-.04-.07.09-.18-.01-.02-.03.12,0,.05-.08-.09.01-.26-.06-.18.07.07.1.38.13.21.21-.04-.05-.11-.09-.17-.14-.05.02-.09.05-.14.08l.17.07s-.06-.02-.09-.02c.17.11,0,.21.2.31,0,.07-.16.08-.2.13v-.02c-.14.04-.1.15,0,.25l-.04-.02s-.03.13.07.21c-.17.06-.69-.16-.5.01-.03.1.28.24.41.23-.19.14.07.41-.23.52.07.04.12.03.16.09-.11.25.14.58-.26.75-.07-.09-.19-.02-.29-.03.16.08-.19.06.1.11.17,0,.25.02.33-.05.05.16.06.4-.1.48.08-.04.13,0,.18.03-.27-.02-.31.1-.22.19l.17.02-.17.06c.05.04.35.04.19.13-.06,0-.13.01-.18.03.13.09.36.21.22.31l-.24.09s.17.1.24.03c-.16.18-.14.29-.34.36.55.25.62.64.63.98l-.12.02c-.09.11.22,0,.16.08-.12,0-.23.12-.39.08-.09.16.25.12.33.19.16-.03-.12-.04.09-.07.06,0-.08.2.17.16-.08.05-.27.08-.37.08l.14.05c-.25.17-.55-.09-.87.09l.06.07c-.23.14-.34-.14-.37.08.14.06.5.04.59-.07.11.15.59-.08.61.11-.13.09-.07-.13-.26-.04-.17.14.15.14.1.23.07-.11.32-.11.38-.07-.09.12-.24.01-.23.15.14-.02.27.06.34-.07.31-.05-.04.15.22.14-.2.11-.54.04-.6.21.2-.09.34.07.62-.11-.04.07-.2.14-.34.14-.1.12.44.04.05.22l.22-.05c-.06.05-.1.1-.19.18.02.07.36.1.05.22.04,0,.08.17.28.02.1-.15-.2-.04.07-.21-.21.16.08.12.18.14l-.12.06c.06.01.06.1.2.06-.08,0-.15.05-.17.09l.2-.05c.15.08-.3.17-.19.27l-.19-.03s-.11.13-.02.16c.18-.05.39-.11.53-.14.1.03-.17.12.03.1h-.24c-.06.02-.24.19-.19.29.09.03.36,0,.41-.13.03.04-.04.16-.18.18.11.08.17-.1.31-.06-.09.09-.18.28-.3.44l-.31.04.03.07c-.26.03-.14.13-.39.2-.01.07.09.08.17.09.29-.33.57-.13.87-.35.19.11-.72.56-.11.44.07-.08.36-.14.2-.19.03.12.36-.12.3.08-.19-.01-.26.29-.53.28.11-.05.04-.12,0-.12-.1.12-.33.18-.26.29.07.05.13.14.29.02.18-.11-.08-.09.13-.16.14.09-.12.29.23.14-.07-.07.1-.2.22-.28l.13.05-.13.06c0,.2.24-.09.3.07l-.19.22c-.23.1-.04-.27-.36-.03.05.11.23.03.21.17-.04,0-.07-.02-.11-.02.01.04-.4.36-.05.33.15,0,.13-.06.25-.14.14.12.29.08.38.16-.25.15.1.18-.22.25.1-.15-.06-.35-.32-.25-.24.25-.04-.14-.35.01.08.13-.2.31-.37.45.01.04.11.03.16.03.18-.1.15-.15.32-.27.05.17.24.24.45.19-.05.11-.23.21-.28.17.16.13.27.32.34.5.19-.3.19.12.36-.12,0-.13.13-.34.29-.39.02.06-.12.09-.16.15.19-.05-.15.28.12.16-.2-.07-.34.23-.57.37.2.01-.15.11-.07.22.2.01.39.07.53.14-.07.3.31.35.42.47-.04.15-.3.31-.27.42.08.08.18-.28.19-.06l-.05.03c.08-.01.07.36.41.1l-.27.19s.07.01.12,0c-.07.07-.12.17-.2.18-.09.23.18.13.26.21l.08-.19c.24.03.2.25.38.33l-.13.13h.16c-.14.11-.15.27,0,.19l-.52.14c.02-.14.22-.1.31-.27.08-.15-.08-.23-.22-.12.03.06.06.03.15.02-.16.2-.23.13-.39.22.03.02.01.11.08.05-.14.04-.2,0-.29-.07.13-.02.08-.14.16-.18-.17.16-.3.13-.35-.02.12-.26-.31-.08-.38-.25.22-.11.41-.18.55-.17.01-.15-.08-.08-.07-.23-.16.08-.38.24-.55.21l.12-.12c-.15-.03-.33.14-.4-.02-.12-.26-.3-.47-.41-.65l.13-.11c-.36.14-.34-.21-.57-.24-.04-.3-.47-.37-.32-.65-.38-.3-.72-.58-.91-1.04l.26-.06c-.2.02.09-.12.02-.17-.12.19-.28.03-.45.05.05-.28-.26-.42-.5-.52l.15-.09c-.37-.03-.23-.37-.29-.61.05-.06.18-.16.13-.22-.31,0-.31-.08-.55-.2-.05-.14-.07-.38-.03-.56-.58-.37-.47-1.01-.85-1.51l.19-.09c-.57-.45-.23-1.24-.53-1.68l.35.02c.08-.15-.11-.33-.35-.28.1-.16-.17-.38.11-.49.06-.16-.16-.19-.2-.32.14-.32.09-.43.05-.73l-.03.07c.08.04.22.05.25-.02-.08-.12.15-.39-.27-.32.28-.29-.08-.78.28-1.03-.11,0-.12-.08-.19-.13.02-.29.36-.51.23-.77.07-.03.16.12.21.01-.02-.08-.14-.04-.18-.14-.05-.5.46-.83.58-1.21.11-.72.54-1.43.83-1.97l.07.05c-.17-.34.53-.27.2-.65.09,0,.13-.15.25-.03-.11-.26.42-.3.3-.65-.02.02-.01.03,0,.07.28-.12.18-.43.45-.57.02.04.02.09.08.14.19,0-.18-.38.19-.22.03-.05-.15-.14-.16-.1.42-.41.51-1.05.72-1.59.41-.24.59.31.5-.12.08.02-.12-.09-.05-.06-.03-.16.48.05.35-.13-.23-.09-.09-.12-.22-.19.26-.14.48-.08.41-.34l.1.08c-.2-.38.1-.52-.18-.89.52-1.14.78-2.29,1.03-3.32.34-1.01.2-1.94.25-2.98.28-.3.26-.33.07-.57.06,0,.07.01.12-.02-.27.05-.06-.19-.32-.14-.08-.4-.28-.73-.42-1.12.05.05.27,0,.23-.07h-.2s.06-.05.06-.05c-.06-.04-.21-.04-.27.05-.65-.86-.7-2.08-1.41-3-.06-.29-.37-.54-.58-.75-.2-.93-.5-1.74-1.24-2.3,0,0,.63-.36.99-.16Z"/>
    <path class="cls-2" d="M54.36,50.5c.07-.13.04-.25.22-.33-.08.1-.13.25-.22.33Z"/>
    <path class="cls-2" d="M53.47,47.48s.02-.07.03-.09c.03.02.14-.03.1.04-.03-.02-.08.03-.13.05Z"/>
    <path class="cls-2" d="M53.11,46.89c.1-.06.27,0,.33.05-.11-.01-.23-.03-.33-.05Z"/>
    <path class="cls-2" d="M53.16,46.08c.06-.1.11-.12.15-.06-.05.04-.09.04-.15.06Z"/>
    <path class="cls-2" d="M52.9,46.2s.01-.1.06-.16c-.09.06.12.06-.06.16Z"/>
    <path class="cls-2" d="M52.5,44.88s-.14-.04-.04-.13c-.07.08.2.06.04.13Z"/>
    <path class="cls-2" d="M52.06,44.42s.02-.04-.03-.04c.03-.06.13-.06.16-.04l-.13.08Z"/>
    <polygon class="cls-2" points="52.55 33.74 52.57 33.84 52.47 33.76 52.55 33.74"/>
    <path class="cls-2" d="M55.29,28.96c-.03-.1.13,0,.15,0-.02.07-.12-.09-.15,0Z"/>
    <polygon class="cls-2" points="55.9 25.93 55.9 25.95 55.66 25.87 55.9 25.93"/>
  </g>
</svg>