<?xml version="1.0" encoding="UTF-8"?>
<svg id="Layer_3" data-name="Layer 3" xmlns="http://www.w3.org/2000/svg" viewBox="0 0 300 300">
  <defs>
    <style>
      .cls-1 {
        fill: #fff;
      }

      .cls-2 {
        fill: #202020;
      }
    </style>
  </defs>
  <g>
    <polygon class="cls-1" points="90.51 191.47 170.66 216.98 160.05 250.05 82.86 222.78 90.51 191.47"/>
    <g>
      <path class="cls-2" d="M91.71,189.52c-.9,0,.12,1.15-.67.28.26-.43.53-.73.67-.28Z"/>
      <path class="cls-2" d="M88.33,193.86c2.4,3.42-1.54,6.19-.31,9.59.05.37-1.65-.5-1.44.38,1.68,3.42-.83,7.55-3.5,10.56l-.42-.32c-.24.25-.06.84.16,1.32.22.5.47.94.25,1.33-.33,0-.4-.28-.9-.1.94.24.09,1.52.78,1.77-.48.36-1.29.45-1.86.99.36.1.72.18,1.08.24,1.09.26,1.11.72.84,1.4-.27.66-.86,1.55-.87,2.16.3.05.66.07,1.12,0-.36.15-.74.22-.9.43,2.2-.07,3.75.13,5.2.43.69.16,1.39.32,2.09.47.33.07.67.14,1,.21.34.07.71.13,1.06.18-.24.33-.57.97-.56,1.44.52-1.05,1.43-1.05,2.22-1.01-.08,1.24,1.58-.6,2.19.31l-.16.23c1.03-.97.67,1,1.67-.24l.07,1.03c.83-1.5.6,1.14,1.39.51l.1-.33c.62-.22.58.67,1.12.56l-.02.2c1.19-.05,1.48,1.05,1.89-.2.01,1.12-1.17.1-1.11,1.75,3.87-.07,7.3,1.42,10.75,2.61.21.64.41.88.33,1.38.43-.13,1.37.23,1.91-.3-.12-.02,0,.71.16.84.46.69,1.17-1.13,1.66-.33-.39.24-.62.6-.7,1.1.93-.76,1.66-.33,2.46-.4-.18.17-.39.24-.5.64,1.15-.83,1.3.72,2.21.26l-.5.63c.76,1.25.85-1.39,1.59-.55-.3.15-.32.46-.47.73,1.32-1,2.57-.08,3.58-.21-.09.08-.14.28-.14.28.99.17,1.83.92,3.06.71.26.45-.74,1.71.34,1.8.47-1.45,1.89,0,1.88-1.84.76.54,1.91,1.55,2.65,1.26-.57.41-.21,1.91-.96,1.78l.22,1.06c-.29.56-.48-.39-.57.41.37.07,1.6-.14,1.84.2.97-.65,2.15-2.09,3.27-1.9-.7.39-.28,1.69-.7,1.82l2.45-2.24c.38.06-.33,1.17.32.97.11-.39.41-.55.68-.8.07.21,1.59.16,1.24,1.63-.04.61-.68.1-.47.74.66.21.86-.26,1.51-.05l-.05.19c.36.36,1.48-.16,1.29-1.11-.28-.15-.19.89-.48.32.59-.72,1.43-.68,2.09-.47-.3.15-.41.54-.64.91,1.27-.81,2.32-.83,3.46-.95.25-.67-.8,1.1-.81.69.92,1.38,3.05-.41,3.61,1.32-.21.06.25-.99.19-.8.57.3.2,1.27.72,1.04-.16.59.56,0,1.02-.04.36-.34,0,.32-.37.26.37-.15,1.19-.24,2.05-.13.41.04.92.17,1.21.3.2.1.37.27.5.56.1-.39.64-1.34.72-1.27l-.13.96c.11.63.51.09.55.96.15-.55-.15-.4-.51-.24-.36.17-.77.35-.43,0,0,.42.26.11.41-.17.16-.27.26-.51.2.15.39.1.55-.97.96.12-.1-.19-.12,1.34.2,1.38.54.01.09-.45.43-.66.05-.12.1-.24.14-.36-.28-1.07.45.29-.08-.99.36.93.35-.37,1.05,1.49l.51,1.45c.23-.01-.24-1.42-.41-2.05.09.15.28.47.39.72-.42-.93-.43-1.06-.32-.99.07-.07.38.15-.15-.97.27.21.35-.02.48-.14.12-.13.29-.18.75.24-.31-.86-.77-1.59-.35-1.61.12.19.13.32.45.63.51.16.15-.27-.04-.65.21.24,1.06.21,1.75.17-.36-.68-1.31-.96-1.84-1.27.86.27.68-.12.45-.43-.19-.42-.34-1.06.54-1.13.17.28.56,1.14,1.16.79,1.89,0-.92-1.51.19-2.12l-1.5-.24c1.01-.11-.41-1.56,1.02-1-.42-.46.8-.89-.62-1.24,1.64-1.07.42-3.75,3.2-3.83-.17-.28.24-.72-.51-.85-.89.1.4.66-.17.62.02-.2-.35-.36-.54-.44.46-.35.68-.67,1.7.13,1.18-.72-2.04-1.79-1.08-2.89.56.24.81.22.84-.19l-.76-1.02c.49-.75,1.46-.05,2.45.25-.03-.49.19-1.02-.47-1.45l1.4-.14c-1.02.12-.46-.6-.66-.79.07.06.13.14.19.24.45.02.29-.37.22-.57-.64-.07-.96.08-1.22.27-.17-.21-.24-.27-.31-.38-.07-.1-.15-.21-.39-.33.97.28.82-.22.99-.38.29-.2-.86-.29-.8-.33.54.02.19-.3.91-.15.15.08-.58.14-.14.28.44-.11,1.39-.1.8-.42-.46-.21-2.13.13-1.34-.26.24.07.67.05,1.03.12.23-.14.46-.3.7-.48l-1,.11c.27-.09.35-.06.49-.11-1.03.05-.14-.54-1.35-.3-.07-.11.84-.54,1.02-.77h.08c.71-.45.4-.63-.32-.43l.24-.1c.08-.1.07-.22-.14-.21-.19.04-.41.12-.67.22.59-.54,4-2.36,2.25-1.71-.47-.12-2.33,1.02-2.82,1.48.1-.29-.39-.22-.71-.19-.34.02-.52-.02-.27-.69-.32.29-.43.5-.69.64-.2-.25-.67-.12-.97-.12-.04,0-.08,0-.11,0h-.05s-.15-.06-.15-.06c-.19-.07-.37-.16-.54-.28-.33-.24-.61-.58-.79-1.11.58-.22.31-.86.46-1.37-.63.66-.2-.96-.77.34-.21.8-.37,1.17-.02,1.64-1.09.12-2.54-.34-2.83-1.25.15.45-.13.63-.42.8.47-1.23-.17-1.65-.85-1.38l-.32.75-.09-.9c-.28.18-.74,1.54-1.03.63.07-.3.13-.62.11-.87-.75.45-1.86,1.27-2.26.43l-.13-1.28c-.29.04-.94.58-.59,1.05-.8-1-1.43-1.29-1.45-2.36-2.51,1.8-5.09,1.09-7.07.27l.24-.56c-.38-.71-.6.91-.86.39.35-.49-.04-1.32.61-1.86-.59-.86-1.33.67-1.92.77-.32.73.56-.35.16.57-.17.24-.9-.93-1.38.17-.05-.51.37-1.3.62-1.73l-.66.4c-.16-1.52,2.09-1.96,2-3.8l-.5.04c-.04-1.33,1.6-.98.62-1.74-.66.41-1.6,1.93-1.33,2.57-1.1,0-1.33,2.57-2.38,2.14-.08-.77.91.11,1.01-.89-.21-1.08-1.18.19-1.53-.28.36.59-.43,1.61-.82,1.71-.38-.71.7-.97-.04-1.33-.34.62-1.21.88-.74,1.54-.76,1.4-.68-.67-1.47.35.08-1.13,1.57-2.18.89-2.97-.19,1.06-1.49,1.04-1.52,2.69-.24-.4-.02-1.21.42-1.75-.28-.77-1.75,1.48-1.26-.58l-.49.98c-.04-.38-.18-.71-.24-1.34-.42-.15-1.8.97-1.27-.58-.19.12-1.12-.26-1.1.94.39.85.94-.57.8,1-.04-1.33-.91-.12-1.38.17l.14-.62c-.28.17-.71-.11-1.05.5.27-.3.32-.73.2-.93l-.51.85c-.98.19.32-1.68-.58-1.67l.84-.52c-.18.11-.19-.84-.67-.67-.42.79-1.02,1.71-1.36,2.32-.57.22.1-1.01-.63-.29l.91-.82c.18-.25.04-1.51-.58-1.69-.48.17-1.48,1.19-1,1.84-.31-.09-.58-.73-.14-1.27-.79.07-.2.93-.96,1.26-.07-.64-.58-1.68-.78-2.64l1.07-1.2-.41-.15c.9-.95,0-.95.68-2.04-.22-.28-.7.02-1.07.24.23,2.16-1.76,2.3-2.07,4.11-1.29.11.63-4.44-1.42-2.11.05.51-.93,1.65-.05,1.38-.65-.42-1.03,1.59-1.64.6.85-.52-.1-1.97,1.12-2.72-.24.56.36.6.55.47-.08-.76.61-1.72-.11-1.95-.49.03-1.11-.13-1.31.8-.3,1,.71.11.11,1.02-.99.07-.66-1.49-1.58.15.6.04.41,1.11.19,1.79l-.78.21.34-.62c-.89-.8-.69,1.1-1.64.6l-.06-1.45c.6-1.04,1.3.96,1.71-.92-.63-.28-1.14.58-1.61-.09.19-.11.39-.1.58-.22-.21-.14.32-2.63-1.06-1.51-.66.4-.33.61-.56,1.29-1.12-.13-1.65.47-2.36.36.56-1.29-1.15-.51.03-1.64.1.89,1.64,1.3,2.42.14.12-1.7.75.48,1.49-1.04-.83-.3-.29-1.85-.11-2.91-.21-.15-.57.21-.76.33-.4.93-.09,1.01-.39,2.01-.86-.56-1.93-.31-2.75.46-.16-.57.24-1.5.64-1.47-1.21-.07-2.36-.58-3.33-1.21.19,1.78-1.3,0-1.25,1.44.46.53.59,1.8.05,2.41-.32-.21.23-.68.19-1.06-.73.71-.27-1.6-1.14-.39,1.18-.18.81-1.85,1.39-3.01-.96.46.31-.86-.42-1.09-.95.45-2.02.7-2.92.71-.65-1.49-2.59-.85-3.52-1.09-.28-.77.48-2.06.04-2.46-.62-.17-.02,1.64-.72.72l.17-.25c-.38.24-1.35-1.47-2.26.44l.76-1.42c-.13-.19-.39.11-.58.22.15-.49.09-1,.47-1.23-.23-1.21-1.22-.21-1.84-.36l.11,1.01c-1.26.37-1.67-.73-2.77-.74l.31-.86-.76.33c.41-.8.04-1.52-.5-.91l2.23-1.64c.27.65-.81.9-.81,1.85,0,.82.99.88,1.41.09-.32-.21-.4-.02-.78.2.27-1.25.79-1.03,1.32-1.75-.2-.01-.35-.46-.51-.09.55-.48.95-.45,1.57-.29-.56.34-.01.82-.28,1.12.39-1.05,1.07-1.19,1.73-.66.15,1.4,1.67-.34,2.43.27-.7.97-1.42,1.69-2.09,1.96.37.72.62.16.99.88.52-.72,1.1-1.9,1.97-2.16l-.22.81c.78-.2,1.15-1.38,1.91-.9,1.29.84,2.74,1.3,3.78,1.75l-.21.81c1.14-1.51,2.2,0,3.24-.49,1.13,1.2,3.22.19,3.49,1.78,2.62.16,4.92.24,7.34,1.33l-.79,1.02c.72-.71.08.76.57.73-.21-1.09.99-1.01,1.53-1.62.83,1.25,2.58.73,3.83.23l-.21.81c1.48-1.18,2.26.52,3.42,1.16.04.38.03,1.2.43,1.22,1.09-1.07,1.41-.87,2.66-1.36.72.23,1.8.93,2.38,1.66,3.3-.94,5.72,1.1,8.9.91l-.09,1c3.38-1.12,6.18,1.77,8.86,1.49l-.74,1.53c.58.73,1.81.11,1.98-1.08.58.72,2.09-.19,2.14,1.27.66.53,1.16-.44,1.85-.46,1.32,1.09,1.92,1.13,3.44,1.28l-.32-.21c-.27.3-.5.98-.18,1.19.67-.27,1.81,1.05,1.89-1.03.29.4.68.61,1.11.74.11.03.22.06.33.08l.56.13c.4.08.79.16,1.19.24,1.59.31,3.3.71,4.02,1.76.16-.53.88-.41,1.43-.62,1.22.38,2.22.98,3.2,1.46.99.48,1.97.84,3.46.83.05.3-1.65.45-.8.78.79.03.85-.48,1.93-.46l.65.09c-.14,1.64-1.13,3.77-2.1,5.66-.98,1.92-1.96,3.63-2.34,5.21-.1.75-.23,1.51-.39,2.29l-.26,1.18-.14.59-.07.3-.04.18c-.19.91-.44,1.81-.71,2.7-.55,1.77-1.19,3.49-1.64,5.18l-.37-.16c1.1,1.59-2.34,2.14-.42,3.74-.45.15-.5.95-1.17.52.37.61-.07,1.16-.49,1.76-.21.3-.42.62-.52.97-.05.17-.07.36-.05.55,0,.1.03.18.05.32.01.16.03.33.07.5.1-.18.08-.38-.04-.59-.76.91-1.02,1.98-1.27,3.08-.25,1.09-.52,2.27-1.22,3.13-.07-.36-.04-.86-.35-1.2-.45.15-.26.94-.19,1.62.08.68.03,1.24-.79.64-.14.49.64,1.2.7.83-.91,1.82-1.55,3.89-2.13,6.29-2.8-.73-5.77-1.22-8.98-2.08-1.98-1.31-1.87-2.14-1.8-2.64s.26-.6-1.21-.36c-.15-.45-.31.68-.27.27-1.22.14-1.18-2.71-1.89-1.89-.2,1.19-.53.52-.79,1.19-1.1-1.21-1.01-2.32-2.39-1.84l.29-.56c-1.84,1.23-2.98-.18-4.72,1.37-7.05-2.1-14.06-3.37-20.89-5.53-6.54-2.72-13.38-4.17-19.79-7.58-1.04-2.12-1.17-2.11-3.14-2.1.16-.23.29-.24.26-.52-.54,1.24-1.27-.32-1.87.84-2.42-1.12-4.85-1.59-7.43-2.49.46,0,1.03-.96.51-1.05l-.79.63.04-.38c-.4.07-.98.57-.78,1.1l-.55-.1c-.05,0-.28-.07-.45-.12l-.53-.15-2.11-.65c-1.41-.45-2.8-.93-4.17-1.44-2.74-1.01-5.36-2.09-7.83-3.16,1.2-3.74,2.39-7.47,3.58-11.19.48-1.57.95-3.13,1.43-4.69.28-.93.53-1.86.71-2.81.93-1.42.96-3.75,1.11-5.5,2.97-4.57,5.48-8.73,5.49-14.1,0,0,3.23,1.49,3.5,3.78Z"/>
      <path class="cls-2" d="M92.73,189.7c-.03.7.43,1.23-.3,1.95.14-.62.06-1.39.3-1.95Z"/>
      <path class="cls-2" d="M105.84,201.17c.08-.18.13.33.15.45-.2-.01-.55.47-.59.09.21.01.27-.3.45-.54Z"/>
      <path class="cls-2" d="M109.61,202.79c-.24.56-1.22.74-1.73.66l1.73-.66Z"/>
      <path class="cls-2" d="M112.49,206.3c.16.58-.01.82-.43.67.07-.31.25-.42.43-.67Z"/>
      <path class="cls-2" d="M113.16,205.08c.31.08.35.47.39.84.14-.49-.8.09-.39-.84Z"/>
      <path class="cls-2" d="M120.5,209.25c.2.02.76-.33.74.36-.06-.51-1.15.43-.74-.36Z"/>
      <path class="cls-2" d="M124.43,209.55c.11.07.12.2.31.08.13.33-.23.68-.43.67l.12-.75Z"/>
      <polygon class="cls-2" points="159.15 238.04 159 237.55 159.54 237.79 159.15 238.04"/>
      <path class="cls-2" d="M143.2,239.33c-.52.22-.08-.63-.12-.73.37.07-.38.65.12.73Z"/>
      <polygon class="cls-2" points="126.63 236.67 126.75 236.69 126.3 237.84 126.63 236.67"/>
    </g>
  </g>
  <g>
    <polygon class="cls-1" points="92.33 190.5 168.1 212.51 216.96 78.09 122.17 50.55 92.33 190.5"/>
    <g>
      <path class="cls-2" d="M93.95,188.89c-1.7-.24.62,1.16-1.19.09.34-.35.75-.58,1.19-.09Z"/>
      <path class="cls-2" d="M94.86,185.26c-1.61-5.95,2.68-12.41,2.17-18.66.03-.71,1.47.5,1.44-1.13-.93-6.15,2.26-14.84,5.39-21.42l.34.51c.59-1.25-.48-3.17.02-4.52.29.05.31.53.76.29-.78-.53.15-2.61-.36-3.34.45-.48,1.12-.28,1.64-.92l-.8-1.01c-1.84-2.72,1.32-5.37.77-8.66.19.19.31.53.58.34-.36-5.18,1.2-11.22,1.85-16.78.3.29.88.63,1.33.39-.97-.49-.87-2.23-.75-3.73,1.19-.43-.43-2.71.52-4.3l.2.2c-.83-1.5,1.04-1.74-.07-3.05l1-.63c-1.36-.87,1.16-1.67.63-2.88l-.31-.03c-.15-1.06.7-1.42.65-2.39l.19-.05c.07-2.23,1.16-3.3,0-3.49,1.08-.55-.02,2.17,1.58,1.27.31-7.31,2.1-14.53,3.59-21.63.64-.71.89-1.19,1.36-1.28-.08-.76.36-2.72-.1-3.49-.03.24.69-.33.83-.69.71-1.2-.97-1.68-.15-2.99.19.63.52.9.99.8-.64-1.43-.17-2.91-.12-4.6.14.32.17.71.54.77-.33-.96-.11-1.75.14-2.4.25-.67.52-1.21.39-2.2.15.37.31.73.47,1.07,1.14-1.39-1.05-1.91-.21-3.51.06.73.32.83.52,1.21-.17-.87-.21-1.75-.17-2.61,1.45.04,3.55.78,4.9.86-.1.07-.04.28-.04.28,1.05.22,2.15.6,3.25.93.28.08.56.16.84.24.27.07.51.13.78.18.52.11,1.06.18,1.62.2.67.51-.71,1.53,1.37,1.87.31-1.34,3.57.45,2.82-1.38,1.65.72,4.23,2,5.5,1.88-.92.28.37,1.85-1.09,1.55l.85,1.11c-.32.49-1.06-.5-.91.27.73.16,2.97.24,3.54.64,1.56-.42,3.21-1.57,5.41-1.12-1.16.22.15,1.62-.6,1.64l3.73-1.65c.73.15-.15,1.09.99,1.04.05-.36.56-.45.96-.64.22.23,3.06.53,3,1.92.17.6-1.24-.06-.59.63,1.32.37,1.51-.06,2.83.31l-.03.18c.82.45,2.73.19,1.99-.8-.59-.22,0,.85-.78.21.83-.58,2.42-.34,3.75.03-.51.08-.56.44-.84.75,2.07-.51,4.04-.28,6.14-.13.21-.61-1.06.91-1.26.5,2.29,1.59,5.59.31,7.34,2.17-.38,0,.07-.93.04-.75,1.2.43.89,1.31,1.78,1.21-.07.55,1.05.12,1.91.2.53-.26.14.32-.59.17,1.27-.12,6.07.41,8.49,1.94.05-.36,1.99-.8,2.59-.59l-.47.74c.41.65,2.05.52,1.95,1.24,1.58-.61-5.23-.61-3.26-.86.26.81,2.82-.58,2.12.41,1.23.33,2.67-.25,3.62.85-.3-.23-1.31.84-.31,1.07,1.77.36.61-.24,2.09-.11l.98-.08c.29-.77,1.52.56,1.13-.51.02.71,2.63.33,2.07,1.59l-.54.96c.77.14,1.54-.73,2.26-1.02.07.13.21.39.12.55.58-1.54,1.75.65,2.99-.31.71.5,1.7.8,2.57,1.13.44.16.84.33,1.17.54.48.25.88.53,1.04.84,1.89.03,4.08.05,5.93.96-.55,0-1.16-.13-1.53.13.88.76,1.49.49,2.94.63-.24.05.14.4.62.83.48.42,1.05.91,1.31,1.29-.04.06-.08.1-.11.15.08,1.23,1.37.26,2,.12-1.32,1.25-1.41,2.26-1.56,3.5-.14,1.2-.35,2.66-1.49,3.65,0-.31,0-.93-.1-1.28-.11-.35-.35-.42-.8.25-1.13.74-1.03,1.35-.93,2.25.05.44.11.95.05,1.49-.02.25-.11.6-.17.78-.07.2-.19.39-.36.57l1.42.04c-1.06.49-.19,2.81-1.42,2.17.25.75-1.16,1.89.14,2.14-2.08,2.46-1.88,7.14-4.73,8.09.06.48-.52,1.42.19,1.44.93-.43-.15-1.12.41-1.2-.1.38.21.58.37.68-.6.78-.95,1.44-1.67.24-1.48,1.69,1.36,2.79-.03,5.12-.47-.3-.73-.18-.92.58l.37,1.71c-.79,1.54-1.49.5-2.38.22-.16.92-.59,1.96-.09,2.59l-1.47.65c1.07-.48.26.9.33,1.39l-.07-.48c-.42.03-.56,1.11-.64,1.65.58.08,1.17-.87,1.52-1.37.22.58-.12,1.24.12,1.98-.78-.5-1.12,1.19-1.45,1.84-.47.72.44,1.17.32,1.38-.45-.14-.54,1.26-.93.42-.04-.32.65-.46.43-1.04-.52.4-1.26.06-1.09,1.34.13.97,1.75.4.65,1.75-.06-.48-.38-.68-.57-1.1l-.97,1.28.75.34c-.27.12-.28-.03-.42.02.66.72-.55,2.29.25,2.95-.19.76-1.09,1.34-1.43,2l-.02-.16c-.76.68-.87,1.92-.61,2.83l-.15-.1c-.23.44-.51,1.58-.26,2.33-1.01.96-3.06-.67-2.56.98-.41,1.2.74,2.38,1.41,2.08-1.3,1.95-.92,4.83-2.84,6.38.2.42.47.3.42,1-1.45,3.03-1.49,6.96-3.92,8.91,0-1.03-.75-.34-1.2-.48.42,1-1.05.64.04,1.34.73.18,1.04.38,1.64-.4-.31,2.01-1.34,4.86-2.37,5.66.51-.4.58.08.64.56-1.06-.54-1.74.78-1.72,1.97l.63.4-.95.43c.07.48,1.26.96.23,1.76-.28-.04-.57-.08-.83.04.16,1.28.55,3.15-.45,4.11l-1.34.6c-.07.54.22,1.6.82.82-1.32,1.78-1.87,3.05-2.96,3.37.84,4.21-.9,9.24-2.51,13.2l-.47-.3c-.87.9.69.88.06,1.51-.36-.52-1.35.44-1.64-.62-1.1,1.35.16,2.3.03,3.39.61.39-.13-.96.64-.46.18.26-1.29,1.94-.37,2.55-.54.24-1.17-.33-1.5-.69l.15,1.12c-1.6.72-1.15-3.39-3.05-2.71l-.16.93c-1.36.44-.36-2.73-1.51-.68.15,1.13,1.32,2.47,2.08,1.79-.44,2.07,2.08,1.79,1.22,3.87-.8.36.47-1.74-.51-1.64-1.18.7-.27,2.17-.88,2.95.74-.85,1.46.36,1.41,1.06-.87.9-.7-1.05-1.36.44.49.46.42,2.02,1.26.96,1.12,1.03-.94,1.45-.22,2.65-1.11.16-1.58-2.35-2.65-.85.99.06.47,2.51,2.12,2.11-.5.56-1.23.37-1.6-.3-.89.74.81,2.87-1.08,2.53l.8.65c-.4.18-.78.52-1.45.82-.16.41-.09,1.19-.15,1.79,0,.11-.08.4-.14.59-.07.2-.15.38-.24.51-.18.26-.42.35-.74.15-.01.48-1.21,3.57.09,3,.64-.85.7-1.57.79-2.09.09-.53.22-.86,1.07-1.2-.8.55-1.02,1.27-1.09,2.12-.07.84.02,1.81-.06,2.58l-.54-.18c-.09.9-.81,2.51-.52,3.53-.03-.88-.44-.89-.75-.43.12.52.23,1.05.34,1.59-.85,3.6-1.32-.81-2.18,2.29l.32-2.85c-.06.56-.79.62-1.12,1.79-.09-.02-.19-.03-.29-.03,0,.82-.54,1.65-.78,2.22-1.65-.12-1.11-1.25-2.56-.83.66-.14,1.28-.29,1.85-.45.1-.1-.41-.59-1.16-1.11-.76-.52-1.73-1.07-2.72-1.35-.61-.04-1.41.1-1.83.37-.41.27-.43.67.75,1.24-1.18-.33-2.72-1.28-1.81-1.62-1.22-.21-1.18.02-1.07.3.1.28.27.6-.91.52-.21-.2-.54-.45-.93-.72-.19-.13-.4-.28-.61-.43-.18-.14-.24-.25-.37-.37-.46-.5-.97-1.04-1.33-1.54l1.62-.9-.83-.25c1.38-.7-.32-.94.6-1.83-.52-.33-1.32-.17-1.95-.05,1.17,2.2-2.55,1.81-2.52,3.51-2.41-.24-.32-4.23-3.42-2.47.27.52-1.2,1.39.37,1.35-1.37-.59-1.42,1.29-2.91.15,1.43-.28-.87-1.98,1.19-2.39-.27.49.89.69,1.2.62-.41-.77.58-1.54-.88-1.96-.93-.11-2.16-.43-2.22.44-.22.91,1.38.3.55,1.04-1.86-.2-1.76-1.65-2.95-.28,1.15.2,1.16,1.21.97,1.82h-1.41s.43-.53.43-.53c-1.96-1.03-.93.9-2.9.16l-.6-1.45c.77-.87,2.81,1.3,2.93-.45-1.29-.45-1.97.26-3.08-.52.32-.06.7,0,1.02-.06-.45-.19-.29-2.52-2.53-1.78-1.11.22-.43.51-.63,1.12-2.16-.42-2.97.02-4.36-.28.63-1.13-2.36-.81-.51-1.61.48.91,3.55,1.72,4.63.79-.35-1.65,1.6.68,2.47-.63-1.68-.52-1.19-1.91-1.19-2.91-.45-.2-1.02.06-1.34.12-.45.81.17.98-.06,1.88-1.82-.78-3.77-.83-5.06-.28-.51-.61-.05-1.42.71-1.29-2.32-.4-4.68-1.21-6.73-2.09.96,1.81-2.47-.36-1.88,1.09,1.05.65,1.74,1.94.92,2.4-.69-.3.2-.61,0-1-1.13.51-1.05-1.65-2.3-.69,2.18.14.9-1.61,1.6-2.61-1.66.2.29-.77-1.17-1.19-1.65.19-3.6.15-5.31-.09-1.75-1.65-5.2-1.53-7.05-2.02-.8-.84.22-1.91-.76-2.43-1.23-.33.51,1.62-1.13.52l.25-.2c-.63.13-3.07-1.82-4.13-.17l.95-1.2c-.3-.22-.71,0-1.03.06.12-.45-.16-.96.47-1.09-.85-1.26-2.39-.53-3.62-.85l.55,1.03c-2.26.03-3.43-1.17-5.52-1.48l.29-.77-1.33.12c.51-.68-.44-1.49-1.26-1.03l3.67-1.02c.73.72-1.22.68-.9,1.61.26.81,2.19,1.14,2.71.47-.69-.29-.77-.13-1.41,0,.08-1.16,1.15-.81,1.9-1.38-.39-.06-.82-.55-1-.23.89-.32,1.65-.19,2.88.14-.95.19.25.81-.15,1.03.38-.94,1.63-.89,3.06-.18.76,1.43,3.04.11,4.7.92-.99.77-2.13,1.29-3.31,1.37.95.81,1.23.33,2.19,1.14.74-.57,1.45-1.58,3.01-1.61l-.13.74c1.41.01,1.72-1.06,3.31-.38,2.73,1.18,5.64,2.02,7.78,2.74l-.13.74c1.65-1.19,4.17.6,5.99.38,2.55,1.49,6.18,1.05,7.23,2.7,5.02.86,9.43,1.55,14.38,3.28l-1.15.8c1.13-.51.41.77,1.34.88-.77-1.13,1.54-.73,2.35-1.19,1,.73,2.29,1.09,3.6,1.24.65.08,1.32.1,1.95.1.32,0,.63-.02.93-.02.15,0,.3-.02.44-.02.07,0,.15,0,.2-.02l.11-.04-.15.74c.73-.52,1.15-.44,1.76-.1.59.34,1.39.95,2.2,1.31h.01c.25.25.8.75.93.14-.25-1.08-.36-1.61-.41-2.13-.06-.5-.06-.99-.22-1.65.06-.16,1.35-2.83,2.28-4.02.35-5.93,3.36-11.03,4.42-16.94l.97-.1c.19-6.04,4.21-12.09,4.98-17.02l1.25.96c.96-1.28.82-3.43-.31-3.42.96-1.29.63-3.86,2.12-4.36.8-1.38,0-2.05.26-3.35,1.61-2.77,1.89-3.91,2.64-6.8l-.34.66c.2.42.79.67,1.13,0-.01-1.18,1.77-3.69-.29-3.27,2.06-2.63,1.73-7.24,4.1-9.66-.55.08-.37-.69-.57-1.11.93-2.62,2.87-5.03,2.85-7.4.38-.33.54.95.98-.1.05-.69-.6-.23-.57-1.1.68-4.55,4.01-8.26,5.18-12.19,1.6-7.17,4.65-14.16,6.88-20.77l.31.2c-.5-2.67,3.2-4.67,1.89-7.14.51-.4.87-1.93,1.39-1.3-.03-2.76,2.07-3,1-3.67-.06.07.01.08.17.11.56-.43.66-.84.68-1.13-.53-.07-.95-.07-1.1-.5.21-.1.49-.14.85-.41.08-.33-.53-.12-.9.04-.39.15-.57.22-.25-.59-.28-.06-.58.74-.45.73-.1-.07-.22-.14-.34-.21l-.18-.09-.05-.02-.13-.05-.28-.1c-.76-.25-1.52-.49-2.3-.71-1.55-.44-3.15-.81-4.75-1.15-3.22-.68-6.5-1.24-9.7-1.96-4.21-2.31.54-2.89-3.37-2.68-.2-.41-.4.58-.34.22-1.51.07-1.6-2.49-2.8-1.89.1,1.14-.8.39-1.01,1-2.56-1.46-2.84-2.55-5.24-2.4l.32-.49c-2.99.78-5.7-.89-8.36.25-7.06-1.88-14.03-3.55-20.95-5.23-3.46-.85-6.9-1.69-10.35-2.54l-5.16-1.32c-1.53-.41-3.07-.81-4.6-1.22-.05-.09-.17-.14-.27-.17-.02.1-.03.23-.02.32-.57,2.73-1.13,5.46-1.7,8.2-1.19,5.55-2.47,11.1-4.06,16.68-2.15,2.97-2.16,3.22-2.34,6.95-.2-.19-.21-.43-.48-.24,1.14.43-.43,2.56.63,3.14-1.33,5.13-2.02,9.96-3.14,15.28.05-.87-.83-1.5-.96-.48l.53,1.21-.37.1c.03.72.45,1.59.98.97-1.83,13.59-7.01,26.23-9.51,39.39-1.16,3-1.65,7.53-2.13,10.96-3.72,9.68-6.92,18.43-7.98,28.84,0,0-2.78-1.98-2.59-6.33Z"/>
      <path class="cls-2" d="M95.95,189.35c.18.68,1.23,1.33.09,1.85.05-.58-.37-1.36-.09-1.85Z"/>
      <path class="cls-2" d="M124.74,204.2c.09-.16.37.36.43.49-.39-.07-.88.32-1.1-.07.39.07.42-.22.66-.42Z"/>
      <path class="cls-2" d="M132.45,206.82c-.27.49-2.06.41-3.06.18l3.06-.18Z"/>
      <path class="cls-2" d="M139.1,211.06c.5.62.26.81-.58.55.02-.29.34-.35.58-.55Z"/>
      <path class="cls-2" d="M139.96,210.03c.61.16.82.56,1.03.94.1-.45-1.48-.13-1.03-.94Z"/>
      <path class="cls-2" d="M155.31,216.12c.39.07,1.34-.12,1.53.56-.28-.52-2.04.12-1.53-.56Z"/>
      <path class="cls-2" d="M165.77,218.31c.43.16.63.32,1.08.3.85.5.14.71-.55.56l-.53-.86Z"/>
      <polygon class="cls-2" points="218.37 86.09 218.2 87.34 217.75 87 218.37 86.09"/>
      <path class="cls-2" d="M166.8,59.32c-.89.1-.41-.65-.52-.76.73.15-.45.56.52.76Z"/>
      <polygon class="cls-2" points="134.49 52.74 134.74 52.8 134.35 53.83 134.49 52.74"/>
    </g>
  </g>
  <g>
    <line class="cls-1" x1="199.89" y1="71.49" x2="150.07" y2="206.95"/>
    <g>
      <path class="cls-2" d="M200.71,72.16c.07-.54-.54.1-.08-.4.18.14.3.3.08.4Z"/>
      <path class="cls-2" d="M151.33,205.54c-.73-2.09,1.38-3.7,1.18-5.77.02-.23.7.32.7-.21-.4-2.08,1.2-4.53,2.75-6.31l.16.2c.29-.34-.21-1.07.04-1.45.14.05.14.2.37.18-.37-.26.09-.82-.15-1.11.22-.11.54.03.8-.12l-.38-.41c-.86-1.07.67-1.59.43-2.7.09.08.14.2.28.17-.14-1.7.66-3.48,1.01-5.2.14.13.42.3.64.27-.46-.26-.4-.81-.34-1.28.58-.01-.19-.92.28-1.33l.1.08c-.39-.57.51-.45,0-.99l.49-.09c-.65-.43.57-.41.32-.86l-.15-.04c-.07-.36.35-.38.33-.7h.09c.05-.7.58-.93.02-1.12.53-.06-.03.69.75.58.2-2.32,1.11-4.45,1.88-6.57.31-.16.44-.29.67-.26-.03-.25.19-.84-.02-1.13-.02.07.33-.03.4-.13.35-.31-.46-.65-.05-.98.09.22.24.35.47.37-.3-.52-.05-.98-.04-1.46.07.1.09.22.27.27-.32-.65.42-.81.26-1.34l.26.27c.63-.52-.6-.44-.16-.93.05.17.19.17.32.24-.39-.75.12-1.54.12-2.14.03.05.12.07.12.07.14-.6.54-1.14.52-1.87.23-.18.75.36.86-.29-.65-.21.12-1.14-.74-1.04.3-.48.84-1.22.75-1.65.16.32.88.03.78.49l.51-.18c.25.15-.21.31.16.32.05-.23.03-.96.21-1.11-.25-.55-.85-1.19-.69-1.87.14.4.77.09.81.34l-.9-1.36c.05-.23.53.14.47-.24-.18-.05-.23-.22-.33-.37.1-.05.17-.96.84-.82.28,0,0,.4.32.25.14-.4-.07-.5.07-.91l.09.02c.19-.23.02-.88-.44-.72-.09.18.41.07.12.28-.3-.32-.23-.83-.09-1.23.05.17.23.22.39.34-.3-.72-.25-1.35-.23-2.03-.3-.12.47.43.27.46.7-.62,0-1.81.84-2.23.02.12-.45-.1-.36-.08.17-.36.6-.18.53-.48.27.07.03-.33.04-.61-.14-.2.15-.02.1.21-.09-.43.03-1.96.7-2.63-.18-.05-.44-.72-.35-.9l.37.22c.3-.08.19-.63.54-.54-.34-.57-.15,1.67-.32,1,.38-.02-.36-.97.14-.66.12-.38-.19-.9.31-1.12-.1.08.44.5.52.19.12-.55-.13-.22-.11-.7l-.06-.33c-.38-.16.22-.45-.28-.41.34.05.09-.84.71-.55l.48.26c.05-.24-.39-.57-.55-.83.06-.01.18-.04.26,0-.76-.32.26-.52-.23-1.01.44-.38.47-1.21,1.03-1.25-.1-.45-.25-.89.07-1.25.04.11.02.23.18.32.32-.18.14-.32.11-.61.1.1.64-.36,1.03-.55-.1-.45-.56-.48-.8-.61.88-.05-.11-1.21.73-1.37.06.16.18.67.48.44.88-.05-.32-.88.25-1.28l-.68-.1c.48-.1-.07-.93.55-.63-.16-.26.44-.56-.2-.72.85-.69.48-2.26,1.78-2.4-.06-.16.17-.44-.18-.49-.42.08.14.38-.13.38.02-.12-.14-.21-.22-.25.24-.22.37-.42.78.03.61-.47-.82-1.02-.29-1.7.24.13.36.11.4-.14l-.28-.59c.29-.47.68-.07,1.12.07.02-.3.17-.62-.11-.86l.66-.13c-.48.09-.18-.32-.24-.48l.06.17c.2.02.2-.33.21-.51-.28-.06-.51.22-.65.36-.14-.21-.02-.4-.17-.67.4.22.46-.33.59-.52.18-.21-.28-.42-.24-.48.22.07.18-.39.42-.08.04.11-.28.11-.14.32.22-.1.6.06.44-.38-.12-.33-.86-.24-.42-.62.06.16.22.25.34.4l.38-.37-.38-.16c.12-.02.14.03.2.02-.36-.28.13-.73-.29-1,.04-.24.44-.38.57-.58l.02.05c.32-.18.3-.59.12-.9l.08.04c.08-.13.15-.5-.01-.76.43-.26,1.5.41,1.16-.17.12-.37-.49-.84-.8-.78.51-.57.15-1.55.98-1.95-.12-.15-.24-.13-.26-.36.51-.92.3-2.23,1.34-2.73.06.34.38.16.6.24-.26-.36.46-.15-.1-.45-.36-.1-.52-.19-.76.03.03-.65.35-1.54.8-1.74-.22.1-.28-.06-.34-.23.54.25.78-.15.71-.55l-.32-.17.43-.08c-.06-.16-.66-.4-.22-.6.14.03.28.06.4.04-.15-.44-.45-1.08-.03-1.34l.6-.12c0-.18-.2-.55-.44-.33.53-.51.71-.9,1.21-.94-.65-1.46-.12-3.03.41-4.24l.24.13c.36-.25-.38-.34-.12-.51.2.2.62-.06.82.31.44-.38-.21-.78-.21-1.13-.32-.17.12.33-.28.11-.1-.1.5-.57.03-.83.24-.05.58.18.76.32l-.14-.38c.72-.14.75,1.2,1.62,1.09l.02-.3c.62-.06.33.93.76.32-.14-.39-.78-.91-1.1-.73.09-.66-1.1-.73-.81-1.37.36-.07-.12.55.34.58.52-.16,0-.71.25-.93-.3.24-.72-.21-.74-.44.36-.25.4.39.62-.06-.26-.19-.32-.7-.66-.4-.6-.41.36-.43-.05-.87.52.02.89.88,1.32.45-.48-.08-.37-.87-1.14-.83.2-.16.56-.05.78.2.38-.19-.56-1.01.37-.78l-.42-.27c.18-.04.34-.13.64-.18.1-.25-.31-1.05.37-.78-.04-.11.21-.68-.36-.63-.43.26.2.55-.53.51.62-.06.12-.55.03-.83l.28.06c-.06-.16.11-.43-.15-.62.12.15.32.17.42.09l-.36-.28c-.02-.58.76.14.82-.4l.18.49c-.04-.11.4-.14.37-.42-.34-.23-.72-.57-.98-.75-.06-.34.46.03.18-.39l.31.52c.1.1.7-.02.83-.39-.04-.29-.44-.85-.78-.55.06-.19.39-.37.6-.12.03-.47-.42-.09-.51-.54.3-.06.83-.4,1.29-.54l.48.61.1-.25c.38.51.44-.03.9.35.15-.14.04-.42-.03-.64-1.03.2-.94-.99-1.76-1.13.05-.77,2.02.25,1.09-.92-.24.05-.7-.51-.64,0,.24-.4-.66-.58-.16-.97.18.49.93-.12,1.18.59-.24-.13-.3.23-.26.34.36-.07.76.32.92-.12.03-.3.15-.67-.27-.77-.44-.15-.1.43-.48.09.04-.59.74-.44.05-.95-.07.36-.55.28-.85.16l-.04-.46.26.18c.44-.56-.46-.38-.16-.97l.68-.08c.44.33-.55.81.3,1,.18-.39-.18-.67.17-.97.04.11.02.23.06.34.08-.13,1.2.12.78-.68-.14-.38-.26-.18-.56-.3.14-.67-.09-.98.01-1.41.56.3.32-.71.76-.03-.42.08-.73,1.02-.25,1.46.78.02-.28.47.37.86.2-.51.88-.23,1.36-.15.08-.13-.06-.34-.09-.45-.4-.22-.46-.03-.9-.18.33-.53.29-1.17,0-1.64.28-.11.68.1.64.34.13-.73.45-1.44.82-2.04-.85.16.1-.78-.58-.71-.28.29-.89.41-1.13.1.12-.2.3.12.48.08-.28-.42.76-.21.27-.7,0,.71.8.43,1.3.75-.14-.56.38.16.54-.28-.14-.56-.17-1.2-.11-1.74.74-.44.59-1.58.78-2.15.38-.19.92.23,1.14-.05.12-.38-.76.03-.28-.41l.1.1c-.08-.22.79-.86-.03-1.34l.6.41c.1-.08-.02-.23-.06-.34.22.08.46.03.54.25.58-.17.19-.74.31-1.12l-.48.09c-.08-.75.47-1.03.56-1.69l.38.16-.1-.45c.34.23.7-.02.46-.33l.59,1.29c-.32.18-.36-.46-.8-.43-.38.02-.49.62-.15.85.12-.2.04-.24-.03-.46.56.13.42.45.72.74.02-.12.24-.22.08-.31.18.32.14.56.01.94-.12-.33-.38.02-.5-.14.46.2.47.61.17,1.02-.66.13.03.99-.31,1.47-.4-.39-.68-.81-.75-1.2-.36.25-.12.38-.49.62.3.29.8.61.86,1.12l-.36-.11c.03.46.55.65.27,1.12-.49.8-.82,1.68-1.1,2.32l-.36-.1c.62.64-.17,1.32-.02,1.94-.65.71-.33,1.94-1.1,2.15-.27,1.58-.48,2.97-1.18,4.45l-.42-.45c.27.41-.36.07-.38.37.52-.16.39.57.64.87-.65.54-.54,1.57-.4,2.31l-.36-.11c.44.85-.41,1.37-.8,2.09-.18.03-.56.05-.6.29.42.62.3.82.43,1.56-.16.44-.57,1.11-.95,1.48.19,1.96-.95,3.47-1.1,5.37l-.46-.03c.27,2-1.29,3.77-1.37,5.37l-.66-.4c-.38.37-.19,1.09.35,1.16-.38.37-.07,1.25-.76,1.32-.3.41.12.68.07,1.1-.61.82-.67,1.19-.86,2.1l.12-.2c-.12-.15-.42-.27-.54-.07.08.4-.63,1.12.33,1.11-.83.75-.4,2.31-1.39,2.97.26,0,.22.25.34.4-.29.82-1.07,1.5-.92,2.29-.16.09-.32-.35-.46-.03.02.23.3.12.34.4-.05,1.48-1.42,2.5-1.75,3.74-.34,2.29-1.38,4.43-2.06,6.5l-.16-.09c.39.92-1.25,1.36-.48,2.26-.22.1-.3.59-.59.35.26.71-.99,1.36-.7,2.36.04-.07.02-.12-.02-.23-.66.66-.41,1.55-1.06,2.26-.04-.11-.04-.29-.2-.37-.44.2.43,1.03-.45.91-.06.19.36.28.38.16-.99,1.72-1.19,3.87-1.71,5.85-.99,1.19-1.4-.42-1.19.88-.19.03.29.18.11.13.07.5-1.15.32-.83.76.55.06.21.3.51.42-.63.72-1.15.72-1.01,1.52l-.25-.15c.46,1.05-.27,1.8.35,2.77-1.41,4.33-2.44,8.59-3.87,12.79-1.68,4.05-2.77,8.23-4.77,12.24-1.05.72-1.06.8-1.18,1.98-.1-.08-.1-.16-.23-.13.55.26-.23.78.28,1.08-.67,1.51-1.04,2.99-1.62,4.58.03-.27-.39-.57-.46-.26l.25.45h-.18c0,.23.21.55.47.41-.98,4.17-3.56,7.68-4.86,11.64-.58.84-.85,2.24-1.1,3.3-1.86,2.71-3.46,5.18-4.05,8.42,0,0-1.32-.94-1.2-2.32Z"/>
      <path class="cls-2" d="M200.55,72.78c-.32,0-.61.29-.88-.12.28.06.64,0,.88.12Z"/>
      <path class="cls-2" d="M194.21,80.99c.08.04-.16.09-.22.1.02-.12-.18-.32,0-.35-.02.12.12.16.22.25Z"/>
      <path class="cls-2" d="M193.17,83.3c-.24-.13-.25-.71-.17-1.02l.17,1.02Z"/>
      <path class="cls-2" d="M191.31,85.13c-.28.11-.38.02-.28-.24.14.03.18.14.28.24Z"/>
      <path class="cls-2" d="M191.83,85.5c-.06.19-.24.22-.42.26.22.07.02-.48.42-.26Z"/>
      <path class="cls-2" d="M189.33,90.03c-.02.12.1.45-.22.45.24-.05-.11-.68.22-.45Z"/>
      <path class="cls-2" d="M188.89,92.41c-.04.07-.1.08-.06.19-.16.09-.3-.12-.28-.24l.34.05Z"/>
      <polygon class="cls-2" points="174.96 133.41 174.92 133.12 175.16 133.25 174.96 133.41"/>
      <path class="cls-2" d="M168.42,151.22c.07.3-.3.08-.35.11.05-.23.28.19.35-.11Z"/>
      <polygon class="cls-2" points="166.16 161.29 166.18 161.21 166.68 161.43 166.16 161.29"/>
    </g>
  </g>
  <g>
    <line class="cls-1" x1="183.2" y1="66.97" x2="136.97" y2="202.49"/>
    <g>
      <path class="cls-2" d="M184.04,67.62c.05-.54-.54.11-.09-.39.18.14.31.29.09.39Z"/>
      <path class="cls-2" d="M138.18,201.06c-.79-2.06,1.28-3.71,1.03-5.75.01-.22.71.3.69-.22-.45-2.05,1.08-4.52,2.58-6.32l.16.2c.28-.34-.23-1.06,0-1.44.14.04.15.2.37.17-.38-.25.07-.82-.18-1.1.22-.11.54.02.79-.13l-.39-.4c-.89-1.05.63-1.59.36-2.69.09.08.15.2.28.16-.18-1.69.57-3.47.87-5.18.14.12.43.29.65.25-.47-.25-.42-.8-.37-1.26.58-.02-.21-.91.25-1.32l.1.08c-.4-.56.5-.46-.04-.98l.48-.1c-.66-.41.56-.42.3-.86l-.15-.04c-.07-.35.34-.39.31-.7h.09c.03-.7.56-.94,0-1.11.52-.07,0,.69.76.56.14-2.3,1-4.44,1.71-6.56.31-.16.43-.29.66-.28-.04-.25.17-.83-.05-1.12-.01.07.33-.04.4-.14.34-.31-.47-.63-.08-.97.09.22.25.34.48.35-.31-.51-.08-.97-.07-1.45.07.1.09.22.27.26-.34-.64.4-.82.22-1.33l.27.26c.62-.53-.61-.43-.18-.92.06.17.2.17.32.24-.41-.73.08-1.53.06-2.13.03.05.12.07.12.07.12-.6.51-1.14.47-1.87.22-.18.76.34.85-.31-.66-.2.09-1.13-.77-1.02.28-.49.81-1.23.71-1.65.17.32.88.02.79.47l.5-.19c.25.14-.2.31.16.32.05-.23,0-.95.18-1.11-.26-.54-.88-1.16-.74-1.84.15.39.77.07.81.32l-.93-1.34c.04-.23.53.13.47-.24-.18-.04-.24-.21-.34-.36.1-.06.15-.96.82-.83.28,0,.01.4.32.24.13-.4-.08-.5.05-.9l.09.02c.19-.23,0-.87-.46-.71-.08.18.41.06.13.27-.31-.31-.25-.81-.12-1.22.06.17.23.21.39.33-.32-.71-.28-1.34-.29-2.01-.3-.11.48.41.28.45.68-.63-.05-1.8.78-2.23.02.12-.45-.09-.36-.07.17-.36.6-.19.52-.49.27.06.02-.33.03-.61-.14-.19.15-.02.1.21-.1-.42-.02-1.95.63-2.62-.18-.04-.46-.71-.38-.89l.38.21c.3-.09.18-.63.53-.54-.35-.56-.1,1.66-.3,1,.38-.02-.38-.96.12-.66.11-.38-.22-.89.28-1.12-.1.08.45.49.53.18.11-.55-.14-.22-.13-.69l-.07-.32c-.38-.15.21-.45-.29-.41.34.04.06-.83.69-.56l.48.25c.04-.24-.41-.56-.57-.81.06-.01.18-.04.26,0-.77-.3.25-.52-.26-1,.43-.39.44-1.21,1-1.27-.11-.45-.28-.88.03-1.24.04.11.03.23.19.31.32-.18.14-.32.09-.6.1.09.63-.37,1.01-.57-.11-.44-.57-.46-.81-.59.88-.07-.14-1.2.7-1.38.06.16.19.66.49.42.88-.07-.34-.87.22-1.28l-.68-.09c.48-.1-.1-.92.53-.64-.17-.26.43-.56-.21-.71.83-.7.42-2.26,1.71-2.42-.06-.16.15-.44-.19-.49-.42.09.15.38-.12.38.02-.12-.14-.2-.22-.24.24-.23.35-.43.78,0,.59-.48-.84-.99-.33-1.69.24.12.36.1.4-.14l-.29-.58c.27-.47.68-.09,1.12.05.02-.29.15-.62-.13-.85l.66-.14c-.48.1-.19-.31-.25-.47l.06.16c.2.01.19-.34.19-.51-.28-.06-.5.22-.64.37-.14-.2-.03-.4-.19-.66.41.21.45-.33.57-.53.18-.21-.29-.41-.25-.47.22.07.17-.39.42-.09.04.11-.28.12-.13.32.22-.11.6.04.43-.39-.13-.32-.87-.22-.43-.61.06.16.23.24.35.39l.37-.37-.38-.15c.12-.03.14.03.2.02-.36-.27.11-.73-.32-.99.04-.24.43-.38.55-.59l.02.05c.32-.19.29-.59.1-.9l.08.04c.08-.13.13-.5-.03-.75.42-.26,1.51.38,1.16-.19.11-.37-.52-.82-.81-.76.49-.58.11-1.55.93-1.96-.12-.15-.24-.12-.27-.35.49-.92.24-2.22,1.27-2.73.07.34.38.15.61.22-.27-.35.46-.16-.11-.45-.36-.1-.52-.18-.76.05.01-.65.31-1.53.75-1.74-.22.11-.28-.06-.35-.22.55.23.78-.17.69-.56l-.33-.16.42-.09c-.07-.16-.67-.38-.23-.59.14.03.28.06.4.03-.16-.43-.48-1.07-.06-1.33l.6-.13c0-.17-.21-.54-.45-.31.51-.52.69-.91,1.19-.96-.69-1.43-.2-3,.3-4.22l.24.12c.35-.25-.39-.33-.13-.5.21.19.62-.07.83.29.43-.39-.23-.77-.24-1.12-.32-.16.13.32-.28.12-.1-.09.49-.57,0-.82.24-.05.58.17.77.3l-.15-.38c.72-.16.78,1.18,1.64,1.05v-.3c.63-.08.37.92.78.3-.15-.38-.8-.88-1.12-.7.07-.66-1.12-.7-.85-1.34.36-.08-.11.55.35.57.52-.17-.02-.7.22-.93-.3.24-.72-.19-.75-.42.35-.25.41.38.62-.07-.27-.18-.34-.69-.67-.38-.61-.4.35-.43-.08-.86.52,0,.92.86,1.33.42-.48-.07-.39-.85-1.16-.8.2-.16.56-.06.79.18.38-.2-.58-.99.35-.78l-.43-.26c.18-.04.34-.13.64-.2.1-.25-.34-1.04.35-.78-.04-.11.19-.68-.37-.62-.42.26.21.54-.51.52.62-.08.11-.55,0-.82l.28.06c-.06-.16.09-.43-.17-.61.12.15.32.16.42.08l-.36-.27c-.03-.58.76.13.81-.41l.19.49c-.04-.11.4-.14.35-.43-.34-.22-.73-.55-1-.72-.07-.34.46.02.17-.39l.33.51c.1.1.7-.03.82-.41-.05-.28-.46-.84-.79-.53.06-.19.38-.37.6-.13.02-.47-.42-.08-.53-.53.3-.07.81-.41,1.27-.57l.49.6.09-.25c.39.5.44-.04.9.33.14-.14.03-.42-.05-.63-1.02.22-.96-.96-1.79-1.08.03-.77,2.03.21,1.07-.93-.24.05-.71-.49-.64.02.23-.4-.67-.56-.18-.96.19.49.92-.14,1.19.56-.24-.12-.3.24-.25.35.36-.08.76.3.91-.14.02-.3.13-.67-.29-.75-.45-.14-.09.43-.48.1.03-.59.73-.45.03-.94-.06.36-.54.29-.84.18l-.05-.46.27.18c.43-.56-.47-.37-.18-.96l.68-.09c.45.32-.53.82.32.99.17-.39-.2-.66.14-.97.04.11.02.23.07.34.08-.13,1.2.09.77-.69-.15-.38-.26-.18-.56-.29.13-.67-.12-.97-.03-1.4.57.29.31-.71.76-.05-.42.09-.7,1.03-.21,1.45.78,0-.27.47.4.85.19-.51.88-.25,1.36-.18.08-.13-.06-.34-.11-.45-.41-.21-.46-.02-.91-.16.31-.53.26-1.17-.05-1.63.28-.12.68.09.65.33.11-.73.41-1.44.76-2.04-.84.18.08-.78-.59-.69-.28.29-.87.42-1.12.12.12-.2.3.11.48.07-.29-.41.76-.22.25-.7.01.7.81.41,1.32.71-.15-.55.38.15.53-.29-.15-.55-.2-1.18-.15-1.72.73-.45.55-1.58.72-2.15.38-.2.93.21,1.14-.07.11-.38-.76.05-.29-.41l.1.09c-.09-.22.76-.87-.07-1.33l.61.4c.1-.08-.03-.23-.07-.34.22.07.46.02.54.23.58-.18.17-.74.28-1.12l-.48.1c-.09-.74.44-1.03.51-1.69l.38.15-.11-.44c.34.22.7-.03.45-.33l.63,1.27c-.32.18-.37-.45-.81-.41-.38.03-.47.63-.13.85.12-.2.04-.24-.05-.46.56.11.43.43.73.72.02-.12.24-.23.07-.31.19.31.15.55.04.93-.12-.32-.38.02-.5-.13.47.19.49.6.2,1.01-.66.14.06.98-.27,1.46-.41-.38-.7-.79-.78-1.18-.36.25-.11.38-.47.63.3.28.81.59.88,1.1l-.36-.1c.05.46.57.64.3,1.11-.47.8-.77,1.69-1.04,2.33l-.36-.1c.63.62-.14,1.31.03,1.92-.63.72-.28,1.94-1.04,2.16-.23,1.57-.41,2.96-1.06,4.44l-.43-.43c.29.4-.36.08-.37.37.52-.17.41.56.66.85-.63.55-.5,1.57-.34,2.3l-.36-.1c.46.84-.38,1.37-.74,2.09-.18.04-.56.06-.59.3.43.61.32.81.47,1.54-.15.44-.54,1.11-.91,1.49.24,1.94-.86,3.46-.96,5.36l-.46-.02c.32,1.98-1.19,3.77-1.23,5.36l-.67-.38c-.37.37-.16,1.09.38,1.14-.37.38-.04,1.24-.72,1.33-.29.42.14.68.1,1.09-.58.83-.64,1.19-.8,2.11l.12-.2c-.12-.15-.42-.26-.54-.06.09.39-.6,1.13.36,1.09-.81.76-.34,2.3-1.31,2.97.26,0,.23.25.35.39-.27.82-1.03,1.51-.86,2.29-.16.09-.32-.34-.46-.02.02.23.3.11.35.39-.02,1.47-1.36,2.52-1.65,3.75-.28,2.28-1.26,4.43-1.88,6.49l-.16-.08c.42.91-1.22,1.38-.42,2.26-.22.11-.29.59-.58.36.28.7-.95,1.38-.64,2.36.04-.07.02-.12-.03-.23-.65.67-.37,1.54-1,2.27-.04-.11-.05-.28-.21-.37-.44.21.46,1.01-.43.91-.06.19.37.27.38.15-.95,1.73-1.09,3.87-1.55,5.84-.96,1.2-1.41-.39-1.17.9-.19.03.29.17.12.13.09.5-1.14.34-.81.77.55.05.22.29.52.4-.61.72-1.13.74-.97,1.53l-.25-.14c.49,1.03-.22,1.79.42,2.74-1.3,4.32-2.22,8.58-3.54,12.78-1.57,4.06-2.56,8.22-4.44,12.25-1.03.74-1.04.82-1.12,1.99-.1-.08-.1-.16-.23-.12.55.25-.21.78.31,1.07-.63,1.51-.96,2.99-1.5,4.58.02-.27-.4-.56-.47-.25l.26.44h-.18c.01.23.22.55.48.4-.87,4.16-3.36,7.7-4.55,11.66-.56.85-.79,2.24-1.01,3.29-1.79,2.73-3.32,5.22-3.82,8.44,0,0-1.35-.9-1.26-2.27Z"/>
      <path class="cls-2" d="M183.89,68.24c-.32,0-.6.3-.89-.11.28.06.64-.02.89.11Z"/>
      <path class="cls-2" d="M177.77,76.52c.08.04-.16.09-.22.11.02-.12-.19-.31,0-.35-.02.12.12.15.23.25Z"/>
      <path class="cls-2" d="M176.79,78.84c-.24-.12-.27-.7-.2-1.01l.2,1.01Z"/>
      <path class="cls-2" d="M174.98,80.69c-.28.12-.38.02-.29-.23.14.03.18.14.29.23Z"/>
      <path class="cls-2" d="M175.51,81.05c-.06.19-.24.23-.41.27.22.07,0-.47.41-.27Z"/>
      <path class="cls-2" d="M173.13,85.6c-.02.12.11.44-.21.46.24-.05-.13-.67.21-.46Z"/>
      <path class="cls-2" d="M172.75,87.96c-.04.07-.1.08-.06.19-.16.09-.3-.11-.29-.23l.34.04Z"/>
      <polygon class="cls-2" points="159.91 128.96 159.87 128.68 160.1 128.8 159.91 128.96"/>
      <path class="cls-2" d="M153.84,146.78c.08.3-.3.09-.35.11.05-.23.29.19.35-.11Z"/>
      <polygon class="cls-2" points="151.84 156.82 151.86 156.74 152.37 156.95 151.84 156.82"/>
    </g>
  </g>
  <g>
    <line class="cls-1" x1="159.19" y1="58.36" x2="124.34" y2="197.51"/>
    <g>
      <path class="cls-2" d="M160.07,58.94c0-.54-.53.16-.12-.38.19.12.33.26.12.38Z"/>
      <path class="cls-2" d="M125.43,195.98c-.96-1.99.97-3.81.55-5.83,0-.23.73.24.67-.28-.62-2.01.7-4.6,2.05-6.52l.18.18c.26-.37-.32-1.04-.12-1.44.14.03.16.19.38.14-.4-.21,0-.82-.27-1.09.21-.13.54-.03.78-.2l-.42-.37c-.97-.97.5-1.64.14-2.72.1.07.16.19.29.14-.32-1.67.28-3.51.44-5.25.15.11.45.25.66.2-.49-.21-.49-.76-.47-1.23.57-.07-.28-.89.14-1.34l.11.07c-.45-.53.46-.5-.12-.98l.47-.14c-.69-.36.52-.47.23-.88l-.15-.03c-.1-.35.3-.41.25-.72h.09c-.03-.71.48-.99-.1-1.12.52-.12.05.69.81.49-.05-2.31.62-4.51,1.16-6.69.29-.19.4-.33.63-.33-.06-.25.1-.85-.14-1.12,0,.08.33-.07.39-.17.32-.34-.52-.59-.16-.96.11.21.28.32.51.31-.35-.48-.16-.96-.19-1.44.08.09.11.21.29.24-.39-.61.33-.85.11-1.35l.29.24c.57-.58-.64-.37-.26-.9.07.17.21.15.34.21-.47-.7-.05-1.53-.11-2.13.04.04.13.06.13.06.07-.61.42-1.19.32-1.9.21-.2.79.28.82-.38-.67-.14,0-1.13-.85-.95.24-.51.71-1.3.57-1.71.19.3.88-.06.82.4l.49-.24c.26.12-.18.32.19.3.03-.23-.07-.95.09-1.12-.3-.52-.97-1.09-.89-1.78.18.38.78,0,.84.25l-1.04-1.25c.02-.23.54.08.44-.28-.18-.03-.25-.19-.37-.33.1-.06.07-.97.74-.9.28-.03.05.4.34.21.1-.41-.12-.49-.03-.9h.09c.17-.23-.08-.86-.51-.65-.07.18.41.03.15.26-.33-.29-.32-.79-.22-1.21.07.17.25.19.42.3-.38-.68-.39-1.31-.45-1.98-.31-.09.51.37.32.42.63-.68-.2-1.79.59-2.29.03.12-.46-.05-.37-.04.14-.37.58-.24.48-.53.27.04,0-.33-.02-.61-.16-.18.15-.03.12.2-.14-.41-.19-1.94.41-2.67-.18-.03-.52-.67-.45-.85l.39.18c.29-.11.12-.64.48-.59-.4-.53.03,1.67-.21,1.02.38-.06-.46-.93.07-.67.08-.38-.29-.87.19-1.14-.09.09.49.45.54.14.06-.56-.16-.2-.18-.68l-.1-.32c-.39-.12.17-.47-.32-.38.35.02,0-.84.64-.62l.5.21c.02-.24-.45-.52-.64-.76.06-.02.18-.05.26-.02-.79-.24.21-.54-.34-.97.4-.42.34-1.24.89-1.35-.15-.44-.35-.85-.07-1.24.05.1.05.23.21.3.3-.21.11-.33.04-.61.11.08.6-.42.96-.65-.14-.43-.61-.41-.86-.52.87-.15-.24-1.19.58-1.44.08.16.25.64.53.38.87-.15-.41-.84.11-1.29l-.69-.03c.47-.14-.17-.91.48-.68-.19-.24.38-.6-.27-.7.77-.77.23-2.29,1.51-2.56-.07-.16.12-.45-.23-.47-.41.13.18.37-.08.39,0-.12-.16-.19-.24-.22.22-.25.32-.46.78-.06.55-.53-.92-.92-.47-1.65.25.1.37.07.39-.18l-.34-.56c.23-.49.67-.14,1.12-.04,0-.3.1-.63-.2-.84l.65-.19c-.47.14-.21-.29-.29-.45l.08.16c.2,0,.16-.35.15-.53-.29-.03-.48.27-.6.42-.16-.19-.06-.4-.24-.64.42.17.42-.37.52-.58.16-.23-.32-.38-.29-.45.23.05.14-.4.41-.13.05.1-.27.14-.11.33.21-.12.6,0,.4-.42-.15-.31-.88-.15-.48-.57.08.16.25.22.38.36l.34-.4-.39-.12c.12-.04.14.01.2,0-.39-.24.05-.74-.4-.96.02-.24.4-.42.5-.63l.02.05c.3-.21.24-.61.03-.91l.08.03c.07-.14.09-.51-.09-.75.4-.3,1.54.25,1.14-.29.08-.38-.58-.78-.88-.69.44-.62-.02-1.55.76-2.03-.14-.14-.25-.1-.3-.33.41-.96.06-2.23,1.04-2.84.09.33.39.12.62.17-.3-.33.44-.2-.15-.43-.37-.07-.54-.13-.75.11-.04-.65.18-1.56.6-1.8-.21.12-.29-.03-.36-.19.56.19.76-.23.64-.62l-.34-.14.41-.13c-.08-.16-.7-.33-.28-.57.14.02.28.03.4,0-.2-.42-.56-1.02-.17-1.33l.59-.18c-.02-.17-.26-.52-.47-.28.47-.56.61-.96,1.1-1.06-.8-1.37-.45-2.98-.05-4.24l.25.1c.33-.28-.41-.29-.17-.49.22.17.61-.13.85.22.4-.42-.3-.75-.33-1.1-.33-.13.16.31-.27.14-.11-.09.44-.61-.06-.82.24-.07.6.12.79.24l-.18-.36c.7-.21.88,1.11,1.72.91v-.3c.6-.13.42.89.78.24-.18-.37-.87-.81-1.17-.6.01-.66-1.17-.6-.96-1.27.35-.11-.06.56.4.54.5-.21-.07-.7.14-.94-.28.26-.74-.13-.78-.36.33-.28.44.35.61-.13-.28-.16-.39-.66-.7-.33-.64-.35.32-.46-.15-.86.52-.04.98.78,1.36.3-.48-.03-.46-.82-1.22-.71.19-.18.56-.11.8.12.36-.23-.66-.94.28-.81l-.45-.22c.18-.06.33-.16.62-.25.07-.26-.43-1.01.28-.81-.05-.1.13-.7-.42-.59-.39.3.25.52-.47.56.61-.13.06-.56-.06-.82l.28.03c-.08-.16.06-.44-.22-.59.13.14.33.13.43.05l-.39-.24c-.08-.58.77.06.77-.48l.23.47c-.05-.1.39-.18.32-.45-.36-.19-.77-.48-1.05-.64-.1-.33.46-.02.14-.4l.37.49c.11.09.7-.09.78-.48-.07-.28-.53-.8-.84-.46.04-.19.34-.41.58-.18-.02-.47-.43-.05-.57-.48.29-.09.78-.48,1.22-.67l.54.55.07-.26c.43.47.44-.07.93.25.13-.16,0-.42-.1-.63-1,.3-1.04-.88-1.87-.93-.04-.77,2.04.04.98-1.02-.24.07-.75-.43-.64.08.2-.42-.72-.5-.26-.94.23.47.91-.22,1.24.46-.25-.1-.28.26-.22.37.35-.11.79.24.9-.22,0-.3.07-.68-.35-.73-.46-.1-.06.44-.47.14-.02-.59.69-.51-.05-.94-.03.36-.51.34-.82.25l-.09-.45.28.15c.38-.6-.5-.33-.26-.94l.67-.15c.47.28-.46.86.4.96.14-.4-.25-.64.06-.98.05.1.04.23.09.33.06-.14,1.21,0,.71-.76-.18-.36-.28-.15-.59-.24.07-.68-.2-.96-.14-1.39.59.24.25-.73.75-.11-.41.13-.61,1.09-.09,1.47.78-.06-.23.49.46.82.15-.52.85-.32,1.34-.29.07-.14-.09-.33-.14-.44-.42-.17-.46.02-.92-.08.27-.56.16-1.19-.18-1.62.27-.14.69.03.67.27.05-.73.29-1.47.59-2.1-.82.25.02-.78-.65-.64-.25.32-.84.5-1.11.22.1-.21.31.09.49.03-.32-.38.74-.28.19-.72.07.7.84.34,1.37.6-.2-.54.39.12.51-.34-.2-.54-.3-1.17-.29-1.71.69-.51.42-1.62.54-2.2.36-.23.94.13,1.13-.17.08-.39-.76.11-.32-.38l.11.09c-.1-.21.69-.93-.18-1.33l.64.35c.09-.09-.04-.23-.1-.33.22.05.46-.02.56.19.56-.23.11-.75.18-1.14l-.47.14c-.16-.73.36-1.06.37-1.73l.39.12-.14-.43c.36.19.7-.09.42-.37l.73,1.22c-.3.21-.41-.42-.84-.34-.38.06-.42.67-.06.86.1-.21.02-.24-.08-.45.57.06.47.4.79.66,0-.12.22-.25.05-.31.21.3.2.54.11.92-.15-.31-.38.05-.51-.08.48.15.54.55.28.99-.65.2.14.98-.15,1.48-.44-.35-.76-.73-.88-1.11-.33.28-.08.39-.42.67.33.26.86.52.97,1.02l-.37-.07c.08.45.62.59.39,1.08-.4.84-.63,1.75-.84,2.41l-.37-.07c.68.57-.03,1.32.19,1.92-.57.77-.12,1.96-.86,2.24-.1,1.59-.16,2.98-.69,4.52l-.46-.4c.32.38-.35.11-.34.4.5-.21.45.52.73.8-.59.6-.36,1.61-.15,2.32l-.37-.07c.53.8-.26,1.4-.57,2.15-.17.05-.55.11-.57.35.48.57.38.78.6,1.5-.11.45-.44,1.15-.79,1.56.4,1.92-.57,3.53-.52,5.43l-.46.02c.48,1.95-.88,3.86-.78,5.45l-.69-.32c-.34.4-.07,1.1.48,1.11-.34.41.07,1.24-.61,1.38-.25.44.19.66.19,1.08-.51.88-.54,1.24-.63,2.17l.1-.21c-.14-.14-.44-.22-.55-.01.12.38-.5,1.17.45,1.06-.74.83-.15,2.32-1.06,3.08.26-.02.25.23.38.36-.2.84-.9,1.59-.67,2.36-.15.1-.35-.31-.46.02.04.22.31.08.38.36.11,1.46-1.14,2.62-1.34,3.88-.09,2.3-.89,4.53-1.34,6.64l-.17-.07c.49.87-1.1,1.47-.23,2.29-.21.12-.24.61-.54.41.33.68-.84,1.45-.44,2.41.04-.07.01-.12-.04-.23-.59.72-.24,1.57-.81,2.34-.05-.11-.07-.28-.24-.35-.42.25.54.97-.35.94-.04.19.39.24.39.12-.8,1.8-.77,3.95-1.06,5.96-.86,1.28-1.44-.27-1.09,1-.19.05.31.15.13.12.13.49-1.11.43-.74.84.55,0,.24.27.55.36-.55.78-1.06.83-.84,1.61l-.26-.12c.57.99-.07,1.81.65,2.7-.94,4.43-1.5,8.75-2.47,13.06-1.23,4.18-1.87,8.42-3.41,12.6-.97.83-.97.91-.95,2.08-.11-.07-.11-.15-.24-.1.57.2-.14.79.4,1.04-.51,1.56-.71,3.06-1.12,4.7,0-.27-.45-.52-.48-.21l.29.42h-.18c.03.24.27.54.51.37-.52,4.23-2.71,7.97-3.57,12.02-.48.89-.6,2.31-.74,3.37-1.55,2.88-2.88,5.49-3.11,8.75,0,0-1.42-.79-1.44-2.16Z"/>
      <path class="cls-2" d="M159.98,59.57c-.32.04-.57.35-.89-.03.28.03.64-.07.89.03Z"/>
      <path class="cls-2" d="M154.57,68.35c.08.03-.15.11-.21.12,0-.12-.21-.3-.04-.35,0,.12.14.14.25.23Z"/>
      <path class="cls-2" d="M153.78,70.74c-.25-.1-.33-.68-.28-.99l.28.99Z"/>
      <path class="cls-2" d="M152.13,72.75c-.27.14-.38.06-.3-.21.14.02.19.12.3.21Z"/>
      <path class="cls-2" d="M152.69,73.06c-.04.19-.22.25-.39.3.23.05-.03-.47.39-.3Z"/>
      <path class="cls-2" d="M150.69,77.8c0,.12.14.44-.17.47.23-.07-.19-.66.17-.47Z"/>
      <path class="cls-2" d="M150.51,80.19c-.04.07-.09.09-.04.19-.15.11-.31-.09-.31-.21h.35Z"/>
      <polygon class="cls-2" points="141.11 122.19 141.04 121.91 141.29 122.02 141.11 122.19"/>
      <path class="cls-2" d="M136.54,140.49c.1.29-.29.11-.34.14.03-.23.3.16.34-.14Z"/>
      <polygon class="cls-2" points="135.38 150.68 135.39 150.6 135.92 150.76 135.38 150.68"/>
    </g>
  </g>
  <g>
    <line class="cls-1" x1="138.83" y1="54.08" x2="109.01" y2="197.31"/>
    <g>
      <path class="cls-2" d="M139.73,54.63c-.01-.55-.52.19-.13-.39.2.12.34.25.13.39Z"/>
      <path class="cls-2" d="M110.05,195.71c-1.03-1.98.83-3.92.34-5.96-.01-.23.74.21.66-.31-.7-2.02.53-4.72,1.81-6.73l.19.18c.24-.38-.36-1.04-.17-1.46.14.03.17.18.39.12-.4-.2-.03-.84-.31-1.09.2-.14.54-.05.77-.24l-.43-.35c-1.01-.94.44-1.69.04-2.77.1.07.17.18.3.13-.38-1.69.15-3.59.25-5.36.16.1.46.23.67.17-.49-.19-.51-.75-.52-1.23.57-.1-.32-.89.09-1.37l.11.07c-.47-.51.44-.53-.15-.99l.47-.17c-.71-.33.5-.5.2-.91l-.16-.02c-.12-.35.29-.43.23-.75h.09c-.06-.73.44-1.03-.14-1.14.51-.14.07.7.83.47-.13-2.35.46-4.62.92-6.87.29-.21.39-.35.62-.37-.07-.25.07-.87-.18-1.13,0,.08.33-.08.38-.2.3-.36-.54-.58-.19-.97.12.21.29.31.52.29-.37-.48-.19-.97-.25-1.45.08.09.12.21.3.23-.41-.6.3-.88.06-1.38l.3.23c.55-.61-.66-.35-.29-.9.08.17.22.14.35.2-.49-.69-.1-1.56-.19-2.16.04.04.13.05.13.05.05-.63.37-1.23.25-1.95.2-.21.8.25.81-.42-.68-.12-.05-1.16-.89-.93.23-.53.66-1.35.51-1.77.2.3.88-.1.84.37l.48-.26c.26.11-.17.34.2.3.02-.24-.11-.96.05-1.14-.32-.51-1.01-1.06-.95-1.77.19.38.78-.03.85.21l-1.09-1.23c.02-.24.54.06.43-.31-.18-.02-.26-.19-.38-.32.09-.07.03-.99.71-.95.28-.05.06.4.35.2.08-.43-.14-.49-.06-.92h.09c.16-.25-.11-.87-.54-.65-.06.19.41,0,.16.26-.34-.28-.35-.79-.27-1.22.08.17.26.19.43.28-.4-.68-.44-1.32-.52-2-.31-.08.52.36.34.42.61-.73-.27-1.81.51-2.36.03.12-.46-.03-.37-.02.12-.38.57-.27.46-.56.27.03-.02-.34-.04-.62-.17-.18.14-.04.13.19-.15-.41-.26-1.97.31-2.74-.18-.02-.54-.66-.48-.85l.4.16c.28-.13.1-.66.46-.62-.42-.52.09,1.69-.18,1.05.38-.07-.49-.92.04-.68.07-.4-.32-.87.15-1.17-.09.09.51.44.54.11.04-.57-.16-.2-.21-.68l-.11-.32c-.4-.1.16-.49-.34-.37.35,0-.04-.85.62-.66l.51.19c.01-.25-.47-.51-.67-.75.06-.02.17-.06.26-.03-.8-.21.19-.56-.38-.98.38-.45.29-1.28.84-1.41-.16-.44-.38-.85-.11-1.26.06.1.05.23.22.29.29-.23.1-.34.02-.62.11.08.59-.46.94-.71-.16-.44-.62-.39-.88-.49.87-.19-.28-1.2.53-1.49.08.16.27.64.54.36.87-.19-.44-.83.06-1.32h-.69c.46-.17-.21-.91.45-.72-.2-.24.36-.63-.3-.7.74-.82.15-2.34,1.42-2.67-.08-.16.1-.47-.24-.47-.4.15.19.36-.07.4,0-.12-.17-.19-.25-.22.21-.26.3-.48.78-.09.53-.56-.95-.89-.53-1.66.26.09.37.05.38-.2l-.36-.55c.22-.51.67-.18,1.12-.1-.02-.3.08-.64-.23-.84l.64-.23c-.46.17-.22-.29-.31-.45l.08.16c.2-.01.15-.37.13-.54-.29-.02-.47.29-.59.46-.17-.19-.07-.4-.27-.64.43.16.41-.4.5-.61.15-.24-.34-.37-.3-.45.23.04.13-.41.41-.15.05.1-.26.16-.09.34.21-.14.6-.03.38-.45-.16-.31-.89-.11-.5-.56.08.16.25.22.39.35l.33-.43-.4-.1c.12-.04.14,0,.2,0-.39-.23.02-.75-.43-.96,0-.25.38-.45.48-.66l.03.05c.3-.23.22-.63,0-.92l.09.03c.06-.15.07-.52-.12-.76.38-.32,1.55.19,1.13-.34.07-.39-.61-.77-.9-.66.42-.65-.07-1.58.69-2.1-.14-.13-.26-.09-.31-.32.37-1-.02-2.28.94-2.93.11.33.4.1.63.15-.31-.32.44-.22-.16-.44-.37-.05-.54-.11-.75.15-.07-.66.13-1.59.54-1.86-.2.14-.29-.02-.37-.18.57.17.75-.27.62-.66l-.34-.12.41-.15c-.09-.16-.71-.3-.3-.57.14.01.28.02.4-.02-.21-.42-.6-1.02-.22-1.34l.58-.21c-.02-.18-.27-.52-.48-.26.45-.59.58-1.01,1.06-1.12-.85-1.36-.55-3.01-.2-4.31l.26.09c.32-.3-.42-.28-.19-.49.23.17.6-.16.86.19.38-.45-.32-.75-.37-1.1-.34-.12.17.31-.26.16-.11-.08.42-.64-.09-.83.23-.08.6.1.8.21l-.19-.36c.69-.25.92,1.09,1.76.85l-.02-.3c.61-.16.46.88.8.21-.19-.36-.9-.79-1.19-.56-.01-.68-1.19-.56-1-1.25.35-.13-.04.57.42.53.49-.24-.1-.71.11-.97-.27.28-.74-.1-.79-.33.32-.3.45.33.61-.16-.29-.15-.42-.65-.71-.3-.65-.32.3-.48-.18-.86.52-.06,1.01.75,1.37.25-.49-.01-.49-.81-1.25-.66.18-.19.55-.13.81.08.35-.25-.7-.92.25-.83l-.46-.21c.18-.06.32-.18.61-.28.06-.27-.46-1.01.25-.83-.06-.1.11-.72-.44-.58-.38.32.27.52-.45.59.61-.16.04-.57-.09-.83l.29.02c-.08-.16.04-.45-.24-.59.14.13.34.12.43.03l-.39-.23c-.1-.58.77.03.76-.52l.25.47c-.05-.1.38-.2.3-.48-.37-.18-.79-.46-1.08-.6-.11-.33.46-.04.13-.41l.39.48c.12.08.69-.12.76-.52-.08-.28-.56-.79-.85-.43.04-.2.33-.43.58-.21-.04-.48-.43-.03-.59-.46.29-.1.76-.52,1.2-.74l.56.54.06-.27c.45.46.43-.09.94.22.12-.17-.02-.43-.12-.63-.99.35-1.07-.85-1.9-.86-.06-.78,2.04-.05.95-1.08-.23.08-.77-.41-.63.1.18-.44-.74-.48-.29-.95.25.47.9-.26,1.25.42-.26-.09-.27.28-.21.38.34-.12.79.21.89-.26-.02-.3.05-.7-.38-.73-.46-.08-.04.45-.47.17-.04-.6.67-.55-.09-.96-.01.37-.5.36-.81.29l-.1-.46.29.14c.36-.62-.51-.31-.29-.95l.66-.18c.48.26-.43.9.44.96.12-.41-.28-.64.02-1,.05.1.05.23.11.33.06-.15,1.21-.06.68-.8-.19-.36-.28-.14-.6-.22.05-.7-.23-.97-.19-1.41.6.22.22-.76.75-.15-.41.15-.58,1.13-.04,1.5.78-.1-.21.51.49.81.13-.54.84-.36,1.33-.35.06-.14-.1-.33-.16-.44-.43-.16-.46.04-.92-.04.25-.58.12-1.22-.24-1.64.26-.16.69,0,.68.25.02-.75.24-1.51.52-2.16-.81.29-.01-.8-.67-.62-.24.33-.82.54-1.1.27.09-.22.31.07.49,0-.33-.37.73-.32.16-.74.1.71.85.31,1.39.55-.22-.54.4.1.5-.37-.22-.54-.34-1.17-.36-1.72.67-.55.36-1.67.46-2.27.35-.25.95.09,1.13-.22.07-.4-.75.15-.34-.37l.12.08c-.11-.21.66-.98-.23-1.34l.66.32c.09-.1-.05-.23-.11-.33.23.04.46-.04.57.17.55-.26.08-.77.14-1.17l-.46.17c-.18-.74.32-1.1.31-1.78l.4.1-.16-.43c.37.17.69-.13.41-.4l.77,1.21c-.29.23-.42-.4-.85-.31-.38.08-.39.7-.03.88.09-.22,0-.25-.1-.46.57.04.48.38.82.63,0-.12.21-.26.04-.32.22.29.22.54.15.94-.16-.31-.38.07-.51-.06.49.13.56.54.32,1-.64.23.17.99-.1,1.52-.45-.33-.79-.71-.92-1.09-.32.3-.07.4-.39.7.34.25.88.49,1.01,1l-.37-.05c.1.46.64.57.43,1.08-.37.87-.56,1.81-.76,2.5l-.37-.05c.7.55.02,1.35.26,1.94-.54.81-.05,2-.78,2.32-.04,1.62-.05,3.05-.52,4.64l-.48-.38c.33.37-.35.12-.33.43.49-.24.47.51.76.78-.56.63-.31,1.65-.06,2.37l-.37-.05c.55.79-.21,1.44-.49,2.22-.17.06-.55.13-.55.38.5.56.41.78.65,1.5-.1.47-.4,1.2-.73,1.62.47,1.93-.44,3.62-.32,5.55l-.46.04c.55,1.96-.74,3.97-.58,5.58l-.71-.3c-.33.43-.03,1.12.52,1.11-.32.43.11,1.26-.56,1.44-.24.46.22.67.23,1.09-.48.92-.49,1.29-.55,2.24l.09-.22c-.14-.13-.45-.21-.55.01.13.38-.46,1.22.49,1.06-.71.87-.06,2.37-.95,3.18.26-.03.25.22.39.35-.17.86-.85,1.66-.58,2.43-.15.11-.36-.3-.46.04.05.23.31.07.39.35.16,1.49-1.05,2.72-1.2,4.01,0,2.35-.73,4.65-1.1,6.82l-.17-.06c.52.86-1.04,1.55-.15,2.34-.2.14-.22.64-.53.44.36.67-.78,1.52-.35,2.47.03-.07,0-.12-.05-.23-.56.76-.18,1.61-.72,2.42-.06-.11-.08-.28-.25-.34-.41.27.58.97-.31.98-.03.2.4.23.4.1-.74,1.87-.62,4.06-.85,6.12-.81,1.34-1.45-.21-1.05,1.06-.18.06.31.14.13.11.15.49-1.09.49-.71.89.55-.02.25.26.57.34-.52.81-1.03.89-.78,1.67l-.26-.11c.61.98,0,1.84.75,2.72-.78,4.55-1.18,8.98-1.99,13.4-1.08,4.32-1.56,8.66-2.96,12.98-.94.88-.94.97-.88,2.16-.11-.07-.12-.15-.24-.09.58.18-.11.81.43,1.04-.45,1.61-.6,3.15-.95,4.83,0-.28-.47-.51-.49-.19l.31.41-.18.02c.04.23.29.53.52.35-.37,4.33-2.42,8.23-3.14,12.4-.45.93-.52,2.38-.62,3.47-1.45,3-2.68,5.72-2.8,9.04,0,0-1.44-.74-1.52-2.14Z"/>
      <path class="cls-2" d="M139.66,55.27c-.32.05-.56.38-.89,0,.29.02.64-.1.89,0Z"/>
      <path class="cls-2" d="M134.57,64.46c.09.03-.15.11-.21.14,0-.13-.22-.29-.05-.36,0,.13.14.14.25.22Z"/>
      <path class="cls-2" d="M133.87,66.93c-.26-.09-.35-.67-.32-1l.32,1Z"/>
      <path class="cls-2" d="M132.29,69.04c-.27.16-.38.07-.31-.2.14,0,.2.11.31.2Z"/>
      <path class="cls-2" d="M132.86,69.34c-.03.2-.21.26-.38.32.23.04-.05-.48.38-.32Z"/>
      <path class="cls-2" d="M131.03,74.25c0,.13.16.44-.16.49.23-.08-.21-.66.16-.49Z"/>
      <path class="cls-2" d="M130.94,76.7c-.03.07-.09.09-.03.2-.15.11-.31-.07-.31-.2h.35Z"/>
      <polygon class="cls-2" points="123.05 119.88 122.98 119.6 123.23 119.69 123.05 119.88"/>
      <path class="cls-2" d="M119.15,138.71c.11.29-.28.13-.33.16.02-.24.31.15.33-.16Z"/>
      <polygon class="cls-2" points="118.35 149.14 118.36 149.06 118.9 149.2 118.35 149.14"/>
    </g>
  </g>
  <g>
    <path class="cls-2" d="M94.13,188.29c-1.7-.24.62,1.16-1.19.09.34-.35.75-.58,1.19-.09Z"/>
    <path class="cls-2" d="M95.03,184.66c-1.61-5.95,2.68-12.41,2.17-18.66.03-.71,1.47.5,1.44-1.13-.93-6.15,2.26-14.84,5.39-21.42l.34.51c.59-1.25-.48-3.17.02-4.52.29.05.31.53.76.29-.78-.53.15-2.61-.36-3.34.45-.48,1.12-.28,1.64-.92l-.8-1.01c-1.84-2.72,1.32-5.37.77-8.66.19.19.31.53.58.34-.36-5.18,1.2-11.22,1.85-16.78.3.29.88.63,1.33.39-.97-.49-.87-2.23-.75-3.73,1.19-.43-.43-2.71.52-4.3l.2.2c-.83-1.5,1.04-1.74-.07-3.05l1-.63c-1.36-.87,1.16-1.67.63-2.88l-.31-.03c-.15-1.06.7-1.42.65-2.39l.19-.05c.07-2.23,1.16-3.3,0-3.49,1.08-.55-.02,2.17,1.58,1.27.31-7.31,2.1-14.53,3.59-21.63.64-.71.89-1.19,1.36-1.28-.08-.76.36-2.72-.1-3.49-.03.24.69-.33.83-.69.71-1.2-.97-1.68-.15-2.99.19.63.52.9.99.8-.64-1.43-.17-2.91-.12-4.6.14.32.17.71.54.77-.33-.96-.11-1.75.14-2.4.25-.67.52-1.21.39-2.2.15.37.31.73.47,1.07,1.14-1.39-1.05-1.91-.21-3.51.06.73.32.83.52,1.21-.17-.87-.21-1.75-.17-2.61,1.45.04,3.55.78,4.9.86-.1.07-.04.28-.04.28,1.05.22,2.15.6,3.25.93.28.08.56.16.84.24.27.07.51.13.78.18.52.11,1.06.18,1.62.2.67.51-.71,1.53,1.37,1.87.31-1.34,3.57.45,2.82-1.38,1.65.72,4.23,2,5.5,1.88-.92.28.37,1.85-1.09,1.55l.85,1.11c-.32.49-1.06-.5-.91.27.73.16,2.97.24,3.54.64,1.56-.42,3.21-1.57,5.41-1.12-1.16.22.15,1.62-.6,1.64l3.73-1.65c.73.15-.15,1.09.99,1.04.05-.36.56-.45.96-.64.22.23,3.06.53,3,1.92.17.6-1.24-.06-.59.63,1.32.37,1.51-.06,2.83.31l-.03.18c.82.45,2.73.19,1.99-.8-.59-.22,0,.85-.78.21.83-.58,2.42-.34,3.75.03-.51.08-.56.44-.84.75,2.07-.51,4.04-.28,6.14-.13.21-.61-1.06.91-1.26.5,2.29,1.59,5.59.31,7.34,2.17-.38,0,.07-.93.04-.75,1.2.43.89,1.31,1.78,1.21-.07.55,1.05.12,1.91.2.53-.26.14.32-.59.17,1.27-.12,6.07.41,8.49,1.94.05-.36,1.99-.8,2.59-.59l-.47.74c.41.65,2.05.52,1.95,1.24,1.58-.61-5.23-.61-3.26-.86.26.81,2.82-.58,2.12.41,1.23.33,2.67-.24,3.62.85-.3-.23-1.31.84-.31,1.07,1.77.36.61-.24,2.09-.11l.98-.08c.29-.77,1.52.56,1.13-.51.02.71,2.63.33,2.07,1.59l-.54.96c.77.14,1.54-.73,2.26-1.02.07.13.21.39.12.55.58-1.54,1.75.65,2.99-.31.71.5,1.7.8,2.57,1.13.44.16.84.33,1.17.54.48.25.88.53,1.04.84,1.89.03,4.08.05,5.93.96-.55,0-1.16-.13-1.53.13.88.76,1.49.49,2.94.63-.24.05.14.4.62.83.48.42,1.05.91,1.31,1.29-.04.06-.08.1-.11.15.08,1.23,1.37.26,2,.12-1.32,1.25-1.41,2.26-1.56,3.5-.14,1.2-.35,2.66-1.49,3.65,0-.31,0-.93-.1-1.28-.11-.35-.35-.42-.8.25-1.13.74-1.03,1.35-.93,2.25.05.44.11.95.05,1.49-.02.25-.11.6-.17.78-.07.2-.19.39-.36.57l1.42.04c-1.06.49-.19,2.81-1.42,2.17.25.75-1.16,1.89.14,2.14-2.08,2.46-1.88,7.14-4.73,8.09.06.48-.52,1.42.19,1.44.93-.43-.15-1.12.41-1.2-.1.38.21.58.37.68-.6.78-.95,1.44-1.67.24-1.48,1.69,1.36,2.79-.03,5.12-.47-.3-.73-.18-.92.58l.37,1.71c-.79,1.54-1.49.5-2.38.22-.16.92-.59,1.96-.09,2.59l-1.47.65c1.07-.48.26.9.33,1.39l-.07-.48c-.42.03-.56,1.11-.64,1.65.58.08,1.17-.87,1.52-1.37.22.58-.12,1.24.12,1.98-.78-.5-1.12,1.19-1.45,1.84-.47.72.44,1.17.32,1.38-.45-.14-.54,1.26-.93.42-.04-.32.65-.46.43-1.04-.52.4-1.26.06-1.09,1.34.12.97,1.75.4.65,1.75-.06-.48-.38-.68-.57-1.1l-.96,1.28.75.34c-.27.12-.28-.03-.42.02.66.72-.55,2.29.25,2.95-.19.76-1.09,1.34-1.43,2l-.02-.16c-.76.68-.87,1.92-.61,2.83l-.15-.1c-.23.44-.51,1.58-.26,2.33-1.01.96-3.06-.67-2.56.98-.41,1.2.74,2.38,1.41,2.08-1.3,1.95-.92,4.83-2.84,6.38.2.42.47.3.42,1-1.45,3.03-1.49,6.96-3.92,8.91,0-1.03-.75-.34-1.2-.48.42,1-1.05.64.04,1.34.73.18,1.04.38,1.64-.4-.31,2.01-1.34,4.86-2.37,5.66.51-.4.58.08.64.56-1.06-.54-1.74.78-1.72,1.97l.63.4-.95.43c.07.48,1.26.96.23,1.76-.28-.04-.57-.08-.83.04.16,1.28.55,3.15-.45,4.11l-1.34.6c-.07.54.22,1.6.82.82-1.32,1.78-1.87,3.05-2.96,3.37.84,4.21-.9,9.24-2.51,13.2l-.47-.3c-.87.9.69.88.06,1.51-.36-.52-1.35.44-1.64-.62-1.1,1.35.16,2.3.03,3.39.61.39-.13-.96.64-.46.18.26-1.29,1.94-.37,2.55-.54.24-1.17-.33-1.5-.69l.15,1.12c-1.6.72-1.15-3.39-3.05-2.71l-.16.93c-1.36.44-.36-2.73-1.51-.68.15,1.13,1.32,2.47,2.08,1.79-.44,2.07,2.08,1.79,1.23,3.87-.8.36.47-1.74-.51-1.64-1.18.7-.27,2.17-.88,2.95.74-.85,1.46.36,1.41,1.06-.87.9-.7-1.05-1.36.44.49.46.42,2.02,1.26.96,1.12,1.03-.94,1.45-.22,2.65-1.11.16-1.58-2.35-2.65-.85.99.06.47,2.51,2.12,2.11-.5.56-1.23.37-1.6-.3-.89.74.81,2.87-1.08,2.53l.8.65c-.4.18-.78.52-1.45.82-.16.41-.09,1.19-.15,1.79,0,.11-.08.4-.14.59-.07.2-.15.38-.24.51-.18.26-.42.35-.74.15-.01.48-1.21,3.57.09,3,.64-.85.7-1.57.79-2.09.09-.53.22-.86,1.07-1.2-.8.55-1.02,1.27-1.09,2.12-.07.84.02,1.81-.06,2.58l-.54-.18c-.09.9-.81,2.51-.52,3.53-.03-.88-.44-.89-.75-.43.12.52.23,1.05.34,1.59-.85,3.6-1.32-.81-2.18,2.29l.32-2.85c-.06.56-.79.62-1.12,1.79-.09-.02-.19-.03-.29-.03,0,.82-.54,1.65-.78,2.22-1.65-.12-1.11-1.25-2.56-.83.66-.14,1.28-.29,1.85-.45.1-.1-.41-.59-1.16-1.11-.76-.52-1.73-1.07-2.72-1.35-.61-.04-1.41.1-1.83.37-.41.27-.43.67.75,1.24-1.18-.33-2.72-1.28-1.81-1.62-1.22-.21-1.18.02-1.07.3.1.28.27.6-.91.52-.21-.2-.54-.45-.93-.72-.19-.13-.4-.28-.61-.43-.18-.14-.24-.25-.37-.37-.46-.5-.97-1.04-1.33-1.54l1.62-.9-.83-.25c1.38-.7-.32-.94.6-1.83-.52-.33-1.32-.17-1.95-.05,1.17,2.2-2.55,1.81-2.52,3.51-2.41-.24-.32-4.23-3.42-2.47.27.52-1.2,1.39.37,1.35-1.37-.59-1.42,1.29-2.91.15,1.43-.28-.87-1.98,1.19-2.39-.27.49.89.69,1.2.62-.41-.77.58-1.54-.88-1.96-.93-.11-2.16-.43-2.22.44-.22.91,1.38.3.55,1.04-1.86-.2-1.76-1.65-2.95-.28,1.15.2,1.16,1.21.97,1.82h-1.41s.43-.53.43-.53c-1.96-1.03-.93.9-2.9.16l-.6-1.45c.77-.87,2.81,1.3,2.93-.45-1.29-.45-1.97.26-3.08-.52.32-.06.7,0,1.02-.06-.45-.19-.29-2.52-2.53-1.78-1.11.22-.43.51-.63,1.12-2.16-.42-2.97.02-4.36-.28.63-1.13-2.36-.81-.51-1.61.48.91,3.55,1.72,4.63.79-.35-1.65,1.6.68,2.47-.63-1.68-.52-1.19-1.91-1.19-2.91-.45-.2-1.02.06-1.34.12-.45.81.17.98-.06,1.88-1.82-.78-3.77-.83-5.06-.28-.51-.61-.05-1.42.71-1.29-2.32-.4-4.68-1.21-6.73-2.09.96,1.81-2.47-.36-1.88,1.09,1.05.65,1.74,1.94.92,2.4-.69-.3.2-.61,0-1-1.13.51-1.05-1.65-2.3-.69,2.18.14.9-1.61,1.6-2.61-1.66.2.29-.77-1.17-1.19-1.65.19-3.6.15-5.31-.09-1.75-1.65-5.2-1.53-7.05-2.02-.8-.84.22-1.91-.76-2.43-1.23-.33.51,1.62-1.13.52l.25-.2c-.63.13-3.07-1.82-4.13-.17l.95-1.2c-.3-.22-.71,0-1.03.06.12-.45-.16-.96.47-1.09-.85-1.26-2.39-.53-3.62-.85l.55,1.03c-2.26.03-3.43-1.17-5.52-1.48l.29-.77-1.33.12c.51-.68-.44-1.49-1.26-1.03l3.67-1.02c.73.72-1.22.68-.9,1.61.26.81,2.19,1.14,2.71.47-.69-.29-.77-.13-1.41,0,.08-1.16,1.15-.81,1.9-1.38-.39-.06-.82-.55-1-.23.89-.32,1.65-.19,2.88.14-.95.19.25.81-.15,1.03.38-.94,1.63-.89,3.06-.18.76,1.43,3.04.11,4.7.92-.99.77-2.13,1.29-3.31,1.37.95.81,1.23.33,2.19,1.14.74-.57,1.45-1.58,3.01-1.61l-.13.74c1.41.01,1.72-1.06,3.31-.38,2.73,1.18,5.64,2.02,7.78,2.74l-.13.74c1.65-1.19,4.17.6,5.99.38,2.55,1.49,6.18,1.05,7.23,2.7,5.02.86,9.43,1.55,14.38,3.28l-1.15.8c1.13-.51.41.77,1.34.88-.77-1.13,1.54-.73,2.35-1.19,1,.73,2.29,1.09,3.6,1.24.65.08,1.32.1,1.95.1.32,0,.63-.02.93-.02.15,0,.3-.02.44-.02.07,0,.15,0,.2-.02l.11-.04-.15.74c.73-.52,1.15-.44,1.76-.1.59.34,1.39.95,2.2,1.31h.01c.25.25.8.75.93.14-.25-1.08-.36-1.61-.41-2.13-.06-.5-.06-.99-.22-1.65.06-.16,1.35-2.83,2.28-4.02.35-5.93,3.36-11.03,4.42-16.94l.97-.1c.19-6.04,4.21-12.09,4.98-17.02l1.25.96c.96-1.28.82-3.43-.31-3.42.96-1.29.63-3.86,2.12-4.36.8-1.38,0-2.05.26-3.35,1.61-2.77,1.89-3.91,2.64-6.8l-.34.66c.2.42.79.67,1.13,0-.01-1.18,1.77-3.69-.29-3.27,2.06-2.63,1.73-7.24,4.1-9.66-.55.08-.37-.69-.57-1.11.93-2.62,2.87-5.03,2.85-7.4.38-.33.54.95.98-.1.05-.69-.6-.23-.57-1.1.68-4.55,4.01-8.26,5.18-12.19,1.6-7.17,4.65-14.16,6.88-20.77l.31.2c-.5-2.67,3.2-4.67,1.89-7.14.51-.4.87-1.93,1.39-1.3-.03-2.76,2.07-3,1-3.67-.06.07.01.08.17.11.56-.43.66-.84.68-1.13-.53-.07-.95-.07-1.1-.5.21-.1.49-.14.85-.41.08-.33-.53-.12-.9.04-.39.15-.57.22-.25-.59-.28-.06-.58.74-.45.73-.1-.07-.22-.14-.34-.21l-.18-.09-.05-.02-.13-.05-.28-.1c-.76-.25-1.52-.49-2.3-.71-1.55-.44-3.15-.81-4.75-1.15-3.22-.68-6.5-1.24-9.7-1.96-4.21-2.31.54-2.89-3.37-2.68-.2-.41-.4.58-.34.22-1.51.07-1.6-2.49-2.8-1.89.1,1.14-.8.39-1.01,1-2.56-1.46-2.84-2.55-5.24-2.4l.32-.49c-2.99.78-5.7-.89-8.36.25-7.06-1.88-14.03-3.55-20.95-5.23-3.46-.85-6.9-1.69-10.35-2.54l-5.16-1.32c-1.53-.41-3.07-.81-4.6-1.22-.05-.09-.17-.14-.27-.17-.02.1-.03.23-.02.32-.57,2.73-1.13,5.46-1.7,8.2-1.19,5.55-2.47,11.1-4.06,16.68-2.15,2.97-2.16,3.22-2.34,6.95-.2-.19-.21-.43-.48-.24,1.14.43-.43,2.56.63,3.14-1.33,5.13-2.02,9.96-3.14,15.28.05-.87-.83-1.5-.96-.48l.53,1.21-.37.1c.03.72.45,1.59.98.97-1.83,13.59-7.01,26.23-9.51,39.39-1.16,3-1.65,7.53-2.13,10.96-3.72,9.68-6.92,18.43-7.98,28.84,0,0-2.78-1.98-2.59-6.33Z"/>
    <path class="cls-2" d="M96.13,188.74c.18.68,1.23,1.33.09,1.85.05-.58-.37-1.36-.09-1.85Z"/>
    <path class="cls-2" d="M124.92,203.6c.09-.16.37.36.43.49-.39-.07-.88.32-1.1-.07.39.07.42-.22.66-.42Z"/>
    <path class="cls-2" d="M132.62,206.21c-.27.49-2.06.41-3.06.18l3.06-.18Z"/>
    <path class="cls-2" d="M139.28,210.46c.5.62.26.81-.58.55.02-.29.34-.35.58-.55Z"/>
    <path class="cls-2" d="M140.14,209.43c.61.16.82.56,1.03.94.11-.45-1.48-.13-1.03-.94Z"/>
    <path class="cls-2" d="M155.49,215.52c.39.07,1.34-.12,1.53.56-.28-.52-2.04.12-1.53-.56Z"/>
    <path class="cls-2" d="M165.94,217.71c.43.16.63.32,1.08.3.85.5.14.71-.55.56l-.53-.86Z"/>
    <polygon class="cls-2" points="218.55 85.49 218.37 86.74 217.93 86.4 218.55 85.49"/>
    <path class="cls-2" d="M166.98,58.72c-.89.1-.41-.65-.52-.76.73.15-.45.56.52.76Z"/>
    <polygon class="cls-2" points="134.67 52.14 134.91 52.19 134.52 53.23 134.67 52.14"/>
  </g>
</svg>