<?xml version="1.0" encoding="UTF-8"?>
<svg id="Layer_3" data-name="Layer 3" xmlns="http://www.w3.org/2000/svg" viewBox="0 0 95 95">
  <defs>
    <style>
      .cls-1 {
        fill: #202020;
      }
    </style>
  </defs>
  <g>
    <path class="cls-1" d="M88.21,48.11c-.09-.94-.54.5-.2-.61.23.13.4.31.2.61Z"/>
    <path class="cls-1" d="M87.75,44.41c-.21-.36-.36-.73-.51-1.12-.16-.38-.29-.78-.4-1.18-.21-.81-.32-1.66-.42-2.53-.16-.85-.34-1.72-.57-2.56-.12-.42-.25-.83-.4-1.22-.17-.39-.41-.74-.66-1.08-.19-.33.82-.18.34-.92-.27-.32-.53-.67-.77-1.05-.23-.38-.45-.79-.72-1.2-.49-.83-.93-1.75-1.32-2.72-.93-1.87-1.69-3.97-2.55-5.77l.33.05c-.33-.69-1.43-.98-1.89-1.6.11-.11.34.04.38-.23-.49.16-1.12-.91-1.6-.92-.07-.35.22-.59.1-1.03l-.69.04c-.85-.04-1.42-.51-1.93-1.13-.53-.6-1.03-1.35-1.9-1.62.14-.05.34-.02.31-.2-.67-.26-1.32-.57-1.97-.94-.66-.35-1.28-.79-1.98-1.12-1.37-.71-2.7-1.56-4.13-2.01.19-.12.45-.38.38-.65-.39.44-1.27.17-2.03-.07-.08-.73-1.46,0-2.2-.63l.12-.09c-.85.34-.84-.68-1.59-.18l-.27-.59c-.52.7-.84-.66-1.51-.4l-.03.17c-.57.06-.73-.41-1.25-.4l-.02-.1c-1.16-.11-1.75-.61-1.84.02-.31-.56,1.15-.06.67-.89-3.93-.08-7.82-.34-11.68-.02-.46-.2-.75-.23-.88-.46-.37.19-1.44.34-1.73.71.13-.03-.3-.28-.51-.29-.75-.12-.63.78-1.43.7.26-.24.32-.47.17-.68-.54.65-1.41.8-2.12,1.15.09-.13.25-.24.17-.43-.67.76-1.56.24-2.15.88l.15-.45c-1.29,0-.09.86-1.15.96.19-.2.06-.3.06-.46-.35.48-.9.81-1.47,1.08-.58.25-1.12.58-1.52.87.03-.07-.03-.16-.03-.16-.46.27-.95.47-1.45.7-.5.22-1,.5-1.41.94-.44.07-.33-.86-1.22-.15.42.62-1.46,1.24-.45,1.61-.22.09-.47.2-.73.31-.25.13-.5.28-.75.43-.49.3-.92.61-1.09.9.17-.48-.92-.44-.32-.97h-.76c-.11-.29.57-.29.18-.48-.31.28-1.09,1.19-1.43,1.35-.27.86-.2,1.95-1,2.8.21-.58-.8-.38-.61-.73-.09.72-.17,1.42-.17,2.17-.23.31-.48-.34-.72.21.16.11.09.38.09.61-.16.05-.93,1.3-1.61.96-.34-.06.31-.57-.18-.42-.49.54-.27.76-.71,1.34l-.09-.05c-.38.32-.6,1.32.04,1.14.22-.25-.43-.16.04-.43.14.53-.26,1.25-.68,1.82.05-.26-.13-.35-.24-.54-.12,1.09-.41,2.09-.77,3.09.29.19-.34-.66-.1-.7-.55.46-.81,1.14-.98,1.81-.17.67-.34,1.3-.9,1.66.02-.19.49.12.4.09-.32.56-.77.33-.78.79-.29-.08-.17.51-.21.97.12.29-.17.05-.07-.32.01.34-.08,1.12-.29,1.95-.22.83-.54,1.72-.89,2.35.19.03.48,1.02.38,1.32l-.41-.23c-.34.22-.23,1.05-.63,1.02.37.8.21-2.69.39-1.68-.43.14.38,1.44-.17,1.09-.14.64.18,1.34-.31,1.87.1-.16-.54-.64-.59-.11-.06.94.17.3.21,1.07l.11.49c.44.09-.18.8.36.53-.38.07.01,1.33-.69,1.17l-.57-.19c.01.41.57.72.81,1.05-.06.05-.18.14-.27.12.88.12-.12.95.54,1.45-.17.41-.21.93-.27,1.4-.01.47-.06.89-.33,1.09.3.64.65,1.19.5,1.93-.09-.14-.13-.33-.32-.36-.24.48,0,.58.16.98-.17-.08-.39.96-.63,1.52.36.6.8.31,1.1.33-.76.72.77,1.67.2,2.52-.19-.18-.63-.82-.74-.25-.71.77.93,1.01.75,2.02l.65-.41c-.33.52.74,1.21,0,1.32.3.23.11,1.12.75.81-.02.81.39,1.66.68,2.46.27.81.62,1.51.22,2.22.2.15.34.7.61.44.2-.5-.48-.34-.29-.58.11.17.3.12.4.1.06.5.18.87-.55.72.09,1.17,1.51.47,1.97,1.73-.29.09-.33.24-.08.55l.82.38c.35.8-.31.78-.72,1.07.32.36.6.88,1.05.82l-.17.82c.12-.6.48.14.71.24l-.23-.11c-.12.19.32.56.53.74.21-.24-.03-.76-.14-1.05.32.06.5.39.9.49-.45.21.18.82.36,1.15.17.41.65.08.71.19-.19.17.43.54-.06.52-.16-.06-.04-.4-.37-.44.04.33-.31.59.33.82.48.17.65-.72.98.1-.24-.08-.41.02-.65.01l.34.75.35-.28c-.01.15-.09.13-.1.2.5-.15.91.79,1.4.55.31.24.39.77.63,1.06l-.08-.02c.16.5.73.79,1.21.82l-.08.06c.16.19.64.55,1.04.54.29.63-.89,1.43.03,1.42.54.38,1.31-.04,1.27-.42.37.46.92.74,1.43,1.06.54.27,1.05.56,1.32,1.13.23-.07.21-.22.55-.13.67.52,1.48.87,2.27,1.16.78.32,1.46.7,1.89,1.4-.52-.04-.21.39-.3.63.52-.18.3.57.69,0,.12-.39.22-.54-.15-.88,1.01.16,2.42.66,2.82,1.22-.2-.27.04-.32.28-.35-.27.59.4.95,1.01.84l.19-.36.24.48c.24-.07.44-.73.88-.23,0,.15-.02.31.06.44.65-.19,1.52-.45,2.07-.06l.4.64c.28-.02.78-.29.34-.53.99.5,1.67.65,1.95,1.19,1.98-1.03,4.54-.92,6.65-1.03l-.04.3c.59.25.26-.53.67-.34-.16.29.49.58.06.95.86.29,1.01-.6,1.51-.8.03-.39-.39.31-.35-.19.07-.15,1.15.13,1.19-.47.23.2.14.64.07.89l.45-.35c.73.58-1.21,1.41-.45,2.14l.47-.16c.56.53-1.18.88.07.9.49-.37.79-1.26.29-1.45,1.04-.33.25-1.41,1.36-1.59.18.13-.03.21-.25.3-.23.07-.46.16-.31.38.63.41,1-.5,1.49-.44-.56-.08-.26-.77.04-.95.62.12-.23.63.57.48.05-.36.69-.78.02-.85.08-.8.86,0,1.11-.67.41.45-.45,1.39.49,1.43-.27-.43.83-1.02.15-1.59.36.02.53.4.39.78.57.13.81-1.3,1.31-.39l-.02-.55c.2.11.46.15.8.33.21-.07.47-.36.72-.53.24-.19.45-.28.59.09.09-.14,1.01-.54.43-.87-.69-.04-.47.68-1.08.14.63.37.76-.46.99-.79l.18.25c.14-.2.6-.35.57-.7-.06.23.1.38.29.37v-.51c.64-.57.55.65,1.23.16-.12.21-.26.4-.4.6.08-.14.57.16.84-.2-.07-.46-.08-1.06-.13-1.41.3-.4.42.31.59-.31l-.25.76c0,.17.7.4,1.25.05.28-.34.47-1.18-.19-1.05.26-.17.78-.18.74.22.53-.49-.33-.34.05-.87.37.11,1.21-.04,1.85,0l-.11.98.36-.26c-.13.81.49.18.58.86.3-.11.48-.5.63-.8-1.29-.24-.01-1.64-.77-2.18.78-.87,1.95,1.19,1.99-.68-.3-.04-.32-.93-.7-.24.6-.42-.23-.99.64-1.29-.22.69,1.12.19.79,1.2-.15-.26-.54.19-.59.35.45.04.54.71,1.12.18.29-.38.76-.83.37-1.09-.37-.35-.49.52-.62-.05.57-.73,1.21-.32.82-1.23-.33.48-.81.21-1.05-.05.12-.19.2-.42.3-.62l.16.33c.88-.62-.23-.65.51-1.34l.82.09c.26.56-1.19.93-.39,1.44.49-.48.29-.96.89-1.27-.04.16-.15.32-.18.48.18-.15,1.28.47,1.4-.73.1-.57-.17-.31-.43-.54.57-.94.48-1.41.85-2,.46.52.79-.95.9.08-.54.06-1.44,1.32-1.17,2.05.43.09.28.25.08.47-.22.21-.5.47-.27.82.63-.65,1.2-.12,1.69.09.18-.19.16-.52.19-.7-.32-.39-.51-.12-.92-.42.71-.73,1.08-1.67,1.01-2.38.4-.13.74.23.54.58.32-.51.61-1.06.94-1.58.33-.52.69-1.01,1.06-1.46-1.07.23.49-1.18-.35-1.07-.46.44-1.22.58-1.37.13.24-.29.3.18.53.14-.13-.6.99-.3.58-1.04-.23,1.08.77.65,1.24,1.12.03-.88.38.24.72-.48.04-.88.21-1.88.47-2.72.94-.81.97-2.63,1.29-3.54.43-.41,1.02.14,1.28-.38.15-.65-.86.27-.3-.6l.11.13c-.09-.33.92-1.66,0-2.16l.67.46c.11-.16-.01-.37-.06-.54.24.05.52-.12.6.21.71-.49.14-1.31.24-1.97l-.51.35c-.19-1.18.4-1.87.37-2.99l.44.08-.23-.68c.42.2.73-.39.39-.77.33.6.68,1.21.98,1.84-.32.46-.47-.59-.94-.32-.4.22-.45,1.24-.05,1.47.11-.39.02-.42-.1-.74.63-.06.52.54.88.9,0-.21.24-.49.05-.56.24.45.22.88.13,1.58-.17-.51-.42.19-.56-.01.53.14.59.84.31,1.67-.77.46-.01,1.67-.43,2.62-.43-.54-.73-1.15-.8-1.78-.42.53-.16.67-.58,1.2.32.39.88.77.91,1.64l-.4-.08c-.02.77.52.95.09,1.82-.38.74-.71,1.5-1.01,2.22-.36.69-.7,1.34-.99,1.9l-.38-.13c.24.5.06,1.06-.19,1.62-.25.56-.65,1.06-.72,1.57-.58.58-.95,1.37-1.3,2.06-.39.66-.8,1.21-1.32,1.33-.36.61-.71,1.2-1.05,1.78-.38.56-.79,1.08-1.2,1.61-.41.53-.84,1.05-1.3,1.57-.49.48-1.03.95-1.59,1.41l-.04-.76c-.09.67-.48-.02-.79.38.75-.04-.11.93-.16,1.45-1.28.5-2.34,1.84-3.04,2.9l-.27-.31c-.56,1.29-2.16,1.44-3.46,2.1-.22-.05-.64-.28-1.01-.05-.41.93-.81,1.07-1.7,1.95-.76.42-2.15.71-3.05.78-.68.47-1.39.94-2.16,1.22-.77.29-1.56.52-2.36.75l-1.21.33-1.23.23c-.82.16-1.65.36-2.47.62l-.29-.44c-.78.33-1.65.49-2.53.6-.88.09-1.79.21-2.68.1-1.78-.16-3.48-.23-4.91-.26l.37-.77c-.82-.38-1.99-.09-1.87.52-.42-.19-.98-.17-1.5-.22-.51-.08-.97-.2-1.16-.6-.84-.37-1.16.09-1.93,0-.85-.35-1.41-.63-1.99-.85-.57-.21-1.15-.36-1.99-.59l.38.19c.24-.1.38-.42,0-.62-.34,0-.87-.24-1.28-.38-.4-.15-.7-.14-.6.44-.72-.66-1.73-1.01-2.73-1.4-1-.38-1.92-.94-2.5-1.71,0,.31-.42.11-.68.17-.35-.21-.68-.45-1.01-.7-.3-.28-.6-.56-.89-.83-.59-.53-1.17-1-1.83-1.21-.12-.26.61-.11.1-.52-.37-.16-.23.27-.7.09-1.14-.69-2.05-1.69-2.88-2.69-.78-1.06-1.44-2.16-2.29-2.99-3.1-2.93-5.26-6.9-6.95-10.58l.2-.04c-1.22-.99-.39-3.24-1.84-3.89.06-.36-.24-1.22.18-1.09-.39-.45-.46-1.22-.56-2.04-.05-.41-.11-.83-.21-1.23-.09-.41-.2-.81-.43-1.16,0,.15.06.22.16.37.09-.82-.06-1.54-.22-2.27-.08-.37-.16-.74-.21-1.12-.04-.39,0-.79.06-1.21.09.16.17.46.37.49.34-.65-.9-1.45.02-1.85-.03-.36-.49-.24-.45-.02.02-1.81.13-3.66.08-5.56v-.71s.04-.71.04-.71l.09-1.43.1-1.44.06-.72.13-.7c1.22-2.5,1.58.22,1.43-2.01.22-.12-.32-.22-.12-.19-.02-.43.31-.67.6-.88.32-.2.6-.37.46-.71-.63.04-.18-.46-.5-.59.93-1.42,1.48-1.53,1.58-2.88l.24.21c-.07-.85.19-1.63.43-2.39.24-.76.43-1.52.36-2.31.53-.93,1.06-1.85,1.58-2.76.56-.89,1.19-1.74,1.78-2.61.57-.89,1.25-1.69,1.93-2.49.69-.79,1.3-1.65,2.08-2.36l2.24-2.21c.79-.69,1.62-1.33,2.44-1.99.8-.69,1.69-1.25,2.58-1.81.9-.55,1.75-1.19,2.72-1.62.95-.44,1.9-.88,2.84-1.32.96-.4,1.95-.73,2.92-1.1.49-.17.97-.37,1.47-.53l1.51-.4c1.01-.25,2-.57,3.03-.75l3.09-.48.77-.11.78-.04,1.57-.06c2.09-.15,4.19.11,6.29.34,1.88,1.03,1.98,1.06,4.17,1.06-.11.11-.25.12-.13.26.24-.66,1.49.26,1.82-.29,1.49.46,2.97.75,4.38,1.3.72.25,1.43.49,2.16.74.74.24,1.42.62,2.16.95-.49-.16-.94.22-.38.44l.75-.1v.21c.42.09.98,0,.69-.37.47.2.95.37,1.4.61l1.33.75c.87.53,1.77,1.01,2.57,1.63.8.62,1.59,1.25,2.36,1.9.4.31.76.65,1.11,1.02l1.06,1.07c1.45,1.38,2.62,3.02,3.89,4.52l1.7,2.42c.28.4.59.79.86,1.2l.78,1.25c.35.88,1,1.81,1.53,2.82.54,1.01,1.14,2.03,1.64,2.92.36,1.48.64,2.94.96,4.34.2,1.44.4,2.84.64,4.22.12,1.41.27,2.8.49,4.21.09,1.42.23,2.86.45,4.35,0,0-1.73-.79-2.24-3.09Z"/>
    <path class="cls-1" d="M88.22,49.24c-.34.19-.55.82-.96.29.31-.05.67-.37.96-.29Z"/>
    <path class="cls-1" d="M80.79,64.56c.08.06-.22.15-.29.17.06-.19-.1-.48.12-.55-.06.19.09.23.17.38Z"/>
    <path class="cls-1" d="M78.56,68.01c-.21-.22.04-1.08.28-1.54l-.28,1.54Z"/>
    <path class="cls-1" d="M75.37,70.33c-.39.09-.43-.06-.17-.4.14.07.12.24.17.4Z"/>
    <path class="cls-1" d="M75.72,70.96c-.21.24-.44.24-.67.24.2.15.36-.63.67-.24Z"/>
    <path class="cls-1" d="M69.29,75.91c-.14.13-.33.58-.66.42.3.06.52-.85.66-.42Z"/>
    <path class="cls-1" d="M66.47,78.39c-.11.05-.18.03-.26.17-.26,0-.17-.3-.02-.42l.29.25Z"/>
    <polygon class="cls-1" points="11.12 56.29 11.36 56.66 11.07 56.67 11.12 56.29"/>
    <path class="cls-1" d="M16.34,26.69c.07-.46.39-.08.47-.12-.2.32-.23-.32-.47.12Z"/>
    <polygon class="cls-1" points="27.62 14.07 27.51 14.14 27.24 13.61 27.62 14.07"/>
  </g>
  <g>
    <g>
      <path class="cls-1" d="M23.01,65.35c-.06.52.32-.21.03.36-.1-.1-.16-.22-.03-.36Z"/>
      <path class="cls-1" d="M24.43,67.47c.18.18.5-.03.74-.06.25-.06.5-.1.73-.13.47-.06.97-.06,1.47-.06,1.01-.02,1.95.31,2.91.4.22.04-.19.37.3.45.95.03,2.03.4,3.2.65,1.16.26,2.44.39,3.6.4l-.11.14c.45,0,.87-.51,1.31-.57.03.07-.11.15.02.22.04-.26.74-.36.87-.59.2.03.25.22.5.23l.14-.35c.4-.85,1.63-.61,2.27-1.47,0,.08-.06.17.04.18,1.09-1.18,2.36-2.55,3.33-3.99.03.11.12.27.27.26-.17-.25.12-.7.38-1.09.35.04.33-.78.86-1.06v.08c.11-.51.57-.28.61-.77l.35.02c-.07-.44.62-.17.8-.49l-.05-.07c.23-.24.48-.13.71-.32l.05.03c.57-.39,1.03-.34.88-.62.32.14-.55.37-.06.56,1.92-1.16,3.92-2.2,5.57-3.7.27-.07.42-.15.54-.1.12-.2.57-.63.58-.89-.05.06.22,0,.31-.07.37-.22.03-.56.42-.81-.04.19,0,.3.13.33.05-.45.38-.83.57-1.24,0,.09-.03.19.06.24.05-.56.55-.71.63-1.18l.07.24c.56-.48-.22-.38.2-.82-.02.15.06.15.11.21,0-.65.56-1.38.86-1.9,0,.04.04.07.04.07.38-.53.99-.87,1.55-1.3.26-.03.12.43.68.11-.17-.35.97-.54.46-.8.55-.14,1.41-.3,1.69-.55-.17.22.42.32,0,.52l.41.08c0,.16-.35.09-.18.22.22-.1.78-.51.99-.54.29-.4.43-.95.96-1.35-.18.3.38.24.23.41.14-.38.25-.75.34-1.12.16-.15.23.2.4-.08-.08-.06-.02-.2,0-.32.1-.01.57-.68.9-.51.17.02-.19.32.07.22.29-.3.19-.41.43-.73l.04.02c.22-.18.33-.73,0-.6-.12.14.22.07-.03.22-.04-.26.1-.68.3-1.01-.01.14.08.17.14.27,0-.6.12-1.12.15-1.69-.16-.06.24.29.13.35.48-.65,0-1.53.39-2.1.02.1-.25.04-.2.04.05-.35.28-.34.2-.57.14-.02-.03-.3-.1-.54-.11-.12.07-.07.1.15-.13-.35-.47-1.69-.4-2.54-.09.03-.44-.45-.45-.64l.24.04c.11-.19-.13-.64.06-.7-.34-.36.49,1.54.19,1.02.17-.17-.48-.71-.16-.64-.07-.38-.39-.72-.23-1.13-.02.12.36.27.3-.04-.13-.55-.13-.14-.27-.59l-.13-.28c-.23,0-.02-.53-.25-.28.18-.09-.18-.88.2-.83l.29.07c-.02-.26-.31-.42-.44-.65.02-.02.04-.05.07-.07.02-.03.05-.04.07-.03-.22-.03-.19-.29-.13-.48.06-.2.14-.41,0-.59.14-.13.16-.34.27-.51.03-.03.06-.05.13-.11-.15,0-.22.09-.24.09-.04,0-.08,0-.12-.02.05-.04.12-.06.17-.16-.11-.12-.19,0-.33.08.01-.03-.03-.1-.17-.17-.16-.07-.43-.16-.59-.24-.43.12-.31.36-.36.51-.28-.23-.57-.24-.9-.23-.33,0-.66-.02-.84-.28.16-.02.65-.03.35-.24-.22-.52-.82.08-1.3-.34v.39c-.16-.31-.88-.13-.68-.45-.23.05-.58-.37-.65-.02-.76-.66-2.05-.61-2.38-1.34-.13.03-.42-.1-.4.09.15.24.31-.07.35.07-.11-.01-.15.08-.18.12-.23-.14-.43-.21-.13-.44-.55-.32-.69.46-1.37.29.04-.14-.01-.2-.22-.19l-.39.27c-.45-.05-.28-.33-.31-.57-.25.07-.57.11-.66.3-.12-.09-.24-.17-.37-.25.27.17-.18.2-.28.28l.11-.09c-.07-.09-.35.04-.49.11.08.14.39.13.56.14-.1.14-.3.15-.43.32-.01-.25-.44-.03-.65,0-.24.03-.17.29-.24.31-.05-.12-.36.13-.26-.11.06-.07.21.04.3-.11-.18-.04-.24-.24-.48.04-.18.21.25.42-.23.46.08-.1.06-.2.11-.32-.15.02-.3.03-.45.07l.08.21c-.08-.02-.05-.06-.09-.07,0,.27-.55.36-.49.65-.16.13-.46.1-.65.2l.02-.04c-.28.04-.51.3-.57.56l-.02-.05c-.11.08-.35.31-.39.52-.37.11-.66-.54-.76-.06-.26.27-.11.7.1.69-.56.36-.75,1.16-1.41,1.45.01.13.09.12.01.31-.35.38-.62.85-.96,1.3-.35.45-.76.88-1.33,1.05.23-.31-.12-.19-.21-.28-.1.35-.42.05-.32.4.13.15.17.26.55.08-.73.71-1.81.98-2.19.91.2.04.08.14-.04.23-.05-.32-.52-.24-.82-.04v.2s-.26-.14-.26-.14c-.11.09-.03.43-.4.34-.04-.07-.08-.14-.15-.17-.29.25-.64.64-1.02.6l-.37-.17c-.13.08-.29.34-.03.31-.61.05-.95.21-1.23.07-.31.51-.73.93-1.14,1.38-.44.45-.89.9-1.29,1.31l-.09-.12c-.32.15.08.29-.14.39-.04-.17-.39,0-.36-.31-.42.26-.19.62-.31.9.13.15.04-.26.2-.07.02.08-.49.41-.29.64-.16.03-.29-.16-.35-.28l-.04.31c-.48.11-.05-1-.6-.94l-.12.25c-.41.05.14-.8-.35-.28-.06.34.16.78.41.63-.27.56.43.6.07,1.16-.24.07.24-.48-.03-.49-.36.14-.21.61-.43.82.26-.22.38.15.31.38-.31.26-.11-.35-.41.09.09.16-.09.69.26.36.2.39-.43.46-.43.93-.33-.01-.08-.9-.61-.45.3.08-.33.88.2.87-.27.16-.43.02-.39-.23-.38.16-.47,1.01-.87.66l.04.29c-.15,0-.33.03-.56,0-.26.15-.68.78-.84.4-.06.08-.65.35-.31.49.44-.03.33-.39.7-.16-.4-.14-.51.31-.68.5l-.1-.12c-.1.11-.39.22-.4.41.06-.12-.04-.2-.15-.18l-.03.27c-.44.34-.29-.32-.73-.03l.28-.33c-.06.07-.32-.05-.51.12,0,.23-.05.54-.05.73-.22.21-.22-.16-.38.16l.22-.39c.02-.09-.39-.21-.72-.04-.19.18-.38.62.01.55-.17.09-.46.09-.4-.12-.34.26.15.18-.11.47-.2-.06-.7-.02-1.04-.06l.16-.5-.22.12c.15-.42-.25-.11-.24-.46-.18.05-.32.24-.42.4.68.16-.15.86.22,1.16-.49.45-.96-.67-1.13.3.16.03.1.48.35.15-.36.19.04.51-.42.65.15-.36-.57-.11-.35-.63.07.14.28-.1.33-.17-.24-.03-.25-.38-.58-.11-.18.2-.45.43-.25.57.17.18.28-.27.32.03-.31.38-.62.18-.45.63.19-.23.42-.1.54.04l-.16.3-.07-.16c-.46.29.12.32-.22.64-.13-.01-.28-.03-.4-.03-.16-.27.55-.47.15-.71-.22.26-.14.47-.39.65,0-.08.04-.16.06-.24-.09.07-.65-.16-.62.44.02.28.12.13.27.22-.07.24-.09.4-.1.54,0,.16.02.29-.02.46-.32-.18-.18.61-.43.13.11-.07.23-.29.29-.52.06-.23.09-.44-.03-.61-.22,0-.16-.09-.09-.22.09-.12.2-.27.07-.43-.26.38-.59.18-.85.13-.08.12-.04.3-.03.39.2.15.27-.01.5.09-.3.42-.28,1.01-.12,1.34-.16.15-.39.04-.36-.18-.09.66-.22,1.37-.35,2.02.43-.39.03.74.39.47.11-.34.43-.61.59-.4-.04.21-.17-.02-.27.06.19.28-.38.4-.05.7-.09-.63-.48-.15-.78-.29.15.47-.22-.03-.25.43.15.47.27,1.05.33,1.57-.31.65-.02,1.66-.02,2.26-.16.31-.51.09-.58.43,0,.39.39-.28.21.3l-.07-.06c.08.18-.28,1.06.21,1.27l-.37-.21c-.04.11.04.21.07.31-.12,0-.25.11-.32-.07-.28.34-.02.75-.06,1.15l.25-.23c.1.71-.22,1.13-.31,1.76l-.21-.06.04.4c-.19-.14-.41.17-.28.41l-.29-1.08c.19-.24.19.35.45.22.22-.1.31-.7.12-.83-.07.22-.03.24,0,.43-.32.01-.22-.32-.39-.52,0,.12-.15.26-.05.31-.08-.26-.08-.48-.03-.85.08.27.21-.11.28,0-.27-.07-.3-.43-.19-.89.34-.32-.14-.9-.04-1.44.27.23.48.53.57.88.15-.34.01-.39.16-.74-.2-.18-.51-.31-.63-.76l.2-.02c-.1-.42-.4-.42-.33-.95.11-.9.12-1.85.17-2.55l.2-.02c-.43-.41-.09-1.31-.23-1.86.27-.88.13-2.05.63-2.43.34-1.7,1.35-3.06,2.74-4.06l-.04.41c.1-.36.25,0,.46-.2-.42,0,.15-.48.22-.76.75-.24,1.44-.93,1.94-1.42l.12.17c.41-.66,1.28-.7,2.03-.99.12.04.33.15.54.02.25-.48.47-.56.93-1.01.41-.2,1.05-.46,1.44-.57.44-.6.74-1.09,1.18-1.87.42-.77.95-1.63,1.46-2.49l.28.04c.41-.91,1.09-1.68,1.96-2.4.85-.7,1.79-1.17,2.5-1.65l.03.44c.51-.12,1.03-.56.81-.79.53-.07,1.16-.62,1.56-.38.51-.07.54-.35.93-.51.95-.1,1.34-.22,1.86-.55l-.14.04c-.04.11.04.28.19.23.1-.1.25-.16.34-.25.11-.12.14-.23-.11-.34.69-.2,1.07-1.59,1.97-2.13-.16-.02-.02-.23-.03-.37.56-.72,1.42-1.28,1.83-1.96.16-.06-.02.33.27.07.13-.19-.11-.13.05-.38,1.04-1.26,2.76-1.71,4.03-2.26,1.13-.58,2.46-.94,3.82-.98,1.37-.05,2.7.24,3.85.59l-.06.08c.9-.1,1.56,1,2.3.7.12.15.57.29.38.41.6-.04,1.33.8,2.08.61-.06-.02-.1,0-.18.02.15.09.33.15.46.18.03.01.19.01.36,0l.27-.02.38-.02c.35-.01.71-.02,1.07,0-.16.05-.44.1-.5.2.21.06.46,0,.74-.09.34.22.76.52.71.88.27.28.38.06.19-.13.34.38.67.75,1.02,1.14-.17.53-.33,1.06-.46,1.6-.08.32-.08.37-.11.54-.02.15-.03.25-.02.29.04.85.31,1.87.54,2.92-.04,1.47-.77.21-.24,1.29-.07.11.19.04.1.07.2.43-.42.78-.13,1.06.27-.17.18.19.36.18-.09.96-.35,1.15-.11,1.9l-.15-.06c.46.89.09,1.93.41,2.83-.29,1.32-.87,2.61-1.65,3.69-.77,1.09-1.68,1.99-2.74,2.77-1.05.77-2.22,1.33-3.29,1.76-1.06.42-2.04.79-2.44,1.13-.36.18-.86.98-1.43,1.94-.57.96-1.26,2-2.06,2.93-.8.94-1.74,1.78-2.68,2.48-.96.72-2.02,1.37-3.13,1.86-1.18.15-1.26.18-2.23.8.01-.08.07-.12-.02-.14.08.32-.69.35-.63.67-.33.14-.65.3-.88.45-.23.14-.46.32-.68.53-.45.42-.9.95-1.41,1.57.13-.22.01-.48-.17-.24l-.04.38-.1-.02c-.1.19-.12.47.1.37-1.18,1.7-3,3.65-5.38,4.64-2.14.88-4.39,1.47-6.87,1.54-1.16-.1-2.84-.31-3.97-.65-.7-.36-1.39-.71-2.06-1.06-.29-.14-.58-.25-.86-.34-.28-.07-.51-.14-.91-.14l-1.09-.02h-.57s-.91.03-.91.03l-.46.02c-.07-.01-.17.05-.22-.03l-.16-.17-.64-.68-.31-.32-.21-.21-.44-.41s.23-.06.58-.02c.18.02.39.07.62.16.26.13.55.32.83.55Z"/>
      <path class="cls-1" d="M23.13,64.74c.19-.07.36-.4.5-.07-.16,0-.37.14-.5.07Z"/>
      <path class="cls-1" d="M25.68,55.22s.07-.13.1-.16c0,.12.14.23.05.32,0-.12-.08-.1-.15-.16Z"/>
      <path class="cls-1" d="M26.03,52.89c.14.06.17.55.16.84-.06-.28-.11-.56-.16-.84Z"/>
      <path class="cls-1" d="M27.15,51.31c.17-.06.2,0,.13.16-.07-.02-.09-.09-.13-.16Z"/>
      <path class="cls-1" d="M26.92,51.05c.08-.13.19-.14.3-.15-.11-.06-.11.32-.3.15Z"/>
      <path class="cls-1" d="M30.29,48.56c.09-.06.24-.29.41-.2-.16-.04-.38.43-.41.2Z"/>
      <path class="cls-1" d="M32.14,47.32c.07-.02.11-.01.17-.09.15,0,.07.16-.03.22l-.14-.13Z"/>
      <polygon class="cls-1" points="66.2 29.06 65.92 29.03 66.01 28.91 66.2 29.06"/>
      <path class="cls-1" d="M69.73,42.4c0,.24-.19.07-.22.1.08-.18.14.15.22-.1Z"/>
      <polygon class="cls-1" points="62.6 48.29 62.67 48.26 62.76 48.54 62.6 48.29"/>
    </g>
    <g>
      <path class="cls-1" d="M41.88,61.67c0-.18-.28-.01-.06-.15.1.06.17.13.06.15Z"/>
      <path class="cls-1" d="M41.96,60.98c-.27-.37-.23-.65-.12-.94.07-.3.21-.61-.04-.91-.03-.07.42.04.32-.12-.56-.57-.28-1.36-.05-2.18h.12c.04-.15-.36-.2-.36-.34.07-.03.12,0,.21-.06-.24.04-.19-.21-.38-.2.07-.09.24-.15.31-.26l-.28.02c-.67.05-.19-.51-.62-.63.06-.02.12-.02.16-.07-.58-.22-.83-.74-1.3-1.02.08-.05.23-.15.28-.24-.23.17-.39.1-.52.04.17-.26-.35.03-.36-.19l.05-.04c-.29.15-.02-.25-.32-.03l.09-.23c-.3.29,0-.27-.21-.16l-.05.07c-.13.03-.05-.17-.16-.16l.02-.04c-.22-.03-.2-.27-.36,0,.08-.25.23,0,.33-.37-.75-.08-1.32-.4-1.96-.59-.04-.14-.08-.19-.06-.31-.08.05-.27,0-.36.15.02,0,0-.17-.04-.19-.1-.15-.2.31-.3.16.07-.08.1-.18.1-.3-.16.23-.3.17-.45.24.03-.05.06-.08.07-.18-.18.26-.27-.1-.41.08l.06-.18c-.2-.23-.08.38-.26.25.04-.06.03-.13.04-.2-.18.33-.44.21-.6.34,0-.03,0-.08,0-.08-.17.06-.38-.05-.55.14-.08-.07-.04-.45-.23-.35.07.37-.3.21-.11.6-.17-.04-.44-.09-.51.05.03-.16-.2-.42-.08-.48l-.17-.19c-.03-.15.12.02.04-.16-.07.04-.23.23-.31.19-.06.26-.02.7-.19.82.04-.17-.21-.36-.17-.44,0,.25,0,.5.02.76-.05.04-.13-.26-.18-.13.05.09.04.16.05.24-.04-.03-.19.2-.39-.11-.1-.11.06-.12-.07-.2-.11.06-.05.18-.15.24l-.03-.04c-.1,0-.12.26.06.38.05-.02-.13-.18,0-.13.06.21-.02.33-.11.39,0-.07-.06-.15-.1-.24.02.32-.04.5-.1.69.1.14-.14-.29-.07-.23-.34-.06-.13.54-.49.4,0-.04.18.17.15.14-.09.05-.26-.13-.25-.02-.11-.1-.03.09-.04.18.05.1-.06-.04-.04-.09.03.17-.07.58-.36.63.08.06.21.32.17.36l-.17-.15c-.14-.04-.08.15-.25.04.16.25.06-.48.15-.24-.18-.08.17.38-.06.17-.06.09.1.31-.13.28.04,0-.22-.24-.25-.16-.04.15.07.1.08.24l.04.11c.19.11-.09.1.15.17-.17-.07,0,.23-.32.05l-.25-.15c-.01.07.23.24.32.34-.03,0-.09-.01-.13-.04.4.2-.1.12.19.33-.2.05-.14.29-.42.26.09.14.22.28.09.35-.03-.03-.03-.07-.12-.1-.15.03-.04.08,0,.16-.06-.03-.28.07-.46.12.11.14.35.15.49.2-.45,0,.21.32-.19.36-.06-.04-.19-.18-.31-.12-.44.03.3.24.07.36h.37c-.23.05.18.24-.19.19.12.06-.13.17.22.17-.31.23.16.56-.45.74.06.03,0,.13.19.09.19-.07-.15-.07-.01-.1.01.03.11.03.16.03-.08.08-.1.14-.4.1-.2.2.6.12.51.33-.15.01-.2.04-.17.09l.27.07c-.04.14-.32.14-.56.19.05.07.06.17.25.16l-.28.16c.2-.12.16.03.23.04l-.07-.02c-.1.04-.01.11.03.15.15-.05.18-.15.21-.21.12,0,.11.07.24.08-.24.05-.14.16-.15.23-.03.08.23,0,.23.02-.12.04.02.11-.17.12-.05,0,.1-.09-.02-.09-.07.07-.28.14-.1.17.14.03.45-.18.35,0-.07-.01-.16.02-.25.02l-.07.16.21-.07s-.07.03-.09.05c.23-.05.13.15.38.07.05.04-.08.18-.08.24h-.02c-.09.12.03.17.19.15l-.04.02s.07.11.21.09c-.1.16-.71.44-.41.4.06.09.43-.07.53-.18-.04.24.37.19.19.52.09-.03.12-.08.2-.07.08.27.54.22.36.68-.12,0-.16.15-.25.24.18-.09-.09.2.17-.03.14-.15.21-.21.21-.32.19.03.35.17.29.37.03-.1.09-.12.16-.15-.21.24-.16.36-.02.31l.13-.15-.08.19c.07-.03.27-.31.23-.11-.04.06-.08.13-.1.18.17-.08.41-.23.4-.05l-.08.28c.05,0,.2-.12.18-.22.05.23.13.3.06.55.54-.4.87-.28,1.16-.15l-.05.14c.04.16.12-.23.14-.11-.07.12-.03.31-.14.45.08.19.23-.2.32-.24.06-.18-.09.11-.02-.13.03-.06.13.18.21-.1,0,.12-.07.32-.11.43l.1-.12c.03.35-.35.54-.35.97l.09-.03c.01.32-.3.28-.11.43.13-.12.28-.51.23-.66.19-.04.22-.66.38-.6.02.18-.14.02-.15.26.04.26.19-.11.25-.01-.06-.12.05-.4.1-.45.07.15-.09.27.02.31.04-.16.16-.28.08-.4.08-.37.11.12.2-.16.02.27-.18.6-.05.75,0-.25.19-.34.15-.73.04.08.04.28,0,.44.07.16.19-.47.2.05l.03-.26c.03.08.05.16.09.3.07.01.2-.35.21.04.02-.04.17-.04.1-.31-.1-.16-.1.21-.16-.16.07.3.13-.05.17-.15l.02.15c.03-.06.1-.03.1-.2-.01.09,0,.19.03.23v-.24c.11-.12.08.41.19.33l-.07.19s.09.18.14.09c0-.22,0-.48,0-.65.05-.1.07.23.09,0l-.04.27c0,.07.11.34.21.32.05-.08.08-.4-.03-.5.04-.01.13.11.13.27.09-.09-.06-.22,0-.37.06.13.22.3.34.48v.37s.06-.02.06-.02c-.02.3.1.2.12.51.06.03.1-.08.12-.17-.26-.43-.03-.68-.2-1.09.12-.15.44.99.4.27-.07-.1-.1-.44-.16-.29.12,0-.09-.44.09-.31-.02.2.26.38.22.67-.04-.14-.11-.08-.12-.03.1.14.14.42.26.38.06-.07.15-.11.05-.32-.1-.23-.09.06-.15-.19.1-.13.27.21.14-.22-.06.07-.19-.16-.25-.32l.04-.14.05.16c.18.04-.09-.3.06-.32l.21.27c.09.27-.25-.02-.03.39.1-.03.03-.26.16-.19,0,.04-.02.07-.02.11.04,0,.36.53.33.14,0-.16-.06-.16-.14-.31.11-.13.06-.31.13-.38.16.3.17-.07.26.29-.16-.14-.33,0-.23.31.25.32-.14.02.01.39.13-.05.32.29.47.51.05,0,.03-.13.03-.17-.11-.22-.15-.19-.28-.41.17-.03.24-.23.18-.47.11.07.23.28.19.34.13-.16.3-.27.5-.32-.34-.24.1-.2-.17-.4-.13-.01-.37-.19-.44-.36.06-.01.11.14.18.19-.08-.21.31.2.14-.11-.03.21.29.39.47.65-.02-.22.14.17.24.08-.02-.22,0-.43.06-.57.33.07.31-.34.4-.46.17.03.42.3.52.26.06-.1-.35-.17-.12-.2l.05.06c-.04-.09.38-.11-.01-.44l.29.26s0-.08-.03-.12c.1.07.22.1.26.19.29.06.08-.22.14-.32l-.23-.05c-.06-.26.21-.25.23-.46l.2.11-.07-.16c.18.12.35.08.21-.05.12.17.24.34.35.52-.16.02-.19-.21-.41-.26-.19-.05-.23.13-.06.26.06-.05.02-.08-.03-.16.28.13.22.21.37.36,0-.04.12-.04.04-.1.09.14.07.22.01.33-.06-.14-.19-.06-.25-.13.23.15.24.3.09.4-.33-.08,0,.36-.19.46-.17-.23-.3-.43-.33-.58-.18,0-.07.1-.24.11.13.16.36.39.37.59l-.16-.12c0,.17.22.36.06.46-.27.17-.49.39-.68.52l-.14-.14c.2.41-.21.41-.23.66-.35.03-.42.55-.74.33-.35.41-.72.77-1.27.89l-.02-.31c-.01.24-.12-.14-.19-.06.18.18-.02.33-.03.53-.3-.14-.53.17-.71.44l-.05-.2c-.14.42-.49.13-.76.12-.04-.08-.11-.26-.19-.23-.11.34-.2.32-.41.54-.17.02-.44-.07-.6-.21-.65.45-1.27.05-1.97.16l.02-.24c-.77.3-1.36-.43-1.95-.48l.24-.33c-.08-.19-.38-.1-.5.17-.09-.19-.49-.07-.38-.41-.1-.16-.29.03-.44-.02-.2-.34-.3-.41-.61-.58l.05.08c.09-.04.21-.17.16-.24-.18,0-.25-.39-.51.04-.05-.45-.77-.49-.67-1.02-.09.1-.16.05-.26.07-.22-.26-.14-.7-.47-.8.03-.08.24-.04.18-.16-.08-.04-.15.08-.27.04-.47-.36-.24-1.07-.44-1.48-.51-.73-.55-1.66-.61-2.46h.1c-.38-.27.39-.62-.16-.86.09-.06.07-.24.25-.18-.23-.25.3-.56.05-.92-.02.03,0,.05.03.09.29-.26.04-.6.34-.86.03.04.04.11.13.15.22-.06-.3-.41.17-.32.02-.07-.21-.13-.21-.08.39-.61.46-1.4.8-2.11.55-.28.66.43.63-.11.09.03-.13-.13-.05-.07,0-.22.56.13.44-.1-.25-.15-.08-.16-.21-.28.36-.12.58.02.6-.31l.09.12c-.08-.5.31-.58.2-1.11,1.27-1.14,2.79-2.07,4.54-2.3,1.71-.09,3.52.04,4.97,1.06.17.55.18.55.64.63-.05.05-.08.04-.09.11.2-.27.27.14.48-.09.49.42,1,.73,1.45,1.21-.1-.05-.32.1-.23.17l.24-.05-.05.08c.09.03.28,0,.3-.14.67.54,1.09,1.32,1.33,2.11.26.79.36,1.6.54,2.37-.06.39.11.91.2,1.32-.41,1.26-.94,2.14-1.07,3.33,0,0-.74-.46-.79-.92Z"/>
      <path class="cls-1" d="M41.83,61.88c-.17-.03-.29.04-.46-.14.14.05.33.07.46.14Z"/>
      <path class="cls-1" d="M38.81,63.2s-.07-.03-.09-.04c.01-.03-.06-.15.02-.11-.01.03.04.08.08.15Z"/>
      <path class="cls-1" d="M38.25,63.52c-.08-.13-.04-.3.01-.36v.36Z"/>
      <path class="cls-1" d="M37.45,63.31c-.1-.09-.12-.15-.07-.18.04.07.04.11.07.18Z"/>
      <path class="cls-1" d="M37.58,63.62s-.1-.04-.16-.11c.06.11.06-.11.16.11Z"/>
      <path class="cls-1" d="M36.33,63.67s-.05.15-.11,0c.06.1.08-.21.11,0Z"/>
      <path class="cls-1" d="M35.86,64s-.03-.03-.04.01c-.04-.06-.03-.17,0-.19l.05.18Z"/>
      <polygon class="cls-1" points="29.14 57.98 29.2 58.06 29.06 58.03 29.14 57.98"/>
      <path class="cls-1" d="M31.61,53.97c0-.11.12.09.14.1-.04.04-.08-.16-.14-.1Z"/>
      <polygon class="cls-1" points="33.9 52.29 33.88 52.29 33.84 52 33.9 52.29"/>
    </g>
    <g>
      <path class="cls-1" d="M41.66,52.35c.14.11.17-.22.15.04-.11.04-.2.06-.15-.04Z"/>
      <path class="cls-1" d="M42.19,52.82c.45,0,.66.19.83.46.2.23.38.52.76.5.07.01-.27.32-.09.33.79-.12,1.27.56,1.8,1.23l-.08.1c.1.13.38-.17.5-.09-.02.08-.08.09-.08.21.1-.22.28-.04.38-.19.03.1-.02.28.03.4l.14-.24c.35-.57.52.14.87-.14-.02.06-.06.11-.04.17.52-.34,1.08-.25,1.58-.46,0,.1-.01.27.03.37,0-.28.14-.38.27-.45.11.29.18-.31.36-.18v.07c.04-.32.21.13.21-.24l.13.21c-.06-.41.22.15.26-.08l-.03-.08c.05-.12.16.06.22-.03l.02.04c.15-.16.34,0,.21-.29.16.21-.13.19.11.49.51-.56,1.09-.84,1.63-1.25.14.05.2.05.29.13.01-.09.16-.22.09-.38-.01.02.14.09.18.08.18,0-.14-.34.05-.34.02.1.08.19.18.26-.1-.26.03-.35.07-.5.03.05.03.1.1.16-.11-.3.24-.16.17-.38l.11.16c.31-.03-.26-.29-.05-.35.02.07.09.1.14.15-.16-.34.09-.48.07-.69.02.02.06.05.06.05.05-.18.26-.28.21-.53.1-.03.39.23.42.02-.34-.16,0-.36-.42-.44.13-.11.33-.3.26-.45.11.12.45.08.44.22l.25-.02c.14.07-.09.09.1.12.01-.08-.05-.32.02-.37-.18-.2-.56-.43-.55-.63.12.13.41.04.46.12-.2-.15-.41-.29-.63-.43,0-.07.29.04.21-.07-.1-.01-.15-.06-.22-.11.05-.02-.05-.27.32-.25.15-.01.06.12.2.06.02-.12-.11-.15-.11-.27h.05c.06-.08-.14-.25-.35-.18-.02.05.22,0,.11.07-.21-.07-.26-.21-.25-.32.06.04.15.04.26.06-.27-.17-.38-.33-.5-.49-.17,0,.32.05.23.08.24-.24-.36-.42-.04-.64.03.03-.24.05-.19.04,0-.1.26-.14.16-.19.14-.03-.05-.08-.12-.14-.11-.02.07-.03.1.03-.16-.08-.43-.4-.3-.66-.09.03-.39-.02-.39-.07l.22-.05c.11-.09-.07-.15.11-.23-.3-.01.36.33.11.26.17-.1-.41-.08-.11-.15-.04-.1-.31-.1-.15-.26-.02.04.33-.04.28-.11-.1-.12-.12,0-.24-.08l-.12-.03c-.2.09-.03-.13-.23.02.16-.1-.18-.14.15-.29l.27-.11c-.05-.05-.33.05-.46.07.02-.02.06-.06.11-.08-.39.21-.04-.15-.38-.04.07-.2-.15-.28.04-.49-.17,0-.35.02-.34-.13.05,0,.07.01.16-.04.06-.14-.04-.08-.14-.09.07-.03.11-.27.17-.44-.17,0-.33.19-.45.28.26-.36-.38-.02-.18-.37.07-.02.26-.05.28-.19.24-.38-.37.1-.33-.15l-.22.29c.1-.21-.29.01-.04-.26-.12.06-.06-.2-.27.08,0-.38-.55-.19-.34-.8-.06.03-.11-.07-.19.1-.05.2.14-.08.09.05-.03,0-.09.07-.12.11-.02-.11-.06-.16.15-.38-.04-.28-.45.42-.57.22.08-.13.09-.18.02-.19l-.21.18c-.09-.11.07-.34.17-.57-.09,0-.17-.05-.27.11l.03-.32c-.02.23-.12.12-.17.16l.06-.04c.02-.1-.08-.07-.14-.06-.04.15.02.24.05.3-.08.09-.12.04-.21.15.1-.22-.05-.21-.1-.25-.05-.08-.14.19-.15.17.04-.12-.1-.05,0-.2.03-.03.01.13.08.03-.01-.1.05-.31-.08-.18-.1.1-.12.47-.2.29.05-.05.08-.14.13-.22l-.09-.16-.06.21c0-.06.01-.07.01-.11-.09.22-.2.02-.28.27-.06.01-.09-.17-.15-.21v-.02c-.03-.14-.15-.07-.23.07v-.05s-.12,0-.18.12c-.08-.17.06-.84-.09-.57-.11,0-.19.4-.16.54-.17-.17-.37.19-.54-.15-.02.09,0,.15-.06.2-.27-.1-.49.31-.76-.11.06-.1-.03-.22-.05-.35-.03.2-.11-.19-.08.15.04.2.05.29.14.36-.13.14-.34.19-.47.02.06.08.05.15.03.21-.07-.31-.2-.34-.25-.2l.04.19-.11-.17c-.01.07.09.4-.05.25-.03-.07-.06-.14-.09-.19-.03.18-.05.46-.19.35l-.18-.23s-.02.23.08.28c-.21-.09-.32-.07-.48-.27.01.68-.28.87-.56,1.02l-.08-.12c-.15-.06.12.23,0,.18-.06-.13-.24-.2-.29-.38-.2-.05.03.3.01.4.11.16-.03-.14.11.06.04.06-.22,0-.04.23-.1-.07-.22-.24-.29-.34l.04.16c-.3-.19-.24-.6-.59-.85l-.03.09c-.26-.17-.06-.41-.29-.34.02.17.25.53.4.57-.08.18.41.56.27.66-.16-.09.07-.13-.12-.27-.23-.12-.03.21-.13.21.13.02.3.27.3.34-.16-.03-.16-.23-.27-.16.11.13.13.29.28.3.25.28-.16.02.02.26-.23-.14-.38-.5-.58-.48.21.15.17.35.5.54-.09,0-.25-.13-.35-.26-.17-.04.27.43-.16.14l.2.18c-.08-.03-.15-.05-.29-.1-.05.05.17.37-.15.15.02.04-.07.16.19.26.19.02-.11-.2.22-.03-.28-.12-.03.13.03.23l-.13-.08c.04.06-.03.1.1.2-.06-.06-.16-.11-.2-.11l.19.15c.04.16-.37-.18-.38-.04l-.11-.17s-.2-.04-.16.06c.18.13.39.28.53.37.06.1-.23-.08-.06.07l-.19-.19c-.06-.05-.34-.11-.38-.02.04.09.28.3.43.27-.02.04-.16.04-.29-.05.02.12.22.08.3.21-.15-.03-.37,0-.59,0l-.3-.23-.03.06c-.23-.19-.22-.04-.48-.2-.06.03.01.13.07.2.5.04.57.37,1,.47.05.19-1.06-.22-.45.16.12,0,.42.18.33.04-.07.09.41.19.2.25-.15-.13-.46-.01-.68-.21.14.05.13-.05.09-.08-.18,0-.42-.13-.46,0,.02.08,0,.19.23.22.25.05,0-.11.24,0,.05.15-.33.1.1.24-.02-.09.24-.06.41-.02l.09.11-.16-.05c-.14.12.29.1.23.23h-.34c-.28-.07.16-.18-.3-.24-.04.1.19.17.06.24-.04-.03-.04-.06-.08-.08-.02.03-.64-.02-.31.18.13.09.16.04.33.06.04.17.22.23.24.33-.34-.04-.05.18-.39.05.2-.05.2-.27-.12-.37-.41.02.07-.13-.32-.22-.03.14-.43.09-.69.08-.02.04.08.1.12.13.24.04.24-.01.49,0-.08.16.05.33.28.42-.12.05-.37.03-.39-.04.06.2.04.4-.03.59.4-.14.1.2.43.09.09-.1.37-.19.55-.15-.03.05-.17,0-.26.04.22.05-.35.14,0,.18-.15-.15-.49,0-.8,0,.19.12-.22.01-.21.14.19.12.34.26.43.38-.25.23.09.45.14.59-.13.12-.48.16-.51.27.04.11.34-.19.24.02h-.07c.09.02-.13.38.36.25l-.38.08s.07.04.12.05c-.12.04-.21.12-.3.1-.22.2.13.2.18.3l.18-.16c.24.1.09.32.24.45l-.2.1.17.04c-.2.08-.27.24-.08.2-.21,0-.42,0-.63-.02.08-.14.28-.03.45-.18.15-.13.03-.26-.18-.2,0,.07.05.06.15.07-.27.16-.3.05-.51.09.03.03-.04.12.06.09-.17,0-.22-.07-.28-.18.15.03.16-.12.25-.12-.25.1-.38.02-.38-.16.26-.22-.28-.22-.26-.43.29,0,.53,0,.66.07.1-.15-.05-.11.05-.26-.21.01-.52.07-.69-.04l.19-.06c-.13-.1-.42-.03-.41-.22.02-.32-.03-.63-.03-.86l.2-.03c-.45-.08-.21-.41-.4-.57.18-.3-.2-.66.17-.8-.12-.53-.2-1.03.02-1.55l.26.16c-.18-.15.18-.02.16-.12-.26.04-.26-.21-.41-.33.29-.17.17-.53.06-.83l.19.07c-.26-.36.17-.47.35-.69.09.01.28.06.3-.02-.21-.29-.15-.35-.2-.65.08-.15.32-.31.52-.37,0-.79.7-1.06,1.02-1.69l.19.15c.2-.8,1.14-.86,1.52-1.3l.13.39c.2.05.3-.25.15-.5.2.04.34-.36.56-.07.19.02.15-.25.28-.35.39.03.51,0,.83-.16h-.09c-.02.09.01.26.1.27.1-.15.47.03.27-.43.39.23.84-.34,1.22.05-.03-.13.06-.16.1-.25.33-.02.65.3.93.08.04.07-.1.22.02.24.08-.04.02-.17.13-.24.57-.17,1.01.44,1.46.51.89.01,1.66.52,2.36.94l-.06.08c.45-.14.28.68.8.37,0,.11.16.2,0,.31.33-.04.28.57.72.58-.01-.03-.04-.03-.09-.02.04.38.47.38.5.78-.05,0-.11-.03-.2.02-.08.21.51,0,.16.33.04.05.22-.09.19-.12.27.67.87,1.19,1.25,1.88-.09.61-.74.29-.28.57-.08.06.18-.03.09,0,.18.12-.43.38-.17.42.27-.12.17.03.34,0-.11.36-.35.46-.09.67h-.15c.46.23.29.6.79.82.18,1.69.05,3.47-.78,5.03-.92,1.44-2.09,2.83-3.77,3.42-.54-.18-.55-.17-.89.15,0-.07.01-.09-.04-.14.1.32-.27.13-.21.44-.62.15-1.17.38-1.83.46.1-.05.11-.32,0-.28l-.1.22-.03-.09c-.08.06-.15.23-.06.32-.83.23-1.7.11-2.49-.16-.8-.25-1.51-.64-2.24-.94-.29-.27-.8-.44-1.19-.61-.78-1.07-1.19-2.01-2.08-2.81,0,0,.8-.33,1.2-.11Z"/>
      <path class="cls-1" d="M41.53,52.19c.12-.12.14-.26.38-.29-.13.09-.25.23-.38.29Z"/>
      <path class="cls-1" d="M42.22,48.96s.06-.04.09-.05c.02.03.16.04.07.08-.02-.03-.09-.02-.16-.02Z"/>
      <path class="cls-1" d="M42.29,48.32c.15.01.27.14.29.22l-.29-.22Z"/>
      <path class="cls-1" d="M42.92,47.8c.13-.03.19,0,.18.05-.08,0-.12-.03-.18-.05Z"/>
      <path class="cls-1" d="M42.6,47.72s.09-.06.18-.07c-.12-.02.06.11-.18.07Z"/>
      <path class="cls-1" d="M43.29,46.68s-.09-.13.07-.09c-.12-.01.13.19-.07.09Z"/>
      <path class="cls-1" d="M43.29,46.1s.04,0,.02-.04c.07,0,.15.08.16.11l-.17-.07Z"/>
      <polygon class="cls-1" points="52.1 44.16 52 44.17 52.11 44.07 52.1 44.16"/>
      <path class="cls-1" d="M53.92,48.5c.09.07-.14.04-.16.05-.01-.06.18.03.16-.05Z"/>
      <polygon class="cls-1" points="53.95 51.35 53.95 51.33 54.22 51.47 53.95 51.35"/>
    </g>
    <g>
      <path class="cls-1" d="M63.71,30.75c-.18,0-.01.28-.14.06.06-.1.13-.17.14-.06Z"/>
      <path class="cls-1" d="M63.02,30.68c-.37.27-.65.23-.94.12-.3-.07-.61-.21-.91.04-.07.03.04-.42-.12-.32-.57.56-1.36.28-2.18.05v-.12c-.15-.04-.2.36-.34.36-.03-.07,0-.12-.06-.21.04.24-.21.19-.2.38-.09-.07-.15-.24-.26-.31l.02.28c.05.67-.51.19-.63.62-.02-.06-.02-.12-.07-.16-.22.58-.74.83-1.02,1.3-.05-.08-.15-.23-.24-.28.17.23.1.39.04.52-.26-.17.03.35-.19.36l-.04-.05c.15.29-.25.02-.03.32l-.23-.09c.29.3-.27,0-.16.21l.07.05c.03.13-.17.05-.16.16l-.04-.02c-.03.22-.27.2,0,.36-.25-.08,0-.23-.37-.33-.08.75-.4,1.32-.59,1.96-.14.04-.19.08-.31.06.05.08,0,.27.15.36,0-.02-.17,0-.19.04-.15.1.31.2.16.3-.08-.07-.18-.1-.3-.1.23.16.17.3.24.45-.05-.03-.08-.06-.18-.07.26.18-.1.27.08.41l-.18-.06c-.23.2.38.08.25.26-.06-.04-.13-.03-.2-.04.33.18.21.44.34.6-.03,0-.08,0-.08,0,.06.17-.05.38.14.55-.07.08-.45.04-.35.23.37-.07.21.3.6.11-.04.17-.09.44.05.51-.16-.03-.42.2-.48.08l-.19.17c-.15.03.02-.12-.16-.04.04.07.23.23.19.31.26.06.7.02.82.19-.17-.04-.36.21-.44.17.25,0,.5,0,.76-.02.04.05-.26.13-.13.18.09-.05.16-.04.24-.05-.03.04.2.19-.11.39-.11.1-.12-.06-.2.07.06.11.18.05.24.15l-.04.03c0,.1.26.12.38-.06-.02-.05-.18.13-.13,0,.21-.06.33.02.39.11-.07,0-.15.06-.24.1.32-.02.5.04.69.1.14-.1-.29.14-.23.07-.06.34.54.13.4.49-.04,0,.17-.18.13-.15.05.09-.13.26-.02.25-.1.11.09.03.18.04.1-.05-.04.06-.09.04.17-.03.58.07.63.36.06-.08.32-.21.36-.17l-.15.17c-.04.14.15.08.04.25.25-.16-.48-.06-.24-.15-.08.18.38-.17.17.06.09.06.31-.1.28.13,0-.04-.24.22-.16.25.15.04.1-.07.24-.08l.11-.04c.11-.19.1.09.17-.15-.07.17.23,0,.05.32l-.15.25c.07.01.24-.23.34-.32,0,.03-.01.09-.04.13.2-.4.12.1.33-.19.05.2.29.14.26.42.14-.09.28-.22.35-.09-.03.03-.07.03-.1.12.03.15.08.04.16,0-.03.06.07.28.12.46.14-.11.15-.35.2-.49,0,.45.32-.21.36.19-.04.06-.18.19-.12.31.03.44.24-.3.36-.07v-.37c.05.23.24-.18.19.19.06-.12.17.13.17-.22.23.31.56-.16.74.45.03-.06.13,0,.09-.19-.07-.19-.07.15-.1.01.03-.01.03-.11.03-.16.08.08.14.1.1.4.2.2.12-.6.33-.51.01.15.04.2.09.17l.07-.27c.14.04.14.32.19.56.07-.05.17-.06.16-.25l.16.28c-.12-.2.03-.16.04-.23l-.02.07c.04.1.11.01.15-.03-.05-.15-.15-.18-.21-.21,0-.12.07-.11.08-.24.05.24.16.14.23.15.08.03,0-.23.02-.23.04.12.11-.02.12.17,0,.05-.09-.1-.09.02.07.07.14.28.17.1.03-.14-.18-.45,0-.35-.01.07.02.16.02.25l.16.07-.08-.21s.03.07.05.09c-.05-.23.15-.13.07-.38.04-.05.18.08.24.08v.02c.12.09.17-.04.15-.19l.02.04s.11-.07.09-.21c.16.1.44.71.4.41.09-.06-.07-.43-.18-.53.24.04.19-.37.52-.19-.03-.09-.08-.12-.07-.2.27-.08.22-.54.68-.36,0,.12.15.16.24.25-.09-.18.2.09-.03-.17-.15-.14-.21-.21-.32-.21.03-.19.17-.35.37-.29-.1-.03-.12-.09-.15-.16.24.21.36.16.31.02l-.15-.13.19.08c-.03-.07-.31-.27-.11-.23.06.04.13.08.18.1-.08-.17-.23-.41-.05-.4l.28.08c0-.05-.12-.2-.22-.18.23-.05.3-.13.54-.06-.4-.54-.28-.87-.15-1.16l.14.05c.16-.04-.23-.12-.11-.14.12.07.31.03.45.14.19-.08-.2-.23-.24-.32-.18-.06.11.09-.13.02-.06-.03.18-.13-.1-.21.12,0,.32.07.43.11l-.12-.1c.35-.03.54.35.97.35l-.03-.09c.32-.01.28.3.43.11-.12-.13-.51-.28-.66-.23-.04-.19-.66-.22-.6-.38.18-.02.02.14.26.15.26-.04-.11-.19-.01-.25-.12.06-.4-.05-.45-.1.15-.07.27.09.31-.02-.16-.04-.28-.16-.4-.08-.37-.08.12-.11-.16-.2.27-.02.6.18.75.05-.25,0-.34-.19-.73-.15.08-.04.28-.04.44,0,.16-.07-.47-.19.05-.2l-.26-.03c.08-.03.16-.05.3-.09.01-.07-.35-.2.04-.21-.04-.02-.04-.17-.31-.1-.16.1.21.1-.16.16.3-.07-.05-.13-.15-.17l.15-.02c-.06-.03-.03-.1-.2-.1.09.01.19,0,.23-.03h-.24c-.12-.11.41-.08.33-.19l.19.07s.18-.08.09-.14c-.22,0-.48,0-.65,0-.1-.05.23-.07,0-.09l.27.04c.07,0,.34-.11.32-.21-.08-.05-.4-.08-.5.03-.01-.04.11-.13.27-.13-.09-.09-.22.06-.37,0,.13-.06.3-.22.48-.34h.37s-.02-.06-.02-.06c.3.02.2-.1.51-.12.03-.06-.08-.1-.17-.12-.43.26-.68.03-1.09.2-.15-.12.99-.44.27-.4-.1.07-.44.1-.29.16,0-.12-.44.09-.31-.09.2.02.38-.26.67-.22-.14.04-.08.11-.03.12.14-.1.42-.14.38-.26-.07-.06-.11-.15-.32-.05-.23.1.06.09-.19.15-.13-.1.21-.27-.22-.14.07.06-.16.19-.32.25l-.14-.04.16-.05c.04-.18-.3.09-.32-.06l.27-.21c.27-.09-.02.25.39.03-.03-.1-.26-.03-.19-.16.04,0,.07.02.11.02,0-.04.53-.36.14-.33-.16,0-.16.06-.31.14-.13-.11-.31-.06-.38-.13.3-.16-.07-.17.29-.26-.14.16,0,.33.31.23.32-.25.02.14.39-.01-.05-.13.29-.32.51-.47,0-.05-.13-.03-.17-.03-.22.11-.19.15-.41.28-.03-.17-.23-.24-.47-.18.07-.11.28-.23.34-.19-.16-.13-.27-.3-.32-.5-.24.34-.2-.1-.4.17-.01.13-.19.37-.36.44-.01-.06.14-.11.19-.18-.21.08.2-.31-.11-.14.21.03.39-.29.65-.47-.22.02.17-.14.08-.24-.22.02-.43,0-.57-.06.07-.33-.34-.31-.46-.4.03-.17.3-.42.26-.52-.1-.06-.17.35-.2.12l.06-.05c-.09.04-.11-.38-.44.01l.26-.29s-.08,0-.12.03c.07-.1.1-.22.19-.26.06-.29-.22-.08-.32-.14l-.05.23c-.26.06-.25-.21-.46-.23l.11-.2-.16.07c.12-.18.08-.35-.05-.21.17-.12.34-.24.52-.35.02.16-.21.19-.26.41-.05.19.13.23.26.06-.05-.06-.08-.02-.16.03.13-.28.21-.22.36-.37-.04,0-.04-.12-.1-.04.14-.09.22-.07.34-.01-.14.06-.06.19-.13.25.15-.23.3-.24.4-.09-.08.33.36,0,.46.19-.23.17-.43.3-.58.33,0,.18.1.07.11.24.16-.13.39-.36.59-.37l-.12.16c.17,0,.36-.22.46-.06.17.27.39.49.52.68l-.14.14c.41-.2.41.21.66.23.03.35.55.42.33.74.41.35.76.72.89,1.27l-.31.02c.24.01-.14.12-.06.19.18-.18.33.02.53.03-.14.3.17.53.44.71l-.2.05c.42.14.13.49.12.76-.08.04-.26.11-.23.19.34.11.32.2.54.41.02.17-.07.44-.21.6.45.65.05,1.27.16,1.97l-.24-.02c.3.77-.43,1.36-.48,1.95l-.33-.24c-.19.08-.1.38.17.5-.19.09-.07.49-.41.38-.16.1.02.29-.02.44-.34.2-.41.3-.58.61l.08-.05c-.04-.09-.17-.21-.24-.16,0,.18-.39.25.04.51-.45.05-.49.77-1.02.67.1.09.05.16.07.26-.26.22-.7.14-.8.47-.08-.03-.04-.24-.16-.18-.04.08.08.15.04.27-.36.47-1.07.24-1.48.44-.73.51-1.66.55-2.46.61v-.1c-.27.38-.62-.39-.86.16-.06-.09-.24-.07-.18-.25-.25.23-.56-.3-.92-.05.03.02.05,0,.09-.03-.26-.29-.6-.04-.86-.34.04-.03.11-.04.15-.13-.06-.22-.41.3-.32-.17-.07-.02-.13.21-.08.21-.61-.39-1.4-.46-2.11-.8-.28-.55.43-.66-.11-.63.03-.09-.13.13-.07.05-.22,0,.13-.56-.1-.44-.15.25-.16.08-.28.21-.12-.36.02-.58-.31-.6l.12-.09c-.5.08-.58-.31-1.11-.2-1.14-1.27-2.07-2.79-2.3-4.54-.09-1.71.04-3.52,1.06-4.97.55-.17.55-.18.63-.64.05.05.04.08.11.09-.27-.2.14-.27-.09-.48.42-.49.73-1,1.21-1.45-.05.1.1.32.17.23l-.05-.24.08.05c.03-.09,0-.28-.14-.3.54-.67,1.32-1.09,2.11-1.33.79-.26,1.6-.36,2.37-.54.39.06.91-.11,1.32-.2,1.26.41,2.14.94,3.33,1.07,0,0-.46.74-.92.79Z"/>
      <path class="cls-1" d="M63.92,30.81c-.03.17.04.29-.14.46.05-.14.07-.33.14-.46Z"/>
      <path class="cls-1" d="M65.24,33.83s-.03.07-.04.09c-.03-.01-.15.06-.11-.02.03.01.08-.04.15-.08Z"/>
      <path class="cls-1" d="M65.56,34.39c-.13.08-.3.04-.36-.01h.36Z"/>
      <path class="cls-1" d="M65.35,35.18c-.09.1-.15.12-.18.07.07-.04.11-.04.18-.07Z"/>
      <path class="cls-1" d="M65.66,35.06s-.04.1-.11.16c.11-.06-.11-.06.11-.16Z"/>
      <path class="cls-1" d="M65.71,36.31s.15.05,0,.11c.1-.06-.21-.08,0-.11Z"/>
      <path class="cls-1" d="M66.04,36.78s-.03.03.01.04c-.06.04-.17.03-.19,0l.18-.05Z"/>
      <polygon class="cls-1" points="60.02 43.5 60.1 43.44 60.07 43.58 60.02 43.5"/>
      <path class="cls-1" d="M56.01,41.03c-.11,0,.09-.12.1-.14.04.04-.16.08-.1.14Z"/>
      <polygon class="cls-1" points="54.33 38.74 54.33 38.76 54.04 38.8 54.33 38.74"/>
    </g>
  </g>
</svg>