<?xml version="1.0" encoding="UTF-8"?>
<svg id="Layer_3" data-name="Layer 3" xmlns="http://www.w3.org/2000/svg" viewBox="0 0 300 300">
  <defs>
    <style>
      .cls-1 {
        fill: #212121;
      }

      .cls-2 {
        fill: #f03220;
      }

      .cls-3 {
        fill: #42b649;
      }

      .cls-4 {
        fill: #fff27b;
      }

      .cls-5 {
        fill: #3c5fa2;
      }

      .cls-6 {
        fill: #45b649;
      }
    </style>
  </defs>
  <g>
    <path class="cls-3" d="M181.59,81.56s-26.51,1.51-35.3,2.54c-10.59,1.24-42.11,6.85-42.11,6.85-1.29.21-2.18-1.25-1.4-2.3,2.11-2.83,5.32-6.92,7.2-8.22,6.59-4.53,22.85-7.83,30.82-8.53,10.34-.92,41.34,3.87,41.34,3.87l-.54,5.79Z"/>
    <g>
      <path class="cls-1" d="M181.3,83.59c.61-.29-.39-.93.39-.45-.06.44-.16.78-.39.45Z"/>
      <path class="cls-1" d="M183.18,79.6c-1.44-1.25-1.17-2.53-.89-3.82l.03-.12-.16-.04c-1.06-.3-2.14-.6-3.26.07-.28.08.29-1.53-.35-1.24-2.45,1.87-5.62.11-8.02-1.92l.21-.41c-.46-.38-1.25.98-1.75.71.03-.29.22-.39.15-.8-.24.85-1.01.28-1.31.91-.17-.37-.06-1.06-.28-1.47l-.43.96c-1.13,2.26-2.02-.42-3.31.68.08-.22.22-.39.15-.63-2.01,1.22-4.27.7-6.38,1.03.12-.34.26-.98.18-1.39-.21,1.04-.87,1.25-1.44,1.4-.15-1.1-1.03.89-1.62.24l.08-.24c-.57,1.09-.65-.71-1.15.62l-.23-.88c-.33,1.51-.63-.85-1.08-.1v.32c-.41.34-.55-.44-.91-.21l-.02-.18c-.83.35-1.25-.53-1.3.66-.22-.97.81-.38.46-1.8-2.75,1.03-5.46.69-8.09.78-.32-.46-.52-.6-.61-1.05-.26.26-1,.26-1.19.9.09-.03-.23-.59-.38-.63-.54-.4-.39,1.36-.98.88.17-.34.2-.73.08-1.16-.35.97-.97.91-1.47,1.27.06-.21.17-.34.1-.71-.45,1.12-1.1-.07-1.52.66l.09-.71c-.95-.71-.03,1.46-.82,1.08.14-.24.04-.5.02-.78-.47,1.34-1.6,1.11-2.19,1.64.02-.1-.02-.28-.02-.28-.69.29-1.51.03-2.19.73-.34-.24-.23-1.67-.94-1.27.3,1.35-1.17.82-.41,2.26-.69-.09-1.81-.37-2.13.18.17-.58-.69-1.58-.18-1.81l-.59-.73c-.06-.57.46.09.18-.57-.26.11-.93.83-1.22.67-.31.95-.39,2.59-1.13,2.96.24-.62-.59-1.42-.39-1.72l-.44,2.86c-.24.13-.34-1.04-.62-.59.12.35,0,.61-.03.92-.14-.13-.97.64-1.47-.64-.26-.48.35-.4-.08-.78-.48.15-.37.61-.85.76l-.06-.17c-.38-.1-.76.85-.2,1.46.23-.03-.32-.76.11-.48.01.83-.46,1.21-.93,1.37.09-.26-.04-.6-.09-.99-.31,1.21-.85,1.76-1.37,2.42.21.61-.14-1.2.08-.91-1.21-.54-1.34,1.85-2.52.91.07-.15.41.83.33.66-.44.08-.78-.79-.9-.35-.24-.5-.26.31-.45.58.03.42-.18-.21.03-.37-.21.59-1.21,2-2.29,1.73.19.31.28,1.4.14,1.44l-.42-.74c-.19-.18-.35-.07-.41-.03-.08.05-.17.07-.4-.21.23.48.23.18.39-.21.16-.39.34-.83.31-.34-.53-.51.12,1.51-.42.49-.22.21.27,1.04-.54.7.16.04-.57-1.08-.76-.82-.3.5.16.41.04.93l.05.46c.58.59-.44.3.39.78-.55-.42-.26.91-1.25-.05l-.75-.79c-.12.26.56,1.09.79,1.56-.1-.04-.31-.13-.43-.25,1.23,1.11-.52.4.25,1.47-.81.06-.95,1.09-1.93.66.11.67.34,1.35-.26,1.54-.06-.18-.01-.32-.28-.56-.58-.04-.29.29-.25.68-.16-.2-1.16-.07-1.85-.14.12.66.93,1.07,1.34,1.44-.39-.16-.58-.14-.67-.02l-.03.05c-.59-.44-1.18-.88-1.78-1.33-.02-.01-.03-.02-.05-.04-.06-.03-.04-.03-.08-.04-.08-.02.03,0,.05-.02-.02.01-.1.02-.05.01.04,0,.07-.02.07-.02,0,0-.05.05-.06.07,0,0,0,0,0-.01-.01.02-.01.04,0-.03,0-.04-.02-.18-.02-.14h0s0-.02,0-.02h0s0,0,0,0h0s-.39-2.31-.39-2.31h0s0,0,0,0h0s.03-.04.04-.06c.03-.03.07-.04.1-.05.08-.02.16,0,.25-.01.16-.02.27-.14.12-.78,1.3.91,2.58-1.14,3.67,1.08.12-.25.56-.09.36-.75-.39-.68-.28.59-.46.11.14-.06.1-.43.09-.61.4.24.68.29.55,1.43.91.67.4-2.36,1.47-2.02.05.55.16.74.43.6l.38-1.02c.67.1.57,1.17.75,2.08.31-.22.73-.24.76-.95l.61,1.08c-.44-.78.18-.6.3-.85l-.12.25c.13.37.48.07.65-.08-.14-.56-.58-.72-.83-.85.1-.43.39-.38.53-.9.08.91.66.54.94.59.34.14.21-.87.3-.85.09.47.52,0,.39.68-.08.17-.32-.41-.42.03.26.31.38,1.13.7.46.24-.5-.39-1.76.31-1.29-.12.25-.09.61-.15.96l.64.37-.12-.82c.11.19.07.27.13.38.02-.89.81-.41.77-1.4.27-.13.69.46.98.51l-.04.08c.41.43.8.03.98-.57l.02.18c.19.03.6-.17.74-.69.56.54.68,3.06,1.01,1.95.46-.11.47-1.62.2-2.11.93.41,1.65-1.08,2.64.06.06-.35-.05-.55.17-.78,1.28.12,2.43-1.4,3.67.05-.3.4.11.82.2,1.29.17-.78.48.7.38-.57-.15-.74-.18-1.1-.58-1.34.67-.52,1.78-.7,2.3-.07-.26-.31-.14-.56-.01-.81.14,1.19.71,1.28,1.05.8l-.06-.73.39.7c.12-.26-.07-1.54.45-.91.07.27.13.55.24.75.33-.66.77-1.75,1.32-1.21l.54.99c.18-.15.41-.83.01-1.08.89.51,1.4.51,1.8,1.38,1-2.43,2.97-2.82,4.58-2.9l.03.55c.5.44.08-.98.44-.65-.06.53.49,1.07.25,1.75.69.48.65-1.05,1.02-1.35-.04-.72-.26.5-.31-.41.03-.26.93.43.88-.65.21.4.2,1.21.18,1.65l.3-.57c.63,1.19-.73,2.39-.03,3.87l.32-.22c.48,1.08-.72,1.4.18,1.66.3-.58.4-2.18,0-2.61.74-.4,0-2.62.87-2.64.32.6-.67.24-.38,1.11.51.81.74-.59,1.14-.33-.45-.36-.25-1.48-.02-1.71.5.45-.16,1.05.48,1.09.02-.63.54-1.17,0-1.54.06-1.44.7.31.92-.82.31.97-.38,2.36.36,2.78-.22-.95.71-1.39.19-2.77.3.25.41,1,.28,1.6.44.55.77-1.85,1.08.04l.03-.99c.15.31.34.53.59,1.04.33-.01.95-1.43,1.06.06.09-.16.86-.16.47-1.16-.53-.58-.48.8-.87-.56.44,1.1.67-.21.91-.61l.09.57c.14-.24.53-.14.57-.77-.1.34,0,.72.14.85l.09-.88c.62-.49.29,1.52.9,1.21l-.43.72c.09-.15.38.64.66.34.05-.81.2-1.78.25-2.4.33-.38.23.88.52.04l-.38.99c-.05.27.42,1.29.89,1.23.28-.3.67-1.49.15-1.88.24-.03.61.43.47,1.02.52-.32-.14-.85.29-1.38.23.51.89,1.22,1.31,1.97l-.39,1.37h.32c-.34,1.09.27.79.12,1.93.23.16.47-.24.66-.55-.78-1.75.54-2.51.23-4.14.86-.51.85,3.95,1.59,1.31-.18-.42.16-1.7-.36-1.18.57.14.26-1.67.96-1.04-.43.71.64,1.63.01,2.66,0-.55-.42-.39-.51-.22.27.61.07,1.65.64,1.61.33-.18.8-.25.67-1.1-.08-.94-.52.14-.37-.83.66-.38.88,1.05,1.04-.64-.42.16-.6-.8-.64-1.45l.48-.43-.05.63c.84.39.16-1.15.95-1.04l.45,1.21c-.11,1.07-1.17-.39-.91,1.33.51.04.62-.86,1.13-.44-.1.16-.24.21-.33.37.19.05.53,2.33,1.16.93.34-.55.06-.62.02-1.27.8-.25,1-.93,1.52-1.07-.02,1.27.94.06.44,1.39-.32-.72-1.49-.57-1.7.66.4,1.48-.65-.17-.73,1.36.66-.01.73,1.47.9,2.43.19.05.33-.36.43-.52.01-.92-.22-.89-.3-1.82.75.2,1.41-.36,1.75-1.27.27.43.26,1.35-.02,1.45.85-.33,1.78-.26,2.62-.04-.63-1.45.9-.41.45-1.62-.46-.3-.91-1.34-.71-2.02.28.08.03.65.17.96.3-.83.63,1.27.89-.04-.76.53-.04,1.82-.11,2.99.53-.69.03.83.59.79.53-.68,1.19-1.24,1.81-1.53.86,1.05,2.01-.11,2.72-.19.41.57.24,1.9.65,2.1.47-.06-.44-1.4.3-.84l-.05.27c.19-.32,1.34.81,1.43-1.09l-.13,1.44c.14.12.24-.21.34-.37.03.46.21.88.02,1.19.49.96.9-.21,1.36-.28l-.35-.82c.76-.71,1.35.09,2.11-.25l.03.83.43-.52c-.07.81.39,1.3.59.61l-1.08,2.09c-.36-.47.3-1.02.05-1.82-.22-.7-.93-.43-.99.37.28.08.28-.11.48-.42.16,1.14-.26,1.12-.42,1.9.14-.06.37.28.38-.08-.25.58-.53.68-1,.74.29-.47-.22-.7-.11-1.04.02,1.01-.41,1.35-1.01,1.1-.49-1.14-1.05.82-1.74.54.21-1.04.51-1.88.89-2.32-.45-.49-.47.06-.93-.43-.16.78-.23,1.96-.76,2.45l-.08-.75c-.48.41-.41,1.53-1.06,1.36-1.11-.3-2.24-.23-3.07-.27l-.08-.75c-.36,1.64-1.51.69-2.08,1.45-1.11-.66-2.25.87-2.88-.39-1.83.7-3.42,1.39-5.38,1.25l.25-1.12c-.29.83-.27-.61-.6-.43.45.85-.39,1.17-.58,1.86-.92-.79-1.96.22-2.66,1.05l-.09-.75c-.66,1.48-1.67.31-2.65.16-.14-.3-.37-1-.65-.89-.41,1.26-.69,1.2-1.38,2.02-.55.05-1.46-.17-2.07-.59-1.84,1.91-4.02,1.09-6.03,2.42l-.28-.86c-1.8,2.18-4.62.87-6.26,2.11l-.06-1.53c-.63-.37-1.21.6-.9,1.64-.63-.37-1.28.95-1.84-.22-.62-.19-.59.8-1.03,1.08-1.24-.38-1.65-.18-2.68.27l.28.05c.06-.35-.03-.99-.31-1.04-.34.48-1.55-.16-.86,1.56-1.33-.84-2.56,1.29-3.91.08.18.47-.09.61-.15.96-1.01.19-2.25-.62-2.92.34-.2-.22.12-.87-.31-.86-.21.23.1.64-.15.96-1.49,1.19-3.49-.37-4.95.12-2.5,1.4-5.35,1.41-7.87,2.01l-.03-.36c-.61,1.52-2.25-1.05-2.56,1.13-.06-.08-.16-.12-.25-.14l-.15-.03-.07-.02h-.04s-.14,0-.14,0c-.81.02-1.35-.13-.97-.48-.84.27-1.99.21-3.11-.3-1.12-.49-2.13-1.38-2.82-2.45-1.42-2.12-1.67-5-1.09-7.61-.23.42-.27.71-.26,1.29.26-.61.58-1.15.9-1.64.17-.24.34-.47.51-.69.06-.06.1-.09.14-.14.17-.19.28-.41.4-.64.24-.45.47-.92,1.1-1.14.05.19.02.42.29.67.81.09-.59-1.75.94-.85.14-.2-.58-.68-.64-.53,1.03-.76,1.74-1.81,2.46-2.99.36-.59.71-1.22,1.13-1.86.45-.66.86-1.29,1.69-2.08.38-.12.72-.19.95-.17.23.03.42.1.57.18.3.17.46.42.57.61.23.38.22.56.61-.45.29.22-.26-.63-.05-.33.35-.8,1.82,1.23,1.76.21-.66-.87-.03-.67-.31-1.25,1.45.02,2.03.89,2.56-.26l.16.55c.37-1.92,1.85-1.57,2.07-3.61,5.52-2.34,10.59-4.57,16.09-5.84,2.77-.33,5.45-.88,8.34-1.23.37-.04.72-.09,1.1-.12l1.22-.06,1.22-.04c.4,0,.75.02,1.12.03.73.04,1.49.08,2.21.17.71.1,1.41.22,2.12.37,1.26,1.54,1.32,1.53,2.79,1.01-.07.24-.17.29-.09.52.15-1.21,1.01-.05,1.23-1.21,2.01.39,3.9.21,5.96.4-.34.1-.6,1.08-.2,1.04l.48-.74.03.34c.28-.15.63-.73.4-1.14,5.3-.53,10.04,2.52,15.05,2.89,1.11.66,2.86.43,4.18.36,1.71,1.03,3.32,1.97,5.01,2.64l5.54,2.18-1.15,3.45c-.62,1.85-.87,3.73-.46,5.8,0,0-3.1-.8-3.68-2.45Z"/>
      <path class="cls-1" d="M180.55,83.76c-.17-.6-.63-.91-.33-1.75.08.57.34,1.2.33,1.75Z"/>
      <path class="cls-1" d="M168.38,78.21c0,.18-.18-.24-.23-.34.14-.05.25-.58.38-.27-.14.06-.1.34-.15.6Z"/>
      <path class="cls-1" d="M165.34,78.04c0-.55.63-1.02,1-1.11l-1,1.11Z"/>
      <path class="cls-1" d="M162.37,75.99c-.28-.44-.23-.7.1-.71.04.29-.05.44-.1.71Z"/>
      <path class="cls-1" d="M162.26,77.24c-.23.03-.37-.28-.51-.59.04.46.52-.33.51.59Z"/>
      <path class="cls-1" d="M156.02,76.11c-.14.05-.43.53-.61-.06.19.41.67-.74.61.06Z"/>
      <path class="cls-1" d="M153.22,77.15c-.1-.03-.14-.13-.24.04-.19-.23-.04-.65.1-.71l.14.67Z"/>
      <polygon class="cls-1" points="103.98 89.49 103.95 89.52 103.96 89.51 103.98 89.49"/>
      <path class="cls-1" d="M120.06,80.33c.17-.41.35.42.42.49-.23.13-.12-.67-.42-.49Z"/>
      <polygon class="cls-1" points="130.87 74.76 130.78 74.79 130.59 73.7 130.87 74.76"/>
    </g>
  </g>
  <g>
    <path class="cls-3" d="M185.81,72.95l-.55,5.82s25.77,6.41,34.21,9.05c10.18,3.19,40.1,14.56,40.1,14.56,1.23.45,2.38-.83,1.8-2-1.54-3.17-3.94-7.79-5.55-9.41-5.63-5.67-21-11.94-28.69-14.11-9.99-2.82-41.34-3.87-41.34-3.87"/>
    <g>
      <path class="cls-1" d="M187.45,73.41c-.16-.5-.82.23-.32-.34.36.11.63.2.32.34Z"/>
      <path class="cls-1" d="M187.86,74.22c2.13-2.29,4.7.23,7-1.16.27-.09-.14,1.29.47,1.01,2.25-1.72,5.6-.42,8.12,1.18l-.18.35c.48.3,1.17-.87,1.69-.66-.01.24-.19.33-.1.67.19-.72.98-.27,1.24-.8.19.3.12.88.37,1.22l.37-.81c1-1.91,2.03.3,3.26-.62-.07.19-.2.33-.12.52,1.95-1.04,4.24-.59,6.34-.81-.12.28-.25.81-.17,1.15.2-.87.86-1.01,1.44-1.11.14.93,1.05-.7,1.64-.13l-.08.19c.61-.88.64.63,1.18-.44l.21.75c.4-1.23.6.76,1.09.18l.03-.26c.42-.25.52.41.9.25v.15c.88-.19,1.22.6,1.38-.38.14.83-.85.21-.61,1.43,1.41-.29,2.8-.18,4.17.1,1.35.31,2.65.77,3.93,1.21.16.48.31.66.25,1.03.32-.11,1.01.17,1.42-.23-.09-.01,0,.54.11.63.33.52.88-.84,1.24-.24-.29.17-.48.45-.54.82.7-.56,1.23-.22,1.83-.26-.14.13-.3.17-.39.47.88-.61.94.57,1.63.25l-.4.46c.51.96.68-1.02,1.2-.36-.23.1-.26.33-.38.54,1.03-.72,1.9.04,2.67-.02-.07.06-.12.2-.12.2.74.17,1.3.79,2.23.71.16.36-.67,1.23.12,1.36.46-1.06,1.4.14,1.54-1.24.53.46,1.3,1.31,1.87,1.17-.46.26-.34,1.41-.88,1.25l.06.81c-.27.39-.31-.33-.46.26.26.08,1.18.03,1.32.31.77-.4,1.8-1.33,2.62-1.06-.56.21-.41,1.22-.74,1.27.69-.47,1.39-.92,2.1-1.36.27.1-.4.82.1.76.13-.28.38-.35.62-.5.03.16,1.18.35.68,1.39-.13.45-.51-.04-.46.47.44.26.67-.05,1.12.21l-.07.13c.2.32,1.12.14,1.15-.59-.19-.16-.3.62-.42.15.57-.43,1.19-.21,1.64.09-.26.04-.41.31-.66.53.55-.16,1.03-.19,1.48-.15.45.06.88.19,1.33.31.35-.41-.86.57-.78.27.17.58.67.7,1.17.9.5.19,1.02.36,1.18.85.04.13.07.27.06.43-.19-.07.49-.6.39-.48.43.57-.25,1.01.23,1.13-.34.31.39.27.72.5.38-.04-.12.21-.35-.02.64.18,2.3,1.47,2.24,2.74.25-.17,1.3.03,1.39.26l-.67.26c-.26.4.45.69-.06,1.02,1.01.04-1.61-1.4-.69-1.11-.43.45,1.47.31.55.65.26.42,1.19.46.82,1.18.04-.17-1.05.11-.83.43.43.55.39.01.86.4l.42.18c.63-.29.2.59.77.01-.47.33.77.74-.29,1.19l-.85.32c.19.23,1.07,0,1.53.04-.06.07-.19.22-.32.27.63-.28.68-.11.72.11.02.11.03.23.11.33.17.32.4.58.73.82.08,1.12-.07,2.58-.69,3.61-.59,1.04-1.53,1.6-2.11,1.46-.48.55-1.14,1.03-1.95,1.24-.41.1-.83.13-1.26.07-.22-.02-.42-.09-.63-.16-.1-.04-.22-.09-.29-.13-.03-.02-.06-.05-.08-.08.02-.12.68.05.8-.24-.11-.08-.22-.15-.31-.21-.09-.06-.19-.11-.19-.12-.05-.04-.11-.05-.17-.03-.12.03-.27.13-.45.18.14-.17-.34-.99-.51-1.58-.58.22-.69.98-.9,1.39.09-1.43-1.53.36-1.59-.98.22-.12.87-.39.63-.85.08-1.42-1.15.64-1.56-.21l-.24,1.12c-.04-.76-1.17.26-.7-.8-.36.3-.62-.63-.94.43-.72-1.27-2.75-.43-2.7-2.52-.21.12-.52-.2-.65.36.03.67.5-.28.45.15-.15-.02-.28.25-.35.39-.24-.36-.47-.53.16-1.27-.49-.91-1.41,1.48-2.18.73.2-.41.19-.6-.1-.63l-.79.54c-.53-.39.02-1.1.28-1.83-.37,0-.74-.18-1.09.31l-.05-1.06c.04.77-.43.34-.64.46l.22-.12c.05-.33-.39-.28-.61-.25-.12.47.19.79.34.99-.28.26-.51.09-.86.39.34-.69-.33-.7-.56-.87-.23-.26-.57.52-.64.46.13-.37-.45-.24-.03-.67.14-.08.09.44.38.18-.09-.35.17-.98-.4-.66-.43.24-.44,1.43-.85.77.22-.12.35-.4.56-.61l-.4-.57-.26.64c-.01-.19.06-.23.06-.33-.41.62-.89-.09-1.3.63-.29-.03-.4-.66-.63-.83l.07-.04c-.17-.5-.68-.4-1.11-.06l.07-.14c-.15-.11-.6-.16-.95.14-.25-.65.75-2.5-.03-1.86-.45-.14-1.13.94-1.1,1.42-.63-.73-1.91,0-2.28-1.27-.21.22-.2.41-.49.48-1.07-.68-2.73-.12-3.19-1.73.44-.15.26-.64.38-1.02-.49.48-.12-.73-.58.24-.18.6-.31.87-.07,1.23-.81.07-1.86-.31-2.05-1,.09.34-.12.47-.33.59.38-.92-.08-1.24-.58-1.05l-.26.55-.04-.68c-.21.13-.59,1.14-.78.46.06-.23.12-.46.1-.65-.57.32-1.41.92-1.67.29l-.06-.96c-.22.03-.7.42-.46.78-.56-.76-1.02-.99-1-1.8-1.88,1.33-3.72.79-5.12.21l.18-.42c-.26-.53-.44.7-.62.32.25-.38-.02-.99.44-1.41-.42-.63-.95.53-1.37.62-.22.56.4-.28.11.43-.12.19-.64-.68-.99.17-.04-.38.25-.99.43-1.32l-.47.32c-.14-1.14,1.51-1.53,1.42-2.91l-.37.04c-.05-1,1.17-.78.43-1.32-.48.32-1.15,1.5-.95,1.97-.81.03-.94,1.97-1.7,1.67-.07-.57.66.06.72-.7-.17-.81-.86.18-1.12-.16.28.43-.28,1.22-.57,1.32-.29-.52.49-.75-.05-1-.24.48-.86.71-.51,1.18-.52,1.08-.51-.48-1.06.32.03-.85,1.1-1.69.58-2.27-.11.8-1.07.84-1.05,2.07-.19-.29-.05-.91.27-1.33-.22-.57-1.24,1.18-.94-.39l-.34.76c-.04-.29-.15-.52-.21-1-.31-.1-1.29.8-.94-.39-.13.1-.83-.15-.78.75.31.62.67-.47.62.72-.07-1-.67-.05-1.01.18l.08-.47c-.2.14-.53-.05-.75.42.19-.23.21-.56.12-.71l-.35.66c-.71.18.18-1.28-.47-1.23l.6-.42c-.13.09-.16-.62-.51-.48-.28.61-.7,1.33-.93,1.8-.42.19.04-.76-.47-.19l.64-.66c.12-.19-.02-1.14-.48-1.24-.35.15-1.05.95-.68,1.43-.23-.05-.45-.53-.14-.95-.58.08-.11.71-.67.99-.07-.48-.48-1.24-.66-1.95l.75-.95-.31-.09c.63-.76-.03-.71.43-1.56-.17-.2-.51.04-.78.23.24,1.62-1.22,1.81-1.38,3.18-.94.14.31-3.37-1.12-1.52.06.38-.63,1.28,0,1.04-.49-.28-.71,1.24-1.19.53.6-.43-.15-1.48.73-2.09-.16.43.29.43.42.33-.09-.56.39-1.32-.15-1.46-.36.04-.83-.05-.94.66-.18.76.53.05.12.76-.73.09-.54-1.09-1.16.19.44,0,.35.81.2,1.33l-.57.19.22-.48c-.68-.56-.47.86-1.18.53l-.1-1.09c.4-.81,1,.66,1.22-.77-.47-.18-.82.49-1.19,0,.13-.09.28-.09.42-.19-.16-.09.14-1.99-.84-1.09-.47.33-.22.47-.37,1-.83-.04-1.2.43-1.73.38.37-1-.87-.33-.04-1.23.1.66,1.26.9,1.79,0,.02-1.28.57.33,1.06-.85-.62-.19-.29-1.38-.19-2.18-.16-.1-.42.19-.55.28-.26.72-.03.76-.21,1.53-.65-.38-1.44-.14-2.01.47-.14-.42.12-1.14.42-1.14-.89,0-1.77-.33-2.51-.75.21,1.33-.96.06-.86,1.14.36.38.51,1.33.14,1.81-.25-.15.14-.52.1-.81-.51.57-.26-1.19-.86-.24.86-.19.52-1.43.9-2.33-.69.39.19-.66-.35-.8-.72.37-1.34.66-2.36.62-.38-.57-.98-.73-1.68-.78-.69-.05-1.49-.01-1.99-.12-.12-.54,1.02-1.38.72-1.65-.55-.12-.55,1.08-.96.46l.26-.16c-.23.07-.45-.17-.79-.28-.35-.11-.85-.08-1.82.49.51-.28,1.01-.57,1.5-.85-.03-.11-.4.04-.66.11-.02,0-.02,0-.03,0,.38-.28.73-.65,1-.68.03-.02.07-.03.11-.05l.03-.06c.78-.93-.13-.74-.12-1.24l-.78.75c-.25-.3-.17-.74-.06-1.16.11-.43.27-.84.18-1.26l.71-.18c-.13-.12-.25-.26-.38-.4.67-.05,1.15-.56.61-.71.53.33,1.08.57,1.63.71-.45.43-.83-.05-1.55.34-.63.36-.51,1.13.17.92.11-.31-.05-.25-.29-.37,1.01-.45.93-.04,1.58-.17-.03-.1.29-.39-.02-.29.47.04.53.2.52.54-.37-.04-.64.47-.92.53.89-.43,1.14-.29.84.3-.21.2-.32.34-.35.43.22.17,1.57-.52,1.71-.26-.91.65-1.85,1.12-2.59,1.3-.02.44.46.09.48.54.76-.47,1.72-1.23,2.4-1.46l-.45.54c.64-.17,1.24-.98,1.53-.73.26.22.6.39.94.53.18.07.35.13.51.19.23.08.44.15.64.21l-.12.62c.78-1.19,1.62-.1,2.38-.53.88.85,2.39-.01,2.65,1.17,1.94,0,3.65-.05,5.48.66l-.55.81c.51-.56.09.57.45.52-.2-.81.7-.8,1.07-1.28.66.91,1.93.44,2.84.01l-.13.62c1.05-.95,1.69.29,2.58.73.04.28.06.9.36.9.77-.85,1.02-.71,1.93-1.12.55.14,1.37.63,1.82,1.16,2.43-.82,4.28.64,6.69.46l-.06.76c1.29-.45,2.47-.09,3.58.33,1.09.43,2.11.94,3.11.86l-.58,1.14c.41.56,1.35.12,1.5-.78.42.56,1.57-.11,1.57,1,.48.42.87-.31,1.39-.31.95.85,1.4.89,2.52,1.04l-.23-.17c-.21.22-.4.72-.17.89.51-.19,1.31.83,1.44-.73.82,1.22,2.84.27,3.52,1.77.05-.42.35-.4.56-.62.98.34,1.71,1.5,2.73,1.13.08.25-.49.57-.11.75.29-.06.19-.5.56-.62,1.84-.15,2.91,1.92,4.41,2.26,2.82.2,5.33,1.56,7.81,2.35l-.13.27c1.22-.78,1.49,1.83,2.76.44.09.34.69.4.34.9.94-.52,1.54,1.4,2.85.79-.08-.06-.15-.02-.29.07.35.49.82.6,1.3.71.24.05.48.1.71.2.12.05.23.11.34.19.05.04.1.08.14.12l.07.07.03.04.02.02h0s0,0,0,0h0c.22-.6-1.94,5.21-1.02,2.75h0s0,0,0,0h0s0,0,0,0h0s1.01-2.72,1.01-2.72h0s0,0,0,0h-.03s-.06.04-.06.04c-.04.02-.08.04-.12.06-.08.05-.17.13-.24.26.02.08.05.13.1.16.02.01.05.02.08.02h.04s.02,0,.02,0h0s0,0,0,0h0c-.36.97.81-2.17-.81,2.18h0s0,0,0,0h0s-.05.13-.05.14c0,.08,0,.05,0,.05-.01-.03,0-.03,0,0,0-.04-.05-.09-.04-.08,0,0,.08.04.09.04,0,0,0,0-.06.01,0,0-.06.02-.1.03l-2.55,1.22-.06-.09c-.16-.25-.33-.49-.5-.73-.7-.96-1.52-1.86-2.21-2.78-.01-1.84,2.11-1.28.53-1.87.19-.23-.52.21-.27.05-.59-.22,1.02-1.49.19-1.39-.7.58-.54.07-1.01.35.01-1.08.55-1.73-.38-1.85l.41-.25c-.59.06-.9.03-1.11.03-.54-.15-.94-.42-1.85.06-1.74-1.24-3.96-2.28-6.19-3.2-2.25-.93-4.58-1.77-6.89-2.7-2.2-1.13-4.52-1.97-6.83-2.79-1.14-.41-2.29-.83-3.44-1.24-.56-.22-1.11-.44-1.67-.66-.51-.22-1.03-.44-1.55-.66-.68-1.46-.86-1.43-2.16-1.16.08-.19.17-.22.12-.42-.24.99-.88-.07-1.16.88-.9-.23-1.78-.34-2.67-.42-.91-.07-1.83-.11-2.79-.22.32-.07.57-.88.2-.86l-.46.6-.03-.29c-.27.12-.6.59-.37.94-4.95.34-9.68-2.07-14.61-2.14-1.14-.5-2.82-.21-4.1-.07-3.67-1.57-7.05-2.83-10.89-2.01,0,0,.58-2.62,2.2-3.16Z"/>
      <path class="cls-1" d="M187.5,73.97c-.52.12-.84.57-1.51.33.49-.1,1.05-.33,1.51-.33Z"/>
      <path class="cls-1" d="M191.32,83.86c.05-.14.11.24.13.33-.15,0-.39.38-.43.1.15,0,.19-.24.31-.43Z"/>
      <path class="cls-1" d="M194.17,84.9c-.16.43-.87.62-1.25.58l1.25-.58Z"/>
      <path class="cls-1" d="M196.42,87.4c.14.43.02.62-.29.53.04-.24.17-.33.29-.53Z"/>
      <path class="cls-1" d="M196.87,86.45c.23.05.27.34.32.61.09-.38-.58.1-.32-.61Z"/>
      <path class="cls-1" d="M202.42,89.25c.15,0,.55-.28.56.24-.06-.38-.83.38-.56-.24Z"/>
      <path class="cls-1" d="M205.32,89.31c.08.05.1.14.23.05.11.24-.15.52-.29.52l.06-.57Z"/>
      <polygon class="cls-1" points="254.31 104.03 253.95 104.13 254.15 103.73 254.31 104.03"/>
      <path class="cls-1" d="M254.84,85.75c-.44.04.05-.48.05-.57.28.14-.41.39-.05.57Z"/>
      <polygon class="cls-1" points="242.7 81.56 242.79 81.58 242.37 82.41 242.7 81.56"/>
    </g>
  </g>
  <g>
    <path class="cls-5" d="M181.37,85.87c-50.64-1.03-75.79,32.11-75.79,32.11-22.46,32.8-20.36,58.49-20.36,58.49,0,0,71.74,12.41,95.68,16.41,83.69,13.95,84.26,7.9,84.26,7.9,0,0,.15-48.89-6.27-63.49-3.07-6.98-15.85-50.16-77.53-51.41Z"/>
    <g>
      <path class="cls-1" d="M180.17,87.89c1.79-.25-.95-.95,1.17-.43-.25.44-.6.77-1.17.43Z"/>
      <path class="cls-1" d="M187.29,87.54c1.48-.58,3.08-.8,4.73-.81,1.64.03,3.33.32,5.03.61,1.69.34,3.38.78,5.06,1.05,1.67.35,3.33.58,5.01.52.75.09-.59,1.45,1.12,1.56.81-.05,1.67-.03,2.56.05.89.09,1.79.3,2.72.53,1.87.43,3.75,1.27,5.64,2.16,3.72,1.93,7.17,4.68,9.79,7.4l-.61.12c.96,1.05,3.24.76,4.31,1.86-.16.24-.63.05-.59.58.83-.48,2.4,1.28,3.28,1.21.24.65-.25,1.14.08,1.92l1.31-.21c1.65-.08,2.77.91,3.73,2.17,1.01,1.23,1.88,2.68,3.45,3.49-.28.04-.64-.08-.63.26,2.27,1.5,4.38,3.67,6.28,6.1,1.89,2.44,3.56,5.14,5.18,7.67-.43-.05-1.1.06-1.29.55,1.07-.24,2.16,1.29,3.02,2.67-.67,1.09,2.05,2.11,2.21,4.11l-.28-.06c1.58.86.16,2.16,1.84,2.68l-.47,1.1c.81-.03.81.57.74,1.23-.07.66-.22,1.39.35,1.83l.29-.13c.69.96.06,1.73.57,2.64l-.15.14c.25.55.41,1.06.51,1.51.07.46.13.84.18,1.15.11.62.25.93.83.79-.78,1-.86-2.16-1.98-.6,2.72,7.32,3.25,15.35,3.83,23.05-.41.91-.53,1.48-.96,1.71.29.75.4,2.89,1.05,3.56-.04-.26-.58.53-.61.94-.38,1.43,1.39,1.47.93,3.04-.35-.6-.74-.79-1.18-.56,1,1.27.93,3.04,1.29,4.59-.21-.23-.34-.61-.72-.53,1.12,1.66-.1,3.11.61,4.58l-.71-.54c-.77,2.43,1.46.66,1.03,2.76-.23-.49-.5-.31-.78-.39.66.95.9,2.22,1.03,3.48.05.63.11,1.27.16,1.86.02.3.05.59.09.86.04.29.08.6.14.88-.1-.14-.28-.12-.28-.12.1,1.19.05,2.38.03,3.59,0,.61,0,1.23-.02,1.83,0,.32,0,.63.01.95-.01.31.09.68-.17.92-.5.15-.75-.19-1.1-.38-.18-.1-.38-.18-.69-.21-.15-.01-.31,0-.49.04-.19.03-.4.07-.64.15,1.09,1.28-3.6,1.03-1.45,2.35-1.22-.03-2.75-.1-4.1-.19-1.27-.1-2.28-.12-2.96.11.87-.52-.9-1.69.69-1.81-.39-.28-.78-.56-1.17-.86.19-.55,1.21.22.85-.5-.78.05-3.09.49-3.79.24-1.49.81-2.94,2.25-5.35,2.28,1.16-.46-.53-1.56.25-1.75-1.17.82-2.35,1.61-3.53,2.38-.8,0-.08-1.1-1.26-.85.03.37-.49.55-.87.81-.28-.19-3.34.06-3.54-1.35-.29-.57,1.32-.15.49-.72-1.46-.15-1.57.31-3.03.17v-.18c-.95-.31-2.91.27-1.94,1.13.67.12-.16-.84.78-.34-.76.71-2.49.74-3.95.6.52-.16.51-.53.75-.89-2.09.84-4.2.9-6.45,1.07-.11.64.96-1.07,1.24-.69-2.69-1.24-5.96.54-8.11-1.1.4-.06.08.94.08.76-1.34-.27-1.15-1.19-2.07-.97-.01-.56-1.13.02-2.05.06-.52.33-.2-.3.6-.25-1.32.3-6.49.43-9.27-.83,0,.37-1.98,1.05-2.64.91l.39-.8c-.53-.6-2.25-.27-2.25-1-1.58.81,5.62-.04,3.57.46-.39-.78-2.89.93-2.3-.15-1.35-.17-2.79.58-3.95-.41.35.19,1.27-1,.18-1.11-1.93-.14-.61.32-2.19.36l-1.02.19c-.19.81-1.68-.39-1.12.65-.13-.71-2.83-.03-2.42-1.36l.43-1.03c-.83-.05-1.52.91-2.25,1.28-.09-.12-.27-.37-.2-.53-.4,1.62-1.94-.45-3.12.65-1.63-.85-4.38-.76-5.01-1.92-1.4.27-2.71.65-4.15.04.33-.1.75-.08.89-.42-.86-.64-1.17-.25-2.08-.14.23-.21-1.73-1.28-2.68-2.04-1.39.26-1.09,1.22-1.31,1.74-.93-1.82-3.88.41-5.13-1.32.49-.15,2.05-.46,1.02-1.06-.93-1.82-2.62.78-4.42-.33l.25,1.42c-.72-.98-2.98.29-2.55-1.04-.73.37-2.2-.83-2.21.51-2.99-1.65-7.83-.66-9.39-3.33-.49.14-1.59-.28-1.47.43.63.86,1.14-.34,1.34.21-.41-.03-.56.31-.64.48-.94-.47-1.7-.7-.58-1.62-2.06-1.19-2.64,1.83-5.35.84.22-.52.04-.76-.79-.82l-1.71.66c-1.77-.52-.82-1.4-.71-2.33-.99,0-2.17-.26-2.72.35l-.98-1.35c.71.98-.89.42-1.38.56l.49-.15c-.11-.42-1.27-.37-1.85-.35.04.59,1.14,1.01,1.73,1.29-.56.32-1.31.09-2.05.45.37-.86-1.47-.91-2.22-1.13-.85-.35-1.13.64-1.38.56.06-.47-1.42-.32-.63-.86.33-.1.61.57,1.18.25-.52-.45-.32-1.25-1.62-.86-.98.29-.07,1.81-1.69.95.49-.15.64-.49,1.04-.75l-1.53-.74-.21.81c-.18-.24-.02-.29-.1-.42-.63.78-2.51-.16-3.04.75-.83-.06-1.62-.86-2.38-1.09l.16-.05c-.87-.64-2.18-.54-3.07-.13l.07-.17c-.51-.15-1.75-.23-2.49.14-1.21-.84.09-3.16-1.54-2.38-1.33-.2-2.34,1.14-1.89,1.76-2.29-.96-5.23-.09-7.23-1.74-.4.27-.22.52-.96.59-3.45-.92-7.57-.3-10.09-2.39,1.08-.17.21-.81.27-1.28-.25.15-.41.16-.56.12-.19-.05-.33-.16-.45-.24-.23-.17-.37-.25-.75.33-.04.37-.11.64,0,.89.06.12.17.24.36.36.1.06.21.12.35.19.07.03.15.06.23.1.05.03.11.06.16.09-.08,0-.12,0-.22,0l-.34-.02c-.23-.02-.47-.04-.71-.06-.49-.05-.99-.11-1.5-.17-1.02-.13-2.08-.29-3.07-.48-1.85-.47-3.38-1.05-3.94-1.53.56.49-.29.52-1.22.52.33-.22.44-.43.4-.62-.01-.05-.03-.09-.06-.14l-.05-.07s.03-.1.04-.15c.05-.21.08-.43.11-.64.09-.88-.01-1.83-.25-2.61l-.73.12c.22-.53.47-1.06.71-1.55-.22-.57-1.58-.21-.83-2.37.29-.17.58-.34.81-.72-.24-.89-.6-2.06-.75-3.33-.05-.67-.1-1.01-.07-1.41.03-.4.12-.77.31-1.11.39-.35.8-.68,1.21-1.01-.03-.6-.51-1.71-.97-.7.97-2.31,1.38-3.79,2.42-4.35-1.4-4.45.04-10.43,1.86-14.86l.47.31c.89-1.04-.68-.95-.04-1.68.34.56,1.4-.52,1.65.64,1.19-1.49-.03-2.51.17-3.72-.6-.43.08,1.06-.69.51-.16-.29,1.45-2.15.55-2.84.56-.27,1.17.38,1.48.78-.03-.42-.04-.82-.04-1.23.86-.37,1.05.56,1.31,1.49.28.94.6,1.87,1.57,1.52l.21-.99c1.39-.43.22,2.93,1.49.77-.06-1.18-1.11-2.67-1.95-1.97.66-2.2-1.93-2.01-.82-4.25.86-.35-.68,1.89.33,1.82,1.28-.7.51-2.35,1.24-3.16-.87.86-1.45-.5-1.27-1.25,1.04-.91.55,1.18,1.46-.36-.43-.54-.08-2.23-1.13-1.15-.96-1.23,1.21-1.5.69-2.89,1.15-.05,1.2,2.73,2.54,1.21-1.01-.18-.02-2.78-1.76-2.54.64-.55,1.34-.25,1.57.53,1.06-.66-.18-3.19,1.66-2.56l-.66-.82c.45-.14.91-.45,1.65-.67.25-.42.35-1.27.56-1.91.23-.62.54-1.04,1.14-.61.04-.34,1.3-2.17-.03-2-1.28.83-.23,1.73-1.83,1.65,1.49-.23.96-1.76,1.09-2.64l.55.2c.07-.52.78-1.38.42-1.98.07.49.5.55.83.3l-.45-.91c.35-.95.72-.81,1.15-.72.21.05.4.15.66.01.13-.07.29-.17.46-.34.08-.08.19-.2.26-.29.07-.08.14-.18.21-.29l-.13.42-.23.56c-.17.4-.22.72-.25.97.01-.08.08-.15.21-.25.14-.1.31-.23.51-.36.46-.34.81-.55,1.02-1.01-.37-.8-.62-1.97-.86-2.63.51-1.1,1.01.23,1.17-1.16l-.28,1.73c.05.34,1.63.14,2.62-.91.44-.86.68-2.71-.69-1.96.52-.54,1.6-.93,1.59-.1,1.01-1.36-.76-.46-.06-1.82.8-.04,2.66-.73,3.98-.87-.08.65-.14,1.32-.2,1.97l.72-.65c-.21,1.63,1.01.19,1.24,1.49.6-.29.94-1.1,1.22-1.73-2.64-.11.05-3.28-1.41-4.18,1.85-2.07,3.78,2.06,4.42-1.66-.63-.07-.32-1.87-1.39-.46,1.46-.85-.08-2.03,1.95-2.65-.8,1.4,2.25.45,1.1,2.46-.21-.53-1.19.36-1.35.68.92.1.87,1.4,2.22.41.74-.72,1.86-1.55,1.21-2.14-.57-.75-1.23.99-1.24-.17,1.51-1.47,2.61-.43,2.4-2.31-1.02.83-1.84.21-2.18-.33l1.07-1.19.09.69c2.31-.99,0-1.36,2.13-2.51l1.6.46c.07,1.2-3.21,1.44-1.91,2.68,1.34-.75,1.3-1.79,2.79-2.15-.21.29-.56.55-.75.86.5-.26,2.15,1.46,3.34-.79.72-1.01-.04-.69-.34-1.27,2.08-1.35,2.42-2.31,3.82-3.11.28,1.28,2.58-1.15,1.58.8-.52-.15-1.58.19-2.54.75-.94.59-1.76,1.41-1.85,2.14,1.5.87-1.78.76-1.46,2.35,1.7-.95,2.34.38,3.08,1.09.49-.19.75-.79.95-1.08-.24-.91-.84-.57-1.33-1.37,2-.84,3.64-2.18,4.33-3.52.86.11,1.03,1.01.3,1.47,1.1-.67,2.3-1.25,3.5-1.77,1.23-.47,2.45-.89,3.63-1.21-2.02-.83,2.43-1.28.98-2.06-1.35.15-2.82-.43-2.37-1.31.82-.21.21.62.66.79.71-1.14,2,.64,2.54-.93-2.08,1.29.19,1.86.18,3.11,1.35-1.2.21.79,1.77.24,1.36-1.14,3.16-2.29,4.9-3.03,1.28.18,2.7-.18,4.08-.66,1.37-.51,2.71-1.06,3.73-1.29,1.19.35.72,1.8,1.91,1.78,1.34-.28-1.27-1.23.85-.98l-.15.29c.57-.39,3.81.24,4.15-1.67l-.42,1.49c.39.08.7-.29.99-.48.08.46.57.82,0,1.2,1.36.83,2.56-.51,3.91-.66-.32-.25-.64-.52-.96-.76,1.13-.45,2.11-.47,3.08-.47.97,0,1.93.06,3.05-.12l-.03.83,1.31-.55c-.29.81.94,1.28,1.62.58l-3.35,2.17c-.98-.45.98-1.04.35-1.83-.55-.71-2.62-.34-2.89.5.79.03.82-.16,1.41-.51.33,1.13-.86,1.18-1.38,1.99.4-.08,1.01.22,1.07-.15-.76.63-1.55.78-2.87.92.86-.52-.56-.67-.25-1.02-.01,1-1.23,1.45-2.89,1.38-.65-.5-1.41-.24-2.21.19-.81.43-1.67.98-2.63.98.57-1.14,1.42-2.11,2.52-2.71-1.28-.31-1.33.25-2.62-.06-.45.86-.66,2.05-2.08,2.84l-.23-.72c-1.31.68-1.08,1.74-2.85,1.94-3.05.36-6.1,1.21-8.34,1.89l-.32-.69c-.73,1.92-3.91,2-5.26,3.34-3.06.43-5.57,3.26-7.5,2.79-4.44,2.9-7.98,5.78-12.51,8.72l.09-1.42c-.32,1.22-.89-.14-1.57.57,1.41.05-.39,1.7-.49,2.65-2.43.8-4.2,3.55-5.18,5.54l-.58-.5c-.56,2.48-3.2,3.37-5.05,5.2-.2,0-.54,0-.83.04-.28,0-.52.09-.72.48.21,1.92-.28,2.52-.8,4.73-.89,1.29-2.4,3.33-3.61,4.47-.79,2.95-1.92,5.67-3.23,8.35-1.16,2.74-2.47,5.46-3.04,8.46l-.99.09c-.13,1.53-.37,3.07-.76,4.59-.42,1.51-.86,3.04-1.32,4.53-.95,2.97-1.76,5.9-1.73,8.39l-1.4-.74c-.8,1.45-.16,3.57.94,3.33-.36.72-.3,1.7-.3,2.58,0,.22-.01.44-.03.64-.01.13-.04.22-.08.28-.08.12-.25.24-.57.37-.34.73.67.62.87.86-.15.3-.25.59-.31.84-.01.06-.03.13-.03.18l.11.05c.08.03.16.05.25.07.36.06.8.03,1.31-.02l-.18-.13c-.26.29-.66.88-.37,1.03.17-.08.34-.08.52-.06l.27.04c.12.01.25.02.36.03.79.06,1.32-.1.9-1.09,3.15,1.6,7.91.49,10.91,2.44-.19-.54.64-.49,1.04-.76,2.92.48,5.82,2,8.29,1.57.42.32-.88.7.3.96.74-.06.13-.63,1.04-.76,4.89-.1,9.42,2.58,13.76,3.08,7.81.37,15.7,2.21,23.06,3.31l-.14.34c2.68-.95,5.52,2.39,7.83.66.52.44,2.19.54,1.64,1.16,2.12-.63,5.32,1.85,8.35,1.11-.25-.08-.41-.03-.74.07,2.72,1.28,5.42.63,8.31,1.86-.33.1-.91.12-1.05.46,1.05.89,3.01-1.04,3.36.8.67.1.62-.79.2-.81,6.48,1.75,13.68,1.82,20.59,2.46,4.75,1.78-.14,2.97,3.93,2.26.27.38.33-.63.33-.26,1.57-.26,2.05,2.29,3.23,1.54-.27-1.13.78-.49.91-1.13,2.9,1.11,3.37,2.16,5.86,1.68l-.26.54c3-1.2,6.11.11,8.69-1.44,7.67.83,15.2,1.31,22.57,1.57,3.66.09,7.34.17,10.75,0,.31-.01.24-.03.28-.05l.06-.05s.06-.06.09-.09c.02-.03.04-.05.04-.09l-.05-.11s.04-.04.05-.06v-.02s.01,0,.01,0h0s0,0,0-.08v-1.38c-.04-1.84-.07-3.68-.14-5.51-.11-3.67-.31-7.33-.51-10.98-.46-7.23-.92-14.49-1.4-21.88.96-3.53.94-3.89-.37-7.31.26.09.36.31.54.02-.62.03-.76-.59-.91-1.23-.18-.6-.36-1.22-.96-1.23-.13-.59-.26-1.18-.39-1.76-.15-.54-.34-.97-.5-1.46l-.25-.71c-.05-.14-.06-.19-.15-.4l-.25-.59-.83-1.97c-1.02-2.42-2.08-4.65-3.27-7.01.49.68,1.58.63,1.06-.23l-1.16-.58.22-.3c-.48-.52-1.35-.88-1.38-.08-3.52-5.51-6.98-10.84-11.21-15.66-4.18-4.82-9.19-9.07-15.01-11.92-2.51-1.86-6.75-3.25-10.05-4.02-4.47-2.37-9.08-4.19-13.89-5.38-4.83-1.13-9.88-1.58-15.21-1.17,0,0,1.44-3.12,6.02-3.62Z"/>
      <path class="cls-1" d="M178.03,88.01c-.38-.61-1.65-.94-.66-1.76.13.57.79,1.22.66,1.76Z"/>
      <path class="cls-1" d="M143.41,87.67c.02.18-.55-.06-.7-.12.39-.2.61-.81,1.05-.62-.4.18-.25.43-.35.74Z"/>
      <path class="cls-1" d="M134.9,90.73c-.11-.56,1.49-1.76,2.55-2.25-.87.73-1.72,1.48-2.55,2.25Z"/>
      <path class="cls-1" d="M126.27,92.58c-.87-.02-.83-.36.07-.83.2.22-.02.5-.07.83Z"/>
      <path class="cls-1" d="M126.35,93.96c-.61.37-1.07.27-1.53.18.26.39,1.28-1.09,1.53-.18Z"/>
      <path class="cls-1" d="M110.15,103.36c-.33.32-.76,1.32-1.48,1.14.63,0,1.22-1.98,1.48-1.14Z"/>
      <path class="cls-1" d="M104.29,109.98c-.22.18-.38.2-.5.54-.54.21-.45-.46-.18-.83l.68.28Z"/>
      <polygon class="cls-1" points="163.77 194.1 162.86 194.21 163.08 193.7 163.77 194.1"/>
      <path class="cls-1" d="M228.13,203.94c.92-.23.55.58.69.68-.8-.04.37-.63-.69-.68Z"/>
      <polygon class="cls-1" points="264.39 202.64 264.12 202.73 263.47 201.8 264.39 202.64"/>
    </g>
  </g>
  <g>
    <path class="cls-4" d="M194.48,87.77l-7.33,63.1-7.81,39.82-78.07-12.72,4.96-15.81c2.81-8.96,6.5-22.67,11.29-30.75l4.04-6.35c6.28-10.57,13.73-18.14,23.79-25.22l6.69-5.22c8.09-5.7,16.61-10.19,26.5-10.62"/>
    <g>
      <path class="cls-1" d="M196.39,88.75c-.12-1.17-1.02.5-.34-.79.42.21.72.46.34.79Z"/>
      <path class="cls-1" d="M174.54,83.01c-1.67,1.69-3.68,2.15-5.82,2.69-2.12.53-4.34,1.16-5.77,2.85-.37.32-.56-1.46-1.37-.64-1.28,1.87-3.32,3.27-5.68,4.47-1.18.59-2.43,1.13-3.71,1.62-1.27.5-2.49,1-3.7,1.38l-.03-.53c-.91.3-.92,2.16-1.8,2.59-.18-.23,0-.52-.42-.71.33.86-1.13,1.4-1.06,2.18-.51-.04-.89-.62-1.52-.65l.15,1.13c.17,2.79-3.12,2.09-4.01,4.37-.07-.24-.02-.51-.29-.59-1.73,3.24-5,5.81-7.17,8.91-.16-.35-.53-.9-.97-1.01.65.87.04,1.88-.45,2.76-1.12-.37-.38,1.92-1.55,2.43l-.12-.23c.34,1.37-1.31.59-.67,1.98l-1.01-.09c.98,1.21-1.38.52-1.18,1.56l.27.17c-.09.75-.91.6-1.06,1.26l-.18-.05c-.5,1.42-1.65,1.68-.64,2.29-1.08-.09.41-1.42-1.19-1.51-.42,1.18-.88,2.33-1.38,3.46-.52,1.12-1.12,2.2-1.74,3.27-.62,1.07-1.28,2.12-1.94,3.16-.64,1.04-1.2,2.07-1.74,3.16-.68.27-.95.54-1.42.45,0,.54-.58,1.76-.18,2.42.04-.16-.68.05-.84.26-.77.65.84,1.4-.02,2.09-.15-.48-.46-.74-.92-.79.54,1.12.01,2.1-.05,3.12-.13-.21-.16-.48-.53-.57.6,1.37-.88,1.77-.58,2.88l-.53-.56c-1.29,1.16,1.21.9.32,1.97-.1-.37-.4-.35-.64-.5.78,1.56-.22,3.3-.19,4.6-.07-.1-.25-.14-.25-.14-.26,1.31-1.04,2.52-.95,4.08-.45.42-1.56-.66-1.73.76,1.34.35-.15,2.46,1.59,2.12-.57,1.09-1.62,2.76-1.4,3.67-.35-.67-1.79.07-1.61-.93l-1.02.48c-.51-.27.41-.69-.34-.67-.09.5,0,2.05-.35,2.41.53,1.14,1.78,2.43,1.5,3.92-.3-.84-1.58-.07-1.66-.6l1.9,2.8c-.09.5-1.08-.22-.95.58.36.07.48.44.7.74-.1.06-.19.64-.34.91-.17.33-.5.65-1.22.68-.6.13-.08-.7-.71-.3-.24.81.23.85.02,1.59l-.2.03c-.19.27-.15.63.07.8.22.18.63.15,1.13-.17.14-.3-.95.29-.37-.24.77.18.83.73.67,1.28-.2-.09-.64.09-1.06.16.83.36,1.12.71,1.4,1.03.21-.04.42-.08.63-.12.77-.49-1.41.74-1.49.64,0-.01.03-.03.06-.06l-.04.04c.02.43,1.05.27,1.81.13.8-.14,1.34-.26,1.34.4-.23.08.56-.84.44-.68.38.15-.16,1.01.38.74-.25.52.54-.09.91-.2.31-.36,0,.27-.34.28.17-.09.43-.19.72-.28.14-.04.29-.08.45-.12.09-.01.11-.04.27-.04.14,0,.28,0,.42,0,1.15.01,2.4.21,3.24.75.02-.37,1.34-1.14,1.75-1.03l-.3.82c.3.57,1.42.16,1.37.89,1.06-.87-3.6.31-2.25-.29.2.75,1.91-1.06,1.46.04.85.11,1.82-.71,2.5.21-.21-.17-.87,1.05-.18,1.11,1.22.05.41-.35,1.42-.47l.67-.25c.17-.81,1.05.28.76-.7.04.7,1.81-.13,1.47,1.21l-.34,1.04c.53,0,1.03-.99,1.52-1.4.05.11.15.35.1.52.35-1.62,1.22.34,2.04-.83,1,.74,2.76.5,3.1,1.61.92-.36,1.78-.83,2.67-.32-.22.12-.48.13-.59.47.52.58.74.17,1.33,0-.16.22,1.04,1.15,1.61,1.84.91-.35.77-1.28.94-1.81.5,1.74,2.52-.66,3.23.96-.32.18-1.34.59-.72,1.12.5,1.74,1.73-.94,2.82.03l-.08-1.39c.41.92,1.93-.48,1.58.86.49-.42,1.37.68,1.45-.65,1.83,1.43,5,.13,5.86,2.67.32-.17,1.01.17.97-.53-.36-.81-.75.41-.85-.11.26,0,.38-.35.44-.52.58.4,1.05.58.29,1.57,1.26,1.04,1.8-1.99,3.48-1.19-.17.53-.07.76.46.75l1.13-.77c1.11.4.45,1.34.33,2.26.64-.06,1.38.11,1.77-.53l.56,1.27c-.41-.92.59-.47.92-.65l-.32.18c.05.4.8.28,1.17.22,0-.58-.68-.93-1.04-1.16.38-.35.85-.18,1.34-.59-.28.88.89.8,1.36.98.53.29.76-.7.92-.65-.06.47.9.23.36.81-.21.12-.36-.52-.74-.17.31.41.14,1.21,1,.74.65-.35.14-1.8,1.14-1.05-.32.18-.43.53-.71.81l.95.63.18-.81c.1.23,0,.28.04.41.44-.81,1.6-.01,1.99-.94.53,0,.99.74,1.47.92l-.11.06c.52.58,1.37.39,1.97-.08l-.06.17c.32.12,1.12.12,1.6-.3.18.19.27.48.28.79-.02.36-.04.66-.05.94-.04.58,0,.95.36.48.61.07.71-1.42.52-1.99.33.34.67.19.94.13.29-.06.51-.04,1.24.73-.12-.36-.31-.6-.27-.8.12.06.23.09.33.11.08-.38-.02-.96.01-1.32.04-.37.22-.53.96-.55.26.46.76.41,1.21.6-.64-.61.81-.11-.38-.68-.72-.24-1.06-.37-1.39-.26-.07-.17-.12-.32-.13-.47-.01-.17-.03-.17.09-.66.18-.75.49-1.4.91-1.7-.41.3-.58-.03-.75-.36,1.15.33,1.52-.61,1.25-1.43l-.7-.24.83-.33c-.17-.33-1.44-.61-.61-1.2.28.02.57.03.8-.06-.43-.88-1.22-2.14-.45-2.85l1.18-.47c-.05-.37-.56-1.09-.98-.53.91-1.28,1.16-2.18,2.15-2.45-1.73-2.86-1.12-6.4-.41-9.19l.52.19c.65-.66-.86-.58-.38-1.03.46.35,1.22-.36,1.73.36.78-.97-.65-1.58-.76-2.33-.68-.24.34.65-.53.34-.23-.17.84-1.39-.19-1.77.47-.19,1.21.17,1.61.41l-.39-.76c1.4-.57,1.86,2.28,3.56,1.73l-.05-.64c1.23-.36.94,1.86,1.62.4-.39-.77-1.83-1.64-2.41-1.14-.02-1.44-2.41-1.14-2.03-2.61.71-.28-.08,1.22.85,1.11.99-.53-.2-1.5.22-2.07-.54.61-1.5-.18-1.6-.67.65-.66.91.69,1.23-.36-.58-.3-.85-1.37-1.44-.6-.66-.33-.51-.59-.31-.87.19-.25.46-.69-.1-.7.01,0,.02,0,.03,0,.22.02.45.06.68.11.8.11,1.54.69,2.03.32.01,0,.03-.01.04-.03-.48-.04-.8-.16-1.13-.59-.35-.36-.76-.67-1.5-.43.33-.44,1.09-.4,1.63.01.66-.6-1.56-1.82.36-1.82l-.95-.34c.34-.17.62-.44,1.18-.72.09-.59-1.1-2.05.37-1.82-.13-.21.09-1.54-.99-1.14-.72.76.63,1.05-.8,1.35,1.19-.46,0-1.22-.33-1.75h.58c-.19-.33.01-.97-.58-1.22.3.26.7.19.87-.02l-.83-.4c-.3-1.22,1.56-.1,1.44-1.26l.57.94c-.12-.21.73-.5.53-1.07-.77-.3-1.67-.81-2.27-1.06-.27-.68.93-.18.19-.91l.86.94c.25.15,1.37-.41,1.45-1.26-.21-.58-1.26-1.56-1.79-.75.04-.43.59-.98,1.13-.57-.16-1-.87.03-1.26-.87.57-.28,1.44-1.26,2.29-1.82l1.22,1.03.08-.58c.98.88.86-.29,1.92.27.22-.38-.1-.9-.35-1.32-1.93.95-2.3-1.59-3.97-1.44-.26-1.64,4.09-.53,1.73-2.49-.46.22-1.61-.71-1.26.35.3-.97-1.56-.86-.75-1.95.57.94,1.77-.74,2.59.63-.53-.15-.49.65-.36.86.67-.34,1.63.28,1.75-.74-.09-.64-.02-1.49-.88-1.47-.94-.08,0,.96-.91.45-.18-1.27,1.27-1.31-.33-2.01.04.79-.95.88-1.59.79l-.28-.95.6.25c.62-1.4-1.08-.56-.75-1.95l1.31-.52c1.02.46-.71,1.99,1.04,1.94.18-.91-.66-1.31-.12-2.12.13.21.14.48.27.68.1-.32,2.42-.38,1.23-1.84-.44-.73-.59-.25-1.24-.34-.03-1.49-.63-2.01-.62-2.96,1.24.34.32-1.66,1.48-.46-.79.4-.97,2.53.17,3.19,1.55-.36-.34,1.13,1.13,1.62.17-1.17,1.63-.95,2.62-1.02.11-.32-.26-.68-.39-.9-.89-.24-.93.19-1.86.1.4-1.29.04-2.61-.76-3.44.5-.39,1.39-.14,1.41.39-.09-1.59.23-3.25.68-4.7-1.59.79-.16-1.7-1.46-1.18-.42.76-1.56,1.32-2.17.8.15-.49.65.09.99-.08-.73-.73,1.41-.83.21-1.6.31,1.48,1.77.49,2.9.88-.53-1.11.82.14.94-.88-.52-1.1-.89-2.42-1-3.59,1.26-1.3.44-3.63.55-4.91.66-.6,1.92,0,2.23-.7.07-.85-1.49.47-.74-.72l.25.15c-.26-.42,1.16-2.21-.68-2.8l1.37.55c.16-.22-.14-.48-.27-.69.46.04.91-.18,1.17.24,1.07-.67.03-1.65.09-2.51l-.9.45c-.49-1.53.45-2.4.32-3.84l.82.14-.39-.89c.77.3,1.37-.41.76-.93l1.76,2.4c-.55.55-.92-.77-1.77-.49-.74.24-.67,1.56.09,1.86.15-.49-.03-.53-.28-.95,1.16-.03,1.03.72,1.75,1.18-.02-.27.37-.6.02-.69.5.58.53,1.1.45,1.96-.38-.63-.74.23-1.05-.03,1,.19,1.21,1.03.81,2.05-1.25.62.52,2.06.06,3.25-.96-.61-1.7-1.34-2.03-2.13-.6.71-.07.86-.68,1.56.72.46,1.85.86,2.2,1.91l-.76-.03c.28.95,1.39,1.08,1.05,2.21-.6,1.93-.83,3.96-1.1,5.46l-.76-.03c1.51,1.02.27,2.86.85,4.07-.95,1.84.23,4.25-1.17,5.09.18,3.45.4,6.48-.28,9.96l-1.02-.72c.73.72-.68.34-.59.97.96-.61,1.03.99,1.65,1.5-1.03,1.46-.34,3.58.27,5.05l-.76-.03c1.25,1.56-.18,3.09-.62,4.81-.33.16-1.08.4-1.05.93,1.1,1.09.96,1.57,1.56,3.05-.12,1.01-.61,2.62-1.2,3.6.15.48.26.95.34,1.43.04.24.07.47.1.71l.03.35v.52s-.1,1.29-.1,1.29c-.03.37-.08.74-.13,1.11-.12.73-.23,1.47-.35,2.21-.24,1.48-.45,2.98-.35,4.54l-.93.11c1.12,4.16-1.49,8.5-1.17,11.93l-1.43-.61c-.66.92-.06,2.39,1.04,2.34-.66.93.23,2.68-1.13,3.09-.48.99.44,1.41.47,2.31-.49.99-.74,1.68-.88,2.38-.07.35-.11.7-.15,1.09-.01.2-.03.4-.04.62,0,.08-.03.29-.05.49-.02.2-.05.4-.07.62l.26-.81c-.12-.24-.36-.28-.58-.31-.21-.04-.43.13-.56.5.17,1.3-1.22,4.12.69,3.79-.65,1.21-.91,2.73-1.13,4.42-.22,1.68-.38,3.55-.75,5.02-1-.21-2.03-.53-3.04-1.03.6.6-.24.56-.46.86-1.67-.26-3.48-.81-5.08-1.21-1.62-.41-3.05-.69-4.42-.48-.48-.33.89-.71-.37-.97-.56.1-.14.63-.75.81-3.15.42-5.92-1.93-8.68-2.14-5,.15-9.98-1.15-14.65-1.74l.11-.35c-1.78,1.12-3.42-2-5-.14-.31-.4-1.38-.39-.99-1.04-1.4.77-3.32-1.48-5.31-.54.16.06.26,0,.48-.12-1.68-1.09-3.45-.26-5.24-1.29.22-.12.59-.18.7-.53-.62-.81-1.99,1.23-2.12-.57-.42-.05-.44.82-.17.81-4.07-1.35-8.71-.97-13.12-1.29-2.95-1.54.28-2.95-2.38-2.06-.15-.37-.25.64-.23.28-1.03.33-1.17-2.18-1.97-1.38.1,1.11-.54.52-.66,1.17-.45-.25-.79-.5-1.1-.73-.48-.26-.87-.48-1.23-.66-.73-.35-1.37-.49-2.71-.3l.44-.5c-1.68.54-3.35.45-4.99.41-1.66-.05-3.3-.07-5.65.49-.88-.12-1.75-.25-2.59-.37,1.12-3.99,2.23-7.93,3.33-11.85l.84-3.03.21-.76.11-.38.05-.22.2-.84c.27-1.11.54-2.23.8-3.34.53-2.2,1.06-4.39,1.59-6.58.54-2.2,1.11-4.43,1.76-6.67,1.62-4.58,3.04-9.26,4.95-14.01.5-1.2,1-2.39,1.59-3.6.59-1.22,1.19-2.39,1.99-3.72.18-.3.41-.7.56-.91l.51-.74,1.04-1.46c.7-.97,1.43-1.93,2.18-2.89,1.24-.55,1.88-.91,2.3-1.41.42-.5.65-1.17,1.14-2.47.14.22.1.39.38.37-.96-.79.95-1.63.14-2.5,2.4-3.06,4.38-6.1,7.12-9.08-.34.56.19,1.46.64.86l-.04-1.11.33.14c.21-.5.18-1.32-.48-1.21,3.15-4.06,7.23-7.15,11.39-9.73l1.55-.95,1.46-.84c.97-.58,1.92-1.21,2.86-1.83.94-.63,1.87-1.27,2.79-1.93l1.35-1.02c.21-.17.46-.35.74-.55l.79-.57c1.17-.49,2.26-1.21,3.45-2.05,1.16-.83,2.34-1.74,3.4-2.48,3.75-1.15,7.38-2.02,11.02-2.77,3.64-.78,7.27-1.44,11.26-2.21,0,0-.24.81-.83,1.73-.6.91-1.51,1.97-2.94,2.54Z"/>
      <path class="cls-1" d="M196.36,90.13c-.64.17-1.06.93-1.8.2.58-.01,1.27-.35,1.8-.2Z"/>
      <path class="cls-1" d="M187.64,110.69c.18.05-.28.27-.39.33-.01-.27-.5-.57-.16-.74.02.27.31.26.55.41Z"/>
      <path class="cls-1" d="M186.64,116.09c-.53-.14-.82-1.36-.81-2.05l.81,2.05Z"/>
      <path class="cls-1" d="M183.83,120.9c-.51.39-.74.23-.66-.35.29,0,.41.2.66.35Z"/>
      <path class="cls-1" d="M185.01,121.4c-.04.42-.38.59-.71.76.46.04-.18-1.01.71-.76Z"/>
      <path class="cls-1" d="M182.17,132.22c.01.27.39.89-.23,1.07.45-.23-.54-1.37.23-1.07Z"/>
      <path class="cls-1" d="M182.39,137.43c-.05.16-.16.22-.03.43-.28.27-.64-.09-.66-.35l.7-.07Z"/>
      <polygon class="cls-1" points="140.16 180.16 140.76 179.99 140.59 180.51 140.16 180.16"/>
      <path class="cls-1" d="M106.9,173.61c-.33-.1.67-.43.78-.5,0,.18-.78.23-.78.5Z"/>
      <polygon class="cls-1" points="109.83 154.99 109.8 155.15 108.75 154.77 109.83 154.99"/>
    </g>
  </g>
  <g>
    <path class="cls-2" d="M263.46,201.76s-2.55-48.01-7.88-63.62c-12.87-37.66-39.93-44.74-49.58-46.24-1.64-.26-14.84-4.62-14.99-2.96-.39,4.35-2.56,20.9-3.86,40.52-.96,14.4-7.93,49.22-10.26,60.27-.34,1.63.77,3.22,2.43,3.44l41.86,8.59c1.12.11,2.23.22,3.36.33l38.92-.32"/>
    <g>
      <path class="cls-1" d="M261.4,201.06c.32,1.23.92-.72.47.79-.45-.15-.79-.36-.47-.79Z"/>
      <path class="cls-1" d="M259.27,200.4c-4.03,2.88-9.38.05-13.81,1.9-.52.13.12-1.56-1.05-1.17-4.28,2.24-11.07.98-16.32-.68l.31-.44c-1-.31-2.21,1.16-3.27.96-.01-.29.33-.42.09-.82-.05.16-.14.27-.26.36-.1.09-.23.14-.37.18-.23.05-.56.04-.88.07-.31.03-.58.1-.75.29-.38-.38-.27-1.07-.77-1.51-.24.31-.47.62-.66.94-.06.08-.13.16-.2.23-1.91,1.6-3.79-1.15-6.17-.43.15-.21.41-.34.28-.6-3.9.68-8.36-.51-12.51-.82.23-.31.51-.92.35-1.35-.41.99-1.71,1-2.83.98-.27-1.16-2.05.59-3.2-.26l.16-.21c-1.17.92-1.26-.93-2.29.25l-.42-.96c-.72,1.41-1.2-1.05-2.13-.45l-.04.31c-.81.22-1.03-.61-1.76-.5l-.03-.19c-1.67.07-2.42-.95-2.62.22-.36-1.05,1.63-.11,1.03-1.65-1.37.03-2.73-.03-4.08-.15l-1.02-.11-1.1-.15c-.74-.11-1.49-.22-2.23-.36-.74-.14-1.46-.31-2.16-.49-.7-.15-1.35-.58-1.81-1.15-.47-.57-.73-1.3-.77-2.02-.01-.71.19-1.43.28-2.15.6-.75.83-1.15,1.33-1.34,0,0,0-.02,0-.03-.13-.51.17-1.9-.32-2.52-.01.18.67-.24.78-.5.63-.87-1.07-1.31-.34-2.25.23.48.58.7,1.04.65-.73-1.08-.35-2.25-.43-3.37.16.2.23.48.61.52-.8-1.36.64-2.07.18-3.22l.6.51c1.14-1.48-1.32-.76-.56-2.08.15.38.44.31.7.43-.97-1.56-.16-3.62-.32-5.01.08.1.27.11.27.11.12-1.46.78-2.89.55-4.57.41-.52,1.62.5,1.65-1.07-1.37-.2-.09-2.69-1.79-2.07.47-1.26,1.35-3.22,1.04-4.17.41.68,1.78-.34,1.7.76l.97-.67c.54.22-.34.81.41.67.04-.55-.21-2.23.09-2.68-.66-1.15-2.06-2.35-1.96-4,.4.85,1.58-.18,1.72.38l-2.23-2.71c.02-.55,1.1.06.87-.78-.37-.02-.53-.4-.79-.68.19-.18.03-2.3,1.4-2.32.57-.15.15.93.72.4.14-1-.31-1.12-.17-2.12h.18c.3-.62-.27-2.02-1.13-1.42-.12.45.84-.05.34.57-.71-.58-.75-1.77-.63-2.77.17.37.53.38.89.58-.87-1.5-.99-2.96-1.25-4.5-.64-.11,1.1.71.73.88.57-.9.39-1.93.24-2.9-.16-.97-.27-1.89.47-2.61.09.27-.93.05-.75.05.19-.9,1.1-.77.81-1.39.56,0-.11-.76-.23-1.37-.37-.34.28-.14.3.4-.38-.82-1.01-4.48-.04-6.44-.37.01-1.24-1.36-1.16-1.82l.84.25c.54-.39.05-1.58.79-1.59-.96-1.08.57,3.92-.12,2.5.74-.29-1.21-1.99-.07-1.61.05-.94-.84-1.93.03-2.76-.16.25,1.11.86,1.12.1-.04-1.35-.37-.41-.56-1.52l-.29-.71c-.82-.12.21-1.18-.75-.77.69-.1-.25-1.98,1.11-1.72l1.06.28c-.03-.58-1.05-1.05-1.49-1.55.11-.07.34-.2.51-.15-1.64-.25.26-1.36-.94-2.17.69-1.16.35-3.07,1.44-3.54-.41-.98-.92-1.89-.45-2.91.13.23.15.52.5.62.56-.61.14-.82-.07-1.46.23.16,1.1-1.23,1.77-1.9-.39-.97-1.32-.75-1.85-.91,1.72-.66-.76-2.72.83-3.61.19.34.65,1.43,1.14.71.43-.17.58-.36.58-.58,0-.26-.14-.59-.3-.94-.33-.7-.74-1.68-.25-2.48-.45-.03-.91-.04-1.36-.03.46-.31.35-1.12.3-1.82-.06-.7-.06-1.23.58-.71-.04-.11-.07-.22-.08-.34-.11-.94.79-1.61-.3-2.3.24-.27.43-.61.63-.92.21-.28.4-.59.57-.92.17-.35.35-.6.51-.91.09-.31.53-.62.88-.75,1.4-.56,3.01-.48,4.36.82.31-.21,1.44.17,1.02-.58-.98-.87-.82.45-1.26-.1.36-.02.32-.38.3-.58,1.09.4,1.83.66,1.27,1.68,1.09.59,1.44.11,2-.39.54-.5,1.33-.98,2.81-.32-.19.52,0,.78.83.92.29-.08.59-.17.9-.24.33-.07.47-.19.72-.29,1.19.56.37,1.4.15,2.3.7.03,1.49.31,1.98-.28l.47,1.35c-.34-.98.69-.39,1.03-.53l-.36.14c0,.41.85.39,1.1.32.12-.56-.49-.95-.87-1.23.4-.31.96-.06,1.24-.5-.1.33-.07.51.03.62.36.22,1.02.26,1.36.38.6.3.88-.67,1.07-.59-.08.47,1.05.31.41.85-.25.1-.41-.56-.86-.23.36.44.14,1.23,1.14.84.76-.29.22-1.79,1.37-.95-.39.15-.53.49-.86.75.36.24.72.47,1.06.74l.25-.79c.11.25-.02.29.03.41.57-.75,1.85.22,2.39-.65.63.08,1.08.95,1.61,1.21l-.13.03c.53.7,1.53.65,2.28.36l-.09.16c.34.2,1.25.42,1.89.14.7.95-.87,3.02.53,2.45.9.38,2.03-.74,1.88-1.39.71.64,1.67.87,2.59,1.18.89.36,1.73.8,2.15,1.77.39-.17.35-.43.92-.34.56.38,1.15.72,1.76,1.06.61.33,1.24.63,1.83.97,1.2.63,2.18,1.5,2.53,2.79-.82-.18-.53.63-.81,1.02.95-.22.13,1.06,1.08.19.41-.63.68-.88.26-1.58.75.33,1.64.84,2.33,1.45.67.64,1.18,1.32,1.28,1.87-.1-.55.3-.5.72-.44-.87.82-.13,1.72.82,2l.6-.45c-.03.31-.05.61-.09.94.4.07,1.33-.82,1.45.31-.17.23-.33.47-.37.73,1.05.23,2.7.49,2.95,1.63-.08.44-.14.86-.24,1.31.35.25,1.29.38,1.05-.4.6,1.74,1.22,2.63.84,3.61.88.22,1.77.56,2.52,1.07.75.51,1.44,1.14,2.09,1.83.64.69,1.24,1.43,1.78,2.19.52.77.92,1.58,1.32,2.33l-.52.19c.01,1.04,1.06-.07,1.05.67-.6,0-.64,1.16-1.54.86.14,1.39,1.65.97,2.29,1.59.69-.23-.74-.37.14-.66.31,0,.4,1.83,1.42,1.52-.24.49-1.06.62-1.52.67l.81.47c-.73,1.42-2.94-.92-3.9.7l.45.55c-.73,1.11-1.92-1.06-1.53.68.79.42,2.48.32,2.62-.51.95,1.31,2.64-.47,3.31,1.16-.37.7-.74-1.21-1.4-.52-.44,1.11,1.15,1.28,1.18,2.08.02-.91,1.32-.74,1.73-.33-.08,1.02-1.19-.11-.75,1.08.68-.07,1.56.83,1.56-.27,1.5-.13.12,1.39,1.4,1.62-.78.76-2.6-.34-2.57,1.14.81-.57,1.83,1.11,2.89-.1-.06.62-.75.94-1.44.79-.27.93,2.32,1.15.63,2.06l1.02-.09c-.21.34-.31.75-.67,1.3.11.33.64.71.92,1.13.28.42.36.81-.36,1,.21.17.62,1.79,1.42.88.3-1.19-1.06-.93.1-1.92-.87,1.06.57,1.41,1.11,1.92l-.52.25c.32.29.44,1.14,1.07,1.18-.38-.18-.73.05-.8.35l.93.14c.74,1.27-1.42.68-.87,1.94l-.89-.84c.19.18-.5.81-.09,1.37.83.07,1.87.32,2.53.41.51.68-.79.52.14,1.08l-1.14-.76c-.28-.08-1.14.92-.95,1.87.39.56,1.7,1.31,1.94.24.1.49-.24,1.26-.89.98.48,1.05.81-.3,1.48.56-.45.49-.96,1.83-1.62,2.68l-1.47-.75.09.65c-1.19-.66-.74.56-1.92.28-.11.47.36.93.71,1.31,1.57-1.58,2.67,1.05,4.23.43.72,1.73-3.76,1.71-.96,3.19.38-.37,1.74.33,1.12-.72-.03,1.13,1.74.52,1.24,1.93-.8-.88-1.51,1.26-2.67,0,.55.02.3-.83.12-1.03-.56.54-1.65.14-1.5,1.26.25.66.41,1.6,1.24,1.35.93-.16-.25-1.04.76-.72.51,1.33-.87,1.74.86,2.1-.24-.85.69-1.2,1.33-1.27l.53.97-.65-.12c-.25,1.68,1.19.33,1.21,1.93l-1.14.89c-1.1-.24.19-2.34-1.49-1.85.05,1.03.97,1.26.64,2.27-.17-.2-.25-.48-.43-.67-.01.37-2.25,1.01-.74,2.3.61.69.64.13,1.28.07.39,1.61,1.09,2.02,1.31,3.07-1.28-.08.08,1.87-1.33.85.68-.61.36-2.97-.92-3.41-1.42.77.05-1.3-1.5-1.47.12,1.31-1.35,1.42-2.29,1.74-.02.37.42.67.6.87.92.05.86-.42,1.79-.55-.09,1.48.57,2.82,1.54,3.53-.39.53-1.32.48-1.47-.09.46,1.7.52,3.56.4,5.23,1.38-1.2.53,1.8,1.69.96.25-.91,1.23-1.78,1.94-1.35-.04.56-.65.05-.94.31.88.63-1.19,1.22.15,1.78-.63-1.54-1.84-.14-3.03-.32.76,1.08-.83.03-.72,1.15.75,1.07,1.38,2.42,1.74,3.66-.96,1.68.31,4.01.48,5.42-.53.79-1.88.39-2.05,1.21.1.94,1.37-.81.87.63l-.27-.11c.34.4-.7,2.62,1.22,2.89l-1.46-.33c-.11.27.24.49.4.69-.46.04-.86.38-1.2-.02-.92.93.28,1.79.39,2.72l.8-.66c.78,1.56.01,2.68.41,4.21h-.83s.55.9.55.9c-.81-.17-1.28.7-.58,1.15l-2.17-2.26c.44-.69,1.04.66,1.83.19.68-.4.37-1.82-.44-2-.06.55.13.57.45.97-1.14.26-1.15-.58-1.94-.93.07.28-.26.71.11.75-.6-.52-.72-1.08-.82-2.02.49.6.69-.39,1.03-.18-1.02,0-1.39-.88-1.19-2.05,1.11-.91-.91-2.12-.69-3.48,1.06.46,1.94,1.1,2.41,1.88.45-.88-.1-.94.35-1.82-.79-.35-1.98-.55-2.53-1.61l.75-.12c-.47-.96-1.58-.87-1.48-2.15.2-2.2,0-4.42-.06-6.08l.75-.13c-1.68-.77-.88-3.01-1.72-4.17.53-2.18-1.19-4.48-.01-5.69-.98-3.64-1.93-6.78-2.2-10.61l1.18.49c-.89-.57.57-.53.31-1.18-.77.89-1.25-.77-1.99-1.14.57-1.8-.67-3.84-1.7-5.16l.73-.19c-1.69-1.21-.74-3.23-.96-5.07.26-.27.88-.76.67-1.29-.71-.35-1.06-.65-1.39-1.02-.34-.35-.64-.76-1.2-1.31-.16-.49-.22-1.13-.35-1.84-.12-.7-.2-1.43-.17-2.02-.77-.8-1.36-1.65-1.87-2.54-.25-.44-.48-.9-.7-1.36-.25-.44-.49-.89-.72-1.34-.47-.9-.92-1.82-1.42-2.71-.25-.45-.51-.89-.79-1.32-.3-.42-.65-.81-1.02-1.19l.63-.69c-1.84-1.26-2.88-3.18-4.09-4.92-.57-.89-1.11-1.79-1.67-2.6-.61-.77-1.27-1.43-1.98-1.92l1.38-.71c-.32-1.13-1.84-1.63-2.48-.7-.31-1.14-2.32-1.37-1.86-2.73-.55-.97-1.39-.46-2.16-.92-1.21-1.79-1.85-2.3-3.58-3.3l.33.37c.38-.13.81-.62.47-.99-.86-.12-1.97-1.99-2.45-.09-.27-.52-.67-.94-1.16-1.28-.5-.31-1.07-.56-1.63-.82-.56-.26-1.1-.53-1.57-.87-.49-.32-.91-.7-1.18-1.26-.09.52-.59.35-.93.54-.4-.21-.78-.49-1.15-.78-.38-.27-.76-.54-1.13-.8-.76-.49-1.5-.94-2.35-.8-.18-.34.76-.61.08-.93-.49.01-.25.59-.86.66-1.53-.14-2.86-.8-4.16-1.57-.66-.35-1.31-.71-1.97-1.02-.66-.31-1.33-.51-2.01-.6-.7-.02-1.46-.02-2.19-.07-1.14-.14-1.72-.29-2.33-.4-.61-.13-1.18-.26-1.75-.4-.87-.23-1.75-.46-2.61-.69-.49-.13-1.02-.33-1.47-.31l-.23-.43c.12.4.1.49-.04.47-.16-.03-.25-.04-.39-.06-.26-.05-.47.2.48,1.08-.14-.07-.2-.04-.26-.03-.09.02-.2.04-.58-.22.44.46.2.52-.03.79-.06.06-.11.13-.15.21l-.02.03-.02.1-.04.2c-.02.13-.04.26-.05.4-.05.53,0,1.06.27,1.59.05-.18,0-.29-.14-.51-1.01,1.9-.11,3.77-1.05,5.79-.13-.23-.21-.63-.56-.73-.78.74,1.33,2.08-.46,2.34-.03.47.84.42.82.13-1.15,4.52-.48,9.53-.47,14.33-1.32,3.34-2.96-.02-1.87,2.78-.35.2.66.21.29.22.41,1.08-2.08,1.48-1.21,2.28,1.1-.22.57.53,1.22.59-.84,2.04-1.84,2.39-1.17,4.21l-.55-.18c.72,1.09.79,2.21.88,3.27.1,1.07.23,2.11,1.03,3.06-1.12,11.03-1.97,21.44-3.71,31.93-.71,3.18-1.32,6.36-1.92,9.54-.45,2.36-.9,4.71-1.35,7.08-.01.05-.09.12-.1.23,0,.1.01.21.13.43-.01.09-.02.18-.02.26-.02.04.03.09.1.14l.16.15c.21.19.41.35.59.49.36.27.67.46,1,.58.66.24,1.41.23,2.8.2-.16.22-.33.23-.2.49.38-1.17,1.9.27,2.39-.82,3.78,1.01,7.38,1.41,11.32,2.21-.65,0-1.16.92-.41.99l.93-.6.06.36c.54-.07,1.22-.55.77-1.04,3.02.3,5.97.9,8.87,1.64,1.45.37,2.89.78,4.33,1.2l2.15.64,1.07.32.54.16.13.04h0s.02.04.02.04c.16.12,2.38.43,2.56.54l.03.02s.01.01.13.02l.54.03,1.08.06,2.15.09c1.43.04,2.86.04,4.29-.01,2.35.49,5.69,0,8.25-.28,7.58,1.57,14.41,2.83,22.09,1.62,0,0-.98,3.17-4.14,3.92Z"/>
      <path class="cls-1" d="M261.19,199.56c.59-.3.87-1.2,1.73-.55-.57.12-1.18.61-1.73.55Z"/>
      <path class="cls-1" d="M265.67,175.62c-.18-.01.22-.36.31-.44.07.29.61.51.31.77-.07-.29-.35-.22-.62-.33Z"/>
      <path class="cls-1" d="M265.44,169.56c.56.03,1.11,1.28,1.25,2.04l-1.25-2.04Z"/>
      <path class="cls-1" d="M267.05,163.68c.4-.54.66-.44.73.22-.28.08-.45-.12-.73-.22Z"/>
      <path class="cls-1" d="M265.77,163.42c-.07-.47.22-.74.5-1-.46.07.42,1.05-.5,1Z"/>
      <path class="cls-1" d="M265.65,150.89c-.09-.29-.64-.86-.09-1.24-.37.38.91,1.34.09,1.24Z"/>
      <path class="cls-1" d="M263.81,145.24c0-.19.08-.29-.11-.48.18-.39.64-.11.74.17l-.64.31Z"/>
      <polygon class="cls-1" points="186.21 95.23 186.06 94.24 186.56 94.54 186.21 95.23"/>
      <path class="cls-1" d="M181.8,140.46c.25.65-.57.34-.66.43.02-.55.63.29.66-.43Z"/>
      <polygon class="cls-1" points="180.46 164.75 180.48 164.57 181.56 164.83 180.46 164.75"/>
    </g>
  </g>
  <g>
    <path class="cls-6" d="M85.22,176.47l-48.5,29.97c-1.71,1.06-.89,3.7,1.12,3.59,2.84-.15,5.74-.24,7.32-.11,22.61,1.81,66.31,20.31,88.88,18.14,18.8-1.81,68.58-31.72,68.58-31.72"/>
    <g>
      <path class="cls-1" d="M85.8,178.49c.61-.67-.9-.57.26-.66.13.43.16.81-.26.66Z"/>
      <path class="cls-1" d="M199.44,196.61c-.97,3.87-5.6,3.22-7.37,6.29-.25.28-.68-1.4-1.2-.68-1.5,3.38-6.25,4.5-10.23,4.7l-.02-.49c-.75.05-.8,1.72-1.54,1.89-.14-.26.01-.48-.33-.75.25.86-.97.98-.93,1.7-.42-.17-.72-.8-1.22-.97l.1,1.08c.08,2.65-2.57,1.16-3.41,2.97-.04-.24.02-.47-.2-.62-1.59,2.45-4.56,3.65-6.89,5.37-.05-.37-.24-.99-.57-1.28.34,1.01-.34,1.64-.93,2.15-.78-.83-.76,1.46-1.83,1.3l-.03-.25c-.12,1.31-1.17-.17-1.08,1.29l-.74-.6c.38,1.51-1.2-.32-1.38.61l.15.28c-.32.55-.88-.03-1.21.4l-.11-.14c-.86.83-1.8.31-1.3,1.39-.74-.71.82-.84-.31-1.86-2.86,2.62-6.49,3.88-9.98,5.18-.56-.31-.86-.35-1.1-.75-.27.35-1.23.68-1.36,1.35.11-.06-.42-.5-.63-.5-.78-.22-.29,1.48-1.17,1.2.19-.4.16-.79-.06-1.19-.32,1.08-1.18,1.17-1.82,1.68.06-.23.2-.39.07-.74-.5,1.26-1.49.17-2.02,1l.09-.74c-1.31-.54.01,1.5-1.09,1.24.19-.26.05-.51.03-.79-.32.7-.89,1.03-1.48,1.26-.59.23-1.22.29-1.67.57.05-.1,0-.29,0-.29-1.03.3-2.11-.12-3.23.49-.42-.29.08-1.69-.98-1.39.03.69-.43.85-.82,1.03-.39.16-.7.32-.39,1.12-.94-.28-2.38-.87-3.03-.43.45-.5-.34-1.71.42-1.79l-.52-.86c.12-.56.57.22.43-.5-.37.04-1.5.53-1.81.29-.76.76-1.57,2.26-2.74,2.3.6-.47-.13-1.55.26-1.74-.63.82-1.27,1.63-1.92,2.44-.39.02.06-1.09-.54-.8-.02.37-.29.56-.51.83-.13-.15-1.64.08-1.59-1.29-.08-.56.66-.18.32-.73-.7-.1-.8.35-1.5.25l.02-.18c-.42-.28-1.46.34-1.08,1.17.32.1.02-.83.43-.36-.46.73-1.32.8-2.03.7.28-.18.32-.54.48-.9-1.14.91-2.2,1.01-3.34,1.23-.14.63.62-1.07.71-.71-1.15-1.16-3.03.67-3.87-.85.21-.07-.1.92-.07.74-.63-.21-.4-1.12-.89-.88.08-.55-.56.05-1.03.11-.31.34-.05-.29.34-.26-.7.32-3.29.57-4.48-.54-.06.36-1.17,1.1-1.48.97l.33-.8c-.16-.57-1.07-.2-.95-.92-.93.83,2.8-.19,1.7.35-.06-.75-1.6.99-1.12-.08-.64-.13-1.49.64-1.9-.29.14.18.8-1.01.28-1.09-.93-.08-.36.33-1.15.42l-.54.22c-.24.79-.78-.31-.68.67.06-.69-1.42.07-.97-1.24l.4-1.01c-.41-.02-.93.94-1.35,1.32-.02-.11-.07-.35,0-.51-.49,1.58-.89-.38-1.68.73-.66-.78-2.05-.61-2.15-1.71-.75.32-1.48.74-2.1.2.18-.11.39-.1.52-.44-.32-.59-.54-.2-1.02-.06.16-.21-.63-1.18-.96-1.89-.75.31-.78,1.23-.98,1.74-.12-1.73-2.02.53-2.32-1.09.27-.16,1.11-.52.71-1.06-.12-1.73-1.46.85-2.15-.16l-.15,1.37c-.17-.92-1.54.38-1.08-.92-.43.39-.94-.73-1.2.57-1.18-1.49-3.79-.37-4.06-2.9-.27.15-.74-.21-.81.48.15.81.63-.37.63.15-.2-.01-.34.32-.41.49-.38-.42-.72-.61.01-1.55-.81-1.07-1.66,1.88-2.82,1.02.2-.51.16-.74-.24-.76l-.97.71c-.78-.44-.15-1.33.07-2.24-.49.03-1.03-.16-1.42.45l-.24-1.27c.18.92-.52.44-.79.61l.27-.17c.02-.4-.57-.3-.86-.26-.09.57.39.94.63,1.18-.34.33-.67.15-1.09.53.33-.85-.57-.82-.9-1.01-.36-.3-.67.67-.78.61.11-.46-.65-.25-.16-.81.18-.11.2.53.54.19-.18-.41.06-1.2-.65-.77-.54.33-.34,1.77-1,1,.27-.16.4-.51.64-.78l-.63-.66-.24.79c-.05-.23.04-.28.02-.4-.44.79-1.21-.02-1.62.89-.4,0-.65-.75-.99-.93l.09-.05c-.32-.58-.99-.41-1.49.04l.06-.17c-.22-.12-.82-.13-1.24.27-.46-.76.51-3.11-.4-2.24-.63-.11-1.31,1.27-1.17,1.84-.98-.79-2.51.27-3.27-1.21-.11.15-.15.28-.21.39-.03.05-.05.11-.12.14-.09.04-.21.06-.38.07-1.34-.41-2.95-.31-4.46-.42-1.5-.1-2.91-.35-3.26-1.25,1.09-.22.78-.77,1.22-1.21-1.29.61.06-.81-1.4.35-.67.7-1.13,1.03-.61,1.41-2.06.16-4.78-.19-4.75-.92,0,.36-.65.52-1.34.67,1.7-1.03.84-1.33-.68-1.09l-1.24.61.27-.36.39-.39c-.58.12-2.63,1.14-2.05.33.41-.23.82-.46,1.05-.66-1.47.27-3.53.56-3.02-.06l1.17-.8c-.35,0-1.5.21-1.64.53.25-.71-.04-.88.86-1.35-.98.15-1.72.25-2.34.19-.63-.09-1.21-.55-1.61-1.19-.4-.64-.62-1.45-.64-2.12,0-.33.02-.63.08-.86.06-.22.14-.39.23-.56l.61-.05c.78-.43-1.04-.04-.49-.35.56.04,1.54-.43,2.14-.25,1.08-.56-.76-.5-.9-.87-.94.02.45.25-.73.29-.33-.04,1.21-.87-.3-.87.68-.19,1.79-.13,2.36-.09l-.54-.31c1.11-.28,1.75-.03,2.44.13.68.18,1.32.31,2.65.05l.09-.26c2.02-.33.85.57,2.37-.1-.33-.21-2.38-.42-3.42-.1.3-.69-3.58-.22-2.77-1.12,1.18-.23-.31.71,1.2.53,1.67-.37-.03-.81.81-1.2-1.05.4-2.45-.01-2.52-.35,1.26-.46,1.31.42,2.2-.28-.87-.17-.87-.97-2.21-.41-.98-.24-.61-.45-.15-.66.46-.21,1.12-.42.57-.76.95-.02,1.54.32,2.17.54.63.23,1.28.35,2.2.03-.81-.05-1.01-.36-1.24-.67-.24-.31-.56-.62-1.99-.58.98-.28,2.09-.08,2.58.32.79-.14.59-.53.61-.87.01-.33.22-.59,1.59-.31l-1.02-.52c.65-.03,1.3-.14,2.31-.15.32-.19.43-.65.7-.99.27-.34.66-.54,1.42-.14.03-.2,1.54-1.05-.04-1.28-1.62.26-.28,1.05-2.33.69,1.92.14,1.24-.94,1.5-1.54l.65.27c.13-.34,1.03-.75.71-1.28.02.38.51.53.9.45-.13-.26-.26-.52-.38-.79,1.1-1.19,1.59.82,2.69-.16-.16.37-.31.72-.45,1.07.1-.23,1.14.09,1.5-.46-.35-.72-.53-1.73-.7-2.36.59-.77.9.5,1.19-.64-.16.47-.3.94-.41,1.38.04.28,1.46.64,2.32.09.21-.45.15-1.77-.64-1.8.27-.18.92-.01,1,.62.49-.62-.53-.68-.25-1.44.5.31,1.59.53,2.41.93l.13,1.48.38-.22c.07,1.21.68.54.99,1.67.35,0,.46-.53.56-.93-1.7-1.07-.45-2.62-1.54-3.89.8-1.02,2.75,3.01,2.47.15-.4-.26-.55-1.64-.95-.83.74-.24-.43-1.67.68-1.56-.21.92,1.48,1.05,1.18,2.38-.23-.5-.67-.07-.71.14.6.37.82,1.44,1.47,1.04.32-.38.85-.75.32-1.43-.51-.79-.56.46-.8-.51.63-.77,1.51.36.97-1.26-.44.42-1.07-.33-1.4-.88l.38-.7.22.6c1.18-.2-.32-1.14.68-1.56l1.08.79c.34,1.04-1.57.42-.5,1.79.63-.3.36-1.18,1.16-1.14-.05.2-.19.34-.24.55.24-.08,1.66,1.74,1.8.08.16-.72-.21-.6-.54-1.16.85-.76.78-1.49,1.34-1.96.54,1.16,1.15-.57,1.15.96-.7-.44-2.04.47-1.74,1.71,1.14,1.06-.86.28-.26,1.7.78-.44,1.52.84,2.15,1.59.25-.07.24-.55.28-.76-.39-.83-.66-.65-1.17-1.44.98-.32,1.53-1.26,1.54-2.3.52.21.91,1.04.62,1.32.87-.86,2.02-1.42,3.13-1.78-1.4-.88.89-.96-.18-1.75-.69.03-1.69-.59-1.76-1.34.37-.12.33.56.63.75-.02-.95,1.32.71,1.05-.63-.67.98.77,1.65,1.22,2.75.32-.97.41.72,1.07.32.33-.96.87-1.9,1.48-2.57,1.51.37,2.36-1.43,3.17-1.99.74.23,1.14,1.54,1.73,1.44.54-.36-1.16-.96-.02-.95l.06.27c.09-.41,1.97-.17,1.22-1.93l.5,1.37c.22.02.19-.35.24-.56.25.39.65.64.56,1.05,1.02.53.98-.79,1.5-1.16l-.8-.5c.59-1.14,1.66-.82,2.41-1.63l.41.72.28-.75c.29.76,1.06.9.99.15l-.34,2.59c-.65-.17-.1-1.11-.77-1.65-.58-.48-1.31.23-1.02.99.37-.12.29-.29.38-.69.71.91.2,1.18.36,1.98.14-.14.57,0,.41-.33-.03.68-.32.96-.86,1.33.14-.61-.58-.48-.61-.85.49.89.13,1.48-.71,1.66-1.1-.69-.89,1.43-1.84,1.65-.22-1.07-.24-2.02.02-2.67-.77-.13-.54.37-1.31.23.16.8.61,1.9.2,2.7l-.43-.62c-.38.69.2,1.64-.65,1.93-1.47.47-2.79,1.29-3.82,1.81l-.43-.62c.31,1.71-1.5,1.63-1.85,2.69-1.63.15-2.32,2.28-3.64,1.57-1.89,1.85-3.51,3.52-5.93,4.69l-.2-1.17c.02.94-.6-.37-.91,0,.92.47.05,1.31.12,2.06-1.46-.1-2.27,1.49-2.76,2.7l-.43-.62c-.08.88-.55,1.23-1.17,1.42-.42.07-.89-.08-1.32.06-.29-.19-.96-.61-1.14-.4.28.54.4.81.45,1.04.06.23.05.43.23.77-.29.18-1.11.33-2.12.4.47.72.29,1.01-.14,1.36-.38.32-1.01.69-.31.86l-2.09.25c.8.07,1.16.12,1.24.24.09.14.02.44.03.72,0,.28.11.51.39.49.27-.01.7-.09,1.41-.29l-3.32,1.21c-.3.18.16.09.9-.15.75-.24,1.75-.62,2.76-1.04-.32.18.21.03.5-.04.3-.07.38-.06-.54.43-.12.22,1.48-.54,1.93-.69-.36.51.15.44.85.25v-.09c-.4.28-1.1.81-1.03.91.62-.34.49.48,1.76-1.13-.22.49.27.36.57.25.16-.06.3-.11.39-.05.05.03.09.08.12.18-.15.05.16.25.3.46-.04-.52.38-.52.62-.81,1.45.29,2.74,1.6,4.07,1.03.17.3-.55.73.01.92.38-.1.16-.63.64-.8,2.5-.33,4.42,2.04,6.51,2.36,3.9.03,7.54,1.54,11.03,2.34l-.14.34c1.52-1.02,2.31,2.13,3.79.37.18.41.99.45.6,1.07,1.18-.69,2.31,1.61,3.96.77-.11-.07-.2-.02-.38.1,1.11,1.14,2.58.41,3.79,1.5-.18.11-.47.15-.61.49.36.82,1.69-1.13,1.52.64.31.07.45-.79.25-.79,1.44.75,3.06,1.07,4.72,1.27,1.66.18,3.37.22,5,.44,2.02,1.6-.58,2.91,1.54,2.09.07.36.27-.63.21-.27.81-.31.62,2.16,1.33,1.38.05-1.1.46-.51.63-1.14,1.23,1.01,1.3,2.03,2.58,1.49l-.21.53c1.65-1.25,2.96-.13,4.41-1.71.89.14,1.78.28,2.66.39.88.08,1.75.16,2.62.24.87.07,1.73.14,2.6.21.85.02,1.69.04,2.53.06l2.5.06,2.4-.09,1.19-.03c.4,0,.79-.01,1.15-.07.74-.08,1.47-.15,2.21-.2.35,0,.76.03,1.07,0l.93-.1c.65-.09,1.35-.24,2.06-.4,1.45-.37,2.94-.83,4.47-1.36,3.07-1.05,6.23-2.25,9.65-3.15,2.1.72,2.21.64,3.63-.65.03.25-.05.35.15.5-.41-1.15,1.13-.63.81-1.76,2.48-.88,4.53-2.2,6.97-3.4-.33.31-.09,1.3.34,1l.14-.94.23.27c.24-.31.31-1.02-.18-1.22,5.63-3.93,12.74-4.89,18.53-8.39,1.65-.32,3.42-1.83,4.82-2.9,5.28-1.09,10.05-2.3,13.93-5.94,0,0,.27.76.34,1.74.07.98-.05,2.18-.81,3.05Z"/>
      <path class="cls-1" d="M84.98,179.14c-.48-.42-1.17-.39-1.19-1.34.35.46.96.84,1.19,1.34Z"/>
      <path class="cls-1" d="M67.89,182.31c.08.17-.33-.09-.42-.15.15-.14.03-.68.34-.49-.15.15.03.37.09.64Z"/>
      <path class="cls-1" d="M64.17,184.18c-.23-.5.29-1.33.71-1.66l-.71,1.66Z"/>
      <path class="cls-1" d="M59.71,184.3c-.53-.22-.58-.48-.19-.7.18.23.13.43.19.7Z"/>
      <path class="cls-1" d="M60.12,185.5c-.27.18-.57-.01-.87-.19.26.39.48-.64.87.19Z"/>
      <path class="cls-1" d="M52.16,188.56c-.15.14-.28.76-.76.34.4.25.47-1.1.76-.34Z"/>
      <path class="cls-1" d="M49.28,191.31c-.2.08-.34.05-.47.31-.49.01-.35-.55-.06-.78.18.16.37.31.53.47Z"/>
      <polygon class="cls-1" points="82.79 222.84 82.31 222.98 82.52 222.48 82.79 222.84"/>
      <path class="cls-1" d="M113.27,230.43c.49-.26.2.55.26.64-.4-.01.27-.63-.26-.64Z"/>
      <polygon class="cls-1" points="130.68 229.55 130.55 229.57 130.58 228.45 130.68 229.55"/>
    </g>
  </g>
  <g>
    <path class="cls-4" d="M100.89,179.18s12.76-47.91,23.91-59.4c27.79-28.63,47.2-33.16,53.95-33.82,1.53-.15,2.74-1.35,2.88-2.89l.39-4.13c.17-1.76,1.73-3.06,3.49-2.89h0c1.76.17,3.06,1.73,2.89,3.49l-.33,3.57c-.16,1.7-1.62,2.97-3.32,2.9l-3.37-.14"/>
    <g>
      <path class="cls-1" d="M99.05,178.28c.09.64,1.01-.06.31.49-.4-.19-.69-.39-.31-.49Z"/>
      <path class="cls-1" d="M183.26,87.35c.99-1.43,2.12-1.14,3.2-1.62.54-.21,1.07-.58,1.36-1.1.3-.53.3-1.18-.13-1.69-.1-.25,1.54.21,1.22-.37-.5-.55-.78-1.15-.88-1.78-.12-.63.02-1.3.09-1.88.05-.62.04-1.36-.25-2.15-.27-.78-.83-1.59-1.64-2.21.1-.13.21-.25.33-.37-.33-.26-.83-.05-1.22.25-.41.28-.71.64-1.05.6-.08-.29.15-.45-.11-.81-.01.46-.3.61-.58.81-.28.18-.56.39-.5.74-.4-.16-.76-.76-1.34-.8.08.36.2.71.33,1.04.45,1.23.23,1.47-.17,1.95-.19.23-.4.49-.46.81-.07.3,0,.51.27.84-.22-.09-.4-.22-.63-.17.65.89.84,2,.89,3.09.03.55.06,1.12-.08,1.65-.12.53-.36,1.04-.64,1.49-.19-.3-.61-.79-1.04-1.06.43.47.53.82.49,1.12-.03.31-.21.56-.4.76-.46-.37-.51-.09-.61.24-.09.34-.25.73-.75.52l-.07-.23c.05.55-.24.45-.47.35-.24-.09-.43-.17-.36.51-.23-.25-.46-.5-.67-.76.14.56.02.61-.18.5-.34-.18-.83-.84-.95-.33l.1.3c-.15.21-.34.14-.5.06-.15-.08-.3-.18-.42-.02l-.07-.17c-.63.56-1.25-.18-.95.97-.48-.87.6-.58-.12-1.84-2.12,1.78-4.54,2.25-6.84,3.21-.43-.35-.66-.42-.88-.81-.15.31-.8.54-.76,1.2.07-.05-.38-.5-.53-.5-.6-.23.06,1.4-.6,1.11.05-.37-.04-.75-.28-1.13-.02,1.02-.59,1.12-.93,1.59-.01-.21.05-.37-.13-.7-.06,1.17-1,.23-1.15,1.04l-.14-.7c-1.06-.41.42,1.4-.39,1.25.05-.27-.12-.48-.22-.75,0,1.41-1.09,1.46-1.44,2.13-.01-.1-.11-.26-.11-.26-.52.46-1.32.46-1.7,1.3-.39-.14-.74-1.51-1.25-.94.7,1.19-.78,1.08.37,2.24-.64.09-1.72.17-1.82.77-.04-.59-1.13-1.29-.75-1.66l-.76-.51c-.24-.52.44-.05-.03-.59-.2.18-.55,1.05-.87.97.04.97.51,2.54-.04,3.08.01-.65-1-1.17-.92-1.51l.56,2.82c-.17.19-.64-.88-.75-.38.22.3.21.57.28.88-.17-.08-.67.87-1.52-.2-.39-.38.18-.47-.32-.71-.38.27-.14.67-.51.95l-.11-.14c-.37,0-.42.98.28,1.42.2-.08-.53-.63-.05-.48.27.77-.05,1.24-.41,1.54,0-.27-.22-.56-.4-.91.11,1.25-.22,1.91-.51,2.67.37.53-.49-1.1-.2-.89-1.25-.2-.72,2.11-2.1,1.49.03-.16.61.69.49.55-.39.19-.95-.57-.96-.13-.36-.43-.17.36-.29.67.13.41-.22-.17-.06-.37-.03.63-.75,2.28-1.97,2.23.24.28.4,1.39.21,1.49l-.47-.71c-.47-.28-.51.5-1-.04.3,1.09.81-1.77.84-.77-.57-.45.19,1.59-.44.6-.32.29-.03,1.29-.85.92.18.03-.48-1.12-.71-.86-.37.52.13.43-.06.97v.47c.51.65-.49.27.28.83-.5-.47-.39.89-1.24-.2l-.64-.88c-.15.23.41,1.15.57,1.65-.09-.06-.29-.18-.39-.32,1.05,1.28-.56.31.04,1.48-.79-.08-1.09.87-1.97.26.01.65.12,1.35-.47,1.41-.03-.18.03-.31-.19-.59-.55-.16-.31.22-.33.61-.12-.23-1.1-.31-1.74-.51.02.65.73,1.21,1.07,1.65-1.39-.94-.15,1.58-1.51.82-.05-.26-.1-1.01-.63-1.07-1.4-.93.25,1.41-.74,1.26l1.05.88c-.78-.42-.13,1.19-1.03.14.19.5-.85.17.12,1.08-1.51-.09-1.28,2.22-3.39.98.05.26-.37.36.17.79.69.35-.13-.62.29-.32-.06.12.17.4.29.54-.44,0-.68.12-1.25-.88-1.08-.08,1.07,2.11.07,2.38-.36-.41-.56-.51-.68-.27l.32,1.01c-.57.26-1.12-.64-1.8-1.28-.11.33-.41.57-.01,1.15-.38-.18-.71-.38-1.07-.56.77.4.26.55.35.8l-.09-.25c-.32-.23-.35.17-.37.37.46.35.84.27,1.07.26.22.37.01.46.27.89-.65-.64-.77-.12-.97,0-.31.08.47.73.41.76-.38-.29-.3.27-.71-.29-.07-.16.48.13.24-.24-.37-.09-1.02-.6-.75.04.2.47,1.48,1.02.73,1.05-.11-.23-.39-.46-.59-.74-.22.03-.44.05-.66.1l.66.5c-.21-.07-.24-.15-.35-.19.64.62-.19.75.57,1.39-.06.24-.76.08-.96.23l-.04-.08c-.56-.02-.49.48-.14.98l-.15-.11c-.14.1-.22.48.1.89-.74.01-2.77-1.47-2.09-.56-.18.38,1,1.32,1.54,1.44-.85.36-.06,1.72-1.51,1.73.25.25.46.29.54.57-.81.8-.14,2.48-2,2.55-.18-.44-.74-.38-1.17-.57.56.56-.83-.04.28.59.69.3,1.01.48,1.41.32.09.77-.33,1.67-1.12,1.71.39-.02.54.2.69.42-1.07-.54-1.43-.16-1.2.35l.65.35-.78-.08c.16.23,1.33.76.55.81-.26-.1-.54-.19-.75-.21.39.59,1.1,1.48.38,1.62l-1.11-.1c.04.21.51.73.92.57-.87.4-1.12.8-2.06.65,1.61,2,1.03,3.66.36,4.94l-.49-.24c-.62.17.82.53.37.64-.44-.3-1.16-.13-1.65-.65-.74.31.63,1,.73,1.43.65.31-.33-.43.5-.04.22.15-.79.52.19.98-.45-.02-1.16-.4-1.54-.63l.37.5c-1.33-.06-1.78-1.68-3.4-1.83l.05.36c-1.17-.12-.9-1.24-1.55-.63.38.51,1.75,1.34,2.3,1.22.03.77,2.3,1.21,1.95,1.89-.67-.03.07-.62-.82-.8-.95.03.21.85-.19,1.04.51-.19,1.43.47,1.54.75-.61.19-.88-.59-1.17-.11.56.3.82.93,1.38.67,1.26.67-.56.4.37,1.05-1-.17-1.98-1.32-2.65-.92.94.24.98,1.14,2.43,1.33-.34.13-1.06-.11-1.56-.47-.67.12,1.38,1.36-.45.82l.89.44c-.34,0-.61.05-1.17.04-.12.28.93,1.34-.46.83.11.14-.17.76.88.85.73-.19-.55-.71.84-.47-1.17-.1-.06.62.21.97l-.55-.15c.16.21-.06.48.49.77-.28-.21-.66-.29-.83-.22l.78.43c.22.7-1.5-.37-1.44.25l-.5-.63c.11.14-.73.06-.56.41.72.36,1.56.86,2.12,1.15.23.42-.9-.15-.23.41l-.77-.7c-.23-.14-1.34-.16-1.46.26.17.35,1.13,1.13,1.68.85-.06.21-.61.34-1.11,0,.1.55.83.21,1.17.77-.56,0-1.45.26-2.29.33l-1.12-.84-.11.28c-.89-.7-.84-.07-1.84-.64-.23.14.06.49.27.77,1.9,0,2.13,1.41,3.75,1.76.17.9-3.96-.77-1.78.83.45,0,1.52.77,1.23.14-.33.42,1.46.84.63,1.19-.51-.63-1.73-.07-2.47-.97.51.21.5-.21.39-.35-.66,0-1.56-.56-1.72-.06.05.35-.05.77.78.97.9.28.05-.49.9,0,.12.7-1.28.36.23,1.11,0-.42.95-.21,1.57,0l.23.56-.57-.28c-.65.56,1.01.55.64,1.18l-1.28-.06c-.96-.49.77-.84-.92-1.25-.21.42.58.83.02,1.12-.11-.14-.11-.28-.23-.42-.11.14-2.35-.4-1.26.64.4.48.56.27,1.18.48-.04.77.53,1.18.48,1.67-1.18-.47-.37.77-1.45-.12.78-.01,1.03-1.06-.04-1.68-1.51-.19.38-.5-1.02-1.11-.21.56-1.62.09-2.57-.11-.11.14.23.42.34.56.85.34.9.13,1.8.4-.44.56-.14,1.34.59,1.95-.5.08-1.35-.26-1.35-.54.02.84-.35,1.62-.83,2.27,1.56-.03.09.91,1.37.95.44-.29,1.55-.31,2.13.1-.17.21-.62-.2-.96-.19.68.54-1.39.1-.26.77-.25-.83-1.69-.66-2.77-1.13.47.69-.79-.26-.94.24.47.69.77,1.46.85,2.09-1.27.39-.55,1.77-.69,2.41-.66.16-1.86-.43-2.18-.14-.1.43,1.46.09.7.54l-.23-.13c.24.27-1.19.89.58,1.6l-1.32-.59c-.16.08.13.28.24.42-.45-.12-.89-.1-1.13-.38-1.06.11-.08.85-.16,1.28l.89-.04c.43.9-.51,1.15-.41,1.92l-.79-.24.36.54c-.74-.32-1.35-.07-.76.32l-1.65-1.62c.55-.17.87.6,1.71.63.73.03.69-.67-.04-.99-.16.22.01.28.25.55-1.13-.23-.98-.59-1.67-.98,0,.14-.38.23-.04.36-.47-.41-.48-.69-.39-1.12.35.41.73.04,1.01.24-.97-.31-1.15-.8-.73-1.25,1.23-.05-.44-1.19.05-1.71.91.53,1.61,1.07,1.9,1.55.61-.23.09-.43.7-.66-.68-.4-1.77-.85-2.07-1.48l.73.19c-.24-.56-1.31-.87-.94-1.39.64-.87.95-1.88,1.26-2.6l.73.19c-1.42-.88-.15-1.55-.67-2.32.98-.74-.05-2.28,1.34-2.38-.03-1.84-.1-3.48.72-5.13l.95.63c-.67-.56.67,0,.61-.36-.95.07-.95-.77-1.51-1.2,1.07-.5.5-1.78,0-2.71l.73.21c-1.11-1.14.34-1.57.86-2.35.33,0,1.06.08,1.06-.2-.99-.86-.83-1.08-1.31-2.01.18-.5.75-1.21,1.38-1.55-.95-2.45.79-3.99.56-6.29l.88.18c-1.05-2.57,1.48-4.25,1.25-6.22l1.34.74c.64-.32.11-1.29-.93-1.59.64-.32-.15-1.55,1.14-1.37.48-.4-.36-.91-.36-1.42.98-.8,1.04-1.23,1.24-2.32l-.2.2c.25.25.84.53,1.03.33-.22-.54.99-1.15-.82-1.57,1.45-.57.42-2.81,2.22-3.18-.48-.15-.43-.44-.67-.71.45-.93,1.9-1.4,1.58-2.54.3-.02.6.65.85.31-.03-.31-.55-.33-.63-.75.08-.99.7-1.62,1.5-2.19.77-.57,1.59-1.04,2.03-1.79.14-.38.28-.74.48-1.1.21-.36.45-.72.69-1.06l.38-.51.33-.38c.22-.25.44-.48.67-.72.91-.94,1.88-1.79,2.71-2.72l.23.28c-.38-1.58,2.35-.35,1.39-2.31.38.12.66-.39,1.04.21-.19-1.17,1.99-.58,1.84-2.15-.09.03-.07.12-.04.31,1.25-.07,1.13-1.46,2.37-1.61.03.19-.03.4.19.69.75.25-.35-1.78.99-.6.16-.16-.46-.76-.54-.63,2.15-.93,3.18-3.37,4.75-5.16,1.97-.23,1.94,2.23,2.15.39.3.2-.36-.57-.12-.3.09-.7,1.84,1.04,1.54.1-.78-.76-.19-.62-.59-1.14,1.23-.09,1.98.56,2.11-.59l.3.49c-.22-1.84,1.18-1.8.73-3.76,2.02-1.75,4-3.46,5.97-5.15,2.05-1.65,4.11-3.3,6.42-4.65,1.18-.58,2.38-1.14,3.56-1.73,1.16-.61,2.38-1.18,3.59-1.73,2.43-1.11,5.04-2.01,7.89-2.34,1.68,1.1,1.74.99,2.97.1,0,.25-.07.32.07.52-.21-1.2.93-.32.8-1.49l.43-.05c.08,0,.05.01.08.01.03,0,.06,0,.08,0,.14-.05.17-.19.24-.26.09.12.82,1.01.82.89-.18-.24-.38-.46-.58-.69l.29.27c-.12-.18-.63-.65-.97-.96-.11-.11-.19-.16-.22-.17-.03-.01-.02-.07.02-.09.04-.02.11-.04.2-.08l.15-.06s0,.03.01-.03l.03-.18.07-.37c.05-.24.1-.48.17-.73.14-.48.29-.95.5-1.41,1.58-3.7,5.14-6.13,8.87-6.43,3.69-.35,7.41,1.38,9.55,4.29.8,1.52,1.57,3.45,1.72,5.55.03.26.03.52.03.78,0,.26,0,.58,0,.59.02.17.04.34.05.51.04.34.08.66.12.96-.24.42-.48.84-.71,1.25l-.34.62-.04.08s-.04.14-.06.2l-.13.45c-.09.3-.2.59-.32.87-.96,2.28-2.72,3.97-4.71,4.87-1,.46-2.07.73-3.14.81-.27.02-.54.03-.8.02-.26,0-.59-.02-.62-.03-.21-.02-.42-.03-.64-.04-.86-.02-1.73.07-2.64.32,0,0,.59-3.14,2.1-3.81Z"/>
      <path class="cls-1" d="M99.12,177.57c.62.04,1.05-.27,1.76.26-.56-.11-1.24-.08-1.76-.26Z"/>
      <path class="cls-1" d="M108.2,168.82c-.17-.07.28-.08.39-.08,0,.14.46.41.12.42,0-.14-.29-.21-.51-.34Z"/>
      <path class="cls-1" d="M109.36,166.28c.51.2.74.89.7,1.25l-.7-1.25Z"/>
      <path class="cls-1" d="M112.27,164.49c.51-.07.73.06.62.34-.28-.07-.39-.2-.62-.34Z"/>
      <path class="cls-1" d="M111.14,163.95c.05-.21.39-.21.72-.22-.45-.13.13.56-.72.22Z"/>
      <path class="cls-1" d="M114.36,159.13c0-.14-.34-.56.28-.49-.44,0,.45.83-.28.49Z"/>
      <path class="cls-1" d="M114.41,156.42c.06-.07.17-.07.05-.21.28-.06.61.22.62.36l-.67-.15Z"/>
      <polygon class="cls-1" points="134.31 116.19 134.29 116.58 133.95 116.16 134.31 116.19"/>
      <path class="cls-1" d="M150.01,103.15c.02-.44.45.3.53.34-.17.19-.31-.6-.53-.34Z"/>
      <polygon class="cls-1" points="157.85 94.93 157.78 94.98 157.26 94 157.85 94.93"/>
    </g>
  </g>
</svg>