<?xml version="1.0" encoding="UTF-8"?>
<svg id="Layer_3" data-name="Layer 3" xmlns="http://www.w3.org/2000/svg" viewBox="0 0 300 300">
  <defs>
    <style>
      .cls-1 {
        fill: #fff;
      }

      .cls-2 {
        fill: #202020;
      }
    </style>
  </defs>
  <g>
    <polygon class="cls-1" points="157.11 81.88 195.1 93.97 190.07 109.65 153.49 96.72 157.11 81.88"/>
    <g>
      <path class="cls-2" d="M157.68,80.96c-.43,0,.06.54-.32.13.12-.2.25-.35.32-.13Z"/>
      <path class="cls-2" d="M156.08,83.02c1.14,1.62-.73,2.93-.15,4.55.02.18-.78-.24-.68.18.79,1.62-.39,3.58-1.66,5l-.2-.15c-.11.12-.03.4.08.63.1.24.22.45.12.63-.16,0-.19-.13-.43-.05.45.11.04.72.37.84-.23.17-.61.21-.88.47.17.05.34.08.51.11.51.12.53.34.4.66-.13.31-.41.73-.41,1.03.14.03.31.03.53,0-.17.07-.35.11-.42.21,2.04-.08,3.07.43,4.43.61-.11.16-.27.46-.27.68.25-.5.68-.5,1.05-.48-.04.59.75-.29,1.04.15l-.08.11c.49-.46.32.48.79-.11l.04.49c.39-.71.28.54.66.24l.05-.16c.29-.1.28.32.53.26v.1c.55-.03.69.5.88-.1,0,.53-.55.05-.52.83,1.83-.03,3.46.67,5.09,1.24.1.3.19.42.16.65.2-.06.65.11.91-.14-.06,0,0,.34.07.4.22.33.55-.53.79-.15-.19.11-.3.29-.33.52.44-.36.79-.16,1.17-.19-.09.08-.19.11-.24.3.54-.39.62.34,1.05.12l-.24.3c.36.59.4-.66.75-.26-.14.07-.15.22-.22.35.63-.47,1.22-.04,1.7-.1-.04.04-.07.13-.07.13.47.08.87.44,1.45.34.12.21-.35.81.16.85.22-.69.9,0,.89-.87.36.25.91.73,1.26.6-.27.2-.1.9-.45.84l.11.5c-.14.27-.23-.19-.27.19.18.03.76-.07.87.1.46-.31,1.02-.99,1.55-.9-.33.18-.13.8-.33.86l1.16-1.06c.18.03-.15.55.15.46.05-.19.2-.26.32-.38.04.1.75.07.59.77-.02.29-.32.05-.22.35.31.1.41-.12.72-.02l-.03.09c.17.17.7-.08.61-.52-.13-.07-.09.42-.23.15.28-.34.68-.32.99-.22-.14.07-.19.26-.3.43.6-.38,1.1-.39,1.64-.45.12-.32-.38.52-.39.33.44.65,1.45-.2,1.71.63-.1.03.12-.47.09-.38.27.14.09.6.34.49-.08.28.26,0,.49-.02.17-.16,0,.15-.17.12.17-.07.57-.11.97-.06.19.02.44.08.57.14.09.05.17.13.24.26.05-.19.3-.64.34-.6l-.06.45c.05.3.24.04.26.46.07-.26-.07-.19-.24-.11-.17.08-.36.16-.2,0,.04.41.37-.62.29,0,.18.05.26-.46.46.06-.05-.09-.06.63.1.66.26,0,.04-.21.21-.31.02-.06.05-.11.07-.17-.13-.51.21.14-.04-.47.17.44.17-.17.5.71l.24.69c.11,0-.11-.67-.2-.97.04.07.13.22.18.34-.2-.44-.2-.5-.15-.47.03-.03.18.07-.07-.46.26.17.15-.37.58.05-.15-.41-.36-.75-.16-.76.06.09.06.15.21.3.24.08.07-.13-.02-.31.1.11.5.1.83.08-.17-.32-.62-.45-.87-.6.41.13.32-.06.21-.2-.09-.2-.16-.5.26-.53.08.13.27.54.55.37.9,0-.44-.72.09-1.01l-.71-.11c.48-.05-.19-.74.48-.48-.2-.22.38-.42-.29-.59.78-.51.2-1.78,1.52-1.82-.08-.13.11-.34-.24-.4-.42.05.19.31-.08.29,0-.09-.17-.17-.25-.21.22-.16.32-.32.81.06.56-.34-.97-.85-.51-1.37.26.12.38.1.4-.09l-.36-.49c.23-.36.69-.02,1.16.12-.01-.23.09-.48-.22-.69l.66-.07c-.48.06-.22-.28-.31-.38.03.03.06.06.09.11.21,0,.14-.18.11-.27-.31-.03-.46.04-.58.13-.17-.17-.11-.2-.33-.34.46.13.39-.1.47-.18.14-.1-.41-.14-.38-.16.26,0,.09-.14.43-.07.07.04-.27.07-.07.13.21-.05.66-.05.38-.2-.22-.1-1.01.06-.63-.12.11.03.32.02.49.05.11-.07.22-.14.33-.23l-.47.05c.13-.04.16-.03.23-.05-.49.02-.07-.26-.64-.14-.03-.05.4-.25.48-.36h.04c.34-.21.19-.3-.15-.2l.12-.05s.03-.1-.07-.1c-.09.02-.19.06-.32.11.28-.26,1.9-1.12,1.06-.81-.22-.06-1.1.48-1.34.7.05-.14-.18-.1-.33-.09-.16,0-.25,0-.13-.33-.15.14-.2.23-.33.3-.09-.12-.32-.06-.46-.06-.02.02-.25-.06-.4-.17-.16-.11-.29-.28-.37-.53.28-.1.15-.41.22-.65-.3.31-.1-.45-.36.16-.1.38-.18.56-.01.78-.52.06-1.2-.16-1.34-.59.07.21-.06.3-.2.38.22-.59-.08-.78-.4-.65l-.15.35-.04-.43c-.13.09-.35.73-.49.3.03-.14.06-.29.05-.41-.36.21-.88.6-1.07.2l-.06-.6c-.14.02-.44.27-.28.5-.38-.47-.68-.61-.69-1.12-1.19.86-2.41.51-3.35.13l.12-.26c-.18-.34-.29.43-.41.19.17-.23-.02-.63.29-.88-.28-.41-.63.32-.91.37-.15.35.27-.17.08.27-.08.11-.43-.44-.66.08-.03-.24.17-.62.29-.82l-.31.19c-.08-.72.99-.93.95-1.8l-.24.02c-.02-.63.76-.46.29-.82-.31.19-.76.92-.63,1.22-.52,0-.63,1.22-1.13,1.01-.04-.36.43.05.48-.42-.1-.51-.56.09-.73-.13.17.28-.2.76-.39.81-.18-.34.33-.46-.02-.63-.16.29-.57.42-.35.73-.36.67-.32-.32-.7.17.04-.54.75-1.03.42-1.41-.09.5-.71.49-.72,1.27-.11-.19-.01-.57.2-.83-.13-.37-.83.7-.6-.27l-.23.47c-.02-.18-.08-.33-.11-.64-.2-.07-.85.46-.6-.28-.09.06-.53-.12-.52.45.18.4.44-.27.38.47-.02-.63-.43-.06-.66.08l.06-.29c-.13.08-.34-.05-.5.24.13-.14.15-.35.09-.44l-.24.4c-.47.09.15-.8-.27-.79l.4-.25c-.09.05-.09-.4-.32-.32-.2.38-.48.81-.64,1.1-.27.1.05-.48-.3-.14l.43-.39c.08-.12.02-.72-.27-.8-.23.08-.7.56-.48.87-.15-.04-.27-.35-.07-.6-.37.03-.09.44-.46.6-.03-.3-.27-.79-.37-1.25l.51-.57-.2-.07c.43-.45,0-.45.32-.97-.11-.13-.33,0-.51.11.11,1.03-.83,1.09-.98,1.95-.61.05.3-2.11-.67-1,.02.24-.44.78-.03.66-.31-.2-.49.75-.78.28.4-.24-.05-.93.53-1.29-.12.26.17.28.26.22-.04-.36.29-.82-.05-.93-.23.01-.53-.06-.62.38-.14.47.34.05.05.48-.47.03-.31-.71-.75.07.28.02.2.53.09.85l-.37.1.16-.29c-.42-.38-.33.52-.78.29l-.03-.69c.28-.5.62.46.81-.44-.3-.13-.54.27-.76-.04.09-.05.18-.05.27-.1-.1-.06.15-1.25-.5-.72-.31.19-.16.29-.27.61-.53-.06-.78.22-1.12.17.27-.61-.55-.24.01-.78.05.42.78.62,1.14.07.06-.81.36.23.71-.49-.39-.14-.14-.88-.05-1.38-.1-.07-.27.1-.36.16-.19.44-.04.48-.19.95-.41-.27-.92-.15-1.3.22-.08-.27.11-.71.3-.7-.57-.03-1.12-.28-1.58-.57.09.85-.62,0-.59.68.22.25.28.85.03,1.14-.15-.1.11-.32.09-.5-.34.34-.13-.76-.54-.18.56-.09.38-.88.66-1.43-.45.22.15-.41-.2-.52-.45.21-.96.33-1.39.33-.31-.71-1.23-.4-1.67-.52-.13-.37.23-.98.02-1.17-.29-.08-.01.78-.34.34l.08-.12c-.18.11-.64-.7-1.07.21l.36-.67c-.06-.09-.19.05-.28.1.07-.23.04-.47.22-.58-.11-.58-.58-.1-.87-.17l.05.48c-.6.17-.79-.35-1.31-.35l.15-.41-.36.16c.2-.38.02-.72-.24-.43l1.06-.78c.13.31-.38.43-.38.87,0,.39.47.42.67.04-.15-.1-.19-.01-.37.1.13-.59.38-.49.62-.83-.1,0-.17-.22-.24-.04.26-.23.45-.21.74-.14-.27.16,0,.39-.13.53.18-.5.51-.57.82-.31.07.66.79-.16,1.15.13-.33.46-.68.8-.99.93.18.34.29.08.47.42.25-.34.52-.9.94-1.02l-.1.38c.37-.09.55-.65.9-.42.61.4,1.3.62,1.79.83l-.1.38c.54-.72,1.04,0,1.54-.23.54.57,1.53.09,1.66.84,1.24.08,2.33.11,3.48.63l-.37.49c.34-.34.04.36.27.35-.1-.52.47-.48.73-.77.39.59,1.22.35,1.81.11l-.1.38c.7-.56,1.07.24,1.62.55.02.18.01.57.2.58.51-.51.67-.41,1.26-.64.34.11.85.44,1.13.79,1.56-.45,2.71.52,4.22.43l-.04.47c1.6-.53,2.93.84,4.2.7l-.35.72c.27.34.86.05.94-.51.28.34.99-.09,1.01.6.31.25.55-.21.88-.22.62.51.91.53,1.63.61l-.15-.1c-.13.14-.24.46-.08.56.32-.13.86.5.9-.49.14.19.32.29.52.35l.16.04.26.06.57.11c.75.15,1.56.34,1.91.84.08-.25.42-.19.68-.29.58.18,1.05.46,1.52.69.47.23.94.4,1.64.39.02.14-.78.21-.38.37.38.02.4-.23.91-.22l.31.04c-.07.78-.54,1.78-1,2.68-.47.91-.93,1.72-1.11,2.47-.09.68-.27,1.51-.43,2.15-.09.43-.21.86-.34,1.28-.26.84-.56,1.65-.78,2.46l-.18-.08c.52.75-1.11,1.02-.2,1.77-.21.07-.24.45-.56.25.18.29-.03.55-.23.84-.1.14-.2.29-.25.46-.02.08-.03.17-.02.26.02.13.04.25.06.38.05-.08.04-.18-.02-.28-.36.43-.48.94-.6,1.46-.12.52-.25,1.08-.58,1.49-.03-.17-.02-.41-.17-.57-.22.07-.12.44-.09.77.04.32.02.59-.38.3-.07.23.3.57.33.39-.43.86-.73,1.84-1.01,2.98-1.33-.35-2.73-.58-4.26-.99-.94-.62-.89-1.02-.85-1.25.03-.23.12-.29-.57-.17-.07-.21-.15.32-.13.13-.58.07-.56-1.29-.89-.89-.1.56-.25.25-.37.57-.52-.57-.48-1.1-1.13-.87l.14-.27c-.87.58-1.41-.09-2.24.65-3.34-.99-6.66-1.6-9.9-2.62-3.1-1.29-6.34-1.97-9.38-3.59-.49-1-.56-1-1.49-1,.08-.11.14-.12.12-.25-.25.59-.6-.15-.88.4-1.15-.53-2.3-.75-3.52-1.18.22,0,.49-.46.24-.5l-.38.3.02-.18c-.19.03-.46.27-.37.52l-.26-.05c-.09-.02-.31-.09-.46-.13l-1-.31c-.67-.21-1.33-.44-1.98-.68-1.3-.48-2.54-.99-3.71-1.5.57-1.77,1.13-3.54,1.7-5.3l.68-2.22c.13-.44.25-.88.34-1.33.44-.67.46-1.78.52-2.61,1.41-2.17,2.6-4.14,2.6-6.68,0,0,1.53.71,1.66,1.79Z"/>
      <path class="cls-2" d="M158.17,81.04c-.01.33.2.58-.14.92.06-.3.03-.66.14-.92Z"/>
      <path class="cls-2" d="M164.38,86.48c.04-.09.06.16.07.21-.1,0-.26.22-.28.04.1,0,.13-.14.21-.26Z"/>
      <path class="cls-2" d="M166.17,87.24c-.11.26-.58.35-.82.31l.82-.31Z"/>
      <path class="cls-2" d="M167.53,88.91c.08.28,0,.39-.2.32.03-.15.12-.2.2-.32Z"/>
      <path class="cls-2" d="M167.85,88.33c.14.04.16.22.19.4.07-.23-.38.04-.19-.4Z"/>
      <path class="cls-2" d="M171.33,90.31c.1,0,.36-.16.35.17-.03-.24-.55.21-.35-.17Z"/>
      <path class="cls-2" d="M173.19,90.45c.05.04.06.09.15.04.06.16-.11.32-.2.32l.06-.36Z"/>
      <polygon class="cls-2" points="189.65 103.95 189.57 103.72 189.83 103.84 189.65 103.95"/>
      <path class="cls-2" d="M182.08,104.57c-.25.1-.04-.3-.06-.35.18.03-.18.31.06.35Z"/>
      <polygon class="cls-2" points="174.23 103.3 174.29 103.31 174.08 103.86 174.23 103.3"/>
    </g>
  </g>
  <g>
    <polygon class="cls-1" points="157.97 81.42 193.89 91.85 217.05 28.14 172.12 15.09 157.97 81.42"/>
    <g>
      <path class="cls-2" d="M158.74,80.66c-.81-.11.29.55-.56.04.16-.17.36-.27.56-.04Z"/>
      <path class="cls-2" d="M159.17,78.94c-.77-2.82,1.27-5.88,1.03-8.84.01-.34.7.24.68-.54-.44-2.91,1.07-7.03,2.56-10.15l.16.24c.28-.59-.23-1.5,0-2.14.14.02.15.25.36.14-.37-.25.07-1.24-.17-1.58.21-.23.53-.13.78-.44l-.38-.48c-.87-1.29.62-2.55.36-4.11.09.09.14.25.27.16-.17-2.45.57-5.32.87-7.95.14.14.42.3.63.18-.46-.23-.41-1.06-.36-1.77.57-.21-.2-1.28.25-2.04l.1.09c-.39-.71.49-.83-.03-1.45l.47-.3c-.65-.41.55-.79.3-1.36l-.15-.02c-.07-.5.33-.67.31-1.13l.09-.02c.03-1.06.55-1.56,0-1.66.51-.26-.01,1.03.75.6.15-3.46.99-6.89,1.7-10.25.3-.34.42-.56.65-.61-.04-.36.17-1.29-.05-1.65-.01.11.33-.16.39-.33.34-.57-.46-.8-.07-1.42.09.3.25.43.47.38-.3-.68-.08-1.38-.06-2.18.06.15.08.34.26.37-.16-.45-.05-.83.07-1.14.12-.32.25-.57.19-1.04l.22.51c.54-.66-.5-.9-.1-1.66.03.35.15.39.25.57-.08-.41-.1-.83-.08-1.24.69.02,1.68.37,2.32.41-.05.03-.02.13-.02.13,1.01.22,2.06.71,3.07.74.32.24-.34.72.65.89.15-.63,1.69.21,1.34-.66.78.34,2,.95,2.61.89-.43.13.18.88-.52.73l.4.53c-.15.23-.5-.24-.43.13.35.07,1.41.11,1.68.3.74-.2,1.52-.75,2.56-.53-.55.1.07.77-.28.78l1.77-.78c.35.07-.07.51.47.49.02-.17.26-.21.45-.3.11.11,1.45.25,1.42.91.08.28-.59-.03-.28.3.63.18.72-.03,1.34.15v.09c.37.21,1.28.09.93-.38-.28-.1,0,.4-.37.1.39-.27,1.15-.16,1.78.01-.24.04-.26.21-.4.36.98-.24,1.91-.13,2.91-.06.1-.29-.5.43-.6.24,1.09.75,2.65.15,3.48,1.03-.18,0,.03-.44.02-.36.57.21.42.62.84.57-.04.26.5.06.91.1.25-.12.07.15-.28.08.6-.06,2.88.19,4.02.92.02-.17.94-.38,1.23-.28l-.22.35c.2.31.97.25.93.59.75-.29-2.48-.29-1.54-.41.12.38,1.33-.28,1,.2.58.15,1.27-.12,1.71.4-.14-.11-.62.4-.15.51.84.17.29-.12.99-.05l.46-.04c.14-.37.72.26.54-.24.01.34,1.25.16.98.75l-.26.46c.37.07.73-.35,1.07-.48.03.06.1.18.06.26.27-.73.83.31,1.42-.15.33.24.81.38,1.22.54.21.08.4.16.56.25.23.12.42.25.49.4.9.02,1.93.02,2.81.45-.26,0-.55-.06-.73.06.42.36.71.23,1.4.3-.22.05.69.65.91,1-.02.03-.04.05-.05.07.04.58.65.13.95.05-.63.59-.67,1.07-.74,1.66-.07.57-.17,1.26-.71,1.73,0-.31.01-1.14-.43-.49-.54.35-.49.64-.44,1.07.07.38.07,1.06-.23,1.35l.67.02c-.5.23-.09,1.33-.67,1.03.12.35-.55.9.07,1.02-.98,1.17-.89,3.38-2.24,3.83.03.23-.25.67.09.68.44-.2-.07-.53.2-.57-.05.18.1.28.18.32-.29.37-.45.68-.79.11-.7.8.64,1.32-.01,2.42-.22-.14-.35-.09-.44.28l.18.81c-.37.73-.71.24-1.13.1-.08.44-.28.93-.04,1.23l-.7.31c.51-.23.12.43.16.66l-.03-.23c-.2.01-.27.53-.3.78.27.04.55-.41.72-.65.1.28-.06.59.06.94-.37-.24-.53.56-.69.87-.22.34.21.55.15.66-.21-.07-.26.6-.44.2-.02-.15.31-.22.2-.49-.24.19-.6.03-.52.64.06.46.83.19.31.83-.03-.23-.18-.32-.27-.52l-.46.61.36.16c-.13.06-.13-.02-.2,0,.31.34-.26,1.09.12,1.4-.09.36-.52.63-.68.95v-.07c-.37.32-.42.91-.3,1.34l-.07-.05c-.11.21-.24.75-.12,1.1-.48.46-1.45-.32-1.21.47-.19.57.35,1.13.67.99-.62.92-.44,2.29-1.35,3.02.1.2.22.14.2.47-.69,1.44-.71,3.3-1.86,4.22,0-.49-.36-.16-.57-.23.2.48-.5.3.02.64.34.08.49.18.78-.19-.15.95-.64,2.3-1.12,2.68.24-.19.28.04.3.27-.5-.26-.82.37-.82.93l.3.19-.45.2c.03.23.6.46.11.83-.13-.02-.27-.04-.39.02.08.61.26,1.49-.21,1.95l-.64.28c-.03.26.1.76.39.39-.63.85-.89,1.44-1.4,1.6.4,1.99-.43,4.38-1.19,6.25l-.22-.14c-.41.43.33.42.03.71-.17-.25-.64.21-.78-.3-.52.64.08,1.09.01,1.61.29.19-.06-.46.3-.22.08.12-.61.92-.18,1.21-.25.11-.55-.16-.71-.32l.07.53c-.76.34-.55-1.61-1.44-1.28l-.07.44c-.64.21-.17-1.29-.72-.32.07.53.63,1.17.98.85-.21.98.98.85.58,1.83-.38.17.22-.83-.24-.78-.56.33-.13,1.03-.42,1.4.35-.4.69.17.67.5-.41.43-.33-.5-.64.21.23.22.2.96.6.45.53.49-.45.69-.1,1.26-.53.08-.75-1.11-1.26-.4.47.03.22,1.19,1,1-.24.27-.58.18-.76-.14-.42.35.38,1.36-.51,1.2l.38.31c-.19.09-.37.25-.69.39-.08.19-.04.56-.07.85-.06.38-.23.8-.53.59,0,.23-.57,1.69.04,1.42.62-.84.09-1.27.89-1.56-.74.49-.46,1.46-.55,2.23l-.26-.08c-.04.43-.38,1.19-.25,1.67-.01-.41-.21-.42-.35-.2l.16.76c-.4,1.7-.63-.39-1.04,1.08l.15-1.35c-.03.27-.37.29-.53.85-.04,0-.09-.01-.14-.02,0,.39-.26.78-.37,1.05-.78-.06-.53-.59-1.21-.39.31-.07.61-.14.88-.21.08-.11-.92-.91-1.84-1.17-.55-.02-1.6.23-.51.76-.56-.16-1.29-.61-.86-.77-1.18-.21.15.46-.94.39-.1-.09-.26-.21-.44-.34-.09-.06-.19-.13-.29-.2-.08-.07-.11-.12-.18-.18-.22-.24-.46-.49-.63-.73l.77-.43-.39-.12c.65-.33-.15-.44.28-.87-.25-.16-.62-.08-.92-.02.55,1.04-1.21.86-1.2,1.67-1.14-.11-.15-2-1.62-1.17.13.25-.57.66.18.64-.65-.28-.67.61-1.38.07.68-.13-.41-.94.57-1.13-.13.23.42.32.57.29-.2-.36.27-.73-.42-.93-.44-.05-1.02-.2-1.05.21-.11.43.66.14.26.49-.88-.1-.83-.78-1.4-.13.55.1.55.57.46.86h-.67s.2-.25.2-.25c-.93-.49-.44.43-1.38.07l-.29-.69c.37-.41,1.33.62,1.39-.21-.61-.21-.93.13-1.46-.25.15-.03.33,0,.48-.03-.22-.09-.14-1.19-1.2-.84-.53.1-.2.24-.3.53-1.02-.2-1.41.01-2.07-.13.3-.53-1.12-.39-.24-.76.23.43,1.68.82,2.2.37-.17-.78.76.32,1.17-.3-.8-.25-.56-.9-.57-1.38-.21-.09-.48.03-.63.06-.21.38.08.46-.03.89-.86-.37-1.79-.39-2.4-.13-.24-.29-.03-.67.34-.61-1.1-.19-2.22-.57-3.19-.99.46.86-1.17-.17-.89.52.5.31.82.92.44,1.14-.33-.14.1-.29,0-.48-.54.24-.5-.78-1.09-.33,1.03.07.43-.76.76-1.24-.79.09.14-.37-.55-.57-.78.09-1.71.07-2.52-.04-.83-.78-2.46-.73-3.34-.96-.38-.4.1-.9-.36-1.15-.58-.16.24.77-.54.24l.12-.09c-.3.06-1.46-.86-1.96-.08l.45-.57c-.14-.1-.33,0-.49.03.05-.21-.08-.46.22-.52-.4-.6-1.13-.25-1.71-.4l.26.49c-1.07.01-1.62-.56-2.62-.7l.14-.37-.63.06c.24-.32-.21-.71-.6-.49l1.74-.48c.35.34-.58.32-.43.76.12.38,1.04.54,1.28.22-.33-.14-.37-.06-.67,0,.04-.55.55-.38.9-.65-.18-.03-.39-.26-.47-.11.42-.15.78-.09,1.37.07-.45.09.12.38-.07.49.18-.44.77-.42,1.45-.09.36.68,1.44.05,2.23.44-.47.37-1.01.61-1.57.65.45.38.58.16,1.04.54.35-.27.69-.75,1.43-.76l-.06.35c.67,0,.81-.5,1.57-.18,1.29.56,2.67.96,3.69,1.3l-.06.35c.78-.56,1.98.28,2.84.18,1.21.71,2.93.5,3.43,1.28,2.38.41,4.47.74,6.82,1.55l-.55.38c.53-.24.19.37.64.42-.37-.54.73-.35,1.12-.56.93.69,2.49.69,3.43.58l-.07.35c.35-.25.54-.21.84-.05.28.16.66.45,1.04.62h0c.12.12.38.35.44.07-.12-.51-.17-.76-.19-1.01-.03-.24-.03-.47-.1-.78.03-.08.64-1.34,1.08-1.91.16-2.81,1.59-5.23,2.09-8.03l.46-.05c.09-2.86,2-5.73,2.36-8.07l.59.45c.46-.61.39-1.62-.15-1.62.45-.61.3-1.83,1.01-2.07.38-.66,0-.97.12-1.59.76-1.31.9-1.85,1.25-3.22l-.16.31c.09.2.38.32.54,0,0-.56.84-1.75-.14-1.55.98-1.24.82-3.43,1.95-4.58-.26.04-.18-.32-.27-.52.44-1.24,1.36-2.38,1.35-3.51.18-.16.26.45.46-.05.03-.33-.28-.11-.27-.52.32-2.16,1.9-3.91,2.46-5.78.76-3.4,2.2-6.71,3.26-9.85l.15.09c-.23-1.26,1.52-2.22.89-3.38.24-.19.41-.91.66-.62-.02-1.31.98-1.42.47-1.74-.03.03,0,.04.08.05.27-.2.31-.4.32-.54-.25-.03-.45-.03-.52-.24.1-.05.23-.07.4-.19.04-.16-.25-.06-.43.02-.18.07-.27.1-.12-.28-.13-.03-.28.35-.21.34-.05-.04-.1-.07-.16-.1-.06-.03-.08-.05-.31-.12-.36-.12-.72-.23-1.09-.33-.74-.21-1.49-.38-2.25-.54-1.52-.32-3.08-.59-4.6-.93-2-1.09.26-1.37-1.6-1.27-.09-.19-.19.27-.16.1-.72.03-.76-1.18-1.33-.89.05.54-.38.18-.48.48-1.21-.69-1.35-1.21-2.48-1.14l.15-.23c-1.42.37-2.7-.42-3.96.12-3.35-.89-6.65-1.68-9.93-2.48-1.64-.4-3.27-.8-4.9-1.2-1.54-.4-3.08-.8-4.63-1.2-.03-.04-.08-.07-.13-.08-.01.05-.01.11-.01.15-.27,1.29-.54,2.59-.81,3.89-.56,2.63-1.17,5.26-1.93,7.91-1.02,1.41-1.02,1.53-1.11,3.29-.1-.09-.1-.2-.23-.11.54.21-.2,1.21.3,1.49-.63,2.43-.96,4.72-1.49,7.24.02-.41-.39-.71-.46-.23l.25.57-.17.05c.01.34.22.75.47.46-.87,6.44-3.32,12.43-4.51,18.67-.55,1.42-.78,3.57-1.01,5.19-1.76,4.59-3.28,8.74-3.78,13.67,0,0-1.32-.94-1.23-3Z"/>
      <path class="cls-2" d="M159.69,80.88c.09.32.58.63.04.88.02-.27-.17-.65-.04-.88Z"/>
      <path class="cls-2" d="M173.34,87.91c.04-.08.17.17.21.23-.18-.03-.42.15-.52-.03.19.03.2-.11.31-.2Z"/>
      <path class="cls-2" d="M176.99,89.15c-.13.23-.98.19-1.45.09l1.45-.09Z"/>
      <path class="cls-2" d="M180.14,91.17c.24.29.12.38-.28.26,0-.14.16-.17.28-.26Z"/>
      <path class="cls-2" d="M180.55,90.68c.29.08.39.26.49.44.05-.21-.7-.06-.49-.44Z"/>
      <path class="cls-2" d="M187.83,93.57c.19.03.63-.06.72.26-.13-.25-.97.06-.72-.26Z"/>
      <path class="cls-2" d="M192.78,94.6c.2.08.3.15.51.14.4.24.07.34-.26.27l-.25-.41Z"/>
      <polygon class="cls-2" points="217.72 31.93 217.63 32.53 217.42 32.37 217.72 31.93"/>
      <path class="cls-2" d="M193.27,19.25c-.42.05-.19-.31-.25-.36.35.07-.21.27.25.36Z"/>
      <polygon class="cls-2" points="177.96 16.13 178.07 16.15 177.89 16.64 177.96 16.13"/>
    </g>
  </g>
  <g>
    <line class="cls-1" x1="208.96" y1="25.01" x2="185.34" y2="89.22"/>
    <g>
      <path class="cls-2" d="M209.34,25.33c.03-.26-.26.05-.04-.19.08.07.14.14.04.19Z"/>
      <path class="cls-2" d="M185.94,88.55c-.35-.99.65-1.76.56-2.73,0-.11.33.15.33-.1-.19-.98.57-2.15,1.3-2.99l.07.09c.14-.16-.1-.51.02-.69.07.02.07.1.17.08-.18-.12.04-.39-.07-.53.1-.05.26.01.38-.06l-.18-.19c-.41-.51.32-.75.2-1.28.04.04.07.1.13.08-.07-.81.31-1.65.48-2.46.07.06.2.14.3.13-.22-.12-.19-.38-.16-.61.27,0-.09-.44.13-.63l.05.04c-.18-.27.24-.21,0-.47l.23-.04c-.31-.2.27-.2.15-.41l-.07-.02c-.03-.17.16-.18.16-.33h.04c.02-.33.28-.44,0-.53.25-.03-.01.33.36.27.1-1.1.53-2.11.89-3.11.15-.08.21-.14.32-.13-.02-.12.09-.4,0-.54,0,.04.16-.02.19-.06.17-.15-.22-.31-.02-.46.04.11.12.16.22.17-.14-.25-.03-.46-.02-.69.03.05.04.11.13.13-.15-.31.2-.39.12-.63l.13.13c.3-.24-.28-.21-.08-.44.02.08.09.08.15.12-.18-.35.06-.73.06-1.01.02.02.06.03.06.03.07-.29.26-.54.25-.89.11-.08.36.17.41-.14-.31-.1.06-.54-.35-.49.14-.23.4-.58.36-.78.08.15.42.02.37.23l.24-.09c.12.07-.1.14.07.15.03-.11.02-.45.1-.53-.12-.26-.4-.56-.33-.89.07.19.37.04.38.16l-.43-.65c.02-.11.25.07.22-.11-.08-.02-.11-.1-.16-.17.05-.03.08-.46.4-.39.13,0,0,.19.15.12.07-.19-.03-.24.03-.43h.04c.09-.1,0-.41-.21-.33-.04.08.19.03.06.13-.14-.15-.11-.39-.04-.58.02.08.11.1.18.16-.14-.34-.12-.64-.11-.96-.14-.06.22.2.13.22.33-.29,0-.86.4-1.06,0,.06-.21-.05-.17-.04.08-.17.29-.09.25-.23.13.03.01-.16.02-.29-.07-.09.07,0,.05.1-.04-.2.01-.93.33-1.25-.08-.02-.21-.34-.17-.43l.18.1c.14-.04.09-.3.26-.25-.16-.27-.07.79-.15.47.18,0-.17-.46.07-.31.06-.18-.09-.43.15-.53-.05.04.21.24.25.09.06-.26-.06-.1-.05-.33l-.03-.16c-.18-.08.11-.21-.13-.2.16.02.04-.4.33-.26l.23.12c.02-.11-.19-.27-.26-.39.03,0,.09-.02.12,0-.36-.15.13-.25-.11-.48.21-.18.22-.57.49-.59-.05-.21-.12-.42.03-.59.02.05.01.11.08.15.15-.08.07-.15.05-.29.05.05.31-.17.49-.26-.05-.21-.26-.23-.38-.29.42-.03-.05-.57.35-.65.03.08.08.32.23.21.42-.03-.15-.42.12-.61l-.32-.05c.23-.05-.04-.44.26-.3-.08-.13.21-.26-.09-.34.4-.33.23-1.07.84-1.14-.03-.08.08-.21-.08-.23-.2.04.07.18-.06.18.01-.06-.06-.1-.1-.12.11-.11.17-.2.37.01.29-.22-.39-.48-.14-.81.11.06.17.05.19-.06l-.13-.28c.14-.22.32-.03.53.04.01-.14.08-.29-.05-.41l.31-.06c-.23.04-.08-.15-.11-.23l.03.08c.09,0,.1-.16.1-.24-.13-.03-.24.1-.31.17-.07-.1,0-.19-.08-.32.19.1.22-.16.28-.25.09-.1-.13-.2-.11-.23.11.04.09-.18.2-.04.02.05-.13.05-.07.15.11-.05.28.03.21-.18-.06-.16-.41-.12-.2-.3.03.08.1.12.16.19l.18-.17-.18-.08c.06-.01.07.01.09,0-.17-.13.06-.35-.14-.47.02-.11.21-.18.27-.27v.03c.16-.09.15-.28.07-.43l.04.02c.04-.06.07-.24,0-.36.2-.12.71.2.55-.08.06-.18-.23-.4-.38-.37.24-.27.07-.74.46-.92-.06-.07-.11-.06-.12-.17.24-.44.14-1.06.64-1.29.03.16.18.08.28.11-.12-.17.22-.07-.05-.21-.17-.05-.25-.09-.36.02.01-.31.17-.73.38-.82-.1.05-.13-.03-.16-.11.26.12.37-.07.33-.26l-.15-.08.2-.04c-.03-.08-.31-.19-.1-.29.06.01.13.03.19.02-.07-.21-.21-.51-.01-.64l.29-.06c0-.08-.09-.26-.21-.15.25-.24.34-.43.57-.45-.31-.69-.06-1.43.2-2.01l.11.06c.17-.12-.18-.16-.06-.24.1.09.29-.03.39.15.21-.18-.1-.37-.1-.54-.15-.08.06.16-.13.05-.05-.05.24-.27.01-.39.11-.02.27.09.36.15l-.06-.18c.34-.07.36.57.77.52v-.14c.3-.03.17.44.37.15-.07-.18-.37-.43-.52-.34.04-.31-.52-.34-.39-.65.17-.03-.06.26.16.27.25-.08,0-.33.12-.44-.14.11-.34-.1-.35-.21.17-.12.19.19.3-.03-.12-.09-.15-.33-.31-.19-.28-.2.17-.2-.03-.41.25,0,.42.42.62.21-.23-.04-.18-.41-.54-.4.1-.07.27-.02.37.1.18-.09-.26-.48.17-.37l-.2-.13c.09-.02.16-.06.31-.09.05-.12-.15-.5.17-.37-.02-.05.1-.32-.17-.3-.2.12.09.26-.25.24.29-.03.06-.26.01-.39l.13.03c-.03-.08.05-.2-.07-.29.06.07.15.08.2.04l-.17-.13c0-.28.36.07.39-.19l.08.23c-.02-.05.19-.06.17-.2-.16-.11-.34-.27-.46-.36-.03-.16.22.01.09-.18l.15.25s.33,0,.39-.19c-.02-.14-.21-.4-.37-.26.03-.09.18-.17.28-.06.01-.22-.2-.04-.24-.26.14-.03.39-.19.61-.26l.23.29.05-.12c.18.24.21-.01.43.17.07-.07.02-.2-.01-.3-.49.09-.44-.47-.83-.53.02-.37.96.12.52-.43-.12.02-.33-.24-.3,0,.12-.19-.31-.27-.07-.46.08.23.44-.06.56.28-.11-.06-.14.11-.12.16.17-.03.36.15.44-.06.01-.14.07-.32-.13-.36-.21-.07-.05.2-.23.04.02-.28.35-.21.02-.45-.03.17-.26.13-.4.08l-.02-.22.12.09c.21-.26-.22-.18-.07-.46l.32-.04c.21.16-.26.38.14.47.09-.18-.09-.32.08-.46.02.05,0,.11.03.16.04-.06.57.06.37-.32-.06-.18-.12-.09-.26-.14.07-.32-.04-.46,0-.67.26.14.15-.34.36-.01-.2.04-.35.48-.12.69.37.01-.13.22.18.41.1-.24.42-.11.65-.07.04-.06-.03-.16-.04-.21-.19-.1-.22-.01-.43-.08.15-.25.14-.55,0-.78.13-.05.32.05.3.16.06-.35.21-.68.39-.97-.4.08.05-.37-.27-.34-.13.14-.42.19-.53.05.06-.1.14.06.23.04-.13-.2.36-.1.13-.33,0,.33.38.2.62.35-.07-.27.18.08.26-.13-.06-.27-.08-.57-.05-.82.35-.21.28-.75.37-1.02.18-.09.44.11.54-.02.06-.18-.36.02-.13-.2l.05.05c-.04-.1.37-.41-.02-.64l.29.2s0-.11-.03-.16c.1.04.22.01.25.12.28-.08.09-.35.15-.53l-.23.04c-.04-.35.22-.49.26-.8l.18.08-.05-.21c.16.11.33,0,.22-.15l.28.61c-.15.09-.17-.22-.38-.2-.18,0-.23.3-.07.4.06-.1.02-.12-.02-.22.27.06.2.21.34.35,0-.06.11-.11.04-.15.09.15.07.26,0,.44-.05-.16-.18,0-.24-.06.22.1.22.29.08.48-.32.06.02.47-.15.7-.19-.19-.32-.38-.36-.57-.17.12-.06.18-.23.3.14.14.38.29.41.53l-.17-.05c.02.22.26.31.13.53-.23.38-.39.8-.52,1.1l-.17-.05c.29.3-.08.63,0,.92-.31.34-.16.92-.52,1.02-.13.75-.23,1.41-.56,2.11l-.2-.21c.13.2-.17.03-.18.17.25-.08.19.27.3.41-.31.25-.25.74-.19,1.09l-.17-.05c.21.4-.2.65-.38.99-.08.02-.27.02-.29.14.2.29.14.39.2.74-.08.21-.27.53-.45.7.09.93-.45,1.64-.52,2.55h-.22c.13.94-.61,1.77-.65,2.53l-.31-.19c-.18.17-.09.52.17.55-.18.18-.03.59-.36.63-.14.2.06.32.03.52-.29.39-.32.56-.41,1l.06-.09c-.06-.07-.2-.13-.26-.03.04.19-.3.53.16.53-.39.35-.19,1.09-.66,1.41.12,0,.1.12.16.19-.14.39-.51.71-.44,1.09-.08.04-.15-.17-.22-.01,0,.11.14.05.16.19-.03.7-.68,1.19-.83,1.77-.16,1.09-.65,2.1-.97,3.08l-.08-.04c.19.44-.59.64-.23,1.07-.1.05-.14.28-.28.17.12.34-.47.65-.33,1.12.02-.03.01-.06,0-.11-.32.31-.19.73-.5,1.07-.02-.05-.02-.14-.09-.18-.21.1.21.49-.21.43-.03.09.17.13.18.08-.47.81-.56,1.83-.81,2.77-.47.56-.67-.2-.57.42-.09.01.14.08.05.06.04.24-.55.15-.39.36.26.03.1.14.24.2-.3.34-.54.34-.48.72l-.12-.07c.22.5-.13.85.17,1.31-.67,2.05-1.16,4.07-1.84,6.06-.79,1.92-1.31,3.9-2.26,5.8-.5.34-.5.38-.56.94-.05-.04-.05-.08-.11-.06.26.12-.11.37.13.51-.32.71-.49,1.42-.77,2.17.01-.13-.18-.27-.22-.12l.12.21h-.08c0,.11.1.26.22.19-.46,1.98-1.69,3.64-2.3,5.52-.27.4-.4,1.06-.52,1.56-.88,1.29-1.64,2.46-1.92,3.99,0,0-.63-.44-.57-1.1Z"/>
      <path class="cls-2" d="M209.27,25.62c-.15,0-.29.14-.42-.06.13.03.31,0,.42.06Z"/>
      <path class="cls-2" d="M206.26,29.52s-.08.04-.11.05c.01-.06-.08-.15,0-.17,0,.06.06.07.1.12Z"/>
      <path class="cls-2" d="M205.77,30.61c-.11-.06-.12-.34-.08-.48l.08.48Z"/>
      <path class="cls-2" d="M204.89,31.48c-.13.05-.18,0-.13-.11.07.01.08.07.13.11Z"/>
      <path class="cls-2" d="M205.13,31.65c-.03.09-.12.11-.2.12.1.03,0-.23.2-.12Z"/>
      <path class="cls-2" d="M203.95,33.8c-.01.06.05.21-.11.22.11-.02-.05-.32.11-.22Z"/>
      <path class="cls-2" d="M203.74,34.93s-.05.04-.03.09c-.08.04-.14-.06-.13-.11l.16.02Z"/>
      <polygon class="cls-2" points="197.14 54.36 197.12 54.23 197.23 54.29 197.14 54.36"/>
      <path class="cls-2" d="M194.04,62.8c.03.14-.14.04-.17.05.03-.11.13.09.17-.05Z"/>
      <polygon class="cls-2" points="192.97 67.57 192.98 67.54 193.22 67.64 192.97 67.57"/>
    </g>
  </g>
  <g>
    <line class="cls-1" x1="201.05" y1="22.87" x2="179.13" y2="87.1"/>
    <g>
      <path class="cls-2" d="M201.44,23.18c.02-.25-.26.05-.04-.19.09.07.15.14.04.19Z"/>
      <path class="cls-2" d="M179.71,86.42c-.37-.97.61-1.76.49-2.73,0-.11.34.14.33-.11-.22-.97.51-2.14,1.22-3l.08.09c.13-.16-.11-.5,0-.68.07.02.07.09.18.08-.18-.12.03-.39-.09-.52.1-.05.26,0,.38-.06l-.18-.19c-.42-.5.3-.75.17-1.28.04.04.07.09.13.08-.09-.8.27-1.64.41-2.46.07.06.2.14.31.12-.22-.12-.2-.38-.18-.6.27-.01-.1-.43.12-.63l.05.04c-.19-.27.24-.22-.02-.47l.23-.05c-.31-.19.26-.2.14-.41l-.07-.02c-.04-.17.16-.18.15-.33h.04c.01-.33.26-.44,0-.53.25-.03,0,.33.36.27.07-1.09.47-2.1.81-3.11.15-.08.2-.14.31-.13-.02-.12.08-.39-.02-.53,0,.04.16-.02.19-.07.16-.15-.22-.3-.04-.46.04.1.12.16.23.17-.15-.24-.04-.46-.04-.69.03.05.04.1.13.13-.16-.3.19-.39.11-.63l.13.13c.29-.25-.29-.2-.09-.43.03.08.09.08.15.11-.19-.35.04-.72.03-1.01.02.02.06.03.06.03.06-.29.24-.54.22-.89.11-.09.36.16.4-.15-.31-.09.04-.54-.36-.48.14-.23.38-.58.34-.78.08.15.42,0,.37.22l.24-.09c.12.07-.1.15.08.15.02-.11,0-.45.09-.52-.12-.26-.41-.55-.35-.87.07.19.37.03.39.15l-.44-.63c.02-.11.25.06.22-.12-.08-.02-.11-.1-.16-.17.05-.03.07-.45.39-.4.13,0,0,.19.15.11.06-.19-.04-.23.02-.43h.04c.09-.1,0-.4-.22-.32-.04.08.19.03.06.13-.15-.15-.12-.39-.06-.58.03.08.11.1.19.16-.15-.34-.13-.63-.14-.95-.14-.05.23.2.14.21.32-.3-.03-.85.37-1.06,0,.06-.21-.04-.17-.03.08-.17.28-.09.25-.23.13.03.01-.16.01-.29-.07-.09.07-.01.05.1-.05-.2-.01-.92.3-1.24-.08-.02-.22-.34-.18-.42l.18.1c.14-.04.08-.3.25-.26-.17-.27-.05.79-.14.47.18-.01-.18-.45.06-.31.05-.18-.1-.42.13-.53-.05.04.21.23.25.09.05-.26-.07-.1-.06-.33l-.03-.15c-.18-.07.1-.21-.14-.19.16.02.03-.4.33-.26l.23.12c.02-.11-.19-.26-.27-.38.03,0,.09-.02.12,0-.36-.14.12-.25-.12-.47.21-.18.21-.57.47-.6-.05-.21-.13-.42.02-.59.02.05.01.11.09.15.15-.09.06-.15.04-.29.05.04.3-.18.48-.27-.05-.21-.27-.22-.39-.28.42-.03-.07-.57.33-.65.03.08.09.31.23.2.42-.03-.16-.41.1-.61l-.32-.04c.23-.05-.05-.44.25-.3-.08-.12.2-.27-.1-.34.39-.33.2-1.07.81-1.15-.03-.08.07-.21-.09-.23-.2.04.07.18-.05.18,0-.06-.07-.1-.11-.12.11-.11.17-.2.37,0,.28-.23-.4-.47-.16-.8.12.06.17.05.19-.07l-.14-.28c.13-.22.32-.04.53.02,0-.14.07-.29-.06-.4l.31-.07c-.23.05-.09-.15-.12-.22l.03.08c.1,0,.09-.16.09-.24-.13-.03-.24.11-.3.18-.07-.1-.01-.19-.09-.31.19.1.21-.16.27-.25.08-.1-.14-.19-.12-.22.11.03.08-.18.2-.04.02.05-.13.06-.06.15.1-.05.28.02.21-.18-.06-.15-.41-.11-.2-.29.03.08.11.12.16.19l.18-.18-.18-.07c.06-.01.07.01.09,0-.17-.13.05-.35-.15-.47.02-.11.2-.18.26-.28v.03c.16-.09.15-.28.06-.43l.04.02c.04-.06.06-.24-.02-.36.2-.13.72.18.55-.09.05-.18-.24-.39-.39-.36.23-.27.05-.73.44-.93-.06-.07-.12-.06-.13-.17.23-.44.11-1.05.6-1.3.03.16.18.07.29.1-.13-.17.22-.07-.05-.21-.17-.05-.25-.08-.36.02,0-.31.15-.73.36-.83-.1.05-.13-.03-.16-.1.26.11.37-.08.33-.26l-.16-.08.2-.04c-.03-.08-.32-.18-.11-.28.07.01.13.03.19.01-.08-.2-.23-.51-.03-.63l.28-.06c0-.08-.1-.26-.21-.15.24-.25.33-.43.56-.45-.33-.68-.09-1.42.14-2l.12.06c.17-.12-.18-.15-.06-.24.1.09.29-.04.39.14.21-.18-.11-.36-.11-.53-.15-.08.06.15-.13.06-.05-.04.23-.27,0-.39.11-.02.28.08.36.14l-.07-.18c.34-.07.37.56.78.5v-.14c.3-.04.18.44.37.14-.07-.18-.38-.42-.53-.33.03-.31-.53-.33-.4-.64.17-.04-.05.26.17.27.24-.08,0-.33.1-.44-.14.11-.34-.09-.35-.2.17-.12.19.18.29-.04-.13-.08-.16-.33-.32-.18-.29-.19.17-.2-.04-.41.25,0,.43.41.63.2-.23-.03-.19-.4-.55-.38.09-.08.27-.03.37.09.18-.09-.28-.47.16-.37l-.2-.12c.09-.02.16-.06.3-.09.05-.12-.16-.49.16-.37-.02-.05.09-.32-.18-.29-.2.13.1.26-.24.25.29-.04.05-.26,0-.39l.13.03c-.03-.08.04-.2-.08-.29.06.07.15.08.2.04l-.17-.13c-.01-.27.36.06.38-.19l.09.23c-.02-.05.19-.07.17-.2-.16-.1-.35-.26-.47-.34-.03-.16.22,0,.08-.18l.16.24s.33-.02.39-.19c-.02-.13-.22-.4-.38-.25.03-.09.18-.18.28-.06,0-.22-.2-.04-.25-.25.14-.03.39-.19.6-.27l.23.28.04-.12c.18.24.21-.02.43.16.07-.07.02-.2-.02-.3-.48.1-.46-.46-.85-.51.01-.36.96.1.5-.44-.11.02-.34-.23-.3.01.11-.19-.32-.26-.09-.45.09.23.44-.07.57.27-.12-.06-.14.11-.12.16.17-.04.36.14.43-.07,0-.14.06-.32-.14-.36-.21-.07-.04.2-.23.05.01-.28.35-.21.01-.45-.03.17-.26.14-.4.09l-.02-.22.13.08c.2-.27-.22-.17-.09-.45l.32-.04c.21.15-.25.39.15.47.08-.18-.09-.31.07-.46.02.05.01.11.03.16.04-.06.57.04.36-.33-.07-.18-.12-.08-.27-.14.06-.32-.06-.46-.01-.66.27.14.15-.34.36-.02-.2.04-.33.49-.1.69.37,0-.13.22.19.4.09-.24.42-.12.64-.08.04-.06-.03-.16-.05-.21-.19-.1-.22,0-.43-.07.15-.25.12-.55-.02-.77.13-.06.32.04.31.16.05-.34.2-.68.36-.97-.4.09.04-.37-.28-.33-.13.14-.41.2-.53.06.06-.1.14.05.23.03-.14-.19.36-.1.12-.33,0,.33.38.2.62.34-.07-.26.18.07.25-.14-.07-.26-.1-.56-.07-.82.35-.21.26-.75.34-1.02.18-.09.44.1.54-.03.05-.18-.36.02-.14-.19l.05.04c-.04-.1.36-.41-.03-.63l.29.19s-.01-.11-.03-.16c.1.03.22,0,.26.11.27-.09.08-.35.13-.53l-.23.05c-.04-.35.21-.49.24-.8l.18.07-.05-.21c.16.1.33-.02.21-.16l.3.6c-.15.09-.18-.21-.38-.2-.18.01-.22.3-.06.4.06-.1.02-.11-.02-.22.27.05.2.21.35.34,0-.06.11-.11.04-.15.09.15.07.26.02.44-.06-.15-.18.01-.24-.06.22.09.23.28.09.48-.31.07.03.47-.13.69-.19-.18-.33-.37-.37-.56-.17.12-.05.18-.22.3.14.13.39.28.42.52l-.17-.05c.02.22.27.3.14.52-.22.38-.37.8-.49,1.1l-.17-.05c.3.3-.06.62.02.91-.3.34-.13.92-.49,1.02-.11.74-.19,1.4-.5,2.11l-.2-.21c.14.19-.17.04-.18.18.25-.08.19.26.31.4-.3.26-.23.74-.16,1.09l-.17-.05c.22.4-.18.65-.35.99-.08.02-.26.03-.28.14.2.29.15.38.22.73-.07.21-.26.53-.43.7.11.92-.41,1.64-.46,2.54h-.22c.15.93-.57,1.78-.58,2.53l-.32-.18c-.18.18-.08.52.18.54-.18.18-.02.59-.34.63-.14.2.06.32.05.52-.28.39-.3.57-.38,1l.06-.09c-.06-.07-.2-.12-.26-.03.04.19-.28.53.17.52-.38.36-.16,1.09-.62,1.41.12,0,.11.12.17.19-.13.39-.49.72-.41,1.09-.08.04-.15-.16-.22,0,.01.11.14.05.17.19,0,.69-.64,1.19-.78,1.78-.13,1.08-.6,2.1-.89,3.08l-.08-.04c.2.43-.58.65-.2,1.07-.1.05-.14.28-.27.17.13.33-.45.65-.3,1.12.02-.03,0-.06-.01-.11-.31.32-.18.73-.47,1.07-.02-.05-.02-.13-.1-.17-.21.1.22.48-.2.43-.03.09.17.13.18.07-.45.82-.52,1.83-.74,2.77-.45.57-.67-.18-.55.43-.09.02.14.08.06.06.04.24-.54.16-.38.37.26.02.1.14.25.19-.29.34-.53.35-.46.72l-.12-.07c.23.49-.1.85.2,1.3-.62,2.05-1.05,4.07-1.68,6.06-.74,1.92-1.21,3.9-2.1,5.8-.49.35-.49.39-.53.94-.05-.04-.05-.08-.11-.06.26.12-.1.37.15.51-.3.72-.46,1.42-.71,2.17.01-.13-.19-.26-.22-.12l.12.21h-.08c0,.11.1.26.23.19-.41,1.97-1.59,3.65-2.16,5.53-.26.4-.37,1.06-.48,1.56-.85,1.29-1.57,2.47-1.81,4,0,0-.64-.43-.6-1.08Z"/>
      <path class="cls-2" d="M201.37,23.47c-.15,0-.28.14-.42-.05.13.03.3,0,.42.05Z"/>
      <path class="cls-2" d="M198.47,27.4s-.08.04-.1.05c0-.06-.09-.15,0-.17,0,.06.06.07.11.12Z"/>
      <path class="cls-2" d="M198.01,28.5c-.12-.06-.13-.33-.09-.48l.09.48Z"/>
      <path class="cls-2" d="M197.15,29.37c-.13.06-.18.01-.14-.11.07.01.09.06.14.11Z"/>
      <path class="cls-2" d="M197.4,29.54c-.03.09-.11.11-.2.13.1.03,0-.22.2-.13Z"/>
      <path class="cls-2" d="M196.27,31.7c0,.06.05.21-.1.22.11-.03-.06-.32.1-.22Z"/>
      <path class="cls-2" d="M196.09,32.82s-.05.04-.03.09c-.08.04-.14-.05-.14-.11l.16.02Z"/>
      <polygon class="cls-2" points="190 52.25 189.98 52.12 190.1 52.18 190 52.25"/>
      <path class="cls-2" d="M187.13,60.7c.04.14-.14.04-.16.05.02-.11.14.09.16-.05Z"/>
      <polygon class="cls-2" points="186.18 65.46 186.19 65.42 186.43 65.52 186.18 65.46"/>
    </g>
  </g>
  <g>
    <line class="cls-1" x1="189.66" y1="18.79" x2="173.14" y2="84.74"/>
    <g>
      <path class="cls-2" d="M190.08,19.06c0-.26-.25.08-.06-.18.09.06.16.12.06.18Z"/>
      <path class="cls-2" d="M173.66,84.02c-.45-.94.46-1.8.26-2.76,0-.11.35.11.32-.13-.3-.95.33-2.18.97-3.09l.08.09c.12-.17-.15-.49-.05-.68.07.01.08.09.18.06-.19-.1,0-.39-.13-.51.1-.06.26-.01.37-.09l-.2-.17c-.46-.46.24-.78.06-1.29.05.03.08.09.14.07-.15-.79.13-1.66.21-2.49.07.05.21.12.31.09-.23-.1-.23-.36-.22-.58.27-.03-.13-.42.06-.64l.05.04c-.21-.25.22-.24-.06-.46l.22-.07c-.33-.17.25-.22.11-.42h-.07c-.05-.18.14-.21.12-.36h.04c-.01-.34.23-.47-.05-.53.24-.05.02.33.38.23-.02-1.1.3-2.14.55-3.17.14-.09.19-.16.3-.16-.03-.12.05-.4-.07-.53,0,.04.16-.03.18-.08.15-.16-.25-.28-.07-.46.05.1.13.15.24.15-.17-.23-.08-.46-.09-.68.04.04.05.1.14.11-.18-.29.15-.4.05-.64l.14.11c.27-.27-.3-.18-.12-.43.03.08.1.07.16.1-.22-.33-.02-.73-.05-1.01.02.02.06.03.06.03.03-.29.2-.56.15-.9.1-.09.37.13.39-.18-.32-.07,0-.54-.4-.45.12-.24.33-.61.27-.81.09.14.42-.03.39.19l.23-.11c.12.06-.08.15.09.14.01-.11-.03-.45.04-.53-.14-.24-.46-.52-.42-.84.09.18.37,0,.4.12l-.49-.59c.01-.11.25.04.21-.13-.09-.01-.12-.09-.18-.16.05-.03.03-.46.35-.43.13-.02.02.19.16.1.05-.2-.06-.23-.01-.43h.04c.08-.11-.04-.41-.24-.31-.03.09.19.01.07.12-.16-.14-.15-.38-.11-.57.03.08.12.09.2.14-.18-.32-.19-.62-.21-.94-.15-.04.24.18.15.2.3-.32-.1-.85.28-1.09.01.06-.22-.02-.17-.02.06-.18.28-.11.23-.25.13.02,0-.16-.01-.29-.08-.09.07-.02.06.09-.06-.2-.09-.92.19-1.27-.09-.01-.24-.32-.21-.4l.19.08c.14-.05.06-.31.23-.28-.19-.25.02.79-.1.48.18-.03-.22-.44.03-.32.04-.18-.14-.41.09-.54-.04.04.23.21.26.06.03-.27-.07-.1-.09-.32l-.05-.15c-.19-.06.08-.22-.15-.18.16,0,0-.4.3-.29l.24.1c0-.12-.21-.25-.3-.36.03,0,.08-.03.12,0-.37-.11.1-.26-.16-.46.19-.2.16-.59.42-.64-.07-.21-.17-.4-.03-.59.03.05.02.11.1.14.14-.1.05-.16.02-.29.05.04.28-.2.45-.31-.07-.21-.29-.2-.41-.25.41-.07-.11-.56.27-.68.04.07.12.3.25.18.41-.07-.19-.4.05-.61h-.33c.22-.08-.08-.44.23-.34-.09-.12.18-.28-.13-.33.36-.37.11-1.08.71-1.21-.03-.07.06-.22-.11-.22-.19.06.08.17-.04.18,0-.06-.08-.09-.12-.11.1-.12.15-.22.37-.03.26-.25-.44-.44-.22-.78.12.05.18.03.18-.08l-.16-.26c.11-.23.32-.07.53-.02,0-.14.05-.3-.1-.4l.31-.09c-.22.07-.1-.14-.14-.21l.04.07c.1,0,.08-.17.07-.25-.14-.01-.23.13-.29.2-.08-.09-.03-.19-.12-.3.2.08.2-.18.25-.27.07-.11-.15-.18-.14-.21.11.02.07-.19.19-.06.02.05-.13.07-.05.16.1-.06.29,0,.19-.2-.07-.15-.42-.07-.23-.27.04.07.12.11.18.17l.16-.19-.19-.06c.06-.02.07,0,.1,0-.18-.11.02-.35-.19-.45,0-.12.19-.2.24-.3v.02c.15-.1.12-.29.02-.43l.04.02c.03-.07.04-.24-.04-.36.19-.14.73.12.54-.14.04-.18-.28-.37-.41-.33.21-.29,0-.74.36-.96-.06-.07-.12-.05-.14-.16.19-.46.03-1.06.49-1.34.04.16.19.06.3.08-.14-.16.21-.09-.07-.21-.17-.03-.25-.06-.36.05-.02-.31.09-.74.29-.85-.1.06-.14-.02-.17-.09.27.09.36-.11.3-.29l-.16-.06.2-.06c-.04-.07-.33-.15-.13-.27.07,0,.13.02.19,0-.09-.2-.27-.49-.08-.63l.28-.08c0-.08-.12-.25-.22-.13.22-.27.29-.46.52-.5-.38-.65-.21-1.41-.02-2.01l.12.05c.16-.13-.2-.14-.08-.23.11.08.29-.06.4.1.19-.2-.14-.35-.16-.52-.16-.06.07.15-.13.07-.05-.04.21-.29-.03-.39.11-.03.28.06.37.11l-.08-.17c.33-.1.42.53.82.43v-.14c.28-.06.2.42.37.11-.09-.17-.41-.39-.55-.29,0-.31-.55-.29-.45-.6.17-.05-.03.26.19.25.24-.1-.04-.33.07-.45-.13.13-.35-.06-.37-.17.16-.13.21.16.29-.06-.13-.07-.19-.31-.33-.15-.3-.16.15-.22-.07-.41.25-.02.47.37.64.14-.23-.01-.22-.39-.58-.33.09-.08.26-.05.38.06.17-.11-.31-.44.13-.38l-.21-.1c.08-.03.15-.08.29-.12.04-.12-.2-.48.13-.38-.02-.05.06-.33-.2-.28-.19.14.12.25-.22.27.29-.06.03-.26-.03-.39l.13.02c-.04-.07.03-.21-.1-.28.06.07.16.06.2.02l-.18-.11c-.04-.27.36.03.37-.23l.11.22s.18-.08.15-.22c-.17-.09-.37-.23-.5-.3-.05-.16.22,0,.07-.19l.17.23c.05.04.33-.04.37-.23-.03-.13-.25-.38-.4-.22.02-.09.16-.19.28-.09-.01-.22-.2-.02-.27-.23.14-.04.37-.23.58-.32l.26.26.03-.12c.2.22.21-.03.44.12.06-.07,0-.2-.05-.3-.47.14-.49-.42-.89-.44-.02-.36.97.02.47-.48-.11.03-.36-.2-.3.04.09-.2-.34-.24-.12-.45.11.22.43-.1.59.22-.12-.05-.13.12-.11.17.17-.05.37.11.43-.1,0-.14.03-.32-.17-.35-.22-.05-.03.21-.22.07,0-.28.33-.24-.02-.45-.01.17-.24.16-.39.12l-.04-.21.13.07c.18-.28-.24-.16-.12-.45l.32-.07c.22.13-.22.41.19.45.07-.19-.12-.31.03-.46.02.05.02.11.04.16.03-.07.57,0,.33-.36-.08-.17-.13-.07-.28-.11.03-.32-.09-.45-.07-.66.28.11.12-.35.36-.05-.19.06-.29.52-.04.69.37-.03-.11.23.22.39.07-.25.4-.15.64-.14.03-.07-.04-.16-.07-.21-.2-.08-.22.01-.44-.04.13-.27.08-.56-.09-.77.13-.07.33.01.32.13.02-.35.14-.7.28-1-.39.12,0-.37-.31-.3-.12.15-.4.23-.53.1.05-.1.15.04.23.01-.15-.18.35-.13.09-.34.03.33.4.16.65.28-.09-.26.19.06.24-.16-.09-.26-.14-.55-.14-.81.33-.24.2-.77.26-1.04.17-.11.45.06.54-.08.04-.18-.36.05-.15-.18l.05.04c-.05-.1.33-.44-.08-.63l.3.16s-.02-.11-.05-.16c.11.02.22,0,.27.09.27-.11.05-.36.09-.54l-.22.07c-.07-.35.17-.5.18-.82l.19.06-.07-.21c.17.09.33-.04.2-.18l.35.58c-.14.1-.19-.2-.4-.16-.18.03-.2.32-.03.41.05-.1,0-.12-.04-.21.27.03.22.19.38.31,0-.06.1-.12.02-.15.1.14.09.26.05.44-.07-.15-.18.03-.24-.04.23.07.25.26.13.47-.31.09.07.46-.07.7-.21-.16-.36-.34-.42-.53-.16.13-.04.18-.2.32.15.12.41.25.46.48l-.18-.03c.04.21.29.28.19.51-.19.4-.3.83-.4,1.14l-.17-.03c.32.27-.01.63.09.91-.27.37-.06.93-.41,1.06-.05.75-.08,1.41-.33,2.14l-.22-.19c.15.18-.17.05-.16.19.24-.1.21.25.34.38-.28.28-.17.76-.07,1.1l-.18-.03c.25.38-.12.66-.27,1.02-.08.02-.26.05-.27.17.23.27.18.37.28.71-.05.22-.21.55-.37.74.19.91-.27,1.67-.24,2.57h-.22c.23.93-.42,1.84-.37,2.59l-.33-.15c-.16.19-.03.52.23.53-.16.19.03.59-.29.66-.12.21.09.31.09.51-.24.42-.26.59-.3,1.03l.05-.1c-.06-.07-.21-.11-.26,0,.06.18-.24.56.21.5-.35.39-.07,1.1-.5,1.46.12,0,.12.11.18.17-.09.4-.43.76-.32,1.12-.07.05-.17-.15-.22,0,.02.11.15.04.18.17.05.69-.54,1.24-.63,1.84-.04,1.09-.42,2.14-.63,3.15l-.08-.03c.23.41-.52.7-.11,1.08-.1.06-.11.29-.26.19.16.32-.4.69-.21,1.14.02-.03,0-.06-.02-.11-.28.34-.11.74-.38,1.11-.03-.05-.03-.13-.11-.16-.2.12.26.46-.17.45-.02.09.18.11.19.06-.38.85-.36,1.87-.5,2.83-.41.61-.68-.13-.52.47-.09.02.15.07.06.06.06.23-.53.2-.35.4.26,0,.11.13.26.17-.26.37-.5.39-.4.76l-.12-.06c.27.47-.03.86.31,1.28-.44,2.1-.71,4.15-1.17,6.19-.58,1.98-.88,3.99-1.62,5.97-.46.39-.46.43-.45.99-.05-.03-.05-.07-.11-.05.27.1-.07.38.19.49-.24.74-.34,1.45-.53,2.23,0-.13-.21-.25-.23-.1l.14.2h-.08c.02.12.13.26.24.18-.25,2-1.28,3.78-1.69,5.7-.23.42-.28,1.09-.35,1.6-.74,1.36-1.36,2.6-1.47,4.15,0,0-.67-.37-.68-1.03Z"/>
      <path class="cls-2" d="M190.04,19.36c-.15.02-.27.17-.42-.01.14.02.3-.03.42.01Z"/>
      <path class="cls-2" d="M187.47,23.52s-.07.05-.1.06c0-.06-.1-.14-.02-.17,0,.06.06.07.12.11Z"/>
      <path class="cls-2" d="M187.1,24.66c-.12-.05-.16-.32-.13-.47l.13.47Z"/>
      <path class="cls-2" d="M186.32,25.61c-.13.07-.18.03-.14-.1.07,0,.09.06.14.1Z"/>
      <path class="cls-2" d="M186.58,25.75c-.02.09-.1.12-.19.14.11.02-.01-.22.19-.14Z"/>
      <path class="cls-2" d="M185.64,28c0,.06.07.21-.08.22.11-.03-.09-.31.08-.22Z"/>
      <path class="cls-2" d="M185.55,29.14s-.04.04-.02.09c-.07.05-.15-.04-.14-.1h.16Z"/>
      <polygon class="cls-2" points="181.09 49.04 181.06 48.91 181.18 48.96 181.09 49.04"/>
      <path class="cls-2" d="M178.93,57.72c.05.14-.14.05-.16.07.01-.11.14.08.16-.07Z"/>
      <polygon class="cls-2" points="178.38 62.55 178.38 62.51 178.63 62.58 178.38 62.55"/>
    </g>
  </g>
  <g>
    <line class="cls-1" x1="180.01" y1="16.76" x2="165.88" y2="84.65"/>
    <g>
      <path class="cls-2" d="M180.44,17.02c0-.26-.25.09-.06-.18.09.05.16.12.06.18Z"/>
      <path class="cls-2" d="M166.37,83.89c-.49-.94.39-1.86.16-2.82,0-.11.35.1.31-.15-.33-.96.25-2.24.86-3.19l.09.08c.11-.18-.17-.49-.08-.69.07.01.08.09.18.06-.19-.09-.01-.4-.15-.52.1-.07.26-.02.37-.11l-.21-.17c-.48-.45.21-.8.02-1.31.05.03.08.09.14.06-.18-.8.07-1.7.12-2.54.07.05.22.11.32.08-.23-.09-.24-.36-.25-.58.27-.05-.15-.42.04-.65l.05.03c-.22-.24.21-.25-.07-.47l.22-.08c-.33-.16.24-.24.09-.43h-.07c-.06-.18.14-.22.11-.37h.04c-.03-.34.21-.49-.07-.54.24-.07.04.33.39.22-.06-1.11.22-2.19.44-3.26.14-.1.18-.17.29-.17-.03-.12.03-.41-.09-.54,0,.04.15-.04.18-.09.14-.17-.26-.27-.09-.46.06.1.14.15.25.14-.18-.23-.09-.46-.12-.69.04.04.06.1.14.11-.19-.28.14-.42.03-.65l.14.11c.26-.29-.31-.17-.14-.43.04.08.1.07.16.09-.23-.33-.05-.74-.09-1.02.02.02.06.03.06.03.02-.3.18-.58.12-.93.1-.1.38.12.38-.2-.32-.06-.02-.55-.42-.44.11-.25.31-.64.24-.84.1.14.42-.05.4.18l.23-.12c.13.05-.08.16.1.14.01-.11-.05-.46.02-.54-.15-.24-.48-.5-.45-.84.09.18.37-.01.4.1l-.51-.58c0-.11.26.03.21-.15-.09,0-.12-.09-.18-.15.04-.03.01-.47.34-.45.13-.02.03.19.17.09.04-.2-.07-.23-.03-.43h.04c.07-.12-.05-.41-.26-.31-.03.09.2,0,.08.12-.16-.13-.16-.38-.13-.58.04.08.12.09.2.13-.19-.32-.21-.62-.25-.95-.15-.04.25.17.16.2.29-.34-.13-.86.24-1.12.02.06-.22-.02-.17-.01.06-.18.27-.13.22-.27.13.01,0-.16-.02-.29-.08-.08.07-.02.06.09-.07-.2-.12-.93.15-1.3-.09,0-.26-.31-.23-.4l.19.08c.13-.06.05-.31.22-.29-.2-.25.04.8-.08.5.18-.03-.23-.44.02-.32.03-.19-.15-.41.07-.55-.04.05.24.21.26.05.02-.27-.08-.09-.1-.32l-.05-.15c-.19-.05.07-.23-.16-.18.16,0-.02-.4.29-.31l.24.09c0-.12-.22-.24-.32-.35.03,0,.08-.03.12-.02-.38-.1.09-.27-.18-.46.18-.21.14-.61.4-.67-.08-.21-.18-.4-.05-.6.03.05.03.11.11.14.14-.11.05-.16,0-.3.05.04.28-.22.44-.34-.08-.21-.29-.19-.42-.23.41-.09-.14-.57.25-.71.04.07.13.31.26.17.41-.09-.21-.39.03-.63h-.33c.22-.08-.1-.43.21-.34-.09-.11.17-.3-.14-.33.35-.39.07-1.11.67-1.27-.04-.07.05-.22-.12-.22-.19.07.09.17-.03.19,0-.06-.08-.09-.12-.1.1-.12.14-.23.37-.04.25-.27-.45-.42-.25-.79.12.04.18.02.18-.09l-.17-.26c.1-.24.32-.08.53-.05,0-.14.04-.31-.11-.4l.3-.11c-.22.08-.11-.14-.15-.21l.04.07c.1,0,.07-.17.06-.26-.14,0-.22.14-.28.22-.08-.09-.04-.19-.13-.31.2.07.19-.19.24-.29.07-.11-.16-.18-.14-.21.11.02.06-.2.19-.07.03.05-.13.07-.04.16.1-.06.29-.02.18-.21-.08-.15-.42-.05-.24-.27.04.07.12.1.19.17l.16-.2-.19-.05c.05-.02.07,0,.1,0-.19-.11,0-.36-.21-.45,0-.12.18-.21.23-.32v.02c.15-.11.11-.3,0-.44h.04c.03-.05.04-.23-.06-.35.18-.15.73.09.54-.16.03-.19-.29-.36-.43-.31.2-.31-.03-.75.33-1-.07-.06-.12-.04-.15-.15.18-.47-.01-1.08.44-1.39.05.16.19.05.3.07-.15-.15.21-.1-.08-.21-.17-.02-.26-.05-.35.07-.03-.31.06-.75.26-.88-.1.06-.14,0-.17-.08.27.08.36-.13.29-.31l-.16-.06.19-.07c-.04-.07-.34-.14-.14-.27.07,0,.13,0,.19-.01-.1-.2-.28-.48-.1-.64l.28-.1c-.01-.08-.13-.25-.23-.12.21-.28.27-.48.5-.53-.4-.64-.26-1.43-.1-2.04l.12.04c.15-.14-.2-.13-.09-.23.11.08.29-.07.41.09.18-.21-.15-.35-.18-.52-.16-.06.08.15-.12.07-.05-.04.2-.31-.04-.39.11-.04.28.05.38.1l-.09-.17c.33-.12.44.52.83.4v-.14c.28-.07.21.42.37.1-.09-.17-.43-.37-.56-.27,0-.32-.56-.27-.48-.59.17-.06-.02.27.2.25.23-.11-.05-.33.05-.46-.13.13-.35-.05-.38-.16.15-.14.21.16.29-.07-.14-.07-.2-.31-.34-.14-.31-.15.14-.23-.08-.41.25-.03.48.35.65.12-.23,0-.23-.38-.59-.31.09-.09.26-.06.38.04.17-.12-.33-.44.12-.4l-.22-.1c.08-.03.15-.08.29-.13.03-.13-.22-.48.12-.4-.03-.05.05-.34-.21-.27-.18.15.13.25-.21.28.29-.07.02-.27-.04-.39h.14c-.04-.06.02-.2-.11-.27.07.06.16.06.2.01l-.19-.11c-.05-.28.37.01.36-.25l.12.22s.18-.09.14-.23c-.17-.08-.38-.22-.51-.29-.05-.16.22-.02.06-.2l.18.23c.05.04.33-.06.36-.25-.04-.13-.26-.37-.4-.21.02-.09.16-.2.27-.1-.02-.23-.2-.01-.28-.22.14-.05.36-.25.57-.35l.27.26.03-.13c.21.22.21-.04.44.1.06-.08,0-.2-.06-.3-.47.17-.51-.4-.9-.41-.03-.37.97-.03.45-.51-.11.04-.36-.19-.3.05.09-.21-.35-.23-.14-.45.12.22.43-.12.59.2-.12-.04-.13.13-.1.18.16-.06.38.1.42-.12,0-.14.02-.33-.18-.34-.22-.04-.02.21-.22.08-.02-.29.32-.26-.04-.45,0,.18-.24.17-.39.14l-.05-.22.14.07c.17-.3-.24-.15-.14-.45l.31-.08c.23.12-.2.42.21.45.06-.2-.13-.31.01-.47.03.05.02.11.05.16.03-.07.57-.03.32-.38-.09-.17-.13-.07-.28-.1.02-.33-.11-.46-.09-.67.28.1.1-.36.35-.07-.19.07-.27.54-.02.71.37-.05-.1.24.23.38.06-.26.4-.17.63-.17.03-.07-.05-.16-.08-.21-.2-.07-.22.02-.44-.02.12-.28.06-.58-.11-.78.12-.07.33,0,.32.12,0-.35.11-.71.24-1.03-.39.14,0-.38-.32-.3-.11.16-.39.26-.52.13.04-.1.15.03.23,0-.16-.18.34-.15.08-.35.05.34.4.15.66.26-.1-.26.19.05.23-.17-.1-.26-.16-.56-.17-.82.32-.26.17-.79.22-1.07.17-.12.45.04.53-.1.03-.19-.36.07-.16-.18l.05.04c-.05-.1.31-.46-.11-.64l.31.15s-.02-.11-.05-.16c.11.02.22-.02.27.08.26-.12.04-.37.07-.55l-.22.08c-.09-.35.15-.52.15-.84l.19.05-.08-.21c.17.08.33-.06.19-.19l.37.57c-.14.11-.2-.19-.4-.15-.18.04-.19.33-.01.41.04-.1,0-.12-.05-.22.27.02.23.18.39.3,0-.06.1-.12.02-.15.11.14.1.26.07.44-.08-.15-.18.03-.24-.03.23.06.26.26.15.47-.3.11.08.47-.05.72-.21-.16-.37-.33-.44-.52-.15.14-.03.19-.19.33.16.12.42.23.48.47l-.18-.02c.05.22.3.27.2.51-.18.41-.27.86-.36,1.18l-.18-.02c.33.26,0,.64.12.92-.25.39-.02.95-.37,1.1-.02.77-.03,1.44-.25,2.2l-.23-.18c.16.18-.16.06-.16.2.23-.11.22.24.36.37-.27.3-.14.78-.03,1.12l-.18-.02c.26.37-.1.68-.23,1.05-.08.03-.26.06-.26.18.24.27.2.37.31.71-.05.22-.19.57-.35.77.22.92-.21,1.72-.15,2.63l-.22.02c.26.93-.35,1.88-.28,2.65l-.33-.14c-.15.2-.01.53.24.53-.15.2.05.6-.26.68-.11.22.1.32.11.52-.23.43-.23.61-.26,1.06l.04-.1c-.07-.06-.21-.1-.26,0,.06.18-.22.58.23.5-.34.41-.03,1.12-.45,1.51.12-.01.12.1.19.17-.08.41-.4.79-.28,1.15-.07.05-.17-.14-.22.02.02.11.15.03.19.17.08.7-.5,1.29-.57,1.9,0,1.11-.35,2.2-.52,3.23l-.08-.03c.25.41-.49.73-.07,1.11-.1.06-.1.3-.25.21.17.32-.37.72-.17,1.17.02-.03,0-.06-.02-.11-.27.36-.09.76-.34,1.15-.03-.05-.04-.13-.12-.16-.19.13.27.46-.15.46-.02.09.19.11.19.05-.35.89-.3,1.92-.4,2.9-.38.64-.69-.1-.5.5-.09.03.15.06.06.05.07.23-.52.23-.34.42.26,0,.12.13.27.16-.25.39-.49.42-.37.79l-.13-.05c.29.46,0,.87.35,1.29-.37,2.16-.56,4.26-.94,6.35-.51,2.05-.74,4.1-1.4,6.15-.45.42-.44.46-.42,1.03-.05-.03-.06-.07-.12-.04.27.09-.05.38.21.49-.21.76-.29,1.49-.45,2.29,0-.13-.22-.24-.23-.09l.15.19h-.08c.02.12.14.26.25.17-.17,2.05-1.15,3.9-1.49,5.88-.21.44-.24,1.13-.29,1.64-.69,1.42-1.27,2.71-1.32,4.29,0,0-.68-.35-.72-1.01Z"/>
      <path class="cls-2" d="M180.41,17.33c-.15.02-.26.18-.42,0,.14.01.3-.05.42,0Z"/>
      <path class="cls-2" d="M177.99,21.68s-.07.05-.1.06c0-.06-.11-.14-.02-.17,0,.06.07.07.12.1Z"/>
      <path class="cls-2" d="M177.66,22.85c-.12-.04-.17-.32-.15-.47l.15.47Z"/>
      <path class="cls-2" d="M176.91,23.85c-.13.07-.18.04-.15-.09.07,0,.09.05.15.09Z"/>
      <path class="cls-2" d="M177.18,23.99c-.02.09-.1.12-.18.15.11.02-.02-.23.18-.15Z"/>
      <path class="cls-2" d="M176.32,26.32c0,.06.08.21-.07.23.11-.04-.1-.31.07-.23Z"/>
      <path class="cls-2" d="M176.27,27.48s-.04.04-.02.09c-.07.05-.15-.03-.15-.09h.16Z"/>
      <polygon class="cls-2" points="172.54 47.95 172.5 47.82 172.62 47.86 172.54 47.95"/>
      <path class="cls-2" d="M170.69,56.87c.05.14-.13.06-.16.08,0-.11.15.07.16-.08Z"/>
      <polygon class="cls-2" points="170.31 61.82 170.31 61.78 170.57 61.84 170.31 61.82"/>
    </g>
  </g>
  <g>
    <path class="cls-2" d="M158.83,80.37c-.81-.11.29.55-.56.04.16-.17.36-.27.56-.04Z"/>
    <path class="cls-2" d="M159.26,78.65c-.77-2.82,1.27-5.88,1.03-8.84.01-.34.7.24.68-.54-.44-2.91,1.07-7.03,2.56-10.15l.16.24c.28-.59-.23-1.5,0-2.14.14.02.15.25.36.14-.37-.25.07-1.24-.17-1.58.21-.23.53-.13.78-.44l-.38-.48c-.87-1.29.62-2.55.36-4.11.09.09.14.25.27.16-.17-2.45.57-5.32.87-7.95.14.14.42.3.63.18-.46-.23-.41-1.06-.36-1.77.57-.21-.2-1.28.25-2.04l.1.09c-.39-.71.49-.83-.03-1.45l.47-.3c-.65-.41.55-.79.3-1.36l-.15-.02c-.07-.5.33-.67.31-1.13l.09-.02c.03-1.06.55-1.56,0-1.66.51-.26-.01,1.03.75.6.15-3.46.99-6.89,1.7-10.25.3-.34.42-.56.65-.61-.04-.36.17-1.29-.05-1.65-.01.11.33-.16.39-.33.34-.57-.46-.8-.07-1.42.09.3.25.43.47.38-.3-.68-.08-1.38-.06-2.18.06.15.08.34.26.37-.16-.45-.05-.83.07-1.14.12-.32.25-.57.19-1.04l.22.51c.54-.66-.5-.9-.1-1.66.03.35.15.39.25.57-.08-.41-.1-.83-.08-1.24.69.02,1.68.37,2.32.41-.05.03-.02.13-.02.13,1.01.22,2.06.71,3.07.74.32.24-.34.72.65.89.15-.63,1.69.21,1.34-.66.78.34,2,.95,2.61.89-.43.13.18.88-.52.73l.4.53c-.15.23-.5-.24-.43.13.35.07,1.41.11,1.68.3.74-.2,1.52-.75,2.56-.53-.55.1.07.77-.28.78l1.77-.78c.35.07-.07.51.47.49.02-.17.26-.21.45-.3.11.11,1.45.25,1.42.91.08.28-.59-.03-.28.3.63.18.72-.03,1.34.15v.09c.37.21,1.28.09.93-.38-.28-.1,0,.4-.37.1.39-.27,1.15-.16,1.78.01-.24.04-.26.21-.4.36.98-.24,1.91-.13,2.91-.06.1-.29-.5.43-.6.24,1.08.75,2.65.15,3.48,1.03-.18,0,.03-.44.02-.36.57.21.42.62.84.57-.04.26.5.06.91.1.25-.12.07.15-.28.08.6-.06,2.88.19,4.02.92.02-.17.94-.38,1.23-.28l-.22.35c.2.31.97.25.93.59.75-.29-2.48-.29-1.54-.41.12.38,1.33-.28,1,.2.58.15,1.27-.12,1.71.4-.14-.11-.62.4-.15.51.84.17.29-.12.99-.05l.46-.04c.14-.37.72.26.54-.24.01.34,1.25.16.98.75l-.26.46c.37.07.73-.35,1.07-.48.03.06.1.18.06.26.27-.73.83.31,1.42-.15.33.24.81.38,1.22.54.21.08.4.16.56.25.23.12.42.25.49.4.9.02,1.93.02,2.81.45-.26,0-.55-.06-.73.06.42.36.71.23,1.4.3-.22.05.69.65.91,1-.02.03-.04.05-.05.07.04.58.65.13.95.05-.63.59-.67,1.07-.74,1.66-.07.57-.17,1.26-.71,1.73,0-.31.01-1.14-.43-.49-.54.35-.49.64-.44,1.07.07.38.07,1.06-.23,1.35l.67.02c-.5.23-.09,1.33-.67,1.03.12.35-.55.9.07,1.02-.98,1.17-.89,3.38-2.24,3.83.03.23-.25.67.09.68.44-.2-.07-.53.2-.57-.05.18.1.28.18.32-.29.37-.45.68-.79.11-.7.8.64,1.32-.01,2.42-.22-.14-.35-.09-.44.28l.18.81c-.37.73-.71.24-1.13.1-.08.44-.28.93-.04,1.23l-.7.31c.51-.23.12.43.16.66l-.03-.23c-.2.01-.27.53-.3.78.27.04.55-.41.72-.65.1.28-.06.59.06.94-.37-.24-.53.56-.69.87-.22.34.21.55.15.66-.21-.07-.26.6-.44.2-.02-.15.31-.22.2-.49-.24.19-.6.03-.52.64.06.46.83.19.31.83-.03-.23-.18-.32-.27-.52l-.46.61.36.16c-.13.06-.13-.02-.2,0,.31.34-.26,1.09.12,1.4-.09.36-.52.63-.68.95v-.07c-.37.32-.42.91-.3,1.34l-.07-.05c-.11.21-.24.75-.12,1.1-.48.46-1.45-.32-1.21.47-.19.57.35,1.13.67.99-.62.92-.44,2.29-1.35,3.02.1.2.22.14.2.47-.69,1.44-.71,3.3-1.86,4.22,0-.49-.36-.16-.57-.23.2.48-.5.3.02.64.34.08.49.18.78-.19-.15.95-.64,2.3-1.12,2.68.24-.19.28.04.3.27-.5-.26-.82.37-.82.93l.3.19-.45.2c.03.23.6.46.11.83-.13-.02-.27-.04-.39.02.08.61.26,1.49-.21,1.95l-.64.28c-.03.26.1.76.39.39-.63.85-.89,1.44-1.4,1.6.4,1.99-.43,4.38-1.19,6.25l-.22-.14c-.41.43.33.42.03.71-.17-.25-.64.21-.78-.3-.52.64.08,1.09.01,1.61.29.19-.06-.46.3-.22.08.12-.61.92-.18,1.21-.25.11-.55-.16-.71-.32l.07.53c-.76.34-.55-1.61-1.44-1.28l-.07.44c-.64.21-.17-1.29-.72-.32.07.53.63,1.17.98.85-.21.98.98.85.58,1.83-.38.17.22-.83-.24-.78-.56.33-.13,1.03-.42,1.4.35-.4.69.17.67.5-.41.43-.33-.5-.64.21.23.22.2.96.6.45.53.49-.45.69-.1,1.26-.53.08-.75-1.11-1.26-.4.47.03.22,1.19,1,1-.24.27-.58.18-.76-.14-.42.35.38,1.36-.51,1.2l.38.31c-.19.09-.37.25-.69.39-.08.19-.04.56-.07.85-.06.38-.23.8-.53.59,0,.23-.57,1.69.04,1.42.62-.84.09-1.27.89-1.56-.74.49-.46,1.46-.55,2.23l-.26-.08c-.04.43-.38,1.19-.25,1.67-.01-.41-.21-.42-.35-.2l.16.76c-.4,1.7-.63-.39-1.04,1.08l.15-1.35c-.03.27-.37.29-.53.85-.04,0-.09-.01-.14-.02,0,.39-.26.78-.37,1.05-.78-.06-.53-.59-1.21-.39.31-.07.61-.14.88-.21.08-.11-.92-.91-1.84-1.17-.55-.02-1.6.23-.51.76-.56-.16-1.29-.61-.86-.77-1.18-.21.15.46-.94.39-.1-.09-.26-.21-.44-.34-.09-.06-.19-.13-.29-.2-.08-.07-.11-.12-.18-.18-.22-.24-.46-.49-.63-.73l.77-.43-.39-.12c.65-.33-.15-.44.28-.87-.25-.16-.62-.08-.92-.02.55,1.04-1.21.86-1.2,1.67-1.14-.11-.15-2-1.62-1.17.13.25-.57.66.18.64-.65-.28-.67.61-1.38.07.68-.13-.41-.94.57-1.13-.13.23.42.32.57.29-.2-.36.27-.73-.42-.93-.44-.05-1.02-.2-1.05.21-.11.43.66.14.26.49-.88-.1-.83-.78-1.4-.13.55.1.55.57.46.86h-.67s.2-.25.2-.25c-.93-.49-.44.43-1.38.07l-.29-.69c.37-.41,1.33.62,1.39-.21-.61-.21-.93.13-1.46-.25.15-.03.33,0,.48-.03-.22-.09-.14-1.19-1.2-.84-.53.1-.2.24-.3.53-1.02-.2-1.41.01-2.07-.13.3-.53-1.12-.39-.24-.76.23.43,1.68.82,2.2.37-.17-.78.76.32,1.17-.3-.8-.25-.56-.9-.57-1.38-.21-.09-.48.03-.63.06-.21.38.08.46-.03.89-.86-.37-1.79-.39-2.4-.13-.24-.29-.03-.67.34-.61-1.1-.19-2.22-.57-3.19-.99.46.86-1.17-.17-.89.52.5.31.82.92.44,1.14-.33-.14.1-.29,0-.48-.54.24-.5-.78-1.09-.33,1.03.07.43-.76.76-1.24-.79.09.14-.37-.55-.57-.78.09-1.71.07-2.52-.04-.83-.78-2.46-.73-3.34-.96-.38-.4.1-.9-.36-1.15-.58-.16.24.77-.54.24l.12-.09c-.3.06-1.46-.86-1.96-.08l.45-.57c-.14-.1-.33,0-.49.03.05-.21-.08-.46.22-.52-.4-.6-1.13-.25-1.71-.4l.26.49c-1.07.01-1.62-.56-2.62-.7l.14-.37-.63.06c.24-.32-.21-.71-.6-.49l1.74-.48c.35.34-.58.32-.43.76.12.38,1.04.54,1.28.22-.33-.14-.37-.06-.67,0,.04-.55.55-.38.9-.65-.18-.03-.39-.26-.47-.11.42-.15.78-.09,1.37.07-.45.09.12.38-.07.49.18-.44.77-.42,1.45-.09.36.68,1.44.05,2.23.44-.47.37-1.01.61-1.57.65.45.38.58.16,1.04.54.35-.27.69-.75,1.43-.76l-.06.35c.67,0,.81-.5,1.57-.18,1.29.56,2.67.96,3.69,1.3l-.06.35c.78-.56,1.98.28,2.84.18,1.21.71,2.93.5,3.43,1.28,2.38.41,4.47.74,6.82,1.55l-.55.38c.53-.24.19.37.64.42-.37-.54.73-.35,1.12-.56.93.69,2.49.69,3.43.58l-.07.35c.35-.25.54-.21.84-.05.28.16.66.45,1.04.62h0c.12.12.38.35.44.07-.12-.51-.17-.76-.19-1.01-.03-.24-.03-.47-.1-.78.03-.08.64-1.34,1.08-1.91.16-2.81,1.59-5.23,2.09-8.03l.46-.05c.09-2.86,2-5.73,2.36-8.07l.59.45c.45-.61.39-1.62-.15-1.62.45-.61.3-1.83,1.01-2.07.38-.66,0-.97.12-1.59.76-1.31.9-1.85,1.25-3.22l-.16.31c.09.2.38.32.54,0,0-.56.84-1.75-.14-1.55.98-1.24.82-3.43,1.95-4.58-.26.04-.18-.32-.27-.52.44-1.24,1.36-2.38,1.35-3.51.18-.16.26.45.46-.05.03-.33-.28-.11-.27-.52.32-2.16,1.9-3.91,2.46-5.78.76-3.4,2.2-6.71,3.26-9.85l.15.09c-.23-1.26,1.52-2.22.89-3.38.24-.19.41-.91.66-.62-.02-1.31.98-1.42.47-1.74-.03.03,0,.04.08.05.27-.2.31-.4.32-.54-.25-.03-.45-.03-.52-.24.1-.05.23-.07.4-.19.04-.16-.25-.06-.43.02-.18.07-.27.1-.12-.28-.13-.03-.28.35-.21.34-.05-.04-.1-.07-.16-.1-.06-.03-.08-.05-.31-.12-.36-.12-.72-.23-1.09-.33-.74-.21-1.49-.38-2.25-.54-1.52-.32-3.08-.59-4.6-.93-2-1.09.26-1.37-1.6-1.27-.09-.19-.19.27-.16.1-.72.03-.76-1.18-1.33-.89.05.54-.38.18-.48.48-1.21-.69-1.35-1.21-2.48-1.14l.15-.23c-1.42.37-2.7-.42-3.96.12-3.35-.89-6.65-1.68-9.93-2.48-1.64-.4-3.27-.8-4.9-1.2-1.54-.4-3.08-.8-4.63-1.2-.03-.04-.08-.07-.13-.08-.01.05-.01.11-.01.15-.27,1.29-.54,2.59-.81,3.89-.56,2.63-1.17,5.26-1.93,7.91-1.02,1.41-1.02,1.53-1.11,3.29-.1-.09-.1-.2-.23-.11.54.21-.2,1.21.3,1.49-.63,2.43-.96,4.72-1.49,7.24.02-.41-.39-.71-.46-.23l.25.57-.17.05c.01.34.22.75.47.46-.87,6.44-3.32,12.43-4.51,18.67-.55,1.42-.78,3.57-1.01,5.19-1.76,4.59-3.28,8.74-3.78,13.67,0,0-1.32-.94-1.23-3Z"/>
    <path class="cls-2" d="M159.77,80.59c.09.32.58.63.04.88.02-.27-.17-.65-.04-.88Z"/>
    <path class="cls-2" d="M173.42,87.63c.04-.08.17.17.21.23-.18-.03-.42.15-.52-.03.19.03.2-.11.31-.2Z"/>
    <path class="cls-2" d="M177.07,88.87c-.13.23-.98.19-1.45.09l1.45-.09Z"/>
    <path class="cls-2" d="M180.23,90.88c.24.29.12.38-.28.26,0-.14.16-.17.28-.26Z"/>
    <path class="cls-2" d="M180.63,90.39c.29.08.39.26.49.44.05-.21-.7-.06-.49-.44Z"/>
    <path class="cls-2" d="M187.91,93.28c.19.03.63-.06.72.26-.13-.25-.97.06-.72-.26Z"/>
    <path class="cls-2" d="M192.87,94.32c.2.08.3.15.51.14.4.24.07.34-.26.27l-.25-.41Z"/>
    <polygon class="cls-2" points="217.8 31.65 217.72 32.24 217.51 32.08 217.8 31.65"/>
    <path class="cls-2" d="M193.36,18.96c-.42.05-.19-.31-.25-.36.35.07-.21.27.25.36Z"/>
    <polygon class="cls-2" points="178.04 15.84 178.16 15.87 177.97 16.36 178.04 15.84"/>
  </g>
</svg>