<?xml version="1.0" encoding="UTF-8"?>
<svg id="Layer_3" data-name="Layer 3" xmlns="http://www.w3.org/2000/svg" viewBox="0 0 300 300">
  <defs>
    <style>
      .cls-1 {
        fill: #212121;
      }

      .cls-2 {
        fill: #f03220;
      }

      .cls-3 {
        fill: #42b649;
      }

      .cls-4 {
        fill: #fff27b;
      }

      .cls-5 {
        fill: #3c5fa2;
      }

      .cls-6 {
        fill: #45b649;
      }
    </style>
  </defs>
  <g>
    <path class="cls-3" d="M158.68,53.88s-10.67.61-14.21,1.02c-4.26.5-16.95,2.76-16.95,2.76-.52.08-.88-.5-.56-.93.85-1.14,2.14-2.79,2.9-3.31,2.65-1.82,9.2-3.15,12.4-3.43,4.16-.37,16.64,1.56,16.64,1.56l-.22,2.33Z"/>
    <g>
      <path class="cls-1" d="M158.56,54.7c.25-.12-.16-.37.16-.18-.02.18-.07.32-.16.18Z"/>
      <path class="cls-1" d="M159.31,53.09c-.58-.5-.47-1.02-.36-1.54v-.05s-.05-.02-.05-.02c-.43-.12-.86-.24-1.31.03-.11.03.12-.62-.14-.5-.99.75-2.26.04-3.23-.77l.09-.17c-.18-.15-.5.4-.71.29.01-.12.09-.16.06-.32-.1.34-.4.11-.53.37-.07-.15-.02-.43-.11-.59l-.17.39c-.45.91-.81-.17-1.33.27.03-.09.09-.16.06-.25-.81.49-1.72.28-2.57.41.05-.14.1-.39.07-.56-.08.42-.35.5-.58.56-.06-.44-.42.36-.65.1l.03-.1c-.23.44-.26-.29-.46.25l-.09-.35c-.13.61-.25-.34-.44-.04v.13c-.17.14-.22-.18-.37-.08v-.07c-.34.14-.51-.21-.53.27-.09-.39.33-.15.18-.72-1.11.42-2.2.28-3.26.31-.13-.19-.21-.24-.25-.42-.1.1-.4.1-.48.36.04-.01-.09-.24-.15-.26-.22-.16-.16.55-.39.36.07-.14.08-.29.03-.47-.14.39-.39.37-.59.51.02-.08.07-.14.04-.29-.18.45-.44-.03-.61.27l.04-.29c-.38-.28-.01.59-.33.43.06-.1.01-.2.01-.31-.19.54-.65.45-.88.66,0-.04,0-.11,0-.11-.28.12-.61.01-.88.29-.14-.1-.09-.67-.38-.51.12.54-.47.33-.17.91-.28-.04-.73-.15-.86.07.07-.23-.28-.64-.07-.73l-.24-.29c-.03-.23.19.04.07-.23-.11.04-.37.33-.49.27-.12.38-.16,1.04-.46,1.19.1-.25-.24-.57-.16-.69l-.18,1.15c-.1.05-.14-.42-.25-.24.05.14,0,.24-.01.37-.06-.05-.39.26-.59-.26-.11-.19.14-.16-.03-.31-.19.06-.15.24-.34.31l-.02-.07c-.15-.04-.31.34-.08.59.09-.01-.13-.3.05-.19,0,.33-.19.49-.37.55.04-.1-.02-.24-.04-.4-.13.49-.34.71-.55.97.08.25-.06-.48.03-.37-.49-.22-.54.74-1.01.36.03-.06.17.33.13.27-.18.03-.32-.32-.36-.14-.1-.2-.1.12-.18.23.01.17-.07-.09.01-.15-.09.24-.49.81-.92.7.08.12.11.56.06.58l-.17-.3c-.18-.13-.14.13-.33-.1.09.19.09.07.16-.09.07-.16.14-.34.13-.14-.21-.2.05.61-.17.2-.09.08.11.42-.22.28.06.02-.23-.43-.31-.33-.12.2.07.16.02.37l.02.18c.24.24-.18.12.16.31-.22-.17-.11.37-.5-.02l-.3-.32c-.05.1.23.44.32.63-.04-.02-.12-.05-.17-.1.49.45-.21.16.1.59-.32.03-.38.44-.78.26.05.27.14.54-.1.62-.02-.07,0-.13-.11-.22-.23-.02-.12.12-.1.28-.06-.08-.47-.03-.75-.05.05.27.38.43.54.58-.16-.07-.23-.06-.27,0v.02c-.25-.17-.48-.35-.73-.53h-.02s-.03-.03-.03-.03c-.03,0,.01,0,.02,0,0,0-.04,0-.02,0,.04,0,.02-.02,0,.02h0s0-.07,0-.07h0s0,0,0,0c-.05-.32-.11-.63-.16-.93,0,0,.01-.02.02-.02.01-.01.03-.02.04-.02.03,0,.06,0,.1,0,.07,0,.11-.06.05-.32.52.36,1.04-.46,1.48.43.05-.1.22-.04.14-.3-.16-.27-.11.24-.19.04.05-.03.04-.17.04-.25.16.1.28.11.22.57.36.27.16-.95.59-.81.02.22.06.3.17.24l.15-.41c.27.04.23.47.3.84.12-.09.29-.1.31-.38l.24.43c-.18-.31.07-.24.12-.34l-.05.1c.05.15.19.03.26-.03-.06-.22-.23-.29-.33-.34.04-.17.16-.15.21-.36.03.37.27.22.38.24.14.06.08-.35.12-.34.04.19.21,0,.16.28-.03.07-.13-.17-.17.01.11.13.15.45.28.19.1-.2-.16-.71.13-.52-.05.1-.04.25-.06.38l.26.15-.05-.33c.04.08.03.11.05.15,0-.36.33-.17.31-.56.11-.05.28.19.4.21l-.02.03c.17.17.32.01.4-.23v.07c.08.01.25-.07.31-.28.23.22.27,1.23.41.78.18-.04.19-.65.08-.85.37.17.66-.44,1.06.02.03-.14-.02-.22.07-.31.51.05.98-.56,1.48.02-.12.16.04.33.08.52.07-.31.19.28.15-.23-.06-.3-.07-.44-.23-.54.27-.21.72-.28.93-.03-.1-.13-.06-.23,0-.33.06.48.29.51.42.32l-.02-.29.16.28c.05-.1-.03-.62.18-.37.03.11.05.22.1.3.13-.26.31-.7.53-.49l.22.4c.07-.06.16-.33,0-.43.36.2.56.2.72.55.4-.98,1.19-1.14,1.84-1.17v.22c.21.18.05-.39.19-.26-.03.22.2.43.1.71.28.19.26-.42.41-.54-.02-.29-.1.2-.12-.17.01-.11.37.17.35-.26.09.16.08.49.07.67l.12-.23c.25.48-.29.96-.01,1.56l.13-.09c.19.43-.29.56.07.67.12-.23.16-.88,0-1.05.3-.16,0-1.05.35-1.06.13.24-.27.1-.15.44.21.33.3-.24.46-.13-.18-.14-.1-.6,0-.69.2.18-.06.42.19.44.01-.26.22-.47,0-.62.02-.58.28.12.36-.32.13.39-.14.94.15,1.12-.09-.38.27-.55.06-1.11.12.1.16.41.11.65.18.23.28-.73.42.03v-.4c.07.12.15.22.25.42.13,0,.37-.56.42.03.04-.06.34-.06.18-.46-.22-.24-.18.32-.35-.23.18.44.26-.08.36-.24l.04.23c.05-.09.21-.06.22-.31-.04.14,0,.29.07.34l.03-.35c.24-.19.13.61.37.49l-.16.29c.04-.06.16.26.27.14.01-.32.06-.71.08-.96.13-.15.1.36.21.02l-.15.4c-.02.11.18.52.37.5.11-.12.25-.59.04-.75.1-.01.25.17.2.41.21-.13-.06-.34.1-.55.1.21.37.49.55.79l-.14.55h.13c-.13.44.12.32.07.77.1.06.19-.1.26-.22-.33-.7.19-1.01.05-1.66.34-.21.38,1.59.65.53-.08-.17.05-.68-.16-.48.23.06.09-.67.38-.42-.17.29.27.65.03,1.07,0-.22-.17-.15-.21-.09.12.25.04.66.27.65.13-.07.32-.1.26-.44-.04-.38-.21.06-.16-.33.26-.15.36.42.42-.26-.17.06-.25-.32-.27-.58l.19-.17-.02.25c.34.16.05-.46.38-.42l.19.49c-.04.43-.48-.16-.36.53.21.01.24-.34.45-.18-.04.06-.1.08-.13.15.08.02.23.93.48.37.13-.22.02-.25,0-.51.32-.1.4-.38.61-.43,0,.51.38.02.19.56-.13-.29-.61-.23-.68.27.17.59-.27-.07-.28.55.27,0,.3.59.38.97.08.02.13-.15.17-.21,0-.37-.1-.36-.13-.73.3.08.57-.15.7-.51.11.17.11.54,0,.58.34-.13.72-.11,1.06-.02-.26-.58.36-.17.17-.65-.19-.12-.38-.54-.3-.81.12.03.02.26.07.39.12-.34.26.51.36-.02-.31.22,0,.73-.03,1.2.21-.28.02.33.24.32.21-.28.47-.5.72-.62.35.42.81-.05,1.1-.09.17.23.1.76.27.84.19-.02-.18-.56.12-.34l-.02.11c.08-.13.54.32.57-.44l-.05.58c.06.05.1-.09.14-.15.01.19.09.35,0,.48.2.38.36-.09.55-.12l-.14-.33c.31-.29.54.03.85-.11v.33s.18-.21.18-.21c-.03.32.16.52.24.24l-.43.85c-.15-.19.12-.41.02-.73-.09-.28-.37-.17-.4.15.11.03.11-.04.19-.17.07.46-.1.45-.17.77.06-.02.15.11.15-.04-.1.23-.21.28-.4.3.12-.19-.09-.28-.05-.42.01.41-.16.55-.4.45-.2-.46-.42.33-.7.22.08-.42.2-.76.35-.94-.18-.2-.19.03-.37-.17-.06.31-.09.79-.3.99l-.03-.3c-.19.17-.16.62-.42.55-.45-.12-.9-.09-1.24-.1l-.04-.3c-.14.66-.6.28-.83.59-.45-.26-.9.36-1.16-.15-.73.29-1.36.56-2.15.51l.09-.45c-.11.33-.11-.25-.25-.17.19.34-.15.47-.22.75-.38-.32-.79.09-1.06.42l-.04-.3c-.25.59-.67.12-1.07.05-.06-.12-.16-.4-.27-.36-.16.5-.27.48-.54.8-.22.02-.6-.08-.85-.25-.78.73-1.64.42-2.45.95l-.11-.35c-.73.88-1.86.35-2.52.85l-.03-.61c-.25-.15-.49.24-.36.66-.26-.15-.52.38-.74-.09-.25-.07-.24.32-.42.44-.5-.15-.66-.07-1.08.11l.11.02c.03-.14-.01-.4-.13-.42-.13.19-.63-.06-.34.63-.53-.34-1.03.52-1.58.03.07.19-.04.25-.06.39-.41.08-.9-.25-1.17.14-.08-.09.05-.35-.12-.34-.09.09.04.26-.06.39-.6.48-1.4-.15-1.99.05-1,.56-2.15.57-3.17.81v-.15c-.26.61-.92-.42-1.04.46-.07-.06-.1-.07-.26-.08-.33,0-.54-.05-.39-.19-.68.26-1.86-.22-2.39-1.11-.57-.85-.67-2.01-.43-3.06-.09.17-.11.28-.1.52.1-.25.23-.46.36-.66l.21-.28.06-.06c.07-.08.11-.17.16-.26.09-.18.19-.37.44-.46.02.07,0,.17.12.27.33.04-.24-.7.38-.34.06-.08-.23-.28-.26-.21.42-.3.7-.73.99-1.2.31-.49.52-.98,1.14-1.59.32-.11.49-.06.61,0,.12.07.18.17.23.25.09.15.09.22.24-.18.12.09-.1-.25-.02-.13.14-.32.73.49.71.09-.27-.35-.01-.27-.13-.5.58,0,.82.36,1.03-.11l.07.22c.15-.77.75-.63.83-1.45,2.22-.94,4.26-1.84,6.48-2.35,1.12-.13,2.19-.35,3.36-.49.54-.07,1.32-.11,1.88-.08.61.02,1.18.09,1.74.22.51.62.53.61,1.12.41-.03.1-.07.11-.03.21.06-.49.41-.02.49-.49.81.16,1.57.08,2.4.16-.14.04-.24.43-.08.42l.19-.3v.14c.13-.06.27-.29.17-.46,2.13-.21,4.04,1.02,6.06,1.16.45.27,1.15.17,1.68.15.69.41,1.34.79,2.02,1.06l2.23.88-.46,1.39c-.25.74-.35,1.5-.19,2.33,0,0-1.25-.32-1.48-.99Z"/>
      <path class="cls-1" d="M158.25,54.77c-.07-.24-.25-.36-.13-.7.03.23.14.48.13.7Z"/>
      <path class="cls-1" d="M153.34,52.59c0,.07-.08-.09-.09-.13.06-.02.1-.23.15-.11-.06.02-.04.14-.06.24Z"/>
      <path class="cls-1" d="M152.11,52.53c0-.22.25-.41.4-.45l-.4.45Z"/>
      <path class="cls-1" d="M150.89,51.71c-.12-.18-.1-.28.04-.28.02.12-.02.18-.04.28Z"/>
      <path class="cls-1" d="M150.85,52.21c-.09.01-.15-.11-.21-.23.02.19.21-.13.21.23Z"/>
      <path class="cls-1" d="M148.32,51.76c-.06.02-.17.21-.25-.03.08.16.26-.3.25.03Z"/>
      <path class="cls-1" d="M147.2,52.17s-.06-.05-.09.01c-.08-.09-.02-.26.03-.28l.06.27Z"/>
      <polygon class="cls-1" points="127.44 57.07 127.43 57.08 127.43 57.08 127.44 57.07"/>
      <path class="cls-1" d="M133.91,53.39c.07-.17.14.17.17.2-.09.05-.05-.27-.17-.2Z"/>
      <polygon class="cls-1" points="138.26 51.14 138.23 51.16 138.15 50.72 138.26 51.14"/>
    </g>
  </g>
  <g>
    <path class="cls-3" d="M160.37,50.41l-.22,2.34s10.37,2.58,13.77,3.64c4.1,1.28,16.14,5.86,16.14,5.86.49.18.96-.33.73-.8-.62-1.28-1.58-3.14-2.23-3.79-2.27-2.28-8.45-4.8-11.55-5.68-4.02-1.14-16.64-1.56-16.64-1.56"/>
    <g>
      <path class="cls-1" d="M161.03,50.6c-.07-.2-.33.09-.13-.14.14.04.25.08.13.14Z"/>
      <path class="cls-1" d="M161.2,50.93c.86-.92,1.89.09,2.82-.47.11-.04-.05.52.19.41.91-.69,2.26-.17,3.27.47l-.07.14c.19.12.47-.35.68-.27,0,.1-.08.13-.04.27.07-.29.39-.11.5-.32.08.12.05.35.15.49l.15-.33c.4-.77.82.12,1.31-.25-.03.08-.08.13-.05.21.78-.42,1.7-.24,2.55-.32-.05.11-.1.33-.07.46.08-.35.35-.41.58-.45.06.37.42-.28.66-.05l-.03.08c.24-.35.26.25.48-.18l.08.3c.16-.49.24.3.44.07v-.11c.18-.1.22.16.37.1v.06c.35-.08.49.24.56-.15.06.34-.34.08-.25.58,1.14-.24,2.24.17,3.26.52.06.19.12.26.1.42.13-.04.41.07.57-.09-.04,0,0,.22.04.25.13.21.36-.34.5-.09-.12.07-.19.18-.22.33.28-.23.5-.09.74-.11-.06.05-.12.07-.16.19.35-.24.38.23.66.1l-.16.19c.21.39.27-.41.48-.15-.09.04-.1.13-.15.22.41-.29.77.02,1.07,0-.03.02-.05.08-.05.08.3.07.52.32.9.28.07.14-.27.5.05.55.18-.43.56.06.62-.5.21.18.52.53.75.47-.19.1-.14.57-.35.5l.02.33c-.11.16-.12-.13-.18.1.11.03.48.01.53.12.31-.16.73-.54,1.06-.43-.23.08-.17.49-.3.51.28-.19.56-.37.85-.55.11.04-.16.33.04.31.05-.11.15-.14.25-.2.01.06.47.14.28.56-.05.18-.21-.02-.19.19.18.11.27-.02.45.09l-.03.05c.08.13.45.06.46-.24-.07-.06-.12.25-.17.06.23-.17.48-.09.66.03-.1.02-.17.12-.26.21.44-.14.77-.04,1.13.07.14-.17-.35.23-.31.11.13.43.82.3.95.71.02.05.03.11.02.17-.08-.03.2-.24.16-.19.17.23-.1.41.09.46-.14.13.16.11.29.2.15-.02-.05.08-.14,0,.26.07.93.59.9,1.1.1-.07.52.01.56.11l-.27.11c-.1.16.18.28-.03.41.41.02-.65-.56-.28-.45-.17.18.59.13.22.26.1.17.48.18.33.48.01-.07-.42.05-.33.17.17.22.16,0,.35.16l.17.07c.25-.12.08.24.31,0-.19.13.31.3-.12.48l-.34.13c.08.09.43,0,.62.02-.02.03-.08.09-.13.11.25-.11.27-.05.29.04,0,.05.01.09.04.13.07.13.16.23.29.33.03.45-.03,1.04-.28,1.45-.24.42-.61.65-.85.59-.19.22-.46.42-.78.5-.16.04-.33.05-.51.03-.09,0-.17-.04-.26-.07-.04-.01-.09-.03-.12-.05l-.03-.03s.28.02.32-.1c-.22-.14-.22-.16-.27-.15-.05.01-.11.05-.18.07.06-.07-.14-.4-.21-.64-.23.09-.28.39-.36.56.03-.57-.62.15-.64-.4.09-.05.35-.16.25-.34.03-.57-.46.26-.63-.09l-.1.45c-.01-.31-.47.1-.28-.32-.14.12-.25-.25-.38.17-.29-.51-1.11-.17-1.09-1.02-.09.05-.21-.08-.26.14.01.27.2-.11.18.06-.06,0-.11.1-.14.16-.1-.14-.19-.21.07-.51-.2-.37-.57.59-.88.29.08-.17.08-.24-.04-.26l-.32.22c-.21-.16,0-.44.11-.74-.15,0-.3-.07-.44.13l-.02-.43c.01.31-.17.14-.26.19l.09-.05c.02-.13-.16-.11-.24-.1-.05.19.08.32.14.4-.11.1-.2.04-.35.16.14-.28-.13-.28-.23-.35-.09-.11-.23.21-.26.19.05-.15-.18-.1-.01-.27.06-.03.04.18.15.07-.04-.14.07-.4-.16-.27-.17.1-.18.58-.34.31.09-.05.14-.16.22-.24l-.16-.23-.11.26c0-.08.02-.09.02-.13-.17.25-.36-.04-.52.25-.12-.01-.16-.26-.25-.33l.03-.02c-.07-.2-.28-.16-.45-.02l.03-.05c-.06-.05-.24-.06-.38.06-.1-.26.3-1.01-.01-.75-.18-.06-.45.38-.44.57-.25-.29-.77,0-.92-.51-.08.09-.08.17-.2.19-.43-.27-1.1-.05-1.29-.7.18-.06.1-.26.15-.41-.2.19-.05-.29-.23.1-.07.24-.13.35-.03.49-.32.03-.75-.13-.82-.4.04.14-.05.19-.13.24.15-.37-.03-.5-.23-.42l-.1.22-.02-.27c-.09.05-.24.46-.31.18.02-.09.05-.19.04-.26-.23.13-.57.37-.67.12l-.03-.39c-.09.01-.28.17-.19.31-.23-.31-.41-.4-.4-.72-.76.54-1.5.32-2.06.08l.07-.17c-.11-.21-.18.28-.26.13.11-.15-.01-.39.18-.57-.18-.25-.4.22-.57.26-.09.22.17-.11.05.17-.05.08-.27-.26-.41.07-.02-.15.11-.4.18-.53l-.2.13c-.05-.45.62-.62.59-1.17l-.15.02c-.01-.4.48-.32.18-.53-.2.13-.48.6-.4.79-.33.02-.39.79-.71.68-.03-.23.27.02.3-.28-.07-.32-.35.08-.46-.06.11.17-.12.49-.24.53-.11-.21.21-.3-.01-.4-.1.19-.36.28-.22.47-.22.43-.2-.19-.44.13.02-.34.46-.68.26-.91-.05.32-.44.34-.44.83-.07-.12-.01-.36.12-.53-.09-.23-.52.47-.38-.15l-.14.3c-.01-.11-.05-.21-.08-.4-.12-.04-.53.32-.38-.15-.06.04-.34-.06-.32.3.12.25.28-.19.24.29-.02-.4-.27-.02-.41.07l.04-.19c-.08.06-.21-.02-.31.17.08-.09.09-.23.05-.28l-.15.26c-.29.07.09-.51-.18-.49l.25-.17c-.05.04-.06-.25-.2-.19-.12.25-.29.53-.39.72-.17.08.02-.31-.19-.08l.27-.26c.05-.08,0-.46-.18-.5-.14.06-.43.38-.29.57-.09-.02-.18-.21-.05-.38-.23.03-.05.28-.28.4-.02-.19-.18-.49-.25-.78l.31-.38-.12-.04c.26-.3,0-.29.19-.62-.07-.08-.21.02-.32.09.08.65-.51.72-.58,1.27-.38.05.15-1.35-.44-.61.02.15-.26.51,0,.42-.2-.11-.29.5-.48.21.25-.17-.05-.59.31-.84-.07.17.11.17.17.13-.03-.23.17-.53-.05-.59-.15.02-.33-.02-.38.26-.08.31.21.02.04.31-.29.04-.21-.44-.47.07.18,0,.13.33.07.54l-.23.08.09-.19c-.27-.23-.19.34-.48.21l-.03-.44c.17-.33.4.27.5-.31-.19-.08-.33.19-.48,0,.05-.04.11-.04.17-.08-.06-.04.07-.8-.33-.44-.19.13-.09.19-.15.4-.33-.02-.48.17-.69.15.15-.4-.35-.13-.01-.49.04.27.5.36.72,0,.02-.52.23.13.43-.34-.25-.08-.11-.55-.06-.88-.06-.04-.17.07-.22.11-.11.29-.02.31-.09.61-.26-.15-.58-.06-.81.18-.06-.17.05-.46.17-.46-.36,0-.71-.14-1-.31.08.54-.39.02-.35.46.14.15.2.54.05.73-.1-.06.06-.21.04-.33-.2.23-.1-.48-.34-.1.35-.08.21-.57.37-.94-.28.15.08-.27-.14-.32-.3.15-.53.26-.94.24-.28-.46-1.05-.29-1.48-.38-.05-.22.41-.55.29-.66-.22-.05-.22.43-.39.18l.11-.06c-.21.05-.28-.38-1.05.07l.6-.34c0-.05-.19.03-.28.04.18-.13.31-.28.45-.29.33-.39-.03-.32-.03-.52l-.31.3c-.2-.26.12-.66.05-.97l.29-.07-.15-.16c.27-.02.46-.22.24-.29.21.14.43.23.65.29-.18.17-.33-.02-.62.13-.25.14-.21.45.07.37.04-.12-.02-.1-.12-.15.4-.18.37-.01.64-.06-.01-.04.12-.16,0-.12.19.02.21.08.21.22-.15-.02-.26.19-.37.21.36-.17.46-.11.34.12-.25.23-.09.2.11.15.19-.05.4-.14.44-.07-.37.26-.74.44-1.04.51,0,.18.18.04.19.22.31-.18.69-.49.96-.58l-.18.21c.26-.07.5-.39.61-.29.23.19.47.25.84.39l-.05.25c.32-.48.65-.03.96-.2.35.35.97,0,1.07.48.78,0,1.48,0,2.21.28l-.23.32c.21-.22.03.23.18.21-.07-.32.29-.32.44-.51.26.37.78.18,1.15.01l-.06.25c.43-.38.68.12,1.04.29.01.11.02.36.14.36.32-.34.42-.28.79-.45.22.06.55.25.73.46.99-.33,1.73.24,2.69.14l-.03.3c1.03-.39,1.89.54,2.68.46l-.23.46c.17.22.54.05.6-.31.17.22.63-.04.63.4.19.17.35-.12.56-.12.38.34.56.36,1.01.42l-.09-.07c-.08.09-.16.29-.07.36.2-.08.53.34.58-.29.33.49,1.14.11,1.42.71.02-.17.14-.16.23-.25.4.14.69.6,1.1.45.03.1-.2.23-.04.3.12-.02.08-.2.23-.25.74-.06,1.17.77,1.78.91,1.13.08,2.15.63,3.14.94l-.05.11c.49-.31.6.74,1.11.18.04.14.28.16.14.36.38-.21.62.57,1.15.32-.03-.02-.06,0-.12.03.14.2.33.24.52.28.1.02.19.04.29.08.05.02.09.04.14.08l.06.05.03.03v.02s.02,0,.02,0h0s0,0,0,0c.37-.99-.5,1.35-.41,1.11h0s0,0,0,0h0s0,0,0,0c.13-.36.27-.73.41-1.1h-.01s-.02.02-.02.02l-.05.03s-.07.05-.09.11c0,.03.02.05.04.06,0,0,.02,0,.03,0h.02s0,0,0,0h0s0,0,0,0h0l-.33.88h0s0,0,0,0c-.01.02-.02.05-.02.06,0,.03,0,.02,0,.02,0-.01,0-.01,0,0-.03-.05-.02-.02.02-.02,0,0,0,0-.02,0h-.04s-1.03.5-1.03.5l-.02-.04c-.06-.1-.13-.2-.2-.29-.28-.39-.61-.75-.89-1.12,0-.74.85-.52.21-.75.08-.09-.21.09-.11.02-.24-.09.41-.6.08-.56-.28.23-.22.03-.41.14,0-.43.22-.7-.15-.74l.16-.1c-.24.03-.36.01-.45.01-.22-.06-.38-.17-.75.02-1.45-1.01-3.43-1.63-5.27-2.38-1.75-.9-3.77-1.39-5.43-2.15-.27-.59-.35-.58-.87-.47.03-.08.07-.09.05-.17-.1.4-.35-.03-.47.35-.72-.19-1.42-.17-2.2-.26.13-.03.23-.35.08-.34l-.18.24v-.12c-.12.05-.25.24-.16.38-1.99.14-3.9-.83-5.88-.86-.46-.2-1.14-.08-1.65-.03-1.48-.63-2.84-1.14-4.38-.81,0,0,.23-1.05.88-1.27Z"/>
      <path class="cls-1" d="M161.05,50.83c-.21.05-.34.23-.61.13.2-.04.42-.13.61-.13Z"/>
      <path class="cls-1" d="M162.57,54.84c.02-.06.04.1.05.13-.06,0-.16.15-.17.04.06,0,.08-.1.12-.17Z"/>
      <path class="cls-1" d="M163.71,55.26c-.06.17-.35.25-.5.23l.5-.23Z"/>
      <path class="cls-1" d="M164.6,56.28c.05.17,0,.25-.12.21.02-.1.07-.13.12-.21Z"/>
      <path class="cls-1" d="M164.78,55.9c.09.02.11.14.12.25.04-.15-.23.04-.12-.25Z"/>
      <path class="cls-1" d="M166.99,57.03c.06,0,.22-.11.22.1-.02-.15-.34.15-.22-.1Z"/>
      <path class="cls-1" d="M168.16,57.05s.04.06.09.02c.04.1-.06.21-.12.21l.03-.23Z"/>
      <polygon class="cls-1" points="187.94 62.92 187.79 62.96 187.88 62.8 187.94 62.92"/>
      <path class="cls-1" d="M188.15,55.57c-.18.02.02-.19.02-.23.11.06-.17.16-.02.23Z"/>
      <polygon class="cls-1" points="183.27 53.88 183.3 53.89 183.14 54.22 183.27 53.88"/>
    </g>
  </g>
  <g>
    <path class="cls-5" d="M158.59,55.62c-20.38-.41-30.5,12.92-30.5,12.92-9.04,13.2-8.19,23.54-8.19,23.54,0,0,28.87,5,38.51,6.6,33.68,5.62,33.91,3.18,33.91,3.18,0,0,.06-19.68-2.52-25.55-1.23-2.81-6.38-20.19-31.2-20.69Z"/>
    <g>
      <path class="cls-1" d="M158.1,56.44c.72-.12-.38-.38.47-.18-.1.18-.24.32-.47.18Z"/>
      <path class="cls-1" d="M160.97,56.33c.6-.25,1.24-.35,1.91-.37.66.02,1.34.16,2.02.29.68.14,1.36.29,2.04.38.67.15,1.33.27,2,.25.3.03-.24.59.46.61,1.34-.18,2.86.42,4.4,1.07.73.42,1.45.9,2.13,1.39l.5.37.45.42c.29.28.57.56.84.83l-.25.05c.39.42,1.33.26,1.75.73-.07.1-.25.02-.24.23.33-.19.95.54,1.32.49.1.26-.1.46.04.76l.53-.09c1.33-.02,1.69,1.61,2.87,2.3-.11.01-.25-.04-.25.1.94.58,1.75,1.49,2.54,2.44.36.51.72,1.02,1.08,1.53.34.53.67,1.05,1,1.56-.17-.02-.45.03-.52.22.44-.1.85.53,1.21,1.07-.26.44.82.85.89,1.65l-.11-.02c.63.34.07.88.74,1.07l-.19.45c.66,0-.01.9.44,1.23l.12-.05c.28.39.02.69.23,1.06l-.06.06c.41.89.13,1.51.61,1.39-.31.4-.35-.87-.8-.24,1.1,2.94,1.31,6.18,1.54,9.28-.16.37-.21.6-.39.69.12.3.16,1.16.42,1.43-.02-.1-.23.21-.25.38-.15.57.56.59.37,1.22-.14-.24-.3-.32-.47-.23.4.51.38,1.22.52,1.85-.08-.09-.14-.24-.29-.21.45.67-.04,1.25.24,1.84l-.28-.22c-.31.98.59.27.41,1.11-.09-.2-.2-.12-.31-.16.53.79.39,1.99.57,2.85-.04-.06-.11-.05-.11-.05.04.48.02.96.01,1.44,0,.24,0,.49,0,.74v.38c0,.12.04.27-.07.37-.4.09-.39-.44-1.17-.16.44.52-1.45.41-.59.94-.49-.01-1.11-.04-1.65-.08-.51-.04-.92-.05-1.19.05.35-.21-.36-.68.28-.73l-.47-.35c.08-.22.49.09.34-.2-.31.02-1.24.2-1.52.1-.6.33-1.18.91-2.15.92.47-.19-.21-.63.1-.7-.47.33-.94.65-1.42.96-.32,0-.03-.44-.51-.34.01.15-.2.22-.35.33-.11-.08-1.34.02-1.43-.54-.12-.23.53-.06.2-.29-.59-.06-.63.12-1.22.07v-.07c-.38-.12-1.17.11-.78.45.27.05-.07-.34.32-.14-.31.29-1,.3-1.59.24.21-.07.2-.21.3-.36-.84.34-1.69.36-2.59.43-.05.26.39-.43.5-.28-1.08-.5-2.4.22-3.26-.44.16-.02.03.38.03.3-.54-.11-.46-.48-.83-.39,0-.22-.45,0-.83.02-.21.13-.08-.12.24-.1-.53.12-2.61.17-3.73-.33,0,.15-.8.42-1.06.37l.16-.32c-.21-.24-.9-.11-.9-.4-.64.32,2.26-.02,1.44.18-.16-.31-1.16.38-.92-.06-.54-.07-1.12.23-1.59-.16.14.08.51-.4.07-.45-.77-.06-.24.13-.88.15l-.41.08c-.08.33-.68-.16-.45.26-.05-.29-1.14-.01-.97-.55l.17-.41c-.34-.02-.61.37-.9.51-.04-.05-.11-.15-.08-.22-.16.65-.78-.18-1.26.26-.66-.34-1.76-.3-2.02-.77-.56.11-1.09.26-1.67.02.13-.04.3-.03.36-.17-.35-.26-.47-.1-.84-.05.09-.08-.7-.52-1.08-.82-.56.11-.44.49-.53.7-.37-.73-1.56.16-2.07-.53.2-.06.82-.19.41-.43-.37-.73-1.05.31-1.78-.13l.1.57c-.29-.39-1.2.12-1.03-.42-.29.15-.89-.33-.89.21-1.2-.66-3.15-.26-3.78-1.34-.2.06-.64-.11-.59.17.25.35.46-.14.54.08-.17-.01-.23.13-.26.2-.38-.19-.68-.28-.23-.65-.83-.48-1.06.74-2.15.34.09-.21.02-.31-.32-.33l-.69.27c-.71-.21-.33-.57-.28-.94-.4,0-.87-.1-1.1.14l-.39-.54c.29.39-.36.17-.56.23l.2-.06c-.05-.17-.51-.15-.75-.14.01.24.46.41.7.52-.23.13-.53.04-.82.18.15-.35-.59-.37-.89-.46-.34-.14-.45.26-.56.23.02-.19-.57-.13-.25-.35.13-.04.25.23.47.1-.21-.18-.13-.5-.65-.35-.4.12-.03.73-.68.38.2-.06.26-.2.42-.3l-.62-.3-.08.32c-.07-.1,0-.12-.04-.17-.25.31-1.01-.06-1.22.3-.33-.02-.65-.35-.96-.44l.06-.02c-.35-.26-.88-.22-1.24-.05l.03-.07c-.2-.06-.71-.09-1,.05-.49-.34.03-1.27-.62-.96-.54-.08-.94.46-.76.71-.92-.39-2.11-.04-2.91-.7-.16.11-.09.21-.39.24-1.39-.37-3.05-.12-4.06-.96.43-.07.08-.32.11-.51-.18.12-.3.02-.41-.05-.09-.07-.15-.1-.3.13-.05.3-.09.44.45.66-.61-.02-1.58-.15-2.35-.29-.75-.19-1.36-.42-1.58-.62.23.2-.12.21-.49.21.13-.09.18-.17.16-.25,0-.05-.07-.04-.03-.14.02-.08.03-.17.04-.26.04-.35,0-.74-.1-1.05l-.29.05c.09-.21.19-.43.29-.62-.09-.23-.63-.09-.34-.95.12-.07.23-.14.33-.29-.1-.36-.24-.83-.3-1.34-.02-.27-.04-.41-.03-.57.01-.16.05-.31.13-.45l.49-.41c-.01-.24-.2-.69-.39-.28.39-.93.55-1.52.97-1.75-.57-1.79.02-4.2.75-5.98l.19.13c.36-.42-.28-.38-.02-.67.14.23.56-.21.66.26.48-.6-.01-1.01.07-1.5-.24-.17.03.43-.28.21-.07-.12.58-.87.22-1.14.23-.11.47.15.6.31-.01-.17-.01-.33-.02-.49.67-.3.36,1.49,1.16,1.21l.09-.4c.56-.17.09,1.18.6.31-.02-.48-.45-1.07-.79-.79.27-.88-.78-.81-.33-1.71.35-.14-.28.76.13.73.51-.28.21-.94.5-1.27-.35.35-.58-.2-.51-.5.42-.37.22.48.59-.15-.17-.22-.03-.9-.45-.46-.39-.49.49-.6.28-1.16.46-.02.48,1.1,1.02.49-.41-.07,0-1.12-.71-1.02.26-.22.54-.1.63.21.43-.27-.07-1.29.67-1.03l-.27-.33c.18-.06.37-.18.66-.27.19-.34.19-1.36.69-1.01.02-.14.52-.87-.01-.81-.52.33-.09.7-.74.66.6-.09.39-.71.44-1.06l.22.08c.03-.21.31-.56.17-.8.03.2.2.22.33.12l-.18-.36c.14-.38.29-.33.46-.29.09.02.16.06.26,0,.09-.04.28-.22.37-.37l-.05.17-.09.23c-.07.16-.08.29-.1.39-.02-.1.56-.34.7-.65-.15-.33-.25-.8-.35-1.06.21-.44.41.09.47-.47l-.11.7c.02.14.65.05,1.06-.37.18-.34.27-1.1-.28-.79.21-.22.64-.38.64-.04.41-.54-.31-.19-.02-.73.33,0,1.06-.3,1.6-.35-.03.26-.06.53-.08.79l.29-.26c-.08.66.41.08.5.6.24-.12.38-.44.5-.69-1.07-.05.02-1.32-.57-1.69.74-.84,1.53.84,1.78-.67-.25-.02-.13-.75-.56-.18.58-.35-.04-.83.78-1.07-.33.56.91.19.44.99-.09-.22-.48.14-.54.28.37.04.35.56.89.16.3-.28.76-.61.49-.85-.23-.3-.5.39-.5-.07.61-.58,1.05-.18.96-.94-.41.34-.74.09-.87-.13l.43-.49.04.28c.93-.41,0-.55.86-1.01l.65.19c.03.48-1.3.56-.78,1.06.54-.3.53-.7,1.13-.85-.08.12-.22.23-.3.34.21-.1.86.59,1.34-.33.29-.41-.02-.28-.14-.51.84-.53.99-.9,1.54-1.24.11.52,1.03-.48.63.32-.42-.12-1.7.58-1.77,1.16.6.35-.72.3-.58.95.68-.39.94.14,1.24.43.2-.07.3-.31.39-.42-.09-.36-.34-.23-.54-.55.82-.31,1.46-.88,1.74-1.43.35.05.41.41.12.59.89-.52,1.93-.93,2.87-1.2-.82-.34.98-.5.4-.82-.55.05-1.14-.19-.96-.54.33-.08.09.25.26.32.29-.45.81.27,1.03-.36-.84.5.08.75.07,1.25.55-.47.09.32.71.1.54-.47,1.26-.96,1.97-1.23,1.03.19,2.3-.65,3.14-.78.48.15.29.73.77.73.54-.11-.51-.49.34-.4l-.06.12c.23-.16,1.53.06,1.67-.7l-.17.6c.16.04.28-.11.4-.18.03.18.23.33,0,.48.55.34,1.03-.17,1.58-.24l-.38-.3c.91-.34,1.57-.14,2.47-.26v.33s.52-.21.52-.21c-.12.32.38.52.65.25l-1.35.84c-.39-.19.4-.41.14-.73-.22-.3-1.05-.14-1.16.2.32,0,.33-.07.57-.22.13.45-.35.48-.56.82.16-.04.4.08.43-.07-.3.26-.62.33-1.15.39.34-.22-.22-.26-.1-.41,0,.41-.5.59-1.16.54-.54-.44-1.19.46-1.95.48.23-.46.57-.86,1.01-1.12-.51-.12-.53.11-1.05,0-.18.35-.26.84-.84,1.14l-.09-.29c-.53.27-.44.68-1.15.77-1.21.2-2.47.46-3.35.77l-.13-.28c-.28.8-1.58.79-2.12,1.34-1.21.21-2.25,1.28-3.01,1.13-.44.29-.87.58-1.29.86-.41.3-.81.59-1.21.89-.83.55-1.61,1.18-2.54,1.75l.04-.57c-.13.48-.36-.06-.63.23.56.01-.15.69-.19,1.07-.49.15-.91.51-1.26.93-.36.41-.63.89-.82,1.29l-.23-.2c-.24.99-1.29,1.36-2.04,2.09-.08,0-.22,0-.34.01-.11,0-.21.04-.29.19.08.77-.11,1.01-.32,1.9-.36.52-.96,1.34-1.45,1.8-.59,2.38-2.03,4.34-2.52,6.77l-.4.03c-.14,2.45-1.57,5.01-1.53,7.05l-.56-.3c-.32.59-.07,1.44.38,1.34-.14.29-.12.68-.12,1.04,0,.09,0,.18-.01.26,0,.05-.02.09-.03.11-.03.05-.1.1-.23.15-.14.29.27.25.35.35-.06.12-.1.24-.13.34,0,.02-.01.05-.01.07l.04.02s.06.02.1.03c.14.03.32.01.53,0l-.07-.05c-.11.12-.26.35-.15.41.15-.06.24,0,.46,0,.32.03.53-.04.36-.44,1.27.65,3.18.2,4.39.98-.08-.22.26-.2.42-.31,1.18.19,2.34.8,3.34.63.17.13-.35.28.12.39.3-.03.05-.26.42-.31,1.97-.04,3.79,1.04,5.54,1.24,3.14.15,6.32.89,9.28,1.33l-.06.14c1.08-.38,2.22.96,3.15.27.21.18.88.22.66.47.85-.26,2.14.74,3.36.44-.1-.03-.17-.01-.3.03,1.09.52,2.18.25,3.34.75-.13.04-.36.05-.42.19.42.36,1.21-.42,1.35.32.27.04.25-.32.08-.32,2.61.7,5.51.73,8.29.99,1.91.72-.06,1.19,1.58.91.11.15.13-.25.13-.11.63-.1.82.92,1.3.62-.11-.46.31-.2.36-.46,1.17.45,1.36.87,2.36.68l-.1.22c1.21-.48,2.46.04,3.5-.58,3.09.34,6.12.53,9.08.63,1.47.04,2.96.07,4.33,0,.13,0,.1-.01.12-.02l.03-.02s.03-.03.03-.04c.02-.02.01-.06,0-.08,0,0,.02-.01.02-.03,0-.02,0,.02,0-.04v-.56s-.06-2.22-.06-2.22c-.05-1.48-.12-2.95-.21-4.42-.19-2.91-.37-5.83-.56-8.8.39-1.42.38-1.57-.15-2.94.11.04.15.12.22,0-.25.01-.31-.24-.37-.49-.07-.24-.14-.49-.39-.49-.05-.24-.1-.48-.16-.71-.06-.22-.14-.39-.2-.59-.08-.21-.1-.32-.25-.66l-.34-.81c-.41-.99-.85-1.87-1.32-2.83.19.28.63.26.42-.09l-.46-.24.09-.12c-.2-.21-.55-.35-.56-.03-1.43-2.21-2.82-4.35-4.52-6.29-.44-.46-.85-.98-1.32-1.41l-1.44-1.29c-.5-.41-1.05-.75-1.59-1.12-.27-.18-.54-.36-.82-.53l-.88-.42c-.51-.35-1.16-.74-1.89-.99-.74-.24-1.5-.44-2.14-.64-3.6-1.88-7.42-2.93-11.71-2.65,0,0,.58-1.23,2.42-1.41Z"/>
      <path class="cls-1" d="M157.24,56.51c-.15-.24-.66-.37-.27-.7.05.23.32.48.27.7Z"/>
      <path class="cls-1" d="M143.32,56.36c0,.07-.22-.03-.28-.05.16-.08.25-.33.42-.25-.16.08-.1.18-.14.3Z"/>
      <path class="cls-1" d="M139.89,57.58c-.04-.22.61-.69,1.03-.91l-1.03.91Z"/>
      <path class="cls-1" d="M136.41,58.32c-.35,0-.33-.15.03-.33.08.09,0,.2-.03.33Z"/>
      <path class="cls-1" d="M136.44,58.88c-.24.15-.43.11-.61.08.1.16.51-.45.61-.08Z"/>
      <path class="cls-1" d="M129.93,62.66c-.13.13-.31.53-.6.45.26,0,.5-.79.6-.45Z"/>
      <path class="cls-1" d="M127.56,65.32c-.09.07-.15.08-.2.22-.22.08-.18-.19-.07-.33l.27.11Z"/>
      <polygon class="cls-1" points="151.5 99.17 151.14 99.22 151.22 99.01 151.5 99.17"/>
      <path class="cls-1" d="M177.4,103.13c.37-.09.22.23.28.27-.32-.02.15-.25-.28-.27Z"/>
      <polygon class="cls-1" points="191.99 102.61 191.88 102.65 191.62 102.27 191.99 102.61"/>
    </g>
  </g>
  <g>
    <path class="cls-4" d="M163.86,56.38l-2.95,25.4-3.14,16.03-31.42-5.12,2-6.36c1.13-3.61,2.62-9.12,4.55-12.37l1.63-2.56c2.53-4.25,5.53-7.3,9.57-10.15l2.69-2.1c3.26-2.29,6.68-4.1,10.66-4.27"/>
    <g>
      <path class="cls-1" d="M164.63,56.77c-.05-.47-.41.2-.14-.32.17.08.29.19.14.32Z"/>
      <path class="cls-1" d="M155.84,54.46c-.67.68-1.48.86-2.34,1.08-.85.21-1.75.47-2.32,1.15-.15.13-.23-.59-.55-.26-1.01,1.49-3.34,2.3-5.26,3v-.21c-.38.12-.38.87-.74,1.04-.07-.09,0-.21-.17-.28.13.34-.46.56-.43.88-.2-.02-.36-.25-.61-.26l.06.45c.07,1.12-1.26.84-1.62,1.76-.03-.1,0-.21-.12-.24-.69,1.3-2.01,2.34-2.88,3.59-.06-.14-.21-.36-.39-.41.26.35.02.76-.18,1.11-.45-.15-.15.77-.63.98l-.05-.09c.13.55-.53.24-.27.8l-.41-.04c.4.49-.55.21-.47.63l.11.07c-.04.3-.37.24-.43.51l-.07-.02c-.2.57-.66.68-.26.92-.43-.04.16-.57-.48-.61-.33.95-.74,1.86-1.26,2.71-.5.87-1.07,1.67-1.48,2.54-.27.11-.38.22-.57.18,0,.22-.23.71-.07.97.02-.06-.28.02-.34.11-.31.26.34.56,0,.84-.06-.19-.18-.3-.37-.32.22.45,0,.84-.02,1.26-.05-.09-.07-.19-.21-.23.24.55-.35.71-.23,1.16l-.21-.23c-.52.47.49.36.13.79-.04-.15-.16-.14-.26-.2.31.63-.09,1.33-.08,1.85-.03-.04-.1-.06-.1-.06-.1.53-.42,1.01-.38,1.64-.18.17-.63-.27-.7.31.54.14-.06.99.64.85-.23.44-.65,1.11-.57,1.48-.14-.27-.72.03-.65-.37l-.41.19c-.2-.11.16-.28-.14-.27-.04.2,0,.82-.14.97.21.46.72.98.6,1.58-.12-.34-.63-.03-.67-.24l.76,1.13c-.04.2-.43-.09-.38.23.15.03.19.18.28.3-.11.14-.05.62-.63.64-.24.05-.03-.28-.29-.12-.1.33.09.34,0,.64h-.08c-.16.25.08.55.48.27.06-.12-.38.12-.15-.1.31.07.33.3.27.52-.08-.04-.26.03-.43.06.33.14.45.28.56.41l.25-.05c.31-.2-.57.3-.6.26,0,0,.01-.01.02-.02v.02c0,.17.41.11.71.05.32-.06.54-.1.54.16-.09.03.22-.34.18-.27.15.06-.06.41.15.3-.1.21.22-.04.37-.08.12-.14,0,.11-.13.11.07-.04.17-.08.29-.11.14-.03.18-.08.46-.06.46,0,.96.08,1.31.3,0-.15.54-.46.7-.41l-.12.33c.12.23.57.06.55.36.43-.35-1.45.12-.91-.11.08.3.77-.43.59.02.34.04.73-.28,1.01.09-.09-.07-.35.42-.07.45.49.02.16-.14.57-.19l.27-.1c.07-.33.42.11.3-.28.02.28.73-.05.59.49l-.14.42c.21,0,.42-.4.61-.56.02.04.06.14.04.21.14-.65.49.14.82-.33.4.3,1.11.2,1.25.65.37-.14.71-.33,1.08-.13-.09.05-.19.05-.24.19.21.23.3.07.53,0-.07.09.42.46.65.74.37-.14.31-.52.38-.73.2.7,1.01-.27,1.3.39-.13.07-.54.24-.29.45.2.7.69-.38,1.14.01l-.03-.56c.16.37.78-.19.64.35.2-.17.55.27.58-.26.74.58,2.01.05,2.36,1.08.13-.07.41.07.39-.21-.15-.32-.3.17-.34-.05.11,0,.15-.14.18-.21.23.16.42.23.11.63.51.42.72-.8,1.4-.48-.07.21-.03.3.19.3l.46-.31c.45.16.18.54.13.91.26-.02.56.04.71-.21l.22.51c-.16-.37.24-.19.37-.26l-.13.07c.02.16.32.11.47.09,0-.23-.27-.37-.42-.47.15-.14.34-.07.54-.24-.11.35.36.32.55.39.21.11.31-.28.37-.26-.02.19.36.09.14.33-.09.05-.15-.21-.3-.07.13.16.05.49.4.3.26-.14.06-.72.46-.42-.13.07-.17.21-.29.33l.38.25.07-.33c.04.09,0,.11.02.16.18-.33.64,0,.8-.38.21,0,.4.3.59.37l-.04.02c.21.23.55.16.79-.03l-.02.07c.13.05.45.05.65-.12.16.15.1.46.09.7-.02.23,0,.38.14.19.25.03.29-.57.21-.8.13.14.27.08.38.05.12-.02.21-.02.5.29-.05-.14-.12-.24-.11-.32.05.02.09.04.13.04.03-.15,0-.39,0-.53.02-.15.09-.21.39-.22.11.19.31.17.49.24-.26-.25.32-.04-.15-.27-.29-.1-.43-.15-.56-.1-.03-.07-.05-.13-.05-.19,0-.07-.01-.07.03-.27.07-.3.2-.56.36-.68-.17.12-.23-.01-.3-.14.46.13.61-.25.5-.57l-.28-.1.33-.13c-.07-.13-.58-.24-.24-.48.11,0,.23.01.32-.03-.18-.35-.49-.86-.18-1.15l.47-.19c-.02-.15-.22-.44-.39-.21.36-.52.47-.88.87-.98-.69-1.15-.45-2.57-.17-3.7l.21.08c.26-.27-.35-.23-.15-.42.19.14.49-.14.7.14.31-.39-.26-.64-.31-.94-.27-.1.14.26-.21.14-.09-.07.34-.56-.08-.71.19-.08.49.07.65.16l-.16-.31c.56-.23.75.92,1.43.7l-.02-.26c.49-.15.38.75.65.16-.16-.31-.73-.66-.97-.46,0-.58-.97-.46-.82-1.05.28-.11-.03.49.34.45.4-.21-.08-.6.09-.83-.22.25-.6-.07-.65-.27.26-.27.37.28.49-.15-.23-.12-.34-.55-.58-.24-.26-.13-.2-.24-.13-.35.08-.1.18-.28-.04-.28h.01c.09.01.18.02.27.04.32.04.62.28.82.13,0,0,.01,0,.02-.01-.4.08-.46-.59-1.06-.41.13-.18.44-.16.66,0,.27-.24-.63-.73.15-.73l-.38-.14c.14-.07.25-.18.48-.29.03-.24-.44-.82.15-.73-.05-.08.04-.62-.4-.46-.29.31.26.42-.32.54.48-.18,0-.49-.13-.7h.23c-.08-.13,0-.39-.24-.49.12.1.28.08.35,0l-.34-.16c-.12-.49.63-.04.58-.51l.23.38c-.05-.08.29-.2.21-.43-.31-.12-.67-.33-.91-.43-.11-.27.37-.07.08-.37l.35.38c.1.06.55-.16.58-.51-.08-.23-.51-.63-.72-.3.02-.17.24-.39.45-.23-.06-.4-.35.01-.51-.35.23-.11.58-.51.92-.73l.49.41.03-.23c.39.35.34-.12.77.11.09-.15-.04-.36-.14-.53-.78.38-.93-.64-1.6-.58-.1-.66,1.65-.21.7-1-.18.09-.65-.28-.51.14.12-.39-.63-.35-.3-.79.23.38.71-.3,1.04.25-.21-.06-.2.26-.14.35.27-.14.66.11.71-.3-.03-.26,0-.6-.36-.59-.38-.03,0,.39-.37.18-.07-.51.51-.53-.13-.81.01.32-.38.35-.64.32l-.11-.38.24.1c.25-.56-.43-.23-.3-.78l.53-.21c.41.18-.28.8.42.78.07-.36-.27-.53-.05-.85.05.08.06.19.11.28.04-.13.97-.15.5-.74-.18-.3-.24-.1-.5-.14-.01-.6-.25-.81-.25-1.19.5.14.13-.67.6-.19-.32.16-.39,1.02.07,1.28.62-.15-.14.45.45.65.07-.47.66-.38,1.05-.41.04-.13-.11-.28-.16-.36-.36-.1-.37.07-.75.04.16-.52.02-1.05-.3-1.38.2-.16.56-.06.57.16-.03-.64.09-1.31.27-1.89-.64.32-.06-.68-.59-.48-.17.3-.63.53-.87.32.06-.2.26.04.4-.03-.3-.29.57-.34.08-.65.13.6.71.2,1.17.36-.21-.44.33.06.38-.35-.21-.44-.36-.97-.4-1.45.51-.53.18-1.46.22-1.98.27-.24.77,0,.9-.28.03-.34-.6.19-.3-.29l.1.06c-.1-.17.47-.89-.27-1.13l.55.22c.06-.09-.06-.19-.11-.28.19.02.37-.07.47.1.43-.27.01-.67.04-1.01l-.36.18c-.2-.61.18-.97.13-1.54l.33.06-.16-.36c.31.12.55-.16.31-.37l.71.97c-.22.22-.37-.31-.71-.2-.3.1-.27.63.04.75.06-.2-.01-.21-.11-.38.47-.01.41.29.7.47,0-.11.15-.24,0-.28.2.23.21.44.18.79-.15-.25-.3.09-.42-.01.4.07.49.42.33.83-.5.25.21.83.02,1.31-.39-.25-.69-.54-.82-.86-.24.28-.03.34-.27.63.29.18.75.35.88.77h-.31c.11.37.56.42.42.88-.24.78-.34,1.59-.44,2.2h-.3c.61.4.11,1.14.34,1.63-.38.74.09,1.71-.47,2.05.07,1.39.16,2.61-.11,4.01l-.41-.29c.29.29-.27.13-.24.39.38-.24.42.4.66.6-.41.59-.14,1.44.11,2.03h-.3c.5.62-.07,1.23-.25,1.92-.13.07-.43.16-.42.37.44.44.39.63.63,1.23-.05.41-.25,1.06-.48,1.45.06.19.11.38.14.57l.04.28c.01.08.02.19.01.35l-.04.52-.05.45-.14.89c-.1.6-.18,1.2-.14,1.83l-.37.05c.45,1.67-.6,3.42-.47,4.8l-.58-.24c-.26.37-.02.96.42.94-.26.37.09,1.08-.45,1.24-.19.4.18.57.19.93-.2.4-.3.68-.35.96-.03.14-.05.28-.06.44,0,.08-.01.16-.02.25-.01.14-.03.29-.05.44l.1-.33c-.11-.14-.36-.23-.46.07.07.52-.49,1.66.28,1.52-.26.49-.37,1.1-.46,1.78-.09.68-.15,1.43-.3,2.02-.4-.08-.82-.21-1.23-.42.24.24-.09.23-.18.35-.67-.11-1.4-.32-2.05-.49-.65-.17-1.23-.28-1.78-.19-.19-.13.36-.28-.15-.39-.22.04-.06.25-.3.33-1.27.17-2.38-.78-3.5-.86-2.01.06-4.02-.46-5.9-.7l.04-.14c-.72.45-1.38-.81-2.01-.05-.13-.16-.55-.16-.4-.42-.56.31-1.34-.59-2.14-.22.06.02.11,0,.19-.05-.68-.44-1.39-.1-2.11-.52.09-.05.24-.07.28-.21-.25-.33-.8.5-.85-.23-.17-.02-.18.33-.07.33-1.64-.55-3.51-.39-5.28-.52-1.19-.62.11-1.19-.96-.83-.06-.15-.1.26-.09.11-.41.13-.47-.88-.79-.55.04.45-.22.21-.27.47-.18-.1-.32-.2-.44-.29-.19-.1-.35-.19-.49-.27-.3-.14-.55-.2-1.09-.12l.18-.2c-.67.22-1.35.18-2.01.16-.67-.02-1.33-.03-2.27.2-.35-.05-.71-.1-1.04-.15.45-1.6.9-3.19,1.34-4.77l.34-1.22.15-.55.08-.34.32-1.34c.44-1.78.82-3.51,1.35-5.33.65-1.84,1.23-3.72,1.99-5.64.4-.97.82-1.9,1.44-2.94.16-.28.29-.47.43-.66l.42-.59c.28-.39.57-.78.88-1.16,1.01-.46.99-.53,1.38-1.56.06.09.04.16.15.15-.38-.32.38-.65.06-1.01.97-1.23,1.76-2.46,2.86-3.65-.14.22.08.59.26.35v-.45s.12.06.12.06c.09-.2.07-.53-.19-.49,1.27-1.63,2.91-2.88,4.58-3.91,1.69-.97,3.06-1.88,4.64-3.1.9-.37,1.88-1.23,2.76-1.82,3.04-.92,5.79-1.39,8.97-2,0,0-.1.32-.33.7-.24.37-.61.79-1.18,1.02Z"/>
      <path class="cls-1" d="M164.62,57.33c-.26.07-.43.38-.72.08.23,0,.51-.14.72-.08Z"/>
      <path class="cls-1" d="M161.11,65.6c.07.02-.11.11-.16.13,0-.11-.2-.23-.06-.3,0,.11.12.11.22.17Z"/>
      <path class="cls-1" d="M160.71,67.78c-.21-.06-.33-.55-.33-.83l.33.83Z"/>
      <path class="cls-1" d="M159.57,69.71c-.2.16-.3.09-.27-.14.12,0,.17.08.27.14Z"/>
      <path class="cls-1" d="M160.05,69.91c-.01.17-.15.24-.29.31.19.02-.07-.41.29-.31Z"/>
      <path class="cls-1" d="M158.91,74.27c0,.11.16.36-.09.43.18-.09-.22-.55.09-.43Z"/>
      <path class="cls-1" d="M159,76.37c-.02.06-.07.09-.01.17-.11.11-.26-.04-.27-.14l.28-.03Z"/>
      <polygon class="cls-1" points="142 93.56 142.24 93.49 142.17 93.7 142 93.56"/>
      <path class="cls-1" d="M128.62,90.93c-.13-.04.27-.17.31-.2,0,.07-.31.09-.31.2Z"/>
      <polygon class="cls-1" points="129.8 83.43 129.78 83.5 129.36 83.35 129.8 83.43"/>
    </g>
  </g>
  <g>
    <path class="cls-2" d="M191.62,102.26s-1.03-19.32-3.17-25.6c-5.18-15.16-16.07-18.01-19.95-18.61-.66-.1-5.97-1.86-6.03-1.19-.16,1.75-1.03,8.41-1.55,16.31-.38,5.79-3.19,19.81-4.13,24.26-.14.66.31,1.29.98,1.38l16.85,3.46,1.35.13,15.66-.13"/>
    <g>
      <path class="cls-1" d="M190.8,101.97c.13.5.37-.29.19.32-.18-.06-.32-.15-.19-.32Z"/>
      <path class="cls-1" d="M189.94,101.71c-1.62,1.16-3.78.02-5.56.76-.21.05.05-.63-.42-.47-1.72.9-4.45.39-6.57-.27l.13-.18c-.4-.13-.89.47-1.31.39,0-.12.13-.17.03-.33-.04.13-.15.19-.25.22-.18.04-.53-.01-.65.15-.15-.15-.11-.43-.31-.61-.1.13-.19.25-.27.38-.03.03-.05.06-.08.09-.77.64-1.52-.46-2.48-.17.06-.08.17-.14.11-.24-1.57.27-3.37-.21-5.03-.33.09-.13.21-.37.14-.55-.17.4-.69.4-1.14.39-.11-.47-.83.24-1.29-.1l.06-.09c-.47.37-.51-.37-.92.1l-.17-.39c-.29.57-.48-.42-.86-.18l-.02.13c-.32.09-.42-.25-.71-.2v-.08c-.68.03-.99-.38-1.07.09-.15-.42.65-.04.41-.66-1.11.03-2.15-.08-3.39-.3-.58-.14-1.21-.16-1.6-.66-.19-.23-.3-.52-.31-.81,0-.29.08-.58.11-.86.24-.3.34-.46.54-.54,0,0,0,0,0-.01-.05-.2.07-.77-.13-1.01,0,.07.27-.1.32-.2.26-.35-.43-.53-.14-.91.09.19.23.28.42.26-.29-.43-.14-.91-.17-1.36.07.08.09.19.24.21-.32-.55.26-.83.07-1.29l.24.21c.46-.59-.53-.31-.22-.84.06.15.18.13.28.17-.39-.63-.06-1.45-.13-2.02.03.04.11.04.11.04.05-.59.32-1.16.22-1.84.17-.21.65.2.67-.43-.55-.08-.03-1.08-.72-.83.19-.51.54-1.3.42-1.68.17.27.72-.14.68.31l.39-.27c.22.09-.14.33.16.27.02-.22-.09-.9.04-1.08-.27-.46-.83-.94-.79-1.61.16.34.63-.07.69.15l-.9-1.09c0-.22.44.02.35-.31-.15,0-.21-.16-.32-.27.08-.07.01-.92.57-.93.23-.06.06.37.29.16.06-.4-.12-.45-.07-.85h.07c.12-.25-.11-.81-.45-.57-.05.18.34-.02.14.23-.28-.24-.3-.71-.25-1.11.07.15.21.15.36.23-.35-.6-.4-1.19-.5-1.81-.26-.04.44.28.29.36.46-.73-.31-1.65.28-2.22.03.11-.37.02-.3.02.08-.36.44-.31.33-.56.22,0-.04-.31-.09-.55-.15-.14.11-.06.12.16-.15-.33-.41-1.8-.02-2.59-.15,0-.5-.55-.47-.73l.34.1c.22-.16.02-.63.32-.64-.38-.44.23,1.58-.05,1.01.3-.12-.49-.8-.03-.65.02-.38-.34-.78.01-1.11-.06.1.45.35.45.04-.02-.54-.15-.17-.23-.61l-.12-.29c-.33-.05.09-.48-.3-.31.28-.04-.1-.8.45-.69l.43.11c-.01-.23-.42-.42-.6-.62.04-.03.14-.08.21-.06-.66-.1.11-.55-.38-.87.28-.47.14-1.24.58-1.42-.16-.39-.37-.76-.18-1.17.05.09.06.21.2.25.22-.25.06-.33-.03-.59.09.06.44-.49.71-.77-.16-.39-.53-.3-.75-.36.69-.27-.31-1.09.33-1.45.08.14.26.58.46.29.68-.18-.39-.92,0-1.61-.18-.01-.37-.02-.55-.01.37-.21-.16-1.42.35-1.02-.02-.04-.03-.09-.03-.14-.04-.38.32-.65-.12-.93.1-.11.17-.25.25-.37.08-.11.16-.24.23-.37.16-.23.2-.54.56-.67.56-.23,1.21-.2,1.75.33.13-.08.58.07.41-.23-.4-.35-.33.18-.51-.04.14,0,.13-.15.12-.23.44.16.73.26.51.68.44.24.58.05.81-.16.22-.2.53-.39,1.13-.13-.08.21,0,.31.33.37.24-.07.5-.12.65-.21.48.23.15.56.06.93.28.01.6.12.8-.11l.19.54c-.14-.39.28-.16.42-.21l-.14.06c0,.16.34.16.44.13.05-.22-.2-.38-.35-.5.16-.13.39-.03.5-.2-.04.13-.03.21.01.25.15.09.41.1.55.15.24.12.35-.27.43-.24-.03.19.42.13.16.34-.1.04-.17-.23-.35-.09.15.18.06.5.46.34.31-.12.09-.72.55-.38-.16.06-.22.2-.35.3.14.1.29.19.43.3l.1-.32c.04.1,0,.12.01.17.23-.3.75.09.96-.26.25.03.43.38.65.49h-.05c.21.29.62.28.92.16l-.04.06c.14.08.5.17.76.06.28.38-.35,1.22.21.99.36.15.82-.3.75-.56.29.26.67.35,1.04.47.36.14.7.32.87.71.16-.07.14-.17.37-.14.85.65,2.18.87,2.46,1.94-.33-.07-.22.26-.33.41.38-.09.05.43.44.08.16-.25.28-.35.11-.63.63.24,1.38.88,1.45,1.34-.04-.22.12-.2.29-.18-.35.33-.05.69.33.8l.24-.18-.04.38c.16.03.53-.33.58.13-.07.09-.13.19-.15.3.42.09,1.09.2,1.19.66-.03.18-.06.35-.1.53.14.1.52.15.42-.16.24.7.49,1.06.34,1.45.74.16,1.34.61,1.85,1.17.53.55.95,1.2,1.25,1.82l-.21.08c0,.42.43-.03.42.27-.24,0-.26.47-.62.35.05.56.66.39.92.64.28-.09-.3-.15.06-.27.12,0,.16.73.57.61-.1.2-.43.25-.61.27l.32.19c-.29.57-1.18-.37-1.57.28l.18.22c-.29.45-.77-.43-.61.27.32.17,1,.13,1.05-.21.38.53,1.06-.19,1.33.47-.15.28-.3-.49-.56-.21-.18.45.46.52.48.84.01-.36.53-.3.7-.13-.03.41-.48-.04-.3.44.27-.03.63.34.63-.11.6-.05.05.56.56.65-.31.3-1.05-.14-1.03.46.33-.23.74.45,1.16-.04-.02.25-.3.38-.58.32-.11.38.93.46.25.83l.41-.04c-.09.14-.13.3-.27.52.1.24.81.7.23.86.09.07.25.72.57.36.12-.48-.43-.37.04-.77-.35.43.23.57.45.77l-.21.1c.13.12.18.46.43.48-.15-.07-.29.02-.32.14l.37.06c.3.51-.57.28-.35.78l-.36-.34c.08.07-.2.33-.04.55.34.03.75.13,1.02.16.21.27-.32.21.06.43l-.46-.3c-.11-.03-.46.37-.38.75.16.22.68.53.78.1.04.2-.1.51-.36.4.19.42.33-.12.6.23-.18.2-.39.74-.65,1.08l-.59-.3.04.26c-.48-.26-.3.22-.77.11-.04.19.14.38.29.53.63-.64,1.07.42,1.7.17.29.7-1.52.69-.39,1.28.15-.15.7.13.45-.29-.01.46.7.21.5.78-.32-.35-.61.51-1.08,0,.22,0,.12-.34.05-.41-.23.22-.66.06-.6.51.1.27.17.64.5.54.37-.06-.1-.42.31-.29.21.54-.35.7.34.84-.1-.34.28-.48.53-.51l.21.39-.26-.05c-.1.68.48.13.49.78l-.46.36c-.44-.1.08-.94-.6-.74.02.41.39.51.26.91-.07-.08-.1-.19-.17-.27,0,.15-.91.41-.3.92.25.28.26.05.52.03.16.65.44.81.53,1.23-.52-.03.03.75-.54.34.27-.25.14-1.19-.37-1.37-.57.31.02-.53-.6-.59.05.53-.54.57-.92.7,0,.15.17.27.24.35.37.02.35-.17.72-.22-.04.6.23,1.14.62,1.42-.16.21-.53.19-.59-.04.19.68.21,1.43.16,2.1.55-.48.21.72.68.38.1-.37.49-.71.78-.54-.02.23-.26.02-.38.12.35.25-.48.49.06.72-.26-.62-.74-.06-1.22-.13.31.43-.33.01-.29.46.3.43.56.97.7,1.47-.39.67.13,1.61.19,2.18-.21.32-.76.16-.82.49.04.38.55-.33.35.25l-.11-.05c.14.16-.28,1.05.49,1.16l-.59-.13c-.04.11.09.2.16.28-.19.02-.35.15-.48,0-.37.37.11.72.16,1.1l.32-.27c.31.63,0,1.08.16,1.69h-.33s.22.36.22.36c-.33-.07-.51.28-.23.46l-.87-.91c.18-.28.42.27.74.08.28-.16.15-.73-.18-.8-.02.22.05.23.18.39-.46.1-.46-.23-.78-.38.03.11-.1.29.04.3-.24-.21-.29-.44-.33-.81.2.24.28-.16.41-.07-.41,0-.56-.35-.48-.83.45-.37-.37-.85-.28-1.4.43.19.78.44.97.76.18-.35-.04-.38.14-.73-.32-.14-.8-.22-1.02-.65l.3-.05c-.19-.39-.64-.35-.59-.87.08-.88,0-1.78-.02-2.45l.3-.05c-.68-.31-.35-1.21-.69-1.68.21-.88-.48-1.8,0-2.29-.4-1.46-.78-2.73-.88-4.27l.47.2c-.36-.23.23-.21.13-.47-.31.36-.5-.31-.8-.46.23-.72-.27-1.54-.68-2.07l.3-.08c-.68-.49-.3-1.3-.39-2.04.1-.11.35-.31.27-.52-.56-.28-.58-.5-1.04-.94-.09-.38-.22-1.07-.21-1.55-1.19-1.28-1.47-2.94-2.62-4.21l.25-.28c-.74-.51-1.16-1.28-1.65-1.98-.23-.36-.45-.72-.67-1.05-.25-.31-.51-.58-.8-.77l.56-.29c-.13-.45-.74-.65-1-.28-.13-.46-.93-.55-.75-1.1-.22-.39-.56-.19-.87-.37-.49-.72-.74-.93-1.44-1.33l.13.15c.15-.05.33-.25.19-.4-.35-.05-.79-.8-.99-.04-.2-.44-.67-.65-1.12-.85-.45-.22-.88-.42-1.11-.86-.04.21-.24.14-.38.22-.63-.36-1.19-1.03-1.86-.96-.07-.14.31-.24.03-.37-.2,0-.1.24-.35.26-1.22-.1-2.16-1.16-3.28-1.29-.28,0-.59,0-.88-.03-.46-.06-.69-.11-.94-.16l-.7-.16-1.05-.28c-.2-.05-.41-.13-.59-.12l-.09-.17c.11.31-.09.14-.17.16-.11-.02-.19.08.19.44-.06-.03-.08-.02-.11-.01-.04,0-.08.02-.23-.09.18.18.08.21-.01.32-.02.02-.04.05-.06.08-.02.05-.04.2-.05.29-.02.21,0,.43.11.64.02-.07,0-.12-.06-.21-.41.76-.04,1.52-.42,2.33-.05-.09-.08-.25-.23-.29-.31.3.53.84-.19.94-.01.19.34.17.33.05-.46,1.82-.2,3.84-.19,5.77-.53,1.34-1.19,0-.75,1.12-.14.08.26.08.12.09.16.43-.84.6-.49.92.44-.09.23.21.49.24-.34.82-.74.96-.47,1.69l-.22-.07c.58.88.12,1.78.77,2.55-.45,4.44-.79,8.63-1.49,12.85-.29,1.28-.53,2.56-.77,3.84-.18.95-.36,1.9-.54,2.85-.02.05-.08.11.01.27-.01.07-.03.14.1.22.09.07.17.14.24.2.15.11.27.18.4.23.27.1.57.09,1.13.08-.06.09-.13.09-.08.2.15-.47.76.11.96-.33,1.52.41,2.97.57,4.56.89-.26,0-.47.37-.16.4l.38-.24.02.14c.22-.03.49-.22.31-.42,1.22.12,2.4.36,3.57.66.58.15,1.16.31,1.74.48l.87.26.43.13.22.07c.1.03.03.02.06.03.07.05.96.17,1.03.22.03,0-.02.01.07.02h.22s.43.04.43.04l.87.04c.58.02,1.15.02,1.73,0,.95.2,2.29,0,3.32-.11,3.05.63,5.8,1.14,8.89.65,0,0-.39,1.27-1.67,1.58Z"/>
      <path class="cls-1" d="M190.71,101.37c.24-.12.35-.48.7-.22-.23.05-.48.25-.7.22Z"/>
      <path class="cls-1" d="M192.51,91.73c-.07,0,.09-.14.12-.18.03.12.25.21.13.31-.03-.12-.14-.09-.25-.13Z"/>
      <path class="cls-1" d="M192.42,89.29c.22.01.45.52.5.82l-.5-.82Z"/>
      <path class="cls-1" d="M193.07,86.93c.16-.22.27-.18.29.09-.11.03-.18-.05-.29-.09Z"/>
      <path class="cls-1" d="M192.55,86.83c-.03-.19.09-.3.2-.4-.19.03.17.42-.2.4Z"/>
      <path class="cls-1" d="M192.5,81.78c-.04-.12-.26-.35-.04-.5-.15.15.37.54.04.5Z"/>
      <path class="cls-1" d="M191.77,79.51c0-.08.03-.12-.04-.19.07-.16.26-.04.3.07l-.26.12Z"/>
      <polygon class="cls-1" points="160.53 59.38 160.47 58.98 160.68 59.1 160.53 59.38"/>
      <path class="cls-1" d="M158.76,77.59c.1.26-.23.14-.27.17,0-.22.26.12.27-.17Z"/>
      <polygon class="cls-1" points="158.22 87.36 158.23 87.29 158.66 87.39 158.22 87.36"/>
    </g>
  </g>
  <g>
    <path class="cls-6" d="M119.89,92.08l-19.52,12.06c-.69.43-.36,1.49.45,1.45,1.14-.06,2.31-.1,2.95-.04,9.1.73,26.69,8.17,35.77,7.3,7.57-.73,27.6-12.77,27.6-12.77"/>
    <g>
      <path class="cls-1" d="M120.12,92.89c.24-.27-.36-.23.1-.27.05.17.07.32-.1.27Z"/>
      <path class="cls-1" d="M165.86,100.18c-.39,1.56-2.25,1.29-2.97,2.53-.1.11-.28-.56-.48-.27-.6,1.36-2.52,1.81-4.12,1.89v-.2c-.31.02-.33.69-.63.76-.06-.1,0-.19-.13-.3.1.35-.39.39-.38.68-.17-.07-.29-.32-.49-.39l.04.44c.03,1.07-1.03.47-1.37,1.2-.02-.1,0-.19-.08-.25-.64.99-1.84,1.47-2.77,2.16-.02-.15-.1-.4-.23-.52.14.41-.13.66-.37.87-.31-.33-.31.58-.74.52v-.1c-.06.53-.48-.07-.45.52l-.3-.24c.15.61-.48-.13-.55.25l.06.11c-.13.22-.35,0-.48.16l-.05-.06c-.35.33-.73.12-.52.56-.3-.29.33-.33-.12-.75-1.15,1.06-2.61,1.56-4.02,2.08-.23-.13-.35-.15-.45-.3-.11.14-.5.27-.55.54.04-.03-.17-.2-.25-.2-.31-.08-.12.6-.47.49.07-.16.06-.32-.03-.48-.13.44-.48.46-.74.66.02-.09.08-.16.03-.3-.21.5-.6.07-.81.41l.04-.3c-.52-.21,0,.61-.44.5.08-.1.02-.2.01-.32-.26.56-.92.5-1.27.73.02-.04,0-.12,0-.12-.41.14-.85-.04-1.3.21-.17-.12.03-.68-.39-.56.02.57-.74.24-.49.87-.38-.11-.96-.35-1.22-.17.18-.2-.14-.69.17-.72l-.21-.35c.05-.23.23.09.17-.2-.15.01-.6.21-.73.11-.31.31-.63.91-1.1.92.24-.19-.05-.62.11-.7l-.77.98c-.16,0,.02-.44-.22-.32,0,.15-.12.23-.2.34-.05-.06-.66.03-.64-.52-.03-.22.27-.07.13-.29-.28-.04-.32.14-.6.1v-.07c-.16-.11-.58.14-.43.47.13.04,0-.33.17-.14-.18.29-.53.32-.82.28.11-.07.13-.22.19-.36-.46.37-.88.41-1.34.5-.06.25.25-.43.29-.28-.46-.47-1.22.27-1.56-.34.08-.03-.04.37-.03.3-.25-.09-.16-.45-.36-.36.03-.22-.23.02-.41.04-.13.14-.02-.12.13-.1-.28.13-1.33.23-1.8-.22-.02.15-.47.44-.59.39l.13-.32c-.07-.23-.43-.08-.38-.37-.37.34,1.13-.08.68.14-.03-.3-.64.4-.45-.03-.26-.05-.6.26-.76-.12.06.07.32-.41.11-.44-.38-.03-.14.13-.46.17l-.22.09c-.1.32-.31-.13-.27.27.03-.28-.57.03-.39-.5l.16-.41c-.16,0-.37.38-.54.53,0-.05-.03-.14,0-.21-.2.64-.36-.15-.67.29-.27-.31-.82-.24-.87-.69-.3.13-.6.3-.84.08.07-.04.16-.04.21-.18-.13-.24-.22-.08-.41-.02.06-.09-.25-.48-.39-.76-.3.12-.31.49-.4.7-.05-.7-.81.21-.94-.44.11-.06.45-.21.29-.43-.05-.7-.59.34-.87-.07l-.06.55c-.07-.37-.62.15-.43-.37-.17.16-.38-.29-.48.23-.48-.6-1.52-.15-1.63-1.17-.11.06-.3-.08-.33.19.06.33.26-.15.25.06-.08,0-.14.13-.16.2-.15-.17-.29-.25,0-.62-.32-.43-.67.76-1.13.41.08-.21.06-.3-.1-.31l-.39.28c-.32-.18-.06-.54.03-.9-.2.01-.42-.07-.57.18l-.1-.51c.07.37-.21.18-.32.24l.11-.07c0-.16-.23-.12-.35-.1-.03.23.16.38.25.47-.13.13-.27.06-.44.21.13-.34-.23-.33-.36-.41-.14-.12-.27.27-.31.24.04-.19-.26-.1-.07-.33.07-.04.08.21.22.08-.07-.17.02-.48-.26-.31-.22.13-.14.71-.4.4.11-.07.16-.2.26-.31l-.25-.26-.1.32c-.02-.09.02-.11,0-.16-.18.32-.49,0-.65.36-.16,0-.26-.3-.4-.38l.03-.02c-.13-.23-.4-.17-.6.02l.03-.07c-.09-.05-.33-.05-.5.11-.19-.3.2-1.25-.16-.9-.25-.04-.53.51-.47.74-.4-.32-1.01.11-1.32-.49-.05.06-.06.11-.09.16-.02.05-.05.08-.2.09-.54-.16-1.19-.12-1.81-.16-.61-.04-1.18-.13-1.32-.5.44-.09.32-.31.49-.49-.52.25.03-.33-.56.14-.27.29-.46.42-.25.57-.83.07-1.91-.09-1.9-.38,0,.15-.26.21-.54.27.69-.42.34-.54-.27-.44l-.5.24.11-.14.18-.15c-.21.06-1,.47-.72.17.16-.09.32-.19.42-.26-.53.13-1.3.28-1.12.02l.43-.33c-.14,0-.6.09-.63.22.04-.3-.12-.39.21-.6-.83.1-1.31.14-1.66-.44-.16-.26-.25-.58-.26-.85,0-.28.05-.44.12-.57l.25-.02c.31-.17-.42-.02-.2-.14.23.01.62-.17.86-.1.44-.23-.3-.2-.36-.35-.38,0,.18.1-.29.12-.13-.02.49-.35-.12-.35.27-.07.72-.05.95-.04l-.22-.13c.9-.2,1.02.3,2.05.07l.04-.1c.81-.13.34.23.95-.04-.13-.08-.96-.17-1.38-.04.12-.28-1.44-.09-1.12-.45.48-.09-.12.29.48.21.67-.15-.01-.33.33-.48-.42.16-.99,0-1.02-.14.51-.19.53.17.88-.11-.35-.07-.35-.39-.89-.16-.79-.21.58-.31.17-.57.74,0,1.01.5,1.76.23-.27-.02-.36-.1-.44-.2-.11-.14-.17-.33-.85-.31.4-.11.84-.03,1.04.13.6-.09-.24-.68.88-.47l-.41-.21c.26-.01.52-.06.93-.06.24-.14.23-.77.85-.46.01-.08.62-.42-.02-.52-.65.11-.11.42-.94.28.77.06.5-.38.6-.62l.26.11c.05-.14.41-.3.29-.52,0,.15.21.21.36.18l-.15-.32c.44-.48.64.33,1.08-.06l-.18.43c.04-.09.46.03.6-.19-.14-.29-.21-.7-.28-.95.24-.31.36.2.48-.26-.06.19-.12.38-.17.56.01.11.59.26.93.04.08-.18.06-.71-.26-.72.11-.07.37,0,.4.25.2-.25-.21-.27-.1-.58.2.13.64.21.97.37l.05.6.15-.09c.03.49.27.22.4.67.14,0,.19-.21.22-.37-.68-.43-.18-1.05-.62-1.56.32-.41,1.11,1.21.99.06-.16-.1-.22-.66-.38-.33.3-.1-.17-.67.28-.63-.08.37.6.42.48.96-.09-.2-.27-.03-.29.05.24.15.33.58.59.42.13-.15.34-.3.13-.57-.21-.32-.23.19-.32-.2.25-.31.61.15.39-.51-.18.17-.43-.13-.57-.35l.15-.28.09.24c.47-.08-.13-.46.27-.63l.43.32c.14.42-.63.17-.2.72.25-.12.15-.47.47-.46-.02.08-.08.14-.09.22.1-.03.67.7.72.03.06-.29-.08-.24-.22-.46.34-.3.32-.6.54-.79.22.47.46-.23.46.38-.28-.18-.82.19-.7.69.46.43-.35.11-.11.68.31-.18.61.34.87.64.1-.03.1-.22.11-.3-.16-.33-.27-.26-.47-.58.39-.13.62-.51.62-.93.21.08.37.42.25.53.35-.34.81-.57,1.26-.72-.56-.35.36-.39-.07-.7-.28.01-.68-.24-.71-.54.15-.05.13.23.26.3,0-.38.53.29.42-.25-.27.39.31.67.49,1.11.13-.39.16.29.43.13.13-.39.35-.77.6-1.04.61.15.95-.58,1.27-.8.3.09.46.62.7.58.22-.15-.47-.39,0-.38l.02.11c.03-.17.79-.07.49-.77l.2.55c.09,0,.08-.14.1-.22.1.16.26.26.23.42.41.21.39-.32.61-.47l-.32-.2c.24-.46.67-.33.97-.66l.16.29.11-.3c.12.31.43.36.4.06l-.14,1.04c-.26-.07-.04-.45-.31-.67-.23-.19-.53.09-.41.4.15-.05.12-.11.15-.28.29.37.08.47.15.8.06-.06.23,0,.17-.13-.01.27-.13.39-.35.53.06-.25-.23-.19-.25-.34.2.36.05.6-.28.67-.44-.28-.36.58-.74.66-.09-.43-.1-.81,0-1.08-.31-.05-.22.15-.53.09.07.32.24.77.08,1.09l-.17-.25c-.15.28.08.66-.26.78-.59.19-1.12.52-1.54.73l-.17-.25c.12.69-.6.65-.74,1.08-.65.06-.93.92-1.47.63-.76.74-1.41,1.42-2.39,1.89l-.08-.47c0,.38-.24-.15-.37,0,.37.19.02.53.05.83-.59-.04-.91.6-1.11,1.09l-.17-.25c-.03.36-.22.49-.47.57-.17.03-.36-.03-.53.02-.12-.08-.39-.24-.46-.16.24.43.14.45.28.73-.12.07-.45.13-.85.16.07.12.11.2.11.27.01.14-.13.24-.27.35-.13.1-.25.21-.03.27l-.84.1c.32.03.47.05.5.1.04.05,0,.18.01.29,0,.26.16.24.72.09l-1.34.49c-.22.15.69-.13,1.47-.48-.22.15.76-.24-.02.16-.05.09.59-.23.78-.29-.14.21.06.18.34.1v-.04c-.16.11-.44.33-.42.37.25-.14.2.19.71-.46-.09.2.11.15.23.1.06-.02.12-.04.16-.02.02.01.04.03.05.07-.06.02.07.1.12.19-.01-.21.15-.21.25-.33.58.12,1.1.64,1.64.42.07.12-.22.29,0,.37.15-.04.06-.25.26-.32,1.01-.13,1.78.82,2.62.95,1.57.01,3.03.62,4.44.94l-.06.14c.61-.41.93.86,1.53.15.07.17.4.18.24.43.48-.28.93.65,1.59.31-.04-.03-.08,0-.15.04.45.46,1.04.17,1.53.61-.07.05-.19.06-.25.2.14.33.68-.46.61.26.13.03.18-.32.1-.32,1.16.61,2.6.52,3.91.69.81.64-.23,1.17.62.84.03.15.11-.25.08-.11.33-.13.25.87.53.56.02-.44.19-.21.25-.46.5.41.52.82,1.04.6l-.08.21c.66-.5,1.19-.05,1.78-.69,2.85.44,5.66.44,7.99.23.31.03.57-.02.83-.06.27-.05.52-.07.81-.14.6-.19,1.18-.32,1.8-.55,1.24-.42,2.51-.91,3.88-1.27.84.29.89.25,1.46-.27.01.1-.02.14.06.2-.17-.46.45-.25.33-.7,1-.37,1.82-.88,2.8-1.37-.13.12-.04.52.14.4l.06-.38.09.11c.09-.13.13-.41-.07-.49,2.27-1.58,5.13-1.96,7.46-3.37.67-.12,1.38-.74,1.94-1.17,2.13-.44,4.04-.92,5.61-2.39,0,0,.43,1.23-.19,1.93Z"/>
      <path class="cls-1" d="M119.79,93.15c-.19-.17-.47-.16-.48-.54.14.18.38.34.48.54Z"/>
      <path class="cls-1" d="M112.91,94.43c.03.07-.13-.04-.17-.06.06-.06.01-.27.14-.2-.06.06.01.15.03.26Z"/>
      <path class="cls-1" d="M111.42,95.18c-.09-.2.12-.53.28-.67l-.28.67Z"/>
      <path class="cls-1" d="M109.62,95.23c-.21-.09-.23-.19-.08-.28.07.09.05.17.08.28Z"/>
      <path class="cls-1" d="M109.79,95.71c-.11.07-.23,0-.35-.08.1.16.19-.26.35.08Z"/>
      <path class="cls-1" d="M106.59,96.94c-.06.06-.11.3-.31.14.16.1.19-.44.31-.14Z"/>
      <path class="cls-1" d="M105.43,98.05c-.08.03-.14.02-.19.13-.2,0-.14-.22-.02-.32.07.06.15.12.21.19Z"/>
      <polygon class="cls-1" points="118.91 110.74 118.72 110.8 118.8 110.59 118.91 110.74"/>
      <path class="cls-1" d="M131.18,113.8c.2-.11.08.22.1.26-.16,0,.11-.26-.1-.26Z"/>
      <polygon class="cls-1" points="138.19 113.44 138.13 113.45 138.15 113 138.19 113.44"/>
    </g>
  </g>
  <g>
    <path class="cls-4" d="M126.2,93.17s5.14-19.28,9.62-23.91c11.18-11.52,19-13.35,21.71-13.61.62-.06,1.1-.54,1.16-1.16l.16-1.66c.07-.71.69-1.23,1.4-1.16h0c.71.07,1.23.69,1.16,1.4l-.13,1.44c-.06.68-.65,1.2-1.34,1.17l-1.36-.06"/>
    <g>
      <path class="cls-1" d="M125.45,92.81c.03.26.4-.02.12.2-.16-.08-.28-.16-.12-.2Z"/>
      <path class="cls-1" d="M159.35,56.21c.4-.57.85-.46,1.29-.65.44-.13.86-.69.5-1.13-.04-.1.62.08.49-.15-.42-.43-.42-.99-.32-1.47.06-.48-.08-1.25-.76-1.75l.13-.15c-.13-.1-.33-.02-.49.1-.16.11-.29.26-.42.24-.03-.12.06-.18-.04-.33,0,.35-.47.32-.43.62-.16-.07-.31-.31-.54-.32.03.14.08.29.13.42.18.49.09.59-.07.78-.16.19-.31.44-.08.66-.09-.04-.16-.09-.25-.07.26.36.34.81.36,1.25.06.45-.05.9-.29,1.26-.07-.12-.25-.32-.42-.43.34.37.18.59.04.76-.35-.31-.12.47-.55.31l-.03-.09c.02.45-.41-.2-.33.35l-.27-.31c.06.23,0,.25-.07.2-.14-.07-.33-.34-.38-.13l.04.12c-.13.17-.27-.11-.37.02l-.03-.07c-.25.22-.5-.07-.38.39-.19-.35.24-.23-.05-.74-.85.71-1.83.91-2.75,1.29-.17-.14-.26-.17-.36-.33-.06.12-.32.22-.31.48.03-.02-.15-.2-.21-.2-.24-.09.03.57-.24.45.02-.15-.02-.3-.11-.46,0,.41-.24.45-.37.64,0-.09.02-.15-.05-.28-.03.47-.4.09-.46.42l-.06-.28c-.43-.16.17.56-.16.5.02-.11-.05-.19-.09-.3,0,.57-.44.59-.58.86,0-.04-.04-.11-.04-.11-.21.19-.53.19-.69.52-.16-.06-.3-.61-.5-.38.28.48-.32.44.15.9-.26.04-.69.07-.73.31-.02-.24-.45-.52-.3-.67l-.31-.21c-.1-.21.18-.02-.01-.24-.08.07-.22.42-.35.39.01.39.2,1.02-.02,1.24,0-.26-.4-.47-.37-.61l.22,1.13c-.07.08-.26-.36-.3-.15.09.12.08.23.11.35-.07-.03-.27.35-.61-.08-.16-.15.07-.19-.13-.29-.15.11-.06.27-.21.38l-.04-.06c-.15,0-.17.4.11.57.08-.03-.21-.25-.02-.19.11.31-.02.5-.16.62,0-.11-.09-.22-.16-.37.05.5-.09.77-.2,1.08.15.21-.2-.44-.08-.36-.5-.08-.29.85-.84.6.01-.07.24.28.2.22-.16.07-.38-.23-.39-.05-.14-.17-.07.14-.12.27.05.16-.09-.07-.03-.15-.01.25-.3.92-.79.9.1.11.16.56.08.6l-.19-.29c-.19-.11-.2.2-.4-.02.12.44.33-.71.34-.31-.23-.18.08.64-.18.24-.13.12-.01.52-.34.37.07.01-.19-.45-.29-.35-.15.21.05.17-.03.39v.19c.2.26-.2.11.11.33-.2-.19-.16.36-.5-.08l-.26-.35c-.06.09.17.46.23.66-.04-.02-.12-.07-.16-.13.42.52-.23.12.02.59-.32-.03-.44.35-.79.11,0,.26.05.54-.19.57-.01-.07.01-.12-.08-.24-.22-.06-.13.09-.13.24-.05-.09-.44-.12-.7-.2,0,.26.3.49.43.66-.56-.38-.06.64-.61.33-.02-.11-.04-.4-.26-.43-.56-.37.1.57-.3.51l.42.36c-.31-.17-.05.48-.42.06.08.2-.34.07.05.44-.61-.04-.52.9-1.37.39.02.1-.15.14.07.32.28.14-.05-.25.12-.13-.03.05.07.16.12.22-.18,0-.28.05-.5-.35-.44-.03.43.85.03.96-.15-.17-.22-.21-.27-.11l.13.41c-.23.1-.45-.26-.72-.52-.04.13-.17.23,0,.46l-.43-.22c.31.16.11.23.14.33l-.04-.1c-.13-.09-.14.08-.15.16.18.14.33.1.43.1.09.15,0,.19.11.37-.26-.26-.3-.04-.39,0-.12.03.19.29.16.3-.15-.12-.12.1-.29-.12-.03-.06.19.06.1-.09-.15-.04-.41-.25-.3,0,.08.19.59.42.29.42-.04-.09-.16-.18-.24-.29-.09,0-.18.01-.27.04l.27.2c-.08-.03-.1-.06-.14-.07.26.25-.07.31.23.57-.02.1-.3.04-.38.1v-.03c-.24-.01-.22.19-.07.38l-.06-.04c-.06.04-.09.19.04.35-.3,0-1.12-.59-.84-.22-.07.16.41.53.62.58-.34.15-.02.7-.61.7.1.1.19.12.22.23-.33.31-.05,1.01-.8,1.03-.07-.18-.3-.15-.47-.23.22.23-.34-.02.11.24.28.12.41.19.57.13.03.31-.14.66-.46.68.16,0,.22.08.28.17-.43-.22-.58-.06-.48.14l.26.14-.31-.03c.06.09.54.31.22.33-.11-.04-.22-.08-.3-.09.16.24.45.6.15.65l-.45-.04c.01.08.2.29.37.23-.35.16-.45.32-.83.26.65.81.42,1.48.15,1.99l-.2-.1c-.25.07.33.21.15.26-.18-.12-.47-.05-.66-.26-.3.12.25.4.29.57.26.12-.13-.17.2-.02.09.06-.32.21.08.39-.18,0-.46-.16-.62-.25l.15.2c-.54-.02-.72-.68-1.37-.74l.02.14c-.47-.05-.37-.5-.62-.25.15.21.7.54.93.49.01.31.93.49.79.76-.27-.01.03-.25-.33-.32-.38.01.08.34-.08.42.2-.08.58.19.62.3-.25.07-.35-.24-.47-.05.22.12.33.37.56.27.51.27-.23.16.15.42-.4-.07-.79-.53-1.07-.37.38.1.39.46.98.53-.14.05-.43-.04-.63-.19-.27.05.56.55-.18.33l.36.18c-.14,0-.25.02-.47.02-.05.11.38.54-.18.33.05.06-.07.31.35.34.29-.08-.22-.28.34-.19-.47-.04-.03.25.09.39l-.22-.06c.07.08-.03.19.2.31-.11-.09-.27-.12-.33-.09l.31.17c.09.28-.6-.15-.58.1l-.2-.25c.04.06-.29.02-.23.16.28.15.63.34.85.46.09.17-.36-.06-.09.17l-.31-.28c-.09-.06-.54-.06-.59.1.07.14.45.45.68.34-.02.08-.25.14-.45,0,.04.22.33.09.47.31-.22,0-.58.11-.92.13l-.45-.34-.04.11c-.36-.28-.34-.03-.74-.26-.09.05.02.2.11.31.76,0,.86.57,1.51.71.07.36-1.6-.31-.72.33.18,0,.61.31.49.06-.13.17.59.34.25.48-.21-.25-.7-.03-.99-.39.2.08.2-.08.15-.14-.27,0-.63-.22-.69-.03.02.14-.02.31.32.39.36.11.02-.2.36,0,.05.28-.51.14.09.45,0-.17.38-.09.63,0l.09.22-.23-.11c-.26.23.41.22.26.47l-.52-.02c-.39-.2.31-.34-.37-.5-.08.17.23.34,0,.45-.05-.06-.05-.11-.09-.17-.04.06-.94-.16-.51.26.16.19.23.11.47.19-.02.31.21.47.19.67-.48-.19-.15.31-.58-.05.31,0,.42-.43-.02-.67-.61-.08.15-.2-.41-.45-.09.23-.65.04-1.03-.04-.05.06.09.17.14.22.34.14.36.05.72.16-.18.23-.06.54.24.79-.2.03-.54-.1-.54-.22,0,.34-.14.65-.34.91.63-.01.03.37.55.38.18-.12.63-.13.86.04-.07.09-.25-.08-.38-.08.28.22-.56.04-.1.31-.1-.34-.68-.27-1.11-.45.19.28-.32-.11-.38.09.19.28.31.59.34.84-.51.16-.22.71-.28.97-.27.07-.75-.17-.88-.05-.04.17.59.03.28.22l-.09-.05c.1.11-.48.36.23.64l-.53-.24c-.06.03.05.11.1.17-.18-.05-.36-.04-.46-.15-.43.05-.03.34-.07.52l.36-.02c.18.36-.2.46-.17.77l-.32-.1.15.22c-.3-.13-.54-.03-.31.13l-.66-.65c.22-.07.35.24.69.25.29.01.28-.27-.02-.4-.06.09,0,.11.1.22-.46-.09-.4-.24-.67-.4,0,.06-.15.09-.02.14-.19-.16-.19-.28-.16-.45.14.16.29.02.41.1-.39-.12-.46-.32-.29-.5.5-.02-.18-.48.02-.69.37.21.65.43.77.63.24-.09.04-.17.28-.27-.27-.16-.71-.34-.83-.6l.3.07c-.1-.22-.53-.35-.38-.56.26-.35.38-.76.51-1.05l.29.08c-.57-.36-.06-.62-.27-.93.4-.3-.02-.92.54-.96-.01-.74-.04-1.4.29-2.06l.38.25c-.27-.23.27,0,.25-.14-.38.03-.38-.31-.61-.48.43-.2.21-.72,0-1.09l.29.09c-.45-.46.13-.63.34-.95.13,0,.43.03.43-.08-.4-.35-.33-.43-.53-.81.07-.2.3-.49.55-.62-.38-.99.33-1.6.22-2.53l.36.07c-.41-1.03.6-1.71.5-2.5l.54.3c.26-.13.05-.52-.37-.64.26-.13-.05-.62.46-.55.19-.16-.15-.37-.15-.57.39-.32.42-.49.5-.93l-.08.08c.1.1.34.21.42.13-.08-.22.4-.46-.32-.63.58-.23.15-1.13.89-1.28-.2-.06-.17-.18-.27-.29.19-.38.76-.56.62-1.02.12,0,.24.26.34.13-.01-.13-.22-.13-.25-.3.03-.4.32-.66.62-.88.3-.22.62-.41.82-.72.56-1.35,1.43-1.83,2.1-2.61l.09.11c-.15-.63.95-.14.56-.93.15.05.27-.16.42.09-.08-.47.8-.23.74-.86-.04.01-.03.05-.02.12.5-.03.46-.59.95-.65.01.08-.01.16.08.28.3.1-.14-.72.4-.24.06-.06-.19-.31-.22-.26.87-.38,1.28-1.35,1.91-2.08.79-.09.78.9.86.16.12.08-.14-.23-.05-.12.04-.28.74.42.62.04-.31-.3-.08-.25-.24-.46.5-.03.8.23.85-.24l.12.2c-.09-.74.48-.72.3-1.51,1.62-1.37,3.13-2.84,4.99-3.95,1.92-.87,3.74-2.07,6.05-2.34.68.44.7.4,1.19.04,0,.1-.03.13.03.21-.09-.48.37-.13.32-.6l.17-.02s.02,0,.03,0c.01,0,.02,0,.03,0,.06-.02.07-.07.1-.11.04.05.33.4.33.36-.07-.09-.15-.19-.23-.28l.12.11c-.05-.07-.25-.26-.39-.38-.09-.08-.12-.07-.08-.1.02,0,.04-.02.08-.03l.06-.03c.05-.28.15-.75.31-1.1.63-1.49,2.07-2.47,3.57-2.59,1.48-.14,2.98.55,3.84,1.73.32.61.63,1.39.69,2.23.01.11.01.21.01.31,0,.1,0,.23,0,.24l.02.2c.02.14.03.27.05.39-.1.17-.19.34-.29.5l-.14.25s-.06.19-.09.29c-.03.12-.08.24-.13.35-.39.92-1.09,1.6-1.9,1.96-.4.18-.83.29-1.27.32-.11,0-.22.01-.32.01-.11,0-.24,0-.25-.01l-.26-.02c-.34,0-.7.03-1.06.13,0,0,.24-1.26.85-1.53Z"/>
      <path class="cls-1" d="M125.48,92.52c.25.02.42-.11.71.11-.23-.05-.5-.03-.71-.11Z"/>
      <path class="cls-1" d="M129.14,89c-.07-.03.11-.03.16-.03,0,.06.18.16.05.17,0-.06-.12-.08-.21-.14Z"/>
      <path class="cls-1" d="M129.61,87.98c.2.08.3.36.28.5l-.28-.5Z"/>
      <path class="cls-1" d="M130.78,87.26c.2-.03.29.03.25.14-.11-.03-.16-.08-.25-.14Z"/>
      <path class="cls-1" d="M130.32,87.04c.02-.08.16-.09.29-.09-.18-.05.05.23-.29.09Z"/>
      <path class="cls-1" d="M131.62,85.1c0-.06-.14-.22.11-.19-.18,0,.18.34-.11.19Z"/>
      <path class="cls-1" d="M131.64,84.01s.07-.03.02-.08c.11-.03.25.09.25.14l-.27-.06Z"/>
      <polygon class="cls-1" points="139.65 67.82 139.64 67.97 139.5 67.8 139.65 67.82"/>
      <path class="cls-1" d="M145.97,62.57c0-.18.18.12.21.14-.07.08-.13-.24-.21-.14Z"/>
      <polygon class="cls-1" points="149.12 59.26 149.09 59.28 148.88 58.89 149.12 59.26"/>
    </g>
  </g>
</svg>