<?xml version="1.0" encoding="UTF-8"?>
<svg id="Layer_3" data-name="Layer 3" xmlns="http://www.w3.org/2000/svg" viewBox="0 0 300 300">
  <defs>
    <style>
      .cls-1 {
        fill: #fff;
      }

      .cls-2 {
        fill: #202020;
      }
    </style>
  </defs>
  <g>
    <path class="cls-1" d="M192.58,95.36l8.37-20.74c41.95,10.02,16.95-16.81,16.95-16.81,17.67-26.29-17.63-17.65-17.63-17.65-18.92-33.03-36.49-1.8-36.49-1.8-35.56,6.75-3.31,23.77-3.31,23.77l-3.17,22.77,35.28,10.46"/>
    <g>
      <path class="cls-2" d="M191.69,94.35c-.21.92.72-.25,0,.66-.2-.22-.31-.46,0-.66Z"/>
      <path class="cls-2" d="M189.86,93.68c-3.36.78-6.66-1.99-10.12-1.89-.39-.04.36-.86-.54-.9-3.43.36-8.01-1.82-11.44-3.9l.3-.18c-.65-.39-1.77.19-2.48-.15.04-.17.31-.17.2-.45-.34.45-1.43-.17-1.86.11-.24-.29-.09-.68-.41-1.01l-.6.45c-.79.51-1.54.26-2.24-.06-.73-.33-1.28-.7-2.39-.64.21-.08.45-.12.45-.26-.37,0-.75-.02-1.16-.07-.15-.98-.08-2.38.04-3.83.11-1.41.26-2.81.31-4.16.19.15.56.31.82.17-.6-.24-.63-1.19-.64-2.02.69-.28-.39-1.47.09-2.37l.13.1c-.58-.8.53-.99-.19-1.67l.57-.37c-.86-.44.61-.95.23-1.59h-.19c-.14-.59.35-.81.27-1.34l.11-.03c-.07-1.22.53-1.84-.18-1.91.62-.34.1,1.19,1.01.65-.03-.73-.04-1.45-.03-2.11l.03-.98.02-.48v-.24s.02-.12.02-.12c0-.02,0-.04,0-.06l-.06-.03c-.55-.26-1.07-.53-1.58-.82-.5-.28-.99-.58-1.55-.94-1.09-.7-2.14-1.46-3.16-2.24-.18-.51-.35-.76-.26-1.03-.4-.13-1.23-.85-1.74-.83.11.08.05-.45-.07-.61-.35-.68-1.12,0-1.47-.79.36.1.6.01.72-.25-.87-.09-1.43-.84-2.06-1.38.17.03.35.14.51-.02-.52-.15-.75-.5-.9-.87-.16-.37-.29-.71-.63-.98l.49.06c-.08-1.31-.99.09-1.12-1.08.21.21.33.06.5.04-.26-.16-.48-.4-.67-.68-.15-.29-.27-.63-.36-.97-.05-.35-.07-.71-.1-1.06.01-.34.05-.66.03-.96.04.08.16.09.16.09.21-1.21,1.01-2.2,1.71-3.29.46-.19.57.77,1.35-.06-.28-.3.05-.69.33-1.02.3-.3.53-.58-.03-.78.96-.5,2.54-.9,3.04-1.45-.28.48.84.72.13,1.14.25.06.5.13.76.21.05.33-.61.14-.27.45.34-.19,1.31-.91,1.69-.92.51-.75.89-1.83,2.05-2.32-.46.49.57.77.24,1.03.39-.68.81-1.31,1.24-1.98.39-.14.25.61.78.25-.08-.2.14-.4.27-.62.15.03,1.7-.58,1.92.2.25.28-.52.29-.06.48.68-.15.6-.42,1.21-.56l.07.1c.1,0,.25,0,.31-.1.16-.45.1-1.02-.3-1.02-.15.19.38.31.02.45-.08-.32-.08-.62-.02-.88.03-.13.07-.26.12-.37l.08-.17.15-.25c-.04.29.15.4.3.59.03-1.19.54-2.26,1.07-3.35-.29-.25.28.79.01.79,1.33-.85,1.41-2.93,2.89-3.31-.09.2-.47-.3-.39-.24.55-.51.93-.07,1.13-.56.27.21.35-.5.66-.91.04-.35.2.03-.09.35.17-.32.67-1.08,1.4-1.77.71-.71,1.66-1.37,2.5-1.59-.14-.16.47-1.24.86-1.39l.1.52c.46.11,1.16-.62,1.4-.25.25-.46-.42,0-1.03.48-.61.47-1.1,1-.76.51.42.21.99-1.44,1.1-.72.66-.38,1.19-1.18,2.07-1.01-.24,0-.35.89.22.63,1.01-.42.22-.33,1.04-.74l.5-.36c-.07-.5,1.03-.11.5-.59.11.19.52.06.91-.02.39-.09.76-.03.73.37l-.1.65c.46-.07.74-.72,1.14-1.03.07.06.2.18.17.29.1-1.01,1.19.15,1.87-.57.52.25,1.18.4,1.77.56.58.18,1.06.45,1.19.82.86-.07,1.67-.04,2.41.54-.21,0-.44-.08-.58.1.37.51.64.3,1.14.43-.16.07.66,1.08.95,1.68.77.18.87-.39,1.12-.62-.05,1.2,2.14.81,2.16,2.1-.28-.08-1.11-.37-.82.23-.19,1.18,1.51.35,1.92,1.48l.4-.76c-.04.7,1.43.86.74,1.34.47.07.65,1.11,1.17.52.29.91,1.03,1.68,1.64,2.45.56.8,1,1.59.71,2.41.25.13.48.71.76.38.14-.58-.59-.3-.42-.59.15.17.35.09.46.05.07.27.18.52.08.6-.07.11-.21.23-.58.26,0,.48.39.47.75.36.37-.09.69-.29.77.14-.21.29-.25.47-.1.61.09-.05.15-.04.25-.16.11-.12.21-.25.31-.36.33.06.03.75-.14,1.35.35-.17.76-.22.9-.67.11.22.26.43.43.63-.18-.22-.11-.32,0-.38.03-.01.06-.02.09-.04l.16-.04c.11-.03.2-.06.26-.1l-.22.17c.13.22.7-.02.99-.13-.12-.33-.75-.37-1.1-.42.23-.28.64-.3.95-.63-.04.56.9.26,1.32.27.49.06.48-.55.62-.55.04.28.79-.04.46.4-.15.1-.4-.23-.64.05.34.17.35.66.96.24.46-.32-.23-1.06.74-.81-.24.16-.26.38-.43.59l.9.21v-.5c.13.12.05.17.11.23.22-.55,1.33-.25,1.51-.84.45-.08.97.31,1.4.37l-.08.04c.53.28,1.23.1,1.7-.21l-.03.11c.29.04.99,0,1.39-.25.73.44.07,1.87.94,1.36.73.08,1.33-.73,1.07-1.09.69.31,1.45.32,2.25.51.77.14,1.58.47,2.07,1.13.3-.07.22-.25.72-.11.52.31,1.07.73,1.63,1.13.28.19.53.47.8.71.26.25.53.49.72.8.43.59.81,1.2.95,1.85.09.32.16.63.18.94,0,.3-.05.59-.12.87-.34-.69-.49.06-.77.11.54.5-.32.72.44.84.44-.1.69-.04.74-.81.06.19.13.4.18.62.03.21.05.42.07.64.03.43.07.91.01,1.32-.13.8-.31,1.53-.61,1.83.29-.31.36-.01.42.3-.68-.24-1.01.64-.96,1.4l.38.23-.58.28c.04.29.76.59.12,1.09-.17-.03-.34-.05-.5.02.1.81.18,1.93-.47,2.48-.28.09-.55.19-.84.26-.09.3-.01.95.42.55-.46.47-.83.85-1.13,1.15l-.12.1s-.03,0-.05-.01c-.04,0-.1.02-.15.02-.11.02-.24.02-.39.01.29.52.45.81.6,1.02.34.15.54.26.69.39.04.03.07.07.1.1.01.01.04.05.03.04l.17.23c.25.33.48.65.7.98l-.31.13c.15.72.67-.06.76.47-.38,0-.26.81-.87.6.26.97,1.17.69,1.64,1.15.41-.15-.51-.28.01-.47.2,0,.45,1.32,1.08,1.13-.09.35-.6.42-.89.45l.58.36c-.29.99-2.01-.72-2.42.42l.36.39c-.33.76-1.36-.76-.89.45.56.3,1.61.29,1.61-.31.74.99,1.65-.27,2.22,1.01-.18.51-.57-.97-.93-.48-.19.81.85,1.02.9,1.66-.03-.71.78-.46,1.07-.08,0,.8-.75-.22-.42.78.41.03,1,.92.96,0,.94.12.16,1.18.93,1.68-.5.48-1.62-.83-1.62.45.26-.15.55.16.83.47.28.31.58.6.95.16-.09.61-.54.68-.94.34-.13.4.2.8.34,1.31.16.47.2.9-.37.98.19.12.36.26.53.39-.24.27-.46.66-.87,1.01-.11.37-.18,1.03-.33,1.58-.2.51-.48.86-.82.57-.04.12-.29.57-.54.88-.22.33-.34.63.14.6.28-.14.47-.3.59-.45.11-.17.17-.32.23-.45.12-.26.23-.42.78-.5-.53.19-.75.54-.9.97-.17.4-.3.85-.5,1.19l-.32-.17c-.21.43-1.06.88-1.1,1.33.18-.34-.1-.44-.42-.34-.03.22-.08.45-.13.68-.37.3-.53.3-.69.3-.14-.02-.23-.11-.31-.21-.17-.19-.33-.4-.93-.09.27-.25.53-.5.78-.74-.17.16-.76-.12-1.26.24-.07.55-.32,1.17-.43,1.59-.65.37-.43-.45-1.01.19.26-.26.51-.51.75-.77.09-.2-.78-.59-1.59-.45-.48.23-1.25,1.02-.35,1.17-.44.06-1.06-.15-.76-.54-.94.27.18.5-.63.88-.36-.3-1.39-.72-1.98-1.16l.78-.82h-.52c.65-.65-.34-.47.02-1.15-.34-.09-.75.15-1.08.3,1,1.12-1.16,1.44-.92,2.43-1.47.21-.74-2.41-2.29-1.01.21.28-.54.96.37.76-.86-.19-.68.93-1.68.42.8-.33-.7-1.07.45-1.55-.11.32.58.3.75.23-.32-.41.16-.98-.7-1.06-.54.05-1.25-.03-1.21.49-.05.57.81.05.4.57-1.07.05-1.12-.83-1.7.1.67.02.76.62.7,1l-.81.12.2-.35c-1.21-.45-.47.62-1.67.34-.15-.27-.29-.55-.44-.83.37-.56,1.7.54,1.64-.51-.77-.16-1.12.34-1.79-.07.18-.06.4-.04.57-.1-.27-.09-.3-1.49-1.52-.9-.62.2-.22.34-.3.71-.62-.06-1.05,0-1.41.05l-.14.02s-.03,0-.02,0c.08.02.03.01.04.02l-.02.02-.06.07s-.07.07-.1.08c.05-.77-.33-.15-.16-.9.09.25.23.38.38.37-.01,0,.07,0-.02-.01h.1s.21,0,.21,0c.14,0,.27-.02.4-.05.25-.05.47-.15.61-.31-.28-.96.93.3,1.35-.54-.97-.2-.76-1.06-.8-1.66-.26-.09-.56.1-.74.16-.22.51.13.57.04,1.13-.26-.09-.53-.15-.79-.18-.17-.01-.31,0-.45.03-.27.07-.47.24-.55.49-.21-.32-.32-.9-.05-.9-.38,0-.76-.06-1.16-.17l-.15-.04s-.06-.03-.07-.01l-.03.06-.13.24c-.09.16-.19.31-.29.45.81.36-.14.9.56,1.16.28-.16.79.28,1.04.71-.07.03-.28-.34-.44-.46.15.27-.01.16-.17.11-.15-.06-.29-.04,0,.26-.05-.26-.25-.49-.52-.68-.27-.2-.61-.35-.87-.64.11.78-.39-.35-.64.25.02.19.04.39.06.59.01.2-.02.48-.04.72-.05.5-.12,1-.23,1.46-1.05.84-1.12,2.75-1.49,3.73-.53.38-1.12-.26-1.47.24-.25.65.98-.16.26.66l-.11-.15c.05.36-1.2,1.55-.27,2.26l-.67-.62c-.14.15-.03.39,0,.57-.26-.1-.58.02-.63-.34-.78.37-.41,1.28-.65,1.93l.63-.22c-.08,1.25-.84,1.8-1.1,2.93l-.45-.22.02.74c-.38-.33-.9.13-.67.62l-.46-2.1c.45-.35.35.72.92.62.49-.08.77-1.12.39-1.46-.2.36-.11.42-.06.77-.69-.13-.43-.69-.74-1.15-.05.21-.36.41-.18.53-.16-.51-.05-.92.2-1.58.07.54.49-.08.61.16-.54-.28-.47-.96.01-1.7.88-.31.19-1.67.74-2.52.42.6.68,1.27.68,1.92.52-.46.24-.65.77-1.12-.31-.45-.88-.92-.83-1.78l.44.13c.06-.77-.56-1.02-.09-1.85.81-1.41,1.43-2.95,1.94-4.07l.44.13c-.3-.55-.08-1.32.19-2.06.28-.75.62-1.47.7-2.25.14-.19.26-.41.37-.63l.16-.35.4.09c.52.11,1.02.18,1.51.25.97.15,1.89.33,2.37.84.96.14,1.54.13,2.21.18.65.04,1.29.09,1.93.15,1.28.05,2.56.27,3.92.45l-.53.61c.55-.43.28.41.79.36-.51-.58.74-.61,1.11-.98,1.18.58,2.79.07,3.76-.46l.07.45c.97-.9,2.17-.31,3.33-.53.17.13.52.45.83.28.16-.44.17-.7.28-.91.11-.2.18-.44.2-.76.26-.28.66-.75.97-1.22-.91-1.78-1.64-4.68-3.8-6.84l.32-.48c-.41-.28-.77-.6-1.13-.93-.18-.17-.35-.35-.52-.53l-.25-.27-.12-.14-.16-.2c-1.12-1.35-2.35-2.73-3.46-4.01,1.08-1.74,2.17-3.29,2.83-4.86.24.18.38.56.6.8.06-.06.12-.15.17-.22l.11-.14c.06-.08.11-.17.15-.27.08-.19.13-.39.13-.57,0-.37-.15-.68-.49-.74.64-.56.41-1.87,1.31-1.99.42-.64-.08-1,.02-1.59.7-1.19.77-1.78.6-2.75l-.05.23c.21.11.59.15.64-.12-.2-.43.08-1.35-.91-.8.16-.25.06-.39.03-.58-.04-.08-.13-.13-.18-.2l-.09-.1-.14-.07c-.28-.23-.76-.39-1.02-1.03-.04.3-.33.25-.51.4-.84-.35-2.04-1.2-3.12-.82-.19-.17.38-.47-.14-.55-.33.09-.05.38-.44.52-2.08.37-4.44-.61-6.54-.24-.95.26-1.91.49-2.88.7-1.83.36-3.7.84-5.56,1.28-.89-1.4-1.74-2.86-2.6-4.26l-.32-.53c-.1-.16-.24-.4-.28-.45l-.37-.53c-.25-.35-.5-.7-.74-1.05l.2-.09c-.66-.26-.9-.93-1.19-1.53-.28-.6-.58-1.2-1.36-1.12-.02-.33-.62-.82-.17-.95-.53-.12-.83-.73-1.25-1.25-.41-.52-.87-1.16-1.6-1.2.08.08.16.09.32.09-.35-.55-.84-.92-1.36-1.19-.26-.13-.52-.26-.77-.42-.25-.18-.49-.36-.72-.57.16-.03.4,0,.53-.17-.29-.58-1.42.35-1.26-.73-.27-.07-.37.43-.21.45-1.17-.66-2.56-.86-3.87-.66-1.32.19-2.58.75-3.79,1.42-1.03.17-1.3-.2-1.4-.45-.1-.25-.09-.37-.64.42-.23-.1.12.4-.01.22-.41.57-1.54-.38-1.63.34.54.4-.05.48.18.81-1.34.51-1.96.3-2.46,1.43l-.17-.31c-.31,1.59-1.71,2.39-1.57,3.97-.53.68-1.02,1.38-1.48,2.09-.3.48-.6.96-.9,1.44-.42.75-.84,1.49-1.25,2.23-1.28.31-2.56.62-3.83.92-.69.17-1.36.38-2.01.59-1.34.4-2.59.88-3.79,1.38-1.17.52-2.29,1.07-3.15,1.67-.94.57-1.46,1.23-1.63,1.52-.17.19-.13.17-.16.27-.06.06.06.38.2.77.4.85,1.32,2,2.43,3.06,1.12,1.08,2.45,2.13,3.83,3.15l1.05.77.54.38c.22.15.25.19.71.48l1.12.72,1.21.72c.81.47,1.61.94,2.42,1.41-.02.13-.05.28-.07.43-.72,1.94-1.06,2.8-1.25,3.72-.18.83-.26,2.13-.19,2.94-.13-.1-.15-.23-.3-.12.71.2-.13,1.41.54,1.7-.54,2.85-.71,5.52-1.11,8.47-.01-.48-.57-.79-.6-.23l.38.64-.21.07c.05.39.35.86.64.5-.04.66-.09,1.31-.15,1.96l-.2,1.68s-.03-.05-.11,0c-.07.05-.1.12-.08.22v.04s.02,0,.02,0l.1.04.21.08.84.32,1.68.63c2.24.83,4.5,1.62,6.79,2.24,1.58.79,4.04,1.22,5.89,1.62,5.1,2.53,9.71,4.72,15.37,5.68,0,0-1.25,1.6-3.63,1.35Z"/>
      <path class="cls-2" d="M192.05,93.28c.41-.05.84-.58,1.1.09-.34-.07-.82.1-1.1-.09Z"/>
      <path class="cls-2" d="M201.88,78.96c-.09-.07.17-.03.23-.01-.02.11.22.34.03.31,0-.1-.15-.17-.26-.3Z"/>
      <path class="cls-2" d="M203.12,77.87c.04.18,0,.32-.06.42-.03.05-.06.09-.09.12-.04.01-.02.14-.04.18-.02-.09-.04-.2-.04-.28.01-.05.03-.1.05-.15.04-.1.1-.19.18-.28Z"/>
      <path class="cls-2" d="M205.45,79.71c.32.34.19.47-.31.37,0-.18.18-.23.31-.37Z"/>
      <path class="cls-2" d="M205.88,79.04c.35.06.49.28.63.49.04-.28-.85.02-.63-.49Z"/>
      <path class="cls-2" d="M215.32,81.09c.25-.02.76-.26,1,.08-.27-.23-1.19.38-1-.08Z"/>
      <path class="cls-2" d="M220.19,80.31c.17,0,.24.06.42-.08.35.07.05.4-.21.46l-.22-.38Z"/>
      <polygon class="cls-2" points="194.6 28.49 195.08 28.72 194.8 28.9 194.6 28.49"/>
      <path class="cls-2" d="M163.21,34.78c-.11.51-.44.1-.53.14.22-.38.24.36.53-.14Z"/>
      <polygon class="cls-2" points="148.99 43.07 149.1 42.97 149.48 43.51 148.99 43.07"/>
    </g>
  </g>
  <g>
    <polygon class="cls-1" points="195.85 95.82 156.26 83.17 151.1 101.21 190 112.18 195.85 95.82"/>
    <g>
      <path class="cls-2" d="M195.21,96.88c.46-.01-.05-.62.35-.16-.14.23-.28.4-.35.16Z"/>
      <path class="cls-2" d="M194.58,96.89c1.13,1.89-1.11,3.04-.6,4.84,0,.19-.86-.36-.79.1.74,1.84-.78,3.77-2.35,5.13l-.21-.19c-.29.25.37.97.16,1.21-.16-.07-.2-.19-.44-.22.46.28.04.6.34.94-.22,0-.57-.25-.81-.26.15.17.3.35.45.53.51.7.35,1.06.15,1.3-.21.26-.46.38-.34,1.13-.08-.19-.13-.37-.24-.46.04.36.04.72.02,1.07-.8.24-2.16-.21-3.37-.28.08-.2.15-.58.09-.84-.1.63-.58.66-1.03.66-.01-.68-.8.39-1.13-.08l.08-.13c-.5.56-.36-.51-.84.2l-.06-.55c-.39.84-.33-.59-.72-.21l-.04.18c-.31.15-.31-.33-.58-.25v-.11c-.6.08-.77-.5-.95.19-.03-.6.59-.1.52-.99-1.97.21-3.75-.44-5.53-.93-.12-.33-.23-.45-.2-.73-.22.09-.7-.06-.97.24.06,0-.02-.38-.1-.44-.25-.35-.57.66-.84.25.19-.14.3-.35.33-.62-.45.45-.84.25-1.24.32.09-.1.19-.14.24-.36-.56.5-.68-.33-1.13-.04l.24-.36c-.42-.64-.4.78-.8.36.15-.09.15-.26.22-.42-.65.6-1.3.15-1.82.27.04-.05.07-.16.07-.16-.51-.05-.95-.41-1.58-.25-.14-.23.34-.95-.22-.95-.21.8-.96.08-.92,1.07-.4-.25-1.01-.75-1.38-.56.28-.25.06-1.03.44-1l-.14-.56c.13-.31.25.19.28-.24-.19-.02-.81.15-.94-.03-.48.39-1.04,1.22-1.62,1.16.35-.24.1-.92.31-1.01l-1.19,1.31c-.19-.01.14-.64-.18-.51-.05.22-.2.31-.33.46-.04-.11-.81-.01-.67-.82,0-.33.34-.08.22-.42-.34-.09-.43.18-.77.09l.02-.11c-.19-.18-.75.15-.63.65.15.07.07-.49.24-.2-.29.41-.71.43-1.05.34.15-.09.2-.31.3-.52-.63.49-1.16.55-1.74.66-.11.37.38-.63.4-.41-.5-.7-1.54.36-1.87-.55.11-.04-.1.54-.08.44-.3-.14-.13-.67-.39-.53.07-.32-.28.03-.52.07-.17.2-.01-.17.18-.15-.18.09-.6.18-1.04.16-.11,0-.22-.02-.33-.04-.15-.03-.32-.07-.47-.13-.3-.1-.58-.24-.77-.42-.06.21-1.01.55-1.26.45l.38-.42c-.03-.33-.8-.18-.55-.56-.45.19.11.22.63.21.52,0,.99-.05.56.08.09-.42-1.36.46-.81-.11-.43-.1-1.32.24-1.39-.27.07.11.89-.48.54-.55-.66-.09-.36.15-1.01.15l-.51.07c-.49.38-.52-.22-.82.28.34-.33-1.27-.1-.29-.68l.8-.45c-.29-.03-1.19.37-1.76.51.04-.05.12-.17.26-.23-.39.21-.59.27-.73.25,0-.2.52-.77-.05-.71.59-.8.5-1.62,1.28-2.11-.22-.34-.48-.72-.09-1.3.07.1.06.24.28.23.41-.37.14-.4.06-.69.14.05.8-.68,1.24-.96-.19-.42-.76-.36-1.08-.44,1.09-.24-.22-1.52.71-1.55.1.14.33.58.64.39,1.02-.01-.53-.76.05-1.08l-.81-.11c.54-.06-.26-.79.52-.52-.24-.23.41-.46-.37-.63.86-.56.13-1.91,1.62-1.98-.1-.14.11-.37-.3-.43-.47.06.23.33-.08.32,0-.1-.2-.18-.3-.22.24-.18.35-.35.92.05.62-.38-1.14-.9-.66-1.47.31.12.44.1.45-.1l-.44-.52c.25-.39.79-.03,1.32.11-.03-.25.08-.52-.29-.74l.75-.08c-.54.06-.27-.28-.37-.42l.1.14c.24.02.17-.28.14-.43-.34-.06-.55.16-.69.28-.2-.18-.1-.35-.33-.58.26.1.37.03.44-.08.07-.13.12-.39.18-.5.2-.26-.36-.53-.31-.62.26.1.19-.5.48-.08.05.14-.32.13-.14.4.25-.12.7.12.48-.43-.16-.43-1-.43-.51-.88.07.24.26.38.4.59l.4-.38-.43-.31c.13,0,.15.07.22.08-.41-.48.1-.94-.35-1.49.05-.35.46-.37.59-.59l.02.09c.33-.09.29-.67.12-1.29l.08.12c.08-.15.15-.66,0-1.22.41-.08,1.39,1.94,1.08.77.1-.42-.43-1.82-.7-2.02.02-.02.03-.04.05-.06.51.29.88.28,1.3.36.41.07.88.22,1.39.78.06-.19-.07-.36.16-.41.68.32,1.34.38,2.02.54.66.16,1.34.43,1.75,1.07-.4.09-.11.49-.16.77.37-.35.22.55.49-.16.08-.45.17-.65-.16-.94,1.03.08,1.57.25,1.75.75-.07-.24.07-.34.22-.43-.25.67.07.89.42.73l.17-.4.04.48c.15-.1.39-.83.53-.35-.04.16-.07.33-.06.47.39-.25.96-.7,1.16-.25l.05.69c.15-.03.48-.32.31-.57.4.53.72.68.71,1.26,1.3-.99,2.61-.63,3.61-.21l-.13.3c.18.38.32-.5.44-.22-.18.27,0,.71-.33,1.01.29.45.68-.38.99-.43.17-.4-.29.2-.08-.31.09-.13.45.49.71-.1.02.27-.2.7-.33.94l.34-.22c.07.82-1.09,1.07-1.06,2.06l.26-.03c0,.72-.83.54-.33.94.34-.23.84-1.06.71-1.4.56,0,.71-1.4,1.24-1.17.03.41-.46-.05-.52.49.1.58.61-.11.78.13-.18-.31.23-.87.44-.93.18.38-.37.53,0,.72.18-.34.63-.49.39-.84.4-.76.34.35.75-.2-.05.61-.83,1.19-.48,1.61.11-.57.77-.58.8-1.46.12.21,0,.65-.23.95.13.41.91-.81.64.3l.26-.53c.02.21.08.38.11.72.21.08.93-.54.64.3.1-.07.57.13.57-.52-.19-.45-.48.32-.4-.53,0,.71.46.06.71-.1l-.08.34c.14-.09.36.05.54-.28-.14.16-.17.4-.11.5l.27-.46c.5-.11-.18.91.28.89l-.44.29c.09-.06.09.45.33.36.22-.43.54-.93.72-1.26.3-.12-.06.55.32.15l-.47.45c-.09.13-.04.82.28.9.25-.09.77-.65.53-1,.16.04.29.39.06.68.4-.04.11-.5.5-.69.03.34.28.9.37,1.41l-.56.66.21.07c-.47.52-.01.51-.37,1.1.11.15.36-.02.55-.14-.09-1.16.92-1.26,1.1-2.23.66-.07-.37,2.4.7,1.12-.02-.28.49-.9.04-.75.33.22.54-.86.84-.34-.44.29.03,1.06-.6,1.47.13-.3-.18-.32-.28-.25.03.41-.33.93.04,1.05.25-.02.57.06.68-.44.16-.54-.36-.05-.04-.55.51-.04.32.8.81-.1-.31-.02-.2-.59-.08-.96l.4-.12-.18.34c.44.42.36-.6.84-.34v.78c-.3.57-.64-.51-.87.51.32.15.59-.32.82.04-.1.06-.2.06-.3.12.11.07-.19,1.42.53.8.34-.22.18-.33.3-.7.57.06.85-.27,1.21-.22-.3.7.58.26-.03.88-.04-.48-.82-.68-1.23-.05-.08.92-.38-.25-.77.58.42.16.13.99.02,1.57.11.08.3-.12.39-.18.22-.5.06-.55.22-1.08.43.29.98.15,1.41-.27.08.31-.14.81-.34.8.62.03,1.2.29,1.69.62-.08-.96.66,0,.65-.79-.23-.28-.28-.97,0-1.3.16.11-.12.37-.11.57.38-.39.12.86.58.2-.6.11-.43,1-.74,1.64.49-.26-.17.47.2.59.49-.25,1.04-.4,1.5-.41.32.8,1.31.43,1.78.56.14.41-.27,1.11-.05,1.33.31.08.03-.88.38-.39l-.09.14c.19-.13.68.78,1.16-.26l-.4.77c.06.1.2-.06.3-.12-.08.27-.06.54-.25.67.1.65.62.1.94.18l-.04-.54c.65-.21.85.38,1.41.37l-.17.47.39-.19c-.22.43-.04.82.25.48l-1.15.9c-.13-.35.42-.49.43-1,.01-.44-.5-.47-.72-.04.16.11.21,0,.4-.12-.15.68-.42.56-.69.96.1,0,.17.25.26.05-.29.26-.49.25-.8.17.29-.19.02-.44.16-.6-.21.57-.56.65-.89.37-.06-.75-.85.2-1.24-.13.37-.53.74-.92,1.09-1.07-.18-.38-.31-.08-.5-.47-.27.39-.58,1.03-1.03,1.18l.12-.44c-.4.11-.6.75-.98.5-.65-.44-1.38-.68-1.91-.9l.12-.44c-.6.82-1.12.02-1.66.3-.56-.64-1.64-.07-1.76-.93-1.33-.06-2.51-.08-3.73-.65l.41-.56c-.38.39-.03-.41-.29-.39.1.58-.52.55-.8.88-.41-.67-1.31-.37-1.95-.09l.12-.44c-.77.65-1.15-.26-1.74-.59-.02-.2,0-.64-.2-.66-.57.59-.73.48-1.37.75-.37-.12-.91-.48-1.2-.87-1.69.54-2.91-.54-4.53-.41l.06-.54c-1.74.64-3.14-.89-4.5-.72l.39-.83c-.29-.39-.92-.04-1.02.6-.29-.38-1.07.12-1.08-.66-.33-.28-.6.25-.95.27-.65-.57-.99-.6-1.71-.65,0,.02.09.07.14.1.14-.16.26-.53.1-.64-.23.19-.37-.38-.47.73-.05-.34-.22-.27-.32-.19-.11.07-.16.13-.42-.39.12.35.09.4.16.63-.07-.01-.32-.37-.46-.45-.02.04-.01.15.1.38-.11-.14-.34-.63-.39-.58.07.18.28.44.39.66.17.41.05.32-.15.3-.19-.03-.46.01-.44.2.05.1.09.16.11.26-.02.24-.05.47-.09.71-.08.47-.19.93-.31,1.38-.25.91-.55,1.79-.75,2.65l-.2-.08c.64.8-1.2,1.11-.13,1.91-.24.08-.24.49-.62.27.22.31,0,.59-.22.9-.11.16-.21.32-.25.5-.02.09-.03.19-.01.28.03.04.09.08.17.12.03-.01-.02-.03-.1-.07-.26.03-.25.16-.22.26.02.1.06.18-.21.32-.09,0-.16-.05-.39-.03-.24.08-.01.12.14.15.15.03.22.04-.38.21,0,.07.58-.11.55-.13-.26.27-.31.54-.25.7.49,0,1.02-.14,1.3-.2-.07.3-.27.71-.43.94-.16.23-.2.31.19.02-.06.19.21-.36.11-.16.22-.24-.2,1.16.13.68.14-.63.18-.33.33-.69.59.6.57,1.2,1.26.89l-.13.31c.91-.74,1.52-.03,2.37-.94,3.64.82,7.24,1.2,10.77,2.06,3.4,1.18,6.91,1.65,10.26,3.21.58,1.09.65,1.08,1.65.99-.08.13-.14.14-.12.29.24-.69.65.11.93-.53.63.25,1.26.41,1.89.55.58.13,1.54.35,1.34.29-.02.08-.16.66-.1.62.04-.15.07-.3.1-.46v.21c.03-.1.05-.47.05-.71.02-.21-.08-.22,0-.08.07.15.24.3.43.27.05,0,.09-.02.14-.04.02-.02.01.02.04-.05l.09-.2.18-.39c.24-.53.45-1.06.61-1.61.56-.66.68-1.84.84-2.72,1.8-2.13,3.33-4.08,3.58-6.8,0,0,1.66.96,1.71,2.14Z"/>
      <path class="cls-2" d="M194.69,96.79c.02-.38-.21-.66.17-1.05-.08.34-.04.75-.17,1.05Z"/>
      <path class="cls-2" d="M188.12,90.74c-.04.1-.06-.18-.07-.24.1,0,.29-.26.3-.05-.1,0-.14.16-.23.3Z"/>
      <path class="cls-2" d="M186.22,89.91c.13-.3.63-.41.89-.37l-.89.37Z"/>
      <path class="cls-2" d="M184.79,88.04c-.08-.31.01-.44.23-.37-.04.17-.13.23-.23.37Z"/>
      <path class="cls-2" d="M184.43,88.7c-.16-.04-.17-.25-.19-.45-.08.27.41-.05.19.45Z"/>
      <path class="cls-2" d="M180.73,86.53c-.1,0-.39.19-.37-.19.02.27.59-.24.37.19Z"/>
      <path class="cls-2" d="M178.73,86.4c-.05-.04-.06-.1-.16-.04-.06-.18.12-.37.23-.37l-.07.41Z"/>
      <polygon class="cls-2" points="150.32 95.04 150.22 94.79 150.52 94.91 150.32 95.04"/>
      <path class="cls-2" d="M159.87,106.21c.26-.14.06.33.08.39-.19-.02.18-.37-.08-.39Z"/>
      <polygon class="cls-2" points="168.37 106.92 168.31 106.91 168.51 106.28 168.37 106.92"/>
    </g>
  </g>
</svg>