<?xml version="1.0" encoding="UTF-8"?>
<svg id="Layer_3" data-name="Layer 3" xmlns="http://www.w3.org/2000/svg" viewBox="0 0 300 300">
  <defs>
    <style>
      .cls-1 {
        fill: #212020;
      }

      .cls-2 {
        fill: #202020;
      }

      .cls-3 {
        fill: #212121;
      }

      .cls-4 {
        fill: #653917;
      }
    </style>
  </defs>
  <g>
    <path class="cls-4" d="M174.74,61.1s-10.46-7.4-14.25-6.46c-5.72,1.41-10.16,14.58-14.46,18.62-1.27,1.19-5.12,1.57-6.4,2.75-3.75,3.47-7.44,19.04-7.44,19.04,0,0-15.71-17.04-22.94-18.13-2.63-.4-9.68,1.17-9.91,3.81-.86,9.9,21.25,21.85,30.49,25.51,7.64,3.03,30.44,9.29,33.32,10.08.2.05.4.1.6.14h0c.2.04.41.08.61.1,2.96.41,26.39,3.58,34.61,3.79,9.94.25,34.96-2.07,38.05-11.51.83-2.52-5.05-6.73-7.63-7.39-7.08-1.82-28.21,7.69-28.21,7.69,0,0,2.71-15.76.62-20.43-.71-1.59-4.11-3.45-4.81-5.04-2.37-5.39-1.29-19.25-6-22.8-3.13-2.35-15.65.36-15.65.36l-.6-.12Z"/>
    <g>
      <path class="cls-3" d="M173.42,61.47c1.18.65-.31-.82.84.31-.27.09-.58.08-.84-.31Z"/>
      <path class="cls-3" d="M179.3,61.25c2.03-1.05,4.59-1.38,7.17-1.28,1.28.06,2.61.19,3.77.63.26.16.57.26.8.46.23.2.47.4.71.6.39.47.85.92,1.2,1.43.29.49-.75.21-.11,1.27,1.38,1.92,2.04,4.97,2.27,8.07.27,3.13.14,6.36.39,9.32l-.31-.3c.07.57.34,1.16.72,1.72.19.27.36.58.57.87.2.29.43.54.62.8-.11.11-.45-.2-.41.18.58.06,1.75,1.42,2.36,1.46.23.43-.04.68.26,1.2l.81.03c.53.07.98.3,1.33.7.18.2.29.45.36.71.07.27.18.53.2.83.17,1.17.08,2.42.44,3.64-.13-.12-.23-.35-.34-.16.44,1.96.49,4.23.39,6.53-.11,2.37-.33,4.51-.46,6.37-.19.04-.54.19-.83.68.55-.3.58.55.55,1.32.06,0,.22-.11.32-.16-.11.35.51-.06,1.14-.5.65-.45,1.27-.91,1.74-.94l-.14.19c.53-.53.75-.53,1.03-.57.26-.03.55-.09.85-.59.18.09.37.17.59.25.12-.47.39-.47.82-.48.45,0,.97.01,1.3-.33l-.08-.14c.69-.47,1.23-.24,1.89-.62l.1.06c1.58-.8,2.71-.68,2.47-1.27.74.28-1.55.76-.39,1.14,2.63-1.23,5.4-2.23,8.28-2.91.72-.17,1.45-.3,2.18-.44.73-.12,1.48-.18,2.22-.28l1.13-.02c.38,0,.75-.03,1.14.05l1.15.17c.38.1.75.24,1.1.39.52.51.85.78.86,1.06.58.15,1.9,1.05,2.51,1.14-.16-.11.11.48.32.7.64.87,1.34.23,1.98,1.37-.46-.29-.7-.24-.77.02.98.37,1.97,1.66,1.94,2.93-.05-.2-.14-.49-.34-.43.22.4.13.81-.02,1.16-.31.81-.95,1.3-1.23,2.06l-.03-.56c-.69.57-.69.74-.6.98.08.21.21.47-.49.9.21-.34.01-.35-.03-.51-.31.73-1.02,1.45-1.83,2-.79.58-1.66,1.02-2.28,1.44.06-.08,0-.16,0-.16-1.42.77-3.06,1.18-4.64,1.99-.66.03-.06-.88-1.63-.29.27.7-2.68,1.02-1.52,1.56-1.44.25-3.73.45-4.63.85.58-.39-.85-.74.31-1.02l-.96-.26c.08-.32.92-.07.57-.39-.57.15-2.23.71-2.77.67-1.01.61-1.91,1.56-3.69,1.87.81-.38-.57-.74-.01-.93-.77.55-1.56,1.1-2.35,1.63-.6.09-.18-.55-1.03-.29.06.19-.31.33-.56.51-.23-.06-2.49.35-2.79-.35-.28-.27.97-.2.29-.42-1.1.07-1.14.31-2.24.36l-.02-.09c-.73-.08-2.15.34-1.35.73.51.02-.2-.42.56-.23-.51.42-1.81.56-2.94.54.39-.11.34-.3.5-.5-1.52.54-3.14.62-4.82.73-.05.34.67-.57.9-.37-2.1-.62-4.45.3-6.14-.56.29-.03.11.49.1.4-1.01-.15-.92-.63-1.6-.52-.04-.29-.84,0-1.53.02-.37.17-.16-.16.43-.13-.97.15-4.82.16-6.96-.52.02.2-1.43.53-1.93.45l.25-.42c-.43-.32-1.69-.17-1.73-.56-1.14.41,4.19.05,2.69.28-.33-.42-2.11.46-1.72-.11-1.01-.11-2.05.27-2.96-.27.27.11.9-.51.08-.58-1.44-.1-.43.16-1.61.16l-.75.09c-.1.42-1.27-.22-.8.33-.13-.38-2.11-.05-1.87-.75l.27-.54c-.62-.04-1.09.46-1.61.64-.07-.06-.22-.2-.18-.28-.21.85-1.47-.27-2.29.3-.32-.12-.68-.21-1.06-.28-.41-.08-.82-.16-1.22-.23-.44-.09-.89-.24-1.17-.37-.27-.13-.48-.28-.6-.45-1.04-.01-2.01.04-3.07-.45.24-.02.55.04.66-.12-.63-.44-.86-.27-1.53-.31.18-.08-1.25-.88-1.94-1.39-1.03-.02-.83.52-1,.77-.65-1.07-2.87-.24-3.76-1.3.37-.02,1.52,0,.78-.44-.64-1.07-1.95.1-3.25-.71l.15.78c-.51-.6-2.2-.21-1.85-.87-.55.11-1.6-.71-1.64,0-2.16-1.25-5.77-1.35-6.83-2.99-.37,0-1.16-.36-1.1.03.44.54.85-.02.98.29-.3-.07-.43.09-.49.17-.68-.38-1.23-.6-.37-.94-1.47-.92-2.01.61-3.98-.33.18-.24.06-.4-.55-.55l-1.3.07c-1.29-.57-.54-.88-.41-1.35-.73-.16-1.59-.53-2.04-.31l-.62-.91c.45.66-.69.04-1.06,0l.37.03c-.05-.24-.89-.47-1.32-.59-.03.32.73.79,1.15,1.06-.44.05-.97-.24-1.54-.22.35-.36-.98-.81-1.5-1.12-.57-.39-.88.05-1.06-.05.09-.23-.99-.53-.36-.6.24.03.37.45.82.42-.33-.36-.09-.72-1.07-.85-.73-.1-.26.93-1.32.05.37.05.51-.09.83-.12l-1-.79-.25.36c-.1-.17.02-.15-.02-.24-.54.23-1.75-.76-2.25-.45-.58-.26-1.02-.91-1.53-1.24l.12.02c-.52-.59-1.45-.93-2.13-1l.08-.06c-.33-.24-1.18-.67-1.75-.72-.7-.82.57-1.56-.66-1.71-.87-.54-1.79-.22-1.6.24-1.39-1.27-3.56-1.93-4.54-3.56-.32-.03-.26.17-.76-.11-1.05-.93-2.25-1.82-3.32-2.77-1.07-.95-1.99-2.04-2.41-3.2.69.52.37-.23.55-.4-.73-.3-.18-.9-.87-.69-.27.29-.47.34-.08,1.11-.63-.63-1.36-1.52-1.88-2.49-.54-.94-.86-1.94-.87-2.52.02.58-.24.23-.5-.16.32-.03.36-.39.33-.9-.01-.25-.12-.63-.18-.97-.06-.35-.12-.72-.2-1.07l-.39-.23c.11-.28.25-.55.37-.8l.04-.06c-.03-.27-.2-.46-.29-.76.03-.25-.12-.73.45-1.26.17,0,.33,0,.56-.15.29-.63.71-1.44,1.45-2.03.67-.65,1.69-1.14,2.21-1.18.38.03.74.12,1.1.19.44-.22,1.15-.75.27-.67,1.99-.24,3.22-.34,3.89.06.81-.38,1.68-.7,3.06-.7.59.05,1.2.14,1.82.25.6.13,1.08.33,1.63.52,2.08.81,3.81,1.99,5.25,3.09l-.25.17c.62.79.7-.1,1.13.46-.41.03.23.91-.57.72.91,1.05,1.68.69,2.46,1.14.34-.21-.71-.26-.28-.52.21-.01,1.28,1.41,1.8,1.12.12.39-.36.54-.64.59l.81.32c.33,1.15-2.5-.57-2.23.73l.63.42c.15.91-1.93-.76-.64.6.79.31,1.86.14,1.47-.52,1.39.99,1.48-.5,2.83.75.15.58-1.15-.92-1.2-.34.34.91,1.47.96,1.92,1.6-.48-.74.43-.67.91-.37.5.83-.81-.02.12.92.39-.09,1.44.57.83-.32.86-.21.86,1.1,1.78,1.19-.05.67-1.82-.07-.95,1.12.05-.13.18-.15.35-.12.15.01.26-.01.39-.03.25-.03.44-.17.57-.57.03.23-.13.63-.43.77.04.26.36.24.48.17.14-.07.18-.1.11.53.06-.18.11-.37.16-.56.01.25.06.47.15.96.09.1.22-.02.29-.05.08-.03.15.07.28.76.01-.05.15.09.18,0,0-.25-.06-.52-.21-.92-.02-.03-.03-.05-.04-.07-.16-.37-.03.52-.3-.69.18.77.23.54.15.12-.04-.19-.08-.37-.11-.54l.16.53c-.05-.26.02-.28-.18-.77.1.28.23.59.28.64-.09-.24-.18-.47-.28-.69-.13-.39.55.98.54.53.07.19.13.41.18.66-.04-.14.31.17.28-.22-.29-.48-.67-.96-.94-1.19-.14-.15.42.23.06-.06.14.1.28.24.4.41.1.14.62.3.76-.16.06-.68-.2-1.86-.73-.91.15-.51.63-1.14.78-.64.24-1.19-.48.01-.39-1.06.39-.32,1.21-1.45,1.86-2.06l.29,1.25.25-.67c.22,1.06.56-.29.94.4.24-.42.28-1.04.3-1.53-1.41,1-.61-1.98-1.54-1.93.29-.99.9-1.08,1.4-1.22.51-.15.81-.32.77-1.62-.38.22-.43-1.05-.88.3.37-.58.3-.89.27-1.22-.01-.16-.01-.33.06-.54.1-.22.28-.48.62-.82-.24.67.15.48.5.38.36-.1.66-.1.37.8-.08-.13-.28.05-.45.3-.15.24-.27.55-.3.68.57-.32.65.52,1.39-.64.21-.38.43-.8.69-1.17.23-.36.39-.71.16-.78-.18-.17-.5.2-.68.42-.19.24-.33.42-.3,0,.27-.37.6-.71.86-.95,1.03-.75,1.59-.61,1.94-1.51-1.3.63-1.95.6-2.12.29.49-.45,1.13-.87,1.66-1.16-.05.14-.13.29-.19.44.69-.24.91-.31,1.1-.43.17-.11.21-.2.25-.3.08-.2.19-.44,1.04-.66.32.13.62.26.92.39-.09.32-.67.43-1.22.59-.54.15-1.05.36-.73.73,1.2-.37,1.41-.89,2.39-.96-.17.14-.44.25-.63.39.19-.04.46.2.82.31.18.05.39.08.6.01.2-.05.48-.23.54-.46.17-.4-.09-.31-.24-.62.08-.06.12-.14.14-.21.03-.06.04-.11.07-.17.04-.08.08-.15.12-.22.07-.13.14-.27.2-.43.13-.31.25-.55.46-.88.42.56,1.06-1.43.99-.13-.26.08-.63.51-.96.91-.16.2-.32.48-.44.65-.06.1-.12.2-.16.3-.03.08-.04.15-.04.23,0,.1,0,.19.04.3.35.22.22.31,0,.4-.16.06-.69.24-.7.66.6-.21.84-.12,1.08.06.24.17.44.42.66.58.18-.08.29-.25.35-.41.05-.14.09-.26.13-.36-.25-.43-.53-.12-.86-.48.18-.16.45-.41.64-.66.2-.28.37-.56.52-.83.28-.58.44-1.14.47-1.6.46-.3.79.1.5.62.86-1.57,1.89-3.25,2.91-4.72-1.25.61.83-1.81-.12-1.46-.63.74-1.52,1.18-1.56.55.34-.49.29.19.55.05,0-.87,1.18-.68.98-1.67-.66,1.63.65.77,1.01,1.35.33-1.25.35.26.97-.79.34-1.24.91-2.69,1.62-3.93.74-.57,1.42-1.47,2.13-2.38.71-.9,1.48-1.82,2.28-2.33.5-.13.69.05.87.2.19.16.33.25.81.15.53-.2.28-.31.08-.39-.2-.08-.31-.15.62-.32l-.13.19c.12-.11.39-.13.74-.14.34-.04.76.03,1.15.08.4.03.74.13,1.07.11.33-.02.6-.08.79-.28-.23.18-.46.37-.69.58.28.12.57.07.83.06-.06.24.18.55-.31.55.72.75,1.86.61,2.81,1.03l-.42-.68c1.77.42,2.61,1.38,4.14,2.09l-.26.35.99.29c-.42.24.22.93.85.92-.92-.16-1.84-.3-2.76-.42-.49-.58.94-.06.76-.66-.14-.52-1.58-1.17-1.99-.92.5.32.57.26,1.05.34-.12.62-.9.17-1.47.32.28.12.58.49.72.36-.67-.03-1.22-.27-2.11-.69.71.07-.17-.49.13-.54-.3.44-1.21.18-2.26-.38-.29-.41-.87-.54-1.47-.5-.31-.01-.62.04-.87.09-.25,0-.48.11-.74.08.28-.58.99-1.06,1.91-1.02-.41-.25-.66-.28-.91-.29-.25-.02-.49-.08-.97-.14-.2.21-.34.49-.49.82-.15.34-.37.55-.72.96l-.25-.31c-.36.33-.44.62-.54.94-.1.32-.27.53-.72.97-1.63,1.41-2.93,3.45-3.89,4.92l-.37-.15c.2,1.27-1.41,3.01-1.76,4.37-1.45,1.79-2.28,4.57-3.6,5.18-.23.34-.46.68-.68,1.02-.28.34-.55.67-.81.98-.52.58-1.34.99-1.92,1.26-.61.27-1.2.49-1.76.69-.56.2-1.1.39-1.58.59-.26.1-.45.2-.6.28-.16.09-.32.19-.45.32-.13.17-.31.33-.51.6-.19.28-.4.54-.6.85-.06-.29-.1-.54-.14-.83-.02.78-.53.19-.8.85.79-.46.04,1.12.17,1.73-1.17,1.4-1.55,3.81-1.69,5.45l-.39-.07c.09.9-.17,1.75-.53,2.63-.25.64-.5,1.29-.77,1.95-.27.67-.52,1.35-.73,2.04-.22.19-.63.28-.8,1.12.03,1.07-.01,1.88-.11,2.73-.11.86-.23,1.81-.41,3.18-.05.02-.15-.09-.26-.15-1.31-1.4-3.5-3.99-4.68-5.53-.31-.23-.62-.48-.93-.74l-.91-.74-.92-.78-.46-.4-.33-.27c-.87-.73-1.72-1.49-2.57-2.25-1.7-1.51-3.43-3.05-5.38-4.25l.03-.57c-2.04-.97-4.03-2.4-5.91-3.42-.45-.21-.9-.41-1.33-.62-.19-.05-.37-.1-.55-.15-.18-.06-.37-.13-.5-.12-.3-.03-.77,0-1.19.06-.44.07-.86.17-1.26.3l.19-.84c-1.15-.09-2.37.77-1.93,1.23-.27,0-.53.11-.8.21-.14.05-.25.12-.38.19-.13.07-.24.13-.27.16-.19.14-.32.23-.7.1-.44.21-.11.6.08.83.03.03.05.07.06.11-.06.18-.1.3-.07.51.02.31.16.61.24.9.26.58.58,1.14,1.21,1.91l-.23-.43c-.24-.09-.58.07-.33.52.54.52,1.6,2.41,1.81,1.2.49,1.03,1.53,1.93,2.59,2.78,1.06.86,2.16,1.67,2.86,2.68,0-.33.5,0,.8,0,1.68,1.26,3.26,2.95,4.95,3.5.22.29-.7.08.03.57.49.19.19-.28.81-.07,3.2,1.4,5.88,3.97,8.81,5.26,1.31.51,2.64,1.02,3.97,1.53,1.31.51,2.6.95,3.97,1.42,2.72.92,5.47,1.83,8.13,2.6l-.12.16c1.98-.15,3.96,1.97,5.7,1.34.37.3,1.59.56,1.17.81,1.57-.08,3.86,1.62,6.1,1.58-.18-.07-.3-.06-.55-.05,1.97,1,3.97.96,6.07,1.94-.25.02-.67-.04-.78.13.75.59,2.23-.21,2.46.8.49.13.47-.35.16-.4.57.2,1.24.42,1.75.57.22.07.44.11.67.15.26.04.62.09.92.13,1.28.16,2.57.29,3.88.4,2.61.19,5.25.38,7.85.57,3.64,1,.04,1.56,3.05,1.24.22.2.21-.33.23-.13,1.16-.12,1.64,1.23,2.49.84-.26-.6.56-.25.62-.59,2.22.62,2.63,1.17,4.46.94l-.17.28c2.18-.62,4.57.07,6.4-.75,2.9.2,5.53.26,8.31.08,2.76-.16,5.51-.45,8.23-.84,5.41-.8,10.79-1.93,15.55-3.77,1.61-.58,3.11-1.29,4.32-2.09.58-.41,1.13-.83,1.49-1.25.51-.58.31-.38.37-.46.01-.03,0-.06-.02-.08l-.03-.03c-.14-.13-.4-.41-.65-.62-.51-.45-1.1-.89-1.7-1.29-.59-.38-1.26-.74-1.69-.92-.13-.06-.13-.04-.19-.08-.11,0-.22-.01-.32-.03-.11-.02-.21-.04-.32-.06-.11-.03-.31,0-.47,0-.34.01-.64-.03-1.02,0l-1.16.11c-.78.08-1.63.23-2.46.36-.85.18-1.7.31-2.57.53-1.33-.04-2.05-.03-2.76.14-.71.16-1.41.46-2.71,1.08.07-.16.23-.24.01-.29.07.64-1.89.71-1.94,1.39-.86.28-1.71.58-2.54.89l-.69.26-1.09.44-2.18.89c-3.18,1.35-6.55,2.92-9.98,4.45.15-.9.31-1.88.47-2.88-.15,1.3.41,1.11.61-.32-.08-.34-.16-.71-.23-1.11l.26-.47c.06-.93-.1-1.9-.53-.54.42-2.77.74-5.48,1.05-8.22l.2-2.21.16-1.92c.11-1.28.17-2.53.21-3.74.02-1.17.02-2.41-.12-3.22-.01-.25-.08-.39-.06-.43.02-.03.02-.06.02-.08,0-.04.04,0-.13-.2-.15-.16-.33-.35-.54-.55l-1.5-1.39c-.29-.27-.58-.56-.91-.92-.15-.16-.37-.41-.56-.66-.2-.24-.37-.51-.54-.77-.16-.27-.29-.56-.43-.83l-.27-.75c-.16-.44-.29-.86-.37-1.24-.09-.39-.2-.79-.28-1.17l-.21-1.11c-.25-1.46-.43-2.85-.62-4.2-.05-2.6-.67-6.12-1.34-8.47-.16-1.75-.52-3.39-1-4.32l-.08-.19-.09-.11c-.06-.08-.05-.12-.08-.19-.11-.08-.18-.22-.36-.28-.06-.03-.1-.06-.16-.08l-.24-.06-.5-.13c-.39-.05-.75-.14-1.18-.16-3.36-.27-7.23.25-10.91,1.25l-.38.1-.74-.1c-.2-.03-.4-.05-.61-.08,0,0,.22-.22.73-.47h.89c.46-.62,1.52-1.54,3.49-2.08Z"/>
      <path class="cls-3" d="M172.04,60.63c-.06-.43-.78-1.08.09-1.04-.08.3.15.85-.09,1.04Z"/>
      <path class="cls-3" d="M150.65,62.22c.06.08-.3.25-.38.3.14-.29.06-.68.33-.82-.14.29.01.33.05.52Z"/>
      <path class="cls-3" d="M147.23,67.7c-.19-.23.3-1.49.68-2.21l-.68,2.21Z"/>
      <path class="cls-3" d="M143.64,70.62c-.19-.17-.21-.31-.17-.33.09.12.12.19.17.33Z"/>
      <path class="cls-3" d="M143.86,71.23c-.21.1-.52.04-.74-.06.05.11.25,0,.42-.08.17-.09.23-.09.31.14Z"/>
      <path class="cls-3" d="M132.67,80.9c-.1.32-.14,1.08-.55,1.27.33-.25.25-1.66.55-1.27Z"/>
      <path class="cls-3" d="M130.99,87.08c-.05.12-.04.04-.06.07-.01.01,0,.03.02.07-.14.02-.31-.15-.33-.19.11.03.22.09.36.04Z"/>
      <polygon class="cls-3" points="149.99 114.84 149.31 114.79 149.49 114.54 149.99 114.84"/>
      <path class="cls-3" d="M198.53,122.46c.69-.15.47.28.58.33-.62.01.24-.34-.58-.33Z"/>
      <polygon class="cls-3" points="224.81 117.88 224.61 117.94 224.52 117.36 224.81 117.88"/>
    </g>
  </g>
  <g>
    <path class="cls-4" d="M201.19,109.13s-8.25,7.45-35.99,1.79c-25.85-5.28-33.01-15.88-33.01-15.88"/>
    <g>
      <path class="cls-3" d="M201.7,110.07c.21-.33-.48-.25.05-.33.12.2.15.41-.05.33Z"/>
      <path class="cls-3" d="M132.2,96.22c.85-.13,1.2.21,1.51.64.33.4.61.89,1.29.84.13.03-.56.59-.24.61,1.46-.25,2.12,1.15,2.56,2.54l-.19.15c.09.26.74-.21.87.01-.08.13-.18.14-.26.34.31-.35.47.07.74-.16-.03.2-.23.5-.25.74l.4-.36c.99-.85.71.55,1.48.27-.08.09-.18.14-.2.27,1.07-.2,1.86.39,2.77.57-.12.15-.31.43-.37.63.3-.46.61-.45.87-.43-.17.55.59-.25.7.14l-.08.1c.46-.44.12.44.59-.12l-.09.45c.44-.67.08.5.41.21l.07-.15c.23-.1.13.29.32.24l-.03.09c.4-.04.39.45.65-.11-.11.5-.4.06-.54.8,1.3-.05,2.34.48,3.4.94.02.28.07.39,0,.62.15-.07.44.07.66-.19-.04,0-.05.32,0,.37.11.29.47-.56.58-.22-.15.12-.25.3-.31.53.36-.38.58-.22.86-.28-.07.09-.15.12-.21.31.44-.43.39.27.73.03l-.21.31c.18.54.36-.67.56-.32-.11.08-.13.22-.2.35.5-.51.86-.15,1.21-.25-.03.04-.06.13-.06.13.32.04.56.34.99.17.07.19-.32.82.04.8.22-.69.63-.11.71-.94.23.2.57.59.83.42-.21.22-.14.88-.38.87l.04.47c-.12.27-.15-.15-.21.22.12.01.54-.16.61-.01.35-.36.78-1.08,1.15-1.06-.24.22-.14.79-.29.87l.87-1.17c.12,0-.14.56.08.42.05-.19.15-.28.24-.41.02.09.52-.05.37.65-.03.28-.23.09-.17.37.21.05.29-.18.5-.13l-.02.09c.11.14.49-.18.45-.6-.09-.05-.08.42-.17.18.21-.37.48-.42.69-.37-.1.09-.14.28-.23.46.43-.46.77-.55,1.14-.69.09-.33-.28.56-.28.38.28.56,1-.42,1.16.34-.07.04.09-.47.07-.38.18.09.05.57.22.42-.06.28.18-.05.33-.09.12-.18,0,.14-.12.15.24-.19,1.07-.46,1.4.05.04-.19.42-.62.51-.58l-.14.43c.03.28.33.04.26.41.33-.48-.9.27-.53-.08-.01.38.55-.6.35-.03.2.03.5-.42.59.03-.04-.08-.29.57-.13.57.29-.01.13-.19.38-.28l.18-.15c.1-.42.23.11.24-.38-.04.36.45-.12.27.57l-.16.54c.13-.01.32-.54.47-.76,0,.06.01.17-.01.26.2-.84.27.13.55-.49.19.35.63.18.64.72.25-.22.48-.5.67-.27-.06.07-.13.08-.17.27.09.28.17.06.32-.06-.05.12.18.55.28.88.24-.22.26-.69.34-.97.02.87.65-.44.72.36-.09.1-.36.36-.24.6.02.87.47-.56.68-.1l.06-.71c.05.46.49-.33.33.38.14-.23.3.29.38-.4.37.66,1.19-.14,1.28,1.14.09-.1.24.04.26-.32-.05-.4-.2.25-.2-.02.06,0,.11-.19.13-.29.12.18.23.24,0,.79.26.47.52-1.11.89-.79-.06.28-.05.39.08.36l.3-.45c.25.15.06.67,0,1.15.16-.06.33-.01.44-.36l.09.63c-.06-.46.16-.27.24-.38l-.08.11c0,.21.18.1.27.06.02-.3-.13-.44-.21-.54.1-.2.21-.14.34-.37-.1.47.19.37.29.43.12.12.2-.4.24-.38-.03.25.21.07.06.4-.05.07-.07-.25-.17-.05.06.19,0,.62.21.33.16-.21.09-.94.3-.6-.08.11-.12.3-.19.46l.21.28.07-.43c.02.11,0,.15,0,.21.13-.44.38-.09.5-.59.13-.03.22.33.32.4l-.03.03c.11.28.32.13.47-.15l-.02.09c.07.04.26,0,.39-.25.16.34-.11,1.63.16,1.11.2,0,.39-.76.34-1.04.32.32.79-.34,1.05.36.07-.17.04-.28.16-.37.5.22,1.13-.41,1.47.48-.16.17-.04.43-.06.68.15-.38.12.42.21-.24.02-.39.04-.58-.09-.75.32-.18.79-.17.93.21-.07-.19,0-.3.07-.42-.06.62.16.73.35.52l.04-.38.09.4c.07-.12.11-.79.26-.42,0,.15,0,.3.03.41.19-.3.46-.82.64-.49l.14.56c.08-.06.23-.38.1-.55.31.35.53.4.62.89.6-1.13,1.4-1.21,2.05-1.12l-.02.29c.18.27.09-.5.21-.3-.05.27.14.59,0,.92.26.3.32-.5.48-.63.02-.37-.13.24-.1-.23.03-.13.35.29.38-.28.07.22.03.64,0,.87l.15-.27c.21.66-.41,1.18-.19,2l.14-.09c.15.59-.37.67,0,.87.16-.28.27-1.1.12-1.35.32-.16.12-1.35.46-1.31.1.33-.27.08-.19.55.18.46.32-.26.47-.11-.17-.2-.05-.78.04-.89.18.26-.09.54.16.59.03-.33.24-.59.04-.8.05-.75.26.19.37-.39.11.52-.19,1.22.09,1.46-.07-.5.3-.7.11-1.44.11.14.15.53.09.85.17.3.31-.94.42.06l.02-.52c.06.16.13.29.23.56.14,0,.38-.72.42.06.04-.08.34-.06.18-.59-.21-.32-.19.4-.34-.31.18.58.26-.09.35-.29l.04.3c.05-.12.21-.06.22-.39-.03.18,0,.38.07.44l.02-.46c.23-.26.13.79.37.63l-.16.37c.03-.08.16.33.27.18.02-.42.04-.93.05-1.25.12-.2.11.46.2.02l-.13.52c-.01.14.19.67.38.64.11-.16.22-.78,0-.98.09-.02.25.22.21.53.2-.17-.08-.44.07-.72.11.27.39.63.59,1.02l-.11.71h.13c-.1.57.14.4.12,1,.1.08.19-.13.26-.29-.39-.9.12-1.31-.08-2.15.31-.28.53,2.03.69.64-.09-.21-.03-.89-.21-.6.23.06,0-.88.31-.57-.13.38.35.82.16,1.38-.03-.29-.19-.19-.22-.1.14.31.12.86.35.82.12-.11.31-.16.21-.59-.09-.48-.2.09-.2-.42.24-.22.42.51.37-.36-.16.1-.29-.4-.34-.73l.15-.24.02.33c.35.18-.02-.6.29-.57l.26.61c.04.56-.48-.17-.26.71.21,0,.18-.46.41-.26-.03.08-.08.12-.1.2.07.02.39,1.19.53.44.09-.3-.03-.33-.1-.66.29-.18.3-.54.48-.63.11.65.36-.02.3.69-.19-.35-.62-.21-.6.44.28.74-.27-.04-.18.74.27-.03.41.72.56,1.21.08.02.11-.21.14-.3-.07-.47-.17-.44-.28-.92.32.06.54-.27.58-.76.15.21.24.67.13.75.31-.22.7-.23,1.05-.2-.41-.68.3-.29-.02-.86-.22-.12-.5-.61-.51-.97.11.02.09.33.18.48,0-.45.39.59.33-.09-.22.33.21.93.33,1.53.12-.4.11.42.34.35.13-.39.32-.73.52-.93.5.45.76-.28,1.01-.39.25.23.42.91.62.96.18-.08-.42-.63-.03-.45l.03.14c.01-.18.67.2.34-.73l.23.71c.08.04.05-.14.06-.23.1.22.26.39.24.57.39.38.32-.23.48-.34l-.31-.33c.13-.46.52-.18.73-.47l.21.38.03-.32c.18.38.48.51.37.16.05.38.09.79.1,1.18-.26-.15-.12-.53-.42-.85-.26-.28-.46-.04-.3.35.13-.02.09-.1.09-.28.33.5.16.57.27.97.05-.05.22.06.14-.11.03.32-.07.42-.25.54.02-.28-.24-.29-.27-.47.23.48.11.72-.2.7-.43-.47-.29.57-.65.55-.09-.55-.13-1.01-.05-1.28-.28-.17-.18.1-.46-.07.08.41.25.99.11,1.31l-.16-.36c-.13.27.08.81-.24.82-.54.01-1.02.16-1.39.22l-.13-.37c.05.87-.57.5-.74.95-.56-.25-.92.61-1.32,0-.74.51-1.43.9-2.31.92l.05-.59c-.08.44-.15-.31-.29-.2.24.42-.11.63-.17.99-.45-.37-.87.15-1.17.6l-.06-.39c-.26.78-.75.18-1.19.11-.07-.16-.18-.52-.3-.46-.17.67-.3.63-.61,1.04-.25.01-.67-.12-.94-.35-.89.96-1.89.44-2.86.97l-.08-.46c-.95.99-2.13.13-2.94.57l.1-.79c-.24-.26-.58.18-.54.75-.24-.25-.65.36-.79-.3-.25-.16-.34.35-.56.45-.51-.32-.7-.27-1.21-.14l.12.06c.07-.17.09-.51-.03-.56-.2.22-.65-.27-.54.69-.48-.6-1.26.33-1.7-.45.02.26-.11.3-.18.47-.46-.03-.89-.6-1.3-.2-.06-.14.16-.43-.02-.47-.12.09-.04.34-.19.47-.81.42-1.43-.69-2.12-.65-1.25.32-2.47-.08-3.61-.19l.04-.19c-.5.65-.76-.9-1.25.13-.06-.2-.33-.15-.2-.5-.39.45-.75-.63-1.3-.07.04.03.07,0,.13-.08-.36-.49-.85,0-1.24-.46.06-.07.16-.11.21-.3-.11-.39-.58.71-.5-.21-.1,0-.16.44-.1.42-.94-.55-2.12-.24-3.22-.27-.63-.7.31-1.51-.44-.98,0-.18-.12.33-.08.15-.29.2-.12-1.08-.39-.64-.07.56-.18.28-.26.61-.37-.46-.34-.96-.8-.65l.1-.28c-.62.7-1,.13-1.6.97-1.18-.25-2.38-.35-3.56-.55-1.18-.2-2.35-.41-3.51-.73-1.08-.5-2.2-.85-3.31-1.25-1.1-.42-2.19-.93-3.19-1.64-.19-.94-.23-.95-.92-.93.08-.1.12-.11.14-.24-.3.56-.42-.14-.74.38-.75-.51-1.58-.7-2.39-1.16.16.01.47-.41.3-.46l-.35.27.06-.17c-.15.03-.42.24-.41.48-.58-.17-1.11-.43-1.6-.75-.48-.35-.93-.75-1.36-1.15-.87-.81-1.66-1.72-2.64-2.35-.28-.56-1.06-.82-1.61-1.14-.43-.91-.81-1.77-1.28-2.53-.24-.39-.5-.74-.81-1.07-.33-.37-.63-.59-1.17-1.09,0,0,.1-.03.26-.08.16-.05.4-.09.63-.17.47-.14,1.02-.25,1.4-.11Z"/>
      <path class="cls-3" d="M201.42,110.35c-.24-.22-.5-.26-.61-.7.18.24.46.46.61.7Z"/>
      <path class="cls-3" d="M195.53,109.41c.02.09-.1-.1-.13-.15.05-.04.02-.31.11-.17-.05.04,0,.18.02.32Z"/>
      <path class="cls-3" d="M194.33,109.54c-.05-.28.14-.56.27-.62l-.27.62Z"/>
      <path class="cls-3" d="M192.99,108.66c-.14-.21-.14-.35-.02-.37.04.15.02.23.02.37Z"/>
      <path class="cls-3" d="M193.05,109.31c-.09.03-.17-.13-.24-.28.05.24.18-.19.24.28Z"/>
      <path class="cls-3" d="M190.55,108.9c-.05.03-.15.28-.24-.03.09.21.23-.39.24.03Z"/>
      <path class="cls-3" d="M189.48,109.46s-.06-.06-.09.02c-.08-.12-.03-.34.02-.37l.07.35Z"/>
      <polygon class="cls-3" points="168.12 109.28 168.27 109.16 168.21 109.44 168.12 109.28"/>
      <path class="cls-3" d="M158.81,107.18c-.17.14-.02-.28-.02-.33.12,0-.13.33.02.33Z"/>
      <polygon class="cls-3" points="153.45 107.04 153.49 107.04 153.29 107.59 153.45 107.04"/>
    </g>
  </g>
  <g>
    <path class="cls-1" d="M136.77,85.74l18.92-.05c10.15-.03,20.2,2.01,29.53,5.99l17.03,7.27c.75.32,1.18,1.13,1.03,1.93l-.9,4.68c-.06.33-.22.63-.44.87l-2.63,2.79c-.55.58-1.43.72-2.13.32l-16.16-9.09c-.08-.04-.16-.08-.25-.12-7.84-3.03-16.13-4.71-24.53-4.95l-19.46-.56c-.18,0-.37.02-.54.07h0c-1.03.3-2.09-.39-2.22-1.45l-.26-2.08c-.03-.27,0-.54.09-.8l1.29-3.65c.25-.7.9-1.16,1.64-1.16Z"/>
    <g>
      <path class="cls-2" d="M137.15,85.2c-.58.07.31.26-.38.12.08-.12.19-.21.38-.12Z"/>
      <path class="cls-2" d="M134.88,86.53c-.03.86-.19,1.59-.49,2.41-.15.39-.31.8-.46,1.2-.16.39-.33.84-.24,1.27.08.48.18.95.35,1.39.06.23-.42,0-.25.51.18.51.53,1.04,1.05,1.31.26.14.55.23.85.24.16.02.29-.06.47.01.17.02.33-.07.5-.09,1.33.04,2.71.33,3.91.58l-.15.11c.46.1,1.03-.28,1.51-.21,0,.08-.16.11-.05.22.13-.23.88-.08,1.09-.25.19.1.17.28.41.39l.29-.26c.79-.62,1.88.1,2.95-.2-.05.06-.16.11-.08.17,1.71-.34,3.83-.21,5.73-.29-.08.09-.15.26-.05.37.1-.28.69-.34,1.2-.38.22.3.88-.24,1.47-.06l-.05.06c.45-.29.65.19,1.02-.16l.27.24c.21-.4.63.24,1,.04v-.09c.34-.08.51.12.83.07l.03.05c.75-.06,1.17.19,1.18-.13.24.27-.73.07-.35.47,2.48-.18,5.01.18,7.45.59.26.17.43.24.47.37.25-.03.92.11,1.18-.01-.08,0,.13.19.25.23.42.2.55-.26,1.01-.01-.21.04-.3.13-.26.26.46-.16,1.01,0,1.51.03-.09.03-.21.04-.22.14.59-.15.95.29,1.46.22l-.22.14c.69.4.31-.32.93-.03-.17.02-.13.1-.18.17.69-.18,1.63.19,2.26.26-.04.01-.05.07-.05.07.66.14,1.31.45,2.06.53.23.16-.22.4.48.56.09-.36,1.2.23.93-.3.56.26,1.43.7,1.85.73-.31.04.12.53-.36.38l.28.34c-.11.12-.35-.19-.3.04.24.07.98.2,1.17.33.14-.02.29-.04.44-.05.4-.02.84-.03,1.33.21-.38-.05-.02.46-.27.39l1.27-.1c.23.11-.1.28.27.38.03-.1.2-.07.34-.08.06.08.96.44.88.81.03.18-.4-.13-.22.12.41.23.49.13.9.35l-.02.05c.24.2.87.31.68-.03-.18-.12-.04.23-.26-.02.29-.08.8.14,1.21.36-.17-.03-.2.07-.31.13.69.06,1.31.31,1.98.54.09-.15-.38.15-.43.02.67.65,1.79.61,2.27,1.29-.12-.03.06-.25.05-.2.37.23.23.44.52.5-.05.14.33.13.61.24.18-.02.03.1-.2,0,.41.09,1.94.69,2.65,1.33.03-.09.68-.03.86.08l-.19.16c.1.22.64.34.57.52.54-.02-1.66-.66-1.01-.54.05.25.93.11.66.31.38.21.87.19,1.13.57-.09-.09-.46.1-.15.26.56.27.21,0,.68.17l.32.07c.06-.09.18-.02.27.04.07.05.08.05.1-.08-.04.2.39.07.31.42-.03.1-.06.19-.1.29.19.02.31-.28.39-.42.02.03.07.08.07.13-.02-.23.05-.23.14-.25.09,0,.21-.05.17-.24.05,0,.1-.03.15-.06.03-.01.13-.1.23-.2.1-.09.19-.18.28-.26.18-.16.35-.28.51-.28.2-.4.35-.8.75-1.09-.04.1-.12.21-.07.29.31-.13.27-.27.41-.52,0,.05.16-.02.35-.12.22-.13.35-.13.5-.21.03-.32-.26-.32-.38-.41.13,0,.19-.06.19-.15.05-.35-.14-.96.21-1.24.03.16.09.65.27.32.5-.3-.17-.83.15-1.41l-.39.08c.27-.23-.03-.95.32-.81-.09-.23.26-.7-.1-.7.26-.61.3-.77.21-1.05-.08-.26-.21-.43-.2-.78-.06,0-.12-.03-.18-.04-.07-.01-.12,0-.14.09,0,.05.02.08.04.09.06.03.2-.1.17,0-.07-.02-.14.06-.17.1l-.03-.04s-.04-.06-.06-.08c-.04-.04-.06-.07-.07-.1-.02-.07.04-.12.21-.2-.56-.48-.91.27-1.69-.21.1-.12.05-.2-.2-.28l-.56.03c-.52-.28-.18-.44-.09-.67-.31-.08-.65-.25-.86-.13l-.23-.44c.17.32-.3.04-.46.04h.16c-.01-.12-.37-.2-.55-.24-.02.16.29.36.46.48-.19.04-.41-.08-.66-.05.16-.2-.4-.36-.62-.48-.24-.16-.38.08-.46.03.04-.12-.42-.2-.15-.28.11,0,.16.2.35.16-.14-.16-.03-.36-.45-.36-.32,0-.12.47-.57.11.16,0,.22-.08.36-.11l-.43-.32-.11.2c-.04-.08,0-.08,0-.12-.24.15-.76-.25-.97-.05-.25-.08-.45-.36-.67-.48h.05c-.23-.24-.64-.32-.94-.28l.03-.04c-.15-.08-.53-.21-.77-.17-.33-.32.2-.83-.34-.76-.4-.16-.78.11-.68.31-.65-.44-1.61-.45-2.13-1.05-.14.04-.1.12-.33.08-1.01-.53-2.31-.7-2.97-1.46.34.04.11-.2.15-.32-.33.08-.22-.32-.44-.04-.05.2-.12.28.15.48-.67-.17-1.59-.54-1.87-.86.14.16-.02.16-.18.16.17-.28-.28-.5-.67-.53l-.12.16-.15-.27c-.16,0-.29.33-.57.02,0-.08.02-.16-.03-.23-.42.01-1.02.09-1.36-.2l-.23-.38c-.18-.03-.52.03-.25.22-.62-.39-1.05-.55-1.19-.86-1.35.19-3.05-.27-4.42-.67l.08-.13c-.34-.22-.26.2-.49.04.15-.11-.21-.36.12-.46-.5-.28-.75.08-1.11.06-.1.17.31-.05.18.17-.07.05-.7-.32-.85-.05-.11-.14.04-.33.14-.43l-.36.07c-.33-.42,1.05-.39.72-.89l-.32-.02c-.23-.36.89-.16.14-.43-.37.07-.74.42-.47.61-.71-.07-.47.61-1.2.43-.17-.21.6.09.51-.18-.3-.31-.72-.02-1.02-.16.32.17-.03.41-.26.42-.35-.21.3-.22-.23-.35-.12.15-.63.18-.23.37-.26.34-.53-.21-.87.03-.13-.29.66-.51.09-.75.05.27-.78.23-.54.66-.22-.11-.21-.32-.01-.44-.3-.21-.87.33-.9-.19l-.15.24c-.09-.1-.23-.19-.37-.35-.29-.04-.99.22-.91-.17-.1.03-.76-.08-.54.23.39.22.5-.13.68.27-.25-.34-.6-.04-.85.03l-.02-.16c-.15.04-.47-.03-.58.13.12-.08.07-.19-.03-.24l-.18.22c-.59.05-.09-.42-.66-.42l.45-.13c-.1.03-.27-.21-.54-.17-.13.2-.35.43-.45.59-.32.07-.12-.25-.45-.06l.43-.22c.07-.06-.24-.38-.67-.41-.28.05-.72.32-.31.48-.21-.02-.5-.17-.32-.31-.49.03.04.23-.38.33-.16-.15-.67-.39-.98-.61l.46-.33-.29-.02c.4-.26-.18-.23.05-.52-.2-.06-.45.03-.64.1.56.52-.69.62-.54,1.08-.79.09-.45-1.09-1.31-.43.13.12-.27.44.24.33-.49-.06-.35.43-.92.23.43-.18-.45-.45.18-.71-.05.14.35.12.44.08-.2-.18.05-.44-.46-.46-.31.04-.74.04-.68.27,0,.25.47-.02.27.23-.62.08-.72-.3-.97.14.39-.03.48.23.47.4l-.45.1.09-.17c-.72-.13-.2.3-.92.26l-.34-.33c.17-.29,1.04.13.91-.34-.46-.02-.62.22-1.05.1.1-.04.23-.05.33-.09-.17-.02-.33-.63-1-.27-.34.14-.09.17-.1.34-.75.06-.97.23-1.45.26.1-.34-.85-.03-.32-.38.25.2,1.33.18,1.59-.15-.27-.4.59.05.75-.35-.6,0-.57-.4-.67-.66-.17-.02-.33.09-.43.13-.07.25.15.24.16.49-.67-.06-1.31.07-1.68.31-.22-.12-.15-.36.11-.39-.8.07-1.65.04-2.4-.03.49.4-.84.1-.51.43.41.09.75.37.53.55-.25-.03,0-.17-.1-.26-.32.22-.5-.35-.82,0,.73-.13.14-.49.27-.8-.52.18.02-.22-.5-.22-.52.18-1.16.31-1.74.38-.73-.29-1.85,0-2.5.01-.34-.16-.11-.51-.48-.57-.43,0,.32.38-.32.22l.06-.07c-.19.08-1.18-.24-1.37.27l.2-.38c-.12-.03-.23.05-.33.09,0-.12-.15-.24.05-.32-.4-.26-.83.04-1.26.06l.28.23c-.74.18-1.23-.04-1.94.04l.02-.22-.42.13c.1-.21-.29-.35-.51-.17l1.1-.55c.31.13-.33.27-.14.49.16.19.82.13.93-.09-.25-.02-.27.02-.46.11-.08-.31.3-.3.49-.5-.13.01-.32-.08-.35.02.26-.15.52-.18.96-.18-.29.12.16.19.05.28.03-.27.45-.36.98-.28.38.31,1.01-.2,1.63-.12-.25.28-.57.5-.95.61.39.14.43,0,.82.13.19-.21.32-.52.83-.65l.03.2c.46-.1.46-.41,1.05-.35,1,.1,2.04.09,2.8.12l.03.2c.42-.43,1.42-.16,1.99-.36.98.19,2.12-.2,2.62.15,1.72-.16,3.23-.33,5.04-.22l-.31.29c.33-.21.21.18.52.14-.36-.25.45-.29.68-.46.79.25,1.83.07,2.56-.09v.2c.76-.32,1.6.08,2.48.23.09.1.24.3.5.31.52-.27.77-.23,1.51-.33.52.08,1.35.26,1.85.48,2.02-.16,3.95.53,6,.73l.09.27c2.06-.04,4.3,1.09,5.98,1.38l-.28.34c.47.28,1.18.28,1.15-.04.46.3,1.33.26,1.53.69.49.26.69.06,1.14.17.97.53,1.35.66,2.34.98l-.23-.12c-.14.04-.22.2.01.32.41.04,1.24.64,1.09.05.88.68,2.41.78,3.23,1.54-.03-.16.22-.08.36-.12.87.37,1.68,1.01,2.47,1.1.11.12-.31.11.04.28.23.04.07-.16.36-.12,1.51.37,2.76,1.46,4.07,1.95,1,.31,1.98.69,2.96,1.09,1.01.43,2.01.86,2.99,1.27.66.28,1.21.74,1.58,1.31h-.11c.55.48.71,1.38.56,2.14-.03.19-.09.38-.13.56-.05.21-.06.24-.08.36-.02.2,0,.4.11.58-.13.17-.18.7-.34.53.14.67-.58,1.7-.42,2.66.03-.08.01-.13,0-.24-.08.19-.12.29-.18.54-.13.59-.38,1.15-.78,1.61l-.23.25-.19.2c-.13.13-.28.26-.44.37.04-.1.14-.25.09-.34-.39.15-.31.93-.8.76-.14.16.07.27.15.17-.21.19-.41.38-.62.58l-.3.31-.37.39c-.88,1-2.4,1.39-3.7.85-.82-.39-1.64-.79-2.46-1.18-1.25-1.03.3-.74-.97-1.05-.05-.13-.15.12-.12.03-.49-.12-.4-.83-.82-.78-.02.32-.28.03-.37.18-.76-.64-.8-.97-1.58-1.15l.13-.1c-1-.07-1.8-.78-2.7-.72-2.59-1.4-5.17-2.71-7.7-4.02l-2.48-.81c-.91-.29-1.83-.57-2.75-.83-4.44-1.44-8.97-2.11-13.65-2.85-1.07-.5-1.16-.5-2.39-.42.05-.06.13-.07.05-.14-.08.32-.86-.02-1,.28-1.73-.14-3.42-.09-5.27-.14.29-.03.45-.29.1-.28l-.37.2-.06-.09c-.24.04-.5.2-.26.31-4.66.15-9.22-.64-13.78-.69-.27-.04-.57-.07-.88-.08-.16,0-.32-.01-.48-.02-.13,0-.09.01-.14.02.06-.02-.29.1-.63.14-.34.04-.69.03-1.02-.02-.67-.11-1.28-.41-1.74-.8-.42-.42-.72-.93-.89-1.47-.08-.27-.13-.55-.15-.81v-.42c-.01-.57-.01-1.06-.04-1.67-.04-.48.03-.96.2-1.4l.36-.85c.22-.52.43-1.04.63-1.57l.29-.8.14-.41c.05-.16.17-.45.3-.65.52-.88,1.5-1.5,2.59-1.55,0,0-.23.19-.64.53-.39.34-.93.85-1.25,1.69Z"/>
      <path class="cls-2" d="M137.85,85.16c.12.16.53.25.21.47-.04-.15-.25-.33-.21-.47Z"/>
      <path class="cls-2" d="M148.68,86.82s.15.07.19.09c-.13.01-.26.15-.36.07.14-.01.11-.09.18-.16Z"/>
      <path class="cls-2" d="M151.45,86.91c-.04.15-.63.26-.98.28l.98-.28Z"/>
      <path class="cls-2" d="M154.03,87.5c.22.12.16.19-.14.19-.02-.08.08-.12.14-.19Z"/>
      <path class="cls-2" d="M154.21,87.17c.21,0,.32.08.43.16,0-.12-.5.08-.43-.16Z"/>
      <path class="cls-2" d="M159.71,87.69c.13,0,.42-.11.53.06-.13-.12-.65.15-.53-.06Z"/>
      <path class="cls-2" d="M162.26,87.65c.08.02.11.05.21.01.14.08-.02.17-.15.18l-.06-.19Z"/>
      <polygon class="cls-2" points="201.65 103.5 201.64 103.21 201.77 103.28 201.65 103.5"/>
      <path class="cls-2" d="M187.48,102.83c-.29-.06-.1-.22-.13-.26.23.11-.17.11.13.26Z"/>
      <polygon class="cls-2" points="177 98.61 177.08 98.63 176.96 98.9 177 98.61"/>
    </g>
  </g>
</svg>