<?xml version="1.0" encoding="UTF-8"?>
<svg id="Layer_3" data-name="Layer 3" xmlns="http://www.w3.org/2000/svg" viewBox="0 0 300 300">
  <defs>
    <style>
      .cls-1 {
        fill: #ff9b9b;
      }

      .cls-2 {
        fill: #ff9c9c;
      }

      .cls-3 {
        fill: #202020;
      }

      .cls-4 {
        fill: #212121;
      }
    </style>
  </defs>
  <g>
    <g>
      <path class="cls-4" d="M185.87,150.47c0,21.51-18.49,38.94-41.3,38.94s-41.3-17.43-41.3-38.94h82.6Z"/>
      <g>
        <path class="cls-3" d="M187.31,150.99c-.14-.79-.71.42-.28-.52.31.11.55.26.28.52Z"/>
        <path class="cls-3" d="M183.33,149.46c-2.46,2.06-5.71-.02-8.41,1.29-.32.09.08-1.13-.63-.86-2.62,1.6-6.74.64-9.93-.59l.19-.32c-.61-.23-1.35.82-1.99.68,0-.21.21-.3.06-.59-.16.64-1.16.29-1.44.77-.25-.25-.23-.76-.56-1.03l-.37.73c-1.02,1.73-2.49-.12-3.88.77.07-.17.21-.3.09-.46-2.24,1.05-5.05.85-7.56,1.24.1-.26.19-.73.05-1.01-.12.77-.9.96-1.57,1.11-.3-.79-1.15.72-1.94.28l.07-.18c-.58.82-.86-.47-1.34.51l-.37-.62c-.26,1.11-.84-.57-1.32-.01l.02.23c-.45.27-.69-.29-1.11-.1l-.04-.13c-.99.29-1.56-.32-1.54.54-.35-.69.96-.31.41-1.32-3.24.89-6.59.72-9.86.73-.37-.35-.61-.45-.69-.78-.33.17-1.23.16-1.53.6.11-.02-.21-.44-.38-.49-.59-.33-.65.95-1.3.56.26-.23.35-.51.26-.83-.56.67-1.3.57-1.96.79.1-.15.26-.23.24-.5-.72.77-1.31-.16-1.94.32l.24-.5c-1.02-.61-.3,1.04-1.18.69.21-.16.14-.35.17-.56-.82.91-2.14.61-2.96.92.05-.07.04-.2.04-.2-.89.11-1.82-.17-2.8.23-.36-.22.12-1.22-.83-1.04.03,1-1.6.41-1.04,1.55-.8-.16-2.08-.54-2.61-.2.36-.38-.39-1.23.28-1.31l-.51-.61c.07-.41.52.14.36-.38-.34.04-1.31.44-1.61.27-.31.31-.61.75-.95,1.13-.33.38-.61.7-1.01.76.34-.39-.49-1.11-.23-1.28-.35.64-.54,1.28-.58,1.92-.21.05-.43-.79-.68-.53.16.27.09.43.12.64-.18-.11-.72.25-1.7-.74-.47-.39.29-.21-.33-.56-.56.01-.26.35-.77.36l-.15-.13c-.06-.02-.12-.03-.17-.02-.02,0-.05,0-.07.01l.03.1c.05.15.14.33.25.5.22.34.53.64.82.73.02-.17-.65-.47-.35-.52.64.78.84,1.35.87,1.74-.18-.25-.47-.42-.77-.69.88,1.18,1.15,1.77,1.54,2.36.5.16-.93-.45-.67-.47-.33.26.02.77.26,1.11.13.17.24.32.27.47.03.14-.03.28-.22.59-.11-.13.64-.21.51-.17.03.53-.65.65-.33.94-.38.12.24.4.45.71.33.11-.16.14-.29-.16.23.2.63.75.93,1.39.3.64.49,1.39.46,2.01.24-.1,1.17.32,1.23.57l-.61.13c-.26.36.37.8-.11,1.04.9.25-1.39-1.81-.57-1.3-.41.37,1.3.64.46.79.22.49,1.04.69.69,1.4.04-.18-.94-.06-.74.33.44.64.37.08.83.54l.4.23c.55-.24.23.63.71.09-.4.31.76.82-.15,1.22l-.74.28c.2.27.97.09,1.39.14-.05.07-.14.23-.26.28,1.04-.54.33.71,1.33.56.01.79.89,1.45.45,2.15.57.25,1.23.34,1.39.96-.16-.02-.29-.13-.52,0-.05.51.26.39.63.54-.19.05-.08,1.03-.14,1.64.61.19.98-.38,1.32-.6-.62,1.18,1.57.55,1.17,1.72-.24-.01-.96-.15-.87.37-.51,1.18,1.31.1,1.44,1.06l.56-.84c-.1.34.2.44.42.54.24.08.4.16.03.51.44-.1.48.83,1.05.06.21.71.87,1.12,1.41,1.57.55.44,1.03.86.84,1.79.24-.02.52.37.73-.08.06-.61-.57.07-.45-.29.15.07.33-.12.42-.22.19.4.41.64-.35,1.08.41,1,1.64-.79,2.37.09-.25.31-.26.48.06.59l.88-.28c.54.49-.1.99-.42,1.58.4.09.8.37,1.2.01l.02.99c-.01-.72.46-.18.71-.27l-.24.07c-.06.28.43.32.68.33.13-.4-.21-.74-.38-.95.31-.18.56,0,.95-.2-.37.56.37.68.62.87.26.28.6-.38.69-.31-.13.32.5.29.06.62-.15.05-.11-.42-.42-.23.11.33-.16.86.46.67.46-.15.43-1.24.88-.57-.23.08-.36.31-.58.47l.46.59.25-.55c.02.18-.05.2-.04.29.41-.52,1,.14,1.39-.48.32.05.5.61.77.78l-.07.03c.24.46.8.4,1.22.12l-.05.12c.18.12.67.18,1.02-.11.38.56-.43,2.23.34,1.64.54.11,1.08-.87.97-1.3.84.61,2.05-.05,2.76.95.17-.22.12-.38.41-.48.66.21,1.41.14,2.1.18.69.06,1.33.08,1.85.72-.42.23-.07.6-.08.94.37-.52.38.58.55-.34,0-.54.04-.81-.34-1.04.84-.26,2.06-.17,2.53.32-.23-.24-.05-.42.12-.59-.06.87.57.97,1.02.64l.05-.53.32.53c.17-.18.14-1.12.62-.63.04.2.07.41.17.55.46-.47,1.05-1.18,1.59-.82l.5.71c.21-.12.52-.63.11-.8.92.34,1.49.31,1.88.93.32-.46.68-.81,1.07-1.12.39-.34.8-.6,1.24-.81.86-.45,1.82-.58,2.64-.83l.07.4c.55.2.02-.74.41-.58-.03.41.59.66.38,1.22.78.17.61-.94.96-1.25-.11-.51-.22.43-.36-.22,0-.2,1.01.08.83-.69.27.23.35.82.38,1.14l.25-.49c.83.69-.51,1.91.39,2.79l.34-.25c.67.64-.7,1.22.38,1.15.3-.5.2-1.71-.28-1.88.74-.56-.33-1.9.53-2.23.42.32-.63.41-.22.93.65.4.67-.69,1.11-.65-.52-.09-.51-.97-.33-1.21.58.14.04.8.68.6-.09-.46.3-1.01-.31-1.08-.24-1.02.75,0,.69-.89.53.54.17,1.81.98,1.78-.42-.57.34-1.29-.48-2.01.33.04.63.5.65.98.57.17.22-1.6,1.03-.46l-.24-.69c.23.14.47.2.85.43.33-.17.49-1.38,1.03-.48.03-.16.73-.59.06-1.03-.66-.09-.17.8-.95.1.74.5.53-.5.61-.89l.27.32c.05-.23.42-.38.25-.81.03.27.25.46.42.47l-.22-.62c.37-.65.78.81,1.23.27l-.13.69c.03-.15.57.19.73-.16-.24-.54-.47-1.22-.66-1.64.14-.43.53.41.45-.3l.06.86c.06.2.84.54,1.23.18.13-.38-.03-1.34-.62-1.25.18-.17.68-.13.8.32.31-.53-.46-.42-.32-1.02.4.16,1.25.16,1.93.31l.24,1.06.28-.23c.16.88.59.28.93,1.05.29-.07.33-.48.35-.82-1.41-.42-.68-1.88-1.67-2.57.41-.9,2.5,1.59,1.85-.43-.34-.09-.68-1.05-.85-.38.51-.34-.61-1.09.24-1.25,0,.7,1.3.4,1.3,1.41-.26-.3-.52.1-.52.27.51.13.85.85,1.29.39.2-.34.48-.8-.03-1.14-.53-.43-.3.51-.68-.14.28-.74,1.16-.18.42-1.19-.22.43-.83.07-1.18-.24l.11-.59.29.37c.78-.46-.49-.71.11-1.27l.95.24c.49.62-1.02.73.06,1.4.39-.4,0-.93.57-1.14.01.15-.06.3-.04.45.14-.13,1.65.72,1.32-.52-.09-.57-.31-.35-.69-.63.36-.83.1-1.3.33-1.81.71.59.62-.79,1.08.23-.62-.03-1.25,1.04-.7,1.81,1.06.34-.49.52.26,1.3.47-.57,1.29.05,1.95.35.16-.15.03-.5,0-.67-.5-.44-.64-.21-1.21-.58.6-.6.72-1.48.42-2.18.43-.06.95.35.82.66.09-.23.2-.46.33-.68.11-.23.22-.46.34-.68.25-.44.54-.85.84-1.22-1.24.05.25-1.04-.75-1.06-.44.34-1.32.35-1.63-.1.2-.23.42.22.68.21-.36-.59,1.12-.12.46-.85-.08.91,1.11.71,1.81,1.21-.13-.79.53.28.83-.31-.18-.81-.24-1.7-.15-2.44.53-.28.77-.82.85-1.39.05-.58,0-1.17.09-1.56.52-.3,1.37.23,1.66-.18.13-.54-1.11.14-.47-.54l.16.12c-.14-.28,1.03-1.33-.31-1.84l.98.45c.12-.13-.09-.32-.18-.47.33.06.66-.06.84.23.78-.38.06-1.11.12-1.66l-.66.26c-.35-1.01.44-1.54.24-2.49l.6.08-.33-.58c.57.18.97-.31.5-.63.46.51.92,1.04,1.38,1.58-.37.38-.7-.52-1.3-.31-.26.08-.36.34-.33.61,0,.26.15.53.43.64.12-.32,0-.35-.19-.63.85-.02.74.48,1.25.8,0-.18.29-.41.03-.47.35.39.35.76.28,1.35-.26-.44-.55.14-.76-.05.72.15.85.76.53,1.45-.46.18-.38.54-.23.97.15.42.29.9.07,1.29-.64-.52-1.07-1.06-1.29-1.62-.45.43-.12.56-.61.98.47.37,1.25.75,1.39,1.51l-.54-.11c.1.68.88.91.52,1.66-.66,1.26-1.24,2.56-1.67,3.52l-.52-.18c.91,1.03-.45,1.93-.33,2.88-.55.48-.75,1.21-1.01,1.81-.28.59-.58,1.09-1.16,1.13-.47,1.11-.87,2.2-1.51,3.14-.3.49-.62.96-.97,1.43-.35.47-.72.94-1.21,1.34l-.31-.83c.13.71-.54-.1-.75.28.81.07.2.99.33,1.55-.61.19-1.03.65-1.35,1.21-.32.56-.6,1.15-.78,1.7l-.39-.39c-.04.71-.45,1.1-.96,1.39-.52.29-1.14.48-1.71.76-.25-.1-.74-.38-1-.13-.03,1.1-.35,1.26-.87,2.29-.58.46-1.77.8-2.56.89-.44.61-.95,1.11-1.5,1.56-.57.41-1.2.72-1.83,1.04-.63.32-1.28.62-1.91.96-.65.31-1.3.61-1.92,1.03l-.41-.54c-.54.55-1.19.97-1.89,1.29-.71.26-1.46.44-2.21.6-.74.15-1.47.3-2.16.44-.7.11-1.34.26-1.91.52l.06-1.12c-.77-.23-1.62.53-1.35,1.27-.39-.12-.84.1-1.27.19-.43.08-.84.1-1.11-.34-.78-.17-.91.55-1.55.73-.78-.17-1.31-.23-1.83-.21-.52-.03-1.03.03-1.76.1l.36.09c.17-.23.19-.7-.16-.79-.55.28-1.96-.39-1.5.95-1.49-.76-3.73.21-5.09-1,.07.37-.33.39-.53.6-1.38-.22-2.6-1.33-3.83-.99-.17-.23.5-.51-.04-.68-.36.05-.13.45-.58.55-1.18.03-2.21-.56-3.18-1.13-.48-.29-.95-.59-1.42-.87-.45-.31-.91-.57-1.39-.74-.89-.22-1.77-.49-2.63-.83-.83-.39-1.65-.83-2.45-1.28l-1.19-.69c-.39-.24-.75-.52-1.12-.78-.74-.52-1.46-1.04-2.19-1.52l.19-.19c-.8.08-1.14-.61-1.52-1.17-.37-.58-.75-1.07-1.61-.81-.04-.37-.72-.78-.22-1.02-1.18-.13-1.33-2.32-2.91-2.65.07.11.16.12.34.15-.27-.67-.71-1.12-1.15-1.59-.45-.46-.91-.94-1.14-1.66.18.04.41.2.64.07.07-.72-1.7-.35-.85-1.34-.18-.25-.64.18-.51.32-.63-1.46-1.62-2.71-2.55-4.06-.46-.68-.93-1.36-1.4-2.05-.23-.35-.48-.69-.69-1.04l-.57-1.1c-.14-2.47,1.94-.91.4-2.27.18-.22-.5.06-.26-.05-.61-.55.98-1.47.22-1.73-.69.42-.5-.18-.96-.06.11-1.52.73-1.93-.14-2.86h.42c-.38-.25-.6-.55-.78-.86-.09-.16-.17-.32-.24-.48-.08-.25-.16-.49-.24-.73-.32-1.01-.7-2.01-1.4-2.97-.12-1.45-.24-2.89-.36-4.32l-.19-2.2-.1-1.11c0-.34-.22-.89.28-.76,2.72-.21,5.45-.47,8.49-.55l2.25-.09.5-.02.3-.02.6-.04,2.39-.16c1.6-.1,3.19-.17,4.79-.21,6.34.26,12.54-.35,18.98.36,1.51,1.08,1.62,1.05,3.28.61-.07.18-.17.21-.06.38.08-.88,1.17-.08,1.32-.93,2.38.17,4.57-.08,7.02-.08-.39.09-.58.82-.12.76l.48-.57.08.25c.31-.13.66-.57.33-.85,6.15-.77,12.2,1.01,18.22.79,1.43.37,3.47.03,5.02-.15,4.61,1.18,8.76,2.14,13.44,1.31,0,0-.61,2.29-2.54,2.82Z"/>
        <path class="cls-3" d="M187.34,151.95c-.45.16-.72.69-1.29.23.42-.03.9-.3,1.29-.23Z"/>
        <path class="cls-3" d="M179.83,164.49c.11.07-.25.09-.34.1.04-.16-.22-.44.03-.47-.02.17.17.22.3.37Z"/>
        <path class="cls-3" d="M178.07,167.36c-.32-.24-.27-1.02-.13-1.41l.13,1.41Z"/>
        <path class="cls-3" d="M175.05,169.05c-.41.03-.52-.14-.33-.42.19.1.21.25.33.42Z"/>
        <path class="cls-3" d="M175.67,169.75c-.12.22-.41.18-.66.14.29.2.18-.59.66-.14Z"/>
        <path class="cls-3" d="M170.54,173.95c-.08.13-.09.62-.51.39.35.13.18-.89.51-.39Z"/>
        <path class="cls-3" d="M168.66,176.4c-.09.04-.17.01-.18.18-.25-.02-.29-.37-.2-.5l.38.33Z"/>
        <polygon class="cls-3" points="116.55 174.96 116.92 175.07 116.61 175.31 116.55 174.96"/>
        <path class="cls-3" d="M106.57,154.49c-.28-.35.39.12.46.13.05.17-.53-.39-.46-.13Z"/>
        <polygon class="cls-3" points="115.89 151.45 115.78 151.46 115.82 150.65 115.89 151.45"/>
      </g>
    </g>
    <g>
      <path class="cls-2" d="M168.74,183.8c-24.14-32.51-52.72-4.21-52.72-4.21l4.34,5.49,10.6,3.45,13.66,3.7,12.26-2.68,11.23-4.6"/>
      <g>
        <path class="cls-1" d="M167.7,184.23c.37.25.27-.49.36.08-.22.09-.42.14-.36-.08Z"/>
        <path class="cls-1" d="M166.48,184.8c-.71,1.94-3,1.21-4.05,2.69-.14.13-.27-.79-.57-.45-.46.82-1.29,1.29-2.25,1.54-.48.12-1,.19-1.52.22-.5.02-1.1.04-1.48-.05h-.05s0-.13,0-.13v-.14s-.03,0-.04,0c-.21-.02-.49.75-.84.72-.04-.15.07-.24-.06-.43.01.48-.6.35-.67.73-.18-.15-.25-.52-.47-.68l-.09.57c-.29,1.37-1.4.21-2.03,1.03.01-.13.07-.24-.02-.35-1.08,1.03-2.66,1.23-3.99,1.81.01-.2,0-.55-.14-.74.05.57-.35.8-.69.99-.29-.53-.52.66-1.03.44v-.13c-.18.67-.54-.24-.65.53-.12-.13-.23-.26-.33-.4-.01.42-.18.35-.34.23-.17-.12-.33-.3-.48-.06v.17s-.08.07-.12.08c-.22-.03-.34-.34-.57-.29v-.1c-.69.04-.86-.48-1.02.14-.05-.54.58-.08.48-.88-1.95.16-3.75-.46-5.54-.94-.13-.3-.24-.41-.22-.66-.21.08-.7-.07-.96.2.06,0-.03-.35-.11-.4-.26-.32-.55.58-.83.21.19-.13.29-.31.31-.55-.44.4-.83.21-1.23.27.09-.09.19-.13.23-.32-.55.44-.68-.31-1.13-.06l.23-.32c-.43-.58-.38.7-.79.31.15-.08.15-.23.21-.37-.64.52-1.3.11-1.81.21.04-.04.06-.14.06-.14-.51-.06-.97-.37-1.57-.27-.14-.22.32-.84-.22-.88-.19.72-.95.01-.89.91-.4-.26-1.01-.75-1.37-.6.28-.21.05-.94.43-.88l-.14-.52c.13-.28.25.19.28-.2-.19-.03-.8.08-.93-.09-.47.33-1.03,1.04-1.6.95.34-.19.1-.83.31-.89l-1.18,1.11c-.19-.03.14-.57-.18-.47-.05.19-.2.27-.32.4-.04-.1-.81-.07-.66-.79,0-.3.34-.05.22-.36-.34-.1-.43.13-.76.03l.02-.1c-.19-.17-.74.09-.63.55.15.07.08-.44.24-.16-.28.35-.71.34-1.05.24.15-.08.2-.27.31-.45-.67.39-1.03.46-1.95.41-.15.32.52-.49.54-.29-.37-.4-.93-.34-1.5-.38-.34-.22-.66-.52-.65-1.03.12.05-.31.41-.24.33-.26-.41.13-.72-.18-.82.22-.2-.24-.15-.44-.26-.24.05.08-.13.22,0-.19-.04-.57-.23-.9-.51l-.13-.11-.17-.18c-.11-.12-.21-.25-.31-.38-.19-.26-.33-.53-.39-.77-.16.11-1.1-.23-1.24-.45l.53-.07c.15-.25-.55-.62-.13-.74-.45-.14-.04.22.38.54.42.31.81.57.41.4.29-.25-1.32-.5-.59-.57-.3-.34-1.13-.63-.9-1.05,0,.12.93.2.7-.07-.45-.47-.35-.11-.83-.51l-.42-.26c-.56-.03-.27-.47-.75-.3.21-.02,0-.22-.15-.41-.01-.02-.05-.05-.04-.07l.07-.05s.1-.06.16-.09c.12-.04.28-.06.5-.01l.68.15c.12-.18-.46-.4-.61-.62.09-.01.29-.04.39,0-1.02-.26.57-.43.05-.89.78-.31,1.23-1.09,1.95-.98.1-.43.2-.93.78-1.16-.02.13-.12.24,0,.38.46-.04.33-.24.48-.54.02.15.93-.06,1.26.09.1-.41-.27-.73-.42-.98.76.53.43-1.01,1.21-.59-.02.17-.14.63.21.65.74.54.12-.88.77-.81l-.51-.54c.43.25.36-.76.73-.11-.01-.31.62-.11.18-.68.99.07,1.49-1.36,2.56-.51.04-.16.35-.2.11-.49-.36-.25-.09.38-.28.18.08-.07,0-.25-.04-.34.3.01.49-.04.58.59.69.11-.09-1.33.67-1.43.11.27.21.35.37.21l.11-.63c.47-.11.54.48.78.92.18-.18.46-.29.39-.67l.54.43c-.39-.31.05-.36.1-.52l-.05.16c.13.17.33-.07.43-.19-.16-.27-.47-.25-.65-.26.02-.25.22-.29.26-.6.16.46.51.15.71.12.25,0,.05-.5.12-.51.11.23.35-.11.34.29-.04.1-.26-.16-.29.1.21.11.37.52.52.11.12-.31-.44-.86.09-.76-.06.16,0,.35-.01.54l.47.07-.16-.42c.09.08.07.13.12.18-.07-.49.53-.36.42-.89.18-.12.53.13.73.1l-.02.05c.32.16.56-.12.65-.47l.02.1c.13-.02.41-.18.49-.48.43.21.64,1.56.82.91.31-.12.26-.94.04-1.17.67.08,1.16-.79,1.9-.27.04-.2-.04-.29.11-.44.91-.09,1.81-.93,2.68-.23-.23.24.06.44.11.69.14-.43.32.36.28-.33-.09-.39-.1-.6-.38-.7.5-.31,1.36-.41,1.7-.08-.17-.17-.07-.3.03-.44.04.64.45.69.73.42v-.39s.24.39.24.39c.11-.13.06-.83.4-.47.03.15.06.3.12.41.29-.34.72-.91,1.09-.6l.3.55c.14-.08.39-.41.12-.58.61.35.99.4,1.17.89,1.03-1.23,2.6-1.11,3.79-.9l-.08.28c.28.33.24-.48.44-.24-.14.26.15.64-.15.94.4.38.66-.4.98-.48.11-.37-.28.2-.14-.27.08-.13.58.41.76-.15.07.24-.1.65-.21.87l.33-.23c.19.72-1,1.05-.81,1.94l.26-.05c.1.64-.75.56-.21.87.31-.24.71-1.02.53-1.31.59-.06.56-1.31,1.16-1.11.09.38-.51-.05-.5.45.17.53.63-.1.84.12-.23-.29.16-.79.37-.85.24.35-.34.48.08.65.16-.31.64-.44.35-.76.37-.69.41.33.82-.17-.01.55-.81,1.06-.41,1.45.07-.53.8-.49.78-1.3.15.21.04.6-.2.86.16.39.95-.66.7.34l.27-.46c.03.19.1.36.14.67.22.09,1.01-.39.69.34.1-.05.62.18.62-.41-.21-.44-.53.23-.45-.53.01.65.51.1.79,0l-.09.3c.16-.06.39.12.59-.15-.16.12-.19.34-.14.45l.31-.37c.55,0-.23.8.27.88l-.48.18c.1-.04.07.43.34.39.26-.35.63-.74.85-1.01.33-.05-.1.49.34.21l-.55.31c-.11.1-.09.74.23.88.27-.04.88-.43.66-.8.17.07.27.43,0,.63.42.07.17-.43.6-.49,0,.32.19.91.22,1.4l-.66.44.2.12c-.54.35-.08.46-.53.9.09.16.35.08.57.02.08-1.07,1.13-.88,1.46-1.7.71.14-.76,2.03.55,1.22.03-.26.66-.64.18-.66.29.31.71-.59.92,0-.5.1-.18.97-.89,1.11.19-.23-.11-.35-.22-.32-.05.38-.51.73-.17.96.25.07.54.25.76-.16.28-.42-.35-.17.07-.51.52.14.15.82.83.21-.3-.13-.08-.6.12-.89l.44.05-.25.23c.36.55.5-.39.94.02l-.16.7c-.45.38-.56-.7-1.01.12.29.25.67-.06.82.34-.11.02-.22-.03-.33,0,.09.11-.52,1.15.32.91.38-.05.26-.22.48-.49.53.3.89.14,1.23.34-.49.48.49.49-.28.75.1-.43-.61-.96-1.17-.58-.33.78-.29-.39-.89.19.36.3-.15.92-.41,1.38.08.11.3.01.41,0,.34-.35.21-.45.51-.85.32.44.88.54,1.41.36-.02.3-.38.64-.57.54.57.29,1.06.74,1.37,1.27.26-.85.6.32.86-.35-.11-.35.07-.97.44-1.11.11.18-.24.25-.29.44.48-.14-.19.79.46.46-.59-.21-.74.63-1.25,1.02.53.02-.32.31-.03.59.53.02,1.08.17,1.5.39,0,.79.96,1.05,1.33,1.4-.06.41-.7.75-.6,1.04.23.23.4-.69.49-.11l-.14.06c.22,0,.24.98,1.1.42l-.68.39c0,.11.2.06.31.06-.19.17-.29.39-.51.39-.2.56.47.42.69.66l.22-.45c.62.21.51.79.97,1.11l-.36.26.41.09c-.39.2-.42.6-.04.51l-1.36.03c.06-.34.57-.14.83-.52.22-.33-.18-.65-.56-.44.08.18.16.12.38.14-.44.44-.6.2-1.01.35.08.06.02.29.18.18-.35.04-.51-.08-.72-.32.32.02.22-.34.41-.38-.44.33-.74.19-.89-.2.29-.62-.8-.28-.97-.73.53-.23,1.02-.35,1.38-.28.01-.4-.23-.23-.22-.63-.4.17-.94.52-1.37.41l.29-.29c-.38-.11-.82.3-1.02-.09-.33-.7-.9-1.19-1.26-1.62l.27-.31c-.82.41-.97-.48-1.53-.49-.26-.78-1.42-.68-1.25-1.45-1.14-.59-2.22-.9-3.17-1.76l.5-.37c-.43.23.06-.37-.17-.43-.04.55-.59.33-.92.57-.25-.67-1.14-.61-1.76-.49l.18-.37c-.78.4-1.01-.4-1.53-.79,0-.18.06-.58-.13-.62-.58.46-.71.32-1.32.53-.33-.12-.81-.47-1.07-.83-.78.18-1.44.12-2.1-.03-.65-.16-1.32-.29-2.04-.13l-.02-.49c-.73.36-1.45.34-2.15.23-.69-.13-1.39-.2-1.95.04l.11-.81c-.36-.26-.82.2-.71.78-.36-.23-.85.45-1.12-.21-.38-.13-.42.4-.7.53-.75-.22-1.01-.11-1.66.13l.17.03c.05-.19,0-.53-.18-.56-.22.24-.98-.05-.55.85-.83-.41-1.56.76-2.42.24.13.24-.03.34-.06.53-.61.16-1.42-.14-1.77.45-.14-.09.01-.48-.25-.42-.12.14.11.33-.03.53-.81.81-2.17.25-3.02.77-1.36,1.16-3.05,1.74-4.43,2.68l-.08-.18c-.09.9-1.52.05-1.29,1.23-.21-.09-.46.2-.59-.16-.07.68-1.32.29-1.45,1.22.06-.02.06-.07.07-.18-.39.02-.62.22-.84.45-.15.14-.13.16-.18.19-.04.02-.11.03-.23,0-.05-.07-.05-.14-.19-.29-.18-.1-.09.1-.02.21.06.12.09.18-.34-.08-.05.05.38.3.38.27-.37.06-.58.32-.61.53.02.06-.06.1.06.16l.27.15.45.22c-.22.17-.59.34-.84.41-.25.07-.33.1.14.13-.15.1.35-.13.17-.05.31-.04-.78.72-.26.57.45-.37.31-.12.6-.33-.03.04-.01.14,0,.23,0,.09,0,.17.01.25,0,.16,0,.29.01.41.03.23.12.39.48.48l-.27.15c.1,0,.19,0,.27.02l.17-.03c.1-.01.18,0,.24,0,.13.01.23.05.36,0,.13-.07.28-.2.45-.45h.16s.61.16.61.16c.45.11.89.21,1.33.32.89.2,1.77.4,2.65.59,1.76.38,3.5.8,5.23,1.27,3.39,1.11,6.88,1.6,10.23,3.05.61.99.67.99,1.66.92-.07.12-.13.13-.11.26.36-.58.31.02.41-.6.01.02.03.04.05.05.03,0,.06,0,.09-.01.01,0,0,0,.03-.01l.21-.05.41-.11c.55-.15,1.11-.31,1.7-.44-.2.12-.19.66.05.57l.18-.47.08.17c.15-.13.27-.49.05-.66,1.37-.54,2.8-.76,4.25-.9,1.34-.11,2.67-.22,4-.33.04,0,0,.01.1-.02l.39-.15c.26-.1.52-.21.77-.33.85-.05,1.83-.72,2.59-1.18,2.75-.18,5.19-.42,7.41-1.99,0,0,.32,1.7-.54,2.48Z"/>
        <path class="cls-1" d="M167.33,183.87c.2-.27.16-.62.66-.69-.23.21-.4.54-.66.69Z"/>
        <path class="cls-1" d="M164.38,175.51c-.07.06,0-.18.02-.24.09.06.35-.08.3.11-.09-.06-.19.07-.32.13Z"/>
        <path class="cls-1" d="M162.89,173.9c.21-.2.74-.08.97.08l-.97-.08Z"/>
        <path class="cls-1" d="M162.04,171.65c0-.31.13-.39.32-.22-.08.13-.19.14-.32.22Z"/>
        <path class="cls-1" d="M161.52,172.08c-.14-.1-.1-.3-.07-.48-.14.2.41.12.07.48Z"/>
        <path class="cls-1" d="M158.16,168.82c-.11-.04-.44.05-.37-.28-.01.25.66-.04.37.28Z"/>
        <path class="cls-1" d="M156.05,168.15c-.05-.05-.06-.11-.17-.07-.06-.17.16-.31.27-.29l-.11.35Z"/>
        <polygon class="cls-1" points="119.89 173.68 119.99 173.44 120.12 173.69 119.89 173.68"/>
        <path class="cls-1" d="M121.56,187.76c.26-.11.06.31.08.36-.19-.03.18-.32-.08-.36Z"/>
        <polygon class="cls-1" points="129.98 188.97 129.92 188.96 130.11 188.39 129.98 188.97"/>
      </g>
    </g>
    <g>
      <path class="cls-3" d="M187.31,150.99c-.14-.79-.71.42-.28-.52.31.11.55.26.28.52Z"/>
      <path class="cls-3" d="M183.33,149.46c-2.46,2.06-5.71-.02-8.41,1.29-.32.09.08-1.13-.63-.86-2.62,1.6-6.74.64-9.93-.59l.19-.32c-.61-.23-1.35.82-1.99.68,0-.21.21-.3.06-.59-.16.64-1.16.29-1.44.77-.25-.25-.23-.76-.56-1.03l-.37.73c-1.02,1.73-2.49-.12-3.88.77.07-.17.21-.3.09-.46-2.24,1.05-5.05.85-7.56,1.24.1-.26.19-.73.05-1.01-.12.77-.9.96-1.57,1.11-.3-.79-1.15.72-1.94.28l.07-.18c-.58.82-.86-.47-1.34.51l-.37-.62c-.26,1.11-.84-.57-1.32-.01l.02.23c-.45.27-.69-.29-1.11-.1l-.04-.13c-.99.29-1.56-.32-1.54.54-.35-.69.96-.31.41-1.32-3.24.89-6.59.72-9.86.73-.37-.35-.61-.45-.69-.78-.33.17-1.23.16-1.53.6.11-.02-.21-.44-.38-.49-.59-.33-.65.95-1.3.56.26-.23.35-.51.26-.83-.56.67-1.3.57-1.96.79.1-.15.26-.23.24-.5-.72.77-1.31-.16-1.94.32l.24-.5c-1.02-.61-.3,1.04-1.18.69.21-.16.14-.35.17-.56-.82.91-2.14.61-2.96.92.05-.07.04-.2.04-.2-.89.11-1.82-.17-2.8.23-.36-.22.12-1.22-.83-1.04.03,1-1.6.41-1.04,1.55-.8-.16-2.08-.54-2.61-.2.36-.38-.39-1.23.28-1.31l-.51-.61c.07-.41.52.14.36-.38-.34.04-1.31.44-1.61.27-.31.31-.61.75-.95,1.13-.33.38-.61.7-1.01.76.34-.39-.49-1.11-.23-1.28-.35.64-.54,1.28-.58,1.92-.21.05-.43-.79-.68-.53.16.27.09.43.12.64-.18-.11-.72.25-1.7-.74-.47-.39.29-.21-.33-.56-.56.01-.26.35-.77.36l-.15-.13c-.06-.02-.12-.03-.17-.02-.02,0-.05,0-.07.01l.03.1c.05.15.14.33.25.5.22.34.53.64.82.73.02-.17-.65-.47-.35-.52.64.78.84,1.35.87,1.74-.18-.25-.47-.42-.77-.69.88,1.18,1.15,1.77,1.54,2.36.5.16-.93-.45-.67-.47-.33.26.02.77.26,1.11.13.17.24.32.27.47.03.14-.03.28-.22.59-.11-.13.64-.21.51-.17.03.53-.65.65-.33.94-.38.12.24.4.45.71.33.11-.16.14-.29-.16.23.2.63.75.93,1.39.3.64.49,1.39.46,2.01.24-.1,1.17.32,1.23.57l-.61.13c-.26.36.37.8-.11,1.04.9.25-1.39-1.81-.57-1.3-.41.37,1.3.64.46.79.22.49,1.04.69.69,1.4.04-.18-.94-.06-.74.33.44.64.37.08.83.54l.4.23c.55-.24.23.63.71.09-.4.31.76.82-.15,1.22l-.74.28c.2.27.97.09,1.39.14-.05.07-.14.23-.26.28,1.04-.54.33.71,1.33.56.01.79.89,1.45.45,2.15.57.25,1.23.34,1.39.96-.16-.02-.29-.13-.52,0-.05.51.26.39.63.54-.19.05-.08,1.03-.14,1.64.61.19.98-.38,1.32-.6-.62,1.18,1.57.55,1.17,1.72-.24-.01-.96-.15-.87.37-.51,1.18,1.31.1,1.44,1.06l.56-.84c-.1.34.2.44.42.54.24.08.4.16.03.51.44-.1.48.83,1.05.06.21.71.87,1.12,1.41,1.57.55.44,1.03.86.84,1.79.24-.02.52.37.73-.08.06-.61-.57.07-.45-.29.15.07.33-.12.42-.22.19.4.41.64-.35,1.08.41,1,1.64-.79,2.37.09-.25.31-.26.48.06.59l.88-.28c.54.49-.1.99-.42,1.58.4.09.8.37,1.2.01l.02.99c-.01-.72.46-.18.71-.27l-.24.07c-.06.28.43.32.68.33.13-.4-.21-.74-.38-.95.31-.18.56,0,.95-.2-.37.56.37.68.62.87.26.28.6-.38.69-.31-.13.32.5.29.06.62-.15.05-.11-.42-.42-.23.11.33-.16.86.46.67.46-.15.43-1.24.88-.57-.23.08-.36.31-.58.47l.46.59.25-.55c.02.18-.05.2-.04.29.41-.52,1,.14,1.39-.48.32.05.5.61.77.78l-.07.03c.24.46.8.4,1.22.12l-.05.12c.18.12.67.18,1.02-.11.38.56-.43,2.23.34,1.64.54.11,1.08-.87.97-1.3.84.61,2.05-.05,2.76.95.17-.22.12-.38.41-.48.66.21,1.41.14,2.1.18.69.06,1.33.08,1.85.72-.42.23-.07.6-.08.94.37-.52.38.58.55-.34,0-.54.04-.81-.34-1.04.84-.26,2.06-.17,2.53.32-.23-.24-.05-.42.12-.59-.06.87.57.97,1.02.64l.05-.53.32.53c.17-.18.14-1.12.62-.63.04.2.07.41.17.55.46-.47,1.05-1.18,1.59-.82l.5.71c.21-.12.52-.63.11-.8.92.34,1.49.31,1.88.93.32-.46.68-.81,1.07-1.12.39-.34.8-.6,1.24-.81.86-.45,1.82-.58,2.64-.83l.07.4c.55.2.02-.74.41-.58-.03.41.59.66.38,1.22.78.17.61-.94.96-1.25-.11-.51-.22.43-.36-.22,0-.2,1.01.08.83-.69.27.23.35.82.38,1.14l.25-.49c.83.69-.51,1.91.39,2.79l.34-.25c.67.64-.7,1.22.38,1.15.3-.5.2-1.71-.28-1.88.74-.56-.33-1.9.53-2.23.42.32-.63.41-.22.93.65.4.67-.69,1.11-.65-.52-.09-.51-.97-.33-1.21.58.14.04.8.68.6-.09-.46.3-1.01-.31-1.08-.24-1.02.75,0,.69-.89.53.54.17,1.81.98,1.78-.42-.57.34-1.29-.48-2.01.33.04.63.5.65.98.57.17.22-1.6,1.03-.46l-.24-.69c.23.14.47.2.85.43.33-.17.49-1.38,1.03-.48.03-.16.73-.59.06-1.03-.66-.09-.17.8-.95.1.74.5.53-.5.61-.89l.27.32c.05-.23.42-.38.25-.81.03.27.25.46.42.47l-.22-.62c.37-.65.78.81,1.23.27l-.13.69c.03-.15.57.19.73-.16-.24-.54-.47-1.22-.66-1.64.14-.43.53.41.45-.3l.06.86c.06.2.84.54,1.23.18.13-.38-.03-1.34-.62-1.25.18-.17.68-.13.8.32.31-.53-.46-.42-.32-1.02.4.16,1.25.16,1.93.31l.24,1.06.28-.23c.16.88.59.28.93,1.05.29-.07.33-.48.35-.82-1.41-.42-.68-1.88-1.67-2.57.41-.9,2.5,1.59,1.85-.43-.34-.09-.68-1.05-.85-.38.51-.34-.61-1.09.24-1.25,0,.7,1.3.4,1.3,1.41-.26-.3-.52.1-.52.27.51.13.85.85,1.29.39.2-.34.48-.8-.03-1.14-.53-.43-.3.51-.68-.14.28-.74,1.16-.18.42-1.19-.22.43-.83.07-1.18-.24l.11-.59.29.37c.78-.46-.49-.71.11-1.27l.95.24c.49.62-1.02.73.06,1.4.39-.4,0-.93.57-1.14.01.15-.06.3-.04.45.14-.13,1.65.72,1.32-.52-.09-.57-.31-.35-.69-.63.36-.83.1-1.3.33-1.81.71.59.62-.79,1.08.23-.62-.03-1.25,1.04-.7,1.81,1.06.34-.49.52.26,1.3.47-.57,1.29.05,1.95.35.16-.15.03-.5,0-.67-.5-.44-.64-.21-1.21-.58.6-.6.72-1.48.42-2.18.43-.06.95.35.82.66.09-.23.2-.46.33-.68.11-.23.22-.46.34-.68.25-.44.54-.85.84-1.22-1.24.05.25-1.04-.75-1.06-.44.34-1.32.35-1.63-.1.2-.23.42.22.68.21-.36-.59,1.12-.12.46-.85-.08.91,1.11.71,1.81,1.21-.13-.79.53.28.83-.31-.18-.81-.24-1.7-.15-2.44.53-.28.77-.82.85-1.39.05-.58,0-1.17.09-1.56.52-.3,1.37.23,1.66-.18.13-.54-1.11.14-.47-.54l.16.12c-.14-.28,1.03-1.33-.31-1.84l.98.45c.12-.13-.09-.32-.18-.47.33.06.66-.06.84.23.78-.38.06-1.11.12-1.66l-.66.26c-.35-1.01.44-1.54.24-2.49l.6.08-.33-.58c.57.18.97-.31.5-.63.46.51.92,1.04,1.38,1.58-.37.38-.7-.52-1.3-.31-.26.08-.36.34-.33.61,0,.26.15.53.43.64.12-.32,0-.35-.19-.63.85-.02.74.48,1.25.8,0-.18.29-.41.03-.47.35.39.35.76.28,1.35-.26-.44-.55.14-.76-.05.72.15.85.76.53,1.45-.46.18-.38.54-.23.97.15.42.29.9.07,1.29-.64-.52-1.07-1.06-1.29-1.62-.45.43-.12.56-.61.98.47.37,1.25.75,1.39,1.51l-.54-.11c.1.68.88.91.52,1.66-.66,1.26-1.24,2.56-1.67,3.52l-.52-.18c.91,1.03-.45,1.93-.33,2.88-.55.48-.75,1.21-1.01,1.81-.28.59-.58,1.09-1.16,1.13-.47,1.11-.87,2.2-1.51,3.14-.3.49-.62.96-.97,1.43-.35.47-.72.94-1.21,1.34l-.31-.83c.13.71-.54-.1-.75.28.81.07.2.99.33,1.55-.61.19-1.03.65-1.35,1.21-.32.56-.6,1.15-.78,1.7l-.39-.39c-.04.71-.45,1.1-.96,1.39-.52.29-1.14.48-1.71.76-.25-.1-.74-.38-1-.13-.03,1.1-.35,1.26-.87,2.29-.58.46-1.77.8-2.56.89-.44.61-.95,1.11-1.5,1.56-.57.41-1.2.72-1.83,1.04-.63.32-1.28.62-1.91.96-.65.31-1.3.61-1.92,1.03l-.41-.54c-.54.55-1.19.97-1.89,1.29-.71.26-1.46.44-2.21.6-.74.15-1.47.3-2.16.44-.7.11-1.34.26-1.91.52l.06-1.12c-.77-.23-1.62.53-1.35,1.27-.39-.12-.84.1-1.27.19-.43.08-.84.1-1.11-.34-.78-.17-.91.55-1.55.73-.78-.17-1.31-.23-1.83-.21-.52-.03-1.03.03-1.76.1l.36.09c.17-.23.19-.7-.16-.79-.55.28-1.96-.39-1.5.95-1.49-.76-3.73.21-5.09-1,.07.37-.33.39-.53.6-1.38-.22-2.6-1.33-3.83-.99-.17-.23.5-.51-.04-.68-.36.05-.13.45-.58.55-1.18.03-2.21-.56-3.18-1.13-.48-.29-.95-.59-1.42-.87-.45-.31-.91-.57-1.39-.74-.89-.22-1.77-.49-2.63-.83-.83-.39-1.65-.83-2.45-1.28l-1.19-.69c-.39-.24-.75-.52-1.12-.78-.74-.52-1.46-1.04-2.19-1.52l.19-.19c-.8.08-1.14-.61-1.52-1.17-.37-.58-.75-1.07-1.61-.81-.04-.37-.72-.78-.22-1.02-1.18-.13-1.33-2.32-2.91-2.65.07.11.16.12.34.15-.27-.67-.71-1.12-1.15-1.59-.45-.46-.91-.94-1.14-1.66.18.04.41.2.64.07.07-.72-1.7-.35-.85-1.34-.18-.25-.64.18-.51.32-.63-1.46-1.62-2.71-2.55-4.06-.46-.68-.93-1.36-1.4-2.05-.23-.35-.48-.69-.69-1.04l-.57-1.1c-.14-2.47,1.94-.91.4-2.27.18-.22-.5.06-.26-.05-.61-.55.98-1.47.22-1.73-.69.42-.5-.18-.96-.06.11-1.52.73-1.93-.14-2.86h.42c-.38-.25-.6-.55-.78-.86-.09-.16-.17-.32-.24-.48-.08-.25-.16-.49-.24-.73-.32-1.01-.7-2.01-1.4-2.97-.12-1.45-.24-2.89-.36-4.32l-.19-2.2-.1-1.11c0-.34-.22-.89.28-.76,2.72-.21,5.45-.47,8.49-.55l2.25-.09.5-.02.3-.02.6-.04,2.39-.16c1.6-.1,3.19-.17,4.79-.21,6.34.26,12.54-.35,18.98.36,1.51,1.08,1.62,1.05,3.28.61-.07.18-.17.21-.06.38.08-.88,1.17-.08,1.32-.93,2.38.17,4.57-.08,7.02-.08-.39.09-.58.82-.12.76l.48-.57.08.25c.31-.13.66-.57.33-.85,6.15-.77,12.2,1.01,18.22.79,1.43.37,3.47.03,5.02-.15,4.61,1.18,8.76,2.14,13.44,1.31,0,0-.61,2.29-2.54,2.82Z"/>
      <path class="cls-3" d="M187.34,151.95c-.45.16-.72.69-1.29.23.42-.03.9-.3,1.29-.23Z"/>
      <path class="cls-3" d="M179.83,164.49c.11.07-.25.09-.34.1.04-.16-.22-.44.03-.47-.02.17.17.22.3.37Z"/>
      <path class="cls-3" d="M178.07,167.36c-.32-.24-.27-1.02-.13-1.41l.13,1.41Z"/>
      <path class="cls-3" d="M175.05,169.05c-.41.03-.52-.14-.33-.42.19.1.21.25.33.42Z"/>
      <path class="cls-3" d="M175.67,169.75c-.12.22-.41.18-.66.14.29.2.18-.59.66-.14Z"/>
      <path class="cls-3" d="M170.54,173.95c-.08.13-.09.62-.51.39.35.13.18-.89.51-.39Z"/>
      <path class="cls-3" d="M168.66,176.4c-.09.04-.17.01-.18.18-.25-.02-.29-.37-.2-.5l.38.33Z"/>
      <polygon class="cls-3" points="116.55 174.96 116.92 175.07 116.61 175.31 116.55 174.96"/>
      <path class="cls-3" d="M106.57,154.49c-.28-.35.39.12.46.13.05.17-.53-.39-.46-.13Z"/>
      <polygon class="cls-3" points="115.89 151.45 115.78 151.46 115.82 150.65 115.89 151.45"/>
    </g>
  </g>
  <g>
    <path class="cls-3" d="M108.58,150.53c.04.06.22.14.08.08-.09-.07-.16-.13-.08-.08Z"/>
    <path class="cls-3" d="M113.31,150.57s.08.03.12.05c.05.02.08.05.09.06.03.03,0,.05-.02.05-.06,0-.1-.05-.03.19,0,.03-.18-.38-.15-.28.1.28.02.37-.04.3-.07-.06-.12-.27-.11-.5v-.12c.03-.08-.04.3-.05.24.02-.08.02-.11.04-.21-.05.23-.03.11-.08.27.02-.09.07-.27.09-.37l-.08.26c-.22.6-.03-.06-.18.24.03-.06.05-.1.08-.15-.22.33-.29.19-.45.22.07-.06.2-.17.29-.24-.22.18-.29.21-.35.22.22-.19-.23.13-.12.02l.05-.04c-.25.17.12-.13-.17.09l.18-.15c-.32.25.15-.15-.01-.03l-.07.05c-.08.05.07-.08.01-.05l.04-.03c-.1.05.07-.12-.17.1.19-.18.1-.06.38-.32-.3.14-.28.02-.32-.05.09-.11.11-.14.2-.25-.05.04-.06.01-.17.14,0,0,.11-.14.12-.16.08-.12-.25.27-.16.14.06-.06.13-.15.21-.25-.17.19-.16.14-.22.19.04-.04.06-.07.13-.15-.2.22.02-.09-.1.05l.12-.15c.13-.22-.26.33-.18.19.04-.05.09-.11.14-.18-.23.28-.17.15-.26.23.02-.02.05-.07.05-.07-.04.02.02-.1-.09.02.05-.09.28-.43.22-.38-.22.35-.12.11-.36.53.03-.07.09-.24.01-.12.09-.13.26-.47.29-.48l.11-.21c.08-.13-.02.06.08-.11-.01,0-.11.11-.09.05-.12.17-.37.6-.42.63.09-.14.23-.44.26-.48l-.41.71s.16-.31.1-.22c-.06.1-.09.17-.13.25.02-.05-.07.08.12-.32.07-.16.05-.07.11-.22-.01,0-.08.13-.09.12l.02-.05c.02-.07-.1.15-.2.38,0,.02.11-.24.06-.12-.11.23-.15.29-.16.28.03-.07.08-.17.13-.28-.16.3-.21.4-.28.53-.08.2.15-.35.11-.25.09-.28-.19.37-.05-.04-.01.03-.06.17-.08.23,0-.03.11-.32.06-.21.06-.17-.03.05-.05.1-.05.12.03-.08.04-.1-.06.14-.18.39-.12.13-.04.11-.13.39-.14.41l.08-.27c.04-.16-.02.02.05-.21-.11.33.12-.27.03-.02.06-.23-.14.42-.03.06-.01,0-.1.31-.04.05-.01.04.11-.37.1-.36-.03.04-.04.13-.07.22l-.04.11c-.07.27,0-.04-.07.26.05-.22-.05.13.06-.31l.09-.35s-.1.37-.14.52c0-.03.02-.1.03-.16-.12.54,0-.05-.1.37.03-.19-.02-.02.04-.36-.04.16-.08.36-.07.24,0-.05.01-.07.04-.18.02-.16,0-.02-.03.07.01-.08.04-.32.06-.51-.04.16-.07.45-.1.63.06-.54-.07.34-.01-.14.01-.07.05-.26.05-.4.05-.53-.07.4-.05.14l-.04.44c.02-.28-.04.26,0-.2-.02.16,0-.15-.04.29,0-.37-.05.22-.03-.55,0,.07-.01,0-.02.22,0,.24.01-.17,0,0,0,.01,0,.13,0,.19,0-.1,0-.13,0-.49-.01-.26-.03.74-.04.57,0-.18,0-.25,0-.22v.31c-.02-.07-.02-.4-.02-.7,0,.05-.02.04-.02.27l-.02-.38c.02.27,0,.18,0,.26v-.07c0-.13-.01-.05-.01,0,0,.18.02.26.03.31,0,.13,0,.1,0,.26-.01-.29-.02-.21-.03-.24,0-.06,0,.26,0,.25,0-.15,0-.02-.02-.24,0-.05.01.15,0,.01-.01-.11-.03-.38-.02-.18,0,.15.04.58.02.39,0-.07-.01-.19-.02-.29l-.02-.15.02.27c0-.07,0-.09-.01-.13.02.28,0,.09.02.4,0,.03-.03-.18-.03-.21v-.02c-.02-.15-.02-.05,0,.13v-.06s-.01.02,0,.18c-.03-.19-.13-.98-.1-.65-.01.01.05.48.08.65-.04-.17.02.25-.06-.14.02.1.03.17.04.23-.04-.09.04.31-.09-.17-.03-.11-.06-.25-.09-.39.05.23-.06-.23.03.16.06.22.09.33.11.42.02.13.01.13-.05-.07.03.1.05.17.06.24-.1-.35-.12-.4-.09-.27l.06.21-.07-.22c.02.07.13.45.07.25-.03-.08-.05-.16-.07-.22.05.18.14.47.07.3l-.11-.3s.07.22.1.31c-.07-.18-.08-.2-.18-.45.21.64.22.67.19.64l-.06-.15c-.06-.13.11.26.07.16-.06-.14-.14-.3-.21-.47-.08-.15.11.26.13.33.09.19-.05-.12.06.12.03.07-.08-.14.06.14-.05-.11-.15-.32-.21-.43l.06.14c-.16-.33-.28-.59-.48-1.01v.05c-.14-.29-.13-.35-.2-.44.06.15.25.56.32.68.03.09.33.67.31.66-.08-.17-.02-.04-.13-.27-.12-.22.05.13,0,.06.06.11.2.38.23.43-.07-.13-.14-.26-.16-.29.08.16.15.28.21.39.19.36-.06-.1.09.18-.14-.25-.32-.58-.39-.7.13.24.18.33.38.68-.04-.07-.15-.26-.23-.4-.09-.14.25.44-.03-.03l.14.24c-.05-.08-.08-.13-.16-.26,0,0,.19.33-.03-.03.02.04,0,.03.16.27.1.15-.11-.18.1.15-.17-.27.02.04.08.13l-.09-.14c.03.05.02.02.11.17-.05-.08-.11-.17-.13-.2l.13.21c.07.1-.24-.36-.2-.3l-.1-.16s-.11-.15-.07-.09c.13.18.28.41.37.55.06.08-.14-.21-.01-.02l-.15-.22c-.04-.06-.21-.3-.21-.29.04.06.23.32.3.42,0,0-.08-.11-.17-.24.05.06.14.19.22.31-.09-.12-.22-.28-.35-.45l-.22-.3h0c-.18-.23-.14-.18-.32-.43-.03-.03.03.06.07.12.3.39.42.54.69.9.08.1-.7-.85-.26-.29.08.09.29.36.21.25-.03-.03.29.35.17.21-.12-.14-.29-.35-.47-.56.1.11.08.08.05.05-.11-.13-.29-.35-.3-.34.02.04.02.05.18.23.17.19-.01-.03.16.17.05.07-.21-.22.09.13-.02-.03.15.17.27.3l.07.08-.11-.13c-.08-.09.21.23.17.2l-.23-.25c-.2-.21.09.09-.23-.26-.02,0,.14.17.06.08-.03-.03-.03-.04-.06-.07-.01-.01-.44-.47-.2-.19.1.1.12.12.24.25.03.05.16.17.17.2-.24-.24-.02-.02-.27-.27.15.14.14.12-.09-.12-.28-.29.05.03-.24-.27-.01,0-.29-.29-.48-.47-.02,0,.06.08.08.11.17.18.17.17.35.35-.06-.04.03.08.2.25-.09-.08-.27-.25-.28-.28.04.07,0,.06-.06.02.3.26.06.08.31.29.07.05.29.24.42.36-.02-.02-.13-.12-.2-.17.16.15-.27-.23-.01,0-.09-.09-.37-.32-.6-.53.12.13-.17-.15-.18-.13.12.13.21.23.26.28-.24-.17-.03.03-.03.05-.13-.08-.41-.3-.47-.32,0,.02.32.22.17.14l-.06-.04c.06.05-.22-.1.19.2l-.31-.23s.04.04.07.07c-.1-.07-.2-.14-.26-.19-.22-.14.02.05.01.07l.19.12c.13.13-.07.01-.02.08l-.18-.13.1.09c-.17-.13-.29-.2-.15-.09l-.42-.35c.11.07.21.17.39.29.16.11.13.05-.05-.08-.03,0,.01.02.07.08-.25-.18-.23-.18-.4-.31,0,.01-.07-.04,0,.02-.12-.1-.13-.12-.12-.14.09.08.16.11.23.16-.22-.16-.28-.22-.2-.2.26.17-.14-.15-.05-.12.22.17.39.31.47.39.12.07,0-.02.13.05-.16-.13-.41-.32-.5-.41l.16.12c-.07-.08-.31-.26-.25-.25.11.02.14-.02.18-.04l.16.13c-.32-.3-.08-.16-.2-.31.17.1-.07-.22.2,0-.06-.18-.1-.36.01-.37l.18.24c-.13-.18.12.12.1.08-.16-.17-.18-.25-.29-.4.17.15.05-.09-.04-.29l.12.16c-.2-.34.04-.1.1-.08.05.07.17.22.16.19-.17-.29-.14-.28-.23-.49.02-.02.1.02.19.11-.15-.48.09-.29.06-.61l.11.22c-.12-.54.19-.19.19-.48l.13.4c.07.11.02-.14-.08-.41.07.11.01-.23.13.09.05.06-.02-.2-.01-.27.1.12.11.08.15-.02l-.02-.02c.02.09.06.26.08.28,0-.12.1.08-.03-.4.12.25.1-.28.24.07-.03-.13-.02-.16-.03-.25.06-.03.16.23.17,0,.02.06.02.23.04.24,0-.05-.02-.17-.02-.25.07-.27.22.21.3.14.14-.28.31-.17.46-.21v.1c.07-.37.08.38.16-.18,0,.09.04.05.02.23.07-.26.08.25.18-.07,0,0,0,0-.02.05.03.22.12-.07.15.13-.01.04-.03.07-.05.17-.01.19.12-.4.05.07.01,0,.05-.23.04-.22.09.2.28-.07.45-.13.02.3-.22.76-.05.45-.02.09.06-.17.03-.08.07-.12-.12.52-.03.29.08-.28.06-.15.12-.32,0,.2-.08.45.03.26l-.05.14c.19-.39.16-.14.39-.58.31.05.7,0,.98.17.17.29.53.37.51.9-.27.36-.26.35-.09.32-.05.04-.07.05-.11.09.26-.22.05.04.3-.17,0,.08.04.14.08.19l.03.04h0s0,.01,0,.01h0s-.76.59-.76.59h0s-.03.03-.03.03c.01-.01.02-.01,0,0h-.02s0,.01,0,.01c0,0-.02.02-.01,0h0c-.12.12-.24.22-.36.32h0s.01-.01.01-.01l.02-.02.03-.05s.04-.07.05-.09c.02-.05,0-.06,0,.02,0,.03,0,.1.02.16.04.19.19.2.03.17,0,0,.02,0,.06,0Z"/>
    <path class="cls-3" d="M108.57,150.49c.14.09.22.13.39.27-.13-.09-.27-.19-.39-.27Z"/>
    <path class="cls-3" d="M110.13,151.21s.05.04.07.06c0,0,.11.1.05.05-.01,0-.07-.06-.12-.11Z"/>
    <path class="cls-3" d="M110.23,151.24c.11.1.19.19.2.2l-.2-.2Z"/>
    <path class="cls-3" d="M110.68,151.64c.09.09.12.13.13.14-.05-.06-.08-.09-.13-.14Z"/>
    <path class="cls-3" d="M110.45,151.4s.06.06.12.12c-.09-.09.05.06-.12-.12Z"/>
    <path class="cls-3" d="M110.76,151.69s-.08-.11.02.02c-.07-.09.12.15-.02-.02Z"/>
    <path class="cls-3" d="M110.64,151.49s.02.03,0,0c.04.06.1.15.11.16l-.11-.15Z"/>
    <polygon class="cls-3" points="111.07 150.59 111.06 150.68 111.08 150.51 111.07 150.59"/>
    <path class="cls-3" d="M111.45,150.7c.05-.1-.06.15-.07.18-.01.01.09-.2.07-.18Z"/>
    <polygon class="cls-3" points="112.05 150.16 112.05 150.16 112.23 149.87 112.05 150.16"/>
  </g>
  <g>
    <path class="cls-3" d="M112.18,150.22c-.03-.09-.25-.08-.08-.09.1.06.18.11.08.09Z"/>
    <path class="cls-3" d="M128.61,150.09c-.21.76-.49,0-.72.48-.03.03,0-.42-.05-.32-.22.59-.58.24-.85-.22l.02-.12c-.05-.09-.12.31-.17.25,0-.08.02-.11,0-.22-.01.24-.1.11-.12.29-.02-.09-.02-.28-.05-.38l-.03.27c-.09.64-.21-.05-.33.29,0-.06.02-.11,0-.17-.19.39-.43.32-.65.46,0-.1.02-.27,0-.38-.01.28-.08.36-.13.41-.03-.29-.1.27-.17.11v-.06c-.04.3-.07-.18-.11.19l-.03-.23c-.02.41-.07-.21-.11,0v.08c-.04.1-.06-.11-.09-.04v-.05c-.09.11-.14-.12-.14.2-.03-.26.08-.12.04-.49-.28.33-.57.27-.85.27-.03-.13-.05-.17-.06-.29-.03.06-.11.06-.13.22,0,0-.02-.16-.03-.18-.05-.12-.06.35-.11.21.02-.09.03-.19.02-.31-.05.25-.11.21-.17.29,0-.05.02-.09.02-.19-.06.28-.11-.06-.17.12l.02-.19c-.09-.22-.03.39-.1.25.02-.06.01-.13.02-.21-.07.34-.18.23-.25.34,0-.03,0-.08,0-.08-.08.04-.16-.06-.24.08-.03-.08,0-.45-.07-.38,0,.37-.14.15-.09.57-.07-.06-.18-.2-.22-.07.03-.14-.03-.45.02-.49l-.04-.22c0-.15.04.05.03-.14-.03.01-.11.16-.14.1-.05.23-.1.65-.19.7.04-.14-.02-.41,0-.47l-.12.71s0-.29-.05-.2c0,.1-.02.16-.03.24-.01-.04-.12.09-.13-.27-.01-.14.05-.08.01-.21-.05,0-.06.13-.11.13v-.05c-.04-.05-.1.16-.07.36.02.01,0-.22.03-.11-.02.21-.09.27-.14.28.02-.06.02-.16.02-.26-.07.29-.15.38-.23.5,0,.17.03-.32.04-.22-.1-.24-.21.34-.3-.01.01-.03,0,.25,0,.2-.05-.02-.05-.27-.08-.18,0-.15-.04.05-.07.09-.02.11,0-.07.02-.09-.05.13-.23.35-.34.14,0,.1-.07.36-.09.35v-.23c-.01-.14-.07.02-.08-.18-.05.28.2-.24.13-.02-.02-.19-.1.36-.08.05-.05,0-.1.27-.14.05.01.04.04-.32,0-.3-.07.04-.02.11-.08.19l-.04.09c0,.22-.06-.03-.04.22,0-.18-.1.11-.09-.26v-.29s-.04.31-.06.44c0-.03-.01-.09-.01-.13,0,.44-.07-.04-.11.31-.06-.15-.16-.01-.19-.29-.05.13-.09.3-.15.2.01-.04.03-.05.03-.15-.03-.13-.04-.01-.08.06,0-.07-.07-.26-.11-.42-.05.13-.03.37-.04.52-.04-.44-.14.28-.19-.12.02-.06.07-.22.03-.33-.04-.44-.09.32-.16.11l.02.36c-.03-.23-.1.21-.1-.16-.02.13-.08-.12-.08.24-.12-.3-.28.18-.36-.46-.02.06-.06,0-.05.18.03.2.04-.14.05,0-.02.01-.02.11-.02.16-.04-.08-.07-.11-.03-.4-.08-.22-.08.6-.19.47,0-.15,0-.2-.03-.18l-.06.25c-.07-.06-.04-.33-.04-.58-.04.04-.08.03-.1.22l-.04-.31c.03.23-.03.15-.05.21l.02-.06c0-.1-.05-.04-.07,0,0,.15.05.22.07.26-.02.11-.05.08-.07.21,0-.24-.06-.17-.09-.2-.03-.05-.04.22-.05.21,0-.13-.05-.02-.03-.2.01-.04.03.12.04.01-.02-.09-.02-.32-.06-.15-.03.12,0,.48-.05.33.02-.06.02-.16.03-.25l-.06-.13v.22c-.01-.06,0-.08,0-.11-.02.23-.09.07-.1.34-.03.02-.06-.15-.09-.18v-.02c-.03-.13-.08-.04-.11.11v-.05s-.06.02-.09.15c-.05-.17-.02-.84-.07-.56-.05,0-.08.41-.06.55-.09-.15-.19.21-.27-.13-.01.09,0,.15-.03.2-.13-.09-.27.26-.38-.17.04-.09,0-.22,0-.35-.03.2-.04-.21-.05.13,0,.2,0,.3.04.38-.08.11-.19.11-.24-.08.02.09,0,.15-.01.22,0-.32-.05-.37-.09-.26v.2s-.03-.2-.03-.2c-.02.06-.02.41-.06.22,0-.08,0-.15-.01-.21-.04.16-.11.43-.16.27l-.04-.29s-.06.2-.02.29c-.08-.17-.14-.19-.16-.44-.14.6-.35.63-.51.58v-.15c-.04-.14-.02.26-.05.15.01-.14-.03-.3,0-.47-.06-.15-.08.25-.12.32,0,.19.03-.12.03.12,0,.07-.09-.15-.1.14-.02-.11,0-.33,0-.45l-.04.14c-.05-.34.11-.61.06-1.03l-.04.05c-.03-.3.09-.34,0-.45-.04.14-.07.57-.04.69-.08.08-.04.69-.12.67-.02-.17.07-.04.05-.28-.04-.23-.08.13-.12.05.04.11,0,.4-.02.46-.04-.14.03-.28-.03-.3-.01.17-.07.29-.02.41-.02.38-.07-.11-.1.19-.02-.27.06-.62,0-.75.01.26-.08.35-.05.73-.03-.07-.03-.28-.01-.44-.04-.16-.09.47-.11-.04v.26c-.03-.09-.04-.15-.06-.29-.03,0-.11.36-.11-.04-.01.04-.09.02-.06.3.05.17.06-.2.08.17-.03-.3-.07.04-.1.14v-.15c-.02.06-.06.03-.07.19.01-.09,0-.19,0-.23l-.02.23c-.07.12-.02-.41-.08-.34l.05-.18s-.03-.18-.06-.11c-.02.21-.03.47-.05.64-.04.09-.02-.24-.05-.02l.05-.26c0-.07-.03-.35-.08-.35-.03.07-.08.38-.03.5-.02,0-.06-.13-.04-.28-.06.07,0,.23-.04.36-.02-.14-.08-.35-.12-.55l.05-.36h-.03c.04-.29-.02-.22,0-.52-.02-.05-.05.06-.07.13.07.48-.08.66-.06,1.1-.09.12-.06-1.07-.15-.38.02.12-.03.45.03.32-.06-.05-.04.44-.11.26.05-.18-.05-.45.02-.71,0,.15.04.11.05.07-.02-.17,0-.44-.05-.44-.04.04-.08.05-.08.28,0,.25.05-.03.03.23-.07.09-.08-.3-.11.15.04-.03.06.23.06.4l-.05.11v-.17c-.07-.12-.01.3-.1.26l-.04-.33c.02-.29.12.13.1-.34-.05-.02-.07.22-.12.1.01-.04.03-.05.04-.09-.02-.02-.04-.63-.11-.27-.04.14-.01.17-.01.34-.08.05-.11.23-.16.26.01-.34-.1-.03-.04-.38.03.2.15.18.18-.14-.03-.4.07.06.08-.35-.07,0-.06-.41-.08-.67-.02-.02-.04.09-.05.13,0,.24.02.24.02.49-.08-.07-.15.07-.19.31-.03-.12-.02-.37.01-.39-.09.07-.19.04-.27-.03.06.4-.1.09-.06.43.05.09.09.37.06.55-.03-.03,0-.17-.01-.26-.04.22-.06-.35-.09,0,.08-.13.02-.49.03-.8-.06.18,0-.22-.06-.22-.06.17-.13.31-.2.38-.08-.3-.21,0-.28,0-.04-.16-.01-.51-.05-.57-.05,0,.04.38-.04.22v-.07c-.02.08-.13-.24-.15.27l.02-.38s-.03.05-.04.09c0-.12-.02-.24,0-.32-.01-.08-.03-.1-.04-.11l.03.04s-.11-.13-.1-.16l-.22-.07c-.12-.15.1-.11.06-.21l.2.1-.1-.1c.19.1.33.12.18.02l.44.34c-.13-.02-.23-.15-.43-.22-.18-.06-.16.03.03.13.03-.02,0-.04-.07-.09.28.12.25.16.43.26,0-.02.09,0,0-.04.12.09.13.13.12.18-.09-.08-.18-.07-.25-.11.23.11.29.19.22.22l-.53-.84h0c.04.32.11-.19.18-.11-.03.28-.06.5-.11.61.04.14.05,0,.09.13.02-.21.04-.52.09-.64v.2c.06-.1.06-.4.12-.35.11.1.23.1.32.13v.2c.05-.43.16-.16.23-.35.11.2.24-.19.3.16.2-.16.37-.31.57-.23l-.03.3c.04-.22.02.17.06.13-.04-.24.05-.31.07-.49.09.23.21-.02.29-.23v.2c.08-.38.18-.05.28.02.01.08.03.27.06.25.05-.33.08-.3.16-.51.06,0,.15.08.21.21.22-.46.45-.17.67-.44l.02.24c.22-.51.5-.05.68-.31l-.02.41c.06.13.14-.11.12-.4.06.12.15-.2.19.14.06.08.07-.19.13-.24.12.15.17.12.28.04l-.03-.03c-.01.09-.01.26.01.29.04-.11.16.11.11-.38.12.28.29-.23.41.15-.01-.13.02-.16.03-.25.11,0,.22.26.31.04.02.07-.03.23.02.24.03-.05,0-.17.03-.25.17-.25.35.26.51.19.28-.26.58-.13.85-.17v.1c.09-.37.21.38.28-.18.02.09.08.04.07.23.07-.26.2.25.31-.09,0,0-.02.01-.03.05.11.22.2-.08.31.12-.01.04-.03.07-.03.17.04.19.1-.41.13.06.02,0,.02-.24,0-.22.24.18.5-.12.76-.23.18.28.01.79.15.44.01.09,0-.18.01-.08.06-.13.09.53.12.28-.02-.29.03-.16.03-.34.11.19.13.45.22.23v.15c.1-.43.21-.2.3-.7.57-.09,1.11-.37,1.66-.42.54.09,1.08-.13,1.63.13.13.4.14.39.28.23,0,.06-.01.08,0,.14,0-.33.1-.03.11-.34.2.06.39-.03.6-.03-.03.04-.05.3-.01.28l.04-.21v.09s.06-.21.04-.32c.53-.28,1.05.37,1.57.29.12.14.3.01.43-.06.4.44.75.79,1.16.48,0,0-.05.85-.22,1.04Z"/>
    <path class="cls-3" d="M112.17,150.3c-.15-.06-.25-.05-.44-.18.14.06.31.11.44.18Z"/>
    <path class="cls-3" d="M112.24,151.58s.02.07.02.09c-.02.01-.03.15-.04.06.02-.01.01-.09.02-.16Z"/>
    <path class="cls-3" d="M112.55,151.68c0,.15-.07.26-.11.28l.11-.28Z"/>
    <path class="cls-3" d="M112.85,152.28c.03.12.02.19-.02.19,0-.08,0-.12.02-.19Z"/>
    <path class="cls-3" d="M112.87,151.95s.04.08.05.17c0-.12-.06.08-.05-.17Z"/>
    <path class="cls-3" d="M113.5,152.37s.05-.13.06.03c-.02-.11-.07.19-.06-.03Z"/>
    <path class="cls-3" d="M113.8,152.15s.01.04.02,0c.02.07,0,.17-.02.19v-.18Z"/>
    <polygon class="cls-3" points="119.18 151.57 119.15 151.64 119.15 151.49 119.18 151.57"/>
    <path class="cls-3" d="M121.54,151.56c.03-.09.02.14.03.16-.03.01.01-.18-.03-.16Z"/>
    <polygon class="cls-3" points="122.81 150.83 122.8 150.83 122.8 150.53 122.81 150.83"/>
  </g>
  <g>
    <path class="cls-3" d="M152.97,149.8c-.23.07.12.26-.15.11.03-.12.07-.21.15-.11Z"/>
    <path class="cls-3" d="M164.78,151.35c.49-.93,1.62-.45,2.25-1.14.08-.06.09.41.27.25.41-.56,1.17-.71,1.95-.69h.41s-.42-.16-.42-.16c-.29-.12-.58-.26-.83-.42l.07-.11c-.17-.1-.42.27-.61.2,0-.08.07-.11.03-.22-.07.23-.35.08-.44.25-.07-.1-.05-.28-.13-.39l-.13.26c-.35.61-.73-.1-1.16.19.02-.06.07-.11.04-.17-.69.33-1.51.2-2.26.28.04-.09.08-.26.04-.37-.06.28-.29.33-.49.37-.07-.3-.36.24-.58.06l.02-.06c-.2.29-.24-.2-.41.16l-.09-.24c-.07.26-.15.09-.23-.02l-1.37-1.58,1.36,1.05c.06.04.11.07.15-.01v-.08c.11-.12.2.08.31,0l.02.05c.28-.14.47.06.43-.25.13.24-.27.15-.06.5.28-.13.56-.23.85-.31l.02.35c-.67.09-1.35.07-2.02.07-.11-.13-.18-.17-.2-.29-.1.06-.36.06-.45.22.03,0-.06-.16-.11-.18-.09-.06-.14.03-.19.12v-.23c.06-.08.12-.15.2-.08-.08.08-.11.18-.1.3.18-.24.4-.19.59-.26-.03.05-.08.08-.08.18.23-.27.38.08.58-.08l-.08.18c.29.24.11-.38.36-.23-.07.05-.05.13-.06.2.09-.12.2-.17.32-.2l1.74-.46-1.73.86c-.19.09-.4.1-.55.2.01-.03,0-.08,0-.08-.25.08-.54.01-.8.2-.12-.07-.03-.45-.3-.34.06.37-.44.22-.22.61-.24-.03-.63-.11-.77.04.09-.16-.18-.43.01-.49l-.18-.2c0-.15.16.03.08-.15-.1.03-.36.22-.46.17-.15.25-.25.7-.54.78.12-.16-.14-.39-.05-.47l-.31.76c-.1.03-.06-.29-.19-.17.02.1-.03.16-.06.25-.04-.04-.39.15-.49-.2-.06-.14.15-.1.02-.21-.18.03-.17.15-.35.19v-.05c-.14-.04-.34.21-.18.39.08,0-.06-.21.07-.13-.05.22-.25.31-.43.34.05-.07.03-.16.04-.27-.2.32-.44.45-.7.6.02.17.06-.33.11-.24-.35-.17-.62.35-.93.19l-.1-1.73s.04.04.07.07c-.05.03-.02-.25-.02-.2.17.03.15.28.27.19,0,.15.14-.04.25-.08.06-.11.03.07-.07.09.16-.12.8-.33,1.16-.1,0-.1.24-.35.32-.34l-.04.23c.07.14.28-.01.29.18.19-.27-.7.21-.45,0,.06.19.35-.35.29-.04.17,0,.34-.26.49-.04-.05-.04-.15.31-.01.3.24-.03.07-.11.27-.18l.12-.09c.02-.22.21.04.13-.21.02.18.35-.1.31.27l-.04.29c.1-.02.18-.3.26-.43.01.03.04.09.03.13.03-.44.25.04.38-.3.21.16.55.03.64.31.17-.13.33-.29.51-.18-.04.04-.09.05-.11.15.12.13.15.02.26-.05-.03.07.23.27.36.43.17-.13.12-.37.14-.52.14.44.48-.27.65.14-.06.06-.25.21-.11.32.14.44.32-.31.55-.1l-.05-.37c.1.23.37-.2.33.17.09-.13.28.13.27-.23.25.2.57.09.84.14l-.04,2.33c-.16-.03-.29-.11-.38-.34-.06.06-.2,0-.17.18.1.2.13-.14.17,0-.05.01-.06.11-.07.16-.12-.08-.22-.11-.1-.4-.28-.22-.29.6-.64.47.02-.15-.01-.2-.11-.18l-.2.25c-.23-.06-.13-.33-.13-.58-.12.04-.27.03-.33.22l-.15-.31c.11.23-.1.15-.16.21l.06-.06c-.02-.11-.16-.04-.23,0,.02.15.16.22.24.26-.06.11-.16.08-.24.21.03-.24-.2-.17-.3-.2-.11-.05-.13.22-.16.21,0-.13-.18-.02-.09-.2.04-.04.09.12.15.01-.07-.09-.06-.32-.22-.15-.11.12.03.48-.19.33.06-.06.07-.16.11-.25l-.2-.13v.22c-.04-.06-.02-.08-.03-.11-.06.23-.31.07-.36.34-.1.02-.22-.15-.31-.18l.02-.02c-.12-.13-.28-.04-.38.11v-.05c-.06-.02-.21.02-.3.15-.17-.17-.06-.84-.24-.56-.17,0-.26.41-.2.55-.3-.15-.64.21-.92-.13-.04.09-.02.15-.11.2-.44-.09-.94.26-1.29-.17.13-.09,0-.22,0-.35-.11.2-.13-.21-.17.13.01.2,0,.3.12.38-.26.11-.67.11-.81-.08.07.09.02.15-.04.22.02-.32-.18-.37-.32-.26l-.02.2-.1-.2c-.06.06-.06.41-.21.22,0-.08-.02-.15-.04-.21-.15.16-.37.43-.53.27l-.14-.29c-.07.03-.19.2-.07.29-.28-.17-.46-.19-.55-.44-.33.41-.77.55-1.19.59v-3.32c.2-.02.39,0,.57,0l-.02.15c.15.14.08-.26.18-.15-.05.14.12.3,0,.47.22.15.28-.25.42-.32.02-.19-.11.12-.09-.12.02-.07.3.15.33-.14.05.11.01.33-.02.45l.13-.14c.16.34-.37.61-.2,1.03l.12-.05c.12.3-.32.34-.02.45.13-.14.25-.57.13-.69.28-.08.13-.69.43-.67.08.17-.24.04-.18.28.14.23.28-.13.41-.05-.14-.11-.02-.4.07-.46.15.14-.1.28.12.3.04-.17.23-.29.06-.41.08-.38.22.11.34-.19.07.27-.22.62.01.75-.04-.26.29-.35.17-.73.09.07.1.28.03.44.13.16.32-.47.36.04l.05-.26c.04.09.1.15.17.29.12,0,.38-.36.36.04.04-.04.3-.02.2-.3-.17-.17-.19.2-.28-.17.12.3.24-.04.33-.14l.02.15c.06-.06.19-.03.22-.19-.04.09-.02.19.02.23l.06-.23c.23-.12.05.41.28.34l-.17.18s.11.18.22.11c.04-.21.12-.47.16-.64.13-.09.06.24.18.02l-.16.26c-.02.07.11.35.28.35.11-.07.28-.38.11-.5.09,0,.2.13.14.28.19-.07-.03-.23.14-.36.07.14.28.35.41.55l-.17.36h.12c-.15.29.08.22,0,.52.08.05.17-.06.25-.13-.23-.48.26-.66.19-1.1.32-.12.2,1.07.53.38-.05-.12.1-.45-.1-.32.2.05.13-.44.36-.26-.17.18.18.45-.06.71.02-.15-.14-.11-.18-.07.08.17-.02.44.18.44.12-.04.29-.05.27-.28,0-.25-.19.03-.11-.23.24-.09.28.3.39-.15-.15.03-.19-.23-.19-.4l.18-.11-.03.17c.27.11.1-.26.33-.26v4.29s-.02,0-.03,0l-.13-.33c.03-.11.09-.12.16-.11v-3.4c-.11-.01-.22-.05-.19.23.08,0,.14-.03.19-.07v3.09c-.07.05-.13.09-.22.02.04-.04.09-.05.13-.09-.06-.02-.13-.63-.39-.27-.13.14-.04.17-.04.34-.29.05-.38.23-.57.26.04-.34-.33-.03-.12-.38.1.2.52.18.62-.14-.11-.4.23.06.29-.35-.23,0-.22-.41-.26-.67-.06-.02-.13.09-.17.13-.03.24.06.24.06.49-.26-.07-.51.07-.65.31-.09-.12-.06-.37.04-.39-.31.07-.64.04-.93-.03.19.4-.33.09-.2.43.16.09.29.37.21.55-.1-.03,0-.17-.04-.26-.13.22-.2-.35-.32,0,.28-.13.06-.49.11-.8-.2.18,0-.22-.19-.22-.2.17-.45.31-.68.38-.28-.3-.72,0-.97,0-.13-.16-.04-.51-.19-.57-.17,0,.13.38-.12.22l.02-.07c-.08.08-.46-.24-.53.27l.08-.38s-.09.05-.13.09c0-.12-.06-.24.02-.32-.15-.26-.32.04-.49.05l.11.23c-.29.18-.48-.05-.76.03v-.22s-.16.13-.16.13c.04-.21-.11-.35-.2-.17l.43-.54c.12.13-.13.27-.06.49.06.19.32.13.36-.08-.1-.02-.1.02-.18.1-.03-.31.12-.3.19-.5-.05.01-.12-.08-.14.02.1-.15.2-.17.37-.18-.11.12.06.19.02.28.01-.27.17-.36.38-.28.15.31.39-.2.63-.12-.1.28-.22.5-.37.61.15.14.17,0,.32.13.07-.21.13-.52.32-.64v.2c.19-.1.19-.4.42-.35.39.1.79.1,1.09.13v.2c.18-.43.56-.16.79-.35.38.2.83-.19,1.02.16.36-.08.69-.16,1.03-.21v1.65c-.3.04-.6.06-.92.02l.12-.3c-.12.22-.08-.17-.2-.13.14.24-.17.31-.26.49-.31-.23-.71.02-.98.23v-.2c-.29.38-.62.05-.96-.02-.04-.08-.1-.27-.21-.25-.19.33-.29.3-.56.51-.2,0-.53-.08-.73-.21-.76.46-1.53.17-2.31.44l-.06-.24c-.3.2-.64.25-.97.25v-2.86c.5,0,.99.1,1.38-.05l-.06.41c.2.13.46-.11.41-.4.2.12.51-.2.64.14.21.08.26-.19.43-.24.42.15.57.12.97.04l-.1-.03c-.04.09-.05.26.05.29.15-.11.54.11.39-.38.42.28.98-.23,1.39.15-.03-.13.07-.16.11-.25.37,0,.76.27,1.05.04.06.07-.09.23.06.24.09-.05,0-.17.11-.25.6-.25,1.21.26,1.75.19.97-.26,1.97-.13,2.9-.17v.1s.02-.03.03-.04l-.05,3.27c-.31.26-.68-.42-.94.11-.07-.1-.28-.05-.22-.24-.26.26-.68-.27-1.05.05.03.01.05,0,.09-.05-.35-.23-.68.06-1.05-.15.04-.04.11-.07.13-.17-.14-.19-.36.4-.43-.07-.08,0-.07.23-.02.22-.83-.21-1.73.06-2.6.14-.61-.3-.01-.79-.51-.46-.04-.09-.03.18-.04.08-.19.13-.28-.53-.42-.29.05.29-.09.16-.1.33-.37-.2-.44-.46-.75-.25l.03-.15c-.13.15-.27.22-.41.26l-.14-2.53c.22-.12.45-.17.59-.51,1.91-.37,3.7-.91,5.57-1.23.33-.03.66-.07.99-.12l.17,4.15-1.72-.08.12-4.22c.95-.01,1.9,0,2.87.12.04.04.09.08.11.11l4.88,6.73-4.66-3c-.38-.24-.45-.21-.87-.01.01-.07.04-.08,0-.14.01.33-.34.07-.35.39-.16,0-.32.02-.47.04l-.08-3.85c.53.05,1.04.03,1.6.07-.12.03-.19.29-.06.28l.16-.2.02.09c.1-.04.21-.19.12-.31,1.82-.14,3.53.65,5.29.72l10.04.4-9.68,3.22h-.03c-.44,0-.99.28-1.41.47-1.43-.05-2.7-.05-3.94.62,0,0-.06-.86.43-1.21Z"/>
    <path class="cls-3" d="M153.24,149.76c.05.16.21.25.08.47-.02-.15-.1-.33-.08-.47Z"/>
    <path class="cls-3" d="M157.46,151.45s.06.07.07.09c-.05.01-.1.15-.14.06.05-.01.04-.09.07-.16Z"/>
    <path class="cls-3" d="M158.54,151.55c-.02.15-.25.26-.38.28l.38-.28Z"/>
    <path class="cls-3" d="M159.54,152.15c.09.12.06.19-.05.19,0-.08.03-.12.05-.19Z"/>
    <path class="cls-3" d="M159.61,151.82c.08,0,.12.08.17.17,0-.12-.19.08-.17-.17Z"/>
    <path class="cls-3" d="M158.36,148.43c-.05.01-.17.13-.21-.03.05.11.26-.19.21.03Z"/>
    <path class="cls-3" d="M157.34,148.65s-.05-.04-.08,0c-.06-.07,0-.17.05-.19l.03.18Z"/>
    <polygon class="cls-3" points="161.97 149.19 162.08 149.13 162.06 149.27 161.97 149.19"/>
    <path class="cls-3" d="M156.8,150.96c.1-.11.1.12.12.14-.1.03.01-.18-.12-.14Z"/>
    <polygon class="cls-3" points="161 149.61 160.97 149.62 160.94 149.32 161 149.61"/>
  </g>
  <g>
    <path class="cls-3" d="M152.66,150.75c.06-.07-.03-.26.04-.11,0,.12-.02.21-.04.11Z"/>
    <path class="cls-3" d="M159.66,149.84c-.18.76-.41,0-.61.48-.02.03,0-.42-.05-.32-.19.59-.49.24-.72-.22v-.12c-.03-.09-.08.31-.13.25,0-.08.01-.11,0-.22-.01.24-.08.11-.1.29-.02-.09-.02-.28-.04-.38l-.03.27c-.07.64-.18-.05-.28.29,0-.06.01-.11,0-.17-.16.39-.37.32-.55.46,0-.1.01-.27,0-.38,0,.28-.07.36-.11.41-.02-.29-.08.27-.14.11v-.06c-.04.3-.06-.18-.09.19l-.03-.23c-.02.41-.06-.21-.1,0v.08c-.03.1-.05-.11-.08-.04v-.05c-.07.11-.12-.12-.11.2-.03-.26.07-.12.03-.49-.23.33-.48.27-.71.27-.03-.13-.04-.17-.05-.29-.02.06-.09.06-.11.22,0,0-.02-.16-.03-.18-.04-.12-.05.35-.09.21.02-.09.03-.19.02-.31-.04.25-.09.21-.14.29,0-.05.02-.09.02-.19-.05.28-.1-.06-.14.12l.02-.19c-.07-.22-.02.39-.09.25.02-.06,0-.13.01-.21-.06.34-.16.23-.21.34,0-.03,0-.08,0-.08-.06.04-.13-.06-.2.08-.03-.08,0-.45-.06-.38,0,.37-.12.15-.08.57-.06-.06-.15-.2-.19-.07.03-.14-.03-.45.02-.49l-.04-.22c0-.15.04.05.03-.14-.02.01-.1.16-.12.1-.04.23-.09.65-.16.7.03-.14-.02-.41,0-.47l-.1.71s0-.29-.04-.2c0,.1-.01.16-.02.24,0-.04-.1.09-.11-.27-.01-.14.04-.08.01-.21-.04,0-.05.13-.09.13v-.05c-.03-.05-.09.16-.06.36.02.01,0-.22.02-.11-.02.21-.07.27-.12.28.02-.06.01-.16.02-.26-.06.29-.12.38-.19.5,0,.17.03-.32.03-.22-.09-.24-.18.34-.25-.01.01-.03,0,.25,0,.2-.04-.02-.04-.27-.07-.18,0-.15-.03.05-.06.09-.01.11,0-.07.02-.09-.04.13-.19.35-.28.14,0,.1-.06.36-.08.35v-.23c-.01-.14-.06.02-.06-.18-.04.28.17-.24.11-.02-.02-.19-.08.36-.07.05-.04,0-.08.27-.12.05.01.04.03-.32,0-.3-.06.04-.02.11-.06.19l-.03.09c0,.22-.05-.03-.03.22,0-.18-.09.11-.08-.26v-.29s-.03.31-.05.44c0-.03-.01-.09,0-.13,0,.44-.06-.04-.09.31-.05-.15-.14-.01-.16-.29-.04.13-.08.3-.12.2,0-.04.02-.05.02-.15-.03-.13-.04-.01-.06.06,0-.07-.06-.26-.09-.42-.04.13-.03.37-.03.52-.04-.44-.11.28-.16-.12.01-.06.06-.22.03-.33-.04-.44-.08.32-.14.11v.36c-.01-.23-.07.21-.07-.16-.02.13-.07-.12-.06.24-.1-.3-.24.18-.3-.46-.01.06-.05,0-.04.18.02.2.03-.14.04,0-.01.01-.02.11-.02.16-.03-.08-.05-.11-.03-.4-.07-.22-.07.6-.16.47,0-.15,0-.2-.03-.18l-.05.25c-.06-.06-.03-.33-.03-.58-.03.04-.07.03-.08.22l-.04-.31c.03.23-.02.15-.04.21v-.06c0-.1-.03-.04-.04,0,0,.15.04.22.06.26-.02.11-.04.08-.06.21,0-.24-.05-.17-.07-.2-.03-.05-.03.22-.04.21,0-.13-.04-.02-.02-.2,0-.04.02.12.04.01-.02-.09-.02-.32-.05-.15-.03.12,0,.48-.05.33.01-.06.02-.16.03-.25l-.05-.13v.22c0-.06,0-.08,0-.11-.01.23-.08.07-.09.34-.03.02-.05-.15-.08-.18v-.02c-.02-.13-.06-.04-.09.11v-.05s-.05.02-.07.15c-.04-.17-.01-.84-.06-.56-.04,0-.06.41-.05.55-.07-.15-.16.21-.23-.13-.01.09,0,.15-.03.2-.11-.09-.23.26-.32-.17.03-.09,0-.22,0-.35-.03.2-.03-.21-.04.14,0,.2,0,.3.03.38-.06.11-.16.11-.2-.08.02.09,0,.15-.01.22,0-.32-.04-.37-.08-.26v.2s-.03-.2-.03-.2c-.01.06-.02.41-.05.22,0-.08,0-.15-.01-.21-.04.16-.09.43-.13.27l-.03-.29s-.05.2-.02.29c-.07-.17-.11-.19-.14-.44-.02.11-.05.2-.07.27v-2.69c.11-.33.25-.34.36-.31v.15c.03.14.02-.26.04-.15-.01.14.03.3,0,.47.05.15.07-.25.1-.32,0-.19-.03.12-.02-.12,0-.07.07.15.08-.14.01.11,0,.33,0,.45l.03-.14c.04.34-.09.61-.05,1.03l.03-.05c.03.3-.08.34,0,.45.03-.14.06-.57.03-.69.07-.08.03-.69.1-.67.02.17-.06.04-.04.28.03.23.07-.13.1-.05-.03-.11,0-.4.02-.46.04.14-.02.28.03.3,0-.17.06-.29.02-.41.02-.38.05.11.08-.19.02.27-.05.62,0,.75,0-.26.07-.35.04-.73.02.07.03.28,0,.44.03.16.08-.47.09.04v-.26c.02.09.03.15.05.29.03,0,.09-.36.09.04,0-.04.07-.02.05-.3-.04-.17-.05.2-.07-.17.03.3.06-.04.08-.14v.15c.02-.06.05-.03.06-.19-.01.09,0,.19,0,.23v-.23c.07-.12.03.41.08.34l-.04.18s.03.18.05.11c.01-.21.03-.47.04-.64.03-.09.01.24.04.02l-.04.26c0,.07.03.35.07.35.03-.07.07-.38.03-.5.02,0,.05.13.03.28.05-.07,0-.23.03-.36.03.14.06.35.1.55l-.04.36h.03c-.04.29.02.22,0,.52.02.05.04-.06.06-.13-.06-.48.06-.66.05-1.1.08-.12.05,1.07.13.38-.01-.11.02-.45-.02-.32.05.05.03-.44.09-.26-.04.18.05.45-.02.71,0-.15-.03-.11-.04-.07.02.17,0,.44.05.44.03-.04.07-.05.07-.28,0-.25-.05.03-.03-.23.06-.09.07.3.09-.15-.04.03-.05-.23-.05-.4l.04-.11v.17c.06.12.01-.3.08-.26l.03.33c-.02.29-.1-.13-.09.34.04.02.06-.22.1-.1-.01.04-.02.05-.03.09.02.02.03.63.1.27.03-.14,0-.17,0-.34.07-.05.09-.23.14-.26,0,.34.08.03.03.38-.02-.2-.13-.18-.15.14.03.4-.06-.06-.07.35.06,0,.05.41.06.67.02.02.03-.09.04-.13,0-.24-.01-.24-.02-.49.06.07.13-.07.16-.31.02.12.01.37-.01.39.08-.07.16-.04.23.03-.05-.4.08-.09.05-.43-.04-.09-.07-.37-.05-.55.02.03,0,.17,0,.26.03-.22.05.35.08,0-.07.13-.01.49-.03.8.05-.18,0,.22.05.22.05-.17.11-.31.17-.38.07.3.18,0,.24,0,.03.16.01.51.05.57.04,0-.03-.38.03-.22v.07c.01-.08.11.24.12-.27l-.02.38s.02-.05.03-.09c0,.12.01.24,0,.32.04.26.08-.04.12-.05l-.03-.23c.07-.18.12.05.19-.03v.22s.04-.13.04-.13c0,.21.03.35.05.17l-.11.54c-.03-.13.03-.27.01-.49-.02-.19-.08-.13-.09.08.02.02.03-.02.04-.1,0,.31-.03.3-.05.5.01-.01.03.08.03-.02-.02.15-.05.17-.09.18.03-.12-.02-.19,0-.28,0,.27-.04.36-.09.28-.04-.31-.1.2-.16.12.02-.28.05-.5.09-.61-.04-.14-.04,0-.08-.13-.02.21-.03.52-.08.64v-.2c-.05.1-.05.4-.1.35-.1-.1-.19-.1-.27-.13v-.2c-.04.43-.14.16-.19.35-.09-.2-.2.19-.25-.16-.16.16-.31.31-.48.23l.03-.3c-.03.22-.02-.17-.05-.13.03.24-.04.31-.06.49-.08-.23-.17.02-.24.23v-.2c-.07.38-.15.05-.24-.02,0-.08-.03-.27-.05-.25-.05.33-.07.3-.14.51-.05,0-.13-.08-.18-.21-.19.46-.38.17-.57.44v-.24c-.16.4-.33.21-.47.22v-2.8s.08-.03.12-.09l-.02.41c.05.13.11-.11.1-.4.05.12.13-.2.16.14.05.08.06-.19.11-.24.1.15.14.12.24.04l-.02-.03c-.01.09-.01.26.01.29.04-.11.13.11.1-.38.1.28.24-.23.34.15,0-.13.02-.16.03-.25.09,0,.19.26.26.04.01.07-.02.23.01.24.02-.05,0-.17.03-.25.15-.25.3.26.43.19.24-.26.49-.13.71-.17v.1c.07-.37.18.38.24-.18.02.09.07.04.06.23.06-.26.17.25.26-.09,0,0-.01.01-.02.05.09.22.17-.08.26.12,0,.04-.03.07-.03.17.04.19.09-.41.11.06.02,0,.01-.24,0-.22.2.18.42-.12.64-.22.15.28,0,.79.13.44,0,.09,0-.18,0-.08.05-.13.07.53.1.28-.01-.29.02-.16.02-.34.09.19.11.45.19.23v.15c.08-.43.18-.2.25-.7.48-.09.93-.37,1.4-.42.46.09.91-.13,1.37.13.11.4.12.39.24.23,0,.06-.01.08,0,.14,0-.33.08-.03.1-.34.17.06.33-.03.51-.03-.03.04-.04.3,0,.28l.03-.21v.09s.05-.21.03-.32c.45-.28.88.37,1.32.29.1.14.25.01.36-.06.33.44.63.79.97.48,0,0-.04.85-.18,1.04Z"/>
    <path class="cls-3" d="M152.59,150.78c-.01-.16-.05-.25-.02-.47,0,.15.02.33.02.47Z"/>
    <path class="cls-3" d="M151.56,149.1s-.01-.07-.02-.09c.01-.01.02-.15.03-.06-.01.01-.01.09-.02.16Z"/>
    <path class="cls-3" d="M151.29,149c0-.15.06-.26.09-.28l-.09.28Z"/>
    <path class="cls-3" d="M151.05,148.4c-.02-.12-.02-.19.01-.19,0,.08,0,.12-.01.19Z"/>
    <path class="cls-3" d="M151.03,148.73s-.03-.08-.04-.17c0,.12.05-.08.04.17Z"/>
    <path class="cls-3" d="M150.49,148.31s-.04.13-.05-.03c.01.11.06-.19.05.03Z"/>
    <path class="cls-3" d="M150.24,148.53s-.01-.04-.02,0c-.01-.07,0-.17.01-.19v.18Z"/>
    <polygon class="cls-3" points="151.72 151.31 151.69 151.38 151.7 151.24 151.72 151.31"/>
    <path class="cls-3" d="M153.71,151.3c.03-.09.02.14.02.16-.02.01,0-.18-.02-.16Z"/>
    <polygon class="cls-3" points="154.78 150.57 154.77 150.58 154.77 150.28 154.78 150.57"/>
  </g>
  <g>
    <path class="cls-3" d="M165.64,148.9c-.09.03-.07.25-.09.08.06-.1.11-.18.09-.08Z"/>
    <path class="cls-3" d="M173.41,150.84c-.24.76-.52-.01-.78.47-.03.03.01-.42-.05-.32-.25.59-.62.23-.91-.23l.02-.12c-.05-.09-.13.3-.19.25,0-.08.02-.11,0-.22-.02.24-.11.11-.14.28-.02-.09-.02-.28-.05-.38l-.04.27c-.1.64-.23-.05-.36.28,0-.06.02-.11.01-.17-.21.39-.47.31-.7.45.01-.09.02-.27,0-.38-.01.28-.09.35-.15.41-.02-.29-.11.26-.18.1v-.06c-.05.3-.07-.18-.12.19l-.03-.23c-.03.41-.07-.21-.12,0v.08c-.04.1-.06-.11-.1-.04v-.05c-.09.11-.14-.12-.15.2-.03-.26.09-.12.04-.49-.3.33-.61.26-.91.26-.03-.13-.05-.17-.06-.29-.03.06-.11.06-.14.22.01,0-.02-.16-.03-.18-.05-.12-.06.35-.12.21.02-.09.03-.19.03-.31-.05.25-.12.21-.18.29.01-.05.03-.09.02-.19-.07.28-.12-.06-.18.12l.02-.18c-.09-.23-.03.39-.11.25.02-.06.01-.13.02-.21-.08.34-.2.22-.28.34,0-.03,0-.08,0-.08-.08.04-.17-.06-.26.08-.03-.08.02-.45-.07-.38,0,.37-.15.15-.1.57-.07-.06-.19-.2-.24-.08.03-.14-.03-.45.03-.48l-.04-.22c0-.15.05.05.03-.14-.03.01-.12.16-.15.1-.06.23-.12.65-.21.7.05-.14-.02-.41.01-.47l-.14.71s0-.29-.05-.2c0,.1-.02.16-.03.24-.01-.04-.13.09-.14-.27-.01-.14.05-.08.02-.21-.06,0-.06.13-.12.13v-.05c-.04-.05-.11.15-.07.36.03.01,0-.22.03-.11-.03.21-.1.27-.15.27.02-.06.02-.16.03-.26-.08.29-.16.38-.25.49,0,.17.04-.32.05-.22-.11-.24-.23.34-.32-.01.02-.03,0,.25,0,.2-.05-.02-.05-.27-.08-.18,0-.15-.04.05-.08.09-.02.11,0-.07.02-.09-.05.13-.25.35-.36.13,0,.1-.07.36-.1.35v-.23c0-.14-.07.02-.08-.18-.06.28.22-.23.14-.02-.02-.19-.11.36-.09.05-.05,0-.11.26-.15.05.01.04.05-.32,0-.3-.07.04-.02.11-.08.18l-.04.09c0,.22-.07-.03-.04.22,0-.18-.11.11-.1-.26v-.29s-.04.31-.07.43c0-.03-.01-.09,0-.13-.01.44-.08-.04-.12.31-.07-.16-.17-.02-.2-.29-.05.13-.1.29-.16.2.01-.04.03-.05.03-.15-.04-.13-.05-.01-.08.06,0-.07-.07-.26-.11-.42-.05.13-.04.37-.05.52-.04-.44-.15.28-.2-.12.02-.06.08-.21.04-.33-.04-.44-.1.32-.17.11v.36c-.02-.23-.1.21-.09-.16-.03.13-.09-.12-.08.23-.12-.3-.31.18-.37-.46-.02.06-.06,0-.06.18.03.2.04-.14.05,0-.02.01-.02.11-.02.16-.04-.08-.07-.11-.03-.4-.08-.22-.1.6-.2.46,0-.15,0-.2-.03-.18l-.06.25c-.07-.06-.04-.33-.04-.58-.04.04-.08.03-.1.22l-.04-.31c.03.23-.03.15-.05.21l.02-.06c0-.11-.05-.04-.07,0,0,.15.05.22.07.26-.02.11-.05.08-.08.21.01-.24-.06-.17-.09-.2-.03-.05-.04.22-.05.21,0-.13-.06-.02-.03-.2.01-.04.03.12.05.01-.02-.09-.02-.32-.07-.16-.04.12,0,.48-.06.33.02-.06.02-.16.04-.25l-.06-.13v.22c-.01-.06,0-.08-.01-.11-.02.23-.1.07-.12.33-.03.02-.07-.15-.1-.18v-.02c-.03-.13-.08-.05-.11.1v-.05s-.07.02-.09.15c-.05-.17,0-.84-.07-.56-.05,0-.09.41-.07.55,0-.02-.02-.03-.03-.03l-8.59-5.39,8.34,2.88c.1.03.13-.24.27.04,0-.09-.03-.14-.01-.2.15.06.23-.32.43.08-.02.1.04.22.07.34-.01-.2.08.19.02-.14-.05-.2-.06-.29-.12-.36.06-.12.18-.15.26.02-.04-.09-.04-.15-.03-.21.06.31.13.35.15.23l-.04-.19.07.19c0-.06-.07-.4.02-.23.02.07.04.15.06.2.01-.17.02-.45.11-.29l.1.27s.01-.21-.04-.28c.12.15.18.16.26.39.02-.62.23-.69.41-.69l.03.14c.08.12-.03-.26.02-.16.01.14.1.29.1.46.1.14.03-.27.06-.34-.03-.19,0,.13-.05-.11,0-.07.12.13.07-.16.04.11.07.32.09.44v-.15c.13.32.03.62.17,1.02l.03-.05c.1.29-.03.36.09.44.01-.15-.05-.57-.11-.69.07-.1-.11-.69-.01-.68.06.16-.06.06,0,.29.09.22.06-.15.11-.07-.07-.1-.09-.39-.08-.45.08.12.03.28.1.29-.03-.17,0-.3-.07-.41-.06-.38.09.09.06-.21.08.26.06.62.17.73-.07-.25.01-.36-.11-.73.04.07.09.26.1.42.07.15,0-.48.12.02l-.04-.26c.03.08.06.14.11.28.04,0,.04-.37.12.02,0-.04.09-.04,0-.31-.09-.15-.01.21-.12-.15.1.29.06-.05.07-.16l.04.15c0-.06.05-.04.03-.2,0,.09.03.19.06.22l-.03-.23c.05-.13.1.4.16.32v.19s.06.17.08.09c-.03-.21-.07-.47-.09-.63.02-.1.07.23.06,0v.26c.01.07.11.34.16.32.02-.08,0-.39-.07-.5.03,0,.09.11.1.27.04-.08-.06-.22-.03-.36.05.13.16.32.24.51l.02.36h.04c.02.29.07.2.11.51.03.04.04-.07.05-.15-.17-.46-.06-.66-.18-1.09.07-.14.29,1.04.24.34-.04-.11-.07-.45-.1-.31.07.03-.05-.44.06-.28-.01.19.15.43.13.7-.03-.14-.07-.1-.07-.06.06.16.09.43.15.42.03-.05.08-.07.02-.29-.06-.25-.05.04-.08-.22.06-.1.15.27.09-.17-.04.04-.11-.21-.14-.38l.03-.11.03.17c.11.1-.04-.3.06-.28l.11.32c.04.28-.15-.1-.04.35.06,0,.03-.23.1-.12,0,.04-.02.06-.02.1.02.01.17.61.18.24.01-.15-.02-.16-.06-.33.08-.07.07-.25.12-.29.06.34.11,0,.12.36-.07-.19-.2-.14-.16.18.12.39-.08-.04-.01.36.07,0,.15.38.22.63.02.01.02-.1.02-.14-.04-.24-.07-.23-.12-.48.09.05.14-.1.13-.34.05.11.1.35.07.38.08-.09.19-.08.29-.03-.14-.38.08-.11-.03-.43-.07-.08-.17-.35-.18-.53.04.02.04.17.07.25,0-.22.13.33.1-.02-.06.14.09.48.14.79.02-.19.04.22.11.2.02-.14.05-.26.09-.35l-.16,1.47s-.05.02-.07.03c.04-.31-.2-.1-.28-.12.03-.16.2-.47.19-.54-.05-.02-.13.36-.13.18l.04-.06c-.06.06-.03-.28-.26.17l.18-.34s-.05.04-.08.07c.05-.11.08-.22.14-.29.07-.26-.11,0-.16-.02l-.06.22c-.16.12-.12-.11-.23-.07l.1-.2-.1.1c.1-.19.12-.34.02-.18l.35-.44c-.02.13-.15.23-.22.43-.06.18.04.16.14-.03-.02-.04-.04,0-.09.07.12-.28.16-.25.27-.43-.02,0,0-.09-.05,0,.09-.12.13-.13.18-.12-.08.09-.06.18-.11.26.12-.24.2-.3.23-.2-.09.3.2-.13.23-.02-.14.24-.27.42-.36.5-.02.15.05.02.04.16.11-.18.25-.45.36-.54l-.08.19c.09-.07.22-.34.26-.26.05.1.12.16.17.2l1.5,1.16-1.63.04s-.07,0-.1,0l-.05-.2c.04.43-.13.19-.16.4-.16-.17-.21.24-.34-.08-.17.2-.32.38-.54.36l-.03-.3c0,.22-.06-.16-.09-.11.09.22.01.31.03.49-.14-.2-.21.07-.25.29l-.05-.2c0,.39-.18.09-.29.05-.03-.08-.09-.26-.12-.23.01.33-.02.32-.06.53-.06.01-.18-.04-.27-.16-.13.5-.43.26-.61.59l-.07-.23c-.12.55-.51.16-.65.46l-.07-.4c-.09-.11-.12.14-.04.41-.09-.11-.11.23-.22-.09-.08-.06-.04.2-.08.27-.16-.12-.2-.08-.3.02l.04.02c0-.09-.04-.26-.08-.28-.02.12-.19-.07-.04.39-.19-.25-.25.29-.46-.05.04.13.01.16.02.25-.07.02-.16-.06-.23-.08l-.33-3.21s.08,0,.12-.08c.02.07-.03.23.01.24.03-.05,0-.17.04-.25.19-.25.37.26.54.2.3-.25.62-.12.91-.16v.1c.1-.37.22.38.3-.18.02.09.09.05.07.23.08-.26.21.25.33-.08-.01,0-.02.01-.03.05.11.22.21-.08.33.12-.01.04-.03.07-.04.17.04.19.11-.41.13.06.03,0,.02-.24,0-.22.26.19.54-.11.81-.22.19.28,0,.79.16.44.01.09.01-.18.01-.08.06-.13.09.53.13.28-.01-.29.03-.16.03-.34.12.19.14.45.23.23v.15c.11-.43.23-.2.33-.69.6-.08,1.19-.35,1.78-.4.58.1,1.15-.11,1.74.16.13.4.14.39.3.23,0,.06-.02.08,0,.14.01-.33.11-.03.13-.34.22.06.42-.02.64-.02-.04.03-.06.3-.01.28l.05-.21v.09s.07-.21.04-.31c.57-.28,1.12.39,1.67.31.13.14.32.01.46-.05.42.44.79.8,1.23.5,0,0-.07.85-.25,1.04Z"/>
    <path class="cls-3" d="M165.73,148.9c-.06.16-.05.26-.18.44.06-.14.11-.31.18-.44Z"/>
    <path class="cls-3" d="M166.12,148.85s-.03-.06-.04-.09c.01-.02,0-.15.03-.07-.01.02,0,.09.01.16Z"/>
    <path class="cls-3" d="M165.77,148.83c-.03-.14.02-.27.06-.3l-.06.3Z"/>
    <path class="cls-3" d="M165.34,148.31c-.05-.11-.06-.18-.02-.19.02.08.02.12.02.19Z"/>
    <path class="cls-3" d="M165.39,148.64s-.06-.07-.09-.15c.03.12.04-.09.09.15Z"/>
    <path class="cls-3" d="M164.64,148.37s-.02.14-.07-.01c.04.11.04-.2.07.01Z"/>
    <path class="cls-3" d="M164.37,148.65s-.02-.03-.02,0c-.03-.06-.04-.17-.02-.19l.05.18Z"/>
    <polygon class="cls-3" points="163.33 152.19 163.29 152.26 163.3 152.12 163.33 152.19"/>
    <path class="cls-3" d="M165.84,152.21c.04-.09.02.14.03.16-.03.01.01-.18-.03-.16Z"/>
    <polygon class="cls-3" points="167.21 151.5 167.2 151.5 167.21 151.21 167.21 151.5"/>
  </g>
  <g>
    <path class="cls-3" d="M174.13,150.13c-.04-.07-.24-.1-.09-.08.1.06.18.11.09.08Z"/>
    <path class="cls-3" d="M181.77,149.45c-.11.77-.33,0-.47.5-.02.03-.01-.42-.05-.31-.13.6-.38.26-.59-.19v-.12c-.03-.08-.06.31-.1.26,0-.08,0-.11,0-.22,0,.24-.06.11-.07.29-.02-.09-.03-.28-.05-.38v.27c-.04.64-.16-.04-.22.3,0-.06,0-.11,0-.17-.11.39-.28.33-.42.48,0-.1,0-.27-.01-.37,0,.28-.04.36-.07.41-.03-.29-.06.27-.11.11v-.07c-.02.31-.06-.17-.07.19l-.03-.23c0,.41-.06-.21-.08,0v.08c-.02.1-.04-.1-.06-.03v-.05c-.06.11-.1-.12-.08.2-.03-.25.05-.12,0-.49-.17.34-.37.28-.56.3-.03-.13-.04-.17-.05-.29-.02.07-.07.06-.08.23,0,0-.02-.16-.03-.18-.04-.12-.02.35-.07.21.01-.09.01-.19,0-.31-.02.25-.07.21-.1.3,0-.05.01-.09,0-.19-.03.28-.08-.06-.11.12v-.19c-.06-.22,0,.39-.05.26,0-.06,0-.13,0-.21-.03.34-.11.23-.16.35,0-.03,0-.08,0-.08-.05.04-.11-.06-.16.09-.02-.08-.01-.45-.07-.38.02.37-.09.16-.03.57-.05-.06-.13-.19-.16-.07.01-.14-.04-.45,0-.49l-.04-.22c0-.15.03.05.01-.14-.02.02-.07.17-.09.11-.03.23-.04.65-.1.7.02-.15-.03-.41-.02-.47l-.05.71s-.02-.29-.04-.19c0,.1,0,.16,0,.24,0-.04-.08.1-.1-.27-.02-.14.03-.08,0-.21-.04,0-.03.13-.07.14v-.05c-.03-.05-.07.16-.03.36.02.01-.02-.22.01-.11,0,.21-.05.27-.08.28,0-.06,0-.16,0-.26-.04.29-.08.38-.13.5,0,.17,0-.32.02-.23-.08-.24-.13.35-.2,0,0-.03.02.25.01.2-.03-.02-.04-.27-.06-.18,0-.15-.03.05-.05.09,0,.11,0-.07,0-.09-.03.13-.14.36-.22.15,0,.1-.03.36-.04.35v-.23c-.03-.14-.06.02-.07-.17-.02.28.13-.24.09-.03-.02-.19-.05.37-.05.06-.03,0-.05.27-.09.06.01.04.01-.32-.01-.3-.05.04,0,.11-.04.19l-.02.09c0,.22-.04-.03-.01.22-.01-.18-.06.12-.08-.25v-.29s-.03.31-.04.44c0-.03-.01-.09-.01-.13.02.44-.05-.03-.06.31-.05-.15-.11,0-.14-.29-.03.14-.05.3-.09.2,0-.04.02-.06.01-.15-.03-.13-.03-.01-.05.06,0-.07-.06-.26-.09-.41-.03.13,0,.37,0,.52-.05-.44-.08.29-.13-.11,0-.06.04-.22,0-.33-.05-.44-.05.33-.1.12l.03.36c-.03-.22-.06.21-.07-.16-.01.13-.06-.12-.04.24-.09-.3-.18.19-.26-.44,0,.06-.04,0-.03.18.03.2.02-.14.03,0,0,.01,0,.11,0,.16-.03-.08-.05-.11-.04-.4-.06-.22-.03.61-.11.47,0-.15-.01-.2-.03-.18l-.03.25c-.05-.06-.04-.33-.05-.58-.02.04-.05.03-.05.22l-.04-.31c.03.23-.01.15-.02.21v-.06c0-.1-.03-.04-.04,0,.01.15.04.22.06.26,0,.11-.03.09-.04.22,0-.24-.05-.17-.07-.2-.02-.05-.01.22-.02.21,0-.13-.04-.02-.03-.2,0-.04.02.12.03.01-.02-.09-.03-.31-.05-.15-.02.12.03.48-.02.33,0-.06,0-.16.01-.25l-.05-.12v.22c0-.06,0-.08,0-.11,0,.23-.06.07-.06.34-.02.02-.05-.15-.07-.18v-.02c-.03-.13-.05-.04-.07.11v-.05s-.02,0-.03.03l.21-2.35s.03-.06.05-.11c0,.17-.18.82-.08.56.03,0,.14-.39.16-.53.02.16.17-.18.15.17.03-.09.04-.14.06-.19.07.11.24-.22.21.23-.05.09-.05.22-.08.34.06-.19-.02.21.06-.12.04-.2.07-.29.06-.38.08-.09.15-.08.14.11,0-.09.03-.15.06-.21-.08.31-.05.37,0,.26l.05-.19-.03.2c.02-.06.1-.4.09-.21-.01.07-.03.15-.04.2.07-.15.17-.4.16-.24l-.04.28s.08-.19.08-.28v.05s.27,3.26.27,3.26l-.26-.4c-.08-.12-.12-.15-.18-.36.05.61-.08.66-.2.65l-.03-.14c-.06-.13.04.25,0,.16-.02-.14-.09-.29-.11-.46-.08-.14,0,.26,0,.33.04.19,0-.12.04.11.01.07-.09-.13-.03.15-.04-.11-.08-.32-.1-.43v.14c-.1-.32-.06-.61-.19-1.01v.05c-.11-.29-.03-.35-.11-.44,0,.15.08.56.14.68-.03.09.14.68.07.67-.06-.16.04-.05-.03-.28-.08-.22-.02.14-.07.07.05.1.1.39.09.45-.06-.13-.04-.27-.09-.29.03.17.02.3.08.4.07.37-.07-.09-.02.2-.08-.26-.1-.61-.18-.73.07.25.02.35.14.72-.04-.07-.08-.27-.11-.42-.06-.15.05.47-.08-.02l.05.26c-.03-.08-.05-.14-.1-.28-.02,0,.01.36-.08-.02,0,.04-.05.04.03.3.07.16,0-.2.09.15-.09-.29-.04.05-.03.15l-.04-.15c0,.06-.03.03,0,.2-.01-.09-.04-.19-.06-.22l.04.23c-.02.12-.11-.4-.13-.32v-.18s-.07-.17-.08-.09c.04.21.09.46.12.63,0,.1-.07-.23-.04-.01l-.03-.26c-.01-.07-.1-.34-.13-.33,0,.08.04.39.1.49-.02,0-.07-.11-.09-.27-.02.08.06.22.06.36-.05-.13-.13-.33-.21-.52l-.05-.36h-.02c-.04-.28-.07-.21-.12-.51-.03-.04-.02.06-.02.14.16.46.1.66.22,1.08-.03.13-.29-1.04-.19-.35.04.11.08.44.09.31-.05-.04.08.44-.01.27,0-.18-.14-.43-.15-.69.03.14.05.1.05.06-.05-.16-.1-.43-.14-.42-.01.05-.04.06.01.29.06.25.03-.03.07.22-.03.1-.12-.28-.04.16.02-.04.09.21.13.38v.11s-.04-.16-.04-.16c-.08-.1.05.3-.01.27l-.1-.32c-.05-.28.11.11,0-.35-.04-.01,0,.22-.06.11,0-.04,0-.05,0-.1-.02-.01-.17-.61-.14-.25,0,.14.03.16.07.33-.04.06-.02.24-.05.28-.03-.14-.05-.17-.06-.17l-3.25-1.83,1.46-.52s.01-.02.18.09h-.03s0-.01,0-.01h0s1.61,2.11,1.61,2.11h0s0,.01,0,.01c0,0,0,.01,0,.01,0,.02.02.03.02.04.02.02.03.02.04,0,.02-.03.03-.12,0-.28-.11-.39.06.04-.03-.36-.05,0-.14-.38-.2-.64-.02-.01,0,.09,0,.14.05.24.07.23.13.48-.05-.04-.07.03-.07.16l-1.14-1.49s-.08-.06-.13-.1c.11.04.33.16.34.19-.03-.09.03-.13.12-.15-.37-.16-.05-.1-.35-.24-.09-.02-.36-.13-.51-.23.03,0,.15.08.23.12-.18-.13.33.13.03-.05.09.11.42.24.69.4-.14-.12.19.11.21.07-.13-.12-.23-.23-.27-.3.29.09.07-.12.09-.17.15.05.45.24.52.24,0-.03-.35-.16-.18-.13l.06.04c-.07-.05.25.04-.18-.22l.33.2s-.04-.04-.07-.07c.11.06.21.1.28.16.25.1,0-.08,0-.11l-.21-.09c-.13-.13.09-.06.04-.15l.19.11-.1-.09c.18.11.32.15.17.05l.44.33c-.13-.04-.22-.15-.42-.24-.17-.08-.15,0,.04.1.03,0-.01-.03-.07-.08.27.14.25.16.42.27,0-.01.08.02,0-.03.12.09.13.12.12.15-.09-.08-.17-.08-.25-.13.24.13.3.2.21.2-.29-.12.14.16.04.17-.23-.15-.41-.28-.5-.35-.14-.04,0,.03-.15,0,.17.11.44.27.54.36l-.18-.1c.07.08.34.22.27.24-.12.02-.16.09-.21.13l-.18-.09c.37.24.09.17.24.3-.16-.02-.01.14-.1.14l-.83-1.08s.04.05.06.12c.09-.18.17-.36.32-.32l.05.29c-.03-.22.05.16.07.11-.08-.22-.04-.31-.06-.49.11.21.13-.05.14-.27l.05.2c-.03-.38.11-.07.19-.03.03.08.08.26.1.24-.04-.33-.02-.31,0-.52.04,0,.12.06.19.17.04-.48.26-.23.34-.54l.07.23c.03-.53.32-.12.38-.41l.08.4c.04.07.06,0,.04-.12v2.31c-.02.07-.05.17-.07.27-.01-.13-.14.17-.09-.16-.02-.08-.09.17-.14.22-.05-.17-.08-.14-.18-.08v.03c.04-.09.08-.25.07-.28-.05.1-.08-.13-.16.35-.02-.29-.24.18-.23-.21-.02.13-.05.15-.08.24-.07-.01-.09-.29-.19-.08,0-.07.07-.22.04-.24-.03.05-.04.17-.08.24-.01.01-.02.02-.03.03l-6.99,7.48,7.3-10.94c.1-.16.24.28.33.21.18-.26.38-.14.56-.2v.1c.05-.38.16.38.19-.19.02.09.06.04.05.23.04-.27.15.24.2-.1,0,0,0,.01-.02.05.08.21.13-.09.21.11,0,.04-.02.07-.02.17.04.19.05-.42.09.05.02,0,0-.24,0-.22.17.18.33-.13.5-.25.14.28.04.79.12.44.01.09,0-.18,0-.08.03-.13.08.52.1.27-.02-.29.01-.16,0-.34.08.18.11.44.16.22v.15c.05-.43.14-.21.18-.7.38-.11.73-.4,1.1-.47.37.08.72-.16,1.11.08.11.4.11.38.2.22,0,.07,0,.08,0,.14,0-.33.07-.03.06-.35.14.06.26-.04.41-.05-.02.04-.02.3,0,.28l.02-.21v.09s.04-.21.01-.32c.35-.3.73.34,1.07.25.09.13.2,0,.29-.07.29.42.55.77.8.45,0,0,0,.85-.1,1.05Z"/>
    <path class="cls-3" d="M174.14,150.2c-.15-.07-.24-.09-.42-.21.14.07.3.14.42.21Z"/>
    <path class="cls-3" d="M172.26,150.12s-.06-.02-.09-.03c0-.01-.12-.09-.04-.06,0,.02.07.05.13.09Z"/>
    <path class="cls-3" d="M172.07,150.26c-.13-.07-.21-.17-.21-.2l.21.2Z"/>
    <path class="cls-3" d="M173.64,152.64c.05.12.06.18.03.18-.02-.08-.02-.11-.03-.18Z"/>
    <path class="cls-3" d="M173.58,152.31s.04.07.07.15c-.03-.12-.02.09-.07-.15Z"/>
    <path class="cls-3" d="M174.1,152.62s0-.14.05.02c-.04-.11,0,.19-.05-.02Z"/>
    <path class="cls-3" d="M174.24,152.36s.02.03.02,0c.03.06.04.17.03.18l-.05-.18Z"/>
    <polygon class="cls-3" points="175.45 151.21 175.43 151.29 175.43 151.14 175.45 151.21"/>
    <path class="cls-3" d="M177.05,151.13c.02-.09.02.14.03.16-.02.02,0-.18-.03-.16Z"/>
    <polygon class="cls-3" points="177.88 150.37 177.87 150.37 177.86 150.07 177.88 150.37"/>
  </g>
  <g>
    <path class="cls-3" d="M167.16,151.19s-.11.18-.05.05c.05-.07.09-.12.05-.05Z"/>
    <path class="cls-3" d="M170.07,152.77c-.1-.76.25-.06.24-.57,0-.04.11.4.12.3-.05-.6.23-.31.5.08l.02.12c.05.07-.03-.31.02-.27.02.08.02.11.06.21-.06-.23.02-.12-.02-.29.04.09.09.27.13.36l-.06-.26c-.13-.63.12.01.09-.32.01.06.02.11.04.17,0-.4.13-.37.21-.54.02.09.07.26.1.36-.07-.27-.06-.35-.04-.41.09.28-.02-.27.06-.13l.02.06c-.06-.3.09.16,0-.2l.08.22c-.1-.4.1.19.06-.01l-.02-.08c0-.1.06.09.06.02v.05c.03-.12.12.1.03-.21.09.24,0,.12.12.48.05-.36.22-.34.36-.39.05.12.07.15.11.27,0-.07.04-.07,0-.23,0,0,.05.15.07.17.06.11-.07-.35,0-.22.01.09.04.19.07.3-.04-.25,0-.22,0-.3.01.05.01.09.04.18-.05-.28.07.04.05-.14l.04.18c.11.2-.09-.38-.02-.26,0,.06.03.13.05.2-.06-.33.03-.24.04-.36,0,.02.02.07.02.07.01-.02.03-.02.05-.02l.11.49s-.05,0-.06.09c-.03-.08-.06-.45-.1-.37.06.37-.05.16.04.57-.05-.05-.12-.18-.13-.06,0-.14-.09-.45-.06-.48l-.06-.22c-.02-.15.03.05,0-.14-.01.02-.03.17-.06.11,0,.23.05.65,0,.71,0-.15-.07-.4-.07-.47l.04.71s-.05-.29-.06-.19c.02.1.02.16.02.24-.01-.04-.05.1-.11-.26-.03-.14.01-.08-.02-.21-.03,0,0,.13-.04.14v-.05c-.03-.05-.04.16.01.36.01,0-.04-.22,0-.11.02.21,0,.28-.03.28,0-.06-.02-.16-.03-.26,0,.29-.02.39-.04.51.03.17-.03-.31-.01-.22-.09-.23-.06.35-.16.01,0-.03.04.24.03.19-.03-.02-.07-.27-.07-.17-.02-.15-.01.05-.02.1,0,.11-.02-.07,0-.09,0,.13-.07.37-.16.16.02.1.02.36,0,.35l-.03-.23c-.03-.13-.04.03-.07-.17.01.28.07-.25.07-.03-.04-.19,0,.37-.04.06-.02.01-.01.27-.07.06.01.04-.03-.32-.05-.3-.03.05,0,.11-.01.19v.1c.03.22-.04-.02,0,.22-.03-.18-.04.12-.09-.25l-.04-.29s.02.31.03.44c0-.03-.02-.08-.03-.13.07.44-.04-.03,0,.31-.06-.15-.09,0-.14-.27,0,.14,0,.3-.05.21,0-.04,0-.06,0-.15-.04-.13-.02-.01-.03.06,0-.07-.08-.25-.12-.4,0,.14.04.37.06.52-.09-.43-.03.29-.12-.1,0-.06,0-.22-.03-.32-.09-.43,0,.33-.07.12l.06.36c-.05-.22-.02.22-.08-.15,0,.13-.06-.11,0,.24-.11-.29-.12.2-.26-.42,0,.06-.03,0,0,.18.04.19,0-.14.02-.01,0,.01,0,.11.01.16-.03-.08-.05-.1-.08-.4-.08-.21.05.6-.03.48-.02-.15-.03-.2-.04-.17v.25c-.04-.05-.06-.33-.1-.57-.01.05-.04.04-.02.22l-.07-.31c.05.22,0,.15,0,.21v-.06c-.02-.1-.03-.04-.04,0,.03.15.06.21.08.25,0,.11-.01.09,0,.22-.03-.24-.06-.17-.08-.19-.03-.05.01.22,0,.21-.02-.13-.03-.02-.04-.19,0-.04.03.12.02,0-.03-.09-.06-.31-.06-.15,0,.12.08.48.02.33,0-.06-.01-.16-.02-.25l-.05-.12.03.22c-.01-.06-.01-.07-.02-.1.03.23-.04.08,0,.34-.01.03-.06-.15-.08-.17v-.02c-.04-.13-.05-.04-.04.11v-.05s-.04.02-.03.15c-.05-.16-.14-.83-.12-.55-.02.01.02.41.05.55-.07-.14-.07.23-.16-.11,0,.09.02.14.01.2-.08-.08-.1.28-.22-.14,0-.1-.03-.22-.05-.35.01.2-.05-.2,0,.14.03.2.05.3.08.37-.02.11-.09.12-.14-.06.03.09.03.15.03.21-.05-.32-.08-.36-.09-.25l.03.19-.05-.2c0,.06.05.41,0,.22-.01-.07-.03-.15-.04-.2,0,.16,0,.43-.04.27l-.06-.28s0,.21.03.28c-.07-.16-.1-.18-.15-.42.02.61-.09.65-.18.62l-.02-.15c-.04-.13.03.25,0,.16-.01-.14-.06-.3-.07-.47-.06-.15,0,.26-.02.33.03.19,0-.12.03.12,0,.07-.07-.14-.03.15-.03-.11-.05-.32-.07-.44v.14c-.08-.33-.03-.61-.12-1.02v.05c-.08-.3-.01-.35-.08-.44,0,.14.05.56.09.69-.03.09.09.69.04.67-.04-.17.03-.05-.01-.28-.06-.23-.02.14-.06.06.04.11.06.4.06.45-.04-.13-.03-.27-.06-.3.02.17,0,.3.05.41.05.38-.05-.1-.03.2-.05-.26-.06-.62-.12-.74.05.25,0,.35.08.73-.03-.07-.06-.27-.07-.43-.05-.15.01.47-.07-.03l.03.26c-.02-.08-.04-.15-.07-.29-.02,0-.03.36-.08-.03,0,.04-.06.03,0,.3.06.16.01-.2.08.16-.06-.3-.05.05-.05.15l-.02-.15c0,.06-.04.03-.03.2,0-.09-.02-.19-.03-.23v.23c-.03.12-.04-.41-.09-.34l.02-.18s-.04-.18-.06-.1c0,.21.01.47.02.64-.03.1-.03-.24-.05-.02l.02-.26c0-.07-.06-.35-.1-.34-.02.08-.05.39,0,.5-.02,0-.06-.12-.05-.28-.05.08.02.23-.02.36-.02-.14-.09-.34-.13-.55l.04-.36h-.03c.03-.29-.02-.22,0-.52-.02-.05-.03.06-.05.13.05.49-.07.66-.06,1.1-.1.12-.01-1.08-.13-.39,0,.12-.05.45,0,.32-.05-.05-.07.44-.12.25.06-.18-.01-.45.07-.71-.02.15.03.11.04.07,0-.17.03-.44-.01-.45-.03.04-.07.04-.08.27-.02.25.05-.02,0,.23-.07.08-.04-.3-.11.14.04-.03.03.23.01.4l-.06.1.03-.17c-.07-.13-.06.3-.14.24v-.34c.07-.28.11.14.15-.32-.04-.03-.09.21-.12.08.02-.04.03-.05.05-.09-.02-.02.06-.63-.05-.29-.06.13-.04.16-.07.33-.08.03-.14.2-.2.22.08-.33-.08-.06.05-.38-.02.2.1.21.18-.1.04-.4.05.07.12-.33-.05-.02.02-.41.06-.67,0-.02-.04.08-.05.12-.05.24-.03.24-.08.49-.04-.08-.12.04-.21.26,0-.13.07-.36.1-.38-.08.05-.14-.01-.17-.11-.08.41-.09.06-.17.39,0,.1-.04.39-.12.56-.02-.04.05-.17.07-.26-.1.2.06-.36-.07-.04.1-.09.16-.46.27-.76-.09.15.07-.21.04-.23-.09.15-.18.25-.24.29.07-.32-.11-.1-.15-.12.05-.17.22-.49.23-.57-.02-.02-.16.38-.11.19l.03-.06c-.05.07.07-.29-.18.17l.2-.35s-.03.04-.06.07c.06-.12.12-.23.16-.3.12-.26-.03-.01-.05-.02l-.11.23c-.12.12,0-.12-.06-.09l.13-.21-.08.1c.13-.19.21-.35.1-.19l.26-.34c-.06.11-.11.15-.22.35-.11.19-.06.17.05-.02,0-.03-.01,0-.06.07.16-.26.14-.2.23-.35,0,0,.03-.07,0,0,.07-.09.08-.1.09-.09-.05.07-.08.15-.12.21.12-.2.15-.24.13-.16-.12.26.1-.11.08-.03-.11.21-.21.37-.26.44-.05.13.02,0-.03.15.09-.17.22-.4.28-.49l-.08.17c.05-.07.16-.32.16-.25-.01.12.02.15.04.19l-.06.18c.15-.38.1-.11.17-.27-.01.21.12-.15.06.2.1-.12.17-.27.23-.19l-.03.29c.03-.21,0,.17.02.13,0-.24.04-.3.05-.48.02.23.07-.02.08-.23v.2c.01-.38.05-.05.1,0,.01.08.04.27.05.25-.01-.33,0-.31,0-.51.02,0,.07.07.12.19.03-.47.2-.2.28-.49l.05.23c.04-.52.25-.09.31-.36l.05.4c.05.12.05-.12,0-.4.05.12.05-.21.12.12.04.07.01-.19.03-.25.09.14.11.1.16.02l-.02-.02c0,.09.03.26.05.28,0-.11.1.1,0-.38.11.27.12-.25.24.12-.03-.13-.01-.16-.02-.25.06-.01.16.24.17.01.02.06.02.23.05.24,0-.05-.03-.17-.02-.25.05-.26.22.22.3.15.11-.28.28-.17.42-.24v.1c0-.38.18.36.14-.2.03.09.05.04.07.22,0-.27.14.23.15-.11,0,0,0,.01,0,.05.09.2.09-.1.18.09,0,.04,0,.07,0,.17.05.18,0-.42.07.05.01,0-.03-.23-.03-.22.16.16.25-.16.36-.28.14.26.13.78.15.42.02.09-.02-.18,0-.08,0-.13.13.51.11.27-.05-.28-.01-.16-.04-.34.09.18.14.43.15.21l.02.15c-.01-.43.09-.22.06-.71.28-.13.53-.45.81-.55h.02s.91,4.12.91,4.12c-.3,0-.51.28-.86.11-.18-.37-.18-.35-.21-.18-.02-.06-.01-.08-.04-.14.09.32-.04.04.04.35-.12-.03-.19.08-.3.12,0-.04-.06-.3-.07-.27l.04.21-.03-.09c0,.05.03.21.07.31-.19.35-.64-.21-.88-.05-.1-.11-.16.03-.21.12-.32-.36-.6-.65-.73-.29,0,0-.21-.82-.18-1.03Z"/>
    <path class="cls-3" d="M167.17,151.2c-.07.11-.11.19-.2.32.07-.1.14-.22.2-.32Z"/>
    <path class="cls-3" d="M166.84,153.21s0,.07-.01.1c-.01,0-.07.13-.05.05.02,0,.04-.08.07-.15Z"/>
    <path class="cls-3" d="M167.04,153.41c-.04.14-.12.23-.16.24l.16-.24Z"/>
    <path class="cls-3" d="M167.17,154.07c0,.13-.01.19-.05.18.01-.08.03-.11.05-.18Z"/>
    <path class="cls-3" d="M167.25,153.75s.02.09.02.17c.02-.12-.06.07-.02-.17Z"/>
    <path class="cls-3" d="M167.81,154.23s.05-.13.06.03c-.02-.11-.08.18-.06-.03Z"/>
    <path class="cls-3" d="M168.09,154s.01.04.02,0c.02.07.01.17,0,.19l-.02-.18Z"/>
    <polygon class="cls-3" points="170.99 152.98 170.98 153.06 170.96 152.91 170.99 152.98"/>
    <path class="cls-3" d="M172.22,152.78c0-.09.03.13.04.15-.01.02-.02-.18-.04-.15Z"/>
    <polygon class="cls-3" points="172.78 151.96 172.78 151.97 172.73 151.67 172.78 151.96"/>
  </g>
  <g>
    <path class="cls-3" d="M176.18,149.26c-.04.06-.09.24-.05.1.05-.11.08-.19.05-.1Z"/>
    <path class="cls-3" d="M180.56,150.1c0,.76-.13,0-.15.49,0,.03-.03-.42-.04-.32-.02.6-.14.25-.23-.21v-.12c-.02-.09-.02.31-.03.25,0-.08,0-.11,0-.22,0,.24-.02.11-.02.29,0-.09-.02-.28-.03-.38v.27c0,.64-.06-.04-.08.29,0-.06,0-.11,0-.17-.04.39-.11.32-.17.46,0-.1,0-.27,0-.38,0,.28-.02.36-.03.41,0-.29-.03.27-.05.11v-.06c-.01.3-.02-.18-.03.19v-.23c-.02.41-.03-.21-.04,0v.08c-.01.1-.02-.11-.03-.04v-.05c-.03.11-.04-.12-.04.2,0-.26.02-.12.02-.49-.08.33-.16.26-.24.27,0-.13,0-.17,0-.29,0,.06-.03.06-.04.22,0,0,0-.16,0-.18,0-.12-.03.35-.04.21.01-.09.02-.19.02-.31-.02.25-.04.21-.06.29,0-.05,0-.09.01-.19-.03.28-.03-.06-.05.12l.02-.18c-.01-.23-.03.39-.04.25,0-.06,0-.13.02-.21-.04.34-.06.22-.09.33,0-.03,0-.08,0-.08-.02.04-.04-.07-.07.08,0-.08.03-.45,0-.38-.03.37-.05.15-.07.57-.02-.06-.03-.2-.06-.08.02-.14.03-.45.04-.48v-.22c.02-.15.01.05.03-.14,0,.01-.04.16-.04.1-.03.23-.08.65-.11.69.02-.14.03-.41.04-.47l-.1.71s.03-.29,0-.2c-.01.1-.02.16-.03.24,0-.04-.04.09-.01-.28.01-.14.02-.08.02-.21-.01,0-.03.13-.04.13v-.05c0-.05-.04.15-.05.35,0,.01.02-.22.02-.11-.03.21-.05.27-.07.27,0-.06.02-.16.03-.26-.05.28-.08.37-.12.49-.02.17.04-.31.04-.22,0-.24-.1.33-.08-.02,0-.03-.03.25-.02.2-.01-.02.02-.27,0-.18.02-.15-.02.05-.03.09-.02.11,0-.07.02-.09-.03.12-.11.34-.11.12-.01.1-.07.35-.07.34l.03-.23c.01-.14-.03.02,0-.18-.05.27.09-.23.04-.02.02-.19-.08.36-.03.05-.02,0-.06.26-.05.05,0,.04.05-.31.04-.3-.03.04-.02.11-.05.18l-.02.09c-.03.22-.01-.03-.04.22.02-.18-.05.11,0-.26l.04-.29s-.06.3-.08.43c0-.03.01-.09.02-.13-.07.44-.02-.04-.08.3,0-.15-.05-.02-.01-.3-.03.13-.07.29-.07.19,0-.04.02-.05.03-.15.01-.13-.01-.02-.03.05.01-.07.02-.26.04-.42-.03.13-.07.37-.09.51.06-.44-.09.27-.04-.12.02-.06.06-.21.06-.32.06-.43-.08.32-.06.1l-.06.36c.03-.22-.07.2,0-.16-.03.13,0-.12-.06.23.02-.3-.12.16-.02-.47-.02.06-.02,0-.05.18-.03.2.04-.14.02,0,0,0-.03.11-.03.15,0-.08,0-.11.07-.4.02-.22-.14.59-.14.45.03-.14.04-.2.02-.18l-.06.24c0-.06.05-.33.1-.58-.02.04-.03.03-.07.21l.05-.31c-.04.22-.04.15-.05.21l.02-.06c.02-.1,0-.04-.02-.01-.03.15-.03.22-.03.26-.03.11-.02.08-.06.2.05-.24.02-.17.01-.2,0-.05-.05.21-.06.2.03-.12-.01-.02.03-.2.01-.04-.02.12.01.01.01-.09.06-.31.01-.15-.03.12-.1.47-.08.32.01-.06.04-.15.06-.24v-.13s-.04.22-.04.22c.01-.06.01-.07.02-.1-.05.23-.04.07-.1.32-.01.02.01-.15.01-.18v-.02c.02-.13,0-.05-.05.1v-.05s-.01.01-.05.14c.02-.17.18-.82.1-.55-.02,0-.11.39-.14.53,0-.15-.1.19-.05-.15-.02.09-.03.14-.05.19-.02-.09-.14.24-.07-.19.03-.09.05-.22.08-.34-.06.19.04-.2-.05.13-.05.2-.07.29-.08.37-.05.1-.08.09-.05-.1-.02.09-.04.15-.06.21.08-.31.08-.36.04-.26l-.05.19.04-.2c-.02.06-.11.4-.07.21.02-.07.04-.15.05-.2-.05.15-.14.41-.11.24l.06-.28s-.07.19-.08.27c.02-.17,0-.2.07-.44-.2.57-.27.58-.31.52l.04-.14c.02-.14-.08.24-.06.14.04-.13.07-.29.13-.46.02-.15-.09.24-.12.3-.05.18.04-.12-.03.12-.02.07.02-.15-.07.13.03-.11.09-.31.13-.43l-.05.13c.08-.33.2-.57.3-.98l-.02.04c.08-.3.12-.32.13-.43-.05.13-.18.54-.2.66-.04.07-.21.66-.22.63.04-.17.03-.03.09-.26.05-.23-.06.12-.05.04-.02.11-.11.39-.14.44.03-.14.09-.26.08-.3-.05.16-.1.28-.12.39-.12.36.01-.11-.08.17.07-.26.2-.59.22-.72-.07.25-.13.33-.23.7.01-.07.07-.27.12-.42.04-.15-.17.44-.02-.05l-.08.25c.02-.08.04-.15.07-.28,0,0-.14.33-.02-.05-.02.04-.03.01-.11.28-.04.17.08-.19-.03.17.08-.29-.03.03-.07.12l.04-.15c-.02.06-.02.02-.08.18.03-.08.06-.18.07-.22l-.08.22c-.06.1.12-.39.08-.34l.07-.17s.04-.17.01-.11c-.07.2-.15.44-.21.6-.04.09.07-.23,0-.03l.09-.24c.02-.07.1-.34.08-.34-.03.07-.14.36-.16.47,0,0,.02-.13.08-.27-.04.06-.07.22-.12.34.04-.14.09-.34.14-.54l.13-.33h0c.1-.27.06-.22.16-.5,0-.05-.03.05-.06.12-.13.47-.23.62-.37,1.04-.07.1.33-1.02.08-.38-.03.11-.15.42-.1.31,0-.05-.15.42-.12.24.07-.17.13-.43.23-.67-.05.14-.02.11,0,.07.05-.16.14-.42.13-.43-.02.04-.04.04-.11.26-.08.24.02-.02-.07.22-.05.08.07-.29-.08.13.02-.03-.06.22-.11.38l-.05.09.06-.16c.01-.12-.11.29-.12.23l.1-.32c.1-.27,0,.13.14-.31,0-.02-.09.2-.07.08.02-.04.02-.05.04-.08,0-.02.2-.6.06-.27-.06.13-.06.16-.12.32-.04.04-.11.21-.13.23.12-.32-.02-.04.12-.36-.06.19-.02.19.1-.12.13-.38,0,.06.14-.32-.02-.02.12-.39.2-.64,0-.02-.04.08-.06.12-.08.23-.08.23-.16.47,0-.07-.06.05-.16.27.03-.12.12-.35.14-.36-.05.06-.06.02-.06-.06-.12.38-.06.08-.16.39-.02.09-.1.36-.17.53,0-.03.06-.16.09-.25-.09.2.1-.33-.02-.01.07-.11.17-.45.29-.75-.08.16.08-.21.06-.21-.08.16-.14.28-.19.34.08-.29-.05-.03-.08-.02.05-.15.18-.48.19-.54-.02,0-.13.36-.09.2l.03-.06c-.04.07.05-.24-.14.23l.15-.35s-.03.05-.04.08c.05-.12.08-.22.12-.3.09-.25-.04.03-.06.03l-.08.21c-.09.16-.02-.06-.07,0l.08-.21-.06.12c.08-.2.13-.33.05-.17l.24-.49c-.04.12-.11.24-.19.45-.07.18-.03.13.06-.07,0-.03-.02.02-.05.09.11-.29.12-.27.2-.46,0,.01.02-.08-.02.01.06-.14.08-.16.09-.16-.05.11-.07.18-.1.26.1-.25.14-.33.13-.25-.1.3.1-.18.09-.09-.11.25-.2.46-.25.55-.04.13.01,0-.02.13.08-.19.2-.48.26-.59l-.07.19c.05-.09.16-.37.15-.31,0,.1.02.11.03.15l-.07.19c.16-.4.09-.14.18-.31-.04.19.12-.16.02.17.1-.13.19-.26.21-.17l-.1.28c.08-.2-.05.16-.03.12.07-.23.11-.29.17-.46-.05.22.05,0,.14-.19l-.06.19c.14-.36.05-.03.06.04-.02.08-.08.26-.06.24.11-.31.11-.28.19-.47.01,0,.01.09-.01.21.18-.43.15-.13.28-.38l-.06.23c.19-.47.12-.01.23-.25l-.11.39c-.02.12.06-.1.13-.38-.02.12.08-.18,0,.14,0,.08.06-.18.09-.23-.01.16,0,.13.05.06v-.03c-.02.09-.07.25-.07.28.04-.11,0,.12.12-.36-.04.28.11-.21.05.17.03-.13.04-.15.06-.24.02,0-.01.27.06.05-.01.07-.05.22-.05.24.01-.05.04-.17.06-.24.09-.23.02.27.07.21.11-.24.15-.1.22-.13l-.02.1c.09-.36-.02.38.09-.17-.01.09.01.05-.03.23.06-.26,0,.25.08-.07,0,0,0,0-.01.05-.01.22.06-.07.05.13,0,.04-.01.07-.03.17-.02.19.09-.4.02.06,0,0,.04-.23.03-.22.03.19.13-.1.2-.2,0,.28-.1.79-.02.44,0,.09.03-.18.01-.08.03-.13-.05.52,0,.28.03-.29.03-.16.05-.33,0,.19-.02.45.02.23l-.02.15c.07-.42.08-.19.15-.68.14-.07.28-.34.39-.39.11.1.23-.12.34.15.02.4.02.39.06.23,0,.06,0,.08,0,.14,0-.33.02-.03.03-.34.04.06.08-.03.13-.03,0,.04,0,.3,0,.28v-.21s0,.09,0,.09c0-.05.01-.21,0-.32.1-.28.23.37.34.28.03.14.07,0,.09-.06.11.43.23.77.29.46,0,0,.07.84.04,1.04Z"/>
    <path class="cls-3" d="M176.21,149.24c-.06.15-.08.24-.17.44.06-.14.12-.3.17-.44Z"/>
    <path class="cls-3" d="M175.91,150.93s-.02.06-.03.09c0,0-.06.14-.03.06,0-.01.03-.08.06-.15Z"/>
    <path class="cls-3" d="M175.96,151.06c-.05.14-.11.24-.13.25l.13-.25Z"/>
    <path class="cls-3" d="M175.85,151.66c-.03.12-.06.18-.07.17.03-.07.04-.11.07-.17Z"/>
    <path class="cls-3" d="M175.96,151.34s-.02.08-.04.16c.04-.12-.04.07.04-.16Z"/>
    <path class="cls-3" d="M176.01,151.81s.06-.12,0,.03c.03-.11-.08.17,0-.03Z"/>
    <path class="cls-3" d="M176.17,151.63s0,.04,0,0c-.02.07-.05.17-.06.18l.05-.18Z"/>
    <polygon class="cls-3" points="177.9 151.45 177.88 151.52 177.91 151.38 177.9 151.45"/>
    <path class="cls-3" d="M178.6,151.54c.02-.09,0,.14,0,.16-.01.01.02-.18,0-.16Z"/>
    <polygon class="cls-3" points="179.02 150.85 179.02 150.85 179.04 150.55 179.02 150.85"/>
  </g>
</svg>