<?xml version="1.0" encoding="UTF-8"?>
<svg id="Layer_3" data-name="Layer 3" xmlns="http://www.w3.org/2000/svg" viewBox="0 0 300 300">
  <defs>
    <style>
      .cls-1 {
        fill: #202020;
      }
    </style>
  </defs>
  <g>
    <g>
      <path class="cls-1" d="M39.7,194.87c-.47.74,1.14,1.27-.09.89-.27-.72-.41-1.3.09-.89Z"/>
      <path class="cls-1" d="M45.3,97.9c4.7-2.9,4.79,3.05,8.74,1.79.38-.01-1.5,2.26-.55,2.08,4.24-1.88,6.51,2.23,7.63,6.43l-.57.55c.22.79,2.19-.97,2.54-.33-.26.43-.56.5-.8,1.17.95-1.21,1.36.01,2.19-.81-.1.64-.77,1.66-.84,2.4l1.23-1.29c3.06-2.98,1.94,1.56,4.26.47-.27.31-.55.5-.67.9,3.23-.96,5.35.92,7.95,1.45-.41.47-1.08,1.38-1.33,2.04,1.08-1.49,1.98-1.48,2.73-1.43-.74,1.76,1.88-.86,2,.44l-.28.32c1.54-1.37.13,1.42,1.78-.34l-.47,1.45c1.62-2.12-.02,1.61,1.1.72l.28-.47c.73-.31.22.94.81.79l-.13.28c1.2-.08.9,1.48,1.98-.29-.59,1.59-1.21.14-2.03,2.48,3.87-.11,6.47,2.01,9.25,3.7-.13.9-.06,1.24-.41,1.95.5-.18,1.24.32,2.05-.42-.11-.02-.38,1.01-.29,1.19.09.98,1.76-1.6,1.81-.46-.51.33-.94.86-1.28,1.56,1.33-1.08,1.82-.47,2.65-.57-.27.24-.52.34-.84.9,1.58-1.18.9,1.02,2.05.37l-.83.89c.09,1.77,1.58-1.97,1.86-.78-.38.21-.56.65-.85,1.04,1.85-1.42,2.58-.11,3.66-.31-.13.12-.29.4-.29.4.9.24,1.32,1.3,2.65,1.01.02.64-1.65,2.42-.62,2.54,1.24-2.06,1.87,0,2.85-2.6.47.76,1.07,2.19,1.95,1.78-.79.59-1.23,2.7-1.9,2.53l-.34,1.5c-.59.8-.26-.56-.78.58.33.1,1.66-.2,1.71.29,1.31-.93,3.24-2.96,4.25-2.69-.9.55-1.18,2.39-1.67,2.57l3.62-3.18c.34.08-.94,1.65-.2,1.37.32-.55.7-.77,1.1-1.14-.08.27,1.91.48.59,2.45-.44.83-.83.07-.99.97.58.33,1.12-.28,1.75.07l-.2.25c.12.49,1.9,0,2.41-1.23-.25-.25-.91,1.11-.86.33,1.27-.83,2.4-.58,3.14-.15-.55.11-1.02.56-1.64.96,2.36-.72,3.96-.42,5.84-.16,1.07-.66-2.35.95-1.94.51-.04.9,1.15.98,2.33,1.17,1.16.18,2.3.45,1.59,1.35-.41-.02,1.69-.83,1.35-.67.56.51-1.38,1.23-.24,1.23-1.09.45.89.2,1.72.37,1.1-.14-.46.26-.98.07.8.02,2.32.29,3.65.77,1.32.48,2.45,1.16,2.2,1.82.86-.21,4.38-.02,4.68.26l-2.38.26c-1.02.41,1.4.72-.52,1.02,1.78.05.45-.33-.88-.64-1.33-.32-2.64-.56-1.14-.45-.79.24.41.29,1.45.36,1.03.06,1.88.13.22.28.74.4,4.12.54,2.56,1.2.18-.17-3.86.01-3.18.31,1.34.53,1.41.05,3.01.46l1.53.24c2.5-.14.57.58,2.98.18-1.96.18,2.84.91-1.56.99l-3.51.03c.63.22,4.23.3,6.13.5-.27.04-.85.12-1.44.12,2.7-.02,2.87.16,2.93.36.07.21,0,.43,2.42.63-.47.29.05.65.36.97-.82.3-1.75.56-3.76.58.99.46,2.2,1,.18,1.37-.32-.13-.24-.27-1.35-.39-2.08.15-.79.32-.44.67-.68-.12-4.06.25-6.31.29.83.53,3.66.79,5.22,1.04-2.75-.15-2.46.21-2.21.64.26.42.47.9-1.96.73-.34-.27-1.17-.96-2.87-.87-2.53-.26-1.96.03-1.23.45.74.41,1.63.95.12.98l3.73.69c-1.33-.12-1.22.21-1.24.47-.02.26-.14.45-1.76-.05.81.53-2.32.36.9,1.25-2.24.09-2.94.79-3.96,1.36-1,.56-2.28.96-5.03.08.18.34-.84.44.53,1.05,1.79.5-.4-.83.69-.41-.15.16.48.54.79.73-1.14.01-1.7.12-3.21-1.24-1.29-.12-.55.59.13,1.42.69.81,1.31,1.74.07,1.9-.8-.65-1.25-.82-1.57-.49.2.51.37,1.04.52,1.57-1.4.32-2.38-1.19-3.74-2.3-.26.45-.91.71-.23,1.72-.72-.39-1.41-.78-2.09-1.19,1.49.87.3.94.34,1.37l-.04-.43c-.57-.47-.82.14-.98.46.71.76,1.59.74,2.14.78.22.69-.33.79-.16,1.65-.91-1.31-1.61-.42-2.13-.33-.68-.03.25,1.48.06,1.52-.47-.68-.91.33-1.13-.86.02-.31.82.47.7-.29-.67-.33-1.39-1.57-1.48-.35-.09.94,1.73,2.62.22,2.29.08-.49-.19-1.07-.28-1.66-.41-.09-.9-.14-1.19-.3l.65,1.29c-.25-.28-.26-.42-.38-.57.53,1.44-.71.91-.04,2.49-.24.29-1.11-.54-1.48-.53v-.14c-.76-.56-.97.19-.81,1.21l-.13-.29c-.25,0-.6.45-.45,1.33-1.01-.7-2.73-4.72-2.42-2.83-.48.31.46,2.75,1.1,3.46-1.36-.38-1.27,2.24-3.16.71.15.58.4.86.29,1.31-1.59.2-1.98,3-4.36,1.05.1-.74-.65-1.29-1.05-2.01.29,1.31-1.01-.98-.08,1.04.65,1.13.91,1.71,1.53,1.98-.46,1.04-1.65,1.67-2.66.83.5.42.52.86.53,1.3-.92-1.86-1.65-1.84-1.74-.95l.54,1.16-.9-1c.02.45,1.06,2.45.05,1.6-.25-.42-.51-.85-.76-1.12.03,1.16.22,3.05-.78,2.36l-1.27-1.42c-.11.29.05,1.46.68,1.74-1.37-.54-1.97-.37-2.99-1.64.39,4.22-1.64,5.47-3.46,6.12l-.4-.86c-.87-.54.55,1.59-.08,1.18-.28-.88-1.27-1.55-1.44-2.72-1.12-.54-.06,1.9-.28,2.5.52,1.13-.04-.88.63.55.14.43-1.35-.38-.57,1.34-.51-.57-1.04-1.86-1.31-2.58l.03,1.02c-1.52-1.69-.75-4.06-2.53-6.19l-.23.46c-1.28-1.56-.08-2.48-1.32-2.59.04,1.03.99,3.63,1.73,4.17-.58.9,1.73,4.17.77,4.51-.77-.85.59-.61-.32-1.9-1.13-1.12-.44,1.2-1.06.93.75.41,1.3,2.28,1.19,2.72-.87-.54-.55-1.73-1.28-1.56.41,1.02.2,2.05,1.07,2.45.93,2.3-.99-.25-.44,1.63-1.02-1.42-1.23-3.9-2.34-4.29.9,1.42.2,2.47,1.74,4.46-.5-.28-1.15-1.43-1.43-2.44-.88-.7.48,3.2-1.21.34l.67,1.58c-.39-.43-.76-.7-1.39-1.41-.36.16-.03,2.64-1.21.34.01.3-.83.61.31,2.03,1.01.7-.05-1.46,1.36.53-1.27-1.55-.59.6-.57,1.34l-.52-.86c.01.43-.48.45-.08,1.46-.14-.57-.53-1.14-.78-1.28l.54,1.44c-.33,1.04-1.42-2.27-1.88-1.53l-.05-1.31c0,.28-.89-.85-.99-.26.53,1.29,1.08,2.88,1.48,3.89-.09.74-.9-1.29-.61.16l-.3-1.73c-.14-.44-1.41-1.85-1.89-1.55-.1.6.35,2.63,1.21,3.03-.24.15-1-.4-1.27-1.4-.35.73.78,1.28.69,2.3-.64-.71-1.89-1.53-2.9-2.52l-.57-2.32-.35.16c-.43-1.88-.89-1.14-1.56-3-.38-.15-.35.59-.34,1.16,2.16,2.41,1.25,4.2,2.8,6.62-.57,1.19-3.86-5.84-2.74-1.36.51.57,1.07,2.74,1.28,1.7-.73.03.95,2.75-.29,2.07-.04-1.31-1.91-2.27-1.98-4.17.4.87.75.42.74.12-.76-.84-1.3-2.57-1.9-2.25-.23.44-.71.75.06,2.03.79,1.44.48-.45,1.02,1.14-.46.89-1.75-1.25-.69,1.48.35-.44,1.26.99,1.78,1.98l-.21.89-.41-1.02c-1.22-.24.68,1.88-.29,2.07l-1.4-1.69c-.67-1.74,1.59.08.03-2.5-.6.18-.06,1.63-.93,1.21,0-.29.11-.44.1-.73-.24.01-2.32-3.41-1.98-.94.03,1.02.4,1.01.92,2.01-.7.76-.42,1.92-.9,2.37-.92-2.01-1.09.34-1.53-1.98.89.99,2.09.21,1.4-1.81-1.54-2.14.85-.04-.2-2.47-.72.32-1.9-1.97-2.8-3.4-.25,0-.1.73-.09,1.02.67,1.44.91,1.29,1.69,2.72-.98.03-1.31,1.21-1.01,2.8-.63-.55-1.29-2-1.06-2.29-.7.91-1.79,1.24-2.89,1.28,1.78,1.98-.69,1.06.71,2.75.74.26,2.01,1.67,2.3,2.84-.37,0-.52-1.01-.91-1.43.29,1.45-1.65-1.69-.96.47.45-1.19-1.32-2.87-2.12-4.75-.07,1.33-.65-1.29-1.25-.97-.08,1.32-.4,2.5-.87,3.25-1.75-1.25-2.16,1.11-2.88,1.58-.88-.69-1.69-2.86-2.3-2.98-.48.31,1.54,1.99.3,1.45l-.14-.44c.03.59-2.1-.65-.77,2.38l-.94-2.32c-.24-.12-.11.45-.1.74-.39-.71-.89-1.27-.92-1.86-1.27-1.27-.84.76-1.3,1.08l1.01,1.12c-.31,1.47-1.57.49-2.16,1.39l-.65-1.28-.09,1.02c-.53-1.29-1.41-1.85-1.12-.68l-.38-3.79c.75.56.43,1.74,1.32,2.87.77.99,1.35.24.83-1.05-.37.02-.23.3-.22.88-1.04-1.72-.56-1.88-.96-3.18-.12.15-.62-.27-.36.31-.16-1.02.07-1.32.55-1.63.03.87.77.99.91,1.57-.79-1.58-.56-2.31.29-2.21,1.4,1.56.55-1.78,1.53-1.66.55,1.73.85,3.19.75,4.06.87.55.48-.31,1.36.24-.41-1.29-1.21-3.18-1-4.2l.65,1.15c.22-.88-.7-2.6.15-2.64,1.47-.05,2.67-.69,3.63-1.02l.65,1.14c-.83-2.74,1.16-1.79,1.24-3.25,1.73.51,1.87-2.42,3.51-.73,1.52-1.95,2.81-3.76,5.1-4.44l.55,1.87c-.29-1.44.76.84.99.4-1.14-1.13-.43-2.02-.72-3.19,1.62.82,2.04-1.24,2.23-2.86l.65,1.14c-.34-2.62,1.67-1.23,2.89-1.43.37.42,1.14,1.41,1.38,1.12-.44-2.17-.08-2.2.11-3.81.6-.32,1.82-.37,2.81.04.84-3.84,4.04-3.37,5.53-6.21l.9,1.27c.71-4.12,4.91-2.96,6.05-5.49l1.06,2.43c.99.4,1.06-1.35.02-2.92.99.39.91-1.94,2.32-.23.85.1.19-1.48.54-2.07,1.72.22,2.07-.23,3.01-1.29h-.37c.14.59.66,1.59,1.03,1.58.09-.88,1.94-.23.02-2.78,2.11.94,2.22-2.87,4.6-1.35-.51-.71-.28-1.02-.42-1.6,1.08-.62,3.06.31,3.25-1.44.38.29.41,1.44.9,1.28.11-.43-.52-1-.42-1.6.51-1.18,1.61-1.3,2.75-1.27.57.01,1.16.06,1.69.03l.2-.02c.05,0,.06.02.09.03.05.02.1.03.14.04.09,0,.15-.02.18-.1-.03-.92.08-1.22.39-1.42.29-.19.76-.28.91-.52l.73.33c-1.29-.68-.49-.41.25-.27.71.15,1.34.17-1.07-.61.87.22.56.02,2.25.51-1.11-.38-.43-.28.25-.26.67.04,1.37-.01-.26-.37-.13,0,.07.04.49.13,1.28.11,1.26-.03,1.15-.14-.09-.12-.26-.21,1.08-.21.46.06.75.13,1.88.25,1.19.05.09-.12-.64-.22-.73-.11-1.07-.16,1.89,0,.05-.06-2.86-.21-2.74-.18.53-.05.91-.12,1.15-.21-.17-.22-1.15-.47-2.19-.64-1.05-.18-2.15-.27-2.83-.36,1.22-.32,3.07-.68,4.25-.85,1.18-.18,1.56-.24-.42-.14.8-.19-1.73.3-.82.12-.72.06.43-.24,1.4-.53.97-.29,1.78-.57.59-.37-2.48.66-1.54.28-3.07.66,1.25-.66,3.1-1.49.97-1.14l1.21-.41c-1.93.44-2.49.47-3.11.53-.61.07-1.26.17-2.93,1.02-.45-.11-.92-.14-1.33-.1-.21.02-.4.06-.58.12h-.03s-.08-.02-.12-.04l-.28-.11-.56-.23-1.13-.45c-3-1.2-5.97-2.42-8.77-3.95-5.02-3.86-11.03-5.89-15.56-10.73.1-3-.03-3-1.99-2.97.28-.32.42-.35.53-.74-1.19,1.76-1.09-.45-2.3,1.2-1.8-1.59-3.95-2.25-6.03-3.53.45.01,1.53-1.36,1.07-1.49l-1.12.9.25-.54c-.43.1-1.28.81-1.36,1.56-6.16-1.68-9.01-8.48-14.37-11.21-.74-1.51-2.89-1.88-4.43-2.33-2.39-4.83-4.68-8.96-9.68-9.73,0,0,3.42-4.34,5.73-4.4Z"/>
      <path class="cls-1" d="M40.41,194.25c.64.86,1.39,1.12,1.68,2.58-.52-.86-1.28-1.71-1.68-2.58Z"/>
      <path class="cls-1" d="M58.11,197.22c-.13-.29.38.28.51.42-.12.15.16,1.02-.23.6.12-.16-.14-.58-.28-1.02Z"/>
      <path class="cls-1" d="M61.62,196.07c.4.86.06,1.89-.29,2.21l.29-2.21Z"/>
      <path class="cls-1" d="M66.45,197.91c.63.57.77.99.41,1.16-.26-.43-.27-.72-.41-1.16Z"/>
      <path class="cls-1" d="M65.65,195.9c.24-.15.62.28,1,.69-.39-.71-.34.76-1-.69Z"/>
      <path class="cls-1" d="M73.43,194.87c.12-.15.09-1.02.73-.17-.51-.56-.2,1.46-.73.17Z"/>
      <path class="cls-1" d="M75.78,192c.13,0,.25.14.24-.16.38.29.52,1,.41,1.16l-.65-1Z"/>
      <polygon class="cls-1" points="136.32 155.43 136.51 155.85 135.2 155.49 136.32 155.43"/>
      <path class="cls-1" d="M121.82,134.42c-.96.11.39-.8.42-.95.52.21-1.1.69-.42.95Z"/>
      <polygon class="cls-1" points="104.74 129.34 104.84 129.38 103.79 131 104.74 129.34"/>
    </g>
    <g>
      <path class="cls-1" d="M132.14,152.9c.34-.42-.12-1.67.24-.73-.07.76-.15,1.34-.24.73Z"/>
      <path class="cls-1" d="M43.69,148.82c1.23-4.91,2.46.13,3.73-2.98.14-.21-.13,2.71.2,2.06,1.26-3.8,2.95-1.45,4.23,1.56l-.11.76c.24.56.65-1.96.91-1.59-.01.51-.11.72-.07,1.42.12-1.53.52-.69.68-1.83.09.6.04,1.81.16,2.49l.22-1.74c.58-4.13,1.06.33,1.73-1.79-.04.4-.11.72-.08,1.11,1.05-2.49,2.24-1.98,3.35-2.86-.06.61-.14,1.74-.1,2.43.12-1.83.46-2.29.77-2.64.07,1.89.55-1.71.86-.65l-.04.42c.32-1.97.33,1.15.62-1.21l.11,1.49c.2-2.66.32,1.39.57.05v-.55c.23-.64.29.7.48.26v.31c.46-.69.65.8.71-1.27.09,1.66-.44.74-.29,3.17,1.47-2.09,2.89-1.63,4.3-1.61.13.84.22,1.1.23,1.88.15-.41.54-.36.71-1.42-.05.04.05,1.06.13,1.17.23.79.36-2.27.61-1.33-.13.55-.19,1.22-.18,1.99.29-1.61.61-1.34.91-1.86-.06.35-.13.55-.14,1.2.37-1.82.55.41.86-.74l-.14,1.2c.39,1.47.21-2.5.56-1.63-.1.37-.09.85-.12,1.33.43-2.17.97-1.43,1.35-2.15-.03.17-.03.49-.03.49.39-.26.77.43,1.22-.5.14.54-.15,2.92.27,2.5.07-2.41.72-.97.58-3.7.33.41.85,1.33,1.11.52-.19.91.07,2.95-.23,3.14l.17,1.46c-.07.98-.21-.34-.19.9.15-.09.6-1.03.72-.63.32-1.47.66-4.21,1.1-4.5-.24.93.03,2.65-.13,3.06l.76-4.59c.15-.11-.03,1.9.2,1.28.01-.64.11-1.02.2-1.54.04.27.62-.58.6,1.79.03.93-.25.49-.12,1.34.27-.02.31-.82.57-.85v.32c.16.36.55-.99.4-2.31-.12-.08,0,1.42-.16.73.17-1.37.49-1.74.76-1.76-.1.38-.11,1.01-.17,1.68.42-1.85.82-2.43,1.24-3.19.04-1.13-.22,2.04-.26,1.45.46,1.58,1.13-2.18,1.48.12-.08.2.02-1.6.01-1.28.24.15.18,1.78.36,1.18-.02.96.21-.3.39-.58.11-.69.03.47-.12.57.26-.81,1.23-2.25,1.71-.83.01-.64.41-2.32.53-2.24l-.1,1.48c.08.89.41-.12.39,1.15.32-1.79-1.06,1.5-.66.12.05,1.24.57-2.34.43-.33.25-.04.54-1.71.73-.31-.06-.24-.27,2.04-.07,1.95.36-.25.12-.7.42-1.19l.2-.6c.06-1.44.31.2.23-1.41,0,1.19.53-.71.42,1.68l-.11,1.88c.16-.14.31-1.98.46-2.81.01.18.04.56.02.86.12-2.88.35.25.61-1.97.28,1.01.8.12.89,1.92.27-.87.53-1.9.79-1.27-.06.27-.14.35-.18.97.15.86.21.1.39-.36-.05.43.29,1.7.45,2.73.27-.85.24-2.41.3-3.36.12,2.85.75-1.81.93.78-.1.39-.4,1.38-.22,2.11.12,2.85.52-2.09.83-.71v-2.37c.1,1.47.56-1.35.45,1.06.15-.85.39.79.43-1.51.52,1.97,1.46-1.13,1.68,3.01.1-.38.29.02.29-1.17-.1-1.29-.23.91-.25.03.08-.07.12-.7.13-1.01.16.53.3.71.06,2.61.36,1.44.55-3.9,1.04-2.98-.06.95-.03,1.32.13,1.17l.34-1.62c.32.39.12,2.17.07,3.79.19-.27.4-.19.52-1.39l.15,2.04c-.11-1.48.18-.97.28-1.36l-.1.4c0,.68.23.27.34.07,0-1-.19-1.41-.29-1.71.12-.71.25-.54.4-1.37-.09,1.58.25,1.14.39,1.31.15.35.23-1.42.28-1.36-.02.82.26.15.09,1.29-.06.26-.1-.8-.22-.09.09.61.03,2.05.28,1.01.19-.78.06-3.13.35-2.12-.1.39-.13,1.02-.22,1.59l.27.83.06-1.44c.03.37,0,.49,0,.68.14-1.52.47-.45.6-2.16.16-.14.28,1.01.42,1.18l-.03.12c.15.86.4.3.58-.66l-.02.31c.09.12.33-.1.47-.95.2,1.1-.1,5.45.23,3.64.25-.04.47-2.63.41-3.56.41.99.99-1.35,1.32.91.08-.58.06-.95.2-1.28.63.59,1.42-1.67,1.84,1.19-.21.6-.06,1.44-.09,2.27.2-1.29.14,1.35.27-.87.03-1.3.07-1.94-.1-2.47.41-.69,1-.67,1.17.56-.09-.61,0-1,.11-1.39-.1,2.07.18,2.4.42,1.68l.07-1.27.1,1.31c.1-.4.18-2.65.35-1.43,0,.49-.01.99.02,1.35.26-1.03.63-2.77.84-1.69l.14,1.86c.11-.2.32-1.31.16-1.85.37,1.13.64,1.28.71,2.88.84-3.88,1.88-4,2.7-3.69l-.06.95c.19.9.17-1.66.3-.99-.1.9.1,1.97-.11,3.08.28,1.01.46-1.63.69-2.05.07-1.24-.19.79-.1-.79.05-.45.41.99.52-.9.05.74-.05,2.13-.12,2.89l.23-.91c.16,2.21-.67,3.92-.52,6.64l.19-.29c.1,1.98-.55,2.21-.12,2.9.23-.92.49-3.65.34-4.49.42-.51.34-4.49.77-4.32.08,1.11-.36.25-.33,1.81.15,1.53.44-.84.61-.3-.18-.72.06-2.62.2-2.96.19.9-.2,1.78.1,1.98.09-1.09.41-1.89.18-2.66.2-2.46.3.69.54-1.21.04,1.74-.46,4-.14,4.88,0-1.68.5-2.26.4-4.75.12.49.09,1.8-.05,2.83.16,1.03.57-3.04.52.28l.12-1.71c.04.56.11.98.18,1.91.17.04.63-2.3.52.29.06-.27.45-.14.36-1.93-.2-1.1-.32,1.3-.37-1.12.1,1.98.36-.24.52-.9v1c.09-.39.27-.16.36-1.24-.08.57-.07,1.25-.01,1.5l.14-1.52c.36-.75-.01,2.67.33,2.24l-.29,1.17c.06-.25.13,1.17.3.7.11-1.39.28-3.04.37-4.12.21-.6.03,1.57.26.15l-.3,1.66c-.05.45.08,2.3.33,2.27.17-.47.49-2.47.26-3.24.13-.02.27.83.14,1.84.3-.47.01-1.49.29-2.34.07.93.33,2.25.47,3.6l-.33,2.31.17.03c-.28,1.85.06,1.43-.13,3.38.1.31.27-.35.39-.86-.23-3.15.52-4.28.52-7.15.49-.76.05,6.97.68,2.51-.05-.75.25-2.92-.07-2.1.28.33.29-2.87.59-1.67-.29,1.17.17,2.91-.25,4.6.06-.95-.18-.73-.24-.46.08,1.1-.12,2.88.17,2.89.19-.27.44-.31.45-1.81.05-1.64-.28.17-.11-1.49.38-.56.35,1.94.6-.96-.23.22-.23-1.47-.19-2.6l.29-.67-.09,1.09c.39.8.19-1.97.59-1.67l.12,2.16c-.16,1.85-.56-.84-.59,2.17.26.13.4-1.4.62-.61-.06.26-.14.33-.21.6.09.1.05,4.11.51,1.78.23-.9.09-1.07.13-2.2.44-.33.6-1.48.88-1.64-.13,2.2.48.23.1,2.47-.1-1.3-.71-1.19-.94.91.07,2.61-.32-.38-.5,2.26.34.07.24,2.64.23,4.33.09.12.21-.59.27-.85.09-1.59-.03-1.56.02-3.2.37.44.76-.43,1.02-1.96.1.79,0,2.37-.15,2.52.47-.45.94-.22,1.36.27-.19-2.59.5-.59.38-2.75-.21-.59-.35-2.44-.18-3.6.14.17-.04,1.13,0,1.69.23-1.41.21,2.28.46.05-.44.82-.19,3.15-.33,5.18.34-1.13-.06,1.44.23,1.45.34-1.12.73-1.99,1.08-2.42.35,1.94,1.05.07,1.42,0,.16,1.03-.05,3.32.15,3.72.25-.04-.1-2.48.23-1.42l-.05.45c.13-.53.62,1.58.84-1.71l-.2,2.48c.06.23.14-.34.21-.6-.02.81.03,1.55-.1,2.07.17,1.72.48-.26.73-.32l-.11-1.47c.46-1.14.69.33,1.11-.17l-.06,1.44.27-.85c-.11,1.39.08,2.3.25,1.13l-.75,3.5c-.15-.85.25-1.73.19-3.15-.05-1.24-.44-.87-.55.52.14.16.16-.15.29-.67-.02,2-.24,1.92-.39,3.25.08-.08.16.53.2-.1-.18.97-.34,1.12-.58,1.16.19-.77-.05-1.24.03-1.81-.08,1.76-.33,2.29-.62,1.79-.15-2.04-.62,1.29-.95.72.2-1.78.43-3.2.67-3.92-.19-.91-.25.04-.44-.87-.15,1.33-.3,3.36-.61,4.16l.03-1.32c-.28.66-.35,2.61-.67,2.23-.55-.66-1.14-.68-1.57-.87l.03-1.31c-.34,2.8-.84,1.01-1.21,2.25-.51-1.28-1.25,1.21-1.46-1.06-1.01.97-1.9,1.93-2.9,1.42l.24-1.91c-.23,1.4-.08-1.1-.27-.83.15,1.54-.31,1.98-.48,3.14-.4-1.5-1.04.1-1.48,1.43l.03-1.32c-.49,2.45-.9.27-1.39-.15-.04-.55-.09-1.79-.24-1.64-.35,2.12-.48,1.96-.93,3.27-.29-.01-.75-.56-1.02-1.39-1.2,2.95-2.27,1-3.47,2.76l-.03-1.55c-1.22,3.26-2.49.22-3.5,1.88l.18-2.64c-.27-.82-.7.67-.69,2.54-.27-.82-.79,1.26-.9-.92-.29-.5-.41,1.21-.68,1.55-.58-1.02-.81-.8-1.4-.33l.14.17c.08-.58.13-1.7-.01-1.87-.24.72-.77-.74-.66,2.42-.55-1.85-1.48,1.43-2-1.04.02.87-.13,1.02-.22,1.6-.54.02-1.05-1.75-1.53-.31-.07-.44.19-1.46-.03-1.56-.14.32-.04,1.12-.22,1.6-.93,1.58-1.71-1.72-2.52-1.33-1.47,1.62-2.91.72-4.27.96l.04-.63c-.53,2.4-.98-2.51-1.46,1.12-.09-.61-.4-.3-.28-1.52-.42,1.7-.96-1.64-1.55.51.05.06.08-.07.14-.34-.48-1.41-1.01.49-1.52-.8.07-.27.17-.47.21-1.1-.17-1.22-.6,2.66-.61-.4-.12.03-.14,1.53-.06,1.44-1.18-1.23-2.54.68-3.83,1.33-.85-1.86.12-5.14-.67-2.89-.04-.59-.08,1.17-.07.53-.31.84-.32-3.42-.56-1.83.02,1.88-.16,1.04-.21,2.18-.51-1.24-.57-2.93-1.05-1.52l.07-.98c-.61,2.77-1.15,1.26-1.69,4.45-2.85.49-5.62,2.18-8.4,2.45-2.71-.71-5.43.65-8.14-1.15-.56-2.62-.61-2.55-1.36-1.52.04-.42.09-.51.06-.91-.11,2.12-.51.18-.65,2.21-1.01-.43-1.97.12-3.03.09.17-.22.32-1.96.11-1.82l-.25,1.35v-.59c-.16.31-.34,1.35-.23,2.04-2.71,1.75-5.17-2.61-7.78-2.17-.59-.91-1.49-.12-2.17.29-1.89-2.9-3.6-5.25-5.68-3.33,0,0,.45-5.48,1.32-6.72Z"/>
      <path class="cls-1" d="M131.74,153.1c-.03-1.07-.25-1.65-.01-3.07-.01,1,.07,2.12.01,3.07Z"/>
      <path class="cls-1" d="M125.95,141.96c-.02.31-.07-.43-.09-.61.08-.08.18-.97.22-.41-.08.08-.08.58-.14,1.03Z"/>
      <path class="cls-1" d="M124.4,141.27c.06-.95.42-1.68.62-1.79l-.62,1.79Z"/>
      <path class="cls-1" d="M123.07,137.32c-.1-.8-.05-1.24.12-1.21,0,.5-.07.75-.12,1.21Z"/>
      <path class="cls-1" d="M122.89,139.47c-.12.02-.16-.54-.21-1.08-.02.81.3-.5.21,1.08Z"/>
      <path class="cls-1" d="M119.8,136.61c-.08.07-.27.85-.31-.2.06.74.41-1.19.31.2Z"/>
      <path class="cls-1" d="M118.27,137.99c-.05-.06-.06-.24-.12.02-.07-.44.04-1.12.12-1.21v1.19Z"/>
      <polygon class="cls-1" points="91.21 140.87 91.38 140.42 91.33 141.35 91.21 140.87"/>
      <path class="cls-1" d="M79.4,140.52c-.18.59-.08-.89-.1-1.03.15-.09-.09,1.16.1,1.03Z"/>
      <polygon class="cls-1" points="72.88 145.03 72.92 145.01 72.84 146.94 72.88 145.03"/>
    </g>
  </g>
  <g>
    <g>
      <path class="cls-1" d="M253.28,208.21c.88.03.53-1.63.81-.36-.49.59-.92,1.01-.81.36Z"/>
      <path class="cls-1" d="M255.71,100.85c.16,5.52-5.04,2.63-5.93,6.67-.18.33-1.2-2.43-1.52-1.52-.49,4.61-5.19,4.52-9.38,3.4l-.19-.76c-.79-.21-.25,2.38-.98,2.37-.24-.45-.16-.73-.62-1.28.58,1.43-.69,1.17-.39,2.3-.51-.41-1.05-1.49-1.66-1.93l.5,1.71c1.05,4.14-2.32.9-2.54,3.45-.13-.39-.16-.73-.44-1.03-.78,3.27-3.47,4.17-5.23,6.16-.2-.59-.65-1.63-1.1-2.17.76,1.68.29,2.45-.13,3.08-1.15-1.53-.2,2.06-1.38,1.51l-.14-.4c.42,2.02-1.29-.6-.59,1.71l-1.02-1.14c1.03,2.47-1.39-.82-1.18.59l.27.48c-.09.79-.93-.28-1.09.31l-.18-.25c-.54,1.08-1.74.04-.74,1.86-1.08-1.3.48-1.11-1.13-2.99-1.84,3.4-4.97,4.6-7.82,6.16-.72-.56-1.04-.68-1.49-1.33-.09.52-.9.91-.66,1.99.08-.09-.68-.84-.88-.85-.89-.41.5,2.32-.51,1.8-.03-.61-.27-1.24-.71-1.88.27,1.69-.5,1.81-.83,2.58-.07-.36-.03-.61-.36-1.18.23,1.96-1.33.27-1.34,1.59l-.36-1.17c-1.58-.81.92,2.35-.26,2,0-.43-.28-.81-.47-1.26.31,2.31-1.19,2.29-1.57,3.32-.04-.17-.2-.45-.2-.45-.65.66-1.79.49-2.2,1.79-.56-.31-1.27-2.64-1.89-1.81,1.16,2.11-.94,1.62.83,3.77-.89.03-2.43-.17-2.52.8-.11-.98-1.73-2.41-1.24-2.91l-1.13-1.05c-.4-.91.61.05-.11-.97-.25.24-.66,1.54-1.1,1.34.15,1.59.94,4.29.2,5.03-.03-1.05-1.48-2.21-1.4-2.73l.94,4.73c-.24.26-.96-1.64-1.09-.86.32.55.32.99.43,1.52-.28-.16-.5.95-1.94-.97-.64-.72.13-.64-.61-1.19-.48.29-.03.96-.46,1.23l-.21-.25c-.57-.1-.21,1.26.99,2.1.23-.04-1.03-1.07-.29-.68.71,1.19.59,1.68.27,1.88-.17-.34-.66-.8-1.1-1.32.85,1.66.92,2.29,1.18,3.03,1,.75-1.67-1.43-1.05-1.09-1.02-.34-.91.23-.75.67.13.45.3.79-1.21.3-.13-.16,1.78.86,1.43.69-.42.06-2.25-.81-1.77-.38-1.12-.49.08.3.25.54.74.4-.62-.2-.56-.35.33.29.69.75.72,1.06.02.32-.28.51-1.58.4.89.25,3.03,1.02,2.85,1.04l-2.16-.53c-1.44-.23-.22.27-2.2-.12,1.25.35.92.1.55-.2-.37-.3-.76-.63.02-.26-.96-.19-.26.1.36.33.62.23,1.14.4-.35.05-.24.19,2.17.79-.3.53.45.03-3.04-.71-3.15-.53-.05.32,1.01.26,1.48.58l.81.25c2.44.33-.67.14,2.24.42-2.12-.22.83.39-3.42-.07l-3.3-.37c.02.15,3.24.53,4.66.72-.35-.02-1.09-.05-1.64-.1,2.64.23,2.45.26,2.08.3-.37.04-.94.09,1.12.25-1.08.02-1.33.12-1.73.2-.07.1-.34.18-2.04.21,1.97.2,4.09.29,3.19.46-.55-.02-.77-.07-1.95-.06-1.39.14.08.16,1.08.23-.83,0-2.66.33-4.15.61,1.81.11,4.33-.15,5.99-.24-2.32.23-1.33.31-.36.33.99.04,1.95.02.06.36-.69.04-2.62.01-3.52.3-2.11.36-1.09.38.17.33,1.27-.04,2.77-.16,1.96.14l3.42-.65c-1.02.23-.38.22.04.22.42,0,.64,0-1.09.35,1.31-.19-.65.52,2.48-.25-1.08.47-.33.6-.02.76.33.18.25.43-1.85,1.55.53-.12.34.23,1.58-.4,1.27-.72-1.22.32-.31-.14.16.02.88-.28,1.23-.43-.43.36-.42.56-2.69,1.4-.5.53.69.12,1.89-.37,1.21-.48,2.41-1.04,2.19-.65-.93.54-1.24.78-.94.79.61-.26,1.19-.54,1.75-.83-.07.4-1.71,1.49-3.12,2.52.47-.04.7.2,1.75-.56-.46.51-.9,1.04-1.32,1.57.93-1.16.94-.56,1.34-.79l-.4.22c-.47.51.13.39.4.31.66-.77.72-1.21.82-1.49.62-.45.64-.24,1.34-.8-1.15,1.15-.49,1.02-.46,1.24-.04.38,1.07-1.01,1.07-.94-.5.66.16.26-.64,1.12-.22.17.36-.72-.18-.2-.27.55-1.13,1.71-.25,1.02.63-.53,1.74-2.6,1.46-1.6-.28.29-.65.81-1.03,1.24-.03.31-.13.57-.04.95l.79-1.21c-.11.36-.23.43-.3.62.98-1.18,1.14.16,2.17-1.21.37.06.09,1.23.28,1.55l-.12.07c-.11.94.65.74,1.45.1l-.18.26c.13.21.69.3,1.37-.28-.1,1.22-2.72,4.72-1.24,3.51.51.26,2.15-1.78,2.45-2.68.35,1.37,2.57-.02,2.19,2.38.43-.42.55-.78.98-.91.97,1.27,3.58.22,3.09,3.25-.69.29-.79,1.21-1.22,1.91.99-.91-.35,1.37.94-.45.66-1.13,1.03-1.65.95-2.32,1.13-.12,2.28.6,2.05,1.89.11-.65.48-.88.86-1.11-1.15,1.73-.76,2.35.05,1.99l.73-1.04-.42,1.28c.38-.24,1.59-2.14,1.36-.85-.24.43-.48.87-.59,1.22.99-.61,2.53-1.71,2.44-.51l-.59,1.81c.31-.05,1.24-.78,1.17-1.45.22,1.45.67,1.89.08,3.41,3.46-2.44,5.56-1.31,7.03-.07l-.55.78c-.04,1.03,1.1-1.27,1.06-.52-.62.68-.71,1.88-1.64,2.61.09,1.24,1.67-.9,2.31-1.01.72-1.02-.75.47.17-.82.31-.34.35,1.36,1.44-.18-.24.72-1.09,1.83-1.58,2.42l.86-.54c-.7,2.16-3.14,2.68-4.09,5.29l.51-.03c-.71,1.89-2.11,1.31-1.59,2.44.87-.55,2.65-2.67,2.75-3.59,1.07.05,2.75-3.59,3.52-2.92-.35,1.09-.82-.2-1.48,1.22-.4,1.54,1.26-.22,1.33.46-.02-.85,1.32-2.26,1.76-2.39-.04,1.03-1.23,1.34-.71,1.89.68-.86,1.68-1.2,1.59-2.15,1.53-1.95.28.98,1.63-.44-.72,1.6-2.76,3.01-2.54,4.17.78-1.49,2.04-1.41,3-3.74,0,.58-.66,1.71-1.4,2.46-.16,1.11,2.53-2.02.9.88l1.04-1.37c-.18.55-.23,1.01-.52,1.91.32.23,2.3-1.3.9.88.25-.16.95.41,1.6-1.29.1-1.22-1.24.77-.22-1.45-.71,1.88.82.21,1.44-.18l-.48.87c.37-.23.63.19,1.3-.66-.43.41-.72,1.03-.72,1.31l.98-1.18c1.06-.23-1.26,2.36-.38,2.39l-1.11.7c.24-.15-.29,1.19.27.98.86-1.1,1.96-2.37,2.63-3.23.68-.29-.66,1.43.45.44l-1.35,1.13c-.31.34-.9,2.14-.39,2.41.56-.21,2.11-1.61,2.02-2.56.25.13.15,1.06-.58,1.8.8-.06.72-1.31,1.65-1.74-.29.91-.39,2.4-.73,3.77l-1.72,1.66.32.22c-1.41,1.31-.54,1.34-1.81,2.85.06.4.69,0,1.18-.29,1-3.08,3.01-3.18,4.34-5.73,1.32-.1-3.12,6.26.19,3.05.24-.73,1.84-2.3.83-1.96.39.62,1.9-2.2,1.94-.78-1.11.69-1.01,2.79-2.62,3.8.55-.78-.01-.86-.27-.7-.35,1.07-1.57,2.41-1,2.77.5-.02,1.01.24,1.73-1.07.85-1.4-.63-.19.47-1.45,1-.05-.2,2.14,1.63-.14-.56-.09.22-1.59.83-2.54l.88-.26-.68.86c.41,1.18,1.29-1.53,1.93-.78l-.77,2.06c-1.17,1.45-.73-1.42-2.18,1.23.45.43,1.44-.77,1.51.2-.25.15-.43.12-.68.28.13.2-1.8,3.71.18,2.19.86-.54.67-.85,1.28-1.8,1.01.23,1.87-.59,2.5-.41-1.28,1.8.84.77-.95,2.32.41-1.27-.86-1.91-2.27-.31-1.08,2.4-.46-.72-2.04,1.41.64.47-.76,2.63-1.54,4.13.12.22.68-.28.93-.43.92-1.3.66-1.43,1.51-2.82.52.83,1.7.53,2.93-.53-.17.82-1.08,2.12-1.46,2.06,1.14.16,1.97.93,2.56,1.86.82-2.53,1.26.07,2.03-1.99-.14-.77.44-2.58,1.31-3.41.19.32-.61.96-.78,1.5,1.11-.98-.64,2.27.89.6-1.25.2-1.83,2.58-3.05,4.21,1.19-.61-.79,1.21-.21,1.57,1.18-.59,2.36-.9,3.24-.87-.21,2.14,2.04,1.31,2.81,1.7-.16,1.11-1.63,2.89-1.43,3.49.51.26.95-2.32,1.11-.99l-.31.34c.5-.32.49,2.14,2.44-.52l-1.54,1.97c.02.27.44-.13.69-.29-.42.69-.66,1.41-1.15,1.72-.46,1.73,1.07.35,1.59.59l.47-1.44c1.43-.46,1.21,1.11,2.28,1.17l-.79,1.21.93-.43c-.85,1.11-.89,2.14-.03,1.31l-3.09,2.22c.11-.93,1.29-1.24,1.83-2.58.47-1.16-.47-1.29-1.32-.19.2.31.38.05.87-.25-.97,1.76-1.35,1.42-2.27,2.42.19.02.08.67.44.15-.81.65-1.18.6-1.69.33.74-.46.48-1.16.9-1.57-.97,1.47-1.72,1.64-2.06.85.65-1.99-1.81.41-2.21-.5,1.22-1.34,2.34-2.33,3.14-2.68.04-1.03-.51-.26-.47-1.3-.91,1-2.14,2.64-3.14,2.97l.67-1.14c-.87.25-1.9,1.9-2.36,1.18-.78-1.25-1.93-1.96-2.7-2.64l.66-1.13c-1.96,2.09-2.13-.11-3.43.55-.42-1.75-3.03-.41-2.39-2.68-2.45-.34-4.66-.55-6.39-2.2l1.35-1.42c-1.1.97.35-1.08-.15-1.06-.41,1.55-1.54,1.38-2.4,2.22-.1-1.81-2.1-1.15-3.59-.5l.67-1.14c-2.1,1.6-1.9-.83-2.68-1.79.17-.53.65-1.7.28-1.75-1.66,1.47-1.86,1.17-3.35,1.8-.57-.36-1.23-1.39-1.38-2.45-3.74,1.19-4.94-1.81-8.14-1.69l.66-1.41c-3.93,1.44-5.02-2.77-7.78-2.49l1.58-2.13c-.15-1.05-1.7-.24-2.54,1.44-.16-1.05-2.14.18-1.36-1.9-.34-.79-1.38.58-2.06.57-.67-1.6-1.23-1.68-2.62-1.96l.19.32c.43-.42,1.04-1.36.84-1.68-.81.36-1.17-1.57-2.42,1.37-.24-2.3-3.59-.49-3.46-3.31-.36.8-.74.75-1.17,1.17-1.08-.63-1.26-2.81-2.88-2.09.06-.47,1.04-1.07.66-1.42-.43.12-.6.95-1.17,1.17-1.28.15-1.93-.74-2.48-1.75-.27-.5-.52-1.04-.82-1.48l-.11-.16c-.05-.06-.14-.14-.21-.21-.15-.14-.3-.28-.46-.4-.31-.25-.65-.46-1.01-.63-2.86-.81-5.6-2.27-8.1-3.79-2.53-1.54-4.83-3.14-7.34-4.54l.81-.24c-2.22.04-2.45-.83-2.7-1.54-.28-.72-.6-1.29-3.76-1.12.46-.43-1.04-.99.99-1.16-1.84-.14-2.15-.81-2.53-1.45-.4-.66-.85-1.28-3.53-1.67.06.11.37.15,1.01.22.25-.66-.75-1.14-1.85-1.65-1.08-.5-2.26-1.04-2.01-1.64.69.11,1.38.31,2.58.31.77-.23-.84-.45-2.03-.67-1.18-.22-1.94-.45.8-.54-.43-.23-3.22-.2-2.79-.04-.3-.43-.77-.85-1.39-1.29,1.9-.91,3.04-1.86,4.14-2.91,1.09-1.04,2.13-2.17,3.59-3.27,3.04-.59,4.92-.13,6.04.14,1.12.28,1.36.44.85-.57,1.03.12-1.53-.51-.6-.29-.15-.4,1.42-.27,2.76-.13,1.35.14,2.48.29,1.7-.2-2.75-.66-1-.66-2.47-1.16,3.46-.47,5.71.25,5.39-1.19l1.04.56c-.84-1.13-.28-1.8.2-2.48.49-.69.89-1.39.17-2.83,2.43-1.46,4.81-2.98,7.24-4.56,1.23-.81,2.45-1.61,3.67-2.42l.23-.15c.08-.05.09-.07.14-.1l.24-.19.48-.37.95-.75c2.54-2,5.08-3.96,7.81-5.62,5.85-2.42,10.62-6.6,17.07-8.11,2.54,1.59,2.61,1.47,3.57-.23.14.4.09.53.37.83-.92-1.91.93-.72.11-2.59,2.28-.76,3.93-2.3,6.07-3.46-.23.38.41,2.01.75,1.67l-.22-1.42.35.48c.13-.42-.06-1.51-.67-1.96,4.53-4.5,11.85-3.56,16.89-6.84,1.67.11,3.08-1.56,4.24-2.67,5.38.35,10.1.43,13.27-3.52,0,0,2.05,5.14.95,7.16Z"/>
      <path class="cls-1" d="M252.39,207.9c.42-.99.28-1.76,1.39-2.75-.48.88-.84,1.97-1.39,2.75Z"/>
      <path class="cls-1" d="M246.11,191.09c-.18.26.06-.47.11-.65.19.03.8-.65.63-.1-.19-.02-.44.41-.74.75Z"/>
      <path class="cls-1" d="M243.36,188.63c.55-.78,1.6-1,2.06-.85l-2.06.85Z"/>
      <path class="cls-1" d="M242.55,183.52c.17-.83.48-1.16.8-.93-.24.44-.49.59-.8.93Z"/>
      <path class="cls-1" d="M241.2,185.23c-.25-.13-.07-.68.1-1.21-.42.69.82-.09-.1,1.21Z"/>
      <path class="cls-1" d="M236.42,179c-.19-.03-.93.43-.51-.54-.23.72,1.37-.56.51.54Z"/>
      <path class="cls-1" d="M232.76,178.4c-.06-.11,0-.28-.26-.13.06-.47.61-.95.8-.94l-.54,1.06Z"/>
      <polygon class="cls-1" points="185.04 153.12 185.89 153.11 184.46 153.32 185.04 153.12"/>
      <path class="cls-1" d="M190.2,146.53c-.29-.52.79.58.92.67-.06.14-.84-.88-.92-.67Z"/>
      <polygon class="cls-1" points="198.77 136.6 198.68 136.68 197.81 134.95 198.77 136.6"/>
    </g>
    <g>
      <path class="cls-1" d="M167.86,147.1c-.34.42.12,1.67-.24.73.07-.76.15-1.34.24-.73Z"/>
      <path class="cls-1" d="M256.31,151.18c-1.23,4.91-2.46-.13-3.73,2.98-.14.21.13-2.71-.2-2.06-1.26,3.8-2.95,1.45-4.23-1.56l.11-.76c-.24-.56-.65,1.96-.91,1.59.01-.51.11-.72.07-1.42-.12,1.53-.52.69-.68,1.83-.09-.6-.04-1.81-.16-2.49l-.22,1.74c-.58,4.13-1.06-.33-1.73,1.79.04-.4.11-.72.08-1.11-1.05,2.49-2.24,1.98-3.35,2.86.06-.61.14-1.74.1-2.43-.12,1.83-.46,2.29-.77,2.64-.07-1.89-.55,1.71-.86.65l.04-.42c-.32,1.97-.33-1.15-.62,1.21l-.11-1.49c-.2,2.66-.32-1.39-.57-.05v.55c-.23.64-.29-.7-.48-.26v-.31c-.46.69-.65-.8-.71,1.27-.09-1.66.44-.74.29-3.17-1.47,2.09-2.89,1.63-4.3,1.61-.13-.84-.22-1.1-.23-1.88-.15.41-.54.36-.71,1.42.05-.04-.05-1.06-.13-1.17-.23-.79-.36,2.27-.61,1.33.13-.55.19-1.22.18-1.99-.29,1.61-.61,1.34-.91,1.86.06-.35.13-.55.14-1.2-.37,1.82-.55-.41-.86.74l.14-1.2c-.39-1.47-.21,2.5-.56,1.63.1-.37.09-.85.12-1.33-.43,2.17-.97,1.43-1.35,2.15.03-.17.03-.49.03-.49-.39.26-.77-.43-1.22.5-.14-.54.15-2.92-.27-2.5-.07,2.41-.72.97-.58,3.7-.33-.41-.85-1.33-1.11-.52.19-.91-.07-2.95.23-3.14l-.17-1.46c.07-.98.21.34.19-.9-.15.09-.6,1.03-.72.63-.32,1.47-.66,4.21-1.1,4.5.24-.93-.03-2.65.13-3.06l-.76,4.59c-.15.11.03-1.9-.2-1.28-.01.64-.11,1.02-.2,1.54-.04-.27-.62.58-.6-1.79-.03-.93.25-.49.12-1.34-.27.02-.31.82-.57.85v-.32c-.16-.36-.55.99-.4,2.31.12.08,0-1.42.16-.73-.17,1.37-.49,1.74-.76,1.76.1-.38.11-1.01.17-1.68-.42,1.85-.82,2.43-1.24,3.19-.04,1.13.22-2.04.26-1.45-.46-1.58-1.13,2.18-1.48-.12.08-.2-.02,1.6-.01,1.28-.24-.15-.18-1.78-.36-1.18.02-.96-.21.3-.39.58-.11.69-.03-.47.12-.57-.26.81-1.23,2.25-1.71.83-.01.64-.41,2.32-.53,2.24l.1-1.48c-.08-.89-.41.12-.39-1.15-.32,1.79,1.06-1.5.66-.12-.05-1.24-.57,2.34-.43.33-.25.04-.54,1.71-.73.31.06.24.27-2.04.07-1.95-.36.25-.12.7-.42,1.19l-.2.6c-.06,1.44-.31-.2-.23,1.41,0-1.19-.53.71-.42-1.68l.11-1.88c-.16.14-.31,1.98-.46,2.81-.01-.18-.04-.56-.02-.86-.12,2.88-.35-.25-.61,1.97-.28-1.01-.8-.12-.89-1.92-.27.87-.53,1.9-.79,1.27.06-.27.14-.35.18-.97-.15-.86-.21-.1-.39.36.05-.43-.29-1.7-.45-2.73-.27.85-.24,2.41-.3,3.36-.12-2.85-.75,1.81-.93-.78.1-.39.4-1.38.22-2.11-.12-2.85-.52,2.09-.83.71v2.37c-.1-1.47-.56,1.35-.45-1.06-.15.85-.39-.79-.43,1.51-.52-1.97-1.46,1.13-1.68-3.01-.1.38-.29-.02-.29,1.17.1,1.29.23-.91.25-.03-.08.07-.12.7-.13,1.01-.16-.53-.3-.71-.06-2.61-.36-1.44-.55,3.9-1.04,2.98.06-.95.03-1.32-.13-1.17l-.34,1.62c-.32-.39-.12-2.17-.07-3.79-.19.27-.4.19-.52,1.39l-.15-2.04c.11,1.48-.18.97-.28,1.36l.1-.4c0-.68-.23-.27-.34-.07,0,1,.19,1.41.29,1.71-.12.71-.25.54-.4,1.37.09-1.58-.25-1.14-.39-1.31-.15-.35-.23,1.42-.28,1.36.02-.82-.26-.15-.09-1.29.06-.26.1.8.22.09-.09-.61-.03-2.05-.28-1.01-.19.78-.06,3.13-.35,2.12.1-.39.13-1.02.22-1.59l-.27-.83-.06,1.44c-.03-.37,0-.49,0-.68-.14,1.52-.47.45-.6,2.16-.16.14-.28-1.01-.42-1.18l.03-.12c-.15-.86-.4-.3-.58.66l.02-.31c-.09-.12-.33.1-.47.95-.2-1.1.1-5.45-.23-3.64-.25.04-.47,2.63-.41,3.56-.41-.99-.99,1.35-1.32-.91-.08.58-.06.95-.2,1.28-.63-.59-1.42,1.67-1.84-1.19.21-.6.06-1.44.09-2.27-.2,1.29-.14-1.35-.27.87-.03,1.3-.07,1.94.1,2.47-.41.69-1,.67-1.17-.56.09.61,0,1-.11,1.39.1-2.07-.18-2.4-.42-1.68l-.07,1.27-.1-1.31c-.1.4-.18,2.65-.35,1.43,0-.49.01-.99-.02-1.35-.26,1.03-.63,2.77-.84,1.69l-.14-1.86c-.11.2-.32,1.31-.16,1.85-.37-1.13-.64-1.28-.71-2.88-.84,3.88-1.88,4-2.7,3.69l.06-.95c-.19-.9-.17,1.66-.3.99.1-.9-.1-1.97.11-3.08-.28-1.01-.46,1.63-.69,2.05-.07,1.24.19-.79.1.79-.05.45-.41-.99-.52.9-.05-.74.05-2.13.12-2.89l-.23.91c-.16-2.21.67-3.92.52-6.64l-.19.29c-.1-1.98.55-2.21.12-2.9-.23.92-.49,3.65-.34,4.49-.42.51-.34,4.49-.77,4.32-.08-1.11.36-.25.33-1.81-.15-1.53-.44.84-.61.3.18.72-.06,2.62-.2,2.96-.19-.9.2-1.78-.1-1.98-.09,1.09-.41,1.89-.18,2.66-.2,2.46-.3-.69-.54,1.21-.04-1.74.46-4,.14-4.88,0,1.68-.5,2.26-.4,4.75-.12-.49-.09-1.8.05-2.83-.16-1.03-.57,3.04-.52-.28l-.12,1.71c-.04-.56-.11-.98-.18-1.91-.17-.04-.63,2.3-.52-.29-.06.27-.45.14-.36,1.93.2,1.1.32-1.3.37,1.12-.1-1.98-.36.24-.52.9v-1c-.09.39-.27.16-.36,1.24.08-.57.07-1.25.01-1.5l-.14,1.52c-.36.75.01-2.67-.33-2.24l.29-1.17c-.06.25-.13-1.17-.3-.7-.11,1.39-.28,3.04-.37,4.12-.21.6-.03-1.57-.26-.15l.3-1.66c.05-.45-.08-2.3-.33-2.27-.17.47-.49,2.47-.26,3.24-.13.02-.27-.83-.14-1.84-.3.47-.01,1.49-.29,2.34-.07-.93-.33-2.25-.47-3.6l.33-2.31-.17-.03c.28-1.85-.06-1.43.13-3.38-.1-.31-.27.35-.39.86.23,3.15-.52,4.28-.52,7.15-.49.76-.05-6.97-.68-2.51.05.75-.25,2.92.07,2.1-.28-.33-.29,2.87-.59,1.67.29-1.17-.17-2.91.25-4.6-.06.95.18.73.24.46-.08-1.1.12-2.88-.17-2.89-.19.27-.44.31-.45,1.81-.05,1.64.28-.17.11,1.49-.38.56-.35-1.94-.6.96.23-.22.23,1.47.19,2.6l-.29.67.09-1.09c-.39-.8-.19,1.97-.59,1.67l-.12-2.16c.16-1.85.56.84.59-2.17-.26-.13-.4,1.4-.62.61.06-.26.14-.33.21-.6-.09-.1-.05-4.11-.51-1.78-.23.9-.09,1.07-.13,2.2-.44.33-.6,1.48-.88,1.64.13-2.2-.48-.23-.1-2.47.1,1.3.71,1.19.94-.91-.07-2.61.32.38.5-2.26-.34-.07-.24-2.64-.23-4.33-.09-.12-.21.59-.27.85-.09,1.59.03,1.56-.02,3.2-.37-.44-.76.43-1.02,1.96-.1-.79,0-2.37.15-2.52-.47.45-.94.22-1.36-.27.19,2.59-.5.59-.38,2.75.21.59.35,2.44.18,3.6-.14-.17.04-1.13,0-1.69-.23,1.41-.21-2.28-.46-.05.44-.82.19-3.15.33-5.18-.34,1.13.06-1.44-.23-1.45-.34,1.12-.73,1.99-1.08,2.42-.35-1.94-1.05-.07-1.42,0-.16-1.03.05-3.32-.15-3.72-.25.04.1,2.48-.23,1.42l.05-.45c-.13.53-.62-1.58-.84,1.71l.2-2.48c-.06-.23-.14.34-.21.6.02-.81-.03-1.55.1-2.07-.17-1.72-.48.26-.73.32l.11,1.47c-.46,1.14-.69-.33-1.11.17l.06-1.44-.27.85c.11-1.39-.08-2.3-.25-1.13l.75-3.5c.15.85-.25,1.73-.19,3.15.05,1.24.44.87.55-.52-.14-.16-.16.15-.29.67.02-2,.24-1.92.39-3.25-.08.08-.16-.53-.2.1.18-.97.34-1.12.58-1.16-.19.77.05,1.24-.03,1.81.08-1.76.33-2.29.62-1.79.15,2.04.62-1.29.95-.72-.2,1.78-.44,3.2-.67,3.92.19.91.25-.04.44.87.15-1.33.3-3.36.61-4.16l-.03,1.32c.28-.66.35-2.61.67-2.23.55.66,1.14.68,1.57.87l-.03,1.31c.34-2.8.84-1.01,1.21-2.25.51,1.28,1.25-1.21,1.46,1.06,1.01-.97,1.9-1.93,2.9-1.42l-.24,1.91c.23-1.4.08,1.1.27.83-.15-1.54.31-1.98.48-3.14.4,1.5,1.04-.1,1.48-1.43l-.03,1.32c.49-2.45.9-.27,1.39.15.04.55.09,1.79.24,1.64.35-2.12.48-1.96.93-3.27.29.01.75.56,1.02,1.39,1.2-2.95,2.27-1,3.47-2.76l.03,1.55c1.22-3.26,2.49-.22,3.5-1.88l-.18,2.64c.27.82.7-.67.69-2.54.27.82.79-1.26.9.92.29.5.41-1.21.68-1.55.58,1.02.81.8,1.4.33l-.14-.17c-.08.58-.13,1.7.01,1.87.24-.72.77.74.66-2.42.55,1.85,1.48-1.43,2,1.04-.02-.87.13-1.02.22-1.6.54-.02,1.05,1.75,1.53.31.07.44-.19,1.46.03,1.56.14-.32.04-1.12.22-1.6.93-1.58,1.71,1.72,2.52,1.33,1.47-1.62,2.91-.72,4.27-.96l-.04.63c.53-2.4.98,2.51,1.46-1.12.09.61.4.3.28,1.52.42-1.7.96,1.64,1.55-.51-.05-.06-.08.07-.14.34.48,1.41,1.01-.49,1.52.8-.07.27-.17.47-.21,1.1.17,1.22.6-2.66.61.4.12-.03.14-1.53.06-1.44,1.18,1.23,2.54-.68,3.83-1.33.85,1.86-.12,5.14.67,2.89.04.59.08-1.17.07-.53.31-.84.32,3.42.56,1.83-.02-1.88.16-1.04.21-2.18.51,1.24.57,2.93,1.05,1.52l-.07.98c.61-2.77,1.15-1.26,1.69-4.45,2.85-.49,5.62-2.18,8.4-2.45,2.71.71,5.43-.65,8.14,1.15.56,2.62.61,2.55,1.36,1.52-.04.42-.09.51-.06.91.11-2.12.51-.18.65-2.21,1.01.43,1.97-.12,3.03-.09-.17.22-.32,1.96-.11,1.82l.25-1.35v.59c.16-.31.34-1.35.23-2.04,2.71-1.75,5.17,2.61,7.78,2.17.59.91,1.49.12,2.17-.29,1.89,2.9,3.6,5.25,5.68,3.33,0,0-.45,5.48-1.32,6.72Z"/>
      <path class="cls-1" d="M168.26,146.9c.03,1.07.25,1.65.01,3.07.01-1-.07-2.12-.01-3.07Z"/>
      <path class="cls-1" d="M174.05,158.04c.02-.31.07.43.09.61-.08.08-.18.97-.22.41.08-.08.08-.58.14-1.03Z"/>
      <path class="cls-1" d="M175.6,158.73c-.06.95-.42,1.68-.62,1.79l.62-1.79Z"/>
      <path class="cls-1" d="M176.93,162.68c.1.8.05,1.24-.12,1.21,0-.5.07-.75.12-1.21Z"/>
      <path class="cls-1" d="M177.11,160.53c.12-.02.16.54.21,1.08.02-.81-.3.5-.21-1.08Z"/>
      <path class="cls-1" d="M180.2,163.39c.08-.07.27-.85.31.2-.06-.74-.41,1.19-.31-.2Z"/>
      <path class="cls-1" d="M181.73,162.01c.05.06.06.24.12-.02.07.44-.04,1.12-.12,1.21v-1.19Z"/>
      <polygon class="cls-1" points="208.79 159.13 208.62 159.58 208.67 158.65 208.79 159.13"/>
      <path class="cls-1" d="M220.6,159.48c.18-.59.08.89.1,1.03-.15.09.09-1.16-.1-1.03Z"/>
      <polygon class="cls-1" points="227.12 154.97 227.08 154.99 227.16 153.06 227.12 154.97"/>
    </g>
  </g>
</svg>