<?xml version="1.0" encoding="UTF-8"?>
<svg id="Layer_3" data-name="Layer 3" xmlns="http://www.w3.org/2000/svg" viewBox="0 0 300 300">
  <defs>
    <style>
      .cls-1 {
        fill: #202020;
      }
    </style>
  </defs>
  <g>
    <g>
      <path class="cls-1" d="M103.17,146.92c-.14.23.35.39-.03.27-.08-.22-.13-.4.03-.27Z"/>
      <path class="cls-1" d="M104.9,117.02c1.45-.9,1.48.94,2.7.55.12,0-.46.7-.17.64,1.31-.58,2.01.69,2.35,1.98l-.17.17c.07.24.67-.3.78-.1-.08.13-.17.16-.25.36.29-.37.42,0,.68-.25-.03.2-.24.51-.26.74l.38-.4c.94-.92.6.48,1.31.15-.08.09-.17.15-.21.28.99-.3,1.65.28,2.45.45-.13.15-.33.42-.41.63.33-.46.61-.46.84-.44-.23.54.58-.26.62.14l-.09.1c.47-.42.04.44.55-.11l-.15.45c.5-.65,0,.5.34.22l.09-.15c.22-.1.07.29.25.24l-.04.09c.37-.02.28.46.61-.09-.18.49-.37.04-.63.76,1.19-.03,2,.62,2.85,1.14-.04.28-.02.38-.13.6.15-.06.38.1.63-.13-.03,0-.12.31-.09.37.03.3.54-.49.56-.14-.16.1-.29.26-.39.48.41-.33.56-.15.82-.18-.08.08-.16.1-.26.28.49-.36.28.31.63.11l-.26.28c.03.55.49-.61.58-.24-.12.06-.17.2-.26.32.57-.44.8-.03,1.13-.09-.04.04-.09.12-.09.12.28.07.41.4.82.31,0,.2-.51.75-.19.78.38-.64.58,0,.88-.8.14.23.33.68.6.55-.24.18-.38.83-.59.78l-.11.46c-.18.25-.08-.17-.24.18.1.03.51-.06.53.09.4-.29,1-.91,1.31-.83-.28.17-.36.74-.51.79l1.12-.98c.11.02-.29.51-.06.42.1-.17.22-.24.34-.35-.02.08.59.15.18.76-.13.26-.26.02-.3.3.18.1.35-.09.54.02l-.06.08c.04.15.59,0,.74-.38-.08-.08-.28.34-.27.1.39-.26.74-.18.97-.05-.17.03-.31.17-.51.3.73-.22,1.22-.13,1.8-.05.33-.2-.72.29-.6.16-.01.28.35.3.72.36.36.05.71.14.49.42-.13,0,.52-.26.42-.21.17.16-.42.38-.07.38-.34.14.27.06.53.11.34-.04-.14.08-.3.02.47,0,1.94.38,1.8.8.27-.07,1.35,0,1.44.08l-.73.08c-.31.13.43.22-.16.31,1.07.01-1.58-.43-.62-.34-.5.14,1.53.09.52.2.23.12,1.27.17.79.37.06-.05-1.19,0-.98.1.41.16.44.01.93.14l.47.07c.77-.04.18.18.92.06-.61.06.88.28-.48.3h-1.08c.19.08,1.31.1,1.89.16-.08.01-.26.04-.44.04,1.68,0,.17.2,1.65.31-.14.09.02.2.11.3-.25.09-.54.17-1.16.18.31.14.68.31.06.42-.1-.04-.07-.08-.42-.12-.64.05-.25.1-.14.21-.21-.04-1.25.08-1.94.09.26.16,1.13.24,1.61.32-.85-.05-.76.07-.68.2.08.13.14.28-.6.23-.1-.08-.36-.3-.89-.27-1.53-.18.62.4-.34.44l1.15.21c-.8-.08.09.43-.93.13.25.17-.72.11.28.38-.69.03-.91.24-1.22.42-.31.17-.7.29-1.55.03.06.1-.26.13.16.32.55.16-.12-.26.21-.13-.05.05.15.17.24.23-.35,0-.53.04-.99-.38-.78-.09.85.91.06,1.02-.25-.2-.39-.25-.48-.15.06.16.11.32.16.49-.43.1-.73-.37-1.15-.71-.08.14-.28.22-.07.53-.22-.12-.44-.24-.64-.37.46.27.09.29.1.42v-.13c-.19-.15-.27.04-.32.14.22.23.49.23.66.24.07.21-.1.24-.05.51-.28-.4-.5-.13-.66-.1-.21,0,.08.46.02.47-.14-.21-.28.1-.35-.26,0-.09.25.14.22-.09-.21-.1-.43-.49-.46-.11-.03.29.53.81.07.71.02-.15-.06-.33-.09-.51-.13-.03-.28-.04-.37-.09l.2.4c-.08-.09-.08-.13-.12-.18.16.44-.22.28-.01.77-.07.09-.34-.17-.46-.16v-.04c-.23-.17-.3.06-.25.37l-.04-.09c-.08,0-.19.14-.14.41-.31-.22-.84-1.46-.75-.87-.15.1.14.85.34,1.07-.42-.12-.39.69-.97.22.04.18.12.27.09.4-.49.06-.61.92-1.35.32.03-.23-.2-.4-.32-.62.09.4-.31-.3-.02.32.2.35.28.53.47.61-.14.32-.51.52-.82.26.16.13.16.27.16.4-.28-.57-.51-.57-.54-.29l.17.36-.28-.31c0,.14.33.75.02.49-.08-.13-.16-.26-.24-.35.01.36.07.94-.24.73l-.39-.44c-.04.09.02.45.21.54-.42-.17-.61-.11-.92-.51.12,1.3-.51,1.69-1.07,1.89l-.12-.27c-.27-.17.17.49-.02.36-.09-.27-.39-.48-.44-.84-.34-.17-.02.58-.09.77.16.35-.01-.27.19.17.04.13-.42-.12-.17.41-.16-.17-.32-.57-.4-.8v.31c-.46-.52-.22-1.25-.77-1.91l-.07.14c-.39-.48-.03-.77-.41-.8.01.32.3,1.12.53,1.29-.18.28.53,1.29.24,1.39-.24-.26.18-.19-.1-.58-.35-.34-.14.37-.33.29.23.13.4.7.37.84-.27-.17-.17-.53-.39-.48.13.31.06.63.33.75.29.71-.3-.08-.13.5-.32-.44-.38-1.2-.72-1.32.28.44.06.76.54,1.38-.16-.09-.36-.44-.44-.75-.27-.21.15.99-.37.11l.21.49c-.12-.13-.23-.22-.43-.43-.11.05,0,.81-.37.11,0,.09-.26.19.1.63.31.22-.02-.45.42.16-.39-.48-.18.19-.17.41l-.16-.26c0,.13-.15.14-.02.45-.04-.18-.16-.35-.24-.39l.17.44c-.1.32-.44-.7-.58-.47v-.4c-.01.09-.29-.26-.32-.08.15.4.34.89.46,1.2-.03.23-.28-.4-.19.05l-.09-.53c-.04-.14-.43-.57-.58-.48-.03.18.11.81.37.93-.08.05-.31-.12-.39-.43-.11.22.24.39.21.71-.2-.22-.58-.47-.89-.78l-.18-.72-.11.05c-.13-.58-.28-.35-.48-.92-.12-.05-.11.18-.1.36.67.74.39,1.29.86,2.04-.18.37-1.19-1.8-.84-.42.16.18.33.85.39.52-.23,0,.29.85-.09.64-.01-.4-.59-.7-.61-1.29.12.27.23.13.23.04-.23-.26-.4-.79-.59-.69-.07.13-.22.23.02.63.24.44.15-.14.31.35-.14.28-.54-.38-.21.46.11-.14.39.3.55.61l-.07.27-.13-.31c-.38-.07.21.58-.09.64l-.43-.52c-.21-.54.49.03,0-.77-.18.05-.02.5-.29.37,0-.09.03-.13.03-.23-.07,0-.71-1.05-.61-.29,0,.31.12.31.28.62-.22.24-.13.59-.28.73-.28-.62-.33.1-.47-.61.27.3.64.06.43-.56-.48-.66.26-.01-.06-.76-.22.1-.59-.61-.86-1.05-.08,0-.03.22-.03.31.21.45.28.4.52.84-.3.01-.4.37-.31.86-.19-.17-.4-.62-.33-.71-.22.28-.55.38-.89.4.55.61-.21.33.22.85.23.08.62.52.71.88-.11,0-.16-.31-.28-.44.09.45-.51-.52-.3.15.14-.37-.41-.89-.65-1.46-.02.41-.2-.4-.39-.3-.02.41-.12.77-.27,1-.54-.38-.67.34-.89.49-.27-.21-.52-.88-.71-.92-.15.1.47.61.09.45l-.04-.14c0,.18-.65-.2-.24.73l-.29-.71c-.08-.04-.03.14-.03.23-.12-.22-.28-.39-.28-.57-.39-.39-.26.23-.4.33l.31.35c-.1.45-.48.15-.66.43l-.2-.4-.03.31c-.16-.4-.43-.57-.35-.21l-.12-1.17c.23.17.13.54.41.89.24.31.42.07.26-.32-.11,0-.07.09-.07.27-.32-.53-.17-.58-.3-.98-.04.05-.19-.08-.11.09-.05-.32.02-.41.17-.5,0,.27.24.31.28.48-.24-.49-.17-.71.09-.68.43.48.17-.55.47-.51.17.53.26.98.23,1.25.27.17.15-.1.42.08-.13-.4-.37-.98-.31-1.3l.2.35c.07-.27-.22-.8.05-.81.45-.02.82-.21,1.12-.31l.2.35c-.26-.85.36-.55.38-1,.53.16.58-.75,1.08-.23.47-.6.87-1.16,1.57-1.37l.17.58c-.09-.44.23.26.31.12-.35-.35-.13-.62-.22-.98.5.25.63-.38.69-.88l.2.35c-.1-.81.51-.38.89-.44.12.13.35.44.43.34-.14-.67-.02-.68.04-1.17.18-.1.56-.11.87.01.26-1.18,1.25-1.04,1.71-1.91l.28.39c.22-1.27,1.51-.91,1.87-1.69l.33.75c.3.12.33-.42,0-.9.3.12.28-.6.72-.07.26.03.06-.46.17-.64.53.07.64-.07.93-.4h-.11c.04.18.2.49.32.49.03-.27.6-.07,0-.86.65.29.69-.88,1.42-.42-.16-.22-.09-.31-.13-.49.33-.19.94.1,1-.45.12.09.13.44.28.4.03-.13-.16-.31-.13-.49.16-.37.5-.4.85-.39.18,0,.36.02.52.01.15,0,.15.04.19-.02-.01-.29.02-.38.12-.44.09-.06.24-.09.28-.16l.22.1c-.4-.21-.15-.13.08-.08.22.05.41.05-.33-.19.27.07.17,0,.69.16-.34-.12-.13-.09.08-.08.21.01.42,0-.08-.11-.04,0,.02.01.15.04.82.05-.11-.12.69-.11.14.02.23.04.58.08.76.02-1.42-.18.38-.07.02-.02-.88-.06-.85-.05.16-.02.28-.04.35-.06-.13-.15-1.15-.27-1.55-.31.71-.22,2.39-.38,1.18-.31.25-.06-.53.09-.25.04-.42.05,1.36-.39.61-.28-.76.2-.48.08-.95.2.38-.2.96-.46.3-.35l.37-.13c-.59.14-.77.15-.96.16-.19.02-.39.05-.9.31-.14-.03-.28-.04-.41-.03-.06,0-.12.02-.18.04-.15-.05-.44-.17-.66-.25-.93-.37-1.84-.75-2.7-1.22-1.55-1.19-3.4-1.82-4.8-3.31.03-.92,0-.92-.61-.92.09-.1.13-.11.16-.23-.37.54-.34-.14-.71.37-.55-.49-1.22-.69-1.86-1.09.14,0,.47-.42.33-.46l-.35.28.08-.17c-.13.03-.39.25-.42.48-1.9-.52-2.78-2.62-4.43-3.46-.23-.46-.89-.58-1.37-.72-.74-1.49-1.44-2.76-2.99-3,0,0,1.06-1.34,1.77-1.36Z"/>
      <path class="cls-1" d="M103.39,146.73c.2.27.43.35.52.8-.16-.26-.4-.53-.52-.8Z"/>
      <path class="cls-1" d="M108.85,147.64c-.04-.09.12.09.16.13-.04.05.05.31-.07.18.04-.05-.04-.18-.09-.31Z"/>
      <path class="cls-1" d="M109.93,147.29c.12.27.02.58-.09.68l.09-.68Z"/>
      <path class="cls-1" d="M111.42,147.86c.2.18.24.31.13.36-.08-.13-.08-.22-.13-.36Z"/>
      <path class="cls-1" d="M111.17,147.24c.07-.05.19.09.31.21-.12-.22-.1.23-.31-.21Z"/>
      <path class="cls-1" d="M113.57,146.92s.03-.32.22-.05c-.16-.17-.06.45-.22.05Z"/>
      <path class="cls-1" d="M114.3,146.04s.08.04.07-.05c.12.09.16.31.13.36l-.2-.31Z"/>
      <polygon class="cls-1" points="132.97 134.76 133.03 134.89 132.62 134.78 132.97 134.76"/>
      <path class="cls-1" d="M128.5,128.28c-.29.03.12-.25.13-.29.16.06-.34.21-.13.29Z"/>
      <polygon class="cls-1" points="123.23 126.71 123.26 126.72 122.94 127.22 123.23 126.71"/>
    </g>
    <g>
      <path class="cls-1" d="M131.68,133.98c.11-.13-.04-.51.07-.23-.02.23-.05.41-.07.23Z"/>
      <path class="cls-1" d="M104.4,132.72c.38-1.51.76.04,1.15-.92.04-.06-.04.83.06.64.39-1.17.91-.45,1.3.48l-.03.23c.07.17.2-.6.28-.49,0,.16-.03.22-.02.44.04-.47.16-.21.21-.56.03.19.01.56.05.77l.07-.54c.18-1.27.33.1.53-.55-.01.12-.03.22-.02.34.32-.77.69-.61,1.03-.88-.02.19-.04.54-.03.75.04-.57.14-.71.24-.81.02.58.17-.53.26-.2v.13c.08-.61.09.35.18-.37l.03.46c.06-.82.1.43.18.01v-.17c.07-.2.09.21.15.08v.1c.14-.21.2.25.22-.39.03.51-.13.23-.09.98.45-.64.89-.5,1.33-.5.04.26.07.34.07.58.05-.13.17-.11.22-.44-.01.01.02.33.04.36.07.24.11-.7.19-.41-.04.17-.06.38-.06.61.09-.5.19-.41.28-.57-.02.11-.04.17-.04.37.11-.56.17.13.27-.23l-.04.37c.12.45.07-.77.17-.5-.03.12-.03.26-.04.41.13-.67.3-.44.42-.66,0,.05,0,.15,0,.15.12-.08.24.13.38-.16.04.17-.05.9.08.77.02-.74.22-.3.18-1.14.1.13.26.41.34.16-.06.28.02.91-.07.97l.05.45c-.02.3-.07-.1-.06.28.05-.03.19-.32.22-.2.1-.45.2-1.3.34-1.39-.07.29,0,.82-.04.95l.23-1.42s-.01.59.06.39c0-.2.04-.32.06-.47.01.08.19-.18.19.55,0,.29-.08.15-.04.41.08,0,.09-.25.18-.26v.1c.05.11.17-.31.12-.71-.04-.03,0,.44-.05.23.05-.42.15-.54.23-.54-.03.12-.04.31-.05.52.13-.57.25-.75.38-.98.01-.35-.07.63-.08.45.14.49.35-.67.46.04-.02.06,0-.49,0-.4.07.05.05.55.11.36,0,.3.07-.09.12-.18.03-.21,0,.14-.04.18.08-.25.38-.69.53-.26,0-.2.13-.71.16-.69l-.03.46c.03.27.13-.04.12.36.1-.55-.33.46-.2.04.02.38.18-.72.13-.1.08-.01.17-.53.23-.09-.02-.07-.08.63-.02.6.11-.08.04-.22.13-.37l.06-.19c.02-.44.09.06.07-.44,0,.37.16-.22.13.52l-.03.58s.1-.61.14-.87c0,.05.01.17,0,.27.04-.89.11.08.19-.61.09.31.25.04.27.59.08-.27.16-.59.24-.39-.02.08-.04.11-.06.3.04.26.07.03.12-.11-.02.13.09.52.14.84.08-.26.07-.74.09-1.04.04.88.23-.56.29.24-.03.12-.12.43-.07.65.04.88.16-.64.26-.22v-.73c.03.45.17-.42.14.33.05-.26.12.24.13-.47.16.61.45-.35.52.93.03-.12.09,0,.09-.36-.03-.4-.07.28-.08.01.02-.02.04-.22.04-.31.05.16.09.22.02.81.11.44.17-1.2.32-.92-.02.29,0,.41.04.36l.11-.5c.1.12.04.67.02,1.17.06-.08.12-.06.16-.43l.05.63c-.03-.46.06-.3.09-.42l-.03.12c0,.21.07.08.11.02,0-.31-.06-.44-.09-.53.04-.22.08-.17.12-.42-.03.49.08.35.12.4.05.11.07-.44.09-.42,0,.25.08.05.03.4-.02.08-.03-.25-.07-.03.03.19,0,.63.09.31.06-.24.02-.96.11-.65-.03.12-.04.32-.07.49l.08.26.02-.44c0,.11,0,.15,0,.21.04-.47.14-.14.18-.67.05-.04.09.31.13.36v.04c.04.26.11.09.17-.21v.1s.09-.03.14-.29c.06.34-.03,1.68.07,1.12.08-.01.15-.81.13-1.1.13.31.3-.42.41.28.03-.18.02-.29.06-.4.19.18.44-.51.57.37-.06.18-.02.44-.03.7.06-.4.04.42.08-.27,0-.4.02-.6-.03-.76.13-.21.31-.21.36.17-.03-.19,0-.31.03-.43-.03.64.05.74.13.52l.02-.39.03.4c.03-.12.06-.82.11-.44,0,.15,0,.3,0,.42.08-.32.19-.85.26-.52l.04.57c.03-.06.1-.4.05-.57.12.35.2.39.22.89.26-1.2.58-1.23.83-1.14l-.02.29c.06.28.05-.51.09-.31-.03.28.03.61-.03.95.09.31.14-.5.21-.63.02-.38-.06.24-.03-.24.02-.14.13.3.16-.28.02.23-.02.66-.04.89l.07-.28c.05.68-.21,1.21-.16,2.05l.06-.09c.03.61-.17.68-.04.9.07-.28.15-1.13.11-1.38.13-.16.1-1.38.24-1.33.03.34-.11.08-.1.56.05.47.14-.26.19-.09-.06-.22.02-.81.06-.91.06.28-.06.55.03.61.03-.34.12-.58.06-.82.06-.76.09.21.17-.37.01.54-.14,1.23-.04,1.51,0-.52.16-.7.12-1.46.04.15.03.56-.01.87.05.32.18-.94.16.09l.04-.53c.01.17.04.3.06.59.05.01.19-.71.16.09.02-.08.14-.04.11-.59-.06-.34-.1.4-.12-.35.03.61.11-.07.16-.28v.31c.03-.12.08-.05.11-.38-.03.18-.02.39,0,.46l.04-.47c.11-.23,0,.82.1.69l-.09.36c.02-.08.04.36.09.22.03-.43.09-.94.11-1.27.06-.18,0,.48.08.05l-.09.51c-.02.14.03.71.1.7.05-.15.15-.76.08-1,.04,0,.08.26.04.57.09-.14,0-.46.09-.72.02.29.1.69.15,1.11l-.1.71h.05c-.09.58.02.45-.04,1.05.03.1.08-.11.12-.26-.07-.97.16-1.32.16-2.2.15-.24.02,2.15.21.77-.02-.23.08-.9-.02-.65.09.1.09-.88.18-.51-.09.36.05.9-.08,1.42.02-.29-.05-.22-.07-.14.02.34-.04.89.05.89.06-.08.13-.1.14-.56.01-.51-.09.05-.03-.46.12-.17.11.6.18-.3-.07.07-.07-.45-.06-.8l.09-.21-.03.34c.12.25.06-.61.18-.51l.04.67c-.05.57-.17-.26-.18.67.08.04.12-.43.19-.19-.02.08-.04.1-.06.18.03.03.02,1.27.16.55.07-.28.03-.33.04-.68.13-.1.19-.45.27-.51-.04.68.15.07.03.76-.03-.4-.22-.37-.29.28.02.81-.1-.12-.15.7.1.02.07.81.07,1.34.03.04.06-.18.08-.26.03-.49,0-.48,0-.99.11.14.23-.13.32-.61.03.24,0,.73-.05.78.14-.14.29-.07.42.08-.06-.8.15-.18.12-.85-.06-.18-.11-.75-.06-1.11.04.05-.01.35,0,.52.07-.43.06.7.14.02-.14.25-.06.97-.1,1.6.1-.35-.02.44.07.45.1-.34.23-.61.33-.75.11.6.32.02.44,0,.05.32-.02,1.02.05,1.15.08-.01-.03-.77.07-.44l-.02.14c.04-.16.19.49.26-.53l-.06.77c.02.07.04-.1.06-.19,0,.25,0,.48-.03.64.05.53.15-.08.23-.1l-.03-.45c.14-.35.21.1.34-.05l-.02.44.08-.26c-.03.43.03.71.08.35l-.23,1.08c-.04-.26.08-.53.06-.97-.02-.38-.14-.27-.17.16.04.05.05-.05.09-.21,0,.62-.07.59-.12,1,.02-.02.05.16.06-.03-.06.3-.1.35-.18.36.06-.24-.02-.38.01-.56-.02.54-.1.71-.19.55-.05-.63-.19.4-.29.22.06-.55.13-.99.21-1.21-.06-.28-.08.01-.14-.27-.05.41-.09,1.04-.19,1.28v-.41c-.08.2-.1.8-.2.69-.17-.21-.35-.21-.48-.27v-.4c-.1.86-.25.31-.37.69-.16-.4-.39.37-.45-.33-.31.3-.59.6-.9.44l.07-.59c-.07.43-.02-.34-.08-.26.05.47-.1.61-.15.97-.12-.46-.32.03-.46.44v-.41c-.14.76-.27.08-.42-.04-.01-.17-.03-.55-.08-.51-.11.65-.15.6-.29,1.01-.09,0-.23-.17-.31-.43-.37.91-.7.31-1.07.85v-.48c-.39,1.01-.78.07-1.09.58l.06-.81c-.08-.25-.22.21-.21.78-.08-.25-.24.39-.28-.28-.09-.15-.13.37-.21.48-.18-.32-.25-.25-.43-.1l.04.05c.03-.18.04-.53,0-.58-.07.22-.24-.23-.2.75-.17-.57-.46.44-.62-.32,0,.27-.04.32-.07.49-.17,0-.32-.54-.47-.09-.02-.13.06-.45,0-.48-.04.1-.01.35-.07.49-.29.49-.53-.53-.78-.41-.45.5-.9.22-1.32.3v-.2c-.15.74-.29-.78-.44.34-.03-.19-.12-.09-.09-.47-.13.52-.29-.51-.48.16.01.02.02-.02.04-.1-.15-.44-.31.15-.47-.25.02-.08.05-.14.07-.34-.05-.38-.18.82-.19-.12-.04,0-.04.47-.02.44-.36-.38-.78.21-1.18.41-.26-.57.04-1.58-.21-.89-.01-.18-.03.36-.02.17-.09.26-.1-1.06-.17-.56,0,.58-.05.32-.06.67-.16-.38-.17-.9-.32-.47l.02-.3c-.19.85-.36.39-.52,1.37-.88.15-1.73.67-2.59.76-.83-.22-1.67.2-2.51-.35-.17-.81-.19-.79-.42-.47.01-.13.03-.16.02-.28-.03.65-.16.06-.2.68-.31-.13-.61.04-.93.03.05-.07.1-.6.04-.56l-.08.42v-.18c-.05.1-.11.42-.07.63-.84.54-1.59-.8-2.4-.67-.18-.28-.46-.04-.67.09-.58-.9-1.11-1.62-1.75-1.03,0,0,.14-1.69.41-2.07Z"/>
      <path class="cls-1" d="M131.56,134.04c-.01-.33-.08-.51,0-.95,0,.31.02.65,0,.95Z"/>
      <path class="cls-1" d="M129.77,130.6c0,.1-.02-.13-.03-.19.02-.02.06-.3.07-.13-.02.02-.03.18-.04.32Z"/>
      <path class="cls-1" d="M129.29,130.39c.02-.29.13-.52.19-.55l-.19.55Z"/>
      <path class="cls-1" d="M128.88,129.17c-.03-.25-.02-.38.04-.37,0,.16-.02.23-.04.37Z"/>
      <path class="cls-1" d="M128.83,129.84s-.05-.17-.06-.33c0,.25.09-.15.06.33Z"/>
      <path class="cls-1" d="M127.87,128.95s-.08.26-.09-.06c.02.23.13-.37.09.06Z"/>
      <path class="cls-1" d="M127.4,129.38s-.02-.07-.04,0c-.02-.13.01-.35.04-.37v.37Z"/>
      <polygon class="cls-1" points="119.06 130.27 119.11 130.13 119.09 130.42 119.06 130.27"/>
      <path class="cls-1" d="M115.42,130.16c-.06.18-.03-.27-.03-.32.05-.03-.03.36.03.32Z"/>
      <polygon class="cls-1" points="113.4 131.55 113.42 131.54 113.39 132.14 113.4 131.55"/>
    </g>
  </g>
  <g>
    <g>
      <path class="cls-1" d="M169.04,151.03c.27.01.16-.5.25-.11-.15.18-.28.31-.25.11Z"/>
      <path class="cls-1" d="M169.79,117.93c.05,1.7-1.55.81-1.83,2.06-.05.1-.37-.75-.47-.47-.15,1.42-1.6,1.39-2.89,1.05l-.06-.24c-.25-.06-.08.73-.3.73-.08-.14-.05-.23-.19-.39.18.44-.21.36-.12.71-.16-.13-.32-.46-.51-.6l.15.53c.32,1.28-.72.28-.78,1.06-.04-.12-.05-.23-.14-.32-.24,1.01-1.07,1.29-1.61,1.9-.06-.18-.2-.5-.34-.67.23.52.09.76-.04.95-.36-.47-.06.64-.43.47l-.04-.12c.13.62-.4-.19-.18.53l-.32-.35c.32.76-.43-.25-.36.18l.08.15c-.03.24-.29-.09-.34.1l-.06-.08c-.17.33-.54.01-.23.57-.33-.4.15-.34-.35-.92-.57,1.05-1.53,1.42-2.41,1.9-.22-.17-.32-.21-.46-.41-.03.16-.28.28-.2.61.02-.03-.21-.26-.27-.26-.27-.13.16.71-.16.56-.01-.19-.08-.38-.22-.58.08.52-.15.56-.26.8-.02-.11-.01-.19-.11-.36.07.6-.41.08-.41.49l-.11-.36c-.49-.25.28.73-.08.62,0-.13-.09-.25-.15-.39.09.71-.37.71-.48,1.03-.01-.05-.06-.14-.06-.14-.2.2-.55.15-.68.55-.17-.09-.39-.81-.58-.56.36.65-.29.5.26,1.16-.28,0-.75-.05-.78.25-.04-.3-.53-.74-.38-.9l-.35-.32c-.12-.28.19.02-.03-.3-.08.07-.2.47-.34.41.05.49.29,1.32.06,1.55,0-.32-.46-.68-.43-.84l.29,1.46c-.07.08-.3-.51-.34-.27.1.17.1.31.13.47-.09-.05-.15.29-.6-.3-.2-.22.04-.2-.19-.37-.15.09,0,.3-.14.38l-.06-.08c-.17-.03-.07.39.3.65.07-.01-.32-.33-.09-.21.22.37.18.52.08.58-.05-.11-.2-.25-.34-.41.26.51.28.71.37.93.31.23-.52-.44-.32-.34-.31-.11-.28.07-.23.21.04.14.09.24-.37.09-.04-.05.55.27.44.21-.13.02-.69-.25-.55-.12-.35-.15.02.09.08.17.23.12-.19-.06-.17-.11.18.19.51.53-.26.45.27.08.93.32.88.32l-.67-.16c-.45-.07-.07.08-.68-.04.74.23-.34-.36.18-.14-.61-.11.91.34,0,.12-.07.06.67.24-.09.16.14.01-.94-.22-.97-.16-.01.1.31.08.46.18l.25.08c.75.1-.21.04.69.13-.65-.07.25.12-1.05-.02l-1.02-.12s1,.16,1.44.22c-.11,0-.33-.02-.51-.03,1.64.13-.27.06.99.17-.33,0-.41.04-.53.06-.02.03-.1.06-.63.06.61.06,1.26.09.98.14-.17,0-.24-.02-.6-.02-.43.04.03.05.33.07-.26,0-.82.1-1.28.19.56.04,1.34-.05,1.85-.07-.72.07-.41.09-.11.1.3.01.6,0,.02.11-.21.01-.81,0-1.08.09-1.27.24,1.19-.02.66.14l1.05-.2c-.61.15.75-.03-.33.18.41-.06-.2.16.76-.08-.33.15-.1.18,0,.23.1.06.08.13-.57.48.16-.04.11.07.49-.12.39-.22-.38.1-.09-.04.05,0,.27-.09.38-.13-.13.11-.13.17-.83.43-.29.34,1.42-.54,1.26-.31-.29.17-.38.24-.29.24.19-.08.37-.17.54-.26-.02.12-.53.46-.96.78.15-.01.22.06.54-.17-.14.16-.28.32-.41.49.29-.36.29-.17.41-.24l-.12.07c-.14.16.04.12.12.1.2-.24.22-.37.25-.46.19-.14.2-.07.41-.25-.36.35-.15.32-.14.38-.01.12.33-.31.33-.29-.15.2.05.08-.2.35-.07.05.11-.22-.05-.06-.08.17-.35.53-.08.31.19-.16.54-.8.45-.49-.09.09-.2.25-.32.38,0,.09-.04.17-.01.29l.24-.37c-.04.11-.07.13-.09.19.3-.36.35.05.67-.37.12.02.03.38.09.48l-.04.02c-.03.29.2.23.45.03l-.06.08c.04.07.21.09.42-.09-.03.38-.84,1.46-.38,1.08.16.08.66-.55.76-.83.11.42.79,0,.68.73.13-.13.17-.24.3-.28.3.39,1.11.07.95,1-.21.09-.24.37-.38.59.3-.28-.11.42.29-.14.2-.35.32-.51.29-.71.35-.04.7.18.63.58.03-.2.15-.27.26-.34-.36.53-.24.72.01.61l.23-.32-.13.39c.12-.07.49-.66.42-.26-.07.13-.15.27-.18.38.3-.19.78-.53.75-.16l-.18.56c.1-.01.38-.24.36-.45.07.45.21.58.02,1.05,1.07-.75,1.72-.41,2.17-.02l-.17.24c-.01.32.34-.39.33-.16-.19.21-.22.58-.51.8.03.38.52-.28.71-.31.22-.31-.23.15.05-.25.09-.1.11.42.44-.06-.07.22-.34.56-.49.75l.27-.17c-.22.67-.97.83-1.26,1.63h.16c-.22.57-.65.4-.49.74.27-.17.82-.82.85-1.11.33.02.85-1.11,1.09-.9-.11.34-.25-.06-.46.38-.12.48.39-.07.41.14,0-.26.41-.7.54-.74-.01.32-.38.41-.22.58.21-.27.52-.37.49-.66.47-.6.09.3.5-.13-.22.49-.85.93-.78,1.29.24-.46.63-.44.92-1.15,0,.18-.2.53-.43.76-.05.34.78-.62.28.27l.32-.42c-.05.17-.07.31-.16.59.1.07.71-.4.28.27.08-.05.29.13.49-.4.03-.38-.38.24-.07-.45-.22.58.25.06.44-.06l-.15.27c.11-.07.19.06.4-.2-.13.13-.22.32-.22.4l.3-.36c.33-.07-.39.73-.12.74l-.34.21c.07-.05-.09.37.08.3.27-.33.6-.74.81-.99.21-.09-.21.44.14.14l-.42.35c-.1.11-.28.66-.12.74.17-.07.65-.5.62-.79.08.04.05.33-.18.56.25-.02.22-.4.51-.54-.09.28-.12.74-.23,1.16l-.53.51.1.07c-.44.4-.17.41-.56.88.02.12.21,0,.36-.09.31-.95.93-.98,1.34-1.77.41-.03-.96,1.93.06.94.07-.22.57-.71.26-.6.12.19.59-.68.6-.24-.34.21-.31.86-.81,1.17.17-.24,0-.26-.08-.21-.11.33-.48.74-.31.86.15,0,.31.07.53-.33.26-.43-.19-.06.15-.45.31-.02-.06.66.5-.04-.17-.03.07-.49.25-.78l.27-.08-.21.27c.13.36.4-.47.6-.24l-.24.64c-.36.45-.22-.44-.67.38.14.13.44-.24.47.06-.08.05-.13.04-.21.09.04.06-.55,1.14.06.67.27-.17.21-.26.39-.56.31.07.58-.18.77-.13-.39.56.26.24-.29.71.13-.39-.27-.59-.7-.1-.33.74-.14-.22-.63.44.2.14-.23.81-.48,1.27.04.07.21-.09.29-.13.28-.4.2-.44.47-.87.16.26.53.16.9-.16-.05.25-.33.65-.45.64.35.05.61.29.79.57.25-.78.39.02.63-.61-.04-.24.14-.8.4-1.05.06.1-.19.29-.24.46.34-.3-.2.7.27.18-.39.06-.56.8-.94,1.3.37-.19-.24.37-.07.48.36-.18.73-.28,1-.27-.06.66.63.41.87.52-.05.34-.5.89-.44,1.08.16.08.29-.72.34-.3l-.1.11c.15-.1.15.66.75-.16l-.47.61c0,.08.14-.04.21-.09-.13.21-.2.43-.36.53-.14.53.33.11.49.18l.14-.44c.44-.14.37.34.7.36l-.24.37.29-.13c-.26.34-.28.66,0,.4l-.95.69c.03-.29.4-.38.56-.8.15-.36-.14-.4-.41-.06.06.1.12.02.27-.08-.3.54-.42.44-.7.75.06,0,.02.21.14.05-.25.2-.36.18-.52.1.23-.14.15-.36.28-.48-.3.45-.53.51-.63.26.2-.61-.56.13-.68-.15.38-.41.72-.72.97-.83.01-.32-.16-.08-.14-.4-.28.31-.66.81-.97.92l.21-.35c-.27.08-.59.59-.73.37-.24-.38-.6-.61-.83-.81l.2-.35c-.61.64-.66-.03-1.06.17-.13-.54-.93-.13-.74-.83-.76-.11-1.44-.17-1.97-.68l.42-.44c-.34.3.11-.33-.05-.33-.13.48-.47.43-.74.69-.03-.56-.65-.35-1.11-.15l.21-.35c-.65.49-.59-.26-.83-.55.05-.16.2-.52.09-.54-.51.45-.57.36-1.03.56-.18-.11-.38-.43-.42-.76-1.15.37-1.52-.56-2.51-.52l.2-.44c-1.21.45-1.55-.85-2.4-.77l.49-.66c-.05-.32-.52-.07-.78.44-.05-.32-.66.06-.42-.58-.1-.24-.42.18-.64.18-.21-.49-.38-.52-.81-.61l.06.1c.13-.13.32-.42.26-.52-.25.11-.36-.48-.75.42-.07-.71-1.11-.15-1.07-1.02-.11.25-.23.23-.36.36-.33-.19-.39-.87-.89-.65.02-.15.32-.33.2-.44-.13.04-.19.29-.36.36-.4.05-.59-.23-.76-.54-.08-.16-.16-.32-.25-.46-.11-.15-.35-.34-.55-.43-.88-.25-1.73-.7-2.5-1.17-.78-.47-1.49-.97-2.26-1.4l.25-.07c-.69.01-.75-.26-.83-.47-.09-.22-.18-.4-1.16-.34.14-.13-.32-.3.3-.36-.57-.04-.66-.25-.78-.45-.12-.2-.26-.39-1.09-.51.02.03.11.05.31.07.18-.39-1.32-.63-1.19-1.01.21.03.43.09.8.1.5-.13-2.05-.3-.38-.38-.13-.07-.99-.06-.86-.01-.09-.13-.24-.26-.43-.4,1.15-.55,1.46-1.21,2.38-1.9,1.84-.34,2.43.5,2.13-.13.32.04-.47-.16-.18-.09-.07-.26,1.87.19,1.38-.1-.85-.2-.31-.2-.76-.36,1.07-.14,1.76.08,1.66-.37l.32.17c-.26-.35-.09-.55.06-.76.15-.21.27-.43.05-.87.75-.45,1.48-.92,2.23-1.41l1.13-.74c.28-.2.42-.32.63-.48.78-.62,1.57-1.22,2.41-1.73,1.8-.75,3.27-2.04,5.26-2.5.78.49.81.45,1.1-.07.04.12.03.16.12.26-.29-.59.29-.22.03-.8.7-.23,1.21-.71,1.87-1.07-.07.12.13.62.23.51l-.07-.44.11.15c.04-.13-.02-.47-.21-.6,1.4-1.39,3.65-1.1,5.21-2.11.52.04.95-.48,1.31-.82,1.66.11,3.11.13,4.09-1.08,0,0,.63,1.58.29,2.21Z"/>
      <path class="cls-1" d="M168.77,150.94c.13-.31.09-.54.43-.85-.15.27-.26.61-.43.85Z"/>
      <path class="cls-1" d="M166.83,145.76c-.06.08.02-.15.03-.2.06,0,.25-.2.19-.03-.06,0-.13.13-.23.23Z"/>
      <path class="cls-1" d="M165.98,145c.17-.24.49-.31.63-.26l-.63.26Z"/>
      <path class="cls-1" d="M165.73,143.42c.05-.26.15-.36.25-.29-.07.14-.15.18-.25.29Z"/>
      <path class="cls-1" d="M165.32,143.95c-.08-.04-.02-.21.03-.37-.13.21.25-.03-.03.37Z"/>
      <path class="cls-1" d="M163.84,142.03c-.06,0-.29.13-.16-.17-.07.22.42-.17.16.17Z"/>
      <path class="cls-1" d="M162.71,141.84s0-.09-.08-.04c.02-.15.19-.29.25-.29l-.17.33Z"/>
      <polygon class="cls-1" points="148 134.05 148.26 134.04 147.82 134.11 148 134.05"/>
      <path class="cls-1" d="M149.59,132.01c-.09-.16.24.18.28.21-.02.04-.26-.27-.28-.21Z"/>
      <polygon class="cls-1" points="152.23 128.95 152.2 128.97 151.93 128.44 152.23 128.95"/>
    </g>
    <g>
      <path class="cls-1" d="M142.7,132.19c-.11.13.04.51-.07.23.02-.23.05-.41.07-.23Z"/>
      <path class="cls-1" d="M169.98,133.45c-.38,1.51-.76-.04-1.15.92-.04.06.04-.83-.06-.64-.39,1.17-.91.45-1.3-.48l.03-.23c-.07-.17-.2.6-.28.49,0-.16.03-.22.02-.44-.04.47-.16.21-.21.56-.03-.19-.01-.56-.05-.77l-.07.54c-.18,1.27-.33-.1-.53.55.01-.12.03-.22.02-.34-.32.77-.69.61-1.03.88.02-.19.04-.54.03-.75-.04.57-.14.71-.24.81-.02-.58-.17.53-.26.2v-.13c-.08.61-.09-.35-.18.37l-.03-.46c-.06.82-.1-.43-.18-.01v.17c-.07.2-.09-.21-.15-.08v-.1c-.14.21-.2-.25-.22.39-.03-.51.13-.23.09-.98-.45.64-.89.5-1.33.5-.04-.26-.07-.34-.07-.58-.05.13-.17.11-.22.44.01-.01-.02-.33-.04-.36-.07-.24-.11.7-.19.41.04-.17.06-.38.06-.61-.09.5-.19.41-.28.57.02-.11.04-.17.04-.37-.11.56-.17-.13-.27.23l.04-.37c-.12-.45-.07.77-.17.5.03-.12.03-.26.04-.41-.13.67-.3.44-.42.66,0-.05,0-.15,0-.15-.12.08-.24-.13-.38.16-.04-.17.05-.9-.08-.77-.02.74-.22.3-.18,1.14-.1-.13-.26-.41-.34-.16.06-.28-.02-.91.07-.97l-.05-.45c.02-.3.07.1.06-.28-.05.03-.19.32-.22.2-.1.45-.2,1.3-.34,1.39.07-.29,0-.82.04-.95l-.23,1.42s.01-.59-.06-.39c0,.2-.04.32-.06.47-.01-.08-.19.18-.19-.55,0-.29.08-.15.04-.41-.08,0-.09.25-.18.26v-.1c-.05-.11-.17.31-.12.71.04.03,0-.44.05-.23-.05.42-.15.54-.23.54.03-.12.04-.31.05-.52-.13.57-.25.75-.38.98-.01.35.07-.63.08-.45-.14-.49-.35.67-.46-.04.02-.06,0,.49,0,.4-.07-.05-.05-.55-.11-.36,0-.3-.07.09-.12.18-.03.21,0-.14.04-.18-.08.25-.38.69-.53.26,0,.2-.13.71-.16.69l.03-.46c-.03-.27-.13.04-.12-.36-.1.55.33-.46.2-.04-.02-.38-.18.72-.13.1-.08.01-.17.53-.23.09.02.07.08-.63.02-.6-.11.08-.04.22-.13.37l-.06.19c-.02.44-.09-.06-.07.44,0-.37-.16.22-.13-.52l.03-.58s-.1.61-.14.87c0-.05-.01-.17,0-.27-.04.89-.11-.08-.19.61-.09-.31-.25-.04-.27-.59-.08.27-.16.59-.24.39.02-.08.04-.11.06-.3-.04-.26-.07-.03-.12.11.02-.13-.09-.52-.14-.84-.08.26-.07.74-.09,1.04-.04-.88-.23.56-.29-.24.03-.12.12-.43.07-.65-.04-.88-.16.64-.26.22v.73c-.03-.45-.17.42-.14-.33-.05.26-.12-.24-.13.47-.16-.61-.45.35-.52-.93-.03.12-.09,0-.09.36.03.4.07-.28.08-.01-.02.02-.04.22-.04.31-.05-.16-.09-.22-.02-.81-.11-.44-.17,1.2-.32.92.02-.29,0-.41-.04-.36l-.11.5c-.1-.12-.04-.67-.02-1.17-.06.08-.12.06-.16.43l-.05-.63c.03.46-.06.3-.09.42l.03-.12c0-.21-.07-.08-.11-.02,0,.31.06.44.09.53-.04.22-.08.17-.12.42.03-.49-.08-.35-.12-.4-.05-.11-.07.44-.09.42,0-.25-.08-.05-.03-.4.02-.08.03.25.07.03-.03-.19,0-.63-.09-.31-.06.24-.02.96-.11.65.03-.12.04-.32.07-.49l-.08-.26-.02.44c0-.11,0-.15,0-.21-.04.47-.14.14-.18.67-.05.04-.09-.31-.13-.36v-.04c-.04-.26-.11-.09-.17.21v-.1s-.09.03-.14.29c-.06-.34.03-1.68-.07-1.12-.08.01-.15.81-.13,1.1-.13-.31-.3.42-.41-.28-.03.18-.02.29-.06.4-.19-.18-.44.51-.57-.37.06-.18.02-.44.03-.7-.06.4-.04-.42-.08.27,0,.4-.02.6.03.76-.13.21-.31.21-.36-.17.03.19,0,.31-.03.43.03-.64-.05-.74-.13-.52l-.02.39-.03-.4c-.03.12-.06.82-.11.44,0-.15,0-.3,0-.42-.08.32-.19.85-.26.52l-.04-.57c-.03.06-.1.4-.05.57-.12-.35-.2-.39-.22-.89-.26,1.2-.58,1.23-.83,1.14l.02-.29c-.06-.28-.05.51-.09.31.03-.28-.03-.61.03-.95-.09-.31-.14.5-.21.63-.02.38.06-.24.03.24-.02.14-.13-.3-.16.28-.02-.23.02-.66.04-.89l-.07.28c-.05-.68.21-1.21.16-2.05l-.06.09c-.03-.61.17-.68.04-.9-.07.28-.15,1.13-.11,1.38-.13.16-.1,1.38-.24,1.33-.03-.34.11-.08.1-.56-.05-.47-.14.26-.19.09.06.22-.02.81-.06.91-.06-.28.06-.55-.03-.61-.03.34-.12.58-.06.82-.06.76-.09-.21-.17.37-.01-.54.14-1.23.04-1.51,0,.52-.16.7-.12,1.46-.04-.15-.03-.56.01-.87-.05-.32-.18.94-.16-.09l-.04.53c-.01-.17-.04-.3-.06-.59-.05-.01-.19.71-.16-.09-.02.08-.14.04-.11.59.06.34.1-.4.12.35-.03-.61-.11.07-.16.28v-.31c-.03.12-.08.05-.11.38.03-.18.02-.39,0-.46l-.04.47c-.11.23,0-.82-.1-.69l.09-.36c-.02.08-.04-.36-.09-.22-.03.43-.09.94-.11,1.27-.06.18,0-.48-.08-.05l.09-.51c.02-.14-.03-.71-.1-.7-.05.15-.15.76-.08,1-.04,0-.08-.26-.04-.57-.09.14,0,.46-.09.72-.02-.29-.1-.69-.15-1.11l.1-.71h-.05c.09-.58-.02-.45.04-1.05-.03-.1-.08.11-.12.26.07.97-.16,1.32-.16,2.2-.15.24-.02-2.15-.21-.77.02.23-.08.9.02.65-.09-.1-.09.88-.18.51.09-.36-.05-.9.08-1.42-.02.29.05.22.07.14-.02-.34.04-.89-.05-.89-.06.08-.13.1-.14.56-.01.51.09-.05.03.46-.12.17-.11-.6-.18.3.07-.07.07.45.06.8l-.09.21.03-.34c-.12-.25-.06.61-.18.51l-.04-.67c.05-.57.17.26.18-.67-.08-.04-.12.43-.19.19.02-.08.04-.1.06-.18-.03-.03-.02-1.27-.16-.55-.07.28-.03.33-.04.68-.13.1-.19.45-.27.51.04-.68-.15-.07-.03-.76.03.4.22.37.29-.28-.02-.81.1.12.15-.7-.1-.02-.07-.81-.07-1.34-.03-.04-.06.18-.08.26-.03.49,0,.48,0,.99-.11-.14-.23.13-.32.61-.03-.24,0-.73.05-.78-.14.14-.29.07-.42-.08.06.8-.15.18-.12.85.06.18.11.75.06,1.11-.04-.05.01-.35,0-.52-.07.43-.06-.7-.14-.02.14-.25.06-.97.1-1.6-.1.35.02-.44-.07-.45-.1.34-.23.61-.33.75-.11-.6-.32-.02-.44,0-.05-.32.02-1.02-.05-1.15-.08.01.03.77-.07.44l.02-.14c-.04.16-.19-.49-.26.53l.06-.77c-.02-.07-.04.1-.06.19,0-.25,0-.48.03-.64-.05-.53-.15.08-.23.1l.03.45c-.14.35-.21-.1-.34.05l.02-.44-.08.26c.03-.43-.03-.71-.08-.35l.23-1.08c.04.26-.08.53-.06.97.02.38.14.27.17-.16-.04-.05-.05.05-.09.21,0-.62.07-.59.12-1-.02.02-.05-.16-.06.03.06-.3.1-.35.18-.36-.06.24.02.38-.01.56.02-.54.1-.71.19-.55.05.63.19-.4.29-.22-.06.55-.13.99-.21,1.21.06.28.08-.01.14.27.05-.41.09-1.04.19-1.28v.41c.08-.2.1-.8.2-.69.17.21.35.21.48.27v.4c.1-.86.25-.31.37-.69.16.4.39-.37.45.33.31-.3.59-.6.9-.44l-.07.59c.07-.43.02.34.08.26-.05-.47.1-.61.15-.97.12.46.32-.03.46-.44v.41c.14-.76.27-.08.42.04.01.17.03.55.08.51.11-.65.15-.6.29-1.01.09,0,.23.17.31.43.37-.91.7-.31,1.07-.85v.48c.39-1.01.78-.07,1.09-.58l-.06.81c.08.25.22-.21.21-.78.08.25.24-.39.28.28.09.15.13-.37.21-.48.18.32.25.25.43.1l-.04-.05c-.03.18-.04.53,0,.58.07-.22.24.23.2-.75.17.57.46-.44.62.32,0-.27.04-.32.07-.49.17,0,.32.54.47.09.02.13-.06.45,0,.48.04-.1.01-.35.07-.49.29-.49.53.53.78.41.45-.5.9-.22,1.32-.3v.2c.15-.74.29.78.44-.34.03.19.12.09.09.47.13-.52.29.51.48-.16-.01-.02-.02.02-.04.1.15.44.31-.15.47.25-.02.08-.05.14-.07.34.05.38.18-.82.19.12.04,0,.04-.47.02-.44.36.38.78-.21,1.18-.41.26.57-.04,1.58.21.89.01.18.03-.36.02-.17.09-.26.1,1.06.17.56,0-.58.05-.32.06-.67.16.38.17.9.32.47l-.02.3c.19-.85.36-.39.52-1.37.88-.15,1.73-.67,2.59-.76.83.22,1.67-.2,2.51.35.17.81.19.79.42.47-.01.13-.03.16-.02.28.03-.65.16-.06.2-.68.31.13.61-.04.93-.03-.05.07-.1.6-.04.56l.08-.42v.18c.05-.1.11-.42.07-.63.84-.54,1.59.8,2.4.67.18.28.46.04.67-.09.58.9,1.11,1.62,1.75,1.03,0,0-.14,1.69-.41,2.07Z"/>
      <path class="cls-1" d="M142.82,132.13c.01.33.08.51,0,.95,0-.31-.02-.65,0-.95Z"/>
      <path class="cls-1" d="M144.6,135.56c0-.1.02.13.03.19-.02.02-.06.3-.07.13.02-.02.03-.18.04-.32Z"/>
      <path class="cls-1" d="M145.08,135.78c-.02.29-.13.52-.19.55l.19-.55Z"/>
      <path class="cls-1" d="M145.49,136.99c.03.25.02.38-.04.37,0-.16.02-.23.04-.37Z"/>
      <path class="cls-1" d="M145.55,136.33s.05.17.06.33c0-.25-.09.15-.06-.33Z"/>
      <path class="cls-1" d="M146.5,137.21s.08-.26.09.06c-.02-.23-.13.37-.09-.06Z"/>
      <path class="cls-1" d="M146.97,136.79s.02.07.04,0c.02.13-.01.35-.04.37v-.37Z"/>
      <polygon class="cls-1" points="155.32 135.9 155.27 136.04 155.28 135.75 155.32 135.9"/>
      <path class="cls-1" d="M158.96,136.01c.06-.18.03.27.03.32-.05.03.03-.36-.03-.32Z"/>
      <polygon class="cls-1" points="160.97 134.62 160.96 134.62 160.98 134.03 160.97 134.62"/>
    </g>
  </g>
</svg>