<?xml version="1.0" encoding="UTF-8"?>
<svg xmlns="http://www.w3.org/2000/svg" viewBox="0 0 95 95">
  <defs>
    <style>
      .cls-1 {
        fill: #fff;
      }

      .cls-2 {
        isolation: isolate;
      }

      .cls-3 {
        fill: #ff4f20;
      }

      .cls-4 {
        fill: #f7a397;
        font-family: Icebox-Magnet-Trial-90ms-RKSJ-H, 'Icebox Trial';
        font-size: 7.74px;
        mix-blend-mode: multiply;
        opacity: .49;
      }
    </style>
  </defs>
  <g class="cls-2">
    <g id="Layer_3" data-name="Layer 3">
      <text class="cls-4" transform="translate(-134.26 -112.56) rotate(20.77)"><tspan x="0" y="0" xml:space="preserve">YUM YUM YUM YUM YUM YUM YUM YUM YUM YUM  </tspan><tspan x="0" y="8" xml:space="preserve">YUM YUM YUM YUM YUM YUM YUM YUM YUM YUM  </tspan><tspan x="0" y="16" xml:space="preserve">YUM YUM YUM YUM YUM YUM YUM YUM YUM YUM  </tspan><tspan x="0" y="24" xml:space="preserve">YUM YUM YUM YUM YUM YUM YUM YUM YUM YUM  </tspan><tspan x="0" y="32" xml:space="preserve">YUM YUM YUM YUM YUM YUM YUM YUM YUM YUM  </tspan><tspan x="0" y="40" xml:space="preserve">YUM YUM YUM YUM YUM YUM YUM YUM YUM YUM  </tspan><tspan x="0" y="48" xml:space="preserve">YUM YUM YUM YUM YUM YUM YUM YUM YUM YUM  </tspan><tspan x="0" y="56">YUM YUM YUM YUM YUM YUM YUM YUM YUM YUM</tspan><tspan x="0" y="64" xml:space="preserve">YUM YUM YUM YUM YUM YUM YUM YUM YUM YUM  </tspan><tspan x="0" y="72" xml:space="preserve">YUM YUM YUM YUM YUM YUM YUM YUM YUM YUM  </tspan><tspan x="0" y="80" xml:space="preserve">YUM YUM YUM YUM YUM YUM YUM YUM YUM YUM  </tspan><tspan x="0" y="88" xml:space="preserve">YUM YUM YUM YUM YUM YUM YUM YUM YUM YUM  </tspan><tspan x="0" y="96" xml:space="preserve">YUM YUM YUM YUM YUM YUM YUM YUM YUM YUM  </tspan><tspan x="0" y="104" xml:space="preserve">YUM YUM YUM YUM YUM YUM YUM YUM YUM YUM  </tspan><tspan x="0" y="112" xml:space="preserve">YUM YUM YUM YUM YUM YUM YUM YUM YUM YUM  </tspan><tspan x="0" y="120">YUM YUM YUM YUM YUM YUM YUM YUM YUM YUM</tspan><tspan x="0" y="128" xml:space="preserve">YUM YUM YUM YUM YUM YUM YUM YUM YUM YUM  </tspan><tspan x="0" y="136" xml:space="preserve">YUM YUM YUM YUM YUM YUM YUM YUM YUM YUM  </tspan><tspan x="0" y="144" xml:space="preserve">YUM YUM YUM YUM YUM YUM YUM YUM YUM YUM  </tspan><tspan x="0" y="152" xml:space="preserve">YUM YUM YUM YUM YUM YUM YUM YUM YUM YUM  </tspan><tspan x="0" y="160" xml:space="preserve">YUM YUM YUM YUM YUM YUM YUM YUM YUM YUM  </tspan><tspan x="0" y="168" xml:space="preserve">YUM YUM YUM YUM YUM YUM YUM YUM YUM YUM  </tspan><tspan x="0" y="176" xml:space="preserve">YUM YUM YUM YUM YUM YUM YUM YUM YUM YUM  </tspan><tspan x="0" y="184" xml:space="preserve">YUM YUM YUM YUM YUM YUM YUM YUM YUM YUM   </tspan><tspan x="0" y="192" xml:space="preserve">   </tspan><tspan x="0" y="200" xml:space="preserve">   </tspan></text>
      <g>
        <path class="cls-1" d="M-33.14.24l2.15,2.38c3.47,3.84,9.4,4.14,13.24.67L20.25-31.03c3.84-3.47,4.14-9.4.67-13.24l-2.15-2.38c-7.9-8.75-21.4-9.43-30.15-1.53l-20.23,18.27c-8.75,7.9-9.43,21.4-1.53,30.15Z"/>
        <path class="cls-3" d="M-34.25-1.68c-.43-.34-.83-.77-1.19-1.25-.38-.47-.62-1.06-.91-1.62-.3-.56-.49-1.17-.74-1.75-.13-.29-.25-.57-.38-.85-.11-.29-.23-.56-.37-.83-.11-.26.39-.04.13-.61-.56-1.01-.9-2.48-.94-4.01-.06-.76.07-1.55.14-2.3.11-.75.32-1.47.48-2.14l.09.18c.13-.5-.07-1.17.07-1.71.07.01.07.19.19.09-.09-.09-.07-.34-.04-.6.05-.26.12-.52.07-.65.15-.19.31-.12.48-.36l-.15-.37c-.18-.52.03-1.02.3-1.54.26-.52.55-1.06.72-1.65.02.08,0,.2.11.14.49-1.93,2.02-3.91,3.45-5.57,0,.12.06.29.22.27-.11-.26.32-.79.7-1.24.37.02.58-.86,1.18-1.21v.08c.18-.55.66-.38.74-.91l.38-.06c-.09-.43.68-.34.86-.77l-.06-.05c.23-.33.51-.33.74-.62h.06c.57-.64,1.08-.82.87-1.02.38-.02-.54.64.04.58,1.89-2.12,4.08-4.02,6.19-5.93.32-.13.5-.24.63-.2.17-.23.76-.76.85-1.04-.07.07.24,0,.36-.1.46-.26.2-.62.71-.9-.11.21-.11.33.02.36.2-.5.71-.9,1.08-1.34-.03.1-.11.21-.04.27.29-.61.88-.72,1.18-1.21l-.04.27c.8-.44-.05-.44.6-.86-.1.16,0,.17.02.24.32-.71,1.24-1.4,1.7-1.96-.02.05.02.07.02.07.55-.55,1.21-1.02,1.75-1.69.28-.15.2.37.78-.21-.25-.24.99-.99.36-.99.3-.2.67-.47,1.04-.7.37-.22.71-.43.87-.61-.19.28.52.17.05.51l.48-.07c.02.15-.4.21-.19.28.24-.16.85-.77,1.12-.81.37-.43.62-1.02,1.4-1.46-.33.28.38.26.14.42l.89-1.07c.27-.13.16.23.52-.01-.05-.08.1-.2.2-.32.12,0,1.17-.44,1.39-.15.16.09-.44.2-.09.23.52-.15.51-.29,1.04-.42l.02.04c.36-.02,1.01-.34.59-.45-.25.04.13.18-.25.16.21-.24.84-.42,1.38-.52-.18.09-.14.18-.2.28.69-.39,1.48-.51,2.31-.71,0-.16-.3.32-.42.25.54.04,1.08,0,1.61-.08.53-.06,1.05-.13,1.48.09-.15.01-.06-.24-.06-.19.52.07.47.3.81.25.02.14.42,0,.78,0,.19-.08.08.08-.22.06.25-.06.85,0,1.54.08.34.05.7.09,1.04.19.33.11.64.22.9.35,0-.09.76-.12,1.01-.04l-.17.17c.19.17.81.3.79.48.3-.01-.21-.17-.7-.29-.5-.09-.98-.16-.6-.15.13.21,1.1-.01.85.22.48.19,1.04.16,1.42.53-.12-.09-.5.11-.12.26.69.25.24-.03.8.17l.37.1c.12-.17.57.33.44,0,0,.19,1.01.41.77.68l-.23.19c.29.12.58.03.86.06.02.04.06.14.03.16.27-.32.61.45,1.11.39.48.48,1.33,1.08,1.42,1.46.49.21.92.45,1.28.93-.11-.06-.23-.16-.32-.12.17.35.31.33.6.52-.1,0,.36.68.5,1.07.42.28.47,0,.61-.05,0,.61,1.12.85,1.22,1.51-.16-.09-.63-.39-.43-.02,0,.61.83.44,1.18,1.2l.14-.36c.08.38.85.85.52.97.27.15.38.86.62.63.1.33.24.66.37,1.02.15.35.28.71.38,1.07.21.71.29,1.4.02,1.82.07.18.06.64.22.54.16-.32-.17-.42-.06-.54.03.16.12.19.17.21-.03.42-.06.73-.34.36-.2.87.59.92.33,2.08-.13-.07-.19,0-.24.34.03.22.08.45.1.68-.27.71-.42.32-.65.28-.06.39-.25.82-.16,1.05-.15.11-.3.22-.45.32.34-.22-.02.34-.06.53l.03-.19c-.12.02-.26.44-.37.65.16.04.42-.35.58-.55,0,.22-.16.5-.21.79-.15-.19-.49.46-.7.7-.27.25-.1.44-.17.52-.1-.07-.39.45-.34.12.05-.12.27-.14.32-.37-.22.13-.35-.02-.56.44-.18.34.4.24-.21.65.09-.17.05-.26.1-.42l-.55.38.12.17c-.1.02-.07-.03-.11-.03.01.28-.64.66-.57.94-.21.22-.57.32-.8.5l.03-.05c-.34.15-.64.52-.77.82l-.02-.04c-.15.12-.47.45-.57.7-.47.21-.65-.47-.87.08-.36.34-.32.8-.08.77-.75.49-1.28,1.42-2.1,1.73-.04.15.06.13-.11.35-1.02.82-1.88,2.03-2.93,2.43.22-.32-.12-.17-.21-.25-.11.35-.41.11-.28.42.15.12.19.21.51.02-.51.6-1.39,1.39-1.83,1.55.22-.08.13.07.04.23-.16-.26-.62.09-.87.46l.08.18-.34.05c-.09.16.12.41-.32.57-.06-.04-.13-.07-.22-.06-.23.41-.54,1.02-1,1.24l-.47.07c-.14.16-.29.52.04.33-.73.44-1.14.78-1.49.79-.69,1.38-2.22,2.79-3.48,3.88l-.06-.13c-.42.21-.01.33-.31.47.02-.19-.44.02-.29-.34-.57.32-.45.73-.72,1.05.07.18.17-.31.26-.09-.01.1-.75.49-.64.76-.19.03-.23-.2-.24-.34l-.2.36c-.57.09.43-1.15-.2-1.1l-.24.27c-.45.02.49-.88-.24-.34-.2.36-.19.88.15.73-.56.6.15.73-.52,1.31-.29.04.5-.5.22-.55-.45.12-.54.65-.86.84.37-.2.3.24.14.45-.42.21.04-.39-.45.02.03.19-.33.66.12.41.07.42-.56.37-.63.8-.32-.05.1-.87-.5-.49.24.11-.42.82.09.84-.25.13-.4.01-.35-.23-.39.15-.41.96-.82.69l.07.27c-.14.02-.31.1-.55.13-.26.23-.6.99-.82.69-.06.1-.65.62-.25.6.47-.21.29-.52.72-.44-.45.02-.5.5-.64.76l-.13-.08c-.09.15-.39.39-.37.58.04-.15-.07-.18-.2-.11l.02.28c-.43.54-.38-.18-.83.31l.26-.46c-.06.1-.36.1-.55.36.04.23.03.56.06.75-.22.32-.28-.05-.41.34l.2-.5c0-.1-.46-.03-.83.31-.19.27-.37.81.08.55-.18.17-.53.32-.48.07-.38.43.2.11-.08.53-.24.04-.83.31-1.24.42l.16-.59-.25.23c.15-.49-.3,0-.31-.38-.2.12-.35.38-.46.59.81-.12-.15.97.27,1.14-.62.71-1.1-.35-1.39.78.19-.03.06.51.42.03-.46.35-.01.57-.64.9.26-.46-.68.05-.3-.62.06.13.37-.2.43-.3-.28.04-.24-.34-.68.06-.24.27-.6.61-.41.72.17.16.39-.39.38-.06-.48.54-.81.36-.75.87.32-.33.56-.23.67-.1l-.33.43-.03-.19c-.7.48,0,.38-.63.9l-.49.03c-.03-.33.97-.71.57-.94-.41.34-.39.63-.84.88.06-.1.16-.21.22-.32-.15.12-.68-.18-1.02.58-.2.36.03.18.13.31-.6.61-.68.91-1.08,1.3-.07-.15-.23,0-.41.13-.17.13-.28.21-.12-.14.36-.06,1.25-.9,1.28-1.33-.48-.07.54-.41.42-.82-.52.46-.74.16-.98.05-.15.12-.22.32-.28.42.09.22.28.05.44.22-.63.47-1.04,1.05-1.29,1.52-.29.09-.36-.14-.12-.37-.69.71-1.65,1.22-2.53,1.54.72.11-.95.48-.45.61.51-.11,1.05-.05.84.22-.32.11-.05-.15-.22-.17-.33.35-.72-.05-1.01.36.87-.4.03-.48.1-.81-.57.34-.04-.2-.64-.03-.56.34-1.32.59-2.04.7-.91-.21-2.27-.09-3.08-.28-.37-.26,0-.5-.41-.68-.49-.14.26.46-.43.08l.09-.03c-.12,0-.43-.19-.75-.33-.32-.15-.64-.29-.86-.13l.38-.2c-.11-.09-.27-.08-.39-.11.05-.1-.04-.27.2-.23-.26-.45-.84-.46-1.24-.78l.12.37c-.8-.41-1.1-.99-1.7-1.55l.17-.12-.42-.28c.23-.05.02-.46-.27-.54l1.23.6c.15.34-.44-.12-.45.18-.02.26.58.77.8.71-.19-.22-.23-.2-.44-.31.14-.27.44.05.72.06-.11-.1-.2-.3-.28-.26.3.1.51.29.89.58-.32-.12.02.25-.12.24.18-.16.58.05,1.03.41.21.48,1.04.37,1.62.67-.33.13-.76.22-1.18.1.33.33.45.2.81.49.27-.09.51-.32,1.07-.28l-.02.19c.52.03.57-.25,1.17-.09,1.05.24,2.18.17,2.99,0l.07.18c.19-.22.54-.39.92-.51.37-.16.78-.28,1-.51.51-.14.97-.49,1.36-.81.37-.34.7-.62,1.03-.7,1.37-1.43,2.56-2.7,4.13-4.02l-.07.44c.14-.4.28-.04.52-.31-.45.11.18-.55.26-.84.82-.45,1.53-1.41,2.01-2.1l.15.12c.37-.81,1.3-1.24,2.1-1.88.14-.02.4-.01.61-.23.21-.6.43-.78.91-1.46.44-.4,1.2-.98,1.73-1.3,1.37-1.81,3.24-3.13,4.78-4.88l.27.05c1.35-1.86,3.69-3.39,4.94-4.85l.12.41c.52-.32.95-.99.66-1.09.52-.32.99-1.14,1.48-1.17.5-.36.44-.64.79-1.02,1.01-.72,1.33-1.05,2.14-1.88l-.23.18c-.04.15.06.28.29.1.25-.37,1.25-.99.63-1.04,1.1-.64,2-2.1,3.14-2.64-.16-.02.05-.24.09-.39.8-.73,1.82-1.31,2.33-2.05.17-.07-.06.34.27.05.16-.21-.1-.12.09-.39.58-.68,1.28-1.23,1.98-1.76.35-.26.69-.52,1.03-.77.26-.24.56-.45.74-.74.68-1,1.21-2.1,1.49-3.27.27-1.17.29-2.39.03-3.49h.09c-.25-.33-.27-.77-.38-1.2-.08-.43-.25-.82-.62-.96,0-.2-.34-.59-.11-.58-.26-.2-.48-.54-.76-.95-.33-.44-.7-.91-1.17-1.19.06.08.11.11.21.16-.28-.46-.63-.82-.99-1.18-.36-.35-.71-.65-1.02-1.1.1.05.26.16.35.12-.17-.41-.94-.41-.81-.88-.19-.15-.28.06-.16.14-1.61-1.68-3.92-2.75-6.15-3.5-.73-.46-.72-.59-.66-.7.06-.1.13-.12-.58-.16-.08-.11-.13.14-.12.05-.54-.02-.66-.73-1.08-.57.09.29-.28.1-.32.26-1-.36-1.17-.7-2.04-.56l.08-.13c-.52.16-1.04.13-1.55.16-.51.05-1,.11-1.4.34-2.65.11-5.2.79-7.48,1.91-.57.28-1.11.62-1.67.92-.54.33-1.04.72-1.57,1.07-.51.37-.97.81-1.46,1.21-.48.39-1.01.93-1.51,1.38-4.15,3.63-8.01,7.4-12.33,10.97-1.22.6-1.29.68-2.26,1.75,0-.08.06-.15-.05-.13.15.27-.73.7-.64,1.01-.79.67-1.52,1.34-2.25,2.02-.71.68-1.52,1.39-2.16,2.07.19-.24.13-.53-.12-.26l-.14.41-.1-.02c-.15.21-.23.5.02.39-1.57,1.85-2.94,3.81-3.95,6-1.01,2.17-1.63,4.56-1.63,6.97-.06.57-.1,1.27.02,1.97.05.35.09.7.14,1.05.07.34.16.66.23.96.24,3.68,1.63,7.07,4.35,9.78,0,0-.9.15-2.09-1.03Z"/>
      </g>
      <g>
        <g>
          <path class="cls-1" d="M48.98,69.41c3.22-5.05,7.24-9.6,12.36-12.69,1.65-1,3.22-2.21,4.65-3.65,8.84-8.84,9.41-22.62,1.26-30.77s-21.92-7.59-30.77,1.26c-6.07,6.07-3.49,13.05-3.72,20.59-.11,3.69-2.78,7.72-5.13,10.04-.01.01-.03.03-.04.04-6.44,6.44-7.49,15.82-2.35,20.96s14.52,4.09,20.96-2.35c1.08-1.08,2-2.24,2.77-3.45Z"/>
          <g>
            <path class="cls-3" d="M48.76,68.76c-.3.58.41-.16-.14.42-.05-.14-.06-.29.14-.42Z"/>
            <path class="cls-3" d="M47.44,70.92c-.34,1.05-1.19,1.94-2.13,2.72-.94.8-1.99,1.46-2.83,2.28-.21.17-.15-.39-.62,0-.8.81-2.1,1.49-3.55,1.87-1.45.36-3.02.43-4.34.23l.15-.13c-.49-.04-1.1.28-1.64.23,0-.08.18-.11.06-.22-.15.23-.95-.02-1.21.13-.19-.12-.14-.3-.37-.46l-.35.19c-.24.1-.49.12-.75.09-.25-.05-.5-.17-.75-.28-.52-.21-.99-.6-1.6-.71.08-.03.21-.02.16-.11-1.86-.54-3.58-2.41-4.63-4.28.12.04.31.02.35-.13-.15.02-.32-.11-.49-.31-.15-.21-.28-.49-.41-.75.1-.17-.07-.37-.23-.64-.15-.27-.34-.6-.34-.95l.08.04c-.43-.44.05-.76-.38-1.12l.18-.34c-.46-.19.17-.74-.06-1.14h-.08c-.12-.38.09-.58.05-.95l.05-.03c-.07-.86.23-1.32-.08-1.34.29-.26,0,.83.43.41.01-2.78,1.12-5.56,2.67-7.87.28-.19.42-.34.56-.33.09-.28.58-.86.61-1.16-.05.08.24-.04.34-.14.4-.32.1-.64.58-.96-.09.22-.06.34.08.37.13-.51.6-.96.92-1.41-.02.1-.09.22,0,.27.22-.63.79-.78,1-1.3v.27c.73-.53-.13-.44.43-.93-.06.18.03.17.07.24.16-.75.87-1.6,1.11-2.25,0,.05.05.06.05.06.35-.65.79-1.31.98-2.11.18-.24.39.27.61-.5-.34-.1.27-1.32-.27-1,.25-.6.58-1.61.45-2.05.12.31.48-.3.47.26l.26-.42c.15.07-.08.45.12.32.03-.31-.13-1.14-.06-1.39-.21-.53-.67-1-.73-1.84.16.39.4-.24.47.03l-.77-1.15c-.03-.28.29-.08.17-.48-.1.03-.17-.15-.26-.27.04-.11-.16-1.17.19-1.31.14-.13.11.46.22.14-.04-.52-.16-.54-.2-1.06h.05c.04-.36-.21-1.03-.39-.64,0,.24.21-.1.13.26-.22-.23-.32-.84-.33-1.38.06.18.16.16.27.22-.31-.7-.41-1.47-.5-2.29-.17-.02.31.31.22.43.25-1.01-.22-2.19.27-3.01.01.15-.25.04-.2.04.09-.51.36-.43.33-.78.15,0,.04-.42.08-.77-.05-.2.09-.07.04.23-.03-.25.1-.85.26-1.52.23-.65.51-1.39.91-1.81-.1-.02.04-.79.18-1.01l.14.21c.23-.13.49-.72.67-.64.05-.3-.22.16-.46.61-.2.47-.37.92-.28.55.13-.03.18-.3.23-.53.06-.22.11-.39.19-.24.3-.41.37-1,.87-1.24-.13.08-.03.51.23.19.45-.56.05-.22.39-.71l.18-.34c-.15-.19.48-.44.11-.43.19.07.7-.79.89-.47l.12.28c.21-.22.16-.56.26-.82.05,0,.15-.02.17.03-.26-.38.57-.47.66-.94.62-.27,1.33-1,1.75-.93.35-.37.65-.75,1.19-.97-.08.1-.2.19-.18.29.37-.07.38-.22.63-.45-.04.08.76-.11,1.18-.14.38-.34.12-.48.1-.63.3.1.58-.12.88-.35.31-.21.64-.42.97-.34-.14.12-.59.46-.17.41.58.25.73-.63,1.48-.69l-.29-.29c.38.1.98-.5,1.01-.13.2-.19.86-.12.69-.44.61-.05,1.33-.18,2-.32.66-.15,1.29-.16,1.69.13.16-.07.6-.05.49-.23-.3-.17-.39.18-.5.05.15-.02.18-.12.19-.17.38.05.67.05.35.37.83.14.82-.67,1.9-.53-.05.15.03.2.34.18l.6-.25c.69.11.37.37.37.61.36,0,.8.05.99-.12l.4.36c-.29-.26.32-.12.5-.16l-.18.04c.05.1.47.12.69.13-.02-.15-.43-.32-.66-.39.2-.1.48,0,.75-.08-.12.22.56.29.84.38.32.12.42-.14.52-.11-.02.11.53.15.23.26-.12,0-.23-.18-.44-.11.19.15.12.32.59.31.36-.01.04-.49.63-.15-.18,0-.24.09-.39.14l.55.3.09-.2c.06.08,0,.08.03.12.25-.16.92.2,1.14.02.3.1.55.4.81.54h-.06c.28.26.76.37,1.1.36l-.04.04c.17.11.59.31.87.32.36.4-.27.81.35.84.44.23.9.06.8-.18.34.33.76.57,1.18.83.42.25.8.54,1,.97.16.02.13-.08.37.06.98.92,2.24,1.86,2.58,2.97-.3-.26-.19.12-.29.2.34.14.06.43.4.32.14-.15.24-.18.08-.54.56.59,1.3,1.6,1.32,2.11-.03-.24.11-.12.25,0-.3.11-.06.65.26.99l.21-.03-.04.35c.14.12.45,0,.46.49-.06.05-.12.11-.14.21.32.36.86.87.88,1.41l-.14.49c.09.19.37.49.33.1.09.89.26,1.41.06,1.74.91,1.29,1.31,3.51,1.21,5.25l-.15-.05c-.13.47.26.24.16.57-.14-.15-.3.35-.47-.02-.14.65.22.86.25,1.3.19.08-.09-.36.14-.26.06.08-.23.91.05,1.04-.13.16-.33,0-.44-.1l.1.42c-.38.44-.5-1.18-.97-.71v.36c-.32.3-.25-.97-.43-.1.11.39.5.79.66.46-.03.83.63.48.45,1.37-.21.21.09-.72-.18-.59-.31.38-.02.86-.17,1.22.18-.39.41.02.41.3-.22.43-.21-.35-.37.28.13.14.09.76.35.28.3.33-.29.64-.1,1.06-.31.13-.41-.82-.74-.17.28-.04.09.96.56.7-.15.26-.35.22-.45-.03-.24.34.11,1.08-.41,1.03l.2.22c-.13.09-.25.24-.46.37-.12.33-.09,1.21-.46,1.01-.01.12-.39.84,0,.68.38-.39.07-.61.54-.71-.44.2-.29.67-.33.99l-.16-.02c-.02.18-.23.53-.14.71-.02-.16-.14-.15-.24-.04l.12.28c-.23.7-.44-.05-.73.58l.12-.54c-.03.12-.34.21-.45.52.12.22.21.56.29.74-.13.39-.3.02-.32.47l.05-.57c-.02-.1-.48.1-.74.54-.1.33-.18.9.24.55-.16.21-.48.43-.48.17-.29.52.23.07.03.56-.24.09-.8.48-1.19.66l.04-.64-.21.27c.04-.53-.31.04-.39-.35-.18.15-.26.45-.36.66.83-.2-.01,1,.45,1.15-.57.8-1.19-.29-1.36.92.19-.04.11.55.43,0-.44.41.03.61-.61.98.26-.49-.71.06-.35-.65.07.14.38-.21.43-.32-.29.05-.28-.35-.71.07-.23.28-.6.62-.39.75.18.18.4-.4.4-.05-.49.57-.84.35-.78.89.34-.33.59-.21.7-.08l-.35.44-.03-.2c-.76.47,0,.41-.71.91l-.52-.02c0-.34,1.06-.67.65-.94-.44.33-.44.63-.93.85.07-.1.19-.2.25-.31-.17.11-.69-.27-1.11.47-.25.34,0,.2.1.35-.69.54-.86.84-1.3,1.14-.09-.35-.78.45-.49-.14.29.05,1.39-.65,1.46-1.1-.49-.15.6-.34.51-.79-.57.4-.77.05-1.01-.1-.16.09-.26.28-.33.38.07.25.27.11.42.31-.34.19-.65.4-.91.62-.24.22-.42.44-.52.65-.27.03-.34-.22-.11-.39-.69.52-1.46,1.03-2.16,1.47.66,0-.66.64-.17.68.4-.2.86-.2.78.09-.23.15-.1-.14-.24-.14-.13.38-.64.06-.69.54.53-.58-.19-.47-.27-.81-.34.49-.12-.19-.56.17-.33.5-.77,1.07-1.19,1.55-.79.33-1.46,1.4-1.92,1.94-.37.17-.46-.26-.78,0-.32.36.52-.01-.07.41v-.1c-.09.21-1.05.83-.79,1.32l-.16-.41c-.11.08-.12.23-.16.34-.1-.08-.29-.03-.21-.25-.49.17-.55.75-.84,1.13l.37-.1c-.36.75-.87,1.05-1.26,1.75l-.17-.15-.17.46c-.11-.22-.47.06-.46.37.08-.44.17-.88.26-1.32.31-.2,0,.46.3.41.26-.04.64-.67.55-.89-.19.21-.16.25-.22.47-.31-.11-.04-.44-.08-.74-.08.13-.28.24-.22.32.05-.32.21-.58.5-.97-.11.33.26-.03.25.13-.19-.2.03-.62.47-1.04.52-.13.57-1.01,1.11-1.48.02.4-.06.81-.24,1.21.38-.25.31-.37.7-.61-.01-.29-.16-.62.15-1.13l.17.11c.28-.45.06-.66.57-1.1.87-.75,1.73-1.55,2.41-2.09l.16.13c.08-.65,1.14-1.16,1.55-1.69,1-.52,1.9-1.54,2.57-1.55,1.53-1.11,2.72-2.22,4.15-3.5l-.03.44c.1-.4.28-.03.5-.31-.44.11.12-.56.14-.87.37-.24.7-.61.98-1,.27-.39.44-.85.59-1.21l.18.1c.07-.42.33-.75.6-1.09.27-.35.59-.69.87-1.08.13-.05.39-.1.52-.36-.06-.62.08-.86.23-1.62.28-.48.63-1.29.96-1.77.24-2.09,1.04-4.06.85-6.22l.25-.14c-.24-1.04-.22-2.17-.36-3.26-.02-.27-.04-.55-.07-.81-.05-.26-.1-.52-.15-.77-.12-.5-.19-.98-.4-1.37l.44.05c-.05-.56-.48-1.17-.71-.95-.02-.58-.65-1.19-.48-1.64-.16-.54-.42-.56-.69-.93-.42-1.02-.6-1.41-1.3-2.19l.13.22c.14.04.29-.05.16-.27-.32-.25-.75-1.25-.91-.63-.24-.52-.74-.95-1.19-1.4-.47-.44-.99-.8-1.26-1.32-.02.16-.24,0-.38,0-.78-.55-1.44-1.42-2.25-1.57-.1-.13.33-.07-.01-.28-.23-.07-.09.15-.38.07-.72-.31-1.44-.61-2.12-1.02-.69-.35-1.4-.67-2.11-.84-2.54-.38-5.21-.59-7.66-.2v-.1c-.72.53-1.99-.05-2.48.72-.21-.04-.73.16-.64-.06-.28.21-.74.28-1.22.43-.48.14-1.01.27-1.38.62.08-.03.12-.08.2-.15-.48.1-.88.34-1.29.56-.2.11-.41.23-.62.33-.21.12-.42.24-.67.33.07-.09.21-.22.19-.32-.44.05-.58.85-1.02.56-.19.12,0,.28.1.2-.52.23-.96.6-1.43.94l-.69.54c-.22.19-.42.41-.63.62-.85.84-1.6,1.71-2.17,2.63-.59.54-.74.48-.84.4-.09-.08-.1-.15-.26.49-.13.05.12.15.03.12-.14.47-.81.45-.74.87.32-.01.06.27.22.35-.29.41-.45.67-.6.91-.15.24-.22.48-.2.9l-.14-.09c.18.98-.13,2.04.31,2.86-.09,2.58.3,5.25.51,8.03.04.7.1,1.4.1,2.11,0,.36.02.7.01,1.09-.02.42-.04.84-.1,1.24-.21,1.63-.76,3.09-1.42,4.46-.71,1.33-1.51,2.56-2.41,3.7-.45.58-.93,1.13-1.44,1.67-.28.29-.46.49-.66.71l-.61.66c-1.54,1.83-2.74,3.93-3.57,6.19-.33.49-.5.77-.61,1.08-.09.31-.09.65-.11,1.28-.06-.06-.06-.14-.13-.06.3.1-.03.88.27,1.01-.13,1.74.19,3.34.89,4.89-.14-.23-.42-.27-.3.04l.35.21-.06.09c.15.18.39.31.39.06.24.47.6.85.88,1.28.36.37.66.79,1.06,1.11.73.72,1.61,1.28,2.56,1.72,1.91.9,4.23,1.12,6.44.67,1.08-.09,2.55-.65,3.57-1.25,1.68-.55,3.22-1.35,4.6-2.42,1.38-1.05,2.57-2.41,3.43-4.04,0,0,.12.21.14.61.02.39-.06.98-.49,1.67Z"/>
            <path class="cls-3" d="M49.16,68.08c.22-.03.55-.35.52.07-.15-.05-.43.05-.52-.07Z"/>
            <path class="cls-3" d="M58.33,60.22s.17-.06.22-.06c-.11.1-.12.29-.26.3.1-.1.04-.15.04-.25Z"/>
            <path class="cls-3" d="M60.78,58.52c.05.15-.42.59-.7.83.22-.29.46-.55.7-.83Z"/>
            <path class="cls-3" d="M63.55,57.45c.29-.05.27.05-.03.25-.07-.05.01-.15.03-.25Z"/>
            <path class="cls-3" d="M63.54,57.05c.21-.15.36-.15.51-.16-.08-.09-.44.41-.51.16Z"/>
            <path class="cls-3" d="M68.75,52.87c.1-.13.24-.46.45-.49-.18.07-.37.72-.45.49Z"/>
            <path class="cls-3" d="M70.46,50.25c.06-.08.11-.1.13-.22.15-.12.14.1.07.24l-.2-.02Z"/>
            <polygon class="cls-3" points="44.93 16.9 45.21 16.72 45.21 16.87 44.93 16.9"/>
            <path class="cls-3" d="M31.33,35.16c.1.32-.13.23-.15.28-.02-.29.18.1.15-.28Z"/>
            <polygon class="cls-3" points="31.7 47.42 31.72 47.33 31.99 47.47 31.7 47.42"/>
          </g>
        </g>
        <g>
          <path class="cls-1" d="M48.51,66.34c2.86-4.39,6.39-8.37,10.83-11.15,1.43-.9,2.79-1.98,4.05-3.24,7.74-7.78,8.56-19.51,1.83-26.21-6.73-6.7-18.46-5.82-26.2,1.96-5.32,5.34-3.29,11.21-3.67,17.63-.19,3.14-2.56,6.65-4.61,8.69-.01.01-.03.03-.04.04-5.63,5.66-6.76,13.67-2.51,17.9s12.25,3.06,17.88-2.6c.94-.95,1.76-1.96,2.44-3.01Z"/>
          <g>
            <path class="cls-3" d="M48.26,65.74c-.26.5.38-.11-.11.37-.06-.13-.07-.27.11-.37Z"/>
            <path class="cls-3" d="M47.13,67.6c-.25.93-.97,1.71-1.79,2.38-.8.7-1.7,1.27-2.39,2.02-.18.15-.17-.37-.56-.02-.66.72-1.73,1.4-2.97,1.74-1.23.35-2.59.48-3.72.3l.12-.13c-.42-.02-.93.35-1.39.3,0-.08.15-.11.05-.22-.12.26-.81.05-1.03.21-.17-.11-.13-.29-.33-.42l-.3.21c-.41.23-.87.15-1.3-.07-.45-.18-.86-.48-1.39-.56.07-.03.18-.03.14-.12-.41-.07-.78-.29-1.19-.49-.37-.25-.77-.51-1.11-.84-.69-.66-1.27-1.47-1.71-2.29.12.03.31.01.36-.13-.31.05-.59-.46-.8-.92.18-.28-.47-.77-.45-1.39l.07.04c-.36-.39.1-.66-.3-.98.07-.1.13-.2.2-.29-.41-.18.21-.63,0-.98h-.08c-.11-.34.14-.5.09-.81l.05-.03c-.06-.75.29-1.12-.04-1.16.3-.21-.02.72.43.38,0-1.19.33-2.38.74-3.52.48-1.12,1.04-2.21,1.74-3.18.26-.15.39-.27.52-.25.09-.23.5-.74.51-1.01-.04.07.22-.02.31-.1.37-.25.05-.58.48-.84-.07.2-.03.31.1.35.09-.47.49-.84.76-1.23-.01.09-.07.19.02.25.15-.57.69-.66.84-1.13l.03.25c.64-.43-.16-.41.33-.83-.04.16.04.16.09.23.1-.67.73-1.39.93-1.95,0,.04.05.06.05.06.3-.56.7-1.11.86-1.8.17-.2.39.26.58-.4-.34-.11.24-1.14-.29-.89.24-.5.56-1.36.45-1.74.11.27.48-.24.46.25l.26-.35c.15.07-.09.39.11.28.03-.27-.1-.99-.03-1.2-.2-.46-.64-.88-.68-1.6.15.34.41-.2.47.03l-.73-1c-.02-.24.29-.06.18-.41-.1.02-.16-.13-.25-.23.04-.09-.13-1,.24-1.12.14-.11.09.39.21.12-.02-.45-.14-.46-.16-.92h.05c.05-.31-.17-.89-.37-.56,0,.21.22-.08.12.23-.22-.21-.29-.73-.29-1.19.06.16.16.14.26.2-.29-.61-.36-1.28-.44-1.99-.17-.02.3.28.21.38.27-.86-.17-1.9.32-2.6,0,.13-.25.02-.2.02.11-.43.36-.36.34-.66.15,0,.04-.36.08-.66-.05-.18.08-.05.04.2-.02-.22.09-.74.24-1.32.21-.56.46-1.19.83-1.54-.1-.03,0-.7.13-.9l.15.2c.22-.1.43-.62.6-.54.03-.27-.2.13-.4.52-.17.41-.32.8-.25.47.12-.02.16-.26.19-.46.05-.19.09-.35.17-.2.26-.35.3-.89.75-1.07-.11.07,0,.47.23.2.38-.49.03-.2.32-.63l.15-.3c-.15-.18.41-.38.07-.39.18.08.58-.69.79-.38l.14.27c.18-.19.11-.52.18-.76.04,0,.13,0,.16.04-.26-.36.48-.41.53-.85.54-.22,1.14-.86,1.51-.8.28-.34.53-.69,1-.88-.06.09-.17.17-.14.27.33-.05.33-.19.53-.41-.02.08.66-.1,1.04-.1.31-.31.07-.46.04-.61.54.21.95-.83,1.59-.63-.11.11-.49.44-.12.4.53.26.59-.6,1.26-.64l-.27-.28c.33.09.82-.5.87-.14.16-.19.75-.11.58-.43.54-.03,1.14-.22,1.72-.34.57-.14,1.11-.2,1.47.09.14-.08.51-.06.42-.23-.27-.17-.32.18-.43.06.13-.03.15-.13.15-.18.34.04.59.04.32.37.72.14.67-.72,1.62-.59-.04.15.04.2.3.17l.51-.27c.6.04.33.34.34.58.31-.02.69.02.85-.16l.36.34c-.26-.25.27-.13.43-.18l-.15.05c.05.1.41.07.6.08-.02-.16-.38-.29-.58-.33.17-.1.42-.05.66-.13-.1.23.49.26.74.33.28.1.37-.16.45-.14-.02.13.47.1.2.24-.11.02-.2-.16-.38-.08.17.13.1.33.52.26.32-.04.04-.49.55-.19-.16.02-.21.11-.34.16l.48.27.08-.21c.05.07,0,.08.03.12.22-.18.8.15,1.01-.06.26.08.48.36.71.48h-.05c.24.24.66.31.97.28l-.03.04c.15.09.52.26.78.24.31.36-.27.81.28.79.39.19.81,0,.73-.22.56.6,1.58.78,1.9,1.57.14,0,.13-.08.34.04.21.21.44.41.68.61.23.21.44.43.65.64.42.43.79.87.87,1.4-.27-.22-.19.12-.29.2.32.11.02.39.36.27.15-.14.25-.17.12-.49.25.26.53.61.76.95.19.36.33.71.34.93-.01-.22.11-.11.24,0-.31.11-.1.58.18.88l.2-.03-.09.32c.11.11.44,0,.42.43-.06.05-.12.1-.15.18.31.31.78.77.73,1.26l-.17.43c.08.17.34.43.32.09.06.77.1,1.25-.1,1.53.89,1.14.99,3.1.88,4.61l-.15-.05c-.15.4.25.23.12.5-.12-.14-.34.28-.47-.05-.22.55.17.75.19,1.14.18.08-.09-.32.15-.21.06.07-.24.78.03.91-.14.12-.33-.02-.43-.12l.07.37c-.21.18-.31-.09-.42-.35-.12-.26-.27-.51-.5-.33,0,.1,0,.21,0,.31-.34.23-.21-.85-.43-.12.07.34.43.71.62.44-.07.71.61.46.43,1.22-.21.17.09-.62-.17-.53-.31.3,0,.75-.19,1.04.21-.32.41.05.39.29-.25.35-.19-.32-.38.21.13.13.1.68.34.27.3.31-.28.54-.09.93-.31.09-.41-.76-.72-.21.29,0,.06.84.54.66-.16.21-.36.15-.44-.07-.28.26.12.96-.4.87l.2.21c-.12.07-.24.19-.44.29-.12.28-.13,1.04-.46.84,0,.11-.34.72.02.61.35-.31.05-.54.5-.59-.41.14-.26.58-.29.86l-.15-.04c-.02.16-.2.46-.11.62-.01-.14-.14-.14-.23-.06l.12.25c-.23.59-.43-.09-.69.45l.09-.48c-.02.1-.31.16-.4.44.12.21.22.52.31.7-.11.34-.28,0-.28.4l.02-.51c-.03-.1-.43.06-.7.41-.11.27-.13.81.24.51-.14.18-.43.36-.45.12-.25.45.22.09.06.52-.23.05-.71.39-1.1.49.01-.19.02-.38.01-.57-.06.08-.12.16-.19.23.03-.47-.29,0-.38-.35-.17.12-.25.36-.32.56.76-.12.05.93.48,1.11-.49.7-1.1-.35-1.23.74.18-.02.12.51.41.05-.4.33.06.57-.52.86.21-.44-.66,0-.36-.64.07.14.34-.16.38-.27-.27.02-.28-.35-.65,0-.2.24-.52.54-.32.67.18.18.35-.34.36-.02-.42.49-.75.26-.67.78.29-.29.53-.16.64-.02l-.3.39-.04-.19c-.67.39.02.38-.6.81l-.48-.05c-.03-.33.93-.56.54-.84-.38.28-.36.57-.8.74.06-.09.16-.18.21-.28-.15.09-.64-.3-.98.38-.21.31.02.19.11.34-.6.47-.73.75-1.06,1-.11-.33-.66.39-.45-.16.15.02.42-.1.67-.29.28-.2.52-.46.54-.67-.45-.18.53-.29.42-.72-.49.34-.7,0-.92-.17-.14.08-.21.25-.27.34.08.24.25.12.4.33-.61.32-1.02.74-1.17,1.13-.24.02-.32-.22-.13-.38-.57.48-1.23.92-1.83,1.3.6.03-.55.57-.1.63.35-.17.77-.14.72.13-.19.12-.1-.14-.23-.15-.09.36-.58.01-.58.47.43-.53-.21-.46-.32-.78-.26.45-.13-.19-.5.13-.27.45-.62.96-.97,1.38-.7.26-1.24,1.21-1.64,1.67-.33.13-.45-.27-.73-.05-.27.31.49.02-.04.38v-.09c-.08.19-.93.69-.65,1.16l-.17-.39c-.1.07-.1.2-.13.3-.1-.08-.27-.05-.22-.24-.45.12-.47.65-.72.98l.34-.07c-.29.66-.76.9-1.09,1.5l-.17-.15-.13.41c-.12-.21-.45.02-.42.3.05-.39.11-.79.17-1.18.28-.16.03.42.31.4.24-.02.57-.56.46-.77-.17.18-.14.22-.18.42-.3-.12-.07-.41-.12-.68-.07.11-.25.2-.19.28.03-.29.17-.51.42-.85-.08.3.25,0,.25.13-.19-.19,0-.56.38-.92.48-.08.47-.89.94-1.28.05.37,0,.74-.14,1.09.34-.2.26-.32.62-.51-.03-.27-.19-.58.06-1.03l.17.12c.23-.4,0-.61.45-.98.74-.65,1.5-1.31,2.07-1.81l.16.13c.03-.6.95-1.02,1.28-1.52.87-.43,1.58-1.39,2.19-1.36,1.31-1.01,2.31-1.94,3.57-3.02v.41c.07-.36.26,0,.44-.24-.41.06.09-.5.09-.78.64-.4,1.16-1.23,1.35-1.89l.17.11c.09-.75.85-1.15,1.32-1.83.12-.03.36-.06.48-.28-.03-.54.09-.73.2-1.4.22-.41.64-1.05.92-1.46.28-1.78,1.01-3.44.95-5.28l.25-.1c-.3-1.77.05-3.91-.55-5.31l.42.06c.07-.5-.38-1.01-.61-.82,0-.48-.49-1.04-.31-1.41-.11-.46-.39-.46-.59-.79-.12-.45-.27-.74-.41-1.02-.15-.27-.3-.54-.6-.86l.1.19c.13.03.28-.06.18-.25-.28-.21-.61-1.06-.81-.5-.34-.93-1.56-1.47-2-2.32-.03.15-.21.02-.34.03-.31-.26-.63-.52-.92-.79-.29-.27-.62-.46-.96-.51-.08-.12.29-.1,0-.27-.2-.05-.09.15-.33.1-.61-.24-1.22-.47-1.79-.82-.59-.27-1.19-.57-1.79-.66-2.16-.2-4.42-.29-6.48.14v-.1c-.3.26-.72.25-1.12.26-.4.01-.78.11-.96.45-.19-.04-.62.15-.56-.07-.23.19-.61.29-1.02.41-.41.13-.87.22-1.15.58.07-.03.1-.06.16-.14-.82.21-1.36.75-2.18,1.08.05-.08.17-.2.14-.29-.39.03-.45.78-.87.49-.16.11.02.27.11.19-1.66.95-3.15,2.58-4.14,4.1-.52.45-.68.37-.77.29-.09-.08-.1-.14-.23.42-.12.03.12.14.03.11-.11.41-.77.33-.68.71.31.01.07.24.22.32-.27.33-.42.55-.57.74-.14.2-.22.4-.19.76l-.13-.09c.2.86-.14,1.73.29,2.45-.14,2.18.14,4.47.26,6.88.02.61.06,1.21.04,1.83,0,.32,0,.59-.02.95-.02.37-.06.74-.12,1.09-.23,1.42-.73,2.68-1.32,3.86-.63,1.14-1.33,2.2-2.12,3.19-.39.5-.8.98-1.24,1.45l-.33.34-.26.28-.52.57c-1.35,1.54-2.38,3.3-3.18,5.18-.65.79-.7.9-.72,1.96-.06-.05-.06-.12-.13-.06.29.1-.08.74.24.87-.19,1.46.04,2.79.55,4.08-.1-.19-.39-.21-.28.04.09.07.2.12.3.17l-.06.08c.13.14.35.24.37.03.19.38.47.69.69,1.03.29.29.52.63.84.88.28.3.63.51.96.77.37.19.71.44,1.12.58,1.56.7,3.54.79,5.38.32.92-.09,2.13-.66,2.99-1.18,1.42-.49,2.74-1.18,3.92-2.1,1.19-.9,2.19-2.06,2.93-3.46,0,0,.12.2.17.56.04.36,0,.88-.36,1.48Z"/>
            <path class="cls-3" d="M48.61,65.16c.2,0,.5-.28.5.1-.15-.06-.41.01-.5-.1Z"/>
            <path class="cls-3" d="M56.65,58.55s.15-.04.19-.04c-.09.09-.08.27-.21.27.09-.09.02-.14.02-.23Z"/>
            <path class="cls-3" d="M58.73,57.06c.05.14-.32.55-.56.76.18-.25.37-.51.56-.76Z"/>
            <path class="cls-3" d="M61.11,56.19c.26-.03.25.06-.01.24-.06-.05,0-.14.01-.24Z"/>
            <path class="cls-3" d="M61.08,55.81c.18-.13.32-.12.45-.12-.08-.1-.37.36-.45.12Z"/>
            <path class="cls-3" d="M65.65,52.29c.09-.11.2-.41.41-.41-.18.03-.32.63-.41.41Z"/>
            <path class="cls-3" d="M67.17,50.06c.06-.06.1-.08.13-.18.15-.09.14.11.07.22l-.2-.04Z"/>
            <polygon class="cls-3" points="46.06 21.72 46.3 21.54 46.31 21.69 46.06 21.72"/>
            <path class="cls-3" d="M34.18,37.61c.09.28-.14.19-.16.24-.01-.25.18.09.16-.24Z"/>
            <polygon class="cls-3" points="34.29 48.13 34.32 48.05 34.58 48.19 34.29 48.13"/>
          </g>
        </g>
        <g>
          <path class="cls-1" d="M33.6,67.91c2.92-5.64,20.45-31.97,20.45-31.97l-8.57-4.15c-.57-.27-.36-1.12.27-1.11,4,.04,12.35,1.22,18.34,9.66.32.45-.2,1.03-.69.77l-5.88-3.15s-26.32,34.59-23.92,29.96Z"/>
          <g>
            <path class="cls-3" d="M33.26,67.41c-.15.42.34-.09-.04.3-.08-.11-.11-.22.04-.3Z"/>
            <path class="cls-3" d="M34.46,67.95c.38-1.54,2.11-2.46,2.71-3.96.09-.16.3.3.47-.08.47-1.52,2.2-3.12,3.67-4.26l.02.16c.28-.22.23-.79.5-1.04.06.05.02.16.15.16-.13-.22.32-.58.28-.81.16-.06.3.07.5-.01l-.08-.33c-.15-.85.9-1.08,1.13-1.91.03.07.02.16.1.15.47-1.24,1.5-2.45,2.26-3.65.04.1.15.25.28.25-.18-.23.03-.62.22-.95.34.04.19-.68.59-.93l.03.07c-.04-.45.44-.28.31-.71l.31-.03c-.24-.37.46-.25.46-.59l-.07-.04c.08-.26.32-.24.41-.47h.05c.25-.5.63-.61.37-.8.32,0-.24.5.24.48.86-1.65,2.06-3.11,3.18-4.58.23-.09.34-.17.47-.13.06-.19.38-.59.35-.82-.03.05.2,0,.27-.06.3-.19-.06-.51.28-.71-.02.17.03.27.15.3,0-.4.28-.71.44-1.06,0,.08-.02.17.07.22.02-.49.5-.55.57-.94l.07.22c.53-.32-.2-.37.2-.68-.03.13.06.14.1.2.02-.58.54-1.07.77-1.56,0,.04.04.07.04.07.32-.49.71-.83,1.04-1.51.03-.01.05,0,.06.02.1.2.07.47.43.6-.07-.46.84.28.58-.34.23.16.54.37.82.56.25.16.46.28.63.3-.25.03-.02.5-.37.35l.15.33c-.11.11-.23-.18-.25.03.17.08.73.21.85.34.42-.04.9-.26,1.42-.03-.3,0-.06.43-.25.4l1.03-.25c.17.07-.1.28.18.32.03-.09.17-.09.28-.12.04.07.74.29.63.65.02.17-.3-.07-.18.14.28.13.25-.04.36-.1l.03.04c.07-.02.08-.14.01-.17-.03-.02-.08-.02-.12-.02h0s.03,0-.03,0c-.02,0,.08,0,0,.01,0,0-.04.02-.07.04h0s-.13.1-.13.1h0s0,0,0,0l-.02-.02-.05-.05c-.06-.06-.12-.13-.17-.2.12.06.19-.01.3-.04-.51-.2-.87-.52-1.27-.84-.14.1.36-.05.33.07-.2-.69-1.14-.78-1.22-1.43.08.04-.15.2-.12.17-.19-.25,0-.41-.21-.49.09-.12-.22-.14-.4-.26-.15,0,.01-.09.15.03-.3-.12-1.28-.75-1.67-1.32-.05.08-.54.02-.65-.08l.19-.14c-.03-.2-.43-.28-.33-.46-.22.02.08.15.36.27.28.14.54.27.3.21.03-.23-.71-.1-.44-.28-.26-.17-.65-.14-.76-.48.05.08.39-.11.17-.25-.39-.22-.16.01-.5-.12l-.24-.04c-.13.18-.32-.23-.31.07.05-.18-.6-.23-.37-.53l.2-.22c-.18-.08-.42.1-.61.14,0-.04-.02-.11,0-.15-.24.38-.38-.24-.74-.04-.27-.33-.89-.45-.95-.78-.34,0-.64.02-.93-.18.08-.01.17,0,.23-.08-.16-.2-.25-.11-.46-.11.07-.05-.32-.4-.5-.63-.34.03-.31.29-.39.42-.14-.5-.89.01-1.12-.45.12-.04.49-.09.27-.27-.16-.49-.63.18-1.02-.14l.02.38c-.14-.28-.68.07-.56-.29-.17.1-.5-.22-.51.14-.67-.44-1.77-.08-2.16-.75-.11.05-.37-.03-.33.16.16.21.25-.13.31.01-.1,0-.12.1-.14.15-.22-.1-.4-.13-.16-.41-.5-.26-.56.57-1.19.42.02-.07.01-.12-.02-.15,0,0-.02-.01-.03-.02,0-.11,0-.23,0-.37,0-.02,0-.07,0-.08-.02-.06-.02-.04,0-.02.02,0,.02.01.03.02-.03-.01-.11.03-.04-.02.01,0,.09-.2.12.03-.09-.29.24-.05.36-.06h-.13c0,.12.26.18.4.21.04-.15-.18-.33-.3-.44.16-.05.31.06.51.01-.15.2.27.32.42.43.17.14.31-.09.36-.06-.05.12.3.17.08.26-.08,0-.1-.18-.25-.14.09.15-.03.34.31.32.25-.01.16-.46.47-.14-.13,0-.19.09-.3.13l.3.28.11-.19c.02.07-.02.08,0,.11.21-.16.57.2.76,0,.19.07.31.32.46.42h-.04c.15.22.46.28.7.22l-.03.04c.11.07.39.17.59.12.21.29-.27.8.17.7.29.13.63-.15.58-.33.23.19.53.28.81.39l.21.09c.11.05.22.1.32.16.2.12.38.25.51.41.18-.01.15-.09.44,0,.73.41,1.7.75,2.47,1.14-.29.42-.63.84-1.05,1.17.09-.31-.27,0-.43.01.08.23-.43.28-.09.37.25-.02.35.02.66-.31-.32.68-1.07,1.8-1.47,2.07.21-.15.14.07.13.19-.25-.21-.49.08-.56.37l.14.14-.27.04c0,.13.28.33-.04.46-.07-.03-.14-.06-.22-.05-.03.33-.03.82-.34,1l-.38.06c-.05.13-.03.42.17.26-.44.36-.65.64-.95.64-.01,1.11-.74,2.25-1.37,3.13l-.1-.11c-.27.17.13.27-.07.38-.06-.16-.38.02-.39-.27-.36.26-.08.59-.18.85.14.14.02-.25.19-.07.03.08-.44.4-.23.61-.15.02-.29-.16-.35-.27l-.02.29c-.45.07-.12-.93-.65-.88l-.09.22c-.38.02.05-.71-.36-.27-.02.29.21.71.44.59-.22.49.44.59.11,1.05-.23.04.22-.41-.04-.44-.34.1-.19.52-.39.68.24-.16.36.19.31.36-.27.17-.13-.31-.38.02.1.15,0,.53.28.32.24.33-.32.3-.2.65-.3-.03-.29-.69-.65-.39.26.08-.01.66.44.67-.16.11-.34.01-.4-.18-.27.13.06.77-.42.56l.17.22c-.12.02-.23.08-.42.11-.13.18-.09.8-.42.56,0,.08-.3.5.04.49.31-.17.03-.42.44-.36-.38.02-.22.4-.23.61l-.15-.06c0,.12-.17.32-.07.46-.03-.12-.14-.14-.22-.09l.13.22c-.14.44-.4-.14-.58.26l.03-.37c0,.08-.27.09-.32.3.14.18.27.45.37.6-.05.25-.26-.04-.21.28l-.05-.4c-.03-.08-.41-.02-.58.26-.05.21.03.65.31.44-.09.14-.32.26-.38.07-.14.35.22.08.16.42-.19.03-.58.26-.89.35l-.12-.47-.12.18c-.09-.4-.26,0-.43-.3-.12.1-.13.31-.15.48.65-.11.29.78.73.91-.23.57-1.11-.27-.87.64.15-.02.27.41.37.02-.24.29.23.45-.16.73.03-.37-.57.05-.53-.49.11.11.24-.16.24-.25-.23.04-.36-.27-.56.06-.09.22-.26.5-.04.58.22.13.17-.32.31-.05-.18.44-.55.3-.27.7.13-.27.39-.19.53-.09l-.1.35-.11-.15c-.4.4.17.3-.16.73l-.41.03c-.17-.26.53-.58.08-.76-.2.28-.07.51-.34.72,0-.08.05-.17.05-.26-.08.1-.67-.13-.63.48-.02.29.1.15.25.25-.26.5-.2.73-.37,1.05-.25-.25-.37.52-.45,0,.27-.05.68-.73.52-1.08-.45-.05.28-.34,0-.66-.25.37-.57.14-.83.06-.08.09-.05.26-.06.34.18.18.26.04.48.17-.32.38-.47.86-.42,1.22-.19.08-.37-.1-.28-.28-.26.54-.62,1.06-.99,1.49.53-.09-.26.58.16.55.24-.21.62-.27.68-.04-.12.15-.14-.1-.26-.08.06.32-.5.13-.33.51.18-.53-.36-.35-.57-.6-.06.42-.18-.13-.39.19-.06.42-.2.9-.37,1.3-.54.3-.74,1.16-.98,1.58-.27.13-.48-.2-.67,0-.16.28.45,0,.06.32l-.04-.08c0,.17-.66.62-.3,1.01l-.25-.33c-.08.06-.04.17-.05.26-.11-.06-.26-.03-.25-.2-.38.12-.29.55-.44.83l.3-.06c-.13.56-.51.77-.71,1.26l-.18-.12-.05.34c-.15-.17-.41,0-.34.24l-.06-.99c.23-.13.1.35.37.34.23,0,.43-.46.28-.64-.12.15-.08.18-.09.35-.3-.1-.14-.34-.25-.57-.04.09-.19.17-.12.23-.03-.24.05-.43.21-.71,0,.25.22,0,.26.11-.22-.16-.14-.47.14-.78.42-.08.22-.75.54-1.1.14.3.2.62.15.92.27-.18.16-.28.43-.46-.1-.23-.32-.48-.22-.87l.18.09c.09-.35-.16-.51.12-.85.48-.58.89-1.24,1.22-1.71l.18.09c-.2-.5.43-.98.5-1.45.56-.51.69-1.44,1.18-1.57.57-1.17,1.04-2.2,1.83-3.28l.13.35c-.05-.32.23-.04.32-.26-.34.1-.08-.44-.14-.68.51-.37.72-1.15.83-1.71l.18.09c-.03-.65.6-1.01,1.01-1.53.11-.02.34-.01.43-.19-.08-.48.04-.63.16-1.18.21-.32.62-.8.94-1.06.41-1.47,1.47-2.54,2.06-3.95l.26.04c.38-1.5,1.75-2.75,2.22-3.93l.27.33c.32-.26.4-.8.11-.88.32-.26.37-.93.79-.95.28-.29.11-.51.25-.82.14-.15.26-.27.36-.39.07-.09.13-.17.19-.24.05-.07.07-.16.09-.25l-.06.04c.08.04.26.09.33.03-.07-.1.37-.36-.31-.22.13-.06.2-.13.23-.18-.23-.09-.5-.01-.45-.29-.07.11-.14.11-.2.18.05.03-.41-.27-.66-.44-.29-.19-.58-.34-.89-.36-.07-.11.26-.12,0-.26-.18-.03-.08.15-.3.13-1.14-.28-1.98-1.24-2.95-1.64-.45-.14-.88-.31-1.32-.49l-.16-.07-.08-.04s-.17-.09-.25-.14c-.36-.22-.7-.6-.88-1.04-.35-.89-.13-1.83.53-2.49.33-.33.79-.54,1.23-.6.1-.01.21-.02.31-.03h.14s.19,0,.19,0c.25.01.5.01.75.03.49.03.98.07,1.45.11l-.03.09c.69-.3,1.42.57,2.01.12.13.12.56.16.41.32.56-.15,1.32.55,2.1.45-.06-.03-.1-.02-.19,0,.64.41,1.35.35,2.01.81-.09.01-.23,0-.29.07.21.27.82-.12.78.38.16.06.21-.17.1-.2,1.49.83,3.22,1.45,4.72,2.44.86.98-.41.66.59,1.01,0,.12.16-.1.11-.02.38.15.12.78.48.76.11-.29.24,0,.37-.13.44.67.36.96.95,1.22l-.14.08c.82.19,1.17.98,1.96,1.11.3.35.58.71.87,1.06l.43.53.05.07c.05.07.12.18.17.27.1.19.19.42.23.66.09.48.01.98-.18,1.39-.37.8-1.21,1.38-2.21,1.34-.24,0-.48-.06-.69-.14-.1-.04-.21-.09-.3-.13l-.07-.03-.29-.14-1.14-.54c-.76-.36-1.51-.72-2.26-1.08l-.56-.27c-.06-.03-.04,0-.06,0-.02,0-.04.01-.05.02v.04s-.02,0-.03,0c0,0,0,0-.01.01l-.18.23-.81,1.06-1.61,2.13c-1.07,1.42-2.17,2.83-3.39,4.2-.84.43-.87.49-1.31,1.33-.03-.07,0-.12-.09-.11.23.24-.38.54-.19.8-.87,1.03-1.56,2.06-2.41,3.16.11-.19-.04-.45-.18-.23v.34s-.1-.02-.1-.02c-.07.17-.06.42.13.34-1.91,2.93-4.54,5.22-6.59,7.95-.61.55-1.23,1.53-1.73,2.26-.99.88-1.93,1.73-2.81,2.63-.44.45-.87.91-1.3,1.41-.23.26-.45.52-.69.78l-.22.23s-.09.09-.17.15c-.12.06-.07.13-.61.31-.1.02-.2.04-.3.04-.02,0-.15,0-.29-.02-.14-.03-.28-.08-.41-.15-.13-.07-.24-.16-.32-.24-.07-.07-.14-.16-.19-.25-.11-.17-.19-.45-.2-.55-.02-.13-.02-.27,0-.4l.03-.16c.04-.19.07-.25.1-.33l.13-.34s.14.16.22.61v.1s.02.18.02.18c0,.06,0,.14.01.21l.03.16c.03.1.08.21.15.3.08.16.48.37.69.33.1,0,.22-.04.31-.08.3-.21.26-.3.33-.42.09-.23.19-.46.34-.7Z"/>
            <path class="cls-3" d="M33.49,66.93c.19,0,.41-.23.49.09-.15-.05-.38,0-.49-.09Z"/>
            <path class="cls-3" d="M39.13,60.88s.12-.06.15-.07c-.04.09.02.24-.09.26.04-.09-.03-.12-.06-.2Z"/>
            <path class="cls-3" d="M40.32,59.19c.11.1-.03.54-.16.77l.16-.77Z"/>
            <path class="cls-3" d="M41.86,57.9c.19-.07.23,0,.1.19-.07-.03-.07-.11-.1-.19Z"/>
            <path class="cls-3" d="M41.65,57.6c.08-.14.2-.16.31-.18-.11-.06-.13.35-.31.18Z"/>
            <path class="cls-3" d="M44.27,54.32c.04-.09.06-.34.25-.33-.15.03-.11.51-.25.33Z"/>
            <path class="cls-3" d="M45.14,52.57s.08-.05.08-.14c.12-.06.14.1.1.19l-.18-.05Z"/>
            <polygon class="cls-3" points="50.88 32.44 50.67 32.46 50.73 32.33 50.88 32.44"/>
            <path class="cls-3" d="M62.86,40.52c.2.1-.03.19-.02.23-.12-.13.19-.05.02-.23Z"/>
            <polygon class="cls-3" points="57.74 37.66 57.81 37.69 57.83 38.04 57.74 37.66"/>
          </g>
        </g>
      </g>
    </g>
  </g>
</svg>