<?xml version="1.0" encoding="UTF-8"?>
<svg id="Layer_2" data-name="Layer 2" xmlns="http://www.w3.org/2000/svg" viewBox="0 0 126.38 116.43">
  <defs>
    <style>
      .cls-1 {
        fill: #ff3600;
      }
    </style>
  </defs>
  <path class="cls-1" d="M94.04,38.17c-.18.02-.35.05-.51.09.14-.01.27-.02.41-.04.03-.02.06-.03.1-.05Z"/>
  <path class="cls-1" d="M88.08,31.94s-.03,0-.05,0c.03.04.05.05.05,0Z"/>
  <path class="cls-1" d="M79.04,23.06c-.08-.2.69-.27-.24-.25.11.08.19.17.24.25Z"/>
  <path class="cls-1" d="M93.81,38.33c.15-.07.27-.11.41-.12-.1,0-.19.01-.28.02-.08.04-.15.08-.13.11Z"/>
  <path class="cls-1" d="M58.57,34.9l-.83-.04c.23.03.53.04.83.04Z"/>
  <path class="cls-1" d="M40.7,22.82c-.13,0-.24,0-.31.03l.31-.03Z"/>
  <path class="cls-1" d="M55.27,34.9c-.15-.1-.31-.16-.47-.19-.03.02-.07.04-.1.07l.57.12Z"/>
  <path class="cls-1" d="M52.83,34.92v-.02s-.01,0-.01,0c0,0,0,0,0,0,0,0,0,.01.01.02Z"/>
  <path class="cls-1" d="M94.7,38.61c-.3,0-.65.04-1.04.09.28-.08.27-.16.22-.27-.65.03-.87.36-1.4.21.23-.11.6-.28,1.05-.39-.89.09-1.73.27-2.42.36-.13-.17.52-.26.88-.37-.47.04-1.05.08-1.52.14-.38.06-.63.15-.73.28l.38.1c-.22.01-.11-.23.05-.28.22-.11.54-.08.68-.02.16.06.2.16.2.21l-.47.06c.2.29.53.26,1.05.17.51-.09,1.27-.25,1.72-.23-.28.11-.52.23-.76.34h-5.2c.09-.03.18-.09.27-.2.34.12.72.09,1.12-.07.11.07,0,.16-.02.22.35-.16.76-.44.53-.75-.35.32-.43.19-.81.56-.3.04-.52-.11-.47-.23-.04.03-.13.03-.22.02.05-.11.1-.24.14-.4l-.28-.84.23-.27v.71c.23-.4.04-.66-.09-.94.12-.07.2-.19.25-.35l-.44-.83c.18-.1.36.37.46-.18-.21-.39-.41.37-.54-.27.21-.4.38-.29.2-.76.12-.07.2.03.25.22-.14-.42-.06-1.12-.31-1.33.26-.42-.07-1.42.37-1.38-.11-.13-.35-.74-.36-1.13.53.71.03-1.45.6-1.26-.47-.52-.21-1.89-.47-2.82.04.05.11.15.09.24.04-.52.18-.67.27-1.01-.1-.02-.18-.08-.24-.17-.03-.05-.06-.1-.09-.16-.03-.09-.05-.2-.08-.3-.1-.42-.18-.86-.31-1.09.19-.58.3-.56.42-.37.11.17.22.51.41.23-.23.14-.29-.9-.42-1.17-.19.04-.3.1-.28.17-.58-.23-.57-.11-.82-.44-.21.24-.4.27-.66.26-.25,0-.59-.03-.92.12-.72-.24-.19-.46-.97-.31-.37-.15.32-.32.32-.32-.79,0-.37.36-.54.57-.95.1-.44-.27-.76-.46-.59.1-1.04.44-1.48.42-.03-.06-.12-.08-.02-.16-.62.29-1.85.01-2.58.38-.05-.03-.08-.06-.09-.09.12.18.14.37.11.51-.36,0-.66.23-.79,0,.22,0,.24-.09.34-.17l-.37.11c-.34-.35.51-.12.51-.38-.73.11-1.57.4-2.13.3-.12-.34,1.3-.11.56-.42l.86.13c-.66-.54.52.04-.08-.54-1.13-.1-1.27.17-2.4.07-.25.19.08.28-.17.47-1.61.34-1.26-.85-2.45-.4-.31.23-.42.66-1.27.43l.29-.38c-1.1-.04-.63.55-1.77.29.2-.15.86-.13.7-.17-.74-.3-.53.22-1.1.22l-.12-.34c-1.17.05-2.45.3-3.75.36.07-.1.29-.21,0-.31-1.63.17-3.48-.04-5.06-.24l-.6.29c-.14,0-.26-.13-.11-.19-.61-.11-.03.19-.33.3-.35.02-.46-.17-.24-.26-1.08.25-3.08.54-4.22.22l.22-.09c-.89-.12-1,.6-1.83.33l.16-.05c-1.93-.13-4.06.14-5.53-.3-.28.42-1.91-.19-2.03.4-1.1-.29-.79-.4-2.33-.59-.41-.03-.62.37-1.13.43v-.31s-.36.16-.36.16c-.11.05-.22.11-.42.16-.2-.12-.43-.25-.69-.37l-.8.08c.35.02.76.14.74.23-.47.06-1.04.03-1.63-.03-.09.64-.25,1.21-.34,1.19l.07.82.03.4.02.19.02.11.13.89c-.12-.04-.17-.34-.25-.57.31.95-.32.17-.04,1.04.07-.12.18.06.25.08-.19.43-.19,1.42-.11,2.15l-.21-.14c-.05,1.32.1,2.77.1,4.25.1-.53.47-.41.5.03l-.33.17c.2.28.12-.45.37.12-.04.55-.37.37-.48.05l.11.67c-.1.04-.15-.12-.27-.16.2.28-.33,1.16.02,1.55l-.1.04c0,1.48.11,2.15.13,3.35.28.02.22.49.45.85-.09.88-.31,1.86-.29,2.93.14.75.24.22.41.55-.26.05-.23,1.12-.42.57.04,1.28.05,1.63.26,3.25.11-.18.15-.37.24-.27.04.29-.11.67-.23.62l-.03-.08c.19.91,0,1.95-.16,2.95-.08.5-.16.99-.19,1.44,0,.11,0,.22,0,.33,0,.19.01.37.02.55.02.37.06.71.13.99l-.03-.13.15,1.3,1.17-.12c.53.02.36.07.11.13-.24.06-.56.14-.15.22.39-.05.73-.09,1.05-.12.25-.02.5-.04.73-.05.34-.02.65,0,.95.01.6.03,1.17.08,1.83-.06.51.38,1.43.36,2.39.32.48-.02.97-.06,1.43-.05.11,0,.23,0,.34.01.15,0,.29.02.42.03.38.03.75.07,1.11.13l-.22-.18c.56-.17.83.1,1.38.14-.19-.14-.83-.16-.5-.26.26,0,.52-.02.79-.03,0-.63-.02-1.26-.03-1.9v-.92s.02-.56.02-.56c.02-.74.07-1.49.12-2.24.11-1.5.26-3.01.33-4.49.05-1.14-.92-.65-.5-2.09l.33.41c-.4-2.3.01-4.71-.32-6.96.08.13.18.14.17.36.24-.46.01-1.79-.18-1.74.02-.1.18-.01.28-.03.12.02-.17-.23-.14-.31.02,0,.06.03.1.07.03.03.04.06.05.08-.03-.09.2.03.07-.23.03.02.06.03.09.03.03,0,.02,0,.16,0,.2,0,.4-.02.59-.03.38-.03.75-.05,1.08.03.44-.31,1.45.15,1.59-.29-.06.45,1.48.36,2.02.15-.18.14.47.14.26.33.61,0,1.17-.09,1.06-.32,1.12.54,2.26-.44,2.89.26,1.81-.24,3.49-.41,5.12-.51-.06.45-1.8.04-1.73.52,1.55-.19,2.44-.57,3.98-.46.4.06-.23.2-.36.27,1.55-.19,2.99.04,4.37-.2,0,.04-.15.09-.29.12.27-.01.63.07.6-.14l-.26.06c-.22-.15.05-.3.38-.44.28-.14.59-.26.66-.34-.51.59.85.15-.14.89.08-.04.26-.14.39-.27h0c-.04.17-.12.24-.27.3.11.22.33.02.32.46-.1,0-.14-.08-.25-.09.05.04.1.06.14.14.04.12.08.24.11.37.06.26.09.56.05.93-.06-.04-.14.04-.14-.18,0,.25.03.49.06.72.03.23.08.48.12.57.08.26.17.61.19.97-.16,0-.36,0-.57-.04.01-.43-.36-.14-.45-.52-.01.04-.34.07-.58.11l.3.18c-.66,0-1.24.27-1.81.14l.49-.15-1.55.07,1.01.14c-.84.19.13.47-.9.37.17-.04-.7,0-1.38-.22h0c-.29.12-.45.24-1.17.15-.38-.12-.63-.41-.88-.49.03.09-.12.14-.35.16.56.57,1.1,1.3,1.69,1.65-.22-.15-.55-.24-.57-.2l.61.35c.13.28.12.34-.13.27.39.51.46.41.54.35.08-.05.15-.1.46.44-.09-.08-.1-.02-.29-.2.2.28.43.57.66.83.21.24.37.4.55.6.36.38.71.74.98,1.17-.1.47-.63-.62-.66-.16.98,1.08,2.26,2.03,3.08,3.18l-.13-.23c.53-.19.46.97,1.11,1.36-.14-.11-.37.01-.3,0,.55.8,1.35,1.44,2.41,2.46l-.22-.05c.27.52.9,1.2,1.24,1.71.22.05.43.34.44.05.2.9,1.43,2.15,2.17,2.85.33-.49.63-.93.94-1.3.29-.35.69-.75,1.02-.92-.13.15-.21.45-.11.32l.81-1.18c-.25-.06-.23.06-.56.17,0-.23.18-.61.41-.88-.29.59.29.23.57.1-.08,0-.08-.13-.15-.16.79-.31-.28-.39.58-1l.06.12c.19-.33.29-.71.58-1,.31.04-.16.39,0,.55.35-.46.33-1.2.87-1.43-.1.24-.32.51-.42.75.6-.24.58-.34.89-.64l-.03.03.73-.66-.22.14c-.08-1,.84-1.22,1.1-2.26-.27,1,.09.28.28.53.22-.14.54-.37.53-.23.1-.51.64-.47.77-1.2.09.04.32-.37.44-.14.32-.51-.22,0-.28-.12.16-.46.59-.82,1.03-1.22.22-.2.45-.41.65-.66.1-.12.2-.25.28-.39.11-.17.25-.4.33-.6.75-1.19.54-1.39.78-1.95l.2-.24c.4-.25.34.08.32.1.38-.33.65-.63.85-.88ZM93.8,38.75c0,.07-.14.18-.35.27h-.73c.33-.09.68-.18,1.08-.27ZM86.76,39.02v-.08c.1.03.2.05.29.08h-.29ZM66,23.24c.16,0,.3-.01.38-.02-.08,0-.19.01-.38.02h0ZM65.12,23.26c.05.1,0,.2-.16.19.08-.06-.28-.12-.51-.2.19.01.43.01.67.01ZM81.6,53.88l.32-.39c0,.15-.06.36-.29.73-.02-.08-.04-.2-.03-.33ZM91.74,41.93h-.32s.4-.47.4-.47c.03.07.02.2-.08.47Z"/>
  <polygon class="cls-1" points="42.96 22.71 42.96 22.78 43.1 22.72 42.96 22.71"/>
  <path class="cls-1" d="M86.93,48.36l.41-.34c-.19.14-.31.25-.41.34Z"/>
  <path class="cls-1" d="M88.85,46.25c-.02-.06-.04-.09-.06-.12h0s.06.12.06.12Z"/>
  <path class="cls-1" d="M73.7,34.56s-.08,0-.11.01c-.26.05-.08.03.11-.01Z"/>
  <path class="cls-1" d="M70.2,38.6c.12-.05.26-.1.43-.13-.34-.02-.61-.03-.43.13Z"/>
  <polygon class="cls-1" points="58.66 34.9 58.66 34.9 58.57 34.9 58.66 34.9"/>
  <path class="cls-1" d="M71.48,38.47c-.35-.06-.63-.04-.84,0,.28.02.6.05.84,0Z"/>
  <path class="cls-1" d="M90.11,38.13s0,.03-.02.05l.15-.03h-.14Z"/>
  <path class="cls-1" d="M89.95,38.21c.07,0,.13,0,.15-.03l-.15.03Z"/>
  <path class="cls-1" d="M89.63,38.28l.32-.07c-.11,0-.25,0-.32.07Z"/>
  <path class="cls-1" d="M95.41,38.44s-.07,0-.17.04l.17-.04Z"/>
  <path class="cls-1" d="M95.41,38.44c.07.04-.27.35-.58.64-.32.3-.61.57-.6.68.28-.3,1.04-.93,1.31-1.35l-.13.03Z"/>
  <polygon class="cls-1" points="71.68 43.12 71.26 42.73 71.38 43.13 71.68 43.12"/>
  <path class="cls-1" d="M76.63,60.37l-.47.09c-.11.09-.05.28.26.24l.22-.33Z"/>
  <path class="cls-1" d="M78.74,60.33c-.35.32-.44.19-.82.56-.31.04-.53-.11-.48-.23-.11.08-.47-.07-.64.14.4.26.9.27,1.42.06.11.07,0,.16-.02.22.36-.16.77-.44.54-.75Z"/>
  <path class="cls-1" d="M82.31,60.28c-.1.02-.19.05-.27.09l.25-.04s.01-.03.02-.05Z"/>
  <path class="cls-1" d="M74.83,68.36s.03,0,.05,0c-.03-.04-.05-.05-.05,0Z"/>
  <path class="cls-1" d="M82.47,60.31h.26c-.12-.01-.2-.01-.26,0Z"/>
  <path class="cls-1" d="M74.44,81.73c-.04-.1.15-.17.13-.21,0-.02,0-.03,0-.04.02,0-.13,0-.37,0,.12.08.19.17.25.25Z"/>
  <path class="cls-1" d="M82.31,60.43c.03-.07.08-.11.16-.12-.06,0-.12.01-.18.02-.02.04-.02.08.02.11Z"/>
  <path class="cls-1" d="M50.98,94.02l-.85-.04c.24.03.55.04.85.04Z"/>
  <path class="cls-1" d="M47.61,94.02c-.15-.1-.31-.16-.48-.19-.04.02-.08.04-.1.07l.58.12Z"/>
  <path class="cls-1" d="M87.74,64.26c-.08-.61-.17.14-.29.09-.15-.43-.08-.93,0-1.48.08-.64.16-1.72.04-2.48-.19.02-.38.05-.57.09-.89.09-1.37.22-1.77.35-.28.11-.56.21-.97.29h-.31c-.17-.15.37-.31.37-.31-.59-.14-1.03-.12-1.59,0,.11-.08,0-.16-.17-.27-.45.03-.3.36-.89.21.1-.11.23-.28.45-.39-.53.09-1.05.27-1.59.36-.14-.17.33-.26.52-.37-.61.08-1.59.15-1.77.42l.39.1c-.22.01-.11-.23.05-.28.52-.21.76.09.79.19l-.39.06c.4.57,1.56-.09,2.34-.06l-.26.34h-5.48s0,0-.01,0h-.47v.08c-.44-.11-.88-.38-1.18.78l.28.86-.23.28v-.73c-.23.41-.04.67.09.97-.12.07-.2.19-.25.36l.44.85c-.18.1-.36-.38-.46.19.21.4.41-.38.54.28-.21.41-.38.29-.2.78-.12.07-.2-.03-.25-.23.14.43.06,1.14.31,1.36-.26.43.07,1.46-.37,1.41.11.14.35.76.36,1.16-.53-.72-.03,1.48-.6,1.29.47.54.21,1.93.47,2.88-.04-.05-.11-.16-.09-.24-.04.53-.18.69-.27,1.03.39.07.48.9.72,1.35-.38.65-.46-.4-.82-.19.32-.03.32,1.14.58.91-.23.5-.11.43-.44.69.49.09.08.47.38.88-.24.72-.46.19-.31.98-.15.38-.32-.33-.32-.33,0,.81.36.38.57.55.1.97-.27.45-.46.78.05.3.16.57.25.82.05.16.09.15.12.2.03.04.05.09.05.12-.06,0-.08,0-.16-.05.12.11.14.26.16.41-.19.02-.35,0-.55.23-.05-.03-.08-.06-.1-.09.13.18.12.37.11.51-.35,0-.67.23-.81,0,.22,0,.24-.09.35-.17l-.38.11c-.34-.35.52-.12.52-.38-.74.11-1.61.4-2.18.3-.12-.34,1.33-.11.57-.42l.88.13c-.67-.54.53.04-.08-.54-1.16-.1-1.29.17-2.45.07-.26.19.09.28-.17.47-1.64.34-1.29-.85-2.5-.4-.31.23-.43.66-1.29.43l.29-.38c-1.12-.04-.64.55-1.81.29.21-.15.88-.13.71-.17-.76-.3-.54.22-1.12.22l-.12-.34c-1.19.05-2.51.3-3.83.36.07-.1.3-.21,0-.31-1.67.17-3.56-.04-5.17-.24l-.61.29c-.14,0-.27-.13-.11-.19-.63-.11-.03.19-.33.3-.36.02-.47-.17-.24-.26-.41.09-.94.19-1.51.26-.18.02-.16.03-.25.05l-.2.03c-.14.02-.28.02-.39.02.01-.19.05-.39.13-.53.03.02.06.03.09.04.12-.16-.6-.53-.33-1.33l.05.16c.03-.54.04-1.09.04-1.63,0-.25,0-.5,0-.74.45.01.65.07,1.52.27.14-.21.63-.16,1.1-.14.17.01.6.02.88-.01.28-.03.45-.1.43-.25,1,.18,1.38.25,1.85.33.53.09,1.15.16,2.77.26.15,0,.27,0,.35-.02-.51-.51-1.25-1.02-1.74-1.55l.51.15c-.44-.38-.85-.73-1.23-1.04.05-.13.09-.28.11-.46l-.62-.67c.19.28.27.57.13.53-.45-.46-.84-1.05-1.13-1.56-.16-.35-.23-.65-.18-.71l-1.32-1.26c.12-.05.34.17.55.31-.85-.57.15-.34-.63-.86.02.14-.18.06-.25.09-.13-.46-.75-1.25-1.27-1.79l.26-.02c-.79-1.09-1.83-2.16-2.76-3.35.26.49-.11.62-.41.29l.15-.34c-.34-.1.19.44-.37.13-.32-.47.06-.53.34-.34l-.51-.47c.05-.09.19,0,.31-.04-.33-.1-.47-1.13-1-1.23l.05-.09c-.46-.59-.83-1.01-1.17-1.39-.17-.19-.33-.38-.51-.57-.29-.36-.6-.74-.95-1.16-.16.25-.66-.48-1.06-.63-.13-.19-.26-.38-.39-.58-.41.44-.85.9-1.3,1.38-.24.27-.49.55-.73.84l-.29.35-.21.27c-.36.69.05.32-.03.7-.24-.11-.89.75-.68.2-.77,1.05-.99,1.34-1.85,2.77.19-.08.35-.21.36-.07-.15.26-.51.47-.58.36l.03-.08c-.84,1.69-3.23,2.9-3.72,4.39l.03-.08-.73,1.38c-.47.53.11-.45-.34-.14-.35.79-.74,1.27-1.18,1.76-.66.78-1.38,1.62-1.87,2.47-.71.51-1.45,1.32-2.16,2.19,1.11.02,2.49-.04,3.71-.07.61-.01,1.19-.01,1.73,0,.27.01.54.03.78.05.14.02.27.06.39.1l-.08-.18c.37-.17.44.1.71.14-.04-.14-.4-.16-.17-.26l.71-.04.6-.02c.14,0,.29,0,.4.02-.02.2-.05.3-.09.51l-.13,1.69c-.09,1.13-.18,2.25-.24,3.36-.05,1.17.92.66.5,2.13l-.33-.42c.2,1.18.19,2.38.18,3.58,0,.6-.01,1.2,0,1.79.01.44.03.87.04,1.31.02.51.05.99.09,1.45-.08-.17-.18-.1-.17-.51-.07.29-.1.69-.1,1.1,1.07.01,2.4-.15,2.41-.29.61.02.11.18.5.28.59.14,1.25-.31,1.53-.07.04.04-.14.08-.23.1.32-.12,1.48.03,1.18-.25.86.13,1.65-.12,2.34.04.45-.31,1.48.15,1.62-.29-.06.45,1.52.36,2.06.15-.18.14.48.14.26.33.62,0,1.2-.09,1.09-.32,1.15.54,2.31-.44,2.96.26,1.85-.24,3.57-.41,5.23-.51-.06.45-1.84.04-1.77.52,1.58-.19,2.49-.57,4.06-.46.41.06-.23.2-.37.27,1.58-.19,3.05.04,4.46-.2,0,.04-.16.09-.3.12.28-.01.64.07.61-.14l-.27.06c-.44-.3,1.1-.62,1.15-.78-.47.59,1.39.15.64.89.18-.04.41-.14.37-.27.27.04.36.12.08.28.99-.11.64-.33,1.54-.33,0,.1-.18.14-.28.25.46-.19.91-.39,1.67-.3-.05.06.04.14-.18.14,1.31-.03,2.22-.52,3.66-.33-.42.43.49.14.56.52l.77-.11-.31-.18c.67,0,1.27-.27,1.85-.14l-.5.15,1.26-.07-.72-.14c.68-.19-.07-.47.82-.37-.18.04.67,0,1.03.22h0c.33-.12.68-.24,1.18-.15.13.12-.1.41-.02.49.33-.31,1.58-.09,2-.42-.14.08-.15.27-.1.31l.28-.25c.31.08.36.12.31.28.94.05-.3-.47.82-.27-.09.02-.05.06-.23.1.2.02.4.03.6.03.25,0,.49-.01.74-.02.49-.02.97-.05,1.44-.07,0-.38,0-.73.03-1.07.38-.25.09,1.3.41,1.05-.02-.59-.05-1.19-.1-1.76-.02-.32-.05-.46-.07-.66l-.07-.57c-.09-.76-.17-1.52-.12-2.24l-.04.27c-.53-.2.26-1.07.01-1.8.04.18.29.23.24.19.09-.98-.13-2.01-.3-3.5l.14.18c.12-.58.07-1.53.13-2.15-.14-.19-.11-.54-.31-.33.78-1.93-.42-3.68.23-5.39,0,.2.12.49.12.33l-.13-1.46c-.23.12-.14.19-.32.5-.14-.18-.24-.6-.24-.96.15.66.37,0,.5-.29-.07.05-.15-.05-.22-.03.41-.76-.46-.13-.19-1.17l.12.06c-.06-.39-.22-.75-.19-1.17.27-.17.12.41.34.44-.02-.59-.51-1.16-.24-1.7.07.25.08.61.15.86.31-.58.23-.65.28-1.08v.04s.14-1,.14-1l-.08.25c-.7-.74-.13-1.5-.58-2.5.43.97.25.16.55.23.08-.25.18-.64.26-.53-.24-.47.19-.78-.16-1.45.1-.03,0-.5.25-.4ZM82.85,60.86c.1.07.17.18.13.27h-.76l.62-.27ZM61.12,81.91c.16,0,.3-.01.39-.02-.08,0-.19.01-.39.02h0ZM60.22,81.93c.06.1,0,.2-.16.19.09-.06-.29-.12-.53-.2.19.01.43.01.69.01ZM87,77.4c-.07.02-.16.04-.24.02v-.52c.1.04.18.17.24.5ZM86.76,61.6v-.47h-.14c.06-.04.14-.07.26-.12.04.03.08.09.12.19-.08.15-.16.27-.24.39Z"/>
  <polygon class="cls-1" points="60.06 76.81 59.94 76.77 60.2 77 60.06 76.81"/>
  <path class="cls-1" d="M87.31,73.38s.05-.05.07-.11c-.02,0-.04.05-.07.11Z"/>
  <path class="cls-1" d="M87.37,69.6l.1-.53c-.06.23-.08.4-.1.53Z"/>
  <path class="cls-1" d="M87.51,66.69s-.09-.05-.12-.06h0s.12.06.12.06Z"/>
  <path class="cls-1" d="M66.44,93.68s-.08,0-.11.01c-.26.05-.08.03.11-.01Z"/>
  <path class="cls-1" d="M80.2,93.03c-.15.05-.29.1-.44.13.24.02.44.03.44-.13Z"/>
  <polygon class="cls-1" points="51.08 94.02 51.08 94.02 50.98 94.02 51.08 94.02"/>
  <path class="cls-1" d="M79.12,93.15c.24.06.45.04.64,0-.2-.02-.44-.05-.64,0Z"/>
  <path class="cls-1" d="M79.58,60.24s0,.03-.02.05l.16-.03h-.14Z"/>
  <path class="cls-1" d="M79.41,60.32c.07,0,.13,0,.16-.03l-.16.03Z"/>
  <path class="cls-1" d="M79.08,60.39l.33-.07c-.11,0-.25,0-.33.07Z"/>
  <path class="cls-1" d="M84.74,60.35c-.28-.02-.7-.22-1.09-.15l-.04.08c.18-.15.86.24,1.13.07Z"/>
  <path class="cls-1" d="M87.31,93.44c.03-.08.04-.16.05-.23l-.75.08.7.16Z"/>
</svg>