<?xml version="1.0" encoding="UTF-8"?>
<svg id="Layer_3" data-name="Layer 3" xmlns="http://www.w3.org/2000/svg" viewBox="0 0 126.38 116.43">
  <defs>
    <style>
      .cls-1 {
        fill: #202020;
      }
    </style>
  </defs>
  <g>
    <path class="cls-1" d="M82.25,104.35s-.02-.02-.04-.03c.03.08,0,.16-.13.22.27.05.5.25.84.11.16.09-.24.23.15.26.35-.18-.19-.46-.82-.55Z"/>
    <path class="cls-1" d="M81.66,104.64c.22-.02.34-.06.43-.1-.13-.02-.27-.01-.43.1Z"/>
    <path class="cls-1" d="M38.08,39.72c-.1.03-.21.06-.27.11.43.09.13-.07.27-.11Z"/>
    <path class="cls-1" d="M51.21,88.26l.07.82c.09-.02.21-.03.14-.22-.09-.18-.16-.39-.21-.6Z"/>
    <path class="cls-1" d="M50.68,91.3c.09-.12.19-.22.27-.36.27-.43.43-.98.34-1.46,0,.68-.22,1.31-.61,1.82Z"/>
    <path class="cls-1" d="M60.71,53.14c.01-.05.03-.1.05-.15-.02.03-.04.07-.08.11.01.01.03.03.04.04Z"/>
    <path class="cls-1" d="M51.22,84.6l.1.08c.04-.27-.28-.56-.26-.84.06,0,.09.08.17.01-.18-.05-.12-.49-.27-.6.06-.11.2-.12.27-.26l-.21-.14c-.52-.4-.06-1.07-.36-1.64.05.02.09.08.13.03-.11-.27-.18-.56-.25-.87l.51,5.95c.02-.59.09-1.18.18-1.71Z"/>
    <path class="cls-1" d="M61.71,51.66c.13-.07.11-.11.17-.22.02.02.02.04.03.06.08-.05.16-.09.24-.13,0-.02-.01-.04-.03-.05-.15-.09-.47.18-.41.34Z"/>
    <path class="cls-1" d="M66.68,91.31c0,.09.03.07.07,0,0,0,0-.02,0-.03-.02.02-.05.04-.08.03Z"/>
    <path class="cls-1" d="M66.83,91.06c-.03.07-.05.15-.07.22,0,0,0,0,0,0,.02-.06.05-.13.07-.22,0,0,0,0,0,0Z"/>
    <path class="cls-1" d="M50.33,78.05s.08,0,.11-.03c-.05,0-.08-.03-.12-.06v.1Z"/>
    <path class="cls-1" d="M49.34,66.61s0,0,.01,0c0,0,0-.02-.02-.03v.03Z"/>
    <path class="cls-1" d="M48.89,61.31l.08.96s.03.04.04.09l.15-.23c.12.02-.02.23.12.15-.02-.14-.17-.55-.14-.68-.07-.09-.16-.18-.25-.28Z"/>
    <path class="cls-1" d="M48.83,60.63v.03s.05,0,.06.03l-.06-.06Z"/>
    <path class="cls-1" d="M46.75,91.96c.06.05.1.06.13.07-.04-.02-.07-.05-.11-.07,0,0-.02,0-.03,0Z"/>
    <path class="cls-1" d="M49.62,69.81s.02-.03.03-.04c-.02-.04-.04-.11-.05-.19l.02.23Z"/>
    <path class="cls-1" d="M49.36,66.78l.02.23.05.03c.06-.2,0-.24-.07-.26Z"/>
    <path class="cls-1" d="M50.01,74.3s.01,0,.02-.02c-.02-.06-.02-.12-.04-.17l.02.19Z"/>
    <path class="cls-1" d="M49.51,68.51s.05,0,.08,0c-.04-.04-.06-.09-.09-.14v.14Z"/>
    <path class="cls-1" d="M49.55,68.97s0,0,0-.01c.02-.07,0-.12-.02-.16v.17Z"/>
    <path class="cls-1" d="M49.1,63.8l.02.24s.05-.1.02-.23c-.02,0-.03,0-.04,0Z"/>
    <path class="cls-1" d="M77.71,52c0-.09-.03-.07-.07,0,0,0,0,.02-.01.03.03-.02.05-.03.08-.02Z"/>
    <path class="cls-1" d="M79.07,92.14s-.02-.04-.03-.06c-.08.04-.17.07-.25.11,0,.02,0,.04.03.06.15.1.48-.14.44-.31-.13.06-.11.1-.19.2Z"/>
    <path class="cls-1" d="M77.54,52.24c.04-.07.06-.14.09-.22,0,0,0,0,0,0-.03.05-.06.13-.09.21,0,0,0,0,0,0Z"/>
    <path class="cls-1" d="M97.36,41.62c-.16-.85.47-.52.8-1.68-.03-.19-.03-.48-.02-.78-.41.03-.79.03-1,.02l.08-.05c-.77.15-1.68.24-2.37.11l.12-.02c-.15,0-.3-.02-.46-.04l-.24-.03-.16-.03c-.21-.04-.43-.08-.63-.07-.18.26-1.18.1-1.42.34-.05-.03.02-.05-.08-.11l-.03.22-.81-.13c.18-.09.22-.19.44-.25-.86-.15-.29.21-.75.33-.6.16-.57-.06-.86-.15.25-.11.44.05.59.01.34-.18-.37-.07-.38-.2-.13,0-.19.26-.63.21-.39-.03-1.28.05-1.17-.2-.33.13-.71.1-.96.21.31.04.88.11.95.26-.28.03-.84.1-.93,0l.23-.06c-.23.06-1.06-.02-.63.21l-.59-.31c-.22.19-.81.17-1.3.22-.02-.25.37-.53-.54-.58l-.78.25c-.41.02-.52-.03-.45-.18-1.4-.14-1.44.69-2.54.47.47-.3.08-.32-.42-.4-.02.05-.07.15-.27.16.14.14.29-.2.67,0,.12.18-.45.12-.68.18-.98-.64-3.26-.16-4.85-.46.11.36-.71.1-1.04.24.1-.37-.9.07-1.33-.16l.24.36c-.97-.21-1.58.55-2.18.11-.55-.11.19-.27.41-.33-.75-.4-2.01.32-2.61-.12-.07.15.16.39-.5.52-.53-.16-1.57-.35-1.48-.42-.43.07-.55.19-1.02.06.04-.1.25-.11.4-.15-.76-.1-1.36.06-2.02.2-.41-.28-1.73-.14-2.6-.29-.49.34-1.4-.14-1.47.31.02-.05-.09-.11-.14-.13-.32.13-.58.41-1,.44l.13-.29c.1-.37-1.17-.07-1.28-.26.35.25-.46,0-.5.22l-.48.09c-.77.08-.09.14-1.04.19-.54.02-.18-.34,0-.3-.45-.15-.91-.07-1.38,0,.17,0,.23.02.07.08-.01-.04-.06-.06-.12-.08-.17.02-.35.04-.53.05,0,0,0,0,0-.01.19-.02.37-.03.5-.04-.12-.03-.3-.03-.49-.03-.02-.02-.07-.02-.14,0-.16,0-.31-.02-.4-.06l.13-.23c-.33-.01-1.25.25-1.22.35-1.3-.19-3.45-.03-4.33.1.17-.05.19-.13.02-.05-.45.04-.96.24-1,.09-.44.09-.41-.16-1.08-.18-.01-.05-.1.23.09.2-1.14-.35-2.59.21-3.96,0,.11-.02.26-.15.37-.22-1.04.11-2.03.21-2.97.48.1-.1.07-.2.32-.26-.58,0-1.21.05-1.63.17.02,0,.05,0,.09,0,.52.2-.41.41-.89.36v-.05c-.74,0-.77.13-1.49.13-.43-.13.38-.06.2-.21-.17-.37-1.65-.23-1.8-.27-.17.08-.42.14-.39.24-.57.1-.26-.21-.65-.2l-1.46.63h-.1s-.08-.08-.14-.13c-.12-.09-.24-.19.08-.27-.9.03-1.41.21-1.73.4h-.57l.28,2.02c-.05-.1-.11-.09-.17-.05-.09.06-.19.2-.29-.06.06.18.11.45.15.7.04.24.07.51.09.8.04.57.09,1.18.12,1.65.31-.66.37,1.02.68,1.13l.09.65c-.07.2-.27.09-.28.37.3,1.11.35,2.21.54,3.23,0,0-.05.02-.08-.03.24.91.35,2.42.79,3.33v.06c-.06-.01-.12.05-.21-.17,0,.56.15.55.28.62l.09.62-.14-.16c.28.71.04,1.44.43,2.24-.1.04-.15-.14-.22-.25.15.61.24,1.29.45,1.86l.06.42c-.08,0-.16-.1-.25-.3-.03.58.23.72.35,1.05l.06.46c0,.21-.09.56-.11.44.14.22.25.77.35,1.22l.08.59c-.07.14-.08.39-.14.77.51,3.63.99,7.34,1.77,10.92l.07.51c-.26.53-.34-.87-.53-.45.31-.07.18.62.45,1.75l-.04.05c.14.48-.03.78.14,1.29l.08-.03c.28.53-.24,1.3.21,1.54l-.17.46c.44.5,0,.89.41,1.52l-.08-.07c-.03.94.66,1.84.42,2.24.13.61.28,1.29.49,1.6l.04.26c-.08,0-.18-.04-.24-.1.39,2.07.71,4.34,1.13,6.4l1.64,11.72h4.68c.43.02.85.06,1.27.08,1.33.04,2.6.02,3.76-.08h2.24c.02.06.04.12.17.1.32-.05.65-.08.98-.1h14.66l-.2.06c.33-.06.72.06.59.24l.66-.13-.03.22c1.1-.08,1.87.14,3.01-.03l-.43-.23c.34,0,.67-.09,1.01-.13h.6c.12.02.23.03.35.08-.3.08-.09.2-.08.32.15-.04.33-.13.51-.09l-.31.38c.29-.51,1.82-.19,2.12-.27l-.1.07c.99.16-.17-.21.5-.22.57.06.22.41.74.57,1.01-.01,2.74-.3,3.86,0,.9-.07,1.89-.2,2.7-.38.8,0-.04.4.77.22-.09.13.02.28.1.4.1-.15,1.51.02.86-.32.58.04,1.2.06,1.83.07h.95c.4-.01.79-.03,1.18-.04-.54.02-.71.27-.15.39.49-.14,1.14-.25,1.89-.29.04-.56.12-1.13.23-1.7-.24-.08-.3.34-.51.07-.01-.21-.08-.53-.02-.8.27-.09.67-.07.81-.96.18.16.12.51.06.87-.08.46-.14.8.1.54.13.43.05,1.63-.09,2.64-.72,0-1.4-.05-1.69-.13-1.26.35,1.11.04,1.07.38.31,0,.57-.02.81-.04.07-.93.06-1.73.23-3.24-.17-.03-.27.52-.3-.27-.22-1.07.43-1.24.48-1.49.02.15,0,.36.02.51.21-.66.01-.92.13-1.63.49-.13-.11,1.15.14,1.45l.4-.47c.2-1.09-.34-.35-.06-1.47l.15.16v-.72c-.18-.03-.45.08-.51.69-.39-.46.02-.57.06-1.54-.21-.34-.03.41-.29.4-.24.06-.16-.6-.13-1.09.11-.79.33-.37.54-.66.02.16-.03.77-.17.68.12,1.01.58-.35.67.35.25-.73-.05-.74-.08-1.15-.06.23-.24-.14-.35.02-.5-1.39.61-.76.67-2.02-.47.2-.38-1.74-.99-.91-.04-.31-.09-.7,0-1,.25.37.31-.52.51.11l.07-.45.26.73c.28-.47.59-1.28.77-1.53-.04-.67-.31.16-.28-.6.12.29.31-.16.36-.5-.21.66-.42-.05-.44-.48.09-.67.44-1.16.5-1.05l.16.68c-.15-.52.14-.2.12-.71-.15-.16-.36-.51-.54-.7-.01-.43.25-.71.23-.86l.09.7c.06-.9.48-.13.49-1.05l-.2-.27c.06-.17.18-.25.24-.06-.15-.16-.04-.67-.07-.91l.16-.04c-.05-.39-.32-.92.04-1.33-.42.31-.07.46-.33,1.09-.33.37-.17-.68-.19-.83.39.1.17-.97.24-1.43.18-.25.28-.47.38-.62l-.24-.22c.53-.1.01-.93.24-1.43.12.29.33.28.45-.08-.45.44-.36-.87-.63-.76.26-.91.45.28.75.05-.23-.5.33-1.01,0-1.37-.21.66-.23-.14-.37-.3.15-.84.15.16.37-.42,0-.36-.23-.86-.41-.33.15-.48-.13-1.09.18-1.61.27-.19-.04,1.05.18.75.19-1.17-.5-.67-.43-1.77-.19.45-.55-.06-.62-.6.27-1.19.07.54.43.13l.02-.49c.51-.61.48,1.52.91.93l-.07-.54c.1.13.29.33.43.13-.27-.17.1-1.23.04-1.34-.23-.14.01.43-.17.32.01-.57-.36-.87-.08-1.7.1.49.36-.13.47.08.16-.4-.27-.17-.05-.75l.14.09c.35-2.22.72-5,.39-7,.29-.32.42-1.03.74-2.12-.15.48-.25-.01-.25-.3l.36-.49c.25-.63.11-1.51.03-2.13.07-.1.15-.12.23-.14.27-.55-.07-.62-.1-.85l.25-.35-.18-.11c-.03-.6.13-1.36.43-1.24-.03-.24-.06-.47-.19-.19.27-.55.49-2.13.53-3.19-.15.48-.24.42-.45.44-.32-.2.1-.23-.04-.67.13,0,.32-.45.34.07.63-1.33.55-3.31.88-5.04,0-.36-.07-.26-.14-.44.25-.53.33-1.14.39-1.77.03-.31.06-.63.09-.94l.07-.46c.04-.19.08-.38.11-.57-.2.4-.52-.22-.41-1.06ZM47.89,92.47c0,.12.11.27.07.37-.07-.14-.29-.24-.07-.37ZM52.5,89.55c-.08.67-.31,1.3-.65,1.84-.68,1.08-1.79,1.85-3.14,2.09,0,0,.08-.17.26-.37.18-.21.45-.46.82-.73.26-.34.53-.65.79-.96-.48.56-1.17.94-1.96,1.01l.03.32h0s0,0,0,0h0s0,0,0,0h0s0,.02,0,.02l-.02.03s-.03.03-.05.04c-.04.02-.09.02-.15-.01.19-.03.13-.08.09-.1-.02-.01-.04-.02-.02-.02,0,0,.02,0,.05,0,.01,0,.03,0,.05.01h.03s.02.01.02.01h0s0,0,0,0h0s0,0,0,0h0s0,0,0,0l-.03-.32c-.35.03-.69-.01-1.02-.1-.18.06-.38.11-.59.13-.11-.15.19-.12.21-.26-.08-.04-.17-.07-.25-.11-.08.13-.24.06-.41.12.04.02.08.06.11.09.03,0,.05.02.08.01-.02.02-.05.01-.08-.01-.16-.01-.31-.08-.5-.23.2.05.02-.17.11-.18-.14.14-.4,0-.58-.3.04-.32-.5-.45-.6-.89.25.09.48.2.66.34-.02-.21-.1-.23-.11-.39-.01-.03-.02-.05-.03-.08-.17-.04-.42-.04-.58-.34l.14-.05c-.13-.26-.35-.28-.34-.6.03-.57-.03-1.16-.04-1.59l.15-.03c-.34-.21-.19-.79-.36-1.11.1-.57-.25-1.19-.01-1.49-.2-.96-.39-1.81-.42-2.82l.24.15c-.18-.17.12-.13.07-.3-.16.22-.25-.23-.4-.34.13-.46-.1-1.03-.29-1.41l.15-.03c-.32-.38-.11-.88-.11-1.39.06-.06.19-.17.16-.31-.27-.25-.26-.4-.45-.78-.03-.29,0-.77.06-1.07-.44-1.07-.32-2.21-.62-3.33l.17-.1c-.48-1.07-.25-2.46-.52-3.39l.31.06c.07-.3-.14-.67-.35-.57.07-.3-.21-.73.02-.94.03-.31-.17-.36-.24-.61.06-.55.02-.8-.06-1.26-.01,0-.02,0-.03,0v-.14c.02.06.02.1.03.15.07.03.17.02.18-.1-.1-.21.01-.79-.33-.55.16-.63-.29-1.41-.06-2.03-.1.06-.13-.09-.2-.15-.05-.54.1-1.12-.1-1.53.04-.09.18.12.17-.1-.05-.13-.13,0-.2-.15-.26-.85.04-1.78-.08-2.56-.31-1.39-.34-2.86-.49-4.2h.07c-.16-.2-.11-.47-.08-.73.03-.26.04-.48-.17-.77.06-.16.07-.59.2-.46-.07-.26.04-.62.21-.96.14-.3.31-.58.43-.88,0,0,0,0,0,.01.53-.5.87-1.11,1.64-1.34-.06.06-.17.15-.15.23.29-.02.5-.58.77-.3.15-.05.06-.21-.04-.16.81-.18,1.68-.21,2.52.04.84.24,1.63.75,2.17,1.48.25.61.08.69,0,.71-.09.03-.12-.02.16.38-.04.09.15.01.08.05.21.34-.25.63-.04.83.21-.11.14.14.27.12-.09.56-.28.69-.08,1.11l-.12-.02c.37.48.24,1.09.65,1.49.31,2.81.75,5.49,1.03,8.23.16,2.72.56,5.36.6,8.14-.24.67-.23.72-.05,1.42-.05-.02-.07-.07-.11-.02.25.01.07.5.31.54.04,1.02.19,1.96.28,3-.04-.16-.25-.23-.21-.03l.17.19-.07.04c.05.13.18.27.25.12.44,2.62.17,5.25.45,7.82-.05.62.12,1.48.23,2.15-.04.54-.08,1.07-.11,1.59ZM67.39,85.63c.01.14-.13-.05-.12.14-.07-.16.1-.11.12-.14ZM59.63,56c0,.08.07.07.12.1.04,0-.05.09-.07.11,0-.08-.11-.15-.05-.21ZM59.47,56.65c-.11-.12.04-.21.08-.31-.03-.03-.06-.08-.07-.16.08.06.09.11.07.16.05.05.11.06.18.05-.01,0-.02,0-.04.02-.07.23-.28.43-.41.3.02-.14.13,0,.2-.06ZM59.67,57.67c-.11-.02-.2-.36-.21-.56l.21.56ZM59.22,59.13c-.09.13-.14.09-.14-.08.06-.01.09.04.14.08ZM59.96,90.92h.11s0,.11.02.17c-.05-.05-.09-.11-.13-.17ZM66.75,91.31c-.06.22-.13.43-.35.53.08-.05-.05-.33-.18-.14-.24.33,0,.14-.2.43l-.11.2c.1.14-.32.22-.08.27-.11-.07-.51.44-.6.16l-.05-.22c-.15.09-.16.34-.26.49-.03-.01-.09-.03-.1-.07.08.33-.43.12-.6.41-.42-.02-1.06.05-1.22-.2-.31.06-.64.09-.95-.11.08,0,.17.02.22-.04-.17-.16-.24-.11-.45-.15.06-.02-.29-.38-.38-.62-.28-.1-.33.09-.42.16.02-.4-.78-.5-.71-1,.09.07.37.28.31.03.15-.38-.49-.34-.48-.83l-.22.19c.09-.23-.32-.63-.04-.64-.13-.14.04-.53-.22-.47.21-.65-.14-1.44.34-1.81-.04-.08,0-.29-.14-.25-.15.14.11.19,0,.25,0-.08-.08-.09-.12-.1.06-.18.08-.32.3-.15.16-.4-.45-.42-.35-.93.11.02.15-.02.13-.17l-.19-.29c.04-.33.25-.19.44-.2-.03-.18-.02-.4-.16-.48l.23-.22c-.17.16-.11-.15-.16-.23l.05.08c.08-.03.03-.24,0-.34-.12.02-.16.23-.2.35-.08-.09-.06-.23-.16-.35.18.04.13-.29.15-.43.04-.16-.16-.18-.16-.23.1,0,.02-.26.15-.14.03.06-.09.13,0,.22.07-.11.24-.09.12-.32-.09-.17-.36.04-.25-.27.05.08.12.1.18.16l.1-.3h-.17c.04-.05.06-.03.08-.04-.18-.09-.05-.45-.25-.52-.02-.15.12-.32.13-.46v.03c.11-.17.05-.41-.06-.55h.04c.01-.09-.01-.31-.11-.43.13-.24.63-.08.42-.35,0-.24-.31-.38-.41-.29.11-.44-.16-.94.1-1.35-.07-.06-.11-.02-.15-.15.07-.65-.2-1.36.13-1.88.07.19.17.01.26,0-.15-.15.16-.19-.1-.24-.15.02-.22,0-.29.18-.08-.39-.08-.97.06-1.18-.07.11-.12.02-.16-.06.24.03.28-.26.19-.47l-.15-.03.15-.14c-.05-.08-.31-.09-.17-.3.06-.01.11-.02.16-.06-.12-.22-.32-.54-.2-.78l.21-.2c-.02-.1-.15-.28-.21-.1.13-.41.15-.68.33-.81-.45-.71-.47-1.74-.44-2.56l.11.02c.1-.22-.19-.11-.12-.27.1.07.23-.17.36,0,.12-.32-.19-.41-.24-.61-.14-.03.09.17-.09.13-.05-.04.11-.44-.11-.49.09-.08.25-.02.33.03l-.11-.19c.25-.24.46.54.77.29l-.03-.18c.23-.17.26.47.34.02-.11-.19-.42-.36-.52-.19-.06-.4-.52-.19-.5-.62.13-.12.03.35.21.26.18-.21-.1-.41-.04-.59-.08.2-.3.03-.34-.1.1-.22.21.14.23-.17-.13-.05-.22-.34-.31-.09-.29-.11.08-.33-.14-.5.2-.1.46.32.56-.02-.19.05-.26-.43-.55-.24.06-.14.21-.15.33-.05.12-.19-.35-.47.03-.53l-.2-.07c.06-.06.11-.15.22-.25,0-.17-.27-.55.03-.53-.03-.05-.02-.44-.22-.29-.13.24.15.28-.13.41.23-.17-.03-.35-.11-.49l.12-.02c-.04-.08-.02-.27-.14-.33.07.06.14.03.17-.04l-.18-.09c-.09-.34.31-.08.26-.41l.14.25c-.03-.05.13-.17.08-.32-.16-.06-.35-.18-.48-.23-.07-.18.18-.08.02-.26l.19.24c.05.04.27-.16.26-.41-.06-.16-.29-.4-.38-.15,0-.12.1-.3.21-.2-.06-.28-.17.04-.27-.21.11-.1.26-.41.41-.59l.27.25v-.17c.22.22.17-.11.39.01.04-.11-.04-.25-.1-.36-.36.34-.5-.38-.83-.28-.09-.46.81-.29.29-.77-.09.08-.34-.15-.24.14.04-.29-.33-.19-.19-.53.14.25.34-.27.53.09-.11-.02-.08.2-.05.26.13-.12.33.02.33-.27-.03-.18-.04-.42-.21-.39-.19,0,.02.27-.17.16-.07-.36.22-.42-.11-.56.03.23-.17.28-.3.28l-.08-.26.13.05c.09-.42-.23-.12-.19-.53l.25-.19c.21.1-.1.59.25.52.01-.26-.16-.35-.07-.6.03.06.04.13.07.19.01-.09.47-.19.2-.57-.11-.19-.12-.05-.25-.06-.04-.42-.17-.55-.19-.82.26.06.02-.48.29-.18-.15.14-.14.75.11.9.3-.15-.04.33.26.42,0-.34.3-.32.5-.38.01-.09-.07-.19-.1-.24-.18-.04-.18.08-.37.09.05-.38-.05-.75-.23-.95.09-.13.27-.09.29.06-.05-.45-.03-.93.03-1.36-.26.24-.13-.28-.24-.32.1-.03.2-.07.31-.04-.13-.3.17.01.17-.28-.13-.3-.23-.66-.28-.99.11-.21.11-.47.08-.73-.02-.13-.04-.25-.05-.37-.01-.13-.02-.27-.02-.38.15-.22.39-.03.47-.24.06-.26-.33.14-.11-.23l.04.05c-.05-.16.4-.61.14-.9.06.08.13.17.19.25.05-.05.03-.14.04-.21.08.04.2.02.19.15.05-.02.09-.05.12-.08.03-.05.07-.1.1-.14.06-.13.09-.27.19-.39h-.24c.22-.43.58-.5.93-.75l.07.15.19-.2c.01.17.25.19.33.02-.04.05-.06.1-.09.14.31-.11.64-.19.99-.19h0c1.51,0,2.75,1.16,2.9,2.63.04.14.07.27.11.41,0,.05-.03.06-.08.06v.82c.1.59.09,1.27,0,1.96v5.97c.1.76.09,1.59.17,2.36-.04-.03-.11-.04-.17-.04v.1c.12.12.16.37.2.6-.22.13.2.5.08.83l-.05-.03c.23.25-.13.37.14.57l-.17.16c.31.11-.16.36,0,.57h.06c.08.19-.08.29-.03.47l-.04.02c.08.42-.09.67.15.66-.19.14-.1-.37-.34-.19v.19c.21,1.34.18,2.71.18,4.06-.08.13-.12.21-.18.26v.23c.02.17.05.38.13.46,0-.05-.11.08-.13.15v.17c.06.12.23.19.15.4-.04-.08-.1-.11-.15-.11v.14c.09.22.09.47.14.7-.04-.04-.06-.11-.14-.1.21.31-.05.56.09.83l-.09-.07v.23c.09.03.2.03.14.24-.04-.08-.09-.06-.14-.07v.03c.23.35.16.9.24,1.24-.02-.02-.06-.02-.06-.02.03.38-.05.78.06,1.2-.04.1-.18.05-.25.12v.25c.22.06.09.66.39.44-.05.35-.15.89-.06,1.12-.09-.13-.26.07-.33-.02v.96c.14.18.27.37.3.64-.08-.15-.22,0-.3,0v.03l.48.54c.01.14-.22.03-.15.24.07-.01.12.08.18.14-.03.05.07.6-.2.66-.11.06-.06-.23-.16-.08,0,.27.1.28.1.54h-.04c-.04.18.12.52.27.33,0-.12-.16.05-.09-.13.16.12.2.43.21.7-.04-.09-.12-.08-.19-.12.21.34.28.71.36,1.09.03.03.05.04.01.04,0-.01,0-.03-.01-.04-.07-.05-.2-.13-.16-.16-.18.51.26,1.05,0,1.48-.02-.07.18-.04.15-.03-.02.25-.21.23-.14.4-.11.02.04.2.07.37.06.06,0,.05-.04,0,.04.14.09.37.12.64.04.28.02.82-.14,1.11.08,0,.16.48.08.63l-.14-.12s-.08.09-.11.16c0,.03-.01.06-.03.06-.04.08-.08.15-.12.19,0,.01-.01.02-.02.03ZM59.15,62.42c0,.08.1.24-.02.31.08-.08-.14-.37.02-.31ZM59.32,64.02c-.05.09-.13,0-.14-.08l.14-.04s-.03.07,0,.12ZM59.47,59.24c0,.12-.06.18-.12.24.09,0-.06-.28.12-.24ZM66.73,79.46l-.22-.02.22-.03v.05ZM66.91,103.23s-.04-.05-.05-.07h.76s0,.06.01.09c.15-.04.23-.07.32-.09h.37c-.2.2-1.17.26-1.42.07ZM73.25,103.21c-.12-.03-.2-.04-.28-.05h.34s-.04.03-.06.05ZM84.37,52.97h-.11c0-.06,0-.12,0-.18.04.06.08.12.11.18ZM76.64,57.47c.06.16-.11.1-.13.13,0-.14.13.06.13-.13ZM81.7,87.79c0-.08-.06-.07-.11-.11-.04-.01.06-.08.08-.1,0,.08.1.16.03.21ZM81.92,87.16c.1.13-.06.2-.11.3.03.03.05.08.06.16-.08-.07-.08-.12-.06-.16-.04-.06-.1-.07-.17-.06.01,0,.02,0,.04-.01.09-.22.32-.4.44-.26-.03.14-.13-.02-.2.04ZM81.8,86.12c.11.03.16.38.16.57l-.16-.57ZM82.51,84.79c-.06,0-.08-.05-.13-.09.1-.12.15-.08.13.09ZM82.73,81.44c0-.08-.08-.25.05-.31-.09.07.11.38-.05.31ZM84.22,56.26c.16-.13-.09-.2.02-.25,0,.08.07.1.11.11-.08.18-.11.32-.31.13-.2.39.42.45.27.96-.11-.03-.15,0-.15.15l.16.3c-.07.33-.27.17-.45.16.02.18-.01.4.12.49l-.25.2c.18-.14.1.16.14.24l-.04-.09c-.08.03-.05.23-.04.34.12-.01.18-.22.23-.33.07.1.04.24.13.37-.18-.06-.15.28-.19.42-.05.16.15.2.14.24-.1,0-.04.26-.16.12-.03-.06.1-.12.03-.22-.08.1-.24.07-.14.31.08.17.36-.01.22.29-.04-.09-.11-.11-.17-.18l-.12.29.17.03s-.06,0-.08.02c.17.1.01.46.21.54,0,.15-.14.3-.17.45v-.03c-.12.17-.08.4.02.56h-.04c-.02.08-.01.31.07.44-.15.23-.64.03-.45.31-.02.24.27.41.39.32-.15.43.08.95-.21,1.33.06.07.11.03.14.17-.12.64.08,1.38-.29,1.86-.05-.19-.17-.03-.26-.03.14.17-.17.17.08.25.15,0,.22.02.3-.16.05.39,0,.97-.16,1.18.08-.1.12-.01.16.07-.24-.05-.3.23-.23.45l.14.04-.16.13c.04.09.3.12.14.32-.06,0-.12.01-.16.05.1.23.28.56.13.79l-.23.18c.01.1.13.29.21.11-.16.4-.2.66-.4.78.39.75.32,1.77.22,2.59l-.11-.03c-.12.21.18.13.09.28-.1-.08-.24.15-.35-.04-.14.31.15.42.19.63.14.04-.08-.17.1-.12.05.04-.15.43.06.49-.09.07-.25,0-.33-.05l.09.2c-.27.21-.41-.58-.74-.36l.02.18c-.24.15-.22-.49-.33-.05.09.2.39.4.5.23.03.41.5.23.45.66-.14.11,0-.35-.19-.28-.19.19.06.42-.01.59.1-.19.3,0,.33.13-.12.21-.19-.16-.24.15.12.06.19.36.3.12.27.14-.11.32.1.51-.21.08-.44-.36-.56-.03.2-.04.23.45.53.29-.07.13-.22.13-.33.02-.14.18.31.5-.08.53l.19.08c-.07.05-.12.14-.24.23-.02.17.22.57-.08.53.03.06-.02.44.2.31.15-.23-.13-.29.16-.4-.24.15,0,.35.06.49h-.12c.04.1,0,.29.12.35-.06-.07-.14-.04-.18.02l.17.1c.06.34-.31.05-.29.38l-.11-.26c.02.06-.15.15-.11.32.15.07.34.21.46.27.05.19-.19.07-.04.26l-.17-.25s-.28.14-.29.38c.04.16.25.43.36.19,0,.12-.12.29-.23.18.03.28.17-.02.25.23-.11.09-.29.38-.46.56l-.25-.28-.02.17c-.2-.24-.17.1-.39-.05-.05.11.02.26.07.37.39-.3.46.42.8.35.05.47-.83.22-.35.74.09-.07.32.18.25-.12-.06.28.31.22.15.55-.11-.26-.36.24-.52-.14.11.03.1-.19.07-.25-.14.11-.33-.05-.35.24.02.18,0,.43.18.4.19,0,0-.27.18-.14.04.36-.26.39.06.57,0-.23.19-.27.32-.25l.06.27-.12-.06c-.13.41.22.14.15.55l-.26.17c-.21-.11.15-.58-.21-.54-.04.26.13.36.02.6-.03-.06-.03-.13-.05-.19-.02.09-.49.15-.25.55.09.2.12.06.25.08,0,.43.12.56.12.84-.25-.08-.07.48-.3.16.16-.13.2-.74-.03-.91-.31.13.07-.33-.23-.45-.04.34-.33.3-.53.33-.02.09.05.19.08.25.18.06.19-.07.38-.06-.08.37-.01.75.15.97-.1.12-.28.06-.28-.09.02.45-.05.93-.14,1.36.28-.22.1.29.21.34-.1.02-.21.05-.31,0,.11.31-.17-.03-.19.27.1.31.18.68.2,1.01-.13.2-.15.46-.15.72,0,.13.01.26.02.38,0,.13,0,.27-.02.38-.17.2-.39,0-.49.2-.08.26.34-.11.09.24l-.04-.05c.04.16-.45.57-.22.88-.05-.09-.11-.18-.17-.26-.06.05-.04.14-.06.21-.08-.05-.19-.04-.18-.16-.06.01-.09.04-.13.07-.04.05-.07.09-.11.13-.07.12-.11.26-.22.37h.24c-.25.43-.62.47-.99.69l-.05-.16-.2.18c0-.17-.24-.21-.33-.04.04-.04.06-.09.1-.13-.32.09-.66.13-1,.1h0c-1.5-.13-2.64-1.39-2.67-2.87-.02-.14-.05-.28-.07-.42,0-.05.04-.05.08-.06l.07-.82c-.05-.6.02-1.28.17-1.95l.51-5.95c-.03-.77.04-1.6.03-2.37.04.03.1.05.17.06v-.1c-.1-.13-.12-.39-.14-.62.23-.11-.16-.51,0-.84l.05.03c-.21-.27.16-.36-.09-.58l.18-.14c-.3-.14.19-.35.05-.57h-.06c-.06-.2.1-.29.07-.47h.04c-.04-.44.15-.67-.09-.68.2-.13.06.38.33.22l.02-.19c-.1-1.35.06-2.72.17-4.06.09-.13.14-.2.2-.25l.02-.23c0-.17-.01-.38-.09-.47,0,.05.12-.07.14-.14v-.17c-.03-.13-.2-.21-.1-.41.04.08.09.11.14.12v-.14c-.06-.22-.04-.47-.07-.71.04.05.05.12.13.11-.19-.33.09-.56-.02-.84l.08.07.02-.23c-.08-.04-.19-.05-.12-.25.03.09.08.07.13.09v-.03c-.2-.37-.08-.91-.13-1.26.02.02.06.02.06.02,0-.38.11-.78.04-1.2.05-.1.18-.03.26-.1l.02-.25c-.21-.08-.04-.67-.35-.47.08-.34.23-.88.15-1.11.08.14.27-.04.33.08l.08-.98c-.12-.19-.24-.39-.24-.67.07.16.21.03.3.02v-.03s-.42-.58-.42-.58c0-.14.22-.01.17-.23-.07,0-.11-.09-.17-.16.04-.05-.02-.6.26-.64.11-.05.04.24.15.09.02-.26-.07-.28-.05-.55h.04c.06-.17-.07-.53-.24-.35-.02.12.17-.03.07.14-.15-.14-.17-.45-.15-.71.04.09.11.09.18.13-.18-.36-.22-.73-.27-1.12-.03-.03-.05-.05,0-.04,0,.01,0,.03,0,.04.06.05.19.14.14.18.22-.49-.16-1.07.13-1.47.02.07-.19.02-.15.02.04-.24.22-.22.17-.38.11,0-.02-.2-.04-.37-.05-.07,0-.05.04.01-.03-.15-.06-.38-.06-.64-.02-.28.05-.82.23-1.09-.08,0-.11-.49-.02-.63l.13.13s.09-.09.13-.15c0-.03.02-.05.03-.05.04-.07.09-.14.13-.18,0-.01.01-.02.02-.03.08-.21.16-.42.39-.5-.08.05.02.34.16.16.27-.31.02-.14.24-.41l.13-.19c-.09-.15.34-.2.1-.27.11.08.54-.39.62-.11l.03.22c.15-.08.18-.32.3-.46.03.01.09.04.09.08-.06-.34.44-.09.64-.35.42.06,1.06.04,1.2.3.32-.04.64-.03.94.19-.08,0-.17-.04-.22.02.16.18.23.13.44.19-.06.01.26.4.33.65.27.12.33-.06.43-.12-.05.39.73.57.62,1.06-.09-.08-.34-.31-.3-.06-.18.36.45.38.41.87l.24-.17c-.11.23.27.66-.02.64.12.15-.08.53.18.49-.27.63.01,1.45-.49,1.78.04.09-.03.29.11.26ZM82.7,79.83c.06-.08.13.02.13.09l-.14.03s.03-.06,0-.12ZM82.28,84.35c-.09,0,.03.29-.14.23,0-.12.08-.18.14-.23ZM76.64,63.85v-.05s.22.04.22.04h-.22Z"/>
    <path class="cls-1" d="M80.32,90.69s.05-.06.09-.1c0-.01-.02-.03-.03-.04-.02.05-.04.1-.06.14Z"/>
    <path class="cls-1" d="M54.42,39.36s-.04,0-.07,0c0,0,.01,0,.02,0,.02,0,.03,0,.05,0Z"/>
    <path class="cls-1" d="M90.8,95.44c.02-.06.03-.15.02-.32-.03.14-.03.23-.02.32Z"/>
    <path class="cls-1" d="M42.35,39.33s.08,0,.12-.01c0-.06-.05-.04-.12.01Z"/>
    <path class="cls-1" d="M81.42,104.27c-.1.07-.06.15-.27.16.16.09.36-.05.56-.06-.05-.03-.27-.14-.29-.09Z"/>
    <path class="cls-1" d="M85.71,104.37l-1.52.28c.54-.02,1.46-.13,1.52-.28Z"/>
    <path class="cls-1" d="M89.99,101.84c.04.19.04.49.13.45.06-.43.09-.74.06-.76-.03-.04-.08-.02-.19.31Z"/>
    <path class="cls-1" d="M89.92,100.82c-.09.13-.17.28-.21.56.19.12.16-.37.21-.56Z"/>
    <path class="cls-1" d="M91.34,92.86c.19.19,0-.64.15-.84-.19.17-.13.63-.15.84Z"/>
    <path class="cls-1" d="M91.72,88.51c.02.16-.01.2-.04.33l.2-.09c.01-.2-.06-.47-.16-.24Z"/>
    <polygon class="cls-1" points="72.66 39.18 72.22 39.25 72.59 39.33 72.66 39.18"/>
    <path class="cls-1" d="M40.11,39.26c-.52.02.02-.17-.37-.16.07.02-.06.25.37.16Z"/>
    <polygon class="cls-1" points="29.76 46.66 29.78 46.79 30.06 46.66 29.76 46.66"/>
  </g>
  <g>
    <path class="cls-1" d="M33.06,37.13s.03,0,.05,0c0,0,0,0,0,0-.02,0-.03,0-.05,0Z"/>
    <path class="cls-1" d="M44.46,36.77s0,0,0,0c0,0,0,0,0,0Z"/>
    <path class="cls-1" d="M87.09,23.25s.01.04.02.05c0-.01,0-.03-.02-.05Z"/>
    <path class="cls-1" d="M87.18,23.02c-.19-.05-.35-.25-.58-.11-.11-.09.17-.23-.11-.26-.24.18.13.46.57.55.02.02.02.03.03.05-.03-.09-.01-.17.09-.24Z"/>
    <path class="cls-1" d="M44.46,36.77c.07-.03.14-.06.19-.11-.3-.09-.09.07-.19.11Z"/>
    <path class="cls-1" d="M87.48,22.92c-.15.02-.24.06-.3.1.09.02.19.01.3-.1Z"/>
    <path class="cls-1" d="M100.58,33.34c-.05-.22-.08-.45-.1-.68v-8.26h-1.96l.28-.13c-.24.18-.66.04-.55-.17l-.46.13.02-.22c-.77.08-1.3-.15-2.1.03l.3.23c-.23,0-.47.09-.7.13h-.42c-.08-.02-.16-.03-.24-.08.21-.08.06-.2.05-.32-.11.04-.23.13-.36.09l.21-.38c-.21.51-1.27.19-1.47.27l.07-.07c-.69-.16.12.21-.35.22-.4-.06-.15-.41-.52-.57-.7.01-1.91.3-2.69,0-.63.07-1.32.2-1.88.38-.56,0,.03-.4-.53-.22.06-.14-.02-.28-.07-.41-.06.15-1.05-.02-.6.32-.81-.07-1.73-.11-2.59-.03.29-.02.36-.27.12-.39-.4.24-1.09.37-1.81.31.01.25.25.25.17.49-.11.04-.28.15-.46.13-.1-.26-.07-.66-.72-.67.17-.41,1.1.05.81-.35.29-.32,1.45-.34,1.71-.14.57-.35-.45-.04-.34-.38-.52.03-.76.2-1.57.26,0,.17.26.2-.11.34-.72.36-.89-.26-1.07-.27.1-.04.25-.05.35-.09-.29-.07-.47-.01-.68.04,0-.06,0-.12-.01-.18.22.01.46.02.54-.1l-.36-.33c-.14,0-.22,0-.29.02-.04-.07-.08-.15-.14-.22l.2.08c.03-.49.03-1.35.13-1.82.06-.32-.24-.32-.35-.57h.2c-.12-.27-.39-.35-.6-.45v-.12c.04-.12-.03-.18.09-.35.11.21.33.38.61.52.09-.34-.43-.68-.12-.88.08-.29,0-.52-.28-.54.09.06.16-.19.28-.03,0-.2-.04-.33-.14-.46,0,.04-.03.09-.02.13-.18-.09-.21-.25-.41-.26v-.26c.18-.01.3.23.42.08l-.42-.46v-.99c0-1.1-.9-2-2-2h-1.02c.46-.11.94-.08,1.42,0,.6.17,1.03.49,1.65.8.32.35.63.64.9.85.26.21.47.33.47.33-.16-1.65-1.31-2.95-2.81-3.32-.19-.05-.38-.08-.57-.1l-.36-.05c-.23-.04-.45-.08-.68-.12-.46-.1-.92-.2-1.39-.3-.64.07-1.48.19-2.07.06-2.48.08-4.97-.58-7.5-.29.13.11,0,.27-.14.32l-.03-.09-.2.21c-.19.02-.11-.25.05-.28-1.01,0-1.91.09-2.89.03-.07.31-.51.02-.55.34-.05-.06,0-.08.02-.14-.68.16-.73.17-1.35-.23-2.65-.26-5.2-.04-7.81-.13-.66.01-1.32.04-1.97.08l-.49.03c-.24,0-.61.03-.9.09-.61.13-1.18.4-1.66.78-.96.76-1.5,1.99-1.44,3.2.03.68.06,1.37.1,2.06.5.41.27.98.7,1.47l-.15-.03c.22.42-.04.53-.23,1.06.18,0,.05.2.34.13.25.22-.41.24-.28.72-.1.03.17-.03.08.07.18.5.14.45.02.47-.12.02-.32.06-.46.89,0,.17.02.32.04.48-.93-.21-2.09.04-3.15-.04-.25.05-.17.11-.29.2-.77-.35-1.72.02-2.56-.13.19.14-.08.54-.54.55-.51.28-.2-.39-.66-.56-.23.13-.66.17-.84.15l.02-.05c-.28.15-.72.24-1.05.11l.05-.02c-.27-.03-.59-.2-.87-.18-.13.26-.82.1-.99.34-.04-.03.02-.05-.06-.11l-.02.22-.56-.13c.12-.09.15-.19.31-.25-.6-.15-.2.21-.52.33-.42.16-.4-.06-.6-.15.17-.11.31.05.41.01.24-.18-.25-.07-.26-.2-.09,0-.13.26-.44.21-.27-.03-.89.05-.82-.2-.23.13-.5.1-.67.21.22.04.62.11.66.26-.2.03-.59.1-.65,0l.16-.06c-.16.06-.74-.02-.44.21l-.41-.31c-.15.19-.57.17-.9.22-.02-.25.26-.53-.37-.58l-.54.25c-.29.02-.36-.03-.32-.18-.13-.02-.21-.02-.34-.01-.15,0-.28.03-.39.06-.23.05-.39.14-.52.22-.28.16-.44.31-1.02.2.26-.3-.12-.32-.72-.4.02.05.05.15-.15.16.25.14.13-.2.68,0,.24.18-.36.12-.53.18-.13-.06-.27-.1-.43-.14-.42.67-.04,3.51-.31,4.14.36-.08.1.5.24.72-.37-.07.07.63-.16.93l.36-.17c-.21.68.55,1.1.11,1.52-.11.38-.27-.13-.33-.29-.4.53.32,1.4-.12,1.82.15.05.39-.11.52.35-.16.37-.35,1.1-.42,1.03.04.15.08.25.11.35.02.08.02.22-.05.47-.1-.02-.11-.28-.15-.39-.1.77.06,1.45.2,2.01-.14.3-.17.8-.19,1.36.5.02,1.06.02,1.48.1.36-.17.69-.14,1.01-.12.31.02.58.03.62-.19-.02.05.08.11.14.13.27-.13.42-.41.72-.44l-.09.29c-.07.37.81.07.89.26-.25-.25.32,0,.35-.22l.34-.09c.54-.08.06-.14.73-.19.38-.02.13.34,0,.3.32.15.64.07.96,0-.12,0-.16-.02-.05-.08,0,.04.05.06.09.07.12-.02.24-.04.36-.04,0,0,0,0,0,.01-.13.02-.25.03-.34.04.09.03.21.03.34.03.01.01.05.01.09,0,.11,0,.22.02.29.06l-.09.23c.23.01.87-.25.85-.35.91.19,2.41.03,3.02-.1-.12.05-.13.13-.02.05.31-.04.67-.24.7-.09.3-.09.28.16.75.18,0,.05.07-.23-.06-.2.79.35,1.8-.21,2.76,0-.08.02-.18.15-.26.22.73-.11,1.42-.21,2.07-.48-.07.1-.05.2-.22.26.4,0,.85-.05,1.13-.17-.01,0-.03,0-.06,0-.36-.2.29-.41.62-.36v.05c.51,0,.54-.13,1.04-.13.3.13-.26.06-.14.21.12.37,1.15.23,1.25.27.12-.08.29-.14.27-.24.39-.1.18.21.45.2l1.02-.63h.06c.04.11.31.29.02.4.52-.03.89-.21,1.22-.4h1.82c-.17.1.2.33-.05.44.44-.13,1.48.01,2.13.07-.43-.39.71-.23.83-.52h.47c.13.1.03.27.23.33.8-.15,1.56-.04,2.28-.08,0,0,.01.05-.03.08.65-.11,1.69-.01,2.36-.32h.05c-.02.07.02.13-.14.19.39.07.4-.07.45-.19h.44l-.12.12c.51-.18,1,.16,1.59-.12.02.1-.11.13-.19.19.44-.07.91-.06,1.32-.19h.27c-.01.07-.07.14-.21.2.39.11.52-.12.76-.2h.32c.14.03.38.17.29.17.17-.11.56-.14.88-.17h.43c.09.08.25.13.5.24,2.55,0,5.16.04,7.71-.24h.36c.34.33-.64.21-.36.46-.02-.32.45-.09,1.25-.2l.03.05c.34-.07.54.14.91.04v-.08c.38-.21.86.41,1.07,0l.3.23c.39-.37.62.11,1.09-.19l-.05.06c.64.16,1.34-.4,1.58-.11.43-.04.91-.1,1.14-.26h.2c0,.08-.04.17-.09.23,1.46-.1,3.03-.1,4.49-.23h11.43c.87.07,1.75.12,2.61.09-.01-.45-.04-.88-.09-1.28v-1.5c.06-.01.12-.03.1-.12ZM72.01,22.38c-.1.17-.32.42-.43.64-.3.07-.51-.15-.61-.11l.47-.18c-.62.07-.13-.46-.77-.34l-.17.23c-.13-.04-.19-.14-.07-.23-.1.17-.46.13-.62.19l-.04-.15c-.27.1-.6.44-.93.14.26.37.32,0,.78.17.28.28-.45.26-.56.3.03-.4-.69-.04-1.01-.04-.19-.14-.35-.21-.47-.29l-.13.26c-.12-.51-.64.12-1.01-.04.19-.16.16-.36-.1-.44.35.38-.56.48-.46.73-.65-.13.15-.49-.04-.75-.32.3-.73-.19-.94.19.47.12-.07.24-.17.41-.59-.03.1-.17-.32-.3-.25.05-.57.35-.19.46-.35-.08-.74.28-1.13.05-.16-.24.73-.11.5-.28-.83-.02-.41.59-1.18.67.33.13.01.55-.36.69-.85-.1.37-.14.05-.45l-.34.05c-.47-.42,1-.69.55-1.03l-.37.14c.08-.12.2-.33.05-.45-.09.29-.86.07-.93.14-.08.24.3-.07.24.12-.39.07-.57.47-1.17.32.33-.17-.13-.34.01-.47-.29-.1-.09.29-.51.15l.05-.15c-1.41-.04-3.14-.02-4.46.43v-.18c-.02-.08-.04-.15-.09-.22.19.08.14-.21.23-.31-.28-.17-.23-.41-.16-.65.07-.23.17-.56-.02-.54h.1c-.02-.14.08-.28.21-.36.06-.04.13-.07.21-.1.03,0,.02-.01.08-.02l.26-.03c.17-.02.34-.05.51-.08.76-.06,1.62.44,2.45.19.15-.07.03-.2.16-.25.21.01,0,.17.08.24.41-.23.95.04,1.47.04.06-.09.21-.11.16-.25.57.38,1.35-.13,1.94.15-.2-.49.35-.26.55-.38.12.02.12.15.08.24.44-.06.68-.08,1.2.06.24-.05.31-.32.6-.24.18.34.61.01.89.14-.07-.29.29-.52.58-.4l-.09.41c.91-.26,2.22.2,3.28-.31l.08.24c.55-.14,1.09-.13,1.63-.15.69-.02.67-.08,1.05-.15.07.18.13.38.19.47.26.05.26.13.61.23.04.1-.16.27-.24.35-.05.5-.25,1.18-.17,1.6-.08.04-.16.07-.23.09-.47,0-.84-.28-.77-.35l.45-.26c-.35.22-.15-.12-.5-.02ZM74.89,23.74c.24-.09.46-.17.35-.33.12-.03.12.09.14.15,0,0,0,0,0,.01,0,.01.01.03.03.03,0,.01.02.02.03.03-.07.06-.13.13-.2.19-.14.04-.27.06-.4.04.04-.05.05-.09.05-.13ZM97.76,24.33s.03.05.03.07h-.55s.02-.05,0-.09c-.1.04-.16.07-.22.09h-.25c.14-.2.81-.25.98-.07ZM93.54,24.39h-.24s.03-.03.04-.05c.08.03.14.04.2.05ZM79.65,18.49v-.21c.03.07.03.14,0,.21ZM79.66,17.55s0,0-.01,0v-.13s.03.07.01.14ZM76.22,13.68h-.79c.21-.05.41-.11.59-.21.19-.07.19.1.2.21ZM68.64,13.62c.58-.33,1.18.35,1.6-.29l.15-.27c.14.1.12.29.23.38.11-.18.52-.05.59-.29.06.11-.03.14-.02.22.26.05.57-.34.82-.25l-.08.12c.5.18,1.06.33,1.62.43h-5.72c.3-.05.58-.12.85-.23.05.06-.01.11-.04.17ZM65.58,13.53s.02.1.02.15h-.09s.06-.09.07-.15ZM61.99,13.65s0,.02.01.03h-.18c.06-.01.11-.02.17-.03ZM57.68,13.68h-.22c.07-.01.14-.03.18-.05,0,.02.02.03.03.05ZM56.86,13.67s0,0,0,0h-.16s.09-.04.15,0ZM56.43,13.68h-.14s.1-.06.14-.1c.01.04,0,.07,0,.1ZM55.02,13.61l-.03.07h-.22c.02-.1.07-.17.26-.07ZM54.61,13.68h-.03s.02,0,.03-.02c0,0,0,.01,0,.02ZM52.13,13.68h-.23s.01-.03.01-.05c.13-.02.18,0,.22.05ZM50.46,13.27c.07.19-.12-.01-.15.14l.21.22s-.05.03-.07.04h-.34c-.21,0-.41.04-.59.1.06-.13.12-.26.21-.37.13.02.61-.12.73-.14ZM48.96,14.05s-.01.01-.02.02c0-.03,0-.06,0-.1-.02.03,0,.06.02.08ZM33.95,37.02c.08-.03.16-.04.22-.03-.06,0-.14.02-.22.03Z"/>
    <path class="cls-1" d="M41.48,37.17s-.06,0-.08.01c0,.06.03.04.08-.01Z"/>
    <path class="cls-1" d="M87.64,23.28c.07-.07.04-.15.19-.16-.11-.09-.25.05-.39.06.04.03.19.14.2.09Z"/>
    <path class="cls-1" d="M84.66,23.18l1.06-.28c-.38.02-1.02.13-1.06.28Z"/>
    <path class="cls-1" d="M81.88,22.58c.07-.07.17-.11.15-.19-.32,0-.39.06-.15.19Z"/>
    <path class="cls-1" d="M81.22,22.75c.11.08.23.17.46.17.08-.24-.45-.04-.46-.17Z"/>
    <path class="cls-1" d="M72.84,22.71l-.08-.18c-.14.01-.32.12-.15.19.11-.04.14-.01.23,0Z"/>
    <polygon class="cls-1" points="25.91 29.41 25.98 29.72 26.05 29.46 25.91 29.41"/>
    <path class="cls-1" d="M43.04,37.23c.36-.02-.01.17.26.16-.05-.02.04-.25-.26-.16Z"/>
    <polygon class="cls-1" points="55.02 36.51 55.11 36.5 55.05 36.21 55.02 36.51"/>
    <path class="cls-1" d="M80.07,15.68c-.14.38.05-.11.11.21.09-.1,0-.16-.11-.21Z"/>
    <path class="cls-1" d="M80.04,17.38s.02.04.04.06c0-.03,0-.06-.04-.06Z"/>
    <path class="cls-1" d="M63.44,20.72s0-.03.01-.04c-.05,0-.09.01-.15.02l.14.03Z"/>
    <path class="cls-1" d="M80.22,16.26c-.15-.02-.32.09-.47.11.22.18.31-.04.47-.11Z"/>
  </g>
</svg>