<?xml version="1.0" encoding="UTF-8"?>
<svg id="Layer_3" data-name="Layer 3" xmlns="http://www.w3.org/2000/svg" viewBox="0 0 300 300">
  <defs>
    <style>
      .cls-1 {
        fill: #202020;
      }
    </style>
  </defs>
  <g>
    <path class="cls-1" d="M133.45,140.2c.13.19.51-.1.23.12-.23-.03-.41-.06-.23-.12Z"/>
    <path class="cls-1" d="M160.36,146.43c-1.55-.56,0-1.41-1.04-2.01-.07-.07.84-.04.62-.2-1.25-.54-.6-1.57.16-2.49h.24c.15-.16-.66-.23-.57-.4.15-.03.23.02.43-.05-.47.03-.26-.25-.62-.26.17-.09.54-.15.73-.27h-.54c-1.29-.02-.01-.62-.74-.83.13,0,.23,0,.34-.05-.89-.38-.86-1.07-1.31-1.58.19-.03.53-.09.73-.18-.56.12-.75-.03-.9-.15.54-.23-.59-.12-.33-.39l.13-.02c-.62.04.28-.3-.45-.19l.41-.22c-.8.19.35-.32-.08-.31l-.16.06c-.22-.04.16-.22,0-.27l.09-.04c-.29-.15.1-.43-.5-.21.45-.25.3.14.96-.23-.9-.52-1.02-1.31-1.38-2.01.2-.19.25-.27.46-.39-.15-.02-.23-.22-.55-.15.02.02.27-.19.29-.24.16-.24-.7.16-.5-.1.18-.02.37-.09.58-.21-.5.09-.52-.09-.74-.16.11-.03.18-.02.36-.12-.59.11-.05-.33-.44-.3l.35-.13c.28-.43-.71.31-.58,0,.13-.01.24-.1.38-.16-.68.15-.64-.23-.93-.29.05-.02.13-.07.13-.07-.17-.15-.13-.43-.5-.47.09-.16.78-.46.53-.58-.62.41-.47-.15-1.09.43,0-.22.06-.63-.21-.59.28-.09.68-.61.82-.51l.29-.37c.26-.16-.01.17.28-.09-.07-.06-.46-.07-.41-.2-.46.15-1.22.57-1.44.45.3-.09.6-.56.74-.58-.44.21-.88.42-1.31.65-.07-.04.44-.39.22-.35-.15.13-.27.17-.41.25.04-.08-.33-.12.19-.63.19-.22.2-.01.34-.25-.11-.1-.3.07-.41-.03l.07-.07c0-.14-.42.02-.64.37.03.06.3-.32.21-.11-.35.25-.55.22-.65.13.12-.05.25-.19.41-.33-.54.27-.79.27-1.09.31-.24.25.48-.41.38-.26.15-.56-.84.18-.54-.49.07-.03-.3.39-.24.32-.06-.11.26-.5.08-.4.18-.24-.14.01-.25.03-.16.15.07-.13.15-.11-.25.12-.83.22-.81-.24-.11.17-.51.53-.54.49l.26-.38c.1-.26-.18-.06.01-.4-.39.41.65-.16.28.12.16-.35-.58.5-.22-.01-.11-.05-.45.35-.33-.08-.01.08.39-.5.29-.53-.18-.02-.15.17-.33.23l-.16.12c-.21.39-.1-.1-.27.36.14-.34-.29.12.03-.54l.27-.52c-.09.01-.37.51-.52.73.01-.05.05-.17.09-.25-.36.81-.12-.13-.45.47-.01-.34-.29-.17-.18-.71-.19.23-.37.52-.42.31.04-.07.08-.09.14-.27,0-.27-.09-.05-.19.07.05-.12-.01-.54-.04-.87-.17.23-.23.71-.3,1,.08-.88-.37.47-.35-.31.05-.12.22-.42.17-.64.02-.87-.3.63-.39.2l-.04.73c-.02-.45-.24.4-.17-.34-.07.26-.16-.26-.18.46-.19-.64-.63.34-.84-.92-.04.12-.15,0-.12.37.08.39.09-.29.13-.02-.04.02-.04.22-.04.32-.1-.16-.17-.21-.1-.8-.23-.43-.17,1.21-.44.94,0-.29-.03-.41-.1-.35l-.11.52c-.17-.1-.14-.66-.18-1.16-.08.09-.2.08-.21.46l-.17-.61c.13.44-.05.31-.08.43l.03-.13c-.04-.21-.13-.07-.18,0,.05.31.17.42.23.5-.02.22-.1.18-.13.44-.04-.49-.18-.33-.26-.38-.1-.1-.03.45-.05.43-.04-.25-.13-.02-.12-.38.02-.08.09.23.11,0-.08-.18-.13-.62-.19-.28-.04.25.16.95-.03.67.02-.13,0-.32,0-.5l-.18-.22.07.44c-.04-.11-.03-.15-.05-.21.04.47-.19.18-.12.7-.06.06-.2-.28-.28-.32v-.04c-.13-.24-.21-.06-.2.26l-.02-.1s-.13.07-.12.34c-.19-.3-.46-1.62-.44-1.04-.11.05.05.83.17,1.09-.28-.24-.26.5-.64-.07.04.18.09.28.08.4-.32-.05-.28.66-.84,0-.02-.2-.2-.4-.32-.62.13.39-.27-.32.03.29.2.35.29.53.42.63-.03.27-.21.36-.48.08.14.14.17.26.21.37-.34-.55-.49-.57-.43-.32l.21.33-.27-.3c.05.12.45.69.17.43-.09-.12-.19-.24-.27-.32.12.31.37.79.1.59l-.43-.39c0,.07.19.38.34.45-.33-.15-.43-.11-.81-.42.32.54.44.85.44,1.06.02.23-.08.35-.2.44l-.23-.18c-.27-.09.39.33.19.26-.21-.18-.54-.3-.78-.55-.33-.07.31.41.39.56.32.22-.17-.19.23.09.11.09-.33,0,.15.31-.21-.09-.56-.34-.75-.48l.2.22c-.64-.26-.92-.85-1.68-1.19l.03.13c-.57-.24-.46-.59-.76-.48.19.25.87.75,1.14.81.04.25,1.15.78,1.02.91-.32-.12,0-.17-.43-.37-.45-.15.14.29-.04.27.24.03.72.37.79.46-.29-.05-.46-.31-.58-.22.29.17.46.38.71.4.66.37-.25.02.26.34-.5-.19-1.06-.67-1.36-.64.48.2.56.47,1.29.72-.16-.01-.53-.17-.8-.35-.32-.05.79.56-.16.18l.47.23c-.17-.04-.31-.07-.58-.13-.04.07.57.48-.17.18.07.05-.03.19.51.33.35.03-.33-.25.39-.03-.59-.16.02.16.19.28l-.29-.1c.1.07.02.13.32.26-.16-.08-.36-.14-.44-.14l.43.19c.18.21-.79-.24-.7-.05l-.31-.22c.07.05-.36-.04-.25.08.39.16.87.36,1.18.49.16.13-.47-.11-.07.09l-.46-.25c-.13-.06-.7-.14-.72-.03.12.12.68.39.94.35,0,.05-.28.05-.57-.08.1.16.45.11.67.28-.29-.04-.72-.02-1.14-.03l-.66-.3-.03.08c-.52-.25-.44-.06-1.01-.27-.11.04.08.16.22.26.97.07,1.24.51,2.11.66.19.26-2.12-.35-.82.19.23.01.87.26.65.07-.12.11.85.28.46.35-.33-.19-.9-.06-1.38-.34.28.07.24-.05.16-.09-.34-.01-.86-.2-.9-.05.06.11.05.23.51.31.5.1-.02-.14.47.01.14.2-.63.09.24.32-.04-.12.47-.05.81.02l.18.16-.32-.09c-.28.15.59.17.46.33l-.67-.02c-.56-.15.3-.23-.62-.37-.07.12.39.24.14.32-.08-.04-.09-.08-.17-.12-.04.04-1.26-.12-.57.2.26.14.32.08.67.14.08.23.42.34.45.48-.67-.12-.1.23-.77-.02.4-.02.41-.32-.22-.5-.81-.05.14-.15-.66-.33-.04.17-.83.04-1.34-.01-.04.05.17.13.24.17.48.1.48.03.98.1-.16.18.08.41.54.58-.25.03-.73-.05-.77-.14.11.26,0,.5-.17.71.81-.06.17.27.83.24.19-.1.76-.14,1.11-.04-.06.07-.35-.04-.52-.03.43.14-.71.08-.03.24-.24-.24-.97-.14-1.59-.24.34.2-.44-.05-.45.11.33.2.59.42.71.6-.61.18-.05.56-.05.76-.32.09-1.03-.02-1.16.09,0,.14.77-.06.43.12l-.14-.03c.16.07-.49.35.52.45l-.76-.09c-.07.04.1.08.18.11-.25,0-.48.03-.64-.04-.53.11.08.27.1.41l.45-.07c.35.24-.1.39.05.61h-.44s.26.12.26.12c-.43-.04-.71.08-.35.16l-1.08-.37c.26-.09.53.12.97.06.38-.05.27-.26-.16-.3-.05.08.05.09.2.15-.62.01-.59-.11-1-.18.02.04-.17.1.03.11-.3-.09-.34-.18-.36-.32.24.1.38-.04.56,0-.54-.03-.71-.17-.55-.34.63-.1-.4-.35-.22-.55.55.11.99.23,1.21.36.28-.11-.01-.14.27-.25-.41-.08-1.03-.15-1.27-.34h.41c-.19-.15-.8-.19-.67-.37.22-.32.25-.66.32-.91l.4.03c-.85-.22-.29-.5-.64-.73.43-.28-.28-.77.43-.84-.24-.61-.46-1.19-.16-1.77l.56.22c-.4-.2.35,0,.28-.12-.49.02-.57-.27-.9-.43.51-.17.08-.62-.23-.98l.39.1c-.66-.45.08-.57.29-.83.17.02.55.08.53-.02-.56-.38-.51-.45-.79-.84.08-.18.35-.42.66-.49-.58-1.06.37-1.49.3-2.47l.43.22c-.19-.61.09-1.01.39-1.33.32-.32.71-.55.79-.99l.51.64c.32.04.2-.5-.21-.9.33.05.21-.67.74-.22.27-.02,0-.47.1-.68.56-.04.67-.14.98-.5h-.12c.05.19.22.49.33.48.03-.28.61-.09.02-.87.65.26.83-.86,1.53-.34-.13-.24-.04-.33-.05-.51.39-.17.93.27,1.11-.26.09.11.02.46.18.45.06-.12-.09-.34-.01-.51.53-.67,1.33.26,1.84.02.88-.63,1.9-.44,2.76-.54v.2c.26-.77.71.77,1.04-.32.08.19.32.11.23.48.34-.49.72.54,1.21-.03-.03-.03-.06,0-.12.08.31.51.78.02,1.1.51-.06.07-.16.11-.22.3.04.4.6-.69.41.23.09.01.21-.43.14-.42.39.3.8.45,1.29.5.5.05,1.01.1,1.46.26.28.83-.79,1.37.01,1.04-.06.17.22-.29.12-.12.32-.11-.33,1.03.05.69.28-.5.26-.22.46-.5.09.54-.18,1,.32.83l-.2.23c.8-.46.83.15,1.72-.4,1.57,1.22,3.18,2.36,4.28,3.91.78,1.67,1.98,3.09,2.11,4.97-.61.67-.58.68-.12,1-.13.03-.17,0-.27.08.63-.19.17.28.78.12.08.66.41,1.19.6,1.83-.1-.08-.63,0-.55.11l.44.02-.17.07c.12.06.46.07.63-.07.49.75.47,1.63.42,2.48-.09.86-.26,1.7-.06,2.49-.23.41.07.92.24,1.33-.73,1.32-1.45,2.38-.79,3.6,0,0-1.7-.16-2.11-.63Z"/>
    <path class="cls-1" d="M133.39,139.97c.33-.04.51-.17.95-.06-.31,0-.65.08-.95.06Z"/>
    <path class="cls-1" d="M136.92,136.72c-.1-.01.14-.03.19-.04.02.04.29.11.12.12-.02-.04-.18-.05-.31-.08Z"/>
    <path class="cls-1" d="M137.21,135.93c.29.05.49.25.51.35l-.51-.35Z"/>
    <path class="cls-1" d="M138.5,135.38c.25-.02.38.02.36.1-.15-.02-.23-.06-.36-.1Z"/>
    <path class="cls-1" d="M137.85,135.22c0-.06.18-.06.34-.07-.25-.04.14.16-.34.07Z"/>
    <path class="cls-1" d="M138.98,133.91s-.23-.18.09-.13c-.23-.02.32.26-.09.13Z"/>
    <path class="cls-1" d="M138.73,133.16s.08,0,0-.05c.14,0,.33.1.35.14l-.36-.09Z"/>
    <polygon class="cls-1" points="147.03 127.21 146.95 127.34 146.99 127.06 147.03 127.21"/>
    <path class="cls-1" d="M151.56,129.61c.18-.08-.16.23-.18.27-.07-.03.27-.24.18-.27Z"/>
    <polygon class="cls-1" points="154.73 131.24 154.71 131.23 155.22 130.91 154.73 131.24"/>
  </g>
  <g>
    <path class="cls-1" d="M133.45,138.82c.14.18.51-.1.23.12-.24-.02-.42-.06-.23-.12Z"/>
    <path class="cls-1" d="M108.8,143.56c-1.5-.64.03-1.38-.87-2.09-.06-.08.83.08.64-.11-1.14-.72-.34-1.72.68-2.34l.23.08c.19-.12-.56-.41-.43-.55.16.02.21.08.43.08-.46-.11-.18-.31-.52-.43.19-.03.56.04.77,0l-.51-.18c-1.21-.47.21-.57-.38-1.03.12.04.21.09.33.09-.67-.69-.37-1.35-.47-2.02.18.07.51.19.72.21-.54-.18-.63-.4-.69-.59.58.09-.43-.43-.07-.53l.12.05c-.55-.32.39-.1-.26-.44l.47.05c-.76-.32.47-.07.12-.31l-.16-.05c-.15-.17.26-.1.16-.24l.09.02c-.12-.31.36-.29-.24-.5.51.1.14.31.88.44-.38-.99.14-1.72.46-2.47.27.03.36.01.59.11-.08-.13.05-.31-.21-.53,0,.03.31.11.36.09.28,0-.54-.48-.2-.48.12.14.29.26.5.36-.37-.36-.21-.49-.26-.71.08.08.11.14.29.24-.4-.45.26-.22.04-.54l.28.25c.51.03-.62-.48-.27-.52.07.11.2.17.32.26-.45-.53-.06-.68-.13-.98.03.04.12.1.12.1.07-.23.37-.3.28-.68.18.03.69.58.72.31-.6-.46.03-.49-.72-.93.24-.08.67-.14.57-.41.15.26.74.54.67.7l.41.21c.21.22-.16.02.15.25.03-.08-.03-.45.1-.42-.23-.42-.74-1.13-.62-1.38.11.29.62.54.65.69-.24-.41-.48-.84-.71-1.27.04-.08.41.42.38.19-.14-.14-.18-.27-.25-.41.08.04.17-.39.67.15.21.2,0,.21.23.35.11-.11-.04-.3.07-.42l.06.07c.15.02.04-.45-.29-.69-.07.03.29.33.08.23-.21-.38-.13-.61,0-.72.02.13.15.28.25.46-.17-.59-.06-.87.02-1.21-.19-.29.28.58.14.44.54.22.2-.95.81-.5,0,.08-.28-.41-.22-.33.16-.05.41.39.4.17.16.25.06-.16.11-.28-.05-.21.09.11.03.18,0-.28.35-.96.86-.72-.09-.17-.11-.74-.02-.76l.16.43c.18.22.23-.15.4.2-.07-.58-.4.71-.36.22.21.32,0-.8.2-.21.14-.08.08-.63.39-.3-.07-.05.12.64.23.56.17-.16-.02-.23.09-.43l.04-.21c-.15-.42.22,0-.04-.45.15.34.25-.32.47.39l.16.56c.07-.07-.05-.63-.06-.9.03.05.09.15.12.24-.26-.85.25,0,.15-.7.29.23.52-.14.76.37.08-.32.15-.64.38-.49-.02.09-.06.12-.02.31.17.23.14,0,.21-.16,0,.13.33.46.51.75.09-.29-.05-.75-.09-1.04.3.84.34-.64.66.11-.04.13-.15.47.01.66.27.84.17-.69.46-.32l-.16-.71c.16.42.29-.47.36.27.05-.27.29.22.19-.48.43.57.91-.43,1.21.83.05-.12.18,0,.14-.37-.11-.39-.11.29-.16.02.05-.02.05-.22.05-.32.13.16.22.2.13.8.26.42.22-1.22.57-.97,0,.3,0,.4.13.36l.24-.49c.28.13.12.68.11,1.18.13-.08.29-.04.39-.41l.09.63c-.06-.46.15-.29.22-.4l-.08.11c0,.21.15.11.23.06.04-.31-.09-.46-.17-.57.1-.2.2-.13.33-.37-.11.48.15.39.25.46.1.13.23-.4.27-.37-.05.25.19.08.01.41-.06.07-.04-.26-.16-.06.04.2-.08.63.16.35.18-.21.22-.95.37-.58-.09.1-.15.28-.25.44.05.1.09.2.13.31l.13-.42c0,.12-.03.15-.04.21.19-.43.35-.04.57-.52.12,0,.12.37.2.45l-.03.03c.03.29.25.18.46-.05l-.04.09c.05.06.22.06.41-.14.02.38-.65,1.55-.25,1.12.15.05.6-.62.66-.9.16.39.81-.05.71.7.13-.13.16-.24.3-.28.31.37,1.13.11.9,1.04-.22.07-.27.35-.43.55.32-.26-.16.4.29-.12.24-.32.37-.47.36-.68.35-.01.69.25.55.64.07-.19.19-.25.31-.3-.43.47-.35.68-.09.61l.28-.28-.2.36c.13-.05.6-.56.46-.18-.1.11-.2.23-.25.33.33-.13.89-.37.76,0l-.32.5c.09,0,.42-.14.46-.35-.05.45.03.61-.27,1.01,1.24-.46,1.73.12,2,.64l-.25.16c-.13.28.46-.23.36-.03-.26.12-.43.44-.78.54-.13.34.58-.07.77-.02.33-.2-.26.04.15-.21.13-.05-.09.42.42.13-.16.17-.54.37-.76.47l.31-.04c-.49.5-1.2.36-1.82.96l.13.04c-.46.42-.72.14-.76.48.3-.06,1.07-.43,1.23-.66.27.13,1.24-.64,1.35-.36-.25.25-.19-.16-.57.14-.33.36.36.09.29.28.12-.23.68-.43.82-.41-.16.27-.53.19-.47.41.31-.14.63-.09.74-.36.7-.31-.06.3.51.12-.44.32-1.18.4-1.31.74.44-.28.75-.08,1.36-.55-.09.16-.44.35-.75.44-.22.26.98-.15.09.36l.49-.2c-.13.11-.22.23-.45.41.04.1.81.02.08.35.09,0,.17.25.63-.08.23-.29-.45,0,.18-.4-.5.37.18.18.41.19l-.27.14c.13,0,.13.15.45.05-.18.03-.36.14-.41.21l.45-.13c.3.13-.74.38-.53.53h-.4c.08,0-.29.23-.12.27.41-.13.91-.25,1.23-.34.22.05-.43.24.03.19l-.54.04c-.14.03-.61.37-.55.52.17.04.81-.02.97-.27.04.08-.16.28-.48.33.21.13.42-.19.73-.13-.24.17-.55.5-.89.76l-.73.09.03.1c-.59.07-.39.21-.98.34-.07.1.16.11.33.12.84-.52,1.34-.2,2.15-.54.32.23-1.99.84-.59.72.2-.12.89-.17.59-.28-.04.21.88-.13.6.2-.4-.06-.81.43-1.38.35.29-.07.18-.19.09-.2-.3.17-.85.25-.8.42.11.08.17.23.61.08.48-.14-.1-.15.41-.23.24.18-.5.42.39.27-.11-.12.38-.3.72-.39l.25.12-.33.06c-.15.34.61-.08.6.22l-.61.29c-.57.08.14-.45-.75-.16.01.18.49.11.3.33-.09-.02-.12-.06-.21-.07-.02.07-1.18.42-.43.49.3.06.33-.04.67-.12.16.25.52.25.61.42-.67.11,0,.33-.72.28.37-.17.25-.56-.4-.51-.77.28.07-.24-.74-.1.03.21-.75.39-1.25.54-.02.06.2.07.29.08.48-.09.46-.16.95-.28-.08.26.23.42.72.45-.22.13-.71.2-.77.12.2.24.19.55.1.83.75-.3.24.26.87.04.15-.17.68-.39,1.05-.37-.03.1-.35.06-.51.12.45.05-.65.29.04.3-.3-.22-.97.1-1.59.15.38.12-.44.06-.42.24.36.12.66.3.82.49-.56.32.06.63.11.86-.3.15-1.02.13-1.12.27.03.14.75-.17.45.07h-.14c.18.04-.45.42.57.41h-.77c-.07.03.11.05.19.08-.25.02-.47.08-.64.03-.52.16.09.27.12.41l.45-.12c.36.23-.08.42.09.65h-.44s.27.14.27.14c-.43-.02-.7.11-.34.18l-1.1-.33c.26-.11.54.09.97.02.38-.06.25-.28-.18-.3-.05.08.05.08.21.14-.62.05-.6-.08-1.01-.12.03.04-.16.11.04.11-.3-.07-.35-.15-.37-.28.24.08.38-.07.56-.04-.54.02-.71-.1-.57-.28.62-.16-.4-.29-.26-.48.56.03,1.01.1,1.23.21.27-.15-.02-.14.24-.29-.42-.03-1.05-.02-1.32-.15l.4-.05c-.22-.12-.82-.06-.73-.25.16-.33.13-.64.15-.88l.4-.07c-.87,0-.38-.39-.8-.49.32-.36-.51-.55.15-.84-.39-.46-.83-.79-.83-1.34l.59-.08c-.44.03.31-.16.2-.23-.42.24-.62.05-.98.1.38-.37-.21-.5-.67-.54l.38-.15c-.79.08-.25-.38-.23-.68.14-.09.48-.29.41-.34-.65.13-.65.05-1.11.04-.06-.13-.02-.41.14-.66-1.03-.07-.85-.79-1.58-.96l.37-.3c-1.14.18-.76-.89-1.47-.85l.63-.52c.09-.28-.37-.09-.76.33.09-.28-.5.04-.1-.49,0-.2-.38.16-.53.17.01-.4-.1-.44-.4-.46l.02.07c.13-.12.35-.39.33-.47-.22.12-.15-.38-.66.45.07-.3-.12-.3-.29-.31-.17,0-.32,0-.23-.39-.12.24-.2.25-.31.39-.17-.11-.12-.67-.46-.33.03-.13.24-.39.17-.45-.09.07-.15.31-.26.43-.24.15-.31-.01-.39-.21-.07-.2-.16-.49-.29-.43-.14.11-.25.16-.35.18-.09.05-.16.07-.23.06-.03-.02-.26,0-.41,0-.16,0-.32.02-.48.05v-.2c-.15.76-.58-.73-.63.4-.07-.18-.2-.08-.21-.45-.09.55-.53-.4-.66.3.02.01.03-.03.04-.12-.32-.38-.41.24-.74-.1,0-.09.04-.15,0-.35-.19-.34-.04.84-.32-.06-.05.03.08.47.1.43-.62-.16-1.04.55-1.43.98-.58-.34-.67-1.44-.67-.66-.1-.15.14.33.05.16,0,.29-.64-.86-.51-.38.29.5.09.31.25.63-.39-.22-.72-.67-.67-.17l-.14-.27c.23.88-.24.64.15,1.57-.48.36-.76.95-1.09,1.42-.14.27-.26.55-.4.8-.07.13-.14.25-.22.37-.06.14-.13.27-.2.39-.2.21-.38.43-.54.67l-.4.79c-.31.5-.51,1.1-1.05,1.56-.85-.02-.84.04-.65.47-.12-.06-.14-.09-.26-.11.61.24-.03.25.55.49-.29.41-.26.9-.37,1.4-.05-.1-.55-.28-.54-.18l.38.21-.18-.03c.08.09.37.24.59.23.21,1.33-1.29,2.35-1.3,3.72-.33.28-.1.76,0,1.11-.98.93-1.68,1.91-1.1,2.98,0,0-1.69-.14-2.07-.61Z"/>
    <path class="cls-1" d="M133.38,138.61c.33-.04.5-.18.94-.08-.31.02-.65.09-.94.08Z"/>
    <path class="cls-1" d="M136.45,134.75c-.1.01.12-.07.18-.1.03.04.31.05.14.11-.03-.04-.18-.01-.32-.01Z"/>
    <path class="cls-1" d="M136.46,133.74c.29-.04.56.13.62.25l-.62-.25Z"/>
    <path class="cls-1" d="M137.44,132.55c.22-.14.36-.15.38-.03-.15.04-.23.02-.38.03Z"/>
    <path class="cls-1" d="M136.78,132.63c-.02-.08.14-.16.29-.23-.24.06.19.14-.29.23Z"/>
    <path class="cls-1" d="M137.01,130.35s-.31-.07-.02-.22c-.19.13.44.12.02.22Z"/>
    <path class="cls-1" d="M136.23,129.55s.05-.07-.04-.07c.1-.11.32-.13.37-.09l-.33.16Z"/>
    <polygon class="cls-1" points="121.11 120.73 121.19 120.57 121.21 120.86 121.11 120.73"/>
    <path class="cls-1" d="M113.94,123.64c.02.21-.23-.18-.27-.2.06-.08.19.31.27.2Z"/>
    <polygon class="cls-1" points="112.07 127.47 112.08 127.44 112.54 127.82 112.07 127.47"/>
  </g>
</svg>