<?xml version="1.0" encoding="UTF-8"?>
<svg id="Layer_3" data-name="Layer 3" xmlns="http://www.w3.org/2000/svg" viewBox="0 0 126.38 116.43">
  <defs>
    <style>
      .cls-1 {
        opacity: .98;
      }

      .cls-2 {
        fill: #202020;
      }
    </style>
  </defs>
  <g class="cls-1">
    <path class="cls-2" d="M96.57,34.66l-9.72-9.48,7.74-7.55c2.16-2.11,5.67-2.11,7.84,0l1.88,1.84c2.16,2.11,2.16,5.53,0,7.64l-7.74,7.55"/>
    <g>
      <path class="cls-2" d="M95.85,35.21c.22.06.22-.38.23-.04-.16.12-.29.2-.23.04Z"/>
      <path class="cls-2" d="M97.48,34.64c-.41-1.36,1.09-1.04,1.04-2.11.02-.1.47.51.48.26-.19-1.18,1-1.52,2.13-1.57l.1.17c.21-.01-.1-.61.09-.66.09.09.09.17.24.27-.24-.31.09-.34-.06-.6.15.06.37.29.55.35l-.24-.39c-.54-.94.52-.4.4-1.05.06.09.09.17.18.22-.02-.87.59-1.3.9-1.93.09.13.27.35.42.45-.3-.36-.24-.59-.18-.77.39.29-.09-.53.25-.48l.06.09c-.24-.47.36.04,0-.46l.33.2c-.47-.5.41.09.22-.24l-.11-.09c-.07-.19.24-.02.21-.17l.07.04c0-.28.37-.21-.07-.48.4.15.04.3.63.52-.01-1,.33-1.67.39-2.49.22-.07.28-.13.48-.15-.1-.09-.08-.33-.36-.4.01.03.27-.06.29-.11.19-.17-.58-.13-.37-.3.15.05.32.06.52.01-.43-.11-.39-.29-.55-.43.09,0,.15.04.31,0-.49-.09.02-.36-.31-.44l.31-.02c.29-.37-.63.11-.49-.17.11.02.22-.04.34-.07-.59-.02-.54-.38-.8-.47.04,0,.12-.05.12-.05-.15-.16-.13-.44-.46-.51.06-.15.63-.4.39-.54-.49.37-.44-.17-.89.38-.05-.19-.07-.57-.33-.52.23-.1.45-.61.61-.52l.16-.36c.19-.17.04.16.23-.1-.08-.04-.43-.05-.42-.18-.38.16-.98.55-1.22.42.26-.08.42-.53.56-.55l-1.08.58c-.08-.04.32-.36.12-.33-.11.12-.22.15-.34.22.02-.07-.37-.15.02-.6.14-.2.19,0,.27-.21-.12-.11-.27.03-.39-.07l.05-.06c-.01-.14-.41-.04-.56.28.04.07.23-.28.19-.08-.31.19-.49.16-.58.09.1-.05.2-.17.33-.28-.45.23-.67.25-.93.31-.17.23.35-.39.29-.25.02-.49-.69.22-.57-.38.05-.03-.17.37-.13.3-.08-.07.1-.45-.03-.34.09-.23-.12.03-.21.07-.1.15.03-.12.1-.12-.19.14-.65.38-.79-.01-.04.16-.25.55-.29.53l.08-.37c-.01-.23-.18,0-.14-.31-.18.43.51-.32.3,0,.01-.32-.32.56-.2.06-.12,0-.25.4-.32.05.02.06.14-.52.04-.5-.17.06-.06.18-.2.3l-.08.15c0,.36-.13-.05-.08.36-.02-.3-.2.2-.21-.41v-.48c-.08.04-.09.51-.12.72-.01-.05-.04-.14-.04-.22.07.73-.17-.04-.16.54-.17-.24-.31.05-.49-.39-.05.23-.04.53-.2.41,0-.07.02-.1-.02-.25-.14-.18-.1,0-.12.14-.02-.11-.29-.34-.49-.54-.02.25.19.59.29.81-.42-.62-.02.54-.44.02-.02-.1-.04-.38-.22-.5-.48-.56.1.56-.21.36l.38.47c-.27-.26.04.4-.32-.1.1.2-.26-.03.13.4-.46-.27-.35.74-1.22.12.03.11-.13.12.1.32.29.17-.08-.25.1-.11-.02.04.08.17.14.23-.17-.02-.27.01-.53-.41-.43-.09.51.89.13.95-.16-.18-.24-.23-.28-.14l.17.42c-.21.07-.47-.31-.76-.61-.03.13-.14.21.04.46l-.46-.28c.33.2.11.24.14.35l-.03-.11c-.14-.11-.15.05-.16.14.19.17.35.16.45.16.09.17,0,.2.09.4-.26-.31-.33-.08-.42-.05-.13,0,.17.34.14.35-.15-.15-.14.09-.29-.18-.02-.07.2.09.11-.08-.16-.07-.41-.33-.32-.05.07.21.58.55.26.51-.03-.11-.14-.23-.21-.36l-.28-.02.25.27c-.08-.05-.09-.08-.14-.11.23.31-.12.28.16.62-.04.09-.32-.05-.41-.02v-.03c-.24-.08-.24.12-.13.36l-.05-.06c-.06.02-.12.16-.02.36-.3-.1-1.01-.96-.8-.51-.1.11.3.65.51.77-.37.01-.17.65-.74.42.08.13.16.18.16.3-.39.17-.29.9-1.03.6-.03-.19-.25-.27-.4-.42.16.31-.31-.18.08.24.25.22.34.36.49.4.03.22-.01.26-.32.13.15.07.22.15.29.21-.44-.31-.57-.29-.45-.16l.29.17-.33-.14c.08.07.62.34.29.23-.12-.06-.25-.11-.34-.15.21.17.64.37.32.3l-.54-.13s.32.15.5.17c-.37-.03-.46,0-.98-.06.77.28,1.01.34.98.41.04.02.04.04.04.07l-.33.02c-.27.05.58-.02.37,0-.32.01-.63.08-1.04.08-.26.1.62.02.78.02.4-.05-.28.01.23-.05.14-.02-.25.1.33,0-.22.05-.65.13-.89.16l.31-.02c-.6.2-1.32.11-2.11.31l.15.04c-.53.19-.88-.06-.9.16.37.03,1.23-.1,1.43-.21.27.08,1.37-.26,1.4-.18-.29.11-.13-.04-.57.1-.39.17.33.02.21.09.15-.1.71-.24.81-.26-.21.12-.5.15-.5.22.3-.1.53-.16.7-.26.64-.26-.14.1.34-.1-.4.23-1.03.42-1.18.58.41-.2.61-.22,1.17-.55-.11.07-.4.25-.66.37-.2.17.74-.37.02.11l.38-.24c-.11.09-.19.16-.37.32.03.04.53-.31.03.13.06-.04.1.04.4-.3.18-.21-.28.19.17-.23-.36.35.08-.01.2-.13l-.18.18c.1-.04.15.08.36-.09-.13.08-.24.22-.25.29l.31-.24c.28,0-.44.52-.22.58l-.32.11c.07-.02-.13.28.02.26.28-.22.62-.48.83-.66.19-.03-.24.32.09.14l-.4.2c-.1.07-.34.49-.22.59.15-.02.62-.28.64-.53.06.05-.02.28-.24.42.21.03.25-.29.51-.34-.12.21-.22.58-.38.91l-.52.31.07.08c-.43.25-.2.31-.61.61,0,.11.18.04.31,0,.41-.72.93-.62,1.4-1.19.34.06-1.11,1.39-.1.78.1-.17.59-.47.31-.44.07.18.6-.44.53-.08-.32.11-.4.64-.86.8.18-.16.04-.22-.03-.19-.14.25-.52.51-.39.64.13.03.24.12.49-.17.29-.3-.15-.08.19-.34.26.05-.16.53.42.06-.14-.06.14-.39.34-.59h.24s-.22.16-.22.16c.04.32.41-.31.53-.08l-.3.47c-.37.3-.11-.4-.62.18.09.14.41-.11.38.14-.07.02-.12,0-.19.03.02.06-.65.83-.06.56.25-.08.21-.17.42-.38.25.12.51-.04.66.05-.42.38.17.25-.36.53.17-.3-.12-.53-.56-.22-.4.54-.08-.21-.59.23.14.16-.33.62-.6.95.02.06.19-.03.26-.05.3-.27.24-.32.53-.62.09.24.41.24.77.04-.08.2-.38.47-.48.43.28.11.46.35.56.63.34-.59.32.09.62-.38,0-.2.24-.63.51-.78.03.09-.2.2-.28.33.33-.18-.28.54.2.21-.33-.02-.6.54-.99.88.33-.08-.26.26-.13.38.33-.08.65-.08.87-.02-.16.53.45.46.63.6-.1.27-.56.63-.54.79.12.1.36-.53.33-.18l-.1.07c.14-.05.02.57.65.02l-.49.41c0,.07.12,0,.19-.03-.14.15-.24.32-.38.37-.21.41.26.15.38.24l.19-.33c.39-.03.25.35.52.43l-.26.26.26-.05c-.27.23-.34.49-.07.33l-.9.37c.07-.23.39-.24.6-.54.18-.26-.05-.36-.33-.13.03.09.09.04.23-.01-.34.39-.42.28-.7.48.05.02-.01.17.11.07-.24.12-.33.08-.45-.02.21-.07.18-.26.31-.34-.32.31-.52.31-.57.09.27-.46-.48,0-.54-.26.38-.26.71-.45.94-.49.06-.26-.12-.1-.05-.36-.28.2-.68.54-.95.56l.23-.25c-.23,0-.58.37-.66.16-.14-.36-.39-.61-.55-.83l.23-.25c-.61.41-.54-.16-.9-.07-.02-.47-.75-.29-.47-.82-.61-.24-1.16-.42-1.52-.94l.42-.28c-.33.18.14-.25.02-.28-.18.37-.46.26-.72.42.07-.46-.48-.42-.89-.34l.23-.25c-.62.28-.44-.32-.59-.61.07-.12.25-.39.16-.43-.25.14-.38.18-.51.2-.12.02-.23.02-.5,0-.2-.19-.42-.6-.43-.9-.68-.13-1.15-.5-1.57-.86-.43-.37-.8-.75-1.5-1.11l.44-.12c-.65-.22-1.09-.52-1.43-.82.53-.57,1.36-1.07,1.48-1.57l.72.23c.43-.13.24-.48-.33-.6.43-.13.22-.67.91-.57.33-.15-.03-.4.08-.64.69-.32.78-.49,1.12-.99l-.14.08c.06.14.28.33.41.26,0-.13.19-.25.24-.35.04-.08,0-.2-.32-.44.59.07.36-.88,1.06-.69-.18-.14-.14-.23-.21-.36.23-.24.79-.16.72-.61.11.04.2.33.31.25,0-.12-.2-.21-.21-.36.1-.67,1.07-.45,1.34-.87.32-.91,1.12-1.38,1.66-2.01l.11.12c-.11-.32.1-.31.31-.35.25-.07.46-.15.29-.61.17.05.34-.18.47.11.01-.56.95-.18,1.08-.87-.05,0-.05.05-.06.14.57.1.74-.53,1.33-.38-.02.08-.09.16-.05.31.26.24.21-.79.53-.08.1-.03-.03-.39-.09-.36,1.07,0,2.11-.59,3.31-.62.73.58-.16,1.29.54.83.02.16.1-.28.07-.12.29-.16.14.92.39.57.07-.48.17-.22.26-.5.36.45.27.86.74.68l-.13.22c.69-.48.94.1,1.71-.38.27.18.57.33.82.53l.69.51c.35.25.71.49,1.06.74l.53.37.26.18.13.09.19.16c.51.45.98.96,1.35,1.55.64,1.22,1.11,2.53,1.22,3.91.11,1.36-.14,2.8-.89,3.98-.88.31-.84.31-.97,1.03-.08-.08-.07-.13-.18-.14.44.33-.21.42.16.77-.33.38-.64.73-.96,1.1-.2.23-.39.47-.62.7.03-.11-.24-.47-.3-.36l.15.34-.12-.09c0,.12.12.37.3.43-.83,1.47-2.73,1.8-3.78,3.01-.43.1-.67.63-.88.99-1.37.33-2.56.68-3.09,1.9,0,0-.86-1.11-.72-1.7Z"/>
      <path class="cls-2" d="M95.64,35.08c.16-.22.16-.43.49-.61-.17.19-.31.45-.49.61Z"/>
      <path class="cls-2" d="M94.88,30.45c-.06.05.04-.12.06-.16.05.02.24-.11.17.01-.05-.02-.13.08-.23.14Z"/>
      <path class="cls-2" d="M94.31,29.66c.18-.16.46-.16.57-.09l-.57.09Z"/>
      <path class="cls-2" d="M94.36,28.32c.09-.2.18-.26.25-.19-.08.1-.15.12-.25.19Z"/>
      <path class="cls-2" d="M93.93,28.67c-.06-.05.02-.18.09-.3-.14.15.21.03-.09.3Z"/>
      <path class="cls-2" d="M93.02,26.81s-.26.05-.1-.17c-.1.17.38-.06.1.17Z"/>
      <path class="cls-2" d="M92.12,26.44s.01-.07-.06-.05c.04-.12.2-.2.25-.19l-.19.24Z"/>
      <polygon class="cls-2" points="96.4 18.5 96.42 18.63 96.29 18.43 96.4 18.5"/>
      <path class="cls-2" d="M100.97,18.76c.15-.07-.11.2-.13.23-.06-.02.21-.21.13-.23Z"/>
      <polygon class="cls-2" points="104.4 20.5 104.38 20.48 104.78 20.19 104.4 20.5"/>
    </g>
  </g>
  <g>
    <g>
      <path class="cls-2" d="M68.81,61.63c.04-.51-.5.12-.09-.37.17.12.29.26.09.37Z"/>
      <path class="cls-2" d="M59.03,53.79c-1.12,1.72-3.5,1.09-4.89,2.43-.17.12-.18-.7-.56-.39-1.27,1.5-3.95,1.78-6.15,1.74l.05-.23c-.42,0-.63.79-1.05.85-.05-.13.06-.23-.1-.37.04.42-.64.43-.69.78-.21-.09-.31-.4-.57-.49l-.06.52c-.22,1.27-1.52.5-2.15,1.36,0-.12.05-.23-.05-.3-1.09,1.17-2.8,1.7-4.17,2.59,0-.18-.07-.48-.23-.61.12.48-.28.79-.64,1.05-.38-.38-.49.71-1.05.67v-.12c-.12.64-.63-.04-.64.66l-.38-.26c.16.71-.64-.1-.77.35l.07.13c-.19.28-.48.02-.67.25l-.06-.06c-.47.46-.97.28-.71.76-.4-.29.45-.46-.15-.87-.79.74-1.68,1.3-2.54,1.89-.44.29-.89.56-1.33.83-.42.3-.85.59-1.27.89-.32-.04-.49,0-.66-.15-.12.19-.56.57-.5.91.04-.05-.28-.12-.39-.07-.43.11.11.72-.36.81.01-.21-.07-.38-.26-.49.02.53-.32.84-.48,1.26-.03-.11,0-.23-.15-.33.08.67-.61.58-.63,1.09l-.15-.32c-.72.27.4.56-.13.85,0-.16-.12-.2-.21-.3.07.38-.09.69-.23,1-.14.31-.31.6-.36.87-.02-.05-.1-.09-.1-.09-.23.51-.7.92-.79,1.56-.22.14-.66-.43-.8.18.59.26-.16,1.04.64,1.01-.27.41-.87,1.03-.71,1.43-.17-.3-.81,0-.75-.43l-.45.2c-.24-.13.17-.3-.17-.31-.04.23.04.92-.11,1.09.29.5.86,1,.86,1.62-.21-.34-.72.05-.8-.17.37.37.74.72,1.12,1.04,0,.2-.51-.01-.38.3.17,0,.26.14.39.23-.04.03-.03.24-.08.45-.03.21-.12.41-.44.45-.25.09-.14-.34-.36-.12.02.39.23.4.25.79h-.08c-.09.27.28.74.63.45.02-.17-.38.09-.2-.18.38.16.45.57.54.93-.12-.11-.29-.08-.47-.11.57.45.8.92,1.08,1.41.3-.05-.56-.09-.42-.2-.17.39.08.72.29,1.02.21.31.39.59.17.96-.08-.08.39-.18.32-.14.04.33-.35.45-.12.61-.23.1.18.24.33.42.21.04-.1.1-.19-.08.16.11.43.43.67.81.26.37.48.81.47,1.23.14-.08.75.11.82.26l-.38.13c-.13.25.31.47.03.66.6.08-1.05-1.02-.48-.77-.23.27.89.29.36.46.19.29.71.35.57.81,0-.11-.62.05-.44.27.33.38.24.02.56.28l.27.12c.33-.2.19.39.45,0-.23.23.56.44.02.78l-.45.24c.16.15.63-.03.9-.04-.02.05-.07.15-.14.2.63-.45.26.42.87.23.02.22.21.46.29.58l.25.32c.02.05.05.1.07.15l-.32-.39c.07.11.16.28.09.48.39.03.81-.02,1,.34-.1.01-.2-.03-.31.09.05.33.22.2.48.22-.11.06.13.64.21,1.03.42,0,.54-.42.71-.62-.14.8,1.04.09,1.02.85-.15.04-.62.09-.47.39-.09.81.83-.19,1.09.36l.18-.62c.01.46.79,0,.47.55.25-.14.44.42.64-.16.52.84,1.87.38,1.99,1.61.14-.06.39.1.42-.21-.09-.38-.33.18-.33-.08.1.02.17-.15.21-.22.2.19.38.28,0,.72.45.51.83-.87,1.43-.47-.08.24-.05.35.15.36l.46-.38c.42.16.16.6.1,1.03.26-.04.55.02.7-.28l.24.58c-.18-.42.23-.23.35-.32l-.12.09c.03.2.32.09.47.04-.02-.27-.3-.36-.44-.47.14-.16.32-.13.49-.35-.08.42.37.31.56.35.22.1.25-.37.31-.36,0,.22.35.04.18.35-.07.07-.17-.22-.29-.03.14.17.13.55.43.28.22-.2-.07-.84.35-.56-.11.1-.12.27-.2.42.14.08.27.16.41.21v-.39c.05.09.02.13.05.18.09-.42.59-.19.64-.66.19-.06.44.22.63.24l-.03.04c.26.19.56.04.69-.28v.09c.13,0,.41-.14.51-.4.37.21.45,1.39.68.83.33-.1.31-.81.12-1.01.65.15,1.02-.75,1.74-.38.02-.18-.07-.25.05-.39.88-.13,1.37-1.19,2.34-.88-.14.27.18.34.3.52,0-.4.41.17.17-.37-.2-.28-.28-.44-.56-.44.17-.21.42-.41.68-.54.25-.15.5-.27.71-.22-.21-.04-.18-.2-.15-.35.29.47.65.3.77-.04l-.17-.29.36.16c.02-.15-.34-.63.09-.55.09.09.19.18.29.23.05-.41.13-.99.48-1l.5.18c.05-.13-.02-.49-.27-.44.55-.15.81-.36,1.25-.2-.22-1.44.53-2.47,1.19-3.45l.2.16c.37-.14-.29-.37-.03-.46.15.21.57.07.7.43.47-.24-.07-.71-.02-1.02-.26-.2.07.31-.27.05-.07-.09.53-.42.12-.72.23,0,.51.26.65.41l-.08-.36c.68-.01.54,1.2,1.34,1.25l.06-.27c.58.04.18.91.66.41-.08-.38-.6-.95-.91-.83.16-.59-.92-.82-.58-1.35.34,0-.18.47.24.57.5-.07.09-.63.34-.79-.31.17-.64-.29-.63-.49.36-.17.32.4.58.03-.22-.2-.23-.67-.57-.44-.51-.45.37-.34.03-.79.48.08.75.9,1.17.56-.43-.13-.27-.82-.98-.89.2-.12.52.02.71.27.37-.13-.43-.97.41-.66l-.37-.29c.17-.01.33-.08.61-.1.12-.22-.21-.98.4-.67-.03-.1.23-.6-.29-.61-.41.19.15.52-.52.42.58,0,.15-.49.07-.75l.25.08c-.04-.15.12-.38-.11-.57.1.15.28.18.38.12l-.32-.28c.02-.53.7.19.79-.29l.14.46c-.03-.1.38-.09.36-.35-.3-.23-.64-.57-.87-.75-.04-.31.43.06.19-.33l.26.49c.09.1.66.04.79-.3-.03-.26-.38-.81-.7-.55.07-.17.37-.31.56-.07.04-.43-.39-.11-.46-.53.28-.03.78-.31,1.22-.42l.42.58.1-.23c.33.49.41,0,.82.37.14-.12.06-.38,0-.59-.97.13-.84-.96-1.6-1.12.07-.7,1.88.33,1.04-.78-.23.03-.64-.5-.6-.02.24-.36-.6-.55-.12-.89.15.46.86-.07,1.09.59-.22-.13-.29.2-.25.31.34-.05.7.32.86-.08.03-.27.15-.61-.24-.71-.41-.15-.11.39-.45.07.05-.54.71-.38.07-.86-.07.33-.52.24-.79.12l-.03-.42.24.18c.42-.49-.42-.36-.13-.88l.64-.05c.41.31-.53.72.26.92.18-.35-.15-.62.17-.88.03.1.01.21.05.31.08-.12,1.12.14.74-.61-.12-.36-.24-.17-.52-.29.14-.62-.08-.9.02-1.29.52.29.31-.64.71-.01-.4.07-.69.92-.24,1.33.73.04-.27.42.34.81.2-.46.83-.19,1.27-.11.08-.12-.05-.32-.08-.42-.37-.21-.43-.03-.84-.18.31-.48.28-1.07,0-1.51.26-.1.64.1.59.33.13-.67.42-1.32.76-1.87-.79.15.09-.72-.54-.66-.26.27-.82.37-1.05.09.11-.18.28.11.45.08-.26-.38.71-.19.25-.64,0,.65.75.4,1.22.69-.13-.52.35.15.51-.26-.13-.52-.17-1.11-.12-1.61.69-.41.53-1.46.69-1.99.35-.18.87.2,1.07-.06.11-.35-.71.04-.27-.38l.1.09c-.08-.2.72-.81-.06-1.24l.57.37c.09-.08-.02-.21-.06-.32.21.07.43.02.51.22.54-.17.15-.69.25-1.04l-.45.1c-.09-.69.41-.96.46-1.58l.36.14-.11-.41c.33.2.66-.04.42-.32l.6,1.18c-.3.18-.35-.41-.76-.38-.36.03-.43.59-.11.79.11-.19.03-.23-.05-.43.53.1.41.4.69.67.02-.11.22-.21.07-.29.18.29.15.52.04.87-.12-.3-.36.02-.47-.11.44.18.46.56.19.95-.62.13.05.92-.26,1.37-.38-.36-.65-.74-.73-1.1-.33.23-.11.35-.44.59.28.27.76.55.82,1.03l-.34-.09c.04.43.53.6.28,1.04-.45.75-.74,1.58-1,2.17l-.34-.1c.58.6-.16,1.23-.01,1.8-.6.66-.32,1.81-1.04,1.99-.27,1.47-.5,2.76-1.2,4.13l-.38-.43c.24.39-.34.05-.37.33.49-.13.35.54.57.84-.63.47-.58,1.44-.48,2.14l-.33-.12c.37.82-.45,1.27-.87,1.91-.17.02-.53,0-.58.23.34.61.22.79.28,1.49-.18.41-.63,1-1.03,1.3-.01,1.87-1.29,3.16-1.76,4.94l-.42-.1c-.1.96-.56,1.82-1.15,2.59-.31.39-.62.76-.89,1.12-.26.37-.5.73-.73,1.12l-.42-.58c-.5.22-.66.96-.22,1.23-.26.11-.43.41-.62.66-.2.21-.41.36-.71.24-.47.2-.27.63-.54.96-.48.2-.78.37-1.05.58-.26.21-.49.45-.88.74l.23-.09c0-.18-.15-.44-.38-.35-.2.35-1.22.5-.48,1.04-.57.05-1.04.44-1.52.81-.51.33-1.07.6-1.66.5.17.18-.05.32-.1.5-.44.17-.9.28-1.36.33-.46.05-.88.14-1.19.42-.17-.08.13-.44-.24-.37-.2.14.07.29-.17.49-.69.43-1.49.41-2.26.33-.77-.06-1.49-.17-2.17-.16-2.46.51-4.98-.28-7.14-.94l.08-.15c-.47.18-.84-.13-1.19-.4-.34-.29-.67-.53-1.15-.21-.1-.22-.6-.35-.33-.59-.75.13-1.29-1.13-2.3-1.09.06.06.12.05.23.04-.55-.76-1.47-.76-2.02-1.58.12,0,.29.06.41-.07-.09-.46-1.11.06-.76-.7-.17-.12-.37.23-.26.29-.22-.24-.4-.41-.69-.7l-.28-.27-.12-.21-.08-.14.31.39c-.66-.75-1.21-1.32-1.82-1.98-.59-.65-1.2-1.3-1.69-2.04-.31-1.56,1.15-.73.06-1.48.1-.16-.31.08-.16-.01-.4-.32.52-1.03,0-1.13-.4.32-.34-.07-.62.04-.08-.97.32-1.3-.3-1.84l.27-.04c-.51-.26-.73-.68-.93-1.09-.21-.41-.43-.79-.94-1.06-.56-2.39-.85-4.87-.58-7.35.01-.63.2-1.22.31-1.83.15-.6.21-1.24.45-1.8l.66-1.73c.12-.28.22-.58.35-.85l.45-.79c.67-.99,1.26-2.05,2.02-2.9l1.09-1.35c.19-.22.34-.45.57-.67l.7-.66c1.91-1.82,3.81-2.84,5.85-3.79,1.24.13,1.28.09,2.14-.68.01.12-.04.18.07.23-.21-.53.67-.41.52-.94,1.48-.57,2.73-1.37,4.21-2-.21.16-.14.63.12.48l.15-.46.11.12c.16-.16.25-.51-.02-.59,3.55-2.06,7.66-2.41,11.29-3.84.96-.08,2.13-.73,3.05-1.16,3.08-.25,5.79-.48,8.57-1.87,0,0,.02,1.52-1.06,2.21Z"/>
      <path class="cls-2" d="M68.68,62.21c-.3.01-.55.3-.83-.08.26.05.6-.03.83.08Z"/>
      <path class="cls-2" d="M62.96,69.92c.07.04-.15.08-.21.09.02-.11-.17-.29,0-.33-.02.11.11.14.21.23Z"/>
      <path class="cls-2" d="M61.99,72.05c-.22-.12-.24-.66-.17-.94l.17.94Z"/>
      <path class="cls-2" d="M60.25,73.69c-.27.1-.36,0-.26-.23.13.03.16.13.26.23Z"/>
      <path class="cls-2" d="M60.73,74.04c-.06.17-.23.2-.39.23.2.07.02-.44.39-.23Z"/>
      <path class="cls-2" d="M58.3,78.08c-.03.11.07.41-.23.4.23-.03-.08-.62.23-.4Z"/>
      <path class="cls-2" d="M57.8,80.21c-.04.06-.1.07-.06.17-.16.07-.27-.13-.25-.24l.31.07Z"/>
      <polygon class="cls-2" points="30.89 96.15 31.14 96.15 31 96.35 30.89 96.15"/>
      <path class="cls-2" d="M22.48,83.56c-.19-.19.21-.17.24-.21.05.18-.32-.03-.24.21Z"/>
      <polygon class="cls-2" points="22.76 74.87 22.74 74.94 22.28 74.69 22.76 74.87"/>
    </g>
    <g>
      <path class="cls-2" d="M63.15,57.96c.31-.3-.41-.28.15-.3.05.21.05.38-.15.3Z"/>
      <path class="cls-2" d="M63.33,57.52c-.04,1.89-2.24,2.18-2.71,3.82-.08.16-.47-.55-.63-.15-.31,1.73-2.35,2.88-4.14,3.54l-.07-.22c-.34.13-.16.89-.48,1.07-.1-.09-.05-.22-.24-.29.22.35-.32.58-.22.9-.21-.02-.43-.26-.68-.26l.18.47c.37,1.18-1.03.9-1.17,1.84-.05-.1-.05-.22-.17-.25-.41,1.34-1.59,2.33-2.4,3.46-.08-.16-.25-.41-.44-.48.29.4.08.78-.12,1.11-.47-.24-.13.77-.63.87l-.05-.11c.14.6-.55.11-.29.75l-.42-.14c.4.6-.59.06-.52.5l.11.1c-.06.3-.4.13-.48.38l-.07-.04c-.25.51-.75.45-.36.83-.44-.18.23-.51-.43-.76-.87,1.65-2.25,2.85-3.52,4.11-.3-.02-.44.03-.62-.09-.05.2-.41.54-.33.86.04-.05-.28-.12-.37-.07-.38.08.17.68-.26.76,0-.2-.09-.37-.27-.48.08.52-.25.76-.41,1.11-.03-.11,0-.21-.13-.32.06.63-.59.43-.61.89l-.13-.32c-.67.11.35.59-.15.76.01-.15-.11-.21-.18-.32.09.73-.56,1.1-.75,1.55-.01-.05-.08-.11-.08-.11-.3.39-.79.62-.99,1.18-.24.03-.5-.6-.79-.16.46.45-.44.8.29,1.11-.39.23-1.05.55-1.11.91-.03-.31-.7-.41-.48-.7l-.47-.08c-.15-.22.27-.14-.03-.31-.11.15-.32.7-.51.74.03.52.32,1.26-.01,1.7,0-.36-.6-.4-.55-.6l.31,1.42c-.11.15-.38-.33-.45-.03.13.11.12.27.16.42-.1,0-.43.65-.93.25-.23-.12.12-.3-.18-.32-.24.24-.1.41-.33.65l-.06-.06c-.23.09-.28.65.14.73.13-.09-.31-.23-.02-.26.15.37-.06.72-.3.96.01-.15-.12-.26-.21-.42.02.67-.21,1.12-.43,1.63.2.22-.25-.52-.08-.46-.38.08-.51.42-.66.73-.09.26-.43.74-.86.73.05-.13.3.3.24.24-.35.29-.56-.11-.68.23-.14-.22-.21.32-.39.61-.04.3-.1-.07.06-.28-.09.25-.41.77-.83,1.29-.21.25-.44.52-.66.71-.21.16-.42.27-.59.29.03.21-.42,1.18-.6,1.29l.08-.59c-.13-.2-.54.49-.52.04-.2.48.14.06.45-.35.31-.41.57-.82.36-.39-.09-.36-.65,1.37-.52.56-.29.27-.7,1.17-.92.89.08.02.36-.99.12-.75-.43.46-.16.37-.55.86-.09.13-.19.35-.25.27-.15.55-.23-.56-.29.27.09-.52-.5-.55-.19-1.35l.25-.6c-.12-.16-.41.35-.61.44,0-.09.03-.28.07-.37-.4.91-.23-.62-.69-.21-.05-.41-.2-.74-.31-1.06-.11-.34-.18-.67-.06-1.01-.32-.16-.7-.34-.74-.97.09.05.16.16.29.06.08-.47-.1-.38-.31-.58.11-.02.16-.89.35-1.33-.31-.27-.65.03-.89.11.29-.37.1-.61-.11-.9-.21-.28-.41-.64-.1-.86.12.08.46.48.59.11.69-.44-.67-.5-.38-1.06l-.61.21c.36-.28-.44-.71.2-.73-.24-.15.15-.61-.46-.51.23-.44.16-.96.14-1.45,0-.48.14-.95.7-1.14-.09-.13.04-.42-.28-.41-.36.16.22.32-.02.36,0-.11-.17-.16-.25-.18.16-.26.24-.45.71-.13.48-.5-.9-.8-.48-1.55.24.11.33.07.37-.16l-.25-.57c.29-.47.65-.07,1.05.08.03-.27.16-.56-.07-.82.22-.02.43-.03.65-.03-.47.01-.11-.31-.14-.48l.03.16c.18.05.24-.27.28-.43-.24-.12-.5.1-.67.22-.09-.22.07-.39-.01-.68.33.29.47-.24.68-.37.24-.13-.1-.46-.03-.51.17.14.32-.3.41.06,0,.11-.3.01-.25.25.24-.02.51.25.53-.19.02-.34-.65-.52-.11-.72-.02.18.08.31.12.49l.47-.18-.25-.3c.11.03.1.08.16.1-.18-.38.38-.49.15-.89.13-.16.5-.08.68-.17v.05c.32.02.46-.29.45-.63l.04.07c.12-.06.31-.31.3-.57.43.04.98,1.08.96.49.25-.2-.03-.86-.28-.98.62-.14.77-1.05,1.56-.88-.02-.17-.12-.22-.04-.39.78-.36,1.2-1.39,2.18-1.15-.11.27.2.33.33.51-.03-.4.4.16.12-.37-.21-.28-.29-.43-.56-.41.31-.45.94-.85,1.35-.74-.21-.06-.17-.21-.14-.35.28.48.63.35.75.03l-.15-.3.34.19c.03-.15-.29-.66.12-.54.08.1.17.2.26.26.09-.39.17-1.01.59-.94l.48.28c.08-.12.11-.49-.16-.48.61-.03.92-.19,1.29.08.21-1.37,1.32-2.12,2.26-2.6l.11.23c.37.05-.11-.45.16-.41.05.25.46.33.42.7.49.01.22-.65.38-.88-.14-.3-.07.29-.25-.09-.02-.13.62-.07.41-.54.19.11.31.47.37.68l.09-.34c.56.34-.04,1.26.6,1.71l.15-.19c.46.34-.2.82.38.68.08-.34-.12-1.08-.42-1.15.37-.39-.42-1.15.08-1.4.28.17-.35.29-.04.59.44.21.33-.46.61-.46-.32-.03-.4-.58-.3-.74.37.06.09.5.46.34-.09-.28.11-.66-.27-.67-.21-.64.45-.06.38-.61.35.33.2,1.13.69,1.1-.29-.35.16-.8-.38-1.25.22.02.41.31.44.61.35.11.1-1.01.62-.29l-.16-.44c.14.09.29.13.53.27.19-.11.29-.89.62-.29.02-.1.47-.32.06-.63-.41-.09-.13.48-.61.01.46.34.35-.28.42-.53l.16.21c.04-.14.28-.22.19-.5,0,.17.14.31.24.32l-.11-.41c.27-.39.45.56.75.25l-.12.43c.03-.09.34.16.45-.05-.12-.36-.22-.82-.3-1.1.12-.26.3.31.31-.14l-.04.54c.02.13.49.42.75.25.11-.21.11-.83-.27-.85.13-.09.44,0,.47.29.25-.29-.24-.32-.09-.68.23.15.75.26,1.14.45l.03.7.19-.1c0,.57.31.26.44.79.17,0,.23-.25.29-.43-.79-.51-.16-1.23-.65-1.83.41-.47,1.25,1.43,1.18.08-.19-.12-.22-.77-.44-.39.36-.11-.17-.79.37-.73-.12.43.68.5.51,1.13-.1-.24-.32-.04-.34.06.28.18.36.68.68.49.16-.18.43-.35.19-.67-.23-.37-.28.22-.37-.24.32-.36.72.18.5-.59-.22.19-.51-.16-.65-.42l.2-.32.09.28c.57-.08-.12-.54.37-.73l.5.38c.14.49-.77.18-.29.84.31-.14.21-.55.59-.53-.03.1-.1.16-.13.26.12-.04.75.83.86.05.1-.33-.08-.28-.23-.55.43-.35.42-.69.7-.91.23.55.57-.26.53.46-.32-.21-.99.2-.88.79.52.51-.42.13-.17.8.39-.2.71.41.99.76.12-.03.13-.25.16-.35-.16-.39-.3-.31-.52-.68.48-.14.77-.58.8-1.07.24.1.41.5.26.62.44-.39,1.01-.64,1.55-.8-.65-.43.45-.44-.04-.82-.33,0-.79-.3-.8-.65.18-.05.14.27.28.36.02-.44.61.35.52-.28-.35.45.32.78.5,1.3.18-.45.17.34.5.16.18-.45.47-.88.79-1.19.71.19,1.17-.64,1.58-.89.35.12.5.74.78.7.27-.16-.52-.47.02-.44l.02.13c.05-.19.95-.05.65-.88l.19.65c.1.01.1-.16.13-.26.11.19.29.31.23.5.47.26.49-.35.76-.52l-.36-.25c.32-.53.82-.36,1.21-.72l.17.34.16-.35c.11.36.47.44.47.09l-.25,1.21c-.3-.09,0-.52-.31-.79-.26-.23-.63.09-.52.45.18-.05.15-.13.21-.32.31.44.05.55.1.93.07-.06.27.01.21-.14-.04.32-.19.44-.46.61.09-.28-.26-.23-.26-.41.2.42.01.69-.39.77-.5-.34-.47.66-.93.74-.07-.5-.05-.95.1-1.25-.36-.07-.27.16-.63.09.05.38.23.9.01,1.27l-.19-.3c-.21.32.05.77-.37.89-.72.2-1.37.56-1.87.79l-.19-.3c.1.81-.76.74-.96,1.24-.78.05-1.17,1.04-1.78.69-.95.85-1.77,1.61-2.94,2.14l-.07-.55c-.01.44-.28-.18-.44,0,.43.22,0,.62,0,.97-.69-.06-1.12.68-1.38,1.25l-.19-.29c-.11.83-.93.64-1.54.87-.14-.09-.4-.31-.55-.18-.01.66-.19.72-.45,1.28-.32.19-.91.37-1.35.38-.79,1.4-2.28,1.69-3.26,2.86l-.3-.3c-.74,1.48-2.62,1.71-3.38,2.74l-.28-.66c-.43.02-.62.61-.27.98-.44.02-.6.79-1.11.44-.39.1-.21.53-.42.78-.78.2-.99.41-1.51.91l.17-.06c-.02-.17-.18-.42-.36-.36-.12.31-.91.4-.22.94-.9.04-1.22,1.34-2.21,1.23.18.15.06.3.09.47-.51.4-1.34.44-1.52,1.06-.15-.03-.11-.41-.34-.27-.07.16.18.24.11.46-.27.49-.71.73-1.19.94-.23.1-.5.2-.7.31-.15.09-.28.19-.37.33-.14.26-.2.55-.3.8-.14.23-.19.53-.3.79-.19.53-.33,1.15-.33,1.79l-.17-.02c.28.22.15.48.03.73-.12.25-.21.51.31.66-.15.12-.03.42-.36.38.25.16.15.43.13.74-.02.15-.03.33,0,.45.02.08.08.13.23.12.01-.02-.02-.02-.1-.01-.16.15-.1.25-.04.32.06.08.12.12.01.36-.07.03-.12.03-.27.14-.12.17.05.11.16.06.11-.04.17-.07-.14.34.03.06.33-.35.3-.35-.04.4.12.66.29.72.09.03.17.05.26-.02l.27-.52c.05.29.07.76.04,1.07-.02.31-.02.41.12-.16.03.19,0-.45.02-.22.06-.38.26,1.02.31.38-.12-.58,0-.4-.06-.76.25.21.53.57.55.01l.11.26c-.05-.47,0-.63.02-.81.02-.05,0-.07.03-.15.04-.08.07-.16.09-.25.05-.18.06-.38,0-.63,2.46-2.63,4.59-5.39,7.03-7.92,2.59-2.31,4.75-4.97,7.58-7.11,1.07-.08,1.1-.14,1.56-.98.05.11.03.16.15.2-.36-.44.42-.48.1-.93,1-.84,1.75-1.79,2.71-2.73-.11.19.14.6.29.39l-.07-.44.14.08c.06-.18,0-.51-.25-.52,2.06-2.71,5.22-4.21,7.48-6.62.72-.38,1.37-1.32,1.89-1.99,2.33-1.23,4.38-2.38,5.84-4.55,0,0,.79,1.28.27,2.26Z"/>
      <path class="cls-2" d="M62.74,58.25c-.21-.21-.54-.2-.52-.65.15.22.43.41.52.65Z"/>
      <path class="cls-2" d="M54.47,59.47c.03.08-.15-.05-.2-.08.07-.07.04-.32.18-.23-.07.07,0,.18.02.3Z"/>
      <path class="cls-2" d="M52.63,60.31c-.1-.24.18-.62.39-.77l-.39.77Z"/>
      <path class="cls-2" d="M50.49,60.32c-.25-.11-.26-.23-.07-.33.08.11.05.2.07.33Z"/>
      <path class="cls-2" d="M50.66,60.89c-.13.08-.27,0-.41-.1.11.18.25-.3.41.1Z"/>
      <path class="cls-2" d="M46.76,62.28c-.08.07-.15.35-.37.16.19.12.25-.52.37-.16Z"/>
      <path class="cls-2" d="M45.31,63.56c-.06.02-.11-.01-.13.09-.15-.04-.15-.26-.08-.33l.21.24Z"/>
      <polygon class="cls-2" points="21.85 88.74 21.69 88.54 21.94 88.53 21.85 88.74"/>
      <path class="cls-2" d="M32.97,90.85c.03-.26.27.07.32.07-.11.15-.17-.27-.32-.07Z"/>
      <polygon class="cls-2" points="37.87 84.28 37.83 84.33 37.48 83.95 37.87 84.28"/>
    </g>
    <g>
      <path class="cls-2" d="M65.65,59.57c.1-.42-.5-.02-.04-.33.15.15.25.29.04.33Z"/>
      <path class="cls-2" d="M65.03,58.03c-.04,1.87-2.22,2.14-2.68,3.75-.08.16-.47-.55-.63-.16-.3,1.72-2.32,2.83-4.11,3.46l-.07-.22c-.34.12-.16.89-.47,1.06-.1-.1-.05-.22-.24-.29.22.35-.32.57-.21.89-.21-.02-.43-.26-.68-.27l.18.47c.37,1.18-1.02.88-1.16,1.81-.05-.1-.05-.21-.17-.25-.4,1.32-1.58,2.29-2.38,3.41-.08-.16-.25-.41-.43-.48.29.4.08.78-.11,1.1-.47-.25-.13.76-.63.86l-.05-.11c.14.6-.55.11-.29.74l-.42-.15c.39.61-.58.05-.52.49l.11.1c-.06.29-.39.13-.47.37l-.07-.04c-.25.51-.75.44-.35.82-.44-.19.23-.5-.43-.76-.86,1.63-2.23,2.8-3.49,4.04-.3-.02-.44.02-.61-.1-.05.2-.41.53-.32.85.04-.05-.28-.12-.36-.08-.38.07.17.68-.25.75,0-.2-.09-.36-.27-.48.08.52-.25.75-.41,1.1-.03-.11,0-.2-.13-.32.06.62-.58.42-.61.88l-.13-.32c-.66.1.35.59-.15.76.01-.15-.1-.21-.18-.32.09.73-.56,1.08-.74,1.53-.01-.05-.08-.11-.08-.11-.29.39-.78.61-.98,1.16-.24.03-.5-.6-.78-.17.46.45-.44.79.29,1.1-.39.23-1.05.53-1.1.89-.03-.31-.7-.42-.48-.71l-.47-.09c-.15-.22.26-.13-.03-.31-.11.14-.31.69-.5.73.03.52.32,1.26,0,1.69,0-.36-.6-.41-.55-.61l.31,1.41c-.11.15-.38-.34-.45-.03.13.11.12.27.16.42-.1,0-.43.64-.92.24-.23-.12.12-.3-.18-.32-.23.24-.1.4-.33.64l-.06-.06c-.22.09-.28.65.14.73.12-.09-.31-.23-.02-.26.14.37-.06.71-.3.95.01-.15-.12-.26-.21-.42.02.67-.21,1.11-.42,1.61.2.22-.25-.52-.08-.46-.38.07-.51.41-.65.72-.07.15-.14.3-.25.41-.08.08-.16.09-.34.05,0-.07.34.26.28.21-.14.09-.5-.17-.46.01-.23-.13-.05.16-.06.27.13.13-.14-.03-.09-.13.03.12.03.33-.03.51-.07.18-.21.32-.59.43.22.03.7.19.64.22l-.55-.02c-.39.05-.13.18-.66.21.3.04.26-.06.22-.18-.04-.12-.08-.26.07-.15-.53.05.65.25-.09.21-.12.14.49.17-.22.34.13-.04-.77-.01-.85.1-.09.19.25.02.32.14l.19.04c.68-.12-.24.16.6-.05-.3.07-.27.1-.3.15-.08.05-.02.09-.64.24l-.98.22c.2.05,1.17-.16,1.63-.25-.07.03-.23.09-.38.13,1.36-.41.12.14,1.2-.16-.25.24.36.17-.19.55.47-.11.9-.29.86-.11-.11.05-.18.05-.37.18-.14.22.12.07.34,0-.15.09-.22.44-.27.73.39-.15.63-.54.85-.76-.23.35,0,.27.18.17.19-.09.34-.21.27.13-.09.09-.44.31-.38.52-.1.37.09.26.27.09.19-.16.35-.38.44-.18.03-.21.06-.42.1-.63.02.4.34-.34.23.3.06-.22.42.24.39-.38.29.28.67.17,1.01.17.33-.03.62-.01.9.51.07-.11.31-.04.21-.34-.2-.31-.16.27-.25.05.07-.03.06-.2.06-.28.21.12.35.1.28.66.52.26.18-1.13.71-1.01.06.25.13.33.25.23.04-.17.07-.34.09-.51.32-.02.4.46.58.85.15-.13.37-.21.28-.55.15.12.3.24.46.35-.34-.25,0-.31.01-.44l-.02.14c.13.14.25-.07.31-.17-.18-.2-.42-.19-.55-.19-.03-.21.11-.24.08-.48.11.18.21.21.3.18.09-.04.16-.13.22-.16.18-.04-.11-.41-.07-.42.15.16.21-.14.33.17,0,.09-.23-.08-.17.12.18.06.43.35.41,0-.02-.26-.61-.58-.19-.58.02.12.12.25.18.4.13-.02.25-.01.39-.06l-.27-.28c.1.03.1.08.16.1-.22-.36.27-.49-.02-.85.09-.16.44-.1.59-.19v.05c.31,0,.38-.31.3-.6l.06.06c.1-.06.22-.31.14-.57.41-.04,1.19.84,1.01.28.18-.25-.26-.81-.52-.87.53-.26.42-1.11,1.19-1.14-.08-.16-.18-.18-.16-.36.59-.55.62-1.61,1.61-1.68,0,.28.3.24.48.36-.17-.35.43.02-.01-.38-.29-.19-.42-.3-.67-.2.13-.49.53-1.09.95-1.12-.21.02-.24-.13-.26-.27.43.35.7.11.7-.22l-.26-.22.38.06c-.03-.15-.52-.5-.1-.53.12.06.23.13.34.14-.07-.38-.23-.96.17-1.05l.54.07c.03-.14-.1-.48-.34-.37.53-.26.74-.51,1.19-.41-.37-1.31.3-2.39.91-3.22l.2.16c.35-.1-.29-.36-.04-.43.15.21.55.11.69.45.44-.19-.09-.67-.05-.94-.26-.21.07.29-.26.02-.08-.1.51-.32.12-.64.22.02.49.29.63.44l-.07-.33c.66.07.52,1.13,1.3,1.26l.05-.23c.56.1.18.82.64.44-.08-.34-.58-.91-.88-.84.16-.5-.88-.84-.56-1.28.33.03-.17.41.23.54.48,0,.08-.56.32-.67-.3.11-.61-.34-.6-.53.35-.11.31.41.56.1-.21-.21-.2-.63-.54-.47-.48-.47.37-.25.05-.7.46.14.69.91,1.12.67-.41-.18-.23-.77-.91-.93.2-.07.51.1.67.35.36-.06-.38-.93.41-.52l-.34-.31c.17.02.32-.02.59,0,.12-.17-.16-.91.41-.53-.02-.1.26-.49-.25-.58-.4.1.11.48-.52.28.56.1.17-.4.11-.65l.24.12c-.03-.14.14-.32-.07-.52.09.15.26.21.36.17l-.29-.31c.05-.46.66.29.77-.12l.1.43c-.02-.09.37-.01.37-.25-.28-.26-.58-.61-.79-.82-.02-.28.41.13.21-.26l.22.49c.08.1.63.15.78-.12,0-.23-.3-.77-.64-.61.08-.13.38-.2.55.04.08-.36-.36-.17-.4-.55.27.02.77-.12,1.2-.14l.36.59.11-.18c.28.49.4.08.76.48.15-.08.08-.32.04-.51-.93-.08-.73-1-1.45-1.29.12-.6,1.78.66,1.06-.48-.22-.02-.57-.56-.57-.14.26-.26-.53-.6-.04-.8.11.43.84.11.99.73-.2-.16-.3.12-.27.21.33.02.64.42.83.11.05-.23.2-.5-.16-.67-.38-.22-.14.32-.44-.03.1-.46.71-.18.14-.74-.09.27-.52.1-.77-.06v-.37s.23.2.23.2c.45-.34-.37-.4-.05-.8l.61.09c.36.36-.57.52.17.86.2-.27-.1-.57.24-.73.02.1,0,.19.02.28.08-.09,1.06.36.76-.37-.08-.33-.21-.2-.47-.36.19-.5.01-.79.14-1.11.47.36.36-.49.68.14-.39-.03-.75.65-.36,1.1.7.19-.3.31.25.77.23-.36.81.01,1.23.18.09-.09-.02-.28-.04-.38-.34-.26-.41-.12-.79-.34.34-.35.37-.86.15-1.3.26-.03.6.23.54.41.18-.55.54-1.04.92-1.44-.77-.05.16-.6-.45-.69-.28.17-.83.13-1.02-.16.13-.13.26.16.42.17-.21-.39.7,0,.3-.49-.07.56.67.51,1.09.87-.07-.48.32.21.51-.11-.07-.47-.04-.99.06-1.4.7-.19.67-1.13.88-1.54.36-.07.81.38,1.03.2.14-.27-.69-.13-.21-.39l.08.1c-.05-.19.78-.52.09-1.07l.5.45c.09-.04,0-.19-.02-.28.19.1.41.12.46.31.54-.02.23-.55.37-.83l-.44-.02c0-.61.51-.72.64-1.23l.33.2-.05-.38c.29.25.63.13.44-.17l.43,1.15c-.31.08-.28-.44-.68-.51-.34-.06-.49.4-.21.65.13-.14.06-.19,0-.37.49.21.34.44.58.73.03-.09.24-.13.1-.23.13.29.08.47-.07.75-.08-.29-.34-.07-.44-.21.4.26.37.58.07.85-.61-.03-.06.8-.41,1.11-.32-.39-.54-.78-.57-1.11-.35.12-.14.27-.49.39.24.29.66.65.67,1.07l-.31-.16c-.01.37.44.63.14.95-.51.53-.88,1.17-1.2,1.62l-.31-.16c.49.64-.28,1.01-.2,1.54-.64.43-.48,1.48-1.18,1.48-.4,1.19-.72,2.26-1.49,3.28l-.33-.45c.2.39-.33-.02-.38.21.48,0,.29.54.48.84-.63.28-.64,1.13-.6,1.75l-.31-.17c.3.78-.52,1-.94,1.48-.16-.01-.5-.09-.57.09.3.59.17.72.21,1.34-.19.32-.63.75-1.02.95-.07,1.6-1.25,2.53-1.64,4.01l-.4-.14c-.02,1.66-1.64,2.67-1.94,3.92l-.52-.49c-.39.19-.32.82.14,1.02-.39.19-.24.98-.86.85-.33.25,0,.57-.11.89-.66.49-.78.76-1.09,1.44l.14-.12c-.08-.16-.32-.33-.46-.21,0,.34-.75.71.1.98-.86.35-.78,1.73-1.76,1.95.22.09.14.27.21.43-.43.57-1.26.85-1.31,1.54-.16.02-.19-.39-.39-.18-.04.19.23.19.2.44-.19.59-.71.98-1.21,1.32-.25.17-.51.33-.74.5-.24.18-.56.39-.77.63-.18.24-.38.46-.59.69-.22.2-.47.38-.72.56-.25.18-.5.36-.77.51-.27.13-.55.26-.83.38-1.12.49-2.29.67-3.36.82v-.17c-.33.38-.76.21-1.16.09-.4-.12-.76-.2-1.06.26-.08-.17-.81-.14-.59-.45-.44.21-.96,0-1.5-.2-.54-.2-1.08-.36-1.76-.28.09.04.16.03.31,0-.41-.32-.9-.41-1.41-.54-.48-.14-1.01-.29-1.35-.6.16,0,.4.02.58-.09-.05-.34-1.57.11-.93-.5-.2-.08-.58.19-.43.24-.84-.57-1.83-1.02-3.04-1.52l-.46-.19-.12-.05.05-.08.09-.16.36-.63c.24-.43.49-.87.78-1.32,1.63-1.27,1.9-.05,1.84-1.02.27-.06-.36-.09-.13-.08-.02-.19.49-.33.85-.41.39-.09.7-.15.58-.33-.7-.02-.15-.24-.49-.34,1.19-.7,1.72-.59,1.97-1.36l.19.18c0-.53.35-.98.66-1.42.17-.31.32-.61.22-1.11,2.44-2.58,4.55-5.29,6.97-7.77,2.57-2.26,4.7-4.87,7.51-6.96,1.07-.07,1.1-.13,1.54-.95.05.11.03.16.15.2-.36-.44.42-.48.1-.92,1-.82,1.74-1.75,2.68-2.67-.11.19.14.59.29.4l-.07-.44.14.08c.06-.18,0-.51-.25-.52,2.04-2.66,5.18-4.12,7.41-6.48.72-.37,1.36-1.29,1.88-1.96,2.31-1.19,4.34-2.31,5.79-4.45,0,0,.78,1.28.27,2.25Z"/>
      <path class="cls-2" d="M65.46,60.03c-.29-.06-.57.11-.78-.28.25.11.58.12.78.28Z"/>
      <path class="cls-2" d="M59.07,65.25c.07.05-.15.04-.21.03.03-.09-.13-.29.04-.28-.03.09.09.15.17.25Z"/>
      <path class="cls-2" d="M57.93,66.86c-.2-.15-.16-.62-.06-.85l.06.85Z"/>
      <path class="cls-2" d="M56.1,67.9c-.26.03-.34-.07-.23-.25.12.06.15.15.23.25Z"/>
      <path class="cls-2" d="M56.52,68.31c-.07.13-.24.12-.4.11.19.11.06-.37.4-.11Z"/>
      <path class="cls-2" d="M53.85,71.33c-.03.09.04.38-.25.31.22.02-.03-.56.25-.31Z"/>
      <path class="cls-2" d="M53.21,73.1s-.1.04-.07.13c-.16.03-.25-.16-.22-.25l.3.12Z"/>
      <polygon class="cls-2" points="33.94 95.46 34.07 95.36 33.98 95.6 33.94 95.46"/>
      <path class="cls-2" d="M34.94,90.73c.03-.25.27.07.31.08-.11.14-.17-.27-.31-.08Z"/>
      <polygon class="cls-2" points="39.8 84.27 39.76 84.32 39.41 83.94 39.8 84.27"/>
    </g>
    <g class="cls-1">
      <polyline class="cls-2" points="92.21 39.84 82.49 30.36 59.58 52.71 69.3 62.19 92.21 39.84"/>
      <g>
        <path class="cls-2" d="M91.4,40.36c.32.15.18-.44.29.01-.17.11-.33.18-.29-.01Z"/>
        <path class="cls-2" d="M90.97,40.15c.15,1.7-1.8,1.73-2.05,3.16-.06.14-.48-.54-.58-.2-.1,1.53-1.82,2.35-3.37,2.76l-.08-.2c-.29.08-.05.79-.32.92-.1-.1-.07-.2-.25-.29.23.34-.23.49-.11.79-.19-.04-.41-.28-.64-.3l.21.45c.45,1.1-.83.7-.87,1.54-.05-.1-.07-.2-.18-.24-.23,1.17-1.2,1.93-1.81,2.87-.08-.15-.26-.39-.44-.48.3.39.15.71,0,.99-.45-.27-.04.68-.48.72l-.06-.1c.19.56-.48.05-.19.64l-.39-.17c.42.59-.52,0-.42.4l.11.1c-.02.26-.34.08-.39.29l-.07-.05c-.18.44-.63.33-.24.72-.42-.21.16-.44-.46-.73-.62,1.4-1.74,2.34-2.76,3.34-.27-.05-.39-.02-.56-.15-.02.18-.31.45-.21.74.03-.04-.26-.14-.34-.11-.33.03.22.63-.16.66-.02-.18-.12-.34-.29-.46.13.48-.15.66-.26.96-.03-.1-.02-.19-.15-.3.12.57-.48.33-.46.74l-.15-.3c-.59.03.37.57-.06.67,0-.14-.12-.2-.19-.31.16.65-.41.94-.59,1.4,0-.05-.06-.12-.06-.12-.28.38-.67.5-.93,1.11-.17-.03-.22-.88-.47-.47.18.72-.47.83-.15,1.53-.25.13-.58.24-.8.48-.08-.07-.15-.1-.2-.08.13-.21-.09-1.18.12-1.05l-.13-.67c.03-.33.14.26.11-.23-.08-.04-.37.03-.44-.18-.22.33-.6.99-1.02.7.25-.11.16-.83.3-.85-.28.3-.61.55-.99.75-.15-.1.21-.5-.05-.52-.08.16-.21.18-.35.24,0-.1-.68-.44-.32-.97.11-.24.28.09.3-.21-.22-.2-.37-.05-.57-.23l.06-.06c-.06-.19-.56-.17-.67.21.07.1.23-.3.23-.05-.35.18-.64.03-.84-.15.14,0,.25-.14.4-.24-.61.1-.99-.05-1.43-.19-.21.21.49-.29.42-.13-.08-.66-1.18-.33-1.06-1.06.09.01-.27.33-.21.27-.15-.2.16-.51-.07-.5.17-.19-.2-.08-.38-.15-.19.07.06-.12.18-.04-.32,0-1.26-.38-1.39-1.02-.06.06-.22.12-.39.14-.2-.01-.42-.07-.48-.15l.35-.21c.06-.27-.47-.41-.22-.64-.34,0,.02.21.36.38.16.08.32.16.41.2.06.03.06.05-.07.05.16-.31-.99-.08-.5-.36-.25-.23-.91-.25-.83-.69.02.11.69-.09.48-.26-.4-.29-.27,0-.68-.22l-.35-.11c-.41.14-.28-.35-.59-.05.3-.15-.79-.5-.02-.64l.63-.09c-.18-.12-.86-.1-1.26-.18.04-.03.12-.09.23-.1-.98.12-.3-.38-1.27-.5,0-.19-.21-.4-.36-.59.25-.2.51-.38.93-.44-.06-.26-.15-.56.36-.84.02.08-.03.16.16.21.46-.13.25-.21.28-.42.1.06.89-.24,1.35-.31-.01-.31-.51-.41-.74-.53.51.03.56-.18.63-.44.07-.25.17-.54.61-.49,0,.16-.04.56.32.47.43.11.4-.06.38-.3-.03-.23-.05-.55.26-.6l-.55-.35c.11.02.19-.02.25-.08.04-.04.05-.11.07-.17.04-.12.08-.2.29.05-.07-.25.45-.15,0-.56.79-.04.82-1.23,1.85-.7-.01-.13.22-.21-.04-.4-.34-.15.03.31-.17.18.04-.07-.06-.2-.12-.26.23-.03.37-.1.6.39.56-.01-.43-1.04.12-1.24.16.2.26.24.34.1l-.1-.51c.31-.16.54.28.85.58.08-.18.25-.32.08-.61l.54.23c-.39-.17-.07-.29-.09-.43v.14c.16.11.24-.12.27-.23-.2-.17-.43-.1-.57-.08-.07-.2.07-.27,0-.51.27.33.42,0,.55-.06.18-.05-.13-.4-.09-.42.16.15.22-.16.34.15,0,.09-.24-.06-.17.14.19.04.45.32.42-.03-.02-.27-.61-.57-.2-.6.01.13.12.27.18.42l.37-.05-.26-.28c.1.04.1.08.15.11-.22-.35.24-.41-.03-.78.08-.13.42-.03.55-.1v.04c.29.04.35-.23.28-.52l.05.07c.09-.05.21-.25.14-.5.38.04,1.07.98.93.45.17-.18-.21-.78-.46-.88.5-.13.43-.93,1.14-.79-.06-.16-.16-.2-.13-.36.58-.35.67-1.3,1.58-1.12-.02.25.26.28.42.44-.13-.36.39.12.01-.34-.25-.24-.36-.37-.59-.34.15-.41.58-.82.96-.74-.19-.04-.2-.17-.22-.31.37.42.63.28.65-.02l-.21-.26.34.15c-.02-.14-.43-.57-.05-.49.1.09.2.17.3.21-.03-.36-.13-.91.25-.88l.49.21c.04-.11-.04-.45-.28-.42.51-.08.73-.24,1.12-.03-.21-1.25.51-2.01,1.16-2.54l.16.2c.33.01-.23-.4,0-.38.12.22.49.26.57.59.42-.03,0-.6.06-.83-.21-.26.03.27-.24-.06-.06-.11.5-.13.18-.52.2.08.41.39.52.57l-.03-.31c.58.25.34,1.13,1.03,1.48l.08-.18c.49.26.07.76.52.57-.03-.32-.42-.96-.7-.99.2-.39-.7-.99-.36-1.27.29.13-.2.3.15.54.43.14.14-.45.37-.48-.28,0-.51-.48-.48-.64.33.01.23.44.49.26-.17-.24-.11-.6-.43-.57-.38-.55.36-.1.13-.59.4.26.51,1,.93.92-.35-.28-.11-.74-.71-1.08.19,0,.44.24.56.5.33.06-.23-.92.44-.33l-.27-.37c.15.06.29.08.53.19.08-.07.24-1.1.62-.51.02-.12.5-.55.06-.78-.49.07-.14.62-.72.29.55.19.41-.5.52-.85l.18.2c.06-.2.34-.4.28-.73-.01.23.12.35.24.32l-.07-.5c.39-.66.42.59.79.06l-.19.62c.04-.13.33.11.46-.19-.06-.45-.06-1.07-.08-1.46.21-.43.24.35.38-.32l-.19.81c0,.17.39.47.67.18.15-.32.38-1.3,0-1.21.17-.18.44-.12.35.34.34-.51-.11-.44.18-1.05.17.18.61.24.83.52-.1.38-.19.76-.27,1.12l.18-.17c-.21.9.12.41.01,1.25.04,0,.09-.05.13-.14.07,0,.14-.06.21-.11-.15-.73-.06-1.04.1-1.28.15-.24.37-.4.35-.95.67.36.05,2.64.85,1.76-.05-.33.38-.72-.05-.83.34.45.45-.63.84.19-.42.03.08,1.16-.5,1.23.11-.25-.18-.45-.27-.43.06.46-.22.86.08,1.15.2.1.47.33.58-.11.16-.46-.33-.26-.04-.59.5.27.27.98.79.41-.3-.21-.19-.73-.07-1.03l.44.18-.2.21c.47.75.42-.33.97.32-.01.25-.03.5-.06.74-.4.3-.67-.96-.98-.13.3.34.64.1.83.58-.11-.01-.22-.09-.32-.09.12.15-.44,1.1.37,1.02.39.04.26-.15.47-.37.44.3.7.12.94.3-.45.38.31.38-.33.6.14-.35-.33-.76-.83-.46-.2.29-.2.25-.33.1-.11-.14-.26-.32-.53-.08.35.36-.14.84-.41,1.21.05.09.25.02.34,0,.32-.27.23-.36.53-.67.2.35.63.44,1.07.3-.05.24-.38.51-.52.44.42.23.73.61.95,1.01.28-.69.46.22.72-.32-.06-.27.14-.77.45-.9.07.13-.21.21-.27.36.4-.14-.21.63.33.34-.46-.13-.65.55-1.08.88.43,0-.28.27-.06.47.43,0,.86.08,1.18.23-.06.66.76.75,1.04,1-.05.33-.57.68-.49.9.19.17.33-.6.4-.14l-.11.06c.18-.02.2.77.89.22l-.54.39c0,.09.16.03.25.02-.15.16-.23.35-.41.38-.15.49.4.28.59.44l.16-.39c.52.08.45.55.84.74l-.28.27h.34c-.3.23-.31.56,0,.43l-1.11.23c.03-.29.46-.2.65-.54.16-.3-.18-.49-.48-.27.07.13.14.08.32.06-.34.42-.48.25-.81.42.07.04.03.23.16.12-.29.08-.43,0-.61-.16.27-.03.16-.3.32-.37-.34.32-.61.26-.74-.05.22-.54-.66-.16-.81-.51.44-.24.84-.38,1.13-.37,0-.33-.19-.17-.18-.49-.33.18-.76.51-1.12.46l.23-.26c-.32-.06-.68.31-.85,0-.29-.53-.72-.94-1.01-1.29l.23-.26c-.7.36-.78-.37-1.25-.37-.17-.64-1.11-.62-.9-1.25-.22-.12-.44-.24-.65-.36-.16-.07-.3-.13-.42-.2-.26-.13-.46-.29-.67-.58.07-.17.15-.33.23-.48-.21.32.02-.39-.11-.41,0,.57-.27.48-.37.81-.08-.43-.27-.5-.39-.36-.08.22-.13.48-.17.7l-.04-.45c-.07.99-.3.41-.59.53-.08-.13-.25-.42-.31-.3.12.67.05.69.1,1.13-.05.05-.13.08-.24.1-.15.06-.38.15-.55.17-.25,1.35-1.42,1.79-1.92,2.94l-.35-.24c-.19,1.42-1.74,1.81-2.12,2.81l-.43-.57c-.37.06-.36.61.04.92-.37.06-.3.77-.84.49-.31.12-.04.5-.16.74-.63.24-.75.45-1.08.95l.13-.07c-.06-.16-.27-.37-.4-.3-.02.29-.71.42.04.87-.79.09-.77,1.3-1.66,1.25.2.13.12.27.18.42-.38.39-1.12.46-1.16,1.04-.14-.02-.17-.38-.35-.24-.03.15.21.22.18.42-.34.93-1.59.94-2.09,1.58-.72,1.32-1.94,2.2-2.87,3.21l-.11-.13c.12.78-1.23.28-.82,1.23-.19-.04-.35.24-.52-.05.03.13-.07.27-.11.29-.03.01-.09,0-.15,0-.12,0-.28.03-.06.22.02,0,0-.02-.06-.07-.23-.04-.26.04-.27.11-.02.07,0,.12-.28.15-.08-.03-.11-.07-.31-.11-.48.01.76.25-.32.17-.03.04.51.07.5.05-.12.04-.22.1-.29.15.22.29.94.46,1.21.5-.12.22-.35.48-.51.61-.14.15-.26.13.17.13-.07.15.25-.19.14-.07.36.03-.32.96.12.79.29-.41.29-.11.5-.32.18.63-.06,1.03.53,1.07l-.21.16c.89-.17,1.05.54,1.96.23.39.34.79.68,1.19,1l.6.49c.13.11.14.1.16.1h.07c.17.03.28-.03.33-.11.04-.13.04-.21.04-.25.07-.01-.13.2.56-.49l1.45-1.46c.97-.97,1.97-1.93,3.14-2.75.96.04.98-.01,1.3-.72.06.1.04.15.15.19-.37-.43.33-.39,0-.83.82-.65,1.4-1.43,2.16-2.18-.08.16.18.55.3.39l-.1-.41.13.09c.04-.16-.05-.46-.28-.49,1.58-2.23,4.27-3.26,6.06-5.2.61-.27,1.1-1.04,1.5-1.6,1.97-.86,3.69-1.69,4.79-3.5,0,0,.83,1.24.46,2.07Z"/>
        <path class="cls-2" d="M91.08,40.12c.15-.25.09-.53.49-.67-.17.21-.29.5-.49.67Z"/>
        <path class="cls-2" d="M88.64,33.66c-.06.05.02-.14.04-.19.07.04.29-.08.23.07-.07-.04-.16.06-.26.13Z"/>
        <path class="cls-2" d="M87.61,32.43c.19-.16.58-.07.74.05l-.74-.05Z"/>
        <path class="cls-2" d="M87.25,30.62c-.04-.33.12-.34.31-.15-.08.1-.17.12-.31.15Z"/>
        <path class="cls-2" d="M86.72,30.91c-.15-.14-.13-.33-.12-.51-.13.17.45.25.12.51Z"/>
        <path class="cls-2" d="M82.87,26.13c-.09-.07-.27-.02-.37-.3-.02-.01-.04-.04-.05-.08.01.02.03.02.05,0,.14.19.46,0,.37.38Z"/>
        <path class="cls-2" d="M80.94,27.81c-.07.04-.1.01-.16.16-.14-.02-.07-.35.02-.48l.13.31Z"/>
        <polygon class="cls-2" points="60.56 49.1 60.65 48.84 60.81 49.03 60.56 49.1"/>
        <path class="cls-2" d="M64.38,60.03c.23,0-.08.25-.09.29-.12-.08.26-.18.09-.29Z"/>
        <polygon class="cls-2" points="70.49 61.9 70.45 61.94 70.33 61.34 70.49 61.9"/>
      </g>
    </g>
  </g>
</svg>