<?xml version="1.0" encoding="UTF-8"?>
<svg id="Layer_3" data-name="Layer 3" xmlns="http://www.w3.org/2000/svg" viewBox="0 0 126.38 116.43">
  <defs>
    <style>
      .cls-1 {
        opacity: .98;
      }

      .cls-2 {
        fill: #202020;
      }
    </style>
  </defs>
  <g class="cls-1">
    <path class="cls-2" d="M92.54,37.5l-8.55-8.34,6.8-6.64c1.9-1.86,4.99-1.86,6.89,0l1.65,1.61c1.9,1.86,1.9,4.87,0,6.72l-6.8,6.64"/>
    <g>
      <path class="cls-2" d="M91.91,37.98c.19.05.19-.33.2-.04-.14.11-.25.17-.2.04Z"/>
      <path class="cls-2" d="M93.34,37.48c-.36-1.19.96-.92.91-1.86.02-.08.41.45.43.23-.17-1.04.88-1.34,1.87-1.38l.09.15c.19,0-.09-.54.08-.58.08.08.08.15.21.24-.21-.27.08-.3-.05-.53.14.06.32.25.48.31l-.21-.34c-.48-.83.46-.36.35-.93.05.08.08.15.16.19-.02-.77.52-1.15.79-1.7.08.11.24.31.37.4-.27-.31-.21-.51-.16-.68.35.25-.08-.46.22-.42l.05.08c-.21-.41.32.04,0-.4l.29.17c-.41-.44.36.08.19-.21l-.1-.08c-.06-.16.21-.02.18-.15l.06.03c0-.25.33-.19-.07-.42.35.13.04.26.56.46-.01-.88.29-1.47.34-2.19.19-.07.25-.12.43-.13-.09-.08-.07-.29-.32-.35.01.02.24-.05.26-.1.17-.15-.51-.11-.32-.27.13.04.28.05.45.01-.38-.09-.35-.26-.48-.38.08,0,.13.03.27,0-.43-.08.01-.31-.27-.39l.27-.02c.25-.33-.56.09-.43-.15.1.02.19-.03.3-.06-.52-.02-.47-.33-.7-.42.04,0,.1-.04.1-.04-.13-.14-.12-.39-.4-.45.05-.13.56-.35.34-.47-.43.33-.39-.15-.79.34-.04-.17-.06-.5-.29-.46.2-.09.39-.54.54-.46l.14-.32c.17-.15.03.14.2-.09-.07-.04-.38-.04-.37-.16-.33.14-.86.48-1.07.37.23-.07.37-.47.49-.48l-.95.51c-.07-.04.29-.32.11-.29-.1.11-.19.13-.3.19.02-.06-.32-.13.02-.53.12-.17.17,0,.24-.19-.11-.1-.24.03-.35-.06l.05-.05c-.01-.12-.36-.03-.49.25.04.06.2-.25.17-.07-.27.16-.43.14-.51.08.08-.04.18-.15.29-.25-.39.2-.59.22-.81.28-.15.2.31-.34.25-.22.02-.43-.61.2-.51-.33.05-.03-.15.33-.12.26-.07-.06.09-.39-.03-.3.08-.2-.1.03-.19.06-.09.13.02-.1.09-.1-.17.12-.57.33-.7-.01-.03.14-.22.48-.25.47l.07-.33c0-.2-.15,0-.13-.28-.16.38.45-.28.26,0,0-.29-.28.49-.18.05-.1,0-.22.35-.29.04.02.05.12-.46.03-.44-.15.05-.05.16-.17.26l-.07.13c0,.32-.12-.04-.07.32-.02-.27-.17.17-.19-.36v-.42c-.07.03-.08.45-.11.64-.01-.04-.03-.12-.04-.19.06.64-.15-.03-.14.47-.15-.22-.27.04-.43-.34-.05.21-.04.46-.18.36,0-.06.02-.09-.02-.22-.12-.16-.09,0-.11.12-.02-.1-.26-.3-.43-.47-.01.22.17.52.25.71-.37-.54-.01.48-.38.02-.02-.09-.04-.34-.19-.44-.42-.5.09.49-.19.32l.33.41c-.24-.23.04.35-.28-.09.09.17-.23-.03.12.35-.4-.24-.31.65-1.07.11.03.09-.11.11.09.28.25.15-.07-.22.09-.1-.02.04.07.15.12.2-.15-.02-.23.01-.47-.36-.38-.08.45.79.11.83-.14-.16-.21-.21-.25-.12l.15.37c-.19.06-.41-.28-.67-.53-.02.11-.12.18.04.4l-.4-.24c.29.18.1.21.13.31l-.03-.1c-.12-.1-.13.05-.14.12.17.15.31.14.4.14.08.15,0,.17.08.35-.23-.27-.29-.07-.37-.04-.12,0,.15.3.12.31-.13-.13-.12.08-.25-.15-.02-.06.17.08.1-.07-.14-.06-.36-.29-.28-.04.06.19.51.49.23.44-.03-.09-.12-.2-.19-.32l-.24-.02.22.24c-.07-.04-.08-.07-.12-.1.2.28-.1.25.14.54-.03.08-.28-.04-.36-.01v-.03c-.21-.07-.21.11-.12.32l-.05-.05c-.05.02-.11.14-.02.32-.26-.08-.88-.84-.7-.45-.09.1.27.57.45.68-.32,0-.15.58-.65.37.07.12.14.16.14.26-.34.15-.26.79-.9.53-.02-.17-.22-.24-.35-.37.14.27-.27-.16.07.21.22.2.3.31.43.35.03.19-.01.23-.28.11.13.06.19.13.25.19-.38-.28-.5-.26-.39-.14l.25.15-.29-.13c.07.06.54.3.26.2-.11-.05-.22-.1-.3-.13.18.15.56.33.28.26l-.47-.12s.28.13.44.15c-.33-.03-.41,0-.86-.05.68.25.89.3.86.36.03.02.04.04.04.06h-.29c-.24.06.51,0,.33.02-.28.01-.56.07-.91.07-.23.09.55.02.69.02.35-.05-.24.01.21-.04.12-.02-.22.09.29,0-.19.04-.57.11-.78.14l.27-.02c-.53.17-1.16.1-1.85.28l.13.04c-.47.16-.77-.05-.79.14.33.03,1.08-.09,1.26-.18.24.07,1.21-.23,1.23-.16-.26.1-.12-.03-.5.08-.34.15.29.02.19.08.14-.09.62-.21.71-.23-.18.1-.44.13-.44.19.26-.09.47-.14.62-.23.56-.22-.13.09.3-.09-.35.2-.91.37-1.04.51.36-.18.53-.19,1.03-.49-.09.06-.35.22-.58.32-.17.15.65-.32.02.1l.33-.21c-.1.08-.17.14-.32.28.03.04.47-.27.03.11.05-.03.09.04.35-.26.16-.19-.25.17.15-.2-.32.3.07-.01.17-.12l-.16.16c.09-.04.13.07.32-.08-.11.07-.21.19-.22.25l.27-.21c.25,0-.39.46-.19.51l-.28.1c.06-.02-.12.25.02.23.25-.19.54-.43.73-.58.17-.03-.21.28.08.12l-.35.18c-.09.06-.3.43-.2.52.14-.02.54-.25.57-.46.05.04-.01.24-.21.37.18.03.22-.25.45-.3-.11.19-.19.51-.33.8l-.46.28.06.07c-.38.22-.18.27-.53.54,0,.09.15.04.28,0,.36-.63.82-.55,1.23-1.04.3.05-.98,1.23-.09.69.09-.15.51-.41.27-.39.06.16.52-.39.47-.07-.28.09-.35.57-.76.7.16-.14.04-.19-.03-.17-.13.22-.46.45-.35.56.11.02.22.11.43-.15.25-.27-.13-.07.17-.3.23.04-.14.46.37.05-.12-.05.12-.34.3-.52h.21s-.19.14-.19.14c.04.28.36-.27.47-.07l-.26.42c-.33.26-.1-.35-.54.16.08.12.36-.09.33.13-.06.02-.1,0-.17.03.02.05-.57.73-.06.5.22-.07.19-.15.37-.33.22.1.45-.03.58.04-.37.33.15.22-.32.46.15-.26-.11-.47-.5-.19-.35.48-.07-.18-.52.21.12.14-.29.54-.53.84.02.05.16-.03.23-.05.26-.24.21-.28.46-.55.08.21.36.21.68.04-.07.17-.34.41-.42.38.25.09.4.31.49.55.3-.52.28.08.54-.33,0-.18.21-.55.44-.69.03.08-.18.18-.24.29.29-.16-.24.47.17.18-.29-.02-.52.48-.87.77.29-.07-.23.23-.12.34.29-.07.57-.07.77-.02-.14.46.4.4.55.53-.09.24-.5.56-.48.7.1.09.32-.47.29-.16l-.08.06c.13-.04.01.5.57.01l-.43.36c0,.06.1,0,.17-.03-.13.13-.21.28-.34.32-.18.36.23.13.33.22l.17-.29c.34-.03.22.31.46.38l-.23.23.23-.05c-.24.2-.3.43-.06.29l-.79.33c.07-.2.35-.21.52-.48.16-.23-.05-.31-.29-.11.03.08.08.03.21,0-.29.34-.37.24-.62.42.04.02-.01.15.09.06-.21.1-.29.07-.39-.02.19-.06.16-.23.27-.3-.28.28-.46.27-.5.08.23-.41-.43,0-.47-.23.33-.23.63-.39.82-.43.06-.23-.1-.08-.05-.31-.25.17-.6.47-.84.49l.2-.22c-.21,0-.51.32-.58.14-.12-.32-.35-.54-.49-.73l.2-.22c-.53.36-.47-.14-.8-.06-.02-.41-.66-.25-.42-.72-.54-.21-1.02-.37-1.34-.83l.37-.24c-.29.16.13-.22.01-.24-.16.32-.41.23-.64.37.06-.41-.42-.37-.78-.3l.2-.22c-.54.24-.39-.29-.52-.54.06-.11.22-.34.14-.37-.22.12-.34.16-.44.18-.1.02-.2.02-.44,0-.18-.17-.37-.53-.37-.79-.6-.12-1.01-.44-1.38-.76-.38-.33-.7-.66-1.32-.98l.39-.1c-.57-.19-.96-.45-1.26-.72.47-.5,1.2-.94,1.3-1.38l.64.21c.38-.11.21-.43-.29-.52.38-.12.19-.59.8-.5.29-.13-.03-.35.07-.56.61-.28.69-.43.99-.87l-.12.07c.06.13.25.29.36.23,0-.11.17-.22.21-.31.04-.07,0-.18-.28-.39.52.06.32-.78.94-.61-.15-.12-.12-.2-.19-.32.2-.21.69-.14.63-.54.1.04.18.29.28.22,0-.1-.17-.18-.19-.32.09-.59.94-.4,1.18-.76.28-.8.98-1.22,1.46-1.77l.09.11c-.1-.28.09-.27.28-.31.22-.06.4-.13.25-.54.15.04.3-.16.42.1.01-.49.84-.16.95-.76-.04,0-.05.04-.05.12.5.09.65-.46,1.17-.34-.02.07-.08.14-.04.28.23.21.18-.69.46-.07.08-.03-.03-.35-.08-.31.94,0,1.85-.52,2.91-.54.65.51-.14,1.13.48.73.01.14.09-.25.06-.11.25-.14.12.81.34.5.06-.42.15-.2.23-.44.32.4.24.76.65.6l-.11.19c.6-.42.83.09,1.5-.33.24.16.5.29.72.47l.61.45.93.65.46.32.23.16.11.08.16.14c.45.39.87.84,1.19,1.37.56,1.07.98,2.23,1.07,3.44.1,1.2-.12,2.46-.78,3.5-.77.27-.74.27-.85.9-.07-.07-.07-.11-.16-.13.39.29-.19.37.14.67-.29.33-.57.64-.85.96-.18.2-.35.41-.55.61.03-.1-.21-.41-.27-.31l.13.3-.11-.08c0,.1.1.32.26.38-.73,1.29-2.41,1.59-3.32,2.64-.38.09-.59.55-.78.87-1.21.29-2.26.6-2.72,1.67,0,0-.76-.98-.64-1.5Z"/>
      <path class="cls-2" d="M91.73,37.87c.14-.2.14-.38.43-.54-.15.17-.28.39-.43.54Z"/>
      <path class="cls-2" d="M91.06,33.8c-.05.05.03-.1.05-.14.04.02.21-.1.15.01-.04-.02-.12.07-.2.13Z"/>
      <path class="cls-2" d="M90.55,33.1c.16-.14.4-.14.5-.08l-.5.08Z"/>
      <path class="cls-2" d="M90.6,31.93c.08-.18.16-.23.22-.16-.07.09-.14.1-.22.16Z"/>
      <path class="cls-2" d="M90.22,32.23c-.05-.04.01-.15.08-.26-.12.13.19.02-.08.26Z"/>
      <path class="cls-2" d="M89.42,30.59s-.23.05-.09-.15c-.08.15.33-.05.09.15Z"/>
      <path class="cls-2" d="M88.63,30.27s.01-.06-.05-.04c.03-.1.18-.18.22-.17l-.17.21Z"/>
      <polygon class="cls-2" points="92.4 23.29 92.41 23.41 92.3 23.23 92.4 23.29"/>
      <path class="cls-2" d="M96.41,23.51c.13-.06-.1.18-.11.21-.05-.02.19-.18.11-.21Z"/>
      <polygon class="cls-2" points="99.43 25.05 99.41 25.03 99.77 24.78 99.43 25.05"/>
    </g>
  </g>
  <g>
    <g>
      <path class="cls-2" d="M68.13,61.22c.03-.45-.44.11-.08-.32.15.11.26.23.08.32Z"/>
      <path class="cls-2" d="M59.53,54.32c-.99,1.51-3.08.96-4.3,2.14-.15.1-.16-.62-.49-.34-1.11,1.32-3.47,1.56-5.41,1.53l.04-.21c-.37,0-.56.7-.93.75-.04-.11.05-.2-.09-.32.04.37-.56.38-.61.69-.18-.08-.27-.35-.5-.43l-.05.46c-.19,1.12-1.34.44-1.89,1.19,0-.1.05-.2-.05-.26-.95,1.03-2.47,1.5-3.67,2.28,0-.15-.06-.42-.2-.53.11.42-.25.7-.56.92-.34-.33-.43.62-.93.59v-.11c-.11.56-.56-.03-.56.58l-.34-.23c.14.62-.57-.09-.67.31l.06.11c-.16.25-.42.02-.59.22l-.05-.05c-.41.4-.86.24-.62.67-.35-.26.39-.41-.13-.77-.69.65-1.48,1.14-2.24,1.67-.39.25-.78.49-1.17.73-.37.26-.75.52-1.12.78-.28-.04-.43,0-.58-.13-.1.17-.49.5-.44.8.04-.05-.25-.11-.34-.06-.38.09.1.63-.32.71.01-.19-.06-.33-.22-.43.02.46-.28.74-.42,1.11-.03-.1,0-.2-.13-.29.07.59-.54.51-.55.96l-.14-.28c-.63.23.35.5-.12.75,0-.14-.11-.18-.19-.27.06.34-.08.6-.2.88-.12.28-.27.53-.32.77-.02-.04-.09-.08-.09-.08-.2.45-.61.81-.7,1.37-.19.12-.58-.38-.7.16.52.23-.14.91.56.89-.24.36-.77.91-.63,1.26-.15-.26-.71,0-.66-.38l-.4.17c-.21-.11.15-.27-.15-.27-.03.2.04.81-.1.95.26.44.75.88.75,1.42-.19-.3-.63.04-.71-.15.32.33.65.63.98.92,0,.18-.45-.01-.33.26.15,0,.23.12.34.21-.04.03-.02.21-.07.39-.03.18-.11.36-.38.4-.22.08-.12-.3-.32-.1.01.34.2.36.22.69h-.07c-.08.24.25.65.55.39.02-.15-.33.08-.18-.16.33.14.4.5.47.82-.11-.1-.25-.07-.41-.1.5.39.7.81.95,1.24.26-.04-.5-.08-.37-.18-.28.7.81,1.1.4,1.74-.07-.07.35-.15.28-.13.04.29-.31.4-.11.54-.21.09.15.21.29.37.19.04-.08.09-.17-.07.14.1.38.38.59.71.23.33.42.71.41,1.08.12-.07.66.1.72.23l-.33.12c-.12.22.27.41.02.58.53.07-.92-.9-.42-.68-.2.24.78.26.32.4.16.26.63.31.5.72,0-.1-.54.05-.39.24.29.33.21.02.5.24l.24.1c.29-.18.17.34.39,0-.2.21.49.39.01.69l-.39.21c.14.13.55-.03.79-.03-.02.05-.06.14-.12.17.55-.39.23.37.76.21.02.19.19.4.25.51l.22.28s.04.09.06.13l-.28-.34c.06.1.14.25.08.42.34.03.71-.02.88.3-.09.01-.17-.03-.27.08.05.29.2.17.42.19-.1.06.12.56.19.9.37,0,.48-.37.62-.54-.12.7.91.07.9.75-.13.04-.54.08-.41.34-.08.71.73-.17.96.32l.16-.54c.01.41.7,0,.42.48.22-.12.39.37.57-.14.46.74,1.65.34,1.75,1.41.12-.05.34.09.37-.19-.08-.33-.29.16-.29-.07.09.02.15-.13.18-.19.17.17.33.25,0,.63.4.44.73-.77,1.25-.41-.07.21-.05.31.14.32l.4-.33c.36.14.14.53.09.91.23-.04.49.02.62-.25l.21.51c-.16-.37.2-.2.31-.28l-.11.08c.03.18.29.08.41.03-.02-.24-.26-.32-.39-.42.12-.14.28-.11.43-.3-.07.37.32.27.49.31.19.08.22-.33.27-.31,0,.19.31.04.16.31-.07.06-.15-.19-.26-.02.12.15.11.48.38.24.19-.18-.07-.73.31-.49-.09.09-.11.24-.18.37.12.07.24.14.36.18v-.34c.05.08.02.11.04.16.08-.37.52-.17.56-.58.16-.05.38.19.56.21l-.03.03c.23.17.49.04.61-.25v.07c.12,0,.36-.12.45-.35.33.18.39,1.22.6.73.29-.09.27-.71.1-.89.58.13.9-.66,1.53-.34.02-.15-.06-.22.05-.35.77-.12,1.2-1.05,2.06-.77-.12.23.16.3.27.46,0-.35.36.15.15-.32-.18-.25-.24-.38-.49-.38.15-.18.37-.36.6-.47.22-.14.44-.23.63-.19-.18-.04-.16-.17-.14-.31.26.42.58.26.67-.03l-.15-.26.32.14c.02-.14-.3-.55.08-.49.08.08.17.16.26.2.04-.36.12-.87.42-.88l.44.16c.05-.12-.01-.43-.23-.38.48-.13.71-.32,1.1-.18-.19-1.26.47-2.17,1.04-3.04l.17.14c.32-.12-.26-.32-.03-.4.13.19.5.06.61.38.41-.22-.06-.62-.02-.9-.23-.18.06.27-.24.04-.06-.08.46-.37.11-.64.2,0,.44.23.57.36l-.07-.32c.6-.01.47,1.06,1.18,1.1l.05-.24c.51.03.16.8.58.36-.07-.33-.52-.83-.8-.73.14-.51-.81-.72-.51-1.19.3,0-.16.41.21.5.44-.06.08-.55.3-.69-.27.15-.56-.25-.55-.43.32-.15.28.35.51.03-.19-.17-.2-.59-.5-.39-.45-.39.33-.3.02-.69.42.07.66.8,1.03.49-.38-.12-.24-.73-.86-.78.18-.1.46.02.62.24.33-.11-.38-.85.36-.58l-.32-.25c.15-.01.29-.07.54-.08.11-.19-.18-.86.35-.59-.03-.09.2-.53-.26-.53-.36.17.13.45-.45.37.51,0,.13-.43.06-.66l.22.07c-.04-.13.11-.33-.09-.5.09.13.25.16.34.11l-.28-.25c.02-.46.61.17.69-.26l.12.4c-.02-.09.34-.08.32-.31-.26-.21-.56-.5-.76-.66-.03-.27.38.05.17-.29l.23.44c.08.08.58.03.7-.26-.02-.23-.33-.71-.62-.49.06-.15.33-.27.49-.06.04-.38-.34-.1-.4-.46.25-.03.69-.27,1.07-.37l.37.51.09-.2c.29.43.36,0,.72.33.13-.11.05-.34,0-.52-.85.11-.74-.84-1.41-.98.06-.61,1.66.29.92-.69-.2.03-.56-.44-.52-.02.21-.31-.53-.49-.11-.78.13.4.76-.06.96.52-.19-.11-.25.18-.22.27.29-.04.61.29.76-.07.03-.24.13-.54-.21-.63-.36-.13-.09.34-.4.06.05-.48.62-.33.06-.76-.06.29-.45.21-.7.11l-.02-.37.21.16c.37-.43-.37-.32-.11-.78l.56-.04c.36.28-.46.64.23.81.15-.31-.13-.54.15-.78.03.09.01.19.04.28.07-.1.98.12.65-.53-.11-.31-.21-.15-.46-.26.12-.54-.07-.79.02-1.13.46.25.27-.56.62-.01-.35.06-.6.81-.21,1.17.64.03-.24.37.3.71.17-.41.73-.17,1.12-.09.07-.11-.04-.28-.07-.37-.33-.18-.38-.03-.74-.16.27-.42.25-.94,0-1.33.23-.09.56.09.52.29.11-.59.37-1.16.67-1.65-.69.13.08-.63-.48-.58-.23.23-.73.32-.92.08.1-.16.25.1.4.07-.23-.34.63-.16.22-.56,0,.57.66.35,1.07.61-.12-.46.31.13.44-.23-.11-.45-.15-.97-.1-1.41.6-.36.47-1.28.61-1.75.31-.16.76.18.94-.05.09-.31-.63.04-.24-.33l.09.08c-.07-.18.63-.71-.06-1.09l.5.33c.08-.07-.02-.19-.06-.28.18.06.38.01.45.19.47-.15.14-.61.22-.92l-.39.09c-.08-.61.36-.84.41-1.39l.32.12-.09-.36c.29.17.58-.04.37-.28l.53,1.04c-.26.16-.31-.36-.67-.33-.31.03-.38.52-.1.7.1-.17.03-.2-.04-.38.47.09.36.35.61.59.01-.1.19-.19.06-.26.16.26.13.45.04.76-.1-.27-.31.02-.41-.1.38.16.41.49.17.83-.54.12.05.81-.23,1.21-.33-.31-.57-.65-.64-.97-.29.21-.09.31-.39.52.25.23.67.48.72.91l-.3-.08c.04.38.47.53.24.91-.39.66-.65,1.39-.88,1.91l-.3-.08c.51.52-.14,1.08-.01,1.58-.53.58-.28,1.59-.91,1.75-.24,1.29-.44,2.43-1.05,3.63l-.33-.38c.22.35-.3.05-.32.29.43-.11.31.48.5.74-.55.42-.51,1.27-.43,1.88l-.29-.1c.32.72-.4,1.11-.77,1.68-.15.02-.46,0-.51.2.3.54.19.7.25,1.31-.16.36-.56.88-.91,1.15-.01,1.64-1.14,2.78-1.55,4.34l-.37-.09c-.08.85-.49,1.6-1.01,2.28-.27.34-.54.67-.78.99-.23.32-.44.65-.64.98l-.37-.51c-.44.19-.58.85-.2,1.08-.23.1-.38.36-.54.58-.17.18-.36.32-.63.21-.41.18-.24.55-.48.84-.86.34-1.02.64-1.7,1.16l.2-.07c0-.16-.14-.38-.33-.31-.17.3-1.07.44-.42.91-.5.05-.91.39-1.34.71-.44.29-.94.53-1.46.44.15.16-.05.28-.09.44-.38.15-.79.25-1.2.29-.41.05-.77.12-1.05.37-.15-.07.12-.38-.21-.32-.17.12.06.26-.15.43-.6.38-1.31.36-1.99.29-.68-.05-1.31-.15-1.91-.14-2.16.44-4.38-.24-6.28-.83l.07-.13c-.41.15-.74-.11-1.05-.35-.3-.25-.59-.46-1.01-.18-.09-.19-.52-.31-.29-.52-.66.11-1.13-.99-2.02-.96.05.05.1.04.2.03-.48-.67-1.29-.67-1.78-1.39.1,0,.25.05.36-.06-.08-.4-.97.05-.67-.62-.15-.11-.33.2-.22.25-.2-.21-.35-.36-.61-.62l-.24-.24-.11-.18-.07-.12.27.34c-.58-.66-1.07-1.16-1.6-1.74-.52-.57-1.05-1.15-1.48-1.79-.27-1.37,1.01-.64.05-1.3.09-.14-.27.07-.14-.01-.35-.28.46-.91,0-.99-.35.28-.3-.06-.55.04-.07-.85.28-1.15-.26-1.62l.23-.03c-.9-.47-.73-1.44-1.64-1.89-.49-2.1-.75-4.28-.51-6.46.01-.55.18-1.07.27-1.61.13-.53.19-1.09.39-1.59l.58-1.52c.1-.25.2-.51.31-.75l.4-.69c.59-.87,1.1-1.8,1.78-2.55l.96-1.19c.17-.2.3-.4.5-.59l.62-.58c1.68-1.6,3.35-2.5,5.15-3.34,1.09.12,1.13.08,1.88-.6.01.11-.03.15.07.21-.18-.47.59-.36.46-.83,1.3-.5,2.4-1.2,3.7-1.76-.18.14-.12.56.11.42l.13-.4.1.11c.14-.14.22-.45-.01-.52,3.12-1.82,6.74-2.12,9.93-3.38.84-.07,1.87-.64,2.68-1.02,2.71-.22,5.09-.42,7.53-1.64,0,0,.02,1.34-.93,1.94Z"/>
      <path class="cls-2" d="M68.02,61.73c-.27.01-.49.26-.73-.07.23.04.53-.03.73.07Z"/>
      <path class="cls-2" d="M62.99,68.51c.07.03-.13.07-.18.08.02-.1-.15-.26,0-.29-.02.1.1.13.18.2Z"/>
      <path class="cls-2" d="M62.14,70.38c-.2-.11-.21-.58-.15-.83l.15.83Z"/>
      <path class="cls-2" d="M60.6,71.82c-.23.08-.31,0-.23-.2.12.03.15.12.23.2Z"/>
      <path class="cls-2" d="M61.03,72.13c-.05.15-.2.17-.35.2.18.06.02-.38.35-.2Z"/>
      <path class="cls-2" d="M58.89,75.68c-.02.1.06.36-.2.35.2-.03-.07-.55.2-.35Z"/>
      <path class="cls-2" d="M58.45,77.56c-.04.05-.08.06-.06.15-.14.06-.24-.11-.22-.21l.28.06Z"/>
      <polygon class="cls-2" points="34.79 91.58 35.01 91.57 34.88 91.75 34.79 91.58"/>
      <path class="cls-2" d="M27.39,80.51c-.17-.17.19-.15.22-.19.05.16-.28-.03-.22.19Z"/>
      <polygon class="cls-2" points="27.63 72.86 27.61 72.92 27.21 72.7 27.63 72.86"/>
    </g>
    <g>
      <path class="cls-2" d="M63.16,57.99c.27-.26-.36-.25.13-.27.04.18.04.33-.13.27Z"/>
      <path class="cls-2" d="M63.31,57.61c-.03,1.66-1.97,1.92-2.38,3.36-.07.14-.42-.48-.55-.13-.27,1.53-2.06,2.53-3.64,3.11l-.06-.19c-.3.11-.14.79-.42.94-.09-.08-.05-.19-.21-.26.2.31-.28.51-.19.79-.19-.01-.38-.23-.6-.23l.16.42c.33,1.04-.9.79-1.03,1.62-.04-.09-.05-.19-.15-.22-.36,1.18-1.4,2.05-2.11,3.05-.07-.14-.22-.36-.38-.42.26.35.07.69-.1.97-.41-.21-.11.68-.56.77l-.05-.09c.12.53-.48.1-.26.66l-.37-.12c.35.53-.52.05-.46.44l.1.09c-.05.26-.35.12-.42.33l-.06-.04c-.22.45-.66.4-.32.73-.39-.16.2-.45-.38-.67-.76,1.45-1.98,2.51-3.1,3.62-.26-.01-.39.02-.54-.08-.04.18-.36.48-.29.76.03-.04-.25-.11-.32-.07-.33.07.15.6-.22.67,0-.18-.08-.32-.24-.42.07.46-.22.67-.36.98-.02-.09,0-.18-.12-.28.05.55-.51.38-.54.78l-.12-.28c-.59.1.31.52-.13.67.01-.13-.09-.19-.16-.28.08.64-.5.97-.66,1.37-.01-.04-.07-.09-.07-.09-.26.35-.69.55-.87,1.03-.21.03-.44-.53-.69-.14.41.39-.39.7.25.97-.34.21-.93.48-.98.8-.03-.28-.62-.36-.42-.62l-.41-.07c-.14-.19.23-.12-.03-.27-.1.13-.28.62-.45.65.03.46.28,1.11-.01,1.5,0-.32-.53-.35-.49-.53l.28,1.24c-.1.13-.34-.29-.4-.03.11.1.11.23.14.37-.09,0-.38.57-.82.22-.2-.11.1-.27-.16-.28-.21.21-.08.36-.29.57l-.06-.05c-.2.08-.25.57.12.64.11-.08-.27-.2-.01-.23.13.33-.06.63-.26.85,0-.14-.1-.23-.18-.37.02.59-.18.99-.38,1.43.18.19-.22-.46-.07-.41-.33.07-.45.37-.58.65-.08.23-.38.65-.76.64.05-.11.26.27.21.21-.31.26-.5-.1-.6.2-.13-.19-.18.28-.35.54-.03.26-.09-.06.06-.24-.08.22-.36.67-.73,1.13-.18.22-.39.46-.58.62-.19.14-.37.24-.52.26.03.18-.37,1.04-.53,1.14l.07-.52c-.11-.18-.47.43-.46.04-.18.42.12.05.39-.31.27-.36.51-.72.32-.34-.08-.31-.57,1.21-.46.49-.26.24-.61,1.03-.81.78.07.01.32-.87.11-.66-.37.4-.14.33-.48.76-.08.11-.17.31-.22.24-.13.48-.2-.49-.25.23.08-.45-.44-.48-.17-1.19l.22-.53c-.1-.14-.36.31-.53.39,0-.08.02-.24.06-.32-.35.8-.21-.54-.61-.18-.04-.36-.17-.65-.28-.93-.09-.3-.16-.59-.05-.89-.28-.14-.62-.3-.65-.85.08.04.14.14.26.05.07-.41-.09-.33-.27-.51.1-.02.14-.78.3-1.17-.27-.24-.57.03-.79.1.26-.33.09-.53-.1-.79-.19-.25-.36-.57-.09-.76.11.07.41.42.52.09.61-.39-.59-.44-.33-.93l-.54.19c.32-.24-.39-.63.18-.64-.22-.13.13-.54-.41-.45.2-.39.14-.85.12-1.27,0-.43.12-.84.62-1-.08-.12.04-.37-.24-.36-.32.14.19.28-.02.32,0-.1-.15-.14-.22-.16.14-.23.21-.4.63-.11.42-.44-.79-.7-.42-1.36.21.09.29.06.32-.14l-.22-.5c.26-.42.57-.06.93.07.03-.24.14-.5-.06-.72.19-.01.38-.02.57-.03-.41.01-.1-.28-.12-.42l.02.14c.16.04.21-.24.25-.38-.21-.1-.44.09-.59.19-.08-.19.06-.34-.01-.6.29.26.42-.21.6-.32.21-.12-.09-.4-.03-.45.15.12.28-.26.36.05,0,.1-.26,0-.22.22.21-.02.45.22.47-.17.02-.3-.58-.46-.1-.63-.02.15.07.28.11.43l.41-.16-.22-.26c.1.02.09.07.14.09-.16-.33.33-.43.13-.78.11-.14.44-.07.6-.15v.04c.28.02.41-.26.4-.55l.04.06c.1-.05.28-.27.26-.5.38.03.86.95.84.43.22-.18-.03-.76-.25-.86.54-.12.68-.92,1.37-.78-.02-.15-.11-.2-.03-.35.68-.31,1.05-1.23,1.91-1.01-.1.24.18.29.29.44-.03-.35.35.14.11-.33-.19-.24-.26-.38-.5-.36.27-.39.83-.75,1.19-.65-.18-.05-.15-.18-.12-.31.24.42.55.31.66.03l-.14-.27.3.17c.03-.13-.26-.58.1-.47.07.09.15.18.23.23.08-.34.15-.89.52-.82l.42.24c.07-.1.1-.43-.14-.42.54-.03.81-.16,1.13.07.19-1.2,1.16-1.86,1.99-2.29l.09.2c.32.05-.09-.4.14-.36.04.22.4.29.37.62.43.01.19-.57.34-.78-.12-.27-.06.26-.22-.08-.02-.11.54-.06.36-.47.17.1.28.42.33.59l.08-.3c.5.3-.04,1.11.53,1.5l.13-.16c.4.3-.18.72.33.6.07-.3-.1-.95-.37-1.01.32-.34-.37-1.01.07-1.23.25.15-.3.25-.03.52.38.19.29-.41.54-.41-.28-.03-.35-.51-.26-.65.32.05.08.44.4.3-.08-.25.1-.58-.23-.59-.19-.56.4-.05.33-.54.31.29.17.99.61.97-.26-.31.14-.7-.34-1.1.19.02.36.28.39.54.31.1.09-.89.55-.25l-.14-.38c.13.08.26.11.47.24.17-.09.25-.78.55-.25.02-.08.41-.28.05-.56-.36-.08-.11.42-.53.01.4.3.31-.25.37-.46l.14.19c.03-.13.25-.19.17-.44,0,.15.12.27.21.28l-.1-.36c.24-.35.39.49.66.22l-.1.38c.02-.08.3.14.4-.04-.11-.32-.19-.72-.27-.97.11-.23.27.27.27-.12l-.03.47c.02.11.43.37.66.22.1-.19.1-.73-.23-.74.12-.08.39,0,.41.26.22-.26-.21-.28-.08-.59.21.13.66.22,1,.39l.03.61.17-.09c0,.5.27.23.39.69.15,0,.2-.22.25-.38-.7-.45-.14-1.08-.57-1.61.36-.42,1.1,1.25,1.04.07-.16-.11-.2-.68-.38-.35.32-.1-.15-.69.32-.64-.11.38.6.44.45.99-.09-.21-.28-.03-.3.05.24.16.31.6.6.43.14-.16.37-.3.17-.59-.2-.33-.25.19-.33-.21.28-.32.63.16.44-.51-.19.17-.45-.14-.57-.37l.18-.29.08.25c.5-.07-.11-.47.32-.64l.44.33c.12.43-.67.16-.25.74.27-.12.18-.48.52-.46-.02.08-.09.14-.11.23.1-.03.66.73.76.04.08-.29-.07-.25-.2-.48.38-.31.37-.61.61-.8.2.48.5-.22.46.4-.28-.19-.87.18-.77.69.45.45-.37.11-.15.7.34-.18.62.36.87.67.11-.03.11-.22.14-.31-.14-.35-.26-.27-.46-.6.42-.12.68-.51.7-.94.21.09.36.44.23.55.39-.34.89-.57,1.36-.7-.57-.38.4-.39-.03-.72-.29,0-.7-.26-.71-.57.16-.04.13.23.25.31.02-.39.54.31.46-.25-.31.4.28.69.44,1.15.16-.4.15.3.44.14.16-.39.42-.78.69-1.04.63.17,1.03-.56,1.39-.78.31.11.44.65.69.62.24-.14-.46-.41.02-.39l.02.11c.05-.17.83-.04.57-.78l.17.57c.09,0,.09-.14.12-.23.09.16.25.27.21.44.41.23.43-.31.67-.46l-.32-.22c.28-.46.72-.31,1.06-.64l.15.3.14-.31c.1.32.42.39.41.08l-.22,1.06c-.27-.08,0-.46-.27-.69-.23-.2-.56.08-.46.39.16-.04.13-.11.18-.28.27.39.05.49.09.82.06-.06.24.01.18-.13-.04.28-.16.39-.4.53.08-.25-.23-.21-.23-.36.18.37,0,.61-.34.67-.44-.3-.41.58-.82.65-.06-.44-.04-.84.08-1.1-.32-.07-.24.14-.56.08.05.33.2.79.01,1.11l-.16-.26c-.18.28.04.68-.33.78-.63.18-1.21.49-1.65.7l-.17-.26c.09.71-.67.65-.84,1.09-.69.04-1.03.91-1.57.61-.83.75-1.55,1.41-2.59,1.88l-.06-.48c-.01.39-.24-.16-.38,0,.38.2,0,.54,0,.85-.61-.05-.98.6-1.21,1.1l-.17-.26c-.1.73-.82.56-1.35.76-.12-.08-.36-.28-.48-.16-.01.58-.17.63-.39,1.13-.28.16-.8.33-1.18.33-.69,1.23-2,1.49-2.86,2.52l-.27-.26c-.65,1.3-2.3,1.51-2.97,2.41l-.25-.58c-.38.02-.55.54-.24.86-.38.02-.53.7-.98.38-.34.09-.19.47-.37.69-.69.17-.87.36-1.33.8l.15-.05c-.02-.15-.16-.37-.31-.32-.1.27-.8.35-.2.83-.79.03-1.08,1.17-1.94,1.08.16.13.06.26.08.41-.45.35-1.18.39-1.34.93-.14-.02-.09-.36-.3-.23-.06.14.16.21.09.4-.24.43-.62.64-1.05.82-.21.09-.44.18-.61.27-.13.08-.25.17-.32.29-.12.23-.18.48-.27.71-.12.2-.16.46-.26.69-.17.47-.29,1.01-.29,1.57l-.15-.02c.55.37-.59.94.29,1.23-.13.11-.03.37-.32.33.22.14.14.38.11.65-.02.13-.03.29,0,.39.02.07.07.11.2.1.01-.02-.02-.01-.09-.01-.14.13-.08.22-.03.28.05.07.11.11.01.32-.06.03-.11.03-.24.13-.2.34.57-.33.02.35.03.05.29-.31.27-.31-.03.35.11.58.25.64.08.02.15.04.23-.02l.24-.46c.05.25.06.66.04.94-.02.27-.02.36.11-.14.02.17,0-.39.02-.19.05-.33.23.89.27.33-.11-.51,0-.35-.05-.67.22.19.47.5.49,0l.1.23c-.04-.41,0-.56.02-.71.01-.04,0-.06.03-.13.03-.07.06-.14.08-.22.04-.16.05-.34,0-.55,2.16-2.31,4.04-4.74,6.18-6.96,2.28-2.03,4.17-4.37,6.67-6.25.94-.07.97-.12,1.37-.86.05.09.03.14.13.17-.32-.38.37-.43.09-.82.88-.74,1.54-1.57,2.38-2.4-.1.17.12.53.26.35l-.06-.39.12.07c.06-.16,0-.45-.22-.45,1.81-2.38,4.59-3.71,6.58-5.82.64-.33,1.2-1.16,1.67-1.75,2.05-1.08,3.85-2.09,5.13-4,0,0,.69,1.13.24,1.99Z"/>
      <path class="cls-2" d="M62.79,58.25c-.19-.18-.48-.18-.46-.57.13.19.37.36.46.57Z"/>
      <path class="cls-2" d="M55.52,59.32c.03.07-.14-.04-.17-.07.07-.06.03-.28.16-.2-.07.06,0,.15.02.27Z"/>
      <path class="cls-2" d="M53.9,60.05c-.09-.21.16-.54.34-.68l-.34.68Z"/>
      <path class="cls-2" d="M52.02,60.07c-.22-.09-.23-.2-.06-.29.07.1.04.18.06.29Z"/>
      <path class="cls-2" d="M52.17,60.57c-.12.07-.24,0-.36-.09.1.16.22-.26.36.09Z"/>
      <path class="cls-2" d="M48.74,61.79c-.07.06-.14.31-.33.14.16.1.22-.45.33-.14Z"/>
      <path class="cls-2" d="M47.47,62.91c-.05.01-.09,0-.12.08-.14-.04-.13-.23-.07-.29l.18.22Z"/>
      <polygon class="cls-2" points="26.84 85.06 26.7 84.88 26.92 84.88 26.84 85.06"/>
      <path class="cls-2" d="M36.61,86.91c.03-.23.23.06.28.06-.1.13-.15-.24-.28-.06Z"/>
      <polygon class="cls-2" points="40.92 81.14 40.89 81.18 40.58 80.84 40.92 81.14"/>
    </g>
    <g>
      <path class="cls-2" d="M65.36,59.41c.09-.37-.44-.02-.03-.29.13.13.22.26.03.29Z"/>
      <path class="cls-2" d="M64.81,58.05c-.03,1.65-1.95,1.88-2.36,3.3-.07.14-.41-.48-.55-.14-.27,1.51-2.04,2.49-3.61,3.04l-.06-.19c-.3.11-.14.78-.41.93-.08-.08-.05-.19-.21-.26.19.31-.28.5-.19.79-.18-.02-.37-.23-.6-.23l.16.42c.33,1.04-.9.77-1.02,1.59-.04-.09-.05-.19-.15-.22-.35,1.17-1.39,2.01-2.09,3-.07-.14-.22-.36-.38-.42.26.35.07.68-.1.97-.41-.22-.11.67-.55.76l-.05-.09c.12.53-.48.09-.25.65l-.37-.13c.35.53-.51.05-.46.43l.09.09c-.05.26-.35.11-.42.33l-.06-.04c-.22.44-.66.38-.31.73-.39-.16.2-.44-.38-.67-.76,1.43-1.96,2.47-3.07,3.55-.26-.02-.38.02-.54-.09-.04.18-.36.47-.28.75.03-.04-.24-.11-.32-.07-.33.06.15.6-.22.66,0-.18-.08-.32-.24-.42.07.46-.22.66-.36.96-.02-.09,0-.18-.12-.28.05.55-.51.37-.54.77l-.12-.28c-.58.09.31.52-.13.67.01-.13-.09-.19-.16-.28.08.64-.49.95-.65,1.35-.01-.04-.07-.09-.07-.09-.26.34-.69.53-.86,1.02-.21.03-.44-.53-.69-.15.4.39-.38.69.25.97-.34.2-.92.47-.97.78-.03-.27-.61-.37-.42-.62l-.41-.08c-.14-.19.23-.12-.03-.27-.1.13-.28.61-.44.64.03.45.28,1.1,0,1.49,0-.31-.52-.36-.48-.53l.27,1.24c-.1.13-.34-.3-.4-.03.11.1.1.23.14.37-.09,0-.38.56-.81.21-.2-.11.1-.26-.16-.28-.21.21-.08.35-.29.56l-.06-.05c-.2.08-.24.57.12.64.11-.08-.27-.2-.01-.23.13.33-.06.63-.26.84,0-.13-.1-.23-.18-.37.02.59-.18.98-.37,1.41.18.19-.22-.46-.07-.4-.33.06-.45.36-.57.63-.06.14-.13.27-.22.36-.07.07-.14.08-.3.05,0-.06.3.23.25.18-.13.08-.44-.15-.4,0-.2-.12-.04.14-.05.24.12.11-.13-.03-.08-.11.03.1.03.29-.03.45-.06.16-.19.28-.52.38.19.02.61.17.56.19l-.48-.02c-.35.05-.12.16-.58.19.27.04.23-.06.19-.16-.04-.11-.07-.23.06-.13-.46.04.57.22-.08.19-.11.12.43.15-.2.3.11-.03-.68,0-.75.09-.08.17.22.02.28.12l.17.03c.6-.11-.21.14.53-.05-.26.06-.23.09-.26.13-.07.04-.02.08-.57.21l-.86.19c.17.04,1.03-.14,1.44-.22-.06.03-.2.08-.33.12,1.19-.36.11.13,1.06-.14-.22.21.31.15-.17.49.42-.1.79-.25.76-.1-.1.04-.16.04-.33.16-.12.19.11.06.3,0-.13.07-.19.38-.23.64.34-.13.55-.47.75-.67-.2.31,0,.24.16.15.17-.08.3-.19.24.11-.08.08-.39.27-.34.45-.08.33.08.23.24.08.16-.14.31-.33.39-.16.02-.18.05-.37.09-.55.02.35.3-.3.21.26.06-.2.37.21.34-.33.26.24.59.15.88.15.29-.03.55-.01.79.45.06-.1.27-.03.18-.3-.18-.27-.14.24-.22.04.07-.02.06-.17.05-.25.18.11.31.09.25.58.45.23.16-.99.62-.89.05.22.11.29.22.2.03-.15.06-.3.08-.45.28-.02.35.4.51.75.13-.12.32-.18.24-.48.13.11.26.21.4.31-.3-.22,0-.27.01-.39v.12c.1.12.21-.07.26-.15-.16-.18-.37-.16-.48-.17-.02-.18.1-.21.07-.42.19.33.36.08.46.02.16-.03-.1-.36-.06-.37.13.14.19-.12.29.15,0,.08-.2-.07-.15.11.16.05.38.3.36,0-.02-.23-.53-.51-.17-.51.01.11.11.22.16.35.11-.01.22-.01.34-.05l-.24-.24c.09.03.09.07.14.09-.2-.31.23-.43-.02-.75.08-.14.39-.08.52-.17v.04c.27,0,.34-.27.26-.53l.05.05c.09-.05.2-.27.12-.5.36-.04,1.04.74.89.25.16-.22-.23-.71-.46-.76.47-.23.37-.97,1.05-1-.07-.14-.16-.15-.14-.32.52-.48.54-1.42,1.41-1.48,0,.25.27.21.43.32-.15-.31.38.02-.01-.33-.26-.16-.37-.26-.59-.18.11-.43.47-.96.84-.98-.18.01-.21-.11-.23-.24.38.3.62.09.61-.2l-.23-.2.34.05c-.03-.13-.46-.44-.09-.46.1.06.21.11.3.12-.06-.34-.21-.84.15-.92l.48.06c.02-.12-.09-.42-.3-.33.47-.23.65-.45,1.05-.36-.33-1.15.26-2.1.8-2.83l.17.14c.31-.09-.26-.32-.04-.38.14.18.49.1.6.4.39-.16-.08-.59-.04-.83-.23-.19.06.25-.23.02-.07-.09.45-.28.11-.56.19.02.43.25.56.39l-.07-.29c.58.06.46.99,1.14,1.11l.05-.2c.49.09.16.72.56.39-.07-.3-.51-.8-.78-.74.14-.44-.78-.74-.49-1.12.29.03-.15.36.21.47.42,0,.07-.49.28-.59-.26.1-.54-.3-.53-.46.31-.09.27.36.49.09-.19-.18-.18-.55-.47-.42-.42-.41.33-.22.05-.61.4.12.61.8.98.59-.36-.16-.2-.68-.8-.82.17-.06.44.09.59.31.32-.05-.33-.81.36-.46l-.3-.27c.15.01.28-.01.52,0,.11-.15-.14-.8.36-.46-.02-.08.22-.43-.22-.51-.36.09.1.42-.46.25.49.09.15-.36.1-.57l.21.1c-.03-.13.12-.28-.06-.46.08.13.23.18.32.15l-.25-.27c.04-.41.58.25.68-.11l.09.38c-.02-.08.33-.01.32-.22-.24-.23-.51-.54-.69-.72-.01-.25.36.11.18-.23l.2.43c.07.09.55.13.69-.1,0-.21-.26-.68-.56-.54.07-.12.34-.18.48.04.07-.32-.32-.15-.35-.48.24.02.68-.11,1.06-.12l.32.52.1-.16c.25.43.35.07.67.42.13-.07.07-.28.03-.45-.82-.07-.65-.88-1.28-1.13.11-.53,1.56.58.93-.42-.19-.02-.5-.49-.5-.12.23-.23-.47-.53-.04-.7.09.38.74.1.87.65-.18-.14-.26.1-.24.19.29.02.56.37.73.1.05-.2.18-.44-.14-.59-.33-.19-.12.28-.39-.03.09-.4.62-.16.12-.65-.08.24-.45.09-.68-.05v-.33s.2.18.2.18c.39-.3-.33-.36-.04-.7l.54.08c.32.31-.5.46.15.75.17-.23-.09-.5.21-.64.02.08,0,.16.02.25.07-.08.93.31.67-.32-.07-.29-.19-.18-.41-.32.17-.44,0-.7.13-.98.41.32.31-.43.6.12-.34-.02-.66.57-.32.96.61.17-.26.27.22.67.2-.31.71,0,1.08.16.08-.08-.01-.25-.04-.33-.3-.23-.36-.11-.7-.3.3-.31.33-.76.14-1.14.23-.03.53.2.47.36.16-.48.47-.92.81-1.27-.68-.04.14-.53-.4-.6-.25.15-.73.12-.89-.14.11-.12.23.14.37.15-.18-.34.62,0,.27-.44-.06.49.59.45.96.76-.06-.42.28.18.45-.1-.06-.42-.04-.87.05-1.23.62-.17.59-.99.78-1.35.32-.06.71.33.9.18.13-.24-.6-.12-.19-.34l.07.09c-.05-.17.68-.46.08-.94l.44.4c.08-.04,0-.17-.02-.25.17.09.36.1.41.27.47-.01.21-.48.33-.73l-.38-.02c0-.54.44-.63.56-1.08l.29.18-.04-.33c.25.22.56.11.39-.15l.37,1.01c-.27.07-.25-.38-.6-.44-.3-.05-.43.35-.18.57.11-.12.05-.16,0-.33.43.19.3.39.51.65.02-.08.21-.11.09-.2.12.26.07.42-.06.66-.07-.25-.3-.06-.38-.19.35.22.33.51.06.75-.53-.03-.05.7-.36.97-.28-.35-.47-.69-.5-.98-.3.11-.13.24-.43.35.21.26.58.57.59.94l-.28-.14c0,.33.39.56.13.83-.45.47-.77,1.03-1.05,1.43l-.27-.14c.43.56-.24.89-.17,1.35-.57.38-.42,1.3-1.04,1.3-.35,1.05-.63,1.99-1.31,2.89l-.29-.39c.18.34-.29-.02-.33.18.42,0,.26.47.42.74-.56.25-.56.99-.53,1.54l-.27-.15c.26.68-.46.88-.83,1.3-.14-.01-.44-.08-.5.08.27.52.15.64.18,1.18-.17.28-.55.66-.9.84-.06,1.41-1.1,2.23-1.44,3.52l-.35-.12c-.01,1.46-1.44,2.35-1.7,3.45l-.46-.43c-.34.17-.28.72.13.89-.34.17-.21.86-.76.75-.29.22,0,.51-.1.79-.58.43-.68.67-.96,1.26l.12-.11c-.07-.14-.28-.29-.41-.19,0,.3-.66.62.09.86-.76.31-.68,1.52-1.55,1.72.2.08.12.24.19.38-.38.5-1.11.75-1.15,1.36-.14.01-.17-.34-.34-.16-.03.17.2.17.17.39-.17.52-.63.86-1.06,1.16-.22.15-.45.29-.65.44-.21.15-.49.34-.68.55-.16.21-.33.41-.52.6-.2.18-.41.34-.63.5-.22.16-.44.31-.68.45-.24.12-.49.23-.73.33-.99.43-2.01.59-2.96.72v-.15c-.29.33-.67.18-1.02.08-.35-.1-.67-.17-.93.23-.07-.15-.72-.12-.52-.4-.39.19-.85,0-1.32-.18-.47-.18-.95-.31-1.55-.24.08.04.14.03.28,0-.36-.28-.8-.36-1.24-.48-.43-.12-.89-.25-1.18-.53.14,0,.35.02.51-.08-.04-.3-1.38.1-.81-.44-.18-.07-.51.17-.37.21-.74-.5-1.61-.89-2.68-1.33l-.4-.17-.1-.04.04-.07.08-.14.32-.56c.21-.38.44-.76.68-1.16,1.44-1.11,1.67-.05,1.62-.9.23-.05-.32-.08-.12-.07-.02-.17.43-.29.75-.36.34-.08.62-.14.51-.29-.61-.02-.13-.21-.43-.3,1.05-.62,1.51-.51,1.73-1.2l.17.16c0-.46.31-.86.58-1.25.15-.27.28-.54.19-.97,2.15-2.27,4-4.65,6.13-6.83,2.26-1.99,4.14-4.28,6.61-6.12.94-.06.96-.11,1.36-.83.05.09.03.14.13.17-.32-.38.37-.42.09-.81.88-.72,1.53-1.54,2.36-2.35-.09.17.12.52.26.35l-.06-.39.12.07c.06-.16,0-.45-.22-.45,1.8-2.34,4.55-3.62,6.52-5.7.63-.32,1.19-1.13,1.65-1.72,2.03-1.04,3.82-2.03,5.09-3.91,0,0,.69,1.13.24,1.98Z"/>
      <path class="cls-2" d="M65.18,59.81c-.26-.06-.5.1-.69-.24.22.09.51.11.69.24Z"/>
      <path class="cls-2" d="M59.57,64.4c.06.04-.14.03-.18.03.03-.08-.12-.25.03-.25-.03.08.08.13.15.22Z"/>
      <path class="cls-2" d="M58.56,65.82c-.18-.14-.14-.54-.05-.75l.05.75Z"/>
      <path class="cls-2" d="M56.95,66.73c-.23.02-.3-.06-.2-.22.11.05.13.13.2.22Z"/>
      <path class="cls-2" d="M57.33,67.09c-.06.12-.21.11-.35.1.17.09.06-.33.35-.1Z"/>
      <path class="cls-2" d="M54.97,69.75c-.03.08.04.33-.22.27.19.01-.03-.49.22-.27Z"/>
      <path class="cls-2" d="M54.42,71.3s-.09.03-.06.12c-.14.03-.22-.14-.2-.22l.26.1Z"/>
      <polygon class="cls-2" points="37.46 90.97 37.58 90.88 37.5 91.09 37.46 90.97"/>
      <path class="cls-2" d="M38.35,86.81c.03-.22.23.06.28.07-.1.13-.15-.24-.28-.07Z"/>
      <polygon class="cls-2" points="42.62 81.13 42.58 81.17 42.28 80.83 42.62 81.13"/>
    </g>
    <g class="cls-1">
      <polyline class="cls-2" points="88.71 42.05 80.17 33.72 60.01 53.37 68.56 61.71 88.71 42.05"/>
      <g>
        <path class="cls-2" d="M88,42.51c.28.13.16-.39.26.01-.15.1-.29.16-.26-.01Z"/>
        <path class="cls-2" d="M87.62,42.33c.13,1.49-1.58,1.52-1.81,2.78-.05.12-.42-.48-.51-.18-.09,1.35-1.6,2.07-2.96,2.43l-.07-.18c-.26.07-.05.69-.28.81-.08-.08-.06-.18-.22-.25.21.3-.2.43-.09.7-.17-.03-.36-.24-.56-.27l.18.39c.4.97-.73.62-.77,1.35-.05-.09-.06-.18-.16-.21-.2,1.02-1.05,1.7-1.59,2.53-.07-.13-.23-.34-.39-.42.27.34.13.63,0,.87-.39-.24-.04.6-.42.64l-.05-.09c.16.49-.42.04-.17.57l-.34-.15c.37.52-.46,0-.37.35l.09.09c-.02.23-.3.07-.34.26l-.06-.04c-.16.38-.56.29-.21.63-.37-.19.14-.38-.41-.64-.54,1.23-1.53,2.06-2.42,2.94-.24-.04-.35-.02-.5-.13-.02.16-.28.39-.18.65.02-.04-.23-.12-.3-.09-.29.03.2.56-.14.58-.02-.16-.1-.3-.26-.41.11.42-.13.58-.23.84-.03-.09-.02-.16-.13-.27.1.5-.42.29-.41.65l-.13-.26c-.52.03.33.5-.05.59,0-.12-.1-.18-.17-.27.14.58-.36.83-.52,1.23,0-.05-.05-.11-.05-.11-.25.33-.59.44-.82.97-.15-.03-.19-.77-.41-.41.16.63-.41.73-.13,1.34-.22.12-.51.21-.71.43-.07-.06-.13-.09-.18-.07.12-.19-.08-1.04.11-.93l-.11-.59c.03-.29.12.23.09-.21-.07-.04-.33.03-.39-.16-.2.29-.53.87-.89.61.22-.09.14-.73.27-.74-.25.26-.54.48-.87.66-.13-.09.19-.44-.05-.46-.07.14-.19.16-.3.21,0-.09-.6-.39-.28-.85.1-.21.25.08.26-.18-.19-.18-.33-.05-.5-.21l.05-.06c-.05-.17-.5-.15-.59.19.07.09.2-.27.21-.04-.3.15-.56.03-.74-.14.12,0,.22-.12.35-.21-.53.09-.87-.05-1.25-.17-.19.19.43-.25.37-.11-.07-.58-1.04-.29-.94-.94.08,0-.24.29-.19.24-.13-.18.14-.44-.06-.44.15-.17-.18-.07-.33-.13-.17.06.05-.1.16-.03-.28,0-1.11-.33-1.22-.9-.05.06-.2.1-.34.12-.18-.01-.37-.06-.42-.13l.31-.19c.05-.24-.42-.36-.19-.56-.3,0,.02.19.31.33.14.07.29.14.36.18.06.03.06.04-.06.04.14-.27-.87-.07-.44-.31-.22-.2-.8-.22-.73-.6.02.1.61-.08.42-.23-.35-.26-.24,0-.6-.19l-.31-.1c-.36.12-.25-.3-.52-.04.26-.13-.7-.44-.02-.56l.55-.08c-.16-.11-.75-.08-1.11-.16.03-.03.1-.08.2-.09-.86.1-.26-.33-1.12-.44,0-.16-.18-.35-.32-.52.22-.18.45-.33.81-.38-.06-.23-.13-.5.32-.73.02.07-.03.14.14.18.41-.12.22-.19.25-.37.09.05.78-.21,1.19-.27,0-.27-.45-.36-.66-.47.45.03.49-.16.55-.39.06-.22.15-.48.54-.43,0,.14-.04.49.28.42.38.09.36-.05.33-.26-.03-.21-.05-.48.23-.52l-.48-.31c.1.02.17-.01.22-.07.03-.04.05-.1.06-.15.03-.1.07-.17.25.04-.06-.22.4-.13,0-.49.69-.04.72-1.09,1.62-.62,0-.12.19-.18-.03-.35-.3-.13.03.28-.15.16.04-.06-.06-.17-.1-.23.2-.02.32-.09.53.34.49-.01-.37-.92.1-1.09.14.17.23.21.3.09l-.08-.45c.28-.14.48.25.75.51.07-.16.22-.28.07-.53l.47.21c-.34-.15-.07-.25-.08-.37v.12c.14.09.21-.11.24-.2-.18-.15-.38-.09-.5-.07-.06-.18.06-.24,0-.45.23.29.37,0,.49-.05.16-.04-.12-.35-.08-.37.14.14.19-.14.3.13,0,.08-.21-.06-.15.12.17.04.4.28.37-.03-.02-.24-.54-.5-.17-.53.01.12.1.23.16.37l.32-.05-.23-.25c.09.04.09.07.13.1-.19-.31.21-.36-.02-.69.07-.12.37-.03.48-.09v.04c.25.03.31-.21.25-.46l.05.06c.08-.04.19-.22.12-.44.33.03.94.86.82.39.15-.16-.19-.68-.4-.78.44-.11.38-.82,1-.7-.06-.14-.14-.17-.11-.31.51-.31.59-1.14,1.39-.98-.02.22.23.25.37.39-.11-.31.34.11.01-.3-.22-.21-.32-.33-.52-.3.13-.36.51-.72.84-.65-.17-.03-.18-.15-.19-.27.32.37.56.24.57-.02l-.19-.23.3.13c-.01-.12-.38-.5-.04-.43.09.08.18.15.26.19-.03-.31-.11-.8.22-.77l.43.19c.03-.1-.04-.39-.24-.37.45-.07.64-.21.98-.03-.19-1.1.45-1.77,1.02-2.23l.14.17c.29.01-.2-.35,0-.34.1.2.43.22.5.52.37-.03,0-.53.05-.73-.18-.23.02.24-.21-.05-.05-.1.44-.11.16-.46.17.07.36.35.46.5l-.03-.27c.51.22.3,1,.9,1.3l.07-.16c.43.23.06.67.46.5-.03-.28-.37-.84-.62-.87.17-.34-.62-.87-.31-1.12.26.11-.18.26.13.47.38.13.12-.4.33-.42-.25,0-.45-.42-.42-.56.29.01.2.39.43.23-.15-.22-.09-.53-.38-.5-.33-.48.32-.09.12-.52.35.23.45.88.81.81-.31-.25-.1-.65-.62-.95.17,0,.39.21.5.44.29.05-.2-.8.38-.29l-.24-.33c.13.06.25.07.47.17.07-.06.21-.96.55-.45.02-.1.44-.48.05-.68-.43.06-.12.54-.63.25.49.17.36-.44.46-.74l.15.18c.05-.18.3-.35.24-.65-.01.2.11.31.21.29l-.06-.44c.34-.58.37.52.7.05l-.16.55c.04-.12.29.1.41-.17-.06-.4-.06-.94-.07-1.29.19-.38.21.31.34-.28l-.17.71c0,.15.34.41.59.16.13-.28.33-1.14,0-1.07.15-.15.38-.11.31.3.3-.45-.1-.39.16-.93.15.15.54.21.73.46l-.24.99.16-.15c-.18.79.11.36.01,1.1.04,0,.08-.05.12-.13.06,0,.12-.06.18-.1-.13-.64-.05-.92.09-1.12.13-.21.33-.35.31-.84.59.32.04,2.33.75,1.54-.05-.29.34-.63-.04-.73.3.4.4-.55.74.16-.37.02.07,1.02-.44,1.08.09-.22-.16-.39-.23-.37.05.41-.19.76.07,1.01.18.09.41.29.51-.1.14-.4-.29-.22-.03-.52.44.24.23.86.7.36-.27-.19-.17-.64-.06-.9l.39.16-.18.18c.41.66.37-.29.85.28-.01.22-.03.44-.05.65-.35.26-.59-.85-.86-.12.26.3.56.09.73.51-.1-.01-.19-.08-.28-.08.1.13-.39.97.33.9.34.03.23-.13.41-.32.38.26.61.11.83.26-.4.34.27.34-.29.53.12-.3-.29-.67-.73-.41-.17.26-.18.22-.29.09-.1-.12-.23-.28-.46-.07.31.32-.13.74-.36,1.06.04.08.22.02.3,0,.29-.24.2-.31.47-.59.17.31.55.39.94.26-.05.21-.33.45-.45.38.37.2.64.54.84.89.25-.61.41.2.64-.28-.05-.24.12-.67.39-.79.06.12-.19.19-.24.32.35-.12-.19.56.29.3-.4-.12-.57.48-.95.77.38,0-.24.23-.06.42.37,0,.75.07,1.04.21-.05.58.66.66.91.88-.04.29-.5.6-.43.79.17.15.29-.53.35-.13l-.1.05c.16-.02.17.68.78.19l-.48.35c0,.08.14.02.22.01-.13.14-.2.31-.36.33-.14.43.35.25.52.39l.14-.34c.46.07.4.49.74.65l-.24.23h.29c-.27.2-.27.49,0,.38l-.98.2c.03-.25.41-.17.57-.48.14-.27-.16-.43-.43-.24.07.12.12.07.28.05-.3.37-.42.22-.71.37.06.03.03.2.14.11-.25.07-.37,0-.54-.14.23-.03.14-.26.28-.32-.3.28-.54.23-.65-.04.19-.48-.58-.14-.71-.45.38-.21.73-.34.99-.32,0-.29-.17-.15-.16-.44-.29.16-.67.45-.99.41l.21-.23c-.28-.05-.6.28-.75,0-.26-.46-.63-.83-.89-1.13l.2-.23c-.62.32-.69-.33-1.1-.32-.15-.56-.98-.54-.79-1.1-.2-.11-.38-.21-.57-.32-.14-.06-.26-.11-.37-.17-.23-.12-.41-.25-.59-.51.06-.15.13-.29.21-.43-.18.28.02-.34-.09-.36,0,.5-.24.42-.33.72-.07-.37-.24-.44-.35-.32-.07.2-.12.42-.15.61l-.04-.4c-.06.87-.27.36-.51.47-.07-.11-.22-.37-.27-.27.11.59.04.61.09.99-.04.04-.12.07-.21.09-.13.05-.33.14-.49.15-.22,1.19-1.25,1.57-1.69,2.59l-.31-.21c-.17,1.25-1.53,1.6-1.86,2.47l-.37-.5c-.32.05-.32.54.04.81-.32.05-.27.68-.74.43-.27.11-.04.44-.14.65-.55.21-.66.39-.95.83l.12-.06c-.05-.14-.24-.33-.35-.27-.02.26-.62.37.03.77-.69.08-.67,1.14-1.46,1.1.17.11.1.23.16.37-.34.34-.99.4-1.02.91-.13-.02-.15-.33-.31-.21-.03.14.18.19.16.37-.29.81-1.4.82-1.84,1.39-.63,1.16-1.71,1.94-2.53,2.83l-.09-.12c.11.69-1.08.25-.72,1.08-.17-.03-.31.21-.46-.05.02.12-.06.24-.09.26-.03.01-.08,0-.14,0-.11,0-.24.03-.05.2.02,0,0-.02-.05-.06-.43-.04-.04.21-.48.23-.07-.02-.1-.06-.27-.1-.42.01.67.22-.28.15-.03.03.45.06.44.04-.11.04-.19.08-.26.13.19.25.83.4,1.06.44-.11.19-.31.42-.45.54-.12.14-.23.12.15.11-.06.14.22-.17.12-.06.32.03-.28.84.1.69.26-.36.25-.1.44-.28.16.55-.05.9.46.94l-.18.15c.78-.15.92.47,1.72.2.35.3.7.59,1.05.88l.53.43c.12.1.12.09.14.09h.06c.15.03.25-.03.29-.1.03-.12.04-.19.04-.22.06-.01-.12.17.49-.43l1.28-1.29c.85-.86,1.73-1.69,2.76-2.41.84.03.86-.01,1.14-.63.05.09.04.13.13.17-.32-.38.29-.35,0-.73.72-.57,1.23-1.26,1.9-1.92-.07.14.16.49.27.34l-.09-.36.12.08c.04-.14-.04-.41-.24-.43,1.39-1.96,3.75-2.87,5.33-4.57.54-.23.97-.92,1.32-1.41,1.73-.76,3.25-1.49,4.21-3.08,0,0,.73,1.09.41,1.82Z"/>
        <path class="cls-2" d="M87.71,42.3c.13-.22.08-.46.43-.59-.15.18-.26.44-.43.59Z"/>
        <path class="cls-2" d="M85.57,36.62c-.06.05.01-.13.03-.17.06.03.25-.07.2.06-.06-.03-.14.06-.23.11Z"/>
        <path class="cls-2" d="M84.67,35.54c.17-.14.51-.06.65.04l-.65-.04Z"/>
        <path class="cls-2" d="M84.35,33.94c-.03-.29.11-.3.27-.13-.07.09-.15.11-.27.13Z"/>
        <path class="cls-2" d="M83.89,34.2c-.13-.12-.11-.29-.1-.45-.12.15.4.22.1.45Z"/>
        <path class="cls-2" d="M80.5,29.99c-.08-.06-.23-.02-.33-.26-.02,0-.03-.03-.05-.07.01.02.03.02.05,0,.13.17.41,0,.33.33Z"/>
        <path class="cls-2" d="M78.8,31.48c-.06.04-.09.01-.14.14-.13-.02-.06-.31.02-.42l.12.27Z"/>
        <polygon class="cls-2" points="60.88 50.2 60.95 49.97 61.1 50.14 60.88 50.2"/>
        <path class="cls-2" d="M64.24,59.81c.2,0-.07.22-.08.26-.11-.07.22-.16.08-.26Z"/>
        <polygon class="cls-2" points="69.61 61.45 69.58 61.49 69.47 60.97 69.61 61.45"/>
      </g>
    </g>
  </g>
</svg>