<?xml version="1.0" encoding="UTF-8"?>
<svg id="Layer_3" data-name="Layer 3" xmlns="http://www.w3.org/2000/svg" viewBox="0 0 300 300">
  <defs>
    <style>
      .cls-1 {
        fill: #fff;
      }

      .cls-2 {
        fill: #202020;
      }
    </style>
  </defs>
  <g>
    <ellipse class="cls-1" cx="86.45" cy="154.67" rx="48.39" ry="71.95"/>
    <g>
      <path class="cls-1" d="M136.86,155.6c-.23-1.43-.97.76-.41-.93.44.19.77.47.41.93Z"/>
      <path class="cls-1" d="M136.13,149.96c-1.53-2.22-1.7-4.79-1.87-7.46-.09-1.33-.15-2.69-.4-3.99-.22-1.31-.6-2.56-1.29-3.69-.23-.54,1.56-.15.95-1.37-3.1-4.27-3.82-11.64-4.65-17.8l.55.16c-.16-1.18-2.03-1.86-2.37-3.01.26-.14.54.17.78-.25-.93.11-1.29-1.79-2.14-1.93.09-.58.73-.86.78-1.59l-1.21-.13c-1.48-.28-2.04-1.25-2.49-2.41-.48-1.14-.92-2.45-2.15-3.16.26-.03.56.08.63-.22-3.5-2.61-6.54-6.68-10.28-9.34.37-.14.93-.5,1-.98-.89.63-2.12-.08-3.17-.69.13-.59-.45-.71-1.13-.84-.68-.14-1.47-.26-1.89-.88l.24-.13c-1.48.38-.92-1.43-2.37-.68l-.13-1.07c-.58.55-.8.19-1.02-.28-.23-.45-.49-1.01-1.05-.86l-.12.3c-.88-.03-.92-.92-1.72-.96v-.19c-1.74-.34-2.44-1.41-2.79-.28-.27-1.1,1.75.14,1.31-1.49-3-.46-5.92-.87-8.87-1.02-2.94-.15-5.89-.05-8.75.49-.74-.35-1.2-.41-1.45-.83-.52.39-2.14.77-2.46,1.53.18-.09-.54-.46-.86-.41-1.19-.06-.68,1.59-1.93,1.55.31-.48.32-.9,0-1.25-.6,1.26-1.88,1.63-2.8,2.47.07-.26.28-.5.07-.81-.69,1.5-2.22.93-2.88,2.1v-.81c-2.04.24.31,1.51-1.28,1.95.19-.39-.07-.55-.16-.82-.28.94-.96,1.64-1.64,2.32-.36.32-.71.65-1.05.95-.32.32-.61.64-.82.96,0-.13-.13-.26-.13-.26-.56.58-1.22,1.05-1.82,1.64-.61.57-1.22,1.18-1.61,2.02-.66.25-1.07-1.33-2.07.11,1.04.87-1.47,2.58.37,2.83-.56.46-1.29,1.05-1.89,1.68-.61.62-1.12,1.25-1.2,1.79-.05-.85-1.79-.41-1.18-1.48l-1.22.27c-.38-.45.71-.68-.04-.85-.32.56-.93,2.34-1.41,2.69.1,1.46.84,3.14.11,4.79-.04-1.01-1.57-.35-1.48-.98.33,1.19.67,2.35,1.08,3.51-.22.55-1.03-.4-1.11.53.35.13.37.57.51.93-.27.11-.76,2.36-2.12,2.01-.6.01.16-1.01-.56-.61-.47,1.02-.07,1.25-.49,2.29l-.18-.05c-.48.6-.32,2.21.69,1.77.24-.45-.83-.14-.17-.68.51.78.24,2.03-.12,3.06-.07-.43-.43-.52-.73-.8.45,1.76.27,3.34.17,5.01.61.23-.92-.95-.52-1.07-.78.84-.79,1.99-.84,3.06-.06,1.07-.1,2.08-.96,2.75-.04-.31.93.09.75.06-.34.95-1.24.68-1.07,1.4-.56-.07-.02.85,0,1.55.31.43-.3.11-.23-.48.23,1.04.27,4.86-.83,6.88.37.02,1.12,1.53,1.01,2l-.82-.31c-.59.38-.14,1.67-.88,1.66.46.6.34-.45.23-1.46-.1-1.01-.23-1.98.06-1.2-.77.27,1.04,2.19-.06,1.72-.09,1.01.75,2.09-.16,2.95.17-.26-1.08-.94-1.12-.12,0,1.45.37.45.55,1.64l.29.76c.83.12-.22,1.27.75.81-.72.13.29,2.09-1.08,1.86l-1.07-.26c.05.63,1.09,1.08,1.55,1.59-.11.08-.33.23-.51.19,1.65.16-.2,1.48,1.08,2.24-.3.64-.33,1.46-.41,2.2-.06.74-.17,1.39-.69,1.7.52.99,1.13,1.87.84,3.02-.17-.22-.23-.53-.59-.58-.45.73,0,.89.3,1.53-.25-.13-.92,1.48-1.42,2.33.58.96,1.45.54,2,.59-.78.52-.46,1.2-.11,1.89.37.69.76,1.4.09,2.05-.27-.31-.97-1.35-1.29-.47-1.51,1.12,1.4,1.68.86,3.23l1.29-.56c-.74.77,1.11,1.98-.29,2.06.54.4-.13,1.77,1.14,1.37-.34,1.27.1,2.67.43,3.95.29,1.3.47,2.5-.49,3.52.3.28.3,1.17.92.81.57-.75-.72-.63-.28-.97.12.29.49.26.67.24-.11.79-.05,1.39-1.29,1.01-.33,1.84,2.65,1.01,2.76,3.14-.55.08-.7.3-.42.85l1.27.79c.23,1.34-.93,1.15-1.8,1.49.39.64.69,1.49,1.45,1.54l-.77,1.26c.56-.92.73.36,1.09.58l-.35-.23c-.31.27.25.96.53,1.31.49-.32.37-1.2.34-1.69.52.18.66.75,1.3,1-.9.21-.14,1.34.01,1.9.11.68,1.06.32,1.12.51-.42.22.39.99-.43.82-.23-.14.2-.66-.34-.81-.13.54-.9.85.03,1.41.7.41,1.54-.95,1.58.45-.36-.19-.7-.09-1.11-.18.03.44.07.86.12,1.29l.76-.34c-.11.24-.23.17-.29.29.95-.09,1.09,1.5,2.08,1.25.37.47.13,1.37.34,1.91l-.12-.06c-.08.86.7,1.5,1.49,1.68l-.17.07c.15.35.75,1.05,1.41,1.17.03,1.13-2.41,2.04-.92,2.33.6.81,2.12.37,2.33-.27.3.86,1.03,1.46,1.66,2.11.67.62,1.25,1.27,1.29,2.31.41-.04.47-.3.96-.06.37.51.82.96,1.3,1.39.5.4,1,.79,1.49,1.18.47.41.93.78,1.29,1.24.36.45.61,1,.76,1.6-.79-.16-.56.62-.84,1,.94-.22.12,1.06,1.07.18.41-.64.67-.89.31-1.55,1.39.6,3.17,1.8,3.5,2.8-.16-.5.23-.54.61-.58-.72.96.13,1.69,1.04,1.71l.45-.6.11.9c.39-.07.99-1.22,1.37-.24-.08.27-.17.55-.12.81,1.04-.24,2.4-.68,3.01.14l.33,1.24c.4.02,1.18-.39.66-.9.6.55,1.15.84,1.57,1.19.42.35.72.67.87,1.16,3.04-1.62,6.39-1.54,9.28-1.75l-.02.55c.85.42.28-.99.86-.68-.18.57.77,1,.25,1.76,1.26.34,1.31-1.2,1.95-1.6-.05-.72-.47.58-.53-.35.06-.24,1.63.15,1.51-.93.38.34.4,1.16.36,1.63l.53-.68c.59.47.31,1.18-.02,1.88-.32.71-.68,1.47,0,2.1l.65-.35c1.01.91-1.56,1.74.37,1.64.67-.71.78-2.48,0-2.7,1.4-.81-.13-2.67,1.38-3.15.32.21.04.38-.25.57-.29.17-.6.38-.3.76,1.05.6,1.26-1.04,2-1-.86-.08-.7-1.35-.36-1.7.94.14-.05,1.17,1.04.77-.09-.66.61-1.54-.37-1.53-.29-1.46,1.22-.14,1.22-1.43.82.68.09,2.63,1.45,2.42-.64-.75.7-1.93-.61-2.83.55,0,1,.62,1,1.31.96.16.48-2.41,1.74-.94l-.35-.95c.36.14.77.18,1.38.38.53-.39.81-2.29,1.69-1.09.07-.25,1.22-1.16.13-1.57-1.07.1-.31,1.26-1.57.46,1.21.53.89-.93,1.02-1.53l.44.38c.08-.37.71-.71.41-1.32.06.4.4.61.68.55l-.36-.86c.59-1.16,1.27.92,1.98-.11l-.21,1.13c.05-.25.93.05,1.17-.57-.41-.74-.8-1.72-1.12-2.29.21-.73.87.39.73-.65l.1,1.3c.09.28,1.38.47,2.02-.25.2-.66-.08-2.11-1.02-1.68.29-.36,1.09-.54,1.29.12.48-.99-.75-.45-.54-1.46.65.06,1.95-.4,3.02-.5l.45,1.6.42-.52c.31,1.35.92.15,1.52,1.22.43-.27.48-.95.5-1.5-2.24.03-1.14-2.68-2.73-3.3.64-1.67,3.98,1.3,2.84-1.69-.53.03-1.12-1.38-1.32-.18.74-.85-.98-1.49.25-2.25.09,1.19,1.97-.05,2.1,1.68-.41-.36-.76.47-.76.73.78-.07,1.37.97,1.98-.05.23-.71.7-1.58-.12-1.88-.84-.44-.46.99-1.06.12.42-1.37,1.8-.89.6-2.21-.3.85-1.27.56-1.82.22.06-.35.09-.71.14-1.07l.46.47c1.15-1.22-.78-.96.09-2.25.49-.02.96-.06,1.44-.1.81.84-1.49,1.81.19,2.38.55-.9-.06-1.58.76-2.27.04.26-.05.55,0,.82.21-.3,2.45.36,1.89-1.59-.14-.92-.48-.44-1.06-.74.51-1.61.08-2.34.41-3.35,1.1.69.8-1.73,1.58-.13-.87.26-1.79,2.47-.91,3.54,1.63.06-.76,1.11.45,2.1.63-1.23,1.95-.55,2.93-.36.23-.33,0-.86-.04-1.13-.77-.52-.96-.05-1.83-.41.85-1.32.97-2.91.42-4.02.61-.31,1.4.16,1.26.77.44-1.82,1.19-3.64,2.01-5.24-1.75.63.23-1.98-1.18-1.61-.59.8-1.83,1.22-2.33.54.26-.52.62.22.99.08-.57-.94,1.58-.71.56-1.77-.02,1.72,1.65.83,2.68,1.46-.27-1.37.78.29,1.14-.88-.3-1.38-.39-2.96-.33-4.34.72-.7.98-1.76,1.07-2.83.06-1.07-.02-2.14.1-2.89.72-.69,1.93.07,2.3-.76.13-1.03-1.53.53-.69-.88l.24.19c-.23-.49,1.32-2.66-.54-3.35l1.37.65c.16-.27-.13-.57-.25-.83.46.05.93-.24,1.17.27,1.09-.84.1-2.01.13-3.04l-.9.58c-.53-1.81.46-2.91.23-4.64l.83.1-.44-1.04c.79.29,1.36-.63.71-1.2l1.89,2.77c-.53.72-.96-.87-1.8-.45-.72.35-.6,1.94.16,2.26.14-.6-.03-.65-.3-1.14,1.17-.12,1.05.8,1.78,1.32-.02-.33.37-.76.01-.86.51.67.54,1.33.48,2.4-.39-.76-.74.33-1.05.02,1.01.18,1.24,1.23.78,2.51-1.27.79.46,2.56-.11,4.04-.93-.78-1.6-1.67-1.91-2.63-.62.87-.12,1.04-.77,1.9.69.57,1.8,1.07,2.07,2.39l-.76-.06c.17,1.18,1.27,1.39.79,2.78-.85,2.37-1.45,4.85-2.05,6.66l-.75-.13c1.31,1.46-.41,3.54-.16,5.11-1.44,2.06-1.13,5.25-2.82,5.91-1.11,4.16-2.3,7.87-4.9,11.58l-.56-1.22c.29,1.11-.8.12-1.08.85,1.23-.29.39,1.52.64,2.37-1.8,1.21-2.56,3.8-3.11,5.73l-.63-.42c-.01,1.16-.67,1.96-1.48,2.66-.83.69-1.89,1.24-2.75,1.99-.41-.04-1.21-.27-1.63.26-.04,1.75-.58,2.12-1.51,3.9-1.05.87-3,1.99-4.42,2.33-1.62,2.16-3.91,3.59-6.34,4.74-2.43,1.19-5.06,1.96-7.69,3.07l-.57-.8c-2.44,1.5-5.58,1.79-8.52,1.62-1.48-.05-2.91-.3-4.28-.46-.68-.09-1.33-.21-1.97-.28-.64-.07-1.26-.1-1.86-.15l.79-1.37c-1.24-.8-3.21-.46-3.2.65-.62-.46-1.54-.57-2.37-.78-.81-.24-1.53-.56-1.7-1.31-1.23-.83-1.92-.14-3.14-.51-1.19-.95-1.97-1.59-2.83-2.08-.81-.56-1.68-.98-2.89-1.67.16.16.32.33.5.48.45-.1.83-.62.34-1.08-1.06-.27-2.69-2.57-3.03-.54-.79-1.36-2.24-2.27-3.56-3.34-.68-.52-1.33-1.06-1.84-1.68-.52-.62-.97-1.26-1.15-2.03-.22.51-.75.04-1.2.03-.42-.48-.79-1.01-1.15-1.55-.32-.55-.65-1.1-.96-1.64-.66-1.05-1.27-2.02-2.19-2.6-.02-.47,1.06.03.52-.82-.5-.38-.54.36-1.2-.1-.74-.72-1.34-1.56-1.86-2.44-.49-.9-.87-1.85-1.23-2.79-.68-1.91-1.21-3.8-2.08-5.38-1.82-2.7-3.18-5.72-4.25-8.79-1.11-3.06-1.88-6.17-2.7-9.12l.37-.02c-.91-.83-.83-2.1-.81-3.27.05-1.18.02-2.28-1.17-2.89.24-.54-.14-1.85.61-1.61-.61-.72-.57-1.89-.54-3.12.05-1.24.05-2.55-.69-3.66-.02.22.07.33.26.56.57-2.42-.7-4.41-.08-6.94.17.24.31.7.68.75.65-.97-1.66-2.21.11-2.79-.03-.54-.89-.37-.83-.03.55-5.42-.32-11.22,0-16.96,1.58-3.9,2.95.16,2.12-3.19.38-.2-.64-.29-.27-.28-.3-1.31,2.25-1.55,1.5-2.55-1.13.15-.49-.67-1.13-.82,1.14-2.31,2.27-2.54,1.87-4.62l.52.28c-.52-1.29-.36-2.54-.27-3.75.11-1.21.23-2.38-.38-3.6.92-3.08,1.87-6.14,3.04-9.12.54-1.51,1.2-2.97,1.81-4.45.69-1.45,1.32-2.92,2.09-4.34,1.45-2.87,3.13-5.66,5.03-8.34,1.88-2.69,4.02-5.25,6.46-7.61,4.95-4.47,10.64-8.42,17.27-10.87,6.58-2.49,14.11-3.12,21.11-1.39.76.52,1.33.92,1.82,1.21.48.33.88.56,1.31.72.43.17.88.27,1.46.36.56.12,1.25.23,2.15.38-.22.18-.45.16-.3.45.61-1.13,2.37.8,3.14-.14,4.68,2.28,8.78,4.65,12.71,8.01-.71-.44-1.66.07-.88.63l1.28.07-.1.36c.6.3,1.53.37,1.3-.4,5.17,4.05,8.85,9.41,11.67,14.88,2.79,5.52,4.82,11.18,6.9,16.73.49,2.81,2.02,6.5,3,9.41.28,4.59.25,8.89.35,13.13.09,4.24.31,8.42.89,12.91,0,0-.8-.3-1.69-1.03-.91-.74-1.86-1.91-2.32-3.68Z"/>
      <path class="cls-1" d="M136.95,157.32c-.62.29-.97,1.27-1.78.46.58-.08,1.23-.58,1.78-.46Z"/>
      <path class="cls-1" d="M126.92,181.92c.17.08-.34.27-.46.32.05-.31-.37-.72.01-.87-.04.31.25.34.45.55Z"/>
      <path class="cls-1" d="M124.58,187.85c-.46-.28-.43-1.7-.24-2.46.08.81.19,1.65.24,2.46Z"/>
      <path class="cls-1" d="M120.28,192.36c-.63.25-.8.02-.51-.57.29.08.32.33.51.57Z"/>
      <path class="cls-1" d="M121.23,193.25c-.2.44-.59.52-.97.59.43.18.21-1.12.97-.59Z"/>
      <path class="cls-1" d="M113.68,203.1c-.13.26-.13,1.05-.79.89.54.03.26-1.54.79-.89Z"/>
      <path class="cls-1" d="M110.83,207.98c-.14.12-.27.1-.3.35-.41.07-.47-.45-.32-.68l.62.33Z"/>
      <path class="cls-1" d="M43.1,168.46c.11.2.24.41.36.61l-.55-.02.19-.59Z"/>
      <path class="cls-1" d="M48.01,121.05c-.09-.73.64-.24.75-.31-.16.56-.55-.44-.75.31Z"/>
      <polygon class="cls-1" points="58.96 97.43 58.83 97.59 58.06 96.78 58.96 97.43"/>
    </g>
  </g>
  <g>
    <ellipse class="cls-2" cx="82.99" cy="158.43" rx="19.58" ry="31.06"/>
    <g>
      <path class="cls-2" d="M105.1,158.84c-.3-.62-1.22.32-.52-.41.55.08.97.21.52.41Z"/>
      <path class="cls-2" d="M104.27,156.4c-1.8-.91-1.9-1.97-1.84-3.12.1-1.14.2-2.35-1.09-3.18-.19-.21,1.95-.28,1.39-.75-1.57-.75-2.12-1.91-2.14-3.3-.06-1.38.45-3.02.95-4.62l.57-.05c.19-.62-1.72-.5-1.69-1.06.34-.15.55-.06.96-.37-1.08.32-.87-.66-1.72-.5.31-.37,1.11-.73,1.43-1.19l-1.27.28c-1.51.29-1.68-.14-1.74-.71-.05-.56.02-1.28-.92-1.35.28-.11.52-.13.72-.36-1.25-.28-2.12-.84-2.87-1.51-.41-.31-.79-.63-1.17-.95-.19-.15-.38-.31-.58-.45-.21-.12-.43-.24-.66-.34.37-.27,1-.79,1.27-1.23-1.02.87-1.66.72-2.18.58.74-1.23-1.45.44-1.39-.47l.22-.22c-1.17.92-.01-1.06-1.25.17l.37-1.03c-1.17,1.56,0-1.15-.8-.49l-.18.35c-.49.27-.18-.7-.59-.53l.07-.21c-.84.21-.81-.94-1.34.47.2-1.22.82-.26,1.12-2.03-.37.06-.71.1-1.04.12-.34.04-.67.1-.98.12-.31.02-.62.03-.91.01-.3-.02-.6.04-.89.04-.59.02-1.16-.06-1.74.03-.57.07-1.16.02-1.71.21-.38-.53-.6-.67-.8-1.2-.17.36-.87.47-.81,1.31.07-.06-.4-.67-.55-.69-.65-.35.17,1.72-.52,1.27,0-.44-.12-.91-.41-1.4.03.63-.09.93-.25,1.18-.15.26-.35.43-.47.72-.06-.26-.03-.45-.27-.86.2,1.43-1.03.25-.97,1.23l-.34-.83c-1.25-.4.85,1.64-.03,1.52-.04-.32-.28-.56-.47-.86.45,1.65-.62,1.79-.67,2.63-.06-.11-.22-.28-.22-.28-.32.59-1.2.7-1.12,1.73-.46-.06-1.54-1.47-1.77-.7,1.36,1.1-.22,1.37,1.61,2.28-.56.26-1.61.67-1.35,1.31-.4-.59-1.95-.93-1.78-1.44l-1.11-.25c-.56-.44.44-.21-.38-.6-.12.27.04,1.3-.3,1.37.67,1,2.19,2.36,2.03,3.09-.43-.63-1.8-.73-1.95-1.08.79.84,1.66,1.67,2.51,2.46-.03.25-1.26-.56-1-.04.43.18.62.44.91.69-.22,0-.01,1.05-1.64.47-.67-.17-.16-.51-.84-.5-.17.43.38.68.24,1.12l-.22-.08c-.35.2.37,1.09,1.37,1.13.12-.17-.99-.3-.42-.4.86.56.94,1.12.81,1.52-.21-.23-.65-.37-1.08-.59,1.04,1,1.32,1.73,1.66,2.49.78.25-1.36-.66-.91-.63-1.34.5,1.04,2.05-.69,2.31-.12-.15,1.14.22.92.17-.19.36-1.34.07-.97.43-.69-.13.14.37.29.67.46.24-.35,0-.37-.25.46.5,1.29,2.12.15,2.81.46.06,1.59.75,1.51.93l-1.06-.21c-.67.09.03.67-.89.59.63.28.39-.15.11-.58-.25-.43-.54-.85-.08-.49-.93.03,1.58,1.01.15.7,0,.41,1.17.91.13,1.19.18-.09-1.45-.48-1.41-.14.14.6.5.21.81.71l.41.32c1.04.1-.19.49,1,.37-.89.01.49.84-1.24.69l-1.36-.15c.09.26,1.43.48,2.03.7-.13.03-.41.08-.63.06,2.09.11-.19.58,1.42.91-.37.24-.4.57-.5.85-.08.29-.23.54-.88.68.65.39,1.42.71.98,1.17-.2-.08-.26-.2-.72-.21-.61.31-.05.36.29.6-.31-.05-1.23.63-1.92,1.01.66.36,1.78.13,2.47.12-2.03.54,1.43.95-.39,1.58-.3-.1-1.06-.46-1.55-.08-2,.6,1.56.57.68,1.25l1.68-.37c-1.01.4,1.12.67-.62.87.64.09-.45.76,1.19.42-1.28,1.19,1.27,1.97-1.53,3.22.3.07.1.47.92.19.86-.44-.72-.14-.12-.38.08.11.53.02.75-.02-.31.37-.37.63-1.78.7-.86.93,2.93-.08,2.52.84-.67.16-.91.3-.73.49l1.26.07c-.12.57-1.41.77-2.53,1.15.27.22.34.57,1.22.4l-1.26.83c.91-.61.75-.02,1.07,0l-.32-.02c-.44.22-.04.43.16.54.66-.3.82-.72.95-.96.53-.05.5.2,1.13.15-1.1.36-.6.72-.63.98-.14.34,1.05-.14,1.05-.06-.55.24.08.4-.77.56-.21,0,.45-.4-.09-.33-.34.32-1.3.72-.46.73.63,0,2.05-.99,1.59-.26-.31,0-.74.18-1.16.26l-.34.67.96-.43c-.21.17-.31.17-.43.26,1.05-.35.6.49,1.75.02.18.16-.44.75-.43.99h-.1c-.41.53.13.65.84.47l-.2.1c0,.16.31.37.92.2-.5.72-3.31,2.21-1.96,1.85.26.3,1.93-.59,2.41-1.08-.21.92,1.51.48.61,1.88.38-.2.55-.41.86-.44.12.44.62.64.99.81.37.2.54.52.1,1.53-.47.16-.71.77-1.09,1.23.77-.55-.43.91.67-.27.59-.74.9-1.08.98-1.51.7-.11,1.17.24.87,1.15.15-.44.39-.62.62-.8-.88,1.23-.69,1.59-.21,1.26l.5-.78-.34.9c.23-.21,1.02-1.64.78-.75-.15.32-.31.65-.39.91.58-.51,1.33-1.66,1.22-.84-.11.44-.21.88-.3,1.33.16-.09.56-.79.54-1.23.08.92.31,1.01.17,2.19.35-.65.63-1.1.87-1.49.24-.4.43-.67.6-.83.17-.15.32-.21.47-.28.15-.05.3-.03.44.03l.07.68c.27.63-.09-1.17.09-.74.05.67.39,1.36.37,2.21.46.62.16-1.28.23-1.62-.2-.88,0,.59-.23-.53-.07-.32.52.61.15-.7.21.51.49,1.47.61,2.01,0-.22-.02-.44-.04-.69.36.7.49,1.45.56,2.22.08.75.11,1.58.56,2.48l.2-.27c.73,1.3-.29,1.73.61,2.02.14-.76-.34-2.73-.76-3.2.37-.57-.91-3.16-.48-3.21.43.69-.24.3.26,1.32.65.93.19-.74.52-.45-.43-.4-.84-1.69-.87-1.98.48.46.46,1.24.8,1.19-.31-.74-.38-1.39-.84-1.75-.79-1.61.49.28-.1-.98.77,1.01,1.23,2.65,1.89,3.01-.68-1.02-.5-1.6-1.66-3.02.29.25.85,1,1.18,1.69.61.47-.91-2.11.57-.21l-.69-1.04c.29.29.55.47,1.06.93.19-.1-.61-1.64.61-.24-.08-.2.31-.46-.7-1.29-.72-.4.41.93-.85-.28,1.07.94.14-.41-.1-.84l.52.51c-.13-.26.12-.29-.4-.88.25.34.62.67.8.74l-.72-.83c-.16-.61,1.47,1.32,1.49.79l.43.81c-.08-.16.76.43.64.03-.7-.74-1.52-1.64-2.07-2.2-.21-.44.92.67.26-.15l.75.99c.22.25,1.39.94,1.58.67-.13-.39-1.09-1.49-1.71-1.62.08-.11.7.11,1.2.64-.07-.49-.88-.62-1.22-1.24.6.31,1.59.55,2.54.9.4.41.79.83,1.18,1.26l.15-.19c.92,1.05.94.45,2,1.42.29-.03.02-.49-.19-.84-2.18-.86-2.29-2.17-4.13-3.16-.19-.79,4.52,2.29,2.06.03-.52-.18-1.75-1.23-1.42-.6.39-.22-1.69-1.25-.72-1.2.58.7,2.04.69,2.87,1.72-.59-.36-.6,0-.47.16.78.24,1.8,1.07,2.02.68-.04-.34.12-.68-.87-1.13-1.06-.54-.09.4-1.07-.3-.12-.62,1.51.08-.28-1.04,0,.36-1.11-.12-1.84-.5l-.3-.53.68.41c.75-.26-1.22-.78-.81-1.16l1.53.43c1.16.68-.88.47,1.13,1.33.24-.31-.72-.89-.05-.97.14.15.14.27.28.42.12-.08,2.84.97,1.52-.24-.51-.53-.69-.38-1.45-.7-.01-.67-.73-1.15-.71-1.54,1.47.64.39-.59,1.78.38-.96-.13-1.18.7.15,1.51,1.84.51-.42.37,1.26,1.25.27-.46,1.96.27,3.13.66.14-.12-.28-.47-.43-.63-1.05-.49-1.1-.29-2.2-.73.51-.45.12-1.24-.82-1.91.61,0,1.67.44,1.69.71-.03-.78.28-1.5.84-2.06-1.93-.1-.2-.86-1.79-.99-.51.23-1.88.13-2.64-.29.18-.16.79.24,1.2.27-.91-.54,1.71.03.23-.65.4.75,2.17.73,3.56,1.22-.66-.69,1.01.3,1.14-.18-.68-.7-1.17-1.44-1.36-2.03,1.55-.37.37-1.7.4-2.29.79-.2,2.4.28,2.74-.04.04-.43-1.83.04-.97-.46l.32.11c-.18-.12.15-.36.23-.64.06-.28-.13-.6-1.31-.82l1.78.4c.17-.1-.23-.26-.41-.37.58.06,1.13-.02,1.49.22,1.28-.27-.12-.87-.13-1.29l-1.09.18c-.77-.79.36-1.19-.01-1.92l1.04.07-.61-.45c1.01.15,1.67-.22.83-.48.84.4,1.68.81,2.52,1.25-.63.29-1.25-.42-2.28-.27-.9.12-.64.79.34.97.14-.25-.08-.28-.45-.5,1.46,0,1.38.39,2.32.66-.05-.14.42-.31-.04-.37.68.32.77.61.76,1.08-.53-.36-.91.09-1.32-.06,1.27.14,1.62.63,1.21,1.17-1.51.24.86,1.19.33,1.82-1.24-.46-2.21-.92-2.7-1.37-.68.32-.01.45-.73.75.93.32,2.37.67,2.87,1.31l-.95-.12c.4.56,1.8.8,1.43,1.39-.63,1-.94,2.08-1.22,2.87l-.93-.2c1.9.96.33,1.68,1.02,2.53-.6.38-.54,1.01-.58,1.55-.06.53-.18.99-1.05.95.01,1.02.02,2-.19,2.92-.19.93-.49,1.84-1.18,2.64l-1.05-.97c.72.8-.81-.19-.8.21,1.17.2,1.01,1.13,1.61,1.8-1.34.25-1.07,1.8-.77,3.11l-.79-.54c.49.88.23,1.31-.27,1.57-.49.27-1.19.37-1.64.67-.38-.17-1.14-.63-1.29-.34.7,1.47.4,1.62.4,2.95-.45.48-1.62.86-2.5.78-.09.41-.22.77-.38,1.11-.17.33-.4.6-.64.86-.49.51-1.04.93-1.65,1.29-1.3.65-2.59,1.2-3.97,2.14l-.46-1.05c-.28.37-.61.69-.96.93-.36.21-.75.37-1.15.48-.8.2-1.65.32-2.47.18-.82-.1-1.62-.25-2.37-.33-.74-.15-1.44-.22-2.16-.08l.73-1.8c-.28-.38-.71-.35-1.13-.08-.4.24-.79.75-.92,1.43-.51-.82-2.24.1-2.03-1.53-.51-.68-1.23.33-1.95.22-1.04-1.42-1.48-1.62-2.87-2.22l.21.31c.39-.24.89-.88.7-1.18-.37.05-.67-.34-.99-.49-.3-.16-.67-.08-1.24.95-.11-1.01-.9-1.4-1.68-1.88-.73-.48-1.39-1.05-1.15-2.15-.41.49-.73.29-1.16.43-.84-1.01-.47-2.8-1.93-3.04.16-.33,1.06-.31.86-.76-.35-.12-.7.43-1.18.3-.99-.55-1.27-1.6-1.34-2.64-.05-1.05.03-2.09-.47-2.81-.58-.58-1.01-1.23-1.4-1.91-.4-.68-.7-1.4-.92-2.13-.24-.73-.44-1.46-.64-2.18-.16-.72-.33-1.44-.54-2.12l.46-.07c-.96-.28-.67-.93-.42-1.51.25-.59.39-1.11-.98-1.27.4-.29.07-.88.97-.85-.67-.28-.49-.85-.29-1.44.19-.59.34-1.2-.49-1.67-.04.1.06.15.27.25.9-1.16-.58-2.02.32-3.21.2.11.35.31.81.32.87-.46-1.98-.97.24-1.27-.03-.25-1.12-.15-1.05,0,.79-2.47-.5-5.11-.71-7.84,1.53-1.71,3.7.36,2.27-1.3.44-.05-.83-.21-.37-.16-.52-.66,2.59-.47,1.5-1.03-1.37-.07-.71-.38-1.52-.54,1.04-.97,2.32-.91,1.5-1.99l.68.22c-1.74-1.46-.43-2.38-2.39-3.89.16-.75.32-1.49.48-2.23.19-.75.38-1.49.58-2.23.17-.75.39-1.49.64-2.24.25-.75.46-1.5.75-2.24,1.13-2.98,2.69-5.98,5.06-8.7,2.59-2.41,5.6-4.86,9.45-6.47,3.81-1.62,8.55-2.1,12.67-.64.79,1.14,1.13,1.71,1.61,1.96.48.24,1.01.24,2.1.26-.19.25-.33.27-.31.59.68-1.39,1.35.4,2.16-.85,2.46,1.6,4.88,2.75,6.84,4.68-.43-.18-1.44.6-1.01.87l1.06-.34-.24.37c.4.07,1.23-.18,1.32-.79,2.9,2.05,4.59,5.09,5.51,8.04.28.74.48,1.48.66,2.21l.59,2.17c.3,1.43.78,2.8,1.25,4.12-.11.74.11,1.51.45,2.27.31.76.7,1.52,1.02,2.19-1.11,4.66-2.43,8.18-.94,12.23,0,0-4.01-.55-4.98-2.03Z"/>
      <path class="cls-2" d="M105.23,159.59c-.78.12-1.21.53-2.23.16.73-.02,1.55-.22,2.23-.16Z"/>
      <path class="cls-2" d="M95.97,169.1c.22.07-.34.05-.47.05-.02-.13-.63-.4-.22-.39.03.13.39.21.69.34Z"/>
      <path class="cls-2" d="M94.83,171.31c-.64-.26-1.01-.91-1.01-1.22.34.4.67.8,1.01,1.22Z"/>
      <path class="cls-2" d="M91.42,172.3c-.6-.06-.87-.23-.78-.44.34.12.49.27.78.44Z"/>
      <path class="cls-2" d="M92.81,173.05c-.06.16-.47.08-.86,0,.54.23-.17-.5.86,0Z"/>
      <path class="cls-2" d="M89.04,175.88c0,.1.35.59-.33.23.5.22-.47-.84.33-.23Z"/>
      <path class="cls-2" d="M88.82,177.94c-.07.02-.19-.05-.08.12-.31-.12-.62-.53-.62-.63l.7.51Z"/>
      <polygon class="cls-2" points="68.92 163.85 69.28 164.06 68.61 164.11 68.92 163.85"/>
      <path class="cls-2" d="M70.65,145.26c-.32-.37.67.05.78.05-.01.23-.77-.36-.78-.05Z"/>
      <polygon class="cls-2" points="72.54 134.73 72.51 134.8 71.44 133.88 72.54 134.73"/>
    </g>
  </g>
  <g>
    <circle class="cls-1" cx="68.56" cy="141.82" r="11.23"/>
    <g>
      <path class="cls-1" d="M80.93,142.01c-.13-.28-.56.14-.24-.19.25.04.44.1.24.19Z"/>
      <path class="cls-1" d="M80.54,140.9c-.82-.38-.93-.82-.92-1.33-.05-.49,0-1.06-.67-1.31-.1-.08.86-.26.57-.43-1.48-.41-1.33-1.79-1.29-3.34l.24-.09c0-.29-.8,0-.87-.24.13-.11.23-.1.37-.29-.43.28-.46-.16-.81.02.09-.2.39-.47.46-.71l-.51.3c-1.21.72-.58-.68-1.42-.47.1-.09.21-.14.26-.27-1.14.17-1.79-.47-2.68-.55.12-.17.31-.49.37-.71-.31.52-.6.56-.84.57.16-.63-.56.39-.66-.01l.07-.12c-.39.55-.14-.45-.53.24l.04-.51c-.33.82-.13-.5-.41-.12l-.04.18c-.19.17-.16-.27-.32-.16v-.1c-.34.14-.43-.35-.55.32-.01-.56.35-.2.33-1.01-1.2.49-2.21.33-3.28.42-.15-.26-.24-.33-.29-.58-.09.15-.4.19-.44.55.03-.02-.13-.34-.19-.36-.25-.22-.07.77-.34.52.04-.2.03-.42-.06-.67-.07.57-.32.55-.49.77,0-.12.03-.2-.03-.41-.07.65-.47-.02-.55.43l-.05-.4c-.48-.34.17.82-.19.65.02-.14-.05-.28-.1-.44-.01.77-.49.69-.62,1.04,0-.06-.06-.15-.06-.15-.21.21-.6.12-.71.57-.19-.09-.45-.86-.65-.57.42.68-.28.55.36,1.22-.29,0-.77.03-.74.33-.09-.31-.7-.7-.56-.88l-.43-.28c-.18-.27.22-.02-.08-.32-.08.1-.17.55-.32.53.15.53.61,1.33.45,1.61-.1-.33-.67-.58-.69-.75.23.48.48.94.75,1.4-.04.1-.47-.42-.42-.16.16.14.21.27.31.42-.09-.03-.12.43-.75-.04-.27-.16-.01-.23-.3-.33-.13.15.08.34-.03.5l-.08-.06c-.17.04.04.5.47.65.07-.05-.4-.26-.14-.22.31.35.29.58.19.73-.07-.12-.24-.23-.41-.38.35.55.41.87.5,1.21.32.19-.53-.43-.34-.36-.65.04.31.94-.48.85-.04-.07.49.2.39.16-.11.12-.6-.11-.46.07-.29-.12.03.16.09.3.19.14-.15-.03-.15-.13.21.27.44.94-.08,1.13.2.06.69.4.65.46l-.47-.15c-.3,0-.02.26-.44.18.54.3-.33-.75.06-.42-.41-.04.68.5.04.29-.02.16.47.41,0,.47.08-.03-.65-.26-.63-.12.05.25.22.11.35.32l.18.14c.47.08-.09.19.45.18-.39-.02.19.33-.59.23l-.62-.09c.04.11.65.23.92.32-.06,0-.18.02-.29.01.95.08-.09.23.64.37-.35.18-.05.48-.63.59.3.15.65.26.45.44-.09-.03-.12-.07-.33-.07-.28.13-.02.14.13.23-.15-.01-.52.27-.84.46.31.12.81,0,1.12-.04-.9.29.64.3-.14.63-.14-.02-.5-.13-.71.05-.88.35.76.14.37.46l.74-.25c-.44.22.51.18-.26.38.28,0-.16.33.55.07-.48.56.64.63-.49,1.4.14,0,.08.18.42-.02.34-.26-.33.02-.08-.14.04.03.23-.05.33-.09-.11.17-.12.29-.73.47-.29.47,1.25-.34,1.16.05-.28.15-.37.23-.28.28l.55-.13c0,.24-.54.49-.99.78.14.05.19.2.56,0l-.46.5c.33-.37.32-.11.46-.14l-.14.03c-.17.15.03.18.12.2.25-.22.28-.4.31-.52.22-.09.23.01.5-.1-.43.3-.19.37-.18.48-.03.16.44-.21.44-.18-.21.18.08.15-.27.34-.09.03.15-.23-.07-.12-.11.18-.47.48-.11.36.27-.09.76-.7.64-.34-.13.05-.29.18-.46.28l-.07.32.36-.32c-.07.1-.11.12-.15.17.41-.3.3.11.73-.26.1.03-.09.36-.06.46l-.04.02c-.11.28.13.24.4.06l-.07.08c.02.07.17.11.4-.06-.11.36-1.09,1.43-.57,1.07.15.09.73-.55.86-.83.02.43.69-.05.51.69.13-.14.18-.26.3-.32.24.39.94-.16.82.85-.18.13-.2.43-.3.69.26-.35-.06.46.26-.21.16-.4.24-.59.21-.79.3-.13.6-.03.59.4,0-.21.09-.32.18-.43-.23.65-.1.81.1.6l.13-.4-.04.43c.09-.12.28-.84.29-.42-.03.16-.07.32-.07.44.22-.3.5-.81.56-.45v.62c.08-.06.23-.41.16-.6.17.4.32.47.34,1.01.58-1.25,1.06-1.27,1.52-1.22v.31c.15.29.03-.55.13-.34-.02.3.15.64.08,1.01.23.33.19-.56.29-.72-.03-.41-.06.28-.1-.25,0-.15.28.28.22-.34.08.24.12.69.13.95l.06-.32c.27.7-.13,1.34.15,2.2l.11-.12c.23.63-.24.78.13.95.11-.33.06-1.24-.1-1.49.24-.21-.14-1.47.12-1.47.15.35-.18.13-.04.62.23.48.19-.33.33-.18-.17-.2-.21-.84-.17-.97.19.25.06.59.25.61-.06-.36.02-.66-.17-.86-.16-.8.23.18.14-.45.23.53.2,1.32.48,1.54-.18-.52,0-.8-.34-1.54.11.13.26.54.31.88.22.28-.1-1.04.31-.02l-.16-.54c.1.15.19.29.35.54.11-.02-.01-.81.32-.03,0-.1.21-.16-.12-.66-.26-.27.04.46-.34-.24.34.56.13-.16.09-.39l.15.29c-.02-.13.1-.11-.03-.44.06.18.17.38.24.43l-.19-.47c.03-.29.44.77.53.56l.06.4c-.01-.09.27.31.27.12-.19-.42-.42-.93-.57-1.25-.03-.22.3.42.13-.03l.18.54c.06.14.45.61.57.52,0-.19-.25-.81-.5-.95.05-.04.28.15.42.46.04-.21-.29-.4-.34-.7.21.23.58.49.93.78l.33.71.09-.06c.25.59.33.34.65.91.13.03.07-.2.03-.38-.8-.7-.67-1.27-1.32-1.97.02-.33,1.6,1.67.85.36-.19-.16-.58-.78-.52-.47.18-.03-.56-.78-.17-.6.17.38.77.6,1,1.15-.2-.24-.25-.1-.21,0,.29.22.62.72.76.59.02-.15.13-.26-.23-.6-.38-.39-.08.15-.41-.29.02-.27.63.28,0-.45-.03.15-.45-.23-.71-.49l-.07-.25.24.27c.33.02-.43-.5-.23-.58l.59.41c.42.45-.41.04.35.7.13-.09-.21-.46.07-.39.04.08.03.13.08.21.06-.01,1.1.81.67.14-.16-.28-.26-.25-.54-.49.05-.26-.21-.55-.17-.69.57.45.22-.17.72.4-.4-.18-.55.1-.07.61.73.47-.21.08.41.68.16-.15.81.4,1.27.72.07-.03-.07-.23-.11-.32-.4-.35-.44-.27-.87-.61.26-.11.17-.49-.17-.88.26.09.68.4.66.51.06-.33.25-.57.55-.73-.84-.27-.01-.36-.7-.6-.24.03-.83-.18-1.13-.43.09-.04.32.19.5.25-.35-.31.74.22.13-.22.14.34.9.53,1.48.89-.25-.36.42.23.51.04-.24-.36-.4-.71-.44-.96.69-.02.25-.66.31-.88.36-.03,1.06.28,1.22.17.03-.18-.82-.1-.42-.26l.14.06c-.15-.11.62-.36-.42-.67l.78.26c.08-.03-.09-.12-.16-.18.26.06.51.05.66.17.61-.05-.03-.38-.01-.56l-.5.03c-.33-.36.18-.49.05-.81l.47.06-.27-.21c.46.08.76-.07.38-.19.38.18.76.39,1.13.6-.3.11-.55-.21-1.03-.17-.41.03-.33.32.12.43.07-.1-.03-.12-.19-.23.66.04.61.21,1.04.36-.02-.07.2-.13,0-.17.3.16.33.3.32.52-.23-.18-.42.01-.59-.07.57.11.72.35.52.58-.7.04.3.58.04.85-.54-.28-.96-.54-1.15-.76-.33.1-.03.2-.37.29.4.2,1.04.44,1.23.76l-.42-.11c.15.28.75.48.54.72-.36.41-.56.88-.79,1.2l-.4-.18c.75.6,0,.79.2,1.23-.6.2-.24,1.16-1.01.92-.12.45-.24.88-.46,1.25-.2.39-.47.73-.88.97l-.32-.57c.2.45-.32-.2-.37-.03.47.26.28.63.44,1.01-.63-.11-.71.6-.77,1.2l-.26-.35c.14.89-.66.53-1.11.65-.13-.13-.4-.45-.5-.35.1.73-.04.75-.2,1.31-.25.14-.75.12-1.11-.04-.31.66-.83.88-1.35,1.05-.52.19-1.07.22-1.6.62l-.14-.5c-.48.58-1.12.66-1.71.6-.6-.08-1.15-.18-1.66,0l.2-.85c-.24-.31-.67.13-.71.75-.24-.3-.83.28-.85-.47-.25-.23-.46.3-.74.35-.51-.47-.72-.51-1.33-.55l.12.1c.13-.16.26-.5.15-.6-.29.16-.62-.51-.85.53-.16-.41-.54-.45-.91-.53-.37-.07-.72-.23-.77-.72-.11.27-.27.24-.43.36-.51-.28-.6-1.12-1.26-1,.02-.16.41-.29.25-.45-.17,0-.24.29-.47.31-.51-.1-.77-.52-.97-.96-.18-.46-.29-.93-.61-1.18-1.35-.76-1.96-2.26-2.59-3.49l.2-.07c-.93-.15.39-1.29-.88-1.25.15-.17-.02-.44.38-.47-.63-.22.23-1.1-.53-1.48-.01.05.03.07.13.11.38-.6-.35-.98.04-1.58.09.05.16.15.37.14.39-.23-.91-.45.09-.62-.02-.12-.51-.07-.48,0,.32-1.21-.2-2.51-.15-3.87.82-.76,1.66.35,1.11-.52.2,0-.36-.15-.16-.1-.2-.35,1.19-.07.75-.4-.61-.12-.29-.23-.64-.35.57-.39,1.11-.26.84-.83l.29.16c-.63-.81.05-1.13-.66-2.02,1.26-2.63,3.03-5.17,5.7-6.71,1.37-.62,2.77-1.13,4.23-1.46,1.46-.3,2.99-.35,4.46.06.61.93.61.92,1.42.7-.06.13-.11.15-.08.29.18-.69.52.05.74-.59,1.04.38,2.06.52,3.1,1.02-.2-.01-.51.48-.31.52l.39-.31-.05.19c.17-.03.48-.27.44-.54,1.45.39,2.61,1.42,3.47,2.58.89,1.15,1.52,2.41,2.31,3.53.11.7.75,1.38,1.18,1.98-.03,2.36-.48,4.07.2,6.03,0,0-1.83-.27-2.28-.92Z"/>
      <path class="cls-1" d="M80.99,142.35c-.35.05-.56.23-1.02.05.33,0,.71-.08,1.02-.05Z"/>
      <path class="cls-1" d="M76.41,145.85c.09.05-.15-.02-.21-.03,0-.05-.25-.23-.07-.18,0,.05.15.12.28.21Z"/>
      <path class="cls-1" d="M75.75,146.57c-.25-.19-.36-.49-.34-.6.12.19.23.39.34.6Z"/>
      <path class="cls-1" d="M74.23,146.47c-.25-.12-.34-.22-.29-.29.13.1.18.18.29.29Z"/>
      <path class="cls-1" d="M74.75,146.97c-.04.05-.21-.04-.36-.13.21.17-.02-.22.36.13Z"/>
      <path class="cls-1" d="M72.89,147.48s.07.3-.16.04c.18.17-.09-.43.16-.04Z"/>
      <path class="cls-1" d="M72.53,148.3s-.07-.05-.05.04c-.11-.1-.19-.32-.17-.36l.22.32Z"/>
      <polygon class="cls-1" points="59.94 143.9 60.12 143.96 59.81 144.02 59.94 143.9"/>
      <path class="cls-1" d="M61.17,136.89c-.11-.2.28.11.33.12-.02.09-.3-.25-.33-.12Z"/>
      <polygon class="cls-1" points="63.22 132.85 63.19 132.88 62.88 132.32 63.22 132.85"/>
    </g>
  </g>
  <g>
    <path class="cls-2" d="M122.69,133.67c.51.68,1.91-.37.86.44-.88-.09-1.56-.22-.86-.44Z"/>
    <path class="cls-2" d="M30.42,151.39c-2.85-1.16-2.8-2.5-2.46-3.82.31-1.33.93-2.64-.8-4.01-.22-.31,3.11.28,2.4-.42-2.15-1.34-2.42-2.96-1.75-4.52.7-1.56,2.42-3.05,4.29-4.23l.85.29c.72-.44-2.08-1.51-1.59-2.04.58.08.8.31,1.61.3-1.72-.41-.65-1.15-1.91-1.61.72-.12,2.09.13,2.9-.03l-1.92-.66c-4.54-1.74.73-2.15-1.46-3.86.44.15.77.35,1.24.34-1.21-1.28-1.54-2.55-1.64-3.8-.07-1.25.12-2.48-.11-3.75.66.28,1.9.69,2.7.77-2.03-.66-2.34-1.5-2.56-2.22,2.17.34-1.6-1.6-.24-1.98l.45.2c-2.03-1.21,1.48-.39-.98-1.64l1.74.19c-2.84-1.19,1.76-.26.43-1.17l-.6-.19c-.57-.65.95-.36.59-.91l.35.08c-.46-1.15,1.36-1.06-.9-1.87,1.91.36.5,1.14,3.3,1.63-1.29-3.67.42-6.46,1.75-9.21,1.01.12,1.36.05,2.21.4-.29-.48.15-1.19-.8-2.02,0,.11,1.17.41,1.35.33,1.05-.04-2.02-1.8-.79-1.82.44.53,1.08.98,1.89,1.35-1.4-1.37-.76-1.82-.97-2.65.3.29.42.54,1.08.9-1.47-1.66,1.01-.8.17-2l1.06.92c1.91.12-2.32-1.8-1.02-1.95.25.4.75.64,1.2.97-1.68-2-.27-2.59-.53-3.72.13.15.44.36.44.36.23-.88,1.41-1.09,1.1-2.51.69.11,2.6,2.17,2.72,1.17-2.21-1.72.08-1.87-2.69-3.47.87-.32,2.45-.56,2.09-1.58.56.97,2.75,2,2.52,2.63l1.54.79c.79.81-.59.09.56.94.1-.3-.1-1.65.41-1.54-.86-1.56-2.74-4.19-2.3-5.14.43,1.09,2.31,2.02,2.43,2.57-.92-1.56-1.81-3.15-2.67-4.77.16-.32,1.54,1.57,1.4.71-.51-.53-.66-1-.95-1.55.3.15.59-1.49,2.48.53.8.73-.03.77.87,1.29.44-.39-.14-1.12.3-1.53l.24.28c.55.08.18-1.64-1.09-2.56-.28.11,1.1,1.22.28.86-.77-1.42-.46-2.24.02-2.65.09.48.55,1.05.95,1.72-.63-2.21-.25-3.29.04-4.6-.73-1.08,1.04,2.16.54,1.67,1.02.4,1.15-.51,1.39-1.28.23-.77.52-1.45,1.64-.59-.02.29-1.03-1.53-.83-1.23.61-.18,1.54,1.46,1.51.66.59.94.23-.56.43-1.05-.21-.8.35.42.11.69,0-1.06,1.27-3.67,3.16-2.79-.35-.65-.39-2.77-.06-2.82l.59,1.61c.67.82.87-.55,1.5.78-.26-2.16-1.51,2.6-1.38.79.78,1.22-.02-2.97.76-.77.51-.29.32-2.31,1.46-1.06-.26-.19.46,2.38.84,2.09.65-.59-.09-.85.34-1.62l.15-.8c-.56-1.57.8-.05-.15-1.69.57,1.26.92-1.23,1.74,1.41l.61,2.09c.28-.27-.2-2.37-.22-3.38.11.18.34.56.43.9-.98-3.2.92,0,.58-2.58,1.09.88,1.97-.47,2.86,1.44.3-1.15.57-2.42,1.4-1.87-.06.33-.22.47-.09,1.17.64.86.53-.01.8-.62.03.5,1.25,1.72,1.92,2.78.35-1.1-.17-2.82-.33-3.91.58,1.55.88.96,1.21.34.32-.63.68-1.3,1.25.12-.13.48-.57,1.72.03,2.47,1.01,3.16.65-2.56,1.74-1.13l-.58-2.67c.6,1.6,1.08-1.75,1.33,1.03.17-1.01,1.1.79.72-1.84.83,1.05,1.65.63,2.45.53.79-.12,1.54.18,2.08,2.53.17-.45.68-.02.53-1.38-.4-1.47-.41,1.08-.58.07.17-.09.18-.82.18-1.18.47.59.81.77.49,2.99.98,1.61.83-4.55,2.11-3.56-.02.55,0,.93.06,1.15.06.22.18.27.42.2.29-.62.6-1.24.93-1.86,1.06.47.46,2.52.4,4.38.51-.3,1.07-.13,1.45-1.5.12.8.23,1.59.31,2.39-.21-1.73.54-1.08.82-1.48l-.29.42c-.03.79.57.4.89.22.14-1.15-.36-1.71-.64-2.09.37-.77.75-.51,1.26-1.4-.43,1.79.6,1.41.94,1.7.35.49.86-1.48.99-1.39-.21.93.7.33.03,1.54-.22.26-.13-.98-.57-.23.14.76-.3,2.35.57,1.32.67-.76.8-3.53,1.37-2.17-.35.37-.58,1.06-.92,1.65.18.37.34.76.51,1.13l.5-1.59c-.01.44-.13.55-.14.78.73-1.61,1.34-.16,2.14-1.96.46-.02.45,1.39.74,1.7l-.12.11c.1,1.08.9.69,1.7-.18l-.16.33c.19.22.84.22,1.55-.54.09,1.42-2.42,5.79-.93,4.19.55.21,2.23-2.3,2.47-3.37.28.77,1.04.69,1.68.82.64.12,1.21.4,1.02,1.78.49-.49.62-.91,1.12-1.06.55.75,1.61.8,2.42,1.18.8.37,1.42.98.95,2.7-.8.26-1.03,1.31-1.6,2.07,1.21-.95-.59,1.51,1.09-.43.89-1.21,1.38-1.77,1.37-2.54,1.3-.02,2.55.98,2.03,2.42.24-.71.7-.92,1.17-1.12-1.61,1.77-1.32,2.52-.34,2.25l1.04-1.04-.75,1.36c.47-.2,2.25-2.09,1.7-.67-.37.43-.74.87-.95,1.24,1.22-.48,3.28-1.34,2.84,0l-1.18,1.86c.35.02,1.59-.53,1.71-1.3-.18,1.67.16,2.27-1.01,3.75,4.54-1.68,6.53.45,7.49,2.4l-.93.59c-.5,1.06,1.73-.87,1.35-.1-.96.45-1.61,1.66-2.91,2.04-.49,1.3,2.16-.25,2.86-.08,1.24-.73-1,.16.57-.78.48-.21-.32,1.57,1.58.49-.6.64-2.04,1.37-2.83,1.77l1.15-.16c-1.83,1.85-4.53,1.36-6.82,3.59l.51.15c-1.71,1.55-2.72.54-2.84,1.78,1.12-.24,4-1.6,4.59-2.45,1.02.48,4.65-2.4,5.06-1.36-.94.92-.71-.59-2.13.53-1.23,1.34,1.35.36,1.06,1.07.45-.85,2.56-1.61,3.07-1.51-.6,1-1.96.73-1.76,1.52,1.15-.52,2.35-.33,2.78-1.33,2.62-1.14-.25,1.12,1.88.45-1.64,1.18-4.44,1.52-4.92,2.75,1.63-1.06,2.81-.3,5.12-2.07-.33.58-1.65,1.32-2.82,1.65-.83.97,3.68-.56.35,1.33l1.84-.74c-.5.43-.83.84-1.67,1.54.15.39,3,.09.29,1.33.34-.01.62.93,2.34-.28.88-1.1-1.66,0,.71-1.51-1.87,1.37.65.69,1.5.71l-1.02.53c.5.01.48.56,1.68.18-.68.12-1.35.52-1.54.78l1.7-.5c1.14.47-2.75,1.42-1.96,1.99l-1.49-.05c.32.01-1.08.91-.43,1.06,1.54-.48,3.42-.95,4.62-1.29.83.19-1.59.88.12.71l-2.02.15c-.52.12-2.29,1.38-2.02,1.92.67.15,3.03-.09,3.63-1,.13.3-.62,1.06-1.8,1.24.76.47,1.57-.7,2.72-.47-.91.62-2.06,1.88-3.37,2.83l-2.73.32.11.39c-2.2.24-1.46.79-3.68,1.28-.25.36.59.4,1.23.45,3.16-1.94,4.99-.76,8.04-2.01,1.21.85-7.44,3.15-2.15,2.7.76-.44,3.34-.64,2.21-1.06-.13.79,3.32-.5,2.27.73-1.49-.21-3.02,1.59-5.17,1.29,1.07-.26.65-.71.31-.75-1.12.64-3.19.92-2.99,1.58.44.31.64.84,2.28.29,1.82-.54-.37-.58,1.54-.84.86.67-1.88,1.57,1.45,1.03-.39-.47,1.45-1.13,2.7-1.47l.93.44-1.25.21c-.6,1.27,2.28-.29,2.23.82l-2.28,1.09c-2.13.3.53-1.69-2.78-.61.03.66,1.8.43,1.08,1.25-.33-.06-.46-.22-.79-.27-.06.27-4.45,1.59-1.63,1.82,1.13.21,1.24-.17,2.5-.46.61.92,1.98.94,2.33,1.57-2.52.4.02,1.22-2.69,1.03,1.39-.63.91-2.1-1.53-1.89-2.85,1.05.24-.88-2.78-.36.12.79-2.79,1.44-4.65,2.01-.09.23.76.24,1.08.3,1.81-.32,1.72-.59,3.55-1.03-.29.97.89,1.57,2.74,1.7-.82.48-2.63.74-2.88.44.75.91.68,2.07.31,3.12,2.83-1.13.89.98,3.26.14.57-.64,2.58-1.48,3.96-1.4-.13.38-1.29.21-1.9.46,1.69.18-2.45,1.09.15,1.12-1.11-.83-3.62.38-5.97.57,1.41.46-1.64.23-1.55.88,1.38.46,2.51,1.14,3.11,1.82-2.05,1.21.22,2.37.4,3.22-1.14.55-3.8.49-4.21.99.1.54,2.81-.65,1.67.26l-.53-.03c.65.2-1.67,1.59,2.12,1.58l-2.88-.06c-.25.17.41.26.72.36-.93.07-1.77.29-2.39.09-1.94.61.37.99.48,1.52l1.67-.43c1.38.86-.25,1.55.35,2.42l-1.66.02,1,.5c-1.61-.08-2.64.41-1.29.66-1.36-.43-2.73-.83-4.09-1.23.97-.4,2.01.34,3.64.06,1.42-.24.96-1.05-.65-1.11-.17.31.2.31.8.53-2.31.18-2.22-.28-3.78-.44.1.15-.59.4.14.41-1.14-.26-1.34-.56-1.42-1.06.92.3,1.42-.26,2.08-.16-2.04.06-2.68-.38-2.15-1.04,2.31-.6-1.55-1.07-.99-1.81,2.08.12,3.76.37,4.61.77,1.01-.55-.08-.52.91-1.07-1.55-.1-3.92-.07-4.9-.57l1.51-.17c-.82-.47-3.06-.24-2.7-.95.65-1.23.44-2.4.53-3.3l1.49-.25c-3.26-.02-1.42-1.45-2.97-1.85.62-.67.16-1.21-.15-1.69-.31-.48-.5-.91.72-1.46-1.55-1.69-3.07-2.99-3.1-5.04l2.22-.31c-1.66.12,1.14-.59.73-.85-1.57.91-2.34.2-3.7.38,1.38-1.38-.79-1.87-2.49-2.02l1.41-.55c-2.92.27-.92-1.43-.87-2.52.54-.34,1.78-1.07,1.51-1.28-2.44.48-2.42.18-4.12.14-.23-.49-.04-1.55.54-2.47-2.01-.13-2.74-.85-3.38-1.64-.6-.81-1.17-1.66-2.56-1.93l1.39-1.12c-2.15.28-2.8-.51-3.34-1.39-.5-.91-.9-1.88-2.14-1.83l2.36-1.94c.32-1.03-1.42-.33-2.88,1.27.17-.5-.31-.47-.63-.55-.33-.07-.49-.26.26-1.27.01-.76-1.42.59-1.98.62.03-1.48-.43-1.59-1.5-1.68l.06.29c.5-.46,1.32-1.46,1.26-1.76-.8.45-.53-1.47-2.45,1.66.26-1.12-.47-1.1-1.09-1.13-.64,0-1.18-.07-.84-1.52-.45.89-.73.95-1.15,1.48-.64-.34-.46-2.5-1.72-1.25.1-.5.89-1.45.65-1.67-.32.27-.55,1.18-.97,1.6-.9.61-1.18,0-1.48-.81-.27-.76-.59-1.74-1.1-1.6-1.04.72-1.72.89-2.2.92-.06,0-.12,0-.18,0-.04,0-.28,0-.41,0-.31,0-.62,0-.92.01-.61,0-1.22.03-1.8.13l-.02-.73c-.3,1.42-.79.76-1.28.26-.48-.49-.96-.81-1.03,1.31-.26-.68-.73-.27-.77-1.67-.19,1.01-.66.63-1.18.31-.52-.32-1.09-.57-1.31.73.09.06.11-.1.15-.42-1.21-1.47-1.52.94-2.76-.31.02-.33.14-.59,0-1.31-.71-1.28-.13,3.19-1.19-.19-.2.09.29,1.75.39,1.62-1.16-.35-2.19.12-3.04.94-.84.85-1.59,1.86-2.33,2.67-2.2-1.33-2.5-5.38-2.53-2.5-.38-.57.51,1.25.18.6,0,1.07-2.4-3.19-1.89-1.38,1.1,1.87.35,1.18.94,2.36-1.46-.81-2.65-2.44-2.5-.61l-.52-1.02c.41,1.64.2,2.2.04,2.81-.15.61-.28,1.23.48,2.99-1.68,1.53-2.92,3.46-4.02,5.38-1.04,2-2,3.9-3.09,5.79-.4.36-.75.77-1.07,1.21-.32.43-.63.87-.92,1.33-.53.98-1.08,1.9-1.55,2.93-.25.5-.5,1-.79,1.48-.26.51-.53,1.01-.84,1.5-.64.96-1.3,1.97-2.25,2.88-3.2-.06-3.16.12-2.48,1.73-.44-.22-.51-.33-.97-.4,2.27.9-.11.93,2.07,1.84-.5.8-.74,1.65-.91,2.53-.14.9-.23,1.81-.49,2.73-.17-.36-2.06-1.05-2-.65l1.41.78-.67-.12c.29.34,1.39.91,2.21.87.43,2.57-.79,4.68-2.09,6.91l-1,1.67c-.31.57-.61,1.14-.87,1.73-.54,1.16-.88,2.37-.87,3.62-1.18,1.05-.37,2.85,0,4.16-3.56,3.51-6.35,7.14-4.08,11.18,0,0-6.33-.52-7.78-2.3Z"/>
    <path class="cls-2" d="M122.43,132.86c1.23-.16,1.88-.66,3.53-.29-1.15.07-2.44.33-3.53.29Z"/>
    <path class="cls-2" d="M133.91,118.43c-.36.04.46-.28.66-.36.11.16,1.16.17.55.41-.12-.17-.68-.05-1.21-.05Z"/>
    <path class="cls-2" d="M133.99,114.64c1.09-.16,2.08.48,2.29.93l-2.29-.93Z"/>
    <path class="cls-2" d="M137.63,110.19c.83-.52,1.34-.56,1.41-.13-.56.16-.87.09-1.41.13Z"/>
    <path class="cls-2" d="M135.16,110.51c-.09-.28.5-.58,1.07-.87-.9.23.73.54-1.07.87Z"/>
    <path class="cls-2" d="M135.99,101.96c-.15-.16-1.15-.26-.07-.84-.73.47,1.64.46.07.84Z"/>
    <path class="cls-2" d="M133.13,98.97c.02-.14.19-.26-.15-.28.38-.39,1.21-.47,1.38-.33l-1.23.61Z"/>
    <polygon class="cls-2" points="76.5 65.96 76.81 65.37 76.91 66.44 76.5 65.96"/>
    <path class="cls-2" d="M49.7,76.86c.09.78-.84-.66-.99-.75.23-.3.7,1.16.99.75Z"/>
    <polygon class="cls-2" points="42.69 91.17 42.73 91.07 44.46 92.49 42.69 91.17"/>
  </g>
  <g>
    <g>
      <path class="cls-2" d="M266.07,220.82c.97.11.45-1.61.86-.3-.49.56-.93.95-.86.3Z"/>
      <path class="cls-2" d="M268.73,97.92c-.25,5.54-5.81,3.04-7.11,7.18-.22.35-1.15-2.35-1.57-1.41-.91,4.68-6.13,4.96-10.7,4.15l-.15-.75c-.87-.15-.47,2.41-1.28,2.46-.24-.43-.12-.73-.59-1.24.53,1.39-.86,1.23-.62,2.35-.53-.37-1.05-1.42-1.69-1.81l.42,1.68c.84,4.08-2.65,1.09-3.09,3.67-.12-.38-.12-.72-.41-1-1.13,3.36-4.18,4.47-6.3,6.61-.18-.58-.6-1.59-1.06-2.1.71,1.63.14,2.45-.38,3.11-1.16-1.44-.39,2.09-1.66,1.63l-.12-.39c.31,2-1.39-.5-.8,1.77l-1.05-1.07c.95,2.4-1.48-.72-1.35.69l.26.46c-.17.8-1.01-.21-1.23.4l-.18-.24c-.68,1.13-1.93.18-.97,1.93-1.1-1.23.62-1.16-1.02-2.92-2.32,3.57-5.89,5.02-9.18,6.81-.75-.51-1.11-.6-1.55-1.22-.14.53-1.07.99-.89,2.05.09-.09-.69-.79-.92-.79-.96-.35.38,2.29-.7,1.85.01-.61-.2-1.23-.64-1.84.17,1.68-.7,1.86-1.13,2.66-.06-.35.01-.62-.31-1.16.1,1.95-1.51.38-1.62,1.71l-.31-1.15c-1.69-.69.83,2.3-.45,2.04.04-.44-.25-.8-.43-1.23.16,2.3-1.51,2.4-2,3.47-.03-.17-.19-.44-.19-.44-.78.71-2.03.64-2.59,1.97-.6-.26-1.21-2.56-1.96-1.67,1.13,2.03-1.17,1.71.63,3.72-.99.1-2.69.02-2.86,1-.05-.98-1.73-2.29-1.15-2.83l-1.17-.97c-.37-.88.68,0-.05-.97-.3.26-.85,1.6-1.33,1.43.04,1.59.71,4.24-.17,5.05.05-1.05-1.48-2.11-1.34-2.64l.67,4.68c-.29.28-.94-1.58-1.14-.78.32.53.28.97.36,1.49-.25-.16-1.13,1.26-2.36-.68-.57-.71.32-.72-.43-1.24-.61.35-.28,1.06-.88,1.42l-.16-.26c-.57-.08-.76,1.51.28,2.38.32-.09-.75-1.15-.02-.8.38,1.31-.35,2.11-.61,2.28-.05-.39-.37-.91-.63-1.51.28,1.89.14,2.61.15,3.45.73.85-1.16-1.62-.66-1.23-.88-.38-.96.26-.96.77-.02.52.03.9-1.28.35-.07-.18,1.45.98,1.17.78-.43.07-1.92-.91-1.6-.43-.93-.55-.02.34.06.62.59.45-.53-.22-.43-.4.23.33.42.85.35,1.21-.08.37-.44.58-1.67.47.79.28,2.62,1.15,2.44,1.17l-1.94-.59c-1.33-.26-.31.31-2.11-.12,1.1.4.86.1.6-.23-.26-.34-.53-.72.11-.3-.87-.21-.29.12.24.38.53.26.98.45-.36.06-.3.22,1.86.89-.47.61.42.04-2.73-.79-2.9-.59-.15.37.9.3,1.25.65l.71.29c2.27.37-.7.16,2.05.46-2-.24.68.44-3.31-.05l-3.1-.41c-.03.17,2.98.58,4.31.79-.33-.02-1.04-.05-1.57-.11,2.5.24,2.31.28,1.93.33-.37.04-.95.11,1.01.28-1.06.03-1.34.14-1.75.24-.03.12-.26.21-1.88.25,1.95.22,4,.31,3.19.52-.53-.02-.76-.07-1.88-.06-1.28.17.13.18,1.1.26-.79,0-2.43.4-3.76.74,1.77.12,4.09-.2,5.64-.32-2.14.29-1.17.37-.24.39.95.04,1.87,0,.17.42-.64.05-2.49.03-3.26.37-1.9.43-.92.45.27.38,1.2-.06,2.59-.21,1.91.15l3.05-.79c-.9.27-.29.26.11.25.4,0,.61,0-.93.42,1.19-.23-.45.6,2.28-.31-.88.56-.12.7.22.89.37.21.37.49-1.26,1.82.47-.15.4.26,1.38-.48.98-.85-1.06.38-.34-.16.16.02.74-.33,1.04-.51-.29.42-.22.65-2.12,1.65-.31.62.7.13,1.69-.44,1-.56,1.97-1.23,1.88-.77-.72.64-.93.91-.65.92.49-.31.96-.64,1.4-.98.06.47-1.15,1.75-2.17,2.95.44-.04.73.23,1.49-.67-.27.6-.53,1.21-.74,1.85.25-.68.4-.86.61-.86.21,0,.41.16.61.06l-.39.21c-.27.6.41.55.75.53.46-.85.19-1.48.08-1.88.57-.45.8-.12,1.5-.63-.9,1.24.08,1.33.32,1.67.19.51,1.14-.91,1.22-.79-.41.68.53.49-.34,1.25-.26.14.12-.83-.45-.37-.07.65-.83,1.81.21,1.27.78-.41,1.5-2.62,1.71-1.35-.39.2-.75.7-1.18,1.07l.25,1.09.76-1.16c-.1.36-.22.42-.28.6.98-1.12,1.27.26,2.29-1.05.42.09.2,1.26.44,1.6l-.13.06c-.04.94.77.81,1.6.22l-.18.25c.16.23.79.36,1.49-.17,0,1.23-2.6,4.58-1.07,3.47.58.31,2.22-1.62,2.47-2.52.5,1.42,2.83.2,2.61,2.61.44-.39.54-.74,1.01-.84,1.17,1.38,3.96.52,3.68,3.57-.73.23-.76,1.16-1.18,1.84,1.01-.84-.26,1.36.99-.38.63-1.09.99-1.59.85-2.28,1.23-.03,2.56.8,2.42,2.1.07-.65.46-.86.85-1.06-1.12,1.66-.64,2.32.22,2.03l.72-1-.35,1.27c.39-.21,1.56-2.05,1.42-.75-.22.42-.45.84-.55,1.19,1.03-.53,2.64-1.53,2.64-.31l-.5,1.79c.34-.02,1.3-.69,1.16-1.38.36,1.5.89,1.98.37,3.48,3.6-2.19,6.01-.87,7.74.53l-.54.74c.05,1.04,1.11-1.2,1.12-.44-.62.64-.62,1.85-1.58,2.51.21,1.27,1.76-.77,2.45-.83.71-.98-.78.42.11-.82.31-.32.5,1.42,1.57-.06-.2.72-1.05,1.77-1.53,2.33l.91-.47c-.59,2.14-3.23,2.46-4.06,5.03h.56c-.62,1.87-2.21,1.17-1.54,2.35.92-.49,2.69-2.49,2.72-3.42,1.18.14,2.72-3.42,3.63-2.68-.3,1.08-.92-.28-1.53,1.12-.31,1.53,1.37-.11,1.51.58-.09-.87,1.27-2.19,1.74-2.28.05,1.04-1.24,1.26-.62,1.86.67-.82,1.74-1.08,1.56-2.05,1.52-1.86.39,1.02,1.75-.31-.65,1.56-2.78,2.83-2.44,4.03.73-1.45,2.13-1.26,2.98-3.55.06.59-.58,1.68-1.33,2.39-.09,1.11,2.62-1.84,1.07.97l1.02-1.31c-.15.54-.17,1.01-.41,1.9.37.26,2.42-1.12,1.07.97.26-.14,1.08.5,1.65-1.17,0-1.23-1.3.68-.37-1.49-.62,1.85.92.28,1.57-.06l-.46.85c.39-.2.71.25,1.38-.57-.44.38-.71.98-.68,1.27l.97-1.12c1.15-.14-1.18,2.3-.22,2.4l-1.17.61c.25-.13-.22,1.19.38,1.02.85-1.05,1.96-2.25,2.63-3.06.73-.23-.61,1.4.53.49l-1.39,1.03c-.31.32-.81,2.1-.23,2.42.6-.17,2.18-1.46,2-2.44.29.16.25,1.09-.49,1.78.88,0,.68-1.27,1.67-1.64-.25.9-.22,2.41-.48,3.77l-1.76,1.54.37.25c-1.44,1.22-.48,1.32-1.75,2.75.1.42.76.06,1.27-.2.84-3.04,3.04-2.98,4.29-5.47,1.44.01-2.91,6.11.47,3.12.2-.72,1.83-2.19.75-1.92.49.66,1.91-2.08,2.07-.63-1.17.61-.88,2.76-2.56,3.64.54-.74-.09-.88-.35-.73-.29,1.06-1.53,2.32-.86,2.74.55.03,1.13.33,1.81-.94.82-1.35-.71-.24.4-1.44,1.1.04-.04,2.16,1.78,0-.62-.14.11-1.6.69-2.51l.94-.19-.67.82c.55,1.23,1.29-1.44,2.06-.63l-.67,2.03c-1.16,1.38-.92-1.51-2.3,1.06.53.48,1.52-.66,1.68.33-.26.13-.47.09-.73.23.16.22-1.67,3.62.38,2.24.91-.47.67-.81,1.25-1.72,1.14.32,2.01-.45,2.72-.2-1.25,1.73.99.86-.85,2.28.34-1.25-1.11-2.02-2.52-.51-.98,2.36-.57-.77-2.12,1.27.74.53-.61,2.61-1.35,4.07.15.23.72-.22.99-.36.9-1.24.61-1.4,1.43-2.74.64.89,1.92.68,3.18-.29-.11.82-1.01,2.06-1.43,1.97,1.26.25,2.25,1.11,2.97,2.11.69-2.51,1.4.18,2.06-1.85-.22-.8.27-2.59,1.15-3.36.24.34-.59.92-.74,1.46,1.14-.9-.51,2.26,1.03.69-1.36.1-1.79,2.47-3,4.02,1.26-.52-.76,1.16-.1,1.58,1.25-.5,2.53-.72,3.5-.61-.04,2.16,2.36,1.51,3.23,1.97-.09,1.11-1.55,2.81-1.28,3.43.58.31.85-2.29,1.14-.91l-.31.32c.52-.28.72,2.22,2.65-.32l-1.52,1.88c.04.28.47-.1.73-.23-.41.66-.6,1.38-1.12,1.66-.36,1.72,1.21.44,1.8.73l.39-1.42c1.54-.35,1.43,1.24,2.61,1.39l-.76,1.16.98-.36c-.84,1.06-.8,2.11.08,1.33l-3.22,2c.04-.94,1.32-1.15,1.79-2.47.42-1.14-.63-1.36-1.47-.31.24.33.42.08.94-.18-.92,1.71-1.37,1.33-2.29,2.27.21.04.14.69.5.19-.83.59-1.25.51-1.83.2.78-.4.43-1.14.86-1.52-.95,1.42-1.75,1.53-2.19.69.55-1.97-1.96.26-2.47-.69,1.23-1.26,2.38-2.17,3.23-2.46-.04-1.05-.58-.31-.62-1.36-.92.94-2.14,2.5-3.2,2.76l.64-1.1c-.93.18-1.93,1.78-2.5,1.01-.96-1.33-2.29-2.16-3.19-2.91l.63-1.1c-1.98,1.96-2.36-.29-3.73.27-.61-1.82-3.37-.67-2.86-2.93-2.73-.56-5.18-.96-7.23-2.78l1.36-1.33c-1.13.89.29-1.07-.25-1.09-.32,1.54-1.57,1.28-2.46,2.06-.26-1.85-2.4-1.35-4-.81l.64-1.1c-2.18,1.45-2.17-1-3.1-2.05.15-.53.57-1.67.16-1.76-1.7,1.35-1.95,1.03-3.54,1.55-.66-.41-1.47-1.52-1.72-2.61-4.02.89-5.59-2.26-9.1-2.41l.6-1.38c-4.2,1.14-5.76-3.25-8.77-3.2l1.56-2.04c-.26-1.09-1.89-.39-2.67,1.25-.26-1.08-2.34,0-1.66-2.04-.44-.83-1.47.47-2.22.41-.87-1.68-1.5-1.81-3.05-2.22l.24.34c.44-.39,1.03-1.3.79-1.64-.86.3-1.42-1.7-2.55,1.19-.46-2.36-4-.81-4.09-3.66-.33.78-.75.7-1.19,1.09-1.24-.73-1.62-2.97-3.34-2.37.03-.48,1.06-1.01.61-1.39-.46.08-.58.92-1.19,1.09-2.8.09-3.15-3.85-5.16-4.63-1.01-.16-1.95-.45-2.84-.82l-.33-.14-.56-.29-1.11-.62c-.74-.42-1.47-.85-2.19-1.29-2.9-1.77-5.61-3.62-8.46-5.24l.69-.29c-2.11.06-2.6-.95-3.07-1.77-.49-.84-.98-1.5-3.95-1.28.3-.5-1.31-1.14.57-1.36-1.8-.15-2.31-.93-2.88-1.67-.59-.76-1.22-1.48-3.9-1.92.1.13.4.17,1.03.25.03-.78-1.08-1.32-2.29-1.91-1.19-.58-2.49-1.2-2.44-1.89.69.12,1.42.35,2.56.34.66-.28-.94-.52-2.15-.77-1.2-.25-1.99-.51.59-.64-.49-.27-3.13-.21-2.68-.03-.42-.5-1-.99-1.74-1.49,2.16-1.05,3.59-2.15,5.01-3.35,1.41-1.19,2.81-2.49,4.59-3.75,3.17-.69,4.85-.18,5.85.13,1,.31,1.18.5,1.02-.66.96.13-1.32-.57-.49-.33,0-.46,1.47-.32,2.73-.16,1.27.15,2.33.32,1.73-.24-2.47-.73-.75-.74-2.03-1.31,3.53-.55,5.49.26,5.66-1.4l.83.64c-.45-1.28.33-2.05,1.02-2.83.71-.79,1.33-1.59,1.1-3.23,1.43-.84,2.85-1.7,4.28-2.58l1.07-.66c.34-.21.78-.48.9-.57l1.15-.81c1.51-1.11,3.01-2.21,4.51-3.31,2.98-2.21,5.96-4.38,9.12-6.27,6.7-2.9,12.32-7.48,19.61-9.5,2.71,1.4,2.79,1.28,3.99-.51.12.39.06.53.35.81-.88-1.85,1.09-.8.33-2.61,2.59-.94,4.55-2.62,7.02-3.96-.29.4.3,1.99.71,1.62l-.13-1.41.35.46c.18-.44.05-1.51-.59-1.92,5.39-4.88,13.46-4.52,19.32-8.21,1.85-.02,3.54-1.81,4.92-3.02,5.95-.07,11.19-.36,15.03-4.58,0,0,1.87,5.01.49,7.13Z"/>
      <path class="cls-2" d="M265.06,220.43c.38-.97.16-1.77,1.3-2.68-.46.85-.76,1.93-1.3,2.68Z"/>
      <path class="cls-2" d="M256.72,202.79c-.18.25.02-.48.07-.65.21.04.83-.59.68-.05-.22-.04-.44.38-.75.7Z"/>
      <path class="cls-2" d="M253.48,200.05c.54-.74,1.68-.88,2.19-.69l-2.19.69Z"/>
      <path class="cls-2" d="M252.16,194.79c.12-.83.42-1.14.8-.88-.23.43-.49.56-.8.88Z"/>
      <path class="cls-2" d="M250.82,196.41c-.29-.16-.14-.7,0-1.22-.4.67.9-.02,0,1.22Z"/>
      <path class="cls-2" d="M245.02,189.66c-.21-.05-.99.36-.61-.6-.19.71,1.46-.46.61.6Z"/>
      <path class="cls-2" d="M240.94,188.75c-.08-.12-.03-.29-.29-.15.02-.48.59-.91.8-.88l-.51,1.03Z"/>
      <polygon class="cls-2" points="184.29 157.74 185.1 157.72 183.8 157.97 184.29 157.74"/>
      <path class="cls-2" d="M190.26,150.12c-.11-.59.58.66.67.76-.1.16-.52-1-.67-.76Z"/>
      <polygon class="cls-2" points="202.61 138.38 202.51 138.46 201.67 136.79 202.61 138.38"/>
    </g>
    <g>
      <path class="cls-2" d="M167.13,151.54c-.39.41.15,1.61-.27.7.08-.73.17-1.29.27-.7Z"/>
      <path class="cls-2" d="M269.19,156.05c-1.39,4.73-2.84-.15-4.28,2.85-.16.2.13-2.61-.25-1.99-1.43,3.66-3.4,1.38-4.88-1.53l.12-.73c-.28-.55-.73,1.89-1.04,1.53.01-.49.13-.69.07-1.37-.13,1.47-.6.66-.77,1.76-.11-.58-.05-1.75-.2-2.4l-.24,1.67c-.64,3.98-1.23-.32-1.99,1.72.05-.39.13-.69.08-1.07-1.2,2.39-2.57,1.89-3.85,2.74.07-.59.15-1.68.1-2.35-.12,1.77-.52,2.21-.87,2.54-.09-1.83-.63,1.64-.99.62l.05-.4c-.35,1.9-.39-1.11-.7,1.16l-.13-1.44c-.21,2.56-.37-1.34-.66-.05v.53c-.26.62-.33-.67-.55-.25v-.3c-.52.66-.76-.78-.81,1.22-.12-1.6.5-.71.31-3.05-1.68,2.01-3.33,1.55-4.95,1.53-.16-.81-.27-1.06-.28-1.82-.18.4-.62.35-.8,1.36.06-.04-.07-1.03-.15-1.13-.27-.77-.4,2.19-.69,1.28.15-.53.21-1.17.19-1.92-.33,1.55-.69,1.29-1.03,1.79.06-.34.15-.53.16-1.16-.42,1.76-.64-.4-.99.71l.16-1.15c-.46-1.42-.23,2.41-.64,1.57.12-.36.1-.82.13-1.29-.48,2.09-1.11,1.37-1.54,2.07.03-.16.03-.47.03-.47-.45.25-.89-.42-1.41.48-.16-.52.15-2.82-.33-2.41-.06,2.32-.83.93-.64,3.56-.39-.39-.99-1.28-1.28-.51.21-.88-.1-2.84.24-3.03l-.2-1.41c.07-.95.25.33.21-.87-.17.09-.69.99-.82.61-.36,1.42-.73,4.06-1.24,4.33.27-.9-.05-2.56.13-2.96l-.85,4.42c-.17.1.03-1.83-.23-1.24,0,.62-.13.99-.22,1.48-.05-.26-.71.56-.7-1.73-.04-.9.29-.47.13-1.29-.31.01-.35.79-.66.82v-.31c-.19-.35-.63.96-.45,2.22.14.08,0-1.37.18-.7-.19,1.32-.56,1.68-.86,1.7.12-.37.13-.98.19-1.62-.47,1.78-.93,2.34-1.42,3.07-.04,1.09.24-1.97.29-1.39-.54-1.53-1.29,2.09-1.71-.12.09-.19,0,1.54,0,1.24-.28-.15-.21-1.72-.42-1.14.01-.93-.24.29-.44.56-.12.67-.03-.45.14-.55-.29.78-1.4,2.16-1.97.79,0,.61-.45,2.23-.59,2.16l.1-1.43c-.1-.86-.48.11-.46-1.12-.36,1.73,1.21-1.44.76-.11-.06-1.2-.65,2.26-.49.31-.29.04-.61,1.64-.84.29.07.23.3-1.97.07-1.88-.41.24-.14.68-.48,1.15l-.22.58c-.06,1.39-.35-.2-.26,1.36-.01-1.15-.61.69-.49-1.62l.12-1.81c-.18.13-.35,1.91-.51,2.71-.02-.17-.05-.54-.03-.83-.12,2.78-.41-.24-.69,1.9-.33-.98-.93-.12-1.04-1.86-.31.83-.6,1.83-.9,1.22.07-.26.16-.34.2-.93-.17-.83-.25-.09-.45.35.06-.41-.35-1.64-.54-2.64-.31.82-.26,2.32-.32,3.24-.16-2.75-.85,1.74-1.08-.76.11-.38.45-1.33.24-2.03-.16-2.75-.58,2.01-.95.68l.02,2.28c-.14-1.42-.65,1.3-.53-1.02-.17.82-.46-.77-.49,1.45-.61-1.9-1.68,1.08-1.96-2.92-.11.37-.34-.02-.33,1.12.12,1.24.25-.88.29-.03-.09.06-.13.67-.15.98-.19-.52-.35-.68-.09-2.52-.42-1.39-.61,3.76-1.18,2.87.06-.92.02-1.27-.15-1.13l-.38,1.56c-.37-.38-.15-2.1-.1-3.66-.21.26-.46.18-.6,1.34l-.18-1.97c.13,1.42-.2.93-.31,1.31l.11-.38c-.02-.66-.27-.26-.39-.07,0,.97.22,1.36.35,1.65-.13.68-.29.52-.45,1.32.1-1.53-.3-1.1-.46-1.26-.18-.34-.26,1.36-.31,1.31.02-.8-.3-.14-.12-1.25.07-.25.12.78.25.08-.1-.59-.04-1.97-.33-.98-.22.75-.05,3.02-.39,2.04.11-.38.15-.99.24-1.53l-.32-.81-.06,1.39c-.03-.35,0-.47-.01-.66-.15,1.46-.54.43-.67,2.08-.18.14-.33-.98-.49-1.14l.04-.12c-.17-.83-.46-.3-.66.64l.02-.3c-.11-.11-.37.1-.54.91-.24-1.06.08-5.26-.28-3.52-.28.04-.53,2.54-.45,3.43-.48-.96-1.13,1.29-1.53-.88-.09.56-.06.91-.22,1.24-.73-.57-1.63,1.6-2.13-1.16.24-.58.06-1.39.08-2.19-.22,1.24-.17-1.3-.31.83-.02,1.26-.06,1.87.13,2.39-.47.66-1.14.64-1.35-.55.1.59,0,.97-.12,1.34.1-2-.22-2.32-.49-1.62l-.08,1.22-.12-1.26c-.11.39-.19,2.56-.4,1.38,0-.47,0-.95-.03-1.3-.29.99-.71,2.67-.95,1.63l-.17-1.79c-.13.19-.36,1.26-.17,1.78-.44-1.09-.74-1.24-.84-2.78-.95,3.74-2.14,3.84-3.09,3.54l.06-.92c-.23-.87-.19,1.6-.34.96.11-.87-.13-1.9.11-2.97-.33-.98-.53,1.57-.78,1.98-.08,1.2.22-.76.12.76-.06.43-.47-.95-.59.86-.07-.72.05-2.05.12-2.79l-.25.87c-.2-2.13.75-3.78.55-6.4l-.22.28c-.13-1.91.62-2.13.12-2.8-.26.89-.54,3.52-.36,4.33-.48.49-.36,4.33-.86,4.16-.1-1.08.41-.24.37-1.75-.19-1.47-.5.8-.7.28.21.7-.05,2.53-.21,2.85-.23-.87.22-1.72-.13-1.91-.1,1.05-.46,1.82-.19,2.56-.21,2.37-.35-.67-.61,1.17-.06-1.68.5-3.86.14-4.71,0,1.62-.57,2.18-.44,4.58-.14-.47-.11-1.74.03-2.73-.19-1-.64,2.93-.61-.28l-.13,1.65c-.05-.54-.14-.95-.22-1.84-.2-.04-.71,2.21-.61-.28-.07.26-.52.13-.4,1.86.24,1.06.36-1.25.44,1.09-.13-1.91-.41.23-.59.86v-.96c-.1.37-.32.16-.41,1.2.09-.55.08-1.21,0-1.44l-.15,1.46c-.41.72,0-2.58-.4-2.17l.33-1.13c-.07.24-.15-1.13-.35-.68-.12,1.34-.3,2.93-.4,3.97-.23.58-.04-1.51-.3-.15l.33-1.6c.06-.44-.11-2.22-.4-2.19-.2.46-.55,2.38-.28,3.12-.14.02-.32-.81-.17-1.78-.34.45,0,1.44-.31,2.26-.08-.89-.4-2.18-.57-3.48l.37-2.23-.19-.03c.31-1.79-.08-1.38.13-3.26-.12-.3-.31.34-.45.82.29,3.04-.58,4.12-.56,6.89-.56.73-.1-6.73-.81-2.43.07.72-.27,2.82.1,2.03-.32-.32-.32,2.76-.67,1.6.33-1.13-.21-2.81.26-4.44-.06.92.21.7.28.44-.1-1.06.12-2.78-.22-2.79-.22.26-.5.3-.51,1.74-.04,1.58.32-.16.13,1.44-.43.54-.42-1.87-.68.92.27-.21.28,1.42.24,2.51l-.32.65.09-1.05c-.46-.77-.21,1.9-.67,1.6l-.15-2.08c.17-1.78.66.82.67-2.09-.3-.13-.45,1.35-.71.58.07-.25.16-.32.23-.57-.11-.1-.08-3.96-.6-1.72-.25.87-.09,1.04-.14,2.12-.5.31-.69,1.42-1.01,1.58.14-2.13-.55-.22-.13-2.39.12,1.25.83,1.15,1.07-.87-.09-2.52.37.37.56-2.18-.39-.07-.29-2.55-.3-4.18-.11-.12-.23.56-.31.82-.1,1.53.05,1.51,0,3.09-.42-.43-.88.41-1.17,1.89-.12-.76-.02-2.29.16-2.43-.54.43-1.09.21-1.57-.27.24,2.51-.57.57-.42,2.65.25.57.41,2.35.23,3.47-.16-.17.04-1.09,0-1.63-.26,1.36-.25-2.2-.53-.05.5-.79.2-3.04.35-4.99-.38,1.09.06-1.39-.28-1.4-.38,1.08-.83,1.92-1.22,2.33-.42-1.87-1.21-.08-1.64-.02-.19-1,.04-3.2-.19-3.59-.29.03.13,2.39-.26,1.37l.06-.44c-.14.51-.72-1.53-.95,1.64l.21-2.39c-.07-.22-.16.33-.24.58.02-.78-.04-1.49.1-2-.2-1.66-.56.25-.84.3l.13,1.42c-.52,1.09-.8-.32-1.28.16l.06-1.39-.31.82c.11-1.34-.11-2.22-.3-1.1l.84-3.37c.17.83-.28,1.67-.2,3.04.07,1.19.51.84.63-.5-.16-.16-.18.15-.32.64.01-1.93.26-1.85.43-3.13-.09.08-.19-.52-.23.09.2-.94.38-1.08.67-1.11-.22.74.06,1.2-.03,1.75.08-1.7.37-2.21.7-1.72.18,1.97.7-1.24,1.09-.68-.22,1.72-.48,3.09-.75,3.77.23.88.29-.04.51.84.17-1.28.32-3.24.68-4.01l-.03,1.27c.32-.64.39-2.52.76-2.15.64.65,1.32.67,1.81.85l-.02,1.27c.37-2.7.97-.97,1.38-2.16.6,1.24,1.43-1.16,1.69,1.03,1.16-.93,2.18-1.85,3.34-1.35l-.26,1.84c.26-1.35.1,1.07.32.8-.19-1.48.35-1.9.53-3.03.47,1.45,1.2-.09,1.7-1.37l-.03,1.27c.55-2.37,1.04-.26,1.6.15.05.53.11,1.72.29,1.59.39-2.04.55-1.89,1.05-3.15.34.01.87.54,1.19,1.35,1.37-2.84,2.61-.95,3.99-2.64l.04,1.49c1.39-3.14,2.87-.2,4.02-1.79l-.19,2.55c.32.8.8-.64.78-2.45.32.79.9-1.21,1.05.89.34.48.47-1.16.77-1.49.67.99.94.78,1.62.33l-.16-.17c-.09.56-.14,1.64.02,1.81.27-.7.89.72.74-2.33.65,1.78,1.7-1.37,2.31,1.02-.03-.84.15-.99.24-1.54.62-.01,1.22,1.7,1.76.31.08.42-.21,1.41.04,1.5.16-.31.04-1.08.24-1.54,1.06-1.52,1.99,1.67,2.91,1.3,1.68-1.55,3.35-.68,4.92-.9l-.04.61c.6-2.31,1.14,2.43,1.68-1.07.1.59.46.29.33,1.46.47-1.63,1.11,1.59,1.78-.48-.05-.06-.09.06-.16.33.56,1.37,1.16-.46,1.76.78-.07.26-.2.45-.24,1.06.21,1.18.67-2.56.71.39.14-.02.15-1.47.06-1.39,1.37,1.19,2.93-.64,4.41-1.26.99,1.8-.1,4.96.8,2.79.05.57.09-1.12.08-.52.35-.81.39,3.31.66,1.77-.03-1.81.18-1.01.23-2.1.6,1.2.67,2.83,1.22,1.47l-.07.95c.68-2.67,1.32-1.21,1.93-4.29,3.28-.45,6.47-2.07,9.67-2.31,3.13.7,6.26-.59,9.4,1.16.66,2.53.72,2.46,1.58,1.48-.05.4-.1.49-.06.88.11-2.04.59-.17.73-2.13,1.17.42,2.28-.1,3.49-.07-.2.21-.35,1.89-.12,1.76l.28-1.3.02.57c.17-.3.37-1.3.23-1.97,3.11-1.67,5.98,2.55,8.99,2.15.68.88,1.72.13,2.5-.26,2.19,2.81,4.18,5.09,6.57,3.25,0,0-.48,5.29-1.48,6.48Z"/>
      <path class="cls-2" d="M167.6,151.35c.05,1.03.29,1.6.03,2.96,0-.96-.09-2.05-.03-2.96Z"/>
      <path class="cls-2" d="M174.34,162.14c.02-.3.09.42.1.59-.09.07-.2.93-.25.4.09-.08.09-.56.15-.99Z"/>
      <path class="cls-2" d="M176.14,162.81c-.06.92-.47,1.62-.7,1.72l.7-1.72Z"/>
      <path class="cls-2" d="M177.7,166.63c.12.78.07,1.2-.13,1.17,0-.49.08-.73.13-1.17Z"/>
      <path class="cls-2" d="M177.89,164.56c.14-.02.19.52.24,1.05.02-.78-.34.48-.24-1.05Z"/>
      <path class="cls-2" d="M181.48,167.34c.09-.07.31-.82.36.2-.07-.71-.47,1.14-.36-.2Z"/>
      <path class="cls-2" d="M183.23,166.01c.05.06.07.23.14-.02.09.42-.04,1.09-.13,1.17v-1.15Z"/>
      <polygon class="cls-2" points="214.43 163.41 214.23 163.85 214.29 162.95 214.43 163.41"/>
      <path class="cls-2" d="M228.05,163.82c.2-.57.1.86.13,1-.17.09.1-1.12-.13-1Z"/>
      <polygon class="cls-2" points="235.55 159.51 235.49 159.54 235.58 157.67 235.55 159.51"/>
    </g>
  </g>
</svg>