<?xml version="1.0" encoding="UTF-8"?>
<svg xmlns="http://www.w3.org/2000/svg" viewBox="0 0 95 95">
  <defs>
    <style>
      .cls-1 {
        fill: #fff;
      }

      .cls-2 {
        fill: #ff3600;
        font-size: 40.66px;
      }

      .cls-2, .cls-3 {
        font-family: Icebox-Magnet-Trial-90ms-RKSJ-H, 'Icebox Trial';
      }

      .cls-4 {
        isolation: isolate;
      }

      .cls-5 {
        fill: #ff4f20;
      }

      .cls-3 {
        fill: #f7a397;
        font-size: 7.74px;
        mix-blend-mode: multiply;
        opacity: .49;
      }
    </style>
  </defs>
  <g class="cls-4">
    <g id="Layer_3" data-name="Layer 3">
      <text class="cls-2" transform="translate(12.26 62.64)"><tspan x="0" y="0">YUM</tspan></text>
      <text class="cls-3" transform="translate(-134.26 -112.56) rotate(20.77)"><tspan x="0" y="0" xml:space="preserve">YUM YUM YUM YUM YUM YUM YUM YUM YUM YUM  </tspan><tspan x="0" y="8" xml:space="preserve">YUM YUM YUM YUM YUM YUM YUM YUM YUM YUM  </tspan><tspan x="0" y="16" xml:space="preserve">YUM YUM YUM YUM YUM YUM YUM YUM YUM YUM  </tspan><tspan x="0" y="24" xml:space="preserve">YUM YUM YUM YUM YUM YUM YUM YUM YUM YUM  </tspan><tspan x="0" y="32" xml:space="preserve">YUM YUM YUM YUM YUM YUM YUM YUM YUM YUM  </tspan><tspan x="0" y="40" xml:space="preserve">YUM YUM YUM YUM YUM YUM YUM YUM YUM YUM  </tspan><tspan x="0" y="48" xml:space="preserve">YUM YUM YUM YUM YUM YUM YUM YUM YUM YUM  </tspan><tspan x="0" y="56">YUM YUM YUM YUM YUM YUM YUM YUM YUM YUM</tspan><tspan x="0" y="64" xml:space="preserve">YUM YUM YUM YUM YUM YUM YUM YUM YUM YUM  </tspan><tspan x="0" y="72" xml:space="preserve">YUM YUM YUM YUM YUM YUM YUM YUM YUM YUM  </tspan><tspan x="0" y="80" xml:space="preserve">YUM YUM YUM YUM YUM YUM YUM YUM YUM YUM  </tspan><tspan x="0" y="88" xml:space="preserve">YUM YUM YUM YUM YUM YUM YUM YUM YUM YUM  </tspan><tspan x="0" y="96" xml:space="preserve">YUM YUM YUM YUM YUM YUM YUM YUM YUM YUM  </tspan><tspan x="0" y="104" xml:space="preserve">YUM YUM YUM YUM YUM YUM YUM YUM YUM YUM  </tspan><tspan x="0" y="112" xml:space="preserve">YUM YUM YUM YUM YUM YUM YUM YUM YUM YUM  </tspan><tspan x="0" y="120">YUM YUM YUM YUM YUM YUM YUM YUM YUM YUM</tspan><tspan x="0" y="128" xml:space="preserve">YUM YUM YUM YUM YUM YUM YUM YUM YUM YUM  </tspan><tspan x="0" y="136" xml:space="preserve">YUM YUM YUM YUM YUM YUM YUM YUM YUM YUM  </tspan><tspan x="0" y="144" xml:space="preserve">YUM YUM YUM YUM YUM YUM YUM YUM YUM YUM  </tspan><tspan x="0" y="152" xml:space="preserve">YUM YUM YUM YUM YUM YUM YUM YUM YUM YUM  </tspan><tspan x="0" y="160" xml:space="preserve">YUM YUM YUM YUM YUM YUM YUM YUM YUM YUM  </tspan><tspan x="0" y="168" xml:space="preserve">YUM YUM YUM YUM YUM YUM YUM YUM YUM YUM  </tspan><tspan x="0" y="176" xml:space="preserve">YUM YUM YUM YUM YUM YUM YUM YUM YUM YUM  </tspan><tspan x="0" y="184" xml:space="preserve">YUM YUM YUM YUM YUM YUM YUM YUM YUM YUM   </tspan><tspan x="0" y="192" xml:space="preserve">   </tspan><tspan x="0" y="200" xml:space="preserve">   </tspan></text>
      <g>
        <path class="cls-1" d="M-33.14.24l2.15,2.38c3.47,3.84,9.4,4.14,13.24.67L20.25-31.03c3.84-3.47,4.14-9.4.67-13.24l-2.15-2.38c-7.9-8.75-21.4-9.43-30.15-1.53l-20.23,18.27c-8.75,7.9-9.43,21.4-1.53,30.15Z"/>
        <path class="cls-5" d="M-34.25-1.68c-.43-.34-.83-.77-1.19-1.25-.38-.47-.62-1.06-.91-1.62-.3-.56-.49-1.17-.74-1.75-.13-.29-.25-.57-.38-.85-.11-.29-.23-.56-.37-.83-.11-.26.39-.04.13-.61-.56-1.01-.9-2.48-.94-4.01-.06-.76.07-1.55.14-2.3.11-.75.32-1.47.48-2.14l.09.18c.13-.5-.07-1.17.07-1.71.07.01.07.19.19.09-.09-.09-.07-.34-.04-.6.05-.26.12-.52.07-.65.15-.19.31-.12.48-.36l-.15-.37c-.18-.52.03-1.02.3-1.54.26-.52.55-1.06.72-1.65.02.08,0,.2.11.14.49-1.93,2.02-3.91,3.45-5.57,0,.12.06.29.22.27-.11-.26.32-.79.7-1.24.37.02.58-.86,1.18-1.21v.08c.18-.55.66-.38.74-.91l.38-.06c-.09-.43.68-.34.86-.77l-.06-.05c.23-.33.51-.33.74-.62h.06c.57-.64,1.08-.82.87-1.02.38-.02-.54.64.04.58,1.89-2.12,4.08-4.02,6.19-5.93.32-.13.5-.24.63-.2.17-.23.76-.76.85-1.04-.07.07.24,0,.36-.1.46-.26.2-.62.71-.9-.11.21-.11.33.02.36.2-.5.71-.9,1.08-1.34-.03.1-.11.21-.04.27.29-.61.88-.72,1.18-1.21l-.04.27c.8-.44-.05-.44.6-.86-.1.16,0,.17.02.24.32-.71,1.24-1.4,1.7-1.96-.02.05.02.07.02.07.55-.55,1.21-1.02,1.75-1.69.28-.15.2.37.78-.21-.25-.24.99-.99.36-.99.3-.2.67-.47,1.04-.7.37-.22.71-.43.87-.61-.19.28.52.17.05.51l.48-.07c.02.15-.4.21-.19.28.24-.16.85-.77,1.12-.81.37-.43.62-1.02,1.4-1.46-.33.28.38.26.14.42l.89-1.07c.27-.13.16.23.52-.01-.05-.08.1-.2.2-.32.12,0,1.17-.44,1.39-.15.16.09-.44.2-.09.23.52-.15.51-.29,1.04-.42l.02.04c.36-.02,1.01-.34.59-.45-.25.04.13.18-.25.16.21-.24.84-.42,1.38-.52-.18.09-.14.18-.2.28.69-.39,1.48-.51,2.31-.71,0-.16-.3.32-.42.25.54.04,1.08,0,1.61-.08.53-.06,1.05-.13,1.48.09-.15.01-.06-.24-.06-.19.52.07.47.3.81.25.02.14.42,0,.78,0,.19-.08.08.08-.22.06.25-.06.85,0,1.54.08.34.05.7.09,1.04.19.33.11.64.22.9.35,0-.09.76-.12,1.01-.04l-.17.17c.19.17.81.3.79.48.3-.01-.21-.17-.7-.29-.5-.09-.98-.16-.6-.15.13.21,1.1-.01.85.22.48.19,1.04.16,1.42.53-.12-.09-.5.11-.12.26.69.25.24-.03.8.17l.37.1c.12-.17.57.33.44,0,0,.19,1.01.41.77.68l-.23.19c.29.12.58.03.86.06.02.04.06.14.03.16.27-.32.61.45,1.11.39.48.48,1.33,1.08,1.42,1.46.49.21.92.45,1.28.93-.11-.06-.23-.16-.32-.12.17.35.31.33.6.52-.1,0,.36.68.5,1.07.42.28.47,0,.61-.05,0,.61,1.12.85,1.22,1.51-.16-.09-.63-.39-.43-.02,0,.61.83.44,1.18,1.2l.14-.36c.08.38.85.85.52.97.27.15.38.86.62.63.1.33.24.66.37,1.02.15.35.28.71.38,1.07.21.71.29,1.4.02,1.82.07.18.06.64.22.54.16-.32-.17-.42-.06-.54.03.16.12.19.17.21-.03.42-.06.73-.34.36-.2.87.59.92.33,2.08-.13-.07-.19,0-.24.34.03.22.08.45.1.68-.27.71-.42.32-.65.28-.06.39-.25.82-.16,1.05-.15.11-.3.22-.45.32.34-.22-.02.34-.06.53l.03-.19c-.12.02-.26.44-.37.65.16.04.42-.35.58-.55,0,.22-.16.5-.21.79-.15-.19-.49.46-.7.7-.27.25-.1.44-.17.52-.1-.07-.39.45-.34.12.05-.12.27-.14.32-.37-.22.13-.35-.02-.56.44-.18.34.4.24-.21.65.09-.17.05-.26.1-.42l-.55.38.12.17c-.1.02-.07-.03-.11-.03.01.28-.64.66-.57.94-.21.22-.57.32-.8.5l.03-.05c-.34.15-.64.52-.77.82l-.02-.04c-.15.12-.47.45-.57.7-.47.21-.65-.47-.87.08-.36.34-.32.8-.08.77-.75.49-1.28,1.42-2.1,1.73-.04.15.06.13-.11.35-1.02.82-1.88,2.03-2.93,2.43.22-.32-.12-.17-.21-.25-.11.35-.41.11-.28.42.15.12.19.21.51.02-.51.6-1.39,1.39-1.83,1.55.22-.08.13.07.04.23-.16-.26-.62.09-.87.46l.08.18-.34.05c-.09.16.12.41-.32.57-.06-.04-.13-.07-.22-.06-.23.41-.54,1.02-1,1.24l-.47.07c-.14.16-.29.52.04.33-.73.44-1.14.78-1.49.79-.69,1.38-2.22,2.79-3.48,3.88l-.06-.13c-.42.21-.01.33-.31.47.02-.19-.44.02-.29-.34-.57.32-.45.73-.72,1.05.07.18.17-.31.26-.09-.01.1-.75.49-.64.76-.19.03-.23-.2-.24-.34l-.2.36c-.57.09.43-1.15-.2-1.1l-.24.27c-.45.02.49-.88-.24-.34-.2.36-.19.88.15.73-.56.6.15.73-.52,1.31-.29.04.5-.5.22-.55-.45.12-.54.65-.86.84.37-.2.3.24.14.45-.42.21.04-.39-.45.02.03.19-.33.66.12.41.07.42-.56.37-.63.8-.32-.05.1-.87-.5-.49.24.11-.42.82.09.84-.25.13-.4.01-.35-.23-.39.15-.41.96-.82.69l.07.27c-.14.02-.31.1-.55.13-.26.23-.6.99-.82.69-.06.1-.65.62-.25.6.47-.21.29-.52.72-.44-.45.02-.5.5-.64.76l-.13-.08c-.09.15-.39.39-.37.58.04-.15-.07-.18-.2-.11l.02.28c-.43.54-.38-.18-.83.31l.26-.46c-.06.1-.36.1-.55.36.04.23.03.56.06.75-.22.32-.28-.05-.41.34l.2-.5c0-.1-.46-.03-.83.31-.19.27-.37.81.08.55-.18.17-.53.32-.48.07-.38.43.2.11-.08.53-.24.04-.83.31-1.24.42l.16-.59-.25.23c.15-.49-.3,0-.31-.38-.2.12-.35.38-.46.59.81-.12-.15.97.27,1.14-.62.71-1.1-.35-1.39.78.19-.03.06.51.42.03-.46.35-.01.57-.64.9.26-.46-.68.05-.3-.62.06.13.37-.2.43-.3-.28.04-.24-.34-.68.06-.24.27-.6.61-.41.72.17.16.39-.39.38-.06-.48.54-.81.36-.75.87.32-.33.56-.23.67-.1l-.33.43-.03-.19c-.7.48,0,.38-.63.9l-.49.03c-.03-.33.97-.71.57-.94-.41.34-.39.63-.84.88.06-.1.16-.21.22-.32-.15.12-.68-.18-1.02.58-.2.36.03.18.13.31-.6.61-.68.91-1.08,1.3-.07-.15-.23,0-.41.13-.17.13-.28.21-.12-.14.36-.06,1.25-.9,1.28-1.33-.48-.07.54-.41.42-.82-.52.46-.74.16-.98.05-.15.12-.22.32-.28.42.09.22.28.05.44.22-.63.47-1.04,1.05-1.29,1.52-.29.09-.36-.14-.12-.37-.69.71-1.65,1.22-2.53,1.54.72.11-.95.48-.45.61.51-.11,1.05-.05.84.22-.32.11-.05-.15-.22-.17-.33.35-.72-.05-1.01.36.87-.4.03-.48.1-.81-.57.34-.04-.2-.64-.03-.56.34-1.32.59-2.04.7-.91-.21-2.27-.09-3.08-.28-.37-.26,0-.5-.41-.68-.49-.14.26.46-.43.08l.09-.03c-.12,0-.43-.19-.75-.33-.32-.15-.64-.29-.86-.13l.38-.2c-.11-.09-.27-.08-.39-.11.05-.1-.04-.27.2-.23-.26-.45-.84-.46-1.24-.78l.12.37c-.8-.41-1.1-.99-1.7-1.55l.17-.12-.42-.28c.23-.05.02-.46-.27-.54l1.23.6c.15.34-.44-.12-.45.18-.02.26.58.77.8.71-.19-.22-.23-.2-.44-.31.14-.27.44.05.72.06-.11-.1-.2-.3-.28-.26.3.1.51.29.89.58-.32-.12.02.25-.12.24.18-.16.58.05,1.03.41.21.48,1.04.37,1.62.67-.33.13-.76.22-1.18.1.33.33.45.2.81.49.27-.09.51-.32,1.07-.28l-.02.19c.52.03.57-.25,1.17-.09,1.05.24,2.18.17,2.99,0l.07.18c.19-.22.54-.39.92-.51.37-.16.78-.28,1-.51.51-.14.97-.49,1.36-.81.37-.34.7-.62,1.03-.7,1.37-1.43,2.56-2.7,4.13-4.02l-.07.44c.14-.4.28-.04.52-.31-.45.11.18-.55.26-.84.82-.45,1.53-1.41,2.01-2.1l.15.12c.37-.81,1.3-1.24,2.1-1.88.14-.02.4-.01.61-.23.21-.6.43-.78.91-1.46.44-.4,1.2-.98,1.73-1.3,1.37-1.81,3.24-3.13,4.78-4.88l.27.05c1.35-1.86,3.69-3.39,4.94-4.85l.12.41c.52-.32.95-.99.66-1.09.52-.32.99-1.14,1.48-1.17.5-.36.44-.64.79-1.02,1.01-.72,1.33-1.05,2.14-1.88l-.23.18c-.04.15.06.28.29.1.25-.37,1.25-.99.63-1.04,1.1-.64,2-2.1,3.14-2.64-.16-.02.05-.24.09-.39.8-.73,1.82-1.31,2.33-2.05.17-.07-.06.34.27.05.16-.21-.1-.12.09-.39.58-.68,1.28-1.23,1.98-1.76.35-.26.69-.52,1.03-.77.26-.24.56-.45.74-.74.68-1,1.21-2.1,1.49-3.27.27-1.17.29-2.39.03-3.49h.09c-.25-.33-.27-.77-.38-1.2-.08-.43-.25-.82-.62-.96,0-.2-.34-.59-.11-.58-.26-.2-.48-.54-.76-.95-.33-.44-.7-.91-1.17-1.19.06.08.11.11.21.16-.28-.46-.63-.82-.99-1.18-.36-.35-.71-.65-1.02-1.1.1.05.26.16.35.12-.17-.41-.94-.41-.81-.88-.19-.15-.28.06-.16.14-1.61-1.68-3.92-2.75-6.15-3.5-.73-.46-.72-.59-.66-.7.06-.1.13-.12-.58-.16-.08-.11-.13.14-.12.05-.54-.02-.66-.73-1.08-.57.09.29-.28.1-.32.26-1-.36-1.17-.7-2.04-.56l.08-.13c-.52.16-1.04.13-1.55.16-.51.05-1,.11-1.4.34-2.65.11-5.2.79-7.48,1.91-.57.28-1.11.62-1.67.92-.54.33-1.04.72-1.57,1.07-.51.37-.97.81-1.46,1.21-.48.39-1.01.93-1.51,1.38-4.15,3.63-8.01,7.4-12.33,10.97-1.22.6-1.29.68-2.26,1.75,0-.08.06-.15-.05-.13.15.27-.73.7-.64,1.01-.79.67-1.52,1.34-2.25,2.02-.71.68-1.52,1.39-2.16,2.07.19-.24.13-.53-.12-.26l-.14.41-.1-.02c-.15.21-.23.5.02.39-1.57,1.85-2.94,3.81-3.95,6-1.01,2.17-1.63,4.56-1.63,6.97-.06.57-.1,1.27.02,1.97.05.35.09.7.14,1.05.07.34.16.66.23.96.24,3.68,1.63,7.07,4.35,9.78,0,0-.9.15-2.09-1.03Z"/>
      </g>
    </g>
  </g>
</svg>